<?xml version="1.0" encoding="utf-8"?>
<svg xmlns="http://www.w3.org/2000/svg" xmlns:xlink="http://www.w3.org/1999/xlink" width="600" height="400" viewBox="0 0 2400 1600">
<defs>
  <clipPath id="clip200">
    <rect x="0" y="0" width="2400" height="1600"/>
  </clipPath>
</defs>
<path clip-path="url(#clip200)" d="M0 1600 L2400 1600 L2400 8.88178e-14 L0 8.88178e-14  Z" fill="#ffffff" fill-rule="evenodd" fill-opacity="1"/>
<defs>
  <clipPath id="clip201">
    <rect x="480" y="0" width="1681" height="1600"/>
  </clipPath>
</defs>
<path clip-path="url(#clip200)" d="M219.866 1423.18 L2352.76 1423.18 L2352.76 123.472 L219.866 123.472  Z" fill="#ffffff" fill-rule="evenodd" fill-opacity="1"/>
<defs>
  <clipPath id="clip202">
    <rect x="219" y="123" width="2134" height="1301"/>
  </clipPath>
</defs>
<polyline clip-path="url(#clip202)" style="stroke:#000000; stroke-linecap:round; stroke-linejoin:round; stroke-width:2; stroke-opacity:0.1; fill:none" points="280.231,1423.18 280.231,123.472 "/>
<polyline clip-path="url(#clip202)" style="stroke:#000000; stroke-linecap:round; stroke-linejoin:round; stroke-width:2; stroke-opacity:0.1; fill:none" points="950.951,1423.18 950.951,123.472 "/>
<polyline clip-path="url(#clip202)" style="stroke:#000000; stroke-linecap:round; stroke-linejoin:round; stroke-width:2; stroke-opacity:0.1; fill:none" points="1621.67,1423.18 1621.67,123.472 "/>
<polyline clip-path="url(#clip202)" style="stroke:#000000; stroke-linecap:round; stroke-linejoin:round; stroke-width:2; stroke-opacity:0.1; fill:none" points="2292.39,1423.18 2292.39,123.472 "/>
<polyline clip-path="url(#clip200)" style="stroke:#000000; stroke-linecap:round; stroke-linejoin:round; stroke-width:4; stroke-opacity:1; fill:none" points="219.866,1423.18 2352.76,1423.18 "/>
<polyline clip-path="url(#clip200)" style="stroke:#000000; stroke-linecap:round; stroke-linejoin:round; stroke-width:4; stroke-opacity:1; fill:none" points="280.231,1423.18 280.231,1404.28 "/>
<polyline clip-path="url(#clip200)" style="stroke:#000000; stroke-linecap:round; stroke-linejoin:round; stroke-width:4; stroke-opacity:1; fill:none" points="950.951,1423.18 950.951,1404.28 "/>
<polyline clip-path="url(#clip200)" style="stroke:#000000; stroke-linecap:round; stroke-linejoin:round; stroke-width:4; stroke-opacity:1; fill:none" points="1621.67,1423.18 1621.67,1404.28 "/>
<polyline clip-path="url(#clip200)" style="stroke:#000000; stroke-linecap:round; stroke-linejoin:round; stroke-width:4; stroke-opacity:1; fill:none" points="2292.39,1423.18 2292.39,1404.28 "/>
<path clip-path="url(#clip200)" d="M270.613 1481.64 L278.252 1481.64 L278.252 1455.28 L269.942 1456.95 L269.942 1452.69 L278.206 1451.02 L282.882 1451.02 L282.882 1481.64 L290.52 1481.64 L290.52 1485.58 L270.613 1485.58 L270.613 1481.64 Z" fill="#000000" fill-rule="nonzero" fill-opacity="1" /><path clip-path="url(#clip200)" d="M945.604 1481.64 L961.923 1481.64 L961.923 1485.58 L939.979 1485.58 L939.979 1481.64 Q942.641 1478.89 947.224 1474.26 Q951.831 1469.61 953.011 1468.27 Q955.257 1465.74 956.136 1464.01 Q957.039 1462.25 957.039 1460.56 Q957.039 1457.8 955.095 1456.07 Q953.173 1454.33 950.071 1454.33 Q947.872 1454.33 945.419 1455.09 Q942.988 1455.86 940.21 1457.41 L940.21 1452.69 Q943.034 1451.55 945.488 1450.97 Q947.942 1450.39 949.979 1450.39 Q955.349 1450.39 958.544 1453.08 Q961.738 1455.77 961.738 1460.26 Q961.738 1462.39 960.928 1464.31 Q960.141 1466.2 958.034 1468.8 Q957.456 1469.47 954.354 1472.69 Q951.252 1475.88 945.604 1481.64 Z" fill="#000000" fill-rule="nonzero" fill-opacity="1" /><path clip-path="url(#clip200)" d="M1625.92 1466.95 Q1629.28 1467.66 1631.15 1469.93 Q1633.05 1472.2 1633.05 1475.53 Q1633.05 1480.65 1629.53 1483.45 Q1626.01 1486.25 1619.53 1486.25 Q1617.35 1486.25 1615.04 1485.81 Q1612.75 1485.39 1610.29 1484.54 L1610.29 1480.02 Q1612.24 1481.16 1614.55 1481.74 Q1616.87 1482.32 1619.39 1482.32 Q1623.79 1482.32 1626.08 1480.58 Q1628.4 1478.84 1628.4 1475.53 Q1628.4 1472.48 1626.24 1470.77 Q1624.11 1469.03 1620.29 1469.03 L1616.27 1469.03 L1616.27 1465.19 L1620.48 1465.19 Q1623.93 1465.19 1625.76 1463.82 Q1627.59 1462.43 1627.59 1459.84 Q1627.59 1457.18 1625.69 1455.77 Q1623.81 1454.33 1620.29 1454.33 Q1618.37 1454.33 1616.17 1454.75 Q1613.97 1455.16 1611.34 1456.04 L1611.34 1451.88 Q1614 1451.14 1616.31 1450.77 Q1618.65 1450.39 1620.71 1450.39 Q1626.03 1450.39 1629.14 1452.83 Q1632.24 1455.23 1632.24 1459.35 Q1632.24 1462.22 1630.59 1464.21 Q1628.95 1466.18 1625.92 1466.95 Z" fill="#000000" fill-rule="nonzero" fill-opacity="1" /><path clip-path="url(#clip200)" d="M2295.4 1455.09 L2283.59 1473.54 L2295.4 1473.54 L2295.4 1455.09 M2294.17 1451.02 L2300.05 1451.02 L2300.05 1473.54 L2304.98 1473.54 L2304.98 1477.43 L2300.05 1477.43 L2300.05 1485.58 L2295.4 1485.58 L2295.4 1477.43 L2279.8 1477.43 L2279.8 1472.92 L2294.17 1451.02 Z" fill="#000000" fill-rule="nonzero" fill-opacity="1" /><path clip-path="url(#clip200)" d="M1221.87 1561.26 L1221.87 1548.5 L1211.37 1548.5 L1211.37 1543.22 L1228.24 1543.22 L1228.24 1563.62 Q1224.52 1566.26 1220.03 1567.63 Q1215.54 1568.97 1210.45 1568.97 Q1199.31 1568.97 1193.01 1562.47 Q1186.74 1555.95 1186.74 1544.33 Q1186.74 1532.68 1193.01 1526.19 Q1199.31 1519.66 1210.45 1519.66 Q1215.09 1519.66 1219.26 1520.81 Q1223.47 1521.96 1227 1524.18 L1227 1531.03 Q1223.43 1528 1219.42 1526.48 Q1215.41 1524.95 1210.99 1524.95 Q1202.27 1524.95 1197.88 1529.82 Q1193.51 1534.69 1193.51 1544.33 Q1193.51 1553.94 1197.88 1558.81 Q1202.27 1563.68 1210.99 1563.68 Q1214.39 1563.68 1217.07 1563.11 Q1219.74 1562.51 1221.87 1561.26 Z" fill="#000000" fill-rule="nonzero" fill-opacity="1" /><path clip-path="url(#clip200)" d="M1270.22 1548.76 L1270.22 1551.62 L1243.29 1551.62 Q1243.68 1557.67 1246.92 1560.85 Q1250.2 1564 1256.03 1564 Q1259.4 1564 1262.55 1563.17 Q1265.73 1562.35 1268.85 1560.69 L1268.85 1566.23 Q1265.7 1567.57 1262.39 1568.27 Q1259.08 1568.97 1255.68 1568.97 Q1247.15 1568.97 1242.15 1564 Q1237.18 1559.04 1237.18 1550.57 Q1237.18 1541.82 1241.89 1536.69 Q1246.64 1531.54 1254.66 1531.54 Q1261.85 1531.54 1266.02 1536.18 Q1270.22 1540.8 1270.22 1548.76 M1264.37 1547.04 Q1264.3 1542.23 1261.66 1539.37 Q1259.05 1536.5 1254.72 1536.5 Q1249.82 1536.5 1246.86 1539.27 Q1243.93 1542.04 1243.49 1547.07 L1264.37 1547.04 Z" fill="#000000" fill-rule="nonzero" fill-opacity="1" /><path clip-path="url(#clip200)" d="M1309.47 1546.53 L1309.47 1568.04 L1303.61 1568.04 L1303.61 1546.72 Q1303.61 1541.66 1301.64 1539.14 Q1299.66 1536.63 1295.72 1536.63 Q1290.97 1536.63 1288.24 1539.65 Q1285.5 1542.68 1285.5 1547.9 L1285.5 1568.04 L1279.61 1568.04 L1279.61 1532.4 L1285.5 1532.4 L1285.5 1537.93 Q1287.6 1534.72 1290.43 1533.13 Q1293.3 1531.54 1297.02 1531.54 Q1303.16 1531.54 1306.32 1535.36 Q1309.47 1539.14 1309.47 1546.53 Z" fill="#000000" fill-rule="nonzero" fill-opacity="1" /><path clip-path="url(#clip200)" d="M1351.64 1548.76 L1351.64 1551.62 L1324.71 1551.62 Q1325.09 1557.67 1328.34 1560.85 Q1331.62 1564 1337.44 1564 Q1340.82 1564 1343.97 1563.17 Q1347.15 1562.35 1350.27 1560.69 L1350.27 1566.23 Q1347.12 1567.57 1343.81 1568.27 Q1340.5 1568.97 1337.09 1568.97 Q1328.56 1568.97 1323.57 1564 Q1318.6 1559.04 1318.6 1550.57 Q1318.6 1541.82 1323.31 1536.69 Q1328.05 1531.54 1336.07 1531.54 Q1343.27 1531.54 1347.44 1536.18 Q1351.64 1540.8 1351.64 1548.76 M1345.78 1547.04 Q1345.72 1542.23 1343.08 1539.37 Q1340.47 1536.5 1336.14 1536.5 Q1331.24 1536.5 1328.28 1539.27 Q1325.35 1542.04 1324.9 1547.07 L1345.78 1547.04 Z" fill="#000000" fill-rule="nonzero" fill-opacity="1" /><path clip-path="url(#clip200)" d="M1383.98 1533.45 L1383.98 1538.98 Q1381.49 1537.71 1378.82 1537.07 Q1376.15 1536.44 1373.28 1536.44 Q1368.92 1536.44 1366.73 1537.77 Q1364.56 1539.11 1364.56 1541.79 Q1364.56 1543.82 1366.12 1545 Q1367.68 1546.15 1372.39 1547.2 L1374.4 1547.64 Q1380.63 1548.98 1383.24 1551.43 Q1385.89 1553.85 1385.89 1558.21 Q1385.89 1563.17 1381.94 1566.07 Q1378.03 1568.97 1371.15 1568.97 Q1368.29 1568.97 1365.17 1568.39 Q1362.08 1567.85 1358.64 1566.74 L1358.64 1560.69 Q1361.89 1562.38 1365.04 1563.24 Q1368.19 1564.07 1371.28 1564.07 Q1375.42 1564.07 1377.64 1562.66 Q1379.87 1561.23 1379.87 1558.65 Q1379.87 1556.27 1378.25 1554.99 Q1376.66 1553.72 1371.21 1552.54 L1369.18 1552.07 Q1363.73 1550.92 1361.32 1548.56 Q1358.9 1546.18 1358.9 1542.04 Q1358.9 1537.01 1362.46 1534.27 Q1366.03 1531.54 1372.58 1531.54 Q1375.83 1531.54 1378.69 1532.01 Q1381.56 1532.49 1383.98 1533.45 Z" fill="#000000" fill-rule="nonzero" fill-opacity="1" /><polyline clip-path="url(#clip202)" style="stroke:#000000; stroke-linecap:round; stroke-linejoin:round; stroke-width:2; stroke-opacity:0.1; fill:none" points="219.866,1363.05 2352.76,1363.05 "/>
<polyline clip-path="url(#clip202)" style="stroke:#000000; stroke-linecap:round; stroke-linejoin:round; stroke-width:2; stroke-opacity:0.1; fill:none" points="219.866,1111.2 2352.76,1111.2 "/>
<polyline clip-path="url(#clip202)" style="stroke:#000000; stroke-linecap:round; stroke-linejoin:round; stroke-width:2; stroke-opacity:0.1; fill:none" points="219.866,859.352 2352.76,859.352 "/>
<polyline clip-path="url(#clip202)" style="stroke:#000000; stroke-linecap:round; stroke-linejoin:round; stroke-width:2; stroke-opacity:0.1; fill:none" points="219.866,607.503 2352.76,607.503 "/>
<polyline clip-path="url(#clip202)" style="stroke:#000000; stroke-linecap:round; stroke-linejoin:round; stroke-width:2; stroke-opacity:0.1; fill:none" points="219.866,355.654 2352.76,355.654 "/>
<polyline clip-path="url(#clip200)" style="stroke:#000000; stroke-linecap:round; stroke-linejoin:round; stroke-width:4; stroke-opacity:1; fill:none" points="219.866,1423.18 219.866,123.472 "/>
<polyline clip-path="url(#clip200)" style="stroke:#000000; stroke-linecap:round; stroke-linejoin:round; stroke-width:4; stroke-opacity:1; fill:none" points="219.866,1363.05 238.764,1363.05 "/>
<polyline clip-path="url(#clip200)" style="stroke:#000000; stroke-linecap:round; stroke-linejoin:round; stroke-width:4; stroke-opacity:1; fill:none" points="219.866,1111.2 238.764,1111.2 "/>
<polyline clip-path="url(#clip200)" style="stroke:#000000; stroke-linecap:round; stroke-linejoin:round; stroke-width:4; stroke-opacity:1; fill:none" points="219.866,859.352 238.764,859.352 "/>
<polyline clip-path="url(#clip200)" style="stroke:#000000; stroke-linecap:round; stroke-linejoin:round; stroke-width:4; stroke-opacity:1; fill:none" points="219.866,607.503 238.764,607.503 "/>
<polyline clip-path="url(#clip200)" style="stroke:#000000; stroke-linecap:round; stroke-linejoin:round; stroke-width:4; stroke-opacity:1; fill:none" points="219.866,355.654 238.764,355.654 "/>
<path clip-path="url(#clip200)" d="M128.288 1348.85 Q124.677 1348.85 122.848 1352.41 Q121.043 1355.95 121.043 1363.08 Q121.043 1370.19 122.848 1373.76 Q124.677 1377.3 128.288 1377.3 Q131.922 1377.3 133.728 1373.76 Q135.556 1370.19 135.556 1363.08 Q135.556 1355.95 133.728 1352.41 Q131.922 1348.85 128.288 1348.85 M128.288 1345.14 Q134.098 1345.14 137.154 1349.75 Q140.232 1354.33 140.232 1363.08 Q140.232 1371.81 137.154 1376.42 Q134.098 1381 128.288 1381 Q122.478 1381 119.399 1376.42 Q116.343 1371.81 116.343 1363.08 Q116.343 1354.33 119.399 1349.75 Q122.478 1345.14 128.288 1345.14 Z" fill="#000000" fill-rule="nonzero" fill-opacity="1" /><path clip-path="url(#clip200)" d="M148.45 1374.45 L153.334 1374.45 L153.334 1380.33 L148.45 1380.33 L148.45 1374.45 Z" fill="#000000" fill-rule="nonzero" fill-opacity="1" /><path clip-path="url(#clip200)" d="M167.547 1376.39 L183.866 1376.39 L183.866 1380.33 L161.922 1380.33 L161.922 1376.39 Q164.584 1373.64 169.167 1369.01 Q173.774 1364.36 174.954 1363.02 Q177.2 1360.49 178.079 1358.76 Q178.982 1357 178.982 1355.31 Q178.982 1352.55 177.038 1350.82 Q175.116 1349.08 172.014 1349.08 Q169.815 1349.08 167.362 1349.84 Q164.931 1350.61 162.153 1352.16 L162.153 1347.44 Q164.977 1346.3 167.431 1345.72 Q169.885 1345.14 171.922 1345.14 Q177.292 1345.14 180.487 1347.83 Q183.681 1350.52 183.681 1355.01 Q183.681 1357.14 182.871 1359.06 Q182.084 1360.95 179.977 1363.55 Q179.399 1364.22 176.297 1367.44 Q173.195 1370.63 167.547 1376.39 Z" fill="#000000" fill-rule="nonzero" fill-opacity="1" /><path clip-path="url(#clip200)" d="M127.339 1097 Q123.728 1097 121.899 1100.56 Q120.093 1104.11 120.093 1111.24 Q120.093 1118.34 121.899 1121.91 Q123.728 1125.45 127.339 1125.45 Q130.973 1125.45 132.779 1121.91 Q134.607 1118.34 134.607 1111.24 Q134.607 1104.11 132.779 1100.56 Q130.973 1097 127.339 1097 M127.339 1093.3 Q133.149 1093.3 136.204 1097.9 Q139.283 1102.49 139.283 1111.24 Q139.283 1119.96 136.204 1124.57 Q133.149 1129.15 127.339 1129.15 Q121.529 1129.15 118.45 1124.57 Q115.394 1119.96 115.394 1111.24 Q115.394 1102.49 118.45 1097.9 Q121.529 1093.3 127.339 1093.3 Z" fill="#000000" fill-rule="nonzero" fill-opacity="1" /><path clip-path="url(#clip200)" d="M147.501 1122.6 L152.385 1122.6 L152.385 1128.48 L147.501 1128.48 L147.501 1122.6 Z" fill="#000000" fill-rule="nonzero" fill-opacity="1" /><path clip-path="url(#clip200)" d="M176.737 1109.85 Q180.093 1110.56 181.968 1112.83 Q183.866 1115.1 183.866 1118.43 Q183.866 1123.55 180.348 1126.35 Q176.829 1129.15 170.348 1129.15 Q168.172 1129.15 165.857 1128.71 Q163.565 1128.3 161.112 1127.44 L161.112 1122.93 Q163.056 1124.06 165.371 1124.64 Q167.686 1125.22 170.209 1125.22 Q174.607 1125.22 176.899 1123.48 Q179.214 1121.74 179.214 1118.43 Q179.214 1115.38 177.061 1113.67 Q174.931 1111.93 171.112 1111.93 L167.084 1111.93 L167.084 1108.09 L171.297 1108.09 Q174.746 1108.09 176.575 1106.72 Q178.403 1105.33 178.403 1102.74 Q178.403 1100.08 176.505 1098.67 Q174.63 1097.23 171.112 1097.23 Q169.19 1097.23 166.991 1097.65 Q164.792 1098.06 162.153 1098.94 L162.153 1094.78 Q164.815 1094.04 167.13 1093.67 Q169.468 1093.3 171.528 1093.3 Q176.852 1093.3 179.954 1095.73 Q183.056 1098.13 183.056 1102.25 Q183.056 1105.12 181.413 1107.12 Q179.769 1109.08 176.737 1109.85 Z" fill="#000000" fill-rule="nonzero" fill-opacity="1" /><path clip-path="url(#clip200)" d="M126.205 845.151 Q122.593 845.151 120.765 848.715 Q118.959 852.257 118.959 859.387 Q118.959 866.493 120.765 870.058 Q122.593 873.6 126.205 873.6 Q129.839 873.6 131.644 870.058 Q133.473 866.493 133.473 859.387 Q133.473 852.257 131.644 848.715 Q129.839 845.151 126.205 845.151 M126.205 841.447 Q132.015 841.447 135.07 846.053 Q138.149 850.637 138.149 859.387 Q138.149 868.113 135.07 872.72 Q132.015 877.303 126.205 877.303 Q120.394 877.303 117.316 872.72 Q114.26 868.113 114.26 859.387 Q114.26 850.637 117.316 846.053 Q120.394 841.447 126.205 841.447 Z" fill="#000000" fill-rule="nonzero" fill-opacity="1" /><path clip-path="url(#clip200)" d="M146.366 870.752 L151.251 870.752 L151.251 876.632 L146.366 876.632 L146.366 870.752 Z" fill="#000000" fill-rule="nonzero" fill-opacity="1" /><path clip-path="url(#clip200)" d="M174.283 846.146 L162.477 864.595 L174.283 864.595 L174.283 846.146 M173.056 842.072 L178.936 842.072 L178.936 864.595 L183.866 864.595 L183.866 868.484 L178.936 868.484 L178.936 876.632 L174.283 876.632 L174.283 868.484 L158.681 868.484 L158.681 863.97 L173.056 842.072 Z" fill="#000000" fill-rule="nonzero" fill-opacity="1" /><path clip-path="url(#clip200)" d="M127.686 593.302 Q124.075 593.302 122.246 596.866 Q120.441 600.408 120.441 607.538 Q120.441 614.644 122.246 618.209 Q124.075 621.751 127.686 621.751 Q131.32 621.751 133.126 618.209 Q134.954 614.644 134.954 607.538 Q134.954 600.408 133.126 596.866 Q131.32 593.302 127.686 593.302 M127.686 589.598 Q133.496 589.598 136.552 594.204 Q139.63 598.788 139.63 607.538 Q139.63 616.265 136.552 620.871 Q133.496 625.454 127.686 625.454 Q121.876 625.454 118.797 620.871 Q115.742 616.265 115.742 607.538 Q115.742 598.788 118.797 594.204 Q121.876 589.598 127.686 589.598 Z" fill="#000000" fill-rule="nonzero" fill-opacity="1" /><path clip-path="url(#clip200)" d="M147.848 618.903 L152.732 618.903 L152.732 624.783 L147.848 624.783 L147.848 618.903 Z" fill="#000000" fill-rule="nonzero" fill-opacity="1" /><path clip-path="url(#clip200)" d="M162.964 590.223 L181.32 590.223 L181.32 594.158 L167.246 594.158 L167.246 602.63 Q168.264 602.283 169.283 602.121 Q170.302 601.936 171.32 601.936 Q177.107 601.936 180.487 605.107 Q183.866 608.278 183.866 613.695 Q183.866 619.274 180.394 622.376 Q176.922 625.454 170.602 625.454 Q168.427 625.454 166.158 625.084 Q163.913 624.714 161.505 623.973 L161.505 619.274 Q163.589 620.408 165.811 620.964 Q168.033 621.519 170.51 621.519 Q174.514 621.519 176.852 619.413 Q179.19 617.306 179.19 613.695 Q179.19 610.084 176.852 607.978 Q174.514 605.871 170.51 605.871 Q168.635 605.871 166.76 606.288 Q164.908 606.704 162.964 607.584 L162.964 590.223 Z" fill="#000000" fill-rule="nonzero" fill-opacity="1" /><path clip-path="url(#clip200)" d="M126.529 341.453 Q122.918 341.453 121.089 345.018 Q119.283 348.559 119.283 355.689 Q119.283 362.795 121.089 366.36 Q122.918 369.902 126.529 369.902 Q130.163 369.902 131.968 366.36 Q133.797 362.795 133.797 355.689 Q133.797 348.559 131.968 345.018 Q130.163 341.453 126.529 341.453 M126.529 337.749 Q132.339 337.749 135.394 342.356 Q138.473 346.939 138.473 355.689 Q138.473 364.416 135.394 369.022 Q132.339 373.605 126.529 373.605 Q120.718 373.605 117.64 369.022 Q114.584 364.416 114.584 355.689 Q114.584 346.939 117.64 342.356 Q120.718 337.749 126.529 337.749 Z" fill="#000000" fill-rule="nonzero" fill-opacity="1" /><path clip-path="url(#clip200)" d="M146.691 367.054 L151.575 367.054 L151.575 372.934 L146.691 372.934 L146.691 367.054 Z" fill="#000000" fill-rule="nonzero" fill-opacity="1" /><path clip-path="url(#clip200)" d="M172.339 353.791 Q169.19 353.791 167.339 355.943 Q165.51 358.096 165.51 361.846 Q165.51 365.573 167.339 367.749 Q169.19 369.902 172.339 369.902 Q175.487 369.902 177.315 367.749 Q179.167 365.573 179.167 361.846 Q179.167 358.096 177.315 355.943 Q175.487 353.791 172.339 353.791 M181.621 339.138 L181.621 343.397 Q179.862 342.564 178.056 342.124 Q176.274 341.684 174.514 341.684 Q169.885 341.684 167.431 344.809 Q165.001 347.934 164.653 354.254 Q166.019 352.24 168.079 351.175 Q170.139 350.087 172.616 350.087 Q177.825 350.087 180.834 353.258 Q183.866 356.406 183.866 361.846 Q183.866 367.17 180.718 370.388 Q177.57 373.605 172.339 373.605 Q166.343 373.605 163.172 369.022 Q160.001 364.416 160.001 355.689 Q160.001 347.494 163.89 342.633 Q167.778 337.749 174.329 337.749 Q176.089 337.749 177.871 338.096 Q179.676 338.443 181.621 339.138 Z" fill="#000000" fill-rule="nonzero" fill-opacity="1" /><path clip-path="url(#clip200)" d="M16.4842 837.445 L16.4842 827.864 L48.8219 815.738 L16.4842 803.547 L16.4842 793.967 L64.0042 793.967 L64.0042 800.237 L22.277 800.237 L54.8694 812.491 L54.8694 818.952 L22.277 831.206 L64.0042 831.206 L64.0042 837.445 L16.4842 837.445 Z" fill="#000000" fill-rule="nonzero" fill-opacity="1" /><path clip-path="url(#clip200)" d="M18.0438 752.717 L24.314 752.717 Q22.5634 756.377 21.704 759.624 Q20.8447 762.87 20.8447 765.894 Q20.8447 771.146 22.8817 774.01 Q24.9187 776.843 28.6745 776.843 Q31.8255 776.843 33.4488 774.965 Q35.0402 773.055 36.0269 767.772 L36.8226 763.889 Q38.1912 756.696 41.6605 753.29 Q45.098 749.852 50.8908 749.852 Q57.7976 749.852 61.3624 754.499 Q64.9272 759.115 64.9272 768.058 Q64.9272 771.432 64.1633 775.252 Q63.3994 779.039 61.9035 783.113 L55.2831 783.113 Q57.4793 779.198 58.5933 775.443 Q59.7073 771.687 59.7073 768.058 Q59.7073 762.552 57.543 759.56 Q55.3786 756.568 51.3682 756.568 Q47.8671 756.568 45.8937 758.733 Q43.9204 760.865 42.9337 765.767 L42.1698 769.682 Q40.7375 776.875 37.682 780.09 Q34.6264 783.304 29.1837 783.304 Q22.8817 783.304 19.2532 778.88 Q15.6248 774.424 15.6248 766.626 Q15.6248 763.284 16.2295 759.815 Q16.8343 756.345 18.0438 752.717 Z" fill="#000000" fill-rule="nonzero" fill-opacity="1" /><path clip-path="url(#clip200)" d="M16.4842 739.826 L16.4842 709.78 L21.895 709.78 L21.895 733.397 L35.9632 733.397 L35.9632 710.767 L41.3741 710.767 L41.3741 733.397 L58.5933 733.397 L58.5933 709.207 L64.0042 709.207 L64.0042 739.826 L16.4842 739.826 Z" fill="#000000" fill-rule="nonzero" fill-opacity="1" /><path clip-path="url(#clip200)" d="M877.514 12.096 L889.707 12.096 L905.141 53.2532 L920.656 12.096 L932.849 12.096 L932.849 72.576 L924.869 72.576 L924.869 19.4686 L909.273 60.9499 L901.05 60.9499 L885.454 19.4686 L885.454 72.576 L877.514 72.576 L877.514 12.096 Z" fill="#000000" fill-rule="nonzero" fill-opacity="1" /><path clip-path="url(#clip200)" d="M987.577 48.0275 L987.577 51.6733 L953.307 51.6733 Q953.793 59.3701 957.925 63.421 Q962.097 67.4314 969.51 67.4314 Q973.804 67.4314 977.814 66.3781 Q981.865 65.3249 985.835 63.2184 L985.835 70.267 Q981.825 71.9684 977.612 72.8596 Q973.399 73.7508 969.065 73.7508 Q958.208 73.7508 951.848 67.4314 Q945.529 61.1119 945.529 50.3365 Q945.529 39.1965 951.524 32.6746 Q957.56 26.1121 967.768 26.1121 Q976.923 26.1121 982.23 32.0264 Q987.577 37.9003 987.577 48.0275 M980.123 45.84 Q980.042 39.7232 976.68 36.0774 Q973.358 32.4315 967.849 32.4315 Q961.611 32.4315 957.844 35.9558 Q954.117 39.4801 953.55 45.8805 L980.123 45.84 Z" fill="#000000" fill-rule="nonzero" fill-opacity="1" /><path clip-path="url(#clip200)" d="M1020.43 49.7694 Q1011.4 49.7694 1007.91 51.8354 Q1004.43 53.9013 1004.43 58.8839 Q1004.43 62.8538 1007.02 65.2034 Q1009.65 67.5124 1014.15 67.5124 Q1020.35 67.5124 1024.08 63.1374 Q1027.84 58.7219 1027.84 51.4303 L1027.84 49.7694 L1020.43 49.7694 M1035.3 46.6907 L1035.3 72.576 L1027.84 72.576 L1027.84 65.6895 Q1025.29 69.8214 1021.48 71.8063 Q1017.68 73.7508 1012.17 73.7508 Q1005.2 73.7508 1001.07 69.8619 Q996.975 65.9325 996.975 59.3701 Q996.975 51.7138 1002.08 47.825 Q1007.22 43.9361 1017.39 43.9361 L1027.84 43.9361 L1027.84 43.2069 Q1027.84 38.0623 1024.44 35.2672 Q1021.08 32.4315 1014.96 32.4315 Q1011.07 32.4315 1007.39 33.3632 Q1003.7 34.295 1000.3 36.1584 L1000.3 29.2718 Q1004.39 27.692 1008.24 26.9223 Q1012.09 26.1121 1015.73 26.1121 Q1025.57 26.1121 1030.44 31.2163 Q1035.3 36.3204 1035.3 46.6907 Z" fill="#000000" fill-rule="nonzero" fill-opacity="1" /><path clip-path="url(#clip200)" d="M1088.36 45.1919 L1088.36 72.576 L1080.91 72.576 L1080.91 45.4349 Q1080.91 38.994 1078.4 35.7938 Q1075.89 32.5936 1070.86 32.5936 Q1064.83 32.5936 1061.34 36.4419 Q1057.86 40.2903 1057.86 46.9338 L1057.86 72.576 L1050.37 72.576 L1050.37 27.2059 L1057.86 27.2059 L1057.86 34.2544 Q1060.53 30.163 1064.14 28.1376 Q1067.79 26.1121 1072.52 26.1121 Q1080.34 26.1121 1084.35 30.9732 Q1088.36 35.7938 1088.36 45.1919 Z" fill="#000000" fill-rule="nonzero" fill-opacity="1" /><path clip-path="url(#clip200)" d="M1166.18 14.0809 L1166.18 22.0612 Q1161.52 19.8332 1157.39 18.7395 Q1153.26 17.6457 1149.41 17.6457 Q1142.73 17.6457 1139.08 20.2383 Q1135.48 22.8309 1135.48 27.611 Q1135.48 31.6214 1137.87 33.6873 Q1140.3 35.7128 1147.02 36.9686 L1151.96 37.9813 Q1161.12 39.7232 1165.45 44.1387 Q1169.83 48.5136 1169.83 55.8863 Q1169.83 64.6767 1163.91 69.2137 Q1158.04 73.7508 1146.66 73.7508 Q1142.36 73.7508 1137.5 72.7785 Q1132.68 71.8063 1127.5 69.9024 L1127.5 61.4765 Q1132.48 64.2716 1137.26 65.6895 Q1142.04 67.1073 1146.66 67.1073 Q1153.66 67.1073 1157.47 64.3527 Q1161.28 61.598 1161.28 56.4939 Q1161.28 52.0379 1158.53 49.5264 Q1155.81 47.0148 1149.57 45.759 L1144.59 44.7868 Q1135.44 42.9639 1131.34 39.075 Q1127.25 35.1862 1127.25 28.2591 Q1127.25 20.2383 1132.88 15.6203 Q1138.55 11.0023 1148.48 11.0023 Q1152.73 11.0023 1157.15 11.7719 Q1161.56 12.5416 1166.18 14.0809 Z" fill="#000000" fill-rule="nonzero" fill-opacity="1" /><path clip-path="url(#clip200)" d="M1186.72 49.9314 Q1186.72 58.1548 1190.08 62.8538 Q1193.48 67.5124 1199.4 67.5124 Q1205.31 67.5124 1208.72 62.8538 Q1212.12 58.1548 1212.12 49.9314 Q1212.12 41.7081 1208.72 37.0496 Q1205.31 32.3505 1199.4 32.3505 Q1193.48 32.3505 1190.08 37.0496 Q1186.72 41.7081 1186.72 49.9314 M1212.12 65.7705 Q1209.77 69.8214 1206.16 71.8063 Q1202.6 73.7508 1197.58 73.7508 Q1189.35 73.7508 1184.17 67.1883 Q1179.02 60.6258 1179.02 49.9314 Q1179.02 39.2371 1184.17 32.6746 Q1189.35 26.1121 1197.58 26.1121 Q1202.6 26.1121 1206.16 28.0971 Q1209.77 30.0415 1212.12 34.0924 L1212.12 27.2059 L1219.57 27.2059 L1219.57 89.8329 L1212.12 89.8329 L1212.12 65.7705 Z" fill="#000000" fill-rule="nonzero" fill-opacity="1" /><path clip-path="url(#clip200)" d="M1234.16 54.671 L1234.16 27.2059 L1241.61 27.2059 L1241.61 54.3874 Q1241.61 60.8284 1244.12 64.0691 Q1246.63 67.2693 1251.66 67.2693 Q1257.69 67.2693 1261.18 63.421 Q1264.7 59.5726 1264.7 52.9291 L1264.7 27.2059 L1272.15 27.2059 L1272.15 72.576 L1264.7 72.576 L1264.7 65.6084 Q1261.99 69.7404 1258.38 71.7658 Q1254.82 73.7508 1250.08 73.7508 Q1242.26 73.7508 1238.21 68.8897 Q1234.16 64.0286 1234.16 54.671 M1252.91 26.1121 L1252.91 26.1121 Z" fill="#000000" fill-rule="nonzero" fill-opacity="1" /><path clip-path="url(#clip200)" d="M1308.13 49.7694 Q1299.09 49.7694 1295.61 51.8354 Q1292.12 53.9013 1292.12 58.8839 Q1292.12 62.8538 1294.72 65.2034 Q1297.35 67.5124 1301.85 67.5124 Q1308.04 67.5124 1311.77 63.1374 Q1315.54 58.7219 1315.54 51.4303 L1315.54 49.7694 L1308.13 49.7694 M1322.99 46.6907 L1322.99 72.576 L1315.54 72.576 L1315.54 65.6895 Q1312.99 69.8214 1309.18 71.8063 Q1305.37 73.7508 1299.86 73.7508 Q1292.89 73.7508 1288.76 69.8619 Q1284.67 65.9325 1284.67 59.3701 Q1284.67 51.7138 1289.77 47.825 Q1294.92 43.9361 1305.09 43.9361 L1315.54 43.9361 L1315.54 43.2069 Q1315.54 38.0623 1312.14 35.2672 Q1308.77 32.4315 1302.66 32.4315 Q1298.77 32.4315 1295.08 33.3632 Q1291.39 34.295 1287.99 36.1584 L1287.99 29.2718 Q1292.08 27.692 1295.93 26.9223 Q1299.78 26.1121 1303.43 26.1121 Q1313.27 26.1121 1318.13 31.2163 Q1322.99 36.3204 1322.99 46.6907 Z" fill="#000000" fill-rule="nonzero" fill-opacity="1" /><path clip-path="url(#clip200)" d="M1364.64 34.1734 Q1363.38 33.4443 1361.88 33.1202 Q1360.42 32.7556 1358.64 32.7556 Q1352.32 32.7556 1348.92 36.8875 Q1345.56 40.9789 1345.56 48.6757 L1345.56 72.576 L1338.06 72.576 L1338.06 27.2059 L1345.56 27.2059 L1345.56 34.2544 Q1347.91 30.1225 1351.67 28.1376 Q1355.44 26.1121 1360.83 26.1121 Q1361.6 26.1121 1362.53 26.2337 Q1363.46 26.3147 1364.59 26.5172 L1364.64 34.1734 Z" fill="#000000" fill-rule="nonzero" fill-opacity="1" /><path clip-path="url(#clip200)" d="M1409.44 48.0275 L1409.44 51.6733 L1375.17 51.6733 Q1375.65 59.3701 1379.79 63.421 Q1383.96 67.4314 1391.37 67.4314 Q1395.67 67.4314 1399.68 66.3781 Q1403.73 65.3249 1407.7 63.2184 L1407.7 70.267 Q1403.69 71.9684 1399.47 72.8596 Q1395.26 73.7508 1390.93 73.7508 Q1380.07 73.7508 1373.71 67.4314 Q1367.39 61.1119 1367.39 50.3365 Q1367.39 39.1965 1373.39 32.6746 Q1379.42 26.1121 1389.63 26.1121 Q1398.78 26.1121 1404.09 32.0264 Q1409.44 37.9003 1409.44 48.0275 M1401.98 45.84 Q1401.9 39.7232 1398.54 36.0774 Q1395.22 32.4315 1389.71 32.4315 Q1383.47 32.4315 1379.7 35.9558 Q1375.98 39.4801 1375.41 45.8805 L1401.98 45.84 Z" fill="#000000" fill-rule="nonzero" fill-opacity="1" /><path clip-path="url(#clip200)" d="M1451.53 34.0924 L1451.53 9.54393 L1458.98 9.54393 L1458.98 72.576 L1451.53 72.576 L1451.53 65.7705 Q1449.18 69.8214 1445.57 71.8063 Q1442.01 73.7508 1436.98 73.7508 Q1428.76 73.7508 1423.58 67.1883 Q1418.43 60.6258 1418.43 49.9314 Q1418.43 39.2371 1423.58 32.6746 Q1428.76 26.1121 1436.98 26.1121 Q1442.01 26.1121 1445.57 28.0971 Q1449.18 30.0415 1451.53 34.0924 M1426.13 49.9314 Q1426.13 58.1548 1429.49 62.8538 Q1432.89 67.5124 1438.81 67.5124 Q1444.72 67.5124 1448.12 62.8538 Q1451.53 58.1548 1451.53 49.9314 Q1451.53 41.7081 1448.12 37.0496 Q1444.72 32.3505 1438.81 32.3505 Q1432.89 32.3505 1429.49 37.0496 Q1426.13 41.7081 1426.13 49.9314 Z" fill="#000000" fill-rule="nonzero" fill-opacity="1" /><path clip-path="url(#clip200)" d="M1501.03 12.096 L1539.27 12.096 L1539.27 18.9825 L1509.21 18.9825 L1509.21 36.8875 L1538.01 36.8875 L1538.01 43.7741 L1509.21 43.7741 L1509.21 65.6895 L1540 65.6895 L1540 72.576 L1501.03 72.576 L1501.03 12.096 Z" fill="#000000" fill-rule="nonzero" fill-opacity="1" /><path clip-path="url(#clip200)" d="M1579.41 34.1734 Q1578.16 33.4443 1576.66 33.1202 Q1575.2 32.7556 1573.42 32.7556 Q1567.1 32.7556 1563.7 36.8875 Q1560.33 40.9789 1560.33 48.6757 L1560.33 72.576 L1552.84 72.576 L1552.84 27.2059 L1560.33 27.2059 L1560.33 34.2544 Q1562.68 30.1225 1566.45 28.1376 Q1570.22 26.1121 1575.61 26.1121 Q1576.38 26.1121 1577.31 26.2337 Q1578.24 26.3147 1579.37 26.5172 L1579.41 34.1734 Z" fill="#000000" fill-rule="nonzero" fill-opacity="1" /><path clip-path="url(#clip200)" d="M1612.06 34.1734 Q1610.81 33.4443 1609.31 33.1202 Q1607.85 32.7556 1606.07 32.7556 Q1599.75 32.7556 1596.35 36.8875 Q1592.98 40.9789 1592.98 48.6757 L1592.98 72.576 L1585.49 72.576 L1585.49 27.2059 L1592.98 27.2059 L1592.98 34.2544 Q1595.33 30.1225 1599.1 28.1376 Q1602.87 26.1121 1608.26 26.1121 Q1609.03 26.1121 1609.96 26.2337 Q1610.89 26.3147 1612.02 26.5172 L1612.06 34.1734 Z" fill="#000000" fill-rule="nonzero" fill-opacity="1" /><path clip-path="url(#clip200)" d="M1635.64 32.4315 Q1629.65 32.4315 1626.16 37.1306 Q1622.68 41.7891 1622.68 49.9314 Q1622.68 58.0738 1626.12 62.7728 Q1629.6 67.4314 1635.64 67.4314 Q1641.6 67.4314 1645.08 62.7323 Q1648.56 58.0333 1648.56 49.9314 Q1648.56 41.8701 1645.08 37.1711 Q1641.6 32.4315 1635.64 32.4315 M1635.64 26.1121 Q1645.36 26.1121 1650.91 32.4315 Q1656.46 38.7509 1656.46 49.9314 Q1656.46 61.0714 1650.91 67.4314 Q1645.36 73.7508 1635.64 73.7508 Q1625.88 73.7508 1620.33 67.4314 Q1614.82 61.0714 1614.82 49.9314 Q1614.82 38.7509 1620.33 32.4315 Q1625.88 26.1121 1635.64 26.1121 Z" fill="#000000" fill-rule="nonzero" fill-opacity="1" /><path clip-path="url(#clip200)" d="M1695.11 34.1734 Q1693.85 33.4443 1692.35 33.1202 Q1690.9 32.7556 1689.11 32.7556 Q1682.79 32.7556 1679.39 36.8875 Q1676.03 40.9789 1676.03 48.6757 L1676.03 72.576 L1668.53 72.576 L1668.53 27.2059 L1676.03 27.2059 L1676.03 34.2544 Q1678.38 30.1225 1682.15 28.1376 Q1685.91 26.1121 1691.3 26.1121 Q1692.07 26.1121 1693 26.2337 Q1693.93 26.3147 1695.07 26.5172 L1695.11 34.1734 Z" fill="#000000" fill-rule="nonzero" fill-opacity="1" /><polyline clip-path="url(#clip202)" style="stroke:#009af9; stroke-linecap:round; stroke-linejoin:round; stroke-width:4; stroke-opacity:1; fill:none" points="280.231,160.256 950.951,571.446 1621.67,369.777 2292.39,619.293 "/>
<polyline clip-path="url(#clip202)" style="stroke:#e26f46; stroke-linecap:round; stroke-linejoin:round; stroke-width:4; stroke-opacity:1; fill:none" points="280.231,1149.98 950.951,1386.4 1621.67,1163.25 2292.39,1354.2 "/>
<polyline clip-path="url(#clip202)" style="stroke:#3da44d; stroke-linecap:round; stroke-linejoin:round; stroke-width:4; stroke-opacity:1; fill:none" points="280.231,1255.26 950.951,1367.3 1621.67,1171.21 2292.39,1333.59 "/>
<path clip-path="url(#clip200)" d="M1954.16 374.156 L2281.66 374.156 L2281.66 166.796 L1954.16 166.796  Z" fill="#ffffff" fill-rule="evenodd" fill-opacity="1"/>
<polyline clip-path="url(#clip200)" style="stroke:#000000; stroke-linecap:round; stroke-linejoin:round; stroke-width:4; stroke-opacity:1; fill:none" points="1954.16,374.156 2281.66,374.156 2281.66,166.796 1954.16,166.796 1954.16,374.156 "/>
<polyline clip-path="url(#clip200)" style="stroke:#009af9; stroke-linecap:round; stroke-linejoin:round; stroke-width:4; stroke-opacity:1; fill:none" points="1977.86,218.636 2120.05,218.636 "/>
<path clip-path="url(#clip200)" d="M2151.16 202.629 L2151.16 209.99 L2159.93 209.99 L2159.93 213.3 L2151.16 213.3 L2151.16 227.374 Q2151.16 230.545 2152.01 231.448 Q2152.89 232.351 2155.55 232.351 L2159.93 232.351 L2159.93 235.916 L2155.55 235.916 Q2150.62 235.916 2148.75 234.087 Q2146.87 232.235 2146.87 227.374 L2146.87 213.3 L2143.75 213.3 L2143.75 209.99 L2146.87 209.99 L2146.87 202.629 L2151.16 202.629 Z" fill="#000000" fill-rule="nonzero" fill-opacity="1" /><path clip-path="url(#clip200)" d="M2166.09 214.388 L2195.76 214.388 L2195.76 218.277 L2166.09 218.277 L2166.09 214.388 M2166.09 223.832 L2195.76 223.832 L2195.76 227.768 L2166.09 227.768 L2166.09 223.832 Z" fill="#000000" fill-rule="nonzero" fill-opacity="1" /><path clip-path="url(#clip200)" d="M2206.66 231.981 L2214.3 231.981 L2214.3 205.615 L2205.99 207.282 L2205.99 203.022 L2214.26 201.356 L2218.93 201.356 L2218.93 231.981 L2226.57 231.981 L2226.57 235.916 L2206.66 235.916 L2206.66 231.981 Z" fill="#000000" fill-rule="nonzero" fill-opacity="1" /><polyline clip-path="url(#clip200)" style="stroke:#e26f46; stroke-linecap:round; stroke-linejoin:round; stroke-width:4; stroke-opacity:1; fill:none" points="1977.86,270.476 2120.05,270.476 "/>
<path clip-path="url(#clip200)" d="M2151.16 254.469 L2151.16 261.83 L2159.93 261.83 L2159.93 265.14 L2151.16 265.14 L2151.16 279.214 Q2151.16 282.385 2152.01 283.288 Q2152.89 284.191 2155.55 284.191 L2159.93 284.191 L2159.93 287.756 L2155.55 287.756 Q2150.62 287.756 2148.75 285.927 Q2146.87 284.075 2146.87 279.214 L2146.87 265.14 L2143.75 265.14 L2143.75 261.83 L2146.87 261.83 L2146.87 254.469 L2151.16 254.469 Z" fill="#000000" fill-rule="nonzero" fill-opacity="1" /><path clip-path="url(#clip200)" d="M2166.09 266.228 L2195.76 266.228 L2195.76 270.117 L2166.09 270.117 L2166.09 266.228 M2166.09 275.672 L2195.76 275.672 L2195.76 279.608 L2166.09 279.608 L2166.09 275.672 Z" fill="#000000" fill-rule="nonzero" fill-opacity="1" /><path clip-path="url(#clip200)" d="M2205.9 253.196 L2224.26 253.196 L2224.26 257.131 L2210.18 257.131 L2210.18 265.603 Q2211.2 265.256 2212.22 265.094 Q2213.24 264.909 2214.26 264.909 Q2220.04 264.909 2223.42 268.08 Q2226.8 271.251 2226.8 276.668 Q2226.8 282.246 2223.33 285.348 Q2219.86 288.427 2213.54 288.427 Q2211.36 288.427 2209.1 288.057 Q2206.85 287.686 2204.44 286.946 L2204.44 282.246 Q2206.53 283.381 2208.75 283.936 Q2210.97 284.492 2213.45 284.492 Q2217.45 284.492 2219.79 282.385 Q2222.13 280.279 2222.13 276.668 Q2222.13 273.057 2219.79 270.95 Q2217.45 268.844 2213.45 268.844 Q2211.57 268.844 2209.7 269.26 Q2207.85 269.677 2205.9 270.557 L2205.9 253.196 Z" fill="#000000" fill-rule="nonzero" fill-opacity="1" /><polyline clip-path="url(#clip200)" style="stroke:#3da44d; stroke-linecap:round; stroke-linejoin:round; stroke-width:4; stroke-opacity:1; fill:none" points="1977.86,322.316 2120.05,322.316 "/>
<path clip-path="url(#clip200)" d="M2151.16 306.309 L2151.16 313.67 L2159.93 313.67 L2159.93 316.98 L2151.16 316.98 L2151.16 331.054 Q2151.16 334.225 2152.01 335.128 Q2152.89 336.031 2155.55 336.031 L2159.93 336.031 L2159.93 339.596 L2155.55 339.596 Q2150.62 339.596 2148.75 337.767 Q2146.87 335.915 2146.87 331.054 L2146.87 316.98 L2143.75 316.98 L2143.75 313.67 L2146.87 313.67 L2146.87 306.309 L2151.16 306.309 Z" fill="#000000" fill-rule="nonzero" fill-opacity="1" /><path clip-path="url(#clip200)" d="M2166.09 318.068 L2195.76 318.068 L2195.76 321.957 L2166.09 321.957 L2166.09 318.068 M2166.09 327.512 L2195.76 327.512 L2195.76 331.448 L2166.09 331.448 L2166.09 327.512 Z" fill="#000000" fill-rule="nonzero" fill-opacity="1" /><path clip-path="url(#clip200)" d="M2206.66 335.661 L2214.3 335.661 L2214.3 309.295 L2205.99 310.962 L2205.99 306.702 L2214.26 305.036 L2218.93 305.036 L2218.93 335.661 L2226.57 335.661 L2226.57 339.596 L2206.66 339.596 L2206.66 335.661 Z" fill="#000000" fill-rule="nonzero" fill-opacity="1" /><path clip-path="url(#clip200)" d="M2246.02 308.114 Q2242.41 308.114 2240.58 311.679 Q2238.77 315.221 2238.77 322.35 Q2238.77 329.457 2240.58 333.022 Q2242.41 336.563 2246.02 336.563 Q2249.65 336.563 2251.46 333.022 Q2253.28 329.457 2253.28 322.35 Q2253.28 315.221 2251.46 311.679 Q2249.65 308.114 2246.02 308.114 M2246.02 304.411 Q2251.83 304.411 2254.88 309.017 Q2257.96 313.6 2257.96 322.35 Q2257.96 331.077 2254.88 335.684 Q2251.83 340.267 2246.02 340.267 Q2240.21 340.267 2237.13 335.684 Q2234.07 331.077 2234.07 322.35 Q2234.07 313.6 2237.13 309.017 Q2240.21 304.411 2246.02 304.411 Z" fill="#000000" fill-rule="nonzero" fill-opacity="1" /></svg>
