<?xml version="1.0" encoding="utf-8"?>
<svg xmlns="http://www.w3.org/2000/svg" xmlns:xlink="http://www.w3.org/1999/xlink" width="600" height="400" viewBox="0 0 2400 1600">
<defs>
  <clipPath id="clip840">
    <rect x="0" y="0" width="2400" height="1600"/>
  </clipPath>
</defs>
<path clip-path="url(#clip840)" d="M0 1600 L2400 1600 L2400 8.88178e-14 L0 8.88178e-14  Z" fill="#ffffff" fill-rule="evenodd" fill-opacity="1"/>
<defs>
  <clipPath id="clip841">
    <rect x="480" y="0" width="1681" height="1600"/>
  </clipPath>
</defs>
<path clip-path="url(#clip840)" d="M287.366 1423.18 L2352.76 1423.18 L2352.76 123.472 L287.366 123.472  Z" fill="#ffffff" fill-rule="evenodd" fill-opacity="1"/>
<defs>
  <clipPath id="clip842">
    <rect x="287" y="123" width="2066" height="1301"/>
  </clipPath>
</defs>
<polyline clip-path="url(#clip842)" style="stroke:#000000; stroke-linecap:round; stroke-linejoin:round; stroke-width:2; stroke-opacity:0.1; fill:none" points="343.87,1423.18 343.87,123.472 "/>
<polyline clip-path="url(#clip842)" style="stroke:#000000; stroke-linecap:round; stroke-linejoin:round; stroke-width:2; stroke-opacity:0.1; fill:none" points="831.478,1423.18 831.478,123.472 "/>
<polyline clip-path="url(#clip842)" style="stroke:#000000; stroke-linecap:round; stroke-linejoin:round; stroke-width:2; stroke-opacity:0.1; fill:none" points="1319.09,1423.18 1319.09,123.472 "/>
<polyline clip-path="url(#clip842)" style="stroke:#000000; stroke-linecap:round; stroke-linejoin:round; stroke-width:2; stroke-opacity:0.1; fill:none" points="1806.69,1423.18 1806.69,123.472 "/>
<polyline clip-path="url(#clip842)" style="stroke:#000000; stroke-linecap:round; stroke-linejoin:round; stroke-width:2; stroke-opacity:0.1; fill:none" points="2294.3,1423.18 2294.3,123.472 "/>
<polyline clip-path="url(#clip840)" style="stroke:#000000; stroke-linecap:round; stroke-linejoin:round; stroke-width:4; stroke-opacity:1; fill:none" points="287.366,1423.18 2352.76,1423.18 "/>
<polyline clip-path="url(#clip840)" style="stroke:#000000; stroke-linecap:round; stroke-linejoin:round; stroke-width:4; stroke-opacity:1; fill:none" points="343.87,1423.18 343.87,1404.28 "/>
<polyline clip-path="url(#clip840)" style="stroke:#000000; stroke-linecap:round; stroke-linejoin:round; stroke-width:4; stroke-opacity:1; fill:none" points="831.478,1423.18 831.478,1404.28 "/>
<polyline clip-path="url(#clip840)" style="stroke:#000000; stroke-linecap:round; stroke-linejoin:round; stroke-width:4; stroke-opacity:1; fill:none" points="1319.09,1423.18 1319.09,1404.28 "/>
<polyline clip-path="url(#clip840)" style="stroke:#000000; stroke-linecap:round; stroke-linejoin:round; stroke-width:4; stroke-opacity:1; fill:none" points="1806.69,1423.18 1806.69,1404.28 "/>
<polyline clip-path="url(#clip840)" style="stroke:#000000; stroke-linecap:round; stroke-linejoin:round; stroke-width:4; stroke-opacity:1; fill:none" points="2294.3,1423.18 2294.3,1404.28 "/>
<path clip-path="url(#clip840)" d="M343.87 1454.1 Q340.259 1454.1 338.43 1457.66 Q336.625 1461.2 336.625 1468.33 Q336.625 1475.44 338.43 1479.01 Q340.259 1482.55 343.87 1482.55 Q347.504 1482.55 349.31 1479.01 Q351.138 1475.44 351.138 1468.33 Q351.138 1461.2 349.31 1457.66 Q347.504 1454.1 343.87 1454.1 M343.87 1450.39 Q349.68 1450.39 352.736 1455 Q355.814 1459.58 355.814 1468.33 Q355.814 1477.06 352.736 1481.67 Q349.68 1486.25 343.87 1486.25 Q338.06 1486.25 334.981 1481.67 Q331.926 1477.06 331.926 1468.33 Q331.926 1459.58 334.981 1455 Q338.06 1450.39 343.87 1450.39 Z" fill="#000000" fill-rule="nonzero" fill-opacity="1" /><path clip-path="url(#clip840)" d="M795.17 1481.64 L811.489 1481.64 L811.489 1485.58 L789.545 1485.58 L789.545 1481.64 Q792.207 1478.89 796.79 1474.26 Q801.397 1469.61 802.577 1468.27 Q804.823 1465.74 805.702 1464.01 Q806.605 1462.25 806.605 1460.56 Q806.605 1457.8 804.661 1456.07 Q802.74 1454.33 799.638 1454.33 Q797.439 1454.33 794.985 1455.09 Q792.554 1455.86 789.777 1457.41 L789.777 1452.69 Q792.601 1451.55 795.054 1450.97 Q797.508 1450.39 799.545 1450.39 Q804.915 1450.39 808.11 1453.08 Q811.304 1455.77 811.304 1460.26 Q811.304 1462.39 810.494 1464.31 Q809.707 1466.2 807.601 1468.8 Q807.022 1469.47 803.92 1472.69 Q800.818 1475.88 795.17 1481.64 Z" fill="#000000" fill-rule="nonzero" fill-opacity="1" /><path clip-path="url(#clip840)" d="M821.351 1451.02 L839.707 1451.02 L839.707 1454.96 L825.633 1454.96 L825.633 1463.43 Q826.651 1463.08 827.67 1462.92 Q828.688 1462.73 829.707 1462.73 Q835.494 1462.73 838.874 1465.9 Q842.253 1469.08 842.253 1474.49 Q842.253 1480.07 838.781 1483.17 Q835.309 1486.25 828.989 1486.25 Q826.813 1486.25 824.545 1485.88 Q822.3 1485.51 819.892 1484.77 L819.892 1480.07 Q821.976 1481.2 824.198 1481.76 Q826.42 1482.32 828.897 1482.32 Q832.901 1482.32 835.239 1480.21 Q837.577 1478.1 837.577 1474.49 Q837.577 1470.88 835.239 1468.77 Q832.901 1466.67 828.897 1466.67 Q827.022 1466.67 825.147 1467.08 Q823.295 1467.5 821.351 1468.38 L821.351 1451.02 Z" fill="#000000" fill-rule="nonzero" fill-opacity="1" /><path clip-path="url(#clip840)" d="M861.466 1454.1 Q857.855 1454.1 856.026 1457.66 Q854.221 1461.2 854.221 1468.33 Q854.221 1475.44 856.026 1479.01 Q857.855 1482.55 861.466 1482.55 Q865.1 1482.55 866.906 1479.01 Q868.735 1475.44 868.735 1468.33 Q868.735 1461.2 866.906 1457.66 Q865.1 1454.1 861.466 1454.1 M861.466 1450.39 Q867.276 1450.39 870.332 1455 Q873.41 1459.58 873.41 1468.33 Q873.41 1477.06 870.332 1481.67 Q867.276 1486.25 861.466 1486.25 Q855.656 1486.25 852.577 1481.67 Q849.522 1477.06 849.522 1468.33 Q849.522 1459.58 852.577 1455 Q855.656 1450.39 861.466 1450.39 Z" fill="#000000" fill-rule="nonzero" fill-opacity="1" /><path clip-path="url(#clip840)" d="M1278.7 1451.02 L1297.06 1451.02 L1297.06 1454.96 L1282.99 1454.96 L1282.99 1463.43 Q1284 1463.08 1285.02 1462.92 Q1286.04 1462.73 1287.06 1462.73 Q1292.85 1462.73 1296.23 1465.9 Q1299.61 1469.08 1299.61 1474.49 Q1299.61 1480.07 1296.13 1483.17 Q1292.66 1486.25 1286.34 1486.25 Q1284.17 1486.25 1281.9 1485.88 Q1279.65 1485.51 1277.25 1484.77 L1277.25 1480.07 Q1279.33 1481.2 1281.55 1481.76 Q1283.77 1482.32 1286.25 1482.32 Q1290.25 1482.32 1292.59 1480.21 Q1294.93 1478.1 1294.93 1474.49 Q1294.93 1470.88 1292.59 1468.77 Q1290.25 1466.67 1286.25 1466.67 Q1284.38 1466.67 1282.5 1467.08 Q1280.65 1467.5 1278.7 1468.38 L1278.7 1451.02 Z" fill="#000000" fill-rule="nonzero" fill-opacity="1" /><path clip-path="url(#clip840)" d="M1318.82 1454.1 Q1315.21 1454.1 1313.38 1457.66 Q1311.57 1461.2 1311.57 1468.33 Q1311.57 1475.44 1313.38 1479.01 Q1315.21 1482.55 1318.82 1482.55 Q1322.45 1482.55 1324.26 1479.01 Q1326.09 1475.44 1326.09 1468.33 Q1326.09 1461.2 1324.26 1457.66 Q1322.45 1454.1 1318.82 1454.1 M1318.82 1450.39 Q1324.63 1450.39 1327.69 1455 Q1330.76 1459.58 1330.76 1468.33 Q1330.76 1477.06 1327.69 1481.67 Q1324.63 1486.25 1318.82 1486.25 Q1313.01 1486.25 1309.93 1481.67 Q1306.88 1477.06 1306.88 1468.33 Q1306.88 1459.58 1309.93 1455 Q1313.01 1450.39 1318.82 1450.39 Z" fill="#000000" fill-rule="nonzero" fill-opacity="1" /><path clip-path="url(#clip840)" d="M1348.98 1454.1 Q1345.37 1454.1 1343.54 1457.66 Q1341.74 1461.2 1341.74 1468.33 Q1341.74 1475.44 1343.54 1479.01 Q1345.37 1482.55 1348.98 1482.55 Q1352.62 1482.55 1354.42 1479.01 Q1356.25 1475.44 1356.25 1468.33 Q1356.25 1461.2 1354.42 1457.66 Q1352.62 1454.1 1348.98 1454.1 M1348.98 1450.39 Q1354.79 1450.39 1357.85 1455 Q1360.93 1459.58 1360.93 1468.33 Q1360.93 1477.06 1357.85 1481.67 Q1354.79 1486.25 1348.98 1486.25 Q1343.17 1486.25 1340.09 1481.67 Q1337.04 1477.06 1337.04 1468.33 Q1337.04 1459.58 1340.09 1455 Q1343.17 1450.39 1348.98 1450.39 Z" fill="#000000" fill-rule="nonzero" fill-opacity="1" /><path clip-path="url(#clip840)" d="M1764.97 1451.02 L1787.19 1451.02 L1787.19 1453.01 L1774.65 1485.58 L1769.76 1485.58 L1781.57 1454.96 L1764.97 1454.96 L1764.97 1451.02 Z" fill="#000000" fill-rule="nonzero" fill-opacity="1" /><path clip-path="url(#clip840)" d="M1796.36 1451.02 L1814.71 1451.02 L1814.71 1454.96 L1800.64 1454.96 L1800.64 1463.43 Q1801.66 1463.08 1802.68 1462.92 Q1803.7 1462.73 1804.71 1462.73 Q1810.5 1462.73 1813.88 1465.9 Q1817.26 1469.08 1817.26 1474.49 Q1817.26 1480.07 1813.79 1483.17 Q1810.32 1486.25 1804 1486.25 Q1801.82 1486.25 1799.55 1485.88 Q1797.31 1485.51 1794.9 1484.77 L1794.9 1480.07 Q1796.98 1481.2 1799.21 1481.76 Q1801.43 1482.32 1803.9 1482.32 Q1807.91 1482.32 1810.25 1480.21 Q1812.58 1478.1 1812.58 1474.49 Q1812.58 1470.88 1810.25 1468.77 Q1807.91 1466.67 1803.9 1466.67 Q1802.03 1466.67 1800.15 1467.08 Q1798.3 1467.5 1796.36 1468.38 L1796.36 1451.02 Z" fill="#000000" fill-rule="nonzero" fill-opacity="1" /><path clip-path="url(#clip840)" d="M1836.47 1454.1 Q1832.86 1454.1 1831.03 1457.66 Q1829.23 1461.2 1829.23 1468.33 Q1829.23 1475.44 1831.03 1479.01 Q1832.86 1482.55 1836.47 1482.55 Q1840.11 1482.55 1841.91 1479.01 Q1843.74 1475.44 1843.74 1468.33 Q1843.74 1461.2 1841.91 1457.66 Q1840.11 1454.1 1836.47 1454.1 M1836.47 1450.39 Q1842.28 1450.39 1845.34 1455 Q1848.42 1459.58 1848.42 1468.33 Q1848.42 1477.06 1845.34 1481.67 Q1842.28 1486.25 1836.47 1486.25 Q1830.66 1486.25 1827.58 1481.67 Q1824.53 1477.06 1824.53 1468.33 Q1824.53 1459.58 1827.58 1455 Q1830.66 1450.39 1836.47 1450.39 Z" fill="#000000" fill-rule="nonzero" fill-opacity="1" /><path clip-path="url(#clip840)" d="M2238.83 1481.64 L2246.47 1481.64 L2246.47 1455.28 L2238.16 1456.95 L2238.16 1452.69 L2246.42 1451.02 L2251.1 1451.02 L2251.1 1481.64 L2258.73 1481.64 L2258.73 1485.58 L2238.83 1485.58 L2238.83 1481.64 Z" fill="#000000" fill-rule="nonzero" fill-opacity="1" /><path clip-path="url(#clip840)" d="M2278.18 1454.1 Q2274.57 1454.1 2272.74 1457.66 Q2270.93 1461.2 2270.93 1468.33 Q2270.93 1475.44 2272.74 1479.01 Q2274.57 1482.55 2278.18 1482.55 Q2281.81 1482.55 2283.62 1479.01 Q2285.45 1475.44 2285.45 1468.33 Q2285.45 1461.2 2283.62 1457.66 Q2281.81 1454.1 2278.18 1454.1 M2278.18 1450.39 Q2283.99 1450.39 2287.04 1455 Q2290.12 1459.58 2290.12 1468.33 Q2290.12 1477.06 2287.04 1481.67 Q2283.99 1486.25 2278.18 1486.25 Q2272.37 1486.25 2269.29 1481.67 Q2266.23 1477.06 2266.23 1468.33 Q2266.23 1459.58 2269.29 1455 Q2272.37 1450.39 2278.18 1450.39 Z" fill="#000000" fill-rule="nonzero" fill-opacity="1" /><path clip-path="url(#clip840)" d="M2308.34 1454.1 Q2304.73 1454.1 2302.9 1457.66 Q2301.1 1461.2 2301.1 1468.33 Q2301.1 1475.44 2302.9 1479.01 Q2304.73 1482.55 2308.34 1482.55 Q2311.97 1482.55 2313.78 1479.01 Q2315.61 1475.44 2315.61 1468.33 Q2315.61 1461.2 2313.78 1457.66 Q2311.97 1454.1 2308.34 1454.1 M2308.34 1450.39 Q2314.15 1450.39 2317.21 1455 Q2320.29 1459.58 2320.29 1468.33 Q2320.29 1477.06 2317.21 1481.67 Q2314.15 1486.25 2308.34 1486.25 Q2302.53 1486.25 2299.45 1481.67 Q2296.4 1477.06 2296.4 1468.33 Q2296.4 1459.58 2299.45 1455 Q2302.53 1450.39 2308.34 1450.39 Z" fill="#000000" fill-rule="nonzero" fill-opacity="1" /><path clip-path="url(#clip840)" d="M2338.5 1454.1 Q2334.89 1454.1 2333.06 1457.66 Q2331.26 1461.2 2331.26 1468.33 Q2331.26 1475.44 2333.06 1479.01 Q2334.89 1482.55 2338.5 1482.55 Q2342.14 1482.55 2343.94 1479.01 Q2345.77 1475.44 2345.77 1468.33 Q2345.77 1461.2 2343.94 1457.66 Q2342.14 1454.1 2338.5 1454.1 M2338.5 1450.39 Q2344.31 1450.39 2347.37 1455 Q2350.45 1459.58 2350.45 1468.33 Q2350.45 1477.06 2347.37 1481.67 Q2344.31 1486.25 2338.5 1486.25 Q2332.69 1486.25 2329.61 1481.67 Q2326.56 1477.06 2326.56 1468.33 Q2326.56 1459.58 2329.61 1455 Q2332.69 1450.39 2338.5 1450.39 Z" fill="#000000" fill-rule="nonzero" fill-opacity="1" /><path clip-path="url(#clip840)" d="M1283.9 1524.18 L1283.9 1530.96 Q1280.66 1527.94 1276.97 1526.44 Q1273.3 1524.95 1269.17 1524.95 Q1261.02 1524.95 1256.69 1529.95 Q1252.36 1534.91 1252.36 1544.33 Q1252.36 1553.72 1256.69 1558.72 Q1261.02 1563.68 1269.17 1563.68 Q1273.3 1563.68 1276.97 1562.19 Q1280.66 1560.69 1283.9 1557.67 L1283.9 1564.38 Q1280.53 1566.68 1276.74 1567.82 Q1272.99 1568.97 1268.79 1568.97 Q1258 1568.97 1251.79 1562.38 Q1245.58 1555.76 1245.58 1544.33 Q1245.58 1532.87 1251.79 1526.28 Q1258 1519.66 1268.79 1519.66 Q1273.05 1519.66 1276.81 1520.81 Q1280.59 1521.92 1283.9 1524.18 Z" fill="#000000" fill-rule="nonzero" fill-opacity="1" /><path clip-path="url(#clip840)" d="M1324.07 1548.76 L1324.07 1551.62 L1297.14 1551.62 Q1297.53 1557.67 1300.77 1560.85 Q1304.05 1564 1309.88 1564 Q1313.25 1564 1316.4 1563.17 Q1319.58 1562.35 1322.7 1560.69 L1322.7 1566.23 Q1319.55 1567.57 1316.24 1568.27 Q1312.93 1568.97 1309.53 1568.97 Q1301 1568.97 1296 1564 Q1291.03 1559.04 1291.03 1550.57 Q1291.03 1541.82 1295.74 1536.69 Q1300.49 1531.54 1308.51 1531.54 Q1315.7 1531.54 1319.87 1536.18 Q1324.07 1540.8 1324.07 1548.76 M1318.21 1547.04 Q1318.15 1542.23 1315.51 1539.37 Q1312.9 1536.5 1308.57 1536.5 Q1303.67 1536.5 1300.71 1539.27 Q1297.78 1542.04 1297.34 1547.07 L1318.21 1547.04 Z" fill="#000000" fill-rule="nonzero" fill-opacity="1" /><path clip-path="url(#clip840)" d="M1333.68 1518.52 L1339.54 1518.52 L1339.54 1568.04 L1333.68 1568.04 L1333.68 1518.52 Z" fill="#000000" fill-rule="nonzero" fill-opacity="1" /><path clip-path="url(#clip840)" d="M1351.79 1518.52 L1357.65 1518.52 L1357.65 1568.04 L1351.79 1568.04 L1351.79 1518.52 Z" fill="#000000" fill-rule="nonzero" fill-opacity="1" /><path clip-path="url(#clip840)" d="M1392.63 1533.45 L1392.63 1538.98 Q1390.15 1537.71 1387.47 1537.07 Q1384.8 1536.44 1381.94 1536.44 Q1377.58 1536.44 1375.38 1537.77 Q1373.21 1539.11 1373.21 1541.79 Q1373.21 1543.82 1374.77 1545 Q1376.33 1546.15 1381.04 1547.2 L1383.05 1547.64 Q1389.29 1548.98 1391.9 1551.43 Q1394.54 1553.85 1394.54 1558.21 Q1394.54 1563.17 1390.59 1566.07 Q1386.68 1568.97 1379.8 1568.97 Q1376.94 1568.97 1373.82 1568.39 Q1370.73 1567.85 1367.29 1566.74 L1367.29 1560.69 Q1370.54 1562.38 1373.69 1563.24 Q1376.84 1564.07 1379.93 1564.07 Q1384.07 1564.07 1386.3 1562.66 Q1388.52 1561.23 1388.52 1558.65 Q1388.52 1556.27 1386.9 1554.99 Q1385.31 1553.72 1379.87 1552.54 L1377.83 1552.07 Q1372.39 1550.92 1369.97 1548.56 Q1367.55 1546.18 1367.55 1542.04 Q1367.55 1537.01 1371.11 1534.27 Q1374.68 1531.54 1381.24 1531.54 Q1384.48 1531.54 1387.35 1532.01 Q1390.21 1532.49 1392.63 1533.45 Z" fill="#000000" fill-rule="nonzero" fill-opacity="1" /><polyline clip-path="url(#clip842)" style="stroke:#000000; stroke-linecap:round; stroke-linejoin:round; stroke-width:2; stroke-opacity:0.1; fill:none" points="287.366,1362.79 2352.76,1362.79 "/>
<polyline clip-path="url(#clip842)" style="stroke:#000000; stroke-linecap:round; stroke-linejoin:round; stroke-width:2; stroke-opacity:0.1; fill:none" points="287.366,1182.65 2352.76,1182.65 "/>
<polyline clip-path="url(#clip842)" style="stroke:#000000; stroke-linecap:round; stroke-linejoin:round; stroke-width:2; stroke-opacity:0.1; fill:none" points="287.366,1002.51 2352.76,1002.51 "/>
<polyline clip-path="url(#clip842)" style="stroke:#000000; stroke-linecap:round; stroke-linejoin:round; stroke-width:2; stroke-opacity:0.1; fill:none" points="287.366,822.367 2352.76,822.367 "/>
<polyline clip-path="url(#clip842)" style="stroke:#000000; stroke-linecap:round; stroke-linejoin:round; stroke-width:2; stroke-opacity:0.1; fill:none" points="287.366,642.227 2352.76,642.227 "/>
<polyline clip-path="url(#clip842)" style="stroke:#000000; stroke-linecap:round; stroke-linejoin:round; stroke-width:2; stroke-opacity:0.1; fill:none" points="287.366,462.086 2352.76,462.086 "/>
<polyline clip-path="url(#clip842)" style="stroke:#000000; stroke-linecap:round; stroke-linejoin:round; stroke-width:2; stroke-opacity:0.1; fill:none" points="287.366,281.946 2352.76,281.946 "/>
<polyline clip-path="url(#clip840)" style="stroke:#000000; stroke-linecap:round; stroke-linejoin:round; stroke-width:4; stroke-opacity:1; fill:none" points="287.366,1423.18 287.366,123.472 "/>
<polyline clip-path="url(#clip840)" style="stroke:#000000; stroke-linecap:round; stroke-linejoin:round; stroke-width:4; stroke-opacity:1; fill:none" points="287.366,1362.79 306.264,1362.79 "/>
<polyline clip-path="url(#clip840)" style="stroke:#000000; stroke-linecap:round; stroke-linejoin:round; stroke-width:4; stroke-opacity:1; fill:none" points="287.366,1182.65 306.264,1182.65 "/>
<polyline clip-path="url(#clip840)" style="stroke:#000000; stroke-linecap:round; stroke-linejoin:round; stroke-width:4; stroke-opacity:1; fill:none" points="287.366,1002.51 306.264,1002.51 "/>
<polyline clip-path="url(#clip840)" style="stroke:#000000; stroke-linecap:round; stroke-linejoin:round; stroke-width:4; stroke-opacity:1; fill:none" points="287.366,822.367 306.264,822.367 "/>
<polyline clip-path="url(#clip840)" style="stroke:#000000; stroke-linecap:round; stroke-linejoin:round; stroke-width:4; stroke-opacity:1; fill:none" points="287.366,642.227 306.264,642.227 "/>
<polyline clip-path="url(#clip840)" style="stroke:#000000; stroke-linecap:round; stroke-linejoin:round; stroke-width:4; stroke-opacity:1; fill:none" points="287.366,462.086 306.264,462.086 "/>
<polyline clip-path="url(#clip840)" style="stroke:#000000; stroke-linecap:round; stroke-linejoin:round; stroke-width:4; stroke-opacity:1; fill:none" points="287.366,281.946 306.264,281.946 "/>
<path clip-path="url(#clip840)" d="M115.256 1363.24 L144.931 1363.24 L144.931 1367.17 L115.256 1367.17 L115.256 1363.24 Z" fill="#000000" fill-rule="nonzero" fill-opacity="1" /><path clip-path="url(#clip840)" d="M165.024 1348.59 Q161.413 1348.59 159.584 1352.15 Q157.778 1355.69 157.778 1362.82 Q157.778 1369.93 159.584 1373.49 Q161.413 1377.03 165.024 1377.03 Q168.658 1377.03 170.464 1373.49 Q172.292 1369.93 172.292 1362.82 Q172.292 1355.69 170.464 1352.15 Q168.658 1348.59 165.024 1348.59 M165.024 1344.88 Q170.834 1344.88 173.889 1349.49 Q176.968 1354.07 176.968 1362.82 Q176.968 1371.55 173.889 1376.16 Q170.834 1380.74 165.024 1380.74 Q159.214 1380.74 156.135 1376.16 Q153.079 1371.55 153.079 1362.82 Q153.079 1354.07 156.135 1349.49 Q159.214 1344.88 165.024 1344.88 Z" fill="#000000" fill-rule="nonzero" fill-opacity="1" /><path clip-path="url(#clip840)" d="M185.186 1374.19 L190.07 1374.19 L190.07 1380.07 L185.186 1380.07 L185.186 1374.19 Z" fill="#000000" fill-rule="nonzero" fill-opacity="1" /><path clip-path="url(#clip840)" d="M199.075 1345.51 L221.297 1345.51 L221.297 1347.5 L208.75 1380.07 L203.866 1380.07 L215.672 1349.44 L199.075 1349.44 L199.075 1345.51 Z" fill="#000000" fill-rule="nonzero" fill-opacity="1" /><path clip-path="url(#clip840)" d="M230.463 1345.51 L248.82 1345.51 L248.82 1349.44 L234.746 1349.44 L234.746 1357.91 Q235.764 1357.57 236.783 1357.41 Q237.801 1357.22 238.82 1357.22 Q244.607 1357.22 247.986 1360.39 Q251.366 1363.56 251.366 1368.98 Q251.366 1374.56 247.894 1377.66 Q244.421 1380.74 238.102 1380.74 Q235.926 1380.74 233.658 1380.37 Q231.412 1380 229.005 1379.26 L229.005 1374.56 Q231.088 1375.69 233.31 1376.25 Q235.533 1376.8 238.009 1376.8 Q242.014 1376.8 244.352 1374.7 Q246.69 1372.59 246.69 1368.98 Q246.69 1365.37 244.352 1363.26 Q242.014 1361.16 238.009 1361.16 Q236.135 1361.16 234.26 1361.57 Q232.408 1361.99 230.463 1362.87 L230.463 1345.51 Z" fill="#000000" fill-rule="nonzero" fill-opacity="1" /><path clip-path="url(#clip840)" d="M114.26 1183.1 L143.936 1183.1 L143.936 1187.03 L114.26 1187.03 L114.26 1183.1 Z" fill="#000000" fill-rule="nonzero" fill-opacity="1" /><path clip-path="url(#clip840)" d="M164.028 1168.45 Q160.417 1168.45 158.589 1172.01 Q156.783 1175.55 156.783 1182.68 Q156.783 1189.79 158.589 1193.35 Q160.417 1196.89 164.028 1196.89 Q167.663 1196.89 169.468 1193.35 Q171.297 1189.79 171.297 1182.68 Q171.297 1175.55 169.468 1172.01 Q167.663 1168.45 164.028 1168.45 M164.028 1164.74 Q169.839 1164.74 172.894 1169.35 Q175.973 1173.93 175.973 1182.68 Q175.973 1191.41 172.894 1196.02 Q169.839 1200.6 164.028 1200.6 Q158.218 1200.6 155.14 1196.02 Q152.084 1191.41 152.084 1182.68 Q152.084 1173.93 155.14 1169.35 Q158.218 1164.74 164.028 1164.74 Z" fill="#000000" fill-rule="nonzero" fill-opacity="1" /><path clip-path="url(#clip840)" d="M184.19 1194.05 L189.075 1194.05 L189.075 1199.93 L184.19 1199.93 L184.19 1194.05 Z" fill="#000000" fill-rule="nonzero" fill-opacity="1" /><path clip-path="url(#clip840)" d="M199.306 1165.37 L217.662 1165.37 L217.662 1169.3 L203.588 1169.3 L203.588 1177.77 Q204.607 1177.43 205.625 1177.27 Q206.644 1177.08 207.662 1177.08 Q213.449 1177.08 216.829 1180.25 Q220.209 1183.42 220.209 1188.84 Q220.209 1194.42 216.736 1197.52 Q213.264 1200.6 206.945 1200.6 Q204.769 1200.6 202.5 1200.23 Q200.255 1199.86 197.848 1199.12 L197.848 1194.42 Q199.931 1195.55 202.153 1196.11 Q204.375 1196.66 206.852 1196.66 Q210.857 1196.66 213.195 1194.56 Q215.533 1192.45 215.533 1188.84 Q215.533 1185.23 213.195 1183.12 Q210.857 1181.02 206.852 1181.02 Q204.977 1181.02 203.102 1181.43 Q201.25 1181.85 199.306 1182.73 L199.306 1165.37 Z" fill="#000000" fill-rule="nonzero" fill-opacity="1" /><path clip-path="url(#clip840)" d="M239.422 1168.45 Q235.81 1168.45 233.982 1172.01 Q232.176 1175.55 232.176 1182.68 Q232.176 1189.79 233.982 1193.35 Q235.81 1196.89 239.422 1196.89 Q243.056 1196.89 244.861 1193.35 Q246.69 1189.79 246.69 1182.68 Q246.69 1175.55 244.861 1172.01 Q243.056 1168.45 239.422 1168.45 M239.422 1164.74 Q245.232 1164.74 248.287 1169.35 Q251.366 1173.93 251.366 1182.68 Q251.366 1191.41 248.287 1196.02 Q245.232 1200.6 239.422 1200.6 Q233.611 1200.6 230.533 1196.02 Q227.477 1191.41 227.477 1182.68 Q227.477 1173.93 230.533 1169.35 Q233.611 1164.74 239.422 1164.74 Z" fill="#000000" fill-rule="nonzero" fill-opacity="1" /><path clip-path="url(#clip840)" d="M115.256 1002.96 L144.931 1002.96 L144.931 1006.89 L115.256 1006.89 L115.256 1002.96 Z" fill="#000000" fill-rule="nonzero" fill-opacity="1" /><path clip-path="url(#clip840)" d="M165.024 988.306 Q161.413 988.306 159.584 991.87 Q157.778 995.412 157.778 1002.54 Q157.778 1009.65 159.584 1013.21 Q161.413 1016.75 165.024 1016.75 Q168.658 1016.75 170.464 1013.21 Q172.292 1009.65 172.292 1002.54 Q172.292 995.412 170.464 991.87 Q168.658 988.306 165.024 988.306 M165.024 984.602 Q170.834 984.602 173.889 989.208 Q176.968 993.792 176.968 1002.54 Q176.968 1011.27 173.889 1015.87 Q170.834 1020.46 165.024 1020.46 Q159.214 1020.46 156.135 1015.87 Q153.079 1011.27 153.079 1002.54 Q153.079 993.792 156.135 989.208 Q159.214 984.602 165.024 984.602 Z" fill="#000000" fill-rule="nonzero" fill-opacity="1" /><path clip-path="url(#clip840)" d="M185.186 1013.91 L190.07 1013.91 L190.07 1019.79 L185.186 1019.79 L185.186 1013.91 Z" fill="#000000" fill-rule="nonzero" fill-opacity="1" /><path clip-path="url(#clip840)" d="M204.283 1015.85 L220.602 1015.85 L220.602 1019.79 L198.658 1019.79 L198.658 1015.85 Q201.32 1013.1 205.903 1008.47 Q210.51 1003.81 211.69 1002.47 Q213.936 999.949 214.815 998.213 Q215.718 996.454 215.718 994.764 Q215.718 992.009 213.774 990.273 Q211.852 988.537 208.75 988.537 Q206.551 988.537 204.098 989.301 Q201.667 990.065 198.889 991.616 L198.889 986.894 Q201.713 985.759 204.167 985.181 Q206.621 984.602 208.658 984.602 Q214.028 984.602 217.223 987.287 Q220.417 989.972 220.417 994.463 Q220.417 996.593 219.607 998.514 Q218.82 1000.41 216.713 1003 Q216.135 1003.68 213.033 1006.89 Q209.931 1010.09 204.283 1015.85 Z" fill="#000000" fill-rule="nonzero" fill-opacity="1" /><path clip-path="url(#clip840)" d="M230.463 985.227 L248.82 985.227 L248.82 989.162 L234.746 989.162 L234.746 997.634 Q235.764 997.287 236.783 997.125 Q237.801 996.94 238.82 996.94 Q244.607 996.94 247.986 1000.11 Q251.366 1003.28 251.366 1008.7 Q251.366 1014.28 247.894 1017.38 Q244.421 1020.46 238.102 1020.46 Q235.926 1020.46 233.658 1020.09 Q231.412 1019.72 229.005 1018.98 L229.005 1014.28 Q231.088 1015.41 233.31 1015.97 Q235.533 1016.52 238.009 1016.52 Q242.014 1016.52 244.352 1014.42 Q246.69 1012.31 246.69 1008.7 Q246.69 1005.09 244.352 1002.98 Q242.014 1000.88 238.009 1000.88 Q236.135 1000.88 234.26 1001.29 Q232.408 1001.71 230.463 1002.59 L230.463 985.227 Z" fill="#000000" fill-rule="nonzero" fill-opacity="1" /><path clip-path="url(#clip840)" d="M164.028 808.165 Q160.417 808.165 158.589 811.73 Q156.783 815.272 156.783 822.401 Q156.783 829.508 158.589 833.073 Q160.417 836.614 164.028 836.614 Q167.663 836.614 169.468 833.073 Q171.297 829.508 171.297 822.401 Q171.297 815.272 169.468 811.73 Q167.663 808.165 164.028 808.165 M164.028 804.462 Q169.839 804.462 172.894 809.068 Q175.973 813.652 175.973 822.401 Q175.973 831.128 172.894 835.735 Q169.839 840.318 164.028 840.318 Q158.218 840.318 155.14 835.735 Q152.084 831.128 152.084 822.401 Q152.084 813.652 155.14 809.068 Q158.218 804.462 164.028 804.462 Z" fill="#000000" fill-rule="nonzero" fill-opacity="1" /><path clip-path="url(#clip840)" d="M184.19 833.767 L189.075 833.767 L189.075 839.647 L184.19 839.647 L184.19 833.767 Z" fill="#000000" fill-rule="nonzero" fill-opacity="1" /><path clip-path="url(#clip840)" d="M209.26 808.165 Q205.649 808.165 203.82 811.73 Q202.014 815.272 202.014 822.401 Q202.014 829.508 203.82 833.073 Q205.649 836.614 209.26 836.614 Q212.894 836.614 214.699 833.073 Q216.528 829.508 216.528 822.401 Q216.528 815.272 214.699 811.73 Q212.894 808.165 209.26 808.165 M209.26 804.462 Q215.07 804.462 218.125 809.068 Q221.204 813.652 221.204 822.401 Q221.204 831.128 218.125 835.735 Q215.07 840.318 209.26 840.318 Q203.449 840.318 200.371 835.735 Q197.315 831.128 197.315 822.401 Q197.315 813.652 200.371 809.068 Q203.449 804.462 209.26 804.462 Z" fill="#000000" fill-rule="nonzero" fill-opacity="1" /><path clip-path="url(#clip840)" d="M239.422 808.165 Q235.81 808.165 233.982 811.73 Q232.176 815.272 232.176 822.401 Q232.176 829.508 233.982 833.073 Q235.81 836.614 239.422 836.614 Q243.056 836.614 244.861 833.073 Q246.69 829.508 246.69 822.401 Q246.69 815.272 244.861 811.73 Q243.056 808.165 239.422 808.165 M239.422 804.462 Q245.232 804.462 248.287 809.068 Q251.366 813.652 251.366 822.401 Q251.366 831.128 248.287 835.735 Q245.232 840.318 239.422 840.318 Q233.611 840.318 230.533 835.735 Q227.477 831.128 227.477 822.401 Q227.477 813.652 230.533 809.068 Q233.611 804.462 239.422 804.462 Z" fill="#000000" fill-rule="nonzero" fill-opacity="1" /><path clip-path="url(#clip840)" d="M165.024 628.025 Q161.413 628.025 159.584 631.59 Q157.778 635.132 157.778 642.261 Q157.778 649.368 159.584 652.932 Q161.413 656.474 165.024 656.474 Q168.658 656.474 170.464 652.932 Q172.292 649.368 172.292 642.261 Q172.292 635.132 170.464 631.59 Q168.658 628.025 165.024 628.025 M165.024 624.322 Q170.834 624.322 173.889 628.928 Q176.968 633.511 176.968 642.261 Q176.968 650.988 173.889 655.595 Q170.834 660.178 165.024 660.178 Q159.214 660.178 156.135 655.595 Q153.079 650.988 153.079 642.261 Q153.079 633.511 156.135 628.928 Q159.214 624.322 165.024 624.322 Z" fill="#000000" fill-rule="nonzero" fill-opacity="1" /><path clip-path="url(#clip840)" d="M185.186 653.627 L190.07 653.627 L190.07 659.507 L185.186 659.507 L185.186 653.627 Z" fill="#000000" fill-rule="nonzero" fill-opacity="1" /><path clip-path="url(#clip840)" d="M204.283 655.571 L220.602 655.571 L220.602 659.507 L198.658 659.507 L198.658 655.571 Q201.32 652.817 205.903 648.187 Q210.51 643.534 211.69 642.192 Q213.936 639.669 214.815 637.933 Q215.718 636.173 215.718 634.484 Q215.718 631.729 213.774 629.993 Q211.852 628.257 208.75 628.257 Q206.551 628.257 204.098 629.021 Q201.667 629.784 198.889 631.335 L198.889 626.613 Q201.713 625.479 204.167 624.9 Q206.621 624.322 208.658 624.322 Q214.028 624.322 217.223 627.007 Q220.417 629.692 220.417 634.183 Q220.417 636.312 219.607 638.233 Q218.82 640.132 216.713 642.724 Q216.135 643.395 213.033 646.613 Q209.931 649.807 204.283 655.571 Z" fill="#000000" fill-rule="nonzero" fill-opacity="1" /><path clip-path="url(#clip840)" d="M230.463 624.947 L248.82 624.947 L248.82 628.882 L234.746 628.882 L234.746 637.354 Q235.764 637.007 236.783 636.845 Q237.801 636.659 238.82 636.659 Q244.607 636.659 247.986 639.831 Q251.366 643.002 251.366 648.419 Q251.366 653.997 247.894 657.099 Q244.421 660.178 238.102 660.178 Q235.926 660.178 233.658 659.807 Q231.412 659.437 229.005 658.696 L229.005 653.997 Q231.088 655.132 233.31 655.687 Q235.533 656.243 238.009 656.243 Q242.014 656.243 244.352 654.136 Q246.69 652.03 246.69 648.419 Q246.69 644.808 244.352 642.701 Q242.014 640.595 238.009 640.595 Q236.135 640.595 234.26 641.011 Q232.408 641.428 230.463 642.308 L230.463 624.947 Z" fill="#000000" fill-rule="nonzero" fill-opacity="1" /><path clip-path="url(#clip840)" d="M164.028 447.885 Q160.417 447.885 158.589 451.45 Q156.783 454.991 156.783 462.121 Q156.783 469.227 158.589 472.792 Q160.417 476.334 164.028 476.334 Q167.663 476.334 169.468 472.792 Q171.297 469.227 171.297 462.121 Q171.297 454.991 169.468 451.45 Q167.663 447.885 164.028 447.885 M164.028 444.181 Q169.839 444.181 172.894 448.788 Q175.973 453.371 175.973 462.121 Q175.973 470.848 172.894 475.454 Q169.839 480.038 164.028 480.038 Q158.218 480.038 155.14 475.454 Q152.084 470.848 152.084 462.121 Q152.084 453.371 155.14 448.788 Q158.218 444.181 164.028 444.181 Z" fill="#000000" fill-rule="nonzero" fill-opacity="1" /><path clip-path="url(#clip840)" d="M184.19 473.487 L189.075 473.487 L189.075 479.366 L184.19 479.366 L184.19 473.487 Z" fill="#000000" fill-rule="nonzero" fill-opacity="1" /><path clip-path="url(#clip840)" d="M199.306 444.806 L217.662 444.806 L217.662 448.741 L203.588 448.741 L203.588 457.214 Q204.607 456.866 205.625 456.704 Q206.644 456.519 207.662 456.519 Q213.449 456.519 216.829 459.69 Q220.209 462.862 220.209 468.278 Q220.209 473.857 216.736 476.959 Q213.264 480.038 206.945 480.038 Q204.769 480.038 202.5 479.667 Q200.255 479.297 197.848 478.556 L197.848 473.857 Q199.931 474.991 202.153 475.547 Q204.375 476.102 206.852 476.102 Q210.857 476.102 213.195 473.996 Q215.533 471.889 215.533 468.278 Q215.533 464.667 213.195 462.561 Q210.857 460.454 206.852 460.454 Q204.977 460.454 203.102 460.871 Q201.25 461.288 199.306 462.167 L199.306 444.806 Z" fill="#000000" fill-rule="nonzero" fill-opacity="1" /><path clip-path="url(#clip840)" d="M239.422 447.885 Q235.81 447.885 233.982 451.45 Q232.176 454.991 232.176 462.121 Q232.176 469.227 233.982 472.792 Q235.81 476.334 239.422 476.334 Q243.056 476.334 244.861 472.792 Q246.69 469.227 246.69 462.121 Q246.69 454.991 244.861 451.45 Q243.056 447.885 239.422 447.885 M239.422 444.181 Q245.232 444.181 248.287 448.788 Q251.366 453.371 251.366 462.121 Q251.366 470.848 248.287 475.454 Q245.232 480.038 239.422 480.038 Q233.611 480.038 230.533 475.454 Q227.477 470.848 227.477 462.121 Q227.477 453.371 230.533 448.788 Q233.611 444.181 239.422 444.181 Z" fill="#000000" fill-rule="nonzero" fill-opacity="1" /><path clip-path="url(#clip840)" d="M165.024 267.745 Q161.413 267.745 159.584 271.31 Q157.778 274.851 157.778 281.981 Q157.778 289.087 159.584 292.652 Q161.413 296.194 165.024 296.194 Q168.658 296.194 170.464 292.652 Q172.292 289.087 172.292 281.981 Q172.292 274.851 170.464 271.31 Q168.658 267.745 165.024 267.745 M165.024 264.041 Q170.834 264.041 173.889 268.648 Q176.968 273.231 176.968 281.981 Q176.968 290.708 173.889 295.314 Q170.834 299.897 165.024 299.897 Q159.214 299.897 156.135 295.314 Q153.079 290.708 153.079 281.981 Q153.079 273.231 156.135 268.648 Q159.214 264.041 165.024 264.041 Z" fill="#000000" fill-rule="nonzero" fill-opacity="1" /><path clip-path="url(#clip840)" d="M185.186 293.346 L190.07 293.346 L190.07 299.226 L185.186 299.226 L185.186 293.346 Z" fill="#000000" fill-rule="nonzero" fill-opacity="1" /><path clip-path="url(#clip840)" d="M199.075 264.666 L221.297 264.666 L221.297 266.657 L208.75 299.226 L203.866 299.226 L215.672 268.601 L199.075 268.601 L199.075 264.666 Z" fill="#000000" fill-rule="nonzero" fill-opacity="1" /><path clip-path="url(#clip840)" d="M230.463 264.666 L248.82 264.666 L248.82 268.601 L234.746 268.601 L234.746 277.073 Q235.764 276.726 236.783 276.564 Q237.801 276.379 238.82 276.379 Q244.607 276.379 247.986 279.55 Q251.366 282.722 251.366 288.138 Q251.366 293.717 247.894 296.819 Q244.421 299.897 238.102 299.897 Q235.926 299.897 233.658 299.527 Q231.412 299.157 229.005 298.416 L229.005 293.717 Q231.088 294.851 233.31 295.407 Q235.533 295.962 238.009 295.962 Q242.014 295.962 244.352 293.856 Q246.69 291.749 246.69 288.138 Q246.69 284.527 244.352 282.421 Q242.014 280.314 238.009 280.314 Q236.135 280.314 234.26 280.731 Q232.408 281.147 230.463 282.027 L230.463 264.666 Z" fill="#000000" fill-rule="nonzero" fill-opacity="1" /><path clip-path="url(#clip840)" d="M18.0438 893.717 L24.314 893.717 Q22.5634 897.378 21.704 900.624 Q20.8447 903.871 20.8447 906.894 Q20.8447 912.146 22.8817 915.011 Q24.9187 917.843 28.6745 917.843 Q31.8255 917.843 33.4488 915.966 Q35.0402 914.056 36.0269 908.772 L36.8226 904.889 Q38.1912 897.696 41.6605 894.29 Q45.098 890.853 50.8908 890.853 Q57.7976 890.853 61.3624 895.5 Q64.9272 900.115 64.9272 909.059 Q64.9272 912.433 64.1633 916.252 Q63.3994 920.04 61.9035 924.114 L55.2831 924.114 Q57.4793 920.199 58.5933 916.443 Q59.7073 912.687 59.7073 909.059 Q59.7073 903.552 57.543 900.561 Q55.3786 897.569 51.3682 897.569 Q47.8671 897.569 45.8937 899.733 Q43.9204 901.866 42.9337 906.767 L42.1698 910.682 Q40.7375 917.875 37.682 921.09 Q34.6264 924.305 29.1837 924.305 Q22.8817 924.305 19.2532 919.88 Q15.6248 915.424 15.6248 907.626 Q15.6248 904.284 16.2295 900.815 Q16.8343 897.346 18.0438 893.717 Z" fill="#000000" fill-rule="nonzero" fill-opacity="1" /><path clip-path="url(#clip840)" d="M28.3562 881.081 L28.3562 875.225 L64.0042 875.225 L64.0042 881.081 L28.3562 881.081 M14.479 881.081 L14.479 875.225 L21.895 875.225 L21.895 881.081 L14.479 881.081 Z" fill="#000000" fill-rule="nonzero" fill-opacity="1" /><path clip-path="url(#clip840)" d="M35.1993 835.217 Q31.2526 833.02 29.3747 829.965 Q27.4968 826.909 27.4968 822.772 Q27.4968 817.202 31.4117 814.178 Q35.2948 811.154 42.4881 811.154 L64.0042 811.154 L64.0042 817.042 L42.679 817.042 Q37.5546 817.042 35.072 818.857 Q32.5894 820.671 32.5894 824.395 Q32.5894 828.946 35.6131 831.588 Q38.6368 834.23 43.8567 834.23 L64.0042 834.23 L64.0042 840.118 L42.679 840.118 Q37.5228 840.118 35.072 841.932 Q32.5894 843.747 32.5894 847.534 Q32.5894 852.022 35.6449 854.664 Q38.6686 857.306 43.8567 857.306 L64.0042 857.306 L64.0042 863.194 L28.3562 863.194 L28.3562 857.306 L33.8944 857.306 Q30.616 855.3 29.0564 852.499 Q27.4968 849.699 27.4968 845.847 Q27.4968 841.964 29.4702 839.259 Q31.4436 836.522 35.1993 835.217 Z" fill="#000000" fill-rule="nonzero" fill-opacity="1" /><path clip-path="url(#clip840)" d="M28.3562 799.473 L28.3562 793.617 L64.0042 793.617 L64.0042 799.473 L28.3562 799.473 M14.479 799.473 L14.479 793.617 L21.895 793.617 L21.895 799.473 L14.479 799.473 Z" fill="#000000" fill-rule="nonzero" fill-opacity="1" /><path clip-path="url(#clip840)" d="M14.479 781.363 L14.479 775.506 L64.0042 775.506 L64.0042 781.363 L14.479 781.363 Z" fill="#000000" fill-rule="nonzero" fill-opacity="1" /><path clip-path="url(#clip840)" d="M46.0847 747.052 Q46.0847 754.149 47.7079 756.887 Q49.3312 759.624 53.2461 759.624 Q56.3653 759.624 58.2114 757.587 Q60.0256 755.518 60.0256 751.985 Q60.0256 747.115 56.5881 744.187 Q53.1188 741.227 47.3897 741.227 L46.0847 741.227 L46.0847 747.052 M43.6657 735.37 L64.0042 735.37 L64.0042 741.227 L58.5933 741.227 Q61.8398 743.232 63.3994 746.224 Q64.9272 749.216 64.9272 753.545 Q64.9272 759.019 61.8716 762.266 Q58.7843 765.48 53.6281 765.48 Q47.6125 765.48 44.5569 761.47 Q41.5014 757.428 41.5014 749.439 L41.5014 741.227 L40.9285 741.227 Q36.8862 741.227 34.6901 743.901 Q32.4621 746.542 32.4621 751.348 Q32.4621 754.404 33.1941 757.3 Q33.9262 760.197 35.3903 762.87 L29.9795 762.87 Q28.7381 759.656 28.1334 756.632 Q27.4968 753.608 27.4968 750.744 Q27.4968 743.009 31.5072 739.19 Q35.5176 735.37 43.6657 735.37 Z" fill="#000000" fill-rule="nonzero" fill-opacity="1" /><path clip-path="url(#clip840)" d="M33.8307 702.651 Q33.2578 703.637 33.0032 704.815 Q32.7167 705.961 32.7167 707.361 Q32.7167 712.327 35.9632 715 Q39.1779 717.642 45.2253 717.642 L64.0042 717.642 L64.0042 723.53 L28.3562 723.53 L28.3562 717.642 L33.8944 717.642 Q30.6479 715.796 29.0883 712.836 Q27.4968 709.876 27.4968 705.643 Q27.4968 705.038 27.5923 704.306 Q27.656 703.574 27.8151 702.683 L33.8307 702.651 Z" fill="#000000" fill-rule="nonzero" fill-opacity="1" /><path clip-path="url(#clip840)" d="M28.3562 696.508 L28.3562 690.651 L64.0042 690.651 L64.0042 696.508 L28.3562 696.508 M14.479 696.508 L14.479 690.651 L21.895 690.651 L21.895 696.508 L14.479 696.508 Z" fill="#000000" fill-rule="nonzero" fill-opacity="1" /><path clip-path="url(#clip840)" d="M18.2347 672.605 L28.3562 672.605 L28.3562 660.542 L32.9077 660.542 L32.9077 672.605 L52.2594 672.605 Q56.6199 672.605 57.8613 671.427 Q59.1026 670.217 59.1026 666.557 L59.1026 660.542 L64.0042 660.542 L64.0042 666.557 Q64.0042 673.337 61.4897 675.915 Q58.9434 678.493 52.2594 678.493 L32.9077 678.493 L32.9077 682.79 L28.3562 682.79 L28.3562 678.493 L18.2347 678.493 L18.2347 672.605 Z" fill="#000000" fill-rule="nonzero" fill-opacity="1" /><path clip-path="url(#clip840)" d="M67.3143 638.007 Q73.68 640.49 75.6216 642.845 Q77.5631 645.2 77.5631 649.147 L77.5631 653.826 L72.6615 653.826 L72.6615 650.388 Q72.6615 647.969 71.5157 646.633 Q70.3699 645.296 66.1048 643.672 L63.4312 642.622 L28.3562 657.04 L28.3562 650.834 L56.238 639.694 L28.3562 628.554 L28.3562 622.347 L67.3143 638.007 Z" fill="#000000" fill-rule="nonzero" fill-opacity="1" /><path clip-path="url(#clip840)" d="M411.261 14.0809 L411.261 22.0612 Q406.602 19.8332 402.47 18.7395 Q398.338 17.6457 394.49 17.6457 Q387.806 17.6457 384.16 20.2383 Q380.555 22.8309 380.555 27.611 Q380.555 31.6214 382.945 33.6873 Q385.376 35.7128 392.1 36.9686 L397.042 37.9813 Q406.197 39.7232 410.532 44.1387 Q414.907 48.5136 414.907 55.8863 Q414.907 64.6767 408.992 69.2137 Q403.118 73.7508 391.735 73.7508 Q387.441 73.7508 382.58 72.7785 Q377.76 71.8063 372.575 69.9024 L372.575 61.4765 Q377.557 64.2716 382.337 65.6895 Q387.117 67.1073 391.735 67.1073 Q398.744 67.1073 402.551 64.3527 Q406.359 61.598 406.359 56.4939 Q406.359 52.0379 403.605 49.5264 Q400.89 47.0148 394.652 45.759 L389.669 44.7868 Q380.514 42.9639 376.423 39.075 Q372.332 35.1862 372.332 28.2591 Q372.332 20.2383 377.962 15.6203 Q383.634 11.0023 393.558 11.0023 Q397.812 11.0023 402.227 11.7719 Q406.643 12.5416 411.261 14.0809 Z" fill="#000000" fill-rule="nonzero" fill-opacity="1" /><path clip-path="url(#clip840)" d="M444.924 32.4315 Q438.928 32.4315 435.445 37.1306 Q431.961 41.7891 431.961 49.9314 Q431.961 58.0738 435.404 62.7728 Q438.888 67.4314 444.924 67.4314 Q450.879 67.4314 454.362 62.7323 Q457.846 58.0333 457.846 49.9314 Q457.846 41.8701 454.362 37.1711 Q450.879 32.4315 444.924 32.4315 M444.924 26.1121 Q454.646 26.1121 460.196 32.4315 Q465.745 38.7509 465.745 49.9314 Q465.745 61.0714 460.196 67.4314 Q454.646 73.7508 444.924 73.7508 Q435.161 73.7508 429.611 67.4314 Q424.102 61.0714 424.102 49.9314 Q424.102 38.7509 429.611 32.4315 Q435.161 26.1121 444.924 26.1121 Z" fill="#000000" fill-rule="nonzero" fill-opacity="1" /><path clip-path="url(#clip840)" d="M504.391 34.1734 Q503.135 33.4443 501.636 33.1202 Q500.178 32.7556 498.396 32.7556 Q492.076 32.7556 488.674 36.8875 Q485.311 40.9789 485.311 48.6757 L485.311 72.576 L477.817 72.576 L477.817 27.2059 L485.311 27.2059 L485.311 34.2544 Q487.661 30.1225 491.428 28.1376 Q495.196 26.1121 500.583 26.1121 Q501.353 26.1121 502.285 26.2337 Q503.216 26.3147 504.351 26.5172 L504.391 34.1734 Z" fill="#000000" fill-rule="nonzero" fill-opacity="1" /><path clip-path="url(#clip840)" d="M519.582 14.324 L519.582 27.2059 L534.935 27.2059 L534.935 32.9987 L519.582 32.9987 L519.582 57.6282 Q519.582 63.1779 521.081 64.7578 Q522.62 66.3376 527.279 66.3376 L534.935 66.3376 L534.935 72.576 L527.279 72.576 Q518.65 72.576 515.369 69.3758 Q512.088 66.1351 512.088 57.6282 L512.088 32.9987 L506.619 32.9987 L506.619 27.2059 L512.088 27.2059 L512.088 14.324 L519.582 14.324 Z" fill="#000000" fill-rule="nonzero" fill-opacity="1" /><path clip-path="url(#clip840)" d="M583.546 48.0275 L583.546 51.6733 L549.275 51.6733 Q549.761 59.3701 553.893 63.421 Q558.066 67.4314 565.479 67.4314 Q569.773 67.4314 573.783 66.3781 Q577.834 65.3249 581.804 63.2184 L581.804 70.267 Q577.793 71.9684 573.581 72.8596 Q569.368 73.7508 565.033 73.7508 Q554.177 73.7508 547.817 67.4314 Q541.497 61.1119 541.497 50.3365 Q541.497 39.1965 547.493 32.6746 Q553.529 26.1121 563.737 26.1121 Q572.892 26.1121 578.199 32.0264 Q583.546 37.9003 583.546 48.0275 M576.092 45.84 Q576.011 39.7232 572.649 36.0774 Q569.327 32.4315 563.818 32.4315 Q557.579 32.4315 553.812 35.9558 Q550.085 39.4801 549.518 45.8805 L576.092 45.84 Z" fill="#000000" fill-rule="nonzero" fill-opacity="1" /><path clip-path="url(#clip840)" d="M625.635 34.0924 L625.635 9.54393 L633.088 9.54393 L633.088 72.576 L625.635 72.576 L625.635 65.7705 Q623.285 69.8214 619.68 71.8063 Q616.115 73.7508 611.092 73.7508 Q602.869 73.7508 597.683 67.1883 Q592.539 60.6258 592.539 49.9314 Q592.539 39.2371 597.683 32.6746 Q602.869 26.1121 611.092 26.1121 Q616.115 26.1121 619.68 28.0971 Q623.285 30.0415 625.635 34.0924 M600.235 49.9314 Q600.235 58.1548 603.598 62.8538 Q607 67.5124 612.915 67.5124 Q618.829 67.5124 622.232 62.8538 Q625.635 58.1548 625.635 49.9314 Q625.635 41.7081 622.232 37.0496 Q618.829 32.3505 612.915 32.3505 Q607 32.3505 603.598 37.0496 Q600.235 41.7081 600.235 49.9314 Z" fill="#000000" fill-rule="nonzero" fill-opacity="1" /><path clip-path="url(#clip840)" d="M707.463 28.9478 L707.463 35.9153 Q704.303 34.1734 701.103 33.3227 Q697.943 32.4315 694.703 32.4315 Q687.451 32.4315 683.441 37.0496 Q679.431 41.6271 679.431 49.9314 Q679.431 58.2358 683.441 62.8538 Q687.451 67.4314 694.703 67.4314 Q697.943 67.4314 701.103 66.5807 Q704.303 65.6895 707.463 63.9476 L707.463 70.8341 Q704.344 72.2924 700.981 73.0216 Q697.66 73.7508 693.892 73.7508 Q683.644 73.7508 677.608 67.3098 Q671.572 60.8689 671.572 49.9314 Q671.572 38.832 677.648 32.472 Q683.765 26.1121 694.378 26.1121 Q697.822 26.1121 701.103 26.8413 Q704.384 27.5299 707.463 28.9478 Z" fill="#000000" fill-rule="nonzero" fill-opacity="1" /><path clip-path="url(#clip840)" d="M738.007 32.4315 Q732.011 32.4315 728.528 37.1306 Q725.044 41.7891 725.044 49.9314 Q725.044 58.0738 728.487 62.7728 Q731.971 67.4314 738.007 67.4314 Q743.962 67.4314 747.445 62.7323 Q750.929 58.0333 750.929 49.9314 Q750.929 41.8701 747.445 37.1711 Q743.962 32.4315 738.007 32.4315 M738.007 26.1121 Q747.729 26.1121 753.279 32.4315 Q758.828 38.7509 758.828 49.9314 Q758.828 61.0714 753.279 67.4314 Q747.729 73.7508 738.007 73.7508 Q728.244 73.7508 722.694 67.4314 Q717.185 61.0714 717.185 49.9314 Q717.185 38.7509 722.694 32.4315 Q728.244 26.1121 738.007 26.1121 Z" fill="#000000" fill-rule="nonzero" fill-opacity="1" /><path clip-path="url(#clip840)" d="M800.107 28.5427 L800.107 35.5912 Q796.947 33.9709 793.545 33.1607 Q790.142 32.3505 786.496 32.3505 Q780.946 32.3505 778.151 34.0519 Q775.397 35.7533 775.397 39.156 Q775.397 41.7486 777.382 43.2475 Q779.366 44.7058 785.362 46.0426 L787.914 46.6097 Q795.854 48.3111 799.175 51.4303 Q802.538 54.509 802.538 60.0587 Q802.538 66.3781 797.515 70.0644 Q792.532 73.7508 783.782 73.7508 Q780.136 73.7508 776.166 73.0216 Q772.237 72.3329 767.862 70.9151 L767.862 63.2184 Q771.994 65.3654 776.004 66.4591 Q780.015 67.5124 783.944 67.5124 Q789.21 67.5124 792.046 65.73 Q794.881 63.9071 794.881 60.6258 Q794.881 57.5877 792.815 55.9673 Q790.79 54.3469 783.863 52.8481 L781.27 52.2405 Q774.343 50.7821 771.265 47.7845 Q768.186 44.7463 768.186 39.4801 Q768.186 33.0797 772.723 29.5959 Q777.26 26.1121 785.605 26.1121 Q789.737 26.1121 793.383 26.7198 Q797.028 27.3274 800.107 28.5427 Z" fill="#000000" fill-rule="nonzero" fill-opacity="1" /><path clip-path="url(#clip840)" d="M814.407 27.2059 L821.86 27.2059 L821.86 72.576 L814.407 72.576 L814.407 27.2059 M814.407 9.54393 L821.86 9.54393 L821.86 18.9825 L814.407 18.9825 L814.407 9.54393 Z" fill="#000000" fill-rule="nonzero" fill-opacity="1" /><path clip-path="url(#clip840)" d="M875.17 45.1919 L875.17 72.576 L867.717 72.576 L867.717 45.4349 Q867.717 38.994 865.205 35.7938 Q862.694 32.5936 857.67 32.5936 Q851.635 32.5936 848.151 36.4419 Q844.667 40.2903 844.667 46.9338 L844.667 72.576 L837.173 72.576 L837.173 27.2059 L844.667 27.2059 L844.667 34.2544 Q847.341 30.163 850.946 28.1376 Q854.592 26.1121 859.331 26.1121 Q867.15 26.1121 871.16 30.9732 Q875.17 35.7938 875.17 45.1919 Z" fill="#000000" fill-rule="nonzero" fill-opacity="1" /><path clip-path="url(#clip840)" d="M928.845 48.0275 L928.845 51.6733 L894.574 51.6733 Q895.06 59.3701 899.192 63.421 Q903.365 67.4314 910.778 67.4314 Q915.072 67.4314 919.082 66.3781 Q923.133 65.3249 927.103 63.2184 L927.103 70.267 Q923.093 71.9684 918.88 72.8596 Q914.667 73.7508 910.332 73.7508 Q899.476 73.7508 893.116 67.4314 Q886.796 61.1119 886.796 50.3365 Q886.796 39.1965 892.792 32.6746 Q898.828 26.1121 909.036 26.1121 Q918.191 26.1121 923.498 32.0264 Q928.845 37.9003 928.845 48.0275 M921.391 45.84 Q921.31 39.7232 917.948 36.0774 Q914.626 32.4315 909.117 32.4315 Q902.879 32.4315 899.111 35.9558 Q895.384 39.4801 894.817 45.8805 L921.391 45.84 Z" fill="#000000" fill-rule="nonzero" fill-opacity="1" /><path clip-path="url(#clip840)" d="M996.373 28.5427 L996.373 35.5912 Q993.214 33.9709 989.811 33.1607 Q986.408 32.3505 982.762 32.3505 Q977.213 32.3505 974.418 34.0519 Q971.663 35.7533 971.663 39.156 Q971.663 41.7486 973.648 43.2475 Q975.633 44.7058 981.628 46.0426 L984.18 46.6097 Q992.12 48.3111 995.442 51.4303 Q998.804 54.509 998.804 60.0587 Q998.804 66.3781 993.781 70.0644 Q988.798 73.7508 980.048 73.7508 Q976.402 73.7508 972.433 73.0216 Q968.503 72.3329 964.128 70.9151 L964.128 63.2184 Q968.26 65.3654 972.271 66.4591 Q976.281 67.5124 980.21 67.5124 Q985.476 67.5124 988.312 65.73 Q991.148 63.9071 991.148 60.6258 Q991.148 57.5877 989.082 55.9673 Q987.056 54.3469 980.129 52.8481 L977.537 52.2405 Q970.61 50.7821 967.531 47.7845 Q964.452 44.7463 964.452 39.4801 Q964.452 33.0797 968.989 29.5959 Q973.526 26.1121 981.871 26.1121 Q986.003 26.1121 989.649 26.7198 Q993.295 27.3274 996.373 28.5427 Z" fill="#000000" fill-rule="nonzero" fill-opacity="1" /><path clip-path="url(#clip840)" d="M1010.67 27.2059 L1018.13 27.2059 L1018.13 72.576 L1010.67 72.576 L1010.67 27.2059 M1010.67 9.54393 L1018.13 9.54393 L1018.13 18.9825 L1010.67 18.9825 L1010.67 9.54393 Z" fill="#000000" fill-rule="nonzero" fill-opacity="1" /><path clip-path="url(#clip840)" d="M1069.05 35.9153 Q1071.84 30.8922 1075.73 28.5022 Q1079.62 26.1121 1084.89 26.1121 Q1091.97 26.1121 1095.82 31.0947 Q1099.67 36.0368 1099.67 45.1919 L1099.67 72.576 L1092.18 72.576 L1092.18 45.4349 Q1092.18 38.913 1089.87 35.7533 Q1087.56 32.5936 1082.82 32.5936 Q1077.03 32.5936 1073.66 36.4419 Q1070.3 40.2903 1070.3 46.9338 L1070.3 72.576 L1062.81 72.576 L1062.81 45.4349 Q1062.81 38.8725 1060.5 35.7533 Q1058.19 32.5936 1053.37 32.5936 Q1047.66 32.5936 1044.3 36.4824 Q1040.93 40.3308 1040.93 46.9338 L1040.93 72.576 L1033.44 72.576 L1033.44 27.2059 L1040.93 27.2059 L1040.93 34.2544 Q1043.49 30.082 1047.05 28.0971 Q1050.62 26.1121 1055.52 26.1121 Q1060.46 26.1121 1063.9 28.6237 Q1067.39 31.1352 1069.05 35.9153 Z" fill="#000000" fill-rule="nonzero" fill-opacity="1" /><path clip-path="url(#clip840)" d="M1114.54 27.2059 L1121.99 27.2059 L1121.99 72.576 L1114.54 72.576 L1114.54 27.2059 M1114.54 9.54393 L1121.99 9.54393 L1121.99 18.9825 L1114.54 18.9825 L1114.54 9.54393 Z" fill="#000000" fill-rule="nonzero" fill-opacity="1" /><path clip-path="url(#clip840)" d="M1137.59 9.54393 L1145.04 9.54393 L1145.04 72.576 L1137.59 72.576 L1137.59 9.54393 Z" fill="#000000" fill-rule="nonzero" fill-opacity="1" /><path clip-path="url(#clip840)" d="M1181.26 49.7694 Q1172.22 49.7694 1168.74 51.8354 Q1165.26 53.9013 1165.26 58.8839 Q1165.26 62.8538 1167.85 65.2034 Q1170.48 67.5124 1174.98 67.5124 Q1181.18 67.5124 1184.9 63.1374 Q1188.67 58.7219 1188.67 51.4303 L1188.67 49.7694 L1181.26 49.7694 M1196.12 46.6907 L1196.12 72.576 L1188.67 72.576 L1188.67 65.6895 Q1186.12 69.8214 1182.31 71.8063 Q1178.5 73.7508 1172.99 73.7508 Q1166.03 73.7508 1161.89 69.8619 Q1157.8 65.9325 1157.8 59.3701 Q1157.8 51.7138 1162.91 47.825 Q1168.05 43.9361 1178.22 43.9361 L1188.67 43.9361 L1188.67 43.2069 Q1188.67 38.0623 1185.27 35.2672 Q1181.9 32.4315 1175.79 32.4315 Q1171.9 32.4315 1168.21 33.3632 Q1164.53 34.295 1161.12 36.1584 L1161.12 29.2718 Q1165.22 27.692 1169.06 26.9223 Q1172.91 26.1121 1176.56 26.1121 Q1186.4 26.1121 1191.26 31.2163 Q1196.12 36.3204 1196.12 46.6907 Z" fill="#000000" fill-rule="nonzero" fill-opacity="1" /><path clip-path="url(#clip840)" d="M1237.77 34.1734 Q1236.51 33.4443 1235.01 33.1202 Q1233.55 32.7556 1231.77 32.7556 Q1225.45 32.7556 1222.05 36.8875 Q1218.69 40.9789 1218.69 48.6757 L1218.69 72.576 L1211.19 72.576 L1211.19 27.2059 L1218.69 27.2059 L1218.69 34.2544 Q1221.04 30.1225 1224.8 28.1376 Q1228.57 26.1121 1233.96 26.1121 Q1234.73 26.1121 1235.66 26.2337 Q1236.59 26.3147 1237.73 26.5172 L1237.77 34.1734 Z" fill="#000000" fill-rule="nonzero" fill-opacity="1" /><path clip-path="url(#clip840)" d="M1245.59 27.2059 L1253.04 27.2059 L1253.04 72.576 L1245.59 72.576 L1245.59 27.2059 M1245.59 9.54393 L1253.04 9.54393 L1253.04 18.9825 L1245.59 18.9825 L1245.59 9.54393 Z" fill="#000000" fill-rule="nonzero" fill-opacity="1" /><path clip-path="url(#clip840)" d="M1276.01 14.324 L1276.01 27.2059 L1291.36 27.2059 L1291.36 32.9987 L1276.01 32.9987 L1276.01 57.6282 Q1276.01 63.1779 1277.51 64.7578 Q1279.05 66.3376 1283.7 66.3376 L1291.36 66.3376 L1291.36 72.576 L1283.7 72.576 Q1275.08 72.576 1271.79 69.3758 Q1268.51 66.1351 1268.51 57.6282 L1268.51 32.9987 L1263.04 32.9987 L1263.04 27.2059 L1268.51 27.2059 L1268.51 14.324 L1276.01 14.324 Z" fill="#000000" fill-rule="nonzero" fill-opacity="1" /><path clip-path="url(#clip840)" d="M1301.16 27.2059 L1308.62 27.2059 L1308.62 72.576 L1301.16 72.576 L1301.16 27.2059 M1301.16 9.54393 L1308.62 9.54393 L1308.62 18.9825 L1301.16 18.9825 L1301.16 9.54393 Z" fill="#000000" fill-rule="nonzero" fill-opacity="1" /><path clip-path="url(#clip840)" d="M1363.02 48.0275 L1363.02 51.6733 L1328.75 51.6733 Q1329.24 59.3701 1333.37 63.421 Q1337.54 67.4314 1344.95 67.4314 Q1349.25 67.4314 1353.26 66.3781 Q1357.31 65.3249 1361.28 63.2184 L1361.28 70.267 Q1357.27 71.9684 1353.06 72.8596 Q1348.84 73.7508 1344.51 73.7508 Q1333.65 73.7508 1327.29 67.4314 Q1320.97 61.1119 1320.97 50.3365 Q1320.97 39.1965 1326.97 32.6746 Q1333 26.1121 1343.21 26.1121 Q1352.37 26.1121 1357.67 32.0264 Q1363.02 37.9003 1363.02 48.0275 M1355.57 45.84 Q1355.49 39.7232 1352.12 36.0774 Q1348.8 32.4315 1343.29 32.4315 Q1337.05 32.4315 1333.29 35.9558 Q1329.56 39.4801 1328.99 45.8805 L1355.57 45.84 Z" fill="#000000" fill-rule="nonzero" fill-opacity="1" /><path clip-path="url(#clip840)" d="M1404.18 28.5427 L1404.18 35.5912 Q1401.02 33.9709 1397.62 33.1607 Q1394.21 32.3505 1390.57 32.3505 Q1385.02 32.3505 1382.22 34.0519 Q1379.47 35.7533 1379.47 39.156 Q1379.47 41.7486 1381.45 43.2475 Q1383.44 44.7058 1389.43 46.0426 L1391.98 46.6097 Q1399.92 48.3111 1403.25 51.4303 Q1406.61 54.509 1406.61 60.0587 Q1406.61 66.3781 1401.59 70.0644 Q1396.6 73.7508 1387.85 73.7508 Q1384.21 73.7508 1380.24 73.0216 Q1376.31 72.3329 1371.93 70.9151 L1371.93 63.2184 Q1376.06 65.3654 1380.08 66.4591 Q1384.09 67.5124 1388.01 67.5124 Q1393.28 67.5124 1396.12 65.73 Q1398.95 63.9071 1398.95 60.6258 Q1398.95 57.5877 1396.89 55.9673 Q1394.86 54.3469 1387.93 52.8481 L1385.34 52.2405 Q1378.41 50.7821 1375.34 47.7845 Q1372.26 44.7463 1372.26 39.4801 Q1372.26 33.0797 1376.79 29.5959 Q1381.33 26.1121 1389.68 26.1121 Q1393.81 26.1121 1397.45 26.7198 Q1401.1 27.3274 1404.18 28.5427 Z" fill="#000000" fill-rule="nonzero" fill-opacity="1" /><path clip-path="url(#clip840)" d="M1477.5 28.9478 L1477.5 35.9153 Q1474.34 34.1734 1471.14 33.3227 Q1467.98 32.4315 1464.74 32.4315 Q1457.49 32.4315 1453.48 37.0496 Q1449.47 41.6271 1449.47 49.9314 Q1449.47 58.2358 1453.48 62.8538 Q1457.49 67.4314 1464.74 67.4314 Q1467.98 67.4314 1471.14 66.5807 Q1474.34 65.6895 1477.5 63.9476 L1477.5 70.8341 Q1474.38 72.2924 1471.02 73.0216 Q1467.7 73.7508 1463.93 73.7508 Q1453.68 73.7508 1447.64 67.3098 Q1441.61 60.8689 1441.61 49.9314 Q1441.61 38.832 1447.68 32.472 Q1453.8 26.1121 1464.41 26.1121 Q1467.86 26.1121 1471.14 26.8413 Q1474.42 27.5299 1477.5 28.9478 Z" fill="#000000" fill-rule="nonzero" fill-opacity="1" /><path clip-path="url(#clip840)" d="M1529.27 48.0275 L1529.27 51.6733 L1495 51.6733 Q1495.49 59.3701 1499.62 63.421 Q1503.79 67.4314 1511.2 67.4314 Q1515.5 67.4314 1519.51 66.3781 Q1523.56 65.3249 1527.53 63.2184 L1527.53 70.267 Q1523.52 71.9684 1519.3 72.8596 Q1515.09 73.7508 1510.76 73.7508 Q1499.9 73.7508 1493.54 67.4314 Q1487.22 61.1119 1487.22 50.3365 Q1487.22 39.1965 1493.22 32.6746 Q1499.25 26.1121 1509.46 26.1121 Q1518.62 26.1121 1523.92 32.0264 Q1529.27 37.9003 1529.27 48.0275 M1521.82 45.84 Q1521.74 39.7232 1518.37 36.0774 Q1515.05 32.4315 1509.54 32.4315 Q1503.3 32.4315 1499.54 35.9558 Q1495.81 39.4801 1495.24 45.8805 L1521.82 45.84 Z" fill="#000000" fill-rule="nonzero" fill-opacity="1" /><path clip-path="url(#clip840)" d="M1541.5 9.54393 L1548.96 9.54393 L1548.96 72.576 L1541.5 72.576 L1541.5 9.54393 Z" fill="#000000" fill-rule="nonzero" fill-opacity="1" /><path clip-path="url(#clip840)" d="M1564.55 9.54393 L1572.01 9.54393 L1572.01 72.576 L1564.55 72.576 L1564.55 9.54393 Z" fill="#000000" fill-rule="nonzero" fill-opacity="1" /><path clip-path="url(#clip840)" d="M1639.82 39.9662 Q1645.69 41.222 1648.97 45.1919 Q1652.3 49.1618 1652.3 54.9951 Q1652.3 63.9476 1646.14 68.8492 Q1639.98 73.7508 1628.64 73.7508 Q1624.83 73.7508 1620.78 72.9811 Q1616.77 72.2519 1612.48 70.7531 L1612.48 62.8538 Q1615.88 64.8388 1619.93 65.8515 Q1623.98 66.8642 1628.4 66.8642 Q1636.09 66.8642 1640.1 63.826 Q1644.15 60.7879 1644.15 54.9951 Q1644.15 49.6479 1640.39 46.6502 Q1636.66 43.612 1629.98 43.612 L1622.93 43.612 L1622.93 36.8875 L1630.3 36.8875 Q1636.34 36.8875 1639.54 34.4975 Q1642.74 32.067 1642.74 27.5299 Q1642.74 22.8714 1639.41 20.4004 Q1636.13 17.8888 1629.98 17.8888 Q1626.61 17.8888 1622.76 18.618 Q1618.92 19.3471 1614.3 20.8865 L1614.3 13.5948 Q1618.96 12.2985 1623.01 11.6504 Q1627.1 11.0023 1630.7 11.0023 Q1640.02 11.0023 1645.45 15.2557 Q1650.88 19.4686 1650.88 26.6793 Q1650.88 31.7024 1648 35.1862 Q1645.13 38.6294 1639.82 39.9662 Z" fill="#000000" fill-rule="nonzero" fill-opacity="1" /><path clip-path="url(#clip840)" d="M1667.89 12.096 L1700.02 12.096 L1700.02 18.9825 L1675.39 18.9825 L1675.39 33.8088 Q1677.17 33.2012 1678.95 32.9176 Q1680.73 32.5936 1682.52 32.5936 Q1692.64 32.5936 1698.56 38.1433 Q1704.47 43.6931 1704.47 53.1722 Q1704.47 62.9348 1698.4 68.3631 Q1692.32 73.7508 1681.26 73.7508 Q1677.45 73.7508 1673.48 73.1026 Q1669.55 72.4545 1665.34 71.1582 L1665.34 62.9348 Q1668.99 64.9198 1672.87 65.892 Q1676.76 66.8642 1681.1 66.8642 Q1688.11 66.8642 1692.2 63.1779 Q1696.29 59.4916 1696.29 53.1722 Q1696.29 46.8528 1692.2 43.1664 Q1688.11 39.4801 1681.1 39.4801 Q1677.82 39.4801 1674.54 40.2093 Q1671.29 40.9384 1667.89 42.4778 L1667.89 12.096 Z" fill="#000000" fill-rule="nonzero" fill-opacity="1" /><path clip-path="url(#clip840)" d="M1722.01 65.6895 L1735.38 65.6895 L1735.38 19.5497 L1720.84 22.4663 L1720.84 15.0127 L1735.3 12.096 L1743.48 12.096 L1743.48 65.6895 L1756.85 65.6895 L1756.85 72.576 L1722.01 72.576 L1722.01 65.6895 Z" fill="#000000" fill-rule="nonzero" fill-opacity="1" /><path clip-path="url(#clip840)" d="M1798.7 27.2059 L1806.15 27.2059 L1806.15 72.576 L1798.7 72.576 L1798.7 27.2059 M1798.7 9.54393 L1806.15 9.54393 L1806.15 18.9825 L1798.7 18.9825 L1798.7 9.54393 Z" fill="#000000" fill-rule="nonzero" fill-opacity="1" /><path clip-path="url(#clip840)" d="M1829.12 14.324 L1829.12 27.2059 L1844.47 27.2059 L1844.47 32.9987 L1829.12 32.9987 L1829.12 57.6282 Q1829.12 63.1779 1830.62 64.7578 Q1832.16 66.3376 1836.81 66.3376 L1844.47 66.3376 L1844.47 72.576 L1836.81 72.576 Q1828.19 72.576 1824.9 69.3758 Q1821.62 66.1351 1821.62 57.6282 L1821.62 32.9987 L1816.15 32.9987 L1816.15 27.2059 L1821.62 27.2059 L1821.62 14.324 L1829.12 14.324 Z" fill="#000000" fill-rule="nonzero" fill-opacity="1" /><path clip-path="url(#clip840)" d="M1893.08 48.0275 L1893.08 51.6733 L1858.81 51.6733 Q1859.3 59.3701 1863.43 63.421 Q1867.6 67.4314 1875.01 67.4314 Q1879.31 67.4314 1883.32 66.3781 Q1887.37 65.3249 1891.34 63.2184 L1891.34 70.267 Q1887.33 71.9684 1883.12 72.8596 Q1878.9 73.7508 1874.57 73.7508 Q1863.71 73.7508 1857.35 67.4314 Q1851.03 61.1119 1851.03 50.3365 Q1851.03 39.1965 1857.03 32.6746 Q1863.06 26.1121 1873.27 26.1121 Q1882.43 26.1121 1887.73 32.0264 Q1893.08 37.9003 1893.08 48.0275 M1885.63 45.84 Q1885.55 39.7232 1882.18 36.0774 Q1878.86 32.4315 1873.35 32.4315 Q1867.12 32.4315 1863.35 35.9558 Q1859.62 39.4801 1859.05 45.8805 L1885.63 45.84 Z" fill="#000000" fill-rule="nonzero" fill-opacity="1" /><path clip-path="url(#clip840)" d="M1931.61 34.1734 Q1930.35 33.4443 1928.85 33.1202 Q1927.39 32.7556 1925.61 32.7556 Q1919.29 32.7556 1915.89 36.8875 Q1912.53 40.9789 1912.53 48.6757 L1912.53 72.576 L1905.03 72.576 L1905.03 27.2059 L1912.53 27.2059 L1912.53 34.2544 Q1914.88 30.1225 1918.64 28.1376 Q1922.41 26.1121 1927.8 26.1121 Q1928.57 26.1121 1929.5 26.2337 Q1930.43 26.3147 1931.57 26.5172 L1931.61 34.1734 Z" fill="#000000" fill-rule="nonzero" fill-opacity="1" /><path clip-path="url(#clip840)" d="M1960.04 49.7694 Q1951.01 49.7694 1947.53 51.8354 Q1944.04 53.9013 1944.04 58.8839 Q1944.04 62.8538 1946.63 65.2034 Q1949.27 67.5124 1953.76 67.5124 Q1959.96 67.5124 1963.69 63.1374 Q1967.46 58.7219 1967.46 51.4303 L1967.46 49.7694 L1960.04 49.7694 M1974.91 46.6907 L1974.91 72.576 L1967.46 72.576 L1967.46 65.6895 Q1964.9 69.8214 1961.1 71.8063 Q1957.29 73.7508 1951.78 73.7508 Q1944.81 73.7508 1940.68 69.8619 Q1936.59 65.9325 1936.59 59.3701 Q1936.59 51.7138 1941.69 47.825 Q1946.84 43.9361 1957 43.9361 L1967.46 43.9361 L1967.46 43.2069 Q1967.46 38.0623 1964.05 35.2672 Q1960.69 32.4315 1954.57 32.4315 Q1950.69 32.4315 1947 33.3632 Q1943.31 34.295 1939.91 36.1584 L1939.91 29.2718 Q1944 27.692 1947.85 26.9223 Q1951.7 26.1121 1955.34 26.1121 Q1965.19 26.1121 1970.05 31.2163 Q1974.91 36.3204 1974.91 46.6907 Z" fill="#000000" fill-rule="nonzero" fill-opacity="1" /><path clip-path="url(#clip840)" d="M1997.64 14.324 L1997.64 27.2059 L2012.99 27.2059 L2012.99 32.9987 L1997.64 32.9987 L1997.64 57.6282 Q1997.64 63.1779 1999.13 64.7578 Q2000.67 66.3376 2005.33 66.3376 L2012.99 66.3376 L2012.99 72.576 L2005.33 72.576 Q1996.7 72.576 1993.42 69.3758 Q1990.14 66.1351 1990.14 57.6282 L1990.14 32.9987 L1984.67 32.9987 L1984.67 27.2059 L1990.14 27.2059 L1990.14 14.324 L1997.64 14.324 Z" fill="#000000" fill-rule="nonzero" fill-opacity="1" /><path clip-path="url(#clip840)" d="M2022.79 27.2059 L2030.25 27.2059 L2030.25 72.576 L2022.79 72.576 L2022.79 27.2059 M2022.79 9.54393 L2030.25 9.54393 L2030.25 18.9825 L2022.79 18.9825 L2022.79 9.54393 Z" fill="#000000" fill-rule="nonzero" fill-opacity="1" /><path clip-path="url(#clip840)" d="M2063.42 32.4315 Q2057.43 32.4315 2053.94 37.1306 Q2050.46 41.7891 2050.46 49.9314 Q2050.46 58.0738 2053.9 62.7728 Q2057.39 67.4314 2063.42 67.4314 Q2069.38 67.4314 2072.86 62.7323 Q2076.34 58.0333 2076.34 49.9314 Q2076.34 41.8701 2072.86 37.1711 Q2069.38 32.4315 2063.42 32.4315 M2063.42 26.1121 Q2073.14 26.1121 2078.69 32.4315 Q2084.24 38.7509 2084.24 49.9314 Q2084.24 61.0714 2078.69 67.4314 Q2073.14 73.7508 2063.42 73.7508 Q2053.66 73.7508 2048.11 67.4314 Q2042.6 61.0714 2042.6 49.9314 Q2042.6 38.7509 2048.11 32.4315 Q2053.66 26.1121 2063.42 26.1121 Z" fill="#000000" fill-rule="nonzero" fill-opacity="1" /><path clip-path="url(#clip840)" d="M2134.31 45.1919 L2134.31 72.576 L2126.86 72.576 L2126.86 45.4349 Q2126.86 38.994 2124.35 35.7938 Q2121.84 32.5936 2116.81 32.5936 Q2110.78 32.5936 2107.29 36.4419 Q2103.81 40.2903 2103.81 46.9338 L2103.81 72.576 L2096.32 72.576 L2096.32 27.2059 L2103.81 27.2059 L2103.81 34.2544 Q2106.48 30.163 2110.09 28.1376 Q2113.73 26.1121 2118.47 26.1121 Q2126.29 26.1121 2130.3 30.9732 Q2134.31 35.7938 2134.31 45.1919 Z" fill="#000000" fill-rule="nonzero" fill-opacity="1" /><path clip-path="url(#clip840)" d="M2178.02 65.6895 L2191.39 65.6895 L2191.39 19.5497 L2176.85 22.4663 L2176.85 15.0127 L2191.31 12.096 L2199.49 12.096 L2199.49 65.6895 L2212.86 65.6895 L2212.86 72.576 L2178.02 72.576 L2178.02 65.6895 Z" fill="#000000" fill-rule="nonzero" fill-opacity="1" /><path clip-path="url(#clip840)" d="M2246.89 17.4837 Q2240.57 17.4837 2237.37 23.7221 Q2234.21 29.92 2234.21 42.3968 Q2234.21 54.833 2237.37 61.0714 Q2240.57 67.2693 2246.89 67.2693 Q2253.25 67.2693 2256.41 61.0714 Q2259.61 54.833 2259.61 42.3968 Q2259.61 29.92 2256.41 23.7221 Q2253.25 17.4837 2246.89 17.4837 M2246.89 11.0023 Q2257.06 11.0023 2262.4 19.0636 Q2267.79 27.0843 2267.79 42.3968 Q2267.79 57.6687 2262.4 65.73 Q2257.06 73.7508 2246.89 73.7508 Q2236.72 73.7508 2231.33 65.73 Q2225.98 57.6687 2225.98 42.3968 Q2225.98 27.0843 2231.33 19.0636 Q2236.72 11.0023 2246.89 11.0023 Z" fill="#000000" fill-rule="nonzero" fill-opacity="1" /><polyline clip-path="url(#clip842)" style="stroke:#009af9; stroke-linecap:round; stroke-linejoin:round; stroke-width:4; stroke-opacity:1; fill:none" points="345.82,1386.4 347.771,1344.11 349.721,1326.88 351.672,1312.14 353.622,1299.23 355.572,1297.57 357.523,1287.36 359.473,1287.27 361.424,1281.12 363.374,1279.07 365.325,1275.78 367.275,1273.81 369.226,1268.39 371.176,1265.88 373.126,1259.09 375.077,1258.32 377.027,1252.73 378.978,1251.37 380.928,1241.25 382.879,1240.18 384.829,1238.48 386.779,1236.19 388.73,1233.5 390.68,1232.73 392.631,1231.48 394.581,1230.83 396.532,1230.75 398.482,1230.28 400.432,1228.82 402.383,1228.82 404.333,1227.77 406.284,1226.94 408.234,1224.26 410.185,1224.03 412.135,1223.31 414.085,1222.48 416.036,1222.31 417.986,1221.67 419.937,1217.46 421.887,1216.43 423.838,1216.07 425.788,1215.55 427.738,1214.62 429.689,1213.18 431.639,1212.91 433.59,1210.41 435.54,1209.81 437.491,1209.34 439.441,1209.04 441.391,1208.51 443.342,1207.94 445.292,1207.53 447.243,1205.99 449.193,1205.17 451.144,1204.89 453.094,1204.18 455.045,1202.97 456.995,1198.91 458.945,1196.16 460.896,1195.36 462.846,1192.25 464.797,1191.53 466.747,1191.34 468.698,1191.31 470.648,1191.2 472.598,1189.59 474.549,1189.57 476.499,1189.3 478.45,1189.3 480.4,1188.93 482.351,1188.82 484.301,1187.61 486.251,1186.46 488.202,1184.3 490.152,1184.18 492.103,1183.23 494.053,1182.43 496.004,1180.98 497.954,1180.85 499.904,1179.83 501.855,1179.48 503.805,1179.2 505.756,1178.67 507.706,1177.92 509.657,1175.79 511.607,1174.78 513.557,1173.99 515.508,1172.84 517.458,1172.55 519.409,1171.23 521.359,1170.89 523.31,1170.09 525.26,1169.63 527.21,1169.56 529.161,1167.85 531.111,1166.92 533.062,1165.97 535.012,1165.47 536.963,1164.63 538.913,1164.16 540.863,1161.88 542.814,1161.82 544.764,1160.15 546.715,1158.26 548.665,1157.37 550.616,1157.23 552.566,1156.38 554.517,1156.32 556.467,1156.24 558.417,1154.29 560.368,1154.11 562.318,1153.53 564.269,1153.47 566.219,1153.34 568.17,1153.3 570.12,1153.24 572.07,1153.19 574.021,1152.69 575.971,1151.95 577.922,1151.49 579.872,1150.87 581.823,1150.54 583.773,1150.52 585.723,1150.17 587.674,1149.98 589.624,1149.01 591.575,1148.55 593.525,1147.67 595.476,1147.61 597.426,1145.31 599.376,1143.94 601.327,1143.58 603.277,1143.09 605.228,1142.25 607.178,1140.94 609.129,1137.52 611.079,1137.04 613.029,1137.03 614.98,1136.59 616.93,1136.27 618.881,1136.25 620.831,1136.05 622.782,1135.35 624.732,1134.41 626.682,1134.37 628.633,1133.45 630.583,1133.25 632.534,1133.18 634.484,1133.02 636.435,1133.01 638.385,1132.23 640.336,1130.9 642.286,1130.7 644.236,1130.44 646.187,1130.18 648.137,1129.29 650.088,1128.92 652.038,1128.42 653.989,1127.61 655.939,1127.43 657.889,1127.29 659.84,1127.27 661.79,1127.21 663.741,1124.69 665.691,1123.95 667.642,1123.16 669.592,1122.87 671.542,1122.56 673.493,1121.79 675.443,1120.74 677.394,1119.59 679.344,1119.07 681.295,1118.1 683.245,1117.41 685.195,1117.23 687.146,1116.87 689.096,1116.58 691.047,1114.95 692.997,1114.54 694.948,1114.2 696.898,1113.62 698.848,1112.19 700.799,1110.69 702.749,1109.42 704.7,1109.34 706.65,1108.95 708.601,1108.39 710.551,1107.85 712.501,1105.81 714.452,1105.13 716.402,1104.51 718.353,1104.38 720.303,1103.82 722.254,1103.72 724.204,1103.7 726.154,1103.64 728.105,1100.34 730.055,1098.18 732.006,1097.68 733.956,1097.28 735.907,1097.19 737.857,1096.77 739.808,1096.27 741.758,1096.03 743.708,1095.71 745.659,1093.87 747.609,1093.62 749.56,1090.92 751.51,1090.77 753.461,1090.7 755.411,1090.53 757.361,1089.49 759.312,1088.33 761.262,1087.73 763.213,1087.19 765.163,1086.36 767.114,1085.99 769.064,1084.24 771.014,1084.22 772.965,1081.81 774.915,1080.6 776.866,1080.31 778.816,1079.49 780.767,1079.3 782.717,1076.34 784.667,1076.22 786.618,1074.95 788.568,1074.9 790.519,1071.9 792.469,1070.67 794.42,1070.34 796.37,1070.06 798.32,1069.64 800.271,1065.05 802.221,1064.99 804.172,1064.49 806.122,1062.27 808.073,1061.59 810.023,1056.61 811.973,1056.6 813.924,1055.59 815.874,1054.98 817.825,1053.24 819.775,1050.85 821.726,1049.67 823.676,1049.25 825.627,1046.67 827.577,1045.4 829.527,1044.87 831.478,1043.41 833.428,1041.01 835.379,1040.16 837.329,1032.21 839.28,1030.67 841.23,1027.45 843.18,1026.26 845.131,1023.37 847.081,1021.99 849.032,1020.98 850.982,1015.19 852.933,1015.09 854.883,1014.57 856.833,1013.3 858.784,1010.74 860.734,1008.89 862.685,1007.83 864.635,1007.51 866.586,1006.51 868.536,1006.09 870.486,1005.61 872.437,1002.12 874.387,1000.84 876.338,998.539 878.288,998.413 880.239,998.141 882.189,995.461 884.139,991.412 886.09,989.933 888.04,989.719 889.991,987.685 891.941,980.765 893.892,979.016 895.842,978.647 897.792,977.547 899.743,977.37 901.693,975.033 903.644,974.336 905.594,972.726 907.545,969.597 909.495,968.469 911.445,966.826 913.396,966.623 915.346,965.19 917.297,963.282 919.247,963.185 921.198,961.089 923.148,961.06 925.099,957.631 927.049,957.613 928.999,957.57 930.95,957.458 932.9,957.234 934.851,956.302 936.801,956.036 938.752,952.879 940.702,952.229 942.652,951.471 944.603,951.395 946.553,951.009 948.504,950.821 950.454,950.357 952.405,949.998 954.355,949.321 956.305,945.56 958.256,945.477 960.206,941.619 962.157,939.747 964.107,938.653 966.058,938.584 968.008,938.1 969.958,937.963 971.909,936.863 973.859,936.799 975.81,933.734 977.76,933.532 979.711,931.244 981.661,930.624 983.611,930.24 985.562,930.069 987.512,929.366 989.463,926.88 991.413,925.133 993.364,924.273 995.314,923.721 997.264,923.487 999.215,923.406 1001.17,921.882 1003.12,921.75 1005.07,921.143 1007.02,920.77 1008.97,920.517 1010.92,919.246 1012.87,918.487 1014.82,918.354 1016.77,918.209 1018.72,916.067 1020.67,914.862 1022.62,913.4 1024.57,912.73 1026.52,912.113 1028.47,911.459 1030.42,911.3 1032.37,910.573 1034.32,910.465 1036.27,909.934 1038.22,909.915 1040.17,909.007 1042.12,908.903 1044.07,907.705 1046.03,906.757 1047.98,906.433 1049.93,905.748 1051.88,905.688 1053.83,903.514 1055.78,902.882 1057.73,902.296 1059.68,901.63 1061.63,901.193 1063.58,900.606 1065.53,900.559 1067.48,899.64 1069.43,899.559 1071.38,899.45 1073.33,898.204 1075.28,898.151 1077.23,897.655 1079.18,897.561 1081.13,897.287 1083.08,897.139 1085.03,896.669 1086.98,896.625 1088.93,896.574 1090.89,896.378 1092.84,895.618 1094.79,895.536 1096.74,895.243 1098.69,894.496 1100.64,894.008 1102.59,893.969 1104.54,890.892 1106.49,890.666 1108.44,890.275 1110.39,890.182 1112.34,889.975 1114.29,889.555 1116.24,889.21 1118.19,889.178 1120.14,888.635 1122.09,888.367 1124.04,887.666 1125.99,887.603 1127.94,887.334 1129.89,887.321 1131.84,885.587 1133.79,885.432 1135.75,883.644 1137.7,883.64 1139.65,883.242 1141.6,882.834 1143.55,882.571 1145.5,882.371 1147.45,882.101 1149.4,881.842 1151.35,881.755 1153.3,881.683 1155.25,881.453 1157.2,881.155 1159.15,880.493 1161.1,880.306 1163.05,879.852 1165,879.535 1166.95,879.48 1168.9,879.187 1170.85,877.524 1172.8,877.371 1174.75,876.965 1176.7,876.631 1178.65,876.028 1180.61,875.812 1182.56,875.708 1184.51,875.65 1186.46,875.515 1188.41,875.052 1190.36,874.583 1192.31,874.568 1194.26,874.021 1196.21,873.517 1198.16,873.158 1200.11,872.89 1202.06,872.787 1204.01,872.617 1205.96,872.295 1207.91,871.542 1209.86,871.535 1211.81,870.752 1213.76,870.486 1215.71,870.069 1217.66,869.577 1219.61,869.037 1221.56,868.27 1223.51,867.627 1225.46,867.492 1227.42,866.953 1229.37,865.893 1231.32,865.851 1233.27,865.801 1235.22,865.691 1237.17,865.263 1239.12,864.994 1241.07,863.223 1243.02,863.206 1244.97,862.417 1246.92,862.409 1248.87,861.581 1250.82,861.076 1252.77,860.67 1254.72,860.429 1256.67,859.288 1258.62,858.83 1260.57,858.573 1262.52,858.368 1264.47,857.364 1266.42,857.353 1268.37,856.306 1270.32,855.936 1272.28,855.252 1274.23,854.986 1276.18,854.586 1278.13,852.946 1280.08,852.751 1282.03,852.723 1283.98,852.688 1285.93,852.357 1287.88,852.185 1289.83,851.883 1291.78,851.761 1293.73,850.898 1295.68,850.679 1297.63,850.149 1299.58,849.998 1301.53,849.047 1303.48,849.012 1305.43,848.902 1307.38,848.25 1309.33,847.91 1311.28,847.784 1313.23,847.38 1315.18,847.255 1317.14,846.24 1319.09,846.237 1321.04,845.658 1322.99,845.501 1324.94,845.225 1326.89,844.83 1328.84,844.815 1330.79,844.682 1332.74,843.78 1334.69,843.489 1336.64,842.847 1338.59,842.496 1340.54,842.211 1342.49,841.79 1344.44,841.789 1346.39,841.282 1348.34,841.021 1350.29,840.902 1352.24,840.722 1354.19,840.457 1356.14,840.436 1358.09,840.37 1360.04,840.366 1362,840.353 1363.95,840.151 1365.9,840.07 1367.85,840.057 1369.8,839.298 1371.75,839.281 1373.7,839.224 1375.65,839.156 1377.6,839.1 1379.55,838.976 1381.5,838.605 1383.45,836.595 1385.4,836.516 1387.35,836.497 1389.3,836.08 1391.25,836.008 1393.2,835.8 1395.15,835.584 1397.1,835.561 1399.05,835.361 1401,835.354 1402.95,834.022 1404.9,833.821 1406.86,832.864 1408.81,832.667 1410.76,832.615 1412.71,832.435 1414.66,831.386 1416.61,830.948 1418.56,830.938 1420.51,830.342 1422.46,830.282 1424.41,830.073 1426.36,830.039 1428.31,829.715 1430.26,829.557 1432.21,828.629 1434.16,827.882 1436.11,827.761 1438.06,827.593 1440.01,827.03 1441.96,825.779 1443.91,825.602 1445.86,825.566 1447.81,825.446 1449.76,825.36 1451.72,825.116 1453.67,824.777 1455.62,824.547 1457.57,824.511 1459.52,824.446 1461.47,824.042 1463.42,823.363 1465.37,822.464 1467.32,821.519 1469.27,821.514 1471.22,820.956 1473.17,820.923 1475.12,820.679 1477.07,819.852 1479.02,819.709 1480.97,819.7 1482.92,819.155 1484.87,819.097 1486.82,819.046 1488.77,818.862 1490.72,817.987 1492.67,817.53 1494.62,817.241 1496.57,816.763 1498.53,816.038 1500.48,815.94 1502.43,815.789 1504.38,815.641 1506.33,815.036 1508.28,814.746 1510.23,814.078 1512.18,813.222 1514.13,812.879 1516.08,812.515 1518.03,812.169 1519.98,812.064 1521.93,812.013 1523.88,811.372 1525.83,811.159 1527.78,811.147 1529.73,811.03 1531.68,810.648 1533.63,809.672 1535.58,808.797 1537.53,808.388 1539.48,808.18 1541.43,808 1543.39,807.789 1545.34,806.357 1547.29,806.164 1549.24,805.633 1551.19,804.401 1553.14,804.039 1555.09,803.334 1557.04,803.144 1558.99,802.719 1560.94,802.699 1562.89,802.163 1564.84,802.14 1566.79,801.891 1568.74,801.032 1570.69,800.962 1572.64,800.302 1574.59,800.045 1576.54,799.646 1578.49,799.505 1580.44,799.349 1582.39,798.554 1584.34,797.981 1586.29,797.759 1588.25,797.516 1590.2,795.464 1592.15,795.21 1594.1,795.06 1596.05,794.52 1598,793.183 1599.95,792.918 1601.9,792.548 1603.85,792.231 1605.8,792.152 1607.75,792.017 1609.7,791.968 1611.65,791.66 1613.6,791.296 1615.55,791.21 1617.5,790.831 1619.45,790.818 1621.4,790.346 1623.35,789.907 1625.3,789.029 1627.25,789.023 1629.2,788.873 1631.15,788.664 1633.11,788.354 1635.06,788.168 1637.01,787.825 1638.96,786.759 1640.91,786.502 1642.86,786.376 1644.81,785.051 1646.76,784.234 1648.71,784.196 1650.66,784.094 1652.61,781.565 1654.56,781.351 1656.51,781.013 1658.46,780.188 1660.41,779.465 1662.36,779.022 1664.31,778.994 1666.26,778.042 1668.21,777.566 1670.16,776.955 1672.11,776.307 1674.06,776.065 1676.01,775.728 1677.97,774.99 1679.92,774.976 1681.87,773.869 1683.82,773.053 1685.77,772.733 1687.72,772.588 1689.67,772.327 1691.62,771.984 1693.57,771.844 1695.52,771.669 1697.47,771.54 1699.42,767.919 1701.37,767.485 1703.32,767.206 1705.27,766.177 1707.22,765.429 1709.17,765.358 1711.12,765.222 1713.07,763.549 1715.02,762.267 1716.97,762.126 1718.92,761.839 1720.87,761.153 1722.83,759.456 1724.78,758.597 1726.73,758.229 1728.68,757.15 1730.63,756.42 1732.58,756.135 1734.53,754.777 1736.48,754.721 1738.43,754.539 1740.38,754.398 1742.33,749.996 1744.28,749.956 1746.23,748.701 1748.18,747.046 1750.13,746.629 1752.08,745.953 1754.03,744.522 1755.98,742.301 1757.93,739.608 1759.88,737.152 1761.83,736.473 1763.78,735.121 1765.73,734.764 1767.68,733.739 1769.64,729.445 1771.59,728.127 1773.54,724.325 1775.49,723.907 1777.44,723.857 1779.39,718.369 1781.34,706.755 1783.29,698.442 1785.24,696.608 1787.19,691.053 1789.14,689.739 1791.09,689.138 1793.04,687.15 1794.99,681.038 1796.94,661.655 1798.89,660.902 1800.84,655.335 1802.79,645.245 1804.74,636.946 1806.69,631.901 1808.64,623.623 1810.59,617.962 1812.54,615.606 1814.5,609.034 1816.45,607.36 1818.4,605.826 1820.35,603.282 1822.3,600.461 1824.25,598.753 1826.2,592.261 1828.15,581.926 1830.1,572.752 1832.05,564.266 1834,558.698 1835.95,532.975 1837.9,532.217 1839.85,531.644 1841.8,531.442 1843.75,527.515 1845.7,524.995 1847.65,520.132 1849.6,511.316 1851.55,508.669 1853.5,506.668 1855.45,505.165 1857.4,503.179 1859.36,502.846 1861.31,496.528 1863.26,495.357 1865.21,493.994 1867.16,491.667 1869.11,491.124 1871.06,482.645 1873.01,482.533 1874.96,476.649 1876.91,475.399 1878.86,468.641 1880.81,467.474 1882.76,464.271 1884.71,462.559 1886.66,462.14 1888.61,461.923 1890.56,460.778 1892.51,460.075 1894.46,459.267 1896.41,458.469 1898.36,457.017 1900.31,456.615 1902.26,456.425 1904.22,455.202 1906.17,454.334 1908.12,453.316 1910.07,453.287 1912.02,450.351 1913.97,448.959 1915.92,448.338 1917.87,447.637 1919.82,447.28 1921.77,445.562 1923.72,442.864 1925.67,441.562 1927.62,436.726 1929.57,435.671 1931.52,434.767 1933.47,434.12 1935.42,433.049 1937.37,429.786 1939.32,428.769 1941.27,428.759 1943.22,428.475 1945.17,428.275 1947.12,427.502 1949.08,425.591 1951.03,424.237 1952.98,423.667 1954.93,423.523 1956.88,423.072 1958.83,422.294 1960.78,422.289 1962.73,419.201 1964.68,415.878 1966.63,415.245 1968.58,414.797 1970.53,414.049 1972.48,412.92 1974.43,412.916 1976.38,412.668 1978.33,410.952 1980.28,410.083 1982.23,409.878 1984.18,409.495 1986.13,408.849 1988.08,407.154 1990.03,406.692 1991.98,404.34 1993.94,401.509 1995.89,400.873 1997.84,398.027 1999.79,396.871 2001.74,396.731 2003.69,395.749 2005.64,394.886 2007.59,387.017 2009.54,386.768 2011.49,385.433 2013.44,385.387 2015.39,381.989 2017.34,381.885 2019.29,381.176 2021.24,380.875 2023.19,380.834 2025.14,380.271 2027.09,379.302 2029.04,378.588 2030.99,378.519 2032.94,377.719 2034.89,376.585 2036.84,373.988 2038.79,373.495 2040.75,371.707 2042.7,371.538 2044.65,371.249 2046.6,367.218 2048.55,366.936 2050.5,366.55 2052.45,364.398 2054.4,363.677 2056.35,361.074 2058.3,361.03 2060.25,358.466 2062.2,355.962 2064.15,355.818 2066.1,355.351 2068.05,353.908 2070,353.191 2071.95,352.563 2073.9,351.591 2075.85,351.337 2077.8,349.318 2079.75,349.286 2081.7,349.097 2083.65,348.603 2085.61,348.59 2087.56,348.409 2089.51,347.969 2091.46,347.472 2093.41,346.891 2095.36,344.558 2097.31,343.488 2099.26,342.647 2101.21,341.939 2103.16,340.733 2105.11,339.384 2107.06,339.264 2109.01,336.811 2110.96,336.39 2112.91,335.844 2114.86,334.93 2116.81,334.879 2118.76,333.964 2120.71,333.849 2122.66,333.374 2124.61,333.162 2126.56,332.45 2128.51,332.144 2130.47,332.036 2132.42,331.88 2134.37,331.477 2136.32,329.177 2138.27,328.843 2140.22,328.283 2142.17,327.98 2144.12,327.344 2146.07,326.361 2148.02,326.264 2149.97,325.79 2151.92,324.77 2153.87,322.867 2155.82,321.925 2157.77,321.3 2159.72,319.122 2161.67,318.852 2163.62,317.451 2165.57,315.096 2167.52,313.789 2169.47,313.272 2171.42,312.805 2173.37,312.417 2175.33,312.109 2177.28,309.069 2179.23,307.14 2181.18,307.004 2183.13,306.651 2185.08,303.473 2187.03,302.78 2188.98,301.97 2190.93,301.194 2192.88,299.594 2194.83,299.565 2196.78,297.993 2198.73,291.676 2200.68,291.483 2202.63,288.678 2204.58,286.955 2206.53,286.296 2208.48,285.206 2210.43,284.83 2212.38,284.818 2214.33,283.898 2216.28,277.482 2218.23,275.716 2220.19,275.53 2222.14,274.485 2224.09,272.386 2226.04,271.174 2227.99,267.621 2229.94,266.084 2231.89,265.946 2233.84,265.158 2235.79,264.343 2237.74,263.784 2239.69,262.147 2241.64,259.879 2243.59,259.832 2245.54,258.493 2247.49,254.964 2249.44,254.415 2251.39,253.557 2253.34,249.562 2255.29,248.577 2257.24,246.049 2259.19,245.938 2261.14,245.846 2263.09,239.744 2265.04,239.057 2267,237.152 2268.95,237.076 2270.9,227.727 2272.85,224.933 2274.8,223.124 2276.75,220.695 2278.7,220.621 2280.65,218.924 2282.6,209.46 2284.55,208.962 2286.5,197.458 2288.45,184.24 2290.4,180.512 2292.35,171.85 2294.3,160.256 "/>
<path clip-path="url(#clip840)" d="M356.212 270.476 L782.357 270.476 L782.357 166.796 L356.212 166.796  Z" fill="#ffffff" fill-rule="evenodd" fill-opacity="1"/>
<polyline clip-path="url(#clip840)" style="stroke:#000000; stroke-linecap:round; stroke-linejoin:round; stroke-width:4; stroke-opacity:1; fill:none" points="356.212,270.476 782.357,270.476 782.357,166.796 356.212,166.796 356.212,270.476 "/>
<polyline clip-path="url(#clip840)" style="stroke:#009af9; stroke-linecap:round; stroke-linejoin:round; stroke-width:4; stroke-opacity:1; fill:none" points="379.161,218.636 516.854,218.636 "/>
<path clip-path="url(#clip840)" d="M562.048 202.49 L562.048 207.05 Q559.386 205.777 557.025 205.152 Q554.663 204.527 552.464 204.527 Q548.645 204.527 546.562 206.008 Q544.502 207.49 544.502 210.221 Q544.502 212.513 545.867 213.694 Q547.256 214.851 551.099 215.569 L553.923 216.147 Q559.154 217.143 561.631 219.666 Q564.131 222.166 564.131 226.379 Q564.131 231.402 560.751 233.994 Q557.395 236.587 550.89 236.587 Q548.437 236.587 545.659 236.031 Q542.904 235.476 539.941 234.388 L539.941 229.573 Q542.789 231.17 545.52 231.981 Q548.251 232.791 550.89 232.791 Q554.895 232.791 557.071 231.217 Q559.247 229.643 559.247 226.726 Q559.247 224.18 557.673 222.744 Q556.122 221.309 552.557 220.592 L549.71 220.036 Q544.478 218.995 542.14 216.772 Q539.802 214.55 539.802 210.592 Q539.802 206.008 543.02 203.37 Q546.261 200.731 551.932 200.731 Q554.363 200.731 556.886 201.171 Q559.409 201.61 562.048 202.49 Z" fill="#000000" fill-rule="nonzero" fill-opacity="1" /><path clip-path="url(#clip840)" d="M571.237 209.99 L575.497 209.99 L575.497 235.916 L571.237 235.916 L571.237 209.99 M571.237 199.897 L575.497 199.897 L575.497 205.291 L571.237 205.291 L571.237 199.897 Z" fill="#000000" fill-rule="nonzero" fill-opacity="1" /><path clip-path="url(#clip840)" d="M604.594 214.967 Q606.191 212.096 608.413 210.731 Q610.635 209.365 613.645 209.365 Q617.696 209.365 619.895 212.212 Q622.094 215.036 622.094 220.268 L622.094 235.916 L617.811 235.916 L617.811 220.407 Q617.811 216.68 616.492 214.874 Q615.172 213.069 612.464 213.069 Q609.154 213.069 607.233 215.268 Q605.311 217.467 605.311 221.263 L605.311 235.916 L601.029 235.916 L601.029 220.407 Q601.029 216.657 599.71 214.874 Q598.39 213.069 595.635 213.069 Q592.372 213.069 590.45 215.291 Q588.529 217.49 588.529 221.263 L588.529 235.916 L584.247 235.916 L584.247 209.99 L588.529 209.99 L588.529 214.018 Q589.987 211.633 592.024 210.499 Q594.061 209.365 596.862 209.365 Q599.686 209.365 601.654 210.8 Q603.645 212.235 604.594 214.967 Z" fill="#000000" fill-rule="nonzero" fill-opacity="1" /><path clip-path="url(#clip840)" d="M630.589 209.99 L634.848 209.99 L634.848 235.916 L630.589 235.916 L630.589 209.99 M630.589 199.897 L634.848 199.897 L634.848 205.291 L630.589 205.291 L630.589 199.897 Z" fill="#000000" fill-rule="nonzero" fill-opacity="1" /><path clip-path="url(#clip840)" d="M643.76 199.897 L648.019 199.897 L648.019 235.916 L643.76 235.916 L643.76 199.897 Z" fill="#000000" fill-rule="nonzero" fill-opacity="1" /><path clip-path="url(#clip840)" d="M668.714 222.883 Q663.552 222.883 661.561 224.064 Q659.57 225.244 659.57 228.092 Q659.57 230.36 661.052 231.703 Q662.556 233.022 665.126 233.022 Q668.668 233.022 670.797 230.522 Q672.95 227.999 672.95 223.832 L672.95 222.883 L668.714 222.883 M677.209 221.124 L677.209 235.916 L672.95 235.916 L672.95 231.981 Q671.492 234.342 669.316 235.476 Q667.14 236.587 663.992 236.587 Q660.01 236.587 657.649 234.365 Q655.311 232.119 655.311 228.369 Q655.311 223.994 658.228 221.772 Q661.168 219.55 666.978 219.55 L672.95 219.55 L672.95 219.133 Q672.95 216.194 671.005 214.596 Q669.084 212.976 665.589 212.976 Q663.367 212.976 661.26 213.508 Q659.154 214.041 657.209 215.106 L657.209 211.17 Q659.547 210.268 661.746 209.828 Q663.945 209.365 666.029 209.365 Q671.654 209.365 674.431 212.282 Q677.209 215.198 677.209 221.124 Z" fill="#000000" fill-rule="nonzero" fill-opacity="1" /><path clip-path="url(#clip840)" d="M701.005 213.971 Q700.288 213.555 699.431 213.37 Q698.598 213.161 697.579 213.161 Q693.968 213.161 692.024 215.522 Q690.103 217.86 690.103 222.258 L690.103 235.916 L685.82 235.916 L685.82 209.99 L690.103 209.99 L690.103 214.018 Q691.445 211.657 693.598 210.522 Q695.751 209.365 698.829 209.365 Q699.269 209.365 699.802 209.434 Q700.334 209.481 700.982 209.596 L701.005 213.971 Z" fill="#000000" fill-rule="nonzero" fill-opacity="1" /><path clip-path="url(#clip840)" d="M705.473 209.99 L709.732 209.99 L709.732 235.916 L705.473 235.916 L705.473 209.99 M705.473 199.897 L709.732 199.897 L709.732 205.291 L705.473 205.291 L705.473 199.897 Z" fill="#000000" fill-rule="nonzero" fill-opacity="1" /><path clip-path="url(#clip840)" d="M722.857 202.629 L722.857 209.99 L731.63 209.99 L731.63 213.3 L722.857 213.3 L722.857 227.374 Q722.857 230.545 723.714 231.448 Q724.593 232.351 727.255 232.351 L731.63 232.351 L731.63 235.916 L727.255 235.916 Q722.325 235.916 720.45 234.087 Q718.575 232.235 718.575 227.374 L718.575 213.3 L715.45 213.3 L715.45 209.99 L718.575 209.99 L718.575 202.629 L722.857 202.629 Z" fill="#000000" fill-rule="nonzero" fill-opacity="1" /><path clip-path="url(#clip840)" d="M748.019 238.323 Q746.213 242.953 744.5 244.365 Q742.787 245.777 739.917 245.777 L736.514 245.777 L736.514 242.212 L739.014 242.212 Q740.774 242.212 741.746 241.379 Q742.718 240.545 743.899 237.443 L744.662 235.499 L734.176 209.99 L738.69 209.99 L746.792 230.268 L754.894 209.99 L759.408 209.99 L748.019 238.323 Z" fill="#000000" fill-rule="nonzero" fill-opacity="1" /></svg>
