<?xml version="1.0" encoding="utf-8"?>
<svg xmlns="http://www.w3.org/2000/svg" xmlns:xlink="http://www.w3.org/1999/xlink" width="600" height="400" viewBox="0 0 2400 1600">
<defs>
  <clipPath id="clip790">
    <rect x="0" y="0" width="2400" height="1600"/>
  </clipPath>
</defs>
<path clip-path="url(#clip790)" d="M0 1600 L2400 1600 L2400 8.88178e-14 L0 8.88178e-14  Z" fill="#ffffff" fill-rule="evenodd" fill-opacity="1"/>
<defs>
  <clipPath id="clip791">
    <rect x="480" y="0" width="1681" height="1600"/>
  </clipPath>
</defs>
<path clip-path="url(#clip790)" d="M256.209 1423.18 L2352.76 1423.18 L2352.76 123.472 L256.209 123.472  Z" fill="#ffffff" fill-rule="evenodd" fill-opacity="1"/>
<defs>
  <clipPath id="clip792">
    <rect x="256" y="123" width="2098" height="1301"/>
  </clipPath>
</defs>
<polyline clip-path="url(#clip792)" style="stroke:#000000; stroke-linecap:round; stroke-linejoin:round; stroke-width:2; stroke-opacity:0.1; fill:none" points="313.565,1423.18 313.565,123.472 "/>
<polyline clip-path="url(#clip792)" style="stroke:#000000; stroke-linecap:round; stroke-linejoin:round; stroke-width:2; stroke-opacity:0.1; fill:none" points="808.529,1423.18 808.529,123.472 "/>
<polyline clip-path="url(#clip792)" style="stroke:#000000; stroke-linecap:round; stroke-linejoin:round; stroke-width:2; stroke-opacity:0.1; fill:none" points="1303.49,1423.18 1303.49,123.472 "/>
<polyline clip-path="url(#clip792)" style="stroke:#000000; stroke-linecap:round; stroke-linejoin:round; stroke-width:2; stroke-opacity:0.1; fill:none" points="1798.46,1423.18 1798.46,123.472 "/>
<polyline clip-path="url(#clip792)" style="stroke:#000000; stroke-linecap:round; stroke-linejoin:round; stroke-width:2; stroke-opacity:0.1; fill:none" points="2293.42,1423.18 2293.42,123.472 "/>
<polyline clip-path="url(#clip790)" style="stroke:#000000; stroke-linecap:round; stroke-linejoin:round; stroke-width:4; stroke-opacity:1; fill:none" points="256.209,1423.18 2352.76,1423.18 "/>
<polyline clip-path="url(#clip790)" style="stroke:#000000; stroke-linecap:round; stroke-linejoin:round; stroke-width:4; stroke-opacity:1; fill:none" points="313.565,1423.18 313.565,1404.28 "/>
<polyline clip-path="url(#clip790)" style="stroke:#000000; stroke-linecap:round; stroke-linejoin:round; stroke-width:4; stroke-opacity:1; fill:none" points="808.529,1423.18 808.529,1404.28 "/>
<polyline clip-path="url(#clip790)" style="stroke:#000000; stroke-linecap:round; stroke-linejoin:round; stroke-width:4; stroke-opacity:1; fill:none" points="1303.49,1423.18 1303.49,1404.28 "/>
<polyline clip-path="url(#clip790)" style="stroke:#000000; stroke-linecap:round; stroke-linejoin:round; stroke-width:4; stroke-opacity:1; fill:none" points="1798.46,1423.18 1798.46,1404.28 "/>
<polyline clip-path="url(#clip790)" style="stroke:#000000; stroke-linecap:round; stroke-linejoin:round; stroke-width:4; stroke-opacity:1; fill:none" points="2293.42,1423.18 2293.42,1404.28 "/>
<path clip-path="url(#clip790)" d="M313.565 1454.1 Q309.954 1454.1 308.125 1457.66 Q306.32 1461.2 306.32 1468.33 Q306.32 1475.44 308.125 1479.01 Q309.954 1482.55 313.565 1482.55 Q317.199 1482.55 319.005 1479.01 Q320.834 1475.44 320.834 1468.33 Q320.834 1461.2 319.005 1457.66 Q317.199 1454.1 313.565 1454.1 M313.565 1450.39 Q319.375 1450.39 322.431 1455 Q325.509 1459.58 325.509 1468.33 Q325.509 1477.06 322.431 1481.67 Q319.375 1486.25 313.565 1486.25 Q307.755 1486.25 304.676 1481.67 Q301.621 1477.06 301.621 1468.33 Q301.621 1459.58 304.676 1455 Q307.755 1450.39 313.565 1450.39 Z" fill="#000000" fill-rule="nonzero" fill-opacity="1" /><path clip-path="url(#clip790)" d="M772.221 1481.64 L788.54 1481.64 L788.54 1485.58 L766.596 1485.58 L766.596 1481.64 Q769.258 1478.89 773.841 1474.26 Q778.448 1469.61 779.628 1468.27 Q781.874 1465.74 782.753 1464.01 Q783.656 1462.25 783.656 1460.56 Q783.656 1457.8 781.712 1456.07 Q779.79 1454.33 776.689 1454.33 Q774.49 1454.33 772.036 1455.09 Q769.605 1455.86 766.828 1457.41 L766.828 1452.69 Q769.652 1451.55 772.105 1450.97 Q774.559 1450.39 776.596 1450.39 Q781.966 1450.39 785.161 1453.08 Q788.355 1455.77 788.355 1460.26 Q788.355 1462.39 787.545 1464.31 Q786.758 1466.2 784.652 1468.8 Q784.073 1469.47 780.971 1472.69 Q777.869 1475.88 772.221 1481.64 Z" fill="#000000" fill-rule="nonzero" fill-opacity="1" /><path clip-path="url(#clip790)" d="M798.401 1451.02 L816.758 1451.02 L816.758 1454.96 L802.684 1454.96 L802.684 1463.43 Q803.702 1463.08 804.721 1462.92 Q805.739 1462.73 806.758 1462.73 Q812.545 1462.73 815.924 1465.9 Q819.304 1469.08 819.304 1474.49 Q819.304 1480.07 815.832 1483.17 Q812.36 1486.25 806.04 1486.25 Q803.864 1486.25 801.596 1485.88 Q799.351 1485.51 796.943 1484.77 L796.943 1480.07 Q799.026 1481.2 801.249 1481.76 Q803.471 1482.32 805.948 1482.32 Q809.952 1482.32 812.29 1480.21 Q814.628 1478.1 814.628 1474.49 Q814.628 1470.88 812.29 1468.77 Q809.952 1466.67 805.948 1466.67 Q804.073 1466.67 802.198 1467.08 Q800.346 1467.5 798.401 1468.38 L798.401 1451.02 Z" fill="#000000" fill-rule="nonzero" fill-opacity="1" /><path clip-path="url(#clip790)" d="M838.517 1454.1 Q834.906 1454.1 833.077 1457.66 Q831.272 1461.2 831.272 1468.33 Q831.272 1475.44 833.077 1479.01 Q834.906 1482.55 838.517 1482.55 Q842.151 1482.55 843.957 1479.01 Q845.785 1475.44 845.785 1468.33 Q845.785 1461.2 843.957 1457.66 Q842.151 1454.1 838.517 1454.1 M838.517 1450.39 Q844.327 1450.39 847.383 1455 Q850.461 1459.58 850.461 1468.33 Q850.461 1477.06 847.383 1481.67 Q844.327 1486.25 838.517 1486.25 Q832.707 1486.25 829.628 1481.67 Q826.573 1477.06 826.573 1468.33 Q826.573 1459.58 829.628 1455 Q832.707 1450.39 838.517 1450.39 Z" fill="#000000" fill-rule="nonzero" fill-opacity="1" /><path clip-path="url(#clip790)" d="M1263.11 1451.02 L1281.47 1451.02 L1281.47 1454.96 L1267.39 1454.96 L1267.39 1463.43 Q1268.41 1463.08 1269.43 1462.92 Q1270.45 1462.73 1271.47 1462.73 Q1277.25 1462.73 1280.63 1465.9 Q1284.01 1469.08 1284.01 1474.49 Q1284.01 1480.07 1280.54 1483.17 Q1277.07 1486.25 1270.75 1486.25 Q1268.57 1486.25 1266.31 1485.88 Q1264.06 1485.51 1261.65 1484.77 L1261.65 1480.07 Q1263.74 1481.2 1265.96 1481.76 Q1268.18 1482.32 1270.66 1482.32 Q1274.66 1482.32 1277 1480.21 Q1279.34 1478.1 1279.34 1474.49 Q1279.34 1470.88 1277 1468.77 Q1274.66 1466.67 1270.66 1466.67 Q1268.78 1466.67 1266.91 1467.08 Q1265.06 1467.5 1263.11 1468.38 L1263.11 1451.02 Z" fill="#000000" fill-rule="nonzero" fill-opacity="1" /><path clip-path="url(#clip790)" d="M1303.23 1454.1 Q1299.62 1454.1 1297.79 1457.66 Q1295.98 1461.2 1295.98 1468.33 Q1295.98 1475.44 1297.79 1479.01 Q1299.62 1482.55 1303.23 1482.55 Q1306.86 1482.55 1308.67 1479.01 Q1310.49 1475.44 1310.49 1468.33 Q1310.49 1461.2 1308.67 1457.66 Q1306.86 1454.1 1303.23 1454.1 M1303.23 1450.39 Q1309.04 1450.39 1312.09 1455 Q1315.17 1459.58 1315.17 1468.33 Q1315.17 1477.06 1312.09 1481.67 Q1309.04 1486.25 1303.23 1486.25 Q1297.42 1486.25 1294.34 1481.67 Q1291.28 1477.06 1291.28 1468.33 Q1291.28 1459.58 1294.34 1455 Q1297.42 1450.39 1303.23 1450.39 Z" fill="#000000" fill-rule="nonzero" fill-opacity="1" /><path clip-path="url(#clip790)" d="M1333.39 1454.1 Q1329.78 1454.1 1327.95 1457.66 Q1326.14 1461.2 1326.14 1468.33 Q1326.14 1475.44 1327.95 1479.01 Q1329.78 1482.55 1333.39 1482.55 Q1337.02 1482.55 1338.83 1479.01 Q1340.66 1475.44 1340.66 1468.33 Q1340.66 1461.2 1338.83 1457.66 Q1337.02 1454.1 1333.39 1454.1 M1333.39 1450.39 Q1339.2 1450.39 1342.25 1455 Q1345.33 1459.58 1345.33 1468.33 Q1345.33 1477.06 1342.25 1481.67 Q1339.2 1486.25 1333.39 1486.25 Q1327.58 1486.25 1324.5 1481.67 Q1321.44 1477.06 1321.44 1468.33 Q1321.44 1459.58 1324.5 1455 Q1327.58 1450.39 1333.39 1450.39 Z" fill="#000000" fill-rule="nonzero" fill-opacity="1" /><path clip-path="url(#clip790)" d="M1756.73 1451.02 L1778.95 1451.02 L1778.95 1453.01 L1766.41 1485.58 L1761.52 1485.58 L1773.33 1454.96 L1756.73 1454.96 L1756.73 1451.02 Z" fill="#000000" fill-rule="nonzero" fill-opacity="1" /><path clip-path="url(#clip790)" d="M1788.12 1451.02 L1806.48 1451.02 L1806.48 1454.96 L1792.4 1454.96 L1792.4 1463.43 Q1793.42 1463.08 1794.44 1462.92 Q1795.46 1462.73 1796.48 1462.73 Q1802.26 1462.73 1805.64 1465.9 Q1809.02 1469.08 1809.02 1474.49 Q1809.02 1480.07 1805.55 1483.17 Q1802.08 1486.25 1795.76 1486.25 Q1793.58 1486.25 1791.31 1485.88 Q1789.07 1485.51 1786.66 1484.77 L1786.66 1480.07 Q1788.75 1481.2 1790.97 1481.76 Q1793.19 1482.32 1795.67 1482.32 Q1799.67 1482.32 1802.01 1480.21 Q1804.35 1478.1 1804.35 1474.49 Q1804.35 1470.88 1802.01 1468.77 Q1799.67 1466.67 1795.67 1466.67 Q1793.79 1466.67 1791.92 1467.08 Q1790.06 1467.5 1788.12 1468.38 L1788.12 1451.02 Z" fill="#000000" fill-rule="nonzero" fill-opacity="1" /><path clip-path="url(#clip790)" d="M1828.24 1454.1 Q1824.62 1454.1 1822.8 1457.66 Q1820.99 1461.2 1820.99 1468.33 Q1820.99 1475.44 1822.8 1479.01 Q1824.62 1482.55 1828.24 1482.55 Q1831.87 1482.55 1833.68 1479.01 Q1835.5 1475.44 1835.5 1468.33 Q1835.5 1461.2 1833.68 1457.66 Q1831.87 1454.1 1828.24 1454.1 M1828.24 1450.39 Q1834.05 1450.39 1837.1 1455 Q1840.18 1459.58 1840.18 1468.33 Q1840.18 1477.06 1837.1 1481.67 Q1834.05 1486.25 1828.24 1486.25 Q1822.43 1486.25 1819.35 1481.67 Q1816.29 1477.06 1816.29 1468.33 Q1816.29 1459.58 1819.35 1455 Q1822.43 1450.39 1828.24 1450.39 Z" fill="#000000" fill-rule="nonzero" fill-opacity="1" /><path clip-path="url(#clip790)" d="M2237.95 1481.64 L2245.58 1481.64 L2245.58 1455.28 L2237.27 1456.95 L2237.27 1452.69 L2245.54 1451.02 L2250.21 1451.02 L2250.21 1481.64 L2257.85 1481.64 L2257.85 1485.58 L2237.95 1485.58 L2237.95 1481.64 Z" fill="#000000" fill-rule="nonzero" fill-opacity="1" /><path clip-path="url(#clip790)" d="M2277.3 1454.1 Q2273.69 1454.1 2271.86 1457.66 Q2270.05 1461.2 2270.05 1468.33 Q2270.05 1475.44 2271.86 1479.01 Q2273.69 1482.55 2277.3 1482.55 Q2280.93 1482.55 2282.74 1479.01 Q2284.57 1475.44 2284.57 1468.33 Q2284.57 1461.2 2282.74 1457.66 Q2280.93 1454.1 2277.3 1454.1 M2277.3 1450.39 Q2283.11 1450.39 2286.16 1455 Q2289.24 1459.58 2289.24 1468.33 Q2289.24 1477.06 2286.16 1481.67 Q2283.11 1486.25 2277.3 1486.25 Q2271.49 1486.25 2268.41 1481.67 Q2265.35 1477.06 2265.35 1468.33 Q2265.35 1459.58 2268.41 1455 Q2271.49 1450.39 2277.3 1450.39 Z" fill="#000000" fill-rule="nonzero" fill-opacity="1" /><path clip-path="url(#clip790)" d="M2307.46 1454.1 Q2303.85 1454.1 2302.02 1457.66 Q2300.21 1461.2 2300.21 1468.33 Q2300.21 1475.44 2302.02 1479.01 Q2303.85 1482.55 2307.46 1482.55 Q2311.09 1482.55 2312.9 1479.01 Q2314.73 1475.44 2314.73 1468.33 Q2314.73 1461.2 2312.9 1457.66 Q2311.09 1454.1 2307.46 1454.1 M2307.46 1450.39 Q2313.27 1450.39 2316.32 1455 Q2319.4 1459.58 2319.4 1468.33 Q2319.4 1477.06 2316.32 1481.67 Q2313.27 1486.25 2307.46 1486.25 Q2301.65 1486.25 2298.57 1481.67 Q2295.51 1477.06 2295.51 1468.33 Q2295.51 1459.58 2298.57 1455 Q2301.65 1450.39 2307.46 1450.39 Z" fill="#000000" fill-rule="nonzero" fill-opacity="1" /><path clip-path="url(#clip790)" d="M2337.62 1454.1 Q2334.01 1454.1 2332.18 1457.66 Q2330.38 1461.2 2330.38 1468.33 Q2330.38 1475.44 2332.18 1479.01 Q2334.01 1482.55 2337.62 1482.55 Q2341.26 1482.55 2343.06 1479.01 Q2344.89 1475.44 2344.89 1468.33 Q2344.89 1461.2 2343.06 1457.66 Q2341.26 1454.1 2337.62 1454.1 M2337.62 1450.39 Q2343.43 1450.39 2346.49 1455 Q2349.57 1459.58 2349.57 1468.33 Q2349.57 1477.06 2346.49 1481.67 Q2343.43 1486.25 2337.62 1486.25 Q2331.81 1486.25 2328.73 1481.67 Q2325.68 1477.06 2325.68 1468.33 Q2325.68 1459.58 2328.73 1455 Q2331.81 1450.39 2337.62 1450.39 Z" fill="#000000" fill-rule="nonzero" fill-opacity="1" /><path clip-path="url(#clip790)" d="M1268.33 1524.18 L1268.33 1530.96 Q1265.08 1527.94 1261.39 1526.44 Q1257.73 1524.95 1253.59 1524.95 Q1245.44 1524.95 1241.11 1529.95 Q1236.78 1534.91 1236.78 1544.33 Q1236.78 1553.72 1241.11 1558.72 Q1245.44 1563.68 1253.59 1563.68 Q1257.73 1563.68 1261.39 1562.19 Q1265.08 1560.69 1268.33 1557.67 L1268.33 1564.38 Q1264.95 1566.68 1261.16 1567.82 Q1257.41 1568.97 1253.21 1568.97 Q1242.42 1568.97 1236.21 1562.38 Q1230 1555.76 1230 1544.33 Q1230 1532.87 1236.21 1526.28 Q1242.42 1519.66 1253.21 1519.66 Q1257.47 1519.66 1261.23 1520.81 Q1265.01 1521.92 1268.33 1524.18 Z" fill="#000000" fill-rule="nonzero" fill-opacity="1" /><path clip-path="url(#clip790)" d="M1308.49 1548.76 L1308.49 1551.62 L1281.57 1551.62 Q1281.95 1557.67 1285.19 1560.85 Q1288.47 1564 1294.3 1564 Q1297.67 1564 1300.82 1563.17 Q1304 1562.35 1307.12 1560.69 L1307.12 1566.23 Q1303.97 1567.57 1300.66 1568.27 Q1297.35 1568.97 1293.95 1568.97 Q1285.42 1568.97 1280.42 1564 Q1275.45 1559.04 1275.45 1550.57 Q1275.45 1541.82 1280.17 1536.69 Q1284.91 1531.54 1292.93 1531.54 Q1300.12 1531.54 1304.29 1536.18 Q1308.49 1540.8 1308.49 1548.76 M1302.64 1547.04 Q1302.57 1542.23 1299.93 1539.37 Q1297.32 1536.5 1292.99 1536.5 Q1288.09 1536.5 1285.13 1539.27 Q1282.2 1542.04 1281.76 1547.07 L1302.64 1547.04 Z" fill="#000000" fill-rule="nonzero" fill-opacity="1" /><path clip-path="url(#clip790)" d="M1318.1 1518.52 L1323.96 1518.52 L1323.96 1568.04 L1318.1 1568.04 L1318.1 1518.52 Z" fill="#000000" fill-rule="nonzero" fill-opacity="1" /><path clip-path="url(#clip790)" d="M1336.22 1518.52 L1342.07 1518.52 L1342.07 1568.04 L1336.22 1568.04 L1336.22 1518.52 Z" fill="#000000" fill-rule="nonzero" fill-opacity="1" /><path clip-path="url(#clip790)" d="M1377.05 1533.45 L1377.05 1538.98 Q1374.57 1537.71 1371.9 1537.07 Q1369.22 1536.44 1366.36 1536.44 Q1362 1536.44 1359.8 1537.77 Q1357.64 1539.11 1357.64 1541.79 Q1357.64 1543.82 1359.2 1545 Q1360.76 1546.15 1365.47 1547.2 L1367.47 1547.64 Q1373.71 1548.98 1376.32 1551.43 Q1378.96 1553.85 1378.96 1558.21 Q1378.96 1563.17 1375.01 1566.07 Q1371.1 1568.97 1364.22 1568.97 Q1361.36 1568.97 1358.24 1568.39 Q1355.15 1567.85 1351.72 1566.74 L1351.72 1560.69 Q1354.96 1562.38 1358.11 1563.24 Q1361.26 1564.07 1364.35 1564.07 Q1368.49 1564.07 1370.72 1562.66 Q1372.95 1561.23 1372.95 1558.65 Q1372.95 1556.27 1371.32 1554.99 Q1369.73 1553.72 1364.29 1552.54 L1362.25 1552.07 Q1356.81 1550.92 1354.39 1548.56 Q1351.97 1546.18 1351.97 1542.04 Q1351.97 1537.01 1355.54 1534.27 Q1359.1 1531.54 1365.66 1531.54 Q1368.9 1531.54 1371.77 1532.01 Q1374.63 1532.49 1377.05 1533.45 Z" fill="#000000" fill-rule="nonzero" fill-opacity="1" /><polyline clip-path="url(#clip792)" style="stroke:#000000; stroke-linecap:round; stroke-linejoin:round; stroke-width:2; stroke-opacity:0.1; fill:none" points="256.209,1300.45 2352.76,1300.45 "/>
<polyline clip-path="url(#clip792)" style="stroke:#000000; stroke-linecap:round; stroke-linejoin:round; stroke-width:2; stroke-opacity:0.1; fill:none" points="256.209,908.891 2352.76,908.891 "/>
<polyline clip-path="url(#clip792)" style="stroke:#000000; stroke-linecap:round; stroke-linejoin:round; stroke-width:2; stroke-opacity:0.1; fill:none" points="256.209,517.33 2352.76,517.33 "/>
<polyline clip-path="url(#clip792)" style="stroke:#000000; stroke-linecap:round; stroke-linejoin:round; stroke-width:2; stroke-opacity:0.1; fill:none" points="256.209,125.768 2352.76,125.768 "/>
<polyline clip-path="url(#clip790)" style="stroke:#000000; stroke-linecap:round; stroke-linejoin:round; stroke-width:4; stroke-opacity:1; fill:none" points="256.209,1423.18 256.209,123.472 "/>
<polyline clip-path="url(#clip790)" style="stroke:#000000; stroke-linecap:round; stroke-linejoin:round; stroke-width:4; stroke-opacity:1; fill:none" points="256.209,1300.45 275.106,1300.45 "/>
<polyline clip-path="url(#clip790)" style="stroke:#000000; stroke-linecap:round; stroke-linejoin:round; stroke-width:4; stroke-opacity:1; fill:none" points="256.209,908.891 275.106,908.891 "/>
<polyline clip-path="url(#clip790)" style="stroke:#000000; stroke-linecap:round; stroke-linejoin:round; stroke-width:4; stroke-opacity:1; fill:none" points="256.209,517.33 275.106,517.33 "/>
<polyline clip-path="url(#clip790)" style="stroke:#000000; stroke-linecap:round; stroke-linejoin:round; stroke-width:4; stroke-opacity:1; fill:none" points="256.209,125.768 275.106,125.768 "/>
<path clip-path="url(#clip790)" d="M114.26 1300.9 L143.936 1300.9 L143.936 1304.84 L114.26 1304.84 L114.26 1300.9 Z" fill="#000000" fill-rule="nonzero" fill-opacity="1" /><path clip-path="url(#clip790)" d="M164.028 1286.25 Q160.417 1286.25 158.589 1289.82 Q156.783 1293.36 156.783 1300.49 Q156.783 1307.59 158.589 1311.16 Q160.417 1314.7 164.028 1314.7 Q167.663 1314.7 169.468 1311.16 Q171.297 1307.59 171.297 1300.49 Q171.297 1293.36 169.468 1289.82 Q167.663 1286.25 164.028 1286.25 M164.028 1282.55 Q169.839 1282.55 172.894 1287.15 Q175.973 1291.74 175.973 1300.49 Q175.973 1309.21 172.894 1313.82 Q169.839 1318.4 164.028 1318.4 Q158.218 1318.4 155.14 1313.82 Q152.084 1309.21 152.084 1300.49 Q152.084 1291.74 155.14 1287.15 Q158.218 1282.55 164.028 1282.55 Z" fill="#000000" fill-rule="nonzero" fill-opacity="1" /><path clip-path="url(#clip790)" d="M184.19 1311.85 L189.075 1311.85 L189.075 1317.73 L184.19 1317.73 L184.19 1311.85 Z" fill="#000000" fill-rule="nonzero" fill-opacity="1" /><path clip-path="url(#clip790)" d="M199.306 1283.17 L217.662 1283.17 L217.662 1287.11 L203.588 1287.11 L203.588 1295.58 Q204.607 1295.23 205.625 1295.07 Q206.644 1294.89 207.662 1294.89 Q213.449 1294.89 216.829 1298.06 Q220.209 1301.23 220.209 1306.64 Q220.209 1312.22 216.736 1315.32 Q213.264 1318.4 206.945 1318.4 Q204.769 1318.4 202.5 1318.03 Q200.255 1317.66 197.848 1316.92 L197.848 1312.22 Q199.931 1313.36 202.153 1313.91 Q204.375 1314.47 206.852 1314.47 Q210.857 1314.47 213.195 1312.36 Q215.533 1310.26 215.533 1306.64 Q215.533 1303.03 213.195 1300.93 Q210.857 1298.82 206.852 1298.82 Q204.977 1298.82 203.102 1299.24 Q201.25 1299.65 199.306 1300.53 L199.306 1283.17 Z" fill="#000000" fill-rule="nonzero" fill-opacity="1" /><path clip-path="url(#clip790)" d="M163.033 894.69 Q159.422 894.69 157.593 898.254 Q155.788 901.796 155.788 908.926 Q155.788 916.032 157.593 919.597 Q159.422 923.139 163.033 923.139 Q166.667 923.139 168.473 919.597 Q170.302 916.032 170.302 908.926 Q170.302 901.796 168.473 898.254 Q166.667 894.69 163.033 894.69 M163.033 890.986 Q168.843 890.986 171.899 895.592 Q174.977 900.176 174.977 908.926 Q174.977 917.652 171.899 922.259 Q168.843 926.842 163.033 926.842 Q157.223 926.842 154.144 922.259 Q151.089 917.652 151.089 908.926 Q151.089 900.176 154.144 895.592 Q157.223 890.986 163.033 890.986 Z" fill="#000000" fill-rule="nonzero" fill-opacity="1" /><path clip-path="url(#clip790)" d="M183.195 920.291 L188.079 920.291 L188.079 926.171 L183.195 926.171 L183.195 920.291 Z" fill="#000000" fill-rule="nonzero" fill-opacity="1" /><path clip-path="url(#clip790)" d="M208.264 894.69 Q204.653 894.69 202.824 898.254 Q201.019 901.796 201.019 908.926 Q201.019 916.032 202.824 919.597 Q204.653 923.139 208.264 923.139 Q211.899 923.139 213.704 919.597 Q215.533 916.032 215.533 908.926 Q215.533 901.796 213.704 898.254 Q211.899 894.69 208.264 894.69 M208.264 890.986 Q214.074 890.986 217.13 895.592 Q220.209 900.176 220.209 908.926 Q220.209 917.652 217.13 922.259 Q214.074 926.842 208.264 926.842 Q202.454 926.842 199.375 922.259 Q196.32 917.652 196.32 908.926 Q196.32 900.176 199.375 895.592 Q202.454 890.986 208.264 890.986 Z" fill="#000000" fill-rule="nonzero" fill-opacity="1" /><path clip-path="url(#clip790)" d="M164.028 503.128 Q160.417 503.128 158.589 506.693 Q156.783 510.235 156.783 517.364 Q156.783 524.471 158.589 528.036 Q160.417 531.577 164.028 531.577 Q167.663 531.577 169.468 528.036 Q171.297 524.471 171.297 517.364 Q171.297 510.235 169.468 506.693 Q167.663 503.128 164.028 503.128 M164.028 499.425 Q169.839 499.425 172.894 504.031 Q175.973 508.614 175.973 517.364 Q175.973 526.091 172.894 530.698 Q169.839 535.281 164.028 535.281 Q158.218 535.281 155.14 530.698 Q152.084 526.091 152.084 517.364 Q152.084 508.614 155.14 504.031 Q158.218 499.425 164.028 499.425 Z" fill="#000000" fill-rule="nonzero" fill-opacity="1" /><path clip-path="url(#clip790)" d="M184.19 528.73 L189.075 528.73 L189.075 534.61 L184.19 534.61 L184.19 528.73 Z" fill="#000000" fill-rule="nonzero" fill-opacity="1" /><path clip-path="url(#clip790)" d="M199.306 500.05 L217.662 500.05 L217.662 503.985 L203.588 503.985 L203.588 512.457 Q204.607 512.11 205.625 511.948 Q206.644 511.763 207.662 511.763 Q213.449 511.763 216.829 514.934 Q220.209 518.105 220.209 523.522 Q220.209 529.1 216.736 532.202 Q213.264 535.281 206.945 535.281 Q204.769 535.281 202.5 534.911 Q200.255 534.54 197.848 533.799 L197.848 529.1 Q199.931 530.235 202.153 530.79 Q204.375 531.346 206.852 531.346 Q210.857 531.346 213.195 529.239 Q215.533 527.133 215.533 523.522 Q215.533 519.911 213.195 517.804 Q210.857 515.698 206.852 515.698 Q204.977 515.698 203.102 516.114 Q201.25 516.531 199.306 517.411 L199.306 500.05 Z" fill="#000000" fill-rule="nonzero" fill-opacity="1" /><path clip-path="url(#clip790)" d="M153.843 139.113 L161.482 139.113 L161.482 112.748 L153.172 114.414 L153.172 110.155 L161.436 108.488 L166.112 108.488 L166.112 139.113 L173.751 139.113 L173.751 143.048 L153.843 143.048 L153.843 139.113 Z" fill="#000000" fill-rule="nonzero" fill-opacity="1" /><path clip-path="url(#clip790)" d="M183.195 137.169 L188.079 137.169 L188.079 143.048 L183.195 143.048 L183.195 137.169 Z" fill="#000000" fill-rule="nonzero" fill-opacity="1" /><path clip-path="url(#clip790)" d="M208.264 111.567 Q204.653 111.567 202.824 115.132 Q201.019 118.673 201.019 125.803 Q201.019 132.909 202.824 136.474 Q204.653 140.016 208.264 140.016 Q211.899 140.016 213.704 136.474 Q215.533 132.909 215.533 125.803 Q215.533 118.673 213.704 115.132 Q211.899 111.567 208.264 111.567 M208.264 107.863 Q214.074 107.863 217.13 112.47 Q220.209 117.053 220.209 125.803 Q220.209 134.53 217.13 139.136 Q214.074 143.72 208.264 143.72 Q202.454 143.72 199.375 139.136 Q196.32 134.53 196.32 125.803 Q196.32 117.053 199.375 112.47 Q202.454 107.863 208.264 107.863 Z" fill="#000000" fill-rule="nonzero" fill-opacity="1" /><path clip-path="url(#clip790)" d="M18.0438 893.717 L24.314 893.717 Q22.5634 897.378 21.704 900.624 Q20.8447 903.871 20.8447 906.894 Q20.8447 912.146 22.8817 915.011 Q24.9187 917.843 28.6745 917.843 Q31.8255 917.843 33.4488 915.966 Q35.0402 914.056 36.0269 908.772 L36.8226 904.889 Q38.1912 897.696 41.6605 894.29 Q45.098 890.853 50.8908 890.853 Q57.7976 890.853 61.3624 895.5 Q64.9272 900.115 64.9272 909.059 Q64.9272 912.433 64.1633 916.252 Q63.3994 920.04 61.9035 924.114 L55.2831 924.114 Q57.4793 920.199 58.5933 916.443 Q59.7073 912.687 59.7073 909.059 Q59.7073 903.552 57.543 900.561 Q55.3786 897.569 51.3682 897.569 Q47.8671 897.569 45.8937 899.733 Q43.9204 901.866 42.9337 906.767 L42.1698 910.682 Q40.7375 917.875 37.682 921.09 Q34.6264 924.305 29.1837 924.305 Q22.8817 924.305 19.2532 919.88 Q15.6248 915.424 15.6248 907.626 Q15.6248 904.284 16.2295 900.815 Q16.8343 897.346 18.0438 893.717 Z" fill="#000000" fill-rule="nonzero" fill-opacity="1" /><path clip-path="url(#clip790)" d="M28.3562 881.081 L28.3562 875.225 L64.0042 875.225 L64.0042 881.081 L28.3562 881.081 M14.479 881.081 L14.479 875.225 L21.895 875.225 L21.895 881.081 L14.479 881.081 Z" fill="#000000" fill-rule="nonzero" fill-opacity="1" /><path clip-path="url(#clip790)" d="M35.1993 835.217 Q31.2526 833.02 29.3747 829.965 Q27.4968 826.909 27.4968 822.772 Q27.4968 817.202 31.4117 814.178 Q35.2948 811.154 42.4881 811.154 L64.0042 811.154 L64.0042 817.042 L42.679 817.042 Q37.5546 817.042 35.072 818.857 Q32.5894 820.671 32.5894 824.395 Q32.5894 828.946 35.6131 831.588 Q38.6368 834.23 43.8567 834.23 L64.0042 834.23 L64.0042 840.118 L42.679 840.118 Q37.5228 840.118 35.072 841.932 Q32.5894 843.747 32.5894 847.534 Q32.5894 852.022 35.6449 854.664 Q38.6686 857.306 43.8567 857.306 L64.0042 857.306 L64.0042 863.194 L28.3562 863.194 L28.3562 857.306 L33.8944 857.306 Q30.616 855.3 29.0564 852.499 Q27.4968 849.699 27.4968 845.847 Q27.4968 841.964 29.4702 839.259 Q31.4436 836.522 35.1993 835.217 Z" fill="#000000" fill-rule="nonzero" fill-opacity="1" /><path clip-path="url(#clip790)" d="M28.3562 799.473 L28.3562 793.617 L64.0042 793.617 L64.0042 799.473 L28.3562 799.473 M14.479 799.473 L14.479 793.617 L21.895 793.617 L21.895 799.473 L14.479 799.473 Z" fill="#000000" fill-rule="nonzero" fill-opacity="1" /><path clip-path="url(#clip790)" d="M14.479 781.363 L14.479 775.506 L64.0042 775.506 L64.0042 781.363 L14.479 781.363 Z" fill="#000000" fill-rule="nonzero" fill-opacity="1" /><path clip-path="url(#clip790)" d="M46.0847 747.052 Q46.0847 754.149 47.7079 756.887 Q49.3312 759.624 53.2461 759.624 Q56.3653 759.624 58.2114 757.587 Q60.0256 755.518 60.0256 751.985 Q60.0256 747.115 56.5881 744.187 Q53.1188 741.227 47.3897 741.227 L46.0847 741.227 L46.0847 747.052 M43.6657 735.37 L64.0042 735.37 L64.0042 741.227 L58.5933 741.227 Q61.8398 743.232 63.3994 746.224 Q64.9272 749.216 64.9272 753.545 Q64.9272 759.019 61.8716 762.266 Q58.7843 765.48 53.6281 765.48 Q47.6125 765.48 44.5569 761.47 Q41.5014 757.428 41.5014 749.439 L41.5014 741.227 L40.9285 741.227 Q36.8862 741.227 34.6901 743.901 Q32.4621 746.542 32.4621 751.348 Q32.4621 754.404 33.1941 757.3 Q33.9262 760.197 35.3903 762.87 L29.9795 762.87 Q28.7381 759.656 28.1334 756.632 Q27.4968 753.608 27.4968 750.744 Q27.4968 743.009 31.5072 739.19 Q35.5176 735.37 43.6657 735.37 Z" fill="#000000" fill-rule="nonzero" fill-opacity="1" /><path clip-path="url(#clip790)" d="M33.8307 702.651 Q33.2578 703.637 33.0032 704.815 Q32.7167 705.961 32.7167 707.361 Q32.7167 712.327 35.9632 715 Q39.1779 717.642 45.2253 717.642 L64.0042 717.642 L64.0042 723.53 L28.3562 723.53 L28.3562 717.642 L33.8944 717.642 Q30.6479 715.796 29.0883 712.836 Q27.4968 709.876 27.4968 705.643 Q27.4968 705.038 27.5923 704.306 Q27.656 703.574 27.8151 702.683 L33.8307 702.651 Z" fill="#000000" fill-rule="nonzero" fill-opacity="1" /><path clip-path="url(#clip790)" d="M28.3562 696.508 L28.3562 690.651 L64.0042 690.651 L64.0042 696.508 L28.3562 696.508 M14.479 696.508 L14.479 690.651 L21.895 690.651 L21.895 696.508 L14.479 696.508 Z" fill="#000000" fill-rule="nonzero" fill-opacity="1" /><path clip-path="url(#clip790)" d="M18.2347 672.605 L28.3562 672.605 L28.3562 660.542 L32.9077 660.542 L32.9077 672.605 L52.2594 672.605 Q56.6199 672.605 57.8613 671.427 Q59.1026 670.217 59.1026 666.557 L59.1026 660.542 L64.0042 660.542 L64.0042 666.557 Q64.0042 673.337 61.4897 675.915 Q58.9434 678.493 52.2594 678.493 L32.9077 678.493 L32.9077 682.79 L28.3562 682.79 L28.3562 678.493 L18.2347 678.493 L18.2347 672.605 Z" fill="#000000" fill-rule="nonzero" fill-opacity="1" /><path clip-path="url(#clip790)" d="M67.3143 638.007 Q73.68 640.49 75.6216 642.845 Q77.5631 645.2 77.5631 649.147 L77.5631 653.826 L72.6615 653.826 L72.6615 650.388 Q72.6615 647.969 71.5157 646.633 Q70.3699 645.296 66.1048 643.672 L63.4312 642.622 L28.3562 657.04 L28.3562 650.834 L56.238 639.694 L28.3562 628.554 L28.3562 622.347 L67.3143 638.007 Z" fill="#000000" fill-rule="nonzero" fill-opacity="1" /><path clip-path="url(#clip790)" d="M395.682 14.0809 L395.682 22.0612 Q391.024 19.8332 386.892 18.7395 Q382.76 17.6457 378.911 17.6457 Q372.227 17.6457 368.582 20.2383 Q364.976 22.8309 364.976 27.611 Q364.976 31.6214 367.366 33.6873 Q369.797 35.7128 376.521 36.9686 L381.464 37.9813 Q390.619 39.7232 394.953 44.1387 Q399.328 48.5136 399.328 55.8863 Q399.328 64.6767 393.414 69.2137 Q387.54 73.7508 376.157 73.7508 Q371.863 73.7508 367.002 72.7785 Q362.181 71.8063 356.996 69.9024 L356.996 61.4765 Q361.979 64.2716 366.759 65.6895 Q371.539 67.1073 376.157 67.1073 Q383.165 67.1073 386.973 64.3527 Q390.781 61.598 390.781 56.4939 Q390.781 52.0379 388.026 49.5264 Q385.312 47.0148 379.073 45.759 L374.091 44.7868 Q364.936 42.9639 360.844 39.075 Q356.753 35.1862 356.753 28.2591 Q356.753 20.2383 362.384 15.6203 Q368.055 11.0023 377.98 11.0023 Q382.233 11.0023 386.649 11.7719 Q391.064 12.5416 395.682 14.0809 Z" fill="#000000" fill-rule="nonzero" fill-opacity="1" /><path clip-path="url(#clip790)" d="M429.345 32.4315 Q423.35 32.4315 419.866 37.1306 Q416.382 41.7891 416.382 49.9314 Q416.382 58.0738 419.826 62.7728 Q423.309 67.4314 429.345 67.4314 Q435.3 67.4314 438.784 62.7323 Q442.268 58.0333 442.268 49.9314 Q442.268 41.8701 438.784 37.1711 Q435.3 32.4315 429.345 32.4315 M429.345 26.1121 Q439.067 26.1121 444.617 32.4315 Q450.167 38.7509 450.167 49.9314 Q450.167 61.0714 444.617 67.4314 Q439.067 73.7508 429.345 73.7508 Q419.583 73.7508 414.033 67.4314 Q408.524 61.0714 408.524 49.9314 Q408.524 38.7509 414.033 32.4315 Q419.583 26.1121 429.345 26.1121 Z" fill="#000000" fill-rule="nonzero" fill-opacity="1" /><path clip-path="url(#clip790)" d="M488.812 34.1734 Q487.557 33.4443 486.058 33.1202 Q484.6 32.7556 482.817 32.7556 Q476.498 32.7556 473.095 36.8875 Q469.733 40.9789 469.733 48.6757 L469.733 72.576 L462.239 72.576 L462.239 27.2059 L469.733 27.2059 L469.733 34.2544 Q472.082 30.1225 475.85 28.1376 Q479.617 26.1121 485.005 26.1121 Q485.774 26.1121 486.706 26.2337 Q487.638 26.3147 488.772 26.5172 L488.812 34.1734 Z" fill="#000000" fill-rule="nonzero" fill-opacity="1" /><path clip-path="url(#clip790)" d="M504.003 14.324 L504.003 27.2059 L519.356 27.2059 L519.356 32.9987 L504.003 32.9987 L504.003 57.6282 Q504.003 63.1779 505.502 64.7578 Q507.042 66.3376 511.7 66.3376 L519.356 66.3376 L519.356 72.576 L511.7 72.576 Q503.072 72.576 499.79 69.3758 Q496.509 66.1351 496.509 57.6282 L496.509 32.9987 L491.04 32.9987 L491.04 27.2059 L496.509 27.2059 L496.509 14.324 L504.003 14.324 Z" fill="#000000" fill-rule="nonzero" fill-opacity="1" /><path clip-path="url(#clip790)" d="M567.967 48.0275 L567.967 51.6733 L533.696 51.6733 Q534.183 59.3701 538.315 63.421 Q542.487 67.4314 549.9 67.4314 Q554.194 67.4314 558.204 66.3781 Q562.255 65.3249 566.225 63.2184 L566.225 70.267 Q562.215 71.9684 558.002 72.8596 Q553.789 73.7508 549.455 73.7508 Q538.598 73.7508 532.238 67.4314 Q525.919 61.1119 525.919 50.3365 Q525.919 39.1965 531.914 32.6746 Q537.95 26.1121 548.158 26.1121 Q557.313 26.1121 562.62 32.0264 Q567.967 37.9003 567.967 48.0275 M560.513 45.84 Q560.432 39.7232 557.07 36.0774 Q553.748 32.4315 548.239 32.4315 Q542.001 32.4315 538.233 35.9558 Q534.507 39.4801 533.94 45.8805 L560.513 45.84 Z" fill="#000000" fill-rule="nonzero" fill-opacity="1" /><path clip-path="url(#clip790)" d="M610.056 34.0924 L610.056 9.54393 L617.51 9.54393 L617.51 72.576 L610.056 72.576 L610.056 65.7705 Q607.707 69.8214 604.101 71.8063 Q600.536 73.7508 595.513 73.7508 Q587.29 73.7508 582.105 67.1883 Q576.96 60.6258 576.96 49.9314 Q576.96 39.2371 582.105 32.6746 Q587.29 26.1121 595.513 26.1121 Q600.536 26.1121 604.101 28.0971 Q607.707 30.0415 610.056 34.0924 M584.657 49.9314 Q584.657 58.1548 588.019 62.8538 Q591.422 67.5124 597.336 67.5124 Q603.251 67.5124 606.653 62.8538 Q610.056 58.1548 610.056 49.9314 Q610.056 41.7081 606.653 37.0496 Q603.251 32.3505 597.336 32.3505 Q591.422 32.3505 588.019 37.0496 Q584.657 41.7081 584.657 49.9314 Z" fill="#000000" fill-rule="nonzero" fill-opacity="1" /><path clip-path="url(#clip790)" d="M691.884 28.9478 L691.884 35.9153 Q688.725 34.1734 685.524 33.3227 Q682.365 32.4315 679.124 32.4315 Q671.873 32.4315 667.862 37.0496 Q663.852 41.6271 663.852 49.9314 Q663.852 58.2358 667.862 62.8538 Q671.873 67.4314 679.124 67.4314 Q682.365 67.4314 685.524 66.5807 Q688.725 65.6895 691.884 63.9476 L691.884 70.8341 Q688.765 72.2924 685.403 73.0216 Q682.081 73.7508 678.314 73.7508 Q668.065 73.7508 662.029 67.3098 Q655.993 60.8689 655.993 49.9314 Q655.993 38.832 662.07 32.472 Q668.187 26.1121 678.8 26.1121 Q682.243 26.1121 685.524 26.8413 Q688.806 27.5299 691.884 28.9478 Z" fill="#000000" fill-rule="nonzero" fill-opacity="1" /><path clip-path="url(#clip790)" d="M722.428 32.4315 Q716.433 32.4315 712.949 37.1306 Q709.465 41.7891 709.465 49.9314 Q709.465 58.0738 712.908 62.7728 Q716.392 67.4314 722.428 67.4314 Q728.383 67.4314 731.867 62.7323 Q735.35 58.0333 735.35 49.9314 Q735.35 41.8701 731.867 37.1711 Q728.383 32.4315 722.428 32.4315 M722.428 26.1121 Q732.15 26.1121 737.7 32.4315 Q743.25 38.7509 743.25 49.9314 Q743.25 61.0714 737.7 67.4314 Q732.15 73.7508 722.428 73.7508 Q712.665 73.7508 707.116 67.4314 Q701.606 61.0714 701.606 49.9314 Q701.606 38.7509 707.116 32.4315 Q712.665 26.1121 722.428 26.1121 Z" fill="#000000" fill-rule="nonzero" fill-opacity="1" /><path clip-path="url(#clip790)" d="M784.528 28.5427 L784.528 35.5912 Q781.369 33.9709 777.966 33.1607 Q774.563 32.3505 770.917 32.3505 Q765.368 32.3505 762.573 34.0519 Q759.818 35.7533 759.818 39.156 Q759.818 41.7486 761.803 43.2475 Q763.788 44.7058 769.783 46.0426 L772.335 46.6097 Q780.275 48.3111 783.597 51.4303 Q786.959 54.509 786.959 60.0587 Q786.959 66.3781 781.936 70.0644 Q776.953 73.7508 768.203 73.7508 Q764.558 73.7508 760.588 73.0216 Q756.658 72.3329 752.283 70.9151 L752.283 63.2184 Q756.415 65.3654 760.426 66.4591 Q764.436 67.5124 768.365 67.5124 Q773.632 67.5124 776.467 65.73 Q779.303 63.9071 779.303 60.6258 Q779.303 57.5877 777.237 55.9673 Q775.211 54.3469 768.284 52.8481 L765.692 52.2405 Q758.765 50.7821 755.686 47.7845 Q752.607 44.7463 752.607 39.4801 Q752.607 33.0797 757.144 29.5959 Q761.681 26.1121 770.026 26.1121 Q774.158 26.1121 777.804 26.7198 Q781.45 27.3274 784.528 28.5427 Z" fill="#000000" fill-rule="nonzero" fill-opacity="1" /><path clip-path="url(#clip790)" d="M798.828 27.2059 L806.282 27.2059 L806.282 72.576 L798.828 72.576 L798.828 27.2059 M798.828 9.54393 L806.282 9.54393 L806.282 18.9825 L798.828 18.9825 L798.828 9.54393 Z" fill="#000000" fill-rule="nonzero" fill-opacity="1" /><path clip-path="url(#clip790)" d="M859.592 45.1919 L859.592 72.576 L852.138 72.576 L852.138 45.4349 Q852.138 38.994 849.627 35.7938 Q847.115 32.5936 842.092 32.5936 Q836.056 32.5936 832.572 36.4419 Q829.088 40.2903 829.088 46.9338 L829.088 72.576 L821.594 72.576 L821.594 27.2059 L829.088 27.2059 L829.088 34.2544 Q831.762 30.163 835.367 28.1376 Q839.013 26.1121 843.753 26.1121 Q851.571 26.1121 855.581 30.9732 Q859.592 35.7938 859.592 45.1919 Z" fill="#000000" fill-rule="nonzero" fill-opacity="1" /><path clip-path="url(#clip790)" d="M913.266 48.0275 L913.266 51.6733 L878.996 51.6733 Q879.482 59.3701 883.614 63.421 Q887.786 67.4314 895.199 67.4314 Q899.493 67.4314 903.504 66.3781 Q907.554 65.3249 911.524 63.2184 L911.524 70.267 Q907.514 71.9684 903.301 72.8596 Q899.088 73.7508 894.754 73.7508 Q883.897 73.7508 877.537 67.4314 Q871.218 61.1119 871.218 50.3365 Q871.218 39.1965 877.213 32.6746 Q883.249 26.1121 893.457 26.1121 Q902.612 26.1121 907.919 32.0264 Q913.266 37.9003 913.266 48.0275 M905.813 45.84 Q905.732 39.7232 902.369 36.0774 Q899.048 32.4315 893.538 32.4315 Q887.3 32.4315 883.533 35.9558 Q879.806 39.4801 879.239 45.8805 L905.813 45.84 Z" fill="#000000" fill-rule="nonzero" fill-opacity="1" /><path clip-path="url(#clip790)" d="M980.795 28.5427 L980.795 35.5912 Q977.635 33.9709 974.232 33.1607 Q970.83 32.3505 967.184 32.3505 Q961.634 32.3505 958.839 34.0519 Q956.084 35.7533 956.084 39.156 Q956.084 41.7486 958.069 43.2475 Q960.054 44.7058 966.049 46.0426 L968.602 46.6097 Q976.541 48.3111 979.863 51.4303 Q983.225 54.509 983.225 60.0587 Q983.225 66.3781 978.202 70.0644 Q973.22 73.7508 964.47 73.7508 Q960.824 73.7508 956.854 73.0216 Q952.925 72.3329 948.55 70.9151 L948.55 63.2184 Q952.682 65.3654 956.692 66.4591 Q960.702 67.5124 964.632 67.5124 Q969.898 67.5124 972.733 65.73 Q975.569 63.9071 975.569 60.6258 Q975.569 57.5877 973.503 55.9673 Q971.478 54.3469 964.551 52.8481 L961.958 52.2405 Q955.031 50.7821 951.952 47.7845 Q948.874 44.7463 948.874 39.4801 Q948.874 33.0797 953.411 29.5959 Q957.948 26.1121 966.293 26.1121 Q970.424 26.1121 974.07 26.7198 Q977.716 27.3274 980.795 28.5427 Z" fill="#000000" fill-rule="nonzero" fill-opacity="1" /><path clip-path="url(#clip790)" d="M995.094 27.2059 L1002.55 27.2059 L1002.55 72.576 L995.094 72.576 L995.094 27.2059 M995.094 9.54393 L1002.55 9.54393 L1002.55 18.9825 L995.094 18.9825 L995.094 9.54393 Z" fill="#000000" fill-rule="nonzero" fill-opacity="1" /><path clip-path="url(#clip790)" d="M1053.47 35.9153 Q1056.26 30.8922 1060.15 28.5022 Q1064.04 26.1121 1069.31 26.1121 Q1076.4 26.1121 1080.24 31.0947 Q1084.09 36.0368 1084.09 45.1919 L1084.09 72.576 L1076.6 72.576 L1076.6 45.4349 Q1076.6 38.913 1074.29 35.7533 Q1071.98 32.5936 1067.24 32.5936 Q1061.45 32.5936 1058.09 36.4419 Q1054.72 40.2903 1054.72 46.9338 L1054.72 72.576 L1047.23 72.576 L1047.23 45.4349 Q1047.23 38.8725 1044.92 35.7533 Q1042.61 32.5936 1037.79 32.5936 Q1032.08 32.5936 1028.72 36.4824 Q1025.35 40.3308 1025.35 46.9338 L1025.35 72.576 L1017.86 72.576 L1017.86 27.2059 L1025.35 27.2059 L1025.35 34.2544 Q1027.91 30.082 1031.47 28.0971 Q1035.04 26.1121 1039.94 26.1121 Q1044.88 26.1121 1048.32 28.6237 Q1051.81 31.1352 1053.47 35.9153 Z" fill="#000000" fill-rule="nonzero" fill-opacity="1" /><path clip-path="url(#clip790)" d="M1098.96 27.2059 L1106.41 27.2059 L1106.41 72.576 L1098.96 72.576 L1098.96 27.2059 M1098.96 9.54393 L1106.41 9.54393 L1106.41 18.9825 L1098.96 18.9825 L1098.96 9.54393 Z" fill="#000000" fill-rule="nonzero" fill-opacity="1" /><path clip-path="url(#clip790)" d="M1122.01 9.54393 L1129.46 9.54393 L1129.46 72.576 L1122.01 72.576 L1122.01 9.54393 Z" fill="#000000" fill-rule="nonzero" fill-opacity="1" /><path clip-path="url(#clip790)" d="M1165.68 49.7694 Q1156.64 49.7694 1153.16 51.8354 Q1149.68 53.9013 1149.68 58.8839 Q1149.68 62.8538 1152.27 65.2034 Q1154.9 67.5124 1159.4 67.5124 Q1165.6 67.5124 1169.32 63.1374 Q1173.09 58.7219 1173.09 51.4303 L1173.09 49.7694 L1165.68 49.7694 M1180.54 46.6907 L1180.54 72.576 L1173.09 72.576 L1173.09 65.6895 Q1170.54 69.8214 1166.73 71.8063 Q1162.92 73.7508 1157.41 73.7508 Q1150.45 73.7508 1146.31 69.8619 Q1142.22 65.9325 1142.22 59.3701 Q1142.22 51.7138 1147.33 47.825 Q1152.47 43.9361 1162.64 43.9361 L1173.09 43.9361 L1173.09 43.2069 Q1173.09 38.0623 1169.69 35.2672 Q1166.33 32.4315 1160.21 32.4315 Q1156.32 32.4315 1152.63 33.3632 Q1148.95 34.295 1145.55 36.1584 L1145.55 29.2718 Q1149.64 27.692 1153.48 26.9223 Q1157.33 26.1121 1160.98 26.1121 Q1170.82 26.1121 1175.68 31.2163 Q1180.54 36.3204 1180.54 46.6907 Z" fill="#000000" fill-rule="nonzero" fill-opacity="1" /><path clip-path="url(#clip790)" d="M1222.19 34.1734 Q1220.93 33.4443 1219.43 33.1202 Q1217.98 32.7556 1216.19 32.7556 Q1209.87 32.7556 1206.47 36.8875 Q1203.11 40.9789 1203.11 48.6757 L1203.11 72.576 L1195.61 72.576 L1195.61 27.2059 L1203.11 27.2059 L1203.11 34.2544 Q1205.46 30.1225 1209.23 28.1376 Q1212.99 26.1121 1218.38 26.1121 Q1219.15 26.1121 1220.08 26.2337 Q1221.01 26.3147 1222.15 26.5172 L1222.19 34.1734 Z" fill="#000000" fill-rule="nonzero" fill-opacity="1" /><path clip-path="url(#clip790)" d="M1230.01 27.2059 L1237.46 27.2059 L1237.46 72.576 L1230.01 72.576 L1230.01 27.2059 M1230.01 9.54393 L1237.46 9.54393 L1237.46 18.9825 L1230.01 18.9825 L1230.01 9.54393 Z" fill="#000000" fill-rule="nonzero" fill-opacity="1" /><path clip-path="url(#clip790)" d="M1260.43 14.324 L1260.43 27.2059 L1275.78 27.2059 L1275.78 32.9987 L1260.43 32.9987 L1260.43 57.6282 Q1260.43 63.1779 1261.93 64.7578 Q1263.47 66.3376 1268.13 66.3376 L1275.78 66.3376 L1275.78 72.576 L1268.13 72.576 Q1259.5 72.576 1256.22 69.3758 Q1252.93 66.1351 1252.93 57.6282 L1252.93 32.9987 L1247.47 32.9987 L1247.47 27.2059 L1252.93 27.2059 L1252.93 14.324 L1260.43 14.324 Z" fill="#000000" fill-rule="nonzero" fill-opacity="1" /><path clip-path="url(#clip790)" d="M1285.58 27.2059 L1293.04 27.2059 L1293.04 72.576 L1285.58 72.576 L1285.58 27.2059 M1285.58 9.54393 L1293.04 9.54393 L1293.04 18.9825 L1285.58 18.9825 L1285.58 9.54393 Z" fill="#000000" fill-rule="nonzero" fill-opacity="1" /><path clip-path="url(#clip790)" d="M1347.44 48.0275 L1347.44 51.6733 L1313.17 51.6733 Q1313.66 59.3701 1317.79 63.421 Q1321.96 67.4314 1329.38 67.4314 Q1333.67 67.4314 1337.68 66.3781 Q1341.73 65.3249 1345.7 63.2184 L1345.7 70.267 Q1341.69 71.9684 1337.48 72.8596 Q1333.26 73.7508 1328.93 73.7508 Q1318.07 73.7508 1311.71 67.4314 Q1305.39 61.1119 1305.39 50.3365 Q1305.39 39.1965 1311.39 32.6746 Q1317.42 26.1121 1327.63 26.1121 Q1336.79 26.1121 1342.09 32.0264 Q1347.44 37.9003 1347.44 48.0275 M1339.99 45.84 Q1339.91 39.7232 1336.55 36.0774 Q1333.22 32.4315 1327.71 32.4315 Q1321.48 32.4315 1317.71 35.9558 Q1313.98 39.4801 1313.41 45.8805 L1339.99 45.84 Z" fill="#000000" fill-rule="nonzero" fill-opacity="1" /><path clip-path="url(#clip790)" d="M1388.6 28.5427 L1388.6 35.5912 Q1385.44 33.9709 1382.04 33.1607 Q1378.63 32.3505 1374.99 32.3505 Q1369.44 32.3505 1366.64 34.0519 Q1363.89 35.7533 1363.89 39.156 Q1363.89 41.7486 1365.87 43.2475 Q1367.86 44.7058 1373.85 46.0426 L1376.41 46.6097 Q1384.35 48.3111 1387.67 51.4303 Q1391.03 54.509 1391.03 60.0587 Q1391.03 66.3781 1386.01 70.0644 Q1381.02 73.7508 1372.27 73.7508 Q1368.63 73.7508 1364.66 73.0216 Q1360.73 72.3329 1356.35 70.9151 L1356.35 63.2184 Q1360.49 65.3654 1364.5 66.4591 Q1368.51 67.5124 1372.44 67.5124 Q1377.7 67.5124 1380.54 65.73 Q1383.37 63.9071 1383.37 60.6258 Q1383.37 57.5877 1381.31 55.9673 Q1379.28 54.3469 1372.36 52.8481 L1369.76 52.2405 Q1362.84 50.7821 1359.76 47.7845 Q1356.68 44.7463 1356.68 39.4801 Q1356.68 33.0797 1361.22 29.5959 Q1365.75 26.1121 1374.1 26.1121 Q1378.23 26.1121 1381.87 26.7198 Q1385.52 27.3274 1388.6 28.5427 Z" fill="#000000" fill-rule="nonzero" fill-opacity="1" /><path clip-path="url(#clip790)" d="M1461.92 28.9478 L1461.92 35.9153 Q1458.76 34.1734 1455.56 33.3227 Q1452.4 32.4315 1449.16 32.4315 Q1441.91 32.4315 1437.9 37.0496 Q1433.89 41.6271 1433.89 49.9314 Q1433.89 58.2358 1437.9 62.8538 Q1441.91 67.4314 1449.16 67.4314 Q1452.4 67.4314 1455.56 66.5807 Q1458.76 65.6895 1461.92 63.9476 L1461.92 70.8341 Q1458.8 72.2924 1455.44 73.0216 Q1452.12 73.7508 1448.35 73.7508 Q1438.1 73.7508 1432.07 67.3098 Q1426.03 60.8689 1426.03 49.9314 Q1426.03 38.832 1432.11 32.472 Q1438.22 26.1121 1448.84 26.1121 Q1452.28 26.1121 1455.56 26.8413 Q1458.84 27.5299 1461.92 28.9478 Z" fill="#000000" fill-rule="nonzero" fill-opacity="1" /><path clip-path="url(#clip790)" d="M1513.69 48.0275 L1513.69 51.6733 L1479.42 51.6733 Q1479.91 59.3701 1484.04 63.421 Q1488.21 67.4314 1495.62 67.4314 Q1499.92 67.4314 1503.93 66.3781 Q1507.98 65.3249 1511.95 63.2184 L1511.95 70.267 Q1507.94 71.9684 1503.73 72.8596 Q1499.51 73.7508 1495.18 73.7508 Q1484.32 73.7508 1477.96 67.4314 Q1471.64 61.1119 1471.64 50.3365 Q1471.64 39.1965 1477.64 32.6746 Q1483.67 26.1121 1493.88 26.1121 Q1503.04 26.1121 1508.34 32.0264 Q1513.69 37.9003 1513.69 48.0275 M1506.24 45.84 Q1506.16 39.7232 1502.79 36.0774 Q1499.47 32.4315 1493.96 32.4315 Q1487.72 32.4315 1483.96 35.9558 Q1480.23 39.4801 1479.66 45.8805 L1506.24 45.84 Z" fill="#000000" fill-rule="nonzero" fill-opacity="1" /><path clip-path="url(#clip790)" d="M1525.92 9.54393 L1533.38 9.54393 L1533.38 72.576 L1525.92 72.576 L1525.92 9.54393 Z" fill="#000000" fill-rule="nonzero" fill-opacity="1" /><path clip-path="url(#clip790)" d="M1548.97 9.54393 L1556.43 9.54393 L1556.43 72.576 L1548.97 72.576 L1548.97 9.54393 Z" fill="#000000" fill-rule="nonzero" fill-opacity="1" /><path clip-path="url(#clip790)" d="M1624.24 39.9662 Q1630.11 41.222 1633.4 45.1919 Q1636.72 49.1618 1636.72 54.9951 Q1636.72 63.9476 1630.56 68.8492 Q1624.4 73.7508 1613.06 73.7508 Q1609.25 73.7508 1605.2 72.9811 Q1601.19 72.2519 1596.9 70.7531 L1596.9 62.8538 Q1600.3 64.8388 1604.35 65.8515 Q1608.4 66.8642 1612.82 66.8642 Q1620.51 66.8642 1624.52 63.826 Q1628.57 60.7879 1628.57 54.9951 Q1628.57 49.6479 1624.81 46.6502 Q1621.08 43.612 1614.4 43.612 L1607.35 43.612 L1607.35 36.8875 L1614.72 36.8875 Q1620.76 36.8875 1623.96 34.4975 Q1627.16 32.067 1627.16 27.5299 Q1627.16 22.8714 1623.84 20.4004 Q1620.55 17.8888 1614.4 17.8888 Q1611.03 17.8888 1607.19 18.618 Q1603.34 19.3471 1598.72 20.8865 L1598.72 13.5948 Q1603.38 12.2985 1607.43 11.6504 Q1611.52 11.0023 1615.13 11.0023 Q1624.44 11.0023 1629.87 15.2557 Q1635.3 19.4686 1635.3 26.6793 Q1635.3 31.7024 1632.42 35.1862 Q1629.55 38.6294 1624.24 39.9662 Z" fill="#000000" fill-rule="nonzero" fill-opacity="1" /><path clip-path="url(#clip790)" d="M1652.31 12.096 L1684.44 12.096 L1684.44 18.9825 L1659.81 18.9825 L1659.81 33.8088 Q1661.59 33.2012 1663.37 32.9176 Q1665.15 32.5936 1666.94 32.5936 Q1677.06 32.5936 1682.98 38.1433 Q1688.89 43.6931 1688.89 53.1722 Q1688.89 62.9348 1682.82 68.3631 Q1676.74 73.7508 1665.68 73.7508 Q1661.87 73.7508 1657.9 73.1026 Q1653.97 72.4545 1649.76 71.1582 L1649.76 62.9348 Q1653.41 64.9198 1657.3 65.892 Q1661.18 66.8642 1665.52 66.8642 Q1672.53 66.8642 1676.62 63.1779 Q1680.71 59.4916 1680.71 53.1722 Q1680.71 46.8528 1676.62 43.1664 Q1672.53 39.4801 1665.52 39.4801 Q1662.24 39.4801 1658.96 40.2093 Q1655.72 40.9384 1652.31 42.4778 L1652.31 12.096 Z" fill="#000000" fill-rule="nonzero" fill-opacity="1" /><path clip-path="url(#clip790)" d="M1712.06 65.6895 L1740.62 65.6895 L1740.62 72.576 L1702.22 72.576 L1702.22 65.6895 Q1706.88 60.8689 1714.9 52.7671 Q1722.96 44.6248 1725.03 42.2752 Q1728.96 37.8598 1730.5 34.8216 Q1732.08 31.7429 1732.08 28.7857 Q1732.08 23.9651 1728.67 20.927 Q1725.31 17.8888 1719.88 17.8888 Q1716.03 17.8888 1711.74 19.2256 Q1707.49 20.5624 1702.63 23.2765 L1702.63 15.0127 Q1707.57 13.0277 1711.86 12.015 Q1716.16 11.0023 1719.72 11.0023 Q1729.12 11.0023 1734.71 15.7013 Q1740.3 20.4004 1740.3 28.2591 Q1740.3 31.9859 1738.88 35.3482 Q1737.5 38.6699 1733.82 43.2069 Q1732.8 44.3817 1727.38 50.0125 Q1721.95 55.6027 1712.06 65.6895 Z" fill="#000000" fill-rule="nonzero" fill-opacity="1" /><path clip-path="url(#clip790)" d="M1783.12 27.2059 L1790.57 27.2059 L1790.57 72.576 L1783.12 72.576 L1783.12 27.2059 M1783.12 9.54393 L1790.57 9.54393 L1790.57 18.9825 L1783.12 18.9825 L1783.12 9.54393 Z" fill="#000000" fill-rule="nonzero" fill-opacity="1" /><path clip-path="url(#clip790)" d="M1813.54 14.324 L1813.54 27.2059 L1828.89 27.2059 L1828.89 32.9987 L1813.54 32.9987 L1813.54 57.6282 Q1813.54 63.1779 1815.04 64.7578 Q1816.58 66.3376 1821.24 66.3376 L1828.89 66.3376 L1828.89 72.576 L1821.24 72.576 Q1812.61 72.576 1809.33 69.3758 Q1806.04 66.1351 1806.04 57.6282 L1806.04 32.9987 L1800.58 32.9987 L1800.58 27.2059 L1806.04 27.2059 L1806.04 14.324 L1813.54 14.324 Z" fill="#000000" fill-rule="nonzero" fill-opacity="1" /><path clip-path="url(#clip790)" d="M1877.5 48.0275 L1877.5 51.6733 L1843.23 51.6733 Q1843.72 59.3701 1847.85 63.421 Q1852.02 67.4314 1859.44 67.4314 Q1863.73 67.4314 1867.74 66.3781 Q1871.79 65.3249 1875.76 63.2184 L1875.76 70.267 Q1871.75 71.9684 1867.54 72.8596 Q1863.32 73.7508 1858.99 73.7508 Q1848.13 73.7508 1841.77 67.4314 Q1835.45 61.1119 1835.45 50.3365 Q1835.45 39.1965 1841.45 32.6746 Q1847.49 26.1121 1857.69 26.1121 Q1866.85 26.1121 1872.16 32.0264 Q1877.5 37.9003 1877.5 48.0275 M1870.05 45.84 Q1869.97 39.7232 1866.61 36.0774 Q1863.28 32.4315 1857.78 32.4315 Q1851.54 32.4315 1847.77 35.9558 Q1844.04 39.4801 1843.48 45.8805 L1870.05 45.84 Z" fill="#000000" fill-rule="nonzero" fill-opacity="1" /><path clip-path="url(#clip790)" d="M1916.03 34.1734 Q1914.77 33.4443 1913.27 33.1202 Q1911.81 32.7556 1910.03 32.7556 Q1903.71 32.7556 1900.31 36.8875 Q1896.95 40.9789 1896.95 48.6757 L1896.95 72.576 L1889.45 72.576 L1889.45 27.2059 L1896.95 27.2059 L1896.95 34.2544 Q1899.3 30.1225 1903.06 28.1376 Q1906.83 26.1121 1912.22 26.1121 Q1912.99 26.1121 1913.92 26.2337 Q1914.85 26.3147 1915.99 26.5172 L1916.03 34.1734 Z" fill="#000000" fill-rule="nonzero" fill-opacity="1" /><path clip-path="url(#clip790)" d="M1944.46 49.7694 Q1935.43 49.7694 1931.95 51.8354 Q1928.46 53.9013 1928.46 58.8839 Q1928.46 62.8538 1931.06 65.2034 Q1933.69 67.5124 1938.19 67.5124 Q1944.38 67.5124 1948.11 63.1374 Q1951.88 58.7219 1951.88 51.4303 L1951.88 49.7694 L1944.46 49.7694 M1959.33 46.6907 L1959.33 72.576 L1951.88 72.576 L1951.88 65.6895 Q1949.33 69.8214 1945.52 71.8063 Q1941.71 73.7508 1936.2 73.7508 Q1929.23 73.7508 1925.1 69.8619 Q1921.01 65.9325 1921.01 59.3701 Q1921.01 51.7138 1926.11 47.825 Q1931.26 43.9361 1941.43 43.9361 L1951.88 43.9361 L1951.88 43.2069 Q1951.88 38.0623 1948.47 35.2672 Q1945.11 32.4315 1939 32.4315 Q1935.11 32.4315 1931.42 33.3632 Q1927.73 34.295 1924.33 36.1584 L1924.33 29.2718 Q1928.42 27.692 1932.27 26.9223 Q1936.12 26.1121 1939.77 26.1121 Q1949.61 26.1121 1954.47 31.2163 Q1959.33 36.3204 1959.33 46.6907 Z" fill="#000000" fill-rule="nonzero" fill-opacity="1" /><path clip-path="url(#clip790)" d="M1982.06 14.324 L1982.06 27.2059 L1997.41 27.2059 L1997.41 32.9987 L1982.06 32.9987 L1982.06 57.6282 Q1982.06 63.1779 1983.56 64.7578 Q1985.09 66.3376 1989.75 66.3376 L1997.41 66.3376 L1997.41 72.576 L1989.75 72.576 Q1981.13 72.576 1977.84 69.3758 Q1974.56 66.1351 1974.56 57.6282 L1974.56 32.9987 L1969.09 32.9987 L1969.09 27.2059 L1974.56 27.2059 L1974.56 14.324 L1982.06 14.324 Z" fill="#000000" fill-rule="nonzero" fill-opacity="1" /><path clip-path="url(#clip790)" d="M2007.21 27.2059 L2014.67 27.2059 L2014.67 72.576 L2007.21 72.576 L2007.21 27.2059 M2007.21 9.54393 L2014.67 9.54393 L2014.67 18.9825 L2007.21 18.9825 L2007.21 9.54393 Z" fill="#000000" fill-rule="nonzero" fill-opacity="1" /><path clip-path="url(#clip790)" d="M2047.84 32.4315 Q2041.85 32.4315 2038.36 37.1306 Q2034.88 41.7891 2034.88 49.9314 Q2034.88 58.0738 2038.32 62.7728 Q2041.81 67.4314 2047.84 67.4314 Q2053.8 67.4314 2057.28 62.7323 Q2060.77 58.0333 2060.77 49.9314 Q2060.77 41.8701 2057.28 37.1711 Q2053.8 32.4315 2047.84 32.4315 M2047.84 26.1121 Q2057.57 26.1121 2063.12 32.4315 Q2068.67 38.7509 2068.67 49.9314 Q2068.67 61.0714 2063.12 67.4314 Q2057.57 73.7508 2047.84 73.7508 Q2038.08 73.7508 2032.53 67.4314 Q2027.02 61.0714 2027.02 49.9314 Q2027.02 38.7509 2032.53 32.4315 Q2038.08 26.1121 2047.84 26.1121 Z" fill="#000000" fill-rule="nonzero" fill-opacity="1" /><path clip-path="url(#clip790)" d="M2118.73 45.1919 L2118.73 72.576 L2111.28 72.576 L2111.28 45.4349 Q2111.28 38.994 2108.77 35.7938 Q2106.26 32.5936 2101.23 32.5936 Q2095.2 32.5936 2091.71 36.4419 Q2088.23 40.2903 2088.23 46.9338 L2088.23 72.576 L2080.74 72.576 L2080.74 27.2059 L2088.23 27.2059 L2088.23 34.2544 Q2090.9 30.163 2094.51 28.1376 Q2098.16 26.1121 2102.9 26.1121 Q2110.71 26.1121 2114.72 30.9732 Q2118.73 35.7938 2118.73 45.1919 Z" fill="#000000" fill-rule="nonzero" fill-opacity="1" /><path clip-path="url(#clip790)" d="M2168.07 65.6895 L2196.63 65.6895 L2196.63 72.576 L2158.23 72.576 L2158.23 65.6895 Q2162.89 60.8689 2170.91 52.7671 Q2178.97 44.6248 2181.04 42.2752 Q2184.97 37.8598 2186.51 34.8216 Q2188.09 31.7429 2188.09 28.7857 Q2188.09 23.9651 2184.68 20.927 Q2181.32 17.8888 2175.89 17.8888 Q2172.04 17.8888 2167.75 19.2256 Q2163.5 20.5624 2158.64 23.2765 L2158.64 15.0127 Q2163.58 13.0277 2167.87 12.015 Q2172.17 11.0023 2175.73 11.0023 Q2185.13 11.0023 2190.72 15.7013 Q2196.31 20.4004 2196.31 28.2591 Q2196.31 31.9859 2194.89 35.3482 Q2193.51 38.6699 2189.83 43.2069 Q2188.81 44.3817 2183.39 50.0125 Q2177.96 55.6027 2168.07 65.6895 Z" fill="#000000" fill-rule="nonzero" fill-opacity="1" /><path clip-path="url(#clip790)" d="M2231.31 17.4837 Q2224.99 17.4837 2221.79 23.7221 Q2218.63 29.92 2218.63 42.3968 Q2218.63 54.833 2221.79 61.0714 Q2224.99 67.2693 2231.31 67.2693 Q2237.67 67.2693 2240.83 61.0714 Q2244.03 54.833 2244.03 42.3968 Q2244.03 29.92 2240.83 23.7221 Q2237.67 17.4837 2231.31 17.4837 M2231.31 11.0023 Q2241.48 11.0023 2246.82 19.0636 Q2252.21 27.0843 2252.21 42.3968 Q2252.21 57.6687 2246.82 65.73 Q2241.48 73.7508 2231.31 73.7508 Q2221.14 73.7508 2215.75 65.73 Q2210.41 57.6687 2210.41 42.3968 Q2210.41 27.0843 2215.75 19.0636 Q2221.14 11.0023 2231.31 11.0023 Z" fill="#000000" fill-rule="nonzero" fill-opacity="1" /><polyline clip-path="url(#clip792)" style="stroke:#009af9; stroke-linecap:round; stroke-linejoin:round; stroke-width:4; stroke-opacity:1; fill:none" points="315.545,1386.4 317.525,1382.92 319.505,1352.69 321.484,1337.15 323.464,1309.39 325.444,1307.48 327.424,1305.15 329.404,1303.79 331.384,1303.23 333.364,1292.17 335.343,1284.19 337.323,1277.3 339.303,1267.33 341.283,1266.72 343.263,1250.37 345.243,1247.78 347.223,1246.19 349.202,1244.77 351.182,1244.09 353.162,1241.26 355.142,1241.21 357.122,1239.96 359.102,1234.56 361.082,1233.67 363.061,1233.24 365.041,1231.06 367.021,1229.89 369.001,1229.18 370.981,1228.89 372.961,1227.91 374.941,1227.5 376.92,1227.05 378.9,1225.57 380.88,1225.38 382.86,1224.28 384.84,1222.65 386.82,1221.88 388.8,1216.65 390.779,1216.31 392.759,1209.63 394.739,1209.58 396.719,1209.28 398.699,1206.6 400.679,1205.04 402.659,1204.8 404.638,1204.15 406.618,1201.69 408.598,1197.94 410.578,1195.3 412.558,1191.75 414.538,1190.61 416.517,1190.27 418.497,1188.77 420.477,1187.78 422.457,1187 424.437,1185.55 426.417,1185.14 428.397,1184.73 430.376,1183.71 432.356,1182.91 434.336,1182.15 436.316,1181.44 438.296,1181.27 440.276,1180.96 442.256,1180.85 444.235,1180.38 446.215,1180.24 448.195,1180.17 450.175,1179.75 452.155,1178.89 454.135,1178.76 456.115,1177.91 458.094,1176.97 460.074,1176.01 462.054,1175.17 464.034,1174.55 466.014,1173.7 467.994,1173.66 469.974,1173.6 471.953,1173.34 473.933,1173.22 475.913,1172.62 477.893,1171.87 479.873,1171.7 481.853,1171.03 483.833,1170.43 485.812,1170.22 487.792,1169.56 489.772,1168.98 491.752,1168.71 493.732,1166.76 495.712,1165.39 497.692,1165.05 499.671,1164.5 501.651,1163.89 503.631,1162.42 505.611,1161.57 507.591,1159.14 509.571,1158.96 511.551,1158.38 513.53,1157.57 515.51,1157.45 517.49,1156.87 519.47,1156.32 521.45,1155.56 523.43,1154.87 525.409,1154.31 527.389,1154.21 529.369,1153.89 531.349,1153.76 533.329,1153.41 535.309,1153.32 537.289,1153.27 539.268,1152.41 541.248,1152.39 543.228,1152.33 545.208,1151.84 547.188,1150.91 549.168,1150.7 551.148,1147.53 553.127,1147.32 555.107,1147.11 557.087,1146.78 559.067,1146.19 561.047,1146.1 563.027,1146.08 565.007,1145.94 566.986,1145.45 568.966,1144.3 570.946,1144.22 572.926,1143.96 574.906,1143.57 576.886,1143.43 578.866,1143.08 580.845,1142.99 582.825,1142.77 584.805,1142.49 586.785,1142.48 588.765,1142.35 590.745,1142.05 592.725,1141.99 594.704,1141.92 596.684,1140.92 598.664,1140.45 600.644,1140.42 602.624,1140.24 604.604,1139.77 606.584,1139.61 608.563,1138.62 610.543,1138.35 612.523,1138.25 614.503,1137.4 616.483,1137.27 618.463,1137.21 620.443,1136.15 622.422,1136.04 624.402,1135.85 626.382,1135.31 628.362,1135.07 630.342,1134.56 632.322,1134.3 634.301,1134.19 636.281,1133.88 638.261,1131.74 640.241,1129.77 642.221,1129.44 644.201,1129.29 646.181,1129.27 648.16,1129.01 650.14,1127.78 652.12,1127.53 654.1,1127.47 656.08,1127.43 658.06,1127.39 660.04,1126.75 662.019,1126.7 663.999,1126.17 665.979,1125.98 667.959,1125.71 669.939,1124.12 671.919,1123.12 673.899,1122.89 675.878,1122.83 677.858,1121.65 679.838,1121.42 681.818,1121.25 683.798,1121.24 685.778,1121.21 687.758,1121.17 689.737,1120.99 691.717,1120.99 693.697,1120.28 695.677,1120.16 697.657,1118.37 699.637,1117.64 701.617,1117.32 703.596,1117.23 705.576,1117.03 707.556,1116.84 709.536,1116.77 711.516,1116.51 713.496,1115.91 715.476,1115.8 717.455,1115.62 719.435,1114.87 721.415,1114.81 723.395,1113.81 725.375,1113.08 727.355,1112.75 729.335,1112.28 731.314,1111.33 733.294,1111.26 735.274,1110.39 737.254,1110 739.234,1109.86 741.214,1109.65 743.194,1109.57 745.173,1109.47 747.153,1109.41 749.133,1109.2 751.113,1109.02 753.093,1108.9 755.073,1108.72 757.052,1108.69 759.032,1108.4 761.012,1108.33 762.992,1107.65 764.972,1107.12 766.952,1106.64 768.932,1106.58 770.911,1106.48 772.891,1105.65 774.871,1105.38 776.851,1105.27 778.831,1104.86 780.811,1104.78 782.791,1104.54 784.77,1104.5 786.75,1104.21 788.73,1104.08 790.71,1103.98 792.69,1103.56 794.67,1103.5 796.65,1103.48 798.629,1102.05 800.609,1101.78 802.589,1101.76 804.569,1101.7 806.549,1101.31 808.529,1100.74 810.509,1100.66 812.488,1100.47 814.468,1100.21 816.448,1098.79 818.428,1098.66 820.408,1098.4 822.388,1097.94 824.368,1097.78 826.347,1097.14 828.327,1097 830.307,1096.91 832.287,1096.62 834.267,1096.38 836.247,1096.3 838.227,1096.26 840.206,1095.93 842.186,1095.48 844.166,1094.96 846.146,1094.57 848.126,1094.41 850.106,1094.34 852.086,1094.32 854.065,1093.9 856.045,1093.74 858.025,1093 860.005,1092.95 861.985,1092.7 863.965,1091.85 865.944,1091.61 867.924,1091.27 869.904,1091.21 871.884,1090.01 873.864,1089.76 875.844,1089.75 877.824,1089.47 879.803,1089.39 881.783,1089.39 883.763,1088.87 885.743,1088.7 887.723,1088.62 889.703,1088.56 891.683,1088.13 893.662,1088.05 895.642,1087.86 897.622,1087.65 899.602,1087.62 901.582,1087.27 903.562,1087.11 905.542,1086.77 907.521,1086.75 909.501,1086.66 911.481,1086.46 913.461,1085.93 915.441,1085.9 917.421,1085.85 919.401,1085.84 921.38,1085.76 923.36,1085.27 925.34,1084.88 927.32,1084.74 929.3,1084.65 931.28,1084.42 933.26,1084.18 935.239,1084.16 937.219,1083.65 939.199,1083.37 941.179,1083.31 943.159,1083.23 945.139,1082.97 947.119,1082.89 949.098,1082.69 951.078,1082.48 953.058,1082.22 955.038,1082.04 957.018,1081.87 958.998,1081.24 960.978,1081.16 962.957,1081.14 964.937,1080.87 966.917,1080.76 968.897,1080.73 970.877,1080.67 972.857,1080.58 974.836,1080.45 976.816,1080.29 978.796,1080.03 980.776,1079.99 982.756,1079.9 984.736,1079.79 986.716,1079.62 988.695,1079.57 990.675,1079.45 992.655,1079.27 994.635,1078.63 996.615,1078.17 998.595,1077.96 1000.57,1077.81 1002.55,1077.52 1004.53,1077.31 1006.51,1077.11 1008.49,1076.98 1010.47,1076.96 1012.45,1076.16 1014.43,1076.03 1016.41,1075.85 1018.39,1075.69 1020.37,1075.66 1022.35,1075.62 1024.33,1075.56 1026.31,1075.09 1028.29,1074.98 1030.27,1074.92 1032.25,1074.88 1034.23,1074.6 1036.21,1074.53 1038.19,1074.33 1040.17,1074.21 1042.15,1074.03 1044.13,1073.83 1046.11,1073.31 1048.09,1073.28 1050.07,1072.65 1052.05,1072.48 1054.03,1072.29 1056.01,1071.86 1057.99,1071.45 1059.97,1071.09 1061.95,1071.03 1063.93,1070.81 1065.91,1070.68 1067.89,1070.31 1069.87,1070.28 1071.85,1070.25 1073.83,1069.89 1075.81,1069.71 1077.79,1069.62 1079.77,1069.53 1081.75,1068.57 1083.73,1068.43 1085.71,1068.33 1087.69,1068.29 1089.67,1067.43 1091.65,1067.26 1093.63,1067.14 1095.61,1066.98 1097.59,1066.39 1099.57,1066.31 1101.55,1066.07 1103.53,1065.85 1105.51,1065.58 1107.49,1064.65 1109.47,1064.61 1111.45,1063.67 1113.43,1063.45 1115.41,1063.4 1117.39,1062.81 1119.37,1062.52 1121.35,1062.2 1123.33,1061.95 1125.31,1061.77 1127.29,1061.27 1129.27,1061.23 1131.25,1061.17 1133.22,1061.11 1135.2,1061 1137.18,1060.61 1139.16,1060.23 1141.14,1059.71 1143.12,1059.28 1145.1,1059.01 1147.08,1058.51 1149.06,1058.39 1151.04,1058.39 1153.02,1058.29 1155,1058.23 1156.98,1057.79 1158.96,1057.78 1160.94,1057.52 1162.92,1057.43 1164.9,1057.1 1166.88,1056.84 1168.86,1056.66 1170.84,1056.53 1172.82,1056.53 1174.8,1056.48 1176.78,1056.18 1178.76,1056.04 1180.74,1055.55 1182.72,1055.15 1184.7,1054.31 1186.68,1054.28 1188.66,1054.15 1190.64,1053.99 1192.62,1053.5 1194.6,1053.47 1196.58,1052.81 1198.56,1052.62 1200.54,1052.34 1202.52,1052.06 1204.5,1051.86 1206.48,1051.64 1208.46,1051.46 1210.44,1051.36 1212.42,1050.65 1214.4,1050.64 1216.38,1050.42 1218.36,1050.28 1220.34,1049.83 1222.32,1049.8 1224.3,1049.71 1226.28,1049.17 1228.26,1048.83 1230.24,1048.38 1232.22,1048.22 1234.2,1048.17 1236.18,1048.02 1238.16,1047.64 1240.14,1047.6 1242.12,1046.94 1244.1,1046.78 1246.08,1046.53 1248.06,1046.38 1250.04,1046.24 1252.02,1046.09 1254,1045.91 1255.98,1045.81 1257.96,1045.78 1259.94,1045.63 1261.92,1045.57 1263.9,1045.47 1265.88,1045.38 1267.85,1044.76 1269.83,1044.65 1271.81,1044.6 1273.79,1044.38 1275.77,1044.31 1277.75,1044.24 1279.73,1044.22 1281.71,1043.92 1283.69,1043.73 1285.67,1043.36 1287.65,1043.3 1289.63,1042.9 1291.61,1042.6 1293.59,1042.59 1295.57,1042.36 1297.55,1042.06 1299.53,1041.69 1301.51,1041.68 1303.49,1041.05 1305.47,1040.82 1307.45,1040.33 1309.43,1039.86 1311.41,1039.77 1313.39,1039.55 1315.37,1039.44 1317.35,1039.01 1319.33,1038.97 1321.31,1038.91 1323.29,1038.88 1325.27,1038.82 1327.25,1038.64 1329.23,1038.32 1331.21,1038.13 1333.19,1038.06 1335.17,1038.05 1337.15,1037.46 1339.13,1037.3 1341.11,1037.19 1343.09,1036.84 1345.07,1036.81 1347.05,1036.29 1349.03,1036.19 1351.01,1036.19 1352.99,1035.71 1354.97,1035.67 1356.95,1034.73 1358.93,1034.39 1360.91,1034.26 1362.89,1034.17 1364.87,1034.14 1366.85,1033.98 1368.83,1033.65 1370.81,1033.41 1372.79,1033.27 1374.77,1032.71 1376.75,1032.21 1378.73,1031.55 1380.71,1031.52 1382.69,1031.34 1384.67,1031.13 1386.65,1030.87 1388.63,1030.7 1390.61,1030.44 1392.59,1030.42 1394.57,1030.37 1396.55,1030.19 1398.53,1029.91 1400.51,1028.87 1402.49,1027.2 1404.46,1027.15 1406.44,1026.88 1408.42,1026.79 1410.4,1026.71 1412.38,1026.29 1414.36,1026.14 1416.34,1026.13 1418.32,1025.7 1420.3,1024.92 1422.28,1024.56 1424.26,1023.35 1426.24,1023.19 1428.22,1021.5 1430.2,1021.3 1432.18,1021.16 1434.16,1020.7 1436.14,1020.65 1438.12,1020.27 1440.1,1019.96 1442.08,1019.17 1444.06,1018.55 1446.04,1018.5 1448.02,1018.45 1450,1018.3 1451.98,1018.16 1453.96,1017.59 1455.94,1017.22 1457.92,1017.12 1459.9,1017.1 1461.88,1017.1 1463.86,1017.08 1465.84,1016.71 1467.82,1016.39 1469.8,1015.32 1471.78,1015.24 1473.76,1014.9 1475.74,1014.8 1477.72,1014.75 1479.7,1014.61 1481.68,1013.97 1483.66,1013.86 1485.64,1013.68 1487.62,1013.55 1489.6,1013.36 1491.58,1013.31 1493.56,1012.77 1495.54,1012.76 1497.52,1012.17 1499.5,1012.04 1501.48,1011.64 1503.46,1011.45 1505.44,1010.81 1507.42,1010.36 1509.4,1010.28 1511.38,1010.28 1513.36,1009.67 1515.34,1009.64 1517.32,1008.7 1519.3,1008.18 1521.28,1007.97 1523.26,1007.88 1525.24,1007.67 1527.22,1007.3 1529.2,1006.81 1531.18,1005.99 1533.16,1005.72 1535.14,1005.57 1537.12,1005.29 1539.1,1004.05 1541.07,1004.03 1543.05,1003.96 1545.03,1003.76 1547.01,1003.62 1548.99,1003.39 1550.97,1003.14 1552.95,1002.8 1554.93,1002.66 1556.91,1002.28 1558.89,1002.2 1560.87,1001.51 1562.85,1001.33 1564.83,999.755 1566.81,999.535 1568.79,998.95 1570.77,997.919 1572.75,996.766 1574.73,996.609 1576.71,996.573 1578.69,996.559 1580.67,995.601 1582.65,994.946 1584.63,994.872 1586.61,993.655 1588.59,993.259 1590.57,993.247 1592.55,992.94 1594.53,992.807 1596.51,992.7 1598.49,991.622 1600.47,991.041 1602.45,991.003 1604.43,990.744 1606.41,989.915 1608.39,989.736 1610.37,989.704 1612.35,989.656 1614.33,989.527 1616.31,989.36 1618.29,989.015 1620.27,987.868 1622.25,987.811 1624.23,986.754 1626.21,986.558 1628.19,986.18 1630.17,986.155 1632.15,985.754 1634.13,985.692 1636.11,985.641 1638.09,985.326 1640.07,985.021 1642.05,983.787 1644.03,982.915 1646.01,981.595 1647.99,980.971 1649.97,980.758 1651.95,980.656 1653.93,980.328 1655.91,980.266 1657.89,979.413 1659.87,978.079 1661.85,976.494 1663.83,976.226 1665.81,975.769 1667.79,974.402 1669.77,973.222 1671.75,972.08 1673.73,971.875 1675.71,971.76 1677.68,971.484 1679.66,971.285 1681.64,971.217 1683.62,970.794 1685.6,969.885 1687.58,969.677 1689.56,969.55 1691.54,969.543 1693.52,969.479 1695.5,966.782 1697.48,965.058 1699.46,964.889 1701.44,964.788 1703.42,964.423 1705.4,964.3 1707.38,963.429 1709.36,962.19 1711.34,961.68 1713.32,961.328 1715.3,960.58 1717.28,960.226 1719.26,958.94 1721.24,958.675 1723.22,955.684 1725.2,955.143 1727.18,951.686 1729.16,948.589 1731.14,948.579 1733.12,947.682 1735.1,947.318 1737.08,946.906 1739.06,946.011 1741.04,945.532 1743.02,943.388 1745,943.255 1746.98,942.09 1748.96,940.596 1750.94,938.595 1752.92,934.697 1754.9,931.926 1756.88,931.491 1758.86,929.44 1760.84,929.267 1762.82,928.473 1764.8,927.163 1766.78,925.87 1768.76,924.775 1770.74,924.748 1772.72,922.144 1774.7,917.659 1776.68,915.669 1778.66,912.222 1780.64,909.341 1782.62,905.615 1784.6,901.167 1786.58,887.958 1788.56,886.267 1790.54,878.951 1792.52,859.78 1794.5,827.383 1796.48,814.52 1798.46,714.295 1800.44,592.156 1802.42,587.32 1804.4,578.419 1806.38,576.325 1808.36,575.664 1810.34,569.06 1812.31,553.011 1814.29,543.274 1816.27,535.569 1818.25,532.681 1820.23,528.343 1822.21,524.981 1824.19,523.664 1826.17,515.294 1828.15,472.645 1830.13,470.976 1832.11,465.838 1834.09,465.457 1836.07,465.423 1838.05,464.67 1840.03,462.195 1842.01,451.388 1843.99,448.131 1845.97,446.897 1847.95,446.771 1849.93,446.503 1851.91,442.111 1853.89,441.535 1855.87,438.314 1857.85,436.353 1859.83,434.8 1861.81,429.73 1863.79,427.98 1865.77,427.66 1867.75,426.842 1869.73,426.463 1871.71,419.379 1873.69,417.514 1875.67,415.897 1877.65,412.842 1879.63,408.508 1881.61,406.469 1883.59,404.067 1885.57,403.615 1887.55,403.158 1889.53,403.119 1891.51,401.926 1893.49,401.125 1895.47,400.637 1897.45,399.815 1899.43,399.394 1901.41,399.099 1903.39,394.806 1905.37,393.938 1907.35,392.337 1909.33,389.645 1911.31,388.167 1913.29,387.448 1915.27,387.13 1917.25,386.879 1919.23,386.815 1921.21,386.498 1923.19,385.533 1925.17,382.881 1927.15,381.645 1929.13,375.894 1931.11,375.176 1933.09,374.302 1935.07,373.814 1937.05,373.728 1939.03,373.447 1941.01,372.961 1942.99,371.241 1944.97,371.167 1946.95,370.217 1948.92,369.244 1950.9,368.971 1952.88,368.929 1954.86,368.525 1956.84,366.292 1958.82,363.725 1960.8,363.393 1962.78,361.81 1964.76,360.556 1966.74,360.448 1968.72,358.965 1970.7,358.888 1972.68,358.74 1974.66,358.296 1976.64,357.793 1978.62,357.717 1980.6,356.818 1982.58,353.854 1984.56,352.819 1986.54,352.163 1988.52,350.643 1990.5,350.035 1992.48,348.582 1994.46,347.865 1996.44,347.668 1998.42,346.679 2000.4,345.414 2002.38,343.606 2004.36,343.392 2006.34,341.854 2008.32,341.441 2010.3,339.954 2012.28,338.393 2014.26,337.758 2016.24,335.406 2018.22,334.801 2020.2,334.239 2022.18,332.195 2024.16,332.118 2026.14,329.967 2028.12,329.698 2030.1,328.434 2032.08,328.228 2034.06,327.713 2036.04,327.143 2038.02,327.091 2040,326.733 2041.98,326.208 2043.96,325.219 2045.94,323.542 2047.92,321.244 2049.9,320.804 2051.88,320.398 2053.86,320.08 2055.84,319.765 2057.82,319.068 2059.8,318.667 2061.78,317.698 2063.76,317.386 2065.74,314.606 2067.72,312.001 2069.7,311.491 2071.68,311.329 2073.66,311.104 2075.64,309.887 2077.62,309.835 2079.6,309.242 2081.58,309.078 2083.56,309.015 2085.53,305.778 2087.51,305.156 2089.49,304.335 2091.47,304.188 2093.45,303.632 2095.43,302.136 2097.41,301.768 2099.39,301.583 2101.37,301.176 2103.35,299.436 2105.33,299.201 2107.31,299.103 2109.29,298.924 2111.27,298.57 2113.25,298.026 2115.23,295.836 2117.21,294.783 2119.19,294.472 2121.17,294.185 2123.15,293.554 2125.13,293.472 2127.11,290.685 2129.09,289.368 2131.07,288.829 2133.05,287.773 2135.03,285.274 2137.01,285.194 2138.99,285.139 2140.97,284.351 2142.95,283.803 2144.93,282.754 2146.91,282.438 2148.89,282.14 2150.87,281.486 2152.85,281.272 2154.83,280.637 2156.81,280.021 2158.79,279.038 2160.77,278.952 2162.75,278.734 2164.73,277.65 2166.71,277.147 2168.69,276.577 2170.67,276.294 2172.65,274.886 2174.63,273.461 2176.61,272.785 2178.59,272.616 2180.57,271.749 2182.55,270.368 2184.53,269.928 2186.51,269.063 2188.49,267.346 2190.47,266.685 2192.45,266.121 2194.43,265.713 2196.41,264.386 2198.39,264.027 2200.37,257.772 2202.35,255.254 2204.33,253.144 2206.31,252.826 2208.29,252.794 2210.27,251.075 2212.25,250.805 2214.23,248.731 2216.21,244.921 2218.19,244.26 2220.17,243.516 2222.14,243.245 2224.12,242.331 2226.1,241.995 2228.08,241.914 2230.06,241.557 2232.04,239.682 2234.02,239.663 2236,239.552 2237.98,239.542 2239.96,235.955 2241.94,235.699 2243.92,234.458 2245.9,234.06 2247.88,232.127 2249.86,230.15 2251.84,227.679 2253.82,227.02 2255.8,222.578 2257.78,217.946 2259.76,217.523 2261.74,215.433 2263.72,213.573 2265.7,212.357 2267.68,212.21 2269.66,211.893 2271.64,209.503 2273.62,207.363 2275.6,207.294 2277.58,204.8 2279.56,202.368 2281.54,193.074 2283.52,187.202 2285.5,181.771 2287.48,178.902 2289.46,165.251 2291.44,164.522 2293.42,160.256 "/>
<path clip-path="url(#clip790)" d="M326.094 270.476 L755.354 270.476 L755.354 166.796 L326.094 166.796  Z" fill="#ffffff" fill-rule="evenodd" fill-opacity="1"/>
<polyline clip-path="url(#clip790)" style="stroke:#000000; stroke-linecap:round; stroke-linejoin:round; stroke-width:4; stroke-opacity:1; fill:none" points="326.094,270.476 755.354,270.476 755.354,166.796 326.094,166.796 326.094,270.476 "/>
<polyline clip-path="url(#clip790)" style="stroke:#009af9; stroke-linecap:round; stroke-linejoin:round; stroke-width:4; stroke-opacity:1; fill:none" points="349.389,218.636 489.158,218.636 "/>
<path clip-path="url(#clip790)" d="M534.699 202.49 L534.699 207.05 Q532.037 205.777 529.675 205.152 Q527.314 204.527 525.115 204.527 Q521.296 204.527 519.213 206.008 Q517.152 207.49 517.152 210.221 Q517.152 212.513 518.518 213.694 Q519.907 214.851 523.75 215.569 L526.574 216.147 Q531.805 217.143 534.282 219.666 Q536.782 222.166 536.782 226.379 Q536.782 231.402 533.402 233.994 Q530.046 236.587 523.541 236.587 Q521.088 236.587 518.31 236.031 Q515.555 235.476 512.592 234.388 L512.592 229.573 Q515.439 231.17 518.171 231.981 Q520.902 232.791 523.541 232.791 Q527.546 232.791 529.722 231.217 Q531.898 229.643 531.898 226.726 Q531.898 224.18 530.324 222.744 Q528.773 221.309 525.208 220.592 L522.361 220.036 Q517.129 218.995 514.791 216.772 Q512.453 214.55 512.453 210.592 Q512.453 206.008 515.671 203.37 Q518.912 200.731 524.583 200.731 Q527.013 200.731 529.537 201.171 Q532.06 201.61 534.699 202.49 Z" fill="#000000" fill-rule="nonzero" fill-opacity="1" /><path clip-path="url(#clip790)" d="M543.888 209.99 L548.148 209.99 L548.148 235.916 L543.888 235.916 L543.888 209.99 M543.888 199.897 L548.148 199.897 L548.148 205.291 L543.888 205.291 L543.888 199.897 Z" fill="#000000" fill-rule="nonzero" fill-opacity="1" /><path clip-path="url(#clip790)" d="M577.245 214.967 Q578.842 212.096 581.064 210.731 Q583.286 209.365 586.296 209.365 Q590.346 209.365 592.545 212.212 Q594.745 215.036 594.745 220.268 L594.745 235.916 L590.462 235.916 L590.462 220.407 Q590.462 216.68 589.143 214.874 Q587.823 213.069 585.115 213.069 Q581.805 213.069 579.884 215.268 Q577.962 217.467 577.962 221.263 L577.962 235.916 L573.68 235.916 L573.68 220.407 Q573.68 216.657 572.36 214.874 Q571.041 213.069 568.286 213.069 Q565.022 213.069 563.101 215.291 Q561.18 217.49 561.18 221.263 L561.18 235.916 L556.898 235.916 L556.898 209.99 L561.18 209.99 L561.18 214.018 Q562.638 211.633 564.675 210.499 Q566.712 209.365 569.513 209.365 Q572.337 209.365 574.305 210.8 Q576.296 212.235 577.245 214.967 Z" fill="#000000" fill-rule="nonzero" fill-opacity="1" /><path clip-path="url(#clip790)" d="M603.24 209.99 L607.499 209.99 L607.499 235.916 L603.24 235.916 L603.24 209.99 M603.24 199.897 L607.499 199.897 L607.499 205.291 L603.24 205.291 L603.24 199.897 Z" fill="#000000" fill-rule="nonzero" fill-opacity="1" /><path clip-path="url(#clip790)" d="M616.411 199.897 L620.67 199.897 L620.67 235.916 L616.411 235.916 L616.411 199.897 Z" fill="#000000" fill-rule="nonzero" fill-opacity="1" /><path clip-path="url(#clip790)" d="M641.365 222.883 Q636.203 222.883 634.212 224.064 Q632.221 225.244 632.221 228.092 Q632.221 230.36 633.703 231.703 Q635.207 233.022 637.777 233.022 Q641.318 233.022 643.448 230.522 Q645.601 227.999 645.601 223.832 L645.601 222.883 L641.365 222.883 M649.86 221.124 L649.86 235.916 L645.601 235.916 L645.601 231.981 Q644.142 234.342 641.967 235.476 Q639.791 236.587 636.642 236.587 Q632.661 236.587 630.3 234.365 Q627.962 232.119 627.962 228.369 Q627.962 223.994 630.879 221.772 Q633.818 219.55 639.629 219.55 L645.601 219.55 L645.601 219.133 Q645.601 216.194 643.656 214.596 Q641.735 212.976 638.24 212.976 Q636.017 212.976 633.911 213.508 Q631.805 214.041 629.86 215.106 L629.86 211.17 Q632.198 210.268 634.397 209.828 Q636.596 209.365 638.68 209.365 Q644.304 209.365 647.082 212.282 Q649.86 215.198 649.86 221.124 Z" fill="#000000" fill-rule="nonzero" fill-opacity="1" /><path clip-path="url(#clip790)" d="M673.656 213.971 Q672.939 213.555 672.082 213.37 Q671.249 213.161 670.23 213.161 Q666.619 213.161 664.675 215.522 Q662.753 217.86 662.753 222.258 L662.753 235.916 L658.471 235.916 L658.471 209.99 L662.753 209.99 L662.753 214.018 Q664.096 211.657 666.249 210.522 Q668.402 209.365 671.48 209.365 Q671.92 209.365 672.452 209.434 Q672.985 209.481 673.633 209.596 L673.656 213.971 Z" fill="#000000" fill-rule="nonzero" fill-opacity="1" /><path clip-path="url(#clip790)" d="M678.124 209.99 L682.383 209.99 L682.383 235.916 L678.124 235.916 L678.124 209.99 M678.124 199.897 L682.383 199.897 L682.383 205.291 L678.124 205.291 L678.124 199.897 Z" fill="#000000" fill-rule="nonzero" fill-opacity="1" /><path clip-path="url(#clip790)" d="M695.508 202.629 L695.508 209.99 L704.281 209.99 L704.281 213.3 L695.508 213.3 L695.508 227.374 Q695.508 230.545 696.364 231.448 Q697.244 232.351 699.906 232.351 L704.281 232.351 L704.281 235.916 L699.906 235.916 Q694.975 235.916 693.101 234.087 Q691.226 232.235 691.226 227.374 L691.226 213.3 L688.101 213.3 L688.101 209.99 L691.226 209.99 L691.226 202.629 L695.508 202.629 Z" fill="#000000" fill-rule="nonzero" fill-opacity="1" /><path clip-path="url(#clip790)" d="M720.67 238.323 Q718.864 242.953 717.151 244.365 Q715.438 245.777 712.568 245.777 L709.165 245.777 L709.165 242.212 L711.665 242.212 Q713.424 242.212 714.397 241.379 Q715.369 240.545 716.549 237.443 L717.313 235.499 L706.827 209.99 L711.341 209.99 L719.443 230.268 L727.545 209.99 L732.059 209.99 L720.67 238.323 Z" fill="#000000" fill-rule="nonzero" fill-opacity="1" /></svg>
