<?xml version="1.0" encoding="utf-8"?>
<svg xmlns="http://www.w3.org/2000/svg" xmlns:xlink="http://www.w3.org/1999/xlink" width="600" height="400" viewBox="0 0 2400 1600">
<defs>
  <clipPath id="clip690">
    <rect x="0" y="0" width="2400" height="1600"/>
  </clipPath>
</defs>
<path clip-path="url(#clip690)" d="M0 1600 L2400 1600 L2400 8.88178e-14 L0 8.88178e-14  Z" fill="#ffffff" fill-rule="evenodd" fill-opacity="1"/>
<defs>
  <clipPath id="clip691">
    <rect x="480" y="0" width="1681" height="1600"/>
  </clipPath>
</defs>
<path clip-path="url(#clip690)" d="M257.204 1423.18 L2352.76 1423.18 L2352.76 123.472 L257.204 123.472  Z" fill="#ffffff" fill-rule="evenodd" fill-opacity="1"/>
<defs>
  <clipPath id="clip692">
    <rect x="257" y="123" width="2097" height="1301"/>
  </clipPath>
</defs>
<polyline clip-path="url(#clip692)" style="stroke:#000000; stroke-linecap:round; stroke-linejoin:round; stroke-width:2; stroke-opacity:0.1; fill:none" points="314.533,1423.18 314.533,123.472 "/>
<polyline clip-path="url(#clip692)" style="stroke:#000000; stroke-linecap:round; stroke-linejoin:round; stroke-width:2; stroke-opacity:0.1; fill:none" points="809.262,1423.18 809.262,123.472 "/>
<polyline clip-path="url(#clip692)" style="stroke:#000000; stroke-linecap:round; stroke-linejoin:round; stroke-width:2; stroke-opacity:0.1; fill:none" points="1303.99,1423.18 1303.99,123.472 "/>
<polyline clip-path="url(#clip692)" style="stroke:#000000; stroke-linecap:round; stroke-linejoin:round; stroke-width:2; stroke-opacity:0.1; fill:none" points="1798.72,1423.18 1798.72,123.472 "/>
<polyline clip-path="url(#clip692)" style="stroke:#000000; stroke-linecap:round; stroke-linejoin:round; stroke-width:2; stroke-opacity:0.1; fill:none" points="2293.45,1423.18 2293.45,123.472 "/>
<polyline clip-path="url(#clip690)" style="stroke:#000000; stroke-linecap:round; stroke-linejoin:round; stroke-width:4; stroke-opacity:1; fill:none" points="257.204,1423.18 2352.76,1423.18 "/>
<polyline clip-path="url(#clip690)" style="stroke:#000000; stroke-linecap:round; stroke-linejoin:round; stroke-width:4; stroke-opacity:1; fill:none" points="314.533,1423.18 314.533,1404.28 "/>
<polyline clip-path="url(#clip690)" style="stroke:#000000; stroke-linecap:round; stroke-linejoin:round; stroke-width:4; stroke-opacity:1; fill:none" points="809.262,1423.18 809.262,1404.28 "/>
<polyline clip-path="url(#clip690)" style="stroke:#000000; stroke-linecap:round; stroke-linejoin:round; stroke-width:4; stroke-opacity:1; fill:none" points="1303.99,1423.18 1303.99,1404.28 "/>
<polyline clip-path="url(#clip690)" style="stroke:#000000; stroke-linecap:round; stroke-linejoin:round; stroke-width:4; stroke-opacity:1; fill:none" points="1798.72,1423.18 1798.72,1404.28 "/>
<polyline clip-path="url(#clip690)" style="stroke:#000000; stroke-linecap:round; stroke-linejoin:round; stroke-width:4; stroke-opacity:1; fill:none" points="2293.45,1423.18 2293.45,1404.28 "/>
<path clip-path="url(#clip690)" d="M314.533 1454.1 Q310.922 1454.1 309.093 1457.66 Q307.288 1461.2 307.288 1468.33 Q307.288 1475.44 309.093 1479.01 Q310.922 1482.55 314.533 1482.55 Q318.167 1482.55 319.973 1479.01 Q321.802 1475.44 321.802 1468.33 Q321.802 1461.2 319.973 1457.66 Q318.167 1454.1 314.533 1454.1 M314.533 1450.39 Q320.343 1450.39 323.399 1455 Q326.478 1459.58 326.478 1468.33 Q326.478 1477.06 323.399 1481.67 Q320.343 1486.25 314.533 1486.25 Q308.723 1486.25 305.644 1481.67 Q302.589 1477.06 302.589 1468.33 Q302.589 1459.58 305.644 1455 Q308.723 1450.39 314.533 1450.39 Z" fill="#000000" fill-rule="nonzero" fill-opacity="1" /><path clip-path="url(#clip690)" d="M772.954 1481.64 L789.274 1481.64 L789.274 1485.58 L767.329 1485.58 L767.329 1481.64 Q769.991 1478.89 774.575 1474.26 Q779.181 1469.61 780.362 1468.27 Q782.607 1465.74 783.487 1464.01 Q784.389 1462.25 784.389 1460.56 Q784.389 1457.8 782.445 1456.07 Q780.524 1454.33 777.422 1454.33 Q775.223 1454.33 772.769 1455.09 Q770.338 1455.86 767.561 1457.41 L767.561 1452.69 Q770.385 1451.55 772.838 1450.97 Q775.292 1450.39 777.329 1450.39 Q782.699 1450.39 785.894 1453.08 Q789.088 1455.77 789.088 1460.26 Q789.088 1462.39 788.278 1464.31 Q787.491 1466.2 785.385 1468.8 Q784.806 1469.47 781.704 1472.69 Q778.602 1475.88 772.954 1481.64 Z" fill="#000000" fill-rule="nonzero" fill-opacity="1" /><path clip-path="url(#clip690)" d="M799.135 1451.02 L817.491 1451.02 L817.491 1454.96 L803.417 1454.96 L803.417 1463.43 Q804.435 1463.08 805.454 1462.92 Q806.473 1462.73 807.491 1462.73 Q813.278 1462.73 816.658 1465.9 Q820.037 1469.08 820.037 1474.49 Q820.037 1480.07 816.565 1483.17 Q813.093 1486.25 806.773 1486.25 Q804.598 1486.25 802.329 1485.88 Q800.084 1485.51 797.676 1484.77 L797.676 1480.07 Q799.76 1481.2 801.982 1481.76 Q804.204 1482.32 806.681 1482.32 Q810.685 1482.32 813.023 1480.21 Q815.361 1478.1 815.361 1474.49 Q815.361 1470.88 813.023 1468.77 Q810.685 1466.67 806.681 1466.67 Q804.806 1466.67 802.931 1467.08 Q801.079 1467.5 799.135 1468.38 L799.135 1451.02 Z" fill="#000000" fill-rule="nonzero" fill-opacity="1" /><path clip-path="url(#clip690)" d="M839.25 1454.1 Q835.639 1454.1 833.81 1457.66 Q832.005 1461.2 832.005 1468.33 Q832.005 1475.44 833.81 1479.01 Q835.639 1482.55 839.25 1482.55 Q842.884 1482.55 844.69 1479.01 Q846.519 1475.44 846.519 1468.33 Q846.519 1461.2 844.69 1457.66 Q842.884 1454.1 839.25 1454.1 M839.25 1450.39 Q845.06 1450.39 848.116 1455 Q851.194 1459.58 851.194 1468.33 Q851.194 1477.06 848.116 1481.67 Q845.06 1486.25 839.25 1486.25 Q833.44 1486.25 830.361 1481.67 Q827.306 1477.06 827.306 1468.33 Q827.306 1459.58 830.361 1455 Q833.44 1450.39 839.25 1450.39 Z" fill="#000000" fill-rule="nonzero" fill-opacity="1" /><path clip-path="url(#clip690)" d="M1263.61 1451.02 L1281.97 1451.02 L1281.97 1454.96 L1267.89 1454.96 L1267.89 1463.43 Q1268.91 1463.08 1269.93 1462.92 Q1270.95 1462.73 1271.97 1462.73 Q1277.75 1462.73 1281.13 1465.9 Q1284.51 1469.08 1284.51 1474.49 Q1284.51 1480.07 1281.04 1483.17 Q1277.57 1486.25 1271.25 1486.25 Q1269.07 1486.25 1266.8 1485.88 Q1264.56 1485.51 1262.15 1484.77 L1262.15 1480.07 Q1264.23 1481.2 1266.46 1481.76 Q1268.68 1482.32 1271.16 1482.32 Q1275.16 1482.32 1277.5 1480.21 Q1279.84 1478.1 1279.84 1474.49 Q1279.84 1470.88 1277.5 1468.77 Q1275.16 1466.67 1271.16 1466.67 Q1269.28 1466.67 1267.41 1467.08 Q1265.55 1467.5 1263.61 1468.38 L1263.61 1451.02 Z" fill="#000000" fill-rule="nonzero" fill-opacity="1" /><path clip-path="url(#clip690)" d="M1303.72 1454.1 Q1300.11 1454.1 1298.28 1457.66 Q1296.48 1461.2 1296.48 1468.33 Q1296.48 1475.44 1298.28 1479.01 Q1300.11 1482.55 1303.72 1482.55 Q1307.36 1482.55 1309.16 1479.01 Q1310.99 1475.44 1310.99 1468.33 Q1310.99 1461.2 1309.16 1457.66 Q1307.36 1454.1 1303.72 1454.1 M1303.72 1450.39 Q1309.53 1450.39 1312.59 1455 Q1315.67 1459.58 1315.67 1468.33 Q1315.67 1477.06 1312.59 1481.67 Q1309.53 1486.25 1303.72 1486.25 Q1297.91 1486.25 1294.84 1481.67 Q1291.78 1477.06 1291.78 1468.33 Q1291.78 1459.58 1294.84 1455 Q1297.91 1450.39 1303.72 1450.39 Z" fill="#000000" fill-rule="nonzero" fill-opacity="1" /><path clip-path="url(#clip690)" d="M1333.89 1454.1 Q1330.28 1454.1 1328.45 1457.66 Q1326.64 1461.2 1326.64 1468.33 Q1326.64 1475.44 1328.45 1479.01 Q1330.28 1482.55 1333.89 1482.55 Q1337.52 1482.55 1339.33 1479.01 Q1341.15 1475.44 1341.15 1468.33 Q1341.15 1461.2 1339.33 1457.66 Q1337.52 1454.1 1333.89 1454.1 M1333.89 1450.39 Q1339.7 1450.39 1342.75 1455 Q1345.83 1459.58 1345.83 1468.33 Q1345.83 1477.06 1342.75 1481.67 Q1339.7 1486.25 1333.89 1486.25 Q1328.08 1486.25 1325 1481.67 Q1321.94 1477.06 1321.94 1468.33 Q1321.94 1459.58 1325 1455 Q1328.08 1450.39 1333.89 1450.39 Z" fill="#000000" fill-rule="nonzero" fill-opacity="1" /><path clip-path="url(#clip690)" d="M1756.99 1451.02 L1779.22 1451.02 L1779.22 1453.01 L1766.67 1485.58 L1761.79 1485.58 L1773.59 1454.96 L1756.99 1454.96 L1756.99 1451.02 Z" fill="#000000" fill-rule="nonzero" fill-opacity="1" /><path clip-path="url(#clip690)" d="M1788.38 1451.02 L1806.74 1451.02 L1806.74 1454.96 L1792.67 1454.96 L1792.67 1463.43 Q1793.68 1463.08 1794.7 1462.92 Q1795.72 1462.73 1796.74 1462.73 Q1802.53 1462.73 1805.91 1465.9 Q1809.29 1469.08 1809.29 1474.49 Q1809.29 1480.07 1805.81 1483.17 Q1802.34 1486.25 1796.02 1486.25 Q1793.85 1486.25 1791.58 1485.88 Q1789.33 1485.51 1786.93 1484.77 L1786.93 1480.07 Q1789.01 1481.2 1791.23 1481.76 Q1793.45 1482.32 1795.93 1482.32 Q1799.93 1482.32 1802.27 1480.21 Q1804.61 1478.1 1804.61 1474.49 Q1804.61 1470.88 1802.27 1468.77 Q1799.93 1466.67 1795.93 1466.67 Q1794.05 1466.67 1792.18 1467.08 Q1790.33 1467.5 1788.38 1468.38 L1788.38 1451.02 Z" fill="#000000" fill-rule="nonzero" fill-opacity="1" /><path clip-path="url(#clip690)" d="M1828.5 1454.1 Q1824.89 1454.1 1823.06 1457.66 Q1821.25 1461.2 1821.25 1468.33 Q1821.25 1475.44 1823.06 1479.01 Q1824.89 1482.55 1828.5 1482.55 Q1832.13 1482.55 1833.94 1479.01 Q1835.77 1475.44 1835.77 1468.33 Q1835.77 1461.2 1833.94 1457.66 Q1832.13 1454.1 1828.5 1454.1 M1828.5 1450.39 Q1834.31 1450.39 1837.36 1455 Q1840.44 1459.58 1840.44 1468.33 Q1840.44 1477.06 1837.36 1481.67 Q1834.31 1486.25 1828.5 1486.25 Q1822.69 1486.25 1819.61 1481.67 Q1816.55 1477.06 1816.55 1468.33 Q1816.55 1459.58 1819.61 1455 Q1822.69 1450.39 1828.5 1450.39 Z" fill="#000000" fill-rule="nonzero" fill-opacity="1" /><path clip-path="url(#clip690)" d="M2237.97 1481.64 L2245.61 1481.64 L2245.61 1455.28 L2237.3 1456.95 L2237.3 1452.69 L2245.57 1451.02 L2250.24 1451.02 L2250.24 1481.64 L2257.88 1481.64 L2257.88 1485.58 L2237.97 1485.58 L2237.97 1481.64 Z" fill="#000000" fill-rule="nonzero" fill-opacity="1" /><path clip-path="url(#clip690)" d="M2277.33 1454.1 Q2273.71 1454.1 2271.89 1457.66 Q2270.08 1461.2 2270.08 1468.33 Q2270.08 1475.44 2271.89 1479.01 Q2273.71 1482.55 2277.33 1482.55 Q2280.96 1482.55 2282.77 1479.01 Q2284.59 1475.44 2284.59 1468.33 Q2284.59 1461.2 2282.77 1457.66 Q2280.96 1454.1 2277.33 1454.1 M2277.33 1450.39 Q2283.14 1450.39 2286.19 1455 Q2289.27 1459.58 2289.27 1468.33 Q2289.27 1477.06 2286.19 1481.67 Q2283.14 1486.25 2277.33 1486.25 Q2271.52 1486.25 2268.44 1481.67 Q2265.38 1477.06 2265.38 1468.33 Q2265.38 1459.58 2268.44 1455 Q2271.52 1450.39 2277.33 1450.39 Z" fill="#000000" fill-rule="nonzero" fill-opacity="1" /><path clip-path="url(#clip690)" d="M2307.49 1454.1 Q2303.88 1454.1 2302.05 1457.66 Q2300.24 1461.2 2300.24 1468.33 Q2300.24 1475.44 2302.05 1479.01 Q2303.88 1482.55 2307.49 1482.55 Q2311.12 1482.55 2312.93 1479.01 Q2314.76 1475.44 2314.76 1468.33 Q2314.76 1461.2 2312.93 1457.66 Q2311.12 1454.1 2307.49 1454.1 M2307.49 1450.39 Q2313.3 1450.39 2316.35 1455 Q2319.43 1459.58 2319.43 1468.33 Q2319.43 1477.06 2316.35 1481.67 Q2313.3 1486.25 2307.49 1486.25 Q2301.68 1486.25 2298.6 1481.67 Q2295.54 1477.06 2295.54 1468.33 Q2295.54 1459.58 2298.6 1455 Q2301.68 1450.39 2307.49 1450.39 Z" fill="#000000" fill-rule="nonzero" fill-opacity="1" /><path clip-path="url(#clip690)" d="M2337.65 1454.1 Q2334.04 1454.1 2332.21 1457.66 Q2330.4 1461.2 2330.4 1468.33 Q2330.4 1475.44 2332.21 1479.01 Q2334.04 1482.55 2337.65 1482.55 Q2341.28 1482.55 2343.09 1479.01 Q2344.92 1475.44 2344.92 1468.33 Q2344.92 1461.2 2343.09 1457.66 Q2341.28 1454.1 2337.65 1454.1 M2337.65 1450.39 Q2343.46 1450.39 2346.51 1455 Q2349.59 1459.58 2349.59 1468.33 Q2349.59 1477.06 2346.51 1481.67 Q2343.46 1486.25 2337.65 1486.25 Q2331.84 1486.25 2328.76 1481.67 Q2325.7 1477.06 2325.7 1468.33 Q2325.7 1459.58 2328.76 1455 Q2331.84 1450.39 2337.65 1450.39 Z" fill="#000000" fill-rule="nonzero" fill-opacity="1" /><path clip-path="url(#clip690)" d="M1268.82 1524.18 L1268.82 1530.96 Q1265.58 1527.94 1261.88 1526.44 Q1258.22 1524.95 1254.09 1524.95 Q1245.94 1524.95 1241.61 1529.95 Q1237.28 1534.91 1237.28 1544.33 Q1237.28 1553.72 1241.61 1558.72 Q1245.94 1563.68 1254.09 1563.68 Q1258.22 1563.68 1261.88 1562.19 Q1265.58 1560.69 1268.82 1557.67 L1268.82 1564.38 Q1265.45 1566.68 1261.66 1567.82 Q1257.91 1568.97 1253.7 1568.97 Q1242.91 1568.97 1236.71 1562.38 Q1230.5 1555.76 1230.5 1544.33 Q1230.5 1532.87 1236.71 1526.28 Q1242.91 1519.66 1253.7 1519.66 Q1257.97 1519.66 1261.72 1520.81 Q1265.51 1521.92 1268.82 1524.18 Z" fill="#000000" fill-rule="nonzero" fill-opacity="1" /><path clip-path="url(#clip690)" d="M1308.99 1548.76 L1308.99 1551.62 L1282.06 1551.62 Q1282.45 1557.67 1285.69 1560.85 Q1288.97 1564 1294.79 1564 Q1298.17 1564 1301.32 1563.17 Q1304.5 1562.35 1307.62 1560.69 L1307.62 1566.23 Q1304.47 1567.57 1301.16 1568.27 Q1297.85 1568.97 1294.44 1568.97 Q1285.91 1568.97 1280.92 1564 Q1275.95 1559.04 1275.95 1550.57 Q1275.95 1541.82 1280.66 1536.69 Q1285.41 1531.54 1293.43 1531.54 Q1300.62 1531.54 1304.79 1536.18 Q1308.99 1540.8 1308.99 1548.76 M1303.13 1547.04 Q1303.07 1542.23 1300.43 1539.37 Q1297.82 1536.5 1293.49 1536.5 Q1288.59 1536.5 1285.63 1539.27 Q1282.7 1542.04 1282.25 1547.07 L1303.13 1547.04 Z" fill="#000000" fill-rule="nonzero" fill-opacity="1" /><path clip-path="url(#clip690)" d="M1318.6 1518.52 L1324.46 1518.52 L1324.46 1568.04 L1318.6 1568.04 L1318.6 1518.52 Z" fill="#000000" fill-rule="nonzero" fill-opacity="1" /><path clip-path="url(#clip690)" d="M1336.71 1518.52 L1342.57 1518.52 L1342.57 1568.04 L1336.71 1568.04 L1336.71 1518.52 Z" fill="#000000" fill-rule="nonzero" fill-opacity="1" /><path clip-path="url(#clip690)" d="M1377.55 1533.45 L1377.55 1538.98 Q1375.07 1537.71 1372.39 1537.07 Q1369.72 1536.44 1366.85 1536.44 Q1362.49 1536.44 1360.3 1537.77 Q1358.13 1539.11 1358.13 1541.79 Q1358.13 1543.82 1359.69 1545 Q1361.25 1546.15 1365.96 1547.2 L1367.97 1547.64 Q1374.21 1548.98 1376.82 1551.43 Q1379.46 1553.85 1379.46 1558.21 Q1379.46 1563.17 1375.51 1566.07 Q1371.6 1568.97 1364.72 1568.97 Q1361.86 1568.97 1358.74 1568.39 Q1355.65 1567.85 1352.21 1566.74 L1352.21 1560.69 Q1355.46 1562.38 1358.61 1563.24 Q1361.76 1564.07 1364.85 1564.07 Q1368.99 1564.07 1371.22 1562.66 Q1373.44 1561.23 1373.44 1558.65 Q1373.44 1556.27 1371.82 1554.99 Q1370.23 1553.72 1364.79 1552.54 L1362.75 1552.07 Q1357.31 1550.92 1354.89 1548.56 Q1352.47 1546.18 1352.47 1542.04 Q1352.47 1537.01 1356.03 1534.27 Q1359.6 1531.54 1366.15 1531.54 Q1369.4 1531.54 1372.27 1532.01 Q1375.13 1532.49 1377.55 1533.45 Z" fill="#000000" fill-rule="nonzero" fill-opacity="1" /><polyline clip-path="url(#clip692)" style="stroke:#000000; stroke-linecap:round; stroke-linejoin:round; stroke-width:2; stroke-opacity:0.1; fill:none" points="257.204,1400.83 2352.76,1400.83 "/>
<polyline clip-path="url(#clip692)" style="stroke:#000000; stroke-linecap:round; stroke-linejoin:round; stroke-width:2; stroke-opacity:0.1; fill:none" points="257.204,1080.92 2352.76,1080.92 "/>
<polyline clip-path="url(#clip692)" style="stroke:#000000; stroke-linecap:round; stroke-linejoin:round; stroke-width:2; stroke-opacity:0.1; fill:none" points="257.204,761.012 2352.76,761.012 "/>
<polyline clip-path="url(#clip692)" style="stroke:#000000; stroke-linecap:round; stroke-linejoin:round; stroke-width:2; stroke-opacity:0.1; fill:none" points="257.204,441.105 2352.76,441.105 "/>
<polyline clip-path="url(#clip690)" style="stroke:#000000; stroke-linecap:round; stroke-linejoin:round; stroke-width:4; stroke-opacity:1; fill:none" points="257.204,1423.18 257.204,123.472 "/>
<polyline clip-path="url(#clip690)" style="stroke:#000000; stroke-linecap:round; stroke-linejoin:round; stroke-width:4; stroke-opacity:1; fill:none" points="257.204,1400.83 276.102,1400.83 "/>
<polyline clip-path="url(#clip690)" style="stroke:#000000; stroke-linecap:round; stroke-linejoin:round; stroke-width:4; stroke-opacity:1; fill:none" points="257.204,1080.92 276.102,1080.92 "/>
<polyline clip-path="url(#clip690)" style="stroke:#000000; stroke-linecap:round; stroke-linejoin:round; stroke-width:4; stroke-opacity:1; fill:none" points="257.204,761.012 276.102,761.012 "/>
<polyline clip-path="url(#clip690)" style="stroke:#000000; stroke-linecap:round; stroke-linejoin:round; stroke-width:4; stroke-opacity:1; fill:none" points="257.204,441.105 276.102,441.105 "/>
<path clip-path="url(#clip690)" d="M114.26 1401.28 L143.936 1401.28 L143.936 1405.21 L114.26 1405.21 L114.26 1401.28 Z" fill="#000000" fill-rule="nonzero" fill-opacity="1" /><path clip-path="url(#clip690)" d="M154.839 1414.17 L162.477 1414.17 L162.477 1387.8 L154.167 1389.47 L154.167 1385.21 L162.431 1383.55 L167.107 1383.55 L167.107 1414.17 L174.746 1414.17 L174.746 1418.11 L154.839 1418.11 L154.839 1414.17 Z" fill="#000000" fill-rule="nonzero" fill-opacity="1" /><path clip-path="url(#clip690)" d="M184.19 1412.23 L189.075 1412.23 L189.075 1418.11 L184.19 1418.11 L184.19 1412.23 Z" fill="#000000" fill-rule="nonzero" fill-opacity="1" /><path clip-path="url(#clip690)" d="M209.26 1386.62 Q205.649 1386.62 203.82 1390.19 Q202.014 1393.73 202.014 1400.86 Q202.014 1407.97 203.82 1411.53 Q205.649 1415.07 209.26 1415.07 Q212.894 1415.07 214.699 1411.53 Q216.528 1407.97 216.528 1400.86 Q216.528 1393.73 214.699 1390.19 Q212.894 1386.62 209.26 1386.62 M209.26 1382.92 Q215.07 1382.92 218.125 1387.53 Q221.204 1392.11 221.204 1400.86 Q221.204 1409.59 218.125 1414.19 Q215.07 1418.78 209.26 1418.78 Q203.449 1418.78 200.371 1414.19 Q197.315 1409.59 197.315 1400.86 Q197.315 1392.11 200.371 1387.53 Q203.449 1382.92 209.26 1382.92 Z" fill="#000000" fill-rule="nonzero" fill-opacity="1" /><path clip-path="url(#clip690)" d="M115.256 1081.37 L144.931 1081.37 L144.931 1085.31 L115.256 1085.31 L115.256 1081.37 Z" fill="#000000" fill-rule="nonzero" fill-opacity="1" /><path clip-path="url(#clip690)" d="M165.024 1066.72 Q161.413 1066.72 159.584 1070.28 Q157.778 1073.82 157.778 1080.95 Q157.778 1088.06 159.584 1091.62 Q161.413 1095.17 165.024 1095.17 Q168.658 1095.17 170.464 1091.62 Q172.292 1088.06 172.292 1080.95 Q172.292 1073.82 170.464 1070.28 Q168.658 1066.72 165.024 1066.72 M165.024 1063.01 Q170.834 1063.01 173.889 1067.62 Q176.968 1072.2 176.968 1080.95 Q176.968 1089.68 173.889 1094.29 Q170.834 1098.87 165.024 1098.87 Q159.214 1098.87 156.135 1094.29 Q153.079 1089.68 153.079 1080.95 Q153.079 1072.2 156.135 1067.62 Q159.214 1063.01 165.024 1063.01 Z" fill="#000000" fill-rule="nonzero" fill-opacity="1" /><path clip-path="url(#clip690)" d="M185.186 1092.32 L190.07 1092.32 L190.07 1098.2 L185.186 1098.2 L185.186 1092.32 Z" fill="#000000" fill-rule="nonzero" fill-opacity="1" /><path clip-path="url(#clip690)" d="M200.301 1063.64 L218.658 1063.64 L218.658 1067.57 L204.584 1067.57 L204.584 1076.05 Q205.602 1075.7 206.621 1075.54 Q207.639 1075.35 208.658 1075.35 Q214.445 1075.35 217.824 1078.52 Q221.204 1081.69 221.204 1087.11 Q221.204 1092.69 217.732 1095.79 Q214.26 1098.87 207.94 1098.87 Q205.764 1098.87 203.496 1098.5 Q201.25 1098.13 198.843 1097.39 L198.843 1092.69 Q200.926 1093.82 203.149 1094.38 Q205.371 1094.93 207.848 1094.93 Q211.852 1094.93 214.19 1092.83 Q216.528 1090.72 216.528 1087.11 Q216.528 1083.5 214.19 1081.39 Q211.852 1079.29 207.848 1079.29 Q205.973 1079.29 204.098 1079.7 Q202.246 1080.12 200.301 1081 L200.301 1063.64 Z" fill="#000000" fill-rule="nonzero" fill-opacity="1" /><path clip-path="url(#clip690)" d="M164.028 746.81 Q160.417 746.81 158.589 750.375 Q156.783 753.917 156.783 761.046 Q156.783 768.153 158.589 771.718 Q160.417 775.259 164.028 775.259 Q167.663 775.259 169.468 771.718 Q171.297 768.153 171.297 761.046 Q171.297 753.917 169.468 750.375 Q167.663 746.81 164.028 746.81 M164.028 743.107 Q169.839 743.107 172.894 747.713 Q175.973 752.296 175.973 761.046 Q175.973 769.773 172.894 774.38 Q169.839 778.963 164.028 778.963 Q158.218 778.963 155.14 774.38 Q152.084 769.773 152.084 761.046 Q152.084 752.296 155.14 747.713 Q158.218 743.107 164.028 743.107 Z" fill="#000000" fill-rule="nonzero" fill-opacity="1" /><path clip-path="url(#clip690)" d="M184.19 772.412 L189.075 772.412 L189.075 778.292 L184.19 778.292 L184.19 772.412 Z" fill="#000000" fill-rule="nonzero" fill-opacity="1" /><path clip-path="url(#clip690)" d="M209.26 746.81 Q205.649 746.81 203.82 750.375 Q202.014 753.917 202.014 761.046 Q202.014 768.153 203.82 771.718 Q205.649 775.259 209.26 775.259 Q212.894 775.259 214.699 771.718 Q216.528 768.153 216.528 761.046 Q216.528 753.917 214.699 750.375 Q212.894 746.81 209.26 746.81 M209.26 743.107 Q215.07 743.107 218.125 747.713 Q221.204 752.296 221.204 761.046 Q221.204 769.773 218.125 774.38 Q215.07 778.963 209.26 778.963 Q203.449 778.963 200.371 774.38 Q197.315 769.773 197.315 761.046 Q197.315 752.296 200.371 747.713 Q203.449 743.107 209.26 743.107 Z" fill="#000000" fill-rule="nonzero" fill-opacity="1" /><path clip-path="url(#clip690)" d="M165.024 426.903 Q161.413 426.903 159.584 430.468 Q157.778 434.01 157.778 441.139 Q157.778 448.246 159.584 451.811 Q161.413 455.352 165.024 455.352 Q168.658 455.352 170.464 451.811 Q172.292 448.246 172.292 441.139 Q172.292 434.01 170.464 430.468 Q168.658 426.903 165.024 426.903 M165.024 423.2 Q170.834 423.2 173.889 427.806 Q176.968 432.389 176.968 441.139 Q176.968 449.866 173.889 454.473 Q170.834 459.056 165.024 459.056 Q159.214 459.056 156.135 454.473 Q153.079 449.866 153.079 441.139 Q153.079 432.389 156.135 427.806 Q159.214 423.2 165.024 423.2 Z" fill="#000000" fill-rule="nonzero" fill-opacity="1" /><path clip-path="url(#clip690)" d="M185.186 452.505 L190.07 452.505 L190.07 458.385 L185.186 458.385 L185.186 452.505 Z" fill="#000000" fill-rule="nonzero" fill-opacity="1" /><path clip-path="url(#clip690)" d="M200.301 423.825 L218.658 423.825 L218.658 427.76 L204.584 427.76 L204.584 436.232 Q205.602 435.885 206.621 435.723 Q207.639 435.538 208.658 435.538 Q214.445 435.538 217.824 438.709 Q221.204 441.88 221.204 447.297 Q221.204 452.875 217.732 455.977 Q214.26 459.056 207.94 459.056 Q205.764 459.056 203.496 458.686 Q201.25 458.315 198.843 457.575 L198.843 452.875 Q200.926 454.01 203.149 454.565 Q205.371 455.121 207.848 455.121 Q211.852 455.121 214.19 453.014 Q216.528 450.908 216.528 447.297 Q216.528 443.686 214.19 441.579 Q211.852 439.473 207.848 439.473 Q205.973 439.473 204.098 439.889 Q202.246 440.306 200.301 441.186 L200.301 423.825 Z" fill="#000000" fill-rule="nonzero" fill-opacity="1" /><path clip-path="url(#clip690)" d="M18.0438 893.717 L24.314 893.717 Q22.5634 897.378 21.704 900.624 Q20.8447 903.871 20.8447 906.894 Q20.8447 912.146 22.8817 915.011 Q24.9187 917.843 28.6745 917.843 Q31.8255 917.843 33.4488 915.966 Q35.0402 914.056 36.0269 908.772 L36.8226 904.889 Q38.1912 897.696 41.6605 894.29 Q45.098 890.853 50.8908 890.853 Q57.7976 890.853 61.3624 895.5 Q64.9272 900.115 64.9272 909.059 Q64.9272 912.433 64.1633 916.252 Q63.3994 920.04 61.9035 924.114 L55.2831 924.114 Q57.4793 920.199 58.5933 916.443 Q59.7073 912.687 59.7073 909.059 Q59.7073 903.552 57.543 900.561 Q55.3786 897.569 51.3682 897.569 Q47.8671 897.569 45.8937 899.733 Q43.9204 901.866 42.9337 906.767 L42.1698 910.682 Q40.7375 917.875 37.682 921.09 Q34.6264 924.305 29.1837 924.305 Q22.8817 924.305 19.2532 919.88 Q15.6248 915.424 15.6248 907.626 Q15.6248 904.284 16.2295 900.815 Q16.8343 897.346 18.0438 893.717 Z" fill="#000000" fill-rule="nonzero" fill-opacity="1" /><path clip-path="url(#clip690)" d="M28.3562 881.081 L28.3562 875.225 L64.0042 875.225 L64.0042 881.081 L28.3562 881.081 M14.479 881.081 L14.479 875.225 L21.895 875.225 L21.895 881.081 L14.479 881.081 Z" fill="#000000" fill-rule="nonzero" fill-opacity="1" /><path clip-path="url(#clip690)" d="M35.1993 835.217 Q31.2526 833.02 29.3747 829.965 Q27.4968 826.909 27.4968 822.772 Q27.4968 817.202 31.4117 814.178 Q35.2948 811.154 42.4881 811.154 L64.0042 811.154 L64.0042 817.042 L42.679 817.042 Q37.5546 817.042 35.072 818.857 Q32.5894 820.671 32.5894 824.395 Q32.5894 828.946 35.6131 831.588 Q38.6368 834.23 43.8567 834.23 L64.0042 834.23 L64.0042 840.118 L42.679 840.118 Q37.5228 840.118 35.072 841.932 Q32.5894 843.747 32.5894 847.534 Q32.5894 852.022 35.6449 854.664 Q38.6686 857.306 43.8567 857.306 L64.0042 857.306 L64.0042 863.194 L28.3562 863.194 L28.3562 857.306 L33.8944 857.306 Q30.616 855.3 29.0564 852.499 Q27.4968 849.699 27.4968 845.847 Q27.4968 841.964 29.4702 839.259 Q31.4436 836.522 35.1993 835.217 Z" fill="#000000" fill-rule="nonzero" fill-opacity="1" /><path clip-path="url(#clip690)" d="M28.3562 799.473 L28.3562 793.617 L64.0042 793.617 L64.0042 799.473 L28.3562 799.473 M14.479 799.473 L14.479 793.617 L21.895 793.617 L21.895 799.473 L14.479 799.473 Z" fill="#000000" fill-rule="nonzero" fill-opacity="1" /><path clip-path="url(#clip690)" d="M14.479 781.363 L14.479 775.506 L64.0042 775.506 L64.0042 781.363 L14.479 781.363 Z" fill="#000000" fill-rule="nonzero" fill-opacity="1" /><path clip-path="url(#clip690)" d="M46.0847 747.052 Q46.0847 754.149 47.7079 756.887 Q49.3312 759.624 53.2461 759.624 Q56.3653 759.624 58.2114 757.587 Q60.0256 755.518 60.0256 751.985 Q60.0256 747.115 56.5881 744.187 Q53.1188 741.227 47.3897 741.227 L46.0847 741.227 L46.0847 747.052 M43.6657 735.37 L64.0042 735.37 L64.0042 741.227 L58.5933 741.227 Q61.8398 743.232 63.3994 746.224 Q64.9272 749.216 64.9272 753.545 Q64.9272 759.019 61.8716 762.266 Q58.7843 765.48 53.6281 765.48 Q47.6125 765.48 44.5569 761.47 Q41.5014 757.428 41.5014 749.439 L41.5014 741.227 L40.9285 741.227 Q36.8862 741.227 34.6901 743.901 Q32.4621 746.542 32.4621 751.348 Q32.4621 754.404 33.1941 757.3 Q33.9262 760.197 35.3903 762.87 L29.9795 762.87 Q28.7381 759.656 28.1334 756.632 Q27.4968 753.608 27.4968 750.744 Q27.4968 743.009 31.5072 739.19 Q35.5176 735.37 43.6657 735.37 Z" fill="#000000" fill-rule="nonzero" fill-opacity="1" /><path clip-path="url(#clip690)" d="M33.8307 702.651 Q33.2578 703.637 33.0032 704.815 Q32.7167 705.961 32.7167 707.361 Q32.7167 712.327 35.9632 715 Q39.1779 717.642 45.2253 717.642 L64.0042 717.642 L64.0042 723.53 L28.3562 723.53 L28.3562 717.642 L33.8944 717.642 Q30.6479 715.796 29.0883 712.836 Q27.4968 709.876 27.4968 705.643 Q27.4968 705.038 27.5923 704.306 Q27.656 703.574 27.8151 702.683 L33.8307 702.651 Z" fill="#000000" fill-rule="nonzero" fill-opacity="1" /><path clip-path="url(#clip690)" d="M28.3562 696.508 L28.3562 690.651 L64.0042 690.651 L64.0042 696.508 L28.3562 696.508 M14.479 696.508 L14.479 690.651 L21.895 690.651 L21.895 696.508 L14.479 696.508 Z" fill="#000000" fill-rule="nonzero" fill-opacity="1" /><path clip-path="url(#clip690)" d="M18.2347 672.605 L28.3562 672.605 L28.3562 660.542 L32.9077 660.542 L32.9077 672.605 L52.2594 672.605 Q56.6199 672.605 57.8613 671.427 Q59.1026 670.217 59.1026 666.557 L59.1026 660.542 L64.0042 660.542 L64.0042 666.557 Q64.0042 673.337 61.4897 675.915 Q58.9434 678.493 52.2594 678.493 L32.9077 678.493 L32.9077 682.79 L28.3562 682.79 L28.3562 678.493 L18.2347 678.493 L18.2347 672.605 Z" fill="#000000" fill-rule="nonzero" fill-opacity="1" /><path clip-path="url(#clip690)" d="M67.3143 638.007 Q73.68 640.49 75.6216 642.845 Q77.5631 645.2 77.5631 649.147 L77.5631 653.826 L72.6615 653.826 L72.6615 650.388 Q72.6615 647.969 71.5157 646.633 Q70.3699 645.296 66.1048 643.672 L63.4312 642.622 L28.3562 657.04 L28.3562 650.834 L56.238 639.694 L28.3562 628.554 L28.3562 622.347 L67.3143 638.007 Z" fill="#000000" fill-rule="nonzero" fill-opacity="1" /><path clip-path="url(#clip690)" d="M423.442 14.0809 L423.442 22.0612 Q418.784 19.8332 414.652 18.7395 Q410.52 17.6457 406.672 17.6457 Q399.988 17.6457 396.342 20.2383 Q392.737 22.8309 392.737 27.611 Q392.737 31.6214 395.127 33.6873 Q397.557 35.7128 404.282 36.9686 L409.224 37.9813 Q418.379 39.7232 422.713 44.1387 Q427.088 48.5136 427.088 55.8863 Q427.088 64.6767 421.174 69.2137 Q415.3 73.7508 403.917 73.7508 Q399.623 73.7508 394.762 72.7785 Q389.941 71.8063 384.756 69.9024 L384.756 61.4765 Q389.739 64.2716 394.519 65.6895 Q399.299 67.1073 403.917 67.1073 Q410.925 67.1073 414.733 64.3527 Q418.541 61.598 418.541 56.4939 Q418.541 52.0379 415.786 49.5264 Q413.072 47.0148 406.834 45.759 L401.851 44.7868 Q392.696 42.9639 388.605 39.075 Q384.513 35.1862 384.513 28.2591 Q384.513 20.2383 390.144 15.6203 Q395.815 11.0023 405.74 11.0023 Q409.993 11.0023 414.409 11.7719 Q418.824 12.5416 423.442 14.0809 Z" fill="#000000" fill-rule="nonzero" fill-opacity="1" /><path clip-path="url(#clip690)" d="M457.105 32.4315 Q451.11 32.4315 447.626 37.1306 Q444.143 41.7891 444.143 49.9314 Q444.143 58.0738 447.586 62.7728 Q451.07 67.4314 457.105 67.4314 Q463.06 67.4314 466.544 62.7323 Q470.028 58.0333 470.028 49.9314 Q470.028 41.8701 466.544 37.1711 Q463.06 32.4315 457.105 32.4315 M457.105 26.1121 Q466.828 26.1121 472.377 32.4315 Q477.927 38.7509 477.927 49.9314 Q477.927 61.0714 472.377 67.4314 Q466.828 73.7508 457.105 73.7508 Q447.343 73.7508 441.793 67.4314 Q436.284 61.0714 436.284 49.9314 Q436.284 38.7509 441.793 32.4315 Q447.343 26.1121 457.105 26.1121 Z" fill="#000000" fill-rule="nonzero" fill-opacity="1" /><path clip-path="url(#clip690)" d="M516.573 34.1734 Q515.317 33.4443 513.818 33.1202 Q512.36 32.7556 510.577 32.7556 Q504.258 32.7556 500.855 36.8875 Q497.493 40.9789 497.493 48.6757 L497.493 72.576 L489.999 72.576 L489.999 27.2059 L497.493 27.2059 L497.493 34.2544 Q499.842 30.1225 503.61 28.1376 Q507.377 26.1121 512.765 26.1121 Q513.535 26.1121 514.466 26.2337 Q515.398 26.3147 516.532 26.5172 L516.573 34.1734 Z" fill="#000000" fill-rule="nonzero" fill-opacity="1" /><path clip-path="url(#clip690)" d="M531.764 14.324 L531.764 27.2059 L547.117 27.2059 L547.117 32.9987 L531.764 32.9987 L531.764 57.6282 Q531.764 63.1779 533.262 64.7578 Q534.802 66.3376 539.46 66.3376 L547.117 66.3376 L547.117 72.576 L539.46 72.576 Q530.832 72.576 527.551 69.3758 Q524.269 66.1351 524.269 57.6282 L524.269 32.9987 L518.801 32.9987 L518.801 27.2059 L524.269 27.2059 L524.269 14.324 L531.764 14.324 Z" fill="#000000" fill-rule="nonzero" fill-opacity="1" /><path clip-path="url(#clip690)" d="M595.727 48.0275 L595.727 51.6733 L561.457 51.6733 Q561.943 59.3701 566.075 63.421 Q570.247 67.4314 577.66 67.4314 Q581.954 67.4314 585.965 66.3781 Q590.016 65.3249 593.986 63.2184 L593.986 70.267 Q589.975 71.9684 585.762 72.8596 Q581.549 73.7508 577.215 73.7508 Q566.358 73.7508 559.998 67.4314 Q553.679 61.1119 553.679 50.3365 Q553.679 39.1965 559.674 32.6746 Q565.71 26.1121 575.918 26.1121 Q585.074 26.1121 590.38 32.0264 Q595.727 37.9003 595.727 48.0275 M588.274 45.84 Q588.193 39.7232 584.83 36.0774 Q581.509 32.4315 575.999 32.4315 Q569.761 32.4315 565.994 35.9558 Q562.267 39.4801 561.7 45.8805 L588.274 45.84 Z" fill="#000000" fill-rule="nonzero" fill-opacity="1" /><path clip-path="url(#clip690)" d="M637.816 34.0924 L637.816 9.54393 L645.27 9.54393 L645.27 72.576 L637.816 72.576 L637.816 65.7705 Q635.467 69.8214 631.861 71.8063 Q628.297 73.7508 623.274 73.7508 Q615.05 73.7508 609.865 67.1883 Q604.72 60.6258 604.72 49.9314 Q604.72 39.2371 609.865 32.6746 Q615.05 26.1121 623.274 26.1121 Q628.297 26.1121 631.861 28.0971 Q635.467 30.0415 637.816 34.0924 M612.417 49.9314 Q612.417 58.1548 615.779 62.8538 Q619.182 67.5124 625.096 67.5124 Q631.011 67.5124 634.414 62.8538 Q637.816 58.1548 637.816 49.9314 Q637.816 41.7081 634.414 37.0496 Q631.011 32.3505 625.096 32.3505 Q619.182 32.3505 615.779 37.0496 Q612.417 41.7081 612.417 49.9314 Z" fill="#000000" fill-rule="nonzero" fill-opacity="1" /><path clip-path="url(#clip690)" d="M719.645 28.9478 L719.645 35.9153 Q716.485 34.1734 713.285 33.3227 Q710.125 32.4315 706.884 32.4315 Q699.633 32.4315 695.623 37.0496 Q691.612 41.6271 691.612 49.9314 Q691.612 58.2358 695.623 62.8538 Q699.633 67.4314 706.884 67.4314 Q710.125 67.4314 713.285 66.5807 Q716.485 65.6895 719.645 63.9476 L719.645 70.8341 Q716.525 72.2924 713.163 73.0216 Q709.841 73.7508 706.074 73.7508 Q695.825 73.7508 689.789 67.3098 Q683.754 60.8689 683.754 49.9314 Q683.754 38.832 689.83 32.472 Q695.947 26.1121 706.56 26.1121 Q710.003 26.1121 713.285 26.8413 Q716.566 27.5299 719.645 28.9478 Z" fill="#000000" fill-rule="nonzero" fill-opacity="1" /><path clip-path="url(#clip690)" d="M750.188 32.4315 Q744.193 32.4315 740.709 37.1306 Q737.225 41.7891 737.225 49.9314 Q737.225 58.0738 740.669 62.7728 Q744.153 67.4314 750.188 67.4314 Q756.143 67.4314 759.627 62.7323 Q763.111 58.0333 763.111 49.9314 Q763.111 41.8701 759.627 37.1711 Q756.143 32.4315 750.188 32.4315 M750.188 26.1121 Q759.911 26.1121 765.46 32.4315 Q771.01 38.7509 771.01 49.9314 Q771.01 61.0714 765.46 67.4314 Q759.911 73.7508 750.188 73.7508 Q740.426 73.7508 734.876 67.4314 Q729.367 61.0714 729.367 49.9314 Q729.367 38.7509 734.876 32.4315 Q740.426 26.1121 750.188 26.1121 Z" fill="#000000" fill-rule="nonzero" fill-opacity="1" /><path clip-path="url(#clip690)" d="M812.289 28.5427 L812.289 35.5912 Q809.129 33.9709 805.726 33.1607 Q802.324 32.3505 798.678 32.3505 Q793.128 32.3505 790.333 34.0519 Q787.578 35.7533 787.578 39.156 Q787.578 41.7486 789.563 43.2475 Q791.548 44.7058 797.543 46.0426 L800.096 46.6097 Q808.035 48.3111 811.357 51.4303 Q814.719 54.509 814.719 60.0587 Q814.719 66.3781 809.696 70.0644 Q804.714 73.7508 795.964 73.7508 Q792.318 73.7508 788.348 73.0216 Q784.419 72.3329 780.044 70.9151 L780.044 63.2184 Q784.175 65.3654 788.186 66.4591 Q792.196 67.5124 796.126 67.5124 Q801.392 67.5124 804.227 65.73 Q807.063 63.9071 807.063 60.6258 Q807.063 57.5877 804.997 55.9673 Q802.972 54.3469 796.045 52.8481 L793.452 52.2405 Q786.525 50.7821 783.446 47.7845 Q780.368 44.7463 780.368 39.4801 Q780.368 33.0797 784.905 29.5959 Q789.442 26.1121 797.787 26.1121 Q801.918 26.1121 805.564 26.7198 Q809.21 27.3274 812.289 28.5427 Z" fill="#000000" fill-rule="nonzero" fill-opacity="1" /><path clip-path="url(#clip690)" d="M826.588 27.2059 L834.042 27.2059 L834.042 72.576 L826.588 72.576 L826.588 27.2059 M826.588 9.54393 L834.042 9.54393 L834.042 18.9825 L826.588 18.9825 L826.588 9.54393 Z" fill="#000000" fill-rule="nonzero" fill-opacity="1" /><path clip-path="url(#clip690)" d="M887.352 45.1919 L887.352 72.576 L879.898 72.576 L879.898 45.4349 Q879.898 38.994 877.387 35.7938 Q874.875 32.5936 869.852 32.5936 Q863.816 32.5936 860.332 36.4419 Q856.849 40.2903 856.849 46.9338 L856.849 72.576 L849.355 72.576 L849.355 27.2059 L856.849 27.2059 L856.849 34.2544 Q859.522 30.163 863.128 28.1376 Q866.773 26.1121 871.513 26.1121 Q879.331 26.1121 883.342 30.9732 Q887.352 35.7938 887.352 45.1919 Z" fill="#000000" fill-rule="nonzero" fill-opacity="1" /><path clip-path="url(#clip690)" d="M941.026 48.0275 L941.026 51.6733 L906.756 51.6733 Q907.242 59.3701 911.374 63.421 Q915.546 67.4314 922.959 67.4314 Q927.253 67.4314 931.264 66.3781 Q935.315 65.3249 939.285 63.2184 L939.285 70.267 Q935.274 71.9684 931.061 72.8596 Q926.848 73.7508 922.514 73.7508 Q911.657 73.7508 905.298 67.4314 Q898.978 61.1119 898.978 50.3365 Q898.978 39.1965 904.973 32.6746 Q911.009 26.1121 921.218 26.1121 Q930.373 26.1121 935.679 32.0264 Q941.026 37.9003 941.026 48.0275 M933.573 45.84 Q933.492 39.7232 930.13 36.0774 Q926.808 32.4315 921.299 32.4315 Q915.06 32.4315 911.293 35.9558 Q907.566 39.4801 906.999 45.8805 L933.573 45.84 Z" fill="#000000" fill-rule="nonzero" fill-opacity="1" /><path clip-path="url(#clip690)" d="M1008.56 28.5427 L1008.56 35.5912 Q1005.4 33.9709 1001.99 33.1607 Q998.59 32.3505 994.944 32.3505 Q989.394 32.3505 986.599 34.0519 Q983.845 35.7533 983.845 39.156 Q983.845 41.7486 985.829 43.2475 Q987.814 44.7058 993.81 46.0426 L996.362 46.6097 Q1004.3 48.3111 1007.62 51.4303 Q1010.99 54.509 1010.99 60.0587 Q1010.99 66.3781 1005.96 70.0644 Q1000.98 73.7508 992.23 73.7508 Q988.584 73.7508 984.614 73.0216 Q980.685 72.3329 976.31 70.9151 L976.31 63.2184 Q980.442 65.3654 984.452 66.4591 Q988.463 67.5124 992.392 67.5124 Q997.658 67.5124 1000.49 65.73 Q1003.33 63.9071 1003.33 60.6258 Q1003.33 57.5877 1001.26 55.9673 Q999.238 54.3469 992.311 52.8481 L989.718 52.2405 Q982.791 50.7821 979.713 47.7845 Q976.634 44.7463 976.634 39.4801 Q976.634 33.0797 981.171 29.5959 Q985.708 26.1121 994.053 26.1121 Q998.185 26.1121 1001.83 26.7198 Q1005.48 27.3274 1008.56 28.5427 Z" fill="#000000" fill-rule="nonzero" fill-opacity="1" /><path clip-path="url(#clip690)" d="M1022.85 27.2059 L1030.31 27.2059 L1030.31 72.576 L1022.85 72.576 L1022.85 27.2059 M1022.85 9.54393 L1030.31 9.54393 L1030.31 18.9825 L1022.85 18.9825 L1022.85 9.54393 Z" fill="#000000" fill-rule="nonzero" fill-opacity="1" /><path clip-path="url(#clip690)" d="M1081.23 35.9153 Q1084.02 30.8922 1087.91 28.5022 Q1091.8 26.1121 1097.07 26.1121 Q1104.16 26.1121 1108 31.0947 Q1111.85 36.0368 1111.85 45.1919 L1111.85 72.576 L1104.36 72.576 L1104.36 45.4349 Q1104.36 38.913 1102.05 35.7533 Q1099.74 32.5936 1095 32.5936 Q1089.21 32.5936 1085.85 36.4419 Q1082.48 40.2903 1082.48 46.9338 L1082.48 72.576 L1074.99 72.576 L1074.99 45.4349 Q1074.99 38.8725 1072.68 35.7533 Q1070.37 32.5936 1065.55 32.5936 Q1059.84 32.5936 1056.48 36.4824 Q1053.11 40.3308 1053.11 46.9338 L1053.11 72.576 L1045.62 72.576 L1045.62 27.2059 L1053.11 27.2059 L1053.11 34.2544 Q1055.67 30.082 1059.23 28.0971 Q1062.8 26.1121 1067.7 26.1121 Q1072.64 26.1121 1076.08 28.6237 Q1079.57 31.1352 1081.23 35.9153 Z" fill="#000000" fill-rule="nonzero" fill-opacity="1" /><path clip-path="url(#clip690)" d="M1126.72 27.2059 L1134.17 27.2059 L1134.17 72.576 L1126.72 72.576 L1126.72 27.2059 M1126.72 9.54393 L1134.17 9.54393 L1134.17 18.9825 L1126.72 18.9825 L1126.72 9.54393 Z" fill="#000000" fill-rule="nonzero" fill-opacity="1" /><path clip-path="url(#clip690)" d="M1149.77 9.54393 L1157.22 9.54393 L1157.22 72.576 L1149.77 72.576 L1149.77 9.54393 Z" fill="#000000" fill-rule="nonzero" fill-opacity="1" /><path clip-path="url(#clip690)" d="M1193.44 49.7694 Q1184.4 49.7694 1180.92 51.8354 Q1177.44 53.9013 1177.44 58.8839 Q1177.44 62.8538 1180.03 65.2034 Q1182.66 67.5124 1187.16 67.5124 Q1193.36 67.5124 1197.08 63.1374 Q1200.85 58.7219 1200.85 51.4303 L1200.85 49.7694 L1193.44 49.7694 M1208.31 46.6907 L1208.31 72.576 L1200.85 72.576 L1200.85 65.6895 Q1198.3 69.8214 1194.49 71.8063 Q1190.68 73.7508 1185.17 73.7508 Q1178.21 73.7508 1174.07 69.8619 Q1169.98 65.9325 1169.98 59.3701 Q1169.98 51.7138 1175.09 47.825 Q1180.23 43.9361 1190.4 43.9361 L1200.85 43.9361 L1200.85 43.2069 Q1200.85 38.0623 1197.45 35.2672 Q1194.09 32.4315 1187.97 32.4315 Q1184.08 32.4315 1180.39 33.3632 Q1176.71 34.295 1173.31 36.1584 L1173.31 29.2718 Q1177.4 27.692 1181.25 26.9223 Q1185.09 26.1121 1188.74 26.1121 Q1198.58 26.1121 1203.44 31.2163 Q1208.31 36.3204 1208.31 46.6907 Z" fill="#000000" fill-rule="nonzero" fill-opacity="1" /><path clip-path="url(#clip690)" d="M1249.95 34.1734 Q1248.69 33.4443 1247.19 33.1202 Q1245.74 32.7556 1243.95 32.7556 Q1237.63 32.7556 1234.23 36.8875 Q1230.87 40.9789 1230.87 48.6757 L1230.87 72.576 L1223.37 72.576 L1223.37 27.2059 L1230.87 27.2059 L1230.87 34.2544 Q1233.22 30.1225 1236.99 28.1376 Q1240.75 26.1121 1246.14 26.1121 Q1246.91 26.1121 1247.84 26.2337 Q1248.77 26.3147 1249.91 26.5172 L1249.95 34.1734 Z" fill="#000000" fill-rule="nonzero" fill-opacity="1" /><path clip-path="url(#clip690)" d="M1257.77 27.2059 L1265.22 27.2059 L1265.22 72.576 L1257.77 72.576 L1257.77 27.2059 M1257.77 9.54393 L1265.22 9.54393 L1265.22 18.9825 L1257.77 18.9825 L1257.77 9.54393 Z" fill="#000000" fill-rule="nonzero" fill-opacity="1" /><path clip-path="url(#clip690)" d="M1288.19 14.324 L1288.19 27.2059 L1303.54 27.2059 L1303.54 32.9987 L1288.19 32.9987 L1288.19 57.6282 Q1288.19 63.1779 1289.69 64.7578 Q1291.23 66.3376 1295.89 66.3376 L1303.54 66.3376 L1303.54 72.576 L1295.89 72.576 Q1287.26 72.576 1283.98 69.3758 Q1280.69 66.1351 1280.69 57.6282 L1280.69 32.9987 L1275.23 32.9987 L1275.23 27.2059 L1280.69 27.2059 L1280.69 14.324 L1288.19 14.324 Z" fill="#000000" fill-rule="nonzero" fill-opacity="1" /><path clip-path="url(#clip690)" d="M1313.35 27.2059 L1320.8 27.2059 L1320.8 72.576 L1313.35 72.576 L1313.35 27.2059 M1313.35 9.54393 L1320.8 9.54393 L1320.8 18.9825 L1313.35 18.9825 L1313.35 9.54393 Z" fill="#000000" fill-rule="nonzero" fill-opacity="1" /><path clip-path="url(#clip690)" d="M1375.2 48.0275 L1375.2 51.6733 L1340.93 51.6733 Q1341.42 59.3701 1345.55 63.421 Q1349.72 67.4314 1357.14 67.4314 Q1361.43 67.4314 1365.44 66.3781 Q1369.49 65.3249 1373.46 63.2184 L1373.46 70.267 Q1369.45 71.9684 1365.24 72.8596 Q1361.02 73.7508 1356.69 73.7508 Q1345.83 73.7508 1339.47 67.4314 Q1333.15 61.1119 1333.15 50.3365 Q1333.15 39.1965 1339.15 32.6746 Q1345.19 26.1121 1355.39 26.1121 Q1364.55 26.1121 1369.86 32.0264 Q1375.2 37.9003 1375.2 48.0275 M1367.75 45.84 Q1367.67 39.7232 1364.31 36.0774 Q1360.98 32.4315 1355.47 32.4315 Q1349.24 32.4315 1345.47 35.9558 Q1341.74 39.4801 1341.17 45.8805 L1367.75 45.84 Z" fill="#000000" fill-rule="nonzero" fill-opacity="1" /><path clip-path="url(#clip690)" d="M1416.36 28.5427 L1416.36 35.5912 Q1413.2 33.9709 1409.8 33.1607 Q1406.39 32.3505 1402.75 32.3505 Q1397.2 32.3505 1394.4 34.0519 Q1391.65 35.7533 1391.65 39.156 Q1391.65 41.7486 1393.63 43.2475 Q1395.62 44.7058 1401.61 46.0426 L1404.17 46.6097 Q1412.11 48.3111 1415.43 51.4303 Q1418.79 54.509 1418.79 60.0587 Q1418.79 66.3781 1413.77 70.0644 Q1408.78 73.7508 1400.03 73.7508 Q1396.39 73.7508 1392.42 73.0216 Q1388.49 72.3329 1384.11 70.9151 L1384.11 63.2184 Q1388.25 65.3654 1392.26 66.4591 Q1396.27 67.5124 1400.2 67.5124 Q1405.46 67.5124 1408.3 65.73 Q1411.13 63.9071 1411.13 60.6258 Q1411.13 57.5877 1409.07 55.9673 Q1407.04 54.3469 1400.12 52.8481 L1397.52 52.2405 Q1390.6 50.7821 1387.52 47.7845 Q1384.44 44.7463 1384.44 39.4801 Q1384.44 33.0797 1388.98 29.5959 Q1393.51 26.1121 1401.86 26.1121 Q1405.99 26.1121 1409.64 26.7198 Q1413.28 27.3274 1416.36 28.5427 Z" fill="#000000" fill-rule="nonzero" fill-opacity="1" /><path clip-path="url(#clip690)" d="M1489.68 28.9478 L1489.68 35.9153 Q1486.52 34.1734 1483.32 33.3227 Q1480.16 32.4315 1476.92 32.4315 Q1469.67 32.4315 1465.66 37.0496 Q1461.65 41.6271 1461.65 49.9314 Q1461.65 58.2358 1465.66 62.8538 Q1469.67 67.4314 1476.92 67.4314 Q1480.16 67.4314 1483.32 66.5807 Q1486.52 65.6895 1489.68 63.9476 L1489.68 70.8341 Q1486.56 72.2924 1483.2 73.0216 Q1479.88 73.7508 1476.11 73.7508 Q1465.86 73.7508 1459.83 67.3098 Q1453.79 60.8689 1453.79 49.9314 Q1453.79 38.832 1459.87 32.472 Q1465.98 26.1121 1476.6 26.1121 Q1480.04 26.1121 1483.32 26.8413 Q1486.6 27.5299 1489.68 28.9478 Z" fill="#000000" fill-rule="nonzero" fill-opacity="1" /><path clip-path="url(#clip690)" d="M1541.45 48.0275 L1541.45 51.6733 L1507.18 51.6733 Q1507.67 59.3701 1511.8 63.421 Q1515.97 67.4314 1523.38 67.4314 Q1527.68 67.4314 1531.69 66.3781 Q1535.74 65.3249 1539.71 63.2184 L1539.71 70.267 Q1535.7 71.9684 1531.49 72.8596 Q1527.27 73.7508 1522.94 73.7508 Q1512.08 73.7508 1505.72 67.4314 Q1499.4 61.1119 1499.4 50.3365 Q1499.4 39.1965 1505.4 32.6746 Q1511.43 26.1121 1521.64 26.1121 Q1530.8 26.1121 1536.1 32.0264 Q1541.45 37.9003 1541.45 48.0275 M1534 45.84 Q1533.92 39.7232 1530.55 36.0774 Q1527.23 32.4315 1521.72 32.4315 Q1515.49 32.4315 1511.72 35.9558 Q1507.99 39.4801 1507.42 45.8805 L1534 45.84 Z" fill="#000000" fill-rule="nonzero" fill-opacity="1" /><path clip-path="url(#clip690)" d="M1553.69 9.54393 L1561.14 9.54393 L1561.14 72.576 L1553.69 72.576 L1553.69 9.54393 Z" fill="#000000" fill-rule="nonzero" fill-opacity="1" /><path clip-path="url(#clip690)" d="M1576.73 9.54393 L1584.19 9.54393 L1584.19 72.576 L1576.73 72.576 L1576.73 9.54393 Z" fill="#000000" fill-rule="nonzero" fill-opacity="1" /><path clip-path="url(#clip690)" d="M1628.63 65.6895 L1641.99 65.6895 L1641.99 19.5497 L1627.45 22.4663 L1627.45 15.0127 L1641.91 12.096 L1650.1 12.096 L1650.1 65.6895 L1663.46 65.6895 L1663.46 72.576 L1628.63 72.576 L1628.63 65.6895 Z" fill="#000000" fill-rule="nonzero" fill-opacity="1" /><path clip-path="url(#clip690)" d="M1697.49 17.4837 Q1691.17 17.4837 1687.97 23.7221 Q1684.81 29.92 1684.81 42.3968 Q1684.81 54.833 1687.97 61.0714 Q1691.17 67.2693 1697.49 67.2693 Q1703.85 67.2693 1707.01 61.0714 Q1710.21 54.833 1710.21 42.3968 Q1710.21 29.92 1707.01 23.7221 Q1703.85 17.4837 1697.49 17.4837 M1697.49 11.0023 Q1707.66 11.0023 1713.01 19.0636 Q1718.39 27.0843 1718.39 42.3968 Q1718.39 57.6687 1713.01 65.73 Q1707.66 73.7508 1697.49 73.7508 Q1687.32 73.7508 1681.94 65.73 Q1676.59 57.6687 1676.59 42.3968 Q1676.59 27.0843 1681.94 19.0636 Q1687.32 11.0023 1697.49 11.0023 Z" fill="#000000" fill-rule="nonzero" fill-opacity="1" /><path clip-path="url(#clip690)" d="M1734.19 65.6895 L1747.56 65.6895 L1747.56 19.5497 L1733.02 22.4663 L1733.02 15.0127 L1747.48 12.096 L1755.66 12.096 L1755.66 65.6895 L1769.03 65.6895 L1769.03 72.576 L1734.19 72.576 L1734.19 65.6895 Z" fill="#000000" fill-rule="nonzero" fill-opacity="1" /><path clip-path="url(#clip690)" d="M1810.88 27.2059 L1818.33 27.2059 L1818.33 72.576 L1810.88 72.576 L1810.88 27.2059 M1810.88 9.54393 L1818.33 9.54393 L1818.33 18.9825 L1810.88 18.9825 L1810.88 9.54393 Z" fill="#000000" fill-rule="nonzero" fill-opacity="1" /><path clip-path="url(#clip690)" d="M1841.3 14.324 L1841.3 27.2059 L1856.65 27.2059 L1856.65 32.9987 L1841.3 32.9987 L1841.3 57.6282 Q1841.3 63.1779 1842.8 64.7578 Q1844.34 66.3376 1849 66.3376 L1856.65 66.3376 L1856.65 72.576 L1849 72.576 Q1840.37 72.576 1837.09 69.3758 Q1833.81 66.1351 1833.81 57.6282 L1833.81 32.9987 L1828.34 32.9987 L1828.34 27.2059 L1833.81 27.2059 L1833.81 14.324 L1841.3 14.324 Z" fill="#000000" fill-rule="nonzero" fill-opacity="1" /><path clip-path="url(#clip690)" d="M1905.26 48.0275 L1905.26 51.6733 L1870.99 51.6733 Q1871.48 59.3701 1875.61 63.421 Q1879.78 67.4314 1887.2 67.4314 Q1891.49 67.4314 1895.5 66.3781 Q1899.55 65.3249 1903.52 63.2184 L1903.52 70.267 Q1899.51 71.9684 1895.3 72.8596 Q1891.09 73.7508 1886.75 73.7508 Q1875.89 73.7508 1869.53 67.4314 Q1863.21 61.1119 1863.21 50.3365 Q1863.21 39.1965 1869.21 32.6746 Q1875.25 26.1121 1885.45 26.1121 Q1894.61 26.1121 1899.92 32.0264 Q1905.26 37.9003 1905.26 48.0275 M1897.81 45.84 Q1897.73 39.7232 1894.37 36.0774 Q1891.04 32.4315 1885.54 32.4315 Q1879.3 32.4315 1875.53 35.9558 Q1871.8 39.4801 1871.24 45.8805 L1897.81 45.84 Z" fill="#000000" fill-rule="nonzero" fill-opacity="1" /><path clip-path="url(#clip690)" d="M1943.79 34.1734 Q1942.53 33.4443 1941.03 33.1202 Q1939.57 32.7556 1937.79 32.7556 Q1931.47 32.7556 1928.07 36.8875 Q1924.71 40.9789 1924.71 48.6757 L1924.71 72.576 L1917.21 72.576 L1917.21 27.2059 L1924.71 27.2059 L1924.71 34.2544 Q1927.06 30.1225 1930.82 28.1376 Q1934.59 26.1121 1939.98 26.1121 Q1940.75 26.1121 1941.68 26.2337 Q1942.61 26.3147 1943.75 26.5172 L1943.79 34.1734 Z" fill="#000000" fill-rule="nonzero" fill-opacity="1" /><path clip-path="url(#clip690)" d="M1972.22 49.7694 Q1963.19 49.7694 1959.71 51.8354 Q1956.22 53.9013 1956.22 58.8839 Q1956.22 62.8538 1958.82 65.2034 Q1961.45 67.5124 1965.95 67.5124 Q1972.14 67.5124 1975.87 63.1374 Q1979.64 58.7219 1979.64 51.4303 L1979.64 49.7694 L1972.22 49.7694 M1987.09 46.6907 L1987.09 72.576 L1979.64 72.576 L1979.64 65.6895 Q1977.09 69.8214 1973.28 71.8063 Q1969.47 73.7508 1963.96 73.7508 Q1956.99 73.7508 1952.86 69.8619 Q1948.77 65.9325 1948.77 59.3701 Q1948.77 51.7138 1953.87 47.825 Q1959.02 43.9361 1969.19 43.9361 L1979.64 43.9361 L1979.64 43.2069 Q1979.64 38.0623 1976.24 35.2672 Q1972.87 32.4315 1966.76 32.4315 Q1962.87 32.4315 1959.18 33.3632 Q1955.49 34.295 1952.09 36.1584 L1952.09 29.2718 Q1956.18 27.692 1960.03 26.9223 Q1963.88 26.1121 1967.53 26.1121 Q1977.37 26.1121 1982.23 31.2163 Q1987.09 36.3204 1987.09 46.6907 Z" fill="#000000" fill-rule="nonzero" fill-opacity="1" /><path clip-path="url(#clip690)" d="M2009.82 14.324 L2009.82 27.2059 L2025.17 27.2059 L2025.17 32.9987 L2009.82 32.9987 L2009.82 57.6282 Q2009.82 63.1779 2011.32 64.7578 Q2012.86 66.3376 2017.51 66.3376 L2025.17 66.3376 L2025.17 72.576 L2017.51 72.576 Q2008.89 72.576 2005.6 69.3758 Q2002.32 66.1351 2002.32 57.6282 L2002.32 32.9987 L1996.85 32.9987 L1996.85 27.2059 L2002.32 27.2059 L2002.32 14.324 L2009.82 14.324 Z" fill="#000000" fill-rule="nonzero" fill-opacity="1" /><path clip-path="url(#clip690)" d="M2034.97 27.2059 L2042.43 27.2059 L2042.43 72.576 L2034.97 72.576 L2034.97 27.2059 M2034.97 9.54393 L2042.43 9.54393 L2042.43 18.9825 L2034.97 18.9825 L2034.97 9.54393 Z" fill="#000000" fill-rule="nonzero" fill-opacity="1" /><path clip-path="url(#clip690)" d="M2075.6 32.4315 Q2069.61 32.4315 2066.12 37.1306 Q2062.64 41.7891 2062.64 49.9314 Q2062.64 58.0738 2066.08 62.7728 Q2069.57 67.4314 2075.6 67.4314 Q2081.56 67.4314 2085.04 62.7323 Q2088.53 58.0333 2088.53 49.9314 Q2088.53 41.8701 2085.04 37.1711 Q2081.56 32.4315 2075.6 32.4315 M2075.6 26.1121 Q2085.33 26.1121 2090.88 32.4315 Q2096.43 38.7509 2096.43 49.9314 Q2096.43 61.0714 2090.88 67.4314 Q2085.33 73.7508 2075.6 73.7508 Q2065.84 73.7508 2060.29 67.4314 Q2054.78 61.0714 2054.78 49.9314 Q2054.78 38.7509 2060.29 32.4315 Q2065.84 26.1121 2075.6 26.1121 Z" fill="#000000" fill-rule="nonzero" fill-opacity="1" /><path clip-path="url(#clip690)" d="M2146.49 45.1919 L2146.49 72.576 L2139.04 72.576 L2139.04 45.4349 Q2139.04 38.994 2136.53 35.7938 Q2134.02 32.5936 2128.99 32.5936 Q2122.96 32.5936 2119.48 36.4419 Q2115.99 40.2903 2115.99 46.9338 L2115.99 72.576 L2108.5 72.576 L2108.5 27.2059 L2115.99 27.2059 L2115.99 34.2544 Q2118.66 30.163 2122.27 28.1376 Q2125.92 26.1121 2130.66 26.1121 Q2138.47 26.1121 2142.48 30.9732 Q2146.49 35.7938 2146.49 45.1919 Z" fill="#000000" fill-rule="nonzero" fill-opacity="1" /><path clip-path="url(#clip690)" d="M2188.87 12.096 L2220.99 12.096 L2220.99 18.9825 L2196.36 18.9825 L2196.36 33.8088 Q2198.14 33.2012 2199.93 32.9176 Q2201.71 32.5936 2203.49 32.5936 Q2213.62 32.5936 2219.53 38.1433 Q2225.45 43.6931 2225.45 53.1722 Q2225.45 62.9348 2219.37 68.3631 Q2213.29 73.7508 2202.23 73.7508 Q2198.43 73.7508 2194.46 73.1026 Q2190.53 72.4545 2186.31 71.1582 L2186.31 62.9348 Q2189.96 64.9198 2193.85 65.892 Q2197.74 66.8642 2202.07 66.8642 Q2209.08 66.8642 2213.17 63.1779 Q2217.26 59.4916 2217.26 53.1722 Q2217.26 46.8528 2213.17 43.1664 Q2209.08 39.4801 2202.07 39.4801 Q2198.79 39.4801 2195.51 40.2093 Q2192.27 40.9384 2188.87 42.4778 L2188.87 12.096 Z" fill="#000000" fill-rule="nonzero" fill-opacity="1" /><polyline clip-path="url(#clip692)" style="stroke:#009af9; stroke-linecap:round; stroke-linejoin:round; stroke-width:4; stroke-opacity:1; fill:none" points="316.512,1386.4 318.491,1382.09 320.47,1378.46 322.449,1377.13 324.428,1376.55 326.407,1374.52 328.386,1373.83 330.365,1373.45 332.343,1372.56 334.322,1371.66 336.301,1369.9 338.28,1369.77 340.259,1369.54 342.238,1368.75 344.217,1368 346.196,1367.12 348.175,1366.88 350.154,1366.8 352.133,1366.79 354.111,1365.93 356.09,1365.41 358.069,1365.08 360.048,1365.05 362.027,1362.58 364.006,1361.44 365.985,1360.61 367.964,1360.13 369.943,1359.61 371.922,1359.14 373.901,1357.05 375.88,1356.51 377.858,1355.92 379.837,1355.36 381.816,1354.88 383.795,1354.69 385.774,1354.67 387.753,1354.17 389.732,1351.42 391.711,1349.65 393.69,1349.54 395.669,1348.38 397.648,1347.65 399.627,1347.43 401.605,1347.08 403.584,1347.01 405.563,1346.29 407.542,1346.28 409.521,1346.16 411.5,1345.93 413.479,1345.16 415.458,1344.88 417.437,1344.64 419.416,1344.45 421.395,1344.27 423.373,1344.15 425.352,1343.9 427.331,1343.59 429.31,1343.26 431.289,1343.16 433.268,1342.89 435.247,1342.83 437.226,1342.5 439.205,1342.07 441.184,1341.65 443.163,1341.47 445.142,1341.06 447.12,1341.05 449.099,1340.77 451.078,1339.77 453.057,1339.66 455.036,1339.48 457.015,1339.08 458.994,1339.02 460.973,1338.62 462.952,1338.38 464.931,1338.31 466.91,1338.24 468.889,1337.93 470.867,1337.86 472.846,1337.73 474.825,1337.65 476.804,1337.65 478.783,1336.93 480.762,1336.88 482.741,1336.85 484.72,1336.83 486.699,1336.47 488.678,1335.46 490.657,1335.08 492.636,1335.04 494.614,1334.95 496.593,1334.52 498.572,1333.78 500.551,1333.42 502.53,1333.09 504.509,1332.82 506.488,1332.28 508.467,1332.03 510.446,1331.39 512.425,1331.25 514.404,1331.13 516.382,1330.56 518.361,1330.19 520.34,1329.55 522.319,1329.47 524.298,1329.12 526.277,1328.99 528.256,1328.95 530.235,1328.8 532.214,1327.34 534.193,1327.3 536.172,1327.23 538.151,1326.75 540.129,1326.71 542.108,1326.47 544.087,1326.26 546.066,1325.97 548.045,1325.96 550.024,1325.7 552.003,1325.65 553.982,1325.4 555.961,1325.37 557.94,1324.89 559.919,1324.32 561.898,1323.53 563.876,1323.35 565.855,1323.28 567.834,1323.2 569.813,1322.29 571.792,1322.24 573.771,1321.58 575.75,1321.51 577.729,1321.26 579.708,1320.9 581.687,1320.86 583.666,1320.06 585.644,1319.75 587.623,1319.24 589.602,1318.68 591.581,1318.62 593.56,1318.35 595.539,1317.64 597.518,1317.55 599.497,1317.32 601.476,1316.77 603.455,1316.75 605.434,1316.61 607.413,1316.45 609.391,1316.43 611.37,1316.07 613.349,1315.99 615.328,1315.93 617.307,1315.71 619.286,1315.47 621.265,1315.2 623.244,1315.05 625.223,1315 627.202,1314.87 629.181,1314.74 631.16,1314.66 633.138,1314.44 635.117,1314.17 637.096,1314.12 639.075,1314.12 641.054,1313.46 643.033,1313.29 645.012,1313.28 646.991,1312.79 648.97,1312.37 650.949,1312.29 652.928,1311.04 654.907,1310.54 656.885,1310.31 658.864,1309.77 660.843,1309.55 662.822,1309.03 664.801,1308.88 666.78,1308.83 668.759,1308.66 670.738,1308.17 672.717,1307.87 674.696,1307.85 676.675,1307.49 678.653,1307.3 680.632,1307.19 682.611,1306.75 684.59,1306.49 686.569,1306.25 688.548,1306.03 690.527,1304.89 692.506,1304.82 694.485,1304.8 696.464,1303.91 698.443,1303.89 700.422,1302.98 702.4,1302.4 704.379,1302.37 706.358,1302.07 708.337,1301.73 710.316,1301.08 712.295,1301.08 714.274,1300.86 716.253,1300.4 718.232,1299.99 720.211,1299.85 722.19,1299.75 724.169,1299.31 726.147,1298.59 728.126,1298.42 730.105,1298.27 732.084,1297.14 734.063,1296.88 736.042,1296.63 738.021,1296.01 740,1295.81 741.979,1294.9 743.958,1294.31 745.937,1293.96 747.915,1292.68 749.894,1292.08 751.873,1291.81 753.852,1290.88 755.831,1290.57 757.81,1289.22 759.789,1289.1 761.768,1286.19 763.747,1286.14 765.726,1285.91 767.705,1285.81 769.684,1285.23 771.662,1283.6 773.641,1282.49 775.62,1281.82 777.599,1280.75 779.578,1280 781.557,1278.95 783.536,1278.9 785.515,1278.45 787.494,1277.51 789.473,1276.81 791.452,1272.51 793.431,1272.12 795.409,1267.94 797.388,1266.5 799.367,1246.18 801.346,1243.91 803.325,1241.63 805.304,1228.88 807.283,1226.62 809.262,1221.63 811.241,994.416 813.22,950.089 815.199,926.629 817.178,896.209 819.156,887.164 821.135,886.655 823.114,885.343 825.093,883.977 827.072,872.055 829.051,865.051 831.03,862.424 833.009,861.701 834.988,860.315 836.967,858.885 838.946,857.128 840.924,856.968 842.903,854.622 844.882,854.588 846.861,852.275 848.84,849.776 850.819,849.676 852.798,849.356 854.777,849.028 856.756,846.541 858.735,846.309 860.714,845.406 862.693,844.642 864.671,843.886 866.65,842.751 868.629,841.385 870.608,839.568 872.587,838.864 874.566,838.148 876.545,836.947 878.524,832.151 880.503,831.932 882.482,831.855 884.461,830.551 886.44,830.257 888.418,829.951 890.397,829.814 892.376,828.872 894.355,827.451 896.334,827.39 898.313,827.295 900.292,827.29 902.271,826.031 904.25,825.855 906.229,825.164 908.208,825.144 910.186,824.751 912.165,824.045 914.144,824.023 916.123,823.16 918.102,822.572 920.081,819.05 922.06,818.7 924.039,818.548 926.018,817.75 927.997,816.704 929.976,815.982 931.955,815.852 933.933,815.669 935.912,814.824 937.891,814.58 939.87,813.835 941.849,813.835 943.828,811.492 945.807,810.881 947.786,810.794 949.765,809.602 951.744,809.28 953.723,805.205 955.702,804.842 957.68,804.798 959.659,804.404 961.638,803.25 963.617,801.818 965.596,801.589 967.575,801.027 969.554,799.872 971.533,798.895 973.512,798.661 975.491,798.427 977.47,798.361 979.449,797.877 981.427,797.35 983.406,797.347 985.385,796.856 987.364,795.257 989.343,793.59 991.322,793.196 993.301,793.141 995.28,792.808 997.259,792.706 999.238,791.265 1001.22,789.912 1003.2,788.731 1005.17,788.532 1007.15,788.423 1009.13,787.939 1011.11,787.91 1013.09,787.502 1015.07,787.454 1017.05,787.105 1019.03,785.905 1021.01,785.755 1022.98,785.021 1024.96,784.388 1026.94,783.937 1028.92,783.886 1030.9,783.658 1032.88,782.557 1034.86,782.431 1036.84,781.491 1038.82,780.739 1040.79,778.535 1042.77,777.384 1044.75,776.586 1046.73,776.134 1048.71,775.896 1050.69,775.804 1052.67,775.378 1054.65,775.166 1056.63,774.615 1058.61,774.316 1060.58,774.294 1062.56,773.35 1064.54,772.466 1066.52,771.816 1068.5,771.663 1070.48,770.87 1072.46,770.431 1074.44,770.069 1076.42,769.726 1078.39,769.609 1080.37,768.779 1082.35,768.428 1084.33,767.986 1086.31,767.648 1088.29,767.314 1090.27,766.836 1092.25,766.56 1094.23,766.027 1096.2,765.713 1098.18,764.817 1100.16,763.729 1102.14,763.387 1104.12,762.255 1106.1,761.554 1108.08,761.245 1110.06,760.551 1112.04,760.529 1114.01,760.018 1115.99,759.845 1117.97,759.344 1119.95,759.139 1121.93,758.647 1123.91,758.267 1125.89,758.107 1127.87,758.091 1129.85,757.794 1131.82,757.206 1133.8,757.164 1135.78,756.963 1137.76,755.998 1139.74,755.903 1141.72,755.799 1143.7,755.78 1145.68,755.521 1147.66,755.18 1149.64,754.969 1151.61,754.235 1153.59,754.211 1155.57,754.173 1157.55,753.908 1159.53,753.639 1161.51,753.335 1163.49,753.295 1165.47,753.193 1167.45,752.537 1169.42,752.328 1171.4,752.018 1173.38,751.857 1175.36,751.852 1177.34,751.472 1179.32,751.405 1181.3,751.005 1183.28,750.647 1185.26,750.511 1187.23,749.783 1189.21,749.693 1191.19,749.571 1193.17,749.336 1195.15,748.841 1197.13,748.79 1199.11,748.392 1201.09,748.16 1203.07,747.778 1205.04,745.28 1207.02,744.402 1209,744.267 1210.98,742.921 1212.96,742.802 1214.94,742.77 1216.92,742.443 1218.9,742.004 1220.88,741.848 1222.86,741.291 1224.83,741.168 1226.81,740.921 1228.79,740.82 1230.77,740.799 1232.75,740.228 1234.73,740.103 1236.71,739.548 1238.69,739.425 1240.67,739.166 1242.64,738.666 1244.62,738.613 1246.6,738.246 1248.58,738.156 1250.56,737.528 1252.54,736.955 1254.52,736.753 1256.5,736.565 1258.48,736.533 1260.45,736.469 1262.43,736.295 1264.41,736.181 1266.39,736.164 1268.37,735.736 1270.35,735.039 1272.33,734.848 1274.31,734.754 1276.29,734.237 1278.26,733.97 1280.24,733.898 1282.22,733.576 1284.2,733.229 1286.18,733.1 1288.16,732.492 1290.14,732.298 1292.12,731.999 1294.1,731.129 1296.07,730.321 1298.05,729.594 1300.03,729.405 1302.01,728.921 1303.99,728.45 1305.97,728.179 1307.95,727.947 1309.93,727.887 1311.91,727.785 1313.89,727.105 1315.86,726.459 1317.84,725.972 1319.82,725.828 1321.8,725.477 1323.78,724.242 1325.76,723.863 1327.74,723.819 1329.72,723.757 1331.7,722.128 1333.67,721.839 1335.65,720.931 1337.63,720.721 1339.61,720.685 1341.59,720.64 1343.57,720.278 1345.55,720.061 1347.53,719.951 1349.51,719.708 1351.48,719.318 1353.46,719.286 1355.44,719.257 1357.42,718.606 1359.4,718.242 1361.38,717.756 1363.36,717.387 1365.34,717.288 1367.32,717.08 1369.29,716.684 1371.27,716.44 1373.25,716.389 1375.23,715.955 1377.21,715.796 1379.19,715.674 1381.17,715.322 1383.15,715.321 1385.13,714.781 1387.1,714.523 1389.08,714.452 1391.06,714.175 1393.04,714.172 1395.02,714.055 1397,713.987 1398.98,713.753 1400.96,713.748 1402.94,713.454 1404.92,712.64 1406.89,712.58 1408.87,712.327 1410.85,712.228 1412.83,712.127 1414.81,712.105 1416.79,712.026 1418.77,711.931 1420.75,711.619 1422.73,711.303 1424.7,711.274 1426.68,711.117 1428.66,711.053 1430.64,710.874 1432.62,710.736 1434.6,710.093 1436.58,710.058 1438.56,709.958 1440.54,709.926 1442.51,709.464 1444.49,709.41 1446.47,709.365 1448.45,709.354 1450.43,709.181 1452.41,708.839 1454.39,708.578 1456.37,708.402 1458.35,708.397 1460.32,708.299 1462.3,708.26 1464.28,707.79 1466.26,707.738 1468.24,707.266 1470.22,706.932 1472.2,706.837 1474.18,706.313 1476.16,706.273 1478.13,705.912 1480.11,705.6 1482.09,705.278 1484.07,705.214 1486.05,704.726 1488.03,704.179 1490.01,704.095 1491.99,703.885 1493.97,703.558 1495.95,703.426 1497.92,702.878 1499.9,702.736 1501.88,702.59 1503.86,702.366 1505.84,702.138 1507.82,701.944 1509.8,700.658 1511.78,700.208 1513.76,700.147 1515.73,699.843 1517.71,699.556 1519.69,698.5 1521.67,698.211 1523.65,698.048 1525.63,697.94 1527.61,697.501 1529.59,696.858 1531.57,696.344 1533.54,696.301 1535.52,696.18 1537.5,695.811 1539.48,695.45 1541.46,695.289 1543.44,694.768 1545.42,694.585 1547.4,694.47 1549.38,694.389 1551.35,694.348 1553.33,694.26 1555.31,693.356 1557.29,693.16 1559.27,692.94 1561.25,692.775 1563.23,692.627 1565.21,691.491 1567.19,691.227 1569.17,690.887 1571.14,690.639 1573.12,690.4 1575.1,690.097 1577.08,690.06 1579.06,689.723 1581.04,689.307 1583.02,689.137 1585,688.001 1586.98,687.578 1588.95,687.169 1590.93,686.894 1592.91,686.548 1594.89,685.907 1596.87,685.889 1598.85,685.544 1600.83,685.378 1602.81,685.357 1604.79,684.92 1606.76,684.129 1608.74,684.1 1610.72,684.003 1612.7,683.707 1614.68,683.583 1616.66,683.295 1618.64,683.087 1620.62,682.726 1622.6,682.4 1624.57,682.255 1626.55,682.184 1628.53,681.538 1630.51,680.979 1632.49,680.947 1634.47,680.119 1636.45,680.061 1638.43,679.279 1640.41,679.112 1642.38,678.11 1644.36,678 1646.34,677.096 1648.32,677.074 1650.3,676.532 1652.28,676.02 1654.26,675.852 1656.24,675.663 1658.22,675.472 1660.2,675.368 1662.17,675.118 1664.15,675.114 1666.13,674.342 1668.11,674.01 1670.09,673.9 1672.07,673.503 1674.05,673.462 1676.03,673.282 1678.01,673.112 1679.98,672.422 1681.96,672.409 1683.94,672.328 1685.92,671.827 1687.9,671.513 1689.88,671.219 1691.86,669.695 1693.84,669.037 1695.82,667.447 1697.79,667.395 1699.77,667.02 1701.75,666.04 1703.73,665.929 1705.71,665.179 1707.69,663.989 1709.67,663.958 1711.65,662.946 1713.63,662.588 1715.6,662.034 1717.58,660.534 1719.56,660.207 1721.54,659.229 1723.52,658.953 1725.5,658.856 1727.48,658.752 1729.46,657.875 1731.44,657.656 1733.41,657.542 1735.39,657.318 1737.37,656.946 1739.35,656.411 1741.33,656.342 1743.31,655.839 1745.29,654.616 1747.27,653.744 1749.25,652.559 1751.23,652.137 1753.2,650.991 1755.18,650.152 1757.16,649.437 1759.14,649.284 1761.12,648.612 1763.1,646.102 1765.08,645.681 1767.06,644.589 1769.04,640.272 1771.01,640.147 1772.99,638.721 1774.97,637.624 1776.95,636.303 1778.93,633.151 1780.91,632.794 1782.89,630.313 1784.87,629.518 1786.85,626.682 1788.82,625.67 1790.8,621.868 1792.78,614.281 1794.76,608.011 1796.74,601.603 1798.72,596.493 1800.7,593.512 1802.68,431.56 1804.66,414.485 1806.63,412.946 1808.61,412.188 1810.59,411.307 1812.57,406.296 1814.55,400.713 1816.53,397.966 1818.51,396.504 1820.49,393.979 1822.47,389.808 1824.45,387.661 1826.42,385.148 1828.4,375.499 1830.38,372.463 1832.36,371.422 1834.34,369.495 1836.32,367.286 1838.3,365.812 1840.28,364.311 1842.26,364.274 1844.23,363.107 1846.21,361.575 1848.19,361.573 1850.17,361.283 1852.15,360.31 1854.13,358.417 1856.11,358.322 1858.09,358.243 1860.07,357.606 1862.04,352.732 1864.02,352.56 1866,349.007 1867.98,346.624 1869.96,344.654 1871.94,344.323 1873.92,342.807 1875.9,342.632 1877.88,342.428 1879.85,341.03 1881.83,340.461 1883.81,340.392 1885.79,340.15 1887.77,339.804 1889.75,338.412 1891.73,338.175 1893.71,337.985 1895.69,337.946 1897.66,336.976 1899.64,336.603 1901.62,335.183 1903.6,335.099 1905.58,334.535 1907.56,333.668 1909.54,333.416 1911.52,333.223 1913.5,333.199 1915.48,332.228 1917.45,332.113 1919.43,331.965 1921.41,331.689 1923.39,331.683 1925.37,331.054 1927.35,330.664 1929.33,330.62 1931.31,330.089 1933.29,328.88 1935.26,328.408 1937.24,327.785 1939.22,327.363 1941.2,326.497 1943.18,326.334 1945.16,325.228 1947.14,323.366 1949.12,322.739 1951.1,322.303 1953.07,321.546 1955.05,321.174 1957.03,320.308 1959.01,320.018 1960.99,319.421 1962.97,318.981 1964.95,318.875 1966.93,318.695 1968.91,318.401 1970.88,318.25 1972.86,316.233 1974.84,315.405 1976.82,314.425 1978.8,313.183 1980.78,312.798 1982.76,312.218 1984.74,312.048 1986.72,311.93 1988.69,310.791 1990.67,310.102 1992.65,310.013 1994.63,309.776 1996.61,309.587 1998.59,309.304 2000.57,309.189 2002.55,308.684 2004.53,308.613 2006.51,308.17 2008.48,307.586 2010.46,307.475 2012.44,306.765 2014.42,305.964 2016.4,304.307 2018.38,303.75 2020.36,303.544 2022.34,303.156 2024.32,302.365 2026.29,301.773 2028.27,301.572 2030.25,300.826 2032.23,300.599 2034.21,300.385 2036.19,299.091 2038.17,298.965 2040.15,298.902 2042.13,298.628 2044.1,298.426 2046.08,298.413 2048.06,297.648 2050.04,296.71 2052.02,296.177 2054,295.976 2055.98,295.875 2057.96,295.779 2059.94,295.729 2061.91,295.306 2063.89,295.036 2065.87,294.703 2067.85,294.268 2069.83,292.193 2071.81,291.963 2073.79,291.144 2075.77,289.496 2077.75,289.2 2079.73,288.923 2081.7,288.873 2083.68,288.184 2085.66,288.119 2087.64,287.399 2089.62,286.947 2091.6,286.916 2093.58,286.691 2095.56,286.655 2097.54,286.54 2099.51,286.27 2101.49,286.184 2103.47,285.942 2105.45,285.832 2107.43,285.232 2109.41,285.182 2111.39,283.561 2113.37,283.54 2115.35,282.797 2117.32,282.064 2119.3,281.985 2121.28,281.537 2123.26,281.487 2125.24,280.663 2127.22,280.484 2129.2,279.225 2131.18,278.96 2133.16,278.72 2135.13,278.373 2137.11,276.278 2139.09,276.101 2141.07,275.688 2143.05,275.144 2145.03,275.072 2147.01,274.883 2148.99,274.441 2150.97,274.215 2152.94,273.633 2154.92,273.551 2156.9,273.075 2158.88,272.738 2160.86,272.676 2162.84,272.376 2164.82,271.644 2166.8,271.603 2168.78,270.897 2170.76,270.315 2172.73,269.36 2174.71,268.901 2176.69,267.451 2178.67,267.163 2180.65,267.123 2182.63,266.997 2184.61,266.667 2186.59,266.406 2188.57,266.399 2190.54,265.355 2192.52,264.886 2194.5,264.742 2196.48,264.719 2198.46,264.242 2200.44,264.237 2202.42,264.178 2204.4,264.135 2206.38,263.977 2208.35,262.581 2210.33,261.916 2212.31,260.742 2214.29,260.617 2216.27,260.243 2218.25,259.56 2220.23,258.686 2222.21,258.339 2224.19,258.211 2226.16,256.926 2228.14,256.774 2230.12,256.71 2232.1,256.426 2234.08,255.825 2236.06,254.88 2238.04,253.01 2240.02,252.768 2242,250.326 2243.97,249.142 2245.95,249.017 2247.93,248.727 2249.91,243.951 2251.89,241.918 2253.87,241.638 2255.85,239.169 2257.83,239.167 2259.81,237.88 2261.79,234.52 2263.76,233.274 2265.74,232.263 2267.72,231.715 2269.7,230.114 2271.68,229.823 2273.66,228.295 2275.64,224.964 2277.62,224.866 2279.6,223.877 2281.57,219.781 2283.55,207.652 2285.53,206.39 2287.51,201.007 2289.49,200.283 2291.47,194.239 2293.45,160.256 "/>
<path clip-path="url(#clip690)" d="M327.056 270.476 L756.216 270.476 L756.216 166.796 L327.056 166.796  Z" fill="#ffffff" fill-rule="evenodd" fill-opacity="1"/>
<polyline clip-path="url(#clip690)" style="stroke:#000000; stroke-linecap:round; stroke-linejoin:round; stroke-width:4; stroke-opacity:1; fill:none" points="327.056,270.476 756.216,270.476 756.216,166.796 327.056,166.796 327.056,270.476 "/>
<polyline clip-path="url(#clip690)" style="stroke:#009af9; stroke-linecap:round; stroke-linejoin:round; stroke-width:4; stroke-opacity:1; fill:none" points="350.34,218.636 490.043,218.636 "/>
<path clip-path="url(#clip690)" d="M535.572 202.49 L535.572 207.05 Q532.91 205.777 530.549 205.152 Q528.188 204.527 525.989 204.527 Q522.17 204.527 520.086 206.008 Q518.026 207.49 518.026 210.221 Q518.026 212.513 519.392 213.694 Q520.781 214.851 524.623 215.569 L527.447 216.147 Q532.679 217.143 535.156 219.666 Q537.656 222.166 537.656 226.379 Q537.656 231.402 534.276 233.994 Q530.92 236.587 524.415 236.587 Q521.961 236.587 519.183 236.031 Q516.429 235.476 513.466 234.388 L513.466 229.573 Q516.313 231.17 519.045 231.981 Q521.776 232.791 524.415 232.791 Q528.42 232.791 530.595 231.217 Q532.771 229.643 532.771 226.726 Q532.771 224.18 531.197 222.744 Q529.646 221.309 526.082 220.592 L523.234 220.036 Q518.003 218.995 515.665 216.772 Q513.327 214.55 513.327 210.592 Q513.327 206.008 516.545 203.37 Q519.785 200.731 525.457 200.731 Q527.887 200.731 530.41 201.171 Q532.933 201.61 535.572 202.49 Z" fill="#000000" fill-rule="nonzero" fill-opacity="1" /><path clip-path="url(#clip690)" d="M544.762 209.99 L549.021 209.99 L549.021 235.916 L544.762 235.916 L544.762 209.99 M544.762 199.897 L549.021 199.897 L549.021 205.291 L544.762 205.291 L544.762 199.897 Z" fill="#000000" fill-rule="nonzero" fill-opacity="1" /><path clip-path="url(#clip690)" d="M578.118 214.967 Q579.716 212.096 581.938 210.731 Q584.16 209.365 587.169 209.365 Q591.22 209.365 593.419 212.212 Q595.618 215.036 595.618 220.268 L595.618 235.916 L591.336 235.916 L591.336 220.407 Q591.336 216.68 590.016 214.874 Q588.697 213.069 585.989 213.069 Q582.679 213.069 580.757 215.268 Q578.836 217.467 578.836 221.263 L578.836 235.916 L574.554 235.916 L574.554 220.407 Q574.554 216.657 573.234 214.874 Q571.915 213.069 569.16 213.069 Q565.896 213.069 563.975 215.291 Q562.054 217.49 562.054 221.263 L562.054 235.916 L557.771 235.916 L557.771 209.99 L562.054 209.99 L562.054 214.018 Q563.512 211.633 565.549 210.499 Q567.586 209.365 570.387 209.365 Q573.211 209.365 575.179 210.8 Q577.169 212.235 578.118 214.967 Z" fill="#000000" fill-rule="nonzero" fill-opacity="1" /><path clip-path="url(#clip690)" d="M604.114 209.99 L608.373 209.99 L608.373 235.916 L604.114 235.916 L604.114 209.99 M604.114 199.897 L608.373 199.897 L608.373 205.291 L604.114 205.291 L604.114 199.897 Z" fill="#000000" fill-rule="nonzero" fill-opacity="1" /><path clip-path="url(#clip690)" d="M617.285 199.897 L621.544 199.897 L621.544 235.916 L617.285 235.916 L617.285 199.897 Z" fill="#000000" fill-rule="nonzero" fill-opacity="1" /><path clip-path="url(#clip690)" d="M642.238 222.883 Q637.076 222.883 635.086 224.064 Q633.095 225.244 633.095 228.092 Q633.095 230.36 634.576 231.703 Q636.081 233.022 638.65 233.022 Q642.192 233.022 644.322 230.522 Q646.474 227.999 646.474 223.832 L646.474 222.883 L642.238 222.883 M650.734 221.124 L650.734 235.916 L646.474 235.916 L646.474 231.981 Q645.016 234.342 642.84 235.476 Q640.664 236.587 637.516 236.587 Q633.535 236.587 631.174 234.365 Q628.836 232.119 628.836 228.369 Q628.836 223.994 631.752 221.772 Q634.692 219.55 640.502 219.55 L646.474 219.55 L646.474 219.133 Q646.474 216.194 644.53 214.596 Q642.609 212.976 639.113 212.976 Q636.891 212.976 634.785 213.508 Q632.678 214.041 630.734 215.106 L630.734 211.17 Q633.072 210.268 635.271 209.828 Q637.47 209.365 639.553 209.365 Q645.178 209.365 647.956 212.282 Q650.734 215.198 650.734 221.124 Z" fill="#000000" fill-rule="nonzero" fill-opacity="1" /><path clip-path="url(#clip690)" d="M674.53 213.971 Q673.812 213.555 672.956 213.37 Q672.122 213.161 671.104 213.161 Q667.493 213.161 665.548 215.522 Q663.627 217.86 663.627 222.258 L663.627 235.916 L659.345 235.916 L659.345 209.99 L663.627 209.99 L663.627 214.018 Q664.97 211.657 667.123 210.522 Q669.275 209.365 672.354 209.365 Q672.794 209.365 673.326 209.434 Q673.859 209.481 674.507 209.596 L674.53 213.971 Z" fill="#000000" fill-rule="nonzero" fill-opacity="1" /><path clip-path="url(#clip690)" d="M678.997 209.99 L683.257 209.99 L683.257 235.916 L678.997 235.916 L678.997 209.99 M678.997 199.897 L683.257 199.897 L683.257 205.291 L678.997 205.291 L678.997 199.897 Z" fill="#000000" fill-rule="nonzero" fill-opacity="1" /><path clip-path="url(#clip690)" d="M696.382 202.629 L696.382 209.99 L705.155 209.99 L705.155 213.3 L696.382 213.3 L696.382 227.374 Q696.382 230.545 697.238 231.448 Q698.118 232.351 700.78 232.351 L705.155 232.351 L705.155 235.916 L700.78 235.916 Q695.849 235.916 693.974 234.087 Q692.099 232.235 692.099 227.374 L692.099 213.3 L688.974 213.3 L688.974 209.99 L692.099 209.99 L692.099 202.629 L696.382 202.629 Z" fill="#000000" fill-rule="nonzero" fill-opacity="1" /><path clip-path="url(#clip690)" d="M721.544 238.323 Q719.738 242.953 718.025 244.365 Q716.312 245.777 713.442 245.777 L710.039 245.777 L710.039 242.212 L712.539 242.212 Q714.298 242.212 715.27 241.379 Q716.243 240.545 717.423 237.443 L718.187 235.499 L707.701 209.99 L712.215 209.99 L720.317 230.268 L728.418 209.99 L732.932 209.99 L721.544 238.323 Z" fill="#000000" fill-rule="nonzero" fill-opacity="1" /></svg>
