<?xml version="1.0" encoding="utf-8"?>
<svg xmlns="http://www.w3.org/2000/svg" xmlns:xlink="http://www.w3.org/1999/xlink" width="600" height="400" viewBox="0 0 2400 1600">
<defs>
  <clipPath id="clip590">
    <rect x="0" y="0" width="2400" height="1600"/>
  </clipPath>
</defs>
<path clip-path="url(#clip590)" d="M0 1600 L2400 1600 L2400 8.88178e-14 L0 8.88178e-14  Z" fill="#ffffff" fill-rule="evenodd" fill-opacity="1"/>
<defs>
  <clipPath id="clip591">
    <rect x="480" y="0" width="1681" height="1600"/>
  </clipPath>
</defs>
<path clip-path="url(#clip590)" d="M256.209 1423.18 L2352.76 1423.18 L2352.76 123.472 L256.209 123.472  Z" fill="#ffffff" fill-rule="evenodd" fill-opacity="1"/>
<defs>
  <clipPath id="clip592">
    <rect x="256" y="123" width="2098" height="1301"/>
  </clipPath>
</defs>
<polyline clip-path="url(#clip592)" style="stroke:#000000; stroke-linecap:round; stroke-linejoin:round; stroke-width:2; stroke-opacity:0.1; fill:none" points="313.565,1423.18 313.565,123.472 "/>
<polyline clip-path="url(#clip592)" style="stroke:#000000; stroke-linecap:round; stroke-linejoin:round; stroke-width:2; stroke-opacity:0.1; fill:none" points="808.529,1423.18 808.529,123.472 "/>
<polyline clip-path="url(#clip592)" style="stroke:#000000; stroke-linecap:round; stroke-linejoin:round; stroke-width:2; stroke-opacity:0.1; fill:none" points="1303.49,1423.18 1303.49,123.472 "/>
<polyline clip-path="url(#clip592)" style="stroke:#000000; stroke-linecap:round; stroke-linejoin:round; stroke-width:2; stroke-opacity:0.1; fill:none" points="1798.46,1423.18 1798.46,123.472 "/>
<polyline clip-path="url(#clip592)" style="stroke:#000000; stroke-linecap:round; stroke-linejoin:round; stroke-width:2; stroke-opacity:0.1; fill:none" points="2293.42,1423.18 2293.42,123.472 "/>
<polyline clip-path="url(#clip590)" style="stroke:#000000; stroke-linecap:round; stroke-linejoin:round; stroke-width:4; stroke-opacity:1; fill:none" points="256.209,1423.18 2352.76,1423.18 "/>
<polyline clip-path="url(#clip590)" style="stroke:#000000; stroke-linecap:round; stroke-linejoin:round; stroke-width:4; stroke-opacity:1; fill:none" points="313.565,1423.18 313.565,1404.28 "/>
<polyline clip-path="url(#clip590)" style="stroke:#000000; stroke-linecap:round; stroke-linejoin:round; stroke-width:4; stroke-opacity:1; fill:none" points="808.529,1423.18 808.529,1404.28 "/>
<polyline clip-path="url(#clip590)" style="stroke:#000000; stroke-linecap:round; stroke-linejoin:round; stroke-width:4; stroke-opacity:1; fill:none" points="1303.49,1423.18 1303.49,1404.28 "/>
<polyline clip-path="url(#clip590)" style="stroke:#000000; stroke-linecap:round; stroke-linejoin:round; stroke-width:4; stroke-opacity:1; fill:none" points="1798.46,1423.18 1798.46,1404.28 "/>
<polyline clip-path="url(#clip590)" style="stroke:#000000; stroke-linecap:round; stroke-linejoin:round; stroke-width:4; stroke-opacity:1; fill:none" points="2293.42,1423.18 2293.42,1404.28 "/>
<path clip-path="url(#clip590)" d="M313.565 1454.1 Q309.954 1454.1 308.125 1457.66 Q306.32 1461.2 306.32 1468.33 Q306.32 1475.44 308.125 1479.01 Q309.954 1482.55 313.565 1482.55 Q317.199 1482.55 319.005 1479.01 Q320.834 1475.44 320.834 1468.33 Q320.834 1461.2 319.005 1457.66 Q317.199 1454.1 313.565 1454.1 M313.565 1450.39 Q319.375 1450.39 322.431 1455 Q325.509 1459.58 325.509 1468.33 Q325.509 1477.06 322.431 1481.67 Q319.375 1486.25 313.565 1486.25 Q307.755 1486.25 304.676 1481.67 Q301.621 1477.06 301.621 1468.33 Q301.621 1459.58 304.676 1455 Q307.755 1450.39 313.565 1450.39 Z" fill="#000000" fill-rule="nonzero" fill-opacity="1" /><path clip-path="url(#clip590)" d="M772.221 1481.64 L788.54 1481.64 L788.54 1485.58 L766.596 1485.58 L766.596 1481.64 Q769.258 1478.89 773.841 1474.26 Q778.448 1469.61 779.628 1468.27 Q781.874 1465.74 782.753 1464.01 Q783.656 1462.25 783.656 1460.56 Q783.656 1457.8 781.712 1456.07 Q779.79 1454.33 776.689 1454.33 Q774.49 1454.33 772.036 1455.09 Q769.605 1455.86 766.828 1457.41 L766.828 1452.69 Q769.652 1451.55 772.105 1450.97 Q774.559 1450.39 776.596 1450.39 Q781.966 1450.39 785.161 1453.08 Q788.355 1455.77 788.355 1460.26 Q788.355 1462.39 787.545 1464.31 Q786.758 1466.2 784.652 1468.8 Q784.073 1469.47 780.971 1472.69 Q777.869 1475.88 772.221 1481.64 Z" fill="#000000" fill-rule="nonzero" fill-opacity="1" /><path clip-path="url(#clip590)" d="M798.401 1451.02 L816.758 1451.02 L816.758 1454.96 L802.684 1454.96 L802.684 1463.43 Q803.702 1463.08 804.721 1462.92 Q805.739 1462.73 806.758 1462.73 Q812.545 1462.73 815.924 1465.9 Q819.304 1469.08 819.304 1474.49 Q819.304 1480.07 815.832 1483.17 Q812.36 1486.25 806.04 1486.25 Q803.864 1486.25 801.596 1485.88 Q799.351 1485.51 796.943 1484.77 L796.943 1480.07 Q799.026 1481.2 801.249 1481.76 Q803.471 1482.32 805.948 1482.32 Q809.952 1482.32 812.29 1480.21 Q814.628 1478.1 814.628 1474.49 Q814.628 1470.88 812.29 1468.77 Q809.952 1466.67 805.948 1466.67 Q804.073 1466.67 802.198 1467.08 Q800.346 1467.5 798.401 1468.38 L798.401 1451.02 Z" fill="#000000" fill-rule="nonzero" fill-opacity="1" /><path clip-path="url(#clip590)" d="M838.517 1454.1 Q834.906 1454.1 833.077 1457.66 Q831.272 1461.2 831.272 1468.33 Q831.272 1475.44 833.077 1479.01 Q834.906 1482.55 838.517 1482.55 Q842.151 1482.55 843.957 1479.01 Q845.785 1475.44 845.785 1468.33 Q845.785 1461.2 843.957 1457.66 Q842.151 1454.1 838.517 1454.1 M838.517 1450.39 Q844.327 1450.39 847.383 1455 Q850.461 1459.58 850.461 1468.33 Q850.461 1477.06 847.383 1481.67 Q844.327 1486.25 838.517 1486.25 Q832.707 1486.25 829.628 1481.67 Q826.573 1477.06 826.573 1468.33 Q826.573 1459.58 829.628 1455 Q832.707 1450.39 838.517 1450.39 Z" fill="#000000" fill-rule="nonzero" fill-opacity="1" /><path clip-path="url(#clip590)" d="M1263.11 1451.02 L1281.47 1451.02 L1281.47 1454.96 L1267.39 1454.96 L1267.39 1463.43 Q1268.41 1463.08 1269.43 1462.92 Q1270.45 1462.73 1271.47 1462.73 Q1277.25 1462.73 1280.63 1465.9 Q1284.01 1469.08 1284.01 1474.49 Q1284.01 1480.07 1280.54 1483.17 Q1277.07 1486.25 1270.75 1486.25 Q1268.57 1486.25 1266.31 1485.88 Q1264.06 1485.51 1261.65 1484.77 L1261.65 1480.07 Q1263.74 1481.2 1265.96 1481.76 Q1268.18 1482.32 1270.66 1482.32 Q1274.66 1482.32 1277 1480.21 Q1279.34 1478.1 1279.34 1474.49 Q1279.34 1470.88 1277 1468.77 Q1274.66 1466.67 1270.66 1466.67 Q1268.78 1466.67 1266.91 1467.08 Q1265.06 1467.5 1263.11 1468.38 L1263.11 1451.02 Z" fill="#000000" fill-rule="nonzero" fill-opacity="1" /><path clip-path="url(#clip590)" d="M1303.23 1454.1 Q1299.62 1454.1 1297.79 1457.66 Q1295.98 1461.2 1295.98 1468.33 Q1295.98 1475.44 1297.79 1479.01 Q1299.62 1482.55 1303.23 1482.55 Q1306.86 1482.55 1308.67 1479.01 Q1310.49 1475.44 1310.49 1468.33 Q1310.49 1461.2 1308.67 1457.66 Q1306.86 1454.1 1303.23 1454.1 M1303.23 1450.39 Q1309.04 1450.39 1312.09 1455 Q1315.17 1459.58 1315.17 1468.33 Q1315.17 1477.06 1312.09 1481.67 Q1309.04 1486.25 1303.23 1486.25 Q1297.42 1486.25 1294.34 1481.67 Q1291.28 1477.06 1291.28 1468.33 Q1291.28 1459.58 1294.34 1455 Q1297.42 1450.39 1303.23 1450.39 Z" fill="#000000" fill-rule="nonzero" fill-opacity="1" /><path clip-path="url(#clip590)" d="M1333.39 1454.1 Q1329.78 1454.1 1327.95 1457.66 Q1326.14 1461.2 1326.14 1468.33 Q1326.14 1475.44 1327.95 1479.01 Q1329.78 1482.55 1333.39 1482.55 Q1337.02 1482.55 1338.83 1479.01 Q1340.66 1475.44 1340.66 1468.33 Q1340.66 1461.2 1338.83 1457.66 Q1337.02 1454.1 1333.39 1454.1 M1333.39 1450.39 Q1339.2 1450.39 1342.25 1455 Q1345.33 1459.58 1345.33 1468.33 Q1345.33 1477.06 1342.25 1481.67 Q1339.2 1486.25 1333.39 1486.25 Q1327.58 1486.25 1324.5 1481.67 Q1321.44 1477.06 1321.44 1468.33 Q1321.44 1459.58 1324.5 1455 Q1327.58 1450.39 1333.39 1450.39 Z" fill="#000000" fill-rule="nonzero" fill-opacity="1" /><path clip-path="url(#clip590)" d="M1756.73 1451.02 L1778.95 1451.02 L1778.95 1453.01 L1766.41 1485.58 L1761.52 1485.58 L1773.33 1454.96 L1756.73 1454.96 L1756.73 1451.02 Z" fill="#000000" fill-rule="nonzero" fill-opacity="1" /><path clip-path="url(#clip590)" d="M1788.12 1451.02 L1806.48 1451.02 L1806.48 1454.96 L1792.4 1454.96 L1792.4 1463.43 Q1793.42 1463.08 1794.44 1462.92 Q1795.46 1462.73 1796.48 1462.73 Q1802.26 1462.73 1805.64 1465.9 Q1809.02 1469.08 1809.02 1474.49 Q1809.02 1480.07 1805.55 1483.17 Q1802.08 1486.25 1795.76 1486.25 Q1793.58 1486.25 1791.31 1485.88 Q1789.07 1485.51 1786.66 1484.77 L1786.66 1480.07 Q1788.75 1481.2 1790.97 1481.76 Q1793.19 1482.32 1795.67 1482.32 Q1799.67 1482.32 1802.01 1480.21 Q1804.35 1478.1 1804.35 1474.49 Q1804.35 1470.88 1802.01 1468.77 Q1799.67 1466.67 1795.67 1466.67 Q1793.79 1466.67 1791.92 1467.08 Q1790.06 1467.5 1788.12 1468.38 L1788.12 1451.02 Z" fill="#000000" fill-rule="nonzero" fill-opacity="1" /><path clip-path="url(#clip590)" d="M1828.24 1454.1 Q1824.62 1454.1 1822.8 1457.66 Q1820.99 1461.2 1820.99 1468.33 Q1820.99 1475.44 1822.8 1479.01 Q1824.62 1482.55 1828.24 1482.55 Q1831.87 1482.55 1833.68 1479.01 Q1835.5 1475.44 1835.5 1468.33 Q1835.5 1461.2 1833.68 1457.66 Q1831.87 1454.1 1828.24 1454.1 M1828.24 1450.39 Q1834.05 1450.39 1837.1 1455 Q1840.18 1459.58 1840.18 1468.33 Q1840.18 1477.06 1837.1 1481.67 Q1834.05 1486.25 1828.24 1486.25 Q1822.43 1486.25 1819.35 1481.67 Q1816.29 1477.06 1816.29 1468.33 Q1816.29 1459.58 1819.35 1455 Q1822.43 1450.39 1828.24 1450.39 Z" fill="#000000" fill-rule="nonzero" fill-opacity="1" /><path clip-path="url(#clip590)" d="M2237.95 1481.64 L2245.58 1481.64 L2245.58 1455.28 L2237.27 1456.95 L2237.27 1452.69 L2245.54 1451.02 L2250.21 1451.02 L2250.21 1481.64 L2257.85 1481.64 L2257.85 1485.58 L2237.95 1485.58 L2237.95 1481.64 Z" fill="#000000" fill-rule="nonzero" fill-opacity="1" /><path clip-path="url(#clip590)" d="M2277.3 1454.1 Q2273.69 1454.1 2271.86 1457.66 Q2270.05 1461.2 2270.05 1468.33 Q2270.05 1475.44 2271.86 1479.01 Q2273.69 1482.55 2277.3 1482.55 Q2280.93 1482.55 2282.74 1479.01 Q2284.57 1475.44 2284.57 1468.33 Q2284.57 1461.2 2282.74 1457.66 Q2280.93 1454.1 2277.3 1454.1 M2277.3 1450.39 Q2283.11 1450.39 2286.16 1455 Q2289.24 1459.58 2289.24 1468.33 Q2289.24 1477.06 2286.16 1481.67 Q2283.11 1486.25 2277.3 1486.25 Q2271.49 1486.25 2268.41 1481.67 Q2265.35 1477.06 2265.35 1468.33 Q2265.35 1459.58 2268.41 1455 Q2271.49 1450.39 2277.3 1450.39 Z" fill="#000000" fill-rule="nonzero" fill-opacity="1" /><path clip-path="url(#clip590)" d="M2307.46 1454.1 Q2303.85 1454.1 2302.02 1457.66 Q2300.21 1461.2 2300.21 1468.33 Q2300.21 1475.44 2302.02 1479.01 Q2303.85 1482.55 2307.46 1482.55 Q2311.09 1482.55 2312.9 1479.01 Q2314.73 1475.44 2314.73 1468.33 Q2314.73 1461.2 2312.9 1457.66 Q2311.09 1454.1 2307.46 1454.1 M2307.46 1450.39 Q2313.27 1450.39 2316.32 1455 Q2319.4 1459.58 2319.4 1468.33 Q2319.4 1477.06 2316.32 1481.67 Q2313.27 1486.25 2307.46 1486.25 Q2301.65 1486.25 2298.57 1481.67 Q2295.51 1477.06 2295.51 1468.33 Q2295.51 1459.58 2298.57 1455 Q2301.65 1450.39 2307.46 1450.39 Z" fill="#000000" fill-rule="nonzero" fill-opacity="1" /><path clip-path="url(#clip590)" d="M2337.62 1454.1 Q2334.01 1454.1 2332.18 1457.66 Q2330.38 1461.2 2330.38 1468.33 Q2330.38 1475.44 2332.18 1479.01 Q2334.01 1482.55 2337.62 1482.55 Q2341.26 1482.55 2343.06 1479.01 Q2344.89 1475.44 2344.89 1468.33 Q2344.89 1461.2 2343.06 1457.66 Q2341.26 1454.1 2337.62 1454.1 M2337.62 1450.39 Q2343.43 1450.39 2346.49 1455 Q2349.57 1459.58 2349.57 1468.33 Q2349.57 1477.06 2346.49 1481.67 Q2343.43 1486.25 2337.62 1486.25 Q2331.81 1486.25 2328.73 1481.67 Q2325.68 1477.06 2325.68 1468.33 Q2325.68 1459.58 2328.73 1455 Q2331.81 1450.39 2337.62 1450.39 Z" fill="#000000" fill-rule="nonzero" fill-opacity="1" /><path clip-path="url(#clip590)" d="M1268.33 1524.18 L1268.33 1530.96 Q1265.08 1527.94 1261.39 1526.44 Q1257.73 1524.95 1253.59 1524.95 Q1245.44 1524.95 1241.11 1529.95 Q1236.78 1534.91 1236.78 1544.33 Q1236.78 1553.72 1241.11 1558.72 Q1245.44 1563.68 1253.59 1563.68 Q1257.73 1563.68 1261.39 1562.19 Q1265.08 1560.69 1268.33 1557.67 L1268.33 1564.38 Q1264.95 1566.68 1261.16 1567.82 Q1257.41 1568.97 1253.21 1568.97 Q1242.42 1568.97 1236.21 1562.38 Q1230 1555.76 1230 1544.33 Q1230 1532.87 1236.21 1526.28 Q1242.42 1519.66 1253.21 1519.66 Q1257.47 1519.66 1261.23 1520.81 Q1265.01 1521.92 1268.33 1524.18 Z" fill="#000000" fill-rule="nonzero" fill-opacity="1" /><path clip-path="url(#clip590)" d="M1308.49 1548.76 L1308.49 1551.62 L1281.57 1551.62 Q1281.95 1557.67 1285.19 1560.85 Q1288.47 1564 1294.3 1564 Q1297.67 1564 1300.82 1563.17 Q1304 1562.35 1307.12 1560.69 L1307.12 1566.23 Q1303.97 1567.57 1300.66 1568.27 Q1297.35 1568.97 1293.95 1568.97 Q1285.42 1568.97 1280.42 1564 Q1275.45 1559.04 1275.45 1550.57 Q1275.45 1541.82 1280.17 1536.69 Q1284.91 1531.54 1292.93 1531.54 Q1300.12 1531.54 1304.29 1536.18 Q1308.49 1540.8 1308.49 1548.76 M1302.64 1547.04 Q1302.57 1542.23 1299.93 1539.37 Q1297.32 1536.5 1292.99 1536.5 Q1288.09 1536.5 1285.13 1539.27 Q1282.2 1542.04 1281.76 1547.07 L1302.64 1547.04 Z" fill="#000000" fill-rule="nonzero" fill-opacity="1" /><path clip-path="url(#clip590)" d="M1318.1 1518.52 L1323.96 1518.52 L1323.96 1568.04 L1318.1 1568.04 L1318.1 1518.52 Z" fill="#000000" fill-rule="nonzero" fill-opacity="1" /><path clip-path="url(#clip590)" d="M1336.22 1518.52 L1342.07 1518.52 L1342.07 1568.04 L1336.22 1568.04 L1336.22 1518.52 Z" fill="#000000" fill-rule="nonzero" fill-opacity="1" /><path clip-path="url(#clip590)" d="M1377.05 1533.45 L1377.05 1538.98 Q1374.57 1537.71 1371.9 1537.07 Q1369.22 1536.44 1366.36 1536.44 Q1362 1536.44 1359.8 1537.77 Q1357.64 1539.11 1357.64 1541.79 Q1357.64 1543.82 1359.2 1545 Q1360.76 1546.15 1365.47 1547.2 L1367.47 1547.64 Q1373.71 1548.98 1376.32 1551.43 Q1378.96 1553.85 1378.96 1558.21 Q1378.96 1563.17 1375.01 1566.07 Q1371.1 1568.97 1364.22 1568.97 Q1361.36 1568.97 1358.24 1568.39 Q1355.15 1567.85 1351.72 1566.74 L1351.72 1560.69 Q1354.96 1562.38 1358.11 1563.24 Q1361.26 1564.07 1364.35 1564.07 Q1368.49 1564.07 1370.72 1562.66 Q1372.95 1561.23 1372.95 1558.65 Q1372.95 1556.27 1371.32 1554.99 Q1369.73 1553.72 1364.29 1552.54 L1362.25 1552.07 Q1356.81 1550.92 1354.39 1548.56 Q1351.97 1546.18 1351.97 1542.04 Q1351.97 1537.01 1355.54 1534.27 Q1359.1 1531.54 1365.66 1531.54 Q1368.9 1531.54 1371.77 1532.01 Q1374.63 1532.49 1377.05 1533.45 Z" fill="#000000" fill-rule="nonzero" fill-opacity="1" /><polyline clip-path="url(#clip592)" style="stroke:#000000; stroke-linecap:round; stroke-linejoin:round; stroke-width:2; stroke-opacity:0.1; fill:none" points="256.209,1224.41 2352.76,1224.41 "/>
<polyline clip-path="url(#clip592)" style="stroke:#000000; stroke-linecap:round; stroke-linejoin:round; stroke-width:2; stroke-opacity:0.1; fill:none" points="256.209,866.489 2352.76,866.489 "/>
<polyline clip-path="url(#clip592)" style="stroke:#000000; stroke-linecap:round; stroke-linejoin:round; stroke-width:2; stroke-opacity:0.1; fill:none" points="256.209,508.564 2352.76,508.564 "/>
<polyline clip-path="url(#clip592)" style="stroke:#000000; stroke-linecap:round; stroke-linejoin:round; stroke-width:2; stroke-opacity:0.1; fill:none" points="256.209,150.639 2352.76,150.639 "/>
<polyline clip-path="url(#clip590)" style="stroke:#000000; stroke-linecap:round; stroke-linejoin:round; stroke-width:4; stroke-opacity:1; fill:none" points="256.209,1423.18 256.209,123.472 "/>
<polyline clip-path="url(#clip590)" style="stroke:#000000; stroke-linecap:round; stroke-linejoin:round; stroke-width:4; stroke-opacity:1; fill:none" points="256.209,1224.41 275.106,1224.41 "/>
<polyline clip-path="url(#clip590)" style="stroke:#000000; stroke-linecap:round; stroke-linejoin:round; stroke-width:4; stroke-opacity:1; fill:none" points="256.209,866.489 275.106,866.489 "/>
<polyline clip-path="url(#clip590)" style="stroke:#000000; stroke-linecap:round; stroke-linejoin:round; stroke-width:4; stroke-opacity:1; fill:none" points="256.209,508.564 275.106,508.564 "/>
<polyline clip-path="url(#clip590)" style="stroke:#000000; stroke-linecap:round; stroke-linejoin:round; stroke-width:4; stroke-opacity:1; fill:none" points="256.209,150.639 275.106,150.639 "/>
<path clip-path="url(#clip590)" d="M114.26 1224.87 L143.936 1224.87 L143.936 1228.8 L114.26 1228.8 L114.26 1224.87 Z" fill="#000000" fill-rule="nonzero" fill-opacity="1" /><path clip-path="url(#clip590)" d="M164.028 1210.21 Q160.417 1210.21 158.589 1213.78 Q156.783 1217.32 156.783 1224.45 Q156.783 1231.56 158.589 1235.12 Q160.417 1238.66 164.028 1238.66 Q167.663 1238.66 169.468 1235.12 Q171.297 1231.56 171.297 1224.45 Q171.297 1217.32 169.468 1213.78 Q167.663 1210.21 164.028 1210.21 M164.028 1206.51 Q169.839 1206.51 172.894 1211.12 Q175.973 1215.7 175.973 1224.45 Q175.973 1233.18 172.894 1237.78 Q169.839 1242.37 164.028 1242.37 Q158.218 1242.37 155.14 1237.78 Q152.084 1233.18 152.084 1224.45 Q152.084 1215.7 155.14 1211.12 Q158.218 1206.51 164.028 1206.51 Z" fill="#000000" fill-rule="nonzero" fill-opacity="1" /><path clip-path="url(#clip590)" d="M184.19 1235.81 L189.075 1235.81 L189.075 1241.69 L184.19 1241.69 L184.19 1235.81 Z" fill="#000000" fill-rule="nonzero" fill-opacity="1" /><path clip-path="url(#clip590)" d="M199.306 1207.13 L217.662 1207.13 L217.662 1211.07 L203.588 1211.07 L203.588 1219.54 Q204.607 1219.19 205.625 1219.03 Q206.644 1218.85 207.662 1218.85 Q213.449 1218.85 216.829 1222.02 Q220.209 1225.19 220.209 1230.61 Q220.209 1236.19 216.736 1239.29 Q213.264 1242.37 206.945 1242.37 Q204.769 1242.37 202.5 1242 Q200.255 1241.62 197.848 1240.88 L197.848 1236.19 Q199.931 1237.32 202.153 1237.87 Q204.375 1238.43 206.852 1238.43 Q210.857 1238.43 213.195 1236.32 Q215.533 1234.22 215.533 1230.61 Q215.533 1227 213.195 1224.89 Q210.857 1222.78 206.852 1222.78 Q204.977 1222.78 203.102 1223.2 Q201.25 1223.62 199.306 1224.5 L199.306 1207.13 Z" fill="#000000" fill-rule="nonzero" fill-opacity="1" /><path clip-path="url(#clip590)" d="M163.033 852.288 Q159.422 852.288 157.593 855.853 Q155.788 859.394 155.788 866.524 Q155.788 873.63 157.593 877.195 Q159.422 880.737 163.033 880.737 Q166.667 880.737 168.473 877.195 Q170.302 873.63 170.302 866.524 Q170.302 859.394 168.473 855.853 Q166.667 852.288 163.033 852.288 M163.033 848.584 Q168.843 848.584 171.899 853.191 Q174.977 857.774 174.977 866.524 Q174.977 875.251 171.899 879.857 Q168.843 884.441 163.033 884.441 Q157.223 884.441 154.144 879.857 Q151.089 875.251 151.089 866.524 Q151.089 857.774 154.144 853.191 Q157.223 848.584 163.033 848.584 Z" fill="#000000" fill-rule="nonzero" fill-opacity="1" /><path clip-path="url(#clip590)" d="M183.195 877.89 L188.079 877.89 L188.079 883.769 L183.195 883.769 L183.195 877.89 Z" fill="#000000" fill-rule="nonzero" fill-opacity="1" /><path clip-path="url(#clip590)" d="M208.264 852.288 Q204.653 852.288 202.824 855.853 Q201.019 859.394 201.019 866.524 Q201.019 873.63 202.824 877.195 Q204.653 880.737 208.264 880.737 Q211.899 880.737 213.704 877.195 Q215.533 873.63 215.533 866.524 Q215.533 859.394 213.704 855.853 Q211.899 852.288 208.264 852.288 M208.264 848.584 Q214.074 848.584 217.13 853.191 Q220.209 857.774 220.209 866.524 Q220.209 875.251 217.13 879.857 Q214.074 884.441 208.264 884.441 Q202.454 884.441 199.375 879.857 Q196.32 875.251 196.32 866.524 Q196.32 857.774 199.375 853.191 Q202.454 848.584 208.264 848.584 Z" fill="#000000" fill-rule="nonzero" fill-opacity="1" /><path clip-path="url(#clip590)" d="M164.028 494.363 Q160.417 494.363 158.589 497.928 Q156.783 501.469 156.783 508.599 Q156.783 515.705 158.589 519.27 Q160.417 522.812 164.028 522.812 Q167.663 522.812 169.468 519.27 Q171.297 515.705 171.297 508.599 Q171.297 501.469 169.468 497.928 Q167.663 494.363 164.028 494.363 M164.028 490.659 Q169.839 490.659 172.894 495.266 Q175.973 499.849 175.973 508.599 Q175.973 517.326 172.894 521.932 Q169.839 526.515 164.028 526.515 Q158.218 526.515 155.14 521.932 Q152.084 517.326 152.084 508.599 Q152.084 499.849 155.14 495.266 Q158.218 490.659 164.028 490.659 Z" fill="#000000" fill-rule="nonzero" fill-opacity="1" /><path clip-path="url(#clip590)" d="M184.19 519.965 L189.075 519.965 L189.075 525.844 L184.19 525.844 L184.19 519.965 Z" fill="#000000" fill-rule="nonzero" fill-opacity="1" /><path clip-path="url(#clip590)" d="M199.306 491.284 L217.662 491.284 L217.662 495.219 L203.588 495.219 L203.588 503.691 Q204.607 503.344 205.625 503.182 Q206.644 502.997 207.662 502.997 Q213.449 502.997 216.829 506.168 Q220.209 509.34 220.209 514.756 Q220.209 520.335 216.736 523.437 Q213.264 526.515 206.945 526.515 Q204.769 526.515 202.5 526.145 Q200.255 525.775 197.848 525.034 L197.848 520.335 Q199.931 521.469 202.153 522.025 Q204.375 522.58 206.852 522.58 Q210.857 522.58 213.195 520.474 Q215.533 518.367 215.533 514.756 Q215.533 511.145 213.195 509.039 Q210.857 506.932 206.852 506.932 Q204.977 506.932 203.102 507.349 Q201.25 507.766 199.306 508.645 L199.306 491.284 Z" fill="#000000" fill-rule="nonzero" fill-opacity="1" /><path clip-path="url(#clip590)" d="M153.843 163.984 L161.482 163.984 L161.482 137.618 L153.172 139.285 L153.172 135.026 L161.436 133.359 L166.112 133.359 L166.112 163.984 L173.751 163.984 L173.751 167.919 L153.843 167.919 L153.843 163.984 Z" fill="#000000" fill-rule="nonzero" fill-opacity="1" /><path clip-path="url(#clip590)" d="M183.195 162.039 L188.079 162.039 L188.079 167.919 L183.195 167.919 L183.195 162.039 Z" fill="#000000" fill-rule="nonzero" fill-opacity="1" /><path clip-path="url(#clip590)" d="M208.264 136.438 Q204.653 136.438 202.824 140.003 Q201.019 143.544 201.019 150.674 Q201.019 157.78 202.824 161.345 Q204.653 164.887 208.264 164.887 Q211.899 164.887 213.704 161.345 Q215.533 157.78 215.533 150.674 Q215.533 143.544 213.704 140.003 Q211.899 136.438 208.264 136.438 M208.264 132.734 Q214.074 132.734 217.13 137.34 Q220.209 141.924 220.209 150.674 Q220.209 159.401 217.13 164.007 Q214.074 168.59 208.264 168.59 Q202.454 168.59 199.375 164.007 Q196.32 159.401 196.32 150.674 Q196.32 141.924 199.375 137.34 Q202.454 132.734 208.264 132.734 Z" fill="#000000" fill-rule="nonzero" fill-opacity="1" /><path clip-path="url(#clip590)" d="M18.0438 893.717 L24.314 893.717 Q22.5634 897.378 21.704 900.624 Q20.8447 903.871 20.8447 906.894 Q20.8447 912.146 22.8817 915.011 Q24.9187 917.843 28.6745 917.843 Q31.8255 917.843 33.4488 915.966 Q35.0402 914.056 36.0269 908.772 L36.8226 904.889 Q38.1912 897.696 41.6605 894.29 Q45.098 890.853 50.8908 890.853 Q57.7976 890.853 61.3624 895.5 Q64.9272 900.115 64.9272 909.059 Q64.9272 912.433 64.1633 916.252 Q63.3994 920.04 61.9035 924.114 L55.2831 924.114 Q57.4793 920.199 58.5933 916.443 Q59.7073 912.687 59.7073 909.059 Q59.7073 903.552 57.543 900.561 Q55.3786 897.569 51.3682 897.569 Q47.8671 897.569 45.8937 899.733 Q43.9204 901.866 42.9337 906.767 L42.1698 910.682 Q40.7375 917.875 37.682 921.09 Q34.6264 924.305 29.1837 924.305 Q22.8817 924.305 19.2532 919.88 Q15.6248 915.424 15.6248 907.626 Q15.6248 904.284 16.2295 900.815 Q16.8343 897.346 18.0438 893.717 Z" fill="#000000" fill-rule="nonzero" fill-opacity="1" /><path clip-path="url(#clip590)" d="M28.3562 881.081 L28.3562 875.225 L64.0042 875.225 L64.0042 881.081 L28.3562 881.081 M14.479 881.081 L14.479 875.225 L21.895 875.225 L21.895 881.081 L14.479 881.081 Z" fill="#000000" fill-rule="nonzero" fill-opacity="1" /><path clip-path="url(#clip590)" d="M35.1993 835.217 Q31.2526 833.02 29.3747 829.965 Q27.4968 826.909 27.4968 822.772 Q27.4968 817.202 31.4117 814.178 Q35.2948 811.154 42.4881 811.154 L64.0042 811.154 L64.0042 817.042 L42.679 817.042 Q37.5546 817.042 35.072 818.857 Q32.5894 820.671 32.5894 824.395 Q32.5894 828.946 35.6131 831.588 Q38.6368 834.23 43.8567 834.23 L64.0042 834.23 L64.0042 840.118 L42.679 840.118 Q37.5228 840.118 35.072 841.932 Q32.5894 843.747 32.5894 847.534 Q32.5894 852.022 35.6449 854.664 Q38.6686 857.306 43.8567 857.306 L64.0042 857.306 L64.0042 863.194 L28.3562 863.194 L28.3562 857.306 L33.8944 857.306 Q30.616 855.3 29.0564 852.499 Q27.4968 849.699 27.4968 845.847 Q27.4968 841.964 29.4702 839.259 Q31.4436 836.522 35.1993 835.217 Z" fill="#000000" fill-rule="nonzero" fill-opacity="1" /><path clip-path="url(#clip590)" d="M28.3562 799.473 L28.3562 793.617 L64.0042 793.617 L64.0042 799.473 L28.3562 799.473 M14.479 799.473 L14.479 793.617 L21.895 793.617 L21.895 799.473 L14.479 799.473 Z" fill="#000000" fill-rule="nonzero" fill-opacity="1" /><path clip-path="url(#clip590)" d="M14.479 781.363 L14.479 775.506 L64.0042 775.506 L64.0042 781.363 L14.479 781.363 Z" fill="#000000" fill-rule="nonzero" fill-opacity="1" /><path clip-path="url(#clip590)" d="M46.0847 747.052 Q46.0847 754.149 47.7079 756.887 Q49.3312 759.624 53.2461 759.624 Q56.3653 759.624 58.2114 757.587 Q60.0256 755.518 60.0256 751.985 Q60.0256 747.115 56.5881 744.187 Q53.1188 741.227 47.3897 741.227 L46.0847 741.227 L46.0847 747.052 M43.6657 735.37 L64.0042 735.37 L64.0042 741.227 L58.5933 741.227 Q61.8398 743.232 63.3994 746.224 Q64.9272 749.216 64.9272 753.545 Q64.9272 759.019 61.8716 762.266 Q58.7843 765.48 53.6281 765.48 Q47.6125 765.48 44.5569 761.47 Q41.5014 757.428 41.5014 749.439 L41.5014 741.227 L40.9285 741.227 Q36.8862 741.227 34.6901 743.901 Q32.4621 746.542 32.4621 751.348 Q32.4621 754.404 33.1941 757.3 Q33.9262 760.197 35.3903 762.87 L29.9795 762.87 Q28.7381 759.656 28.1334 756.632 Q27.4968 753.608 27.4968 750.744 Q27.4968 743.009 31.5072 739.19 Q35.5176 735.37 43.6657 735.37 Z" fill="#000000" fill-rule="nonzero" fill-opacity="1" /><path clip-path="url(#clip590)" d="M33.8307 702.651 Q33.2578 703.637 33.0032 704.815 Q32.7167 705.961 32.7167 707.361 Q32.7167 712.327 35.9632 715 Q39.1779 717.642 45.2253 717.642 L64.0042 717.642 L64.0042 723.53 L28.3562 723.53 L28.3562 717.642 L33.8944 717.642 Q30.6479 715.796 29.0883 712.836 Q27.4968 709.876 27.4968 705.643 Q27.4968 705.038 27.5923 704.306 Q27.656 703.574 27.8151 702.683 L33.8307 702.651 Z" fill="#000000" fill-rule="nonzero" fill-opacity="1" /><path clip-path="url(#clip590)" d="M28.3562 696.508 L28.3562 690.651 L64.0042 690.651 L64.0042 696.508 L28.3562 696.508 M14.479 696.508 L14.479 690.651 L21.895 690.651 L21.895 696.508 L14.479 696.508 Z" fill="#000000" fill-rule="nonzero" fill-opacity="1" /><path clip-path="url(#clip590)" d="M18.2347 672.605 L28.3562 672.605 L28.3562 660.542 L32.9077 660.542 L32.9077 672.605 L52.2594 672.605 Q56.6199 672.605 57.8613 671.427 Q59.1026 670.217 59.1026 666.557 L59.1026 660.542 L64.0042 660.542 L64.0042 666.557 Q64.0042 673.337 61.4897 675.915 Q58.9434 678.493 52.2594 678.493 L32.9077 678.493 L32.9077 682.79 L28.3562 682.79 L28.3562 678.493 L18.2347 678.493 L18.2347 672.605 Z" fill="#000000" fill-rule="nonzero" fill-opacity="1" /><path clip-path="url(#clip590)" d="M67.3143 638.007 Q73.68 640.49 75.6216 642.845 Q77.5631 645.2 77.5631 649.147 L77.5631 653.826 L72.6615 653.826 L72.6615 650.388 Q72.6615 647.969 71.5157 646.633 Q70.3699 645.296 66.1048 643.672 L63.4312 642.622 L28.3562 657.04 L28.3562 650.834 L56.238 639.694 L28.3562 628.554 L28.3562 622.347 L67.3143 638.007 Z" fill="#000000" fill-rule="nonzero" fill-opacity="1" /><path clip-path="url(#clip590)" d="M422.945 14.0809 L422.945 22.0612 Q418.286 19.8332 414.154 18.7395 Q410.022 17.6457 406.174 17.6457 Q399.49 17.6457 395.844 20.2383 Q392.239 22.8309 392.239 27.611 Q392.239 31.6214 394.629 33.6873 Q397.059 35.7128 403.784 36.9686 L408.726 37.9813 Q417.881 39.7232 422.216 44.1387 Q426.591 48.5136 426.591 55.8863 Q426.591 64.6767 420.676 69.2137 Q414.802 73.7508 403.419 73.7508 Q399.125 73.7508 394.264 72.7785 Q389.444 71.8063 384.259 69.9024 L384.259 61.4765 Q389.241 64.2716 394.021 65.6895 Q398.801 67.1073 403.419 67.1073 Q410.427 67.1073 414.235 64.3527 Q418.043 61.598 418.043 56.4939 Q418.043 52.0379 415.289 49.5264 Q412.574 47.0148 406.336 45.759 L401.353 44.7868 Q392.198 42.9639 388.107 39.075 Q384.016 35.1862 384.016 28.2591 Q384.016 20.2383 389.646 15.6203 Q395.318 11.0023 405.242 11.0023 Q409.496 11.0023 413.911 11.7719 Q418.327 12.5416 422.945 14.0809 Z" fill="#000000" fill-rule="nonzero" fill-opacity="1" /><path clip-path="url(#clip590)" d="M456.608 32.4315 Q450.612 32.4315 447.129 37.1306 Q443.645 41.7891 443.645 49.9314 Q443.645 58.0738 447.088 62.7728 Q450.572 67.4314 456.608 67.4314 Q462.563 67.4314 466.046 62.7323 Q469.53 58.0333 469.53 49.9314 Q469.53 41.8701 466.046 37.1711 Q462.563 32.4315 456.608 32.4315 M456.608 26.1121 Q466.33 26.1121 471.88 32.4315 Q477.429 38.7509 477.429 49.9314 Q477.429 61.0714 471.88 67.4314 Q466.33 73.7508 456.608 73.7508 Q446.845 73.7508 441.295 67.4314 Q435.786 61.0714 435.786 49.9314 Q435.786 38.7509 441.295 32.4315 Q446.845 26.1121 456.608 26.1121 Z" fill="#000000" fill-rule="nonzero" fill-opacity="1" /><path clip-path="url(#clip590)" d="M516.075 34.1734 Q514.819 33.4443 513.32 33.1202 Q511.862 32.7556 510.08 32.7556 Q503.76 32.7556 500.358 36.8875 Q496.995 40.9789 496.995 48.6757 L496.995 72.576 L489.501 72.576 L489.501 27.2059 L496.995 27.2059 L496.995 34.2544 Q499.345 30.1225 503.112 28.1376 Q506.879 26.1121 512.267 26.1121 Q513.037 26.1121 513.969 26.2337 Q514.9 26.3147 516.035 26.5172 L516.075 34.1734 Z" fill="#000000" fill-rule="nonzero" fill-opacity="1" /><path clip-path="url(#clip590)" d="M531.266 14.324 L531.266 27.2059 L546.619 27.2059 L546.619 32.9987 L531.266 32.9987 L531.266 57.6282 Q531.266 63.1779 532.765 64.7578 Q534.304 66.3376 538.963 66.3376 L546.619 66.3376 L546.619 72.576 L538.963 72.576 Q530.334 72.576 527.053 69.3758 Q523.772 66.1351 523.772 57.6282 L523.772 32.9987 L518.303 32.9987 L518.303 27.2059 L523.772 27.2059 L523.772 14.324 L531.266 14.324 Z" fill="#000000" fill-rule="nonzero" fill-opacity="1" /><path clip-path="url(#clip590)" d="M595.23 48.0275 L595.23 51.6733 L560.959 51.6733 Q561.445 59.3701 565.577 63.421 Q569.75 67.4314 577.163 67.4314 Q581.457 67.4314 585.467 66.3781 Q589.518 65.3249 593.488 63.2184 L593.488 70.267 Q589.477 71.9684 585.264 72.8596 Q581.052 73.7508 576.717 73.7508 Q565.861 73.7508 559.501 67.4314 Q553.181 61.1119 553.181 50.3365 Q553.181 39.1965 559.177 32.6746 Q565.213 26.1121 575.421 26.1121 Q584.576 26.1121 589.883 32.0264 Q595.23 37.9003 595.23 48.0275 M587.776 45.84 Q587.695 39.7232 584.333 36.0774 Q581.011 32.4315 575.502 32.4315 Q569.263 32.4315 565.496 35.9558 Q561.769 39.4801 561.202 45.8805 L587.776 45.84 Z" fill="#000000" fill-rule="nonzero" fill-opacity="1" /><path clip-path="url(#clip590)" d="M637.319 34.0924 L637.319 9.54393 L644.772 9.54393 L644.772 72.576 L637.319 72.576 L637.319 65.7705 Q634.969 69.8214 631.364 71.8063 Q627.799 73.7508 622.776 73.7508 Q614.553 73.7508 609.367 67.1883 Q604.223 60.6258 604.223 49.9314 Q604.223 39.2371 609.367 32.6746 Q614.553 26.1121 622.776 26.1121 Q627.799 26.1121 631.364 28.0971 Q634.969 30.0415 637.319 34.0924 M611.919 49.9314 Q611.919 58.1548 615.282 62.8538 Q618.684 67.5124 624.599 67.5124 Q630.513 67.5124 633.916 62.8538 Q637.319 58.1548 637.319 49.9314 Q637.319 41.7081 633.916 37.0496 Q630.513 32.3505 624.599 32.3505 Q618.684 32.3505 615.282 37.0496 Q611.919 41.7081 611.919 49.9314 Z" fill="#000000" fill-rule="nonzero" fill-opacity="1" /><path clip-path="url(#clip590)" d="M719.147 28.9478 L719.147 35.9153 Q715.987 34.1734 712.787 33.3227 Q709.627 32.4315 706.387 32.4315 Q699.135 32.4315 695.125 37.0496 Q691.115 41.6271 691.115 49.9314 Q691.115 58.2358 695.125 62.8538 Q699.135 67.4314 706.387 67.4314 Q709.627 67.4314 712.787 66.5807 Q715.987 65.6895 719.147 63.9476 L719.147 70.8341 Q716.028 72.2924 712.665 73.0216 Q709.344 73.7508 705.576 73.7508 Q695.328 73.7508 689.292 67.3098 Q683.256 60.8689 683.256 49.9314 Q683.256 38.832 689.332 32.472 Q695.449 26.1121 706.062 26.1121 Q709.506 26.1121 712.787 26.8413 Q716.068 27.5299 719.147 28.9478 Z" fill="#000000" fill-rule="nonzero" fill-opacity="1" /><path clip-path="url(#clip590)" d="M749.691 32.4315 Q743.695 32.4315 740.212 37.1306 Q736.728 41.7891 736.728 49.9314 Q736.728 58.0738 740.171 62.7728 Q743.655 67.4314 749.691 67.4314 Q755.646 67.4314 759.129 62.7323 Q762.613 58.0333 762.613 49.9314 Q762.613 41.8701 759.129 37.1711 Q755.646 32.4315 749.691 32.4315 M749.691 26.1121 Q759.413 26.1121 764.963 32.4315 Q770.512 38.7509 770.512 49.9314 Q770.512 61.0714 764.963 67.4314 Q759.413 73.7508 749.691 73.7508 Q739.928 73.7508 734.378 67.4314 Q728.869 61.0714 728.869 49.9314 Q728.869 38.7509 734.378 32.4315 Q739.928 26.1121 749.691 26.1121 Z" fill="#000000" fill-rule="nonzero" fill-opacity="1" /><path clip-path="url(#clip590)" d="M811.791 28.5427 L811.791 35.5912 Q808.631 33.9709 805.229 33.1607 Q801.826 32.3505 798.18 32.3505 Q792.63 32.3505 789.835 34.0519 Q787.081 35.7533 787.081 39.156 Q787.081 41.7486 789.065 43.2475 Q791.05 44.7058 797.046 46.0426 L799.598 46.6097 Q807.538 48.3111 810.859 51.4303 Q814.222 54.509 814.222 60.0587 Q814.222 66.3781 809.198 70.0644 Q804.216 73.7508 795.466 73.7508 Q791.82 73.7508 787.85 73.0216 Q783.921 72.3329 779.546 70.9151 L779.546 63.2184 Q783.678 65.3654 787.688 66.4591 Q791.699 67.5124 795.628 67.5124 Q800.894 67.5124 803.73 65.73 Q806.565 63.9071 806.565 60.6258 Q806.565 57.5877 804.499 55.9673 Q802.474 54.3469 795.547 52.8481 L792.954 52.2405 Q786.027 50.7821 782.949 47.7845 Q779.87 44.7463 779.87 39.4801 Q779.87 33.0797 784.407 29.5959 Q788.944 26.1121 797.289 26.1121 Q801.421 26.1121 805.067 26.7198 Q808.712 27.3274 811.791 28.5427 Z" fill="#000000" fill-rule="nonzero" fill-opacity="1" /><path clip-path="url(#clip590)" d="M826.091 27.2059 L833.544 27.2059 L833.544 72.576 L826.091 72.576 L826.091 27.2059 M826.091 9.54393 L833.544 9.54393 L833.544 18.9825 L826.091 18.9825 L826.091 9.54393 Z" fill="#000000" fill-rule="nonzero" fill-opacity="1" /><path clip-path="url(#clip590)" d="M886.854 45.1919 L886.854 72.576 L879.401 72.576 L879.401 45.4349 Q879.401 38.994 876.889 35.7938 Q874.378 32.5936 869.354 32.5936 Q863.319 32.5936 859.835 36.4419 Q856.351 40.2903 856.351 46.9338 L856.351 72.576 L848.857 72.576 L848.857 27.2059 L856.351 27.2059 L856.351 34.2544 Q859.025 30.163 862.63 28.1376 Q866.276 26.1121 871.015 26.1121 Q878.834 26.1121 882.844 30.9732 Q886.854 35.7938 886.854 45.1919 Z" fill="#000000" fill-rule="nonzero" fill-opacity="1" /><path clip-path="url(#clip590)" d="M940.529 48.0275 L940.529 51.6733 L906.258 51.6733 Q906.744 59.3701 910.876 63.421 Q915.049 67.4314 922.462 67.4314 Q926.756 67.4314 930.766 66.3781 Q934.817 65.3249 938.787 63.2184 L938.787 70.267 Q934.777 71.9684 930.564 72.8596 Q926.351 73.7508 922.016 73.7508 Q911.16 73.7508 904.8 67.4314 Q898.48 61.1119 898.48 50.3365 Q898.48 39.1965 904.476 32.6746 Q910.512 26.1121 920.72 26.1121 Q929.875 26.1121 935.182 32.0264 Q940.529 37.9003 940.529 48.0275 M933.075 45.84 Q932.994 39.7232 929.632 36.0774 Q926.31 32.4315 920.801 32.4315 Q914.562 32.4315 910.795 35.9558 Q907.068 39.4801 906.501 45.8805 L933.075 45.84 Z" fill="#000000" fill-rule="nonzero" fill-opacity="1" /><path clip-path="url(#clip590)" d="M1008.06 28.5427 L1008.06 35.5912 Q1004.9 33.9709 1001.49 33.1607 Q998.092 32.3505 994.446 32.3505 Q988.897 32.3505 986.101 34.0519 Q983.347 35.7533 983.347 39.156 Q983.347 41.7486 985.332 43.2475 Q987.317 44.7058 993.312 46.0426 L995.864 46.6097 Q1003.8 48.3111 1007.13 51.4303 Q1010.49 54.509 1010.49 60.0587 Q1010.49 66.3781 1005.46 70.0644 Q1000.48 73.7508 991.732 73.7508 Q988.086 73.7508 984.117 73.0216 Q980.187 72.3329 975.812 70.9151 L975.812 63.2184 Q979.944 65.3654 983.954 66.4591 Q987.965 67.5124 991.894 67.5124 Q997.16 67.5124 999.996 65.73 Q1002.83 63.9071 1002.83 60.6258 Q1002.83 57.5877 1000.77 55.9673 Q998.74 54.3469 991.813 52.8481 L989.221 52.2405 Q982.294 50.7821 979.215 47.7845 Q976.136 44.7463 976.136 39.4801 Q976.136 33.0797 980.673 29.5959 Q985.21 26.1121 993.555 26.1121 Q997.687 26.1121 1001.33 26.7198 Q1004.98 27.3274 1008.06 28.5427 Z" fill="#000000" fill-rule="nonzero" fill-opacity="1" /><path clip-path="url(#clip590)" d="M1022.36 27.2059 L1029.81 27.2059 L1029.81 72.576 L1022.36 72.576 L1022.36 27.2059 M1022.36 9.54393 L1029.81 9.54393 L1029.81 18.9825 L1022.36 18.9825 L1022.36 9.54393 Z" fill="#000000" fill-rule="nonzero" fill-opacity="1" /><path clip-path="url(#clip590)" d="M1080.73 35.9153 Q1083.53 30.8922 1087.41 28.5022 Q1091.3 26.1121 1096.57 26.1121 Q1103.66 26.1121 1107.51 31.0947 Q1111.36 36.0368 1111.36 45.1919 L1111.36 72.576 L1103.86 72.576 L1103.86 45.4349 Q1103.86 38.913 1101.55 35.7533 Q1099.24 32.5936 1094.5 32.5936 Q1088.71 32.5936 1085.35 36.4419 Q1081.99 40.2903 1081.99 46.9338 L1081.99 72.576 L1074.49 72.576 L1074.49 45.4349 Q1074.49 38.8725 1072.18 35.7533 Q1069.87 32.5936 1065.05 32.5936 Q1059.34 32.5936 1055.98 36.4824 Q1052.62 40.3308 1052.62 46.9338 L1052.62 72.576 L1045.12 72.576 L1045.12 27.2059 L1052.62 27.2059 L1052.62 34.2544 Q1055.17 30.082 1058.73 28.0971 Q1062.3 26.1121 1067.2 26.1121 Q1072.14 26.1121 1075.59 28.6237 Q1079.07 31.1352 1080.73 35.9153 Z" fill="#000000" fill-rule="nonzero" fill-opacity="1" /><path clip-path="url(#clip590)" d="M1126.22 27.2059 L1133.68 27.2059 L1133.68 72.576 L1126.22 72.576 L1126.22 27.2059 M1126.22 9.54393 L1133.68 9.54393 L1133.68 18.9825 L1126.22 18.9825 L1126.22 9.54393 Z" fill="#000000" fill-rule="nonzero" fill-opacity="1" /><path clip-path="url(#clip590)" d="M1149.27 9.54393 L1156.73 9.54393 L1156.73 72.576 L1149.27 72.576 L1149.27 9.54393 Z" fill="#000000" fill-rule="nonzero" fill-opacity="1" /><path clip-path="url(#clip590)" d="M1192.94 49.7694 Q1183.91 49.7694 1180.42 51.8354 Q1176.94 53.9013 1176.94 58.8839 Q1176.94 62.8538 1179.53 65.2034 Q1182.17 67.5124 1186.66 67.5124 Q1192.86 67.5124 1196.59 63.1374 Q1200.35 58.7219 1200.35 51.4303 L1200.35 49.7694 L1192.94 49.7694 M1207.81 46.6907 L1207.81 72.576 L1200.35 72.576 L1200.35 65.6895 Q1197.8 69.8214 1193.99 71.8063 Q1190.19 73.7508 1184.68 73.7508 Q1177.71 73.7508 1173.58 69.8619 Q1169.49 65.9325 1169.49 59.3701 Q1169.49 51.7138 1174.59 47.825 Q1179.73 43.9361 1189.9 43.9361 L1200.35 43.9361 L1200.35 43.2069 Q1200.35 38.0623 1196.95 35.2672 Q1193.59 32.4315 1187.47 32.4315 Q1183.58 32.4315 1179.9 33.3632 Q1176.21 34.295 1172.81 36.1584 L1172.81 29.2718 Q1176.9 27.692 1180.75 26.9223 Q1184.6 26.1121 1188.24 26.1121 Q1198.09 26.1121 1202.95 31.2163 Q1207.81 36.3204 1207.81 46.6907 Z" fill="#000000" fill-rule="nonzero" fill-opacity="1" /><path clip-path="url(#clip590)" d="M1249.45 34.1734 Q1248.19 33.4443 1246.7 33.1202 Q1245.24 32.7556 1243.46 32.7556 Q1237.14 32.7556 1233.73 36.8875 Q1230.37 40.9789 1230.37 48.6757 L1230.37 72.576 L1222.88 72.576 L1222.88 27.2059 L1230.37 27.2059 L1230.37 34.2544 Q1232.72 30.1225 1236.49 28.1376 Q1240.26 26.1121 1245.64 26.1121 Q1246.41 26.1121 1247.34 26.2337 Q1248.28 26.3147 1249.41 26.5172 L1249.45 34.1734 Z" fill="#000000" fill-rule="nonzero" fill-opacity="1" /><path clip-path="url(#clip590)" d="M1257.27 27.2059 L1264.72 27.2059 L1264.72 72.576 L1257.27 72.576 L1257.27 27.2059 M1257.27 9.54393 L1264.72 9.54393 L1264.72 18.9825 L1257.27 18.9825 L1257.27 9.54393 Z" fill="#000000" fill-rule="nonzero" fill-opacity="1" /><path clip-path="url(#clip590)" d="M1287.69 14.324 L1287.69 27.2059 L1303.04 27.2059 L1303.04 32.9987 L1287.69 32.9987 L1287.69 57.6282 Q1287.69 63.1779 1289.19 64.7578 Q1290.73 66.3376 1295.39 66.3376 L1303.04 66.3376 L1303.04 72.576 L1295.39 72.576 Q1286.76 72.576 1283.48 69.3758 Q1280.2 66.1351 1280.2 57.6282 L1280.2 32.9987 L1274.73 32.9987 L1274.73 27.2059 L1280.2 27.2059 L1280.2 14.324 L1287.69 14.324 Z" fill="#000000" fill-rule="nonzero" fill-opacity="1" /><path clip-path="url(#clip590)" d="M1312.85 27.2059 L1320.3 27.2059 L1320.3 72.576 L1312.85 72.576 L1312.85 27.2059 M1312.85 9.54393 L1320.3 9.54393 L1320.3 18.9825 L1312.85 18.9825 L1312.85 9.54393 Z" fill="#000000" fill-rule="nonzero" fill-opacity="1" /><path clip-path="url(#clip590)" d="M1374.7 48.0275 L1374.7 51.6733 L1340.43 51.6733 Q1340.92 59.3701 1345.05 63.421 Q1349.22 67.4314 1356.64 67.4314 Q1360.93 67.4314 1364.94 66.3781 Q1368.99 65.3249 1372.96 63.2184 L1372.96 70.267 Q1368.95 71.9684 1364.74 72.8596 Q1360.53 73.7508 1356.19 73.7508 Q1345.34 73.7508 1338.98 67.4314 Q1332.66 61.1119 1332.66 50.3365 Q1332.66 39.1965 1338.65 32.6746 Q1344.69 26.1121 1354.9 26.1121 Q1364.05 26.1121 1369.36 32.0264 Q1374.7 37.9003 1374.7 48.0275 M1367.25 45.84 Q1367.17 39.7232 1363.81 36.0774 Q1360.49 32.4315 1354.98 32.4315 Q1348.74 32.4315 1344.97 35.9558 Q1341.24 39.4801 1340.68 45.8805 L1367.25 45.84 Z" fill="#000000" fill-rule="nonzero" fill-opacity="1" /><path clip-path="url(#clip590)" d="M1415.86 28.5427 L1415.86 35.5912 Q1412.7 33.9709 1409.3 33.1607 Q1405.9 32.3505 1402.25 32.3505 Q1396.7 32.3505 1393.91 34.0519 Q1391.15 35.7533 1391.15 39.156 Q1391.15 41.7486 1393.14 43.2475 Q1395.12 44.7058 1401.12 46.0426 L1403.67 46.6097 Q1411.61 48.3111 1414.93 51.4303 Q1418.29 54.509 1418.29 60.0587 Q1418.29 66.3781 1413.27 70.0644 Q1408.29 73.7508 1399.54 73.7508 Q1395.89 73.7508 1391.92 73.0216 Q1387.99 72.3329 1383.62 70.9151 L1383.62 63.2184 Q1387.75 65.3654 1391.76 66.4591 Q1395.77 67.5124 1399.7 67.5124 Q1404.96 67.5124 1407.8 65.73 Q1410.64 63.9071 1410.64 60.6258 Q1410.64 57.5877 1408.57 55.9673 Q1406.54 54.3469 1399.62 52.8481 L1397.03 52.2405 Q1390.1 50.7821 1387.02 47.7845 Q1383.94 44.7463 1383.94 39.4801 Q1383.94 33.0797 1388.48 29.5959 Q1393.01 26.1121 1401.36 26.1121 Q1405.49 26.1121 1409.14 26.7198 Q1412.78 27.3274 1415.86 28.5427 Z" fill="#000000" fill-rule="nonzero" fill-opacity="1" /><path clip-path="url(#clip590)" d="M1489.18 28.9478 L1489.18 35.9153 Q1486.02 34.1734 1482.82 33.3227 Q1479.66 32.4315 1476.42 32.4315 Q1469.17 32.4315 1465.16 37.0496 Q1461.15 41.6271 1461.15 49.9314 Q1461.15 58.2358 1465.16 62.8538 Q1469.17 67.4314 1476.42 67.4314 Q1479.66 67.4314 1482.82 66.5807 Q1486.02 65.6895 1489.18 63.9476 L1489.18 70.8341 Q1486.06 72.2924 1482.7 73.0216 Q1479.38 73.7508 1475.61 73.7508 Q1465.36 73.7508 1459.33 67.3098 Q1453.29 60.8689 1453.29 49.9314 Q1453.29 38.832 1459.37 32.472 Q1465.49 26.1121 1476.1 26.1121 Q1479.54 26.1121 1482.82 26.8413 Q1486.1 27.5299 1489.18 28.9478 Z" fill="#000000" fill-rule="nonzero" fill-opacity="1" /><path clip-path="url(#clip590)" d="M1540.95 48.0275 L1540.95 51.6733 L1506.68 51.6733 Q1507.17 59.3701 1511.3 63.421 Q1515.47 67.4314 1522.89 67.4314 Q1527.18 67.4314 1531.19 66.3781 Q1535.24 65.3249 1539.21 63.2184 L1539.21 70.267 Q1535.2 71.9684 1530.99 72.8596 Q1526.78 73.7508 1522.44 73.7508 Q1511.58 73.7508 1505.22 67.4314 Q1498.91 61.1119 1498.91 50.3365 Q1498.91 39.1965 1504.9 32.6746 Q1510.94 26.1121 1521.14 26.1121 Q1530.3 26.1121 1535.61 32.0264 Q1540.95 37.9003 1540.95 48.0275 M1533.5 45.84 Q1533.42 39.7232 1530.06 36.0774 Q1526.74 32.4315 1521.23 32.4315 Q1514.99 32.4315 1511.22 35.9558 Q1507.49 39.4801 1506.93 45.8805 L1533.5 45.84 Z" fill="#000000" fill-rule="nonzero" fill-opacity="1" /><path clip-path="url(#clip590)" d="M1553.19 9.54393 L1560.64 9.54393 L1560.64 72.576 L1553.19 72.576 L1553.19 9.54393 Z" fill="#000000" fill-rule="nonzero" fill-opacity="1" /><path clip-path="url(#clip590)" d="M1576.24 9.54393 L1583.69 9.54393 L1583.69 72.576 L1576.24 72.576 L1576.24 9.54393 Z" fill="#000000" fill-rule="nonzero" fill-opacity="1" /><path clip-path="url(#clip590)" d="M1628.13 65.6895 L1641.5 65.6895 L1641.5 19.5497 L1626.95 22.4663 L1626.95 15.0127 L1641.42 12.096 L1649.6 12.096 L1649.6 65.6895 L1662.97 65.6895 L1662.97 72.576 L1628.13 72.576 L1628.13 65.6895 Z" fill="#000000" fill-rule="nonzero" fill-opacity="1" /><path clip-path="url(#clip590)" d="M1696.99 17.4837 Q1690.68 17.4837 1687.48 23.7221 Q1684.32 29.92 1684.32 42.3968 Q1684.32 54.833 1687.48 61.0714 Q1690.68 67.2693 1696.99 67.2693 Q1703.35 67.2693 1706.51 61.0714 Q1709.71 54.833 1709.71 42.3968 Q1709.71 29.92 1706.51 23.7221 Q1703.35 17.4837 1696.99 17.4837 M1696.99 11.0023 Q1707.16 11.0023 1712.51 19.0636 Q1717.9 27.0843 1717.9 42.3968 Q1717.9 57.6687 1712.51 65.73 Q1707.16 73.7508 1696.99 73.7508 Q1686.83 73.7508 1681.44 65.73 Q1676.09 57.6687 1676.09 42.3968 Q1676.09 27.0843 1681.44 19.0636 Q1686.83 11.0023 1696.99 11.0023 Z" fill="#000000" fill-rule="nonzero" fill-opacity="1" /><path clip-path="url(#clip590)" d="M1749.78 17.4837 Q1743.46 17.4837 1740.26 23.7221 Q1737.1 29.92 1737.1 42.3968 Q1737.1 54.833 1740.26 61.0714 Q1743.46 67.2693 1749.78 67.2693 Q1756.14 67.2693 1759.3 61.0714 Q1762.5 54.833 1762.5 42.3968 Q1762.5 29.92 1759.3 23.7221 Q1756.14 17.4837 1749.78 17.4837 M1749.78 11.0023 Q1759.95 11.0023 1765.29 19.0636 Q1770.68 27.0843 1770.68 42.3968 Q1770.68 57.6687 1765.29 65.73 Q1759.95 73.7508 1749.78 73.7508 Q1739.61 73.7508 1734.22 65.73 Q1728.88 57.6687 1728.88 42.3968 Q1728.88 27.0843 1734.22 19.0636 Q1739.61 11.0023 1749.78 11.0023 Z" fill="#000000" fill-rule="nonzero" fill-opacity="1" /><path clip-path="url(#clip590)" d="M1810.38 27.2059 L1817.83 27.2059 L1817.83 72.576 L1810.38 72.576 L1810.38 27.2059 M1810.38 9.54393 L1817.83 9.54393 L1817.83 18.9825 L1810.38 18.9825 L1810.38 9.54393 Z" fill="#000000" fill-rule="nonzero" fill-opacity="1" /><path clip-path="url(#clip590)" d="M1840.8 14.324 L1840.8 27.2059 L1856.15 27.2059 L1856.15 32.9987 L1840.8 32.9987 L1840.8 57.6282 Q1840.8 63.1779 1842.3 64.7578 Q1843.84 66.3376 1848.5 66.3376 L1856.15 66.3376 L1856.15 72.576 L1848.5 72.576 Q1839.87 72.576 1836.59 69.3758 Q1833.31 66.1351 1833.31 57.6282 L1833.31 32.9987 L1827.84 32.9987 L1827.84 27.2059 L1833.31 27.2059 L1833.31 14.324 L1840.8 14.324 Z" fill="#000000" fill-rule="nonzero" fill-opacity="1" /><path clip-path="url(#clip590)" d="M1904.77 48.0275 L1904.77 51.6733 L1870.49 51.6733 Q1870.98 59.3701 1875.11 63.421 Q1879.29 67.4314 1886.7 67.4314 Q1890.99 67.4314 1895 66.3781 Q1899.05 65.3249 1903.02 63.2184 L1903.02 70.267 Q1899.01 71.9684 1894.8 72.8596 Q1890.59 73.7508 1886.25 73.7508 Q1875.4 73.7508 1869.04 67.4314 Q1862.72 61.1119 1862.72 50.3365 Q1862.72 39.1965 1868.71 32.6746 Q1874.75 26.1121 1884.96 26.1121 Q1894.11 26.1121 1899.42 32.0264 Q1904.77 37.9003 1904.77 48.0275 M1897.31 45.84 Q1897.23 39.7232 1893.87 36.0774 Q1890.55 32.4315 1885.04 32.4315 Q1878.8 32.4315 1875.03 35.9558 Q1871.31 39.4801 1870.74 45.8805 L1897.31 45.84 Z" fill="#000000" fill-rule="nonzero" fill-opacity="1" /><path clip-path="url(#clip590)" d="M1943.29 34.1734 Q1942.03 33.4443 1940.54 33.1202 Q1939.08 32.7556 1937.29 32.7556 Q1930.97 32.7556 1927.57 36.8875 Q1924.21 40.9789 1924.21 48.6757 L1924.21 72.576 L1916.72 72.576 L1916.72 27.2059 L1924.21 27.2059 L1924.21 34.2544 Q1926.56 30.1225 1930.33 28.1376 Q1934.09 26.1121 1939.48 26.1121 Q1940.25 26.1121 1941.18 26.2337 Q1942.11 26.3147 1943.25 26.5172 L1943.29 34.1734 Z" fill="#000000" fill-rule="nonzero" fill-opacity="1" /><path clip-path="url(#clip590)" d="M1971.73 49.7694 Q1962.69 49.7694 1959.21 51.8354 Q1955.73 53.9013 1955.73 58.8839 Q1955.73 62.8538 1958.32 65.2034 Q1960.95 67.5124 1965.45 67.5124 Q1971.65 67.5124 1975.37 63.1374 Q1979.14 58.7219 1979.14 51.4303 L1979.14 49.7694 L1971.73 49.7694 M1986.59 46.6907 L1986.59 72.576 L1979.14 72.576 L1979.14 65.6895 Q1976.59 69.8214 1972.78 71.8063 Q1968.97 73.7508 1963.46 73.7508 Q1956.5 73.7508 1952.36 69.8619 Q1948.27 65.9325 1948.27 59.3701 Q1948.27 51.7138 1953.38 47.825 Q1958.52 43.9361 1968.69 43.9361 L1979.14 43.9361 L1979.14 43.2069 Q1979.14 38.0623 1975.74 35.2672 Q1972.38 32.4315 1966.26 32.4315 Q1962.37 32.4315 1958.68 33.3632 Q1955 34.295 1951.59 36.1584 L1951.59 29.2718 Q1955.69 27.692 1959.53 26.9223 Q1963.38 26.1121 1967.03 26.1121 Q1976.87 26.1121 1981.73 31.2163 Q1986.59 36.3204 1986.59 46.6907 Z" fill="#000000" fill-rule="nonzero" fill-opacity="1" /><path clip-path="url(#clip590)" d="M2009.32 14.324 L2009.32 27.2059 L2024.67 27.2059 L2024.67 32.9987 L2009.32 32.9987 L2009.32 57.6282 Q2009.32 63.1779 2010.82 64.7578 Q2012.36 66.3376 2017.02 66.3376 L2024.67 66.3376 L2024.67 72.576 L2017.02 72.576 Q2008.39 72.576 2005.11 69.3758 Q2001.83 66.1351 2001.83 57.6282 L2001.83 32.9987 L1996.36 32.9987 L1996.36 27.2059 L2001.83 27.2059 L2001.83 14.324 L2009.32 14.324 Z" fill="#000000" fill-rule="nonzero" fill-opacity="1" /><path clip-path="url(#clip590)" d="M2034.48 27.2059 L2041.93 27.2059 L2041.93 72.576 L2034.48 72.576 L2034.48 27.2059 M2034.48 9.54393 L2041.93 9.54393 L2041.93 18.9825 L2034.48 18.9825 L2034.48 9.54393 Z" fill="#000000" fill-rule="nonzero" fill-opacity="1" /><path clip-path="url(#clip590)" d="M2075.11 32.4315 Q2069.11 32.4315 2065.63 37.1306 Q2062.14 41.7891 2062.14 49.9314 Q2062.14 58.0738 2065.59 62.7728 Q2069.07 67.4314 2075.11 67.4314 Q2081.06 67.4314 2084.54 62.7323 Q2088.03 58.0333 2088.03 49.9314 Q2088.03 41.8701 2084.54 37.1711 Q2081.06 32.4315 2075.11 32.4315 M2075.11 26.1121 Q2084.83 26.1121 2090.38 32.4315 Q2095.93 38.7509 2095.93 49.9314 Q2095.93 61.0714 2090.38 67.4314 Q2084.83 73.7508 2075.11 73.7508 Q2065.34 73.7508 2059.79 67.4314 Q2054.28 61.0714 2054.28 49.9314 Q2054.28 38.7509 2059.79 32.4315 Q2065.34 26.1121 2075.11 26.1121 Z" fill="#000000" fill-rule="nonzero" fill-opacity="1" /><path clip-path="url(#clip590)" d="M2146 45.1919 L2146 72.576 L2138.54 72.576 L2138.54 45.4349 Q2138.54 38.994 2136.03 35.7938 Q2133.52 32.5936 2128.5 32.5936 Q2122.46 32.5936 2118.98 36.4419 Q2115.49 40.2903 2115.49 46.9338 L2115.49 72.576 L2108 72.576 L2108 27.2059 L2115.49 27.2059 L2115.49 34.2544 Q2118.17 30.163 2121.77 28.1376 Q2125.42 26.1121 2130.16 26.1121 Q2137.98 26.1121 2141.99 30.9732 Q2146 35.7938 2146 45.1919 Z" fill="#000000" fill-rule="nonzero" fill-opacity="1" /><path clip-path="url(#clip590)" d="M2188.37 12.096 L2220.49 12.096 L2220.49 18.9825 L2195.86 18.9825 L2195.86 33.8088 Q2197.65 33.2012 2199.43 32.9176 Q2201.21 32.5936 2202.99 32.5936 Q2213.12 32.5936 2219.03 38.1433 Q2224.95 43.6931 2224.95 53.1722 Q2224.95 62.9348 2218.87 68.3631 Q2212.8 73.7508 2201.74 73.7508 Q2197.93 73.7508 2193.96 73.1026 Q2190.03 72.4545 2185.82 71.1582 L2185.82 62.9348 Q2189.46 64.9198 2193.35 65.892 Q2197.24 66.8642 2201.58 66.8642 Q2208.58 66.8642 2212.67 63.1779 Q2216.77 59.4916 2216.77 53.1722 Q2216.77 46.8528 2212.67 43.1664 Q2208.58 39.4801 2201.58 39.4801 Q2198.29 39.4801 2195.01 40.2093 Q2191.77 40.9384 2188.37 42.4778 L2188.37 12.096 Z" fill="#000000" fill-rule="nonzero" fill-opacity="1" /><polyline clip-path="url(#clip592)" style="stroke:#009af9; stroke-linecap:round; stroke-linejoin:round; stroke-width:4; stroke-opacity:1; fill:none" points="315.545,1386.4 317.525,1382.99 319.505,1371.89 321.484,1370.26 323.464,1370.22 325.444,1369.28 327.424,1364.26 329.404,1363.83 331.384,1363.08 333.364,1361.2 335.343,1358.69 337.323,1358.59 339.303,1357.4 341.283,1357.17 343.263,1353.59 345.243,1349 347.223,1348.35 349.202,1348.26 351.182,1347.07 353.162,1346.81 355.142,1345.61 357.122,1342.83 359.102,1339.32 361.082,1339.28 363.061,1334.66 365.041,1333.55 367.021,1333.18 369.001,1332.24 370.981,1332.01 372.961,1331.14 374.941,1330.56 376.92,1328.37 378.9,1326.25 380.88,1323.89 382.86,1322.34 384.84,1321.66 386.82,1320.86 388.8,1320.64 390.779,1320.53 392.759,1319.43 394.739,1318 396.719,1316.76 398.699,1315.48 400.679,1315.4 402.659,1311.21 404.638,1309.15 406.618,1307.38 408.598,1306.47 410.578,1306.37 412.558,1306.33 414.538,1306.16 416.517,1305.46 418.497,1302.83 420.477,1302.6 422.457,1301.45 424.437,1300.63 426.417,1299.65 428.397,1298.02 430.376,1297.76 432.356,1297.54 434.336,1296.52 436.316,1296.39 438.296,1295.04 440.276,1293.73 442.256,1292.44 444.235,1291.46 446.215,1291.45 448.195,1291.44 450.175,1291.32 452.155,1288.35 454.135,1287.67 456.115,1286.61 458.094,1286.23 460.074,1285.86 462.054,1285.27 464.034,1283.99 466.014,1283.98 467.994,1282.62 469.974,1282.47 471.953,1282.41 473.933,1280.86 475.913,1280.22 477.893,1279.63 479.873,1279.52 481.853,1277.15 483.833,1276.44 485.812,1276.44 487.792,1275.37 489.772,1275.15 491.752,1274.54 493.732,1274.01 495.712,1274 497.692,1273.55 499.671,1272.27 501.651,1269.93 503.631,1269.9 505.611,1269.84 507.591,1268.96 509.571,1268.86 511.551,1267.53 513.53,1267.28 515.51,1267.17 517.49,1267.02 519.47,1265.07 521.45,1264.76 523.43,1264.71 525.409,1263.85 527.389,1262.88 529.369,1262.26 531.349,1261.79 533.329,1261.42 535.309,1261.1 537.289,1260.03 539.268,1258.57 541.248,1258.36 543.228,1257.4 545.208,1257.34 547.188,1257.11 549.168,1256.58 551.148,1256.32 553.127,1256.3 555.107,1255.75 557.087,1255.69 559.067,1254.39 561.047,1254.06 563.027,1253.17 565.007,1251.22 566.986,1250.9 568.966,1250.45 570.946,1250.03 572.926,1249.52 574.906,1249.41 576.886,1248.99 578.866,1248.02 580.845,1247.46 582.825,1247.18 584.805,1247.07 586.785,1246.78 588.765,1246.13 590.745,1245.84 592.725,1245.77 594.704,1245.67 596.684,1244.63 598.664,1243.17 600.644,1242.57 602.624,1242.25 604.604,1241.94 606.584,1239.98 608.563,1239.84 610.543,1239.61 612.523,1238.92 614.503,1238.11 616.483,1237.48 618.463,1236.86 620.443,1234.67 622.422,1233.91 624.402,1233.87 626.382,1233.09 628.362,1232.98 630.342,1232.83 632.322,1231.99 634.301,1231.62 636.281,1231.51 638.261,1231.34 640.241,1230.09 642.221,1229.67 644.201,1228.9 646.181,1228.4 648.16,1228.19 650.14,1228.1 652.12,1227.73 654.1,1227.52 656.08,1226.49 658.06,1225.58 660.04,1225.56 662.019,1225.34 663.999,1224.92 665.979,1224.49 667.959,1224.29 669.939,1223.89 671.919,1222.55 673.899,1222.3 675.878,1221.71 677.858,1221.41 679.838,1221.22 681.818,1220.2 683.798,1220.16 685.778,1220.13 687.758,1218.56 689.737,1217.93 691.717,1217.81 693.697,1217.43 695.677,1217.15 697.657,1216.85 699.637,1216.79 701.617,1216.68 703.596,1216.6 705.576,1216.07 707.556,1214.9 709.536,1214.06 711.516,1213.85 713.496,1213.77 715.476,1213.76 717.455,1212.79 719.435,1212.65 721.415,1212.56 723.395,1212.52 725.375,1212.37 727.355,1212.31 729.335,1212.04 731.314,1210.94 733.294,1210.85 735.274,1210.7 737.254,1210.48 739.234,1210.36 741.214,1210.06 743.194,1209.39 745.173,1208.67 747.153,1207.69 749.133,1207.56 751.113,1206.97 753.093,1206.14 755.073,1205.03 757.052,1204.69 759.032,1204.45 761.012,1204.43 762.992,1204.42 764.972,1203.39 766.952,1201.96 768.932,1201.89 770.911,1201.04 772.891,1200.92 774.871,1200.92 776.851,1200.91 778.831,1200.3 780.811,1199.86 782.791,1199.28 784.77,1199.1 786.75,1198.71 788.73,1197.88 790.71,1197.42 792.69,1197.27 794.67,1196.61 796.65,1196.53 798.629,1195.72 800.609,1194.22 802.589,1194.08 804.569,1193.24 806.549,1191.3 808.529,1191.22 810.509,1188.58 812.488,1188.24 814.468,1188.17 816.448,1187.78 818.428,1187.64 820.408,1187.06 822.388,1187.02 824.368,1185.87 826.347,1185.44 828.327,1185.2 830.307,1184.93 832.287,1184.81 834.267,1184.55 836.247,1184.22 838.227,1183.6 840.206,1183.53 842.186,1182.9 844.166,1182.54 846.146,1182.26 848.126,1181.38 850.106,1181.34 852.086,1181.15 854.065,1180.39 856.045,1180.1 858.025,1180.04 860.005,1179.19 861.985,1179.16 863.965,1178.13 865.944,1178.1 867.924,1177.57 869.904,1177.29 871.884,1176.94 873.864,1176.49 875.844,1176 877.824,1175.68 879.803,1175.36 881.783,1173.41 883.763,1173.13 885.743,1172.68 887.723,1172.6 889.703,1172.22 891.683,1172.06 893.662,1171.57 895.642,1171.45 897.622,1171.27 899.602,1170.95 901.582,1170.49 903.562,1169.6 905.542,1169.41 907.521,1168.69 909.501,1167.99 911.481,1167.52 913.461,1167.45 915.441,1166.75 917.421,1166.11 919.401,1165.97 921.38,1165.96 923.36,1165.82 925.34,1164.73 927.32,1164.21 929.3,1163.94 931.28,1163.66 933.26,1163.21 935.239,1162.12 937.219,1162.12 939.199,1161.13 941.179,1160.74 943.159,1160.35 945.139,1159.93 947.119,1159.69 949.098,1159.05 951.078,1158.67 953.058,1158.13 955.038,1157.46 957.018,1157.4 958.998,1156.81 960.978,1156.51 962.957,1156.25 964.937,1154.79 966.917,1154.63 968.897,1154.29 970.877,1153.94 972.857,1153.53 974.836,1153.19 976.816,1152.76 978.796,1151.93 980.776,1151.71 982.756,1150.23 984.736,1150 986.716,1148.9 988.695,1148.66 990.675,1148.37 992.655,1148.26 994.635,1148.14 996.615,1147.67 998.595,1147.6 1000.57,1146.71 1002.55,1146.56 1004.53,1146.37 1006.51,1146.03 1008.49,1144.97 1010.47,1144.32 1012.45,1142.85 1014.43,1141.98 1016.41,1140.71 1018.39,1140.35 1020.37,1139.7 1022.35,1138.7 1024.33,1138 1026.31,1137.61 1028.29,1136.81 1030.27,1136.05 1032.25,1135.29 1034.23,1135.19 1036.21,1135.15 1038.19,1134.63 1040.17,1134.57 1042.15,1134.11 1044.13,1134.1 1046.11,1133.76 1048.09,1133.69 1050.07,1133.36 1052.05,1133.33 1054.03,1133.27 1056.01,1133.22 1057.99,1133.15 1059.97,1132.94 1061.95,1132.67 1063.93,1132.63 1065.91,1132.61 1067.89,1132.05 1069.87,1132.04 1071.85,1129.98 1073.83,1129.95 1075.81,1129.89 1077.79,1129.52 1079.77,1129.28 1081.75,1129.23 1083.73,1129.15 1085.71,1128.75 1087.69,1128.56 1089.67,1126.97 1091.65,1126.56 1093.63,1126.52 1095.61,1125.23 1097.59,1124.36 1099.57,1123.5 1101.55,1123.39 1103.53,1123.06 1105.51,1122.64 1107.49,1122.61 1109.47,1122.45 1111.45,1121.62 1113.43,1121.61 1115.41,1120.68 1117.39,1120.34 1119.37,1120.12 1121.35,1118.89 1123.33,1117.75 1125.31,1117.64 1127.29,1117.35 1129.27,1117.05 1131.25,1116.82 1133.22,1116.82 1135.2,1116.44 1137.18,1116.13 1139.16,1115.47 1141.14,1113.93 1143.12,1112.13 1145.1,1110.8 1147.08,1110.3 1149.06,1110.09 1151.04,1110.04 1153.02,1109.76 1155,1109.62 1156.98,1108.44 1158.96,1108.36 1160.94,1107.54 1162.92,1107.46 1164.9,1105.98 1166.88,1105.87 1168.86,1105.36 1170.84,1104.92 1172.82,1104.81 1174.8,1104.57 1176.78,1104.09 1178.76,1103.85 1180.74,1103.66 1182.72,1102.79 1184.7,1102.77 1186.68,1102.65 1188.66,1101.73 1190.64,1100.86 1192.62,1100.44 1194.6,1100.35 1196.58,1100.16 1198.56,1099.74 1200.54,1099.59 1202.52,1099.57 1204.5,1098.4 1206.48,1098.4 1208.46,1097.81 1210.44,1096.76 1212.42,1094.31 1214.4,1093.46 1216.38,1092.65 1218.36,1091.23 1220.34,1090.56 1222.32,1090.34 1224.3,1089.69 1226.28,1088.81 1228.26,1088.54 1230.24,1087.57 1232.22,1087.01 1234.2,1086.11 1236.18,1084.88 1238.16,1084.36 1240.14,1083.08 1242.12,1081.88 1244.1,1081.79 1246.08,1081.72 1248.06,1079.99 1250.04,1077.25 1252.02,1074.66 1254,1074.28 1255.98,1073.1 1257.96,1070.92 1259.94,1070.48 1261.92,1067.26 1263.9,1065.97 1265.88,1065.62 1267.85,1064.23 1269.83,1063.48 1271.81,1062.58 1273.79,1062.39 1275.77,1060.75 1277.75,1060.51 1279.73,1059.11 1281.71,1057.87 1283.69,1057.72 1285.67,1056.42 1287.65,1056.06 1289.63,1054.71 1291.61,1053.48 1293.59,1051.68 1295.57,1050.17 1297.55,1049.22 1299.53,1048.32 1301.51,1044.12 1303.49,1040.78 1305.47,1040.74 1307.45,1040.59 1309.43,1038.78 1311.41,1037.37 1313.39,1037.32 1315.37,1037.21 1317.35,1036.6 1319.33,1034.68 1321.31,1033.95 1323.29,1033.51 1325.27,1031.23 1327.25,1029.1 1329.23,1026.43 1331.21,1025.61 1333.19,1022.93 1335.17,1021.84 1337.15,1020.44 1339.13,1018.58 1341.11,1013.46 1343.09,1007.65 1345.07,1004.6 1347.05,1003.98 1349.03,1001.82 1351.01,1001.25 1352.99,998.867 1354.97,996.138 1356.95,993.309 1358.93,993.289 1360.91,987.062 1362.89,983.706 1364.87,983.674 1366.85,983.455 1368.83,980.048 1370.81,979.45 1372.79,979.312 1374.77,978.296 1376.75,977.771 1378.73,977.295 1380.71,976.903 1382.69,976.743 1384.67,976.678 1386.65,974.804 1388.63,973.98 1390.61,972.776 1392.59,972.447 1394.57,971.054 1396.55,970.631 1398.53,969.512 1400.51,969.162 1402.49,968.459 1404.46,968.422 1406.44,967.52 1408.42,967.191 1410.4,966.84 1412.38,966.369 1414.36,965.96 1416.34,965.916 1418.32,965.822 1420.3,963.475 1422.28,962.053 1424.26,961.491 1426.24,961.15 1428.22,959.522 1430.2,959.366 1432.18,959.332 1434.16,958.546 1436.14,957.813 1438.12,955.986 1440.1,955.874 1442.08,955.121 1444.06,954.62 1446.04,954.508 1448.02,954.061 1450,953.337 1451.98,952.516 1453.96,951.665 1455.94,951.37 1457.92,949.966 1459.9,949.872 1461.88,947.405 1463.86,946.808 1465.84,946.696 1467.82,945.764 1469.8,943.637 1471.78,943.232 1473.76,942.996 1475.74,942.418 1477.72,941.881 1479.7,941.555 1481.68,941.469 1483.66,940.803 1485.64,940.137 1487.62,939.849 1489.6,939.769 1491.58,938.986 1493.56,938.649 1495.54,938.186 1497.52,937.748 1499.5,937.082 1501.48,936.783 1503.46,936.534 1505.44,936.371 1507.42,936.068 1509.4,935.47 1511.38,935.277 1513.36,933.664 1515.34,932.546 1517.32,932.515 1519.3,931.097 1521.28,930.761 1523.26,929.548 1525.24,928.151 1527.22,926.86 1529.2,926.752 1531.18,926.593 1533.16,926.589 1535.14,925.692 1537.12,925.548 1539.1,925.367 1541.07,925.303 1543.05,924.224 1545.03,924.016 1547.01,923.788 1548.99,923.639 1550.97,923.601 1552.95,923.434 1554.93,923.389 1556.91,922.513 1558.89,922.176 1560.87,921.752 1562.85,920.999 1564.83,920.985 1566.81,920.344 1568.79,920.069 1570.77,919.715 1572.75,919.119 1574.73,918.116 1576.71,917.746 1578.69,917.461 1580.67,917.266 1582.65,917.245 1584.63,917.05 1586.61,916.654 1588.59,916.514 1590.57,915.319 1592.55,915.271 1594.53,913.989 1596.51,913.93 1598.49,913.134 1600.47,913.063 1602.45,912.763 1604.43,912.756 1606.41,912.601 1608.39,911.888 1610.37,911.766 1612.35,911.003 1614.33,909.407 1616.31,908.923 1618.29,906.854 1620.27,905.47 1622.25,904.527 1624.23,903.617 1626.21,903.138 1628.19,902.558 1630.17,901.944 1632.15,901.135 1634.13,900.877 1636.11,900.575 1638.09,900.003 1640.07,899.948 1642.05,899.793 1644.03,898.966 1646.01,898.533 1647.99,898.372 1649.97,897.05 1651.95,896.792 1653.93,895.606 1655.91,895.105 1657.89,893.931 1659.87,893.456 1661.85,892.962 1663.83,892.642 1665.81,892.371 1667.79,892.269 1669.77,891.481 1671.75,891.001 1673.73,890.862 1675.71,890.117 1677.68,889.636 1679.66,888.589 1681.64,888.026 1683.62,887.874 1685.6,887.6 1687.58,887.53 1689.56,887.241 1691.54,886.919 1693.52,886.223 1695.5,885.536 1697.48,883.864 1699.46,883.35 1701.44,882.964 1703.42,882.724 1705.4,880.844 1707.38,880.031 1709.36,878.757 1711.34,878.492 1713.32,875.618 1715.3,875.44 1717.28,874.357 1719.26,872.653 1721.24,872.509 1723.22,872.504 1725.2,872.465 1727.18,870.406 1729.16,870.079 1731.14,869.8 1733.12,869.032 1735.1,868.703 1737.08,868.55 1739.06,867.193 1741.04,866.238 1743.02,866.191 1745,864.993 1746.98,864.822 1748.96,862.826 1750.94,859.797 1752.92,859.478 1754.9,855.956 1756.88,855.918 1758.86,855.518 1760.84,854.218 1762.82,853.219 1764.8,851.383 1766.78,850.431 1768.76,848.092 1770.74,845.896 1772.72,843.492 1774.7,832.623 1776.68,830.463 1778.66,829.823 1780.64,826.484 1782.62,822.99 1784.6,820.221 1786.58,820.157 1788.56,815.877 1790.54,815.638 1792.52,810.411 1794.5,810.09 1796.48,808.278 1798.46,806.609 1800.44,599.053 1802.42,358.546 1804.4,331.012 1806.38,314.411 1808.36,309.354 1810.34,303.259 1812.31,300.349 1814.29,296.961 1816.27,295.312 1818.25,292.219 1820.23,291.609 1822.21,288.418 1824.19,287.6 1826.17,286.57 1828.15,284.13 1830.13,282.467 1832.11,280.631 1834.09,279.607 1836.07,279.42 1838.05,277.915 1840.03,277.122 1842.01,276.279 1843.99,271.618 1845.97,270.925 1847.95,269.113 1849.93,268.909 1851.91,264.821 1853.89,263.726 1855.87,262.774 1857.85,261.82 1859.83,261.761 1861.81,260.773 1863.79,260.192 1865.77,259.801 1867.75,259.765 1869.73,259.482 1871.71,258.275 1873.69,257.83 1875.67,257.62 1877.65,257.524 1879.63,257.485 1881.61,257.257 1883.59,256.941 1885.57,256.431 1887.55,256.123 1889.53,255.768 1891.51,255.119 1893.49,254.179 1895.47,253.458 1897.45,251.299 1899.43,251.076 1901.41,250.699 1903.39,250.543 1905.37,249.807 1907.35,247.019 1909.33,246.118 1911.31,246.059 1913.29,244.701 1915.27,244.42 1917.25,243.973 1919.23,243.937 1921.21,242.917 1923.19,242.111 1925.17,242.061 1927.15,241.548 1929.13,241.296 1931.11,241.199 1933.09,240.937 1935.07,240.925 1937.05,240.701 1939.03,240.493 1941.01,240.136 1942.99,239.959 1944.97,239.756 1946.95,239.688 1948.92,239.596 1950.9,239.163 1952.88,238.957 1954.86,238.502 1956.84,238.047 1958.82,236.606 1960.8,236.588 1962.78,236.551 1964.76,236.543 1966.74,236.51 1968.72,235.3 1970.7,235.039 1972.68,234.685 1974.66,234.613 1976.64,234.413 1978.62,234.292 1980.6,233.997 1982.58,233.974 1984.56,233.73 1986.54,233.434 1988.52,233.048 1990.5,232.978 1992.48,230.772 1994.46,230.718 1996.44,230.399 1998.42,230.339 2000.4,229.572 2002.38,229.356 2004.36,229.314 2006.34,229.253 2008.32,228.98 2010.3,228.957 2012.28,228.728 2014.26,228.547 2016.24,228.197 2018.22,227.911 2020.2,227.871 2022.18,227.762 2024.16,227.728 2026.14,227.478 2028.12,227.289 2030.1,225.803 2032.08,225.304 2034.06,224.929 2036.04,224.847 2038.02,224.607 2040,224.571 2041.98,224.426 2043.96,224.136 2045.94,223.708 2047.92,223.1 2049.9,222.136 2051.88,222.118 2053.86,221.898 2055.84,221.027 2057.82,220.93 2059.8,220.612 2061.78,219.779 2063.76,219.549 2065.74,219.425 2067.72,219.122 2069.7,218.828 2071.68,218.58 2073.66,217.974 2075.64,217.97 2077.62,217.792 2079.6,217.57 2081.58,217.345 2083.56,217.184 2085.53,216.73 2087.51,216.649 2089.49,216.214 2091.47,215.086 2093.45,214.568 2095.43,213.998 2097.41,213.927 2099.39,213.877 2101.37,213.873 2103.35,213.653 2105.33,213.228 2107.31,213.132 2109.29,212.503 2111.27,212.287 2113.25,212.043 2115.23,212.005 2117.21,211.481 2119.19,211.448 2121.17,210.999 2123.15,210.663 2125.13,210.657 2127.11,210.558 2129.09,210.135 2131.07,209.19 2133.05,209.038 2135.03,208.819 2137.01,207.897 2138.99,207.726 2140.97,207.706 2142.95,207.509 2144.93,207.443 2146.91,207.066 2148.89,206.571 2150.87,206.201 2152.85,206.004 2154.83,205.667 2156.81,205.572 2158.79,205.166 2160.77,204.806 2162.75,204.488 2164.73,204.441 2166.71,203.938 2168.69,203.693 2170.67,203.064 2172.65,203.046 2174.63,202.702 2176.61,202.494 2178.59,202.408 2180.57,202.223 2182.55,201.324 2184.53,201.078 2186.51,201.019 2188.49,200.972 2190.47,200.687 2192.45,200.016 2194.43,199.924 2196.41,199.893 2198.39,199.825 2200.37,199.657 2202.35,198.636 2204.33,198.317 2206.31,197.916 2208.29,197.095 2210.27,197.01 2212.25,196.951 2214.23,196.791 2216.21,196.489 2218.19,195.992 2220.17,195.909 2222.14,195.884 2224.12,195.685 2226.1,194.785 2228.08,194.009 2230.06,193.804 2232.04,193.066 2234.02,192.801 2236,192.039 2237.98,192.019 2239.96,191.879 2241.94,191.785 2243.92,191.777 2245.9,191.67 2247.88,191.668 2249.86,190.934 2251.84,190.699 2253.82,189.822 2255.8,187.161 2257.78,185.583 2259.76,185.092 2261.74,183.682 2263.72,182.746 2265.7,182.376 2267.68,181.743 2269.66,180.61 2271.64,177.345 2273.62,176.036 2275.6,175.607 2277.58,174.437 2279.56,174.005 2281.54,173.277 2283.52,173.209 2285.5,172.18 2287.48,168.782 2289.46,168.316 2291.44,165.343 2293.42,160.256 "/>
<path clip-path="url(#clip590)" d="M326.094 270.476 L755.354 270.476 L755.354 166.796 L326.094 166.796  Z" fill="#ffffff" fill-rule="evenodd" fill-opacity="1"/>
<polyline clip-path="url(#clip590)" style="stroke:#000000; stroke-linecap:round; stroke-linejoin:round; stroke-width:4; stroke-opacity:1; fill:none" points="326.094,270.476 755.354,270.476 755.354,166.796 326.094,166.796 326.094,270.476 "/>
<polyline clip-path="url(#clip590)" style="stroke:#009af9; stroke-linecap:round; stroke-linejoin:round; stroke-width:4; stroke-opacity:1; fill:none" points="349.389,218.636 489.158,218.636 "/>
<path clip-path="url(#clip590)" d="M534.699 202.49 L534.699 207.05 Q532.037 205.777 529.675 205.152 Q527.314 204.527 525.115 204.527 Q521.296 204.527 519.213 206.008 Q517.152 207.49 517.152 210.221 Q517.152 212.513 518.518 213.694 Q519.907 214.851 523.75 215.569 L526.574 216.147 Q531.805 217.143 534.282 219.666 Q536.782 222.166 536.782 226.379 Q536.782 231.402 533.402 233.994 Q530.046 236.587 523.541 236.587 Q521.088 236.587 518.31 236.031 Q515.555 235.476 512.592 234.388 L512.592 229.573 Q515.439 231.17 518.171 231.981 Q520.902 232.791 523.541 232.791 Q527.546 232.791 529.722 231.217 Q531.898 229.643 531.898 226.726 Q531.898 224.18 530.324 222.744 Q528.773 221.309 525.208 220.592 L522.361 220.036 Q517.129 218.995 514.791 216.772 Q512.453 214.55 512.453 210.592 Q512.453 206.008 515.671 203.37 Q518.912 200.731 524.583 200.731 Q527.013 200.731 529.537 201.171 Q532.06 201.61 534.699 202.49 Z" fill="#000000" fill-rule="nonzero" fill-opacity="1" /><path clip-path="url(#clip590)" d="M543.888 209.99 L548.148 209.99 L548.148 235.916 L543.888 235.916 L543.888 209.99 M543.888 199.897 L548.148 199.897 L548.148 205.291 L543.888 205.291 L543.888 199.897 Z" fill="#000000" fill-rule="nonzero" fill-opacity="1" /><path clip-path="url(#clip590)" d="M577.245 214.967 Q578.842 212.096 581.064 210.731 Q583.286 209.365 586.296 209.365 Q590.346 209.365 592.545 212.212 Q594.745 215.036 594.745 220.268 L594.745 235.916 L590.462 235.916 L590.462 220.407 Q590.462 216.68 589.143 214.874 Q587.823 213.069 585.115 213.069 Q581.805 213.069 579.884 215.268 Q577.962 217.467 577.962 221.263 L577.962 235.916 L573.68 235.916 L573.68 220.407 Q573.68 216.657 572.36 214.874 Q571.041 213.069 568.286 213.069 Q565.022 213.069 563.101 215.291 Q561.18 217.49 561.18 221.263 L561.18 235.916 L556.898 235.916 L556.898 209.99 L561.18 209.99 L561.18 214.018 Q562.638 211.633 564.675 210.499 Q566.712 209.365 569.513 209.365 Q572.337 209.365 574.305 210.8 Q576.296 212.235 577.245 214.967 Z" fill="#000000" fill-rule="nonzero" fill-opacity="1" /><path clip-path="url(#clip590)" d="M603.24 209.99 L607.499 209.99 L607.499 235.916 L603.24 235.916 L603.24 209.99 M603.24 199.897 L607.499 199.897 L607.499 205.291 L603.24 205.291 L603.24 199.897 Z" fill="#000000" fill-rule="nonzero" fill-opacity="1" /><path clip-path="url(#clip590)" d="M616.411 199.897 L620.67 199.897 L620.67 235.916 L616.411 235.916 L616.411 199.897 Z" fill="#000000" fill-rule="nonzero" fill-opacity="1" /><path clip-path="url(#clip590)" d="M641.365 222.883 Q636.203 222.883 634.212 224.064 Q632.221 225.244 632.221 228.092 Q632.221 230.36 633.703 231.703 Q635.207 233.022 637.777 233.022 Q641.318 233.022 643.448 230.522 Q645.601 227.999 645.601 223.832 L645.601 222.883 L641.365 222.883 M649.86 221.124 L649.86 235.916 L645.601 235.916 L645.601 231.981 Q644.142 234.342 641.967 235.476 Q639.791 236.587 636.642 236.587 Q632.661 236.587 630.3 234.365 Q627.962 232.119 627.962 228.369 Q627.962 223.994 630.879 221.772 Q633.818 219.55 639.629 219.55 L645.601 219.55 L645.601 219.133 Q645.601 216.194 643.656 214.596 Q641.735 212.976 638.24 212.976 Q636.017 212.976 633.911 213.508 Q631.805 214.041 629.86 215.106 L629.86 211.17 Q632.198 210.268 634.397 209.828 Q636.596 209.365 638.68 209.365 Q644.304 209.365 647.082 212.282 Q649.86 215.198 649.86 221.124 Z" fill="#000000" fill-rule="nonzero" fill-opacity="1" /><path clip-path="url(#clip590)" d="M673.656 213.971 Q672.939 213.555 672.082 213.37 Q671.249 213.161 670.23 213.161 Q666.619 213.161 664.675 215.522 Q662.753 217.86 662.753 222.258 L662.753 235.916 L658.471 235.916 L658.471 209.99 L662.753 209.99 L662.753 214.018 Q664.096 211.657 666.249 210.522 Q668.402 209.365 671.48 209.365 Q671.92 209.365 672.452 209.434 Q672.985 209.481 673.633 209.596 L673.656 213.971 Z" fill="#000000" fill-rule="nonzero" fill-opacity="1" /><path clip-path="url(#clip590)" d="M678.124 209.99 L682.383 209.99 L682.383 235.916 L678.124 235.916 L678.124 209.99 M678.124 199.897 L682.383 199.897 L682.383 205.291 L678.124 205.291 L678.124 199.897 Z" fill="#000000" fill-rule="nonzero" fill-opacity="1" /><path clip-path="url(#clip590)" d="M695.508 202.629 L695.508 209.99 L704.281 209.99 L704.281 213.3 L695.508 213.3 L695.508 227.374 Q695.508 230.545 696.364 231.448 Q697.244 232.351 699.906 232.351 L704.281 232.351 L704.281 235.916 L699.906 235.916 Q694.975 235.916 693.101 234.087 Q691.226 232.235 691.226 227.374 L691.226 213.3 L688.101 213.3 L688.101 209.99 L691.226 209.99 L691.226 202.629 L695.508 202.629 Z" fill="#000000" fill-rule="nonzero" fill-opacity="1" /><path clip-path="url(#clip590)" d="M720.67 238.323 Q718.864 242.953 717.151 244.365 Q715.438 245.777 712.568 245.777 L709.165 245.777 L709.165 242.212 L711.665 242.212 Q713.424 242.212 714.397 241.379 Q715.369 240.545 716.549 237.443 L717.313 235.499 L706.827 209.99 L711.341 209.99 L719.443 230.268 L727.545 209.99 L732.059 209.99 L720.67 238.323 Z" fill="#000000" fill-rule="nonzero" fill-opacity="1" /></svg>
