<?xml version="1.0" encoding="utf-8"?>
<svg xmlns="http://www.w3.org/2000/svg" xmlns:xlink="http://www.w3.org/1999/xlink" width="600" height="400" viewBox="0 0 2400 1600">
<defs>
  <clipPath id="clip940">
    <rect x="0" y="0" width="2400" height="1600"/>
  </clipPath>
</defs>
<path clip-path="url(#clip940)" d="M0 1600 L2400 1600 L2400 8.88178e-14 L0 8.88178e-14  Z" fill="#ffffff" fill-rule="evenodd" fill-opacity="1"/>
<defs>
  <clipPath id="clip941">
    <rect x="480" y="0" width="1681" height="1600"/>
  </clipPath>
</defs>
<path clip-path="url(#clip940)" d="M256.209 1423.18 L2352.76 1423.18 L2352.76 123.472 L256.209 123.472  Z" fill="#ffffff" fill-rule="evenodd" fill-opacity="1"/>
<defs>
  <clipPath id="clip942">
    <rect x="256" y="123" width="2098" height="1301"/>
  </clipPath>
</defs>
<polyline clip-path="url(#clip942)" style="stroke:#000000; stroke-linecap:round; stroke-linejoin:round; stroke-width:2; stroke-opacity:0.1; fill:none" points="313.565,1423.18 313.565,123.472 "/>
<polyline clip-path="url(#clip942)" style="stroke:#000000; stroke-linecap:round; stroke-linejoin:round; stroke-width:2; stroke-opacity:0.1; fill:none" points="808.529,1423.18 808.529,123.472 "/>
<polyline clip-path="url(#clip942)" style="stroke:#000000; stroke-linecap:round; stroke-linejoin:round; stroke-width:2; stroke-opacity:0.1; fill:none" points="1303.49,1423.18 1303.49,123.472 "/>
<polyline clip-path="url(#clip942)" style="stroke:#000000; stroke-linecap:round; stroke-linejoin:round; stroke-width:2; stroke-opacity:0.1; fill:none" points="1798.46,1423.18 1798.46,123.472 "/>
<polyline clip-path="url(#clip942)" style="stroke:#000000; stroke-linecap:round; stroke-linejoin:round; stroke-width:2; stroke-opacity:0.1; fill:none" points="2293.42,1423.18 2293.42,123.472 "/>
<polyline clip-path="url(#clip940)" style="stroke:#000000; stroke-linecap:round; stroke-linejoin:round; stroke-width:4; stroke-opacity:1; fill:none" points="256.209,1423.18 2352.76,1423.18 "/>
<polyline clip-path="url(#clip940)" style="stroke:#000000; stroke-linecap:round; stroke-linejoin:round; stroke-width:4; stroke-opacity:1; fill:none" points="313.565,1423.18 313.565,1404.28 "/>
<polyline clip-path="url(#clip940)" style="stroke:#000000; stroke-linecap:round; stroke-linejoin:round; stroke-width:4; stroke-opacity:1; fill:none" points="808.529,1423.18 808.529,1404.28 "/>
<polyline clip-path="url(#clip940)" style="stroke:#000000; stroke-linecap:round; stroke-linejoin:round; stroke-width:4; stroke-opacity:1; fill:none" points="1303.49,1423.18 1303.49,1404.28 "/>
<polyline clip-path="url(#clip940)" style="stroke:#000000; stroke-linecap:round; stroke-linejoin:round; stroke-width:4; stroke-opacity:1; fill:none" points="1798.46,1423.18 1798.46,1404.28 "/>
<polyline clip-path="url(#clip940)" style="stroke:#000000; stroke-linecap:round; stroke-linejoin:round; stroke-width:4; stroke-opacity:1; fill:none" points="2293.42,1423.18 2293.42,1404.28 "/>
<path clip-path="url(#clip940)" d="M313.565 1454.1 Q309.954 1454.1 308.125 1457.66 Q306.32 1461.2 306.32 1468.33 Q306.32 1475.44 308.125 1479.01 Q309.954 1482.55 313.565 1482.55 Q317.199 1482.55 319.005 1479.01 Q320.834 1475.44 320.834 1468.33 Q320.834 1461.2 319.005 1457.66 Q317.199 1454.1 313.565 1454.1 M313.565 1450.39 Q319.375 1450.39 322.431 1455 Q325.509 1459.58 325.509 1468.33 Q325.509 1477.06 322.431 1481.67 Q319.375 1486.25 313.565 1486.25 Q307.755 1486.25 304.676 1481.67 Q301.621 1477.06 301.621 1468.33 Q301.621 1459.58 304.676 1455 Q307.755 1450.39 313.565 1450.39 Z" fill="#000000" fill-rule="nonzero" fill-opacity="1" /><path clip-path="url(#clip940)" d="M772.221 1481.64 L788.54 1481.64 L788.54 1485.58 L766.596 1485.58 L766.596 1481.64 Q769.258 1478.89 773.841 1474.26 Q778.448 1469.61 779.628 1468.27 Q781.874 1465.74 782.753 1464.01 Q783.656 1462.25 783.656 1460.56 Q783.656 1457.8 781.712 1456.07 Q779.79 1454.33 776.689 1454.33 Q774.49 1454.33 772.036 1455.09 Q769.605 1455.86 766.828 1457.41 L766.828 1452.69 Q769.652 1451.55 772.105 1450.97 Q774.559 1450.39 776.596 1450.39 Q781.966 1450.39 785.161 1453.08 Q788.355 1455.77 788.355 1460.26 Q788.355 1462.39 787.545 1464.31 Q786.758 1466.2 784.652 1468.8 Q784.073 1469.47 780.971 1472.69 Q777.869 1475.88 772.221 1481.64 Z" fill="#000000" fill-rule="nonzero" fill-opacity="1" /><path clip-path="url(#clip940)" d="M798.401 1451.02 L816.758 1451.02 L816.758 1454.96 L802.684 1454.96 L802.684 1463.43 Q803.702 1463.08 804.721 1462.92 Q805.739 1462.73 806.758 1462.73 Q812.545 1462.73 815.924 1465.9 Q819.304 1469.08 819.304 1474.49 Q819.304 1480.07 815.832 1483.17 Q812.36 1486.25 806.04 1486.25 Q803.864 1486.25 801.596 1485.88 Q799.351 1485.51 796.943 1484.77 L796.943 1480.07 Q799.026 1481.2 801.249 1481.76 Q803.471 1482.32 805.948 1482.32 Q809.952 1482.32 812.29 1480.21 Q814.628 1478.1 814.628 1474.49 Q814.628 1470.88 812.29 1468.77 Q809.952 1466.67 805.948 1466.67 Q804.073 1466.67 802.198 1467.08 Q800.346 1467.5 798.401 1468.38 L798.401 1451.02 Z" fill="#000000" fill-rule="nonzero" fill-opacity="1" /><path clip-path="url(#clip940)" d="M838.517 1454.1 Q834.906 1454.1 833.077 1457.66 Q831.272 1461.2 831.272 1468.33 Q831.272 1475.44 833.077 1479.01 Q834.906 1482.55 838.517 1482.55 Q842.151 1482.55 843.957 1479.01 Q845.785 1475.44 845.785 1468.33 Q845.785 1461.2 843.957 1457.66 Q842.151 1454.1 838.517 1454.1 M838.517 1450.39 Q844.327 1450.39 847.383 1455 Q850.461 1459.58 850.461 1468.33 Q850.461 1477.06 847.383 1481.67 Q844.327 1486.25 838.517 1486.25 Q832.707 1486.25 829.628 1481.67 Q826.573 1477.06 826.573 1468.33 Q826.573 1459.58 829.628 1455 Q832.707 1450.39 838.517 1450.39 Z" fill="#000000" fill-rule="nonzero" fill-opacity="1" /><path clip-path="url(#clip940)" d="M1263.11 1451.02 L1281.47 1451.02 L1281.47 1454.96 L1267.39 1454.96 L1267.39 1463.43 Q1268.41 1463.08 1269.43 1462.92 Q1270.45 1462.73 1271.47 1462.73 Q1277.25 1462.73 1280.63 1465.9 Q1284.01 1469.08 1284.01 1474.49 Q1284.01 1480.07 1280.54 1483.17 Q1277.07 1486.25 1270.75 1486.25 Q1268.57 1486.25 1266.31 1485.88 Q1264.06 1485.51 1261.65 1484.77 L1261.65 1480.07 Q1263.74 1481.2 1265.96 1481.76 Q1268.18 1482.32 1270.66 1482.32 Q1274.66 1482.32 1277 1480.21 Q1279.34 1478.1 1279.34 1474.49 Q1279.34 1470.88 1277 1468.77 Q1274.66 1466.67 1270.66 1466.67 Q1268.78 1466.67 1266.91 1467.08 Q1265.06 1467.5 1263.11 1468.38 L1263.11 1451.02 Z" fill="#000000" fill-rule="nonzero" fill-opacity="1" /><path clip-path="url(#clip940)" d="M1303.23 1454.1 Q1299.62 1454.1 1297.79 1457.66 Q1295.98 1461.2 1295.98 1468.33 Q1295.98 1475.44 1297.79 1479.01 Q1299.62 1482.55 1303.23 1482.55 Q1306.86 1482.55 1308.67 1479.01 Q1310.49 1475.44 1310.49 1468.33 Q1310.49 1461.2 1308.67 1457.66 Q1306.86 1454.1 1303.23 1454.1 M1303.23 1450.39 Q1309.04 1450.39 1312.09 1455 Q1315.17 1459.58 1315.17 1468.33 Q1315.17 1477.06 1312.09 1481.67 Q1309.04 1486.25 1303.23 1486.25 Q1297.42 1486.25 1294.34 1481.67 Q1291.28 1477.06 1291.28 1468.33 Q1291.28 1459.58 1294.34 1455 Q1297.42 1450.39 1303.23 1450.39 Z" fill="#000000" fill-rule="nonzero" fill-opacity="1" /><path clip-path="url(#clip940)" d="M1333.39 1454.1 Q1329.78 1454.1 1327.95 1457.66 Q1326.14 1461.2 1326.14 1468.33 Q1326.14 1475.44 1327.95 1479.01 Q1329.78 1482.55 1333.39 1482.55 Q1337.02 1482.55 1338.83 1479.01 Q1340.66 1475.44 1340.66 1468.33 Q1340.66 1461.2 1338.83 1457.66 Q1337.02 1454.1 1333.39 1454.1 M1333.39 1450.39 Q1339.2 1450.39 1342.25 1455 Q1345.33 1459.58 1345.33 1468.33 Q1345.33 1477.06 1342.25 1481.67 Q1339.2 1486.25 1333.39 1486.25 Q1327.58 1486.25 1324.5 1481.67 Q1321.44 1477.06 1321.44 1468.33 Q1321.44 1459.58 1324.5 1455 Q1327.58 1450.39 1333.39 1450.39 Z" fill="#000000" fill-rule="nonzero" fill-opacity="1" /><path clip-path="url(#clip940)" d="M1756.73 1451.02 L1778.95 1451.02 L1778.95 1453.01 L1766.41 1485.58 L1761.52 1485.58 L1773.33 1454.96 L1756.73 1454.96 L1756.73 1451.02 Z" fill="#000000" fill-rule="nonzero" fill-opacity="1" /><path clip-path="url(#clip940)" d="M1788.12 1451.02 L1806.48 1451.02 L1806.48 1454.96 L1792.4 1454.96 L1792.4 1463.43 Q1793.42 1463.08 1794.44 1462.92 Q1795.46 1462.73 1796.48 1462.73 Q1802.26 1462.73 1805.64 1465.9 Q1809.02 1469.08 1809.02 1474.49 Q1809.02 1480.07 1805.55 1483.17 Q1802.08 1486.25 1795.76 1486.25 Q1793.58 1486.25 1791.31 1485.88 Q1789.07 1485.51 1786.66 1484.77 L1786.66 1480.07 Q1788.75 1481.2 1790.97 1481.76 Q1793.19 1482.32 1795.67 1482.32 Q1799.67 1482.32 1802.01 1480.21 Q1804.35 1478.1 1804.35 1474.49 Q1804.35 1470.88 1802.01 1468.77 Q1799.67 1466.67 1795.67 1466.67 Q1793.79 1466.67 1791.92 1467.08 Q1790.06 1467.5 1788.12 1468.38 L1788.12 1451.02 Z" fill="#000000" fill-rule="nonzero" fill-opacity="1" /><path clip-path="url(#clip940)" d="M1828.24 1454.1 Q1824.62 1454.1 1822.8 1457.66 Q1820.99 1461.2 1820.99 1468.33 Q1820.99 1475.44 1822.8 1479.01 Q1824.62 1482.55 1828.24 1482.55 Q1831.87 1482.55 1833.68 1479.01 Q1835.5 1475.44 1835.5 1468.33 Q1835.5 1461.2 1833.68 1457.66 Q1831.87 1454.1 1828.24 1454.1 M1828.24 1450.39 Q1834.05 1450.39 1837.1 1455 Q1840.18 1459.58 1840.18 1468.33 Q1840.18 1477.06 1837.1 1481.67 Q1834.05 1486.25 1828.24 1486.25 Q1822.43 1486.25 1819.35 1481.67 Q1816.29 1477.06 1816.29 1468.33 Q1816.29 1459.58 1819.35 1455 Q1822.43 1450.39 1828.24 1450.39 Z" fill="#000000" fill-rule="nonzero" fill-opacity="1" /><path clip-path="url(#clip940)" d="M2237.95 1481.64 L2245.58 1481.64 L2245.58 1455.28 L2237.27 1456.95 L2237.27 1452.69 L2245.54 1451.02 L2250.21 1451.02 L2250.21 1481.64 L2257.85 1481.64 L2257.85 1485.58 L2237.95 1485.58 L2237.95 1481.64 Z" fill="#000000" fill-rule="nonzero" fill-opacity="1" /><path clip-path="url(#clip940)" d="M2277.3 1454.1 Q2273.69 1454.1 2271.86 1457.66 Q2270.05 1461.2 2270.05 1468.33 Q2270.05 1475.44 2271.86 1479.01 Q2273.69 1482.55 2277.3 1482.55 Q2280.93 1482.55 2282.74 1479.01 Q2284.57 1475.44 2284.57 1468.33 Q2284.57 1461.2 2282.74 1457.66 Q2280.93 1454.1 2277.3 1454.1 M2277.3 1450.39 Q2283.11 1450.39 2286.16 1455 Q2289.24 1459.58 2289.24 1468.33 Q2289.24 1477.06 2286.16 1481.67 Q2283.11 1486.25 2277.3 1486.25 Q2271.49 1486.25 2268.41 1481.67 Q2265.35 1477.06 2265.35 1468.33 Q2265.35 1459.58 2268.41 1455 Q2271.49 1450.39 2277.3 1450.39 Z" fill="#000000" fill-rule="nonzero" fill-opacity="1" /><path clip-path="url(#clip940)" d="M2307.46 1454.1 Q2303.85 1454.1 2302.02 1457.66 Q2300.21 1461.2 2300.21 1468.33 Q2300.21 1475.44 2302.02 1479.01 Q2303.85 1482.55 2307.46 1482.55 Q2311.09 1482.55 2312.9 1479.01 Q2314.73 1475.44 2314.73 1468.33 Q2314.73 1461.2 2312.9 1457.66 Q2311.09 1454.1 2307.46 1454.1 M2307.46 1450.39 Q2313.27 1450.39 2316.32 1455 Q2319.4 1459.58 2319.4 1468.33 Q2319.4 1477.06 2316.32 1481.67 Q2313.27 1486.25 2307.46 1486.25 Q2301.65 1486.25 2298.57 1481.67 Q2295.51 1477.06 2295.51 1468.33 Q2295.51 1459.58 2298.57 1455 Q2301.65 1450.39 2307.46 1450.39 Z" fill="#000000" fill-rule="nonzero" fill-opacity="1" /><path clip-path="url(#clip940)" d="M2337.62 1454.1 Q2334.01 1454.1 2332.18 1457.66 Q2330.38 1461.2 2330.38 1468.33 Q2330.38 1475.44 2332.18 1479.01 Q2334.01 1482.55 2337.62 1482.55 Q2341.26 1482.55 2343.06 1479.01 Q2344.89 1475.44 2344.89 1468.33 Q2344.89 1461.2 2343.06 1457.66 Q2341.26 1454.1 2337.62 1454.1 M2337.62 1450.39 Q2343.43 1450.39 2346.49 1455 Q2349.57 1459.58 2349.57 1468.33 Q2349.57 1477.06 2346.49 1481.67 Q2343.43 1486.25 2337.62 1486.25 Q2331.81 1486.25 2328.73 1481.67 Q2325.68 1477.06 2325.68 1468.33 Q2325.68 1459.58 2328.73 1455 Q2331.81 1450.39 2337.62 1450.39 Z" fill="#000000" fill-rule="nonzero" fill-opacity="1" /><path clip-path="url(#clip940)" d="M1268.33 1524.18 L1268.33 1530.96 Q1265.08 1527.94 1261.39 1526.44 Q1257.73 1524.95 1253.59 1524.95 Q1245.44 1524.95 1241.11 1529.95 Q1236.78 1534.91 1236.78 1544.33 Q1236.78 1553.72 1241.11 1558.72 Q1245.44 1563.68 1253.59 1563.68 Q1257.73 1563.68 1261.39 1562.19 Q1265.08 1560.69 1268.33 1557.67 L1268.33 1564.38 Q1264.95 1566.68 1261.16 1567.82 Q1257.41 1568.97 1253.21 1568.97 Q1242.42 1568.97 1236.21 1562.38 Q1230 1555.76 1230 1544.33 Q1230 1532.87 1236.21 1526.28 Q1242.42 1519.66 1253.21 1519.66 Q1257.47 1519.66 1261.23 1520.81 Q1265.01 1521.92 1268.33 1524.18 Z" fill="#000000" fill-rule="nonzero" fill-opacity="1" /><path clip-path="url(#clip940)" d="M1308.49 1548.76 L1308.49 1551.62 L1281.57 1551.62 Q1281.95 1557.67 1285.19 1560.85 Q1288.47 1564 1294.3 1564 Q1297.67 1564 1300.82 1563.17 Q1304 1562.35 1307.12 1560.69 L1307.12 1566.23 Q1303.97 1567.57 1300.66 1568.27 Q1297.35 1568.97 1293.95 1568.97 Q1285.42 1568.97 1280.42 1564 Q1275.45 1559.04 1275.45 1550.57 Q1275.45 1541.82 1280.17 1536.69 Q1284.91 1531.54 1292.93 1531.54 Q1300.12 1531.54 1304.29 1536.18 Q1308.49 1540.8 1308.49 1548.76 M1302.64 1547.04 Q1302.57 1542.23 1299.93 1539.37 Q1297.32 1536.5 1292.99 1536.5 Q1288.09 1536.5 1285.13 1539.27 Q1282.2 1542.04 1281.76 1547.07 L1302.64 1547.04 Z" fill="#000000" fill-rule="nonzero" fill-opacity="1" /><path clip-path="url(#clip940)" d="M1318.1 1518.52 L1323.96 1518.52 L1323.96 1568.04 L1318.1 1568.04 L1318.1 1518.52 Z" fill="#000000" fill-rule="nonzero" fill-opacity="1" /><path clip-path="url(#clip940)" d="M1336.22 1518.52 L1342.07 1518.52 L1342.07 1568.04 L1336.22 1568.04 L1336.22 1518.52 Z" fill="#000000" fill-rule="nonzero" fill-opacity="1" /><path clip-path="url(#clip940)" d="M1377.05 1533.45 L1377.05 1538.98 Q1374.57 1537.71 1371.9 1537.07 Q1369.22 1536.44 1366.36 1536.44 Q1362 1536.44 1359.8 1537.77 Q1357.64 1539.11 1357.64 1541.79 Q1357.64 1543.82 1359.2 1545 Q1360.76 1546.15 1365.47 1547.2 L1367.47 1547.64 Q1373.71 1548.98 1376.32 1551.43 Q1378.96 1553.85 1378.96 1558.21 Q1378.96 1563.17 1375.01 1566.07 Q1371.1 1568.97 1364.22 1568.97 Q1361.36 1568.97 1358.24 1568.39 Q1355.15 1567.85 1351.72 1566.74 L1351.72 1560.69 Q1354.96 1562.38 1358.11 1563.24 Q1361.26 1564.07 1364.35 1564.07 Q1368.49 1564.07 1370.72 1562.66 Q1372.95 1561.23 1372.95 1558.65 Q1372.95 1556.27 1371.32 1554.99 Q1369.73 1553.72 1364.29 1552.54 L1362.25 1552.07 Q1356.81 1550.92 1354.39 1548.56 Q1351.97 1546.18 1351.97 1542.04 Q1351.97 1537.01 1355.54 1534.27 Q1359.1 1531.54 1365.66 1531.54 Q1368.9 1531.54 1371.77 1532.01 Q1374.63 1532.49 1377.05 1533.45 Z" fill="#000000" fill-rule="nonzero" fill-opacity="1" /><polyline clip-path="url(#clip942)" style="stroke:#000000; stroke-linecap:round; stroke-linejoin:round; stroke-width:2; stroke-opacity:0.1; fill:none" points="256.209,1168.86 2352.76,1168.86 "/>
<polyline clip-path="url(#clip942)" style="stroke:#000000; stroke-linecap:round; stroke-linejoin:round; stroke-width:2; stroke-opacity:0.1; fill:none" points="256.209,832.311 2352.76,832.311 "/>
<polyline clip-path="url(#clip942)" style="stroke:#000000; stroke-linecap:round; stroke-linejoin:round; stroke-width:2; stroke-opacity:0.1; fill:none" points="256.209,495.759 2352.76,495.759 "/>
<polyline clip-path="url(#clip942)" style="stroke:#000000; stroke-linecap:round; stroke-linejoin:round; stroke-width:2; stroke-opacity:0.1; fill:none" points="256.209,159.208 2352.76,159.208 "/>
<polyline clip-path="url(#clip940)" style="stroke:#000000; stroke-linecap:round; stroke-linejoin:round; stroke-width:4; stroke-opacity:1; fill:none" points="256.209,1423.18 256.209,123.472 "/>
<polyline clip-path="url(#clip940)" style="stroke:#000000; stroke-linecap:round; stroke-linejoin:round; stroke-width:4; stroke-opacity:1; fill:none" points="256.209,1168.86 275.106,1168.86 "/>
<polyline clip-path="url(#clip940)" style="stroke:#000000; stroke-linecap:round; stroke-linejoin:round; stroke-width:4; stroke-opacity:1; fill:none" points="256.209,832.311 275.106,832.311 "/>
<polyline clip-path="url(#clip940)" style="stroke:#000000; stroke-linecap:round; stroke-linejoin:round; stroke-width:4; stroke-opacity:1; fill:none" points="256.209,495.759 275.106,495.759 "/>
<polyline clip-path="url(#clip940)" style="stroke:#000000; stroke-linecap:round; stroke-linejoin:round; stroke-width:4; stroke-opacity:1; fill:none" points="256.209,159.208 275.106,159.208 "/>
<path clip-path="url(#clip940)" d="M114.26 1169.31 L143.936 1169.31 L143.936 1173.25 L114.26 1173.25 L114.26 1169.31 Z" fill="#000000" fill-rule="nonzero" fill-opacity="1" /><path clip-path="url(#clip940)" d="M164.028 1154.66 Q160.417 1154.66 158.589 1158.23 Q156.783 1161.77 156.783 1168.9 Q156.783 1176 158.589 1179.57 Q160.417 1183.11 164.028 1183.11 Q167.663 1183.11 169.468 1179.57 Q171.297 1176 171.297 1168.9 Q171.297 1161.77 169.468 1158.23 Q167.663 1154.66 164.028 1154.66 M164.028 1150.96 Q169.839 1150.96 172.894 1155.56 Q175.973 1160.15 175.973 1168.9 Q175.973 1177.62 172.894 1182.23 Q169.839 1186.81 164.028 1186.81 Q158.218 1186.81 155.14 1182.23 Q152.084 1177.62 152.084 1168.9 Q152.084 1160.15 155.14 1155.56 Q158.218 1150.96 164.028 1150.96 Z" fill="#000000" fill-rule="nonzero" fill-opacity="1" /><path clip-path="url(#clip940)" d="M184.19 1180.26 L189.075 1180.26 L189.075 1186.14 L184.19 1186.14 L184.19 1180.26 Z" fill="#000000" fill-rule="nonzero" fill-opacity="1" /><path clip-path="url(#clip940)" d="M199.306 1151.58 L217.662 1151.58 L217.662 1155.52 L203.588 1155.52 L203.588 1163.99 Q204.607 1163.64 205.625 1163.48 Q206.644 1163.3 207.662 1163.3 Q213.449 1163.3 216.829 1166.47 Q220.209 1169.64 220.209 1175.05 Q220.209 1180.63 216.736 1183.74 Q213.264 1186.81 206.945 1186.81 Q204.769 1186.81 202.5 1186.44 Q200.255 1186.07 197.848 1185.33 L197.848 1180.63 Q199.931 1181.77 202.153 1182.32 Q204.375 1182.88 206.852 1182.88 Q210.857 1182.88 213.195 1180.77 Q215.533 1178.67 215.533 1175.05 Q215.533 1171.44 213.195 1169.34 Q210.857 1167.23 206.852 1167.23 Q204.977 1167.23 203.102 1167.65 Q201.25 1168.06 199.306 1168.94 L199.306 1151.58 Z" fill="#000000" fill-rule="nonzero" fill-opacity="1" /><path clip-path="url(#clip940)" d="M163.033 818.11 Q159.422 818.11 157.593 821.674 Q155.788 825.216 155.788 832.346 Q155.788 839.452 157.593 843.017 Q159.422 846.559 163.033 846.559 Q166.667 846.559 168.473 843.017 Q170.302 839.452 170.302 832.346 Q170.302 825.216 168.473 821.674 Q166.667 818.11 163.033 818.11 M163.033 814.406 Q168.843 814.406 171.899 819.012 Q174.977 823.596 174.977 832.346 Q174.977 841.072 171.899 845.679 Q168.843 850.262 163.033 850.262 Q157.223 850.262 154.144 845.679 Q151.089 841.072 151.089 832.346 Q151.089 823.596 154.144 819.012 Q157.223 814.406 163.033 814.406 Z" fill="#000000" fill-rule="nonzero" fill-opacity="1" /><path clip-path="url(#clip940)" d="M183.195 843.711 L188.079 843.711 L188.079 849.591 L183.195 849.591 L183.195 843.711 Z" fill="#000000" fill-rule="nonzero" fill-opacity="1" /><path clip-path="url(#clip940)" d="M208.264 818.11 Q204.653 818.11 202.824 821.674 Q201.019 825.216 201.019 832.346 Q201.019 839.452 202.824 843.017 Q204.653 846.559 208.264 846.559 Q211.899 846.559 213.704 843.017 Q215.533 839.452 215.533 832.346 Q215.533 825.216 213.704 821.674 Q211.899 818.11 208.264 818.11 M208.264 814.406 Q214.074 814.406 217.13 819.012 Q220.209 823.596 220.209 832.346 Q220.209 841.072 217.13 845.679 Q214.074 850.262 208.264 850.262 Q202.454 850.262 199.375 845.679 Q196.32 841.072 196.32 832.346 Q196.32 823.596 199.375 819.012 Q202.454 814.406 208.264 814.406 Z" fill="#000000" fill-rule="nonzero" fill-opacity="1" /><path clip-path="url(#clip940)" d="M164.028 481.558 Q160.417 481.558 158.589 485.123 Q156.783 488.665 156.783 495.794 Q156.783 502.901 158.589 506.465 Q160.417 510.007 164.028 510.007 Q167.663 510.007 169.468 506.465 Q171.297 502.901 171.297 495.794 Q171.297 488.665 169.468 485.123 Q167.663 481.558 164.028 481.558 M164.028 477.854 Q169.839 477.854 172.894 482.461 Q175.973 487.044 175.973 495.794 Q175.973 504.521 172.894 509.127 Q169.839 513.711 164.028 513.711 Q158.218 513.711 155.14 509.127 Q152.084 504.521 152.084 495.794 Q152.084 487.044 155.14 482.461 Q158.218 477.854 164.028 477.854 Z" fill="#000000" fill-rule="nonzero" fill-opacity="1" /><path clip-path="url(#clip940)" d="M184.19 507.16 L189.075 507.16 L189.075 513.039 L184.19 513.039 L184.19 507.16 Z" fill="#000000" fill-rule="nonzero" fill-opacity="1" /><path clip-path="url(#clip940)" d="M199.306 478.479 L217.662 478.479 L217.662 482.415 L203.588 482.415 L203.588 490.887 Q204.607 490.54 205.625 490.377 Q206.644 490.192 207.662 490.192 Q213.449 490.192 216.829 493.364 Q220.209 496.535 220.209 501.952 Q220.209 507.53 216.736 510.632 Q213.264 513.711 206.945 513.711 Q204.769 513.711 202.5 513.34 Q200.255 512.97 197.848 512.229 L197.848 507.53 Q199.931 508.664 202.153 509.22 Q204.375 509.776 206.852 509.776 Q210.857 509.776 213.195 507.669 Q215.533 505.563 215.533 501.952 Q215.533 498.34 213.195 496.234 Q210.857 494.127 206.852 494.127 Q204.977 494.127 203.102 494.544 Q201.25 494.961 199.306 495.84 L199.306 478.479 Z" fill="#000000" fill-rule="nonzero" fill-opacity="1" /><path clip-path="url(#clip940)" d="M153.843 172.553 L161.482 172.553 L161.482 146.187 L153.172 147.854 L153.172 143.595 L161.436 141.928 L166.112 141.928 L166.112 172.553 L173.751 172.553 L173.751 176.488 L153.843 176.488 L153.843 172.553 Z" fill="#000000" fill-rule="nonzero" fill-opacity="1" /><path clip-path="url(#clip940)" d="M183.195 170.608 L188.079 170.608 L188.079 176.488 L183.195 176.488 L183.195 170.608 Z" fill="#000000" fill-rule="nonzero" fill-opacity="1" /><path clip-path="url(#clip940)" d="M208.264 145.007 Q204.653 145.007 202.824 148.571 Q201.019 152.113 201.019 159.243 Q201.019 166.349 202.824 169.914 Q204.653 173.455 208.264 173.455 Q211.899 173.455 213.704 169.914 Q215.533 166.349 215.533 159.243 Q215.533 152.113 213.704 148.571 Q211.899 145.007 208.264 145.007 M208.264 141.303 Q214.074 141.303 217.13 145.909 Q220.209 150.493 220.209 159.243 Q220.209 167.969 217.13 172.576 Q214.074 177.159 208.264 177.159 Q202.454 177.159 199.375 172.576 Q196.32 167.969 196.32 159.243 Q196.32 150.493 199.375 145.909 Q202.454 141.303 208.264 141.303 Z" fill="#000000" fill-rule="nonzero" fill-opacity="1" /><path clip-path="url(#clip940)" d="M18.0438 893.717 L24.314 893.717 Q22.5634 897.378 21.704 900.624 Q20.8447 903.871 20.8447 906.894 Q20.8447 912.146 22.8817 915.011 Q24.9187 917.843 28.6745 917.843 Q31.8255 917.843 33.4488 915.966 Q35.0402 914.056 36.0269 908.772 L36.8226 904.889 Q38.1912 897.696 41.6605 894.29 Q45.098 890.853 50.8908 890.853 Q57.7976 890.853 61.3624 895.5 Q64.9272 900.115 64.9272 909.059 Q64.9272 912.433 64.1633 916.252 Q63.3994 920.04 61.9035 924.114 L55.2831 924.114 Q57.4793 920.199 58.5933 916.443 Q59.7073 912.687 59.7073 909.059 Q59.7073 903.552 57.543 900.561 Q55.3786 897.569 51.3682 897.569 Q47.8671 897.569 45.8937 899.733 Q43.9204 901.866 42.9337 906.767 L42.1698 910.682 Q40.7375 917.875 37.682 921.09 Q34.6264 924.305 29.1837 924.305 Q22.8817 924.305 19.2532 919.88 Q15.6248 915.424 15.6248 907.626 Q15.6248 904.284 16.2295 900.815 Q16.8343 897.346 18.0438 893.717 Z" fill="#000000" fill-rule="nonzero" fill-opacity="1" /><path clip-path="url(#clip940)" d="M28.3562 881.081 L28.3562 875.225 L64.0042 875.225 L64.0042 881.081 L28.3562 881.081 M14.479 881.081 L14.479 875.225 L21.895 875.225 L21.895 881.081 L14.479 881.081 Z" fill="#000000" fill-rule="nonzero" fill-opacity="1" /><path clip-path="url(#clip940)" d="M35.1993 835.217 Q31.2526 833.02 29.3747 829.965 Q27.4968 826.909 27.4968 822.772 Q27.4968 817.202 31.4117 814.178 Q35.2948 811.154 42.4881 811.154 L64.0042 811.154 L64.0042 817.042 L42.679 817.042 Q37.5546 817.042 35.072 818.857 Q32.5894 820.671 32.5894 824.395 Q32.5894 828.946 35.6131 831.588 Q38.6368 834.23 43.8567 834.23 L64.0042 834.23 L64.0042 840.118 L42.679 840.118 Q37.5228 840.118 35.072 841.932 Q32.5894 843.747 32.5894 847.534 Q32.5894 852.022 35.6449 854.664 Q38.6686 857.306 43.8567 857.306 L64.0042 857.306 L64.0042 863.194 L28.3562 863.194 L28.3562 857.306 L33.8944 857.306 Q30.616 855.3 29.0564 852.499 Q27.4968 849.699 27.4968 845.847 Q27.4968 841.964 29.4702 839.259 Q31.4436 836.522 35.1993 835.217 Z" fill="#000000" fill-rule="nonzero" fill-opacity="1" /><path clip-path="url(#clip940)" d="M28.3562 799.473 L28.3562 793.617 L64.0042 793.617 L64.0042 799.473 L28.3562 799.473 M14.479 799.473 L14.479 793.617 L21.895 793.617 L21.895 799.473 L14.479 799.473 Z" fill="#000000" fill-rule="nonzero" fill-opacity="1" /><path clip-path="url(#clip940)" d="M14.479 781.363 L14.479 775.506 L64.0042 775.506 L64.0042 781.363 L14.479 781.363 Z" fill="#000000" fill-rule="nonzero" fill-opacity="1" /><path clip-path="url(#clip940)" d="M46.0847 747.052 Q46.0847 754.149 47.7079 756.887 Q49.3312 759.624 53.2461 759.624 Q56.3653 759.624 58.2114 757.587 Q60.0256 755.518 60.0256 751.985 Q60.0256 747.115 56.5881 744.187 Q53.1188 741.227 47.3897 741.227 L46.0847 741.227 L46.0847 747.052 M43.6657 735.37 L64.0042 735.37 L64.0042 741.227 L58.5933 741.227 Q61.8398 743.232 63.3994 746.224 Q64.9272 749.216 64.9272 753.545 Q64.9272 759.019 61.8716 762.266 Q58.7843 765.48 53.6281 765.48 Q47.6125 765.48 44.5569 761.47 Q41.5014 757.428 41.5014 749.439 L41.5014 741.227 L40.9285 741.227 Q36.8862 741.227 34.6901 743.901 Q32.4621 746.542 32.4621 751.348 Q32.4621 754.404 33.1941 757.3 Q33.9262 760.197 35.3903 762.87 L29.9795 762.87 Q28.7381 759.656 28.1334 756.632 Q27.4968 753.608 27.4968 750.744 Q27.4968 743.009 31.5072 739.19 Q35.5176 735.37 43.6657 735.37 Z" fill="#000000" fill-rule="nonzero" fill-opacity="1" /><path clip-path="url(#clip940)" d="M33.8307 702.651 Q33.2578 703.637 33.0032 704.815 Q32.7167 705.961 32.7167 707.361 Q32.7167 712.327 35.9632 715 Q39.1779 717.642 45.2253 717.642 L64.0042 717.642 L64.0042 723.53 L28.3562 723.53 L28.3562 717.642 L33.8944 717.642 Q30.6479 715.796 29.0883 712.836 Q27.4968 709.876 27.4968 705.643 Q27.4968 705.038 27.5923 704.306 Q27.656 703.574 27.8151 702.683 L33.8307 702.651 Z" fill="#000000" fill-rule="nonzero" fill-opacity="1" /><path clip-path="url(#clip940)" d="M28.3562 696.508 L28.3562 690.651 L64.0042 690.651 L64.0042 696.508 L28.3562 696.508 M14.479 696.508 L14.479 690.651 L21.895 690.651 L21.895 696.508 L14.479 696.508 Z" fill="#000000" fill-rule="nonzero" fill-opacity="1" /><path clip-path="url(#clip940)" d="M18.2347 672.605 L28.3562 672.605 L28.3562 660.542 L32.9077 660.542 L32.9077 672.605 L52.2594 672.605 Q56.6199 672.605 57.8613 671.427 Q59.1026 670.217 59.1026 666.557 L59.1026 660.542 L64.0042 660.542 L64.0042 666.557 Q64.0042 673.337 61.4897 675.915 Q58.9434 678.493 52.2594 678.493 L32.9077 678.493 L32.9077 682.79 L28.3562 682.79 L28.3562 678.493 L18.2347 678.493 L18.2347 672.605 Z" fill="#000000" fill-rule="nonzero" fill-opacity="1" /><path clip-path="url(#clip940)" d="M67.3143 638.007 Q73.68 640.49 75.6216 642.845 Q77.5631 645.2 77.5631 649.147 L77.5631 653.826 L72.6615 653.826 L72.6615 650.388 Q72.6615 647.969 71.5157 646.633 Q70.3699 645.296 66.1048 643.672 L63.4312 642.622 L28.3562 657.04 L28.3562 650.834 L56.238 639.694 L28.3562 628.554 L28.3562 622.347 L67.3143 638.007 Z" fill="#000000" fill-rule="nonzero" fill-opacity="1" /><path clip-path="url(#clip940)" d="M423.147 14.0809 L423.147 22.0612 Q418.489 19.8332 414.357 18.7395 Q410.225 17.6457 406.377 17.6457 Q399.693 17.6457 396.047 20.2383 Q392.441 22.8309 392.441 27.611 Q392.441 31.6214 394.831 33.6873 Q397.262 35.7128 403.987 36.9686 L408.929 37.9813 Q418.084 39.7232 422.418 44.1387 Q426.793 48.5136 426.793 55.8863 Q426.793 64.6767 420.879 69.2137 Q415.005 73.7508 403.622 73.7508 Q399.328 73.7508 394.467 72.7785 Q389.646 71.8063 384.461 69.9024 L384.461 61.4765 Q389.444 64.2716 394.224 65.6895 Q399.004 67.1073 403.622 67.1073 Q410.63 67.1073 414.438 64.3527 Q418.246 61.598 418.246 56.4939 Q418.246 52.0379 415.491 49.5264 Q412.777 47.0148 406.539 45.759 L401.556 44.7868 Q392.401 42.9639 388.31 39.075 Q384.218 35.1862 384.218 28.2591 Q384.218 20.2383 389.849 15.6203 Q395.52 11.0023 405.445 11.0023 Q409.698 11.0023 414.114 11.7719 Q418.529 12.5416 423.147 14.0809 Z" fill="#000000" fill-rule="nonzero" fill-opacity="1" /><path clip-path="url(#clip940)" d="M456.81 32.4315 Q450.815 32.4315 447.331 37.1306 Q443.847 41.7891 443.847 49.9314 Q443.847 58.0738 447.291 62.7728 Q450.774 67.4314 456.81 67.4314 Q462.765 67.4314 466.249 62.7323 Q469.733 58.0333 469.733 49.9314 Q469.733 41.8701 466.249 37.1711 Q462.765 32.4315 456.81 32.4315 M456.81 26.1121 Q466.532 26.1121 472.082 32.4315 Q477.632 38.7509 477.632 49.9314 Q477.632 61.0714 472.082 67.4314 Q466.532 73.7508 456.81 73.7508 Q447.048 73.7508 441.498 67.4314 Q435.989 61.0714 435.989 49.9314 Q435.989 38.7509 441.498 32.4315 Q447.048 26.1121 456.81 26.1121 Z" fill="#000000" fill-rule="nonzero" fill-opacity="1" /><path clip-path="url(#clip940)" d="M516.278 34.1734 Q515.022 33.4443 513.523 33.1202 Q512.065 32.7556 510.282 32.7556 Q503.963 32.7556 500.56 36.8875 Q497.198 40.9789 497.198 48.6757 L497.198 72.576 L489.704 72.576 L489.704 27.2059 L497.198 27.2059 L497.198 34.2544 Q499.547 30.1225 503.315 28.1376 Q507.082 26.1121 512.47 26.1121 Q513.239 26.1121 514.171 26.2337 Q515.103 26.3147 516.237 26.5172 L516.278 34.1734 Z" fill="#000000" fill-rule="nonzero" fill-opacity="1" /><path clip-path="url(#clip940)" d="M531.468 14.324 L531.468 27.2059 L546.821 27.2059 L546.821 32.9987 L531.468 32.9987 L531.468 57.6282 Q531.468 63.1779 532.967 64.7578 Q534.507 66.3376 539.165 66.3376 L546.821 66.3376 L546.821 72.576 L539.165 72.576 Q530.537 72.576 527.256 69.3758 Q523.974 66.1351 523.974 57.6282 L523.974 32.9987 L518.506 32.9987 L518.506 27.2059 L523.974 27.2059 L523.974 14.324 L531.468 14.324 Z" fill="#000000" fill-rule="nonzero" fill-opacity="1" /><path clip-path="url(#clip940)" d="M595.432 48.0275 L595.432 51.6733 L561.162 51.6733 Q561.648 59.3701 565.78 63.421 Q569.952 67.4314 577.365 67.4314 Q581.659 67.4314 585.67 66.3781 Q589.72 65.3249 593.69 63.2184 L593.69 70.267 Q589.68 71.9684 585.467 72.8596 Q581.254 73.7508 576.92 73.7508 Q566.063 73.7508 559.703 67.4314 Q553.384 61.1119 553.384 50.3365 Q553.384 39.1965 559.379 32.6746 Q565.415 26.1121 575.623 26.1121 Q584.778 26.1121 590.085 32.0264 Q595.432 37.9003 595.432 48.0275 M587.979 45.84 Q587.898 39.7232 584.535 36.0774 Q581.214 32.4315 575.704 32.4315 Q569.466 32.4315 565.699 35.9558 Q561.972 39.4801 561.405 45.8805 L587.979 45.84 Z" fill="#000000" fill-rule="nonzero" fill-opacity="1" /><path clip-path="url(#clip940)" d="M637.521 34.0924 L637.521 9.54393 L644.975 9.54393 L644.975 72.576 L637.521 72.576 L637.521 65.7705 Q635.172 69.8214 631.566 71.8063 Q628.002 73.7508 622.978 73.7508 Q614.755 73.7508 609.57 67.1883 Q604.425 60.6258 604.425 49.9314 Q604.425 39.2371 609.57 32.6746 Q614.755 26.1121 622.978 26.1121 Q628.002 26.1121 631.566 28.0971 Q635.172 30.0415 637.521 34.0924 M612.122 49.9314 Q612.122 58.1548 615.484 62.8538 Q618.887 67.5124 624.801 67.5124 Q630.716 67.5124 634.118 62.8538 Q637.521 58.1548 637.521 49.9314 Q637.521 41.7081 634.118 37.0496 Q630.716 32.3505 624.801 32.3505 Q618.887 32.3505 615.484 37.0496 Q612.122 41.7081 612.122 49.9314 Z" fill="#000000" fill-rule="nonzero" fill-opacity="1" /><path clip-path="url(#clip940)" d="M719.349 28.9478 L719.349 35.9153 Q716.19 34.1734 712.99 33.3227 Q709.83 32.4315 706.589 32.4315 Q699.338 32.4315 695.328 37.0496 Q691.317 41.6271 691.317 49.9314 Q691.317 58.2358 695.328 62.8538 Q699.338 67.4314 706.589 67.4314 Q709.83 67.4314 712.99 66.5807 Q716.19 65.6895 719.349 63.9476 L719.349 70.8341 Q716.23 72.2924 712.868 73.0216 Q709.546 73.7508 705.779 73.7508 Q695.53 73.7508 689.494 67.3098 Q683.458 60.8689 683.458 49.9314 Q683.458 38.832 689.535 32.472 Q695.652 26.1121 706.265 26.1121 Q709.708 26.1121 712.99 26.8413 Q716.271 27.5299 719.349 28.9478 Z" fill="#000000" fill-rule="nonzero" fill-opacity="1" /><path clip-path="url(#clip940)" d="M749.893 32.4315 Q743.898 32.4315 740.414 37.1306 Q736.93 41.7891 736.93 49.9314 Q736.93 58.0738 740.374 62.7728 Q743.857 67.4314 749.893 67.4314 Q755.848 67.4314 759.332 62.7323 Q762.816 58.0333 762.816 49.9314 Q762.816 41.8701 759.332 37.1711 Q755.848 32.4315 749.893 32.4315 M749.893 26.1121 Q759.615 26.1121 765.165 32.4315 Q770.715 38.7509 770.715 49.9314 Q770.715 61.0714 765.165 67.4314 Q759.615 73.7508 749.893 73.7508 Q740.131 73.7508 734.581 67.4314 Q729.072 61.0714 729.072 49.9314 Q729.072 38.7509 734.581 32.4315 Q740.131 26.1121 749.893 26.1121 Z" fill="#000000" fill-rule="nonzero" fill-opacity="1" /><path clip-path="url(#clip940)" d="M811.994 28.5427 L811.994 35.5912 Q808.834 33.9709 805.431 33.1607 Q802.028 32.3505 798.383 32.3505 Q792.833 32.3505 790.038 34.0519 Q787.283 35.7533 787.283 39.156 Q787.283 41.7486 789.268 43.2475 Q791.253 44.7058 797.248 46.0426 L799.8 46.6097 Q807.74 48.3111 811.062 51.4303 Q814.424 54.509 814.424 60.0587 Q814.424 66.3781 809.401 70.0644 Q804.418 73.7508 795.668 73.7508 Q792.023 73.7508 788.053 73.0216 Q784.123 72.3329 779.748 70.9151 L779.748 63.2184 Q783.88 65.3654 787.891 66.4591 Q791.901 67.5124 795.83 67.5124 Q801.097 67.5124 803.932 65.73 Q806.768 63.9071 806.768 60.6258 Q806.768 57.5877 804.702 55.9673 Q802.677 54.3469 795.749 52.8481 L793.157 52.2405 Q786.23 50.7821 783.151 47.7845 Q780.072 44.7463 780.072 39.4801 Q780.072 33.0797 784.609 29.5959 Q789.147 26.1121 797.491 26.1121 Q801.623 26.1121 805.269 26.7198 Q808.915 27.3274 811.994 28.5427 Z" fill="#000000" fill-rule="nonzero" fill-opacity="1" /><path clip-path="url(#clip940)" d="M826.293 27.2059 L833.747 27.2059 L833.747 72.576 L826.293 72.576 L826.293 27.2059 M826.293 9.54393 L833.747 9.54393 L833.747 18.9825 L826.293 18.9825 L826.293 9.54393 Z" fill="#000000" fill-rule="nonzero" fill-opacity="1" /><path clip-path="url(#clip940)" d="M887.057 45.1919 L887.057 72.576 L879.603 72.576 L879.603 45.4349 Q879.603 38.994 877.092 35.7938 Q874.58 32.5936 869.557 32.5936 Q863.521 32.5936 860.037 36.4419 Q856.554 40.2903 856.554 46.9338 L856.554 72.576 L849.059 72.576 L849.059 27.2059 L856.554 27.2059 L856.554 34.2544 Q859.227 30.163 862.832 28.1376 Q866.478 26.1121 871.218 26.1121 Q879.036 26.1121 883.046 30.9732 Q887.057 35.7938 887.057 45.1919 Z" fill="#000000" fill-rule="nonzero" fill-opacity="1" /><path clip-path="url(#clip940)" d="M940.731 48.0275 L940.731 51.6733 L906.461 51.6733 Q906.947 59.3701 911.079 63.421 Q915.251 67.4314 922.664 67.4314 Q926.958 67.4314 930.969 66.3781 Q935.02 65.3249 938.989 63.2184 L938.989 70.267 Q934.979 71.9684 930.766 72.8596 Q926.553 73.7508 922.219 73.7508 Q911.362 73.7508 905.002 67.4314 Q898.683 61.1119 898.683 50.3365 Q898.683 39.1965 904.678 32.6746 Q910.714 26.1121 920.922 26.1121 Q930.077 26.1121 935.384 32.0264 Q940.731 37.9003 940.731 48.0275 M933.278 45.84 Q933.197 39.7232 929.834 36.0774 Q926.513 32.4315 921.003 32.4315 Q914.765 32.4315 910.998 35.9558 Q907.271 39.4801 906.704 45.8805 L933.278 45.84 Z" fill="#000000" fill-rule="nonzero" fill-opacity="1" /><path clip-path="url(#clip940)" d="M1008.26 28.5427 L1008.26 35.5912 Q1005.1 33.9709 1001.7 33.1607 Q998.295 32.3505 994.649 32.3505 Q989.099 32.3505 986.304 34.0519 Q983.549 35.7533 983.549 39.156 Q983.549 41.7486 985.534 43.2475 Q987.519 44.7058 993.515 46.0426 L996.067 46.6097 Q1004.01 48.3111 1007.33 51.4303 Q1010.69 54.509 1010.69 60.0587 Q1010.69 66.3781 1005.67 70.0644 Q1000.68 73.7508 991.935 73.7508 Q988.289 73.7508 984.319 73.0216 Q980.39 72.3329 976.015 70.9151 L976.015 63.2184 Q980.147 65.3654 984.157 66.4591 Q988.167 67.5124 992.097 67.5124 Q997.363 67.5124 1000.2 65.73 Q1003.03 63.9071 1003.03 60.6258 Q1003.03 57.5877 1000.97 55.9673 Q998.943 54.3469 992.016 52.8481 L989.423 52.2405 Q982.496 50.7821 979.417 47.7845 Q976.339 44.7463 976.339 39.4801 Q976.339 33.0797 980.876 29.5959 Q985.413 26.1121 993.758 26.1121 Q997.89 26.1121 1001.54 26.7198 Q1005.18 27.3274 1008.26 28.5427 Z" fill="#000000" fill-rule="nonzero" fill-opacity="1" /><path clip-path="url(#clip940)" d="M1022.56 27.2059 L1030.01 27.2059 L1030.01 72.576 L1022.56 72.576 L1022.56 27.2059 M1022.56 9.54393 L1030.01 9.54393 L1030.01 18.9825 L1022.56 18.9825 L1022.56 9.54393 Z" fill="#000000" fill-rule="nonzero" fill-opacity="1" /><path clip-path="url(#clip940)" d="M1080.93 35.9153 Q1083.73 30.8922 1087.62 28.5022 Q1091.51 26.1121 1096.77 26.1121 Q1103.86 26.1121 1107.71 31.0947 Q1111.56 36.0368 1111.56 45.1919 L1111.56 72.576 L1104.06 72.576 L1104.06 45.4349 Q1104.06 38.913 1101.75 35.7533 Q1099.45 32.5936 1094.71 32.5936 Q1088.91 32.5936 1085.55 36.4419 Q1082.19 40.2903 1082.19 46.9338 L1082.19 72.576 L1074.69 72.576 L1074.69 45.4349 Q1074.69 38.8725 1072.39 35.7533 Q1070.08 32.5936 1065.26 32.5936 Q1059.54 32.5936 1056.18 36.4824 Q1052.82 40.3308 1052.82 46.9338 L1052.82 72.576 L1045.33 72.576 L1045.33 27.2059 L1052.82 27.2059 L1052.82 34.2544 Q1055.37 30.082 1058.94 28.0971 Q1062.5 26.1121 1067.4 26.1121 Q1072.35 26.1121 1075.79 28.6237 Q1079.27 31.1352 1080.93 35.9153 Z" fill="#000000" fill-rule="nonzero" fill-opacity="1" /><path clip-path="url(#clip940)" d="M1126.42 27.2059 L1133.88 27.2059 L1133.88 72.576 L1126.42 72.576 L1126.42 27.2059 M1126.42 9.54393 L1133.88 9.54393 L1133.88 18.9825 L1126.42 18.9825 L1126.42 9.54393 Z" fill="#000000" fill-rule="nonzero" fill-opacity="1" /><path clip-path="url(#clip940)" d="M1149.47 9.54393 L1156.93 9.54393 L1156.93 72.576 L1149.47 72.576 L1149.47 9.54393 Z" fill="#000000" fill-rule="nonzero" fill-opacity="1" /><path clip-path="url(#clip940)" d="M1193.14 49.7694 Q1184.11 49.7694 1180.63 51.8354 Q1177.14 53.9013 1177.14 58.8839 Q1177.14 62.8538 1179.73 65.2034 Q1182.37 67.5124 1186.86 67.5124 Q1193.06 67.5124 1196.79 63.1374 Q1200.56 58.7219 1200.56 51.4303 L1200.56 49.7694 L1193.14 49.7694 M1208.01 46.6907 L1208.01 72.576 L1200.56 72.576 L1200.56 65.6895 Q1198 69.8214 1194.2 71.8063 Q1190.39 73.7508 1184.88 73.7508 Q1177.91 73.7508 1173.78 69.8619 Q1169.69 65.9325 1169.69 59.3701 Q1169.69 51.7138 1174.79 47.825 Q1179.94 43.9361 1190.11 43.9361 L1200.56 43.9361 L1200.56 43.2069 Q1200.56 38.0623 1197.15 35.2672 Q1193.79 32.4315 1187.67 32.4315 Q1183.79 32.4315 1180.1 33.3632 Q1176.41 34.295 1173.01 36.1584 L1173.01 29.2718 Q1177.1 27.692 1180.95 26.9223 Q1184.8 26.1121 1188.44 26.1121 Q1198.29 26.1121 1203.15 31.2163 Q1208.01 36.3204 1208.01 46.6907 Z" fill="#000000" fill-rule="nonzero" fill-opacity="1" /><path clip-path="url(#clip940)" d="M1249.65 34.1734 Q1248.4 33.4443 1246.9 33.1202 Q1245.44 32.7556 1243.66 32.7556 Q1237.34 32.7556 1233.94 36.8875 Q1230.57 40.9789 1230.57 48.6757 L1230.57 72.576 L1223.08 72.576 L1223.08 27.2059 L1230.57 27.2059 L1230.57 34.2544 Q1232.92 30.1225 1236.69 28.1376 Q1240.46 26.1121 1245.85 26.1121 Q1246.62 26.1121 1247.55 26.2337 Q1248.48 26.3147 1249.61 26.5172 L1249.65 34.1734 Z" fill="#000000" fill-rule="nonzero" fill-opacity="1" /><path clip-path="url(#clip940)" d="M1257.47 27.2059 L1264.93 27.2059 L1264.93 72.576 L1257.47 72.576 L1257.47 27.2059 M1257.47 9.54393 L1264.93 9.54393 L1264.93 18.9825 L1257.47 18.9825 L1257.47 9.54393 Z" fill="#000000" fill-rule="nonzero" fill-opacity="1" /><path clip-path="url(#clip940)" d="M1287.89 14.324 L1287.89 27.2059 L1303.25 27.2059 L1303.25 32.9987 L1287.89 32.9987 L1287.89 57.6282 Q1287.89 63.1779 1289.39 64.7578 Q1290.93 66.3376 1295.59 66.3376 L1303.25 66.3376 L1303.25 72.576 L1295.59 72.576 Q1286.96 72.576 1283.68 69.3758 Q1280.4 66.1351 1280.4 57.6282 L1280.4 32.9987 L1274.93 32.9987 L1274.93 27.2059 L1280.4 27.2059 L1280.4 14.324 L1287.89 14.324 Z" fill="#000000" fill-rule="nonzero" fill-opacity="1" /><path clip-path="url(#clip940)" d="M1313.05 27.2059 L1320.5 27.2059 L1320.5 72.576 L1313.05 72.576 L1313.05 27.2059 M1313.05 9.54393 L1320.5 9.54393 L1320.5 18.9825 L1313.05 18.9825 L1313.05 9.54393 Z" fill="#000000" fill-rule="nonzero" fill-opacity="1" /><path clip-path="url(#clip940)" d="M1374.91 48.0275 L1374.91 51.6733 L1340.64 51.6733 Q1341.12 59.3701 1345.25 63.421 Q1349.43 67.4314 1356.84 67.4314 Q1361.13 67.4314 1365.14 66.3781 Q1369.2 65.3249 1373.17 63.2184 L1373.17 70.267 Q1369.15 71.9684 1364.94 72.8596 Q1360.73 73.7508 1356.39 73.7508 Q1345.54 73.7508 1339.18 67.4314 Q1332.86 61.1119 1332.86 50.3365 Q1332.86 39.1965 1338.85 32.6746 Q1344.89 26.1121 1355.1 26.1121 Q1364.25 26.1121 1369.56 32.0264 Q1374.91 37.9003 1374.91 48.0275 M1367.45 45.84 Q1367.37 39.7232 1364.01 36.0774 Q1360.69 32.4315 1355.18 32.4315 Q1348.94 32.4315 1345.17 35.9558 Q1341.45 39.4801 1340.88 45.8805 L1367.45 45.84 Z" fill="#000000" fill-rule="nonzero" fill-opacity="1" /><path clip-path="url(#clip940)" d="M1416.06 28.5427 L1416.06 35.5912 Q1412.9 33.9709 1409.5 33.1607 Q1406.1 32.3505 1402.45 32.3505 Q1396.9 32.3505 1394.11 34.0519 Q1391.35 35.7533 1391.35 39.156 Q1391.35 41.7486 1393.34 43.2475 Q1395.32 44.7058 1401.32 46.0426 L1403.87 46.6097 Q1411.81 48.3111 1415.13 51.4303 Q1418.49 54.509 1418.49 60.0587 Q1418.49 66.3781 1413.47 70.0644 Q1408.49 73.7508 1399.74 73.7508 Q1396.09 73.7508 1392.12 73.0216 Q1388.19 72.3329 1383.82 70.9151 L1383.82 63.2184 Q1387.95 65.3654 1391.96 66.4591 Q1395.97 67.5124 1399.9 67.5124 Q1405.17 67.5124 1408 65.73 Q1410.84 63.9071 1410.84 60.6258 Q1410.84 57.5877 1408.77 55.9673 Q1406.75 54.3469 1399.82 52.8481 L1397.23 52.2405 Q1390.3 50.7821 1387.22 47.7845 Q1384.14 44.7463 1384.14 39.4801 Q1384.14 33.0797 1388.68 29.5959 Q1393.22 26.1121 1401.56 26.1121 Q1405.69 26.1121 1409.34 26.7198 Q1412.99 27.3274 1416.06 28.5427 Z" fill="#000000" fill-rule="nonzero" fill-opacity="1" /><path clip-path="url(#clip940)" d="M1489.39 28.9478 L1489.39 35.9153 Q1486.23 34.1734 1483.03 33.3227 Q1479.87 32.4315 1476.63 32.4315 Q1469.37 32.4315 1465.36 37.0496 Q1461.35 41.6271 1461.35 49.9314 Q1461.35 58.2358 1465.36 62.8538 Q1469.37 67.4314 1476.63 67.4314 Q1479.87 67.4314 1483.03 66.5807 Q1486.23 65.6895 1489.39 63.9476 L1489.39 70.8341 Q1486.27 72.2924 1482.9 73.0216 Q1479.58 73.7508 1475.82 73.7508 Q1465.57 73.7508 1459.53 67.3098 Q1453.49 60.8689 1453.49 49.9314 Q1453.49 38.832 1459.57 32.472 Q1465.69 26.1121 1476.3 26.1121 Q1479.74 26.1121 1483.03 26.8413 Q1486.31 27.5299 1489.39 28.9478 Z" fill="#000000" fill-rule="nonzero" fill-opacity="1" /><path clip-path="url(#clip940)" d="M1541.16 48.0275 L1541.16 51.6733 L1506.89 51.6733 Q1507.37 59.3701 1511.5 63.421 Q1515.68 67.4314 1523.09 67.4314 Q1527.38 67.4314 1531.39 66.3781 Q1535.44 65.3249 1539.41 63.2184 L1539.41 70.267 Q1535.4 71.9684 1531.19 72.8596 Q1526.98 73.7508 1522.64 73.7508 Q1511.79 73.7508 1505.43 67.4314 Q1499.11 61.1119 1499.11 50.3365 Q1499.11 39.1965 1505.1 32.6746 Q1511.14 26.1121 1521.35 26.1121 Q1530.5 26.1121 1535.81 32.0264 Q1541.16 37.9003 1541.16 48.0275 M1533.7 45.84 Q1533.62 39.7232 1530.26 36.0774 Q1526.94 32.4315 1521.43 32.4315 Q1515.19 32.4315 1511.42 35.9558 Q1507.7 39.4801 1507.13 45.8805 L1533.7 45.84 Z" fill="#000000" fill-rule="nonzero" fill-opacity="1" /><path clip-path="url(#clip940)" d="M1553.39 9.54393 L1560.84 9.54393 L1560.84 72.576 L1553.39 72.576 L1553.39 9.54393 Z" fill="#000000" fill-rule="nonzero" fill-opacity="1" /><path clip-path="url(#clip940)" d="M1576.44 9.54393 L1583.89 9.54393 L1583.89 72.576 L1576.44 72.576 L1576.44 9.54393 Z" fill="#000000" fill-rule="nonzero" fill-opacity="1" /><path clip-path="url(#clip940)" d="M1628.33 65.6895 L1641.7 65.6895 L1641.7 19.5497 L1627.16 22.4663 L1627.16 15.0127 L1641.62 12.096 L1649.8 12.096 L1649.8 65.6895 L1663.17 65.6895 L1663.17 72.576 L1628.33 72.576 L1628.33 65.6895 Z" fill="#000000" fill-rule="nonzero" fill-opacity="1" /><path clip-path="url(#clip940)" d="M1697.2 17.4837 Q1690.88 17.4837 1687.68 23.7221 Q1684.52 29.92 1684.52 42.3968 Q1684.52 54.833 1687.68 61.0714 Q1690.88 67.2693 1697.2 67.2693 Q1703.56 67.2693 1706.72 61.0714 Q1709.92 54.833 1709.92 42.3968 Q1709.92 29.92 1706.72 23.7221 Q1703.56 17.4837 1697.2 17.4837 M1697.2 11.0023 Q1707.36 11.0023 1712.71 19.0636 Q1718.1 27.0843 1718.1 42.3968 Q1718.1 57.6687 1712.71 65.73 Q1707.36 73.7508 1697.2 73.7508 Q1687.03 73.7508 1681.64 65.73 Q1676.29 57.6687 1676.29 42.3968 Q1676.29 27.0843 1681.64 19.0636 Q1687.03 11.0023 1697.2 11.0023 Z" fill="#000000" fill-rule="nonzero" fill-opacity="1" /><path clip-path="url(#clip940)" d="M1739.53 65.6895 L1768.09 65.6895 L1768.09 72.576 L1729.69 72.576 L1729.69 65.6895 Q1734.34 60.8689 1742.36 52.7671 Q1750.43 44.6248 1752.49 42.2752 Q1756.42 37.8598 1757.96 34.8216 Q1759.54 31.7429 1759.54 28.7857 Q1759.54 23.9651 1756.14 20.927 Q1752.78 17.8888 1747.35 17.8888 Q1743.5 17.8888 1739.21 19.2256 Q1734.95 20.5624 1730.09 23.2765 L1730.09 15.0127 Q1735.03 13.0277 1739.33 12.015 Q1743.62 11.0023 1747.19 11.0023 Q1756.58 11.0023 1762.17 15.7013 Q1767.76 20.4004 1767.76 28.2591 Q1767.76 31.9859 1766.35 35.3482 Q1764.97 38.6699 1761.28 43.2069 Q1760.27 44.3817 1754.84 50.0125 Q1749.41 55.6027 1739.53 65.6895 Z" fill="#000000" fill-rule="nonzero" fill-opacity="1" /><path clip-path="url(#clip940)" d="M1810.58 27.2059 L1818.04 27.2059 L1818.04 72.576 L1810.58 72.576 L1810.58 27.2059 M1810.58 9.54393 L1818.04 9.54393 L1818.04 18.9825 L1810.58 18.9825 L1810.58 9.54393 Z" fill="#000000" fill-rule="nonzero" fill-opacity="1" /><path clip-path="url(#clip940)" d="M1841 14.324 L1841 27.2059 L1856.36 27.2059 L1856.36 32.9987 L1841 32.9987 L1841 57.6282 Q1841 63.1779 1842.5 64.7578 Q1844.04 66.3376 1848.7 66.3376 L1856.36 66.3376 L1856.36 72.576 L1848.7 72.576 Q1840.07 72.576 1836.79 69.3758 Q1833.51 66.1351 1833.51 57.6282 L1833.51 32.9987 L1828.04 32.9987 L1828.04 27.2059 L1833.51 27.2059 L1833.51 14.324 L1841 14.324 Z" fill="#000000" fill-rule="nonzero" fill-opacity="1" /><path clip-path="url(#clip940)" d="M1904.97 48.0275 L1904.97 51.6733 L1870.7 51.6733 Q1871.18 59.3701 1875.32 63.421 Q1879.49 67.4314 1886.9 67.4314 Q1891.19 67.4314 1895.21 66.3781 Q1899.26 65.3249 1903.23 63.2184 L1903.23 70.267 Q1899.22 71.9684 1895 72.8596 Q1890.79 73.7508 1886.46 73.7508 Q1875.6 73.7508 1869.24 67.4314 Q1862.92 61.1119 1862.92 50.3365 Q1862.92 39.1965 1868.92 32.6746 Q1874.95 26.1121 1885.16 26.1121 Q1894.31 26.1121 1899.62 32.0264 Q1904.97 37.9003 1904.97 48.0275 M1897.51 45.84 Q1897.43 39.7232 1894.07 36.0774 Q1890.75 32.4315 1885.24 32.4315 Q1879 32.4315 1875.23 35.9558 Q1871.51 39.4801 1870.94 45.8805 L1897.51 45.84 Z" fill="#000000" fill-rule="nonzero" fill-opacity="1" /><path clip-path="url(#clip940)" d="M1943.49 34.1734 Q1942.24 33.4443 1940.74 33.1202 Q1939.28 32.7556 1937.5 32.7556 Q1931.18 32.7556 1927.77 36.8875 Q1924.41 40.9789 1924.41 48.6757 L1924.41 72.576 L1916.92 72.576 L1916.92 27.2059 L1924.41 27.2059 L1924.41 34.2544 Q1926.76 30.1225 1930.53 28.1376 Q1934.3 26.1121 1939.68 26.1121 Q1940.45 26.1121 1941.39 26.2337 Q1942.32 26.3147 1943.45 26.5172 L1943.49 34.1734 Z" fill="#000000" fill-rule="nonzero" fill-opacity="1" /><path clip-path="url(#clip940)" d="M1971.93 49.7694 Q1962.9 49.7694 1959.41 51.8354 Q1955.93 53.9013 1955.93 58.8839 Q1955.93 62.8538 1958.52 65.2034 Q1961.15 67.5124 1965.65 67.5124 Q1971.85 67.5124 1975.58 63.1374 Q1979.34 58.7219 1979.34 51.4303 L1979.34 49.7694 L1971.93 49.7694 M1986.8 46.6907 L1986.8 72.576 L1979.34 72.576 L1979.34 65.6895 Q1976.79 69.8214 1972.98 71.8063 Q1969.17 73.7508 1963.67 73.7508 Q1956.7 73.7508 1952.57 69.8619 Q1948.47 65.9325 1948.47 59.3701 Q1948.47 51.7138 1953.58 47.825 Q1958.72 43.9361 1968.89 43.9361 L1979.34 43.9361 L1979.34 43.2069 Q1979.34 38.0623 1975.94 35.2672 Q1972.58 32.4315 1966.46 32.4315 Q1962.57 32.4315 1958.89 33.3632 Q1955.2 34.295 1951.8 36.1584 L1951.8 29.2718 Q1955.89 27.692 1959.74 26.9223 Q1963.58 26.1121 1967.23 26.1121 Q1977.07 26.1121 1981.94 31.2163 Q1986.8 36.3204 1986.8 46.6907 Z" fill="#000000" fill-rule="nonzero" fill-opacity="1" /><path clip-path="url(#clip940)" d="M2009.52 14.324 L2009.52 27.2059 L2024.87 27.2059 L2024.87 32.9987 L2009.52 32.9987 L2009.52 57.6282 Q2009.52 63.1779 2011.02 64.7578 Q2012.56 66.3376 2017.22 66.3376 L2024.87 66.3376 L2024.87 72.576 L2017.22 72.576 Q2008.59 72.576 2005.31 69.3758 Q2002.03 66.1351 2002.03 57.6282 L2002.03 32.9987 L1996.56 32.9987 L1996.56 27.2059 L2002.03 27.2059 L2002.03 14.324 L2009.52 14.324 Z" fill="#000000" fill-rule="nonzero" fill-opacity="1" /><path clip-path="url(#clip940)" d="M2034.68 27.2059 L2042.13 27.2059 L2042.13 72.576 L2034.68 72.576 L2034.68 27.2059 M2034.68 9.54393 L2042.13 9.54393 L2042.13 18.9825 L2034.68 18.9825 L2034.68 9.54393 Z" fill="#000000" fill-rule="nonzero" fill-opacity="1" /><path clip-path="url(#clip940)" d="M2075.31 32.4315 Q2069.31 32.4315 2065.83 37.1306 Q2062.35 41.7891 2062.35 49.9314 Q2062.35 58.0738 2065.79 62.7728 Q2069.27 67.4314 2075.31 67.4314 Q2081.26 67.4314 2084.75 62.7323 Q2088.23 58.0333 2088.23 49.9314 Q2088.23 41.8701 2084.75 37.1711 Q2081.26 32.4315 2075.31 32.4315 M2075.31 26.1121 Q2085.03 26.1121 2090.58 32.4315 Q2096.13 38.7509 2096.13 49.9314 Q2096.13 61.0714 2090.58 67.4314 Q2085.03 73.7508 2075.31 73.7508 Q2065.55 73.7508 2060 67.4314 Q2054.49 61.0714 2054.49 49.9314 Q2054.49 38.7509 2060 32.4315 Q2065.55 26.1121 2075.31 26.1121 Z" fill="#000000" fill-rule="nonzero" fill-opacity="1" /><path clip-path="url(#clip940)" d="M2146.2 45.1919 L2146.2 72.576 L2138.75 72.576 L2138.75 45.4349 Q2138.75 38.994 2136.23 35.7938 Q2133.72 32.5936 2128.7 32.5936 Q2122.66 32.5936 2119.18 36.4419 Q2115.7 40.2903 2115.7 46.9338 L2115.7 72.576 L2108.2 72.576 L2108.2 27.2059 L2115.7 27.2059 L2115.7 34.2544 Q2118.37 30.163 2121.98 28.1376 Q2125.62 26.1121 2130.36 26.1121 Q2138.18 26.1121 2142.19 30.9732 Q2146.2 35.7938 2146.2 45.1919 Z" fill="#000000" fill-rule="nonzero" fill-opacity="1" /><path clip-path="url(#clip940)" d="M2189.91 65.6895 L2203.28 65.6895 L2203.28 19.5497 L2188.73 22.4663 L2188.73 15.0127 L2203.2 12.096 L2211.38 12.096 L2211.38 65.6895 L2224.75 65.6895 L2224.75 72.576 L2189.91 72.576 L2189.91 65.6895 Z" fill="#000000" fill-rule="nonzero" fill-opacity="1" /><polyline clip-path="url(#clip942)" style="stroke:#009af9; stroke-linecap:round; stroke-linejoin:round; stroke-width:4; stroke-opacity:1; fill:none" points="315.545,1386.4 317.525,1376.53 319.505,1362.92 321.484,1359.57 323.464,1356.03 325.444,1354.2 327.424,1352.34 329.404,1351.52 331.384,1339.57 333.364,1335.28 335.343,1332.54 337.323,1332.29 339.303,1332.23 341.283,1330.31 343.263,1328.39 345.243,1321.44 347.223,1320.42 349.202,1320.28 351.182,1320.23 353.162,1320.16 355.142,1318.25 357.122,1317.88 359.102,1317.73 361.082,1317.4 363.061,1317.2 365.041,1315.01 367.021,1313.7 369.001,1310.86 370.981,1309.59 372.961,1309.54 374.941,1306.83 376.92,1304.57 378.9,1301.22 380.88,1299.87 382.86,1299.27 384.84,1297.53 386.82,1296.94 388.8,1296.42 390.779,1294.26 392.759,1294.03 394.739,1293.56 396.719,1292.78 398.699,1291.65 400.679,1289.44 402.659,1289.27 404.638,1287.75 406.618,1286.66 408.598,1286.57 410.578,1285.66 412.558,1283.9 414.538,1283.83 416.517,1283.69 418.497,1282.6 420.477,1282.33 422.457,1280.55 424.437,1279.88 426.417,1278.73 428.397,1278.71 430.376,1278.31 432.356,1278.2 434.336,1275.28 436.316,1273.77 438.296,1273.73 440.276,1273.46 442.256,1273.44 444.235,1271.99 446.215,1271.77 448.195,1270.66 450.175,1270.44 452.155,1269.93 454.135,1269.18 456.115,1268.56 458.094,1263.89 460.074,1263.15 462.054,1263.15 464.034,1262.96 466.014,1262.91 467.994,1262.11 469.974,1261.83 471.953,1261.48 473.933,1260.32 475.913,1260.25 477.893,1260.05 479.873,1259.85 481.853,1259.62 483.833,1258.99 485.812,1258.95 487.792,1258.83 489.772,1258.43 491.752,1257.8 493.732,1256.84 495.712,1256.82 497.692,1256.08 499.671,1255.96 501.651,1254.77 503.631,1254.71 505.611,1254.61 507.591,1253.51 509.571,1253.47 511.551,1252.99 513.53,1252.93 515.51,1251.37 517.49,1251.12 519.47,1250.44 521.45,1249.7 523.43,1249.08 525.409,1248.96 527.389,1248.85 529.369,1248.76 531.349,1248.1 533.329,1247.66 535.309,1246.09 537.289,1246.04 539.268,1246.01 541.248,1245.65 543.228,1245.52 545.208,1244.81 547.188,1244.76 549.168,1244.42 551.148,1243.36 553.127,1243 555.107,1242.66 557.087,1242.29 559.067,1242.22 561.047,1241.8 563.027,1241.52 565.007,1241.04 566.986,1240.88 568.966,1240.85 570.946,1240.52 572.926,1240.48 574.906,1240.48 576.886,1240.39 578.866,1240.33 580.845,1240.23 582.825,1239.2 584.805,1239.04 586.785,1238.67 588.765,1237.68 590.745,1236.55 592.725,1236.32 594.704,1235.69 596.684,1235.53 598.664,1234.97 600.644,1231.4 602.624,1230.98 604.604,1230.72 606.584,1230.6 608.563,1229.99 610.543,1229.7 612.523,1229.65 614.503,1229.12 616.483,1228.65 618.463,1228.21 620.443,1226.94 622.422,1226.54 624.402,1226.54 626.382,1226.5 628.362,1226.4 630.342,1225.88 632.322,1225.15 634.301,1224.89 636.281,1224.87 638.261,1224.62 640.241,1222.99 642.221,1222.95 644.201,1222.88 646.181,1222.62 648.16,1222.18 650.14,1221.87 652.12,1221.8 654.1,1220.98 656.08,1220.67 658.06,1220.52 660.04,1219.4 662.019,1219.19 663.999,1218.71 665.979,1217.91 667.959,1217.51 669.939,1217.49 671.919,1217.29 673.899,1217.24 675.878,1217.08 677.858,1216.73 679.838,1216.73 681.818,1216.61 683.798,1216.45 685.778,1216.25 687.758,1214.73 689.737,1214.38 691.717,1213.56 693.697,1213.16 695.677,1211.79 697.657,1211.72 699.637,1211.4 701.617,1211.12 703.596,1210.48 705.576,1210.26 707.556,1208.84 709.536,1208.73 711.516,1207.42 713.496,1207 715.476,1206.79 717.455,1206.57 719.435,1206.36 721.415,1206.21 723.395,1205.61 725.375,1204.1 727.355,1202.86 729.335,1202.26 731.314,1201.52 733.294,1201.08 735.274,1200.33 737.254,1199.6 739.234,1199.3 741.214,1199.28 743.194,1198.48 745.173,1198.35 747.153,1198.18 749.133,1198.12 751.113,1197.25 753.093,1196.34 755.073,1194.77 757.052,1189.68 759.032,1188.91 761.012,1187.04 762.992,1183.02 764.972,1182.73 766.952,1181.27 768.932,1181.08 770.911,1180.47 772.891,1180.4 774.871,1178.09 776.851,1178.02 778.831,1176.32 780.811,1176.32 782.791,1175.6 784.77,1175.16 786.75,1174.15 788.73,1173.93 790.71,1171.87 792.69,1169.43 794.67,1163.99 796.65,1162.46 798.629,1160.63 800.609,1154.26 802.589,1153.14 804.569,1151.76 806.549,1144.4 808.529,1138.77 810.509,1133.35 812.488,1133.32 814.468,1116.48 816.448,1115.55 818.428,1115.49 820.408,1109.38 822.388,1106.37 824.368,1106.3 826.347,1104.49 828.327,1101.05 830.307,1100.02 832.287,1097.39 834.267,1096.56 836.247,1096.24 838.227,1091.6 840.206,1090.83 842.186,1090.36 844.166,1090.35 846.146,1090.3 848.126,1089.57 850.106,1089.29 852.086,1088.62 854.065,1088.46 856.045,1087.67 858.025,1086 860.005,1084.93 861.985,1084.64 863.965,1084.6 865.944,1084.27 867.924,1083.33 869.904,1083.05 871.884,1082.57 873.864,1082.04 875.844,1081.42 877.824,1079.53 879.803,1079.33 881.783,1077.7 883.763,1076.68 885.743,1076.28 887.723,1075.84 889.703,1075.12 891.683,1074.22 893.662,1073.71 895.642,1071.6 897.622,1071.42 899.602,1070.59 901.582,1070.42 903.562,1070.26 905.542,1069 907.521,1068.06 909.501,1066.63 911.481,1065.12 913.461,1064.44 915.441,1064.37 917.421,1063.67 919.401,1063.48 921.38,1063.4 923.36,1062.68 925.34,1059.76 927.32,1059.43 929.3,1058.14 931.28,1058.03 933.26,1058.03 935.239,1057.92 937.219,1057.88 939.199,1056.95 941.179,1055.84 943.159,1054.08 945.139,1053.63 947.119,1053.53 949.098,1053.15 951.078,1053.12 953.058,1052.79 955.038,1052.26 957.018,1051.85 958.998,1050.76 960.978,1050.61 962.957,1049.97 964.937,1048.9 966.917,1048.75 968.897,1048.6 970.877,1045.95 972.857,1045.39 974.836,1044.31 976.816,1043.5 978.796,1043.08 980.776,1042.19 982.756,1041.72 984.736,1041.24 986.716,1041 988.695,1040.5 990.675,1040.41 992.655,1040.41 994.635,1040.27 996.615,1039.86 998.595,1039.14 1000.57,1038.75 1002.55,1038.67 1004.53,1038.48 1006.51,1037.87 1008.49,1037.43 1010.47,1037.24 1012.45,1036.31 1014.43,1035.82 1016.41,1035.42 1018.39,1034.96 1020.37,1034.96 1022.35,1033.72 1024.33,1032.23 1026.31,1031.8 1028.29,1031.58 1030.27,1031.47 1032.25,1031.21 1034.23,1031.21 1036.21,1031.14 1038.19,1030.1 1040.17,1029.67 1042.15,1029.48 1044.13,1029.19 1046.11,1028.74 1048.09,1028.41 1050.07,1027.59 1052.05,1027.3 1054.03,1027.07 1056.01,1027.01 1057.99,1026.74 1059.97,1026.62 1061.95,1025.99 1063.93,1024.65 1065.91,1024.5 1067.89,1024.39 1069.87,1024.08 1071.85,1023.04 1073.83,1022.67 1075.81,1022.55 1077.79,1021.82 1079.77,1021.23 1081.75,1021.16 1083.73,1019.43 1085.71,1019.08 1087.69,1018.76 1089.67,1017.73 1091.65,1017.4 1093.63,1017.02 1095.61,1017.01 1097.59,1016.8 1099.57,1016.77 1101.55,1015.67 1103.53,1015.46 1105.51,1014.84 1107.49,1014.45 1109.47,1013.99 1111.45,1013.86 1113.43,1013.05 1115.41,1012.42 1117.39,1012.39 1119.37,1011.55 1121.35,1011.23 1123.33,1011.21 1125.31,1011.19 1127.29,1010.45 1129.27,1009.63 1131.25,1008.92 1133.22,1008.29 1135.2,1008.28 1137.18,1008.23 1139.16,1007.6 1141.14,1007.35 1143.12,1007.16 1145.1,1007.05 1147.08,1006.8 1149.06,1005.9 1151.04,1005.87 1153.02,1005.4 1155,1005.1 1156.98,1005.05 1158.96,1004.95 1160.94,1004.54 1162.92,1004.28 1164.9,1003.96 1166.88,1003.69 1168.86,1003.39 1170.84,1003.1 1172.82,1002.97 1174.8,1002.17 1176.78,1001.75 1178.76,1001.41 1180.74,1001.36 1182.72,1001.3 1184.7,1000.64 1186.68,1000.6 1188.66,1000.39 1190.64,1000.34 1192.62,999.658 1194.6,999.235 1196.58,998.973 1198.56,998.751 1200.54,998.376 1202.52,998.35 1204.5,998.019 1206.48,996.963 1208.46,996.372 1210.44,996.061 1212.42,995.234 1214.4,994.038 1216.38,993.786 1218.36,993.368 1220.34,993.087 1222.32,992.977 1224.3,992.667 1226.28,992.604 1228.26,992.46 1230.24,992.086 1232.22,992.014 1234.2,991.822 1236.18,991.086 1238.16,990.92 1240.14,990.855 1242.12,990.638 1244.1,990.199 1246.08,989.603 1248.06,989.377 1250.04,989.168 1252.02,988.553 1254,988.49 1255.98,988.053 1257.96,987.956 1259.94,987.444 1261.92,987.199 1263.9,986.91 1265.88,986.754 1267.85,986.53 1269.83,986.51 1271.81,985.415 1273.79,984.707 1275.77,984.45 1277.75,984.237 1279.73,983.539 1281.71,983.119 1283.69,983.02 1285.67,982.864 1287.65,982.47 1289.63,982.141 1291.61,981.812 1293.59,981.749 1295.57,981.267 1297.55,981.203 1299.53,980.883 1301.51,980.7 1303.49,980.556 1305.47,979.692 1307.45,979.579 1309.43,979.159 1311.41,978.882 1313.39,978.727 1315.37,978.326 1317.35,977.93 1319.33,977.831 1321.31,977.779 1323.29,977.616 1325.27,977.341 1327.25,977.196 1329.23,976.625 1331.21,976.287 1333.19,976.185 1335.17,976.131 1337.15,976.114 1339.13,976.081 1341.11,975.854 1343.09,975.806 1345.07,975.56 1347.05,975.522 1349.03,975.16 1351.01,975.023 1352.99,974.824 1354.97,974.721 1356.95,974.409 1358.93,974.254 1360.91,974.181 1362.89,973.962 1364.87,973.942 1366.85,973.905 1368.83,973.161 1370.81,972.669 1372.79,972.345 1374.77,972.344 1376.75,971.945 1378.73,971.856 1380.71,971.701 1382.69,971.337 1384.67,971.304 1386.65,971.28 1388.63,970.961 1390.61,970.822 1392.59,970.817 1394.57,970.258 1396.55,970.038 1398.53,969.961 1400.51,969.83 1402.49,969.552 1404.46,969.542 1406.44,969.519 1408.42,969.423 1410.4,968.989 1412.38,968.85 1414.36,968.171 1416.34,968.147 1418.32,968.027 1420.3,967.965 1422.28,967.691 1424.26,967.434 1426.24,967.311 1428.22,967.139 1430.2,967.037 1432.18,966.946 1434.16,966.502 1436.14,966.308 1438.12,966.306 1440.1,966.015 1442.08,965.445 1444.06,965.08 1446.04,964.902 1448.02,964.567 1450,963.59 1451.98,963.337 1453.96,963.242 1455.94,963.007 1457.92,962.984 1459.9,961.556 1461.88,961.474 1463.86,961.07 1465.84,961 1467.82,960.981 1469.8,960.878 1471.78,960.745 1473.76,960.709 1475.74,960.667 1477.72,960.472 1479.7,960.466 1481.68,960.174 1483.66,960.018 1485.64,959.969 1487.62,959.634 1489.6,959.074 1491.58,958.684 1493.56,957.677 1495.54,957.32 1497.52,957.267 1499.5,957.236 1501.48,957.12 1503.46,957.095 1505.44,956.958 1507.42,956.7 1509.4,955.915 1511.38,955.222 1513.36,955.153 1515.34,955.102 1517.32,954.704 1519.3,954.585 1521.28,954.569 1523.26,954.337 1525.24,954.273 1527.22,954.149 1529.2,954.009 1531.18,953.436 1533.16,952.894 1535.14,952.673 1537.12,952.321 1539.1,952.162 1541.07,952.092 1543.05,952.085 1545.03,952.009 1547.01,951.972 1548.99,951.613 1550.97,950.476 1552.95,949.472 1554.93,949.241 1556.91,949.121 1558.89,947.893 1560.87,947.684 1562.85,947.647 1564.83,947.045 1566.81,946.657 1568.79,946.602 1570.77,945.738 1572.75,945.547 1574.73,945.099 1576.71,944.607 1578.69,944.558 1580.67,944.328 1582.65,943.892 1584.63,943.63 1586.61,942.828 1588.59,942.787 1590.57,941.949 1592.55,941.495 1594.53,940.424 1596.51,940.361 1598.49,938.801 1600.47,938.593 1602.45,938.168 1604.43,937.761 1606.41,937.544 1608.39,937.461 1610.37,937.05 1612.35,936.933 1614.33,936.634 1616.31,935.887 1618.29,935.812 1620.27,935.5 1622.25,934.605 1624.23,934.1 1626.21,933.308 1628.19,933.214 1630.17,932.65 1632.15,932.486 1634.13,932.379 1636.11,932.345 1638.09,931.621 1640.07,931.618 1642.05,931.275 1644.03,931.148 1646.01,930.973 1647.99,930.793 1649.97,930.338 1651.95,930.017 1653.93,929.433 1655.91,929.1 1657.89,928.53 1659.87,928.417 1661.85,928.181 1663.83,927.836 1665.81,927.76 1667.79,927.687 1669.77,927.498 1671.75,927.307 1673.73,926.232 1675.71,925.709 1677.68,925.572 1679.66,924.137 1681.64,923.465 1683.62,922.385 1685.6,922.148 1687.58,922.073 1689.56,921.41 1691.54,921.344 1693.52,921.308 1695.5,920.738 1697.48,920.514 1699.46,919.187 1701.44,917.997 1703.42,917.812 1705.4,917.783 1707.38,917.383 1709.36,917.086 1711.34,915.154 1713.32,914.441 1715.3,913.852 1717.28,912.462 1719.26,912.176 1721.24,911.138 1723.22,910.911 1725.2,909.886 1727.18,908.929 1729.16,908.299 1731.14,908.116 1733.12,907.065 1735.1,906.946 1737.08,906.442 1739.06,906.434 1741.04,905.064 1743.02,904.645 1745,904.502 1746.98,902.966 1748.96,902.537 1750.94,901.128 1752.92,899.637 1754.9,898.751 1756.88,898.171 1758.86,896.776 1760.84,896.699 1762.82,896.173 1764.8,895.282 1766.78,895.272 1768.76,894.998 1770.74,894.177 1772.72,893.772 1774.7,890.67 1776.68,889.44 1778.66,887.844 1780.64,887.193 1782.62,885.858 1784.6,879.945 1786.58,877.778 1788.56,869.918 1790.54,860.2 1792.52,857.675 1794.5,855.664 1796.48,845.407 1798.46,835.557 1800.44,524.645 1802.42,300.764 1804.4,284.244 1806.38,273.129 1808.36,266.033 1810.34,261.836 1812.31,260.21 1814.29,259.747 1816.27,254.259 1818.25,253.452 1820.23,248.101 1822.21,247.953 1824.19,247.185 1826.17,246.817 1828.15,246.222 1830.13,244.412 1832.11,243.502 1834.09,241.992 1836.07,238.546 1838.05,238.445 1840.03,237.928 1842.01,237.292 1843.99,233.859 1845.97,232.755 1847.95,232.587 1849.93,232.512 1851.91,232.415 1853.89,231.5 1855.87,229.635 1857.85,227.952 1859.83,227.583 1861.81,227.511 1863.79,226.577 1865.77,225.591 1867.75,225.555 1869.73,225.049 1871.71,224.723 1873.69,224.597 1875.67,223.712 1877.65,223.673 1879.63,223.43 1881.61,223.36 1883.59,223.08 1885.57,222.855 1887.55,222.616 1889.53,222.578 1891.51,222.009 1893.49,221.537 1895.47,221.342 1897.45,220.529 1899.43,218.803 1901.41,218.405 1903.39,217.79 1905.37,217.468 1907.35,217.392 1909.33,217.242 1911.31,216.731 1913.29,215.146 1915.27,215.033 1917.25,214.83 1919.23,214.626 1921.21,214.496 1923.19,214.412 1925.17,214.35 1927.15,214.215 1929.13,214.069 1931.11,213.651 1933.09,213.47 1935.07,212.725 1937.05,212.362 1939.03,212.028 1941.01,211.807 1942.99,211.507 1944.97,211.404 1946.95,211.198 1948.92,211.166 1950.9,210.871 1952.88,210.598 1954.86,209.848 1956.84,209.723 1958.82,209.633 1960.8,209.597 1962.78,209.584 1964.76,209.513 1966.74,209.392 1968.72,209.334 1970.7,209.333 1972.68,209.269 1974.66,209.105 1976.64,209.002 1978.62,208.788 1980.6,208.592 1982.58,208.502 1984.56,208.324 1986.54,208.25 1988.52,207.758 1990.5,207.271 1992.48,207.244 1994.46,206.83 1996.44,206.518 1998.42,206.309 2000.4,205.726 2002.38,205.622 2004.36,205.551 2006.34,204.994 2008.32,204.66 2010.3,204.393 2012.28,203.892 2014.26,203.727 2016.24,203.496 2018.22,203.255 2020.2,203.014 2022.18,202.715 2024.16,202.532 2026.14,202.478 2028.12,202.183 2030.1,201.949 2032.08,200.998 2034.06,200.729 2036.04,200.002 2038.02,199.905 2040,199.85 2041.98,199.664 2043.96,199.189 2045.94,199.141 2047.92,199.073 2049.9,198.323 2051.88,198.189 2053.86,198.164 2055.84,197.573 2057.82,197.375 2059.8,197.312 2061.78,197.152 2063.76,197.089 2065.74,196.882 2067.72,196.722 2069.7,196.009 2071.68,195.995 2073.66,195.948 2075.64,195.752 2077.62,195.545 2079.6,195.488 2081.58,195.359 2083.56,195.217 2085.53,195.003 2087.51,194.946 2089.49,193.565 2091.47,193.37 2093.45,193.258 2095.43,193.056 2097.41,192.984 2099.39,192.719 2101.37,192.656 2103.35,192.33 2105.33,192.232 2107.31,192.156 2109.29,191.885 2111.27,191.88 2113.25,191.851 2115.23,191.626 2117.21,191.297 2119.19,191.256 2121.17,191.251 2123.15,190.273 2125.13,190.023 2127.11,189.802 2129.09,189.712 2131.07,189.474 2133.05,189.238 2135.03,188.851 2137.01,188.766 2138.99,188.652 2140.97,188.56 2142.95,188.361 2144.93,188.339 2146.91,188.332 2148.89,188.241 2150.87,188.131 2152.85,188.09 2154.83,188.029 2156.81,187.893 2158.79,187.692 2160.77,187.506 2162.75,187.386 2164.73,186.527 2166.71,186.253 2168.69,186.002 2170.67,185.76 2172.65,185.657 2174.63,185.572 2176.61,185.496 2178.59,185.449 2180.57,185.273 2182.55,185.228 2184.53,184.852 2186.51,184.778 2188.49,184.313 2190.47,183.974 2192.45,183.935 2194.43,183.755 2196.41,183.611 2198.39,183.366 2200.37,183.275 2202.35,183.221 2204.33,183.128 2206.31,183.05 2208.29,182.814 2210.27,182.438 2212.25,182.426 2214.23,180.898 2216.21,180.625 2218.19,180.55 2220.17,180.193 2222.14,179.639 2224.12,179.489 2226.1,179.115 2228.08,178.608 2230.06,178.349 2232.04,177.749 2234.02,177.478 2236,177.46 2237.98,177.156 2239.96,176.981 2241.94,176.6 2243.92,176.091 2245.9,175.972 2247.88,175.891 2249.86,175.625 2251.84,175.547 2253.82,175.126 2255.8,174.688 2257.78,174.682 2259.76,174.099 2261.74,173.967 2263.72,173.956 2265.7,173.689 2267.68,173.276 2269.66,172.988 2271.64,172.947 2273.62,172.915 2275.6,172.842 2277.58,172.817 2279.56,172.643 2281.54,171.016 2283.52,169.381 2285.5,167.982 2287.48,167.797 2289.46,167.358 2291.44,162.773 2293.42,160.256 "/>
<path clip-path="url(#clip940)" d="M326.094 270.476 L755.354 270.476 L755.354 166.796 L326.094 166.796  Z" fill="#ffffff" fill-rule="evenodd" fill-opacity="1"/>
<polyline clip-path="url(#clip940)" style="stroke:#000000; stroke-linecap:round; stroke-linejoin:round; stroke-width:4; stroke-opacity:1; fill:none" points="326.094,270.476 755.354,270.476 755.354,166.796 326.094,166.796 326.094,270.476 "/>
<polyline clip-path="url(#clip940)" style="stroke:#009af9; stroke-linecap:round; stroke-linejoin:round; stroke-width:4; stroke-opacity:1; fill:none" points="349.389,218.636 489.158,218.636 "/>
<path clip-path="url(#clip940)" d="M534.699 202.49 L534.699 207.05 Q532.037 205.777 529.675 205.152 Q527.314 204.527 525.115 204.527 Q521.296 204.527 519.213 206.008 Q517.152 207.49 517.152 210.221 Q517.152 212.513 518.518 213.694 Q519.907 214.851 523.75 215.569 L526.574 216.147 Q531.805 217.143 534.282 219.666 Q536.782 222.166 536.782 226.379 Q536.782 231.402 533.402 233.994 Q530.046 236.587 523.541 236.587 Q521.088 236.587 518.31 236.031 Q515.555 235.476 512.592 234.388 L512.592 229.573 Q515.439 231.17 518.171 231.981 Q520.902 232.791 523.541 232.791 Q527.546 232.791 529.722 231.217 Q531.898 229.643 531.898 226.726 Q531.898 224.18 530.324 222.744 Q528.773 221.309 525.208 220.592 L522.361 220.036 Q517.129 218.995 514.791 216.772 Q512.453 214.55 512.453 210.592 Q512.453 206.008 515.671 203.37 Q518.912 200.731 524.583 200.731 Q527.013 200.731 529.537 201.171 Q532.06 201.61 534.699 202.49 Z" fill="#000000" fill-rule="nonzero" fill-opacity="1" /><path clip-path="url(#clip940)" d="M543.888 209.99 L548.148 209.99 L548.148 235.916 L543.888 235.916 L543.888 209.99 M543.888 199.897 L548.148 199.897 L548.148 205.291 L543.888 205.291 L543.888 199.897 Z" fill="#000000" fill-rule="nonzero" fill-opacity="1" /><path clip-path="url(#clip940)" d="M577.245 214.967 Q578.842 212.096 581.064 210.731 Q583.286 209.365 586.296 209.365 Q590.346 209.365 592.545 212.212 Q594.745 215.036 594.745 220.268 L594.745 235.916 L590.462 235.916 L590.462 220.407 Q590.462 216.68 589.143 214.874 Q587.823 213.069 585.115 213.069 Q581.805 213.069 579.884 215.268 Q577.962 217.467 577.962 221.263 L577.962 235.916 L573.68 235.916 L573.68 220.407 Q573.68 216.657 572.36 214.874 Q571.041 213.069 568.286 213.069 Q565.022 213.069 563.101 215.291 Q561.18 217.49 561.18 221.263 L561.18 235.916 L556.898 235.916 L556.898 209.99 L561.18 209.99 L561.18 214.018 Q562.638 211.633 564.675 210.499 Q566.712 209.365 569.513 209.365 Q572.337 209.365 574.305 210.8 Q576.296 212.235 577.245 214.967 Z" fill="#000000" fill-rule="nonzero" fill-opacity="1" /><path clip-path="url(#clip940)" d="M603.24 209.99 L607.499 209.99 L607.499 235.916 L603.24 235.916 L603.24 209.99 M603.24 199.897 L607.499 199.897 L607.499 205.291 L603.24 205.291 L603.24 199.897 Z" fill="#000000" fill-rule="nonzero" fill-opacity="1" /><path clip-path="url(#clip940)" d="M616.411 199.897 L620.67 199.897 L620.67 235.916 L616.411 235.916 L616.411 199.897 Z" fill="#000000" fill-rule="nonzero" fill-opacity="1" /><path clip-path="url(#clip940)" d="M641.365 222.883 Q636.203 222.883 634.212 224.064 Q632.221 225.244 632.221 228.092 Q632.221 230.36 633.703 231.703 Q635.207 233.022 637.777 233.022 Q641.318 233.022 643.448 230.522 Q645.601 227.999 645.601 223.832 L645.601 222.883 L641.365 222.883 M649.86 221.124 L649.86 235.916 L645.601 235.916 L645.601 231.981 Q644.142 234.342 641.967 235.476 Q639.791 236.587 636.642 236.587 Q632.661 236.587 630.3 234.365 Q627.962 232.119 627.962 228.369 Q627.962 223.994 630.879 221.772 Q633.818 219.55 639.629 219.55 L645.601 219.55 L645.601 219.133 Q645.601 216.194 643.656 214.596 Q641.735 212.976 638.24 212.976 Q636.017 212.976 633.911 213.508 Q631.805 214.041 629.86 215.106 L629.86 211.17 Q632.198 210.268 634.397 209.828 Q636.596 209.365 638.68 209.365 Q644.304 209.365 647.082 212.282 Q649.86 215.198 649.86 221.124 Z" fill="#000000" fill-rule="nonzero" fill-opacity="1" /><path clip-path="url(#clip940)" d="M673.656 213.971 Q672.939 213.555 672.082 213.37 Q671.249 213.161 670.23 213.161 Q666.619 213.161 664.675 215.522 Q662.753 217.86 662.753 222.258 L662.753 235.916 L658.471 235.916 L658.471 209.99 L662.753 209.99 L662.753 214.018 Q664.096 211.657 666.249 210.522 Q668.402 209.365 671.48 209.365 Q671.92 209.365 672.452 209.434 Q672.985 209.481 673.633 209.596 L673.656 213.971 Z" fill="#000000" fill-rule="nonzero" fill-opacity="1" /><path clip-path="url(#clip940)" d="M678.124 209.99 L682.383 209.99 L682.383 235.916 L678.124 235.916 L678.124 209.99 M678.124 199.897 L682.383 199.897 L682.383 205.291 L678.124 205.291 L678.124 199.897 Z" fill="#000000" fill-rule="nonzero" fill-opacity="1" /><path clip-path="url(#clip940)" d="M695.508 202.629 L695.508 209.99 L704.281 209.99 L704.281 213.3 L695.508 213.3 L695.508 227.374 Q695.508 230.545 696.364 231.448 Q697.244 232.351 699.906 232.351 L704.281 232.351 L704.281 235.916 L699.906 235.916 Q694.975 235.916 693.101 234.087 Q691.226 232.235 691.226 227.374 L691.226 213.3 L688.101 213.3 L688.101 209.99 L691.226 209.99 L691.226 202.629 L695.508 202.629 Z" fill="#000000" fill-rule="nonzero" fill-opacity="1" /><path clip-path="url(#clip940)" d="M720.67 238.323 Q718.864 242.953 717.151 244.365 Q715.438 245.777 712.568 245.777 L709.165 245.777 L709.165 242.212 L711.665 242.212 Q713.424 242.212 714.397 241.379 Q715.369 240.545 716.549 237.443 L717.313 235.499 L706.827 209.99 L711.341 209.99 L719.443 230.268 L727.545 209.99 L732.059 209.99 L720.67 238.323 Z" fill="#000000" fill-rule="nonzero" fill-opacity="1" /></svg>
