<?xml version="1.0" encoding="utf-8"?>
<svg xmlns="http://www.w3.org/2000/svg" xmlns:xlink="http://www.w3.org/1999/xlink" width="600" height="400" viewBox="0 0 2400 1600">
<defs>
  <clipPath id="clip660">
    <rect x="0" y="0" width="2400" height="1600"/>
  </clipPath>
</defs>
<path clip-path="url(#clip660)" d="M0 1600 L2400 1600 L2400 8.88178e-14 L0 8.88178e-14  Z" fill="#ffffff" fill-rule="evenodd" fill-opacity="1"/>
<defs>
  <clipPath id="clip661">
    <rect x="480" y="0" width="1681" height="1600"/>
  </clipPath>
</defs>
<path clip-path="url(#clip660)" d="M257.204 1423.18 L2352.76 1423.18 L2352.76 123.472 L257.204 123.472  Z" fill="#ffffff" fill-rule="evenodd" fill-opacity="1"/>
<defs>
  <clipPath id="clip662">
    <rect x="257" y="123" width="2097" height="1301"/>
  </clipPath>
</defs>
<polyline clip-path="url(#clip662)" style="stroke:#000000; stroke-linecap:round; stroke-linejoin:round; stroke-width:2; stroke-opacity:0.1; fill:none" points="314.533,1423.18 314.533,123.472 "/>
<polyline clip-path="url(#clip662)" style="stroke:#000000; stroke-linecap:round; stroke-linejoin:round; stroke-width:2; stroke-opacity:0.1; fill:none" points="809.262,1423.18 809.262,123.472 "/>
<polyline clip-path="url(#clip662)" style="stroke:#000000; stroke-linecap:round; stroke-linejoin:round; stroke-width:2; stroke-opacity:0.1; fill:none" points="1303.99,1423.18 1303.99,123.472 "/>
<polyline clip-path="url(#clip662)" style="stroke:#000000; stroke-linecap:round; stroke-linejoin:round; stroke-width:2; stroke-opacity:0.1; fill:none" points="1798.72,1423.18 1798.72,123.472 "/>
<polyline clip-path="url(#clip662)" style="stroke:#000000; stroke-linecap:round; stroke-linejoin:round; stroke-width:2; stroke-opacity:0.1; fill:none" points="2293.45,1423.18 2293.45,123.472 "/>
<polyline clip-path="url(#clip660)" style="stroke:#000000; stroke-linecap:round; stroke-linejoin:round; stroke-width:4; stroke-opacity:1; fill:none" points="257.204,1423.18 2352.76,1423.18 "/>
<polyline clip-path="url(#clip660)" style="stroke:#000000; stroke-linecap:round; stroke-linejoin:round; stroke-width:4; stroke-opacity:1; fill:none" points="314.533,1423.18 314.533,1404.28 "/>
<polyline clip-path="url(#clip660)" style="stroke:#000000; stroke-linecap:round; stroke-linejoin:round; stroke-width:4; stroke-opacity:1; fill:none" points="809.262,1423.18 809.262,1404.28 "/>
<polyline clip-path="url(#clip660)" style="stroke:#000000; stroke-linecap:round; stroke-linejoin:round; stroke-width:4; stroke-opacity:1; fill:none" points="1303.99,1423.18 1303.99,1404.28 "/>
<polyline clip-path="url(#clip660)" style="stroke:#000000; stroke-linecap:round; stroke-linejoin:round; stroke-width:4; stroke-opacity:1; fill:none" points="1798.72,1423.18 1798.72,1404.28 "/>
<polyline clip-path="url(#clip660)" style="stroke:#000000; stroke-linecap:round; stroke-linejoin:round; stroke-width:4; stroke-opacity:1; fill:none" points="2293.45,1423.18 2293.45,1404.28 "/>
<path clip-path="url(#clip660)" d="M314.533 1454.1 Q310.922 1454.1 309.093 1457.66 Q307.288 1461.2 307.288 1468.33 Q307.288 1475.44 309.093 1479.01 Q310.922 1482.55 314.533 1482.55 Q318.167 1482.55 319.973 1479.01 Q321.802 1475.44 321.802 1468.33 Q321.802 1461.2 319.973 1457.66 Q318.167 1454.1 314.533 1454.1 M314.533 1450.39 Q320.343 1450.39 323.399 1455 Q326.478 1459.58 326.478 1468.33 Q326.478 1477.06 323.399 1481.67 Q320.343 1486.25 314.533 1486.25 Q308.723 1486.25 305.644 1481.67 Q302.589 1477.06 302.589 1468.33 Q302.589 1459.58 305.644 1455 Q308.723 1450.39 314.533 1450.39 Z" fill="#000000" fill-rule="nonzero" fill-opacity="1" /><path clip-path="url(#clip660)" d="M772.954 1481.64 L789.274 1481.64 L789.274 1485.58 L767.329 1485.58 L767.329 1481.64 Q769.991 1478.89 774.575 1474.26 Q779.181 1469.61 780.362 1468.27 Q782.607 1465.74 783.487 1464.01 Q784.389 1462.25 784.389 1460.56 Q784.389 1457.8 782.445 1456.07 Q780.524 1454.33 777.422 1454.33 Q775.223 1454.33 772.769 1455.09 Q770.338 1455.86 767.561 1457.41 L767.561 1452.69 Q770.385 1451.55 772.838 1450.97 Q775.292 1450.39 777.329 1450.39 Q782.699 1450.39 785.894 1453.08 Q789.088 1455.77 789.088 1460.26 Q789.088 1462.39 788.278 1464.31 Q787.491 1466.2 785.385 1468.8 Q784.806 1469.47 781.704 1472.69 Q778.602 1475.88 772.954 1481.64 Z" fill="#000000" fill-rule="nonzero" fill-opacity="1" /><path clip-path="url(#clip660)" d="M799.135 1451.02 L817.491 1451.02 L817.491 1454.96 L803.417 1454.96 L803.417 1463.43 Q804.435 1463.08 805.454 1462.92 Q806.473 1462.73 807.491 1462.73 Q813.278 1462.73 816.658 1465.9 Q820.037 1469.08 820.037 1474.49 Q820.037 1480.07 816.565 1483.17 Q813.093 1486.25 806.773 1486.25 Q804.598 1486.25 802.329 1485.88 Q800.084 1485.51 797.676 1484.77 L797.676 1480.07 Q799.76 1481.2 801.982 1481.76 Q804.204 1482.32 806.681 1482.32 Q810.685 1482.32 813.023 1480.21 Q815.361 1478.1 815.361 1474.49 Q815.361 1470.88 813.023 1468.77 Q810.685 1466.67 806.681 1466.67 Q804.806 1466.67 802.931 1467.08 Q801.079 1467.5 799.135 1468.38 L799.135 1451.02 Z" fill="#000000" fill-rule="nonzero" fill-opacity="1" /><path clip-path="url(#clip660)" d="M839.25 1454.1 Q835.639 1454.1 833.81 1457.66 Q832.005 1461.2 832.005 1468.33 Q832.005 1475.44 833.81 1479.01 Q835.639 1482.55 839.25 1482.55 Q842.884 1482.55 844.69 1479.01 Q846.519 1475.44 846.519 1468.33 Q846.519 1461.2 844.69 1457.66 Q842.884 1454.1 839.25 1454.1 M839.25 1450.39 Q845.06 1450.39 848.116 1455 Q851.194 1459.58 851.194 1468.33 Q851.194 1477.06 848.116 1481.67 Q845.06 1486.25 839.25 1486.25 Q833.44 1486.25 830.361 1481.67 Q827.306 1477.06 827.306 1468.33 Q827.306 1459.58 830.361 1455 Q833.44 1450.39 839.25 1450.39 Z" fill="#000000" fill-rule="nonzero" fill-opacity="1" /><path clip-path="url(#clip660)" d="M1263.61 1451.02 L1281.97 1451.02 L1281.97 1454.96 L1267.89 1454.96 L1267.89 1463.43 Q1268.91 1463.08 1269.93 1462.92 Q1270.95 1462.73 1271.97 1462.73 Q1277.75 1462.73 1281.13 1465.9 Q1284.51 1469.08 1284.51 1474.49 Q1284.51 1480.07 1281.04 1483.17 Q1277.57 1486.25 1271.25 1486.25 Q1269.07 1486.25 1266.8 1485.88 Q1264.56 1485.51 1262.15 1484.77 L1262.15 1480.07 Q1264.23 1481.2 1266.46 1481.76 Q1268.68 1482.32 1271.16 1482.32 Q1275.16 1482.32 1277.5 1480.21 Q1279.84 1478.1 1279.84 1474.49 Q1279.84 1470.88 1277.5 1468.77 Q1275.16 1466.67 1271.16 1466.67 Q1269.28 1466.67 1267.41 1467.08 Q1265.55 1467.5 1263.61 1468.38 L1263.61 1451.02 Z" fill="#000000" fill-rule="nonzero" fill-opacity="1" /><path clip-path="url(#clip660)" d="M1303.72 1454.1 Q1300.11 1454.1 1298.28 1457.66 Q1296.48 1461.2 1296.48 1468.33 Q1296.48 1475.44 1298.28 1479.01 Q1300.11 1482.55 1303.72 1482.55 Q1307.36 1482.55 1309.16 1479.01 Q1310.99 1475.44 1310.99 1468.33 Q1310.99 1461.2 1309.16 1457.66 Q1307.36 1454.1 1303.72 1454.1 M1303.72 1450.39 Q1309.53 1450.39 1312.59 1455 Q1315.67 1459.58 1315.67 1468.33 Q1315.67 1477.06 1312.59 1481.67 Q1309.53 1486.25 1303.72 1486.25 Q1297.91 1486.25 1294.84 1481.67 Q1291.78 1477.06 1291.78 1468.33 Q1291.78 1459.58 1294.84 1455 Q1297.91 1450.39 1303.72 1450.39 Z" fill="#000000" fill-rule="nonzero" fill-opacity="1" /><path clip-path="url(#clip660)" d="M1333.89 1454.1 Q1330.28 1454.1 1328.45 1457.66 Q1326.64 1461.2 1326.64 1468.33 Q1326.64 1475.44 1328.45 1479.01 Q1330.28 1482.55 1333.89 1482.55 Q1337.52 1482.55 1339.33 1479.01 Q1341.15 1475.44 1341.15 1468.33 Q1341.15 1461.2 1339.33 1457.66 Q1337.52 1454.1 1333.89 1454.1 M1333.89 1450.39 Q1339.7 1450.39 1342.75 1455 Q1345.83 1459.58 1345.83 1468.33 Q1345.83 1477.06 1342.75 1481.67 Q1339.7 1486.25 1333.89 1486.25 Q1328.08 1486.25 1325 1481.67 Q1321.94 1477.06 1321.94 1468.33 Q1321.94 1459.58 1325 1455 Q1328.08 1450.39 1333.89 1450.39 Z" fill="#000000" fill-rule="nonzero" fill-opacity="1" /><path clip-path="url(#clip660)" d="M1756.99 1451.02 L1779.22 1451.02 L1779.22 1453.01 L1766.67 1485.58 L1761.79 1485.58 L1773.59 1454.96 L1756.99 1454.96 L1756.99 1451.02 Z" fill="#000000" fill-rule="nonzero" fill-opacity="1" /><path clip-path="url(#clip660)" d="M1788.38 1451.02 L1806.74 1451.02 L1806.74 1454.96 L1792.67 1454.96 L1792.67 1463.43 Q1793.68 1463.08 1794.7 1462.92 Q1795.72 1462.73 1796.74 1462.73 Q1802.53 1462.73 1805.91 1465.9 Q1809.29 1469.08 1809.29 1474.49 Q1809.29 1480.07 1805.81 1483.17 Q1802.34 1486.25 1796.02 1486.25 Q1793.85 1486.25 1791.58 1485.88 Q1789.33 1485.51 1786.93 1484.77 L1786.93 1480.07 Q1789.01 1481.2 1791.23 1481.76 Q1793.45 1482.32 1795.93 1482.32 Q1799.93 1482.32 1802.27 1480.21 Q1804.61 1478.1 1804.61 1474.49 Q1804.61 1470.88 1802.27 1468.77 Q1799.93 1466.67 1795.93 1466.67 Q1794.05 1466.67 1792.18 1467.08 Q1790.33 1467.5 1788.38 1468.38 L1788.38 1451.02 Z" fill="#000000" fill-rule="nonzero" fill-opacity="1" /><path clip-path="url(#clip660)" d="M1828.5 1454.1 Q1824.89 1454.1 1823.06 1457.66 Q1821.25 1461.2 1821.25 1468.33 Q1821.25 1475.44 1823.06 1479.01 Q1824.89 1482.55 1828.5 1482.55 Q1832.13 1482.55 1833.94 1479.01 Q1835.77 1475.44 1835.77 1468.33 Q1835.77 1461.2 1833.94 1457.66 Q1832.13 1454.1 1828.5 1454.1 M1828.5 1450.39 Q1834.31 1450.39 1837.36 1455 Q1840.44 1459.58 1840.44 1468.33 Q1840.44 1477.06 1837.36 1481.67 Q1834.31 1486.25 1828.5 1486.25 Q1822.69 1486.25 1819.61 1481.67 Q1816.55 1477.06 1816.55 1468.33 Q1816.55 1459.58 1819.61 1455 Q1822.69 1450.39 1828.5 1450.39 Z" fill="#000000" fill-rule="nonzero" fill-opacity="1" /><path clip-path="url(#clip660)" d="M2237.97 1481.64 L2245.61 1481.64 L2245.61 1455.28 L2237.3 1456.95 L2237.3 1452.69 L2245.57 1451.02 L2250.24 1451.02 L2250.24 1481.64 L2257.88 1481.64 L2257.88 1485.58 L2237.97 1485.58 L2237.97 1481.64 Z" fill="#000000" fill-rule="nonzero" fill-opacity="1" /><path clip-path="url(#clip660)" d="M2277.33 1454.1 Q2273.71 1454.1 2271.89 1457.66 Q2270.08 1461.2 2270.08 1468.33 Q2270.08 1475.44 2271.89 1479.01 Q2273.71 1482.55 2277.33 1482.55 Q2280.96 1482.55 2282.77 1479.01 Q2284.59 1475.44 2284.59 1468.33 Q2284.59 1461.2 2282.77 1457.66 Q2280.96 1454.1 2277.33 1454.1 M2277.33 1450.39 Q2283.14 1450.39 2286.19 1455 Q2289.27 1459.58 2289.27 1468.33 Q2289.27 1477.06 2286.19 1481.67 Q2283.14 1486.25 2277.33 1486.25 Q2271.52 1486.25 2268.44 1481.67 Q2265.38 1477.06 2265.38 1468.33 Q2265.38 1459.58 2268.44 1455 Q2271.52 1450.39 2277.33 1450.39 Z" fill="#000000" fill-rule="nonzero" fill-opacity="1" /><path clip-path="url(#clip660)" d="M2307.49 1454.1 Q2303.88 1454.1 2302.05 1457.66 Q2300.24 1461.2 2300.24 1468.33 Q2300.24 1475.44 2302.05 1479.01 Q2303.88 1482.55 2307.49 1482.55 Q2311.12 1482.55 2312.93 1479.01 Q2314.76 1475.44 2314.76 1468.33 Q2314.76 1461.2 2312.93 1457.66 Q2311.12 1454.1 2307.49 1454.1 M2307.49 1450.39 Q2313.3 1450.39 2316.35 1455 Q2319.43 1459.58 2319.43 1468.33 Q2319.43 1477.06 2316.35 1481.67 Q2313.3 1486.25 2307.49 1486.25 Q2301.68 1486.25 2298.6 1481.67 Q2295.54 1477.06 2295.54 1468.33 Q2295.54 1459.58 2298.6 1455 Q2301.68 1450.39 2307.49 1450.39 Z" fill="#000000" fill-rule="nonzero" fill-opacity="1" /><path clip-path="url(#clip660)" d="M2337.65 1454.1 Q2334.04 1454.1 2332.21 1457.66 Q2330.4 1461.2 2330.4 1468.33 Q2330.4 1475.44 2332.21 1479.01 Q2334.04 1482.55 2337.65 1482.55 Q2341.28 1482.55 2343.09 1479.01 Q2344.92 1475.44 2344.92 1468.33 Q2344.92 1461.2 2343.09 1457.66 Q2341.28 1454.1 2337.65 1454.1 M2337.65 1450.39 Q2343.46 1450.39 2346.51 1455 Q2349.59 1459.58 2349.59 1468.33 Q2349.59 1477.06 2346.51 1481.67 Q2343.46 1486.25 2337.65 1486.25 Q2331.84 1486.25 2328.76 1481.67 Q2325.7 1477.06 2325.7 1468.33 Q2325.7 1459.58 2328.76 1455 Q2331.84 1450.39 2337.65 1450.39 Z" fill="#000000" fill-rule="nonzero" fill-opacity="1" /><path clip-path="url(#clip660)" d="M1268.82 1524.18 L1268.82 1530.96 Q1265.58 1527.94 1261.88 1526.44 Q1258.22 1524.95 1254.09 1524.95 Q1245.94 1524.95 1241.61 1529.95 Q1237.28 1534.91 1237.28 1544.33 Q1237.28 1553.72 1241.61 1558.72 Q1245.94 1563.68 1254.09 1563.68 Q1258.22 1563.68 1261.88 1562.19 Q1265.58 1560.69 1268.82 1557.67 L1268.82 1564.38 Q1265.45 1566.68 1261.66 1567.82 Q1257.91 1568.97 1253.7 1568.97 Q1242.91 1568.97 1236.71 1562.38 Q1230.5 1555.76 1230.5 1544.33 Q1230.5 1532.87 1236.71 1526.28 Q1242.91 1519.66 1253.7 1519.66 Q1257.97 1519.66 1261.72 1520.81 Q1265.51 1521.92 1268.82 1524.18 Z" fill="#000000" fill-rule="nonzero" fill-opacity="1" /><path clip-path="url(#clip660)" d="M1308.99 1548.76 L1308.99 1551.62 L1282.06 1551.62 Q1282.45 1557.67 1285.69 1560.85 Q1288.97 1564 1294.79 1564 Q1298.17 1564 1301.32 1563.17 Q1304.5 1562.35 1307.62 1560.69 L1307.62 1566.23 Q1304.47 1567.57 1301.16 1568.27 Q1297.85 1568.97 1294.44 1568.97 Q1285.91 1568.97 1280.92 1564 Q1275.95 1559.04 1275.95 1550.57 Q1275.95 1541.82 1280.66 1536.69 Q1285.41 1531.54 1293.43 1531.54 Q1300.62 1531.54 1304.79 1536.18 Q1308.99 1540.8 1308.99 1548.76 M1303.13 1547.04 Q1303.07 1542.23 1300.43 1539.37 Q1297.82 1536.5 1293.49 1536.5 Q1288.59 1536.5 1285.63 1539.27 Q1282.7 1542.04 1282.25 1547.07 L1303.13 1547.04 Z" fill="#000000" fill-rule="nonzero" fill-opacity="1" /><path clip-path="url(#clip660)" d="M1318.6 1518.52 L1324.46 1518.52 L1324.46 1568.04 L1318.6 1568.04 L1318.6 1518.52 Z" fill="#000000" fill-rule="nonzero" fill-opacity="1" /><path clip-path="url(#clip660)" d="M1336.71 1518.52 L1342.57 1518.52 L1342.57 1568.04 L1336.71 1568.04 L1336.71 1518.52 Z" fill="#000000" fill-rule="nonzero" fill-opacity="1" /><path clip-path="url(#clip660)" d="M1377.55 1533.45 L1377.55 1538.98 Q1375.07 1537.71 1372.39 1537.07 Q1369.72 1536.44 1366.85 1536.44 Q1362.49 1536.44 1360.3 1537.77 Q1358.13 1539.11 1358.13 1541.79 Q1358.13 1543.82 1359.69 1545 Q1361.25 1546.15 1365.96 1547.2 L1367.97 1547.64 Q1374.21 1548.98 1376.82 1551.43 Q1379.46 1553.85 1379.46 1558.21 Q1379.46 1563.17 1375.51 1566.07 Q1371.6 1568.97 1364.72 1568.97 Q1361.86 1568.97 1358.74 1568.39 Q1355.65 1567.85 1352.21 1566.74 L1352.21 1560.69 Q1355.46 1562.38 1358.61 1563.24 Q1361.76 1564.07 1364.85 1564.07 Q1368.99 1564.07 1371.22 1562.66 Q1373.44 1561.23 1373.44 1558.65 Q1373.44 1556.27 1371.82 1554.99 Q1370.23 1553.72 1364.79 1552.54 L1362.75 1552.07 Q1357.31 1550.92 1354.89 1548.56 Q1352.47 1546.18 1352.47 1542.04 Q1352.47 1537.01 1356.03 1534.27 Q1359.6 1531.54 1366.15 1531.54 Q1369.4 1531.54 1372.27 1532.01 Q1375.13 1532.49 1377.55 1533.45 Z" fill="#000000" fill-rule="nonzero" fill-opacity="1" /><polyline clip-path="url(#clip662)" style="stroke:#000000; stroke-linecap:round; stroke-linejoin:round; stroke-width:2; stroke-opacity:0.1; fill:none" points="257.204,1408.03 2352.76,1408.03 "/>
<polyline clip-path="url(#clip662)" style="stroke:#000000; stroke-linecap:round; stroke-linejoin:round; stroke-width:2; stroke-opacity:0.1; fill:none" points="257.204,1085.18 2352.76,1085.18 "/>
<polyline clip-path="url(#clip662)" style="stroke:#000000; stroke-linecap:round; stroke-linejoin:round; stroke-width:2; stroke-opacity:0.1; fill:none" points="257.204,762.324 2352.76,762.324 "/>
<polyline clip-path="url(#clip662)" style="stroke:#000000; stroke-linecap:round; stroke-linejoin:round; stroke-width:2; stroke-opacity:0.1; fill:none" points="257.204,439.47 2352.76,439.47 "/>
<polyline clip-path="url(#clip660)" style="stroke:#000000; stroke-linecap:round; stroke-linejoin:round; stroke-width:4; stroke-opacity:1; fill:none" points="257.204,1423.18 257.204,123.472 "/>
<polyline clip-path="url(#clip660)" style="stroke:#000000; stroke-linecap:round; stroke-linejoin:round; stroke-width:4; stroke-opacity:1; fill:none" points="257.204,1408.03 276.102,1408.03 "/>
<polyline clip-path="url(#clip660)" style="stroke:#000000; stroke-linecap:round; stroke-linejoin:round; stroke-width:4; stroke-opacity:1; fill:none" points="257.204,1085.18 276.102,1085.18 "/>
<polyline clip-path="url(#clip660)" style="stroke:#000000; stroke-linecap:round; stroke-linejoin:round; stroke-width:4; stroke-opacity:1; fill:none" points="257.204,762.324 276.102,762.324 "/>
<polyline clip-path="url(#clip660)" style="stroke:#000000; stroke-linecap:round; stroke-linejoin:round; stroke-width:4; stroke-opacity:1; fill:none" points="257.204,439.47 276.102,439.47 "/>
<path clip-path="url(#clip660)" d="M114.26 1408.48 L143.936 1408.48 L143.936 1412.42 L114.26 1412.42 L114.26 1408.48 Z" fill="#000000" fill-rule="nonzero" fill-opacity="1" /><path clip-path="url(#clip660)" d="M154.839 1421.38 L162.477 1421.38 L162.477 1395.01 L154.167 1396.68 L154.167 1392.42 L162.431 1390.75 L167.107 1390.75 L167.107 1421.38 L174.746 1421.38 L174.746 1425.31 L154.839 1425.31 L154.839 1421.38 Z" fill="#000000" fill-rule="nonzero" fill-opacity="1" /><path clip-path="url(#clip660)" d="M184.19 1419.43 L189.075 1419.43 L189.075 1425.31 L184.19 1425.31 L184.19 1419.43 Z" fill="#000000" fill-rule="nonzero" fill-opacity="1" /><path clip-path="url(#clip660)" d="M209.26 1393.83 Q205.649 1393.83 203.82 1397.39 Q202.014 1400.94 202.014 1408.07 Q202.014 1415.17 203.82 1418.74 Q205.649 1422.28 209.26 1422.28 Q212.894 1422.28 214.699 1418.74 Q216.528 1415.17 216.528 1408.07 Q216.528 1400.94 214.699 1397.39 Q212.894 1393.83 209.26 1393.83 M209.26 1390.13 Q215.07 1390.13 218.125 1394.73 Q221.204 1399.32 221.204 1408.07 Q221.204 1416.79 218.125 1421.4 Q215.07 1425.98 209.26 1425.98 Q203.449 1425.98 200.371 1421.4 Q197.315 1416.79 197.315 1408.07 Q197.315 1399.32 200.371 1394.73 Q203.449 1390.13 209.26 1390.13 Z" fill="#000000" fill-rule="nonzero" fill-opacity="1" /><path clip-path="url(#clip660)" d="M115.256 1085.63 L144.931 1085.63 L144.931 1089.56 L115.256 1089.56 L115.256 1085.63 Z" fill="#000000" fill-rule="nonzero" fill-opacity="1" /><path clip-path="url(#clip660)" d="M165.024 1070.98 Q161.413 1070.98 159.584 1074.54 Q157.778 1078.08 157.778 1085.21 Q157.778 1092.32 159.584 1095.88 Q161.413 1099.43 165.024 1099.43 Q168.658 1099.43 170.464 1095.88 Q172.292 1092.32 172.292 1085.21 Q172.292 1078.08 170.464 1074.54 Q168.658 1070.98 165.024 1070.98 M165.024 1067.27 Q170.834 1067.27 173.889 1071.88 Q176.968 1076.46 176.968 1085.21 Q176.968 1093.94 173.889 1098.55 Q170.834 1103.13 165.024 1103.13 Q159.214 1103.13 156.135 1098.55 Q153.079 1093.94 153.079 1085.21 Q153.079 1076.46 156.135 1071.88 Q159.214 1067.27 165.024 1067.27 Z" fill="#000000" fill-rule="nonzero" fill-opacity="1" /><path clip-path="url(#clip660)" d="M185.186 1096.58 L190.07 1096.58 L190.07 1102.46 L185.186 1102.46 L185.186 1096.58 Z" fill="#000000" fill-rule="nonzero" fill-opacity="1" /><path clip-path="url(#clip660)" d="M200.301 1067.9 L218.658 1067.9 L218.658 1071.83 L204.584 1071.83 L204.584 1080.3 Q205.602 1079.96 206.621 1079.8 Q207.639 1079.61 208.658 1079.61 Q214.445 1079.61 217.824 1082.78 Q221.204 1085.95 221.204 1091.37 Q221.204 1096.95 217.732 1100.05 Q214.26 1103.13 207.94 1103.13 Q205.764 1103.13 203.496 1102.76 Q201.25 1102.39 198.843 1101.65 L198.843 1096.95 Q200.926 1098.08 203.149 1098.64 Q205.371 1099.19 207.848 1099.19 Q211.852 1099.19 214.19 1097.09 Q216.528 1094.98 216.528 1091.37 Q216.528 1087.76 214.19 1085.65 Q211.852 1083.55 207.848 1083.55 Q205.973 1083.55 204.098 1083.96 Q202.246 1084.38 200.301 1085.26 L200.301 1067.9 Z" fill="#000000" fill-rule="nonzero" fill-opacity="1" /><path clip-path="url(#clip660)" d="M164.028 748.123 Q160.417 748.123 158.589 751.687 Q156.783 755.229 156.783 762.359 Q156.783 769.465 158.589 773.03 Q160.417 776.571 164.028 776.571 Q167.663 776.571 169.468 773.03 Q171.297 769.465 171.297 762.359 Q171.297 755.229 169.468 751.687 Q167.663 748.123 164.028 748.123 M164.028 744.419 Q169.839 744.419 172.894 749.025 Q175.973 753.609 175.973 762.359 Q175.973 771.085 172.894 775.692 Q169.839 780.275 164.028 780.275 Q158.218 780.275 155.14 775.692 Q152.084 771.085 152.084 762.359 Q152.084 753.609 155.14 749.025 Q158.218 744.419 164.028 744.419 Z" fill="#000000" fill-rule="nonzero" fill-opacity="1" /><path clip-path="url(#clip660)" d="M184.19 773.724 L189.075 773.724 L189.075 779.604 L184.19 779.604 L184.19 773.724 Z" fill="#000000" fill-rule="nonzero" fill-opacity="1" /><path clip-path="url(#clip660)" d="M209.26 748.123 Q205.649 748.123 203.82 751.687 Q202.014 755.229 202.014 762.359 Q202.014 769.465 203.82 773.03 Q205.649 776.571 209.26 776.571 Q212.894 776.571 214.699 773.03 Q216.528 769.465 216.528 762.359 Q216.528 755.229 214.699 751.687 Q212.894 748.123 209.26 748.123 M209.26 744.419 Q215.07 744.419 218.125 749.025 Q221.204 753.609 221.204 762.359 Q221.204 771.085 218.125 775.692 Q215.07 780.275 209.26 780.275 Q203.449 780.275 200.371 775.692 Q197.315 771.085 197.315 762.359 Q197.315 753.609 200.371 749.025 Q203.449 744.419 209.26 744.419 Z" fill="#000000" fill-rule="nonzero" fill-opacity="1" /><path clip-path="url(#clip660)" d="M165.024 425.269 Q161.413 425.269 159.584 428.834 Q157.778 432.375 157.778 439.505 Q157.778 446.611 159.584 450.176 Q161.413 453.718 165.024 453.718 Q168.658 453.718 170.464 450.176 Q172.292 446.611 172.292 439.505 Q172.292 432.375 170.464 428.834 Q168.658 425.269 165.024 425.269 M165.024 421.565 Q170.834 421.565 173.889 426.172 Q176.968 430.755 176.968 439.505 Q176.968 448.232 173.889 452.838 Q170.834 457.421 165.024 457.421 Q159.214 457.421 156.135 452.838 Q153.079 448.232 153.079 439.505 Q153.079 430.755 156.135 426.172 Q159.214 421.565 165.024 421.565 Z" fill="#000000" fill-rule="nonzero" fill-opacity="1" /><path clip-path="url(#clip660)" d="M185.186 450.871 L190.07 450.871 L190.07 456.75 L185.186 456.75 L185.186 450.871 Z" fill="#000000" fill-rule="nonzero" fill-opacity="1" /><path clip-path="url(#clip660)" d="M200.301 422.19 L218.658 422.19 L218.658 426.125 L204.584 426.125 L204.584 434.598 Q205.602 434.25 206.621 434.088 Q207.639 433.903 208.658 433.903 Q214.445 433.903 217.824 437.074 Q221.204 440.246 221.204 445.662 Q221.204 451.241 217.732 454.343 Q214.26 457.421 207.94 457.421 Q205.764 457.421 203.496 457.051 Q201.25 456.681 198.843 455.94 L198.843 451.241 Q200.926 452.375 203.149 452.931 Q205.371 453.486 207.848 453.486 Q211.852 453.486 214.19 451.38 Q216.528 449.273 216.528 445.662 Q216.528 442.051 214.19 439.945 Q211.852 437.838 207.848 437.838 Q205.973 437.838 204.098 438.255 Q202.246 438.672 200.301 439.551 L200.301 422.19 Z" fill="#000000" fill-rule="nonzero" fill-opacity="1" /><path clip-path="url(#clip660)" d="M18.0438 893.717 L24.314 893.717 Q22.5634 897.378 21.704 900.624 Q20.8447 903.871 20.8447 906.894 Q20.8447 912.146 22.8817 915.011 Q24.9187 917.843 28.6745 917.843 Q31.8255 917.843 33.4488 915.966 Q35.0402 914.056 36.0269 908.772 L36.8226 904.889 Q38.1912 897.696 41.6605 894.29 Q45.098 890.853 50.8908 890.853 Q57.7976 890.853 61.3624 895.5 Q64.9272 900.115 64.9272 909.059 Q64.9272 912.433 64.1633 916.252 Q63.3994 920.04 61.9035 924.114 L55.2831 924.114 Q57.4793 920.199 58.5933 916.443 Q59.7073 912.687 59.7073 909.059 Q59.7073 903.552 57.543 900.561 Q55.3786 897.569 51.3682 897.569 Q47.8671 897.569 45.8937 899.733 Q43.9204 901.866 42.9337 906.767 L42.1698 910.682 Q40.7375 917.875 37.682 921.09 Q34.6264 924.305 29.1837 924.305 Q22.8817 924.305 19.2532 919.88 Q15.6248 915.424 15.6248 907.626 Q15.6248 904.284 16.2295 900.815 Q16.8343 897.346 18.0438 893.717 Z" fill="#000000" fill-rule="nonzero" fill-opacity="1" /><path clip-path="url(#clip660)" d="M28.3562 881.081 L28.3562 875.225 L64.0042 875.225 L64.0042 881.081 L28.3562 881.081 M14.479 881.081 L14.479 875.225 L21.895 875.225 L21.895 881.081 L14.479 881.081 Z" fill="#000000" fill-rule="nonzero" fill-opacity="1" /><path clip-path="url(#clip660)" d="M35.1993 835.217 Q31.2526 833.02 29.3747 829.965 Q27.4968 826.909 27.4968 822.772 Q27.4968 817.202 31.4117 814.178 Q35.2948 811.154 42.4881 811.154 L64.0042 811.154 L64.0042 817.042 L42.679 817.042 Q37.5546 817.042 35.072 818.857 Q32.5894 820.671 32.5894 824.395 Q32.5894 828.946 35.6131 831.588 Q38.6368 834.23 43.8567 834.23 L64.0042 834.23 L64.0042 840.118 L42.679 840.118 Q37.5228 840.118 35.072 841.932 Q32.5894 843.747 32.5894 847.534 Q32.5894 852.022 35.6449 854.664 Q38.6686 857.306 43.8567 857.306 L64.0042 857.306 L64.0042 863.194 L28.3562 863.194 L28.3562 857.306 L33.8944 857.306 Q30.616 855.3 29.0564 852.499 Q27.4968 849.699 27.4968 845.847 Q27.4968 841.964 29.4702 839.259 Q31.4436 836.522 35.1993 835.217 Z" fill="#000000" fill-rule="nonzero" fill-opacity="1" /><path clip-path="url(#clip660)" d="M28.3562 799.473 L28.3562 793.617 L64.0042 793.617 L64.0042 799.473 L28.3562 799.473 M14.479 799.473 L14.479 793.617 L21.895 793.617 L21.895 799.473 L14.479 799.473 Z" fill="#000000" fill-rule="nonzero" fill-opacity="1" /><path clip-path="url(#clip660)" d="M14.479 781.363 L14.479 775.506 L64.0042 775.506 L64.0042 781.363 L14.479 781.363 Z" fill="#000000" fill-rule="nonzero" fill-opacity="1" /><path clip-path="url(#clip660)" d="M46.0847 747.052 Q46.0847 754.149 47.7079 756.887 Q49.3312 759.624 53.2461 759.624 Q56.3653 759.624 58.2114 757.587 Q60.0256 755.518 60.0256 751.985 Q60.0256 747.115 56.5881 744.187 Q53.1188 741.227 47.3897 741.227 L46.0847 741.227 L46.0847 747.052 M43.6657 735.37 L64.0042 735.37 L64.0042 741.227 L58.5933 741.227 Q61.8398 743.232 63.3994 746.224 Q64.9272 749.216 64.9272 753.545 Q64.9272 759.019 61.8716 762.266 Q58.7843 765.48 53.6281 765.48 Q47.6125 765.48 44.5569 761.47 Q41.5014 757.428 41.5014 749.439 L41.5014 741.227 L40.9285 741.227 Q36.8862 741.227 34.6901 743.901 Q32.4621 746.542 32.4621 751.348 Q32.4621 754.404 33.1941 757.3 Q33.9262 760.197 35.3903 762.87 L29.9795 762.87 Q28.7381 759.656 28.1334 756.632 Q27.4968 753.608 27.4968 750.744 Q27.4968 743.009 31.5072 739.19 Q35.5176 735.37 43.6657 735.37 Z" fill="#000000" fill-rule="nonzero" fill-opacity="1" /><path clip-path="url(#clip660)" d="M33.8307 702.651 Q33.2578 703.637 33.0032 704.815 Q32.7167 705.961 32.7167 707.361 Q32.7167 712.327 35.9632 715 Q39.1779 717.642 45.2253 717.642 L64.0042 717.642 L64.0042 723.53 L28.3562 723.53 L28.3562 717.642 L33.8944 717.642 Q30.6479 715.796 29.0883 712.836 Q27.4968 709.876 27.4968 705.643 Q27.4968 705.038 27.5923 704.306 Q27.656 703.574 27.8151 702.683 L33.8307 702.651 Z" fill="#000000" fill-rule="nonzero" fill-opacity="1" /><path clip-path="url(#clip660)" d="M28.3562 696.508 L28.3562 690.651 L64.0042 690.651 L64.0042 696.508 L28.3562 696.508 M14.479 696.508 L14.479 690.651 L21.895 690.651 L21.895 696.508 L14.479 696.508 Z" fill="#000000" fill-rule="nonzero" fill-opacity="1" /><path clip-path="url(#clip660)" d="M18.2347 672.605 L28.3562 672.605 L28.3562 660.542 L32.9077 660.542 L32.9077 672.605 L52.2594 672.605 Q56.6199 672.605 57.8613 671.427 Q59.1026 670.217 59.1026 666.557 L59.1026 660.542 L64.0042 660.542 L64.0042 666.557 Q64.0042 673.337 61.4897 675.915 Q58.9434 678.493 52.2594 678.493 L32.9077 678.493 L32.9077 682.79 L28.3562 682.79 L28.3562 678.493 L18.2347 678.493 L18.2347 672.605 Z" fill="#000000" fill-rule="nonzero" fill-opacity="1" /><path clip-path="url(#clip660)" d="M67.3143 638.007 Q73.68 640.49 75.6216 642.845 Q77.5631 645.2 77.5631 649.147 L77.5631 653.826 L72.6615 653.826 L72.6615 650.388 Q72.6615 647.969 71.5157 646.633 Q70.3699 645.296 66.1048 643.672 L63.4312 642.622 L28.3562 657.04 L28.3562 650.834 L56.238 639.694 L28.3562 628.554 L28.3562 622.347 L67.3143 638.007 Z" fill="#000000" fill-rule="nonzero" fill-opacity="1" /><path clip-path="url(#clip660)" d="M396.18 14.0809 L396.18 22.0612 Q391.521 19.8332 387.389 18.7395 Q383.257 17.6457 379.409 17.6457 Q372.725 17.6457 369.079 20.2383 Q365.474 22.8309 365.474 27.611 Q365.474 31.6214 367.864 33.6873 Q370.295 35.7128 377.019 36.9686 L381.961 37.9813 Q391.116 39.7232 395.451 44.1387 Q399.826 48.5136 399.826 55.8863 Q399.826 64.6767 393.911 69.2137 Q388.038 73.7508 376.655 73.7508 Q372.361 73.7508 367.499 72.7785 Q362.679 71.8063 357.494 69.9024 L357.494 61.4765 Q362.476 64.2716 367.256 65.6895 Q372.036 67.1073 376.655 67.1073 Q383.663 67.1073 387.47 64.3527 Q391.278 61.598 391.278 56.4939 Q391.278 52.0379 388.524 49.5264 Q385.81 47.0148 379.571 45.759 L374.589 44.7868 Q365.433 42.9639 361.342 39.075 Q357.251 35.1862 357.251 28.2591 Q357.251 20.2383 362.881 15.6203 Q368.553 11.0023 378.477 11.0023 Q382.731 11.0023 387.146 11.7719 Q391.562 12.5416 396.18 14.0809 Z" fill="#000000" fill-rule="nonzero" fill-opacity="1" /><path clip-path="url(#clip660)" d="M429.843 32.4315 Q423.848 32.4315 420.364 37.1306 Q416.88 41.7891 416.88 49.9314 Q416.88 58.0738 420.323 62.7728 Q423.807 67.4314 429.843 67.4314 Q435.798 67.4314 439.281 62.7323 Q442.765 58.0333 442.765 49.9314 Q442.765 41.8701 439.281 37.1711 Q435.798 32.4315 429.843 32.4315 M429.843 26.1121 Q439.565 26.1121 445.115 32.4315 Q450.665 38.7509 450.665 49.9314 Q450.665 61.0714 445.115 67.4314 Q439.565 73.7508 429.843 73.7508 Q420.08 73.7508 414.53 67.4314 Q409.021 61.0714 409.021 49.9314 Q409.021 38.7509 414.53 32.4315 Q420.08 26.1121 429.843 26.1121 Z" fill="#000000" fill-rule="nonzero" fill-opacity="1" /><path clip-path="url(#clip660)" d="M489.31 34.1734 Q488.054 33.4443 486.556 33.1202 Q485.097 32.7556 483.315 32.7556 Q476.995 32.7556 473.593 36.8875 Q470.23 40.9789 470.23 48.6757 L470.23 72.576 L462.736 72.576 L462.736 27.2059 L470.23 27.2059 L470.23 34.2544 Q472.58 30.1225 476.347 28.1376 Q480.115 26.1121 485.502 26.1121 Q486.272 26.1121 487.204 26.2337 Q488.135 26.3147 489.27 26.5172 L489.31 34.1734 Z" fill="#000000" fill-rule="nonzero" fill-opacity="1" /><path clip-path="url(#clip660)" d="M504.501 14.324 L504.501 27.2059 L519.854 27.2059 L519.854 32.9987 L504.501 32.9987 L504.501 57.6282 Q504.501 63.1779 506 64.7578 Q507.539 66.3376 512.198 66.3376 L519.854 66.3376 L519.854 72.576 L512.198 72.576 Q503.569 72.576 500.288 69.3758 Q497.007 66.1351 497.007 57.6282 L497.007 32.9987 L491.538 32.9987 L491.538 27.2059 L497.007 27.2059 L497.007 14.324 L504.501 14.324 Z" fill="#000000" fill-rule="nonzero" fill-opacity="1" /><path clip-path="url(#clip660)" d="M568.465 48.0275 L568.465 51.6733 L534.194 51.6733 Q534.68 59.3701 538.812 63.421 Q542.985 67.4314 550.398 67.4314 Q554.692 67.4314 558.702 66.3781 Q562.753 65.3249 566.723 63.2184 L566.723 70.267 Q562.713 71.9684 558.5 72.8596 Q554.287 73.7508 549.952 73.7508 Q539.096 73.7508 532.736 67.4314 Q526.416 61.1119 526.416 50.3365 Q526.416 39.1965 532.412 32.6746 Q538.448 26.1121 548.656 26.1121 Q557.811 26.1121 563.118 32.0264 Q568.465 37.9003 568.465 48.0275 M561.011 45.84 Q560.93 39.7232 557.568 36.0774 Q554.246 32.4315 548.737 32.4315 Q542.499 32.4315 538.731 35.9558 Q535.004 39.4801 534.437 45.8805 L561.011 45.84 Z" fill="#000000" fill-rule="nonzero" fill-opacity="1" /><path clip-path="url(#clip660)" d="M610.554 34.0924 L610.554 9.54393 L618.007 9.54393 L618.007 72.576 L610.554 72.576 L610.554 65.7705 Q608.204 69.8214 604.599 71.8063 Q601.034 73.7508 596.011 73.7508 Q587.788 73.7508 582.602 67.1883 Q577.458 60.6258 577.458 49.9314 Q577.458 39.2371 582.602 32.6746 Q587.788 26.1121 596.011 26.1121 Q601.034 26.1121 604.599 28.0971 Q608.204 30.0415 610.554 34.0924 M585.155 49.9314 Q585.155 58.1548 588.517 62.8538 Q591.92 67.5124 597.834 67.5124 Q603.748 67.5124 607.151 62.8538 Q610.554 58.1548 610.554 49.9314 Q610.554 41.7081 607.151 37.0496 Q603.748 32.3505 597.834 32.3505 Q591.92 32.3505 588.517 37.0496 Q585.155 41.7081 585.155 49.9314 Z" fill="#000000" fill-rule="nonzero" fill-opacity="1" /><path clip-path="url(#clip660)" d="M692.382 28.9478 L692.382 35.9153 Q689.222 34.1734 686.022 33.3227 Q682.862 32.4315 679.622 32.4315 Q672.371 32.4315 668.36 37.0496 Q664.35 41.6271 664.35 49.9314 Q664.35 58.2358 668.36 62.8538 Q672.371 67.4314 679.622 67.4314 Q682.862 67.4314 686.022 66.5807 Q689.222 65.6895 692.382 63.9476 L692.382 70.8341 Q689.263 72.2924 685.901 73.0216 Q682.579 73.7508 678.811 73.7508 Q668.563 73.7508 662.527 67.3098 Q656.491 60.8689 656.491 49.9314 Q656.491 38.832 662.567 32.472 Q668.684 26.1121 679.298 26.1121 Q682.741 26.1121 686.022 26.8413 Q689.303 27.5299 692.382 28.9478 Z" fill="#000000" fill-rule="nonzero" fill-opacity="1" /><path clip-path="url(#clip660)" d="M722.926 32.4315 Q716.93 32.4315 713.447 37.1306 Q709.963 41.7891 709.963 49.9314 Q709.963 58.0738 713.406 62.7728 Q716.89 67.4314 722.926 67.4314 Q728.881 67.4314 732.364 62.7323 Q735.848 58.0333 735.848 49.9314 Q735.848 41.8701 732.364 37.1711 Q728.881 32.4315 722.926 32.4315 M722.926 26.1121 Q732.648 26.1121 738.198 32.4315 Q743.747 38.7509 743.747 49.9314 Q743.747 61.0714 738.198 67.4314 Q732.648 73.7508 722.926 73.7508 Q713.163 73.7508 707.613 67.4314 Q702.104 61.0714 702.104 49.9314 Q702.104 38.7509 707.613 32.4315 Q713.163 26.1121 722.926 26.1121 Z" fill="#000000" fill-rule="nonzero" fill-opacity="1" /><path clip-path="url(#clip660)" d="M785.026 28.5427 L785.026 35.5912 Q781.866 33.9709 778.464 33.1607 Q775.061 32.3505 771.415 32.3505 Q765.865 32.3505 763.07 34.0519 Q760.316 35.7533 760.316 39.156 Q760.316 41.7486 762.301 43.2475 Q764.286 44.7058 770.281 46.0426 L772.833 46.6097 Q780.773 48.3111 784.094 51.4303 Q787.457 54.509 787.457 60.0587 Q787.457 66.3781 782.434 70.0644 Q777.451 73.7508 768.701 73.7508 Q765.055 73.7508 761.085 73.0216 Q757.156 72.3329 752.781 70.9151 L752.781 63.2184 Q756.913 65.3654 760.923 66.4591 Q764.934 67.5124 768.863 67.5124 Q774.129 67.5124 776.965 65.73 Q779.8 63.9071 779.8 60.6258 Q779.8 57.5877 777.735 55.9673 Q775.709 54.3469 768.782 52.8481 L766.189 52.2405 Q759.262 50.7821 756.184 47.7845 Q753.105 44.7463 753.105 39.4801 Q753.105 33.0797 757.642 29.5959 Q762.179 26.1121 770.524 26.1121 Q774.656 26.1121 778.302 26.7198 Q781.947 27.3274 785.026 28.5427 Z" fill="#000000" fill-rule="nonzero" fill-opacity="1" /><path clip-path="url(#clip660)" d="M799.326 27.2059 L806.78 27.2059 L806.78 72.576 L799.326 72.576 L799.326 27.2059 M799.326 9.54393 L806.78 9.54393 L806.78 18.9825 L799.326 18.9825 L799.326 9.54393 Z" fill="#000000" fill-rule="nonzero" fill-opacity="1" /><path clip-path="url(#clip660)" d="M860.089 45.1919 L860.089 72.576 L852.636 72.576 L852.636 45.4349 Q852.636 38.994 850.124 35.7938 Q847.613 32.5936 842.59 32.5936 Q836.554 32.5936 833.07 36.4419 Q829.586 40.2903 829.586 46.9338 L829.586 72.576 L822.092 72.576 L822.092 27.2059 L829.586 27.2059 L829.586 34.2544 Q832.26 30.163 835.865 28.1376 Q839.511 26.1121 844.25 26.1121 Q852.069 26.1121 856.079 30.9732 Q860.089 35.7938 860.089 45.1919 Z" fill="#000000" fill-rule="nonzero" fill-opacity="1" /><path clip-path="url(#clip660)" d="M913.764 48.0275 L913.764 51.6733 L879.493 51.6733 Q879.979 59.3701 884.111 63.421 Q888.284 67.4314 895.697 67.4314 Q899.991 67.4314 904.001 66.3781 Q908.052 65.3249 912.022 63.2184 L912.022 70.267 Q908.012 71.9684 903.799 72.8596 Q899.586 73.7508 895.251 73.7508 Q884.395 73.7508 878.035 67.4314 Q871.716 61.1119 871.716 50.3365 Q871.716 39.1965 877.711 32.6746 Q883.747 26.1121 893.955 26.1121 Q903.11 26.1121 908.417 32.0264 Q913.764 37.9003 913.764 48.0275 M906.31 45.84 Q906.229 39.7232 902.867 36.0774 Q899.545 32.4315 894.036 32.4315 Q887.798 32.4315 884.03 35.9558 Q880.303 39.4801 879.736 45.8805 L906.31 45.84 Z" fill="#000000" fill-rule="nonzero" fill-opacity="1" /><path clip-path="url(#clip660)" d="M981.292 28.5427 L981.292 35.5912 Q978.133 33.9709 974.73 33.1607 Q971.327 32.3505 967.681 32.3505 Q962.132 32.3505 959.337 34.0519 Q956.582 35.7533 956.582 39.156 Q956.582 41.7486 958.567 43.2475 Q960.552 44.7058 966.547 46.0426 L969.099 46.6097 Q977.039 48.3111 980.361 51.4303 Q983.723 54.509 983.723 60.0587 Q983.723 66.3781 978.7 70.0644 Q973.717 73.7508 964.967 73.7508 Q961.322 73.7508 957.352 73.0216 Q953.422 72.3329 949.047 70.9151 L949.047 63.2184 Q953.179 65.3654 957.19 66.4591 Q961.2 67.5124 965.129 67.5124 Q970.396 67.5124 973.231 65.73 Q976.067 63.9071 976.067 60.6258 Q976.067 57.5877 974.001 55.9673 Q971.975 54.3469 965.048 52.8481 L962.456 52.2405 Q955.529 50.7821 952.45 47.7845 Q949.371 44.7463 949.371 39.4801 Q949.371 33.0797 953.908 29.5959 Q958.445 26.1121 966.79 26.1121 Q970.922 26.1121 974.568 26.7198 Q978.214 27.3274 981.292 28.5427 Z" fill="#000000" fill-rule="nonzero" fill-opacity="1" /><path clip-path="url(#clip660)" d="M995.592 27.2059 L1003.05 27.2059 L1003.05 72.576 L995.592 72.576 L995.592 27.2059 M995.592 9.54393 L1003.05 9.54393 L1003.05 18.9825 L995.592 18.9825 L995.592 9.54393 Z" fill="#000000" fill-rule="nonzero" fill-opacity="1" /><path clip-path="url(#clip660)" d="M1053.97 35.9153 Q1056.76 30.8922 1060.65 28.5022 Q1064.54 26.1121 1069.8 26.1121 Q1076.89 26.1121 1080.74 31.0947 Q1084.59 36.0368 1084.59 45.1919 L1084.59 72.576 L1077.1 72.576 L1077.1 45.4349 Q1077.1 38.913 1074.79 35.7533 Q1072.48 32.5936 1067.74 32.5936 Q1061.95 32.5936 1058.58 36.4419 Q1055.22 40.2903 1055.22 46.9338 L1055.22 72.576 L1047.73 72.576 L1047.73 45.4349 Q1047.73 38.8725 1045.42 35.7533 Q1043.11 32.5936 1038.29 32.5936 Q1032.58 32.5936 1029.21 36.4824 Q1025.85 40.3308 1025.85 46.9338 L1025.85 72.576 L1018.36 72.576 L1018.36 27.2059 L1025.85 27.2059 L1025.85 34.2544 Q1028.4 30.082 1031.97 28.0971 Q1035.53 26.1121 1040.44 26.1121 Q1045.38 26.1121 1048.82 28.6237 Q1052.3 31.1352 1053.97 35.9153 Z" fill="#000000" fill-rule="nonzero" fill-opacity="1" /><path clip-path="url(#clip660)" d="M1099.46 27.2059 L1106.91 27.2059 L1106.91 72.576 L1099.46 72.576 L1099.46 27.2059 M1099.46 9.54393 L1106.91 9.54393 L1106.91 18.9825 L1099.46 18.9825 L1099.46 9.54393 Z" fill="#000000" fill-rule="nonzero" fill-opacity="1" /><path clip-path="url(#clip660)" d="M1122.51 9.54393 L1129.96 9.54393 L1129.96 72.576 L1122.51 72.576 L1122.51 9.54393 Z" fill="#000000" fill-rule="nonzero" fill-opacity="1" /><path clip-path="url(#clip660)" d="M1166.18 49.7694 Q1157.14 49.7694 1153.66 51.8354 Q1150.17 53.9013 1150.17 58.8839 Q1150.17 62.8538 1152.77 65.2034 Q1155.4 67.5124 1159.9 67.5124 Q1166.09 67.5124 1169.82 63.1374 Q1173.59 58.7219 1173.59 51.4303 L1173.59 49.7694 L1166.18 49.7694 M1181.04 46.6907 L1181.04 72.576 L1173.59 72.576 L1173.59 65.6895 Q1171.04 69.8214 1167.23 71.8063 Q1163.42 73.7508 1157.91 73.7508 Q1150.94 73.7508 1146.81 69.8619 Q1142.72 65.9325 1142.72 59.3701 Q1142.72 51.7138 1147.83 47.825 Q1152.97 43.9361 1163.14 43.9361 L1173.59 43.9361 L1173.59 43.2069 Q1173.59 38.0623 1170.19 35.2672 Q1166.82 32.4315 1160.71 32.4315 Q1156.82 32.4315 1153.13 33.3632 Q1149.45 34.295 1146.04 36.1584 L1146.04 29.2718 Q1150.13 27.692 1153.98 26.9223 Q1157.83 26.1121 1161.48 26.1121 Q1171.32 26.1121 1176.18 31.2163 Q1181.04 36.3204 1181.04 46.6907 Z" fill="#000000" fill-rule="nonzero" fill-opacity="1" /><path clip-path="url(#clip660)" d="M1222.69 34.1734 Q1221.43 33.4443 1219.93 33.1202 Q1218.47 32.7556 1216.69 32.7556 Q1210.37 32.7556 1206.97 36.8875 Q1203.61 40.9789 1203.61 48.6757 L1203.61 72.576 L1196.11 72.576 L1196.11 27.2059 L1203.61 27.2059 L1203.61 34.2544 Q1205.96 30.1225 1209.72 28.1376 Q1213.49 26.1121 1218.88 26.1121 Q1219.65 26.1121 1220.58 26.2337 Q1221.51 26.3147 1222.65 26.5172 L1222.69 34.1734 Z" fill="#000000" fill-rule="nonzero" fill-opacity="1" /><path clip-path="url(#clip660)" d="M1230.5 27.2059 L1237.96 27.2059 L1237.96 72.576 L1230.5 72.576 L1230.5 27.2059 M1230.5 9.54393 L1237.96 9.54393 L1237.96 18.9825 L1230.5 18.9825 L1230.5 9.54393 Z" fill="#000000" fill-rule="nonzero" fill-opacity="1" /><path clip-path="url(#clip660)" d="M1260.93 14.324 L1260.93 27.2059 L1276.28 27.2059 L1276.28 32.9987 L1260.93 32.9987 L1260.93 57.6282 Q1260.93 63.1779 1262.43 64.7578 Q1263.96 66.3376 1268.62 66.3376 L1276.28 66.3376 L1276.28 72.576 L1268.62 72.576 Q1259.99 72.576 1256.71 69.3758 Q1253.43 66.1351 1253.43 57.6282 L1253.43 32.9987 L1247.96 32.9987 L1247.96 27.2059 L1253.43 27.2059 L1253.43 14.324 L1260.93 14.324 Z" fill="#000000" fill-rule="nonzero" fill-opacity="1" /><path clip-path="url(#clip660)" d="M1286.08 27.2059 L1293.54 27.2059 L1293.54 72.576 L1286.08 72.576 L1286.08 27.2059 M1286.08 9.54393 L1293.54 9.54393 L1293.54 18.9825 L1286.08 18.9825 L1286.08 9.54393 Z" fill="#000000" fill-rule="nonzero" fill-opacity="1" /><path clip-path="url(#clip660)" d="M1347.94 48.0275 L1347.94 51.6733 L1313.67 51.6733 Q1314.16 59.3701 1318.29 63.421 Q1322.46 67.4314 1329.87 67.4314 Q1334.17 67.4314 1338.18 66.3781 Q1342.23 65.3249 1346.2 63.2184 L1346.2 70.267 Q1342.19 71.9684 1337.97 72.8596 Q1333.76 73.7508 1329.43 73.7508 Q1318.57 73.7508 1312.21 67.4314 Q1305.89 61.1119 1305.89 50.3365 Q1305.89 39.1965 1311.89 32.6746 Q1317.92 26.1121 1328.13 26.1121 Q1337.29 26.1121 1342.59 32.0264 Q1347.94 37.9003 1347.94 48.0275 M1340.49 45.84 Q1340.41 39.7232 1337.04 36.0774 Q1333.72 32.4315 1328.21 32.4315 Q1321.97 32.4315 1318.21 35.9558 Q1314.48 39.4801 1313.91 45.8805 L1340.49 45.84 Z" fill="#000000" fill-rule="nonzero" fill-opacity="1" /><path clip-path="url(#clip660)" d="M1389.1 28.5427 L1389.1 35.5912 Q1385.94 33.9709 1382.53 33.1607 Q1379.13 32.3505 1375.49 32.3505 Q1369.94 32.3505 1367.14 34.0519 Q1364.39 35.7533 1364.39 39.156 Q1364.39 41.7486 1366.37 43.2475 Q1368.36 44.7058 1374.35 46.0426 L1376.9 46.6097 Q1384.84 48.3111 1388.17 51.4303 Q1391.53 54.509 1391.53 60.0587 Q1391.53 66.3781 1386.5 70.0644 Q1381.52 73.7508 1372.77 73.7508 Q1369.13 73.7508 1365.16 73.0216 Q1361.23 72.3329 1356.85 70.9151 L1356.85 63.2184 Q1360.98 65.3654 1364.99 66.4591 Q1369 67.5124 1372.93 67.5124 Q1378.2 67.5124 1381.04 65.73 Q1383.87 63.9071 1383.87 60.6258 Q1383.87 57.5877 1381.81 55.9673 Q1379.78 54.3469 1372.85 52.8481 L1370.26 52.2405 Q1363.33 50.7821 1360.25 47.7845 Q1357.18 44.7463 1357.18 39.4801 Q1357.18 33.0797 1361.71 29.5959 Q1366.25 26.1121 1374.59 26.1121 Q1378.73 26.1121 1382.37 26.7198 Q1386.02 27.3274 1389.1 28.5427 Z" fill="#000000" fill-rule="nonzero" fill-opacity="1" /><path clip-path="url(#clip660)" d="M1462.42 28.9478 L1462.42 35.9153 Q1459.26 34.1734 1456.06 33.3227 Q1452.9 32.4315 1449.66 32.4315 Q1442.41 32.4315 1438.4 37.0496 Q1434.39 41.6271 1434.39 49.9314 Q1434.39 58.2358 1438.4 62.8538 Q1442.41 67.4314 1449.66 67.4314 Q1452.9 67.4314 1456.06 66.5807 Q1459.26 65.6895 1462.42 63.9476 L1462.42 70.8341 Q1459.3 72.2924 1455.94 73.0216 Q1452.62 73.7508 1448.85 73.7508 Q1438.6 73.7508 1432.56 67.3098 Q1426.53 60.8689 1426.53 49.9314 Q1426.53 38.832 1432.6 32.472 Q1438.72 26.1121 1449.33 26.1121 Q1452.78 26.1121 1456.06 26.8413 Q1459.34 27.5299 1462.42 28.9478 Z" fill="#000000" fill-rule="nonzero" fill-opacity="1" /><path clip-path="url(#clip660)" d="M1514.19 48.0275 L1514.19 51.6733 L1479.92 51.6733 Q1480.4 59.3701 1484.54 63.421 Q1488.71 67.4314 1496.12 67.4314 Q1500.42 67.4314 1504.43 66.3781 Q1508.48 65.3249 1512.45 63.2184 L1512.45 70.267 Q1508.44 71.9684 1504.22 72.8596 Q1500.01 73.7508 1495.68 73.7508 Q1484.82 73.7508 1478.46 67.4314 Q1472.14 61.1119 1472.14 50.3365 Q1472.14 39.1965 1478.14 32.6746 Q1484.17 26.1121 1494.38 26.1121 Q1503.54 26.1121 1508.84 32.0264 Q1514.19 37.9003 1514.19 48.0275 M1506.74 45.84 Q1506.65 39.7232 1503.29 36.0774 Q1499.97 32.4315 1494.46 32.4315 Q1488.22 32.4315 1484.46 35.9558 Q1480.73 39.4801 1480.16 45.8805 L1506.74 45.84 Z" fill="#000000" fill-rule="nonzero" fill-opacity="1" /><path clip-path="url(#clip660)" d="M1526.42 9.54393 L1533.88 9.54393 L1533.88 72.576 L1526.42 72.576 L1526.42 9.54393 Z" fill="#000000" fill-rule="nonzero" fill-opacity="1" /><path clip-path="url(#clip660)" d="M1549.47 9.54393 L1556.93 9.54393 L1556.93 72.576 L1549.47 72.576 L1549.47 9.54393 Z" fill="#000000" fill-rule="nonzero" fill-opacity="1" /><path clip-path="url(#clip660)" d="M1601.36 65.6895 L1614.73 65.6895 L1614.73 19.5497 L1600.19 22.4663 L1600.19 15.0127 L1614.65 12.096 L1622.83 12.096 L1622.83 65.6895 L1636.2 65.6895 L1636.2 72.576 L1601.36 72.576 L1601.36 65.6895 Z" fill="#000000" fill-rule="nonzero" fill-opacity="1" /><path clip-path="url(#clip660)" d="M1670.23 17.4837 Q1663.91 17.4837 1660.71 23.7221 Q1657.55 29.92 1657.55 42.3968 Q1657.55 54.833 1660.71 61.0714 Q1663.91 67.2693 1670.23 67.2693 Q1676.59 67.2693 1679.75 61.0714 Q1682.95 54.833 1682.95 42.3968 Q1682.95 29.92 1679.75 23.7221 Q1676.59 17.4837 1670.23 17.4837 M1670.23 11.0023 Q1680.4 11.0023 1685.74 19.0636 Q1691.13 27.0843 1691.13 42.3968 Q1691.13 57.6687 1685.74 65.73 Q1680.4 73.7508 1670.23 73.7508 Q1660.06 73.7508 1654.67 65.73 Q1649.33 57.6687 1649.33 42.3968 Q1649.33 27.0843 1654.67 19.0636 Q1660.06 11.0023 1670.23 11.0023 Z" fill="#000000" fill-rule="nonzero" fill-opacity="1" /><path clip-path="url(#clip660)" d="M1706.93 65.6895 L1720.3 65.6895 L1720.3 19.5497 L1705.76 22.4663 L1705.76 15.0127 L1720.22 12.096 L1728.4 12.096 L1728.4 65.6895 L1741.77 65.6895 L1741.77 72.576 L1706.93 72.576 L1706.93 65.6895 Z" fill="#000000" fill-rule="nonzero" fill-opacity="1" /><path clip-path="url(#clip660)" d="M1783.61 27.2059 L1791.07 27.2059 L1791.07 72.576 L1783.61 72.576 L1783.61 27.2059 M1783.61 9.54393 L1791.07 9.54393 L1791.07 18.9825 L1783.61 18.9825 L1783.61 9.54393 Z" fill="#000000" fill-rule="nonzero" fill-opacity="1" /><path clip-path="url(#clip660)" d="M1814.04 14.324 L1814.04 27.2059 L1829.39 27.2059 L1829.39 32.9987 L1814.04 32.9987 L1814.04 57.6282 Q1814.04 63.1779 1815.54 64.7578 Q1817.08 66.3376 1821.73 66.3376 L1829.39 66.3376 L1829.39 72.576 L1821.73 72.576 Q1813.11 72.576 1809.82 69.3758 Q1806.54 66.1351 1806.54 57.6282 L1806.54 32.9987 L1801.07 32.9987 L1801.07 27.2059 L1806.54 27.2059 L1806.54 14.324 L1814.04 14.324 Z" fill="#000000" fill-rule="nonzero" fill-opacity="1" /><path clip-path="url(#clip660)" d="M1878 48.0275 L1878 51.6733 L1843.73 51.6733 Q1844.22 59.3701 1848.35 63.421 Q1852.52 67.4314 1859.93 67.4314 Q1864.23 67.4314 1868.24 66.3781 Q1872.29 65.3249 1876.26 63.2184 L1876.26 70.267 Q1872.25 71.9684 1868.04 72.8596 Q1863.82 73.7508 1859.49 73.7508 Q1848.63 73.7508 1842.27 67.4314 Q1835.95 61.1119 1835.95 50.3365 Q1835.95 39.1965 1841.95 32.6746 Q1847.98 26.1121 1858.19 26.1121 Q1867.35 26.1121 1872.65 32.0264 Q1878 37.9003 1878 48.0275 M1870.55 45.84 Q1870.47 39.7232 1867.1 36.0774 Q1863.78 32.4315 1858.27 32.4315 Q1852.03 32.4315 1848.27 35.9558 Q1844.54 39.4801 1843.97 45.8805 L1870.55 45.84 Z" fill="#000000" fill-rule="nonzero" fill-opacity="1" /><path clip-path="url(#clip660)" d="M1916.52 34.1734 Q1915.27 33.4443 1913.77 33.1202 Q1912.31 32.7556 1910.53 32.7556 Q1904.21 32.7556 1900.81 36.8875 Q1897.44 40.9789 1897.44 48.6757 L1897.44 72.576 L1889.95 72.576 L1889.95 27.2059 L1897.44 27.2059 L1897.44 34.2544 Q1899.79 30.1225 1903.56 28.1376 Q1907.33 26.1121 1912.72 26.1121 Q1913.49 26.1121 1914.42 26.2337 Q1915.35 26.3147 1916.48 26.5172 L1916.52 34.1734 Z" fill="#000000" fill-rule="nonzero" fill-opacity="1" /><path clip-path="url(#clip660)" d="M1944.96 49.7694 Q1935.93 49.7694 1932.44 51.8354 Q1928.96 53.9013 1928.96 58.8839 Q1928.96 62.8538 1931.55 65.2034 Q1934.19 67.5124 1938.68 67.5124 Q1944.88 67.5124 1948.61 63.1374 Q1952.38 58.7219 1952.38 51.4303 L1952.38 49.7694 L1944.96 49.7694 M1959.83 46.6907 L1959.83 72.576 L1952.38 72.576 L1952.38 65.6895 Q1949.82 69.8214 1946.02 71.8063 Q1942.21 73.7508 1936.7 73.7508 Q1929.73 73.7508 1925.6 69.8619 Q1921.51 65.9325 1921.51 59.3701 Q1921.51 51.7138 1926.61 47.825 Q1931.76 43.9361 1941.92 43.9361 L1952.38 43.9361 L1952.38 43.2069 Q1952.38 38.0623 1948.97 35.2672 Q1945.61 32.4315 1939.49 32.4315 Q1935.6 32.4315 1931.92 33.3632 Q1928.23 34.295 1924.83 36.1584 L1924.83 29.2718 Q1928.92 27.692 1932.77 26.9223 Q1936.62 26.1121 1940.26 26.1121 Q1950.11 26.1121 1954.97 31.2163 Q1959.83 36.3204 1959.83 46.6907 Z" fill="#000000" fill-rule="nonzero" fill-opacity="1" /><path clip-path="url(#clip660)" d="M1982.55 14.324 L1982.55 27.2059 L1997.91 27.2059 L1997.91 32.9987 L1982.55 32.9987 L1982.55 57.6282 Q1982.55 63.1779 1984.05 64.7578 Q1985.59 66.3376 1990.25 66.3376 L1997.91 66.3376 L1997.91 72.576 L1990.25 72.576 Q1981.62 72.576 1978.34 69.3758 Q1975.06 66.1351 1975.06 57.6282 L1975.06 32.9987 L1969.59 32.9987 L1969.59 27.2059 L1975.06 27.2059 L1975.06 14.324 L1982.55 14.324 Z" fill="#000000" fill-rule="nonzero" fill-opacity="1" /><path clip-path="url(#clip660)" d="M2007.71 27.2059 L2015.16 27.2059 L2015.16 72.576 L2007.71 72.576 L2007.71 27.2059 M2007.71 9.54393 L2015.16 9.54393 L2015.16 18.9825 L2007.71 18.9825 L2007.71 9.54393 Z" fill="#000000" fill-rule="nonzero" fill-opacity="1" /><path clip-path="url(#clip660)" d="M2048.34 32.4315 Q2042.35 32.4315 2038.86 37.1306 Q2035.38 41.7891 2035.38 49.9314 Q2035.38 58.0738 2038.82 62.7728 Q2042.31 67.4314 2048.34 67.4314 Q2054.3 67.4314 2057.78 62.7323 Q2061.26 58.0333 2061.26 49.9314 Q2061.26 41.8701 2057.78 37.1711 Q2054.3 32.4315 2048.34 32.4315 M2048.34 26.1121 Q2058.06 26.1121 2063.61 32.4315 Q2069.16 38.7509 2069.16 49.9314 Q2069.16 61.0714 2063.61 67.4314 Q2058.06 73.7508 2048.34 73.7508 Q2038.58 73.7508 2033.03 67.4314 Q2027.52 61.0714 2027.52 49.9314 Q2027.52 38.7509 2033.03 32.4315 Q2038.58 26.1121 2048.34 26.1121 Z" fill="#000000" fill-rule="nonzero" fill-opacity="1" /><path clip-path="url(#clip660)" d="M2119.23 45.1919 L2119.23 72.576 L2111.78 72.576 L2111.78 45.4349 Q2111.78 38.994 2109.27 35.7938 Q2106.76 32.5936 2101.73 32.5936 Q2095.7 32.5936 2092.21 36.4419 Q2088.73 40.2903 2088.73 46.9338 L2088.73 72.576 L2081.23 72.576 L2081.23 27.2059 L2088.73 27.2059 L2088.73 34.2544 Q2091.4 30.163 2095.01 28.1376 Q2098.65 26.1121 2103.39 26.1121 Q2111.21 26.1121 2115.22 30.9732 Q2119.23 35.7938 2119.23 45.1919 Z" fill="#000000" fill-rule="nonzero" fill-opacity="1" /><path clip-path="url(#clip660)" d="M2162.94 65.6895 L2176.31 65.6895 L2176.31 19.5497 L2161.77 22.4663 L2161.77 15.0127 L2176.23 12.096 L2184.41 12.096 L2184.41 65.6895 L2197.78 65.6895 L2197.78 72.576 L2162.94 72.576 L2162.94 65.6895 Z" fill="#000000" fill-rule="nonzero" fill-opacity="1" /><path clip-path="url(#clip660)" d="M2231.81 17.4837 Q2225.49 17.4837 2222.29 23.7221 Q2219.13 29.92 2219.13 42.3968 Q2219.13 54.833 2222.29 61.0714 Q2225.49 67.2693 2231.81 67.2693 Q2238.17 67.2693 2241.33 61.0714 Q2244.53 54.833 2244.53 42.3968 Q2244.53 29.92 2241.33 23.7221 Q2238.17 17.4837 2231.81 17.4837 M2231.81 11.0023 Q2241.97 11.0023 2247.32 19.0636 Q2252.71 27.0843 2252.71 42.3968 Q2252.71 57.6687 2247.32 65.73 Q2241.97 73.7508 2231.81 73.7508 Q2221.64 73.7508 2216.25 65.73 Q2210.9 57.6687 2210.9 42.3968 Q2210.9 27.0843 2216.25 19.0636 Q2221.64 11.0023 2231.81 11.0023 Z" fill="#000000" fill-rule="nonzero" fill-opacity="1" /><polyline clip-path="url(#clip662)" style="stroke:#009af9; stroke-linecap:round; stroke-linejoin:round; stroke-width:4; stroke-opacity:1; fill:none" points="316.512,1386.4 318.491,1380.05 320.47,1379.68 322.449,1379.46 324.428,1375.27 326.407,1374.81 328.386,1374.81 330.365,1373.7 332.343,1373.49 334.322,1373.32 336.301,1371.69 338.28,1371.34 340.259,1369.15 342.238,1368.71 344.217,1368.42 346.196,1368.31 348.175,1367.86 350.154,1366.93 352.133,1366.78 354.111,1366.65 356.09,1365.12 358.069,1364.94 360.048,1363.35 362.027,1361.45 364.006,1361.11 365.985,1360.53 367.964,1359.84 369.943,1359.2 371.922,1358.59 373.901,1358.12 375.88,1358.04 377.858,1357.96 379.837,1356.76 381.816,1355.81 383.795,1355.21 385.774,1353.81 387.753,1353.74 389.732,1350.65 391.711,1350.02 393.69,1348.3 395.669,1348.18 397.648,1348.1 399.627,1347.29 401.605,1347.26 403.584,1346.02 405.563,1345.49 407.542,1345.28 409.521,1344.78 411.5,1344.66 413.479,1344.23 415.458,1343.06 417.437,1342.92 419.416,1342.89 421.395,1342.56 423.373,1342.52 425.352,1342.46 427.331,1342.24 429.31,1342.21 431.289,1342.21 433.268,1342.08 435.247,1341.73 437.226,1341.64 439.205,1341.46 441.184,1341.14 443.163,1340.97 445.142,1340.9 447.12,1340.7 449.099,1340.21 451.078,1339.89 453.057,1339.88 455.036,1339.73 457.015,1339.64 458.994,1338.83 460.973,1338.62 462.952,1338.33 464.931,1338.19 466.91,1338.19 468.889,1338.03 470.867,1337.98 472.846,1337.77 474.825,1337.2 476.804,1336.84 478.783,1336.78 480.762,1336.17 482.741,1336.16 484.72,1335.7 486.699,1335.38 488.678,1335.3 490.657,1335.25 492.636,1334.39 494.614,1333.76 496.593,1333.69 498.572,1332.08 500.551,1331.54 502.53,1331.33 504.509,1331.19 506.488,1331.18 508.467,1330.77 510.446,1330.73 512.425,1330.52 514.404,1330.23 516.382,1330.04 518.361,1329.55 520.34,1329.25 522.319,1329.1 524.298,1328.75 526.277,1328.42 528.256,1328.36 530.235,1328.13 532.214,1328.13 534.193,1325.87 536.172,1325.8 538.151,1325.61 540.129,1325.37 542.108,1325.03 544.087,1324.7 546.066,1324.41 548.045,1324.05 550.024,1324.03 552.003,1323.86 553.982,1323.86 555.961,1322.42 557.94,1322.18 559.919,1321.77 561.898,1321.65 563.876,1321.41 565.855,1320.56 567.834,1320.54 569.813,1320.46 571.792,1319.99 573.771,1319.85 575.75,1319.84 577.729,1319.29 579.708,1318.94 581.687,1318.92 583.666,1318.89 585.644,1318.88 587.623,1318.86 589.602,1318.72 591.581,1318.53 593.56,1317.72 595.539,1317.43 597.518,1316.99 599.497,1316.71 601.476,1316.31 603.455,1315.47 605.434,1315.25 607.413,1315.17 609.391,1314.83 611.37,1314.73 613.349,1314.25 615.328,1313.92 617.307,1313.82 619.286,1313.54 621.265,1313.53 623.244,1313.38 625.223,1313.11 627.202,1313.08 629.181,1312.54 631.16,1312.33 633.138,1312.01 635.117,1311.82 637.096,1311.59 639.075,1311.32 641.054,1310.82 643.033,1310.5 645.012,1310.37 646.991,1309.74 648.97,1309.68 650.949,1309.33 652.928,1309.16 654.907,1309.08 656.885,1307.68 658.864,1307.28 660.843,1307.22 662.822,1307.12 664.801,1306.99 666.78,1306.42 668.759,1306.27 670.738,1305.98 672.717,1305.84 674.696,1305.17 676.675,1305.06 678.653,1305.06 680.632,1304.68 682.611,1304.22 684.59,1304.2 686.569,1302.75 688.548,1302.53 690.527,1302.43 692.506,1302.25 694.485,1302.21 696.464,1302 698.443,1301.31 700.422,1301.15 702.4,1300.33 704.379,1299.39 706.358,1298.82 708.337,1298.12 710.316,1297.63 712.295,1297.33 714.274,1295.91 716.253,1295.8 718.232,1295.55 720.211,1295.55 722.19,1295.41 724.169,1295 726.147,1294.97 728.126,1294.87 730.105,1294.81 732.084,1294.74 734.063,1294.12 736.042,1294.05 738.021,1293.65 740,1293.25 741.979,1293.19 743.958,1291.8 745.937,1290.51 747.915,1287.54 749.894,1287.23 751.873,1286.74 753.852,1286.37 755.831,1286.17 757.81,1284.89 759.789,1283.94 761.768,1283.88 763.747,1283.64 765.726,1283.36 767.705,1283.2 769.684,1282.65 771.662,1279.57 773.641,1279.08 775.62,1278.68 777.599,1276.89 779.578,1276.13 781.557,1274.46 783.536,1274.17 785.515,1273.29 787.494,1272.98 789.473,1272.03 791.452,1271.7 793.431,1268.74 795.409,1263.26 797.388,1262.9 799.367,1249.01 801.346,1235.26 803.325,1230.9 805.304,1226.99 807.283,1213.44 809.262,1212.94 811.241,1020.91 813.22,962.528 815.199,935.218 817.178,931.882 819.156,921.198 821.135,914.95 823.114,909.514 825.093,894.433 827.072,890.544 829.051,889.539 831.03,889.272 833.009,888.901 834.988,888.586 836.967,887.91 838.946,885.352 840.924,882.642 842.903,882.435 844.882,881.607 846.861,879.443 848.84,878.894 850.819,876.35 852.798,875.884 854.777,874.213 856.756,873.785 858.735,872.234 860.714,871.16 862.693,869.522 864.671,869.278 866.65,867.998 868.629,862.995 870.608,862.984 872.587,862.919 874.566,862.337 876.545,861.088 878.524,860.63 880.503,860.155 882.482,857.861 884.461,857.172 886.44,856.599 888.418,856.147 890.397,856.097 892.376,855.082 894.355,854.364 896.334,852.904 898.313,852.861 900.292,847.786 902.271,847.145 904.25,846.56 906.229,846.555 908.208,845.605 910.186,844.726 912.165,844.281 914.144,843.752 916.123,842.834 918.102,842.722 920.081,842.447 922.06,840.969 924.039,840.186 926.018,837.583 927.997,835.294 929.976,834.602 931.955,832.369 933.933,830.471 935.912,830.132 937.891,829.517 939.87,829.05 941.849,828.638 943.828,828.6 945.807,828.583 947.786,828.546 949.765,828.037 951.744,827.297 953.723,825.558 955.702,824.641 957.68,824.197 959.659,824 961.638,823.953 963.617,820.426 965.596,819.637 967.575,819.497 969.554,817.718 971.533,816.642 973.512,814.98 975.491,814.703 977.47,814.702 979.449,813.195 981.427,812.641 983.406,812.418 985.385,811.468 987.364,810.933 989.343,810.841 991.322,810.805 993.301,810.261 995.28,808.506 997.259,808.028 999.238,807.698 1001.22,807.111 1003.2,806.626 1005.17,806.445 1007.15,805.628 1009.13,804.843 1011.11,804.117 1013.09,804.069 1015.07,803.29 1017.05,802.666 1019.03,801.833 1021.01,801.701 1022.98,800.665 1024.96,800.146 1026.94,799.96 1028.92,799.84 1030.9,799.1 1032.88,796.465 1034.86,796.012 1036.84,795.017 1038.82,794.89 1040.79,794.094 1042.77,792.866 1044.75,791.816 1046.73,790.619 1048.71,790.065 1050.69,789.907 1052.67,789.087 1054.65,789.005 1056.63,788.912 1058.61,788.87 1060.58,788.724 1062.56,788.408 1064.54,787.524 1066.52,786.216 1068.5,785.242 1070.48,785.22 1072.46,784.786 1074.44,784.538 1076.42,783.547 1078.39,782.571 1080.37,782.488 1082.35,782.199 1084.33,782.086 1086.31,781.74 1088.29,781.419 1090.27,780.994 1092.25,780.679 1094.23,780.401 1096.2,780.122 1098.18,779.228 1100.16,779.221 1102.14,779.144 1104.12,778.441 1106.1,778.391 1108.08,777.902 1110.06,777.75 1112.04,777.323 1114.01,777.197 1115.99,777.175 1117.97,776.24 1119.95,774.043 1121.93,773.854 1123.91,773.729 1125.89,771.693 1127.87,771.641 1129.85,770.445 1131.82,769.652 1133.8,769.537 1135.78,769.44 1137.76,768.51 1139.74,767.839 1141.72,767.703 1143.7,767.678 1145.68,767.609 1147.66,767.396 1149.64,766.869 1151.61,766.858 1153.59,766.692 1155.57,765.956 1157.55,765.295 1159.53,764.945 1161.51,764.531 1163.49,764.354 1165.47,763.874 1167.45,763.157 1169.42,762.681 1171.4,762.583 1173.38,762.264 1175.36,762.251 1177.34,761.698 1179.32,761.273 1181.3,760.885 1183.28,760.586 1185.26,760.11 1187.23,760.034 1189.21,758.352 1191.19,757.72 1193.17,757.708 1195.15,757.245 1197.13,757.085 1199.11,756.343 1201.09,755.744 1203.07,755.557 1205.04,755.088 1207.02,754.358 1209,754.331 1210.98,752.825 1212.96,751.774 1214.94,750.6 1216.92,749.8 1218.9,749.778 1220.88,748.638 1222.86,747.941 1224.83,747.874 1226.81,747.707 1228.79,746.877 1230.77,746.632 1232.75,746.445 1234.73,745.85 1236.71,745.275 1238.69,743.812 1240.67,743.093 1242.64,743.013 1244.62,741.619 1246.6,741.494 1248.58,741.392 1250.56,741.388 1252.54,740.364 1254.52,740.33 1256.5,740.133 1258.48,740.117 1260.45,739.904 1262.43,739.824 1264.41,739.821 1266.39,739.745 1268.37,738.936 1270.35,738.378 1272.33,738.34 1274.31,737.766 1276.29,737.692 1278.26,737.572 1280.24,737.538 1282.22,737.376 1284.2,737.294 1286.18,736.695 1288.16,736.213 1290.14,735.851 1292.12,735.538 1294.1,735.492 1296.07,735.125 1298.05,734.58 1300.03,734.439 1302.01,734.2 1303.99,733.854 1305.97,733.475 1307.95,733.325 1309.93,733.263 1311.91,733.251 1313.89,733.203 1315.86,733.035 1317.84,732.827 1319.82,732.824 1321.8,732.344 1323.78,731.412 1325.76,730.907 1327.74,730.796 1329.72,730.641 1331.7,728.984 1333.67,728.565 1335.65,727.598 1337.63,726.489 1339.61,726.264 1341.59,725.771 1343.57,725.636 1345.55,725.542 1347.53,724.523 1349.51,724.496 1351.48,724.338 1353.46,723.558 1355.44,723.426 1357.42,723.013 1359.4,721.984 1361.38,721.31 1363.36,720.545 1365.34,720.456 1367.32,720.434 1369.29,719.529 1371.27,719.34 1373.25,718.737 1375.23,718.307 1377.21,718.051 1379.19,718.009 1381.17,716.995 1383.15,716.935 1385.13,715.65 1387.1,715.537 1389.08,715.152 1391.06,714.846 1393.04,714.442 1395.02,714.394 1397,714.322 1398.98,714.199 1400.96,714.12 1402.94,714.036 1404.92,714.033 1406.89,711.967 1408.87,711.267 1410.85,711.239 1412.83,710.665 1414.81,710.161 1416.79,709.538 1418.77,708.995 1420.75,708.329 1422.73,707.314 1424.7,705.868 1426.68,705.73 1428.66,705.698 1430.64,704.298 1432.62,703.636 1434.6,703.617 1436.58,703.235 1438.56,702.8 1440.54,702.299 1442.51,702.042 1444.49,700.534 1446.47,700.427 1448.45,699.46 1450.43,699.367 1452.41,698.151 1454.39,698.053 1456.37,697.944 1458.35,697.315 1460.32,696.631 1462.3,696.332 1464.28,696.159 1466.26,696.074 1468.24,695.801 1470.22,695.416 1472.2,695.289 1474.18,694.472 1476.16,693.821 1478.13,693.65 1480.11,693.615 1482.09,693.556 1484.07,693.274 1486.05,692.207 1488.03,691.823 1490.01,691.598 1491.99,691.549 1493.97,691.331 1495.95,691.189 1497.92,691.112 1499.9,690.78 1501.88,690.637 1503.86,690.444 1505.84,690.417 1507.82,690.213 1509.8,689.923 1511.78,689.72 1513.76,689.645 1515.73,689.017 1517.71,688.97 1519.69,688.882 1521.67,688.806 1523.65,688.773 1525.63,688.59 1527.61,688.269 1529.59,688.166 1531.57,687.291 1533.54,687.087 1535.52,687.003 1537.5,686.776 1539.48,686.463 1541.46,686.269 1543.44,686.07 1545.42,685.986 1547.4,685.535 1549.38,685.259 1551.35,683.994 1553.33,683.863 1555.31,683.685 1557.29,682.414 1559.27,682.117 1561.25,682.071 1563.23,681.921 1565.21,681.716 1567.19,680.708 1569.17,680.645 1571.14,679.791 1573.12,679.37 1575.1,678.869 1577.08,678.706 1579.06,678.552 1581.04,678.303 1583.02,677.651 1585,677.33 1586.98,677.305 1588.95,677.232 1590.93,676.674 1592.91,676.231 1594.89,675.827 1596.87,675.256 1598.85,674.213 1600.83,674.163 1602.81,673.326 1604.79,672.783 1606.76,672.643 1608.74,672.168 1610.72,670.854 1612.7,670.576 1614.68,670.504 1616.66,670.412 1618.64,669.527 1620.62,669.488 1622.6,669.225 1624.57,668.965 1626.55,668.911 1628.53,668.706 1630.51,668.234 1632.49,667.146 1634.47,665.767 1636.45,665.041 1638.43,664.894 1640.41,664.465 1642.38,664.378 1644.36,663.931 1646.34,663.599 1648.32,663.303 1650.3,663.064 1652.28,662.585 1654.26,662.271 1656.24,662.027 1658.22,661.854 1660.2,661.845 1662.17,661.667 1664.15,661.395 1666.13,659.562 1668.11,659.378 1670.09,658.616 1672.07,658.016 1674.05,657.989 1676.03,657.044 1678.01,656.369 1679.98,656.078 1681.96,656.04 1683.94,655.983 1685.92,655.746 1687.9,654.992 1689.88,654.491 1691.86,654.051 1693.84,653.236 1695.82,652.574 1697.79,651.582 1699.77,651.452 1701.75,651.331 1703.73,651.2 1705.71,650.921 1707.69,650.858 1709.67,650.693 1711.65,650.393 1713.63,649.402 1715.6,649.309 1717.58,648.554 1719.56,647.602 1721.54,647.289 1723.52,647.058 1725.5,646.683 1727.48,645.562 1729.46,645.349 1731.44,644.847 1733.41,643.866 1735.39,639.403 1737.37,638.678 1739.35,638.07 1741.33,637.932 1743.31,637.039 1745.29,636.954 1747.27,636.75 1749.25,636.324 1751.23,635.935 1753.2,635.792 1755.18,635.697 1757.16,634.139 1759.14,631.949 1761.12,631.538 1763.1,631.053 1765.08,631.034 1767.06,630.62 1769.04,629.465 1771.01,628.199 1772.99,626.906 1774.97,626.384 1776.95,625.82 1778.93,624.945 1780.91,624.408 1782.89,619.803 1784.87,619.553 1786.85,617.437 1788.82,615.691 1790.8,612.975 1792.78,612.916 1794.76,612.226 1796.74,608.343 1798.72,599.738 1800.7,583.998 1802.68,435.708 1804.66,415.082 1806.63,414.591 1808.61,413.229 1810.59,412.378 1812.57,409.41 1814.55,400.516 1816.53,399.728 1818.51,399.132 1820.49,395.462 1822.47,390.597 1824.45,390.482 1826.42,385.614 1828.4,378.626 1830.38,375.086 1832.36,371.967 1834.34,367.654 1836.32,365.195 1838.3,364.71 1840.28,364.521 1842.26,363.488 1844.23,362.759 1846.21,362.483 1848.19,361.73 1850.17,360.579 1852.15,360.097 1854.13,359.368 1856.11,356.444 1858.09,355.586 1860.07,354.917 1862.04,351.46 1864.02,349.9 1866,347.835 1867.98,346.65 1869.96,344.565 1871.94,344.404 1873.92,344.38 1875.9,342.362 1877.88,342.003 1879.85,341.328 1881.83,340.828 1883.81,340.541 1885.79,340.226 1887.77,338.228 1889.75,337.972 1891.73,337.967 1893.71,337.602 1895.69,336.957 1897.66,336.341 1899.64,336.145 1901.62,335.319 1903.6,334.864 1905.58,333.673 1907.56,333.568 1909.54,332.968 1911.52,332.517 1913.5,331.549 1915.48,331.506 1917.45,331.01 1919.43,330.576 1921.41,330.416 1923.39,330.219 1925.37,330.034 1927.35,329.778 1929.33,329.393 1931.31,328.915 1933.29,328.91 1935.26,327.955 1937.24,327.68 1939.22,325.28 1941.2,324.915 1943.18,323.201 1945.16,322.302 1947.14,320.96 1949.12,320.634 1951.1,320.335 1953.07,319.644 1955.05,318.775 1957.03,318.562 1959.01,318.456 1960.99,318.448 1962.97,318.224 1964.95,318.157 1966.93,317.424 1968.91,316.576 1970.88,316.497 1972.86,315.272 1974.84,314.027 1976.82,313.356 1978.8,311.983 1980.78,311.453 1982.76,311.218 1984.74,310.945 1986.72,310.837 1988.69,310.777 1990.67,310.414 1992.65,309.681 1994.63,309.183 1996.61,308.667 1998.59,307.327 2000.57,306.915 2002.55,306.891 2004.53,306.865 2006.51,306.675 2008.48,305.048 2010.46,304.874 2012.44,303.02 2014.42,302.445 2016.4,301.567 2018.38,300.072 2020.36,299.928 2022.34,299.07 2024.32,298.45 2026.29,297.634 2028.27,297.609 2030.25,297.143 2032.23,296.986 2034.21,296.884 2036.19,296.679 2038.17,296.564 2040.15,296.514 2042.13,296.251 2044.1,295.74 2046.08,295.102 2048.06,294.614 2050.04,294.605 2052.02,293.447 2054,293.242 2055.98,293.021 2057.96,292.898 2059.94,292.094 2061.91,291.941 2063.89,291.405 2065.87,290.812 2067.85,290.348 2069.83,290.257 2071.81,289.255 2073.79,287.683 2075.77,287.637 2077.75,287.491 2079.73,287.352 2081.7,287.208 2083.68,287.2 2085.66,286.811 2087.64,286.098 2089.62,285.284 2091.6,285.231 2093.58,284.96 2095.56,283.635 2097.54,283.5 2099.51,282.712 2101.49,282.624 2103.47,282.49 2105.45,282.008 2107.43,281.765 2109.41,281.458 2111.39,281.182 2113.37,281.05 2115.35,280.627 2117.32,280.43 2119.3,280.374 2121.28,280.31 2123.26,278.926 2125.24,278.79 2127.22,278.647 2129.2,278.641 2131.18,278.418 2133.16,277.332 2135.13,274.708 2137.11,274.36 2139.09,272.412 2141.07,272.345 2143.05,272.339 2145.03,271.241 2147.01,271.039 2148.99,270.897 2150.97,270.728 2152.94,270.614 2154.92,270.609 2156.9,270.205 2158.88,270.167 2160.86,269.814 2162.84,269.805 2164.82,269.104 2166.8,268.143 2168.78,267.955 2170.76,266.802 2172.73,266.282 2174.71,265.738 2176.69,265.249 2178.67,265.222 2180.65,264.688 2182.63,264.284 2184.61,264.144 2186.59,262.731 2188.57,262.665 2190.54,262.476 2192.52,262.039 2194.5,261.861 2196.48,260.909 2198.46,260.907 2200.44,260.645 2202.42,260.057 2204.4,259.843 2206.38,259.749 2208.35,258.536 2210.33,258.503 2212.31,258.424 2214.29,257.297 2216.27,256.912 2218.25,256.748 2220.23,255.859 2222.21,255.674 2224.19,254.605 2226.16,253.781 2228.14,252.932 2230.12,252.268 2232.1,252.011 2234.08,250.435 2236.06,250.411 2238.04,249.125 2240.02,246.739 2242,246.673 2243.97,246.566 2245.95,245.175 2247.93,245.054 2249.91,243.573 2251.89,238.578 2253.87,237.055 2255.85,236.539 2257.83,234.751 2259.81,232.766 2261.79,231.126 2263.76,230.276 2265.74,230.195 2267.72,226.462 2269.7,225.29 2271.68,224.147 2273.66,223.093 2275.64,220.735 2277.62,218.452 2279.6,216.919 2281.57,215.082 2283.55,206.002 2285.53,202.73 2287.51,202.344 2289.49,193.133 2291.47,188.956 2293.45,160.256 "/>
<path clip-path="url(#clip660)" d="M327.056 270.476 L756.216 270.476 L756.216 166.796 L327.056 166.796  Z" fill="#ffffff" fill-rule="evenodd" fill-opacity="1"/>
<polyline clip-path="url(#clip660)" style="stroke:#000000; stroke-linecap:round; stroke-linejoin:round; stroke-width:4; stroke-opacity:1; fill:none" points="327.056,270.476 756.216,270.476 756.216,166.796 327.056,166.796 327.056,270.476 "/>
<polyline clip-path="url(#clip660)" style="stroke:#009af9; stroke-linecap:round; stroke-linejoin:round; stroke-width:4; stroke-opacity:1; fill:none" points="350.34,218.636 490.043,218.636 "/>
<path clip-path="url(#clip660)" d="M535.572 202.49 L535.572 207.05 Q532.91 205.777 530.549 205.152 Q528.188 204.527 525.989 204.527 Q522.17 204.527 520.086 206.008 Q518.026 207.49 518.026 210.221 Q518.026 212.513 519.392 213.694 Q520.781 214.851 524.623 215.569 L527.447 216.147 Q532.679 217.143 535.156 219.666 Q537.656 222.166 537.656 226.379 Q537.656 231.402 534.276 233.994 Q530.92 236.587 524.415 236.587 Q521.961 236.587 519.183 236.031 Q516.429 235.476 513.466 234.388 L513.466 229.573 Q516.313 231.17 519.045 231.981 Q521.776 232.791 524.415 232.791 Q528.42 232.791 530.595 231.217 Q532.771 229.643 532.771 226.726 Q532.771 224.18 531.197 222.744 Q529.646 221.309 526.082 220.592 L523.234 220.036 Q518.003 218.995 515.665 216.772 Q513.327 214.55 513.327 210.592 Q513.327 206.008 516.545 203.37 Q519.785 200.731 525.457 200.731 Q527.887 200.731 530.41 201.171 Q532.933 201.61 535.572 202.49 Z" fill="#000000" fill-rule="nonzero" fill-opacity="1" /><path clip-path="url(#clip660)" d="M544.762 209.99 L549.021 209.99 L549.021 235.916 L544.762 235.916 L544.762 209.99 M544.762 199.897 L549.021 199.897 L549.021 205.291 L544.762 205.291 L544.762 199.897 Z" fill="#000000" fill-rule="nonzero" fill-opacity="1" /><path clip-path="url(#clip660)" d="M578.118 214.967 Q579.716 212.096 581.938 210.731 Q584.16 209.365 587.169 209.365 Q591.22 209.365 593.419 212.212 Q595.618 215.036 595.618 220.268 L595.618 235.916 L591.336 235.916 L591.336 220.407 Q591.336 216.68 590.016 214.874 Q588.697 213.069 585.989 213.069 Q582.679 213.069 580.757 215.268 Q578.836 217.467 578.836 221.263 L578.836 235.916 L574.554 235.916 L574.554 220.407 Q574.554 216.657 573.234 214.874 Q571.915 213.069 569.16 213.069 Q565.896 213.069 563.975 215.291 Q562.054 217.49 562.054 221.263 L562.054 235.916 L557.771 235.916 L557.771 209.99 L562.054 209.99 L562.054 214.018 Q563.512 211.633 565.549 210.499 Q567.586 209.365 570.387 209.365 Q573.211 209.365 575.179 210.8 Q577.169 212.235 578.118 214.967 Z" fill="#000000" fill-rule="nonzero" fill-opacity="1" /><path clip-path="url(#clip660)" d="M604.114 209.99 L608.373 209.99 L608.373 235.916 L604.114 235.916 L604.114 209.99 M604.114 199.897 L608.373 199.897 L608.373 205.291 L604.114 205.291 L604.114 199.897 Z" fill="#000000" fill-rule="nonzero" fill-opacity="1" /><path clip-path="url(#clip660)" d="M617.285 199.897 L621.544 199.897 L621.544 235.916 L617.285 235.916 L617.285 199.897 Z" fill="#000000" fill-rule="nonzero" fill-opacity="1" /><path clip-path="url(#clip660)" d="M642.238 222.883 Q637.076 222.883 635.086 224.064 Q633.095 225.244 633.095 228.092 Q633.095 230.36 634.576 231.703 Q636.081 233.022 638.65 233.022 Q642.192 233.022 644.322 230.522 Q646.474 227.999 646.474 223.832 L646.474 222.883 L642.238 222.883 M650.734 221.124 L650.734 235.916 L646.474 235.916 L646.474 231.981 Q645.016 234.342 642.84 235.476 Q640.664 236.587 637.516 236.587 Q633.535 236.587 631.174 234.365 Q628.836 232.119 628.836 228.369 Q628.836 223.994 631.752 221.772 Q634.692 219.55 640.502 219.55 L646.474 219.55 L646.474 219.133 Q646.474 216.194 644.53 214.596 Q642.609 212.976 639.113 212.976 Q636.891 212.976 634.785 213.508 Q632.678 214.041 630.734 215.106 L630.734 211.17 Q633.072 210.268 635.271 209.828 Q637.47 209.365 639.553 209.365 Q645.178 209.365 647.956 212.282 Q650.734 215.198 650.734 221.124 Z" fill="#000000" fill-rule="nonzero" fill-opacity="1" /><path clip-path="url(#clip660)" d="M674.53 213.971 Q673.812 213.555 672.956 213.37 Q672.122 213.161 671.104 213.161 Q667.493 213.161 665.548 215.522 Q663.627 217.86 663.627 222.258 L663.627 235.916 L659.345 235.916 L659.345 209.99 L663.627 209.99 L663.627 214.018 Q664.97 211.657 667.123 210.522 Q669.275 209.365 672.354 209.365 Q672.794 209.365 673.326 209.434 Q673.859 209.481 674.507 209.596 L674.53 213.971 Z" fill="#000000" fill-rule="nonzero" fill-opacity="1" /><path clip-path="url(#clip660)" d="M678.997 209.99 L683.257 209.99 L683.257 235.916 L678.997 235.916 L678.997 209.99 M678.997 199.897 L683.257 199.897 L683.257 205.291 L678.997 205.291 L678.997 199.897 Z" fill="#000000" fill-rule="nonzero" fill-opacity="1" /><path clip-path="url(#clip660)" d="M696.382 202.629 L696.382 209.99 L705.155 209.99 L705.155 213.3 L696.382 213.3 L696.382 227.374 Q696.382 230.545 697.238 231.448 Q698.118 232.351 700.78 232.351 L705.155 232.351 L705.155 235.916 L700.78 235.916 Q695.849 235.916 693.974 234.087 Q692.099 232.235 692.099 227.374 L692.099 213.3 L688.974 213.3 L688.974 209.99 L692.099 209.99 L692.099 202.629 L696.382 202.629 Z" fill="#000000" fill-rule="nonzero" fill-opacity="1" /><path clip-path="url(#clip660)" d="M721.544 238.323 Q719.738 242.953 718.025 244.365 Q716.312 245.777 713.442 245.777 L710.039 245.777 L710.039 242.212 L712.539 242.212 Q714.298 242.212 715.27 241.379 Q716.243 240.545 717.423 237.443 L718.187 235.499 L707.701 209.99 L712.215 209.99 L720.317 230.268 L728.418 209.99 L732.932 209.99 L721.544 238.323 Z" fill="#000000" fill-rule="nonzero" fill-opacity="1" /></svg>
