<?xml version="1.0" encoding="utf-8"?>
<svg xmlns="http://www.w3.org/2000/svg" xmlns:xlink="http://www.w3.org/1999/xlink" width="600" height="400" viewBox="0 0 2400 1600">
<defs>
  <clipPath id="clip090">
    <rect x="0" y="0" width="2400" height="1600"/>
  </clipPath>
</defs>
<path clip-path="url(#clip090)" d="M0 1600 L2400 1600 L2400 8.88178e-14 L0 8.88178e-14  Z" fill="#ffffff" fill-rule="evenodd" fill-opacity="1"/>
<defs>
  <clipPath id="clip091">
    <rect x="480" y="0" width="1681" height="1600"/>
  </clipPath>
</defs>
<path clip-path="url(#clip090)" d="M287.366 1423.18 L2352.76 1423.18 L2352.76 123.472 L287.366 123.472  Z" fill="#ffffff" fill-rule="evenodd" fill-opacity="1"/>
<defs>
  <clipPath id="clip092">
    <rect x="287" y="123" width="2066" height="1301"/>
  </clipPath>
</defs>
<polyline clip-path="url(#clip092)" style="stroke:#000000; stroke-linecap:round; stroke-linejoin:round; stroke-width:2; stroke-opacity:0.1; fill:none" points="343.87,1423.18 343.87,123.472 "/>
<polyline clip-path="url(#clip092)" style="stroke:#000000; stroke-linecap:round; stroke-linejoin:round; stroke-width:2; stroke-opacity:0.1; fill:none" points="831.478,1423.18 831.478,123.472 "/>
<polyline clip-path="url(#clip092)" style="stroke:#000000; stroke-linecap:round; stroke-linejoin:round; stroke-width:2; stroke-opacity:0.1; fill:none" points="1319.09,1423.18 1319.09,123.472 "/>
<polyline clip-path="url(#clip092)" style="stroke:#000000; stroke-linecap:round; stroke-linejoin:round; stroke-width:2; stroke-opacity:0.1; fill:none" points="1806.69,1423.18 1806.69,123.472 "/>
<polyline clip-path="url(#clip092)" style="stroke:#000000; stroke-linecap:round; stroke-linejoin:round; stroke-width:2; stroke-opacity:0.1; fill:none" points="2294.3,1423.18 2294.3,123.472 "/>
<polyline clip-path="url(#clip090)" style="stroke:#000000; stroke-linecap:round; stroke-linejoin:round; stroke-width:4; stroke-opacity:1; fill:none" points="287.366,1423.18 2352.76,1423.18 "/>
<polyline clip-path="url(#clip090)" style="stroke:#000000; stroke-linecap:round; stroke-linejoin:round; stroke-width:4; stroke-opacity:1; fill:none" points="343.87,1423.18 343.87,1404.28 "/>
<polyline clip-path="url(#clip090)" style="stroke:#000000; stroke-linecap:round; stroke-linejoin:round; stroke-width:4; stroke-opacity:1; fill:none" points="831.478,1423.18 831.478,1404.28 "/>
<polyline clip-path="url(#clip090)" style="stroke:#000000; stroke-linecap:round; stroke-linejoin:round; stroke-width:4; stroke-opacity:1; fill:none" points="1319.09,1423.18 1319.09,1404.28 "/>
<polyline clip-path="url(#clip090)" style="stroke:#000000; stroke-linecap:round; stroke-linejoin:round; stroke-width:4; stroke-opacity:1; fill:none" points="1806.69,1423.18 1806.69,1404.28 "/>
<polyline clip-path="url(#clip090)" style="stroke:#000000; stroke-linecap:round; stroke-linejoin:round; stroke-width:4; stroke-opacity:1; fill:none" points="2294.3,1423.18 2294.3,1404.28 "/>
<path clip-path="url(#clip090)" d="M343.87 1454.1 Q340.259 1454.1 338.43 1457.66 Q336.625 1461.2 336.625 1468.33 Q336.625 1475.44 338.43 1479.01 Q340.259 1482.55 343.87 1482.55 Q347.504 1482.55 349.31 1479.01 Q351.138 1475.44 351.138 1468.33 Q351.138 1461.2 349.31 1457.66 Q347.504 1454.1 343.87 1454.1 M343.87 1450.39 Q349.68 1450.39 352.736 1455 Q355.814 1459.58 355.814 1468.33 Q355.814 1477.06 352.736 1481.67 Q349.68 1486.25 343.87 1486.25 Q338.06 1486.25 334.981 1481.67 Q331.926 1477.06 331.926 1468.33 Q331.926 1459.58 334.981 1455 Q338.06 1450.39 343.87 1450.39 Z" fill="#000000" fill-rule="nonzero" fill-opacity="1" /><path clip-path="url(#clip090)" d="M795.17 1481.64 L811.489 1481.64 L811.489 1485.58 L789.545 1485.58 L789.545 1481.64 Q792.207 1478.89 796.79 1474.26 Q801.397 1469.61 802.577 1468.27 Q804.823 1465.74 805.702 1464.01 Q806.605 1462.25 806.605 1460.56 Q806.605 1457.8 804.661 1456.07 Q802.74 1454.33 799.638 1454.33 Q797.439 1454.33 794.985 1455.09 Q792.554 1455.86 789.777 1457.41 L789.777 1452.69 Q792.601 1451.55 795.054 1450.97 Q797.508 1450.39 799.545 1450.39 Q804.915 1450.39 808.11 1453.08 Q811.304 1455.77 811.304 1460.26 Q811.304 1462.39 810.494 1464.31 Q809.707 1466.2 807.601 1468.8 Q807.022 1469.47 803.92 1472.69 Q800.818 1475.88 795.17 1481.64 Z" fill="#000000" fill-rule="nonzero" fill-opacity="1" /><path clip-path="url(#clip090)" d="M821.351 1451.02 L839.707 1451.02 L839.707 1454.96 L825.633 1454.96 L825.633 1463.43 Q826.651 1463.08 827.67 1462.92 Q828.688 1462.73 829.707 1462.73 Q835.494 1462.73 838.874 1465.9 Q842.253 1469.08 842.253 1474.49 Q842.253 1480.07 838.781 1483.17 Q835.309 1486.25 828.989 1486.25 Q826.813 1486.25 824.545 1485.88 Q822.3 1485.51 819.892 1484.77 L819.892 1480.07 Q821.976 1481.2 824.198 1481.76 Q826.42 1482.32 828.897 1482.32 Q832.901 1482.32 835.239 1480.21 Q837.577 1478.1 837.577 1474.49 Q837.577 1470.88 835.239 1468.77 Q832.901 1466.67 828.897 1466.67 Q827.022 1466.67 825.147 1467.08 Q823.295 1467.5 821.351 1468.38 L821.351 1451.02 Z" fill="#000000" fill-rule="nonzero" fill-opacity="1" /><path clip-path="url(#clip090)" d="M861.466 1454.1 Q857.855 1454.1 856.026 1457.66 Q854.221 1461.2 854.221 1468.33 Q854.221 1475.44 856.026 1479.01 Q857.855 1482.55 861.466 1482.55 Q865.1 1482.55 866.906 1479.01 Q868.735 1475.44 868.735 1468.33 Q868.735 1461.2 866.906 1457.66 Q865.1 1454.1 861.466 1454.1 M861.466 1450.39 Q867.276 1450.39 870.332 1455 Q873.41 1459.58 873.41 1468.33 Q873.41 1477.06 870.332 1481.67 Q867.276 1486.25 861.466 1486.25 Q855.656 1486.25 852.577 1481.67 Q849.522 1477.06 849.522 1468.33 Q849.522 1459.58 852.577 1455 Q855.656 1450.39 861.466 1450.39 Z" fill="#000000" fill-rule="nonzero" fill-opacity="1" /><path clip-path="url(#clip090)" d="M1278.7 1451.02 L1297.06 1451.02 L1297.06 1454.96 L1282.99 1454.96 L1282.99 1463.43 Q1284 1463.08 1285.02 1462.92 Q1286.04 1462.73 1287.06 1462.73 Q1292.85 1462.73 1296.23 1465.9 Q1299.61 1469.08 1299.61 1474.49 Q1299.61 1480.07 1296.13 1483.17 Q1292.66 1486.25 1286.34 1486.25 Q1284.17 1486.25 1281.9 1485.88 Q1279.65 1485.51 1277.25 1484.77 L1277.25 1480.07 Q1279.33 1481.2 1281.55 1481.76 Q1283.77 1482.32 1286.25 1482.32 Q1290.25 1482.32 1292.59 1480.21 Q1294.93 1478.1 1294.93 1474.49 Q1294.93 1470.88 1292.59 1468.77 Q1290.25 1466.67 1286.25 1466.67 Q1284.38 1466.67 1282.5 1467.08 Q1280.65 1467.5 1278.7 1468.38 L1278.7 1451.02 Z" fill="#000000" fill-rule="nonzero" fill-opacity="1" /><path clip-path="url(#clip090)" d="M1318.82 1454.1 Q1315.21 1454.1 1313.38 1457.66 Q1311.57 1461.2 1311.57 1468.33 Q1311.57 1475.44 1313.38 1479.01 Q1315.21 1482.55 1318.82 1482.55 Q1322.45 1482.55 1324.26 1479.01 Q1326.09 1475.44 1326.09 1468.33 Q1326.09 1461.2 1324.26 1457.66 Q1322.45 1454.1 1318.82 1454.1 M1318.82 1450.39 Q1324.63 1450.39 1327.69 1455 Q1330.76 1459.58 1330.76 1468.33 Q1330.76 1477.06 1327.69 1481.67 Q1324.63 1486.25 1318.82 1486.25 Q1313.01 1486.25 1309.93 1481.67 Q1306.88 1477.06 1306.88 1468.33 Q1306.88 1459.58 1309.93 1455 Q1313.01 1450.39 1318.82 1450.39 Z" fill="#000000" fill-rule="nonzero" fill-opacity="1" /><path clip-path="url(#clip090)" d="M1348.98 1454.1 Q1345.37 1454.1 1343.54 1457.66 Q1341.74 1461.2 1341.74 1468.33 Q1341.74 1475.44 1343.54 1479.01 Q1345.37 1482.55 1348.98 1482.55 Q1352.62 1482.55 1354.42 1479.01 Q1356.25 1475.44 1356.25 1468.33 Q1356.25 1461.2 1354.42 1457.66 Q1352.62 1454.1 1348.98 1454.1 M1348.98 1450.39 Q1354.79 1450.39 1357.85 1455 Q1360.93 1459.58 1360.93 1468.33 Q1360.93 1477.06 1357.85 1481.67 Q1354.79 1486.25 1348.98 1486.25 Q1343.17 1486.25 1340.09 1481.67 Q1337.04 1477.06 1337.04 1468.33 Q1337.04 1459.58 1340.09 1455 Q1343.17 1450.39 1348.98 1450.39 Z" fill="#000000" fill-rule="nonzero" fill-opacity="1" /><path clip-path="url(#clip090)" d="M1764.97 1451.02 L1787.19 1451.02 L1787.19 1453.01 L1774.65 1485.58 L1769.76 1485.58 L1781.57 1454.96 L1764.97 1454.96 L1764.97 1451.02 Z" fill="#000000" fill-rule="nonzero" fill-opacity="1" /><path clip-path="url(#clip090)" d="M1796.36 1451.02 L1814.71 1451.02 L1814.71 1454.96 L1800.64 1454.96 L1800.64 1463.43 Q1801.66 1463.08 1802.68 1462.92 Q1803.7 1462.73 1804.71 1462.73 Q1810.5 1462.73 1813.88 1465.9 Q1817.26 1469.08 1817.26 1474.49 Q1817.26 1480.07 1813.79 1483.17 Q1810.32 1486.25 1804 1486.25 Q1801.82 1486.25 1799.55 1485.88 Q1797.31 1485.51 1794.9 1484.77 L1794.9 1480.07 Q1796.98 1481.2 1799.21 1481.76 Q1801.43 1482.32 1803.9 1482.32 Q1807.91 1482.32 1810.25 1480.21 Q1812.58 1478.1 1812.58 1474.49 Q1812.58 1470.88 1810.25 1468.77 Q1807.91 1466.67 1803.9 1466.67 Q1802.03 1466.67 1800.15 1467.08 Q1798.3 1467.5 1796.36 1468.38 L1796.36 1451.02 Z" fill="#000000" fill-rule="nonzero" fill-opacity="1" /><path clip-path="url(#clip090)" d="M1836.47 1454.1 Q1832.86 1454.1 1831.03 1457.66 Q1829.23 1461.2 1829.23 1468.33 Q1829.23 1475.44 1831.03 1479.01 Q1832.86 1482.55 1836.47 1482.55 Q1840.11 1482.55 1841.91 1479.01 Q1843.74 1475.44 1843.74 1468.33 Q1843.74 1461.2 1841.91 1457.66 Q1840.11 1454.1 1836.47 1454.1 M1836.47 1450.39 Q1842.28 1450.39 1845.34 1455 Q1848.42 1459.58 1848.42 1468.33 Q1848.42 1477.06 1845.34 1481.67 Q1842.28 1486.25 1836.47 1486.25 Q1830.66 1486.25 1827.58 1481.67 Q1824.53 1477.06 1824.53 1468.33 Q1824.53 1459.58 1827.58 1455 Q1830.66 1450.39 1836.47 1450.39 Z" fill="#000000" fill-rule="nonzero" fill-opacity="1" /><path clip-path="url(#clip090)" d="M2238.83 1481.64 L2246.47 1481.64 L2246.47 1455.28 L2238.16 1456.95 L2238.16 1452.69 L2246.42 1451.02 L2251.1 1451.02 L2251.1 1481.64 L2258.73 1481.64 L2258.73 1485.58 L2238.83 1485.58 L2238.83 1481.64 Z" fill="#000000" fill-rule="nonzero" fill-opacity="1" /><path clip-path="url(#clip090)" d="M2278.18 1454.1 Q2274.57 1454.1 2272.74 1457.66 Q2270.93 1461.2 2270.93 1468.33 Q2270.93 1475.44 2272.74 1479.01 Q2274.57 1482.55 2278.18 1482.55 Q2281.81 1482.55 2283.62 1479.01 Q2285.45 1475.44 2285.45 1468.33 Q2285.45 1461.2 2283.62 1457.66 Q2281.81 1454.1 2278.18 1454.1 M2278.18 1450.39 Q2283.99 1450.39 2287.04 1455 Q2290.12 1459.58 2290.12 1468.33 Q2290.12 1477.06 2287.04 1481.67 Q2283.99 1486.25 2278.18 1486.25 Q2272.37 1486.25 2269.29 1481.67 Q2266.23 1477.06 2266.23 1468.33 Q2266.23 1459.58 2269.29 1455 Q2272.37 1450.39 2278.18 1450.39 Z" fill="#000000" fill-rule="nonzero" fill-opacity="1" /><path clip-path="url(#clip090)" d="M2308.34 1454.1 Q2304.73 1454.1 2302.9 1457.66 Q2301.1 1461.2 2301.1 1468.33 Q2301.1 1475.44 2302.9 1479.01 Q2304.73 1482.55 2308.34 1482.55 Q2311.97 1482.55 2313.78 1479.01 Q2315.61 1475.44 2315.61 1468.33 Q2315.61 1461.2 2313.78 1457.66 Q2311.97 1454.1 2308.34 1454.1 M2308.34 1450.39 Q2314.15 1450.39 2317.21 1455 Q2320.29 1459.58 2320.29 1468.33 Q2320.29 1477.06 2317.21 1481.67 Q2314.15 1486.25 2308.34 1486.25 Q2302.53 1486.25 2299.45 1481.67 Q2296.4 1477.06 2296.4 1468.33 Q2296.4 1459.58 2299.45 1455 Q2302.53 1450.39 2308.34 1450.39 Z" fill="#000000" fill-rule="nonzero" fill-opacity="1" /><path clip-path="url(#clip090)" d="M2338.5 1454.1 Q2334.89 1454.1 2333.06 1457.66 Q2331.26 1461.2 2331.26 1468.33 Q2331.26 1475.44 2333.06 1479.01 Q2334.89 1482.55 2338.5 1482.55 Q2342.14 1482.55 2343.94 1479.01 Q2345.77 1475.44 2345.77 1468.33 Q2345.77 1461.2 2343.94 1457.66 Q2342.14 1454.1 2338.5 1454.1 M2338.5 1450.39 Q2344.31 1450.39 2347.37 1455 Q2350.45 1459.58 2350.45 1468.33 Q2350.45 1477.06 2347.37 1481.67 Q2344.31 1486.25 2338.5 1486.25 Q2332.69 1486.25 2329.61 1481.67 Q2326.56 1477.06 2326.56 1468.33 Q2326.56 1459.58 2329.61 1455 Q2332.69 1450.39 2338.5 1450.39 Z" fill="#000000" fill-rule="nonzero" fill-opacity="1" /><path clip-path="url(#clip090)" d="M1283.9 1524.18 L1283.9 1530.96 Q1280.66 1527.94 1276.97 1526.44 Q1273.3 1524.95 1269.17 1524.95 Q1261.02 1524.95 1256.69 1529.95 Q1252.36 1534.91 1252.36 1544.33 Q1252.36 1553.72 1256.69 1558.72 Q1261.02 1563.68 1269.17 1563.68 Q1273.3 1563.68 1276.97 1562.19 Q1280.66 1560.69 1283.9 1557.67 L1283.9 1564.38 Q1280.53 1566.68 1276.74 1567.82 Q1272.99 1568.97 1268.79 1568.97 Q1258 1568.97 1251.79 1562.38 Q1245.58 1555.76 1245.58 1544.33 Q1245.58 1532.87 1251.79 1526.28 Q1258 1519.66 1268.79 1519.66 Q1273.05 1519.66 1276.81 1520.81 Q1280.59 1521.92 1283.9 1524.18 Z" fill="#000000" fill-rule="nonzero" fill-opacity="1" /><path clip-path="url(#clip090)" d="M1324.07 1548.76 L1324.07 1551.62 L1297.14 1551.62 Q1297.53 1557.67 1300.77 1560.85 Q1304.05 1564 1309.88 1564 Q1313.25 1564 1316.4 1563.17 Q1319.58 1562.35 1322.7 1560.69 L1322.7 1566.23 Q1319.55 1567.57 1316.24 1568.27 Q1312.93 1568.97 1309.53 1568.97 Q1301 1568.97 1296 1564 Q1291.03 1559.04 1291.03 1550.57 Q1291.03 1541.82 1295.74 1536.69 Q1300.49 1531.54 1308.51 1531.54 Q1315.7 1531.54 1319.87 1536.18 Q1324.07 1540.8 1324.07 1548.76 M1318.21 1547.04 Q1318.15 1542.23 1315.51 1539.37 Q1312.9 1536.5 1308.57 1536.5 Q1303.67 1536.5 1300.71 1539.27 Q1297.78 1542.04 1297.34 1547.07 L1318.21 1547.04 Z" fill="#000000" fill-rule="nonzero" fill-opacity="1" /><path clip-path="url(#clip090)" d="M1333.68 1518.52 L1339.54 1518.52 L1339.54 1568.04 L1333.68 1568.04 L1333.68 1518.52 Z" fill="#000000" fill-rule="nonzero" fill-opacity="1" /><path clip-path="url(#clip090)" d="M1351.79 1518.52 L1357.65 1518.52 L1357.65 1568.04 L1351.79 1568.04 L1351.79 1518.52 Z" fill="#000000" fill-rule="nonzero" fill-opacity="1" /><path clip-path="url(#clip090)" d="M1392.63 1533.45 L1392.63 1538.98 Q1390.15 1537.71 1387.47 1537.07 Q1384.8 1536.44 1381.94 1536.44 Q1377.58 1536.44 1375.38 1537.77 Q1373.21 1539.11 1373.21 1541.79 Q1373.21 1543.82 1374.77 1545 Q1376.33 1546.15 1381.04 1547.2 L1383.05 1547.64 Q1389.29 1548.98 1391.9 1551.43 Q1394.54 1553.85 1394.54 1558.21 Q1394.54 1563.17 1390.59 1566.07 Q1386.68 1568.97 1379.8 1568.97 Q1376.94 1568.97 1373.82 1568.39 Q1370.73 1567.85 1367.29 1566.74 L1367.29 1560.69 Q1370.54 1562.38 1373.69 1563.24 Q1376.84 1564.07 1379.93 1564.07 Q1384.07 1564.07 1386.3 1562.66 Q1388.52 1561.23 1388.52 1558.65 Q1388.52 1556.27 1386.9 1554.99 Q1385.31 1553.72 1379.87 1552.54 L1377.83 1552.07 Q1372.39 1550.92 1369.97 1548.56 Q1367.55 1546.18 1367.55 1542.04 Q1367.55 1537.01 1371.11 1534.27 Q1374.68 1531.54 1381.24 1531.54 Q1384.48 1531.54 1387.35 1532.01 Q1390.21 1532.49 1392.63 1533.45 Z" fill="#000000" fill-rule="nonzero" fill-opacity="1" /><polyline clip-path="url(#clip092)" style="stroke:#000000; stroke-linecap:round; stroke-linejoin:round; stroke-width:2; stroke-opacity:0.1; fill:none" points="287.366,1292.19 2352.76,1292.19 "/>
<polyline clip-path="url(#clip092)" style="stroke:#000000; stroke-linecap:round; stroke-linejoin:round; stroke-width:2; stroke-opacity:0.1; fill:none" points="287.366,1095.18 2352.76,1095.18 "/>
<polyline clip-path="url(#clip092)" style="stroke:#000000; stroke-linecap:round; stroke-linejoin:round; stroke-width:2; stroke-opacity:0.1; fill:none" points="287.366,898.167 2352.76,898.167 "/>
<polyline clip-path="url(#clip092)" style="stroke:#000000; stroke-linecap:round; stroke-linejoin:round; stroke-width:2; stroke-opacity:0.1; fill:none" points="287.366,701.156 2352.76,701.156 "/>
<polyline clip-path="url(#clip092)" style="stroke:#000000; stroke-linecap:round; stroke-linejoin:round; stroke-width:2; stroke-opacity:0.1; fill:none" points="287.366,504.144 2352.76,504.144 "/>
<polyline clip-path="url(#clip092)" style="stroke:#000000; stroke-linecap:round; stroke-linejoin:round; stroke-width:2; stroke-opacity:0.1; fill:none" points="287.366,307.133 2352.76,307.133 "/>
<polyline clip-path="url(#clip090)" style="stroke:#000000; stroke-linecap:round; stroke-linejoin:round; stroke-width:4; stroke-opacity:1; fill:none" points="287.366,1423.18 287.366,123.472 "/>
<polyline clip-path="url(#clip090)" style="stroke:#000000; stroke-linecap:round; stroke-linejoin:round; stroke-width:4; stroke-opacity:1; fill:none" points="287.366,1292.19 306.264,1292.19 "/>
<polyline clip-path="url(#clip090)" style="stroke:#000000; stroke-linecap:round; stroke-linejoin:round; stroke-width:4; stroke-opacity:1; fill:none" points="287.366,1095.18 306.264,1095.18 "/>
<polyline clip-path="url(#clip090)" style="stroke:#000000; stroke-linecap:round; stroke-linejoin:round; stroke-width:4; stroke-opacity:1; fill:none" points="287.366,898.167 306.264,898.167 "/>
<polyline clip-path="url(#clip090)" style="stroke:#000000; stroke-linecap:round; stroke-linejoin:round; stroke-width:4; stroke-opacity:1; fill:none" points="287.366,701.156 306.264,701.156 "/>
<polyline clip-path="url(#clip090)" style="stroke:#000000; stroke-linecap:round; stroke-linejoin:round; stroke-width:4; stroke-opacity:1; fill:none" points="287.366,504.144 306.264,504.144 "/>
<polyline clip-path="url(#clip090)" style="stroke:#000000; stroke-linecap:round; stroke-linejoin:round; stroke-width:4; stroke-opacity:1; fill:none" points="287.366,307.133 306.264,307.133 "/>
<path clip-path="url(#clip090)" d="M114.26 1292.64 L143.936 1292.64 L143.936 1296.58 L114.26 1296.58 L114.26 1292.64 Z" fill="#000000" fill-rule="nonzero" fill-opacity="1" /><path clip-path="url(#clip090)" d="M164.028 1277.99 Q160.417 1277.99 158.589 1281.55 Q156.783 1285.1 156.783 1292.22 Q156.783 1299.33 158.589 1302.9 Q160.417 1306.44 164.028 1306.44 Q167.663 1306.44 169.468 1302.9 Q171.297 1299.33 171.297 1292.22 Q171.297 1285.1 169.468 1281.55 Q167.663 1277.99 164.028 1277.99 M164.028 1274.29 Q169.839 1274.29 172.894 1278.89 Q175.973 1283.48 175.973 1292.22 Q175.973 1300.95 172.894 1305.56 Q169.839 1310.14 164.028 1310.14 Q158.218 1310.14 155.14 1305.56 Q152.084 1300.95 152.084 1292.22 Q152.084 1283.48 155.14 1278.89 Q158.218 1274.29 164.028 1274.29 Z" fill="#000000" fill-rule="nonzero" fill-opacity="1" /><path clip-path="url(#clip090)" d="M184.19 1303.59 L189.075 1303.59 L189.075 1309.47 L184.19 1309.47 L184.19 1303.59 Z" fill="#000000" fill-rule="nonzero" fill-opacity="1" /><path clip-path="url(#clip090)" d="M199.306 1274.91 L217.662 1274.91 L217.662 1278.85 L203.588 1278.85 L203.588 1287.32 Q204.607 1286.97 205.625 1286.81 Q206.644 1286.62 207.662 1286.62 Q213.449 1286.62 216.829 1289.79 Q220.209 1292.97 220.209 1298.38 Q220.209 1303.96 216.736 1307.06 Q213.264 1310.14 206.945 1310.14 Q204.769 1310.14 202.5 1309.77 Q200.255 1309.4 197.848 1308.66 L197.848 1303.96 Q199.931 1305.1 202.153 1305.65 Q204.375 1306.21 206.852 1306.21 Q210.857 1306.21 213.195 1304.1 Q215.533 1301.99 215.533 1298.38 Q215.533 1294.77 213.195 1292.66 Q210.857 1290.56 206.852 1290.56 Q204.977 1290.56 203.102 1290.97 Q201.25 1291.39 199.306 1292.27 L199.306 1274.91 Z" fill="#000000" fill-rule="nonzero" fill-opacity="1" /><path clip-path="url(#clip090)" d="M239.422 1277.99 Q235.81 1277.99 233.982 1281.55 Q232.176 1285.1 232.176 1292.22 Q232.176 1299.33 233.982 1302.9 Q235.81 1306.44 239.422 1306.44 Q243.056 1306.44 244.861 1302.9 Q246.69 1299.33 246.69 1292.22 Q246.69 1285.1 244.861 1281.55 Q243.056 1277.99 239.422 1277.99 M239.422 1274.29 Q245.232 1274.29 248.287 1278.89 Q251.366 1283.48 251.366 1292.22 Q251.366 1300.95 248.287 1305.56 Q245.232 1310.14 239.422 1310.14 Q233.611 1310.14 230.533 1305.56 Q227.477 1300.95 227.477 1292.22 Q227.477 1283.48 230.533 1278.89 Q233.611 1274.29 239.422 1274.29 Z" fill="#000000" fill-rule="nonzero" fill-opacity="1" /><path clip-path="url(#clip090)" d="M115.256 1095.63 L144.931 1095.63 L144.931 1099.57 L115.256 1099.57 L115.256 1095.63 Z" fill="#000000" fill-rule="nonzero" fill-opacity="1" /><path clip-path="url(#clip090)" d="M165.024 1080.98 Q161.413 1080.98 159.584 1084.54 Q157.778 1088.08 157.778 1095.21 Q157.778 1102.32 159.584 1105.88 Q161.413 1109.43 165.024 1109.43 Q168.658 1109.43 170.464 1105.88 Q172.292 1102.32 172.292 1095.21 Q172.292 1088.08 170.464 1084.54 Q168.658 1080.98 165.024 1080.98 M165.024 1077.27 Q170.834 1077.27 173.889 1081.88 Q176.968 1086.46 176.968 1095.21 Q176.968 1103.94 173.889 1108.55 Q170.834 1113.13 165.024 1113.13 Q159.214 1113.13 156.135 1108.55 Q153.079 1103.94 153.079 1095.21 Q153.079 1086.46 156.135 1081.88 Q159.214 1077.27 165.024 1077.27 Z" fill="#000000" fill-rule="nonzero" fill-opacity="1" /><path clip-path="url(#clip090)" d="M185.186 1106.58 L190.07 1106.58 L190.07 1112.46 L185.186 1112.46 L185.186 1106.58 Z" fill="#000000" fill-rule="nonzero" fill-opacity="1" /><path clip-path="url(#clip090)" d="M204.283 1108.52 L220.602 1108.52 L220.602 1112.46 L198.658 1112.46 L198.658 1108.52 Q201.32 1105.77 205.903 1101.14 Q210.51 1096.49 211.69 1095.14 Q213.936 1092.62 214.815 1090.88 Q215.718 1089.13 215.718 1087.44 Q215.718 1084.68 213.774 1082.95 Q211.852 1081.21 208.75 1081.21 Q206.551 1081.21 204.098 1081.97 Q201.667 1082.74 198.889 1084.29 L198.889 1079.57 Q201.713 1078.43 204.167 1077.85 Q206.621 1077.27 208.658 1077.27 Q214.028 1077.27 217.223 1079.96 Q220.417 1082.64 220.417 1087.13 Q220.417 1089.26 219.607 1091.19 Q218.82 1093.08 216.713 1095.68 Q216.135 1096.35 213.033 1099.57 Q209.931 1102.76 204.283 1108.52 Z" fill="#000000" fill-rule="nonzero" fill-opacity="1" /><path clip-path="url(#clip090)" d="M230.463 1077.9 L248.82 1077.9 L248.82 1081.83 L234.746 1081.83 L234.746 1090.31 Q235.764 1089.96 236.783 1089.8 Q237.801 1089.61 238.82 1089.61 Q244.607 1089.61 247.986 1092.78 Q251.366 1095.95 251.366 1101.37 Q251.366 1106.95 247.894 1110.05 Q244.421 1113.13 238.102 1113.13 Q235.926 1113.13 233.658 1112.76 Q231.412 1112.39 229.005 1111.65 L229.005 1106.95 Q231.088 1108.08 233.31 1108.64 Q235.533 1109.19 238.009 1109.19 Q242.014 1109.19 244.352 1107.09 Q246.69 1104.98 246.69 1101.37 Q246.69 1097.76 244.352 1095.65 Q242.014 1093.55 238.009 1093.55 Q236.135 1093.55 234.26 1093.96 Q232.408 1094.38 230.463 1095.26 L230.463 1077.9 Z" fill="#000000" fill-rule="nonzero" fill-opacity="1" /><path clip-path="url(#clip090)" d="M164.028 883.966 Q160.417 883.966 158.589 887.531 Q156.783 891.072 156.783 898.202 Q156.783 905.308 158.589 908.873 Q160.417 912.415 164.028 912.415 Q167.663 912.415 169.468 908.873 Q171.297 905.308 171.297 898.202 Q171.297 891.072 169.468 887.531 Q167.663 883.966 164.028 883.966 M164.028 880.262 Q169.839 880.262 172.894 884.869 Q175.973 889.452 175.973 898.202 Q175.973 906.929 172.894 911.535 Q169.839 916.119 164.028 916.119 Q158.218 916.119 155.14 911.535 Q152.084 906.929 152.084 898.202 Q152.084 889.452 155.14 884.869 Q158.218 880.262 164.028 880.262 Z" fill="#000000" fill-rule="nonzero" fill-opacity="1" /><path clip-path="url(#clip090)" d="M184.19 909.568 L189.075 909.568 L189.075 915.447 L184.19 915.447 L184.19 909.568 Z" fill="#000000" fill-rule="nonzero" fill-opacity="1" /><path clip-path="url(#clip090)" d="M209.26 883.966 Q205.649 883.966 203.82 887.531 Q202.014 891.072 202.014 898.202 Q202.014 905.308 203.82 908.873 Q205.649 912.415 209.26 912.415 Q212.894 912.415 214.699 908.873 Q216.528 905.308 216.528 898.202 Q216.528 891.072 214.699 887.531 Q212.894 883.966 209.26 883.966 M209.26 880.262 Q215.07 880.262 218.125 884.869 Q221.204 889.452 221.204 898.202 Q221.204 906.929 218.125 911.535 Q215.07 916.119 209.26 916.119 Q203.449 916.119 200.371 911.535 Q197.315 906.929 197.315 898.202 Q197.315 889.452 200.371 884.869 Q203.449 880.262 209.26 880.262 Z" fill="#000000" fill-rule="nonzero" fill-opacity="1" /><path clip-path="url(#clip090)" d="M239.422 883.966 Q235.81 883.966 233.982 887.531 Q232.176 891.072 232.176 898.202 Q232.176 905.308 233.982 908.873 Q235.81 912.415 239.422 912.415 Q243.056 912.415 244.861 908.873 Q246.69 905.308 246.69 898.202 Q246.69 891.072 244.861 887.531 Q243.056 883.966 239.422 883.966 M239.422 880.262 Q245.232 880.262 248.287 884.869 Q251.366 889.452 251.366 898.202 Q251.366 906.929 248.287 911.535 Q245.232 916.119 239.422 916.119 Q233.611 916.119 230.533 911.535 Q227.477 906.929 227.477 898.202 Q227.477 889.452 230.533 884.869 Q233.611 880.262 239.422 880.262 Z" fill="#000000" fill-rule="nonzero" fill-opacity="1" /><path clip-path="url(#clip090)" d="M165.024 686.955 Q161.413 686.955 159.584 690.519 Q157.778 694.061 157.778 701.191 Q157.778 708.297 159.584 711.862 Q161.413 715.403 165.024 715.403 Q168.658 715.403 170.464 711.862 Q172.292 708.297 172.292 701.191 Q172.292 694.061 170.464 690.519 Q168.658 686.955 165.024 686.955 M165.024 683.251 Q170.834 683.251 173.889 687.857 Q176.968 692.441 176.968 701.191 Q176.968 709.917 173.889 714.524 Q170.834 719.107 165.024 719.107 Q159.214 719.107 156.135 714.524 Q153.079 709.917 153.079 701.191 Q153.079 692.441 156.135 687.857 Q159.214 683.251 165.024 683.251 Z" fill="#000000" fill-rule="nonzero" fill-opacity="1" /><path clip-path="url(#clip090)" d="M185.186 712.556 L190.07 712.556 L190.07 718.436 L185.186 718.436 L185.186 712.556 Z" fill="#000000" fill-rule="nonzero" fill-opacity="1" /><path clip-path="url(#clip090)" d="M204.283 714.501 L220.602 714.501 L220.602 718.436 L198.658 718.436 L198.658 714.501 Q201.32 711.746 205.903 707.116 Q210.51 702.464 211.69 701.121 Q213.936 698.598 214.815 696.862 Q215.718 695.103 215.718 693.413 Q215.718 690.658 213.774 688.922 Q211.852 687.186 208.75 687.186 Q206.551 687.186 204.098 687.95 Q201.667 688.714 198.889 690.265 L198.889 685.542 Q201.713 684.408 204.167 683.83 Q206.621 683.251 208.658 683.251 Q214.028 683.251 217.223 685.936 Q220.417 688.621 220.417 693.112 Q220.417 695.242 219.607 697.163 Q218.82 699.061 216.713 701.654 Q216.135 702.325 213.033 705.542 Q209.931 708.737 204.283 714.501 Z" fill="#000000" fill-rule="nonzero" fill-opacity="1" /><path clip-path="url(#clip090)" d="M230.463 683.876 L248.82 683.876 L248.82 687.811 L234.746 687.811 L234.746 696.283 Q235.764 695.936 236.783 695.774 Q237.801 695.589 238.82 695.589 Q244.607 695.589 247.986 698.76 Q251.366 701.931 251.366 707.348 Q251.366 712.927 247.894 716.028 Q244.421 719.107 238.102 719.107 Q235.926 719.107 233.658 718.737 Q231.412 718.366 229.005 717.626 L229.005 712.927 Q231.088 714.061 233.31 714.616 Q235.533 715.172 238.009 715.172 Q242.014 715.172 244.352 713.065 Q246.69 710.959 246.69 707.348 Q246.69 703.737 244.352 701.63 Q242.014 699.524 238.009 699.524 Q236.135 699.524 234.26 699.941 Q232.408 700.357 230.463 701.237 L230.463 683.876 Z" fill="#000000" fill-rule="nonzero" fill-opacity="1" /><path clip-path="url(#clip090)" d="M164.028 489.943 Q160.417 489.943 158.589 493.508 Q156.783 497.049 156.783 504.179 Q156.783 511.286 158.589 514.85 Q160.417 518.392 164.028 518.392 Q167.663 518.392 169.468 514.85 Q171.297 511.286 171.297 504.179 Q171.297 497.049 169.468 493.508 Q167.663 489.943 164.028 489.943 M164.028 486.239 Q169.839 486.239 172.894 490.846 Q175.973 495.429 175.973 504.179 Q175.973 512.906 172.894 517.512 Q169.839 522.096 164.028 522.096 Q158.218 522.096 155.14 517.512 Q152.084 512.906 152.084 504.179 Q152.084 495.429 155.14 490.846 Q158.218 486.239 164.028 486.239 Z" fill="#000000" fill-rule="nonzero" fill-opacity="1" /><path clip-path="url(#clip090)" d="M184.19 515.545 L189.075 515.545 L189.075 521.424 L184.19 521.424 L184.19 515.545 Z" fill="#000000" fill-rule="nonzero" fill-opacity="1" /><path clip-path="url(#clip090)" d="M199.306 486.864 L217.662 486.864 L217.662 490.8 L203.588 490.8 L203.588 499.272 Q204.607 498.924 205.625 498.762 Q206.644 498.577 207.662 498.577 Q213.449 498.577 216.829 501.749 Q220.209 504.92 220.209 510.336 Q220.209 515.915 216.736 519.017 Q213.264 522.096 206.945 522.096 Q204.769 522.096 202.5 521.725 Q200.255 521.355 197.848 520.614 L197.848 515.915 Q199.931 517.049 202.153 517.605 Q204.375 518.16 206.852 518.16 Q210.857 518.16 213.195 516.054 Q215.533 513.948 215.533 510.336 Q215.533 506.725 213.195 504.619 Q210.857 502.512 206.852 502.512 Q204.977 502.512 203.102 502.929 Q201.25 503.346 199.306 504.225 L199.306 486.864 Z" fill="#000000" fill-rule="nonzero" fill-opacity="1" /><path clip-path="url(#clip090)" d="M239.422 489.943 Q235.81 489.943 233.982 493.508 Q232.176 497.049 232.176 504.179 Q232.176 511.286 233.982 514.85 Q235.81 518.392 239.422 518.392 Q243.056 518.392 244.861 514.85 Q246.69 511.286 246.69 504.179 Q246.69 497.049 244.861 493.508 Q243.056 489.943 239.422 489.943 M239.422 486.239 Q245.232 486.239 248.287 490.846 Q251.366 495.429 251.366 504.179 Q251.366 512.906 248.287 517.512 Q245.232 522.096 239.422 522.096 Q233.611 522.096 230.533 517.512 Q227.477 512.906 227.477 504.179 Q227.477 495.429 230.533 490.846 Q233.611 486.239 239.422 486.239 Z" fill="#000000" fill-rule="nonzero" fill-opacity="1" /><path clip-path="url(#clip090)" d="M165.024 292.932 Q161.413 292.932 159.584 296.496 Q157.778 300.038 157.778 307.168 Q157.778 314.274 159.584 317.839 Q161.413 321.38 165.024 321.38 Q168.658 321.38 170.464 317.839 Q172.292 314.274 172.292 307.168 Q172.292 300.038 170.464 296.496 Q168.658 292.932 165.024 292.932 M165.024 289.228 Q170.834 289.228 173.889 293.834 Q176.968 298.418 176.968 307.168 Q176.968 315.894 173.889 320.501 Q170.834 325.084 165.024 325.084 Q159.214 325.084 156.135 320.501 Q153.079 315.894 153.079 307.168 Q153.079 298.418 156.135 293.834 Q159.214 289.228 165.024 289.228 Z" fill="#000000" fill-rule="nonzero" fill-opacity="1" /><path clip-path="url(#clip090)" d="M185.186 318.533 L190.07 318.533 L190.07 324.413 L185.186 324.413 L185.186 318.533 Z" fill="#000000" fill-rule="nonzero" fill-opacity="1" /><path clip-path="url(#clip090)" d="M199.075 289.853 L221.297 289.853 L221.297 291.844 L208.75 324.413 L203.866 324.413 L215.672 293.788 L199.075 293.788 L199.075 289.853 Z" fill="#000000" fill-rule="nonzero" fill-opacity="1" /><path clip-path="url(#clip090)" d="M230.463 289.853 L248.82 289.853 L248.82 293.788 L234.746 293.788 L234.746 302.26 Q235.764 301.913 236.783 301.751 Q237.801 301.566 238.82 301.566 Q244.607 301.566 247.986 304.737 Q251.366 307.908 251.366 313.325 Q251.366 318.904 247.894 322.005 Q244.421 325.084 238.102 325.084 Q235.926 325.084 233.658 324.714 Q231.412 324.343 229.005 323.603 L229.005 318.904 Q231.088 320.038 233.31 320.593 Q235.533 321.149 238.009 321.149 Q242.014 321.149 244.352 319.043 Q246.69 316.936 246.69 313.325 Q246.69 309.714 244.352 307.607 Q242.014 305.501 238.009 305.501 Q236.135 305.501 234.26 305.918 Q232.408 306.334 230.463 307.214 L230.463 289.853 Z" fill="#000000" fill-rule="nonzero" fill-opacity="1" /><path clip-path="url(#clip090)" d="M18.0438 893.717 L24.314 893.717 Q22.5634 897.378 21.704 900.624 Q20.8447 903.871 20.8447 906.894 Q20.8447 912.146 22.8817 915.011 Q24.9187 917.843 28.6745 917.843 Q31.8255 917.843 33.4488 915.966 Q35.0402 914.056 36.0269 908.772 L36.8226 904.889 Q38.1912 897.696 41.6605 894.29 Q45.098 890.853 50.8908 890.853 Q57.7976 890.853 61.3624 895.5 Q64.9272 900.115 64.9272 909.059 Q64.9272 912.433 64.1633 916.252 Q63.3994 920.04 61.9035 924.114 L55.2831 924.114 Q57.4793 920.199 58.5933 916.443 Q59.7073 912.687 59.7073 909.059 Q59.7073 903.552 57.543 900.561 Q55.3786 897.569 51.3682 897.569 Q47.8671 897.569 45.8937 899.733 Q43.9204 901.866 42.9337 906.767 L42.1698 910.682 Q40.7375 917.875 37.682 921.09 Q34.6264 924.305 29.1837 924.305 Q22.8817 924.305 19.2532 919.88 Q15.6248 915.424 15.6248 907.626 Q15.6248 904.284 16.2295 900.815 Q16.8343 897.346 18.0438 893.717 Z" fill="#000000" fill-rule="nonzero" fill-opacity="1" /><path clip-path="url(#clip090)" d="M28.3562 881.081 L28.3562 875.225 L64.0042 875.225 L64.0042 881.081 L28.3562 881.081 M14.479 881.081 L14.479 875.225 L21.895 875.225 L21.895 881.081 L14.479 881.081 Z" fill="#000000" fill-rule="nonzero" fill-opacity="1" /><path clip-path="url(#clip090)" d="M35.1993 835.217 Q31.2526 833.02 29.3747 829.965 Q27.4968 826.909 27.4968 822.772 Q27.4968 817.202 31.4117 814.178 Q35.2948 811.154 42.4881 811.154 L64.0042 811.154 L64.0042 817.042 L42.679 817.042 Q37.5546 817.042 35.072 818.857 Q32.5894 820.671 32.5894 824.395 Q32.5894 828.946 35.6131 831.588 Q38.6368 834.23 43.8567 834.23 L64.0042 834.23 L64.0042 840.118 L42.679 840.118 Q37.5228 840.118 35.072 841.932 Q32.5894 843.747 32.5894 847.534 Q32.5894 852.022 35.6449 854.664 Q38.6686 857.306 43.8567 857.306 L64.0042 857.306 L64.0042 863.194 L28.3562 863.194 L28.3562 857.306 L33.8944 857.306 Q30.616 855.3 29.0564 852.499 Q27.4968 849.699 27.4968 845.847 Q27.4968 841.964 29.4702 839.259 Q31.4436 836.522 35.1993 835.217 Z" fill="#000000" fill-rule="nonzero" fill-opacity="1" /><path clip-path="url(#clip090)" d="M28.3562 799.473 L28.3562 793.617 L64.0042 793.617 L64.0042 799.473 L28.3562 799.473 M14.479 799.473 L14.479 793.617 L21.895 793.617 L21.895 799.473 L14.479 799.473 Z" fill="#000000" fill-rule="nonzero" fill-opacity="1" /><path clip-path="url(#clip090)" d="M14.479 781.363 L14.479 775.506 L64.0042 775.506 L64.0042 781.363 L14.479 781.363 Z" fill="#000000" fill-rule="nonzero" fill-opacity="1" /><path clip-path="url(#clip090)" d="M46.0847 747.052 Q46.0847 754.149 47.7079 756.887 Q49.3312 759.624 53.2461 759.624 Q56.3653 759.624 58.2114 757.587 Q60.0256 755.518 60.0256 751.985 Q60.0256 747.115 56.5881 744.187 Q53.1188 741.227 47.3897 741.227 L46.0847 741.227 L46.0847 747.052 M43.6657 735.37 L64.0042 735.37 L64.0042 741.227 L58.5933 741.227 Q61.8398 743.232 63.3994 746.224 Q64.9272 749.216 64.9272 753.545 Q64.9272 759.019 61.8716 762.266 Q58.7843 765.48 53.6281 765.48 Q47.6125 765.48 44.5569 761.47 Q41.5014 757.428 41.5014 749.439 L41.5014 741.227 L40.9285 741.227 Q36.8862 741.227 34.6901 743.901 Q32.4621 746.542 32.4621 751.348 Q32.4621 754.404 33.1941 757.3 Q33.9262 760.197 35.3903 762.87 L29.9795 762.87 Q28.7381 759.656 28.1334 756.632 Q27.4968 753.608 27.4968 750.744 Q27.4968 743.009 31.5072 739.19 Q35.5176 735.37 43.6657 735.37 Z" fill="#000000" fill-rule="nonzero" fill-opacity="1" /><path clip-path="url(#clip090)" d="M33.8307 702.651 Q33.2578 703.637 33.0032 704.815 Q32.7167 705.961 32.7167 707.361 Q32.7167 712.327 35.9632 715 Q39.1779 717.642 45.2253 717.642 L64.0042 717.642 L64.0042 723.53 L28.3562 723.53 L28.3562 717.642 L33.8944 717.642 Q30.6479 715.796 29.0883 712.836 Q27.4968 709.876 27.4968 705.643 Q27.4968 705.038 27.5923 704.306 Q27.656 703.574 27.8151 702.683 L33.8307 702.651 Z" fill="#000000" fill-rule="nonzero" fill-opacity="1" /><path clip-path="url(#clip090)" d="M28.3562 696.508 L28.3562 690.651 L64.0042 690.651 L64.0042 696.508 L28.3562 696.508 M14.479 696.508 L14.479 690.651 L21.895 690.651 L21.895 696.508 L14.479 696.508 Z" fill="#000000" fill-rule="nonzero" fill-opacity="1" /><path clip-path="url(#clip090)" d="M18.2347 672.605 L28.3562 672.605 L28.3562 660.542 L32.9077 660.542 L32.9077 672.605 L52.2594 672.605 Q56.6199 672.605 57.8613 671.427 Q59.1026 670.217 59.1026 666.557 L59.1026 660.542 L64.0042 660.542 L64.0042 666.557 Q64.0042 673.337 61.4897 675.915 Q58.9434 678.493 52.2594 678.493 L32.9077 678.493 L32.9077 682.79 L28.3562 682.79 L28.3562 678.493 L18.2347 678.493 L18.2347 672.605 Z" fill="#000000" fill-rule="nonzero" fill-opacity="1" /><path clip-path="url(#clip090)" d="M67.3143 638.007 Q73.68 640.49 75.6216 642.845 Q77.5631 645.2 77.5631 649.147 L77.5631 653.826 L72.6615 653.826 L72.6615 650.388 Q72.6615 647.969 71.5157 646.633 Q70.3699 645.296 66.1048 643.672 L63.4312 642.622 L28.3562 657.04 L28.3562 650.834 L56.238 639.694 L28.3562 628.554 L28.3562 622.347 L67.3143 638.007 Z" fill="#000000" fill-rule="nonzero" fill-opacity="1" /><path clip-path="url(#clip090)" d="M438.523 14.0809 L438.523 22.0612 Q433.865 19.8332 429.733 18.7395 Q425.601 17.6457 421.753 17.6457 Q415.069 17.6457 411.423 20.2383 Q407.818 22.8309 407.818 27.611 Q407.818 31.6214 410.208 33.6873 Q412.638 35.7128 419.363 36.9686 L424.305 37.9813 Q433.46 39.7232 437.794 44.1387 Q442.169 48.5136 442.169 55.8863 Q442.169 64.6767 436.255 69.2137 Q430.381 73.7508 418.998 73.7508 Q414.704 73.7508 409.843 72.7785 Q405.022 71.8063 399.837 69.9024 L399.837 61.4765 Q404.82 64.2716 409.6 65.6895 Q414.38 67.1073 418.998 67.1073 Q426.006 67.1073 429.814 64.3527 Q433.622 61.598 433.622 56.4939 Q433.622 52.0379 430.867 49.5264 Q428.153 47.0148 421.915 45.759 L416.932 44.7868 Q407.777 42.9639 403.686 39.075 Q399.594 35.1862 399.594 28.2591 Q399.594 20.2383 405.225 15.6203 Q410.896 11.0023 420.821 11.0023 Q425.074 11.0023 429.49 11.7719 Q433.905 12.5416 438.523 14.0809 Z" fill="#000000" fill-rule="nonzero" fill-opacity="1" /><path clip-path="url(#clip090)" d="M472.186 32.4315 Q466.191 32.4315 462.707 37.1306 Q459.224 41.7891 459.224 49.9314 Q459.224 58.0738 462.667 62.7728 Q466.151 67.4314 472.186 67.4314 Q478.141 67.4314 481.625 62.7323 Q485.109 58.0333 485.109 49.9314 Q485.109 41.8701 481.625 37.1711 Q478.141 32.4315 472.186 32.4315 M472.186 26.1121 Q481.909 26.1121 487.458 32.4315 Q493.008 38.7509 493.008 49.9314 Q493.008 61.0714 487.458 67.4314 Q481.909 73.7508 472.186 73.7508 Q462.424 73.7508 456.874 67.4314 Q451.365 61.0714 451.365 49.9314 Q451.365 38.7509 456.874 32.4315 Q462.424 26.1121 472.186 26.1121 Z" fill="#000000" fill-rule="nonzero" fill-opacity="1" /><path clip-path="url(#clip090)" d="M531.654 34.1734 Q530.398 33.4443 528.899 33.1202 Q527.441 32.7556 525.658 32.7556 Q519.339 32.7556 515.936 36.8875 Q512.574 40.9789 512.574 48.6757 L512.574 72.576 L505.08 72.576 L505.08 27.2059 L512.574 27.2059 L512.574 34.2544 Q514.923 30.1225 518.691 28.1376 Q522.458 26.1121 527.846 26.1121 Q528.615 26.1121 529.547 26.2337 Q530.479 26.3147 531.613 26.5172 L531.654 34.1734 Z" fill="#000000" fill-rule="nonzero" fill-opacity="1" /><path clip-path="url(#clip090)" d="M546.845 14.324 L546.845 27.2059 L562.197 27.2059 L562.197 32.9987 L546.845 32.9987 L546.845 57.6282 Q546.845 63.1779 548.343 64.7578 Q549.883 66.3376 554.541 66.3376 L562.197 66.3376 L562.197 72.576 L554.541 72.576 Q545.913 72.576 542.632 69.3758 Q539.35 66.1351 539.35 57.6282 L539.35 32.9987 L533.882 32.9987 L533.882 27.2059 L539.35 27.2059 L539.35 14.324 L546.845 14.324 Z" fill="#000000" fill-rule="nonzero" fill-opacity="1" /><path clip-path="url(#clip090)" d="M610.808 48.0275 L610.808 51.6733 L576.538 51.6733 Q577.024 59.3701 581.156 63.421 Q585.328 67.4314 592.741 67.4314 Q597.035 67.4314 601.046 66.3781 Q605.097 65.3249 609.066 63.2184 L609.066 70.267 Q605.056 71.9684 600.843 72.8596 Q596.63 73.7508 592.296 73.7508 Q581.439 73.7508 575.079 67.4314 Q568.76 61.1119 568.76 50.3365 Q568.76 39.1965 574.755 32.6746 Q580.791 26.1121 590.999 26.1121 Q600.154 26.1121 605.461 32.0264 Q610.808 37.9003 610.808 48.0275 M603.355 45.84 Q603.274 39.7232 599.911 36.0774 Q596.59 32.4315 591.08 32.4315 Q584.842 32.4315 581.075 35.9558 Q577.348 39.4801 576.781 45.8805 L603.355 45.84 Z" fill="#000000" fill-rule="nonzero" fill-opacity="1" /><path clip-path="url(#clip090)" d="M652.897 34.0924 L652.897 9.54393 L660.351 9.54393 L660.351 72.576 L652.897 72.576 L652.897 65.7705 Q650.548 69.8214 646.942 71.8063 Q643.378 73.7508 638.354 73.7508 Q630.131 73.7508 624.946 67.1883 Q619.801 60.6258 619.801 49.9314 Q619.801 39.2371 624.946 32.6746 Q630.131 26.1121 638.354 26.1121 Q643.378 26.1121 646.942 28.0971 Q650.548 30.0415 652.897 34.0924 M627.498 49.9314 Q627.498 58.1548 630.86 62.8538 Q634.263 67.5124 640.177 67.5124 Q646.092 67.5124 649.494 62.8538 Q652.897 58.1548 652.897 49.9314 Q652.897 41.7081 649.494 37.0496 Q646.092 32.3505 640.177 32.3505 Q634.263 32.3505 630.86 37.0496 Q627.498 41.7081 627.498 49.9314 Z" fill="#000000" fill-rule="nonzero" fill-opacity="1" /><path clip-path="url(#clip090)" d="M734.725 28.9478 L734.725 35.9153 Q731.566 34.1734 728.366 33.3227 Q725.206 32.4315 721.965 32.4315 Q714.714 32.4315 710.704 37.0496 Q706.693 41.6271 706.693 49.9314 Q706.693 58.2358 710.704 62.8538 Q714.714 67.4314 721.965 67.4314 Q725.206 67.4314 728.366 66.5807 Q731.566 65.6895 734.725 63.9476 L734.725 70.8341 Q731.606 72.2924 728.244 73.0216 Q724.922 73.7508 721.155 73.7508 Q710.906 73.7508 704.87 67.3098 Q698.834 60.8689 698.834 49.9314 Q698.834 38.832 704.911 32.472 Q711.028 26.1121 721.641 26.1121 Q725.084 26.1121 728.366 26.8413 Q731.647 27.5299 734.725 28.9478 Z" fill="#000000" fill-rule="nonzero" fill-opacity="1" /><path clip-path="url(#clip090)" d="M765.269 32.4315 Q759.274 32.4315 755.79 37.1306 Q752.306 41.7891 752.306 49.9314 Q752.306 58.0738 755.75 62.7728 Q759.233 67.4314 765.269 67.4314 Q771.224 67.4314 774.708 62.7323 Q778.192 58.0333 778.192 49.9314 Q778.192 41.8701 774.708 37.1711 Q771.224 32.4315 765.269 32.4315 M765.269 26.1121 Q774.991 26.1121 780.541 32.4315 Q786.091 38.7509 786.091 49.9314 Q786.091 61.0714 780.541 67.4314 Q774.991 73.7508 765.269 73.7508 Q755.507 73.7508 749.957 67.4314 Q744.448 61.0714 744.448 49.9314 Q744.448 38.7509 749.957 32.4315 Q755.507 26.1121 765.269 26.1121 Z" fill="#000000" fill-rule="nonzero" fill-opacity="1" /><path clip-path="url(#clip090)" d="M827.37 28.5427 L827.37 35.5912 Q824.21 33.9709 820.807 33.1607 Q817.404 32.3505 813.759 32.3505 Q808.209 32.3505 805.414 34.0519 Q802.659 35.7533 802.659 39.156 Q802.659 41.7486 804.644 43.2475 Q806.629 44.7058 812.624 46.0426 L815.176 46.6097 Q823.116 48.3111 826.438 51.4303 Q829.8 54.509 829.8 60.0587 Q829.8 66.3781 824.777 70.0644 Q819.794 73.7508 811.045 73.7508 Q807.399 73.7508 803.429 73.0216 Q799.499 72.3329 795.124 70.9151 L795.124 63.2184 Q799.256 65.3654 803.267 66.4591 Q807.277 67.5124 811.207 67.5124 Q816.473 67.5124 819.308 65.73 Q822.144 63.9071 822.144 60.6258 Q822.144 57.5877 820.078 55.9673 Q818.053 54.3469 811.126 52.8481 L808.533 52.2405 Q801.606 50.7821 798.527 47.7845 Q795.449 44.7463 795.449 39.4801 Q795.449 33.0797 799.986 29.5959 Q804.523 26.1121 812.867 26.1121 Q816.999 26.1121 820.645 26.7198 Q824.291 27.3274 827.37 28.5427 Z" fill="#000000" fill-rule="nonzero" fill-opacity="1" /><path clip-path="url(#clip090)" d="M841.669 27.2059 L849.123 27.2059 L849.123 72.576 L841.669 72.576 L841.669 27.2059 M841.669 9.54393 L849.123 9.54393 L849.123 18.9825 L841.669 18.9825 L841.669 9.54393 Z" fill="#000000" fill-rule="nonzero" fill-opacity="1" /><path clip-path="url(#clip090)" d="M902.433 45.1919 L902.433 72.576 L894.979 72.576 L894.979 45.4349 Q894.979 38.994 892.468 35.7938 Q889.956 32.5936 884.933 32.5936 Q878.897 32.5936 875.413 36.4419 Q871.93 40.2903 871.93 46.9338 L871.93 72.576 L864.435 72.576 L864.435 27.2059 L871.93 27.2059 L871.93 34.2544 Q874.603 30.163 878.209 28.1376 Q881.854 26.1121 886.594 26.1121 Q894.412 26.1121 898.423 30.9732 Q902.433 35.7938 902.433 45.1919 Z" fill="#000000" fill-rule="nonzero" fill-opacity="1" /><path clip-path="url(#clip090)" d="M956.107 48.0275 L956.107 51.6733 L921.837 51.6733 Q922.323 59.3701 926.455 63.421 Q930.627 67.4314 938.04 67.4314 Q942.334 67.4314 946.345 66.3781 Q950.396 65.3249 954.366 63.2184 L954.366 70.267 Q950.355 71.9684 946.142 72.8596 Q941.929 73.7508 937.595 73.7508 Q926.738 73.7508 920.378 67.4314 Q914.059 61.1119 914.059 50.3365 Q914.059 39.1965 920.054 32.6746 Q926.09 26.1121 936.298 26.1121 Q945.454 26.1121 950.76 32.0264 Q956.107 37.9003 956.107 48.0275 M948.654 45.84 Q948.573 39.7232 945.21 36.0774 Q941.889 32.4315 936.38 32.4315 Q930.141 32.4315 926.374 35.9558 Q922.647 39.4801 922.08 45.8805 L948.654 45.84 Z" fill="#000000" fill-rule="nonzero" fill-opacity="1" /><path clip-path="url(#clip090)" d="M1023.64 28.5427 L1023.64 35.5912 Q1020.48 33.9709 1017.07 33.1607 Q1013.67 32.3505 1010.02 32.3505 Q1004.48 32.3505 1001.68 34.0519 Q998.925 35.7533 998.925 39.156 Q998.925 41.7486 1000.91 43.2475 Q1002.9 44.7058 1008.89 46.0426 L1011.44 46.6097 Q1019.38 48.3111 1022.7 51.4303 Q1026.07 54.509 1026.07 60.0587 Q1026.07 66.3781 1021.04 70.0644 Q1016.06 73.7508 1007.31 73.7508 Q1003.67 73.7508 999.695 73.0216 Q995.766 72.3329 991.391 70.9151 L991.391 63.2184 Q995.523 65.3654 999.533 66.4591 Q1003.54 67.5124 1007.47 67.5124 Q1012.74 67.5124 1015.57 65.73 Q1018.41 63.9071 1018.41 60.6258 Q1018.41 57.5877 1016.34 55.9673 Q1014.32 54.3469 1007.39 52.8481 L1004.8 52.2405 Q997.872 50.7821 994.794 47.7845 Q991.715 44.7463 991.715 39.4801 Q991.715 33.0797 996.252 29.5959 Q1000.79 26.1121 1009.13 26.1121 Q1013.27 26.1121 1016.91 26.7198 Q1020.56 27.3274 1023.64 28.5427 Z" fill="#000000" fill-rule="nonzero" fill-opacity="1" /><path clip-path="url(#clip090)" d="M1037.94 27.2059 L1045.39 27.2059 L1045.39 72.576 L1037.94 72.576 L1037.94 27.2059 M1037.94 9.54393 L1045.39 9.54393 L1045.39 18.9825 L1037.94 18.9825 L1037.94 9.54393 Z" fill="#000000" fill-rule="nonzero" fill-opacity="1" /><path clip-path="url(#clip090)" d="M1096.31 35.9153 Q1099.1 30.8922 1102.99 28.5022 Q1106.88 26.1121 1112.15 26.1121 Q1119.24 26.1121 1123.09 31.0947 Q1126.93 36.0368 1126.93 45.1919 L1126.93 72.576 L1119.44 72.576 L1119.44 45.4349 Q1119.44 38.913 1117.13 35.7533 Q1114.82 32.5936 1110.08 32.5936 Q1104.29 32.5936 1100.93 36.4419 Q1097.56 40.2903 1097.56 46.9338 L1097.56 72.576 L1090.07 72.576 L1090.07 45.4349 Q1090.07 38.8725 1087.76 35.7533 Q1085.45 32.5936 1080.63 32.5936 Q1074.92 32.5936 1071.56 36.4824 Q1068.2 40.3308 1068.2 46.9338 L1068.2 72.576 L1060.7 72.576 L1060.7 27.2059 L1068.2 27.2059 L1068.2 34.2544 Q1070.75 30.082 1074.31 28.0971 Q1077.88 26.1121 1082.78 26.1121 Q1087.72 26.1121 1091.16 28.6237 Q1094.65 31.1352 1096.31 35.9153 Z" fill="#000000" fill-rule="nonzero" fill-opacity="1" /><path clip-path="url(#clip090)" d="M1141.8 27.2059 L1149.25 27.2059 L1149.25 72.576 L1141.8 72.576 L1141.8 27.2059 M1141.8 9.54393 L1149.25 9.54393 L1149.25 18.9825 L1141.8 18.9825 L1141.8 9.54393 Z" fill="#000000" fill-rule="nonzero" fill-opacity="1" /><path clip-path="url(#clip090)" d="M1164.85 9.54393 L1172.3 9.54393 L1172.3 72.576 L1164.85 72.576 L1164.85 9.54393 Z" fill="#000000" fill-rule="nonzero" fill-opacity="1" /><path clip-path="url(#clip090)" d="M1208.52 49.7694 Q1199.49 49.7694 1196 51.8354 Q1192.52 53.9013 1192.52 58.8839 Q1192.52 62.8538 1195.11 65.2034 Q1197.74 67.5124 1202.24 67.5124 Q1208.44 67.5124 1212.17 63.1374 Q1215.93 58.7219 1215.93 51.4303 L1215.93 49.7694 L1208.52 49.7694 M1223.39 46.6907 L1223.39 72.576 L1215.93 72.576 L1215.93 65.6895 Q1213.38 69.8214 1209.57 71.8063 Q1205.76 73.7508 1200.26 73.7508 Q1193.29 73.7508 1189.16 69.8619 Q1185.06 65.9325 1185.06 59.3701 Q1185.06 51.7138 1190.17 47.825 Q1195.31 43.9361 1205.48 43.9361 L1215.93 43.9361 L1215.93 43.2069 Q1215.93 38.0623 1212.53 35.2672 Q1209.17 32.4315 1203.05 32.4315 Q1199.16 32.4315 1195.48 33.3632 Q1191.79 34.295 1188.39 36.1584 L1188.39 29.2718 Q1192.48 27.692 1196.33 26.9223 Q1200.17 26.1121 1203.82 26.1121 Q1213.66 26.1121 1218.52 31.2163 Q1223.39 36.3204 1223.39 46.6907 Z" fill="#000000" fill-rule="nonzero" fill-opacity="1" /><path clip-path="url(#clip090)" d="M1265.03 34.1734 Q1263.77 33.4443 1262.27 33.1202 Q1260.82 32.7556 1259.03 32.7556 Q1252.71 32.7556 1249.31 36.8875 Q1245.95 40.9789 1245.95 48.6757 L1245.95 72.576 L1238.46 72.576 L1238.46 27.2059 L1245.95 27.2059 L1245.95 34.2544 Q1248.3 30.1225 1252.07 28.1376 Q1255.83 26.1121 1261.22 26.1121 Q1261.99 26.1121 1262.92 26.2337 Q1263.85 26.3147 1264.99 26.5172 L1265.03 34.1734 Z" fill="#000000" fill-rule="nonzero" fill-opacity="1" /><path clip-path="url(#clip090)" d="M1272.85 27.2059 L1280.3 27.2059 L1280.3 72.576 L1272.85 72.576 L1272.85 27.2059 M1272.85 9.54393 L1280.3 9.54393 L1280.3 18.9825 L1272.85 18.9825 L1272.85 9.54393 Z" fill="#000000" fill-rule="nonzero" fill-opacity="1" /><path clip-path="url(#clip090)" d="M1303.27 14.324 L1303.27 27.2059 L1318.62 27.2059 L1318.62 32.9987 L1303.27 32.9987 L1303.27 57.6282 Q1303.27 63.1779 1304.77 64.7578 Q1306.31 66.3376 1310.97 66.3376 L1318.62 66.3376 L1318.62 72.576 L1310.97 72.576 Q1302.34 72.576 1299.06 69.3758 Q1295.78 66.1351 1295.78 57.6282 L1295.78 32.9987 L1290.31 32.9987 L1290.31 27.2059 L1295.78 27.2059 L1295.78 14.324 L1303.27 14.324 Z" fill="#000000" fill-rule="nonzero" fill-opacity="1" /><path clip-path="url(#clip090)" d="M1328.43 27.2059 L1335.88 27.2059 L1335.88 72.576 L1328.43 72.576 L1328.43 27.2059 M1328.43 9.54393 L1335.88 9.54393 L1335.88 18.9825 L1328.43 18.9825 L1328.43 9.54393 Z" fill="#000000" fill-rule="nonzero" fill-opacity="1" /><path clip-path="url(#clip090)" d="M1390.28 48.0275 L1390.28 51.6733 L1356.01 51.6733 Q1356.5 59.3701 1360.63 63.421 Q1364.8 67.4314 1372.22 67.4314 Q1376.51 67.4314 1380.52 66.3781 Q1384.57 65.3249 1388.54 63.2184 L1388.54 70.267 Q1384.53 71.9684 1380.32 72.8596 Q1376.11 73.7508 1371.77 73.7508 Q1360.91 73.7508 1354.55 67.4314 Q1348.23 61.1119 1348.23 50.3365 Q1348.23 39.1965 1354.23 32.6746 Q1360.27 26.1121 1370.47 26.1121 Q1379.63 26.1121 1384.94 32.0264 Q1390.28 37.9003 1390.28 48.0275 M1382.83 45.84 Q1382.75 39.7232 1379.39 36.0774 Q1376.06 32.4315 1370.56 32.4315 Q1364.32 32.4315 1360.55 35.9558 Q1356.82 39.4801 1356.26 45.8805 L1382.83 45.84 Z" fill="#000000" fill-rule="nonzero" fill-opacity="1" /><path clip-path="url(#clip090)" d="M1431.44 28.5427 L1431.44 35.5912 Q1428.28 33.9709 1424.88 33.1607 Q1421.48 32.3505 1417.83 32.3505 Q1412.28 32.3505 1409.48 34.0519 Q1406.73 35.7533 1406.73 39.156 Q1406.73 41.7486 1408.71 43.2475 Q1410.7 44.7058 1416.7 46.0426 L1419.25 46.6097 Q1427.19 48.3111 1430.51 51.4303 Q1433.87 54.509 1433.87 60.0587 Q1433.87 66.3781 1428.85 70.0644 Q1423.87 73.7508 1415.12 73.7508 Q1411.47 73.7508 1407.5 73.0216 Q1403.57 72.3329 1399.2 70.9151 L1399.2 63.2184 Q1403.33 65.3654 1407.34 66.4591 Q1411.35 67.5124 1415.28 67.5124 Q1420.54 67.5124 1423.38 65.73 Q1426.21 63.9071 1426.21 60.6258 Q1426.21 57.5877 1424.15 55.9673 Q1422.12 54.3469 1415.2 52.8481 L1412.6 52.2405 Q1405.68 50.7821 1402.6 47.7845 Q1399.52 44.7463 1399.52 39.4801 Q1399.52 33.0797 1404.06 29.5959 Q1408.59 26.1121 1416.94 26.1121 Q1421.07 26.1121 1424.72 26.7198 Q1428.36 27.3274 1431.44 28.5427 Z" fill="#000000" fill-rule="nonzero" fill-opacity="1" /><path clip-path="url(#clip090)" d="M1504.76 28.9478 L1504.76 35.9153 Q1501.6 34.1734 1498.4 33.3227 Q1495.24 32.4315 1492 32.4315 Q1484.75 32.4315 1480.74 37.0496 Q1476.73 41.6271 1476.73 49.9314 Q1476.73 58.2358 1480.74 62.8538 Q1484.75 67.4314 1492 67.4314 Q1495.24 67.4314 1498.4 66.5807 Q1501.6 65.6895 1504.76 63.9476 L1504.76 70.8341 Q1501.64 72.2924 1498.28 73.0216 Q1494.96 73.7508 1491.19 73.7508 Q1480.94 73.7508 1474.91 67.3098 Q1468.87 60.8689 1468.87 49.9314 Q1468.87 38.832 1474.95 32.472 Q1481.06 26.1121 1491.68 26.1121 Q1495.12 26.1121 1498.4 26.8413 Q1501.68 27.5299 1504.76 28.9478 Z" fill="#000000" fill-rule="nonzero" fill-opacity="1" /><path clip-path="url(#clip090)" d="M1556.53 48.0275 L1556.53 51.6733 L1522.26 51.6733 Q1522.75 59.3701 1526.88 63.421 Q1531.05 67.4314 1538.47 67.4314 Q1542.76 67.4314 1546.77 66.3781 Q1550.82 65.3249 1554.79 63.2184 L1554.79 70.267 Q1550.78 71.9684 1546.57 72.8596 Q1542.35 73.7508 1538.02 73.7508 Q1527.16 73.7508 1520.8 67.4314 Q1514.48 61.1119 1514.48 50.3365 Q1514.48 39.1965 1520.48 32.6746 Q1526.52 26.1121 1536.72 26.1121 Q1545.88 26.1121 1551.19 32.0264 Q1556.53 37.9003 1556.53 48.0275 M1549.08 45.84 Q1549 39.7232 1545.64 36.0774 Q1542.31 32.4315 1536.8 32.4315 Q1530.57 32.4315 1526.8 35.9558 Q1523.07 39.4801 1522.5 45.8805 L1549.08 45.84 Z" fill="#000000" fill-rule="nonzero" fill-opacity="1" /><path clip-path="url(#clip090)" d="M1568.77 9.54393 L1576.22 9.54393 L1576.22 72.576 L1568.77 72.576 L1568.77 9.54393 Z" fill="#000000" fill-rule="nonzero" fill-opacity="1" /><path clip-path="url(#clip090)" d="M1591.82 9.54393 L1599.27 9.54393 L1599.27 72.576 L1591.82 72.576 L1591.82 9.54393 Z" fill="#000000" fill-rule="nonzero" fill-opacity="1" /><path clip-path="url(#clip090)" d="M1667.08 39.9662 Q1672.96 41.222 1676.24 45.1919 Q1679.56 49.1618 1679.56 54.9951 Q1679.56 63.9476 1673.4 68.8492 Q1667.24 73.7508 1655.9 73.7508 Q1652.09 73.7508 1648.04 72.9811 Q1644.03 72.2519 1639.74 70.7531 L1639.74 62.8538 Q1643.14 64.8388 1647.19 65.8515 Q1651.24 66.8642 1655.66 66.8642 Q1663.35 66.8642 1667.37 63.826 Q1671.42 60.7879 1671.42 54.9951 Q1671.42 49.6479 1667.65 46.6502 Q1663.92 43.612 1657.24 43.612 L1650.19 43.612 L1650.19 36.8875 L1657.56 36.8875 Q1663.6 36.8875 1666.8 34.4975 Q1670 32.067 1670 27.5299 Q1670 22.8714 1666.68 20.4004 Q1663.4 17.8888 1657.24 17.8888 Q1653.88 17.8888 1650.03 18.618 Q1646.18 19.3471 1641.56 20.8865 L1641.56 13.5948 Q1646.22 12.2985 1650.27 11.6504 Q1654.36 11.0023 1657.97 11.0023 Q1667.28 11.0023 1672.71 15.2557 Q1678.14 19.4686 1678.14 26.6793 Q1678.14 31.7024 1675.26 35.1862 Q1672.39 38.6294 1667.08 39.9662 Z" fill="#000000" fill-rule="nonzero" fill-opacity="1" /><path clip-path="url(#clip090)" d="M1695.15 12.096 L1727.28 12.096 L1727.28 18.9825 L1702.65 18.9825 L1702.65 33.8088 Q1704.43 33.2012 1706.21 32.9176 Q1708 32.5936 1709.78 32.5936 Q1719.91 32.5936 1725.82 38.1433 Q1731.73 43.6931 1731.73 53.1722 Q1731.73 62.9348 1725.66 68.3631 Q1719.58 73.7508 1708.52 73.7508 Q1704.71 73.7508 1700.74 73.1026 Q1696.82 72.4545 1692.6 71.1582 L1692.6 62.9348 Q1696.25 64.9198 1700.14 65.892 Q1704.03 66.8642 1708.36 66.8642 Q1715.37 66.8642 1719.46 63.1779 Q1723.55 59.4916 1723.55 53.1722 Q1723.55 46.8528 1719.46 43.1664 Q1715.37 39.4801 1708.36 39.4801 Q1705.08 39.4801 1701.8 40.2093 Q1698.56 40.9384 1695.15 42.4778 L1695.15 12.096 Z" fill="#000000" fill-rule="nonzero" fill-opacity="1" /><path clip-path="url(#clip090)" d="M1754.91 65.6895 L1783.46 65.6895 L1783.46 72.576 L1745.06 72.576 L1745.06 65.6895 Q1749.72 60.8689 1757.74 52.7671 Q1765.8 44.6248 1767.87 42.2752 Q1771.8 37.8598 1773.34 34.8216 Q1774.92 31.7429 1774.92 28.7857 Q1774.92 23.9651 1771.51 20.927 Q1768.15 17.8888 1762.72 17.8888 Q1758.88 17.8888 1754.58 19.2256 Q1750.33 20.5624 1745.47 23.2765 L1745.47 15.0127 Q1750.41 13.0277 1754.7 12.015 Q1759 11.0023 1762.56 11.0023 Q1771.96 11.0023 1777.55 15.7013 Q1783.14 20.4004 1783.14 28.2591 Q1783.14 31.9859 1781.72 35.3482 Q1780.34 38.6699 1776.66 43.2069 Q1775.65 44.3817 1770.22 50.0125 Q1764.79 55.6027 1754.91 65.6895 Z" fill="#000000" fill-rule="nonzero" fill-opacity="1" /><path clip-path="url(#clip090)" d="M1825.96 27.2059 L1833.41 27.2059 L1833.41 72.576 L1825.96 72.576 L1825.96 27.2059 M1825.96 9.54393 L1833.41 9.54393 L1833.41 18.9825 L1825.96 18.9825 L1825.96 9.54393 Z" fill="#000000" fill-rule="nonzero" fill-opacity="1" /><path clip-path="url(#clip090)" d="M1856.38 14.324 L1856.38 27.2059 L1871.73 27.2059 L1871.73 32.9987 L1856.38 32.9987 L1856.38 57.6282 Q1856.38 63.1779 1857.88 64.7578 Q1859.42 66.3376 1864.08 66.3376 L1871.73 66.3376 L1871.73 72.576 L1864.08 72.576 Q1855.45 72.576 1852.17 69.3758 Q1848.89 66.1351 1848.89 57.6282 L1848.89 32.9987 L1843.42 32.9987 L1843.42 27.2059 L1848.89 27.2059 L1848.89 14.324 L1856.38 14.324 Z" fill="#000000" fill-rule="nonzero" fill-opacity="1" /><path clip-path="url(#clip090)" d="M1920.34 48.0275 L1920.34 51.6733 L1886.07 51.6733 Q1886.56 59.3701 1890.69 63.421 Q1894.86 67.4314 1902.28 67.4314 Q1906.57 67.4314 1910.58 66.3781 Q1914.63 65.3249 1918.6 63.2184 L1918.6 70.267 Q1914.59 71.9684 1910.38 72.8596 Q1906.17 73.7508 1901.83 73.7508 Q1890.98 73.7508 1884.62 67.4314 Q1878.3 61.1119 1878.3 50.3365 Q1878.3 39.1965 1884.29 32.6746 Q1890.33 26.1121 1900.54 26.1121 Q1909.69 26.1121 1915 32.0264 Q1920.34 37.9003 1920.34 48.0275 M1912.89 45.84 Q1912.81 39.7232 1909.45 36.0774 Q1906.13 32.4315 1900.62 32.4315 Q1894.38 32.4315 1890.61 35.9558 Q1886.88 39.4801 1886.32 45.8805 L1912.89 45.84 Z" fill="#000000" fill-rule="nonzero" fill-opacity="1" /><path clip-path="url(#clip090)" d="M1958.87 34.1734 Q1957.61 33.4443 1956.11 33.1202 Q1954.66 32.7556 1952.87 32.7556 Q1946.55 32.7556 1943.15 36.8875 Q1939.79 40.9789 1939.79 48.6757 L1939.79 72.576 L1932.29 72.576 L1932.29 27.2059 L1939.79 27.2059 L1939.79 34.2544 Q1942.14 30.1225 1945.91 28.1376 Q1949.67 26.1121 1955.06 26.1121 Q1955.83 26.1121 1956.76 26.2337 Q1957.69 26.3147 1958.83 26.5172 L1958.87 34.1734 Z" fill="#000000" fill-rule="nonzero" fill-opacity="1" /><path clip-path="url(#clip090)" d="M1987.31 49.7694 Q1978.27 49.7694 1974.79 51.8354 Q1971.3 53.9013 1971.3 58.8839 Q1971.3 62.8538 1973.9 65.2034 Q1976.53 67.5124 1981.03 67.5124 Q1987.22 67.5124 1990.95 63.1374 Q1994.72 58.7219 1994.72 51.4303 L1994.72 49.7694 L1987.31 49.7694 M2002.17 46.6907 L2002.17 72.576 L1994.72 72.576 L1994.72 65.6895 Q1992.17 69.8214 1988.36 71.8063 Q1984.55 73.7508 1979.04 73.7508 Q1972.07 73.7508 1967.94 69.8619 Q1963.85 65.9325 1963.85 59.3701 Q1963.85 51.7138 1968.95 47.825 Q1974.1 43.9361 1984.27 43.9361 L1994.72 43.9361 L1994.72 43.2069 Q1994.72 38.0623 1991.32 35.2672 Q1987.95 32.4315 1981.84 32.4315 Q1977.95 32.4315 1974.26 33.3632 Q1970.58 34.295 1967.17 36.1584 L1967.17 29.2718 Q1971.26 27.692 1975.11 26.9223 Q1978.96 26.1121 1982.61 26.1121 Q1992.45 26.1121 1997.31 31.2163 Q2002.17 36.3204 2002.17 46.6907 Z" fill="#000000" fill-rule="nonzero" fill-opacity="1" /><path clip-path="url(#clip090)" d="M2024.9 14.324 L2024.9 27.2059 L2040.25 27.2059 L2040.25 32.9987 L2024.9 32.9987 L2024.9 57.6282 Q2024.9 63.1779 2026.4 64.7578 Q2027.94 66.3376 2032.59 66.3376 L2040.25 66.3376 L2040.25 72.576 L2032.59 72.576 Q2023.97 72.576 2020.69 69.3758 Q2017.4 66.1351 2017.4 57.6282 L2017.4 32.9987 L2011.94 32.9987 L2011.94 27.2059 L2017.4 27.2059 L2017.4 14.324 L2024.9 14.324 Z" fill="#000000" fill-rule="nonzero" fill-opacity="1" /><path clip-path="url(#clip090)" d="M2050.05 27.2059 L2057.51 27.2059 L2057.51 72.576 L2050.05 72.576 L2050.05 27.2059 M2050.05 9.54393 L2057.51 9.54393 L2057.51 18.9825 L2050.05 18.9825 L2050.05 9.54393 Z" fill="#000000" fill-rule="nonzero" fill-opacity="1" /><path clip-path="url(#clip090)" d="M2090.68 32.4315 Q2084.69 32.4315 2081.21 37.1306 Q2077.72 41.7891 2077.72 49.9314 Q2077.72 58.0738 2081.17 62.7728 Q2084.65 67.4314 2090.68 67.4314 Q2096.64 67.4314 2100.12 62.7323 Q2103.61 58.0333 2103.61 49.9314 Q2103.61 41.8701 2100.12 37.1711 Q2096.64 32.4315 2090.68 32.4315 M2090.68 26.1121 Q2100.41 26.1121 2105.96 32.4315 Q2111.51 38.7509 2111.51 49.9314 Q2111.51 61.0714 2105.96 67.4314 Q2100.41 73.7508 2090.68 73.7508 Q2080.92 73.7508 2075.37 67.4314 Q2069.86 61.0714 2069.86 49.9314 Q2069.86 38.7509 2075.37 32.4315 Q2080.92 26.1121 2090.68 26.1121 Z" fill="#000000" fill-rule="nonzero" fill-opacity="1" /><path clip-path="url(#clip090)" d="M2161.58 45.1919 L2161.58 72.576 L2154.12 72.576 L2154.12 45.4349 Q2154.12 38.994 2151.61 35.7938 Q2149.1 32.5936 2144.08 32.5936 Q2138.04 32.5936 2134.56 36.4419 Q2131.07 40.2903 2131.07 46.9338 L2131.07 72.576 L2123.58 72.576 L2123.58 27.2059 L2131.07 27.2059 L2131.07 34.2544 Q2133.75 30.163 2137.35 28.1376 Q2141 26.1121 2145.74 26.1121 Q2153.55 26.1121 2157.57 30.9732 Q2161.58 35.7938 2161.58 45.1919 Z" fill="#000000" fill-rule="nonzero" fill-opacity="1" /><path clip-path="url(#clip090)" d="M2203.95 12.096 L2236.07 12.096 L2236.07 18.9825 L2211.44 18.9825 L2211.44 33.8088 Q2213.22 33.2012 2215.01 32.9176 Q2216.79 32.5936 2218.57 32.5936 Q2228.7 32.5936 2234.61 38.1433 Q2240.53 43.6931 2240.53 53.1722 Q2240.53 62.9348 2234.45 68.3631 Q2228.37 73.7508 2217.32 73.7508 Q2213.51 73.7508 2209.54 73.1026 Q2205.61 72.4545 2201.4 71.1582 L2201.4 62.9348 Q2205.04 64.9198 2208.93 65.892 Q2212.82 66.8642 2217.15 66.8642 Q2224.16 66.8642 2228.25 63.1779 Q2232.34 59.4916 2232.34 53.1722 Q2232.34 46.8528 2228.25 43.1664 Q2224.16 39.4801 2217.15 39.4801 Q2213.87 39.4801 2210.59 40.2093 Q2207.35 40.9384 2203.95 42.4778 L2203.95 12.096 Z" fill="#000000" fill-rule="nonzero" fill-opacity="1" /><polyline clip-path="url(#clip092)" style="stroke:#009af9; stroke-linecap:round; stroke-linejoin:round; stroke-width:4; stroke-opacity:1; fill:none" points="345.82,1386.4 347.771,1350.8 349.721,1341.63 351.672,1332.69 353.622,1318.61 355.572,1300.08 357.523,1287.86 359.473,1285.94 361.424,1283.08 363.374,1269.93 365.325,1264.98 367.275,1262.98 369.226,1254.87 371.176,1245.58 373.126,1243.56 375.077,1234.98 377.027,1234.94 378.978,1230.34 380.928,1228.13 382.879,1227.75 384.829,1227.75 386.779,1226.45 388.73,1219.95 390.68,1219.21 392.631,1217.22 394.581,1216.48 396.532,1216.04 398.482,1213.31 400.432,1211.25 402.383,1211.07 404.333,1210.75 406.284,1209.93 408.234,1209.06 410.185,1208.13 412.135,1204.61 414.085,1204.24 416.036,1202.02 417.986,1200.33 419.937,1195.03 421.887,1193.74 423.838,1191.2 425.788,1188.67 427.738,1188.38 429.689,1187.93 431.639,1184.74 433.59,1184.33 435.54,1184.26 437.491,1184.1 439.441,1182.99 441.391,1181.8 443.342,1179.4 445.292,1177.88 447.243,1176.74 449.193,1173.53 451.144,1173.21 453.094,1173.14 455.045,1172.43 456.995,1171.88 458.945,1167.74 460.896,1167.53 462.846,1166.51 464.797,1165.27 466.747,1164.22 468.698,1162.56 470.648,1161.46 472.598,1161.14 474.549,1160.76 476.499,1156.78 478.45,1154.42 480.4,1154.16 482.351,1152.68 484.301,1152.53 486.251,1152.09 488.202,1150.53 490.152,1148.98 492.103,1148.06 494.053,1148 496.004,1147.37 497.954,1147.35 499.904,1145.43 501.855,1145.06 503.805,1144.83 505.756,1144.59 507.706,1144.47 509.657,1144.45 511.607,1144.04 513.557,1143.83 515.508,1143.69 517.458,1143.58 519.409,1143.43 521.359,1143.38 523.31,1142.33 525.26,1141.83 527.21,1141.66 529.161,1140.92 531.111,1140.38 533.062,1139.92 535.012,1139.31 536.963,1139.3 538.913,1138.59 540.863,1136.82 542.814,1136.76 544.764,1136.57 546.715,1136.39 548.665,1136.15 550.616,1136.11 552.566,1136.11 554.517,1135.77 556.467,1135.76 558.417,1135.34 560.368,1135.31 562.318,1134.08 564.269,1133.83 566.219,1133.76 568.17,1133.59 570.12,1133.12 572.07,1132.49 574.021,1130.72 575.971,1130.12 577.922,1128.15 579.872,1127.96 581.823,1127.78 583.773,1127.15 585.723,1126.88 587.674,1126.67 589.624,1126.33 591.575,1125.72 593.525,1124.88 595.476,1124.67 597.426,1124.01 599.376,1122.51 601.327,1121.68 603.277,1121.63 605.228,1121.06 607.178,1119.76 609.129,1119.34 611.079,1118.97 613.029,1118.55 614.98,1118.5 616.93,1117.32 618.881,1116.84 620.831,1116.22 622.782,1115.54 624.732,1115.16 626.682,1114.54 628.633,1113.57 630.583,1113.49 632.534,1112.42 634.484,1112.07 636.435,1112.07 638.385,1111.82 640.336,1110.84 642.286,1110.81 644.236,1110.63 646.187,1110.09 648.137,1109.58 650.088,1109.49 652.038,1108.83 653.989,1108.79 655.939,1108.28 657.889,1107.71 659.84,1107.54 661.79,1106.85 663.741,1106.77 665.691,1106.75 667.642,1106.33 669.592,1106.18 671.542,1105.96 673.493,1105.95 675.443,1105.41 677.394,1105.37 679.344,1103.13 681.295,1103.01 683.245,1102.26 685.195,1102.24 687.146,1101.02 689.096,1100.62 691.047,1100.35 692.997,1099.85 694.948,1099.62 696.898,1098.62 698.848,1098.07 700.799,1097.68 702.749,1097.43 704.7,1096.63 706.65,1095.94 708.601,1095.7 710.551,1095.06 712.501,1094.51 714.452,1094.28 716.402,1093.92 718.353,1093.9 720.303,1092.91 722.254,1092.88 724.204,1092.52 726.154,1092.29 728.105,1091.63 730.055,1091.53 732.006,1091.51 733.956,1090.82 735.907,1090.23 737.857,1090.21 739.808,1089.93 741.758,1089.85 743.708,1089.74 745.659,1089.27 747.609,1089.09 749.56,1088.93 751.51,1088.84 753.461,1088.61 755.411,1088.51 757.361,1088.29 759.312,1087.06 761.262,1086.91 763.213,1086.85 765.163,1086.53 767.114,1086.44 769.064,1086.2 771.014,1086.2 772.965,1084.45 774.915,1083.88 776.866,1083.62 778.816,1083.48 780.767,1083.48 782.717,1083.36 784.667,1082.79 786.618,1082.4 788.568,1081.87 790.519,1081.76 792.469,1081.75 794.42,1080.41 796.37,1080.32 798.32,1080.06 800.271,1079.81 802.221,1079.06 804.172,1078.35 806.122,1078.33 808.073,1078.19 810.023,1077.73 811.973,1077.7 813.924,1077.46 815.874,1077.23 817.825,1076.43 819.775,1076.24 821.726,1076.22 823.676,1076.14 825.627,1075.95 827.577,1075.39 829.527,1074.72 831.478,1074.66 833.428,1074.66 835.379,1074.5 837.329,1074.42 839.28,1074.38 841.23,1073.55 843.18,1073.15 845.131,1072.9 847.081,1072.86 849.032,1072.38 850.982,1071.67 852.933,1071.64 854.883,1071.49 856.833,1071.47 858.784,1071.39 860.734,1070.75 862.685,1070.46 864.635,1070.14 866.586,1069.24 868.536,1068.82 870.486,1068.5 872.437,1068.41 874.387,1068.23 876.338,1068.07 878.288,1066.98 880.239,1066.97 882.189,1066.57 884.139,1066.54 886.09,1066.21 888.04,1066.11 889.991,1065.91 891.941,1065.7 893.892,1065.07 895.842,1064.97 897.792,1064.43 899.743,1063.72 901.693,1063.55 903.644,1063.47 905.594,1063.4 907.545,1063.29 909.495,1063.16 911.445,1062.84 913.396,1062.39 915.346,1061.8 917.297,1061.77 919.247,1061.73 921.198,1061.61 923.148,1061.38 925.099,1060.6 927.049,1060.6 928.999,1060.56 930.95,1060.38 932.9,1060.03 934.851,1059.67 936.801,1059.59 938.752,1058.88 940.702,1058.59 942.652,1058.31 944.603,1058.22 946.553,1057.66 948.504,1057.6 950.454,1057.5 952.405,1057.5 954.355,1057.4 956.305,1057.25 958.256,1056.75 960.206,1056.59 962.157,1056.48 964.107,1056.45 966.058,1056.39 968.008,1056.19 969.958,1056.03 971.909,1055.84 973.859,1055.68 975.81,1055.66 977.76,1055.6 979.711,1055.49 981.661,1055.22 983.611,1055.2 985.562,1055 987.512,1054.7 989.463,1054.43 991.413,1054.19 993.364,1053.84 995.314,1053.04 997.264,1052.7 999.215,1052.47 1001.17,1052.23 1003.12,1052.03 1005.07,1051.87 1007.02,1051.58 1008.97,1051.2 1010.92,1050.94 1012.87,1050.85 1014.82,1050.83 1016.77,1050.47 1018.72,1050.36 1020.67,1049.78 1022.62,1049.62 1024.57,1049.58 1026.52,1049.53 1028.47,1049.34 1030.42,1049.11 1032.37,1049.04 1034.32,1049.02 1036.27,1048.8 1038.22,1048.53 1040.17,1048.47 1042.12,1048.25 1044.07,1047.4 1046.03,1047.34 1047.98,1046.73 1049.93,1046.43 1051.88,1046.39 1053.83,1046.27 1055.78,1046.26 1057.73,1046.09 1059.68,1045.76 1061.63,1045.16 1063.58,1044.97 1065.53,1044.21 1067.48,1043.53 1069.43,1042.84 1071.38,1042.7 1073.33,1042.39 1075.28,1042.37 1077.23,1042.36 1079.18,1042.31 1081.13,1042.26 1083.08,1042.2 1085.03,1042.19 1086.98,1041.42 1088.93,1041.16 1090.89,1040.27 1092.84,1039.99 1094.79,1039.93 1096.74,1039.88 1098.69,1039.23 1100.64,1039.18 1102.59,1038.98 1104.54,1038.91 1106.49,1038.55 1108.44,1038.26 1110.39,1037.98 1112.34,1037.49 1114.29,1037.25 1116.24,1036.75 1118.19,1035.99 1120.14,1035.68 1122.09,1035.54 1124.04,1035.1 1125.99,1035.04 1127.94,1034.6 1129.89,1034.6 1131.84,1034.45 1133.79,1034.36 1135.75,1034.16 1137.7,1033.21 1139.65,1032.93 1141.6,1032.37 1143.55,1032.06 1145.5,1032.03 1147.45,1031.96 1149.4,1031.96 1151.35,1031.24 1153.3,1030.85 1155.25,1030.8 1157.2,1030.46 1159.15,1029.82 1161.1,1029.67 1163.05,1029.61 1165,1029.53 1166.95,1029.23 1168.9,1028.75 1170.85,1028.73 1172.8,1027.78 1174.75,1027.63 1176.7,1027.58 1178.65,1027.43 1180.61,1027.2 1182.56,1027.19 1184.51,1026.55 1186.46,1026.13 1188.41,1025.98 1190.36,1025.81 1192.31,1025.72 1194.26,1025.71 1196.21,1025.64 1198.16,1025.6 1200.11,1025.3 1202.06,1025.14 1204.01,1025.01 1205.96,1024.94 1207.91,1024.23 1209.86,1024.01 1211.81,1023.85 1213.76,1023.64 1215.71,1022.8 1217.66,1022.73 1219.61,1022.72 1221.56,1021.94 1223.51,1021.85 1225.46,1021.83 1227.42,1021.29 1229.37,1021.23 1231.32,1020.79 1233.27,1020.26 1235.22,1020.09 1237.17,1019.98 1239.12,1019.65 1241.07,1019.64 1243.02,1019.52 1244.97,1019.18 1246.92,1019.09 1248.87,1018.7 1250.82,1018.55 1252.77,1018.44 1254.72,1018.44 1256.67,1018.37 1258.62,1018.37 1260.57,1018.33 1262.52,1018.32 1264.47,1017.91 1266.42,1017.8 1268.37,1017.31 1270.32,1017.19 1272.28,1017.18 1274.23,1017.04 1276.18,1017.03 1278.13,1016.62 1280.08,1016.36 1282.03,1016.35 1283.98,1016.03 1285.93,1015.88 1287.88,1015.88 1289.83,1015.39 1291.78,1015.29 1293.73,1015.14 1295.68,1015 1297.63,1014.84 1299.58,1014.58 1301.53,1014.46 1303.48,1012.84 1305.43,1012.61 1307.38,1011.83 1309.33,1011.69 1311.28,1011.68 1313.23,1011.45 1315.18,1011.38 1317.14,1011.3 1319.09,1011.26 1321.04,1009.94 1322.99,1009.63 1324.94,1009.39 1326.89,1009.38 1328.84,1009.03 1330.79,1008.99 1332.74,1008.78 1334.69,1008.68 1336.64,1008.68 1338.59,1008.6 1340.54,1008.2 1342.49,1007.5 1344.44,1006.44 1346.39,1006.34 1348.34,1005.98 1350.29,1005.7 1352.24,1005.04 1354.19,1004.99 1356.14,1004.9 1358.09,1003.83 1360.04,1003.19 1362,1002.84 1363.95,1002.71 1365.9,1001.99 1367.85,1001.89 1369.8,1001.72 1371.75,1001.51 1373.7,1000.89 1375.65,1000.51 1377.6,999.849 1379.55,999.805 1381.5,999.8 1383.45,999.798 1385.4,999.672 1387.35,999.277 1389.3,999.118 1391.25,998.518 1393.2,998.445 1395.15,998.228 1397.1,997.931 1399.05,997.655 1401,997.588 1402.95,997.458 1404.9,996.433 1406.86,995.871 1408.81,995.869 1410.76,995.384 1412.71,994.804 1414.66,994.679 1416.61,993.823 1418.56,993.262 1420.51,993.205 1422.46,992.993 1424.41,992.977 1426.36,992.966 1428.31,992.845 1430.26,992.533 1432.21,992.457 1434.16,991.787 1436.11,991.746 1438.06,991.522 1440.01,991.404 1441.96,991.154 1443.91,990.709 1445.86,990.687 1447.81,990.503 1449.76,990.044 1451.72,990.024 1453.67,989.798 1455.62,989.66 1457.57,989.022 1459.52,988.5 1461.47,988.402 1463.42,988.011 1465.37,987.106 1467.32,987.016 1469.27,986.978 1471.22,986.922 1473.17,986.645 1475.12,986.545 1477.07,985.966 1479.02,984.983 1480.97,984.722 1482.92,984.27 1484.87,984.141 1486.82,983.8 1488.77,983.667 1490.72,983.583 1492.67,982.284 1494.62,981.573 1496.57,981.478 1498.53,981.154 1500.48,981.126 1502.43,980.957 1504.38,980.154 1506.33,979.335 1508.28,979.24 1510.23,978.992 1512.18,978.759 1514.13,977.857 1516.08,977.722 1518.03,977.472 1519.98,977.359 1521.93,976.82 1523.88,976.811 1525.83,976.627 1527.78,976.053 1529.73,975.284 1531.68,975.26 1533.63,975.177 1535.58,974.754 1537.53,974.282 1539.48,974.215 1541.43,973.999 1543.39,973.556 1545.34,973.425 1547.29,972.69 1549.24,972.535 1551.19,971.955 1553.14,971.853 1555.09,971.569 1557.04,971.102 1558.99,970.971 1560.94,970.432 1562.89,970.052 1564.84,969.065 1566.79,967.685 1568.74,967.366 1570.69,967.285 1572.64,967.027 1574.59,965.996 1576.54,965.965 1578.49,965.024 1580.44,964.386 1582.39,964.14 1584.34,963.926 1586.29,963.885 1588.25,963.557 1590.2,962.985 1592.15,962.907 1594.1,962.875 1596.05,962.759 1598,962.196 1599.95,960.402 1601.9,959.817 1603.85,959.69 1605.8,959.655 1607.75,959.361 1609.7,958.888 1611.65,958.149 1613.6,957.825 1615.55,957.613 1617.5,957.529 1619.45,957.459 1621.4,957.058 1623.35,957.042 1625.3,955.837 1627.25,955.361 1629.2,955.187 1631.15,954.882 1633.11,954.236 1635.06,953.585 1637.01,953.488 1638.96,952.889 1640.91,952.871 1642.86,952.75 1644.81,952.6 1646.76,952.526 1648.71,951.625 1650.66,951.564 1652.61,951.044 1654.56,950.826 1656.51,950.211 1658.46,949.967 1660.41,949.426 1662.36,949.383 1664.31,949.066 1666.26,947.939 1668.21,947.892 1670.16,946.87 1672.11,945.996 1674.06,945.395 1676.01,945.175 1677.97,944.356 1679.92,943.983 1681.87,943.262 1683.82,942.46 1685.77,940.767 1687.72,939.791 1689.67,939.732 1691.62,939.258 1693.57,938.531 1695.52,937.433 1697.47,937.248 1699.42,936.342 1701.37,935.397 1703.32,934.484 1705.27,933.942 1707.22,933.532 1709.17,933.315 1711.12,933.22 1713.07,931.411 1715.02,931.286 1716.97,931.056 1718.92,928.751 1720.87,927.682 1722.83,927.265 1724.78,926.885 1726.73,926.651 1728.68,924.768 1730.63,924.25 1732.58,923.02 1734.53,919.844 1736.48,917.974 1738.43,916.604 1740.38,916.572 1742.33,916.557 1744.28,915.712 1746.23,915.264 1748.18,912.047 1750.13,911.514 1752.08,909.804 1754.03,901.787 1755.98,901.628 1757.93,901.495 1759.88,901.424 1761.83,900.154 1763.78,896.049 1765.73,895.1 1767.68,893.262 1769.64,892.772 1771.59,892.619 1773.54,890.255 1775.49,885.153 1777.44,875.955 1779.39,874.25 1781.34,870.998 1783.29,868.009 1785.24,862.438 1787.19,862.378 1789.14,859.471 1791.09,858.077 1793.04,856.103 1794.99,854.22 1796.94,851.774 1798.89,850.143 1800.84,821.835 1802.79,799.265 1804.74,781.115 1806.69,706.94 1808.64,648.056 1810.59,639.891 1812.54,627.737 1814.5,627.051 1816.45,620.153 1818.4,613.564 1820.35,596.756 1822.3,585.808 1824.25,582.365 1826.2,574.207 1828.15,571.83 1830.1,567.807 1832.05,564.957 1834,562.606 1835.95,513.882 1837.9,513.186 1839.85,510.267 1841.8,506.441 1843.75,505.552 1845.7,503.78 1847.65,499.797 1849.6,498.655 1851.55,492.003 1853.5,487.017 1855.45,486.608 1857.4,485.709 1859.36,483.547 1861.31,479.088 1863.26,474.857 1865.21,472.852 1867.16,472.466 1869.11,470.07 1871.06,467.448 1873.01,466.974 1874.96,464.877 1876.91,463.666 1878.86,459.725 1880.81,459.203 1882.76,455.02 1884.71,451.441 1886.66,445.041 1888.61,444.807 1890.56,444.798 1892.51,442.445 1894.46,441.96 1896.41,439.181 1898.36,439.164 1900.31,437.167 1902.26,436.357 1904.22,435.757 1906.17,435.723 1908.12,435.711 1910.07,432.152 1912.02,431.49 1913.97,428.234 1915.92,426.101 1917.87,425.53 1919.82,422.844 1921.77,422.111 1923.72,421.816 1925.67,421.482 1927.62,421.405 1929.57,420.903 1931.52,418.486 1933.47,416.404 1935.42,416.226 1937.37,416.015 1939.32,413.183 1941.27,410.028 1943.22,408.773 1945.17,408.588 1947.12,408.555 1949.08,408.406 1951.03,407.701 1952.98,407.42 1954.93,407.273 1956.88,406.777 1958.83,404.1 1960.78,403.443 1962.73,400.419 1964.68,396.838 1966.63,396.432 1968.58,395.987 1970.53,393.832 1972.48,392.679 1974.43,392.574 1976.38,392.273 1978.33,390.975 1980.28,390.601 1982.23,389.553 1984.18,388.803 1986.13,387.794 1988.08,387.645 1990.03,387.402 1991.98,387.189 1993.94,386.071 1995.89,382.167 1997.84,381.632 1999.79,381.213 2001.74,381.18 2003.69,379.302 2005.64,379.153 2007.59,378.649 2009.54,378.493 2011.49,377.869 2013.44,376.181 2015.39,373.236 2017.34,371.56 2019.29,370.733 2021.24,370.061 2023.19,369.528 2025.14,368.298 2027.09,366.873 2029.04,366.736 2030.99,365.799 2032.94,363.074 2034.89,362.744 2036.84,361.779 2038.79,361.738 2040.75,360.994 2042.7,359.245 2044.65,359.117 2046.6,358.61 2048.55,357.53 2050.5,357.396 2052.45,356.331 2054.4,355.14 2056.35,354.971 2058.3,354.377 2060.25,352.871 2062.2,351.287 2064.15,351.088 2066.1,350.813 2068.05,350.24 2070,349.762 2071.95,345.827 2073.9,345.517 2075.85,343.943 2077.8,343.101 2079.75,342.706 2081.7,342.366 2083.65,341.355 2085.61,341.079 2087.56,339.945 2089.51,339.384 2091.46,337.203 2093.41,334.887 2095.36,334.596 2097.31,334.323 2099.26,334.118 2101.21,333.101 2103.16,332.33 2105.11,332.2 2107.06,331.992 2109.01,331.587 2110.96,331.496 2112.91,330.08 2114.86,329.748 2116.81,326.754 2118.76,326.695 2120.71,326.124 2122.66,326.107 2124.61,325.236 2126.56,325.147 2128.51,324.383 2130.47,323.656 2132.42,319.713 2134.37,319.587 2136.32,316.42 2138.27,314.124 2140.22,313.442 2142.17,313.062 2144.12,313.052 2146.07,313.021 2148.02,312.739 2149.97,312.708 2151.92,309.966 2153.87,309.6 2155.82,309.187 2157.77,308.688 2159.72,308.481 2161.67,308.365 2163.62,307.179 2165.57,306.6 2167.52,306.278 2169.47,304.863 2171.42,304.172 2173.37,302.422 2175.33,302.026 2177.28,300.871 2179.23,300.858 2181.18,300.26 2183.13,299.969 2185.08,296.652 2187.03,296.317 2188.98,296.062 2190.93,294.412 2192.88,293.974 2194.83,293.197 2196.78,292.322 2198.73,292.17 2200.68,291.082 2202.63,284.295 2204.58,279.851 2206.53,277.882 2208.48,277.228 2210.43,277.152 2212.38,277.038 2214.33,276.624 2216.28,275.855 2218.23,272.454 2220.19,270.376 2222.14,269.005 2224.09,268.799 2226.04,268.644 2227.99,266.925 2229.94,266.819 2231.89,265.938 2233.84,264.356 2235.79,264.298 2237.74,261.864 2239.69,261.201 2241.64,259.685 2243.59,258.838 2245.54,258.51 2247.49,256.042 2249.44,255.698 2251.39,254.746 2253.34,251.806 2255.29,244.364 2257.24,241.693 2259.19,239.263 2261.14,238.839 2263.09,236.316 2265.04,235.172 2267,233.79 2268.95,233.774 2270.9,231.664 2272.85,231.602 2274.8,228.441 2276.75,226.788 2278.7,224.836 2280.65,222.355 2282.6,211.606 2284.55,200.602 2286.5,192.843 2288.45,192.368 2290.4,174.413 2292.35,165.617 2294.3,160.256 "/>
<path clip-path="url(#clip090)" d="M356.212 270.476 L782.357 270.476 L782.357 166.796 L356.212 166.796  Z" fill="#ffffff" fill-rule="evenodd" fill-opacity="1"/>
<polyline clip-path="url(#clip090)" style="stroke:#000000; stroke-linecap:round; stroke-linejoin:round; stroke-width:4; stroke-opacity:1; fill:none" points="356.212,270.476 782.357,270.476 782.357,166.796 356.212,166.796 356.212,270.476 "/>
<polyline clip-path="url(#clip090)" style="stroke:#009af9; stroke-linecap:round; stroke-linejoin:round; stroke-width:4; stroke-opacity:1; fill:none" points="379.161,218.636 516.854,218.636 "/>
<path clip-path="url(#clip090)" d="M562.048 202.49 L562.048 207.05 Q559.386 205.777 557.025 205.152 Q554.663 204.527 552.464 204.527 Q548.645 204.527 546.562 206.008 Q544.502 207.49 544.502 210.221 Q544.502 212.513 545.867 213.694 Q547.256 214.851 551.099 215.569 L553.923 216.147 Q559.154 217.143 561.631 219.666 Q564.131 222.166 564.131 226.379 Q564.131 231.402 560.751 233.994 Q557.395 236.587 550.89 236.587 Q548.437 236.587 545.659 236.031 Q542.904 235.476 539.941 234.388 L539.941 229.573 Q542.789 231.17 545.52 231.981 Q548.251 232.791 550.89 232.791 Q554.895 232.791 557.071 231.217 Q559.247 229.643 559.247 226.726 Q559.247 224.18 557.673 222.744 Q556.122 221.309 552.557 220.592 L549.71 220.036 Q544.478 218.995 542.14 216.772 Q539.802 214.55 539.802 210.592 Q539.802 206.008 543.02 203.37 Q546.261 200.731 551.932 200.731 Q554.363 200.731 556.886 201.171 Q559.409 201.61 562.048 202.49 Z" fill="#000000" fill-rule="nonzero" fill-opacity="1" /><path clip-path="url(#clip090)" d="M571.237 209.99 L575.497 209.99 L575.497 235.916 L571.237 235.916 L571.237 209.99 M571.237 199.897 L575.497 199.897 L575.497 205.291 L571.237 205.291 L571.237 199.897 Z" fill="#000000" fill-rule="nonzero" fill-opacity="1" /><path clip-path="url(#clip090)" d="M604.594 214.967 Q606.191 212.096 608.413 210.731 Q610.635 209.365 613.645 209.365 Q617.696 209.365 619.895 212.212 Q622.094 215.036 622.094 220.268 L622.094 235.916 L617.811 235.916 L617.811 220.407 Q617.811 216.68 616.492 214.874 Q615.172 213.069 612.464 213.069 Q609.154 213.069 607.233 215.268 Q605.311 217.467 605.311 221.263 L605.311 235.916 L601.029 235.916 L601.029 220.407 Q601.029 216.657 599.71 214.874 Q598.39 213.069 595.635 213.069 Q592.372 213.069 590.45 215.291 Q588.529 217.49 588.529 221.263 L588.529 235.916 L584.247 235.916 L584.247 209.99 L588.529 209.99 L588.529 214.018 Q589.987 211.633 592.024 210.499 Q594.061 209.365 596.862 209.365 Q599.686 209.365 601.654 210.8 Q603.645 212.235 604.594 214.967 Z" fill="#000000" fill-rule="nonzero" fill-opacity="1" /><path clip-path="url(#clip090)" d="M630.589 209.99 L634.848 209.99 L634.848 235.916 L630.589 235.916 L630.589 209.99 M630.589 199.897 L634.848 199.897 L634.848 205.291 L630.589 205.291 L630.589 199.897 Z" fill="#000000" fill-rule="nonzero" fill-opacity="1" /><path clip-path="url(#clip090)" d="M643.76 199.897 L648.019 199.897 L648.019 235.916 L643.76 235.916 L643.76 199.897 Z" fill="#000000" fill-rule="nonzero" fill-opacity="1" /><path clip-path="url(#clip090)" d="M668.714 222.883 Q663.552 222.883 661.561 224.064 Q659.57 225.244 659.57 228.092 Q659.57 230.36 661.052 231.703 Q662.556 233.022 665.126 233.022 Q668.668 233.022 670.797 230.522 Q672.95 227.999 672.95 223.832 L672.95 222.883 L668.714 222.883 M677.209 221.124 L677.209 235.916 L672.95 235.916 L672.95 231.981 Q671.492 234.342 669.316 235.476 Q667.14 236.587 663.992 236.587 Q660.01 236.587 657.649 234.365 Q655.311 232.119 655.311 228.369 Q655.311 223.994 658.228 221.772 Q661.168 219.55 666.978 219.55 L672.95 219.55 L672.95 219.133 Q672.95 216.194 671.005 214.596 Q669.084 212.976 665.589 212.976 Q663.367 212.976 661.26 213.508 Q659.154 214.041 657.209 215.106 L657.209 211.17 Q659.547 210.268 661.746 209.828 Q663.945 209.365 666.029 209.365 Q671.654 209.365 674.431 212.282 Q677.209 215.198 677.209 221.124 Z" fill="#000000" fill-rule="nonzero" fill-opacity="1" /><path clip-path="url(#clip090)" d="M701.005 213.971 Q700.288 213.555 699.431 213.37 Q698.598 213.161 697.579 213.161 Q693.968 213.161 692.024 215.522 Q690.103 217.86 690.103 222.258 L690.103 235.916 L685.82 235.916 L685.82 209.99 L690.103 209.99 L690.103 214.018 Q691.445 211.657 693.598 210.522 Q695.751 209.365 698.829 209.365 Q699.269 209.365 699.802 209.434 Q700.334 209.481 700.982 209.596 L701.005 213.971 Z" fill="#000000" fill-rule="nonzero" fill-opacity="1" /><path clip-path="url(#clip090)" d="M705.473 209.99 L709.732 209.99 L709.732 235.916 L705.473 235.916 L705.473 209.99 M705.473 199.897 L709.732 199.897 L709.732 205.291 L705.473 205.291 L705.473 199.897 Z" fill="#000000" fill-rule="nonzero" fill-opacity="1" /><path clip-path="url(#clip090)" d="M722.857 202.629 L722.857 209.99 L731.63 209.99 L731.63 213.3 L722.857 213.3 L722.857 227.374 Q722.857 230.545 723.714 231.448 Q724.593 232.351 727.255 232.351 L731.63 232.351 L731.63 235.916 L727.255 235.916 Q722.325 235.916 720.45 234.087 Q718.575 232.235 718.575 227.374 L718.575 213.3 L715.45 213.3 L715.45 209.99 L718.575 209.99 L718.575 202.629 L722.857 202.629 Z" fill="#000000" fill-rule="nonzero" fill-opacity="1" /><path clip-path="url(#clip090)" d="M748.019 238.323 Q746.213 242.953 744.5 244.365 Q742.787 245.777 739.917 245.777 L736.514 245.777 L736.514 242.212 L739.014 242.212 Q740.774 242.212 741.746 241.379 Q742.718 240.545 743.899 237.443 L744.662 235.499 L734.176 209.99 L738.69 209.99 L746.792 230.268 L754.894 209.99 L759.408 209.99 L748.019 238.323 Z" fill="#000000" fill-rule="nonzero" fill-opacity="1" /></svg>
