<?xml version="1.0" encoding="utf-8"?>
<svg xmlns="http://www.w3.org/2000/svg" xmlns:xlink="http://www.w3.org/1999/xlink" width="600" height="400" viewBox="0 0 2400 1600">
<defs>
  <clipPath id="clip690">
    <rect x="0" y="0" width="2400" height="1600"/>
  </clipPath>
</defs>
<path clip-path="url(#clip690)" d="M0 1600 L2400 1600 L2400 8.88178e-14 L0 8.88178e-14  Z" fill="#ffffff" fill-rule="evenodd" fill-opacity="1"/>
<defs>
  <clipPath id="clip691">
    <rect x="480" y="0" width="1681" height="1600"/>
  </clipPath>
</defs>
<path clip-path="url(#clip690)" d="M287.366 1423.18 L2352.76 1423.18 L2352.76 123.472 L287.366 123.472  Z" fill="#ffffff" fill-rule="evenodd" fill-opacity="1"/>
<defs>
  <clipPath id="clip692">
    <rect x="287" y="123" width="2066" height="1301"/>
  </clipPath>
</defs>
<polyline clip-path="url(#clip692)" style="stroke:#000000; stroke-linecap:round; stroke-linejoin:round; stroke-width:2; stroke-opacity:0.1; fill:none" points="343.87,1423.18 343.87,123.472 "/>
<polyline clip-path="url(#clip692)" style="stroke:#000000; stroke-linecap:round; stroke-linejoin:round; stroke-width:2; stroke-opacity:0.1; fill:none" points="831.478,1423.18 831.478,123.472 "/>
<polyline clip-path="url(#clip692)" style="stroke:#000000; stroke-linecap:round; stroke-linejoin:round; stroke-width:2; stroke-opacity:0.1; fill:none" points="1319.09,1423.18 1319.09,123.472 "/>
<polyline clip-path="url(#clip692)" style="stroke:#000000; stroke-linecap:round; stroke-linejoin:round; stroke-width:2; stroke-opacity:0.1; fill:none" points="1806.69,1423.18 1806.69,123.472 "/>
<polyline clip-path="url(#clip692)" style="stroke:#000000; stroke-linecap:round; stroke-linejoin:round; stroke-width:2; stroke-opacity:0.1; fill:none" points="2294.3,1423.18 2294.3,123.472 "/>
<polyline clip-path="url(#clip690)" style="stroke:#000000; stroke-linecap:round; stroke-linejoin:round; stroke-width:4; stroke-opacity:1; fill:none" points="287.366,1423.18 2352.76,1423.18 "/>
<polyline clip-path="url(#clip690)" style="stroke:#000000; stroke-linecap:round; stroke-linejoin:round; stroke-width:4; stroke-opacity:1; fill:none" points="343.87,1423.18 343.87,1404.28 "/>
<polyline clip-path="url(#clip690)" style="stroke:#000000; stroke-linecap:round; stroke-linejoin:round; stroke-width:4; stroke-opacity:1; fill:none" points="831.478,1423.18 831.478,1404.28 "/>
<polyline clip-path="url(#clip690)" style="stroke:#000000; stroke-linecap:round; stroke-linejoin:round; stroke-width:4; stroke-opacity:1; fill:none" points="1319.09,1423.18 1319.09,1404.28 "/>
<polyline clip-path="url(#clip690)" style="stroke:#000000; stroke-linecap:round; stroke-linejoin:round; stroke-width:4; stroke-opacity:1; fill:none" points="1806.69,1423.18 1806.69,1404.28 "/>
<polyline clip-path="url(#clip690)" style="stroke:#000000; stroke-linecap:round; stroke-linejoin:round; stroke-width:4; stroke-opacity:1; fill:none" points="2294.3,1423.18 2294.3,1404.28 "/>
<path clip-path="url(#clip690)" d="M343.87 1454.1 Q340.259 1454.1 338.43 1457.66 Q336.625 1461.2 336.625 1468.33 Q336.625 1475.44 338.43 1479.01 Q340.259 1482.55 343.87 1482.55 Q347.504 1482.55 349.31 1479.01 Q351.138 1475.44 351.138 1468.33 Q351.138 1461.2 349.31 1457.66 Q347.504 1454.1 343.87 1454.1 M343.87 1450.39 Q349.68 1450.39 352.736 1455 Q355.814 1459.58 355.814 1468.33 Q355.814 1477.06 352.736 1481.67 Q349.68 1486.25 343.87 1486.25 Q338.06 1486.25 334.981 1481.67 Q331.926 1477.06 331.926 1468.33 Q331.926 1459.58 334.981 1455 Q338.06 1450.39 343.87 1450.39 Z" fill="#000000" fill-rule="nonzero" fill-opacity="1" /><path clip-path="url(#clip690)" d="M795.17 1481.64 L811.489 1481.64 L811.489 1485.58 L789.545 1485.58 L789.545 1481.64 Q792.207 1478.89 796.79 1474.26 Q801.397 1469.61 802.577 1468.27 Q804.823 1465.74 805.702 1464.01 Q806.605 1462.25 806.605 1460.56 Q806.605 1457.8 804.661 1456.07 Q802.74 1454.33 799.638 1454.33 Q797.439 1454.33 794.985 1455.09 Q792.554 1455.86 789.777 1457.41 L789.777 1452.69 Q792.601 1451.55 795.054 1450.97 Q797.508 1450.39 799.545 1450.39 Q804.915 1450.39 808.11 1453.08 Q811.304 1455.77 811.304 1460.26 Q811.304 1462.39 810.494 1464.31 Q809.707 1466.2 807.601 1468.8 Q807.022 1469.47 803.92 1472.69 Q800.818 1475.88 795.17 1481.64 Z" fill="#000000" fill-rule="nonzero" fill-opacity="1" /><path clip-path="url(#clip690)" d="M821.351 1451.02 L839.707 1451.02 L839.707 1454.96 L825.633 1454.96 L825.633 1463.43 Q826.651 1463.08 827.67 1462.92 Q828.688 1462.73 829.707 1462.73 Q835.494 1462.73 838.874 1465.9 Q842.253 1469.08 842.253 1474.49 Q842.253 1480.07 838.781 1483.17 Q835.309 1486.25 828.989 1486.25 Q826.813 1486.25 824.545 1485.88 Q822.3 1485.51 819.892 1484.77 L819.892 1480.07 Q821.976 1481.2 824.198 1481.76 Q826.42 1482.32 828.897 1482.32 Q832.901 1482.32 835.239 1480.21 Q837.577 1478.1 837.577 1474.49 Q837.577 1470.88 835.239 1468.77 Q832.901 1466.67 828.897 1466.67 Q827.022 1466.67 825.147 1467.08 Q823.295 1467.5 821.351 1468.38 L821.351 1451.02 Z" fill="#000000" fill-rule="nonzero" fill-opacity="1" /><path clip-path="url(#clip690)" d="M861.466 1454.1 Q857.855 1454.1 856.026 1457.66 Q854.221 1461.2 854.221 1468.33 Q854.221 1475.44 856.026 1479.01 Q857.855 1482.55 861.466 1482.55 Q865.1 1482.55 866.906 1479.01 Q868.735 1475.44 868.735 1468.33 Q868.735 1461.2 866.906 1457.66 Q865.1 1454.1 861.466 1454.1 M861.466 1450.39 Q867.276 1450.39 870.332 1455 Q873.41 1459.58 873.41 1468.33 Q873.41 1477.06 870.332 1481.67 Q867.276 1486.25 861.466 1486.25 Q855.656 1486.25 852.577 1481.67 Q849.522 1477.06 849.522 1468.33 Q849.522 1459.58 852.577 1455 Q855.656 1450.39 861.466 1450.39 Z" fill="#000000" fill-rule="nonzero" fill-opacity="1" /><path clip-path="url(#clip690)" d="M1278.7 1451.02 L1297.06 1451.02 L1297.06 1454.96 L1282.99 1454.96 L1282.99 1463.43 Q1284 1463.08 1285.02 1462.92 Q1286.04 1462.73 1287.06 1462.73 Q1292.85 1462.73 1296.23 1465.9 Q1299.61 1469.08 1299.61 1474.49 Q1299.61 1480.07 1296.13 1483.17 Q1292.66 1486.25 1286.34 1486.25 Q1284.17 1486.25 1281.9 1485.88 Q1279.65 1485.51 1277.25 1484.77 L1277.25 1480.07 Q1279.33 1481.2 1281.55 1481.76 Q1283.77 1482.32 1286.25 1482.32 Q1290.25 1482.32 1292.59 1480.21 Q1294.93 1478.1 1294.93 1474.49 Q1294.93 1470.88 1292.59 1468.77 Q1290.25 1466.67 1286.25 1466.67 Q1284.38 1466.67 1282.5 1467.08 Q1280.65 1467.5 1278.7 1468.38 L1278.7 1451.02 Z" fill="#000000" fill-rule="nonzero" fill-opacity="1" /><path clip-path="url(#clip690)" d="M1318.82 1454.1 Q1315.21 1454.1 1313.38 1457.66 Q1311.57 1461.2 1311.57 1468.33 Q1311.57 1475.44 1313.38 1479.01 Q1315.21 1482.55 1318.82 1482.55 Q1322.45 1482.55 1324.26 1479.01 Q1326.09 1475.44 1326.09 1468.33 Q1326.09 1461.2 1324.26 1457.66 Q1322.45 1454.1 1318.82 1454.1 M1318.82 1450.39 Q1324.63 1450.39 1327.69 1455 Q1330.76 1459.58 1330.76 1468.33 Q1330.76 1477.06 1327.69 1481.67 Q1324.63 1486.25 1318.82 1486.25 Q1313.01 1486.25 1309.93 1481.67 Q1306.88 1477.06 1306.88 1468.33 Q1306.88 1459.58 1309.93 1455 Q1313.01 1450.39 1318.82 1450.39 Z" fill="#000000" fill-rule="nonzero" fill-opacity="1" /><path clip-path="url(#clip690)" d="M1348.98 1454.1 Q1345.37 1454.1 1343.54 1457.66 Q1341.74 1461.2 1341.74 1468.33 Q1341.74 1475.44 1343.54 1479.01 Q1345.37 1482.55 1348.98 1482.55 Q1352.62 1482.55 1354.42 1479.01 Q1356.25 1475.44 1356.25 1468.33 Q1356.25 1461.2 1354.42 1457.66 Q1352.62 1454.1 1348.98 1454.1 M1348.98 1450.39 Q1354.79 1450.39 1357.85 1455 Q1360.93 1459.58 1360.93 1468.33 Q1360.93 1477.06 1357.85 1481.67 Q1354.79 1486.25 1348.98 1486.25 Q1343.17 1486.25 1340.09 1481.67 Q1337.04 1477.06 1337.04 1468.33 Q1337.04 1459.58 1340.09 1455 Q1343.17 1450.39 1348.98 1450.39 Z" fill="#000000" fill-rule="nonzero" fill-opacity="1" /><path clip-path="url(#clip690)" d="M1764.97 1451.02 L1787.19 1451.02 L1787.19 1453.01 L1774.65 1485.58 L1769.76 1485.58 L1781.57 1454.96 L1764.97 1454.96 L1764.97 1451.02 Z" fill="#000000" fill-rule="nonzero" fill-opacity="1" /><path clip-path="url(#clip690)" d="M1796.36 1451.02 L1814.71 1451.02 L1814.71 1454.96 L1800.64 1454.96 L1800.64 1463.43 Q1801.66 1463.08 1802.68 1462.92 Q1803.7 1462.73 1804.71 1462.73 Q1810.5 1462.73 1813.88 1465.9 Q1817.26 1469.08 1817.26 1474.49 Q1817.26 1480.07 1813.79 1483.17 Q1810.32 1486.25 1804 1486.25 Q1801.82 1486.25 1799.55 1485.88 Q1797.31 1485.51 1794.9 1484.77 L1794.9 1480.07 Q1796.98 1481.2 1799.21 1481.76 Q1801.43 1482.32 1803.9 1482.32 Q1807.91 1482.32 1810.25 1480.21 Q1812.58 1478.1 1812.58 1474.49 Q1812.58 1470.88 1810.25 1468.77 Q1807.91 1466.67 1803.9 1466.67 Q1802.03 1466.67 1800.15 1467.08 Q1798.3 1467.5 1796.36 1468.38 L1796.36 1451.02 Z" fill="#000000" fill-rule="nonzero" fill-opacity="1" /><path clip-path="url(#clip690)" d="M1836.47 1454.1 Q1832.86 1454.1 1831.03 1457.66 Q1829.23 1461.2 1829.23 1468.33 Q1829.23 1475.44 1831.03 1479.01 Q1832.86 1482.55 1836.47 1482.55 Q1840.11 1482.55 1841.91 1479.01 Q1843.74 1475.44 1843.74 1468.33 Q1843.74 1461.2 1841.91 1457.66 Q1840.11 1454.1 1836.47 1454.1 M1836.47 1450.39 Q1842.28 1450.39 1845.34 1455 Q1848.42 1459.58 1848.42 1468.33 Q1848.42 1477.06 1845.34 1481.67 Q1842.28 1486.25 1836.47 1486.25 Q1830.66 1486.25 1827.58 1481.67 Q1824.53 1477.06 1824.53 1468.33 Q1824.53 1459.58 1827.58 1455 Q1830.66 1450.39 1836.47 1450.39 Z" fill="#000000" fill-rule="nonzero" fill-opacity="1" /><path clip-path="url(#clip690)" d="M2238.83 1481.64 L2246.47 1481.64 L2246.47 1455.28 L2238.16 1456.95 L2238.16 1452.69 L2246.42 1451.02 L2251.1 1451.02 L2251.1 1481.64 L2258.73 1481.64 L2258.73 1485.58 L2238.83 1485.58 L2238.83 1481.64 Z" fill="#000000" fill-rule="nonzero" fill-opacity="1" /><path clip-path="url(#clip690)" d="M2278.18 1454.1 Q2274.57 1454.1 2272.74 1457.66 Q2270.93 1461.2 2270.93 1468.33 Q2270.93 1475.44 2272.74 1479.01 Q2274.57 1482.55 2278.18 1482.55 Q2281.81 1482.55 2283.62 1479.01 Q2285.45 1475.44 2285.45 1468.33 Q2285.45 1461.2 2283.62 1457.66 Q2281.81 1454.1 2278.18 1454.1 M2278.18 1450.39 Q2283.99 1450.39 2287.04 1455 Q2290.12 1459.58 2290.12 1468.33 Q2290.12 1477.06 2287.04 1481.67 Q2283.99 1486.25 2278.18 1486.25 Q2272.37 1486.25 2269.29 1481.67 Q2266.23 1477.06 2266.23 1468.33 Q2266.23 1459.58 2269.29 1455 Q2272.37 1450.39 2278.18 1450.39 Z" fill="#000000" fill-rule="nonzero" fill-opacity="1" /><path clip-path="url(#clip690)" d="M2308.34 1454.1 Q2304.73 1454.1 2302.9 1457.66 Q2301.1 1461.2 2301.1 1468.33 Q2301.1 1475.44 2302.9 1479.01 Q2304.73 1482.55 2308.34 1482.55 Q2311.97 1482.55 2313.78 1479.01 Q2315.61 1475.44 2315.61 1468.33 Q2315.61 1461.2 2313.78 1457.66 Q2311.97 1454.1 2308.34 1454.1 M2308.34 1450.39 Q2314.15 1450.39 2317.21 1455 Q2320.29 1459.58 2320.29 1468.33 Q2320.29 1477.06 2317.21 1481.67 Q2314.15 1486.25 2308.34 1486.25 Q2302.53 1486.25 2299.45 1481.67 Q2296.4 1477.06 2296.4 1468.33 Q2296.4 1459.58 2299.45 1455 Q2302.53 1450.39 2308.34 1450.39 Z" fill="#000000" fill-rule="nonzero" fill-opacity="1" /><path clip-path="url(#clip690)" d="M2338.5 1454.1 Q2334.89 1454.1 2333.06 1457.66 Q2331.26 1461.2 2331.26 1468.33 Q2331.26 1475.44 2333.06 1479.01 Q2334.89 1482.55 2338.5 1482.55 Q2342.14 1482.55 2343.94 1479.01 Q2345.77 1475.44 2345.77 1468.33 Q2345.77 1461.2 2343.94 1457.66 Q2342.14 1454.1 2338.5 1454.1 M2338.5 1450.39 Q2344.31 1450.39 2347.37 1455 Q2350.45 1459.58 2350.45 1468.33 Q2350.45 1477.06 2347.37 1481.67 Q2344.31 1486.25 2338.5 1486.25 Q2332.69 1486.25 2329.61 1481.67 Q2326.56 1477.06 2326.56 1468.33 Q2326.56 1459.58 2329.61 1455 Q2332.69 1450.39 2338.5 1450.39 Z" fill="#000000" fill-rule="nonzero" fill-opacity="1" /><path clip-path="url(#clip690)" d="M1283.9 1524.18 L1283.9 1530.96 Q1280.66 1527.94 1276.97 1526.44 Q1273.3 1524.95 1269.17 1524.95 Q1261.02 1524.95 1256.69 1529.95 Q1252.36 1534.91 1252.36 1544.33 Q1252.36 1553.72 1256.69 1558.72 Q1261.02 1563.68 1269.17 1563.68 Q1273.3 1563.68 1276.97 1562.19 Q1280.66 1560.69 1283.9 1557.67 L1283.9 1564.38 Q1280.53 1566.68 1276.74 1567.82 Q1272.99 1568.97 1268.79 1568.97 Q1258 1568.97 1251.79 1562.38 Q1245.58 1555.76 1245.58 1544.33 Q1245.58 1532.87 1251.79 1526.28 Q1258 1519.66 1268.79 1519.66 Q1273.05 1519.66 1276.81 1520.81 Q1280.59 1521.92 1283.9 1524.18 Z" fill="#000000" fill-rule="nonzero" fill-opacity="1" /><path clip-path="url(#clip690)" d="M1324.07 1548.76 L1324.07 1551.62 L1297.14 1551.62 Q1297.53 1557.67 1300.77 1560.85 Q1304.05 1564 1309.88 1564 Q1313.25 1564 1316.4 1563.17 Q1319.58 1562.35 1322.7 1560.69 L1322.7 1566.23 Q1319.55 1567.57 1316.24 1568.27 Q1312.93 1568.97 1309.53 1568.97 Q1301 1568.97 1296 1564 Q1291.03 1559.04 1291.03 1550.57 Q1291.03 1541.82 1295.74 1536.69 Q1300.49 1531.54 1308.51 1531.54 Q1315.7 1531.54 1319.87 1536.18 Q1324.07 1540.8 1324.07 1548.76 M1318.21 1547.04 Q1318.15 1542.23 1315.51 1539.37 Q1312.9 1536.5 1308.57 1536.5 Q1303.67 1536.5 1300.71 1539.27 Q1297.78 1542.04 1297.34 1547.07 L1318.21 1547.04 Z" fill="#000000" fill-rule="nonzero" fill-opacity="1" /><path clip-path="url(#clip690)" d="M1333.68 1518.52 L1339.54 1518.52 L1339.54 1568.04 L1333.68 1568.04 L1333.68 1518.52 Z" fill="#000000" fill-rule="nonzero" fill-opacity="1" /><path clip-path="url(#clip690)" d="M1351.79 1518.52 L1357.65 1518.52 L1357.65 1568.04 L1351.79 1568.04 L1351.79 1518.52 Z" fill="#000000" fill-rule="nonzero" fill-opacity="1" /><path clip-path="url(#clip690)" d="M1392.63 1533.45 L1392.63 1538.98 Q1390.15 1537.71 1387.47 1537.07 Q1384.8 1536.44 1381.94 1536.44 Q1377.58 1536.44 1375.38 1537.77 Q1373.21 1539.11 1373.21 1541.79 Q1373.21 1543.82 1374.77 1545 Q1376.33 1546.15 1381.04 1547.2 L1383.05 1547.64 Q1389.29 1548.98 1391.9 1551.43 Q1394.54 1553.85 1394.54 1558.21 Q1394.54 1563.17 1390.59 1566.07 Q1386.68 1568.97 1379.8 1568.97 Q1376.94 1568.97 1373.82 1568.39 Q1370.73 1567.85 1367.29 1566.74 L1367.29 1560.69 Q1370.54 1562.38 1373.69 1563.24 Q1376.84 1564.07 1379.93 1564.07 Q1384.07 1564.07 1386.3 1562.66 Q1388.52 1561.23 1388.52 1558.65 Q1388.52 1556.27 1386.9 1554.99 Q1385.31 1553.72 1379.87 1552.54 L1377.83 1552.07 Q1372.39 1550.92 1369.97 1548.56 Q1367.55 1546.18 1367.55 1542.04 Q1367.55 1537.01 1371.11 1534.27 Q1374.68 1531.54 1381.24 1531.54 Q1384.48 1531.54 1387.35 1532.01 Q1390.21 1532.49 1392.63 1533.45 Z" fill="#000000" fill-rule="nonzero" fill-opacity="1" /><polyline clip-path="url(#clip692)" style="stroke:#000000; stroke-linecap:round; stroke-linejoin:round; stroke-width:2; stroke-opacity:0.1; fill:none" points="287.366,1359.64 2352.76,1359.64 "/>
<polyline clip-path="url(#clip692)" style="stroke:#000000; stroke-linecap:round; stroke-linejoin:round; stroke-width:2; stroke-opacity:0.1; fill:none" points="287.366,1180.22 2352.76,1180.22 "/>
<polyline clip-path="url(#clip692)" style="stroke:#000000; stroke-linecap:round; stroke-linejoin:round; stroke-width:2; stroke-opacity:0.1; fill:none" points="287.366,1000.81 2352.76,1000.81 "/>
<polyline clip-path="url(#clip692)" style="stroke:#000000; stroke-linecap:round; stroke-linejoin:round; stroke-width:2; stroke-opacity:0.1; fill:none" points="287.366,821.394 2352.76,821.394 "/>
<polyline clip-path="url(#clip692)" style="stroke:#000000; stroke-linecap:round; stroke-linejoin:round; stroke-width:2; stroke-opacity:0.1; fill:none" points="287.366,641.979 2352.76,641.979 "/>
<polyline clip-path="url(#clip692)" style="stroke:#000000; stroke-linecap:round; stroke-linejoin:round; stroke-width:2; stroke-opacity:0.1; fill:none" points="287.366,462.564 2352.76,462.564 "/>
<polyline clip-path="url(#clip692)" style="stroke:#000000; stroke-linecap:round; stroke-linejoin:round; stroke-width:2; stroke-opacity:0.1; fill:none" points="287.366,283.149 2352.76,283.149 "/>
<polyline clip-path="url(#clip690)" style="stroke:#000000; stroke-linecap:round; stroke-linejoin:round; stroke-width:4; stroke-opacity:1; fill:none" points="287.366,1423.18 287.366,123.472 "/>
<polyline clip-path="url(#clip690)" style="stroke:#000000; stroke-linecap:round; stroke-linejoin:round; stroke-width:4; stroke-opacity:1; fill:none" points="287.366,1359.64 306.264,1359.64 "/>
<polyline clip-path="url(#clip690)" style="stroke:#000000; stroke-linecap:round; stroke-linejoin:round; stroke-width:4; stroke-opacity:1; fill:none" points="287.366,1180.22 306.264,1180.22 "/>
<polyline clip-path="url(#clip690)" style="stroke:#000000; stroke-linecap:round; stroke-linejoin:round; stroke-width:4; stroke-opacity:1; fill:none" points="287.366,1000.81 306.264,1000.81 "/>
<polyline clip-path="url(#clip690)" style="stroke:#000000; stroke-linecap:round; stroke-linejoin:round; stroke-width:4; stroke-opacity:1; fill:none" points="287.366,821.394 306.264,821.394 "/>
<polyline clip-path="url(#clip690)" style="stroke:#000000; stroke-linecap:round; stroke-linejoin:round; stroke-width:4; stroke-opacity:1; fill:none" points="287.366,641.979 306.264,641.979 "/>
<polyline clip-path="url(#clip690)" style="stroke:#000000; stroke-linecap:round; stroke-linejoin:round; stroke-width:4; stroke-opacity:1; fill:none" points="287.366,462.564 306.264,462.564 "/>
<polyline clip-path="url(#clip690)" style="stroke:#000000; stroke-linecap:round; stroke-linejoin:round; stroke-width:4; stroke-opacity:1; fill:none" points="287.366,283.149 306.264,283.149 "/>
<path clip-path="url(#clip690)" d="M115.256 1360.09 L144.931 1360.09 L144.931 1364.03 L115.256 1364.03 L115.256 1360.09 Z" fill="#000000" fill-rule="nonzero" fill-opacity="1" /><path clip-path="url(#clip690)" d="M165.024 1345.44 Q161.413 1345.44 159.584 1349 Q157.778 1352.55 157.778 1359.67 Q157.778 1366.78 159.584 1370.35 Q161.413 1373.89 165.024 1373.89 Q168.658 1373.89 170.464 1370.35 Q172.292 1366.78 172.292 1359.67 Q172.292 1352.55 170.464 1349 Q168.658 1345.44 165.024 1345.44 M165.024 1341.74 Q170.834 1341.74 173.889 1346.34 Q176.968 1350.92 176.968 1359.67 Q176.968 1368.4 173.889 1373.01 Q170.834 1377.59 165.024 1377.59 Q159.214 1377.59 156.135 1373.01 Q153.079 1368.4 153.079 1359.67 Q153.079 1350.92 156.135 1346.34 Q159.214 1341.74 165.024 1341.74 Z" fill="#000000" fill-rule="nonzero" fill-opacity="1" /><path clip-path="url(#clip690)" d="M185.186 1371.04 L190.07 1371.04 L190.07 1376.92 L185.186 1376.92 L185.186 1371.04 Z" fill="#000000" fill-rule="nonzero" fill-opacity="1" /><path clip-path="url(#clip690)" d="M199.075 1342.36 L221.297 1342.36 L221.297 1344.35 L208.75 1376.92 L203.866 1376.92 L215.672 1346.3 L199.075 1346.3 L199.075 1342.36 Z" fill="#000000" fill-rule="nonzero" fill-opacity="1" /><path clip-path="url(#clip690)" d="M230.463 1342.36 L248.82 1342.36 L248.82 1346.3 L234.746 1346.3 L234.746 1354.77 Q235.764 1354.42 236.783 1354.26 Q237.801 1354.07 238.82 1354.07 Q244.607 1354.07 247.986 1357.24 Q251.366 1360.42 251.366 1365.83 Q251.366 1371.41 247.894 1374.51 Q244.421 1377.59 238.102 1377.59 Q235.926 1377.59 233.658 1377.22 Q231.412 1376.85 229.005 1376.11 L229.005 1371.41 Q231.088 1372.55 233.31 1373.1 Q235.533 1373.66 238.009 1373.66 Q242.014 1373.66 244.352 1371.55 Q246.69 1369.44 246.69 1365.83 Q246.69 1362.22 244.352 1360.11 Q242.014 1358.01 238.009 1358.01 Q236.135 1358.01 234.26 1358.42 Q232.408 1358.84 230.463 1359.72 L230.463 1342.36 Z" fill="#000000" fill-rule="nonzero" fill-opacity="1" /><path clip-path="url(#clip690)" d="M114.26 1180.68 L143.936 1180.68 L143.936 1184.61 L114.26 1184.61 L114.26 1180.68 Z" fill="#000000" fill-rule="nonzero" fill-opacity="1" /><path clip-path="url(#clip690)" d="M164.028 1166.02 Q160.417 1166.02 158.589 1169.59 Q156.783 1173.13 156.783 1180.26 Q156.783 1187.37 158.589 1190.93 Q160.417 1194.47 164.028 1194.47 Q167.663 1194.47 169.468 1190.93 Q171.297 1187.37 171.297 1180.26 Q171.297 1173.13 169.468 1169.59 Q167.663 1166.02 164.028 1166.02 M164.028 1162.32 Q169.839 1162.32 172.894 1166.93 Q175.973 1171.51 175.973 1180.26 Q175.973 1188.99 172.894 1193.59 Q169.839 1198.18 164.028 1198.18 Q158.218 1198.18 155.14 1193.59 Q152.084 1188.99 152.084 1180.26 Q152.084 1171.51 155.14 1166.93 Q158.218 1162.32 164.028 1162.32 Z" fill="#000000" fill-rule="nonzero" fill-opacity="1" /><path clip-path="url(#clip690)" d="M184.19 1191.63 L189.075 1191.63 L189.075 1197.5 L184.19 1197.5 L184.19 1191.63 Z" fill="#000000" fill-rule="nonzero" fill-opacity="1" /><path clip-path="url(#clip690)" d="M199.306 1162.94 L217.662 1162.94 L217.662 1166.88 L203.588 1166.88 L203.588 1175.35 Q204.607 1175 205.625 1174.84 Q206.644 1174.66 207.662 1174.66 Q213.449 1174.66 216.829 1177.83 Q220.209 1181 220.209 1186.42 Q220.209 1192 216.736 1195.1 Q213.264 1198.18 206.945 1198.18 Q204.769 1198.18 202.5 1197.81 Q200.255 1197.44 197.848 1196.69 L197.848 1192 Q199.931 1193.13 202.153 1193.69 Q204.375 1194.24 206.852 1194.24 Q210.857 1194.24 213.195 1192.13 Q215.533 1190.03 215.533 1186.42 Q215.533 1182.81 213.195 1180.7 Q210.857 1178.59 206.852 1178.59 Q204.977 1178.59 203.102 1179.01 Q201.25 1179.43 199.306 1180.31 L199.306 1162.94 Z" fill="#000000" fill-rule="nonzero" fill-opacity="1" /><path clip-path="url(#clip690)" d="M239.422 1166.02 Q235.81 1166.02 233.982 1169.59 Q232.176 1173.13 232.176 1180.26 Q232.176 1187.37 233.982 1190.93 Q235.81 1194.47 239.422 1194.47 Q243.056 1194.47 244.861 1190.93 Q246.69 1187.37 246.69 1180.26 Q246.69 1173.13 244.861 1169.59 Q243.056 1166.02 239.422 1166.02 M239.422 1162.32 Q245.232 1162.32 248.287 1166.93 Q251.366 1171.51 251.366 1180.26 Q251.366 1188.99 248.287 1193.59 Q245.232 1198.18 239.422 1198.18 Q233.611 1198.18 230.533 1193.59 Q227.477 1188.99 227.477 1180.26 Q227.477 1171.51 230.533 1166.93 Q233.611 1162.32 239.422 1162.32 Z" fill="#000000" fill-rule="nonzero" fill-opacity="1" /><path clip-path="url(#clip690)" d="M115.256 1001.26 L144.931 1001.26 L144.931 1005.2 L115.256 1005.2 L115.256 1001.26 Z" fill="#000000" fill-rule="nonzero" fill-opacity="1" /><path clip-path="url(#clip690)" d="M165.024 986.608 Q161.413 986.608 159.584 990.173 Q157.778 993.715 157.778 1000.84 Q157.778 1007.95 159.584 1011.52 Q161.413 1015.06 165.024 1015.06 Q168.658 1015.06 170.464 1011.52 Q172.292 1007.95 172.292 1000.84 Q172.292 993.715 170.464 990.173 Q168.658 986.608 165.024 986.608 M165.024 982.905 Q170.834 982.905 173.889 987.511 Q176.968 992.094 176.968 1000.84 Q176.968 1009.57 173.889 1014.18 Q170.834 1018.76 165.024 1018.76 Q159.214 1018.76 156.135 1014.18 Q153.079 1009.57 153.079 1000.84 Q153.079 992.094 156.135 987.511 Q159.214 982.905 165.024 982.905 Z" fill="#000000" fill-rule="nonzero" fill-opacity="1" /><path clip-path="url(#clip690)" d="M185.186 1012.21 L190.07 1012.21 L190.07 1018.09 L185.186 1018.09 L185.186 1012.21 Z" fill="#000000" fill-rule="nonzero" fill-opacity="1" /><path clip-path="url(#clip690)" d="M204.283 1014.15 L220.602 1014.15 L220.602 1018.09 L198.658 1018.09 L198.658 1014.15 Q201.32 1011.4 205.903 1006.77 Q210.51 1002.12 211.69 1000.77 Q213.936 998.252 214.815 996.516 Q215.718 994.756 215.718 993.067 Q215.718 990.312 213.774 988.576 Q211.852 986.84 208.75 986.84 Q206.551 986.84 204.098 987.604 Q201.667 988.368 198.889 989.918 L198.889 985.196 Q201.713 984.062 204.167 983.483 Q206.621 982.905 208.658 982.905 Q214.028 982.905 217.223 985.59 Q220.417 988.275 220.417 992.766 Q220.417 994.895 219.607 996.817 Q218.82 998.715 216.713 1001.31 Q216.135 1001.98 213.033 1005.2 Q209.931 1008.39 204.283 1014.15 Z" fill="#000000" fill-rule="nonzero" fill-opacity="1" /><path clip-path="url(#clip690)" d="M230.463 983.53 L248.82 983.53 L248.82 987.465 L234.746 987.465 L234.746 995.937 Q235.764 995.59 236.783 995.428 Q237.801 995.243 238.82 995.243 Q244.607 995.243 247.986 998.414 Q251.366 1001.59 251.366 1007 Q251.366 1012.58 247.894 1015.68 Q244.421 1018.76 238.102 1018.76 Q235.926 1018.76 233.658 1018.39 Q231.412 1018.02 229.005 1017.28 L229.005 1012.58 Q231.088 1013.71 233.31 1014.27 Q235.533 1014.83 238.009 1014.83 Q242.014 1014.83 244.352 1012.72 Q246.69 1010.61 246.69 1007 Q246.69 1003.39 244.352 1001.28 Q242.014 999.178 238.009 999.178 Q236.135 999.178 234.26 999.594 Q232.408 1000.01 230.463 1000.89 L230.463 983.53 Z" fill="#000000" fill-rule="nonzero" fill-opacity="1" /><path clip-path="url(#clip690)" d="M164.028 807.193 Q160.417 807.193 158.589 810.758 Q156.783 814.3 156.783 821.429 Q156.783 828.536 158.589 832.1 Q160.417 835.642 164.028 835.642 Q167.663 835.642 169.468 832.1 Q171.297 828.536 171.297 821.429 Q171.297 814.3 169.468 810.758 Q167.663 807.193 164.028 807.193 M164.028 803.489 Q169.839 803.489 172.894 808.096 Q175.973 812.679 175.973 821.429 Q175.973 830.156 172.894 834.762 Q169.839 839.346 164.028 839.346 Q158.218 839.346 155.14 834.762 Q152.084 830.156 152.084 821.429 Q152.084 812.679 155.14 808.096 Q158.218 803.489 164.028 803.489 Z" fill="#000000" fill-rule="nonzero" fill-opacity="1" /><path clip-path="url(#clip690)" d="M184.19 832.795 L189.075 832.795 L189.075 838.674 L184.19 838.674 L184.19 832.795 Z" fill="#000000" fill-rule="nonzero" fill-opacity="1" /><path clip-path="url(#clip690)" d="M209.26 807.193 Q205.649 807.193 203.82 810.758 Q202.014 814.3 202.014 821.429 Q202.014 828.536 203.82 832.1 Q205.649 835.642 209.26 835.642 Q212.894 835.642 214.699 832.1 Q216.528 828.536 216.528 821.429 Q216.528 814.3 214.699 810.758 Q212.894 807.193 209.26 807.193 M209.26 803.489 Q215.07 803.489 218.125 808.096 Q221.204 812.679 221.204 821.429 Q221.204 830.156 218.125 834.762 Q215.07 839.346 209.26 839.346 Q203.449 839.346 200.371 834.762 Q197.315 830.156 197.315 821.429 Q197.315 812.679 200.371 808.096 Q203.449 803.489 209.26 803.489 Z" fill="#000000" fill-rule="nonzero" fill-opacity="1" /><path clip-path="url(#clip690)" d="M239.422 807.193 Q235.81 807.193 233.982 810.758 Q232.176 814.3 232.176 821.429 Q232.176 828.536 233.982 832.1 Q235.81 835.642 239.422 835.642 Q243.056 835.642 244.861 832.1 Q246.69 828.536 246.69 821.429 Q246.69 814.3 244.861 810.758 Q243.056 807.193 239.422 807.193 M239.422 803.489 Q245.232 803.489 248.287 808.096 Q251.366 812.679 251.366 821.429 Q251.366 830.156 248.287 834.762 Q245.232 839.346 239.422 839.346 Q233.611 839.346 230.533 834.762 Q227.477 830.156 227.477 821.429 Q227.477 812.679 230.533 808.096 Q233.611 803.489 239.422 803.489 Z" fill="#000000" fill-rule="nonzero" fill-opacity="1" /><path clip-path="url(#clip690)" d="M165.024 627.778 Q161.413 627.778 159.584 631.343 Q157.778 634.884 157.778 642.014 Q157.778 649.12 159.584 652.685 Q161.413 656.227 165.024 656.227 Q168.658 656.227 170.464 652.685 Q172.292 649.12 172.292 642.014 Q172.292 634.884 170.464 631.343 Q168.658 627.778 165.024 627.778 M165.024 624.074 Q170.834 624.074 173.889 628.681 Q176.968 633.264 176.968 642.014 Q176.968 650.741 173.889 655.347 Q170.834 659.931 165.024 659.931 Q159.214 659.931 156.135 655.347 Q153.079 650.741 153.079 642.014 Q153.079 633.264 156.135 628.681 Q159.214 624.074 165.024 624.074 Z" fill="#000000" fill-rule="nonzero" fill-opacity="1" /><path clip-path="url(#clip690)" d="M185.186 653.38 L190.07 653.38 L190.07 659.259 L185.186 659.259 L185.186 653.38 Z" fill="#000000" fill-rule="nonzero" fill-opacity="1" /><path clip-path="url(#clip690)" d="M204.283 655.324 L220.602 655.324 L220.602 659.259 L198.658 659.259 L198.658 655.324 Q201.32 652.569 205.903 647.94 Q210.51 643.287 211.69 641.945 Q213.936 639.421 214.815 637.685 Q215.718 635.926 215.718 634.236 Q215.718 631.482 213.774 629.746 Q211.852 628.009 208.75 628.009 Q206.551 628.009 204.098 628.773 Q201.667 629.537 198.889 631.088 L198.889 626.366 Q201.713 625.232 204.167 624.653 Q206.621 624.074 208.658 624.074 Q214.028 624.074 217.223 626.759 Q220.417 629.445 220.417 633.935 Q220.417 636.065 219.607 637.986 Q218.82 639.884 216.713 642.477 Q216.135 643.148 213.033 646.366 Q209.931 649.56 204.283 655.324 Z" fill="#000000" fill-rule="nonzero" fill-opacity="1" /><path clip-path="url(#clip690)" d="M230.463 624.699 L248.82 624.699 L248.82 628.634 L234.746 628.634 L234.746 637.107 Q235.764 636.759 236.783 636.597 Q237.801 636.412 238.82 636.412 Q244.607 636.412 247.986 639.583 Q251.366 642.755 251.366 648.171 Q251.366 653.75 247.894 656.852 Q244.421 659.931 238.102 659.931 Q235.926 659.931 233.658 659.56 Q231.412 659.19 229.005 658.449 L229.005 653.75 Q231.088 654.884 233.31 655.44 Q235.533 655.995 238.009 655.995 Q242.014 655.995 244.352 653.889 Q246.69 651.782 246.69 648.171 Q246.69 644.56 244.352 642.454 Q242.014 640.347 238.009 640.347 Q236.135 640.347 234.26 640.764 Q232.408 641.181 230.463 642.06 L230.463 624.699 Z" fill="#000000" fill-rule="nonzero" fill-opacity="1" /><path clip-path="url(#clip690)" d="M164.028 448.363 Q160.417 448.363 158.589 451.928 Q156.783 455.469 156.783 462.599 Q156.783 469.705 158.589 473.27 Q160.417 476.812 164.028 476.812 Q167.663 476.812 169.468 473.27 Q171.297 469.705 171.297 462.599 Q171.297 455.469 169.468 451.928 Q167.663 448.363 164.028 448.363 M164.028 444.659 Q169.839 444.659 172.894 449.266 Q175.973 453.849 175.973 462.599 Q175.973 471.326 172.894 475.932 Q169.839 480.515 164.028 480.515 Q158.218 480.515 155.14 475.932 Q152.084 471.326 152.084 462.599 Q152.084 453.849 155.14 449.266 Q158.218 444.659 164.028 444.659 Z" fill="#000000" fill-rule="nonzero" fill-opacity="1" /><path clip-path="url(#clip690)" d="M184.19 473.964 L189.075 473.964 L189.075 479.844 L184.19 479.844 L184.19 473.964 Z" fill="#000000" fill-rule="nonzero" fill-opacity="1" /><path clip-path="url(#clip690)" d="M199.306 445.284 L217.662 445.284 L217.662 449.219 L203.588 449.219 L203.588 457.691 Q204.607 457.344 205.625 457.182 Q206.644 456.997 207.662 456.997 Q213.449 456.997 216.829 460.168 Q220.209 463.34 220.209 468.756 Q220.209 474.335 216.736 477.437 Q213.264 480.515 206.945 480.515 Q204.769 480.515 202.5 480.145 Q200.255 479.775 197.848 479.034 L197.848 474.335 Q199.931 475.469 202.153 476.025 Q204.375 476.58 206.852 476.58 Q210.857 476.58 213.195 474.474 Q215.533 472.367 215.533 468.756 Q215.533 465.145 213.195 463.039 Q210.857 460.932 206.852 460.932 Q204.977 460.932 203.102 461.349 Q201.25 461.765 199.306 462.645 L199.306 445.284 Z" fill="#000000" fill-rule="nonzero" fill-opacity="1" /><path clip-path="url(#clip690)" d="M239.422 448.363 Q235.81 448.363 233.982 451.928 Q232.176 455.469 232.176 462.599 Q232.176 469.705 233.982 473.27 Q235.81 476.812 239.422 476.812 Q243.056 476.812 244.861 473.27 Q246.69 469.705 246.69 462.599 Q246.69 455.469 244.861 451.928 Q243.056 448.363 239.422 448.363 M239.422 444.659 Q245.232 444.659 248.287 449.266 Q251.366 453.849 251.366 462.599 Q251.366 471.326 248.287 475.932 Q245.232 480.515 239.422 480.515 Q233.611 480.515 230.533 475.932 Q227.477 471.326 227.477 462.599 Q227.477 453.849 230.533 449.266 Q233.611 444.659 239.422 444.659 Z" fill="#000000" fill-rule="nonzero" fill-opacity="1" /><path clip-path="url(#clip690)" d="M165.024 268.948 Q161.413 268.948 159.584 272.512 Q157.778 276.054 157.778 283.184 Q157.778 290.29 159.584 293.855 Q161.413 297.396 165.024 297.396 Q168.658 297.396 170.464 293.855 Q172.292 290.29 172.292 283.184 Q172.292 276.054 170.464 272.512 Q168.658 268.948 165.024 268.948 M165.024 265.244 Q170.834 265.244 173.889 269.85 Q176.968 274.434 176.968 283.184 Q176.968 291.91 173.889 296.517 Q170.834 301.1 165.024 301.1 Q159.214 301.1 156.135 296.517 Q153.079 291.91 153.079 283.184 Q153.079 274.434 156.135 269.85 Q159.214 265.244 165.024 265.244 Z" fill="#000000" fill-rule="nonzero" fill-opacity="1" /><path clip-path="url(#clip690)" d="M185.186 294.549 L190.07 294.549 L190.07 300.429 L185.186 300.429 L185.186 294.549 Z" fill="#000000" fill-rule="nonzero" fill-opacity="1" /><path clip-path="url(#clip690)" d="M199.075 265.869 L221.297 265.869 L221.297 267.86 L208.75 300.429 L203.866 300.429 L215.672 269.804 L199.075 269.804 L199.075 265.869 Z" fill="#000000" fill-rule="nonzero" fill-opacity="1" /><path clip-path="url(#clip690)" d="M230.463 265.869 L248.82 265.869 L248.82 269.804 L234.746 269.804 L234.746 278.276 Q235.764 277.929 236.783 277.767 Q237.801 277.582 238.82 277.582 Q244.607 277.582 247.986 280.753 Q251.366 283.924 251.366 289.341 Q251.366 294.92 247.894 298.021 Q244.421 301.1 238.102 301.1 Q235.926 301.1 233.658 300.73 Q231.412 300.359 229.005 299.619 L229.005 294.92 Q231.088 296.054 233.31 296.609 Q235.533 297.165 238.009 297.165 Q242.014 297.165 244.352 295.059 Q246.69 292.952 246.69 289.341 Q246.69 285.73 244.352 283.623 Q242.014 281.517 238.009 281.517 Q236.135 281.517 234.26 281.934 Q232.408 282.35 230.463 283.23 L230.463 265.869 Z" fill="#000000" fill-rule="nonzero" fill-opacity="1" /><path clip-path="url(#clip690)" d="M18.0438 893.717 L24.314 893.717 Q22.5634 897.378 21.704 900.624 Q20.8447 903.871 20.8447 906.894 Q20.8447 912.146 22.8817 915.011 Q24.9187 917.843 28.6745 917.843 Q31.8255 917.843 33.4488 915.966 Q35.0402 914.056 36.0269 908.772 L36.8226 904.889 Q38.1912 897.696 41.6605 894.29 Q45.098 890.853 50.8908 890.853 Q57.7976 890.853 61.3624 895.5 Q64.9272 900.115 64.9272 909.059 Q64.9272 912.433 64.1633 916.252 Q63.3994 920.04 61.9035 924.114 L55.2831 924.114 Q57.4793 920.199 58.5933 916.443 Q59.7073 912.687 59.7073 909.059 Q59.7073 903.552 57.543 900.561 Q55.3786 897.569 51.3682 897.569 Q47.8671 897.569 45.8937 899.733 Q43.9204 901.866 42.9337 906.767 L42.1698 910.682 Q40.7375 917.875 37.682 921.09 Q34.6264 924.305 29.1837 924.305 Q22.8817 924.305 19.2532 919.88 Q15.6248 915.424 15.6248 907.626 Q15.6248 904.284 16.2295 900.815 Q16.8343 897.346 18.0438 893.717 Z" fill="#000000" fill-rule="nonzero" fill-opacity="1" /><path clip-path="url(#clip690)" d="M28.3562 881.081 L28.3562 875.225 L64.0042 875.225 L64.0042 881.081 L28.3562 881.081 M14.479 881.081 L14.479 875.225 L21.895 875.225 L21.895 881.081 L14.479 881.081 Z" fill="#000000" fill-rule="nonzero" fill-opacity="1" /><path clip-path="url(#clip690)" d="M35.1993 835.217 Q31.2526 833.02 29.3747 829.965 Q27.4968 826.909 27.4968 822.772 Q27.4968 817.202 31.4117 814.178 Q35.2948 811.154 42.4881 811.154 L64.0042 811.154 L64.0042 817.042 L42.679 817.042 Q37.5546 817.042 35.072 818.857 Q32.5894 820.671 32.5894 824.395 Q32.5894 828.946 35.6131 831.588 Q38.6368 834.23 43.8567 834.23 L64.0042 834.23 L64.0042 840.118 L42.679 840.118 Q37.5228 840.118 35.072 841.932 Q32.5894 843.747 32.5894 847.534 Q32.5894 852.022 35.6449 854.664 Q38.6686 857.306 43.8567 857.306 L64.0042 857.306 L64.0042 863.194 L28.3562 863.194 L28.3562 857.306 L33.8944 857.306 Q30.616 855.3 29.0564 852.499 Q27.4968 849.699 27.4968 845.847 Q27.4968 841.964 29.4702 839.259 Q31.4436 836.522 35.1993 835.217 Z" fill="#000000" fill-rule="nonzero" fill-opacity="1" /><path clip-path="url(#clip690)" d="M28.3562 799.473 L28.3562 793.617 L64.0042 793.617 L64.0042 799.473 L28.3562 799.473 M14.479 799.473 L14.479 793.617 L21.895 793.617 L21.895 799.473 L14.479 799.473 Z" fill="#000000" fill-rule="nonzero" fill-opacity="1" /><path clip-path="url(#clip690)" d="M14.479 781.363 L14.479 775.506 L64.0042 775.506 L64.0042 781.363 L14.479 781.363 Z" fill="#000000" fill-rule="nonzero" fill-opacity="1" /><path clip-path="url(#clip690)" d="M46.0847 747.052 Q46.0847 754.149 47.7079 756.887 Q49.3312 759.624 53.2461 759.624 Q56.3653 759.624 58.2114 757.587 Q60.0256 755.518 60.0256 751.985 Q60.0256 747.115 56.5881 744.187 Q53.1188 741.227 47.3897 741.227 L46.0847 741.227 L46.0847 747.052 M43.6657 735.37 L64.0042 735.37 L64.0042 741.227 L58.5933 741.227 Q61.8398 743.232 63.3994 746.224 Q64.9272 749.216 64.9272 753.545 Q64.9272 759.019 61.8716 762.266 Q58.7843 765.48 53.6281 765.48 Q47.6125 765.48 44.5569 761.47 Q41.5014 757.428 41.5014 749.439 L41.5014 741.227 L40.9285 741.227 Q36.8862 741.227 34.6901 743.901 Q32.4621 746.542 32.4621 751.348 Q32.4621 754.404 33.1941 757.3 Q33.9262 760.197 35.3903 762.87 L29.9795 762.87 Q28.7381 759.656 28.1334 756.632 Q27.4968 753.608 27.4968 750.744 Q27.4968 743.009 31.5072 739.19 Q35.5176 735.37 43.6657 735.37 Z" fill="#000000" fill-rule="nonzero" fill-opacity="1" /><path clip-path="url(#clip690)" d="M33.8307 702.651 Q33.2578 703.637 33.0032 704.815 Q32.7167 705.961 32.7167 707.361 Q32.7167 712.327 35.9632 715 Q39.1779 717.642 45.2253 717.642 L64.0042 717.642 L64.0042 723.53 L28.3562 723.53 L28.3562 717.642 L33.8944 717.642 Q30.6479 715.796 29.0883 712.836 Q27.4968 709.876 27.4968 705.643 Q27.4968 705.038 27.5923 704.306 Q27.656 703.574 27.8151 702.683 L33.8307 702.651 Z" fill="#000000" fill-rule="nonzero" fill-opacity="1" /><path clip-path="url(#clip690)" d="M28.3562 696.508 L28.3562 690.651 L64.0042 690.651 L64.0042 696.508 L28.3562 696.508 M14.479 696.508 L14.479 690.651 L21.895 690.651 L21.895 696.508 L14.479 696.508 Z" fill="#000000" fill-rule="nonzero" fill-opacity="1" /><path clip-path="url(#clip690)" d="M18.2347 672.605 L28.3562 672.605 L28.3562 660.542 L32.9077 660.542 L32.9077 672.605 L52.2594 672.605 Q56.6199 672.605 57.8613 671.427 Q59.1026 670.217 59.1026 666.557 L59.1026 660.542 L64.0042 660.542 L64.0042 666.557 Q64.0042 673.337 61.4897 675.915 Q58.9434 678.493 52.2594 678.493 L32.9077 678.493 L32.9077 682.79 L28.3562 682.79 L28.3562 678.493 L18.2347 678.493 L18.2347 672.605 Z" fill="#000000" fill-rule="nonzero" fill-opacity="1" /><path clip-path="url(#clip690)" d="M67.3143 638.007 Q73.68 640.49 75.6216 642.845 Q77.5631 645.2 77.5631 649.147 L77.5631 653.826 L72.6615 653.826 L72.6615 650.388 Q72.6615 647.969 71.5157 646.633 Q70.3699 645.296 66.1048 643.672 L63.4312 642.622 L28.3562 657.04 L28.3562 650.834 L56.238 639.694 L28.3562 628.554 L28.3562 622.347 L67.3143 638.007 Z" fill="#000000" fill-rule="nonzero" fill-opacity="1" /><path clip-path="url(#clip690)" d="M411.261 14.0809 L411.261 22.0612 Q406.602 19.8332 402.47 18.7395 Q398.338 17.6457 394.49 17.6457 Q387.806 17.6457 384.16 20.2383 Q380.555 22.8309 380.555 27.611 Q380.555 31.6214 382.945 33.6873 Q385.376 35.7128 392.1 36.9686 L397.042 37.9813 Q406.197 39.7232 410.532 44.1387 Q414.907 48.5136 414.907 55.8863 Q414.907 64.6767 408.992 69.2137 Q403.118 73.7508 391.735 73.7508 Q387.441 73.7508 382.58 72.7785 Q377.76 71.8063 372.575 69.9024 L372.575 61.4765 Q377.557 64.2716 382.337 65.6895 Q387.117 67.1073 391.735 67.1073 Q398.744 67.1073 402.551 64.3527 Q406.359 61.598 406.359 56.4939 Q406.359 52.0379 403.605 49.5264 Q400.89 47.0148 394.652 45.759 L389.669 44.7868 Q380.514 42.9639 376.423 39.075 Q372.332 35.1862 372.332 28.2591 Q372.332 20.2383 377.962 15.6203 Q383.634 11.0023 393.558 11.0023 Q397.812 11.0023 402.227 11.7719 Q406.643 12.5416 411.261 14.0809 Z" fill="#000000" fill-rule="nonzero" fill-opacity="1" /><path clip-path="url(#clip690)" d="M444.924 32.4315 Q438.928 32.4315 435.445 37.1306 Q431.961 41.7891 431.961 49.9314 Q431.961 58.0738 435.404 62.7728 Q438.888 67.4314 444.924 67.4314 Q450.879 67.4314 454.362 62.7323 Q457.846 58.0333 457.846 49.9314 Q457.846 41.8701 454.362 37.1711 Q450.879 32.4315 444.924 32.4315 M444.924 26.1121 Q454.646 26.1121 460.196 32.4315 Q465.745 38.7509 465.745 49.9314 Q465.745 61.0714 460.196 67.4314 Q454.646 73.7508 444.924 73.7508 Q435.161 73.7508 429.611 67.4314 Q424.102 61.0714 424.102 49.9314 Q424.102 38.7509 429.611 32.4315 Q435.161 26.1121 444.924 26.1121 Z" fill="#000000" fill-rule="nonzero" fill-opacity="1" /><path clip-path="url(#clip690)" d="M504.391 34.1734 Q503.135 33.4443 501.636 33.1202 Q500.178 32.7556 498.396 32.7556 Q492.076 32.7556 488.674 36.8875 Q485.311 40.9789 485.311 48.6757 L485.311 72.576 L477.817 72.576 L477.817 27.2059 L485.311 27.2059 L485.311 34.2544 Q487.661 30.1225 491.428 28.1376 Q495.196 26.1121 500.583 26.1121 Q501.353 26.1121 502.285 26.2337 Q503.216 26.3147 504.351 26.5172 L504.391 34.1734 Z" fill="#000000" fill-rule="nonzero" fill-opacity="1" /><path clip-path="url(#clip690)" d="M519.582 14.324 L519.582 27.2059 L534.935 27.2059 L534.935 32.9987 L519.582 32.9987 L519.582 57.6282 Q519.582 63.1779 521.081 64.7578 Q522.62 66.3376 527.279 66.3376 L534.935 66.3376 L534.935 72.576 L527.279 72.576 Q518.65 72.576 515.369 69.3758 Q512.088 66.1351 512.088 57.6282 L512.088 32.9987 L506.619 32.9987 L506.619 27.2059 L512.088 27.2059 L512.088 14.324 L519.582 14.324 Z" fill="#000000" fill-rule="nonzero" fill-opacity="1" /><path clip-path="url(#clip690)" d="M583.546 48.0275 L583.546 51.6733 L549.275 51.6733 Q549.761 59.3701 553.893 63.421 Q558.066 67.4314 565.479 67.4314 Q569.773 67.4314 573.783 66.3781 Q577.834 65.3249 581.804 63.2184 L581.804 70.267 Q577.793 71.9684 573.581 72.8596 Q569.368 73.7508 565.033 73.7508 Q554.177 73.7508 547.817 67.4314 Q541.497 61.1119 541.497 50.3365 Q541.497 39.1965 547.493 32.6746 Q553.529 26.1121 563.737 26.1121 Q572.892 26.1121 578.199 32.0264 Q583.546 37.9003 583.546 48.0275 M576.092 45.84 Q576.011 39.7232 572.649 36.0774 Q569.327 32.4315 563.818 32.4315 Q557.579 32.4315 553.812 35.9558 Q550.085 39.4801 549.518 45.8805 L576.092 45.84 Z" fill="#000000" fill-rule="nonzero" fill-opacity="1" /><path clip-path="url(#clip690)" d="M625.635 34.0924 L625.635 9.54393 L633.088 9.54393 L633.088 72.576 L625.635 72.576 L625.635 65.7705 Q623.285 69.8214 619.68 71.8063 Q616.115 73.7508 611.092 73.7508 Q602.869 73.7508 597.683 67.1883 Q592.539 60.6258 592.539 49.9314 Q592.539 39.2371 597.683 32.6746 Q602.869 26.1121 611.092 26.1121 Q616.115 26.1121 619.68 28.0971 Q623.285 30.0415 625.635 34.0924 M600.235 49.9314 Q600.235 58.1548 603.598 62.8538 Q607 67.5124 612.915 67.5124 Q618.829 67.5124 622.232 62.8538 Q625.635 58.1548 625.635 49.9314 Q625.635 41.7081 622.232 37.0496 Q618.829 32.3505 612.915 32.3505 Q607 32.3505 603.598 37.0496 Q600.235 41.7081 600.235 49.9314 Z" fill="#000000" fill-rule="nonzero" fill-opacity="1" /><path clip-path="url(#clip690)" d="M707.463 28.9478 L707.463 35.9153 Q704.303 34.1734 701.103 33.3227 Q697.943 32.4315 694.703 32.4315 Q687.451 32.4315 683.441 37.0496 Q679.431 41.6271 679.431 49.9314 Q679.431 58.2358 683.441 62.8538 Q687.451 67.4314 694.703 67.4314 Q697.943 67.4314 701.103 66.5807 Q704.303 65.6895 707.463 63.9476 L707.463 70.8341 Q704.344 72.2924 700.981 73.0216 Q697.66 73.7508 693.892 73.7508 Q683.644 73.7508 677.608 67.3098 Q671.572 60.8689 671.572 49.9314 Q671.572 38.832 677.648 32.472 Q683.765 26.1121 694.378 26.1121 Q697.822 26.1121 701.103 26.8413 Q704.384 27.5299 707.463 28.9478 Z" fill="#000000" fill-rule="nonzero" fill-opacity="1" /><path clip-path="url(#clip690)" d="M738.007 32.4315 Q732.011 32.4315 728.528 37.1306 Q725.044 41.7891 725.044 49.9314 Q725.044 58.0738 728.487 62.7728 Q731.971 67.4314 738.007 67.4314 Q743.962 67.4314 747.445 62.7323 Q750.929 58.0333 750.929 49.9314 Q750.929 41.8701 747.445 37.1711 Q743.962 32.4315 738.007 32.4315 M738.007 26.1121 Q747.729 26.1121 753.279 32.4315 Q758.828 38.7509 758.828 49.9314 Q758.828 61.0714 753.279 67.4314 Q747.729 73.7508 738.007 73.7508 Q728.244 73.7508 722.694 67.4314 Q717.185 61.0714 717.185 49.9314 Q717.185 38.7509 722.694 32.4315 Q728.244 26.1121 738.007 26.1121 Z" fill="#000000" fill-rule="nonzero" fill-opacity="1" /><path clip-path="url(#clip690)" d="M800.107 28.5427 L800.107 35.5912 Q796.947 33.9709 793.545 33.1607 Q790.142 32.3505 786.496 32.3505 Q780.946 32.3505 778.151 34.0519 Q775.397 35.7533 775.397 39.156 Q775.397 41.7486 777.382 43.2475 Q779.366 44.7058 785.362 46.0426 L787.914 46.6097 Q795.854 48.3111 799.175 51.4303 Q802.538 54.509 802.538 60.0587 Q802.538 66.3781 797.515 70.0644 Q792.532 73.7508 783.782 73.7508 Q780.136 73.7508 776.166 73.0216 Q772.237 72.3329 767.862 70.9151 L767.862 63.2184 Q771.994 65.3654 776.004 66.4591 Q780.015 67.5124 783.944 67.5124 Q789.21 67.5124 792.046 65.73 Q794.881 63.9071 794.881 60.6258 Q794.881 57.5877 792.815 55.9673 Q790.79 54.3469 783.863 52.8481 L781.27 52.2405 Q774.343 50.7821 771.265 47.7845 Q768.186 44.7463 768.186 39.4801 Q768.186 33.0797 772.723 29.5959 Q777.26 26.1121 785.605 26.1121 Q789.737 26.1121 793.383 26.7198 Q797.028 27.3274 800.107 28.5427 Z" fill="#000000" fill-rule="nonzero" fill-opacity="1" /><path clip-path="url(#clip690)" d="M814.407 27.2059 L821.86 27.2059 L821.86 72.576 L814.407 72.576 L814.407 27.2059 M814.407 9.54393 L821.86 9.54393 L821.86 18.9825 L814.407 18.9825 L814.407 9.54393 Z" fill="#000000" fill-rule="nonzero" fill-opacity="1" /><path clip-path="url(#clip690)" d="M875.17 45.1919 L875.17 72.576 L867.717 72.576 L867.717 45.4349 Q867.717 38.994 865.205 35.7938 Q862.694 32.5936 857.67 32.5936 Q851.635 32.5936 848.151 36.4419 Q844.667 40.2903 844.667 46.9338 L844.667 72.576 L837.173 72.576 L837.173 27.2059 L844.667 27.2059 L844.667 34.2544 Q847.341 30.163 850.946 28.1376 Q854.592 26.1121 859.331 26.1121 Q867.15 26.1121 871.16 30.9732 Q875.17 35.7938 875.17 45.1919 Z" fill="#000000" fill-rule="nonzero" fill-opacity="1" /><path clip-path="url(#clip690)" d="M928.845 48.0275 L928.845 51.6733 L894.574 51.6733 Q895.06 59.3701 899.192 63.421 Q903.365 67.4314 910.778 67.4314 Q915.072 67.4314 919.082 66.3781 Q923.133 65.3249 927.103 63.2184 L927.103 70.267 Q923.093 71.9684 918.88 72.8596 Q914.667 73.7508 910.332 73.7508 Q899.476 73.7508 893.116 67.4314 Q886.796 61.1119 886.796 50.3365 Q886.796 39.1965 892.792 32.6746 Q898.828 26.1121 909.036 26.1121 Q918.191 26.1121 923.498 32.0264 Q928.845 37.9003 928.845 48.0275 M921.391 45.84 Q921.31 39.7232 917.948 36.0774 Q914.626 32.4315 909.117 32.4315 Q902.879 32.4315 899.111 35.9558 Q895.384 39.4801 894.817 45.8805 L921.391 45.84 Z" fill="#000000" fill-rule="nonzero" fill-opacity="1" /><path clip-path="url(#clip690)" d="M996.373 28.5427 L996.373 35.5912 Q993.214 33.9709 989.811 33.1607 Q986.408 32.3505 982.762 32.3505 Q977.213 32.3505 974.418 34.0519 Q971.663 35.7533 971.663 39.156 Q971.663 41.7486 973.648 43.2475 Q975.633 44.7058 981.628 46.0426 L984.18 46.6097 Q992.12 48.3111 995.442 51.4303 Q998.804 54.509 998.804 60.0587 Q998.804 66.3781 993.781 70.0644 Q988.798 73.7508 980.048 73.7508 Q976.402 73.7508 972.433 73.0216 Q968.503 72.3329 964.128 70.9151 L964.128 63.2184 Q968.26 65.3654 972.271 66.4591 Q976.281 67.5124 980.21 67.5124 Q985.476 67.5124 988.312 65.73 Q991.148 63.9071 991.148 60.6258 Q991.148 57.5877 989.082 55.9673 Q987.056 54.3469 980.129 52.8481 L977.537 52.2405 Q970.61 50.7821 967.531 47.7845 Q964.452 44.7463 964.452 39.4801 Q964.452 33.0797 968.989 29.5959 Q973.526 26.1121 981.871 26.1121 Q986.003 26.1121 989.649 26.7198 Q993.295 27.3274 996.373 28.5427 Z" fill="#000000" fill-rule="nonzero" fill-opacity="1" /><path clip-path="url(#clip690)" d="M1010.67 27.2059 L1018.13 27.2059 L1018.13 72.576 L1010.67 72.576 L1010.67 27.2059 M1010.67 9.54393 L1018.13 9.54393 L1018.13 18.9825 L1010.67 18.9825 L1010.67 9.54393 Z" fill="#000000" fill-rule="nonzero" fill-opacity="1" /><path clip-path="url(#clip690)" d="M1069.05 35.9153 Q1071.84 30.8922 1075.73 28.5022 Q1079.62 26.1121 1084.89 26.1121 Q1091.97 26.1121 1095.82 31.0947 Q1099.67 36.0368 1099.67 45.1919 L1099.67 72.576 L1092.18 72.576 L1092.18 45.4349 Q1092.18 38.913 1089.87 35.7533 Q1087.56 32.5936 1082.82 32.5936 Q1077.03 32.5936 1073.66 36.4419 Q1070.3 40.2903 1070.3 46.9338 L1070.3 72.576 L1062.81 72.576 L1062.81 45.4349 Q1062.81 38.8725 1060.5 35.7533 Q1058.19 32.5936 1053.37 32.5936 Q1047.66 32.5936 1044.3 36.4824 Q1040.93 40.3308 1040.93 46.9338 L1040.93 72.576 L1033.44 72.576 L1033.44 27.2059 L1040.93 27.2059 L1040.93 34.2544 Q1043.49 30.082 1047.05 28.0971 Q1050.62 26.1121 1055.52 26.1121 Q1060.46 26.1121 1063.9 28.6237 Q1067.39 31.1352 1069.05 35.9153 Z" fill="#000000" fill-rule="nonzero" fill-opacity="1" /><path clip-path="url(#clip690)" d="M1114.54 27.2059 L1121.99 27.2059 L1121.99 72.576 L1114.54 72.576 L1114.54 27.2059 M1114.54 9.54393 L1121.99 9.54393 L1121.99 18.9825 L1114.54 18.9825 L1114.54 9.54393 Z" fill="#000000" fill-rule="nonzero" fill-opacity="1" /><path clip-path="url(#clip690)" d="M1137.59 9.54393 L1145.04 9.54393 L1145.04 72.576 L1137.59 72.576 L1137.59 9.54393 Z" fill="#000000" fill-rule="nonzero" fill-opacity="1" /><path clip-path="url(#clip690)" d="M1181.26 49.7694 Q1172.22 49.7694 1168.74 51.8354 Q1165.26 53.9013 1165.26 58.8839 Q1165.26 62.8538 1167.85 65.2034 Q1170.48 67.5124 1174.98 67.5124 Q1181.18 67.5124 1184.9 63.1374 Q1188.67 58.7219 1188.67 51.4303 L1188.67 49.7694 L1181.26 49.7694 M1196.12 46.6907 L1196.12 72.576 L1188.67 72.576 L1188.67 65.6895 Q1186.12 69.8214 1182.31 71.8063 Q1178.5 73.7508 1172.99 73.7508 Q1166.03 73.7508 1161.89 69.8619 Q1157.8 65.9325 1157.8 59.3701 Q1157.8 51.7138 1162.91 47.825 Q1168.05 43.9361 1178.22 43.9361 L1188.67 43.9361 L1188.67 43.2069 Q1188.67 38.0623 1185.27 35.2672 Q1181.9 32.4315 1175.79 32.4315 Q1171.9 32.4315 1168.21 33.3632 Q1164.53 34.295 1161.12 36.1584 L1161.12 29.2718 Q1165.22 27.692 1169.06 26.9223 Q1172.91 26.1121 1176.56 26.1121 Q1186.4 26.1121 1191.26 31.2163 Q1196.12 36.3204 1196.12 46.6907 Z" fill="#000000" fill-rule="nonzero" fill-opacity="1" /><path clip-path="url(#clip690)" d="M1237.77 34.1734 Q1236.51 33.4443 1235.01 33.1202 Q1233.55 32.7556 1231.77 32.7556 Q1225.45 32.7556 1222.05 36.8875 Q1218.69 40.9789 1218.69 48.6757 L1218.69 72.576 L1211.19 72.576 L1211.19 27.2059 L1218.69 27.2059 L1218.69 34.2544 Q1221.04 30.1225 1224.8 28.1376 Q1228.57 26.1121 1233.96 26.1121 Q1234.73 26.1121 1235.66 26.2337 Q1236.59 26.3147 1237.73 26.5172 L1237.77 34.1734 Z" fill="#000000" fill-rule="nonzero" fill-opacity="1" /><path clip-path="url(#clip690)" d="M1245.59 27.2059 L1253.04 27.2059 L1253.04 72.576 L1245.59 72.576 L1245.59 27.2059 M1245.59 9.54393 L1253.04 9.54393 L1253.04 18.9825 L1245.59 18.9825 L1245.59 9.54393 Z" fill="#000000" fill-rule="nonzero" fill-opacity="1" /><path clip-path="url(#clip690)" d="M1276.01 14.324 L1276.01 27.2059 L1291.36 27.2059 L1291.36 32.9987 L1276.01 32.9987 L1276.01 57.6282 Q1276.01 63.1779 1277.51 64.7578 Q1279.05 66.3376 1283.7 66.3376 L1291.36 66.3376 L1291.36 72.576 L1283.7 72.576 Q1275.08 72.576 1271.79 69.3758 Q1268.51 66.1351 1268.51 57.6282 L1268.51 32.9987 L1263.04 32.9987 L1263.04 27.2059 L1268.51 27.2059 L1268.51 14.324 L1276.01 14.324 Z" fill="#000000" fill-rule="nonzero" fill-opacity="1" /><path clip-path="url(#clip690)" d="M1301.16 27.2059 L1308.62 27.2059 L1308.62 72.576 L1301.16 72.576 L1301.16 27.2059 M1301.16 9.54393 L1308.62 9.54393 L1308.62 18.9825 L1301.16 18.9825 L1301.16 9.54393 Z" fill="#000000" fill-rule="nonzero" fill-opacity="1" /><path clip-path="url(#clip690)" d="M1363.02 48.0275 L1363.02 51.6733 L1328.75 51.6733 Q1329.24 59.3701 1333.37 63.421 Q1337.54 67.4314 1344.95 67.4314 Q1349.25 67.4314 1353.26 66.3781 Q1357.31 65.3249 1361.28 63.2184 L1361.28 70.267 Q1357.27 71.9684 1353.06 72.8596 Q1348.84 73.7508 1344.51 73.7508 Q1333.65 73.7508 1327.29 67.4314 Q1320.97 61.1119 1320.97 50.3365 Q1320.97 39.1965 1326.97 32.6746 Q1333 26.1121 1343.21 26.1121 Q1352.37 26.1121 1357.67 32.0264 Q1363.02 37.9003 1363.02 48.0275 M1355.57 45.84 Q1355.49 39.7232 1352.12 36.0774 Q1348.8 32.4315 1343.29 32.4315 Q1337.05 32.4315 1333.29 35.9558 Q1329.56 39.4801 1328.99 45.8805 L1355.57 45.84 Z" fill="#000000" fill-rule="nonzero" fill-opacity="1" /><path clip-path="url(#clip690)" d="M1404.18 28.5427 L1404.18 35.5912 Q1401.02 33.9709 1397.62 33.1607 Q1394.21 32.3505 1390.57 32.3505 Q1385.02 32.3505 1382.22 34.0519 Q1379.47 35.7533 1379.47 39.156 Q1379.47 41.7486 1381.45 43.2475 Q1383.44 44.7058 1389.43 46.0426 L1391.98 46.6097 Q1399.92 48.3111 1403.25 51.4303 Q1406.61 54.509 1406.61 60.0587 Q1406.61 66.3781 1401.59 70.0644 Q1396.6 73.7508 1387.85 73.7508 Q1384.21 73.7508 1380.24 73.0216 Q1376.31 72.3329 1371.93 70.9151 L1371.93 63.2184 Q1376.06 65.3654 1380.08 66.4591 Q1384.09 67.5124 1388.01 67.5124 Q1393.28 67.5124 1396.12 65.73 Q1398.95 63.9071 1398.95 60.6258 Q1398.95 57.5877 1396.89 55.9673 Q1394.86 54.3469 1387.93 52.8481 L1385.34 52.2405 Q1378.41 50.7821 1375.34 47.7845 Q1372.26 44.7463 1372.26 39.4801 Q1372.26 33.0797 1376.79 29.5959 Q1381.33 26.1121 1389.68 26.1121 Q1393.81 26.1121 1397.45 26.7198 Q1401.1 27.3274 1404.18 28.5427 Z" fill="#000000" fill-rule="nonzero" fill-opacity="1" /><path clip-path="url(#clip690)" d="M1477.5 28.9478 L1477.5 35.9153 Q1474.34 34.1734 1471.14 33.3227 Q1467.98 32.4315 1464.74 32.4315 Q1457.49 32.4315 1453.48 37.0496 Q1449.47 41.6271 1449.47 49.9314 Q1449.47 58.2358 1453.48 62.8538 Q1457.49 67.4314 1464.74 67.4314 Q1467.98 67.4314 1471.14 66.5807 Q1474.34 65.6895 1477.5 63.9476 L1477.5 70.8341 Q1474.38 72.2924 1471.02 73.0216 Q1467.7 73.7508 1463.93 73.7508 Q1453.68 73.7508 1447.64 67.3098 Q1441.61 60.8689 1441.61 49.9314 Q1441.61 38.832 1447.68 32.472 Q1453.8 26.1121 1464.41 26.1121 Q1467.86 26.1121 1471.14 26.8413 Q1474.42 27.5299 1477.5 28.9478 Z" fill="#000000" fill-rule="nonzero" fill-opacity="1" /><path clip-path="url(#clip690)" d="M1529.27 48.0275 L1529.27 51.6733 L1495 51.6733 Q1495.49 59.3701 1499.62 63.421 Q1503.79 67.4314 1511.2 67.4314 Q1515.5 67.4314 1519.51 66.3781 Q1523.56 65.3249 1527.53 63.2184 L1527.53 70.267 Q1523.52 71.9684 1519.3 72.8596 Q1515.09 73.7508 1510.76 73.7508 Q1499.9 73.7508 1493.54 67.4314 Q1487.22 61.1119 1487.22 50.3365 Q1487.22 39.1965 1493.22 32.6746 Q1499.25 26.1121 1509.46 26.1121 Q1518.62 26.1121 1523.92 32.0264 Q1529.27 37.9003 1529.27 48.0275 M1521.82 45.84 Q1521.74 39.7232 1518.37 36.0774 Q1515.05 32.4315 1509.54 32.4315 Q1503.3 32.4315 1499.54 35.9558 Q1495.81 39.4801 1495.24 45.8805 L1521.82 45.84 Z" fill="#000000" fill-rule="nonzero" fill-opacity="1" /><path clip-path="url(#clip690)" d="M1541.5 9.54393 L1548.96 9.54393 L1548.96 72.576 L1541.5 72.576 L1541.5 9.54393 Z" fill="#000000" fill-rule="nonzero" fill-opacity="1" /><path clip-path="url(#clip690)" d="M1564.55 9.54393 L1572.01 9.54393 L1572.01 72.576 L1564.55 72.576 L1564.55 9.54393 Z" fill="#000000" fill-rule="nonzero" fill-opacity="1" /><path clip-path="url(#clip690)" d="M1639.82 39.9662 Q1645.69 41.222 1648.97 45.1919 Q1652.3 49.1618 1652.3 54.9951 Q1652.3 63.9476 1646.14 68.8492 Q1639.98 73.7508 1628.64 73.7508 Q1624.83 73.7508 1620.78 72.9811 Q1616.77 72.2519 1612.48 70.7531 L1612.48 62.8538 Q1615.88 64.8388 1619.93 65.8515 Q1623.98 66.8642 1628.4 66.8642 Q1636.09 66.8642 1640.1 63.826 Q1644.15 60.7879 1644.15 54.9951 Q1644.15 49.6479 1640.39 46.6502 Q1636.66 43.612 1629.98 43.612 L1622.93 43.612 L1622.93 36.8875 L1630.3 36.8875 Q1636.34 36.8875 1639.54 34.4975 Q1642.74 32.067 1642.74 27.5299 Q1642.74 22.8714 1639.41 20.4004 Q1636.13 17.8888 1629.98 17.8888 Q1626.61 17.8888 1622.76 18.618 Q1618.92 19.3471 1614.3 20.8865 L1614.3 13.5948 Q1618.96 12.2985 1623.01 11.6504 Q1627.1 11.0023 1630.7 11.0023 Q1640.02 11.0023 1645.45 15.2557 Q1650.88 19.4686 1650.88 26.6793 Q1650.88 31.7024 1648 35.1862 Q1645.13 38.6294 1639.82 39.9662 Z" fill="#000000" fill-rule="nonzero" fill-opacity="1" /><path clip-path="url(#clip690)" d="M1667.89 12.096 L1700.02 12.096 L1700.02 18.9825 L1675.39 18.9825 L1675.39 33.8088 Q1677.17 33.2012 1678.95 32.9176 Q1680.73 32.5936 1682.52 32.5936 Q1692.64 32.5936 1698.56 38.1433 Q1704.47 43.6931 1704.47 53.1722 Q1704.47 62.9348 1698.4 68.3631 Q1692.32 73.7508 1681.26 73.7508 Q1677.45 73.7508 1673.48 73.1026 Q1669.55 72.4545 1665.34 71.1582 L1665.34 62.9348 Q1668.99 64.9198 1672.87 65.892 Q1676.76 66.8642 1681.1 66.8642 Q1688.11 66.8642 1692.2 63.1779 Q1696.29 59.4916 1696.29 53.1722 Q1696.29 46.8528 1692.2 43.1664 Q1688.11 39.4801 1681.1 39.4801 Q1677.82 39.4801 1674.54 40.2093 Q1671.29 40.9384 1667.89 42.4778 L1667.89 12.096 Z" fill="#000000" fill-rule="nonzero" fill-opacity="1" /><path clip-path="url(#clip690)" d="M1722.01 65.6895 L1735.38 65.6895 L1735.38 19.5497 L1720.84 22.4663 L1720.84 15.0127 L1735.3 12.096 L1743.48 12.096 L1743.48 65.6895 L1756.85 65.6895 L1756.85 72.576 L1722.01 72.576 L1722.01 65.6895 Z" fill="#000000" fill-rule="nonzero" fill-opacity="1" /><path clip-path="url(#clip690)" d="M1798.7 27.2059 L1806.15 27.2059 L1806.15 72.576 L1798.7 72.576 L1798.7 27.2059 M1798.7 9.54393 L1806.15 9.54393 L1806.15 18.9825 L1798.7 18.9825 L1798.7 9.54393 Z" fill="#000000" fill-rule="nonzero" fill-opacity="1" /><path clip-path="url(#clip690)" d="M1829.12 14.324 L1829.12 27.2059 L1844.47 27.2059 L1844.47 32.9987 L1829.12 32.9987 L1829.12 57.6282 Q1829.12 63.1779 1830.62 64.7578 Q1832.16 66.3376 1836.81 66.3376 L1844.47 66.3376 L1844.47 72.576 L1836.81 72.576 Q1828.19 72.576 1824.9 69.3758 Q1821.62 66.1351 1821.62 57.6282 L1821.62 32.9987 L1816.15 32.9987 L1816.15 27.2059 L1821.62 27.2059 L1821.62 14.324 L1829.12 14.324 Z" fill="#000000" fill-rule="nonzero" fill-opacity="1" /><path clip-path="url(#clip690)" d="M1893.08 48.0275 L1893.08 51.6733 L1858.81 51.6733 Q1859.3 59.3701 1863.43 63.421 Q1867.6 67.4314 1875.01 67.4314 Q1879.31 67.4314 1883.32 66.3781 Q1887.37 65.3249 1891.34 63.2184 L1891.34 70.267 Q1887.33 71.9684 1883.12 72.8596 Q1878.9 73.7508 1874.57 73.7508 Q1863.71 73.7508 1857.35 67.4314 Q1851.03 61.1119 1851.03 50.3365 Q1851.03 39.1965 1857.03 32.6746 Q1863.06 26.1121 1873.27 26.1121 Q1882.43 26.1121 1887.73 32.0264 Q1893.08 37.9003 1893.08 48.0275 M1885.63 45.84 Q1885.55 39.7232 1882.18 36.0774 Q1878.86 32.4315 1873.35 32.4315 Q1867.12 32.4315 1863.35 35.9558 Q1859.62 39.4801 1859.05 45.8805 L1885.63 45.84 Z" fill="#000000" fill-rule="nonzero" fill-opacity="1" /><path clip-path="url(#clip690)" d="M1931.61 34.1734 Q1930.35 33.4443 1928.85 33.1202 Q1927.39 32.7556 1925.61 32.7556 Q1919.29 32.7556 1915.89 36.8875 Q1912.53 40.9789 1912.53 48.6757 L1912.53 72.576 L1905.03 72.576 L1905.03 27.2059 L1912.53 27.2059 L1912.53 34.2544 Q1914.88 30.1225 1918.64 28.1376 Q1922.41 26.1121 1927.8 26.1121 Q1928.57 26.1121 1929.5 26.2337 Q1930.43 26.3147 1931.57 26.5172 L1931.61 34.1734 Z" fill="#000000" fill-rule="nonzero" fill-opacity="1" /><path clip-path="url(#clip690)" d="M1960.04 49.7694 Q1951.01 49.7694 1947.53 51.8354 Q1944.04 53.9013 1944.04 58.8839 Q1944.04 62.8538 1946.63 65.2034 Q1949.27 67.5124 1953.76 67.5124 Q1959.96 67.5124 1963.69 63.1374 Q1967.46 58.7219 1967.46 51.4303 L1967.46 49.7694 L1960.04 49.7694 M1974.91 46.6907 L1974.91 72.576 L1967.46 72.576 L1967.46 65.6895 Q1964.9 69.8214 1961.1 71.8063 Q1957.29 73.7508 1951.78 73.7508 Q1944.81 73.7508 1940.68 69.8619 Q1936.59 65.9325 1936.59 59.3701 Q1936.59 51.7138 1941.69 47.825 Q1946.84 43.9361 1957 43.9361 L1967.46 43.9361 L1967.46 43.2069 Q1967.46 38.0623 1964.05 35.2672 Q1960.69 32.4315 1954.57 32.4315 Q1950.69 32.4315 1947 33.3632 Q1943.31 34.295 1939.91 36.1584 L1939.91 29.2718 Q1944 27.692 1947.85 26.9223 Q1951.7 26.1121 1955.34 26.1121 Q1965.19 26.1121 1970.05 31.2163 Q1974.91 36.3204 1974.91 46.6907 Z" fill="#000000" fill-rule="nonzero" fill-opacity="1" /><path clip-path="url(#clip690)" d="M1997.64 14.324 L1997.64 27.2059 L2012.99 27.2059 L2012.99 32.9987 L1997.64 32.9987 L1997.64 57.6282 Q1997.64 63.1779 1999.13 64.7578 Q2000.67 66.3376 2005.33 66.3376 L2012.99 66.3376 L2012.99 72.576 L2005.33 72.576 Q1996.7 72.576 1993.42 69.3758 Q1990.14 66.1351 1990.14 57.6282 L1990.14 32.9987 L1984.67 32.9987 L1984.67 27.2059 L1990.14 27.2059 L1990.14 14.324 L1997.64 14.324 Z" fill="#000000" fill-rule="nonzero" fill-opacity="1" /><path clip-path="url(#clip690)" d="M2022.79 27.2059 L2030.25 27.2059 L2030.25 72.576 L2022.79 72.576 L2022.79 27.2059 M2022.79 9.54393 L2030.25 9.54393 L2030.25 18.9825 L2022.79 18.9825 L2022.79 9.54393 Z" fill="#000000" fill-rule="nonzero" fill-opacity="1" /><path clip-path="url(#clip690)" d="M2063.42 32.4315 Q2057.43 32.4315 2053.94 37.1306 Q2050.46 41.7891 2050.46 49.9314 Q2050.46 58.0738 2053.9 62.7728 Q2057.39 67.4314 2063.42 67.4314 Q2069.38 67.4314 2072.86 62.7323 Q2076.34 58.0333 2076.34 49.9314 Q2076.34 41.8701 2072.86 37.1711 Q2069.38 32.4315 2063.42 32.4315 M2063.42 26.1121 Q2073.14 26.1121 2078.69 32.4315 Q2084.24 38.7509 2084.24 49.9314 Q2084.24 61.0714 2078.69 67.4314 Q2073.14 73.7508 2063.42 73.7508 Q2053.66 73.7508 2048.11 67.4314 Q2042.6 61.0714 2042.6 49.9314 Q2042.6 38.7509 2048.11 32.4315 Q2053.66 26.1121 2063.42 26.1121 Z" fill="#000000" fill-rule="nonzero" fill-opacity="1" /><path clip-path="url(#clip690)" d="M2134.31 45.1919 L2134.31 72.576 L2126.86 72.576 L2126.86 45.4349 Q2126.86 38.994 2124.35 35.7938 Q2121.84 32.5936 2116.81 32.5936 Q2110.78 32.5936 2107.29 36.4419 Q2103.81 40.2903 2103.81 46.9338 L2103.81 72.576 L2096.32 72.576 L2096.32 27.2059 L2103.81 27.2059 L2103.81 34.2544 Q2106.48 30.163 2110.09 28.1376 Q2113.73 26.1121 2118.47 26.1121 Q2126.29 26.1121 2130.3 30.9732 Q2134.31 35.7938 2134.31 45.1919 Z" fill="#000000" fill-rule="nonzero" fill-opacity="1" /><path clip-path="url(#clip690)" d="M2183.65 65.6895 L2212.21 65.6895 L2212.21 72.576 L2173.81 72.576 L2173.81 65.6895 Q2178.47 60.8689 2186.49 52.7671 Q2194.55 44.6248 2196.62 42.2752 Q2200.55 37.8598 2202.08 34.8216 Q2203.66 31.7429 2203.66 28.7857 Q2203.66 23.9651 2200.26 20.927 Q2196.9 17.8888 2191.47 17.8888 Q2187.62 17.8888 2183.33 19.2256 Q2179.08 20.5624 2174.21 23.2765 L2174.21 15.0127 Q2179.16 13.0277 2183.45 12.015 Q2187.74 11.0023 2191.31 11.0023 Q2200.71 11.0023 2206.3 15.7013 Q2211.89 20.4004 2211.89 28.2591 Q2211.89 31.9859 2210.47 35.3482 Q2209.09 38.6699 2205.41 43.2069 Q2204.39 44.3817 2198.97 50.0125 Q2193.54 55.6027 2183.65 65.6895 Z" fill="#000000" fill-rule="nonzero" fill-opacity="1" /><path clip-path="url(#clip690)" d="M2246.89 17.4837 Q2240.57 17.4837 2237.37 23.7221 Q2234.21 29.92 2234.21 42.3968 Q2234.21 54.833 2237.37 61.0714 Q2240.57 67.2693 2246.89 67.2693 Q2253.25 67.2693 2256.41 61.0714 Q2259.61 54.833 2259.61 42.3968 Q2259.61 29.92 2256.41 23.7221 Q2253.25 17.4837 2246.89 17.4837 M2246.89 11.0023 Q2257.06 11.0023 2262.4 19.0636 Q2267.79 27.0843 2267.79 42.3968 Q2267.79 57.6687 2262.4 65.73 Q2257.06 73.7508 2246.89 73.7508 Q2236.72 73.7508 2231.33 65.73 Q2225.98 57.6687 2225.98 42.3968 Q2225.98 27.0843 2231.33 19.0636 Q2236.72 11.0023 2246.89 11.0023 Z" fill="#000000" fill-rule="nonzero" fill-opacity="1" /><polyline clip-path="url(#clip692)" style="stroke:#009af9; stroke-linecap:round; stroke-linejoin:round; stroke-width:4; stroke-opacity:1; fill:none" points="345.82,1386.4 347.771,1341.21 349.721,1323.93 351.672,1311.47 353.622,1300.27 355.572,1298.22 357.523,1287.17 359.473,1286.92 361.424,1279.61 363.374,1277.47 365.325,1274.89 367.275,1273.6 369.226,1269.7 371.176,1263.77 373.126,1260.57 375.077,1257.07 377.027,1254.33 378.978,1253.17 380.928,1242.74 382.879,1241.53 384.829,1238.09 386.779,1235.56 388.73,1234.83 390.68,1233.46 392.631,1232.23 394.581,1231.09 396.532,1231.02 398.482,1230.01 400.432,1229.87 402.383,1228.86 404.333,1228.19 406.284,1227.2 408.234,1226.1 410.185,1225.95 412.135,1224.35 414.085,1224.03 416.036,1223.6 417.986,1222.28 419.937,1218.56 421.887,1218.3 423.838,1217.51 425.788,1214.62 427.738,1213.91 429.689,1213.38 431.639,1213.37 433.59,1212.48 435.54,1212.02 437.491,1211.53 439.441,1208.8 441.391,1208.26 443.342,1208.17 445.292,1207.99 447.243,1206.63 449.193,1206.49 451.144,1205.37 453.094,1204.29 455.045,1203.97 456.995,1199.67 458.945,1199.21 460.896,1196.86 462.846,1193.47 464.797,1193.34 466.747,1193.16 468.698,1193.11 470.648,1192.05 472.598,1191.37 474.549,1190.62 476.499,1190.21 478.45,1189.71 480.4,1188.83 482.351,1188.66 484.301,1188.26 486.251,1188.23 488.202,1186.09 490.152,1185.97 492.103,1185.87 494.053,1183.4 496.004,1182.88 497.954,1182.31 499.904,1181.63 501.855,1181.12 503.805,1180.63 505.756,1180.61 507.706,1179.49 509.657,1179.37 511.607,1175.83 513.557,1175.69 515.508,1174.84 517.458,1174.74 519.409,1174.69 521.359,1174.42 523.31,1173.26 525.26,1173 527.21,1172.01 529.161,1168.49 531.111,1168.46 533.062,1168.43 535.012,1168.26 536.963,1166.22 538.913,1165.61 540.863,1164.27 542.814,1163.2 544.764,1161.29 546.715,1161.1 548.665,1159.31 550.616,1159.31 552.566,1159.25 554.517,1159.08 556.467,1159.02 558.417,1158.08 560.368,1157.26 562.318,1157.15 564.269,1157.13 566.219,1157.12 568.17,1156.97 570.12,1156.44 572.07,1155.9 574.021,1154.68 575.971,1154.18 577.922,1154.07 579.872,1153.97 581.823,1153.71 583.773,1152.75 585.723,1152 587.674,1151.98 589.624,1150.99 591.575,1150.93 593.525,1150.81 595.476,1150.02 597.426,1147.77 599.376,1146.78 601.327,1146.25 603.277,1146.01 605.228,1144.13 607.178,1142.19 609.129,1141.09 611.079,1140.45 613.029,1140.04 614.98,1139.79 616.93,1139.43 618.881,1138.82 620.831,1138.71 622.782,1138.25 624.732,1138.1 626.682,1136.96 628.633,1136.83 630.583,1136.71 632.534,1136.26 634.484,1136.18 636.435,1136.03 638.385,1135.64 640.336,1134.85 642.286,1133.59 644.236,1131.75 646.187,1131.54 648.137,1131.43 650.088,1131.28 652.038,1130.71 653.989,1130.42 655.939,1130.15 657.889,1128.54 659.84,1128.18 661.79,1127.07 663.741,1126.86 665.691,1126.73 667.642,1125.09 669.592,1124.9 671.542,1123.88 673.493,1123.23 675.443,1122.84 677.394,1122 679.344,1121.79 681.295,1121.01 683.245,1120.18 685.195,1119 687.146,1118.75 689.096,1118.51 691.047,1118.46 692.997,1117.58 694.948,1117.25 696.898,1115.47 698.848,1114.92 700.799,1113.25 702.749,1112.58 704.7,1112.39 706.65,1112.11 708.601,1111.96 710.551,1111.18 712.501,1110.08 714.452,1109.2 716.402,1108.96 718.353,1107.98 720.303,1107.75 722.254,1107.67 724.204,1107.07 726.154,1106.49 728.105,1104.86 730.055,1103 732.006,1101.97 733.956,1101.25 735.907,1100.75 737.857,1100.4 739.808,1100.2 741.758,1100.15 743.708,1098.17 745.659,1098.06 747.609,1095.45 749.56,1095.34 751.51,1095.32 753.461,1095.21 755.411,1094.29 757.361,1092.42 759.312,1092.09 761.262,1091.78 763.213,1091.49 765.163,1091.1 767.114,1089.57 769.064,1088.58 771.014,1085.24 772.965,1084.92 774.915,1084.89 776.866,1084.06 778.816,1083.55 780.767,1081.1 782.717,1079.81 784.667,1078.8 786.618,1078.69 788.568,1076.12 790.519,1075.07 792.469,1074.87 794.42,1073.83 796.37,1071.81 798.32,1070.09 800.271,1070.09 802.221,1069.09 804.172,1068.83 806.122,1067.55 808.073,1066.58 810.023,1060.54 811.973,1060.08 813.924,1060.06 815.874,1058.28 817.825,1057.95 819.775,1055.88 821.726,1054.2 823.676,1050.42 825.627,1049.07 827.577,1048.1 829.527,1047.96 831.478,1045.17 833.428,1044.87 835.379,1043.87 837.329,1035.76 839.28,1031.72 841.23,1029.34 843.18,1026.02 845.131,1020.81 847.081,1020.59 849.032,1018.88 850.982,1017.28 852.933,1016.78 854.883,1012.29 856.833,1012.04 858.784,1009.6 860.734,1007.43 862.685,1006.42 864.635,1006 866.586,1005.29 868.536,1004.22 870.486,1004.01 872.437,1003.19 874.387,1002.92 876.338,1002.8 878.288,1001.53 880.239,996.476 882.189,992.314 884.139,991.811 886.09,990.508 888.04,989.737 889.991,987.65 891.941,986.706 893.892,984.94 895.842,980.789 897.792,976.64 899.743,976.199 901.693,974.581 903.644,974.45 905.594,972.681 907.545,972.362 909.495,970.18 911.445,969.613 913.396,965.93 915.346,963.046 917.297,961.78 919.247,961.536 921.198,961.414 923.148,959.681 925.099,959.627 927.049,959.089 928.999,958.31 930.95,957.362 932.9,957.294 934.851,955.33 936.801,955.192 938.752,953.876 940.702,953.237 942.652,952.948 944.603,952.129 946.553,950.711 948.504,949.794 950.454,948.729 952.405,948.079 954.355,946.892 956.305,945.251 958.256,944.844 960.206,941.446 962.157,940.004 964.107,939.852 966.058,939 968.008,938.759 969.958,938.674 971.909,937.055 973.859,936.275 975.81,932.157 977.76,931.632 979.711,930.138 981.661,928.605 983.611,928.517 985.562,927.32 987.512,927.114 989.463,926.34 991.413,926.139 993.364,924.807 995.314,923.091 997.264,922.996 999.215,922.084 1001.17,921.809 1003.12,921.659 1005.07,921.107 1007.02,920.698 1008.97,920.399 1010.92,920.265 1012.87,918.054 1014.82,917.073 1016.77,916.932 1018.72,915.487 1020.67,914.415 1022.62,913.576 1024.57,913.095 1026.52,912.894 1028.47,911.174 1030.42,911.043 1032.37,910.825 1034.32,910.401 1036.27,910.38 1038.22,909.835 1040.17,909.642 1042.12,909.468 1044.07,908.251 1046.03,908.094 1047.98,906.865 1049.93,905.807 1051.88,905.6 1053.83,903.931 1055.78,903.906 1057.73,903.812 1059.68,903.468 1061.63,903.005 1063.58,900.656 1065.53,900.364 1067.48,899.421 1069.43,899.419 1071.38,899.381 1073.33,899.379 1075.28,899.292 1077.23,898.919 1079.18,897.629 1081.13,897.161 1083.08,896.516 1085.03,896.477 1086.98,896.398 1088.93,896.175 1090.89,895.906 1092.84,895.785 1094.79,895.059 1096.74,894.81 1098.69,894.354 1100.64,892.05 1102.59,891.23 1104.54,891.173 1106.49,890.472 1108.44,890.425 1110.39,889.87 1112.34,889.853 1114.29,889.789 1116.24,889.784 1118.19,889.254 1120.14,888.999 1122.09,888.929 1124.04,888.185 1125.99,886.739 1127.94,886.526 1129.89,886.081 1131.84,885.673 1133.79,885.532 1135.75,884.875 1137.7,884.488 1139.65,884.484 1141.6,884.196 1143.55,883.949 1145.5,883.882 1147.45,883.508 1149.4,883.022 1151.35,882.692 1153.3,882.459 1155.25,882.351 1157.2,881.481 1159.15,881.396 1161.1,881.23 1163.05,881.108 1165,880.631 1166.95,880.477 1168.9,879.765 1170.85,879.745 1172.8,879.162 1174.75,878.734 1176.7,878.044 1178.65,877.956 1180.61,877.846 1182.56,876.681 1184.51,876.654 1186.46,875.933 1188.41,875.777 1190.36,875.478 1192.31,875.164 1194.26,874.53 1196.21,874.416 1198.16,874.194 1200.11,874.123 1202.06,874.091 1204.01,874.038 1205.96,873.939 1207.91,873.242 1209.86,872.55 1211.81,872.479 1213.76,872.097 1215.71,870.847 1217.66,870.062 1219.61,869.575 1221.56,868.913 1223.51,868.149 1225.46,867.87 1227.42,867.628 1229.37,867.073 1231.32,866.917 1233.27,866.841 1235.22,866.746 1237.17,866.553 1239.12,865.811 1241.07,865.23 1243.02,864.981 1244.97,864.722 1246.92,862.458 1248.87,862.366 1250.82,862.026 1252.77,861.799 1254.72,861.17 1256.67,859.994 1258.62,859.409 1260.57,859.25 1262.52,859.186 1264.47,858.831 1266.42,858.656 1268.37,857.759 1270.32,856.343 1272.28,855.835 1274.23,855.754 1276.18,855.663 1278.13,855.614 1280.08,855.549 1282.03,855.44 1283.98,855.436 1285.93,854.894 1287.88,853.384 1289.83,852.954 1291.78,852.815 1293.73,852.55 1295.68,852.299 1297.63,852.207 1299.58,851.461 1301.53,850.834 1303.48,850.521 1305.43,850.284 1307.38,849.502 1309.33,849.426 1311.28,849.092 1313.23,848.52 1315.18,847.164 1317.14,847.112 1319.09,847.028 1321.04,846.554 1322.99,846.509 1324.94,846.286 1326.89,846.039 1328.84,846.027 1330.79,845.801 1332.74,845.434 1334.69,845.288 1336.64,845.071 1338.59,844.56 1340.54,844.406 1342.49,843.983 1344.44,843.903 1346.39,843.876 1348.34,843.781 1350.29,843.707 1352.24,843.419 1354.19,842.997 1356.14,842.693 1358.09,842.519 1360.04,842.269 1362,842.163 1363.95,842.126 1365.9,841.757 1367.85,841.438 1369.8,841.134 1371.75,840.948 1373.7,840.799 1375.65,840.127 1377.6,840.04 1379.55,839.112 1381.5,839.1 1383.45,839.073 1385.4,839.071 1387.35,838.927 1389.3,838.348 1391.25,837.762 1393.2,836.88 1395.15,836.431 1397.1,836.283 1399.05,835.852 1401,835.55 1402.95,835.438 1404.9,835.206 1406.86,834.302 1408.81,834.299 1410.76,834.262 1412.71,833.966 1414.66,833.923 1416.61,832.486 1418.56,832.264 1420.51,832.168 1422.46,831.909 1424.41,830.554 1426.36,830.55 1428.31,830.389 1430.26,830.252 1432.21,830.054 1434.16,829.847 1436.11,829.813 1438.06,828.818 1440.01,828.145 1441.96,828.082 1443.91,827.821 1445.86,827.749 1447.81,827.416 1449.76,826.984 1451.72,826.807 1453.67,826.441 1455.62,825.908 1457.57,825.473 1459.52,825.42 1461.47,825.224 1463.42,824.586 1465.37,824.401 1467.32,823.936 1469.27,823.065 1471.22,822.783 1473.17,822.399 1475.12,822.003 1477.07,821.101 1479.02,821.094 1480.97,820.675 1482.92,820.543 1484.87,820.412 1486.82,820.397 1488.77,819.945 1490.72,819.891 1492.67,819.87 1494.62,819.725 1496.57,819.364 1498.53,818.195 1500.48,818.188 1502.43,818.071 1504.38,817.079 1506.33,816.982 1508.28,816.64 1510.23,815.539 1512.18,815.351 1514.13,814.664 1516.08,814.539 1518.03,814.24 1519.98,813.465 1521.93,813.224 1523.88,813.093 1525.83,812.933 1527.78,812.918 1529.73,812.845 1531.68,812.644 1533.63,812.64 1535.58,811.908 1537.53,811.682 1539.48,811.591 1541.43,810.001 1543.39,809.118 1545.34,808.846 1547.29,808.092 1549.24,807.687 1551.19,807.29 1553.14,806.517 1555.09,805.857 1557.04,805.345 1558.99,805.023 1560.94,804.867 1562.89,804.456 1564.84,804.072 1566.79,803.797 1568.74,803.565 1570.69,803.376 1572.64,803.141 1574.59,803.108 1576.54,802.82 1578.49,801.984 1580.44,801.744 1582.39,801.016 1584.34,799.094 1586.29,798.705 1588.25,798.473 1590.2,798.235 1592.15,796.422 1594.1,796.065 1596.05,796.02 1598,795.583 1599.95,795.396 1601.9,795.004 1603.85,794.91 1605.8,794.624 1607.75,794.615 1609.7,794.384 1611.65,793.978 1613.6,793.592 1615.55,793.417 1617.5,793.356 1619.45,793.238 1621.4,792.877 1623.35,792.547 1625.3,792.49 1627.25,792.419 1629.2,792.263 1631.15,791.597 1633.11,791.256 1635.06,790.674 1637.01,790.552 1638.96,790.188 1640.91,789.142 1642.86,788.842 1644.81,787.591 1646.76,787.564 1648.71,787.5 1650.66,786.979 1652.61,785.485 1654.56,784.223 1656.51,784.044 1658.46,783.995 1660.41,783.8 1662.36,783.658 1664.31,782.024 1666.26,781.95 1668.21,781.641 1670.16,780.087 1672.11,779.733 1674.06,779.074 1676.01,777.888 1677.97,777.473 1679.92,777.239 1681.87,777.198 1683.82,776.985 1685.77,776.587 1687.72,774.567 1689.67,774.276 1691.62,773.782 1693.57,772.541 1695.52,772.488 1697.47,772.258 1699.42,771.742 1701.37,771.446 1703.32,771.335 1705.27,770.123 1707.22,769.864 1709.17,768.529 1711.12,768.48 1713.07,767.612 1715.02,767.26 1716.97,764.548 1718.92,764.092 1720.87,763.988 1722.83,763.519 1724.78,762.179 1726.73,761.409 1728.68,760.902 1730.63,760.573 1732.58,759.455 1734.53,759.076 1736.48,758.372 1738.43,757.411 1740.38,755.022 1742.33,754.259 1744.28,752.116 1746.23,751.731 1748.18,750.818 1750.13,750.436 1752.08,750.137 1754.03,747.37 1755.98,744.128 1757.93,742.452 1759.88,741.116 1761.83,740.907 1763.78,740.878 1765.73,740.452 1767.68,735.375 1769.64,732.484 1771.59,730.56 1773.54,728.67 1775.49,727.727 1777.44,727.463 1779.39,721.128 1781.34,712.301 1783.29,702.851 1785.24,701.93 1787.19,698.148 1789.14,694.971 1791.09,694.781 1793.04,691.328 1794.99,683.42 1796.94,667.757 1798.89,666.738 1800.84,658.717 1802.79,649.544 1804.74,625.994 1806.69,624.124 1808.64,620.872 1810.59,612.119 1812.54,604.788 1814.5,597.167 1816.45,596.776 1818.4,593.93 1820.35,593.101 1822.3,590 1824.25,586.466 1826.2,581.89 1828.15,570.902 1830.1,564.283 1832.05,561.725 1834,547.68 1835.95,523.385 1837.9,522.902 1839.85,522.21 1841.8,522.163 1843.75,517.607 1845.7,514.914 1847.65,510.436 1849.6,502.413 1851.55,499.113 1853.5,497.665 1855.45,495.423 1857.4,493.147 1859.36,492.762 1861.31,487.139 1863.26,486.15 1865.21,484.784 1867.16,482.493 1869.11,481.257 1871.06,473.897 1873.01,473.749 1874.96,467.011 1876.91,464.957 1878.86,459.83 1880.81,458.05 1882.76,455.559 1884.71,454.844 1886.66,453.748 1888.61,453.571 1890.56,451.854 1892.51,450.362 1894.46,449.302 1896.41,449.226 1898.36,447.776 1900.31,447.744 1902.26,447.322 1904.22,446.409 1906.17,445.528 1908.12,444.912 1910.07,443.621 1912.02,441.36 1913.97,440.353 1915.92,439.751 1917.87,439.041 1919.82,438.326 1921.77,437.137 1923.72,433.54 1925.67,432.022 1927.62,427.903 1929.57,427.199 1931.52,425.692 1933.47,425.59 1935.42,424.667 1937.37,421.396 1939.32,421.231 1941.27,421.224 1943.22,420.313 1945.17,418.953 1947.12,418.849 1949.08,417.942 1951.03,416.219 1952.98,414.911 1954.93,414.724 1956.88,414.424 1958.83,414.359 1960.78,414.076 1962.73,410.546 1964.68,407.679 1966.63,406.817 1968.58,405.982 1970.53,405.76 1972.48,405.141 1974.43,404.739 1976.38,404.278 1978.33,401.966 1980.28,401.776 1982.23,401.585 1984.18,400.802 1986.13,400.598 1988.08,398.003 1990.03,397.62 1991.98,396.202 1993.94,393.811 1995.89,392.916 1997.84,390.205 1999.79,388.585 2001.74,388.215 2003.69,386.969 2005.64,386.665 2007.59,378.173 2009.54,377.774 2011.49,377.197 2013.44,377.129 2015.39,373.891 2017.34,373.571 2019.29,373.511 2021.24,373.414 2023.19,372.473 2025.14,372.133 2027.09,371.358 2029.04,370.869 2030.99,370.384 2032.94,370.006 2034.89,368.69 2036.84,366.296 2038.79,365.759 2040.75,363.815 2042.7,363.239 2044.65,363.074 2046.6,359.445 2048.55,359.287 2050.5,358.509 2052.45,356.786 2054.4,355.926 2056.35,352.876 2058.3,352.827 2060.25,350.589 2062.2,348.34 2064.15,348.274 2066.1,348.106 2068.05,346.647 2070,346.347 2071.95,344.984 2073.9,343.935 2075.85,343.588 2077.8,342.607 2079.75,341.942 2081.7,341.602 2083.65,341.435 2085.61,341.432 2087.56,341.22 2089.51,340.319 2091.46,340.205 2093.41,339.945 2095.36,336.746 2097.31,336.207 2099.26,335.937 2101.21,335.406 2103.16,333.723 2105.11,332.086 2107.06,331.865 2109.01,329.768 2110.96,329.366 2112.91,329.083 2114.86,327.69 2116.81,327.098 2118.76,326.885 2120.71,326.85 2122.66,326.645 2124.61,326.297 2126.56,324.987 2128.51,324.914 2130.47,324.662 2132.42,324.366 2134.37,324.108 2136.32,323.213 2138.27,322.281 2140.22,321.294 2142.17,320.146 2144.12,319.973 2146.07,319.1 2148.02,318.948 2149.97,318.334 2151.92,317.871 2153.87,315.797 2155.82,314.477 2157.77,314.238 2159.72,312.426 2161.67,312.331 2163.62,310.298 2165.57,308.374 2167.52,307.649 2169.47,306.416 2171.42,305.999 2173.37,305.812 2175.33,305.163 2177.28,302.278 2179.23,300.112 2181.18,300.005 2183.13,299.553 2185.08,296.785 2187.03,296.217 2188.98,295.419 2190.93,293.767 2192.88,293.657 2194.83,292.756 2196.78,291.651 2198.73,285.726 2200.68,284.924 2202.63,282.207 2204.58,280.163 2206.53,280.009 2208.48,279.983 2210.43,279.191 2212.38,279.089 2214.33,277.657 2216.28,271.253 2218.23,269.707 2220.19,269.563 2222.14,268.592 2224.09,266.54 2226.04,265.639 2227.99,261.964 2229.94,261.278 2231.89,260.145 2233.84,258.999 2235.79,258.909 2237.74,258.436 2239.69,255.769 2241.64,254.004 2243.59,253.886 2245.54,253.404 2247.49,249.024 2249.44,248.601 2251.39,248.42 2253.34,244.007 2255.29,243.476 2257.24,241.132 2259.19,240.872 2261.14,240.304 2263.09,234.935 2265.04,234.421 2267,232.069 2268.95,231.479 2270.9,222.757 2272.85,219.815 2274.8,218.118 2276.75,217.314 2278.7,215.854 2280.65,214.265 2282.6,205.092 2284.55,204.429 2286.5,194.041 2288.45,181.437 2290.4,177.173 2292.35,169.898 2294.3,160.256 "/>
<path clip-path="url(#clip690)" d="M356.212 270.476 L782.357 270.476 L782.357 166.796 L356.212 166.796  Z" fill="#ffffff" fill-rule="evenodd" fill-opacity="1"/>
<polyline clip-path="url(#clip690)" style="stroke:#000000; stroke-linecap:round; stroke-linejoin:round; stroke-width:4; stroke-opacity:1; fill:none" points="356.212,270.476 782.357,270.476 782.357,166.796 356.212,166.796 356.212,270.476 "/>
<polyline clip-path="url(#clip690)" style="stroke:#009af9; stroke-linecap:round; stroke-linejoin:round; stroke-width:4; stroke-opacity:1; fill:none" points="379.161,218.636 516.854,218.636 "/>
<path clip-path="url(#clip690)" d="M562.048 202.49 L562.048 207.05 Q559.386 205.777 557.025 205.152 Q554.663 204.527 552.464 204.527 Q548.645 204.527 546.562 206.008 Q544.502 207.49 544.502 210.221 Q544.502 212.513 545.867 213.694 Q547.256 214.851 551.099 215.569 L553.923 216.147 Q559.154 217.143 561.631 219.666 Q564.131 222.166 564.131 226.379 Q564.131 231.402 560.751 233.994 Q557.395 236.587 550.89 236.587 Q548.437 236.587 545.659 236.031 Q542.904 235.476 539.941 234.388 L539.941 229.573 Q542.789 231.17 545.52 231.981 Q548.251 232.791 550.89 232.791 Q554.895 232.791 557.071 231.217 Q559.247 229.643 559.247 226.726 Q559.247 224.18 557.673 222.744 Q556.122 221.309 552.557 220.592 L549.71 220.036 Q544.478 218.995 542.14 216.772 Q539.802 214.55 539.802 210.592 Q539.802 206.008 543.02 203.37 Q546.261 200.731 551.932 200.731 Q554.363 200.731 556.886 201.171 Q559.409 201.61 562.048 202.49 Z" fill="#000000" fill-rule="nonzero" fill-opacity="1" /><path clip-path="url(#clip690)" d="M571.237 209.99 L575.497 209.99 L575.497 235.916 L571.237 235.916 L571.237 209.99 M571.237 199.897 L575.497 199.897 L575.497 205.291 L571.237 205.291 L571.237 199.897 Z" fill="#000000" fill-rule="nonzero" fill-opacity="1" /><path clip-path="url(#clip690)" d="M604.594 214.967 Q606.191 212.096 608.413 210.731 Q610.635 209.365 613.645 209.365 Q617.696 209.365 619.895 212.212 Q622.094 215.036 622.094 220.268 L622.094 235.916 L617.811 235.916 L617.811 220.407 Q617.811 216.68 616.492 214.874 Q615.172 213.069 612.464 213.069 Q609.154 213.069 607.233 215.268 Q605.311 217.467 605.311 221.263 L605.311 235.916 L601.029 235.916 L601.029 220.407 Q601.029 216.657 599.71 214.874 Q598.39 213.069 595.635 213.069 Q592.372 213.069 590.45 215.291 Q588.529 217.49 588.529 221.263 L588.529 235.916 L584.247 235.916 L584.247 209.99 L588.529 209.99 L588.529 214.018 Q589.987 211.633 592.024 210.499 Q594.061 209.365 596.862 209.365 Q599.686 209.365 601.654 210.8 Q603.645 212.235 604.594 214.967 Z" fill="#000000" fill-rule="nonzero" fill-opacity="1" /><path clip-path="url(#clip690)" d="M630.589 209.99 L634.848 209.99 L634.848 235.916 L630.589 235.916 L630.589 209.99 M630.589 199.897 L634.848 199.897 L634.848 205.291 L630.589 205.291 L630.589 199.897 Z" fill="#000000" fill-rule="nonzero" fill-opacity="1" /><path clip-path="url(#clip690)" d="M643.76 199.897 L648.019 199.897 L648.019 235.916 L643.76 235.916 L643.76 199.897 Z" fill="#000000" fill-rule="nonzero" fill-opacity="1" /><path clip-path="url(#clip690)" d="M668.714 222.883 Q663.552 222.883 661.561 224.064 Q659.57 225.244 659.57 228.092 Q659.57 230.36 661.052 231.703 Q662.556 233.022 665.126 233.022 Q668.668 233.022 670.797 230.522 Q672.95 227.999 672.95 223.832 L672.95 222.883 L668.714 222.883 M677.209 221.124 L677.209 235.916 L672.95 235.916 L672.95 231.981 Q671.492 234.342 669.316 235.476 Q667.14 236.587 663.992 236.587 Q660.01 236.587 657.649 234.365 Q655.311 232.119 655.311 228.369 Q655.311 223.994 658.228 221.772 Q661.168 219.55 666.978 219.55 L672.95 219.55 L672.95 219.133 Q672.95 216.194 671.005 214.596 Q669.084 212.976 665.589 212.976 Q663.367 212.976 661.26 213.508 Q659.154 214.041 657.209 215.106 L657.209 211.17 Q659.547 210.268 661.746 209.828 Q663.945 209.365 666.029 209.365 Q671.654 209.365 674.431 212.282 Q677.209 215.198 677.209 221.124 Z" fill="#000000" fill-rule="nonzero" fill-opacity="1" /><path clip-path="url(#clip690)" d="M701.005 213.971 Q700.288 213.555 699.431 213.37 Q698.598 213.161 697.579 213.161 Q693.968 213.161 692.024 215.522 Q690.103 217.86 690.103 222.258 L690.103 235.916 L685.82 235.916 L685.82 209.99 L690.103 209.99 L690.103 214.018 Q691.445 211.657 693.598 210.522 Q695.751 209.365 698.829 209.365 Q699.269 209.365 699.802 209.434 Q700.334 209.481 700.982 209.596 L701.005 213.971 Z" fill="#000000" fill-rule="nonzero" fill-opacity="1" /><path clip-path="url(#clip690)" d="M705.473 209.99 L709.732 209.99 L709.732 235.916 L705.473 235.916 L705.473 209.99 M705.473 199.897 L709.732 199.897 L709.732 205.291 L705.473 205.291 L705.473 199.897 Z" fill="#000000" fill-rule="nonzero" fill-opacity="1" /><path clip-path="url(#clip690)" d="M722.857 202.629 L722.857 209.99 L731.63 209.99 L731.63 213.3 L722.857 213.3 L722.857 227.374 Q722.857 230.545 723.714 231.448 Q724.593 232.351 727.255 232.351 L731.63 232.351 L731.63 235.916 L727.255 235.916 Q722.325 235.916 720.45 234.087 Q718.575 232.235 718.575 227.374 L718.575 213.3 L715.45 213.3 L715.45 209.99 L718.575 209.99 L718.575 202.629 L722.857 202.629 Z" fill="#000000" fill-rule="nonzero" fill-opacity="1" /><path clip-path="url(#clip690)" d="M748.019 238.323 Q746.213 242.953 744.5 244.365 Q742.787 245.777 739.917 245.777 L736.514 245.777 L736.514 242.212 L739.014 242.212 Q740.774 242.212 741.746 241.379 Q742.718 240.545 743.899 237.443 L744.662 235.499 L734.176 209.99 L738.69 209.99 L746.792 230.268 L754.894 209.99 L759.408 209.99 L748.019 238.323 Z" fill="#000000" fill-rule="nonzero" fill-opacity="1" /></svg>
