<?xml version="1.0" encoding="utf-8"?>
<svg xmlns="http://www.w3.org/2000/svg" xmlns:xlink="http://www.w3.org/1999/xlink" width="600" height="400" viewBox="0 0 2400 1600">
<defs>
  <clipPath id="clip140">
    <rect x="0" y="0" width="2400" height="1600"/>
  </clipPath>
</defs>
<path clip-path="url(#clip140)" d="M0 1600 L2400 1600 L2400 8.88178e-14 L0 8.88178e-14  Z" fill="#ffffff" fill-rule="evenodd" fill-opacity="1"/>
<defs>
  <clipPath id="clip141">
    <rect x="480" y="0" width="1681" height="1600"/>
  </clipPath>
</defs>
<path clip-path="url(#clip140)" d="M287.366 1423.18 L2352.76 1423.18 L2352.76 123.472 L287.366 123.472  Z" fill="#ffffff" fill-rule="evenodd" fill-opacity="1"/>
<defs>
  <clipPath id="clip142">
    <rect x="287" y="123" width="2066" height="1301"/>
  </clipPath>
</defs>
<polyline clip-path="url(#clip142)" style="stroke:#000000; stroke-linecap:round; stroke-linejoin:round; stroke-width:2; stroke-opacity:0.1; fill:none" points="343.87,1423.18 343.87,123.472 "/>
<polyline clip-path="url(#clip142)" style="stroke:#000000; stroke-linecap:round; stroke-linejoin:round; stroke-width:2; stroke-opacity:0.1; fill:none" points="831.478,1423.18 831.478,123.472 "/>
<polyline clip-path="url(#clip142)" style="stroke:#000000; stroke-linecap:round; stroke-linejoin:round; stroke-width:2; stroke-opacity:0.1; fill:none" points="1319.09,1423.18 1319.09,123.472 "/>
<polyline clip-path="url(#clip142)" style="stroke:#000000; stroke-linecap:round; stroke-linejoin:round; stroke-width:2; stroke-opacity:0.1; fill:none" points="1806.69,1423.18 1806.69,123.472 "/>
<polyline clip-path="url(#clip142)" style="stroke:#000000; stroke-linecap:round; stroke-linejoin:round; stroke-width:2; stroke-opacity:0.1; fill:none" points="2294.3,1423.18 2294.3,123.472 "/>
<polyline clip-path="url(#clip140)" style="stroke:#000000; stroke-linecap:round; stroke-linejoin:round; stroke-width:4; stroke-opacity:1; fill:none" points="287.366,1423.18 2352.76,1423.18 "/>
<polyline clip-path="url(#clip140)" style="stroke:#000000; stroke-linecap:round; stroke-linejoin:round; stroke-width:4; stroke-opacity:1; fill:none" points="343.87,1423.18 343.87,1404.28 "/>
<polyline clip-path="url(#clip140)" style="stroke:#000000; stroke-linecap:round; stroke-linejoin:round; stroke-width:4; stroke-opacity:1; fill:none" points="831.478,1423.18 831.478,1404.28 "/>
<polyline clip-path="url(#clip140)" style="stroke:#000000; stroke-linecap:round; stroke-linejoin:round; stroke-width:4; stroke-opacity:1; fill:none" points="1319.09,1423.18 1319.09,1404.28 "/>
<polyline clip-path="url(#clip140)" style="stroke:#000000; stroke-linecap:round; stroke-linejoin:round; stroke-width:4; stroke-opacity:1; fill:none" points="1806.69,1423.18 1806.69,1404.28 "/>
<polyline clip-path="url(#clip140)" style="stroke:#000000; stroke-linecap:round; stroke-linejoin:round; stroke-width:4; stroke-opacity:1; fill:none" points="2294.3,1423.18 2294.3,1404.28 "/>
<path clip-path="url(#clip140)" d="M343.87 1454.1 Q340.259 1454.1 338.43 1457.66 Q336.625 1461.2 336.625 1468.33 Q336.625 1475.44 338.43 1479.01 Q340.259 1482.55 343.87 1482.55 Q347.504 1482.55 349.31 1479.01 Q351.138 1475.44 351.138 1468.33 Q351.138 1461.2 349.31 1457.66 Q347.504 1454.1 343.87 1454.1 M343.87 1450.39 Q349.68 1450.39 352.736 1455 Q355.814 1459.58 355.814 1468.33 Q355.814 1477.06 352.736 1481.67 Q349.68 1486.25 343.87 1486.25 Q338.06 1486.25 334.981 1481.67 Q331.926 1477.06 331.926 1468.33 Q331.926 1459.58 334.981 1455 Q338.06 1450.39 343.87 1450.39 Z" fill="#000000" fill-rule="nonzero" fill-opacity="1" /><path clip-path="url(#clip140)" d="M795.17 1481.64 L811.489 1481.64 L811.489 1485.58 L789.545 1485.58 L789.545 1481.64 Q792.207 1478.89 796.79 1474.26 Q801.397 1469.61 802.577 1468.27 Q804.823 1465.74 805.702 1464.01 Q806.605 1462.25 806.605 1460.56 Q806.605 1457.8 804.661 1456.07 Q802.74 1454.33 799.638 1454.33 Q797.439 1454.33 794.985 1455.09 Q792.554 1455.86 789.777 1457.41 L789.777 1452.69 Q792.601 1451.55 795.054 1450.97 Q797.508 1450.39 799.545 1450.39 Q804.915 1450.39 808.11 1453.08 Q811.304 1455.77 811.304 1460.26 Q811.304 1462.39 810.494 1464.31 Q809.707 1466.2 807.601 1468.8 Q807.022 1469.47 803.92 1472.69 Q800.818 1475.88 795.17 1481.64 Z" fill="#000000" fill-rule="nonzero" fill-opacity="1" /><path clip-path="url(#clip140)" d="M821.351 1451.02 L839.707 1451.02 L839.707 1454.96 L825.633 1454.96 L825.633 1463.43 Q826.651 1463.08 827.67 1462.92 Q828.688 1462.73 829.707 1462.73 Q835.494 1462.73 838.874 1465.9 Q842.253 1469.08 842.253 1474.49 Q842.253 1480.07 838.781 1483.17 Q835.309 1486.25 828.989 1486.25 Q826.813 1486.25 824.545 1485.88 Q822.3 1485.51 819.892 1484.77 L819.892 1480.07 Q821.976 1481.2 824.198 1481.76 Q826.42 1482.32 828.897 1482.32 Q832.901 1482.32 835.239 1480.21 Q837.577 1478.1 837.577 1474.49 Q837.577 1470.88 835.239 1468.77 Q832.901 1466.67 828.897 1466.67 Q827.022 1466.67 825.147 1467.08 Q823.295 1467.5 821.351 1468.38 L821.351 1451.02 Z" fill="#000000" fill-rule="nonzero" fill-opacity="1" /><path clip-path="url(#clip140)" d="M861.466 1454.1 Q857.855 1454.1 856.026 1457.66 Q854.221 1461.2 854.221 1468.33 Q854.221 1475.44 856.026 1479.01 Q857.855 1482.55 861.466 1482.55 Q865.1 1482.55 866.906 1479.01 Q868.735 1475.44 868.735 1468.33 Q868.735 1461.2 866.906 1457.66 Q865.1 1454.1 861.466 1454.1 M861.466 1450.39 Q867.276 1450.39 870.332 1455 Q873.41 1459.58 873.41 1468.33 Q873.41 1477.06 870.332 1481.67 Q867.276 1486.25 861.466 1486.25 Q855.656 1486.25 852.577 1481.67 Q849.522 1477.06 849.522 1468.33 Q849.522 1459.58 852.577 1455 Q855.656 1450.39 861.466 1450.39 Z" fill="#000000" fill-rule="nonzero" fill-opacity="1" /><path clip-path="url(#clip140)" d="M1278.7 1451.02 L1297.06 1451.02 L1297.06 1454.96 L1282.99 1454.96 L1282.99 1463.43 Q1284 1463.08 1285.02 1462.92 Q1286.04 1462.73 1287.06 1462.73 Q1292.85 1462.73 1296.23 1465.9 Q1299.61 1469.08 1299.61 1474.49 Q1299.61 1480.07 1296.13 1483.17 Q1292.66 1486.25 1286.34 1486.25 Q1284.17 1486.25 1281.9 1485.88 Q1279.65 1485.51 1277.25 1484.77 L1277.25 1480.07 Q1279.33 1481.2 1281.55 1481.76 Q1283.77 1482.32 1286.25 1482.32 Q1290.25 1482.32 1292.59 1480.21 Q1294.93 1478.1 1294.93 1474.49 Q1294.93 1470.88 1292.59 1468.77 Q1290.25 1466.67 1286.25 1466.67 Q1284.38 1466.67 1282.5 1467.08 Q1280.65 1467.5 1278.7 1468.38 L1278.7 1451.02 Z" fill="#000000" fill-rule="nonzero" fill-opacity="1" /><path clip-path="url(#clip140)" d="M1318.82 1454.1 Q1315.21 1454.1 1313.38 1457.66 Q1311.57 1461.2 1311.57 1468.33 Q1311.57 1475.44 1313.38 1479.01 Q1315.21 1482.55 1318.82 1482.55 Q1322.45 1482.55 1324.26 1479.01 Q1326.09 1475.44 1326.09 1468.33 Q1326.09 1461.2 1324.26 1457.66 Q1322.45 1454.1 1318.82 1454.1 M1318.82 1450.39 Q1324.63 1450.39 1327.69 1455 Q1330.76 1459.58 1330.76 1468.33 Q1330.76 1477.06 1327.69 1481.67 Q1324.63 1486.25 1318.82 1486.25 Q1313.01 1486.25 1309.93 1481.67 Q1306.88 1477.06 1306.88 1468.33 Q1306.88 1459.58 1309.93 1455 Q1313.01 1450.39 1318.82 1450.39 Z" fill="#000000" fill-rule="nonzero" fill-opacity="1" /><path clip-path="url(#clip140)" d="M1348.98 1454.1 Q1345.37 1454.1 1343.54 1457.66 Q1341.74 1461.2 1341.74 1468.33 Q1341.74 1475.44 1343.54 1479.01 Q1345.37 1482.55 1348.98 1482.55 Q1352.62 1482.55 1354.42 1479.01 Q1356.25 1475.44 1356.25 1468.33 Q1356.25 1461.2 1354.42 1457.66 Q1352.62 1454.1 1348.98 1454.1 M1348.98 1450.39 Q1354.79 1450.39 1357.85 1455 Q1360.93 1459.58 1360.93 1468.33 Q1360.93 1477.06 1357.85 1481.67 Q1354.79 1486.25 1348.98 1486.25 Q1343.17 1486.25 1340.09 1481.67 Q1337.04 1477.06 1337.04 1468.33 Q1337.04 1459.58 1340.09 1455 Q1343.17 1450.39 1348.98 1450.39 Z" fill="#000000" fill-rule="nonzero" fill-opacity="1" /><path clip-path="url(#clip140)" d="M1764.97 1451.02 L1787.19 1451.02 L1787.19 1453.01 L1774.65 1485.58 L1769.76 1485.58 L1781.57 1454.96 L1764.97 1454.96 L1764.97 1451.02 Z" fill="#000000" fill-rule="nonzero" fill-opacity="1" /><path clip-path="url(#clip140)" d="M1796.36 1451.02 L1814.71 1451.02 L1814.71 1454.96 L1800.64 1454.96 L1800.64 1463.43 Q1801.66 1463.08 1802.68 1462.92 Q1803.7 1462.73 1804.71 1462.73 Q1810.5 1462.73 1813.88 1465.9 Q1817.26 1469.08 1817.26 1474.49 Q1817.26 1480.07 1813.79 1483.17 Q1810.32 1486.25 1804 1486.25 Q1801.82 1486.25 1799.55 1485.88 Q1797.31 1485.51 1794.9 1484.77 L1794.9 1480.07 Q1796.98 1481.2 1799.21 1481.76 Q1801.43 1482.32 1803.9 1482.32 Q1807.91 1482.32 1810.25 1480.21 Q1812.58 1478.1 1812.58 1474.49 Q1812.58 1470.88 1810.25 1468.77 Q1807.91 1466.67 1803.9 1466.67 Q1802.03 1466.67 1800.15 1467.08 Q1798.3 1467.5 1796.36 1468.38 L1796.36 1451.02 Z" fill="#000000" fill-rule="nonzero" fill-opacity="1" /><path clip-path="url(#clip140)" d="M1836.47 1454.1 Q1832.86 1454.1 1831.03 1457.66 Q1829.23 1461.2 1829.23 1468.33 Q1829.23 1475.44 1831.03 1479.01 Q1832.86 1482.55 1836.47 1482.55 Q1840.11 1482.55 1841.91 1479.01 Q1843.74 1475.44 1843.74 1468.33 Q1843.74 1461.2 1841.91 1457.66 Q1840.11 1454.1 1836.47 1454.1 M1836.47 1450.39 Q1842.28 1450.39 1845.34 1455 Q1848.42 1459.58 1848.42 1468.33 Q1848.42 1477.06 1845.34 1481.67 Q1842.28 1486.25 1836.47 1486.25 Q1830.66 1486.25 1827.58 1481.67 Q1824.53 1477.06 1824.53 1468.33 Q1824.53 1459.58 1827.58 1455 Q1830.66 1450.39 1836.47 1450.39 Z" fill="#000000" fill-rule="nonzero" fill-opacity="1" /><path clip-path="url(#clip140)" d="M2238.83 1481.64 L2246.47 1481.64 L2246.47 1455.28 L2238.16 1456.95 L2238.16 1452.69 L2246.42 1451.02 L2251.1 1451.02 L2251.1 1481.64 L2258.73 1481.64 L2258.73 1485.58 L2238.83 1485.58 L2238.83 1481.64 Z" fill="#000000" fill-rule="nonzero" fill-opacity="1" /><path clip-path="url(#clip140)" d="M2278.18 1454.1 Q2274.57 1454.1 2272.74 1457.66 Q2270.93 1461.2 2270.93 1468.33 Q2270.93 1475.44 2272.74 1479.01 Q2274.57 1482.55 2278.18 1482.55 Q2281.81 1482.55 2283.62 1479.01 Q2285.45 1475.44 2285.45 1468.33 Q2285.45 1461.2 2283.62 1457.66 Q2281.81 1454.1 2278.18 1454.1 M2278.18 1450.39 Q2283.99 1450.39 2287.04 1455 Q2290.12 1459.58 2290.12 1468.33 Q2290.12 1477.06 2287.04 1481.67 Q2283.99 1486.25 2278.18 1486.25 Q2272.37 1486.25 2269.29 1481.67 Q2266.23 1477.06 2266.23 1468.33 Q2266.23 1459.58 2269.29 1455 Q2272.37 1450.39 2278.18 1450.39 Z" fill="#000000" fill-rule="nonzero" fill-opacity="1" /><path clip-path="url(#clip140)" d="M2308.34 1454.1 Q2304.73 1454.1 2302.9 1457.66 Q2301.1 1461.2 2301.1 1468.33 Q2301.1 1475.44 2302.9 1479.01 Q2304.73 1482.55 2308.34 1482.55 Q2311.97 1482.55 2313.78 1479.01 Q2315.61 1475.44 2315.61 1468.33 Q2315.61 1461.2 2313.78 1457.66 Q2311.97 1454.1 2308.34 1454.1 M2308.34 1450.39 Q2314.15 1450.39 2317.21 1455 Q2320.29 1459.58 2320.29 1468.33 Q2320.29 1477.06 2317.21 1481.67 Q2314.15 1486.25 2308.34 1486.25 Q2302.53 1486.25 2299.45 1481.67 Q2296.4 1477.06 2296.4 1468.33 Q2296.4 1459.58 2299.45 1455 Q2302.53 1450.39 2308.34 1450.39 Z" fill="#000000" fill-rule="nonzero" fill-opacity="1" /><path clip-path="url(#clip140)" d="M2338.5 1454.1 Q2334.89 1454.1 2333.06 1457.66 Q2331.26 1461.2 2331.26 1468.33 Q2331.26 1475.44 2333.06 1479.01 Q2334.89 1482.55 2338.5 1482.55 Q2342.14 1482.55 2343.94 1479.01 Q2345.77 1475.44 2345.77 1468.33 Q2345.77 1461.2 2343.94 1457.66 Q2342.14 1454.1 2338.5 1454.1 M2338.5 1450.39 Q2344.31 1450.39 2347.37 1455 Q2350.45 1459.58 2350.45 1468.33 Q2350.45 1477.06 2347.37 1481.67 Q2344.31 1486.25 2338.5 1486.25 Q2332.69 1486.25 2329.61 1481.67 Q2326.56 1477.06 2326.56 1468.33 Q2326.56 1459.58 2329.61 1455 Q2332.69 1450.39 2338.5 1450.39 Z" fill="#000000" fill-rule="nonzero" fill-opacity="1" /><path clip-path="url(#clip140)" d="M1283.9 1524.18 L1283.9 1530.96 Q1280.66 1527.94 1276.97 1526.44 Q1273.3 1524.95 1269.17 1524.95 Q1261.02 1524.95 1256.69 1529.95 Q1252.36 1534.91 1252.36 1544.33 Q1252.36 1553.72 1256.69 1558.72 Q1261.02 1563.68 1269.17 1563.68 Q1273.3 1563.68 1276.97 1562.19 Q1280.66 1560.69 1283.9 1557.67 L1283.9 1564.38 Q1280.53 1566.68 1276.74 1567.82 Q1272.99 1568.97 1268.79 1568.97 Q1258 1568.97 1251.79 1562.38 Q1245.58 1555.76 1245.58 1544.33 Q1245.58 1532.87 1251.79 1526.28 Q1258 1519.66 1268.79 1519.66 Q1273.05 1519.66 1276.81 1520.81 Q1280.59 1521.92 1283.9 1524.18 Z" fill="#000000" fill-rule="nonzero" fill-opacity="1" /><path clip-path="url(#clip140)" d="M1324.07 1548.76 L1324.07 1551.62 L1297.14 1551.62 Q1297.53 1557.67 1300.77 1560.85 Q1304.05 1564 1309.88 1564 Q1313.25 1564 1316.4 1563.17 Q1319.58 1562.35 1322.7 1560.69 L1322.7 1566.23 Q1319.55 1567.57 1316.24 1568.27 Q1312.93 1568.97 1309.53 1568.97 Q1301 1568.97 1296 1564 Q1291.03 1559.04 1291.03 1550.57 Q1291.03 1541.82 1295.74 1536.69 Q1300.49 1531.54 1308.51 1531.54 Q1315.7 1531.54 1319.87 1536.18 Q1324.07 1540.8 1324.07 1548.76 M1318.21 1547.04 Q1318.15 1542.23 1315.51 1539.37 Q1312.9 1536.5 1308.57 1536.5 Q1303.67 1536.5 1300.71 1539.27 Q1297.78 1542.04 1297.34 1547.07 L1318.21 1547.04 Z" fill="#000000" fill-rule="nonzero" fill-opacity="1" /><path clip-path="url(#clip140)" d="M1333.68 1518.52 L1339.54 1518.52 L1339.54 1568.04 L1333.68 1568.04 L1333.68 1518.52 Z" fill="#000000" fill-rule="nonzero" fill-opacity="1" /><path clip-path="url(#clip140)" d="M1351.79 1518.52 L1357.65 1518.52 L1357.65 1568.04 L1351.79 1568.04 L1351.79 1518.52 Z" fill="#000000" fill-rule="nonzero" fill-opacity="1" /><path clip-path="url(#clip140)" d="M1392.63 1533.45 L1392.63 1538.98 Q1390.15 1537.71 1387.47 1537.07 Q1384.8 1536.44 1381.94 1536.44 Q1377.58 1536.44 1375.38 1537.77 Q1373.21 1539.11 1373.21 1541.79 Q1373.21 1543.82 1374.77 1545 Q1376.33 1546.15 1381.04 1547.2 L1383.05 1547.64 Q1389.29 1548.98 1391.9 1551.43 Q1394.54 1553.85 1394.54 1558.21 Q1394.54 1563.17 1390.59 1566.07 Q1386.68 1568.97 1379.8 1568.97 Q1376.94 1568.97 1373.82 1568.39 Q1370.73 1567.85 1367.29 1566.74 L1367.29 1560.69 Q1370.54 1562.38 1373.69 1563.24 Q1376.84 1564.07 1379.93 1564.07 Q1384.07 1564.07 1386.3 1562.66 Q1388.52 1561.23 1388.52 1558.65 Q1388.52 1556.27 1386.9 1554.99 Q1385.31 1553.72 1379.87 1552.54 L1377.83 1552.07 Q1372.39 1550.92 1369.97 1548.56 Q1367.55 1546.18 1367.55 1542.04 Q1367.55 1537.01 1371.11 1534.27 Q1374.68 1531.54 1381.24 1531.54 Q1384.48 1531.54 1387.35 1532.01 Q1390.21 1532.49 1392.63 1533.45 Z" fill="#000000" fill-rule="nonzero" fill-opacity="1" /><polyline clip-path="url(#clip142)" style="stroke:#000000; stroke-linecap:round; stroke-linejoin:round; stroke-width:2; stroke-opacity:0.1; fill:none" points="287.366,1338.67 2352.76,1338.67 "/>
<polyline clip-path="url(#clip142)" style="stroke:#000000; stroke-linecap:round; stroke-linejoin:round; stroke-width:2; stroke-opacity:0.1; fill:none" points="287.366,1163.93 2352.76,1163.93 "/>
<polyline clip-path="url(#clip142)" style="stroke:#000000; stroke-linecap:round; stroke-linejoin:round; stroke-width:2; stroke-opacity:0.1; fill:none" points="287.366,989.19 2352.76,989.19 "/>
<polyline clip-path="url(#clip142)" style="stroke:#000000; stroke-linecap:round; stroke-linejoin:round; stroke-width:2; stroke-opacity:0.1; fill:none" points="287.366,814.448 2352.76,814.448 "/>
<polyline clip-path="url(#clip142)" style="stroke:#000000; stroke-linecap:round; stroke-linejoin:round; stroke-width:2; stroke-opacity:0.1; fill:none" points="287.366,639.705 2352.76,639.705 "/>
<polyline clip-path="url(#clip142)" style="stroke:#000000; stroke-linecap:round; stroke-linejoin:round; stroke-width:2; stroke-opacity:0.1; fill:none" points="287.366,464.963 2352.76,464.963 "/>
<polyline clip-path="url(#clip142)" style="stroke:#000000; stroke-linecap:round; stroke-linejoin:round; stroke-width:2; stroke-opacity:0.1; fill:none" points="287.366,290.221 2352.76,290.221 "/>
<polyline clip-path="url(#clip140)" style="stroke:#000000; stroke-linecap:round; stroke-linejoin:round; stroke-width:4; stroke-opacity:1; fill:none" points="287.366,1423.18 287.366,123.472 "/>
<polyline clip-path="url(#clip140)" style="stroke:#000000; stroke-linecap:round; stroke-linejoin:round; stroke-width:4; stroke-opacity:1; fill:none" points="287.366,1338.67 306.264,1338.67 "/>
<polyline clip-path="url(#clip140)" style="stroke:#000000; stroke-linecap:round; stroke-linejoin:round; stroke-width:4; stroke-opacity:1; fill:none" points="287.366,1163.93 306.264,1163.93 "/>
<polyline clip-path="url(#clip140)" style="stroke:#000000; stroke-linecap:round; stroke-linejoin:round; stroke-width:4; stroke-opacity:1; fill:none" points="287.366,989.19 306.264,989.19 "/>
<polyline clip-path="url(#clip140)" style="stroke:#000000; stroke-linecap:round; stroke-linejoin:round; stroke-width:4; stroke-opacity:1; fill:none" points="287.366,814.448 306.264,814.448 "/>
<polyline clip-path="url(#clip140)" style="stroke:#000000; stroke-linecap:round; stroke-linejoin:round; stroke-width:4; stroke-opacity:1; fill:none" points="287.366,639.705 306.264,639.705 "/>
<polyline clip-path="url(#clip140)" style="stroke:#000000; stroke-linecap:round; stroke-linejoin:round; stroke-width:4; stroke-opacity:1; fill:none" points="287.366,464.963 306.264,464.963 "/>
<polyline clip-path="url(#clip140)" style="stroke:#000000; stroke-linecap:round; stroke-linejoin:round; stroke-width:4; stroke-opacity:1; fill:none" points="287.366,290.221 306.264,290.221 "/>
<path clip-path="url(#clip140)" d="M115.256 1339.13 L144.931 1339.13 L144.931 1343.06 L115.256 1343.06 L115.256 1339.13 Z" fill="#000000" fill-rule="nonzero" fill-opacity="1" /><path clip-path="url(#clip140)" d="M165.024 1324.47 Q161.413 1324.47 159.584 1328.04 Q157.778 1331.58 157.778 1338.71 Q157.778 1345.82 159.584 1349.38 Q161.413 1352.92 165.024 1352.92 Q168.658 1352.92 170.464 1349.38 Q172.292 1345.82 172.292 1338.71 Q172.292 1331.58 170.464 1328.04 Q168.658 1324.47 165.024 1324.47 M165.024 1320.77 Q170.834 1320.77 173.889 1325.38 Q176.968 1329.96 176.968 1338.71 Q176.968 1347.44 173.889 1352.04 Q170.834 1356.63 165.024 1356.63 Q159.214 1356.63 156.135 1352.04 Q153.079 1347.44 153.079 1338.71 Q153.079 1329.96 156.135 1325.38 Q159.214 1320.77 165.024 1320.77 Z" fill="#000000" fill-rule="nonzero" fill-opacity="1" /><path clip-path="url(#clip140)" d="M185.186 1350.07 L190.07 1350.07 L190.07 1355.95 L185.186 1355.95 L185.186 1350.07 Z" fill="#000000" fill-rule="nonzero" fill-opacity="1" /><path clip-path="url(#clip140)" d="M199.075 1321.39 L221.297 1321.39 L221.297 1323.39 L208.75 1355.95 L203.866 1355.95 L215.672 1325.33 L199.075 1325.33 L199.075 1321.39 Z" fill="#000000" fill-rule="nonzero" fill-opacity="1" /><path clip-path="url(#clip140)" d="M230.463 1321.39 L248.82 1321.39 L248.82 1325.33 L234.746 1325.33 L234.746 1333.8 Q235.764 1333.45 236.783 1333.29 Q237.801 1333.11 238.82 1333.11 Q244.607 1333.11 247.986 1336.28 Q251.366 1339.45 251.366 1344.87 Q251.366 1350.45 247.894 1353.55 Q244.421 1356.63 238.102 1356.63 Q235.926 1356.63 233.658 1356.26 Q231.412 1355.88 229.005 1355.14 L229.005 1350.45 Q231.088 1351.58 233.31 1352.13 Q235.533 1352.69 238.009 1352.69 Q242.014 1352.69 244.352 1350.58 Q246.69 1348.48 246.69 1344.87 Q246.69 1341.26 244.352 1339.15 Q242.014 1337.04 238.009 1337.04 Q236.135 1337.04 234.26 1337.46 Q232.408 1337.88 230.463 1338.76 L230.463 1321.39 Z" fill="#000000" fill-rule="nonzero" fill-opacity="1" /><path clip-path="url(#clip140)" d="M114.26 1164.38 L143.936 1164.38 L143.936 1168.32 L114.26 1168.32 L114.26 1164.38 Z" fill="#000000" fill-rule="nonzero" fill-opacity="1" /><path clip-path="url(#clip140)" d="M164.028 1149.73 Q160.417 1149.73 158.589 1153.3 Q156.783 1156.84 156.783 1163.97 Q156.783 1171.07 158.589 1174.64 Q160.417 1178.18 164.028 1178.18 Q167.663 1178.18 169.468 1174.64 Q171.297 1171.07 171.297 1163.97 Q171.297 1156.84 169.468 1153.3 Q167.663 1149.73 164.028 1149.73 M164.028 1146.03 Q169.839 1146.03 172.894 1150.63 Q175.973 1155.22 175.973 1163.97 Q175.973 1172.69 172.894 1177.3 Q169.839 1181.88 164.028 1181.88 Q158.218 1181.88 155.14 1177.3 Q152.084 1172.69 152.084 1163.97 Q152.084 1155.22 155.14 1150.63 Q158.218 1146.03 164.028 1146.03 Z" fill="#000000" fill-rule="nonzero" fill-opacity="1" /><path clip-path="url(#clip140)" d="M184.19 1175.33 L189.075 1175.33 L189.075 1181.21 L184.19 1181.21 L184.19 1175.33 Z" fill="#000000" fill-rule="nonzero" fill-opacity="1" /><path clip-path="url(#clip140)" d="M199.306 1146.65 L217.662 1146.65 L217.662 1150.59 L203.588 1150.59 L203.588 1159.06 Q204.607 1158.71 205.625 1158.55 Q206.644 1158.37 207.662 1158.37 Q213.449 1158.37 216.829 1161.54 Q220.209 1164.71 220.209 1170.12 Q220.209 1175.7 216.736 1178.8 Q213.264 1181.88 206.945 1181.88 Q204.769 1181.88 202.5 1181.51 Q200.255 1181.14 197.848 1180.4 L197.848 1175.7 Q199.931 1176.84 202.153 1177.39 Q204.375 1177.95 206.852 1177.95 Q210.857 1177.95 213.195 1175.84 Q215.533 1173.74 215.533 1170.12 Q215.533 1166.51 213.195 1164.41 Q210.857 1162.3 206.852 1162.3 Q204.977 1162.3 203.102 1162.72 Q201.25 1163.13 199.306 1164.01 L199.306 1146.65 Z" fill="#000000" fill-rule="nonzero" fill-opacity="1" /><path clip-path="url(#clip140)" d="M239.422 1149.73 Q235.81 1149.73 233.982 1153.3 Q232.176 1156.84 232.176 1163.97 Q232.176 1171.07 233.982 1174.64 Q235.81 1178.18 239.422 1178.18 Q243.056 1178.18 244.861 1174.64 Q246.69 1171.07 246.69 1163.97 Q246.69 1156.84 244.861 1153.3 Q243.056 1149.73 239.422 1149.73 M239.422 1146.03 Q245.232 1146.03 248.287 1150.63 Q251.366 1155.22 251.366 1163.97 Q251.366 1172.69 248.287 1177.3 Q245.232 1181.88 239.422 1181.88 Q233.611 1181.88 230.533 1177.3 Q227.477 1172.69 227.477 1163.97 Q227.477 1155.22 230.533 1150.63 Q233.611 1146.03 239.422 1146.03 Z" fill="#000000" fill-rule="nonzero" fill-opacity="1" /><path clip-path="url(#clip140)" d="M115.256 989.641 L144.931 989.641 L144.931 993.576 L115.256 993.576 L115.256 989.641 Z" fill="#000000" fill-rule="nonzero" fill-opacity="1" /><path clip-path="url(#clip140)" d="M165.024 974.989 Q161.413 974.989 159.584 978.553 Q157.778 982.095 157.778 989.225 Q157.778 996.331 159.584 999.896 Q161.413 1003.44 165.024 1003.44 Q168.658 1003.44 170.464 999.896 Q172.292 996.331 172.292 989.225 Q172.292 982.095 170.464 978.553 Q168.658 974.989 165.024 974.989 M165.024 971.285 Q170.834 971.285 173.889 975.891 Q176.968 980.475 176.968 989.225 Q176.968 997.951 173.889 1002.56 Q170.834 1007.14 165.024 1007.14 Q159.214 1007.14 156.135 1002.56 Q153.079 997.951 153.079 989.225 Q153.079 980.475 156.135 975.891 Q159.214 971.285 165.024 971.285 Z" fill="#000000" fill-rule="nonzero" fill-opacity="1" /><path clip-path="url(#clip140)" d="M185.186 1000.59 L190.07 1000.59 L190.07 1006.47 L185.186 1006.47 L185.186 1000.59 Z" fill="#000000" fill-rule="nonzero" fill-opacity="1" /><path clip-path="url(#clip140)" d="M204.283 1002.53 L220.602 1002.53 L220.602 1006.47 L198.658 1006.47 L198.658 1002.53 Q201.32 999.78 205.903 995.151 Q210.51 990.498 211.69 989.155 Q213.936 986.632 214.815 984.896 Q215.718 983.137 215.718 981.447 Q215.718 978.692 213.774 976.956 Q211.852 975.22 208.75 975.22 Q206.551 975.22 204.098 975.984 Q201.667 976.748 198.889 978.299 L198.889 973.577 Q201.713 972.442 204.167 971.864 Q206.621 971.285 208.658 971.285 Q214.028 971.285 217.223 973.97 Q220.417 976.655 220.417 981.146 Q220.417 983.276 219.607 985.197 Q218.82 987.095 216.713 989.688 Q216.135 990.359 213.033 993.576 Q209.931 996.771 204.283 1002.53 Z" fill="#000000" fill-rule="nonzero" fill-opacity="1" /><path clip-path="url(#clip140)" d="M230.463 971.91 L248.82 971.91 L248.82 975.845 L234.746 975.845 L234.746 984.317 Q235.764 983.97 236.783 983.808 Q237.801 983.623 238.82 983.623 Q244.607 983.623 247.986 986.794 Q251.366 989.965 251.366 995.382 Q251.366 1000.96 247.894 1004.06 Q244.421 1007.14 238.102 1007.14 Q235.926 1007.14 233.658 1006.77 Q231.412 1006.4 229.005 1005.66 L229.005 1000.96 Q231.088 1002.09 233.31 1002.65 Q235.533 1003.21 238.009 1003.21 Q242.014 1003.21 244.352 1001.1 Q246.69 998.993 246.69 995.382 Q246.69 991.771 244.352 989.664 Q242.014 987.558 238.009 987.558 Q236.135 987.558 234.26 987.975 Q232.408 988.391 230.463 989.271 L230.463 971.91 Z" fill="#000000" fill-rule="nonzero" fill-opacity="1" /><path clip-path="url(#clip140)" d="M164.028 800.246 Q160.417 800.246 158.589 803.811 Q156.783 807.353 156.783 814.482 Q156.783 821.589 158.589 825.154 Q160.417 828.695 164.028 828.695 Q167.663 828.695 169.468 825.154 Q171.297 821.589 171.297 814.482 Q171.297 807.353 169.468 803.811 Q167.663 800.246 164.028 800.246 M164.028 796.543 Q169.839 796.543 172.894 801.149 Q175.973 805.732 175.973 814.482 Q175.973 823.209 172.894 827.816 Q169.839 832.399 164.028 832.399 Q158.218 832.399 155.14 827.816 Q152.084 823.209 152.084 814.482 Q152.084 805.732 155.14 801.149 Q158.218 796.543 164.028 796.543 Z" fill="#000000" fill-rule="nonzero" fill-opacity="1" /><path clip-path="url(#clip140)" d="M184.19 825.848 L189.075 825.848 L189.075 831.728 L184.19 831.728 L184.19 825.848 Z" fill="#000000" fill-rule="nonzero" fill-opacity="1" /><path clip-path="url(#clip140)" d="M209.26 800.246 Q205.649 800.246 203.82 803.811 Q202.014 807.353 202.014 814.482 Q202.014 821.589 203.82 825.154 Q205.649 828.695 209.26 828.695 Q212.894 828.695 214.699 825.154 Q216.528 821.589 216.528 814.482 Q216.528 807.353 214.699 803.811 Q212.894 800.246 209.26 800.246 M209.26 796.543 Q215.07 796.543 218.125 801.149 Q221.204 805.732 221.204 814.482 Q221.204 823.209 218.125 827.816 Q215.07 832.399 209.26 832.399 Q203.449 832.399 200.371 827.816 Q197.315 823.209 197.315 814.482 Q197.315 805.732 200.371 801.149 Q203.449 796.543 209.26 796.543 Z" fill="#000000" fill-rule="nonzero" fill-opacity="1" /><path clip-path="url(#clip140)" d="M239.422 800.246 Q235.81 800.246 233.982 803.811 Q232.176 807.353 232.176 814.482 Q232.176 821.589 233.982 825.154 Q235.81 828.695 239.422 828.695 Q243.056 828.695 244.861 825.154 Q246.69 821.589 246.69 814.482 Q246.69 807.353 244.861 803.811 Q243.056 800.246 239.422 800.246 M239.422 796.543 Q245.232 796.543 248.287 801.149 Q251.366 805.732 251.366 814.482 Q251.366 823.209 248.287 827.816 Q245.232 832.399 239.422 832.399 Q233.611 832.399 230.533 827.816 Q227.477 823.209 227.477 814.482 Q227.477 805.732 230.533 801.149 Q233.611 796.543 239.422 796.543 Z" fill="#000000" fill-rule="nonzero" fill-opacity="1" /><path clip-path="url(#clip140)" d="M165.024 625.504 Q161.413 625.504 159.584 629.069 Q157.778 632.611 157.778 639.74 Q157.778 646.847 159.584 650.411 Q161.413 653.953 165.024 653.953 Q168.658 653.953 170.464 650.411 Q172.292 646.847 172.292 639.74 Q172.292 632.611 170.464 629.069 Q168.658 625.504 165.024 625.504 M165.024 621.8 Q170.834 621.8 173.889 626.407 Q176.968 630.99 176.968 639.74 Q176.968 648.467 173.889 653.073 Q170.834 657.657 165.024 657.657 Q159.214 657.657 156.135 653.073 Q153.079 648.467 153.079 639.74 Q153.079 630.99 156.135 626.407 Q159.214 621.8 165.024 621.8 Z" fill="#000000" fill-rule="nonzero" fill-opacity="1" /><path clip-path="url(#clip140)" d="M185.186 651.106 L190.07 651.106 L190.07 656.985 L185.186 656.985 L185.186 651.106 Z" fill="#000000" fill-rule="nonzero" fill-opacity="1" /><path clip-path="url(#clip140)" d="M204.283 653.05 L220.602 653.05 L220.602 656.985 L198.658 656.985 L198.658 653.05 Q201.32 650.296 205.903 645.666 Q210.51 641.013 211.69 639.671 Q213.936 637.148 214.815 635.411 Q215.718 633.652 215.718 631.962 Q215.718 629.208 213.774 627.472 Q211.852 625.736 208.75 625.736 Q206.551 625.736 204.098 626.499 Q201.667 627.263 198.889 628.814 L198.889 624.092 Q201.713 622.958 204.167 622.379 Q206.621 621.8 208.658 621.8 Q214.028 621.8 217.223 624.486 Q220.417 627.171 220.417 631.661 Q220.417 633.791 219.607 635.712 Q218.82 637.611 216.713 640.203 Q216.135 640.874 213.033 644.092 Q209.931 647.286 204.283 653.05 Z" fill="#000000" fill-rule="nonzero" fill-opacity="1" /><path clip-path="url(#clip140)" d="M230.463 622.425 L248.82 622.425 L248.82 626.361 L234.746 626.361 L234.746 634.833 Q235.764 634.486 236.783 634.323 Q237.801 634.138 238.82 634.138 Q244.607 634.138 247.986 637.31 Q251.366 640.481 251.366 645.898 Q251.366 651.476 247.894 654.578 Q244.421 657.657 238.102 657.657 Q235.926 657.657 233.658 657.286 Q231.412 656.916 229.005 656.175 L229.005 651.476 Q231.088 652.61 233.31 653.166 Q235.533 653.722 238.009 653.722 Q242.014 653.722 244.352 651.615 Q246.69 649.509 246.69 645.898 Q246.69 642.286 244.352 640.18 Q242.014 638.073 238.009 638.073 Q236.135 638.073 234.26 638.49 Q232.408 638.907 230.463 639.786 L230.463 622.425 Z" fill="#000000" fill-rule="nonzero" fill-opacity="1" /><path clip-path="url(#clip140)" d="M164.028 450.762 Q160.417 450.762 158.589 454.327 Q156.783 457.868 156.783 464.998 Q156.783 472.104 158.589 475.669 Q160.417 479.211 164.028 479.211 Q167.663 479.211 169.468 475.669 Q171.297 472.104 171.297 464.998 Q171.297 457.868 169.468 454.327 Q167.663 450.762 164.028 450.762 M164.028 447.058 Q169.839 447.058 172.894 451.665 Q175.973 456.248 175.973 464.998 Q175.973 473.725 172.894 478.331 Q169.839 482.914 164.028 482.914 Q158.218 482.914 155.14 478.331 Q152.084 473.725 152.084 464.998 Q152.084 456.248 155.14 451.665 Q158.218 447.058 164.028 447.058 Z" fill="#000000" fill-rule="nonzero" fill-opacity="1" /><path clip-path="url(#clip140)" d="M184.19 476.364 L189.075 476.364 L189.075 482.243 L184.19 482.243 L184.19 476.364 Z" fill="#000000" fill-rule="nonzero" fill-opacity="1" /><path clip-path="url(#clip140)" d="M199.306 447.683 L217.662 447.683 L217.662 451.618 L203.588 451.618 L203.588 460.091 Q204.607 459.743 205.625 459.581 Q206.644 459.396 207.662 459.396 Q213.449 459.396 216.829 462.567 Q220.209 465.739 220.209 471.155 Q220.209 476.734 216.736 479.836 Q213.264 482.914 206.945 482.914 Q204.769 482.914 202.5 482.544 Q200.255 482.174 197.848 481.433 L197.848 476.734 Q199.931 477.868 202.153 478.424 Q204.375 478.979 206.852 478.979 Q210.857 478.979 213.195 476.873 Q215.533 474.766 215.533 471.155 Q215.533 467.544 213.195 465.438 Q210.857 463.331 206.852 463.331 Q204.977 463.331 203.102 463.748 Q201.25 464.165 199.306 465.044 L199.306 447.683 Z" fill="#000000" fill-rule="nonzero" fill-opacity="1" /><path clip-path="url(#clip140)" d="M239.422 450.762 Q235.81 450.762 233.982 454.327 Q232.176 457.868 232.176 464.998 Q232.176 472.104 233.982 475.669 Q235.81 479.211 239.422 479.211 Q243.056 479.211 244.861 475.669 Q246.69 472.104 246.69 464.998 Q246.69 457.868 244.861 454.327 Q243.056 450.762 239.422 450.762 M239.422 447.058 Q245.232 447.058 248.287 451.665 Q251.366 456.248 251.366 464.998 Q251.366 473.725 248.287 478.331 Q245.232 482.914 239.422 482.914 Q233.611 482.914 230.533 478.331 Q227.477 473.725 227.477 464.998 Q227.477 456.248 230.533 451.665 Q233.611 447.058 239.422 447.058 Z" fill="#000000" fill-rule="nonzero" fill-opacity="1" /><path clip-path="url(#clip140)" d="M165.024 276.02 Q161.413 276.02 159.584 279.584 Q157.778 283.126 157.778 290.256 Q157.778 297.362 159.584 300.927 Q161.413 304.469 165.024 304.469 Q168.658 304.469 170.464 300.927 Q172.292 297.362 172.292 290.256 Q172.292 283.126 170.464 279.584 Q168.658 276.02 165.024 276.02 M165.024 272.316 Q170.834 272.316 173.889 276.922 Q176.968 281.506 176.968 290.256 Q176.968 298.982 173.889 303.589 Q170.834 308.172 165.024 308.172 Q159.214 308.172 156.135 303.589 Q153.079 298.982 153.079 290.256 Q153.079 281.506 156.135 276.922 Q159.214 272.316 165.024 272.316 Z" fill="#000000" fill-rule="nonzero" fill-opacity="1" /><path clip-path="url(#clip140)" d="M185.186 301.621 L190.07 301.621 L190.07 307.501 L185.186 307.501 L185.186 301.621 Z" fill="#000000" fill-rule="nonzero" fill-opacity="1" /><path clip-path="url(#clip140)" d="M199.075 272.941 L221.297 272.941 L221.297 274.932 L208.75 307.501 L203.866 307.501 L215.672 276.876 L199.075 276.876 L199.075 272.941 Z" fill="#000000" fill-rule="nonzero" fill-opacity="1" /><path clip-path="url(#clip140)" d="M230.463 272.941 L248.82 272.941 L248.82 276.876 L234.746 276.876 L234.746 285.348 Q235.764 285.001 236.783 284.839 Q237.801 284.654 238.82 284.654 Q244.607 284.654 247.986 287.825 Q251.366 290.996 251.366 296.413 Q251.366 301.992 247.894 305.094 Q244.421 308.172 238.102 308.172 Q235.926 308.172 233.658 307.802 Q231.412 307.431 229.005 306.691 L229.005 301.992 Q231.088 303.126 233.31 303.682 Q235.533 304.237 238.009 304.237 Q242.014 304.237 244.352 302.131 Q246.69 300.024 246.69 296.413 Q246.69 292.802 244.352 290.695 Q242.014 288.589 238.009 288.589 Q236.135 288.589 234.26 289.006 Q232.408 289.422 230.463 290.302 L230.463 272.941 Z" fill="#000000" fill-rule="nonzero" fill-opacity="1" /><path clip-path="url(#clip140)" d="M18.0438 893.717 L24.314 893.717 Q22.5634 897.378 21.704 900.624 Q20.8447 903.871 20.8447 906.894 Q20.8447 912.146 22.8817 915.011 Q24.9187 917.843 28.6745 917.843 Q31.8255 917.843 33.4488 915.966 Q35.0402 914.056 36.0269 908.772 L36.8226 904.889 Q38.1912 897.696 41.6605 894.29 Q45.098 890.853 50.8908 890.853 Q57.7976 890.853 61.3624 895.5 Q64.9272 900.115 64.9272 909.059 Q64.9272 912.433 64.1633 916.252 Q63.3994 920.04 61.9035 924.114 L55.2831 924.114 Q57.4793 920.199 58.5933 916.443 Q59.7073 912.687 59.7073 909.059 Q59.7073 903.552 57.543 900.561 Q55.3786 897.569 51.3682 897.569 Q47.8671 897.569 45.8937 899.733 Q43.9204 901.866 42.9337 906.767 L42.1698 910.682 Q40.7375 917.875 37.682 921.09 Q34.6264 924.305 29.1837 924.305 Q22.8817 924.305 19.2532 919.88 Q15.6248 915.424 15.6248 907.626 Q15.6248 904.284 16.2295 900.815 Q16.8343 897.346 18.0438 893.717 Z" fill="#000000" fill-rule="nonzero" fill-opacity="1" /><path clip-path="url(#clip140)" d="M28.3562 881.081 L28.3562 875.225 L64.0042 875.225 L64.0042 881.081 L28.3562 881.081 M14.479 881.081 L14.479 875.225 L21.895 875.225 L21.895 881.081 L14.479 881.081 Z" fill="#000000" fill-rule="nonzero" fill-opacity="1" /><path clip-path="url(#clip140)" d="M35.1993 835.217 Q31.2526 833.02 29.3747 829.965 Q27.4968 826.909 27.4968 822.772 Q27.4968 817.202 31.4117 814.178 Q35.2948 811.154 42.4881 811.154 L64.0042 811.154 L64.0042 817.042 L42.679 817.042 Q37.5546 817.042 35.072 818.857 Q32.5894 820.671 32.5894 824.395 Q32.5894 828.946 35.6131 831.588 Q38.6368 834.23 43.8567 834.23 L64.0042 834.23 L64.0042 840.118 L42.679 840.118 Q37.5228 840.118 35.072 841.932 Q32.5894 843.747 32.5894 847.534 Q32.5894 852.022 35.6449 854.664 Q38.6686 857.306 43.8567 857.306 L64.0042 857.306 L64.0042 863.194 L28.3562 863.194 L28.3562 857.306 L33.8944 857.306 Q30.616 855.3 29.0564 852.499 Q27.4968 849.699 27.4968 845.847 Q27.4968 841.964 29.4702 839.259 Q31.4436 836.522 35.1993 835.217 Z" fill="#000000" fill-rule="nonzero" fill-opacity="1" /><path clip-path="url(#clip140)" d="M28.3562 799.473 L28.3562 793.617 L64.0042 793.617 L64.0042 799.473 L28.3562 799.473 M14.479 799.473 L14.479 793.617 L21.895 793.617 L21.895 799.473 L14.479 799.473 Z" fill="#000000" fill-rule="nonzero" fill-opacity="1" /><path clip-path="url(#clip140)" d="M14.479 781.363 L14.479 775.506 L64.0042 775.506 L64.0042 781.363 L14.479 781.363 Z" fill="#000000" fill-rule="nonzero" fill-opacity="1" /><path clip-path="url(#clip140)" d="M46.0847 747.052 Q46.0847 754.149 47.7079 756.887 Q49.3312 759.624 53.2461 759.624 Q56.3653 759.624 58.2114 757.587 Q60.0256 755.518 60.0256 751.985 Q60.0256 747.115 56.5881 744.187 Q53.1188 741.227 47.3897 741.227 L46.0847 741.227 L46.0847 747.052 M43.6657 735.37 L64.0042 735.37 L64.0042 741.227 L58.5933 741.227 Q61.8398 743.232 63.3994 746.224 Q64.9272 749.216 64.9272 753.545 Q64.9272 759.019 61.8716 762.266 Q58.7843 765.48 53.6281 765.48 Q47.6125 765.48 44.5569 761.47 Q41.5014 757.428 41.5014 749.439 L41.5014 741.227 L40.9285 741.227 Q36.8862 741.227 34.6901 743.901 Q32.4621 746.542 32.4621 751.348 Q32.4621 754.404 33.1941 757.3 Q33.9262 760.197 35.3903 762.87 L29.9795 762.87 Q28.7381 759.656 28.1334 756.632 Q27.4968 753.608 27.4968 750.744 Q27.4968 743.009 31.5072 739.19 Q35.5176 735.37 43.6657 735.37 Z" fill="#000000" fill-rule="nonzero" fill-opacity="1" /><path clip-path="url(#clip140)" d="M33.8307 702.651 Q33.2578 703.637 33.0032 704.815 Q32.7167 705.961 32.7167 707.361 Q32.7167 712.327 35.9632 715 Q39.1779 717.642 45.2253 717.642 L64.0042 717.642 L64.0042 723.53 L28.3562 723.53 L28.3562 717.642 L33.8944 717.642 Q30.6479 715.796 29.0883 712.836 Q27.4968 709.876 27.4968 705.643 Q27.4968 705.038 27.5923 704.306 Q27.656 703.574 27.8151 702.683 L33.8307 702.651 Z" fill="#000000" fill-rule="nonzero" fill-opacity="1" /><path clip-path="url(#clip140)" d="M28.3562 696.508 L28.3562 690.651 L64.0042 690.651 L64.0042 696.508 L28.3562 696.508 M14.479 696.508 L14.479 690.651 L21.895 690.651 L21.895 696.508 L14.479 696.508 Z" fill="#000000" fill-rule="nonzero" fill-opacity="1" /><path clip-path="url(#clip140)" d="M18.2347 672.605 L28.3562 672.605 L28.3562 660.542 L32.9077 660.542 L32.9077 672.605 L52.2594 672.605 Q56.6199 672.605 57.8613 671.427 Q59.1026 670.217 59.1026 666.557 L59.1026 660.542 L64.0042 660.542 L64.0042 666.557 Q64.0042 673.337 61.4897 675.915 Q58.9434 678.493 52.2594 678.493 L32.9077 678.493 L32.9077 682.79 L28.3562 682.79 L28.3562 678.493 L18.2347 678.493 L18.2347 672.605 Z" fill="#000000" fill-rule="nonzero" fill-opacity="1" /><path clip-path="url(#clip140)" d="M67.3143 638.007 Q73.68 640.49 75.6216 642.845 Q77.5631 645.2 77.5631 649.147 L77.5631 653.826 L72.6615 653.826 L72.6615 650.388 Q72.6615 647.969 71.5157 646.633 Q70.3699 645.296 66.1048 643.672 L63.4312 642.622 L28.3562 657.04 L28.3562 650.834 L56.238 639.694 L28.3562 628.554 L28.3562 622.347 L67.3143 638.007 Z" fill="#000000" fill-rule="nonzero" fill-opacity="1" /><path clip-path="url(#clip140)" d="M438.726 14.0809 L438.726 22.0612 Q434.067 19.8332 429.935 18.7395 Q425.804 17.6457 421.955 17.6457 Q415.271 17.6457 411.625 20.2383 Q408.02 22.8309 408.02 27.611 Q408.02 31.6214 410.41 33.6873 Q412.841 35.7128 419.565 36.9686 L424.507 37.9813 Q433.662 39.7232 437.997 44.1387 Q442.372 48.5136 442.372 55.8863 Q442.372 64.6767 436.457 69.2137 Q430.584 73.7508 419.201 73.7508 Q414.907 73.7508 410.046 72.7785 Q405.225 71.8063 400.04 69.9024 L400.04 61.4765 Q405.022 64.2716 409.802 65.6895 Q414.583 67.1073 419.201 67.1073 Q426.209 67.1073 430.016 64.3527 Q433.824 61.598 433.824 56.4939 Q433.824 52.0379 431.07 49.5264 Q428.356 47.0148 422.117 45.759 L417.135 44.7868 Q407.98 42.9639 403.888 39.075 Q399.797 35.1862 399.797 28.2591 Q399.797 20.2383 405.427 15.6203 Q411.099 11.0023 421.023 11.0023 Q425.277 11.0023 429.692 11.7719 Q434.108 12.5416 438.726 14.0809 Z" fill="#000000" fill-rule="nonzero" fill-opacity="1" /><path clip-path="url(#clip140)" d="M472.389 32.4315 Q466.394 32.4315 462.91 37.1306 Q459.426 41.7891 459.426 49.9314 Q459.426 58.0738 462.869 62.7728 Q466.353 67.4314 472.389 67.4314 Q478.344 67.4314 481.828 62.7323 Q485.311 58.0333 485.311 49.9314 Q485.311 41.8701 481.828 37.1711 Q478.344 32.4315 472.389 32.4315 M472.389 26.1121 Q482.111 26.1121 487.661 32.4315 Q493.211 38.7509 493.211 49.9314 Q493.211 61.0714 487.661 67.4314 Q482.111 73.7508 472.389 73.7508 Q462.626 73.7508 457.077 67.4314 Q451.567 61.0714 451.567 49.9314 Q451.567 38.7509 457.077 32.4315 Q462.626 26.1121 472.389 26.1121 Z" fill="#000000" fill-rule="nonzero" fill-opacity="1" /><path clip-path="url(#clip140)" d="M531.856 34.1734 Q530.6 33.4443 529.102 33.1202 Q527.643 32.7556 525.861 32.7556 Q519.541 32.7556 516.139 36.8875 Q512.776 40.9789 512.776 48.6757 L512.776 72.576 L505.282 72.576 L505.282 27.2059 L512.776 27.2059 L512.776 34.2544 Q515.126 30.1225 518.893 28.1376 Q522.661 26.1121 528.048 26.1121 Q528.818 26.1121 529.75 26.2337 Q530.681 26.3147 531.816 26.5172 L531.856 34.1734 Z" fill="#000000" fill-rule="nonzero" fill-opacity="1" /><path clip-path="url(#clip140)" d="M547.047 14.324 L547.047 27.2059 L562.4 27.2059 L562.4 32.9987 L547.047 32.9987 L547.047 57.6282 Q547.047 63.1779 548.546 64.7578 Q550.085 66.3376 554.744 66.3376 L562.4 66.3376 L562.4 72.576 L554.744 72.576 Q546.115 72.576 542.834 69.3758 Q539.553 66.1351 539.553 57.6282 L539.553 32.9987 L534.084 32.9987 L534.084 27.2059 L539.553 27.2059 L539.553 14.324 L547.047 14.324 Z" fill="#000000" fill-rule="nonzero" fill-opacity="1" /><path clip-path="url(#clip140)" d="M611.011 48.0275 L611.011 51.6733 L576.74 51.6733 Q577.226 59.3701 581.358 63.421 Q585.531 67.4314 592.944 67.4314 Q597.238 67.4314 601.248 66.3781 Q605.299 65.3249 609.269 63.2184 L609.269 70.267 Q605.259 71.9684 601.046 72.8596 Q596.833 73.7508 592.498 73.7508 Q581.642 73.7508 575.282 67.4314 Q568.962 61.1119 568.962 50.3365 Q568.962 39.1965 574.958 32.6746 Q580.994 26.1121 591.202 26.1121 Q600.357 26.1121 605.664 32.0264 Q611.011 37.9003 611.011 48.0275 M603.557 45.84 Q603.476 39.7232 600.114 36.0774 Q596.792 32.4315 591.283 32.4315 Q585.045 32.4315 581.277 35.9558 Q577.55 39.4801 576.983 45.8805 L603.557 45.84 Z" fill="#000000" fill-rule="nonzero" fill-opacity="1" /><path clip-path="url(#clip140)" d="M653.1 34.0924 L653.1 9.54393 L660.553 9.54393 L660.553 72.576 L653.1 72.576 L653.1 65.7705 Q650.75 69.8214 647.145 71.8063 Q643.58 73.7508 638.557 73.7508 Q630.334 73.7508 625.149 67.1883 Q620.004 60.6258 620.004 49.9314 Q620.004 39.2371 625.149 32.6746 Q630.334 26.1121 638.557 26.1121 Q643.58 26.1121 647.145 28.0971 Q650.75 30.0415 653.1 34.0924 M627.701 49.9314 Q627.701 58.1548 631.063 62.8538 Q634.466 67.5124 640.38 67.5124 Q646.294 67.5124 649.697 62.8538 Q653.1 58.1548 653.1 49.9314 Q653.1 41.7081 649.697 37.0496 Q646.294 32.3505 640.38 32.3505 Q634.466 32.3505 631.063 37.0496 Q627.701 41.7081 627.701 49.9314 Z" fill="#000000" fill-rule="nonzero" fill-opacity="1" /><path clip-path="url(#clip140)" d="M734.928 28.9478 L734.928 35.9153 Q731.768 34.1734 728.568 33.3227 Q725.408 32.4315 722.168 32.4315 Q714.917 32.4315 710.906 37.0496 Q706.896 41.6271 706.896 49.9314 Q706.896 58.2358 710.906 62.8538 Q714.917 67.4314 722.168 67.4314 Q725.408 67.4314 728.568 66.5807 Q731.768 65.6895 734.928 63.9476 L734.928 70.8341 Q731.809 72.2924 728.447 73.0216 Q725.125 73.7508 721.358 73.7508 Q711.109 73.7508 705.073 67.3098 Q699.037 60.8689 699.037 49.9314 Q699.037 38.832 705.113 32.472 Q711.23 26.1121 721.844 26.1121 Q725.287 26.1121 728.568 26.8413 Q731.849 27.5299 734.928 28.9478 Z" fill="#000000" fill-rule="nonzero" fill-opacity="1" /><path clip-path="url(#clip140)" d="M765.472 32.4315 Q759.477 32.4315 755.993 37.1306 Q752.509 41.7891 752.509 49.9314 Q752.509 58.0738 755.952 62.7728 Q759.436 67.4314 765.472 67.4314 Q771.427 67.4314 774.91 62.7323 Q778.394 58.0333 778.394 49.9314 Q778.394 41.8701 774.91 37.1711 Q771.427 32.4315 765.472 32.4315 M765.472 26.1121 Q775.194 26.1121 780.744 32.4315 Q786.294 38.7509 786.294 49.9314 Q786.294 61.0714 780.744 67.4314 Q775.194 73.7508 765.472 73.7508 Q755.709 73.7508 750.159 67.4314 Q744.65 61.0714 744.65 49.9314 Q744.65 38.7509 750.159 32.4315 Q755.709 26.1121 765.472 26.1121 Z" fill="#000000" fill-rule="nonzero" fill-opacity="1" /><path clip-path="url(#clip140)" d="M827.572 28.5427 L827.572 35.5912 Q824.413 33.9709 821.01 33.1607 Q817.607 32.3505 813.961 32.3505 Q808.411 32.3505 805.616 34.0519 Q802.862 35.7533 802.862 39.156 Q802.862 41.7486 804.847 43.2475 Q806.832 44.7058 812.827 46.0426 L815.379 46.6097 Q823.319 48.3111 826.641 51.4303 Q830.003 54.509 830.003 60.0587 Q830.003 66.3781 824.98 70.0644 Q819.997 73.7508 811.247 73.7508 Q807.601 73.7508 803.631 73.0216 Q799.702 72.3329 795.327 70.9151 L795.327 63.2184 Q799.459 65.3654 803.469 66.4591 Q807.48 67.5124 811.409 67.5124 Q816.675 67.5124 819.511 65.73 Q822.347 63.9071 822.347 60.6258 Q822.347 57.5877 820.281 55.9673 Q818.255 54.3469 811.328 52.8481 L808.736 52.2405 Q801.808 50.7821 798.73 47.7845 Q795.651 44.7463 795.651 39.4801 Q795.651 33.0797 800.188 29.5959 Q804.725 26.1121 813.07 26.1121 Q817.202 26.1121 820.848 26.7198 Q824.494 27.3274 827.572 28.5427 Z" fill="#000000" fill-rule="nonzero" fill-opacity="1" /><path clip-path="url(#clip140)" d="M841.872 27.2059 L849.326 27.2059 L849.326 72.576 L841.872 72.576 L841.872 27.2059 M841.872 9.54393 L849.326 9.54393 L849.326 18.9825 L841.872 18.9825 L841.872 9.54393 Z" fill="#000000" fill-rule="nonzero" fill-opacity="1" /><path clip-path="url(#clip140)" d="M902.635 45.1919 L902.635 72.576 L895.182 72.576 L895.182 45.4349 Q895.182 38.994 892.67 35.7938 Q890.159 32.5936 885.136 32.5936 Q879.1 32.5936 875.616 36.4419 Q872.132 40.2903 872.132 46.9338 L872.132 72.576 L864.638 72.576 L864.638 27.2059 L872.132 27.2059 L872.132 34.2544 Q874.806 30.163 878.411 28.1376 Q882.057 26.1121 886.796 26.1121 Q894.615 26.1121 898.625 30.9732 Q902.635 35.7938 902.635 45.1919 Z" fill="#000000" fill-rule="nonzero" fill-opacity="1" /><path clip-path="url(#clip140)" d="M956.31 48.0275 L956.31 51.6733 L922.039 51.6733 Q922.525 59.3701 926.657 63.421 Q930.83 67.4314 938.243 67.4314 Q942.537 67.4314 946.547 66.3781 Q950.598 65.3249 954.568 63.2184 L954.568 70.267 Q950.558 71.9684 946.345 72.8596 Q942.132 73.7508 937.797 73.7508 Q926.941 73.7508 920.581 67.4314 Q914.262 61.1119 914.262 50.3365 Q914.262 39.1965 920.257 32.6746 Q926.293 26.1121 936.501 26.1121 Q945.656 26.1121 950.963 32.0264 Q956.31 37.9003 956.31 48.0275 M948.856 45.84 Q948.775 39.7232 945.413 36.0774 Q942.091 32.4315 936.582 32.4315 Q930.344 32.4315 926.576 35.9558 Q922.849 39.4801 922.282 45.8805 L948.856 45.84 Z" fill="#000000" fill-rule="nonzero" fill-opacity="1" /><path clip-path="url(#clip140)" d="M1023.84 28.5427 L1023.84 35.5912 Q1020.68 33.9709 1017.28 33.1607 Q1013.87 32.3505 1010.23 32.3505 Q1004.68 32.3505 1001.88 34.0519 Q999.128 35.7533 999.128 39.156 Q999.128 41.7486 1001.11 43.2475 Q1003.1 44.7058 1009.09 46.0426 L1011.65 46.6097 Q1019.59 48.3111 1022.91 51.4303 Q1026.27 54.509 1026.27 60.0587 Q1026.27 66.3781 1021.25 70.0644 Q1016.26 73.7508 1007.51 73.7508 Q1003.87 73.7508 999.898 73.0216 Q995.968 72.3329 991.593 70.9151 L991.593 63.2184 Q995.725 65.3654 999.736 66.4591 Q1003.75 67.5124 1007.68 67.5124 Q1012.94 67.5124 1015.78 65.73 Q1018.61 63.9071 1018.61 60.6258 Q1018.61 57.5877 1016.55 55.9673 Q1014.52 54.3469 1007.59 52.8481 L1005 52.2405 Q998.075 50.7821 994.996 47.7845 Q991.917 44.7463 991.917 39.4801 Q991.917 33.0797 996.454 29.5959 Q1000.99 26.1121 1009.34 26.1121 Q1013.47 26.1121 1017.11 26.7198 Q1020.76 27.3274 1023.84 28.5427 Z" fill="#000000" fill-rule="nonzero" fill-opacity="1" /><path clip-path="url(#clip140)" d="M1038.14 27.2059 L1045.59 27.2059 L1045.59 72.576 L1038.14 72.576 L1038.14 27.2059 M1038.14 9.54393 L1045.59 9.54393 L1045.59 18.9825 L1038.14 18.9825 L1038.14 9.54393 Z" fill="#000000" fill-rule="nonzero" fill-opacity="1" /><path clip-path="url(#clip140)" d="M1096.51 35.9153 Q1099.31 30.8922 1103.2 28.5022 Q1107.08 26.1121 1112.35 26.1121 Q1119.44 26.1121 1123.29 31.0947 Q1127.14 36.0368 1127.14 45.1919 L1127.14 72.576 L1119.64 72.576 L1119.64 45.4349 Q1119.64 38.913 1117.33 35.7533 Q1115.02 32.5936 1110.28 32.5936 Q1104.49 32.5936 1101.13 36.4419 Q1097.77 40.2903 1097.77 46.9338 L1097.77 72.576 L1090.27 72.576 L1090.27 45.4349 Q1090.27 38.8725 1087.96 35.7533 Q1085.66 32.5936 1080.83 32.5936 Q1075.12 32.5936 1071.76 36.4824 Q1068.4 40.3308 1068.4 46.9338 L1068.4 72.576 L1060.9 72.576 L1060.9 27.2059 L1068.4 27.2059 L1068.4 34.2544 Q1070.95 30.082 1074.52 28.0971 Q1078.08 26.1121 1082.98 26.1121 Q1087.92 26.1121 1091.37 28.6237 Q1094.85 31.1352 1096.51 35.9153 Z" fill="#000000" fill-rule="nonzero" fill-opacity="1" /><path clip-path="url(#clip140)" d="M1142 27.2059 L1149.46 27.2059 L1149.46 72.576 L1142 72.576 L1142 27.2059 M1142 9.54393 L1149.46 9.54393 L1149.46 18.9825 L1142 18.9825 L1142 9.54393 Z" fill="#000000" fill-rule="nonzero" fill-opacity="1" /><path clip-path="url(#clip140)" d="M1165.05 9.54393 L1172.51 9.54393 L1172.51 72.576 L1165.05 72.576 L1165.05 9.54393 Z" fill="#000000" fill-rule="nonzero" fill-opacity="1" /><path clip-path="url(#clip140)" d="M1208.72 49.7694 Q1199.69 49.7694 1196.2 51.8354 Q1192.72 53.9013 1192.72 58.8839 Q1192.72 62.8538 1195.31 65.2034 Q1197.95 67.5124 1202.44 67.5124 Q1208.64 67.5124 1212.37 63.1374 Q1216.13 58.7219 1216.13 51.4303 L1216.13 49.7694 L1208.72 49.7694 M1223.59 46.6907 L1223.59 72.576 L1216.13 72.576 L1216.13 65.6895 Q1213.58 69.8214 1209.78 71.8063 Q1205.97 73.7508 1200.46 73.7508 Q1193.49 73.7508 1189.36 69.8619 Q1185.27 65.9325 1185.27 59.3701 Q1185.27 51.7138 1190.37 47.825 Q1195.52 43.9361 1205.68 43.9361 L1216.13 43.9361 L1216.13 43.2069 Q1216.13 38.0623 1212.73 35.2672 Q1209.37 32.4315 1203.25 32.4315 Q1199.36 32.4315 1195.68 33.3632 Q1191.99 34.295 1188.59 36.1584 L1188.59 29.2718 Q1192.68 27.692 1196.53 26.9223 Q1200.38 26.1121 1204.02 26.1121 Q1213.87 26.1121 1218.73 31.2163 Q1223.59 36.3204 1223.59 46.6907 Z" fill="#000000" fill-rule="nonzero" fill-opacity="1" /><path clip-path="url(#clip140)" d="M1265.23 34.1734 Q1263.98 33.4443 1262.48 33.1202 Q1261.02 32.7556 1259.24 32.7556 Q1252.92 32.7556 1249.51 36.8875 Q1246.15 40.9789 1246.15 48.6757 L1246.15 72.576 L1238.66 72.576 L1238.66 27.2059 L1246.15 27.2059 L1246.15 34.2544 Q1248.5 30.1225 1252.27 28.1376 Q1256.04 26.1121 1261.42 26.1121 Q1262.19 26.1121 1263.13 26.2337 Q1264.06 26.3147 1265.19 26.5172 L1265.23 34.1734 Z" fill="#000000" fill-rule="nonzero" fill-opacity="1" /><path clip-path="url(#clip140)" d="M1273.05 27.2059 L1280.5 27.2059 L1280.5 72.576 L1273.05 72.576 L1273.05 27.2059 M1273.05 9.54393 L1280.5 9.54393 L1280.5 18.9825 L1273.05 18.9825 L1273.05 9.54393 Z" fill="#000000" fill-rule="nonzero" fill-opacity="1" /><path clip-path="url(#clip140)" d="M1303.47 14.324 L1303.47 27.2059 L1318.83 27.2059 L1318.83 32.9987 L1303.47 32.9987 L1303.47 57.6282 Q1303.47 63.1779 1304.97 64.7578 Q1306.51 66.3376 1311.17 66.3376 L1318.83 66.3376 L1318.83 72.576 L1311.17 72.576 Q1302.54 72.576 1299.26 69.3758 Q1295.98 66.1351 1295.98 57.6282 L1295.98 32.9987 L1290.51 32.9987 L1290.51 27.2059 L1295.98 27.2059 L1295.98 14.324 L1303.47 14.324 Z" fill="#000000" fill-rule="nonzero" fill-opacity="1" /><path clip-path="url(#clip140)" d="M1328.63 27.2059 L1336.08 27.2059 L1336.08 72.576 L1328.63 72.576 L1328.63 27.2059 M1328.63 9.54393 L1336.08 9.54393 L1336.08 18.9825 L1328.63 18.9825 L1328.63 9.54393 Z" fill="#000000" fill-rule="nonzero" fill-opacity="1" /><path clip-path="url(#clip140)" d="M1390.49 48.0275 L1390.49 51.6733 L1356.22 51.6733 Q1356.7 59.3701 1360.83 63.421 Q1365.01 67.4314 1372.42 67.4314 Q1376.71 67.4314 1380.72 66.3781 Q1384.77 65.3249 1388.74 63.2184 L1388.74 70.267 Q1384.73 71.9684 1380.52 72.8596 Q1376.31 73.7508 1371.97 73.7508 Q1361.12 73.7508 1354.76 67.4314 Q1348.44 61.1119 1348.44 50.3365 Q1348.44 39.1965 1354.43 32.6746 Q1360.47 26.1121 1370.68 26.1121 Q1379.83 26.1121 1385.14 32.0264 Q1390.49 37.9003 1390.49 48.0275 M1383.03 45.84 Q1382.95 39.7232 1379.59 36.0774 Q1376.27 32.4315 1370.76 32.4315 Q1364.52 32.4315 1360.75 35.9558 Q1357.03 39.4801 1356.46 45.8805 L1383.03 45.84 Z" fill="#000000" fill-rule="nonzero" fill-opacity="1" /><path clip-path="url(#clip140)" d="M1431.64 28.5427 L1431.64 35.5912 Q1428.48 33.9709 1425.08 33.1607 Q1421.68 32.3505 1418.03 32.3505 Q1412.48 32.3505 1409.69 34.0519 Q1406.93 35.7533 1406.93 39.156 Q1406.93 41.7486 1408.92 43.2475 Q1410.9 44.7058 1416.9 46.0426 L1419.45 46.6097 Q1427.39 48.3111 1430.71 51.4303 Q1434.07 54.509 1434.07 60.0587 Q1434.07 66.3781 1429.05 70.0644 Q1424.07 73.7508 1415.32 73.7508 Q1411.67 73.7508 1407.7 73.0216 Q1403.77 72.3329 1399.4 70.9151 L1399.4 63.2184 Q1403.53 65.3654 1407.54 66.4591 Q1411.55 67.5124 1415.48 67.5124 Q1420.75 67.5124 1423.58 65.73 Q1426.42 63.9071 1426.42 60.6258 Q1426.42 57.5877 1424.35 55.9673 Q1422.33 54.3469 1415.4 52.8481 L1412.81 52.2405 Q1405.88 50.7821 1402.8 47.7845 Q1399.72 44.7463 1399.72 39.4801 Q1399.72 33.0797 1404.26 29.5959 Q1408.8 26.1121 1417.14 26.1121 Q1421.27 26.1121 1424.92 26.7198 Q1428.56 27.3274 1431.64 28.5427 Z" fill="#000000" fill-rule="nonzero" fill-opacity="1" /><path clip-path="url(#clip140)" d="M1504.96 28.9478 L1504.96 35.9153 Q1501.8 34.1734 1498.6 33.3227 Q1495.44 32.4315 1492.2 32.4315 Q1484.95 32.4315 1480.94 37.0496 Q1476.93 41.6271 1476.93 49.9314 Q1476.93 58.2358 1480.94 62.8538 Q1484.95 67.4314 1492.2 67.4314 Q1495.44 67.4314 1498.6 66.5807 Q1501.8 65.6895 1504.96 63.9476 L1504.96 70.8341 Q1501.85 72.2924 1498.48 73.0216 Q1495.16 73.7508 1491.39 73.7508 Q1481.15 73.7508 1475.11 67.3098 Q1469.07 60.8689 1469.07 49.9314 Q1469.07 38.832 1475.15 32.472 Q1481.27 26.1121 1491.88 26.1121 Q1495.32 26.1121 1498.6 26.8413 Q1501.89 27.5299 1504.96 28.9478 Z" fill="#000000" fill-rule="nonzero" fill-opacity="1" /><path clip-path="url(#clip140)" d="M1556.73 48.0275 L1556.73 51.6733 L1522.46 51.6733 Q1522.95 59.3701 1527.08 63.421 Q1531.25 67.4314 1538.67 67.4314 Q1542.96 67.4314 1546.97 66.3781 Q1551.02 65.3249 1554.99 63.2184 L1554.99 70.267 Q1550.98 71.9684 1546.77 72.8596 Q1542.56 73.7508 1538.22 73.7508 Q1527.37 73.7508 1521.01 67.4314 Q1514.69 61.1119 1514.69 50.3365 Q1514.69 39.1965 1520.68 32.6746 Q1526.72 26.1121 1536.93 26.1121 Q1546.08 26.1121 1551.39 32.0264 Q1556.73 37.9003 1556.73 48.0275 M1549.28 45.84 Q1549.2 39.7232 1545.84 36.0774 Q1542.52 32.4315 1537.01 32.4315 Q1530.77 32.4315 1527 35.9558 Q1523.27 39.4801 1522.71 45.8805 L1549.28 45.84 Z" fill="#000000" fill-rule="nonzero" fill-opacity="1" /><path clip-path="url(#clip140)" d="M1568.97 9.54393 L1576.42 9.54393 L1576.42 72.576 L1568.97 72.576 L1568.97 9.54393 Z" fill="#000000" fill-rule="nonzero" fill-opacity="1" /><path clip-path="url(#clip140)" d="M1592.02 9.54393 L1599.47 9.54393 L1599.47 72.576 L1592.02 72.576 L1592.02 9.54393 Z" fill="#000000" fill-rule="nonzero" fill-opacity="1" /><path clip-path="url(#clip140)" d="M1667.28 39.9662 Q1673.16 41.222 1676.44 45.1919 Q1679.76 49.1618 1679.76 54.9951 Q1679.76 63.9476 1673.6 68.8492 Q1667.45 73.7508 1656.1 73.7508 Q1652.3 73.7508 1648.24 72.9811 Q1644.23 72.2519 1639.94 70.7531 L1639.94 62.8538 Q1643.34 64.8388 1647.39 65.8515 Q1651.45 66.8642 1655.86 66.8642 Q1663.56 66.8642 1667.57 63.826 Q1671.62 60.7879 1671.62 54.9951 Q1671.62 49.6479 1667.85 46.6502 Q1664.12 43.612 1657.44 43.612 L1650.39 43.612 L1650.39 36.8875 L1657.76 36.8875 Q1663.8 36.8875 1667 34.4975 Q1670.2 32.067 1670.2 27.5299 Q1670.2 22.8714 1666.88 20.4004 Q1663.6 17.8888 1657.44 17.8888 Q1654.08 17.8888 1650.23 18.618 Q1646.38 19.3471 1641.76 20.8865 L1641.76 13.5948 Q1646.42 12.2985 1650.47 11.6504 Q1654.56 11.0023 1658.17 11.0023 Q1667.49 11.0023 1672.91 15.2557 Q1678.34 19.4686 1678.34 26.6793 Q1678.34 31.7024 1675.47 35.1862 Q1672.59 38.6294 1667.28 39.9662 Z" fill="#000000" fill-rule="nonzero" fill-opacity="1" /><path clip-path="url(#clip140)" d="M1695.36 12.096 L1727.48 12.096 L1727.48 18.9825 L1702.85 18.9825 L1702.85 33.8088 Q1704.63 33.2012 1706.42 32.9176 Q1708.2 32.5936 1709.98 32.5936 Q1720.11 32.5936 1726.02 38.1433 Q1731.94 43.6931 1731.94 53.1722 Q1731.94 62.9348 1725.86 68.3631 Q1719.78 73.7508 1708.72 73.7508 Q1704.92 73.7508 1700.95 73.1026 Q1697.02 72.4545 1692.8 71.1582 L1692.8 62.9348 Q1696.45 64.9198 1700.34 65.892 Q1704.23 66.8642 1708.56 66.8642 Q1715.57 66.8642 1719.66 63.1779 Q1723.75 59.4916 1723.75 53.1722 Q1723.75 46.8528 1719.66 43.1664 Q1715.57 39.4801 1708.56 39.4801 Q1705.28 39.4801 1702 40.2093 Q1698.76 40.9384 1695.36 42.4778 L1695.36 12.096 Z" fill="#000000" fill-rule="nonzero" fill-opacity="1" /><path clip-path="url(#clip140)" d="M1749.48 65.6895 L1762.84 65.6895 L1762.84 19.5497 L1748.3 22.4663 L1748.3 15.0127 L1762.76 12.096 L1770.95 12.096 L1770.95 65.6895 L1784.31 65.6895 L1784.31 72.576 L1749.48 72.576 L1749.48 65.6895 Z" fill="#000000" fill-rule="nonzero" fill-opacity="1" /><path clip-path="url(#clip140)" d="M1826.16 27.2059 L1833.61 27.2059 L1833.61 72.576 L1826.16 72.576 L1826.16 27.2059 M1826.16 9.54393 L1833.61 9.54393 L1833.61 18.9825 L1826.16 18.9825 L1826.16 9.54393 Z" fill="#000000" fill-rule="nonzero" fill-opacity="1" /><path clip-path="url(#clip140)" d="M1856.58 14.324 L1856.58 27.2059 L1871.94 27.2059 L1871.94 32.9987 L1856.58 32.9987 L1856.58 57.6282 Q1856.58 63.1779 1858.08 64.7578 Q1859.62 66.3376 1864.28 66.3376 L1871.94 66.3376 L1871.94 72.576 L1864.28 72.576 Q1855.65 72.576 1852.37 69.3758 Q1849.09 66.1351 1849.09 57.6282 L1849.09 32.9987 L1843.62 32.9987 L1843.62 27.2059 L1849.09 27.2059 L1849.09 14.324 L1856.58 14.324 Z" fill="#000000" fill-rule="nonzero" fill-opacity="1" /><path clip-path="url(#clip140)" d="M1920.55 48.0275 L1920.55 51.6733 L1886.28 51.6733 Q1886.76 59.3701 1890.89 63.421 Q1895.07 67.4314 1902.48 67.4314 Q1906.77 67.4314 1910.78 66.3781 Q1914.83 65.3249 1918.8 63.2184 L1918.8 70.267 Q1914.79 71.9684 1910.58 72.8596 Q1906.37 73.7508 1902.03 73.7508 Q1891.18 73.7508 1884.82 67.4314 Q1878.5 61.1119 1878.5 50.3365 Q1878.5 39.1965 1884.49 32.6746 Q1890.53 26.1121 1900.74 26.1121 Q1909.89 26.1121 1915.2 32.0264 Q1920.55 37.9003 1920.55 48.0275 M1913.09 45.84 Q1913.01 39.7232 1909.65 36.0774 Q1906.33 32.4315 1900.82 32.4315 Q1894.58 32.4315 1890.81 35.9558 Q1887.09 39.4801 1886.52 45.8805 L1913.09 45.84 Z" fill="#000000" fill-rule="nonzero" fill-opacity="1" /><path clip-path="url(#clip140)" d="M1959.07 34.1734 Q1957.82 33.4443 1956.32 33.1202 Q1954.86 32.7556 1953.08 32.7556 Q1946.76 32.7556 1943.35 36.8875 Q1939.99 40.9789 1939.99 48.6757 L1939.99 72.576 L1932.5 72.576 L1932.5 27.2059 L1939.99 27.2059 L1939.99 34.2544 Q1942.34 30.1225 1946.11 28.1376 Q1949.88 26.1121 1955.26 26.1121 Q1956.03 26.1121 1956.96 26.2337 Q1957.9 26.3147 1959.03 26.5172 L1959.07 34.1734 Z" fill="#000000" fill-rule="nonzero" fill-opacity="1" /><path clip-path="url(#clip140)" d="M1987.51 49.7694 Q1978.47 49.7694 1974.99 51.8354 Q1971.51 53.9013 1971.51 58.8839 Q1971.51 62.8538 1974.1 65.2034 Q1976.73 67.5124 1981.23 67.5124 Q1987.43 67.5124 1991.15 63.1374 Q1994.92 58.7219 1994.92 51.4303 L1994.92 49.7694 L1987.51 49.7694 M2002.37 46.6907 L2002.37 72.576 L1994.92 72.576 L1994.92 65.6895 Q1992.37 69.8214 1988.56 71.8063 Q1984.75 73.7508 1979.24 73.7508 Q1972.28 73.7508 1968.14 69.8619 Q1964.05 65.9325 1964.05 59.3701 Q1964.05 51.7138 1969.16 47.825 Q1974.3 43.9361 1984.47 43.9361 L1994.92 43.9361 L1994.92 43.2069 Q1994.92 38.0623 1991.52 35.2672 Q1988.16 32.4315 1982.04 32.4315 Q1978.15 32.4315 1974.46 33.3632 Q1970.78 34.295 1967.38 36.1584 L1967.38 29.2718 Q1971.47 27.692 1975.31 26.9223 Q1979.16 26.1121 1982.81 26.1121 Q1992.65 26.1121 1997.51 31.2163 Q2002.37 36.3204 2002.37 46.6907 Z" fill="#000000" fill-rule="nonzero" fill-opacity="1" /><path clip-path="url(#clip140)" d="M2025.1 14.324 L2025.1 27.2059 L2040.45 27.2059 L2040.45 32.9987 L2025.1 32.9987 L2025.1 57.6282 Q2025.1 63.1779 2026.6 64.7578 Q2028.14 66.3376 2032.8 66.3376 L2040.45 66.3376 L2040.45 72.576 L2032.8 72.576 Q2024.17 72.576 2020.89 69.3758 Q2017.61 66.1351 2017.61 57.6282 L2017.61 32.9987 L2012.14 32.9987 L2012.14 27.2059 L2017.61 27.2059 L2017.61 14.324 L2025.1 14.324 Z" fill="#000000" fill-rule="nonzero" fill-opacity="1" /><path clip-path="url(#clip140)" d="M2050.26 27.2059 L2057.71 27.2059 L2057.71 72.576 L2050.26 72.576 L2050.26 27.2059 M2050.26 9.54393 L2057.71 9.54393 L2057.71 18.9825 L2050.26 18.9825 L2050.26 9.54393 Z" fill="#000000" fill-rule="nonzero" fill-opacity="1" /><path clip-path="url(#clip140)" d="M2090.89 32.4315 Q2084.89 32.4315 2081.41 37.1306 Q2077.92 41.7891 2077.92 49.9314 Q2077.92 58.0738 2081.37 62.7728 Q2084.85 67.4314 2090.89 67.4314 Q2096.84 67.4314 2100.33 62.7323 Q2103.81 58.0333 2103.81 49.9314 Q2103.81 41.8701 2100.33 37.1711 Q2096.84 32.4315 2090.89 32.4315 M2090.89 26.1121 Q2100.61 26.1121 2106.16 32.4315 Q2111.71 38.7509 2111.71 49.9314 Q2111.71 61.0714 2106.16 67.4314 Q2100.61 73.7508 2090.89 73.7508 Q2081.12 73.7508 2075.57 67.4314 Q2070.07 61.0714 2070.07 49.9314 Q2070.07 38.7509 2075.57 32.4315 Q2081.12 26.1121 2090.89 26.1121 Z" fill="#000000" fill-rule="nonzero" fill-opacity="1" /><path clip-path="url(#clip140)" d="M2161.78 45.1919 L2161.78 72.576 L2154.32 72.576 L2154.32 45.4349 Q2154.32 38.994 2151.81 35.7938 Q2149.3 32.5936 2144.28 32.5936 Q2138.24 32.5936 2134.76 36.4419 Q2131.27 40.2903 2131.27 46.9338 L2131.27 72.576 L2123.78 72.576 L2123.78 27.2059 L2131.27 27.2059 L2131.27 34.2544 Q2133.95 30.163 2137.55 28.1376 Q2141.2 26.1121 2145.94 26.1121 Q2153.76 26.1121 2157.77 30.9732 Q2161.78 35.7938 2161.78 45.1919 Z" fill="#000000" fill-rule="nonzero" fill-opacity="1" /><path clip-path="url(#clip140)" d="M2205.49 65.6895 L2218.86 65.6895 L2218.86 19.5497 L2204.31 22.4663 L2204.31 15.0127 L2218.77 12.096 L2226.96 12.096 L2226.96 65.6895 L2240.33 65.6895 L2240.33 72.576 L2205.49 72.576 L2205.49 65.6895 Z" fill="#000000" fill-rule="nonzero" fill-opacity="1" /><polyline clip-path="url(#clip142)" style="stroke:#009af9; stroke-linecap:round; stroke-linejoin:round; stroke-width:4; stroke-opacity:1; fill:none" points="345.82,1386.4 347.771,1385.48 349.721,1309.14 351.672,1305.67 353.622,1302.65 355.572,1300.33 357.523,1298.39 359.473,1297.56 361.424,1295.95 363.374,1293.46 365.325,1288.85 367.275,1285.92 369.226,1283.29 371.176,1281.09 373.126,1278.7 375.077,1277.47 377.027,1276.41 378.978,1273.98 380.928,1272.83 382.879,1272.37 384.829,1270.72 386.779,1269 388.73,1268.69 390.68,1268.67 392.631,1268.45 394.581,1265.64 396.532,1264.96 398.482,1264.57 400.432,1264.28 402.383,1261.58 404.333,1260.96 406.284,1260.19 408.234,1258.32 410.185,1256.25 412.135,1255.49 414.085,1254.7 416.036,1254.33 417.986,1252.64 419.937,1251.64 421.887,1250.97 423.838,1250.1 425.788,1249.54 427.738,1249.51 429.689,1247.98 431.639,1246.99 433.59,1245.3 435.54,1243.56 437.491,1242.39 439.441,1242.36 441.391,1241.58 443.342,1241.56 445.292,1240.63 447.243,1240.41 449.193,1239.35 451.144,1239.33 453.094,1239.2 455.045,1238.86 456.995,1238.5 458.945,1238.18 460.896,1237.63 462.846,1237.29 464.797,1236.91 466.747,1236.39 468.698,1235.47 470.648,1234.43 472.598,1233.79 474.549,1233.34 476.499,1232.52 478.45,1232.4 480.4,1231.69 482.351,1230.8 484.301,1230.62 486.251,1230.33 488.202,1230.1 490.152,1229.52 492.103,1227.66 494.053,1226.47 496.004,1224.67 497.954,1224.54 499.904,1224.21 501.855,1223.97 503.805,1223.58 505.756,1222.65 507.706,1222.27 509.657,1222.07 511.607,1221.93 513.557,1221.51 515.508,1221.31 517.458,1219.17 519.409,1219.06 521.359,1218.98 523.31,1217.6 525.26,1217.29 527.21,1217.16 529.161,1216.55 531.111,1216.55 533.062,1215.61 535.012,1215.58 536.963,1215.1 538.913,1214.82 540.863,1214.41 542.814,1214.02 544.764,1213.99 546.715,1213.56 548.665,1213.5 550.616,1212.82 552.566,1212.63 554.517,1212.32 556.467,1212.21 558.417,1211.76 560.368,1211.37 562.318,1211.06 564.269,1210.21 566.219,1210.03 568.17,1209.18 570.12,1208.82 572.07,1208.17 574.021,1207.88 575.971,1207.82 577.922,1207.44 579.872,1207.2 581.823,1206.78 583.773,1206.51 585.723,1206.5 587.674,1206.47 589.624,1206.24 591.575,1205.26 593.525,1205.02 595.476,1203.6 597.426,1203.47 599.376,1202.08 601.327,1201.42 603.277,1200.81 605.228,1200.64 607.178,1200.11 609.129,1200.02 611.079,1199.21 613.029,1198.37 614.98,1198.35 616.93,1198.28 618.881,1198.07 620.831,1198.05 622.782,1198.01 624.732,1197.95 626.682,1197.89 628.633,1196.64 630.583,1196.28 632.534,1195.73 634.484,1195.64 636.435,1195.54 638.385,1195.24 640.336,1195.16 642.286,1193.29 644.236,1193.05 646.187,1192.86 648.137,1192.43 650.088,1192.3 652.038,1192.11 653.989,1191.9 655.939,1191.83 657.889,1191.27 659.84,1191.06 661.79,1190.59 663.741,1190.26 665.691,1189.91 667.642,1188.82 669.592,1188.33 671.542,1186.94 673.493,1186.42 675.443,1186.35 677.394,1186.27 679.344,1186.23 681.295,1185.88 683.245,1185.26 685.195,1185.21 687.146,1185.06 689.096,1184.18 691.047,1183.48 692.997,1183 694.948,1182.65 696.898,1182.46 698.848,1182.27 700.799,1182.04 702.749,1182.01 704.7,1180.8 706.65,1179.97 708.601,1179.6 710.551,1179.28 712.501,1179.26 714.452,1179.02 716.402,1178.77 718.353,1177.98 720.303,1177.59 722.254,1176.26 724.204,1176.2 726.154,1175.66 728.105,1175.18 730.055,1173.14 732.006,1172.14 733.956,1172.09 735.907,1171.73 737.857,1170.41 739.808,1169.86 741.758,1169.73 743.708,1169.23 745.659,1169.09 747.609,1166.46 749.56,1166 751.51,1165.82 753.461,1165.53 755.411,1165.34 757.361,1165.25 759.312,1165.15 761.262,1164.88 763.213,1163.96 765.163,1160.79 767.114,1159.4 769.064,1158.63 771.014,1157.69 772.965,1156.03 774.915,1155.89 776.866,1155.76 778.816,1153.81 780.767,1153.37 782.717,1152.96 784.667,1152.5 786.618,1150.93 788.568,1149.32 790.519,1145.87 792.469,1145.57 794.42,1145.05 796.37,1143.43 798.32,1140.6 800.271,1138.63 802.221,1138.13 804.172,1137.43 806.122,1136.31 808.073,1135 810.023,1134.68 811.973,1131.68 813.924,1131.26 815.874,1122.34 817.825,1120.7 819.775,1119.03 821.726,1117.75 823.676,1116.98 825.627,1115.7 827.577,1114.03 829.527,1111.23 831.478,1111.19 833.428,1110.39 835.379,1109.12 837.329,1107.57 839.28,1106.38 841.23,1105.86 843.18,1103.34 845.131,1099.63 847.081,1099.38 849.032,1096.75 850.982,1096.46 852.933,1095.08 854.883,1092.09 856.833,1091.53 858.784,1090.7 860.734,1086.71 862.685,1082.08 864.635,1080.32 866.586,1078.9 868.536,1074.85 870.486,1070.36 872.437,1070.17 874.387,1068.53 876.338,1065.27 878.288,1063.87 880.239,1063.69 882.189,1063.22 884.139,1062.99 886.09,1062.06 888.04,1057.72 889.991,1057.23 891.941,1056.7 893.892,1055.29 895.842,1054.73 897.792,1053.26 899.743,1053.02 901.693,1049.52 903.644,1048.38 905.594,1048.29 907.545,1046.24 909.495,1044.14 911.445,1043.23 913.396,1043.02 915.346,1042.62 917.297,1042.21 919.247,1040.92 921.198,1037.87 923.148,1036.47 925.099,1036.17 927.049,1035.69 928.999,1034.42 930.95,1033.98 932.9,1033.4 934.851,1032.41 936.801,1029.76 938.752,1029.46 940.702,1029.39 942.652,1027.45 944.603,1027.01 946.553,1026.79 948.504,1026.72 950.454,1025.95 952.405,1025.56 954.355,1025.32 956.305,1024.87 958.256,1022.94 960.206,1022.86 962.157,1021.14 964.107,1020.88 966.058,1020.08 968.008,1019.96 969.958,1019.83 971.909,1017.29 973.859,1017.04 975.81,1016.5 977.76,1016.14 979.711,1015.74 981.661,1015.48 983.611,1015.42 985.562,1015.28 987.512,1015.03 989.463,1014.79 991.413,1014.19 993.364,1013.82 995.314,1013.62 997.264,1012.84 999.215,1012.6 1001.17,1012.03 1003.12,1011.28 1005.07,1010.58 1007.02,1009.75 1008.97,1009.59 1010.92,1008.79 1012.87,1007.81 1014.82,1007.8 1016.77,1007.26 1018.72,1006.94 1020.67,1006.19 1022.62,1003.12 1024.57,1002.31 1026.52,1001.74 1028.47,1001.61 1030.42,1000.44 1032.37,1000.14 1034.32,1000.13 1036.27,999.952 1038.22,999.425 1040.17,998.281 1042.12,998.21 1044.07,997.701 1046.03,995.534 1047.98,994.903 1049.93,994.732 1051.88,994.683 1053.83,993.641 1055.78,992.69 1057.73,991.904 1059.68,991.874 1061.63,991.019 1063.58,990.699 1065.53,990.61 1067.48,990.081 1069.43,989.891 1071.38,989.585 1073.33,988.742 1075.28,988.334 1077.23,988.332 1079.18,988.31 1081.13,988.133 1083.08,987.521 1085.03,987.394 1086.98,987.066 1088.93,986.142 1090.89,986.018 1092.84,985.92 1094.79,985.654 1096.74,985.284 1098.69,984.596 1100.64,984.11 1102.59,984.041 1104.54,983.971 1106.49,983.264 1108.44,982.857 1110.39,982.574 1112.34,982.468 1114.29,981.482 1116.24,981.147 1118.19,980.018 1120.14,979.918 1122.09,979.244 1124.04,979.028 1125.99,978.231 1127.94,977.538 1129.89,976.433 1131.84,976.148 1133.79,975.806 1135.75,975.793 1137.7,975.036 1139.65,975.031 1141.6,973.096 1143.55,972.587 1145.5,972.56 1147.45,972.224 1149.4,971.035 1151.35,971.021 1153.3,970.409 1155.25,969.974 1157.2,969.932 1159.15,969.722 1161.1,969.208 1163.05,968.196 1165,968.072 1166.95,967.641 1168.9,967.481 1170.85,967.3 1172.8,965.686 1174.75,965.445 1176.7,965.201 1178.65,965.036 1180.61,964.743 1182.56,964.587 1184.51,964.443 1186.46,964.423 1188.41,964.123 1190.36,964.12 1192.31,963.047 1194.26,962.746 1196.21,962.686 1198.16,962.513 1200.11,962.306 1202.06,962.127 1204.01,960.508 1205.96,959.82 1207.91,958.712 1209.86,958.172 1211.81,957.983 1213.76,957.165 1215.71,956.54 1217.66,955.446 1219.61,955.086 1221.56,954.299 1223.51,954.168 1225.46,953.908 1227.42,953.328 1229.37,953.272 1231.32,953.124 1233.27,952.215 1235.22,952.131 1237.17,951.939 1239.12,951.505 1241.07,950.845 1243.02,949.481 1244.97,949.354 1246.92,947.967 1248.87,947.953 1250.82,947.619 1252.77,947.235 1254.72,946.468 1256.67,946.333 1258.62,946.065 1260.57,945.791 1262.52,944.935 1264.47,944.141 1266.42,943.571 1268.37,942.846 1270.32,940.809 1272.28,939.384 1274.23,936.853 1276.18,935.546 1278.13,935.135 1280.08,934.61 1282.03,934.448 1283.98,934.389 1285.93,934.358 1287.88,933.458 1289.83,932.453 1291.78,931.825 1293.73,931.635 1295.68,930.525 1297.63,926.495 1299.58,925.915 1301.53,923.893 1303.48,921.597 1305.43,921.52 1307.38,921.245 1309.33,917.558 1311.28,917.46 1313.23,916.058 1315.18,911.589 1317.14,908.438 1319.09,907.49 1321.04,904.905 1322.99,902.561 1324.94,901.303 1326.89,895.679 1328.84,895.15 1330.79,894.956 1332.74,893.569 1334.69,889.5 1336.64,883.489 1338.59,883.094 1340.54,879.689 1342.49,879.412 1344.44,875.45 1346.39,864.072 1348.34,856.803 1350.29,854.994 1352.24,854.456 1354.19,853.444 1356.14,845.193 1358.09,845.089 1360.04,840.664 1362,838.769 1363.95,838.627 1365.9,837.799 1367.85,835.959 1369.8,832.782 1371.75,831.19 1373.7,825.027 1375.65,822.24 1377.6,821.745 1379.55,821.734 1381.5,821.397 1383.45,821.268 1385.4,819.992 1387.35,818.248 1389.3,817.422 1391.25,816.63 1393.2,816.294 1395.15,815.615 1397.1,814.956 1399.05,814.011 1401,813.457 1402.95,811.224 1404.9,810.485 1406.86,810.237 1408.81,809.565 1410.76,809.526 1412.71,807.69 1414.66,807.072 1416.61,806.227 1418.56,805.879 1420.51,805.76 1422.46,804.422 1424.41,803.346 1426.36,802.665 1428.31,802.49 1430.26,801.563 1432.21,799.249 1434.16,798.196 1436.11,797.281 1438.06,796.623 1440.01,795.733 1441.96,794.79 1443.91,794.421 1445.86,792.213 1447.81,791.992 1449.76,790.339 1451.72,788.372 1453.67,784.283 1455.62,783.064 1457.57,782.124 1459.52,781.938 1461.47,780.624 1463.42,780.572 1465.37,779.413 1467.32,777.821 1469.27,777.774 1471.22,776.477 1473.17,776.135 1475.12,776.047 1477.07,774.535 1479.02,774.126 1480.97,773.656 1482.92,772.801 1484.87,772.43 1486.82,771.673 1488.77,771 1490.72,769.672 1492.67,769.116 1494.62,768.242 1496.57,767.412 1498.53,767.315 1500.48,767.084 1502.43,766.923 1504.38,766.44 1506.33,764.74 1508.28,764.003 1510.23,763.733 1512.18,763.624 1514.13,763.08 1516.08,762.866 1518.03,762.712 1519.98,759.369 1521.93,759.355 1523.88,759.149 1525.83,758.971 1527.78,758.422 1529.73,757.49 1531.68,757.436 1533.63,757.412 1535.58,757.149 1537.53,756.186 1539.48,756.04 1541.43,755.064 1543.39,754.722 1545.34,754.482 1547.29,753.551 1549.24,753.415 1551.19,753.282 1553.14,753.275 1555.09,752.9 1557.04,750.025 1558.99,749.38 1560.94,749.008 1562.89,748.908 1564.84,748.412 1566.79,748.279 1568.74,747.913 1570.69,747.875 1572.64,746.911 1574.59,746.55 1576.54,746.517 1578.49,745.437 1580.44,745.038 1582.39,744.15 1584.34,743.261 1586.29,743.228 1588.25,742.822 1590.2,742.801 1592.15,742.787 1594.1,742.76 1596.05,742.717 1598,742.475 1599.95,741.207 1601.9,741.152 1603.85,740.552 1605.8,740.035 1607.75,739.433 1609.7,739.325 1611.65,739.069 1613.6,737.457 1615.55,735.986 1617.5,735.225 1619.45,735.154 1621.4,733.743 1623.35,733.569 1625.3,733.059 1627.25,732.318 1629.2,731.96 1631.15,731.457 1633.11,730.96 1635.06,728.9 1637.01,728.376 1638.96,728.29 1640.91,728.123 1642.86,727.732 1644.81,726.026 1646.76,725.294 1648.71,725.01 1650.66,724.98 1652.61,724.67 1654.56,724.541 1656.51,724.155 1658.46,724.117 1660.41,723.744 1662.36,723.317 1664.31,722.869 1666.26,722.707 1668.21,721.387 1670.16,721.124 1672.11,721.123 1674.06,720.215 1676.01,719.559 1677.97,719.047 1679.92,718.76 1681.87,718.251 1683.82,717.95 1685.77,716.965 1687.72,716.752 1689.67,716.632 1691.62,716.375 1693.57,715.427 1695.52,715.352 1697.47,715.155 1699.42,715.063 1701.37,715.009 1703.32,714.902 1705.27,714.247 1707.22,713.213 1709.17,712.449 1711.12,710.145 1713.07,709.891 1715.02,709.541 1716.97,709.198 1718.92,708.078 1720.87,707.865 1722.83,707.467 1724.78,707.082 1726.73,706.569 1728.68,705.791 1730.63,704.697 1732.58,703.628 1734.53,703.102 1736.48,702.756 1738.43,702.322 1740.38,701.678 1742.33,699.457 1744.28,697.258 1746.23,697.222 1748.18,695.678 1750.13,694.297 1752.08,693.54 1754.03,693.341 1755.98,693.07 1757.93,692.765 1759.88,691.9 1761.83,689.044 1763.78,688.319 1765.73,686.437 1767.68,682.713 1769.64,682.293 1771.59,680.538 1773.54,680.372 1775.49,680.071 1777.44,679.179 1779.39,676.078 1781.34,670.998 1783.29,667.402 1785.24,666.455 1787.19,665.772 1789.14,664.823 1791.09,664.142 1793.04,660.199 1794.99,659.761 1796.94,656.745 1798.89,653.54 1800.84,651.671 1802.79,645.221 1804.74,641.935 1806.69,602.42 1808.64,510.842 1810.59,475.682 1812.54,471.827 1814.5,469.895 1816.45,455.297 1818.4,447.822 1820.35,447.724 1822.3,445.763 1824.25,445.577 1826.2,445.239 1828.15,432.891 1830.1,416.553 1832.05,414.861 1834,414.124 1835.95,411.527 1837.9,410.437 1839.85,401.183 1841.8,393.77 1843.75,392.981 1845.7,391.759 1847.65,389.773 1849.6,389.569 1851.55,387.399 1853.5,386.914 1855.45,378.257 1857.4,377.291 1859.36,377.163 1861.31,376.843 1863.26,374.279 1865.21,373.687 1867.16,366.984 1869.11,365.662 1871.06,362.612 1873.01,362.178 1874.96,361.805 1876.91,360.492 1878.86,360.249 1880.81,356.529 1882.76,354.316 1884.71,352.186 1886.66,351.287 1888.61,349.873 1890.56,347.67 1892.51,345.952 1894.46,343.756 1896.41,340.659 1898.36,340.63 1900.31,338.946 1902.26,337.897 1904.22,336.818 1906.17,332.332 1908.12,331.825 1910.07,331.521 1912.02,330.271 1913.97,329.278 1915.92,328.915 1917.87,328.073 1919.82,327.437 1921.77,327.291 1923.72,325.854 1925.67,325.618 1927.62,324.842 1929.57,324.776 1931.52,324.572 1933.47,324.287 1935.42,323.851 1937.37,323.085 1939.32,322.931 1941.27,322.751 1943.22,322.658 1945.17,321.43 1947.12,319.553 1949.08,319.514 1951.03,319.308 1952.98,318.213 1954.93,318.207 1956.88,317.781 1958.83,317.11 1960.78,316.484 1962.73,314.992 1964.68,313.991 1966.63,313.817 1968.58,312.915 1970.53,309.813 1972.48,309.284 1974.43,309.087 1976.38,308.911 1978.33,308.307 1980.28,307.583 1982.23,306.164 1984.18,305.911 1986.13,305.68 1988.08,305.443 1990.03,305.425 1991.98,304.666 1993.94,304.41 1995.89,303.342 1997.84,302.587 1999.79,300.685 2001.74,299.931 2003.69,299.384 2005.64,298.57 2007.59,297.467 2009.54,296.608 2011.49,295.121 2013.44,293.792 2015.39,293.533 2017.34,293.467 2019.29,293.141 2021.24,293.054 2023.19,289.192 2025.14,288.811 2027.09,288.71 2029.04,287.698 2030.99,287.215 2032.94,286.778 2034.89,286.311 2036.84,285.458 2038.79,284.639 2040.75,283.301 2042.7,281.832 2044.65,281.003 2046.6,280.835 2048.55,280.455 2050.5,277.491 2052.45,276.463 2054.4,275.907 2056.35,275.535 2058.3,274.796 2060.25,274.55 2062.2,272.389 2064.15,271.54 2066.1,271.197 2068.05,270.552 2070,270.46 2071.95,269.628 2073.9,268.748 2075.85,267.849 2077.8,267.087 2079.75,266.925 2081.7,265.953 2083.65,264.722 2085.61,264.004 2087.56,263.979 2089.51,263.21 2091.46,262.264 2093.41,261.737 2095.36,258.291 2097.31,258.103 2099.26,256.373 2101.21,256.259 2103.16,255.498 2105.11,255.107 2107.06,254.975 2109.01,254.863 2110.96,254.673 2112.91,254.11 2114.86,253.962 2116.81,253.703 2118.76,253.35 2120.71,252.502 2122.66,251.431 2124.61,251.321 2126.56,251.212 2128.51,250.5 2130.47,250.392 2132.42,250.385 2134.37,249.396 2136.32,248.199 2138.27,247.562 2140.22,246.693 2142.17,246.583 2144.12,245.023 2146.07,244.869 2148.02,243.635 2149.97,242.526 2151.92,242.325 2153.87,242.221 2155.82,242.051 2157.77,240.738 2159.72,239.732 2161.67,238.793 2163.62,238.415 2165.57,237.713 2167.52,237.565 2169.47,237.468 2171.42,237.465 2173.37,237.412 2175.33,236.765 2177.28,236.67 2179.23,236.522 2181.18,236.455 2183.13,236.431 2185.08,236.162 2187.03,235.314 2188.98,235.238 2190.93,234.875 2192.88,234.805 2194.83,234.175 2196.78,234.113 2198.73,232.001 2200.68,231.577 2202.63,231.184 2204.58,229.258 2206.53,229.166 2208.48,226.507 2210.43,224.238 2212.38,222.996 2214.33,222.834 2216.28,220.751 2218.23,220.373 2220.19,220.265 2222.14,220.145 2224.09,220.08 2226.04,219.67 2227.99,219.116 2229.94,218.835 2231.89,216.6 2233.84,215.384 2235.79,213.58 2237.74,213.542 2239.69,211.097 2241.64,210.228 2243.59,209.982 2245.54,209.561 2247.49,209.293 2249.44,208.98 2251.39,208.039 2253.34,207.785 2255.29,206.533 2257.24,206.103 2259.19,204.609 2261.14,204.38 2263.09,203.939 2265.04,203.752 2267,200.519 2268.95,200.308 2270.9,199.938 2272.85,195.1 2274.8,192.733 2276.75,192.057 2278.7,191.455 2280.65,189.602 2282.6,187.062 2284.55,184.305 2286.5,179.373 2288.45,178.705 2290.4,175.807 2292.35,173.998 2294.3,160.256 "/>
<path clip-path="url(#clip140)" d="M356.212 270.476 L782.357 270.476 L782.357 166.796 L356.212 166.796  Z" fill="#ffffff" fill-rule="evenodd" fill-opacity="1"/>
<polyline clip-path="url(#clip140)" style="stroke:#000000; stroke-linecap:round; stroke-linejoin:round; stroke-width:4; stroke-opacity:1; fill:none" points="356.212,270.476 782.357,270.476 782.357,166.796 356.212,166.796 356.212,270.476 "/>
<polyline clip-path="url(#clip140)" style="stroke:#009af9; stroke-linecap:round; stroke-linejoin:round; stroke-width:4; stroke-opacity:1; fill:none" points="379.161,218.636 516.854,218.636 "/>
<path clip-path="url(#clip140)" d="M562.048 202.49 L562.048 207.05 Q559.386 205.777 557.025 205.152 Q554.663 204.527 552.464 204.527 Q548.645 204.527 546.562 206.008 Q544.502 207.49 544.502 210.221 Q544.502 212.513 545.867 213.694 Q547.256 214.851 551.099 215.569 L553.923 216.147 Q559.154 217.143 561.631 219.666 Q564.131 222.166 564.131 226.379 Q564.131 231.402 560.751 233.994 Q557.395 236.587 550.89 236.587 Q548.437 236.587 545.659 236.031 Q542.904 235.476 539.941 234.388 L539.941 229.573 Q542.789 231.17 545.52 231.981 Q548.251 232.791 550.89 232.791 Q554.895 232.791 557.071 231.217 Q559.247 229.643 559.247 226.726 Q559.247 224.18 557.673 222.744 Q556.122 221.309 552.557 220.592 L549.71 220.036 Q544.478 218.995 542.14 216.772 Q539.802 214.55 539.802 210.592 Q539.802 206.008 543.02 203.37 Q546.261 200.731 551.932 200.731 Q554.363 200.731 556.886 201.171 Q559.409 201.61 562.048 202.49 Z" fill="#000000" fill-rule="nonzero" fill-opacity="1" /><path clip-path="url(#clip140)" d="M571.237 209.99 L575.497 209.99 L575.497 235.916 L571.237 235.916 L571.237 209.99 M571.237 199.897 L575.497 199.897 L575.497 205.291 L571.237 205.291 L571.237 199.897 Z" fill="#000000" fill-rule="nonzero" fill-opacity="1" /><path clip-path="url(#clip140)" d="M604.594 214.967 Q606.191 212.096 608.413 210.731 Q610.635 209.365 613.645 209.365 Q617.696 209.365 619.895 212.212 Q622.094 215.036 622.094 220.268 L622.094 235.916 L617.811 235.916 L617.811 220.407 Q617.811 216.68 616.492 214.874 Q615.172 213.069 612.464 213.069 Q609.154 213.069 607.233 215.268 Q605.311 217.467 605.311 221.263 L605.311 235.916 L601.029 235.916 L601.029 220.407 Q601.029 216.657 599.71 214.874 Q598.39 213.069 595.635 213.069 Q592.372 213.069 590.45 215.291 Q588.529 217.49 588.529 221.263 L588.529 235.916 L584.247 235.916 L584.247 209.99 L588.529 209.99 L588.529 214.018 Q589.987 211.633 592.024 210.499 Q594.061 209.365 596.862 209.365 Q599.686 209.365 601.654 210.8 Q603.645 212.235 604.594 214.967 Z" fill="#000000" fill-rule="nonzero" fill-opacity="1" /><path clip-path="url(#clip140)" d="M630.589 209.99 L634.848 209.99 L634.848 235.916 L630.589 235.916 L630.589 209.99 M630.589 199.897 L634.848 199.897 L634.848 205.291 L630.589 205.291 L630.589 199.897 Z" fill="#000000" fill-rule="nonzero" fill-opacity="1" /><path clip-path="url(#clip140)" d="M643.76 199.897 L648.019 199.897 L648.019 235.916 L643.76 235.916 L643.76 199.897 Z" fill="#000000" fill-rule="nonzero" fill-opacity="1" /><path clip-path="url(#clip140)" d="M668.714 222.883 Q663.552 222.883 661.561 224.064 Q659.57 225.244 659.57 228.092 Q659.57 230.36 661.052 231.703 Q662.556 233.022 665.126 233.022 Q668.668 233.022 670.797 230.522 Q672.95 227.999 672.95 223.832 L672.95 222.883 L668.714 222.883 M677.209 221.124 L677.209 235.916 L672.95 235.916 L672.95 231.981 Q671.492 234.342 669.316 235.476 Q667.14 236.587 663.992 236.587 Q660.01 236.587 657.649 234.365 Q655.311 232.119 655.311 228.369 Q655.311 223.994 658.228 221.772 Q661.168 219.55 666.978 219.55 L672.95 219.55 L672.95 219.133 Q672.95 216.194 671.005 214.596 Q669.084 212.976 665.589 212.976 Q663.367 212.976 661.26 213.508 Q659.154 214.041 657.209 215.106 L657.209 211.17 Q659.547 210.268 661.746 209.828 Q663.945 209.365 666.029 209.365 Q671.654 209.365 674.431 212.282 Q677.209 215.198 677.209 221.124 Z" fill="#000000" fill-rule="nonzero" fill-opacity="1" /><path clip-path="url(#clip140)" d="M701.005 213.971 Q700.288 213.555 699.431 213.37 Q698.598 213.161 697.579 213.161 Q693.968 213.161 692.024 215.522 Q690.103 217.86 690.103 222.258 L690.103 235.916 L685.82 235.916 L685.82 209.99 L690.103 209.99 L690.103 214.018 Q691.445 211.657 693.598 210.522 Q695.751 209.365 698.829 209.365 Q699.269 209.365 699.802 209.434 Q700.334 209.481 700.982 209.596 L701.005 213.971 Z" fill="#000000" fill-rule="nonzero" fill-opacity="1" /><path clip-path="url(#clip140)" d="M705.473 209.99 L709.732 209.99 L709.732 235.916 L705.473 235.916 L705.473 209.99 M705.473 199.897 L709.732 199.897 L709.732 205.291 L705.473 205.291 L705.473 199.897 Z" fill="#000000" fill-rule="nonzero" fill-opacity="1" /><path clip-path="url(#clip140)" d="M722.857 202.629 L722.857 209.99 L731.63 209.99 L731.63 213.3 L722.857 213.3 L722.857 227.374 Q722.857 230.545 723.714 231.448 Q724.593 232.351 727.255 232.351 L731.63 232.351 L731.63 235.916 L727.255 235.916 Q722.325 235.916 720.45 234.087 Q718.575 232.235 718.575 227.374 L718.575 213.3 L715.45 213.3 L715.45 209.99 L718.575 209.99 L718.575 202.629 L722.857 202.629 Z" fill="#000000" fill-rule="nonzero" fill-opacity="1" /><path clip-path="url(#clip140)" d="M748.019 238.323 Q746.213 242.953 744.5 244.365 Q742.787 245.777 739.917 245.777 L736.514 245.777 L736.514 242.212 L739.014 242.212 Q740.774 242.212 741.746 241.379 Q742.718 240.545 743.899 237.443 L744.662 235.499 L734.176 209.99 L738.69 209.99 L746.792 230.268 L754.894 209.99 L759.408 209.99 L748.019 238.323 Z" fill="#000000" fill-rule="nonzero" fill-opacity="1" /></svg>
