<?xml version="1.0" encoding="utf-8"?>
<svg xmlns="http://www.w3.org/2000/svg" xmlns:xlink="http://www.w3.org/1999/xlink" width="600" height="400" viewBox="0 0 2400 1600">
<defs>
  <clipPath id="clip890">
    <rect x="0" y="0" width="2400" height="1600"/>
  </clipPath>
</defs>
<path clip-path="url(#clip890)" d="M0 1600 L2400 1600 L2400 8.88178e-14 L0 8.88178e-14  Z" fill="#ffffff" fill-rule="evenodd" fill-opacity="1"/>
<defs>
  <clipPath id="clip891">
    <rect x="480" y="0" width="1681" height="1600"/>
  </clipPath>
</defs>
<path clip-path="url(#clip890)" d="M256.209 1423.18 L2352.76 1423.18 L2352.76 123.472 L256.209 123.472  Z" fill="#ffffff" fill-rule="evenodd" fill-opacity="1"/>
<defs>
  <clipPath id="clip892">
    <rect x="256" y="123" width="2098" height="1301"/>
  </clipPath>
</defs>
<polyline clip-path="url(#clip892)" style="stroke:#000000; stroke-linecap:round; stroke-linejoin:round; stroke-width:2; stroke-opacity:0.1; fill:none" points="313.565,1423.18 313.565,123.472 "/>
<polyline clip-path="url(#clip892)" style="stroke:#000000; stroke-linecap:round; stroke-linejoin:round; stroke-width:2; stroke-opacity:0.1; fill:none" points="808.529,1423.18 808.529,123.472 "/>
<polyline clip-path="url(#clip892)" style="stroke:#000000; stroke-linecap:round; stroke-linejoin:round; stroke-width:2; stroke-opacity:0.1; fill:none" points="1303.49,1423.18 1303.49,123.472 "/>
<polyline clip-path="url(#clip892)" style="stroke:#000000; stroke-linecap:round; stroke-linejoin:round; stroke-width:2; stroke-opacity:0.1; fill:none" points="1798.46,1423.18 1798.46,123.472 "/>
<polyline clip-path="url(#clip892)" style="stroke:#000000; stroke-linecap:round; stroke-linejoin:round; stroke-width:2; stroke-opacity:0.1; fill:none" points="2293.42,1423.18 2293.42,123.472 "/>
<polyline clip-path="url(#clip890)" style="stroke:#000000; stroke-linecap:round; stroke-linejoin:round; stroke-width:4; stroke-opacity:1; fill:none" points="256.209,1423.18 2352.76,1423.18 "/>
<polyline clip-path="url(#clip890)" style="stroke:#000000; stroke-linecap:round; stroke-linejoin:round; stroke-width:4; stroke-opacity:1; fill:none" points="313.565,1423.18 313.565,1404.28 "/>
<polyline clip-path="url(#clip890)" style="stroke:#000000; stroke-linecap:round; stroke-linejoin:round; stroke-width:4; stroke-opacity:1; fill:none" points="808.529,1423.18 808.529,1404.28 "/>
<polyline clip-path="url(#clip890)" style="stroke:#000000; stroke-linecap:round; stroke-linejoin:round; stroke-width:4; stroke-opacity:1; fill:none" points="1303.49,1423.18 1303.49,1404.28 "/>
<polyline clip-path="url(#clip890)" style="stroke:#000000; stroke-linecap:round; stroke-linejoin:round; stroke-width:4; stroke-opacity:1; fill:none" points="1798.46,1423.18 1798.46,1404.28 "/>
<polyline clip-path="url(#clip890)" style="stroke:#000000; stroke-linecap:round; stroke-linejoin:round; stroke-width:4; stroke-opacity:1; fill:none" points="2293.42,1423.18 2293.42,1404.28 "/>
<path clip-path="url(#clip890)" d="M313.565 1454.1 Q309.954 1454.1 308.125 1457.66 Q306.32 1461.2 306.32 1468.33 Q306.32 1475.44 308.125 1479.01 Q309.954 1482.55 313.565 1482.55 Q317.199 1482.55 319.005 1479.01 Q320.834 1475.44 320.834 1468.33 Q320.834 1461.2 319.005 1457.66 Q317.199 1454.1 313.565 1454.1 M313.565 1450.39 Q319.375 1450.39 322.431 1455 Q325.509 1459.58 325.509 1468.33 Q325.509 1477.06 322.431 1481.67 Q319.375 1486.25 313.565 1486.25 Q307.755 1486.25 304.676 1481.67 Q301.621 1477.06 301.621 1468.33 Q301.621 1459.58 304.676 1455 Q307.755 1450.39 313.565 1450.39 Z" fill="#000000" fill-rule="nonzero" fill-opacity="1" /><path clip-path="url(#clip890)" d="M772.221 1481.64 L788.54 1481.64 L788.54 1485.58 L766.596 1485.58 L766.596 1481.64 Q769.258 1478.89 773.841 1474.26 Q778.448 1469.61 779.628 1468.27 Q781.874 1465.74 782.753 1464.01 Q783.656 1462.25 783.656 1460.56 Q783.656 1457.8 781.712 1456.07 Q779.79 1454.33 776.689 1454.33 Q774.49 1454.33 772.036 1455.09 Q769.605 1455.86 766.828 1457.41 L766.828 1452.69 Q769.652 1451.55 772.105 1450.97 Q774.559 1450.39 776.596 1450.39 Q781.966 1450.39 785.161 1453.08 Q788.355 1455.77 788.355 1460.26 Q788.355 1462.39 787.545 1464.31 Q786.758 1466.2 784.652 1468.8 Q784.073 1469.47 780.971 1472.69 Q777.869 1475.88 772.221 1481.64 Z" fill="#000000" fill-rule="nonzero" fill-opacity="1" /><path clip-path="url(#clip890)" d="M798.401 1451.02 L816.758 1451.02 L816.758 1454.96 L802.684 1454.96 L802.684 1463.43 Q803.702 1463.08 804.721 1462.92 Q805.739 1462.73 806.758 1462.73 Q812.545 1462.73 815.924 1465.9 Q819.304 1469.08 819.304 1474.49 Q819.304 1480.07 815.832 1483.17 Q812.36 1486.25 806.04 1486.25 Q803.864 1486.25 801.596 1485.88 Q799.351 1485.51 796.943 1484.77 L796.943 1480.07 Q799.026 1481.2 801.249 1481.76 Q803.471 1482.32 805.948 1482.32 Q809.952 1482.32 812.29 1480.21 Q814.628 1478.1 814.628 1474.49 Q814.628 1470.88 812.29 1468.77 Q809.952 1466.67 805.948 1466.67 Q804.073 1466.67 802.198 1467.08 Q800.346 1467.5 798.401 1468.38 L798.401 1451.02 Z" fill="#000000" fill-rule="nonzero" fill-opacity="1" /><path clip-path="url(#clip890)" d="M838.517 1454.1 Q834.906 1454.1 833.077 1457.66 Q831.272 1461.2 831.272 1468.33 Q831.272 1475.44 833.077 1479.01 Q834.906 1482.55 838.517 1482.55 Q842.151 1482.55 843.957 1479.01 Q845.785 1475.44 845.785 1468.33 Q845.785 1461.2 843.957 1457.66 Q842.151 1454.1 838.517 1454.1 M838.517 1450.39 Q844.327 1450.39 847.383 1455 Q850.461 1459.58 850.461 1468.33 Q850.461 1477.06 847.383 1481.67 Q844.327 1486.25 838.517 1486.25 Q832.707 1486.25 829.628 1481.67 Q826.573 1477.06 826.573 1468.33 Q826.573 1459.58 829.628 1455 Q832.707 1450.39 838.517 1450.39 Z" fill="#000000" fill-rule="nonzero" fill-opacity="1" /><path clip-path="url(#clip890)" d="M1263.11 1451.02 L1281.47 1451.02 L1281.47 1454.96 L1267.39 1454.96 L1267.39 1463.43 Q1268.41 1463.08 1269.43 1462.92 Q1270.45 1462.73 1271.47 1462.73 Q1277.25 1462.73 1280.63 1465.9 Q1284.01 1469.08 1284.01 1474.49 Q1284.01 1480.07 1280.54 1483.17 Q1277.07 1486.25 1270.75 1486.25 Q1268.57 1486.25 1266.31 1485.88 Q1264.06 1485.51 1261.65 1484.77 L1261.65 1480.07 Q1263.74 1481.2 1265.96 1481.76 Q1268.18 1482.32 1270.66 1482.32 Q1274.66 1482.32 1277 1480.21 Q1279.34 1478.1 1279.34 1474.49 Q1279.34 1470.88 1277 1468.77 Q1274.66 1466.67 1270.66 1466.67 Q1268.78 1466.67 1266.91 1467.08 Q1265.06 1467.5 1263.11 1468.38 L1263.11 1451.02 Z" fill="#000000" fill-rule="nonzero" fill-opacity="1" /><path clip-path="url(#clip890)" d="M1303.23 1454.1 Q1299.62 1454.1 1297.79 1457.66 Q1295.98 1461.2 1295.98 1468.33 Q1295.98 1475.44 1297.79 1479.01 Q1299.62 1482.55 1303.23 1482.55 Q1306.86 1482.55 1308.67 1479.01 Q1310.49 1475.44 1310.49 1468.33 Q1310.49 1461.2 1308.67 1457.66 Q1306.86 1454.1 1303.23 1454.1 M1303.23 1450.39 Q1309.04 1450.39 1312.09 1455 Q1315.17 1459.58 1315.17 1468.33 Q1315.17 1477.06 1312.09 1481.67 Q1309.04 1486.25 1303.23 1486.25 Q1297.42 1486.25 1294.34 1481.67 Q1291.28 1477.06 1291.28 1468.33 Q1291.28 1459.58 1294.34 1455 Q1297.42 1450.39 1303.23 1450.39 Z" fill="#000000" fill-rule="nonzero" fill-opacity="1" /><path clip-path="url(#clip890)" d="M1333.39 1454.1 Q1329.78 1454.1 1327.95 1457.66 Q1326.14 1461.2 1326.14 1468.33 Q1326.14 1475.44 1327.95 1479.01 Q1329.78 1482.55 1333.39 1482.55 Q1337.02 1482.55 1338.83 1479.01 Q1340.66 1475.44 1340.66 1468.33 Q1340.66 1461.2 1338.83 1457.66 Q1337.02 1454.1 1333.39 1454.1 M1333.39 1450.39 Q1339.2 1450.39 1342.25 1455 Q1345.33 1459.58 1345.33 1468.33 Q1345.33 1477.06 1342.25 1481.67 Q1339.2 1486.25 1333.39 1486.25 Q1327.58 1486.25 1324.5 1481.67 Q1321.44 1477.06 1321.44 1468.33 Q1321.44 1459.58 1324.5 1455 Q1327.58 1450.39 1333.39 1450.39 Z" fill="#000000" fill-rule="nonzero" fill-opacity="1" /><path clip-path="url(#clip890)" d="M1756.73 1451.02 L1778.95 1451.02 L1778.95 1453.01 L1766.41 1485.58 L1761.52 1485.58 L1773.33 1454.96 L1756.73 1454.96 L1756.73 1451.02 Z" fill="#000000" fill-rule="nonzero" fill-opacity="1" /><path clip-path="url(#clip890)" d="M1788.12 1451.02 L1806.48 1451.02 L1806.48 1454.96 L1792.4 1454.96 L1792.4 1463.43 Q1793.42 1463.08 1794.44 1462.92 Q1795.46 1462.73 1796.48 1462.73 Q1802.26 1462.73 1805.64 1465.9 Q1809.02 1469.08 1809.02 1474.49 Q1809.02 1480.07 1805.55 1483.17 Q1802.08 1486.25 1795.76 1486.25 Q1793.58 1486.25 1791.31 1485.88 Q1789.07 1485.51 1786.66 1484.77 L1786.66 1480.07 Q1788.75 1481.2 1790.97 1481.76 Q1793.19 1482.32 1795.67 1482.32 Q1799.67 1482.32 1802.01 1480.21 Q1804.35 1478.1 1804.35 1474.49 Q1804.35 1470.88 1802.01 1468.77 Q1799.67 1466.67 1795.67 1466.67 Q1793.79 1466.67 1791.92 1467.08 Q1790.06 1467.5 1788.12 1468.38 L1788.12 1451.02 Z" fill="#000000" fill-rule="nonzero" fill-opacity="1" /><path clip-path="url(#clip890)" d="M1828.24 1454.1 Q1824.62 1454.1 1822.8 1457.66 Q1820.99 1461.2 1820.99 1468.33 Q1820.99 1475.44 1822.8 1479.01 Q1824.62 1482.55 1828.24 1482.55 Q1831.87 1482.55 1833.68 1479.01 Q1835.5 1475.44 1835.5 1468.33 Q1835.5 1461.2 1833.68 1457.66 Q1831.87 1454.1 1828.24 1454.1 M1828.24 1450.39 Q1834.05 1450.39 1837.1 1455 Q1840.18 1459.58 1840.18 1468.33 Q1840.18 1477.06 1837.1 1481.67 Q1834.05 1486.25 1828.24 1486.25 Q1822.43 1486.25 1819.35 1481.67 Q1816.29 1477.06 1816.29 1468.33 Q1816.29 1459.58 1819.35 1455 Q1822.43 1450.39 1828.24 1450.39 Z" fill="#000000" fill-rule="nonzero" fill-opacity="1" /><path clip-path="url(#clip890)" d="M2237.95 1481.64 L2245.58 1481.64 L2245.58 1455.28 L2237.27 1456.95 L2237.27 1452.69 L2245.54 1451.02 L2250.21 1451.02 L2250.21 1481.64 L2257.85 1481.64 L2257.85 1485.58 L2237.95 1485.58 L2237.95 1481.64 Z" fill="#000000" fill-rule="nonzero" fill-opacity="1" /><path clip-path="url(#clip890)" d="M2277.3 1454.1 Q2273.69 1454.1 2271.86 1457.66 Q2270.05 1461.2 2270.05 1468.33 Q2270.05 1475.44 2271.86 1479.01 Q2273.69 1482.55 2277.3 1482.55 Q2280.93 1482.55 2282.74 1479.01 Q2284.57 1475.44 2284.57 1468.33 Q2284.57 1461.2 2282.74 1457.66 Q2280.93 1454.1 2277.3 1454.1 M2277.3 1450.39 Q2283.11 1450.39 2286.16 1455 Q2289.24 1459.58 2289.24 1468.33 Q2289.24 1477.06 2286.16 1481.67 Q2283.11 1486.25 2277.3 1486.25 Q2271.49 1486.25 2268.41 1481.67 Q2265.35 1477.06 2265.35 1468.33 Q2265.35 1459.58 2268.41 1455 Q2271.49 1450.39 2277.3 1450.39 Z" fill="#000000" fill-rule="nonzero" fill-opacity="1" /><path clip-path="url(#clip890)" d="M2307.46 1454.1 Q2303.85 1454.1 2302.02 1457.66 Q2300.21 1461.2 2300.21 1468.33 Q2300.21 1475.44 2302.02 1479.01 Q2303.85 1482.55 2307.46 1482.55 Q2311.09 1482.55 2312.9 1479.01 Q2314.73 1475.44 2314.73 1468.33 Q2314.73 1461.2 2312.9 1457.66 Q2311.09 1454.1 2307.46 1454.1 M2307.46 1450.39 Q2313.27 1450.39 2316.32 1455 Q2319.4 1459.58 2319.4 1468.33 Q2319.4 1477.06 2316.32 1481.67 Q2313.27 1486.25 2307.46 1486.25 Q2301.65 1486.25 2298.57 1481.67 Q2295.51 1477.06 2295.51 1468.33 Q2295.51 1459.58 2298.57 1455 Q2301.65 1450.39 2307.46 1450.39 Z" fill="#000000" fill-rule="nonzero" fill-opacity="1" /><path clip-path="url(#clip890)" d="M2337.62 1454.1 Q2334.01 1454.1 2332.18 1457.66 Q2330.38 1461.2 2330.38 1468.33 Q2330.38 1475.44 2332.18 1479.01 Q2334.01 1482.55 2337.62 1482.55 Q2341.26 1482.55 2343.06 1479.01 Q2344.89 1475.44 2344.89 1468.33 Q2344.89 1461.2 2343.06 1457.66 Q2341.26 1454.1 2337.62 1454.1 M2337.62 1450.39 Q2343.43 1450.39 2346.49 1455 Q2349.57 1459.58 2349.57 1468.33 Q2349.57 1477.06 2346.49 1481.67 Q2343.43 1486.25 2337.62 1486.25 Q2331.81 1486.25 2328.73 1481.67 Q2325.68 1477.06 2325.68 1468.33 Q2325.68 1459.58 2328.73 1455 Q2331.81 1450.39 2337.62 1450.39 Z" fill="#000000" fill-rule="nonzero" fill-opacity="1" /><path clip-path="url(#clip890)" d="M1268.33 1524.18 L1268.33 1530.96 Q1265.08 1527.94 1261.39 1526.44 Q1257.73 1524.95 1253.59 1524.95 Q1245.44 1524.95 1241.11 1529.95 Q1236.78 1534.91 1236.78 1544.33 Q1236.78 1553.72 1241.11 1558.72 Q1245.44 1563.68 1253.59 1563.68 Q1257.73 1563.68 1261.39 1562.19 Q1265.08 1560.69 1268.33 1557.67 L1268.33 1564.38 Q1264.95 1566.68 1261.16 1567.82 Q1257.41 1568.97 1253.21 1568.97 Q1242.42 1568.97 1236.21 1562.38 Q1230 1555.76 1230 1544.33 Q1230 1532.87 1236.21 1526.28 Q1242.42 1519.66 1253.21 1519.66 Q1257.47 1519.66 1261.23 1520.81 Q1265.01 1521.92 1268.33 1524.18 Z" fill="#000000" fill-rule="nonzero" fill-opacity="1" /><path clip-path="url(#clip890)" d="M1308.49 1548.76 L1308.49 1551.62 L1281.57 1551.62 Q1281.95 1557.67 1285.19 1560.85 Q1288.47 1564 1294.3 1564 Q1297.67 1564 1300.82 1563.17 Q1304 1562.35 1307.12 1560.69 L1307.12 1566.23 Q1303.97 1567.57 1300.66 1568.27 Q1297.35 1568.97 1293.95 1568.97 Q1285.42 1568.97 1280.42 1564 Q1275.45 1559.04 1275.45 1550.57 Q1275.45 1541.82 1280.17 1536.69 Q1284.91 1531.54 1292.93 1531.54 Q1300.12 1531.54 1304.29 1536.18 Q1308.49 1540.8 1308.49 1548.76 M1302.64 1547.04 Q1302.57 1542.23 1299.93 1539.37 Q1297.32 1536.5 1292.99 1536.5 Q1288.09 1536.5 1285.13 1539.27 Q1282.2 1542.04 1281.76 1547.07 L1302.64 1547.04 Z" fill="#000000" fill-rule="nonzero" fill-opacity="1" /><path clip-path="url(#clip890)" d="M1318.1 1518.52 L1323.96 1518.52 L1323.96 1568.04 L1318.1 1568.04 L1318.1 1518.52 Z" fill="#000000" fill-rule="nonzero" fill-opacity="1" /><path clip-path="url(#clip890)" d="M1336.22 1518.52 L1342.07 1518.52 L1342.07 1568.04 L1336.22 1568.04 L1336.22 1518.52 Z" fill="#000000" fill-rule="nonzero" fill-opacity="1" /><path clip-path="url(#clip890)" d="M1377.05 1533.45 L1377.05 1538.98 Q1374.57 1537.71 1371.9 1537.07 Q1369.22 1536.44 1366.36 1536.44 Q1362 1536.44 1359.8 1537.77 Q1357.64 1539.11 1357.64 1541.79 Q1357.64 1543.82 1359.2 1545 Q1360.76 1546.15 1365.47 1547.2 L1367.47 1547.64 Q1373.71 1548.98 1376.32 1551.43 Q1378.96 1553.85 1378.96 1558.21 Q1378.96 1563.17 1375.01 1566.07 Q1371.1 1568.97 1364.22 1568.97 Q1361.36 1568.97 1358.24 1568.39 Q1355.15 1567.85 1351.72 1566.74 L1351.72 1560.69 Q1354.96 1562.38 1358.11 1563.24 Q1361.26 1564.07 1364.35 1564.07 Q1368.49 1564.07 1370.72 1562.66 Q1372.95 1561.23 1372.95 1558.65 Q1372.95 1556.27 1371.32 1554.99 Q1369.73 1553.72 1364.29 1552.54 L1362.25 1552.07 Q1356.81 1550.92 1354.39 1548.56 Q1351.97 1546.18 1351.97 1542.04 Q1351.97 1537.01 1355.54 1534.27 Q1359.1 1531.54 1365.66 1531.54 Q1368.9 1531.54 1371.77 1532.01 Q1374.63 1532.49 1377.05 1533.45 Z" fill="#000000" fill-rule="nonzero" fill-opacity="1" /><polyline clip-path="url(#clip892)" style="stroke:#000000; stroke-linecap:round; stroke-linejoin:round; stroke-width:2; stroke-opacity:0.1; fill:none" points="256.209,1239.43 2352.76,1239.43 "/>
<polyline clip-path="url(#clip892)" style="stroke:#000000; stroke-linecap:round; stroke-linejoin:round; stroke-width:2; stroke-opacity:0.1; fill:none" points="256.209,870.991 2352.76,870.991 "/>
<polyline clip-path="url(#clip892)" style="stroke:#000000; stroke-linecap:round; stroke-linejoin:round; stroke-width:2; stroke-opacity:0.1; fill:none" points="256.209,502.554 2352.76,502.554 "/>
<polyline clip-path="url(#clip892)" style="stroke:#000000; stroke-linecap:round; stroke-linejoin:round; stroke-width:2; stroke-opacity:0.1; fill:none" points="256.209,134.118 2352.76,134.118 "/>
<polyline clip-path="url(#clip890)" style="stroke:#000000; stroke-linecap:round; stroke-linejoin:round; stroke-width:4; stroke-opacity:1; fill:none" points="256.209,1423.18 256.209,123.472 "/>
<polyline clip-path="url(#clip890)" style="stroke:#000000; stroke-linecap:round; stroke-linejoin:round; stroke-width:4; stroke-opacity:1; fill:none" points="256.209,1239.43 275.106,1239.43 "/>
<polyline clip-path="url(#clip890)" style="stroke:#000000; stroke-linecap:round; stroke-linejoin:round; stroke-width:4; stroke-opacity:1; fill:none" points="256.209,870.991 275.106,870.991 "/>
<polyline clip-path="url(#clip890)" style="stroke:#000000; stroke-linecap:round; stroke-linejoin:round; stroke-width:4; stroke-opacity:1; fill:none" points="256.209,502.554 275.106,502.554 "/>
<polyline clip-path="url(#clip890)" style="stroke:#000000; stroke-linecap:round; stroke-linejoin:round; stroke-width:4; stroke-opacity:1; fill:none" points="256.209,134.118 275.106,134.118 "/>
<path clip-path="url(#clip890)" d="M114.26 1239.88 L143.936 1239.88 L143.936 1243.81 L114.26 1243.81 L114.26 1239.88 Z" fill="#000000" fill-rule="nonzero" fill-opacity="1" /><path clip-path="url(#clip890)" d="M164.028 1225.23 Q160.417 1225.23 158.589 1228.79 Q156.783 1232.33 156.783 1239.46 Q156.783 1246.57 158.589 1250.13 Q160.417 1253.68 164.028 1253.68 Q167.663 1253.68 169.468 1250.13 Q171.297 1246.57 171.297 1239.46 Q171.297 1232.33 169.468 1228.79 Q167.663 1225.23 164.028 1225.23 M164.028 1221.52 Q169.839 1221.52 172.894 1226.13 Q175.973 1230.71 175.973 1239.46 Q175.973 1248.19 172.894 1252.8 Q169.839 1257.38 164.028 1257.38 Q158.218 1257.38 155.14 1252.8 Q152.084 1248.19 152.084 1239.46 Q152.084 1230.71 155.14 1226.13 Q158.218 1221.52 164.028 1221.52 Z" fill="#000000" fill-rule="nonzero" fill-opacity="1" /><path clip-path="url(#clip890)" d="M184.19 1250.83 L189.075 1250.83 L189.075 1256.71 L184.19 1256.71 L184.19 1250.83 Z" fill="#000000" fill-rule="nonzero" fill-opacity="1" /><path clip-path="url(#clip890)" d="M199.306 1222.15 L217.662 1222.15 L217.662 1226.08 L203.588 1226.08 L203.588 1234.56 Q204.607 1234.21 205.625 1234.05 Q206.644 1233.86 207.662 1233.86 Q213.449 1233.86 216.829 1237.03 Q220.209 1240.2 220.209 1245.62 Q220.209 1251.2 216.736 1254.3 Q213.264 1257.38 206.945 1257.38 Q204.769 1257.38 202.5 1257.01 Q200.255 1256.64 197.848 1255.9 L197.848 1251.2 Q199.931 1252.33 202.153 1252.89 Q204.375 1253.44 206.852 1253.44 Q210.857 1253.44 213.195 1251.34 Q215.533 1249.23 215.533 1245.62 Q215.533 1242.01 213.195 1239.9 Q210.857 1237.8 206.852 1237.8 Q204.977 1237.8 203.102 1238.21 Q201.25 1238.63 199.306 1239.51 L199.306 1222.15 Z" fill="#000000" fill-rule="nonzero" fill-opacity="1" /><path clip-path="url(#clip890)" d="M163.033 856.79 Q159.422 856.79 157.593 860.355 Q155.788 863.897 155.788 871.026 Q155.788 878.133 157.593 881.697 Q159.422 885.239 163.033 885.239 Q166.667 885.239 168.473 881.697 Q170.302 878.133 170.302 871.026 Q170.302 863.897 168.473 860.355 Q166.667 856.79 163.033 856.79 M163.033 853.086 Q168.843 853.086 171.899 857.693 Q174.977 862.276 174.977 871.026 Q174.977 879.753 171.899 884.359 Q168.843 888.943 163.033 888.943 Q157.223 888.943 154.144 884.359 Q151.089 879.753 151.089 871.026 Q151.089 862.276 154.144 857.693 Q157.223 853.086 163.033 853.086 Z" fill="#000000" fill-rule="nonzero" fill-opacity="1" /><path clip-path="url(#clip890)" d="M183.195 882.392 L188.079 882.392 L188.079 888.271 L183.195 888.271 L183.195 882.392 Z" fill="#000000" fill-rule="nonzero" fill-opacity="1" /><path clip-path="url(#clip890)" d="M208.264 856.79 Q204.653 856.79 202.824 860.355 Q201.019 863.897 201.019 871.026 Q201.019 878.133 202.824 881.697 Q204.653 885.239 208.264 885.239 Q211.899 885.239 213.704 881.697 Q215.533 878.133 215.533 871.026 Q215.533 863.897 213.704 860.355 Q211.899 856.79 208.264 856.79 M208.264 853.086 Q214.074 853.086 217.13 857.693 Q220.209 862.276 220.209 871.026 Q220.209 879.753 217.13 884.359 Q214.074 888.943 208.264 888.943 Q202.454 888.943 199.375 884.359 Q196.32 879.753 196.32 871.026 Q196.32 862.276 199.375 857.693 Q202.454 853.086 208.264 853.086 Z" fill="#000000" fill-rule="nonzero" fill-opacity="1" /><path clip-path="url(#clip890)" d="M164.028 488.353 Q160.417 488.353 158.589 491.918 Q156.783 495.46 156.783 502.589 Q156.783 509.696 158.589 513.26 Q160.417 516.802 164.028 516.802 Q167.663 516.802 169.468 513.26 Q171.297 509.696 171.297 502.589 Q171.297 495.46 169.468 491.918 Q167.663 488.353 164.028 488.353 M164.028 484.65 Q169.839 484.65 172.894 489.256 Q175.973 493.839 175.973 502.589 Q175.973 511.316 172.894 515.922 Q169.839 520.506 164.028 520.506 Q158.218 520.506 155.14 515.922 Q152.084 511.316 152.084 502.589 Q152.084 493.839 155.14 489.256 Q158.218 484.65 164.028 484.65 Z" fill="#000000" fill-rule="nonzero" fill-opacity="1" /><path clip-path="url(#clip890)" d="M184.19 513.955 L189.075 513.955 L189.075 519.834 L184.19 519.834 L184.19 513.955 Z" fill="#000000" fill-rule="nonzero" fill-opacity="1" /><path clip-path="url(#clip890)" d="M199.306 485.274 L217.662 485.274 L217.662 489.21 L203.588 489.21 L203.588 497.682 Q204.607 497.335 205.625 497.173 Q206.644 496.987 207.662 496.987 Q213.449 496.987 216.829 500.159 Q220.209 503.33 220.209 508.747 Q220.209 514.325 216.736 517.427 Q213.264 520.506 206.945 520.506 Q204.769 520.506 202.5 520.135 Q200.255 519.765 197.848 519.024 L197.848 514.325 Q199.931 515.46 202.153 516.015 Q204.375 516.571 206.852 516.571 Q210.857 516.571 213.195 514.464 Q215.533 512.358 215.533 508.747 Q215.533 505.136 213.195 503.029 Q210.857 500.923 206.852 500.923 Q204.977 500.923 203.102 501.339 Q201.25 501.756 199.306 502.636 L199.306 485.274 Z" fill="#000000" fill-rule="nonzero" fill-opacity="1" /><path clip-path="url(#clip890)" d="M153.843 147.462 L161.482 147.462 L161.482 121.097 L153.172 122.763 L153.172 118.504 L161.436 116.838 L166.112 116.838 L166.112 147.462 L173.751 147.462 L173.751 151.398 L153.843 151.398 L153.843 147.462 Z" fill="#000000" fill-rule="nonzero" fill-opacity="1" /><path clip-path="url(#clip890)" d="M183.195 145.518 L188.079 145.518 L188.079 151.398 L183.195 151.398 L183.195 145.518 Z" fill="#000000" fill-rule="nonzero" fill-opacity="1" /><path clip-path="url(#clip890)" d="M208.264 119.916 Q204.653 119.916 202.824 123.481 Q201.019 127.023 201.019 134.152 Q201.019 141.259 202.824 144.824 Q204.653 148.365 208.264 148.365 Q211.899 148.365 213.704 144.824 Q215.533 141.259 215.533 134.152 Q215.533 127.023 213.704 123.481 Q211.899 119.916 208.264 119.916 M208.264 116.213 Q214.074 116.213 217.13 120.819 Q220.209 125.402 220.209 134.152 Q220.209 142.879 217.13 147.486 Q214.074 152.069 208.264 152.069 Q202.454 152.069 199.375 147.486 Q196.32 142.879 196.32 134.152 Q196.32 125.402 199.375 120.819 Q202.454 116.213 208.264 116.213 Z" fill="#000000" fill-rule="nonzero" fill-opacity="1" /><path clip-path="url(#clip890)" d="M18.0438 893.717 L24.314 893.717 Q22.5634 897.378 21.704 900.624 Q20.8447 903.871 20.8447 906.894 Q20.8447 912.146 22.8817 915.011 Q24.9187 917.843 28.6745 917.843 Q31.8255 917.843 33.4488 915.966 Q35.0402 914.056 36.0269 908.772 L36.8226 904.889 Q38.1912 897.696 41.6605 894.29 Q45.098 890.853 50.8908 890.853 Q57.7976 890.853 61.3624 895.5 Q64.9272 900.115 64.9272 909.059 Q64.9272 912.433 64.1633 916.252 Q63.3994 920.04 61.9035 924.114 L55.2831 924.114 Q57.4793 920.199 58.5933 916.443 Q59.7073 912.687 59.7073 909.059 Q59.7073 903.552 57.543 900.561 Q55.3786 897.569 51.3682 897.569 Q47.8671 897.569 45.8937 899.733 Q43.9204 901.866 42.9337 906.767 L42.1698 910.682 Q40.7375 917.875 37.682 921.09 Q34.6264 924.305 29.1837 924.305 Q22.8817 924.305 19.2532 919.88 Q15.6248 915.424 15.6248 907.626 Q15.6248 904.284 16.2295 900.815 Q16.8343 897.346 18.0438 893.717 Z" fill="#000000" fill-rule="nonzero" fill-opacity="1" /><path clip-path="url(#clip890)" d="M28.3562 881.081 L28.3562 875.225 L64.0042 875.225 L64.0042 881.081 L28.3562 881.081 M14.479 881.081 L14.479 875.225 L21.895 875.225 L21.895 881.081 L14.479 881.081 Z" fill="#000000" fill-rule="nonzero" fill-opacity="1" /><path clip-path="url(#clip890)" d="M35.1993 835.217 Q31.2526 833.02 29.3747 829.965 Q27.4968 826.909 27.4968 822.772 Q27.4968 817.202 31.4117 814.178 Q35.2948 811.154 42.4881 811.154 L64.0042 811.154 L64.0042 817.042 L42.679 817.042 Q37.5546 817.042 35.072 818.857 Q32.5894 820.671 32.5894 824.395 Q32.5894 828.946 35.6131 831.588 Q38.6368 834.23 43.8567 834.23 L64.0042 834.23 L64.0042 840.118 L42.679 840.118 Q37.5228 840.118 35.072 841.932 Q32.5894 843.747 32.5894 847.534 Q32.5894 852.022 35.6449 854.664 Q38.6686 857.306 43.8567 857.306 L64.0042 857.306 L64.0042 863.194 L28.3562 863.194 L28.3562 857.306 L33.8944 857.306 Q30.616 855.3 29.0564 852.499 Q27.4968 849.699 27.4968 845.847 Q27.4968 841.964 29.4702 839.259 Q31.4436 836.522 35.1993 835.217 Z" fill="#000000" fill-rule="nonzero" fill-opacity="1" /><path clip-path="url(#clip890)" d="M28.3562 799.473 L28.3562 793.617 L64.0042 793.617 L64.0042 799.473 L28.3562 799.473 M14.479 799.473 L14.479 793.617 L21.895 793.617 L21.895 799.473 L14.479 799.473 Z" fill="#000000" fill-rule="nonzero" fill-opacity="1" /><path clip-path="url(#clip890)" d="M14.479 781.363 L14.479 775.506 L64.0042 775.506 L64.0042 781.363 L14.479 781.363 Z" fill="#000000" fill-rule="nonzero" fill-opacity="1" /><path clip-path="url(#clip890)" d="M46.0847 747.052 Q46.0847 754.149 47.7079 756.887 Q49.3312 759.624 53.2461 759.624 Q56.3653 759.624 58.2114 757.587 Q60.0256 755.518 60.0256 751.985 Q60.0256 747.115 56.5881 744.187 Q53.1188 741.227 47.3897 741.227 L46.0847 741.227 L46.0847 747.052 M43.6657 735.37 L64.0042 735.37 L64.0042 741.227 L58.5933 741.227 Q61.8398 743.232 63.3994 746.224 Q64.9272 749.216 64.9272 753.545 Q64.9272 759.019 61.8716 762.266 Q58.7843 765.48 53.6281 765.48 Q47.6125 765.48 44.5569 761.47 Q41.5014 757.428 41.5014 749.439 L41.5014 741.227 L40.9285 741.227 Q36.8862 741.227 34.6901 743.901 Q32.4621 746.542 32.4621 751.348 Q32.4621 754.404 33.1941 757.3 Q33.9262 760.197 35.3903 762.87 L29.9795 762.87 Q28.7381 759.656 28.1334 756.632 Q27.4968 753.608 27.4968 750.744 Q27.4968 743.009 31.5072 739.19 Q35.5176 735.37 43.6657 735.37 Z" fill="#000000" fill-rule="nonzero" fill-opacity="1" /><path clip-path="url(#clip890)" d="M33.8307 702.651 Q33.2578 703.637 33.0032 704.815 Q32.7167 705.961 32.7167 707.361 Q32.7167 712.327 35.9632 715 Q39.1779 717.642 45.2253 717.642 L64.0042 717.642 L64.0042 723.53 L28.3562 723.53 L28.3562 717.642 L33.8944 717.642 Q30.6479 715.796 29.0883 712.836 Q27.4968 709.876 27.4968 705.643 Q27.4968 705.038 27.5923 704.306 Q27.656 703.574 27.8151 702.683 L33.8307 702.651 Z" fill="#000000" fill-rule="nonzero" fill-opacity="1" /><path clip-path="url(#clip890)" d="M28.3562 696.508 L28.3562 690.651 L64.0042 690.651 L64.0042 696.508 L28.3562 696.508 M14.479 696.508 L14.479 690.651 L21.895 690.651 L21.895 696.508 L14.479 696.508 Z" fill="#000000" fill-rule="nonzero" fill-opacity="1" /><path clip-path="url(#clip890)" d="M18.2347 672.605 L28.3562 672.605 L28.3562 660.542 L32.9077 660.542 L32.9077 672.605 L52.2594 672.605 Q56.6199 672.605 57.8613 671.427 Q59.1026 670.217 59.1026 666.557 L59.1026 660.542 L64.0042 660.542 L64.0042 666.557 Q64.0042 673.337 61.4897 675.915 Q58.9434 678.493 52.2594 678.493 L32.9077 678.493 L32.9077 682.79 L28.3562 682.79 L28.3562 678.493 L18.2347 678.493 L18.2347 672.605 Z" fill="#000000" fill-rule="nonzero" fill-opacity="1" /><path clip-path="url(#clip890)" d="M67.3143 638.007 Q73.68 640.49 75.6216 642.845 Q77.5631 645.2 77.5631 649.147 L77.5631 653.826 L72.6615 653.826 L72.6615 650.388 Q72.6615 647.969 71.5157 646.633 Q70.3699 645.296 66.1048 643.672 L63.4312 642.622 L28.3562 657.04 L28.3562 650.834 L56.238 639.694 L28.3562 628.554 L28.3562 622.347 L67.3143 638.007 Z" fill="#000000" fill-rule="nonzero" fill-opacity="1" /><path clip-path="url(#clip890)" d="M422.945 14.0809 L422.945 22.0612 Q418.286 19.8332 414.154 18.7395 Q410.022 17.6457 406.174 17.6457 Q399.49 17.6457 395.844 20.2383 Q392.239 22.8309 392.239 27.611 Q392.239 31.6214 394.629 33.6873 Q397.059 35.7128 403.784 36.9686 L408.726 37.9813 Q417.881 39.7232 422.216 44.1387 Q426.591 48.5136 426.591 55.8863 Q426.591 64.6767 420.676 69.2137 Q414.802 73.7508 403.419 73.7508 Q399.125 73.7508 394.264 72.7785 Q389.444 71.8063 384.259 69.9024 L384.259 61.4765 Q389.241 64.2716 394.021 65.6895 Q398.801 67.1073 403.419 67.1073 Q410.427 67.1073 414.235 64.3527 Q418.043 61.598 418.043 56.4939 Q418.043 52.0379 415.289 49.5264 Q412.574 47.0148 406.336 45.759 L401.353 44.7868 Q392.198 42.9639 388.107 39.075 Q384.016 35.1862 384.016 28.2591 Q384.016 20.2383 389.646 15.6203 Q395.318 11.0023 405.242 11.0023 Q409.496 11.0023 413.911 11.7719 Q418.327 12.5416 422.945 14.0809 Z" fill="#000000" fill-rule="nonzero" fill-opacity="1" /><path clip-path="url(#clip890)" d="M456.608 32.4315 Q450.612 32.4315 447.129 37.1306 Q443.645 41.7891 443.645 49.9314 Q443.645 58.0738 447.088 62.7728 Q450.572 67.4314 456.608 67.4314 Q462.563 67.4314 466.046 62.7323 Q469.53 58.0333 469.53 49.9314 Q469.53 41.8701 466.046 37.1711 Q462.563 32.4315 456.608 32.4315 M456.608 26.1121 Q466.33 26.1121 471.88 32.4315 Q477.429 38.7509 477.429 49.9314 Q477.429 61.0714 471.88 67.4314 Q466.33 73.7508 456.608 73.7508 Q446.845 73.7508 441.295 67.4314 Q435.786 61.0714 435.786 49.9314 Q435.786 38.7509 441.295 32.4315 Q446.845 26.1121 456.608 26.1121 Z" fill="#000000" fill-rule="nonzero" fill-opacity="1" /><path clip-path="url(#clip890)" d="M516.075 34.1734 Q514.819 33.4443 513.32 33.1202 Q511.862 32.7556 510.08 32.7556 Q503.76 32.7556 500.358 36.8875 Q496.995 40.9789 496.995 48.6757 L496.995 72.576 L489.501 72.576 L489.501 27.2059 L496.995 27.2059 L496.995 34.2544 Q499.345 30.1225 503.112 28.1376 Q506.879 26.1121 512.267 26.1121 Q513.037 26.1121 513.969 26.2337 Q514.9 26.3147 516.035 26.5172 L516.075 34.1734 Z" fill="#000000" fill-rule="nonzero" fill-opacity="1" /><path clip-path="url(#clip890)" d="M531.266 14.324 L531.266 27.2059 L546.619 27.2059 L546.619 32.9987 L531.266 32.9987 L531.266 57.6282 Q531.266 63.1779 532.765 64.7578 Q534.304 66.3376 538.963 66.3376 L546.619 66.3376 L546.619 72.576 L538.963 72.576 Q530.334 72.576 527.053 69.3758 Q523.772 66.1351 523.772 57.6282 L523.772 32.9987 L518.303 32.9987 L518.303 27.2059 L523.772 27.2059 L523.772 14.324 L531.266 14.324 Z" fill="#000000" fill-rule="nonzero" fill-opacity="1" /><path clip-path="url(#clip890)" d="M595.23 48.0275 L595.23 51.6733 L560.959 51.6733 Q561.445 59.3701 565.577 63.421 Q569.75 67.4314 577.163 67.4314 Q581.457 67.4314 585.467 66.3781 Q589.518 65.3249 593.488 63.2184 L593.488 70.267 Q589.477 71.9684 585.264 72.8596 Q581.052 73.7508 576.717 73.7508 Q565.861 73.7508 559.501 67.4314 Q553.181 61.1119 553.181 50.3365 Q553.181 39.1965 559.177 32.6746 Q565.213 26.1121 575.421 26.1121 Q584.576 26.1121 589.883 32.0264 Q595.23 37.9003 595.23 48.0275 M587.776 45.84 Q587.695 39.7232 584.333 36.0774 Q581.011 32.4315 575.502 32.4315 Q569.263 32.4315 565.496 35.9558 Q561.769 39.4801 561.202 45.8805 L587.776 45.84 Z" fill="#000000" fill-rule="nonzero" fill-opacity="1" /><path clip-path="url(#clip890)" d="M637.319 34.0924 L637.319 9.54393 L644.772 9.54393 L644.772 72.576 L637.319 72.576 L637.319 65.7705 Q634.969 69.8214 631.364 71.8063 Q627.799 73.7508 622.776 73.7508 Q614.553 73.7508 609.367 67.1883 Q604.223 60.6258 604.223 49.9314 Q604.223 39.2371 609.367 32.6746 Q614.553 26.1121 622.776 26.1121 Q627.799 26.1121 631.364 28.0971 Q634.969 30.0415 637.319 34.0924 M611.919 49.9314 Q611.919 58.1548 615.282 62.8538 Q618.684 67.5124 624.599 67.5124 Q630.513 67.5124 633.916 62.8538 Q637.319 58.1548 637.319 49.9314 Q637.319 41.7081 633.916 37.0496 Q630.513 32.3505 624.599 32.3505 Q618.684 32.3505 615.282 37.0496 Q611.919 41.7081 611.919 49.9314 Z" fill="#000000" fill-rule="nonzero" fill-opacity="1" /><path clip-path="url(#clip890)" d="M719.147 28.9478 L719.147 35.9153 Q715.987 34.1734 712.787 33.3227 Q709.627 32.4315 706.387 32.4315 Q699.135 32.4315 695.125 37.0496 Q691.115 41.6271 691.115 49.9314 Q691.115 58.2358 695.125 62.8538 Q699.135 67.4314 706.387 67.4314 Q709.627 67.4314 712.787 66.5807 Q715.987 65.6895 719.147 63.9476 L719.147 70.8341 Q716.028 72.2924 712.665 73.0216 Q709.344 73.7508 705.576 73.7508 Q695.328 73.7508 689.292 67.3098 Q683.256 60.8689 683.256 49.9314 Q683.256 38.832 689.332 32.472 Q695.449 26.1121 706.062 26.1121 Q709.506 26.1121 712.787 26.8413 Q716.068 27.5299 719.147 28.9478 Z" fill="#000000" fill-rule="nonzero" fill-opacity="1" /><path clip-path="url(#clip890)" d="M749.691 32.4315 Q743.695 32.4315 740.212 37.1306 Q736.728 41.7891 736.728 49.9314 Q736.728 58.0738 740.171 62.7728 Q743.655 67.4314 749.691 67.4314 Q755.646 67.4314 759.129 62.7323 Q762.613 58.0333 762.613 49.9314 Q762.613 41.8701 759.129 37.1711 Q755.646 32.4315 749.691 32.4315 M749.691 26.1121 Q759.413 26.1121 764.963 32.4315 Q770.512 38.7509 770.512 49.9314 Q770.512 61.0714 764.963 67.4314 Q759.413 73.7508 749.691 73.7508 Q739.928 73.7508 734.378 67.4314 Q728.869 61.0714 728.869 49.9314 Q728.869 38.7509 734.378 32.4315 Q739.928 26.1121 749.691 26.1121 Z" fill="#000000" fill-rule="nonzero" fill-opacity="1" /><path clip-path="url(#clip890)" d="M811.791 28.5427 L811.791 35.5912 Q808.631 33.9709 805.229 33.1607 Q801.826 32.3505 798.18 32.3505 Q792.63 32.3505 789.835 34.0519 Q787.081 35.7533 787.081 39.156 Q787.081 41.7486 789.065 43.2475 Q791.05 44.7058 797.046 46.0426 L799.598 46.6097 Q807.538 48.3111 810.859 51.4303 Q814.222 54.509 814.222 60.0587 Q814.222 66.3781 809.198 70.0644 Q804.216 73.7508 795.466 73.7508 Q791.82 73.7508 787.85 73.0216 Q783.921 72.3329 779.546 70.9151 L779.546 63.2184 Q783.678 65.3654 787.688 66.4591 Q791.699 67.5124 795.628 67.5124 Q800.894 67.5124 803.73 65.73 Q806.565 63.9071 806.565 60.6258 Q806.565 57.5877 804.499 55.9673 Q802.474 54.3469 795.547 52.8481 L792.954 52.2405 Q786.027 50.7821 782.949 47.7845 Q779.87 44.7463 779.87 39.4801 Q779.87 33.0797 784.407 29.5959 Q788.944 26.1121 797.289 26.1121 Q801.421 26.1121 805.067 26.7198 Q808.712 27.3274 811.791 28.5427 Z" fill="#000000" fill-rule="nonzero" fill-opacity="1" /><path clip-path="url(#clip890)" d="M826.091 27.2059 L833.544 27.2059 L833.544 72.576 L826.091 72.576 L826.091 27.2059 M826.091 9.54393 L833.544 9.54393 L833.544 18.9825 L826.091 18.9825 L826.091 9.54393 Z" fill="#000000" fill-rule="nonzero" fill-opacity="1" /><path clip-path="url(#clip890)" d="M886.854 45.1919 L886.854 72.576 L879.401 72.576 L879.401 45.4349 Q879.401 38.994 876.889 35.7938 Q874.378 32.5936 869.354 32.5936 Q863.319 32.5936 859.835 36.4419 Q856.351 40.2903 856.351 46.9338 L856.351 72.576 L848.857 72.576 L848.857 27.2059 L856.351 27.2059 L856.351 34.2544 Q859.025 30.163 862.63 28.1376 Q866.276 26.1121 871.015 26.1121 Q878.834 26.1121 882.844 30.9732 Q886.854 35.7938 886.854 45.1919 Z" fill="#000000" fill-rule="nonzero" fill-opacity="1" /><path clip-path="url(#clip890)" d="M940.529 48.0275 L940.529 51.6733 L906.258 51.6733 Q906.744 59.3701 910.876 63.421 Q915.049 67.4314 922.462 67.4314 Q926.756 67.4314 930.766 66.3781 Q934.817 65.3249 938.787 63.2184 L938.787 70.267 Q934.777 71.9684 930.564 72.8596 Q926.351 73.7508 922.016 73.7508 Q911.16 73.7508 904.8 67.4314 Q898.48 61.1119 898.48 50.3365 Q898.48 39.1965 904.476 32.6746 Q910.512 26.1121 920.72 26.1121 Q929.875 26.1121 935.182 32.0264 Q940.529 37.9003 940.529 48.0275 M933.075 45.84 Q932.994 39.7232 929.632 36.0774 Q926.31 32.4315 920.801 32.4315 Q914.562 32.4315 910.795 35.9558 Q907.068 39.4801 906.501 45.8805 L933.075 45.84 Z" fill="#000000" fill-rule="nonzero" fill-opacity="1" /><path clip-path="url(#clip890)" d="M1008.06 28.5427 L1008.06 35.5912 Q1004.9 33.9709 1001.49 33.1607 Q998.092 32.3505 994.446 32.3505 Q988.897 32.3505 986.101 34.0519 Q983.347 35.7533 983.347 39.156 Q983.347 41.7486 985.332 43.2475 Q987.317 44.7058 993.312 46.0426 L995.864 46.6097 Q1003.8 48.3111 1007.13 51.4303 Q1010.49 54.509 1010.49 60.0587 Q1010.49 66.3781 1005.46 70.0644 Q1000.48 73.7508 991.732 73.7508 Q988.086 73.7508 984.117 73.0216 Q980.187 72.3329 975.812 70.9151 L975.812 63.2184 Q979.944 65.3654 983.954 66.4591 Q987.965 67.5124 991.894 67.5124 Q997.16 67.5124 999.996 65.73 Q1002.83 63.9071 1002.83 60.6258 Q1002.83 57.5877 1000.77 55.9673 Q998.74 54.3469 991.813 52.8481 L989.221 52.2405 Q982.294 50.7821 979.215 47.7845 Q976.136 44.7463 976.136 39.4801 Q976.136 33.0797 980.673 29.5959 Q985.21 26.1121 993.555 26.1121 Q997.687 26.1121 1001.33 26.7198 Q1004.98 27.3274 1008.06 28.5427 Z" fill="#000000" fill-rule="nonzero" fill-opacity="1" /><path clip-path="url(#clip890)" d="M1022.36 27.2059 L1029.81 27.2059 L1029.81 72.576 L1022.36 72.576 L1022.36 27.2059 M1022.36 9.54393 L1029.81 9.54393 L1029.81 18.9825 L1022.36 18.9825 L1022.36 9.54393 Z" fill="#000000" fill-rule="nonzero" fill-opacity="1" /><path clip-path="url(#clip890)" d="M1080.73 35.9153 Q1083.53 30.8922 1087.41 28.5022 Q1091.3 26.1121 1096.57 26.1121 Q1103.66 26.1121 1107.51 31.0947 Q1111.36 36.0368 1111.36 45.1919 L1111.36 72.576 L1103.86 72.576 L1103.86 45.4349 Q1103.86 38.913 1101.55 35.7533 Q1099.24 32.5936 1094.5 32.5936 Q1088.71 32.5936 1085.35 36.4419 Q1081.99 40.2903 1081.99 46.9338 L1081.99 72.576 L1074.49 72.576 L1074.49 45.4349 Q1074.49 38.8725 1072.18 35.7533 Q1069.87 32.5936 1065.05 32.5936 Q1059.34 32.5936 1055.98 36.4824 Q1052.62 40.3308 1052.62 46.9338 L1052.62 72.576 L1045.12 72.576 L1045.12 27.2059 L1052.62 27.2059 L1052.62 34.2544 Q1055.17 30.082 1058.73 28.0971 Q1062.3 26.1121 1067.2 26.1121 Q1072.14 26.1121 1075.59 28.6237 Q1079.07 31.1352 1080.73 35.9153 Z" fill="#000000" fill-rule="nonzero" fill-opacity="1" /><path clip-path="url(#clip890)" d="M1126.22 27.2059 L1133.68 27.2059 L1133.68 72.576 L1126.22 72.576 L1126.22 27.2059 M1126.22 9.54393 L1133.68 9.54393 L1133.68 18.9825 L1126.22 18.9825 L1126.22 9.54393 Z" fill="#000000" fill-rule="nonzero" fill-opacity="1" /><path clip-path="url(#clip890)" d="M1149.27 9.54393 L1156.73 9.54393 L1156.73 72.576 L1149.27 72.576 L1149.27 9.54393 Z" fill="#000000" fill-rule="nonzero" fill-opacity="1" /><path clip-path="url(#clip890)" d="M1192.94 49.7694 Q1183.91 49.7694 1180.42 51.8354 Q1176.94 53.9013 1176.94 58.8839 Q1176.94 62.8538 1179.53 65.2034 Q1182.17 67.5124 1186.66 67.5124 Q1192.86 67.5124 1196.59 63.1374 Q1200.35 58.7219 1200.35 51.4303 L1200.35 49.7694 L1192.94 49.7694 M1207.81 46.6907 L1207.81 72.576 L1200.35 72.576 L1200.35 65.6895 Q1197.8 69.8214 1193.99 71.8063 Q1190.19 73.7508 1184.68 73.7508 Q1177.71 73.7508 1173.58 69.8619 Q1169.49 65.9325 1169.49 59.3701 Q1169.49 51.7138 1174.59 47.825 Q1179.73 43.9361 1189.9 43.9361 L1200.35 43.9361 L1200.35 43.2069 Q1200.35 38.0623 1196.95 35.2672 Q1193.59 32.4315 1187.47 32.4315 Q1183.58 32.4315 1179.9 33.3632 Q1176.21 34.295 1172.81 36.1584 L1172.81 29.2718 Q1176.9 27.692 1180.75 26.9223 Q1184.6 26.1121 1188.24 26.1121 Q1198.09 26.1121 1202.95 31.2163 Q1207.81 36.3204 1207.81 46.6907 Z" fill="#000000" fill-rule="nonzero" fill-opacity="1" /><path clip-path="url(#clip890)" d="M1249.45 34.1734 Q1248.19 33.4443 1246.7 33.1202 Q1245.24 32.7556 1243.46 32.7556 Q1237.14 32.7556 1233.73 36.8875 Q1230.37 40.9789 1230.37 48.6757 L1230.37 72.576 L1222.88 72.576 L1222.88 27.2059 L1230.37 27.2059 L1230.37 34.2544 Q1232.72 30.1225 1236.49 28.1376 Q1240.26 26.1121 1245.64 26.1121 Q1246.41 26.1121 1247.34 26.2337 Q1248.28 26.3147 1249.41 26.5172 L1249.45 34.1734 Z" fill="#000000" fill-rule="nonzero" fill-opacity="1" /><path clip-path="url(#clip890)" d="M1257.27 27.2059 L1264.72 27.2059 L1264.72 72.576 L1257.27 72.576 L1257.27 27.2059 M1257.27 9.54393 L1264.72 9.54393 L1264.72 18.9825 L1257.27 18.9825 L1257.27 9.54393 Z" fill="#000000" fill-rule="nonzero" fill-opacity="1" /><path clip-path="url(#clip890)" d="M1287.69 14.324 L1287.69 27.2059 L1303.04 27.2059 L1303.04 32.9987 L1287.69 32.9987 L1287.69 57.6282 Q1287.69 63.1779 1289.19 64.7578 Q1290.73 66.3376 1295.39 66.3376 L1303.04 66.3376 L1303.04 72.576 L1295.39 72.576 Q1286.76 72.576 1283.48 69.3758 Q1280.2 66.1351 1280.2 57.6282 L1280.2 32.9987 L1274.73 32.9987 L1274.73 27.2059 L1280.2 27.2059 L1280.2 14.324 L1287.69 14.324 Z" fill="#000000" fill-rule="nonzero" fill-opacity="1" /><path clip-path="url(#clip890)" d="M1312.85 27.2059 L1320.3 27.2059 L1320.3 72.576 L1312.85 72.576 L1312.85 27.2059 M1312.85 9.54393 L1320.3 9.54393 L1320.3 18.9825 L1312.85 18.9825 L1312.85 9.54393 Z" fill="#000000" fill-rule="nonzero" fill-opacity="1" /><path clip-path="url(#clip890)" d="M1374.7 48.0275 L1374.7 51.6733 L1340.43 51.6733 Q1340.92 59.3701 1345.05 63.421 Q1349.22 67.4314 1356.64 67.4314 Q1360.93 67.4314 1364.94 66.3781 Q1368.99 65.3249 1372.96 63.2184 L1372.96 70.267 Q1368.95 71.9684 1364.74 72.8596 Q1360.53 73.7508 1356.19 73.7508 Q1345.34 73.7508 1338.98 67.4314 Q1332.66 61.1119 1332.66 50.3365 Q1332.66 39.1965 1338.65 32.6746 Q1344.69 26.1121 1354.9 26.1121 Q1364.05 26.1121 1369.36 32.0264 Q1374.7 37.9003 1374.7 48.0275 M1367.25 45.84 Q1367.17 39.7232 1363.81 36.0774 Q1360.49 32.4315 1354.98 32.4315 Q1348.74 32.4315 1344.97 35.9558 Q1341.24 39.4801 1340.68 45.8805 L1367.25 45.84 Z" fill="#000000" fill-rule="nonzero" fill-opacity="1" /><path clip-path="url(#clip890)" d="M1415.86 28.5427 L1415.86 35.5912 Q1412.7 33.9709 1409.3 33.1607 Q1405.9 32.3505 1402.25 32.3505 Q1396.7 32.3505 1393.91 34.0519 Q1391.15 35.7533 1391.15 39.156 Q1391.15 41.7486 1393.14 43.2475 Q1395.12 44.7058 1401.12 46.0426 L1403.67 46.6097 Q1411.61 48.3111 1414.93 51.4303 Q1418.29 54.509 1418.29 60.0587 Q1418.29 66.3781 1413.27 70.0644 Q1408.29 73.7508 1399.54 73.7508 Q1395.89 73.7508 1391.92 73.0216 Q1387.99 72.3329 1383.62 70.9151 L1383.62 63.2184 Q1387.75 65.3654 1391.76 66.4591 Q1395.77 67.5124 1399.7 67.5124 Q1404.96 67.5124 1407.8 65.73 Q1410.64 63.9071 1410.64 60.6258 Q1410.64 57.5877 1408.57 55.9673 Q1406.54 54.3469 1399.62 52.8481 L1397.03 52.2405 Q1390.1 50.7821 1387.02 47.7845 Q1383.94 44.7463 1383.94 39.4801 Q1383.94 33.0797 1388.48 29.5959 Q1393.01 26.1121 1401.36 26.1121 Q1405.49 26.1121 1409.14 26.7198 Q1412.78 27.3274 1415.86 28.5427 Z" fill="#000000" fill-rule="nonzero" fill-opacity="1" /><path clip-path="url(#clip890)" d="M1489.18 28.9478 L1489.18 35.9153 Q1486.02 34.1734 1482.82 33.3227 Q1479.66 32.4315 1476.42 32.4315 Q1469.17 32.4315 1465.16 37.0496 Q1461.15 41.6271 1461.15 49.9314 Q1461.15 58.2358 1465.16 62.8538 Q1469.17 67.4314 1476.42 67.4314 Q1479.66 67.4314 1482.82 66.5807 Q1486.02 65.6895 1489.18 63.9476 L1489.18 70.8341 Q1486.06 72.2924 1482.7 73.0216 Q1479.38 73.7508 1475.61 73.7508 Q1465.36 73.7508 1459.33 67.3098 Q1453.29 60.8689 1453.29 49.9314 Q1453.29 38.832 1459.37 32.472 Q1465.49 26.1121 1476.1 26.1121 Q1479.54 26.1121 1482.82 26.8413 Q1486.1 27.5299 1489.18 28.9478 Z" fill="#000000" fill-rule="nonzero" fill-opacity="1" /><path clip-path="url(#clip890)" d="M1540.95 48.0275 L1540.95 51.6733 L1506.68 51.6733 Q1507.17 59.3701 1511.3 63.421 Q1515.47 67.4314 1522.89 67.4314 Q1527.18 67.4314 1531.19 66.3781 Q1535.24 65.3249 1539.21 63.2184 L1539.21 70.267 Q1535.2 71.9684 1530.99 72.8596 Q1526.78 73.7508 1522.44 73.7508 Q1511.58 73.7508 1505.22 67.4314 Q1498.91 61.1119 1498.91 50.3365 Q1498.91 39.1965 1504.9 32.6746 Q1510.94 26.1121 1521.14 26.1121 Q1530.3 26.1121 1535.61 32.0264 Q1540.95 37.9003 1540.95 48.0275 M1533.5 45.84 Q1533.42 39.7232 1530.06 36.0774 Q1526.74 32.4315 1521.23 32.4315 Q1514.99 32.4315 1511.22 35.9558 Q1507.49 39.4801 1506.93 45.8805 L1533.5 45.84 Z" fill="#000000" fill-rule="nonzero" fill-opacity="1" /><path clip-path="url(#clip890)" d="M1553.19 9.54393 L1560.64 9.54393 L1560.64 72.576 L1553.19 72.576 L1553.19 9.54393 Z" fill="#000000" fill-rule="nonzero" fill-opacity="1" /><path clip-path="url(#clip890)" d="M1576.24 9.54393 L1583.69 9.54393 L1583.69 72.576 L1576.24 72.576 L1576.24 9.54393 Z" fill="#000000" fill-rule="nonzero" fill-opacity="1" /><path clip-path="url(#clip890)" d="M1651.5 39.9662 Q1657.38 41.222 1660.66 45.1919 Q1663.98 49.1618 1663.98 54.9951 Q1663.98 63.9476 1657.82 68.8492 Q1651.67 73.7508 1640.32 73.7508 Q1636.51 73.7508 1632.46 72.9811 Q1628.45 72.2519 1624.16 70.7531 L1624.16 62.8538 Q1627.56 64.8388 1631.61 65.8515 Q1635.66 66.8642 1640.08 66.8642 Q1647.78 66.8642 1651.79 63.826 Q1655.84 60.7879 1655.84 54.9951 Q1655.84 49.6479 1652.07 46.6502 Q1648.34 43.612 1641.66 43.612 L1634.61 43.612 L1634.61 36.8875 L1641.98 36.8875 Q1648.02 36.8875 1651.22 34.4975 Q1654.42 32.067 1654.42 27.5299 Q1654.42 22.8714 1651.1 20.4004 Q1647.82 17.8888 1641.66 17.8888 Q1638.3 17.8888 1634.45 18.618 Q1630.6 19.3471 1625.98 20.8865 L1625.98 13.5948 Q1630.64 12.2985 1634.69 11.6504 Q1638.78 11.0023 1642.39 11.0023 Q1651.71 11.0023 1657.13 15.2557 Q1662.56 19.4686 1662.56 26.6793 Q1662.56 31.7024 1659.69 35.1862 Q1656.81 38.6294 1651.5 39.9662 Z" fill="#000000" fill-rule="nonzero" fill-opacity="1" /><path clip-path="url(#clip890)" d="M1679.58 12.096 L1711.7 12.096 L1711.7 18.9825 L1687.07 18.9825 L1687.07 33.8088 Q1688.85 33.2012 1690.63 32.9176 Q1692.42 32.5936 1694.2 32.5936 Q1704.33 32.5936 1710.24 38.1433 Q1716.16 43.6931 1716.16 53.1722 Q1716.16 62.9348 1710.08 68.3631 Q1704 73.7508 1692.94 73.7508 Q1689.14 73.7508 1685.17 73.1026 Q1681.24 72.4545 1677.02 71.1582 L1677.02 62.9348 Q1680.67 64.9198 1684.56 65.892 Q1688.45 66.8642 1692.78 66.8642 Q1699.79 66.8642 1703.88 63.1779 Q1707.97 59.4916 1707.97 53.1722 Q1707.97 46.8528 1703.88 43.1664 Q1699.79 39.4801 1692.78 39.4801 Q1689.5 39.4801 1686.22 40.2093 Q1682.98 40.9384 1679.58 42.4778 L1679.58 12.096 Z" fill="#000000" fill-rule="nonzero" fill-opacity="1" /><path clip-path="url(#clip890)" d="M1749.78 17.4837 Q1743.46 17.4837 1740.26 23.7221 Q1737.1 29.92 1737.1 42.3968 Q1737.1 54.833 1740.26 61.0714 Q1743.46 67.2693 1749.78 67.2693 Q1756.14 67.2693 1759.3 61.0714 Q1762.5 54.833 1762.5 42.3968 Q1762.5 29.92 1759.3 23.7221 Q1756.14 17.4837 1749.78 17.4837 M1749.78 11.0023 Q1759.95 11.0023 1765.29 19.0636 Q1770.68 27.0843 1770.68 42.3968 Q1770.68 57.6687 1765.29 65.73 Q1759.95 73.7508 1749.78 73.7508 Q1739.61 73.7508 1734.22 65.73 Q1728.88 57.6687 1728.88 42.3968 Q1728.88 27.0843 1734.22 19.0636 Q1739.61 11.0023 1749.78 11.0023 Z" fill="#000000" fill-rule="nonzero" fill-opacity="1" /><path clip-path="url(#clip890)" d="M1810.38 27.2059 L1817.83 27.2059 L1817.83 72.576 L1810.38 72.576 L1810.38 27.2059 M1810.38 9.54393 L1817.83 9.54393 L1817.83 18.9825 L1810.38 18.9825 L1810.38 9.54393 Z" fill="#000000" fill-rule="nonzero" fill-opacity="1" /><path clip-path="url(#clip890)" d="M1840.8 14.324 L1840.8 27.2059 L1856.15 27.2059 L1856.15 32.9987 L1840.8 32.9987 L1840.8 57.6282 Q1840.8 63.1779 1842.3 64.7578 Q1843.84 66.3376 1848.5 66.3376 L1856.15 66.3376 L1856.15 72.576 L1848.5 72.576 Q1839.87 72.576 1836.59 69.3758 Q1833.31 66.1351 1833.31 57.6282 L1833.31 32.9987 L1827.84 32.9987 L1827.84 27.2059 L1833.31 27.2059 L1833.31 14.324 L1840.8 14.324 Z" fill="#000000" fill-rule="nonzero" fill-opacity="1" /><path clip-path="url(#clip890)" d="M1904.77 48.0275 L1904.77 51.6733 L1870.49 51.6733 Q1870.98 59.3701 1875.11 63.421 Q1879.29 67.4314 1886.7 67.4314 Q1890.99 67.4314 1895 66.3781 Q1899.05 65.3249 1903.02 63.2184 L1903.02 70.267 Q1899.01 71.9684 1894.8 72.8596 Q1890.59 73.7508 1886.25 73.7508 Q1875.4 73.7508 1869.04 67.4314 Q1862.72 61.1119 1862.72 50.3365 Q1862.72 39.1965 1868.71 32.6746 Q1874.75 26.1121 1884.96 26.1121 Q1894.11 26.1121 1899.42 32.0264 Q1904.77 37.9003 1904.77 48.0275 M1897.31 45.84 Q1897.23 39.7232 1893.87 36.0774 Q1890.55 32.4315 1885.04 32.4315 Q1878.8 32.4315 1875.03 35.9558 Q1871.31 39.4801 1870.74 45.8805 L1897.31 45.84 Z" fill="#000000" fill-rule="nonzero" fill-opacity="1" /><path clip-path="url(#clip890)" d="M1943.29 34.1734 Q1942.03 33.4443 1940.54 33.1202 Q1939.08 32.7556 1937.29 32.7556 Q1930.97 32.7556 1927.57 36.8875 Q1924.21 40.9789 1924.21 48.6757 L1924.21 72.576 L1916.72 72.576 L1916.72 27.2059 L1924.21 27.2059 L1924.21 34.2544 Q1926.56 30.1225 1930.33 28.1376 Q1934.09 26.1121 1939.48 26.1121 Q1940.25 26.1121 1941.18 26.2337 Q1942.11 26.3147 1943.25 26.5172 L1943.29 34.1734 Z" fill="#000000" fill-rule="nonzero" fill-opacity="1" /><path clip-path="url(#clip890)" d="M1971.73 49.7694 Q1962.69 49.7694 1959.21 51.8354 Q1955.73 53.9013 1955.73 58.8839 Q1955.73 62.8538 1958.32 65.2034 Q1960.95 67.5124 1965.45 67.5124 Q1971.65 67.5124 1975.37 63.1374 Q1979.14 58.7219 1979.14 51.4303 L1979.14 49.7694 L1971.73 49.7694 M1986.59 46.6907 L1986.59 72.576 L1979.14 72.576 L1979.14 65.6895 Q1976.59 69.8214 1972.78 71.8063 Q1968.97 73.7508 1963.46 73.7508 Q1956.5 73.7508 1952.36 69.8619 Q1948.27 65.9325 1948.27 59.3701 Q1948.27 51.7138 1953.38 47.825 Q1958.52 43.9361 1968.69 43.9361 L1979.14 43.9361 L1979.14 43.2069 Q1979.14 38.0623 1975.74 35.2672 Q1972.38 32.4315 1966.26 32.4315 Q1962.37 32.4315 1958.68 33.3632 Q1955 34.295 1951.59 36.1584 L1951.59 29.2718 Q1955.69 27.692 1959.53 26.9223 Q1963.38 26.1121 1967.03 26.1121 Q1976.87 26.1121 1981.73 31.2163 Q1986.59 36.3204 1986.59 46.6907 Z" fill="#000000" fill-rule="nonzero" fill-opacity="1" /><path clip-path="url(#clip890)" d="M2009.32 14.324 L2009.32 27.2059 L2024.67 27.2059 L2024.67 32.9987 L2009.32 32.9987 L2009.32 57.6282 Q2009.32 63.1779 2010.82 64.7578 Q2012.36 66.3376 2017.02 66.3376 L2024.67 66.3376 L2024.67 72.576 L2017.02 72.576 Q2008.39 72.576 2005.11 69.3758 Q2001.83 66.1351 2001.83 57.6282 L2001.83 32.9987 L1996.36 32.9987 L1996.36 27.2059 L2001.83 27.2059 L2001.83 14.324 L2009.32 14.324 Z" fill="#000000" fill-rule="nonzero" fill-opacity="1" /><path clip-path="url(#clip890)" d="M2034.48 27.2059 L2041.93 27.2059 L2041.93 72.576 L2034.48 72.576 L2034.48 27.2059 M2034.48 9.54393 L2041.93 9.54393 L2041.93 18.9825 L2034.48 18.9825 L2034.48 9.54393 Z" fill="#000000" fill-rule="nonzero" fill-opacity="1" /><path clip-path="url(#clip890)" d="M2075.11 32.4315 Q2069.11 32.4315 2065.63 37.1306 Q2062.14 41.7891 2062.14 49.9314 Q2062.14 58.0738 2065.59 62.7728 Q2069.07 67.4314 2075.11 67.4314 Q2081.06 67.4314 2084.54 62.7323 Q2088.03 58.0333 2088.03 49.9314 Q2088.03 41.8701 2084.54 37.1711 Q2081.06 32.4315 2075.11 32.4315 M2075.11 26.1121 Q2084.83 26.1121 2090.38 32.4315 Q2095.93 38.7509 2095.93 49.9314 Q2095.93 61.0714 2090.38 67.4314 Q2084.83 73.7508 2075.11 73.7508 Q2065.34 73.7508 2059.79 67.4314 Q2054.28 61.0714 2054.28 49.9314 Q2054.28 38.7509 2059.79 32.4315 Q2065.34 26.1121 2075.11 26.1121 Z" fill="#000000" fill-rule="nonzero" fill-opacity="1" /><path clip-path="url(#clip890)" d="M2146 45.1919 L2146 72.576 L2138.54 72.576 L2138.54 45.4349 Q2138.54 38.994 2136.03 35.7938 Q2133.52 32.5936 2128.5 32.5936 Q2122.46 32.5936 2118.98 36.4419 Q2115.49 40.2903 2115.49 46.9338 L2115.49 72.576 L2108 72.576 L2108 27.2059 L2115.49 27.2059 L2115.49 34.2544 Q2118.17 30.163 2121.77 28.1376 Q2125.42 26.1121 2130.16 26.1121 Q2137.98 26.1121 2141.99 30.9732 Q2146 35.7938 2146 45.1919 Z" fill="#000000" fill-rule="nonzero" fill-opacity="1" /><path clip-path="url(#clip890)" d="M2188.37 12.096 L2220.49 12.096 L2220.49 18.9825 L2195.86 18.9825 L2195.86 33.8088 Q2197.65 33.2012 2199.43 32.9176 Q2201.21 32.5936 2202.99 32.5936 Q2213.12 32.5936 2219.03 38.1433 Q2224.95 43.6931 2224.95 53.1722 Q2224.95 62.9348 2218.87 68.3631 Q2212.8 73.7508 2201.74 73.7508 Q2197.93 73.7508 2193.96 73.1026 Q2190.03 72.4545 2185.82 71.1582 L2185.82 62.9348 Q2189.46 64.9198 2193.35 65.892 Q2197.24 66.8642 2201.58 66.8642 Q2208.58 66.8642 2212.67 63.1779 Q2216.77 59.4916 2216.77 53.1722 Q2216.77 46.8528 2212.67 43.1664 Q2208.58 39.4801 2201.58 39.4801 Q2198.29 39.4801 2195.01 40.2093 Q2191.77 40.9384 2188.37 42.4778 L2188.37 12.096 Z" fill="#000000" fill-rule="nonzero" fill-opacity="1" /><polyline clip-path="url(#clip892)" style="stroke:#009af9; stroke-linecap:round; stroke-linejoin:round; stroke-width:4; stroke-opacity:1; fill:none" points="315.545,1386.4 317.525,1378.37 319.505,1344.87 321.484,1341.84 323.464,1333.94 325.444,1329.19 327.424,1325.8 329.404,1316.04 331.384,1310.34 333.364,1304.43 335.343,1285.82 337.323,1277.62 339.303,1270.53 341.283,1267.63 343.263,1264.63 345.243,1260.75 347.223,1259.79 349.202,1259.12 351.182,1251.26 353.162,1242.66 355.142,1240.96 357.122,1239.21 359.102,1237.73 361.082,1237.08 363.061,1236.1 365.041,1235.36 367.021,1235.34 369.001,1234.1 370.981,1233.49 372.961,1233.25 374.941,1229.28 376.92,1228.95 378.9,1228.74 380.88,1226.2 382.86,1225.07 384.84,1224.21 386.82,1223.87 388.8,1223.5 390.779,1217.98 392.759,1217.32 394.739,1214.88 396.719,1214.7 398.699,1214.08 400.679,1213.72 402.659,1213.34 404.638,1213 406.618,1212.16 408.598,1210.17 410.578,1209.69 412.558,1208.41 414.538,1208.09 416.517,1205.62 418.497,1204.37 420.477,1204.22 422.457,1203.33 424.437,1202.32 426.417,1199.5 428.397,1199.31 430.376,1198.28 432.356,1197.3 434.336,1196.28 436.316,1195.63 438.296,1194.96 440.276,1194.11 442.256,1193.66 444.235,1193.58 446.215,1192.53 448.195,1192.44 450.175,1192.4 452.155,1187.91 454.135,1187.52 456.115,1186.51 458.094,1186.04 460.074,1185.62 462.054,1183.85 464.034,1183.28 466.014,1183.01 467.994,1182.64 469.974,1182.15 471.953,1182 473.933,1181.6 475.913,1181.07 477.893,1180.85 479.873,1180.23 481.853,1178.4 483.833,1178.01 485.812,1177.83 487.792,1176.58 489.772,1176.48 491.752,1172.06 493.732,1171.91 495.712,1167.66 497.692,1167.42 499.671,1166.54 501.651,1166.34 503.631,1165.15 505.611,1163.53 507.591,1162.96 509.571,1162.79 511.551,1162.69 513.53,1162.68 515.51,1161.32 517.49,1160.95 519.47,1160.63 521.45,1159.78 523.43,1159.62 525.409,1158.46 527.389,1158.42 529.369,1157.93 531.349,1157.83 533.329,1157.78 535.309,1157.11 537.289,1157.04 539.268,1156.51 541.248,1155.27 543.228,1154.63 545.208,1154.58 547.188,1154 549.168,1152.56 551.148,1151.93 553.127,1151.66 555.107,1148.82 557.087,1148.09 559.067,1147.08 561.047,1147.06 563.027,1146.7 565.007,1146.56 566.986,1145.12 568.966,1145.02 570.946,1145.01 572.926,1144 574.906,1143.58 576.886,1143.26 578.866,1143.04 580.845,1141.77 582.825,1141.28 584.805,1141.09 586.785,1139.71 588.765,1139.12 590.745,1139.11 592.725,1139.04 594.704,1138.62 596.684,1138.11 598.664,1137.83 600.644,1136.61 602.624,1135.29 604.604,1133.96 606.584,1133.59 608.563,1132.83 610.543,1132.55 612.523,1132.55 614.503,1131.82 616.483,1131.69 618.463,1131.39 620.443,1130.67 622.422,1130.54 624.402,1129.23 626.382,1128.76 628.362,1127.78 630.342,1127.32 632.322,1126.55 634.301,1125.62 636.281,1125.37 638.261,1124.94 640.241,1124.62 642.221,1124.46 644.201,1123.93 646.181,1123.7 648.16,1123.18 650.14,1123.03 652.12,1122.62 654.1,1122.59 656.08,1122.59 658.06,1122.33 660.04,1122.25 662.019,1122.19 663.999,1122.05 665.979,1122.01 667.959,1121.34 669.939,1121.11 671.919,1121.05 673.899,1120 675.878,1119 677.858,1118.92 679.838,1118.71 681.818,1118.58 683.798,1118.49 685.778,1118.41 687.758,1118.14 689.737,1117.83 691.717,1117.79 693.697,1117.77 695.677,1117.61 697.657,1117.4 699.637,1115.78 701.617,1115.59 703.596,1115.26 705.576,1114.04 707.556,1113.38 709.536,1113.26 711.516,1112.79 713.496,1112.17 715.476,1111.52 717.455,1111.35 719.435,1111.28 721.415,1110.77 723.395,1110.52 725.375,1109.66 727.355,1109.46 729.335,1109.26 731.314,1109.06 733.294,1108.8 735.274,1108.1 737.254,1107.73 739.234,1107.06 741.214,1106.94 743.194,1106.57 745.173,1105.67 747.153,1105.09 749.133,1104.69 751.113,1104.66 753.093,1104.3 755.073,1104.26 757.052,1103.88 759.032,1103.55 761.012,1103.19 762.992,1103.16 764.972,1101.79 766.952,1101.41 768.932,1099.65 770.911,1099.37 772.891,1099.2 774.871,1098.55 776.851,1097.94 778.831,1097.69 780.811,1097.57 782.791,1097.11 784.77,1096.76 786.75,1096.66 788.73,1096.63 790.71,1096.62 792.69,1096.47 794.67,1096.23 796.65,1096.04 798.629,1095.33 800.609,1094.95 802.589,1094.18 804.569,1093.64 806.549,1093.27 808.529,1093.18 810.509,1093.03 812.488,1092.57 814.468,1092.09 816.448,1091.47 818.428,1091.14 820.408,1089.92 822.388,1089.18 824.368,1089.1 826.347,1089.03 828.327,1089.01 830.307,1087.11 832.287,1087.05 834.267,1086.58 836.247,1086.07 838.227,1084.99 840.206,1084.22 842.186,1083.97 844.166,1083.05 846.146,1082.99 848.126,1082.91 850.106,1082.83 852.086,1082.66 854.065,1082.2 856.045,1082.03 858.025,1081.91 860.005,1081.8 861.985,1080.85 863.965,1080.84 865.944,1080.81 867.924,1080.29 869.904,1080.08 871.884,1078.97 873.864,1077.28 875.844,1076.37 877.824,1076.16 879.803,1075.7 881.783,1074.7 883.763,1073.22 885.743,1073.18 887.723,1073.13 889.703,1072.58 891.683,1072.09 893.662,1072.05 895.642,1071.45 897.622,1070.96 899.602,1069.73 901.582,1069.21 903.562,1069.19 905.542,1068 907.521,1067.94 909.501,1067.87 911.481,1067.86 913.461,1067.28 915.441,1065.65 917.421,1065.47 919.401,1064.66 921.38,1064.65 923.36,1063.88 925.34,1063.82 927.32,1063.64 929.3,1063.13 931.28,1062.06 933.26,1061.75 935.239,1061.67 937.219,1061.37 939.199,1059.3 941.179,1059.06 943.159,1058.74 945.139,1057.62 947.119,1057.58 949.098,1056.29 951.078,1055.89 953.058,1055.24 955.038,1055.2 957.018,1053.03 958.998,1052.71 960.978,1052.21 962.957,1050.97 964.937,1050.87 966.917,1050.69 968.897,1050.37 970.877,1050 972.857,1049.9 974.836,1049.74 976.816,1049.58 978.796,1049 980.776,1048.88 982.756,1048.47 984.736,1048.15 986.716,1047.6 988.695,1046.79 990.675,1046.57 992.655,1046.36 994.635,1046.31 996.615,1045.74 998.595,1045.56 1000.57,1045.27 1002.55,1045.18 1004.53,1044.64 1006.51,1044.14 1008.49,1044.07 1010.47,1044.02 1012.45,1043.89 1014.43,1043.75 1016.41,1043.68 1018.39,1043.61 1020.37,1043.61 1022.35,1043.51 1024.33,1043.43 1026.31,1043.35 1028.29,1043.05 1030.27,1042.98 1032.25,1042.64 1034.23,1042.32 1036.21,1041.71 1038.19,1041.69 1040.17,1041.57 1042.15,1041.26 1044.13,1041 1046.11,1039.86 1048.09,1039.39 1050.07,1039.07 1052.05,1038.91 1054.03,1038.29 1056.01,1038.19 1057.99,1036.81 1059.97,1036.68 1061.95,1036.5 1063.93,1035.9 1065.91,1035.65 1067.89,1035.08 1069.87,1034.63 1071.85,1034.01 1073.83,1033.87 1075.81,1033.51 1077.79,1033.46 1079.77,1032.44 1081.75,1031.26 1083.73,1029.49 1085.71,1029.4 1087.69,1029.36 1089.67,1028.4 1091.65,1026.53 1093.63,1026.27 1095.61,1026.1 1097.59,1025.98 1099.57,1025.33 1101.55,1024.58 1103.53,1024.47 1105.51,1024.11 1107.49,1023.83 1109.47,1023.01 1111.45,1021.38 1113.43,1021.1 1115.41,1019.68 1117.39,1018.61 1119.37,1018.4 1121.35,1018.04 1123.33,1017.85 1125.31,1017.65 1127.29,1017.32 1129.27,1016.36 1131.25,1016.31 1133.22,1015.72 1135.2,1015.69 1137.18,1015.5 1139.16,1014.93 1141.14,1013.64 1143.12,1013.62 1145.1,1012.6 1147.08,1011.72 1149.06,1010.13 1151.04,1009.79 1153.02,1008.18 1155,1007.28 1156.98,1006.99 1158.96,1006.77 1160.94,1005.73 1162.92,1005.71 1164.9,1004.02 1166.88,1003.3 1168.86,1002.59 1170.84,1001.98 1172.82,1001.96 1174.8,1001.43 1176.78,1001.43 1178.76,998.438 1180.74,996.389 1182.72,995.734 1184.7,994.548 1186.68,994.343 1188.66,993.562 1190.64,993.404 1192.62,990.322 1194.6,990.244 1196.58,989.642 1198.56,985.262 1200.54,983.802 1202.52,983.038 1204.5,982.785 1206.48,980.069 1208.46,979.594 1210.44,979.574 1212.42,978.552 1214.4,976.435 1216.38,975.817 1218.36,974.896 1220.34,973.812 1222.32,973.385 1224.3,967.136 1226.28,966.411 1228.26,965.358 1230.24,959.944 1232.22,956.902 1234.2,956.297 1236.18,953.724 1238.16,950.264 1240.14,949.455 1242.12,948.403 1244.1,946.391 1246.08,945.484 1248.06,944.843 1250.04,944.626 1252.02,944.218 1254,943.825 1255.98,943.083 1257.96,941.209 1259.94,940.877 1261.92,938.191 1263.9,936.25 1265.88,934.217 1267.85,933.81 1269.83,933.749 1271.81,931.697 1273.79,928.352 1275.77,927.178 1277.75,921.931 1279.73,920.351 1281.71,920.329 1283.69,917.69 1285.67,916.001 1287.65,914.91 1289.63,912.04 1291.61,909.739 1293.59,909.419 1295.57,908.004 1297.55,904.171 1299.53,903.833 1301.51,903.502 1303.49,903.426 1305.47,901.163 1307.45,901.097 1309.43,897.717 1311.41,894.489 1313.39,891.428 1315.37,890.805 1317.35,889.247 1319.33,888.751 1321.31,887.966 1323.29,887.682 1325.27,886.381 1327.25,884.787 1329.23,882.965 1331.21,881.645 1333.19,880.828 1335.17,880.251 1337.15,878.381 1339.13,875.09 1341.11,874.869 1343.09,873.685 1345.07,867.277 1347.05,865.279 1349.03,864.07 1351.01,859.852 1352.99,859.598 1354.97,859.297 1356.95,857.912 1358.93,857.723 1360.91,855.452 1362.89,853.187 1364.87,852.83 1366.85,850.872 1368.83,850.254 1370.81,849.863 1372.79,846.519 1374.77,846.091 1376.75,844.834 1378.73,844.289 1380.71,841.722 1382.69,836.751 1384.67,836.627 1386.65,836.045 1388.63,835.364 1390.61,835.333 1392.59,835.083 1394.57,834.202 1396.55,832.853 1398.53,832.24 1400.51,827.819 1402.49,826.811 1404.46,826.321 1406.44,824.839 1408.42,824.346 1410.4,821.222 1412.38,818.614 1414.36,817.585 1416.34,817.133 1418.32,816.666 1420.3,815.376 1422.28,814.824 1424.26,814.058 1426.24,813.748 1428.22,813.689 1430.2,813.642 1432.18,811.915 1434.16,810.894 1436.14,810.216 1438.12,809.808 1440.1,809.68 1442.08,808.91 1444.06,808.737 1446.04,808.668 1448.02,808.461 1450,808.452 1451.98,807.369 1453.96,807.103 1455.94,805.617 1457.92,805.168 1459.9,804.846 1461.88,804.271 1463.86,803.205 1465.84,802.535 1467.82,801.902 1469.8,801.797 1471.78,801.577 1473.76,801.476 1475.74,801.435 1477.72,799.916 1479.7,799.107 1481.68,797.28 1483.66,796.344 1485.64,796.172 1487.62,795.969 1489.6,795.706 1491.58,795.498 1493.56,795.488 1495.54,793.699 1497.52,792.075 1499.5,791.877 1501.48,789.202 1503.46,787.213 1505.44,784.775 1507.42,783.617 1509.4,783.202 1511.38,780.955 1513.36,778.854 1515.34,778.542 1517.32,776.455 1519.3,776.079 1521.28,775.671 1523.26,775.395 1525.24,773.65 1527.22,772.986 1529.2,772.614 1531.18,772.255 1533.16,771.794 1535.14,771.673 1537.12,769.263 1539.1,768.932 1541.07,767.438 1543.05,767.308 1545.03,767.186 1547.01,766.996 1548.99,766.726 1550.97,766.376 1552.95,766.349 1554.93,765.434 1556.91,764.933 1558.89,764.924 1560.87,764.563 1562.85,764.248 1564.83,763.569 1566.81,763.463 1568.79,761.966 1570.77,761.903 1572.75,759.83 1574.73,758.542 1576.71,758.475 1578.69,756.965 1580.67,756.958 1582.65,756.01 1584.63,755.541 1586.61,755.493 1588.59,755.283 1590.57,754.712 1592.55,754.246 1594.53,753.79 1596.51,751.256 1598.49,749.375 1600.47,748.514 1602.45,748.162 1604.43,747.387 1606.41,745.789 1608.39,745.75 1610.37,745.729 1612.35,745.247 1614.33,745.143 1616.31,744.841 1618.29,743.709 1620.27,743.487 1622.25,742.747 1624.23,742.339 1626.21,740.923 1628.19,740.724 1630.17,739.351 1632.15,739.343 1634.13,738.52 1636.11,738.487 1638.09,737.564 1640.07,737.105 1642.05,735.907 1644.03,735.66 1646.01,735.506 1647.99,732.704 1649.97,732.535 1651.95,732.442 1653.93,732.38 1655.91,732.327 1657.89,731.287 1659.87,728.635 1661.85,727.858 1663.83,727.642 1665.81,727.523 1667.79,726.558 1669.77,726.12 1671.75,725.862 1673.73,725.671 1675.71,724.721 1677.68,724.007 1679.66,723.764 1681.64,721.677 1683.62,720.744 1685.6,720.22 1687.58,720.081 1689.56,719.947 1691.54,719.563 1693.52,719.541 1695.5,718.828 1697.48,718.093 1699.46,717.894 1701.44,717.284 1703.42,717.061 1705.4,716.584 1707.38,714.927 1709.36,713.91 1711.34,713.104 1713.32,712.897 1715.3,712.268 1717.28,711.515 1719.26,710.716 1721.24,709.853 1723.22,709.119 1725.2,709.061 1727.18,708.163 1729.16,708.109 1731.14,708.092 1733.12,705.809 1735.1,705.349 1737.08,704.948 1739.06,704.805 1741.04,704.227 1743.02,703.167 1745,701.822 1746.98,701.437 1748.96,699.733 1750.94,698.952 1752.92,698.933 1754.9,697.849 1756.88,697.568 1758.86,697.536 1760.84,696.24 1762.82,695.338 1764.8,695.289 1766.78,694.527 1768.76,693.921 1770.74,692.719 1772.72,692.362 1774.7,692.299 1776.68,691.236 1778.66,688.179 1780.64,686.219 1782.62,685.957 1784.6,685.336 1786.58,683.65 1788.56,680.609 1790.54,679.501 1792.52,678.607 1794.5,675.956 1796.48,673.764 1798.46,673.612 1800.44,672.581 1802.42,669.995 1804.4,665.952 1806.38,662.384 1808.36,661.014 1810.34,659.373 1812.31,657.395 1814.29,653.295 1816.27,650.48 1818.25,649.702 1820.23,627.742 1822.21,622.816 1824.19,615.039 1826.17,614.643 1828.15,614.627 1830.13,611.524 1832.11,602.65 1834.09,594.052 1836.07,593.316 1838.05,583.702 1840.03,583.61 1842.01,575.793 1843.99,575.426 1845.97,571.906 1847.95,569.312 1849.93,562.657 1851.91,561.367 1853.89,559.499 1855.87,559.266 1857.85,558.281 1859.83,557.277 1861.81,554.463 1863.79,552.449 1865.77,550.076 1867.75,549.401 1869.73,547.753 1871.71,543.856 1873.69,542.588 1875.67,540.338 1877.65,539.87 1879.63,538.267 1881.61,536.803 1883.59,535.641 1885.57,535.417 1887.55,535.356 1889.53,534.747 1891.51,533.188 1893.49,529.084 1895.47,528.317 1897.45,528.125 1899.43,527.692 1901.41,525.84 1903.39,521.913 1905.37,521.687 1907.35,521.624 1909.33,519.383 1911.31,516.566 1913.29,512.706 1915.27,511.497 1917.25,507.89 1919.23,506.792 1921.21,506.081 1923.19,504.457 1925.17,503.862 1927.15,503.638 1929.13,498.797 1931.11,498.498 1933.09,498.259 1935.07,497.065 1937.05,494.805 1939.03,494.722 1941.01,494.161 1942.99,492.208 1944.97,491.171 1946.95,490.801 1948.92,490.487 1950.9,487.278 1952.88,486.014 1954.86,484.261 1956.84,484.182 1958.82,483.872 1960.8,480.191 1962.78,479.82 1964.76,478.544 1966.74,477.746 1968.72,473.51 1970.7,470.18 1972.68,470.153 1974.66,470.093 1976.64,469.134 1978.62,468.997 1980.6,468.98 1982.58,468.21 1984.56,466.681 1986.54,466.626 1988.52,466.274 1990.5,465.855 1992.48,465.286 1994.46,463.381 1996.44,461.239 1998.42,459.88 2000.4,455.733 2002.38,454.686 2004.36,454.489 2006.34,453.466 2008.32,452.265 2010.3,452.113 2012.28,449.641 2014.26,448.745 2016.24,448.706 2018.22,447.567 2020.2,445.563 2022.18,444.908 2024.16,444.111 2026.14,443.414 2028.12,443.091 2030.1,442.573 2032.08,442.036 2034.06,441.933 2036.04,441.667 2038.02,437.453 2040,437.049 2041.98,434.235 2043.96,432.42 2045.94,431.51 2047.92,431.429 2049.9,431.18 2051.88,430.424 2053.86,429.991 2055.84,429.476 2057.82,429.396 2059.8,428.8 2061.78,428.205 2063.76,426.874 2065.74,426.128 2067.72,425.75 2069.7,425.432 2071.68,422.863 2073.66,419.498 2075.64,419.374 2077.62,416.329 2079.6,415.598 2081.58,415.329 2083.56,415.075 2085.53,413.457 2087.51,412.286 2089.49,411.654 2091.47,411.603 2093.45,411.469 2095.43,411.44 2097.41,405.779 2099.39,404.372 2101.37,400.415 2103.35,399.61 2105.33,399.271 2107.31,399.232 2109.29,398.736 2111.27,398.602 2113.25,397.479 2115.23,395.41 2117.21,395.114 2119.19,393.811 2121.17,393.155 2123.15,392.862 2125.13,392.511 2127.11,391.353 2129.09,386.636 2131.07,384.778 2133.05,384.532 2135.03,383.164 2137.01,382.548 2138.99,380.922 2140.97,379.849 2142.95,379.077 2144.93,378.554 2146.91,377.937 2148.89,377.627 2150.87,377.525 2152.85,377.214 2154.83,376.467 2156.81,375.193 2158.79,375.125 2160.77,373.011 2162.75,372.174 2164.73,371.974 2166.71,371.845 2168.69,371.71 2170.67,369.409 2172.65,368.81 2174.63,368.308 2176.61,368.045 2178.59,367.725 2180.57,366.774 2182.55,364.593 2184.53,364.395 2186.51,363.756 2188.49,358.543 2190.47,358.517 2192.45,356.565 2194.43,354.704 2196.41,351.828 2198.39,350.171 2200.37,347.715 2202.35,344.366 2204.33,344.365 2206.31,343.99 2208.29,341.998 2210.27,340.159 2212.25,339.733 2214.23,338.74 2216.21,338.442 2218.19,337.717 2220.17,334.464 2222.14,332.835 2224.12,332.667 2226.1,329.799 2228.08,324.138 2230.06,320.657 2232.04,314.126 2234.02,311.365 2236,307.999 2237.98,306.776 2239.96,305.885 2241.94,304.325 2243.92,304.157 2245.9,299.345 2247.88,298.813 2249.86,297.75 2251.84,297.673 2253.82,296.411 2255.8,295.782 2257.78,295.389 2259.76,295.013 2261.74,294.739 2263.72,287.043 2265.7,286.404 2267.68,283.004 2269.66,278.442 2271.64,275.261 2273.62,274.651 2275.6,270.699 2277.58,267.271 2279.56,263.886 2281.54,259.415 2283.52,256.513 2285.5,253.452 2287.48,226.771 2289.46,223.5 2291.44,196.68 2293.42,160.256 "/>
<path clip-path="url(#clip890)" d="M326.094 270.476 L755.354 270.476 L755.354 166.796 L326.094 166.796  Z" fill="#ffffff" fill-rule="evenodd" fill-opacity="1"/>
<polyline clip-path="url(#clip890)" style="stroke:#000000; stroke-linecap:round; stroke-linejoin:round; stroke-width:4; stroke-opacity:1; fill:none" points="326.094,270.476 755.354,270.476 755.354,166.796 326.094,166.796 326.094,270.476 "/>
<polyline clip-path="url(#clip890)" style="stroke:#009af9; stroke-linecap:round; stroke-linejoin:round; stroke-width:4; stroke-opacity:1; fill:none" points="349.389,218.636 489.158,218.636 "/>
<path clip-path="url(#clip890)" d="M534.699 202.49 L534.699 207.05 Q532.037 205.777 529.675 205.152 Q527.314 204.527 525.115 204.527 Q521.296 204.527 519.213 206.008 Q517.152 207.49 517.152 210.221 Q517.152 212.513 518.518 213.694 Q519.907 214.851 523.75 215.569 L526.574 216.147 Q531.805 217.143 534.282 219.666 Q536.782 222.166 536.782 226.379 Q536.782 231.402 533.402 233.994 Q530.046 236.587 523.541 236.587 Q521.088 236.587 518.31 236.031 Q515.555 235.476 512.592 234.388 L512.592 229.573 Q515.439 231.17 518.171 231.981 Q520.902 232.791 523.541 232.791 Q527.546 232.791 529.722 231.217 Q531.898 229.643 531.898 226.726 Q531.898 224.18 530.324 222.744 Q528.773 221.309 525.208 220.592 L522.361 220.036 Q517.129 218.995 514.791 216.772 Q512.453 214.55 512.453 210.592 Q512.453 206.008 515.671 203.37 Q518.912 200.731 524.583 200.731 Q527.013 200.731 529.537 201.171 Q532.06 201.61 534.699 202.49 Z" fill="#000000" fill-rule="nonzero" fill-opacity="1" /><path clip-path="url(#clip890)" d="M543.888 209.99 L548.148 209.99 L548.148 235.916 L543.888 235.916 L543.888 209.99 M543.888 199.897 L548.148 199.897 L548.148 205.291 L543.888 205.291 L543.888 199.897 Z" fill="#000000" fill-rule="nonzero" fill-opacity="1" /><path clip-path="url(#clip890)" d="M577.245 214.967 Q578.842 212.096 581.064 210.731 Q583.286 209.365 586.296 209.365 Q590.346 209.365 592.545 212.212 Q594.745 215.036 594.745 220.268 L594.745 235.916 L590.462 235.916 L590.462 220.407 Q590.462 216.68 589.143 214.874 Q587.823 213.069 585.115 213.069 Q581.805 213.069 579.884 215.268 Q577.962 217.467 577.962 221.263 L577.962 235.916 L573.68 235.916 L573.68 220.407 Q573.68 216.657 572.36 214.874 Q571.041 213.069 568.286 213.069 Q565.022 213.069 563.101 215.291 Q561.18 217.49 561.18 221.263 L561.18 235.916 L556.898 235.916 L556.898 209.99 L561.18 209.99 L561.18 214.018 Q562.638 211.633 564.675 210.499 Q566.712 209.365 569.513 209.365 Q572.337 209.365 574.305 210.8 Q576.296 212.235 577.245 214.967 Z" fill="#000000" fill-rule="nonzero" fill-opacity="1" /><path clip-path="url(#clip890)" d="M603.24 209.99 L607.499 209.99 L607.499 235.916 L603.24 235.916 L603.24 209.99 M603.24 199.897 L607.499 199.897 L607.499 205.291 L603.24 205.291 L603.24 199.897 Z" fill="#000000" fill-rule="nonzero" fill-opacity="1" /><path clip-path="url(#clip890)" d="M616.411 199.897 L620.67 199.897 L620.67 235.916 L616.411 235.916 L616.411 199.897 Z" fill="#000000" fill-rule="nonzero" fill-opacity="1" /><path clip-path="url(#clip890)" d="M641.365 222.883 Q636.203 222.883 634.212 224.064 Q632.221 225.244 632.221 228.092 Q632.221 230.36 633.703 231.703 Q635.207 233.022 637.777 233.022 Q641.318 233.022 643.448 230.522 Q645.601 227.999 645.601 223.832 L645.601 222.883 L641.365 222.883 M649.86 221.124 L649.86 235.916 L645.601 235.916 L645.601 231.981 Q644.142 234.342 641.967 235.476 Q639.791 236.587 636.642 236.587 Q632.661 236.587 630.3 234.365 Q627.962 232.119 627.962 228.369 Q627.962 223.994 630.879 221.772 Q633.818 219.55 639.629 219.55 L645.601 219.55 L645.601 219.133 Q645.601 216.194 643.656 214.596 Q641.735 212.976 638.24 212.976 Q636.017 212.976 633.911 213.508 Q631.805 214.041 629.86 215.106 L629.86 211.17 Q632.198 210.268 634.397 209.828 Q636.596 209.365 638.68 209.365 Q644.304 209.365 647.082 212.282 Q649.86 215.198 649.86 221.124 Z" fill="#000000" fill-rule="nonzero" fill-opacity="1" /><path clip-path="url(#clip890)" d="M673.656 213.971 Q672.939 213.555 672.082 213.37 Q671.249 213.161 670.23 213.161 Q666.619 213.161 664.675 215.522 Q662.753 217.86 662.753 222.258 L662.753 235.916 L658.471 235.916 L658.471 209.99 L662.753 209.99 L662.753 214.018 Q664.096 211.657 666.249 210.522 Q668.402 209.365 671.48 209.365 Q671.92 209.365 672.452 209.434 Q672.985 209.481 673.633 209.596 L673.656 213.971 Z" fill="#000000" fill-rule="nonzero" fill-opacity="1" /><path clip-path="url(#clip890)" d="M678.124 209.99 L682.383 209.99 L682.383 235.916 L678.124 235.916 L678.124 209.99 M678.124 199.897 L682.383 199.897 L682.383 205.291 L678.124 205.291 L678.124 199.897 Z" fill="#000000" fill-rule="nonzero" fill-opacity="1" /><path clip-path="url(#clip890)" d="M695.508 202.629 L695.508 209.99 L704.281 209.99 L704.281 213.3 L695.508 213.3 L695.508 227.374 Q695.508 230.545 696.364 231.448 Q697.244 232.351 699.906 232.351 L704.281 232.351 L704.281 235.916 L699.906 235.916 Q694.975 235.916 693.101 234.087 Q691.226 232.235 691.226 227.374 L691.226 213.3 L688.101 213.3 L688.101 209.99 L691.226 209.99 L691.226 202.629 L695.508 202.629 Z" fill="#000000" fill-rule="nonzero" fill-opacity="1" /><path clip-path="url(#clip890)" d="M720.67 238.323 Q718.864 242.953 717.151 244.365 Q715.438 245.777 712.568 245.777 L709.165 245.777 L709.165 242.212 L711.665 242.212 Q713.424 242.212 714.397 241.379 Q715.369 240.545 716.549 237.443 L717.313 235.499 L706.827 209.99 L711.341 209.99 L719.443 230.268 L727.545 209.99 L732.059 209.99 L720.67 238.323 Z" fill="#000000" fill-rule="nonzero" fill-opacity="1" /></svg>
