<svg xmlns="http://www.w3.org/2000/svg" xmlns:xlink="http://www.w3.org/1999/xlink" width="600" height="400" viewBox="0 0 2400 1600">
<defs>
  <clipPath id="clip030">
    <rect x="0" y="0" width="2400" height="1600"></rect>
  </clipPath>
</defs>
<path clip-path="url(#clip030)" d="M0 1600 L2400 1600 L2400 8.88178e-14 L0 8.88178e-14  Z" fill="#ffffff" fill-rule="evenodd" fill-opacity="1"></path>
<defs>
  <clipPath id="clip031">
    <rect x="480" y="0" width="1681" height="1600"></rect>
  </clipPath>
</defs>
<path clip-path="url(#clip030)" d="M287.366 1423.18 L2352.76 1423.18 L2352.76 123.472 L287.366 123.472  Z" fill="#ffffff" fill-rule="evenodd" fill-opacity="1"></path>
<defs>
  <clipPath id="clip032">
    <rect x="287" y="123" width="2066" height="1301"></rect>
  </clipPath>
</defs>
<polyline clip-path="url(#clip032)" style="stroke:#000000; stroke-linecap:round; stroke-linejoin:round; stroke-width:2; stroke-opacity:0.1; fill:none" points="343.87,1423.18 343.87,123.472 "></polyline>
<polyline clip-path="url(#clip032)" style="stroke:#000000; stroke-linecap:round; stroke-linejoin:round; stroke-width:2; stroke-opacity:0.1; fill:none" points="831.478,1423.18 831.478,123.472 "></polyline>
<polyline clip-path="url(#clip032)" style="stroke:#000000; stroke-linecap:round; stroke-linejoin:round; stroke-width:2; stroke-opacity:0.1; fill:none" points="1319.09,1423.18 1319.09,123.472 "></polyline>
<polyline clip-path="url(#clip032)" style="stroke:#000000; stroke-linecap:round; stroke-linejoin:round; stroke-width:2; stroke-opacity:0.1; fill:none" points="1806.69,1423.18 1806.69,123.472 "></polyline>
<polyline clip-path="url(#clip032)" style="stroke:#000000; stroke-linecap:round; stroke-linejoin:round; stroke-width:2; stroke-opacity:0.1; fill:none" points="2294.3,1423.18 2294.3,123.472 "></polyline>
<polyline clip-path="url(#clip030)" style="stroke:#000000; stroke-linecap:round; stroke-linejoin:round; stroke-width:4; stroke-opacity:1; fill:none" points="287.366,1423.18 2352.76,1423.18 "></polyline>
<polyline clip-path="url(#clip030)" style="stroke:#000000; stroke-linecap:round; stroke-linejoin:round; stroke-width:4; stroke-opacity:1; fill:none" points="343.87,1423.18 343.87,1404.28 "></polyline>
<polyline clip-path="url(#clip030)" style="stroke:#000000; stroke-linecap:round; stroke-linejoin:round; stroke-width:4; stroke-opacity:1; fill:none" points="831.478,1423.18 831.478,1404.28 "></polyline>
<polyline clip-path="url(#clip030)" style="stroke:#000000; stroke-linecap:round; stroke-linejoin:round; stroke-width:4; stroke-opacity:1; fill:none" points="1319.09,1423.18 1319.09,1404.28 "></polyline>
<polyline clip-path="url(#clip030)" style="stroke:#000000; stroke-linecap:round; stroke-linejoin:round; stroke-width:4; stroke-opacity:1; fill:none" points="1806.69,1423.18 1806.69,1404.28 "></polyline>
<polyline clip-path="url(#clip030)" style="stroke:#000000; stroke-linecap:round; stroke-linejoin:round; stroke-width:4; stroke-opacity:1; fill:none" points="2294.3,1423.18 2294.3,1404.28 "></polyline>
<path clip-path="url(#clip030)" d="M343.87 1454.1 Q340.259 1454.1 338.43 1457.66 Q336.625 1461.2 336.625 1468.33 Q336.625 1475.44 338.43 1479.01 Q340.259 1482.55 343.87 1482.55 Q347.504 1482.55 349.31 1479.01 Q351.138 1475.44 351.138 1468.33 Q351.138 1461.2 349.31 1457.66 Q347.504 1454.1 343.87 1454.1 M343.87 1450.39 Q349.68 1450.39 352.736 1455 Q355.814 1459.58 355.814 1468.33 Q355.814 1477.06 352.736 1481.67 Q349.68 1486.25 343.87 1486.25 Q338.06 1486.25 334.981 1481.67 Q331.926 1477.06 331.926 1468.33 Q331.926 1459.58 334.981 1455 Q338.06 1450.39 343.87 1450.39 Z" fill="#000000" fill-rule="nonzero" fill-opacity="1"></path><path clip-path="url(#clip030)" d="M795.17 1481.64 L811.489 1481.64 L811.489 1485.58 L789.545 1485.58 L789.545 1481.64 Q792.207 1478.89 796.79 1474.26 Q801.397 1469.61 802.577 1468.27 Q804.823 1465.74 805.702 1464.01 Q806.605 1462.25 806.605 1460.56 Q806.605 1457.8 804.661 1456.07 Q802.74 1454.33 799.638 1454.33 Q797.439 1454.33 794.985 1455.09 Q792.554 1455.86 789.777 1457.41 L789.777 1452.69 Q792.601 1451.55 795.054 1450.97 Q797.508 1450.39 799.545 1450.39 Q804.915 1450.39 808.11 1453.08 Q811.304 1455.77 811.304 1460.26 Q811.304 1462.39 810.494 1464.31 Q809.707 1466.2 807.601 1468.8 Q807.022 1469.47 803.92 1472.69 Q800.818 1475.88 795.17 1481.64 Z" fill="#000000" fill-rule="nonzero" fill-opacity="1"></path><path clip-path="url(#clip030)" d="M821.351 1451.02 L839.707 1451.02 L839.707 1454.96 L825.633 1454.96 L825.633 1463.43 Q826.651 1463.08 827.67 1462.92 Q828.688 1462.73 829.707 1462.73 Q835.494 1462.73 838.874 1465.9 Q842.253 1469.08 842.253 1474.49 Q842.253 1480.07 838.781 1483.17 Q835.309 1486.25 828.989 1486.25 Q826.813 1486.25 824.545 1485.88 Q822.3 1485.51 819.892 1484.77 L819.892 1480.07 Q821.976 1481.2 824.198 1481.76 Q826.42 1482.32 828.897 1482.32 Q832.901 1482.32 835.239 1480.21 Q837.577 1478.1 837.577 1474.49 Q837.577 1470.88 835.239 1468.77 Q832.901 1466.67 828.897 1466.67 Q827.022 1466.67 825.147 1467.08 Q823.295 1467.5 821.351 1468.38 L821.351 1451.02 Z" fill="#000000" fill-rule="nonzero" fill-opacity="1"></path><path clip-path="url(#clip030)" d="M861.466 1454.1 Q857.855 1454.1 856.026 1457.66 Q854.221 1461.2 854.221 1468.33 Q854.221 1475.44 856.026 1479.01 Q857.855 1482.55 861.466 1482.55 Q865.1 1482.55 866.906 1479.01 Q868.735 1475.44 868.735 1468.33 Q868.735 1461.2 866.906 1457.66 Q865.1 1454.1 861.466 1454.1 M861.466 1450.39 Q867.276 1450.39 870.332 1455 Q873.41 1459.58 873.41 1468.33 Q873.41 1477.06 870.332 1481.67 Q867.276 1486.25 861.466 1486.25 Q855.656 1486.25 852.577 1481.67 Q849.522 1477.06 849.522 1468.33 Q849.522 1459.58 852.577 1455 Q855.656 1450.39 861.466 1450.39 Z" fill="#000000" fill-rule="nonzero" fill-opacity="1"></path><path clip-path="url(#clip030)" d="M1278.7 1451.02 L1297.06 1451.02 L1297.06 1454.96 L1282.99 1454.96 L1282.99 1463.43 Q1284 1463.08 1285.02 1462.92 Q1286.04 1462.73 1287.06 1462.73 Q1292.85 1462.73 1296.23 1465.9 Q1299.61 1469.08 1299.61 1474.49 Q1299.61 1480.07 1296.13 1483.17 Q1292.66 1486.25 1286.34 1486.25 Q1284.17 1486.25 1281.9 1485.88 Q1279.65 1485.51 1277.25 1484.77 L1277.25 1480.07 Q1279.33 1481.2 1281.55 1481.76 Q1283.77 1482.32 1286.25 1482.32 Q1290.25 1482.32 1292.59 1480.21 Q1294.93 1478.1 1294.93 1474.49 Q1294.93 1470.88 1292.59 1468.77 Q1290.25 1466.67 1286.25 1466.67 Q1284.38 1466.67 1282.5 1467.08 Q1280.65 1467.5 1278.7 1468.38 L1278.7 1451.02 Z" fill="#000000" fill-rule="nonzero" fill-opacity="1"></path><path clip-path="url(#clip030)" d="M1318.82 1454.1 Q1315.21 1454.1 1313.38 1457.66 Q1311.57 1461.2 1311.57 1468.33 Q1311.57 1475.44 1313.38 1479.01 Q1315.21 1482.55 1318.82 1482.55 Q1322.45 1482.55 1324.26 1479.01 Q1326.09 1475.44 1326.09 1468.33 Q1326.09 1461.2 1324.26 1457.66 Q1322.45 1454.1 1318.82 1454.1 M1318.82 1450.39 Q1324.63 1450.39 1327.69 1455 Q1330.76 1459.58 1330.76 1468.33 Q1330.76 1477.06 1327.69 1481.67 Q1324.63 1486.25 1318.82 1486.25 Q1313.01 1486.25 1309.93 1481.67 Q1306.88 1477.06 1306.88 1468.33 Q1306.88 1459.58 1309.93 1455 Q1313.01 1450.39 1318.82 1450.39 Z" fill="#000000" fill-rule="nonzero" fill-opacity="1"></path><path clip-path="url(#clip030)" d="M1348.98 1454.1 Q1345.37 1454.1 1343.54 1457.66 Q1341.74 1461.2 1341.74 1468.33 Q1341.74 1475.44 1343.54 1479.01 Q1345.37 1482.55 1348.98 1482.55 Q1352.62 1482.55 1354.42 1479.01 Q1356.25 1475.44 1356.25 1468.33 Q1356.25 1461.2 1354.42 1457.66 Q1352.62 1454.1 1348.98 1454.1 M1348.98 1450.39 Q1354.79 1450.39 1357.85 1455 Q1360.93 1459.58 1360.93 1468.33 Q1360.93 1477.06 1357.85 1481.67 Q1354.79 1486.25 1348.98 1486.25 Q1343.17 1486.25 1340.09 1481.67 Q1337.04 1477.06 1337.04 1468.33 Q1337.04 1459.58 1340.09 1455 Q1343.17 1450.39 1348.98 1450.39 Z" fill="#000000" fill-rule="nonzero" fill-opacity="1"></path><path clip-path="url(#clip030)" d="M1764.97 1451.02 L1787.19 1451.02 L1787.19 1453.01 L1774.65 1485.58 L1769.76 1485.58 L1781.57 1454.96 L1764.97 1454.96 L1764.97 1451.02 Z" fill="#000000" fill-rule="nonzero" fill-opacity="1"></path><path clip-path="url(#clip030)" d="M1796.36 1451.02 L1814.71 1451.02 L1814.71 1454.96 L1800.64 1454.96 L1800.64 1463.43 Q1801.66 1463.08 1802.68 1462.92 Q1803.7 1462.73 1804.71 1462.73 Q1810.5 1462.73 1813.88 1465.9 Q1817.26 1469.08 1817.26 1474.49 Q1817.26 1480.07 1813.79 1483.17 Q1810.32 1486.25 1804 1486.25 Q1801.82 1486.25 1799.55 1485.88 Q1797.31 1485.51 1794.9 1484.77 L1794.9 1480.07 Q1796.98 1481.2 1799.21 1481.76 Q1801.43 1482.32 1803.9 1482.32 Q1807.91 1482.32 1810.25 1480.21 Q1812.58 1478.1 1812.58 1474.49 Q1812.58 1470.88 1810.25 1468.77 Q1807.91 1466.67 1803.9 1466.67 Q1802.03 1466.67 1800.15 1467.08 Q1798.3 1467.5 1796.36 1468.38 L1796.36 1451.02 Z" fill="#000000" fill-rule="nonzero" fill-opacity="1"></path><path clip-path="url(#clip030)" d="M1836.47 1454.1 Q1832.86 1454.1 1831.03 1457.66 Q1829.23 1461.2 1829.23 1468.33 Q1829.23 1475.44 1831.03 1479.01 Q1832.86 1482.55 1836.47 1482.55 Q1840.11 1482.55 1841.91 1479.01 Q1843.74 1475.44 1843.74 1468.33 Q1843.74 1461.2 1841.91 1457.66 Q1840.11 1454.1 1836.47 1454.1 M1836.47 1450.39 Q1842.28 1450.39 1845.34 1455 Q1848.42 1459.58 1848.42 1468.33 Q1848.42 1477.06 1845.34 1481.67 Q1842.28 1486.25 1836.47 1486.25 Q1830.66 1486.25 1827.58 1481.67 Q1824.53 1477.06 1824.53 1468.33 Q1824.53 1459.58 1827.58 1455 Q1830.66 1450.39 1836.47 1450.39 Z" fill="#000000" fill-rule="nonzero" fill-opacity="1"></path><path clip-path="url(#clip030)" d="M2238.83 1481.64 L2246.47 1481.64 L2246.47 1455.28 L2238.16 1456.95 L2238.16 1452.69 L2246.42 1451.02 L2251.1 1451.02 L2251.1 1481.64 L2258.73 1481.64 L2258.73 1485.58 L2238.83 1485.58 L2238.83 1481.64 Z" fill="#000000" fill-rule="nonzero" fill-opacity="1"></path><path clip-path="url(#clip030)" d="M2278.18 1454.1 Q2274.57 1454.1 2272.74 1457.66 Q2270.93 1461.2 2270.93 1468.33 Q2270.93 1475.44 2272.74 1479.01 Q2274.57 1482.55 2278.18 1482.55 Q2281.81 1482.55 2283.62 1479.01 Q2285.45 1475.44 2285.45 1468.33 Q2285.45 1461.2 2283.62 1457.66 Q2281.81 1454.1 2278.18 1454.1 M2278.18 1450.39 Q2283.99 1450.39 2287.04 1455 Q2290.12 1459.58 2290.12 1468.33 Q2290.12 1477.06 2287.04 1481.67 Q2283.99 1486.25 2278.18 1486.25 Q2272.37 1486.25 2269.29 1481.67 Q2266.23 1477.06 2266.23 1468.33 Q2266.23 1459.58 2269.29 1455 Q2272.37 1450.39 2278.18 1450.39 Z" fill="#000000" fill-rule="nonzero" fill-opacity="1"></path><path clip-path="url(#clip030)" d="M2308.34 1454.1 Q2304.73 1454.1 2302.9 1457.66 Q2301.1 1461.2 2301.1 1468.33 Q2301.1 1475.44 2302.9 1479.01 Q2304.73 1482.55 2308.34 1482.55 Q2311.97 1482.55 2313.78 1479.01 Q2315.61 1475.44 2315.61 1468.33 Q2315.61 1461.2 2313.78 1457.66 Q2311.97 1454.1 2308.34 1454.1 M2308.34 1450.39 Q2314.15 1450.39 2317.21 1455 Q2320.29 1459.58 2320.29 1468.33 Q2320.29 1477.06 2317.21 1481.67 Q2314.15 1486.25 2308.34 1486.25 Q2302.53 1486.25 2299.45 1481.67 Q2296.4 1477.06 2296.4 1468.33 Q2296.4 1459.58 2299.45 1455 Q2302.53 1450.39 2308.34 1450.39 Z" fill="#000000" fill-rule="nonzero" fill-opacity="1"></path><path clip-path="url(#clip030)" d="M2338.5 1454.1 Q2334.89 1454.1 2333.06 1457.66 Q2331.26 1461.2 2331.26 1468.33 Q2331.26 1475.44 2333.06 1479.01 Q2334.89 1482.55 2338.5 1482.55 Q2342.14 1482.55 2343.94 1479.01 Q2345.77 1475.44 2345.77 1468.33 Q2345.77 1461.2 2343.94 1457.66 Q2342.14 1454.1 2338.5 1454.1 M2338.5 1450.39 Q2344.31 1450.39 2347.37 1455 Q2350.45 1459.58 2350.45 1468.33 Q2350.45 1477.06 2347.37 1481.67 Q2344.31 1486.25 2338.5 1486.25 Q2332.69 1486.25 2329.61 1481.67 Q2326.56 1477.06 2326.56 1468.33 Q2326.56 1459.58 2329.61 1455 Q2332.69 1450.39 2338.5 1450.39 Z" fill="#000000" fill-rule="nonzero" fill-opacity="1"></path><path clip-path="url(#clip030)" d="M1234.6 1520.52 L1241.03 1520.52 L1241.03 1568.04 L1234.6 1568.04 L1234.6 1520.52 Z" fill="#000000" fill-rule="nonzero" fill-opacity="1"></path><path clip-path="url(#clip030)" d="M1283.2 1546.53 L1283.2 1568.04 L1277.35 1568.04 L1277.35 1546.72 Q1277.35 1541.66 1275.37 1539.14 Q1273.4 1536.63 1269.45 1536.63 Q1264.71 1536.63 1261.97 1539.65 Q1259.24 1542.68 1259.24 1547.9 L1259.24 1568.04 L1253.35 1568.04 L1253.35 1532.4 L1259.24 1532.4 L1259.24 1537.93 Q1261.34 1534.72 1264.17 1533.13 Q1267.03 1531.54 1270.76 1531.54 Q1276.9 1531.54 1280.05 1535.36 Q1283.2 1539.14 1283.2 1546.53 Z" fill="#000000" fill-rule="nonzero" fill-opacity="1"></path><path clip-path="url(#clip030)" d="M1318.34 1537.81 L1318.34 1518.52 L1324.2 1518.52 L1324.2 1568.04 L1318.34 1568.04 L1318.34 1562.7 Q1316.5 1565.88 1313.66 1567.44 Q1310.86 1568.97 1306.92 1568.97 Q1300.45 1568.97 1296.38 1563.81 Q1292.34 1558.65 1292.34 1550.25 Q1292.34 1541.85 1296.38 1536.69 Q1300.45 1531.54 1306.92 1531.54 Q1310.86 1531.54 1313.66 1533.1 Q1316.5 1534.62 1318.34 1537.81 M1298.39 1550.25 Q1298.39 1556.71 1301.03 1560.4 Q1303.7 1564.07 1308.35 1564.07 Q1312.99 1564.07 1315.67 1560.4 Q1318.34 1556.71 1318.34 1550.25 Q1318.34 1543.79 1315.67 1540.13 Q1312.99 1536.44 1308.35 1536.44 Q1303.7 1536.44 1301.03 1540.13 Q1298.39 1543.79 1298.39 1550.25 Z" fill="#000000" fill-rule="nonzero" fill-opacity="1"></path><path clip-path="url(#clip030)" d="M1366.75 1548.76 L1366.75 1551.62 L1339.83 1551.62 Q1340.21 1557.67 1343.45 1560.85 Q1346.73 1564 1352.56 1564 Q1355.93 1564 1359.08 1563.17 Q1362.27 1562.35 1365.38 1560.69 L1365.38 1566.23 Q1362.23 1567.57 1358.92 1568.27 Q1355.61 1568.97 1352.21 1568.97 Q1343.68 1568.97 1338.68 1564 Q1333.72 1559.04 1333.72 1550.57 Q1333.72 1541.82 1338.43 1536.69 Q1343.17 1531.54 1351.19 1531.54 Q1358.38 1531.54 1362.55 1536.18 Q1366.75 1540.8 1366.75 1548.76 M1360.9 1547.04 Q1360.83 1542.23 1358.19 1539.37 Q1355.58 1536.5 1351.25 1536.5 Q1346.35 1536.5 1343.39 1539.27 Q1340.46 1542.04 1340.02 1547.07 L1360.9 1547.04 Z" fill="#000000" fill-rule="nonzero" fill-opacity="1"></path><path clip-path="url(#clip030)" d="M1404.85 1532.4 L1391.96 1549.74 L1405.52 1568.04 L1398.61 1568.04 L1388.24 1554.04 L1377.86 1568.04 L1370.95 1568.04 L1384.8 1549.39 L1372.13 1532.4 L1379.04 1532.4 L1388.49 1545.1 L1397.95 1532.4 L1404.85 1532.4 Z" fill="#000000" fill-rule="nonzero" fill-opacity="1"></path><polyline clip-path="url(#clip032)" style="stroke:#000000; stroke-linecap:round; stroke-linejoin:round; stroke-width:2; stroke-opacity:0.1; fill:none" points="287.366,1267.54 2352.76,1267.54 "></polyline>
<polyline clip-path="url(#clip032)" style="stroke:#000000; stroke-linecap:round; stroke-linejoin:round; stroke-width:2; stroke-opacity:0.1; fill:none" points="287.366,1100.25 2352.76,1100.25 "></polyline>
<polyline clip-path="url(#clip032)" style="stroke:#000000; stroke-linecap:round; stroke-linejoin:round; stroke-width:2; stroke-opacity:0.1; fill:none" points="287.366,932.949 2352.76,932.949 "></polyline>
<polyline clip-path="url(#clip032)" style="stroke:#000000; stroke-linecap:round; stroke-linejoin:round; stroke-width:2; stroke-opacity:0.1; fill:none" points="287.366,765.653 2352.76,765.653 "></polyline>
<polyline clip-path="url(#clip032)" style="stroke:#000000; stroke-linecap:round; stroke-linejoin:round; stroke-width:2; stroke-opacity:0.1; fill:none" points="287.366,598.357 2352.76,598.357 "></polyline>
<polyline clip-path="url(#clip032)" style="stroke:#000000; stroke-linecap:round; stroke-linejoin:round; stroke-width:2; stroke-opacity:0.1; fill:none" points="287.366,431.06 2352.76,431.06 "></polyline>
<polyline clip-path="url(#clip032)" style="stroke:#000000; stroke-linecap:round; stroke-linejoin:round; stroke-width:2; stroke-opacity:0.1; fill:none" points="287.366,263.764 2352.76,263.764 "></polyline>
<polyline clip-path="url(#clip030)" style="stroke:#000000; stroke-linecap:round; stroke-linejoin:round; stroke-width:4; stroke-opacity:1; fill:none" points="287.366,1423.18 287.366,123.472 "></polyline>
<polyline clip-path="url(#clip030)" style="stroke:#000000; stroke-linecap:round; stroke-linejoin:round; stroke-width:4; stroke-opacity:1; fill:none" points="287.366,1267.54 306.264,1267.54 "></polyline>
<polyline clip-path="url(#clip030)" style="stroke:#000000; stroke-linecap:round; stroke-linejoin:round; stroke-width:4; stroke-opacity:1; fill:none" points="287.366,1100.25 306.264,1100.25 "></polyline>
<polyline clip-path="url(#clip030)" style="stroke:#000000; stroke-linecap:round; stroke-linejoin:round; stroke-width:4; stroke-opacity:1; fill:none" points="287.366,932.949 306.264,932.949 "></polyline>
<polyline clip-path="url(#clip030)" style="stroke:#000000; stroke-linecap:round; stroke-linejoin:round; stroke-width:4; stroke-opacity:1; fill:none" points="287.366,765.653 306.264,765.653 "></polyline>
<polyline clip-path="url(#clip030)" style="stroke:#000000; stroke-linecap:round; stroke-linejoin:round; stroke-width:4; stroke-opacity:1; fill:none" points="287.366,598.357 306.264,598.357 "></polyline>
<polyline clip-path="url(#clip030)" style="stroke:#000000; stroke-linecap:round; stroke-linejoin:round; stroke-width:4; stroke-opacity:1; fill:none" points="287.366,431.06 306.264,431.06 "></polyline>
<polyline clip-path="url(#clip030)" style="stroke:#000000; stroke-linecap:round; stroke-linejoin:round; stroke-width:4; stroke-opacity:1; fill:none" points="287.366,263.764 306.264,263.764 "></polyline>
<path clip-path="url(#clip030)" d="M115.256 1267.99 L144.931 1267.99 L144.931 1271.93 L115.256 1271.93 L115.256 1267.99 Z" fill="#000000" fill-rule="nonzero" fill-opacity="1"></path><path clip-path="url(#clip030)" d="M165.024 1253.34 Q161.413 1253.34 159.584 1256.9 Q157.778 1260.45 157.778 1267.58 Q157.778 1274.68 159.584 1278.25 Q161.413 1281.79 165.024 1281.79 Q168.658 1281.79 170.464 1278.25 Q172.292 1274.68 172.292 1267.58 Q172.292 1260.45 170.464 1256.9 Q168.658 1253.34 165.024 1253.34 M165.024 1249.64 Q170.834 1249.64 173.889 1254.24 Q176.968 1258.83 176.968 1267.58 Q176.968 1276.3 173.889 1280.91 Q170.834 1285.49 165.024 1285.49 Q159.214 1285.49 156.135 1280.91 Q153.079 1276.3 153.079 1267.58 Q153.079 1258.83 156.135 1254.24 Q159.214 1249.64 165.024 1249.64 Z" fill="#000000" fill-rule="nonzero" fill-opacity="1"></path><path clip-path="url(#clip030)" d="M185.186 1278.94 L190.07 1278.94 L190.07 1284.82 L185.186 1284.82 L185.186 1278.94 Z" fill="#000000" fill-rule="nonzero" fill-opacity="1"></path><path clip-path="url(#clip030)" d="M199.075 1250.26 L221.297 1250.26 L221.297 1252.25 L208.75 1284.82 L203.866 1284.82 L215.672 1254.2 L199.075 1254.2 L199.075 1250.26 Z" fill="#000000" fill-rule="nonzero" fill-opacity="1"></path><path clip-path="url(#clip030)" d="M230.463 1250.26 L248.82 1250.26 L248.82 1254.2 L234.746 1254.2 L234.746 1262.67 Q235.764 1262.32 236.783 1262.16 Q237.801 1261.97 238.82 1261.97 Q244.607 1261.97 247.986 1265.15 Q251.366 1268.32 251.366 1273.73 Q251.366 1279.31 247.894 1282.41 Q244.421 1285.49 238.102 1285.49 Q235.926 1285.49 233.658 1285.12 Q231.412 1284.75 229.005 1284.01 L229.005 1279.31 Q231.088 1280.45 233.31 1281 Q235.533 1281.56 238.009 1281.56 Q242.014 1281.56 244.352 1279.45 Q246.69 1277.34 246.69 1273.73 Q246.69 1270.12 244.352 1268.02 Q242.014 1265.91 238.009 1265.91 Q236.135 1265.91 234.26 1266.33 Q232.408 1266.74 230.463 1267.62 L230.463 1250.26 Z" fill="#000000" fill-rule="nonzero" fill-opacity="1"></path><path clip-path="url(#clip030)" d="M114.26 1100.7 L143.936 1100.7 L143.936 1104.63 L114.26 1104.63 L114.26 1100.7 Z" fill="#000000" fill-rule="nonzero" fill-opacity="1"></path><path clip-path="url(#clip030)" d="M164.028 1086.04 Q160.417 1086.04 158.589 1089.61 Q156.783 1093.15 156.783 1100.28 Q156.783 1107.39 158.589 1110.95 Q160.417 1114.49 164.028 1114.49 Q167.663 1114.49 169.468 1110.95 Q171.297 1107.39 171.297 1100.28 Q171.297 1093.15 169.468 1089.61 Q167.663 1086.04 164.028 1086.04 M164.028 1082.34 Q169.839 1082.34 172.894 1086.95 Q175.973 1091.53 175.973 1100.28 Q175.973 1109.01 172.894 1113.61 Q169.839 1118.2 164.028 1118.2 Q158.218 1118.2 155.14 1113.61 Q152.084 1109.01 152.084 1100.28 Q152.084 1091.53 155.14 1086.95 Q158.218 1082.34 164.028 1082.34 Z" fill="#000000" fill-rule="nonzero" fill-opacity="1"></path><path clip-path="url(#clip030)" d="M184.19 1111.65 L189.075 1111.65 L189.075 1117.53 L184.19 1117.53 L184.19 1111.65 Z" fill="#000000" fill-rule="nonzero" fill-opacity="1"></path><path clip-path="url(#clip030)" d="M199.306 1082.97 L217.662 1082.97 L217.662 1086.9 L203.588 1086.9 L203.588 1095.37 Q204.607 1095.03 205.625 1094.86 Q206.644 1094.68 207.662 1094.68 Q213.449 1094.68 216.829 1097.85 Q220.209 1101.02 220.209 1106.44 Q220.209 1112.02 216.736 1115.12 Q213.264 1118.2 206.945 1118.2 Q204.769 1118.2 202.5 1117.83 Q200.255 1117.46 197.848 1116.72 L197.848 1112.02 Q199.931 1113.15 202.153 1113.71 Q204.375 1114.26 206.852 1114.26 Q210.857 1114.26 213.195 1112.15 Q215.533 1110.05 215.533 1106.44 Q215.533 1102.83 213.195 1100.72 Q210.857 1098.61 206.852 1098.61 Q204.977 1098.61 203.102 1099.03 Q201.25 1099.45 199.306 1100.33 L199.306 1082.97 Z" fill="#000000" fill-rule="nonzero" fill-opacity="1"></path><path clip-path="url(#clip030)" d="M239.422 1086.04 Q235.81 1086.04 233.982 1089.61 Q232.176 1093.15 232.176 1100.28 Q232.176 1107.39 233.982 1110.95 Q235.81 1114.49 239.422 1114.49 Q243.056 1114.49 244.861 1110.95 Q246.69 1107.39 246.69 1100.28 Q246.69 1093.15 244.861 1089.61 Q243.056 1086.04 239.422 1086.04 M239.422 1082.34 Q245.232 1082.34 248.287 1086.95 Q251.366 1091.53 251.366 1100.28 Q251.366 1109.01 248.287 1113.61 Q245.232 1118.2 239.422 1118.2 Q233.611 1118.2 230.533 1113.61 Q227.477 1109.01 227.477 1100.28 Q227.477 1091.53 230.533 1086.95 Q233.611 1082.34 239.422 1082.34 Z" fill="#000000" fill-rule="nonzero" fill-opacity="1"></path><path clip-path="url(#clip030)" d="M115.256 933.4 L144.931 933.4 L144.931 937.336 L115.256 937.336 L115.256 933.4 Z" fill="#000000" fill-rule="nonzero" fill-opacity="1"></path><path clip-path="url(#clip030)" d="M165.024 918.748 Q161.413 918.748 159.584 922.313 Q157.778 925.854 157.778 932.984 Q157.778 940.09 159.584 943.655 Q161.413 947.197 165.024 947.197 Q168.658 947.197 170.464 943.655 Q172.292 940.09 172.292 932.984 Q172.292 925.854 170.464 922.313 Q168.658 918.748 165.024 918.748 M165.024 915.044 Q170.834 915.044 173.889 919.65 Q176.968 924.234 176.968 932.984 Q176.968 941.711 173.889 946.317 Q170.834 950.9 165.024 950.9 Q159.214 950.9 156.135 946.317 Q153.079 941.711 153.079 932.984 Q153.079 924.234 156.135 919.65 Q159.214 915.044 165.024 915.044 Z" fill="#000000" fill-rule="nonzero" fill-opacity="1"></path><path clip-path="url(#clip030)" d="M185.186 944.349 L190.07 944.349 L190.07 950.229 L185.186 950.229 L185.186 944.349 Z" fill="#000000" fill-rule="nonzero" fill-opacity="1"></path><path clip-path="url(#clip030)" d="M204.283 946.294 L220.602 946.294 L220.602 950.229 L198.658 950.229 L198.658 946.294 Q201.32 943.539 205.903 938.91 Q210.51 934.257 211.69 932.914 Q213.936 930.391 214.815 928.655 Q215.718 926.896 215.718 925.206 Q215.718 922.451 213.774 920.715 Q211.852 918.979 208.75 918.979 Q206.551 918.979 204.098 919.743 Q201.667 920.507 198.889 922.058 L198.889 917.336 Q201.713 916.201 204.167 915.623 Q206.621 915.044 208.658 915.044 Q214.028 915.044 217.223 917.729 Q220.417 920.414 220.417 924.905 Q220.417 927.035 219.607 928.956 Q218.82 930.854 216.713 933.447 Q216.135 934.118 213.033 937.336 Q209.931 940.53 204.283 946.294 Z" fill="#000000" fill-rule="nonzero" fill-opacity="1"></path><path clip-path="url(#clip030)" d="M230.463 915.669 L248.82 915.669 L248.82 919.604 L234.746 919.604 L234.746 928.076 Q235.764 927.729 236.783 927.567 Q237.801 927.382 238.82 927.382 Q244.607 927.382 247.986 930.553 Q251.366 933.724 251.366 939.141 Q251.366 944.72 247.894 947.822 Q244.421 950.9 238.102 950.9 Q235.926 950.9 233.658 950.53 Q231.412 950.16 229.005 949.419 L229.005 944.72 Q231.088 945.854 233.31 946.41 Q235.533 946.965 238.009 946.965 Q242.014 946.965 244.352 944.859 Q246.69 942.752 246.69 939.141 Q246.69 935.53 244.352 933.424 Q242.014 931.317 238.009 931.317 Q236.135 931.317 234.26 931.734 Q232.408 932.15 230.463 933.03 L230.463 915.669 Z" fill="#000000" fill-rule="nonzero" fill-opacity="1"></path><path clip-path="url(#clip030)" d="M164.028 751.452 Q160.417 751.452 158.589 755.016 Q156.783 758.558 156.783 765.688 Q156.783 772.794 158.589 776.359 Q160.417 779.9 164.028 779.9 Q167.663 779.9 169.468 776.359 Q171.297 772.794 171.297 765.688 Q171.297 758.558 169.468 755.016 Q167.663 751.452 164.028 751.452 M164.028 747.748 Q169.839 747.748 172.894 752.354 Q175.973 756.938 175.973 765.688 Q175.973 774.414 172.894 779.021 Q169.839 783.604 164.028 783.604 Q158.218 783.604 155.14 779.021 Q152.084 774.414 152.084 765.688 Q152.084 756.938 155.14 752.354 Q158.218 747.748 164.028 747.748 Z" fill="#000000" fill-rule="nonzero" fill-opacity="1"></path><path clip-path="url(#clip030)" d="M184.19 777.053 L189.075 777.053 L189.075 782.933 L184.19 782.933 L184.19 777.053 Z" fill="#000000" fill-rule="nonzero" fill-opacity="1"></path><path clip-path="url(#clip030)" d="M209.26 751.452 Q205.649 751.452 203.82 755.016 Q202.014 758.558 202.014 765.688 Q202.014 772.794 203.82 776.359 Q205.649 779.9 209.26 779.9 Q212.894 779.9 214.699 776.359 Q216.528 772.794 216.528 765.688 Q216.528 758.558 214.699 755.016 Q212.894 751.452 209.26 751.452 M209.26 747.748 Q215.07 747.748 218.125 752.354 Q221.204 756.938 221.204 765.688 Q221.204 774.414 218.125 779.021 Q215.07 783.604 209.26 783.604 Q203.449 783.604 200.371 779.021 Q197.315 774.414 197.315 765.688 Q197.315 756.938 200.371 752.354 Q203.449 747.748 209.26 747.748 Z" fill="#000000" fill-rule="nonzero" fill-opacity="1"></path><path clip-path="url(#clip030)" d="M239.422 751.452 Q235.81 751.452 233.982 755.016 Q232.176 758.558 232.176 765.688 Q232.176 772.794 233.982 776.359 Q235.81 779.9 239.422 779.9 Q243.056 779.9 244.861 776.359 Q246.69 772.794 246.69 765.688 Q246.69 758.558 244.861 755.016 Q243.056 751.452 239.422 751.452 M239.422 747.748 Q245.232 747.748 248.287 752.354 Q251.366 756.938 251.366 765.688 Q251.366 774.414 248.287 779.021 Q245.232 783.604 239.422 783.604 Q233.611 783.604 230.533 779.021 Q227.477 774.414 227.477 765.688 Q227.477 756.938 230.533 752.354 Q233.611 747.748 239.422 747.748 Z" fill="#000000" fill-rule="nonzero" fill-opacity="1"></path><path clip-path="url(#clip030)" d="M165.024 584.155 Q161.413 584.155 159.584 587.72 Q157.778 591.262 157.778 598.391 Q157.778 605.498 159.584 609.063 Q161.413 612.604 165.024 612.604 Q168.658 612.604 170.464 609.063 Q172.292 605.498 172.292 598.391 Q172.292 591.262 170.464 587.72 Q168.658 584.155 165.024 584.155 M165.024 580.452 Q170.834 580.452 173.889 585.058 Q176.968 589.641 176.968 598.391 Q176.968 607.118 173.889 611.725 Q170.834 616.308 165.024 616.308 Q159.214 616.308 156.135 611.725 Q153.079 607.118 153.079 598.391 Q153.079 589.641 156.135 585.058 Q159.214 580.452 165.024 580.452 Z" fill="#000000" fill-rule="nonzero" fill-opacity="1"></path><path clip-path="url(#clip030)" d="M185.186 609.757 L190.07 609.757 L190.07 615.637 L185.186 615.637 L185.186 609.757 Z" fill="#000000" fill-rule="nonzero" fill-opacity="1"></path><path clip-path="url(#clip030)" d="M204.283 611.701 L220.602 611.701 L220.602 615.637 L198.658 615.637 L198.658 611.701 Q201.32 608.947 205.903 604.317 Q210.51 599.665 211.69 598.322 Q213.936 595.799 214.815 594.063 Q215.718 592.303 215.718 590.614 Q215.718 587.859 213.774 586.123 Q211.852 584.387 208.75 584.387 Q206.551 584.387 204.098 585.151 Q201.667 585.915 198.889 587.465 L198.889 582.743 Q201.713 581.609 204.167 581.03 Q206.621 580.452 208.658 580.452 Q214.028 580.452 217.223 583.137 Q220.417 585.822 220.417 590.313 Q220.417 592.442 219.607 594.364 Q218.82 596.262 216.713 598.854 Q216.135 599.526 213.033 602.743 Q209.931 605.938 204.283 611.701 Z" fill="#000000" fill-rule="nonzero" fill-opacity="1"></path><path clip-path="url(#clip030)" d="M230.463 581.077 L248.82 581.077 L248.82 585.012 L234.746 585.012 L234.746 593.484 Q235.764 593.137 236.783 592.975 Q237.801 592.79 238.82 592.79 Q244.607 592.79 247.986 595.961 Q251.366 599.132 251.366 604.549 Q251.366 610.127 247.894 613.229 Q244.421 616.308 238.102 616.308 Q235.926 616.308 233.658 615.938 Q231.412 615.567 229.005 614.826 L229.005 610.127 Q231.088 611.262 233.31 611.817 Q235.533 612.373 238.009 612.373 Q242.014 612.373 244.352 610.266 Q246.69 608.16 246.69 604.549 Q246.69 600.938 244.352 598.831 Q242.014 596.725 238.009 596.725 Q236.135 596.725 234.26 597.141 Q232.408 597.558 230.463 598.438 L230.463 581.077 Z" fill="#000000" fill-rule="nonzero" fill-opacity="1"></path><path clip-path="url(#clip030)" d="M164.028 416.859 Q160.417 416.859 158.589 420.424 Q156.783 423.966 156.783 431.095 Q156.783 438.202 158.589 441.766 Q160.417 445.308 164.028 445.308 Q167.663 445.308 169.468 441.766 Q171.297 438.202 171.297 431.095 Q171.297 423.966 169.468 420.424 Q167.663 416.859 164.028 416.859 M164.028 413.155 Q169.839 413.155 172.894 417.762 Q175.973 422.345 175.973 431.095 Q175.973 439.822 172.894 444.428 Q169.839 449.012 164.028 449.012 Q158.218 449.012 155.14 444.428 Q152.084 439.822 152.084 431.095 Q152.084 422.345 155.14 417.762 Q158.218 413.155 164.028 413.155 Z" fill="#000000" fill-rule="nonzero" fill-opacity="1"></path><path clip-path="url(#clip030)" d="M184.19 442.461 L189.075 442.461 L189.075 448.34 L184.19 448.34 L184.19 442.461 Z" fill="#000000" fill-rule="nonzero" fill-opacity="1"></path><path clip-path="url(#clip030)" d="M199.306 413.78 L217.662 413.78 L217.662 417.716 L203.588 417.716 L203.588 426.188 Q204.607 425.841 205.625 425.679 Q206.644 425.493 207.662 425.493 Q213.449 425.493 216.829 428.665 Q220.209 431.836 220.209 437.253 Q220.209 442.831 216.736 445.933 Q213.264 449.012 206.945 449.012 Q204.769 449.012 202.5 448.641 Q200.255 448.271 197.848 447.53 L197.848 442.831 Q199.931 443.965 202.153 444.521 Q204.375 445.077 206.852 445.077 Q210.857 445.077 213.195 442.97 Q215.533 440.864 215.533 437.253 Q215.533 433.641 213.195 431.535 Q210.857 429.429 206.852 429.429 Q204.977 429.429 203.102 429.845 Q201.25 430.262 199.306 431.141 L199.306 413.78 Z" fill="#000000" fill-rule="nonzero" fill-opacity="1"></path><path clip-path="url(#clip030)" d="M239.422 416.859 Q235.81 416.859 233.982 420.424 Q232.176 423.966 232.176 431.095 Q232.176 438.202 233.982 441.766 Q235.81 445.308 239.422 445.308 Q243.056 445.308 244.861 441.766 Q246.69 438.202 246.69 431.095 Q246.69 423.966 244.861 420.424 Q243.056 416.859 239.422 416.859 M239.422 413.155 Q245.232 413.155 248.287 417.762 Q251.366 422.345 251.366 431.095 Q251.366 439.822 248.287 444.428 Q245.232 449.012 239.422 449.012 Q233.611 449.012 230.533 444.428 Q227.477 439.822 227.477 431.095 Q227.477 422.345 230.533 417.762 Q233.611 413.155 239.422 413.155 Z" fill="#000000" fill-rule="nonzero" fill-opacity="1"></path><path clip-path="url(#clip030)" d="M165.024 249.563 Q161.413 249.563 159.584 253.128 Q157.778 256.669 157.778 263.799 Q157.778 270.905 159.584 274.47 Q161.413 278.012 165.024 278.012 Q168.658 278.012 170.464 274.47 Q172.292 270.905 172.292 263.799 Q172.292 256.669 170.464 253.128 Q168.658 249.563 165.024 249.563 M165.024 245.859 Q170.834 245.859 173.889 250.466 Q176.968 255.049 176.968 263.799 Q176.968 272.526 173.889 277.132 Q170.834 281.716 165.024 281.716 Q159.214 281.716 156.135 277.132 Q153.079 272.526 153.079 263.799 Q153.079 255.049 156.135 250.466 Q159.214 245.859 165.024 245.859 Z" fill="#000000" fill-rule="nonzero" fill-opacity="1"></path><path clip-path="url(#clip030)" d="M185.186 275.165 L190.07 275.165 L190.07 281.044 L185.186 281.044 L185.186 275.165 Z" fill="#000000" fill-rule="nonzero" fill-opacity="1"></path><path clip-path="url(#clip030)" d="M199.075 246.484 L221.297 246.484 L221.297 248.475 L208.75 281.044 L203.866 281.044 L215.672 250.419 L199.075 250.419 L199.075 246.484 Z" fill="#000000" fill-rule="nonzero" fill-opacity="1"></path><path clip-path="url(#clip030)" d="M230.463 246.484 L248.82 246.484 L248.82 250.419 L234.746 250.419 L234.746 258.892 Q235.764 258.544 236.783 258.382 Q237.801 258.197 238.82 258.197 Q244.607 258.197 247.986 261.368 Q251.366 264.54 251.366 269.956 Q251.366 275.535 247.894 278.637 Q244.421 281.716 238.102 281.716 Q235.926 281.716 233.658 281.345 Q231.412 280.975 229.005 280.234 L229.005 275.535 Q231.088 276.669 233.31 277.225 Q235.533 277.78 238.009 277.78 Q242.014 277.78 244.352 275.674 Q246.69 273.567 246.69 269.956 Q246.69 266.345 244.352 264.239 Q242.014 262.132 238.009 262.132 Q236.135 262.132 234.26 262.549 Q232.408 262.966 230.463 263.845 L230.463 246.484 Z" fill="#000000" fill-rule="nonzero" fill-opacity="1"></path><path clip-path="url(#clip030)" d="M18.0438 893.717 L24.314 893.717 Q22.5634 897.378 21.704 900.624 Q20.8447 903.871 20.8447 906.894 Q20.8447 912.146 22.8817 915.011 Q24.9187 917.843 28.6745 917.843 Q31.8255 917.843 33.4488 915.966 Q35.0402 914.056 36.0269 908.772 L36.8226 904.889 Q38.1912 897.696 41.6605 894.29 Q45.098 890.853 50.8908 890.853 Q57.7976 890.853 61.3624 895.5 Q64.9272 900.115 64.9272 909.059 Q64.9272 912.433 64.1633 916.252 Q63.3994 920.04 61.9035 924.114 L55.2831 924.114 Q57.4793 920.199 58.5933 916.443 Q59.7073 912.687 59.7073 909.059 Q59.7073 903.552 57.543 900.561 Q55.3786 897.569 51.3682 897.569 Q47.8671 897.569 45.8937 899.733 Q43.9204 901.866 42.9337 906.767 L42.1698 910.682 Q40.7375 917.875 37.682 921.09 Q34.6264 924.305 29.1837 924.305 Q22.8817 924.305 19.2532 919.88 Q15.6248 915.424 15.6248 907.626 Q15.6248 904.284 16.2295 900.815 Q16.8343 897.346 18.0438 893.717 Z" fill="#000000" fill-rule="nonzero" fill-opacity="1"></path><path clip-path="url(#clip030)" d="M28.3562 881.081 L28.3562 875.225 L64.0042 875.225 L64.0042 881.081 L28.3562 881.081 M14.479 881.081 L14.479 875.225 L21.895 875.225 L21.895 881.081 L14.479 881.081 Z" fill="#000000" fill-rule="nonzero" fill-opacity="1"></path><path clip-path="url(#clip030)" d="M35.1993 835.217 Q31.2526 833.02 29.3747 829.965 Q27.4968 826.909 27.4968 822.772 Q27.4968 817.202 31.4117 814.178 Q35.2948 811.154 42.4881 811.154 L64.0042 811.154 L64.0042 817.042 L42.679 817.042 Q37.5546 817.042 35.072 818.857 Q32.5894 820.671 32.5894 824.395 Q32.5894 828.946 35.6131 831.588 Q38.6368 834.23 43.8567 834.23 L64.0042 834.23 L64.0042 840.118 L42.679 840.118 Q37.5228 840.118 35.072 841.932 Q32.5894 843.747 32.5894 847.534 Q32.5894 852.022 35.6449 854.664 Q38.6686 857.306 43.8567 857.306 L64.0042 857.306 L64.0042 863.194 L28.3562 863.194 L28.3562 857.306 L33.8944 857.306 Q30.616 855.3 29.0564 852.499 Q27.4968 849.699 27.4968 845.847 Q27.4968 841.964 29.4702 839.259 Q31.4436 836.522 35.1993 835.217 Z" fill="#000000" fill-rule="nonzero" fill-opacity="1"></path><path clip-path="url(#clip030)" d="M28.3562 799.473 L28.3562 793.617 L64.0042 793.617 L64.0042 799.473 L28.3562 799.473 M14.479 799.473 L14.479 793.617 L21.895 793.617 L21.895 799.473 L14.479 799.473 Z" fill="#000000" fill-rule="nonzero" fill-opacity="1"></path><path clip-path="url(#clip030)" d="M14.479 781.363 L14.479 775.506 L64.0042 775.506 L64.0042 781.363 L14.479 781.363 Z" fill="#000000" fill-rule="nonzero" fill-opacity="1"></path><path clip-path="url(#clip030)" d="M46.0847 747.052 Q46.0847 754.149 47.7079 756.887 Q49.3312 759.624 53.2461 759.624 Q56.3653 759.624 58.2114 757.587 Q60.0256 755.518 60.0256 751.985 Q60.0256 747.115 56.5881 744.187 Q53.1188 741.227 47.3897 741.227 L46.0847 741.227 L46.0847 747.052 M43.6657 735.37 L64.0042 735.37 L64.0042 741.227 L58.5933 741.227 Q61.8398 743.232 63.3994 746.224 Q64.9272 749.216 64.9272 753.545 Q64.9272 759.019 61.8716 762.266 Q58.7843 765.48 53.6281 765.48 Q47.6125 765.48 44.5569 761.47 Q41.5014 757.428 41.5014 749.439 L41.5014 741.227 L40.9285 741.227 Q36.8862 741.227 34.6901 743.901 Q32.4621 746.542 32.4621 751.348 Q32.4621 754.404 33.1941 757.3 Q33.9262 760.197 35.3903 762.87 L29.9795 762.87 Q28.7381 759.656 28.1334 756.632 Q27.4968 753.608 27.4968 750.744 Q27.4968 743.009 31.5072 739.19 Q35.5176 735.37 43.6657 735.37 Z" fill="#000000" fill-rule="nonzero" fill-opacity="1"></path><path clip-path="url(#clip030)" d="M33.8307 702.651 Q33.2578 703.637 33.0032 704.815 Q32.7167 705.961 32.7167 707.361 Q32.7167 712.327 35.9632 715 Q39.1779 717.642 45.2253 717.642 L64.0042 717.642 L64.0042 723.53 L28.3562 723.53 L28.3562 717.642 L33.8944 717.642 Q30.6479 715.796 29.0883 712.836 Q27.4968 709.876 27.4968 705.643 Q27.4968 705.038 27.5923 704.306 Q27.656 703.574 27.8151 702.683 L33.8307 702.651 Z" fill="#000000" fill-rule="nonzero" fill-opacity="1"></path><path clip-path="url(#clip030)" d="M28.3562 696.508 L28.3562 690.651 L64.0042 690.651 L64.0042 696.508 L28.3562 696.508 M14.479 696.508 L14.479 690.651 L21.895 690.651 L21.895 696.508 L14.479 696.508 Z" fill="#000000" fill-rule="nonzero" fill-opacity="1"></path><path clip-path="url(#clip030)" d="M18.2347 672.605 L28.3562 672.605 L28.3562 660.542 L32.9077 660.542 L32.9077 672.605 L52.2594 672.605 Q56.6199 672.605 57.8613 671.427 Q59.1026 670.217 59.1026 666.557 L59.1026 660.542 L64.0042 660.542 L64.0042 666.557 Q64.0042 673.337 61.4897 675.915 Q58.9434 678.493 52.2594 678.493 L32.9077 678.493 L32.9077 682.79 L28.3562 682.79 L28.3562 678.493 L18.2347 678.493 L18.2347 672.605 Z" fill="#000000" fill-rule="nonzero" fill-opacity="1"></path><path clip-path="url(#clip030)" d="M67.3143 638.007 Q73.68 640.49 75.6216 642.845 Q77.5631 645.2 77.5631 649.147 L77.5631 653.826 L72.6615 653.826 L72.6615 650.388 Q72.6615 647.969 71.5157 646.633 Q70.3699 645.296 66.1048 643.672 L63.4312 642.622 L28.3562 657.04 L28.3562 650.834 L56.238 639.694 L28.3562 628.554 L28.3562 622.347 L67.3143 638.007 Z" fill="#000000" fill-rule="nonzero" fill-opacity="1"></path><path clip-path="url(#clip030)" d="M799.844 16.7545 L799.844 25.383 Q795.712 21.5346 791.013 19.6307 Q786.354 17.7268 781.088 17.7268 Q770.718 17.7268 765.209 24.0867 Q759.699 30.4061 759.699 42.3968 Q759.699 54.3469 765.209 60.7069 Q770.718 67.0263 781.088 67.0263 Q786.354 67.0263 791.013 65.1223 Q795.712 63.2184 799.844 59.3701 L799.844 67.9175 Q795.55 70.8341 790.729 72.2924 Q785.949 73.7508 780.602 73.7508 Q766.869 73.7508 758.97 65.3654 Q751.071 56.9395 751.071 42.3968 Q751.071 27.8135 758.97 19.4281 Q766.869 11.0023 780.602 11.0023 Q786.03 11.0023 790.81 12.4606 Q795.631 13.8784 799.844 16.7545 Z" fill="#000000" fill-rule="nonzero" fill-opacity="1"></path><path clip-path="url(#clip030)" d="M829.739 32.4315 Q823.744 32.4315 820.26 37.1306 Q816.777 41.7891 816.777 49.9314 Q816.777 58.0738 820.22 62.7728 Q823.704 67.4314 829.739 67.4314 Q835.694 67.4314 839.178 62.7323 Q842.662 58.0333 842.662 49.9314 Q842.662 41.8701 839.178 37.1711 Q835.694 32.4315 829.739 32.4315 M829.739 26.1121 Q839.462 26.1121 845.011 32.4315 Q850.561 38.7509 850.561 49.9314 Q850.561 61.0714 845.011 67.4314 Q839.462 73.7508 829.739 73.7508 Q819.977 73.7508 814.427 67.4314 Q808.918 61.0714 808.918 49.9314 Q808.918 38.7509 814.427 32.4315 Q819.977 26.1121 829.739 26.1121 Z" fill="#000000" fill-rule="nonzero" fill-opacity="1"></path><path clip-path="url(#clip030)" d="M891.84 28.5427 L891.84 35.5912 Q888.68 33.9709 885.277 33.1607 Q881.875 32.3505 878.229 32.3505 Q872.679 32.3505 869.884 34.0519 Q867.129 35.7533 867.129 39.156 Q867.129 41.7486 869.114 43.2475 Q871.099 44.7058 877.095 46.0426 L879.647 46.6097 Q887.586 48.3111 890.908 51.4303 Q894.27 54.509 894.27 60.0587 Q894.27 66.3781 889.247 70.0644 Q884.265 73.7508 875.515 73.7508 Q871.869 73.7508 867.899 73.0216 Q863.97 72.3329 859.595 70.9151 L859.595 63.2184 Q863.727 65.3654 867.737 66.4591 Q871.747 67.5124 875.677 67.5124 Q880.943 67.5124 883.779 65.73 Q886.614 63.9071 886.614 60.6258 Q886.614 57.5877 884.548 55.9673 Q882.523 54.3469 875.596 52.8481 L873.003 52.2405 Q866.076 50.7821 862.997 47.7845 Q859.919 44.7463 859.919 39.4801 Q859.919 33.0797 864.456 29.5959 Q868.993 26.1121 877.338 26.1121 Q881.47 26.1121 885.115 26.7198 Q888.761 27.3274 891.84 28.5427 Z" fill="#000000" fill-rule="nonzero" fill-opacity="1"></path><path clip-path="url(#clip030)" d="M906.14 27.2059 L913.593 27.2059 L913.593 72.576 L906.14 72.576 L906.14 27.2059 M906.14 9.54393 L913.593 9.54393 L913.593 18.9825 L906.14 18.9825 L906.14 9.54393 Z" fill="#000000" fill-rule="nonzero" fill-opacity="1"></path><path clip-path="url(#clip030)" d="M966.903 45.1919 L966.903 72.576 L959.449 72.576 L959.449 45.4349 Q959.449 38.994 956.938 35.7938 Q954.426 32.5936 949.403 32.5936 Q943.367 32.5936 939.884 36.4419 Q936.4 40.2903 936.4 46.9338 L936.4 72.576 L928.906 72.576 L928.906 27.2059 L936.4 27.2059 L936.4 34.2544 Q939.073 30.163 942.679 28.1376 Q946.324 26.1121 951.064 26.1121 Q958.882 26.1121 962.893 30.9732 Q966.903 35.7938 966.903 45.1919 Z" fill="#000000" fill-rule="nonzero" fill-opacity="1"></path><path clip-path="url(#clip030)" d="M1020.58 48.0275 L1020.58 51.6733 L986.307 51.6733 Q986.793 59.3701 990.925 63.421 Q995.097 67.4314 1002.51 67.4314 Q1006.8 67.4314 1010.81 66.3781 Q1014.87 65.3249 1018.84 63.2184 L1018.84 70.267 Q1014.83 71.9684 1010.61 72.8596 Q1006.4 73.7508 1002.06 73.7508 Q991.209 73.7508 984.849 67.4314 Q978.529 61.1119 978.529 50.3365 Q978.529 39.1965 984.525 32.6746 Q990.56 26.1121 1000.77 26.1121 Q1009.92 26.1121 1015.23 32.0264 Q1020.58 37.9003 1020.58 48.0275 M1013.12 45.84 Q1013.04 39.7232 1009.68 36.0774 Q1006.36 32.4315 1000.85 32.4315 Q994.611 32.4315 990.844 35.9558 Q987.117 39.4801 986.55 45.8805 L1013.12 45.84 Z" fill="#000000" fill-rule="nonzero" fill-opacity="1"></path><path clip-path="url(#clip030)" d="M1088.11 28.5427 L1088.11 35.5912 Q1084.95 33.9709 1081.54 33.1607 Q1078.14 32.3505 1074.5 32.3505 Q1068.95 32.3505 1066.15 34.0519 Q1063.4 35.7533 1063.4 39.156 Q1063.4 41.7486 1065.38 43.2475 Q1067.37 44.7058 1073.36 46.0426 L1075.91 46.6097 Q1083.85 48.3111 1087.17 51.4303 Q1090.54 54.509 1090.54 60.0587 Q1090.54 66.3781 1085.51 70.0644 Q1080.53 73.7508 1071.78 73.7508 Q1068.14 73.7508 1064.17 73.0216 Q1060.24 72.3329 1055.86 70.9151 L1055.86 63.2184 Q1059.99 65.3654 1064 66.4591 Q1068.01 67.5124 1071.94 67.5124 Q1077.21 67.5124 1080.04 65.73 Q1082.88 63.9071 1082.88 60.6258 Q1082.88 57.5877 1080.81 55.9673 Q1078.79 54.3469 1071.86 52.8481 L1069.27 52.2405 Q1062.34 50.7821 1059.26 47.7845 Q1056.19 44.7463 1056.19 39.4801 Q1056.19 33.0797 1060.72 29.5959 Q1065.26 26.1121 1073.6 26.1121 Q1077.74 26.1121 1081.38 26.7198 Q1085.03 27.3274 1088.11 28.5427 Z" fill="#000000" fill-rule="nonzero" fill-opacity="1"></path><path clip-path="url(#clip030)" d="M1102.41 27.2059 L1109.86 27.2059 L1109.86 72.576 L1102.41 72.576 L1102.41 27.2059 M1102.41 9.54393 L1109.86 9.54393 L1109.86 18.9825 L1102.41 18.9825 L1102.41 9.54393 Z" fill="#000000" fill-rule="nonzero" fill-opacity="1"></path><path clip-path="url(#clip030)" d="M1160.78 35.9153 Q1163.57 30.8922 1167.46 28.5022 Q1171.35 26.1121 1176.62 26.1121 Q1183.71 26.1121 1187.56 31.0947 Q1191.4 36.0368 1191.4 45.1919 L1191.4 72.576 L1183.91 72.576 L1183.91 45.4349 Q1183.91 38.913 1181.6 35.7533 Q1179.29 32.5936 1174.55 32.5936 Q1168.76 32.5936 1165.4 36.4419 Q1162.04 40.2903 1162.04 46.9338 L1162.04 72.576 L1154.54 72.576 L1154.54 45.4349 Q1154.54 38.8725 1152.23 35.7533 Q1149.92 32.5936 1145.1 32.5936 Q1139.39 32.5936 1136.03 36.4824 Q1132.67 40.3308 1132.67 46.9338 L1132.67 72.576 L1125.17 72.576 L1125.17 27.2059 L1132.67 27.2059 L1132.67 34.2544 Q1135.22 30.082 1138.78 28.0971 Q1142.35 26.1121 1147.25 26.1121 Q1152.19 26.1121 1155.63 28.6237 Q1159.12 31.1352 1160.78 35.9153 Z" fill="#000000" fill-rule="nonzero" fill-opacity="1"></path><path clip-path="url(#clip030)" d="M1235.19 28.5427 L1235.19 35.5912 Q1232.03 33.9709 1228.63 33.1607 Q1225.23 32.3505 1221.58 32.3505 Q1216.03 32.3505 1213.24 34.0519 Q1210.48 35.7533 1210.48 39.156 Q1210.48 41.7486 1212.47 43.2475 Q1214.45 44.7058 1220.45 46.0426 L1223 46.6097 Q1230.94 48.3111 1234.26 51.4303 Q1237.63 54.509 1237.63 60.0587 Q1237.63 66.3781 1232.6 70.0644 Q1227.62 73.7508 1218.87 73.7508 Q1215.22 73.7508 1211.25 73.0216 Q1207.32 72.3329 1202.95 70.9151 L1202.95 63.2184 Q1207.08 65.3654 1211.09 66.4591 Q1215.1 67.5124 1219.03 67.5124 Q1224.3 67.5124 1227.13 65.73 Q1229.97 63.9071 1229.97 60.6258 Q1229.97 57.5877 1227.9 55.9673 Q1225.88 54.3469 1218.95 52.8481 L1216.36 52.2405 Q1209.43 50.7821 1206.35 47.7845 Q1203.27 44.7463 1203.27 39.4801 Q1203.27 33.0797 1207.81 29.5959 Q1212.35 26.1121 1220.69 26.1121 Q1224.82 26.1121 1228.47 26.7198 Q1232.12 27.3274 1235.19 28.5427 Z" fill="#000000" fill-rule="nonzero" fill-opacity="1"></path><path clip-path="url(#clip030)" d="M1308.52 28.9478 L1308.52 35.9153 Q1305.36 34.1734 1302.16 33.3227 Q1299 32.4315 1295.76 32.4315 Q1288.5 32.4315 1284.49 37.0496 Q1280.48 41.6271 1280.48 49.9314 Q1280.48 58.2358 1284.49 62.8538 Q1288.5 67.4314 1295.76 67.4314 Q1299 67.4314 1302.16 66.5807 Q1305.36 65.6895 1308.52 63.9476 L1308.52 70.8341 Q1305.4 72.2924 1302.03 73.0216 Q1298.71 73.7508 1294.95 73.7508 Q1284.7 73.7508 1278.66 67.3098 Q1272.62 60.8689 1272.62 49.9314 Q1272.62 38.832 1278.7 32.472 Q1284.82 26.1121 1295.43 26.1121 Q1298.87 26.1121 1302.16 26.8413 Q1305.44 27.5299 1308.52 28.9478 Z" fill="#000000" fill-rule="nonzero" fill-opacity="1"></path><path clip-path="url(#clip030)" d="M1360.29 48.0275 L1360.29 51.6733 L1326.02 51.6733 Q1326.5 59.3701 1330.63 63.421 Q1334.81 67.4314 1342.22 67.4314 Q1346.51 67.4314 1350.52 66.3781 Q1354.57 65.3249 1358.54 63.2184 L1358.54 70.267 Q1354.53 71.9684 1350.32 72.8596 Q1346.11 73.7508 1341.77 73.7508 Q1330.92 73.7508 1324.56 67.4314 Q1318.24 61.1119 1318.24 50.3365 Q1318.24 39.1965 1324.23 32.6746 Q1330.27 26.1121 1340.48 26.1121 Q1349.63 26.1121 1354.94 32.0264 Q1360.29 37.9003 1360.29 48.0275 M1352.83 45.84 Q1352.75 39.7232 1349.39 36.0774 Q1346.07 32.4315 1340.56 32.4315 Q1334.32 32.4315 1330.55 35.9558 Q1326.83 39.4801 1326.26 45.8805 L1352.83 45.84 Z" fill="#000000" fill-rule="nonzero" fill-opacity="1"></path><path clip-path="url(#clip030)" d="M1372.52 9.54393 L1379.97 9.54393 L1379.97 72.576 L1372.52 72.576 L1372.52 9.54393 Z" fill="#000000" fill-rule="nonzero" fill-opacity="1"></path><path clip-path="url(#clip030)" d="M1395.57 9.54393 L1403.02 9.54393 L1403.02 72.576 L1395.57 72.576 L1395.57 9.54393 Z" fill="#000000" fill-rule="nonzero" fill-opacity="1"></path><path clip-path="url(#clip030)" d="M1447.46 65.6895 L1460.83 65.6895 L1460.83 19.5497 L1446.29 22.4663 L1446.29 15.0127 L1460.75 12.096 L1468.93 12.096 L1468.93 65.6895 L1482.3 65.6895 L1482.3 72.576 L1447.46 72.576 L1447.46 65.6895 Z" fill="#000000" fill-rule="nonzero" fill-opacity="1"></path><path clip-path="url(#clip030)" d="M1516.33 17.4837 Q1510.01 17.4837 1506.81 23.7221 Q1503.65 29.92 1503.65 42.3968 Q1503.65 54.833 1506.81 61.0714 Q1510.01 67.2693 1516.33 67.2693 Q1522.69 67.2693 1525.85 61.0714 Q1529.05 54.833 1529.05 42.3968 Q1529.05 29.92 1525.85 23.7221 Q1522.69 17.4837 1516.33 17.4837 M1516.33 11.0023 Q1526.49 11.0023 1531.84 19.0636 Q1537.23 27.0843 1537.23 42.3968 Q1537.23 57.6687 1531.84 65.73 Q1526.49 73.7508 1516.33 73.7508 Q1506.16 73.7508 1500.77 65.73 Q1495.42 57.6687 1495.42 42.3968 Q1495.42 27.0843 1500.77 19.0636 Q1506.16 11.0023 1516.33 11.0023 Z" fill="#000000" fill-rule="nonzero" fill-opacity="1"></path><path clip-path="url(#clip030)" d="M1569.11 17.4837 Q1562.79 17.4837 1559.59 23.7221 Q1556.43 29.92 1556.43 42.3968 Q1556.43 54.833 1559.59 61.0714 Q1562.79 67.2693 1569.11 67.2693 Q1575.47 67.2693 1578.63 61.0714 Q1581.83 54.833 1581.83 42.3968 Q1581.83 29.92 1578.63 23.7221 Q1575.47 17.4837 1569.11 17.4837 M1569.11 11.0023 Q1579.28 11.0023 1584.63 19.0636 Q1590.01 27.0843 1590.01 42.3968 Q1590.01 57.6687 1584.63 65.73 Q1579.28 73.7508 1569.11 73.7508 Q1558.94 73.7508 1553.56 65.73 Q1548.21 57.6687 1548.21 42.3968 Q1548.21 27.0843 1553.56 19.0636 Q1558.94 11.0023 1569.11 11.0023 Z" fill="#000000" fill-rule="nonzero" fill-opacity="1"></path><path clip-path="url(#clip030)" d="M1629.71 27.2059 L1637.17 27.2059 L1637.17 72.576 L1629.71 72.576 L1629.71 27.2059 M1629.71 9.54393 L1637.17 9.54393 L1637.17 18.9825 L1629.71 18.9825 L1629.71 9.54393 Z" fill="#000000" fill-rule="nonzero" fill-opacity="1"></path><path clip-path="url(#clip030)" d="M1660.13 14.324 L1660.13 27.2059 L1675.49 27.2059 L1675.49 32.9987 L1660.13 32.9987 L1660.13 57.6282 Q1660.13 63.1779 1661.63 64.7578 Q1663.17 66.3376 1667.83 66.3376 L1675.49 66.3376 L1675.49 72.576 L1667.83 72.576 Q1659.2 72.576 1655.92 69.3758 Q1652.64 66.1351 1652.64 57.6282 L1652.64 32.9987 L1647.17 32.9987 L1647.17 27.2059 L1652.64 27.2059 L1652.64 14.324 L1660.13 14.324 Z" fill="#000000" fill-rule="nonzero" fill-opacity="1"></path><path clip-path="url(#clip030)" d="M1724.1 48.0275 L1724.1 51.6733 L1689.83 51.6733 Q1690.31 59.3701 1694.45 63.421 Q1698.62 67.4314 1706.03 67.4314 Q1710.33 67.4314 1714.34 66.3781 Q1718.39 65.3249 1722.36 63.2184 L1722.36 70.267 Q1718.35 71.9684 1714.13 72.8596 Q1709.92 73.7508 1705.59 73.7508 Q1694.73 73.7508 1688.37 67.4314 Q1682.05 61.1119 1682.05 50.3365 Q1682.05 39.1965 1688.05 32.6746 Q1694.08 26.1121 1704.29 26.1121 Q1713.44 26.1121 1718.75 32.0264 Q1724.1 37.9003 1724.1 48.0275 M1716.64 45.84 Q1716.56 39.7232 1713.2 36.0774 Q1709.88 32.4315 1704.37 32.4315 Q1698.13 32.4315 1694.36 35.9558 Q1690.64 39.4801 1690.07 45.8805 L1716.64 45.84 Z" fill="#000000" fill-rule="nonzero" fill-opacity="1"></path><path clip-path="url(#clip030)" d="M1762.62 34.1734 Q1761.37 33.4443 1759.87 33.1202 Q1758.41 32.7556 1756.63 32.7556 Q1750.31 32.7556 1746.9 36.8875 Q1743.54 40.9789 1743.54 48.6757 L1743.54 72.576 L1736.05 72.576 L1736.05 27.2059 L1743.54 27.2059 L1743.54 34.2544 Q1745.89 30.1225 1749.66 28.1376 Q1753.43 26.1121 1758.81 26.1121 Q1759.58 26.1121 1760.52 26.2337 Q1761.45 26.3147 1762.58 26.5172 L1762.62 34.1734 Z" fill="#000000" fill-rule="nonzero" fill-opacity="1"></path><path clip-path="url(#clip030)" d="M1799.28 65.6895 L1812.65 65.6895 L1812.65 19.5497 L1798.11 22.4663 L1798.11 15.0127 L1812.57 12.096 L1820.75 12.096 L1820.75 65.6895 L1834.12 65.6895 L1834.12 72.576 L1799.28 72.576 L1799.28 65.6895 Z" fill="#000000" fill-rule="nonzero" fill-opacity="1"></path><path clip-path="url(#clip030)" d="M1868.15 17.4837 Q1861.83 17.4837 1858.63 23.7221 Q1855.47 29.92 1855.47 42.3968 Q1855.47 54.833 1858.63 61.0714 Q1861.83 67.2693 1868.15 67.2693 Q1874.51 67.2693 1877.67 61.0714 Q1880.87 54.833 1880.87 42.3968 Q1880.87 29.92 1877.67 23.7221 Q1874.51 17.4837 1868.15 17.4837 M1868.15 11.0023 Q1878.32 11.0023 1883.66 19.0636 Q1889.05 27.0843 1889.05 42.3968 Q1889.05 57.6687 1883.66 65.73 Q1878.32 73.7508 1868.15 73.7508 Q1857.98 73.7508 1852.59 65.73 Q1847.25 57.6687 1847.25 42.3968 Q1847.25 27.0843 1852.59 19.0636 Q1857.98 11.0023 1868.15 11.0023 Z" fill="#000000" fill-rule="nonzero" fill-opacity="1"></path><polyline clip-path="url(#clip032)" style="stroke:#009af9; stroke-linecap:round; stroke-linejoin:round; stroke-width:4; stroke-opacity:1; fill:none" points="345.82,242.01 347.771,259.592 349.721,217.009 351.672,222.737 353.622,177.86 355.572,186.505 357.523,212.372 359.473,238.037 361.424,248.003 363.374,183.647 365.325,216.893 367.275,225.691 369.226,255.534 371.176,220.796 373.126,293.465 375.077,227.207 377.027,228.718 378.978,203.346 380.928,223.766 382.879,195.914 384.829,233.821 386.779,215.979 388.73,198.309 390.68,234.394 392.631,209.891 394.581,204.238 396.532,198.365 398.482,216.156 400.432,236.489 402.383,180.862 404.333,234.786 406.284,200.586 408.234,248.36 410.185,227.963 412.135,234.358 414.085,215.99 416.036,237.942 417.986,215.564 419.937,236.217 421.887,222.629 423.838,209.358 425.788,221.774 427.738,217.644 429.689,190.829 431.639,271.406 433.59,218.266 435.54,253.612 437.491,241.905 439.441,223.169 441.391,281.567 443.342,211.288 445.292,255.766 447.243,227.669 449.193,214.28 451.144,230.844 453.094,241.555 455.045,217.722 456.995,217.83 458.945,197.816 460.896,202.169 462.846,212.375 464.797,288.017 466.747,256.769 468.698,188.698 470.648,239.477 472.598,218.916 474.549,241.651 476.499,217.469 478.45,228.539 480.4,225.471 482.351,208.968 484.301,232.796 486.251,226.693 488.202,264.586 490.152,224.05 492.103,252.136 494.053,240.206 496.004,199.45 497.954,242.707 499.904,204.909 501.855,271.689 503.805,276.41 505.756,231.291 507.706,222.698 509.657,215.312 511.607,207.39 513.557,231.614 515.508,226.968 517.458,235.026 519.409,255.873 521.359,227.509 523.31,206.271 525.26,236.658 527.21,223.423 529.161,224.637 531.111,235.776 533.062,239.775 535.012,187.665 536.963,223.589 538.913,243.696 540.863,225.864 542.814,196.792 544.764,235.835 546.715,202.294 548.665,246.976 550.616,203.452 552.566,212.796 554.517,226.011 556.467,240.46 558.417,233.462 560.368,214.66 562.318,224 564.269,217.42 566.219,190.59 568.17,205.968 570.12,210.768 572.07,223.156 574.021,200.844 575.971,199.92 577.922,194.16 579.872,225.199 581.823,220.633 583.773,252.336 585.723,200.303 587.674,209.255 589.624,160.256 591.575,220.661 593.525,170.529 595.476,234.611 597.426,246.578 599.376,224.196 601.327,211.952 603.277,215.482 605.228,226.318 607.178,228.098 609.129,223.057 611.079,252.047 613.029,225.14 614.98,244.144 616.93,292.666 618.881,224.224 620.831,218.083 622.782,271.615 624.732,240.428 626.682,196.121 628.633,252.484 630.583,221.021 632.534,208.169 634.484,310.582 636.435,228.018 638.385,226.026 640.336,224.269 642.286,217.214 644.236,250.091 646.187,240.577 648.137,224.997 650.088,195.333 652.038,255.621 653.989,252.208 655.939,231.633 657.889,223.839 659.84,207.167 661.79,233.337 663.741,344.207 665.691,227.097 667.642,199.791 669.592,225.837 671.542,224.302 673.493,267.235 675.443,249.95 677.394,236.882 679.344,229.152 681.295,242.008 683.245,213.577 685.195,213.015 687.146,265.537 689.096,208.273 691.047,210.598 692.997,234.004 694.948,218.282 696.898,189.797 698.848,229.382 700.799,231.994 702.749,223.15 704.7,215.707 706.65,212.811 708.601,216.273 710.551,218.889 712.501,233.644 714.452,193.712 716.402,240.858 718.353,232.97 720.303,218.036 722.254,222.26 724.204,209.736 726.154,227.206 728.105,241.796 730.055,223.051 732.006,188.614 733.956,240.474 735.907,232.348 737.857,211.74 739.808,199.237 741.758,265.039 743.708,227.411 745.659,211.697 747.609,261.05 749.56,230.014 751.51,193.187 753.461,205.685 755.411,207.705 757.361,237.493 759.312,217.63 761.262,232.747 763.213,226.905 765.163,200.038 767.114,233.275 769.064,216.401 771.014,364.666 772.965,204.311 774.915,199.815 776.866,193.238 778.816,217.659 780.767,217.317 782.717,257.063 784.667,240.237 786.618,224.973 788.568,223.391 790.519,223.329 792.469,188.778 794.42,223.014 796.37,208.261 798.32,253.165 800.271,206.309 802.221,212.044 804.172,192.697 806.122,245.63 808.073,241.228 810.023,225.331 811.973,211.233 813.924,207.937 815.874,211.717 817.825,192.429 819.775,191.347 821.726,232.119 823.676,199.498 825.627,192.36 827.577,229.643 829.527,186.92 831.478,252.849 833.428,1048.88 835.379,1076.14 837.329,1109.19 839.28,1109.12 841.23,937.403 843.18,1107.5 845.131,1127.76 847.081,1098.5 849.032,1108.3 850.982,1109.79 852.933,1020.12 854.883,976.793 856.833,1013.72 858.784,1069.03 860.734,1101.67 862.685,931.503 864.635,1098.69 866.586,977.507 868.536,1001.42 870.486,1126.15 872.437,1010.39 874.387,1114.19 876.338,1005.67 878.288,1058.77 880.239,1000.76 882.189,993.907 884.139,983.517 886.09,1042.62 888.04,1088.72 889.991,1049.17 891.941,1069.88 893.892,997.622 895.842,1046.03 897.792,1056.9 899.743,995.941 901.693,1036.15 903.644,1003.99 905.594,1010.49 907.545,992.293 909.495,1038.91 911.445,1014.92 913.396,990.738 915.346,938.881 917.297,1030.29 919.247,1256.73 921.198,1079.74 923.148,952.613 925.099,1113.69 927.049,1144.04 928.999,1038.6 930.95,1048.79 932.9,959.152 934.851,1029.8 936.801,1080.36 938.752,1097.05 940.702,1048.83 942.652,1017.49 944.603,1008.57 946.553,1026.36 948.504,1025.96 950.454,979.983 952.405,1004.98 954.355,1102.6 956.305,1103.26 958.256,1045.18 960.206,987.928 962.157,1033.91 964.107,1025.71 966.058,1064.32 968.008,1003.51 969.958,941.253 971.909,1069.11 973.859,1028.63 975.81,1071.98 977.76,989.862 979.711,972.296 981.661,1115.53 983.611,985.102 985.562,1040.4 987.512,1025.95 989.463,1072.81 991.413,1094.14 993.364,1014.94 995.314,998.47 997.264,1043.81 999.215,1031.3 1001.17,1039.53 1003.12,1015.8 1005.07,1030.11 1007.02,1109.3 1008.97,1052.02 1010.92,996.459 1012.87,1071.38 1014.82,1011.46 1016.77,1049.38 1018.72,996.026 1020.67,1031.61 1022.62,1009.71 1024.57,1043.71 1026.52,1057.92 1028.47,1003.98 1030.42,1003.19 1032.37,1033.79 1034.32,1098.12 1036.27,1023.28 1038.22,982.029 1040.17,1102.45 1042.12,946.507 1044.07,1005.74 1046.03,950.303 1047.98,1028.4 1049.93,935.553 1051.88,1026.09 1053.83,1021.02 1055.78,989.855 1057.73,1043.88 1059.68,1032.27 1061.63,1004.98 1063.58,953.248 1065.53,1054.88 1067.48,1050.44 1069.43,971.951 1071.38,989.997 1073.33,1037.06 1075.28,958.365 1077.23,1067.3 1079.18,983.159 1081.13,1052.94 1083.08,1066 1085.03,1101.25 1086.98,1091.32 1088.93,986.097 1090.89,1043.25 1092.84,1071.47 1094.79,1042.13 1096.74,975.375 1098.69,1054.32 1100.64,1086.64 1102.59,977.655 1104.54,1115.34 1106.49,1001.69 1108.44,1067.2 1110.39,1166.55 1112.34,1003.64 1114.29,1004.23 1116.24,1023.33 1118.19,1043.61 1120.14,1150.08 1122.09,1029.04 1124.04,1069.21 1125.99,957.519 1127.94,1004.89 1129.89,997.999 1131.84,997.39 1133.79,1059.79 1135.75,1052.37 1137.7,1038.45 1139.65,1020.34 1141.6,995.288 1143.55,997.318 1145.5,1063.23 1147.45,1023.91 1149.4,962.55 1151.35,992.667 1153.3,1024.4 1155.25,1105.42 1157.2,1089.33 1159.15,943.141 1161.1,1043.95 1163.05,1020.56 1165,976.39 1166.95,1055.65 1168.9,930.605 1170.85,1021.65 1172.8,936.639 1174.75,1022.49 1176.7,993.518 1178.65,1216.22 1180.61,1075.97 1182.56,1059.36 1184.51,1063.34 1186.46,1089.09 1188.41,969.883 1190.36,951.897 1192.31,1060.47 1194.26,1053.47 1196.21,1023.87 1198.16,1016.01 1200.11,924.927 1202.06,1000.66 1204.01,937.85 1205.96,1032.77 1207.91,998.058 1209.86,1038.62 1211.81,1117.26 1213.76,1018.94 1215.71,1102.35 1217.66,1004.71 1219.61,1042.11 1221.56,1113.41 1223.51,1083.07 1225.46,939.705 1227.42,1042.66 1229.37,1085.64 1231.32,1068.03 1233.27,1034.74 1235.22,1117.21 1237.17,1044.58 1239.12,983.262 1241.07,1045.42 1243.02,1068.84 1244.97,1059.16 1246.92,970.599 1248.87,1081.5 1250.82,1024.32 1252.77,1014.67 1254.72,1022.9 1256.67,1001.04 1258.62,1006 1260.57,1003.24 1262.52,1018.22 1264.47,1019.21 1266.42,1034.15 1268.37,1063.71 1270.32,1049.4 1272.28,1022.04 1274.23,1128.23 1276.18,959.416 1278.13,1008.87 1280.08,1057.85 1282.03,978.031 1283.98,1014.26 1285.93,1051.69 1287.88,965.27 1289.83,975.561 1291.78,1075.79 1293.73,1034.9 1295.68,1100.15 1297.63,943.515 1299.58,950.336 1301.53,960.355 1303.48,1035.82 1305.43,1065.8 1307.38,1169.29 1309.33,1088.84 1311.28,987.753 1313.23,973.43 1315.18,1027.85 1317.14,1095.2 1319.09,1138.93 1321.04,1339.99 1322.99,1334.36 1324.94,1344.88 1326.89,1349.77 1328.84,1342.17 1330.79,1313.36 1332.74,1344.4 1334.69,1322.95 1336.64,1330.95 1338.59,1338.33 1340.54,1344.34 1342.49,1319.41 1344.44,1334.2 1346.39,1349.47 1348.34,1318.74 1350.29,1315.57 1352.24,1352.12 1354.19,1321.01 1356.14,1326.33 1358.09,1328.38 1360.04,1317.78 1362,1336.73 1363.95,1323.98 1365.9,1326.03 1367.85,1335.78 1369.8,1329.03 1371.75,1306.23 1373.7,1327.56 1375.65,1319.89 1377.6,1342.48 1379.55,1292.03 1381.5,1328.66 1383.45,1325.72 1385.4,1344.09 1387.35,1333.83 1389.3,1331.96 1391.25,1343.08 1393.2,1338.73 1395.15,1338.46 1397.1,1339.93 1399.05,1329.66 1401,1335.6 1402.95,1355.7 1404.9,1323.28 1406.86,1376.27 1408.81,1346.32 1410.76,1310.68 1412.71,1343.78 1414.66,1348.36 1416.61,1336.99 1418.56,1307.75 1420.51,1346.7 1422.46,1339.77 1424.41,1324.57 1426.36,1325.82 1428.31,1332.39 1430.26,1328.41 1432.21,1327.74 1434.16,1322.22 1436.11,1354.27 1438.06,1306.32 1440.01,1344.95 1441.96,1343.56 1443.91,1269.74 1445.86,1321.89 1447.81,1334.91 1449.76,1335.98 1451.72,1332.19 1453.67,1332.18 1455.62,1354.94 1457.57,1311.21 1459.52,1321.78 1461.47,1249.99 1463.42,1324.74 1465.37,1354.45 1467.32,1299.66 1469.27,1308.67 1471.22,1359.82 1473.17,1314 1475.12,1284.02 1477.07,1342.55 1479.02,1321.71 1480.97,1306.14 1482.92,1334.79 1484.87,1323.31 1486.82,1344.1 1488.77,1318.53 1490.72,1348.27 1492.67,1342.68 1494.62,1336.38 1496.57,1334.02 1498.53,1289.06 1500.48,1313.51 1502.43,1314.23 1504.38,1327.75 1506.33,1339.16 1508.28,1342.03 1510.23,1343.8 1512.18,1332.06 1514.13,1313.25 1516.08,1342.99 1518.03,1354.08 1519.98,1339.96 1521.93,1326.18 1523.88,1314.62 1525.83,1351.08 1527.78,1343.58 1529.73,1309.55 1531.68,1327.95 1533.63,1329.8 1535.58,1341.99 1537.53,1355.16 1539.48,1351.75 1541.43,1327.86 1543.39,1358.77 1545.34,1343.1 1547.29,1354.14 1549.24,1338.67 1551.19,1328.36 1553.14,1338.44 1555.09,1336.56 1557.04,1344.11 1558.99,1341.01 1560.94,1347.53 1562.89,1354.09 1564.84,1327.15 1566.79,1316.92 1568.74,1338.55 1570.69,1323.47 1572.64,1343.5 1574.59,1375.44 1576.54,1327.37 1578.49,1332.3 1580.44,1330.06 1582.39,1339.15 1584.34,1317.1 1586.29,1319.87 1588.25,1323.17 1590.2,1340.55 1592.15,1335.84 1594.1,1344.69 1596.05,1327.1 1598,1325.09 1599.95,1354.47 1601.9,1311.26 1603.85,1331.35 1605.8,1347.1 1607.75,1327.59 1609.7,1348.51 1611.65,1317.1 1613.6,1348.18 1615.55,1316.52 1617.5,1343.17 1619.45,1281.37 1621.4,1346.08 1623.35,1374.48 1625.3,1343.73 1627.25,1300.49 1629.2,1322.11 1631.15,1330.74 1633.11,1319.58 1635.06,1297.56 1637.01,1356.36 1638.96,1299.47 1640.91,1342.05 1642.86,1320.34 1644.81,1329.06 1646.76,1306.71 1648.71,1327.42 1650.66,1357.28 1652.61,1342.68 1654.56,1343.66 1656.51,1335.02 1658.46,1304.96 1660.41,1335.04 1662.36,1311.84 1664.31,1340.78 1666.26,1338.2 1668.21,1323.54 1670.16,1290.29 1672.11,1338.33 1674.06,1345.17 1676.01,1354.15 1677.97,1328.37 1679.92,1321.53 1681.87,1334.19 1683.82,1331.79 1685.77,1329.9 1687.72,1321.9 1689.67,1334.71 1691.62,1295.31 1693.57,1330.95 1695.52,1323.38 1697.47,1362.44 1699.42,1334.23 1701.37,1335.78 1703.32,1317.84 1705.27,1335.92 1707.22,1315.73 1709.17,1330.04 1711.12,1317.13 1713.07,1317.2 1715.02,1325.04 1716.97,1327.99 1718.92,1342.38 1720.87,1349.94 1722.83,1313.15 1724.78,1308.86 1726.73,1320.92 1728.68,1312.81 1730.63,1309.25 1732.58,1354.94 1734.53,1330.49 1736.48,1321.56 1738.43,1359.74 1740.38,1319.9 1742.33,1335.46 1744.28,1326.2 1746.23,1337.8 1748.18,1312.67 1750.13,1341.55 1752.08,1324.44 1754.03,1300.92 1755.98,1338.07 1757.93,1318.92 1759.88,1319.85 1761.83,1341.15 1763.78,1319.05 1765.73,1341.82 1767.68,1339.83 1769.64,1300.39 1771.59,1370.61 1773.54,1322.6 1775.49,1336.55 1777.44,1386.4 1779.39,1340.9 1781.34,1335.1 1783.29,1336.99 1785.24,1332.38 1787.19,1281.48 1789.14,1320.3 1791.09,1341.05 1793.04,1329.38 1794.99,1320.57 1796.94,1358.18 1798.89,1331.2 1800.84,1330.49 1802.79,1334.52 1804.74,1325.48 1806.69,1300.8 1808.64,512.248 1810.59,573.725 1812.54,546.122 1814.5,568.493 1816.45,608.054 1818.4,538.244 1820.35,560.504 1822.3,515.628 1824.25,542.987 1826.2,520.661 1828.15,539.349 1830.1,566.871 1832.05,555.729 1834,501.287 1835.95,548.164 1837.9,548.329 1839.85,559.216 1841.8,582.156 1843.75,472.898 1845.7,483.228 1847.65,577.395 1849.6,503.701 1851.55,572.199 1853.5,528.939 1855.45,560.176 1857.4,558.902 1859.36,499.527 1861.31,478.901 1863.26,538.411 1865.21,472.773 1867.16,567.86 1869.11,437.839 1871.06,556.611 1873.01,548.026 1874.96,517.802 1876.91,516.29 1878.86,592.599 1880.81,533.143 1882.76,516.287 1884.71,446.228 1886.66,571.068 1888.61,577.3 1890.56,456.694 1892.51,529.933 1894.46,522.396 1896.41,527.267 1898.36,538.269 1900.31,533.583 1902.26,557.747 1904.22,564.188 1906.17,585.171 1908.12,502.478 1910.07,466.946 1912.02,552.389 1913.97,521.758 1915.92,508.087 1917.87,555.015 1919.82,483.058 1921.77,558.766 1923.72,519.343 1925.67,552.982 1927.62,535.829 1929.57,538.579 1931.52,519.945 1933.47,451.058 1935.42,447.587 1937.37,476.881 1939.32,536.319 1941.27,501.279 1943.22,542.42 1945.17,526.577 1947.12,462.022 1949.08,555.431 1951.03,520.42 1952.98,571.138 1954.93,562.539 1956.88,521.251 1958.83,555.43 1960.78,522.011 1962.73,518.364 1964.68,542.928 1966.63,584.52 1968.58,500.539 1970.53,517.001 1972.48,613.613 1974.43,563.659 1976.38,555.788 1978.33,532.737 1980.28,513.764 1982.23,544.249 1984.18,580.144 1986.13,502.681 1988.08,573.943 1990.03,473.438 1991.98,440.333 1993.94,530.479 1995.89,441.95 1997.84,450.537 1999.79,554.306 2001.74,523.442 2003.69,516.65 2005.64,552.523 2007.59,547.446 2009.54,525.968 2011.49,563.189 2013.44,502.776 2015.39,597.878 2017.34,470.027 2019.29,571.762 2021.24,495.951 2023.19,577.48 2025.14,539.134 2027.09,520.146 2029.04,465.33 2030.99,489.188 2032.94,500.494 2034.89,486.925 2036.84,569.382 2038.79,461.434 2040.75,555.716 2042.7,557.101 2044.65,617.395 2046.6,529.456 2048.55,736.951 2050.5,396.338 2052.45,498.038 2054.4,384.351 2056.35,529.691 2058.3,445.479 2060.25,484.488 2062.2,566.25 2064.15,508.376 2066.1,494.996 2068.05,587.913 2070,470.513 2071.95,500.685 2073.9,517.555 2075.85,535.362 2077.8,553.464 2079.75,576.115 2081.7,410.336 2083.65,556.228 2085.61,538.946 2087.56,537.442 2089.51,573.731 2091.46,553.999 2093.41,534.209 2095.36,529.148 2097.31,564.186 2099.26,530.45 2101.21,475.535 2103.16,575.653 2105.11,520.551 2107.06,514.267 2109.01,526.131 2110.96,464.823 2112.91,483.452 2114.86,575.569 2116.81,497.928 2118.76,460.792 2120.71,581.007 2122.66,502.343 2124.61,522.264 2126.56,516.301 2128.51,525.051 2130.47,462.785 2132.42,530.34 2134.37,512.59 2136.32,518.009 2138.27,533.728 2140.22,392.171 2142.17,511.172 2144.12,575.698 2146.07,574.038 2148.02,562.477 2149.97,508.222 2151.92,564.069 2153.87,526.15 2155.82,564.512 2157.77,558.724 2159.72,460.944 2161.67,548.904 2163.62,539.593 2165.57,511.167 2167.52,567.229 2169.47,513.788 2171.42,537.555 2173.37,564.307 2175.33,559.085 2177.28,594.731 2179.23,587.014 2181.18,485.296 2183.13,524.149 2185.08,597.174 2187.03,539.442 2188.98,550.238 2190.93,501.433 2192.88,442.324 2194.83,432.746 2196.78,451.461 2198.73,554.782 2200.68,527.269 2202.63,545.387 2204.58,500.094 2206.53,566.984 2208.48,558.263 2210.43,482.98 2212.38,522.845 2214.33,512.352 2216.28,548.706 2218.23,527.909 2220.19,566.752 2222.14,546.582 2224.09,575.481 2226.04,605.273 2227.99,514.646 2229.94,535.803 2231.89,541.484 2233.84,551.796 2235.79,604.23 2237.74,558.143 2239.69,581.252 2241.64,588.798 2243.59,519.752 2245.54,518.867 2247.49,516.351 2249.44,498.81 2251.39,533.178 2253.34,520.333 2255.29,567.186 2257.24,582.411 2259.19,532.577 2261.14,541.381 2263.09,514.638 2265.04,467.996 2267,563.422 2268.95,521.101 2270.9,398.135 2272.85,548.995 2274.8,486.621 2276.75,506.252 2278.7,542.084 2280.65,598.008 2282.6,536.682 2284.55,462.555 2286.5,466.547 2288.45,530.631 2290.4,508.741 2292.35,605.769 2294.3,538.549 "></polyline>
<path clip-path="url(#clip030)" d="M1857.77 1379.86 L2283.91 1379.86 L2283.91 1276.18 L1857.77 1276.18  Z" fill="#ffffff" fill-rule="evenodd" fill-opacity="1"></path>
<polyline clip-path="url(#clip030)" style="stroke:#000000; stroke-linecap:round; stroke-linejoin:round; stroke-width:4; stroke-opacity:1; fill:none" points="1857.77,1379.86 2283.91,1379.86 2283.91,1276.18 1857.77,1276.18 1857.77,1379.86 "></polyline>
<polyline clip-path="url(#clip030)" style="stroke:#009af9; stroke-linecap:round; stroke-linejoin:round; stroke-width:4; stroke-opacity:1; fill:none" points="1880.71,1328.02 2018.41,1328.02 "></polyline>
<path clip-path="url(#clip030)" d="M2063.6 1311.87 L2063.6 1316.43 Q2060.94 1315.16 2058.58 1314.53 Q2056.22 1313.91 2054.02 1313.91 Q2050.2 1313.91 2048.11 1315.39 Q2046.05 1316.87 2046.05 1319.6 Q2046.05 1321.89 2047.42 1323.07 Q2048.81 1324.23 2052.65 1324.95 L2055.48 1325.53 Q2060.71 1326.52 2063.18 1329.05 Q2065.68 1331.55 2065.68 1335.76 Q2065.68 1340.78 2062.3 1343.37 Q2058.95 1345.97 2052.44 1345.97 Q2049.99 1345.97 2047.21 1345.41 Q2044.46 1344.86 2041.49 1343.77 L2041.49 1338.95 Q2044.34 1340.55 2047.07 1341.36 Q2049.8 1342.17 2052.44 1342.17 Q2056.45 1342.17 2058.62 1340.6 Q2060.8 1339.02 2060.8 1336.11 Q2060.8 1333.56 2059.23 1332.13 Q2057.67 1330.69 2054.11 1329.97 L2051.26 1329.42 Q2046.03 1328.38 2043.69 1326.15 Q2041.36 1323.93 2041.36 1319.97 Q2041.36 1315.39 2044.57 1312.75 Q2047.81 1310.11 2053.49 1310.11 Q2055.92 1310.11 2058.44 1310.55 Q2060.96 1310.99 2063.6 1311.87 Z" fill="#000000" fill-rule="nonzero" fill-opacity="1"></path><path clip-path="url(#clip030)" d="M2072.79 1319.37 L2077.05 1319.37 L2077.05 1345.3 L2072.79 1345.3 L2072.79 1319.37 M2072.79 1309.28 L2077.05 1309.28 L2077.05 1314.67 L2072.79 1314.67 L2072.79 1309.28 Z" fill="#000000" fill-rule="nonzero" fill-opacity="1"></path><path clip-path="url(#clip030)" d="M2106.15 1324.35 Q2107.74 1321.48 2109.97 1320.11 Q2112.19 1318.75 2115.2 1318.75 Q2119.25 1318.75 2121.45 1321.59 Q2123.65 1324.42 2123.65 1329.65 L2123.65 1345.3 L2119.36 1345.3 L2119.36 1329.79 Q2119.36 1326.06 2118.04 1324.25 Q2116.73 1322.45 2114.02 1322.45 Q2110.71 1322.45 2108.79 1324.65 Q2106.86 1326.85 2106.86 1330.64 L2106.86 1345.3 L2102.58 1345.3 L2102.58 1329.79 Q2102.58 1326.04 2101.26 1324.25 Q2099.94 1322.45 2097.19 1322.45 Q2093.92 1322.45 2092 1324.67 Q2090.08 1326.87 2090.08 1330.64 L2090.08 1345.3 L2085.8 1345.3 L2085.8 1319.37 L2090.08 1319.37 L2090.08 1323.4 Q2091.54 1321.01 2093.58 1319.88 Q2095.61 1318.75 2098.42 1318.75 Q2101.24 1318.75 2103.21 1320.18 Q2105.2 1321.62 2106.15 1324.35 Z" fill="#000000" fill-rule="nonzero" fill-opacity="1"></path><path clip-path="url(#clip030)" d="M2132.14 1319.37 L2136.4 1319.37 L2136.4 1345.3 L2132.14 1345.3 L2132.14 1319.37 M2132.14 1309.28 L2136.4 1309.28 L2136.4 1314.67 L2132.14 1314.67 L2132.14 1309.28 Z" fill="#000000" fill-rule="nonzero" fill-opacity="1"></path><path clip-path="url(#clip030)" d="M2145.31 1309.28 L2149.57 1309.28 L2149.57 1345.3 L2145.31 1345.3 L2145.31 1309.28 Z" fill="#000000" fill-rule="nonzero" fill-opacity="1"></path><path clip-path="url(#clip030)" d="M2170.27 1332.26 Q2165.1 1332.26 2163.11 1333.44 Q2161.12 1334.63 2161.12 1337.47 Q2161.12 1339.74 2162.6 1341.08 Q2164.11 1342.4 2166.68 1342.4 Q2170.22 1342.4 2172.35 1339.9 Q2174.5 1337.38 2174.5 1333.21 L2174.5 1332.26 L2170.27 1332.26 M2178.76 1330.5 L2178.76 1345.3 L2174.5 1345.3 L2174.5 1341.36 Q2173.04 1343.72 2170.87 1344.86 Q2168.69 1345.97 2165.54 1345.97 Q2161.56 1345.97 2159.2 1343.75 Q2156.86 1341.5 2156.86 1337.75 Q2156.86 1333.38 2159.78 1331.15 Q2162.72 1328.93 2168.53 1328.93 L2174.5 1328.93 L2174.5 1328.51 Q2174.5 1325.57 2172.56 1323.98 Q2170.64 1322.36 2167.14 1322.36 Q2164.92 1322.36 2162.81 1322.89 Q2160.71 1323.42 2158.76 1324.49 L2158.76 1320.55 Q2161.1 1319.65 2163.3 1319.21 Q2165.5 1318.75 2167.58 1318.75 Q2173.21 1318.75 2175.98 1321.66 Q2178.76 1324.58 2178.76 1330.5 Z" fill="#000000" fill-rule="nonzero" fill-opacity="1"></path><path clip-path="url(#clip030)" d="M2202.56 1323.35 Q2201.84 1322.94 2200.98 1322.75 Q2200.15 1322.54 2199.13 1322.54 Q2195.52 1322.54 2193.58 1324.9 Q2191.66 1327.24 2191.66 1331.64 L2191.66 1345.3 L2187.37 1345.3 L2187.37 1319.37 L2191.66 1319.37 L2191.66 1323.4 Q2193 1321.04 2195.15 1319.9 Q2197.3 1318.75 2200.38 1318.75 Q2200.82 1318.75 2201.35 1318.81 Q2201.89 1318.86 2202.54 1318.98 L2202.56 1323.35 Z" fill="#000000" fill-rule="nonzero" fill-opacity="1"></path><path clip-path="url(#clip030)" d="M2207.03 1319.37 L2211.29 1319.37 L2211.29 1345.3 L2207.03 1345.3 L2207.03 1319.37 M2207.03 1309.28 L2211.29 1309.28 L2211.29 1314.67 L2207.03 1314.67 L2207.03 1309.28 Z" fill="#000000" fill-rule="nonzero" fill-opacity="1"></path><path clip-path="url(#clip030)" d="M2224.41 1312.01 L2224.41 1319.37 L2233.18 1319.37 L2233.18 1322.68 L2224.41 1322.68 L2224.41 1336.75 Q2224.41 1339.93 2225.27 1340.83 Q2226.15 1341.73 2228.81 1341.73 L2233.18 1341.73 L2233.18 1345.3 L2228.81 1345.3 Q2223.88 1345.3 2222 1343.47 Q2220.13 1341.62 2220.13 1336.75 L2220.13 1322.68 L2217 1322.68 L2217 1319.37 L2220.13 1319.37 L2220.13 1312.01 L2224.41 1312.01 Z" fill="#000000" fill-rule="nonzero" fill-opacity="1"></path><path clip-path="url(#clip030)" d="M2249.57 1347.7 Q2247.77 1352.33 2246.05 1353.75 Q2244.34 1355.16 2241.47 1355.16 L2238.07 1355.16 L2238.07 1351.59 L2240.57 1351.59 Q2242.33 1351.59 2243.3 1350.76 Q2244.27 1349.93 2245.45 1346.82 L2246.22 1344.88 L2235.73 1319.37 L2240.24 1319.37 L2248.35 1339.65 L2256.45 1319.37 L2260.96 1319.37 L2249.57 1347.7 Z" fill="#000000" fill-rule="nonzero" fill-opacity="1"></path></svg>