<?xml version="1.0" encoding="utf-8"?>
<svg xmlns="http://www.w3.org/2000/svg" xmlns:xlink="http://www.w3.org/1999/xlink" width="600" height="400" viewBox="0 0 2400 1600">
<defs>
  <clipPath id="clip240">
    <rect x="0" y="0" width="2400" height="1600"/>
  </clipPath>
</defs>
<path clip-path="url(#clip240)" d="M0 1600 L2400 1600 L2400 8.88178e-14 L0 8.88178e-14  Z" fill="#ffffff" fill-rule="evenodd" fill-opacity="1"/>
<defs>
  <clipPath id="clip241">
    <rect x="480" y="0" width="1681" height="1600"/>
  </clipPath>
</defs>
<path clip-path="url(#clip240)" d="M256.209 1423.18 L2352.76 1423.18 L2352.76 123.472 L256.209 123.472  Z" fill="#ffffff" fill-rule="evenodd" fill-opacity="1"/>
<defs>
  <clipPath id="clip242">
    <rect x="256" y="123" width="2098" height="1301"/>
  </clipPath>
</defs>
<polyline clip-path="url(#clip242)" style="stroke:#000000; stroke-linecap:round; stroke-linejoin:round; stroke-width:2; stroke-opacity:0.1; fill:none" points="313.565,1423.18 313.565,123.472 "/>
<polyline clip-path="url(#clip242)" style="stroke:#000000; stroke-linecap:round; stroke-linejoin:round; stroke-width:2; stroke-opacity:0.1; fill:none" points="808.529,1423.18 808.529,123.472 "/>
<polyline clip-path="url(#clip242)" style="stroke:#000000; stroke-linecap:round; stroke-linejoin:round; stroke-width:2; stroke-opacity:0.1; fill:none" points="1303.49,1423.18 1303.49,123.472 "/>
<polyline clip-path="url(#clip242)" style="stroke:#000000; stroke-linecap:round; stroke-linejoin:round; stroke-width:2; stroke-opacity:0.1; fill:none" points="1798.46,1423.18 1798.46,123.472 "/>
<polyline clip-path="url(#clip242)" style="stroke:#000000; stroke-linecap:round; stroke-linejoin:round; stroke-width:2; stroke-opacity:0.1; fill:none" points="2293.42,1423.18 2293.42,123.472 "/>
<polyline clip-path="url(#clip240)" style="stroke:#000000; stroke-linecap:round; stroke-linejoin:round; stroke-width:4; stroke-opacity:1; fill:none" points="256.209,1423.18 2352.76,1423.18 "/>
<polyline clip-path="url(#clip240)" style="stroke:#000000; stroke-linecap:round; stroke-linejoin:round; stroke-width:4; stroke-opacity:1; fill:none" points="313.565,1423.18 313.565,1404.28 "/>
<polyline clip-path="url(#clip240)" style="stroke:#000000; stroke-linecap:round; stroke-linejoin:round; stroke-width:4; stroke-opacity:1; fill:none" points="808.529,1423.18 808.529,1404.28 "/>
<polyline clip-path="url(#clip240)" style="stroke:#000000; stroke-linecap:round; stroke-linejoin:round; stroke-width:4; stroke-opacity:1; fill:none" points="1303.49,1423.18 1303.49,1404.28 "/>
<polyline clip-path="url(#clip240)" style="stroke:#000000; stroke-linecap:round; stroke-linejoin:round; stroke-width:4; stroke-opacity:1; fill:none" points="1798.46,1423.18 1798.46,1404.28 "/>
<polyline clip-path="url(#clip240)" style="stroke:#000000; stroke-linecap:round; stroke-linejoin:round; stroke-width:4; stroke-opacity:1; fill:none" points="2293.42,1423.18 2293.42,1404.28 "/>
<path clip-path="url(#clip240)" d="M313.565 1454.1 Q309.954 1454.1 308.125 1457.66 Q306.32 1461.2 306.32 1468.33 Q306.32 1475.44 308.125 1479.01 Q309.954 1482.55 313.565 1482.55 Q317.199 1482.55 319.005 1479.01 Q320.834 1475.44 320.834 1468.33 Q320.834 1461.2 319.005 1457.66 Q317.199 1454.1 313.565 1454.1 M313.565 1450.39 Q319.375 1450.39 322.431 1455 Q325.509 1459.58 325.509 1468.33 Q325.509 1477.06 322.431 1481.67 Q319.375 1486.25 313.565 1486.25 Q307.755 1486.25 304.676 1481.67 Q301.621 1477.06 301.621 1468.33 Q301.621 1459.58 304.676 1455 Q307.755 1450.39 313.565 1450.39 Z" fill="#000000" fill-rule="nonzero" fill-opacity="1" /><path clip-path="url(#clip240)" d="M772.221 1481.64 L788.54 1481.64 L788.54 1485.58 L766.596 1485.58 L766.596 1481.64 Q769.258 1478.89 773.841 1474.26 Q778.448 1469.61 779.628 1468.27 Q781.874 1465.74 782.753 1464.01 Q783.656 1462.25 783.656 1460.56 Q783.656 1457.8 781.712 1456.07 Q779.79 1454.33 776.689 1454.33 Q774.49 1454.33 772.036 1455.09 Q769.605 1455.86 766.828 1457.41 L766.828 1452.69 Q769.652 1451.55 772.105 1450.97 Q774.559 1450.39 776.596 1450.39 Q781.966 1450.39 785.161 1453.08 Q788.355 1455.77 788.355 1460.26 Q788.355 1462.39 787.545 1464.31 Q786.758 1466.2 784.652 1468.8 Q784.073 1469.47 780.971 1472.69 Q777.869 1475.88 772.221 1481.64 Z" fill="#000000" fill-rule="nonzero" fill-opacity="1" /><path clip-path="url(#clip240)" d="M798.401 1451.02 L816.758 1451.02 L816.758 1454.96 L802.684 1454.96 L802.684 1463.43 Q803.702 1463.08 804.721 1462.92 Q805.739 1462.73 806.758 1462.73 Q812.545 1462.73 815.924 1465.9 Q819.304 1469.08 819.304 1474.49 Q819.304 1480.07 815.832 1483.17 Q812.36 1486.25 806.04 1486.25 Q803.864 1486.25 801.596 1485.88 Q799.351 1485.51 796.943 1484.77 L796.943 1480.07 Q799.026 1481.2 801.249 1481.76 Q803.471 1482.32 805.948 1482.32 Q809.952 1482.32 812.29 1480.21 Q814.628 1478.1 814.628 1474.49 Q814.628 1470.88 812.29 1468.77 Q809.952 1466.67 805.948 1466.67 Q804.073 1466.67 802.198 1467.08 Q800.346 1467.5 798.401 1468.38 L798.401 1451.02 Z" fill="#000000" fill-rule="nonzero" fill-opacity="1" /><path clip-path="url(#clip240)" d="M838.517 1454.1 Q834.906 1454.1 833.077 1457.66 Q831.272 1461.2 831.272 1468.33 Q831.272 1475.44 833.077 1479.01 Q834.906 1482.55 838.517 1482.55 Q842.151 1482.55 843.957 1479.01 Q845.785 1475.44 845.785 1468.33 Q845.785 1461.2 843.957 1457.66 Q842.151 1454.1 838.517 1454.1 M838.517 1450.39 Q844.327 1450.39 847.383 1455 Q850.461 1459.58 850.461 1468.33 Q850.461 1477.06 847.383 1481.67 Q844.327 1486.25 838.517 1486.25 Q832.707 1486.25 829.628 1481.67 Q826.573 1477.06 826.573 1468.33 Q826.573 1459.58 829.628 1455 Q832.707 1450.39 838.517 1450.39 Z" fill="#000000" fill-rule="nonzero" fill-opacity="1" /><path clip-path="url(#clip240)" d="M1263.11 1451.02 L1281.47 1451.02 L1281.47 1454.96 L1267.39 1454.96 L1267.39 1463.43 Q1268.41 1463.08 1269.43 1462.92 Q1270.45 1462.73 1271.47 1462.73 Q1277.25 1462.73 1280.63 1465.9 Q1284.01 1469.08 1284.01 1474.49 Q1284.01 1480.07 1280.54 1483.17 Q1277.07 1486.25 1270.75 1486.25 Q1268.57 1486.25 1266.31 1485.88 Q1264.06 1485.51 1261.65 1484.77 L1261.65 1480.07 Q1263.74 1481.2 1265.96 1481.76 Q1268.18 1482.32 1270.66 1482.32 Q1274.66 1482.32 1277 1480.21 Q1279.34 1478.1 1279.34 1474.49 Q1279.34 1470.88 1277 1468.77 Q1274.66 1466.67 1270.66 1466.67 Q1268.78 1466.67 1266.91 1467.08 Q1265.06 1467.5 1263.11 1468.38 L1263.11 1451.02 Z" fill="#000000" fill-rule="nonzero" fill-opacity="1" /><path clip-path="url(#clip240)" d="M1303.23 1454.1 Q1299.62 1454.1 1297.79 1457.66 Q1295.98 1461.2 1295.98 1468.33 Q1295.98 1475.44 1297.79 1479.01 Q1299.62 1482.55 1303.23 1482.55 Q1306.86 1482.55 1308.67 1479.01 Q1310.49 1475.44 1310.49 1468.33 Q1310.49 1461.2 1308.67 1457.66 Q1306.86 1454.1 1303.23 1454.1 M1303.23 1450.39 Q1309.04 1450.39 1312.09 1455 Q1315.17 1459.58 1315.17 1468.33 Q1315.17 1477.06 1312.09 1481.67 Q1309.04 1486.25 1303.23 1486.25 Q1297.42 1486.25 1294.34 1481.67 Q1291.28 1477.06 1291.28 1468.33 Q1291.28 1459.58 1294.34 1455 Q1297.42 1450.39 1303.23 1450.39 Z" fill="#000000" fill-rule="nonzero" fill-opacity="1" /><path clip-path="url(#clip240)" d="M1333.39 1454.1 Q1329.78 1454.1 1327.95 1457.66 Q1326.14 1461.2 1326.14 1468.33 Q1326.14 1475.44 1327.95 1479.01 Q1329.78 1482.55 1333.39 1482.55 Q1337.02 1482.55 1338.83 1479.01 Q1340.66 1475.44 1340.66 1468.33 Q1340.66 1461.2 1338.83 1457.66 Q1337.02 1454.1 1333.39 1454.1 M1333.39 1450.39 Q1339.2 1450.39 1342.25 1455 Q1345.33 1459.58 1345.33 1468.33 Q1345.33 1477.06 1342.25 1481.67 Q1339.2 1486.25 1333.39 1486.25 Q1327.58 1486.25 1324.5 1481.67 Q1321.44 1477.06 1321.44 1468.33 Q1321.44 1459.58 1324.5 1455 Q1327.58 1450.39 1333.39 1450.39 Z" fill="#000000" fill-rule="nonzero" fill-opacity="1" /><path clip-path="url(#clip240)" d="M1756.73 1451.02 L1778.95 1451.02 L1778.95 1453.01 L1766.41 1485.58 L1761.52 1485.58 L1773.33 1454.96 L1756.73 1454.96 L1756.73 1451.02 Z" fill="#000000" fill-rule="nonzero" fill-opacity="1" /><path clip-path="url(#clip240)" d="M1788.12 1451.02 L1806.48 1451.02 L1806.48 1454.96 L1792.4 1454.96 L1792.4 1463.43 Q1793.42 1463.08 1794.44 1462.92 Q1795.46 1462.73 1796.48 1462.73 Q1802.26 1462.73 1805.64 1465.9 Q1809.02 1469.08 1809.02 1474.49 Q1809.02 1480.07 1805.55 1483.17 Q1802.08 1486.25 1795.76 1486.25 Q1793.58 1486.25 1791.31 1485.88 Q1789.07 1485.51 1786.66 1484.77 L1786.66 1480.07 Q1788.75 1481.2 1790.97 1481.76 Q1793.19 1482.32 1795.67 1482.32 Q1799.67 1482.32 1802.01 1480.21 Q1804.35 1478.1 1804.35 1474.49 Q1804.35 1470.88 1802.01 1468.77 Q1799.67 1466.67 1795.67 1466.67 Q1793.79 1466.67 1791.92 1467.08 Q1790.06 1467.5 1788.12 1468.38 L1788.12 1451.02 Z" fill="#000000" fill-rule="nonzero" fill-opacity="1" /><path clip-path="url(#clip240)" d="M1828.24 1454.1 Q1824.62 1454.1 1822.8 1457.66 Q1820.99 1461.2 1820.99 1468.33 Q1820.99 1475.44 1822.8 1479.01 Q1824.62 1482.55 1828.24 1482.55 Q1831.87 1482.55 1833.68 1479.01 Q1835.5 1475.44 1835.5 1468.33 Q1835.5 1461.2 1833.68 1457.66 Q1831.87 1454.1 1828.24 1454.1 M1828.24 1450.39 Q1834.05 1450.39 1837.1 1455 Q1840.18 1459.58 1840.18 1468.33 Q1840.18 1477.06 1837.1 1481.67 Q1834.05 1486.25 1828.24 1486.25 Q1822.43 1486.25 1819.35 1481.67 Q1816.29 1477.06 1816.29 1468.33 Q1816.29 1459.58 1819.35 1455 Q1822.43 1450.39 1828.24 1450.39 Z" fill="#000000" fill-rule="nonzero" fill-opacity="1" /><path clip-path="url(#clip240)" d="M2237.95 1481.64 L2245.58 1481.64 L2245.58 1455.28 L2237.27 1456.95 L2237.27 1452.69 L2245.54 1451.02 L2250.21 1451.02 L2250.21 1481.64 L2257.85 1481.64 L2257.85 1485.58 L2237.95 1485.58 L2237.95 1481.64 Z" fill="#000000" fill-rule="nonzero" fill-opacity="1" /><path clip-path="url(#clip240)" d="M2277.3 1454.1 Q2273.69 1454.1 2271.86 1457.66 Q2270.05 1461.2 2270.05 1468.33 Q2270.05 1475.44 2271.86 1479.01 Q2273.69 1482.55 2277.3 1482.55 Q2280.93 1482.55 2282.74 1479.01 Q2284.57 1475.44 2284.57 1468.33 Q2284.57 1461.2 2282.74 1457.66 Q2280.93 1454.1 2277.3 1454.1 M2277.3 1450.39 Q2283.11 1450.39 2286.16 1455 Q2289.24 1459.58 2289.24 1468.33 Q2289.24 1477.06 2286.16 1481.67 Q2283.11 1486.25 2277.3 1486.25 Q2271.49 1486.25 2268.41 1481.67 Q2265.35 1477.06 2265.35 1468.33 Q2265.35 1459.58 2268.41 1455 Q2271.49 1450.39 2277.3 1450.39 Z" fill="#000000" fill-rule="nonzero" fill-opacity="1" /><path clip-path="url(#clip240)" d="M2307.46 1454.1 Q2303.85 1454.1 2302.02 1457.66 Q2300.21 1461.2 2300.21 1468.33 Q2300.21 1475.44 2302.02 1479.01 Q2303.85 1482.55 2307.46 1482.55 Q2311.09 1482.55 2312.9 1479.01 Q2314.73 1475.44 2314.73 1468.33 Q2314.73 1461.2 2312.9 1457.66 Q2311.09 1454.1 2307.46 1454.1 M2307.46 1450.39 Q2313.27 1450.39 2316.32 1455 Q2319.4 1459.58 2319.4 1468.33 Q2319.4 1477.06 2316.32 1481.67 Q2313.27 1486.25 2307.46 1486.25 Q2301.65 1486.25 2298.57 1481.67 Q2295.51 1477.06 2295.51 1468.33 Q2295.51 1459.58 2298.57 1455 Q2301.65 1450.39 2307.46 1450.39 Z" fill="#000000" fill-rule="nonzero" fill-opacity="1" /><path clip-path="url(#clip240)" d="M2337.62 1454.1 Q2334.01 1454.1 2332.18 1457.66 Q2330.38 1461.2 2330.38 1468.33 Q2330.38 1475.44 2332.18 1479.01 Q2334.01 1482.55 2337.62 1482.55 Q2341.26 1482.55 2343.06 1479.01 Q2344.89 1475.44 2344.89 1468.33 Q2344.89 1461.2 2343.06 1457.66 Q2341.26 1454.1 2337.62 1454.1 M2337.62 1450.39 Q2343.43 1450.39 2346.49 1455 Q2349.57 1459.58 2349.57 1468.33 Q2349.57 1477.06 2346.49 1481.67 Q2343.43 1486.25 2337.62 1486.25 Q2331.81 1486.25 2328.73 1481.67 Q2325.68 1477.06 2325.68 1468.33 Q2325.68 1459.58 2328.73 1455 Q2331.81 1450.39 2337.62 1450.39 Z" fill="#000000" fill-rule="nonzero" fill-opacity="1" /><path clip-path="url(#clip240)" d="M1268.33 1524.18 L1268.33 1530.96 Q1265.08 1527.94 1261.39 1526.44 Q1257.73 1524.95 1253.59 1524.95 Q1245.44 1524.95 1241.11 1529.95 Q1236.78 1534.91 1236.78 1544.33 Q1236.78 1553.72 1241.11 1558.72 Q1245.44 1563.68 1253.59 1563.68 Q1257.73 1563.68 1261.39 1562.19 Q1265.08 1560.69 1268.33 1557.67 L1268.33 1564.38 Q1264.95 1566.68 1261.16 1567.82 Q1257.41 1568.97 1253.21 1568.97 Q1242.42 1568.97 1236.21 1562.38 Q1230 1555.76 1230 1544.33 Q1230 1532.87 1236.21 1526.28 Q1242.42 1519.66 1253.21 1519.66 Q1257.47 1519.66 1261.23 1520.81 Q1265.01 1521.92 1268.33 1524.18 Z" fill="#000000" fill-rule="nonzero" fill-opacity="1" /><path clip-path="url(#clip240)" d="M1308.49 1548.76 L1308.49 1551.62 L1281.57 1551.62 Q1281.95 1557.67 1285.19 1560.85 Q1288.47 1564 1294.3 1564 Q1297.67 1564 1300.82 1563.17 Q1304 1562.35 1307.12 1560.69 L1307.12 1566.23 Q1303.97 1567.57 1300.66 1568.27 Q1297.35 1568.97 1293.95 1568.97 Q1285.42 1568.97 1280.42 1564 Q1275.45 1559.04 1275.45 1550.57 Q1275.45 1541.82 1280.17 1536.69 Q1284.91 1531.54 1292.93 1531.54 Q1300.12 1531.54 1304.29 1536.18 Q1308.49 1540.8 1308.49 1548.76 M1302.64 1547.04 Q1302.57 1542.23 1299.93 1539.37 Q1297.32 1536.5 1292.99 1536.5 Q1288.09 1536.5 1285.13 1539.27 Q1282.2 1542.04 1281.76 1547.07 L1302.64 1547.04 Z" fill="#000000" fill-rule="nonzero" fill-opacity="1" /><path clip-path="url(#clip240)" d="M1318.1 1518.52 L1323.96 1518.52 L1323.96 1568.04 L1318.1 1568.04 L1318.1 1518.52 Z" fill="#000000" fill-rule="nonzero" fill-opacity="1" /><path clip-path="url(#clip240)" d="M1336.22 1518.52 L1342.07 1518.52 L1342.07 1568.04 L1336.22 1568.04 L1336.22 1518.52 Z" fill="#000000" fill-rule="nonzero" fill-opacity="1" /><path clip-path="url(#clip240)" d="M1377.05 1533.45 L1377.05 1538.98 Q1374.57 1537.71 1371.9 1537.07 Q1369.22 1536.44 1366.36 1536.44 Q1362 1536.44 1359.8 1537.77 Q1357.64 1539.11 1357.64 1541.79 Q1357.64 1543.82 1359.2 1545 Q1360.76 1546.15 1365.47 1547.2 L1367.47 1547.64 Q1373.71 1548.98 1376.32 1551.43 Q1378.96 1553.85 1378.96 1558.21 Q1378.96 1563.17 1375.01 1566.07 Q1371.1 1568.97 1364.22 1568.97 Q1361.36 1568.97 1358.24 1568.39 Q1355.15 1567.85 1351.72 1566.74 L1351.72 1560.69 Q1354.96 1562.38 1358.11 1563.24 Q1361.26 1564.07 1364.35 1564.07 Q1368.49 1564.07 1370.72 1562.66 Q1372.95 1561.23 1372.95 1558.65 Q1372.95 1556.27 1371.32 1554.99 Q1369.73 1553.72 1364.29 1552.54 L1362.25 1552.07 Q1356.81 1550.92 1354.39 1548.56 Q1351.97 1546.18 1351.97 1542.04 Q1351.97 1537.01 1355.54 1534.27 Q1359.1 1531.54 1365.66 1531.54 Q1368.9 1531.54 1371.77 1532.01 Q1374.63 1532.49 1377.05 1533.45 Z" fill="#000000" fill-rule="nonzero" fill-opacity="1" /><polyline clip-path="url(#clip242)" style="stroke:#000000; stroke-linecap:round; stroke-linejoin:round; stroke-width:2; stroke-opacity:0.1; fill:none" points="256.209,1243.95 2352.76,1243.95 "/>
<polyline clip-path="url(#clip242)" style="stroke:#000000; stroke-linecap:round; stroke-linejoin:round; stroke-width:2; stroke-opacity:0.1; fill:none" points="256.209,881.887 2352.76,881.887 "/>
<polyline clip-path="url(#clip242)" style="stroke:#000000; stroke-linecap:round; stroke-linejoin:round; stroke-width:2; stroke-opacity:0.1; fill:none" points="256.209,519.824 2352.76,519.824 "/>
<polyline clip-path="url(#clip242)" style="stroke:#000000; stroke-linecap:round; stroke-linejoin:round; stroke-width:2; stroke-opacity:0.1; fill:none" points="256.209,157.761 2352.76,157.761 "/>
<polyline clip-path="url(#clip240)" style="stroke:#000000; stroke-linecap:round; stroke-linejoin:round; stroke-width:4; stroke-opacity:1; fill:none" points="256.209,1423.18 256.209,123.472 "/>
<polyline clip-path="url(#clip240)" style="stroke:#000000; stroke-linecap:round; stroke-linejoin:round; stroke-width:4; stroke-opacity:1; fill:none" points="256.209,1243.95 275.106,1243.95 "/>
<polyline clip-path="url(#clip240)" style="stroke:#000000; stroke-linecap:round; stroke-linejoin:round; stroke-width:4; stroke-opacity:1; fill:none" points="256.209,881.887 275.106,881.887 "/>
<polyline clip-path="url(#clip240)" style="stroke:#000000; stroke-linecap:round; stroke-linejoin:round; stroke-width:4; stroke-opacity:1; fill:none" points="256.209,519.824 275.106,519.824 "/>
<polyline clip-path="url(#clip240)" style="stroke:#000000; stroke-linecap:round; stroke-linejoin:round; stroke-width:4; stroke-opacity:1; fill:none" points="256.209,157.761 275.106,157.761 "/>
<path clip-path="url(#clip240)" d="M114.26 1244.4 L143.936 1244.4 L143.936 1248.34 L114.26 1248.34 L114.26 1244.4 Z" fill="#000000" fill-rule="nonzero" fill-opacity="1" /><path clip-path="url(#clip240)" d="M164.028 1229.75 Q160.417 1229.75 158.589 1233.31 Q156.783 1236.86 156.783 1243.99 Q156.783 1251.09 158.589 1254.66 Q160.417 1258.2 164.028 1258.2 Q167.663 1258.2 169.468 1254.66 Q171.297 1251.09 171.297 1243.99 Q171.297 1236.86 169.468 1233.31 Q167.663 1229.75 164.028 1229.75 M164.028 1226.05 Q169.839 1226.05 172.894 1230.65 Q175.973 1235.24 175.973 1243.99 Q175.973 1252.71 172.894 1257.32 Q169.839 1261.9 164.028 1261.9 Q158.218 1261.9 155.14 1257.32 Q152.084 1252.71 152.084 1243.99 Q152.084 1235.24 155.14 1230.65 Q158.218 1226.05 164.028 1226.05 Z" fill="#000000" fill-rule="nonzero" fill-opacity="1" /><path clip-path="url(#clip240)" d="M184.19 1255.35 L189.075 1255.35 L189.075 1261.23 L184.19 1261.23 L184.19 1255.35 Z" fill="#000000" fill-rule="nonzero" fill-opacity="1" /><path clip-path="url(#clip240)" d="M199.306 1226.67 L217.662 1226.67 L217.662 1230.61 L203.588 1230.61 L203.588 1239.08 Q204.607 1238.73 205.625 1238.57 Q206.644 1238.38 207.662 1238.38 Q213.449 1238.38 216.829 1241.55 Q220.209 1244.73 220.209 1250.14 Q220.209 1255.72 216.736 1258.82 Q213.264 1261.9 206.945 1261.9 Q204.769 1261.9 202.5 1261.53 Q200.255 1261.16 197.848 1260.42 L197.848 1255.72 Q199.931 1256.86 202.153 1257.41 Q204.375 1257.97 206.852 1257.97 Q210.857 1257.97 213.195 1255.86 Q215.533 1253.75 215.533 1250.14 Q215.533 1246.53 213.195 1244.43 Q210.857 1242.32 206.852 1242.32 Q204.977 1242.32 203.102 1242.74 Q201.25 1243.15 199.306 1244.03 L199.306 1226.67 Z" fill="#000000" fill-rule="nonzero" fill-opacity="1" /><path clip-path="url(#clip240)" d="M163.033 867.686 Q159.422 867.686 157.593 871.251 Q155.788 874.793 155.788 881.922 Q155.788 889.029 157.593 892.593 Q159.422 896.135 163.033 896.135 Q166.667 896.135 168.473 892.593 Q170.302 889.029 170.302 881.922 Q170.302 874.793 168.473 871.251 Q166.667 867.686 163.033 867.686 M163.033 863.982 Q168.843 863.982 171.899 868.589 Q174.977 873.172 174.977 881.922 Q174.977 890.649 171.899 895.255 Q168.843 899.839 163.033 899.839 Q157.223 899.839 154.144 895.255 Q151.089 890.649 151.089 881.922 Q151.089 873.172 154.144 868.589 Q157.223 863.982 163.033 863.982 Z" fill="#000000" fill-rule="nonzero" fill-opacity="1" /><path clip-path="url(#clip240)" d="M183.195 893.288 L188.079 893.288 L188.079 899.167 L183.195 899.167 L183.195 893.288 Z" fill="#000000" fill-rule="nonzero" fill-opacity="1" /><path clip-path="url(#clip240)" d="M208.264 867.686 Q204.653 867.686 202.824 871.251 Q201.019 874.793 201.019 881.922 Q201.019 889.029 202.824 892.593 Q204.653 896.135 208.264 896.135 Q211.899 896.135 213.704 892.593 Q215.533 889.029 215.533 881.922 Q215.533 874.793 213.704 871.251 Q211.899 867.686 208.264 867.686 M208.264 863.982 Q214.074 863.982 217.13 868.589 Q220.209 873.172 220.209 881.922 Q220.209 890.649 217.13 895.255 Q214.074 899.839 208.264 899.839 Q202.454 899.839 199.375 895.255 Q196.32 890.649 196.32 881.922 Q196.32 873.172 199.375 868.589 Q202.454 863.982 208.264 863.982 Z" fill="#000000" fill-rule="nonzero" fill-opacity="1" /><path clip-path="url(#clip240)" d="M164.028 505.623 Q160.417 505.623 158.589 509.188 Q156.783 512.729 156.783 519.859 Q156.783 526.965 158.589 530.53 Q160.417 534.072 164.028 534.072 Q167.663 534.072 169.468 530.53 Q171.297 526.965 171.297 519.859 Q171.297 512.729 169.468 509.188 Q167.663 505.623 164.028 505.623 M164.028 501.919 Q169.839 501.919 172.894 506.526 Q175.973 511.109 175.973 519.859 Q175.973 528.586 172.894 533.192 Q169.839 537.776 164.028 537.776 Q158.218 537.776 155.14 533.192 Q152.084 528.586 152.084 519.859 Q152.084 511.109 155.14 506.526 Q158.218 501.919 164.028 501.919 Z" fill="#000000" fill-rule="nonzero" fill-opacity="1" /><path clip-path="url(#clip240)" d="M184.19 531.225 L189.075 531.225 L189.075 537.104 L184.19 537.104 L184.19 531.225 Z" fill="#000000" fill-rule="nonzero" fill-opacity="1" /><path clip-path="url(#clip240)" d="M199.306 502.544 L217.662 502.544 L217.662 506.479 L203.588 506.479 L203.588 514.952 Q204.607 514.604 205.625 514.442 Q206.644 514.257 207.662 514.257 Q213.449 514.257 216.829 517.428 Q220.209 520.6 220.209 526.016 Q220.209 531.595 216.736 534.697 Q213.264 537.776 206.945 537.776 Q204.769 537.776 202.5 537.405 Q200.255 537.035 197.848 536.294 L197.848 531.595 Q199.931 532.729 202.153 533.285 Q204.375 533.84 206.852 533.84 Q210.857 533.84 213.195 531.734 Q215.533 529.627 215.533 526.016 Q215.533 522.405 213.195 520.299 Q210.857 518.192 206.852 518.192 Q204.977 518.192 203.102 518.609 Q201.25 519.026 199.306 519.905 L199.306 502.544 Z" fill="#000000" fill-rule="nonzero" fill-opacity="1" /><path clip-path="url(#clip240)" d="M153.843 171.106 L161.482 171.106 L161.482 144.74 L153.172 146.407 L153.172 142.148 L161.436 140.481 L166.112 140.481 L166.112 171.106 L173.751 171.106 L173.751 175.041 L153.843 175.041 L153.843 171.106 Z" fill="#000000" fill-rule="nonzero" fill-opacity="1" /><path clip-path="url(#clip240)" d="M183.195 169.161 L188.079 169.161 L188.079 175.041 L183.195 175.041 L183.195 169.161 Z" fill="#000000" fill-rule="nonzero" fill-opacity="1" /><path clip-path="url(#clip240)" d="M208.264 143.56 Q204.653 143.56 202.824 147.125 Q201.019 150.666 201.019 157.796 Q201.019 164.902 202.824 168.467 Q204.653 172.009 208.264 172.009 Q211.899 172.009 213.704 168.467 Q215.533 164.902 215.533 157.796 Q215.533 150.666 213.704 147.125 Q211.899 143.56 208.264 143.56 M208.264 139.856 Q214.074 139.856 217.13 144.463 Q220.209 149.046 220.209 157.796 Q220.209 166.523 217.13 171.129 Q214.074 175.712 208.264 175.712 Q202.454 175.712 199.375 171.129 Q196.32 166.523 196.32 157.796 Q196.32 149.046 199.375 144.463 Q202.454 139.856 208.264 139.856 Z" fill="#000000" fill-rule="nonzero" fill-opacity="1" /><path clip-path="url(#clip240)" d="M18.0438 893.717 L24.314 893.717 Q22.5634 897.378 21.704 900.624 Q20.8447 903.871 20.8447 906.894 Q20.8447 912.146 22.8817 915.011 Q24.9187 917.843 28.6745 917.843 Q31.8255 917.843 33.4488 915.966 Q35.0402 914.056 36.0269 908.772 L36.8226 904.889 Q38.1912 897.696 41.6605 894.29 Q45.098 890.853 50.8908 890.853 Q57.7976 890.853 61.3624 895.5 Q64.9272 900.115 64.9272 909.059 Q64.9272 912.433 64.1633 916.252 Q63.3994 920.04 61.9035 924.114 L55.2831 924.114 Q57.4793 920.199 58.5933 916.443 Q59.7073 912.687 59.7073 909.059 Q59.7073 903.552 57.543 900.561 Q55.3786 897.569 51.3682 897.569 Q47.8671 897.569 45.8937 899.733 Q43.9204 901.866 42.9337 906.767 L42.1698 910.682 Q40.7375 917.875 37.682 921.09 Q34.6264 924.305 29.1837 924.305 Q22.8817 924.305 19.2532 919.88 Q15.6248 915.424 15.6248 907.626 Q15.6248 904.284 16.2295 900.815 Q16.8343 897.346 18.0438 893.717 Z" fill="#000000" fill-rule="nonzero" fill-opacity="1" /><path clip-path="url(#clip240)" d="M28.3562 881.081 L28.3562 875.225 L64.0042 875.225 L64.0042 881.081 L28.3562 881.081 M14.479 881.081 L14.479 875.225 L21.895 875.225 L21.895 881.081 L14.479 881.081 Z" fill="#000000" fill-rule="nonzero" fill-opacity="1" /><path clip-path="url(#clip240)" d="M35.1993 835.217 Q31.2526 833.02 29.3747 829.965 Q27.4968 826.909 27.4968 822.772 Q27.4968 817.202 31.4117 814.178 Q35.2948 811.154 42.4881 811.154 L64.0042 811.154 L64.0042 817.042 L42.679 817.042 Q37.5546 817.042 35.072 818.857 Q32.5894 820.671 32.5894 824.395 Q32.5894 828.946 35.6131 831.588 Q38.6368 834.23 43.8567 834.23 L64.0042 834.23 L64.0042 840.118 L42.679 840.118 Q37.5228 840.118 35.072 841.932 Q32.5894 843.747 32.5894 847.534 Q32.5894 852.022 35.6449 854.664 Q38.6686 857.306 43.8567 857.306 L64.0042 857.306 L64.0042 863.194 L28.3562 863.194 L28.3562 857.306 L33.8944 857.306 Q30.616 855.3 29.0564 852.499 Q27.4968 849.699 27.4968 845.847 Q27.4968 841.964 29.4702 839.259 Q31.4436 836.522 35.1993 835.217 Z" fill="#000000" fill-rule="nonzero" fill-opacity="1" /><path clip-path="url(#clip240)" d="M28.3562 799.473 L28.3562 793.617 L64.0042 793.617 L64.0042 799.473 L28.3562 799.473 M14.479 799.473 L14.479 793.617 L21.895 793.617 L21.895 799.473 L14.479 799.473 Z" fill="#000000" fill-rule="nonzero" fill-opacity="1" /><path clip-path="url(#clip240)" d="M14.479 781.363 L14.479 775.506 L64.0042 775.506 L64.0042 781.363 L14.479 781.363 Z" fill="#000000" fill-rule="nonzero" fill-opacity="1" /><path clip-path="url(#clip240)" d="M46.0847 747.052 Q46.0847 754.149 47.7079 756.887 Q49.3312 759.624 53.2461 759.624 Q56.3653 759.624 58.2114 757.587 Q60.0256 755.518 60.0256 751.985 Q60.0256 747.115 56.5881 744.187 Q53.1188 741.227 47.3897 741.227 L46.0847 741.227 L46.0847 747.052 M43.6657 735.37 L64.0042 735.37 L64.0042 741.227 L58.5933 741.227 Q61.8398 743.232 63.3994 746.224 Q64.9272 749.216 64.9272 753.545 Q64.9272 759.019 61.8716 762.266 Q58.7843 765.48 53.6281 765.48 Q47.6125 765.48 44.5569 761.47 Q41.5014 757.428 41.5014 749.439 L41.5014 741.227 L40.9285 741.227 Q36.8862 741.227 34.6901 743.901 Q32.4621 746.542 32.4621 751.348 Q32.4621 754.404 33.1941 757.3 Q33.9262 760.197 35.3903 762.87 L29.9795 762.87 Q28.7381 759.656 28.1334 756.632 Q27.4968 753.608 27.4968 750.744 Q27.4968 743.009 31.5072 739.19 Q35.5176 735.37 43.6657 735.37 Z" fill="#000000" fill-rule="nonzero" fill-opacity="1" /><path clip-path="url(#clip240)" d="M33.8307 702.651 Q33.2578 703.637 33.0032 704.815 Q32.7167 705.961 32.7167 707.361 Q32.7167 712.327 35.9632 715 Q39.1779 717.642 45.2253 717.642 L64.0042 717.642 L64.0042 723.53 L28.3562 723.53 L28.3562 717.642 L33.8944 717.642 Q30.6479 715.796 29.0883 712.836 Q27.4968 709.876 27.4968 705.643 Q27.4968 705.038 27.5923 704.306 Q27.656 703.574 27.8151 702.683 L33.8307 702.651 Z" fill="#000000" fill-rule="nonzero" fill-opacity="1" /><path clip-path="url(#clip240)" d="M28.3562 696.508 L28.3562 690.651 L64.0042 690.651 L64.0042 696.508 L28.3562 696.508 M14.479 696.508 L14.479 690.651 L21.895 690.651 L21.895 696.508 L14.479 696.508 Z" fill="#000000" fill-rule="nonzero" fill-opacity="1" /><path clip-path="url(#clip240)" d="M18.2347 672.605 L28.3562 672.605 L28.3562 660.542 L32.9077 660.542 L32.9077 672.605 L52.2594 672.605 Q56.6199 672.605 57.8613 671.427 Q59.1026 670.217 59.1026 666.557 L59.1026 660.542 L64.0042 660.542 L64.0042 666.557 Q64.0042 673.337 61.4897 675.915 Q58.9434 678.493 52.2594 678.493 L32.9077 678.493 L32.9077 682.79 L28.3562 682.79 L28.3562 678.493 L18.2347 678.493 L18.2347 672.605 Z" fill="#000000" fill-rule="nonzero" fill-opacity="1" /><path clip-path="url(#clip240)" d="M67.3143 638.007 Q73.68 640.49 75.6216 642.845 Q77.5631 645.2 77.5631 649.147 L77.5631 653.826 L72.6615 653.826 L72.6615 650.388 Q72.6615 647.969 71.5157 646.633 Q70.3699 645.296 66.1048 643.672 L63.4312 642.622 L28.3562 657.04 L28.3562 650.834 L56.238 639.694 L28.3562 628.554 L28.3562 622.347 L67.3143 638.007 Z" fill="#000000" fill-rule="nonzero" fill-opacity="1" /><path clip-path="url(#clip240)" d="M395.682 14.0809 L395.682 22.0612 Q391.024 19.8332 386.892 18.7395 Q382.76 17.6457 378.911 17.6457 Q372.227 17.6457 368.582 20.2383 Q364.976 22.8309 364.976 27.611 Q364.976 31.6214 367.366 33.6873 Q369.797 35.7128 376.521 36.9686 L381.464 37.9813 Q390.619 39.7232 394.953 44.1387 Q399.328 48.5136 399.328 55.8863 Q399.328 64.6767 393.414 69.2137 Q387.54 73.7508 376.157 73.7508 Q371.863 73.7508 367.002 72.7785 Q362.181 71.8063 356.996 69.9024 L356.996 61.4765 Q361.979 64.2716 366.759 65.6895 Q371.539 67.1073 376.157 67.1073 Q383.165 67.1073 386.973 64.3527 Q390.781 61.598 390.781 56.4939 Q390.781 52.0379 388.026 49.5264 Q385.312 47.0148 379.073 45.759 L374.091 44.7868 Q364.936 42.9639 360.844 39.075 Q356.753 35.1862 356.753 28.2591 Q356.753 20.2383 362.384 15.6203 Q368.055 11.0023 377.98 11.0023 Q382.233 11.0023 386.649 11.7719 Q391.064 12.5416 395.682 14.0809 Z" fill="#000000" fill-rule="nonzero" fill-opacity="1" /><path clip-path="url(#clip240)" d="M429.345 32.4315 Q423.35 32.4315 419.866 37.1306 Q416.382 41.7891 416.382 49.9314 Q416.382 58.0738 419.826 62.7728 Q423.309 67.4314 429.345 67.4314 Q435.3 67.4314 438.784 62.7323 Q442.268 58.0333 442.268 49.9314 Q442.268 41.8701 438.784 37.1711 Q435.3 32.4315 429.345 32.4315 M429.345 26.1121 Q439.067 26.1121 444.617 32.4315 Q450.167 38.7509 450.167 49.9314 Q450.167 61.0714 444.617 67.4314 Q439.067 73.7508 429.345 73.7508 Q419.583 73.7508 414.033 67.4314 Q408.524 61.0714 408.524 49.9314 Q408.524 38.7509 414.033 32.4315 Q419.583 26.1121 429.345 26.1121 Z" fill="#000000" fill-rule="nonzero" fill-opacity="1" /><path clip-path="url(#clip240)" d="M488.812 34.1734 Q487.557 33.4443 486.058 33.1202 Q484.6 32.7556 482.817 32.7556 Q476.498 32.7556 473.095 36.8875 Q469.733 40.9789 469.733 48.6757 L469.733 72.576 L462.239 72.576 L462.239 27.2059 L469.733 27.2059 L469.733 34.2544 Q472.082 30.1225 475.85 28.1376 Q479.617 26.1121 485.005 26.1121 Q485.774 26.1121 486.706 26.2337 Q487.638 26.3147 488.772 26.5172 L488.812 34.1734 Z" fill="#000000" fill-rule="nonzero" fill-opacity="1" /><path clip-path="url(#clip240)" d="M504.003 14.324 L504.003 27.2059 L519.356 27.2059 L519.356 32.9987 L504.003 32.9987 L504.003 57.6282 Q504.003 63.1779 505.502 64.7578 Q507.042 66.3376 511.7 66.3376 L519.356 66.3376 L519.356 72.576 L511.7 72.576 Q503.072 72.576 499.79 69.3758 Q496.509 66.1351 496.509 57.6282 L496.509 32.9987 L491.04 32.9987 L491.04 27.2059 L496.509 27.2059 L496.509 14.324 L504.003 14.324 Z" fill="#000000" fill-rule="nonzero" fill-opacity="1" /><path clip-path="url(#clip240)" d="M567.967 48.0275 L567.967 51.6733 L533.696 51.6733 Q534.183 59.3701 538.315 63.421 Q542.487 67.4314 549.9 67.4314 Q554.194 67.4314 558.204 66.3781 Q562.255 65.3249 566.225 63.2184 L566.225 70.267 Q562.215 71.9684 558.002 72.8596 Q553.789 73.7508 549.455 73.7508 Q538.598 73.7508 532.238 67.4314 Q525.919 61.1119 525.919 50.3365 Q525.919 39.1965 531.914 32.6746 Q537.95 26.1121 548.158 26.1121 Q557.313 26.1121 562.62 32.0264 Q567.967 37.9003 567.967 48.0275 M560.513 45.84 Q560.432 39.7232 557.07 36.0774 Q553.748 32.4315 548.239 32.4315 Q542.001 32.4315 538.233 35.9558 Q534.507 39.4801 533.94 45.8805 L560.513 45.84 Z" fill="#000000" fill-rule="nonzero" fill-opacity="1" /><path clip-path="url(#clip240)" d="M610.056 34.0924 L610.056 9.54393 L617.51 9.54393 L617.51 72.576 L610.056 72.576 L610.056 65.7705 Q607.707 69.8214 604.101 71.8063 Q600.536 73.7508 595.513 73.7508 Q587.29 73.7508 582.105 67.1883 Q576.96 60.6258 576.96 49.9314 Q576.96 39.2371 582.105 32.6746 Q587.29 26.1121 595.513 26.1121 Q600.536 26.1121 604.101 28.0971 Q607.707 30.0415 610.056 34.0924 M584.657 49.9314 Q584.657 58.1548 588.019 62.8538 Q591.422 67.5124 597.336 67.5124 Q603.251 67.5124 606.653 62.8538 Q610.056 58.1548 610.056 49.9314 Q610.056 41.7081 606.653 37.0496 Q603.251 32.3505 597.336 32.3505 Q591.422 32.3505 588.019 37.0496 Q584.657 41.7081 584.657 49.9314 Z" fill="#000000" fill-rule="nonzero" fill-opacity="1" /><path clip-path="url(#clip240)" d="M691.884 28.9478 L691.884 35.9153 Q688.725 34.1734 685.524 33.3227 Q682.365 32.4315 679.124 32.4315 Q671.873 32.4315 667.862 37.0496 Q663.852 41.6271 663.852 49.9314 Q663.852 58.2358 667.862 62.8538 Q671.873 67.4314 679.124 67.4314 Q682.365 67.4314 685.524 66.5807 Q688.725 65.6895 691.884 63.9476 L691.884 70.8341 Q688.765 72.2924 685.403 73.0216 Q682.081 73.7508 678.314 73.7508 Q668.065 73.7508 662.029 67.3098 Q655.993 60.8689 655.993 49.9314 Q655.993 38.832 662.07 32.472 Q668.187 26.1121 678.8 26.1121 Q682.243 26.1121 685.524 26.8413 Q688.806 27.5299 691.884 28.9478 Z" fill="#000000" fill-rule="nonzero" fill-opacity="1" /><path clip-path="url(#clip240)" d="M722.428 32.4315 Q716.433 32.4315 712.949 37.1306 Q709.465 41.7891 709.465 49.9314 Q709.465 58.0738 712.908 62.7728 Q716.392 67.4314 722.428 67.4314 Q728.383 67.4314 731.867 62.7323 Q735.35 58.0333 735.35 49.9314 Q735.35 41.8701 731.867 37.1711 Q728.383 32.4315 722.428 32.4315 M722.428 26.1121 Q732.15 26.1121 737.7 32.4315 Q743.25 38.7509 743.25 49.9314 Q743.25 61.0714 737.7 67.4314 Q732.15 73.7508 722.428 73.7508 Q712.665 73.7508 707.116 67.4314 Q701.606 61.0714 701.606 49.9314 Q701.606 38.7509 707.116 32.4315 Q712.665 26.1121 722.428 26.1121 Z" fill="#000000" fill-rule="nonzero" fill-opacity="1" /><path clip-path="url(#clip240)" d="M784.528 28.5427 L784.528 35.5912 Q781.369 33.9709 777.966 33.1607 Q774.563 32.3505 770.917 32.3505 Q765.368 32.3505 762.573 34.0519 Q759.818 35.7533 759.818 39.156 Q759.818 41.7486 761.803 43.2475 Q763.788 44.7058 769.783 46.0426 L772.335 46.6097 Q780.275 48.3111 783.597 51.4303 Q786.959 54.509 786.959 60.0587 Q786.959 66.3781 781.936 70.0644 Q776.953 73.7508 768.203 73.7508 Q764.558 73.7508 760.588 73.0216 Q756.658 72.3329 752.283 70.9151 L752.283 63.2184 Q756.415 65.3654 760.426 66.4591 Q764.436 67.5124 768.365 67.5124 Q773.632 67.5124 776.467 65.73 Q779.303 63.9071 779.303 60.6258 Q779.303 57.5877 777.237 55.9673 Q775.211 54.3469 768.284 52.8481 L765.692 52.2405 Q758.765 50.7821 755.686 47.7845 Q752.607 44.7463 752.607 39.4801 Q752.607 33.0797 757.144 29.5959 Q761.681 26.1121 770.026 26.1121 Q774.158 26.1121 777.804 26.7198 Q781.45 27.3274 784.528 28.5427 Z" fill="#000000" fill-rule="nonzero" fill-opacity="1" /><path clip-path="url(#clip240)" d="M798.828 27.2059 L806.282 27.2059 L806.282 72.576 L798.828 72.576 L798.828 27.2059 M798.828 9.54393 L806.282 9.54393 L806.282 18.9825 L798.828 18.9825 L798.828 9.54393 Z" fill="#000000" fill-rule="nonzero" fill-opacity="1" /><path clip-path="url(#clip240)" d="M859.592 45.1919 L859.592 72.576 L852.138 72.576 L852.138 45.4349 Q852.138 38.994 849.627 35.7938 Q847.115 32.5936 842.092 32.5936 Q836.056 32.5936 832.572 36.4419 Q829.088 40.2903 829.088 46.9338 L829.088 72.576 L821.594 72.576 L821.594 27.2059 L829.088 27.2059 L829.088 34.2544 Q831.762 30.163 835.367 28.1376 Q839.013 26.1121 843.753 26.1121 Q851.571 26.1121 855.581 30.9732 Q859.592 35.7938 859.592 45.1919 Z" fill="#000000" fill-rule="nonzero" fill-opacity="1" /><path clip-path="url(#clip240)" d="M913.266 48.0275 L913.266 51.6733 L878.996 51.6733 Q879.482 59.3701 883.614 63.421 Q887.786 67.4314 895.199 67.4314 Q899.493 67.4314 903.504 66.3781 Q907.554 65.3249 911.524 63.2184 L911.524 70.267 Q907.514 71.9684 903.301 72.8596 Q899.088 73.7508 894.754 73.7508 Q883.897 73.7508 877.537 67.4314 Q871.218 61.1119 871.218 50.3365 Q871.218 39.1965 877.213 32.6746 Q883.249 26.1121 893.457 26.1121 Q902.612 26.1121 907.919 32.0264 Q913.266 37.9003 913.266 48.0275 M905.813 45.84 Q905.732 39.7232 902.369 36.0774 Q899.048 32.4315 893.538 32.4315 Q887.3 32.4315 883.533 35.9558 Q879.806 39.4801 879.239 45.8805 L905.813 45.84 Z" fill="#000000" fill-rule="nonzero" fill-opacity="1" /><path clip-path="url(#clip240)" d="M980.795 28.5427 L980.795 35.5912 Q977.635 33.9709 974.232 33.1607 Q970.83 32.3505 967.184 32.3505 Q961.634 32.3505 958.839 34.0519 Q956.084 35.7533 956.084 39.156 Q956.084 41.7486 958.069 43.2475 Q960.054 44.7058 966.049 46.0426 L968.602 46.6097 Q976.541 48.3111 979.863 51.4303 Q983.225 54.509 983.225 60.0587 Q983.225 66.3781 978.202 70.0644 Q973.22 73.7508 964.47 73.7508 Q960.824 73.7508 956.854 73.0216 Q952.925 72.3329 948.55 70.9151 L948.55 63.2184 Q952.682 65.3654 956.692 66.4591 Q960.702 67.5124 964.632 67.5124 Q969.898 67.5124 972.733 65.73 Q975.569 63.9071 975.569 60.6258 Q975.569 57.5877 973.503 55.9673 Q971.478 54.3469 964.551 52.8481 L961.958 52.2405 Q955.031 50.7821 951.952 47.7845 Q948.874 44.7463 948.874 39.4801 Q948.874 33.0797 953.411 29.5959 Q957.948 26.1121 966.293 26.1121 Q970.424 26.1121 974.07 26.7198 Q977.716 27.3274 980.795 28.5427 Z" fill="#000000" fill-rule="nonzero" fill-opacity="1" /><path clip-path="url(#clip240)" d="M995.094 27.2059 L1002.55 27.2059 L1002.55 72.576 L995.094 72.576 L995.094 27.2059 M995.094 9.54393 L1002.55 9.54393 L1002.55 18.9825 L995.094 18.9825 L995.094 9.54393 Z" fill="#000000" fill-rule="nonzero" fill-opacity="1" /><path clip-path="url(#clip240)" d="M1053.47 35.9153 Q1056.26 30.8922 1060.15 28.5022 Q1064.04 26.1121 1069.31 26.1121 Q1076.4 26.1121 1080.24 31.0947 Q1084.09 36.0368 1084.09 45.1919 L1084.09 72.576 L1076.6 72.576 L1076.6 45.4349 Q1076.6 38.913 1074.29 35.7533 Q1071.98 32.5936 1067.24 32.5936 Q1061.45 32.5936 1058.09 36.4419 Q1054.72 40.2903 1054.72 46.9338 L1054.72 72.576 L1047.23 72.576 L1047.23 45.4349 Q1047.23 38.8725 1044.92 35.7533 Q1042.61 32.5936 1037.79 32.5936 Q1032.08 32.5936 1028.72 36.4824 Q1025.35 40.3308 1025.35 46.9338 L1025.35 72.576 L1017.86 72.576 L1017.86 27.2059 L1025.35 27.2059 L1025.35 34.2544 Q1027.91 30.082 1031.47 28.0971 Q1035.04 26.1121 1039.94 26.1121 Q1044.88 26.1121 1048.32 28.6237 Q1051.81 31.1352 1053.47 35.9153 Z" fill="#000000" fill-rule="nonzero" fill-opacity="1" /><path clip-path="url(#clip240)" d="M1098.96 27.2059 L1106.41 27.2059 L1106.41 72.576 L1098.96 72.576 L1098.96 27.2059 M1098.96 9.54393 L1106.41 9.54393 L1106.41 18.9825 L1098.96 18.9825 L1098.96 9.54393 Z" fill="#000000" fill-rule="nonzero" fill-opacity="1" /><path clip-path="url(#clip240)" d="M1122.01 9.54393 L1129.46 9.54393 L1129.46 72.576 L1122.01 72.576 L1122.01 9.54393 Z" fill="#000000" fill-rule="nonzero" fill-opacity="1" /><path clip-path="url(#clip240)" d="M1165.68 49.7694 Q1156.64 49.7694 1153.16 51.8354 Q1149.68 53.9013 1149.68 58.8839 Q1149.68 62.8538 1152.27 65.2034 Q1154.9 67.5124 1159.4 67.5124 Q1165.6 67.5124 1169.32 63.1374 Q1173.09 58.7219 1173.09 51.4303 L1173.09 49.7694 L1165.68 49.7694 M1180.54 46.6907 L1180.54 72.576 L1173.09 72.576 L1173.09 65.6895 Q1170.54 69.8214 1166.73 71.8063 Q1162.92 73.7508 1157.41 73.7508 Q1150.45 73.7508 1146.31 69.8619 Q1142.22 65.9325 1142.22 59.3701 Q1142.22 51.7138 1147.33 47.825 Q1152.47 43.9361 1162.64 43.9361 L1173.09 43.9361 L1173.09 43.2069 Q1173.09 38.0623 1169.69 35.2672 Q1166.33 32.4315 1160.21 32.4315 Q1156.32 32.4315 1152.63 33.3632 Q1148.95 34.295 1145.55 36.1584 L1145.55 29.2718 Q1149.64 27.692 1153.48 26.9223 Q1157.33 26.1121 1160.98 26.1121 Q1170.82 26.1121 1175.68 31.2163 Q1180.54 36.3204 1180.54 46.6907 Z" fill="#000000" fill-rule="nonzero" fill-opacity="1" /><path clip-path="url(#clip240)" d="M1222.19 34.1734 Q1220.93 33.4443 1219.43 33.1202 Q1217.98 32.7556 1216.19 32.7556 Q1209.87 32.7556 1206.47 36.8875 Q1203.11 40.9789 1203.11 48.6757 L1203.11 72.576 L1195.61 72.576 L1195.61 27.2059 L1203.11 27.2059 L1203.11 34.2544 Q1205.46 30.1225 1209.23 28.1376 Q1212.99 26.1121 1218.38 26.1121 Q1219.15 26.1121 1220.08 26.2337 Q1221.01 26.3147 1222.15 26.5172 L1222.19 34.1734 Z" fill="#000000" fill-rule="nonzero" fill-opacity="1" /><path clip-path="url(#clip240)" d="M1230.01 27.2059 L1237.46 27.2059 L1237.46 72.576 L1230.01 72.576 L1230.01 27.2059 M1230.01 9.54393 L1237.46 9.54393 L1237.46 18.9825 L1230.01 18.9825 L1230.01 9.54393 Z" fill="#000000" fill-rule="nonzero" fill-opacity="1" /><path clip-path="url(#clip240)" d="M1260.43 14.324 L1260.43 27.2059 L1275.78 27.2059 L1275.78 32.9987 L1260.43 32.9987 L1260.43 57.6282 Q1260.43 63.1779 1261.93 64.7578 Q1263.47 66.3376 1268.13 66.3376 L1275.78 66.3376 L1275.78 72.576 L1268.13 72.576 Q1259.5 72.576 1256.22 69.3758 Q1252.93 66.1351 1252.93 57.6282 L1252.93 32.9987 L1247.47 32.9987 L1247.47 27.2059 L1252.93 27.2059 L1252.93 14.324 L1260.43 14.324 Z" fill="#000000" fill-rule="nonzero" fill-opacity="1" /><path clip-path="url(#clip240)" d="M1285.58 27.2059 L1293.04 27.2059 L1293.04 72.576 L1285.58 72.576 L1285.58 27.2059 M1285.58 9.54393 L1293.04 9.54393 L1293.04 18.9825 L1285.58 18.9825 L1285.58 9.54393 Z" fill="#000000" fill-rule="nonzero" fill-opacity="1" /><path clip-path="url(#clip240)" d="M1347.44 48.0275 L1347.44 51.6733 L1313.17 51.6733 Q1313.66 59.3701 1317.79 63.421 Q1321.96 67.4314 1329.38 67.4314 Q1333.67 67.4314 1337.68 66.3781 Q1341.73 65.3249 1345.7 63.2184 L1345.7 70.267 Q1341.69 71.9684 1337.48 72.8596 Q1333.26 73.7508 1328.93 73.7508 Q1318.07 73.7508 1311.71 67.4314 Q1305.39 61.1119 1305.39 50.3365 Q1305.39 39.1965 1311.39 32.6746 Q1317.42 26.1121 1327.63 26.1121 Q1336.79 26.1121 1342.09 32.0264 Q1347.44 37.9003 1347.44 48.0275 M1339.99 45.84 Q1339.91 39.7232 1336.55 36.0774 Q1333.22 32.4315 1327.71 32.4315 Q1321.48 32.4315 1317.71 35.9558 Q1313.98 39.4801 1313.41 45.8805 L1339.99 45.84 Z" fill="#000000" fill-rule="nonzero" fill-opacity="1" /><path clip-path="url(#clip240)" d="M1388.6 28.5427 L1388.6 35.5912 Q1385.44 33.9709 1382.04 33.1607 Q1378.63 32.3505 1374.99 32.3505 Q1369.44 32.3505 1366.64 34.0519 Q1363.89 35.7533 1363.89 39.156 Q1363.89 41.7486 1365.87 43.2475 Q1367.86 44.7058 1373.85 46.0426 L1376.41 46.6097 Q1384.35 48.3111 1387.67 51.4303 Q1391.03 54.509 1391.03 60.0587 Q1391.03 66.3781 1386.01 70.0644 Q1381.02 73.7508 1372.27 73.7508 Q1368.63 73.7508 1364.66 73.0216 Q1360.73 72.3329 1356.35 70.9151 L1356.35 63.2184 Q1360.49 65.3654 1364.5 66.4591 Q1368.51 67.5124 1372.44 67.5124 Q1377.7 67.5124 1380.54 65.73 Q1383.37 63.9071 1383.37 60.6258 Q1383.37 57.5877 1381.31 55.9673 Q1379.28 54.3469 1372.36 52.8481 L1369.76 52.2405 Q1362.84 50.7821 1359.76 47.7845 Q1356.68 44.7463 1356.68 39.4801 Q1356.68 33.0797 1361.22 29.5959 Q1365.75 26.1121 1374.1 26.1121 Q1378.23 26.1121 1381.87 26.7198 Q1385.52 27.3274 1388.6 28.5427 Z" fill="#000000" fill-rule="nonzero" fill-opacity="1" /><path clip-path="url(#clip240)" d="M1461.92 28.9478 L1461.92 35.9153 Q1458.76 34.1734 1455.56 33.3227 Q1452.4 32.4315 1449.16 32.4315 Q1441.91 32.4315 1437.9 37.0496 Q1433.89 41.6271 1433.89 49.9314 Q1433.89 58.2358 1437.9 62.8538 Q1441.91 67.4314 1449.16 67.4314 Q1452.4 67.4314 1455.56 66.5807 Q1458.76 65.6895 1461.92 63.9476 L1461.92 70.8341 Q1458.8 72.2924 1455.44 73.0216 Q1452.12 73.7508 1448.35 73.7508 Q1438.1 73.7508 1432.07 67.3098 Q1426.03 60.8689 1426.03 49.9314 Q1426.03 38.832 1432.11 32.472 Q1438.22 26.1121 1448.84 26.1121 Q1452.28 26.1121 1455.56 26.8413 Q1458.84 27.5299 1461.92 28.9478 Z" fill="#000000" fill-rule="nonzero" fill-opacity="1" /><path clip-path="url(#clip240)" d="M1513.69 48.0275 L1513.69 51.6733 L1479.42 51.6733 Q1479.91 59.3701 1484.04 63.421 Q1488.21 67.4314 1495.62 67.4314 Q1499.92 67.4314 1503.93 66.3781 Q1507.98 65.3249 1511.95 63.2184 L1511.95 70.267 Q1507.94 71.9684 1503.73 72.8596 Q1499.51 73.7508 1495.18 73.7508 Q1484.32 73.7508 1477.96 67.4314 Q1471.64 61.1119 1471.64 50.3365 Q1471.64 39.1965 1477.64 32.6746 Q1483.67 26.1121 1493.88 26.1121 Q1503.04 26.1121 1508.34 32.0264 Q1513.69 37.9003 1513.69 48.0275 M1506.24 45.84 Q1506.16 39.7232 1502.79 36.0774 Q1499.47 32.4315 1493.96 32.4315 Q1487.72 32.4315 1483.96 35.9558 Q1480.23 39.4801 1479.66 45.8805 L1506.24 45.84 Z" fill="#000000" fill-rule="nonzero" fill-opacity="1" /><path clip-path="url(#clip240)" d="M1525.92 9.54393 L1533.38 9.54393 L1533.38 72.576 L1525.92 72.576 L1525.92 9.54393 Z" fill="#000000" fill-rule="nonzero" fill-opacity="1" /><path clip-path="url(#clip240)" d="M1548.97 9.54393 L1556.43 9.54393 L1556.43 72.576 L1548.97 72.576 L1548.97 9.54393 Z" fill="#000000" fill-rule="nonzero" fill-opacity="1" /><path clip-path="url(#clip240)" d="M1600.87 65.6895 L1614.23 65.6895 L1614.23 19.5497 L1599.69 22.4663 L1599.69 15.0127 L1614.15 12.096 L1622.34 12.096 L1622.34 65.6895 L1635.7 65.6895 L1635.7 72.576 L1600.87 72.576 L1600.87 65.6895 Z" fill="#000000" fill-rule="nonzero" fill-opacity="1" /><path clip-path="url(#clip240)" d="M1669.73 17.4837 Q1663.41 17.4837 1660.21 23.7221 Q1657.05 29.92 1657.05 42.3968 Q1657.05 54.833 1660.21 61.0714 Q1663.41 67.2693 1669.73 67.2693 Q1676.09 67.2693 1679.25 61.0714 Q1682.45 54.833 1682.45 42.3968 Q1682.45 29.92 1679.25 23.7221 Q1676.09 17.4837 1669.73 17.4837 M1669.73 11.0023 Q1679.9 11.0023 1685.25 19.0636 Q1690.63 27.0843 1690.63 42.3968 Q1690.63 57.6687 1685.25 65.73 Q1679.9 73.7508 1669.73 73.7508 Q1659.56 73.7508 1654.18 65.73 Q1648.83 57.6687 1648.83 42.3968 Q1648.83 27.0843 1654.18 19.0636 Q1659.56 11.0023 1669.73 11.0023 Z" fill="#000000" fill-rule="nonzero" fill-opacity="1" /><path clip-path="url(#clip240)" d="M1706.43 65.6895 L1719.8 65.6895 L1719.8 19.5497 L1705.26 22.4663 L1705.26 15.0127 L1719.72 12.096 L1727.9 12.096 L1727.9 65.6895 L1741.27 65.6895 L1741.27 72.576 L1706.43 72.576 L1706.43 65.6895 Z" fill="#000000" fill-rule="nonzero" fill-opacity="1" /><path clip-path="url(#clip240)" d="M1783.12 27.2059 L1790.57 27.2059 L1790.57 72.576 L1783.12 72.576 L1783.12 27.2059 M1783.12 9.54393 L1790.57 9.54393 L1790.57 18.9825 L1783.12 18.9825 L1783.12 9.54393 Z" fill="#000000" fill-rule="nonzero" fill-opacity="1" /><path clip-path="url(#clip240)" d="M1813.54 14.324 L1813.54 27.2059 L1828.89 27.2059 L1828.89 32.9987 L1813.54 32.9987 L1813.54 57.6282 Q1813.54 63.1779 1815.04 64.7578 Q1816.58 66.3376 1821.24 66.3376 L1828.89 66.3376 L1828.89 72.576 L1821.24 72.576 Q1812.61 72.576 1809.33 69.3758 Q1806.04 66.1351 1806.04 57.6282 L1806.04 32.9987 L1800.58 32.9987 L1800.58 27.2059 L1806.04 27.2059 L1806.04 14.324 L1813.54 14.324 Z" fill="#000000" fill-rule="nonzero" fill-opacity="1" /><path clip-path="url(#clip240)" d="M1877.5 48.0275 L1877.5 51.6733 L1843.23 51.6733 Q1843.72 59.3701 1847.85 63.421 Q1852.02 67.4314 1859.44 67.4314 Q1863.73 67.4314 1867.74 66.3781 Q1871.79 65.3249 1875.76 63.2184 L1875.76 70.267 Q1871.75 71.9684 1867.54 72.8596 Q1863.32 73.7508 1858.99 73.7508 Q1848.13 73.7508 1841.77 67.4314 Q1835.45 61.1119 1835.45 50.3365 Q1835.45 39.1965 1841.45 32.6746 Q1847.49 26.1121 1857.69 26.1121 Q1866.85 26.1121 1872.16 32.0264 Q1877.5 37.9003 1877.5 48.0275 M1870.05 45.84 Q1869.97 39.7232 1866.61 36.0774 Q1863.28 32.4315 1857.78 32.4315 Q1851.54 32.4315 1847.77 35.9558 Q1844.04 39.4801 1843.48 45.8805 L1870.05 45.84 Z" fill="#000000" fill-rule="nonzero" fill-opacity="1" /><path clip-path="url(#clip240)" d="M1916.03 34.1734 Q1914.77 33.4443 1913.27 33.1202 Q1911.81 32.7556 1910.03 32.7556 Q1903.71 32.7556 1900.31 36.8875 Q1896.95 40.9789 1896.95 48.6757 L1896.95 72.576 L1889.45 72.576 L1889.45 27.2059 L1896.95 27.2059 L1896.95 34.2544 Q1899.3 30.1225 1903.06 28.1376 Q1906.83 26.1121 1912.22 26.1121 Q1912.99 26.1121 1913.92 26.2337 Q1914.85 26.3147 1915.99 26.5172 L1916.03 34.1734 Z" fill="#000000" fill-rule="nonzero" fill-opacity="1" /><path clip-path="url(#clip240)" d="M1944.46 49.7694 Q1935.43 49.7694 1931.95 51.8354 Q1928.46 53.9013 1928.46 58.8839 Q1928.46 62.8538 1931.06 65.2034 Q1933.69 67.5124 1938.19 67.5124 Q1944.38 67.5124 1948.11 63.1374 Q1951.88 58.7219 1951.88 51.4303 L1951.88 49.7694 L1944.46 49.7694 M1959.33 46.6907 L1959.33 72.576 L1951.88 72.576 L1951.88 65.6895 Q1949.33 69.8214 1945.52 71.8063 Q1941.71 73.7508 1936.2 73.7508 Q1929.23 73.7508 1925.1 69.8619 Q1921.01 65.9325 1921.01 59.3701 Q1921.01 51.7138 1926.11 47.825 Q1931.26 43.9361 1941.43 43.9361 L1951.88 43.9361 L1951.88 43.2069 Q1951.88 38.0623 1948.47 35.2672 Q1945.11 32.4315 1939 32.4315 Q1935.11 32.4315 1931.42 33.3632 Q1927.73 34.295 1924.33 36.1584 L1924.33 29.2718 Q1928.42 27.692 1932.27 26.9223 Q1936.12 26.1121 1939.77 26.1121 Q1949.61 26.1121 1954.47 31.2163 Q1959.33 36.3204 1959.33 46.6907 Z" fill="#000000" fill-rule="nonzero" fill-opacity="1" /><path clip-path="url(#clip240)" d="M1982.06 14.324 L1982.06 27.2059 L1997.41 27.2059 L1997.41 32.9987 L1982.06 32.9987 L1982.06 57.6282 Q1982.06 63.1779 1983.56 64.7578 Q1985.09 66.3376 1989.75 66.3376 L1997.41 66.3376 L1997.41 72.576 L1989.75 72.576 Q1981.13 72.576 1977.84 69.3758 Q1974.56 66.1351 1974.56 57.6282 L1974.56 32.9987 L1969.09 32.9987 L1969.09 27.2059 L1974.56 27.2059 L1974.56 14.324 L1982.06 14.324 Z" fill="#000000" fill-rule="nonzero" fill-opacity="1" /><path clip-path="url(#clip240)" d="M2007.21 27.2059 L2014.67 27.2059 L2014.67 72.576 L2007.21 72.576 L2007.21 27.2059 M2007.21 9.54393 L2014.67 9.54393 L2014.67 18.9825 L2007.21 18.9825 L2007.21 9.54393 Z" fill="#000000" fill-rule="nonzero" fill-opacity="1" /><path clip-path="url(#clip240)" d="M2047.84 32.4315 Q2041.85 32.4315 2038.36 37.1306 Q2034.88 41.7891 2034.88 49.9314 Q2034.88 58.0738 2038.32 62.7728 Q2041.81 67.4314 2047.84 67.4314 Q2053.8 67.4314 2057.28 62.7323 Q2060.77 58.0333 2060.77 49.9314 Q2060.77 41.8701 2057.28 37.1711 Q2053.8 32.4315 2047.84 32.4315 M2047.84 26.1121 Q2057.57 26.1121 2063.12 32.4315 Q2068.67 38.7509 2068.67 49.9314 Q2068.67 61.0714 2063.12 67.4314 Q2057.57 73.7508 2047.84 73.7508 Q2038.08 73.7508 2032.53 67.4314 Q2027.02 61.0714 2027.02 49.9314 Q2027.02 38.7509 2032.53 32.4315 Q2038.08 26.1121 2047.84 26.1121 Z" fill="#000000" fill-rule="nonzero" fill-opacity="1" /><path clip-path="url(#clip240)" d="M2118.73 45.1919 L2118.73 72.576 L2111.28 72.576 L2111.28 45.4349 Q2111.28 38.994 2108.77 35.7938 Q2106.26 32.5936 2101.23 32.5936 Q2095.2 32.5936 2091.71 36.4419 Q2088.23 40.2903 2088.23 46.9338 L2088.23 72.576 L2080.74 72.576 L2080.74 27.2059 L2088.23 27.2059 L2088.23 34.2544 Q2090.9 30.163 2094.51 28.1376 Q2098.16 26.1121 2102.9 26.1121 Q2110.71 26.1121 2114.72 30.9732 Q2118.73 35.7938 2118.73 45.1919 Z" fill="#000000" fill-rule="nonzero" fill-opacity="1" /><path clip-path="url(#clip240)" d="M2168.07 65.6895 L2196.63 65.6895 L2196.63 72.576 L2158.23 72.576 L2158.23 65.6895 Q2162.89 60.8689 2170.91 52.7671 Q2178.97 44.6248 2181.04 42.2752 Q2184.97 37.8598 2186.51 34.8216 Q2188.09 31.7429 2188.09 28.7857 Q2188.09 23.9651 2184.68 20.927 Q2181.32 17.8888 2175.89 17.8888 Q2172.04 17.8888 2167.75 19.2256 Q2163.5 20.5624 2158.64 23.2765 L2158.64 15.0127 Q2163.58 13.0277 2167.87 12.015 Q2172.17 11.0023 2175.73 11.0023 Q2185.13 11.0023 2190.72 15.7013 Q2196.31 20.4004 2196.31 28.2591 Q2196.31 31.9859 2194.89 35.3482 Q2193.51 38.6699 2189.83 43.2069 Q2188.81 44.3817 2183.39 50.0125 Q2177.96 55.6027 2168.07 65.6895 Z" fill="#000000" fill-rule="nonzero" fill-opacity="1" /><path clip-path="url(#clip240)" d="M2231.31 17.4837 Q2224.99 17.4837 2221.79 23.7221 Q2218.63 29.92 2218.63 42.3968 Q2218.63 54.833 2221.79 61.0714 Q2224.99 67.2693 2231.31 67.2693 Q2237.67 67.2693 2240.83 61.0714 Q2244.03 54.833 2244.03 42.3968 Q2244.03 29.92 2240.83 23.7221 Q2237.67 17.4837 2231.31 17.4837 M2231.31 11.0023 Q2241.48 11.0023 2246.82 19.0636 Q2252.21 27.0843 2252.21 42.3968 Q2252.21 57.6687 2246.82 65.73 Q2241.48 73.7508 2231.31 73.7508 Q2221.14 73.7508 2215.75 65.73 Q2210.41 57.6687 2210.41 42.3968 Q2210.41 27.0843 2215.75 19.0636 Q2221.14 11.0023 2231.31 11.0023 Z" fill="#000000" fill-rule="nonzero" fill-opacity="1" /><polyline clip-path="url(#clip242)" style="stroke:#009af9; stroke-linecap:round; stroke-linejoin:round; stroke-width:4; stroke-opacity:1; fill:none" points="315.545,1386.4 317.525,1383.61 319.505,1375.92 321.484,1367.43 323.464,1363.07 325.444,1359.82 327.424,1352.73 329.404,1347.3 331.384,1346.03 333.364,1345.45 335.343,1343.53 337.323,1341.28 339.303,1337.01 341.283,1335.98 343.263,1334.28 345.243,1333.97 347.223,1329.86 349.202,1329.68 351.182,1327.21 353.162,1327.11 355.142,1324.41 357.122,1323.55 359.102,1323.03 361.082,1322.28 363.061,1319.79 365.041,1319.56 367.021,1319.45 369.001,1318.33 370.981,1317.06 372.961,1316.33 374.941,1314.21 376.92,1314.01 378.9,1312.2 380.88,1310.96 382.86,1309.17 384.84,1306.92 386.82,1303.28 388.8,1303.15 390.779,1301.21 392.759,1301.08 394.739,1299.67 396.719,1298.6 398.699,1298.45 400.679,1298.1 402.659,1297.17 404.638,1295.92 406.618,1294.06 408.598,1293.87 410.578,1293.39 412.558,1292.53 414.538,1291.25 416.517,1291.07 418.497,1290.57 420.477,1290.45 422.457,1289.98 424.437,1289.04 426.417,1288.89 428.397,1288.44 430.376,1287.27 432.356,1286.59 434.336,1286.29 436.316,1285.55 438.296,1284.24 440.276,1284.03 442.256,1283.28 444.235,1283.2 446.215,1282.01 448.195,1281.72 450.175,1281.01 452.155,1280.67 454.135,1280.37 456.115,1279.86 458.094,1279.6 460.074,1279.1 462.054,1278.92 464.034,1278.91 466.014,1277.27 467.994,1277.07 469.974,1277 471.953,1276.83 473.933,1276.43 475.913,1275.16 477.893,1275.15 479.873,1274.56 481.853,1273.7 483.833,1273.51 485.812,1273.15 487.792,1273.03 489.772,1272.9 491.752,1271.95 493.732,1271.77 495.712,1271.48 497.692,1268.85 499.671,1267.34 501.651,1266.07 503.631,1265.68 505.611,1265.47 507.591,1264.33 509.571,1262.83 511.551,1262.64 513.53,1262.3 515.51,1260.88 517.49,1260.61 519.47,1260.3 521.45,1259.83 523.43,1259.18 525.409,1258.82 527.389,1258.82 529.369,1257.99 531.349,1257.54 533.329,1254.63 535.309,1254.61 537.289,1254.28 539.268,1254.23 541.248,1254.08 543.228,1253.88 545.208,1253.81 547.188,1253.3 549.168,1253.25 551.148,1251.14 553.127,1251.07 555.107,1250.54 557.087,1250.48 559.067,1250.16 561.047,1249.42 563.027,1249.4 565.007,1249.38 566.986,1249.25 568.966,1248.47 570.946,1246.75 572.926,1244.34 574.906,1244.07 576.886,1243.77 578.866,1243.26 580.845,1242.98 582.825,1242.01 584.805,1241.05 586.785,1240.76 588.765,1240.59 590.745,1239.91 592.725,1239.73 594.704,1239.46 596.684,1239.13 598.664,1238.83 600.644,1238.52 602.624,1238.43 604.604,1238.04 606.584,1237.51 608.563,1237.39 610.543,1237.16 612.523,1237.07 614.503,1236.85 616.483,1236.78 618.463,1236.75 620.443,1236.1 622.422,1235.35 624.402,1235.17 626.382,1235.1 628.362,1234.65 630.342,1233.07 632.322,1232.83 634.301,1232.24 636.281,1231.69 638.261,1231.31 640.241,1230.32 642.221,1226.87 644.201,1226.72 646.181,1226.21 648.16,1225.24 650.14,1223.87 652.12,1223.52 654.1,1223.14 656.08,1222.43 658.06,1222.26 660.04,1221.54 662.019,1221.13 663.999,1221.11 665.979,1220.65 667.959,1220.47 669.939,1220.24 671.919,1219.71 673.899,1218.7 675.878,1218.3 677.858,1218.09 679.838,1217.81 681.818,1217.5 683.798,1216.99 685.778,1216.46 687.758,1213.59 689.737,1212.55 691.717,1212.24 693.697,1211.86 695.677,1210.11 697.657,1209.93 699.637,1209.28 701.617,1207.17 703.596,1207.05 705.576,1206.12 707.556,1205.52 709.536,1204.12 711.516,1203.38 713.496,1201.23 715.476,1200.83 717.455,1198.48 719.435,1197.19 721.415,1197.1 723.395,1192.22 725.375,1191.13 727.355,1190.4 729.335,1189.45 731.314,1186.66 733.294,1186.61 735.274,1185.82 737.254,1182.91 739.234,1182.57 741.214,1181.39 743.194,1181.35 745.173,1180.61 747.153,1180.59 749.133,1179.59 751.113,1178.47 753.093,1176.13 755.073,1174.93 757.052,1172.65 759.032,1170.99 761.012,1169.84 762.992,1169.65 764.972,1169.3 766.952,1169.02 768.932,1167.56 770.911,1167.53 772.891,1166.74 774.871,1166.43 776.851,1165.64 778.831,1165.37 780.811,1165.35 782.791,1164.99 784.77,1162.91 786.75,1162.74 788.73,1162.26 790.71,1162.18 792.69,1162.01 794.67,1161.9 796.65,1161.2 798.629,1160.95 800.609,1160.7 802.589,1160.15 804.569,1159.98 806.549,1159.73 808.529,1159.64 810.509,1158.11 812.488,1157.56 814.468,1157.44 816.448,1156.88 818.428,1156.2 820.408,1155.68 822.388,1155.42 824.368,1152.96 826.347,1152.95 828.327,1152.86 830.307,1152.69 832.287,1152.24 834.267,1152.03 836.247,1151.9 838.227,1151.85 840.206,1151.71 842.186,1150.92 844.166,1150.86 846.146,1150.53 848.126,1149.9 850.106,1149.47 852.086,1149.26 854.065,1148.78 856.045,1148.77 858.025,1148.27 860.005,1148.15 861.985,1147.85 863.965,1146.28 865.944,1145.99 867.924,1145.47 869.904,1145.13 871.884,1144.68 873.864,1144.57 875.844,1144.49 877.824,1144.31 879.803,1143.99 881.783,1143.06 883.763,1142.9 885.743,1142.45 887.723,1142.03 889.703,1141.42 891.683,1140.15 893.662,1139.39 895.642,1139.35 897.622,1136.76 899.602,1135.27 901.582,1134.97 903.562,1134.6 905.542,1134.36 907.521,1134.02 909.501,1133.89 911.481,1132.54 913.461,1132.12 915.441,1131.38 917.421,1130.38 919.401,1130.26 921.38,1129.83 923.36,1129.05 925.34,1128.84 927.32,1128.22 929.3,1127.68 931.28,1126.77 933.26,1126.7 935.239,1126.6 937.219,1126.35 939.199,1125.88 941.179,1123.8 943.159,1123.07 945.139,1123.07 947.119,1122.91 949.098,1122.11 951.078,1120.85 953.058,1120.74 955.038,1119.18 957.018,1118.4 958.998,1118.1 960.978,1118.09 962.957,1117.68 964.937,1117.01 966.917,1116.89 968.897,1116.28 970.877,1116.28 972.857,1115.63 974.836,1115.02 976.816,1114.8 978.796,1114.6 980.776,1114.14 982.756,1113.95 984.736,1113.69 986.716,1113.28 988.695,1113.24 990.675,1111.86 992.655,1111.38 994.635,1111.17 996.615,1110.3 998.595,1109.38 1000.57,1109.05 1002.55,1108.3 1004.53,1107.56 1006.51,1107.51 1008.49,1106.9 1010.47,1104.67 1012.45,1104.6 1014.43,1101.1 1016.41,1100.32 1018.39,1100.15 1020.37,1099.37 1022.35,1098.9 1024.33,1097.53 1026.31,1096.78 1028.29,1096.25 1030.27,1094.72 1032.25,1094.21 1034.23,1093.38 1036.21,1093.09 1038.19,1092.72 1040.17,1092.14 1042.15,1091.91 1044.13,1091.53 1046.11,1091.52 1048.09,1091.3 1050.07,1090.96 1052.05,1090.88 1054.03,1090.42 1056.01,1089.49 1057.99,1088.72 1059.97,1088.54 1061.95,1088.34 1063.93,1088.3 1065.91,1087.84 1067.89,1085.09 1069.87,1084.02 1071.85,1082.69 1073.83,1082.55 1075.81,1081.8 1077.79,1081.57 1079.77,1079.97 1081.75,1079.54 1083.73,1079.21 1085.71,1079.01 1087.69,1077.81 1089.67,1075.74 1091.65,1073.96 1093.63,1073.8 1095.61,1073.67 1097.59,1072.96 1099.57,1072.79 1101.55,1072.36 1103.53,1071.71 1105.51,1071.4 1107.49,1070.95 1109.47,1068.39 1111.45,1068.23 1113.43,1067.96 1115.41,1067.78 1117.39,1067.46 1119.37,1067.15 1121.35,1065.39 1123.33,1063.63 1125.31,1063.17 1127.29,1062.77 1129.27,1062.19 1131.25,1062.13 1133.22,1062.12 1135.2,1061.68 1137.18,1061.67 1139.16,1061.12 1141.14,1060.91 1143.12,1059.34 1145.1,1057.9 1147.08,1057.56 1149.06,1057.3 1151.04,1056.46 1153.02,1055.77 1155,1055.74 1156.98,1055.63 1158.96,1054.6 1160.94,1054.47 1162.92,1054 1164.9,1053.32 1166.88,1052.95 1168.86,1052.19 1170.84,1051.47 1172.82,1050.65 1174.8,1050.25 1176.78,1049.82 1178.76,1049.5 1180.74,1049.29 1182.72,1047.86 1184.7,1047.72 1186.68,1047.2 1188.66,1046.86 1190.64,1046.62 1192.62,1046.49 1194.6,1045.15 1196.58,1045.11 1198.56,1043.82 1200.54,1043.11 1202.52,1042.02 1204.5,1041.52 1206.48,1040.26 1208.46,1036.13 1210.44,1034.29 1212.42,1033.55 1214.4,1032.4 1216.38,1032.29 1218.36,1032.14 1220.34,1030.89 1222.32,1030.65 1224.3,1030.27 1226.28,1029.85 1228.26,1028.74 1230.24,1028.32 1232.22,1026.69 1234.2,1026.18 1236.18,1025.25 1238.16,1024.79 1240.14,1024.75 1242.12,1024.73 1244.1,1022.25 1246.08,1021.4 1248.06,1020.62 1250.04,1020.12 1252.02,1018.29 1254,1017.15 1255.98,1016.31 1257.96,1015.69 1259.94,1014.29 1261.92,1014.04 1263.9,1013.85 1265.88,1012.45 1267.85,1012.23 1269.83,1010.69 1271.81,1009.84 1273.79,1009.79 1275.77,1008.51 1277.75,1007.51 1279.73,1006.43 1281.71,1003.71 1283.69,1002.77 1285.67,1001.27 1287.65,1000.8 1289.63,998.365 1291.61,998.292 1293.59,997.977 1295.57,997.542 1297.55,996.206 1299.53,996.144 1301.51,995.557 1303.49,993.85 1305.47,993.089 1307.45,992.455 1309.43,992.204 1311.41,991.406 1313.39,987.389 1315.37,986.761 1317.35,984.588 1319.33,983.671 1321.31,983.373 1323.29,982.639 1325.27,980.782 1327.25,980.61 1329.23,980.488 1331.21,980.07 1333.19,979.568 1335.17,978.938 1337.15,978.737 1339.13,977.2 1341.11,976.011 1343.09,975.477 1345.07,975.409 1347.05,975.219 1349.03,973.424 1351.01,972.86 1352.99,972.472 1354.97,971.916 1356.95,971.842 1358.93,971.724 1360.91,971.544 1362.89,971.512 1364.87,971.351 1366.85,969.758 1368.83,968.754 1370.81,968.695 1372.79,968.351 1374.77,968.271 1376.75,968.261 1378.73,966.96 1380.71,966.918 1382.69,966.434 1384.67,964.799 1386.65,964.302 1388.63,962.966 1390.61,962.815 1392.59,962.386 1394.57,962.238 1396.55,961.322 1398.53,959.867 1400.51,958.621 1402.49,958.192 1404.46,958.075 1406.44,957.879 1408.42,957.657 1410.4,956.083 1412.38,954.223 1414.36,953.784 1416.34,953.427 1418.32,951.716 1420.3,951.694 1422.28,950.936 1424.26,950.716 1426.24,950.083 1428.22,949.324 1430.2,949.204 1432.18,947.061 1434.16,946.587 1436.14,946.368 1438.12,946.027 1440.1,945.983 1442.08,945.246 1444.06,944.926 1446.04,944.114 1448.02,942.82 1450,942.282 1451.98,942.126 1453.96,941.849 1455.94,941.197 1457.92,940.744 1459.9,940.676 1461.88,940.355 1463.86,939.228 1465.84,938.644 1467.82,938.451 1469.8,938.405 1471.78,938.28 1473.76,937.738 1475.74,937.273 1477.72,937.246 1479.7,937.14 1481.68,936.66 1483.66,936.278 1485.64,935.904 1487.62,933.984 1489.6,933.591 1491.58,933.283 1493.56,932.697 1495.54,932.678 1497.52,931.427 1499.5,930.979 1501.48,930.939 1503.46,930.698 1505.44,930.629 1507.42,930.288 1509.4,927.452 1511.38,926.851 1513.36,926.847 1515.34,925.847 1517.32,925.286 1519.3,925.113 1521.28,923.387 1523.26,923.039 1525.24,922.902 1527.22,921.113 1529.2,920.306 1531.18,920.226 1533.16,920.012 1535.14,918.857 1537.12,918.106 1539.1,917.795 1541.07,917.113 1543.05,916.013 1545.03,915.69 1547.01,915.29 1548.99,914.534 1550.97,914.351 1552.95,914.165 1554.93,914.137 1556.91,912.941 1558.89,912.612 1560.87,912.571 1562.85,911.994 1564.83,911.92 1566.81,911.898 1568.79,909.785 1570.77,909.758 1572.75,907.852 1574.73,906.409 1576.71,906.37 1578.69,904.044 1580.67,903.717 1582.65,903.123 1584.63,902.36 1586.61,901.438 1588.59,901.294 1590.57,901.027 1592.55,899.761 1594.53,899.321 1596.51,899.304 1598.49,899.198 1600.47,898.313 1602.45,897.984 1604.43,897.906 1606.41,896.739 1608.39,895.584 1610.37,894.254 1612.35,894.019 1614.33,893.441 1616.31,892.85 1618.29,892.743 1620.27,890.32 1622.25,889.315 1624.23,889.213 1626.21,888.34 1628.19,887.461 1630.17,887.358 1632.15,887.156 1634.13,886.551 1636.11,881.769 1638.09,881.118 1640.07,880.896 1642.05,880.759 1644.03,880.537 1646.01,879.478 1647.99,877.885 1649.97,877.766 1651.95,876.764 1653.93,876.72 1655.91,876.142 1657.89,875.647 1659.87,875.572 1661.85,875.343 1663.83,873.753 1665.81,873.474 1667.79,872.053 1669.77,871.871 1671.75,871.405 1673.73,871.004 1675.71,870.768 1677.68,868.144 1679.66,868.027 1681.64,867.65 1683.62,867.603 1685.6,866.693 1687.58,866.23 1689.56,865.985 1691.54,865.286 1693.52,865.185 1695.5,863.936 1697.48,863.311 1699.46,863.151 1701.44,862.988 1703.42,861.066 1705.4,860.25 1707.38,859.589 1709.36,857.736 1711.34,856.613 1713.32,856.51 1715.3,854.827 1717.28,850.91 1719.26,849.661 1721.24,848.777 1723.22,848.536 1725.2,846.877 1727.18,845.207 1729.16,844.996 1731.14,844.289 1733.12,843.014 1735.1,841.503 1737.08,839.849 1739.06,839.442 1741.04,839.068 1743.02,839.048 1745,838.075 1746.98,836.781 1748.96,836.243 1750.94,834.833 1752.92,834.701 1754.9,831.677 1756.88,827.868 1758.86,826.675 1760.84,826.656 1762.82,821.296 1764.8,821.226 1766.78,819.968 1768.76,818.462 1770.74,814.92 1772.72,813.234 1774.7,809.763 1776.68,807.092 1778.66,804.673 1780.64,800.706 1782.62,798.549 1784.6,794.246 1786.58,792.868 1788.56,791.842 1790.54,786.994 1792.52,774.666 1794.5,768.945 1796.48,764.827 1798.46,734.241 1800.44,623.631 1802.42,546.532 1804.4,533.538 1806.38,516.062 1808.36,509.972 1810.34,504.374 1812.31,480.931 1814.29,477.92 1816.27,455.959 1818.25,455.386 1820.23,439.988 1822.21,436.268 1824.19,402.917 1826.17,380.687 1828.15,378.278 1830.13,355.689 1832.11,355.144 1834.09,354.227 1836.07,352.094 1838.05,345.879 1840.03,343.905 1842.01,338.216 1843.99,324.529 1845.97,323.038 1847.95,318.685 1849.93,317.186 1851.91,316.033 1853.89,315.335 1855.87,312.985 1857.85,310.327 1859.83,305.872 1861.81,298.45 1863.79,297.976 1865.77,297.971 1867.75,295.692 1869.73,295.198 1871.71,293.902 1873.69,289.307 1875.67,279.891 1877.65,276.597 1879.63,270.477 1881.61,263.46 1883.59,263.229 1885.57,263.159 1887.55,262.797 1889.53,262.744 1891.51,262.71 1893.49,261.673 1895.47,260.012 1897.45,259.203 1899.43,256.317 1901.41,253.607 1903.39,251.194 1905.37,251.151 1907.35,250.593 1909.33,250.118 1911.31,241.569 1913.29,241.458 1915.27,240.797 1917.25,239.832 1919.23,236.551 1921.21,231.505 1923.19,228.59 1925.17,227.503 1927.15,227.454 1929.13,227.078 1931.11,226.303 1933.09,225.727 1935.07,224.314 1937.05,223.376 1939.03,223.168 1941.01,222.615 1942.99,222.301 1944.97,222.213 1946.95,221.061 1948.92,220.617 1950.9,219.643 1952.88,218.108 1954.86,217.304 1956.84,216.391 1958.82,216.256 1960.8,214.618 1962.78,214.166 1964.76,213.64 1966.74,213.291 1968.72,212.399 1970.7,211.832 1972.68,211.448 1974.66,211.397 1976.64,209.116 1978.62,208.671 1980.6,208.154 1982.58,207.758 1984.56,206.974 1986.54,206.431 1988.52,206.021 1990.5,205.608 1992.48,204.756 1994.46,204.057 1996.44,202.531 1998.42,202.269 2000.4,202.044 2002.38,201.27 2004.36,201.128 2006.34,200.95 2008.32,200.934 2010.3,200.696 2012.28,200.344 2014.26,200.318 2016.24,199.788 2018.22,197.196 2020.2,197.008 2022.18,195.923 2024.16,195.674 2026.14,195.4 2028.12,194.988 2030.1,194.19 2032.08,194.117 2034.06,193.557 2036.04,193.219 2038.02,192.684 2040,192.121 2041.98,191.294 2043.96,191.127 2045.94,191.127 2047.92,191.016 2049.9,190.64 2051.88,190.547 2053.86,190.519 2055.84,190.372 2057.82,190.205 2059.8,189.8 2061.78,189.296 2063.76,188.998 2065.74,188.738 2067.72,188.345 2069.7,188.201 2071.68,188.173 2073.66,187.924 2075.64,187.867 2077.62,187.778 2079.6,186.642 2081.58,186.588 2083.56,186.335 2085.53,186.03 2087.51,185.882 2089.49,185.768 2091.47,185.753 2093.45,185.435 2095.43,185.368 2097.41,185.351 2099.39,184.767 2101.37,184.659 2103.35,184.603 2105.33,184.533 2107.31,183.351 2109.29,183.344 2111.27,183.266 2113.25,182.983 2115.23,182.922 2117.21,182.413 2119.19,182.166 2121.17,182.138 2123.15,181.71 2125.13,181.215 2127.11,180.677 2129.09,180.638 2131.07,180.434 2133.05,180.42 2135.03,179.98 2137.01,179.867 2138.99,179.653 2140.97,179.622 2142.95,179.493 2144.93,178.989 2146.91,178.948 2148.89,178.931 2150.87,178.856 2152.85,178.691 2154.83,178.498 2156.81,178.414 2158.79,176.661 2160.77,176.645 2162.75,176.539 2164.73,176.294 2166.71,176.218 2168.69,176.142 2170.67,175.754 2172.65,175.464 2174.63,175.357 2176.61,175.124 2178.59,174.778 2180.57,174.599 2182.55,174.467 2184.53,174.12 2186.51,174.119 2188.49,173.388 2190.47,173.107 2192.45,172.321 2194.43,172.263 2196.41,172.054 2198.39,171.551 2200.37,171.455 2202.35,171.154 2204.33,170.958 2206.31,170.931 2208.29,170.806 2210.27,170.613 2212.25,170.502 2214.23,170.203 2216.21,170.111 2218.19,169.652 2220.17,169.422 2222.14,169.171 2224.12,169.033 2226.1,168.943 2228.08,168.88 2230.06,168.692 2232.04,168.483 2234.02,167.975 2236,167.857 2237.98,167.739 2239.96,167.487 2241.94,167.343 2243.92,167.222 2245.9,167.109 2247.88,167.028 2249.86,166.883 2251.84,166.68 2253.82,166.661 2255.8,166.428 2257.78,166.371 2259.76,164.871 2261.74,164.541 2263.72,164.165 2265.7,164.123 2267.68,163.908 2269.66,163.887 2271.64,163.408 2273.62,163.235 2275.6,162.831 2277.58,162.655 2279.56,162.223 2281.54,162.095 2283.52,161.477 2285.5,160.791 2287.48,160.783 2289.46,160.587 2291.44,160.394 2293.42,160.256 "/>
<path clip-path="url(#clip240)" d="M326.094 270.476 L755.354 270.476 L755.354 166.796 L326.094 166.796  Z" fill="#ffffff" fill-rule="evenodd" fill-opacity="1"/>
<polyline clip-path="url(#clip240)" style="stroke:#000000; stroke-linecap:round; stroke-linejoin:round; stroke-width:4; stroke-opacity:1; fill:none" points="326.094,270.476 755.354,270.476 755.354,166.796 326.094,166.796 326.094,270.476 "/>
<polyline clip-path="url(#clip240)" style="stroke:#009af9; stroke-linecap:round; stroke-linejoin:round; stroke-width:4; stroke-opacity:1; fill:none" points="349.389,218.636 489.158,218.636 "/>
<path clip-path="url(#clip240)" d="M534.699 202.49 L534.699 207.05 Q532.037 205.777 529.675 205.152 Q527.314 204.527 525.115 204.527 Q521.296 204.527 519.213 206.008 Q517.152 207.49 517.152 210.221 Q517.152 212.513 518.518 213.694 Q519.907 214.851 523.75 215.569 L526.574 216.147 Q531.805 217.143 534.282 219.666 Q536.782 222.166 536.782 226.379 Q536.782 231.402 533.402 233.994 Q530.046 236.587 523.541 236.587 Q521.088 236.587 518.31 236.031 Q515.555 235.476 512.592 234.388 L512.592 229.573 Q515.439 231.17 518.171 231.981 Q520.902 232.791 523.541 232.791 Q527.546 232.791 529.722 231.217 Q531.898 229.643 531.898 226.726 Q531.898 224.18 530.324 222.744 Q528.773 221.309 525.208 220.592 L522.361 220.036 Q517.129 218.995 514.791 216.772 Q512.453 214.55 512.453 210.592 Q512.453 206.008 515.671 203.37 Q518.912 200.731 524.583 200.731 Q527.013 200.731 529.537 201.171 Q532.06 201.61 534.699 202.49 Z" fill="#000000" fill-rule="nonzero" fill-opacity="1" /><path clip-path="url(#clip240)" d="M543.888 209.99 L548.148 209.99 L548.148 235.916 L543.888 235.916 L543.888 209.99 M543.888 199.897 L548.148 199.897 L548.148 205.291 L543.888 205.291 L543.888 199.897 Z" fill="#000000" fill-rule="nonzero" fill-opacity="1" /><path clip-path="url(#clip240)" d="M577.245 214.967 Q578.842 212.096 581.064 210.731 Q583.286 209.365 586.296 209.365 Q590.346 209.365 592.545 212.212 Q594.745 215.036 594.745 220.268 L594.745 235.916 L590.462 235.916 L590.462 220.407 Q590.462 216.68 589.143 214.874 Q587.823 213.069 585.115 213.069 Q581.805 213.069 579.884 215.268 Q577.962 217.467 577.962 221.263 L577.962 235.916 L573.68 235.916 L573.68 220.407 Q573.68 216.657 572.36 214.874 Q571.041 213.069 568.286 213.069 Q565.022 213.069 563.101 215.291 Q561.18 217.49 561.18 221.263 L561.18 235.916 L556.898 235.916 L556.898 209.99 L561.18 209.99 L561.18 214.018 Q562.638 211.633 564.675 210.499 Q566.712 209.365 569.513 209.365 Q572.337 209.365 574.305 210.8 Q576.296 212.235 577.245 214.967 Z" fill="#000000" fill-rule="nonzero" fill-opacity="1" /><path clip-path="url(#clip240)" d="M603.24 209.99 L607.499 209.99 L607.499 235.916 L603.24 235.916 L603.24 209.99 M603.24 199.897 L607.499 199.897 L607.499 205.291 L603.24 205.291 L603.24 199.897 Z" fill="#000000" fill-rule="nonzero" fill-opacity="1" /><path clip-path="url(#clip240)" d="M616.411 199.897 L620.67 199.897 L620.67 235.916 L616.411 235.916 L616.411 199.897 Z" fill="#000000" fill-rule="nonzero" fill-opacity="1" /><path clip-path="url(#clip240)" d="M641.365 222.883 Q636.203 222.883 634.212 224.064 Q632.221 225.244 632.221 228.092 Q632.221 230.36 633.703 231.703 Q635.207 233.022 637.777 233.022 Q641.318 233.022 643.448 230.522 Q645.601 227.999 645.601 223.832 L645.601 222.883 L641.365 222.883 M649.86 221.124 L649.86 235.916 L645.601 235.916 L645.601 231.981 Q644.142 234.342 641.967 235.476 Q639.791 236.587 636.642 236.587 Q632.661 236.587 630.3 234.365 Q627.962 232.119 627.962 228.369 Q627.962 223.994 630.879 221.772 Q633.818 219.55 639.629 219.55 L645.601 219.55 L645.601 219.133 Q645.601 216.194 643.656 214.596 Q641.735 212.976 638.24 212.976 Q636.017 212.976 633.911 213.508 Q631.805 214.041 629.86 215.106 L629.86 211.17 Q632.198 210.268 634.397 209.828 Q636.596 209.365 638.68 209.365 Q644.304 209.365 647.082 212.282 Q649.86 215.198 649.86 221.124 Z" fill="#000000" fill-rule="nonzero" fill-opacity="1" /><path clip-path="url(#clip240)" d="M673.656 213.971 Q672.939 213.555 672.082 213.37 Q671.249 213.161 670.23 213.161 Q666.619 213.161 664.675 215.522 Q662.753 217.86 662.753 222.258 L662.753 235.916 L658.471 235.916 L658.471 209.99 L662.753 209.99 L662.753 214.018 Q664.096 211.657 666.249 210.522 Q668.402 209.365 671.48 209.365 Q671.92 209.365 672.452 209.434 Q672.985 209.481 673.633 209.596 L673.656 213.971 Z" fill="#000000" fill-rule="nonzero" fill-opacity="1" /><path clip-path="url(#clip240)" d="M678.124 209.99 L682.383 209.99 L682.383 235.916 L678.124 235.916 L678.124 209.99 M678.124 199.897 L682.383 199.897 L682.383 205.291 L678.124 205.291 L678.124 199.897 Z" fill="#000000" fill-rule="nonzero" fill-opacity="1" /><path clip-path="url(#clip240)" d="M695.508 202.629 L695.508 209.99 L704.281 209.99 L704.281 213.3 L695.508 213.3 L695.508 227.374 Q695.508 230.545 696.364 231.448 Q697.244 232.351 699.906 232.351 L704.281 232.351 L704.281 235.916 L699.906 235.916 Q694.975 235.916 693.101 234.087 Q691.226 232.235 691.226 227.374 L691.226 213.3 L688.101 213.3 L688.101 209.99 L691.226 209.99 L691.226 202.629 L695.508 202.629 Z" fill="#000000" fill-rule="nonzero" fill-opacity="1" /><path clip-path="url(#clip240)" d="M720.67 238.323 Q718.864 242.953 717.151 244.365 Q715.438 245.777 712.568 245.777 L709.165 245.777 L709.165 242.212 L711.665 242.212 Q713.424 242.212 714.397 241.379 Q715.369 240.545 716.549 237.443 L717.313 235.499 L706.827 209.99 L711.341 209.99 L719.443 230.268 L727.545 209.99 L732.059 209.99 L720.67 238.323 Z" fill="#000000" fill-rule="nonzero" fill-opacity="1" /></svg>
