<?xml version="1.0" encoding="utf-8"?>
<svg xmlns="http://www.w3.org/2000/svg" xmlns:xlink="http://www.w3.org/1999/xlink" width="600" height="400" viewBox="0 0 2400 1600">
<defs>
  <clipPath id="clip800">
    <rect x="0" y="0" width="2400" height="1600"/>
  </clipPath>
</defs>
<path clip-path="url(#clip800)" d="M0 1600 L2400 1600 L2400 8.88178e-14 L0 8.88178e-14  Z" fill="#ffffff" fill-rule="evenodd" fill-opacity="1"/>
<defs>
  <clipPath id="clip801">
    <rect x="480" y="0" width="1681" height="1600"/>
  </clipPath>
</defs>
<path clip-path="url(#clip800)" d="M256.209 1423.18 L2352.76 1423.18 L2352.76 123.472 L256.209 123.472  Z" fill="#ffffff" fill-rule="evenodd" fill-opacity="1"/>
<defs>
  <clipPath id="clip802">
    <rect x="256" y="123" width="2098" height="1301"/>
  </clipPath>
</defs>
<polyline clip-path="url(#clip802)" style="stroke:#000000; stroke-linecap:round; stroke-linejoin:round; stroke-width:2; stroke-opacity:0.1; fill:none" points="313.565,1423.18 313.565,123.472 "/>
<polyline clip-path="url(#clip802)" style="stroke:#000000; stroke-linecap:round; stroke-linejoin:round; stroke-width:2; stroke-opacity:0.1; fill:none" points="808.529,1423.18 808.529,123.472 "/>
<polyline clip-path="url(#clip802)" style="stroke:#000000; stroke-linecap:round; stroke-linejoin:round; stroke-width:2; stroke-opacity:0.1; fill:none" points="1303.49,1423.18 1303.49,123.472 "/>
<polyline clip-path="url(#clip802)" style="stroke:#000000; stroke-linecap:round; stroke-linejoin:round; stroke-width:2; stroke-opacity:0.1; fill:none" points="1798.46,1423.18 1798.46,123.472 "/>
<polyline clip-path="url(#clip802)" style="stroke:#000000; stroke-linecap:round; stroke-linejoin:round; stroke-width:2; stroke-opacity:0.1; fill:none" points="2293.42,1423.18 2293.42,123.472 "/>
<polyline clip-path="url(#clip800)" style="stroke:#000000; stroke-linecap:round; stroke-linejoin:round; stroke-width:4; stroke-opacity:1; fill:none" points="256.209,1423.18 2352.76,1423.18 "/>
<polyline clip-path="url(#clip800)" style="stroke:#000000; stroke-linecap:round; stroke-linejoin:round; stroke-width:4; stroke-opacity:1; fill:none" points="313.565,1423.18 313.565,1404.28 "/>
<polyline clip-path="url(#clip800)" style="stroke:#000000; stroke-linecap:round; stroke-linejoin:round; stroke-width:4; stroke-opacity:1; fill:none" points="808.529,1423.18 808.529,1404.28 "/>
<polyline clip-path="url(#clip800)" style="stroke:#000000; stroke-linecap:round; stroke-linejoin:round; stroke-width:4; stroke-opacity:1; fill:none" points="1303.49,1423.18 1303.49,1404.28 "/>
<polyline clip-path="url(#clip800)" style="stroke:#000000; stroke-linecap:round; stroke-linejoin:round; stroke-width:4; stroke-opacity:1; fill:none" points="1798.46,1423.18 1798.46,1404.28 "/>
<polyline clip-path="url(#clip800)" style="stroke:#000000; stroke-linecap:round; stroke-linejoin:round; stroke-width:4; stroke-opacity:1; fill:none" points="2293.42,1423.18 2293.42,1404.28 "/>
<path clip-path="url(#clip800)" d="M313.565 1454.1 Q309.954 1454.1 308.125 1457.66 Q306.32 1461.2 306.32 1468.33 Q306.32 1475.44 308.125 1479.01 Q309.954 1482.55 313.565 1482.55 Q317.199 1482.55 319.005 1479.01 Q320.834 1475.44 320.834 1468.33 Q320.834 1461.2 319.005 1457.66 Q317.199 1454.1 313.565 1454.1 M313.565 1450.39 Q319.375 1450.39 322.431 1455 Q325.509 1459.58 325.509 1468.33 Q325.509 1477.06 322.431 1481.67 Q319.375 1486.25 313.565 1486.25 Q307.755 1486.25 304.676 1481.67 Q301.621 1477.06 301.621 1468.33 Q301.621 1459.58 304.676 1455 Q307.755 1450.39 313.565 1450.39 Z" fill="#000000" fill-rule="nonzero" fill-opacity="1" /><path clip-path="url(#clip800)" d="M772.221 1481.64 L788.54 1481.64 L788.54 1485.58 L766.596 1485.58 L766.596 1481.64 Q769.258 1478.89 773.841 1474.26 Q778.448 1469.61 779.628 1468.27 Q781.874 1465.74 782.753 1464.01 Q783.656 1462.25 783.656 1460.56 Q783.656 1457.8 781.712 1456.07 Q779.79 1454.33 776.689 1454.33 Q774.49 1454.33 772.036 1455.09 Q769.605 1455.86 766.828 1457.41 L766.828 1452.69 Q769.652 1451.55 772.105 1450.97 Q774.559 1450.39 776.596 1450.39 Q781.966 1450.39 785.161 1453.08 Q788.355 1455.77 788.355 1460.26 Q788.355 1462.39 787.545 1464.31 Q786.758 1466.2 784.652 1468.8 Q784.073 1469.47 780.971 1472.69 Q777.869 1475.88 772.221 1481.64 Z" fill="#000000" fill-rule="nonzero" fill-opacity="1" /><path clip-path="url(#clip800)" d="M798.401 1451.02 L816.758 1451.02 L816.758 1454.96 L802.684 1454.96 L802.684 1463.43 Q803.702 1463.08 804.721 1462.92 Q805.739 1462.73 806.758 1462.73 Q812.545 1462.73 815.924 1465.9 Q819.304 1469.08 819.304 1474.49 Q819.304 1480.07 815.832 1483.17 Q812.36 1486.25 806.04 1486.25 Q803.864 1486.25 801.596 1485.88 Q799.351 1485.51 796.943 1484.77 L796.943 1480.07 Q799.026 1481.2 801.249 1481.76 Q803.471 1482.32 805.948 1482.32 Q809.952 1482.32 812.29 1480.21 Q814.628 1478.1 814.628 1474.49 Q814.628 1470.88 812.29 1468.77 Q809.952 1466.67 805.948 1466.67 Q804.073 1466.67 802.198 1467.08 Q800.346 1467.5 798.401 1468.38 L798.401 1451.02 Z" fill="#000000" fill-rule="nonzero" fill-opacity="1" /><path clip-path="url(#clip800)" d="M838.517 1454.1 Q834.906 1454.1 833.077 1457.66 Q831.272 1461.2 831.272 1468.33 Q831.272 1475.44 833.077 1479.01 Q834.906 1482.55 838.517 1482.55 Q842.151 1482.55 843.957 1479.01 Q845.785 1475.44 845.785 1468.33 Q845.785 1461.2 843.957 1457.66 Q842.151 1454.1 838.517 1454.1 M838.517 1450.39 Q844.327 1450.39 847.383 1455 Q850.461 1459.58 850.461 1468.33 Q850.461 1477.06 847.383 1481.67 Q844.327 1486.25 838.517 1486.25 Q832.707 1486.25 829.628 1481.67 Q826.573 1477.06 826.573 1468.33 Q826.573 1459.58 829.628 1455 Q832.707 1450.39 838.517 1450.39 Z" fill="#000000" fill-rule="nonzero" fill-opacity="1" /><path clip-path="url(#clip800)" d="M1263.11 1451.02 L1281.47 1451.02 L1281.47 1454.96 L1267.39 1454.96 L1267.39 1463.43 Q1268.41 1463.08 1269.43 1462.92 Q1270.45 1462.73 1271.47 1462.73 Q1277.25 1462.73 1280.63 1465.9 Q1284.01 1469.08 1284.01 1474.49 Q1284.01 1480.07 1280.54 1483.17 Q1277.07 1486.25 1270.75 1486.25 Q1268.57 1486.25 1266.31 1485.88 Q1264.06 1485.51 1261.65 1484.77 L1261.65 1480.07 Q1263.74 1481.2 1265.96 1481.76 Q1268.18 1482.32 1270.66 1482.32 Q1274.66 1482.32 1277 1480.21 Q1279.34 1478.1 1279.34 1474.49 Q1279.34 1470.88 1277 1468.77 Q1274.66 1466.67 1270.66 1466.67 Q1268.78 1466.67 1266.91 1467.08 Q1265.06 1467.5 1263.11 1468.38 L1263.11 1451.02 Z" fill="#000000" fill-rule="nonzero" fill-opacity="1" /><path clip-path="url(#clip800)" d="M1303.23 1454.1 Q1299.62 1454.1 1297.79 1457.66 Q1295.98 1461.2 1295.98 1468.33 Q1295.98 1475.44 1297.79 1479.01 Q1299.62 1482.55 1303.23 1482.55 Q1306.86 1482.55 1308.67 1479.01 Q1310.49 1475.44 1310.49 1468.33 Q1310.49 1461.2 1308.67 1457.66 Q1306.86 1454.1 1303.23 1454.1 M1303.23 1450.39 Q1309.04 1450.39 1312.09 1455 Q1315.17 1459.58 1315.17 1468.33 Q1315.17 1477.06 1312.09 1481.67 Q1309.04 1486.25 1303.23 1486.25 Q1297.42 1486.25 1294.34 1481.67 Q1291.28 1477.06 1291.28 1468.33 Q1291.28 1459.58 1294.34 1455 Q1297.42 1450.39 1303.23 1450.39 Z" fill="#000000" fill-rule="nonzero" fill-opacity="1" /><path clip-path="url(#clip800)" d="M1333.39 1454.1 Q1329.78 1454.1 1327.95 1457.66 Q1326.14 1461.2 1326.14 1468.33 Q1326.14 1475.44 1327.95 1479.01 Q1329.78 1482.55 1333.39 1482.55 Q1337.02 1482.55 1338.83 1479.01 Q1340.66 1475.44 1340.66 1468.33 Q1340.66 1461.2 1338.83 1457.66 Q1337.02 1454.1 1333.39 1454.1 M1333.39 1450.39 Q1339.2 1450.39 1342.25 1455 Q1345.33 1459.58 1345.33 1468.33 Q1345.33 1477.06 1342.25 1481.67 Q1339.2 1486.25 1333.39 1486.25 Q1327.58 1486.25 1324.5 1481.67 Q1321.44 1477.06 1321.44 1468.33 Q1321.44 1459.58 1324.5 1455 Q1327.58 1450.39 1333.39 1450.39 Z" fill="#000000" fill-rule="nonzero" fill-opacity="1" /><path clip-path="url(#clip800)" d="M1756.73 1451.02 L1778.95 1451.02 L1778.95 1453.01 L1766.41 1485.58 L1761.52 1485.58 L1773.33 1454.96 L1756.73 1454.96 L1756.73 1451.02 Z" fill="#000000" fill-rule="nonzero" fill-opacity="1" /><path clip-path="url(#clip800)" d="M1788.12 1451.02 L1806.48 1451.02 L1806.48 1454.96 L1792.4 1454.96 L1792.4 1463.43 Q1793.42 1463.08 1794.44 1462.92 Q1795.46 1462.73 1796.48 1462.73 Q1802.26 1462.73 1805.64 1465.9 Q1809.02 1469.08 1809.02 1474.49 Q1809.02 1480.07 1805.55 1483.17 Q1802.08 1486.25 1795.76 1486.25 Q1793.58 1486.25 1791.31 1485.88 Q1789.07 1485.51 1786.66 1484.77 L1786.66 1480.07 Q1788.75 1481.2 1790.97 1481.76 Q1793.19 1482.32 1795.67 1482.32 Q1799.67 1482.32 1802.01 1480.21 Q1804.35 1478.1 1804.35 1474.49 Q1804.35 1470.88 1802.01 1468.77 Q1799.67 1466.67 1795.67 1466.67 Q1793.79 1466.67 1791.92 1467.08 Q1790.06 1467.5 1788.12 1468.38 L1788.12 1451.02 Z" fill="#000000" fill-rule="nonzero" fill-opacity="1" /><path clip-path="url(#clip800)" d="M1828.24 1454.1 Q1824.62 1454.1 1822.8 1457.66 Q1820.99 1461.2 1820.99 1468.33 Q1820.99 1475.44 1822.8 1479.01 Q1824.62 1482.55 1828.24 1482.55 Q1831.87 1482.55 1833.68 1479.01 Q1835.5 1475.44 1835.5 1468.33 Q1835.5 1461.2 1833.68 1457.66 Q1831.87 1454.1 1828.24 1454.1 M1828.24 1450.39 Q1834.05 1450.39 1837.1 1455 Q1840.18 1459.58 1840.18 1468.33 Q1840.18 1477.06 1837.1 1481.67 Q1834.05 1486.25 1828.24 1486.25 Q1822.43 1486.25 1819.35 1481.67 Q1816.29 1477.06 1816.29 1468.33 Q1816.29 1459.58 1819.35 1455 Q1822.43 1450.39 1828.24 1450.39 Z" fill="#000000" fill-rule="nonzero" fill-opacity="1" /><path clip-path="url(#clip800)" d="M2237.95 1481.64 L2245.58 1481.64 L2245.58 1455.28 L2237.27 1456.95 L2237.27 1452.69 L2245.54 1451.02 L2250.21 1451.02 L2250.21 1481.64 L2257.85 1481.64 L2257.85 1485.58 L2237.95 1485.58 L2237.95 1481.64 Z" fill="#000000" fill-rule="nonzero" fill-opacity="1" /><path clip-path="url(#clip800)" d="M2277.3 1454.1 Q2273.69 1454.1 2271.86 1457.66 Q2270.05 1461.2 2270.05 1468.33 Q2270.05 1475.44 2271.86 1479.01 Q2273.69 1482.55 2277.3 1482.55 Q2280.93 1482.55 2282.74 1479.01 Q2284.57 1475.44 2284.57 1468.33 Q2284.57 1461.2 2282.74 1457.66 Q2280.93 1454.1 2277.3 1454.1 M2277.3 1450.39 Q2283.11 1450.39 2286.16 1455 Q2289.24 1459.58 2289.24 1468.33 Q2289.24 1477.06 2286.16 1481.67 Q2283.11 1486.25 2277.3 1486.25 Q2271.49 1486.25 2268.41 1481.67 Q2265.35 1477.06 2265.35 1468.33 Q2265.35 1459.58 2268.41 1455 Q2271.49 1450.39 2277.3 1450.39 Z" fill="#000000" fill-rule="nonzero" fill-opacity="1" /><path clip-path="url(#clip800)" d="M2307.46 1454.1 Q2303.85 1454.1 2302.02 1457.66 Q2300.21 1461.2 2300.21 1468.33 Q2300.21 1475.44 2302.02 1479.01 Q2303.85 1482.55 2307.46 1482.55 Q2311.09 1482.55 2312.9 1479.01 Q2314.73 1475.44 2314.73 1468.33 Q2314.73 1461.2 2312.9 1457.66 Q2311.09 1454.1 2307.46 1454.1 M2307.46 1450.39 Q2313.27 1450.39 2316.32 1455 Q2319.4 1459.58 2319.4 1468.33 Q2319.4 1477.06 2316.32 1481.67 Q2313.27 1486.25 2307.46 1486.25 Q2301.65 1486.25 2298.57 1481.67 Q2295.51 1477.06 2295.51 1468.33 Q2295.51 1459.58 2298.57 1455 Q2301.65 1450.39 2307.46 1450.39 Z" fill="#000000" fill-rule="nonzero" fill-opacity="1" /><path clip-path="url(#clip800)" d="M2337.62 1454.1 Q2334.01 1454.1 2332.18 1457.66 Q2330.38 1461.2 2330.38 1468.33 Q2330.38 1475.44 2332.18 1479.01 Q2334.01 1482.55 2337.62 1482.55 Q2341.26 1482.55 2343.06 1479.01 Q2344.89 1475.44 2344.89 1468.33 Q2344.89 1461.2 2343.06 1457.66 Q2341.26 1454.1 2337.62 1454.1 M2337.62 1450.39 Q2343.43 1450.39 2346.49 1455 Q2349.57 1459.58 2349.57 1468.33 Q2349.57 1477.06 2346.49 1481.67 Q2343.43 1486.25 2337.62 1486.25 Q2331.81 1486.25 2328.73 1481.67 Q2325.68 1477.06 2325.68 1468.33 Q2325.68 1459.58 2328.73 1455 Q2331.81 1450.39 2337.62 1450.39 Z" fill="#000000" fill-rule="nonzero" fill-opacity="1" /><path clip-path="url(#clip800)" d="M1268.33 1524.18 L1268.33 1530.96 Q1265.08 1527.94 1261.39 1526.44 Q1257.73 1524.95 1253.59 1524.95 Q1245.44 1524.95 1241.11 1529.95 Q1236.78 1534.91 1236.78 1544.33 Q1236.78 1553.72 1241.11 1558.72 Q1245.44 1563.68 1253.59 1563.68 Q1257.73 1563.68 1261.39 1562.19 Q1265.08 1560.69 1268.33 1557.67 L1268.33 1564.38 Q1264.95 1566.68 1261.16 1567.82 Q1257.41 1568.97 1253.21 1568.97 Q1242.42 1568.97 1236.21 1562.38 Q1230 1555.76 1230 1544.33 Q1230 1532.87 1236.21 1526.28 Q1242.42 1519.66 1253.21 1519.66 Q1257.47 1519.66 1261.23 1520.81 Q1265.01 1521.92 1268.33 1524.18 Z" fill="#000000" fill-rule="nonzero" fill-opacity="1" /><path clip-path="url(#clip800)" d="M1308.49 1548.76 L1308.49 1551.62 L1281.57 1551.62 Q1281.95 1557.67 1285.19 1560.85 Q1288.47 1564 1294.3 1564 Q1297.67 1564 1300.82 1563.17 Q1304 1562.35 1307.12 1560.69 L1307.12 1566.23 Q1303.97 1567.57 1300.66 1568.27 Q1297.35 1568.97 1293.95 1568.97 Q1285.42 1568.97 1280.42 1564 Q1275.45 1559.04 1275.45 1550.57 Q1275.45 1541.82 1280.17 1536.69 Q1284.91 1531.54 1292.93 1531.54 Q1300.12 1531.54 1304.29 1536.18 Q1308.49 1540.8 1308.49 1548.76 M1302.64 1547.04 Q1302.57 1542.23 1299.93 1539.37 Q1297.32 1536.5 1292.99 1536.5 Q1288.09 1536.5 1285.13 1539.27 Q1282.2 1542.04 1281.76 1547.07 L1302.64 1547.04 Z" fill="#000000" fill-rule="nonzero" fill-opacity="1" /><path clip-path="url(#clip800)" d="M1318.1 1518.52 L1323.96 1518.52 L1323.96 1568.04 L1318.1 1568.04 L1318.1 1518.52 Z" fill="#000000" fill-rule="nonzero" fill-opacity="1" /><path clip-path="url(#clip800)" d="M1336.22 1518.52 L1342.07 1518.52 L1342.07 1568.04 L1336.22 1568.04 L1336.22 1518.52 Z" fill="#000000" fill-rule="nonzero" fill-opacity="1" /><path clip-path="url(#clip800)" d="M1377.05 1533.45 L1377.05 1538.98 Q1374.57 1537.71 1371.9 1537.07 Q1369.22 1536.44 1366.36 1536.44 Q1362 1536.44 1359.8 1537.77 Q1357.64 1539.11 1357.64 1541.79 Q1357.64 1543.82 1359.2 1545 Q1360.76 1546.15 1365.47 1547.2 L1367.47 1547.64 Q1373.71 1548.98 1376.32 1551.43 Q1378.96 1553.85 1378.96 1558.21 Q1378.96 1563.17 1375.01 1566.07 Q1371.1 1568.97 1364.22 1568.97 Q1361.36 1568.97 1358.24 1568.39 Q1355.15 1567.85 1351.72 1566.74 L1351.72 1560.69 Q1354.96 1562.38 1358.11 1563.24 Q1361.26 1564.07 1364.35 1564.07 Q1368.49 1564.07 1370.72 1562.66 Q1372.95 1561.23 1372.95 1558.65 Q1372.95 1556.27 1371.32 1554.99 Q1369.73 1553.72 1364.29 1552.54 L1362.25 1552.07 Q1356.81 1550.92 1354.39 1548.56 Q1351.97 1546.18 1351.97 1542.04 Q1351.97 1537.01 1355.54 1534.27 Q1359.1 1531.54 1365.66 1531.54 Q1368.9 1531.54 1371.77 1532.01 Q1374.63 1532.49 1377.05 1533.45 Z" fill="#000000" fill-rule="nonzero" fill-opacity="1" /><polyline clip-path="url(#clip802)" style="stroke:#000000; stroke-linecap:round; stroke-linejoin:round; stroke-width:2; stroke-opacity:0.1; fill:none" points="256.209,1224.37 2352.76,1224.37 "/>
<polyline clip-path="url(#clip802)" style="stroke:#000000; stroke-linecap:round; stroke-linejoin:round; stroke-width:2; stroke-opacity:0.1; fill:none" points="256.209,868.749 2352.76,868.749 "/>
<polyline clip-path="url(#clip802)" style="stroke:#000000; stroke-linecap:round; stroke-linejoin:round; stroke-width:2; stroke-opacity:0.1; fill:none" points="256.209,513.127 2352.76,513.127 "/>
<polyline clip-path="url(#clip802)" style="stroke:#000000; stroke-linecap:round; stroke-linejoin:round; stroke-width:2; stroke-opacity:0.1; fill:none" points="256.209,157.505 2352.76,157.505 "/>
<polyline clip-path="url(#clip800)" style="stroke:#000000; stroke-linecap:round; stroke-linejoin:round; stroke-width:4; stroke-opacity:1; fill:none" points="256.209,1423.18 256.209,123.472 "/>
<polyline clip-path="url(#clip800)" style="stroke:#000000; stroke-linecap:round; stroke-linejoin:round; stroke-width:4; stroke-opacity:1; fill:none" points="256.209,1224.37 275.106,1224.37 "/>
<polyline clip-path="url(#clip800)" style="stroke:#000000; stroke-linecap:round; stroke-linejoin:round; stroke-width:4; stroke-opacity:1; fill:none" points="256.209,868.749 275.106,868.749 "/>
<polyline clip-path="url(#clip800)" style="stroke:#000000; stroke-linecap:round; stroke-linejoin:round; stroke-width:4; stroke-opacity:1; fill:none" points="256.209,513.127 275.106,513.127 "/>
<polyline clip-path="url(#clip800)" style="stroke:#000000; stroke-linecap:round; stroke-linejoin:round; stroke-width:4; stroke-opacity:1; fill:none" points="256.209,157.505 275.106,157.505 "/>
<path clip-path="url(#clip800)" d="M114.26 1224.82 L143.936 1224.82 L143.936 1228.76 L114.26 1228.76 L114.26 1224.82 Z" fill="#000000" fill-rule="nonzero" fill-opacity="1" /><path clip-path="url(#clip800)" d="M164.028 1210.17 Q160.417 1210.17 158.589 1213.74 Q156.783 1217.28 156.783 1224.41 Q156.783 1231.51 158.589 1235.08 Q160.417 1238.62 164.028 1238.62 Q167.663 1238.62 169.468 1235.08 Q171.297 1231.51 171.297 1224.41 Q171.297 1217.28 169.468 1213.74 Q167.663 1210.17 164.028 1210.17 M164.028 1206.47 Q169.839 1206.47 172.894 1211.07 Q175.973 1215.66 175.973 1224.41 Q175.973 1233.13 172.894 1237.74 Q169.839 1242.32 164.028 1242.32 Q158.218 1242.32 155.14 1237.74 Q152.084 1233.13 152.084 1224.41 Q152.084 1215.66 155.14 1211.07 Q158.218 1206.47 164.028 1206.47 Z" fill="#000000" fill-rule="nonzero" fill-opacity="1" /><path clip-path="url(#clip800)" d="M184.19 1235.77 L189.075 1235.77 L189.075 1241.65 L184.19 1241.65 L184.19 1235.77 Z" fill="#000000" fill-rule="nonzero" fill-opacity="1" /><path clip-path="url(#clip800)" d="M199.306 1207.09 L217.662 1207.09 L217.662 1211.03 L203.588 1211.03 L203.588 1219.5 Q204.607 1219.15 205.625 1218.99 Q206.644 1218.8 207.662 1218.8 Q213.449 1218.8 216.829 1221.98 Q220.209 1225.15 220.209 1230.56 Q220.209 1236.14 216.736 1239.24 Q213.264 1242.32 206.945 1242.32 Q204.769 1242.32 202.5 1241.95 Q200.255 1241.58 197.848 1240.84 L197.848 1236.14 Q199.931 1237.28 202.153 1237.83 Q204.375 1238.39 206.852 1238.39 Q210.857 1238.39 213.195 1236.28 Q215.533 1234.17 215.533 1230.56 Q215.533 1226.95 213.195 1224.85 Q210.857 1222.74 206.852 1222.74 Q204.977 1222.74 203.102 1223.16 Q201.25 1223.57 199.306 1224.45 L199.306 1207.09 Z" fill="#000000" fill-rule="nonzero" fill-opacity="1" /><path clip-path="url(#clip800)" d="M163.033 854.548 Q159.422 854.548 157.593 858.113 Q155.788 861.655 155.788 868.784 Q155.788 875.891 157.593 879.455 Q159.422 882.997 163.033 882.997 Q166.667 882.997 168.473 879.455 Q170.302 875.891 170.302 868.784 Q170.302 861.655 168.473 858.113 Q166.667 854.548 163.033 854.548 M163.033 850.844 Q168.843 850.844 171.899 855.451 Q174.977 860.034 174.977 868.784 Q174.977 877.511 171.899 882.117 Q168.843 886.701 163.033 886.701 Q157.223 886.701 154.144 882.117 Q151.089 877.511 151.089 868.784 Q151.089 860.034 154.144 855.451 Q157.223 850.844 163.033 850.844 Z" fill="#000000" fill-rule="nonzero" fill-opacity="1" /><path clip-path="url(#clip800)" d="M183.195 880.15 L188.079 880.15 L188.079 886.029 L183.195 886.029 L183.195 880.15 Z" fill="#000000" fill-rule="nonzero" fill-opacity="1" /><path clip-path="url(#clip800)" d="M208.264 854.548 Q204.653 854.548 202.824 858.113 Q201.019 861.655 201.019 868.784 Q201.019 875.891 202.824 879.455 Q204.653 882.997 208.264 882.997 Q211.899 882.997 213.704 879.455 Q215.533 875.891 215.533 868.784 Q215.533 861.655 213.704 858.113 Q211.899 854.548 208.264 854.548 M208.264 850.844 Q214.074 850.844 217.13 855.451 Q220.209 860.034 220.209 868.784 Q220.209 877.511 217.13 882.117 Q214.074 886.701 208.264 886.701 Q202.454 886.701 199.375 882.117 Q196.32 877.511 196.32 868.784 Q196.32 860.034 199.375 855.451 Q202.454 850.844 208.264 850.844 Z" fill="#000000" fill-rule="nonzero" fill-opacity="1" /><path clip-path="url(#clip800)" d="M164.028 498.926 Q160.417 498.926 158.589 502.491 Q156.783 506.032 156.783 513.162 Q156.783 520.268 158.589 523.833 Q160.417 527.375 164.028 527.375 Q167.663 527.375 169.468 523.833 Q171.297 520.268 171.297 513.162 Q171.297 506.032 169.468 502.491 Q167.663 498.926 164.028 498.926 M164.028 495.222 Q169.839 495.222 172.894 499.829 Q175.973 504.412 175.973 513.162 Q175.973 521.889 172.894 526.495 Q169.839 531.079 164.028 531.079 Q158.218 531.079 155.14 526.495 Q152.084 521.889 152.084 513.162 Q152.084 504.412 155.14 499.829 Q158.218 495.222 164.028 495.222 Z" fill="#000000" fill-rule="nonzero" fill-opacity="1" /><path clip-path="url(#clip800)" d="M184.19 524.528 L189.075 524.528 L189.075 530.407 L184.19 530.407 L184.19 524.528 Z" fill="#000000" fill-rule="nonzero" fill-opacity="1" /><path clip-path="url(#clip800)" d="M199.306 495.847 L217.662 495.847 L217.662 499.782 L203.588 499.782 L203.588 508.255 Q204.607 507.907 205.625 507.745 Q206.644 507.56 207.662 507.56 Q213.449 507.56 216.829 510.731 Q220.209 513.903 220.209 519.319 Q220.209 524.898 216.736 528 Q213.264 531.079 206.945 531.079 Q204.769 531.079 202.5 530.708 Q200.255 530.338 197.848 529.597 L197.848 524.898 Q199.931 526.032 202.153 526.588 Q204.375 527.143 206.852 527.143 Q210.857 527.143 213.195 525.037 Q215.533 522.93 215.533 519.319 Q215.533 515.708 213.195 513.602 Q210.857 511.495 206.852 511.495 Q204.977 511.495 203.102 511.912 Q201.25 512.329 199.306 513.208 L199.306 495.847 Z" fill="#000000" fill-rule="nonzero" fill-opacity="1" /><path clip-path="url(#clip800)" d="M153.843 170.85 L161.482 170.85 L161.482 144.484 L153.172 146.151 L153.172 141.892 L161.436 140.225 L166.112 140.225 L166.112 170.85 L173.751 170.85 L173.751 174.785 L153.843 174.785 L153.843 170.85 Z" fill="#000000" fill-rule="nonzero" fill-opacity="1" /><path clip-path="url(#clip800)" d="M183.195 168.905 L188.079 168.905 L188.079 174.785 L183.195 174.785 L183.195 168.905 Z" fill="#000000" fill-rule="nonzero" fill-opacity="1" /><path clip-path="url(#clip800)" d="M208.264 143.304 Q204.653 143.304 202.824 146.869 Q201.019 150.41 201.019 157.54 Q201.019 164.646 202.824 168.211 Q204.653 171.753 208.264 171.753 Q211.899 171.753 213.704 168.211 Q215.533 164.646 215.533 157.54 Q215.533 150.41 213.704 146.869 Q211.899 143.304 208.264 143.304 M208.264 139.6 Q214.074 139.6 217.13 144.207 Q220.209 148.79 220.209 157.54 Q220.209 166.267 217.13 170.873 Q214.074 175.456 208.264 175.456 Q202.454 175.456 199.375 170.873 Q196.32 166.267 196.32 157.54 Q196.32 148.79 199.375 144.207 Q202.454 139.6 208.264 139.6 Z" fill="#000000" fill-rule="nonzero" fill-opacity="1" /><path clip-path="url(#clip800)" d="M18.0438 893.717 L24.314 893.717 Q22.5634 897.378 21.704 900.624 Q20.8447 903.871 20.8447 906.894 Q20.8447 912.146 22.8817 915.011 Q24.9187 917.843 28.6745 917.843 Q31.8255 917.843 33.4488 915.966 Q35.0402 914.056 36.0269 908.772 L36.8226 904.889 Q38.1912 897.696 41.6605 894.29 Q45.098 890.853 50.8908 890.853 Q57.7976 890.853 61.3624 895.5 Q64.9272 900.115 64.9272 909.059 Q64.9272 912.433 64.1633 916.252 Q63.3994 920.04 61.9035 924.114 L55.2831 924.114 Q57.4793 920.199 58.5933 916.443 Q59.7073 912.687 59.7073 909.059 Q59.7073 903.552 57.543 900.561 Q55.3786 897.569 51.3682 897.569 Q47.8671 897.569 45.8937 899.733 Q43.9204 901.866 42.9337 906.767 L42.1698 910.682 Q40.7375 917.875 37.682 921.09 Q34.6264 924.305 29.1837 924.305 Q22.8817 924.305 19.2532 919.88 Q15.6248 915.424 15.6248 907.626 Q15.6248 904.284 16.2295 900.815 Q16.8343 897.346 18.0438 893.717 Z" fill="#000000" fill-rule="nonzero" fill-opacity="1" /><path clip-path="url(#clip800)" d="M28.3562 881.081 L28.3562 875.225 L64.0042 875.225 L64.0042 881.081 L28.3562 881.081 M14.479 881.081 L14.479 875.225 L21.895 875.225 L21.895 881.081 L14.479 881.081 Z" fill="#000000" fill-rule="nonzero" fill-opacity="1" /><path clip-path="url(#clip800)" d="M35.1993 835.217 Q31.2526 833.02 29.3747 829.965 Q27.4968 826.909 27.4968 822.772 Q27.4968 817.202 31.4117 814.178 Q35.2948 811.154 42.4881 811.154 L64.0042 811.154 L64.0042 817.042 L42.679 817.042 Q37.5546 817.042 35.072 818.857 Q32.5894 820.671 32.5894 824.395 Q32.5894 828.946 35.6131 831.588 Q38.6368 834.23 43.8567 834.23 L64.0042 834.23 L64.0042 840.118 L42.679 840.118 Q37.5228 840.118 35.072 841.932 Q32.5894 843.747 32.5894 847.534 Q32.5894 852.022 35.6449 854.664 Q38.6686 857.306 43.8567 857.306 L64.0042 857.306 L64.0042 863.194 L28.3562 863.194 L28.3562 857.306 L33.8944 857.306 Q30.616 855.3 29.0564 852.499 Q27.4968 849.699 27.4968 845.847 Q27.4968 841.964 29.4702 839.259 Q31.4436 836.522 35.1993 835.217 Z" fill="#000000" fill-rule="nonzero" fill-opacity="1" /><path clip-path="url(#clip800)" d="M28.3562 799.473 L28.3562 793.617 L64.0042 793.617 L64.0042 799.473 L28.3562 799.473 M14.479 799.473 L14.479 793.617 L21.895 793.617 L21.895 799.473 L14.479 799.473 Z" fill="#000000" fill-rule="nonzero" fill-opacity="1" /><path clip-path="url(#clip800)" d="M14.479 781.363 L14.479 775.506 L64.0042 775.506 L64.0042 781.363 L14.479 781.363 Z" fill="#000000" fill-rule="nonzero" fill-opacity="1" /><path clip-path="url(#clip800)" d="M46.0847 747.052 Q46.0847 754.149 47.7079 756.887 Q49.3312 759.624 53.2461 759.624 Q56.3653 759.624 58.2114 757.587 Q60.0256 755.518 60.0256 751.985 Q60.0256 747.115 56.5881 744.187 Q53.1188 741.227 47.3897 741.227 L46.0847 741.227 L46.0847 747.052 M43.6657 735.37 L64.0042 735.37 L64.0042 741.227 L58.5933 741.227 Q61.8398 743.232 63.3994 746.224 Q64.9272 749.216 64.9272 753.545 Q64.9272 759.019 61.8716 762.266 Q58.7843 765.48 53.6281 765.48 Q47.6125 765.48 44.5569 761.47 Q41.5014 757.428 41.5014 749.439 L41.5014 741.227 L40.9285 741.227 Q36.8862 741.227 34.6901 743.901 Q32.4621 746.542 32.4621 751.348 Q32.4621 754.404 33.1941 757.3 Q33.9262 760.197 35.3903 762.87 L29.9795 762.87 Q28.7381 759.656 28.1334 756.632 Q27.4968 753.608 27.4968 750.744 Q27.4968 743.009 31.5072 739.19 Q35.5176 735.37 43.6657 735.37 Z" fill="#000000" fill-rule="nonzero" fill-opacity="1" /><path clip-path="url(#clip800)" d="M33.8307 702.651 Q33.2578 703.637 33.0032 704.815 Q32.7167 705.961 32.7167 707.361 Q32.7167 712.327 35.9632 715 Q39.1779 717.642 45.2253 717.642 L64.0042 717.642 L64.0042 723.53 L28.3562 723.53 L28.3562 717.642 L33.8944 717.642 Q30.6479 715.796 29.0883 712.836 Q27.4968 709.876 27.4968 705.643 Q27.4968 705.038 27.5923 704.306 Q27.656 703.574 27.8151 702.683 L33.8307 702.651 Z" fill="#000000" fill-rule="nonzero" fill-opacity="1" /><path clip-path="url(#clip800)" d="M28.3562 696.508 L28.3562 690.651 L64.0042 690.651 L64.0042 696.508 L28.3562 696.508 M14.479 696.508 L14.479 690.651 L21.895 690.651 L21.895 696.508 L14.479 696.508 Z" fill="#000000" fill-rule="nonzero" fill-opacity="1" /><path clip-path="url(#clip800)" d="M18.2347 672.605 L28.3562 672.605 L28.3562 660.542 L32.9077 660.542 L32.9077 672.605 L52.2594 672.605 Q56.6199 672.605 57.8613 671.427 Q59.1026 670.217 59.1026 666.557 L59.1026 660.542 L64.0042 660.542 L64.0042 666.557 Q64.0042 673.337 61.4897 675.915 Q58.9434 678.493 52.2594 678.493 L32.9077 678.493 L32.9077 682.79 L28.3562 682.79 L28.3562 678.493 L18.2347 678.493 L18.2347 672.605 Z" fill="#000000" fill-rule="nonzero" fill-opacity="1" /><path clip-path="url(#clip800)" d="M67.3143 638.007 Q73.68 640.49 75.6216 642.845 Q77.5631 645.2 77.5631 649.147 L77.5631 653.826 L72.6615 653.826 L72.6615 650.388 Q72.6615 647.969 71.5157 646.633 Q70.3699 645.296 66.1048 643.672 L63.4312 642.622 L28.3562 657.04 L28.3562 650.834 L56.238 639.694 L28.3562 628.554 L28.3562 622.347 L67.3143 638.007 Z" fill="#000000" fill-rule="nonzero" fill-opacity="1" /><path clip-path="url(#clip800)" d="M395.682 14.0809 L395.682 22.0612 Q391.024 19.8332 386.892 18.7395 Q382.76 17.6457 378.911 17.6457 Q372.227 17.6457 368.582 20.2383 Q364.976 22.8309 364.976 27.611 Q364.976 31.6214 367.366 33.6873 Q369.797 35.7128 376.521 36.9686 L381.464 37.9813 Q390.619 39.7232 394.953 44.1387 Q399.328 48.5136 399.328 55.8863 Q399.328 64.6767 393.414 69.2137 Q387.54 73.7508 376.157 73.7508 Q371.863 73.7508 367.002 72.7785 Q362.181 71.8063 356.996 69.9024 L356.996 61.4765 Q361.979 64.2716 366.759 65.6895 Q371.539 67.1073 376.157 67.1073 Q383.165 67.1073 386.973 64.3527 Q390.781 61.598 390.781 56.4939 Q390.781 52.0379 388.026 49.5264 Q385.312 47.0148 379.073 45.759 L374.091 44.7868 Q364.936 42.9639 360.844 39.075 Q356.753 35.1862 356.753 28.2591 Q356.753 20.2383 362.384 15.6203 Q368.055 11.0023 377.98 11.0023 Q382.233 11.0023 386.649 11.7719 Q391.064 12.5416 395.682 14.0809 Z" fill="#000000" fill-rule="nonzero" fill-opacity="1" /><path clip-path="url(#clip800)" d="M429.345 32.4315 Q423.35 32.4315 419.866 37.1306 Q416.382 41.7891 416.382 49.9314 Q416.382 58.0738 419.826 62.7728 Q423.309 67.4314 429.345 67.4314 Q435.3 67.4314 438.784 62.7323 Q442.268 58.0333 442.268 49.9314 Q442.268 41.8701 438.784 37.1711 Q435.3 32.4315 429.345 32.4315 M429.345 26.1121 Q439.067 26.1121 444.617 32.4315 Q450.167 38.7509 450.167 49.9314 Q450.167 61.0714 444.617 67.4314 Q439.067 73.7508 429.345 73.7508 Q419.583 73.7508 414.033 67.4314 Q408.524 61.0714 408.524 49.9314 Q408.524 38.7509 414.033 32.4315 Q419.583 26.1121 429.345 26.1121 Z" fill="#000000" fill-rule="nonzero" fill-opacity="1" /><path clip-path="url(#clip800)" d="M488.812 34.1734 Q487.557 33.4443 486.058 33.1202 Q484.6 32.7556 482.817 32.7556 Q476.498 32.7556 473.095 36.8875 Q469.733 40.9789 469.733 48.6757 L469.733 72.576 L462.239 72.576 L462.239 27.2059 L469.733 27.2059 L469.733 34.2544 Q472.082 30.1225 475.85 28.1376 Q479.617 26.1121 485.005 26.1121 Q485.774 26.1121 486.706 26.2337 Q487.638 26.3147 488.772 26.5172 L488.812 34.1734 Z" fill="#000000" fill-rule="nonzero" fill-opacity="1" /><path clip-path="url(#clip800)" d="M504.003 14.324 L504.003 27.2059 L519.356 27.2059 L519.356 32.9987 L504.003 32.9987 L504.003 57.6282 Q504.003 63.1779 505.502 64.7578 Q507.042 66.3376 511.7 66.3376 L519.356 66.3376 L519.356 72.576 L511.7 72.576 Q503.072 72.576 499.79 69.3758 Q496.509 66.1351 496.509 57.6282 L496.509 32.9987 L491.04 32.9987 L491.04 27.2059 L496.509 27.2059 L496.509 14.324 L504.003 14.324 Z" fill="#000000" fill-rule="nonzero" fill-opacity="1" /><path clip-path="url(#clip800)" d="M567.967 48.0275 L567.967 51.6733 L533.696 51.6733 Q534.183 59.3701 538.315 63.421 Q542.487 67.4314 549.9 67.4314 Q554.194 67.4314 558.204 66.3781 Q562.255 65.3249 566.225 63.2184 L566.225 70.267 Q562.215 71.9684 558.002 72.8596 Q553.789 73.7508 549.455 73.7508 Q538.598 73.7508 532.238 67.4314 Q525.919 61.1119 525.919 50.3365 Q525.919 39.1965 531.914 32.6746 Q537.95 26.1121 548.158 26.1121 Q557.313 26.1121 562.62 32.0264 Q567.967 37.9003 567.967 48.0275 M560.513 45.84 Q560.432 39.7232 557.07 36.0774 Q553.748 32.4315 548.239 32.4315 Q542.001 32.4315 538.233 35.9558 Q534.507 39.4801 533.94 45.8805 L560.513 45.84 Z" fill="#000000" fill-rule="nonzero" fill-opacity="1" /><path clip-path="url(#clip800)" d="M610.056 34.0924 L610.056 9.54393 L617.51 9.54393 L617.51 72.576 L610.056 72.576 L610.056 65.7705 Q607.707 69.8214 604.101 71.8063 Q600.536 73.7508 595.513 73.7508 Q587.29 73.7508 582.105 67.1883 Q576.96 60.6258 576.96 49.9314 Q576.96 39.2371 582.105 32.6746 Q587.29 26.1121 595.513 26.1121 Q600.536 26.1121 604.101 28.0971 Q607.707 30.0415 610.056 34.0924 M584.657 49.9314 Q584.657 58.1548 588.019 62.8538 Q591.422 67.5124 597.336 67.5124 Q603.251 67.5124 606.653 62.8538 Q610.056 58.1548 610.056 49.9314 Q610.056 41.7081 606.653 37.0496 Q603.251 32.3505 597.336 32.3505 Q591.422 32.3505 588.019 37.0496 Q584.657 41.7081 584.657 49.9314 Z" fill="#000000" fill-rule="nonzero" fill-opacity="1" /><path clip-path="url(#clip800)" d="M691.884 28.9478 L691.884 35.9153 Q688.725 34.1734 685.524 33.3227 Q682.365 32.4315 679.124 32.4315 Q671.873 32.4315 667.862 37.0496 Q663.852 41.6271 663.852 49.9314 Q663.852 58.2358 667.862 62.8538 Q671.873 67.4314 679.124 67.4314 Q682.365 67.4314 685.524 66.5807 Q688.725 65.6895 691.884 63.9476 L691.884 70.8341 Q688.765 72.2924 685.403 73.0216 Q682.081 73.7508 678.314 73.7508 Q668.065 73.7508 662.029 67.3098 Q655.993 60.8689 655.993 49.9314 Q655.993 38.832 662.07 32.472 Q668.187 26.1121 678.8 26.1121 Q682.243 26.1121 685.524 26.8413 Q688.806 27.5299 691.884 28.9478 Z" fill="#000000" fill-rule="nonzero" fill-opacity="1" /><path clip-path="url(#clip800)" d="M722.428 32.4315 Q716.433 32.4315 712.949 37.1306 Q709.465 41.7891 709.465 49.9314 Q709.465 58.0738 712.908 62.7728 Q716.392 67.4314 722.428 67.4314 Q728.383 67.4314 731.867 62.7323 Q735.35 58.0333 735.35 49.9314 Q735.35 41.8701 731.867 37.1711 Q728.383 32.4315 722.428 32.4315 M722.428 26.1121 Q732.15 26.1121 737.7 32.4315 Q743.25 38.7509 743.25 49.9314 Q743.25 61.0714 737.7 67.4314 Q732.15 73.7508 722.428 73.7508 Q712.665 73.7508 707.116 67.4314 Q701.606 61.0714 701.606 49.9314 Q701.606 38.7509 707.116 32.4315 Q712.665 26.1121 722.428 26.1121 Z" fill="#000000" fill-rule="nonzero" fill-opacity="1" /><path clip-path="url(#clip800)" d="M784.528 28.5427 L784.528 35.5912 Q781.369 33.9709 777.966 33.1607 Q774.563 32.3505 770.917 32.3505 Q765.368 32.3505 762.573 34.0519 Q759.818 35.7533 759.818 39.156 Q759.818 41.7486 761.803 43.2475 Q763.788 44.7058 769.783 46.0426 L772.335 46.6097 Q780.275 48.3111 783.597 51.4303 Q786.959 54.509 786.959 60.0587 Q786.959 66.3781 781.936 70.0644 Q776.953 73.7508 768.203 73.7508 Q764.558 73.7508 760.588 73.0216 Q756.658 72.3329 752.283 70.9151 L752.283 63.2184 Q756.415 65.3654 760.426 66.4591 Q764.436 67.5124 768.365 67.5124 Q773.632 67.5124 776.467 65.73 Q779.303 63.9071 779.303 60.6258 Q779.303 57.5877 777.237 55.9673 Q775.211 54.3469 768.284 52.8481 L765.692 52.2405 Q758.765 50.7821 755.686 47.7845 Q752.607 44.7463 752.607 39.4801 Q752.607 33.0797 757.144 29.5959 Q761.681 26.1121 770.026 26.1121 Q774.158 26.1121 777.804 26.7198 Q781.45 27.3274 784.528 28.5427 Z" fill="#000000" fill-rule="nonzero" fill-opacity="1" /><path clip-path="url(#clip800)" d="M798.828 27.2059 L806.282 27.2059 L806.282 72.576 L798.828 72.576 L798.828 27.2059 M798.828 9.54393 L806.282 9.54393 L806.282 18.9825 L798.828 18.9825 L798.828 9.54393 Z" fill="#000000" fill-rule="nonzero" fill-opacity="1" /><path clip-path="url(#clip800)" d="M859.592 45.1919 L859.592 72.576 L852.138 72.576 L852.138 45.4349 Q852.138 38.994 849.627 35.7938 Q847.115 32.5936 842.092 32.5936 Q836.056 32.5936 832.572 36.4419 Q829.088 40.2903 829.088 46.9338 L829.088 72.576 L821.594 72.576 L821.594 27.2059 L829.088 27.2059 L829.088 34.2544 Q831.762 30.163 835.367 28.1376 Q839.013 26.1121 843.753 26.1121 Q851.571 26.1121 855.581 30.9732 Q859.592 35.7938 859.592 45.1919 Z" fill="#000000" fill-rule="nonzero" fill-opacity="1" /><path clip-path="url(#clip800)" d="M913.266 48.0275 L913.266 51.6733 L878.996 51.6733 Q879.482 59.3701 883.614 63.421 Q887.786 67.4314 895.199 67.4314 Q899.493 67.4314 903.504 66.3781 Q907.554 65.3249 911.524 63.2184 L911.524 70.267 Q907.514 71.9684 903.301 72.8596 Q899.088 73.7508 894.754 73.7508 Q883.897 73.7508 877.537 67.4314 Q871.218 61.1119 871.218 50.3365 Q871.218 39.1965 877.213 32.6746 Q883.249 26.1121 893.457 26.1121 Q902.612 26.1121 907.919 32.0264 Q913.266 37.9003 913.266 48.0275 M905.813 45.84 Q905.732 39.7232 902.369 36.0774 Q899.048 32.4315 893.538 32.4315 Q887.3 32.4315 883.533 35.9558 Q879.806 39.4801 879.239 45.8805 L905.813 45.84 Z" fill="#000000" fill-rule="nonzero" fill-opacity="1" /><path clip-path="url(#clip800)" d="M980.795 28.5427 L980.795 35.5912 Q977.635 33.9709 974.232 33.1607 Q970.83 32.3505 967.184 32.3505 Q961.634 32.3505 958.839 34.0519 Q956.084 35.7533 956.084 39.156 Q956.084 41.7486 958.069 43.2475 Q960.054 44.7058 966.049 46.0426 L968.602 46.6097 Q976.541 48.3111 979.863 51.4303 Q983.225 54.509 983.225 60.0587 Q983.225 66.3781 978.202 70.0644 Q973.22 73.7508 964.47 73.7508 Q960.824 73.7508 956.854 73.0216 Q952.925 72.3329 948.55 70.9151 L948.55 63.2184 Q952.682 65.3654 956.692 66.4591 Q960.702 67.5124 964.632 67.5124 Q969.898 67.5124 972.733 65.73 Q975.569 63.9071 975.569 60.6258 Q975.569 57.5877 973.503 55.9673 Q971.478 54.3469 964.551 52.8481 L961.958 52.2405 Q955.031 50.7821 951.952 47.7845 Q948.874 44.7463 948.874 39.4801 Q948.874 33.0797 953.411 29.5959 Q957.948 26.1121 966.293 26.1121 Q970.424 26.1121 974.07 26.7198 Q977.716 27.3274 980.795 28.5427 Z" fill="#000000" fill-rule="nonzero" fill-opacity="1" /><path clip-path="url(#clip800)" d="M995.094 27.2059 L1002.55 27.2059 L1002.55 72.576 L995.094 72.576 L995.094 27.2059 M995.094 9.54393 L1002.55 9.54393 L1002.55 18.9825 L995.094 18.9825 L995.094 9.54393 Z" fill="#000000" fill-rule="nonzero" fill-opacity="1" /><path clip-path="url(#clip800)" d="M1053.47 35.9153 Q1056.26 30.8922 1060.15 28.5022 Q1064.04 26.1121 1069.31 26.1121 Q1076.4 26.1121 1080.24 31.0947 Q1084.09 36.0368 1084.09 45.1919 L1084.09 72.576 L1076.6 72.576 L1076.6 45.4349 Q1076.6 38.913 1074.29 35.7533 Q1071.98 32.5936 1067.24 32.5936 Q1061.45 32.5936 1058.09 36.4419 Q1054.72 40.2903 1054.72 46.9338 L1054.72 72.576 L1047.23 72.576 L1047.23 45.4349 Q1047.23 38.8725 1044.92 35.7533 Q1042.61 32.5936 1037.79 32.5936 Q1032.08 32.5936 1028.72 36.4824 Q1025.35 40.3308 1025.35 46.9338 L1025.35 72.576 L1017.86 72.576 L1017.86 27.2059 L1025.35 27.2059 L1025.35 34.2544 Q1027.91 30.082 1031.47 28.0971 Q1035.04 26.1121 1039.94 26.1121 Q1044.88 26.1121 1048.32 28.6237 Q1051.81 31.1352 1053.47 35.9153 Z" fill="#000000" fill-rule="nonzero" fill-opacity="1" /><path clip-path="url(#clip800)" d="M1098.96 27.2059 L1106.41 27.2059 L1106.41 72.576 L1098.96 72.576 L1098.96 27.2059 M1098.96 9.54393 L1106.41 9.54393 L1106.41 18.9825 L1098.96 18.9825 L1098.96 9.54393 Z" fill="#000000" fill-rule="nonzero" fill-opacity="1" /><path clip-path="url(#clip800)" d="M1122.01 9.54393 L1129.46 9.54393 L1129.46 72.576 L1122.01 72.576 L1122.01 9.54393 Z" fill="#000000" fill-rule="nonzero" fill-opacity="1" /><path clip-path="url(#clip800)" d="M1165.68 49.7694 Q1156.64 49.7694 1153.16 51.8354 Q1149.68 53.9013 1149.68 58.8839 Q1149.68 62.8538 1152.27 65.2034 Q1154.9 67.5124 1159.4 67.5124 Q1165.6 67.5124 1169.32 63.1374 Q1173.09 58.7219 1173.09 51.4303 L1173.09 49.7694 L1165.68 49.7694 M1180.54 46.6907 L1180.54 72.576 L1173.09 72.576 L1173.09 65.6895 Q1170.54 69.8214 1166.73 71.8063 Q1162.92 73.7508 1157.41 73.7508 Q1150.45 73.7508 1146.31 69.8619 Q1142.22 65.9325 1142.22 59.3701 Q1142.22 51.7138 1147.33 47.825 Q1152.47 43.9361 1162.64 43.9361 L1173.09 43.9361 L1173.09 43.2069 Q1173.09 38.0623 1169.69 35.2672 Q1166.33 32.4315 1160.21 32.4315 Q1156.32 32.4315 1152.63 33.3632 Q1148.95 34.295 1145.55 36.1584 L1145.55 29.2718 Q1149.64 27.692 1153.48 26.9223 Q1157.33 26.1121 1160.98 26.1121 Q1170.82 26.1121 1175.68 31.2163 Q1180.54 36.3204 1180.54 46.6907 Z" fill="#000000" fill-rule="nonzero" fill-opacity="1" /><path clip-path="url(#clip800)" d="M1222.19 34.1734 Q1220.93 33.4443 1219.43 33.1202 Q1217.98 32.7556 1216.19 32.7556 Q1209.87 32.7556 1206.47 36.8875 Q1203.11 40.9789 1203.11 48.6757 L1203.11 72.576 L1195.61 72.576 L1195.61 27.2059 L1203.11 27.2059 L1203.11 34.2544 Q1205.46 30.1225 1209.23 28.1376 Q1212.99 26.1121 1218.38 26.1121 Q1219.15 26.1121 1220.08 26.2337 Q1221.01 26.3147 1222.15 26.5172 L1222.19 34.1734 Z" fill="#000000" fill-rule="nonzero" fill-opacity="1" /><path clip-path="url(#clip800)" d="M1230.01 27.2059 L1237.46 27.2059 L1237.46 72.576 L1230.01 72.576 L1230.01 27.2059 M1230.01 9.54393 L1237.46 9.54393 L1237.46 18.9825 L1230.01 18.9825 L1230.01 9.54393 Z" fill="#000000" fill-rule="nonzero" fill-opacity="1" /><path clip-path="url(#clip800)" d="M1260.43 14.324 L1260.43 27.2059 L1275.78 27.2059 L1275.78 32.9987 L1260.43 32.9987 L1260.43 57.6282 Q1260.43 63.1779 1261.93 64.7578 Q1263.47 66.3376 1268.13 66.3376 L1275.78 66.3376 L1275.78 72.576 L1268.13 72.576 Q1259.5 72.576 1256.22 69.3758 Q1252.93 66.1351 1252.93 57.6282 L1252.93 32.9987 L1247.47 32.9987 L1247.47 27.2059 L1252.93 27.2059 L1252.93 14.324 L1260.43 14.324 Z" fill="#000000" fill-rule="nonzero" fill-opacity="1" /><path clip-path="url(#clip800)" d="M1285.58 27.2059 L1293.04 27.2059 L1293.04 72.576 L1285.58 72.576 L1285.58 27.2059 M1285.58 9.54393 L1293.04 9.54393 L1293.04 18.9825 L1285.58 18.9825 L1285.58 9.54393 Z" fill="#000000" fill-rule="nonzero" fill-opacity="1" /><path clip-path="url(#clip800)" d="M1347.44 48.0275 L1347.44 51.6733 L1313.17 51.6733 Q1313.66 59.3701 1317.79 63.421 Q1321.96 67.4314 1329.38 67.4314 Q1333.67 67.4314 1337.68 66.3781 Q1341.73 65.3249 1345.7 63.2184 L1345.7 70.267 Q1341.69 71.9684 1337.48 72.8596 Q1333.26 73.7508 1328.93 73.7508 Q1318.07 73.7508 1311.71 67.4314 Q1305.39 61.1119 1305.39 50.3365 Q1305.39 39.1965 1311.39 32.6746 Q1317.42 26.1121 1327.63 26.1121 Q1336.79 26.1121 1342.09 32.0264 Q1347.44 37.9003 1347.44 48.0275 M1339.99 45.84 Q1339.91 39.7232 1336.55 36.0774 Q1333.22 32.4315 1327.71 32.4315 Q1321.48 32.4315 1317.71 35.9558 Q1313.98 39.4801 1313.41 45.8805 L1339.99 45.84 Z" fill="#000000" fill-rule="nonzero" fill-opacity="1" /><path clip-path="url(#clip800)" d="M1388.6 28.5427 L1388.6 35.5912 Q1385.44 33.9709 1382.04 33.1607 Q1378.63 32.3505 1374.99 32.3505 Q1369.44 32.3505 1366.64 34.0519 Q1363.89 35.7533 1363.89 39.156 Q1363.89 41.7486 1365.87 43.2475 Q1367.86 44.7058 1373.85 46.0426 L1376.41 46.6097 Q1384.35 48.3111 1387.67 51.4303 Q1391.03 54.509 1391.03 60.0587 Q1391.03 66.3781 1386.01 70.0644 Q1381.02 73.7508 1372.27 73.7508 Q1368.63 73.7508 1364.66 73.0216 Q1360.73 72.3329 1356.35 70.9151 L1356.35 63.2184 Q1360.49 65.3654 1364.5 66.4591 Q1368.51 67.5124 1372.44 67.5124 Q1377.7 67.5124 1380.54 65.73 Q1383.37 63.9071 1383.37 60.6258 Q1383.37 57.5877 1381.31 55.9673 Q1379.28 54.3469 1372.36 52.8481 L1369.76 52.2405 Q1362.84 50.7821 1359.76 47.7845 Q1356.68 44.7463 1356.68 39.4801 Q1356.68 33.0797 1361.22 29.5959 Q1365.75 26.1121 1374.1 26.1121 Q1378.23 26.1121 1381.87 26.7198 Q1385.52 27.3274 1388.6 28.5427 Z" fill="#000000" fill-rule="nonzero" fill-opacity="1" /><path clip-path="url(#clip800)" d="M1461.92 28.9478 L1461.92 35.9153 Q1458.76 34.1734 1455.56 33.3227 Q1452.4 32.4315 1449.16 32.4315 Q1441.91 32.4315 1437.9 37.0496 Q1433.89 41.6271 1433.89 49.9314 Q1433.89 58.2358 1437.9 62.8538 Q1441.91 67.4314 1449.16 67.4314 Q1452.4 67.4314 1455.56 66.5807 Q1458.76 65.6895 1461.92 63.9476 L1461.92 70.8341 Q1458.8 72.2924 1455.44 73.0216 Q1452.12 73.7508 1448.35 73.7508 Q1438.1 73.7508 1432.07 67.3098 Q1426.03 60.8689 1426.03 49.9314 Q1426.03 38.832 1432.11 32.472 Q1438.22 26.1121 1448.84 26.1121 Q1452.28 26.1121 1455.56 26.8413 Q1458.84 27.5299 1461.92 28.9478 Z" fill="#000000" fill-rule="nonzero" fill-opacity="1" /><path clip-path="url(#clip800)" d="M1513.69 48.0275 L1513.69 51.6733 L1479.42 51.6733 Q1479.91 59.3701 1484.04 63.421 Q1488.21 67.4314 1495.62 67.4314 Q1499.92 67.4314 1503.93 66.3781 Q1507.98 65.3249 1511.95 63.2184 L1511.95 70.267 Q1507.94 71.9684 1503.73 72.8596 Q1499.51 73.7508 1495.18 73.7508 Q1484.32 73.7508 1477.96 67.4314 Q1471.64 61.1119 1471.64 50.3365 Q1471.64 39.1965 1477.64 32.6746 Q1483.67 26.1121 1493.88 26.1121 Q1503.04 26.1121 1508.34 32.0264 Q1513.69 37.9003 1513.69 48.0275 M1506.24 45.84 Q1506.16 39.7232 1502.79 36.0774 Q1499.47 32.4315 1493.96 32.4315 Q1487.72 32.4315 1483.96 35.9558 Q1480.23 39.4801 1479.66 45.8805 L1506.24 45.84 Z" fill="#000000" fill-rule="nonzero" fill-opacity="1" /><path clip-path="url(#clip800)" d="M1525.92 9.54393 L1533.38 9.54393 L1533.38 72.576 L1525.92 72.576 L1525.92 9.54393 Z" fill="#000000" fill-rule="nonzero" fill-opacity="1" /><path clip-path="url(#clip800)" d="M1548.97 9.54393 L1556.43 9.54393 L1556.43 72.576 L1548.97 72.576 L1548.97 9.54393 Z" fill="#000000" fill-rule="nonzero" fill-opacity="1" /><path clip-path="url(#clip800)" d="M1624.24 39.9662 Q1630.11 41.222 1633.4 45.1919 Q1636.72 49.1618 1636.72 54.9951 Q1636.72 63.9476 1630.56 68.8492 Q1624.4 73.7508 1613.06 73.7508 Q1609.25 73.7508 1605.2 72.9811 Q1601.19 72.2519 1596.9 70.7531 L1596.9 62.8538 Q1600.3 64.8388 1604.35 65.8515 Q1608.4 66.8642 1612.82 66.8642 Q1620.51 66.8642 1624.52 63.826 Q1628.57 60.7879 1628.57 54.9951 Q1628.57 49.6479 1624.81 46.6502 Q1621.08 43.612 1614.4 43.612 L1607.35 43.612 L1607.35 36.8875 L1614.72 36.8875 Q1620.76 36.8875 1623.96 34.4975 Q1627.16 32.067 1627.16 27.5299 Q1627.16 22.8714 1623.84 20.4004 Q1620.55 17.8888 1614.4 17.8888 Q1611.03 17.8888 1607.19 18.618 Q1603.34 19.3471 1598.72 20.8865 L1598.72 13.5948 Q1603.38 12.2985 1607.43 11.6504 Q1611.52 11.0023 1615.13 11.0023 Q1624.44 11.0023 1629.87 15.2557 Q1635.3 19.4686 1635.3 26.6793 Q1635.3 31.7024 1632.42 35.1862 Q1629.55 38.6294 1624.24 39.9662 Z" fill="#000000" fill-rule="nonzero" fill-opacity="1" /><path clip-path="url(#clip800)" d="M1652.31 12.096 L1684.44 12.096 L1684.44 18.9825 L1659.81 18.9825 L1659.81 33.8088 Q1661.59 33.2012 1663.37 32.9176 Q1665.15 32.5936 1666.94 32.5936 Q1677.06 32.5936 1682.98 38.1433 Q1688.89 43.6931 1688.89 53.1722 Q1688.89 62.9348 1682.82 68.3631 Q1676.74 73.7508 1665.68 73.7508 Q1661.87 73.7508 1657.9 73.1026 Q1653.97 72.4545 1649.76 71.1582 L1649.76 62.9348 Q1653.41 64.9198 1657.3 65.892 Q1661.18 66.8642 1665.52 66.8642 Q1672.53 66.8642 1676.62 63.1779 Q1680.71 59.4916 1680.71 53.1722 Q1680.71 46.8528 1676.62 43.1664 Q1672.53 39.4801 1665.52 39.4801 Q1662.24 39.4801 1658.96 40.2093 Q1655.72 40.9384 1652.31 42.4778 L1652.31 12.096 Z" fill="#000000" fill-rule="nonzero" fill-opacity="1" /><path clip-path="url(#clip800)" d="M1706.43 65.6895 L1719.8 65.6895 L1719.8 19.5497 L1705.26 22.4663 L1705.26 15.0127 L1719.72 12.096 L1727.9 12.096 L1727.9 65.6895 L1741.27 65.6895 L1741.27 72.576 L1706.43 72.576 L1706.43 65.6895 Z" fill="#000000" fill-rule="nonzero" fill-opacity="1" /><path clip-path="url(#clip800)" d="M1783.12 27.2059 L1790.57 27.2059 L1790.57 72.576 L1783.12 72.576 L1783.12 27.2059 M1783.12 9.54393 L1790.57 9.54393 L1790.57 18.9825 L1783.12 18.9825 L1783.12 9.54393 Z" fill="#000000" fill-rule="nonzero" fill-opacity="1" /><path clip-path="url(#clip800)" d="M1813.54 14.324 L1813.54 27.2059 L1828.89 27.2059 L1828.89 32.9987 L1813.54 32.9987 L1813.54 57.6282 Q1813.54 63.1779 1815.04 64.7578 Q1816.58 66.3376 1821.24 66.3376 L1828.89 66.3376 L1828.89 72.576 L1821.24 72.576 Q1812.61 72.576 1809.33 69.3758 Q1806.04 66.1351 1806.04 57.6282 L1806.04 32.9987 L1800.58 32.9987 L1800.58 27.2059 L1806.04 27.2059 L1806.04 14.324 L1813.54 14.324 Z" fill="#000000" fill-rule="nonzero" fill-opacity="1" /><path clip-path="url(#clip800)" d="M1877.5 48.0275 L1877.5 51.6733 L1843.23 51.6733 Q1843.72 59.3701 1847.85 63.421 Q1852.02 67.4314 1859.44 67.4314 Q1863.73 67.4314 1867.74 66.3781 Q1871.79 65.3249 1875.76 63.2184 L1875.76 70.267 Q1871.75 71.9684 1867.54 72.8596 Q1863.32 73.7508 1858.99 73.7508 Q1848.13 73.7508 1841.77 67.4314 Q1835.45 61.1119 1835.45 50.3365 Q1835.45 39.1965 1841.45 32.6746 Q1847.49 26.1121 1857.69 26.1121 Q1866.85 26.1121 1872.16 32.0264 Q1877.5 37.9003 1877.5 48.0275 M1870.05 45.84 Q1869.97 39.7232 1866.61 36.0774 Q1863.28 32.4315 1857.78 32.4315 Q1851.54 32.4315 1847.77 35.9558 Q1844.04 39.4801 1843.48 45.8805 L1870.05 45.84 Z" fill="#000000" fill-rule="nonzero" fill-opacity="1" /><path clip-path="url(#clip800)" d="M1916.03 34.1734 Q1914.77 33.4443 1913.27 33.1202 Q1911.81 32.7556 1910.03 32.7556 Q1903.71 32.7556 1900.31 36.8875 Q1896.95 40.9789 1896.95 48.6757 L1896.95 72.576 L1889.45 72.576 L1889.45 27.2059 L1896.95 27.2059 L1896.95 34.2544 Q1899.3 30.1225 1903.06 28.1376 Q1906.83 26.1121 1912.22 26.1121 Q1912.99 26.1121 1913.92 26.2337 Q1914.85 26.3147 1915.99 26.5172 L1916.03 34.1734 Z" fill="#000000" fill-rule="nonzero" fill-opacity="1" /><path clip-path="url(#clip800)" d="M1944.46 49.7694 Q1935.43 49.7694 1931.95 51.8354 Q1928.46 53.9013 1928.46 58.8839 Q1928.46 62.8538 1931.06 65.2034 Q1933.69 67.5124 1938.19 67.5124 Q1944.38 67.5124 1948.11 63.1374 Q1951.88 58.7219 1951.88 51.4303 L1951.88 49.7694 L1944.46 49.7694 M1959.33 46.6907 L1959.33 72.576 L1951.88 72.576 L1951.88 65.6895 Q1949.33 69.8214 1945.52 71.8063 Q1941.71 73.7508 1936.2 73.7508 Q1929.23 73.7508 1925.1 69.8619 Q1921.01 65.9325 1921.01 59.3701 Q1921.01 51.7138 1926.11 47.825 Q1931.26 43.9361 1941.43 43.9361 L1951.88 43.9361 L1951.88 43.2069 Q1951.88 38.0623 1948.47 35.2672 Q1945.11 32.4315 1939 32.4315 Q1935.11 32.4315 1931.42 33.3632 Q1927.73 34.295 1924.33 36.1584 L1924.33 29.2718 Q1928.42 27.692 1932.27 26.9223 Q1936.12 26.1121 1939.77 26.1121 Q1949.61 26.1121 1954.47 31.2163 Q1959.33 36.3204 1959.33 46.6907 Z" fill="#000000" fill-rule="nonzero" fill-opacity="1" /><path clip-path="url(#clip800)" d="M1982.06 14.324 L1982.06 27.2059 L1997.41 27.2059 L1997.41 32.9987 L1982.06 32.9987 L1982.06 57.6282 Q1982.06 63.1779 1983.56 64.7578 Q1985.09 66.3376 1989.75 66.3376 L1997.41 66.3376 L1997.41 72.576 L1989.75 72.576 Q1981.13 72.576 1977.84 69.3758 Q1974.56 66.1351 1974.56 57.6282 L1974.56 32.9987 L1969.09 32.9987 L1969.09 27.2059 L1974.56 27.2059 L1974.56 14.324 L1982.06 14.324 Z" fill="#000000" fill-rule="nonzero" fill-opacity="1" /><path clip-path="url(#clip800)" d="M2007.21 27.2059 L2014.67 27.2059 L2014.67 72.576 L2007.21 72.576 L2007.21 27.2059 M2007.21 9.54393 L2014.67 9.54393 L2014.67 18.9825 L2007.21 18.9825 L2007.21 9.54393 Z" fill="#000000" fill-rule="nonzero" fill-opacity="1" /><path clip-path="url(#clip800)" d="M2047.84 32.4315 Q2041.85 32.4315 2038.36 37.1306 Q2034.88 41.7891 2034.88 49.9314 Q2034.88 58.0738 2038.32 62.7728 Q2041.81 67.4314 2047.84 67.4314 Q2053.8 67.4314 2057.28 62.7323 Q2060.77 58.0333 2060.77 49.9314 Q2060.77 41.8701 2057.28 37.1711 Q2053.8 32.4315 2047.84 32.4315 M2047.84 26.1121 Q2057.57 26.1121 2063.12 32.4315 Q2068.67 38.7509 2068.67 49.9314 Q2068.67 61.0714 2063.12 67.4314 Q2057.57 73.7508 2047.84 73.7508 Q2038.08 73.7508 2032.53 67.4314 Q2027.02 61.0714 2027.02 49.9314 Q2027.02 38.7509 2032.53 32.4315 Q2038.08 26.1121 2047.84 26.1121 Z" fill="#000000" fill-rule="nonzero" fill-opacity="1" /><path clip-path="url(#clip800)" d="M2118.73 45.1919 L2118.73 72.576 L2111.28 72.576 L2111.28 45.4349 Q2111.28 38.994 2108.77 35.7938 Q2106.26 32.5936 2101.23 32.5936 Q2095.2 32.5936 2091.71 36.4419 Q2088.23 40.2903 2088.23 46.9338 L2088.23 72.576 L2080.74 72.576 L2080.74 27.2059 L2088.23 27.2059 L2088.23 34.2544 Q2090.9 30.163 2094.51 28.1376 Q2098.16 26.1121 2102.9 26.1121 Q2110.71 26.1121 2114.72 30.9732 Q2118.73 35.7938 2118.73 45.1919 Z" fill="#000000" fill-rule="nonzero" fill-opacity="1" /><path clip-path="url(#clip800)" d="M2162.44 65.6895 L2175.81 65.6895 L2175.81 19.5497 L2161.27 22.4663 L2161.27 15.0127 L2175.73 12.096 L2183.91 12.096 L2183.91 65.6895 L2197.28 65.6895 L2197.28 72.576 L2162.44 72.576 L2162.44 65.6895 Z" fill="#000000" fill-rule="nonzero" fill-opacity="1" /><path clip-path="url(#clip800)" d="M2231.31 17.4837 Q2224.99 17.4837 2221.79 23.7221 Q2218.63 29.92 2218.63 42.3968 Q2218.63 54.833 2221.79 61.0714 Q2224.99 67.2693 2231.31 67.2693 Q2237.67 67.2693 2240.83 61.0714 Q2244.03 54.833 2244.03 42.3968 Q2244.03 29.92 2240.83 23.7221 Q2237.67 17.4837 2231.31 17.4837 M2231.31 11.0023 Q2241.48 11.0023 2246.82 19.0636 Q2252.21 27.0843 2252.21 42.3968 Q2252.21 57.6687 2246.82 65.73 Q2241.48 73.7508 2231.31 73.7508 Q2221.14 73.7508 2215.75 65.73 Q2210.41 57.6687 2210.41 42.3968 Q2210.41 27.0843 2215.75 19.0636 Q2221.14 11.0023 2231.31 11.0023 Z" fill="#000000" fill-rule="nonzero" fill-opacity="1" /><polyline clip-path="url(#clip802)" style="stroke:#009af9; stroke-linecap:round; stroke-linejoin:round; stroke-width:4; stroke-opacity:1; fill:none" points="315.545,1386.4 317.525,1355.98 319.505,1354.18 321.484,1352.11 323.464,1346.64 325.444,1343.23 327.424,1337.21 329.404,1335.9 331.384,1334.08 333.364,1323.94 335.343,1320.57 337.323,1318.41 339.303,1308.13 341.283,1305.3 343.263,1304.88 345.243,1303.43 347.223,1299.71 349.202,1295.18 351.182,1293.18 353.162,1288.48 355.142,1287.87 357.122,1286.46 359.102,1284.95 361.082,1284.39 363.061,1282.65 365.041,1282.07 367.021,1280.9 369.001,1280.7 370.981,1277.32 372.961,1277.18 374.941,1273.54 376.92,1269.92 378.9,1269.44 380.88,1268.94 382.86,1268.17 384.84,1267.08 386.82,1266.88 388.8,1262.81 390.779,1262.54 392.759,1257.3 394.739,1256.84 396.719,1256.31 398.699,1255.5 400.679,1255.46 402.659,1254.32 404.638,1254.05 406.618,1250 408.598,1248.43 410.578,1248.29 412.558,1248.17 414.538,1246.1 416.517,1245.96 418.497,1244.72 420.477,1244.69 422.457,1243.81 424.437,1243.68 426.417,1241.49 428.397,1237.94 430.376,1237.57 432.356,1235.21 434.336,1230.35 436.316,1228.65 438.296,1228.34 440.276,1227.2 442.256,1225.42 444.235,1224.24 446.215,1224.06 448.195,1221.71 450.175,1219.78 452.155,1217.54 454.135,1216.51 456.115,1215.24 458.094,1214.18 460.074,1214.03 462.054,1213.18 464.034,1212.13 466.014,1211.96 467.994,1211.17 469.974,1209.28 471.953,1207.95 473.933,1207.45 475.913,1207.26 477.893,1203.62 479.873,1201.48 481.853,1200.76 483.833,1199.91 485.812,1199.85 487.792,1199.06 489.772,1196.35 491.752,1196.13 493.732,1194.97 495.712,1194.53 497.692,1194.22 499.671,1193.25 501.651,1192.12 503.631,1192 505.611,1191.63 507.591,1189.25 509.571,1188.06 511.551,1187.63 513.53,1187 515.51,1185.02 517.49,1184.18 519.47,1183.28 521.45,1182.71 523.43,1182.04 525.409,1180.43 527.389,1179.74 529.369,1179.65 531.349,1179.15 533.329,1178.93 535.309,1177.43 537.289,1177.42 539.268,1177.2 541.248,1176.11 543.228,1175.37 545.208,1174.93 547.188,1173.79 549.168,1173.65 551.148,1173.45 553.127,1173.35 555.107,1172.93 557.087,1172.38 559.067,1172.28 561.047,1171.86 563.027,1171.53 565.007,1171.46 566.986,1171.29 568.966,1170.9 570.946,1167.95 572.926,1167.57 574.906,1167.01 576.886,1166.33 578.866,1165.4 580.845,1165.39 582.825,1164.56 584.805,1164.55 586.785,1164.34 588.765,1164.07 590.745,1163.49 592.725,1159.59 594.704,1158.67 596.684,1158.16 598.664,1156.41 600.644,1156.04 602.624,1155.93 604.604,1155.24 606.584,1155.09 608.563,1154.44 610.543,1154.42 612.523,1154.03 614.503,1153.57 616.483,1152.34 618.463,1151.27 620.443,1150.72 622.422,1150.23 624.402,1150.09 626.382,1149.94 628.362,1148.63 630.342,1148 632.322,1147.35 634.301,1146.3 636.281,1146.24 638.261,1145.8 640.241,1145.62 642.221,1145.04 644.201,1144.75 646.181,1144.66 648.16,1144.18 650.14,1142.89 652.12,1142.74 654.1,1141 656.08,1140.6 658.06,1139.43 660.04,1139.31 662.019,1136.77 663.999,1136.4 665.979,1136.07 667.959,1135.3 669.939,1134.88 671.919,1133.12 673.899,1132.84 675.878,1130.87 677.858,1130.77 679.838,1130.34 681.818,1130.27 683.798,1130.24 685.778,1129.27 687.758,1128.77 689.737,1128.27 691.717,1127.77 693.697,1126.48 695.677,1125.59 697.657,1125.05 699.637,1124.95 701.617,1124.92 703.596,1124.78 705.576,1124.1 707.556,1123.64 709.536,1123.2 711.516,1122.91 713.496,1122.82 715.476,1121.53 717.455,1121.17 719.435,1120.89 721.415,1120.59 723.395,1119.41 725.375,1118.57 727.355,1117.97 729.335,1117.73 731.314,1117.42 733.294,1116.18 735.274,1115.19 737.254,1113.19 739.234,1112.82 741.214,1112.62 743.194,1112.24 745.173,1112.06 747.153,1111.34 749.133,1111.14 751.113,1111.05 753.093,1110.97 755.073,1110.94 757.052,1110.68 759.032,1109.89 761.012,1109.56 762.992,1108.84 764.972,1108.34 766.952,1107.89 768.932,1106.57 770.911,1106.54 772.891,1106.35 774.871,1105.88 776.851,1105.78 778.831,1105.67 780.811,1104.49 782.791,1104.39 784.77,1104.32 786.75,1104.21 788.73,1102.63 790.71,1102.3 792.69,1102.29 794.67,1101.37 796.65,1101.07 798.629,1100.14 800.609,1099.89 802.589,1098.89 804.569,1098.4 806.549,1098.29 808.529,1098.12 810.509,1097.71 812.488,1096.82 814.468,1096.22 816.448,1096.15 818.428,1095.49 820.408,1094.92 822.388,1094.72 824.368,1094.64 826.347,1094.21 828.327,1094.11 830.307,1093.45 832.287,1093.35 834.267,1093.09 836.247,1091.89 838.227,1091.44 840.206,1091.37 842.186,1091.21 844.166,1090.29 846.146,1090.02 848.126,1089.38 850.106,1088.92 852.086,1088.86 854.065,1088.7 856.045,1087.98 858.025,1087.95 860.005,1087.67 861.985,1086.83 863.965,1085.04 865.944,1084.46 867.924,1083.98 869.904,1083.27 871.884,1083.2 873.864,1083.2 875.844,1082.74 877.824,1081.88 879.803,1081.54 881.783,1081.22 883.763,1081.21 885.743,1080.43 887.723,1080.12 889.703,1079.93 891.683,1079.67 893.662,1079.63 895.642,1077.87 897.622,1076.79 899.602,1076.59 901.582,1076.42 903.562,1074.97 905.542,1074.28 907.521,1074.04 909.501,1074.02 911.481,1073.28 913.461,1072.48 915.441,1072.48 917.421,1071.99 919.401,1071.95 921.38,1071.47 923.36,1071.1 925.34,1071.09 927.32,1070.27 929.3,1069.87 931.28,1069.79 933.26,1069.33 935.239,1069.09 937.219,1068.72 939.199,1068.24 941.179,1068.14 943.159,1067.18 945.139,1066.74 947.119,1065.53 949.098,1065.53 951.078,1065.09 953.058,1064.39 955.038,1064.22 957.018,1064.19 958.998,1063.84 960.978,1063.44 962.957,1063.18 964.937,1061.03 966.917,1060.8 968.897,1059.9 970.877,1059.71 972.857,1059.71 974.836,1059.5 976.816,1058.7 978.796,1057.67 980.776,1057.56 982.756,1057.27 984.736,1057.27 986.716,1056.27 988.695,1055.44 990.675,1054.92 992.655,1052.29 994.635,1052.22 996.615,1052.13 998.595,1052.07 1000.57,1051.03 1002.55,1050.42 1004.53,1049.89 1006.51,1049.8 1008.49,1049.73 1010.47,1048.89 1012.45,1048.83 1014.43,1048.1 1016.41,1047.92 1018.39,1047.66 1020.37,1047.5 1022.35,1047.05 1024.33,1045.86 1026.31,1045.61 1028.29,1045.11 1030.27,1044.87 1032.25,1043.88 1034.23,1043.75 1036.21,1043.71 1038.19,1043.61 1040.17,1043.26 1042.15,1042.84 1044.13,1042.31 1046.11,1042.02 1048.09,1041.97 1050.07,1041.11 1052.05,1040.6 1054.03,1040.51 1056.01,1040.38 1057.99,1040.17 1059.97,1038.55 1061.95,1038.39 1063.93,1037.04 1065.91,1036.88 1067.89,1036.82 1069.87,1036.7 1071.85,1036.61 1073.83,1035.38 1075.81,1034.78 1077.79,1034.57 1079.77,1034.5 1081.75,1034.42 1083.73,1034.13 1085.71,1033.96 1087.69,1033.9 1089.67,1033.75 1091.65,1033.56 1093.63,1033.42 1095.61,1033.31 1097.59,1033.07 1099.57,1032.85 1101.55,1032.37 1103.53,1032.1 1105.51,1031.84 1107.49,1031.34 1109.47,1031.29 1111.45,1030.46 1113.43,1030.23 1115.41,1028.95 1117.39,1028.27 1119.37,1028.14 1121.35,1028.09 1123.33,1025.9 1125.31,1025.76 1127.29,1025.63 1129.27,1025.55 1131.25,1025.13 1133.22,1025.03 1135.2,1024.99 1137.18,1024.68 1139.16,1024.56 1141.14,1024.34 1143.12,1024.11 1145.1,1023.89 1147.08,1023.78 1149.06,1023.16 1151.04,1022.49 1153.02,1021.58 1155,1021.37 1156.98,1020.96 1158.96,1020.61 1160.94,1020.32 1162.92,1020.14 1164.9,1019.47 1166.88,1019.46 1168.86,1019.35 1170.84,1019.33 1172.82,1019.06 1174.8,1018.9 1176.78,1018.84 1178.76,1018.48 1180.74,1018.3 1182.72,1018.09 1184.7,1017.78 1186.68,1017.5 1188.66,1016.84 1190.64,1016.51 1192.62,1015.75 1194.6,1015.55 1196.58,1014.75 1198.56,1014.6 1200.54,1014.6 1202.52,1014.59 1204.5,1014.42 1206.48,1014.37 1208.46,1014.18 1210.44,1014.1 1212.42,1013.89 1214.4,1013.36 1216.38,1013.12 1218.36,1012.63 1220.34,1012.22 1222.32,1012.21 1224.3,1010.74 1226.28,1009.83 1228.26,1009.62 1230.24,1009.6 1232.22,1009.42 1234.2,1009.4 1236.18,1009.32 1238.16,1008.96 1240.14,1008.66 1242.12,1008.57 1244.1,1008.08 1246.08,1008 1248.06,1007.57 1250.04,1007.4 1252.02,1007.31 1254,1007.11 1255.98,1005.87 1257.96,1005.29 1259.94,1005.19 1261.92,1005.06 1263.9,1004.89 1265.88,1004.58 1267.85,1004.5 1269.83,1003.81 1271.81,1003.16 1273.79,1002.68 1275.77,1002.26 1277.75,1001.69 1279.73,1001.51 1281.71,1001.2 1283.69,1001.14 1285.67,1000.59 1287.65,999.776 1289.63,999.657 1291.61,999.561 1293.59,998.822 1295.57,998.735 1297.55,998.638 1299.53,998.124 1301.51,998.121 1303.49,998.072 1305.47,998.014 1307.45,997.316 1309.43,997.085 1311.41,996.686 1313.39,996.64 1315.37,996.536 1317.35,996.457 1319.33,996.079 1321.31,995.182 1323.29,995.151 1325.27,994.893 1327.25,994.775 1329.23,994.562 1331.21,993.974 1333.19,993.816 1335.17,993.128 1337.15,993.071 1339.13,992.579 1341.11,992.508 1343.09,992.414 1345.07,992.122 1347.05,991.749 1349.03,991.594 1351.01,991.438 1352.99,991.266 1354.97,990.862 1356.95,990.643 1358.93,990.564 1360.91,990.484 1362.89,989.981 1364.87,988.806 1366.85,988.345 1368.83,988.044 1370.81,987.517 1372.79,986.35 1374.77,985.409 1376.75,985.389 1378.73,985.267 1380.71,984.637 1382.69,984.37 1384.67,984.361 1386.65,984.302 1388.63,984.217 1390.61,983.647 1392.59,983.409 1394.57,983.231 1396.55,982.701 1398.53,982.236 1400.51,981.805 1402.49,981.371 1404.46,980.996 1406.44,980.794 1408.42,980.511 1410.4,980.364 1412.38,979.625 1414.36,979.401 1416.34,979.362 1418.32,979.054 1420.3,977.999 1422.28,977.843 1424.26,977.595 1426.24,976.758 1428.22,976.448 1430.2,976.128 1432.18,975.33 1434.16,975.018 1436.14,974.934 1438.12,973.867 1440.1,973.388 1442.08,973.195 1444.06,972.86 1446.04,971.989 1448.02,971.868 1450,971.641 1451.98,970.997 1453.96,970.201 1455.94,970.012 1457.92,969.585 1459.9,969.246 1461.88,969.08 1463.86,968.79 1465.84,966.273 1467.82,966.26 1469.8,966.218 1471.78,965.931 1473.76,965.71 1475.74,965.073 1477.72,965.048 1479.7,964.742 1481.68,964.503 1483.66,964.439 1485.64,964.409 1487.62,964.321 1489.6,962.792 1491.58,962.373 1493.56,962.325 1495.54,961.778 1497.52,961.776 1499.5,961.451 1501.48,961.272 1503.46,960.433 1505.44,960.337 1507.42,959.671 1509.4,959.387 1511.38,958.872 1513.36,958.227 1515.34,957.408 1517.32,956.238 1519.3,956.03 1521.28,955.839 1523.26,954.934 1525.24,954.621 1527.22,952.198 1529.2,951.287 1531.18,951.005 1533.16,950.949 1535.14,950.937 1537.12,950.516 1539.1,950.476 1541.07,950.306 1543.05,948.256 1545.03,947.977 1547.01,947.623 1548.99,947.269 1550.97,947.255 1552.95,946.466 1554.93,946.19 1556.91,945.676 1558.89,943.476 1560.87,943.406 1562.85,943.331 1564.83,943.187 1566.81,942.589 1568.79,942.417 1570.77,942.243 1572.75,942.091 1574.73,941.76 1576.71,941.707 1578.69,941.632 1580.67,941.283 1582.65,940.035 1584.63,938.518 1586.61,938.185 1588.59,935.289 1590.57,934.541 1592.55,934.4 1594.53,934.263 1596.51,933.221 1598.49,932.559 1600.47,931.698 1602.45,929.689 1604.43,929.416 1606.41,929.186 1608.39,929.036 1610.37,928.751 1612.35,928.323 1614.33,928.242 1616.31,926.248 1618.29,925.576 1620.27,925.455 1622.25,925.281 1624.23,924.296 1626.21,923.5 1628.19,923.032 1630.17,922.842 1632.15,921.868 1634.13,921.524 1636.11,921.363 1638.09,920.675 1640.07,920.32 1642.05,918.991 1644.03,917.247 1646.01,916.022 1647.99,916.01 1649.97,915.802 1651.95,914.744 1653.93,913.485 1655.91,912.994 1657.89,912.675 1659.87,911.25 1661.85,911.247 1663.83,910.653 1665.81,910.648 1667.79,909.607 1669.77,909.001 1671.75,907.768 1673.73,905.594 1675.71,902.581 1677.68,902.23 1679.66,900.404 1681.64,900.301 1683.62,899.898 1685.6,899.575 1687.58,898.671 1689.56,898.208 1691.54,897.836 1693.52,895.418 1695.5,893.263 1697.48,892.853 1699.46,892.256 1701.44,888.882 1703.42,888.184 1705.4,885.66 1707.38,884.526 1709.36,884.038 1711.34,883.168 1713.32,881.447 1715.3,879.238 1717.28,878.198 1719.26,877.561 1721.24,876.363 1723.22,873.743 1725.2,872.88 1727.18,872.658 1729.16,867.332 1731.14,866.079 1733.12,865.454 1735.1,864.848 1737.08,864.381 1739.06,862.863 1741.04,862.15 1743.02,862.047 1745,860.418 1746.98,858.064 1748.96,856.036 1750.94,854.784 1752.92,853.267 1754.9,851.006 1756.88,850.893 1758.86,850.715 1760.84,850.132 1762.82,849.309 1764.8,848.303 1766.78,844.202 1768.76,842.47 1770.74,832.363 1772.72,830.243 1774.7,830.141 1776.68,827.84 1778.66,824.486 1780.64,819.973 1782.62,817.104 1784.6,816.486 1786.58,815.137 1788.56,808.981 1790.54,805.373 1792.52,795.656 1794.5,794.17 1796.48,791.516 1798.46,786.915 1800.44,779.933 1802.42,735.136 1804.4,674.071 1806.38,671.55 1808.36,657.814 1810.34,655.713 1812.31,584.916 1814.29,584.422 1816.27,572.031 1818.25,547.451 1820.23,540.612 1822.21,535.491 1824.19,525.55 1826.17,521.437 1828.15,516.65 1830.13,512.849 1832.11,512.069 1834.09,478.61 1836.07,473.319 1838.05,471.583 1840.03,469.446 1842.01,468.971 1843.99,458.417 1845.97,454.785 1847.95,453.883 1849.93,452.298 1851.91,449.763 1853.89,447.159 1855.87,442.959 1857.85,437.323 1859.83,435.342 1861.81,431.971 1863.79,431.052 1865.77,427.703 1867.75,422.181 1869.73,421.544 1871.71,420.74 1873.69,415.544 1875.67,412.351 1877.65,410.869 1879.63,405.281 1881.61,402.346 1883.59,400.446 1885.57,396.872 1887.55,396.405 1889.53,396.224 1891.51,395.874 1893.49,392.667 1895.47,390.329 1897.45,388.708 1899.43,387.048 1901.41,386.475 1903.39,379.797 1905.37,376.386 1907.35,373.886 1909.33,372.175 1911.31,369.326 1913.29,368.832 1915.27,368.36 1917.25,364.307 1919.23,363.208 1921.21,359.834 1923.19,359.109 1925.17,357.678 1927.15,357.009 1929.13,356.827 1931.11,355.758 1933.09,355.262 1935.07,352.006 1937.05,349.685 1939.03,347.71 1941.01,343.36 1942.99,342.245 1944.97,340.895 1946.95,340.376 1948.92,340.025 1950.9,336.957 1952.88,334.305 1954.86,333.151 1956.84,332.346 1958.82,331.144 1960.8,329.74 1962.78,328.26 1964.76,328.227 1966.74,328.205 1968.72,326.843 1970.7,325.606 1972.68,325.183 1974.66,322.504 1976.64,321.154 1978.62,320.361 1980.6,319.522 1982.58,317.977 1984.56,317.423 1986.54,317.402 1988.52,317.179 1990.5,317.061 1992.48,316.928 1994.46,316.158 1996.44,313.261 1998.42,312.13 2000.4,311.781 2002.38,310.594 2004.36,310.036 2006.34,310.017 2008.32,310.002 2010.3,309.201 2012.28,308.631 2014.26,308.363 2016.24,307.682 2018.22,306.131 2020.2,306.057 2022.18,305.645 2024.16,304.902 2026.14,304.727 2028.12,304.459 2030.1,301.834 2032.08,300.951 2034.06,300.693 2036.04,300.07 2038.02,299.342 2040,298.599 2041.98,297.235 2043.96,296.806 2045.94,296.286 2047.92,295.819 2049.9,292.91 2051.88,292.669 2053.86,292.595 2055.84,292.517 2057.82,292.413 2059.8,290.536 2061.78,289.696 2063.76,289.489 2065.74,289.365 2067.72,288.217 2069.7,286.951 2071.68,286.414 2073.66,284.403 2075.64,283.719 2077.62,280.765 2079.6,280.476 2081.58,279.897 2083.56,278.851 2085.53,278.559 2087.51,278.181 2089.49,276.899 2091.47,275.93 2093.45,275.488 2095.43,275.383 2097.41,273.775 2099.39,272.318 2101.37,270.847 2103.35,270.243 2105.33,270.133 2107.31,269.985 2109.29,269.441 2111.27,267.783 2113.25,266.214 2115.23,264.501 2117.21,264.206 2119.19,264.173 2121.17,264.069 2123.15,262.824 2125.13,261.843 2127.11,261.01 2129.09,259.409 2131.07,259.254 2133.05,259.202 2135.03,259.04 2137.01,257.536 2138.99,256.693 2140.97,254.614 2142.95,254.487 2144.93,254.365 2146.91,254.314 2148.89,251.93 2150.87,250.425 2152.85,249.826 2154.83,249.064 2156.81,247.837 2158.79,247.371 2160.77,246.97 2162.75,246.919 2164.73,246.089 2166.71,246.042 2168.69,244.106 2170.67,243.929 2172.65,243.019 2174.63,242.319 2176.61,241.413 2178.59,241.091 2180.57,240.824 2182.55,240.42 2184.53,239.896 2186.51,239.728 2188.49,237.938 2190.47,237.622 2192.45,237.6 2194.43,236.871 2196.41,236.635 2198.39,236.209 2200.37,236.109 2202.35,235.194 2204.33,234.593 2206.31,233.972 2208.29,233.416 2210.27,231.679 2212.25,231.275 2214.23,229.898 2216.21,229.02 2218.19,228.663 2220.17,228.394 2222.14,227.389 2224.12,227.226 2226.1,224.884 2228.08,222.646 2230.06,220.71 2232.04,219.3 2234.02,219.109 2236,218.009 2237.98,217.848 2239.96,217.403 2241.94,217.212 2243.92,216.013 2245.9,215.705 2247.88,214.602 2249.86,214.381 2251.84,213.504 2253.82,212.65 2255.8,211.614 2257.78,210.777 2259.76,209.108 2261.74,208.169 2263.72,207.144 2265.7,206.989 2267.68,205.775 2269.66,203.826 2271.64,203.25 2273.62,203.174 2275.6,202.399 2277.58,202.268 2279.56,198.443 2281.54,188.824 2283.52,186.809 2285.5,185.165 2287.48,183.293 2289.46,169.56 2291.44,166.744 2293.42,160.256 "/>
<path clip-path="url(#clip800)" d="M326.094 270.476 L755.354 270.476 L755.354 166.796 L326.094 166.796  Z" fill="#ffffff" fill-rule="evenodd" fill-opacity="1"/>
<polyline clip-path="url(#clip800)" style="stroke:#000000; stroke-linecap:round; stroke-linejoin:round; stroke-width:4; stroke-opacity:1; fill:none" points="326.094,270.476 755.354,270.476 755.354,166.796 326.094,166.796 326.094,270.476 "/>
<polyline clip-path="url(#clip800)" style="stroke:#009af9; stroke-linecap:round; stroke-linejoin:round; stroke-width:4; stroke-opacity:1; fill:none" points="349.389,218.636 489.158,218.636 "/>
<path clip-path="url(#clip800)" d="M534.699 202.49 L534.699 207.05 Q532.037 205.777 529.675 205.152 Q527.314 204.527 525.115 204.527 Q521.296 204.527 519.213 206.008 Q517.152 207.49 517.152 210.221 Q517.152 212.513 518.518 213.694 Q519.907 214.851 523.75 215.569 L526.574 216.147 Q531.805 217.143 534.282 219.666 Q536.782 222.166 536.782 226.379 Q536.782 231.402 533.402 233.994 Q530.046 236.587 523.541 236.587 Q521.088 236.587 518.31 236.031 Q515.555 235.476 512.592 234.388 L512.592 229.573 Q515.439 231.17 518.171 231.981 Q520.902 232.791 523.541 232.791 Q527.546 232.791 529.722 231.217 Q531.898 229.643 531.898 226.726 Q531.898 224.18 530.324 222.744 Q528.773 221.309 525.208 220.592 L522.361 220.036 Q517.129 218.995 514.791 216.772 Q512.453 214.55 512.453 210.592 Q512.453 206.008 515.671 203.37 Q518.912 200.731 524.583 200.731 Q527.013 200.731 529.537 201.171 Q532.06 201.61 534.699 202.49 Z" fill="#000000" fill-rule="nonzero" fill-opacity="1" /><path clip-path="url(#clip800)" d="M543.888 209.99 L548.148 209.99 L548.148 235.916 L543.888 235.916 L543.888 209.99 M543.888 199.897 L548.148 199.897 L548.148 205.291 L543.888 205.291 L543.888 199.897 Z" fill="#000000" fill-rule="nonzero" fill-opacity="1" /><path clip-path="url(#clip800)" d="M577.245 214.967 Q578.842 212.096 581.064 210.731 Q583.286 209.365 586.296 209.365 Q590.346 209.365 592.545 212.212 Q594.745 215.036 594.745 220.268 L594.745 235.916 L590.462 235.916 L590.462 220.407 Q590.462 216.68 589.143 214.874 Q587.823 213.069 585.115 213.069 Q581.805 213.069 579.884 215.268 Q577.962 217.467 577.962 221.263 L577.962 235.916 L573.68 235.916 L573.68 220.407 Q573.68 216.657 572.36 214.874 Q571.041 213.069 568.286 213.069 Q565.022 213.069 563.101 215.291 Q561.18 217.49 561.18 221.263 L561.18 235.916 L556.898 235.916 L556.898 209.99 L561.18 209.99 L561.18 214.018 Q562.638 211.633 564.675 210.499 Q566.712 209.365 569.513 209.365 Q572.337 209.365 574.305 210.8 Q576.296 212.235 577.245 214.967 Z" fill="#000000" fill-rule="nonzero" fill-opacity="1" /><path clip-path="url(#clip800)" d="M603.24 209.99 L607.499 209.99 L607.499 235.916 L603.24 235.916 L603.24 209.99 M603.24 199.897 L607.499 199.897 L607.499 205.291 L603.24 205.291 L603.24 199.897 Z" fill="#000000" fill-rule="nonzero" fill-opacity="1" /><path clip-path="url(#clip800)" d="M616.411 199.897 L620.67 199.897 L620.67 235.916 L616.411 235.916 L616.411 199.897 Z" fill="#000000" fill-rule="nonzero" fill-opacity="1" /><path clip-path="url(#clip800)" d="M641.365 222.883 Q636.203 222.883 634.212 224.064 Q632.221 225.244 632.221 228.092 Q632.221 230.36 633.703 231.703 Q635.207 233.022 637.777 233.022 Q641.318 233.022 643.448 230.522 Q645.601 227.999 645.601 223.832 L645.601 222.883 L641.365 222.883 M649.86 221.124 L649.86 235.916 L645.601 235.916 L645.601 231.981 Q644.142 234.342 641.967 235.476 Q639.791 236.587 636.642 236.587 Q632.661 236.587 630.3 234.365 Q627.962 232.119 627.962 228.369 Q627.962 223.994 630.879 221.772 Q633.818 219.55 639.629 219.55 L645.601 219.55 L645.601 219.133 Q645.601 216.194 643.656 214.596 Q641.735 212.976 638.24 212.976 Q636.017 212.976 633.911 213.508 Q631.805 214.041 629.86 215.106 L629.86 211.17 Q632.198 210.268 634.397 209.828 Q636.596 209.365 638.68 209.365 Q644.304 209.365 647.082 212.282 Q649.86 215.198 649.86 221.124 Z" fill="#000000" fill-rule="nonzero" fill-opacity="1" /><path clip-path="url(#clip800)" d="M673.656 213.971 Q672.939 213.555 672.082 213.37 Q671.249 213.161 670.23 213.161 Q666.619 213.161 664.675 215.522 Q662.753 217.86 662.753 222.258 L662.753 235.916 L658.471 235.916 L658.471 209.99 L662.753 209.99 L662.753 214.018 Q664.096 211.657 666.249 210.522 Q668.402 209.365 671.48 209.365 Q671.92 209.365 672.452 209.434 Q672.985 209.481 673.633 209.596 L673.656 213.971 Z" fill="#000000" fill-rule="nonzero" fill-opacity="1" /><path clip-path="url(#clip800)" d="M678.124 209.99 L682.383 209.99 L682.383 235.916 L678.124 235.916 L678.124 209.99 M678.124 199.897 L682.383 199.897 L682.383 205.291 L678.124 205.291 L678.124 199.897 Z" fill="#000000" fill-rule="nonzero" fill-opacity="1" /><path clip-path="url(#clip800)" d="M695.508 202.629 L695.508 209.99 L704.281 209.99 L704.281 213.3 L695.508 213.3 L695.508 227.374 Q695.508 230.545 696.364 231.448 Q697.244 232.351 699.906 232.351 L704.281 232.351 L704.281 235.916 L699.906 235.916 Q694.975 235.916 693.101 234.087 Q691.226 232.235 691.226 227.374 L691.226 213.3 L688.101 213.3 L688.101 209.99 L691.226 209.99 L691.226 202.629 L695.508 202.629 Z" fill="#000000" fill-rule="nonzero" fill-opacity="1" /><path clip-path="url(#clip800)" d="M720.67 238.323 Q718.864 242.953 717.151 244.365 Q715.438 245.777 712.568 245.777 L709.165 245.777 L709.165 242.212 L711.665 242.212 Q713.424 242.212 714.397 241.379 Q715.369 240.545 716.549 237.443 L717.313 235.499 L706.827 209.99 L711.341 209.99 L719.443 230.268 L727.545 209.99 L732.059 209.99 L720.67 238.323 Z" fill="#000000" fill-rule="nonzero" fill-opacity="1" /></svg>
