<?xml version="1.0" encoding="utf-8"?>
<svg xmlns="http://www.w3.org/2000/svg" xmlns:xlink="http://www.w3.org/1999/xlink" width="600" height="400" viewBox="0 0 2400 1600">
<defs>
  <clipPath id="clip940">
    <rect x="0" y="0" width="2400" height="1600"/>
  </clipPath>
</defs>
<path clip-path="url(#clip940)" d="M0 1600 L2400 1600 L2400 8.88178e-14 L0 8.88178e-14  Z" fill="#ffffff" fill-rule="evenodd" fill-opacity="1"/>
<defs>
  <clipPath id="clip941">
    <rect x="480" y="0" width="1681" height="1600"/>
  </clipPath>
</defs>
<path clip-path="url(#clip940)" d="M256.209 1423.18 L2352.76 1423.18 L2352.76 123.472 L256.209 123.472  Z" fill="#ffffff" fill-rule="evenodd" fill-opacity="1"/>
<defs>
  <clipPath id="clip942">
    <rect x="256" y="123" width="2098" height="1301"/>
  </clipPath>
</defs>
<polyline clip-path="url(#clip942)" style="stroke:#000000; stroke-linecap:round; stroke-linejoin:round; stroke-width:2; stroke-opacity:0.1; fill:none" points="313.565,1423.18 313.565,123.472 "/>
<polyline clip-path="url(#clip942)" style="stroke:#000000; stroke-linecap:round; stroke-linejoin:round; stroke-width:2; stroke-opacity:0.1; fill:none" points="808.529,1423.18 808.529,123.472 "/>
<polyline clip-path="url(#clip942)" style="stroke:#000000; stroke-linecap:round; stroke-linejoin:round; stroke-width:2; stroke-opacity:0.1; fill:none" points="1303.49,1423.18 1303.49,123.472 "/>
<polyline clip-path="url(#clip942)" style="stroke:#000000; stroke-linecap:round; stroke-linejoin:round; stroke-width:2; stroke-opacity:0.1; fill:none" points="1798.46,1423.18 1798.46,123.472 "/>
<polyline clip-path="url(#clip942)" style="stroke:#000000; stroke-linecap:round; stroke-linejoin:round; stroke-width:2; stroke-opacity:0.1; fill:none" points="2293.42,1423.18 2293.42,123.472 "/>
<polyline clip-path="url(#clip940)" style="stroke:#000000; stroke-linecap:round; stroke-linejoin:round; stroke-width:4; stroke-opacity:1; fill:none" points="256.209,1423.18 2352.76,1423.18 "/>
<polyline clip-path="url(#clip940)" style="stroke:#000000; stroke-linecap:round; stroke-linejoin:round; stroke-width:4; stroke-opacity:1; fill:none" points="313.565,1423.18 313.565,1404.28 "/>
<polyline clip-path="url(#clip940)" style="stroke:#000000; stroke-linecap:round; stroke-linejoin:round; stroke-width:4; stroke-opacity:1; fill:none" points="808.529,1423.18 808.529,1404.28 "/>
<polyline clip-path="url(#clip940)" style="stroke:#000000; stroke-linecap:round; stroke-linejoin:round; stroke-width:4; stroke-opacity:1; fill:none" points="1303.49,1423.18 1303.49,1404.28 "/>
<polyline clip-path="url(#clip940)" style="stroke:#000000; stroke-linecap:round; stroke-linejoin:round; stroke-width:4; stroke-opacity:1; fill:none" points="1798.46,1423.18 1798.46,1404.28 "/>
<polyline clip-path="url(#clip940)" style="stroke:#000000; stroke-linecap:round; stroke-linejoin:round; stroke-width:4; stroke-opacity:1; fill:none" points="2293.42,1423.18 2293.42,1404.28 "/>
<path clip-path="url(#clip940)" d="M313.565 1454.1 Q309.954 1454.1 308.125 1457.66 Q306.32 1461.2 306.32 1468.33 Q306.32 1475.44 308.125 1479.01 Q309.954 1482.55 313.565 1482.55 Q317.199 1482.55 319.005 1479.01 Q320.834 1475.44 320.834 1468.33 Q320.834 1461.2 319.005 1457.66 Q317.199 1454.1 313.565 1454.1 M313.565 1450.39 Q319.375 1450.39 322.431 1455 Q325.509 1459.58 325.509 1468.33 Q325.509 1477.06 322.431 1481.67 Q319.375 1486.25 313.565 1486.25 Q307.755 1486.25 304.676 1481.67 Q301.621 1477.06 301.621 1468.33 Q301.621 1459.58 304.676 1455 Q307.755 1450.39 313.565 1450.39 Z" fill="#000000" fill-rule="nonzero" fill-opacity="1" /><path clip-path="url(#clip940)" d="M772.221 1481.64 L788.54 1481.64 L788.54 1485.58 L766.596 1485.58 L766.596 1481.64 Q769.258 1478.89 773.841 1474.26 Q778.448 1469.61 779.628 1468.27 Q781.874 1465.74 782.753 1464.01 Q783.656 1462.25 783.656 1460.56 Q783.656 1457.8 781.712 1456.07 Q779.79 1454.33 776.689 1454.33 Q774.49 1454.33 772.036 1455.09 Q769.605 1455.86 766.828 1457.41 L766.828 1452.69 Q769.652 1451.55 772.105 1450.97 Q774.559 1450.39 776.596 1450.39 Q781.966 1450.39 785.161 1453.08 Q788.355 1455.77 788.355 1460.26 Q788.355 1462.39 787.545 1464.31 Q786.758 1466.2 784.652 1468.8 Q784.073 1469.47 780.971 1472.69 Q777.869 1475.88 772.221 1481.64 Z" fill="#000000" fill-rule="nonzero" fill-opacity="1" /><path clip-path="url(#clip940)" d="M798.401 1451.02 L816.758 1451.02 L816.758 1454.96 L802.684 1454.96 L802.684 1463.43 Q803.702 1463.08 804.721 1462.92 Q805.739 1462.73 806.758 1462.73 Q812.545 1462.73 815.924 1465.9 Q819.304 1469.08 819.304 1474.49 Q819.304 1480.07 815.832 1483.17 Q812.36 1486.25 806.04 1486.25 Q803.864 1486.25 801.596 1485.88 Q799.351 1485.51 796.943 1484.77 L796.943 1480.07 Q799.026 1481.2 801.249 1481.76 Q803.471 1482.32 805.948 1482.32 Q809.952 1482.32 812.29 1480.21 Q814.628 1478.1 814.628 1474.49 Q814.628 1470.88 812.29 1468.77 Q809.952 1466.67 805.948 1466.67 Q804.073 1466.67 802.198 1467.08 Q800.346 1467.5 798.401 1468.38 L798.401 1451.02 Z" fill="#000000" fill-rule="nonzero" fill-opacity="1" /><path clip-path="url(#clip940)" d="M838.517 1454.1 Q834.906 1454.1 833.077 1457.66 Q831.272 1461.2 831.272 1468.33 Q831.272 1475.44 833.077 1479.01 Q834.906 1482.55 838.517 1482.55 Q842.151 1482.55 843.957 1479.01 Q845.785 1475.44 845.785 1468.33 Q845.785 1461.2 843.957 1457.66 Q842.151 1454.1 838.517 1454.1 M838.517 1450.39 Q844.327 1450.39 847.383 1455 Q850.461 1459.58 850.461 1468.33 Q850.461 1477.06 847.383 1481.67 Q844.327 1486.25 838.517 1486.25 Q832.707 1486.25 829.628 1481.67 Q826.573 1477.06 826.573 1468.33 Q826.573 1459.58 829.628 1455 Q832.707 1450.39 838.517 1450.39 Z" fill="#000000" fill-rule="nonzero" fill-opacity="1" /><path clip-path="url(#clip940)" d="M1263.11 1451.02 L1281.47 1451.02 L1281.47 1454.96 L1267.39 1454.96 L1267.39 1463.43 Q1268.41 1463.08 1269.43 1462.92 Q1270.45 1462.73 1271.47 1462.73 Q1277.25 1462.73 1280.63 1465.9 Q1284.01 1469.08 1284.01 1474.49 Q1284.01 1480.07 1280.54 1483.17 Q1277.07 1486.25 1270.75 1486.25 Q1268.57 1486.25 1266.31 1485.88 Q1264.06 1485.51 1261.65 1484.77 L1261.65 1480.07 Q1263.74 1481.2 1265.96 1481.76 Q1268.18 1482.32 1270.66 1482.32 Q1274.66 1482.32 1277 1480.21 Q1279.34 1478.1 1279.34 1474.49 Q1279.34 1470.88 1277 1468.77 Q1274.66 1466.67 1270.66 1466.67 Q1268.78 1466.67 1266.91 1467.08 Q1265.06 1467.5 1263.11 1468.38 L1263.11 1451.02 Z" fill="#000000" fill-rule="nonzero" fill-opacity="1" /><path clip-path="url(#clip940)" d="M1303.23 1454.1 Q1299.62 1454.1 1297.79 1457.66 Q1295.98 1461.2 1295.98 1468.33 Q1295.98 1475.44 1297.79 1479.01 Q1299.62 1482.55 1303.23 1482.55 Q1306.86 1482.55 1308.67 1479.01 Q1310.49 1475.44 1310.49 1468.33 Q1310.49 1461.2 1308.67 1457.66 Q1306.86 1454.1 1303.23 1454.1 M1303.23 1450.39 Q1309.04 1450.39 1312.09 1455 Q1315.17 1459.58 1315.17 1468.33 Q1315.17 1477.06 1312.09 1481.67 Q1309.04 1486.25 1303.23 1486.25 Q1297.42 1486.25 1294.34 1481.67 Q1291.28 1477.06 1291.28 1468.33 Q1291.28 1459.58 1294.34 1455 Q1297.42 1450.39 1303.23 1450.39 Z" fill="#000000" fill-rule="nonzero" fill-opacity="1" /><path clip-path="url(#clip940)" d="M1333.39 1454.1 Q1329.78 1454.1 1327.95 1457.66 Q1326.14 1461.2 1326.14 1468.33 Q1326.14 1475.44 1327.95 1479.01 Q1329.78 1482.55 1333.39 1482.55 Q1337.02 1482.55 1338.83 1479.01 Q1340.66 1475.44 1340.66 1468.33 Q1340.66 1461.2 1338.83 1457.66 Q1337.02 1454.1 1333.39 1454.1 M1333.39 1450.39 Q1339.2 1450.39 1342.25 1455 Q1345.33 1459.58 1345.33 1468.33 Q1345.33 1477.06 1342.25 1481.67 Q1339.2 1486.25 1333.39 1486.25 Q1327.58 1486.25 1324.5 1481.67 Q1321.44 1477.06 1321.44 1468.33 Q1321.44 1459.58 1324.5 1455 Q1327.58 1450.39 1333.39 1450.39 Z" fill="#000000" fill-rule="nonzero" fill-opacity="1" /><path clip-path="url(#clip940)" d="M1756.73 1451.02 L1778.95 1451.02 L1778.95 1453.01 L1766.41 1485.58 L1761.52 1485.58 L1773.33 1454.96 L1756.73 1454.96 L1756.73 1451.02 Z" fill="#000000" fill-rule="nonzero" fill-opacity="1" /><path clip-path="url(#clip940)" d="M1788.12 1451.02 L1806.48 1451.02 L1806.48 1454.96 L1792.4 1454.96 L1792.4 1463.43 Q1793.42 1463.08 1794.44 1462.92 Q1795.46 1462.73 1796.48 1462.73 Q1802.26 1462.73 1805.64 1465.9 Q1809.02 1469.08 1809.02 1474.49 Q1809.02 1480.07 1805.55 1483.17 Q1802.08 1486.25 1795.76 1486.25 Q1793.58 1486.25 1791.31 1485.88 Q1789.07 1485.51 1786.66 1484.77 L1786.66 1480.07 Q1788.75 1481.2 1790.97 1481.76 Q1793.19 1482.32 1795.67 1482.32 Q1799.67 1482.32 1802.01 1480.21 Q1804.35 1478.1 1804.35 1474.49 Q1804.35 1470.88 1802.01 1468.77 Q1799.67 1466.67 1795.67 1466.67 Q1793.79 1466.67 1791.92 1467.08 Q1790.06 1467.5 1788.12 1468.38 L1788.12 1451.02 Z" fill="#000000" fill-rule="nonzero" fill-opacity="1" /><path clip-path="url(#clip940)" d="M1828.24 1454.1 Q1824.62 1454.1 1822.8 1457.66 Q1820.99 1461.2 1820.99 1468.33 Q1820.99 1475.44 1822.8 1479.01 Q1824.62 1482.55 1828.24 1482.55 Q1831.87 1482.55 1833.68 1479.01 Q1835.5 1475.44 1835.5 1468.33 Q1835.5 1461.2 1833.68 1457.66 Q1831.87 1454.1 1828.24 1454.1 M1828.24 1450.39 Q1834.05 1450.39 1837.1 1455 Q1840.18 1459.58 1840.18 1468.33 Q1840.18 1477.06 1837.1 1481.67 Q1834.05 1486.25 1828.24 1486.25 Q1822.43 1486.25 1819.35 1481.67 Q1816.29 1477.06 1816.29 1468.33 Q1816.29 1459.58 1819.35 1455 Q1822.43 1450.39 1828.24 1450.39 Z" fill="#000000" fill-rule="nonzero" fill-opacity="1" /><path clip-path="url(#clip940)" d="M2237.95 1481.64 L2245.58 1481.64 L2245.58 1455.28 L2237.27 1456.95 L2237.27 1452.69 L2245.54 1451.02 L2250.21 1451.02 L2250.21 1481.64 L2257.85 1481.64 L2257.85 1485.58 L2237.95 1485.58 L2237.95 1481.64 Z" fill="#000000" fill-rule="nonzero" fill-opacity="1" /><path clip-path="url(#clip940)" d="M2277.3 1454.1 Q2273.69 1454.1 2271.86 1457.66 Q2270.05 1461.2 2270.05 1468.33 Q2270.05 1475.44 2271.86 1479.01 Q2273.69 1482.55 2277.3 1482.55 Q2280.93 1482.55 2282.74 1479.01 Q2284.57 1475.44 2284.57 1468.33 Q2284.57 1461.2 2282.74 1457.66 Q2280.93 1454.1 2277.3 1454.1 M2277.3 1450.39 Q2283.11 1450.39 2286.16 1455 Q2289.24 1459.58 2289.24 1468.33 Q2289.24 1477.06 2286.16 1481.67 Q2283.11 1486.25 2277.3 1486.25 Q2271.49 1486.25 2268.41 1481.67 Q2265.35 1477.06 2265.35 1468.33 Q2265.35 1459.58 2268.41 1455 Q2271.49 1450.39 2277.3 1450.39 Z" fill="#000000" fill-rule="nonzero" fill-opacity="1" /><path clip-path="url(#clip940)" d="M2307.46 1454.1 Q2303.85 1454.1 2302.02 1457.66 Q2300.21 1461.2 2300.21 1468.33 Q2300.21 1475.44 2302.02 1479.01 Q2303.85 1482.55 2307.46 1482.55 Q2311.09 1482.55 2312.9 1479.01 Q2314.73 1475.44 2314.73 1468.33 Q2314.73 1461.2 2312.9 1457.66 Q2311.09 1454.1 2307.46 1454.1 M2307.46 1450.39 Q2313.27 1450.39 2316.32 1455 Q2319.4 1459.58 2319.4 1468.33 Q2319.4 1477.06 2316.32 1481.67 Q2313.27 1486.25 2307.46 1486.25 Q2301.65 1486.25 2298.57 1481.67 Q2295.51 1477.06 2295.51 1468.33 Q2295.51 1459.58 2298.57 1455 Q2301.65 1450.39 2307.46 1450.39 Z" fill="#000000" fill-rule="nonzero" fill-opacity="1" /><path clip-path="url(#clip940)" d="M2337.62 1454.1 Q2334.01 1454.1 2332.18 1457.66 Q2330.38 1461.2 2330.38 1468.33 Q2330.38 1475.44 2332.18 1479.01 Q2334.01 1482.55 2337.62 1482.55 Q2341.26 1482.55 2343.06 1479.01 Q2344.89 1475.44 2344.89 1468.33 Q2344.89 1461.2 2343.06 1457.66 Q2341.26 1454.1 2337.62 1454.1 M2337.62 1450.39 Q2343.43 1450.39 2346.49 1455 Q2349.57 1459.58 2349.57 1468.33 Q2349.57 1477.06 2346.49 1481.67 Q2343.43 1486.25 2337.62 1486.25 Q2331.81 1486.25 2328.73 1481.67 Q2325.68 1477.06 2325.68 1468.33 Q2325.68 1459.58 2328.73 1455 Q2331.81 1450.39 2337.62 1450.39 Z" fill="#000000" fill-rule="nonzero" fill-opacity="1" /><path clip-path="url(#clip940)" d="M1268.33 1524.18 L1268.33 1530.96 Q1265.08 1527.94 1261.39 1526.44 Q1257.73 1524.95 1253.59 1524.95 Q1245.44 1524.95 1241.11 1529.95 Q1236.78 1534.91 1236.78 1544.33 Q1236.78 1553.72 1241.11 1558.72 Q1245.44 1563.68 1253.59 1563.68 Q1257.73 1563.68 1261.39 1562.19 Q1265.08 1560.69 1268.33 1557.67 L1268.33 1564.38 Q1264.95 1566.68 1261.16 1567.82 Q1257.41 1568.97 1253.21 1568.97 Q1242.42 1568.97 1236.21 1562.38 Q1230 1555.76 1230 1544.33 Q1230 1532.87 1236.21 1526.28 Q1242.42 1519.66 1253.21 1519.66 Q1257.47 1519.66 1261.23 1520.81 Q1265.01 1521.92 1268.33 1524.18 Z" fill="#000000" fill-rule="nonzero" fill-opacity="1" /><path clip-path="url(#clip940)" d="M1308.49 1548.76 L1308.49 1551.62 L1281.57 1551.62 Q1281.95 1557.67 1285.19 1560.85 Q1288.47 1564 1294.3 1564 Q1297.67 1564 1300.82 1563.17 Q1304 1562.35 1307.12 1560.69 L1307.12 1566.23 Q1303.97 1567.57 1300.66 1568.27 Q1297.35 1568.97 1293.95 1568.97 Q1285.42 1568.97 1280.42 1564 Q1275.45 1559.04 1275.45 1550.57 Q1275.45 1541.82 1280.17 1536.69 Q1284.91 1531.54 1292.93 1531.54 Q1300.12 1531.54 1304.29 1536.18 Q1308.49 1540.8 1308.49 1548.76 M1302.64 1547.04 Q1302.57 1542.23 1299.93 1539.37 Q1297.32 1536.5 1292.99 1536.5 Q1288.09 1536.5 1285.13 1539.27 Q1282.2 1542.04 1281.76 1547.07 L1302.64 1547.04 Z" fill="#000000" fill-rule="nonzero" fill-opacity="1" /><path clip-path="url(#clip940)" d="M1318.1 1518.52 L1323.96 1518.52 L1323.96 1568.04 L1318.1 1568.04 L1318.1 1518.52 Z" fill="#000000" fill-rule="nonzero" fill-opacity="1" /><path clip-path="url(#clip940)" d="M1336.22 1518.52 L1342.07 1518.52 L1342.07 1568.04 L1336.22 1568.04 L1336.22 1518.52 Z" fill="#000000" fill-rule="nonzero" fill-opacity="1" /><path clip-path="url(#clip940)" d="M1377.05 1533.45 L1377.05 1538.98 Q1374.57 1537.71 1371.9 1537.07 Q1369.22 1536.44 1366.36 1536.44 Q1362 1536.44 1359.8 1537.77 Q1357.64 1539.11 1357.64 1541.79 Q1357.64 1543.82 1359.2 1545 Q1360.76 1546.15 1365.47 1547.2 L1367.47 1547.64 Q1373.71 1548.98 1376.32 1551.43 Q1378.96 1553.85 1378.96 1558.21 Q1378.96 1563.17 1375.01 1566.07 Q1371.1 1568.97 1364.22 1568.97 Q1361.36 1568.97 1358.24 1568.39 Q1355.15 1567.85 1351.72 1566.74 L1351.72 1560.69 Q1354.96 1562.38 1358.11 1563.24 Q1361.26 1564.07 1364.35 1564.07 Q1368.49 1564.07 1370.72 1562.66 Q1372.95 1561.23 1372.95 1558.65 Q1372.95 1556.27 1371.32 1554.99 Q1369.73 1553.72 1364.29 1552.54 L1362.25 1552.07 Q1356.81 1550.92 1354.39 1548.56 Q1351.97 1546.18 1351.97 1542.04 Q1351.97 1537.01 1355.54 1534.27 Q1359.1 1531.54 1365.66 1531.54 Q1368.9 1531.54 1371.77 1532.01 Q1374.63 1532.49 1377.05 1533.45 Z" fill="#000000" fill-rule="nonzero" fill-opacity="1" /><polyline clip-path="url(#clip942)" style="stroke:#000000; stroke-linecap:round; stroke-linejoin:round; stroke-width:2; stroke-opacity:0.1; fill:none" points="256.209,1232.27 2352.76,1232.27 "/>
<polyline clip-path="url(#clip942)" style="stroke:#000000; stroke-linecap:round; stroke-linejoin:round; stroke-width:2; stroke-opacity:0.1; fill:none" points="256.209,872.737 2352.76,872.737 "/>
<polyline clip-path="url(#clip942)" style="stroke:#000000; stroke-linecap:round; stroke-linejoin:round; stroke-width:2; stroke-opacity:0.1; fill:none" points="256.209,513.206 2352.76,513.206 "/>
<polyline clip-path="url(#clip942)" style="stroke:#000000; stroke-linecap:round; stroke-linejoin:round; stroke-width:2; stroke-opacity:0.1; fill:none" points="256.209,153.674 2352.76,153.674 "/>
<polyline clip-path="url(#clip940)" style="stroke:#000000; stroke-linecap:round; stroke-linejoin:round; stroke-width:4; stroke-opacity:1; fill:none" points="256.209,1423.18 256.209,123.472 "/>
<polyline clip-path="url(#clip940)" style="stroke:#000000; stroke-linecap:round; stroke-linejoin:round; stroke-width:4; stroke-opacity:1; fill:none" points="256.209,1232.27 275.106,1232.27 "/>
<polyline clip-path="url(#clip940)" style="stroke:#000000; stroke-linecap:round; stroke-linejoin:round; stroke-width:4; stroke-opacity:1; fill:none" points="256.209,872.737 275.106,872.737 "/>
<polyline clip-path="url(#clip940)" style="stroke:#000000; stroke-linecap:round; stroke-linejoin:round; stroke-width:4; stroke-opacity:1; fill:none" points="256.209,513.206 275.106,513.206 "/>
<polyline clip-path="url(#clip940)" style="stroke:#000000; stroke-linecap:round; stroke-linejoin:round; stroke-width:4; stroke-opacity:1; fill:none" points="256.209,153.674 275.106,153.674 "/>
<path clip-path="url(#clip940)" d="M114.26 1232.72 L143.936 1232.72 L143.936 1236.65 L114.26 1236.65 L114.26 1232.72 Z" fill="#000000" fill-rule="nonzero" fill-opacity="1" /><path clip-path="url(#clip940)" d="M164.028 1218.07 Q160.417 1218.07 158.589 1221.63 Q156.783 1225.17 156.783 1232.3 Q156.783 1239.41 158.589 1242.97 Q160.417 1246.52 164.028 1246.52 Q167.663 1246.52 169.468 1242.97 Q171.297 1239.41 171.297 1232.3 Q171.297 1225.17 169.468 1221.63 Q167.663 1218.07 164.028 1218.07 M164.028 1214.36 Q169.839 1214.36 172.894 1218.97 Q175.973 1223.55 175.973 1232.3 Q175.973 1241.03 172.894 1245.64 Q169.839 1250.22 164.028 1250.22 Q158.218 1250.22 155.14 1245.64 Q152.084 1241.03 152.084 1232.3 Q152.084 1223.55 155.14 1218.97 Q158.218 1214.36 164.028 1214.36 Z" fill="#000000" fill-rule="nonzero" fill-opacity="1" /><path clip-path="url(#clip940)" d="M184.19 1243.67 L189.075 1243.67 L189.075 1249.55 L184.19 1249.55 L184.19 1243.67 Z" fill="#000000" fill-rule="nonzero" fill-opacity="1" /><path clip-path="url(#clip940)" d="M199.306 1214.99 L217.662 1214.99 L217.662 1218.92 L203.588 1218.92 L203.588 1227.4 Q204.607 1227.05 205.625 1226.89 Q206.644 1226.7 207.662 1226.7 Q213.449 1226.7 216.829 1229.87 Q220.209 1233.04 220.209 1238.46 Q220.209 1244.04 216.736 1247.14 Q213.264 1250.22 206.945 1250.22 Q204.769 1250.22 202.5 1249.85 Q200.255 1249.48 197.848 1248.74 L197.848 1244.04 Q199.931 1245.17 202.153 1245.73 Q204.375 1246.28 206.852 1246.28 Q210.857 1246.28 213.195 1244.18 Q215.533 1242.07 215.533 1238.46 Q215.533 1234.85 213.195 1232.74 Q210.857 1230.64 206.852 1230.64 Q204.977 1230.64 203.102 1231.05 Q201.25 1231.47 199.306 1232.35 L199.306 1214.99 Z" fill="#000000" fill-rule="nonzero" fill-opacity="1" /><path clip-path="url(#clip940)" d="M163.033 858.535 Q159.422 858.535 157.593 862.1 Q155.788 865.642 155.788 872.771 Q155.788 879.878 157.593 883.443 Q159.422 886.984 163.033 886.984 Q166.667 886.984 168.473 883.443 Q170.302 879.878 170.302 872.771 Q170.302 865.642 168.473 862.1 Q166.667 858.535 163.033 858.535 M163.033 854.832 Q168.843 854.832 171.899 859.438 Q174.977 864.021 174.977 872.771 Q174.977 881.498 171.899 886.105 Q168.843 890.688 163.033 890.688 Q157.223 890.688 154.144 886.105 Q151.089 881.498 151.089 872.771 Q151.089 864.021 154.144 859.438 Q157.223 854.832 163.033 854.832 Z" fill="#000000" fill-rule="nonzero" fill-opacity="1" /><path clip-path="url(#clip940)" d="M183.195 884.137 L188.079 884.137 L188.079 890.017 L183.195 890.017 L183.195 884.137 Z" fill="#000000" fill-rule="nonzero" fill-opacity="1" /><path clip-path="url(#clip940)" d="M208.264 858.535 Q204.653 858.535 202.824 862.1 Q201.019 865.642 201.019 872.771 Q201.019 879.878 202.824 883.443 Q204.653 886.984 208.264 886.984 Q211.899 886.984 213.704 883.443 Q215.533 879.878 215.533 872.771 Q215.533 865.642 213.704 862.1 Q211.899 858.535 208.264 858.535 M208.264 854.832 Q214.074 854.832 217.13 859.438 Q220.209 864.021 220.209 872.771 Q220.209 881.498 217.13 886.105 Q214.074 890.688 208.264 890.688 Q202.454 890.688 199.375 886.105 Q196.32 881.498 196.32 872.771 Q196.32 864.021 199.375 859.438 Q202.454 854.832 208.264 854.832 Z" fill="#000000" fill-rule="nonzero" fill-opacity="1" /><path clip-path="url(#clip940)" d="M164.028 499.004 Q160.417 499.004 158.589 502.569 Q156.783 506.111 156.783 513.24 Q156.783 520.347 158.589 523.912 Q160.417 527.453 164.028 527.453 Q167.663 527.453 169.468 523.912 Q171.297 520.347 171.297 513.24 Q171.297 506.111 169.468 502.569 Q167.663 499.004 164.028 499.004 M164.028 495.301 Q169.839 495.301 172.894 499.907 Q175.973 504.49 175.973 513.24 Q175.973 521.967 172.894 526.574 Q169.839 531.157 164.028 531.157 Q158.218 531.157 155.14 526.574 Q152.084 521.967 152.084 513.24 Q152.084 504.49 155.14 499.907 Q158.218 495.301 164.028 495.301 Z" fill="#000000" fill-rule="nonzero" fill-opacity="1" /><path clip-path="url(#clip940)" d="M184.19 524.606 L189.075 524.606 L189.075 530.486 L184.19 530.486 L184.19 524.606 Z" fill="#000000" fill-rule="nonzero" fill-opacity="1" /><path clip-path="url(#clip940)" d="M199.306 495.926 L217.662 495.926 L217.662 499.861 L203.588 499.861 L203.588 508.333 Q204.607 507.986 205.625 507.824 Q206.644 507.638 207.662 507.638 Q213.449 507.638 216.829 510.81 Q220.209 513.981 220.209 519.398 Q220.209 524.976 216.736 528.078 Q213.264 531.157 206.945 531.157 Q204.769 531.157 202.5 530.787 Q200.255 530.416 197.848 529.675 L197.848 524.976 Q199.931 526.111 202.153 526.666 Q204.375 527.222 206.852 527.222 Q210.857 527.222 213.195 525.115 Q215.533 523.009 215.533 519.398 Q215.533 515.787 213.195 513.68 Q210.857 511.574 206.852 511.574 Q204.977 511.574 203.102 511.99 Q201.25 512.407 199.306 513.287 L199.306 495.926 Z" fill="#000000" fill-rule="nonzero" fill-opacity="1" /><path clip-path="url(#clip940)" d="M153.843 167.019 L161.482 167.019 L161.482 140.654 L153.172 142.32 L153.172 138.061 L161.436 136.394 L166.112 136.394 L166.112 167.019 L173.751 167.019 L173.751 170.954 L153.843 170.954 L153.843 167.019 Z" fill="#000000" fill-rule="nonzero" fill-opacity="1" /><path clip-path="url(#clip940)" d="M183.195 165.075 L188.079 165.075 L188.079 170.954 L183.195 170.954 L183.195 165.075 Z" fill="#000000" fill-rule="nonzero" fill-opacity="1" /><path clip-path="url(#clip940)" d="M208.264 139.473 Q204.653 139.473 202.824 143.038 Q201.019 146.58 201.019 153.709 Q201.019 160.816 202.824 164.38 Q204.653 167.922 208.264 167.922 Q211.899 167.922 213.704 164.38 Q215.533 160.816 215.533 153.709 Q215.533 146.58 213.704 143.038 Q211.899 139.473 208.264 139.473 M208.264 135.769 Q214.074 135.769 217.13 140.376 Q220.209 144.959 220.209 153.709 Q220.209 162.436 217.13 167.042 Q214.074 171.626 208.264 171.626 Q202.454 171.626 199.375 167.042 Q196.32 162.436 196.32 153.709 Q196.32 144.959 199.375 140.376 Q202.454 135.769 208.264 135.769 Z" fill="#000000" fill-rule="nonzero" fill-opacity="1" /><path clip-path="url(#clip940)" d="M18.0438 893.717 L24.314 893.717 Q22.5634 897.378 21.704 900.624 Q20.8447 903.871 20.8447 906.894 Q20.8447 912.146 22.8817 915.011 Q24.9187 917.843 28.6745 917.843 Q31.8255 917.843 33.4488 915.966 Q35.0402 914.056 36.0269 908.772 L36.8226 904.889 Q38.1912 897.696 41.6605 894.29 Q45.098 890.853 50.8908 890.853 Q57.7976 890.853 61.3624 895.5 Q64.9272 900.115 64.9272 909.059 Q64.9272 912.433 64.1633 916.252 Q63.3994 920.04 61.9035 924.114 L55.2831 924.114 Q57.4793 920.199 58.5933 916.443 Q59.7073 912.687 59.7073 909.059 Q59.7073 903.552 57.543 900.561 Q55.3786 897.569 51.3682 897.569 Q47.8671 897.569 45.8937 899.733 Q43.9204 901.866 42.9337 906.767 L42.1698 910.682 Q40.7375 917.875 37.682 921.09 Q34.6264 924.305 29.1837 924.305 Q22.8817 924.305 19.2532 919.88 Q15.6248 915.424 15.6248 907.626 Q15.6248 904.284 16.2295 900.815 Q16.8343 897.346 18.0438 893.717 Z" fill="#000000" fill-rule="nonzero" fill-opacity="1" /><path clip-path="url(#clip940)" d="M28.3562 881.081 L28.3562 875.225 L64.0042 875.225 L64.0042 881.081 L28.3562 881.081 M14.479 881.081 L14.479 875.225 L21.895 875.225 L21.895 881.081 L14.479 881.081 Z" fill="#000000" fill-rule="nonzero" fill-opacity="1" /><path clip-path="url(#clip940)" d="M35.1993 835.217 Q31.2526 833.02 29.3747 829.965 Q27.4968 826.909 27.4968 822.772 Q27.4968 817.202 31.4117 814.178 Q35.2948 811.154 42.4881 811.154 L64.0042 811.154 L64.0042 817.042 L42.679 817.042 Q37.5546 817.042 35.072 818.857 Q32.5894 820.671 32.5894 824.395 Q32.5894 828.946 35.6131 831.588 Q38.6368 834.23 43.8567 834.23 L64.0042 834.23 L64.0042 840.118 L42.679 840.118 Q37.5228 840.118 35.072 841.932 Q32.5894 843.747 32.5894 847.534 Q32.5894 852.022 35.6449 854.664 Q38.6686 857.306 43.8567 857.306 L64.0042 857.306 L64.0042 863.194 L28.3562 863.194 L28.3562 857.306 L33.8944 857.306 Q30.616 855.3 29.0564 852.499 Q27.4968 849.699 27.4968 845.847 Q27.4968 841.964 29.4702 839.259 Q31.4436 836.522 35.1993 835.217 Z" fill="#000000" fill-rule="nonzero" fill-opacity="1" /><path clip-path="url(#clip940)" d="M28.3562 799.473 L28.3562 793.617 L64.0042 793.617 L64.0042 799.473 L28.3562 799.473 M14.479 799.473 L14.479 793.617 L21.895 793.617 L21.895 799.473 L14.479 799.473 Z" fill="#000000" fill-rule="nonzero" fill-opacity="1" /><path clip-path="url(#clip940)" d="M14.479 781.363 L14.479 775.506 L64.0042 775.506 L64.0042 781.363 L14.479 781.363 Z" fill="#000000" fill-rule="nonzero" fill-opacity="1" /><path clip-path="url(#clip940)" d="M46.0847 747.052 Q46.0847 754.149 47.7079 756.887 Q49.3312 759.624 53.2461 759.624 Q56.3653 759.624 58.2114 757.587 Q60.0256 755.518 60.0256 751.985 Q60.0256 747.115 56.5881 744.187 Q53.1188 741.227 47.3897 741.227 L46.0847 741.227 L46.0847 747.052 M43.6657 735.37 L64.0042 735.37 L64.0042 741.227 L58.5933 741.227 Q61.8398 743.232 63.3994 746.224 Q64.9272 749.216 64.9272 753.545 Q64.9272 759.019 61.8716 762.266 Q58.7843 765.48 53.6281 765.48 Q47.6125 765.48 44.5569 761.47 Q41.5014 757.428 41.5014 749.439 L41.5014 741.227 L40.9285 741.227 Q36.8862 741.227 34.6901 743.901 Q32.4621 746.542 32.4621 751.348 Q32.4621 754.404 33.1941 757.3 Q33.9262 760.197 35.3903 762.87 L29.9795 762.87 Q28.7381 759.656 28.1334 756.632 Q27.4968 753.608 27.4968 750.744 Q27.4968 743.009 31.5072 739.19 Q35.5176 735.37 43.6657 735.37 Z" fill="#000000" fill-rule="nonzero" fill-opacity="1" /><path clip-path="url(#clip940)" d="M33.8307 702.651 Q33.2578 703.637 33.0032 704.815 Q32.7167 705.961 32.7167 707.361 Q32.7167 712.327 35.9632 715 Q39.1779 717.642 45.2253 717.642 L64.0042 717.642 L64.0042 723.53 L28.3562 723.53 L28.3562 717.642 L33.8944 717.642 Q30.6479 715.796 29.0883 712.836 Q27.4968 709.876 27.4968 705.643 Q27.4968 705.038 27.5923 704.306 Q27.656 703.574 27.8151 702.683 L33.8307 702.651 Z" fill="#000000" fill-rule="nonzero" fill-opacity="1" /><path clip-path="url(#clip940)" d="M28.3562 696.508 L28.3562 690.651 L64.0042 690.651 L64.0042 696.508 L28.3562 696.508 M14.479 696.508 L14.479 690.651 L21.895 690.651 L21.895 696.508 L14.479 696.508 Z" fill="#000000" fill-rule="nonzero" fill-opacity="1" /><path clip-path="url(#clip940)" d="M18.2347 672.605 L28.3562 672.605 L28.3562 660.542 L32.9077 660.542 L32.9077 672.605 L52.2594 672.605 Q56.6199 672.605 57.8613 671.427 Q59.1026 670.217 59.1026 666.557 L59.1026 660.542 L64.0042 660.542 L64.0042 666.557 Q64.0042 673.337 61.4897 675.915 Q58.9434 678.493 52.2594 678.493 L32.9077 678.493 L32.9077 682.79 L28.3562 682.79 L28.3562 678.493 L18.2347 678.493 L18.2347 672.605 Z" fill="#000000" fill-rule="nonzero" fill-opacity="1" /><path clip-path="url(#clip940)" d="M67.3143 638.007 Q73.68 640.49 75.6216 642.845 Q77.5631 645.2 77.5631 649.147 L77.5631 653.826 L72.6615 653.826 L72.6615 650.388 Q72.6615 647.969 71.5157 646.633 Q70.3699 645.296 66.1048 643.672 L63.4312 642.622 L28.3562 657.04 L28.3562 650.834 L56.238 639.694 L28.3562 628.554 L28.3562 622.347 L67.3143 638.007 Z" fill="#000000" fill-rule="nonzero" fill-opacity="1" /><path clip-path="url(#clip940)" d="M422.945 14.0809 L422.945 22.0612 Q418.286 19.8332 414.154 18.7395 Q410.022 17.6457 406.174 17.6457 Q399.49 17.6457 395.844 20.2383 Q392.239 22.8309 392.239 27.611 Q392.239 31.6214 394.629 33.6873 Q397.059 35.7128 403.784 36.9686 L408.726 37.9813 Q417.881 39.7232 422.216 44.1387 Q426.591 48.5136 426.591 55.8863 Q426.591 64.6767 420.676 69.2137 Q414.802 73.7508 403.419 73.7508 Q399.125 73.7508 394.264 72.7785 Q389.444 71.8063 384.259 69.9024 L384.259 61.4765 Q389.241 64.2716 394.021 65.6895 Q398.801 67.1073 403.419 67.1073 Q410.427 67.1073 414.235 64.3527 Q418.043 61.598 418.043 56.4939 Q418.043 52.0379 415.289 49.5264 Q412.574 47.0148 406.336 45.759 L401.353 44.7868 Q392.198 42.9639 388.107 39.075 Q384.016 35.1862 384.016 28.2591 Q384.016 20.2383 389.646 15.6203 Q395.318 11.0023 405.242 11.0023 Q409.496 11.0023 413.911 11.7719 Q418.327 12.5416 422.945 14.0809 Z" fill="#000000" fill-rule="nonzero" fill-opacity="1" /><path clip-path="url(#clip940)" d="M456.608 32.4315 Q450.612 32.4315 447.129 37.1306 Q443.645 41.7891 443.645 49.9314 Q443.645 58.0738 447.088 62.7728 Q450.572 67.4314 456.608 67.4314 Q462.563 67.4314 466.046 62.7323 Q469.53 58.0333 469.53 49.9314 Q469.53 41.8701 466.046 37.1711 Q462.563 32.4315 456.608 32.4315 M456.608 26.1121 Q466.33 26.1121 471.88 32.4315 Q477.429 38.7509 477.429 49.9314 Q477.429 61.0714 471.88 67.4314 Q466.33 73.7508 456.608 73.7508 Q446.845 73.7508 441.295 67.4314 Q435.786 61.0714 435.786 49.9314 Q435.786 38.7509 441.295 32.4315 Q446.845 26.1121 456.608 26.1121 Z" fill="#000000" fill-rule="nonzero" fill-opacity="1" /><path clip-path="url(#clip940)" d="M516.075 34.1734 Q514.819 33.4443 513.32 33.1202 Q511.862 32.7556 510.08 32.7556 Q503.76 32.7556 500.358 36.8875 Q496.995 40.9789 496.995 48.6757 L496.995 72.576 L489.501 72.576 L489.501 27.2059 L496.995 27.2059 L496.995 34.2544 Q499.345 30.1225 503.112 28.1376 Q506.879 26.1121 512.267 26.1121 Q513.037 26.1121 513.969 26.2337 Q514.9 26.3147 516.035 26.5172 L516.075 34.1734 Z" fill="#000000" fill-rule="nonzero" fill-opacity="1" /><path clip-path="url(#clip940)" d="M531.266 14.324 L531.266 27.2059 L546.619 27.2059 L546.619 32.9987 L531.266 32.9987 L531.266 57.6282 Q531.266 63.1779 532.765 64.7578 Q534.304 66.3376 538.963 66.3376 L546.619 66.3376 L546.619 72.576 L538.963 72.576 Q530.334 72.576 527.053 69.3758 Q523.772 66.1351 523.772 57.6282 L523.772 32.9987 L518.303 32.9987 L518.303 27.2059 L523.772 27.2059 L523.772 14.324 L531.266 14.324 Z" fill="#000000" fill-rule="nonzero" fill-opacity="1" /><path clip-path="url(#clip940)" d="M595.23 48.0275 L595.23 51.6733 L560.959 51.6733 Q561.445 59.3701 565.577 63.421 Q569.75 67.4314 577.163 67.4314 Q581.457 67.4314 585.467 66.3781 Q589.518 65.3249 593.488 63.2184 L593.488 70.267 Q589.477 71.9684 585.264 72.8596 Q581.052 73.7508 576.717 73.7508 Q565.861 73.7508 559.501 67.4314 Q553.181 61.1119 553.181 50.3365 Q553.181 39.1965 559.177 32.6746 Q565.213 26.1121 575.421 26.1121 Q584.576 26.1121 589.883 32.0264 Q595.23 37.9003 595.23 48.0275 M587.776 45.84 Q587.695 39.7232 584.333 36.0774 Q581.011 32.4315 575.502 32.4315 Q569.263 32.4315 565.496 35.9558 Q561.769 39.4801 561.202 45.8805 L587.776 45.84 Z" fill="#000000" fill-rule="nonzero" fill-opacity="1" /><path clip-path="url(#clip940)" d="M637.319 34.0924 L637.319 9.54393 L644.772 9.54393 L644.772 72.576 L637.319 72.576 L637.319 65.7705 Q634.969 69.8214 631.364 71.8063 Q627.799 73.7508 622.776 73.7508 Q614.553 73.7508 609.367 67.1883 Q604.223 60.6258 604.223 49.9314 Q604.223 39.2371 609.367 32.6746 Q614.553 26.1121 622.776 26.1121 Q627.799 26.1121 631.364 28.0971 Q634.969 30.0415 637.319 34.0924 M611.919 49.9314 Q611.919 58.1548 615.282 62.8538 Q618.684 67.5124 624.599 67.5124 Q630.513 67.5124 633.916 62.8538 Q637.319 58.1548 637.319 49.9314 Q637.319 41.7081 633.916 37.0496 Q630.513 32.3505 624.599 32.3505 Q618.684 32.3505 615.282 37.0496 Q611.919 41.7081 611.919 49.9314 Z" fill="#000000" fill-rule="nonzero" fill-opacity="1" /><path clip-path="url(#clip940)" d="M719.147 28.9478 L719.147 35.9153 Q715.987 34.1734 712.787 33.3227 Q709.627 32.4315 706.387 32.4315 Q699.135 32.4315 695.125 37.0496 Q691.115 41.6271 691.115 49.9314 Q691.115 58.2358 695.125 62.8538 Q699.135 67.4314 706.387 67.4314 Q709.627 67.4314 712.787 66.5807 Q715.987 65.6895 719.147 63.9476 L719.147 70.8341 Q716.028 72.2924 712.665 73.0216 Q709.344 73.7508 705.576 73.7508 Q695.328 73.7508 689.292 67.3098 Q683.256 60.8689 683.256 49.9314 Q683.256 38.832 689.332 32.472 Q695.449 26.1121 706.062 26.1121 Q709.506 26.1121 712.787 26.8413 Q716.068 27.5299 719.147 28.9478 Z" fill="#000000" fill-rule="nonzero" fill-opacity="1" /><path clip-path="url(#clip940)" d="M749.691 32.4315 Q743.695 32.4315 740.212 37.1306 Q736.728 41.7891 736.728 49.9314 Q736.728 58.0738 740.171 62.7728 Q743.655 67.4314 749.691 67.4314 Q755.646 67.4314 759.129 62.7323 Q762.613 58.0333 762.613 49.9314 Q762.613 41.8701 759.129 37.1711 Q755.646 32.4315 749.691 32.4315 M749.691 26.1121 Q759.413 26.1121 764.963 32.4315 Q770.512 38.7509 770.512 49.9314 Q770.512 61.0714 764.963 67.4314 Q759.413 73.7508 749.691 73.7508 Q739.928 73.7508 734.378 67.4314 Q728.869 61.0714 728.869 49.9314 Q728.869 38.7509 734.378 32.4315 Q739.928 26.1121 749.691 26.1121 Z" fill="#000000" fill-rule="nonzero" fill-opacity="1" /><path clip-path="url(#clip940)" d="M811.791 28.5427 L811.791 35.5912 Q808.631 33.9709 805.229 33.1607 Q801.826 32.3505 798.18 32.3505 Q792.63 32.3505 789.835 34.0519 Q787.081 35.7533 787.081 39.156 Q787.081 41.7486 789.065 43.2475 Q791.05 44.7058 797.046 46.0426 L799.598 46.6097 Q807.538 48.3111 810.859 51.4303 Q814.222 54.509 814.222 60.0587 Q814.222 66.3781 809.198 70.0644 Q804.216 73.7508 795.466 73.7508 Q791.82 73.7508 787.85 73.0216 Q783.921 72.3329 779.546 70.9151 L779.546 63.2184 Q783.678 65.3654 787.688 66.4591 Q791.699 67.5124 795.628 67.5124 Q800.894 67.5124 803.73 65.73 Q806.565 63.9071 806.565 60.6258 Q806.565 57.5877 804.499 55.9673 Q802.474 54.3469 795.547 52.8481 L792.954 52.2405 Q786.027 50.7821 782.949 47.7845 Q779.87 44.7463 779.87 39.4801 Q779.87 33.0797 784.407 29.5959 Q788.944 26.1121 797.289 26.1121 Q801.421 26.1121 805.067 26.7198 Q808.712 27.3274 811.791 28.5427 Z" fill="#000000" fill-rule="nonzero" fill-opacity="1" /><path clip-path="url(#clip940)" d="M826.091 27.2059 L833.544 27.2059 L833.544 72.576 L826.091 72.576 L826.091 27.2059 M826.091 9.54393 L833.544 9.54393 L833.544 18.9825 L826.091 18.9825 L826.091 9.54393 Z" fill="#000000" fill-rule="nonzero" fill-opacity="1" /><path clip-path="url(#clip940)" d="M886.854 45.1919 L886.854 72.576 L879.401 72.576 L879.401 45.4349 Q879.401 38.994 876.889 35.7938 Q874.378 32.5936 869.354 32.5936 Q863.319 32.5936 859.835 36.4419 Q856.351 40.2903 856.351 46.9338 L856.351 72.576 L848.857 72.576 L848.857 27.2059 L856.351 27.2059 L856.351 34.2544 Q859.025 30.163 862.63 28.1376 Q866.276 26.1121 871.015 26.1121 Q878.834 26.1121 882.844 30.9732 Q886.854 35.7938 886.854 45.1919 Z" fill="#000000" fill-rule="nonzero" fill-opacity="1" /><path clip-path="url(#clip940)" d="M940.529 48.0275 L940.529 51.6733 L906.258 51.6733 Q906.744 59.3701 910.876 63.421 Q915.049 67.4314 922.462 67.4314 Q926.756 67.4314 930.766 66.3781 Q934.817 65.3249 938.787 63.2184 L938.787 70.267 Q934.777 71.9684 930.564 72.8596 Q926.351 73.7508 922.016 73.7508 Q911.16 73.7508 904.8 67.4314 Q898.48 61.1119 898.48 50.3365 Q898.48 39.1965 904.476 32.6746 Q910.512 26.1121 920.72 26.1121 Q929.875 26.1121 935.182 32.0264 Q940.529 37.9003 940.529 48.0275 M933.075 45.84 Q932.994 39.7232 929.632 36.0774 Q926.31 32.4315 920.801 32.4315 Q914.562 32.4315 910.795 35.9558 Q907.068 39.4801 906.501 45.8805 L933.075 45.84 Z" fill="#000000" fill-rule="nonzero" fill-opacity="1" /><path clip-path="url(#clip940)" d="M1008.06 28.5427 L1008.06 35.5912 Q1004.9 33.9709 1001.49 33.1607 Q998.092 32.3505 994.446 32.3505 Q988.897 32.3505 986.101 34.0519 Q983.347 35.7533 983.347 39.156 Q983.347 41.7486 985.332 43.2475 Q987.317 44.7058 993.312 46.0426 L995.864 46.6097 Q1003.8 48.3111 1007.13 51.4303 Q1010.49 54.509 1010.49 60.0587 Q1010.49 66.3781 1005.46 70.0644 Q1000.48 73.7508 991.732 73.7508 Q988.086 73.7508 984.117 73.0216 Q980.187 72.3329 975.812 70.9151 L975.812 63.2184 Q979.944 65.3654 983.954 66.4591 Q987.965 67.5124 991.894 67.5124 Q997.16 67.5124 999.996 65.73 Q1002.83 63.9071 1002.83 60.6258 Q1002.83 57.5877 1000.77 55.9673 Q998.74 54.3469 991.813 52.8481 L989.221 52.2405 Q982.294 50.7821 979.215 47.7845 Q976.136 44.7463 976.136 39.4801 Q976.136 33.0797 980.673 29.5959 Q985.21 26.1121 993.555 26.1121 Q997.687 26.1121 1001.33 26.7198 Q1004.98 27.3274 1008.06 28.5427 Z" fill="#000000" fill-rule="nonzero" fill-opacity="1" /><path clip-path="url(#clip940)" d="M1022.36 27.2059 L1029.81 27.2059 L1029.81 72.576 L1022.36 72.576 L1022.36 27.2059 M1022.36 9.54393 L1029.81 9.54393 L1029.81 18.9825 L1022.36 18.9825 L1022.36 9.54393 Z" fill="#000000" fill-rule="nonzero" fill-opacity="1" /><path clip-path="url(#clip940)" d="M1080.73 35.9153 Q1083.53 30.8922 1087.41 28.5022 Q1091.3 26.1121 1096.57 26.1121 Q1103.66 26.1121 1107.51 31.0947 Q1111.36 36.0368 1111.36 45.1919 L1111.36 72.576 L1103.86 72.576 L1103.86 45.4349 Q1103.86 38.913 1101.55 35.7533 Q1099.24 32.5936 1094.5 32.5936 Q1088.71 32.5936 1085.35 36.4419 Q1081.99 40.2903 1081.99 46.9338 L1081.99 72.576 L1074.49 72.576 L1074.49 45.4349 Q1074.49 38.8725 1072.18 35.7533 Q1069.87 32.5936 1065.05 32.5936 Q1059.34 32.5936 1055.98 36.4824 Q1052.62 40.3308 1052.62 46.9338 L1052.62 72.576 L1045.12 72.576 L1045.12 27.2059 L1052.62 27.2059 L1052.62 34.2544 Q1055.17 30.082 1058.73 28.0971 Q1062.3 26.1121 1067.2 26.1121 Q1072.14 26.1121 1075.59 28.6237 Q1079.07 31.1352 1080.73 35.9153 Z" fill="#000000" fill-rule="nonzero" fill-opacity="1" /><path clip-path="url(#clip940)" d="M1126.22 27.2059 L1133.68 27.2059 L1133.68 72.576 L1126.22 72.576 L1126.22 27.2059 M1126.22 9.54393 L1133.68 9.54393 L1133.68 18.9825 L1126.22 18.9825 L1126.22 9.54393 Z" fill="#000000" fill-rule="nonzero" fill-opacity="1" /><path clip-path="url(#clip940)" d="M1149.27 9.54393 L1156.73 9.54393 L1156.73 72.576 L1149.27 72.576 L1149.27 9.54393 Z" fill="#000000" fill-rule="nonzero" fill-opacity="1" /><path clip-path="url(#clip940)" d="M1192.94 49.7694 Q1183.91 49.7694 1180.42 51.8354 Q1176.94 53.9013 1176.94 58.8839 Q1176.94 62.8538 1179.53 65.2034 Q1182.17 67.5124 1186.66 67.5124 Q1192.86 67.5124 1196.59 63.1374 Q1200.35 58.7219 1200.35 51.4303 L1200.35 49.7694 L1192.94 49.7694 M1207.81 46.6907 L1207.81 72.576 L1200.35 72.576 L1200.35 65.6895 Q1197.8 69.8214 1193.99 71.8063 Q1190.19 73.7508 1184.68 73.7508 Q1177.71 73.7508 1173.58 69.8619 Q1169.49 65.9325 1169.49 59.3701 Q1169.49 51.7138 1174.59 47.825 Q1179.73 43.9361 1189.9 43.9361 L1200.35 43.9361 L1200.35 43.2069 Q1200.35 38.0623 1196.95 35.2672 Q1193.59 32.4315 1187.47 32.4315 Q1183.58 32.4315 1179.9 33.3632 Q1176.21 34.295 1172.81 36.1584 L1172.81 29.2718 Q1176.9 27.692 1180.75 26.9223 Q1184.6 26.1121 1188.24 26.1121 Q1198.09 26.1121 1202.95 31.2163 Q1207.81 36.3204 1207.81 46.6907 Z" fill="#000000" fill-rule="nonzero" fill-opacity="1" /><path clip-path="url(#clip940)" d="M1249.45 34.1734 Q1248.19 33.4443 1246.7 33.1202 Q1245.24 32.7556 1243.46 32.7556 Q1237.14 32.7556 1233.73 36.8875 Q1230.37 40.9789 1230.37 48.6757 L1230.37 72.576 L1222.88 72.576 L1222.88 27.2059 L1230.37 27.2059 L1230.37 34.2544 Q1232.72 30.1225 1236.49 28.1376 Q1240.26 26.1121 1245.64 26.1121 Q1246.41 26.1121 1247.34 26.2337 Q1248.28 26.3147 1249.41 26.5172 L1249.45 34.1734 Z" fill="#000000" fill-rule="nonzero" fill-opacity="1" /><path clip-path="url(#clip940)" d="M1257.27 27.2059 L1264.72 27.2059 L1264.72 72.576 L1257.27 72.576 L1257.27 27.2059 M1257.27 9.54393 L1264.72 9.54393 L1264.72 18.9825 L1257.27 18.9825 L1257.27 9.54393 Z" fill="#000000" fill-rule="nonzero" fill-opacity="1" /><path clip-path="url(#clip940)" d="M1287.69 14.324 L1287.69 27.2059 L1303.04 27.2059 L1303.04 32.9987 L1287.69 32.9987 L1287.69 57.6282 Q1287.69 63.1779 1289.19 64.7578 Q1290.73 66.3376 1295.39 66.3376 L1303.04 66.3376 L1303.04 72.576 L1295.39 72.576 Q1286.76 72.576 1283.48 69.3758 Q1280.2 66.1351 1280.2 57.6282 L1280.2 32.9987 L1274.73 32.9987 L1274.73 27.2059 L1280.2 27.2059 L1280.2 14.324 L1287.69 14.324 Z" fill="#000000" fill-rule="nonzero" fill-opacity="1" /><path clip-path="url(#clip940)" d="M1312.85 27.2059 L1320.3 27.2059 L1320.3 72.576 L1312.85 72.576 L1312.85 27.2059 M1312.85 9.54393 L1320.3 9.54393 L1320.3 18.9825 L1312.85 18.9825 L1312.85 9.54393 Z" fill="#000000" fill-rule="nonzero" fill-opacity="1" /><path clip-path="url(#clip940)" d="M1374.7 48.0275 L1374.7 51.6733 L1340.43 51.6733 Q1340.92 59.3701 1345.05 63.421 Q1349.22 67.4314 1356.64 67.4314 Q1360.93 67.4314 1364.94 66.3781 Q1368.99 65.3249 1372.96 63.2184 L1372.96 70.267 Q1368.95 71.9684 1364.74 72.8596 Q1360.53 73.7508 1356.19 73.7508 Q1345.34 73.7508 1338.98 67.4314 Q1332.66 61.1119 1332.66 50.3365 Q1332.66 39.1965 1338.65 32.6746 Q1344.69 26.1121 1354.9 26.1121 Q1364.05 26.1121 1369.36 32.0264 Q1374.7 37.9003 1374.7 48.0275 M1367.25 45.84 Q1367.17 39.7232 1363.81 36.0774 Q1360.49 32.4315 1354.98 32.4315 Q1348.74 32.4315 1344.97 35.9558 Q1341.24 39.4801 1340.68 45.8805 L1367.25 45.84 Z" fill="#000000" fill-rule="nonzero" fill-opacity="1" /><path clip-path="url(#clip940)" d="M1415.86 28.5427 L1415.86 35.5912 Q1412.7 33.9709 1409.3 33.1607 Q1405.9 32.3505 1402.25 32.3505 Q1396.7 32.3505 1393.91 34.0519 Q1391.15 35.7533 1391.15 39.156 Q1391.15 41.7486 1393.14 43.2475 Q1395.12 44.7058 1401.12 46.0426 L1403.67 46.6097 Q1411.61 48.3111 1414.93 51.4303 Q1418.29 54.509 1418.29 60.0587 Q1418.29 66.3781 1413.27 70.0644 Q1408.29 73.7508 1399.54 73.7508 Q1395.89 73.7508 1391.92 73.0216 Q1387.99 72.3329 1383.62 70.9151 L1383.62 63.2184 Q1387.75 65.3654 1391.76 66.4591 Q1395.77 67.5124 1399.7 67.5124 Q1404.96 67.5124 1407.8 65.73 Q1410.64 63.9071 1410.64 60.6258 Q1410.64 57.5877 1408.57 55.9673 Q1406.54 54.3469 1399.62 52.8481 L1397.03 52.2405 Q1390.1 50.7821 1387.02 47.7845 Q1383.94 44.7463 1383.94 39.4801 Q1383.94 33.0797 1388.48 29.5959 Q1393.01 26.1121 1401.36 26.1121 Q1405.49 26.1121 1409.14 26.7198 Q1412.78 27.3274 1415.86 28.5427 Z" fill="#000000" fill-rule="nonzero" fill-opacity="1" /><path clip-path="url(#clip940)" d="M1489.18 28.9478 L1489.18 35.9153 Q1486.02 34.1734 1482.82 33.3227 Q1479.66 32.4315 1476.42 32.4315 Q1469.17 32.4315 1465.16 37.0496 Q1461.15 41.6271 1461.15 49.9314 Q1461.15 58.2358 1465.16 62.8538 Q1469.17 67.4314 1476.42 67.4314 Q1479.66 67.4314 1482.82 66.5807 Q1486.02 65.6895 1489.18 63.9476 L1489.18 70.8341 Q1486.06 72.2924 1482.7 73.0216 Q1479.38 73.7508 1475.61 73.7508 Q1465.36 73.7508 1459.33 67.3098 Q1453.29 60.8689 1453.29 49.9314 Q1453.29 38.832 1459.37 32.472 Q1465.49 26.1121 1476.1 26.1121 Q1479.54 26.1121 1482.82 26.8413 Q1486.1 27.5299 1489.18 28.9478 Z" fill="#000000" fill-rule="nonzero" fill-opacity="1" /><path clip-path="url(#clip940)" d="M1540.95 48.0275 L1540.95 51.6733 L1506.68 51.6733 Q1507.17 59.3701 1511.3 63.421 Q1515.47 67.4314 1522.89 67.4314 Q1527.18 67.4314 1531.19 66.3781 Q1535.24 65.3249 1539.21 63.2184 L1539.21 70.267 Q1535.2 71.9684 1530.99 72.8596 Q1526.78 73.7508 1522.44 73.7508 Q1511.58 73.7508 1505.22 67.4314 Q1498.91 61.1119 1498.91 50.3365 Q1498.91 39.1965 1504.9 32.6746 Q1510.94 26.1121 1521.14 26.1121 Q1530.3 26.1121 1535.61 32.0264 Q1540.95 37.9003 1540.95 48.0275 M1533.5 45.84 Q1533.42 39.7232 1530.06 36.0774 Q1526.74 32.4315 1521.23 32.4315 Q1514.99 32.4315 1511.22 35.9558 Q1507.49 39.4801 1506.93 45.8805 L1533.5 45.84 Z" fill="#000000" fill-rule="nonzero" fill-opacity="1" /><path clip-path="url(#clip940)" d="M1553.19 9.54393 L1560.64 9.54393 L1560.64 72.576 L1553.19 72.576 L1553.19 9.54393 Z" fill="#000000" fill-rule="nonzero" fill-opacity="1" /><path clip-path="url(#clip940)" d="M1576.24 9.54393 L1583.69 9.54393 L1583.69 72.576 L1576.24 72.576 L1576.24 9.54393 Z" fill="#000000" fill-rule="nonzero" fill-opacity="1" /><path clip-path="url(#clip940)" d="M1651.5 39.9662 Q1657.38 41.222 1660.66 45.1919 Q1663.98 49.1618 1663.98 54.9951 Q1663.98 63.9476 1657.82 68.8492 Q1651.67 73.7508 1640.32 73.7508 Q1636.51 73.7508 1632.46 72.9811 Q1628.45 72.2519 1624.16 70.7531 L1624.16 62.8538 Q1627.56 64.8388 1631.61 65.8515 Q1635.66 66.8642 1640.08 66.8642 Q1647.78 66.8642 1651.79 63.826 Q1655.84 60.7879 1655.84 54.9951 Q1655.84 49.6479 1652.07 46.6502 Q1648.34 43.612 1641.66 43.612 L1634.61 43.612 L1634.61 36.8875 L1641.98 36.8875 Q1648.02 36.8875 1651.22 34.4975 Q1654.42 32.067 1654.42 27.5299 Q1654.42 22.8714 1651.1 20.4004 Q1647.82 17.8888 1641.66 17.8888 Q1638.3 17.8888 1634.45 18.618 Q1630.6 19.3471 1625.98 20.8865 L1625.98 13.5948 Q1630.64 12.2985 1634.69 11.6504 Q1638.78 11.0023 1642.39 11.0023 Q1651.71 11.0023 1657.13 15.2557 Q1662.56 19.4686 1662.56 26.6793 Q1662.56 31.7024 1659.69 35.1862 Q1656.81 38.6294 1651.5 39.9662 Z" fill="#000000" fill-rule="nonzero" fill-opacity="1" /><path clip-path="url(#clip940)" d="M1679.58 12.096 L1711.7 12.096 L1711.7 18.9825 L1687.07 18.9825 L1687.07 33.8088 Q1688.85 33.2012 1690.63 32.9176 Q1692.42 32.5936 1694.2 32.5936 Q1704.33 32.5936 1710.24 38.1433 Q1716.16 43.6931 1716.16 53.1722 Q1716.16 62.9348 1710.08 68.3631 Q1704 73.7508 1692.94 73.7508 Q1689.14 73.7508 1685.17 73.1026 Q1681.24 72.4545 1677.02 71.1582 L1677.02 62.9348 Q1680.67 64.9198 1684.56 65.892 Q1688.45 66.8642 1692.78 66.8642 Q1699.79 66.8642 1703.88 63.1779 Q1707.97 59.4916 1707.97 53.1722 Q1707.97 46.8528 1703.88 43.1664 Q1699.79 39.4801 1692.78 39.4801 Q1689.5 39.4801 1686.22 40.2093 Q1682.98 40.9384 1679.58 42.4778 L1679.58 12.096 Z" fill="#000000" fill-rule="nonzero" fill-opacity="1" /><path clip-path="url(#clip940)" d="M1739.33 65.6895 L1767.89 65.6895 L1767.89 72.576 L1729.48 72.576 L1729.48 65.6895 Q1734.14 60.8689 1742.16 52.7671 Q1750.22 44.6248 1752.29 42.2752 Q1756.22 37.8598 1757.76 34.8216 Q1759.34 31.7429 1759.34 28.7857 Q1759.34 23.9651 1755.94 20.927 Q1752.57 17.8888 1747.14 17.8888 Q1743.3 17.8888 1739 19.2256 Q1734.75 20.5624 1729.89 23.2765 L1729.89 15.0127 Q1734.83 13.0277 1739.12 12.015 Q1743.42 11.0023 1746.98 11.0023 Q1756.38 11.0023 1761.97 15.7013 Q1767.56 20.4004 1767.56 28.2591 Q1767.56 31.9859 1766.14 35.3482 Q1764.77 38.6699 1761.08 43.2069 Q1760.07 44.3817 1754.64 50.0125 Q1749.21 55.6027 1739.33 65.6895 Z" fill="#000000" fill-rule="nonzero" fill-opacity="1" /><path clip-path="url(#clip940)" d="M1810.38 27.2059 L1817.83 27.2059 L1817.83 72.576 L1810.38 72.576 L1810.38 27.2059 M1810.38 9.54393 L1817.83 9.54393 L1817.83 18.9825 L1810.38 18.9825 L1810.38 9.54393 Z" fill="#000000" fill-rule="nonzero" fill-opacity="1" /><path clip-path="url(#clip940)" d="M1840.8 14.324 L1840.8 27.2059 L1856.15 27.2059 L1856.15 32.9987 L1840.8 32.9987 L1840.8 57.6282 Q1840.8 63.1779 1842.3 64.7578 Q1843.84 66.3376 1848.5 66.3376 L1856.15 66.3376 L1856.15 72.576 L1848.5 72.576 Q1839.87 72.576 1836.59 69.3758 Q1833.31 66.1351 1833.31 57.6282 L1833.31 32.9987 L1827.84 32.9987 L1827.84 27.2059 L1833.31 27.2059 L1833.31 14.324 L1840.8 14.324 Z" fill="#000000" fill-rule="nonzero" fill-opacity="1" /><path clip-path="url(#clip940)" d="M1904.77 48.0275 L1904.77 51.6733 L1870.49 51.6733 Q1870.98 59.3701 1875.11 63.421 Q1879.29 67.4314 1886.7 67.4314 Q1890.99 67.4314 1895 66.3781 Q1899.05 65.3249 1903.02 63.2184 L1903.02 70.267 Q1899.01 71.9684 1894.8 72.8596 Q1890.59 73.7508 1886.25 73.7508 Q1875.4 73.7508 1869.04 67.4314 Q1862.72 61.1119 1862.72 50.3365 Q1862.72 39.1965 1868.71 32.6746 Q1874.75 26.1121 1884.96 26.1121 Q1894.11 26.1121 1899.42 32.0264 Q1904.77 37.9003 1904.77 48.0275 M1897.31 45.84 Q1897.23 39.7232 1893.87 36.0774 Q1890.55 32.4315 1885.04 32.4315 Q1878.8 32.4315 1875.03 35.9558 Q1871.31 39.4801 1870.74 45.8805 L1897.31 45.84 Z" fill="#000000" fill-rule="nonzero" fill-opacity="1" /><path clip-path="url(#clip940)" d="M1943.29 34.1734 Q1942.03 33.4443 1940.54 33.1202 Q1939.08 32.7556 1937.29 32.7556 Q1930.97 32.7556 1927.57 36.8875 Q1924.21 40.9789 1924.21 48.6757 L1924.21 72.576 L1916.72 72.576 L1916.72 27.2059 L1924.21 27.2059 L1924.21 34.2544 Q1926.56 30.1225 1930.33 28.1376 Q1934.09 26.1121 1939.48 26.1121 Q1940.25 26.1121 1941.18 26.2337 Q1942.11 26.3147 1943.25 26.5172 L1943.29 34.1734 Z" fill="#000000" fill-rule="nonzero" fill-opacity="1" /><path clip-path="url(#clip940)" d="M1971.73 49.7694 Q1962.69 49.7694 1959.21 51.8354 Q1955.73 53.9013 1955.73 58.8839 Q1955.73 62.8538 1958.32 65.2034 Q1960.95 67.5124 1965.45 67.5124 Q1971.65 67.5124 1975.37 63.1374 Q1979.14 58.7219 1979.14 51.4303 L1979.14 49.7694 L1971.73 49.7694 M1986.59 46.6907 L1986.59 72.576 L1979.14 72.576 L1979.14 65.6895 Q1976.59 69.8214 1972.78 71.8063 Q1968.97 73.7508 1963.46 73.7508 Q1956.5 73.7508 1952.36 69.8619 Q1948.27 65.9325 1948.27 59.3701 Q1948.27 51.7138 1953.38 47.825 Q1958.52 43.9361 1968.69 43.9361 L1979.14 43.9361 L1979.14 43.2069 Q1979.14 38.0623 1975.74 35.2672 Q1972.38 32.4315 1966.26 32.4315 Q1962.37 32.4315 1958.68 33.3632 Q1955 34.295 1951.59 36.1584 L1951.59 29.2718 Q1955.69 27.692 1959.53 26.9223 Q1963.38 26.1121 1967.03 26.1121 Q1976.87 26.1121 1981.73 31.2163 Q1986.59 36.3204 1986.59 46.6907 Z" fill="#000000" fill-rule="nonzero" fill-opacity="1" /><path clip-path="url(#clip940)" d="M2009.32 14.324 L2009.32 27.2059 L2024.67 27.2059 L2024.67 32.9987 L2009.32 32.9987 L2009.32 57.6282 Q2009.32 63.1779 2010.82 64.7578 Q2012.36 66.3376 2017.02 66.3376 L2024.67 66.3376 L2024.67 72.576 L2017.02 72.576 Q2008.39 72.576 2005.11 69.3758 Q2001.83 66.1351 2001.83 57.6282 L2001.83 32.9987 L1996.36 32.9987 L1996.36 27.2059 L2001.83 27.2059 L2001.83 14.324 L2009.32 14.324 Z" fill="#000000" fill-rule="nonzero" fill-opacity="1" /><path clip-path="url(#clip940)" d="M2034.48 27.2059 L2041.93 27.2059 L2041.93 72.576 L2034.48 72.576 L2034.48 27.2059 M2034.48 9.54393 L2041.93 9.54393 L2041.93 18.9825 L2034.48 18.9825 L2034.48 9.54393 Z" fill="#000000" fill-rule="nonzero" fill-opacity="1" /><path clip-path="url(#clip940)" d="M2075.11 32.4315 Q2069.11 32.4315 2065.63 37.1306 Q2062.14 41.7891 2062.14 49.9314 Q2062.14 58.0738 2065.59 62.7728 Q2069.07 67.4314 2075.11 67.4314 Q2081.06 67.4314 2084.54 62.7323 Q2088.03 58.0333 2088.03 49.9314 Q2088.03 41.8701 2084.54 37.1711 Q2081.06 32.4315 2075.11 32.4315 M2075.11 26.1121 Q2084.83 26.1121 2090.38 32.4315 Q2095.93 38.7509 2095.93 49.9314 Q2095.93 61.0714 2090.38 67.4314 Q2084.83 73.7508 2075.11 73.7508 Q2065.34 73.7508 2059.79 67.4314 Q2054.28 61.0714 2054.28 49.9314 Q2054.28 38.7509 2059.79 32.4315 Q2065.34 26.1121 2075.11 26.1121 Z" fill="#000000" fill-rule="nonzero" fill-opacity="1" /><path clip-path="url(#clip940)" d="M2146 45.1919 L2146 72.576 L2138.54 72.576 L2138.54 45.4349 Q2138.54 38.994 2136.03 35.7938 Q2133.52 32.5936 2128.5 32.5936 Q2122.46 32.5936 2118.98 36.4419 Q2115.49 40.2903 2115.49 46.9338 L2115.49 72.576 L2108 72.576 L2108 27.2059 L2115.49 27.2059 L2115.49 34.2544 Q2118.17 30.163 2121.77 28.1376 Q2125.42 26.1121 2130.16 26.1121 Q2137.98 26.1121 2141.99 30.9732 Q2146 35.7938 2146 45.1919 Z" fill="#000000" fill-rule="nonzero" fill-opacity="1" /><path clip-path="url(#clip940)" d="M2188.37 12.096 L2220.49 12.096 L2220.49 18.9825 L2195.86 18.9825 L2195.86 33.8088 Q2197.65 33.2012 2199.43 32.9176 Q2201.21 32.5936 2202.99 32.5936 Q2213.12 32.5936 2219.03 38.1433 Q2224.95 43.6931 2224.95 53.1722 Q2224.95 62.9348 2218.87 68.3631 Q2212.8 73.7508 2201.74 73.7508 Q2197.93 73.7508 2193.96 73.1026 Q2190.03 72.4545 2185.82 71.1582 L2185.82 62.9348 Q2189.46 64.9198 2193.35 65.892 Q2197.24 66.8642 2201.58 66.8642 Q2208.58 66.8642 2212.67 63.1779 Q2216.77 59.4916 2216.77 53.1722 Q2216.77 46.8528 2212.67 43.1664 Q2208.58 39.4801 2201.58 39.4801 Q2198.29 39.4801 2195.01 40.2093 Q2191.77 40.9384 2188.37 42.4778 L2188.37 12.096 Z" fill="#000000" fill-rule="nonzero" fill-opacity="1" /><polyline clip-path="url(#clip942)" style="stroke:#009af9; stroke-linecap:round; stroke-linejoin:round; stroke-width:4; stroke-opacity:1; fill:none" points="315.545,1386.4 317.525,1322.89 319.505,1320.55 321.484,1319.08 323.464,1317.95 325.444,1317.67 327.424,1309.19 329.404,1307.08 331.384,1304.91 333.364,1301.82 335.343,1300 337.323,1299.93 339.303,1298.8 341.283,1295.1 343.263,1292.84 345.243,1292.79 347.223,1291.5 349.202,1289.62 351.182,1289.5 353.162,1289.07 355.142,1289.07 357.122,1283.92 359.102,1283.19 361.082,1280.55 363.061,1279.63 365.041,1277.83 367.021,1277.3 369.001,1276.16 370.981,1274.95 372.961,1274.94 374.941,1272.58 376.92,1271.22 378.9,1271.04 380.88,1269.16 382.86,1265.43 384.84,1264.38 386.82,1259.22 388.8,1256.29 390.779,1256 392.759,1255.91 394.739,1253.71 396.719,1252.47 398.699,1251.45 400.679,1251.34 402.659,1249.43 404.638,1248.94 406.618,1247.28 408.598,1245.41 410.578,1245.32 412.558,1245.32 414.538,1244.82 416.517,1244.54 418.497,1244.52 420.477,1240.1 422.457,1239.89 424.437,1239.75 426.417,1239.59 428.397,1238.97 430.376,1237.27 432.356,1237.18 434.336,1234.88 436.316,1234.73 438.296,1234.11 440.276,1233.58 442.256,1232.3 444.235,1232.29 446.215,1232.09 448.195,1232.08 450.175,1231.96 452.155,1231.72 454.135,1231.62 456.115,1231.62 458.094,1231.33 460.074,1230.71 462.054,1230.22 464.034,1230 466.014,1229.56 467.994,1229.37 469.974,1228.55 471.953,1228.46 473.933,1227.7 475.913,1227.49 477.893,1226.96 479.873,1226.35 481.853,1225.77 483.833,1224.46 485.812,1223.87 487.792,1223.54 489.772,1223.44 491.752,1223.42 493.732,1223.34 495.712,1223 497.692,1222.83 499.671,1222.09 501.651,1220.5 503.631,1219.64 505.611,1219.59 507.591,1219.58 509.571,1219.56 511.551,1219.25 513.53,1218.86 515.51,1217.81 517.49,1216.78 519.47,1215.13 521.45,1215.08 523.43,1214.71 525.409,1214.65 527.389,1212.64 529.369,1212.45 531.349,1212.36 533.329,1211.29 535.309,1210.99 537.289,1210.65 539.268,1210.33 541.248,1209.83 543.228,1209.58 545.208,1208.92 547.188,1207.16 549.168,1206.93 551.148,1206.51 553.127,1206.4 555.107,1205.99 557.087,1205.71 559.067,1205.4 561.047,1205.33 563.027,1205.29 565.007,1203.87 566.986,1203.69 568.966,1202.94 570.946,1200.48 572.926,1200.23 574.906,1200.05 576.886,1199.48 578.866,1198.03 580.845,1197.87 582.825,1197.3 584.805,1196.18 586.785,1195.47 588.765,1194.44 590.745,1194.22 592.725,1193.55 594.704,1192.77 596.684,1192.71 598.664,1192.56 600.644,1191.88 602.624,1191.42 604.604,1191.3 606.584,1191.19 608.563,1191.11 610.543,1190.91 612.523,1190.91 614.503,1190.6 616.483,1190.42 618.463,1190.34 620.443,1189.93 622.422,1189.54 624.402,1188.71 626.382,1188.19 628.362,1187.86 630.342,1187.77 632.322,1185.81 634.301,1185.27 636.281,1184.42 638.261,1184.35 640.241,1183.26 642.221,1180.55 644.201,1180.27 646.181,1180.25 648.16,1179.28 650.14,1179.18 652.12,1179.17 654.1,1178.75 656.08,1178.55 658.06,1177.87 660.04,1177.77 662.019,1176.84 663.999,1174.5 665.979,1173.82 667.959,1173.7 669.939,1173.18 671.919,1172.95 673.899,1172.82 675.878,1172.14 677.858,1172.06 679.838,1171.97 681.818,1171.92 683.798,1171.25 685.778,1170.77 687.758,1170.25 689.737,1169.78 691.717,1169.21 693.697,1168.68 695.677,1168.53 697.657,1167.67 699.637,1167.51 701.617,1167.06 703.596,1166.57 705.576,1166.03 707.556,1165.72 709.536,1165.63 711.516,1165.19 713.496,1164.86 715.476,1164.46 717.455,1164.45 719.435,1164.33 721.415,1164.3 723.395,1163.93 725.375,1163.7 727.355,1163.43 729.335,1162.97 731.314,1162.92 733.294,1162.57 735.274,1162.31 737.254,1162.26 739.234,1160.88 741.214,1160.49 743.194,1160.42 745.173,1160.25 747.153,1159.85 749.133,1159.46 751.113,1159.07 753.093,1158.77 755.073,1158.26 757.052,1158.22 759.032,1157.96 761.012,1157.53 762.992,1157.25 764.972,1157.16 766.952,1156.97 768.932,1156.81 770.911,1156.7 772.891,1155.37 774.871,1154.43 776.851,1154.42 778.831,1154.41 780.811,1153.62 782.791,1153.47 784.77,1153.35 786.75,1153.09 788.73,1152.47 790.71,1151.96 792.69,1151.81 794.67,1150.8 796.65,1149.87 798.629,1149.82 800.609,1149.79 802.589,1149.5 804.569,1148.81 806.549,1148.73 808.529,1148.21 810.509,1148.21 812.488,1147.9 814.468,1147.46 816.448,1147.02 818.428,1146.99 820.408,1146.78 822.388,1146.62 824.368,1146.39 826.347,1145.28 828.327,1144.83 830.307,1144.45 832.287,1144.3 834.267,1143.81 836.247,1143.8 838.227,1143.79 840.206,1143.7 842.186,1143.53 844.166,1143.23 846.146,1143.16 848.126,1142.78 850.106,1142.55 852.086,1142.52 854.065,1142.34 856.045,1142.26 858.025,1141.8 860.005,1141.27 861.985,1141.08 863.965,1140.24 865.944,1139.65 867.924,1139.55 869.904,1138.75 871.884,1138.71 873.864,1138.7 875.844,1138.59 877.824,1138.51 879.803,1138.28 881.783,1138.17 883.763,1138.14 885.743,1137.02 887.723,1136.96 889.703,1136.19 891.683,1135.91 893.662,1135.89 895.642,1135.3 897.622,1134.9 899.602,1134.66 901.582,1134.62 903.562,1134.61 905.542,1133.86 907.521,1133.34 909.501,1131.67 911.481,1131.32 913.461,1130.43 915.441,1130.04 917.421,1129.99 919.401,1129.56 921.38,1129.39 923.36,1129.38 925.34,1129.36 927.32,1129.13 929.3,1128.05 931.28,1127.79 933.26,1127.51 935.239,1127.38 937.219,1127.35 939.199,1127.32 941.179,1126.98 943.159,1125.88 945.139,1125.87 947.119,1125.62 949.098,1125.54 951.078,1125.08 953.058,1124.5 955.038,1124.43 957.018,1124.15 958.998,1123.7 960.978,1123.64 962.957,1123.62 964.937,1122.89 966.917,1122.82 968.897,1122.58 970.877,1122.45 972.857,1121.81 974.836,1120.95 976.816,1120.82 978.796,1120.37 980.776,1120.15 982.756,1119.73 984.736,1119.36 986.716,1118.03 988.695,1117.53 990.675,1117.29 992.655,1116.97 994.635,1116.95 996.615,1116.87 998.595,1116.56 1000.57,1116.36 1002.55,1116.31 1004.53,1116.02 1006.51,1115.92 1008.49,1115.59 1010.47,1114.97 1012.45,1114.61 1014.43,1114.01 1016.41,1113.99 1018.39,1113.98 1020.37,1113.57 1022.35,1112.54 1024.33,1112.41 1026.31,1112.17 1028.29,1111.79 1030.27,1111.72 1032.25,1111.34 1034.23,1111.1 1036.21,1110.88 1038.19,1110.17 1040.17,1108.93 1042.15,1108.8 1044.13,1107.9 1046.11,1107.86 1048.09,1107.33 1050.07,1107.23 1052.05,1106.45 1054.03,1106.32 1056.01,1105.88 1057.99,1105.86 1059.97,1105.72 1061.95,1105.18 1063.93,1105.1 1065.91,1104.83 1067.89,1103.89 1069.87,1103.68 1071.85,1103.14 1073.83,1102.01 1075.81,1101.78 1077.79,1101.74 1079.77,1101.66 1081.75,1101.43 1083.73,1100.87 1085.71,1099.76 1087.69,1099.33 1089.67,1098.36 1091.65,1097.6 1093.63,1097.44 1095.61,1097.13 1097.59,1097.12 1099.57,1096.76 1101.55,1096.2 1103.53,1096 1105.51,1095.22 1107.49,1095.2 1109.47,1094.44 1111.45,1093.85 1113.43,1093.69 1115.41,1093.5 1117.39,1093.08 1119.37,1093.04 1121.35,1092.57 1123.33,1092.53 1125.31,1092.43 1127.29,1091.88 1129.27,1091.78 1131.25,1091.72 1133.22,1091.51 1135.2,1089.83 1137.18,1089.76 1139.16,1089.37 1141.14,1088.11 1143.12,1087.29 1145.1,1087.18 1147.08,1085.27 1149.06,1085.25 1151.04,1085.18 1153.02,1085.02 1155,1084.85 1156.98,1084.15 1158.96,1081.83 1160.94,1081.51 1162.92,1081.41 1164.9,1081.35 1166.88,1081.33 1168.86,1081.29 1170.84,1080 1172.82,1079.93 1174.8,1078.91 1176.78,1078.08 1178.76,1077.38 1180.74,1076.62 1182.72,1076.39 1184.7,1076.28 1186.68,1076.02 1188.66,1075.34 1190.64,1074.5 1192.62,1074.32 1194.6,1073.33 1196.58,1072.51 1198.56,1072.48 1200.54,1072.44 1202.52,1072.37 1204.5,1070.68 1206.48,1070.57 1208.46,1070.16 1210.44,1069.67 1212.42,1066.74 1214.4,1065.67 1216.38,1065.3 1218.36,1063.56 1220.34,1063.54 1222.32,1062.14 1224.3,1061.42 1226.28,1061.15 1228.26,1059.82 1230.24,1056.9 1232.22,1055.42 1234.2,1055.35 1236.18,1054.49 1238.16,1054.07 1240.14,1052.97 1242.12,1052.65 1244.1,1052.56 1246.08,1052.36 1248.06,1051.6 1250.04,1051.59 1252.02,1050.74 1254,1049.99 1255.98,1048.89 1257.96,1048.88 1259.94,1048.74 1261.92,1047.66 1263.9,1047.42 1265.88,1047.19 1267.85,1046.94 1269.83,1041.67 1271.81,1040.63 1273.79,1039.96 1275.77,1038.84 1277.75,1037.75 1279.73,1037.14 1281.71,1036.58 1283.69,1036.3 1285.67,1036.14 1287.65,1035.8 1289.63,1032.72 1291.61,1032.59 1293.59,1030.49 1295.57,1027.73 1297.55,1027.33 1299.53,1025.9 1301.51,1025.73 1303.49,1025.41 1305.47,1025.21 1307.45,1023.87 1309.43,1023.12 1311.41,1023.11 1313.39,1023.04 1315.37,1022.13 1317.35,1021.86 1319.33,1021.1 1321.31,1019.67 1323.29,1018.67 1325.27,1017.49 1327.25,1017.01 1329.23,1015.15 1331.21,1015.05 1333.19,1014.24 1335.17,1013.56 1337.15,1011.25 1339.13,1010.22 1341.11,1009.93 1343.09,1009.69 1345.07,1008.12 1347.05,1004.76 1349.03,1003.79 1351.01,1002.46 1352.99,1002.37 1354.97,1001.11 1356.95,1001.06 1358.93,1000.05 1360.91,997.228 1362.89,995.375 1364.87,993.237 1366.85,992.026 1368.83,989.228 1370.81,986.398 1372.79,980.93 1374.77,979.853 1376.75,979.554 1378.73,978.361 1380.71,975.056 1382.69,974.597 1384.67,973.915 1386.65,973.416 1388.63,972.839 1390.61,972.296 1392.59,971.664 1394.57,971.548 1396.55,969.731 1398.53,969.367 1400.51,968.725 1402.49,967.603 1404.46,966.263 1406.44,965.51 1408.42,965.434 1410.4,964.893 1412.38,961.737 1414.36,961.144 1416.34,960.698 1418.32,959.316 1420.3,959.068 1422.28,958.816 1424.26,958.346 1426.24,957.643 1428.22,957.214 1430.2,957.139 1432.18,956.84 1434.16,956.196 1436.14,955.622 1438.12,955.09 1440.1,953.958 1442.08,952.917 1444.06,952.525 1446.04,951.771 1448.02,950.175 1450,949.18 1451.98,949.043 1453.96,948.789 1455.94,948.351 1457.92,947.396 1459.9,946.099 1461.88,944.357 1463.86,942.407 1465.84,942.334 1467.82,938.082 1469.8,937.943 1471.78,937.667 1473.76,937.355 1475.74,937.171 1477.72,937.144 1479.7,936.377 1481.68,935.193 1483.66,934.273 1485.64,933.266 1487.62,931.538 1489.6,931.516 1491.58,931.356 1493.56,931.077 1495.54,929.416 1497.52,929.236 1499.5,928.764 1501.48,927.69 1503.46,927.076 1505.44,926.775 1507.42,926.64 1509.4,925.753 1511.38,925.515 1513.36,925.254 1515.34,925.053 1517.32,924.588 1519.3,924.459 1521.28,924.349 1523.26,923.323 1525.24,922.521 1527.22,922.391 1529.2,921.129 1531.18,920.911 1533.16,919.479 1535.14,919.194 1537.12,918.4 1539.1,918.012 1541.07,915.901 1543.05,915.73 1545.03,914.466 1547.01,914.032 1548.99,912.439 1550.97,909.986 1552.95,909.173 1554.93,907.98 1556.91,907.883 1558.89,906.483 1560.87,905.021 1562.85,902.06 1564.83,900.738 1566.81,900.736 1568.79,900.316 1570.77,899.517 1572.75,899.43 1574.73,898.754 1576.71,898.215 1578.69,895.5 1580.67,894.922 1582.65,894.811 1584.63,892.872 1586.61,891.667 1588.59,891.624 1590.57,890.449 1592.55,889.865 1594.53,889.532 1596.51,887.38 1598.49,884.737 1600.47,884.672 1602.45,884.324 1604.43,883.389 1606.41,882.559 1608.39,882.076 1610.37,881.788 1612.35,880.984 1614.33,880.781 1616.31,880.733 1618.29,879.899 1620.27,878.35 1622.25,876.185 1624.23,874.784 1626.21,874.276 1628.19,873.66 1630.17,872.776 1632.15,870.222 1634.13,866.827 1636.11,866.423 1638.09,866.087 1640.07,865.831 1642.05,865.413 1644.03,865.324 1646.01,865.029 1647.99,862.845 1649.97,861.642 1651.95,859.321 1653.93,859.238 1655.91,859.009 1657.89,858.377 1659.87,857.436 1661.85,857.147 1663.83,856.702 1665.81,855.343 1667.79,852.913 1669.77,852.212 1671.75,852.114 1673.73,849.941 1675.71,849.023 1677.68,847.237 1679.66,847.016 1681.64,846.415 1683.62,846.014 1685.6,845.706 1687.58,843.9 1689.56,843.38 1691.54,843.305 1693.52,843.088 1695.5,842.749 1697.48,841.931 1699.46,841.613 1701.44,840.735 1703.42,840.638 1705.4,838.906 1707.38,837.193 1709.36,836.375 1711.34,836.189 1713.32,835.049 1715.3,829.818 1717.28,829.398 1719.26,825.049 1721.24,824.185 1723.22,823.135 1725.2,817.57 1727.18,815.966 1729.16,813.134 1731.14,812.336 1733.12,811.868 1735.1,811.484 1737.08,811.047 1739.06,810.007 1741.04,806.387 1743.02,806.282 1745,805.261 1746.98,805.183 1748.96,804.548 1750.94,802.239 1752.92,801.627 1754.9,799.241 1756.88,796.111 1758.86,792.673 1760.84,785.106 1762.82,784.003 1764.8,783.067 1766.78,782.183 1768.76,780.762 1770.74,780.472 1772.72,778.568 1774.7,778.441 1776.68,773.677 1778.66,768.614 1780.64,766.04 1782.62,753.861 1784.6,749.371 1786.58,748.574 1788.56,744.399 1790.54,737.603 1792.52,734.913 1794.5,734.746 1796.48,710.747 1798.46,709.316 1800.44,659.326 1802.42,625.841 1804.4,564.618 1806.38,563.346 1808.36,554.079 1810.34,547.905 1812.31,495.666 1814.29,481.819 1816.27,481.219 1818.25,444.522 1820.23,439.49 1822.21,436.617 1824.19,428.37 1826.17,426.617 1828.15,420.072 1830.13,419.588 1832.11,409.208 1834.09,381.497 1836.07,377.739 1838.05,376.264 1840.03,372.18 1842.01,368.629 1843.99,361.386 1845.97,360.518 1847.95,358.776 1849.93,355.52 1851.91,354.33 1853.89,354.044 1855.87,353.392 1857.85,350.148 1859.83,350.111 1861.81,338.485 1863.79,338.129 1865.77,337.794 1867.75,336.456 1869.73,335.693 1871.71,333.967 1873.69,331.748 1875.67,329.165 1877.65,323.539 1879.63,319.086 1881.61,315.46 1883.59,315.37 1885.57,313.353 1887.55,312.468 1889.53,312.014 1891.51,309.268 1893.49,307.353 1895.47,306.585 1897.45,305.825 1899.43,304.279 1901.41,301.052 1903.39,300.114 1905.37,298.973 1907.35,297.429 1909.33,296.617 1911.31,295.99 1913.29,290.523 1915.27,288.258 1917.25,287.708 1919.23,286.383 1921.21,285.826 1923.19,285.313 1925.17,281.72 1927.15,281.612 1929.13,280.942 1931.11,279.029 1933.09,278.723 1935.07,278.719 1937.05,275.518 1939.03,272.103 1941.01,270.828 1942.99,269.443 1944.97,269.438 1946.95,268.859 1948.92,268.427 1950.9,268.005 1952.88,266.736 1954.86,265.535 1956.84,264.519 1958.82,262.754 1960.8,261.84 1962.78,260.437 1964.76,260.223 1966.74,258.382 1968.72,256.401 1970.7,256.324 1972.68,254.947 1974.66,252.37 1976.64,252.133 1978.62,251.926 1980.6,251.641 1982.58,251.184 1984.56,250.878 1986.54,250.489 1988.52,249.876 1990.5,248.981 1992.48,247.969 1994.46,247.875 1996.44,247.309 1998.42,246.97 2000.4,245.554 2002.38,244.73 2004.36,244.231 2006.34,244.045 2008.32,243.087 2010.3,242.803 2012.28,241.782 2014.26,241.135 2016.24,241.007 2018.22,239.416 2020.2,238.967 2022.18,238.609 2024.16,238.255 2026.14,237.925 2028.12,237.859 2030.1,237.771 2032.08,237.445 2034.06,236.954 2036.04,236.872 2038.02,236.588 2040,236.511 2041.98,236.454 2043.96,235.685 2045.94,235.057 2047.92,234.319 2049.9,233.271 2051.88,232.57 2053.86,232.522 2055.84,232.28 2057.82,231.775 2059.8,231.726 2061.78,230.621 2063.76,230.581 2065.74,230.178 2067.72,230.081 2069.7,229.849 2071.68,229.479 2073.66,229.057 2075.64,228.928 2077.62,227.835 2079.6,227.533 2081.58,227.397 2083.56,226.267 2085.53,224.62 2087.51,224.348 2089.49,223.069 2091.47,222.791 2093.45,222.675 2095.43,220.016 2097.41,219.545 2099.39,219.446 2101.37,217.559 2103.35,217.494 2105.33,217.015 2107.31,216.574 2109.29,216.374 2111.27,215.537 2113.25,214.588 2115.23,214.497 2117.21,214.353 2119.19,213.49 2121.17,212.667 2123.15,211.689 2125.13,211.144 2127.11,210.604 2129.09,210.241 2131.07,209.504 2133.05,207.912 2135.03,207.066 2137.01,207.04 2138.99,206.251 2140.97,205.775 2142.95,204.654 2144.93,204.594 2146.91,204.574 2148.89,204.378 2150.87,204.059 2152.85,204.041 2154.83,203.498 2156.81,203.218 2158.79,202.699 2160.77,201.993 2162.75,201.705 2164.73,201.35 2166.71,199.704 2168.69,197.518 2170.67,197.515 2172.65,197.4 2174.63,197.371 2176.61,197.301 2178.59,197.029 2180.57,195.759 2182.55,195.429 2184.53,195.216 2186.51,195.056 2188.49,194.863 2190.47,193.922 2192.45,193.257 2194.43,193.068 2196.41,192.861 2198.39,192.455 2200.37,191.768 2202.35,191.479 2204.33,191.323 2206.31,191.321 2208.29,189.692 2210.27,189.648 2212.25,189.562 2214.23,189.298 2216.21,188.952 2218.19,188.074 2220.17,186.585 2222.14,186.49 2224.12,186.449 2226.1,184.843 2228.08,184.782 2230.06,184.572 2232.04,184.315 2234.02,184.118 2236,183.618 2237.98,182.641 2239.96,182.548 2241.94,182.125 2243.92,181.361 2245.9,180.503 2247.88,180.498 2249.86,179.796 2251.84,179.463 2253.82,178.871 2255.8,178.457 2257.78,177.575 2259.76,177.155 2261.74,176.527 2263.72,175.434 2265.7,174.563 2267.68,174.418 2269.66,174.194 2271.64,171.238 2273.62,170.612 2275.6,170.489 2277.58,170.275 2279.56,170.075 2281.54,169.845 2283.52,166.773 2285.5,166.572 2287.48,165.812 2289.46,160.903 2291.44,160.611 2293.42,160.256 "/>
<path clip-path="url(#clip940)" d="M326.094 270.476 L755.354 270.476 L755.354 166.796 L326.094 166.796  Z" fill="#ffffff" fill-rule="evenodd" fill-opacity="1"/>
<polyline clip-path="url(#clip940)" style="stroke:#000000; stroke-linecap:round; stroke-linejoin:round; stroke-width:4; stroke-opacity:1; fill:none" points="326.094,270.476 755.354,270.476 755.354,166.796 326.094,166.796 326.094,270.476 "/>
<polyline clip-path="url(#clip940)" style="stroke:#009af9; stroke-linecap:round; stroke-linejoin:round; stroke-width:4; stroke-opacity:1; fill:none" points="349.389,218.636 489.158,218.636 "/>
<path clip-path="url(#clip940)" d="M534.699 202.49 L534.699 207.05 Q532.037 205.777 529.675 205.152 Q527.314 204.527 525.115 204.527 Q521.296 204.527 519.213 206.008 Q517.152 207.49 517.152 210.221 Q517.152 212.513 518.518 213.694 Q519.907 214.851 523.75 215.569 L526.574 216.147 Q531.805 217.143 534.282 219.666 Q536.782 222.166 536.782 226.379 Q536.782 231.402 533.402 233.994 Q530.046 236.587 523.541 236.587 Q521.088 236.587 518.31 236.031 Q515.555 235.476 512.592 234.388 L512.592 229.573 Q515.439 231.17 518.171 231.981 Q520.902 232.791 523.541 232.791 Q527.546 232.791 529.722 231.217 Q531.898 229.643 531.898 226.726 Q531.898 224.18 530.324 222.744 Q528.773 221.309 525.208 220.592 L522.361 220.036 Q517.129 218.995 514.791 216.772 Q512.453 214.55 512.453 210.592 Q512.453 206.008 515.671 203.37 Q518.912 200.731 524.583 200.731 Q527.013 200.731 529.537 201.171 Q532.06 201.61 534.699 202.49 Z" fill="#000000" fill-rule="nonzero" fill-opacity="1" /><path clip-path="url(#clip940)" d="M543.888 209.99 L548.148 209.99 L548.148 235.916 L543.888 235.916 L543.888 209.99 M543.888 199.897 L548.148 199.897 L548.148 205.291 L543.888 205.291 L543.888 199.897 Z" fill="#000000" fill-rule="nonzero" fill-opacity="1" /><path clip-path="url(#clip940)" d="M577.245 214.967 Q578.842 212.096 581.064 210.731 Q583.286 209.365 586.296 209.365 Q590.346 209.365 592.545 212.212 Q594.745 215.036 594.745 220.268 L594.745 235.916 L590.462 235.916 L590.462 220.407 Q590.462 216.68 589.143 214.874 Q587.823 213.069 585.115 213.069 Q581.805 213.069 579.884 215.268 Q577.962 217.467 577.962 221.263 L577.962 235.916 L573.68 235.916 L573.68 220.407 Q573.68 216.657 572.36 214.874 Q571.041 213.069 568.286 213.069 Q565.022 213.069 563.101 215.291 Q561.18 217.49 561.18 221.263 L561.18 235.916 L556.898 235.916 L556.898 209.99 L561.18 209.99 L561.18 214.018 Q562.638 211.633 564.675 210.499 Q566.712 209.365 569.513 209.365 Q572.337 209.365 574.305 210.8 Q576.296 212.235 577.245 214.967 Z" fill="#000000" fill-rule="nonzero" fill-opacity="1" /><path clip-path="url(#clip940)" d="M603.24 209.99 L607.499 209.99 L607.499 235.916 L603.24 235.916 L603.24 209.99 M603.24 199.897 L607.499 199.897 L607.499 205.291 L603.24 205.291 L603.24 199.897 Z" fill="#000000" fill-rule="nonzero" fill-opacity="1" /><path clip-path="url(#clip940)" d="M616.411 199.897 L620.67 199.897 L620.67 235.916 L616.411 235.916 L616.411 199.897 Z" fill="#000000" fill-rule="nonzero" fill-opacity="1" /><path clip-path="url(#clip940)" d="M641.365 222.883 Q636.203 222.883 634.212 224.064 Q632.221 225.244 632.221 228.092 Q632.221 230.36 633.703 231.703 Q635.207 233.022 637.777 233.022 Q641.318 233.022 643.448 230.522 Q645.601 227.999 645.601 223.832 L645.601 222.883 L641.365 222.883 M649.86 221.124 L649.86 235.916 L645.601 235.916 L645.601 231.981 Q644.142 234.342 641.967 235.476 Q639.791 236.587 636.642 236.587 Q632.661 236.587 630.3 234.365 Q627.962 232.119 627.962 228.369 Q627.962 223.994 630.879 221.772 Q633.818 219.55 639.629 219.55 L645.601 219.55 L645.601 219.133 Q645.601 216.194 643.656 214.596 Q641.735 212.976 638.24 212.976 Q636.017 212.976 633.911 213.508 Q631.805 214.041 629.86 215.106 L629.86 211.17 Q632.198 210.268 634.397 209.828 Q636.596 209.365 638.68 209.365 Q644.304 209.365 647.082 212.282 Q649.86 215.198 649.86 221.124 Z" fill="#000000" fill-rule="nonzero" fill-opacity="1" /><path clip-path="url(#clip940)" d="M673.656 213.971 Q672.939 213.555 672.082 213.37 Q671.249 213.161 670.23 213.161 Q666.619 213.161 664.675 215.522 Q662.753 217.86 662.753 222.258 L662.753 235.916 L658.471 235.916 L658.471 209.99 L662.753 209.99 L662.753 214.018 Q664.096 211.657 666.249 210.522 Q668.402 209.365 671.48 209.365 Q671.92 209.365 672.452 209.434 Q672.985 209.481 673.633 209.596 L673.656 213.971 Z" fill="#000000" fill-rule="nonzero" fill-opacity="1" /><path clip-path="url(#clip940)" d="M678.124 209.99 L682.383 209.99 L682.383 235.916 L678.124 235.916 L678.124 209.99 M678.124 199.897 L682.383 199.897 L682.383 205.291 L678.124 205.291 L678.124 199.897 Z" fill="#000000" fill-rule="nonzero" fill-opacity="1" /><path clip-path="url(#clip940)" d="M695.508 202.629 L695.508 209.99 L704.281 209.99 L704.281 213.3 L695.508 213.3 L695.508 227.374 Q695.508 230.545 696.364 231.448 Q697.244 232.351 699.906 232.351 L704.281 232.351 L704.281 235.916 L699.906 235.916 Q694.975 235.916 693.101 234.087 Q691.226 232.235 691.226 227.374 L691.226 213.3 L688.101 213.3 L688.101 209.99 L691.226 209.99 L691.226 202.629 L695.508 202.629 Z" fill="#000000" fill-rule="nonzero" fill-opacity="1" /><path clip-path="url(#clip940)" d="M720.67 238.323 Q718.864 242.953 717.151 244.365 Q715.438 245.777 712.568 245.777 L709.165 245.777 L709.165 242.212 L711.665 242.212 Q713.424 242.212 714.397 241.379 Q715.369 240.545 716.549 237.443 L717.313 235.499 L706.827 209.99 L711.341 209.99 L719.443 230.268 L727.545 209.99 L732.059 209.99 L720.67 238.323 Z" fill="#000000" fill-rule="nonzero" fill-opacity="1" /></svg>
