<?xml version="1.0" encoding="utf-8"?>
<svg xmlns="http://www.w3.org/2000/svg" xmlns:xlink="http://www.w3.org/1999/xlink" width="600" height="400" viewBox="0 0 2400 1600">
<defs>
  <clipPath id="clip440">
    <rect x="0" y="0" width="2400" height="1600"/>
  </clipPath>
</defs>
<path clip-path="url(#clip440)" d="M0 1600 L2400 1600 L2400 8.88178e-14 L0 8.88178e-14  Z" fill="#ffffff" fill-rule="evenodd" fill-opacity="1"/>
<defs>
  <clipPath id="clip441">
    <rect x="480" y="0" width="1681" height="1600"/>
  </clipPath>
</defs>
<path clip-path="url(#clip440)" d="M256.209 1423.18 L2352.76 1423.18 L2352.76 123.472 L256.209 123.472  Z" fill="#ffffff" fill-rule="evenodd" fill-opacity="1"/>
<defs>
  <clipPath id="clip442">
    <rect x="256" y="123" width="2098" height="1301"/>
  </clipPath>
</defs>
<polyline clip-path="url(#clip442)" style="stroke:#000000; stroke-linecap:round; stroke-linejoin:round; stroke-width:2; stroke-opacity:0.1; fill:none" points="313.565,1423.18 313.565,123.472 "/>
<polyline clip-path="url(#clip442)" style="stroke:#000000; stroke-linecap:round; stroke-linejoin:round; stroke-width:2; stroke-opacity:0.1; fill:none" points="808.529,1423.18 808.529,123.472 "/>
<polyline clip-path="url(#clip442)" style="stroke:#000000; stroke-linecap:round; stroke-linejoin:round; stroke-width:2; stroke-opacity:0.1; fill:none" points="1303.49,1423.18 1303.49,123.472 "/>
<polyline clip-path="url(#clip442)" style="stroke:#000000; stroke-linecap:round; stroke-linejoin:round; stroke-width:2; stroke-opacity:0.1; fill:none" points="1798.46,1423.18 1798.46,123.472 "/>
<polyline clip-path="url(#clip442)" style="stroke:#000000; stroke-linecap:round; stroke-linejoin:round; stroke-width:2; stroke-opacity:0.1; fill:none" points="2293.42,1423.18 2293.42,123.472 "/>
<polyline clip-path="url(#clip440)" style="stroke:#000000; stroke-linecap:round; stroke-linejoin:round; stroke-width:4; stroke-opacity:1; fill:none" points="256.209,1423.18 2352.76,1423.18 "/>
<polyline clip-path="url(#clip440)" style="stroke:#000000; stroke-linecap:round; stroke-linejoin:round; stroke-width:4; stroke-opacity:1; fill:none" points="313.565,1423.18 313.565,1404.28 "/>
<polyline clip-path="url(#clip440)" style="stroke:#000000; stroke-linecap:round; stroke-linejoin:round; stroke-width:4; stroke-opacity:1; fill:none" points="808.529,1423.18 808.529,1404.28 "/>
<polyline clip-path="url(#clip440)" style="stroke:#000000; stroke-linecap:round; stroke-linejoin:round; stroke-width:4; stroke-opacity:1; fill:none" points="1303.49,1423.18 1303.49,1404.28 "/>
<polyline clip-path="url(#clip440)" style="stroke:#000000; stroke-linecap:round; stroke-linejoin:round; stroke-width:4; stroke-opacity:1; fill:none" points="1798.46,1423.18 1798.46,1404.28 "/>
<polyline clip-path="url(#clip440)" style="stroke:#000000; stroke-linecap:round; stroke-linejoin:round; stroke-width:4; stroke-opacity:1; fill:none" points="2293.42,1423.18 2293.42,1404.28 "/>
<path clip-path="url(#clip440)" d="M313.565 1454.1 Q309.954 1454.1 308.125 1457.66 Q306.32 1461.2 306.32 1468.33 Q306.32 1475.44 308.125 1479.01 Q309.954 1482.55 313.565 1482.55 Q317.199 1482.55 319.005 1479.01 Q320.834 1475.44 320.834 1468.33 Q320.834 1461.2 319.005 1457.66 Q317.199 1454.1 313.565 1454.1 M313.565 1450.39 Q319.375 1450.39 322.431 1455 Q325.509 1459.58 325.509 1468.33 Q325.509 1477.06 322.431 1481.67 Q319.375 1486.25 313.565 1486.25 Q307.755 1486.25 304.676 1481.67 Q301.621 1477.06 301.621 1468.33 Q301.621 1459.58 304.676 1455 Q307.755 1450.39 313.565 1450.39 Z" fill="#000000" fill-rule="nonzero" fill-opacity="1" /><path clip-path="url(#clip440)" d="M772.221 1481.64 L788.54 1481.64 L788.54 1485.58 L766.596 1485.58 L766.596 1481.64 Q769.258 1478.89 773.841 1474.26 Q778.448 1469.61 779.628 1468.27 Q781.874 1465.74 782.753 1464.01 Q783.656 1462.25 783.656 1460.56 Q783.656 1457.8 781.712 1456.07 Q779.79 1454.33 776.689 1454.33 Q774.49 1454.33 772.036 1455.09 Q769.605 1455.86 766.828 1457.41 L766.828 1452.69 Q769.652 1451.55 772.105 1450.97 Q774.559 1450.39 776.596 1450.39 Q781.966 1450.39 785.161 1453.08 Q788.355 1455.77 788.355 1460.26 Q788.355 1462.39 787.545 1464.31 Q786.758 1466.2 784.652 1468.8 Q784.073 1469.47 780.971 1472.69 Q777.869 1475.88 772.221 1481.64 Z" fill="#000000" fill-rule="nonzero" fill-opacity="1" /><path clip-path="url(#clip440)" d="M798.401 1451.02 L816.758 1451.02 L816.758 1454.96 L802.684 1454.96 L802.684 1463.43 Q803.702 1463.08 804.721 1462.92 Q805.739 1462.73 806.758 1462.73 Q812.545 1462.73 815.924 1465.9 Q819.304 1469.08 819.304 1474.49 Q819.304 1480.07 815.832 1483.17 Q812.36 1486.25 806.04 1486.25 Q803.864 1486.25 801.596 1485.88 Q799.351 1485.51 796.943 1484.77 L796.943 1480.07 Q799.026 1481.2 801.249 1481.76 Q803.471 1482.32 805.948 1482.32 Q809.952 1482.32 812.29 1480.21 Q814.628 1478.1 814.628 1474.49 Q814.628 1470.88 812.29 1468.77 Q809.952 1466.67 805.948 1466.67 Q804.073 1466.67 802.198 1467.08 Q800.346 1467.5 798.401 1468.38 L798.401 1451.02 Z" fill="#000000" fill-rule="nonzero" fill-opacity="1" /><path clip-path="url(#clip440)" d="M838.517 1454.1 Q834.906 1454.1 833.077 1457.66 Q831.272 1461.2 831.272 1468.33 Q831.272 1475.44 833.077 1479.01 Q834.906 1482.55 838.517 1482.55 Q842.151 1482.55 843.957 1479.01 Q845.785 1475.44 845.785 1468.33 Q845.785 1461.2 843.957 1457.66 Q842.151 1454.1 838.517 1454.1 M838.517 1450.39 Q844.327 1450.39 847.383 1455 Q850.461 1459.58 850.461 1468.33 Q850.461 1477.06 847.383 1481.67 Q844.327 1486.25 838.517 1486.25 Q832.707 1486.25 829.628 1481.67 Q826.573 1477.06 826.573 1468.33 Q826.573 1459.58 829.628 1455 Q832.707 1450.39 838.517 1450.39 Z" fill="#000000" fill-rule="nonzero" fill-opacity="1" /><path clip-path="url(#clip440)" d="M1263.11 1451.02 L1281.47 1451.02 L1281.47 1454.96 L1267.39 1454.96 L1267.39 1463.43 Q1268.41 1463.08 1269.43 1462.92 Q1270.45 1462.73 1271.47 1462.73 Q1277.25 1462.73 1280.63 1465.9 Q1284.01 1469.08 1284.01 1474.49 Q1284.01 1480.07 1280.54 1483.17 Q1277.07 1486.25 1270.75 1486.25 Q1268.57 1486.25 1266.31 1485.88 Q1264.06 1485.51 1261.65 1484.77 L1261.65 1480.07 Q1263.74 1481.2 1265.96 1481.76 Q1268.18 1482.32 1270.66 1482.32 Q1274.66 1482.32 1277 1480.21 Q1279.34 1478.1 1279.34 1474.49 Q1279.34 1470.88 1277 1468.77 Q1274.66 1466.67 1270.66 1466.67 Q1268.78 1466.67 1266.91 1467.08 Q1265.06 1467.5 1263.11 1468.38 L1263.11 1451.02 Z" fill="#000000" fill-rule="nonzero" fill-opacity="1" /><path clip-path="url(#clip440)" d="M1303.23 1454.1 Q1299.62 1454.1 1297.79 1457.66 Q1295.98 1461.2 1295.98 1468.33 Q1295.98 1475.44 1297.79 1479.01 Q1299.62 1482.55 1303.23 1482.55 Q1306.86 1482.55 1308.67 1479.01 Q1310.49 1475.44 1310.49 1468.33 Q1310.49 1461.2 1308.67 1457.66 Q1306.86 1454.1 1303.23 1454.1 M1303.23 1450.39 Q1309.04 1450.39 1312.09 1455 Q1315.17 1459.58 1315.17 1468.33 Q1315.17 1477.06 1312.09 1481.67 Q1309.04 1486.25 1303.23 1486.25 Q1297.42 1486.25 1294.34 1481.67 Q1291.28 1477.06 1291.28 1468.33 Q1291.28 1459.58 1294.34 1455 Q1297.42 1450.39 1303.23 1450.39 Z" fill="#000000" fill-rule="nonzero" fill-opacity="1" /><path clip-path="url(#clip440)" d="M1333.39 1454.1 Q1329.78 1454.1 1327.95 1457.66 Q1326.14 1461.2 1326.14 1468.33 Q1326.14 1475.44 1327.95 1479.01 Q1329.78 1482.55 1333.39 1482.55 Q1337.02 1482.55 1338.83 1479.01 Q1340.66 1475.44 1340.66 1468.33 Q1340.66 1461.2 1338.83 1457.66 Q1337.02 1454.1 1333.39 1454.1 M1333.39 1450.39 Q1339.2 1450.39 1342.25 1455 Q1345.33 1459.58 1345.33 1468.33 Q1345.33 1477.06 1342.25 1481.67 Q1339.2 1486.25 1333.39 1486.25 Q1327.58 1486.25 1324.5 1481.67 Q1321.44 1477.06 1321.44 1468.33 Q1321.44 1459.58 1324.5 1455 Q1327.58 1450.39 1333.39 1450.39 Z" fill="#000000" fill-rule="nonzero" fill-opacity="1" /><path clip-path="url(#clip440)" d="M1756.73 1451.02 L1778.95 1451.02 L1778.95 1453.01 L1766.41 1485.58 L1761.52 1485.58 L1773.33 1454.96 L1756.73 1454.96 L1756.73 1451.02 Z" fill="#000000" fill-rule="nonzero" fill-opacity="1" /><path clip-path="url(#clip440)" d="M1788.12 1451.02 L1806.48 1451.02 L1806.48 1454.96 L1792.4 1454.96 L1792.4 1463.43 Q1793.42 1463.08 1794.44 1462.92 Q1795.46 1462.73 1796.48 1462.73 Q1802.26 1462.73 1805.64 1465.9 Q1809.02 1469.08 1809.02 1474.49 Q1809.02 1480.07 1805.55 1483.17 Q1802.08 1486.25 1795.76 1486.25 Q1793.58 1486.25 1791.31 1485.88 Q1789.07 1485.51 1786.66 1484.77 L1786.66 1480.07 Q1788.75 1481.2 1790.97 1481.76 Q1793.19 1482.32 1795.67 1482.32 Q1799.67 1482.32 1802.01 1480.21 Q1804.35 1478.1 1804.35 1474.49 Q1804.35 1470.88 1802.01 1468.77 Q1799.67 1466.67 1795.67 1466.67 Q1793.79 1466.67 1791.92 1467.08 Q1790.06 1467.5 1788.12 1468.38 L1788.12 1451.02 Z" fill="#000000" fill-rule="nonzero" fill-opacity="1" /><path clip-path="url(#clip440)" d="M1828.24 1454.1 Q1824.62 1454.1 1822.8 1457.66 Q1820.99 1461.2 1820.99 1468.33 Q1820.99 1475.44 1822.8 1479.01 Q1824.62 1482.55 1828.24 1482.55 Q1831.87 1482.55 1833.68 1479.01 Q1835.5 1475.44 1835.5 1468.33 Q1835.5 1461.2 1833.68 1457.66 Q1831.87 1454.1 1828.24 1454.1 M1828.24 1450.39 Q1834.05 1450.39 1837.1 1455 Q1840.18 1459.58 1840.18 1468.33 Q1840.18 1477.06 1837.1 1481.67 Q1834.05 1486.25 1828.24 1486.25 Q1822.43 1486.25 1819.35 1481.67 Q1816.29 1477.06 1816.29 1468.33 Q1816.29 1459.58 1819.35 1455 Q1822.43 1450.39 1828.24 1450.39 Z" fill="#000000" fill-rule="nonzero" fill-opacity="1" /><path clip-path="url(#clip440)" d="M2237.95 1481.64 L2245.58 1481.64 L2245.58 1455.28 L2237.27 1456.95 L2237.27 1452.69 L2245.54 1451.02 L2250.21 1451.02 L2250.21 1481.64 L2257.85 1481.64 L2257.85 1485.58 L2237.95 1485.58 L2237.95 1481.64 Z" fill="#000000" fill-rule="nonzero" fill-opacity="1" /><path clip-path="url(#clip440)" d="M2277.3 1454.1 Q2273.69 1454.1 2271.86 1457.66 Q2270.05 1461.2 2270.05 1468.33 Q2270.05 1475.44 2271.86 1479.01 Q2273.69 1482.55 2277.3 1482.55 Q2280.93 1482.55 2282.74 1479.01 Q2284.57 1475.44 2284.57 1468.33 Q2284.57 1461.2 2282.74 1457.66 Q2280.93 1454.1 2277.3 1454.1 M2277.3 1450.39 Q2283.11 1450.39 2286.16 1455 Q2289.24 1459.58 2289.24 1468.33 Q2289.24 1477.06 2286.16 1481.67 Q2283.11 1486.25 2277.3 1486.25 Q2271.49 1486.25 2268.41 1481.67 Q2265.35 1477.06 2265.35 1468.33 Q2265.35 1459.58 2268.41 1455 Q2271.49 1450.39 2277.3 1450.39 Z" fill="#000000" fill-rule="nonzero" fill-opacity="1" /><path clip-path="url(#clip440)" d="M2307.46 1454.1 Q2303.85 1454.1 2302.02 1457.66 Q2300.21 1461.2 2300.21 1468.33 Q2300.21 1475.44 2302.02 1479.01 Q2303.85 1482.55 2307.46 1482.55 Q2311.09 1482.55 2312.9 1479.01 Q2314.73 1475.44 2314.73 1468.33 Q2314.73 1461.2 2312.9 1457.66 Q2311.09 1454.1 2307.46 1454.1 M2307.46 1450.39 Q2313.27 1450.39 2316.32 1455 Q2319.4 1459.58 2319.4 1468.33 Q2319.4 1477.06 2316.32 1481.67 Q2313.27 1486.25 2307.46 1486.25 Q2301.65 1486.25 2298.57 1481.67 Q2295.51 1477.06 2295.51 1468.33 Q2295.51 1459.58 2298.57 1455 Q2301.65 1450.39 2307.46 1450.39 Z" fill="#000000" fill-rule="nonzero" fill-opacity="1" /><path clip-path="url(#clip440)" d="M2337.62 1454.1 Q2334.01 1454.1 2332.18 1457.66 Q2330.38 1461.2 2330.38 1468.33 Q2330.38 1475.44 2332.18 1479.01 Q2334.01 1482.55 2337.62 1482.55 Q2341.26 1482.55 2343.06 1479.01 Q2344.89 1475.44 2344.89 1468.33 Q2344.89 1461.2 2343.06 1457.66 Q2341.26 1454.1 2337.62 1454.1 M2337.62 1450.39 Q2343.43 1450.39 2346.49 1455 Q2349.57 1459.58 2349.57 1468.33 Q2349.57 1477.06 2346.49 1481.67 Q2343.43 1486.25 2337.62 1486.25 Q2331.81 1486.25 2328.73 1481.67 Q2325.68 1477.06 2325.68 1468.33 Q2325.68 1459.58 2328.73 1455 Q2331.81 1450.39 2337.62 1450.39 Z" fill="#000000" fill-rule="nonzero" fill-opacity="1" /><path clip-path="url(#clip440)" d="M1268.33 1524.18 L1268.33 1530.96 Q1265.08 1527.94 1261.39 1526.44 Q1257.73 1524.95 1253.59 1524.95 Q1245.44 1524.95 1241.11 1529.95 Q1236.78 1534.91 1236.78 1544.33 Q1236.78 1553.72 1241.11 1558.72 Q1245.44 1563.68 1253.59 1563.68 Q1257.73 1563.68 1261.39 1562.19 Q1265.08 1560.69 1268.33 1557.67 L1268.33 1564.38 Q1264.95 1566.68 1261.16 1567.82 Q1257.41 1568.97 1253.21 1568.97 Q1242.42 1568.97 1236.21 1562.38 Q1230 1555.76 1230 1544.33 Q1230 1532.87 1236.21 1526.28 Q1242.42 1519.66 1253.21 1519.66 Q1257.47 1519.66 1261.23 1520.81 Q1265.01 1521.92 1268.33 1524.18 Z" fill="#000000" fill-rule="nonzero" fill-opacity="1" /><path clip-path="url(#clip440)" d="M1308.49 1548.76 L1308.49 1551.62 L1281.57 1551.62 Q1281.95 1557.67 1285.19 1560.85 Q1288.47 1564 1294.3 1564 Q1297.67 1564 1300.82 1563.17 Q1304 1562.35 1307.12 1560.69 L1307.12 1566.23 Q1303.97 1567.57 1300.66 1568.27 Q1297.35 1568.97 1293.95 1568.97 Q1285.42 1568.97 1280.42 1564 Q1275.45 1559.04 1275.45 1550.57 Q1275.45 1541.82 1280.17 1536.69 Q1284.91 1531.54 1292.93 1531.54 Q1300.12 1531.54 1304.29 1536.18 Q1308.49 1540.8 1308.49 1548.76 M1302.64 1547.04 Q1302.57 1542.23 1299.93 1539.37 Q1297.32 1536.5 1292.99 1536.5 Q1288.09 1536.5 1285.13 1539.27 Q1282.2 1542.04 1281.76 1547.07 L1302.64 1547.04 Z" fill="#000000" fill-rule="nonzero" fill-opacity="1" /><path clip-path="url(#clip440)" d="M1318.1 1518.52 L1323.96 1518.52 L1323.96 1568.04 L1318.1 1568.04 L1318.1 1518.52 Z" fill="#000000" fill-rule="nonzero" fill-opacity="1" /><path clip-path="url(#clip440)" d="M1336.22 1518.52 L1342.07 1518.52 L1342.07 1568.04 L1336.22 1568.04 L1336.22 1518.52 Z" fill="#000000" fill-rule="nonzero" fill-opacity="1" /><path clip-path="url(#clip440)" d="M1377.05 1533.45 L1377.05 1538.98 Q1374.57 1537.71 1371.9 1537.07 Q1369.22 1536.44 1366.36 1536.44 Q1362 1536.44 1359.8 1537.77 Q1357.64 1539.11 1357.64 1541.79 Q1357.64 1543.82 1359.2 1545 Q1360.76 1546.15 1365.47 1547.2 L1367.47 1547.64 Q1373.71 1548.98 1376.32 1551.43 Q1378.96 1553.85 1378.96 1558.21 Q1378.96 1563.17 1375.01 1566.07 Q1371.1 1568.97 1364.22 1568.97 Q1361.36 1568.97 1358.24 1568.39 Q1355.15 1567.85 1351.72 1566.74 L1351.72 1560.69 Q1354.96 1562.38 1358.11 1563.24 Q1361.26 1564.07 1364.35 1564.07 Q1368.49 1564.07 1370.72 1562.66 Q1372.95 1561.23 1372.95 1558.65 Q1372.95 1556.27 1371.32 1554.99 Q1369.73 1553.72 1364.29 1552.54 L1362.25 1552.07 Q1356.81 1550.92 1354.39 1548.56 Q1351.97 1546.18 1351.97 1542.04 Q1351.97 1537.01 1355.54 1534.27 Q1359.1 1531.54 1365.66 1531.54 Q1368.9 1531.54 1371.77 1532.01 Q1374.63 1532.49 1377.05 1533.45 Z" fill="#000000" fill-rule="nonzero" fill-opacity="1" /><polyline clip-path="url(#clip442)" style="stroke:#000000; stroke-linecap:round; stroke-linejoin:round; stroke-width:2; stroke-opacity:0.1; fill:none" points="256.209,1148.65 2352.76,1148.65 "/>
<polyline clip-path="url(#clip442)" style="stroke:#000000; stroke-linecap:round; stroke-linejoin:round; stroke-width:2; stroke-opacity:0.1; fill:none" points="256.209,809.89 2352.76,809.89 "/>
<polyline clip-path="url(#clip442)" style="stroke:#000000; stroke-linecap:round; stroke-linejoin:round; stroke-width:2; stroke-opacity:0.1; fill:none" points="256.209,471.131 2352.76,471.131 "/>
<polyline clip-path="url(#clip442)" style="stroke:#000000; stroke-linecap:round; stroke-linejoin:round; stroke-width:2; stroke-opacity:0.1; fill:none" points="256.209,132.371 2352.76,132.371 "/>
<polyline clip-path="url(#clip440)" style="stroke:#000000; stroke-linecap:round; stroke-linejoin:round; stroke-width:4; stroke-opacity:1; fill:none" points="256.209,1423.18 256.209,123.472 "/>
<polyline clip-path="url(#clip440)" style="stroke:#000000; stroke-linecap:round; stroke-linejoin:round; stroke-width:4; stroke-opacity:1; fill:none" points="256.209,1148.65 275.106,1148.65 "/>
<polyline clip-path="url(#clip440)" style="stroke:#000000; stroke-linecap:round; stroke-linejoin:round; stroke-width:4; stroke-opacity:1; fill:none" points="256.209,809.89 275.106,809.89 "/>
<polyline clip-path="url(#clip440)" style="stroke:#000000; stroke-linecap:round; stroke-linejoin:round; stroke-width:4; stroke-opacity:1; fill:none" points="256.209,471.131 275.106,471.131 "/>
<polyline clip-path="url(#clip440)" style="stroke:#000000; stroke-linecap:round; stroke-linejoin:round; stroke-width:4; stroke-opacity:1; fill:none" points="256.209,132.371 275.106,132.371 "/>
<path clip-path="url(#clip440)" d="M114.26 1149.1 L143.936 1149.1 L143.936 1153.04 L114.26 1153.04 L114.26 1149.1 Z" fill="#000000" fill-rule="nonzero" fill-opacity="1" /><path clip-path="url(#clip440)" d="M164.028 1134.45 Q160.417 1134.45 158.589 1138.01 Q156.783 1141.55 156.783 1148.68 Q156.783 1155.79 158.589 1159.36 Q160.417 1162.9 164.028 1162.9 Q167.663 1162.9 169.468 1159.36 Q171.297 1155.79 171.297 1148.68 Q171.297 1141.55 169.468 1138.01 Q167.663 1134.45 164.028 1134.45 M164.028 1130.74 Q169.839 1130.74 172.894 1135.35 Q175.973 1139.93 175.973 1148.68 Q175.973 1157.41 172.894 1162.02 Q169.839 1166.6 164.028 1166.6 Q158.218 1166.6 155.14 1162.02 Q152.084 1157.41 152.084 1148.68 Q152.084 1139.93 155.14 1135.35 Q158.218 1130.74 164.028 1130.74 Z" fill="#000000" fill-rule="nonzero" fill-opacity="1" /><path clip-path="url(#clip440)" d="M184.19 1160.05 L189.075 1160.05 L189.075 1165.93 L184.19 1165.93 L184.19 1160.05 Z" fill="#000000" fill-rule="nonzero" fill-opacity="1" /><path clip-path="url(#clip440)" d="M199.306 1131.37 L217.662 1131.37 L217.662 1135.3 L203.588 1135.3 L203.588 1143.78 Q204.607 1143.43 205.625 1143.27 Q206.644 1143.08 207.662 1143.08 Q213.449 1143.08 216.829 1146.25 Q220.209 1149.43 220.209 1154.84 Q220.209 1160.42 216.736 1163.52 Q213.264 1166.6 206.945 1166.6 Q204.769 1166.6 202.5 1166.23 Q200.255 1165.86 197.848 1165.12 L197.848 1160.42 Q199.931 1161.55 202.153 1162.11 Q204.375 1162.67 206.852 1162.67 Q210.857 1162.67 213.195 1160.56 Q215.533 1158.45 215.533 1154.84 Q215.533 1151.23 213.195 1149.12 Q210.857 1147.02 206.852 1147.02 Q204.977 1147.02 203.102 1147.43 Q201.25 1147.85 199.306 1148.73 L199.306 1131.37 Z" fill="#000000" fill-rule="nonzero" fill-opacity="1" /><path clip-path="url(#clip440)" d="M163.033 795.689 Q159.422 795.689 157.593 799.254 Q155.788 802.795 155.788 809.925 Q155.788 817.031 157.593 820.596 Q159.422 824.138 163.033 824.138 Q166.667 824.138 168.473 820.596 Q170.302 817.031 170.302 809.925 Q170.302 802.795 168.473 799.254 Q166.667 795.689 163.033 795.689 M163.033 791.985 Q168.843 791.985 171.899 796.592 Q174.977 801.175 174.977 809.925 Q174.977 818.652 171.899 823.258 Q168.843 827.842 163.033 827.842 Q157.223 827.842 154.144 823.258 Q151.089 818.652 151.089 809.925 Q151.089 801.175 154.144 796.592 Q157.223 791.985 163.033 791.985 Z" fill="#000000" fill-rule="nonzero" fill-opacity="1" /><path clip-path="url(#clip440)" d="M183.195 821.291 L188.079 821.291 L188.079 827.17 L183.195 827.17 L183.195 821.291 Z" fill="#000000" fill-rule="nonzero" fill-opacity="1" /><path clip-path="url(#clip440)" d="M208.264 795.689 Q204.653 795.689 202.824 799.254 Q201.019 802.795 201.019 809.925 Q201.019 817.031 202.824 820.596 Q204.653 824.138 208.264 824.138 Q211.899 824.138 213.704 820.596 Q215.533 817.031 215.533 809.925 Q215.533 802.795 213.704 799.254 Q211.899 795.689 208.264 795.689 M208.264 791.985 Q214.074 791.985 217.13 796.592 Q220.209 801.175 220.209 809.925 Q220.209 818.652 217.13 823.258 Q214.074 827.842 208.264 827.842 Q202.454 827.842 199.375 823.258 Q196.32 818.652 196.32 809.925 Q196.32 801.175 199.375 796.592 Q202.454 791.985 208.264 791.985 Z" fill="#000000" fill-rule="nonzero" fill-opacity="1" /><path clip-path="url(#clip440)" d="M164.028 456.929 Q160.417 456.929 158.589 460.494 Q156.783 464.036 156.783 471.165 Q156.783 478.272 158.589 481.837 Q160.417 485.378 164.028 485.378 Q167.663 485.378 169.468 481.837 Q171.297 478.272 171.297 471.165 Q171.297 464.036 169.468 460.494 Q167.663 456.929 164.028 456.929 M164.028 453.226 Q169.839 453.226 172.894 457.832 Q175.973 462.415 175.973 471.165 Q175.973 479.892 172.894 484.499 Q169.839 489.082 164.028 489.082 Q158.218 489.082 155.14 484.499 Q152.084 479.892 152.084 471.165 Q152.084 462.415 155.14 457.832 Q158.218 453.226 164.028 453.226 Z" fill="#000000" fill-rule="nonzero" fill-opacity="1" /><path clip-path="url(#clip440)" d="M184.19 482.531 L189.075 482.531 L189.075 488.411 L184.19 488.411 L184.19 482.531 Z" fill="#000000" fill-rule="nonzero" fill-opacity="1" /><path clip-path="url(#clip440)" d="M199.306 453.851 L217.662 453.851 L217.662 457.786 L203.588 457.786 L203.588 466.258 Q204.607 465.911 205.625 465.749 Q206.644 465.564 207.662 465.564 Q213.449 465.564 216.829 468.735 Q220.209 471.906 220.209 477.323 Q220.209 482.901 216.736 486.003 Q213.264 489.082 206.945 489.082 Q204.769 489.082 202.5 488.712 Q200.255 488.341 197.848 487.601 L197.848 482.901 Q199.931 484.036 202.153 484.591 Q204.375 485.147 206.852 485.147 Q210.857 485.147 213.195 483.04 Q215.533 480.934 215.533 477.323 Q215.533 473.712 213.195 471.605 Q210.857 469.499 206.852 469.499 Q204.977 469.499 203.102 469.915 Q201.25 470.332 199.306 471.212 L199.306 453.851 Z" fill="#000000" fill-rule="nonzero" fill-opacity="1" /><path clip-path="url(#clip440)" d="M153.843 145.716 L161.482 145.716 L161.482 119.35 L153.172 121.017 L153.172 116.758 L161.436 115.091 L166.112 115.091 L166.112 145.716 L173.751 145.716 L173.751 149.651 L153.843 149.651 L153.843 145.716 Z" fill="#000000" fill-rule="nonzero" fill-opacity="1" /><path clip-path="url(#clip440)" d="M183.195 143.772 L188.079 143.772 L188.079 149.651 L183.195 149.651 L183.195 143.772 Z" fill="#000000" fill-rule="nonzero" fill-opacity="1" /><path clip-path="url(#clip440)" d="M208.264 118.17 Q204.653 118.17 202.824 121.735 Q201.019 125.276 201.019 132.406 Q201.019 139.512 202.824 143.077 Q204.653 146.619 208.264 146.619 Q211.899 146.619 213.704 143.077 Q215.533 139.512 215.533 132.406 Q215.533 125.276 213.704 121.735 Q211.899 118.17 208.264 118.17 M208.264 114.466 Q214.074 114.466 217.13 119.073 Q220.209 123.656 220.209 132.406 Q220.209 141.133 217.13 145.739 Q214.074 150.322 208.264 150.322 Q202.454 150.322 199.375 145.739 Q196.32 141.133 196.32 132.406 Q196.32 123.656 199.375 119.073 Q202.454 114.466 208.264 114.466 Z" fill="#000000" fill-rule="nonzero" fill-opacity="1" /><path clip-path="url(#clip440)" d="M18.0438 893.717 L24.314 893.717 Q22.5634 897.378 21.704 900.624 Q20.8447 903.871 20.8447 906.894 Q20.8447 912.146 22.8817 915.011 Q24.9187 917.843 28.6745 917.843 Q31.8255 917.843 33.4488 915.966 Q35.0402 914.056 36.0269 908.772 L36.8226 904.889 Q38.1912 897.696 41.6605 894.29 Q45.098 890.853 50.8908 890.853 Q57.7976 890.853 61.3624 895.5 Q64.9272 900.115 64.9272 909.059 Q64.9272 912.433 64.1633 916.252 Q63.3994 920.04 61.9035 924.114 L55.2831 924.114 Q57.4793 920.199 58.5933 916.443 Q59.7073 912.687 59.7073 909.059 Q59.7073 903.552 57.543 900.561 Q55.3786 897.569 51.3682 897.569 Q47.8671 897.569 45.8937 899.733 Q43.9204 901.866 42.9337 906.767 L42.1698 910.682 Q40.7375 917.875 37.682 921.09 Q34.6264 924.305 29.1837 924.305 Q22.8817 924.305 19.2532 919.88 Q15.6248 915.424 15.6248 907.626 Q15.6248 904.284 16.2295 900.815 Q16.8343 897.346 18.0438 893.717 Z" fill="#000000" fill-rule="nonzero" fill-opacity="1" /><path clip-path="url(#clip440)" d="M28.3562 881.081 L28.3562 875.225 L64.0042 875.225 L64.0042 881.081 L28.3562 881.081 M14.479 881.081 L14.479 875.225 L21.895 875.225 L21.895 881.081 L14.479 881.081 Z" fill="#000000" fill-rule="nonzero" fill-opacity="1" /><path clip-path="url(#clip440)" d="M35.1993 835.217 Q31.2526 833.02 29.3747 829.965 Q27.4968 826.909 27.4968 822.772 Q27.4968 817.202 31.4117 814.178 Q35.2948 811.154 42.4881 811.154 L64.0042 811.154 L64.0042 817.042 L42.679 817.042 Q37.5546 817.042 35.072 818.857 Q32.5894 820.671 32.5894 824.395 Q32.5894 828.946 35.6131 831.588 Q38.6368 834.23 43.8567 834.23 L64.0042 834.23 L64.0042 840.118 L42.679 840.118 Q37.5228 840.118 35.072 841.932 Q32.5894 843.747 32.5894 847.534 Q32.5894 852.022 35.6449 854.664 Q38.6686 857.306 43.8567 857.306 L64.0042 857.306 L64.0042 863.194 L28.3562 863.194 L28.3562 857.306 L33.8944 857.306 Q30.616 855.3 29.0564 852.499 Q27.4968 849.699 27.4968 845.847 Q27.4968 841.964 29.4702 839.259 Q31.4436 836.522 35.1993 835.217 Z" fill="#000000" fill-rule="nonzero" fill-opacity="1" /><path clip-path="url(#clip440)" d="M28.3562 799.473 L28.3562 793.617 L64.0042 793.617 L64.0042 799.473 L28.3562 799.473 M14.479 799.473 L14.479 793.617 L21.895 793.617 L21.895 799.473 L14.479 799.473 Z" fill="#000000" fill-rule="nonzero" fill-opacity="1" /><path clip-path="url(#clip440)" d="M14.479 781.363 L14.479 775.506 L64.0042 775.506 L64.0042 781.363 L14.479 781.363 Z" fill="#000000" fill-rule="nonzero" fill-opacity="1" /><path clip-path="url(#clip440)" d="M46.0847 747.052 Q46.0847 754.149 47.7079 756.887 Q49.3312 759.624 53.2461 759.624 Q56.3653 759.624 58.2114 757.587 Q60.0256 755.518 60.0256 751.985 Q60.0256 747.115 56.5881 744.187 Q53.1188 741.227 47.3897 741.227 L46.0847 741.227 L46.0847 747.052 M43.6657 735.37 L64.0042 735.37 L64.0042 741.227 L58.5933 741.227 Q61.8398 743.232 63.3994 746.224 Q64.9272 749.216 64.9272 753.545 Q64.9272 759.019 61.8716 762.266 Q58.7843 765.48 53.6281 765.48 Q47.6125 765.48 44.5569 761.47 Q41.5014 757.428 41.5014 749.439 L41.5014 741.227 L40.9285 741.227 Q36.8862 741.227 34.6901 743.901 Q32.4621 746.542 32.4621 751.348 Q32.4621 754.404 33.1941 757.3 Q33.9262 760.197 35.3903 762.87 L29.9795 762.87 Q28.7381 759.656 28.1334 756.632 Q27.4968 753.608 27.4968 750.744 Q27.4968 743.009 31.5072 739.19 Q35.5176 735.37 43.6657 735.37 Z" fill="#000000" fill-rule="nonzero" fill-opacity="1" /><path clip-path="url(#clip440)" d="M33.8307 702.651 Q33.2578 703.637 33.0032 704.815 Q32.7167 705.961 32.7167 707.361 Q32.7167 712.327 35.9632 715 Q39.1779 717.642 45.2253 717.642 L64.0042 717.642 L64.0042 723.53 L28.3562 723.53 L28.3562 717.642 L33.8944 717.642 Q30.6479 715.796 29.0883 712.836 Q27.4968 709.876 27.4968 705.643 Q27.4968 705.038 27.5923 704.306 Q27.656 703.574 27.8151 702.683 L33.8307 702.651 Z" fill="#000000" fill-rule="nonzero" fill-opacity="1" /><path clip-path="url(#clip440)" d="M28.3562 696.508 L28.3562 690.651 L64.0042 690.651 L64.0042 696.508 L28.3562 696.508 M14.479 696.508 L14.479 690.651 L21.895 690.651 L21.895 696.508 L14.479 696.508 Z" fill="#000000" fill-rule="nonzero" fill-opacity="1" /><path clip-path="url(#clip440)" d="M18.2347 672.605 L28.3562 672.605 L28.3562 660.542 L32.9077 660.542 L32.9077 672.605 L52.2594 672.605 Q56.6199 672.605 57.8613 671.427 Q59.1026 670.217 59.1026 666.557 L59.1026 660.542 L64.0042 660.542 L64.0042 666.557 Q64.0042 673.337 61.4897 675.915 Q58.9434 678.493 52.2594 678.493 L32.9077 678.493 L32.9077 682.79 L28.3562 682.79 L28.3562 678.493 L18.2347 678.493 L18.2347 672.605 Z" fill="#000000" fill-rule="nonzero" fill-opacity="1" /><path clip-path="url(#clip440)" d="M67.3143 638.007 Q73.68 640.49 75.6216 642.845 Q77.5631 645.2 77.5631 649.147 L77.5631 653.826 L72.6615 653.826 L72.6615 650.388 Q72.6615 647.969 71.5157 646.633 Q70.3699 645.296 66.1048 643.672 L63.4312 642.622 L28.3562 657.04 L28.3562 650.834 L56.238 639.694 L28.3562 628.554 L28.3562 622.347 L67.3143 638.007 Z" fill="#000000" fill-rule="nonzero" fill-opacity="1" /><path clip-path="url(#clip440)" d="M422.945 14.0809 L422.945 22.0612 Q418.286 19.8332 414.154 18.7395 Q410.022 17.6457 406.174 17.6457 Q399.49 17.6457 395.844 20.2383 Q392.239 22.8309 392.239 27.611 Q392.239 31.6214 394.629 33.6873 Q397.059 35.7128 403.784 36.9686 L408.726 37.9813 Q417.881 39.7232 422.216 44.1387 Q426.591 48.5136 426.591 55.8863 Q426.591 64.6767 420.676 69.2137 Q414.802 73.7508 403.419 73.7508 Q399.125 73.7508 394.264 72.7785 Q389.444 71.8063 384.259 69.9024 L384.259 61.4765 Q389.241 64.2716 394.021 65.6895 Q398.801 67.1073 403.419 67.1073 Q410.427 67.1073 414.235 64.3527 Q418.043 61.598 418.043 56.4939 Q418.043 52.0379 415.289 49.5264 Q412.574 47.0148 406.336 45.759 L401.353 44.7868 Q392.198 42.9639 388.107 39.075 Q384.016 35.1862 384.016 28.2591 Q384.016 20.2383 389.646 15.6203 Q395.318 11.0023 405.242 11.0023 Q409.496 11.0023 413.911 11.7719 Q418.327 12.5416 422.945 14.0809 Z" fill="#000000" fill-rule="nonzero" fill-opacity="1" /><path clip-path="url(#clip440)" d="M456.608 32.4315 Q450.612 32.4315 447.129 37.1306 Q443.645 41.7891 443.645 49.9314 Q443.645 58.0738 447.088 62.7728 Q450.572 67.4314 456.608 67.4314 Q462.563 67.4314 466.046 62.7323 Q469.53 58.0333 469.53 49.9314 Q469.53 41.8701 466.046 37.1711 Q462.563 32.4315 456.608 32.4315 M456.608 26.1121 Q466.33 26.1121 471.88 32.4315 Q477.429 38.7509 477.429 49.9314 Q477.429 61.0714 471.88 67.4314 Q466.33 73.7508 456.608 73.7508 Q446.845 73.7508 441.295 67.4314 Q435.786 61.0714 435.786 49.9314 Q435.786 38.7509 441.295 32.4315 Q446.845 26.1121 456.608 26.1121 Z" fill="#000000" fill-rule="nonzero" fill-opacity="1" /><path clip-path="url(#clip440)" d="M516.075 34.1734 Q514.819 33.4443 513.32 33.1202 Q511.862 32.7556 510.08 32.7556 Q503.76 32.7556 500.358 36.8875 Q496.995 40.9789 496.995 48.6757 L496.995 72.576 L489.501 72.576 L489.501 27.2059 L496.995 27.2059 L496.995 34.2544 Q499.345 30.1225 503.112 28.1376 Q506.879 26.1121 512.267 26.1121 Q513.037 26.1121 513.969 26.2337 Q514.9 26.3147 516.035 26.5172 L516.075 34.1734 Z" fill="#000000" fill-rule="nonzero" fill-opacity="1" /><path clip-path="url(#clip440)" d="M531.266 14.324 L531.266 27.2059 L546.619 27.2059 L546.619 32.9987 L531.266 32.9987 L531.266 57.6282 Q531.266 63.1779 532.765 64.7578 Q534.304 66.3376 538.963 66.3376 L546.619 66.3376 L546.619 72.576 L538.963 72.576 Q530.334 72.576 527.053 69.3758 Q523.772 66.1351 523.772 57.6282 L523.772 32.9987 L518.303 32.9987 L518.303 27.2059 L523.772 27.2059 L523.772 14.324 L531.266 14.324 Z" fill="#000000" fill-rule="nonzero" fill-opacity="1" /><path clip-path="url(#clip440)" d="M595.23 48.0275 L595.23 51.6733 L560.959 51.6733 Q561.445 59.3701 565.577 63.421 Q569.75 67.4314 577.163 67.4314 Q581.457 67.4314 585.467 66.3781 Q589.518 65.3249 593.488 63.2184 L593.488 70.267 Q589.477 71.9684 585.264 72.8596 Q581.052 73.7508 576.717 73.7508 Q565.861 73.7508 559.501 67.4314 Q553.181 61.1119 553.181 50.3365 Q553.181 39.1965 559.177 32.6746 Q565.213 26.1121 575.421 26.1121 Q584.576 26.1121 589.883 32.0264 Q595.23 37.9003 595.23 48.0275 M587.776 45.84 Q587.695 39.7232 584.333 36.0774 Q581.011 32.4315 575.502 32.4315 Q569.263 32.4315 565.496 35.9558 Q561.769 39.4801 561.202 45.8805 L587.776 45.84 Z" fill="#000000" fill-rule="nonzero" fill-opacity="1" /><path clip-path="url(#clip440)" d="M637.319 34.0924 L637.319 9.54393 L644.772 9.54393 L644.772 72.576 L637.319 72.576 L637.319 65.7705 Q634.969 69.8214 631.364 71.8063 Q627.799 73.7508 622.776 73.7508 Q614.553 73.7508 609.367 67.1883 Q604.223 60.6258 604.223 49.9314 Q604.223 39.2371 609.367 32.6746 Q614.553 26.1121 622.776 26.1121 Q627.799 26.1121 631.364 28.0971 Q634.969 30.0415 637.319 34.0924 M611.919 49.9314 Q611.919 58.1548 615.282 62.8538 Q618.684 67.5124 624.599 67.5124 Q630.513 67.5124 633.916 62.8538 Q637.319 58.1548 637.319 49.9314 Q637.319 41.7081 633.916 37.0496 Q630.513 32.3505 624.599 32.3505 Q618.684 32.3505 615.282 37.0496 Q611.919 41.7081 611.919 49.9314 Z" fill="#000000" fill-rule="nonzero" fill-opacity="1" /><path clip-path="url(#clip440)" d="M719.147 28.9478 L719.147 35.9153 Q715.987 34.1734 712.787 33.3227 Q709.627 32.4315 706.387 32.4315 Q699.135 32.4315 695.125 37.0496 Q691.115 41.6271 691.115 49.9314 Q691.115 58.2358 695.125 62.8538 Q699.135 67.4314 706.387 67.4314 Q709.627 67.4314 712.787 66.5807 Q715.987 65.6895 719.147 63.9476 L719.147 70.8341 Q716.028 72.2924 712.665 73.0216 Q709.344 73.7508 705.576 73.7508 Q695.328 73.7508 689.292 67.3098 Q683.256 60.8689 683.256 49.9314 Q683.256 38.832 689.332 32.472 Q695.449 26.1121 706.062 26.1121 Q709.506 26.1121 712.787 26.8413 Q716.068 27.5299 719.147 28.9478 Z" fill="#000000" fill-rule="nonzero" fill-opacity="1" /><path clip-path="url(#clip440)" d="M749.691 32.4315 Q743.695 32.4315 740.212 37.1306 Q736.728 41.7891 736.728 49.9314 Q736.728 58.0738 740.171 62.7728 Q743.655 67.4314 749.691 67.4314 Q755.646 67.4314 759.129 62.7323 Q762.613 58.0333 762.613 49.9314 Q762.613 41.8701 759.129 37.1711 Q755.646 32.4315 749.691 32.4315 M749.691 26.1121 Q759.413 26.1121 764.963 32.4315 Q770.512 38.7509 770.512 49.9314 Q770.512 61.0714 764.963 67.4314 Q759.413 73.7508 749.691 73.7508 Q739.928 73.7508 734.378 67.4314 Q728.869 61.0714 728.869 49.9314 Q728.869 38.7509 734.378 32.4315 Q739.928 26.1121 749.691 26.1121 Z" fill="#000000" fill-rule="nonzero" fill-opacity="1" /><path clip-path="url(#clip440)" d="M811.791 28.5427 L811.791 35.5912 Q808.631 33.9709 805.229 33.1607 Q801.826 32.3505 798.18 32.3505 Q792.63 32.3505 789.835 34.0519 Q787.081 35.7533 787.081 39.156 Q787.081 41.7486 789.065 43.2475 Q791.05 44.7058 797.046 46.0426 L799.598 46.6097 Q807.538 48.3111 810.859 51.4303 Q814.222 54.509 814.222 60.0587 Q814.222 66.3781 809.198 70.0644 Q804.216 73.7508 795.466 73.7508 Q791.82 73.7508 787.85 73.0216 Q783.921 72.3329 779.546 70.9151 L779.546 63.2184 Q783.678 65.3654 787.688 66.4591 Q791.699 67.5124 795.628 67.5124 Q800.894 67.5124 803.73 65.73 Q806.565 63.9071 806.565 60.6258 Q806.565 57.5877 804.499 55.9673 Q802.474 54.3469 795.547 52.8481 L792.954 52.2405 Q786.027 50.7821 782.949 47.7845 Q779.87 44.7463 779.87 39.4801 Q779.87 33.0797 784.407 29.5959 Q788.944 26.1121 797.289 26.1121 Q801.421 26.1121 805.067 26.7198 Q808.712 27.3274 811.791 28.5427 Z" fill="#000000" fill-rule="nonzero" fill-opacity="1" /><path clip-path="url(#clip440)" d="M826.091 27.2059 L833.544 27.2059 L833.544 72.576 L826.091 72.576 L826.091 27.2059 M826.091 9.54393 L833.544 9.54393 L833.544 18.9825 L826.091 18.9825 L826.091 9.54393 Z" fill="#000000" fill-rule="nonzero" fill-opacity="1" /><path clip-path="url(#clip440)" d="M886.854 45.1919 L886.854 72.576 L879.401 72.576 L879.401 45.4349 Q879.401 38.994 876.889 35.7938 Q874.378 32.5936 869.354 32.5936 Q863.319 32.5936 859.835 36.4419 Q856.351 40.2903 856.351 46.9338 L856.351 72.576 L848.857 72.576 L848.857 27.2059 L856.351 27.2059 L856.351 34.2544 Q859.025 30.163 862.63 28.1376 Q866.276 26.1121 871.015 26.1121 Q878.834 26.1121 882.844 30.9732 Q886.854 35.7938 886.854 45.1919 Z" fill="#000000" fill-rule="nonzero" fill-opacity="1" /><path clip-path="url(#clip440)" d="M940.529 48.0275 L940.529 51.6733 L906.258 51.6733 Q906.744 59.3701 910.876 63.421 Q915.049 67.4314 922.462 67.4314 Q926.756 67.4314 930.766 66.3781 Q934.817 65.3249 938.787 63.2184 L938.787 70.267 Q934.777 71.9684 930.564 72.8596 Q926.351 73.7508 922.016 73.7508 Q911.16 73.7508 904.8 67.4314 Q898.48 61.1119 898.48 50.3365 Q898.48 39.1965 904.476 32.6746 Q910.512 26.1121 920.72 26.1121 Q929.875 26.1121 935.182 32.0264 Q940.529 37.9003 940.529 48.0275 M933.075 45.84 Q932.994 39.7232 929.632 36.0774 Q926.31 32.4315 920.801 32.4315 Q914.562 32.4315 910.795 35.9558 Q907.068 39.4801 906.501 45.8805 L933.075 45.84 Z" fill="#000000" fill-rule="nonzero" fill-opacity="1" /><path clip-path="url(#clip440)" d="M1008.06 28.5427 L1008.06 35.5912 Q1004.9 33.9709 1001.49 33.1607 Q998.092 32.3505 994.446 32.3505 Q988.897 32.3505 986.101 34.0519 Q983.347 35.7533 983.347 39.156 Q983.347 41.7486 985.332 43.2475 Q987.317 44.7058 993.312 46.0426 L995.864 46.6097 Q1003.8 48.3111 1007.13 51.4303 Q1010.49 54.509 1010.49 60.0587 Q1010.49 66.3781 1005.46 70.0644 Q1000.48 73.7508 991.732 73.7508 Q988.086 73.7508 984.117 73.0216 Q980.187 72.3329 975.812 70.9151 L975.812 63.2184 Q979.944 65.3654 983.954 66.4591 Q987.965 67.5124 991.894 67.5124 Q997.16 67.5124 999.996 65.73 Q1002.83 63.9071 1002.83 60.6258 Q1002.83 57.5877 1000.77 55.9673 Q998.74 54.3469 991.813 52.8481 L989.221 52.2405 Q982.294 50.7821 979.215 47.7845 Q976.136 44.7463 976.136 39.4801 Q976.136 33.0797 980.673 29.5959 Q985.21 26.1121 993.555 26.1121 Q997.687 26.1121 1001.33 26.7198 Q1004.98 27.3274 1008.06 28.5427 Z" fill="#000000" fill-rule="nonzero" fill-opacity="1" /><path clip-path="url(#clip440)" d="M1022.36 27.2059 L1029.81 27.2059 L1029.81 72.576 L1022.36 72.576 L1022.36 27.2059 M1022.36 9.54393 L1029.81 9.54393 L1029.81 18.9825 L1022.36 18.9825 L1022.36 9.54393 Z" fill="#000000" fill-rule="nonzero" fill-opacity="1" /><path clip-path="url(#clip440)" d="M1080.73 35.9153 Q1083.53 30.8922 1087.41 28.5022 Q1091.3 26.1121 1096.57 26.1121 Q1103.66 26.1121 1107.51 31.0947 Q1111.36 36.0368 1111.36 45.1919 L1111.36 72.576 L1103.86 72.576 L1103.86 45.4349 Q1103.86 38.913 1101.55 35.7533 Q1099.24 32.5936 1094.5 32.5936 Q1088.71 32.5936 1085.35 36.4419 Q1081.99 40.2903 1081.99 46.9338 L1081.99 72.576 L1074.49 72.576 L1074.49 45.4349 Q1074.49 38.8725 1072.18 35.7533 Q1069.87 32.5936 1065.05 32.5936 Q1059.34 32.5936 1055.98 36.4824 Q1052.62 40.3308 1052.62 46.9338 L1052.62 72.576 L1045.12 72.576 L1045.12 27.2059 L1052.62 27.2059 L1052.62 34.2544 Q1055.17 30.082 1058.73 28.0971 Q1062.3 26.1121 1067.2 26.1121 Q1072.14 26.1121 1075.59 28.6237 Q1079.07 31.1352 1080.73 35.9153 Z" fill="#000000" fill-rule="nonzero" fill-opacity="1" /><path clip-path="url(#clip440)" d="M1126.22 27.2059 L1133.68 27.2059 L1133.68 72.576 L1126.22 72.576 L1126.22 27.2059 M1126.22 9.54393 L1133.68 9.54393 L1133.68 18.9825 L1126.22 18.9825 L1126.22 9.54393 Z" fill="#000000" fill-rule="nonzero" fill-opacity="1" /><path clip-path="url(#clip440)" d="M1149.27 9.54393 L1156.73 9.54393 L1156.73 72.576 L1149.27 72.576 L1149.27 9.54393 Z" fill="#000000" fill-rule="nonzero" fill-opacity="1" /><path clip-path="url(#clip440)" d="M1192.94 49.7694 Q1183.91 49.7694 1180.42 51.8354 Q1176.94 53.9013 1176.94 58.8839 Q1176.94 62.8538 1179.53 65.2034 Q1182.17 67.5124 1186.66 67.5124 Q1192.86 67.5124 1196.59 63.1374 Q1200.35 58.7219 1200.35 51.4303 L1200.35 49.7694 L1192.94 49.7694 M1207.81 46.6907 L1207.81 72.576 L1200.35 72.576 L1200.35 65.6895 Q1197.8 69.8214 1193.99 71.8063 Q1190.19 73.7508 1184.68 73.7508 Q1177.71 73.7508 1173.58 69.8619 Q1169.49 65.9325 1169.49 59.3701 Q1169.49 51.7138 1174.59 47.825 Q1179.73 43.9361 1189.9 43.9361 L1200.35 43.9361 L1200.35 43.2069 Q1200.35 38.0623 1196.95 35.2672 Q1193.59 32.4315 1187.47 32.4315 Q1183.58 32.4315 1179.9 33.3632 Q1176.21 34.295 1172.81 36.1584 L1172.81 29.2718 Q1176.9 27.692 1180.75 26.9223 Q1184.6 26.1121 1188.24 26.1121 Q1198.09 26.1121 1202.95 31.2163 Q1207.81 36.3204 1207.81 46.6907 Z" fill="#000000" fill-rule="nonzero" fill-opacity="1" /><path clip-path="url(#clip440)" d="M1249.45 34.1734 Q1248.19 33.4443 1246.7 33.1202 Q1245.24 32.7556 1243.46 32.7556 Q1237.14 32.7556 1233.73 36.8875 Q1230.37 40.9789 1230.37 48.6757 L1230.37 72.576 L1222.88 72.576 L1222.88 27.2059 L1230.37 27.2059 L1230.37 34.2544 Q1232.72 30.1225 1236.49 28.1376 Q1240.26 26.1121 1245.64 26.1121 Q1246.41 26.1121 1247.34 26.2337 Q1248.28 26.3147 1249.41 26.5172 L1249.45 34.1734 Z" fill="#000000" fill-rule="nonzero" fill-opacity="1" /><path clip-path="url(#clip440)" d="M1257.27 27.2059 L1264.72 27.2059 L1264.72 72.576 L1257.27 72.576 L1257.27 27.2059 M1257.27 9.54393 L1264.72 9.54393 L1264.72 18.9825 L1257.27 18.9825 L1257.27 9.54393 Z" fill="#000000" fill-rule="nonzero" fill-opacity="1" /><path clip-path="url(#clip440)" d="M1287.69 14.324 L1287.69 27.2059 L1303.04 27.2059 L1303.04 32.9987 L1287.69 32.9987 L1287.69 57.6282 Q1287.69 63.1779 1289.19 64.7578 Q1290.73 66.3376 1295.39 66.3376 L1303.04 66.3376 L1303.04 72.576 L1295.39 72.576 Q1286.76 72.576 1283.48 69.3758 Q1280.2 66.1351 1280.2 57.6282 L1280.2 32.9987 L1274.73 32.9987 L1274.73 27.2059 L1280.2 27.2059 L1280.2 14.324 L1287.69 14.324 Z" fill="#000000" fill-rule="nonzero" fill-opacity="1" /><path clip-path="url(#clip440)" d="M1312.85 27.2059 L1320.3 27.2059 L1320.3 72.576 L1312.85 72.576 L1312.85 27.2059 M1312.85 9.54393 L1320.3 9.54393 L1320.3 18.9825 L1312.85 18.9825 L1312.85 9.54393 Z" fill="#000000" fill-rule="nonzero" fill-opacity="1" /><path clip-path="url(#clip440)" d="M1374.7 48.0275 L1374.7 51.6733 L1340.43 51.6733 Q1340.92 59.3701 1345.05 63.421 Q1349.22 67.4314 1356.64 67.4314 Q1360.93 67.4314 1364.94 66.3781 Q1368.99 65.3249 1372.96 63.2184 L1372.96 70.267 Q1368.95 71.9684 1364.74 72.8596 Q1360.53 73.7508 1356.19 73.7508 Q1345.34 73.7508 1338.98 67.4314 Q1332.66 61.1119 1332.66 50.3365 Q1332.66 39.1965 1338.65 32.6746 Q1344.69 26.1121 1354.9 26.1121 Q1364.05 26.1121 1369.36 32.0264 Q1374.7 37.9003 1374.7 48.0275 M1367.25 45.84 Q1367.17 39.7232 1363.81 36.0774 Q1360.49 32.4315 1354.98 32.4315 Q1348.74 32.4315 1344.97 35.9558 Q1341.24 39.4801 1340.68 45.8805 L1367.25 45.84 Z" fill="#000000" fill-rule="nonzero" fill-opacity="1" /><path clip-path="url(#clip440)" d="M1415.86 28.5427 L1415.86 35.5912 Q1412.7 33.9709 1409.3 33.1607 Q1405.9 32.3505 1402.25 32.3505 Q1396.7 32.3505 1393.91 34.0519 Q1391.15 35.7533 1391.15 39.156 Q1391.15 41.7486 1393.14 43.2475 Q1395.12 44.7058 1401.12 46.0426 L1403.67 46.6097 Q1411.61 48.3111 1414.93 51.4303 Q1418.29 54.509 1418.29 60.0587 Q1418.29 66.3781 1413.27 70.0644 Q1408.29 73.7508 1399.54 73.7508 Q1395.89 73.7508 1391.92 73.0216 Q1387.99 72.3329 1383.62 70.9151 L1383.62 63.2184 Q1387.75 65.3654 1391.76 66.4591 Q1395.77 67.5124 1399.7 67.5124 Q1404.96 67.5124 1407.8 65.73 Q1410.64 63.9071 1410.64 60.6258 Q1410.64 57.5877 1408.57 55.9673 Q1406.54 54.3469 1399.62 52.8481 L1397.03 52.2405 Q1390.1 50.7821 1387.02 47.7845 Q1383.94 44.7463 1383.94 39.4801 Q1383.94 33.0797 1388.48 29.5959 Q1393.01 26.1121 1401.36 26.1121 Q1405.49 26.1121 1409.14 26.7198 Q1412.78 27.3274 1415.86 28.5427 Z" fill="#000000" fill-rule="nonzero" fill-opacity="1" /><path clip-path="url(#clip440)" d="M1489.18 28.9478 L1489.18 35.9153 Q1486.02 34.1734 1482.82 33.3227 Q1479.66 32.4315 1476.42 32.4315 Q1469.17 32.4315 1465.16 37.0496 Q1461.15 41.6271 1461.15 49.9314 Q1461.15 58.2358 1465.16 62.8538 Q1469.17 67.4314 1476.42 67.4314 Q1479.66 67.4314 1482.82 66.5807 Q1486.02 65.6895 1489.18 63.9476 L1489.18 70.8341 Q1486.06 72.2924 1482.7 73.0216 Q1479.38 73.7508 1475.61 73.7508 Q1465.36 73.7508 1459.33 67.3098 Q1453.29 60.8689 1453.29 49.9314 Q1453.29 38.832 1459.37 32.472 Q1465.49 26.1121 1476.1 26.1121 Q1479.54 26.1121 1482.82 26.8413 Q1486.1 27.5299 1489.18 28.9478 Z" fill="#000000" fill-rule="nonzero" fill-opacity="1" /><path clip-path="url(#clip440)" d="M1540.95 48.0275 L1540.95 51.6733 L1506.68 51.6733 Q1507.17 59.3701 1511.3 63.421 Q1515.47 67.4314 1522.89 67.4314 Q1527.18 67.4314 1531.19 66.3781 Q1535.24 65.3249 1539.21 63.2184 L1539.21 70.267 Q1535.2 71.9684 1530.99 72.8596 Q1526.78 73.7508 1522.44 73.7508 Q1511.58 73.7508 1505.22 67.4314 Q1498.91 61.1119 1498.91 50.3365 Q1498.91 39.1965 1504.9 32.6746 Q1510.94 26.1121 1521.14 26.1121 Q1530.3 26.1121 1535.61 32.0264 Q1540.95 37.9003 1540.95 48.0275 M1533.5 45.84 Q1533.42 39.7232 1530.06 36.0774 Q1526.74 32.4315 1521.23 32.4315 Q1514.99 32.4315 1511.22 35.9558 Q1507.49 39.4801 1506.93 45.8805 L1533.5 45.84 Z" fill="#000000" fill-rule="nonzero" fill-opacity="1" /><path clip-path="url(#clip440)" d="M1553.19 9.54393 L1560.64 9.54393 L1560.64 72.576 L1553.19 72.576 L1553.19 9.54393 Z" fill="#000000" fill-rule="nonzero" fill-opacity="1" /><path clip-path="url(#clip440)" d="M1576.24 9.54393 L1583.69 9.54393 L1583.69 72.576 L1576.24 72.576 L1576.24 9.54393 Z" fill="#000000" fill-rule="nonzero" fill-opacity="1" /><path clip-path="url(#clip440)" d="M1628.13 65.6895 L1641.5 65.6895 L1641.5 19.5497 L1626.95 22.4663 L1626.95 15.0127 L1641.42 12.096 L1649.6 12.096 L1649.6 65.6895 L1662.97 65.6895 L1662.97 72.576 L1628.13 72.576 L1628.13 65.6895 Z" fill="#000000" fill-rule="nonzero" fill-opacity="1" /><path clip-path="url(#clip440)" d="M1696.99 17.4837 Q1690.68 17.4837 1687.48 23.7221 Q1684.32 29.92 1684.32 42.3968 Q1684.32 54.833 1687.48 61.0714 Q1690.68 67.2693 1696.99 67.2693 Q1703.35 67.2693 1706.51 61.0714 Q1709.71 54.833 1709.71 42.3968 Q1709.71 29.92 1706.51 23.7221 Q1703.35 17.4837 1696.99 17.4837 M1696.99 11.0023 Q1707.16 11.0023 1712.51 19.0636 Q1717.9 27.0843 1717.9 42.3968 Q1717.9 57.6687 1712.51 65.73 Q1707.16 73.7508 1696.99 73.7508 Q1686.83 73.7508 1681.44 65.73 Q1676.09 57.6687 1676.09 42.3968 Q1676.09 27.0843 1681.44 19.0636 Q1686.83 11.0023 1696.99 11.0023 Z" fill="#000000" fill-rule="nonzero" fill-opacity="1" /><path clip-path="url(#clip440)" d="M1749.78 17.4837 Q1743.46 17.4837 1740.26 23.7221 Q1737.1 29.92 1737.1 42.3968 Q1737.1 54.833 1740.26 61.0714 Q1743.46 67.2693 1749.78 67.2693 Q1756.14 67.2693 1759.3 61.0714 Q1762.5 54.833 1762.5 42.3968 Q1762.5 29.92 1759.3 23.7221 Q1756.14 17.4837 1749.78 17.4837 M1749.78 11.0023 Q1759.95 11.0023 1765.29 19.0636 Q1770.68 27.0843 1770.68 42.3968 Q1770.68 57.6687 1765.29 65.73 Q1759.95 73.7508 1749.78 73.7508 Q1739.61 73.7508 1734.22 65.73 Q1728.88 57.6687 1728.88 42.3968 Q1728.88 27.0843 1734.22 19.0636 Q1739.61 11.0023 1749.78 11.0023 Z" fill="#000000" fill-rule="nonzero" fill-opacity="1" /><path clip-path="url(#clip440)" d="M1810.38 27.2059 L1817.83 27.2059 L1817.83 72.576 L1810.38 72.576 L1810.38 27.2059 M1810.38 9.54393 L1817.83 9.54393 L1817.83 18.9825 L1810.38 18.9825 L1810.38 9.54393 Z" fill="#000000" fill-rule="nonzero" fill-opacity="1" /><path clip-path="url(#clip440)" d="M1840.8 14.324 L1840.8 27.2059 L1856.15 27.2059 L1856.15 32.9987 L1840.8 32.9987 L1840.8 57.6282 Q1840.8 63.1779 1842.3 64.7578 Q1843.84 66.3376 1848.5 66.3376 L1856.15 66.3376 L1856.15 72.576 L1848.5 72.576 Q1839.87 72.576 1836.59 69.3758 Q1833.31 66.1351 1833.31 57.6282 L1833.31 32.9987 L1827.84 32.9987 L1827.84 27.2059 L1833.31 27.2059 L1833.31 14.324 L1840.8 14.324 Z" fill="#000000" fill-rule="nonzero" fill-opacity="1" /><path clip-path="url(#clip440)" d="M1904.77 48.0275 L1904.77 51.6733 L1870.49 51.6733 Q1870.98 59.3701 1875.11 63.421 Q1879.29 67.4314 1886.7 67.4314 Q1890.99 67.4314 1895 66.3781 Q1899.05 65.3249 1903.02 63.2184 L1903.02 70.267 Q1899.01 71.9684 1894.8 72.8596 Q1890.59 73.7508 1886.25 73.7508 Q1875.4 73.7508 1869.04 67.4314 Q1862.72 61.1119 1862.72 50.3365 Q1862.72 39.1965 1868.71 32.6746 Q1874.75 26.1121 1884.96 26.1121 Q1894.11 26.1121 1899.42 32.0264 Q1904.77 37.9003 1904.77 48.0275 M1897.31 45.84 Q1897.23 39.7232 1893.87 36.0774 Q1890.55 32.4315 1885.04 32.4315 Q1878.8 32.4315 1875.03 35.9558 Q1871.31 39.4801 1870.74 45.8805 L1897.31 45.84 Z" fill="#000000" fill-rule="nonzero" fill-opacity="1" /><path clip-path="url(#clip440)" d="M1943.29 34.1734 Q1942.03 33.4443 1940.54 33.1202 Q1939.08 32.7556 1937.29 32.7556 Q1930.97 32.7556 1927.57 36.8875 Q1924.21 40.9789 1924.21 48.6757 L1924.21 72.576 L1916.72 72.576 L1916.72 27.2059 L1924.21 27.2059 L1924.21 34.2544 Q1926.56 30.1225 1930.33 28.1376 Q1934.09 26.1121 1939.48 26.1121 Q1940.25 26.1121 1941.18 26.2337 Q1942.11 26.3147 1943.25 26.5172 L1943.29 34.1734 Z" fill="#000000" fill-rule="nonzero" fill-opacity="1" /><path clip-path="url(#clip440)" d="M1971.73 49.7694 Q1962.69 49.7694 1959.21 51.8354 Q1955.73 53.9013 1955.73 58.8839 Q1955.73 62.8538 1958.32 65.2034 Q1960.95 67.5124 1965.45 67.5124 Q1971.65 67.5124 1975.37 63.1374 Q1979.14 58.7219 1979.14 51.4303 L1979.14 49.7694 L1971.73 49.7694 M1986.59 46.6907 L1986.59 72.576 L1979.14 72.576 L1979.14 65.6895 Q1976.59 69.8214 1972.78 71.8063 Q1968.97 73.7508 1963.46 73.7508 Q1956.5 73.7508 1952.36 69.8619 Q1948.27 65.9325 1948.27 59.3701 Q1948.27 51.7138 1953.38 47.825 Q1958.52 43.9361 1968.69 43.9361 L1979.14 43.9361 L1979.14 43.2069 Q1979.14 38.0623 1975.74 35.2672 Q1972.38 32.4315 1966.26 32.4315 Q1962.37 32.4315 1958.68 33.3632 Q1955 34.295 1951.59 36.1584 L1951.59 29.2718 Q1955.69 27.692 1959.53 26.9223 Q1963.38 26.1121 1967.03 26.1121 Q1976.87 26.1121 1981.73 31.2163 Q1986.59 36.3204 1986.59 46.6907 Z" fill="#000000" fill-rule="nonzero" fill-opacity="1" /><path clip-path="url(#clip440)" d="M2009.32 14.324 L2009.32 27.2059 L2024.67 27.2059 L2024.67 32.9987 L2009.32 32.9987 L2009.32 57.6282 Q2009.32 63.1779 2010.82 64.7578 Q2012.36 66.3376 2017.02 66.3376 L2024.67 66.3376 L2024.67 72.576 L2017.02 72.576 Q2008.39 72.576 2005.11 69.3758 Q2001.83 66.1351 2001.83 57.6282 L2001.83 32.9987 L1996.36 32.9987 L1996.36 27.2059 L2001.83 27.2059 L2001.83 14.324 L2009.32 14.324 Z" fill="#000000" fill-rule="nonzero" fill-opacity="1" /><path clip-path="url(#clip440)" d="M2034.48 27.2059 L2041.93 27.2059 L2041.93 72.576 L2034.48 72.576 L2034.48 27.2059 M2034.48 9.54393 L2041.93 9.54393 L2041.93 18.9825 L2034.48 18.9825 L2034.48 9.54393 Z" fill="#000000" fill-rule="nonzero" fill-opacity="1" /><path clip-path="url(#clip440)" d="M2075.11 32.4315 Q2069.11 32.4315 2065.63 37.1306 Q2062.14 41.7891 2062.14 49.9314 Q2062.14 58.0738 2065.59 62.7728 Q2069.07 67.4314 2075.11 67.4314 Q2081.06 67.4314 2084.54 62.7323 Q2088.03 58.0333 2088.03 49.9314 Q2088.03 41.8701 2084.54 37.1711 Q2081.06 32.4315 2075.11 32.4315 M2075.11 26.1121 Q2084.83 26.1121 2090.38 32.4315 Q2095.93 38.7509 2095.93 49.9314 Q2095.93 61.0714 2090.38 67.4314 Q2084.83 73.7508 2075.11 73.7508 Q2065.34 73.7508 2059.79 67.4314 Q2054.28 61.0714 2054.28 49.9314 Q2054.28 38.7509 2059.79 32.4315 Q2065.34 26.1121 2075.11 26.1121 Z" fill="#000000" fill-rule="nonzero" fill-opacity="1" /><path clip-path="url(#clip440)" d="M2146 45.1919 L2146 72.576 L2138.54 72.576 L2138.54 45.4349 Q2138.54 38.994 2136.03 35.7938 Q2133.52 32.5936 2128.5 32.5936 Q2122.46 32.5936 2118.98 36.4419 Q2115.49 40.2903 2115.49 46.9338 L2115.49 72.576 L2108 72.576 L2108 27.2059 L2115.49 27.2059 L2115.49 34.2544 Q2118.17 30.163 2121.77 28.1376 Q2125.42 26.1121 2130.16 26.1121 Q2137.98 26.1121 2141.99 30.9732 Q2146 35.7938 2146 45.1919 Z" fill="#000000" fill-rule="nonzero" fill-opacity="1" /><path clip-path="url(#clip440)" d="M2188.37 12.096 L2220.49 12.096 L2220.49 18.9825 L2195.86 18.9825 L2195.86 33.8088 Q2197.65 33.2012 2199.43 32.9176 Q2201.21 32.5936 2202.99 32.5936 Q2213.12 32.5936 2219.03 38.1433 Q2224.95 43.6931 2224.95 53.1722 Q2224.95 62.9348 2218.87 68.3631 Q2212.8 73.7508 2201.74 73.7508 Q2197.93 73.7508 2193.96 73.1026 Q2190.03 72.4545 2185.82 71.1582 L2185.82 62.9348 Q2189.46 64.9198 2193.35 65.892 Q2197.24 66.8642 2201.58 66.8642 Q2208.58 66.8642 2212.67 63.1779 Q2216.77 59.4916 2216.77 53.1722 Q2216.77 46.8528 2212.67 43.1664 Q2208.58 39.4801 2201.58 39.4801 Q2198.29 39.4801 2195.01 40.2093 Q2191.77 40.9384 2188.37 42.4778 L2188.37 12.096 Z" fill="#000000" fill-rule="nonzero" fill-opacity="1" /><polyline clip-path="url(#clip442)" style="stroke:#009af9; stroke-linecap:round; stroke-linejoin:round; stroke-width:4; stroke-opacity:1; fill:none" points="315.545,1386.4 317.525,1355.92 319.505,1354.83 321.484,1352.7 323.464,1332.91 325.444,1332.12 327.424,1326.45 329.404,1326.21 331.384,1317.69 333.364,1317.26 335.343,1315.48 337.323,1315.34 339.303,1308.15 341.283,1306.67 343.263,1305.86 345.243,1295.04 347.223,1289.51 349.202,1288.43 351.182,1287.15 353.162,1272.48 355.142,1271.59 357.122,1265.24 359.102,1258.36 361.082,1254.54 363.061,1253.2 365.041,1246.02 367.021,1242.98 369.001,1242.86 370.981,1242.3 372.961,1238.57 374.941,1235.68 376.92,1235.35 378.9,1234.93 380.88,1233.66 382.86,1233.36 384.84,1231.72 386.82,1230.98 388.8,1230.45 390.779,1227.97 392.759,1226.52 394.739,1224.8 396.719,1223.12 398.699,1220.34 400.679,1220.15 402.659,1217.05 404.638,1213.98 406.618,1212.49 408.598,1206.62 410.578,1205.7 412.558,1200.66 414.538,1200.61 416.517,1198.98 418.497,1198.73 420.477,1196.19 422.457,1194.58 424.437,1191.4 426.417,1190.64 428.397,1190.58 430.376,1190.38 432.356,1189.64 434.336,1188.64 436.316,1188.15 438.296,1187.46 440.276,1186.39 442.256,1185.55 444.235,1183.81 446.215,1183.5 448.195,1183.06 450.175,1182.82 452.155,1182.46 454.135,1181.74 456.115,1180.4 458.094,1178 460.074,1177.98 462.054,1175.66 464.034,1175.61 466.014,1175.48 467.994,1175.1 469.974,1172.9 471.953,1172.5 473.933,1172.17 475.913,1171.48 477.893,1170.21 479.873,1169.19 481.853,1167.91 483.833,1166.47 485.812,1166.38 487.792,1165.74 489.772,1164.62 491.752,1164.53 493.732,1162.52 495.712,1161.53 497.692,1161.36 499.671,1160.95 501.651,1158.97 503.631,1158.64 505.611,1157.6 507.591,1157.33 509.571,1156.5 511.551,1156.35 513.53,1155.42 515.51,1154.79 517.49,1154.7 519.47,1154.15 521.45,1152.8 523.43,1151.2 525.409,1150 527.389,1148.65 529.369,1147.96 531.349,1146.79 533.329,1146.57 535.309,1146.42 537.289,1145.37 539.268,1145.1 541.248,1144.8 543.228,1144.35 545.208,1143.98 547.188,1142.36 549.168,1141.04 551.148,1140.5 553.127,1140.06 555.107,1138.02 557.087,1137.56 559.067,1137.01 561.047,1136.97 563.027,1136.33 565.007,1135.97 566.986,1135.76 568.966,1134.93 570.946,1134.29 572.926,1132.85 574.906,1132.21 576.886,1130.11 578.866,1128.19 580.845,1127.63 582.825,1127.25 584.805,1126.79 586.785,1126.38 588.765,1126.37 590.745,1126.11 592.725,1125.98 594.704,1125.34 596.684,1124.56 598.664,1124.15 600.644,1123.98 602.624,1123.93 604.604,1122.91 606.584,1122.87 608.563,1122.48 610.543,1122.37 612.523,1122.26 614.503,1121.78 616.483,1121.39 618.463,1119.39 620.443,1117.65 622.422,1117.34 624.402,1116.69 626.382,1116.56 628.362,1115.93 630.342,1115.42 632.322,1114.91 634.301,1114.78 636.281,1114.27 638.261,1113.57 640.241,1113.21 642.221,1112.61 644.201,1111.41 646.181,1111.4 648.16,1111.25 650.14,1111.17 652.12,1110.83 654.1,1110.18 656.08,1109.65 658.06,1109.15 660.04,1107.62 662.019,1107.35 663.999,1107.2 665.979,1106.87 667.959,1106.62 669.939,1106.27 671.919,1105.48 673.899,1103.89 675.878,1103.31 677.858,1103.2 679.838,1102.9 681.818,1102.52 683.798,1099.87 685.778,1099.27 687.758,1098.92 689.737,1098.8 691.717,1098.48 693.697,1098.22 695.677,1097.91 697.657,1095.57 699.637,1095.54 701.617,1094.81 703.596,1094.74 705.576,1093.97 707.556,1093.68 709.536,1093.47 711.516,1093.29 713.496,1091.96 715.476,1089.39 717.455,1088.95 719.435,1088.06 721.415,1086.71 723.395,1083.01 725.375,1082.61 727.355,1081.47 729.335,1081.18 731.314,1077.74 733.294,1077.13 735.274,1076.11 737.254,1074.85 739.234,1074.83 741.214,1073.96 743.194,1073.5 745.173,1073.49 747.153,1069 749.133,1067.68 751.113,1064.77 753.093,1062.9 755.073,1062.8 757.052,1062.43 759.032,1061.1 761.012,1059.22 762.992,1059.08 764.972,1058.87 766.952,1058.58 768.932,1055.47 770.911,1053.19 772.891,1051.05 774.871,1049.51 776.851,1049.05 778.831,1048.11 780.811,1047.23 782.791,1046.58 784.77,1045.09 786.75,1042.59 788.73,1042.52 790.71,1042.42 792.69,1041.12 794.67,1039.54 796.65,1039.4 798.629,1036.14 800.609,1035.05 802.589,1034.69 804.569,1032.29 806.549,1030.51 808.529,1029.84 810.509,1029.07 812.488,1028.92 814.468,1028.68 816.448,1027.26 818.428,1026.48 820.408,1026.28 822.388,1025.33 824.368,1024.81 826.347,1023.75 828.327,1021.85 830.307,1021.46 832.287,1021.44 834.267,1020.62 836.247,1019.16 838.227,1018.24 840.206,1016.8 842.186,1015.67 844.166,1015.31 846.146,1013.64 848.126,1012.85 850.106,1011.95 852.086,1010.4 854.065,1010.16 856.045,1009.52 858.025,1009.06 860.005,1006.4 861.985,1006.38 863.965,1006.26 865.944,1005.69 867.924,1002.13 869.904,1000.97 871.884,999.233 873.864,997.711 875.844,994.741 877.824,992.796 879.803,992.662 881.783,990.979 883.763,990.581 885.743,990.456 887.723,989.981 889.703,989.766 891.683,988.793 893.662,987.988 895.642,987.893 897.622,987.243 899.602,984.317 901.582,982.342 903.562,982.29 905.542,981.734 907.521,976.965 909.501,976.308 911.481,974.059 913.461,973.402 915.441,970.453 917.421,969.82 919.401,969.46 921.38,969.457 923.36,969.331 925.34,967.921 927.32,965.605 929.3,964.516 931.28,963.618 933.26,962.891 935.239,962.691 937.219,962.466 939.199,961.302 941.179,961.064 943.159,959.706 945.139,959.66 947.119,956.026 949.098,955.299 951.078,953.156 953.058,952.821 955.038,952.124 957.018,950.327 958.998,950.321 960.978,949.452 962.957,947.841 964.937,946.242 966.917,946.219 968.897,945.137 970.877,944.96 972.857,944.769 974.836,944.252 976.816,943.562 978.796,942.372 980.776,942.275 982.756,941.941 984.736,941.613 986.716,940.3 988.695,940.182 990.675,939.986 992.655,939.594 994.635,938.718 996.615,938.005 998.595,936.588 1000.57,936.071 1002.55,936.008 1004.53,933.911 1006.51,930.208 1008.49,929.885 1010.47,929.506 1012.45,929.307 1014.43,929.18 1016.41,926.533 1018.39,926.409 1020.37,925.539 1022.35,925.306 1024.33,925.045 1026.31,924.518 1028.29,923.942 1030.27,922.93 1032.25,922.677 1034.23,922.355 1036.21,922.125 1038.19,921.881 1040.17,921.208 1042.15,921.139 1044.13,920.983 1046.11,920.493 1048.09,920.182 1050.07,920.166 1052.05,919.573 1054.03,918.136 1056.01,917.984 1057.99,917.182 1059.97,915.047 1061.95,914.225 1063.93,913.977 1065.91,913.945 1067.89,913.675 1069.87,913.139 1071.85,912.996 1073.83,911.957 1075.81,911.876 1077.79,911.453 1079.77,911.448 1081.75,910.934 1083.73,909.855 1085.71,909.062 1087.69,907.875 1089.67,906.303 1091.65,905.475 1093.63,905.339 1095.61,904.814 1097.59,904.649 1099.57,903.824 1101.55,903.648 1103.53,903.503 1105.51,903.412 1107.49,903.393 1109.47,903.29 1111.45,902.201 1113.43,902.143 1115.41,898.648 1117.39,897.914 1119.37,897.54 1121.35,896.756 1123.33,896.66 1125.31,896.259 1127.29,895.929 1129.27,891.167 1131.25,890.925 1133.22,890.657 1135.2,887.328 1137.18,887.075 1139.16,886.881 1141.14,886.543 1143.12,886.455 1145.1,886.22 1147.08,884.116 1149.06,883.496 1151.04,882.447 1153.02,881.747 1155,881.408 1156.98,880.752 1158.96,880.472 1160.94,880.055 1162.92,879.691 1164.9,879.353 1166.88,878.991 1168.86,878.754 1170.84,878.647 1172.82,878.335 1174.8,876.242 1176.78,876.124 1178.76,875.803 1180.74,874.301 1182.72,873.809 1184.7,872.891 1186.68,872.308 1188.66,872.039 1190.64,872.002 1192.62,871.834 1194.6,870.834 1196.58,870.695 1198.56,870.031 1200.54,869.97 1202.52,869.277 1204.5,869.264 1206.48,868.878 1208.46,867.88 1210.44,867.693 1212.42,866.709 1214.4,865.084 1216.38,864.735 1218.36,864.069 1220.34,863.23 1222.32,862.109 1224.3,859.622 1226.28,858.148 1228.26,858.122 1230.24,857.614 1232.22,856.466 1234.2,855.711 1236.18,854.667 1238.16,853.659 1240.14,852.962 1242.12,851.881 1244.1,851.88 1246.08,851.492 1248.06,849.602 1250.04,849.145 1252.02,848.482 1254,847.591 1255.98,847.055 1257.96,846.443 1259.94,846.377 1261.92,845.845 1263.9,845.145 1265.88,844.849 1267.85,844.675 1269.83,844.373 1271.81,844.001 1273.79,843.713 1275.77,843.707 1277.75,842.901 1279.73,842.041 1281.71,842.041 1283.69,841.968 1285.67,841.941 1287.65,841.533 1289.63,841.5 1291.61,840.81 1293.59,839.378 1295.57,838.413 1297.55,837.208 1299.53,836.385 1301.51,835.712 1303.49,835.669 1305.47,835.014 1307.45,834.591 1309.43,833.519 1311.41,832.203 1313.39,831.59 1315.37,831.272 1317.35,830.579 1319.33,829.614 1321.31,829.086 1323.29,828.721 1325.27,828.311 1327.25,828.084 1329.23,828.025 1331.21,826.317 1333.19,825.926 1335.17,825.319 1337.15,824.863 1339.13,824.602 1341.11,824.097 1343.09,822.481 1345.07,822.273 1347.05,821.191 1349.03,820.936 1351.01,820.883 1352.99,819.867 1354.97,819.221 1356.95,818.84 1358.93,818.62 1360.91,818.365 1362.89,818.262 1364.87,817.184 1366.85,816.293 1368.83,815.75 1370.81,815.633 1372.79,814.499 1374.77,812.536 1376.75,812.353 1378.73,811.554 1380.71,811.326 1382.69,811.127 1384.67,810.656 1386.65,810.159 1388.63,807.028 1390.61,806.53 1392.59,806.301 1394.57,806.085 1396.55,806.063 1398.53,805.706 1400.51,805.27 1402.49,805.183 1404.46,804.392 1406.44,803.027 1408.42,802.312 1410.4,801.614 1412.38,801.263 1414.36,800.48 1416.34,800.135 1418.32,799.804 1420.3,798.741 1422.28,798.698 1424.26,797.32 1426.24,795.988 1428.22,795.346 1430.2,794.193 1432.18,793.796 1434.16,792.901 1436.14,792.831 1438.12,792.254 1440.1,792.131 1442.08,791.586 1444.06,791.319 1446.04,791.308 1448.02,791.029 1450,790.925 1451.98,790.755 1453.96,787.29 1455.94,787.211 1457.92,787.142 1459.9,786.912 1461.88,785.072 1463.86,785.043 1465.84,784.527 1467.82,783.584 1469.8,783.473 1471.78,783.437 1473.76,782.595 1475.74,782.025 1477.72,781.759 1479.7,780.384 1481.68,780.366 1483.66,780.115 1485.64,779.796 1487.62,778.558 1489.6,777.951 1491.58,776.965 1493.56,776.459 1495.54,775.903 1497.52,774.936 1499.5,774.743 1501.48,774.605 1503.46,773.867 1505.44,773.577 1507.42,773.49 1509.4,773.064 1511.38,772.902 1513.36,772.625 1515.34,772.346 1517.32,772.335 1519.3,772.015 1521.28,771.141 1523.26,771.047 1525.24,770.723 1527.22,770.106 1529.2,770.026 1531.18,769.611 1533.16,769.07 1535.14,766.852 1537.12,766.387 1539.1,766.079 1541.07,765.715 1543.05,765.427 1545.03,764.664 1547.01,762.836 1548.99,762.61 1550.97,762.241 1552.95,761.348 1554.93,761.159 1556.91,761.002 1558.89,760.401 1560.87,759.089 1562.85,759.003 1564.83,758.217 1566.81,756.264 1568.79,755.818 1570.77,754.896 1572.75,754.335 1574.73,753.89 1576.71,752.504 1578.69,752.035 1580.67,752.031 1582.65,751.989 1584.63,751.549 1586.61,751.323 1588.59,751.216 1590.57,751.207 1592.55,750.265 1594.53,749.706 1596.51,746.762 1598.49,745.925 1600.47,745.141 1602.45,744.488 1604.43,744.466 1606.41,744.178 1608.39,743.477 1610.37,743.319 1612.35,743.087 1614.33,742.872 1616.31,742.512 1618.29,742.504 1620.27,741.988 1622.25,741.952 1624.23,740.801 1626.21,739.577 1628.19,739.541 1630.17,739.422 1632.15,739.017 1634.13,738.582 1636.11,737.793 1638.09,736.49 1640.07,736.022 1642.05,734.877 1644.03,734.639 1646.01,734.372 1647.99,734.091 1649.97,733.542 1651.95,733.011 1653.93,732.738 1655.91,732.273 1657.89,731.1 1659.87,730.905 1661.85,729.183 1663.83,729.034 1665.81,728.134 1667.79,726.998 1669.77,722.626 1671.75,721.327 1673.73,720.826 1675.71,719.79 1677.68,713.713 1679.66,713.279 1681.64,712.705 1683.62,712.074 1685.6,711.485 1687.58,708.478 1689.56,706.557 1691.54,705.775 1693.52,704.806 1695.5,703.326 1697.48,701.496 1699.46,701.378 1701.44,697.661 1703.42,696.82 1705.4,696.673 1707.38,694.839 1709.36,687.612 1711.34,687.091 1713.32,685.379 1715.3,684.278 1717.28,684.245 1719.26,684.121 1721.24,683.481 1723.22,683.428 1725.2,682.617 1727.18,681.359 1729.16,680.147 1731.14,677.733 1733.12,675.572 1735.1,674.086 1737.08,673.998 1739.06,672.882 1741.04,669.65 1743.02,664.436 1745,663.726 1746.98,660.29 1748.96,658.798 1750.94,658.586 1752.92,658.15 1754.9,657.75 1756.88,648.986 1758.86,648.224 1760.84,646.778 1762.82,641.059 1764.8,640.342 1766.78,640.216 1768.76,638.298 1770.74,637.618 1772.72,636.312 1774.7,635.807 1776.68,628.7 1778.66,624.207 1780.64,623.458 1782.62,617.485 1784.6,616.807 1786.58,616.203 1788.56,612.685 1790.54,605.646 1792.52,602.435 1794.5,593.271 1796.48,584.478 1798.46,572.639 1800.44,569.099 1802.42,568.187 1804.4,558.653 1806.38,558.476 1808.36,554.032 1810.34,553.914 1812.31,534.778 1814.29,524.093 1816.27,523.848 1818.25,522.383 1820.23,502.123 1822.21,487.601 1824.19,487.137 1826.17,475.913 1828.15,473.306 1830.13,470.816 1832.11,464.132 1834.09,450.293 1836.07,446.486 1838.05,446.426 1840.03,440.938 1842.01,439.414 1843.99,439.141 1845.97,438.238 1847.95,428.094 1849.93,427.431 1851.91,418.056 1853.89,414.705 1855.87,413.605 1857.85,413.448 1859.83,402.996 1861.81,402.397 1863.79,396.36 1865.77,394.86 1867.75,387.231 1869.73,380.988 1871.71,379.323 1873.69,376.287 1875.67,376.015 1877.65,375.931 1879.63,375.91 1881.61,372.712 1883.59,372.626 1885.57,369.039 1887.55,361.55 1889.53,360.713 1891.51,360.669 1893.49,359.262 1895.47,356.113 1897.45,355.671 1899.43,354.603 1901.41,353.632 1903.39,353.021 1905.37,352.934 1907.35,351.262 1909.33,350.696 1911.31,346.997 1913.29,346.909 1915.27,346.007 1917.25,345.565 1919.23,345.377 1921.21,342.781 1923.19,342.318 1925.17,341.734 1927.15,338.193 1929.13,336.183 1931.11,335.635 1933.09,335.215 1935.07,334.971 1937.05,334.752 1939.03,333.736 1941.01,332.812 1942.99,331.107 1944.97,331.067 1946.95,330.582 1948.92,328.964 1950.9,327.305 1952.88,327.289 1954.86,325.294 1956.84,321.783 1958.82,319.128 1960.8,318.952 1962.78,318.738 1964.76,317.97 1966.74,316.498 1968.72,315.905 1970.7,313.657 1972.68,313.627 1974.66,312.828 1976.64,307.73 1978.62,303.806 1980.6,301.438 1982.58,301.377 1984.56,300.852 1986.54,300.539 1988.52,298.333 1990.5,298.121 1992.48,297.541 1994.46,297.214 1996.44,297.178 1998.42,296.95 2000.4,296.476 2002.38,295.425 2004.36,293.4 2006.34,291.204 2008.32,291.024 2010.3,290.668 2012.28,290.33 2014.26,288.904 2016.24,288.782 2018.22,288.408 2020.2,288.361 2022.18,288.276 2024.16,288.182 2026.14,287.305 2028.12,287.228 2030.1,286.475 2032.08,285.597 2034.06,285.017 2036.04,284.571 2038.02,284.467 2040,284.274 2041.98,283.987 2043.96,283.201 2045.94,282.89 2047.92,281.598 2049.9,281.483 2051.88,281.428 2053.86,280.168 2055.84,279.635 2057.82,279.552 2059.8,279.289 2061.78,279.222 2063.76,278.787 2065.74,277.748 2067.72,276.839 2069.7,274.554 2071.68,274.489 2073.66,271.717 2075.64,271.704 2077.62,270.319 2079.6,269.488 2081.58,267.571 2083.56,267.155 2085.53,267.138 2087.51,266.035 2089.49,265.014 2091.47,264.532 2093.45,264.084 2095.43,263.961 2097.41,263.482 2099.39,263.003 2101.37,262.608 2103.35,262.107 2105.33,261.997 2107.31,261.449 2109.29,261.382 2111.27,260.563 2113.25,260.229 2115.23,260.044 2117.21,259.91 2119.19,259.55 2121.17,259.248 2123.15,259.191 2125.13,258.681 2127.11,258.469 2129.09,257.916 2131.07,257.855 2133.05,256.533 2135.03,256.409 2137.01,254.445 2138.99,253.898 2140.97,253.839 2142.95,253.479 2144.93,253.211 2146.91,253.13 2148.89,252.876 2150.87,252.317 2152.85,251.936 2154.83,251.275 2156.81,251.243 2158.79,251.099 2160.77,251.072 2162.75,250.864 2164.73,250.421 2166.71,249.819 2168.69,249.189 2170.67,249.168 2172.65,247.748 2174.63,247.492 2176.61,246.555 2178.59,245.966 2180.57,245.368 2182.55,245.304 2184.53,245.051 2186.51,245.006 2188.49,242.104 2190.47,242.028 2192.45,241.796 2194.43,241.619 2196.41,241.542 2198.39,241.523 2200.37,240.777 2202.35,239.734 2204.33,238.665 2206.31,236.447 2208.29,235.241 2210.27,234.476 2212.25,232.598 2214.23,232.023 2216.21,231.766 2218.19,231.509 2220.17,229.828 2222.14,229.55 2224.12,228.41 2226.1,227.531 2228.08,226.987 2230.06,225.171 2232.04,223.769 2234.02,222.216 2236,221.06 2237.98,219.271 2239.96,219.009 2241.94,218.684 2243.92,217.585 2245.9,217.024 2247.88,216.612 2249.86,216.278 2251.84,214.733 2253.82,212.204 2255.8,211.322 2257.78,210.861 2259.76,208.964 2261.74,208.358 2263.72,205.823 2265.7,203.34 2267.68,202.575 2269.66,202.523 2271.64,202.373 2273.62,198.401 2275.6,197.389 2277.58,192.948 2279.56,192.633 2281.54,191.838 2283.52,191.566 2285.5,186.112 2287.48,184.398 2289.46,180.077 2291.44,173.282 2293.42,160.256 "/>
<path clip-path="url(#clip440)" d="M326.094 270.476 L755.354 270.476 L755.354 166.796 L326.094 166.796  Z" fill="#ffffff" fill-rule="evenodd" fill-opacity="1"/>
<polyline clip-path="url(#clip440)" style="stroke:#000000; stroke-linecap:round; stroke-linejoin:round; stroke-width:4; stroke-opacity:1; fill:none" points="326.094,270.476 755.354,270.476 755.354,166.796 326.094,166.796 326.094,270.476 "/>
<polyline clip-path="url(#clip440)" style="stroke:#009af9; stroke-linecap:round; stroke-linejoin:round; stroke-width:4; stroke-opacity:1; fill:none" points="349.389,218.636 489.158,218.636 "/>
<path clip-path="url(#clip440)" d="M534.699 202.49 L534.699 207.05 Q532.037 205.777 529.675 205.152 Q527.314 204.527 525.115 204.527 Q521.296 204.527 519.213 206.008 Q517.152 207.49 517.152 210.221 Q517.152 212.513 518.518 213.694 Q519.907 214.851 523.75 215.569 L526.574 216.147 Q531.805 217.143 534.282 219.666 Q536.782 222.166 536.782 226.379 Q536.782 231.402 533.402 233.994 Q530.046 236.587 523.541 236.587 Q521.088 236.587 518.31 236.031 Q515.555 235.476 512.592 234.388 L512.592 229.573 Q515.439 231.17 518.171 231.981 Q520.902 232.791 523.541 232.791 Q527.546 232.791 529.722 231.217 Q531.898 229.643 531.898 226.726 Q531.898 224.18 530.324 222.744 Q528.773 221.309 525.208 220.592 L522.361 220.036 Q517.129 218.995 514.791 216.772 Q512.453 214.55 512.453 210.592 Q512.453 206.008 515.671 203.37 Q518.912 200.731 524.583 200.731 Q527.013 200.731 529.537 201.171 Q532.06 201.61 534.699 202.49 Z" fill="#000000" fill-rule="nonzero" fill-opacity="1" /><path clip-path="url(#clip440)" d="M543.888 209.99 L548.148 209.99 L548.148 235.916 L543.888 235.916 L543.888 209.99 M543.888 199.897 L548.148 199.897 L548.148 205.291 L543.888 205.291 L543.888 199.897 Z" fill="#000000" fill-rule="nonzero" fill-opacity="1" /><path clip-path="url(#clip440)" d="M577.245 214.967 Q578.842 212.096 581.064 210.731 Q583.286 209.365 586.296 209.365 Q590.346 209.365 592.545 212.212 Q594.745 215.036 594.745 220.268 L594.745 235.916 L590.462 235.916 L590.462 220.407 Q590.462 216.68 589.143 214.874 Q587.823 213.069 585.115 213.069 Q581.805 213.069 579.884 215.268 Q577.962 217.467 577.962 221.263 L577.962 235.916 L573.68 235.916 L573.68 220.407 Q573.68 216.657 572.36 214.874 Q571.041 213.069 568.286 213.069 Q565.022 213.069 563.101 215.291 Q561.18 217.49 561.18 221.263 L561.18 235.916 L556.898 235.916 L556.898 209.99 L561.18 209.99 L561.18 214.018 Q562.638 211.633 564.675 210.499 Q566.712 209.365 569.513 209.365 Q572.337 209.365 574.305 210.8 Q576.296 212.235 577.245 214.967 Z" fill="#000000" fill-rule="nonzero" fill-opacity="1" /><path clip-path="url(#clip440)" d="M603.24 209.99 L607.499 209.99 L607.499 235.916 L603.24 235.916 L603.24 209.99 M603.24 199.897 L607.499 199.897 L607.499 205.291 L603.24 205.291 L603.24 199.897 Z" fill="#000000" fill-rule="nonzero" fill-opacity="1" /><path clip-path="url(#clip440)" d="M616.411 199.897 L620.67 199.897 L620.67 235.916 L616.411 235.916 L616.411 199.897 Z" fill="#000000" fill-rule="nonzero" fill-opacity="1" /><path clip-path="url(#clip440)" d="M641.365 222.883 Q636.203 222.883 634.212 224.064 Q632.221 225.244 632.221 228.092 Q632.221 230.36 633.703 231.703 Q635.207 233.022 637.777 233.022 Q641.318 233.022 643.448 230.522 Q645.601 227.999 645.601 223.832 L645.601 222.883 L641.365 222.883 M649.86 221.124 L649.86 235.916 L645.601 235.916 L645.601 231.981 Q644.142 234.342 641.967 235.476 Q639.791 236.587 636.642 236.587 Q632.661 236.587 630.3 234.365 Q627.962 232.119 627.962 228.369 Q627.962 223.994 630.879 221.772 Q633.818 219.55 639.629 219.55 L645.601 219.55 L645.601 219.133 Q645.601 216.194 643.656 214.596 Q641.735 212.976 638.24 212.976 Q636.017 212.976 633.911 213.508 Q631.805 214.041 629.86 215.106 L629.86 211.17 Q632.198 210.268 634.397 209.828 Q636.596 209.365 638.68 209.365 Q644.304 209.365 647.082 212.282 Q649.86 215.198 649.86 221.124 Z" fill="#000000" fill-rule="nonzero" fill-opacity="1" /><path clip-path="url(#clip440)" d="M673.656 213.971 Q672.939 213.555 672.082 213.37 Q671.249 213.161 670.23 213.161 Q666.619 213.161 664.675 215.522 Q662.753 217.86 662.753 222.258 L662.753 235.916 L658.471 235.916 L658.471 209.99 L662.753 209.99 L662.753 214.018 Q664.096 211.657 666.249 210.522 Q668.402 209.365 671.48 209.365 Q671.92 209.365 672.452 209.434 Q672.985 209.481 673.633 209.596 L673.656 213.971 Z" fill="#000000" fill-rule="nonzero" fill-opacity="1" /><path clip-path="url(#clip440)" d="M678.124 209.99 L682.383 209.99 L682.383 235.916 L678.124 235.916 L678.124 209.99 M678.124 199.897 L682.383 199.897 L682.383 205.291 L678.124 205.291 L678.124 199.897 Z" fill="#000000" fill-rule="nonzero" fill-opacity="1" /><path clip-path="url(#clip440)" d="M695.508 202.629 L695.508 209.99 L704.281 209.99 L704.281 213.3 L695.508 213.3 L695.508 227.374 Q695.508 230.545 696.364 231.448 Q697.244 232.351 699.906 232.351 L704.281 232.351 L704.281 235.916 L699.906 235.916 Q694.975 235.916 693.101 234.087 Q691.226 232.235 691.226 227.374 L691.226 213.3 L688.101 213.3 L688.101 209.99 L691.226 209.99 L691.226 202.629 L695.508 202.629 Z" fill="#000000" fill-rule="nonzero" fill-opacity="1" /><path clip-path="url(#clip440)" d="M720.67 238.323 Q718.864 242.953 717.151 244.365 Q715.438 245.777 712.568 245.777 L709.165 245.777 L709.165 242.212 L711.665 242.212 Q713.424 242.212 714.397 241.379 Q715.369 240.545 716.549 237.443 L717.313 235.499 L706.827 209.99 L711.341 209.99 L719.443 230.268 L727.545 209.99 L732.059 209.99 L720.67 238.323 Z" fill="#000000" fill-rule="nonzero" fill-opacity="1" /></svg>
