<?xml version="1.0" encoding="utf-8"?>
<svg xmlns="http://www.w3.org/2000/svg" xmlns:xlink="http://www.w3.org/1999/xlink" width="600" height="400" viewBox="0 0 2400 1600">
<defs>
  <clipPath id="clip000">
    <rect x="0" y="0" width="2400" height="1600"/>
  </clipPath>
</defs>
<path clip-path="url(#clip000)" d="M0 1600 L2400 1600 L2400 8.88178e-14 L0 8.88178e-14  Z" fill="#ffffff" fill-rule="evenodd" fill-opacity="1"/>
<defs>
  <clipPath id="clip001">
    <rect x="480" y="0" width="1681" height="1600"/>
  </clipPath>
</defs>
<path clip-path="url(#clip000)" d="M256.209 1423.18 L2352.76 1423.18 L2352.76 123.472 L256.209 123.472  Z" fill="#ffffff" fill-rule="evenodd" fill-opacity="1"/>
<defs>
  <clipPath id="clip002">
    <rect x="256" y="123" width="2098" height="1301"/>
  </clipPath>
</defs>
<polyline clip-path="url(#clip002)" style="stroke:#000000; stroke-linecap:round; stroke-linejoin:round; stroke-width:2; stroke-opacity:0.1; fill:none" points="313.565,1423.18 313.565,123.472 "/>
<polyline clip-path="url(#clip002)" style="stroke:#000000; stroke-linecap:round; stroke-linejoin:round; stroke-width:2; stroke-opacity:0.1; fill:none" points="808.529,1423.18 808.529,123.472 "/>
<polyline clip-path="url(#clip002)" style="stroke:#000000; stroke-linecap:round; stroke-linejoin:round; stroke-width:2; stroke-opacity:0.1; fill:none" points="1303.49,1423.18 1303.49,123.472 "/>
<polyline clip-path="url(#clip002)" style="stroke:#000000; stroke-linecap:round; stroke-linejoin:round; stroke-width:2; stroke-opacity:0.1; fill:none" points="1798.46,1423.18 1798.46,123.472 "/>
<polyline clip-path="url(#clip002)" style="stroke:#000000; stroke-linecap:round; stroke-linejoin:round; stroke-width:2; stroke-opacity:0.1; fill:none" points="2293.42,1423.18 2293.42,123.472 "/>
<polyline clip-path="url(#clip000)" style="stroke:#000000; stroke-linecap:round; stroke-linejoin:round; stroke-width:4; stroke-opacity:1; fill:none" points="256.209,1423.18 2352.76,1423.18 "/>
<polyline clip-path="url(#clip000)" style="stroke:#000000; stroke-linecap:round; stroke-linejoin:round; stroke-width:4; stroke-opacity:1; fill:none" points="313.565,1423.18 313.565,1404.28 "/>
<polyline clip-path="url(#clip000)" style="stroke:#000000; stroke-linecap:round; stroke-linejoin:round; stroke-width:4; stroke-opacity:1; fill:none" points="808.529,1423.18 808.529,1404.28 "/>
<polyline clip-path="url(#clip000)" style="stroke:#000000; stroke-linecap:round; stroke-linejoin:round; stroke-width:4; stroke-opacity:1; fill:none" points="1303.49,1423.18 1303.49,1404.28 "/>
<polyline clip-path="url(#clip000)" style="stroke:#000000; stroke-linecap:round; stroke-linejoin:round; stroke-width:4; stroke-opacity:1; fill:none" points="1798.46,1423.18 1798.46,1404.28 "/>
<polyline clip-path="url(#clip000)" style="stroke:#000000; stroke-linecap:round; stroke-linejoin:round; stroke-width:4; stroke-opacity:1; fill:none" points="2293.42,1423.18 2293.42,1404.28 "/>
<path clip-path="url(#clip000)" d="M313.565 1454.1 Q309.954 1454.1 308.125 1457.66 Q306.32 1461.2 306.32 1468.33 Q306.32 1475.44 308.125 1479.01 Q309.954 1482.55 313.565 1482.55 Q317.199 1482.55 319.005 1479.01 Q320.834 1475.44 320.834 1468.33 Q320.834 1461.2 319.005 1457.66 Q317.199 1454.1 313.565 1454.1 M313.565 1450.39 Q319.375 1450.39 322.431 1455 Q325.509 1459.58 325.509 1468.33 Q325.509 1477.06 322.431 1481.67 Q319.375 1486.25 313.565 1486.25 Q307.755 1486.25 304.676 1481.67 Q301.621 1477.06 301.621 1468.33 Q301.621 1459.58 304.676 1455 Q307.755 1450.39 313.565 1450.39 Z" fill="#000000" fill-rule="nonzero" fill-opacity="1" /><path clip-path="url(#clip000)" d="M772.221 1481.64 L788.54 1481.64 L788.54 1485.58 L766.596 1485.58 L766.596 1481.64 Q769.258 1478.89 773.841 1474.26 Q778.448 1469.61 779.628 1468.27 Q781.874 1465.74 782.753 1464.01 Q783.656 1462.25 783.656 1460.56 Q783.656 1457.8 781.712 1456.07 Q779.79 1454.33 776.689 1454.33 Q774.49 1454.33 772.036 1455.09 Q769.605 1455.86 766.828 1457.41 L766.828 1452.69 Q769.652 1451.55 772.105 1450.97 Q774.559 1450.39 776.596 1450.39 Q781.966 1450.39 785.161 1453.08 Q788.355 1455.77 788.355 1460.26 Q788.355 1462.39 787.545 1464.31 Q786.758 1466.2 784.652 1468.8 Q784.073 1469.47 780.971 1472.69 Q777.869 1475.88 772.221 1481.64 Z" fill="#000000" fill-rule="nonzero" fill-opacity="1" /><path clip-path="url(#clip000)" d="M798.401 1451.02 L816.758 1451.02 L816.758 1454.96 L802.684 1454.96 L802.684 1463.43 Q803.702 1463.08 804.721 1462.92 Q805.739 1462.73 806.758 1462.73 Q812.545 1462.73 815.924 1465.9 Q819.304 1469.08 819.304 1474.49 Q819.304 1480.07 815.832 1483.17 Q812.36 1486.25 806.04 1486.25 Q803.864 1486.25 801.596 1485.88 Q799.351 1485.51 796.943 1484.77 L796.943 1480.07 Q799.026 1481.2 801.249 1481.76 Q803.471 1482.32 805.948 1482.32 Q809.952 1482.32 812.29 1480.21 Q814.628 1478.1 814.628 1474.49 Q814.628 1470.88 812.29 1468.77 Q809.952 1466.67 805.948 1466.67 Q804.073 1466.67 802.198 1467.08 Q800.346 1467.5 798.401 1468.38 L798.401 1451.02 Z" fill="#000000" fill-rule="nonzero" fill-opacity="1" /><path clip-path="url(#clip000)" d="M838.517 1454.1 Q834.906 1454.1 833.077 1457.66 Q831.272 1461.2 831.272 1468.33 Q831.272 1475.44 833.077 1479.01 Q834.906 1482.55 838.517 1482.55 Q842.151 1482.55 843.957 1479.01 Q845.785 1475.44 845.785 1468.33 Q845.785 1461.2 843.957 1457.66 Q842.151 1454.1 838.517 1454.1 M838.517 1450.39 Q844.327 1450.39 847.383 1455 Q850.461 1459.58 850.461 1468.33 Q850.461 1477.06 847.383 1481.67 Q844.327 1486.25 838.517 1486.25 Q832.707 1486.25 829.628 1481.67 Q826.573 1477.06 826.573 1468.33 Q826.573 1459.58 829.628 1455 Q832.707 1450.39 838.517 1450.39 Z" fill="#000000" fill-rule="nonzero" fill-opacity="1" /><path clip-path="url(#clip000)" d="M1263.11 1451.02 L1281.47 1451.02 L1281.47 1454.96 L1267.39 1454.96 L1267.39 1463.43 Q1268.41 1463.08 1269.43 1462.92 Q1270.45 1462.73 1271.47 1462.73 Q1277.25 1462.73 1280.63 1465.9 Q1284.01 1469.08 1284.01 1474.49 Q1284.01 1480.07 1280.54 1483.17 Q1277.07 1486.25 1270.75 1486.25 Q1268.57 1486.25 1266.31 1485.88 Q1264.06 1485.51 1261.65 1484.77 L1261.65 1480.07 Q1263.74 1481.2 1265.96 1481.76 Q1268.18 1482.32 1270.66 1482.32 Q1274.66 1482.32 1277 1480.21 Q1279.34 1478.1 1279.34 1474.49 Q1279.34 1470.88 1277 1468.77 Q1274.66 1466.67 1270.66 1466.67 Q1268.78 1466.67 1266.91 1467.08 Q1265.06 1467.5 1263.11 1468.38 L1263.11 1451.02 Z" fill="#000000" fill-rule="nonzero" fill-opacity="1" /><path clip-path="url(#clip000)" d="M1303.23 1454.1 Q1299.62 1454.1 1297.79 1457.66 Q1295.98 1461.2 1295.98 1468.33 Q1295.98 1475.44 1297.79 1479.01 Q1299.62 1482.55 1303.23 1482.55 Q1306.86 1482.55 1308.67 1479.01 Q1310.49 1475.44 1310.49 1468.33 Q1310.49 1461.2 1308.67 1457.66 Q1306.86 1454.1 1303.23 1454.1 M1303.23 1450.39 Q1309.04 1450.39 1312.09 1455 Q1315.17 1459.58 1315.17 1468.33 Q1315.17 1477.06 1312.09 1481.67 Q1309.04 1486.25 1303.23 1486.25 Q1297.42 1486.25 1294.34 1481.67 Q1291.28 1477.06 1291.28 1468.33 Q1291.28 1459.58 1294.34 1455 Q1297.42 1450.39 1303.23 1450.39 Z" fill="#000000" fill-rule="nonzero" fill-opacity="1" /><path clip-path="url(#clip000)" d="M1333.39 1454.1 Q1329.78 1454.1 1327.95 1457.66 Q1326.14 1461.2 1326.14 1468.33 Q1326.14 1475.44 1327.95 1479.01 Q1329.78 1482.55 1333.39 1482.55 Q1337.02 1482.55 1338.83 1479.01 Q1340.66 1475.44 1340.66 1468.33 Q1340.66 1461.2 1338.83 1457.66 Q1337.02 1454.1 1333.39 1454.1 M1333.39 1450.39 Q1339.2 1450.39 1342.25 1455 Q1345.33 1459.58 1345.33 1468.33 Q1345.33 1477.06 1342.25 1481.67 Q1339.2 1486.25 1333.39 1486.25 Q1327.58 1486.25 1324.5 1481.67 Q1321.44 1477.06 1321.44 1468.33 Q1321.44 1459.58 1324.5 1455 Q1327.58 1450.39 1333.39 1450.39 Z" fill="#000000" fill-rule="nonzero" fill-opacity="1" /><path clip-path="url(#clip000)" d="M1756.73 1451.02 L1778.95 1451.02 L1778.95 1453.01 L1766.41 1485.58 L1761.52 1485.58 L1773.33 1454.96 L1756.73 1454.96 L1756.73 1451.02 Z" fill="#000000" fill-rule="nonzero" fill-opacity="1" /><path clip-path="url(#clip000)" d="M1788.12 1451.02 L1806.48 1451.02 L1806.48 1454.96 L1792.4 1454.96 L1792.4 1463.43 Q1793.42 1463.08 1794.44 1462.92 Q1795.46 1462.73 1796.48 1462.73 Q1802.26 1462.73 1805.64 1465.9 Q1809.02 1469.08 1809.02 1474.49 Q1809.02 1480.07 1805.55 1483.17 Q1802.08 1486.25 1795.76 1486.25 Q1793.58 1486.25 1791.31 1485.88 Q1789.07 1485.51 1786.66 1484.77 L1786.66 1480.07 Q1788.75 1481.2 1790.97 1481.76 Q1793.19 1482.32 1795.67 1482.32 Q1799.67 1482.32 1802.01 1480.21 Q1804.35 1478.1 1804.35 1474.49 Q1804.35 1470.88 1802.01 1468.77 Q1799.67 1466.67 1795.67 1466.67 Q1793.79 1466.67 1791.92 1467.08 Q1790.06 1467.5 1788.12 1468.38 L1788.12 1451.02 Z" fill="#000000" fill-rule="nonzero" fill-opacity="1" /><path clip-path="url(#clip000)" d="M1828.24 1454.1 Q1824.62 1454.1 1822.8 1457.66 Q1820.99 1461.2 1820.99 1468.33 Q1820.99 1475.44 1822.8 1479.01 Q1824.62 1482.55 1828.24 1482.55 Q1831.87 1482.55 1833.68 1479.01 Q1835.5 1475.44 1835.5 1468.33 Q1835.5 1461.2 1833.68 1457.66 Q1831.87 1454.1 1828.24 1454.1 M1828.24 1450.39 Q1834.05 1450.39 1837.1 1455 Q1840.18 1459.58 1840.18 1468.33 Q1840.18 1477.06 1837.1 1481.67 Q1834.05 1486.25 1828.24 1486.25 Q1822.43 1486.25 1819.35 1481.67 Q1816.29 1477.06 1816.29 1468.33 Q1816.29 1459.58 1819.35 1455 Q1822.43 1450.39 1828.24 1450.39 Z" fill="#000000" fill-rule="nonzero" fill-opacity="1" /><path clip-path="url(#clip000)" d="M2237.95 1481.64 L2245.58 1481.64 L2245.58 1455.28 L2237.27 1456.95 L2237.27 1452.69 L2245.54 1451.02 L2250.21 1451.02 L2250.21 1481.64 L2257.85 1481.64 L2257.85 1485.58 L2237.95 1485.58 L2237.95 1481.64 Z" fill="#000000" fill-rule="nonzero" fill-opacity="1" /><path clip-path="url(#clip000)" d="M2277.3 1454.1 Q2273.69 1454.1 2271.86 1457.66 Q2270.05 1461.2 2270.05 1468.33 Q2270.05 1475.44 2271.86 1479.01 Q2273.69 1482.55 2277.3 1482.55 Q2280.93 1482.55 2282.74 1479.01 Q2284.57 1475.44 2284.57 1468.33 Q2284.57 1461.2 2282.74 1457.66 Q2280.93 1454.1 2277.3 1454.1 M2277.3 1450.39 Q2283.11 1450.39 2286.16 1455 Q2289.24 1459.58 2289.24 1468.33 Q2289.24 1477.06 2286.16 1481.67 Q2283.11 1486.25 2277.3 1486.25 Q2271.49 1486.25 2268.41 1481.67 Q2265.35 1477.06 2265.35 1468.33 Q2265.35 1459.58 2268.41 1455 Q2271.49 1450.39 2277.3 1450.39 Z" fill="#000000" fill-rule="nonzero" fill-opacity="1" /><path clip-path="url(#clip000)" d="M2307.46 1454.1 Q2303.85 1454.1 2302.02 1457.66 Q2300.21 1461.2 2300.21 1468.33 Q2300.21 1475.44 2302.02 1479.01 Q2303.85 1482.55 2307.46 1482.55 Q2311.09 1482.55 2312.9 1479.01 Q2314.73 1475.44 2314.73 1468.33 Q2314.73 1461.2 2312.9 1457.66 Q2311.09 1454.1 2307.46 1454.1 M2307.46 1450.39 Q2313.27 1450.39 2316.32 1455 Q2319.4 1459.58 2319.4 1468.33 Q2319.4 1477.06 2316.32 1481.67 Q2313.27 1486.25 2307.46 1486.25 Q2301.65 1486.25 2298.57 1481.67 Q2295.51 1477.06 2295.51 1468.33 Q2295.51 1459.58 2298.57 1455 Q2301.65 1450.39 2307.46 1450.39 Z" fill="#000000" fill-rule="nonzero" fill-opacity="1" /><path clip-path="url(#clip000)" d="M2337.62 1454.1 Q2334.01 1454.1 2332.18 1457.66 Q2330.38 1461.2 2330.38 1468.33 Q2330.38 1475.44 2332.18 1479.01 Q2334.01 1482.55 2337.62 1482.55 Q2341.26 1482.55 2343.06 1479.01 Q2344.89 1475.44 2344.89 1468.33 Q2344.89 1461.2 2343.06 1457.66 Q2341.26 1454.1 2337.62 1454.1 M2337.62 1450.39 Q2343.43 1450.39 2346.49 1455 Q2349.57 1459.58 2349.57 1468.33 Q2349.57 1477.06 2346.49 1481.67 Q2343.43 1486.25 2337.62 1486.25 Q2331.81 1486.25 2328.73 1481.67 Q2325.68 1477.06 2325.68 1468.33 Q2325.68 1459.58 2328.73 1455 Q2331.81 1450.39 2337.62 1450.39 Z" fill="#000000" fill-rule="nonzero" fill-opacity="1" /><path clip-path="url(#clip000)" d="M1268.33 1524.18 L1268.33 1530.96 Q1265.08 1527.94 1261.39 1526.44 Q1257.73 1524.95 1253.59 1524.95 Q1245.44 1524.95 1241.11 1529.95 Q1236.78 1534.91 1236.78 1544.33 Q1236.78 1553.72 1241.11 1558.72 Q1245.44 1563.68 1253.59 1563.68 Q1257.73 1563.68 1261.39 1562.19 Q1265.08 1560.69 1268.33 1557.67 L1268.33 1564.38 Q1264.95 1566.68 1261.16 1567.82 Q1257.41 1568.97 1253.21 1568.97 Q1242.42 1568.97 1236.21 1562.38 Q1230 1555.76 1230 1544.33 Q1230 1532.87 1236.21 1526.28 Q1242.42 1519.66 1253.21 1519.66 Q1257.47 1519.66 1261.23 1520.81 Q1265.01 1521.92 1268.33 1524.18 Z" fill="#000000" fill-rule="nonzero" fill-opacity="1" /><path clip-path="url(#clip000)" d="M1308.49 1548.76 L1308.49 1551.62 L1281.57 1551.62 Q1281.95 1557.67 1285.19 1560.85 Q1288.47 1564 1294.3 1564 Q1297.67 1564 1300.82 1563.17 Q1304 1562.35 1307.12 1560.69 L1307.12 1566.23 Q1303.97 1567.57 1300.66 1568.27 Q1297.35 1568.97 1293.95 1568.97 Q1285.42 1568.97 1280.42 1564 Q1275.45 1559.04 1275.45 1550.57 Q1275.45 1541.82 1280.17 1536.69 Q1284.91 1531.54 1292.93 1531.54 Q1300.12 1531.54 1304.29 1536.18 Q1308.49 1540.8 1308.49 1548.76 M1302.64 1547.04 Q1302.57 1542.23 1299.93 1539.37 Q1297.32 1536.5 1292.99 1536.5 Q1288.09 1536.5 1285.13 1539.27 Q1282.2 1542.04 1281.76 1547.07 L1302.64 1547.04 Z" fill="#000000" fill-rule="nonzero" fill-opacity="1" /><path clip-path="url(#clip000)" d="M1318.1 1518.52 L1323.96 1518.52 L1323.96 1568.04 L1318.1 1568.04 L1318.1 1518.52 Z" fill="#000000" fill-rule="nonzero" fill-opacity="1" /><path clip-path="url(#clip000)" d="M1336.22 1518.52 L1342.07 1518.52 L1342.07 1568.04 L1336.22 1568.04 L1336.22 1518.52 Z" fill="#000000" fill-rule="nonzero" fill-opacity="1" /><path clip-path="url(#clip000)" d="M1377.05 1533.45 L1377.05 1538.98 Q1374.57 1537.71 1371.9 1537.07 Q1369.22 1536.44 1366.36 1536.44 Q1362 1536.44 1359.8 1537.77 Q1357.64 1539.11 1357.64 1541.79 Q1357.64 1543.82 1359.2 1545 Q1360.76 1546.15 1365.47 1547.2 L1367.47 1547.64 Q1373.71 1548.98 1376.32 1551.43 Q1378.96 1553.85 1378.96 1558.21 Q1378.96 1563.17 1375.01 1566.07 Q1371.1 1568.97 1364.22 1568.97 Q1361.36 1568.97 1358.24 1568.39 Q1355.15 1567.85 1351.72 1566.74 L1351.72 1560.69 Q1354.96 1562.38 1358.11 1563.24 Q1361.26 1564.07 1364.35 1564.07 Q1368.49 1564.07 1370.72 1562.66 Q1372.95 1561.23 1372.95 1558.65 Q1372.95 1556.27 1371.32 1554.99 Q1369.73 1553.72 1364.29 1552.54 L1362.25 1552.07 Q1356.81 1550.92 1354.39 1548.56 Q1351.97 1546.18 1351.97 1542.04 Q1351.97 1537.01 1355.54 1534.27 Q1359.1 1531.54 1365.66 1531.54 Q1368.9 1531.54 1371.77 1532.01 Q1374.63 1532.49 1377.05 1533.45 Z" fill="#000000" fill-rule="nonzero" fill-opacity="1" /><polyline clip-path="url(#clip002)" style="stroke:#000000; stroke-linecap:round; stroke-linejoin:round; stroke-width:2; stroke-opacity:0.1; fill:none" points="256.209,1192.75 2352.76,1192.75 "/>
<polyline clip-path="url(#clip002)" style="stroke:#000000; stroke-linecap:round; stroke-linejoin:round; stroke-width:2; stroke-opacity:0.1; fill:none" points="256.209,846.359 2352.76,846.359 "/>
<polyline clip-path="url(#clip002)" style="stroke:#000000; stroke-linecap:round; stroke-linejoin:round; stroke-width:2; stroke-opacity:0.1; fill:none" points="256.209,499.965 2352.76,499.965 "/>
<polyline clip-path="url(#clip002)" style="stroke:#000000; stroke-linecap:round; stroke-linejoin:round; stroke-width:2; stroke-opacity:0.1; fill:none" points="256.209,153.571 2352.76,153.571 "/>
<polyline clip-path="url(#clip000)" style="stroke:#000000; stroke-linecap:round; stroke-linejoin:round; stroke-width:4; stroke-opacity:1; fill:none" points="256.209,1423.18 256.209,123.472 "/>
<polyline clip-path="url(#clip000)" style="stroke:#000000; stroke-linecap:round; stroke-linejoin:round; stroke-width:4; stroke-opacity:1; fill:none" points="256.209,1192.75 275.106,1192.75 "/>
<polyline clip-path="url(#clip000)" style="stroke:#000000; stroke-linecap:round; stroke-linejoin:round; stroke-width:4; stroke-opacity:1; fill:none" points="256.209,846.359 275.106,846.359 "/>
<polyline clip-path="url(#clip000)" style="stroke:#000000; stroke-linecap:round; stroke-linejoin:round; stroke-width:4; stroke-opacity:1; fill:none" points="256.209,499.965 275.106,499.965 "/>
<polyline clip-path="url(#clip000)" style="stroke:#000000; stroke-linecap:round; stroke-linejoin:round; stroke-width:4; stroke-opacity:1; fill:none" points="256.209,153.571 275.106,153.571 "/>
<path clip-path="url(#clip000)" d="M114.26 1193.2 L143.936 1193.2 L143.936 1197.14 L114.26 1197.14 L114.26 1193.2 Z" fill="#000000" fill-rule="nonzero" fill-opacity="1" /><path clip-path="url(#clip000)" d="M164.028 1178.55 Q160.417 1178.55 158.589 1182.12 Q156.783 1185.66 156.783 1192.79 Q156.783 1199.89 158.589 1203.46 Q160.417 1207 164.028 1207 Q167.663 1207 169.468 1203.46 Q171.297 1199.89 171.297 1192.79 Q171.297 1185.66 169.468 1182.12 Q167.663 1178.55 164.028 1178.55 M164.028 1174.85 Q169.839 1174.85 172.894 1179.45 Q175.973 1184.04 175.973 1192.79 Q175.973 1201.51 172.894 1206.12 Q169.839 1210.7 164.028 1210.7 Q158.218 1210.7 155.14 1206.12 Q152.084 1201.51 152.084 1192.79 Q152.084 1184.04 155.14 1179.45 Q158.218 1174.85 164.028 1174.85 Z" fill="#000000" fill-rule="nonzero" fill-opacity="1" /><path clip-path="url(#clip000)" d="M184.19 1204.15 L189.075 1204.15 L189.075 1210.03 L184.19 1210.03 L184.19 1204.15 Z" fill="#000000" fill-rule="nonzero" fill-opacity="1" /><path clip-path="url(#clip000)" d="M199.306 1175.47 L217.662 1175.47 L217.662 1179.41 L203.588 1179.41 L203.588 1187.88 Q204.607 1187.53 205.625 1187.37 Q206.644 1187.19 207.662 1187.19 Q213.449 1187.19 216.829 1190.36 Q220.209 1193.53 220.209 1198.94 Q220.209 1204.52 216.736 1207.63 Q213.264 1210.7 206.945 1210.7 Q204.769 1210.7 202.5 1210.33 Q200.255 1209.96 197.848 1209.22 L197.848 1204.52 Q199.931 1205.66 202.153 1206.21 Q204.375 1206.77 206.852 1206.77 Q210.857 1206.77 213.195 1204.66 Q215.533 1202.56 215.533 1198.94 Q215.533 1195.33 213.195 1193.23 Q210.857 1191.12 206.852 1191.12 Q204.977 1191.12 203.102 1191.54 Q201.25 1191.95 199.306 1192.83 L199.306 1175.47 Z" fill="#000000" fill-rule="nonzero" fill-opacity="1" /><path clip-path="url(#clip000)" d="M163.033 832.158 Q159.422 832.158 157.593 835.722 Q155.788 839.264 155.788 846.394 Q155.788 853.5 157.593 857.065 Q159.422 860.607 163.033 860.607 Q166.667 860.607 168.473 857.065 Q170.302 853.5 170.302 846.394 Q170.302 839.264 168.473 835.722 Q166.667 832.158 163.033 832.158 M163.033 828.454 Q168.843 828.454 171.899 833.06 Q174.977 837.644 174.977 846.394 Q174.977 855.12 171.899 859.727 Q168.843 864.31 163.033 864.31 Q157.223 864.31 154.144 859.727 Q151.089 855.12 151.089 846.394 Q151.089 837.644 154.144 833.06 Q157.223 828.454 163.033 828.454 Z" fill="#000000" fill-rule="nonzero" fill-opacity="1" /><path clip-path="url(#clip000)" d="M183.195 857.759 L188.079 857.759 L188.079 863.639 L183.195 863.639 L183.195 857.759 Z" fill="#000000" fill-rule="nonzero" fill-opacity="1" /><path clip-path="url(#clip000)" d="M208.264 832.158 Q204.653 832.158 202.824 835.722 Q201.019 839.264 201.019 846.394 Q201.019 853.5 202.824 857.065 Q204.653 860.607 208.264 860.607 Q211.899 860.607 213.704 857.065 Q215.533 853.5 215.533 846.394 Q215.533 839.264 213.704 835.722 Q211.899 832.158 208.264 832.158 M208.264 828.454 Q214.074 828.454 217.13 833.06 Q220.209 837.644 220.209 846.394 Q220.209 855.12 217.13 859.727 Q214.074 864.31 208.264 864.31 Q202.454 864.31 199.375 859.727 Q196.32 855.12 196.32 846.394 Q196.32 837.644 199.375 833.06 Q202.454 828.454 208.264 828.454 Z" fill="#000000" fill-rule="nonzero" fill-opacity="1" /><path clip-path="url(#clip000)" d="M164.028 485.764 Q160.417 485.764 158.589 489.329 Q156.783 492.87 156.783 500 Q156.783 507.106 158.589 510.671 Q160.417 514.213 164.028 514.213 Q167.663 514.213 169.468 510.671 Q171.297 507.106 171.297 500 Q171.297 492.87 169.468 489.329 Q167.663 485.764 164.028 485.764 M164.028 482.06 Q169.839 482.06 172.894 486.667 Q175.973 491.25 175.973 500 Q175.973 508.727 172.894 513.333 Q169.839 517.916 164.028 517.916 Q158.218 517.916 155.14 513.333 Q152.084 508.727 152.084 500 Q152.084 491.25 155.14 486.667 Q158.218 482.06 164.028 482.06 Z" fill="#000000" fill-rule="nonzero" fill-opacity="1" /><path clip-path="url(#clip000)" d="M184.19 511.366 L189.075 511.366 L189.075 517.245 L184.19 517.245 L184.19 511.366 Z" fill="#000000" fill-rule="nonzero" fill-opacity="1" /><path clip-path="url(#clip000)" d="M199.306 482.685 L217.662 482.685 L217.662 486.62 L203.588 486.62 L203.588 495.093 Q204.607 494.745 205.625 494.583 Q206.644 494.398 207.662 494.398 Q213.449 494.398 216.829 497.569 Q220.209 500.741 220.209 506.157 Q220.209 511.736 216.736 514.838 Q213.264 517.916 206.945 517.916 Q204.769 517.916 202.5 517.546 Q200.255 517.176 197.848 516.435 L197.848 511.736 Q199.931 512.87 202.153 513.426 Q204.375 513.981 206.852 513.981 Q210.857 513.981 213.195 511.875 Q215.533 509.768 215.533 506.157 Q215.533 502.546 213.195 500.44 Q210.857 498.333 206.852 498.333 Q204.977 498.333 203.102 498.75 Q201.25 499.167 199.306 500.046 L199.306 482.685 Z" fill="#000000" fill-rule="nonzero" fill-opacity="1" /><path clip-path="url(#clip000)" d="M153.843 166.916 L161.482 166.916 L161.482 140.551 L153.172 142.217 L153.172 137.958 L161.436 136.291 L166.112 136.291 L166.112 166.916 L173.751 166.916 L173.751 170.851 L153.843 170.851 L153.843 166.916 Z" fill="#000000" fill-rule="nonzero" fill-opacity="1" /><path clip-path="url(#clip000)" d="M183.195 164.972 L188.079 164.972 L188.079 170.851 L183.195 170.851 L183.195 164.972 Z" fill="#000000" fill-rule="nonzero" fill-opacity="1" /><path clip-path="url(#clip000)" d="M208.264 139.37 Q204.653 139.37 202.824 142.935 Q201.019 146.476 201.019 153.606 Q201.019 160.713 202.824 164.277 Q204.653 167.819 208.264 167.819 Q211.899 167.819 213.704 164.277 Q215.533 160.713 215.533 153.606 Q215.533 146.476 213.704 142.935 Q211.899 139.37 208.264 139.37 M208.264 135.666 Q214.074 135.666 217.13 140.273 Q220.209 144.856 220.209 153.606 Q220.209 162.333 217.13 166.939 Q214.074 171.523 208.264 171.523 Q202.454 171.523 199.375 166.939 Q196.32 162.333 196.32 153.606 Q196.32 144.856 199.375 140.273 Q202.454 135.666 208.264 135.666 Z" fill="#000000" fill-rule="nonzero" fill-opacity="1" /><path clip-path="url(#clip000)" d="M18.0438 893.717 L24.314 893.717 Q22.5634 897.378 21.704 900.624 Q20.8447 903.871 20.8447 906.894 Q20.8447 912.146 22.8817 915.011 Q24.9187 917.843 28.6745 917.843 Q31.8255 917.843 33.4488 915.966 Q35.0402 914.056 36.0269 908.772 L36.8226 904.889 Q38.1912 897.696 41.6605 894.29 Q45.098 890.853 50.8908 890.853 Q57.7976 890.853 61.3624 895.5 Q64.9272 900.115 64.9272 909.059 Q64.9272 912.433 64.1633 916.252 Q63.3994 920.04 61.9035 924.114 L55.2831 924.114 Q57.4793 920.199 58.5933 916.443 Q59.7073 912.687 59.7073 909.059 Q59.7073 903.552 57.543 900.561 Q55.3786 897.569 51.3682 897.569 Q47.8671 897.569 45.8937 899.733 Q43.9204 901.866 42.9337 906.767 L42.1698 910.682 Q40.7375 917.875 37.682 921.09 Q34.6264 924.305 29.1837 924.305 Q22.8817 924.305 19.2532 919.88 Q15.6248 915.424 15.6248 907.626 Q15.6248 904.284 16.2295 900.815 Q16.8343 897.346 18.0438 893.717 Z" fill="#000000" fill-rule="nonzero" fill-opacity="1" /><path clip-path="url(#clip000)" d="M28.3562 881.081 L28.3562 875.225 L64.0042 875.225 L64.0042 881.081 L28.3562 881.081 M14.479 881.081 L14.479 875.225 L21.895 875.225 L21.895 881.081 L14.479 881.081 Z" fill="#000000" fill-rule="nonzero" fill-opacity="1" /><path clip-path="url(#clip000)" d="M35.1993 835.217 Q31.2526 833.02 29.3747 829.965 Q27.4968 826.909 27.4968 822.772 Q27.4968 817.202 31.4117 814.178 Q35.2948 811.154 42.4881 811.154 L64.0042 811.154 L64.0042 817.042 L42.679 817.042 Q37.5546 817.042 35.072 818.857 Q32.5894 820.671 32.5894 824.395 Q32.5894 828.946 35.6131 831.588 Q38.6368 834.23 43.8567 834.23 L64.0042 834.23 L64.0042 840.118 L42.679 840.118 Q37.5228 840.118 35.072 841.932 Q32.5894 843.747 32.5894 847.534 Q32.5894 852.022 35.6449 854.664 Q38.6686 857.306 43.8567 857.306 L64.0042 857.306 L64.0042 863.194 L28.3562 863.194 L28.3562 857.306 L33.8944 857.306 Q30.616 855.3 29.0564 852.499 Q27.4968 849.699 27.4968 845.847 Q27.4968 841.964 29.4702 839.259 Q31.4436 836.522 35.1993 835.217 Z" fill="#000000" fill-rule="nonzero" fill-opacity="1" /><path clip-path="url(#clip000)" d="M28.3562 799.473 L28.3562 793.617 L64.0042 793.617 L64.0042 799.473 L28.3562 799.473 M14.479 799.473 L14.479 793.617 L21.895 793.617 L21.895 799.473 L14.479 799.473 Z" fill="#000000" fill-rule="nonzero" fill-opacity="1" /><path clip-path="url(#clip000)" d="M14.479 781.363 L14.479 775.506 L64.0042 775.506 L64.0042 781.363 L14.479 781.363 Z" fill="#000000" fill-rule="nonzero" fill-opacity="1" /><path clip-path="url(#clip000)" d="M46.0847 747.052 Q46.0847 754.149 47.7079 756.887 Q49.3312 759.624 53.2461 759.624 Q56.3653 759.624 58.2114 757.587 Q60.0256 755.518 60.0256 751.985 Q60.0256 747.115 56.5881 744.187 Q53.1188 741.227 47.3897 741.227 L46.0847 741.227 L46.0847 747.052 M43.6657 735.37 L64.0042 735.37 L64.0042 741.227 L58.5933 741.227 Q61.8398 743.232 63.3994 746.224 Q64.9272 749.216 64.9272 753.545 Q64.9272 759.019 61.8716 762.266 Q58.7843 765.48 53.6281 765.48 Q47.6125 765.48 44.5569 761.47 Q41.5014 757.428 41.5014 749.439 L41.5014 741.227 L40.9285 741.227 Q36.8862 741.227 34.6901 743.901 Q32.4621 746.542 32.4621 751.348 Q32.4621 754.404 33.1941 757.3 Q33.9262 760.197 35.3903 762.87 L29.9795 762.87 Q28.7381 759.656 28.1334 756.632 Q27.4968 753.608 27.4968 750.744 Q27.4968 743.009 31.5072 739.19 Q35.5176 735.37 43.6657 735.37 Z" fill="#000000" fill-rule="nonzero" fill-opacity="1" /><path clip-path="url(#clip000)" d="M33.8307 702.651 Q33.2578 703.637 33.0032 704.815 Q32.7167 705.961 32.7167 707.361 Q32.7167 712.327 35.9632 715 Q39.1779 717.642 45.2253 717.642 L64.0042 717.642 L64.0042 723.53 L28.3562 723.53 L28.3562 717.642 L33.8944 717.642 Q30.6479 715.796 29.0883 712.836 Q27.4968 709.876 27.4968 705.643 Q27.4968 705.038 27.5923 704.306 Q27.656 703.574 27.8151 702.683 L33.8307 702.651 Z" fill="#000000" fill-rule="nonzero" fill-opacity="1" /><path clip-path="url(#clip000)" d="M28.3562 696.508 L28.3562 690.651 L64.0042 690.651 L64.0042 696.508 L28.3562 696.508 M14.479 696.508 L14.479 690.651 L21.895 690.651 L21.895 696.508 L14.479 696.508 Z" fill="#000000" fill-rule="nonzero" fill-opacity="1" /><path clip-path="url(#clip000)" d="M18.2347 672.605 L28.3562 672.605 L28.3562 660.542 L32.9077 660.542 L32.9077 672.605 L52.2594 672.605 Q56.6199 672.605 57.8613 671.427 Q59.1026 670.217 59.1026 666.557 L59.1026 660.542 L64.0042 660.542 L64.0042 666.557 Q64.0042 673.337 61.4897 675.915 Q58.9434 678.493 52.2594 678.493 L32.9077 678.493 L32.9077 682.79 L28.3562 682.79 L28.3562 678.493 L18.2347 678.493 L18.2347 672.605 Z" fill="#000000" fill-rule="nonzero" fill-opacity="1" /><path clip-path="url(#clip000)" d="M67.3143 638.007 Q73.68 640.49 75.6216 642.845 Q77.5631 645.2 77.5631 649.147 L77.5631 653.826 L72.6615 653.826 L72.6615 650.388 Q72.6615 647.969 71.5157 646.633 Q70.3699 645.296 66.1048 643.672 L63.4312 642.622 L28.3562 657.04 L28.3562 650.834 L56.238 639.694 L28.3562 628.554 L28.3562 622.347 L67.3143 638.007 Z" fill="#000000" fill-rule="nonzero" fill-opacity="1" /><path clip-path="url(#clip000)" d="M423.147 14.0809 L423.147 22.0612 Q418.489 19.8332 414.357 18.7395 Q410.225 17.6457 406.377 17.6457 Q399.693 17.6457 396.047 20.2383 Q392.441 22.8309 392.441 27.611 Q392.441 31.6214 394.831 33.6873 Q397.262 35.7128 403.987 36.9686 L408.929 37.9813 Q418.084 39.7232 422.418 44.1387 Q426.793 48.5136 426.793 55.8863 Q426.793 64.6767 420.879 69.2137 Q415.005 73.7508 403.622 73.7508 Q399.328 73.7508 394.467 72.7785 Q389.646 71.8063 384.461 69.9024 L384.461 61.4765 Q389.444 64.2716 394.224 65.6895 Q399.004 67.1073 403.622 67.1073 Q410.63 67.1073 414.438 64.3527 Q418.246 61.598 418.246 56.4939 Q418.246 52.0379 415.491 49.5264 Q412.777 47.0148 406.539 45.759 L401.556 44.7868 Q392.401 42.9639 388.31 39.075 Q384.218 35.1862 384.218 28.2591 Q384.218 20.2383 389.849 15.6203 Q395.52 11.0023 405.445 11.0023 Q409.698 11.0023 414.114 11.7719 Q418.529 12.5416 423.147 14.0809 Z" fill="#000000" fill-rule="nonzero" fill-opacity="1" /><path clip-path="url(#clip000)" d="M456.81 32.4315 Q450.815 32.4315 447.331 37.1306 Q443.847 41.7891 443.847 49.9314 Q443.847 58.0738 447.291 62.7728 Q450.774 67.4314 456.81 67.4314 Q462.765 67.4314 466.249 62.7323 Q469.733 58.0333 469.733 49.9314 Q469.733 41.8701 466.249 37.1711 Q462.765 32.4315 456.81 32.4315 M456.81 26.1121 Q466.532 26.1121 472.082 32.4315 Q477.632 38.7509 477.632 49.9314 Q477.632 61.0714 472.082 67.4314 Q466.532 73.7508 456.81 73.7508 Q447.048 73.7508 441.498 67.4314 Q435.989 61.0714 435.989 49.9314 Q435.989 38.7509 441.498 32.4315 Q447.048 26.1121 456.81 26.1121 Z" fill="#000000" fill-rule="nonzero" fill-opacity="1" /><path clip-path="url(#clip000)" d="M516.278 34.1734 Q515.022 33.4443 513.523 33.1202 Q512.065 32.7556 510.282 32.7556 Q503.963 32.7556 500.56 36.8875 Q497.198 40.9789 497.198 48.6757 L497.198 72.576 L489.704 72.576 L489.704 27.2059 L497.198 27.2059 L497.198 34.2544 Q499.547 30.1225 503.315 28.1376 Q507.082 26.1121 512.47 26.1121 Q513.239 26.1121 514.171 26.2337 Q515.103 26.3147 516.237 26.5172 L516.278 34.1734 Z" fill="#000000" fill-rule="nonzero" fill-opacity="1" /><path clip-path="url(#clip000)" d="M531.468 14.324 L531.468 27.2059 L546.821 27.2059 L546.821 32.9987 L531.468 32.9987 L531.468 57.6282 Q531.468 63.1779 532.967 64.7578 Q534.507 66.3376 539.165 66.3376 L546.821 66.3376 L546.821 72.576 L539.165 72.576 Q530.537 72.576 527.256 69.3758 Q523.974 66.1351 523.974 57.6282 L523.974 32.9987 L518.506 32.9987 L518.506 27.2059 L523.974 27.2059 L523.974 14.324 L531.468 14.324 Z" fill="#000000" fill-rule="nonzero" fill-opacity="1" /><path clip-path="url(#clip000)" d="M595.432 48.0275 L595.432 51.6733 L561.162 51.6733 Q561.648 59.3701 565.78 63.421 Q569.952 67.4314 577.365 67.4314 Q581.659 67.4314 585.67 66.3781 Q589.72 65.3249 593.69 63.2184 L593.69 70.267 Q589.68 71.9684 585.467 72.8596 Q581.254 73.7508 576.92 73.7508 Q566.063 73.7508 559.703 67.4314 Q553.384 61.1119 553.384 50.3365 Q553.384 39.1965 559.379 32.6746 Q565.415 26.1121 575.623 26.1121 Q584.778 26.1121 590.085 32.0264 Q595.432 37.9003 595.432 48.0275 M587.979 45.84 Q587.898 39.7232 584.535 36.0774 Q581.214 32.4315 575.704 32.4315 Q569.466 32.4315 565.699 35.9558 Q561.972 39.4801 561.405 45.8805 L587.979 45.84 Z" fill="#000000" fill-rule="nonzero" fill-opacity="1" /><path clip-path="url(#clip000)" d="M637.521 34.0924 L637.521 9.54393 L644.975 9.54393 L644.975 72.576 L637.521 72.576 L637.521 65.7705 Q635.172 69.8214 631.566 71.8063 Q628.002 73.7508 622.978 73.7508 Q614.755 73.7508 609.57 67.1883 Q604.425 60.6258 604.425 49.9314 Q604.425 39.2371 609.57 32.6746 Q614.755 26.1121 622.978 26.1121 Q628.002 26.1121 631.566 28.0971 Q635.172 30.0415 637.521 34.0924 M612.122 49.9314 Q612.122 58.1548 615.484 62.8538 Q618.887 67.5124 624.801 67.5124 Q630.716 67.5124 634.118 62.8538 Q637.521 58.1548 637.521 49.9314 Q637.521 41.7081 634.118 37.0496 Q630.716 32.3505 624.801 32.3505 Q618.887 32.3505 615.484 37.0496 Q612.122 41.7081 612.122 49.9314 Z" fill="#000000" fill-rule="nonzero" fill-opacity="1" /><path clip-path="url(#clip000)" d="M719.349 28.9478 L719.349 35.9153 Q716.19 34.1734 712.99 33.3227 Q709.83 32.4315 706.589 32.4315 Q699.338 32.4315 695.328 37.0496 Q691.317 41.6271 691.317 49.9314 Q691.317 58.2358 695.328 62.8538 Q699.338 67.4314 706.589 67.4314 Q709.83 67.4314 712.99 66.5807 Q716.19 65.6895 719.349 63.9476 L719.349 70.8341 Q716.23 72.2924 712.868 73.0216 Q709.546 73.7508 705.779 73.7508 Q695.53 73.7508 689.494 67.3098 Q683.458 60.8689 683.458 49.9314 Q683.458 38.832 689.535 32.472 Q695.652 26.1121 706.265 26.1121 Q709.708 26.1121 712.99 26.8413 Q716.271 27.5299 719.349 28.9478 Z" fill="#000000" fill-rule="nonzero" fill-opacity="1" /><path clip-path="url(#clip000)" d="M749.893 32.4315 Q743.898 32.4315 740.414 37.1306 Q736.93 41.7891 736.93 49.9314 Q736.93 58.0738 740.374 62.7728 Q743.857 67.4314 749.893 67.4314 Q755.848 67.4314 759.332 62.7323 Q762.816 58.0333 762.816 49.9314 Q762.816 41.8701 759.332 37.1711 Q755.848 32.4315 749.893 32.4315 M749.893 26.1121 Q759.615 26.1121 765.165 32.4315 Q770.715 38.7509 770.715 49.9314 Q770.715 61.0714 765.165 67.4314 Q759.615 73.7508 749.893 73.7508 Q740.131 73.7508 734.581 67.4314 Q729.072 61.0714 729.072 49.9314 Q729.072 38.7509 734.581 32.4315 Q740.131 26.1121 749.893 26.1121 Z" fill="#000000" fill-rule="nonzero" fill-opacity="1" /><path clip-path="url(#clip000)" d="M811.994 28.5427 L811.994 35.5912 Q808.834 33.9709 805.431 33.1607 Q802.028 32.3505 798.383 32.3505 Q792.833 32.3505 790.038 34.0519 Q787.283 35.7533 787.283 39.156 Q787.283 41.7486 789.268 43.2475 Q791.253 44.7058 797.248 46.0426 L799.8 46.6097 Q807.74 48.3111 811.062 51.4303 Q814.424 54.509 814.424 60.0587 Q814.424 66.3781 809.401 70.0644 Q804.418 73.7508 795.668 73.7508 Q792.023 73.7508 788.053 73.0216 Q784.123 72.3329 779.748 70.9151 L779.748 63.2184 Q783.88 65.3654 787.891 66.4591 Q791.901 67.5124 795.83 67.5124 Q801.097 67.5124 803.932 65.73 Q806.768 63.9071 806.768 60.6258 Q806.768 57.5877 804.702 55.9673 Q802.677 54.3469 795.749 52.8481 L793.157 52.2405 Q786.23 50.7821 783.151 47.7845 Q780.072 44.7463 780.072 39.4801 Q780.072 33.0797 784.609 29.5959 Q789.147 26.1121 797.491 26.1121 Q801.623 26.1121 805.269 26.7198 Q808.915 27.3274 811.994 28.5427 Z" fill="#000000" fill-rule="nonzero" fill-opacity="1" /><path clip-path="url(#clip000)" d="M826.293 27.2059 L833.747 27.2059 L833.747 72.576 L826.293 72.576 L826.293 27.2059 M826.293 9.54393 L833.747 9.54393 L833.747 18.9825 L826.293 18.9825 L826.293 9.54393 Z" fill="#000000" fill-rule="nonzero" fill-opacity="1" /><path clip-path="url(#clip000)" d="M887.057 45.1919 L887.057 72.576 L879.603 72.576 L879.603 45.4349 Q879.603 38.994 877.092 35.7938 Q874.58 32.5936 869.557 32.5936 Q863.521 32.5936 860.037 36.4419 Q856.554 40.2903 856.554 46.9338 L856.554 72.576 L849.059 72.576 L849.059 27.2059 L856.554 27.2059 L856.554 34.2544 Q859.227 30.163 862.832 28.1376 Q866.478 26.1121 871.218 26.1121 Q879.036 26.1121 883.046 30.9732 Q887.057 35.7938 887.057 45.1919 Z" fill="#000000" fill-rule="nonzero" fill-opacity="1" /><path clip-path="url(#clip000)" d="M940.731 48.0275 L940.731 51.6733 L906.461 51.6733 Q906.947 59.3701 911.079 63.421 Q915.251 67.4314 922.664 67.4314 Q926.958 67.4314 930.969 66.3781 Q935.02 65.3249 938.989 63.2184 L938.989 70.267 Q934.979 71.9684 930.766 72.8596 Q926.553 73.7508 922.219 73.7508 Q911.362 73.7508 905.002 67.4314 Q898.683 61.1119 898.683 50.3365 Q898.683 39.1965 904.678 32.6746 Q910.714 26.1121 920.922 26.1121 Q930.077 26.1121 935.384 32.0264 Q940.731 37.9003 940.731 48.0275 M933.278 45.84 Q933.197 39.7232 929.834 36.0774 Q926.513 32.4315 921.003 32.4315 Q914.765 32.4315 910.998 35.9558 Q907.271 39.4801 906.704 45.8805 L933.278 45.84 Z" fill="#000000" fill-rule="nonzero" fill-opacity="1" /><path clip-path="url(#clip000)" d="M1008.26 28.5427 L1008.26 35.5912 Q1005.1 33.9709 1001.7 33.1607 Q998.295 32.3505 994.649 32.3505 Q989.099 32.3505 986.304 34.0519 Q983.549 35.7533 983.549 39.156 Q983.549 41.7486 985.534 43.2475 Q987.519 44.7058 993.515 46.0426 L996.067 46.6097 Q1004.01 48.3111 1007.33 51.4303 Q1010.69 54.509 1010.69 60.0587 Q1010.69 66.3781 1005.67 70.0644 Q1000.68 73.7508 991.935 73.7508 Q988.289 73.7508 984.319 73.0216 Q980.39 72.3329 976.015 70.9151 L976.015 63.2184 Q980.147 65.3654 984.157 66.4591 Q988.167 67.5124 992.097 67.5124 Q997.363 67.5124 1000.2 65.73 Q1003.03 63.9071 1003.03 60.6258 Q1003.03 57.5877 1000.97 55.9673 Q998.943 54.3469 992.016 52.8481 L989.423 52.2405 Q982.496 50.7821 979.417 47.7845 Q976.339 44.7463 976.339 39.4801 Q976.339 33.0797 980.876 29.5959 Q985.413 26.1121 993.758 26.1121 Q997.89 26.1121 1001.54 26.7198 Q1005.18 27.3274 1008.26 28.5427 Z" fill="#000000" fill-rule="nonzero" fill-opacity="1" /><path clip-path="url(#clip000)" d="M1022.56 27.2059 L1030.01 27.2059 L1030.01 72.576 L1022.56 72.576 L1022.56 27.2059 M1022.56 9.54393 L1030.01 9.54393 L1030.01 18.9825 L1022.56 18.9825 L1022.56 9.54393 Z" fill="#000000" fill-rule="nonzero" fill-opacity="1" /><path clip-path="url(#clip000)" d="M1080.93 35.9153 Q1083.73 30.8922 1087.62 28.5022 Q1091.51 26.1121 1096.77 26.1121 Q1103.86 26.1121 1107.71 31.0947 Q1111.56 36.0368 1111.56 45.1919 L1111.56 72.576 L1104.06 72.576 L1104.06 45.4349 Q1104.06 38.913 1101.75 35.7533 Q1099.45 32.5936 1094.71 32.5936 Q1088.91 32.5936 1085.55 36.4419 Q1082.19 40.2903 1082.19 46.9338 L1082.19 72.576 L1074.69 72.576 L1074.69 45.4349 Q1074.69 38.8725 1072.39 35.7533 Q1070.08 32.5936 1065.26 32.5936 Q1059.54 32.5936 1056.18 36.4824 Q1052.82 40.3308 1052.82 46.9338 L1052.82 72.576 L1045.33 72.576 L1045.33 27.2059 L1052.82 27.2059 L1052.82 34.2544 Q1055.37 30.082 1058.94 28.0971 Q1062.5 26.1121 1067.4 26.1121 Q1072.35 26.1121 1075.79 28.6237 Q1079.27 31.1352 1080.93 35.9153 Z" fill="#000000" fill-rule="nonzero" fill-opacity="1" /><path clip-path="url(#clip000)" d="M1126.42 27.2059 L1133.88 27.2059 L1133.88 72.576 L1126.42 72.576 L1126.42 27.2059 M1126.42 9.54393 L1133.88 9.54393 L1133.88 18.9825 L1126.42 18.9825 L1126.42 9.54393 Z" fill="#000000" fill-rule="nonzero" fill-opacity="1" /><path clip-path="url(#clip000)" d="M1149.47 9.54393 L1156.93 9.54393 L1156.93 72.576 L1149.47 72.576 L1149.47 9.54393 Z" fill="#000000" fill-rule="nonzero" fill-opacity="1" /><path clip-path="url(#clip000)" d="M1193.14 49.7694 Q1184.11 49.7694 1180.63 51.8354 Q1177.14 53.9013 1177.14 58.8839 Q1177.14 62.8538 1179.73 65.2034 Q1182.37 67.5124 1186.86 67.5124 Q1193.06 67.5124 1196.79 63.1374 Q1200.56 58.7219 1200.56 51.4303 L1200.56 49.7694 L1193.14 49.7694 M1208.01 46.6907 L1208.01 72.576 L1200.56 72.576 L1200.56 65.6895 Q1198 69.8214 1194.2 71.8063 Q1190.39 73.7508 1184.88 73.7508 Q1177.91 73.7508 1173.78 69.8619 Q1169.69 65.9325 1169.69 59.3701 Q1169.69 51.7138 1174.79 47.825 Q1179.94 43.9361 1190.11 43.9361 L1200.56 43.9361 L1200.56 43.2069 Q1200.56 38.0623 1197.15 35.2672 Q1193.79 32.4315 1187.67 32.4315 Q1183.79 32.4315 1180.1 33.3632 Q1176.41 34.295 1173.01 36.1584 L1173.01 29.2718 Q1177.1 27.692 1180.95 26.9223 Q1184.8 26.1121 1188.44 26.1121 Q1198.29 26.1121 1203.15 31.2163 Q1208.01 36.3204 1208.01 46.6907 Z" fill="#000000" fill-rule="nonzero" fill-opacity="1" /><path clip-path="url(#clip000)" d="M1249.65 34.1734 Q1248.4 33.4443 1246.9 33.1202 Q1245.44 32.7556 1243.66 32.7556 Q1237.34 32.7556 1233.94 36.8875 Q1230.57 40.9789 1230.57 48.6757 L1230.57 72.576 L1223.08 72.576 L1223.08 27.2059 L1230.57 27.2059 L1230.57 34.2544 Q1232.92 30.1225 1236.69 28.1376 Q1240.46 26.1121 1245.85 26.1121 Q1246.62 26.1121 1247.55 26.2337 Q1248.48 26.3147 1249.61 26.5172 L1249.65 34.1734 Z" fill="#000000" fill-rule="nonzero" fill-opacity="1" /><path clip-path="url(#clip000)" d="M1257.47 27.2059 L1264.93 27.2059 L1264.93 72.576 L1257.47 72.576 L1257.47 27.2059 M1257.47 9.54393 L1264.93 9.54393 L1264.93 18.9825 L1257.47 18.9825 L1257.47 9.54393 Z" fill="#000000" fill-rule="nonzero" fill-opacity="1" /><path clip-path="url(#clip000)" d="M1287.89 14.324 L1287.89 27.2059 L1303.25 27.2059 L1303.25 32.9987 L1287.89 32.9987 L1287.89 57.6282 Q1287.89 63.1779 1289.39 64.7578 Q1290.93 66.3376 1295.59 66.3376 L1303.25 66.3376 L1303.25 72.576 L1295.59 72.576 Q1286.96 72.576 1283.68 69.3758 Q1280.4 66.1351 1280.4 57.6282 L1280.4 32.9987 L1274.93 32.9987 L1274.93 27.2059 L1280.4 27.2059 L1280.4 14.324 L1287.89 14.324 Z" fill="#000000" fill-rule="nonzero" fill-opacity="1" /><path clip-path="url(#clip000)" d="M1313.05 27.2059 L1320.5 27.2059 L1320.5 72.576 L1313.05 72.576 L1313.05 27.2059 M1313.05 9.54393 L1320.5 9.54393 L1320.5 18.9825 L1313.05 18.9825 L1313.05 9.54393 Z" fill="#000000" fill-rule="nonzero" fill-opacity="1" /><path clip-path="url(#clip000)" d="M1374.91 48.0275 L1374.91 51.6733 L1340.64 51.6733 Q1341.12 59.3701 1345.25 63.421 Q1349.43 67.4314 1356.84 67.4314 Q1361.13 67.4314 1365.14 66.3781 Q1369.2 65.3249 1373.17 63.2184 L1373.17 70.267 Q1369.15 71.9684 1364.94 72.8596 Q1360.73 73.7508 1356.39 73.7508 Q1345.54 73.7508 1339.18 67.4314 Q1332.86 61.1119 1332.86 50.3365 Q1332.86 39.1965 1338.85 32.6746 Q1344.89 26.1121 1355.1 26.1121 Q1364.25 26.1121 1369.56 32.0264 Q1374.91 37.9003 1374.91 48.0275 M1367.45 45.84 Q1367.37 39.7232 1364.01 36.0774 Q1360.69 32.4315 1355.18 32.4315 Q1348.94 32.4315 1345.17 35.9558 Q1341.45 39.4801 1340.88 45.8805 L1367.45 45.84 Z" fill="#000000" fill-rule="nonzero" fill-opacity="1" /><path clip-path="url(#clip000)" d="M1416.06 28.5427 L1416.06 35.5912 Q1412.9 33.9709 1409.5 33.1607 Q1406.1 32.3505 1402.45 32.3505 Q1396.9 32.3505 1394.11 34.0519 Q1391.35 35.7533 1391.35 39.156 Q1391.35 41.7486 1393.34 43.2475 Q1395.32 44.7058 1401.32 46.0426 L1403.87 46.6097 Q1411.81 48.3111 1415.13 51.4303 Q1418.49 54.509 1418.49 60.0587 Q1418.49 66.3781 1413.47 70.0644 Q1408.49 73.7508 1399.74 73.7508 Q1396.09 73.7508 1392.12 73.0216 Q1388.19 72.3329 1383.82 70.9151 L1383.82 63.2184 Q1387.95 65.3654 1391.96 66.4591 Q1395.97 67.5124 1399.9 67.5124 Q1405.17 67.5124 1408 65.73 Q1410.84 63.9071 1410.84 60.6258 Q1410.84 57.5877 1408.77 55.9673 Q1406.75 54.3469 1399.82 52.8481 L1397.23 52.2405 Q1390.3 50.7821 1387.22 47.7845 Q1384.14 44.7463 1384.14 39.4801 Q1384.14 33.0797 1388.68 29.5959 Q1393.22 26.1121 1401.56 26.1121 Q1405.69 26.1121 1409.34 26.7198 Q1412.99 27.3274 1416.06 28.5427 Z" fill="#000000" fill-rule="nonzero" fill-opacity="1" /><path clip-path="url(#clip000)" d="M1489.39 28.9478 L1489.39 35.9153 Q1486.23 34.1734 1483.03 33.3227 Q1479.87 32.4315 1476.63 32.4315 Q1469.37 32.4315 1465.36 37.0496 Q1461.35 41.6271 1461.35 49.9314 Q1461.35 58.2358 1465.36 62.8538 Q1469.37 67.4314 1476.63 67.4314 Q1479.87 67.4314 1483.03 66.5807 Q1486.23 65.6895 1489.39 63.9476 L1489.39 70.8341 Q1486.27 72.2924 1482.9 73.0216 Q1479.58 73.7508 1475.82 73.7508 Q1465.57 73.7508 1459.53 67.3098 Q1453.49 60.8689 1453.49 49.9314 Q1453.49 38.832 1459.57 32.472 Q1465.69 26.1121 1476.3 26.1121 Q1479.74 26.1121 1483.03 26.8413 Q1486.31 27.5299 1489.39 28.9478 Z" fill="#000000" fill-rule="nonzero" fill-opacity="1" /><path clip-path="url(#clip000)" d="M1541.16 48.0275 L1541.16 51.6733 L1506.89 51.6733 Q1507.37 59.3701 1511.5 63.421 Q1515.68 67.4314 1523.09 67.4314 Q1527.38 67.4314 1531.39 66.3781 Q1535.44 65.3249 1539.41 63.2184 L1539.41 70.267 Q1535.4 71.9684 1531.19 72.8596 Q1526.98 73.7508 1522.64 73.7508 Q1511.79 73.7508 1505.43 67.4314 Q1499.11 61.1119 1499.11 50.3365 Q1499.11 39.1965 1505.1 32.6746 Q1511.14 26.1121 1521.35 26.1121 Q1530.5 26.1121 1535.81 32.0264 Q1541.16 37.9003 1541.16 48.0275 M1533.7 45.84 Q1533.62 39.7232 1530.26 36.0774 Q1526.94 32.4315 1521.43 32.4315 Q1515.19 32.4315 1511.42 35.9558 Q1507.7 39.4801 1507.13 45.8805 L1533.7 45.84 Z" fill="#000000" fill-rule="nonzero" fill-opacity="1" /><path clip-path="url(#clip000)" d="M1553.39 9.54393 L1560.84 9.54393 L1560.84 72.576 L1553.39 72.576 L1553.39 9.54393 Z" fill="#000000" fill-rule="nonzero" fill-opacity="1" /><path clip-path="url(#clip000)" d="M1576.44 9.54393 L1583.89 9.54393 L1583.89 72.576 L1576.44 72.576 L1576.44 9.54393 Z" fill="#000000" fill-rule="nonzero" fill-opacity="1" /><path clip-path="url(#clip000)" d="M1651.71 39.9662 Q1657.58 41.222 1660.86 45.1919 Q1664.18 49.1618 1664.18 54.9951 Q1664.18 63.9476 1658.02 68.8492 Q1651.87 73.7508 1640.53 73.7508 Q1636.72 73.7508 1632.67 72.9811 Q1628.66 72.2519 1624.36 70.7531 L1624.36 62.8538 Q1627.76 64.8388 1631.82 65.8515 Q1635.87 66.8642 1640.28 66.8642 Q1647.98 66.8642 1651.99 63.826 Q1656.04 60.7879 1656.04 54.9951 Q1656.04 49.6479 1652.27 46.6502 Q1648.55 43.612 1641.86 43.612 L1634.81 43.612 L1634.81 36.8875 L1642.19 36.8875 Q1648.22 36.8875 1651.42 34.4975 Q1654.62 32.067 1654.62 27.5299 Q1654.62 22.8714 1651.3 20.4004 Q1648.02 17.8888 1641.86 17.8888 Q1638.5 17.8888 1634.65 18.618 Q1630.8 19.3471 1626.18 20.8865 L1626.18 13.5948 Q1630.84 12.2985 1634.89 11.6504 Q1638.99 11.0023 1642.59 11.0023 Q1651.91 11.0023 1657.34 15.2557 Q1662.76 19.4686 1662.76 26.6793 Q1662.76 31.7024 1659.89 35.1862 Q1657.01 38.6294 1651.71 39.9662 Z" fill="#000000" fill-rule="nonzero" fill-opacity="1" /><path clip-path="url(#clip000)" d="M1679.78 12.096 L1711.9 12.096 L1711.9 18.9825 L1687.27 18.9825 L1687.27 33.8088 Q1689.05 33.2012 1690.84 32.9176 Q1692.62 32.5936 1694.4 32.5936 Q1704.53 32.5936 1710.44 38.1433 Q1716.36 43.6931 1716.36 53.1722 Q1716.36 62.9348 1710.28 68.3631 Q1704.21 73.7508 1693.15 73.7508 Q1689.34 73.7508 1685.37 73.1026 Q1681.44 72.4545 1677.23 71.1582 L1677.23 62.9348 Q1680.87 64.9198 1684.76 65.892 Q1688.65 66.8642 1692.98 66.8642 Q1699.99 66.8642 1704.08 63.1779 Q1708.18 59.4916 1708.18 53.1722 Q1708.18 46.8528 1704.08 43.1664 Q1699.99 39.4801 1692.98 39.4801 Q1689.7 39.4801 1686.42 40.2093 Q1683.18 40.9384 1679.78 42.4778 L1679.78 12.096 Z" fill="#000000" fill-rule="nonzero" fill-opacity="1" /><path clip-path="url(#clip000)" d="M1749.98 17.4837 Q1743.66 17.4837 1740.46 23.7221 Q1737.3 29.92 1737.3 42.3968 Q1737.3 54.833 1740.46 61.0714 Q1743.66 67.2693 1749.98 67.2693 Q1756.34 67.2693 1759.5 61.0714 Q1762.7 54.833 1762.7 42.3968 Q1762.7 29.92 1759.5 23.7221 Q1756.34 17.4837 1749.98 17.4837 M1749.98 11.0023 Q1760.15 11.0023 1765.5 19.0636 Q1770.88 27.0843 1770.88 42.3968 Q1770.88 57.6687 1765.5 65.73 Q1760.15 73.7508 1749.98 73.7508 Q1739.81 73.7508 1734.43 65.73 Q1729.08 57.6687 1729.08 42.3968 Q1729.08 27.0843 1734.43 19.0636 Q1739.81 11.0023 1749.98 11.0023 Z" fill="#000000" fill-rule="nonzero" fill-opacity="1" /><path clip-path="url(#clip000)" d="M1810.58 27.2059 L1818.04 27.2059 L1818.04 72.576 L1810.58 72.576 L1810.58 27.2059 M1810.58 9.54393 L1818.04 9.54393 L1818.04 18.9825 L1810.58 18.9825 L1810.58 9.54393 Z" fill="#000000" fill-rule="nonzero" fill-opacity="1" /><path clip-path="url(#clip000)" d="M1841 14.324 L1841 27.2059 L1856.36 27.2059 L1856.36 32.9987 L1841 32.9987 L1841 57.6282 Q1841 63.1779 1842.5 64.7578 Q1844.04 66.3376 1848.7 66.3376 L1856.36 66.3376 L1856.36 72.576 L1848.7 72.576 Q1840.07 72.576 1836.79 69.3758 Q1833.51 66.1351 1833.51 57.6282 L1833.51 32.9987 L1828.04 32.9987 L1828.04 27.2059 L1833.51 27.2059 L1833.51 14.324 L1841 14.324 Z" fill="#000000" fill-rule="nonzero" fill-opacity="1" /><path clip-path="url(#clip000)" d="M1904.97 48.0275 L1904.97 51.6733 L1870.7 51.6733 Q1871.18 59.3701 1875.32 63.421 Q1879.49 67.4314 1886.9 67.4314 Q1891.19 67.4314 1895.21 66.3781 Q1899.26 65.3249 1903.23 63.2184 L1903.23 70.267 Q1899.22 71.9684 1895 72.8596 Q1890.79 73.7508 1886.46 73.7508 Q1875.6 73.7508 1869.24 67.4314 Q1862.92 61.1119 1862.92 50.3365 Q1862.92 39.1965 1868.92 32.6746 Q1874.95 26.1121 1885.16 26.1121 Q1894.31 26.1121 1899.62 32.0264 Q1904.97 37.9003 1904.97 48.0275 M1897.51 45.84 Q1897.43 39.7232 1894.07 36.0774 Q1890.75 32.4315 1885.24 32.4315 Q1879 32.4315 1875.23 35.9558 Q1871.51 39.4801 1870.94 45.8805 L1897.51 45.84 Z" fill="#000000" fill-rule="nonzero" fill-opacity="1" /><path clip-path="url(#clip000)" d="M1943.49 34.1734 Q1942.24 33.4443 1940.74 33.1202 Q1939.28 32.7556 1937.5 32.7556 Q1931.18 32.7556 1927.77 36.8875 Q1924.41 40.9789 1924.41 48.6757 L1924.41 72.576 L1916.92 72.576 L1916.92 27.2059 L1924.41 27.2059 L1924.41 34.2544 Q1926.76 30.1225 1930.53 28.1376 Q1934.3 26.1121 1939.68 26.1121 Q1940.45 26.1121 1941.39 26.2337 Q1942.32 26.3147 1943.45 26.5172 L1943.49 34.1734 Z" fill="#000000" fill-rule="nonzero" fill-opacity="1" /><path clip-path="url(#clip000)" d="M1971.93 49.7694 Q1962.9 49.7694 1959.41 51.8354 Q1955.93 53.9013 1955.93 58.8839 Q1955.93 62.8538 1958.52 65.2034 Q1961.15 67.5124 1965.65 67.5124 Q1971.85 67.5124 1975.58 63.1374 Q1979.34 58.7219 1979.34 51.4303 L1979.34 49.7694 L1971.93 49.7694 M1986.8 46.6907 L1986.8 72.576 L1979.34 72.576 L1979.34 65.6895 Q1976.79 69.8214 1972.98 71.8063 Q1969.17 73.7508 1963.67 73.7508 Q1956.7 73.7508 1952.57 69.8619 Q1948.47 65.9325 1948.47 59.3701 Q1948.47 51.7138 1953.58 47.825 Q1958.72 43.9361 1968.89 43.9361 L1979.34 43.9361 L1979.34 43.2069 Q1979.34 38.0623 1975.94 35.2672 Q1972.58 32.4315 1966.46 32.4315 Q1962.57 32.4315 1958.89 33.3632 Q1955.2 34.295 1951.8 36.1584 L1951.8 29.2718 Q1955.89 27.692 1959.74 26.9223 Q1963.58 26.1121 1967.23 26.1121 Q1977.07 26.1121 1981.94 31.2163 Q1986.8 36.3204 1986.8 46.6907 Z" fill="#000000" fill-rule="nonzero" fill-opacity="1" /><path clip-path="url(#clip000)" d="M2009.52 14.324 L2009.52 27.2059 L2024.87 27.2059 L2024.87 32.9987 L2009.52 32.9987 L2009.52 57.6282 Q2009.52 63.1779 2011.02 64.7578 Q2012.56 66.3376 2017.22 66.3376 L2024.87 66.3376 L2024.87 72.576 L2017.22 72.576 Q2008.59 72.576 2005.31 69.3758 Q2002.03 66.1351 2002.03 57.6282 L2002.03 32.9987 L1996.56 32.9987 L1996.56 27.2059 L2002.03 27.2059 L2002.03 14.324 L2009.52 14.324 Z" fill="#000000" fill-rule="nonzero" fill-opacity="1" /><path clip-path="url(#clip000)" d="M2034.68 27.2059 L2042.13 27.2059 L2042.13 72.576 L2034.68 72.576 L2034.68 27.2059 M2034.68 9.54393 L2042.13 9.54393 L2042.13 18.9825 L2034.68 18.9825 L2034.68 9.54393 Z" fill="#000000" fill-rule="nonzero" fill-opacity="1" /><path clip-path="url(#clip000)" d="M2075.31 32.4315 Q2069.31 32.4315 2065.83 37.1306 Q2062.35 41.7891 2062.35 49.9314 Q2062.35 58.0738 2065.79 62.7728 Q2069.27 67.4314 2075.31 67.4314 Q2081.26 67.4314 2084.75 62.7323 Q2088.23 58.0333 2088.23 49.9314 Q2088.23 41.8701 2084.75 37.1711 Q2081.26 32.4315 2075.31 32.4315 M2075.31 26.1121 Q2085.03 26.1121 2090.58 32.4315 Q2096.13 38.7509 2096.13 49.9314 Q2096.13 61.0714 2090.58 67.4314 Q2085.03 73.7508 2075.31 73.7508 Q2065.55 73.7508 2060 67.4314 Q2054.49 61.0714 2054.49 49.9314 Q2054.49 38.7509 2060 32.4315 Q2065.55 26.1121 2075.31 26.1121 Z" fill="#000000" fill-rule="nonzero" fill-opacity="1" /><path clip-path="url(#clip000)" d="M2146.2 45.1919 L2146.2 72.576 L2138.75 72.576 L2138.75 45.4349 Q2138.75 38.994 2136.23 35.7938 Q2133.72 32.5936 2128.7 32.5936 Q2122.66 32.5936 2119.18 36.4419 Q2115.7 40.2903 2115.7 46.9338 L2115.7 72.576 L2108.2 72.576 L2108.2 27.2059 L2115.7 27.2059 L2115.7 34.2544 Q2118.37 30.163 2121.98 28.1376 Q2125.62 26.1121 2130.36 26.1121 Q2138.18 26.1121 2142.19 30.9732 Q2146.2 35.7938 2146.2 45.1919 Z" fill="#000000" fill-rule="nonzero" fill-opacity="1" /><path clip-path="url(#clip000)" d="M2189.91 65.6895 L2203.28 65.6895 L2203.28 19.5497 L2188.73 22.4663 L2188.73 15.0127 L2203.2 12.096 L2211.38 12.096 L2211.38 65.6895 L2224.75 65.6895 L2224.75 72.576 L2189.91 72.576 L2189.91 65.6895 Z" fill="#000000" fill-rule="nonzero" fill-opacity="1" /><polyline clip-path="url(#clip002)" style="stroke:#009af9; stroke-linecap:round; stroke-linejoin:round; stroke-width:4; stroke-opacity:1; fill:none" points="315.545,1386.4 317.525,1327.44 319.505,1310.7 321.484,1303.4 323.464,1302.97 325.444,1296.11 327.424,1295.4 329.404,1294.89 331.384,1291.78 333.364,1282.24 335.343,1279.95 337.323,1277.56 339.303,1276.64 341.283,1275.13 343.263,1274.48 345.243,1272.38 347.223,1269.48 349.202,1268.86 351.182,1266.44 353.162,1265.17 355.142,1264.59 357.122,1264.42 359.102,1264.12 361.082,1262.92 363.061,1261.46 365.041,1261.19 367.021,1260.63 369.001,1258.85 370.981,1258.14 372.961,1257.23 374.941,1256.73 376.92,1255.52 378.9,1254.95 380.88,1252.92 382.86,1252.57 384.84,1251.02 386.82,1248.47 388.8,1247.66 390.779,1247.11 392.759,1246.65 394.739,1245.78 396.719,1245.68 398.699,1243.26 400.679,1240.72 402.659,1237.69 404.638,1237.09 406.618,1235.72 408.598,1235.44 410.578,1234.98 412.558,1233.18 414.538,1232.86 416.517,1232.8 418.497,1232.45 420.477,1232.29 422.457,1231.98 424.437,1231.56 426.417,1231.05 428.397,1229.75 430.376,1229.66 432.356,1229.64 434.336,1226.24 436.316,1223.6 438.296,1223.17 440.276,1221.27 442.256,1220.52 444.235,1218.42 446.215,1218.22 448.195,1218.18 450.175,1217.07 452.155,1215.37 454.135,1215.29 456.115,1215.24 458.094,1213.74 460.074,1213.64 462.054,1213.6 464.034,1211.2 466.014,1211.01 467.994,1210.93 469.974,1209.97 471.953,1209.95 473.933,1209.82 475.913,1209.71 477.893,1208.46 479.873,1208.44 481.853,1208.25 483.833,1208.21 485.812,1207.81 487.792,1207.67 489.772,1206.7 491.752,1206.1 493.732,1205.68 495.712,1205.46 497.692,1204.22 499.671,1202.32 501.651,1202.03 503.631,1201.98 505.611,1201.93 507.591,1201.69 509.571,1201.22 511.551,1200.7 513.53,1199.39 515.51,1199.32 517.49,1198.84 519.47,1198.51 521.45,1197.76 523.43,1197.64 525.409,1197.5 527.389,1197.49 529.369,1197.27 531.349,1197.21 533.329,1196.02 535.309,1195.82 537.289,1195.69 539.268,1195.56 541.248,1195.4 543.228,1193.07 545.208,1192.76 547.188,1192.75 549.168,1192.04 551.148,1191.56 553.127,1191.38 555.107,1190.97 557.087,1189.82 559.067,1189.69 561.047,1189.64 563.027,1189.37 565.007,1189.29 566.986,1188.24 568.966,1187.75 570.946,1187.55 572.926,1187.49 574.906,1186.31 576.886,1185.96 578.866,1184.67 580.845,1184.58 582.825,1184.33 584.805,1184.19 586.785,1183.89 588.765,1183.74 590.745,1183.63 592.725,1183.62 594.704,1183.23 596.684,1182.72 598.664,1180.95 600.644,1180.79 602.624,1180.23 604.604,1179.52 606.584,1178.98 608.563,1178.9 610.543,1178.27 612.523,1178.04 614.503,1177.98 616.483,1177.55 618.463,1176.15 620.443,1175.76 622.422,1175.18 624.402,1174.83 626.382,1174.52 628.362,1174.12 630.342,1174.01 632.322,1173.92 634.301,1173.41 636.281,1172.6 638.261,1172.48 640.241,1172.25 642.221,1171.93 644.201,1171.01 646.181,1170.48 648.16,1169.96 650.14,1169.23 652.12,1168.33 654.1,1168.23 656.08,1167.44 658.06,1166.34 660.04,1165.85 662.019,1165.84 663.999,1165.73 665.979,1165.63 667.959,1165.55 669.939,1165.3 671.919,1164.74 673.899,1163.85 675.878,1163.31 677.858,1162.82 679.838,1162.61 681.818,1161.81 683.798,1161.41 685.778,1160.81 687.758,1160.59 689.737,1160.04 691.717,1159.89 693.697,1159.78 695.677,1159.63 697.657,1158.76 699.637,1158.37 701.617,1157.88 703.596,1157.82 705.576,1155.92 707.556,1155.71 709.536,1155.62 711.516,1154.84 713.496,1154.73 715.476,1153.96 717.455,1153.74 719.435,1153.3 721.415,1152.52 723.395,1152.19 725.375,1151.51 727.355,1151.42 729.335,1151.39 731.314,1151.05 733.294,1150.88 735.274,1150.6 737.254,1150.23 739.234,1148.87 741.214,1147.97 743.194,1147.92 745.173,1146.68 747.153,1145.37 749.133,1145.27 751.113,1144.78 753.093,1144.66 755.073,1144.54 757.052,1144.03 759.032,1143.74 761.012,1143.13 762.992,1142.29 764.972,1142.27 766.952,1142 768.932,1141.67 770.911,1141.55 772.891,1141.44 774.871,1141.43 776.851,1141.19 778.831,1140.8 780.811,1140.54 782.791,1139.78 784.77,1139.1 786.75,1139.04 788.73,1138.74 790.71,1136.8 792.69,1136.63 794.67,1135.91 796.65,1135.57 798.629,1135.15 800.609,1134.04 802.589,1133.01 804.569,1132.93 806.549,1131.84 808.529,1130.83 810.509,1129.8 812.488,1129.74 814.468,1129.32 816.448,1129.17 818.428,1128.86 820.408,1128.78 822.388,1128.5 824.368,1128.2 826.347,1127.35 828.327,1127.31 830.307,1126.46 832.287,1125.51 834.267,1125.43 836.247,1125.22 838.227,1124.67 840.206,1124.47 842.186,1123.96 844.166,1123.81 846.146,1123.61 848.126,1123.46 850.106,1122.45 852.086,1122.2 854.065,1121.45 856.045,1121.37 858.025,1120.92 860.005,1120.72 861.985,1118.88 863.965,1118.58 865.944,1117.54 867.924,1116.99 869.904,1116.94 871.884,1116.91 873.864,1116.03 875.844,1116 877.824,1115.86 879.803,1115.61 881.783,1115.55 883.763,1115.33 885.743,1114.84 887.723,1114.62 889.703,1114.59 891.683,1114.56 893.662,1114.12 895.642,1114.07 897.622,1113.68 899.602,1113.23 901.582,1113 903.562,1112.95 905.542,1112.86 907.521,1112.62 909.501,1112.07 911.481,1111.53 913.461,1110.01 915.441,1109.87 917.421,1109.61 919.401,1108.68 921.38,1108.6 923.36,1108.38 925.34,1108.24 927.32,1108.2 929.3,1108.06 931.28,1107.34 933.26,1106.65 935.239,1106.59 937.219,1106.21 939.199,1105.35 941.179,1105.25 943.159,1105.11 945.139,1104.74 947.119,1104.09 949.098,1104.05 951.078,1104.02 953.058,1103.8 955.038,1103.78 957.018,1103.14 958.998,1103 960.978,1102.87 962.957,1102.82 964.937,1102.55 966.917,1102.43 968.897,1102.4 970.877,1101.41 972.857,1101.13 974.836,1099.58 976.816,1099.24 978.796,1099.17 980.776,1098.98 982.756,1097.64 984.736,1097.63 986.716,1096.9 988.695,1096.62 990.675,1094.47 992.655,1093.85 994.635,1093.85 996.615,1093.16 998.595,1093.15 1000.57,1092.63 1002.55,1092.3 1004.53,1091.08 1006.51,1091 1008.49,1090.98 1010.47,1090.79 1012.45,1090.47 1014.43,1090.42 1016.41,1089.57 1018.39,1089.48 1020.37,1089.29 1022.35,1089.23 1024.33,1088.74 1026.31,1088.61 1028.29,1088.59 1030.27,1088.36 1032.25,1087.65 1034.23,1087.54 1036.21,1087.08 1038.19,1086.85 1040.17,1086.48 1042.15,1085.63 1044.13,1085.44 1046.11,1085.07 1048.09,1084.19 1050.07,1083.73 1052.05,1083.31 1054.03,1082.41 1056.01,1081.78 1057.99,1081.72 1059.97,1081.51 1061.95,1081.04 1063.93,1080.9 1065.91,1080.4 1067.89,1079.5 1069.87,1078.04 1071.85,1077.94 1073.83,1077.81 1075.81,1077.3 1077.79,1077.23 1079.77,1077.18 1081.75,1077.1 1083.73,1075.37 1085.71,1074.7 1087.69,1073.87 1089.67,1073.66 1091.65,1073.16 1093.63,1072.99 1095.61,1072.76 1097.59,1072.29 1099.57,1072.02 1101.55,1070.99 1103.53,1070.87 1105.51,1070.69 1107.49,1069.65 1109.47,1069.62 1111.45,1069.2 1113.43,1068.79 1115.41,1068.58 1117.39,1067.69 1119.37,1065.94 1121.35,1064.4 1123.33,1064.31 1125.31,1063.5 1127.29,1062.79 1129.27,1062.52 1131.25,1060.29 1133.22,1060.25 1135.2,1060.19 1137.18,1057.53 1139.16,1056.45 1141.14,1056.12 1143.12,1056.06 1145.1,1056.04 1147.08,1054.59 1149.06,1053.24 1151.04,1053.02 1153.02,1052.45 1155,1052 1156.98,1051.93 1158.96,1050.98 1160.94,1050.43 1162.92,1049.85 1164.9,1048.72 1166.88,1047.84 1168.86,1047.58 1170.84,1046.1 1172.82,1046.05 1174.8,1045.33 1176.78,1044.8 1178.76,1044.59 1180.74,1043.06 1182.72,1041.85 1184.7,1041.5 1186.68,1040.61 1188.66,1039.45 1190.64,1038.6 1192.62,1038.42 1194.6,1037.53 1196.58,1033 1198.56,1032.34 1200.54,1031.75 1202.52,1031.33 1204.5,1031.08 1206.48,1030.03 1208.46,1029.84 1210.44,1028.51 1212.42,1027.86 1214.4,1027.14 1216.38,1026.41 1218.36,1025.26 1220.34,1024.6 1222.32,1024.17 1224.3,1022.77 1226.28,1020.69 1228.26,1018.55 1230.24,1016.88 1232.22,1014.81 1234.2,1013.38 1236.18,1012.84 1238.16,1011.57 1240.14,1010.92 1242.12,1010.4 1244.1,1010.31 1246.08,1010.2 1248.06,1008.69 1250.04,1008.06 1252.02,1005.06 1254,1004.8 1255.98,1004.07 1257.96,1002.74 1259.94,1002.15 1261.92,1001.03 1263.9,999.115 1265.88,998.107 1267.85,995.993 1269.83,995.895 1271.81,994.916 1273.79,993.998 1275.77,990.038 1277.75,989.58 1279.73,988.721 1281.71,986.754 1283.69,984.837 1285.67,981.775 1287.65,980.813 1289.63,978.63 1291.61,978.516 1293.59,978.367 1295.57,976.042 1297.55,972.843 1299.53,972.448 1301.51,970.698 1303.49,970.194 1305.47,968.251 1307.45,967.848 1309.43,967.528 1311.41,967.139 1313.39,966.892 1315.37,965.948 1317.35,965.329 1319.33,965.314 1321.31,962.577 1323.29,961.915 1325.27,961.422 1327.25,960.74 1329.23,960.424 1331.21,959.862 1333.19,959.051 1335.17,957.869 1337.15,957.643 1339.13,956.682 1341.11,955.871 1343.09,954.448 1345.07,953.884 1347.05,952.036 1349.03,951.646 1351.01,951.637 1352.99,950.432 1354.97,949.48 1356.95,948.159 1358.93,948.001 1360.91,947.529 1362.89,946.905 1364.87,944.748 1366.85,943.364 1368.83,943.007 1370.81,942.86 1372.79,942.282 1374.77,940.701 1376.75,940.362 1378.73,936.519 1380.71,935.317 1382.69,934.886 1384.67,933.827 1386.65,933.309 1388.63,932.858 1390.61,932.03 1392.59,930.131 1394.57,929.864 1396.55,929.838 1398.53,929.568 1400.51,929.496 1402.49,929.492 1404.46,928.325 1406.44,926.988 1408.42,926.755 1410.4,926.055 1412.38,925.984 1414.36,925.816 1416.34,924.824 1418.32,924.744 1420.3,924.122 1422.28,923.592 1424.26,922.797 1426.24,921.751 1428.22,921.157 1430.2,921.062 1432.18,919.962 1434.16,918.166 1436.14,917.633 1438.12,916.88 1440.1,915.437 1442.08,915.178 1444.06,914.763 1446.04,913.882 1448.02,913.714 1450,913.532 1451.98,912.025 1453.96,911.933 1455.94,911.928 1457.92,911.402 1459.9,911.382 1461.88,911.306 1463.86,910.946 1465.84,910.673 1467.82,909.982 1469.8,909.263 1471.78,909.13 1473.76,908.932 1475.74,908.86 1477.72,908.574 1479.7,907.773 1481.68,907.69 1483.66,907.598 1485.64,907.259 1487.62,907.01 1489.6,905.562 1491.58,905.533 1493.56,904.892 1495.54,904.014 1497.52,903.922 1499.5,902.581 1501.48,902.534 1503.46,901.141 1505.44,900.026 1507.42,897.171 1509.4,896.622 1511.38,896.169 1513.36,894.94 1515.34,894.924 1517.32,893.242 1519.3,892.833 1521.28,892.641 1523.26,892.334 1525.24,892.272 1527.22,891.959 1529.2,890.963 1531.18,890.31 1533.16,889.652 1535.14,889.327 1537.12,888.823 1539.1,888.726 1541.07,888.693 1543.05,888.088 1545.03,886.877 1547.01,886.422 1548.99,886.176 1550.97,886.136 1552.95,885.142 1554.93,884.874 1556.91,884.809 1558.89,883.4 1560.87,883.193 1562.85,882.915 1564.83,882.734 1566.81,882.587 1568.79,882.552 1570.77,882.034 1572.75,881.538 1574.73,880.599 1576.71,880.204 1578.69,880.024 1580.67,879.347 1582.65,878.628 1584.63,877.723 1586.61,876.85 1588.59,876.671 1590.57,876.624 1592.55,876.294 1594.53,875.564 1596.51,875.052 1598.49,874.801 1600.47,874.66 1602.45,874.41 1604.43,874.289 1606.41,873.772 1608.39,873.667 1610.37,873.086 1612.35,872.932 1614.33,872.716 1616.31,872.668 1618.29,871.516 1620.27,870.619 1622.25,870.122 1624.23,869.822 1626.21,869.499 1628.19,869.315 1630.17,869.199 1632.15,868.725 1634.13,868.162 1636.11,867.022 1638.09,865.707 1640.07,865.702 1642.05,865.345 1644.03,865.262 1646.01,864.77 1647.99,864.511 1649.97,863.594 1651.95,863.04 1653.93,861.434 1655.91,860.529 1657.89,860.311 1659.87,858.641 1661.85,857.749 1663.83,857.229 1665.81,856.862 1667.79,855.683 1669.77,855.294 1671.75,854.676 1673.73,854.151 1675.71,854.141 1677.68,853.914 1679.66,851.665 1681.64,848.571 1683.62,847.782 1685.6,847.505 1687.58,845.306 1689.56,844.983 1691.54,844.633 1693.52,844.54 1695.5,843.306 1697.48,842.253 1699.46,841.927 1701.44,841.734 1703.42,840.29 1705.4,839.988 1707.38,839.169 1709.36,839.113 1711.34,838.838 1713.32,837.787 1715.3,837.163 1717.28,836.117 1719.26,835.464 1721.24,833.432 1723.22,833.002 1725.2,831.981 1727.18,831.773 1729.16,828.01 1731.14,827.404 1733.12,827.378 1735.1,827.139 1737.08,826.796 1739.06,826.739 1741.04,823.928 1743.02,823.646 1745,822.945 1746.98,822.38 1748.96,820.647 1750.94,818.353 1752.92,817.257 1754.9,816.391 1756.88,816.267 1758.86,811.962 1760.84,811.384 1762.82,811.141 1764.8,809.529 1766.78,809.341 1768.76,808.26 1770.74,807.95 1772.72,807.263 1774.7,806.069 1776.68,805.971 1778.66,804.489 1780.64,802.145 1782.62,801.469 1784.6,799.945 1786.58,798.364 1788.56,780.412 1790.54,779.528 1792.52,775.947 1794.5,774.757 1796.48,732.483 1798.46,638.939 1800.44,605.86 1802.42,560.261 1804.4,533.516 1806.38,524.841 1808.36,508.46 1810.34,502.983 1812.31,466.701 1814.29,451.123 1816.27,441.978 1818.25,427.554 1820.23,424.137 1822.21,423.295 1824.19,415.558 1826.17,409.435 1828.15,409.24 1830.13,409.074 1832.11,397.335 1834.09,395.117 1836.07,393.641 1838.05,393.4 1840.03,388.245 1842.01,386.713 1843.99,386.591 1845.97,384.288 1847.95,378.411 1849.93,373.529 1851.91,372.46 1853.89,372.144 1855.87,371.24 1857.85,369.925 1859.83,369.306 1861.81,368.948 1863.79,368.895 1865.77,367.858 1867.75,364.54 1869.73,358.803 1871.71,354.104 1873.69,353.517 1875.67,348.911 1877.65,345.221 1879.63,344.818 1881.61,343.771 1883.59,341.615 1885.57,341.583 1887.55,341.583 1889.53,340.913 1891.51,340.337 1893.49,339.816 1895.47,337.805 1897.45,336.373 1899.43,334.278 1901.41,331.686 1903.39,331.089 1905.37,327.916 1907.35,327.508 1909.33,325.966 1911.31,323.932 1913.29,323.876 1915.27,322.359 1917.25,321.752 1919.23,318.97 1921.21,318.598 1923.19,318.074 1925.17,315.431 1927.15,315.038 1929.13,314.039 1931.11,313.365 1933.09,312.989 1935.07,311.002 1937.05,309.725 1939.03,306.422 1941.01,305.437 1942.99,305.281 1944.97,305.064 1946.95,304.826 1948.92,304.239 1950.9,304.156 1952.88,303.552 1954.86,302.603 1956.84,302.359 1958.82,301.511 1960.8,301.461 1962.78,300.366 1964.76,300.119 1966.74,299.329 1968.72,298.928 1970.7,298.349 1972.68,297.833 1974.66,295.696 1976.64,294.946 1978.62,294.772 1980.6,294.522 1982.58,294.147 1984.56,293.688 1986.54,293.646 1988.52,292.796 1990.5,292.689 1992.48,292.316 1994.46,291.786 1996.44,290.48 1998.42,290.354 2000.4,288.746 2002.38,286.676 2004.36,285.849 2006.34,285.668 2008.32,285.62 2010.3,285.522 2012.28,285.407 2014.26,284.09 2016.24,283.703 2018.22,283.27 2020.2,282.382 2022.18,281.009 2024.16,280.844 2026.14,279.717 2028.12,279.685 2030.1,277.748 2032.08,276.952 2034.06,275.579 2036.04,273.793 2038.02,272.632 2040,272.359 2041.98,272.117 2043.96,271.669 2045.94,271.536 2047.92,271.181 2049.9,270.886 2051.88,270.168 2053.86,269.198 2055.84,268.86 2057.82,266.764 2059.8,266.546 2061.78,266.426 2063.76,266.139 2065.74,264.143 2067.72,264.134 2069.7,263.302 2071.68,262.701 2073.66,262.39 2075.64,261.946 2077.62,261.867 2079.6,259.253 2081.58,258.525 2083.56,258.249 2085.53,258.143 2087.51,257.019 2089.49,256.69 2091.47,256.649 2093.45,255.387 2095.43,254.766 2097.41,254.455 2099.39,254.233 2101.37,254 2103.35,253.805 2105.33,253.453 2107.31,252.997 2109.29,252.815 2111.27,251.159 2113.25,250.64 2115.23,250.084 2117.21,249.55 2119.19,249.355 2121.17,249.231 2123.15,248.287 2125.13,247.407 2127.11,247.336 2129.09,246.779 2131.07,246.28 2133.05,245.125 2135.03,244.083 2137.01,243.075 2138.99,242.544 2140.97,242.034 2142.95,241.128 2144.93,241.013 2146.91,240.223 2148.89,240.004 2150.87,239.629 2152.85,239.092 2154.83,238.016 2156.81,237.724 2158.79,237.582 2160.77,237.417 2162.75,237.294 2164.73,237.011 2166.71,235.955 2168.69,235.917 2170.67,235.507 2172.65,235.236 2174.63,234.726 2176.61,234.653 2178.59,234.296 2180.57,234.123 2182.55,233.05 2184.53,232.598 2186.51,231.862 2188.49,230.867 2190.47,230.644 2192.45,230.516 2194.43,230.213 2196.41,229.923 2198.39,229.177 2200.37,229.128 2202.35,228.642 2204.33,228.255 2206.31,228.016 2208.29,227.789 2210.27,226.249 2212.25,225.466 2214.23,223.21 2216.21,222.628 2218.19,221.11 2220.17,220.671 2222.14,220.155 2224.12,218.83 2226.1,217.432 2228.08,217.071 2230.06,216.92 2232.04,216.644 2234.02,215.138 2236,214.946 2237.98,214.658 2239.96,214.543 2241.94,213.37 2243.92,212.123 2245.9,212.052 2247.88,211.704 2249.86,211.517 2251.84,210.221 2253.82,209.57 2255.8,207.184 2257.78,205.908 2259.76,205.897 2261.74,203.642 2263.72,202.24 2265.7,201.96 2267.68,201.623 2269.66,200.665 2271.64,198.641 2273.62,197.903 2275.6,197.491 2277.58,194.9 2279.56,194.275 2281.54,193.412 2283.52,191.84 2285.5,190.956 2287.48,181.066 2289.46,177.536 2291.44,174.799 2293.42,160.256 "/>
<path clip-path="url(#clip000)" d="M326.094 270.476 L755.354 270.476 L755.354 166.796 L326.094 166.796  Z" fill="#ffffff" fill-rule="evenodd" fill-opacity="1"/>
<polyline clip-path="url(#clip000)" style="stroke:#000000; stroke-linecap:round; stroke-linejoin:round; stroke-width:4; stroke-opacity:1; fill:none" points="326.094,270.476 755.354,270.476 755.354,166.796 326.094,166.796 326.094,270.476 "/>
<polyline clip-path="url(#clip000)" style="stroke:#009af9; stroke-linecap:round; stroke-linejoin:round; stroke-width:4; stroke-opacity:1; fill:none" points="349.389,218.636 489.158,218.636 "/>
<path clip-path="url(#clip000)" d="M534.699 202.49 L534.699 207.05 Q532.037 205.777 529.675 205.152 Q527.314 204.527 525.115 204.527 Q521.296 204.527 519.213 206.008 Q517.152 207.49 517.152 210.221 Q517.152 212.513 518.518 213.694 Q519.907 214.851 523.75 215.569 L526.574 216.147 Q531.805 217.143 534.282 219.666 Q536.782 222.166 536.782 226.379 Q536.782 231.402 533.402 233.994 Q530.046 236.587 523.541 236.587 Q521.088 236.587 518.31 236.031 Q515.555 235.476 512.592 234.388 L512.592 229.573 Q515.439 231.17 518.171 231.981 Q520.902 232.791 523.541 232.791 Q527.546 232.791 529.722 231.217 Q531.898 229.643 531.898 226.726 Q531.898 224.18 530.324 222.744 Q528.773 221.309 525.208 220.592 L522.361 220.036 Q517.129 218.995 514.791 216.772 Q512.453 214.55 512.453 210.592 Q512.453 206.008 515.671 203.37 Q518.912 200.731 524.583 200.731 Q527.013 200.731 529.537 201.171 Q532.06 201.61 534.699 202.49 Z" fill="#000000" fill-rule="nonzero" fill-opacity="1" /><path clip-path="url(#clip000)" d="M543.888 209.99 L548.148 209.99 L548.148 235.916 L543.888 235.916 L543.888 209.99 M543.888 199.897 L548.148 199.897 L548.148 205.291 L543.888 205.291 L543.888 199.897 Z" fill="#000000" fill-rule="nonzero" fill-opacity="1" /><path clip-path="url(#clip000)" d="M577.245 214.967 Q578.842 212.096 581.064 210.731 Q583.286 209.365 586.296 209.365 Q590.346 209.365 592.545 212.212 Q594.745 215.036 594.745 220.268 L594.745 235.916 L590.462 235.916 L590.462 220.407 Q590.462 216.68 589.143 214.874 Q587.823 213.069 585.115 213.069 Q581.805 213.069 579.884 215.268 Q577.962 217.467 577.962 221.263 L577.962 235.916 L573.68 235.916 L573.68 220.407 Q573.68 216.657 572.36 214.874 Q571.041 213.069 568.286 213.069 Q565.022 213.069 563.101 215.291 Q561.18 217.49 561.18 221.263 L561.18 235.916 L556.898 235.916 L556.898 209.99 L561.18 209.99 L561.18 214.018 Q562.638 211.633 564.675 210.499 Q566.712 209.365 569.513 209.365 Q572.337 209.365 574.305 210.8 Q576.296 212.235 577.245 214.967 Z" fill="#000000" fill-rule="nonzero" fill-opacity="1" /><path clip-path="url(#clip000)" d="M603.24 209.99 L607.499 209.99 L607.499 235.916 L603.24 235.916 L603.24 209.99 M603.24 199.897 L607.499 199.897 L607.499 205.291 L603.24 205.291 L603.24 199.897 Z" fill="#000000" fill-rule="nonzero" fill-opacity="1" /><path clip-path="url(#clip000)" d="M616.411 199.897 L620.67 199.897 L620.67 235.916 L616.411 235.916 L616.411 199.897 Z" fill="#000000" fill-rule="nonzero" fill-opacity="1" /><path clip-path="url(#clip000)" d="M641.365 222.883 Q636.203 222.883 634.212 224.064 Q632.221 225.244 632.221 228.092 Q632.221 230.36 633.703 231.703 Q635.207 233.022 637.777 233.022 Q641.318 233.022 643.448 230.522 Q645.601 227.999 645.601 223.832 L645.601 222.883 L641.365 222.883 M649.86 221.124 L649.86 235.916 L645.601 235.916 L645.601 231.981 Q644.142 234.342 641.967 235.476 Q639.791 236.587 636.642 236.587 Q632.661 236.587 630.3 234.365 Q627.962 232.119 627.962 228.369 Q627.962 223.994 630.879 221.772 Q633.818 219.55 639.629 219.55 L645.601 219.55 L645.601 219.133 Q645.601 216.194 643.656 214.596 Q641.735 212.976 638.24 212.976 Q636.017 212.976 633.911 213.508 Q631.805 214.041 629.86 215.106 L629.86 211.17 Q632.198 210.268 634.397 209.828 Q636.596 209.365 638.68 209.365 Q644.304 209.365 647.082 212.282 Q649.86 215.198 649.86 221.124 Z" fill="#000000" fill-rule="nonzero" fill-opacity="1" /><path clip-path="url(#clip000)" d="M673.656 213.971 Q672.939 213.555 672.082 213.37 Q671.249 213.161 670.23 213.161 Q666.619 213.161 664.675 215.522 Q662.753 217.86 662.753 222.258 L662.753 235.916 L658.471 235.916 L658.471 209.99 L662.753 209.99 L662.753 214.018 Q664.096 211.657 666.249 210.522 Q668.402 209.365 671.48 209.365 Q671.92 209.365 672.452 209.434 Q672.985 209.481 673.633 209.596 L673.656 213.971 Z" fill="#000000" fill-rule="nonzero" fill-opacity="1" /><path clip-path="url(#clip000)" d="M678.124 209.99 L682.383 209.99 L682.383 235.916 L678.124 235.916 L678.124 209.99 M678.124 199.897 L682.383 199.897 L682.383 205.291 L678.124 205.291 L678.124 199.897 Z" fill="#000000" fill-rule="nonzero" fill-opacity="1" /><path clip-path="url(#clip000)" d="M695.508 202.629 L695.508 209.99 L704.281 209.99 L704.281 213.3 L695.508 213.3 L695.508 227.374 Q695.508 230.545 696.364 231.448 Q697.244 232.351 699.906 232.351 L704.281 232.351 L704.281 235.916 L699.906 235.916 Q694.975 235.916 693.101 234.087 Q691.226 232.235 691.226 227.374 L691.226 213.3 L688.101 213.3 L688.101 209.99 L691.226 209.99 L691.226 202.629 L695.508 202.629 Z" fill="#000000" fill-rule="nonzero" fill-opacity="1" /><path clip-path="url(#clip000)" d="M720.67 238.323 Q718.864 242.953 717.151 244.365 Q715.438 245.777 712.568 245.777 L709.165 245.777 L709.165 242.212 L711.665 242.212 Q713.424 242.212 714.397 241.379 Q715.369 240.545 716.549 237.443 L717.313 235.499 L706.827 209.99 L711.341 209.99 L719.443 230.268 L727.545 209.99 L732.059 209.99 L720.67 238.323 Z" fill="#000000" fill-rule="nonzero" fill-opacity="1" /></svg>
