<?xml version="1.0" encoding="utf-8"?>
<svg xmlns="http://www.w3.org/2000/svg" xmlns:xlink="http://www.w3.org/1999/xlink" width="600" height="400" viewBox="0 0 2400 1600">
<defs>
  <clipPath id="clip640">
    <rect x="0" y="0" width="2400" height="1600"/>
  </clipPath>
</defs>
<path clip-path="url(#clip640)" d="M0 1600 L2400 1600 L2400 8.88178e-14 L0 8.88178e-14  Z" fill="#ffffff" fill-rule="evenodd" fill-opacity="1"/>
<defs>
  <clipPath id="clip641">
    <rect x="480" y="0" width="1681" height="1600"/>
  </clipPath>
</defs>
<path clip-path="url(#clip640)" d="M256.209 1423.18 L2352.76 1423.18 L2352.76 123.472 L256.209 123.472  Z" fill="#ffffff" fill-rule="evenodd" fill-opacity="1"/>
<defs>
  <clipPath id="clip642">
    <rect x="256" y="123" width="2098" height="1301"/>
  </clipPath>
</defs>
<polyline clip-path="url(#clip642)" style="stroke:#000000; stroke-linecap:round; stroke-linejoin:round; stroke-width:2; stroke-opacity:0.1; fill:none" points="313.565,1423.18 313.565,123.472 "/>
<polyline clip-path="url(#clip642)" style="stroke:#000000; stroke-linecap:round; stroke-linejoin:round; stroke-width:2; stroke-opacity:0.1; fill:none" points="808.529,1423.18 808.529,123.472 "/>
<polyline clip-path="url(#clip642)" style="stroke:#000000; stroke-linecap:round; stroke-linejoin:round; stroke-width:2; stroke-opacity:0.1; fill:none" points="1303.49,1423.18 1303.49,123.472 "/>
<polyline clip-path="url(#clip642)" style="stroke:#000000; stroke-linecap:round; stroke-linejoin:round; stroke-width:2; stroke-opacity:0.1; fill:none" points="1798.46,1423.18 1798.46,123.472 "/>
<polyline clip-path="url(#clip642)" style="stroke:#000000; stroke-linecap:round; stroke-linejoin:round; stroke-width:2; stroke-opacity:0.1; fill:none" points="2293.42,1423.18 2293.42,123.472 "/>
<polyline clip-path="url(#clip640)" style="stroke:#000000; stroke-linecap:round; stroke-linejoin:round; stroke-width:4; stroke-opacity:1; fill:none" points="256.209,1423.18 2352.76,1423.18 "/>
<polyline clip-path="url(#clip640)" style="stroke:#000000; stroke-linecap:round; stroke-linejoin:round; stroke-width:4; stroke-opacity:1; fill:none" points="313.565,1423.18 313.565,1404.28 "/>
<polyline clip-path="url(#clip640)" style="stroke:#000000; stroke-linecap:round; stroke-linejoin:round; stroke-width:4; stroke-opacity:1; fill:none" points="808.529,1423.18 808.529,1404.28 "/>
<polyline clip-path="url(#clip640)" style="stroke:#000000; stroke-linecap:round; stroke-linejoin:round; stroke-width:4; stroke-opacity:1; fill:none" points="1303.49,1423.18 1303.49,1404.28 "/>
<polyline clip-path="url(#clip640)" style="stroke:#000000; stroke-linecap:round; stroke-linejoin:round; stroke-width:4; stroke-opacity:1; fill:none" points="1798.46,1423.18 1798.46,1404.28 "/>
<polyline clip-path="url(#clip640)" style="stroke:#000000; stroke-linecap:round; stroke-linejoin:round; stroke-width:4; stroke-opacity:1; fill:none" points="2293.42,1423.18 2293.42,1404.28 "/>
<path clip-path="url(#clip640)" d="M313.565 1454.1 Q309.954 1454.1 308.125 1457.66 Q306.32 1461.2 306.32 1468.33 Q306.32 1475.44 308.125 1479.01 Q309.954 1482.55 313.565 1482.55 Q317.199 1482.55 319.005 1479.01 Q320.834 1475.44 320.834 1468.33 Q320.834 1461.2 319.005 1457.66 Q317.199 1454.1 313.565 1454.1 M313.565 1450.39 Q319.375 1450.39 322.431 1455 Q325.509 1459.58 325.509 1468.33 Q325.509 1477.06 322.431 1481.67 Q319.375 1486.25 313.565 1486.25 Q307.755 1486.25 304.676 1481.67 Q301.621 1477.06 301.621 1468.33 Q301.621 1459.58 304.676 1455 Q307.755 1450.39 313.565 1450.39 Z" fill="#000000" fill-rule="nonzero" fill-opacity="1" /><path clip-path="url(#clip640)" d="M772.221 1481.64 L788.54 1481.64 L788.54 1485.58 L766.596 1485.58 L766.596 1481.64 Q769.258 1478.89 773.841 1474.26 Q778.448 1469.61 779.628 1468.27 Q781.874 1465.74 782.753 1464.01 Q783.656 1462.25 783.656 1460.56 Q783.656 1457.8 781.712 1456.07 Q779.79 1454.33 776.689 1454.33 Q774.49 1454.33 772.036 1455.09 Q769.605 1455.86 766.828 1457.41 L766.828 1452.69 Q769.652 1451.55 772.105 1450.97 Q774.559 1450.39 776.596 1450.39 Q781.966 1450.39 785.161 1453.08 Q788.355 1455.77 788.355 1460.26 Q788.355 1462.39 787.545 1464.31 Q786.758 1466.2 784.652 1468.8 Q784.073 1469.47 780.971 1472.69 Q777.869 1475.88 772.221 1481.64 Z" fill="#000000" fill-rule="nonzero" fill-opacity="1" /><path clip-path="url(#clip640)" d="M798.401 1451.02 L816.758 1451.02 L816.758 1454.96 L802.684 1454.96 L802.684 1463.43 Q803.702 1463.08 804.721 1462.92 Q805.739 1462.73 806.758 1462.73 Q812.545 1462.73 815.924 1465.9 Q819.304 1469.08 819.304 1474.49 Q819.304 1480.07 815.832 1483.17 Q812.36 1486.25 806.04 1486.25 Q803.864 1486.25 801.596 1485.88 Q799.351 1485.51 796.943 1484.77 L796.943 1480.07 Q799.026 1481.2 801.249 1481.76 Q803.471 1482.32 805.948 1482.32 Q809.952 1482.32 812.29 1480.21 Q814.628 1478.1 814.628 1474.49 Q814.628 1470.88 812.29 1468.77 Q809.952 1466.67 805.948 1466.67 Q804.073 1466.67 802.198 1467.08 Q800.346 1467.5 798.401 1468.38 L798.401 1451.02 Z" fill="#000000" fill-rule="nonzero" fill-opacity="1" /><path clip-path="url(#clip640)" d="M838.517 1454.1 Q834.906 1454.1 833.077 1457.66 Q831.272 1461.2 831.272 1468.33 Q831.272 1475.44 833.077 1479.01 Q834.906 1482.55 838.517 1482.55 Q842.151 1482.55 843.957 1479.01 Q845.785 1475.44 845.785 1468.33 Q845.785 1461.2 843.957 1457.66 Q842.151 1454.1 838.517 1454.1 M838.517 1450.39 Q844.327 1450.39 847.383 1455 Q850.461 1459.58 850.461 1468.33 Q850.461 1477.06 847.383 1481.67 Q844.327 1486.25 838.517 1486.25 Q832.707 1486.25 829.628 1481.67 Q826.573 1477.06 826.573 1468.33 Q826.573 1459.58 829.628 1455 Q832.707 1450.39 838.517 1450.39 Z" fill="#000000" fill-rule="nonzero" fill-opacity="1" /><path clip-path="url(#clip640)" d="M1263.11 1451.02 L1281.47 1451.02 L1281.47 1454.96 L1267.39 1454.96 L1267.39 1463.43 Q1268.41 1463.08 1269.43 1462.92 Q1270.45 1462.73 1271.47 1462.73 Q1277.25 1462.73 1280.63 1465.9 Q1284.01 1469.08 1284.01 1474.49 Q1284.01 1480.07 1280.54 1483.17 Q1277.07 1486.25 1270.75 1486.25 Q1268.57 1486.25 1266.31 1485.88 Q1264.06 1485.51 1261.65 1484.77 L1261.65 1480.07 Q1263.74 1481.2 1265.96 1481.76 Q1268.18 1482.32 1270.66 1482.32 Q1274.66 1482.32 1277 1480.21 Q1279.34 1478.1 1279.34 1474.49 Q1279.34 1470.88 1277 1468.77 Q1274.66 1466.67 1270.66 1466.67 Q1268.78 1466.67 1266.91 1467.08 Q1265.06 1467.5 1263.11 1468.38 L1263.11 1451.02 Z" fill="#000000" fill-rule="nonzero" fill-opacity="1" /><path clip-path="url(#clip640)" d="M1303.23 1454.1 Q1299.62 1454.1 1297.79 1457.66 Q1295.98 1461.2 1295.98 1468.33 Q1295.98 1475.44 1297.79 1479.01 Q1299.62 1482.55 1303.23 1482.55 Q1306.86 1482.55 1308.67 1479.01 Q1310.49 1475.44 1310.49 1468.33 Q1310.49 1461.2 1308.67 1457.66 Q1306.86 1454.1 1303.23 1454.1 M1303.23 1450.39 Q1309.04 1450.39 1312.09 1455 Q1315.17 1459.58 1315.17 1468.33 Q1315.17 1477.06 1312.09 1481.67 Q1309.04 1486.25 1303.23 1486.25 Q1297.42 1486.25 1294.34 1481.67 Q1291.28 1477.06 1291.28 1468.33 Q1291.28 1459.58 1294.34 1455 Q1297.42 1450.39 1303.23 1450.39 Z" fill="#000000" fill-rule="nonzero" fill-opacity="1" /><path clip-path="url(#clip640)" d="M1333.39 1454.1 Q1329.78 1454.1 1327.95 1457.66 Q1326.14 1461.2 1326.14 1468.33 Q1326.14 1475.44 1327.95 1479.01 Q1329.78 1482.55 1333.39 1482.55 Q1337.02 1482.55 1338.83 1479.01 Q1340.66 1475.44 1340.66 1468.33 Q1340.66 1461.2 1338.83 1457.66 Q1337.02 1454.1 1333.39 1454.1 M1333.39 1450.39 Q1339.2 1450.39 1342.25 1455 Q1345.33 1459.58 1345.33 1468.33 Q1345.33 1477.06 1342.25 1481.67 Q1339.2 1486.25 1333.39 1486.25 Q1327.58 1486.25 1324.5 1481.67 Q1321.44 1477.06 1321.44 1468.33 Q1321.44 1459.58 1324.5 1455 Q1327.58 1450.39 1333.39 1450.39 Z" fill="#000000" fill-rule="nonzero" fill-opacity="1" /><path clip-path="url(#clip640)" d="M1756.73 1451.02 L1778.95 1451.02 L1778.95 1453.01 L1766.41 1485.58 L1761.52 1485.58 L1773.33 1454.96 L1756.73 1454.96 L1756.73 1451.02 Z" fill="#000000" fill-rule="nonzero" fill-opacity="1" /><path clip-path="url(#clip640)" d="M1788.12 1451.02 L1806.48 1451.02 L1806.48 1454.96 L1792.4 1454.96 L1792.4 1463.43 Q1793.42 1463.08 1794.44 1462.92 Q1795.46 1462.73 1796.48 1462.73 Q1802.26 1462.73 1805.64 1465.9 Q1809.02 1469.08 1809.02 1474.49 Q1809.02 1480.07 1805.55 1483.17 Q1802.08 1486.25 1795.76 1486.25 Q1793.58 1486.25 1791.31 1485.88 Q1789.07 1485.51 1786.66 1484.77 L1786.66 1480.07 Q1788.75 1481.2 1790.97 1481.76 Q1793.19 1482.32 1795.67 1482.32 Q1799.67 1482.32 1802.01 1480.21 Q1804.35 1478.1 1804.35 1474.49 Q1804.35 1470.88 1802.01 1468.77 Q1799.67 1466.67 1795.67 1466.67 Q1793.79 1466.67 1791.92 1467.08 Q1790.06 1467.5 1788.12 1468.38 L1788.12 1451.02 Z" fill="#000000" fill-rule="nonzero" fill-opacity="1" /><path clip-path="url(#clip640)" d="M1828.24 1454.1 Q1824.62 1454.1 1822.8 1457.66 Q1820.99 1461.2 1820.99 1468.33 Q1820.99 1475.44 1822.8 1479.01 Q1824.62 1482.55 1828.24 1482.55 Q1831.87 1482.55 1833.68 1479.01 Q1835.5 1475.44 1835.5 1468.33 Q1835.5 1461.2 1833.68 1457.66 Q1831.87 1454.1 1828.24 1454.1 M1828.24 1450.39 Q1834.05 1450.39 1837.1 1455 Q1840.18 1459.58 1840.18 1468.33 Q1840.18 1477.06 1837.1 1481.67 Q1834.05 1486.25 1828.24 1486.25 Q1822.43 1486.25 1819.35 1481.67 Q1816.29 1477.06 1816.29 1468.33 Q1816.29 1459.58 1819.35 1455 Q1822.43 1450.39 1828.24 1450.39 Z" fill="#000000" fill-rule="nonzero" fill-opacity="1" /><path clip-path="url(#clip640)" d="M2237.95 1481.64 L2245.58 1481.64 L2245.58 1455.28 L2237.27 1456.95 L2237.27 1452.69 L2245.54 1451.02 L2250.21 1451.02 L2250.21 1481.64 L2257.85 1481.64 L2257.85 1485.58 L2237.95 1485.58 L2237.95 1481.64 Z" fill="#000000" fill-rule="nonzero" fill-opacity="1" /><path clip-path="url(#clip640)" d="M2277.3 1454.1 Q2273.69 1454.1 2271.86 1457.66 Q2270.05 1461.2 2270.05 1468.33 Q2270.05 1475.44 2271.86 1479.01 Q2273.69 1482.55 2277.3 1482.55 Q2280.93 1482.55 2282.74 1479.01 Q2284.57 1475.44 2284.57 1468.33 Q2284.57 1461.2 2282.74 1457.66 Q2280.93 1454.1 2277.3 1454.1 M2277.3 1450.39 Q2283.11 1450.39 2286.16 1455 Q2289.24 1459.58 2289.24 1468.33 Q2289.24 1477.06 2286.16 1481.67 Q2283.11 1486.25 2277.3 1486.25 Q2271.49 1486.25 2268.41 1481.67 Q2265.35 1477.06 2265.35 1468.33 Q2265.35 1459.58 2268.41 1455 Q2271.49 1450.39 2277.3 1450.39 Z" fill="#000000" fill-rule="nonzero" fill-opacity="1" /><path clip-path="url(#clip640)" d="M2307.46 1454.1 Q2303.85 1454.1 2302.02 1457.66 Q2300.21 1461.2 2300.21 1468.33 Q2300.21 1475.44 2302.02 1479.01 Q2303.85 1482.55 2307.46 1482.55 Q2311.09 1482.55 2312.9 1479.01 Q2314.73 1475.44 2314.73 1468.33 Q2314.73 1461.2 2312.9 1457.66 Q2311.09 1454.1 2307.46 1454.1 M2307.46 1450.39 Q2313.27 1450.39 2316.32 1455 Q2319.4 1459.58 2319.4 1468.33 Q2319.4 1477.06 2316.32 1481.67 Q2313.27 1486.25 2307.46 1486.25 Q2301.65 1486.25 2298.57 1481.67 Q2295.51 1477.06 2295.51 1468.33 Q2295.51 1459.58 2298.57 1455 Q2301.65 1450.39 2307.46 1450.39 Z" fill="#000000" fill-rule="nonzero" fill-opacity="1" /><path clip-path="url(#clip640)" d="M2337.62 1454.1 Q2334.01 1454.1 2332.18 1457.66 Q2330.38 1461.2 2330.38 1468.33 Q2330.38 1475.44 2332.18 1479.01 Q2334.01 1482.55 2337.62 1482.55 Q2341.26 1482.55 2343.06 1479.01 Q2344.89 1475.44 2344.89 1468.33 Q2344.89 1461.2 2343.06 1457.66 Q2341.26 1454.1 2337.62 1454.1 M2337.62 1450.39 Q2343.43 1450.39 2346.49 1455 Q2349.57 1459.58 2349.57 1468.33 Q2349.57 1477.06 2346.49 1481.67 Q2343.43 1486.25 2337.62 1486.25 Q2331.81 1486.25 2328.73 1481.67 Q2325.68 1477.06 2325.68 1468.33 Q2325.68 1459.58 2328.73 1455 Q2331.81 1450.39 2337.62 1450.39 Z" fill="#000000" fill-rule="nonzero" fill-opacity="1" /><path clip-path="url(#clip640)" d="M1268.33 1524.18 L1268.33 1530.96 Q1265.08 1527.94 1261.39 1526.44 Q1257.73 1524.95 1253.59 1524.95 Q1245.44 1524.95 1241.11 1529.95 Q1236.78 1534.91 1236.78 1544.33 Q1236.78 1553.72 1241.11 1558.72 Q1245.44 1563.68 1253.59 1563.68 Q1257.73 1563.68 1261.39 1562.19 Q1265.08 1560.69 1268.33 1557.67 L1268.33 1564.38 Q1264.95 1566.68 1261.16 1567.82 Q1257.41 1568.97 1253.21 1568.97 Q1242.42 1568.97 1236.21 1562.38 Q1230 1555.76 1230 1544.33 Q1230 1532.87 1236.21 1526.28 Q1242.42 1519.66 1253.21 1519.66 Q1257.47 1519.66 1261.23 1520.81 Q1265.01 1521.92 1268.33 1524.18 Z" fill="#000000" fill-rule="nonzero" fill-opacity="1" /><path clip-path="url(#clip640)" d="M1308.49 1548.76 L1308.49 1551.62 L1281.57 1551.62 Q1281.95 1557.67 1285.19 1560.85 Q1288.47 1564 1294.3 1564 Q1297.67 1564 1300.82 1563.17 Q1304 1562.35 1307.12 1560.69 L1307.12 1566.23 Q1303.97 1567.57 1300.66 1568.27 Q1297.35 1568.97 1293.95 1568.97 Q1285.42 1568.97 1280.42 1564 Q1275.45 1559.04 1275.45 1550.57 Q1275.45 1541.82 1280.17 1536.69 Q1284.91 1531.54 1292.93 1531.54 Q1300.12 1531.54 1304.29 1536.18 Q1308.49 1540.8 1308.49 1548.76 M1302.64 1547.04 Q1302.57 1542.23 1299.93 1539.37 Q1297.32 1536.5 1292.99 1536.5 Q1288.09 1536.5 1285.13 1539.27 Q1282.2 1542.04 1281.76 1547.07 L1302.64 1547.04 Z" fill="#000000" fill-rule="nonzero" fill-opacity="1" /><path clip-path="url(#clip640)" d="M1318.1 1518.52 L1323.96 1518.52 L1323.96 1568.04 L1318.1 1568.04 L1318.1 1518.52 Z" fill="#000000" fill-rule="nonzero" fill-opacity="1" /><path clip-path="url(#clip640)" d="M1336.22 1518.52 L1342.07 1518.52 L1342.07 1568.04 L1336.22 1568.04 L1336.22 1518.52 Z" fill="#000000" fill-rule="nonzero" fill-opacity="1" /><path clip-path="url(#clip640)" d="M1377.05 1533.45 L1377.05 1538.98 Q1374.57 1537.71 1371.9 1537.07 Q1369.22 1536.44 1366.36 1536.44 Q1362 1536.44 1359.8 1537.77 Q1357.64 1539.11 1357.64 1541.79 Q1357.64 1543.82 1359.2 1545 Q1360.76 1546.15 1365.47 1547.2 L1367.47 1547.64 Q1373.71 1548.98 1376.32 1551.43 Q1378.96 1553.85 1378.96 1558.21 Q1378.96 1563.17 1375.01 1566.07 Q1371.1 1568.97 1364.22 1568.97 Q1361.36 1568.97 1358.24 1568.39 Q1355.15 1567.85 1351.72 1566.74 L1351.72 1560.69 Q1354.96 1562.38 1358.11 1563.24 Q1361.26 1564.07 1364.35 1564.07 Q1368.49 1564.07 1370.72 1562.66 Q1372.95 1561.23 1372.95 1558.65 Q1372.95 1556.27 1371.32 1554.99 Q1369.73 1553.72 1364.29 1552.54 L1362.25 1552.07 Q1356.81 1550.92 1354.39 1548.56 Q1351.97 1546.18 1351.97 1542.04 Q1351.97 1537.01 1355.54 1534.27 Q1359.1 1531.54 1365.66 1531.54 Q1368.9 1531.54 1371.77 1532.01 Q1374.63 1532.49 1377.05 1533.45 Z" fill="#000000" fill-rule="nonzero" fill-opacity="1" /><polyline clip-path="url(#clip642)" style="stroke:#000000; stroke-linecap:round; stroke-linejoin:round; stroke-width:2; stroke-opacity:0.1; fill:none" points="256.209,1226.73 2352.76,1226.73 "/>
<polyline clip-path="url(#clip642)" style="stroke:#000000; stroke-linecap:round; stroke-linejoin:round; stroke-width:2; stroke-opacity:0.1; fill:none" points="256.209,869.443 2352.76,869.443 "/>
<polyline clip-path="url(#clip642)" style="stroke:#000000; stroke-linecap:round; stroke-linejoin:round; stroke-width:2; stroke-opacity:0.1; fill:none" points="256.209,512.161 2352.76,512.161 "/>
<polyline clip-path="url(#clip642)" style="stroke:#000000; stroke-linecap:round; stroke-linejoin:round; stroke-width:2; stroke-opacity:0.1; fill:none" points="256.209,154.879 2352.76,154.879 "/>
<polyline clip-path="url(#clip640)" style="stroke:#000000; stroke-linecap:round; stroke-linejoin:round; stroke-width:4; stroke-opacity:1; fill:none" points="256.209,1423.18 256.209,123.472 "/>
<polyline clip-path="url(#clip640)" style="stroke:#000000; stroke-linecap:round; stroke-linejoin:round; stroke-width:4; stroke-opacity:1; fill:none" points="256.209,1226.73 275.106,1226.73 "/>
<polyline clip-path="url(#clip640)" style="stroke:#000000; stroke-linecap:round; stroke-linejoin:round; stroke-width:4; stroke-opacity:1; fill:none" points="256.209,869.443 275.106,869.443 "/>
<polyline clip-path="url(#clip640)" style="stroke:#000000; stroke-linecap:round; stroke-linejoin:round; stroke-width:4; stroke-opacity:1; fill:none" points="256.209,512.161 275.106,512.161 "/>
<polyline clip-path="url(#clip640)" style="stroke:#000000; stroke-linecap:round; stroke-linejoin:round; stroke-width:4; stroke-opacity:1; fill:none" points="256.209,154.879 275.106,154.879 "/>
<path clip-path="url(#clip640)" d="M114.26 1227.18 L143.936 1227.18 L143.936 1231.11 L114.26 1231.11 L114.26 1227.18 Z" fill="#000000" fill-rule="nonzero" fill-opacity="1" /><path clip-path="url(#clip640)" d="M164.028 1212.52 Q160.417 1212.52 158.589 1216.09 Q156.783 1219.63 156.783 1226.76 Q156.783 1233.87 158.589 1237.43 Q160.417 1240.97 164.028 1240.97 Q167.663 1240.97 169.468 1237.43 Q171.297 1233.87 171.297 1226.76 Q171.297 1219.63 169.468 1216.09 Q167.663 1212.52 164.028 1212.52 M164.028 1208.82 Q169.839 1208.82 172.894 1213.43 Q175.973 1218.01 175.973 1226.76 Q175.973 1235.49 172.894 1240.09 Q169.839 1244.68 164.028 1244.68 Q158.218 1244.68 155.14 1240.09 Q152.084 1235.49 152.084 1226.76 Q152.084 1218.01 155.14 1213.43 Q158.218 1208.82 164.028 1208.82 Z" fill="#000000" fill-rule="nonzero" fill-opacity="1" /><path clip-path="url(#clip640)" d="M184.19 1238.13 L189.075 1238.13 L189.075 1244.01 L184.19 1244.01 L184.19 1238.13 Z" fill="#000000" fill-rule="nonzero" fill-opacity="1" /><path clip-path="url(#clip640)" d="M199.306 1209.45 L217.662 1209.45 L217.662 1213.38 L203.588 1213.38 L203.588 1221.85 Q204.607 1221.51 205.625 1221.34 Q206.644 1221.16 207.662 1221.16 Q213.449 1221.16 216.829 1224.33 Q220.209 1227.5 220.209 1232.92 Q220.209 1238.5 216.736 1241.6 Q213.264 1244.68 206.945 1244.68 Q204.769 1244.68 202.5 1244.31 Q200.255 1243.94 197.848 1243.2 L197.848 1238.5 Q199.931 1239.63 202.153 1240.19 Q204.375 1240.74 206.852 1240.74 Q210.857 1240.74 213.195 1238.64 Q215.533 1236.53 215.533 1232.92 Q215.533 1229.31 213.195 1227.2 Q210.857 1225.09 206.852 1225.09 Q204.977 1225.09 203.102 1225.51 Q201.25 1225.93 199.306 1226.81 L199.306 1209.45 Z" fill="#000000" fill-rule="nonzero" fill-opacity="1" /><path clip-path="url(#clip640)" d="M163.033 855.242 Q159.422 855.242 157.593 858.807 Q155.788 862.348 155.788 869.478 Q155.788 876.584 157.593 880.149 Q159.422 883.691 163.033 883.691 Q166.667 883.691 168.473 880.149 Q170.302 876.584 170.302 869.478 Q170.302 862.348 168.473 858.807 Q166.667 855.242 163.033 855.242 M163.033 851.538 Q168.843 851.538 171.899 856.145 Q174.977 860.728 174.977 869.478 Q174.977 878.205 171.899 882.811 Q168.843 887.395 163.033 887.395 Q157.223 887.395 154.144 882.811 Q151.089 878.205 151.089 869.478 Q151.089 860.728 154.144 856.145 Q157.223 851.538 163.033 851.538 Z" fill="#000000" fill-rule="nonzero" fill-opacity="1" /><path clip-path="url(#clip640)" d="M183.195 880.844 L188.079 880.844 L188.079 886.723 L183.195 886.723 L183.195 880.844 Z" fill="#000000" fill-rule="nonzero" fill-opacity="1" /><path clip-path="url(#clip640)" d="M208.264 855.242 Q204.653 855.242 202.824 858.807 Q201.019 862.348 201.019 869.478 Q201.019 876.584 202.824 880.149 Q204.653 883.691 208.264 883.691 Q211.899 883.691 213.704 880.149 Q215.533 876.584 215.533 869.478 Q215.533 862.348 213.704 858.807 Q211.899 855.242 208.264 855.242 M208.264 851.538 Q214.074 851.538 217.13 856.145 Q220.209 860.728 220.209 869.478 Q220.209 878.205 217.13 882.811 Q214.074 887.395 208.264 887.395 Q202.454 887.395 199.375 882.811 Q196.32 878.205 196.32 869.478 Q196.32 860.728 199.375 856.145 Q202.454 851.538 208.264 851.538 Z" fill="#000000" fill-rule="nonzero" fill-opacity="1" /><path clip-path="url(#clip640)" d="M164.028 497.96 Q160.417 497.96 158.589 501.525 Q156.783 505.066 156.783 512.196 Q156.783 519.302 158.589 522.867 Q160.417 526.409 164.028 526.409 Q167.663 526.409 169.468 522.867 Q171.297 519.302 171.297 512.196 Q171.297 505.066 169.468 501.525 Q167.663 497.96 164.028 497.96 M164.028 494.256 Q169.839 494.256 172.894 498.863 Q175.973 503.446 175.973 512.196 Q175.973 520.923 172.894 525.529 Q169.839 530.112 164.028 530.112 Q158.218 530.112 155.14 525.529 Q152.084 520.923 152.084 512.196 Q152.084 503.446 155.14 498.863 Q158.218 494.256 164.028 494.256 Z" fill="#000000" fill-rule="nonzero" fill-opacity="1" /><path clip-path="url(#clip640)" d="M184.19 523.562 L189.075 523.562 L189.075 529.441 L184.19 529.441 L184.19 523.562 Z" fill="#000000" fill-rule="nonzero" fill-opacity="1" /><path clip-path="url(#clip640)" d="M199.306 494.881 L217.662 494.881 L217.662 498.816 L203.588 498.816 L203.588 507.288 Q204.607 506.941 205.625 506.779 Q206.644 506.594 207.662 506.594 Q213.449 506.594 216.829 509.765 Q220.209 512.937 220.209 518.353 Q220.209 523.932 216.736 527.034 Q213.264 530.112 206.945 530.112 Q204.769 530.112 202.5 529.742 Q200.255 529.372 197.848 528.631 L197.848 523.932 Q199.931 525.066 202.153 525.622 Q204.375 526.177 206.852 526.177 Q210.857 526.177 213.195 524.071 Q215.533 521.964 215.533 518.353 Q215.533 514.742 213.195 512.636 Q210.857 510.529 206.852 510.529 Q204.977 510.529 203.102 510.946 Q201.25 511.363 199.306 512.242 L199.306 494.881 Z" fill="#000000" fill-rule="nonzero" fill-opacity="1" /><path clip-path="url(#clip640)" d="M153.843 168.224 L161.482 168.224 L161.482 141.858 L153.172 143.525 L153.172 139.266 L161.436 137.599 L166.112 137.599 L166.112 168.224 L173.751 168.224 L173.751 172.159 L153.843 172.159 L153.843 168.224 Z" fill="#000000" fill-rule="nonzero" fill-opacity="1" /><path clip-path="url(#clip640)" d="M183.195 166.279 L188.079 166.279 L188.079 172.159 L183.195 172.159 L183.195 166.279 Z" fill="#000000" fill-rule="nonzero" fill-opacity="1" /><path clip-path="url(#clip640)" d="M208.264 140.678 Q204.653 140.678 202.824 144.242 Q201.019 147.784 201.019 154.914 Q201.019 162.02 202.824 165.585 Q204.653 169.127 208.264 169.127 Q211.899 169.127 213.704 165.585 Q215.533 162.02 215.533 154.914 Q215.533 147.784 213.704 144.242 Q211.899 140.678 208.264 140.678 M208.264 136.974 Q214.074 136.974 217.13 141.58 Q220.209 146.164 220.209 154.914 Q220.209 163.641 217.13 168.247 Q214.074 172.83 208.264 172.83 Q202.454 172.83 199.375 168.247 Q196.32 163.641 196.32 154.914 Q196.32 146.164 199.375 141.58 Q202.454 136.974 208.264 136.974 Z" fill="#000000" fill-rule="nonzero" fill-opacity="1" /><path clip-path="url(#clip640)" d="M18.0438 893.717 L24.314 893.717 Q22.5634 897.378 21.704 900.624 Q20.8447 903.871 20.8447 906.894 Q20.8447 912.146 22.8817 915.011 Q24.9187 917.843 28.6745 917.843 Q31.8255 917.843 33.4488 915.966 Q35.0402 914.056 36.0269 908.772 L36.8226 904.889 Q38.1912 897.696 41.6605 894.29 Q45.098 890.853 50.8908 890.853 Q57.7976 890.853 61.3624 895.5 Q64.9272 900.115 64.9272 909.059 Q64.9272 912.433 64.1633 916.252 Q63.3994 920.04 61.9035 924.114 L55.2831 924.114 Q57.4793 920.199 58.5933 916.443 Q59.7073 912.687 59.7073 909.059 Q59.7073 903.552 57.543 900.561 Q55.3786 897.569 51.3682 897.569 Q47.8671 897.569 45.8937 899.733 Q43.9204 901.866 42.9337 906.767 L42.1698 910.682 Q40.7375 917.875 37.682 921.09 Q34.6264 924.305 29.1837 924.305 Q22.8817 924.305 19.2532 919.88 Q15.6248 915.424 15.6248 907.626 Q15.6248 904.284 16.2295 900.815 Q16.8343 897.346 18.0438 893.717 Z" fill="#000000" fill-rule="nonzero" fill-opacity="1" /><path clip-path="url(#clip640)" d="M28.3562 881.081 L28.3562 875.225 L64.0042 875.225 L64.0042 881.081 L28.3562 881.081 M14.479 881.081 L14.479 875.225 L21.895 875.225 L21.895 881.081 L14.479 881.081 Z" fill="#000000" fill-rule="nonzero" fill-opacity="1" /><path clip-path="url(#clip640)" d="M35.1993 835.217 Q31.2526 833.02 29.3747 829.965 Q27.4968 826.909 27.4968 822.772 Q27.4968 817.202 31.4117 814.178 Q35.2948 811.154 42.4881 811.154 L64.0042 811.154 L64.0042 817.042 L42.679 817.042 Q37.5546 817.042 35.072 818.857 Q32.5894 820.671 32.5894 824.395 Q32.5894 828.946 35.6131 831.588 Q38.6368 834.23 43.8567 834.23 L64.0042 834.23 L64.0042 840.118 L42.679 840.118 Q37.5228 840.118 35.072 841.932 Q32.5894 843.747 32.5894 847.534 Q32.5894 852.022 35.6449 854.664 Q38.6686 857.306 43.8567 857.306 L64.0042 857.306 L64.0042 863.194 L28.3562 863.194 L28.3562 857.306 L33.8944 857.306 Q30.616 855.3 29.0564 852.499 Q27.4968 849.699 27.4968 845.847 Q27.4968 841.964 29.4702 839.259 Q31.4436 836.522 35.1993 835.217 Z" fill="#000000" fill-rule="nonzero" fill-opacity="1" /><path clip-path="url(#clip640)" d="M28.3562 799.473 L28.3562 793.617 L64.0042 793.617 L64.0042 799.473 L28.3562 799.473 M14.479 799.473 L14.479 793.617 L21.895 793.617 L21.895 799.473 L14.479 799.473 Z" fill="#000000" fill-rule="nonzero" fill-opacity="1" /><path clip-path="url(#clip640)" d="M14.479 781.363 L14.479 775.506 L64.0042 775.506 L64.0042 781.363 L14.479 781.363 Z" fill="#000000" fill-rule="nonzero" fill-opacity="1" /><path clip-path="url(#clip640)" d="M46.0847 747.052 Q46.0847 754.149 47.7079 756.887 Q49.3312 759.624 53.2461 759.624 Q56.3653 759.624 58.2114 757.587 Q60.0256 755.518 60.0256 751.985 Q60.0256 747.115 56.5881 744.187 Q53.1188 741.227 47.3897 741.227 L46.0847 741.227 L46.0847 747.052 M43.6657 735.37 L64.0042 735.37 L64.0042 741.227 L58.5933 741.227 Q61.8398 743.232 63.3994 746.224 Q64.9272 749.216 64.9272 753.545 Q64.9272 759.019 61.8716 762.266 Q58.7843 765.48 53.6281 765.48 Q47.6125 765.48 44.5569 761.47 Q41.5014 757.428 41.5014 749.439 L41.5014 741.227 L40.9285 741.227 Q36.8862 741.227 34.6901 743.901 Q32.4621 746.542 32.4621 751.348 Q32.4621 754.404 33.1941 757.3 Q33.9262 760.197 35.3903 762.87 L29.9795 762.87 Q28.7381 759.656 28.1334 756.632 Q27.4968 753.608 27.4968 750.744 Q27.4968 743.009 31.5072 739.19 Q35.5176 735.37 43.6657 735.37 Z" fill="#000000" fill-rule="nonzero" fill-opacity="1" /><path clip-path="url(#clip640)" d="M33.8307 702.651 Q33.2578 703.637 33.0032 704.815 Q32.7167 705.961 32.7167 707.361 Q32.7167 712.327 35.9632 715 Q39.1779 717.642 45.2253 717.642 L64.0042 717.642 L64.0042 723.53 L28.3562 723.53 L28.3562 717.642 L33.8944 717.642 Q30.6479 715.796 29.0883 712.836 Q27.4968 709.876 27.4968 705.643 Q27.4968 705.038 27.5923 704.306 Q27.656 703.574 27.8151 702.683 L33.8307 702.651 Z" fill="#000000" fill-rule="nonzero" fill-opacity="1" /><path clip-path="url(#clip640)" d="M28.3562 696.508 L28.3562 690.651 L64.0042 690.651 L64.0042 696.508 L28.3562 696.508 M14.479 696.508 L14.479 690.651 L21.895 690.651 L21.895 696.508 L14.479 696.508 Z" fill="#000000" fill-rule="nonzero" fill-opacity="1" /><path clip-path="url(#clip640)" d="M18.2347 672.605 L28.3562 672.605 L28.3562 660.542 L32.9077 660.542 L32.9077 672.605 L52.2594 672.605 Q56.6199 672.605 57.8613 671.427 Q59.1026 670.217 59.1026 666.557 L59.1026 660.542 L64.0042 660.542 L64.0042 666.557 Q64.0042 673.337 61.4897 675.915 Q58.9434 678.493 52.2594 678.493 L32.9077 678.493 L32.9077 682.79 L28.3562 682.79 L28.3562 678.493 L18.2347 678.493 L18.2347 672.605 Z" fill="#000000" fill-rule="nonzero" fill-opacity="1" /><path clip-path="url(#clip640)" d="M67.3143 638.007 Q73.68 640.49 75.6216 642.845 Q77.5631 645.2 77.5631 649.147 L77.5631 653.826 L72.6615 653.826 L72.6615 650.388 Q72.6615 647.969 71.5157 646.633 Q70.3699 645.296 66.1048 643.672 L63.4312 642.622 L28.3562 657.04 L28.3562 650.834 L56.238 639.694 L28.3562 628.554 L28.3562 622.347 L67.3143 638.007 Z" fill="#000000" fill-rule="nonzero" fill-opacity="1" /><path clip-path="url(#clip640)" d="M395.682 14.0809 L395.682 22.0612 Q391.024 19.8332 386.892 18.7395 Q382.76 17.6457 378.911 17.6457 Q372.227 17.6457 368.582 20.2383 Q364.976 22.8309 364.976 27.611 Q364.976 31.6214 367.366 33.6873 Q369.797 35.7128 376.521 36.9686 L381.464 37.9813 Q390.619 39.7232 394.953 44.1387 Q399.328 48.5136 399.328 55.8863 Q399.328 64.6767 393.414 69.2137 Q387.54 73.7508 376.157 73.7508 Q371.863 73.7508 367.002 72.7785 Q362.181 71.8063 356.996 69.9024 L356.996 61.4765 Q361.979 64.2716 366.759 65.6895 Q371.539 67.1073 376.157 67.1073 Q383.165 67.1073 386.973 64.3527 Q390.781 61.598 390.781 56.4939 Q390.781 52.0379 388.026 49.5264 Q385.312 47.0148 379.073 45.759 L374.091 44.7868 Q364.936 42.9639 360.844 39.075 Q356.753 35.1862 356.753 28.2591 Q356.753 20.2383 362.384 15.6203 Q368.055 11.0023 377.98 11.0023 Q382.233 11.0023 386.649 11.7719 Q391.064 12.5416 395.682 14.0809 Z" fill="#000000" fill-rule="nonzero" fill-opacity="1" /><path clip-path="url(#clip640)" d="M429.345 32.4315 Q423.35 32.4315 419.866 37.1306 Q416.382 41.7891 416.382 49.9314 Q416.382 58.0738 419.826 62.7728 Q423.309 67.4314 429.345 67.4314 Q435.3 67.4314 438.784 62.7323 Q442.268 58.0333 442.268 49.9314 Q442.268 41.8701 438.784 37.1711 Q435.3 32.4315 429.345 32.4315 M429.345 26.1121 Q439.067 26.1121 444.617 32.4315 Q450.167 38.7509 450.167 49.9314 Q450.167 61.0714 444.617 67.4314 Q439.067 73.7508 429.345 73.7508 Q419.583 73.7508 414.033 67.4314 Q408.524 61.0714 408.524 49.9314 Q408.524 38.7509 414.033 32.4315 Q419.583 26.1121 429.345 26.1121 Z" fill="#000000" fill-rule="nonzero" fill-opacity="1" /><path clip-path="url(#clip640)" d="M488.812 34.1734 Q487.557 33.4443 486.058 33.1202 Q484.6 32.7556 482.817 32.7556 Q476.498 32.7556 473.095 36.8875 Q469.733 40.9789 469.733 48.6757 L469.733 72.576 L462.239 72.576 L462.239 27.2059 L469.733 27.2059 L469.733 34.2544 Q472.082 30.1225 475.85 28.1376 Q479.617 26.1121 485.005 26.1121 Q485.774 26.1121 486.706 26.2337 Q487.638 26.3147 488.772 26.5172 L488.812 34.1734 Z" fill="#000000" fill-rule="nonzero" fill-opacity="1" /><path clip-path="url(#clip640)" d="M504.003 14.324 L504.003 27.2059 L519.356 27.2059 L519.356 32.9987 L504.003 32.9987 L504.003 57.6282 Q504.003 63.1779 505.502 64.7578 Q507.042 66.3376 511.7 66.3376 L519.356 66.3376 L519.356 72.576 L511.7 72.576 Q503.072 72.576 499.79 69.3758 Q496.509 66.1351 496.509 57.6282 L496.509 32.9987 L491.04 32.9987 L491.04 27.2059 L496.509 27.2059 L496.509 14.324 L504.003 14.324 Z" fill="#000000" fill-rule="nonzero" fill-opacity="1" /><path clip-path="url(#clip640)" d="M567.967 48.0275 L567.967 51.6733 L533.696 51.6733 Q534.183 59.3701 538.315 63.421 Q542.487 67.4314 549.9 67.4314 Q554.194 67.4314 558.204 66.3781 Q562.255 65.3249 566.225 63.2184 L566.225 70.267 Q562.215 71.9684 558.002 72.8596 Q553.789 73.7508 549.455 73.7508 Q538.598 73.7508 532.238 67.4314 Q525.919 61.1119 525.919 50.3365 Q525.919 39.1965 531.914 32.6746 Q537.95 26.1121 548.158 26.1121 Q557.313 26.1121 562.62 32.0264 Q567.967 37.9003 567.967 48.0275 M560.513 45.84 Q560.432 39.7232 557.07 36.0774 Q553.748 32.4315 548.239 32.4315 Q542.001 32.4315 538.233 35.9558 Q534.507 39.4801 533.94 45.8805 L560.513 45.84 Z" fill="#000000" fill-rule="nonzero" fill-opacity="1" /><path clip-path="url(#clip640)" d="M610.056 34.0924 L610.056 9.54393 L617.51 9.54393 L617.51 72.576 L610.056 72.576 L610.056 65.7705 Q607.707 69.8214 604.101 71.8063 Q600.536 73.7508 595.513 73.7508 Q587.29 73.7508 582.105 67.1883 Q576.96 60.6258 576.96 49.9314 Q576.96 39.2371 582.105 32.6746 Q587.29 26.1121 595.513 26.1121 Q600.536 26.1121 604.101 28.0971 Q607.707 30.0415 610.056 34.0924 M584.657 49.9314 Q584.657 58.1548 588.019 62.8538 Q591.422 67.5124 597.336 67.5124 Q603.251 67.5124 606.653 62.8538 Q610.056 58.1548 610.056 49.9314 Q610.056 41.7081 606.653 37.0496 Q603.251 32.3505 597.336 32.3505 Q591.422 32.3505 588.019 37.0496 Q584.657 41.7081 584.657 49.9314 Z" fill="#000000" fill-rule="nonzero" fill-opacity="1" /><path clip-path="url(#clip640)" d="M691.884 28.9478 L691.884 35.9153 Q688.725 34.1734 685.524 33.3227 Q682.365 32.4315 679.124 32.4315 Q671.873 32.4315 667.862 37.0496 Q663.852 41.6271 663.852 49.9314 Q663.852 58.2358 667.862 62.8538 Q671.873 67.4314 679.124 67.4314 Q682.365 67.4314 685.524 66.5807 Q688.725 65.6895 691.884 63.9476 L691.884 70.8341 Q688.765 72.2924 685.403 73.0216 Q682.081 73.7508 678.314 73.7508 Q668.065 73.7508 662.029 67.3098 Q655.993 60.8689 655.993 49.9314 Q655.993 38.832 662.07 32.472 Q668.187 26.1121 678.8 26.1121 Q682.243 26.1121 685.524 26.8413 Q688.806 27.5299 691.884 28.9478 Z" fill="#000000" fill-rule="nonzero" fill-opacity="1" /><path clip-path="url(#clip640)" d="M722.428 32.4315 Q716.433 32.4315 712.949 37.1306 Q709.465 41.7891 709.465 49.9314 Q709.465 58.0738 712.908 62.7728 Q716.392 67.4314 722.428 67.4314 Q728.383 67.4314 731.867 62.7323 Q735.35 58.0333 735.35 49.9314 Q735.35 41.8701 731.867 37.1711 Q728.383 32.4315 722.428 32.4315 M722.428 26.1121 Q732.15 26.1121 737.7 32.4315 Q743.25 38.7509 743.25 49.9314 Q743.25 61.0714 737.7 67.4314 Q732.15 73.7508 722.428 73.7508 Q712.665 73.7508 707.116 67.4314 Q701.606 61.0714 701.606 49.9314 Q701.606 38.7509 707.116 32.4315 Q712.665 26.1121 722.428 26.1121 Z" fill="#000000" fill-rule="nonzero" fill-opacity="1" /><path clip-path="url(#clip640)" d="M784.528 28.5427 L784.528 35.5912 Q781.369 33.9709 777.966 33.1607 Q774.563 32.3505 770.917 32.3505 Q765.368 32.3505 762.573 34.0519 Q759.818 35.7533 759.818 39.156 Q759.818 41.7486 761.803 43.2475 Q763.788 44.7058 769.783 46.0426 L772.335 46.6097 Q780.275 48.3111 783.597 51.4303 Q786.959 54.509 786.959 60.0587 Q786.959 66.3781 781.936 70.0644 Q776.953 73.7508 768.203 73.7508 Q764.558 73.7508 760.588 73.0216 Q756.658 72.3329 752.283 70.9151 L752.283 63.2184 Q756.415 65.3654 760.426 66.4591 Q764.436 67.5124 768.365 67.5124 Q773.632 67.5124 776.467 65.73 Q779.303 63.9071 779.303 60.6258 Q779.303 57.5877 777.237 55.9673 Q775.211 54.3469 768.284 52.8481 L765.692 52.2405 Q758.765 50.7821 755.686 47.7845 Q752.607 44.7463 752.607 39.4801 Q752.607 33.0797 757.144 29.5959 Q761.681 26.1121 770.026 26.1121 Q774.158 26.1121 777.804 26.7198 Q781.45 27.3274 784.528 28.5427 Z" fill="#000000" fill-rule="nonzero" fill-opacity="1" /><path clip-path="url(#clip640)" d="M798.828 27.2059 L806.282 27.2059 L806.282 72.576 L798.828 72.576 L798.828 27.2059 M798.828 9.54393 L806.282 9.54393 L806.282 18.9825 L798.828 18.9825 L798.828 9.54393 Z" fill="#000000" fill-rule="nonzero" fill-opacity="1" /><path clip-path="url(#clip640)" d="M859.592 45.1919 L859.592 72.576 L852.138 72.576 L852.138 45.4349 Q852.138 38.994 849.627 35.7938 Q847.115 32.5936 842.092 32.5936 Q836.056 32.5936 832.572 36.4419 Q829.088 40.2903 829.088 46.9338 L829.088 72.576 L821.594 72.576 L821.594 27.2059 L829.088 27.2059 L829.088 34.2544 Q831.762 30.163 835.367 28.1376 Q839.013 26.1121 843.753 26.1121 Q851.571 26.1121 855.581 30.9732 Q859.592 35.7938 859.592 45.1919 Z" fill="#000000" fill-rule="nonzero" fill-opacity="1" /><path clip-path="url(#clip640)" d="M913.266 48.0275 L913.266 51.6733 L878.996 51.6733 Q879.482 59.3701 883.614 63.421 Q887.786 67.4314 895.199 67.4314 Q899.493 67.4314 903.504 66.3781 Q907.554 65.3249 911.524 63.2184 L911.524 70.267 Q907.514 71.9684 903.301 72.8596 Q899.088 73.7508 894.754 73.7508 Q883.897 73.7508 877.537 67.4314 Q871.218 61.1119 871.218 50.3365 Q871.218 39.1965 877.213 32.6746 Q883.249 26.1121 893.457 26.1121 Q902.612 26.1121 907.919 32.0264 Q913.266 37.9003 913.266 48.0275 M905.813 45.84 Q905.732 39.7232 902.369 36.0774 Q899.048 32.4315 893.538 32.4315 Q887.3 32.4315 883.533 35.9558 Q879.806 39.4801 879.239 45.8805 L905.813 45.84 Z" fill="#000000" fill-rule="nonzero" fill-opacity="1" /><path clip-path="url(#clip640)" d="M980.795 28.5427 L980.795 35.5912 Q977.635 33.9709 974.232 33.1607 Q970.83 32.3505 967.184 32.3505 Q961.634 32.3505 958.839 34.0519 Q956.084 35.7533 956.084 39.156 Q956.084 41.7486 958.069 43.2475 Q960.054 44.7058 966.049 46.0426 L968.602 46.6097 Q976.541 48.3111 979.863 51.4303 Q983.225 54.509 983.225 60.0587 Q983.225 66.3781 978.202 70.0644 Q973.22 73.7508 964.47 73.7508 Q960.824 73.7508 956.854 73.0216 Q952.925 72.3329 948.55 70.9151 L948.55 63.2184 Q952.682 65.3654 956.692 66.4591 Q960.702 67.5124 964.632 67.5124 Q969.898 67.5124 972.733 65.73 Q975.569 63.9071 975.569 60.6258 Q975.569 57.5877 973.503 55.9673 Q971.478 54.3469 964.551 52.8481 L961.958 52.2405 Q955.031 50.7821 951.952 47.7845 Q948.874 44.7463 948.874 39.4801 Q948.874 33.0797 953.411 29.5959 Q957.948 26.1121 966.293 26.1121 Q970.424 26.1121 974.07 26.7198 Q977.716 27.3274 980.795 28.5427 Z" fill="#000000" fill-rule="nonzero" fill-opacity="1" /><path clip-path="url(#clip640)" d="M995.094 27.2059 L1002.55 27.2059 L1002.55 72.576 L995.094 72.576 L995.094 27.2059 M995.094 9.54393 L1002.55 9.54393 L1002.55 18.9825 L995.094 18.9825 L995.094 9.54393 Z" fill="#000000" fill-rule="nonzero" fill-opacity="1" /><path clip-path="url(#clip640)" d="M1053.47 35.9153 Q1056.26 30.8922 1060.15 28.5022 Q1064.04 26.1121 1069.31 26.1121 Q1076.4 26.1121 1080.24 31.0947 Q1084.09 36.0368 1084.09 45.1919 L1084.09 72.576 L1076.6 72.576 L1076.6 45.4349 Q1076.6 38.913 1074.29 35.7533 Q1071.98 32.5936 1067.24 32.5936 Q1061.45 32.5936 1058.09 36.4419 Q1054.72 40.2903 1054.72 46.9338 L1054.72 72.576 L1047.23 72.576 L1047.23 45.4349 Q1047.23 38.8725 1044.92 35.7533 Q1042.61 32.5936 1037.79 32.5936 Q1032.08 32.5936 1028.72 36.4824 Q1025.35 40.3308 1025.35 46.9338 L1025.35 72.576 L1017.86 72.576 L1017.86 27.2059 L1025.35 27.2059 L1025.35 34.2544 Q1027.91 30.082 1031.47 28.0971 Q1035.04 26.1121 1039.94 26.1121 Q1044.88 26.1121 1048.32 28.6237 Q1051.81 31.1352 1053.47 35.9153 Z" fill="#000000" fill-rule="nonzero" fill-opacity="1" /><path clip-path="url(#clip640)" d="M1098.96 27.2059 L1106.41 27.2059 L1106.41 72.576 L1098.96 72.576 L1098.96 27.2059 M1098.96 9.54393 L1106.41 9.54393 L1106.41 18.9825 L1098.96 18.9825 L1098.96 9.54393 Z" fill="#000000" fill-rule="nonzero" fill-opacity="1" /><path clip-path="url(#clip640)" d="M1122.01 9.54393 L1129.46 9.54393 L1129.46 72.576 L1122.01 72.576 L1122.01 9.54393 Z" fill="#000000" fill-rule="nonzero" fill-opacity="1" /><path clip-path="url(#clip640)" d="M1165.68 49.7694 Q1156.64 49.7694 1153.16 51.8354 Q1149.68 53.9013 1149.68 58.8839 Q1149.68 62.8538 1152.27 65.2034 Q1154.9 67.5124 1159.4 67.5124 Q1165.6 67.5124 1169.32 63.1374 Q1173.09 58.7219 1173.09 51.4303 L1173.09 49.7694 L1165.68 49.7694 M1180.54 46.6907 L1180.54 72.576 L1173.09 72.576 L1173.09 65.6895 Q1170.54 69.8214 1166.73 71.8063 Q1162.92 73.7508 1157.41 73.7508 Q1150.45 73.7508 1146.31 69.8619 Q1142.22 65.9325 1142.22 59.3701 Q1142.22 51.7138 1147.33 47.825 Q1152.47 43.9361 1162.64 43.9361 L1173.09 43.9361 L1173.09 43.2069 Q1173.09 38.0623 1169.69 35.2672 Q1166.33 32.4315 1160.21 32.4315 Q1156.32 32.4315 1152.63 33.3632 Q1148.95 34.295 1145.55 36.1584 L1145.55 29.2718 Q1149.64 27.692 1153.48 26.9223 Q1157.33 26.1121 1160.98 26.1121 Q1170.82 26.1121 1175.68 31.2163 Q1180.54 36.3204 1180.54 46.6907 Z" fill="#000000" fill-rule="nonzero" fill-opacity="1" /><path clip-path="url(#clip640)" d="M1222.19 34.1734 Q1220.93 33.4443 1219.43 33.1202 Q1217.98 32.7556 1216.19 32.7556 Q1209.87 32.7556 1206.47 36.8875 Q1203.11 40.9789 1203.11 48.6757 L1203.11 72.576 L1195.61 72.576 L1195.61 27.2059 L1203.11 27.2059 L1203.11 34.2544 Q1205.46 30.1225 1209.23 28.1376 Q1212.99 26.1121 1218.38 26.1121 Q1219.15 26.1121 1220.08 26.2337 Q1221.01 26.3147 1222.15 26.5172 L1222.19 34.1734 Z" fill="#000000" fill-rule="nonzero" fill-opacity="1" /><path clip-path="url(#clip640)" d="M1230.01 27.2059 L1237.46 27.2059 L1237.46 72.576 L1230.01 72.576 L1230.01 27.2059 M1230.01 9.54393 L1237.46 9.54393 L1237.46 18.9825 L1230.01 18.9825 L1230.01 9.54393 Z" fill="#000000" fill-rule="nonzero" fill-opacity="1" /><path clip-path="url(#clip640)" d="M1260.43 14.324 L1260.43 27.2059 L1275.78 27.2059 L1275.78 32.9987 L1260.43 32.9987 L1260.43 57.6282 Q1260.43 63.1779 1261.93 64.7578 Q1263.47 66.3376 1268.13 66.3376 L1275.78 66.3376 L1275.78 72.576 L1268.13 72.576 Q1259.5 72.576 1256.22 69.3758 Q1252.93 66.1351 1252.93 57.6282 L1252.93 32.9987 L1247.47 32.9987 L1247.47 27.2059 L1252.93 27.2059 L1252.93 14.324 L1260.43 14.324 Z" fill="#000000" fill-rule="nonzero" fill-opacity="1" /><path clip-path="url(#clip640)" d="M1285.58 27.2059 L1293.04 27.2059 L1293.04 72.576 L1285.58 72.576 L1285.58 27.2059 M1285.58 9.54393 L1293.04 9.54393 L1293.04 18.9825 L1285.58 18.9825 L1285.58 9.54393 Z" fill="#000000" fill-rule="nonzero" fill-opacity="1" /><path clip-path="url(#clip640)" d="M1347.44 48.0275 L1347.44 51.6733 L1313.17 51.6733 Q1313.66 59.3701 1317.79 63.421 Q1321.96 67.4314 1329.38 67.4314 Q1333.67 67.4314 1337.68 66.3781 Q1341.73 65.3249 1345.7 63.2184 L1345.7 70.267 Q1341.69 71.9684 1337.48 72.8596 Q1333.26 73.7508 1328.93 73.7508 Q1318.07 73.7508 1311.71 67.4314 Q1305.39 61.1119 1305.39 50.3365 Q1305.39 39.1965 1311.39 32.6746 Q1317.42 26.1121 1327.63 26.1121 Q1336.79 26.1121 1342.09 32.0264 Q1347.44 37.9003 1347.44 48.0275 M1339.99 45.84 Q1339.91 39.7232 1336.55 36.0774 Q1333.22 32.4315 1327.71 32.4315 Q1321.48 32.4315 1317.71 35.9558 Q1313.98 39.4801 1313.41 45.8805 L1339.99 45.84 Z" fill="#000000" fill-rule="nonzero" fill-opacity="1" /><path clip-path="url(#clip640)" d="M1388.6 28.5427 L1388.6 35.5912 Q1385.44 33.9709 1382.04 33.1607 Q1378.63 32.3505 1374.99 32.3505 Q1369.44 32.3505 1366.64 34.0519 Q1363.89 35.7533 1363.89 39.156 Q1363.89 41.7486 1365.87 43.2475 Q1367.86 44.7058 1373.85 46.0426 L1376.41 46.6097 Q1384.35 48.3111 1387.67 51.4303 Q1391.03 54.509 1391.03 60.0587 Q1391.03 66.3781 1386.01 70.0644 Q1381.02 73.7508 1372.27 73.7508 Q1368.63 73.7508 1364.66 73.0216 Q1360.73 72.3329 1356.35 70.9151 L1356.35 63.2184 Q1360.49 65.3654 1364.5 66.4591 Q1368.51 67.5124 1372.44 67.5124 Q1377.7 67.5124 1380.54 65.73 Q1383.37 63.9071 1383.37 60.6258 Q1383.37 57.5877 1381.31 55.9673 Q1379.28 54.3469 1372.36 52.8481 L1369.76 52.2405 Q1362.84 50.7821 1359.76 47.7845 Q1356.68 44.7463 1356.68 39.4801 Q1356.68 33.0797 1361.22 29.5959 Q1365.75 26.1121 1374.1 26.1121 Q1378.23 26.1121 1381.87 26.7198 Q1385.52 27.3274 1388.6 28.5427 Z" fill="#000000" fill-rule="nonzero" fill-opacity="1" /><path clip-path="url(#clip640)" d="M1461.92 28.9478 L1461.92 35.9153 Q1458.76 34.1734 1455.56 33.3227 Q1452.4 32.4315 1449.16 32.4315 Q1441.91 32.4315 1437.9 37.0496 Q1433.89 41.6271 1433.89 49.9314 Q1433.89 58.2358 1437.9 62.8538 Q1441.91 67.4314 1449.16 67.4314 Q1452.4 67.4314 1455.56 66.5807 Q1458.76 65.6895 1461.92 63.9476 L1461.92 70.8341 Q1458.8 72.2924 1455.44 73.0216 Q1452.12 73.7508 1448.35 73.7508 Q1438.1 73.7508 1432.07 67.3098 Q1426.03 60.8689 1426.03 49.9314 Q1426.03 38.832 1432.11 32.472 Q1438.22 26.1121 1448.84 26.1121 Q1452.28 26.1121 1455.56 26.8413 Q1458.84 27.5299 1461.92 28.9478 Z" fill="#000000" fill-rule="nonzero" fill-opacity="1" /><path clip-path="url(#clip640)" d="M1513.69 48.0275 L1513.69 51.6733 L1479.42 51.6733 Q1479.91 59.3701 1484.04 63.421 Q1488.21 67.4314 1495.62 67.4314 Q1499.92 67.4314 1503.93 66.3781 Q1507.98 65.3249 1511.95 63.2184 L1511.95 70.267 Q1507.94 71.9684 1503.73 72.8596 Q1499.51 73.7508 1495.18 73.7508 Q1484.32 73.7508 1477.96 67.4314 Q1471.64 61.1119 1471.64 50.3365 Q1471.64 39.1965 1477.64 32.6746 Q1483.67 26.1121 1493.88 26.1121 Q1503.04 26.1121 1508.34 32.0264 Q1513.69 37.9003 1513.69 48.0275 M1506.24 45.84 Q1506.16 39.7232 1502.79 36.0774 Q1499.47 32.4315 1493.96 32.4315 Q1487.72 32.4315 1483.96 35.9558 Q1480.23 39.4801 1479.66 45.8805 L1506.24 45.84 Z" fill="#000000" fill-rule="nonzero" fill-opacity="1" /><path clip-path="url(#clip640)" d="M1525.92 9.54393 L1533.38 9.54393 L1533.38 72.576 L1525.92 72.576 L1525.92 9.54393 Z" fill="#000000" fill-rule="nonzero" fill-opacity="1" /><path clip-path="url(#clip640)" d="M1548.97 9.54393 L1556.43 9.54393 L1556.43 72.576 L1548.97 72.576 L1548.97 9.54393 Z" fill="#000000" fill-rule="nonzero" fill-opacity="1" /><path clip-path="url(#clip640)" d="M1624.24 39.9662 Q1630.11 41.222 1633.4 45.1919 Q1636.72 49.1618 1636.72 54.9951 Q1636.72 63.9476 1630.56 68.8492 Q1624.4 73.7508 1613.06 73.7508 Q1609.25 73.7508 1605.2 72.9811 Q1601.19 72.2519 1596.9 70.7531 L1596.9 62.8538 Q1600.3 64.8388 1604.35 65.8515 Q1608.4 66.8642 1612.82 66.8642 Q1620.51 66.8642 1624.52 63.826 Q1628.57 60.7879 1628.57 54.9951 Q1628.57 49.6479 1624.81 46.6502 Q1621.08 43.612 1614.4 43.612 L1607.35 43.612 L1607.35 36.8875 L1614.72 36.8875 Q1620.76 36.8875 1623.96 34.4975 Q1627.16 32.067 1627.16 27.5299 Q1627.16 22.8714 1623.84 20.4004 Q1620.55 17.8888 1614.4 17.8888 Q1611.03 17.8888 1607.19 18.618 Q1603.34 19.3471 1598.72 20.8865 L1598.72 13.5948 Q1603.38 12.2985 1607.43 11.6504 Q1611.52 11.0023 1615.13 11.0023 Q1624.44 11.0023 1629.87 15.2557 Q1635.3 19.4686 1635.3 26.6793 Q1635.3 31.7024 1632.42 35.1862 Q1629.55 38.6294 1624.24 39.9662 Z" fill="#000000" fill-rule="nonzero" fill-opacity="1" /><path clip-path="url(#clip640)" d="M1652.31 12.096 L1684.44 12.096 L1684.44 18.9825 L1659.81 18.9825 L1659.81 33.8088 Q1661.59 33.2012 1663.37 32.9176 Q1665.15 32.5936 1666.94 32.5936 Q1677.06 32.5936 1682.98 38.1433 Q1688.89 43.6931 1688.89 53.1722 Q1688.89 62.9348 1682.82 68.3631 Q1676.74 73.7508 1665.68 73.7508 Q1661.87 73.7508 1657.9 73.1026 Q1653.97 72.4545 1649.76 71.1582 L1649.76 62.9348 Q1653.41 64.9198 1657.3 65.892 Q1661.18 66.8642 1665.52 66.8642 Q1672.53 66.8642 1676.62 63.1779 Q1680.71 59.4916 1680.71 53.1722 Q1680.71 46.8528 1676.62 43.1664 Q1672.53 39.4801 1665.52 39.4801 Q1662.24 39.4801 1658.96 40.2093 Q1655.72 40.9384 1652.31 42.4778 L1652.31 12.096 Z" fill="#000000" fill-rule="nonzero" fill-opacity="1" /><path clip-path="url(#clip640)" d="M1712.06 65.6895 L1740.62 65.6895 L1740.62 72.576 L1702.22 72.576 L1702.22 65.6895 Q1706.88 60.8689 1714.9 52.7671 Q1722.96 44.6248 1725.03 42.2752 Q1728.96 37.8598 1730.5 34.8216 Q1732.08 31.7429 1732.08 28.7857 Q1732.08 23.9651 1728.67 20.927 Q1725.31 17.8888 1719.88 17.8888 Q1716.03 17.8888 1711.74 19.2256 Q1707.49 20.5624 1702.63 23.2765 L1702.63 15.0127 Q1707.57 13.0277 1711.86 12.015 Q1716.16 11.0023 1719.72 11.0023 Q1729.12 11.0023 1734.71 15.7013 Q1740.3 20.4004 1740.3 28.2591 Q1740.3 31.9859 1738.88 35.3482 Q1737.5 38.6699 1733.82 43.2069 Q1732.8 44.3817 1727.38 50.0125 Q1721.95 55.6027 1712.06 65.6895 Z" fill="#000000" fill-rule="nonzero" fill-opacity="1" /><path clip-path="url(#clip640)" d="M1783.12 27.2059 L1790.57 27.2059 L1790.57 72.576 L1783.12 72.576 L1783.12 27.2059 M1783.12 9.54393 L1790.57 9.54393 L1790.57 18.9825 L1783.12 18.9825 L1783.12 9.54393 Z" fill="#000000" fill-rule="nonzero" fill-opacity="1" /><path clip-path="url(#clip640)" d="M1813.54 14.324 L1813.54 27.2059 L1828.89 27.2059 L1828.89 32.9987 L1813.54 32.9987 L1813.54 57.6282 Q1813.54 63.1779 1815.04 64.7578 Q1816.58 66.3376 1821.24 66.3376 L1828.89 66.3376 L1828.89 72.576 L1821.24 72.576 Q1812.61 72.576 1809.33 69.3758 Q1806.04 66.1351 1806.04 57.6282 L1806.04 32.9987 L1800.58 32.9987 L1800.58 27.2059 L1806.04 27.2059 L1806.04 14.324 L1813.54 14.324 Z" fill="#000000" fill-rule="nonzero" fill-opacity="1" /><path clip-path="url(#clip640)" d="M1877.5 48.0275 L1877.5 51.6733 L1843.23 51.6733 Q1843.72 59.3701 1847.85 63.421 Q1852.02 67.4314 1859.44 67.4314 Q1863.73 67.4314 1867.74 66.3781 Q1871.79 65.3249 1875.76 63.2184 L1875.76 70.267 Q1871.75 71.9684 1867.54 72.8596 Q1863.32 73.7508 1858.99 73.7508 Q1848.13 73.7508 1841.77 67.4314 Q1835.45 61.1119 1835.45 50.3365 Q1835.45 39.1965 1841.45 32.6746 Q1847.49 26.1121 1857.69 26.1121 Q1866.85 26.1121 1872.16 32.0264 Q1877.5 37.9003 1877.5 48.0275 M1870.05 45.84 Q1869.97 39.7232 1866.61 36.0774 Q1863.28 32.4315 1857.78 32.4315 Q1851.54 32.4315 1847.77 35.9558 Q1844.04 39.4801 1843.48 45.8805 L1870.05 45.84 Z" fill="#000000" fill-rule="nonzero" fill-opacity="1" /><path clip-path="url(#clip640)" d="M1916.03 34.1734 Q1914.77 33.4443 1913.27 33.1202 Q1911.81 32.7556 1910.03 32.7556 Q1903.71 32.7556 1900.31 36.8875 Q1896.95 40.9789 1896.95 48.6757 L1896.95 72.576 L1889.45 72.576 L1889.45 27.2059 L1896.95 27.2059 L1896.95 34.2544 Q1899.3 30.1225 1903.06 28.1376 Q1906.83 26.1121 1912.22 26.1121 Q1912.99 26.1121 1913.92 26.2337 Q1914.85 26.3147 1915.99 26.5172 L1916.03 34.1734 Z" fill="#000000" fill-rule="nonzero" fill-opacity="1" /><path clip-path="url(#clip640)" d="M1944.46 49.7694 Q1935.43 49.7694 1931.95 51.8354 Q1928.46 53.9013 1928.46 58.8839 Q1928.46 62.8538 1931.06 65.2034 Q1933.69 67.5124 1938.19 67.5124 Q1944.38 67.5124 1948.11 63.1374 Q1951.88 58.7219 1951.88 51.4303 L1951.88 49.7694 L1944.46 49.7694 M1959.33 46.6907 L1959.33 72.576 L1951.88 72.576 L1951.88 65.6895 Q1949.33 69.8214 1945.52 71.8063 Q1941.71 73.7508 1936.2 73.7508 Q1929.23 73.7508 1925.1 69.8619 Q1921.01 65.9325 1921.01 59.3701 Q1921.01 51.7138 1926.11 47.825 Q1931.26 43.9361 1941.43 43.9361 L1951.88 43.9361 L1951.88 43.2069 Q1951.88 38.0623 1948.47 35.2672 Q1945.11 32.4315 1939 32.4315 Q1935.11 32.4315 1931.42 33.3632 Q1927.73 34.295 1924.33 36.1584 L1924.33 29.2718 Q1928.42 27.692 1932.27 26.9223 Q1936.12 26.1121 1939.77 26.1121 Q1949.61 26.1121 1954.47 31.2163 Q1959.33 36.3204 1959.33 46.6907 Z" fill="#000000" fill-rule="nonzero" fill-opacity="1" /><path clip-path="url(#clip640)" d="M1982.06 14.324 L1982.06 27.2059 L1997.41 27.2059 L1997.41 32.9987 L1982.06 32.9987 L1982.06 57.6282 Q1982.06 63.1779 1983.56 64.7578 Q1985.09 66.3376 1989.75 66.3376 L1997.41 66.3376 L1997.41 72.576 L1989.75 72.576 Q1981.13 72.576 1977.84 69.3758 Q1974.56 66.1351 1974.56 57.6282 L1974.56 32.9987 L1969.09 32.9987 L1969.09 27.2059 L1974.56 27.2059 L1974.56 14.324 L1982.06 14.324 Z" fill="#000000" fill-rule="nonzero" fill-opacity="1" /><path clip-path="url(#clip640)" d="M2007.21 27.2059 L2014.67 27.2059 L2014.67 72.576 L2007.21 72.576 L2007.21 27.2059 M2007.21 9.54393 L2014.67 9.54393 L2014.67 18.9825 L2007.21 18.9825 L2007.21 9.54393 Z" fill="#000000" fill-rule="nonzero" fill-opacity="1" /><path clip-path="url(#clip640)" d="M2047.84 32.4315 Q2041.85 32.4315 2038.36 37.1306 Q2034.88 41.7891 2034.88 49.9314 Q2034.88 58.0738 2038.32 62.7728 Q2041.81 67.4314 2047.84 67.4314 Q2053.8 67.4314 2057.28 62.7323 Q2060.77 58.0333 2060.77 49.9314 Q2060.77 41.8701 2057.28 37.1711 Q2053.8 32.4315 2047.84 32.4315 M2047.84 26.1121 Q2057.57 26.1121 2063.12 32.4315 Q2068.67 38.7509 2068.67 49.9314 Q2068.67 61.0714 2063.12 67.4314 Q2057.57 73.7508 2047.84 73.7508 Q2038.08 73.7508 2032.53 67.4314 Q2027.02 61.0714 2027.02 49.9314 Q2027.02 38.7509 2032.53 32.4315 Q2038.08 26.1121 2047.84 26.1121 Z" fill="#000000" fill-rule="nonzero" fill-opacity="1" /><path clip-path="url(#clip640)" d="M2118.73 45.1919 L2118.73 72.576 L2111.28 72.576 L2111.28 45.4349 Q2111.28 38.994 2108.77 35.7938 Q2106.26 32.5936 2101.23 32.5936 Q2095.2 32.5936 2091.71 36.4419 Q2088.23 40.2903 2088.23 46.9338 L2088.23 72.576 L2080.74 72.576 L2080.74 27.2059 L2088.23 27.2059 L2088.23 34.2544 Q2090.9 30.163 2094.51 28.1376 Q2098.16 26.1121 2102.9 26.1121 Q2110.71 26.1121 2114.72 30.9732 Q2118.73 35.7938 2118.73 45.1919 Z" fill="#000000" fill-rule="nonzero" fill-opacity="1" /><path clip-path="url(#clip640)" d="M2168.07 65.6895 L2196.63 65.6895 L2196.63 72.576 L2158.23 72.576 L2158.23 65.6895 Q2162.89 60.8689 2170.91 52.7671 Q2178.97 44.6248 2181.04 42.2752 Q2184.97 37.8598 2186.51 34.8216 Q2188.09 31.7429 2188.09 28.7857 Q2188.09 23.9651 2184.68 20.927 Q2181.32 17.8888 2175.89 17.8888 Q2172.04 17.8888 2167.75 19.2256 Q2163.5 20.5624 2158.64 23.2765 L2158.64 15.0127 Q2163.58 13.0277 2167.87 12.015 Q2172.17 11.0023 2175.73 11.0023 Q2185.13 11.0023 2190.72 15.7013 Q2196.31 20.4004 2196.31 28.2591 Q2196.31 31.9859 2194.89 35.3482 Q2193.51 38.6699 2189.83 43.2069 Q2188.81 44.3817 2183.39 50.0125 Q2177.96 55.6027 2168.07 65.6895 Z" fill="#000000" fill-rule="nonzero" fill-opacity="1" /><path clip-path="url(#clip640)" d="M2231.31 17.4837 Q2224.99 17.4837 2221.79 23.7221 Q2218.63 29.92 2218.63 42.3968 Q2218.63 54.833 2221.79 61.0714 Q2224.99 67.2693 2231.31 67.2693 Q2237.67 67.2693 2240.83 61.0714 Q2244.03 54.833 2244.03 42.3968 Q2244.03 29.92 2240.83 23.7221 Q2237.67 17.4837 2231.31 17.4837 M2231.31 11.0023 Q2241.48 11.0023 2246.82 19.0636 Q2252.21 27.0843 2252.21 42.3968 Q2252.21 57.6687 2246.82 65.73 Q2241.48 73.7508 2231.31 73.7508 Q2221.14 73.7508 2215.75 65.73 Q2210.41 57.6687 2210.41 42.3968 Q2210.41 27.0843 2215.75 19.0636 Q2221.14 11.0023 2231.31 11.0023 Z" fill="#000000" fill-rule="nonzero" fill-opacity="1" /><polyline clip-path="url(#clip642)" style="stroke:#009af9; stroke-linecap:round; stroke-linejoin:round; stroke-width:4; stroke-opacity:1; fill:none" points="315.545,1386.4 317.525,1320.63 319.505,1320.25 321.484,1319.83 323.464,1319.68 325.444,1310.12 327.424,1309.55 329.404,1305.48 331.384,1305.22 333.364,1301.14 335.343,1300.96 337.323,1298.79 339.303,1296.03 341.283,1293.62 343.263,1291.03 345.243,1290.56 347.223,1290.28 349.202,1290.12 351.182,1284.64 353.162,1284.55 355.142,1283.89 357.122,1280.93 359.102,1279.31 361.082,1279.08 363.061,1278.71 365.041,1278.57 367.021,1277.16 369.001,1273.63 370.981,1271.47 372.961,1267.62 374.941,1266.9 376.92,1261.89 378.9,1261.72 380.88,1260.22 382.86,1256.66 384.84,1256.22 386.82,1256.07 388.8,1254.72 390.779,1253.29 392.759,1253.22 394.739,1250.93 396.719,1250.45 398.699,1249.15 400.679,1246.89 402.659,1244.64 404.638,1242.92 406.618,1239.15 408.598,1238.74 410.578,1237.68 412.558,1237.48 414.538,1237.39 416.517,1235.83 418.497,1234.48 420.477,1234.15 422.457,1234.05 424.437,1233.95 426.417,1233.26 428.397,1233.24 430.376,1232.62 432.356,1231.9 434.336,1231.5 436.316,1231.11 438.296,1230.77 440.276,1230.55 442.256,1230.02 444.235,1229.71 446.215,1228.86 448.195,1227.08 450.175,1226.92 452.155,1226.77 454.135,1226.59 456.115,1225.99 458.094,1225.54 460.074,1225.41 462.054,1225.36 464.034,1225.34 466.014,1225.08 467.994,1222.89 469.974,1222.56 471.953,1222.36 473.933,1222.31 475.913,1221.99 477.893,1221.62 479.873,1221.09 481.853,1219.87 483.833,1219.58 485.812,1218.36 487.792,1218.19 489.772,1217.92 491.752,1217.78 493.732,1217.04 495.712,1216.69 497.692,1216.09 499.671,1215.53 501.651,1215.43 503.631,1215.2 505.611,1215.01 507.591,1214.07 509.571,1213.55 511.551,1213.39 513.53,1212.78 515.51,1211.84 517.49,1211.55 519.47,1210.53 521.45,1210.34 523.43,1210.14 525.409,1210.08 527.389,1209.8 529.369,1209.63 531.349,1208.81 533.329,1208.11 535.309,1207.71 537.289,1206.99 539.268,1204.97 541.248,1204.93 543.228,1204.49 545.208,1203.24 547.188,1202.32 549.168,1201.19 551.148,1199.04 553.127,1197.9 555.107,1197.88 557.087,1196.84 559.067,1196.83 561.047,1196.77 563.027,1196.59 565.007,1196.18 566.986,1196.14 568.966,1195.84 570.946,1195.53 572.926,1195.37 574.906,1195.32 576.886,1194.81 578.866,1194.66 580.845,1194.57 582.825,1194.1 584.805,1193.95 586.785,1193.93 588.765,1193.86 590.745,1193.57 592.725,1193.18 594.704,1192.99 596.684,1192.85 598.664,1192.17 600.644,1189.91 602.624,1189.68 604.604,1189.46 606.584,1189.26 608.563,1188.98 610.543,1188.61 612.523,1187.93 614.503,1187.17 616.483,1185.57 618.463,1185.36 620.443,1185.11 622.422,1184.36 624.402,1183.94 626.382,1183.68 628.362,1183.49 630.342,1183.36 632.322,1183.25 634.301,1183.06 636.281,1180.62 638.261,1179.02 640.241,1178.9 642.221,1178.17 644.201,1177.87 646.181,1177.73 648.16,1177.72 650.14,1176.36 652.12,1175.4 654.1,1174.65 656.08,1172.63 658.06,1172.35 660.04,1172.2 662.019,1171.91 663.999,1171.4 665.979,1171.09 667.959,1170.63 669.939,1170.03 671.919,1169.78 673.899,1168.53 675.878,1168.12 677.858,1167.57 679.838,1167.11 681.818,1166 683.798,1165.81 685.778,1165.75 687.758,1165.64 689.737,1164.98 691.717,1164.87 693.697,1164.87 695.677,1164.37 697.657,1163.86 699.637,1163.4 701.617,1163.16 703.596,1162.83 705.576,1161.6 707.556,1161.52 709.536,1161.35 711.516,1161.12 713.496,1160.39 715.476,1160.25 717.455,1159.22 719.435,1158.05 721.415,1157.93 723.395,1157.76 725.375,1157.71 727.355,1157.34 729.335,1157.31 731.314,1157.13 733.294,1156.72 735.274,1156.54 737.254,1155.89 739.234,1155.29 741.214,1155.15 743.194,1154.77 745.173,1154.63 747.153,1154.58 749.133,1154.49 751.113,1154.23 753.093,1153.56 755.073,1153.18 757.052,1152.96 759.032,1152 761.012,1151.54 762.992,1151.41 764.972,1151.32 766.952,1151.06 768.932,1150.88 770.911,1150.53 772.891,1150.4 774.871,1149.87 776.851,1149.79 778.831,1149.65 780.811,1149.51 782.791,1149.37 784.77,1149.28 786.75,1149.18 788.73,1149.02 790.71,1148.83 792.69,1148.68 794.67,1148.1 796.65,1147.84 798.629,1146.85 800.609,1146.61 802.589,1145.89 804.569,1145.43 806.549,1145.39 808.529,1144.74 810.509,1144.65 812.488,1144.42 814.468,1144.13 816.448,1143.55 818.428,1142.89 820.408,1142.34 822.388,1141.6 824.368,1141.55 826.347,1141 828.327,1140.97 830.307,1140.91 832.287,1140.88 834.267,1139.63 836.247,1139.41 838.227,1139.24 840.206,1138.86 842.186,1138.24 844.166,1137.04 846.146,1136.64 848.126,1136.53 850.106,1136.04 852.086,1135.82 854.065,1135.38 856.045,1135.34 858.025,1134.83 860.005,1134.68 861.985,1134.5 863.965,1134.2 865.944,1134.08 867.924,1133.95 869.904,1133.56 871.884,1133.21 873.864,1131.72 875.844,1131.59 877.824,1130.98 879.803,1130.71 881.783,1130.12 883.763,1130.11 885.743,1128.78 887.723,1128.7 889.703,1128.68 891.683,1128.63 893.662,1128.56 895.642,1128.5 897.622,1128.48 899.602,1128.38 901.582,1128.35 903.562,1128.02 905.542,1127.88 907.521,1127.64 909.501,1126.71 911.481,1126.42 913.461,1126.23 915.441,1125.64 917.421,1125.02 919.401,1124.29 921.38,1124.04 923.36,1123.94 925.34,1123.78 927.32,1123.55 929.3,1123.11 931.28,1122.64 933.26,1122.27 935.239,1122.18 937.219,1121.83 939.199,1121.58 941.179,1121.21 943.159,1120.54 945.139,1120.18 947.119,1119.81 949.098,1119.5 951.078,1118.37 953.058,1117.55 955.038,1117.54 957.018,1116.81 958.998,1116.22 960.978,1114.4 962.957,1114.39 964.937,1114.09 966.917,1113.92 968.897,1113.86 970.877,1113.57 972.857,1113.44 974.836,1112.12 976.816,1112.04 978.796,1111.45 980.776,1111.21 982.756,1111.09 984.736,1110.85 986.716,1110.72 988.695,1110.71 990.675,1110.39 992.655,1110.09 994.635,1109.87 996.615,1109.8 998.595,1109.51 1000.57,1109.16 1002.55,1108.38 1004.53,1107.06 1006.51,1106.83 1008.49,1106.17 1010.47,1105.94 1012.45,1105.77 1014.43,1105.65 1016.41,1104.9 1018.39,1104.62 1020.37,1104.5 1022.35,1104.23 1024.33,1103.97 1026.31,1103.31 1028.29,1103.12 1030.27,1102.94 1032.25,1102.9 1034.23,1102.72 1036.21,1102.62 1038.19,1102.37 1040.17,1102.36 1042.15,1101.9 1044.13,1101.76 1046.11,1101.32 1048.09,1101.18 1050.07,1100.89 1052.05,1100.63 1054.03,1100.15 1056.01,1099.92 1057.99,1099.27 1059.97,1099.22 1061.95,1098.76 1063.93,1098.72 1065.91,1098.71 1067.89,1098.43 1069.87,1098.25 1071.85,1097.57 1073.83,1097.13 1075.81,1096.87 1077.79,1096.84 1079.77,1096.74 1081.75,1096.68 1083.73,1093.66 1085.71,1093.52 1087.69,1093.23 1089.67,1092.63 1091.65,1092.52 1093.63,1091.15 1095.61,1090.64 1097.59,1090.41 1099.57,1090.31 1101.55,1088.66 1103.53,1088.56 1105.51,1088.07 1107.49,1087.6 1109.47,1087.21 1111.45,1085.47 1113.43,1085.43 1115.41,1085.4 1117.39,1085.38 1119.37,1085.26 1121.35,1084.91 1123.33,1084.62 1125.31,1084.46 1127.29,1083.88 1129.27,1083.63 1131.25,1083.31 1133.22,1082.97 1135.2,1082.68 1137.18,1082.41 1139.16,1082.07 1141.14,1080.56 1143.12,1080.33 1145.1,1080.1 1147.08,1079.85 1149.06,1079.77 1151.04,1079.54 1153.02,1079.44 1155,1078.56 1156.98,1078.17 1158.96,1077.61 1160.94,1077.37 1162.92,1076.19 1164.9,1076.19 1166.88,1075.21 1168.86,1074.13 1170.84,1073.04 1172.82,1072.92 1174.8,1071.5 1176.78,1071.29 1178.76,1071.24 1180.74,1070.79 1182.72,1070.34 1184.7,1068.24 1186.68,1067.87 1188.66,1067.57 1190.64,1064.21 1192.62,1063.7 1194.6,1063.59 1196.58,1063.21 1198.56,1062.48 1200.54,1062.42 1202.52,1062.41 1204.5,1062.09 1206.48,1060.88 1208.46,1060.07 1210.44,1060.02 1212.42,1059.48 1214.4,1058.98 1216.38,1058.96 1218.36,1057.29 1220.34,1057.01 1222.32,1056.79 1224.3,1056.74 1226.28,1056.61 1228.26,1056.39 1230.24,1056.05 1232.22,1055.99 1234.2,1055.88 1236.18,1055.64 1238.16,1054.78 1240.14,1054.31 1242.12,1053.26 1244.1,1052.21 1246.08,1051.63 1248.06,1051.33 1250.04,1051.13 1252.02,1048.4 1254,1047.38 1255.98,1047.02 1257.96,1045.75 1259.94,1042.84 1261.92,1042.77 1263.9,1042.22 1265.88,1040.49 1267.85,1040.45 1269.83,1039.93 1271.81,1039.09 1273.79,1038.52 1275.77,1037.96 1277.75,1037.86 1279.73,1035.66 1281.71,1034.87 1283.69,1034.24 1285.67,1033.36 1287.65,1028.25 1289.63,1028.1 1291.61,1027.15 1293.59,1026.59 1295.57,1025.4 1297.55,1024.82 1299.53,1024.28 1301.51,1024.19 1303.49,1024.1 1305.47,1023.23 1307.45,1022.22 1309.43,1021.81 1311.41,1019.55 1313.39,1019.25 1315.37,1018.37 1317.35,1016.66 1319.33,1016.24 1321.31,1015.15 1323.29,1014.84 1325.27,1014.23 1327.25,1013.67 1329.23,1013.31 1331.21,1013 1333.19,1011.21 1335.17,1011.18 1337.15,1010.46 1339.13,1010.39 1341.11,1009.49 1343.09,1008.67 1345.07,1007.12 1347.05,1003.92 1349.03,1003.17 1351.01,999.781 1352.99,999.576 1354.97,999.168 1356.95,998.81 1358.93,998.366 1360.91,995.739 1362.89,995.461 1364.87,988.953 1366.85,988.862 1368.83,988.347 1370.81,985.47 1372.79,984.908 1374.77,981.443 1376.75,981.242 1378.73,980.195 1380.71,978.561 1382.69,976.83 1384.67,973.751 1386.65,972.739 1388.63,972.576 1390.61,972.46 1392.59,972.266 1394.57,972.181 1396.55,972.055 1398.53,971.355 1400.51,969.227 1402.49,968.572 1404.46,967.768 1406.44,967.752 1408.42,966.633 1410.4,966.296 1412.38,966.161 1414.36,966.055 1416.34,962.891 1418.32,961.894 1420.3,960.874 1422.28,960.631 1424.26,958.852 1426.24,958.709 1428.22,957.833 1430.2,957.039 1432.18,956.525 1434.16,956.313 1436.14,956.1 1438.12,954.571 1440.1,953.651 1442.08,953.264 1444.06,952.509 1446.04,951.316 1448.02,950.841 1450,950.575 1451.98,950.126 1453.96,949.935 1455.94,948.075 1457.92,947.18 1459.9,946.723 1461.88,945.177 1463.86,944.138 1465.84,943.204 1467.82,943.182 1469.8,941.443 1471.78,939.642 1473.76,939.599 1475.74,938.375 1477.72,938.317 1479.7,938.149 1481.68,938.093 1483.66,937.489 1485.64,937.111 1487.62,934.067 1489.6,933.176 1491.58,932.991 1493.56,932.473 1495.54,931.634 1497.52,931.407 1499.5,931.337 1501.48,931.297 1503.46,929.45 1505.44,929.308 1507.42,929.289 1509.4,927.365 1511.38,927.336 1513.36,927.303 1515.34,927.232 1517.32,927.221 1519.3,927.16 1521.28,926.471 1523.26,925.71 1525.24,925.67 1527.22,925.439 1529.2,925.391 1531.18,924.314 1533.16,921.465 1535.14,921.387 1537.12,920.855 1539.1,919.194 1541.07,918.593 1543.05,917.019 1545.03,916.599 1547.01,915.486 1548.99,914.639 1550.97,912.705 1552.95,912.257 1554.93,909.373 1556.91,909.269 1558.89,908.678 1560.87,906.731 1562.85,903.394 1564.83,902.016 1566.81,901.72 1568.79,901.578 1570.77,901.268 1572.75,899.888 1574.73,899.786 1576.71,899.681 1578.69,898.129 1580.67,897.083 1582.65,894.146 1584.63,894.076 1586.61,894.007 1588.59,893.523 1590.57,892.985 1592.55,892.931 1594.53,888.009 1596.51,887.395 1598.49,887.235 1600.47,886.29 1602.45,886.231 1604.43,884.771 1606.41,884.694 1608.39,883.627 1610.37,883.33 1612.35,882.937 1614.33,882.143 1616.31,882.051 1618.29,881.582 1620.27,879.504 1622.25,879.423 1624.23,878.502 1626.21,875.59 1628.19,875.345 1630.17,873.7 1632.15,873.089 1634.13,870.79 1636.11,869.655 1638.09,869.051 1640.07,868.208 1642.05,868.199 1644.03,866.986 1646.01,866.7 1647.99,866.36 1649.97,866.118 1651.95,862.799 1653.93,862.215 1655.91,861.749 1657.89,861.281 1659.87,860.548 1661.85,859.5 1663.83,859.331 1665.81,859.036 1667.79,858.96 1669.77,856.198 1671.75,853.007 1673.73,851.876 1675.71,850.912 1677.68,850.671 1679.66,850.648 1681.64,849.909 1683.62,848.023 1685.6,847.179 1687.58,847.091 1689.56,846.317 1691.54,845.657 1693.52,845.228 1695.5,845.057 1697.48,844.834 1699.46,844.527 1701.44,844.494 1703.42,843.474 1705.4,842.121 1707.38,841.5 1709.36,841.105 1711.34,837.895 1713.32,837.688 1715.3,834.053 1717.28,831.535 1719.26,829.034 1721.24,826.913 1723.22,825.325 1725.2,819.622 1727.18,819.516 1729.16,816.939 1731.14,816.195 1733.12,815.696 1735.1,814.935 1737.08,812.686 1739.06,811.907 1741.04,810.917 1743.02,809.69 1745,808.443 1746.98,807.489 1748.96,807.336 1750.94,805.251 1752.92,804.449 1754.9,802.821 1756.88,799.825 1758.86,794.555 1760.84,787.431 1762.82,786.505 1764.8,785.846 1766.78,784.804 1768.76,784.287 1770.74,783.89 1772.72,783.554 1774.7,783.327 1776.68,776.691 1778.66,772.015 1780.64,769.721 1782.62,757.05 1784.6,752.648 1786.58,751.856 1788.56,748.197 1790.54,740.804 1792.52,738.479 1794.5,736.442 1796.48,717.003 1798.46,715.163 1800.44,655.545 1802.42,620.276 1804.4,559.765 1806.38,558.34 1808.36,548.333 1810.34,543.496 1812.31,488.851 1814.29,477.57 1816.27,475.571 1818.25,440.251 1820.23,437.53 1822.21,433.559 1824.19,424.292 1826.17,422.312 1828.15,418.521 1830.13,416.318 1832.11,407.564 1834.09,377.732 1836.07,377.317 1838.05,375.187 1840.03,371.067 1842.01,369.488 1843.99,359.968 1845.97,359.018 1847.95,356.949 1849.93,355.147 1851.91,352.907 1853.89,352.422 1855.87,349.698 1857.85,348.563 1859.83,346.755 1861.81,338.157 1863.79,337.241 1865.77,334.968 1867.75,334.573 1869.73,333.677 1871.71,330.446 1873.69,329.578 1875.67,326.464 1877.65,321.594 1879.63,316.979 1881.61,314.381 1883.59,313.18 1885.57,312.016 1887.55,310.32 1889.53,310.019 1891.51,306.719 1893.49,306.26 1895.47,304.722 1897.45,303.749 1899.43,303.715 1901.41,300.042 1903.39,299.463 1905.37,298.723 1907.35,295.274 1909.33,295.152 1911.31,292.95 1913.29,290.357 1915.27,287.062 1917.25,286.996 1919.23,285.542 1921.21,283.835 1923.19,283.772 1925.17,281.726 1927.15,280.969 1929.13,278.522 1931.11,277.212 1933.09,277.184 1935.07,274.034 1937.05,273.301 1939.03,272.393 1941.01,270.822 1942.99,268.544 1944.97,267.868 1946.95,266.852 1948.92,266.73 1950.9,266.172 1952.88,266.121 1954.86,266.031 1956.84,265.085 1958.82,261.241 1960.8,260.368 1962.78,260.262 1964.76,258.33 1966.74,256.751 1968.72,256.111 1970.7,254.212 1972.68,253.859 1974.66,253.419 1976.64,252.048 1978.62,251.282 1980.6,251.133 1982.58,250.956 1984.56,250.799 1986.54,250.409 1988.52,249.306 1990.5,248.897 1992.48,247.229 1994.46,246.875 1996.44,246.816 1998.42,245.356 2000.4,245.107 2002.38,244.943 2004.36,244.757 2006.34,243.267 2008.32,243.22 2010.3,242.506 2012.28,241.253 2014.26,240.426 2016.24,239.814 2018.22,238.628 2020.2,238.376 2022.18,238.253 2024.16,237.992 2026.14,237.987 2028.12,237.711 2030.1,237.627 2032.08,237.298 2034.06,236.651 2036.04,235.725 2038.02,235.381 2040,235.341 2041.98,234.48 2043.96,234.412 2045.94,233.4 2047.92,233.141 2049.9,232.665 2051.88,232.513 2053.86,232.486 2055.84,232.459 2057.82,231.222 2059.8,231.177 2061.78,230.667 2063.76,230.401 2065.74,229.962 2067.72,229.727 2069.7,229.632 2071.68,229.084 2073.66,228.818 2075.64,228.586 2077.62,228.479 2079.6,228.173 2081.58,227.808 2083.56,227.63 2085.53,225.324 2087.51,224.045 2089.49,223.392 2091.47,222.438 2093.45,220.102 2095.43,218.546 2097.41,218.305 2099.39,218.075 2101.37,216.903 2103.35,216.882 2105.33,216.811 2107.31,216.006 2109.29,215.985 2111.27,214.58 2113.25,214.425 2115.23,212.949 2117.21,212.79 2119.19,212.492 2121.17,211.941 2123.15,211.551 2125.13,210.991 2127.11,210.098 2129.09,209.884 2131.07,208.91 2133.05,208.121 2135.03,207.511 2137.01,207.198 2138.99,206.469 2140.97,206.344 2142.95,206.178 2144.93,205.803 2146.91,205.718 2148.89,203.808 2150.87,203.442 2152.85,203.073 2154.83,202.5 2156.81,202.341 2158.79,202.271 2160.77,202.088 2162.75,200.788 2164.73,200.752 2166.71,200.407 2168.69,199.594 2170.67,199.586 2172.65,198.41 2174.63,197.817 2176.61,197.201 2178.59,195.783 2180.57,195.576 2182.55,195.522 2184.53,194.519 2186.51,194.478 2188.49,194.4 2190.47,193.921 2192.45,193.647 2194.43,193.584 2196.41,193.343 2198.39,192.911 2200.37,192.785 2202.35,192.73 2204.33,191.801 2206.31,191.783 2208.29,189.686 2210.27,189.584 2212.25,189.094 2214.23,189.078 2216.21,188.11 2218.19,187.531 2220.17,187.031 2222.14,186.868 2224.12,186.193 2226.1,186.051 2228.08,185.958 2230.06,185.021 2232.04,184.684 2234.02,184.229 2236,183.789 2237.98,183.47 2239.96,182.972 2241.94,181.861 2243.92,181.092 2245.9,180.845 2247.88,179.809 2249.86,179.674 2251.84,178.89 2253.82,178.549 2255.8,178.326 2257.78,178.154 2259.76,177.559 2261.74,176.92 2263.72,176.054 2265.7,175.982 2267.68,175.047 2269.66,173.45 2271.64,173.388 2273.62,172.42 2275.6,171.708 2277.58,171.684 2279.56,169.559 2281.54,169.435 2283.52,169.409 2285.5,168.27 2287.48,166.197 2289.46,162.498 2291.44,161.915 2293.42,160.256 "/>
<path clip-path="url(#clip640)" d="M326.094 270.476 L755.354 270.476 L755.354 166.796 L326.094 166.796  Z" fill="#ffffff" fill-rule="evenodd" fill-opacity="1"/>
<polyline clip-path="url(#clip640)" style="stroke:#000000; stroke-linecap:round; stroke-linejoin:round; stroke-width:4; stroke-opacity:1; fill:none" points="326.094,270.476 755.354,270.476 755.354,166.796 326.094,166.796 326.094,270.476 "/>
<polyline clip-path="url(#clip640)" style="stroke:#009af9; stroke-linecap:round; stroke-linejoin:round; stroke-width:4; stroke-opacity:1; fill:none" points="349.389,218.636 489.158,218.636 "/>
<path clip-path="url(#clip640)" d="M534.699 202.49 L534.699 207.05 Q532.037 205.777 529.675 205.152 Q527.314 204.527 525.115 204.527 Q521.296 204.527 519.213 206.008 Q517.152 207.49 517.152 210.221 Q517.152 212.513 518.518 213.694 Q519.907 214.851 523.75 215.569 L526.574 216.147 Q531.805 217.143 534.282 219.666 Q536.782 222.166 536.782 226.379 Q536.782 231.402 533.402 233.994 Q530.046 236.587 523.541 236.587 Q521.088 236.587 518.31 236.031 Q515.555 235.476 512.592 234.388 L512.592 229.573 Q515.439 231.17 518.171 231.981 Q520.902 232.791 523.541 232.791 Q527.546 232.791 529.722 231.217 Q531.898 229.643 531.898 226.726 Q531.898 224.18 530.324 222.744 Q528.773 221.309 525.208 220.592 L522.361 220.036 Q517.129 218.995 514.791 216.772 Q512.453 214.55 512.453 210.592 Q512.453 206.008 515.671 203.37 Q518.912 200.731 524.583 200.731 Q527.013 200.731 529.537 201.171 Q532.06 201.61 534.699 202.49 Z" fill="#000000" fill-rule="nonzero" fill-opacity="1" /><path clip-path="url(#clip640)" d="M543.888 209.99 L548.148 209.99 L548.148 235.916 L543.888 235.916 L543.888 209.99 M543.888 199.897 L548.148 199.897 L548.148 205.291 L543.888 205.291 L543.888 199.897 Z" fill="#000000" fill-rule="nonzero" fill-opacity="1" /><path clip-path="url(#clip640)" d="M577.245 214.967 Q578.842 212.096 581.064 210.731 Q583.286 209.365 586.296 209.365 Q590.346 209.365 592.545 212.212 Q594.745 215.036 594.745 220.268 L594.745 235.916 L590.462 235.916 L590.462 220.407 Q590.462 216.68 589.143 214.874 Q587.823 213.069 585.115 213.069 Q581.805 213.069 579.884 215.268 Q577.962 217.467 577.962 221.263 L577.962 235.916 L573.68 235.916 L573.68 220.407 Q573.68 216.657 572.36 214.874 Q571.041 213.069 568.286 213.069 Q565.022 213.069 563.101 215.291 Q561.18 217.49 561.18 221.263 L561.18 235.916 L556.898 235.916 L556.898 209.99 L561.18 209.99 L561.18 214.018 Q562.638 211.633 564.675 210.499 Q566.712 209.365 569.513 209.365 Q572.337 209.365 574.305 210.8 Q576.296 212.235 577.245 214.967 Z" fill="#000000" fill-rule="nonzero" fill-opacity="1" /><path clip-path="url(#clip640)" d="M603.24 209.99 L607.499 209.99 L607.499 235.916 L603.24 235.916 L603.24 209.99 M603.24 199.897 L607.499 199.897 L607.499 205.291 L603.24 205.291 L603.24 199.897 Z" fill="#000000" fill-rule="nonzero" fill-opacity="1" /><path clip-path="url(#clip640)" d="M616.411 199.897 L620.67 199.897 L620.67 235.916 L616.411 235.916 L616.411 199.897 Z" fill="#000000" fill-rule="nonzero" fill-opacity="1" /><path clip-path="url(#clip640)" d="M641.365 222.883 Q636.203 222.883 634.212 224.064 Q632.221 225.244 632.221 228.092 Q632.221 230.36 633.703 231.703 Q635.207 233.022 637.777 233.022 Q641.318 233.022 643.448 230.522 Q645.601 227.999 645.601 223.832 L645.601 222.883 L641.365 222.883 M649.86 221.124 L649.86 235.916 L645.601 235.916 L645.601 231.981 Q644.142 234.342 641.967 235.476 Q639.791 236.587 636.642 236.587 Q632.661 236.587 630.3 234.365 Q627.962 232.119 627.962 228.369 Q627.962 223.994 630.879 221.772 Q633.818 219.55 639.629 219.55 L645.601 219.55 L645.601 219.133 Q645.601 216.194 643.656 214.596 Q641.735 212.976 638.24 212.976 Q636.017 212.976 633.911 213.508 Q631.805 214.041 629.86 215.106 L629.86 211.17 Q632.198 210.268 634.397 209.828 Q636.596 209.365 638.68 209.365 Q644.304 209.365 647.082 212.282 Q649.86 215.198 649.86 221.124 Z" fill="#000000" fill-rule="nonzero" fill-opacity="1" /><path clip-path="url(#clip640)" d="M673.656 213.971 Q672.939 213.555 672.082 213.37 Q671.249 213.161 670.23 213.161 Q666.619 213.161 664.675 215.522 Q662.753 217.86 662.753 222.258 L662.753 235.916 L658.471 235.916 L658.471 209.99 L662.753 209.99 L662.753 214.018 Q664.096 211.657 666.249 210.522 Q668.402 209.365 671.48 209.365 Q671.92 209.365 672.452 209.434 Q672.985 209.481 673.633 209.596 L673.656 213.971 Z" fill="#000000" fill-rule="nonzero" fill-opacity="1" /><path clip-path="url(#clip640)" d="M678.124 209.99 L682.383 209.99 L682.383 235.916 L678.124 235.916 L678.124 209.99 M678.124 199.897 L682.383 199.897 L682.383 205.291 L678.124 205.291 L678.124 199.897 Z" fill="#000000" fill-rule="nonzero" fill-opacity="1" /><path clip-path="url(#clip640)" d="M695.508 202.629 L695.508 209.99 L704.281 209.99 L704.281 213.3 L695.508 213.3 L695.508 227.374 Q695.508 230.545 696.364 231.448 Q697.244 232.351 699.906 232.351 L704.281 232.351 L704.281 235.916 L699.906 235.916 Q694.975 235.916 693.101 234.087 Q691.226 232.235 691.226 227.374 L691.226 213.3 L688.101 213.3 L688.101 209.99 L691.226 209.99 L691.226 202.629 L695.508 202.629 Z" fill="#000000" fill-rule="nonzero" fill-opacity="1" /><path clip-path="url(#clip640)" d="M720.67 238.323 Q718.864 242.953 717.151 244.365 Q715.438 245.777 712.568 245.777 L709.165 245.777 L709.165 242.212 L711.665 242.212 Q713.424 242.212 714.397 241.379 Q715.369 240.545 716.549 237.443 L717.313 235.499 L706.827 209.99 L711.341 209.99 L719.443 230.268 L727.545 209.99 L732.059 209.99 L720.67 238.323 Z" fill="#000000" fill-rule="nonzero" fill-opacity="1" /></svg>
