<?xml version="1.0" encoding="utf-8"?>
<svg xmlns="http://www.w3.org/2000/svg" xmlns:xlink="http://www.w3.org/1999/xlink" width="600" height="400" viewBox="0 0 2400 1600">
<defs>
  <clipPath id="clip600">
    <rect x="0" y="0" width="2400" height="1600"/>
  </clipPath>
</defs>
<path clip-path="url(#clip600)" d="M0 1600 L2400 1600 L2400 8.88178e-14 L0 8.88178e-14  Z" fill="#ffffff" fill-rule="evenodd" fill-opacity="1"/>
<defs>
  <clipPath id="clip601">
    <rect x="480" y="0" width="1681" height="1600"/>
  </clipPath>
</defs>
<path clip-path="url(#clip600)" d="M256.209 1423.18 L2352.76 1423.18 L2352.76 123.472 L256.209 123.472  Z" fill="#ffffff" fill-rule="evenodd" fill-opacity="1"/>
<defs>
  <clipPath id="clip602">
    <rect x="256" y="123" width="2098" height="1301"/>
  </clipPath>
</defs>
<polyline clip-path="url(#clip602)" style="stroke:#000000; stroke-linecap:round; stroke-linejoin:round; stroke-width:2; stroke-opacity:0.1; fill:none" points="313.565,1423.18 313.565,123.472 "/>
<polyline clip-path="url(#clip602)" style="stroke:#000000; stroke-linecap:round; stroke-linejoin:round; stroke-width:2; stroke-opacity:0.1; fill:none" points="808.529,1423.18 808.529,123.472 "/>
<polyline clip-path="url(#clip602)" style="stroke:#000000; stroke-linecap:round; stroke-linejoin:round; stroke-width:2; stroke-opacity:0.1; fill:none" points="1303.49,1423.18 1303.49,123.472 "/>
<polyline clip-path="url(#clip602)" style="stroke:#000000; stroke-linecap:round; stroke-linejoin:round; stroke-width:2; stroke-opacity:0.1; fill:none" points="1798.46,1423.18 1798.46,123.472 "/>
<polyline clip-path="url(#clip602)" style="stroke:#000000; stroke-linecap:round; stroke-linejoin:round; stroke-width:2; stroke-opacity:0.1; fill:none" points="2293.42,1423.18 2293.42,123.472 "/>
<polyline clip-path="url(#clip600)" style="stroke:#000000; stroke-linecap:round; stroke-linejoin:round; stroke-width:4; stroke-opacity:1; fill:none" points="256.209,1423.18 2352.76,1423.18 "/>
<polyline clip-path="url(#clip600)" style="stroke:#000000; stroke-linecap:round; stroke-linejoin:round; stroke-width:4; stroke-opacity:1; fill:none" points="313.565,1423.18 313.565,1404.28 "/>
<polyline clip-path="url(#clip600)" style="stroke:#000000; stroke-linecap:round; stroke-linejoin:round; stroke-width:4; stroke-opacity:1; fill:none" points="808.529,1423.18 808.529,1404.28 "/>
<polyline clip-path="url(#clip600)" style="stroke:#000000; stroke-linecap:round; stroke-linejoin:round; stroke-width:4; stroke-opacity:1; fill:none" points="1303.49,1423.18 1303.49,1404.28 "/>
<polyline clip-path="url(#clip600)" style="stroke:#000000; stroke-linecap:round; stroke-linejoin:round; stroke-width:4; stroke-opacity:1; fill:none" points="1798.46,1423.18 1798.46,1404.28 "/>
<polyline clip-path="url(#clip600)" style="stroke:#000000; stroke-linecap:round; stroke-linejoin:round; stroke-width:4; stroke-opacity:1; fill:none" points="2293.42,1423.18 2293.42,1404.28 "/>
<path clip-path="url(#clip600)" d="M313.565 1454.1 Q309.954 1454.1 308.125 1457.66 Q306.32 1461.2 306.32 1468.33 Q306.32 1475.44 308.125 1479.01 Q309.954 1482.55 313.565 1482.55 Q317.199 1482.55 319.005 1479.01 Q320.834 1475.44 320.834 1468.33 Q320.834 1461.2 319.005 1457.66 Q317.199 1454.1 313.565 1454.1 M313.565 1450.39 Q319.375 1450.39 322.431 1455 Q325.509 1459.58 325.509 1468.33 Q325.509 1477.06 322.431 1481.67 Q319.375 1486.25 313.565 1486.25 Q307.755 1486.25 304.676 1481.67 Q301.621 1477.06 301.621 1468.33 Q301.621 1459.58 304.676 1455 Q307.755 1450.39 313.565 1450.39 Z" fill="#000000" fill-rule="nonzero" fill-opacity="1" /><path clip-path="url(#clip600)" d="M772.221 1481.64 L788.54 1481.64 L788.54 1485.58 L766.596 1485.58 L766.596 1481.64 Q769.258 1478.89 773.841 1474.26 Q778.448 1469.61 779.628 1468.27 Q781.874 1465.74 782.753 1464.01 Q783.656 1462.25 783.656 1460.56 Q783.656 1457.8 781.712 1456.07 Q779.79 1454.33 776.689 1454.33 Q774.49 1454.33 772.036 1455.09 Q769.605 1455.86 766.828 1457.41 L766.828 1452.69 Q769.652 1451.55 772.105 1450.97 Q774.559 1450.39 776.596 1450.39 Q781.966 1450.39 785.161 1453.08 Q788.355 1455.77 788.355 1460.26 Q788.355 1462.39 787.545 1464.31 Q786.758 1466.2 784.652 1468.8 Q784.073 1469.47 780.971 1472.69 Q777.869 1475.88 772.221 1481.64 Z" fill="#000000" fill-rule="nonzero" fill-opacity="1" /><path clip-path="url(#clip600)" d="M798.401 1451.02 L816.758 1451.02 L816.758 1454.96 L802.684 1454.96 L802.684 1463.43 Q803.702 1463.08 804.721 1462.92 Q805.739 1462.73 806.758 1462.73 Q812.545 1462.73 815.924 1465.9 Q819.304 1469.08 819.304 1474.49 Q819.304 1480.07 815.832 1483.17 Q812.36 1486.25 806.04 1486.25 Q803.864 1486.25 801.596 1485.88 Q799.351 1485.51 796.943 1484.77 L796.943 1480.07 Q799.026 1481.2 801.249 1481.76 Q803.471 1482.32 805.948 1482.32 Q809.952 1482.32 812.29 1480.21 Q814.628 1478.1 814.628 1474.49 Q814.628 1470.88 812.29 1468.77 Q809.952 1466.67 805.948 1466.67 Q804.073 1466.67 802.198 1467.08 Q800.346 1467.5 798.401 1468.38 L798.401 1451.02 Z" fill="#000000" fill-rule="nonzero" fill-opacity="1" /><path clip-path="url(#clip600)" d="M838.517 1454.1 Q834.906 1454.1 833.077 1457.66 Q831.272 1461.2 831.272 1468.33 Q831.272 1475.44 833.077 1479.01 Q834.906 1482.55 838.517 1482.55 Q842.151 1482.55 843.957 1479.01 Q845.785 1475.44 845.785 1468.33 Q845.785 1461.2 843.957 1457.66 Q842.151 1454.1 838.517 1454.1 M838.517 1450.39 Q844.327 1450.39 847.383 1455 Q850.461 1459.58 850.461 1468.33 Q850.461 1477.06 847.383 1481.67 Q844.327 1486.25 838.517 1486.25 Q832.707 1486.25 829.628 1481.67 Q826.573 1477.06 826.573 1468.33 Q826.573 1459.58 829.628 1455 Q832.707 1450.39 838.517 1450.39 Z" fill="#000000" fill-rule="nonzero" fill-opacity="1" /><path clip-path="url(#clip600)" d="M1263.11 1451.02 L1281.47 1451.02 L1281.47 1454.96 L1267.39 1454.96 L1267.39 1463.43 Q1268.41 1463.08 1269.43 1462.92 Q1270.45 1462.73 1271.47 1462.73 Q1277.25 1462.73 1280.63 1465.9 Q1284.01 1469.08 1284.01 1474.49 Q1284.01 1480.07 1280.54 1483.17 Q1277.07 1486.25 1270.75 1486.25 Q1268.57 1486.25 1266.31 1485.88 Q1264.06 1485.51 1261.65 1484.77 L1261.65 1480.07 Q1263.74 1481.2 1265.96 1481.76 Q1268.18 1482.32 1270.66 1482.32 Q1274.66 1482.32 1277 1480.21 Q1279.34 1478.1 1279.34 1474.49 Q1279.34 1470.88 1277 1468.77 Q1274.66 1466.67 1270.66 1466.67 Q1268.78 1466.67 1266.91 1467.08 Q1265.06 1467.5 1263.11 1468.38 L1263.11 1451.02 Z" fill="#000000" fill-rule="nonzero" fill-opacity="1" /><path clip-path="url(#clip600)" d="M1303.23 1454.1 Q1299.62 1454.1 1297.79 1457.66 Q1295.98 1461.2 1295.98 1468.33 Q1295.98 1475.44 1297.79 1479.01 Q1299.62 1482.55 1303.23 1482.55 Q1306.86 1482.55 1308.67 1479.01 Q1310.49 1475.44 1310.49 1468.33 Q1310.49 1461.2 1308.67 1457.66 Q1306.86 1454.1 1303.23 1454.1 M1303.23 1450.39 Q1309.04 1450.39 1312.09 1455 Q1315.17 1459.58 1315.17 1468.33 Q1315.17 1477.06 1312.09 1481.67 Q1309.04 1486.25 1303.23 1486.25 Q1297.42 1486.25 1294.34 1481.67 Q1291.28 1477.06 1291.28 1468.33 Q1291.28 1459.58 1294.34 1455 Q1297.42 1450.39 1303.23 1450.39 Z" fill="#000000" fill-rule="nonzero" fill-opacity="1" /><path clip-path="url(#clip600)" d="M1333.39 1454.1 Q1329.78 1454.1 1327.95 1457.66 Q1326.14 1461.2 1326.14 1468.33 Q1326.14 1475.44 1327.95 1479.01 Q1329.78 1482.55 1333.39 1482.55 Q1337.02 1482.55 1338.83 1479.01 Q1340.66 1475.44 1340.66 1468.33 Q1340.66 1461.2 1338.83 1457.66 Q1337.02 1454.1 1333.39 1454.1 M1333.39 1450.39 Q1339.2 1450.39 1342.25 1455 Q1345.33 1459.58 1345.33 1468.33 Q1345.33 1477.06 1342.25 1481.67 Q1339.2 1486.25 1333.39 1486.25 Q1327.58 1486.25 1324.5 1481.67 Q1321.44 1477.06 1321.44 1468.33 Q1321.44 1459.58 1324.5 1455 Q1327.58 1450.39 1333.39 1450.39 Z" fill="#000000" fill-rule="nonzero" fill-opacity="1" /><path clip-path="url(#clip600)" d="M1756.73 1451.02 L1778.95 1451.02 L1778.95 1453.01 L1766.41 1485.58 L1761.52 1485.58 L1773.33 1454.96 L1756.73 1454.96 L1756.73 1451.02 Z" fill="#000000" fill-rule="nonzero" fill-opacity="1" /><path clip-path="url(#clip600)" d="M1788.12 1451.02 L1806.48 1451.02 L1806.48 1454.96 L1792.4 1454.96 L1792.4 1463.43 Q1793.42 1463.08 1794.44 1462.92 Q1795.46 1462.73 1796.48 1462.73 Q1802.26 1462.73 1805.64 1465.9 Q1809.02 1469.08 1809.02 1474.49 Q1809.02 1480.07 1805.55 1483.17 Q1802.08 1486.25 1795.76 1486.25 Q1793.58 1486.25 1791.31 1485.88 Q1789.07 1485.51 1786.66 1484.77 L1786.66 1480.07 Q1788.75 1481.2 1790.97 1481.76 Q1793.19 1482.32 1795.67 1482.32 Q1799.67 1482.32 1802.01 1480.21 Q1804.35 1478.1 1804.35 1474.49 Q1804.35 1470.88 1802.01 1468.77 Q1799.67 1466.67 1795.67 1466.67 Q1793.79 1466.67 1791.92 1467.08 Q1790.06 1467.5 1788.12 1468.38 L1788.12 1451.02 Z" fill="#000000" fill-rule="nonzero" fill-opacity="1" /><path clip-path="url(#clip600)" d="M1828.24 1454.1 Q1824.62 1454.1 1822.8 1457.66 Q1820.99 1461.2 1820.99 1468.33 Q1820.99 1475.44 1822.8 1479.01 Q1824.62 1482.55 1828.24 1482.55 Q1831.87 1482.55 1833.68 1479.01 Q1835.5 1475.44 1835.5 1468.33 Q1835.5 1461.2 1833.68 1457.66 Q1831.87 1454.1 1828.24 1454.1 M1828.24 1450.39 Q1834.05 1450.39 1837.1 1455 Q1840.18 1459.58 1840.18 1468.33 Q1840.18 1477.06 1837.1 1481.67 Q1834.05 1486.25 1828.24 1486.25 Q1822.43 1486.25 1819.35 1481.67 Q1816.29 1477.06 1816.29 1468.33 Q1816.29 1459.58 1819.35 1455 Q1822.43 1450.39 1828.24 1450.39 Z" fill="#000000" fill-rule="nonzero" fill-opacity="1" /><path clip-path="url(#clip600)" d="M2237.95 1481.64 L2245.58 1481.64 L2245.58 1455.28 L2237.27 1456.95 L2237.27 1452.69 L2245.54 1451.02 L2250.21 1451.02 L2250.21 1481.64 L2257.85 1481.64 L2257.85 1485.58 L2237.95 1485.58 L2237.95 1481.64 Z" fill="#000000" fill-rule="nonzero" fill-opacity="1" /><path clip-path="url(#clip600)" d="M2277.3 1454.1 Q2273.69 1454.1 2271.86 1457.66 Q2270.05 1461.2 2270.05 1468.33 Q2270.05 1475.44 2271.86 1479.01 Q2273.69 1482.55 2277.3 1482.55 Q2280.93 1482.55 2282.74 1479.01 Q2284.57 1475.44 2284.57 1468.33 Q2284.57 1461.2 2282.74 1457.66 Q2280.93 1454.1 2277.3 1454.1 M2277.3 1450.39 Q2283.11 1450.39 2286.16 1455 Q2289.24 1459.58 2289.24 1468.33 Q2289.24 1477.06 2286.16 1481.67 Q2283.11 1486.25 2277.3 1486.25 Q2271.49 1486.25 2268.41 1481.67 Q2265.35 1477.06 2265.35 1468.33 Q2265.35 1459.58 2268.41 1455 Q2271.49 1450.39 2277.3 1450.39 Z" fill="#000000" fill-rule="nonzero" fill-opacity="1" /><path clip-path="url(#clip600)" d="M2307.46 1454.1 Q2303.85 1454.1 2302.02 1457.66 Q2300.21 1461.2 2300.21 1468.33 Q2300.21 1475.44 2302.02 1479.01 Q2303.85 1482.55 2307.46 1482.55 Q2311.09 1482.55 2312.9 1479.01 Q2314.73 1475.44 2314.73 1468.33 Q2314.73 1461.2 2312.9 1457.66 Q2311.09 1454.1 2307.46 1454.1 M2307.46 1450.39 Q2313.27 1450.39 2316.32 1455 Q2319.4 1459.58 2319.4 1468.33 Q2319.4 1477.06 2316.32 1481.67 Q2313.27 1486.25 2307.46 1486.25 Q2301.65 1486.25 2298.57 1481.67 Q2295.51 1477.06 2295.51 1468.33 Q2295.51 1459.58 2298.57 1455 Q2301.65 1450.39 2307.46 1450.39 Z" fill="#000000" fill-rule="nonzero" fill-opacity="1" /><path clip-path="url(#clip600)" d="M2337.62 1454.1 Q2334.01 1454.1 2332.18 1457.66 Q2330.38 1461.2 2330.38 1468.33 Q2330.38 1475.44 2332.18 1479.01 Q2334.01 1482.55 2337.62 1482.55 Q2341.26 1482.55 2343.06 1479.01 Q2344.89 1475.44 2344.89 1468.33 Q2344.89 1461.2 2343.06 1457.66 Q2341.26 1454.1 2337.62 1454.1 M2337.62 1450.39 Q2343.43 1450.39 2346.49 1455 Q2349.57 1459.58 2349.57 1468.33 Q2349.57 1477.06 2346.49 1481.67 Q2343.43 1486.25 2337.62 1486.25 Q2331.81 1486.25 2328.73 1481.67 Q2325.68 1477.06 2325.68 1468.33 Q2325.68 1459.58 2328.73 1455 Q2331.81 1450.39 2337.62 1450.39 Z" fill="#000000" fill-rule="nonzero" fill-opacity="1" /><path clip-path="url(#clip600)" d="M1268.33 1524.18 L1268.33 1530.96 Q1265.08 1527.94 1261.39 1526.44 Q1257.73 1524.95 1253.59 1524.95 Q1245.44 1524.95 1241.11 1529.95 Q1236.78 1534.91 1236.78 1544.33 Q1236.78 1553.72 1241.11 1558.72 Q1245.44 1563.68 1253.59 1563.68 Q1257.73 1563.68 1261.39 1562.19 Q1265.08 1560.69 1268.33 1557.67 L1268.33 1564.38 Q1264.95 1566.68 1261.16 1567.82 Q1257.41 1568.97 1253.21 1568.97 Q1242.42 1568.97 1236.21 1562.38 Q1230 1555.76 1230 1544.33 Q1230 1532.87 1236.21 1526.28 Q1242.42 1519.66 1253.21 1519.66 Q1257.47 1519.66 1261.23 1520.81 Q1265.01 1521.92 1268.33 1524.18 Z" fill="#000000" fill-rule="nonzero" fill-opacity="1" /><path clip-path="url(#clip600)" d="M1308.49 1548.76 L1308.49 1551.62 L1281.57 1551.62 Q1281.95 1557.67 1285.19 1560.85 Q1288.47 1564 1294.3 1564 Q1297.67 1564 1300.82 1563.17 Q1304 1562.35 1307.12 1560.69 L1307.12 1566.23 Q1303.97 1567.57 1300.66 1568.27 Q1297.35 1568.97 1293.95 1568.97 Q1285.42 1568.97 1280.42 1564 Q1275.45 1559.04 1275.45 1550.57 Q1275.45 1541.82 1280.17 1536.69 Q1284.91 1531.54 1292.93 1531.54 Q1300.12 1531.54 1304.29 1536.18 Q1308.49 1540.8 1308.49 1548.76 M1302.64 1547.04 Q1302.57 1542.23 1299.93 1539.37 Q1297.32 1536.5 1292.99 1536.5 Q1288.09 1536.5 1285.13 1539.27 Q1282.2 1542.04 1281.76 1547.07 L1302.64 1547.04 Z" fill="#000000" fill-rule="nonzero" fill-opacity="1" /><path clip-path="url(#clip600)" d="M1318.1 1518.52 L1323.96 1518.52 L1323.96 1568.04 L1318.1 1568.04 L1318.1 1518.52 Z" fill="#000000" fill-rule="nonzero" fill-opacity="1" /><path clip-path="url(#clip600)" d="M1336.22 1518.52 L1342.07 1518.52 L1342.07 1568.04 L1336.22 1568.04 L1336.22 1518.52 Z" fill="#000000" fill-rule="nonzero" fill-opacity="1" /><path clip-path="url(#clip600)" d="M1377.05 1533.45 L1377.05 1538.98 Q1374.57 1537.71 1371.9 1537.07 Q1369.22 1536.44 1366.36 1536.44 Q1362 1536.44 1359.8 1537.77 Q1357.64 1539.11 1357.64 1541.79 Q1357.64 1543.82 1359.2 1545 Q1360.76 1546.15 1365.47 1547.2 L1367.47 1547.64 Q1373.71 1548.98 1376.32 1551.43 Q1378.96 1553.85 1378.96 1558.21 Q1378.96 1563.17 1375.01 1566.07 Q1371.1 1568.97 1364.22 1568.97 Q1361.36 1568.97 1358.24 1568.39 Q1355.15 1567.85 1351.72 1566.74 L1351.72 1560.69 Q1354.96 1562.38 1358.11 1563.24 Q1361.26 1564.07 1364.35 1564.07 Q1368.49 1564.07 1370.72 1562.66 Q1372.95 1561.23 1372.95 1558.65 Q1372.95 1556.27 1371.32 1554.99 Q1369.73 1553.72 1364.29 1552.54 L1362.25 1552.07 Q1356.81 1550.92 1354.39 1548.56 Q1351.97 1546.18 1351.97 1542.04 Q1351.97 1537.01 1355.54 1534.27 Q1359.1 1531.54 1365.66 1531.54 Q1368.9 1531.54 1371.77 1532.01 Q1374.63 1532.49 1377.05 1533.45 Z" fill="#000000" fill-rule="nonzero" fill-opacity="1" /><polyline clip-path="url(#clip602)" style="stroke:#000000; stroke-linecap:round; stroke-linejoin:round; stroke-width:2; stroke-opacity:0.1; fill:none" points="256.209,1281.78 2352.76,1281.78 "/>
<polyline clip-path="url(#clip602)" style="stroke:#000000; stroke-linecap:round; stroke-linejoin:round; stroke-width:2; stroke-opacity:0.1; fill:none" points="256.209,907.634 2352.76,907.634 "/>
<polyline clip-path="url(#clip602)" style="stroke:#000000; stroke-linecap:round; stroke-linejoin:round; stroke-width:2; stroke-opacity:0.1; fill:none" points="256.209,533.491 2352.76,533.491 "/>
<polyline clip-path="url(#clip602)" style="stroke:#000000; stroke-linecap:round; stroke-linejoin:round; stroke-width:2; stroke-opacity:0.1; fill:none" points="256.209,159.349 2352.76,159.349 "/>
<polyline clip-path="url(#clip600)" style="stroke:#000000; stroke-linecap:round; stroke-linejoin:round; stroke-width:4; stroke-opacity:1; fill:none" points="256.209,1423.18 256.209,123.472 "/>
<polyline clip-path="url(#clip600)" style="stroke:#000000; stroke-linecap:round; stroke-linejoin:round; stroke-width:4; stroke-opacity:1; fill:none" points="256.209,1281.78 275.106,1281.78 "/>
<polyline clip-path="url(#clip600)" style="stroke:#000000; stroke-linecap:round; stroke-linejoin:round; stroke-width:4; stroke-opacity:1; fill:none" points="256.209,907.634 275.106,907.634 "/>
<polyline clip-path="url(#clip600)" style="stroke:#000000; stroke-linecap:round; stroke-linejoin:round; stroke-width:4; stroke-opacity:1; fill:none" points="256.209,533.491 275.106,533.491 "/>
<polyline clip-path="url(#clip600)" style="stroke:#000000; stroke-linecap:round; stroke-linejoin:round; stroke-width:4; stroke-opacity:1; fill:none" points="256.209,159.349 275.106,159.349 "/>
<path clip-path="url(#clip600)" d="M114.26 1282.23 L143.936 1282.23 L143.936 1286.16 L114.26 1286.16 L114.26 1282.23 Z" fill="#000000" fill-rule="nonzero" fill-opacity="1" /><path clip-path="url(#clip600)" d="M164.028 1267.57 Q160.417 1267.57 158.589 1271.14 Q156.783 1274.68 156.783 1281.81 Q156.783 1288.92 158.589 1292.48 Q160.417 1296.02 164.028 1296.02 Q167.663 1296.02 169.468 1292.48 Q171.297 1288.92 171.297 1281.81 Q171.297 1274.68 169.468 1271.14 Q167.663 1267.57 164.028 1267.57 M164.028 1263.87 Q169.839 1263.87 172.894 1268.48 Q175.973 1273.06 175.973 1281.81 Q175.973 1290.54 172.894 1295.14 Q169.839 1299.73 164.028 1299.73 Q158.218 1299.73 155.14 1295.14 Q152.084 1290.54 152.084 1281.81 Q152.084 1273.06 155.14 1268.48 Q158.218 1263.87 164.028 1263.87 Z" fill="#000000" fill-rule="nonzero" fill-opacity="1" /><path clip-path="url(#clip600)" d="M184.19 1293.18 L189.075 1293.18 L189.075 1299.06 L184.19 1299.06 L184.19 1293.18 Z" fill="#000000" fill-rule="nonzero" fill-opacity="1" /><path clip-path="url(#clip600)" d="M199.306 1264.5 L217.662 1264.5 L217.662 1268.43 L203.588 1268.43 L203.588 1276.9 Q204.607 1276.56 205.625 1276.39 Q206.644 1276.21 207.662 1276.21 Q213.449 1276.21 216.829 1279.38 Q220.209 1282.55 220.209 1287.97 Q220.209 1293.55 216.736 1296.65 Q213.264 1299.73 206.945 1299.73 Q204.769 1299.73 202.5 1299.36 Q200.255 1298.99 197.848 1298.25 L197.848 1293.55 Q199.931 1294.68 202.153 1295.24 Q204.375 1295.79 206.852 1295.79 Q210.857 1295.79 213.195 1293.69 Q215.533 1291.58 215.533 1287.97 Q215.533 1284.36 213.195 1282.25 Q210.857 1280.14 206.852 1280.14 Q204.977 1280.14 203.102 1280.56 Q201.25 1280.98 199.306 1281.86 L199.306 1264.5 Z" fill="#000000" fill-rule="nonzero" fill-opacity="1" /><path clip-path="url(#clip600)" d="M163.033 893.432 Q159.422 893.432 157.593 896.997 Q155.788 900.539 155.788 907.668 Q155.788 914.775 157.593 918.34 Q159.422 921.881 163.033 921.881 Q166.667 921.881 168.473 918.34 Q170.302 914.775 170.302 907.668 Q170.302 900.539 168.473 896.997 Q166.667 893.432 163.033 893.432 M163.033 889.729 Q168.843 889.729 171.899 894.335 Q174.977 898.918 174.977 907.668 Q174.977 916.395 171.899 921.002 Q168.843 925.585 163.033 925.585 Q157.223 925.585 154.144 921.002 Q151.089 916.395 151.089 907.668 Q151.089 898.918 154.144 894.335 Q157.223 889.729 163.033 889.729 Z" fill="#000000" fill-rule="nonzero" fill-opacity="1" /><path clip-path="url(#clip600)" d="M183.195 919.034 L188.079 919.034 L188.079 924.914 L183.195 924.914 L183.195 919.034 Z" fill="#000000" fill-rule="nonzero" fill-opacity="1" /><path clip-path="url(#clip600)" d="M208.264 893.432 Q204.653 893.432 202.824 896.997 Q201.019 900.539 201.019 907.668 Q201.019 914.775 202.824 918.34 Q204.653 921.881 208.264 921.881 Q211.899 921.881 213.704 918.34 Q215.533 914.775 215.533 907.668 Q215.533 900.539 213.704 896.997 Q211.899 893.432 208.264 893.432 M208.264 889.729 Q214.074 889.729 217.13 894.335 Q220.209 898.918 220.209 907.668 Q220.209 916.395 217.13 921.002 Q214.074 925.585 208.264 925.585 Q202.454 925.585 199.375 921.002 Q196.32 916.395 196.32 907.668 Q196.32 898.918 199.375 894.335 Q202.454 889.729 208.264 889.729 Z" fill="#000000" fill-rule="nonzero" fill-opacity="1" /><path clip-path="url(#clip600)" d="M164.028 519.29 Q160.417 519.29 158.589 522.855 Q156.783 526.396 156.783 533.526 Q156.783 540.632 158.589 544.197 Q160.417 547.739 164.028 547.739 Q167.663 547.739 169.468 544.197 Q171.297 540.632 171.297 533.526 Q171.297 526.396 169.468 522.855 Q167.663 519.29 164.028 519.29 M164.028 515.586 Q169.839 515.586 172.894 520.193 Q175.973 524.776 175.973 533.526 Q175.973 542.253 172.894 546.859 Q169.839 551.442 164.028 551.442 Q158.218 551.442 155.14 546.859 Q152.084 542.253 152.084 533.526 Q152.084 524.776 155.14 520.193 Q158.218 515.586 164.028 515.586 Z" fill="#000000" fill-rule="nonzero" fill-opacity="1" /><path clip-path="url(#clip600)" d="M184.19 544.892 L189.075 544.892 L189.075 550.771 L184.19 550.771 L184.19 544.892 Z" fill="#000000" fill-rule="nonzero" fill-opacity="1" /><path clip-path="url(#clip600)" d="M199.306 516.211 L217.662 516.211 L217.662 520.146 L203.588 520.146 L203.588 528.619 Q204.607 528.271 205.625 528.109 Q206.644 527.924 207.662 527.924 Q213.449 527.924 216.829 531.095 Q220.209 534.267 220.209 539.683 Q220.209 545.262 216.736 548.364 Q213.264 551.442 206.945 551.442 Q204.769 551.442 202.5 551.072 Q200.255 550.702 197.848 549.961 L197.848 545.262 Q199.931 546.396 202.153 546.952 Q204.375 547.507 206.852 547.507 Q210.857 547.507 213.195 545.401 Q215.533 543.294 215.533 539.683 Q215.533 536.072 213.195 533.966 Q210.857 531.859 206.852 531.859 Q204.977 531.859 203.102 532.276 Q201.25 532.693 199.306 533.572 L199.306 516.211 Z" fill="#000000" fill-rule="nonzero" fill-opacity="1" /><path clip-path="url(#clip600)" d="M153.843 172.693 L161.482 172.693 L161.482 146.328 L153.172 147.995 L153.172 143.735 L161.436 142.069 L166.112 142.069 L166.112 172.693 L173.751 172.693 L173.751 176.629 L153.843 176.629 L153.843 172.693 Z" fill="#000000" fill-rule="nonzero" fill-opacity="1" /><path clip-path="url(#clip600)" d="M183.195 170.749 L188.079 170.749 L188.079 176.629 L183.195 176.629 L183.195 170.749 Z" fill="#000000" fill-rule="nonzero" fill-opacity="1" /><path clip-path="url(#clip600)" d="M208.264 145.147 Q204.653 145.147 202.824 148.712 Q201.019 152.254 201.019 159.383 Q201.019 166.49 202.824 170.055 Q204.653 173.596 208.264 173.596 Q211.899 173.596 213.704 170.055 Q215.533 166.49 215.533 159.383 Q215.533 152.254 213.704 148.712 Q211.899 145.147 208.264 145.147 M208.264 141.444 Q214.074 141.444 217.13 146.05 Q220.209 150.633 220.209 159.383 Q220.209 168.11 217.13 172.717 Q214.074 177.3 208.264 177.3 Q202.454 177.3 199.375 172.717 Q196.32 168.11 196.32 159.383 Q196.32 150.633 199.375 146.05 Q202.454 141.444 208.264 141.444 Z" fill="#000000" fill-rule="nonzero" fill-opacity="1" /><path clip-path="url(#clip600)" d="M18.0438 893.717 L24.314 893.717 Q22.5634 897.378 21.704 900.624 Q20.8447 903.871 20.8447 906.894 Q20.8447 912.146 22.8817 915.011 Q24.9187 917.843 28.6745 917.843 Q31.8255 917.843 33.4488 915.966 Q35.0402 914.056 36.0269 908.772 L36.8226 904.889 Q38.1912 897.696 41.6605 894.29 Q45.098 890.853 50.8908 890.853 Q57.7976 890.853 61.3624 895.5 Q64.9272 900.115 64.9272 909.059 Q64.9272 912.433 64.1633 916.252 Q63.3994 920.04 61.9035 924.114 L55.2831 924.114 Q57.4793 920.199 58.5933 916.443 Q59.7073 912.687 59.7073 909.059 Q59.7073 903.552 57.543 900.561 Q55.3786 897.569 51.3682 897.569 Q47.8671 897.569 45.8937 899.733 Q43.9204 901.866 42.9337 906.767 L42.1698 910.682 Q40.7375 917.875 37.682 921.09 Q34.6264 924.305 29.1837 924.305 Q22.8817 924.305 19.2532 919.88 Q15.6248 915.424 15.6248 907.626 Q15.6248 904.284 16.2295 900.815 Q16.8343 897.346 18.0438 893.717 Z" fill="#000000" fill-rule="nonzero" fill-opacity="1" /><path clip-path="url(#clip600)" d="M28.3562 881.081 L28.3562 875.225 L64.0042 875.225 L64.0042 881.081 L28.3562 881.081 M14.479 881.081 L14.479 875.225 L21.895 875.225 L21.895 881.081 L14.479 881.081 Z" fill="#000000" fill-rule="nonzero" fill-opacity="1" /><path clip-path="url(#clip600)" d="M35.1993 835.217 Q31.2526 833.02 29.3747 829.965 Q27.4968 826.909 27.4968 822.772 Q27.4968 817.202 31.4117 814.178 Q35.2948 811.154 42.4881 811.154 L64.0042 811.154 L64.0042 817.042 L42.679 817.042 Q37.5546 817.042 35.072 818.857 Q32.5894 820.671 32.5894 824.395 Q32.5894 828.946 35.6131 831.588 Q38.6368 834.23 43.8567 834.23 L64.0042 834.23 L64.0042 840.118 L42.679 840.118 Q37.5228 840.118 35.072 841.932 Q32.5894 843.747 32.5894 847.534 Q32.5894 852.022 35.6449 854.664 Q38.6686 857.306 43.8567 857.306 L64.0042 857.306 L64.0042 863.194 L28.3562 863.194 L28.3562 857.306 L33.8944 857.306 Q30.616 855.3 29.0564 852.499 Q27.4968 849.699 27.4968 845.847 Q27.4968 841.964 29.4702 839.259 Q31.4436 836.522 35.1993 835.217 Z" fill="#000000" fill-rule="nonzero" fill-opacity="1" /><path clip-path="url(#clip600)" d="M28.3562 799.473 L28.3562 793.617 L64.0042 793.617 L64.0042 799.473 L28.3562 799.473 M14.479 799.473 L14.479 793.617 L21.895 793.617 L21.895 799.473 L14.479 799.473 Z" fill="#000000" fill-rule="nonzero" fill-opacity="1" /><path clip-path="url(#clip600)" d="M14.479 781.363 L14.479 775.506 L64.0042 775.506 L64.0042 781.363 L14.479 781.363 Z" fill="#000000" fill-rule="nonzero" fill-opacity="1" /><path clip-path="url(#clip600)" d="M46.0847 747.052 Q46.0847 754.149 47.7079 756.887 Q49.3312 759.624 53.2461 759.624 Q56.3653 759.624 58.2114 757.587 Q60.0256 755.518 60.0256 751.985 Q60.0256 747.115 56.5881 744.187 Q53.1188 741.227 47.3897 741.227 L46.0847 741.227 L46.0847 747.052 M43.6657 735.37 L64.0042 735.37 L64.0042 741.227 L58.5933 741.227 Q61.8398 743.232 63.3994 746.224 Q64.9272 749.216 64.9272 753.545 Q64.9272 759.019 61.8716 762.266 Q58.7843 765.48 53.6281 765.48 Q47.6125 765.48 44.5569 761.47 Q41.5014 757.428 41.5014 749.439 L41.5014 741.227 L40.9285 741.227 Q36.8862 741.227 34.6901 743.901 Q32.4621 746.542 32.4621 751.348 Q32.4621 754.404 33.1941 757.3 Q33.9262 760.197 35.3903 762.87 L29.9795 762.87 Q28.7381 759.656 28.1334 756.632 Q27.4968 753.608 27.4968 750.744 Q27.4968 743.009 31.5072 739.19 Q35.5176 735.37 43.6657 735.37 Z" fill="#000000" fill-rule="nonzero" fill-opacity="1" /><path clip-path="url(#clip600)" d="M33.8307 702.651 Q33.2578 703.637 33.0032 704.815 Q32.7167 705.961 32.7167 707.361 Q32.7167 712.327 35.9632 715 Q39.1779 717.642 45.2253 717.642 L64.0042 717.642 L64.0042 723.53 L28.3562 723.53 L28.3562 717.642 L33.8944 717.642 Q30.6479 715.796 29.0883 712.836 Q27.4968 709.876 27.4968 705.643 Q27.4968 705.038 27.5923 704.306 Q27.656 703.574 27.8151 702.683 L33.8307 702.651 Z" fill="#000000" fill-rule="nonzero" fill-opacity="1" /><path clip-path="url(#clip600)" d="M28.3562 696.508 L28.3562 690.651 L64.0042 690.651 L64.0042 696.508 L28.3562 696.508 M14.479 696.508 L14.479 690.651 L21.895 690.651 L21.895 696.508 L14.479 696.508 Z" fill="#000000" fill-rule="nonzero" fill-opacity="1" /><path clip-path="url(#clip600)" d="M18.2347 672.605 L28.3562 672.605 L28.3562 660.542 L32.9077 660.542 L32.9077 672.605 L52.2594 672.605 Q56.6199 672.605 57.8613 671.427 Q59.1026 670.217 59.1026 666.557 L59.1026 660.542 L64.0042 660.542 L64.0042 666.557 Q64.0042 673.337 61.4897 675.915 Q58.9434 678.493 52.2594 678.493 L32.9077 678.493 L32.9077 682.79 L28.3562 682.79 L28.3562 678.493 L18.2347 678.493 L18.2347 672.605 Z" fill="#000000" fill-rule="nonzero" fill-opacity="1" /><path clip-path="url(#clip600)" d="M67.3143 638.007 Q73.68 640.49 75.6216 642.845 Q77.5631 645.2 77.5631 649.147 L77.5631 653.826 L72.6615 653.826 L72.6615 650.388 Q72.6615 647.969 71.5157 646.633 Q70.3699 645.296 66.1048 643.672 L63.4312 642.622 L28.3562 657.04 L28.3562 650.834 L56.238 639.694 L28.3562 628.554 L28.3562 622.347 L67.3143 638.007 Z" fill="#000000" fill-rule="nonzero" fill-opacity="1" /><path clip-path="url(#clip600)" d="M395.682 14.0809 L395.682 22.0612 Q391.024 19.8332 386.892 18.7395 Q382.76 17.6457 378.911 17.6457 Q372.227 17.6457 368.582 20.2383 Q364.976 22.8309 364.976 27.611 Q364.976 31.6214 367.366 33.6873 Q369.797 35.7128 376.521 36.9686 L381.464 37.9813 Q390.619 39.7232 394.953 44.1387 Q399.328 48.5136 399.328 55.8863 Q399.328 64.6767 393.414 69.2137 Q387.54 73.7508 376.157 73.7508 Q371.863 73.7508 367.002 72.7785 Q362.181 71.8063 356.996 69.9024 L356.996 61.4765 Q361.979 64.2716 366.759 65.6895 Q371.539 67.1073 376.157 67.1073 Q383.165 67.1073 386.973 64.3527 Q390.781 61.598 390.781 56.4939 Q390.781 52.0379 388.026 49.5264 Q385.312 47.0148 379.073 45.759 L374.091 44.7868 Q364.936 42.9639 360.844 39.075 Q356.753 35.1862 356.753 28.2591 Q356.753 20.2383 362.384 15.6203 Q368.055 11.0023 377.98 11.0023 Q382.233 11.0023 386.649 11.7719 Q391.064 12.5416 395.682 14.0809 Z" fill="#000000" fill-rule="nonzero" fill-opacity="1" /><path clip-path="url(#clip600)" d="M429.345 32.4315 Q423.35 32.4315 419.866 37.1306 Q416.382 41.7891 416.382 49.9314 Q416.382 58.0738 419.826 62.7728 Q423.309 67.4314 429.345 67.4314 Q435.3 67.4314 438.784 62.7323 Q442.268 58.0333 442.268 49.9314 Q442.268 41.8701 438.784 37.1711 Q435.3 32.4315 429.345 32.4315 M429.345 26.1121 Q439.067 26.1121 444.617 32.4315 Q450.167 38.7509 450.167 49.9314 Q450.167 61.0714 444.617 67.4314 Q439.067 73.7508 429.345 73.7508 Q419.583 73.7508 414.033 67.4314 Q408.524 61.0714 408.524 49.9314 Q408.524 38.7509 414.033 32.4315 Q419.583 26.1121 429.345 26.1121 Z" fill="#000000" fill-rule="nonzero" fill-opacity="1" /><path clip-path="url(#clip600)" d="M488.812 34.1734 Q487.557 33.4443 486.058 33.1202 Q484.6 32.7556 482.817 32.7556 Q476.498 32.7556 473.095 36.8875 Q469.733 40.9789 469.733 48.6757 L469.733 72.576 L462.239 72.576 L462.239 27.2059 L469.733 27.2059 L469.733 34.2544 Q472.082 30.1225 475.85 28.1376 Q479.617 26.1121 485.005 26.1121 Q485.774 26.1121 486.706 26.2337 Q487.638 26.3147 488.772 26.5172 L488.812 34.1734 Z" fill="#000000" fill-rule="nonzero" fill-opacity="1" /><path clip-path="url(#clip600)" d="M504.003 14.324 L504.003 27.2059 L519.356 27.2059 L519.356 32.9987 L504.003 32.9987 L504.003 57.6282 Q504.003 63.1779 505.502 64.7578 Q507.042 66.3376 511.7 66.3376 L519.356 66.3376 L519.356 72.576 L511.7 72.576 Q503.072 72.576 499.79 69.3758 Q496.509 66.1351 496.509 57.6282 L496.509 32.9987 L491.04 32.9987 L491.04 27.2059 L496.509 27.2059 L496.509 14.324 L504.003 14.324 Z" fill="#000000" fill-rule="nonzero" fill-opacity="1" /><path clip-path="url(#clip600)" d="M567.967 48.0275 L567.967 51.6733 L533.696 51.6733 Q534.183 59.3701 538.315 63.421 Q542.487 67.4314 549.9 67.4314 Q554.194 67.4314 558.204 66.3781 Q562.255 65.3249 566.225 63.2184 L566.225 70.267 Q562.215 71.9684 558.002 72.8596 Q553.789 73.7508 549.455 73.7508 Q538.598 73.7508 532.238 67.4314 Q525.919 61.1119 525.919 50.3365 Q525.919 39.1965 531.914 32.6746 Q537.95 26.1121 548.158 26.1121 Q557.313 26.1121 562.62 32.0264 Q567.967 37.9003 567.967 48.0275 M560.513 45.84 Q560.432 39.7232 557.07 36.0774 Q553.748 32.4315 548.239 32.4315 Q542.001 32.4315 538.233 35.9558 Q534.507 39.4801 533.94 45.8805 L560.513 45.84 Z" fill="#000000" fill-rule="nonzero" fill-opacity="1" /><path clip-path="url(#clip600)" d="M610.056 34.0924 L610.056 9.54393 L617.51 9.54393 L617.51 72.576 L610.056 72.576 L610.056 65.7705 Q607.707 69.8214 604.101 71.8063 Q600.536 73.7508 595.513 73.7508 Q587.29 73.7508 582.105 67.1883 Q576.96 60.6258 576.96 49.9314 Q576.96 39.2371 582.105 32.6746 Q587.29 26.1121 595.513 26.1121 Q600.536 26.1121 604.101 28.0971 Q607.707 30.0415 610.056 34.0924 M584.657 49.9314 Q584.657 58.1548 588.019 62.8538 Q591.422 67.5124 597.336 67.5124 Q603.251 67.5124 606.653 62.8538 Q610.056 58.1548 610.056 49.9314 Q610.056 41.7081 606.653 37.0496 Q603.251 32.3505 597.336 32.3505 Q591.422 32.3505 588.019 37.0496 Q584.657 41.7081 584.657 49.9314 Z" fill="#000000" fill-rule="nonzero" fill-opacity="1" /><path clip-path="url(#clip600)" d="M691.884 28.9478 L691.884 35.9153 Q688.725 34.1734 685.524 33.3227 Q682.365 32.4315 679.124 32.4315 Q671.873 32.4315 667.862 37.0496 Q663.852 41.6271 663.852 49.9314 Q663.852 58.2358 667.862 62.8538 Q671.873 67.4314 679.124 67.4314 Q682.365 67.4314 685.524 66.5807 Q688.725 65.6895 691.884 63.9476 L691.884 70.8341 Q688.765 72.2924 685.403 73.0216 Q682.081 73.7508 678.314 73.7508 Q668.065 73.7508 662.029 67.3098 Q655.993 60.8689 655.993 49.9314 Q655.993 38.832 662.07 32.472 Q668.187 26.1121 678.8 26.1121 Q682.243 26.1121 685.524 26.8413 Q688.806 27.5299 691.884 28.9478 Z" fill="#000000" fill-rule="nonzero" fill-opacity="1" /><path clip-path="url(#clip600)" d="M722.428 32.4315 Q716.433 32.4315 712.949 37.1306 Q709.465 41.7891 709.465 49.9314 Q709.465 58.0738 712.908 62.7728 Q716.392 67.4314 722.428 67.4314 Q728.383 67.4314 731.867 62.7323 Q735.35 58.0333 735.35 49.9314 Q735.35 41.8701 731.867 37.1711 Q728.383 32.4315 722.428 32.4315 M722.428 26.1121 Q732.15 26.1121 737.7 32.4315 Q743.25 38.7509 743.25 49.9314 Q743.25 61.0714 737.7 67.4314 Q732.15 73.7508 722.428 73.7508 Q712.665 73.7508 707.116 67.4314 Q701.606 61.0714 701.606 49.9314 Q701.606 38.7509 707.116 32.4315 Q712.665 26.1121 722.428 26.1121 Z" fill="#000000" fill-rule="nonzero" fill-opacity="1" /><path clip-path="url(#clip600)" d="M784.528 28.5427 L784.528 35.5912 Q781.369 33.9709 777.966 33.1607 Q774.563 32.3505 770.917 32.3505 Q765.368 32.3505 762.573 34.0519 Q759.818 35.7533 759.818 39.156 Q759.818 41.7486 761.803 43.2475 Q763.788 44.7058 769.783 46.0426 L772.335 46.6097 Q780.275 48.3111 783.597 51.4303 Q786.959 54.509 786.959 60.0587 Q786.959 66.3781 781.936 70.0644 Q776.953 73.7508 768.203 73.7508 Q764.558 73.7508 760.588 73.0216 Q756.658 72.3329 752.283 70.9151 L752.283 63.2184 Q756.415 65.3654 760.426 66.4591 Q764.436 67.5124 768.365 67.5124 Q773.632 67.5124 776.467 65.73 Q779.303 63.9071 779.303 60.6258 Q779.303 57.5877 777.237 55.9673 Q775.211 54.3469 768.284 52.8481 L765.692 52.2405 Q758.765 50.7821 755.686 47.7845 Q752.607 44.7463 752.607 39.4801 Q752.607 33.0797 757.144 29.5959 Q761.681 26.1121 770.026 26.1121 Q774.158 26.1121 777.804 26.7198 Q781.45 27.3274 784.528 28.5427 Z" fill="#000000" fill-rule="nonzero" fill-opacity="1" /><path clip-path="url(#clip600)" d="M798.828 27.2059 L806.282 27.2059 L806.282 72.576 L798.828 72.576 L798.828 27.2059 M798.828 9.54393 L806.282 9.54393 L806.282 18.9825 L798.828 18.9825 L798.828 9.54393 Z" fill="#000000" fill-rule="nonzero" fill-opacity="1" /><path clip-path="url(#clip600)" d="M859.592 45.1919 L859.592 72.576 L852.138 72.576 L852.138 45.4349 Q852.138 38.994 849.627 35.7938 Q847.115 32.5936 842.092 32.5936 Q836.056 32.5936 832.572 36.4419 Q829.088 40.2903 829.088 46.9338 L829.088 72.576 L821.594 72.576 L821.594 27.2059 L829.088 27.2059 L829.088 34.2544 Q831.762 30.163 835.367 28.1376 Q839.013 26.1121 843.753 26.1121 Q851.571 26.1121 855.581 30.9732 Q859.592 35.7938 859.592 45.1919 Z" fill="#000000" fill-rule="nonzero" fill-opacity="1" /><path clip-path="url(#clip600)" d="M913.266 48.0275 L913.266 51.6733 L878.996 51.6733 Q879.482 59.3701 883.614 63.421 Q887.786 67.4314 895.199 67.4314 Q899.493 67.4314 903.504 66.3781 Q907.554 65.3249 911.524 63.2184 L911.524 70.267 Q907.514 71.9684 903.301 72.8596 Q899.088 73.7508 894.754 73.7508 Q883.897 73.7508 877.537 67.4314 Q871.218 61.1119 871.218 50.3365 Q871.218 39.1965 877.213 32.6746 Q883.249 26.1121 893.457 26.1121 Q902.612 26.1121 907.919 32.0264 Q913.266 37.9003 913.266 48.0275 M905.813 45.84 Q905.732 39.7232 902.369 36.0774 Q899.048 32.4315 893.538 32.4315 Q887.3 32.4315 883.533 35.9558 Q879.806 39.4801 879.239 45.8805 L905.813 45.84 Z" fill="#000000" fill-rule="nonzero" fill-opacity="1" /><path clip-path="url(#clip600)" d="M980.795 28.5427 L980.795 35.5912 Q977.635 33.9709 974.232 33.1607 Q970.83 32.3505 967.184 32.3505 Q961.634 32.3505 958.839 34.0519 Q956.084 35.7533 956.084 39.156 Q956.084 41.7486 958.069 43.2475 Q960.054 44.7058 966.049 46.0426 L968.602 46.6097 Q976.541 48.3111 979.863 51.4303 Q983.225 54.509 983.225 60.0587 Q983.225 66.3781 978.202 70.0644 Q973.22 73.7508 964.47 73.7508 Q960.824 73.7508 956.854 73.0216 Q952.925 72.3329 948.55 70.9151 L948.55 63.2184 Q952.682 65.3654 956.692 66.4591 Q960.702 67.5124 964.632 67.5124 Q969.898 67.5124 972.733 65.73 Q975.569 63.9071 975.569 60.6258 Q975.569 57.5877 973.503 55.9673 Q971.478 54.3469 964.551 52.8481 L961.958 52.2405 Q955.031 50.7821 951.952 47.7845 Q948.874 44.7463 948.874 39.4801 Q948.874 33.0797 953.411 29.5959 Q957.948 26.1121 966.293 26.1121 Q970.424 26.1121 974.07 26.7198 Q977.716 27.3274 980.795 28.5427 Z" fill="#000000" fill-rule="nonzero" fill-opacity="1" /><path clip-path="url(#clip600)" d="M995.094 27.2059 L1002.55 27.2059 L1002.55 72.576 L995.094 72.576 L995.094 27.2059 M995.094 9.54393 L1002.55 9.54393 L1002.55 18.9825 L995.094 18.9825 L995.094 9.54393 Z" fill="#000000" fill-rule="nonzero" fill-opacity="1" /><path clip-path="url(#clip600)" d="M1053.47 35.9153 Q1056.26 30.8922 1060.15 28.5022 Q1064.04 26.1121 1069.31 26.1121 Q1076.4 26.1121 1080.24 31.0947 Q1084.09 36.0368 1084.09 45.1919 L1084.09 72.576 L1076.6 72.576 L1076.6 45.4349 Q1076.6 38.913 1074.29 35.7533 Q1071.98 32.5936 1067.24 32.5936 Q1061.45 32.5936 1058.09 36.4419 Q1054.72 40.2903 1054.72 46.9338 L1054.72 72.576 L1047.23 72.576 L1047.23 45.4349 Q1047.23 38.8725 1044.92 35.7533 Q1042.61 32.5936 1037.79 32.5936 Q1032.08 32.5936 1028.72 36.4824 Q1025.35 40.3308 1025.35 46.9338 L1025.35 72.576 L1017.86 72.576 L1017.86 27.2059 L1025.35 27.2059 L1025.35 34.2544 Q1027.91 30.082 1031.47 28.0971 Q1035.04 26.1121 1039.94 26.1121 Q1044.88 26.1121 1048.32 28.6237 Q1051.81 31.1352 1053.47 35.9153 Z" fill="#000000" fill-rule="nonzero" fill-opacity="1" /><path clip-path="url(#clip600)" d="M1098.96 27.2059 L1106.41 27.2059 L1106.41 72.576 L1098.96 72.576 L1098.96 27.2059 M1098.96 9.54393 L1106.41 9.54393 L1106.41 18.9825 L1098.96 18.9825 L1098.96 9.54393 Z" fill="#000000" fill-rule="nonzero" fill-opacity="1" /><path clip-path="url(#clip600)" d="M1122.01 9.54393 L1129.46 9.54393 L1129.46 72.576 L1122.01 72.576 L1122.01 9.54393 Z" fill="#000000" fill-rule="nonzero" fill-opacity="1" /><path clip-path="url(#clip600)" d="M1165.68 49.7694 Q1156.64 49.7694 1153.16 51.8354 Q1149.68 53.9013 1149.68 58.8839 Q1149.68 62.8538 1152.27 65.2034 Q1154.9 67.5124 1159.4 67.5124 Q1165.6 67.5124 1169.32 63.1374 Q1173.09 58.7219 1173.09 51.4303 L1173.09 49.7694 L1165.68 49.7694 M1180.54 46.6907 L1180.54 72.576 L1173.09 72.576 L1173.09 65.6895 Q1170.54 69.8214 1166.73 71.8063 Q1162.92 73.7508 1157.41 73.7508 Q1150.45 73.7508 1146.31 69.8619 Q1142.22 65.9325 1142.22 59.3701 Q1142.22 51.7138 1147.33 47.825 Q1152.47 43.9361 1162.64 43.9361 L1173.09 43.9361 L1173.09 43.2069 Q1173.09 38.0623 1169.69 35.2672 Q1166.33 32.4315 1160.21 32.4315 Q1156.32 32.4315 1152.63 33.3632 Q1148.95 34.295 1145.55 36.1584 L1145.55 29.2718 Q1149.64 27.692 1153.48 26.9223 Q1157.33 26.1121 1160.98 26.1121 Q1170.82 26.1121 1175.68 31.2163 Q1180.54 36.3204 1180.54 46.6907 Z" fill="#000000" fill-rule="nonzero" fill-opacity="1" /><path clip-path="url(#clip600)" d="M1222.19 34.1734 Q1220.93 33.4443 1219.43 33.1202 Q1217.98 32.7556 1216.19 32.7556 Q1209.87 32.7556 1206.47 36.8875 Q1203.11 40.9789 1203.11 48.6757 L1203.11 72.576 L1195.61 72.576 L1195.61 27.2059 L1203.11 27.2059 L1203.11 34.2544 Q1205.46 30.1225 1209.23 28.1376 Q1212.99 26.1121 1218.38 26.1121 Q1219.15 26.1121 1220.08 26.2337 Q1221.01 26.3147 1222.15 26.5172 L1222.19 34.1734 Z" fill="#000000" fill-rule="nonzero" fill-opacity="1" /><path clip-path="url(#clip600)" d="M1230.01 27.2059 L1237.46 27.2059 L1237.46 72.576 L1230.01 72.576 L1230.01 27.2059 M1230.01 9.54393 L1237.46 9.54393 L1237.46 18.9825 L1230.01 18.9825 L1230.01 9.54393 Z" fill="#000000" fill-rule="nonzero" fill-opacity="1" /><path clip-path="url(#clip600)" d="M1260.43 14.324 L1260.43 27.2059 L1275.78 27.2059 L1275.78 32.9987 L1260.43 32.9987 L1260.43 57.6282 Q1260.43 63.1779 1261.93 64.7578 Q1263.47 66.3376 1268.13 66.3376 L1275.78 66.3376 L1275.78 72.576 L1268.13 72.576 Q1259.5 72.576 1256.22 69.3758 Q1252.93 66.1351 1252.93 57.6282 L1252.93 32.9987 L1247.47 32.9987 L1247.47 27.2059 L1252.93 27.2059 L1252.93 14.324 L1260.43 14.324 Z" fill="#000000" fill-rule="nonzero" fill-opacity="1" /><path clip-path="url(#clip600)" d="M1285.58 27.2059 L1293.04 27.2059 L1293.04 72.576 L1285.58 72.576 L1285.58 27.2059 M1285.58 9.54393 L1293.04 9.54393 L1293.04 18.9825 L1285.58 18.9825 L1285.58 9.54393 Z" fill="#000000" fill-rule="nonzero" fill-opacity="1" /><path clip-path="url(#clip600)" d="M1347.44 48.0275 L1347.44 51.6733 L1313.17 51.6733 Q1313.66 59.3701 1317.79 63.421 Q1321.96 67.4314 1329.38 67.4314 Q1333.67 67.4314 1337.68 66.3781 Q1341.73 65.3249 1345.7 63.2184 L1345.7 70.267 Q1341.69 71.9684 1337.48 72.8596 Q1333.26 73.7508 1328.93 73.7508 Q1318.07 73.7508 1311.71 67.4314 Q1305.39 61.1119 1305.39 50.3365 Q1305.39 39.1965 1311.39 32.6746 Q1317.42 26.1121 1327.63 26.1121 Q1336.79 26.1121 1342.09 32.0264 Q1347.44 37.9003 1347.44 48.0275 M1339.99 45.84 Q1339.91 39.7232 1336.55 36.0774 Q1333.22 32.4315 1327.71 32.4315 Q1321.48 32.4315 1317.71 35.9558 Q1313.98 39.4801 1313.41 45.8805 L1339.99 45.84 Z" fill="#000000" fill-rule="nonzero" fill-opacity="1" /><path clip-path="url(#clip600)" d="M1388.6 28.5427 L1388.6 35.5912 Q1385.44 33.9709 1382.04 33.1607 Q1378.63 32.3505 1374.99 32.3505 Q1369.44 32.3505 1366.64 34.0519 Q1363.89 35.7533 1363.89 39.156 Q1363.89 41.7486 1365.87 43.2475 Q1367.86 44.7058 1373.85 46.0426 L1376.41 46.6097 Q1384.35 48.3111 1387.67 51.4303 Q1391.03 54.509 1391.03 60.0587 Q1391.03 66.3781 1386.01 70.0644 Q1381.02 73.7508 1372.27 73.7508 Q1368.63 73.7508 1364.66 73.0216 Q1360.73 72.3329 1356.35 70.9151 L1356.35 63.2184 Q1360.49 65.3654 1364.5 66.4591 Q1368.51 67.5124 1372.44 67.5124 Q1377.7 67.5124 1380.54 65.73 Q1383.37 63.9071 1383.37 60.6258 Q1383.37 57.5877 1381.31 55.9673 Q1379.28 54.3469 1372.36 52.8481 L1369.76 52.2405 Q1362.84 50.7821 1359.76 47.7845 Q1356.68 44.7463 1356.68 39.4801 Q1356.68 33.0797 1361.22 29.5959 Q1365.75 26.1121 1374.1 26.1121 Q1378.23 26.1121 1381.87 26.7198 Q1385.52 27.3274 1388.6 28.5427 Z" fill="#000000" fill-rule="nonzero" fill-opacity="1" /><path clip-path="url(#clip600)" d="M1461.92 28.9478 L1461.92 35.9153 Q1458.76 34.1734 1455.56 33.3227 Q1452.4 32.4315 1449.16 32.4315 Q1441.91 32.4315 1437.9 37.0496 Q1433.89 41.6271 1433.89 49.9314 Q1433.89 58.2358 1437.9 62.8538 Q1441.91 67.4314 1449.16 67.4314 Q1452.4 67.4314 1455.56 66.5807 Q1458.76 65.6895 1461.92 63.9476 L1461.92 70.8341 Q1458.8 72.2924 1455.44 73.0216 Q1452.12 73.7508 1448.35 73.7508 Q1438.1 73.7508 1432.07 67.3098 Q1426.03 60.8689 1426.03 49.9314 Q1426.03 38.832 1432.11 32.472 Q1438.22 26.1121 1448.84 26.1121 Q1452.28 26.1121 1455.56 26.8413 Q1458.84 27.5299 1461.92 28.9478 Z" fill="#000000" fill-rule="nonzero" fill-opacity="1" /><path clip-path="url(#clip600)" d="M1513.69 48.0275 L1513.69 51.6733 L1479.42 51.6733 Q1479.91 59.3701 1484.04 63.421 Q1488.21 67.4314 1495.62 67.4314 Q1499.92 67.4314 1503.93 66.3781 Q1507.98 65.3249 1511.95 63.2184 L1511.95 70.267 Q1507.94 71.9684 1503.73 72.8596 Q1499.51 73.7508 1495.18 73.7508 Q1484.32 73.7508 1477.96 67.4314 Q1471.64 61.1119 1471.64 50.3365 Q1471.64 39.1965 1477.64 32.6746 Q1483.67 26.1121 1493.88 26.1121 Q1503.04 26.1121 1508.34 32.0264 Q1513.69 37.9003 1513.69 48.0275 M1506.24 45.84 Q1506.16 39.7232 1502.79 36.0774 Q1499.47 32.4315 1493.96 32.4315 Q1487.72 32.4315 1483.96 35.9558 Q1480.23 39.4801 1479.66 45.8805 L1506.24 45.84 Z" fill="#000000" fill-rule="nonzero" fill-opacity="1" /><path clip-path="url(#clip600)" d="M1525.92 9.54393 L1533.38 9.54393 L1533.38 72.576 L1525.92 72.576 L1525.92 9.54393 Z" fill="#000000" fill-rule="nonzero" fill-opacity="1" /><path clip-path="url(#clip600)" d="M1548.97 9.54393 L1556.43 9.54393 L1556.43 72.576 L1548.97 72.576 L1548.97 9.54393 Z" fill="#000000" fill-rule="nonzero" fill-opacity="1" /><path clip-path="url(#clip600)" d="M1600.87 65.6895 L1614.23 65.6895 L1614.23 19.5497 L1599.69 22.4663 L1599.69 15.0127 L1614.15 12.096 L1622.34 12.096 L1622.34 65.6895 L1635.7 65.6895 L1635.7 72.576 L1600.87 72.576 L1600.87 65.6895 Z" fill="#000000" fill-rule="nonzero" fill-opacity="1" /><path clip-path="url(#clip600)" d="M1669.73 17.4837 Q1663.41 17.4837 1660.21 23.7221 Q1657.05 29.92 1657.05 42.3968 Q1657.05 54.833 1660.21 61.0714 Q1663.41 67.2693 1669.73 67.2693 Q1676.09 67.2693 1679.25 61.0714 Q1682.45 54.833 1682.45 42.3968 Q1682.45 29.92 1679.25 23.7221 Q1676.09 17.4837 1669.73 17.4837 M1669.73 11.0023 Q1679.9 11.0023 1685.25 19.0636 Q1690.63 27.0843 1690.63 42.3968 Q1690.63 57.6687 1685.25 65.73 Q1679.9 73.7508 1669.73 73.7508 Q1659.56 73.7508 1654.18 65.73 Q1648.83 57.6687 1648.83 42.3968 Q1648.83 27.0843 1654.18 19.0636 Q1659.56 11.0023 1669.73 11.0023 Z" fill="#000000" fill-rule="nonzero" fill-opacity="1" /><path clip-path="url(#clip600)" d="M1712.06 65.6895 L1740.62 65.6895 L1740.62 72.576 L1702.22 72.576 L1702.22 65.6895 Q1706.88 60.8689 1714.9 52.7671 Q1722.96 44.6248 1725.03 42.2752 Q1728.96 37.8598 1730.5 34.8216 Q1732.08 31.7429 1732.08 28.7857 Q1732.08 23.9651 1728.67 20.927 Q1725.31 17.8888 1719.88 17.8888 Q1716.03 17.8888 1711.74 19.2256 Q1707.49 20.5624 1702.63 23.2765 L1702.63 15.0127 Q1707.57 13.0277 1711.86 12.015 Q1716.16 11.0023 1719.72 11.0023 Q1729.12 11.0023 1734.71 15.7013 Q1740.3 20.4004 1740.3 28.2591 Q1740.3 31.9859 1738.88 35.3482 Q1737.5 38.6699 1733.82 43.2069 Q1732.8 44.3817 1727.38 50.0125 Q1721.95 55.6027 1712.06 65.6895 Z" fill="#000000" fill-rule="nonzero" fill-opacity="1" /><path clip-path="url(#clip600)" d="M1783.12 27.2059 L1790.57 27.2059 L1790.57 72.576 L1783.12 72.576 L1783.12 27.2059 M1783.12 9.54393 L1790.57 9.54393 L1790.57 18.9825 L1783.12 18.9825 L1783.12 9.54393 Z" fill="#000000" fill-rule="nonzero" fill-opacity="1" /><path clip-path="url(#clip600)" d="M1813.54 14.324 L1813.54 27.2059 L1828.89 27.2059 L1828.89 32.9987 L1813.54 32.9987 L1813.54 57.6282 Q1813.54 63.1779 1815.04 64.7578 Q1816.58 66.3376 1821.24 66.3376 L1828.89 66.3376 L1828.89 72.576 L1821.24 72.576 Q1812.61 72.576 1809.33 69.3758 Q1806.04 66.1351 1806.04 57.6282 L1806.04 32.9987 L1800.58 32.9987 L1800.58 27.2059 L1806.04 27.2059 L1806.04 14.324 L1813.54 14.324 Z" fill="#000000" fill-rule="nonzero" fill-opacity="1" /><path clip-path="url(#clip600)" d="M1877.5 48.0275 L1877.5 51.6733 L1843.23 51.6733 Q1843.72 59.3701 1847.85 63.421 Q1852.02 67.4314 1859.44 67.4314 Q1863.73 67.4314 1867.74 66.3781 Q1871.79 65.3249 1875.76 63.2184 L1875.76 70.267 Q1871.75 71.9684 1867.54 72.8596 Q1863.32 73.7508 1858.99 73.7508 Q1848.13 73.7508 1841.77 67.4314 Q1835.45 61.1119 1835.45 50.3365 Q1835.45 39.1965 1841.45 32.6746 Q1847.49 26.1121 1857.69 26.1121 Q1866.85 26.1121 1872.16 32.0264 Q1877.5 37.9003 1877.5 48.0275 M1870.05 45.84 Q1869.97 39.7232 1866.61 36.0774 Q1863.28 32.4315 1857.78 32.4315 Q1851.54 32.4315 1847.77 35.9558 Q1844.04 39.4801 1843.48 45.8805 L1870.05 45.84 Z" fill="#000000" fill-rule="nonzero" fill-opacity="1" /><path clip-path="url(#clip600)" d="M1916.03 34.1734 Q1914.77 33.4443 1913.27 33.1202 Q1911.81 32.7556 1910.03 32.7556 Q1903.71 32.7556 1900.31 36.8875 Q1896.95 40.9789 1896.95 48.6757 L1896.95 72.576 L1889.45 72.576 L1889.45 27.2059 L1896.95 27.2059 L1896.95 34.2544 Q1899.3 30.1225 1903.06 28.1376 Q1906.83 26.1121 1912.22 26.1121 Q1912.99 26.1121 1913.92 26.2337 Q1914.85 26.3147 1915.99 26.5172 L1916.03 34.1734 Z" fill="#000000" fill-rule="nonzero" fill-opacity="1" /><path clip-path="url(#clip600)" d="M1944.46 49.7694 Q1935.43 49.7694 1931.95 51.8354 Q1928.46 53.9013 1928.46 58.8839 Q1928.46 62.8538 1931.06 65.2034 Q1933.69 67.5124 1938.19 67.5124 Q1944.38 67.5124 1948.11 63.1374 Q1951.88 58.7219 1951.88 51.4303 L1951.88 49.7694 L1944.46 49.7694 M1959.33 46.6907 L1959.33 72.576 L1951.88 72.576 L1951.88 65.6895 Q1949.33 69.8214 1945.52 71.8063 Q1941.71 73.7508 1936.2 73.7508 Q1929.23 73.7508 1925.1 69.8619 Q1921.01 65.9325 1921.01 59.3701 Q1921.01 51.7138 1926.11 47.825 Q1931.26 43.9361 1941.43 43.9361 L1951.88 43.9361 L1951.88 43.2069 Q1951.88 38.0623 1948.47 35.2672 Q1945.11 32.4315 1939 32.4315 Q1935.11 32.4315 1931.42 33.3632 Q1927.73 34.295 1924.33 36.1584 L1924.33 29.2718 Q1928.42 27.692 1932.27 26.9223 Q1936.12 26.1121 1939.77 26.1121 Q1949.61 26.1121 1954.47 31.2163 Q1959.33 36.3204 1959.33 46.6907 Z" fill="#000000" fill-rule="nonzero" fill-opacity="1" /><path clip-path="url(#clip600)" d="M1982.06 14.324 L1982.06 27.2059 L1997.41 27.2059 L1997.41 32.9987 L1982.06 32.9987 L1982.06 57.6282 Q1982.06 63.1779 1983.56 64.7578 Q1985.09 66.3376 1989.75 66.3376 L1997.41 66.3376 L1997.41 72.576 L1989.75 72.576 Q1981.13 72.576 1977.84 69.3758 Q1974.56 66.1351 1974.56 57.6282 L1974.56 32.9987 L1969.09 32.9987 L1969.09 27.2059 L1974.56 27.2059 L1974.56 14.324 L1982.06 14.324 Z" fill="#000000" fill-rule="nonzero" fill-opacity="1" /><path clip-path="url(#clip600)" d="M2007.21 27.2059 L2014.67 27.2059 L2014.67 72.576 L2007.21 72.576 L2007.21 27.2059 M2007.21 9.54393 L2014.67 9.54393 L2014.67 18.9825 L2007.21 18.9825 L2007.21 9.54393 Z" fill="#000000" fill-rule="nonzero" fill-opacity="1" /><path clip-path="url(#clip600)" d="M2047.84 32.4315 Q2041.85 32.4315 2038.36 37.1306 Q2034.88 41.7891 2034.88 49.9314 Q2034.88 58.0738 2038.32 62.7728 Q2041.81 67.4314 2047.84 67.4314 Q2053.8 67.4314 2057.28 62.7323 Q2060.77 58.0333 2060.77 49.9314 Q2060.77 41.8701 2057.28 37.1711 Q2053.8 32.4315 2047.84 32.4315 M2047.84 26.1121 Q2057.57 26.1121 2063.12 32.4315 Q2068.67 38.7509 2068.67 49.9314 Q2068.67 61.0714 2063.12 67.4314 Q2057.57 73.7508 2047.84 73.7508 Q2038.08 73.7508 2032.53 67.4314 Q2027.02 61.0714 2027.02 49.9314 Q2027.02 38.7509 2032.53 32.4315 Q2038.08 26.1121 2047.84 26.1121 Z" fill="#000000" fill-rule="nonzero" fill-opacity="1" /><path clip-path="url(#clip600)" d="M2118.73 45.1919 L2118.73 72.576 L2111.28 72.576 L2111.28 45.4349 Q2111.28 38.994 2108.77 35.7938 Q2106.26 32.5936 2101.23 32.5936 Q2095.2 32.5936 2091.71 36.4419 Q2088.23 40.2903 2088.23 46.9338 L2088.23 72.576 L2080.74 72.576 L2080.74 27.2059 L2088.23 27.2059 L2088.23 34.2544 Q2090.9 30.163 2094.51 28.1376 Q2098.16 26.1121 2102.9 26.1121 Q2110.71 26.1121 2114.72 30.9732 Q2118.73 35.7938 2118.73 45.1919 Z" fill="#000000" fill-rule="nonzero" fill-opacity="1" /><path clip-path="url(#clip600)" d="M2162.44 65.6895 L2175.81 65.6895 L2175.81 19.5497 L2161.27 22.4663 L2161.27 15.0127 L2175.73 12.096 L2183.91 12.096 L2183.91 65.6895 L2197.28 65.6895 L2197.28 72.576 L2162.44 72.576 L2162.44 65.6895 Z" fill="#000000" fill-rule="nonzero" fill-opacity="1" /><path clip-path="url(#clip600)" d="M2231.31 17.4837 Q2224.99 17.4837 2221.79 23.7221 Q2218.63 29.92 2218.63 42.3968 Q2218.63 54.833 2221.79 61.0714 Q2224.99 67.2693 2231.31 67.2693 Q2237.67 67.2693 2240.83 61.0714 Q2244.03 54.833 2244.03 42.3968 Q2244.03 29.92 2240.83 23.7221 Q2237.67 17.4837 2231.31 17.4837 M2231.31 11.0023 Q2241.48 11.0023 2246.82 19.0636 Q2252.21 27.0843 2252.21 42.3968 Q2252.21 57.6687 2246.82 65.73 Q2241.48 73.7508 2231.31 73.7508 Q2221.14 73.7508 2215.75 65.73 Q2210.41 57.6687 2210.41 42.3968 Q2210.41 27.0843 2215.75 19.0636 Q2221.14 11.0023 2231.31 11.0023 Z" fill="#000000" fill-rule="nonzero" fill-opacity="1" /><polyline clip-path="url(#clip602)" style="stroke:#009af9; stroke-linecap:round; stroke-linejoin:round; stroke-width:4; stroke-opacity:1; fill:none" points="315.545,1386.4 317.525,1354.01 319.505,1351.91 321.484,1333.13 323.464,1319.09 325.444,1317.64 327.424,1307.55 329.404,1306.74 331.384,1306.48 333.364,1300.99 335.343,1299.51 337.323,1298.97 339.303,1294.81 341.283,1294.06 343.263,1292.35 345.243,1291.34 347.223,1290.5 349.202,1288.76 351.182,1280.93 353.162,1278.18 355.142,1278.13 357.122,1277.61 359.102,1276.87 361.082,1276.54 363.061,1273.74 365.041,1273.51 367.021,1271.73 369.001,1269.72 370.981,1266.05 372.961,1263.08 374.941,1262.26 376.92,1261.89 378.9,1261.75 380.88,1260.71 382.86,1258.99 384.84,1258.89 386.82,1258.44 388.8,1258.27 390.779,1257.72 392.759,1257.7 394.739,1256.84 396.719,1256.76 398.699,1256.45 400.679,1255.5 402.659,1253.63 404.638,1252.67 406.618,1251.55 408.598,1251.53 410.578,1250.62 412.558,1250.36 414.538,1250.28 416.517,1250.18 418.497,1249.79 420.477,1249.19 422.457,1247.76 424.437,1246.07 426.417,1245.13 428.397,1244.61 430.376,1244.36 432.356,1243.44 434.336,1243.4 436.316,1243.08 438.296,1242.88 440.276,1242.34 442.256,1240.54 444.235,1240.41 446.215,1240.16 448.195,1238.66 450.175,1238.55 452.155,1237.27 454.135,1236.7 456.115,1235.96 458.094,1234.8 460.074,1233.75 462.054,1233.52 464.034,1233.38 466.014,1232.94 467.994,1231.19 469.974,1230.85 471.953,1230.61 473.933,1230.23 475.913,1229.44 477.893,1229.06 479.873,1228.16 481.853,1227.54 483.833,1226.54 485.812,1226.16 487.792,1226.11 489.772,1225.61 491.752,1225.14 493.732,1224.78 495.712,1224.73 497.692,1222.7 499.671,1221.74 501.651,1221.56 503.631,1221.25 505.611,1220.6 507.591,1220.09 509.571,1219.63 511.551,1219.53 513.53,1219.06 515.51,1218.94 517.49,1218.86 519.47,1218.52 521.45,1218.43 523.43,1217.33 525.409,1217.21 527.389,1216.92 529.369,1216.76 531.349,1216.7 533.329,1214.95 535.309,1214.85 537.289,1214.59 539.268,1213.76 541.248,1213.66 543.228,1213.65 545.208,1212.84 547.188,1212.67 549.168,1211.44 551.148,1209.28 553.127,1208.94 555.107,1208.39 557.087,1208.23 559.067,1207.91 561.047,1207.68 563.027,1205.76 565.007,1203.61 566.986,1203.57 568.966,1203.13 570.946,1203.04 572.926,1202.79 574.906,1201.93 576.886,1201.66 578.866,1201.62 580.845,1201.61 582.825,1201.46 584.805,1200.54 586.785,1200.17 588.765,1199.72 590.745,1199.66 592.725,1199.62 594.704,1199.29 596.684,1199.11 598.664,1199.03 600.644,1198.96 602.624,1198.92 604.604,1198.25 606.584,1197.67 608.563,1197.59 610.543,1197.31 612.523,1196.82 614.503,1196.65 616.483,1196.22 618.463,1195.47 620.443,1195.31 622.422,1195.15 624.402,1195.01 626.382,1194.95 628.362,1194.32 630.342,1194.04 632.322,1193.81 634.301,1193.38 636.281,1191.93 638.261,1191.91 640.241,1191.48 642.221,1189.91 644.201,1189.73 646.181,1188.96 648.16,1188.42 650.14,1188.02 652.12,1187.98 654.1,1187.67 656.08,1187.32 658.06,1187.23 660.04,1187.2 662.019,1185.66 663.999,1185.28 665.979,1184.51 667.959,1183.17 669.939,1183.12 671.919,1182.79 673.899,1182.37 675.878,1181.43 677.858,1181.38 679.838,1180.11 681.818,1180.08 683.798,1179.33 685.778,1178.82 687.758,1178.82 689.737,1178.27 691.717,1177.66 693.697,1177.43 695.677,1177 697.657,1176.87 699.637,1176.67 701.617,1175.38 703.596,1174.26 705.576,1173.84 707.556,1173.41 709.536,1173.24 711.516,1173.21 713.496,1172.55 715.476,1172.24 717.455,1172.01 719.435,1171.78 721.415,1169.35 723.395,1169.21 725.375,1168.64 727.355,1168.17 729.335,1167.79 731.314,1166.74 733.294,1166.72 735.274,1166.23 737.254,1166.16 739.234,1165.8 741.214,1165.76 743.194,1165.56 745.173,1164.59 747.153,1164.14 749.133,1164.04 751.113,1163.86 753.093,1163.41 755.073,1161.83 757.052,1161.33 759.032,1161.1 761.012,1158.51 762.992,1158.47 764.972,1158.24 766.952,1157.75 768.932,1157.46 770.911,1156.89 772.891,1156.74 774.871,1156.27 776.851,1156.23 778.831,1155.46 780.811,1155.35 782.791,1154.62 784.77,1154.32 786.75,1154.27 788.73,1154.2 790.71,1154 792.69,1153.83 794.67,1153.78 796.65,1153.5 798.629,1153.15 800.609,1153.07 802.589,1153.06 804.569,1152.25 806.549,1152.01 808.529,1151.99 810.509,1151.95 812.488,1151.43 814.468,1151.26 816.448,1150.74 818.428,1149.46 820.408,1148.36 822.388,1148.09 824.368,1147.69 826.347,1147.66 828.327,1147.57 830.307,1147.51 832.287,1147.11 834.267,1144.16 836.247,1144.02 838.227,1143.38 840.206,1142.39 842.186,1142 844.166,1141.71 846.146,1141.64 848.126,1141.37 850.106,1141.24 852.086,1140.88 854.065,1140.69 856.045,1138.94 858.025,1138.85 860.005,1138.4 861.985,1138.25 863.965,1138.23 865.944,1137.46 867.924,1136.5 869.904,1136.39 871.884,1135.67 873.864,1135.64 875.844,1135.35 877.824,1135.21 879.803,1135.12 881.783,1135.05 883.763,1134.78 885.743,1134.28 887.723,1134.25 889.703,1134.08 891.683,1133.89 893.662,1132.92 895.642,1132.92 897.622,1132.68 899.602,1132.63 901.582,1132.37 903.562,1131.3 905.542,1131.12 907.521,1130.59 909.501,1130.56 911.481,1130.15 913.461,1129.17 915.441,1129.15 917.421,1129.1 919.401,1128.4 921.38,1128.17 923.36,1127.74 925.34,1127.07 927.32,1126.89 929.3,1126.77 931.28,1126.44 933.26,1126.12 935.239,1126.03 937.219,1125.91 939.199,1125.07 941.179,1124.93 943.159,1124.45 945.139,1124.36 947.119,1124.06 949.098,1123.77 951.078,1123.48 953.058,1123.39 955.038,1123.21 957.018,1121.5 958.998,1120.47 960.978,1119.73 962.957,1119.5 964.937,1119.47 966.917,1119.09 968.897,1118.79 970.877,1118.34 972.857,1118.07 974.836,1117.94 976.816,1117.69 978.796,1117.55 980.776,1117.31 982.756,1117.29 984.736,1117.28 986.716,1116.96 988.695,1116.83 990.675,1116.6 992.655,1115.88 994.635,1115.75 996.615,1115.74 998.595,1115.7 1000.57,1115.17 1002.55,1114.36 1004.53,1114.07 1006.51,1113.3 1008.49,1112.92 1010.47,1112.08 1012.45,1111.65 1014.43,1111.45 1016.41,1111.41 1018.39,1110.51 1020.37,1110.48 1022.35,1110.31 1024.33,1110.2 1026.31,1110.11 1028.29,1109.9 1030.27,1109.63 1032.25,1109.4 1034.23,1108.85 1036.21,1108.44 1038.19,1108.34 1040.17,1108.3 1042.15,1108.3 1044.13,1108.24 1046.11,1108.15 1048.09,1108.14 1050.07,1107.85 1052.05,1106.43 1054.03,1106.08 1056.01,1105.67 1057.99,1105.39 1059.97,1104.05 1061.95,1103.8 1063.93,1102.27 1065.91,1101.88 1067.89,1101.64 1069.87,1101.47 1071.85,1101.46 1073.83,1101.34 1075.81,1101.16 1077.79,1100.65 1079.77,1100.39 1081.75,1099.49 1083.73,1097.91 1085.71,1097.79 1087.69,1097.58 1089.67,1097.42 1091.65,1096.64 1093.63,1096.43 1095.61,1096.14 1097.59,1095.9 1099.57,1095.3 1101.55,1094.99 1103.53,1094.97 1105.51,1094.96 1107.49,1094.12 1109.47,1094.07 1111.45,1094.06 1113.43,1092.75 1115.41,1092.67 1117.39,1091.88 1119.37,1091.5 1121.35,1090.58 1123.33,1090.53 1125.31,1090.4 1127.29,1090.34 1129.27,1089.53 1131.25,1089.43 1133.22,1089.38 1135.2,1087.64 1137.18,1087.28 1139.16,1087.27 1141.14,1086.96 1143.12,1086.94 1145.1,1086.92 1147.08,1086.59 1149.06,1085.38 1151.04,1085.37 1153.02,1084.23 1155,1084.04 1156.98,1083.01 1158.96,1082.59 1160.94,1081.44 1162.92,1081.26 1164.9,1080.01 1166.88,1079.67 1168.86,1079.17 1170.84,1079.04 1172.82,1078.83 1174.8,1078.28 1176.78,1078.08 1178.76,1077.96 1180.74,1077.58 1182.72,1077.09 1184.7,1076.74 1186.68,1076.44 1188.66,1076.34 1190.64,1076.3 1192.62,1076.06 1194.6,1075.33 1196.58,1075.11 1198.56,1074.8 1200.54,1074.73 1202.52,1074.22 1204.5,1073.67 1206.48,1073.21 1208.46,1072.79 1210.44,1072.59 1212.42,1072 1214.4,1071.97 1216.38,1071.24 1218.36,1070.99 1220.34,1070.77 1222.32,1070.75 1224.3,1070.07 1226.28,1069.85 1228.26,1069 1230.24,1068.29 1232.22,1068.29 1234.2,1068.09 1236.18,1067.9 1238.16,1066.77 1240.14,1066.59 1242.12,1066.38 1244.1,1066.14 1246.08,1066.06 1248.06,1065.8 1250.04,1065.64 1252.02,1064.92 1254,1064.74 1255.98,1063.12 1257.96,1063.11 1259.94,1062.97 1261.92,1062.49 1263.9,1062.03 1265.88,1061.56 1267.85,1060.41 1269.83,1060.39 1271.81,1060.07 1273.79,1058.75 1275.77,1056.91 1277.75,1056.82 1279.73,1056.52 1281.71,1056.05 1283.69,1055.79 1285.67,1055.63 1287.65,1055.53 1289.63,1055.35 1291.61,1055.17 1293.59,1053.99 1295.57,1053.73 1297.55,1053.49 1299.53,1052.86 1301.51,1052.69 1303.49,1052.21 1305.47,1051.93 1307.45,1051.72 1309.43,1051.53 1311.41,1051.18 1313.39,1051.01 1315.37,1050.9 1317.35,1050.81 1319.33,1050.11 1321.31,1049.82 1323.29,1049.77 1325.27,1049.23 1327.25,1049.15 1329.23,1048.93 1331.21,1048.51 1333.19,1048.3 1335.17,1047.5 1337.15,1046.16 1339.13,1045.92 1341.11,1045.83 1343.09,1045.36 1345.07,1045.29 1347.05,1045.16 1349.03,1044.16 1351.01,1044.09 1352.99,1043.81 1354.97,1043.75 1356.95,1043.3 1358.93,1042.58 1360.91,1042.34 1362.89,1041.13 1364.87,1040.96 1366.85,1040.79 1368.83,1040.59 1370.81,1039.58 1372.79,1039.12 1374.77,1039.08 1376.75,1038.9 1378.73,1037.08 1380.71,1036.95 1382.69,1036.35 1384.67,1035.93 1386.65,1035.6 1388.63,1035.07 1390.61,1034.97 1392.59,1034.95 1394.57,1034.58 1396.55,1034.15 1398.53,1033.2 1400.51,1031.97 1402.49,1031.95 1404.46,1031.68 1406.44,1031.43 1408.42,1031.43 1410.4,1031 1412.38,1030.7 1414.36,1030.48 1416.34,1028.95 1418.32,1028.62 1420.3,1028.47 1422.28,1028.37 1424.26,1028.03 1426.24,1027.29 1428.22,1027.16 1430.2,1026.75 1432.18,1026.55 1434.16,1026.37 1436.14,1026.37 1438.12,1024.92 1440.1,1024.85 1442.08,1024.57 1444.06,1024.45 1446.04,1023.41 1448.02,1022.91 1450,1022.76 1451.98,1022.49 1453.96,1022.43 1455.94,1021.72 1457.92,1021.27 1459.9,1020.99 1461.88,1020.46 1463.86,1020.43 1465.84,1019.69 1467.82,1019.31 1469.8,1017.49 1471.78,1017.01 1473.76,1016.8 1475.74,1016.23 1477.72,1015.67 1479.7,1015.54 1481.68,1014.28 1483.66,1014.21 1485.64,1013.91 1487.62,1013.25 1489.6,1011.6 1491.58,1010.5 1493.56,1010.16 1495.54,1009.62 1497.52,1008.69 1499.5,1008.01 1501.48,1007.69 1503.46,1006.96 1505.44,1006.56 1507.42,1006.06 1509.4,1005.76 1511.38,1005.66 1513.36,1005.61 1515.34,1005.45 1517.32,1005.1 1519.3,1003.81 1521.28,1002.38 1523.26,1002.29 1525.24,1001.3 1527.22,1001.15 1529.2,1000.93 1531.18,999.703 1533.16,999.65 1535.14,998.166 1537.12,997.494 1539.1,996.967 1541.07,996.612 1543.05,994.721 1545.03,994.453 1547.01,994.388 1548.99,993.118 1550.97,992.9 1552.95,992.548 1554.93,991.578 1556.91,991.474 1558.89,990.982 1560.87,989.711 1562.85,988.401 1564.83,986.862 1566.81,985.963 1568.79,984.968 1570.77,983.933 1572.75,983.836 1574.73,983.663 1576.71,983.244 1578.69,983.068 1580.67,982.587 1582.65,982.556 1584.63,982.548 1586.61,982.358 1588.59,982.354 1590.57,981.765 1592.55,980.771 1594.53,980.537 1596.51,980.406 1598.49,980.289 1600.47,980.262 1602.45,979.259 1604.43,979.245 1606.41,978.527 1608.39,977.733 1610.37,976.402 1612.35,976.027 1614.33,975.892 1616.31,975.615 1618.29,975.612 1620.27,975.055 1622.25,974.77 1624.23,974.121 1626.21,973.872 1628.19,972.514 1630.17,970.049 1632.15,969.536 1634.13,969.265 1636.11,968.321 1638.09,968.131 1640.07,966.892 1642.05,964.71 1644.03,964.132 1646.01,963.76 1647.99,961.939 1649.97,961.164 1651.95,960.368 1653.93,959.994 1655.91,957.684 1657.89,957.615 1659.87,956.609 1661.85,955.214 1663.83,954.601 1665.81,953.982 1667.79,953.249 1669.77,952.112 1671.75,951.986 1673.73,950.278 1675.71,948.222 1677.68,947.97 1679.66,947.43 1681.64,946.149 1683.62,944.357 1685.6,944.174 1687.58,943.772 1689.56,943.239 1691.54,942.903 1693.52,942.375 1695.5,941.672 1697.48,940.232 1699.46,938.286 1701.44,937.668 1703.42,936.637 1705.4,936.119 1707.38,935.76 1709.36,935.666 1711.34,935.082 1713.32,933.805 1715.3,930.878 1717.28,930.063 1719.26,929.608 1721.24,929.526 1723.22,928.464 1725.2,927.614 1727.18,927.596 1729.16,925.803 1731.14,924.499 1733.12,914.266 1735.1,912.008 1737.08,911.917 1739.06,911.611 1741.04,909.219 1743.02,909.085 1745,908.657 1746.98,905.995 1748.96,900.679 1750.94,899.603 1752.92,899.21 1754.9,897.482 1756.88,897.105 1758.86,896.021 1760.84,894.965 1762.82,894.832 1764.8,894.498 1766.78,894.126 1768.76,892.565 1770.74,891.6 1772.72,891.513 1774.7,888.279 1776.68,880.747 1778.66,878.539 1780.64,877.582 1782.62,875.39 1784.6,870.897 1786.58,854.157 1788.56,846.241 1790.54,843.157 1792.52,834.877 1794.5,794.439 1796.48,786.582 1798.46,740.931 1800.44,476.288 1802.42,414.099 1804.4,408.242 1806.38,379.837 1808.36,369.271 1810.34,363.67 1812.31,359.321 1814.29,349.396 1816.27,344.823 1818.25,334.59 1820.23,322.315 1822.21,303.073 1824.19,300.798 1826.17,299.331 1828.15,298.155 1830.13,297.227 1832.11,290.653 1834.09,280.522 1836.07,279.419 1838.05,278.851 1840.03,277.074 1842.01,273.409 1843.99,272.152 1845.97,268.682 1847.95,268.012 1849.93,265.571 1851.91,264.927 1853.89,264.404 1855.87,263.869 1857.85,262.403 1859.83,262.345 1861.81,261.916 1863.79,261.144 1865.77,258.855 1867.75,258.378 1869.73,253.495 1871.71,252.462 1873.69,251.976 1875.67,249.3 1877.65,248.472 1879.63,246.52 1881.61,245.986 1883.59,245.52 1885.57,241.982 1887.55,239.096 1889.53,238.928 1891.51,238.762 1893.49,236.79 1895.47,236.203 1897.45,234.863 1899.43,234.858 1901.41,233.758 1903.39,232.984 1905.37,231.433 1907.35,231.34 1909.33,230.077 1911.31,229.208 1913.29,229.064 1915.27,228.862 1917.25,228.231 1919.23,227.344 1921.21,227.052 1923.19,226.584 1925.17,226.333 1927.15,225.968 1929.13,223.445 1931.11,223.44 1933.09,221.958 1935.07,221.691 1937.05,220.864 1939.03,220.644 1941.01,219.778 1942.99,218.258 1944.97,217.8 1946.95,216.784 1948.92,216.329 1950.9,216.045 1952.88,215.832 1954.86,215.808 1956.84,215.736 1958.82,213.939 1960.8,213.631 1962.78,213.239 1964.76,212.764 1966.74,212.264 1968.72,211.389 1970.7,211.305 1972.68,210.931 1974.66,210.738 1976.64,210.3 1978.62,210.178 1980.6,209.311 1982.58,208.977 1984.56,207.999 1986.54,207.597 1988.52,207.586 1990.5,207.234 1992.48,206.36 1994.46,205.657 1996.44,205.587 1998.42,205.49 2000.4,205.437 2002.38,205.224 2004.36,204.631 2006.34,204.494 2008.32,204.071 2010.3,203.938 2012.28,203.828 2014.26,203.392 2016.24,203.091 2018.22,201.943 2020.2,201.643 2022.18,201.14 2024.16,200.971 2026.14,200.555 2028.12,200.532 2030.1,199.426 2032.08,198.808 2034.06,198.491 2036.04,198.349 2038.02,197.685 2040,197.663 2041.98,197.532 2043.96,197.53 2045.94,197.204 2047.92,197.137 2049.9,196.638 2051.88,196.619 2053.86,196.336 2055.84,195.477 2057.82,195.443 2059.8,195.178 2061.78,194.715 2063.76,194.472 2065.74,194.408 2067.72,194.206 2069.7,194.141 2071.68,193.405 2073.66,193.321 2075.64,193.193 2077.62,193.192 2079.6,192.262 2081.58,192.113 2083.56,191.906 2085.53,191.316 2087.51,190.768 2089.49,190.371 2091.47,190.252 2093.45,189.568 2095.43,189.473 2097.41,189.208 2099.39,188.989 2101.37,188.853 2103.35,188.805 2105.33,188.376 2107.31,187.929 2109.29,187.844 2111.27,187.663 2113.25,187.215 2115.23,186.936 2117.21,186.547 2119.19,186.539 2121.17,186.521 2123.15,186.265 2125.13,185.637 2127.11,185.368 2129.09,185.077 2131.07,184.483 2133.05,184.077 2135.03,184.008 2137.01,183.847 2138.99,183.499 2140.97,183.418 2142.95,183.321 2144.93,182.544 2146.91,182.529 2148.89,182.426 2150.87,182.314 2152.85,182.187 2154.83,182.066 2156.81,181.501 2158.79,181.103 2160.77,180.904 2162.75,180.859 2164.73,180.837 2166.71,180.533 2168.69,180.384 2170.67,180.331 2172.65,180.268 2174.63,179.717 2176.61,179.692 2178.59,179.279 2180.57,178.914 2182.55,178.601 2184.53,178.368 2186.51,178.13 2188.49,177.842 2190.47,177.783 2192.45,177.66 2194.43,177.505 2196.41,177.482 2198.39,177.455 2200.37,177.022 2202.35,176.988 2204.33,176.922 2206.31,176.903 2208.29,176.314 2210.27,175.806 2212.25,175.48 2214.23,175.405 2216.21,174.642 2218.19,173.72 2220.17,173.445 2222.14,173.178 2224.12,173.091 2226.1,173.077 2228.08,173 2230.06,172.623 2232.04,172.538 2234.02,171.733 2236,171.672 2237.98,171.327 2239.96,170.834 2241.94,170.748 2243.92,170.723 2245.9,170.715 2247.88,170.303 2249.86,170.178 2251.84,169.418 2253.82,168.915 2255.8,168.595 2257.78,167.884 2259.76,167.784 2261.74,167.783 2263.72,167.661 2265.7,167.649 2267.68,167.365 2269.66,167.029 2271.64,166.945 2273.62,166.912 2275.6,166.617 2277.58,165.9 2279.56,165.869 2281.54,165.768 2283.52,165.63 2285.5,165.399 2287.48,163.647 2289.46,162.177 2291.44,162.046 2293.42,160.256 "/>
<path clip-path="url(#clip600)" d="M326.094 270.476 L755.354 270.476 L755.354 166.796 L326.094 166.796  Z" fill="#ffffff" fill-rule="evenodd" fill-opacity="1"/>
<polyline clip-path="url(#clip600)" style="stroke:#000000; stroke-linecap:round; stroke-linejoin:round; stroke-width:4; stroke-opacity:1; fill:none" points="326.094,270.476 755.354,270.476 755.354,166.796 326.094,166.796 326.094,270.476 "/>
<polyline clip-path="url(#clip600)" style="stroke:#009af9; stroke-linecap:round; stroke-linejoin:round; stroke-width:4; stroke-opacity:1; fill:none" points="349.389,218.636 489.158,218.636 "/>
<path clip-path="url(#clip600)" d="M534.699 202.49 L534.699 207.05 Q532.037 205.777 529.675 205.152 Q527.314 204.527 525.115 204.527 Q521.296 204.527 519.213 206.008 Q517.152 207.49 517.152 210.221 Q517.152 212.513 518.518 213.694 Q519.907 214.851 523.75 215.569 L526.574 216.147 Q531.805 217.143 534.282 219.666 Q536.782 222.166 536.782 226.379 Q536.782 231.402 533.402 233.994 Q530.046 236.587 523.541 236.587 Q521.088 236.587 518.31 236.031 Q515.555 235.476 512.592 234.388 L512.592 229.573 Q515.439 231.17 518.171 231.981 Q520.902 232.791 523.541 232.791 Q527.546 232.791 529.722 231.217 Q531.898 229.643 531.898 226.726 Q531.898 224.18 530.324 222.744 Q528.773 221.309 525.208 220.592 L522.361 220.036 Q517.129 218.995 514.791 216.772 Q512.453 214.55 512.453 210.592 Q512.453 206.008 515.671 203.37 Q518.912 200.731 524.583 200.731 Q527.013 200.731 529.537 201.171 Q532.06 201.61 534.699 202.49 Z" fill="#000000" fill-rule="nonzero" fill-opacity="1" /><path clip-path="url(#clip600)" d="M543.888 209.99 L548.148 209.99 L548.148 235.916 L543.888 235.916 L543.888 209.99 M543.888 199.897 L548.148 199.897 L548.148 205.291 L543.888 205.291 L543.888 199.897 Z" fill="#000000" fill-rule="nonzero" fill-opacity="1" /><path clip-path="url(#clip600)" d="M577.245 214.967 Q578.842 212.096 581.064 210.731 Q583.286 209.365 586.296 209.365 Q590.346 209.365 592.545 212.212 Q594.745 215.036 594.745 220.268 L594.745 235.916 L590.462 235.916 L590.462 220.407 Q590.462 216.68 589.143 214.874 Q587.823 213.069 585.115 213.069 Q581.805 213.069 579.884 215.268 Q577.962 217.467 577.962 221.263 L577.962 235.916 L573.68 235.916 L573.68 220.407 Q573.68 216.657 572.36 214.874 Q571.041 213.069 568.286 213.069 Q565.022 213.069 563.101 215.291 Q561.18 217.49 561.18 221.263 L561.18 235.916 L556.898 235.916 L556.898 209.99 L561.18 209.99 L561.18 214.018 Q562.638 211.633 564.675 210.499 Q566.712 209.365 569.513 209.365 Q572.337 209.365 574.305 210.8 Q576.296 212.235 577.245 214.967 Z" fill="#000000" fill-rule="nonzero" fill-opacity="1" /><path clip-path="url(#clip600)" d="M603.24 209.99 L607.499 209.99 L607.499 235.916 L603.24 235.916 L603.24 209.99 M603.24 199.897 L607.499 199.897 L607.499 205.291 L603.24 205.291 L603.24 199.897 Z" fill="#000000" fill-rule="nonzero" fill-opacity="1" /><path clip-path="url(#clip600)" d="M616.411 199.897 L620.67 199.897 L620.67 235.916 L616.411 235.916 L616.411 199.897 Z" fill="#000000" fill-rule="nonzero" fill-opacity="1" /><path clip-path="url(#clip600)" d="M641.365 222.883 Q636.203 222.883 634.212 224.064 Q632.221 225.244 632.221 228.092 Q632.221 230.36 633.703 231.703 Q635.207 233.022 637.777 233.022 Q641.318 233.022 643.448 230.522 Q645.601 227.999 645.601 223.832 L645.601 222.883 L641.365 222.883 M649.86 221.124 L649.86 235.916 L645.601 235.916 L645.601 231.981 Q644.142 234.342 641.967 235.476 Q639.791 236.587 636.642 236.587 Q632.661 236.587 630.3 234.365 Q627.962 232.119 627.962 228.369 Q627.962 223.994 630.879 221.772 Q633.818 219.55 639.629 219.55 L645.601 219.55 L645.601 219.133 Q645.601 216.194 643.656 214.596 Q641.735 212.976 638.24 212.976 Q636.017 212.976 633.911 213.508 Q631.805 214.041 629.86 215.106 L629.86 211.17 Q632.198 210.268 634.397 209.828 Q636.596 209.365 638.68 209.365 Q644.304 209.365 647.082 212.282 Q649.86 215.198 649.86 221.124 Z" fill="#000000" fill-rule="nonzero" fill-opacity="1" /><path clip-path="url(#clip600)" d="M673.656 213.971 Q672.939 213.555 672.082 213.37 Q671.249 213.161 670.23 213.161 Q666.619 213.161 664.675 215.522 Q662.753 217.86 662.753 222.258 L662.753 235.916 L658.471 235.916 L658.471 209.99 L662.753 209.99 L662.753 214.018 Q664.096 211.657 666.249 210.522 Q668.402 209.365 671.48 209.365 Q671.92 209.365 672.452 209.434 Q672.985 209.481 673.633 209.596 L673.656 213.971 Z" fill="#000000" fill-rule="nonzero" fill-opacity="1" /><path clip-path="url(#clip600)" d="M678.124 209.99 L682.383 209.99 L682.383 235.916 L678.124 235.916 L678.124 209.99 M678.124 199.897 L682.383 199.897 L682.383 205.291 L678.124 205.291 L678.124 199.897 Z" fill="#000000" fill-rule="nonzero" fill-opacity="1" /><path clip-path="url(#clip600)" d="M695.508 202.629 L695.508 209.99 L704.281 209.99 L704.281 213.3 L695.508 213.3 L695.508 227.374 Q695.508 230.545 696.364 231.448 Q697.244 232.351 699.906 232.351 L704.281 232.351 L704.281 235.916 L699.906 235.916 Q694.975 235.916 693.101 234.087 Q691.226 232.235 691.226 227.374 L691.226 213.3 L688.101 213.3 L688.101 209.99 L691.226 209.99 L691.226 202.629 L695.508 202.629 Z" fill="#000000" fill-rule="nonzero" fill-opacity="1" /><path clip-path="url(#clip600)" d="M720.67 238.323 Q718.864 242.953 717.151 244.365 Q715.438 245.777 712.568 245.777 L709.165 245.777 L709.165 242.212 L711.665 242.212 Q713.424 242.212 714.397 241.379 Q715.369 240.545 716.549 237.443 L717.313 235.499 L706.827 209.99 L711.341 209.99 L719.443 230.268 L727.545 209.99 L732.059 209.99 L720.67 238.323 Z" fill="#000000" fill-rule="nonzero" fill-opacity="1" /></svg>
