<?xml version="1.0" encoding="utf-8"?>
<svg xmlns="http://www.w3.org/2000/svg" xmlns:xlink="http://www.w3.org/1999/xlink" width="600" height="400" viewBox="0 0 2400 1600">
<defs>
  <clipPath id="clip070">
    <rect x="0" y="0" width="2400" height="1600"/>
  </clipPath>
</defs>
<path clip-path="url(#clip070)" d="M0 1600 L2400 1600 L2400 8.88178e-14 L0 8.88178e-14  Z" fill="#ffffff" fill-rule="evenodd" fill-opacity="1"/>
<defs>
  <clipPath id="clip071">
    <rect x="480" y="0" width="1681" height="1600"/>
  </clipPath>
</defs>
<path clip-path="url(#clip070)" d="M203.964 1423.18 L2352.76 1423.18 L2352.76 123.472 L203.964 123.472  Z" fill="#ffffff" fill-rule="evenodd" fill-opacity="1"/>
<defs>
  <clipPath id="clip072">
    <rect x="203" y="123" width="2150" height="1301"/>
  </clipPath>
</defs>
<polyline clip-path="url(#clip072)" style="stroke:#000000; stroke-linecap:round; stroke-linejoin:round; stroke-width:2; stroke-opacity:0.1; fill:none" points="234.967,1423.18 234.967,123.472 "/>
<polyline clip-path="url(#clip072)" style="stroke:#000000; stroke-linecap:round; stroke-linejoin:round; stroke-width:2; stroke-opacity:0.1; fill:none" points="831.192,1423.18 831.192,123.472 "/>
<polyline clip-path="url(#clip072)" style="stroke:#000000; stroke-linecap:round; stroke-linejoin:round; stroke-width:2; stroke-opacity:0.1; fill:none" points="1427.42,1423.18 1427.42,123.472 "/>
<polyline clip-path="url(#clip072)" style="stroke:#000000; stroke-linecap:round; stroke-linejoin:round; stroke-width:2; stroke-opacity:0.1; fill:none" points="2023.64,1423.18 2023.64,123.472 "/>
<polyline clip-path="url(#clip070)" style="stroke:#000000; stroke-linecap:round; stroke-linejoin:round; stroke-width:4; stroke-opacity:1; fill:none" points="203.964,1423.18 2352.76,1423.18 "/>
<polyline clip-path="url(#clip070)" style="stroke:#000000; stroke-linecap:round; stroke-linejoin:round; stroke-width:4; stroke-opacity:1; fill:none" points="234.967,1423.18 234.967,1404.28 "/>
<polyline clip-path="url(#clip070)" style="stroke:#000000; stroke-linecap:round; stroke-linejoin:round; stroke-width:4; stroke-opacity:1; fill:none" points="831.192,1423.18 831.192,1404.28 "/>
<polyline clip-path="url(#clip070)" style="stroke:#000000; stroke-linecap:round; stroke-linejoin:round; stroke-width:4; stroke-opacity:1; fill:none" points="1427.42,1423.18 1427.42,1404.28 "/>
<polyline clip-path="url(#clip070)" style="stroke:#000000; stroke-linecap:round; stroke-linejoin:round; stroke-width:4; stroke-opacity:1; fill:none" points="2023.64,1423.18 2023.64,1404.28 "/>
<path clip-path="url(#clip070)" d="M234.967 1454.1 Q231.356 1454.1 229.527 1457.66 Q227.722 1461.2 227.722 1468.33 Q227.722 1475.44 229.527 1479.01 Q231.356 1482.55 234.967 1482.55 Q238.601 1482.55 240.407 1479.01 Q242.236 1475.44 242.236 1468.33 Q242.236 1461.2 240.407 1457.66 Q238.601 1454.1 234.967 1454.1 M234.967 1450.39 Q240.777 1450.39 243.833 1455 Q246.912 1459.58 246.912 1468.33 Q246.912 1477.06 243.833 1481.67 Q240.777 1486.25 234.967 1486.25 Q229.157 1486.25 226.078 1481.67 Q223.023 1477.06 223.023 1468.33 Q223.023 1459.58 226.078 1455 Q229.157 1450.39 234.967 1450.39 Z" fill="#000000" fill-rule="nonzero" fill-opacity="1" /><path clip-path="url(#clip070)" d="M809.965 1481.64 L826.284 1481.64 L826.284 1485.58 L804.34 1485.58 L804.34 1481.64 Q807.002 1478.89 811.585 1474.26 Q816.192 1469.61 817.372 1468.27 Q819.618 1465.74 820.497 1464.01 Q821.4 1462.25 821.4 1460.56 Q821.4 1457.8 819.455 1456.07 Q817.534 1454.33 814.432 1454.33 Q812.233 1454.33 809.78 1455.09 Q807.349 1455.86 804.571 1457.41 L804.571 1452.69 Q807.395 1451.55 809.849 1450.97 Q812.303 1450.39 814.34 1450.39 Q819.71 1450.39 822.905 1453.08 Q826.099 1455.77 826.099 1460.26 Q826.099 1462.39 825.289 1464.31 Q824.502 1466.2 822.395 1468.8 Q821.817 1469.47 818.715 1472.69 Q815.613 1475.88 809.965 1481.64 Z" fill="#000000" fill-rule="nonzero" fill-opacity="1" /><path clip-path="url(#clip070)" d="M846.099 1454.1 Q842.488 1454.1 840.659 1457.66 Q838.854 1461.2 838.854 1468.33 Q838.854 1475.44 840.659 1479.01 Q842.488 1482.55 846.099 1482.55 Q849.733 1482.55 851.539 1479.01 Q853.367 1475.44 853.367 1468.33 Q853.367 1461.2 851.539 1457.66 Q849.733 1454.1 846.099 1454.1 M846.099 1450.39 Q851.909 1450.39 854.965 1455 Q858.043 1459.58 858.043 1468.33 Q858.043 1477.06 854.965 1481.67 Q851.909 1486.25 846.099 1486.25 Q840.289 1486.25 837.21 1481.67 Q834.154 1477.06 834.154 1468.33 Q834.154 1459.58 837.21 1455 Q840.289 1450.39 846.099 1450.39 Z" fill="#000000" fill-rule="nonzero" fill-opacity="1" /><path clip-path="url(#clip070)" d="M1415.59 1455.09 L1403.78 1473.54 L1415.59 1473.54 L1415.59 1455.09 M1414.36 1451.02 L1420.24 1451.02 L1420.24 1473.54 L1425.17 1473.54 L1425.17 1477.43 L1420.24 1477.43 L1420.24 1485.58 L1415.59 1485.58 L1415.59 1477.43 L1399.99 1477.43 L1399.99 1472.92 L1414.36 1451.02 Z" fill="#000000" fill-rule="nonzero" fill-opacity="1" /><path clip-path="url(#clip070)" d="M1442.9 1454.1 Q1439.29 1454.1 1437.46 1457.66 Q1435.66 1461.2 1435.66 1468.33 Q1435.66 1475.44 1437.46 1479.01 Q1439.29 1482.55 1442.9 1482.55 Q1446.54 1482.55 1448.34 1479.01 Q1450.17 1475.44 1450.17 1468.33 Q1450.17 1461.2 1448.34 1457.66 Q1446.54 1454.1 1442.9 1454.1 M1442.9 1450.39 Q1448.71 1450.39 1451.77 1455 Q1454.85 1459.58 1454.85 1468.33 Q1454.85 1477.06 1451.77 1481.67 Q1448.71 1486.25 1442.9 1486.25 Q1437.09 1486.25 1434.01 1481.67 Q1430.96 1477.06 1430.96 1468.33 Q1430.96 1459.58 1434.01 1455 Q1437.09 1450.39 1442.9 1450.39 Z" fill="#000000" fill-rule="nonzero" fill-opacity="1" /><path clip-path="url(#clip070)" d="M2009.05 1466.44 Q2005.9 1466.44 2004.05 1468.59 Q2002.22 1470.74 2002.22 1474.49 Q2002.22 1478.22 2004.05 1480.39 Q2005.9 1482.55 2009.05 1482.55 Q2012.19 1482.55 2014.02 1480.39 Q2015.87 1478.22 2015.87 1474.49 Q2015.87 1470.74 2014.02 1468.59 Q2012.19 1466.44 2009.05 1466.44 M2018.33 1451.78 L2018.33 1456.04 Q2016.57 1455.21 2014.76 1454.77 Q2012.98 1454.33 2011.22 1454.33 Q2006.59 1454.33 2004.14 1457.45 Q2001.71 1460.58 2001.36 1466.9 Q2002.73 1464.89 2004.79 1463.82 Q2006.85 1462.73 2009.32 1462.73 Q2014.53 1462.73 2017.54 1465.9 Q2020.57 1469.05 2020.57 1474.49 Q2020.57 1479.82 2017.42 1483.03 Q2014.28 1486.25 2009.05 1486.25 Q2003.05 1486.25 1999.88 1481.67 Q1996.71 1477.06 1996.71 1468.33 Q1996.71 1460.14 2000.6 1455.28 Q2004.49 1450.39 2011.04 1450.39 Q2012.8 1450.39 2014.58 1450.74 Q2016.38 1451.09 2018.33 1451.78 Z" fill="#000000" fill-rule="nonzero" fill-opacity="1" /><path clip-path="url(#clip070)" d="M2038.63 1454.1 Q2035.02 1454.1 2033.19 1457.66 Q2031.38 1461.2 2031.38 1468.33 Q2031.38 1475.44 2033.19 1479.01 Q2035.02 1482.55 2038.63 1482.55 Q2042.26 1482.55 2044.07 1479.01 Q2045.9 1475.44 2045.9 1468.33 Q2045.9 1461.2 2044.07 1457.66 Q2042.26 1454.1 2038.63 1454.1 M2038.63 1450.39 Q2044.44 1450.39 2047.49 1455 Q2050.57 1459.58 2050.57 1468.33 Q2050.57 1477.06 2047.49 1481.67 Q2044.44 1486.25 2038.63 1486.25 Q2032.82 1486.25 2029.74 1481.67 Q2026.68 1477.06 2026.68 1468.33 Q2026.68 1459.58 2029.74 1455 Q2032.82 1450.39 2038.63 1450.39 Z" fill="#000000" fill-rule="nonzero" fill-opacity="1" /><path clip-path="url(#clip070)" d="M1213.92 1561.26 L1213.92 1548.5 L1203.42 1548.5 L1203.42 1543.22 L1220.29 1543.22 L1220.29 1563.62 Q1216.56 1566.26 1212.08 1567.63 Q1207.59 1568.97 1202.5 1568.97 Q1191.36 1568.97 1185.05 1562.47 Q1178.78 1555.95 1178.78 1544.33 Q1178.78 1532.68 1185.05 1526.19 Q1191.36 1519.66 1202.5 1519.66 Q1207.14 1519.66 1211.31 1520.81 Q1215.51 1521.96 1219.05 1524.18 L1219.05 1531.03 Q1215.48 1528 1211.47 1526.48 Q1207.46 1524.95 1203.04 1524.95 Q1194.32 1524.95 1189.92 1529.82 Q1185.56 1534.69 1185.56 1544.33 Q1185.56 1553.94 1189.92 1558.81 Q1194.32 1563.68 1203.04 1563.68 Q1206.44 1563.68 1209.12 1563.11 Q1211.79 1562.51 1213.92 1561.26 Z" fill="#000000" fill-rule="nonzero" fill-opacity="1" /><path clip-path="url(#clip070)" d="M1262.27 1548.76 L1262.27 1551.62 L1235.34 1551.62 Q1235.73 1557.67 1238.97 1560.85 Q1242.25 1564 1248.07 1564 Q1251.45 1564 1254.6 1563.17 Q1257.78 1562.35 1260.9 1560.69 L1260.9 1566.23 Q1257.75 1567.57 1254.44 1568.27 Q1251.13 1568.97 1247.72 1568.97 Q1239.19 1568.97 1234.2 1564 Q1229.23 1559.04 1229.23 1550.57 Q1229.23 1541.82 1233.94 1536.69 Q1238.69 1531.54 1246.71 1531.54 Q1253.9 1531.54 1258.07 1536.18 Q1262.27 1540.8 1262.27 1548.76 M1256.41 1547.04 Q1256.35 1542.23 1253.71 1539.37 Q1251.1 1536.5 1246.77 1536.5 Q1241.87 1536.5 1238.91 1539.27 Q1235.98 1542.04 1235.53 1547.07 L1256.41 1547.04 Z" fill="#000000" fill-rule="nonzero" fill-opacity="1" /><path clip-path="url(#clip070)" d="M1301.51 1546.53 L1301.51 1568.04 L1295.66 1568.04 L1295.66 1546.72 Q1295.66 1541.66 1293.69 1539.14 Q1291.71 1536.63 1287.77 1536.63 Q1283.02 1536.63 1280.29 1539.65 Q1277.55 1542.68 1277.55 1547.9 L1277.55 1568.04 L1271.66 1568.04 L1271.66 1532.4 L1277.55 1532.4 L1277.55 1537.93 Q1279.65 1534.72 1282.48 1533.13 Q1285.35 1531.54 1289.07 1531.54 Q1295.21 1531.54 1298.36 1535.36 Q1301.51 1539.14 1301.51 1546.53 Z" fill="#000000" fill-rule="nonzero" fill-opacity="1" /><path clip-path="url(#clip070)" d="M1343.69 1548.76 L1343.69 1551.62 L1316.76 1551.62 Q1317.14 1557.67 1320.39 1560.85 Q1323.67 1564 1329.49 1564 Q1332.87 1564 1336.02 1563.17 Q1339.2 1562.35 1342.32 1560.69 L1342.32 1566.23 Q1339.17 1567.57 1335.86 1568.27 Q1332.55 1568.97 1329.14 1568.97 Q1320.61 1568.97 1315.62 1564 Q1310.65 1559.04 1310.65 1550.57 Q1310.65 1541.82 1315.36 1536.69 Q1320.1 1531.54 1328.12 1531.54 Q1335.32 1531.54 1339.49 1536.18 Q1343.69 1540.8 1343.69 1548.76 M1337.83 1547.04 Q1337.77 1542.23 1335.13 1539.37 Q1332.52 1536.5 1328.19 1536.5 Q1323.29 1536.5 1320.33 1539.27 Q1317.4 1542.04 1316.95 1547.07 L1337.83 1547.04 Z" fill="#000000" fill-rule="nonzero" fill-opacity="1" /><path clip-path="url(#clip070)" d="M1376.03 1533.45 L1376.03 1538.98 Q1373.54 1537.71 1370.87 1537.07 Q1368.2 1536.44 1365.33 1536.44 Q1360.97 1536.44 1358.77 1537.77 Q1356.61 1539.11 1356.61 1541.79 Q1356.61 1543.82 1358.17 1545 Q1359.73 1546.15 1364.44 1547.2 L1366.45 1547.64 Q1372.68 1548.98 1375.29 1551.43 Q1377.94 1553.85 1377.94 1558.21 Q1377.94 1563.17 1373.99 1566.07 Q1370.07 1568.97 1363.2 1568.97 Q1360.33 1568.97 1357.21 1568.39 Q1354.13 1567.85 1350.69 1566.74 L1350.69 1560.69 Q1353.94 1562.38 1357.09 1563.24 Q1360.24 1564.07 1363.33 1564.07 Q1367.46 1564.07 1369.69 1562.66 Q1371.92 1561.23 1371.92 1558.65 Q1371.92 1556.27 1370.3 1554.99 Q1368.71 1553.72 1363.26 1552.54 L1361.23 1552.07 Q1355.78 1550.92 1353.36 1548.56 Q1350.94 1546.18 1350.94 1542.04 Q1350.94 1537.01 1354.51 1534.27 Q1358.07 1531.54 1364.63 1531.54 Q1367.88 1531.54 1370.74 1532.01 Q1373.61 1532.49 1376.03 1533.45 Z" fill="#000000" fill-rule="nonzero" fill-opacity="1" /><polyline clip-path="url(#clip072)" style="stroke:#000000; stroke-linecap:round; stroke-linejoin:round; stroke-width:2; stroke-opacity:0.1; fill:none" points="203.964,1386.45 2352.76,1386.45 "/>
<polyline clip-path="url(#clip072)" style="stroke:#000000; stroke-linecap:round; stroke-linejoin:round; stroke-width:2; stroke-opacity:0.1; fill:none" points="203.964,1085.8 2352.76,1085.8 "/>
<polyline clip-path="url(#clip072)" style="stroke:#000000; stroke-linecap:round; stroke-linejoin:round; stroke-width:2; stroke-opacity:0.1; fill:none" points="203.964,785.149 2352.76,785.149 "/>
<polyline clip-path="url(#clip072)" style="stroke:#000000; stroke-linecap:round; stroke-linejoin:round; stroke-width:2; stroke-opacity:0.1; fill:none" points="203.964,484.497 2352.76,484.497 "/>
<polyline clip-path="url(#clip072)" style="stroke:#000000; stroke-linecap:round; stroke-linejoin:round; stroke-width:2; stroke-opacity:0.1; fill:none" points="203.964,183.845 2352.76,183.845 "/>
<polyline clip-path="url(#clip070)" style="stroke:#000000; stroke-linecap:round; stroke-linejoin:round; stroke-width:4; stroke-opacity:1; fill:none" points="203.964,1423.18 203.964,123.472 "/>
<polyline clip-path="url(#clip070)" style="stroke:#000000; stroke-linecap:round; stroke-linejoin:round; stroke-width:4; stroke-opacity:1; fill:none" points="203.964,1386.45 222.861,1386.45 "/>
<polyline clip-path="url(#clip070)" style="stroke:#000000; stroke-linecap:round; stroke-linejoin:round; stroke-width:4; stroke-opacity:1; fill:none" points="203.964,1085.8 222.861,1085.8 "/>
<polyline clip-path="url(#clip070)" style="stroke:#000000; stroke-linecap:round; stroke-linejoin:round; stroke-width:4; stroke-opacity:1; fill:none" points="203.964,785.149 222.861,785.149 "/>
<polyline clip-path="url(#clip070)" style="stroke:#000000; stroke-linecap:round; stroke-linejoin:round; stroke-width:4; stroke-opacity:1; fill:none" points="203.964,484.497 222.861,484.497 "/>
<polyline clip-path="url(#clip070)" style="stroke:#000000; stroke-linecap:round; stroke-linejoin:round; stroke-width:4; stroke-opacity:1; fill:none" points="203.964,183.845 222.861,183.845 "/>
<path clip-path="url(#clip070)" d="M156.019 1372.25 Q152.408 1372.25 150.579 1375.82 Q148.774 1379.36 148.774 1386.49 Q148.774 1393.59 150.579 1397.16 Q152.408 1400.7 156.019 1400.7 Q159.653 1400.7 161.459 1397.16 Q163.288 1393.59 163.288 1386.49 Q163.288 1379.36 161.459 1375.82 Q159.653 1372.25 156.019 1372.25 M156.019 1368.55 Q161.829 1368.55 164.885 1373.15 Q167.964 1377.74 167.964 1386.49 Q167.964 1395.21 164.885 1399.82 Q161.829 1404.4 156.019 1404.4 Q150.209 1404.4 147.13 1399.82 Q144.075 1395.21 144.075 1386.49 Q144.075 1377.74 147.13 1373.15 Q150.209 1368.55 156.019 1368.55 Z" fill="#000000" fill-rule="nonzero" fill-opacity="1" /><path clip-path="url(#clip070)" d="M147.061 1068.52 L165.417 1068.52 L165.417 1072.46 L151.343 1072.46 L151.343 1080.93 Q152.362 1080.58 153.38 1080.42 Q154.399 1080.23 155.417 1080.23 Q161.204 1080.23 164.584 1083.41 Q167.964 1086.58 167.964 1091.99 Q167.964 1097.57 164.491 1100.67 Q161.019 1103.75 154.7 1103.75 Q152.524 1103.75 150.255 1103.38 Q148.01 1103.01 145.603 1102.27 L145.603 1097.57 Q147.686 1098.71 149.908 1099.26 Q152.13 1099.82 154.607 1099.82 Q158.612 1099.82 160.95 1097.71 Q163.288 1095.6 163.288 1091.99 Q163.288 1088.38 160.95 1086.28 Q158.612 1084.17 154.607 1084.17 Q152.732 1084.17 150.857 1084.59 Q149.005 1085 147.061 1085.88 L147.061 1068.52 Z" fill="#000000" fill-rule="nonzero" fill-opacity="1" /><path clip-path="url(#clip070)" d="M116.668 798.494 L124.306 798.494 L124.306 772.128 L115.996 773.795 L115.996 769.536 L124.26 767.869 L128.936 767.869 L128.936 798.494 L136.575 798.494 L136.575 802.429 L116.668 802.429 L116.668 798.494 Z" fill="#000000" fill-rule="nonzero" fill-opacity="1" /><path clip-path="url(#clip070)" d="M156.019 770.948 Q152.408 770.948 150.579 774.513 Q148.774 778.054 148.774 785.184 Q148.774 792.29 150.579 795.855 Q152.408 799.397 156.019 799.397 Q159.653 799.397 161.459 795.855 Q163.288 792.29 163.288 785.184 Q163.288 778.054 161.459 774.513 Q159.653 770.948 156.019 770.948 M156.019 767.244 Q161.829 767.244 164.885 771.851 Q167.964 776.434 167.964 785.184 Q167.964 793.911 164.885 798.517 Q161.829 803.1 156.019 803.1 Q150.209 803.1 147.13 798.517 Q144.075 793.911 144.075 785.184 Q144.075 776.434 147.13 771.851 Q150.209 767.244 156.019 767.244 Z" fill="#000000" fill-rule="nonzero" fill-opacity="1" /><path clip-path="url(#clip070)" d="M117.663 497.842 L125.302 497.842 L125.302 471.476 L116.992 473.143 L116.992 468.884 L125.255 467.217 L129.931 467.217 L129.931 497.842 L137.57 497.842 L137.57 501.777 L117.663 501.777 L117.663 497.842 Z" fill="#000000" fill-rule="nonzero" fill-opacity="1" /><path clip-path="url(#clip070)" d="M147.061 467.217 L165.417 467.217 L165.417 471.152 L151.343 471.152 L151.343 479.625 Q152.362 479.277 153.38 479.115 Q154.399 478.93 155.417 478.93 Q161.204 478.93 164.584 482.101 Q167.964 485.273 167.964 490.689 Q167.964 496.268 164.491 499.37 Q161.019 502.448 154.7 502.448 Q152.524 502.448 150.255 502.078 Q148.01 501.708 145.603 500.967 L145.603 496.268 Q147.686 497.402 149.908 497.958 Q152.13 498.513 154.607 498.513 Q158.612 498.513 160.95 496.407 Q163.288 494.3 163.288 490.689 Q163.288 487.078 160.95 484.972 Q158.612 482.865 154.607 482.865 Q152.732 482.865 150.857 483.282 Q149.005 483.699 147.061 484.578 L147.061 467.217 Z" fill="#000000" fill-rule="nonzero" fill-opacity="1" /><path clip-path="url(#clip070)" d="M119.885 197.19 L136.204 197.19 L136.204 201.125 L114.26 201.125 L114.26 197.19 Q116.922 194.435 121.505 189.806 Q126.112 185.153 127.292 183.81 Q129.538 181.287 130.417 179.551 Q131.32 177.792 131.32 176.102 Q131.32 173.348 129.376 171.611 Q127.455 169.875 124.353 169.875 Q122.154 169.875 119.7 170.639 Q117.269 171.403 114.492 172.954 L114.492 168.232 Q117.316 167.098 119.769 166.519 Q122.223 165.94 124.26 165.94 Q129.63 165.94 132.825 168.625 Q136.019 171.311 136.019 175.801 Q136.019 177.931 135.209 179.852 Q134.422 181.75 132.316 184.343 Q131.737 185.014 128.635 188.232 Q125.533 191.426 119.885 197.19 Z" fill="#000000" fill-rule="nonzero" fill-opacity="1" /><path clip-path="url(#clip070)" d="M156.019 169.644 Q152.408 169.644 150.579 173.209 Q148.774 176.75 148.774 183.88 Q148.774 190.986 150.579 194.551 Q152.408 198.093 156.019 198.093 Q159.653 198.093 161.459 194.551 Q163.288 190.986 163.288 183.88 Q163.288 176.75 161.459 173.209 Q159.653 169.644 156.019 169.644 M156.019 165.94 Q161.829 165.94 164.885 170.547 Q167.964 175.13 167.964 183.88 Q167.964 192.607 164.885 197.213 Q161.829 201.797 156.019 201.797 Q150.209 201.797 147.13 197.213 Q144.075 192.607 144.075 183.88 Q144.075 175.13 147.13 170.547 Q150.209 165.94 156.019 165.94 Z" fill="#000000" fill-rule="nonzero" fill-opacity="1" /><path clip-path="url(#clip070)" d="M16.4842 837.445 L16.4842 827.864 L48.8219 815.738 L16.4842 803.547 L16.4842 793.967 L64.0042 793.967 L64.0042 800.237 L22.277 800.237 L54.8694 812.491 L54.8694 818.952 L22.277 831.206 L64.0042 831.206 L64.0042 837.445 L16.4842 837.445 Z" fill="#000000" fill-rule="nonzero" fill-opacity="1" /><path clip-path="url(#clip070)" d="M18.0438 752.717 L24.314 752.717 Q22.5634 756.377 21.704 759.624 Q20.8447 762.87 20.8447 765.894 Q20.8447 771.146 22.8817 774.01 Q24.9187 776.843 28.6745 776.843 Q31.8255 776.843 33.4488 774.965 Q35.0402 773.055 36.0269 767.772 L36.8226 763.889 Q38.1912 756.696 41.6605 753.29 Q45.098 749.852 50.8908 749.852 Q57.7976 749.852 61.3624 754.499 Q64.9272 759.115 64.9272 768.058 Q64.9272 771.432 64.1633 775.252 Q63.3994 779.039 61.9035 783.113 L55.2831 783.113 Q57.4793 779.198 58.5933 775.443 Q59.7073 771.687 59.7073 768.058 Q59.7073 762.552 57.543 759.56 Q55.3786 756.568 51.3682 756.568 Q47.8671 756.568 45.8937 758.733 Q43.9204 760.865 42.9337 765.767 L42.1698 769.682 Q40.7375 776.875 37.682 780.09 Q34.6264 783.304 29.1837 783.304 Q22.8817 783.304 19.2532 778.88 Q15.6248 774.424 15.6248 766.626 Q15.6248 763.284 16.2295 759.815 Q16.8343 756.345 18.0438 752.717 Z" fill="#000000" fill-rule="nonzero" fill-opacity="1" /><path clip-path="url(#clip070)" d="M16.4842 739.826 L16.4842 709.78 L21.895 709.78 L21.895 733.397 L35.9632 733.397 L35.9632 710.767 L41.3741 710.767 L41.3741 733.397 L58.5933 733.397 L58.5933 709.207 L64.0042 709.207 L64.0042 739.826 L16.4842 739.826 Z" fill="#000000" fill-rule="nonzero" fill-opacity="1" /><path clip-path="url(#clip070)" d="M869.563 12.096 L881.756 12.096 L897.19 53.2532 L912.705 12.096 L924.898 12.096 L924.898 72.576 L916.918 72.576 L916.918 19.4686 L901.322 60.9499 L893.098 60.9499 L877.503 19.4686 L877.503 72.576 L869.563 72.576 L869.563 12.096 Z" fill="#000000" fill-rule="nonzero" fill-opacity="1" /><path clip-path="url(#clip070)" d="M979.626 48.0275 L979.626 51.6733 L945.355 51.6733 Q945.841 59.3701 949.973 63.421 Q954.146 67.4314 961.559 67.4314 Q965.853 67.4314 969.863 66.3781 Q973.914 65.3249 977.884 63.2184 L977.884 70.267 Q973.874 71.9684 969.661 72.8596 Q965.448 73.7508 961.113 73.7508 Q950.257 73.7508 943.897 67.4314 Q937.577 61.1119 937.577 50.3365 Q937.577 39.1965 943.573 32.6746 Q949.609 26.1121 959.817 26.1121 Q968.972 26.1121 974.279 32.0264 Q979.626 37.9003 979.626 48.0275 M972.172 45.84 Q972.091 39.7232 968.729 36.0774 Q965.407 32.4315 959.898 32.4315 Q953.66 32.4315 949.892 35.9558 Q946.165 39.4801 945.598 45.8805 L972.172 45.84 Z" fill="#000000" fill-rule="nonzero" fill-opacity="1" /><path clip-path="url(#clip070)" d="M1012.48 49.7694 Q1003.45 49.7694 999.961 51.8354 Q996.478 53.9013 996.478 58.8839 Q996.478 62.8538 999.07 65.2034 Q1001.7 67.5124 1006.2 67.5124 Q1012.4 67.5124 1016.12 63.1374 Q1019.89 58.7219 1019.89 51.4303 L1019.89 49.7694 L1012.48 49.7694 M1027.35 46.6907 L1027.35 72.576 L1019.89 72.576 L1019.89 65.6895 Q1017.34 69.8214 1013.53 71.8063 Q1009.72 73.7508 1004.21 73.7508 Q997.247 73.7508 993.115 69.8619 Q989.024 65.9325 989.024 59.3701 Q989.024 51.7138 994.128 47.825 Q999.273 43.9361 1009.44 43.9361 L1019.89 43.9361 L1019.89 43.2069 Q1019.89 38.0623 1016.49 35.2672 Q1013.13 32.4315 1007.01 32.4315 Q1003.12 32.4315 999.435 33.3632 Q995.748 34.295 992.346 36.1584 L992.346 29.2718 Q996.437 27.692 1000.29 26.9223 Q1004.13 26.1121 1007.78 26.1121 Q1017.62 26.1121 1022.48 31.2163 Q1027.35 36.3204 1027.35 46.6907 Z" fill="#000000" fill-rule="nonzero" fill-opacity="1" /><path clip-path="url(#clip070)" d="M1080.41 45.1919 L1080.41 72.576 L1072.96 72.576 L1072.96 45.4349 Q1072.96 38.994 1070.45 35.7938 Q1067.94 32.5936 1062.91 32.5936 Q1056.88 32.5936 1053.39 36.4419 Q1049.91 40.2903 1049.91 46.9338 L1049.91 72.576 L1042.41 72.576 L1042.41 27.2059 L1049.91 27.2059 L1049.91 34.2544 Q1052.58 30.163 1056.19 28.1376 Q1059.83 26.1121 1064.57 26.1121 Q1072.39 26.1121 1076.4 30.9732 Q1080.41 35.7938 1080.41 45.1919 Z" fill="#000000" fill-rule="nonzero" fill-opacity="1" /><path clip-path="url(#clip070)" d="M1158.23 14.0809 L1158.23 22.0612 Q1153.57 19.8332 1149.44 18.7395 Q1145.31 17.6457 1141.46 17.6457 Q1134.78 17.6457 1131.13 20.2383 Q1127.52 22.8309 1127.52 27.611 Q1127.52 31.6214 1129.91 33.6873 Q1132.34 35.7128 1139.07 36.9686 L1144.01 37.9813 Q1153.17 39.7232 1157.5 44.1387 Q1161.88 48.5136 1161.88 55.8863 Q1161.88 64.6767 1155.96 69.2137 Q1150.09 73.7508 1138.7 73.7508 Q1134.41 73.7508 1129.55 72.7785 Q1124.73 71.8063 1119.54 69.9024 L1119.54 61.4765 Q1124.53 64.2716 1129.31 65.6895 Q1134.09 67.1073 1138.7 67.1073 Q1145.71 67.1073 1149.52 64.3527 Q1153.33 61.598 1153.33 56.4939 Q1153.33 52.0379 1150.57 49.5264 Q1147.86 47.0148 1141.62 45.759 L1136.64 44.7868 Q1127.48 42.9639 1123.39 39.075 Q1119.3 35.1862 1119.3 28.2591 Q1119.3 20.2383 1124.93 15.6203 Q1130.6 11.0023 1140.53 11.0023 Q1144.78 11.0023 1149.2 11.7719 Q1153.61 12.5416 1158.23 14.0809 Z" fill="#000000" fill-rule="nonzero" fill-opacity="1" /><path clip-path="url(#clip070)" d="M1178.77 49.9314 Q1178.77 58.1548 1182.13 62.8538 Q1185.53 67.5124 1191.45 67.5124 Q1197.36 67.5124 1200.76 62.8538 Q1204.17 58.1548 1204.17 49.9314 Q1204.17 41.7081 1200.76 37.0496 Q1197.36 32.3505 1191.45 32.3505 Q1185.53 32.3505 1182.13 37.0496 Q1178.77 41.7081 1178.77 49.9314 M1204.17 65.7705 Q1201.82 69.8214 1198.21 71.8063 Q1194.65 73.7508 1189.62 73.7508 Q1181.4 73.7508 1176.22 67.1883 Q1171.07 60.6258 1171.07 49.9314 Q1171.07 39.2371 1176.22 32.6746 Q1181.4 26.1121 1189.62 26.1121 Q1194.65 26.1121 1198.21 28.0971 Q1201.82 30.0415 1204.17 34.0924 L1204.17 27.2059 L1211.62 27.2059 L1211.62 89.8329 L1204.17 89.8329 L1204.17 65.7705 Z" fill="#000000" fill-rule="nonzero" fill-opacity="1" /><path clip-path="url(#clip070)" d="M1226.2 54.671 L1226.2 27.2059 L1233.66 27.2059 L1233.66 54.3874 Q1233.66 60.8284 1236.17 64.0691 Q1238.68 67.2693 1243.7 67.2693 Q1249.74 67.2693 1253.22 63.421 Q1256.75 59.5726 1256.75 52.9291 L1256.75 27.2059 L1264.2 27.2059 L1264.2 72.576 L1256.75 72.576 L1256.75 65.6084 Q1254.03 69.7404 1250.43 71.7658 Q1246.86 73.7508 1242.12 73.7508 Q1234.31 73.7508 1230.26 68.8897 Q1226.2 64.0286 1226.2 54.671 M1244.96 26.1121 L1244.96 26.1121 Z" fill="#000000" fill-rule="nonzero" fill-opacity="1" /><path clip-path="url(#clip070)" d="M1300.17 49.7694 Q1291.14 49.7694 1287.66 51.8354 Q1284.17 53.9013 1284.17 58.8839 Q1284.17 62.8538 1286.77 65.2034 Q1289.4 67.5124 1293.89 67.5124 Q1300.09 67.5124 1303.82 63.1374 Q1307.59 58.7219 1307.59 51.4303 L1307.59 49.7694 L1300.17 49.7694 M1315.04 46.6907 L1315.04 72.576 L1307.59 72.576 L1307.59 65.6895 Q1305.03 69.8214 1301.23 71.8063 Q1297.42 73.7508 1291.91 73.7508 Q1284.94 73.7508 1280.81 69.8619 Q1276.72 65.9325 1276.72 59.3701 Q1276.72 51.7138 1281.82 47.825 Q1286.97 43.9361 1297.14 43.9361 L1307.59 43.9361 L1307.59 43.2069 Q1307.59 38.0623 1304.18 35.2672 Q1300.82 32.4315 1294.71 32.4315 Q1290.82 32.4315 1287.13 33.3632 Q1283.44 34.295 1280.04 36.1584 L1280.04 29.2718 Q1284.13 27.692 1287.98 26.9223 Q1291.83 26.1121 1295.47 26.1121 Q1305.32 26.1121 1310.18 31.2163 Q1315.04 36.3204 1315.04 46.6907 Z" fill="#000000" fill-rule="nonzero" fill-opacity="1" /><path clip-path="url(#clip070)" d="M1356.68 34.1734 Q1355.43 33.4443 1353.93 33.1202 Q1352.47 32.7556 1350.69 32.7556 Q1344.37 32.7556 1340.97 36.8875 Q1337.6 40.9789 1337.6 48.6757 L1337.6 72.576 L1330.11 72.576 L1330.11 27.2059 L1337.6 27.2059 L1337.6 34.2544 Q1339.95 30.1225 1343.72 28.1376 Q1347.49 26.1121 1352.88 26.1121 Q1353.65 26.1121 1354.58 26.2337 Q1355.51 26.3147 1356.64 26.5172 L1356.68 34.1734 Z" fill="#000000" fill-rule="nonzero" fill-opacity="1" /><path clip-path="url(#clip070)" d="M1401.49 48.0275 L1401.49 51.6733 L1367.22 51.6733 Q1367.7 59.3701 1371.83 63.421 Q1376.01 67.4314 1383.42 67.4314 Q1387.71 67.4314 1391.72 66.3781 Q1395.78 65.3249 1399.75 63.2184 L1399.75 70.267 Q1395.73 71.9684 1391.52 72.8596 Q1387.31 73.7508 1382.97 73.7508 Q1372.12 73.7508 1365.76 67.4314 Q1359.44 61.1119 1359.44 50.3365 Q1359.44 39.1965 1365.43 32.6746 Q1371.47 26.1121 1381.68 26.1121 Q1390.83 26.1121 1396.14 32.0264 Q1401.49 37.9003 1401.49 48.0275 M1394.03 45.84 Q1393.95 39.7232 1390.59 36.0774 Q1387.27 32.4315 1381.76 32.4315 Q1375.52 32.4315 1371.75 35.9558 Q1368.03 39.4801 1367.46 45.8805 L1394.03 45.84 Z" fill="#000000" fill-rule="nonzero" fill-opacity="1" /><path clip-path="url(#clip070)" d="M1443.58 34.0924 L1443.58 9.54393 L1451.03 9.54393 L1451.03 72.576 L1443.58 72.576 L1443.58 65.7705 Q1441.23 69.8214 1437.62 71.8063 Q1434.06 73.7508 1429.03 73.7508 Q1420.81 73.7508 1415.62 67.1883 Q1410.48 60.6258 1410.48 49.9314 Q1410.48 39.2371 1415.62 32.6746 Q1420.81 26.1121 1429.03 26.1121 Q1434.06 26.1121 1437.62 28.0971 Q1441.23 30.0415 1443.58 34.0924 M1418.18 49.9314 Q1418.18 58.1548 1421.54 62.8538 Q1424.94 67.5124 1430.86 67.5124 Q1436.77 67.5124 1440.17 62.8538 Q1443.58 58.1548 1443.58 49.9314 Q1443.58 41.7081 1440.17 37.0496 Q1436.77 32.3505 1430.86 32.3505 Q1424.94 32.3505 1421.54 37.0496 Q1418.18 41.7081 1418.18 49.9314 Z" fill="#000000" fill-rule="nonzero" fill-opacity="1" /><path clip-path="url(#clip070)" d="M1493.08 12.096 L1531.32 12.096 L1531.32 18.9825 L1501.26 18.9825 L1501.26 36.8875 L1530.06 36.8875 L1530.06 43.7741 L1501.26 43.7741 L1501.26 65.6895 L1532.05 65.6895 L1532.05 72.576 L1493.08 72.576 L1493.08 12.096 Z" fill="#000000" fill-rule="nonzero" fill-opacity="1" /><path clip-path="url(#clip070)" d="M1571.46 34.1734 Q1570.21 33.4443 1568.71 33.1202 Q1567.25 32.7556 1565.47 32.7556 Q1559.15 32.7556 1555.75 36.8875 Q1552.38 40.9789 1552.38 48.6757 L1552.38 72.576 L1544.89 72.576 L1544.89 27.2059 L1552.38 27.2059 L1552.38 34.2544 Q1554.73 30.1225 1558.5 28.1376 Q1562.27 26.1121 1567.66 26.1121 Q1568.42 26.1121 1569.36 26.2337 Q1570.29 26.3147 1571.42 26.5172 L1571.46 34.1734 Z" fill="#000000" fill-rule="nonzero" fill-opacity="1" /><path clip-path="url(#clip070)" d="M1604.11 34.1734 Q1602.86 33.4443 1601.36 33.1202 Q1599.9 32.7556 1598.12 32.7556 Q1591.8 32.7556 1588.4 36.8875 Q1585.03 40.9789 1585.03 48.6757 L1585.03 72.576 L1577.54 72.576 L1577.54 27.2059 L1585.03 27.2059 L1585.03 34.2544 Q1587.38 30.1225 1591.15 28.1376 Q1594.92 26.1121 1600.31 26.1121 Q1601.08 26.1121 1602.01 26.2337 Q1602.94 26.3147 1604.07 26.5172 L1604.11 34.1734 Z" fill="#000000" fill-rule="nonzero" fill-opacity="1" /><path clip-path="url(#clip070)" d="M1627.69 32.4315 Q1621.69 32.4315 1618.21 37.1306 Q1614.73 41.7891 1614.73 49.9314 Q1614.73 58.0738 1618.17 62.7728 Q1621.65 67.4314 1627.69 67.4314 Q1633.64 67.4314 1637.13 62.7323 Q1640.61 58.0333 1640.61 49.9314 Q1640.61 41.8701 1637.13 37.1711 Q1633.64 32.4315 1627.69 32.4315 M1627.69 26.1121 Q1637.41 26.1121 1642.96 32.4315 Q1648.51 38.7509 1648.51 49.9314 Q1648.51 61.0714 1642.96 67.4314 Q1637.41 73.7508 1627.69 73.7508 Q1617.93 73.7508 1612.38 67.4314 Q1606.87 61.0714 1606.87 49.9314 Q1606.87 38.7509 1612.38 32.4315 Q1617.93 26.1121 1627.69 26.1121 Z" fill="#000000" fill-rule="nonzero" fill-opacity="1" /><path clip-path="url(#clip070)" d="M1687.16 34.1734 Q1685.9 33.4443 1684.4 33.1202 Q1682.94 32.7556 1681.16 32.7556 Q1674.84 32.7556 1671.44 36.8875 Q1668.08 40.9789 1668.08 48.6757 L1668.08 72.576 L1660.58 72.576 L1660.58 27.2059 L1668.08 27.2059 L1668.08 34.2544 Q1670.43 30.1225 1674.19 28.1376 Q1677.96 26.1121 1683.35 26.1121 Q1684.12 26.1121 1685.05 26.2337 Q1685.98 26.3147 1687.12 26.5172 L1687.16 34.1734 Z" fill="#000000" fill-rule="nonzero" fill-opacity="1" /><polyline clip-path="url(#clip072)" style="stroke:#009af9; stroke-linecap:round; stroke-linejoin:round; stroke-width:4; stroke-opacity:1; fill:none" points="264.778,1310.49 294.59,1320.29 324.401,1331.34 354.212,1343.27 384.023,1336.54 413.835,1354.11 443.646,1335.62 473.457,1351.73 503.268,1366.66 533.079,1357.27 562.891,1363.28 592.702,1370.19 622.513,1363.38 652.324,1349.5 682.135,1359.85 711.947,1354.16 741.758,1380.56 771.569,1351.74 801.38,1332.72 831.192,1285.13 861.003,1063.56 890.814,1223.63 920.625,1154.21 950.436,1112.3 980.248,982.939 1010.06,1227.74 1039.87,1134.7 1069.68,1228.33 1099.49,1261.96 1129.3,1216.65 1159.11,1338.63 1188.93,1303.19 1218.74,1275.25 1248.55,1302.67 1278.36,1349.94 1308.17,1337.62 1337.98,1300.92 1367.79,1336.62 1397.6,1277.14 1427.42,1341.23 1457.23,1335.91 1487.04,1328.19 1516.85,1330.74 1546.66,1324.32 1576.47,1334.81 1606.28,1277.03 1636.09,1334.37 1665.91,1305.52 1695.72,1274.55 1725.53,1322.37 1755.34,1362.04 1785.15,1310.19 1814.96,1186.43 1844.77,1233.92 1874.58,1334.1 1904.4,1195.01 1934.21,1344.92 1964.02,1333.89 1993.83,1353.69 2023.64,1375.73 2053.45,1373.99 2083.26,1336.34 2113.07,1352.62 2142.88,1363.98 2172.7,1386.34 2202.51,1386.33 2232.32,1386.23 2262.13,512.125 2291.94,1326.63 "/>
<polyline clip-path="url(#clip072)" style="stroke:#e26f46; stroke-linecap:round; stroke-linejoin:round; stroke-width:4; stroke-opacity:1; fill:none" points="264.778,1302.93 294.59,1318.18 324.401,1341.29 354.212,1355.17 384.023,1354.92 413.835,1330.96 443.646,1341.09 473.457,1366.52 503.268,1374.54 533.079,1344.05 562.891,1370.55 592.702,1378.36 622.513,1370.84 652.324,1370.24 682.135,1369.24 711.947,1331.53 741.758,1381.07 771.569,1373.71 801.38,1360.7 831.192,1340.31 861.003,1111.15 890.814,1176.18 920.625,1129.91 950.436,1132.11 980.248,858.531 1010.06,1306.68 1039.87,1090.71 1069.68,1184.46 1099.49,1331.45 1129.3,1158.76 1159.11,1370.51 1188.93,1363.16 1218.74,1357.93 1248.55,1362.04 1278.36,1369.09 1308.17,1368.79 1337.98,1372.03 1367.79,1371.58 1397.6,1349.84 1427.42,1375.59 1457.23,1343.04 1487.04,1337.23 1516.85,1336.63 1546.66,1357.16 1576.47,1358.81 1606.28,1312.13 1636.09,1359.38 1665.91,1369 1695.72,1287.91 1725.53,1348.61 1755.34,1349.7 1785.15,1308.12 1814.96,1198.08 1844.77,1252.42 1874.58,1364.98 1904.4,1192.11 1934.21,1370.06 1964.02,1343.85 1993.83,1371.01 2023.64,1383.02 2053.45,1385.26 2083.26,1370.14 2113.07,1364.8 2142.88,1386.34 2172.7,1386.4 2202.51,1386.33 2232.32,1386.23 2262.13,252.439 2291.94,1372.36 "/>
<polyline clip-path="url(#clip072)" style="stroke:#3da44d; stroke-linecap:round; stroke-linejoin:round; stroke-width:4; stroke-opacity:1; fill:none" points="264.778,1305.39 294.59,1319.76 324.401,1340.98 354.212,1355.7 384.023,1358.04 413.835,1326.62 443.646,1341.94 473.457,1369.83 503.268,1375.21 533.079,1341.5 562.891,1373.2 592.702,1377.4 622.513,1371.29 652.324,1373 682.135,1373.59 711.947,1327.61 741.758,1381.19 771.569,1373.82 801.38,1364.28 831.192,1338.46 861.003,1108.32 890.814,1174.19 920.625,1139.1 950.436,1133.08 980.248,855.959 1010.06,1312.81 1039.87,1089.95 1069.68,1176.63 1099.49,1335.8 1129.3,1163.24 1159.11,1374.98 1188.93,1367.04 1218.74,1360.68 1248.55,1362.68 1278.36,1366.51 1308.17,1371.88 1337.98,1374.16 1367.79,1373.39 1397.6,1366.04 1427.42,1377.66 1457.23,1346.16 1487.04,1341.96 1516.85,1339.61 1546.66,1359.39 1576.47,1359.28 1606.28,1316.73 1636.09,1362.01 1665.91,1368.58 1695.72,1289.06 1725.53,1348.16 1755.34,1351.2 1785.15,1314.13 1814.96,1196.73 1844.77,1245.73 1874.58,1365.44 1904.4,1189.8 1934.21,1370.57 1964.02,1341.69 1993.83,1377.25 2023.64,1383.45 2053.45,1385.26 2083.26,1371.65 2113.07,1367.51 2142.88,1386.34 2172.7,1386.4 2202.51,1386.33 2232.32,1386.23 2262.13,160.256 2291.94,1376.58 "/>
<path clip-path="url(#clip070)" d="M275.59 374.156 L604.682 374.156 L604.682 166.796 L275.59 166.796  Z" fill="#ffffff" fill-rule="evenodd" fill-opacity="1"/>
<polyline clip-path="url(#clip070)" style="stroke:#000000; stroke-linecap:round; stroke-linejoin:round; stroke-width:4; stroke-opacity:1; fill:none" points="275.59,374.156 604.682,374.156 604.682,166.796 275.59,166.796 275.59,374.156 "/>
<polyline clip-path="url(#clip070)" style="stroke:#009af9; stroke-linecap:round; stroke-linejoin:round; stroke-width:4; stroke-opacity:1; fill:none" points="299.465,218.636 442.718,218.636 "/>
<path clip-path="url(#clip070)" d="M474.001 202.629 L474.001 209.99 L482.774 209.99 L482.774 213.3 L474.001 213.3 L474.001 227.374 Q474.001 230.545 474.858 231.448 Q475.737 232.351 478.399 232.351 L482.774 232.351 L482.774 235.916 L478.399 235.916 Q473.469 235.916 471.594 234.087 Q469.719 232.235 469.719 227.374 L469.719 213.3 L466.594 213.3 L466.594 209.99 L469.719 209.99 L469.719 202.629 L474.001 202.629 Z" fill="#000000" fill-rule="nonzero" fill-opacity="1" /><path clip-path="url(#clip070)" d="M488.932 214.388 L518.607 214.388 L518.607 218.277 L488.932 218.277 L488.932 214.388 M488.932 223.832 L518.607 223.832 L518.607 227.768 L488.932 227.768 L488.932 223.832 Z" fill="#000000" fill-rule="nonzero" fill-opacity="1" /><path clip-path="url(#clip070)" d="M529.51 231.981 L537.149 231.981 L537.149 205.615 L528.839 207.282 L528.839 203.022 L537.103 201.356 L541.779 201.356 L541.779 231.981 L549.417 231.981 L549.417 235.916 L529.51 235.916 L529.51 231.981 Z" fill="#000000" fill-rule="nonzero" fill-opacity="1" /><polyline clip-path="url(#clip070)" style="stroke:#e26f46; stroke-linecap:round; stroke-linejoin:round; stroke-width:4; stroke-opacity:1; fill:none" points="299.465,270.476 442.718,270.476 "/>
<path clip-path="url(#clip070)" d="M474.001 254.469 L474.001 261.83 L482.774 261.83 L482.774 265.14 L474.001 265.14 L474.001 279.214 Q474.001 282.385 474.858 283.288 Q475.737 284.191 478.399 284.191 L482.774 284.191 L482.774 287.756 L478.399 287.756 Q473.469 287.756 471.594 285.927 Q469.719 284.075 469.719 279.214 L469.719 265.14 L466.594 265.14 L466.594 261.83 L469.719 261.83 L469.719 254.469 L474.001 254.469 Z" fill="#000000" fill-rule="nonzero" fill-opacity="1" /><path clip-path="url(#clip070)" d="M488.932 266.228 L518.607 266.228 L518.607 270.117 L488.932 270.117 L488.932 266.228 M488.932 275.672 L518.607 275.672 L518.607 279.608 L488.932 279.608 L488.932 275.672 Z" fill="#000000" fill-rule="nonzero" fill-opacity="1" /><path clip-path="url(#clip070)" d="M528.746 253.196 L547.103 253.196 L547.103 257.131 L533.029 257.131 L533.029 265.603 Q534.047 265.256 535.066 265.094 Q536.084 264.909 537.103 264.909 Q542.89 264.909 546.269 268.08 Q549.649 271.251 549.649 276.668 Q549.649 282.246 546.177 285.348 Q542.704 288.427 536.385 288.427 Q534.209 288.427 531.941 288.057 Q529.695 287.686 527.288 286.946 L527.288 282.246 Q529.371 283.381 531.593 283.936 Q533.816 284.492 536.292 284.492 Q540.297 284.492 542.635 282.385 Q544.973 280.279 544.973 276.668 Q544.973 273.057 542.635 270.95 Q540.297 268.844 536.292 268.844 Q534.417 268.844 532.542 269.26 Q530.691 269.677 528.746 270.557 L528.746 253.196 Z" fill="#000000" fill-rule="nonzero" fill-opacity="1" /><polyline clip-path="url(#clip070)" style="stroke:#3da44d; stroke-linecap:round; stroke-linejoin:round; stroke-width:4; stroke-opacity:1; fill:none" points="299.465,322.316 442.718,322.316 "/>
<path clip-path="url(#clip070)" d="M474.001 306.309 L474.001 313.67 L482.774 313.67 L482.774 316.98 L474.001 316.98 L474.001 331.054 Q474.001 334.225 474.858 335.128 Q475.737 336.031 478.399 336.031 L482.774 336.031 L482.774 339.596 L478.399 339.596 Q473.469 339.596 471.594 337.767 Q469.719 335.915 469.719 331.054 L469.719 316.98 L466.594 316.98 L466.594 313.67 L469.719 313.67 L469.719 306.309 L474.001 306.309 Z" fill="#000000" fill-rule="nonzero" fill-opacity="1" /><path clip-path="url(#clip070)" d="M488.932 318.068 L518.607 318.068 L518.607 321.957 L488.932 321.957 L488.932 318.068 M488.932 327.512 L518.607 327.512 L518.607 331.448 L488.932 331.448 L488.932 327.512 Z" fill="#000000" fill-rule="nonzero" fill-opacity="1" /><path clip-path="url(#clip070)" d="M529.51 335.661 L537.149 335.661 L537.149 309.295 L528.839 310.962 L528.839 306.702 L537.103 305.036 L541.779 305.036 L541.779 335.661 L549.417 335.661 L549.417 339.596 L529.51 339.596 L529.51 335.661 Z" fill="#000000" fill-rule="nonzero" fill-opacity="1" /><path clip-path="url(#clip070)" d="M568.862 308.114 Q565.251 308.114 563.422 311.679 Q561.616 315.221 561.616 322.35 Q561.616 329.457 563.422 333.022 Q565.251 336.563 568.862 336.563 Q572.496 336.563 574.302 333.022 Q576.13 329.457 576.13 322.35 Q576.13 315.221 574.302 311.679 Q572.496 308.114 568.862 308.114 M568.862 304.411 Q574.672 304.411 577.727 309.017 Q580.806 313.6 580.806 322.35 Q580.806 331.077 577.727 335.684 Q574.672 340.267 568.862 340.267 Q563.052 340.267 559.973 335.684 Q556.917 331.077 556.917 322.35 Q556.917 313.6 559.973 309.017 Q563.052 304.411 568.862 304.411 Z" fill="#000000" fill-rule="nonzero" fill-opacity="1" /></svg>
