<svg xmlns="http://www.w3.org/2000/svg" xmlns:xlink="http://www.w3.org/1999/xlink" width="600" height="400" viewBox="0 0 2400 1600">
<defs>
  <clipPath id="clip740">
    <rect x="0" y="0" width="2400" height="1600"></rect>
  </clipPath>
</defs>
<path clip-path="url(#clip740)" d="M0 1600 L2400 1600 L2400 8.88178e-14 L0 8.88178e-14  Z" fill="#ffffff" fill-rule="evenodd" fill-opacity="1"></path>
<defs>
  <clipPath id="clip741">
    <rect x="480" y="0" width="1681" height="1600"></rect>
  </clipPath>
</defs>
<path clip-path="url(#clip740)" d="M199.283 1486.45 L2352.76 1486.45 L2352.76 47.2441 L199.283 47.2441  Z" fill="#ffffff" fill-rule="evenodd" fill-opacity="1"></path>
<defs>
  <clipPath id="clip742">
    <rect x="199" y="47" width="2154" height="1440"></rect>
  </clipPath>
</defs>
<polyline clip-path="url(#clip742)" style="stroke:#000000; stroke-linecap:round; stroke-linejoin:round; stroke-width:2; stroke-opacity:0.1; fill:none" points="258.197,1486.45 258.197,47.2441 "></polyline>
<polyline clip-path="url(#clip742)" style="stroke:#000000; stroke-linecap:round; stroke-linejoin:round; stroke-width:2; stroke-opacity:0.1; fill:none" points="766.6,1486.45 766.6,47.2441 "></polyline>
<polyline clip-path="url(#clip742)" style="stroke:#000000; stroke-linecap:round; stroke-linejoin:round; stroke-width:2; stroke-opacity:0.1; fill:none" points="1275,1486.45 1275,47.2441 "></polyline>
<polyline clip-path="url(#clip742)" style="stroke:#000000; stroke-linecap:round; stroke-linejoin:round; stroke-width:2; stroke-opacity:0.1; fill:none" points="1783.41,1486.45 1783.41,47.2441 "></polyline>
<polyline clip-path="url(#clip742)" style="stroke:#000000; stroke-linecap:round; stroke-linejoin:round; stroke-width:2; stroke-opacity:0.1; fill:none" points="2291.81,1486.45 2291.81,47.2441 "></polyline>
<polyline clip-path="url(#clip740)" style="stroke:#000000; stroke-linecap:round; stroke-linejoin:round; stroke-width:4; stroke-opacity:1; fill:none" points="199.283,1486.45 2352.76,1486.45 "></polyline>
<polyline clip-path="url(#clip740)" style="stroke:#000000; stroke-linecap:round; stroke-linejoin:round; stroke-width:4; stroke-opacity:1; fill:none" points="258.197,1486.45 258.197,1467.55 "></polyline>
<polyline clip-path="url(#clip740)" style="stroke:#000000; stroke-linecap:round; stroke-linejoin:round; stroke-width:4; stroke-opacity:1; fill:none" points="766.6,1486.45 766.6,1467.55 "></polyline>
<polyline clip-path="url(#clip740)" style="stroke:#000000; stroke-linecap:round; stroke-linejoin:round; stroke-width:4; stroke-opacity:1; fill:none" points="1275,1486.45 1275,1467.55 "></polyline>
<polyline clip-path="url(#clip740)" style="stroke:#000000; stroke-linecap:round; stroke-linejoin:round; stroke-width:4; stroke-opacity:1; fill:none" points="1783.41,1486.45 1783.41,1467.55 "></polyline>
<polyline clip-path="url(#clip740)" style="stroke:#000000; stroke-linecap:round; stroke-linejoin:round; stroke-width:4; stroke-opacity:1; fill:none" points="2291.81,1486.45 2291.81,1467.55 "></polyline>
<path clip-path="url(#clip740)" d="M258.197 1517.37 Q254.586 1517.37 252.757 1520.93 Q250.952 1524.47 250.952 1531.6 Q250.952 1538.71 252.757 1542.27 Q254.586 1545.82 258.197 1545.82 Q261.831 1545.82 263.637 1542.27 Q265.465 1538.71 265.465 1531.6 Q265.465 1524.47 263.637 1520.93 Q261.831 1517.37 258.197 1517.37 M258.197 1513.66 Q264.007 1513.66 267.063 1518.27 Q270.141 1522.85 270.141 1531.6 Q270.141 1540.33 267.063 1544.94 Q264.007 1549.52 258.197 1549.52 Q252.387 1549.52 249.308 1544.94 Q246.253 1540.33 246.253 1531.6 Q246.253 1522.85 249.308 1518.27 Q252.387 1513.66 258.197 1513.66 Z" fill="#000000" fill-rule="nonzero" fill-opacity="1"></path><path clip-path="url(#clip740)" d="M730.292 1544.91 L746.612 1544.91 L746.612 1548.85 L724.667 1548.85 L724.667 1544.91 Q727.329 1542.16 731.913 1537.53 Q736.519 1532.88 737.7 1531.53 Q739.945 1529.01 740.825 1527.27 Q741.727 1525.51 741.727 1523.82 Q741.727 1521.07 739.783 1519.33 Q737.862 1517.6 734.76 1517.6 Q732.561 1517.6 730.107 1518.36 Q727.676 1519.13 724.899 1520.68 L724.899 1515.95 Q727.723 1514.82 730.176 1514.24 Q732.63 1513.66 734.667 1513.66 Q740.037 1513.66 743.232 1516.35 Q746.426 1519.03 746.426 1523.52 Q746.426 1525.65 745.616 1527.57 Q744.829 1529.47 742.723 1532.07 Q742.144 1532.74 739.042 1535.95 Q735.94 1539.15 730.292 1544.91 Z" fill="#000000" fill-rule="nonzero" fill-opacity="1"></path><path clip-path="url(#clip740)" d="M756.473 1514.29 L774.829 1514.29 L774.829 1518.22 L760.755 1518.22 L760.755 1526.7 Q761.773 1526.35 762.792 1526.19 Q763.81 1526 764.829 1526 Q770.616 1526 773.996 1529.17 Q777.375 1532.34 777.375 1537.76 Q777.375 1543.34 773.903 1546.44 Q770.431 1549.52 764.111 1549.52 Q761.936 1549.52 759.667 1549.15 Q757.422 1548.78 755.014 1548.04 L755.014 1543.34 Q757.098 1544.47 759.32 1545.03 Q761.542 1545.58 764.019 1545.58 Q768.023 1545.58 770.361 1543.48 Q772.699 1541.37 772.699 1537.76 Q772.699 1534.15 770.361 1532.04 Q768.023 1529.94 764.019 1529.94 Q762.144 1529.94 760.269 1530.35 Q758.417 1530.77 756.473 1531.65 L756.473 1514.29 Z" fill="#000000" fill-rule="nonzero" fill-opacity="1"></path><path clip-path="url(#clip740)" d="M796.588 1517.37 Q792.977 1517.37 791.148 1520.93 Q789.343 1524.47 789.343 1531.6 Q789.343 1538.71 791.148 1542.27 Q792.977 1545.82 796.588 1545.82 Q800.222 1545.82 802.028 1542.27 Q803.857 1538.71 803.857 1531.6 Q803.857 1524.47 802.028 1520.93 Q800.222 1517.37 796.588 1517.37 M796.588 1513.66 Q802.398 1513.66 805.454 1518.27 Q808.532 1522.85 808.532 1531.6 Q808.532 1540.33 805.454 1544.94 Q802.398 1549.52 796.588 1549.52 Q790.778 1549.52 787.699 1544.94 Q784.644 1540.33 784.644 1531.6 Q784.644 1522.85 787.699 1518.27 Q790.778 1513.66 796.588 1513.66 Z" fill="#000000" fill-rule="nonzero" fill-opacity="1"></path><path clip-path="url(#clip740)" d="M1234.62 1514.29 L1252.98 1514.29 L1252.98 1518.22 L1238.9 1518.22 L1238.9 1526.7 Q1239.92 1526.35 1240.94 1526.19 Q1241.96 1526 1242.98 1526 Q1248.76 1526 1252.14 1529.17 Q1255.52 1532.34 1255.52 1537.76 Q1255.52 1543.34 1252.05 1546.44 Q1248.58 1549.52 1242.26 1549.52 Q1240.08 1549.52 1237.82 1549.15 Q1235.57 1548.78 1233.16 1548.04 L1233.16 1543.34 Q1235.25 1544.47 1237.47 1545.03 Q1239.69 1545.58 1242.17 1545.58 Q1246.17 1545.58 1248.51 1543.48 Q1250.85 1541.37 1250.85 1537.76 Q1250.85 1534.15 1248.51 1532.04 Q1246.17 1529.94 1242.17 1529.94 Q1240.29 1529.94 1238.42 1530.35 Q1236.57 1530.77 1234.62 1531.65 L1234.62 1514.29 Z" fill="#000000" fill-rule="nonzero" fill-opacity="1"></path><path clip-path="url(#clip740)" d="M1274.74 1517.37 Q1271.13 1517.37 1269.3 1520.93 Q1267.49 1524.47 1267.49 1531.6 Q1267.49 1538.71 1269.3 1542.27 Q1271.13 1545.82 1274.74 1545.82 Q1278.37 1545.82 1280.18 1542.27 Q1282.01 1538.71 1282.01 1531.6 Q1282.01 1524.47 1280.18 1520.93 Q1278.37 1517.37 1274.74 1517.37 M1274.74 1513.66 Q1280.55 1513.66 1283.6 1518.27 Q1286.68 1522.85 1286.68 1531.6 Q1286.68 1540.33 1283.6 1544.94 Q1280.55 1549.52 1274.74 1549.52 Q1268.93 1549.52 1265.85 1544.94 Q1262.79 1540.33 1262.79 1531.6 Q1262.79 1522.85 1265.85 1518.27 Q1268.93 1513.66 1274.74 1513.66 Z" fill="#000000" fill-rule="nonzero" fill-opacity="1"></path><path clip-path="url(#clip740)" d="M1304.9 1517.37 Q1301.29 1517.37 1299.46 1520.93 Q1297.65 1524.47 1297.65 1531.6 Q1297.65 1538.71 1299.46 1542.27 Q1301.29 1545.82 1304.9 1545.82 Q1308.53 1545.82 1310.34 1542.27 Q1312.17 1538.71 1312.17 1531.6 Q1312.17 1524.47 1310.34 1520.93 Q1308.53 1517.37 1304.9 1517.37 M1304.9 1513.66 Q1310.71 1513.66 1313.76 1518.27 Q1316.84 1522.85 1316.84 1531.6 Q1316.84 1540.33 1313.76 1544.94 Q1310.71 1549.52 1304.9 1549.52 Q1299.09 1549.52 1296.01 1544.94 Q1292.95 1540.33 1292.95 1531.6 Q1292.95 1522.85 1296.01 1518.27 Q1299.09 1513.66 1304.9 1513.66 Z" fill="#000000" fill-rule="nonzero" fill-opacity="1"></path><path clip-path="url(#clip740)" d="M1741.68 1514.29 L1763.9 1514.29 L1763.9 1516.28 L1751.36 1548.85 L1746.47 1548.85 L1758.28 1518.22 L1741.68 1518.22 L1741.68 1514.29 Z" fill="#000000" fill-rule="nonzero" fill-opacity="1"></path><path clip-path="url(#clip740)" d="M1773.07 1514.29 L1791.43 1514.29 L1791.43 1518.22 L1777.35 1518.22 L1777.35 1526.7 Q1778.37 1526.35 1779.39 1526.19 Q1780.41 1526 1781.43 1526 Q1787.21 1526 1790.59 1529.17 Q1793.97 1532.34 1793.97 1537.76 Q1793.97 1543.34 1790.5 1546.44 Q1787.03 1549.52 1780.71 1549.52 Q1778.53 1549.52 1776.26 1549.15 Q1774.02 1548.78 1771.61 1548.04 L1771.61 1543.34 Q1773.7 1544.47 1775.92 1545.03 Q1778.14 1545.58 1780.62 1545.58 Q1784.62 1545.58 1786.96 1543.48 Q1789.3 1541.37 1789.3 1537.76 Q1789.3 1534.15 1786.96 1532.04 Q1784.62 1529.94 1780.62 1529.94 Q1778.74 1529.94 1776.87 1530.35 Q1775.01 1530.77 1773.07 1531.65 L1773.07 1514.29 Z" fill="#000000" fill-rule="nonzero" fill-opacity="1"></path><path clip-path="url(#clip740)" d="M1813.19 1517.37 Q1809.57 1517.37 1807.75 1520.93 Q1805.94 1524.47 1805.94 1531.6 Q1805.94 1538.71 1807.75 1542.27 Q1809.57 1545.82 1813.19 1545.82 Q1816.82 1545.82 1818.63 1542.27 Q1820.45 1538.71 1820.45 1531.6 Q1820.45 1524.47 1818.63 1520.93 Q1816.82 1517.37 1813.19 1517.37 M1813.19 1513.66 Q1819 1513.66 1822.05 1518.27 Q1825.13 1522.85 1825.13 1531.6 Q1825.13 1540.33 1822.05 1544.94 Q1819 1549.52 1813.19 1549.52 Q1807.38 1549.52 1804.3 1544.94 Q1801.24 1540.33 1801.24 1531.6 Q1801.24 1522.85 1804.3 1518.27 Q1807.38 1513.66 1813.19 1513.66 Z" fill="#000000" fill-rule="nonzero" fill-opacity="1"></path><path clip-path="url(#clip740)" d="M2236.33 1544.91 L2243.97 1544.91 L2243.97 1518.55 L2235.66 1520.21 L2235.66 1515.95 L2243.93 1514.29 L2248.6 1514.29 L2248.6 1544.91 L2256.24 1544.91 L2256.24 1548.85 L2236.33 1548.85 L2236.33 1544.91 Z" fill="#000000" fill-rule="nonzero" fill-opacity="1"></path><path clip-path="url(#clip740)" d="M2275.69 1517.37 Q2272.07 1517.37 2270.25 1520.93 Q2268.44 1524.47 2268.44 1531.6 Q2268.44 1538.71 2270.25 1542.27 Q2272.07 1545.82 2275.69 1545.82 Q2279.32 1545.82 2281.13 1542.27 Q2282.95 1538.71 2282.95 1531.6 Q2282.95 1524.47 2281.13 1520.93 Q2279.32 1517.37 2275.69 1517.37 M2275.69 1513.66 Q2281.5 1513.66 2284.55 1518.27 Q2287.63 1522.85 2287.63 1531.6 Q2287.63 1540.33 2284.55 1544.94 Q2281.5 1549.52 2275.69 1549.52 Q2269.88 1549.52 2266.8 1544.94 Q2263.74 1540.33 2263.74 1531.6 Q2263.74 1522.85 2266.8 1518.27 Q2269.88 1513.66 2275.69 1513.66 Z" fill="#000000" fill-rule="nonzero" fill-opacity="1"></path><path clip-path="url(#clip740)" d="M2305.85 1517.37 Q2302.24 1517.37 2300.41 1520.93 Q2298.6 1524.47 2298.6 1531.6 Q2298.6 1538.71 2300.41 1542.27 Q2302.24 1545.82 2305.85 1545.82 Q2309.48 1545.82 2311.29 1542.27 Q2313.12 1538.71 2313.12 1531.6 Q2313.12 1524.47 2311.29 1520.93 Q2309.48 1517.37 2305.85 1517.37 M2305.85 1513.66 Q2311.66 1513.66 2314.71 1518.27 Q2317.79 1522.85 2317.79 1531.6 Q2317.79 1540.33 2314.71 1544.94 Q2311.66 1549.52 2305.85 1549.52 Q2300.04 1549.52 2296.96 1544.94 Q2293.9 1540.33 2293.9 1531.6 Q2293.9 1522.85 2296.96 1518.27 Q2300.04 1513.66 2305.85 1513.66 Z" fill="#000000" fill-rule="nonzero" fill-opacity="1"></path><path clip-path="url(#clip740)" d="M2336.01 1517.37 Q2332.4 1517.37 2330.57 1520.93 Q2328.76 1524.47 2328.76 1531.6 Q2328.76 1538.71 2330.57 1542.27 Q2332.4 1545.82 2336.01 1545.82 Q2339.64 1545.82 2341.45 1542.27 Q2343.28 1538.71 2343.28 1531.6 Q2343.28 1524.47 2341.45 1520.93 Q2339.64 1517.37 2336.01 1517.37 M2336.01 1513.66 Q2341.82 1513.66 2344.88 1518.27 Q2347.95 1522.85 2347.95 1531.6 Q2347.95 1540.33 2344.88 1544.94 Q2341.82 1549.52 2336.01 1549.52 Q2330.2 1549.52 2327.12 1544.94 Q2324.07 1540.33 2324.07 1531.6 Q2324.07 1522.85 2327.12 1518.27 Q2330.2 1513.66 2336.01 1513.66 Z" fill="#000000" fill-rule="nonzero" fill-opacity="1"></path><polyline clip-path="url(#clip742)" style="stroke:#000000; stroke-linecap:round; stroke-linejoin:round; stroke-width:2; stroke-opacity:0.1; fill:none" points="199.283,1474.84 2352.76,1474.84 "></polyline>
<polyline clip-path="url(#clip742)" style="stroke:#000000; stroke-linecap:round; stroke-linejoin:round; stroke-width:2; stroke-opacity:0.1; fill:none" points="199.283,1128.12 2352.76,1128.12 "></polyline>
<polyline clip-path="url(#clip742)" style="stroke:#000000; stroke-linecap:round; stroke-linejoin:round; stroke-width:2; stroke-opacity:0.1; fill:none" points="199.283,781.408 2352.76,781.408 "></polyline>
<polyline clip-path="url(#clip742)" style="stroke:#000000; stroke-linecap:round; stroke-linejoin:round; stroke-width:2; stroke-opacity:0.1; fill:none" points="199.283,434.692 2352.76,434.692 "></polyline>
<polyline clip-path="url(#clip742)" style="stroke:#000000; stroke-linecap:round; stroke-linejoin:round; stroke-width:2; stroke-opacity:0.1; fill:none" points="199.283,87.9763 2352.76,87.9763 "></polyline>
<polyline clip-path="url(#clip740)" style="stroke:#000000; stroke-linecap:round; stroke-linejoin:round; stroke-width:4; stroke-opacity:1; fill:none" points="199.283,1486.45 199.283,47.2441 "></polyline>
<polyline clip-path="url(#clip740)" style="stroke:#000000; stroke-linecap:round; stroke-linejoin:round; stroke-width:4; stroke-opacity:1; fill:none" points="199.283,1474.84 218.181,1474.84 "></polyline>
<polyline clip-path="url(#clip740)" style="stroke:#000000; stroke-linecap:round; stroke-linejoin:round; stroke-width:4; stroke-opacity:1; fill:none" points="199.283,1128.12 218.181,1128.12 "></polyline>
<polyline clip-path="url(#clip740)" style="stroke:#000000; stroke-linecap:round; stroke-linejoin:round; stroke-width:4; stroke-opacity:1; fill:none" points="199.283,781.408 218.181,781.408 "></polyline>
<polyline clip-path="url(#clip740)" style="stroke:#000000; stroke-linecap:round; stroke-linejoin:round; stroke-width:4; stroke-opacity:1; fill:none" points="199.283,434.692 218.181,434.692 "></polyline>
<polyline clip-path="url(#clip740)" style="stroke:#000000; stroke-linecap:round; stroke-linejoin:round; stroke-width:4; stroke-opacity:1; fill:none" points="199.283,87.9763 218.181,87.9763 "></polyline>
<path clip-path="url(#clip740)" d="M151.339 1460.64 Q147.728 1460.64 145.899 1464.2 Q144.093 1467.74 144.093 1474.87 Q144.093 1481.98 145.899 1485.55 Q147.728 1489.09 151.339 1489.09 Q154.973 1489.09 156.779 1485.55 Q158.607 1481.98 158.607 1474.87 Q158.607 1467.74 156.779 1464.2 Q154.973 1460.64 151.339 1460.64 M151.339 1456.93 Q157.149 1456.93 160.205 1461.54 Q163.283 1466.12 163.283 1474.87 Q163.283 1483.6 160.205 1488.21 Q157.149 1492.79 151.339 1492.79 Q145.529 1492.79 142.45 1488.21 Q139.394 1483.6 139.394 1474.87 Q139.394 1466.12 142.45 1461.54 Q145.529 1456.93 151.339 1456.93 Z" fill="#000000" fill-rule="nonzero" fill-opacity="1"></path><path clip-path="url(#clip740)" d="M85.0429 1141.47 L101.362 1141.47 L101.362 1145.4 L79.4179 1145.4 L79.4179 1141.47 Q82.0799 1138.71 86.6632 1134.08 Q91.2697 1129.43 92.4502 1128.09 Q94.6956 1125.57 95.5752 1123.83 Q96.478 1122.07 96.478 1120.38 Q96.478 1117.63 94.5336 1115.89 Q92.6123 1114.15 89.5104 1114.15 Q87.3114 1114.15 84.8577 1114.92 Q82.4271 1115.68 79.6494 1117.23 L79.6494 1112.51 Q82.4734 1111.38 84.9271 1110.8 Q87.3808 1110.22 89.4178 1110.22 Q94.7882 1110.22 97.9826 1112.9 Q101.177 1115.59 101.177 1120.08 Q101.177 1122.21 100.367 1124.13 Q99.5798 1126.03 97.4734 1128.62 Q96.8947 1129.29 93.7928 1132.51 Q90.691 1135.7 85.0429 1141.47 Z" fill="#000000" fill-rule="nonzero" fill-opacity="1"></path><path clip-path="url(#clip740)" d="M111.223 1110.84 L129.58 1110.84 L129.58 1114.78 L115.506 1114.78 L115.506 1123.25 Q116.524 1122.9 117.543 1122.74 Q118.561 1122.56 119.58 1122.56 Q125.367 1122.56 128.746 1125.73 Q132.126 1128.9 132.126 1134.32 Q132.126 1139.89 128.654 1143 Q125.182 1146.08 118.862 1146.08 Q116.686 1146.08 114.418 1145.7 Q112.172 1145.33 109.765 1144.59 L109.765 1139.89 Q111.848 1141.03 114.07 1141.58 Q116.293 1142.14 118.77 1142.14 Q122.774 1142.14 125.112 1140.03 Q127.45 1137.93 127.45 1134.32 Q127.45 1130.7 125.112 1128.6 Q122.774 1126.49 118.77 1126.49 Q116.895 1126.49 115.02 1126.91 Q113.168 1127.33 111.223 1128.2 L111.223 1110.84 Z" fill="#000000" fill-rule="nonzero" fill-opacity="1"></path><path clip-path="url(#clip740)" d="M151.339 1113.92 Q147.728 1113.92 145.899 1117.49 Q144.093 1121.03 144.093 1128.16 Q144.093 1135.27 145.899 1138.83 Q147.728 1142.37 151.339 1142.37 Q154.973 1142.37 156.779 1138.83 Q158.607 1135.27 158.607 1128.16 Q158.607 1121.03 156.779 1117.49 Q154.973 1113.92 151.339 1113.92 M151.339 1110.22 Q157.149 1110.22 160.205 1114.83 Q163.283 1119.41 163.283 1128.16 Q163.283 1136.89 160.205 1141.49 Q157.149 1146.08 151.339 1146.08 Q145.529 1146.08 142.45 1141.49 Q139.394 1136.89 139.394 1128.16 Q139.394 1119.41 142.45 1114.83 Q145.529 1110.22 151.339 1110.22 Z" fill="#000000" fill-rule="nonzero" fill-opacity="1"></path><path clip-path="url(#clip740)" d="M81.0614 764.128 L99.4178 764.128 L99.4178 768.063 L85.3438 768.063 L85.3438 776.535 Q86.3623 776.188 87.3808 776.026 Q88.3993 775.841 89.4178 775.841 Q95.2049 775.841 98.5845 779.012 Q101.964 782.184 101.964 787.6 Q101.964 793.179 98.4919 796.281 Q95.0197 799.359 88.7003 799.359 Q86.5243 799.359 84.2558 798.989 Q82.0105 798.619 79.6031 797.878 L79.6031 793.179 Q81.6864 794.313 83.9086 794.869 Q86.1308 795.424 88.6077 795.424 Q92.6123 795.424 94.9502 793.318 Q97.2882 791.211 97.2882 787.6 Q97.2882 783.989 94.9502 781.883 Q92.6123 779.776 88.6077 779.776 Q86.7327 779.776 84.8577 780.193 Q83.0058 780.609 81.0614 781.489 L81.0614 764.128 Z" fill="#000000" fill-rule="nonzero" fill-opacity="1"></path><path clip-path="url(#clip740)" d="M121.177 767.207 Q117.566 767.207 115.737 770.772 Q113.932 774.313 113.932 781.443 Q113.932 788.549 115.737 792.114 Q117.566 795.656 121.177 795.656 Q124.811 795.656 126.617 792.114 Q128.445 788.549 128.445 781.443 Q128.445 774.313 126.617 770.772 Q124.811 767.207 121.177 767.207 M121.177 763.503 Q126.987 763.503 130.043 768.11 Q133.121 772.693 133.121 781.443 Q133.121 790.17 130.043 794.776 Q126.987 799.359 121.177 799.359 Q115.367 799.359 112.288 794.776 Q109.233 790.17 109.233 781.443 Q109.233 772.693 112.288 768.11 Q115.367 763.503 121.177 763.503 Z" fill="#000000" fill-rule="nonzero" fill-opacity="1"></path><path clip-path="url(#clip740)" d="M151.339 767.207 Q147.728 767.207 145.899 770.772 Q144.093 774.313 144.093 781.443 Q144.093 788.549 145.899 792.114 Q147.728 795.656 151.339 795.656 Q154.973 795.656 156.779 792.114 Q158.607 788.549 158.607 781.443 Q158.607 774.313 156.779 770.772 Q154.973 767.207 151.339 767.207 M151.339 763.503 Q157.149 763.503 160.205 768.11 Q163.283 772.693 163.283 781.443 Q163.283 790.17 160.205 794.776 Q157.149 799.359 151.339 799.359 Q145.529 799.359 142.45 794.776 Q139.394 790.17 139.394 781.443 Q139.394 772.693 142.45 768.11 Q145.529 763.503 151.339 763.503 Z" fill="#000000" fill-rule="nonzero" fill-opacity="1"></path><path clip-path="url(#clip740)" d="M79.8346 417.412 L102.057 417.412 L102.057 419.403 L89.5104 451.972 L84.6262 451.972 L96.4317 421.347 L79.8346 421.347 L79.8346 417.412 Z" fill="#000000" fill-rule="nonzero" fill-opacity="1"></path><path clip-path="url(#clip740)" d="M111.223 417.412 L129.58 417.412 L129.58 421.347 L115.506 421.347 L115.506 429.82 Q116.524 429.472 117.543 429.31 Q118.561 429.125 119.58 429.125 Q125.367 429.125 128.746 432.296 Q132.126 435.468 132.126 440.884 Q132.126 446.463 128.654 449.565 Q125.182 452.643 118.862 452.643 Q116.686 452.643 114.418 452.273 Q112.172 451.903 109.765 451.162 L109.765 446.463 Q111.848 447.597 114.07 448.153 Q116.293 448.708 118.77 448.708 Q122.774 448.708 125.112 446.602 Q127.45 444.495 127.45 440.884 Q127.45 437.273 125.112 435.167 Q122.774 433.06 118.77 433.06 Q116.895 433.06 115.02 433.477 Q113.168 433.894 111.223 434.773 L111.223 417.412 Z" fill="#000000" fill-rule="nonzero" fill-opacity="1"></path><path clip-path="url(#clip740)" d="M151.339 420.491 Q147.728 420.491 145.899 424.056 Q144.093 427.597 144.093 434.727 Q144.093 441.833 145.899 445.398 Q147.728 448.94 151.339 448.94 Q154.973 448.94 156.779 445.398 Q158.607 441.833 158.607 434.727 Q158.607 427.597 156.779 424.056 Q154.973 420.491 151.339 420.491 M151.339 416.787 Q157.149 416.787 160.205 421.394 Q163.283 425.977 163.283 434.727 Q163.283 443.454 160.205 448.06 Q157.149 452.643 151.339 452.643 Q145.529 452.643 142.45 448.06 Q139.394 443.454 139.394 434.727 Q139.394 425.977 142.45 421.394 Q145.529 416.787 151.339 416.787 Z" fill="#000000" fill-rule="nonzero" fill-opacity="1"></path><path clip-path="url(#clip740)" d="M51.6634 101.321 L59.3023 101.321 L59.3023 74.9555 L50.9921 76.6222 L50.9921 72.3629 L59.256 70.6963 L63.9319 70.6963 L63.9319 101.321 L71.5707 101.321 L71.5707 105.256 L51.6634 105.256 L51.6634 101.321 Z" fill="#000000" fill-rule="nonzero" fill-opacity="1"></path><path clip-path="url(#clip740)" d="M91.0151 73.775 Q87.404 73.775 85.5753 77.3398 Q83.7697 80.8814 83.7697 88.011 Q83.7697 95.1174 85.5753 98.6822 Q87.404 102.224 91.0151 102.224 Q94.6493 102.224 96.4548 98.6822 Q98.2835 95.1174 98.2835 88.011 Q98.2835 80.8814 96.4548 77.3398 Q94.6493 73.775 91.0151 73.775 M91.0151 70.0713 Q96.8252 70.0713 99.8808 74.6777 Q102.959 79.261 102.959 88.011 Q102.959 96.7378 99.8808 101.344 Q96.8252 105.928 91.0151 105.928 Q85.2049 105.928 82.1262 101.344 Q79.0707 96.7378 79.0707 88.011 Q79.0707 79.261 82.1262 74.6777 Q85.2049 70.0713 91.0151 70.0713 Z" fill="#000000" fill-rule="nonzero" fill-opacity="1"></path><path clip-path="url(#clip740)" d="M121.177 73.775 Q117.566 73.775 115.737 77.3398 Q113.932 80.8814 113.932 88.011 Q113.932 95.1174 115.737 98.6822 Q117.566 102.224 121.177 102.224 Q124.811 102.224 126.617 98.6822 Q128.445 95.1174 128.445 88.011 Q128.445 80.8814 126.617 77.3398 Q124.811 73.775 121.177 73.775 M121.177 70.0713 Q126.987 70.0713 130.043 74.6777 Q133.121 79.261 133.121 88.011 Q133.121 96.7378 130.043 101.344 Q126.987 105.928 121.177 105.928 Q115.367 105.928 112.288 101.344 Q109.233 96.7378 109.233 88.011 Q109.233 79.261 112.288 74.6777 Q115.367 70.0713 121.177 70.0713 Z" fill="#000000" fill-rule="nonzero" fill-opacity="1"></path><path clip-path="url(#clip740)" d="M151.339 73.775 Q147.728 73.775 145.899 77.3398 Q144.093 80.8814 144.093 88.011 Q144.093 95.1174 145.899 98.6822 Q147.728 102.224 151.339 102.224 Q154.973 102.224 156.779 98.6822 Q158.607 95.1174 158.607 88.011 Q158.607 80.8814 156.779 77.3398 Q154.973 73.775 151.339 73.775 M151.339 70.0713 Q157.149 70.0713 160.205 74.6777 Q163.283 79.261 163.283 88.011 Q163.283 96.7378 160.205 101.344 Q157.149 105.928 151.339 105.928 Q145.529 105.928 142.45 101.344 Q139.394 96.7378 139.394 88.011 Q139.394 79.261 142.45 74.6777 Q145.529 70.0713 151.339 70.0713 Z" fill="#000000" fill-rule="nonzero" fill-opacity="1"></path><polyline clip-path="url(#clip742)" style="stroke:#009af9; stroke-linecap:round; stroke-linejoin:round; stroke-width:4; stroke-opacity:1; fill:none" points="260.231,802.211 262.264,1123.96 264.298,864.62 266.331,971.408 268.365,904.839 270.399,847.978 272.432,792.503 274.466,850.751 276.499,1014.4 278.533,874.328 280.567,831.335 282.6,882.649 284.634,994.985 286.667,1087.9 288.701,831.335 290.735,841.043 292.768,911.773 294.802,931.189 296.836,1125.35 298.869,932.576 300.903,1097.61 302.936,1058.78 304.97,879.875 307.004,936.737 309.037,881.262 311.071,892.357 313.104,795.277 315.138,996.372 317.172,900.678 319.205,889.583 321.239,929.802 323.272,885.423 325.306,834.109 327.34,927.029 329.373,942.284 331.407,806.372 333.441,814.693 335.474,986.664 337.508,989.438 339.541,1054.62 341.575,1004.69 343.609,1033.82 345.642,1118.42 347.676,796.664 349.709,781.408 351.743,834.109 353.777,872.941 355.81,976.956 357.844,945.058 359.878,957.54 361.911,963.087 363.945,1104.55 365.978,1107.32 368.012,1078.2 370.046,1123.96 372.079,897.905 374.113,823.014 376.146,846.591 378.18,918.708 380.214,877.102 382.247,989.438 384.281,953.379 386.314,1104.55 388.348,1054.62 390.382,997.759 392.415,990.824 394.449,852.138 396.483,854.912 398.516,1087.9 400.55,781.408 402.583,885.423 404.617,1071.26 406.651,1057.39 408.684,831.335 410.718,824.401 412.751,1123.96 414.785,1004.69 416.819,946.445 418.852,1035.2 420.886,1058.78 422.919,1104.55 424.953,791.116 426.987,1089.29 429.02,970.021 431.054,921.481 433.088,1086.52 435.121,1019.95 437.155,1035.2 439.188,888.197 441.222,910.386 443.256,831.335 445.289,852.138 447.323,929.802 449.356,850.751 451.39,1040.75 453.424,1017.17 455.457,1022.72 457.491,910.386 459.524,810.532 461.558,1123.96 463.592,868.78 465.625,994.985 467.659,781.408 469.693,1057.39 471.726,997.759 473.76,860.459 475.793,846.591 477.827,981.116 479.861,1010.24 481.894,1126.74 483.928,983.89 485.961,853.525 487.995,875.715 490.029,896.518 492.062,853.525 494.096,938.124 496.129,989.438 498.163,1076.81 500.197,1071.26 502.23,1031.04 504.264,1121.19 506.298,1001.92 508.331,1026.88 510.365,1065.72 512.398,927.029 514.432,1108.71 516.466,821.627 518.499,1026.88 520.533,983.89 522.566,946.445 524.6,795.277 526.634,902.065 528.667,809.145 530.701,1028.27 532.734,861.846 534.768,875.715 536.802,814.693 538.835,839.656 540.869,814.693 542.903,1104.55 544.936,1035.2 546.97,1117.03 549.003,981.116 551.037,1074.04 553.071,807.758 555.104,1107.32 557.138,1046.3 559.171,796.664 561.205,853.525 563.239,938.124 565.272,861.846 567.306,904.839 569.34,921.481 571.373,861.846 573.407,1067.1 575.44,1096.23 577.474,1121.19 579.508,997.759 581.541,890.97 583.575,1080.97 585.608,953.379 587.642,904.839 589.676,932.576 591.709,1004.69 593.743,802.211 595.776,802.211 597.81,1122.58 599.844,861.846 601.877,946.445 603.911,1047.69 605.945,1033.82 607.978,938.124 610.012,816.08 612.045,847.978 614.079,890.97 616.113,860.459 618.146,950.605 620.18,1074.04 622.213,964.474 624.247,1078.2 626.281,1001.92 628.314,847.978 630.348,895.131 632.381,1054.62 634.415,886.81 636.449,936.737 638.482,1085.13 640.516,968.635 642.55,803.598 644.583,938.124 646.617,986.664 648.65,829.948 650.684,999.146 652.718,920.094 654.751,811.919 656.785,861.846 658.818,927.029 660.852,1104.55 662.886,922.868 664.919,1104.55 666.953,897.905 668.986,983.89 671.02,935.35 673.054,947.832 675.087,890.97 677.121,872.941 679.155,1003.31 681.188,796.664 683.222,1011.63 685.255,945.058 687.289,1096.23 689.323,1047.69 691.356,1071.26 693.39,1014.4 695.423,1015.79 697.457,1093.45 699.491,1104.55 701.524,806.372 703.558,1011.63 705.591,1085.13 707.625,847.978 709.659,886.81 711.692,795.277 713.726,850.751 715.76,942.284 717.793,817.467 719.827,983.89 721.86,809.145 723.894,1092.07 725.928,1065.72 727.961,929.802 729.995,927.029 732.028,864.62 734.062,895.131 736.096,811.919 738.129,978.343 740.163,841.043 742.196,817.467 744.23,899.291 746.264,792.503 748.297,997.759 750.331,953.379 752.365,1033.82 754.398,859.072 756.432,920.094 758.465,803.598 760.499,1086.52 762.533,1031.04 764.566,1123.96 766.6,971.408 768.633,626.079 770.667,680.167 772.701,469.364 774.734,540.094 776.768,774.474 778.802,495.714 780.835,505.422 782.869,680.167 784.902,573.379 786.936,573.379 788.97,540.094 791.003,646.882 793.037,616.371 795.07,540.094 797.104,657.977 799.138,540.094 801.171,540.094 803.205,698.196 805.238,616.371 807.272,461.043 809.306,495.714 811.339,540.094 813.373,469.364 815.407,696.809 817.44,698.196 819.474,540.094 821.507,646.882 823.541,630.24 825.575,720.386 827.608,540.094 829.642,580.313 831.675,573.379 833.709,680.167 835.743,630.24 837.776,437.466 839.81,551.189 841.843,474.911 843.877,476.298 845.911,540.094 847.944,741.189 849.978,540.094 852.012,774.474 854.045,469.364 856.079,476.298 858.112,759.218 860.146,573.379 862.18,571.992 864.213,476.298 866.247,553.962 868.28,680.167 870.314,472.137 872.348,584.473 874.381,504.035 876.415,759.218 878.448,540.094 880.482,651.043 882.516,540.094 884.549,738.415 886.583,696.809 888.617,573.379 890.65,540.094 892.684,585.86 894.717,651.043 896.751,696.809 898.785,738.415 900.818,737.028 902.852,580.313 904.885,738.415 906.919,680.167 908.953,535.933 910.986,646.882 913.02,753.671 915.053,476.298 917.087,472.137 919.121,573.379 921.154,540.094 923.188,738.415 925.222,540.094 927.255,752.284 929.289,753.671 931.322,461.043 933.356,630.24 935.39,540.094 937.423,723.16 939.457,476.298 941.49,616.371 943.524,657.977 945.558,540.094 947.591,685.714 949.625,540.094 951.658,573.379 953.692,680.167 955.726,692.649 957.759,540.094 959.793,476.298 961.827,576.152 963.86,469.364 965.894,486.006 967.927,738.415 969.961,540.094 971.995,573.379 974.028,461.043 976.062,540.094 978.095,540.094 980.129,540.094 982.163,738.415 984.196,641.335 986.23,689.875 988.264,530.386 990.297,469.364 992.331,657.977 994.364,573.379 996.398,689.875 998.432,763.379 1000.47,698.196 1002.5,692.649 1004.53,473.524 1006.57,562.284 1008.6,495.714 1010.63,680.167 1012.67,472.137 1014.7,638.561 1016.73,505.422 1018.77,535.933 1020.8,657.977 1022.83,651.043 1024.87,540.094 1026.9,738.415 1028.94,540.094 1030.97,692.649 1033,476.298 1035.04,752.284 1037.07,437.466 1039.1,680.167 1041.14,495.714 1043.17,571.992 1045.2,540.094 1047.24,738.415 1049.27,551.189 1051.31,706.517 1053.34,606.663 1055.37,495.714 1057.41,540.094 1059.44,467.977 1061.47,540.094 1063.51,738.415 1065.54,491.554 1067.57,738.415 1069.61,706.517 1071.64,738.415 1073.68,753.671 1075.71,738.415 1077.74,706.517 1079.78,540.094 1081.81,540.094 1083.84,738.415 1085.88,573.379 1087.91,778.634 1089.94,638.561 1091.98,540.094 1094.01,657.977 1096.04,540.094 1098.08,663.525 1100.11,599.729 1102.15,469.364 1104.18,759.218 1106.21,692.649 1108.25,666.298 1110.28,738.415 1112.31,437.466 1114.35,438.853 1116.38,467.977 1118.41,698.196 1120.45,495.714 1122.48,577.539 1124.52,540.094 1126.55,667.685 1128.58,540.094 1130.62,437.466 1132.65,461.043 1134.68,605.276 1136.72,533.159 1138.75,652.43 1140.78,540.094 1142.82,738.415 1144.85,573.379 1146.89,638.561 1148.92,461.043 1150.95,438.853 1152.99,738.415 1155.02,540.094 1157.05,617.758 1159.09,630.24 1161.12,738.415 1163.15,540.094 1165.19,667.685 1167.22,563.67 1169.25,657.977 1171.29,646.882 1173.32,680.167 1175.36,461.043 1177.39,495.714 1179.42,540.094 1181.46,540.094 1183.49,738.415 1185.52,573.379 1187.56,596.955 1189.59,731.481 1191.62,737.028 1193.66,540.094 1195.69,680.167 1197.73,520.678 1199.76,573.379 1201.79,540.094 1203.83,738.415 1205.86,472.137 1207.89,616.371 1209.93,540.094 1211.96,537.32 1213.99,533.159 1216.03,540.094 1218.06,657.977 1220.1,630.24 1222.13,738.415 1224.16,469.364 1226.2,573.379 1228.23,671.846 1230.26,577.539 1232.3,454.108 1234.33,738.415 1236.36,469.364 1238.4,774.474 1240.43,698.196 1242.46,452.721 1244.5,540.094 1246.53,759.218 1248.57,540.094 1250.6,472.137 1252.63,616.371 1254.67,540.094 1256.7,638.561 1258.73,659.364 1260.77,706.517 1262.8,548.415 1264.83,678.78 1266.87,612.211 1268.9,671.846 1270.94,476.298 1272.97,540.094 1275,476.298 1277.04,395.86 1279.07,369.51 1281.1,397.247 1283.14,124.035 1285.17,376.444 1287.2,158.706 1289.24,246.079 1291.27,298.78 1293.31,121.261 1295.34,155.933 1297.37,183.67 1299.41,160.093 1301.44,194.765 1303.47,400.021 1305.51,264.108 1307.54,325.13 1309.57,325.13 1311.61,101.845 1313.64,411.115 1315.67,322.356 1317.71,160.093 1319.74,101.845 1321.78,283.524 1323.81,179.509 1325.84,381.991 1327.88,404.181 1329.91,210.02 1331.94,157.319 1333.98,365.349 1336.01,348.707 1338.04,375.057 1340.08,294.619 1342.11,345.933 1344.15,182.283 1346.18,426.371 1348.21,215.568 1350.25,333.451 1352.28,427.758 1354.31,189.217 1356.35,268.269 1358.38,393.086 1360.41,427.758 1362.45,222.502 1364.48,87.9763 1366.52,301.553 1368.55,139.29 1370.58,104.619 1372.62,194.765 1374.65,332.064 1376.68,412.502 1378.72,259.947 1380.75,380.604 1382.78,180.896 1384.82,254.4 1386.85,257.174 1388.88,372.283 1390.92,87.9763 1392.95,204.473 1394.99,329.291 1397.02,225.276 1399.05,111.553 1401.09,247.466 1403.12,277.977 1405.15,261.334 1407.19,272.429 1409.22,118.487 1411.25,97.6843 1413.29,255.787 1415.32,204.473 1417.36,197.538 1419.39,169.801 1421.42,289.071 1423.46,250.239 1425.49,92.1369 1427.52,162.867 1429.56,370.896 1431.59,247.466 1433.62,133.743 1435.66,187.83 1437.69,284.911 1439.73,258.56 1441.76,246.079 1443.79,99.0712 1445.83,189.217 1447.86,293.232 1449.89,132.356 1451.93,136.517 1453.96,173.962 1455.99,189.217 1458.03,169.801 1460.06,373.67 1462.1,366.736 1464.13,352.867 1466.16,311.261 1468.2,416.663 1470.23,315.422 1472.26,90.75 1474.3,233.597 1476.33,409.729 1478.36,319.582 1480.4,230.823 1482.43,258.56 1484.46,372.283 1486.5,375.057 1488.53,214.181 1490.57,197.538 1492.6,326.517 1494.63,336.225 1496.67,118.487 1498.7,257.174 1500.73,139.29 1502.77,210.02 1504.8,312.648 1506.83,327.904 1508.87,158.706 1510.9,225.276 1512.94,182.283 1514.97,334.838 1517,119.874 1519.04,336.225 1521.07,182.283 1523.1,234.984 1525.14,161.48 1527.17,345.933 1529.2,319.582 1531.24,124.035 1533.27,415.276 1535.31,422.21 1537.34,398.634 1539.37,247.466 1541.41,262.721 1543.44,250.239 1545.47,264.108 1547.51,175.349 1549.54,190.604 1551.57,210.02 1553.61,272.429 1555.64,394.473 1557.67,247.466 1559.71,193.378 1561.74,142.064 1563.78,132.356 1565.81,142.064 1567.84,363.962 1569.88,433.305 1571.91,276.59 1573.94,254.4 1575.98,189.217 1578.01,323.743 1580.04,211.407 1582.08,277.977 1584.11,419.437 1586.15,167.027 1588.18,128.195 1590.21,183.67 1592.25,366.736 1594.28,283.524 1596.31,189.217 1598.35,97.6843 1600.38,411.115 1602.41,395.86 1604.45,237.758 1606.48,348.707 1608.52,214.181 1610.55,265.495 1612.58,296.006 1614.62,322.356 1616.65,257.174 1618.68,312.648 1620.72,197.538 1622.75,229.436 1624.78,219.728 1626.82,340.385 1628.85,406.955 1630.88,332.064 1632.92,158.706 1634.95,221.115 1636.99,344.546 1639.02,204.473 1641.05,261.334 1643.09,304.327 1645.12,305.714 1647.15,100.458 1649.19,151.772 1651.22,183.67 1653.25,415.276 1655.29,319.582 1657.32,330.677 1659.36,172.575 1661.39,293.232 1663.42,429.145 1665.46,187.83 1667.49,297.393 1669.52,1300.1 1671.56,135.13 1673.59,183.67 1675.62,137.903 1677.66,232.21 1679.69,99.0712 1681.73,162.867 1683.76,104.619 1685.79,168.414 1687.83,107.392 1689.86,352.867 1691.89,423.597 1693.93,100.458 1695.96,128.195 1697.99,431.918 1700.03,229.436 1702.06,366.736 1704.09,261.334 1706.13,343.159 1708.16,297.393 1710.2,137.903 1712.23,176.736 1714.26,140.677 1716.3,205.86 1718.33,230.823 1720.36,354.254 1722.4,110.166 1724.43,283.524 1726.46,290.458 1728.5,167.027 1730.53,126.808 1732.57,373.67 1734.6,290.458 1736.63,135.13 1738.67,355.641 1740.7,296.006 1742.73,314.035 1744.77,296.006 1746.8,336.225 1748.83,164.254 1750.87,284.911 1752.9,400.021 1754.94,391.699 1756.97,197.538 1759,153.159 1761.04,203.086 1763.07,408.342 1765.1,336.225 1767.14,395.86 1769.17,193.378 1771.2,261.334 1773.24,93.5237 1775.27,189.217 1777.3,175.349 1779.34,426.371 1781.37,240.531 1783.41,341.772 1785.44,1330.61 1787.47,1330.61 1789.51,1191.92 1791.54,581.7 1793.57,1330.61 1795.61,1330.61 1797.64,1445.72 1799.67,455.495 1801.71,1330.61 1803.74,1330.61 1805.78,1330.61 1807.81,1191.92 1809.84,1330.61 1811.88,1191.92 1813.91,1365.28 1815.94,1330.61 1817.98,1330.61 1820.01,1191.92 1822.04,1191.92 1824.08,455.495 1826.11,1330.61 1828.15,1330.61 1830.18,1330.61 1832.21,1365.28 1834.25,1330.61 1836.28,1297.32 1838.31,1330.61 1840.35,581.7 1842.38,581.7 1844.41,1191.92 1846.45,1330.61 1848.48,552.576 1850.51,1297.32 1852.55,1191.92 1854.58,1191.92 1856.62,1330.61 1858.65,1330.61 1860.68,1330.61 1862.72,1330.61 1864.75,1247.39 1866.78,1330.61 1868.82,1297.32 1870.85,1330.61 1872.88,1330.61 1874.92,1191.92 1876.95,1330.61 1878.99,1330.61 1881.02,1191.92 1883.05,1330.61 1885.09,1330.61 1887.12,1330.61 1889.15,1330.61 1891.19,1330.61 1893.22,1191.92 1895.25,1330.61 1897.29,1191.92 1899.32,1191.92 1901.36,1247.39 1903.39,1330.61 1905.42,455.495 1907.46,1330.61 1909.49,1191.92 1911.52,1297.32 1913.56,1330.61 1915.59,1191.92 1917.62,1191.92 1919.66,1330.61 1921.69,1330.61 1923.72,1297.32 1925.76,1330.61 1927.79,1330.61 1929.83,581.7 1931.86,1330.61 1933.89,1191.92 1935.93,1330.61 1937.96,94.9106 1939.99,1191.92 1942.03,1191.92 1944.06,455.495 1946.09,1365.28 1948.13,1330.61 1950.16,1330.61 1952.2,1330.61 1954.23,1330.61 1956.26,1330.61 1958.3,1330.61 1960.33,1191.92 1962.36,1330.61 1964.4,1330.61 1966.43,1191.92 1968.46,1191.92 1970.5,1191.92 1972.53,1330.61 1974.57,1330.61 1976.6,1191.92 1978.63,1330.61 1980.67,653.817 1982.7,1330.61 1984.73,1297.32 1986.77,1330.61 1988.8,1330.61 1990.83,1330.61 1992.87,1330.61 1994.9,1191.92 1996.93,250.239 1998.97,1445.72 2001,1330.61 2003.04,1330.61 2005.07,581.7 2007.1,455.495 2009.14,1297.32 2011.17,1191.92 2013.2,1330.61 2015.24,1330.61 2017.27,1191.92 2019.3,1191.92 2021.34,1191.92 2023.37,1191.92 2025.41,1330.61 2027.44,1330.61 2029.47,1330.61 2031.51,250.239 2033.54,1191.92 2035.57,377.831 2037.61,1247.39 2039.64,1191.92 2041.67,1247.39 2043.71,1191.92 2045.74,1393.01 2047.78,1191.92 2049.81,1330.61 2051.84,1191.92 2053.88,1330.61 2055.91,1330.61 2057.94,1191.92 2059.98,1445.72 2062.01,1191.92 2064.04,1445.72 2066.08,1330.61 2068.11,1330.61 2070.14,1191.92 2072.18,1445.72 2074.21,1330.61 2076.25,1330.61 2078.28,1330.61 2080.31,1330.61 2082.35,1191.92 2084.38,1330.61 2086.41,1330.61 2088.45,1191.92 2090.48,1330.61 2092.51,1330.61 2094.55,1330.61 2096.58,1330.61 2098.62,1445.72 2100.65,1191.92 2102.68,1330.61 2104.72,1330.61 2106.75,1330.61 2108.78,1330.61 2110.82,1330.61 2112.85,1191.92 2114.88,1330.61 2116.92,581.7 2118.95,1191.92 2120.99,1330.61 2123.02,1297.32 2125.05,1330.61 2127.09,1330.61 2129.12,1445.72 2131.15,1191.92 2133.19,1445.72 2135.22,1297.32 2137.25,250.239 2139.29,1330.61 2141.32,1191.92 2143.35,1330.61 2145.39,1365.28 2147.42,1330.61 2149.46,1330.61 2151.49,1330.61 2153.52,1191.92 2155.56,1330.61 2157.59,1043.53 2159.62,1330.61 2161.66,1365.28 2163.69,1297.32 2165.72,1330.61 2167.76,1330.61 2169.79,1330.61 2171.83,1330.61 2173.86,455.495 2175.89,1191.92 2177.93,1330.61 2179.96,1330.61 2181.99,1330.61 2184.03,1330.61 2186.06,1191.92 2188.09,1191.92 2190.13,1191.92 2192.16,1330.61 2194.2,1191.92 2196.23,1330.61 2198.26,1330.61 2200.3,1330.61 2202.33,1330.61 2204.36,1191.92 2206.4,1330.61 2208.43,1330.61 2210.46,1330.61 2212.5,1330.61 2214.53,1297.32 2216.56,1330.61 2218.6,1330.61 2220.63,1330.61 2222.67,581.7 2224.7,455.495 2226.73,1365.28 2228.77,1330.61 2230.8,1330.61 2232.83,581.7 2234.87,1330.61 2236.9,1297.32 2238.93,1445.72 2240.97,1191.92 2243,1330.61 2245.04,1330.61 2247.07,455.495 2249.1,1330.61 2251.14,1330.61 2253.17,1330.61 2255.2,1330.61 2257.24,1330.61 2259.27,1330.61 2261.3,1330.61 2263.34,1330.61 2265.37,1445.72 2267.41,1191.92 2269.44,1297.32 2271.47,1445.72 2273.51,455.495 2275.54,1445.72 2277.57,1191.92 2279.61,1330.61 2281.64,455.495 2283.67,1445.72 2285.71,1330.61 2287.74,1330.61 2289.77,1330.61 2291.81,1445.72 "></polyline>
<path clip-path="url(#clip740)" d="M271.066 198.898 L538.843 198.898 L538.843 95.2176 L271.066 95.2176  Z" fill="#ffffff" fill-rule="evenodd" fill-opacity="1"></path>
<polyline clip-path="url(#clip740)" style="stroke:#000000; stroke-linecap:round; stroke-linejoin:round; stroke-width:4; stroke-opacity:1; fill:none" points="271.066,198.898 538.843,198.898 538.843,95.2176 271.066,95.2176 271.066,198.898 "></polyline>
<polyline clip-path="url(#clip740)" style="stroke:#009af9; stroke-linecap:round; stroke-linejoin:round; stroke-width:4; stroke-opacity:1; fill:none" points="294.993,147.058 438.558,147.058 "></polyline>
<path clip-path="url(#clip740)" d="M476.328 166.745 Q474.522 171.375 472.809 172.787 Q471.096 174.199 468.226 174.199 L464.823 174.199 L464.823 170.634 L467.323 170.634 Q469.083 170.634 470.055 169.8 Q471.027 168.967 472.208 165.865 L472.971 163.921 L462.485 138.412 L466.999 138.412 L475.101 158.689 L483.203 138.412 L487.717 138.412 L476.328 166.745 Z" fill="#000000" fill-rule="nonzero" fill-opacity="1"></path><path clip-path="url(#clip740)" d="M495.008 160.402 L502.647 160.402 L502.647 134.037 L494.337 135.703 L494.337 131.444 L502.601 129.778 L507.277 129.778 L507.277 160.402 L514.916 160.402 L514.916 164.338 L495.008 164.338 L495.008 160.402 Z" fill="#000000" fill-rule="nonzero" fill-opacity="1"></path></svg>