<svg xmlns="http://www.w3.org/2000/svg" xmlns:xlink="http://www.w3.org/1999/xlink" width="600" height="400" viewBox="0 0 2400 1600">
<defs>
  <clipPath id="clip140">
    <rect x="0" y="0" width="2400" height="1600"></rect>
  </clipPath>
</defs>
<path clip-path="url(#clip140)" d="M0 1600 L2400 1600 L2400 8.88178e-14 L0 8.88178e-14  Z" fill="#ffffff" fill-rule="evenodd" fill-opacity="1"></path>
<defs>
  <clipPath id="clip141">
    <rect x="480" y="0" width="1681" height="1600"></rect>
  </clipPath>
</defs>
<path clip-path="url(#clip140)" d="M256.209 1423.18 L2352.76 1423.18 L2352.76 123.472 L256.209 123.472  Z" fill="#ffffff" fill-rule="evenodd" fill-opacity="1"></path>
<defs>
  <clipPath id="clip142">
    <rect x="256" y="123" width="2098" height="1301"></rect>
  </clipPath>
</defs>
<polyline clip-path="url(#clip142)" style="stroke:#000000; stroke-linecap:round; stroke-linejoin:round; stroke-width:2; stroke-opacity:0.1; fill:none" points="313.565,1423.18 313.565,123.472 "></polyline>
<polyline clip-path="url(#clip142)" style="stroke:#000000; stroke-linecap:round; stroke-linejoin:round; stroke-width:2; stroke-opacity:0.1; fill:none" points="808.529,1423.18 808.529,123.472 "></polyline>
<polyline clip-path="url(#clip142)" style="stroke:#000000; stroke-linecap:round; stroke-linejoin:round; stroke-width:2; stroke-opacity:0.1; fill:none" points="1303.49,1423.18 1303.49,123.472 "></polyline>
<polyline clip-path="url(#clip142)" style="stroke:#000000; stroke-linecap:round; stroke-linejoin:round; stroke-width:2; stroke-opacity:0.1; fill:none" points="1798.46,1423.18 1798.46,123.472 "></polyline>
<polyline clip-path="url(#clip142)" style="stroke:#000000; stroke-linecap:round; stroke-linejoin:round; stroke-width:2; stroke-opacity:0.1; fill:none" points="2293.42,1423.18 2293.42,123.472 "></polyline>
<polyline clip-path="url(#clip140)" style="stroke:#000000; stroke-linecap:round; stroke-linejoin:round; stroke-width:4; stroke-opacity:1; fill:none" points="256.209,1423.18 2352.76,1423.18 "></polyline>
<polyline clip-path="url(#clip140)" style="stroke:#000000; stroke-linecap:round; stroke-linejoin:round; stroke-width:4; stroke-opacity:1; fill:none" points="313.565,1423.18 313.565,1404.28 "></polyline>
<polyline clip-path="url(#clip140)" style="stroke:#000000; stroke-linecap:round; stroke-linejoin:round; stroke-width:4; stroke-opacity:1; fill:none" points="808.529,1423.18 808.529,1404.28 "></polyline>
<polyline clip-path="url(#clip140)" style="stroke:#000000; stroke-linecap:round; stroke-linejoin:round; stroke-width:4; stroke-opacity:1; fill:none" points="1303.49,1423.18 1303.49,1404.28 "></polyline>
<polyline clip-path="url(#clip140)" style="stroke:#000000; stroke-linecap:round; stroke-linejoin:round; stroke-width:4; stroke-opacity:1; fill:none" points="1798.46,1423.18 1798.46,1404.28 "></polyline>
<polyline clip-path="url(#clip140)" style="stroke:#000000; stroke-linecap:round; stroke-linejoin:round; stroke-width:4; stroke-opacity:1; fill:none" points="2293.42,1423.18 2293.42,1404.28 "></polyline>
<path clip-path="url(#clip140)" d="M313.565 1454.1 Q309.954 1454.1 308.125 1457.66 Q306.32 1461.2 306.32 1468.33 Q306.32 1475.44 308.125 1479.01 Q309.954 1482.55 313.565 1482.55 Q317.199 1482.55 319.005 1479.01 Q320.834 1475.44 320.834 1468.33 Q320.834 1461.2 319.005 1457.66 Q317.199 1454.1 313.565 1454.1 M313.565 1450.39 Q319.375 1450.39 322.431 1455 Q325.509 1459.58 325.509 1468.33 Q325.509 1477.06 322.431 1481.67 Q319.375 1486.25 313.565 1486.25 Q307.755 1486.25 304.676 1481.67 Q301.621 1477.06 301.621 1468.33 Q301.621 1459.58 304.676 1455 Q307.755 1450.39 313.565 1450.39 Z" fill="#000000" fill-rule="nonzero" fill-opacity="1"></path><path clip-path="url(#clip140)" d="M772.221 1481.64 L788.54 1481.64 L788.54 1485.58 L766.596 1485.58 L766.596 1481.64 Q769.258 1478.89 773.841 1474.26 Q778.448 1469.61 779.628 1468.27 Q781.874 1465.74 782.753 1464.01 Q783.656 1462.25 783.656 1460.56 Q783.656 1457.8 781.712 1456.07 Q779.79 1454.33 776.689 1454.33 Q774.49 1454.33 772.036 1455.09 Q769.605 1455.86 766.828 1457.41 L766.828 1452.69 Q769.652 1451.55 772.105 1450.97 Q774.559 1450.39 776.596 1450.39 Q781.966 1450.39 785.161 1453.08 Q788.355 1455.77 788.355 1460.26 Q788.355 1462.39 787.545 1464.31 Q786.758 1466.2 784.652 1468.8 Q784.073 1469.47 780.971 1472.69 Q777.869 1475.88 772.221 1481.64 Z" fill="#000000" fill-rule="nonzero" fill-opacity="1"></path><path clip-path="url(#clip140)" d="M798.401 1451.02 L816.758 1451.02 L816.758 1454.96 L802.684 1454.96 L802.684 1463.43 Q803.702 1463.08 804.721 1462.92 Q805.739 1462.73 806.758 1462.73 Q812.545 1462.73 815.924 1465.9 Q819.304 1469.08 819.304 1474.49 Q819.304 1480.07 815.832 1483.17 Q812.36 1486.25 806.04 1486.25 Q803.864 1486.25 801.596 1485.88 Q799.351 1485.51 796.943 1484.77 L796.943 1480.07 Q799.026 1481.2 801.249 1481.76 Q803.471 1482.32 805.948 1482.32 Q809.952 1482.32 812.29 1480.21 Q814.628 1478.1 814.628 1474.49 Q814.628 1470.88 812.29 1468.77 Q809.952 1466.67 805.948 1466.67 Q804.073 1466.67 802.198 1467.08 Q800.346 1467.5 798.401 1468.38 L798.401 1451.02 Z" fill="#000000" fill-rule="nonzero" fill-opacity="1"></path><path clip-path="url(#clip140)" d="M838.517 1454.1 Q834.906 1454.1 833.077 1457.66 Q831.272 1461.2 831.272 1468.33 Q831.272 1475.44 833.077 1479.01 Q834.906 1482.55 838.517 1482.55 Q842.151 1482.55 843.957 1479.01 Q845.785 1475.44 845.785 1468.33 Q845.785 1461.2 843.957 1457.66 Q842.151 1454.1 838.517 1454.1 M838.517 1450.39 Q844.327 1450.39 847.383 1455 Q850.461 1459.58 850.461 1468.33 Q850.461 1477.06 847.383 1481.67 Q844.327 1486.25 838.517 1486.25 Q832.707 1486.25 829.628 1481.67 Q826.573 1477.06 826.573 1468.33 Q826.573 1459.58 829.628 1455 Q832.707 1450.39 838.517 1450.39 Z" fill="#000000" fill-rule="nonzero" fill-opacity="1"></path><path clip-path="url(#clip140)" d="M1263.11 1451.02 L1281.47 1451.02 L1281.47 1454.96 L1267.39 1454.96 L1267.39 1463.43 Q1268.41 1463.08 1269.43 1462.92 Q1270.45 1462.73 1271.47 1462.73 Q1277.25 1462.73 1280.63 1465.9 Q1284.01 1469.08 1284.01 1474.49 Q1284.01 1480.07 1280.54 1483.17 Q1277.07 1486.25 1270.75 1486.25 Q1268.57 1486.25 1266.31 1485.88 Q1264.06 1485.51 1261.65 1484.77 L1261.65 1480.07 Q1263.74 1481.2 1265.96 1481.76 Q1268.18 1482.32 1270.66 1482.32 Q1274.66 1482.32 1277 1480.21 Q1279.34 1478.1 1279.34 1474.49 Q1279.34 1470.88 1277 1468.77 Q1274.66 1466.67 1270.66 1466.67 Q1268.78 1466.67 1266.91 1467.08 Q1265.06 1467.5 1263.11 1468.38 L1263.11 1451.02 Z" fill="#000000" fill-rule="nonzero" fill-opacity="1"></path><path clip-path="url(#clip140)" d="M1303.23 1454.1 Q1299.62 1454.1 1297.79 1457.66 Q1295.98 1461.2 1295.98 1468.33 Q1295.98 1475.44 1297.79 1479.01 Q1299.62 1482.55 1303.23 1482.55 Q1306.86 1482.55 1308.67 1479.01 Q1310.49 1475.44 1310.49 1468.33 Q1310.49 1461.2 1308.67 1457.66 Q1306.86 1454.1 1303.23 1454.1 M1303.23 1450.39 Q1309.04 1450.39 1312.09 1455 Q1315.17 1459.58 1315.17 1468.33 Q1315.17 1477.06 1312.09 1481.67 Q1309.04 1486.25 1303.23 1486.25 Q1297.42 1486.25 1294.34 1481.67 Q1291.28 1477.06 1291.28 1468.33 Q1291.28 1459.58 1294.34 1455 Q1297.42 1450.39 1303.23 1450.39 Z" fill="#000000" fill-rule="nonzero" fill-opacity="1"></path><path clip-path="url(#clip140)" d="M1333.39 1454.1 Q1329.78 1454.1 1327.95 1457.66 Q1326.14 1461.2 1326.14 1468.33 Q1326.14 1475.44 1327.95 1479.01 Q1329.78 1482.55 1333.39 1482.55 Q1337.02 1482.55 1338.83 1479.01 Q1340.66 1475.44 1340.66 1468.33 Q1340.66 1461.2 1338.83 1457.66 Q1337.02 1454.1 1333.39 1454.1 M1333.39 1450.39 Q1339.2 1450.39 1342.25 1455 Q1345.33 1459.58 1345.33 1468.33 Q1345.33 1477.06 1342.25 1481.67 Q1339.2 1486.25 1333.39 1486.25 Q1327.58 1486.25 1324.5 1481.67 Q1321.44 1477.06 1321.44 1468.33 Q1321.44 1459.58 1324.5 1455 Q1327.58 1450.39 1333.39 1450.39 Z" fill="#000000" fill-rule="nonzero" fill-opacity="1"></path><path clip-path="url(#clip140)" d="M1756.73 1451.02 L1778.95 1451.02 L1778.95 1453.01 L1766.41 1485.58 L1761.52 1485.58 L1773.33 1454.96 L1756.73 1454.96 L1756.73 1451.02 Z" fill="#000000" fill-rule="nonzero" fill-opacity="1"></path><path clip-path="url(#clip140)" d="M1788.12 1451.02 L1806.48 1451.02 L1806.48 1454.96 L1792.4 1454.96 L1792.4 1463.43 Q1793.42 1463.08 1794.44 1462.92 Q1795.46 1462.73 1796.48 1462.73 Q1802.26 1462.73 1805.64 1465.9 Q1809.02 1469.08 1809.02 1474.49 Q1809.02 1480.07 1805.55 1483.17 Q1802.08 1486.25 1795.76 1486.25 Q1793.58 1486.25 1791.31 1485.88 Q1789.07 1485.51 1786.66 1484.77 L1786.66 1480.07 Q1788.75 1481.2 1790.97 1481.76 Q1793.19 1482.32 1795.67 1482.32 Q1799.67 1482.32 1802.01 1480.21 Q1804.35 1478.1 1804.35 1474.49 Q1804.35 1470.88 1802.01 1468.77 Q1799.67 1466.67 1795.67 1466.67 Q1793.79 1466.67 1791.92 1467.08 Q1790.06 1467.5 1788.12 1468.38 L1788.12 1451.02 Z" fill="#000000" fill-rule="nonzero" fill-opacity="1"></path><path clip-path="url(#clip140)" d="M1828.24 1454.1 Q1824.62 1454.1 1822.8 1457.66 Q1820.99 1461.2 1820.99 1468.33 Q1820.99 1475.44 1822.8 1479.01 Q1824.62 1482.55 1828.24 1482.55 Q1831.87 1482.55 1833.68 1479.01 Q1835.5 1475.44 1835.5 1468.33 Q1835.5 1461.2 1833.68 1457.66 Q1831.87 1454.1 1828.24 1454.1 M1828.24 1450.39 Q1834.05 1450.39 1837.1 1455 Q1840.18 1459.58 1840.18 1468.33 Q1840.18 1477.06 1837.1 1481.67 Q1834.05 1486.25 1828.24 1486.25 Q1822.43 1486.25 1819.35 1481.67 Q1816.29 1477.06 1816.29 1468.33 Q1816.29 1459.58 1819.35 1455 Q1822.43 1450.39 1828.24 1450.39 Z" fill="#000000" fill-rule="nonzero" fill-opacity="1"></path><path clip-path="url(#clip140)" d="M2237.95 1481.64 L2245.58 1481.64 L2245.58 1455.28 L2237.27 1456.95 L2237.27 1452.69 L2245.54 1451.02 L2250.21 1451.02 L2250.21 1481.64 L2257.85 1481.64 L2257.85 1485.58 L2237.95 1485.58 L2237.95 1481.64 Z" fill="#000000" fill-rule="nonzero" fill-opacity="1"></path><path clip-path="url(#clip140)" d="M2277.3 1454.1 Q2273.69 1454.1 2271.86 1457.66 Q2270.05 1461.2 2270.05 1468.33 Q2270.05 1475.44 2271.86 1479.01 Q2273.69 1482.55 2277.3 1482.55 Q2280.93 1482.55 2282.74 1479.01 Q2284.57 1475.44 2284.57 1468.33 Q2284.57 1461.2 2282.74 1457.66 Q2280.93 1454.1 2277.3 1454.1 M2277.3 1450.39 Q2283.11 1450.39 2286.16 1455 Q2289.24 1459.58 2289.24 1468.33 Q2289.24 1477.06 2286.16 1481.67 Q2283.11 1486.25 2277.3 1486.25 Q2271.49 1486.25 2268.41 1481.67 Q2265.35 1477.06 2265.35 1468.33 Q2265.35 1459.58 2268.41 1455 Q2271.49 1450.39 2277.3 1450.39 Z" fill="#000000" fill-rule="nonzero" fill-opacity="1"></path><path clip-path="url(#clip140)" d="M2307.46 1454.1 Q2303.85 1454.1 2302.02 1457.66 Q2300.21 1461.2 2300.21 1468.33 Q2300.21 1475.44 2302.02 1479.01 Q2303.85 1482.55 2307.46 1482.55 Q2311.09 1482.55 2312.9 1479.01 Q2314.73 1475.44 2314.73 1468.33 Q2314.73 1461.2 2312.9 1457.66 Q2311.09 1454.1 2307.46 1454.1 M2307.46 1450.39 Q2313.27 1450.39 2316.32 1455 Q2319.4 1459.58 2319.4 1468.33 Q2319.4 1477.06 2316.32 1481.67 Q2313.27 1486.25 2307.46 1486.25 Q2301.65 1486.25 2298.57 1481.67 Q2295.51 1477.06 2295.51 1468.33 Q2295.51 1459.58 2298.57 1455 Q2301.65 1450.39 2307.46 1450.39 Z" fill="#000000" fill-rule="nonzero" fill-opacity="1"></path><path clip-path="url(#clip140)" d="M2337.62 1454.1 Q2334.01 1454.1 2332.18 1457.66 Q2330.38 1461.2 2330.38 1468.33 Q2330.38 1475.44 2332.18 1479.01 Q2334.01 1482.55 2337.62 1482.55 Q2341.26 1482.55 2343.06 1479.01 Q2344.89 1475.44 2344.89 1468.33 Q2344.89 1461.2 2343.06 1457.66 Q2341.26 1454.1 2337.62 1454.1 M2337.62 1450.39 Q2343.43 1450.39 2346.49 1455 Q2349.57 1459.58 2349.57 1468.33 Q2349.57 1477.06 2346.49 1481.67 Q2343.43 1486.25 2337.62 1486.25 Q2331.81 1486.25 2328.73 1481.67 Q2325.68 1477.06 2325.68 1468.33 Q2325.68 1459.58 2328.73 1455 Q2331.81 1450.39 2337.62 1450.39 Z" fill="#000000" fill-rule="nonzero" fill-opacity="1"></path><path clip-path="url(#clip140)" d="M1219.02 1520.52 L1225.45 1520.52 L1225.45 1568.04 L1219.02 1568.04 L1219.02 1520.52 Z" fill="#000000" fill-rule="nonzero" fill-opacity="1"></path><path clip-path="url(#clip140)" d="M1267.62 1546.53 L1267.62 1568.04 L1261.77 1568.04 L1261.77 1546.72 Q1261.77 1541.66 1259.8 1539.14 Q1257.82 1536.63 1253.87 1536.63 Q1249.13 1536.63 1246.4 1539.65 Q1243.66 1542.68 1243.66 1547.9 L1243.66 1568.04 L1237.77 1568.04 L1237.77 1532.4 L1243.66 1532.4 L1243.66 1537.93 Q1245.76 1534.72 1248.59 1533.13 Q1251.46 1531.54 1255.18 1531.54 Q1261.32 1531.54 1264.47 1535.36 Q1267.62 1539.14 1267.62 1546.53 Z" fill="#000000" fill-rule="nonzero" fill-opacity="1"></path><path clip-path="url(#clip140)" d="M1302.76 1537.81 L1302.76 1518.52 L1308.62 1518.52 L1308.62 1568.04 L1302.76 1568.04 L1302.76 1562.7 Q1300.92 1565.88 1298.08 1567.44 Q1295.28 1568.97 1291.34 1568.97 Q1284.88 1568.97 1280.8 1563.81 Q1276.76 1558.65 1276.76 1550.25 Q1276.76 1541.85 1280.8 1536.69 Q1284.88 1531.54 1291.34 1531.54 Q1295.28 1531.54 1298.08 1533.1 Q1300.92 1534.62 1302.76 1537.81 M1282.81 1550.25 Q1282.81 1556.71 1285.45 1560.4 Q1288.12 1564.07 1292.77 1564.07 Q1297.42 1564.07 1300.09 1560.4 Q1302.76 1556.71 1302.76 1550.25 Q1302.76 1543.79 1300.09 1540.13 Q1297.42 1536.44 1292.77 1536.44 Q1288.12 1536.44 1285.45 1540.13 Q1282.81 1543.79 1282.81 1550.25 Z" fill="#000000" fill-rule="nonzero" fill-opacity="1"></path><path clip-path="url(#clip140)" d="M1351.17 1548.76 L1351.17 1551.62 L1324.25 1551.62 Q1324.63 1557.67 1327.88 1560.85 Q1331.15 1564 1336.98 1564 Q1340.35 1564 1343.5 1563.17 Q1346.69 1562.35 1349.81 1560.69 L1349.81 1566.23 Q1346.66 1567.57 1343.34 1568.27 Q1340.03 1568.97 1336.63 1568.97 Q1328.1 1568.97 1323.1 1564 Q1318.14 1559.04 1318.14 1550.57 Q1318.14 1541.82 1322.85 1536.69 Q1327.59 1531.54 1335.61 1531.54 Q1342.8 1531.54 1346.97 1536.18 Q1351.17 1540.8 1351.17 1548.76 M1345.32 1547.04 Q1345.25 1542.23 1342.61 1539.37 Q1340 1536.5 1335.67 1536.5 Q1330.77 1536.5 1327.81 1539.27 Q1324.88 1542.04 1324.44 1547.07 L1345.32 1547.04 Z" fill="#000000" fill-rule="nonzero" fill-opacity="1"></path><path clip-path="url(#clip140)" d="M1389.27 1532.4 L1376.38 1549.74 L1389.94 1568.04 L1383.04 1568.04 L1372.66 1554.04 L1362.28 1568.04 L1355.38 1568.04 L1369.22 1549.39 L1356.55 1532.4 L1363.46 1532.4 L1372.91 1545.1 L1382.37 1532.4 L1389.27 1532.4 Z" fill="#000000" fill-rule="nonzero" fill-opacity="1"></path><polyline clip-path="url(#clip142)" style="stroke:#000000; stroke-linecap:round; stroke-linejoin:round; stroke-width:2; stroke-opacity:0.1; fill:none" points="256.209,1169.51 2352.76,1169.51 "></polyline>
<polyline clip-path="url(#clip142)" style="stroke:#000000; stroke-linecap:round; stroke-linejoin:round; stroke-width:2; stroke-opacity:0.1; fill:none" points="256.209,828.44 2352.76,828.44 "></polyline>
<polyline clip-path="url(#clip142)" style="stroke:#000000; stroke-linecap:round; stroke-linejoin:round; stroke-width:2; stroke-opacity:0.1; fill:none" points="256.209,487.369 2352.76,487.369 "></polyline>
<polyline clip-path="url(#clip142)" style="stroke:#000000; stroke-linecap:round; stroke-linejoin:round; stroke-width:2; stroke-opacity:0.1; fill:none" points="256.209,146.297 2352.76,146.297 "></polyline>
<polyline clip-path="url(#clip140)" style="stroke:#000000; stroke-linecap:round; stroke-linejoin:round; stroke-width:4; stroke-opacity:1; fill:none" points="256.209,1423.18 256.209,123.472 "></polyline>
<polyline clip-path="url(#clip140)" style="stroke:#000000; stroke-linecap:round; stroke-linejoin:round; stroke-width:4; stroke-opacity:1; fill:none" points="256.209,1169.51 275.106,1169.51 "></polyline>
<polyline clip-path="url(#clip140)" style="stroke:#000000; stroke-linecap:round; stroke-linejoin:round; stroke-width:4; stroke-opacity:1; fill:none" points="256.209,828.44 275.106,828.44 "></polyline>
<polyline clip-path="url(#clip140)" style="stroke:#000000; stroke-linecap:round; stroke-linejoin:round; stroke-width:4; stroke-opacity:1; fill:none" points="256.209,487.369 275.106,487.369 "></polyline>
<polyline clip-path="url(#clip140)" style="stroke:#000000; stroke-linecap:round; stroke-linejoin:round; stroke-width:4; stroke-opacity:1; fill:none" points="256.209,146.297 275.106,146.297 "></polyline>
<path clip-path="url(#clip140)" d="M114.26 1169.96 L143.936 1169.96 L143.936 1173.9 L114.26 1173.9 L114.26 1169.96 Z" fill="#000000" fill-rule="nonzero" fill-opacity="1"></path><path clip-path="url(#clip140)" d="M164.028 1155.31 Q160.417 1155.31 158.589 1158.88 Q156.783 1162.42 156.783 1169.55 Q156.783 1176.65 158.589 1180.22 Q160.417 1183.76 164.028 1183.76 Q167.663 1183.76 169.468 1180.22 Q171.297 1176.65 171.297 1169.55 Q171.297 1162.42 169.468 1158.88 Q167.663 1155.31 164.028 1155.31 M164.028 1151.61 Q169.839 1151.61 172.894 1156.21 Q175.973 1160.8 175.973 1169.55 Q175.973 1178.27 172.894 1182.88 Q169.839 1187.46 164.028 1187.46 Q158.218 1187.46 155.14 1182.88 Q152.084 1178.27 152.084 1169.55 Q152.084 1160.8 155.14 1156.21 Q158.218 1151.61 164.028 1151.61 Z" fill="#000000" fill-rule="nonzero" fill-opacity="1"></path><path clip-path="url(#clip140)" d="M184.19 1180.91 L189.075 1180.91 L189.075 1186.79 L184.19 1186.79 L184.19 1180.91 Z" fill="#000000" fill-rule="nonzero" fill-opacity="1"></path><path clip-path="url(#clip140)" d="M199.306 1152.23 L217.662 1152.23 L217.662 1156.17 L203.588 1156.17 L203.588 1164.64 Q204.607 1164.29 205.625 1164.13 Q206.644 1163.94 207.662 1163.94 Q213.449 1163.94 216.829 1167.12 Q220.209 1170.29 220.209 1175.7 Q220.209 1181.28 216.736 1184.38 Q213.264 1187.46 206.945 1187.46 Q204.769 1187.46 202.5 1187.09 Q200.255 1186.72 197.848 1185.98 L197.848 1181.28 Q199.931 1182.42 202.153 1182.97 Q204.375 1183.53 206.852 1183.53 Q210.857 1183.53 213.195 1181.42 Q215.533 1179.31 215.533 1175.7 Q215.533 1172.09 213.195 1169.99 Q210.857 1167.88 206.852 1167.88 Q204.977 1167.88 203.102 1168.3 Q201.25 1168.71 199.306 1169.59 L199.306 1152.23 Z" fill="#000000" fill-rule="nonzero" fill-opacity="1"></path><path clip-path="url(#clip140)" d="M163.033 814.239 Q159.422 814.239 157.593 817.804 Q155.788 821.345 155.788 828.475 Q155.788 835.581 157.593 839.146 Q159.422 842.688 163.033 842.688 Q166.667 842.688 168.473 839.146 Q170.302 835.581 170.302 828.475 Q170.302 821.345 168.473 817.804 Q166.667 814.239 163.033 814.239 M163.033 810.535 Q168.843 810.535 171.899 815.142 Q174.977 819.725 174.977 828.475 Q174.977 837.202 171.899 841.808 Q168.843 846.392 163.033 846.392 Q157.223 846.392 154.144 841.808 Q151.089 837.202 151.089 828.475 Q151.089 819.725 154.144 815.142 Q157.223 810.535 163.033 810.535 Z" fill="#000000" fill-rule="nonzero" fill-opacity="1"></path><path clip-path="url(#clip140)" d="M183.195 839.841 L188.079 839.841 L188.079 845.72 L183.195 845.72 L183.195 839.841 Z" fill="#000000" fill-rule="nonzero" fill-opacity="1"></path><path clip-path="url(#clip140)" d="M208.264 814.239 Q204.653 814.239 202.824 817.804 Q201.019 821.345 201.019 828.475 Q201.019 835.581 202.824 839.146 Q204.653 842.688 208.264 842.688 Q211.899 842.688 213.704 839.146 Q215.533 835.581 215.533 828.475 Q215.533 821.345 213.704 817.804 Q211.899 814.239 208.264 814.239 M208.264 810.535 Q214.074 810.535 217.13 815.142 Q220.209 819.725 220.209 828.475 Q220.209 837.202 217.13 841.808 Q214.074 846.392 208.264 846.392 Q202.454 846.392 199.375 841.808 Q196.32 837.202 196.32 828.475 Q196.32 819.725 199.375 815.142 Q202.454 810.535 208.264 810.535 Z" fill="#000000" fill-rule="nonzero" fill-opacity="1"></path><path clip-path="url(#clip140)" d="M164.028 473.167 Q160.417 473.167 158.589 476.732 Q156.783 480.274 156.783 487.403 Q156.783 494.51 158.589 498.075 Q160.417 501.616 164.028 501.616 Q167.663 501.616 169.468 498.075 Q171.297 494.51 171.297 487.403 Q171.297 480.274 169.468 476.732 Q167.663 473.167 164.028 473.167 M164.028 469.464 Q169.839 469.464 172.894 474.07 Q175.973 478.654 175.973 487.403 Q175.973 496.13 172.894 500.737 Q169.839 505.32 164.028 505.32 Q158.218 505.32 155.14 500.737 Q152.084 496.13 152.084 487.403 Q152.084 478.654 155.14 474.07 Q158.218 469.464 164.028 469.464 Z" fill="#000000" fill-rule="nonzero" fill-opacity="1"></path><path clip-path="url(#clip140)" d="M184.19 498.769 L189.075 498.769 L189.075 504.649 L184.19 504.649 L184.19 498.769 Z" fill="#000000" fill-rule="nonzero" fill-opacity="1"></path><path clip-path="url(#clip140)" d="M199.306 470.089 L217.662 470.089 L217.662 474.024 L203.588 474.024 L203.588 482.496 Q204.607 482.149 205.625 481.987 Q206.644 481.802 207.662 481.802 Q213.449 481.802 216.829 484.973 Q220.209 488.144 220.209 493.561 Q220.209 499.14 216.736 502.241 Q213.264 505.32 206.945 505.32 Q204.769 505.32 202.5 504.95 Q200.255 504.579 197.848 503.839 L197.848 499.14 Q199.931 500.274 202.153 500.829 Q204.375 501.385 206.852 501.385 Q210.857 501.385 213.195 499.278 Q215.533 497.172 215.533 493.561 Q215.533 489.95 213.195 487.843 Q210.857 485.737 206.852 485.737 Q204.977 485.737 203.102 486.153 Q201.25 486.57 199.306 487.45 L199.306 470.089 Z" fill="#000000" fill-rule="nonzero" fill-opacity="1"></path><path clip-path="url(#clip140)" d="M153.843 159.642 L161.482 159.642 L161.482 133.276 L153.172 134.943 L153.172 130.684 L161.436 129.017 L166.112 129.017 L166.112 159.642 L173.751 159.642 L173.751 163.577 L153.843 163.577 L153.843 159.642 Z" fill="#000000" fill-rule="nonzero" fill-opacity="1"></path><path clip-path="url(#clip140)" d="M183.195 157.698 L188.079 157.698 L188.079 163.577 L183.195 163.577 L183.195 157.698 Z" fill="#000000" fill-rule="nonzero" fill-opacity="1"></path><path clip-path="url(#clip140)" d="M208.264 132.096 Q204.653 132.096 202.824 135.661 Q201.019 139.202 201.019 146.332 Q201.019 153.438 202.824 157.003 Q204.653 160.545 208.264 160.545 Q211.899 160.545 213.704 157.003 Q215.533 153.438 215.533 146.332 Q215.533 139.202 213.704 135.661 Q211.899 132.096 208.264 132.096 M208.264 128.392 Q214.074 128.392 217.13 132.999 Q220.209 137.582 220.209 146.332 Q220.209 155.059 217.13 159.665 Q214.074 164.249 208.264 164.249 Q202.454 164.249 199.375 159.665 Q196.32 155.059 196.32 146.332 Q196.32 137.582 199.375 132.999 Q202.454 128.392 208.264 128.392 Z" fill="#000000" fill-rule="nonzero" fill-opacity="1"></path><path clip-path="url(#clip140)" d="M18.0438 893.717 L24.314 893.717 Q22.5634 897.378 21.704 900.624 Q20.8447 903.871 20.8447 906.894 Q20.8447 912.146 22.8817 915.011 Q24.9187 917.843 28.6745 917.843 Q31.8255 917.843 33.4488 915.966 Q35.0402 914.056 36.0269 908.772 L36.8226 904.889 Q38.1912 897.696 41.6605 894.29 Q45.098 890.853 50.8908 890.853 Q57.7976 890.853 61.3624 895.5 Q64.9272 900.115 64.9272 909.059 Q64.9272 912.433 64.1633 916.252 Q63.3994 920.04 61.9035 924.114 L55.2831 924.114 Q57.4793 920.199 58.5933 916.443 Q59.7073 912.687 59.7073 909.059 Q59.7073 903.552 57.543 900.561 Q55.3786 897.569 51.3682 897.569 Q47.8671 897.569 45.8937 899.733 Q43.9204 901.866 42.9337 906.767 L42.1698 910.682 Q40.7375 917.875 37.682 921.09 Q34.6264 924.305 29.1837 924.305 Q22.8817 924.305 19.2532 919.88 Q15.6248 915.424 15.6248 907.626 Q15.6248 904.284 16.2295 900.815 Q16.8343 897.346 18.0438 893.717 Z" fill="#000000" fill-rule="nonzero" fill-opacity="1"></path><path clip-path="url(#clip140)" d="M28.3562 881.081 L28.3562 875.225 L64.0042 875.225 L64.0042 881.081 L28.3562 881.081 M14.479 881.081 L14.479 875.225 L21.895 875.225 L21.895 881.081 L14.479 881.081 Z" fill="#000000" fill-rule="nonzero" fill-opacity="1"></path><path clip-path="url(#clip140)" d="M35.1993 835.217 Q31.2526 833.02 29.3747 829.965 Q27.4968 826.909 27.4968 822.772 Q27.4968 817.202 31.4117 814.178 Q35.2948 811.154 42.4881 811.154 L64.0042 811.154 L64.0042 817.042 L42.679 817.042 Q37.5546 817.042 35.072 818.857 Q32.5894 820.671 32.5894 824.395 Q32.5894 828.946 35.6131 831.588 Q38.6368 834.23 43.8567 834.23 L64.0042 834.23 L64.0042 840.118 L42.679 840.118 Q37.5228 840.118 35.072 841.932 Q32.5894 843.747 32.5894 847.534 Q32.5894 852.022 35.6449 854.664 Q38.6686 857.306 43.8567 857.306 L64.0042 857.306 L64.0042 863.194 L28.3562 863.194 L28.3562 857.306 L33.8944 857.306 Q30.616 855.3 29.0564 852.499 Q27.4968 849.699 27.4968 845.847 Q27.4968 841.964 29.4702 839.259 Q31.4436 836.522 35.1993 835.217 Z" fill="#000000" fill-rule="nonzero" fill-opacity="1"></path><path clip-path="url(#clip140)" d="M28.3562 799.473 L28.3562 793.617 L64.0042 793.617 L64.0042 799.473 L28.3562 799.473 M14.479 799.473 L14.479 793.617 L21.895 793.617 L21.895 799.473 L14.479 799.473 Z" fill="#000000" fill-rule="nonzero" fill-opacity="1"></path><path clip-path="url(#clip140)" d="M14.479 781.363 L14.479 775.506 L64.0042 775.506 L64.0042 781.363 L14.479 781.363 Z" fill="#000000" fill-rule="nonzero" fill-opacity="1"></path><path clip-path="url(#clip140)" d="M46.0847 747.052 Q46.0847 754.149 47.7079 756.887 Q49.3312 759.624 53.2461 759.624 Q56.3653 759.624 58.2114 757.587 Q60.0256 755.518 60.0256 751.985 Q60.0256 747.115 56.5881 744.187 Q53.1188 741.227 47.3897 741.227 L46.0847 741.227 L46.0847 747.052 M43.6657 735.37 L64.0042 735.37 L64.0042 741.227 L58.5933 741.227 Q61.8398 743.232 63.3994 746.224 Q64.9272 749.216 64.9272 753.545 Q64.9272 759.019 61.8716 762.266 Q58.7843 765.48 53.6281 765.48 Q47.6125 765.48 44.5569 761.47 Q41.5014 757.428 41.5014 749.439 L41.5014 741.227 L40.9285 741.227 Q36.8862 741.227 34.6901 743.901 Q32.4621 746.542 32.4621 751.348 Q32.4621 754.404 33.1941 757.3 Q33.9262 760.197 35.3903 762.87 L29.9795 762.87 Q28.7381 759.656 28.1334 756.632 Q27.4968 753.608 27.4968 750.744 Q27.4968 743.009 31.5072 739.19 Q35.5176 735.37 43.6657 735.37 Z" fill="#000000" fill-rule="nonzero" fill-opacity="1"></path><path clip-path="url(#clip140)" d="M33.8307 702.651 Q33.2578 703.637 33.0032 704.815 Q32.7167 705.961 32.7167 707.361 Q32.7167 712.327 35.9632 715 Q39.1779 717.642 45.2253 717.642 L64.0042 717.642 L64.0042 723.53 L28.3562 723.53 L28.3562 717.642 L33.8944 717.642 Q30.6479 715.796 29.0883 712.836 Q27.4968 709.876 27.4968 705.643 Q27.4968 705.038 27.5923 704.306 Q27.656 703.574 27.8151 702.683 L33.8307 702.651 Z" fill="#000000" fill-rule="nonzero" fill-opacity="1"></path><path clip-path="url(#clip140)" d="M28.3562 696.508 L28.3562 690.651 L64.0042 690.651 L64.0042 696.508 L28.3562 696.508 M14.479 696.508 L14.479 690.651 L21.895 690.651 L21.895 696.508 L14.479 696.508 Z" fill="#000000" fill-rule="nonzero" fill-opacity="1"></path><path clip-path="url(#clip140)" d="M18.2347 672.605 L28.3562 672.605 L28.3562 660.542 L32.9077 660.542 L32.9077 672.605 L52.2594 672.605 Q56.6199 672.605 57.8613 671.427 Q59.1026 670.217 59.1026 666.557 L59.1026 660.542 L64.0042 660.542 L64.0042 666.557 Q64.0042 673.337 61.4897 675.915 Q58.9434 678.493 52.2594 678.493 L32.9077 678.493 L32.9077 682.79 L28.3562 682.79 L28.3562 678.493 L18.2347 678.493 L18.2347 672.605 Z" fill="#000000" fill-rule="nonzero" fill-opacity="1"></path><path clip-path="url(#clip140)" d="M67.3143 638.007 Q73.68 640.49 75.6216 642.845 Q77.5631 645.2 77.5631 649.147 L77.5631 653.826 L72.6615 653.826 L72.6615 650.388 Q72.6615 647.969 71.5157 646.633 Q70.3699 645.296 66.1048 643.672 L63.4312 642.622 L28.3562 657.04 L28.3562 650.834 L56.238 639.694 L28.3562 628.554 L28.3562 622.347 L67.3143 638.007 Z" fill="#000000" fill-rule="nonzero" fill-opacity="1"></path><path clip-path="url(#clip140)" d="M784.265 16.7545 L784.265 25.383 Q780.133 21.5346 775.434 19.6307 Q770.776 17.7268 765.509 17.7268 Q755.139 17.7268 749.63 24.0867 Q744.121 30.4061 744.121 42.3968 Q744.121 54.3469 749.63 60.7069 Q755.139 67.0263 765.509 67.0263 Q770.776 67.0263 775.434 65.1223 Q780.133 63.2184 784.265 59.3701 L784.265 67.9175 Q779.971 70.8341 775.151 72.2924 Q770.371 73.7508 765.023 73.7508 Q751.291 73.7508 743.392 65.3654 Q735.492 56.9395 735.492 42.3968 Q735.492 27.8135 743.392 19.4281 Q751.291 11.0023 765.023 11.0023 Q770.452 11.0023 775.232 12.4606 Q780.052 13.8784 784.265 16.7545 Z" fill="#000000" fill-rule="nonzero" fill-opacity="1"></path><path clip-path="url(#clip140)" d="M814.161 32.4315 Q808.165 32.4315 804.682 37.1306 Q801.198 41.7891 801.198 49.9314 Q801.198 58.0738 804.641 62.7728 Q808.125 67.4314 814.161 67.4314 Q820.116 67.4314 823.599 62.7323 Q827.083 58.0333 827.083 49.9314 Q827.083 41.8701 823.599 37.1711 Q820.116 32.4315 814.161 32.4315 M814.161 26.1121 Q823.883 26.1121 829.433 32.4315 Q834.982 38.7509 834.982 49.9314 Q834.982 61.0714 829.433 67.4314 Q823.883 73.7508 814.161 73.7508 Q804.398 73.7508 798.848 67.4314 Q793.339 61.0714 793.339 49.9314 Q793.339 38.7509 798.848 32.4315 Q804.398 26.1121 814.161 26.1121 Z" fill="#000000" fill-rule="nonzero" fill-opacity="1"></path><path clip-path="url(#clip140)" d="M876.261 28.5427 L876.261 35.5912 Q873.101 33.9709 869.699 33.1607 Q866.296 32.3505 862.65 32.3505 Q857.1 32.3505 854.305 34.0519 Q851.551 35.7533 851.551 39.156 Q851.551 41.7486 853.536 43.2475 Q855.521 44.7058 861.516 46.0426 L864.068 46.6097 Q872.008 48.3111 875.329 51.4303 Q878.692 54.509 878.692 60.0587 Q878.692 66.3781 873.669 70.0644 Q868.686 73.7508 859.936 73.7508 Q856.29 73.7508 852.32 73.0216 Q848.391 72.3329 844.016 70.9151 L844.016 63.2184 Q848.148 65.3654 852.158 66.4591 Q856.169 67.5124 860.098 67.5124 Q865.364 67.5124 868.2 65.73 Q871.036 63.9071 871.036 60.6258 Q871.036 57.5877 868.97 55.9673 Q866.944 54.3469 860.017 52.8481 L857.424 52.2405 Q850.497 50.7821 847.419 47.7845 Q844.34 44.7463 844.34 39.4801 Q844.34 33.0797 848.877 29.5959 Q853.414 26.1121 861.759 26.1121 Q865.891 26.1121 869.537 26.7198 Q873.183 27.3274 876.261 28.5427 Z" fill="#000000" fill-rule="nonzero" fill-opacity="1"></path><path clip-path="url(#clip140)" d="M890.561 27.2059 L898.015 27.2059 L898.015 72.576 L890.561 72.576 L890.561 27.2059 M890.561 9.54393 L898.015 9.54393 L898.015 18.9825 L890.561 18.9825 L890.561 9.54393 Z" fill="#000000" fill-rule="nonzero" fill-opacity="1"></path><path clip-path="url(#clip140)" d="M951.324 45.1919 L951.324 72.576 L943.871 72.576 L943.871 45.4349 Q943.871 38.994 941.359 35.7938 Q938.848 32.5936 933.825 32.5936 Q927.789 32.5936 924.305 36.4419 Q920.821 40.2903 920.821 46.9338 L920.821 72.576 L913.327 72.576 L913.327 27.2059 L920.821 27.2059 L920.821 34.2544 Q923.495 30.163 927.1 28.1376 Q930.746 26.1121 935.485 26.1121 Q943.304 26.1121 947.314 30.9732 Q951.324 35.7938 951.324 45.1919 Z" fill="#000000" fill-rule="nonzero" fill-opacity="1"></path><path clip-path="url(#clip140)" d="M1005 48.0275 L1005 51.6733 L970.728 51.6733 Q971.214 59.3701 975.346 63.421 Q979.519 67.4314 986.932 67.4314 Q991.226 67.4314 995.236 66.3781 Q999.287 65.3249 1003.26 63.2184 L1003.26 70.267 Q999.247 71.9684 995.034 72.8596 Q990.821 73.7508 986.486 73.7508 Q975.63 73.7508 969.27 67.4314 Q962.951 61.1119 962.951 50.3365 Q962.951 39.1965 968.946 32.6746 Q974.982 26.1121 985.19 26.1121 Q994.345 26.1121 999.652 32.0264 Q1005 37.9003 1005 48.0275 M997.545 45.84 Q997.464 39.7232 994.102 36.0774 Q990.78 32.4315 985.271 32.4315 Q979.033 32.4315 975.265 35.9558 Q971.538 39.4801 970.971 45.8805 L997.545 45.84 Z" fill="#000000" fill-rule="nonzero" fill-opacity="1"></path><path clip-path="url(#clip140)" d="M1072.53 28.5427 L1072.53 35.5912 Q1069.37 33.9709 1065.97 33.1607 Q1062.56 32.3505 1058.92 32.3505 Q1053.37 32.3505 1050.57 34.0519 Q1047.82 35.7533 1047.82 39.156 Q1047.82 41.7486 1049.8 43.2475 Q1051.79 44.7058 1057.78 46.0426 L1060.33 46.6097 Q1068.27 48.3111 1071.6 51.4303 Q1074.96 54.509 1074.96 60.0587 Q1074.96 66.3781 1069.93 70.0644 Q1064.95 73.7508 1056.2 73.7508 Q1052.56 73.7508 1048.59 73.0216 Q1044.66 72.3329 1040.28 70.9151 L1040.28 63.2184 Q1044.41 65.3654 1048.42 66.4591 Q1052.44 67.5124 1056.36 67.5124 Q1061.63 67.5124 1064.47 65.73 Q1067.3 63.9071 1067.3 60.6258 Q1067.3 57.5877 1065.24 55.9673 Q1063.21 54.3469 1056.28 52.8481 L1053.69 52.2405 Q1046.76 50.7821 1043.69 47.7845 Q1040.61 44.7463 1040.61 39.4801 Q1040.61 33.0797 1045.14 29.5959 Q1049.68 26.1121 1058.03 26.1121 Q1062.16 26.1121 1065.8 26.7198 Q1069.45 27.3274 1072.53 28.5427 Z" fill="#000000" fill-rule="nonzero" fill-opacity="1"></path><path clip-path="url(#clip140)" d="M1086.83 27.2059 L1094.28 27.2059 L1094.28 72.576 L1086.83 72.576 L1086.83 27.2059 M1086.83 9.54393 L1094.28 9.54393 L1094.28 18.9825 L1086.83 18.9825 L1086.83 9.54393 Z" fill="#000000" fill-rule="nonzero" fill-opacity="1"></path><path clip-path="url(#clip140)" d="M1145.2 35.9153 Q1148 30.8922 1151.88 28.5022 Q1155.77 26.1121 1161.04 26.1121 Q1168.13 26.1121 1171.98 31.0947 Q1175.83 36.0368 1175.83 45.1919 L1175.83 72.576 L1168.33 72.576 L1168.33 45.4349 Q1168.33 38.913 1166.02 35.7533 Q1163.71 32.5936 1158.97 32.5936 Q1153.18 32.5936 1149.82 36.4419 Q1146.46 40.2903 1146.46 46.9338 L1146.46 72.576 L1138.96 72.576 L1138.96 45.4349 Q1138.96 38.8725 1136.65 35.7533 Q1134.34 32.5936 1129.52 32.5936 Q1123.81 32.5936 1120.45 36.4824 Q1117.09 40.3308 1117.09 46.9338 L1117.09 72.576 L1109.59 72.576 L1109.59 27.2059 L1117.09 27.2059 L1117.09 34.2544 Q1119.64 30.082 1123.2 28.0971 Q1126.77 26.1121 1131.67 26.1121 Q1136.61 26.1121 1140.06 28.6237 Q1143.54 31.1352 1145.2 35.9153 Z" fill="#000000" fill-rule="nonzero" fill-opacity="1"></path><path clip-path="url(#clip140)" d="M1219.62 28.5427 L1219.62 35.5912 Q1216.46 33.9709 1213.05 33.1607 Q1209.65 32.3505 1206 32.3505 Q1200.46 32.3505 1197.66 34.0519 Q1194.91 35.7533 1194.91 39.156 Q1194.91 41.7486 1196.89 43.2475 Q1198.88 44.7058 1204.87 46.0426 L1207.42 46.6097 Q1215.36 48.3111 1218.68 51.4303 Q1222.05 54.509 1222.05 60.0587 Q1222.05 66.3781 1217.02 70.0644 Q1212.04 73.7508 1203.29 73.7508 Q1199.64 73.7508 1195.67 73.0216 Q1191.75 72.3329 1187.37 70.9151 L1187.37 63.2184 Q1191.5 65.3654 1195.51 66.4591 Q1199.52 67.5124 1203.45 67.5124 Q1208.72 67.5124 1211.55 65.73 Q1214.39 63.9071 1214.39 60.6258 Q1214.39 57.5877 1212.32 55.9673 Q1210.3 54.3469 1203.37 52.8481 L1200.78 52.2405 Q1193.85 50.7821 1190.77 47.7845 Q1187.69 44.7463 1187.69 39.4801 Q1187.69 33.0797 1192.23 29.5959 Q1196.77 26.1121 1205.11 26.1121 Q1209.25 26.1121 1212.89 26.7198 Q1216.54 27.3274 1219.62 28.5427 Z" fill="#000000" fill-rule="nonzero" fill-opacity="1"></path><path clip-path="url(#clip140)" d="M1292.94 28.9478 L1292.94 35.9153 Q1289.78 34.1734 1286.58 33.3227 Q1283.42 32.4315 1280.18 32.4315 Q1272.93 32.4315 1268.92 37.0496 Q1264.9 41.6271 1264.9 49.9314 Q1264.9 58.2358 1268.92 62.8538 Q1272.93 67.4314 1280.18 67.4314 Q1283.42 67.4314 1286.58 66.5807 Q1289.78 65.6895 1292.94 63.9476 L1292.94 70.8341 Q1289.82 72.2924 1286.46 73.0216 Q1283.13 73.7508 1279.37 73.7508 Q1269.12 73.7508 1263.08 67.3098 Q1257.05 60.8689 1257.05 49.9314 Q1257.05 38.832 1263.12 32.472 Q1269.24 26.1121 1279.85 26.1121 Q1283.3 26.1121 1286.58 26.8413 Q1289.86 27.5299 1292.94 28.9478 Z" fill="#000000" fill-rule="nonzero" fill-opacity="1"></path><path clip-path="url(#clip140)" d="M1344.71 48.0275 L1344.71 51.6733 L1310.44 51.6733 Q1310.92 59.3701 1315.06 63.421 Q1319.23 67.4314 1326.64 67.4314 Q1330.93 67.4314 1334.95 66.3781 Q1339 65.3249 1342.97 63.2184 L1342.97 70.267 Q1338.96 71.9684 1334.74 72.8596 Q1330.53 73.7508 1326.2 73.7508 Q1315.34 73.7508 1308.98 67.4314 Q1302.66 61.1119 1302.66 50.3365 Q1302.66 39.1965 1308.65 32.6746 Q1314.69 26.1121 1324.9 26.1121 Q1334.05 26.1121 1339.36 32.0264 Q1344.71 37.9003 1344.71 48.0275 M1337.25 45.84 Q1337.17 39.7232 1333.81 36.0774 Q1330.49 32.4315 1324.98 32.4315 Q1318.74 32.4315 1314.97 35.9558 Q1311.25 39.4801 1310.68 45.8805 L1337.25 45.84 Z" fill="#000000" fill-rule="nonzero" fill-opacity="1"></path><path clip-path="url(#clip140)" d="M1356.94 9.54393 L1364.4 9.54393 L1364.4 72.576 L1356.94 72.576 L1356.94 9.54393 Z" fill="#000000" fill-rule="nonzero" fill-opacity="1"></path><path clip-path="url(#clip140)" d="M1379.99 9.54393 L1387.44 9.54393 L1387.44 72.576 L1379.99 72.576 L1379.99 9.54393 Z" fill="#000000" fill-rule="nonzero" fill-opacity="1"></path><path clip-path="url(#clip140)" d="M1455.26 39.9662 Q1461.13 41.222 1464.41 45.1919 Q1467.73 49.1618 1467.73 54.9951 Q1467.73 63.9476 1461.58 68.8492 Q1455.42 73.7508 1444.08 73.7508 Q1440.27 73.7508 1436.22 72.9811 Q1432.21 72.2519 1427.91 70.7531 L1427.91 62.8538 Q1431.32 64.8388 1435.37 65.8515 Q1439.42 66.8642 1443.83 66.8642 Q1451.53 66.8642 1455.54 63.826 Q1459.59 60.7879 1459.59 54.9951 Q1459.59 49.6479 1455.82 46.6502 Q1452.1 43.612 1445.41 43.612 L1438.36 43.612 L1438.36 36.8875 L1445.74 36.8875 Q1451.77 36.8875 1454.97 34.4975 Q1458.17 32.067 1458.17 27.5299 Q1458.17 22.8714 1454.85 20.4004 Q1451.57 17.8888 1445.41 17.8888 Q1442.05 17.8888 1438.2 18.618 Q1434.35 19.3471 1429.74 20.8865 L1429.74 13.5948 Q1434.39 12.2985 1438.45 11.6504 Q1442.54 11.0023 1446.14 11.0023 Q1455.46 11.0023 1460.89 15.2557 Q1466.32 19.4686 1466.32 26.6793 Q1466.32 31.7024 1463.44 35.1862 Q1460.56 38.6294 1455.26 39.9662 Z" fill="#000000" fill-rule="nonzero" fill-opacity="1"></path><path clip-path="url(#clip140)" d="M1483.33 12.096 L1515.45 12.096 L1515.45 18.9825 L1490.82 18.9825 L1490.82 33.8088 Q1492.61 33.2012 1494.39 32.9176 Q1496.17 32.5936 1497.95 32.5936 Q1508.08 32.5936 1514 38.1433 Q1519.91 43.6931 1519.91 53.1722 Q1519.91 62.9348 1513.83 68.3631 Q1507.76 73.7508 1496.7 73.7508 Q1492.89 73.7508 1488.92 73.1026 Q1484.99 72.4545 1480.78 71.1582 L1480.78 62.9348 Q1484.42 64.9198 1488.31 65.892 Q1492.2 66.8642 1496.54 66.8642 Q1503.54 66.8642 1507.64 63.1779 Q1511.73 59.4916 1511.73 53.1722 Q1511.73 46.8528 1507.64 43.1664 Q1503.54 39.4801 1496.54 39.4801 Q1493.25 39.4801 1489.97 40.2093 Q1486.73 40.9384 1483.33 42.4778 L1483.33 12.096 Z" fill="#000000" fill-rule="nonzero" fill-opacity="1"></path><path clip-path="url(#clip140)" d="M1553.53 17.4837 Q1547.21 17.4837 1544.01 23.7221 Q1540.85 29.92 1540.85 42.3968 Q1540.85 54.833 1544.01 61.0714 Q1547.21 67.2693 1553.53 67.2693 Q1559.89 67.2693 1563.05 61.0714 Q1566.25 54.833 1566.25 42.3968 Q1566.25 29.92 1563.05 23.7221 Q1559.89 17.4837 1553.53 17.4837 M1553.53 11.0023 Q1563.7 11.0023 1569.05 19.0636 Q1574.43 27.0843 1574.43 42.3968 Q1574.43 57.6687 1569.05 65.73 Q1563.7 73.7508 1553.53 73.7508 Q1543.36 73.7508 1537.98 65.73 Q1532.63 57.6687 1532.63 42.3968 Q1532.63 27.0843 1537.98 19.0636 Q1543.36 11.0023 1553.53 11.0023 Z" fill="#000000" fill-rule="nonzero" fill-opacity="1"></path><path clip-path="url(#clip140)" d="M1614.13 27.2059 L1621.59 27.2059 L1621.59 72.576 L1614.13 72.576 L1614.13 27.2059 M1614.13 9.54393 L1621.59 9.54393 L1621.59 18.9825 L1614.13 18.9825 L1614.13 9.54393 Z" fill="#000000" fill-rule="nonzero" fill-opacity="1"></path><path clip-path="url(#clip140)" d="M1644.56 14.324 L1644.56 27.2059 L1659.91 27.2059 L1659.91 32.9987 L1644.56 32.9987 L1644.56 57.6282 Q1644.56 63.1779 1646.05 64.7578 Q1647.59 66.3376 1652.25 66.3376 L1659.91 66.3376 L1659.91 72.576 L1652.25 72.576 Q1643.62 72.576 1640.34 69.3758 Q1637.06 66.1351 1637.06 57.6282 L1637.06 32.9987 L1631.59 32.9987 L1631.59 27.2059 L1637.06 27.2059 L1637.06 14.324 L1644.56 14.324 Z" fill="#000000" fill-rule="nonzero" fill-opacity="1"></path><path clip-path="url(#clip140)" d="M1708.52 48.0275 L1708.52 51.6733 L1674.25 51.6733 Q1674.73 59.3701 1678.87 63.421 Q1683.04 67.4314 1690.45 67.4314 Q1694.75 67.4314 1698.76 66.3781 Q1702.81 65.3249 1706.78 63.2184 L1706.78 70.267 Q1702.77 71.9684 1698.55 72.8596 Q1694.34 73.7508 1690.01 73.7508 Q1679.15 73.7508 1672.79 67.4314 Q1666.47 61.1119 1666.47 50.3365 Q1666.47 39.1965 1672.47 32.6746 Q1678.5 26.1121 1688.71 26.1121 Q1697.87 26.1121 1703.17 32.0264 Q1708.52 37.9003 1708.52 48.0275 M1701.07 45.84 Q1700.98 39.7232 1697.62 36.0774 Q1694.3 32.4315 1688.79 32.4315 Q1682.55 32.4315 1678.79 35.9558 Q1675.06 39.4801 1674.49 45.8805 L1701.07 45.84 Z" fill="#000000" fill-rule="nonzero" fill-opacity="1"></path><path clip-path="url(#clip140)" d="M1747.04 34.1734 Q1745.79 33.4443 1744.29 33.1202 Q1742.83 32.7556 1741.05 32.7556 Q1734.73 32.7556 1731.33 36.8875 Q1727.96 40.9789 1727.96 48.6757 L1727.96 72.576 L1720.47 72.576 L1720.47 27.2059 L1727.96 27.2059 L1727.96 34.2544 Q1730.31 30.1225 1734.08 28.1376 Q1737.85 26.1121 1743.24 26.1121 Q1744.01 26.1121 1744.94 26.2337 Q1745.87 26.3147 1747 26.5172 L1747.04 34.1734 Z" fill="#000000" fill-rule="nonzero" fill-opacity="1"></path><path clip-path="url(#clip140)" d="M1783.7 65.6895 L1797.07 65.6895 L1797.07 19.5497 L1782.53 22.4663 L1782.53 15.0127 L1796.99 12.096 L1805.17 12.096 L1805.17 65.6895 L1818.54 65.6895 L1818.54 72.576 L1783.7 72.576 L1783.7 65.6895 Z" fill="#000000" fill-rule="nonzero" fill-opacity="1"></path><path clip-path="url(#clip140)" d="M1852.57 17.4837 Q1846.25 17.4837 1843.05 23.7221 Q1839.89 29.92 1839.89 42.3968 Q1839.89 54.833 1843.05 61.0714 Q1846.25 67.2693 1852.57 67.2693 Q1858.93 67.2693 1862.09 61.0714 Q1865.29 54.833 1865.29 42.3968 Q1865.29 29.92 1862.09 23.7221 Q1858.93 17.4837 1852.57 17.4837 M1852.57 11.0023 Q1862.74 11.0023 1868.08 19.0636 Q1873.47 27.0843 1873.47 42.3968 Q1873.47 57.6687 1868.08 65.73 Q1862.74 73.7508 1852.57 73.7508 Q1842.4 73.7508 1837.01 65.73 Q1831.67 57.6687 1831.67 42.3968 Q1831.67 27.0843 1837.01 19.0636 Q1842.4 11.0023 1852.57 11.0023 Z" fill="#000000" fill-rule="nonzero" fill-opacity="1"></path><polyline clip-path="url(#clip142)" style="stroke:#009af9; stroke-linecap:round; stroke-linejoin:round; stroke-width:4; stroke-opacity:1; fill:none" points="315.545,948.296 317.525,1035.27 319.505,845.847 321.484,748.17 323.464,778.964 325.444,838.114 327.424,905.629 329.404,970.881 331.384,914.921 333.364,742.594 335.343,981.885 337.323,1025.86 339.303,858.48 341.283,934.544 343.263,939.901 345.243,908.364 347.223,926.196 349.202,1001.22 351.182,996.159 353.162,813.348 355.142,1072.22 357.122,798.273 359.102,775.276 361.082,1073.51 363.061,841.698 365.041,1084.03 367.021,832.67 369.001,789.042 370.981,852.322 372.961,930.198 374.941,970.994 376.92,973.353 378.9,946.536 380.88,879.96 382.86,926.079 384.84,783.991 386.82,1035.42 388.8,921.395 390.779,957.732 392.759,844.222 394.739,950.232 396.719,866.985 398.699,951.759 400.679,978.608 402.659,935.4 404.638,892.206 406.618,905.103 408.598,786.064 410.578,875.239 412.558,750.266 414.538,974.802 416.517,1042.51 418.497,928.324 420.477,1060.54 422.457,845.467 424.437,908.648 426.417,994.819 428.397,974.634 430.376,900.18 432.356,873.635 434.336,837.378 436.316,975.525 438.296,931.631 440.276,933.239 442.256,831.946 444.235,918.278 446.215,975.106 448.195,1021.81 450.175,840.277 452.155,932.216 454.135,1031.89 456.115,893.636 458.094,858.089 460.074,992.51 462.054,953.807 464.034,1121.87 466.014,933.131 467.994,929.134 469.974,1011.88 471.953,741.282 473.933,989.771 475.913,1022.36 477.893,911.097 479.873,803.846 481.853,880.893 483.833,776.929 485.812,929.434 487.792,936.813 489.772,821.413 491.752,869.474 493.732,904.115 495.712,1004.9 497.692,855.97 499.671,942.758 501.651,785.173 503.631,891.948 505.611,918.153 507.591,833.234 509.571,1020.02 511.551,801.299 513.53,778.758 515.51,939.828 517.49,865.737 519.47,1100.31 521.45,1000.27 523.43,935.75 525.409,863.133 527.389,922.541 529.369,1054.99 531.349,987.376 533.329,774.492 535.309,938.009 537.289,823.892 539.268,838.548 541.248,864.94 543.228,937.015 545.208,911.543 547.188,730.965 549.168,884.469 551.148,839.848 553.127,875.008 555.107,804.945 557.087,942.422 559.067,914.626 561.047,844.022 563.027,919.016 565.007,804.929 566.986,961.947 568.966,875.232 570.946,845.337 572.926,924.582 574.906,935.686 576.886,891.202 578.866,1051.25 580.845,915.586 582.825,862.901 584.805,961.031 586.785,807.777 588.765,1028.14 590.745,966.739 592.725,870.922 594.704,778.057 596.684,870.837 598.664,836.558 600.644,970.128 602.624,780.715 604.604,863.108 606.584,1023.95 608.563,750.343 610.543,897.364 612.523,907.163 614.503,761.524 616.483,1013.77 618.463,1090.67 620.443,864.653 622.422,911.23 624.402,929.555 626.382,954.574 628.362,924.529 630.342,786.535 632.322,989.615 634.301,809.077 636.281,943.999 638.261,921.849 640.241,995.352 642.221,823.991 644.201,982.068 646.181,988.749 648.16,956.921 650.14,966.785 652.12,928.35 654.1,845.021 656.08,863.876 658.06,993.9 660.04,860.719 662.019,830.022 663.999,891.538 665.979,856.22 667.959,793.575 669.939,877.603 671.919,877.246 673.899,842.484 675.878,869.531 677.858,928.449 679.838,833.513 681.818,957.557 683.798,774.891 685.778,848.514 687.758,934.148 689.737,994.948 691.717,995.382 693.697,1021.48 695.677,914.041 697.657,926.903 699.637,1007.53 701.617,920.424 703.596,891.306 705.576,953.018 707.556,705.682 709.536,879.091 711.516,795.997 713.496,1013.12 715.476,888.441 717.455,1010.78 719.435,867.396 721.415,830.261 723.395,891.413 725.375,1086.33 727.355,884.486 729.335,916.408 731.314,862.147 733.294,930.692 735.274,1007.78 737.254,926.379 739.234,754.811 741.214,767.887 743.194,897.35 745.173,826.114 747.153,962.686 749.133,733.976 751.113,964.554 753.093,744.246 755.073,957.323 757.052,756.558 759.032,831.444 761.012,971.228 762.992,833.934 764.972,919.329 766.952,780.135 768.932,922.65 770.911,959.606 772.891,939.015 774.871,936.197 776.851,754.182 778.831,956.472 780.811,774.273 782.791,854.993 784.77,953.188 786.75,896.906 788.73,835.611 790.71,851.793 792.69,813.564 794.67,943.811 796.65,890.263 798.629,1035 800.609,786.46 802.589,912.251 804.569,753.949 806.549,788.134 808.529,837.442 810.509,1049.03 812.488,1143.72 814.468,998.852 816.448,1012.01 818.428,1353.72 820.408,1116.32 822.388,1130.69 824.368,1114.8 826.347,1143.16 828.327,1143.76 830.307,1131.93 832.287,1225.77 834.267,1167.51 836.247,1127.24 838.227,1076.66 840.206,1386.4 842.186,956.308 844.166,1122 846.146,1111.9 848.126,1160.12 850.106,1216.86 852.086,1124.21 854.065,1133.7 856.045,1215.25 858.025,1136.25 860.005,1265.6 861.985,1278.71 863.965,1134.55 865.944,1064.08 867.924,1029.3 869.904,1139.39 871.884,1266.7 873.864,1217.47 875.844,1099.62 877.824,1347.17 879.803,1162.92 881.783,1171.17 883.763,1132.78 885.743,1117.43 887.723,1285.64 889.703,1083.89 891.683,1305.86 893.662,1313.41 895.642,1207.97 897.622,1178.6 899.602,1266.94 901.582,1348.96 903.562,1294.71 905.542,1155.67 907.521,1143.74 909.501,1199.78 911.481,1306.69 913.461,1188.82 915.441,906.211 917.421,1065.91 919.401,1085.87 921.38,1322.08 923.36,1082.47 925.34,1093.56 927.32,1204.69 929.3,1303.79 931.28,1208.32 933.26,1014.8 935.239,1204.72 937.219,1053.92 939.199,1227.83 941.179,1158.4 943.159,1208.01 945.139,1178.9 947.119,1140.5 949.098,1264.13 951.078,1232.45 953.058,1070.5 955.038,1281.06 957.018,1232.13 958.998,1248.62 960.978,1247.87 962.957,1152.31 964.937,1267.32 966.917,1220.53 968.897,1154.31 970.877,1040.44 972.857,1265.15 974.836,1179.69 976.816,1243.11 978.796,1274.25 980.776,1287.08 982.756,1301.67 984.736,1204.27 986.716,1054.14 988.695,1150.54 990.675,1204.42 992.655,1172.78 994.635,1152.3 996.615,1243.39 998.595,1141.91 1000.57,1299.34 1002.55,1274.82 1004.53,1229.57 1006.51,1060.91 1008.49,1243.61 1010.47,1217.52 1012.45,1137.91 1014.43,1066.8 1016.41,1187.52 1018.39,1161.32 1020.37,1250.63 1022.35,1201.7 1024.33,1190.86 1026.31,1279.3 1028.29,1356.99 1030.27,1300.1 1032.25,1112.27 1034.23,1207.89 1036.21,1175.67 1038.19,1180.9 1040.17,1356.67 1042.15,1174.2 1044.13,1238.31 1046.11,1198.73 1048.09,1310.48 1050.07,1330.21 1052.05,1069.72 1054.03,1194.81 1056.01,1303.79 1057.99,1072.75 1059.97,1204.89 1061.95,1103.9 1063.93,1296.06 1065.91,1050.06 1067.89,1064.06 1069.87,1188.45 1071.85,1246.03 1073.83,1096.48 1075.81,1272.56 1077.79,1241.32 1079.77,1132.86 1081.75,1189.45 1083.73,1218.09 1085.71,1178.17 1087.69,1177.34 1089.67,1121.49 1091.65,1058.04 1093.63,1176.22 1095.61,1096.93 1097.59,1273.87 1099.57,1169.46 1101.55,1053.29 1103.53,1059.55 1105.51,1146.55 1107.49,1246.12 1109.47,1348.48 1111.45,1226.3 1113.43,1256.6 1115.41,1210.96 1117.39,1127.31 1119.37,1078.72 1121.35,1196.54 1123.33,1233.67 1125.31,1133.97 1127.29,1234.09 1129.27,1354.23 1131.25,1115.34 1133.22,1125.77 1135.2,1166.15 1137.18,1103.36 1139.16,1136.03 1141.14,1240.13 1143.12,1228.07 1145.1,1254.77 1147.08,1111.51 1149.06,1231.79 1151.04,1107.01 1153.02,1243.82 1155,1267.81 1156.98,1221.5 1158.96,1150.58 1160.94,1074.66 1162.92,1166.95 1164.9,1052.44 1166.88,1222.43 1168.86,1109.66 1170.84,1231.15 1172.82,1282.32 1174.8,1209.32 1176.78,1212.33 1178.76,1217.72 1180.74,1111.48 1182.72,1252.16 1184.7,1099.86 1186.68,1200.37 1188.66,1165.96 1190.64,1112.62 1192.62,1131.53 1194.6,1176.08 1196.58,1286.45 1198.56,1005.59 1200.54,1143.81 1202.52,1248.09 1204.5,1131.27 1206.48,1291.88 1208.46,1235.16 1210.44,1110.93 1212.42,1146.05 1214.4,1282.24 1216.38,1210.26 1218.36,1108.58 1220.34,1149.04 1222.32,1336.16 1224.3,1295.36 1226.28,1298.59 1228.26,1316.42 1230.24,1289.71 1232.22,1025.2 1234.2,1184.49 1236.18,1172 1238.16,1313.42 1240.14,1195.28 1242.12,1190.88 1244.1,1148.8 1246.08,1182.17 1248.06,1286.04 1250.04,1241.15 1252.02,1129.87 1254,1187.12 1255.98,1064.92 1257.96,1190.1 1259.94,1301.8 1261.92,1335.83 1263.9,1173.71 1265.88,1129.05 1267.85,1190.8 1269.83,1061.52 1271.81,1286.55 1273.79,1123.87 1275.77,1313.25 1277.75,1271.73 1279.73,1177.82 1281.71,1183.62 1283.69,1182.72 1285.67,1362.65 1287.65,1083.65 1289.63,1106.24 1291.61,1202.7 1293.59,1149.08 1295.57,1278.66 1297.55,1027.95 1299.53,1178.97 1301.51,1269.56 1303.49,1109.28 1305.47,258.794 1307.45,231.398 1309.43,349.075 1311.41,309.535 1313.39,234.868 1315.37,290.145 1317.35,399.593 1319.33,416.053 1321.31,321.392 1323.29,347.911 1325.27,291.489 1327.25,334.952 1329.23,257.382 1331.21,364.889 1333.19,261.417 1335.17,240.974 1337.15,540.456 1339.13,416.073 1341.11,277.099 1343.09,226.372 1345.07,220.504 1347.05,387.141 1349.03,462.645 1351.01,344.798 1352.99,373.079 1354.97,239.629 1356.95,261.065 1358.93,249.928 1360.91,290.164 1362.89,642.86 1364.87,165.951 1366.85,282.315 1368.83,283.133 1370.81,315.561 1372.79,289.482 1374.77,247.441 1376.75,310.198 1378.73,401.468 1380.71,449.591 1382.69,303.638 1384.67,316.237 1386.65,374.691 1388.63,453.071 1390.61,239.272 1392.59,483.858 1394.57,449.558 1396.55,327.625 1398.53,307.03 1400.51,577.382 1402.49,322.294 1404.46,304.898 1406.44,324.807 1408.42,326.618 1410.4,230.312 1412.38,354.265 1414.36,366.895 1416.34,321.021 1418.32,278.982 1420.3,337.8 1422.28,218.802 1424.26,231.578 1426.24,376.878 1428.22,384.859 1430.2,202.45 1432.18,305.282 1434.16,244.917 1436.14,300.952 1438.12,313.547 1440.1,260.774 1442.08,380.27 1444.06,331.623 1446.04,358.025 1448.02,168.095 1450,314.684 1451.98,308.137 1453.96,360.347 1455.94,237.438 1457.92,362.337 1459.9,210.759 1461.88,285.621 1463.86,321.573 1465.84,227.376 1467.82,253.922 1469.8,511.504 1471.78,329.908 1473.76,356.245 1475.74,338.744 1477.72,332.602 1479.7,217.432 1481.68,387.293 1483.66,397.898 1485.64,557.889 1487.62,253.075 1489.6,225.285 1491.58,269.28 1493.56,261.335 1495.54,228.214 1497.52,339.25 1499.5,304.732 1501.48,302.843 1503.46,305.304 1505.44,524.684 1507.42,227.252 1509.4,514.808 1511.38,260.214 1513.36,269.619 1515.34,512.714 1517.32,247.215 1519.3,223.626 1521.28,311.236 1523.26,329.886 1525.24,284.12 1527.22,291.957 1529.2,529.717 1531.18,308.602 1533.16,397.224 1535.14,486.849 1537.12,243.707 1539.1,215.092 1541.07,354.816 1543.05,327.291 1545.03,305.096 1547.01,321.406 1548.99,475.826 1550.97,319.259 1552.95,244.919 1554.93,266.99 1556.91,318.295 1558.89,259.302 1560.87,260.561 1562.85,276.502 1564.83,296.17 1566.81,294.066 1568.79,304.515 1570.77,408.797 1572.75,319.554 1574.73,304.066 1576.71,283.265 1578.69,457.428 1580.67,228.358 1582.65,264.591 1584.63,227.084 1586.61,249.75 1588.59,714.165 1590.57,207.763 1592.55,259.105 1594.53,245.097 1596.51,230.636 1598.49,439.151 1600.47,175.687 1602.45,267.963 1604.43,290.676 1606.41,331.61 1608.39,277.601 1610.37,445.305 1612.35,347.16 1614.33,254.459 1616.31,259.599 1618.29,410.795 1620.27,230.891 1622.25,404.299 1624.23,351.385 1626.21,442.071 1628.19,404.924 1630.17,652.137 1632.15,244.467 1634.13,256.011 1636.11,273.214 1638.09,346.216 1640.07,405.457 1642.05,323.018 1644.03,458.721 1646.01,534.259 1647.99,160.256 1649.97,234.142 1651.95,242.104 1653.93,314.08 1655.91,249.624 1657.89,242.933 1659.87,299.095 1661.85,248.121 1663.83,481.591 1665.81,460.104 1667.79,299.63 1669.77,344.516 1671.75,357.365 1673.73,256.928 1675.71,274.509 1677.68,258.987 1679.66,330.748 1681.64,549.773 1683.62,283.138 1685.6,262.797 1687.58,367.51 1689.56,316.093 1691.54,334.03 1693.52,273.636 1695.5,261.049 1697.48,235.201 1699.46,277.3 1701.44,247.238 1703.42,261.66 1705.4,392.84 1707.38,262.178 1709.36,395.904 1711.34,197.869 1713.32,282.345 1715.3,427.777 1717.28,302.421 1719.26,426.706 1721.24,290.842 1723.22,343.459 1725.2,272.659 1727.18,238.23 1729.16,319.049 1731.14,260.33 1733.12,283.5 1735.1,399.353 1737.08,514.076 1739.06,192.516 1741.04,248.247 1743.02,250.493 1745,203.566 1746.98,294.719 1748.96,199.532 1750.94,258.147 1752.92,431.195 1754.9,322.857 1756.88,370.431 1758.86,265.887 1760.84,200.317 1762.82,330.39 1764.8,403.073 1766.78,331.327 1768.76,761.233 1770.74,325.4 1772.72,278.397 1774.7,326.113 1776.68,259.462 1778.66,353.381 1780.64,340.195 1782.62,397.55 1784.6,300.122 1786.58,221.311 1788.56,396.847 1790.54,650.401 1792.52,221.349 1794.5,218.888 1796.48,392.255 1798.46,631.88 1800.44,884.137 1802.42,886.057 1804.4,880.601 1806.38,913.708 1808.36,919.424 1810.34,940.778 1812.31,853.809 1814.29,926.05 1816.27,854.296 1818.25,850.153 1820.23,1058 1822.21,961.059 1824.19,876.489 1826.17,936.813 1828.15,929.229 1830.13,884.683 1832.11,894.446 1834.09,942.722 1836.07,1038.87 1838.05,1013.91 1840.03,1009.67 1842.01,968.294 1843.99,829.167 1845.97,886.975 1847.95,787.086 1849.93,886.436 1851.91,934.567 1853.89,937.313 1855.87,910.226 1857.85,1008.44 1859.83,900.295 1861.81,1090.56 1863.79,1051.12 1865.77,906.709 1867.75,1035.81 1869.73,918.849 1871.71,850.457 1873.69,868.758 1875.67,1019.46 1877.65,1056 1879.63,869.342 1881.61,857.293 1883.59,858.225 1885.57,886.312 1887.55,911.317 1889.53,918.707 1891.51,956.721 1893.49,944.602 1895.47,900.77 1897.45,868.117 1899.43,865.704 1901.41,949.947 1903.39,977.56 1905.37,1055.02 1907.35,887.322 1909.33,943.061 1911.31,819.157 1913.29,1054.93 1915.27,954.881 1917.25,931.341 1919.23,847.222 1921.21,1018.24 1923.19,1010.91 1925.17,978.152 1927.15,1023.79 1929.13,954.942 1931.11,931.546 1933.09,878.347 1935.07,1096.06 1937.05,863.981 1939.03,895.134 1941.01,938.425 1942.99,885.138 1944.97,907.338 1946.95,835.486 1948.92,798.39 1950.9,882.567 1952.88,880.898 1954.86,989.431 1956.84,907.835 1958.82,892.518 1960.8,867.428 1962.78,1009.71 1964.76,906.866 1966.74,906.807 1968.72,866.941 1970.7,930.566 1972.68,793.656 1974.66,967.158 1976.64,917.183 1978.62,1040.4 1980.6,942.421 1982.58,883.272 1984.56,1018.41 1986.54,960.467 1988.52,872.531 1990.5,1115.94 1992.48,892.432 1994.46,991.154 1996.44,899.991 1998.42,883.057 2000.4,884.125 2002.38,828.504 2004.36,913.75 2006.34,868.867 2008.32,896.435 2010.3,814.706 2012.28,894.749 2014.26,850.643 2016.24,1007.47 2018.22,1057.83 2020.2,868.181 2022.18,798.724 2024.16,897.746 2026.14,1082.16 2028.12,1024.55 2030.1,970.343 2032.08,962.196 2034.06,997.724 2036.04,898 2038.02,857.174 2040,786.571 2041.98,923.1 2043.96,702.867 2045.94,1051.34 2047.92,915.424 2049.9,1037.85 2051.88,979.029 2053.86,1078.8 2055.84,928.028 2057.82,1073.41 2059.8,993.863 2061.78,1087.01 2063.76,958.592 2065.74,860.909 2067.72,928.442 2069.7,977.931 2071.68,867.907 2073.66,959.026 2075.64,836.137 2077.62,915.695 2079.6,903.707 2081.58,1006.46 2083.56,988.933 2085.53,848.319 2087.51,929.529 2089.49,846.916 2091.47,805.459 2093.45,897.118 2095.43,874.263 2097.41,976.739 2099.39,850.219 2101.37,887.862 2103.35,963.749 2105.33,886.384 2107.31,907.492 2109.29,1050.26 2111.27,906.053 2113.25,914.645 2115.23,1027.31 2117.21,885.53 2119.19,902.742 2121.17,948.039 2123.15,991.114 2125.13,932.466 2127.11,982.2 2129.09,933.196 2131.07,1034.06 2133.05,913.167 2135.03,888.398 2137.01,975.31 2138.99,966.372 2140.97,894.676 2142.95,865.645 2144.93,944.973 2146.91,895.508 2148.89,890.186 2150.87,898.234 2152.85,957.942 2154.83,1041.09 2156.81,909.389 2158.79,796.957 2160.77,893.1 2162.75,926.178 2164.73,892.935 2166.71,945.742 2168.69,889.632 2170.67,857.353 2172.65,913.656 2174.63,938.487 2176.61,869.028 2178.59,946.024 2180.57,863.35 2182.55,799.095 2184.53,864.826 2186.51,895.509 2188.49,916.82 2190.47,1021.56 2192.45,928.257 2194.43,1012.52 2196.41,810.791 2198.39,864.416 2200.37,868.506 2202.35,904.953 2204.33,844.546 2206.31,842.056 2208.29,939.211 2210.27,839.623 2212.25,913.547 2214.23,919.306 2216.21,908.128 2218.19,974.991 2220.17,835.545 2222.14,824.914 2224.12,865.91 2226.1,880.741 2228.08,889.661 2230.06,930.078 2232.04,899.053 2234.02,849.652 2236,954.259 2237.98,855.763 2239.96,847.044 2241.94,956.101 2243.92,1020.24 2245.9,906.277 2247.88,988.468 2249.86,1016.86 2251.84,975.753 2253.82,828.621 2255.8,827.499 2257.78,939.422 2259.76,856.108 2261.74,925.959 2263.72,968.976 2265.7,888.727 2267.68,963.693 2269.66,926.61 2271.64,914.368 2273.62,1004.05 2275.6,912.453 2277.58,937.813 2279.56,784.832 2281.54,839.58 2283.52,1147.17 2285.5,804.508 2287.48,1009.36 2289.46,895.835 2291.44,780.011 2293.42,876.887 "></polyline>
<path clip-path="url(#clip140)" d="M1853.61 270.476 L2282.87 270.476 L2282.87 166.796 L1853.61 166.796  Z" fill="#ffffff" fill-rule="evenodd" fill-opacity="1"></path>
<polyline clip-path="url(#clip140)" style="stroke:#000000; stroke-linecap:round; stroke-linejoin:round; stroke-width:4; stroke-opacity:1; fill:none" points="1853.61,270.476 2282.87,270.476 2282.87,166.796 1853.61,166.796 1853.61,270.476 "></polyline>
<polyline clip-path="url(#clip140)" style="stroke:#009af9; stroke-linecap:round; stroke-linejoin:round; stroke-width:4; stroke-opacity:1; fill:none" points="1876.91,218.636 2016.68,218.636 "></polyline>
<path clip-path="url(#clip140)" d="M2062.22 202.49 L2062.22 207.05 Q2059.55 205.777 2057.19 205.152 Q2054.83 204.527 2052.63 204.527 Q2048.81 204.527 2046.73 206.008 Q2044.67 207.49 2044.67 210.221 Q2044.67 212.513 2046.04 213.694 Q2047.42 214.851 2051.27 215.569 L2054.09 216.147 Q2059.32 217.143 2061.8 219.666 Q2064.3 222.166 2064.3 226.379 Q2064.3 231.402 2060.92 233.994 Q2057.56 236.587 2051.06 236.587 Q2048.6 236.587 2045.83 236.031 Q2043.07 235.476 2040.11 234.388 L2040.11 229.573 Q2042.96 231.17 2045.69 231.981 Q2048.42 232.791 2051.06 232.791 Q2055.06 232.791 2057.24 231.217 Q2059.42 229.643 2059.42 226.726 Q2059.42 224.18 2057.84 222.744 Q2056.29 221.309 2052.73 220.592 L2049.88 220.036 Q2044.65 218.995 2042.31 216.772 Q2039.97 214.55 2039.97 210.592 Q2039.97 206.008 2043.19 203.37 Q2046.43 200.731 2052.1 200.731 Q2054.53 200.731 2057.05 201.171 Q2059.58 201.61 2062.22 202.49 Z" fill="#000000" fill-rule="nonzero" fill-opacity="1"></path><path clip-path="url(#clip140)" d="M2071.41 209.99 L2075.66 209.99 L2075.66 235.916 L2071.41 235.916 L2071.41 209.99 M2071.41 199.897 L2075.66 199.897 L2075.66 205.291 L2071.41 205.291 L2071.41 199.897 Z" fill="#000000" fill-rule="nonzero" fill-opacity="1"></path><path clip-path="url(#clip140)" d="M2104.76 214.967 Q2106.36 212.096 2108.58 210.731 Q2110.8 209.365 2113.81 209.365 Q2117.86 209.365 2120.06 212.212 Q2122.26 215.036 2122.26 220.268 L2122.26 235.916 L2117.98 235.916 L2117.98 220.407 Q2117.98 216.68 2116.66 214.874 Q2115.34 213.069 2112.63 213.069 Q2109.32 213.069 2107.4 215.268 Q2105.48 217.467 2105.48 221.263 L2105.48 235.916 L2101.2 235.916 L2101.2 220.407 Q2101.2 216.657 2099.88 214.874 Q2098.56 213.069 2095.8 213.069 Q2092.54 213.069 2090.62 215.291 Q2088.7 217.49 2088.7 221.263 L2088.7 235.916 L2084.41 235.916 L2084.41 209.99 L2088.7 209.99 L2088.7 214.018 Q2090.16 211.633 2092.19 210.499 Q2094.23 209.365 2097.03 209.365 Q2099.85 209.365 2101.82 210.8 Q2103.81 212.235 2104.76 214.967 Z" fill="#000000" fill-rule="nonzero" fill-opacity="1"></path><path clip-path="url(#clip140)" d="M2130.76 209.99 L2135.02 209.99 L2135.02 235.916 L2130.76 235.916 L2130.76 209.99 M2130.76 199.897 L2135.02 199.897 L2135.02 205.291 L2130.76 205.291 L2130.76 199.897 Z" fill="#000000" fill-rule="nonzero" fill-opacity="1"></path><path clip-path="url(#clip140)" d="M2143.93 199.897 L2148.19 199.897 L2148.19 235.916 L2143.93 235.916 L2143.93 199.897 Z" fill="#000000" fill-rule="nonzero" fill-opacity="1"></path><path clip-path="url(#clip140)" d="M2168.88 222.883 Q2163.72 222.883 2161.73 224.064 Q2159.74 225.244 2159.74 228.092 Q2159.74 230.36 2161.22 231.703 Q2162.72 233.022 2165.29 233.022 Q2168.84 233.022 2170.97 230.522 Q2173.12 227.999 2173.12 223.832 L2173.12 222.883 L2168.88 222.883 M2177.38 221.124 L2177.38 235.916 L2173.12 235.916 L2173.12 231.981 Q2171.66 234.342 2169.48 235.476 Q2167.31 236.587 2164.16 236.587 Q2160.18 236.587 2157.82 234.365 Q2155.48 232.119 2155.48 228.369 Q2155.48 223.994 2158.4 221.772 Q2161.34 219.55 2167.15 219.55 L2173.12 219.55 L2173.12 219.133 Q2173.12 216.194 2171.17 214.596 Q2169.25 212.976 2165.76 212.976 Q2163.53 212.976 2161.43 213.508 Q2159.32 214.041 2157.38 215.106 L2157.38 211.17 Q2159.72 210.268 2161.91 209.828 Q2164.11 209.365 2166.2 209.365 Q2171.82 209.365 2174.6 212.282 Q2177.38 215.198 2177.38 221.124 Z" fill="#000000" fill-rule="nonzero" fill-opacity="1"></path><path clip-path="url(#clip140)" d="M2201.17 213.971 Q2200.46 213.555 2199.6 213.37 Q2198.77 213.161 2197.75 213.161 Q2194.14 213.161 2192.19 215.522 Q2190.27 217.86 2190.27 222.258 L2190.27 235.916 L2185.99 235.916 L2185.99 209.99 L2190.27 209.99 L2190.27 214.018 Q2191.61 211.657 2193.77 210.522 Q2195.92 209.365 2199 209.365 Q2199.44 209.365 2199.97 209.434 Q2200.5 209.481 2201.15 209.596 L2201.17 213.971 Z" fill="#000000" fill-rule="nonzero" fill-opacity="1"></path><path clip-path="url(#clip140)" d="M2205.64 209.99 L2209.9 209.99 L2209.9 235.916 L2205.64 235.916 L2205.64 209.99 M2205.64 199.897 L2209.9 199.897 L2209.9 205.291 L2205.64 205.291 L2205.64 199.897 Z" fill="#000000" fill-rule="nonzero" fill-opacity="1"></path><path clip-path="url(#clip140)" d="M2223.03 202.629 L2223.03 209.99 L2231.8 209.99 L2231.8 213.3 L2223.03 213.3 L2223.03 227.374 Q2223.03 230.545 2223.88 231.448 Q2224.76 232.351 2227.42 232.351 L2231.8 232.351 L2231.8 235.916 L2227.42 235.916 Q2222.49 235.916 2220.62 234.087 Q2218.74 232.235 2218.74 227.374 L2218.74 213.3 L2215.62 213.3 L2215.62 209.99 L2218.74 209.99 L2218.74 202.629 L2223.03 202.629 Z" fill="#000000" fill-rule="nonzero" fill-opacity="1"></path><path clip-path="url(#clip140)" d="M2248.19 238.323 Q2246.38 242.953 2244.67 244.365 Q2242.96 245.777 2240.09 245.777 L2236.68 245.777 L2236.68 242.212 L2239.18 242.212 Q2240.94 242.212 2241.91 241.379 Q2242.89 240.545 2244.07 237.443 L2244.83 235.499 L2234.34 209.99 L2238.86 209.99 L2246.96 230.268 L2255.06 209.99 L2259.58 209.99 L2248.19 238.323 Z" fill="#000000" fill-rule="nonzero" fill-opacity="1"></path></svg>