<svg xmlns="http://www.w3.org/2000/svg" xmlns:xlink="http://www.w3.org/1999/xlink" width="600" height="400" viewBox="0 0 2400 1600">
<defs>
  <clipPath id="clip300">
    <rect x="0" y="0" width="2400" height="1600"></rect>
  </clipPath>
</defs>
<path clip-path="url(#clip300)" d="M0 1600 L2400 1600 L2400 8.88178e-14 L0 8.88178e-14  Z" fill="#ffffff" fill-rule="evenodd" fill-opacity="1"></path>
<defs>
  <clipPath id="clip301">
    <rect x="480" y="0" width="1681" height="1600"></rect>
  </clipPath>
</defs>
<path clip-path="url(#clip300)" d="M287.366 1423.18 L2352.76 1423.18 L2352.76 123.472 L287.366 123.472  Z" fill="#ffffff" fill-rule="evenodd" fill-opacity="1"></path>
<defs>
  <clipPath id="clip302">
    <rect x="287" y="123" width="2066" height="1301"></rect>
  </clipPath>
</defs>
<polyline clip-path="url(#clip302)" style="stroke:#000000; stroke-linecap:round; stroke-linejoin:round; stroke-width:2; stroke-opacity:0.1; fill:none" points="343.87,1423.18 343.87,123.472 "></polyline>
<polyline clip-path="url(#clip302)" style="stroke:#000000; stroke-linecap:round; stroke-linejoin:round; stroke-width:2; stroke-opacity:0.1; fill:none" points="831.478,1423.18 831.478,123.472 "></polyline>
<polyline clip-path="url(#clip302)" style="stroke:#000000; stroke-linecap:round; stroke-linejoin:round; stroke-width:2; stroke-opacity:0.1; fill:none" points="1319.09,1423.18 1319.09,123.472 "></polyline>
<polyline clip-path="url(#clip302)" style="stroke:#000000; stroke-linecap:round; stroke-linejoin:round; stroke-width:2; stroke-opacity:0.1; fill:none" points="1806.69,1423.18 1806.69,123.472 "></polyline>
<polyline clip-path="url(#clip302)" style="stroke:#000000; stroke-linecap:round; stroke-linejoin:round; stroke-width:2; stroke-opacity:0.1; fill:none" points="2294.3,1423.18 2294.3,123.472 "></polyline>
<polyline clip-path="url(#clip300)" style="stroke:#000000; stroke-linecap:round; stroke-linejoin:round; stroke-width:4; stroke-opacity:1; fill:none" points="287.366,1423.18 2352.76,1423.18 "></polyline>
<polyline clip-path="url(#clip300)" style="stroke:#000000; stroke-linecap:round; stroke-linejoin:round; stroke-width:4; stroke-opacity:1; fill:none" points="343.87,1423.18 343.87,1404.28 "></polyline>
<polyline clip-path="url(#clip300)" style="stroke:#000000; stroke-linecap:round; stroke-linejoin:round; stroke-width:4; stroke-opacity:1; fill:none" points="831.478,1423.18 831.478,1404.28 "></polyline>
<polyline clip-path="url(#clip300)" style="stroke:#000000; stroke-linecap:round; stroke-linejoin:round; stroke-width:4; stroke-opacity:1; fill:none" points="1319.09,1423.18 1319.09,1404.28 "></polyline>
<polyline clip-path="url(#clip300)" style="stroke:#000000; stroke-linecap:round; stroke-linejoin:round; stroke-width:4; stroke-opacity:1; fill:none" points="1806.69,1423.18 1806.69,1404.28 "></polyline>
<polyline clip-path="url(#clip300)" style="stroke:#000000; stroke-linecap:round; stroke-linejoin:round; stroke-width:4; stroke-opacity:1; fill:none" points="2294.3,1423.18 2294.3,1404.28 "></polyline>
<path clip-path="url(#clip300)" d="M343.87 1454.1 Q340.259 1454.1 338.43 1457.66 Q336.625 1461.2 336.625 1468.33 Q336.625 1475.44 338.43 1479.01 Q340.259 1482.55 343.87 1482.55 Q347.504 1482.55 349.31 1479.01 Q351.138 1475.44 351.138 1468.33 Q351.138 1461.2 349.31 1457.66 Q347.504 1454.1 343.87 1454.1 M343.87 1450.39 Q349.68 1450.39 352.736 1455 Q355.814 1459.58 355.814 1468.33 Q355.814 1477.06 352.736 1481.67 Q349.68 1486.25 343.87 1486.25 Q338.06 1486.25 334.981 1481.67 Q331.926 1477.06 331.926 1468.33 Q331.926 1459.58 334.981 1455 Q338.06 1450.39 343.87 1450.39 Z" fill="#000000" fill-rule="nonzero" fill-opacity="1"></path><path clip-path="url(#clip300)" d="M795.17 1481.64 L811.489 1481.64 L811.489 1485.58 L789.545 1485.58 L789.545 1481.64 Q792.207 1478.89 796.79 1474.26 Q801.397 1469.61 802.577 1468.27 Q804.823 1465.74 805.702 1464.01 Q806.605 1462.25 806.605 1460.56 Q806.605 1457.8 804.661 1456.07 Q802.74 1454.33 799.638 1454.33 Q797.439 1454.33 794.985 1455.09 Q792.554 1455.86 789.777 1457.41 L789.777 1452.69 Q792.601 1451.55 795.054 1450.97 Q797.508 1450.39 799.545 1450.39 Q804.915 1450.39 808.11 1453.08 Q811.304 1455.77 811.304 1460.26 Q811.304 1462.39 810.494 1464.31 Q809.707 1466.2 807.601 1468.8 Q807.022 1469.47 803.92 1472.69 Q800.818 1475.88 795.17 1481.64 Z" fill="#000000" fill-rule="nonzero" fill-opacity="1"></path><path clip-path="url(#clip300)" d="M821.351 1451.02 L839.707 1451.02 L839.707 1454.96 L825.633 1454.96 L825.633 1463.43 Q826.651 1463.08 827.67 1462.92 Q828.688 1462.73 829.707 1462.73 Q835.494 1462.73 838.874 1465.9 Q842.253 1469.08 842.253 1474.49 Q842.253 1480.07 838.781 1483.17 Q835.309 1486.25 828.989 1486.25 Q826.813 1486.25 824.545 1485.88 Q822.3 1485.51 819.892 1484.77 L819.892 1480.07 Q821.976 1481.2 824.198 1481.76 Q826.42 1482.32 828.897 1482.32 Q832.901 1482.32 835.239 1480.21 Q837.577 1478.1 837.577 1474.49 Q837.577 1470.88 835.239 1468.77 Q832.901 1466.67 828.897 1466.67 Q827.022 1466.67 825.147 1467.08 Q823.295 1467.5 821.351 1468.38 L821.351 1451.02 Z" fill="#000000" fill-rule="nonzero" fill-opacity="1"></path><path clip-path="url(#clip300)" d="M861.466 1454.1 Q857.855 1454.1 856.026 1457.66 Q854.221 1461.2 854.221 1468.33 Q854.221 1475.44 856.026 1479.01 Q857.855 1482.55 861.466 1482.55 Q865.1 1482.55 866.906 1479.01 Q868.735 1475.44 868.735 1468.33 Q868.735 1461.2 866.906 1457.66 Q865.1 1454.1 861.466 1454.1 M861.466 1450.39 Q867.276 1450.39 870.332 1455 Q873.41 1459.58 873.41 1468.33 Q873.41 1477.06 870.332 1481.67 Q867.276 1486.25 861.466 1486.25 Q855.656 1486.25 852.577 1481.67 Q849.522 1477.06 849.522 1468.33 Q849.522 1459.58 852.577 1455 Q855.656 1450.39 861.466 1450.39 Z" fill="#000000" fill-rule="nonzero" fill-opacity="1"></path><path clip-path="url(#clip300)" d="M1278.7 1451.02 L1297.06 1451.02 L1297.06 1454.96 L1282.99 1454.96 L1282.99 1463.43 Q1284 1463.08 1285.02 1462.92 Q1286.04 1462.73 1287.06 1462.73 Q1292.85 1462.73 1296.23 1465.9 Q1299.61 1469.08 1299.61 1474.49 Q1299.61 1480.07 1296.13 1483.17 Q1292.66 1486.25 1286.34 1486.25 Q1284.17 1486.25 1281.9 1485.88 Q1279.65 1485.51 1277.25 1484.77 L1277.25 1480.07 Q1279.33 1481.2 1281.55 1481.76 Q1283.77 1482.32 1286.25 1482.32 Q1290.25 1482.32 1292.59 1480.21 Q1294.93 1478.1 1294.93 1474.49 Q1294.93 1470.88 1292.59 1468.77 Q1290.25 1466.67 1286.25 1466.67 Q1284.38 1466.67 1282.5 1467.08 Q1280.65 1467.5 1278.7 1468.38 L1278.7 1451.02 Z" fill="#000000" fill-rule="nonzero" fill-opacity="1"></path><path clip-path="url(#clip300)" d="M1318.82 1454.1 Q1315.21 1454.1 1313.38 1457.66 Q1311.57 1461.2 1311.57 1468.33 Q1311.57 1475.44 1313.38 1479.01 Q1315.21 1482.55 1318.82 1482.55 Q1322.45 1482.55 1324.26 1479.01 Q1326.09 1475.44 1326.09 1468.33 Q1326.09 1461.2 1324.26 1457.66 Q1322.45 1454.1 1318.82 1454.1 M1318.82 1450.39 Q1324.63 1450.39 1327.69 1455 Q1330.76 1459.58 1330.76 1468.33 Q1330.76 1477.06 1327.69 1481.67 Q1324.63 1486.25 1318.82 1486.25 Q1313.01 1486.25 1309.93 1481.67 Q1306.88 1477.06 1306.88 1468.33 Q1306.88 1459.58 1309.93 1455 Q1313.01 1450.39 1318.82 1450.39 Z" fill="#000000" fill-rule="nonzero" fill-opacity="1"></path><path clip-path="url(#clip300)" d="M1348.98 1454.1 Q1345.37 1454.1 1343.54 1457.66 Q1341.74 1461.2 1341.74 1468.33 Q1341.74 1475.44 1343.54 1479.01 Q1345.37 1482.55 1348.98 1482.55 Q1352.62 1482.55 1354.42 1479.01 Q1356.25 1475.44 1356.25 1468.33 Q1356.25 1461.2 1354.42 1457.66 Q1352.62 1454.1 1348.98 1454.1 M1348.98 1450.39 Q1354.79 1450.39 1357.85 1455 Q1360.93 1459.58 1360.93 1468.33 Q1360.93 1477.06 1357.85 1481.67 Q1354.79 1486.25 1348.98 1486.25 Q1343.17 1486.25 1340.09 1481.67 Q1337.04 1477.06 1337.04 1468.33 Q1337.04 1459.58 1340.09 1455 Q1343.17 1450.39 1348.98 1450.39 Z" fill="#000000" fill-rule="nonzero" fill-opacity="1"></path><path clip-path="url(#clip300)" d="M1764.97 1451.02 L1787.19 1451.02 L1787.19 1453.01 L1774.65 1485.58 L1769.76 1485.58 L1781.57 1454.96 L1764.97 1454.96 L1764.97 1451.02 Z" fill="#000000" fill-rule="nonzero" fill-opacity="1"></path><path clip-path="url(#clip300)" d="M1796.36 1451.02 L1814.71 1451.02 L1814.71 1454.96 L1800.64 1454.96 L1800.64 1463.43 Q1801.66 1463.08 1802.68 1462.92 Q1803.7 1462.73 1804.71 1462.73 Q1810.5 1462.73 1813.88 1465.9 Q1817.26 1469.08 1817.26 1474.49 Q1817.26 1480.07 1813.79 1483.17 Q1810.32 1486.25 1804 1486.25 Q1801.82 1486.25 1799.55 1485.88 Q1797.31 1485.51 1794.9 1484.77 L1794.9 1480.07 Q1796.98 1481.2 1799.21 1481.76 Q1801.43 1482.32 1803.9 1482.32 Q1807.91 1482.32 1810.25 1480.21 Q1812.58 1478.1 1812.58 1474.49 Q1812.58 1470.88 1810.25 1468.77 Q1807.91 1466.67 1803.9 1466.67 Q1802.03 1466.67 1800.15 1467.08 Q1798.3 1467.5 1796.36 1468.38 L1796.36 1451.02 Z" fill="#000000" fill-rule="nonzero" fill-opacity="1"></path><path clip-path="url(#clip300)" d="M1836.47 1454.1 Q1832.86 1454.1 1831.03 1457.66 Q1829.23 1461.2 1829.23 1468.33 Q1829.23 1475.44 1831.03 1479.01 Q1832.86 1482.55 1836.47 1482.55 Q1840.11 1482.55 1841.91 1479.01 Q1843.74 1475.44 1843.74 1468.33 Q1843.74 1461.2 1841.91 1457.66 Q1840.11 1454.1 1836.47 1454.1 M1836.47 1450.39 Q1842.28 1450.39 1845.34 1455 Q1848.42 1459.58 1848.42 1468.33 Q1848.42 1477.06 1845.34 1481.67 Q1842.28 1486.25 1836.47 1486.25 Q1830.66 1486.25 1827.58 1481.67 Q1824.53 1477.06 1824.53 1468.33 Q1824.53 1459.58 1827.58 1455 Q1830.66 1450.39 1836.47 1450.39 Z" fill="#000000" fill-rule="nonzero" fill-opacity="1"></path><path clip-path="url(#clip300)" d="M2238.83 1481.64 L2246.47 1481.64 L2246.47 1455.28 L2238.16 1456.95 L2238.16 1452.69 L2246.42 1451.02 L2251.1 1451.02 L2251.1 1481.64 L2258.73 1481.64 L2258.73 1485.58 L2238.83 1485.58 L2238.83 1481.64 Z" fill="#000000" fill-rule="nonzero" fill-opacity="1"></path><path clip-path="url(#clip300)" d="M2278.18 1454.1 Q2274.57 1454.1 2272.74 1457.66 Q2270.93 1461.2 2270.93 1468.33 Q2270.93 1475.44 2272.74 1479.01 Q2274.57 1482.55 2278.18 1482.55 Q2281.81 1482.55 2283.62 1479.01 Q2285.45 1475.44 2285.45 1468.33 Q2285.45 1461.2 2283.62 1457.66 Q2281.81 1454.1 2278.18 1454.1 M2278.18 1450.39 Q2283.99 1450.39 2287.04 1455 Q2290.12 1459.58 2290.12 1468.33 Q2290.12 1477.06 2287.04 1481.67 Q2283.99 1486.25 2278.18 1486.25 Q2272.37 1486.25 2269.29 1481.67 Q2266.23 1477.06 2266.23 1468.33 Q2266.23 1459.58 2269.29 1455 Q2272.37 1450.39 2278.18 1450.39 Z" fill="#000000" fill-rule="nonzero" fill-opacity="1"></path><path clip-path="url(#clip300)" d="M2308.34 1454.1 Q2304.73 1454.1 2302.9 1457.66 Q2301.1 1461.2 2301.1 1468.33 Q2301.1 1475.44 2302.9 1479.01 Q2304.73 1482.55 2308.34 1482.55 Q2311.97 1482.55 2313.78 1479.01 Q2315.61 1475.44 2315.61 1468.33 Q2315.61 1461.2 2313.78 1457.66 Q2311.97 1454.1 2308.34 1454.1 M2308.34 1450.39 Q2314.15 1450.39 2317.21 1455 Q2320.29 1459.58 2320.29 1468.33 Q2320.29 1477.06 2317.21 1481.67 Q2314.15 1486.25 2308.34 1486.25 Q2302.53 1486.25 2299.45 1481.67 Q2296.4 1477.06 2296.4 1468.33 Q2296.4 1459.58 2299.45 1455 Q2302.53 1450.39 2308.34 1450.39 Z" fill="#000000" fill-rule="nonzero" fill-opacity="1"></path><path clip-path="url(#clip300)" d="M2338.5 1454.1 Q2334.89 1454.1 2333.06 1457.66 Q2331.26 1461.2 2331.26 1468.33 Q2331.26 1475.44 2333.06 1479.01 Q2334.89 1482.55 2338.5 1482.55 Q2342.14 1482.55 2343.94 1479.01 Q2345.77 1475.44 2345.77 1468.33 Q2345.77 1461.2 2343.94 1457.66 Q2342.14 1454.1 2338.5 1454.1 M2338.5 1450.39 Q2344.31 1450.39 2347.37 1455 Q2350.45 1459.58 2350.45 1468.33 Q2350.45 1477.06 2347.37 1481.67 Q2344.31 1486.25 2338.5 1486.25 Q2332.69 1486.25 2329.61 1481.67 Q2326.56 1477.06 2326.56 1468.33 Q2326.56 1459.58 2329.61 1455 Q2332.69 1450.39 2338.5 1450.39 Z" fill="#000000" fill-rule="nonzero" fill-opacity="1"></path><path clip-path="url(#clip300)" d="M1234.6 1520.52 L1241.03 1520.52 L1241.03 1568.04 L1234.6 1568.04 L1234.6 1520.52 Z" fill="#000000" fill-rule="nonzero" fill-opacity="1"></path><path clip-path="url(#clip300)" d="M1283.2 1546.53 L1283.2 1568.04 L1277.35 1568.04 L1277.35 1546.72 Q1277.35 1541.66 1275.37 1539.14 Q1273.4 1536.63 1269.45 1536.63 Q1264.71 1536.63 1261.97 1539.65 Q1259.24 1542.68 1259.24 1547.9 L1259.24 1568.04 L1253.35 1568.04 L1253.35 1532.4 L1259.24 1532.4 L1259.24 1537.93 Q1261.34 1534.72 1264.17 1533.13 Q1267.03 1531.54 1270.76 1531.54 Q1276.9 1531.54 1280.05 1535.36 Q1283.2 1539.14 1283.2 1546.53 Z" fill="#000000" fill-rule="nonzero" fill-opacity="1"></path><path clip-path="url(#clip300)" d="M1318.34 1537.81 L1318.34 1518.52 L1324.2 1518.52 L1324.2 1568.04 L1318.34 1568.04 L1318.34 1562.7 Q1316.5 1565.88 1313.66 1567.44 Q1310.86 1568.97 1306.92 1568.97 Q1300.45 1568.97 1296.38 1563.81 Q1292.34 1558.65 1292.34 1550.25 Q1292.34 1541.85 1296.38 1536.69 Q1300.45 1531.54 1306.92 1531.54 Q1310.86 1531.54 1313.66 1533.1 Q1316.5 1534.62 1318.34 1537.81 M1298.39 1550.25 Q1298.39 1556.71 1301.03 1560.4 Q1303.7 1564.07 1308.35 1564.07 Q1312.99 1564.07 1315.67 1560.4 Q1318.34 1556.71 1318.34 1550.25 Q1318.34 1543.79 1315.67 1540.13 Q1312.99 1536.44 1308.35 1536.44 Q1303.7 1536.44 1301.03 1540.13 Q1298.39 1543.79 1298.39 1550.25 Z" fill="#000000" fill-rule="nonzero" fill-opacity="1"></path><path clip-path="url(#clip300)" d="M1366.75 1548.76 L1366.75 1551.62 L1339.83 1551.62 Q1340.21 1557.67 1343.45 1560.85 Q1346.73 1564 1352.56 1564 Q1355.93 1564 1359.08 1563.17 Q1362.27 1562.35 1365.38 1560.69 L1365.38 1566.23 Q1362.23 1567.57 1358.92 1568.27 Q1355.61 1568.97 1352.21 1568.97 Q1343.68 1568.97 1338.68 1564 Q1333.72 1559.04 1333.72 1550.57 Q1333.72 1541.82 1338.43 1536.69 Q1343.17 1531.54 1351.19 1531.54 Q1358.38 1531.54 1362.55 1536.18 Q1366.75 1540.8 1366.75 1548.76 M1360.9 1547.04 Q1360.83 1542.23 1358.19 1539.37 Q1355.58 1536.5 1351.25 1536.5 Q1346.35 1536.5 1343.39 1539.27 Q1340.46 1542.04 1340.02 1547.07 L1360.9 1547.04 Z" fill="#000000" fill-rule="nonzero" fill-opacity="1"></path><path clip-path="url(#clip300)" d="M1404.85 1532.4 L1391.96 1549.74 L1405.52 1568.04 L1398.61 1568.04 L1388.24 1554.04 L1377.86 1568.04 L1370.95 1568.04 L1384.8 1549.39 L1372.13 1532.4 L1379.04 1532.4 L1388.49 1545.1 L1397.95 1532.4 L1404.85 1532.4 Z" fill="#000000" fill-rule="nonzero" fill-opacity="1"></path><polyline clip-path="url(#clip302)" style="stroke:#000000; stroke-linecap:round; stroke-linejoin:round; stroke-width:2; stroke-opacity:0.1; fill:none" points="287.366,1301.14 2352.76,1301.14 "></polyline>
<polyline clip-path="url(#clip302)" style="stroke:#000000; stroke-linecap:round; stroke-linejoin:round; stroke-width:2; stroke-opacity:0.1; fill:none" points="287.366,1099.66 2352.76,1099.66 "></polyline>
<polyline clip-path="url(#clip302)" style="stroke:#000000; stroke-linecap:round; stroke-linejoin:round; stroke-width:2; stroke-opacity:0.1; fill:none" points="287.366,898.177 2352.76,898.177 "></polyline>
<polyline clip-path="url(#clip302)" style="stroke:#000000; stroke-linecap:round; stroke-linejoin:round; stroke-width:2; stroke-opacity:0.1; fill:none" points="287.366,696.695 2352.76,696.695 "></polyline>
<polyline clip-path="url(#clip302)" style="stroke:#000000; stroke-linecap:round; stroke-linejoin:round; stroke-width:2; stroke-opacity:0.1; fill:none" points="287.366,495.212 2352.76,495.212 "></polyline>
<polyline clip-path="url(#clip302)" style="stroke:#000000; stroke-linecap:round; stroke-linejoin:round; stroke-width:2; stroke-opacity:0.1; fill:none" points="287.366,293.729 2352.76,293.729 "></polyline>
<polyline clip-path="url(#clip300)" style="stroke:#000000; stroke-linecap:round; stroke-linejoin:round; stroke-width:4; stroke-opacity:1; fill:none" points="287.366,1423.18 287.366,123.472 "></polyline>
<polyline clip-path="url(#clip300)" style="stroke:#000000; stroke-linecap:round; stroke-linejoin:round; stroke-width:4; stroke-opacity:1; fill:none" points="287.366,1301.14 306.264,1301.14 "></polyline>
<polyline clip-path="url(#clip300)" style="stroke:#000000; stroke-linecap:round; stroke-linejoin:round; stroke-width:4; stroke-opacity:1; fill:none" points="287.366,1099.66 306.264,1099.66 "></polyline>
<polyline clip-path="url(#clip300)" style="stroke:#000000; stroke-linecap:round; stroke-linejoin:round; stroke-width:4; stroke-opacity:1; fill:none" points="287.366,898.177 306.264,898.177 "></polyline>
<polyline clip-path="url(#clip300)" style="stroke:#000000; stroke-linecap:round; stroke-linejoin:round; stroke-width:4; stroke-opacity:1; fill:none" points="287.366,696.695 306.264,696.695 "></polyline>
<polyline clip-path="url(#clip300)" style="stroke:#000000; stroke-linecap:round; stroke-linejoin:round; stroke-width:4; stroke-opacity:1; fill:none" points="287.366,495.212 306.264,495.212 "></polyline>
<polyline clip-path="url(#clip300)" style="stroke:#000000; stroke-linecap:round; stroke-linejoin:round; stroke-width:4; stroke-opacity:1; fill:none" points="287.366,293.729 306.264,293.729 "></polyline>
<path clip-path="url(#clip300)" d="M114.26 1301.59 L143.936 1301.59 L143.936 1305.53 L114.26 1305.53 L114.26 1301.59 Z" fill="#000000" fill-rule="nonzero" fill-opacity="1"></path><path clip-path="url(#clip300)" d="M164.028 1286.94 Q160.417 1286.94 158.589 1290.51 Q156.783 1294.05 156.783 1301.18 Q156.783 1308.28 158.589 1311.85 Q160.417 1315.39 164.028 1315.39 Q167.663 1315.39 169.468 1311.85 Q171.297 1308.28 171.297 1301.18 Q171.297 1294.05 169.468 1290.51 Q167.663 1286.94 164.028 1286.94 M164.028 1283.24 Q169.839 1283.24 172.894 1287.84 Q175.973 1292.43 175.973 1301.18 Q175.973 1309.9 172.894 1314.51 Q169.839 1319.09 164.028 1319.09 Q158.218 1319.09 155.14 1314.51 Q152.084 1309.9 152.084 1301.18 Q152.084 1292.43 155.14 1287.84 Q158.218 1283.24 164.028 1283.24 Z" fill="#000000" fill-rule="nonzero" fill-opacity="1"></path><path clip-path="url(#clip300)" d="M184.19 1312.54 L189.075 1312.54 L189.075 1318.42 L184.19 1318.42 L184.19 1312.54 Z" fill="#000000" fill-rule="nonzero" fill-opacity="1"></path><path clip-path="url(#clip300)" d="M199.306 1283.86 L217.662 1283.86 L217.662 1287.8 L203.588 1287.8 L203.588 1296.27 Q204.607 1295.92 205.625 1295.76 Q206.644 1295.58 207.662 1295.58 Q213.449 1295.58 216.829 1298.75 Q220.209 1301.92 220.209 1307.33 Q220.209 1312.91 216.736 1316.02 Q213.264 1319.09 206.945 1319.09 Q204.769 1319.09 202.5 1318.72 Q200.255 1318.35 197.848 1317.61 L197.848 1312.91 Q199.931 1314.05 202.153 1314.6 Q204.375 1315.16 206.852 1315.16 Q210.857 1315.16 213.195 1313.05 Q215.533 1310.95 215.533 1307.33 Q215.533 1303.72 213.195 1301.62 Q210.857 1299.51 206.852 1299.51 Q204.977 1299.51 203.102 1299.93 Q201.25 1300.34 199.306 1301.22 L199.306 1283.86 Z" fill="#000000" fill-rule="nonzero" fill-opacity="1"></path><path clip-path="url(#clip300)" d="M239.422 1286.94 Q235.81 1286.94 233.982 1290.51 Q232.176 1294.05 232.176 1301.18 Q232.176 1308.28 233.982 1311.85 Q235.81 1315.39 239.422 1315.39 Q243.056 1315.39 244.861 1311.85 Q246.69 1308.28 246.69 1301.18 Q246.69 1294.05 244.861 1290.51 Q243.056 1286.94 239.422 1286.94 M239.422 1283.24 Q245.232 1283.24 248.287 1287.84 Q251.366 1292.43 251.366 1301.18 Q251.366 1309.9 248.287 1314.51 Q245.232 1319.09 239.422 1319.09 Q233.611 1319.09 230.533 1314.51 Q227.477 1309.9 227.477 1301.18 Q227.477 1292.43 230.533 1287.84 Q233.611 1283.24 239.422 1283.24 Z" fill="#000000" fill-rule="nonzero" fill-opacity="1"></path><path clip-path="url(#clip300)" d="M115.256 1100.11 L144.931 1100.11 L144.931 1104.05 L115.256 1104.05 L115.256 1100.11 Z" fill="#000000" fill-rule="nonzero" fill-opacity="1"></path><path clip-path="url(#clip300)" d="M165.024 1085.46 Q161.413 1085.46 159.584 1089.02 Q157.778 1092.57 157.778 1099.69 Q157.778 1106.8 159.584 1110.37 Q161.413 1113.91 165.024 1113.91 Q168.658 1113.91 170.464 1110.37 Q172.292 1106.8 172.292 1099.69 Q172.292 1092.57 170.464 1089.02 Q168.658 1085.46 165.024 1085.46 M165.024 1081.76 Q170.834 1081.76 173.889 1086.36 Q176.968 1090.94 176.968 1099.69 Q176.968 1108.42 173.889 1113.03 Q170.834 1117.61 165.024 1117.61 Q159.214 1117.61 156.135 1113.03 Q153.079 1108.42 153.079 1099.69 Q153.079 1090.94 156.135 1086.36 Q159.214 1081.76 165.024 1081.76 Z" fill="#000000" fill-rule="nonzero" fill-opacity="1"></path><path clip-path="url(#clip300)" d="M185.186 1111.06 L190.07 1111.06 L190.07 1116.94 L185.186 1116.94 L185.186 1111.06 Z" fill="#000000" fill-rule="nonzero" fill-opacity="1"></path><path clip-path="url(#clip300)" d="M204.283 1113 L220.602 1113 L220.602 1116.94 L198.658 1116.94 L198.658 1113 Q201.32 1110.25 205.903 1105.62 Q210.51 1100.97 211.69 1099.63 Q213.936 1097.1 214.815 1095.37 Q215.718 1093.61 215.718 1091.92 Q215.718 1089.16 213.774 1087.43 Q211.852 1085.69 208.75 1085.69 Q206.551 1085.69 204.098 1086.45 Q201.667 1087.22 198.889 1088.77 L198.889 1084.05 Q201.713 1082.91 204.167 1082.33 Q206.621 1081.76 208.658 1081.76 Q214.028 1081.76 217.223 1084.44 Q220.417 1087.13 220.417 1091.62 Q220.417 1093.75 219.607 1095.67 Q218.82 1097.57 216.713 1100.16 Q216.135 1100.83 213.033 1104.05 Q209.931 1107.24 204.283 1113 Z" fill="#000000" fill-rule="nonzero" fill-opacity="1"></path><path clip-path="url(#clip300)" d="M230.463 1082.38 L248.82 1082.38 L248.82 1086.32 L234.746 1086.32 L234.746 1094.79 Q235.764 1094.44 236.783 1094.28 Q237.801 1094.09 238.82 1094.09 Q244.607 1094.09 247.986 1097.26 Q251.366 1100.44 251.366 1105.85 Q251.366 1111.43 247.894 1114.53 Q244.421 1117.61 238.102 1117.61 Q235.926 1117.61 233.658 1117.24 Q231.412 1116.87 229.005 1116.13 L229.005 1111.43 Q231.088 1112.57 233.31 1113.12 Q235.533 1113.68 238.009 1113.68 Q242.014 1113.68 244.352 1111.57 Q246.69 1109.46 246.69 1105.85 Q246.69 1102.24 244.352 1100.13 Q242.014 1098.03 238.009 1098.03 Q236.135 1098.03 234.26 1098.44 Q232.408 1098.86 230.463 1099.74 L230.463 1082.38 Z" fill="#000000" fill-rule="nonzero" fill-opacity="1"></path><path clip-path="url(#clip300)" d="M164.028 883.976 Q160.417 883.976 158.589 887.541 Q156.783 891.083 156.783 898.212 Q156.783 905.319 158.589 908.883 Q160.417 912.425 164.028 912.425 Q167.663 912.425 169.468 908.883 Q171.297 905.319 171.297 898.212 Q171.297 891.083 169.468 887.541 Q167.663 883.976 164.028 883.976 M164.028 880.272 Q169.839 880.272 172.894 884.879 Q175.973 889.462 175.973 898.212 Q175.973 906.939 172.894 911.545 Q169.839 916.129 164.028 916.129 Q158.218 916.129 155.14 911.545 Q152.084 906.939 152.084 898.212 Q152.084 889.462 155.14 884.879 Q158.218 880.272 164.028 880.272 Z" fill="#000000" fill-rule="nonzero" fill-opacity="1"></path><path clip-path="url(#clip300)" d="M184.19 909.578 L189.075 909.578 L189.075 915.457 L184.19 915.457 L184.19 909.578 Z" fill="#000000" fill-rule="nonzero" fill-opacity="1"></path><path clip-path="url(#clip300)" d="M209.26 883.976 Q205.649 883.976 203.82 887.541 Q202.014 891.083 202.014 898.212 Q202.014 905.319 203.82 908.883 Q205.649 912.425 209.26 912.425 Q212.894 912.425 214.699 908.883 Q216.528 905.319 216.528 898.212 Q216.528 891.083 214.699 887.541 Q212.894 883.976 209.26 883.976 M209.26 880.272 Q215.07 880.272 218.125 884.879 Q221.204 889.462 221.204 898.212 Q221.204 906.939 218.125 911.545 Q215.07 916.129 209.26 916.129 Q203.449 916.129 200.371 911.545 Q197.315 906.939 197.315 898.212 Q197.315 889.462 200.371 884.879 Q203.449 880.272 209.26 880.272 Z" fill="#000000" fill-rule="nonzero" fill-opacity="1"></path><path clip-path="url(#clip300)" d="M239.422 883.976 Q235.81 883.976 233.982 887.541 Q232.176 891.083 232.176 898.212 Q232.176 905.319 233.982 908.883 Q235.81 912.425 239.422 912.425 Q243.056 912.425 244.861 908.883 Q246.69 905.319 246.69 898.212 Q246.69 891.083 244.861 887.541 Q243.056 883.976 239.422 883.976 M239.422 880.272 Q245.232 880.272 248.287 884.879 Q251.366 889.462 251.366 898.212 Q251.366 906.939 248.287 911.545 Q245.232 916.129 239.422 916.129 Q233.611 916.129 230.533 911.545 Q227.477 906.939 227.477 898.212 Q227.477 889.462 230.533 884.879 Q233.611 880.272 239.422 880.272 Z" fill="#000000" fill-rule="nonzero" fill-opacity="1"></path><path clip-path="url(#clip300)" d="M165.024 682.493 Q161.413 682.493 159.584 686.058 Q157.778 689.6 157.778 696.729 Q157.778 703.836 159.584 707.401 Q161.413 710.942 165.024 710.942 Q168.658 710.942 170.464 707.401 Q172.292 703.836 172.292 696.729 Q172.292 689.6 170.464 686.058 Q168.658 682.493 165.024 682.493 M165.024 678.79 Q170.834 678.79 173.889 683.396 Q176.968 687.979 176.968 696.729 Q176.968 705.456 173.889 710.063 Q170.834 714.646 165.024 714.646 Q159.214 714.646 156.135 710.063 Q153.079 705.456 153.079 696.729 Q153.079 687.979 156.135 683.396 Q159.214 678.79 165.024 678.79 Z" fill="#000000" fill-rule="nonzero" fill-opacity="1"></path><path clip-path="url(#clip300)" d="M185.186 708.095 L190.07 708.095 L190.07 713.975 L185.186 713.975 L185.186 708.095 Z" fill="#000000" fill-rule="nonzero" fill-opacity="1"></path><path clip-path="url(#clip300)" d="M204.283 710.039 L220.602 710.039 L220.602 713.975 L198.658 713.975 L198.658 710.039 Q201.32 707.285 205.903 702.655 Q210.51 698.003 211.69 696.66 Q213.936 694.137 214.815 692.401 Q215.718 690.641 215.718 688.952 Q215.718 686.197 213.774 684.461 Q211.852 682.725 208.75 682.725 Q206.551 682.725 204.098 683.489 Q201.667 684.253 198.889 685.804 L198.889 681.081 Q201.713 679.947 204.167 679.368 Q206.621 678.79 208.658 678.79 Q214.028 678.79 217.223 681.475 Q220.417 684.16 220.417 688.651 Q220.417 690.78 219.607 692.702 Q218.82 694.6 216.713 697.192 Q216.135 697.864 213.033 701.081 Q209.931 704.276 204.283 710.039 Z" fill="#000000" fill-rule="nonzero" fill-opacity="1"></path><path clip-path="url(#clip300)" d="M230.463 679.415 L248.82 679.415 L248.82 683.35 L234.746 683.35 L234.746 691.822 Q235.764 691.475 236.783 691.313 Q237.801 691.128 238.82 691.128 Q244.607 691.128 247.986 694.299 Q251.366 697.47 251.366 702.887 Q251.366 708.465 247.894 711.567 Q244.421 714.646 238.102 714.646 Q235.926 714.646 233.658 714.276 Q231.412 713.905 229.005 713.164 L229.005 708.465 Q231.088 709.6 233.31 710.155 Q235.533 710.711 238.009 710.711 Q242.014 710.711 244.352 708.604 Q246.69 706.498 246.69 702.887 Q246.69 699.276 244.352 697.169 Q242.014 695.063 238.009 695.063 Q236.135 695.063 234.26 695.479 Q232.408 695.896 230.463 696.776 L230.463 679.415 Z" fill="#000000" fill-rule="nonzero" fill-opacity="1"></path><path clip-path="url(#clip300)" d="M164.028 481.011 Q160.417 481.011 158.589 484.575 Q156.783 488.117 156.783 495.247 Q156.783 502.353 158.589 505.918 Q160.417 509.46 164.028 509.46 Q167.663 509.46 169.468 505.918 Q171.297 502.353 171.297 495.247 Q171.297 488.117 169.468 484.575 Q167.663 481.011 164.028 481.011 M164.028 477.307 Q169.839 477.307 172.894 481.913 Q175.973 486.497 175.973 495.247 Q175.973 503.973 172.894 508.58 Q169.839 513.163 164.028 513.163 Q158.218 513.163 155.14 508.58 Q152.084 503.973 152.084 495.247 Q152.084 486.497 155.14 481.913 Q158.218 477.307 164.028 477.307 Z" fill="#000000" fill-rule="nonzero" fill-opacity="1"></path><path clip-path="url(#clip300)" d="M184.19 506.612 L189.075 506.612 L189.075 512.492 L184.19 512.492 L184.19 506.612 Z" fill="#000000" fill-rule="nonzero" fill-opacity="1"></path><path clip-path="url(#clip300)" d="M199.306 477.932 L217.662 477.932 L217.662 481.867 L203.588 481.867 L203.588 490.339 Q204.607 489.992 205.625 489.83 Q206.644 489.645 207.662 489.645 Q213.449 489.645 216.829 492.816 Q220.209 495.987 220.209 501.404 Q220.209 506.983 216.736 510.085 Q213.264 513.163 206.945 513.163 Q204.769 513.163 202.5 512.793 Q200.255 512.422 197.848 511.682 L197.848 506.983 Q199.931 508.117 202.153 508.672 Q204.375 509.228 206.852 509.228 Q210.857 509.228 213.195 507.122 Q215.533 505.015 215.533 501.404 Q215.533 497.793 213.195 495.686 Q210.857 493.58 206.852 493.58 Q204.977 493.58 203.102 493.997 Q201.25 494.413 199.306 495.293 L199.306 477.932 Z" fill="#000000" fill-rule="nonzero" fill-opacity="1"></path><path clip-path="url(#clip300)" d="M239.422 481.011 Q235.81 481.011 233.982 484.575 Q232.176 488.117 232.176 495.247 Q232.176 502.353 233.982 505.918 Q235.81 509.46 239.422 509.46 Q243.056 509.46 244.861 505.918 Q246.69 502.353 246.69 495.247 Q246.69 488.117 244.861 484.575 Q243.056 481.011 239.422 481.011 M239.422 477.307 Q245.232 477.307 248.287 481.913 Q251.366 486.497 251.366 495.247 Q251.366 503.973 248.287 508.58 Q245.232 513.163 239.422 513.163 Q233.611 513.163 230.533 508.58 Q227.477 503.973 227.477 495.247 Q227.477 486.497 230.533 481.913 Q233.611 477.307 239.422 477.307 Z" fill="#000000" fill-rule="nonzero" fill-opacity="1"></path><path clip-path="url(#clip300)" d="M165.024 279.528 Q161.413 279.528 159.584 283.093 Q157.778 286.634 157.778 293.764 Q157.778 300.87 159.584 304.435 Q161.413 307.977 165.024 307.977 Q168.658 307.977 170.464 304.435 Q172.292 300.87 172.292 293.764 Q172.292 286.634 170.464 283.093 Q168.658 279.528 165.024 279.528 M165.024 275.824 Q170.834 275.824 173.889 280.431 Q176.968 285.014 176.968 293.764 Q176.968 302.491 173.889 307.097 Q170.834 311.68 165.024 311.68 Q159.214 311.68 156.135 307.097 Q153.079 302.491 153.079 293.764 Q153.079 285.014 156.135 280.431 Q159.214 275.824 165.024 275.824 Z" fill="#000000" fill-rule="nonzero" fill-opacity="1"></path><path clip-path="url(#clip300)" d="M185.186 305.13 L190.07 305.13 L190.07 311.009 L185.186 311.009 L185.186 305.13 Z" fill="#000000" fill-rule="nonzero" fill-opacity="1"></path><path clip-path="url(#clip300)" d="M199.075 276.449 L221.297 276.449 L221.297 278.44 L208.75 311.009 L203.866 311.009 L215.672 280.384 L199.075 280.384 L199.075 276.449 Z" fill="#000000" fill-rule="nonzero" fill-opacity="1"></path><path clip-path="url(#clip300)" d="M230.463 276.449 L248.82 276.449 L248.82 280.384 L234.746 280.384 L234.746 288.857 Q235.764 288.509 236.783 288.347 Q237.801 288.162 238.82 288.162 Q244.607 288.162 247.986 291.333 Q251.366 294.505 251.366 299.921 Q251.366 305.5 247.894 308.602 Q244.421 311.68 238.102 311.68 Q235.926 311.68 233.658 311.31 Q231.412 310.94 229.005 310.199 L229.005 305.5 Q231.088 306.634 233.31 307.19 Q235.533 307.745 238.009 307.745 Q242.014 307.745 244.352 305.639 Q246.69 303.532 246.69 299.921 Q246.69 296.31 244.352 294.204 Q242.014 292.097 238.009 292.097 Q236.135 292.097 234.26 292.514 Q232.408 292.931 230.463 293.81 L230.463 276.449 Z" fill="#000000" fill-rule="nonzero" fill-opacity="1"></path><path clip-path="url(#clip300)" d="M18.0438 893.717 L24.314 893.717 Q22.5634 897.378 21.704 900.624 Q20.8447 903.871 20.8447 906.894 Q20.8447 912.146 22.8817 915.011 Q24.9187 917.843 28.6745 917.843 Q31.8255 917.843 33.4488 915.966 Q35.0402 914.056 36.0269 908.772 L36.8226 904.889 Q38.1912 897.696 41.6605 894.29 Q45.098 890.853 50.8908 890.853 Q57.7976 890.853 61.3624 895.5 Q64.9272 900.115 64.9272 909.059 Q64.9272 912.433 64.1633 916.252 Q63.3994 920.04 61.9035 924.114 L55.2831 924.114 Q57.4793 920.199 58.5933 916.443 Q59.7073 912.687 59.7073 909.059 Q59.7073 903.552 57.543 900.561 Q55.3786 897.569 51.3682 897.569 Q47.8671 897.569 45.8937 899.733 Q43.9204 901.866 42.9337 906.767 L42.1698 910.682 Q40.7375 917.875 37.682 921.09 Q34.6264 924.305 29.1837 924.305 Q22.8817 924.305 19.2532 919.88 Q15.6248 915.424 15.6248 907.626 Q15.6248 904.284 16.2295 900.815 Q16.8343 897.346 18.0438 893.717 Z" fill="#000000" fill-rule="nonzero" fill-opacity="1"></path><path clip-path="url(#clip300)" d="M28.3562 881.081 L28.3562 875.225 L64.0042 875.225 L64.0042 881.081 L28.3562 881.081 M14.479 881.081 L14.479 875.225 L21.895 875.225 L21.895 881.081 L14.479 881.081 Z" fill="#000000" fill-rule="nonzero" fill-opacity="1"></path><path clip-path="url(#clip300)" d="M35.1993 835.217 Q31.2526 833.02 29.3747 829.965 Q27.4968 826.909 27.4968 822.772 Q27.4968 817.202 31.4117 814.178 Q35.2948 811.154 42.4881 811.154 L64.0042 811.154 L64.0042 817.042 L42.679 817.042 Q37.5546 817.042 35.072 818.857 Q32.5894 820.671 32.5894 824.395 Q32.5894 828.946 35.6131 831.588 Q38.6368 834.23 43.8567 834.23 L64.0042 834.23 L64.0042 840.118 L42.679 840.118 Q37.5228 840.118 35.072 841.932 Q32.5894 843.747 32.5894 847.534 Q32.5894 852.022 35.6449 854.664 Q38.6686 857.306 43.8567 857.306 L64.0042 857.306 L64.0042 863.194 L28.3562 863.194 L28.3562 857.306 L33.8944 857.306 Q30.616 855.3 29.0564 852.499 Q27.4968 849.699 27.4968 845.847 Q27.4968 841.964 29.4702 839.259 Q31.4436 836.522 35.1993 835.217 Z" fill="#000000" fill-rule="nonzero" fill-opacity="1"></path><path clip-path="url(#clip300)" d="M28.3562 799.473 L28.3562 793.617 L64.0042 793.617 L64.0042 799.473 L28.3562 799.473 M14.479 799.473 L14.479 793.617 L21.895 793.617 L21.895 799.473 L14.479 799.473 Z" fill="#000000" fill-rule="nonzero" fill-opacity="1"></path><path clip-path="url(#clip300)" d="M14.479 781.363 L14.479 775.506 L64.0042 775.506 L64.0042 781.363 L14.479 781.363 Z" fill="#000000" fill-rule="nonzero" fill-opacity="1"></path><path clip-path="url(#clip300)" d="M46.0847 747.052 Q46.0847 754.149 47.7079 756.887 Q49.3312 759.624 53.2461 759.624 Q56.3653 759.624 58.2114 757.587 Q60.0256 755.518 60.0256 751.985 Q60.0256 747.115 56.5881 744.187 Q53.1188 741.227 47.3897 741.227 L46.0847 741.227 L46.0847 747.052 M43.6657 735.37 L64.0042 735.37 L64.0042 741.227 L58.5933 741.227 Q61.8398 743.232 63.3994 746.224 Q64.9272 749.216 64.9272 753.545 Q64.9272 759.019 61.8716 762.266 Q58.7843 765.48 53.6281 765.48 Q47.6125 765.48 44.5569 761.47 Q41.5014 757.428 41.5014 749.439 L41.5014 741.227 L40.9285 741.227 Q36.8862 741.227 34.6901 743.901 Q32.4621 746.542 32.4621 751.348 Q32.4621 754.404 33.1941 757.3 Q33.9262 760.197 35.3903 762.87 L29.9795 762.87 Q28.7381 759.656 28.1334 756.632 Q27.4968 753.608 27.4968 750.744 Q27.4968 743.009 31.5072 739.19 Q35.5176 735.37 43.6657 735.37 Z" fill="#000000" fill-rule="nonzero" fill-opacity="1"></path><path clip-path="url(#clip300)" d="M33.8307 702.651 Q33.2578 703.637 33.0032 704.815 Q32.7167 705.961 32.7167 707.361 Q32.7167 712.327 35.9632 715 Q39.1779 717.642 45.2253 717.642 L64.0042 717.642 L64.0042 723.53 L28.3562 723.53 L28.3562 717.642 L33.8944 717.642 Q30.6479 715.796 29.0883 712.836 Q27.4968 709.876 27.4968 705.643 Q27.4968 705.038 27.5923 704.306 Q27.656 703.574 27.8151 702.683 L33.8307 702.651 Z" fill="#000000" fill-rule="nonzero" fill-opacity="1"></path><path clip-path="url(#clip300)" d="M28.3562 696.508 L28.3562 690.651 L64.0042 690.651 L64.0042 696.508 L28.3562 696.508 M14.479 696.508 L14.479 690.651 L21.895 690.651 L21.895 696.508 L14.479 696.508 Z" fill="#000000" fill-rule="nonzero" fill-opacity="1"></path><path clip-path="url(#clip300)" d="M18.2347 672.605 L28.3562 672.605 L28.3562 660.542 L32.9077 660.542 L32.9077 672.605 L52.2594 672.605 Q56.6199 672.605 57.8613 671.427 Q59.1026 670.217 59.1026 666.557 L59.1026 660.542 L64.0042 660.542 L64.0042 666.557 Q64.0042 673.337 61.4897 675.915 Q58.9434 678.493 52.2594 678.493 L32.9077 678.493 L32.9077 682.79 L28.3562 682.79 L28.3562 678.493 L18.2347 678.493 L18.2347 672.605 Z" fill="#000000" fill-rule="nonzero" fill-opacity="1"></path><path clip-path="url(#clip300)" d="M67.3143 638.007 Q73.68 640.49 75.6216 642.845 Q77.5631 645.2 77.5631 649.147 L77.5631 653.826 L72.6615 653.826 L72.6615 650.388 Q72.6615 647.969 71.5157 646.633 Q70.3699 645.296 66.1048 643.672 L63.4312 642.622 L28.3562 657.04 L28.3562 650.834 L56.238 639.694 L28.3562 628.554 L28.3562 622.347 L67.3143 638.007 Z" fill="#000000" fill-rule="nonzero" fill-opacity="1"></path><path clip-path="url(#clip300)" d="M799.844 16.7545 L799.844 25.383 Q795.712 21.5346 791.013 19.6307 Q786.354 17.7268 781.088 17.7268 Q770.718 17.7268 765.209 24.0867 Q759.699 30.4061 759.699 42.3968 Q759.699 54.3469 765.209 60.7069 Q770.718 67.0263 781.088 67.0263 Q786.354 67.0263 791.013 65.1223 Q795.712 63.2184 799.844 59.3701 L799.844 67.9175 Q795.55 70.8341 790.729 72.2924 Q785.949 73.7508 780.602 73.7508 Q766.869 73.7508 758.97 65.3654 Q751.071 56.9395 751.071 42.3968 Q751.071 27.8135 758.97 19.4281 Q766.869 11.0023 780.602 11.0023 Q786.03 11.0023 790.81 12.4606 Q795.631 13.8784 799.844 16.7545 Z" fill="#000000" fill-rule="nonzero" fill-opacity="1"></path><path clip-path="url(#clip300)" d="M829.739 32.4315 Q823.744 32.4315 820.26 37.1306 Q816.777 41.7891 816.777 49.9314 Q816.777 58.0738 820.22 62.7728 Q823.704 67.4314 829.739 67.4314 Q835.694 67.4314 839.178 62.7323 Q842.662 58.0333 842.662 49.9314 Q842.662 41.8701 839.178 37.1711 Q835.694 32.4315 829.739 32.4315 M829.739 26.1121 Q839.462 26.1121 845.011 32.4315 Q850.561 38.7509 850.561 49.9314 Q850.561 61.0714 845.011 67.4314 Q839.462 73.7508 829.739 73.7508 Q819.977 73.7508 814.427 67.4314 Q808.918 61.0714 808.918 49.9314 Q808.918 38.7509 814.427 32.4315 Q819.977 26.1121 829.739 26.1121 Z" fill="#000000" fill-rule="nonzero" fill-opacity="1"></path><path clip-path="url(#clip300)" d="M891.84 28.5427 L891.84 35.5912 Q888.68 33.9709 885.277 33.1607 Q881.875 32.3505 878.229 32.3505 Q872.679 32.3505 869.884 34.0519 Q867.129 35.7533 867.129 39.156 Q867.129 41.7486 869.114 43.2475 Q871.099 44.7058 877.095 46.0426 L879.647 46.6097 Q887.586 48.3111 890.908 51.4303 Q894.27 54.509 894.27 60.0587 Q894.27 66.3781 889.247 70.0644 Q884.265 73.7508 875.515 73.7508 Q871.869 73.7508 867.899 73.0216 Q863.97 72.3329 859.595 70.9151 L859.595 63.2184 Q863.727 65.3654 867.737 66.4591 Q871.747 67.5124 875.677 67.5124 Q880.943 67.5124 883.779 65.73 Q886.614 63.9071 886.614 60.6258 Q886.614 57.5877 884.548 55.9673 Q882.523 54.3469 875.596 52.8481 L873.003 52.2405 Q866.076 50.7821 862.997 47.7845 Q859.919 44.7463 859.919 39.4801 Q859.919 33.0797 864.456 29.5959 Q868.993 26.1121 877.338 26.1121 Q881.47 26.1121 885.115 26.7198 Q888.761 27.3274 891.84 28.5427 Z" fill="#000000" fill-rule="nonzero" fill-opacity="1"></path><path clip-path="url(#clip300)" d="M906.14 27.2059 L913.593 27.2059 L913.593 72.576 L906.14 72.576 L906.14 27.2059 M906.14 9.54393 L913.593 9.54393 L913.593 18.9825 L906.14 18.9825 L906.14 9.54393 Z" fill="#000000" fill-rule="nonzero" fill-opacity="1"></path><path clip-path="url(#clip300)" d="M966.903 45.1919 L966.903 72.576 L959.449 72.576 L959.449 45.4349 Q959.449 38.994 956.938 35.7938 Q954.426 32.5936 949.403 32.5936 Q943.367 32.5936 939.884 36.4419 Q936.4 40.2903 936.4 46.9338 L936.4 72.576 L928.906 72.576 L928.906 27.2059 L936.4 27.2059 L936.4 34.2544 Q939.073 30.163 942.679 28.1376 Q946.324 26.1121 951.064 26.1121 Q958.882 26.1121 962.893 30.9732 Q966.903 35.7938 966.903 45.1919 Z" fill="#000000" fill-rule="nonzero" fill-opacity="1"></path><path clip-path="url(#clip300)" d="M1020.58 48.0275 L1020.58 51.6733 L986.307 51.6733 Q986.793 59.3701 990.925 63.421 Q995.097 67.4314 1002.51 67.4314 Q1006.8 67.4314 1010.81 66.3781 Q1014.87 65.3249 1018.84 63.2184 L1018.84 70.267 Q1014.83 71.9684 1010.61 72.8596 Q1006.4 73.7508 1002.06 73.7508 Q991.209 73.7508 984.849 67.4314 Q978.529 61.1119 978.529 50.3365 Q978.529 39.1965 984.525 32.6746 Q990.56 26.1121 1000.77 26.1121 Q1009.92 26.1121 1015.23 32.0264 Q1020.58 37.9003 1020.58 48.0275 M1013.12 45.84 Q1013.04 39.7232 1009.68 36.0774 Q1006.36 32.4315 1000.85 32.4315 Q994.611 32.4315 990.844 35.9558 Q987.117 39.4801 986.55 45.8805 L1013.12 45.84 Z" fill="#000000" fill-rule="nonzero" fill-opacity="1"></path><path clip-path="url(#clip300)" d="M1088.11 28.5427 L1088.11 35.5912 Q1084.95 33.9709 1081.54 33.1607 Q1078.14 32.3505 1074.5 32.3505 Q1068.95 32.3505 1066.15 34.0519 Q1063.4 35.7533 1063.4 39.156 Q1063.4 41.7486 1065.38 43.2475 Q1067.37 44.7058 1073.36 46.0426 L1075.91 46.6097 Q1083.85 48.3111 1087.17 51.4303 Q1090.54 54.509 1090.54 60.0587 Q1090.54 66.3781 1085.51 70.0644 Q1080.53 73.7508 1071.78 73.7508 Q1068.14 73.7508 1064.17 73.0216 Q1060.24 72.3329 1055.86 70.9151 L1055.86 63.2184 Q1059.99 65.3654 1064 66.4591 Q1068.01 67.5124 1071.94 67.5124 Q1077.21 67.5124 1080.04 65.73 Q1082.88 63.9071 1082.88 60.6258 Q1082.88 57.5877 1080.81 55.9673 Q1078.79 54.3469 1071.86 52.8481 L1069.27 52.2405 Q1062.34 50.7821 1059.26 47.7845 Q1056.19 44.7463 1056.19 39.4801 Q1056.19 33.0797 1060.72 29.5959 Q1065.26 26.1121 1073.6 26.1121 Q1077.74 26.1121 1081.38 26.7198 Q1085.03 27.3274 1088.11 28.5427 Z" fill="#000000" fill-rule="nonzero" fill-opacity="1"></path><path clip-path="url(#clip300)" d="M1102.41 27.2059 L1109.86 27.2059 L1109.86 72.576 L1102.41 72.576 L1102.41 27.2059 M1102.41 9.54393 L1109.86 9.54393 L1109.86 18.9825 L1102.41 18.9825 L1102.41 9.54393 Z" fill="#000000" fill-rule="nonzero" fill-opacity="1"></path><path clip-path="url(#clip300)" d="M1160.78 35.9153 Q1163.57 30.8922 1167.46 28.5022 Q1171.35 26.1121 1176.62 26.1121 Q1183.71 26.1121 1187.56 31.0947 Q1191.4 36.0368 1191.4 45.1919 L1191.4 72.576 L1183.91 72.576 L1183.91 45.4349 Q1183.91 38.913 1181.6 35.7533 Q1179.29 32.5936 1174.55 32.5936 Q1168.76 32.5936 1165.4 36.4419 Q1162.04 40.2903 1162.04 46.9338 L1162.04 72.576 L1154.54 72.576 L1154.54 45.4349 Q1154.54 38.8725 1152.23 35.7533 Q1149.92 32.5936 1145.1 32.5936 Q1139.39 32.5936 1136.03 36.4824 Q1132.67 40.3308 1132.67 46.9338 L1132.67 72.576 L1125.17 72.576 L1125.17 27.2059 L1132.67 27.2059 L1132.67 34.2544 Q1135.22 30.082 1138.78 28.0971 Q1142.35 26.1121 1147.25 26.1121 Q1152.19 26.1121 1155.63 28.6237 Q1159.12 31.1352 1160.78 35.9153 Z" fill="#000000" fill-rule="nonzero" fill-opacity="1"></path><path clip-path="url(#clip300)" d="M1235.19 28.5427 L1235.19 35.5912 Q1232.03 33.9709 1228.63 33.1607 Q1225.23 32.3505 1221.58 32.3505 Q1216.03 32.3505 1213.24 34.0519 Q1210.48 35.7533 1210.48 39.156 Q1210.48 41.7486 1212.47 43.2475 Q1214.45 44.7058 1220.45 46.0426 L1223 46.6097 Q1230.94 48.3111 1234.26 51.4303 Q1237.63 54.509 1237.63 60.0587 Q1237.63 66.3781 1232.6 70.0644 Q1227.62 73.7508 1218.87 73.7508 Q1215.22 73.7508 1211.25 73.0216 Q1207.32 72.3329 1202.95 70.9151 L1202.95 63.2184 Q1207.08 65.3654 1211.09 66.4591 Q1215.1 67.5124 1219.03 67.5124 Q1224.3 67.5124 1227.13 65.73 Q1229.97 63.9071 1229.97 60.6258 Q1229.97 57.5877 1227.9 55.9673 Q1225.88 54.3469 1218.95 52.8481 L1216.36 52.2405 Q1209.43 50.7821 1206.35 47.7845 Q1203.27 44.7463 1203.27 39.4801 Q1203.27 33.0797 1207.81 29.5959 Q1212.35 26.1121 1220.69 26.1121 Q1224.82 26.1121 1228.47 26.7198 Q1232.12 27.3274 1235.19 28.5427 Z" fill="#000000" fill-rule="nonzero" fill-opacity="1"></path><path clip-path="url(#clip300)" d="M1308.52 28.9478 L1308.52 35.9153 Q1305.36 34.1734 1302.16 33.3227 Q1299 32.4315 1295.76 32.4315 Q1288.5 32.4315 1284.49 37.0496 Q1280.48 41.6271 1280.48 49.9314 Q1280.48 58.2358 1284.49 62.8538 Q1288.5 67.4314 1295.76 67.4314 Q1299 67.4314 1302.16 66.5807 Q1305.36 65.6895 1308.52 63.9476 L1308.52 70.8341 Q1305.4 72.2924 1302.03 73.0216 Q1298.71 73.7508 1294.95 73.7508 Q1284.7 73.7508 1278.66 67.3098 Q1272.62 60.8689 1272.62 49.9314 Q1272.62 38.832 1278.7 32.472 Q1284.82 26.1121 1295.43 26.1121 Q1298.87 26.1121 1302.16 26.8413 Q1305.44 27.5299 1308.52 28.9478 Z" fill="#000000" fill-rule="nonzero" fill-opacity="1"></path><path clip-path="url(#clip300)" d="M1360.29 48.0275 L1360.29 51.6733 L1326.02 51.6733 Q1326.5 59.3701 1330.63 63.421 Q1334.81 67.4314 1342.22 67.4314 Q1346.51 67.4314 1350.52 66.3781 Q1354.57 65.3249 1358.54 63.2184 L1358.54 70.267 Q1354.53 71.9684 1350.32 72.8596 Q1346.11 73.7508 1341.77 73.7508 Q1330.92 73.7508 1324.56 67.4314 Q1318.24 61.1119 1318.24 50.3365 Q1318.24 39.1965 1324.23 32.6746 Q1330.27 26.1121 1340.48 26.1121 Q1349.63 26.1121 1354.94 32.0264 Q1360.29 37.9003 1360.29 48.0275 M1352.83 45.84 Q1352.75 39.7232 1349.39 36.0774 Q1346.07 32.4315 1340.56 32.4315 Q1334.32 32.4315 1330.55 35.9558 Q1326.83 39.4801 1326.26 45.8805 L1352.83 45.84 Z" fill="#000000" fill-rule="nonzero" fill-opacity="1"></path><path clip-path="url(#clip300)" d="M1372.52 9.54393 L1379.97 9.54393 L1379.97 72.576 L1372.52 72.576 L1372.52 9.54393 Z" fill="#000000" fill-rule="nonzero" fill-opacity="1"></path><path clip-path="url(#clip300)" d="M1395.57 9.54393 L1403.02 9.54393 L1403.02 72.576 L1395.57 72.576 L1395.57 9.54393 Z" fill="#000000" fill-rule="nonzero" fill-opacity="1"></path><path clip-path="url(#clip300)" d="M1463.54 43.8551 Q1457.71 43.8551 1454.35 46.9743 Q1451.03 50.0935 1451.03 55.5622 Q1451.03 61.0309 1454.35 64.1501 Q1457.71 67.2693 1463.54 67.2693 Q1469.38 67.2693 1472.74 64.1501 Q1476.1 60.9904 1476.1 55.5622 Q1476.1 50.0935 1472.74 46.9743 Q1469.42 43.8551 1463.54 43.8551 M1455.36 40.3713 Q1450.09 39.075 1447.14 35.4697 Q1444.22 31.8644 1444.22 26.6793 Q1444.22 19.4281 1449.37 15.2152 Q1454.55 11.0023 1463.54 11.0023 Q1472.58 11.0023 1477.72 15.2152 Q1482.87 19.4281 1482.87 26.6793 Q1482.87 31.8644 1479.91 35.4697 Q1476.99 39.075 1471.77 40.3713 Q1477.68 41.7486 1480.96 45.759 Q1484.28 49.7694 1484.28 55.5622 Q1484.28 64.3527 1478.9 69.0517 Q1473.55 73.7508 1463.54 73.7508 Q1453.54 73.7508 1448.15 69.0517 Q1442.8 64.3527 1442.8 55.5622 Q1442.8 49.7694 1446.13 45.759 Q1449.45 41.7486 1455.36 40.3713 M1452.36 27.4489 Q1452.36 32.148 1455.28 34.7811 Q1458.24 37.4142 1463.54 37.4142 Q1468.81 37.4142 1471.77 34.7811 Q1474.76 32.148 1474.76 27.4489 Q1474.76 22.7499 1471.77 20.1168 Q1468.81 17.4837 1463.54 17.4837 Q1458.24 17.4837 1455.28 20.1168 Q1452.36 22.7499 1452.36 27.4489 Z" fill="#000000" fill-rule="nonzero" fill-opacity="1"></path><path clip-path="url(#clip300)" d="M1498.91 12.096 L1531.03 12.096 L1531.03 18.9825 L1506.4 18.9825 L1506.4 33.8088 Q1508.18 33.2012 1509.97 32.9176 Q1511.75 32.5936 1513.53 32.5936 Q1523.66 32.5936 1529.57 38.1433 Q1535.49 43.6931 1535.49 53.1722 Q1535.49 62.9348 1529.41 68.3631 Q1523.34 73.7508 1512.28 73.7508 Q1508.47 73.7508 1504.5 73.1026 Q1500.57 72.4545 1496.36 71.1582 L1496.36 62.9348 Q1500 64.9198 1503.89 65.892 Q1507.78 66.8642 1512.11 66.8642 Q1519.12 66.8642 1523.21 63.1779 Q1527.31 59.4916 1527.31 53.1722 Q1527.31 46.8528 1523.21 43.1664 Q1519.12 39.4801 1512.11 39.4801 Q1508.83 39.4801 1505.55 40.2093 Q1502.31 40.9384 1498.91 42.4778 L1498.91 12.096 Z" fill="#000000" fill-rule="nonzero" fill-opacity="1"></path><path clip-path="url(#clip300)" d="M1569.11 17.4837 Q1562.79 17.4837 1559.59 23.7221 Q1556.43 29.92 1556.43 42.3968 Q1556.43 54.833 1559.59 61.0714 Q1562.79 67.2693 1569.11 67.2693 Q1575.47 67.2693 1578.63 61.0714 Q1581.83 54.833 1581.83 42.3968 Q1581.83 29.92 1578.63 23.7221 Q1575.47 17.4837 1569.11 17.4837 M1569.11 11.0023 Q1579.28 11.0023 1584.63 19.0636 Q1590.01 27.0843 1590.01 42.3968 Q1590.01 57.6687 1584.63 65.73 Q1579.28 73.7508 1569.11 73.7508 Q1558.94 73.7508 1553.56 65.73 Q1548.21 57.6687 1548.21 42.3968 Q1548.21 27.0843 1553.56 19.0636 Q1558.94 11.0023 1569.11 11.0023 Z" fill="#000000" fill-rule="nonzero" fill-opacity="1"></path><path clip-path="url(#clip300)" d="M1629.71 27.2059 L1637.17 27.2059 L1637.17 72.576 L1629.71 72.576 L1629.71 27.2059 M1629.71 9.54393 L1637.17 9.54393 L1637.17 18.9825 L1629.71 18.9825 L1629.71 9.54393 Z" fill="#000000" fill-rule="nonzero" fill-opacity="1"></path><path clip-path="url(#clip300)" d="M1660.13 14.324 L1660.13 27.2059 L1675.49 27.2059 L1675.49 32.9987 L1660.13 32.9987 L1660.13 57.6282 Q1660.13 63.1779 1661.63 64.7578 Q1663.17 66.3376 1667.83 66.3376 L1675.49 66.3376 L1675.49 72.576 L1667.83 72.576 Q1659.2 72.576 1655.92 69.3758 Q1652.64 66.1351 1652.64 57.6282 L1652.64 32.9987 L1647.17 32.9987 L1647.17 27.2059 L1652.64 27.2059 L1652.64 14.324 L1660.13 14.324 Z" fill="#000000" fill-rule="nonzero" fill-opacity="1"></path><path clip-path="url(#clip300)" d="M1724.1 48.0275 L1724.1 51.6733 L1689.83 51.6733 Q1690.31 59.3701 1694.45 63.421 Q1698.62 67.4314 1706.03 67.4314 Q1710.33 67.4314 1714.34 66.3781 Q1718.39 65.3249 1722.36 63.2184 L1722.36 70.267 Q1718.35 71.9684 1714.13 72.8596 Q1709.92 73.7508 1705.59 73.7508 Q1694.73 73.7508 1688.37 67.4314 Q1682.05 61.1119 1682.05 50.3365 Q1682.05 39.1965 1688.05 32.6746 Q1694.08 26.1121 1704.29 26.1121 Q1713.44 26.1121 1718.75 32.0264 Q1724.1 37.9003 1724.1 48.0275 M1716.64 45.84 Q1716.56 39.7232 1713.2 36.0774 Q1709.88 32.4315 1704.37 32.4315 Q1698.13 32.4315 1694.36 35.9558 Q1690.64 39.4801 1690.07 45.8805 L1716.64 45.84 Z" fill="#000000" fill-rule="nonzero" fill-opacity="1"></path><path clip-path="url(#clip300)" d="M1762.62 34.1734 Q1761.37 33.4443 1759.87 33.1202 Q1758.41 32.7556 1756.63 32.7556 Q1750.31 32.7556 1746.9 36.8875 Q1743.54 40.9789 1743.54 48.6757 L1743.54 72.576 L1736.05 72.576 L1736.05 27.2059 L1743.54 27.2059 L1743.54 34.2544 Q1745.89 30.1225 1749.66 28.1376 Q1753.43 26.1121 1758.81 26.1121 Q1759.58 26.1121 1760.52 26.2337 Q1761.45 26.3147 1762.58 26.5172 L1762.62 34.1734 Z" fill="#000000" fill-rule="nonzero" fill-opacity="1"></path><path clip-path="url(#clip300)" d="M1799.28 65.6895 L1812.65 65.6895 L1812.65 19.5497 L1798.11 22.4663 L1798.11 15.0127 L1812.57 12.096 L1820.75 12.096 L1820.75 65.6895 L1834.12 65.6895 L1834.12 72.576 L1799.28 72.576 L1799.28 65.6895 Z" fill="#000000" fill-rule="nonzero" fill-opacity="1"></path><path clip-path="url(#clip300)" d="M1868.15 17.4837 Q1861.83 17.4837 1858.63 23.7221 Q1855.47 29.92 1855.47 42.3968 Q1855.47 54.833 1858.63 61.0714 Q1861.83 67.2693 1868.15 67.2693 Q1874.51 67.2693 1877.67 61.0714 Q1880.87 54.833 1880.87 42.3968 Q1880.87 29.92 1877.67 23.7221 Q1874.51 17.4837 1868.15 17.4837 M1868.15 11.0023 Q1878.32 11.0023 1883.66 19.0636 Q1889.05 27.0843 1889.05 42.3968 Q1889.05 57.6687 1883.66 65.73 Q1878.32 73.7508 1868.15 73.7508 Q1857.98 73.7508 1852.59 65.73 Q1847.25 57.6687 1847.25 42.3968 Q1847.25 27.0843 1852.59 19.0636 Q1857.98 11.0023 1868.15 11.0023 Z" fill="#000000" fill-rule="nonzero" fill-opacity="1"></path><polyline clip-path="url(#clip302)" style="stroke:#009af9; stroke-linecap:round; stroke-linejoin:round; stroke-width:4; stroke-opacity:1; fill:none" points="345.82,324.881 347.771,346.887 349.721,580.712 351.672,627.118 353.622,605.732 355.572,730.789 357.523,386.061 359.473,261.075 361.424,509.102 363.374,759.214 365.325,309.361 367.275,404.846 369.226,593.304 371.176,531.905 373.126,782.526 375.077,489.539 377.027,438.061 378.978,327.32 380.928,419.283 382.879,571.3 384.829,178.858 386.779,627.193 388.73,613.851 390.68,263.086 392.631,817.262 394.581,301.939 396.532,521.442 398.482,693.83 400.432,556.105 402.383,350.438 404.333,275.958 406.284,321.527 408.234,547.045 410.185,465.624 412.135,306.485 414.085,610.35 416.036,250.728 417.986,407.597 419.937,688.49 421.887,480.945 423.838,310.202 425.788,615.69 427.738,402.519 429.689,563.794 431.639,525.03 433.59,587.828 435.54,327.609 437.491,606.491 439.441,544.193 441.391,591.25 443.342,439.483 445.292,282.258 447.243,427.866 449.193,246.799 451.144,628.427 453.094,610.284 455.045,308.065 456.995,274.477 458.945,314.159 460.896,520.744 462.846,733.724 464.797,513.483 466.747,500.525 468.698,473.033 470.648,545.772 472.598,567.076 474.549,268.694 476.499,257.905 478.45,609.136 480.4,562.702 482.351,278.879 484.301,443.962 486.251,411.05 488.202,272.034 490.152,364.545 492.103,433.093 494.053,561.69 496.004,517.352 497.954,203.594 499.904,592.707 501.855,248.24 503.805,286.409 505.756,340.202 507.706,473.698 509.657,390.335 511.607,816.509 513.557,589.503 515.508,392.871 517.458,494.891 519.409,455.944 521.359,427.296 523.31,257.619 525.26,375.412 527.21,461.987 529.161,831.956 531.111,488.432 533.062,589.053 535.012,568.196 536.963,332.478 538.913,905.274 540.863,553.804 542.814,459.467 544.764,445.705 546.715,160.256 548.665,407.769 550.616,438.191 552.566,573.406 554.517,337.603 556.467,309.506 558.417,234.799 560.368,672.914 562.318,303.381 564.269,573.698 566.219,545.909 568.17,483.678 570.12,346.463 572.07,660.829 574.021,793.797 575.971,457.974 577.922,444.356 579.872,519.446 581.823,599.561 583.773,360.033 585.723,585.793 587.674,514.302 589.624,1037.8 591.575,579.104 593.525,247.372 595.476,444.222 597.426,576.759 599.376,389.141 601.327,537.111 603.277,388.596 605.228,214.652 607.178,456.121 609.129,416.058 611.079,282.721 613.029,556.188 614.98,257.52 616.93,320.357 618.881,377.786 620.831,648.955 622.782,494.915 624.732,633.732 626.682,319.601 628.633,641.057 630.583,565.844 632.534,375.054 634.484,612.106 636.435,325.667 638.385,441.769 640.336,560.84 642.286,345.903 644.236,340.998 646.187,558.284 648.137,540.691 650.088,638.107 652.038,359.291 653.989,555.879 655.939,523.426 657.889,294.541 659.84,623.569 661.79,363.736 663.741,270.979 665.691,255.64 667.642,597.669 669.592,296.194 671.542,440.832 673.493,404.922 675.443,378.987 677.394,335.856 679.344,606.099 681.295,382.592 683.245,389.861 685.195,568.275 687.146,419.031 689.096,587.115 691.047,558.232 692.997,648.164 694.948,440.483 696.898,528.096 698.848,672.275 700.799,604.563 702.749,617.998 704.7,601.381 706.65,311.292 708.601,893.87 710.551,439.558 712.501,396.453 714.452,435.064 716.402,265.968 718.353,339.551 720.303,476.2 722.254,468.348 724.204,333.875 726.154,455.26 728.105,515.189 730.055,433.347 732.006,846.358 733.956,626.036 735.907,668.515 737.857,249.485 739.808,497.833 741.758,191.68 743.708,538.577 745.659,525.257 747.609,421.705 749.56,287.934 751.51,565.248 753.461,312.114 755.411,498.164 757.361,541.459 759.312,373.496 761.262,352.087 763.213,581.336 765.163,566.534 767.114,535.054 769.064,653.655 771.014,258.196 772.965,612.269 774.915,287.715 776.866,689.7 778.816,322.343 780.767,818.085 782.717,663.195 784.667,432.482 786.618,446.683 788.568,391.152 790.519,592.543 792.469,445.05 794.42,314.513 796.37,398.038 798.32,465.795 800.271,483.011 802.221,616.15 804.172,630.607 806.122,627.886 808.073,417.555 810.023,513.246 811.973,524.301 813.924,509.91 815.874,765.94 817.825,389.359 819.775,501.588 821.726,262.917 823.676,581.721 825.627,527.337 827.577,557.001 829.527,713.873 831.478,384.56 833.428,1219.7 835.379,960.853 837.329,1095.79 839.28,1091.7 841.23,565.538 843.18,1110.23 845.131,1051.82 847.081,1058.02 849.032,955.792 850.982,909.025 852.933,890.89 854.883,762.929 856.833,939.645 858.784,803.669 860.734,1160.88 862.685,674.549 864.635,1143.55 866.586,1153.95 868.536,1091.87 870.486,950.305 872.437,882.593 874.387,918.317 876.338,1093.86 878.288,965.826 880.239,1071.08 882.189,789.333 884.139,763.667 886.09,961.333 888.04,1162.4 889.991,1070.55 891.941,1092.11 893.892,371.186 895.842,621.805 897.792,1129.73 899.743,571.586 901.693,972.478 903.644,981.072 905.594,1093.02 907.545,1063.7 909.495,387.289 911.445,1103.36 913.396,664.453 915.346,391.317 917.297,888.43 919.247,813.45 921.198,446.9 923.148,645.332 925.099,832.872 927.049,1057.39 928.999,949.469 930.95,951.182 932.9,644.282 934.851,905.543 936.801,1344.1 938.752,1087.64 940.702,1078.21 942.652,681.099 944.603,1011.03 946.553,1214.24 948.504,956.473 950.454,275.588 952.405,915.53 954.355,922.721 956.305,529.58 958.256,1142.8 960.206,941.659 962.157,1006.66 964.107,837.023 966.058,916.242 968.008,1168.11 969.958,779.817 971.909,808.523 973.859,1084.78 975.81,650.61 977.76,877.393 979.711,811.582 981.661,440.827 983.611,981.276 985.562,825.726 987.512,872.744 989.463,951.077 991.413,1066.89 993.364,601.364 995.314,1027.24 997.264,806.478 999.215,704.105 1001.17,819.694 1003.12,548.847 1005.07,879.706 1007.02,1093.45 1008.97,1065.66 1010.92,838.088 1012.87,986.922 1014.82,946.46 1016.77,857.441 1018.72,992.497 1020.67,678.337 1022.62,843.89 1024.57,557.174 1026.52,1065.29 1028.47,695.691 1030.42,934.953 1032.37,802.062 1034.32,1056.88 1036.27,895.018 1038.22,941.597 1040.17,818.756 1042.12,923.494 1044.07,1083.39 1046.03,677.553 1047.98,440.959 1049.93,749.26 1051.88,1153.76 1053.83,963.158 1055.78,996.028 1057.73,1009.23 1059.68,583.939 1061.63,1101.83 1063.58,766.183 1065.53,956.2 1067.48,741.982 1069.43,745.44 1071.38,1203.3 1073.33,990.23 1075.28,735.517 1077.23,1068.48 1079.18,869.218 1081.13,1076 1083.08,444.63 1085.03,1095.55 1086.98,1019.77 1088.93,819.319 1090.89,923.96 1092.84,1059.39 1094.79,714.086 1096.74,731.106 1098.69,921.603 1100.64,910.571 1102.59,876.637 1104.54,1098.3 1106.49,903.794 1108.44,1014.98 1110.39,1129.7 1112.34,982.758 1114.29,1085.16 1116.24,526.321 1118.19,1040.18 1120.14,1162.89 1122.09,1117.2 1124.04,984.898 1125.99,815.895 1127.94,578.692 1129.89,883.995 1131.84,783.686 1133.79,664.779 1135.75,1039.99 1137.7,1032.11 1139.65,897.74 1141.6,854.638 1143.55,1011.51 1145.5,812.696 1147.45,366.708 1149.4,939.339 1151.35,1092.37 1153.3,698.267 1155.25,1089.45 1157.2,1105.26 1159.15,1023.65 1161.1,672.451 1163.05,643.74 1165,1119.1 1166.95,809.392 1168.9,1115.48 1170.85,804.747 1172.8,786.423 1174.75,649.188 1176.7,1012.97 1178.65,1180 1180.61,994.921 1182.56,1117.65 1184.51,946.32 1186.46,1066.99 1188.41,1039.97 1190.36,852.377 1192.31,660.27 1194.26,784.969 1196.21,914.864 1198.16,1095.39 1200.11,958.728 1202.06,937.125 1204.01,931.271 1205.96,915.227 1207.91,1142.93 1209.86,1084.77 1211.81,662.719 1213.76,715.072 1215.71,1234.63 1217.66,1042.11 1219.61,800.418 1221.56,909.357 1223.51,595.2 1225.46,904.074 1227.42,1048.13 1229.37,884.918 1231.32,617.473 1233.27,874.678 1235.22,1053.34 1237.17,1070.69 1239.12,718.827 1241.07,356.534 1243.02,559.468 1244.97,721.898 1246.92,659.136 1248.87,1094.24 1250.82,827.874 1252.77,945.354 1254.72,406.013 1256.67,895.189 1258.62,900.913 1260.57,1007.42 1262.52,888.016 1264.47,811.469 1266.42,844.889 1268.37,943.239 1270.32,928.753 1272.28,1128.8 1274.23,882.857 1276.18,594.219 1278.13,620.822 1280.08,935.196 1282.03,1119.51 1283.98,973.788 1285.93,1202.98 1287.88,823.779 1289.83,1012.93 1291.78,566.983 1293.73,699.512 1295.68,1008.09 1297.63,898.934 1299.58,801.214 1301.53,499.529 1303.48,1163.51 1305.43,1089.61 1307.38,783.427 1309.33,1077.36 1311.28,705.674 1313.23,1199.15 1315.18,913.308 1317.14,543.879 1319.09,1010.66 1321.04,1133.74 1322.99,1178.69 1324.94,964.245 1326.89,1028.04 1328.84,1180.84 1330.79,983.834 1332.74,856.082 1334.69,790.268 1336.64,939.907 1338.59,949.355 1340.54,1049.5 1342.49,917.957 1344.44,1090.07 1346.39,899.944 1348.34,1211.41 1350.29,1141.85 1352.24,606.436 1354.19,776.359 1356.14,1055.35 1358.09,1141.58 1360.04,1213.58 1362,863.81 1363.95,731.722 1365.9,899.322 1367.85,840.432 1369.8,1137.95 1371.75,1054.66 1373.7,1107.81 1375.65,1015.21 1377.6,514.036 1379.55,1330.45 1381.5,1025.95 1383.45,1115.52 1385.4,986.458 1387.35,1015.2 1389.3,1183.28 1391.25,990.321 1393.2,806.061 1395.15,735.986 1397.1,1095.32 1399.05,965.455 1401,893.445 1402.95,741.049 1404.9,1154.98 1406.86,727.316 1408.81,750.134 1410.76,910.484 1412.71,1141.17 1414.66,588.398 1416.61,977.405 1418.56,955.901 1420.51,1012.43 1422.46,950.21 1424.41,1139.8 1426.36,861.096 1428.31,873.222 1430.26,952.088 1432.21,1050.69 1434.16,969.106 1436.11,1184.14 1438.06,1084.43 1440.01,860.05 1441.96,864.023 1443.91,1146.03 1445.86,976.718 1447.81,1186.78 1449.76,951.408 1451.72,950.626 1453.67,1092.22 1455.62,934.609 1457.57,926.852 1459.52,897.834 1461.47,1308.26 1463.42,926.944 1465.37,1099.94 1467.32,869.801 1469.27,1151.14 1471.22,869.1 1473.17,1227.82 1475.12,984.844 1477.07,1038.84 1479.02,1144.04 1480.97,1119.48 1482.92,688.993 1484.87,927.176 1486.82,888.876 1488.77,893.814 1490.72,928.706 1492.67,1208.96 1494.62,870.128 1496.57,830.316 1498.53,602.633 1500.48,1082.07 1502.43,1371.71 1504.38,1098.55 1506.33,1200.54 1508.28,1187.37 1510.23,933.617 1512.18,976.744 1514.13,1043.04 1516.08,944.136 1518.03,643.133 1519.98,1241.18 1521.93,671.977 1523.88,1069.12 1525.83,1051.63 1527.78,664.398 1529.73,1102.08 1531.68,1202.57 1533.63,1001.96 1535.58,955.568 1537.53,1083.31 1539.48,1085.66 1541.43,638.941 1543.39,1177.06 1545.34,843.244 1547.29,715.214 1549.24,1124.16 1551.19,1247.99 1553.14,900.562 1555.09,936.239 1557.04,1004.25 1558.99,949.355 1560.94,728.257 1562.89,1037.91 1564.84,1103.01 1566.79,1106.23 1568.74,978.831 1570.69,1052.22 1572.64,1167.81 1574.59,1223.22 1576.54,1039.81 1578.49,1035.62 1580.44,1005.09 1582.39,816.467 1584.34,968.935 1586.29,946.464 1588.25,1020.03 1590.2,722.4 1592.15,1228.62 1594.1,1245.41 1596.05,1200.76 1598,1104.32 1599.95,439.539 1601.9,1269.75 1603.85,1130.07 1605.8,1281.85 1607.75,1171.71 1609.7,776.859 1611.65,1369.7 1613.6,1204.24 1615.55,1042.44 1617.5,1069.77 1619.45,1002.28 1621.4,754.42 1623.35,1010.49 1625.3,1091.15 1627.25,1035.47 1629.2,811.049 1631.15,1212.4 1633.11,785.51 1635.06,953.964 1637.01,780.223 1638.96,748.636 1640.91,478.885 1642.86,1164.99 1644.81,1106.28 1646.76,996.476 1648.71,904.827 1650.66,820.805 1652.61,1010.15 1654.56,743.668 1656.51,653.807 1658.46,1386.4 1660.41,1215.39 1662.36,1095.41 1664.31,949.499 1666.26,1105.35 1668.21,1100.87 1670.16,1099.31 1672.11,1127.96 1674.06,730.058 1676.01,738.792 1677.97,1043 1679.92,984.599 1681.87,881.39 1683.82,1092.32 1685.77,1050.81 1687.72,1068.36 1689.67,909.267 1691.62,614.158 1693.57,1062.58 1695.52,1081.67 1697.47,967.782 1699.42,950.219 1701.37,934.461 1703.32,1046.15 1705.27,1046.99 1707.22,1164.98 1709.17,1046.61 1711.12,1108.66 1713.07,1115.97 1715.02,812.669 1716.97,1054.21 1718.92,814.87 1720.87,1269 1722.83,1058.11 1724.78,762.678 1726.73,995.529 1728.68,761.974 1730.63,1016.38 1732.58,1036.63 1734.53,1045.96 1736.48,1161.11 1738.43,1069.58 1740.38,1131.65 1742.33,1012.42 1744.28,790.449 1746.23,694.693 1748.18,1260.85 1750.13,1149.4 1752.08,1106.78 1754.03,1179.12 1755.98,1061.36 1757.93,1302.8 1759.88,1098.45 1761.83,772.79 1763.78,975.083 1765.73,891.282 1767.68,1119.89 1769.64,1171.52 1771.59,1009.49 1773.54,770.909 1775.49,946.291 1777.44,380.84 1779.39,922.767 1781.34,1057.51 1783.29,976.527 1785.24,1080.36 1787.19,852.371 1789.14,912.654 1791.09,857.027 1793.04,1019.19 1794.99,1177.47 1796.94,817.306 1798.89,485.868 1800.84,1201.72 1802.79,1228.01 1804.74,804.484 1806.69,501.064 1808.64,1289.64 1810.59,1217.29 1812.54,1289.37 1814.5,1048.97 1816.45,1226.77 1818.4,1145.57 1820.35,1275.13 1822.3,1280.83 1824.25,1257.01 1826.2,1276.27 1828.15,732.781 1830.1,1161.43 1832.05,1188.18 1834,1235.79 1835.95,1198.2 1837.9,1235.01 1839.85,1214.94 1841.8,1180.44 1843.75,950.082 1845.7,1152.79 1847.65,1083.11 1849.6,1176.13 1851.55,1266.28 1853.5,1282.97 1855.45,1299.3 1857.4,1278.81 1859.36,976.739 1861.31,1145.04 1863.26,1190.04 1865.21,1039.65 1867.16,1272.22 1869.11,1061.06 1871.06,791.54 1873.01,1228.01 1874.96,976.901 1876.91,1211.38 1878.86,1215.38 1880.81,1280.29 1882.76,1073.25 1884.71,950.973 1886.66,1164.07 1888.61,1197.56 1890.56,1256.33 1892.51,1246.68 1894.46,1271.55 1896.41,1142.06 1898.36,1007.51 1900.31,1154.17 1902.26,1151.6 1904.22,1244.63 1906.17,1205.86 1908.12,1197.13 1910.07,1051.7 1912.02,881.505 1913.97,1174.73 1915.92,1159.75 1917.87,1266.12 1919.82,992.133 1921.77,982.444 1923.72,1147.98 1925.67,1255.99 1927.62,961.627 1929.57,1110.76 1931.52,1124.39 1933.47,1053.08 1935.42,1142.32 1937.37,1170.89 1939.32,1213.87 1941.27,765.551 1943.22,1283.47 1945.17,1102.56 1947.12,1195.74 1949.08,1221.47 1951.03,1175.48 1952.98,1229.54 1954.93,1278.81 1956.88,1236.01 1958.83,1312.07 1960.78,1070.72 1962.73,1219.05 1964.68,985.732 1966.63,1195.6 1968.58,928.79 1970.53,1154.87 1972.48,1263.05 1974.43,1183.63 1976.38,1174.15 1978.33,1378.16 1980.28,1104.12 1982.23,1222.67 1984.18,787.935 1986.13,1061.43 1988.08,1184.65 1990.03,1076.35 1991.98,1164.62 1993.94,1261.08 1995.89,677.61 1997.84,1292.01 1999.79,1054.73 2001.74,1223.47 2003.69,1145.36 2005.64,1203.23 2007.59,1221.78 2009.54,1176.58 2011.49,1271.31 2013.44,1269.33 2015.39,1267.44 2017.34,1283.2 2019.29,1194.83 2021.24,1089.07 2023.19,754.483 2025.14,1287.93 2027.09,1342.84 2029.04,1192.65 2030.99,883.973 2032.94,1119.11 2034.89,1232.87 2036.84,1036.55 2038.79,1023.77 2040.75,1237.85 2042.7,1249.96 2044.65,1232.12 2046.6,1240.43 2048.55,1247.8 2050.5,956.833 2052.45,1278.23 2054.4,1090.79 2056.35,1138.29 2058.3,1060.71 2060.25,1192.88 2062.2,788.862 2064.15,1021.56 2066.1,649.559 2068.05,1013.63 2070,1285.1 2071.95,1173.67 2073.9,1112.86 2075.85,1280.7 2077.8,1095.58 2079.75,1252.13 2081.7,1231.01 2083.65,1242.2 2085.61,903.852 2087.56,1031.98 2089.51,1286.76 2091.46,1132.79 2093.41,1285.32 2095.36,1351.79 2097.31,1157.98 2099.26,1284.51 2101.21,1086.03 2103.16,1265.46 2105.11,1169.96 2107.06,1120.61 2109.01,1222.82 2110.96,1209.09 2112.91,785.441 2114.86,1251.65 2116.81,1233.76 2118.76,883.873 2120.71,1107.16 2122.66,1298.97 2124.61,1081.28 2126.56,1155.56 2128.51,1197.28 2130.47,1099.92 2132.42,1083.24 2134.37,905.003 2136.32,1217.84 2138.27,1302.26 2140.22,1201.14 2142.17,1068.05 2144.12,1201.17 2146.07,1226.31 2148.02,1155.02 2149.97,1197.98 2151.92,1176.46 2153.87,1224.03 2155.82,1050.32 2157.77,1024.87 2159.72,1147.76 2161.67,1366.72 2163.62,1249.12 2165.57,998.035 2167.52,1206.92 2169.47,1192.89 2171.42,1271.52 2173.37,1232.98 2175.33,1196.92 2177.28,1048.05 2179.23,1248.85 2181.18,1161.37 2183.13,1302.98 2185.08,1310.86 2187.03,1206.83 2188.98,1198.14 2190.93,1226.22 2192.88,1020.46 2194.83,1192.29 2196.78,1016.78 2198.73,1293.92 2200.68,1203.48 2202.63,1308.38 2204.58,1154.45 2206.53,1272.71 2208.48,1260.65 2210.43,1188.51 2212.38,1270.24 2214.33,1132.6 2216.28,1148.58 2218.23,1212.74 2220.19,950.591 2222.14,1255.66 2224.09,1286.38 2226.04,1220.18 2227.99,1228.66 2229.94,1235.91 2231.89,1266.36 2233.84,1165.16 2235.79,1239.05 2237.74,1050.33 2239.69,1178.25 2241.64,1257.08 2243.59,1174.03 2245.54,1016.72 2247.49,1177.2 2249.44,1089.41 2251.39,1025.07 2253.34,1146.29 2255.29,1308.68 2257.24,1284.77 2259.19,1118.73 2261.14,1221.77 2263.09,1173.54 2265.04,1176.62 2267,1194.46 2268.95,1172.98 2270.9,1190.13 2272.85,1238.41 2274.8,1092.5 2276.75,1280.44 2278.7,1125.03 2280.65,1357.39 2282.6,1325.49 2284.55,697.997 2286.5,1372.38 2288.45,997.374 2290.4,1236.38 2292.35,1382.12 2294.3,1236.6 "></polyline>
<path clip-path="url(#clip300)" d="M1857.77 270.476 L2283.91 270.476 L2283.91 166.796 L1857.77 166.796  Z" fill="#ffffff" fill-rule="evenodd" fill-opacity="1"></path>
<polyline clip-path="url(#clip300)" style="stroke:#000000; stroke-linecap:round; stroke-linejoin:round; stroke-width:4; stroke-opacity:1; fill:none" points="1857.77,270.476 2283.91,270.476 2283.91,166.796 1857.77,166.796 1857.77,270.476 "></polyline>
<polyline clip-path="url(#clip300)" style="stroke:#009af9; stroke-linecap:round; stroke-linejoin:round; stroke-width:4; stroke-opacity:1; fill:none" points="1880.71,218.636 2018.41,218.636 "></polyline>
<path clip-path="url(#clip300)" d="M2063.6 202.49 L2063.6 207.05 Q2060.94 205.777 2058.58 205.152 Q2056.22 204.527 2054.02 204.527 Q2050.2 204.527 2048.11 206.008 Q2046.05 207.49 2046.05 210.221 Q2046.05 212.513 2047.42 213.694 Q2048.81 214.851 2052.65 215.569 L2055.48 216.147 Q2060.71 217.143 2063.18 219.666 Q2065.68 222.166 2065.68 226.379 Q2065.68 231.402 2062.3 233.994 Q2058.95 236.587 2052.44 236.587 Q2049.99 236.587 2047.21 236.031 Q2044.46 235.476 2041.49 234.388 L2041.49 229.573 Q2044.34 231.17 2047.07 231.981 Q2049.8 232.791 2052.44 232.791 Q2056.45 232.791 2058.62 231.217 Q2060.8 229.643 2060.8 226.726 Q2060.8 224.18 2059.23 222.744 Q2057.67 221.309 2054.11 220.592 L2051.26 220.036 Q2046.03 218.995 2043.69 216.772 Q2041.36 214.55 2041.36 210.592 Q2041.36 206.008 2044.57 203.37 Q2047.81 200.731 2053.49 200.731 Q2055.92 200.731 2058.44 201.171 Q2060.96 201.61 2063.6 202.49 Z" fill="#000000" fill-rule="nonzero" fill-opacity="1"></path><path clip-path="url(#clip300)" d="M2072.79 209.99 L2077.05 209.99 L2077.05 235.916 L2072.79 235.916 L2072.79 209.99 M2072.79 199.897 L2077.05 199.897 L2077.05 205.291 L2072.79 205.291 L2072.79 199.897 Z" fill="#000000" fill-rule="nonzero" fill-opacity="1"></path><path clip-path="url(#clip300)" d="M2106.15 214.967 Q2107.74 212.096 2109.97 210.731 Q2112.19 209.365 2115.2 209.365 Q2119.25 209.365 2121.45 212.212 Q2123.65 215.036 2123.65 220.268 L2123.65 235.916 L2119.36 235.916 L2119.36 220.407 Q2119.36 216.68 2118.04 214.874 Q2116.73 213.069 2114.02 213.069 Q2110.71 213.069 2108.79 215.268 Q2106.86 217.467 2106.86 221.263 L2106.86 235.916 L2102.58 235.916 L2102.58 220.407 Q2102.58 216.657 2101.26 214.874 Q2099.94 213.069 2097.19 213.069 Q2093.92 213.069 2092 215.291 Q2090.08 217.49 2090.08 221.263 L2090.08 235.916 L2085.8 235.916 L2085.8 209.99 L2090.08 209.99 L2090.08 214.018 Q2091.54 211.633 2093.58 210.499 Q2095.61 209.365 2098.42 209.365 Q2101.24 209.365 2103.21 210.8 Q2105.2 212.235 2106.15 214.967 Z" fill="#000000" fill-rule="nonzero" fill-opacity="1"></path><path clip-path="url(#clip300)" d="M2132.14 209.99 L2136.4 209.99 L2136.4 235.916 L2132.14 235.916 L2132.14 209.99 M2132.14 199.897 L2136.4 199.897 L2136.4 205.291 L2132.14 205.291 L2132.14 199.897 Z" fill="#000000" fill-rule="nonzero" fill-opacity="1"></path><path clip-path="url(#clip300)" d="M2145.31 199.897 L2149.57 199.897 L2149.57 235.916 L2145.31 235.916 L2145.31 199.897 Z" fill="#000000" fill-rule="nonzero" fill-opacity="1"></path><path clip-path="url(#clip300)" d="M2170.27 222.883 Q2165.1 222.883 2163.11 224.064 Q2161.12 225.244 2161.12 228.092 Q2161.12 230.36 2162.6 231.703 Q2164.11 233.022 2166.68 233.022 Q2170.22 233.022 2172.35 230.522 Q2174.5 227.999 2174.5 223.832 L2174.5 222.883 L2170.27 222.883 M2178.76 221.124 L2178.76 235.916 L2174.5 235.916 L2174.5 231.981 Q2173.04 234.342 2170.87 235.476 Q2168.69 236.587 2165.54 236.587 Q2161.56 236.587 2159.2 234.365 Q2156.86 232.119 2156.86 228.369 Q2156.86 223.994 2159.78 221.772 Q2162.72 219.55 2168.53 219.55 L2174.5 219.55 L2174.5 219.133 Q2174.5 216.194 2172.56 214.596 Q2170.64 212.976 2167.14 212.976 Q2164.92 212.976 2162.81 213.508 Q2160.71 214.041 2158.76 215.106 L2158.76 211.17 Q2161.1 210.268 2163.3 209.828 Q2165.5 209.365 2167.58 209.365 Q2173.21 209.365 2175.98 212.282 Q2178.76 215.198 2178.76 221.124 Z" fill="#000000" fill-rule="nonzero" fill-opacity="1"></path><path clip-path="url(#clip300)" d="M2202.56 213.971 Q2201.84 213.555 2200.98 213.37 Q2200.15 213.161 2199.13 213.161 Q2195.52 213.161 2193.58 215.522 Q2191.66 217.86 2191.66 222.258 L2191.66 235.916 L2187.37 235.916 L2187.37 209.99 L2191.66 209.99 L2191.66 214.018 Q2193 211.657 2195.15 210.522 Q2197.3 209.365 2200.38 209.365 Q2200.82 209.365 2201.35 209.434 Q2201.89 209.481 2202.54 209.596 L2202.56 213.971 Z" fill="#000000" fill-rule="nonzero" fill-opacity="1"></path><path clip-path="url(#clip300)" d="M2207.03 209.99 L2211.29 209.99 L2211.29 235.916 L2207.03 235.916 L2207.03 209.99 M2207.03 199.897 L2211.29 199.897 L2211.29 205.291 L2207.03 205.291 L2207.03 199.897 Z" fill="#000000" fill-rule="nonzero" fill-opacity="1"></path><path clip-path="url(#clip300)" d="M2224.41 202.629 L2224.41 209.99 L2233.18 209.99 L2233.18 213.3 L2224.41 213.3 L2224.41 227.374 Q2224.41 230.545 2225.27 231.448 Q2226.15 232.351 2228.81 232.351 L2233.18 232.351 L2233.18 235.916 L2228.81 235.916 Q2223.88 235.916 2222 234.087 Q2220.13 232.235 2220.13 227.374 L2220.13 213.3 L2217 213.3 L2217 209.99 L2220.13 209.99 L2220.13 202.629 L2224.41 202.629 Z" fill="#000000" fill-rule="nonzero" fill-opacity="1"></path><path clip-path="url(#clip300)" d="M2249.57 238.323 Q2247.77 242.953 2246.05 244.365 Q2244.34 245.777 2241.47 245.777 L2238.07 245.777 L2238.07 242.212 L2240.57 242.212 Q2242.33 242.212 2243.3 241.379 Q2244.27 240.545 2245.45 237.443 L2246.22 235.499 L2235.73 209.99 L2240.24 209.99 L2248.35 230.268 L2256.45 209.99 L2260.96 209.99 L2249.57 238.323 Z" fill="#000000" fill-rule="nonzero" fill-opacity="1"></path></svg>