<svg xmlns="http://www.w3.org/2000/svg" xmlns:xlink="http://www.w3.org/1999/xlink" width="600" height="400" viewBox="0 0 2400 1600">
<defs>
  <clipPath id="clip220">
    <rect x="0" y="0" width="2400" height="1600"></rect>
  </clipPath>
</defs>
<path clip-path="url(#clip220)" d="M0 1600 L2400 1600 L2400 8.88178e-14 L0 8.88178e-14  Z" fill="#ffffff" fill-rule="evenodd" fill-opacity="1"></path>
<defs>
  <clipPath id="clip221">
    <rect x="480" y="0" width="1681" height="1600"></rect>
  </clipPath>
</defs>
<path clip-path="url(#clip220)" d="M256.209 1423.18 L2352.76 1423.18 L2352.76 123.472 L256.209 123.472  Z" fill="#ffffff" fill-rule="evenodd" fill-opacity="1"></path>
<defs>
  <clipPath id="clip222">
    <rect x="256" y="123" width="2098" height="1301"></rect>
  </clipPath>
</defs>
<polyline clip-path="url(#clip222)" style="stroke:#000000; stroke-linecap:round; stroke-linejoin:round; stroke-width:2; stroke-opacity:0.1; fill:none" points="313.565,1423.18 313.565,123.472 "></polyline>
<polyline clip-path="url(#clip222)" style="stroke:#000000; stroke-linecap:round; stroke-linejoin:round; stroke-width:2; stroke-opacity:0.1; fill:none" points="808.529,1423.18 808.529,123.472 "></polyline>
<polyline clip-path="url(#clip222)" style="stroke:#000000; stroke-linecap:round; stroke-linejoin:round; stroke-width:2; stroke-opacity:0.1; fill:none" points="1303.49,1423.18 1303.49,123.472 "></polyline>
<polyline clip-path="url(#clip222)" style="stroke:#000000; stroke-linecap:round; stroke-linejoin:round; stroke-width:2; stroke-opacity:0.1; fill:none" points="1798.46,1423.18 1798.46,123.472 "></polyline>
<polyline clip-path="url(#clip222)" style="stroke:#000000; stroke-linecap:round; stroke-linejoin:round; stroke-width:2; stroke-opacity:0.1; fill:none" points="2293.42,1423.18 2293.42,123.472 "></polyline>
<polyline clip-path="url(#clip220)" style="stroke:#000000; stroke-linecap:round; stroke-linejoin:round; stroke-width:4; stroke-opacity:1; fill:none" points="256.209,1423.18 2352.76,1423.18 "></polyline>
<polyline clip-path="url(#clip220)" style="stroke:#000000; stroke-linecap:round; stroke-linejoin:round; stroke-width:4; stroke-opacity:1; fill:none" points="313.565,1423.18 313.565,1404.28 "></polyline>
<polyline clip-path="url(#clip220)" style="stroke:#000000; stroke-linecap:round; stroke-linejoin:round; stroke-width:4; stroke-opacity:1; fill:none" points="808.529,1423.18 808.529,1404.28 "></polyline>
<polyline clip-path="url(#clip220)" style="stroke:#000000; stroke-linecap:round; stroke-linejoin:round; stroke-width:4; stroke-opacity:1; fill:none" points="1303.49,1423.18 1303.49,1404.28 "></polyline>
<polyline clip-path="url(#clip220)" style="stroke:#000000; stroke-linecap:round; stroke-linejoin:round; stroke-width:4; stroke-opacity:1; fill:none" points="1798.46,1423.18 1798.46,1404.28 "></polyline>
<polyline clip-path="url(#clip220)" style="stroke:#000000; stroke-linecap:round; stroke-linejoin:round; stroke-width:4; stroke-opacity:1; fill:none" points="2293.42,1423.18 2293.42,1404.28 "></polyline>
<path clip-path="url(#clip220)" d="M313.565 1454.1 Q309.954 1454.1 308.125 1457.66 Q306.32 1461.2 306.32 1468.33 Q306.32 1475.44 308.125 1479.01 Q309.954 1482.55 313.565 1482.55 Q317.199 1482.55 319.005 1479.01 Q320.834 1475.44 320.834 1468.33 Q320.834 1461.2 319.005 1457.66 Q317.199 1454.1 313.565 1454.1 M313.565 1450.39 Q319.375 1450.39 322.431 1455 Q325.509 1459.58 325.509 1468.33 Q325.509 1477.06 322.431 1481.67 Q319.375 1486.25 313.565 1486.25 Q307.755 1486.25 304.676 1481.67 Q301.621 1477.06 301.621 1468.33 Q301.621 1459.58 304.676 1455 Q307.755 1450.39 313.565 1450.39 Z" fill="#000000" fill-rule="nonzero" fill-opacity="1"></path><path clip-path="url(#clip220)" d="M772.221 1481.64 L788.54 1481.64 L788.54 1485.58 L766.596 1485.58 L766.596 1481.64 Q769.258 1478.89 773.841 1474.26 Q778.448 1469.61 779.628 1468.27 Q781.874 1465.74 782.753 1464.01 Q783.656 1462.25 783.656 1460.56 Q783.656 1457.8 781.712 1456.07 Q779.79 1454.33 776.689 1454.33 Q774.49 1454.33 772.036 1455.09 Q769.605 1455.86 766.828 1457.41 L766.828 1452.69 Q769.652 1451.55 772.105 1450.97 Q774.559 1450.39 776.596 1450.39 Q781.966 1450.39 785.161 1453.08 Q788.355 1455.77 788.355 1460.26 Q788.355 1462.39 787.545 1464.31 Q786.758 1466.2 784.652 1468.8 Q784.073 1469.47 780.971 1472.69 Q777.869 1475.88 772.221 1481.64 Z" fill="#000000" fill-rule="nonzero" fill-opacity="1"></path><path clip-path="url(#clip220)" d="M798.401 1451.02 L816.758 1451.02 L816.758 1454.96 L802.684 1454.96 L802.684 1463.43 Q803.702 1463.08 804.721 1462.92 Q805.739 1462.73 806.758 1462.73 Q812.545 1462.73 815.924 1465.9 Q819.304 1469.08 819.304 1474.49 Q819.304 1480.07 815.832 1483.17 Q812.36 1486.25 806.04 1486.25 Q803.864 1486.25 801.596 1485.88 Q799.351 1485.51 796.943 1484.77 L796.943 1480.07 Q799.026 1481.2 801.249 1481.76 Q803.471 1482.32 805.948 1482.32 Q809.952 1482.32 812.29 1480.21 Q814.628 1478.1 814.628 1474.49 Q814.628 1470.88 812.29 1468.77 Q809.952 1466.67 805.948 1466.67 Q804.073 1466.67 802.198 1467.08 Q800.346 1467.5 798.401 1468.38 L798.401 1451.02 Z" fill="#000000" fill-rule="nonzero" fill-opacity="1"></path><path clip-path="url(#clip220)" d="M838.517 1454.1 Q834.906 1454.1 833.077 1457.66 Q831.272 1461.2 831.272 1468.33 Q831.272 1475.44 833.077 1479.01 Q834.906 1482.55 838.517 1482.55 Q842.151 1482.55 843.957 1479.01 Q845.785 1475.44 845.785 1468.33 Q845.785 1461.2 843.957 1457.66 Q842.151 1454.1 838.517 1454.1 M838.517 1450.39 Q844.327 1450.39 847.383 1455 Q850.461 1459.58 850.461 1468.33 Q850.461 1477.06 847.383 1481.67 Q844.327 1486.25 838.517 1486.25 Q832.707 1486.25 829.628 1481.67 Q826.573 1477.06 826.573 1468.33 Q826.573 1459.58 829.628 1455 Q832.707 1450.39 838.517 1450.39 Z" fill="#000000" fill-rule="nonzero" fill-opacity="1"></path><path clip-path="url(#clip220)" d="M1263.11 1451.02 L1281.47 1451.02 L1281.47 1454.96 L1267.39 1454.96 L1267.39 1463.43 Q1268.41 1463.08 1269.43 1462.92 Q1270.45 1462.73 1271.47 1462.73 Q1277.25 1462.73 1280.63 1465.9 Q1284.01 1469.08 1284.01 1474.49 Q1284.01 1480.07 1280.54 1483.17 Q1277.07 1486.25 1270.75 1486.25 Q1268.57 1486.25 1266.31 1485.88 Q1264.06 1485.51 1261.65 1484.77 L1261.65 1480.07 Q1263.74 1481.2 1265.96 1481.76 Q1268.18 1482.32 1270.66 1482.32 Q1274.66 1482.32 1277 1480.21 Q1279.34 1478.1 1279.34 1474.49 Q1279.34 1470.88 1277 1468.77 Q1274.66 1466.67 1270.66 1466.67 Q1268.78 1466.67 1266.91 1467.08 Q1265.06 1467.5 1263.11 1468.38 L1263.11 1451.02 Z" fill="#000000" fill-rule="nonzero" fill-opacity="1"></path><path clip-path="url(#clip220)" d="M1303.23 1454.1 Q1299.62 1454.1 1297.79 1457.66 Q1295.98 1461.2 1295.98 1468.33 Q1295.98 1475.44 1297.79 1479.01 Q1299.62 1482.55 1303.23 1482.55 Q1306.86 1482.55 1308.67 1479.01 Q1310.49 1475.44 1310.49 1468.33 Q1310.49 1461.2 1308.67 1457.66 Q1306.86 1454.1 1303.23 1454.1 M1303.23 1450.39 Q1309.04 1450.39 1312.09 1455 Q1315.17 1459.58 1315.17 1468.33 Q1315.17 1477.06 1312.09 1481.67 Q1309.04 1486.25 1303.23 1486.25 Q1297.42 1486.25 1294.34 1481.67 Q1291.28 1477.06 1291.28 1468.33 Q1291.28 1459.58 1294.34 1455 Q1297.42 1450.39 1303.23 1450.39 Z" fill="#000000" fill-rule="nonzero" fill-opacity="1"></path><path clip-path="url(#clip220)" d="M1333.39 1454.1 Q1329.78 1454.1 1327.95 1457.66 Q1326.14 1461.2 1326.14 1468.33 Q1326.14 1475.44 1327.95 1479.01 Q1329.78 1482.55 1333.39 1482.55 Q1337.02 1482.55 1338.83 1479.01 Q1340.66 1475.44 1340.66 1468.33 Q1340.66 1461.2 1338.83 1457.66 Q1337.02 1454.1 1333.39 1454.1 M1333.39 1450.39 Q1339.2 1450.39 1342.25 1455 Q1345.33 1459.58 1345.33 1468.33 Q1345.33 1477.06 1342.25 1481.67 Q1339.2 1486.25 1333.39 1486.25 Q1327.58 1486.25 1324.5 1481.67 Q1321.44 1477.06 1321.44 1468.33 Q1321.44 1459.58 1324.5 1455 Q1327.58 1450.39 1333.39 1450.39 Z" fill="#000000" fill-rule="nonzero" fill-opacity="1"></path><path clip-path="url(#clip220)" d="M1756.73 1451.02 L1778.95 1451.02 L1778.95 1453.01 L1766.41 1485.58 L1761.52 1485.58 L1773.33 1454.96 L1756.73 1454.96 L1756.73 1451.02 Z" fill="#000000" fill-rule="nonzero" fill-opacity="1"></path><path clip-path="url(#clip220)" d="M1788.12 1451.02 L1806.48 1451.02 L1806.48 1454.96 L1792.4 1454.96 L1792.4 1463.43 Q1793.42 1463.08 1794.44 1462.92 Q1795.46 1462.73 1796.48 1462.73 Q1802.26 1462.73 1805.64 1465.9 Q1809.02 1469.08 1809.02 1474.49 Q1809.02 1480.07 1805.55 1483.17 Q1802.08 1486.25 1795.76 1486.25 Q1793.58 1486.25 1791.31 1485.88 Q1789.07 1485.51 1786.66 1484.77 L1786.66 1480.07 Q1788.75 1481.2 1790.97 1481.76 Q1793.19 1482.32 1795.67 1482.32 Q1799.67 1482.32 1802.01 1480.21 Q1804.35 1478.1 1804.35 1474.49 Q1804.35 1470.88 1802.01 1468.77 Q1799.67 1466.67 1795.67 1466.67 Q1793.79 1466.67 1791.92 1467.08 Q1790.06 1467.5 1788.12 1468.38 L1788.12 1451.02 Z" fill="#000000" fill-rule="nonzero" fill-opacity="1"></path><path clip-path="url(#clip220)" d="M1828.24 1454.1 Q1824.62 1454.1 1822.8 1457.66 Q1820.99 1461.2 1820.99 1468.33 Q1820.99 1475.44 1822.8 1479.01 Q1824.62 1482.55 1828.24 1482.55 Q1831.87 1482.55 1833.68 1479.01 Q1835.5 1475.44 1835.5 1468.33 Q1835.5 1461.2 1833.68 1457.66 Q1831.87 1454.1 1828.24 1454.1 M1828.24 1450.39 Q1834.05 1450.39 1837.1 1455 Q1840.18 1459.58 1840.18 1468.33 Q1840.18 1477.06 1837.1 1481.67 Q1834.05 1486.25 1828.24 1486.25 Q1822.43 1486.25 1819.35 1481.67 Q1816.29 1477.06 1816.29 1468.33 Q1816.29 1459.58 1819.35 1455 Q1822.43 1450.39 1828.24 1450.39 Z" fill="#000000" fill-rule="nonzero" fill-opacity="1"></path><path clip-path="url(#clip220)" d="M2237.95 1481.64 L2245.58 1481.64 L2245.58 1455.28 L2237.27 1456.95 L2237.27 1452.69 L2245.54 1451.02 L2250.21 1451.02 L2250.21 1481.64 L2257.85 1481.64 L2257.85 1485.58 L2237.95 1485.58 L2237.95 1481.64 Z" fill="#000000" fill-rule="nonzero" fill-opacity="1"></path><path clip-path="url(#clip220)" d="M2277.3 1454.1 Q2273.69 1454.1 2271.86 1457.66 Q2270.05 1461.2 2270.05 1468.33 Q2270.05 1475.44 2271.86 1479.01 Q2273.69 1482.55 2277.3 1482.55 Q2280.93 1482.55 2282.74 1479.01 Q2284.57 1475.44 2284.57 1468.33 Q2284.57 1461.2 2282.74 1457.66 Q2280.93 1454.1 2277.3 1454.1 M2277.3 1450.39 Q2283.11 1450.39 2286.16 1455 Q2289.24 1459.58 2289.24 1468.33 Q2289.24 1477.06 2286.16 1481.67 Q2283.11 1486.25 2277.3 1486.25 Q2271.49 1486.25 2268.41 1481.67 Q2265.35 1477.06 2265.35 1468.33 Q2265.35 1459.58 2268.41 1455 Q2271.49 1450.39 2277.3 1450.39 Z" fill="#000000" fill-rule="nonzero" fill-opacity="1"></path><path clip-path="url(#clip220)" d="M2307.46 1454.1 Q2303.85 1454.1 2302.02 1457.66 Q2300.21 1461.2 2300.21 1468.33 Q2300.21 1475.44 2302.02 1479.01 Q2303.85 1482.55 2307.46 1482.55 Q2311.09 1482.55 2312.9 1479.01 Q2314.73 1475.44 2314.73 1468.33 Q2314.73 1461.2 2312.9 1457.66 Q2311.09 1454.1 2307.46 1454.1 M2307.46 1450.39 Q2313.27 1450.39 2316.32 1455 Q2319.4 1459.58 2319.4 1468.33 Q2319.4 1477.06 2316.32 1481.67 Q2313.27 1486.25 2307.46 1486.25 Q2301.65 1486.25 2298.57 1481.67 Q2295.51 1477.06 2295.51 1468.33 Q2295.51 1459.58 2298.57 1455 Q2301.65 1450.39 2307.46 1450.39 Z" fill="#000000" fill-rule="nonzero" fill-opacity="1"></path><path clip-path="url(#clip220)" d="M2337.62 1454.1 Q2334.01 1454.1 2332.18 1457.66 Q2330.38 1461.2 2330.38 1468.33 Q2330.38 1475.44 2332.18 1479.01 Q2334.01 1482.55 2337.62 1482.55 Q2341.26 1482.55 2343.06 1479.01 Q2344.89 1475.44 2344.89 1468.33 Q2344.89 1461.2 2343.06 1457.66 Q2341.26 1454.1 2337.62 1454.1 M2337.62 1450.39 Q2343.43 1450.39 2346.49 1455 Q2349.57 1459.58 2349.57 1468.33 Q2349.57 1477.06 2346.49 1481.67 Q2343.43 1486.25 2337.62 1486.25 Q2331.81 1486.25 2328.73 1481.67 Q2325.68 1477.06 2325.68 1468.33 Q2325.68 1459.58 2328.73 1455 Q2331.81 1450.39 2337.62 1450.39 Z" fill="#000000" fill-rule="nonzero" fill-opacity="1"></path><path clip-path="url(#clip220)" d="M1219.02 1520.52 L1225.45 1520.52 L1225.45 1568.04 L1219.02 1568.04 L1219.02 1520.52 Z" fill="#000000" fill-rule="nonzero" fill-opacity="1"></path><path clip-path="url(#clip220)" d="M1267.62 1546.53 L1267.62 1568.04 L1261.77 1568.04 L1261.77 1546.72 Q1261.77 1541.66 1259.8 1539.14 Q1257.82 1536.63 1253.87 1536.63 Q1249.13 1536.63 1246.4 1539.65 Q1243.66 1542.68 1243.66 1547.9 L1243.66 1568.04 L1237.77 1568.04 L1237.77 1532.4 L1243.66 1532.4 L1243.66 1537.93 Q1245.76 1534.72 1248.59 1533.13 Q1251.46 1531.54 1255.18 1531.54 Q1261.32 1531.54 1264.47 1535.36 Q1267.62 1539.14 1267.62 1546.53 Z" fill="#000000" fill-rule="nonzero" fill-opacity="1"></path><path clip-path="url(#clip220)" d="M1302.76 1537.81 L1302.76 1518.52 L1308.62 1518.52 L1308.62 1568.04 L1302.76 1568.04 L1302.76 1562.7 Q1300.92 1565.88 1298.08 1567.44 Q1295.28 1568.97 1291.34 1568.97 Q1284.88 1568.97 1280.8 1563.81 Q1276.76 1558.65 1276.76 1550.25 Q1276.76 1541.85 1280.8 1536.69 Q1284.88 1531.54 1291.34 1531.54 Q1295.28 1531.54 1298.08 1533.1 Q1300.92 1534.62 1302.76 1537.81 M1282.81 1550.25 Q1282.81 1556.71 1285.45 1560.4 Q1288.12 1564.07 1292.77 1564.07 Q1297.42 1564.07 1300.09 1560.4 Q1302.76 1556.71 1302.76 1550.25 Q1302.76 1543.79 1300.09 1540.13 Q1297.42 1536.44 1292.77 1536.44 Q1288.12 1536.44 1285.45 1540.13 Q1282.81 1543.79 1282.81 1550.25 Z" fill="#000000" fill-rule="nonzero" fill-opacity="1"></path><path clip-path="url(#clip220)" d="M1351.17 1548.76 L1351.17 1551.62 L1324.25 1551.62 Q1324.63 1557.67 1327.88 1560.85 Q1331.15 1564 1336.98 1564 Q1340.35 1564 1343.5 1563.17 Q1346.69 1562.35 1349.81 1560.69 L1349.81 1566.23 Q1346.66 1567.57 1343.34 1568.27 Q1340.03 1568.97 1336.63 1568.97 Q1328.1 1568.97 1323.1 1564 Q1318.14 1559.04 1318.14 1550.57 Q1318.14 1541.82 1322.85 1536.69 Q1327.59 1531.54 1335.61 1531.54 Q1342.8 1531.54 1346.97 1536.18 Q1351.17 1540.8 1351.17 1548.76 M1345.32 1547.04 Q1345.25 1542.23 1342.61 1539.37 Q1340 1536.5 1335.67 1536.5 Q1330.77 1536.5 1327.81 1539.27 Q1324.88 1542.04 1324.44 1547.07 L1345.32 1547.04 Z" fill="#000000" fill-rule="nonzero" fill-opacity="1"></path><path clip-path="url(#clip220)" d="M1389.27 1532.4 L1376.38 1549.74 L1389.94 1568.04 L1383.04 1568.04 L1372.66 1554.04 L1362.28 1568.04 L1355.38 1568.04 L1369.22 1549.39 L1356.55 1532.4 L1363.46 1532.4 L1372.91 1545.1 L1382.37 1532.4 L1389.27 1532.4 Z" fill="#000000" fill-rule="nonzero" fill-opacity="1"></path><polyline clip-path="url(#clip222)" style="stroke:#000000; stroke-linecap:round; stroke-linejoin:round; stroke-width:2; stroke-opacity:0.1; fill:none" points="256.209,1157.11 2352.76,1157.11 "></polyline>
<polyline clip-path="url(#clip222)" style="stroke:#000000; stroke-linecap:round; stroke-linejoin:round; stroke-width:2; stroke-opacity:0.1; fill:none" points="256.209,823.856 2352.76,823.856 "></polyline>
<polyline clip-path="url(#clip222)" style="stroke:#000000; stroke-linecap:round; stroke-linejoin:round; stroke-width:2; stroke-opacity:0.1; fill:none" points="256.209,490.607 2352.76,490.607 "></polyline>
<polyline clip-path="url(#clip222)" style="stroke:#000000; stroke-linecap:round; stroke-linejoin:round; stroke-width:2; stroke-opacity:0.1; fill:none" points="256.209,157.358 2352.76,157.358 "></polyline>
<polyline clip-path="url(#clip220)" style="stroke:#000000; stroke-linecap:round; stroke-linejoin:round; stroke-width:4; stroke-opacity:1; fill:none" points="256.209,1423.18 256.209,123.472 "></polyline>
<polyline clip-path="url(#clip220)" style="stroke:#000000; stroke-linecap:round; stroke-linejoin:round; stroke-width:4; stroke-opacity:1; fill:none" points="256.209,1157.11 275.106,1157.11 "></polyline>
<polyline clip-path="url(#clip220)" style="stroke:#000000; stroke-linecap:round; stroke-linejoin:round; stroke-width:4; stroke-opacity:1; fill:none" points="256.209,823.856 275.106,823.856 "></polyline>
<polyline clip-path="url(#clip220)" style="stroke:#000000; stroke-linecap:round; stroke-linejoin:round; stroke-width:4; stroke-opacity:1; fill:none" points="256.209,490.607 275.106,490.607 "></polyline>
<polyline clip-path="url(#clip220)" style="stroke:#000000; stroke-linecap:round; stroke-linejoin:round; stroke-width:4; stroke-opacity:1; fill:none" points="256.209,157.358 275.106,157.358 "></polyline>
<path clip-path="url(#clip220)" d="M114.26 1157.56 L143.936 1157.56 L143.936 1161.49 L114.26 1161.49 L114.26 1157.56 Z" fill="#000000" fill-rule="nonzero" fill-opacity="1"></path><path clip-path="url(#clip220)" d="M164.028 1142.9 Q160.417 1142.9 158.589 1146.47 Q156.783 1150.01 156.783 1157.14 Q156.783 1164.25 158.589 1167.81 Q160.417 1171.35 164.028 1171.35 Q167.663 1171.35 169.468 1167.81 Q171.297 1164.25 171.297 1157.14 Q171.297 1150.01 169.468 1146.47 Q167.663 1142.9 164.028 1142.9 M164.028 1139.2 Q169.839 1139.2 172.894 1143.81 Q175.973 1148.39 175.973 1157.14 Q175.973 1165.87 172.894 1170.47 Q169.839 1175.06 164.028 1175.06 Q158.218 1175.06 155.14 1170.47 Q152.084 1165.87 152.084 1157.14 Q152.084 1148.39 155.14 1143.81 Q158.218 1139.2 164.028 1139.2 Z" fill="#000000" fill-rule="nonzero" fill-opacity="1"></path><path clip-path="url(#clip220)" d="M184.19 1168.51 L189.075 1168.51 L189.075 1174.39 L184.19 1174.39 L184.19 1168.51 Z" fill="#000000" fill-rule="nonzero" fill-opacity="1"></path><path clip-path="url(#clip220)" d="M199.306 1139.83 L217.662 1139.83 L217.662 1143.76 L203.588 1143.76 L203.588 1152.23 Q204.607 1151.89 205.625 1151.72 Q206.644 1151.54 207.662 1151.54 Q213.449 1151.54 216.829 1154.71 Q220.209 1157.88 220.209 1163.3 Q220.209 1168.88 216.736 1171.98 Q213.264 1175.06 206.945 1175.06 Q204.769 1175.06 202.5 1174.69 Q200.255 1174.32 197.848 1173.58 L197.848 1168.88 Q199.931 1170.01 202.153 1170.57 Q204.375 1171.12 206.852 1171.12 Q210.857 1171.12 213.195 1169.02 Q215.533 1166.91 215.533 1163.3 Q215.533 1159.69 213.195 1157.58 Q210.857 1155.47 206.852 1155.47 Q204.977 1155.47 203.102 1155.89 Q201.25 1156.31 199.306 1157.19 L199.306 1139.83 Z" fill="#000000" fill-rule="nonzero" fill-opacity="1"></path><path clip-path="url(#clip220)" d="M163.033 809.655 Q159.422 809.655 157.593 813.22 Q155.788 816.761 155.788 823.891 Q155.788 830.998 157.593 834.562 Q159.422 838.104 163.033 838.104 Q166.667 838.104 168.473 834.562 Q170.302 830.998 170.302 823.891 Q170.302 816.761 168.473 813.22 Q166.667 809.655 163.033 809.655 M163.033 805.951 Q168.843 805.951 171.899 810.558 Q174.977 815.141 174.977 823.891 Q174.977 832.618 171.899 837.224 Q168.843 841.808 163.033 841.808 Q157.223 841.808 154.144 837.224 Q151.089 832.618 151.089 823.891 Q151.089 815.141 154.144 810.558 Q157.223 805.951 163.033 805.951 Z" fill="#000000" fill-rule="nonzero" fill-opacity="1"></path><path clip-path="url(#clip220)" d="M183.195 835.257 L188.079 835.257 L188.079 841.136 L183.195 841.136 L183.195 835.257 Z" fill="#000000" fill-rule="nonzero" fill-opacity="1"></path><path clip-path="url(#clip220)" d="M208.264 809.655 Q204.653 809.655 202.824 813.22 Q201.019 816.761 201.019 823.891 Q201.019 830.998 202.824 834.562 Q204.653 838.104 208.264 838.104 Q211.899 838.104 213.704 834.562 Q215.533 830.998 215.533 823.891 Q215.533 816.761 213.704 813.22 Q211.899 809.655 208.264 809.655 M208.264 805.951 Q214.074 805.951 217.13 810.558 Q220.209 815.141 220.209 823.891 Q220.209 832.618 217.13 837.224 Q214.074 841.808 208.264 841.808 Q202.454 841.808 199.375 837.224 Q196.32 832.618 196.32 823.891 Q196.32 815.141 199.375 810.558 Q202.454 805.951 208.264 805.951 Z" fill="#000000" fill-rule="nonzero" fill-opacity="1"></path><path clip-path="url(#clip220)" d="M164.028 476.406 Q160.417 476.406 158.589 479.971 Q156.783 483.512 156.783 490.642 Q156.783 497.748 158.589 501.313 Q160.417 504.855 164.028 504.855 Q167.663 504.855 169.468 501.313 Q171.297 497.748 171.297 490.642 Q171.297 483.512 169.468 479.971 Q167.663 476.406 164.028 476.406 M164.028 472.702 Q169.839 472.702 172.894 477.309 Q175.973 481.892 175.973 490.642 Q175.973 499.369 172.894 503.975 Q169.839 508.559 164.028 508.559 Q158.218 508.559 155.14 503.975 Q152.084 499.369 152.084 490.642 Q152.084 481.892 155.14 477.309 Q158.218 472.702 164.028 472.702 Z" fill="#000000" fill-rule="nonzero" fill-opacity="1"></path><path clip-path="url(#clip220)" d="M184.19 502.008 L189.075 502.008 L189.075 507.887 L184.19 507.887 L184.19 502.008 Z" fill="#000000" fill-rule="nonzero" fill-opacity="1"></path><path clip-path="url(#clip220)" d="M199.306 473.327 L217.662 473.327 L217.662 477.262 L203.588 477.262 L203.588 485.735 Q204.607 485.387 205.625 485.225 Q206.644 485.04 207.662 485.04 Q213.449 485.04 216.829 488.211 Q220.209 491.383 220.209 496.799 Q220.209 502.378 216.736 505.48 Q213.264 508.559 206.945 508.559 Q204.769 508.559 202.5 508.188 Q200.255 507.818 197.848 507.077 L197.848 502.378 Q199.931 503.512 202.153 504.068 Q204.375 504.623 206.852 504.623 Q210.857 504.623 213.195 502.517 Q215.533 500.41 215.533 496.799 Q215.533 493.188 213.195 491.082 Q210.857 488.975 206.852 488.975 Q204.977 488.975 203.102 489.392 Q201.25 489.809 199.306 490.688 L199.306 473.327 Z" fill="#000000" fill-rule="nonzero" fill-opacity="1"></path><path clip-path="url(#clip220)" d="M153.843 170.703 L161.482 170.703 L161.482 144.337 L153.172 146.004 L153.172 141.745 L161.436 140.078 L166.112 140.078 L166.112 170.703 L173.751 170.703 L173.751 174.638 L153.843 174.638 L153.843 170.703 Z" fill="#000000" fill-rule="nonzero" fill-opacity="1"></path><path clip-path="url(#clip220)" d="M183.195 168.759 L188.079 168.759 L188.079 174.638 L183.195 174.638 L183.195 168.759 Z" fill="#000000" fill-rule="nonzero" fill-opacity="1"></path><path clip-path="url(#clip220)" d="M208.264 143.157 Q204.653 143.157 202.824 146.722 Q201.019 150.263 201.019 157.393 Q201.019 164.499 202.824 168.064 Q204.653 171.606 208.264 171.606 Q211.899 171.606 213.704 168.064 Q215.533 164.499 215.533 157.393 Q215.533 150.263 213.704 146.722 Q211.899 143.157 208.264 143.157 M208.264 139.453 Q214.074 139.453 217.13 144.06 Q220.209 148.643 220.209 157.393 Q220.209 166.12 217.13 170.726 Q214.074 175.309 208.264 175.309 Q202.454 175.309 199.375 170.726 Q196.32 166.12 196.32 157.393 Q196.32 148.643 199.375 144.06 Q202.454 139.453 208.264 139.453 Z" fill="#000000" fill-rule="nonzero" fill-opacity="1"></path><path clip-path="url(#clip220)" d="M18.0438 893.717 L24.314 893.717 Q22.5634 897.378 21.704 900.624 Q20.8447 903.871 20.8447 906.894 Q20.8447 912.146 22.8817 915.011 Q24.9187 917.843 28.6745 917.843 Q31.8255 917.843 33.4488 915.966 Q35.0402 914.056 36.0269 908.772 L36.8226 904.889 Q38.1912 897.696 41.6605 894.29 Q45.098 890.853 50.8908 890.853 Q57.7976 890.853 61.3624 895.5 Q64.9272 900.115 64.9272 909.059 Q64.9272 912.433 64.1633 916.252 Q63.3994 920.04 61.9035 924.114 L55.2831 924.114 Q57.4793 920.199 58.5933 916.443 Q59.7073 912.687 59.7073 909.059 Q59.7073 903.552 57.543 900.561 Q55.3786 897.569 51.3682 897.569 Q47.8671 897.569 45.8937 899.733 Q43.9204 901.866 42.9337 906.767 L42.1698 910.682 Q40.7375 917.875 37.682 921.09 Q34.6264 924.305 29.1837 924.305 Q22.8817 924.305 19.2532 919.88 Q15.6248 915.424 15.6248 907.626 Q15.6248 904.284 16.2295 900.815 Q16.8343 897.346 18.0438 893.717 Z" fill="#000000" fill-rule="nonzero" fill-opacity="1"></path><path clip-path="url(#clip220)" d="M28.3562 881.081 L28.3562 875.225 L64.0042 875.225 L64.0042 881.081 L28.3562 881.081 M14.479 881.081 L14.479 875.225 L21.895 875.225 L21.895 881.081 L14.479 881.081 Z" fill="#000000" fill-rule="nonzero" fill-opacity="1"></path><path clip-path="url(#clip220)" d="M35.1993 835.217 Q31.2526 833.02 29.3747 829.965 Q27.4968 826.909 27.4968 822.772 Q27.4968 817.202 31.4117 814.178 Q35.2948 811.154 42.4881 811.154 L64.0042 811.154 L64.0042 817.042 L42.679 817.042 Q37.5546 817.042 35.072 818.857 Q32.5894 820.671 32.5894 824.395 Q32.5894 828.946 35.6131 831.588 Q38.6368 834.23 43.8567 834.23 L64.0042 834.23 L64.0042 840.118 L42.679 840.118 Q37.5228 840.118 35.072 841.932 Q32.5894 843.747 32.5894 847.534 Q32.5894 852.022 35.6449 854.664 Q38.6686 857.306 43.8567 857.306 L64.0042 857.306 L64.0042 863.194 L28.3562 863.194 L28.3562 857.306 L33.8944 857.306 Q30.616 855.3 29.0564 852.499 Q27.4968 849.699 27.4968 845.847 Q27.4968 841.964 29.4702 839.259 Q31.4436 836.522 35.1993 835.217 Z" fill="#000000" fill-rule="nonzero" fill-opacity="1"></path><path clip-path="url(#clip220)" d="M28.3562 799.473 L28.3562 793.617 L64.0042 793.617 L64.0042 799.473 L28.3562 799.473 M14.479 799.473 L14.479 793.617 L21.895 793.617 L21.895 799.473 L14.479 799.473 Z" fill="#000000" fill-rule="nonzero" fill-opacity="1"></path><path clip-path="url(#clip220)" d="M14.479 781.363 L14.479 775.506 L64.0042 775.506 L64.0042 781.363 L14.479 781.363 Z" fill="#000000" fill-rule="nonzero" fill-opacity="1"></path><path clip-path="url(#clip220)" d="M46.0847 747.052 Q46.0847 754.149 47.7079 756.887 Q49.3312 759.624 53.2461 759.624 Q56.3653 759.624 58.2114 757.587 Q60.0256 755.518 60.0256 751.985 Q60.0256 747.115 56.5881 744.187 Q53.1188 741.227 47.3897 741.227 L46.0847 741.227 L46.0847 747.052 M43.6657 735.37 L64.0042 735.37 L64.0042 741.227 L58.5933 741.227 Q61.8398 743.232 63.3994 746.224 Q64.9272 749.216 64.9272 753.545 Q64.9272 759.019 61.8716 762.266 Q58.7843 765.48 53.6281 765.48 Q47.6125 765.48 44.5569 761.47 Q41.5014 757.428 41.5014 749.439 L41.5014 741.227 L40.9285 741.227 Q36.8862 741.227 34.6901 743.901 Q32.4621 746.542 32.4621 751.348 Q32.4621 754.404 33.1941 757.3 Q33.9262 760.197 35.3903 762.87 L29.9795 762.87 Q28.7381 759.656 28.1334 756.632 Q27.4968 753.608 27.4968 750.744 Q27.4968 743.009 31.5072 739.19 Q35.5176 735.37 43.6657 735.37 Z" fill="#000000" fill-rule="nonzero" fill-opacity="1"></path><path clip-path="url(#clip220)" d="M33.8307 702.651 Q33.2578 703.637 33.0032 704.815 Q32.7167 705.961 32.7167 707.361 Q32.7167 712.327 35.9632 715 Q39.1779 717.642 45.2253 717.642 L64.0042 717.642 L64.0042 723.53 L28.3562 723.53 L28.3562 717.642 L33.8944 717.642 Q30.6479 715.796 29.0883 712.836 Q27.4968 709.876 27.4968 705.643 Q27.4968 705.038 27.5923 704.306 Q27.656 703.574 27.8151 702.683 L33.8307 702.651 Z" fill="#000000" fill-rule="nonzero" fill-opacity="1"></path><path clip-path="url(#clip220)" d="M28.3562 696.508 L28.3562 690.651 L64.0042 690.651 L64.0042 696.508 L28.3562 696.508 M14.479 696.508 L14.479 690.651 L21.895 690.651 L21.895 696.508 L14.479 696.508 Z" fill="#000000" fill-rule="nonzero" fill-opacity="1"></path><path clip-path="url(#clip220)" d="M18.2347 672.605 L28.3562 672.605 L28.3562 660.542 L32.9077 660.542 L32.9077 672.605 L52.2594 672.605 Q56.6199 672.605 57.8613 671.427 Q59.1026 670.217 59.1026 666.557 L59.1026 660.542 L64.0042 660.542 L64.0042 666.557 Q64.0042 673.337 61.4897 675.915 Q58.9434 678.493 52.2594 678.493 L32.9077 678.493 L32.9077 682.79 L28.3562 682.79 L28.3562 678.493 L18.2347 678.493 L18.2347 672.605 Z" fill="#000000" fill-rule="nonzero" fill-opacity="1"></path><path clip-path="url(#clip220)" d="M67.3143 638.007 Q73.68 640.49 75.6216 642.845 Q77.5631 645.2 77.5631 649.147 L77.5631 653.826 L72.6615 653.826 L72.6615 650.388 Q72.6615 647.969 71.5157 646.633 Q70.3699 645.296 66.1048 643.672 L63.4312 642.622 L28.3562 657.04 L28.3562 650.834 L56.238 639.694 L28.3562 628.554 L28.3562 622.347 L67.3143 638.007 Z" fill="#000000" fill-rule="nonzero" fill-opacity="1"></path><path clip-path="url(#clip220)" d="M784.265 16.7545 L784.265 25.383 Q780.133 21.5346 775.434 19.6307 Q770.776 17.7268 765.509 17.7268 Q755.139 17.7268 749.63 24.0867 Q744.121 30.4061 744.121 42.3968 Q744.121 54.3469 749.63 60.7069 Q755.139 67.0263 765.509 67.0263 Q770.776 67.0263 775.434 65.1223 Q780.133 63.2184 784.265 59.3701 L784.265 67.9175 Q779.971 70.8341 775.151 72.2924 Q770.371 73.7508 765.023 73.7508 Q751.291 73.7508 743.392 65.3654 Q735.492 56.9395 735.492 42.3968 Q735.492 27.8135 743.392 19.4281 Q751.291 11.0023 765.023 11.0023 Q770.452 11.0023 775.232 12.4606 Q780.052 13.8784 784.265 16.7545 Z" fill="#000000" fill-rule="nonzero" fill-opacity="1"></path><path clip-path="url(#clip220)" d="M814.161 32.4315 Q808.165 32.4315 804.682 37.1306 Q801.198 41.7891 801.198 49.9314 Q801.198 58.0738 804.641 62.7728 Q808.125 67.4314 814.161 67.4314 Q820.116 67.4314 823.599 62.7323 Q827.083 58.0333 827.083 49.9314 Q827.083 41.8701 823.599 37.1711 Q820.116 32.4315 814.161 32.4315 M814.161 26.1121 Q823.883 26.1121 829.433 32.4315 Q834.982 38.7509 834.982 49.9314 Q834.982 61.0714 829.433 67.4314 Q823.883 73.7508 814.161 73.7508 Q804.398 73.7508 798.848 67.4314 Q793.339 61.0714 793.339 49.9314 Q793.339 38.7509 798.848 32.4315 Q804.398 26.1121 814.161 26.1121 Z" fill="#000000" fill-rule="nonzero" fill-opacity="1"></path><path clip-path="url(#clip220)" d="M876.261 28.5427 L876.261 35.5912 Q873.101 33.9709 869.699 33.1607 Q866.296 32.3505 862.65 32.3505 Q857.1 32.3505 854.305 34.0519 Q851.551 35.7533 851.551 39.156 Q851.551 41.7486 853.536 43.2475 Q855.521 44.7058 861.516 46.0426 L864.068 46.6097 Q872.008 48.3111 875.329 51.4303 Q878.692 54.509 878.692 60.0587 Q878.692 66.3781 873.669 70.0644 Q868.686 73.7508 859.936 73.7508 Q856.29 73.7508 852.32 73.0216 Q848.391 72.3329 844.016 70.9151 L844.016 63.2184 Q848.148 65.3654 852.158 66.4591 Q856.169 67.5124 860.098 67.5124 Q865.364 67.5124 868.2 65.73 Q871.036 63.9071 871.036 60.6258 Q871.036 57.5877 868.97 55.9673 Q866.944 54.3469 860.017 52.8481 L857.424 52.2405 Q850.497 50.7821 847.419 47.7845 Q844.34 44.7463 844.34 39.4801 Q844.34 33.0797 848.877 29.5959 Q853.414 26.1121 861.759 26.1121 Q865.891 26.1121 869.537 26.7198 Q873.183 27.3274 876.261 28.5427 Z" fill="#000000" fill-rule="nonzero" fill-opacity="1"></path><path clip-path="url(#clip220)" d="M890.561 27.2059 L898.015 27.2059 L898.015 72.576 L890.561 72.576 L890.561 27.2059 M890.561 9.54393 L898.015 9.54393 L898.015 18.9825 L890.561 18.9825 L890.561 9.54393 Z" fill="#000000" fill-rule="nonzero" fill-opacity="1"></path><path clip-path="url(#clip220)" d="M951.324 45.1919 L951.324 72.576 L943.871 72.576 L943.871 45.4349 Q943.871 38.994 941.359 35.7938 Q938.848 32.5936 933.825 32.5936 Q927.789 32.5936 924.305 36.4419 Q920.821 40.2903 920.821 46.9338 L920.821 72.576 L913.327 72.576 L913.327 27.2059 L920.821 27.2059 L920.821 34.2544 Q923.495 30.163 927.1 28.1376 Q930.746 26.1121 935.485 26.1121 Q943.304 26.1121 947.314 30.9732 Q951.324 35.7938 951.324 45.1919 Z" fill="#000000" fill-rule="nonzero" fill-opacity="1"></path><path clip-path="url(#clip220)" d="M1005 48.0275 L1005 51.6733 L970.728 51.6733 Q971.214 59.3701 975.346 63.421 Q979.519 67.4314 986.932 67.4314 Q991.226 67.4314 995.236 66.3781 Q999.287 65.3249 1003.26 63.2184 L1003.26 70.267 Q999.247 71.9684 995.034 72.8596 Q990.821 73.7508 986.486 73.7508 Q975.63 73.7508 969.27 67.4314 Q962.951 61.1119 962.951 50.3365 Q962.951 39.1965 968.946 32.6746 Q974.982 26.1121 985.19 26.1121 Q994.345 26.1121 999.652 32.0264 Q1005 37.9003 1005 48.0275 M997.545 45.84 Q997.464 39.7232 994.102 36.0774 Q990.78 32.4315 985.271 32.4315 Q979.033 32.4315 975.265 35.9558 Q971.538 39.4801 970.971 45.8805 L997.545 45.84 Z" fill="#000000" fill-rule="nonzero" fill-opacity="1"></path><path clip-path="url(#clip220)" d="M1072.53 28.5427 L1072.53 35.5912 Q1069.37 33.9709 1065.97 33.1607 Q1062.56 32.3505 1058.92 32.3505 Q1053.37 32.3505 1050.57 34.0519 Q1047.82 35.7533 1047.82 39.156 Q1047.82 41.7486 1049.8 43.2475 Q1051.79 44.7058 1057.78 46.0426 L1060.33 46.6097 Q1068.27 48.3111 1071.6 51.4303 Q1074.96 54.509 1074.96 60.0587 Q1074.96 66.3781 1069.93 70.0644 Q1064.95 73.7508 1056.2 73.7508 Q1052.56 73.7508 1048.59 73.0216 Q1044.66 72.3329 1040.28 70.9151 L1040.28 63.2184 Q1044.41 65.3654 1048.42 66.4591 Q1052.44 67.5124 1056.36 67.5124 Q1061.63 67.5124 1064.47 65.73 Q1067.3 63.9071 1067.3 60.6258 Q1067.3 57.5877 1065.24 55.9673 Q1063.21 54.3469 1056.28 52.8481 L1053.69 52.2405 Q1046.76 50.7821 1043.69 47.7845 Q1040.61 44.7463 1040.61 39.4801 Q1040.61 33.0797 1045.14 29.5959 Q1049.68 26.1121 1058.03 26.1121 Q1062.16 26.1121 1065.8 26.7198 Q1069.45 27.3274 1072.53 28.5427 Z" fill="#000000" fill-rule="nonzero" fill-opacity="1"></path><path clip-path="url(#clip220)" d="M1086.83 27.2059 L1094.28 27.2059 L1094.28 72.576 L1086.83 72.576 L1086.83 27.2059 M1086.83 9.54393 L1094.28 9.54393 L1094.28 18.9825 L1086.83 18.9825 L1086.83 9.54393 Z" fill="#000000" fill-rule="nonzero" fill-opacity="1"></path><path clip-path="url(#clip220)" d="M1145.2 35.9153 Q1148 30.8922 1151.88 28.5022 Q1155.77 26.1121 1161.04 26.1121 Q1168.13 26.1121 1171.98 31.0947 Q1175.83 36.0368 1175.83 45.1919 L1175.83 72.576 L1168.33 72.576 L1168.33 45.4349 Q1168.33 38.913 1166.02 35.7533 Q1163.71 32.5936 1158.97 32.5936 Q1153.18 32.5936 1149.82 36.4419 Q1146.46 40.2903 1146.46 46.9338 L1146.46 72.576 L1138.96 72.576 L1138.96 45.4349 Q1138.96 38.8725 1136.65 35.7533 Q1134.34 32.5936 1129.52 32.5936 Q1123.81 32.5936 1120.45 36.4824 Q1117.09 40.3308 1117.09 46.9338 L1117.09 72.576 L1109.59 72.576 L1109.59 27.2059 L1117.09 27.2059 L1117.09 34.2544 Q1119.64 30.082 1123.2 28.0971 Q1126.77 26.1121 1131.67 26.1121 Q1136.61 26.1121 1140.06 28.6237 Q1143.54 31.1352 1145.2 35.9153 Z" fill="#000000" fill-rule="nonzero" fill-opacity="1"></path><path clip-path="url(#clip220)" d="M1219.62 28.5427 L1219.62 35.5912 Q1216.46 33.9709 1213.05 33.1607 Q1209.65 32.3505 1206 32.3505 Q1200.46 32.3505 1197.66 34.0519 Q1194.91 35.7533 1194.91 39.156 Q1194.91 41.7486 1196.89 43.2475 Q1198.88 44.7058 1204.87 46.0426 L1207.42 46.6097 Q1215.36 48.3111 1218.68 51.4303 Q1222.05 54.509 1222.05 60.0587 Q1222.05 66.3781 1217.02 70.0644 Q1212.04 73.7508 1203.29 73.7508 Q1199.64 73.7508 1195.67 73.0216 Q1191.75 72.3329 1187.37 70.9151 L1187.37 63.2184 Q1191.5 65.3654 1195.51 66.4591 Q1199.52 67.5124 1203.45 67.5124 Q1208.72 67.5124 1211.55 65.73 Q1214.39 63.9071 1214.39 60.6258 Q1214.39 57.5877 1212.32 55.9673 Q1210.3 54.3469 1203.37 52.8481 L1200.78 52.2405 Q1193.85 50.7821 1190.77 47.7845 Q1187.69 44.7463 1187.69 39.4801 Q1187.69 33.0797 1192.23 29.5959 Q1196.77 26.1121 1205.11 26.1121 Q1209.25 26.1121 1212.89 26.7198 Q1216.54 27.3274 1219.62 28.5427 Z" fill="#000000" fill-rule="nonzero" fill-opacity="1"></path><path clip-path="url(#clip220)" d="M1292.94 28.9478 L1292.94 35.9153 Q1289.78 34.1734 1286.58 33.3227 Q1283.42 32.4315 1280.18 32.4315 Q1272.93 32.4315 1268.92 37.0496 Q1264.9 41.6271 1264.9 49.9314 Q1264.9 58.2358 1268.92 62.8538 Q1272.93 67.4314 1280.18 67.4314 Q1283.42 67.4314 1286.58 66.5807 Q1289.78 65.6895 1292.94 63.9476 L1292.94 70.8341 Q1289.82 72.2924 1286.46 73.0216 Q1283.13 73.7508 1279.37 73.7508 Q1269.12 73.7508 1263.08 67.3098 Q1257.05 60.8689 1257.05 49.9314 Q1257.05 38.832 1263.12 32.472 Q1269.24 26.1121 1279.85 26.1121 Q1283.3 26.1121 1286.58 26.8413 Q1289.86 27.5299 1292.94 28.9478 Z" fill="#000000" fill-rule="nonzero" fill-opacity="1"></path><path clip-path="url(#clip220)" d="M1344.71 48.0275 L1344.71 51.6733 L1310.44 51.6733 Q1310.92 59.3701 1315.06 63.421 Q1319.23 67.4314 1326.64 67.4314 Q1330.93 67.4314 1334.95 66.3781 Q1339 65.3249 1342.97 63.2184 L1342.97 70.267 Q1338.96 71.9684 1334.74 72.8596 Q1330.53 73.7508 1326.2 73.7508 Q1315.34 73.7508 1308.98 67.4314 Q1302.66 61.1119 1302.66 50.3365 Q1302.66 39.1965 1308.65 32.6746 Q1314.69 26.1121 1324.9 26.1121 Q1334.05 26.1121 1339.36 32.0264 Q1344.71 37.9003 1344.71 48.0275 M1337.25 45.84 Q1337.17 39.7232 1333.81 36.0774 Q1330.49 32.4315 1324.98 32.4315 Q1318.74 32.4315 1314.97 35.9558 Q1311.25 39.4801 1310.68 45.8805 L1337.25 45.84 Z" fill="#000000" fill-rule="nonzero" fill-opacity="1"></path><path clip-path="url(#clip220)" d="M1356.94 9.54393 L1364.4 9.54393 L1364.4 72.576 L1356.94 72.576 L1356.94 9.54393 Z" fill="#000000" fill-rule="nonzero" fill-opacity="1"></path><path clip-path="url(#clip220)" d="M1379.99 9.54393 L1387.44 9.54393 L1387.44 72.576 L1379.99 72.576 L1379.99 9.54393 Z" fill="#000000" fill-rule="nonzero" fill-opacity="1"></path><path clip-path="url(#clip220)" d="M1448.98 39.075 Q1443.47 39.075 1440.23 42.8424 Q1437.03 46.6097 1437.03 53.1722 Q1437.03 59.6941 1440.23 63.502 Q1443.47 67.2693 1448.98 67.2693 Q1454.49 67.2693 1457.69 63.502 Q1460.93 59.6941 1460.93 53.1722 Q1460.93 46.6097 1457.69 42.8424 Q1454.49 39.075 1448.98 39.075 M1465.22 13.4328 L1465.22 20.8865 Q1462.14 19.4281 1458.98 18.6585 Q1455.86 17.8888 1452.79 17.8888 Q1444.68 17.8888 1440.39 23.3575 Q1436.14 28.8262 1435.53 39.8852 Q1437.92 36.3609 1441.52 34.4975 Q1445.13 32.5936 1449.46 32.5936 Q1458.58 32.5936 1463.84 38.1433 Q1469.15 43.6525 1469.15 53.1722 Q1469.15 62.4892 1463.64 68.12 Q1458.13 73.7508 1448.98 73.7508 Q1438.49 73.7508 1432.94 65.73 Q1427.39 57.6687 1427.39 42.3968 Q1427.39 28.0566 1434.19 19.5497 Q1441 11.0023 1452.46 11.0023 Q1455.54 11.0023 1458.66 11.6099 Q1461.82 12.2175 1465.22 13.4328 Z" fill="#000000" fill-rule="nonzero" fill-opacity="1"></path><path clip-path="url(#clip220)" d="M1500.75 17.4837 Q1494.43 17.4837 1491.23 23.7221 Q1488.07 29.92 1488.07 42.3968 Q1488.07 54.833 1491.23 61.0714 Q1494.43 67.2693 1500.75 67.2693 Q1507.11 67.2693 1510.27 61.0714 Q1513.47 54.833 1513.47 42.3968 Q1513.47 29.92 1510.27 23.7221 Q1507.11 17.4837 1500.75 17.4837 M1500.75 11.0023 Q1510.92 11.0023 1516.26 19.0636 Q1521.65 27.0843 1521.65 42.3968 Q1521.65 57.6687 1516.26 65.73 Q1510.92 73.7508 1500.75 73.7508 Q1490.58 73.7508 1485.19 65.73 Q1479.85 57.6687 1479.85 42.3968 Q1479.85 27.0843 1485.19 19.0636 Q1490.58 11.0023 1500.75 11.0023 Z" fill="#000000" fill-rule="nonzero" fill-opacity="1"></path><path clip-path="url(#clip220)" d="M1553.53 17.4837 Q1547.21 17.4837 1544.01 23.7221 Q1540.85 29.92 1540.85 42.3968 Q1540.85 54.833 1544.01 61.0714 Q1547.21 67.2693 1553.53 67.2693 Q1559.89 67.2693 1563.05 61.0714 Q1566.25 54.833 1566.25 42.3968 Q1566.25 29.92 1563.05 23.7221 Q1559.89 17.4837 1553.53 17.4837 M1553.53 11.0023 Q1563.7 11.0023 1569.05 19.0636 Q1574.43 27.0843 1574.43 42.3968 Q1574.43 57.6687 1569.05 65.73 Q1563.7 73.7508 1553.53 73.7508 Q1543.36 73.7508 1537.98 65.73 Q1532.63 57.6687 1532.63 42.3968 Q1532.63 27.0843 1537.98 19.0636 Q1543.36 11.0023 1553.53 11.0023 Z" fill="#000000" fill-rule="nonzero" fill-opacity="1"></path><path clip-path="url(#clip220)" d="M1614.13 27.2059 L1621.59 27.2059 L1621.59 72.576 L1614.13 72.576 L1614.13 27.2059 M1614.13 9.54393 L1621.59 9.54393 L1621.59 18.9825 L1614.13 18.9825 L1614.13 9.54393 Z" fill="#000000" fill-rule="nonzero" fill-opacity="1"></path><path clip-path="url(#clip220)" d="M1644.56 14.324 L1644.56 27.2059 L1659.91 27.2059 L1659.91 32.9987 L1644.56 32.9987 L1644.56 57.6282 Q1644.56 63.1779 1646.05 64.7578 Q1647.59 66.3376 1652.25 66.3376 L1659.91 66.3376 L1659.91 72.576 L1652.25 72.576 Q1643.62 72.576 1640.34 69.3758 Q1637.06 66.1351 1637.06 57.6282 L1637.06 32.9987 L1631.59 32.9987 L1631.59 27.2059 L1637.06 27.2059 L1637.06 14.324 L1644.56 14.324 Z" fill="#000000" fill-rule="nonzero" fill-opacity="1"></path><path clip-path="url(#clip220)" d="M1708.52 48.0275 L1708.52 51.6733 L1674.25 51.6733 Q1674.73 59.3701 1678.87 63.421 Q1683.04 67.4314 1690.45 67.4314 Q1694.75 67.4314 1698.76 66.3781 Q1702.81 65.3249 1706.78 63.2184 L1706.78 70.267 Q1702.77 71.9684 1698.55 72.8596 Q1694.34 73.7508 1690.01 73.7508 Q1679.15 73.7508 1672.79 67.4314 Q1666.47 61.1119 1666.47 50.3365 Q1666.47 39.1965 1672.47 32.6746 Q1678.5 26.1121 1688.71 26.1121 Q1697.87 26.1121 1703.17 32.0264 Q1708.52 37.9003 1708.52 48.0275 M1701.07 45.84 Q1700.98 39.7232 1697.62 36.0774 Q1694.3 32.4315 1688.79 32.4315 Q1682.55 32.4315 1678.79 35.9558 Q1675.06 39.4801 1674.49 45.8805 L1701.07 45.84 Z" fill="#000000" fill-rule="nonzero" fill-opacity="1"></path><path clip-path="url(#clip220)" d="M1747.04 34.1734 Q1745.79 33.4443 1744.29 33.1202 Q1742.83 32.7556 1741.05 32.7556 Q1734.73 32.7556 1731.33 36.8875 Q1727.96 40.9789 1727.96 48.6757 L1727.96 72.576 L1720.47 72.576 L1720.47 27.2059 L1727.96 27.2059 L1727.96 34.2544 Q1730.31 30.1225 1734.08 28.1376 Q1737.85 26.1121 1743.24 26.1121 Q1744.01 26.1121 1744.94 26.2337 Q1745.87 26.3147 1747 26.5172 L1747.04 34.1734 Z" fill="#000000" fill-rule="nonzero" fill-opacity="1"></path><path clip-path="url(#clip220)" d="M1783.7 65.6895 L1797.07 65.6895 L1797.07 19.5497 L1782.53 22.4663 L1782.53 15.0127 L1796.99 12.096 L1805.17 12.096 L1805.17 65.6895 L1818.54 65.6895 L1818.54 72.576 L1783.7 72.576 L1783.7 65.6895 Z" fill="#000000" fill-rule="nonzero" fill-opacity="1"></path><path clip-path="url(#clip220)" d="M1852.57 17.4837 Q1846.25 17.4837 1843.05 23.7221 Q1839.89 29.92 1839.89 42.3968 Q1839.89 54.833 1843.05 61.0714 Q1846.25 67.2693 1852.57 67.2693 Q1858.93 67.2693 1862.09 61.0714 Q1865.29 54.833 1865.29 42.3968 Q1865.29 29.92 1862.09 23.7221 Q1858.93 17.4837 1852.57 17.4837 M1852.57 11.0023 Q1862.74 11.0023 1868.08 19.0636 Q1873.47 27.0843 1873.47 42.3968 Q1873.47 57.6687 1868.08 65.73 Q1862.74 73.7508 1852.57 73.7508 Q1842.4 73.7508 1837.01 65.73 Q1831.67 57.6687 1831.67 42.3968 Q1831.67 27.0843 1837.01 19.0636 Q1842.4 11.0023 1852.57 11.0023 Z" fill="#000000" fill-rule="nonzero" fill-opacity="1"></path><polyline clip-path="url(#clip222)" style="stroke:#009af9; stroke-linecap:round; stroke-linejoin:round; stroke-width:4; stroke-opacity:1; fill:none" points="315.545,1139.71 317.525,1114.67 319.505,988.732 321.484,1056.28 323.464,951.859 325.444,741.087 327.424,1092.27 329.404,1158.12 331.384,1067.48 333.364,845.985 335.343,1070.25 337.323,993.781 339.303,1058.19 341.283,943.128 343.263,901.742 345.243,1022.55 347.223,1055.06 349.202,1005.34 351.182,982.65 353.162,956.742 355.142,1133.73 357.122,996.467 359.102,968.742 361.082,1061.51 363.061,770.251 365.041,900.856 367.021,1000.24 369.001,941.631 370.981,1051.11 372.961,970.038 374.941,1144.23 376.92,1018.78 378.9,979.609 380.88,1081.01 382.86,1167.04 384.84,988.975 386.82,1100.55 388.8,1036.36 390.779,887.343 392.759,1082.07 394.739,1060.22 396.719,946.313 398.699,1024.55 400.679,758.473 402.659,1070.12 404.638,927.414 406.618,1197.47 408.598,1078.84 410.578,983.446 412.558,1187.39 414.538,951.246 416.517,1120.85 418.497,1055.58 420.477,1055.25 422.457,996.512 424.437,990.801 426.417,1056.22 428.397,1094.11 430.376,1093.81 432.356,957.462 434.336,900.81 436.316,1083.13 438.296,1077.82 440.276,888.8 442.256,1074.7 444.235,928.171 446.215,1158.86 448.195,1071.99 450.175,989.713 452.155,936.492 454.135,1020.81 456.115,1085.82 458.094,1121.41 460.074,1175.36 462.054,1054.8 464.034,967.34 466.014,992.597 467.994,905.983 469.974,1171.15 471.953,1032.81 473.933,1201.48 475.913,1171.48 477.893,1150.64 479.873,1115.5 481.853,1099.22 483.833,876.346 485.812,965.223 487.792,1101.42 489.772,1135 491.752,1153.39 493.732,1087.96 495.712,1046.39 497.692,1152 499.671,992.055 501.651,878.361 503.631,1055.05 505.611,987.261 507.591,917.062 509.571,1026.7 511.551,868.765 513.53,1097.53 515.51,891.898 517.49,1110.29 519.47,1050.8 521.45,1048.18 523.43,971.565 525.409,946.743 527.389,1114.9 529.369,1056.16 531.349,1148.47 533.329,966.441 535.309,1134.83 537.289,998.845 539.268,941.027 541.248,998.911 543.228,1069.03 545.208,885.276 547.188,892.209 549.168,977.742 551.148,1029.12 553.127,1022.44 555.107,1027.35 557.087,1139.95 559.067,858.339 561.047,1009.91 563.027,387.961 565.007,1030.48 566.986,1049.47 568.966,1109.61 570.946,1062.22 572.926,1079.88 574.906,915.203 576.886,1081.91 578.866,1110.56 580.845,1050.24 582.825,1111.92 584.805,1184.37 586.785,1041.43 588.765,1138.46 590.745,1194.68 592.725,1129.39 594.704,986.264 596.684,1137.29 598.664,1019.65 600.644,1029.48 602.624,1061.37 604.604,980.934 606.584,946.232 608.563,1182.38 610.543,1143.62 612.523,1072.11 614.503,1082.55 616.483,1010.15 618.463,999.115 620.443,1046.68 622.422,970.836 624.402,744.418 626.382,1131 628.362,1026.84 630.342,1097.82 632.322,1088.78 634.301,946.484 636.281,1102.59 638.261,1260.52 640.241,1119.16 642.221,937.774 644.201,1107.66 646.181,971.647 648.16,1135.94 650.14,1119.95 652.12,1139.34 654.1,992.266 656.08,1159.05 658.06,970.718 660.04,972.232 662.019,1209.53 663.999,900.473 665.979,965.169 667.959,1015.6 669.939,1062.72 671.919,906.132 673.899,944.485 675.878,982.715 677.858,909.788 679.838,968.09 681.818,1069.33 683.798,809.079 685.778,1077.15 687.758,1082.96 689.737,889.677 691.717,1144.31 693.697,1045.48 695.677,990.076 697.657,995.579 699.637,979.139 701.617,1031.3 703.596,1050.51 705.576,1034.85 707.556,847.851 709.536,993.887 711.516,1002 713.496,1075.77 715.476,927.885 717.455,1201.41 719.435,1021.37 721.415,1011.87 723.395,1154.16 725.375,1043.23 727.355,895.089 729.335,1093.9 731.314,990.791 733.294,1021.79 735.274,985.789 737.254,1128.71 739.234,1091.45 741.214,1008.3 743.194,1021.98 745.173,920.609 747.153,1258.1 749.133,1047.39 751.113,1069.67 753.093,927.383 755.073,1073.66 757.052,887.392 759.032,1023.97 761.012,1046.06 762.992,1105.77 764.972,1083.2 766.952,1049.41 768.932,934.425 770.911,1111.02 772.891,1021.73 774.871,1087.83 776.851,1119.76 778.831,813.392 780.811,939.777 782.791,1012.51 784.77,1056.68 786.75,1005.29 788.73,1029.87 790.71,1004.44 792.69,830.301 794.67,948.792 796.65,929.587 798.629,1091.01 800.609,995.068 802.589,869.415 804.569,1119.87 806.549,850.285 808.529,1194.25 810.509,801.509 812.488,1010.37 814.468,1052.22 816.448,1040.25 818.428,1070.67 820.408,852.93 822.388,908.904 824.368,933.071 826.347,1012.71 828.327,1058.63 830.307,1104.66 832.287,1099.6 834.267,1004.23 836.247,1184.87 838.227,846.92 840.206,900.453 842.186,1046.7 844.166,770.369 846.146,895.1 848.126,985.428 850.106,993.022 852.086,1079.38 854.065,852.973 856.045,884.373 858.025,883.288 860.005,1014.55 861.985,1019.81 863.965,1027.6 865.944,869.935 867.924,1043.57 869.904,841.573 871.884,1252.58 873.864,1208.15 875.844,859.53 877.824,1064.5 879.803,971.84 881.783,948.126 883.763,856.289 885.743,921.066 887.723,1223.02 889.703,923.986 891.683,1062.85 893.662,1216.12 895.642,997.41 897.622,1066.23 899.602,1213.08 901.582,1010.17 903.562,863.913 905.542,852.146 907.521,1027.68 909.501,931.661 911.481,1084.7 913.461,1009.08 915.441,822.051 917.421,971.258 919.401,956.501 921.38,1010.03 923.36,1039.61 925.34,714.862 927.32,921.37 929.3,1213.11 931.28,967.121 933.26,1205.86 935.239,1253.71 937.219,915.452 939.199,900.133 941.179,935.604 943.159,1054.42 945.139,1010.86 947.119,697.806 949.098,1024.74 951.078,1033.76 953.058,969.876 955.038,1095.83 957.018,973.977 958.998,1019.7 960.978,1228.06 962.957,975.168 964.937,958.541 966.917,997.299 968.897,1003.66 970.877,1033.36 972.857,1168.08 974.836,868.912 976.816,1024.95 978.796,1078.16 980.776,928.609 982.756,1141.66 984.736,1012.55 986.716,980.163 988.695,863.824 990.675,1059.25 992.655,930.4 994.635,1019.03 996.615,967.789 998.595,979.524 1000.57,1056.87 1002.55,930.276 1004.53,1230.69 1006.51,1008.58 1008.49,1131.37 1010.47,928.157 1012.45,1176.16 1014.43,1008.43 1016.41,1023.22 1018.39,1008.01 1020.37,986.699 1022.35,963.477 1024.33,746.838 1026.31,1097.81 1028.29,1098.23 1030.27,998.495 1032.25,793.847 1034.23,905.646 1036.21,920.158 1038.19,890.661 1040.17,1020.36 1042.15,752.759 1044.13,1077.93 1046.11,927.443 1048.09,968.115 1050.07,945.387 1052.05,785.217 1054.03,891.603 1056.01,1007.18 1057.99,988.134 1059.97,1025.44 1061.95,931.477 1063.93,1185.78 1065.91,984.368 1067.89,1054.98 1069.87,1098.96 1071.85,878.102 1073.83,964.565 1075.81,1063.85 1077.79,1106.76 1079.77,1070.73 1081.75,998.543 1083.73,997.451 1085.71,733.492 1087.69,1028.74 1089.67,982.85 1091.65,921.393 1093.63,937.551 1095.61,927.058 1097.59,1195.04 1099.57,868.166 1101.55,880.934 1103.53,940.823 1105.51,976.431 1107.49,1018.97 1109.47,1048.88 1111.45,975.014 1113.43,1034.41 1115.41,1184.63 1117.39,941.284 1119.37,1020.91 1121.35,1007.4 1123.33,997.147 1125.31,967.886 1127.29,1026.56 1129.27,1117.8 1131.25,1065.86 1133.22,867.763 1135.2,1222.82 1137.18,907.058 1139.16,822.935 1141.14,737.041 1143.12,1160.5 1145.1,1152.69 1147.08,849.682 1149.06,1037.24 1151.04,849.05 1153.02,1029.31 1155,1012.01 1156.98,1190.09 1158.96,938.321 1160.94,807.454 1162.92,928.567 1164.9,953.774 1166.88,891.288 1168.86,929.519 1170.84,728.413 1172.82,913.584 1174.8,1193.34 1176.78,1093.32 1178.76,952.443 1180.74,891.142 1182.72,822.757 1184.7,1095.82 1186.68,952.18 1188.66,1033.54 1190.64,811.504 1192.62,871.682 1194.6,1220.54 1196.58,1042.44 1198.56,853.593 1200.54,912.235 1202.52,1019.99 1204.5,1075.88 1206.48,1106.35 1208.46,933.186 1210.44,957.651 1212.42,1087.7 1214.4,1112.96 1216.38,1008.54 1218.36,946.291 1220.34,859.865 1222.32,958.722 1224.3,1207.55 1226.28,1131.59 1228.26,975.317 1230.24,1096.99 1232.22,1020.35 1234.2,1095.26 1236.18,990.879 1238.16,1178.81 1240.14,1012.41 1242.12,1012.97 1244.1,950.609 1246.08,1039.62 1248.06,950.425 1250.04,988.245 1252.02,1051.23 1254,983.11 1255.98,916.45 1257.96,1018.72 1259.94,1129.14 1261.92,1037.98 1263.9,994.557 1265.88,818.099 1267.85,923.26 1269.83,807.35 1271.81,940.557 1273.79,976.361 1275.77,1093.16 1277.75,1078.78 1279.73,887.375 1281.71,1012.89 1283.69,1114.43 1285.67,1090.17 1287.65,833.005 1289.63,907.201 1291.61,1073.97 1293.59,843.703 1295.57,1074.12 1297.55,853.739 1299.53,1014.9 1301.51,1156.96 1303.49,994.544 1305.47,1226.59 1307.45,1171.6 1309.43,1312.53 1311.41,1253.32 1313.39,1210.36 1315.37,1203.16 1317.35,1303.34 1319.33,1259.91 1321.31,1260.84 1323.29,1289.44 1325.27,1251.6 1327.25,1248.71 1329.23,1221.3 1331.21,1312.14 1333.19,1105.1 1335.17,1146.08 1337.15,1340.82 1339.13,1269.53 1341.11,1226.35 1343.09,1181.22 1345.07,1116.54 1347.05,1284.27 1349.03,1266.82 1351.01,1256.47 1352.99,1294.83 1354.97,1187.7 1356.95,1174.69 1358.93,1187.45 1360.91,1223.25 1362.89,1306.22 1364.87,1026.49 1366.85,1240.1 1368.83,1163.1 1370.81,1304.58 1372.79,1250.84 1374.77,1178.46 1376.75,1288.4 1378.73,1299.33 1380.71,1322.09 1382.69,1232.02 1384.67,1264.44 1386.65,1284.64 1388.63,1315.3 1390.61,1165.94 1392.59,1386.4 1394.57,1318.94 1396.55,1233.8 1398.53,1232.26 1400.51,1313.2 1402.49,1265.79 1404.46,1197.31 1406.44,1248.78 1408.42,1268.62 1410.4,1177.97 1412.38,1262.57 1414.36,1274.74 1416.34,1236.97 1418.32,1207.94 1420.3,1223.87 1422.28,1190.52 1424.26,1167.99 1426.24,1308.8 1428.22,1316.32 1430.2,1092.96 1432.18,1234.46 1434.16,1192.95 1436.14,1255.46 1438.12,1264.03 1440.1,1225.03 1442.08,1323.91 1444.06,1211.38 1446.04,1237.43 1448.02,954.603 1450,1249.18 1451.98,1277.35 1453.96,1207.07 1455.94,1103.41 1457.92,1325.47 1459.9,1107.53 1461.88,1177.77 1463.86,1266.33 1465.84,1170.1 1467.82,1109.08 1469.8,1272.19 1471.78,1243.28 1473.76,1312.31 1475.74,1248.93 1477.72,1281.36 1479.7,1183.97 1481.68,1302.16 1483.66,1273.98 1485.64,1201.05 1487.62,1175.73 1489.6,956.885 1491.58,1179.14 1493.56,1188.65 1495.54,1204.72 1497.52,1305.46 1499.5,1266.15 1501.48,1159.78 1503.46,1271.62 1505.44,1349.7 1507.42,1165.27 1509.4,1280.38 1511.38,1181.99 1513.36,1256.88 1515.34,1344.44 1517.32,1146.78 1519.3,1167.84 1521.28,1229.12 1523.26,1290.49 1525.24,1272.39 1527.22,1285.46 1529.2,1278.97 1531.18,1245.82 1533.16,1325.99 1535.14,1363.16 1537.12,1214.94 1539.1,1149.98 1541.07,1265.71 1543.05,1275.6 1545.03,1281.66 1547.01,1289.8 1548.99,1343.5 1550.97,1282.59 1552.95,1191.98 1554.93,1141.61 1556.91,1270.98 1558.89,1219.16 1560.87,1230.5 1562.85,1238.61 1564.83,1185.31 1566.81,1214.67 1568.79,1254.56 1570.77,1312.8 1572.75,1209.51 1574.73,1238.39 1576.71,1218.54 1578.69,1325.27 1580.67,1153.21 1582.65,1187.7 1584.63,1122.63 1586.61,1199.27 1588.59,1280.73 1590.57,1056.84 1592.55,1195.69 1594.53,1170.31 1596.51,1181.52 1598.49,1338.82 1600.47,1019.21 1602.45,1230.69 1604.43,1174.89 1606.41,1210.09 1608.39,1145.36 1610.37,1318.55 1612.35,1312.07 1614.33,1233.84 1616.31,1170.79 1618.29,1270.19 1620.27,1158.1 1622.25,1239.9 1624.23,1128.87 1626.21,1345.19 1628.19,1262.9 1630.17,1287.67 1632.15,1160.5 1634.13,1205.23 1636.11,1193.3 1638.09,1264.89 1640.07,1334.69 1642.05,1268.82 1644.03,1326.54 1646.01,1317.23 1647.99,1013.09 1649.97,1164.94 1651.95,1162.1 1653.93,1264.46 1655.91,1230.87 1657.89,1198.3 1659.87,1050.17 1661.85,1219.06 1663.83,1346.91 1665.81,1351.81 1667.79,1219.6 1669.77,1196.03 1671.75,1266.63 1673.73,1203.16 1675.71,1231.02 1677.68,1192.31 1679.66,1278.46 1681.64,1219.82 1683.62,1228.38 1685.6,1164.66 1687.58,1340.07 1689.56,1269.31 1691.54,1277.26 1693.52,1190.04 1695.5,1198.3 1697.48,1139.01 1699.46,1208.77 1701.44,1182.27 1703.42,1152.25 1705.4,1273.36 1707.38,1207.33 1709.36,1313.29 1711.34,1133.11 1713.32,1151.17 1715.3,1249.66 1717.28,1220.17 1719.26,1257.86 1721.24,1165.99 1723.22,1306.34 1725.2,1229.17 1727.18,1161.48 1729.16,1303.67 1731.14,1163.61 1733.12,1254.06 1735.1,1276.17 1737.08,1303.57 1739.06,1090.76 1741.04,1225.72 1743.02,1197.03 1745,1107.06 1746.98,1256.37 1748.96,1072.53 1750.94,1179.29 1752.92,1321.42 1754.9,1218.36 1756.88,1295.88 1758.86,1229.25 1760.84,1115.86 1762.82,1326.62 1764.8,1278.06 1766.78,1267.36 1768.76,1331.08 1770.74,1282.75 1772.72,1252.77 1774.7,1277.66 1776.68,1198.43 1778.66,1199.13 1780.64,1233.94 1782.62,1302.09 1784.6,1234.06 1786.58,1139.45 1788.56,1345.79 1790.54,1284.47 1792.52,1172.37 1794.5,1165.47 1796.48,1275.58 1798.46,1255.12 1800.44,178.409 1802.42,194.475 1804.4,182.683 1806.38,225.955 1808.36,207.953 1810.34,189.109 1812.31,180.885 1814.29,189.546 1816.27,174.419 1818.25,172.792 1820.23,358.48 1822.21,201.84 1824.19,184.411 1826.17,176.122 1828.15,185.478 1830.13,179.233 1832.11,184.136 1834.09,205.209 1836.07,224.214 1838.05,197.549 1840.03,227.604 1842.01,179.387 1843.99,183.646 1845.97,178.249 1847.95,181.406 1849.93,183.663 1851.91,224.393 1853.89,173.868 1855.87,177.393 1857.85,193.251 1859.83,190.098 1861.81,224.218 1863.79,332.024 1865.77,180.219 1867.75,226.529 1869.73,174.352 1871.71,198.501 1873.69,178.561 1875.67,215.737 1877.65,218.811 1879.63,198.829 1881.61,199.759 1883.59,160.856 1885.57,174.336 1887.55,178.891 1889.53,181.249 1891.51,220.714 1893.49,181.007 1895.47,190.374 1897.45,185.527 1899.43,196.062 1901.41,177.874 1903.39,184.923 1905.37,280.963 1907.35,177.202 1909.33,180.585 1911.31,180.296 1913.29,216.141 1915.27,238.991 1917.25,185.795 1919.23,178.738 1921.21,235.993 1923.19,215.174 1925.17,190.678 1927.15,194.806 1929.13,171.452 1931.11,168.182 1933.09,176.783 1935.07,321.874 1937.05,179.495 1939.03,193.855 1941.01,167.729 1942.99,184.064 1944.97,173.517 1946.95,187.782 1948.92,184.184 1950.9,174.227 1952.88,187.442 1954.86,195.999 1956.84,174.706 1958.82,243.128 1960.8,197.797 1962.78,233.828 1964.76,180.651 1966.74,208.299 1968.72,192.342 1970.7,189.629 1972.68,185.361 1974.66,197.252 1976.64,182.709 1978.62,349.851 1980.6,196.167 1982.58,195.08 1984.56,192.843 1986.54,167.016 1988.52,175.335 1990.5,361.033 1992.48,172.584 1994.46,214.2 1996.44,173.082 1998.42,179.943 2000.4,182.303 2002.38,188.735 2004.36,175.768 2006.34,187.809 2008.32,178.694 2010.3,200.371 2012.28,173.563 2014.26,195.762 2016.24,197.985 2018.22,363.855 2020.2,175.744 2022.18,176.533 2024.16,166.665 2026.14,258.232 2028.12,205.905 2030.1,190.612 2032.08,226.01 2034.06,197.327 2036.04,182.951 2038.02,180.408 2040,218.27 2041.98,178.67 2043.96,286.049 2045.94,204.096 2047.92,181.612 2049.9,180.045 2051.88,192.915 2053.86,213.146 2055.84,174.755 2057.82,336.376 2059.8,208.057 2061.78,383.199 2063.76,251.033 2065.74,170.138 2067.72,174.493 2069.7,191.601 2071.68,173.217 2073.66,200.245 2075.64,189.447 2077.62,165.506 2079.6,186.077 2081.58,260.686 2083.56,212.875 2085.53,189.195 2087.51,199.823 2089.49,174.796 2091.47,177.529 2093.45,195.559 2095.43,176.205 2097.41,182.615 2099.39,185.882 2101.37,174.682 2103.35,188.065 2105.33,173.167 2107.31,165.218 2109.29,297.263 2111.27,198.251 2113.25,172.635 2115.23,244.72 2117.21,219.212 2119.19,180.472 2121.17,190.804 2123.15,195.76 2125.13,178.707 2127.11,181.808 2129.09,201.873 2131.07,250.512 2133.05,174.253 2135.03,183.136 2137.01,170.602 2138.99,190.88 2140.97,195.726 2142.95,190.222 2144.93,194.542 2146.91,174.713 2148.89,191.884 2150.87,175.302 2152.85,215.797 2154.83,241.475 2156.81,170.133 2158.79,182.992 2160.77,179.08 2162.75,215.47 2164.73,192.245 2166.71,179.794 2168.69,180.167 2170.67,181.981 2172.65,185.945 2174.63,243.441 2176.61,192.167 2178.59,178.002 2180.57,176.236 2182.55,194.124 2184.53,178.733 2186.51,179.118 2188.49,175.342 2190.47,193.082 2192.45,162.778 2194.43,205.349 2196.41,177.503 2198.39,176.402 2200.37,179.387 2202.35,169.268 2204.33,185.629 2206.31,182.685 2208.29,172.988 2210.27,169.156 2212.25,182.352 2214.23,189.127 2216.21,178.051 2218.19,259.701 2220.17,177.949 2222.14,185.67 2224.12,202.793 2226.1,174.366 2228.08,181.291 2230.06,189.794 2232.04,184.452 2234.02,199.192 2236,214.669 2237.98,199.925 2239.96,193.207 2241.94,187.251 2243.92,217.586 2245.9,176.177 2247.88,192.899 2249.86,218.347 2251.84,189.587 2253.82,184.486 2255.8,189.806 2257.78,188.6 2259.76,175.181 2261.74,174.957 2263.72,174.433 2265.7,184.731 2267.68,182.382 2269.66,160.256 2271.64,185.093 2273.62,187.906 2275.6,180.851 2277.58,194.149 2279.56,196.452 2281.54,182.525 2283.52,347.526 2285.5,179.015 2287.48,220.124 2289.46,169.811 2291.44,202.371 2293.42,178.579 "></polyline>
<path clip-path="url(#clip220)" d="M1853.61 1379.86 L2282.87 1379.86 L2282.87 1276.18 L1853.61 1276.18  Z" fill="#ffffff" fill-rule="evenodd" fill-opacity="1"></path>
<polyline clip-path="url(#clip220)" style="stroke:#000000; stroke-linecap:round; stroke-linejoin:round; stroke-width:4; stroke-opacity:1; fill:none" points="1853.61,1379.86 2282.87,1379.86 2282.87,1276.18 1853.61,1276.18 1853.61,1379.86 "></polyline>
<polyline clip-path="url(#clip220)" style="stroke:#009af9; stroke-linecap:round; stroke-linejoin:round; stroke-width:4; stroke-opacity:1; fill:none" points="1876.91,1328.02 2016.68,1328.02 "></polyline>
<path clip-path="url(#clip220)" d="M2062.22 1311.87 L2062.22 1316.43 Q2059.55 1315.16 2057.19 1314.53 Q2054.83 1313.91 2052.63 1313.91 Q2048.81 1313.91 2046.73 1315.39 Q2044.67 1316.87 2044.67 1319.6 Q2044.67 1321.89 2046.04 1323.07 Q2047.42 1324.23 2051.27 1324.95 L2054.09 1325.53 Q2059.32 1326.52 2061.8 1329.05 Q2064.3 1331.55 2064.3 1335.76 Q2064.3 1340.78 2060.92 1343.37 Q2057.56 1345.97 2051.06 1345.97 Q2048.6 1345.97 2045.83 1345.41 Q2043.07 1344.86 2040.11 1343.77 L2040.11 1338.95 Q2042.96 1340.55 2045.69 1341.36 Q2048.42 1342.17 2051.06 1342.17 Q2055.06 1342.17 2057.24 1340.6 Q2059.42 1339.02 2059.42 1336.11 Q2059.42 1333.56 2057.84 1332.13 Q2056.29 1330.69 2052.73 1329.97 L2049.88 1329.42 Q2044.65 1328.38 2042.31 1326.15 Q2039.97 1323.93 2039.97 1319.97 Q2039.97 1315.39 2043.19 1312.75 Q2046.43 1310.11 2052.1 1310.11 Q2054.53 1310.11 2057.05 1310.55 Q2059.58 1310.99 2062.22 1311.87 Z" fill="#000000" fill-rule="nonzero" fill-opacity="1"></path><path clip-path="url(#clip220)" d="M2071.41 1319.37 L2075.66 1319.37 L2075.66 1345.3 L2071.41 1345.3 L2071.41 1319.37 M2071.41 1309.28 L2075.66 1309.28 L2075.66 1314.67 L2071.41 1314.67 L2071.41 1309.28 Z" fill="#000000" fill-rule="nonzero" fill-opacity="1"></path><path clip-path="url(#clip220)" d="M2104.76 1324.35 Q2106.36 1321.48 2108.58 1320.11 Q2110.8 1318.75 2113.81 1318.75 Q2117.86 1318.75 2120.06 1321.59 Q2122.26 1324.42 2122.26 1329.65 L2122.26 1345.3 L2117.98 1345.3 L2117.98 1329.79 Q2117.98 1326.06 2116.66 1324.25 Q2115.34 1322.45 2112.63 1322.45 Q2109.32 1322.45 2107.4 1324.65 Q2105.48 1326.85 2105.48 1330.64 L2105.48 1345.3 L2101.2 1345.3 L2101.2 1329.79 Q2101.2 1326.04 2099.88 1324.25 Q2098.56 1322.45 2095.8 1322.45 Q2092.54 1322.45 2090.62 1324.67 Q2088.7 1326.87 2088.7 1330.64 L2088.7 1345.3 L2084.41 1345.3 L2084.41 1319.37 L2088.7 1319.37 L2088.7 1323.4 Q2090.16 1321.01 2092.19 1319.88 Q2094.23 1318.75 2097.03 1318.75 Q2099.85 1318.75 2101.82 1320.18 Q2103.81 1321.62 2104.76 1324.35 Z" fill="#000000" fill-rule="nonzero" fill-opacity="1"></path><path clip-path="url(#clip220)" d="M2130.76 1319.37 L2135.02 1319.37 L2135.02 1345.3 L2130.76 1345.3 L2130.76 1319.37 M2130.76 1309.28 L2135.02 1309.28 L2135.02 1314.67 L2130.76 1314.67 L2130.76 1309.28 Z" fill="#000000" fill-rule="nonzero" fill-opacity="1"></path><path clip-path="url(#clip220)" d="M2143.93 1309.28 L2148.19 1309.28 L2148.19 1345.3 L2143.93 1345.3 L2143.93 1309.28 Z" fill="#000000" fill-rule="nonzero" fill-opacity="1"></path><path clip-path="url(#clip220)" d="M2168.88 1332.26 Q2163.72 1332.26 2161.73 1333.44 Q2159.74 1334.63 2159.74 1337.47 Q2159.74 1339.74 2161.22 1341.08 Q2162.72 1342.4 2165.29 1342.4 Q2168.84 1342.4 2170.97 1339.9 Q2173.12 1337.38 2173.12 1333.21 L2173.12 1332.26 L2168.88 1332.26 M2177.38 1330.5 L2177.38 1345.3 L2173.12 1345.3 L2173.12 1341.36 Q2171.66 1343.72 2169.48 1344.86 Q2167.31 1345.97 2164.16 1345.97 Q2160.18 1345.97 2157.82 1343.75 Q2155.48 1341.5 2155.48 1337.75 Q2155.48 1333.38 2158.4 1331.15 Q2161.34 1328.93 2167.15 1328.93 L2173.12 1328.93 L2173.12 1328.51 Q2173.12 1325.57 2171.17 1323.98 Q2169.25 1322.36 2165.76 1322.36 Q2163.53 1322.36 2161.43 1322.89 Q2159.32 1323.42 2157.38 1324.49 L2157.38 1320.55 Q2159.72 1319.65 2161.91 1319.21 Q2164.11 1318.75 2166.2 1318.75 Q2171.82 1318.75 2174.6 1321.66 Q2177.38 1324.58 2177.38 1330.5 Z" fill="#000000" fill-rule="nonzero" fill-opacity="1"></path><path clip-path="url(#clip220)" d="M2201.17 1323.35 Q2200.46 1322.94 2199.6 1322.75 Q2198.77 1322.54 2197.75 1322.54 Q2194.14 1322.54 2192.19 1324.9 Q2190.27 1327.24 2190.27 1331.64 L2190.27 1345.3 L2185.99 1345.3 L2185.99 1319.37 L2190.27 1319.37 L2190.27 1323.4 Q2191.61 1321.04 2193.77 1319.9 Q2195.92 1318.75 2199 1318.75 Q2199.44 1318.75 2199.97 1318.81 Q2200.5 1318.86 2201.15 1318.98 L2201.17 1323.35 Z" fill="#000000" fill-rule="nonzero" fill-opacity="1"></path><path clip-path="url(#clip220)" d="M2205.64 1319.37 L2209.9 1319.37 L2209.9 1345.3 L2205.64 1345.3 L2205.64 1319.37 M2205.64 1309.28 L2209.9 1309.28 L2209.9 1314.67 L2205.64 1314.67 L2205.64 1309.28 Z" fill="#000000" fill-rule="nonzero" fill-opacity="1"></path><path clip-path="url(#clip220)" d="M2223.03 1312.01 L2223.03 1319.37 L2231.8 1319.37 L2231.8 1322.68 L2223.03 1322.68 L2223.03 1336.75 Q2223.03 1339.93 2223.88 1340.83 Q2224.76 1341.73 2227.42 1341.73 L2231.8 1341.73 L2231.8 1345.3 L2227.42 1345.3 Q2222.49 1345.3 2220.62 1343.47 Q2218.74 1341.62 2218.74 1336.75 L2218.74 1322.68 L2215.62 1322.68 L2215.62 1319.37 L2218.74 1319.37 L2218.74 1312.01 L2223.03 1312.01 Z" fill="#000000" fill-rule="nonzero" fill-opacity="1"></path><path clip-path="url(#clip220)" d="M2248.19 1347.7 Q2246.38 1352.33 2244.67 1353.75 Q2242.96 1355.16 2240.09 1355.16 L2236.68 1355.16 L2236.68 1351.59 L2239.18 1351.59 Q2240.94 1351.59 2241.91 1350.76 Q2242.89 1349.93 2244.07 1346.82 L2244.83 1344.88 L2234.34 1319.37 L2238.86 1319.37 L2246.96 1339.65 L2255.06 1319.37 L2259.58 1319.37 L2248.19 1347.7 Z" fill="#000000" fill-rule="nonzero" fill-opacity="1"></path></svg>