<?xml version="1.0" encoding="utf-8"?>
<svg xmlns="http://www.w3.org/2000/svg" xmlns:xlink="http://www.w3.org/1999/xlink" width="600" height="400" viewBox="0 0 2400 1600">
<defs>
  <clipPath id="clip490">
    <rect x="0" y="0" width="2400" height="1600"/>
  </clipPath>
</defs>
<path clip-path="url(#clip490)" d="M0 1600 L2400 1600 L2400 8.88178e-14 L0 8.88178e-14  Z" fill="#ffffff" fill-rule="evenodd" fill-opacity="1"/>
<defs>
  <clipPath id="clip491">
    <rect x="480" y="0" width="1681" height="1600"/>
  </clipPath>
</defs>
<path clip-path="url(#clip490)" d="M250.352 1423.18 L2352.76 1423.18 L2352.76 123.472 L250.352 123.472  Z" fill="#ffffff" fill-rule="evenodd" fill-opacity="1"/>
<defs>
  <clipPath id="clip492">
    <rect x="250" y="123" width="2103" height="1301"/>
  </clipPath>
</defs>
<polyline clip-path="url(#clip492)" style="stroke:#000000; stroke-linecap:round; stroke-linejoin:round; stroke-width:2; stroke-opacity:0.1; fill:none" points="309.854,1423.18 309.854,123.472 "/>
<polyline clip-path="url(#clip492)" style="stroke:#000000; stroke-linecap:round; stroke-linejoin:round; stroke-width:2; stroke-opacity:0.1; fill:none" points="970.987,1423.18 970.987,123.472 "/>
<polyline clip-path="url(#clip492)" style="stroke:#000000; stroke-linecap:round; stroke-linejoin:round; stroke-width:2; stroke-opacity:0.1; fill:none" points="1632.12,1423.18 1632.12,123.472 "/>
<polyline clip-path="url(#clip492)" style="stroke:#000000; stroke-linecap:round; stroke-linejoin:round; stroke-width:2; stroke-opacity:0.1; fill:none" points="2293.25,1423.18 2293.25,123.472 "/>
<polyline clip-path="url(#clip490)" style="stroke:#000000; stroke-linecap:round; stroke-linejoin:round; stroke-width:4; stroke-opacity:1; fill:none" points="250.352,1423.18 2352.76,1423.18 "/>
<polyline clip-path="url(#clip490)" style="stroke:#000000; stroke-linecap:round; stroke-linejoin:round; stroke-width:4; stroke-opacity:1; fill:none" points="309.854,1423.18 309.854,1404.28 "/>
<polyline clip-path="url(#clip490)" style="stroke:#000000; stroke-linecap:round; stroke-linejoin:round; stroke-width:4; stroke-opacity:1; fill:none" points="970.987,1423.18 970.987,1404.28 "/>
<polyline clip-path="url(#clip490)" style="stroke:#000000; stroke-linecap:round; stroke-linejoin:round; stroke-width:4; stroke-opacity:1; fill:none" points="1632.12,1423.18 1632.12,1404.28 "/>
<polyline clip-path="url(#clip490)" style="stroke:#000000; stroke-linecap:round; stroke-linejoin:round; stroke-width:4; stroke-opacity:1; fill:none" points="2293.25,1423.18 2293.25,1404.28 "/>
<path clip-path="url(#clip490)" d="M300.236 1481.64 L307.875 1481.64 L307.875 1455.28 L299.565 1456.95 L299.565 1452.69 L307.829 1451.02 L312.505 1451.02 L312.505 1481.64 L320.144 1481.64 L320.144 1485.58 L300.236 1485.58 L300.236 1481.64 Z" fill="#000000" fill-rule="nonzero" fill-opacity="1" /><path clip-path="url(#clip490)" d="M965.64 1481.64 L981.96 1481.64 L981.96 1485.58 L960.015 1485.58 L960.015 1481.64 Q962.677 1478.89 967.261 1474.26 Q971.867 1469.61 973.048 1468.27 Q975.293 1465.74 976.173 1464.01 Q977.075 1462.25 977.075 1460.56 Q977.075 1457.8 975.131 1456.07 Q973.21 1454.33 970.108 1454.33 Q967.909 1454.33 965.455 1455.09 Q963.025 1455.86 960.247 1457.41 L960.247 1452.69 Q963.071 1451.55 965.525 1450.97 Q967.978 1450.39 970.015 1450.39 Q975.386 1450.39 978.58 1453.08 Q981.774 1455.77 981.774 1460.26 Q981.774 1462.39 980.964 1464.31 Q980.177 1466.2 978.071 1468.8 Q977.492 1469.47 974.39 1472.69 Q971.288 1475.88 965.64 1481.64 Z" fill="#000000" fill-rule="nonzero" fill-opacity="1" /><path clip-path="url(#clip490)" d="M1636.37 1466.95 Q1639.72 1467.66 1641.6 1469.93 Q1643.5 1472.2 1643.5 1475.53 Q1643.5 1480.65 1639.98 1483.45 Q1636.46 1486.25 1629.98 1486.25 Q1627.8 1486.25 1625.49 1485.81 Q1623.2 1485.39 1620.74 1484.54 L1620.74 1480.02 Q1622.69 1481.16 1625 1481.74 Q1627.32 1482.32 1629.84 1482.32 Q1634.24 1482.32 1636.53 1480.58 Q1638.85 1478.84 1638.85 1475.53 Q1638.85 1472.48 1636.69 1470.77 Q1634.56 1469.03 1630.74 1469.03 L1626.72 1469.03 L1626.72 1465.19 L1630.93 1465.19 Q1634.38 1465.19 1636.21 1463.82 Q1638.03 1462.43 1638.03 1459.84 Q1638.03 1457.18 1636.14 1455.77 Q1634.26 1454.33 1630.74 1454.33 Q1628.82 1454.33 1626.62 1454.75 Q1624.42 1455.16 1621.79 1456.04 L1621.79 1451.88 Q1624.45 1451.14 1626.76 1450.77 Q1629.1 1450.39 1631.16 1450.39 Q1636.48 1450.39 1639.59 1452.83 Q1642.69 1455.23 1642.69 1459.35 Q1642.69 1462.22 1641.04 1464.21 Q1639.4 1466.18 1636.37 1466.95 Z" fill="#000000" fill-rule="nonzero" fill-opacity="1" /><path clip-path="url(#clip490)" d="M2296.26 1455.09 L2284.46 1473.54 L2296.26 1473.54 L2296.26 1455.09 M2295.04 1451.02 L2300.92 1451.02 L2300.92 1473.54 L2305.85 1473.54 L2305.85 1477.43 L2300.92 1477.43 L2300.92 1485.58 L2296.26 1485.58 L2296.26 1477.43 L2280.66 1477.43 L2280.66 1472.92 L2295.04 1451.02 Z" fill="#000000" fill-rule="nonzero" fill-opacity="1" /><path clip-path="url(#clip490)" d="M1001.36 1520.52 L1007.79 1520.52 L1007.79 1562.63 L1030.93 1562.63 L1030.93 1568.04 L1001.36 1568.04 L1001.36 1520.52 Z" fill="#000000" fill-rule="nonzero" fill-opacity="1" /><path clip-path="url(#clip490)" d="M1053.63 1550.12 Q1046.53 1550.12 1043.79 1551.75 Q1041.05 1553.37 1041.05 1557.29 Q1041.05 1560.4 1043.09 1562.25 Q1045.16 1564.07 1048.69 1564.07 Q1053.56 1564.07 1056.49 1560.63 Q1059.45 1557.16 1059.45 1551.43 L1059.45 1550.12 L1053.63 1550.12 M1065.31 1547.71 L1065.31 1568.04 L1059.45 1568.04 L1059.45 1562.63 Q1057.45 1565.88 1054.45 1567.44 Q1051.46 1568.97 1047.13 1568.97 Q1041.66 1568.97 1038.41 1565.91 Q1035.2 1562.82 1035.2 1557.67 Q1035.2 1551.65 1039.21 1548.6 Q1043.25 1545.54 1051.24 1545.54 L1059.45 1545.54 L1059.45 1544.97 Q1059.45 1540.93 1056.78 1538.73 Q1054.13 1536.5 1049.33 1536.5 Q1046.27 1536.5 1043.38 1537.23 Q1040.48 1537.97 1037.81 1539.43 L1037.81 1534.02 Q1041.02 1532.78 1044.05 1532.17 Q1047.07 1531.54 1049.93 1531.54 Q1057.67 1531.54 1061.49 1535.55 Q1065.31 1539.56 1065.31 1547.71 Z" fill="#000000" fill-rule="nonzero" fill-opacity="1" /><path clip-path="url(#clip490)" d="M1083.16 1522.27 L1083.16 1532.4 L1095.23 1532.4 L1095.23 1536.95 L1083.16 1536.95 L1083.16 1556.3 Q1083.16 1560.66 1084.34 1561.9 Q1085.55 1563.14 1089.21 1563.14 L1095.23 1563.14 L1095.23 1568.04 L1089.21 1568.04 Q1082.43 1568.04 1079.85 1565.53 Q1077.27 1562.98 1077.27 1556.3 L1077.27 1536.95 L1072.98 1536.95 L1072.98 1532.4 L1077.27 1532.4 L1077.27 1522.27 L1083.16 1522.27 Z" fill="#000000" fill-rule="nonzero" fill-opacity="1" /><path clip-path="url(#clip490)" d="M1133.42 1548.76 L1133.42 1551.62 L1106.49 1551.62 Q1106.87 1557.67 1110.12 1560.85 Q1113.4 1564 1119.22 1564 Q1122.6 1564 1125.75 1563.17 Q1128.93 1562.35 1132.05 1560.69 L1132.05 1566.23 Q1128.9 1567.57 1125.59 1568.27 Q1122.28 1568.97 1118.87 1568.97 Q1110.34 1568.97 1105.35 1564 Q1100.38 1559.04 1100.38 1550.57 Q1100.38 1541.82 1105.09 1536.69 Q1109.83 1531.54 1117.86 1531.54 Q1125.05 1531.54 1129.22 1536.18 Q1133.42 1540.8 1133.42 1548.76 M1127.56 1547.04 Q1127.5 1542.23 1124.86 1539.37 Q1122.25 1536.5 1117.92 1536.5 Q1113.02 1536.5 1110.06 1539.27 Q1107.13 1542.04 1106.68 1547.07 L1127.56 1547.04 Z" fill="#000000" fill-rule="nonzero" fill-opacity="1" /><path clip-path="url(#clip490)" d="M1172.66 1546.53 L1172.66 1568.04 L1166.81 1568.04 L1166.81 1546.72 Q1166.81 1541.66 1164.83 1539.14 Q1162.86 1536.63 1158.91 1536.63 Q1154.17 1536.63 1151.43 1539.65 Q1148.7 1542.68 1148.7 1547.9 L1148.7 1568.04 L1142.81 1568.04 L1142.81 1532.4 L1148.7 1532.4 L1148.7 1537.93 Q1150.8 1534.72 1153.63 1533.13 Q1156.5 1531.54 1160.22 1531.54 Q1166.36 1531.54 1169.51 1535.36 Q1172.66 1539.14 1172.66 1546.53 Z" fill="#000000" fill-rule="nonzero" fill-opacity="1" /><path clip-path="url(#clip490)" d="M1190.14 1522.27 L1190.14 1532.4 L1202.2 1532.4 L1202.2 1536.95 L1190.14 1536.95 L1190.14 1556.3 Q1190.14 1560.66 1191.32 1561.9 Q1192.53 1563.14 1196.19 1563.14 L1202.2 1563.14 L1202.2 1568.04 L1196.19 1568.04 Q1189.41 1568.04 1186.83 1565.53 Q1184.25 1562.98 1184.25 1556.3 L1184.25 1536.95 L1179.95 1536.95 L1179.95 1532.4 L1184.25 1532.4 L1184.25 1522.27 L1190.14 1522.27 Z" fill="#000000" fill-rule="nonzero" fill-opacity="1" /><path clip-path="url(#clip490)" d="M1237.31 1525.81 L1237.31 1562.76 L1245.07 1562.76 Q1254.91 1562.76 1259.46 1558.3 Q1264.04 1553.85 1264.04 1544.24 Q1264.04 1534.69 1259.46 1530.26 Q1254.91 1525.81 1245.07 1525.81 L1237.31 1525.81 M1230.88 1520.52 L1244.09 1520.52 Q1257.9 1520.52 1264.36 1526.28 Q1270.82 1532.01 1270.82 1544.24 Q1270.82 1556.52 1264.33 1562.28 Q1257.84 1568.04 1244.09 1568.04 L1230.88 1568.04 L1230.88 1520.52 Z" fill="#000000" fill-rule="nonzero" fill-opacity="1" /><path clip-path="url(#clip490)" d="M1280.82 1532.4 L1286.67 1532.4 L1286.67 1568.04 L1280.82 1568.04 L1280.82 1532.4 M1280.82 1518.52 L1286.67 1518.52 L1286.67 1525.93 L1280.82 1525.93 L1280.82 1518.52 Z" fill="#000000" fill-rule="nonzero" fill-opacity="1" /><path clip-path="url(#clip490)" d="M1326.68 1539.24 Q1328.88 1535.29 1331.93 1533.41 Q1334.99 1531.54 1339.13 1531.54 Q1344.7 1531.54 1347.72 1535.45 Q1350.75 1539.33 1350.75 1546.53 L1350.75 1568.04 L1344.86 1568.04 L1344.86 1546.72 Q1344.86 1541.59 1343.04 1539.11 Q1341.23 1536.63 1337.5 1536.63 Q1332.95 1536.63 1330.31 1539.65 Q1327.67 1542.68 1327.67 1547.9 L1327.67 1568.04 L1321.78 1568.04 L1321.78 1546.72 Q1321.78 1541.56 1319.97 1539.11 Q1318.15 1536.63 1314.37 1536.63 Q1309.88 1536.63 1307.24 1539.68 Q1304.59 1542.71 1304.59 1547.9 L1304.59 1568.04 L1298.71 1568.04 L1298.71 1532.4 L1304.59 1532.4 L1304.59 1537.93 Q1306.6 1534.66 1309.4 1533.1 Q1312.2 1531.54 1316.05 1531.54 Q1319.94 1531.54 1322.64 1533.51 Q1325.38 1535.48 1326.68 1539.24 Z" fill="#000000" fill-rule="nonzero" fill-opacity="1" /><path clip-path="url(#clip490)" d="M1392.92 1548.76 L1392.92 1551.62 L1365.99 1551.62 Q1366.37 1557.67 1369.62 1560.85 Q1372.9 1564 1378.72 1564 Q1382.1 1564 1385.25 1563.17 Q1388.43 1562.35 1391.55 1560.69 L1391.55 1566.23 Q1388.4 1567.57 1385.09 1568.27 Q1381.78 1568.97 1378.37 1568.97 Q1369.84 1568.97 1364.85 1564 Q1359.88 1559.04 1359.88 1550.57 Q1359.88 1541.82 1364.59 1536.69 Q1369.33 1531.54 1377.35 1531.54 Q1384.55 1531.54 1388.72 1536.18 Q1392.92 1540.8 1392.92 1548.76 M1387.06 1547.04 Q1387 1542.23 1384.36 1539.37 Q1381.75 1536.5 1377.42 1536.5 Q1372.52 1536.5 1369.56 1539.27 Q1366.63 1542.04 1366.18 1547.07 L1387.06 1547.04 Z" fill="#000000" fill-rule="nonzero" fill-opacity="1" /><path clip-path="url(#clip490)" d="M1432.16 1546.53 L1432.16 1568.04 L1426.31 1568.04 L1426.31 1546.72 Q1426.31 1541.66 1424.33 1539.14 Q1422.36 1536.63 1418.41 1536.63 Q1413.67 1536.63 1410.93 1539.65 Q1408.2 1542.68 1408.2 1547.9 L1408.2 1568.04 L1402.31 1568.04 L1402.31 1532.4 L1408.2 1532.4 L1408.2 1537.93 Q1410.3 1534.72 1413.13 1533.13 Q1415.99 1531.54 1419.72 1531.54 Q1425.86 1531.54 1429.01 1535.36 Q1432.16 1539.14 1432.16 1546.53 Z" fill="#000000" fill-rule="nonzero" fill-opacity="1" /><path clip-path="url(#clip490)" d="M1466.57 1533.45 L1466.57 1538.98 Q1464.09 1537.71 1461.41 1537.07 Q1458.74 1536.44 1455.87 1536.44 Q1451.51 1536.44 1449.32 1537.77 Q1447.15 1539.11 1447.15 1541.79 Q1447.15 1543.82 1448.71 1545 Q1450.27 1546.15 1454.98 1547.2 L1456.99 1547.64 Q1463.23 1548.98 1465.84 1551.43 Q1468.48 1553.85 1468.48 1558.21 Q1468.48 1563.17 1464.53 1566.07 Q1460.62 1568.97 1453.74 1568.97 Q1450.88 1568.97 1447.76 1568.39 Q1444.67 1567.85 1441.23 1566.74 L1441.23 1560.69 Q1444.48 1562.38 1447.63 1563.24 Q1450.78 1564.07 1453.87 1564.07 Q1458.01 1564.07 1460.24 1562.66 Q1462.46 1561.23 1462.46 1558.65 Q1462.46 1556.27 1460.84 1554.99 Q1459.25 1553.72 1453.81 1552.54 L1451.77 1552.07 Q1446.33 1550.92 1443.91 1548.56 Q1441.49 1546.18 1441.49 1542.04 Q1441.49 1537.01 1445.05 1534.27 Q1448.62 1531.54 1455.17 1531.54 Q1458.42 1531.54 1461.29 1532.01 Q1464.15 1532.49 1466.57 1533.45 Z" fill="#000000" fill-rule="nonzero" fill-opacity="1" /><path clip-path="url(#clip490)" d="M1477.8 1532.4 L1483.66 1532.4 L1483.66 1568.04 L1477.8 1568.04 L1477.8 1532.4 M1477.8 1518.52 L1483.66 1518.52 L1483.66 1525.93 L1477.8 1525.93 L1477.8 1518.52 Z" fill="#000000" fill-rule="nonzero" fill-opacity="1" /><path clip-path="url(#clip490)" d="M1509.73 1536.5 Q1505.02 1536.5 1502.28 1540.19 Q1499.54 1543.85 1499.54 1550.25 Q1499.54 1556.65 1502.25 1560.34 Q1504.99 1564 1509.73 1564 Q1514.41 1564 1517.14 1560.31 Q1519.88 1556.62 1519.88 1550.25 Q1519.88 1543.92 1517.14 1540.23 Q1514.41 1536.5 1509.73 1536.5 M1509.73 1531.54 Q1517.37 1531.54 1521.73 1536.5 Q1526.09 1541.47 1526.09 1550.25 Q1526.09 1559 1521.73 1564 Q1517.37 1568.97 1509.73 1568.97 Q1502.06 1568.97 1497.7 1564 Q1493.37 1559 1493.37 1550.25 Q1493.37 1541.47 1497.7 1536.5 Q1502.06 1531.54 1509.73 1531.54 Z" fill="#000000" fill-rule="nonzero" fill-opacity="1" /><path clip-path="url(#clip490)" d="M1565.43 1546.53 L1565.43 1568.04 L1559.57 1568.04 L1559.57 1546.72 Q1559.57 1541.66 1557.6 1539.14 Q1555.63 1536.63 1551.68 1536.63 Q1546.94 1536.63 1544.2 1539.65 Q1541.46 1542.68 1541.46 1547.9 L1541.46 1568.04 L1535.57 1568.04 L1535.57 1532.4 L1541.46 1532.4 L1541.46 1537.93 Q1543.56 1534.72 1546.4 1533.13 Q1549.26 1531.54 1552.98 1531.54 Q1559.13 1531.54 1562.28 1535.36 Q1565.43 1539.14 1565.43 1546.53 Z" fill="#000000" fill-rule="nonzero" fill-opacity="1" /><path clip-path="url(#clip490)" d="M1599.84 1533.45 L1599.84 1538.98 Q1597.35 1537.71 1594.68 1537.07 Q1592.01 1536.44 1589.14 1536.44 Q1584.78 1536.44 1582.58 1537.77 Q1580.42 1539.11 1580.42 1541.79 Q1580.42 1543.82 1581.98 1545 Q1583.54 1546.15 1588.25 1547.2 L1590.25 1547.64 Q1596.49 1548.98 1599.1 1551.43 Q1601.74 1553.85 1601.74 1558.21 Q1601.74 1563.17 1597.8 1566.07 Q1593.88 1568.97 1587.01 1568.97 Q1584.14 1568.97 1581.02 1568.39 Q1577.94 1567.85 1574.5 1566.74 L1574.5 1560.69 Q1577.75 1562.38 1580.9 1563.24 Q1584.05 1564.07 1587.14 1564.07 Q1591.27 1564.07 1593.5 1562.66 Q1595.73 1561.23 1595.73 1558.65 Q1595.73 1556.27 1594.11 1554.99 Q1592.51 1553.72 1587.07 1552.54 L1585.03 1552.07 Q1579.59 1550.92 1577.17 1548.56 Q1574.75 1546.18 1574.75 1542.04 Q1574.75 1537.01 1578.32 1534.27 Q1581.88 1531.54 1588.44 1531.54 Q1591.69 1531.54 1594.55 1532.01 Q1597.42 1532.49 1599.84 1533.45 Z" fill="#000000" fill-rule="nonzero" fill-opacity="1" /><polyline clip-path="url(#clip492)" style="stroke:#000000; stroke-linecap:round; stroke-linejoin:round; stroke-width:2; stroke-opacity:0.1; fill:none" points="250.352,1298.14 2352.76,1298.14 "/>
<polyline clip-path="url(#clip492)" style="stroke:#000000; stroke-linecap:round; stroke-linejoin:round; stroke-width:2; stroke-opacity:0.1; fill:none" points="250.352,1020.08 2352.76,1020.08 "/>
<polyline clip-path="url(#clip492)" style="stroke:#000000; stroke-linecap:round; stroke-linejoin:round; stroke-width:2; stroke-opacity:0.1; fill:none" points="250.352,742.01 2352.76,742.01 "/>
<polyline clip-path="url(#clip492)" style="stroke:#000000; stroke-linecap:round; stroke-linejoin:round; stroke-width:2; stroke-opacity:0.1; fill:none" points="250.352,463.943 2352.76,463.943 "/>
<polyline clip-path="url(#clip492)" style="stroke:#000000; stroke-linecap:round; stroke-linejoin:round; stroke-width:2; stroke-opacity:0.1; fill:none" points="250.352,185.877 2352.76,185.877 "/>
<polyline clip-path="url(#clip490)" style="stroke:#000000; stroke-linecap:round; stroke-linejoin:round; stroke-width:4; stroke-opacity:1; fill:none" points="250.352,1423.18 250.352,123.472 "/>
<polyline clip-path="url(#clip490)" style="stroke:#000000; stroke-linecap:round; stroke-linejoin:round; stroke-width:4; stroke-opacity:1; fill:none" points="250.352,1298.14 269.25,1298.14 "/>
<polyline clip-path="url(#clip490)" style="stroke:#000000; stroke-linecap:round; stroke-linejoin:round; stroke-width:4; stroke-opacity:1; fill:none" points="250.352,1020.08 269.25,1020.08 "/>
<polyline clip-path="url(#clip490)" style="stroke:#000000; stroke-linecap:round; stroke-linejoin:round; stroke-width:4; stroke-opacity:1; fill:none" points="250.352,742.01 269.25,742.01 "/>
<polyline clip-path="url(#clip490)" style="stroke:#000000; stroke-linecap:round; stroke-linejoin:round; stroke-width:4; stroke-opacity:1; fill:none" points="250.352,463.943 269.25,463.943 "/>
<polyline clip-path="url(#clip490)" style="stroke:#000000; stroke-linecap:round; stroke-linejoin:round; stroke-width:4; stroke-opacity:1; fill:none" points="250.352,185.877 269.25,185.877 "/>
<path clip-path="url(#clip490)" d="M132.177 1296.79 Q135.533 1297.51 137.408 1299.77 Q139.306 1302.04 139.306 1305.38 Q139.306 1310.49 135.788 1313.29 Q132.269 1316.09 125.788 1316.09 Q123.612 1316.09 121.297 1315.65 Q119.006 1315.24 116.552 1314.38 L116.552 1309.87 Q118.496 1311 120.811 1311.58 Q123.126 1312.16 125.649 1312.16 Q130.047 1312.16 132.339 1310.42 Q134.654 1308.69 134.654 1305.38 Q134.654 1302.32 132.501 1300.61 Q130.371 1298.87 126.552 1298.87 L122.524 1298.87 L122.524 1295.03 L126.737 1295.03 Q130.186 1295.03 132.015 1293.66 Q133.843 1292.27 133.843 1289.68 Q133.843 1287.02 131.945 1285.61 Q130.07 1284.17 126.552 1284.17 Q124.63 1284.17 122.431 1284.59 Q120.232 1285.01 117.593 1285.89 L117.593 1281.72 Q120.255 1280.98 122.57 1280.61 Q124.908 1280.24 126.968 1280.24 Q132.292 1280.24 135.394 1282.67 Q138.496 1285.08 138.496 1289.2 Q138.496 1292.07 136.853 1294.06 Q135.209 1296.02 132.177 1296.79 Z" fill="#000000" fill-rule="nonzero" fill-opacity="1" /><path clip-path="url(#clip490)" d="M148.172 1309.54 L153.056 1309.54 L153.056 1315.42 L148.172 1315.42 L148.172 1309.54 Z" fill="#000000" fill-rule="nonzero" fill-opacity="1" /><path clip-path="url(#clip490)" d="M162.061 1280.86 L184.283 1280.86 L184.283 1282.85 L171.737 1315.42 L166.852 1315.42 L178.658 1284.8 L162.061 1284.8 L162.061 1280.86 Z" fill="#000000" fill-rule="nonzero" fill-opacity="1" /><path clip-path="url(#clip490)" d="M193.45 1280.86 L211.806 1280.86 L211.806 1284.8 L197.732 1284.8 L197.732 1293.27 Q198.75 1292.92 199.769 1292.76 Q200.787 1292.58 201.806 1292.58 Q207.593 1292.58 210.973 1295.75 Q214.352 1298.92 214.352 1304.33 Q214.352 1309.91 210.88 1313.02 Q207.408 1316.09 201.088 1316.09 Q198.912 1316.09 196.644 1315.72 Q194.399 1315.35 191.991 1314.61 L191.991 1309.91 Q194.075 1311.05 196.297 1311.6 Q198.519 1312.16 200.996 1312.16 Q205 1312.16 207.338 1310.05 Q209.676 1307.95 209.676 1304.33 Q209.676 1300.72 207.338 1298.62 Q205 1296.51 200.996 1296.51 Q199.121 1296.51 197.246 1296.93 Q195.394 1297.34 193.45 1298.22 L193.45 1280.86 Z" fill="#000000" fill-rule="nonzero" fill-opacity="1" /><path clip-path="url(#clip490)" d="M129.862 1006.87 L118.056 1025.32 L129.862 1025.32 L129.862 1006.87 M128.635 1002.8 L134.515 1002.8 L134.515 1025.32 L139.445 1025.32 L139.445 1029.21 L134.515 1029.21 L134.515 1037.36 L129.862 1037.36 L129.862 1029.21 L114.26 1029.21 L114.26 1024.69 L128.635 1002.8 Z" fill="#000000" fill-rule="nonzero" fill-opacity="1" /><path clip-path="url(#clip490)" d="M147.177 1031.48 L152.061 1031.48 L152.061 1037.36 L147.177 1037.36 L147.177 1031.48 Z" fill="#000000" fill-rule="nonzero" fill-opacity="1" /><path clip-path="url(#clip490)" d="M172.246 1005.87 Q168.635 1005.87 166.806 1009.44 Q165.001 1012.98 165.001 1020.11 Q165.001 1027.22 166.806 1030.78 Q168.635 1034.32 172.246 1034.32 Q175.88 1034.32 177.686 1030.78 Q179.514 1027.22 179.514 1020.11 Q179.514 1012.98 177.686 1009.44 Q175.88 1005.87 172.246 1005.87 M172.246 1002.17 Q178.056 1002.17 181.112 1006.78 Q184.19 1011.36 184.19 1020.11 Q184.19 1028.84 181.112 1033.44 Q178.056 1038.03 172.246 1038.03 Q166.436 1038.03 163.357 1033.44 Q160.302 1028.84 160.302 1020.11 Q160.302 1011.36 163.357 1006.78 Q166.436 1002.17 172.246 1002.17 Z" fill="#000000" fill-rule="nonzero" fill-opacity="1" /><path clip-path="url(#clip490)" d="M202.408 1005.87 Q198.797 1005.87 196.968 1009.44 Q195.163 1012.98 195.163 1020.11 Q195.163 1027.22 196.968 1030.78 Q198.797 1034.32 202.408 1034.32 Q206.042 1034.32 207.848 1030.78 Q209.676 1027.22 209.676 1020.11 Q209.676 1012.98 207.848 1009.44 Q206.042 1005.87 202.408 1005.87 M202.408 1002.17 Q208.218 1002.17 211.274 1006.78 Q214.352 1011.36 214.352 1020.11 Q214.352 1028.84 211.274 1033.44 Q208.218 1038.03 202.408 1038.03 Q196.598 1038.03 193.519 1033.44 Q190.463 1028.84 190.463 1020.11 Q190.463 1011.36 193.519 1006.78 Q196.598 1002.17 202.408 1002.17 Z" fill="#000000" fill-rule="nonzero" fill-opacity="1" /><path clip-path="url(#clip490)" d="M130.857 728.804 L119.052 747.253 L130.857 747.253 L130.857 728.804 M129.63 724.73 L135.51 724.73 L135.51 747.253 L140.441 747.253 L140.441 751.142 L135.51 751.142 L135.51 759.29 L130.857 759.29 L130.857 751.142 L115.256 751.142 L115.256 746.628 L129.63 724.73 Z" fill="#000000" fill-rule="nonzero" fill-opacity="1" /><path clip-path="url(#clip490)" d="M148.172 753.41 L153.056 753.41 L153.056 759.29 L148.172 759.29 L148.172 753.41 Z" fill="#000000" fill-rule="nonzero" fill-opacity="1" /><path clip-path="url(#clip490)" d="M167.269 755.355 L183.588 755.355 L183.588 759.29 L161.644 759.29 L161.644 755.355 Q164.306 752.6 168.889 747.97 Q173.496 743.318 174.677 741.975 Q176.922 739.452 177.801 737.716 Q178.704 735.957 178.704 734.267 Q178.704 731.512 176.76 729.776 Q174.839 728.04 171.737 728.04 Q169.538 728.04 167.084 728.804 Q164.653 729.568 161.876 731.119 L161.876 726.396 Q164.7 725.262 167.153 724.683 Q169.607 724.105 171.644 724.105 Q177.014 724.105 180.209 726.79 Q183.403 729.475 183.403 733.966 Q183.403 736.095 182.593 738.017 Q181.806 739.915 179.7 742.507 Q179.121 743.179 176.019 746.396 Q172.917 749.591 167.269 755.355 Z" fill="#000000" fill-rule="nonzero" fill-opacity="1" /><path clip-path="url(#clip490)" d="M193.45 724.73 L211.806 724.73 L211.806 728.665 L197.732 728.665 L197.732 737.137 Q198.75 736.79 199.769 736.628 Q200.787 736.443 201.806 736.443 Q207.593 736.443 210.973 739.614 Q214.352 742.785 214.352 748.202 Q214.352 753.781 210.88 756.882 Q207.408 759.961 201.088 759.961 Q198.912 759.961 196.644 759.591 Q194.399 759.22 191.991 758.48 L191.991 753.781 Q194.075 754.915 196.297 755.47 Q198.519 756.026 200.996 756.026 Q205 756.026 207.338 753.919 Q209.676 751.813 209.676 748.202 Q209.676 744.591 207.338 742.484 Q205 740.378 200.996 740.378 Q199.121 740.378 197.246 740.795 Q195.394 741.211 193.45 742.091 L193.45 724.73 Z" fill="#000000" fill-rule="nonzero" fill-opacity="1" /><path clip-path="url(#clip490)" d="M129.862 450.737 L118.056 469.186 L129.862 469.186 L129.862 450.737 M128.635 446.663 L134.515 446.663 L134.515 469.186 L139.445 469.186 L139.445 473.075 L134.515 473.075 L134.515 481.223 L129.862 481.223 L129.862 473.075 L114.26 473.075 L114.26 468.561 L128.635 446.663 Z" fill="#000000" fill-rule="nonzero" fill-opacity="1" /><path clip-path="url(#clip490)" d="M147.177 475.344 L152.061 475.344 L152.061 481.223 L147.177 481.223 L147.177 475.344 Z" fill="#000000" fill-rule="nonzero" fill-opacity="1" /><path clip-path="url(#clip490)" d="M162.292 446.663 L180.649 446.663 L180.649 450.599 L166.575 450.599 L166.575 459.071 Q167.593 458.724 168.612 458.562 Q169.63 458.376 170.649 458.376 Q176.436 458.376 179.815 461.548 Q183.195 464.719 183.195 470.136 Q183.195 475.714 179.723 478.816 Q176.251 481.895 169.931 481.895 Q167.755 481.895 165.487 481.524 Q163.241 481.154 160.834 480.413 L160.834 475.714 Q162.917 476.848 165.14 477.404 Q167.362 477.96 169.839 477.96 Q173.843 477.96 176.181 475.853 Q178.519 473.747 178.519 470.136 Q178.519 466.524 176.181 464.418 Q173.843 462.311 169.839 462.311 Q167.964 462.311 166.089 462.728 Q164.237 463.145 162.292 464.024 L162.292 446.663 Z" fill="#000000" fill-rule="nonzero" fill-opacity="1" /><path clip-path="url(#clip490)" d="M202.408 449.742 Q198.797 449.742 196.968 453.307 Q195.163 456.849 195.163 463.978 Q195.163 471.085 196.968 474.649 Q198.797 478.191 202.408 478.191 Q206.042 478.191 207.848 474.649 Q209.676 471.085 209.676 463.978 Q209.676 456.849 207.848 453.307 Q206.042 449.742 202.408 449.742 M202.408 446.038 Q208.218 446.038 211.274 450.645 Q214.352 455.228 214.352 463.978 Q214.352 472.705 211.274 477.311 Q208.218 481.895 202.408 481.895 Q196.598 481.895 193.519 477.311 Q190.463 472.705 190.463 463.978 Q190.463 455.228 193.519 450.645 Q196.598 446.038 202.408 446.038 Z" fill="#000000" fill-rule="nonzero" fill-opacity="1" /><path clip-path="url(#clip490)" d="M130.857 172.671 L119.052 191.12 L130.857 191.12 L130.857 172.671 M129.63 168.597 L135.51 168.597 L135.51 191.12 L140.441 191.12 L140.441 195.009 L135.51 195.009 L135.51 203.157 L130.857 203.157 L130.857 195.009 L115.256 195.009 L115.256 190.495 L129.63 168.597 Z" fill="#000000" fill-rule="nonzero" fill-opacity="1" /><path clip-path="url(#clip490)" d="M148.172 197.277 L153.056 197.277 L153.056 203.157 L148.172 203.157 L148.172 197.277 Z" fill="#000000" fill-rule="nonzero" fill-opacity="1" /><path clip-path="url(#clip490)" d="M162.061 168.597 L184.283 168.597 L184.283 170.588 L171.737 203.157 L166.852 203.157 L178.658 172.532 L162.061 172.532 L162.061 168.597 Z" fill="#000000" fill-rule="nonzero" fill-opacity="1" /><path clip-path="url(#clip490)" d="M193.45 168.597 L211.806 168.597 L211.806 172.532 L197.732 172.532 L197.732 181.004 Q198.75 180.657 199.769 180.495 Q200.787 180.31 201.806 180.31 Q207.593 180.31 210.973 183.481 Q214.352 186.653 214.352 192.069 Q214.352 197.648 210.88 200.75 Q207.408 203.828 201.088 203.828 Q198.912 203.828 196.644 203.458 Q194.399 203.088 191.991 202.347 L191.991 197.648 Q194.075 198.782 196.297 199.338 Q198.519 199.893 200.996 199.893 Q205 199.893 207.338 197.787 Q209.676 195.68 209.676 192.069 Q209.676 188.458 207.338 186.352 Q205 184.245 200.996 184.245 Q199.121 184.245 197.246 184.662 Q195.394 185.078 193.45 185.958 L193.45 168.597 Z" fill="#000000" fill-rule="nonzero" fill-opacity="1" /><path clip-path="url(#clip490)" d="M16.4842 837.445 L16.4842 827.864 L48.8219 815.738 L16.4842 803.547 L16.4842 793.967 L64.0042 793.967 L64.0042 800.237 L22.277 800.237 L54.8694 812.491 L54.8694 818.952 L22.277 831.206 L64.0042 831.206 L64.0042 837.445 L16.4842 837.445 Z" fill="#000000" fill-rule="nonzero" fill-opacity="1" /><path clip-path="url(#clip490)" d="M18.0438 752.717 L24.314 752.717 Q22.5634 756.377 21.704 759.624 Q20.8447 762.87 20.8447 765.894 Q20.8447 771.146 22.8817 774.01 Q24.9187 776.843 28.6745 776.843 Q31.8255 776.843 33.4488 774.965 Q35.0402 773.055 36.0269 767.772 L36.8226 763.889 Q38.1912 756.696 41.6605 753.29 Q45.098 749.852 50.8908 749.852 Q57.7976 749.852 61.3624 754.499 Q64.9272 759.115 64.9272 768.058 Q64.9272 771.432 64.1633 775.252 Q63.3994 779.039 61.9035 783.113 L55.2831 783.113 Q57.4793 779.198 58.5933 775.443 Q59.7073 771.687 59.7073 768.058 Q59.7073 762.552 57.543 759.56 Q55.3786 756.568 51.3682 756.568 Q47.8671 756.568 45.8937 758.733 Q43.9204 760.865 42.9337 765.767 L42.1698 769.682 Q40.7375 776.875 37.682 780.09 Q34.6264 783.304 29.1837 783.304 Q22.8817 783.304 19.2532 778.88 Q15.6248 774.424 15.6248 766.626 Q15.6248 763.284 16.2295 759.815 Q16.8343 756.345 18.0438 752.717 Z" fill="#000000" fill-rule="nonzero" fill-opacity="1" /><path clip-path="url(#clip490)" d="M16.4842 739.826 L16.4842 709.78 L21.895 709.78 L21.895 733.397 L35.9632 733.397 L35.9632 710.767 L41.3741 710.767 L41.3741 733.397 L58.5933 733.397 L58.5933 709.207 L64.0042 709.207 L64.0042 739.826 L16.4842 739.826 Z" fill="#000000" fill-rule="nonzero" fill-opacity="1" /><path clip-path="url(#clip490)" d="M719.945 12.096 L732.139 12.096 L747.573 53.2532 L763.088 12.096 L775.281 12.096 L775.281 72.576 L767.301 72.576 L767.301 19.4686 L751.705 60.9499 L743.481 60.9499 L727.885 19.4686 L727.885 72.576 L719.945 72.576 L719.945 12.096 Z" fill="#000000" fill-rule="nonzero" fill-opacity="1" /><path clip-path="url(#clip490)" d="M830.009 48.0275 L830.009 51.6733 L795.738 51.6733 Q796.224 59.3701 800.356 63.421 Q804.528 67.4314 811.942 67.4314 Q816.235 67.4314 820.246 66.3781 Q824.297 65.3249 828.267 63.2184 L828.267 70.267 Q824.256 71.9684 820.043 72.8596 Q815.83 73.7508 811.496 73.7508 Q800.639 73.7508 794.28 67.4314 Q787.96 61.1119 787.96 50.3365 Q787.96 39.1965 793.956 32.6746 Q799.991 26.1121 810.2 26.1121 Q819.355 26.1121 824.661 32.0264 Q830.009 37.9003 830.009 48.0275 M822.555 45.84 Q822.474 39.7232 819.112 36.0774 Q815.79 32.4315 810.281 32.4315 Q804.042 32.4315 800.275 35.9558 Q796.548 39.4801 795.981 45.8805 L822.555 45.84 Z" fill="#000000" fill-rule="nonzero" fill-opacity="1" /><path clip-path="url(#clip490)" d="M862.861 49.7694 Q853.828 49.7694 850.344 51.8354 Q846.86 53.9013 846.86 58.8839 Q846.86 62.8538 849.453 65.2034 Q852.086 67.5124 856.582 67.5124 Q862.78 67.5124 866.507 63.1374 Q870.275 58.7219 870.275 51.4303 L870.275 49.7694 L862.861 49.7694 M877.728 46.6907 L877.728 72.576 L870.275 72.576 L870.275 65.6895 Q867.722 69.8214 863.915 71.8063 Q860.107 73.7508 854.598 73.7508 Q847.63 73.7508 843.498 69.8619 Q839.407 65.9325 839.407 59.3701 Q839.407 51.7138 844.511 47.825 Q849.655 43.9361 859.823 43.9361 L870.275 43.9361 L870.275 43.2069 Q870.275 38.0623 866.872 35.2672 Q863.51 32.4315 857.393 32.4315 Q853.504 32.4315 849.817 33.3632 Q846.131 34.295 842.728 36.1584 L842.728 29.2718 Q846.82 27.692 850.668 26.9223 Q854.517 26.1121 858.162 26.1121 Q868.006 26.1121 872.867 31.2163 Q877.728 36.3204 877.728 46.6907 Z" fill="#000000" fill-rule="nonzero" fill-opacity="1" /><path clip-path="url(#clip490)" d="M930.795 45.1919 L930.795 72.576 L923.341 72.576 L923.341 45.4349 Q923.341 38.994 920.83 35.7938 Q918.318 32.5936 913.295 32.5936 Q907.259 32.5936 903.776 36.4419 Q900.292 40.2903 900.292 46.9338 L900.292 72.576 L892.798 72.576 L892.798 27.2059 L900.292 27.2059 L900.292 34.2544 Q902.965 30.163 906.571 28.1376 Q910.216 26.1121 914.956 26.1121 Q922.774 26.1121 926.785 30.9732 Q930.795 35.7938 930.795 45.1919 Z" fill="#000000" fill-rule="nonzero" fill-opacity="1" /><path clip-path="url(#clip490)" d="M1008.61 14.0809 L1008.61 22.0612 Q1003.95 19.8332 999.822 18.7395 Q995.691 17.6457 991.842 17.6457 Q985.158 17.6457 981.512 20.2383 Q977.907 22.8309 977.907 27.611 Q977.907 31.6214 980.297 33.6873 Q982.728 35.7128 989.452 36.9686 L994.394 37.9813 Q1003.55 39.7232 1007.88 44.1387 Q1012.26 48.5136 1012.26 55.8863 Q1012.26 64.6767 1006.34 69.2137 Q1000.47 73.7508 989.088 73.7508 Q984.794 73.7508 979.933 72.7785 Q975.112 71.8063 969.927 69.9024 L969.927 61.4765 Q974.909 64.2716 979.689 65.6895 Q984.47 67.1073 989.088 67.1073 Q996.096 67.1073 999.903 64.3527 Q1003.71 61.598 1003.71 56.4939 Q1003.71 52.0379 1000.96 49.5264 Q998.243 47.0148 992.004 45.759 L987.022 44.7868 Q977.867 42.9639 973.775 39.075 Q969.684 35.1862 969.684 28.2591 Q969.684 20.2383 975.314 15.6203 Q980.986 11.0023 990.91 11.0023 Q995.164 11.0023 999.579 11.7719 Q1003.99 12.5416 1008.61 14.0809 Z" fill="#000000" fill-rule="nonzero" fill-opacity="1" /><path clip-path="url(#clip490)" d="M1029.15 49.9314 Q1029.15 58.1548 1032.51 62.8538 Q1035.92 67.5124 1041.83 67.5124 Q1047.74 67.5124 1051.15 62.8538 Q1054.55 58.1548 1054.55 49.9314 Q1054.55 41.7081 1051.15 37.0496 Q1047.74 32.3505 1041.83 32.3505 Q1035.92 32.3505 1032.51 37.0496 Q1029.15 41.7081 1029.15 49.9314 M1054.55 65.7705 Q1052.2 69.8214 1048.6 71.8063 Q1045.03 73.7508 1040.01 73.7508 Q1031.78 73.7508 1026.6 67.1883 Q1021.45 60.6258 1021.45 49.9314 Q1021.45 39.2371 1026.6 32.6746 Q1031.78 26.1121 1040.01 26.1121 Q1045.03 26.1121 1048.6 28.0971 Q1052.2 30.0415 1054.55 34.0924 L1054.55 27.2059 L1062 27.2059 L1062 89.8329 L1054.55 89.8329 L1054.55 65.7705 Z" fill="#000000" fill-rule="nonzero" fill-opacity="1" /><path clip-path="url(#clip490)" d="M1076.59 54.671 L1076.59 27.2059 L1084.04 27.2059 L1084.04 54.3874 Q1084.04 60.8284 1086.55 64.0691 Q1089.06 67.2693 1094.09 67.2693 Q1100.12 67.2693 1103.61 63.421 Q1107.13 59.5726 1107.13 52.9291 L1107.13 27.2059 L1114.58 27.2059 L1114.58 72.576 L1107.13 72.576 L1107.13 65.6084 Q1104.42 69.7404 1100.81 71.7658 Q1097.25 73.7508 1092.51 73.7508 Q1084.69 73.7508 1080.64 68.8897 Q1076.59 64.0286 1076.59 54.671 M1095.34 26.1121 L1095.34 26.1121 Z" fill="#000000" fill-rule="nonzero" fill-opacity="1" /><path clip-path="url(#clip490)" d="M1150.56 49.7694 Q1141.52 49.7694 1138.04 51.8354 Q1134.56 53.9013 1134.56 58.8839 Q1134.56 62.8538 1137.15 65.2034 Q1139.78 67.5124 1144.28 67.5124 Q1150.48 67.5124 1154.2 63.1374 Q1157.97 58.7219 1157.97 51.4303 L1157.97 49.7694 L1150.56 49.7694 M1165.42 46.6907 L1165.42 72.576 L1157.97 72.576 L1157.97 65.6895 Q1155.42 69.8214 1151.61 71.8063 Q1147.8 73.7508 1142.29 73.7508 Q1135.33 73.7508 1131.19 69.8619 Q1127.1 65.9325 1127.1 59.3701 Q1127.1 51.7138 1132.21 47.825 Q1137.35 43.9361 1147.52 43.9361 L1157.97 43.9361 L1157.97 43.2069 Q1157.97 38.0623 1154.57 35.2672 Q1151.2 32.4315 1145.09 32.4315 Q1141.2 32.4315 1137.51 33.3632 Q1133.83 34.295 1130.42 36.1584 L1130.42 29.2718 Q1134.52 27.692 1138.36 26.9223 Q1142.21 26.1121 1145.86 26.1121 Q1155.7 26.1121 1160.56 31.2163 Q1165.42 36.3204 1165.42 46.6907 Z" fill="#000000" fill-rule="nonzero" fill-opacity="1" /><path clip-path="url(#clip490)" d="M1207.07 34.1734 Q1205.81 33.4443 1204.31 33.1202 Q1202.85 32.7556 1201.07 32.7556 Q1194.75 32.7556 1191.35 36.8875 Q1187.99 40.9789 1187.99 48.6757 L1187.99 72.576 L1180.49 72.576 L1180.49 27.2059 L1187.99 27.2059 L1187.99 34.2544 Q1190.34 30.1225 1194.1 28.1376 Q1197.87 26.1121 1203.26 26.1121 Q1204.03 26.1121 1204.96 26.2337 Q1205.89 26.3147 1207.03 26.5172 L1207.07 34.1734 Z" fill="#000000" fill-rule="nonzero" fill-opacity="1" /><path clip-path="url(#clip490)" d="M1251.87 48.0275 L1251.87 51.6733 L1217.6 51.6733 Q1218.09 59.3701 1222.22 63.421 Q1226.39 67.4314 1233.8 67.4314 Q1238.1 67.4314 1242.11 66.3781 Q1246.16 65.3249 1250.13 63.2184 L1250.13 70.267 Q1246.12 71.9684 1241.9 72.8596 Q1237.69 73.7508 1233.36 73.7508 Q1222.5 73.7508 1216.14 67.4314 Q1209.82 61.1119 1209.82 50.3365 Q1209.82 39.1965 1215.82 32.6746 Q1221.85 26.1121 1232.06 26.1121 Q1241.22 26.1121 1246.52 32.0264 Q1251.87 37.9003 1251.87 48.0275 M1244.42 45.84 Q1244.34 39.7232 1240.97 36.0774 Q1237.65 32.4315 1232.14 32.4315 Q1225.9 32.4315 1222.14 35.9558 Q1218.41 39.4801 1217.84 45.8805 L1244.42 45.84 Z" fill="#000000" fill-rule="nonzero" fill-opacity="1" /><path clip-path="url(#clip490)" d="M1293.96 34.0924 L1293.96 9.54393 L1301.41 9.54393 L1301.41 72.576 L1293.96 72.576 L1293.96 65.7705 Q1291.61 69.8214 1288 71.8063 Q1284.44 73.7508 1279.42 73.7508 Q1271.19 73.7508 1266.01 67.1883 Q1260.86 60.6258 1260.86 49.9314 Q1260.86 39.2371 1266.01 32.6746 Q1271.19 26.1121 1279.42 26.1121 Q1284.44 26.1121 1288 28.0971 Q1291.61 30.0415 1293.96 34.0924 M1268.56 49.9314 Q1268.56 58.1548 1271.92 62.8538 Q1275.32 67.5124 1281.24 67.5124 Q1287.15 67.5124 1290.56 62.8538 Q1293.96 58.1548 1293.96 49.9314 Q1293.96 41.7081 1290.56 37.0496 Q1287.15 32.3505 1281.24 32.3505 Q1275.32 32.3505 1271.92 37.0496 Q1268.56 41.7081 1268.56 49.9314 Z" fill="#000000" fill-rule="nonzero" fill-opacity="1" /><path clip-path="url(#clip490)" d="M1343.46 12.096 L1381.7 12.096 L1381.7 18.9825 L1351.64 18.9825 L1351.64 36.8875 L1380.45 36.8875 L1380.45 43.7741 L1351.64 43.7741 L1351.64 65.6895 L1382.43 65.6895 L1382.43 72.576 L1343.46 72.576 L1343.46 12.096 Z" fill="#000000" fill-rule="nonzero" fill-opacity="1" /><path clip-path="url(#clip490)" d="M1421.85 34.1734 Q1420.59 33.4443 1419.09 33.1202 Q1417.63 32.7556 1415.85 32.7556 Q1409.53 32.7556 1406.13 36.8875 Q1402.77 40.9789 1402.77 48.6757 L1402.77 72.576 L1395.27 72.576 L1395.27 27.2059 L1402.77 27.2059 L1402.77 34.2544 Q1405.12 30.1225 1408.88 28.1376 Q1412.65 26.1121 1418.04 26.1121 Q1418.81 26.1121 1419.74 26.2337 Q1420.67 26.3147 1421.81 26.5172 L1421.85 34.1734 Z" fill="#000000" fill-rule="nonzero" fill-opacity="1" /><path clip-path="url(#clip490)" d="M1454.5 34.1734 Q1453.24 33.4443 1451.74 33.1202 Q1450.28 32.7556 1448.5 32.7556 Q1442.18 32.7556 1438.78 36.8875 Q1435.42 40.9789 1435.42 48.6757 L1435.42 72.576 L1427.92 72.576 L1427.92 27.2059 L1435.42 27.2059 L1435.42 34.2544 Q1437.77 30.1225 1441.53 28.1376 Q1445.3 26.1121 1450.69 26.1121 Q1451.46 26.1121 1452.39 26.2337 Q1453.32 26.3147 1454.46 26.5172 L1454.5 34.1734 Z" fill="#000000" fill-rule="nonzero" fill-opacity="1" /><path clip-path="url(#clip490)" d="M1478.07 32.4315 Q1472.08 32.4315 1468.59 37.1306 Q1465.11 41.7891 1465.11 49.9314 Q1465.11 58.0738 1468.55 62.7728 Q1472.04 67.4314 1478.07 67.4314 Q1484.03 67.4314 1487.51 62.7323 Q1490.99 58.0333 1490.99 49.9314 Q1490.99 41.8701 1487.51 37.1711 Q1484.03 32.4315 1478.07 32.4315 M1478.07 26.1121 Q1487.79 26.1121 1493.34 32.4315 Q1498.89 38.7509 1498.89 49.9314 Q1498.89 61.0714 1493.34 67.4314 Q1487.79 73.7508 1478.07 73.7508 Q1468.31 73.7508 1462.76 67.4314 Q1457.25 61.0714 1457.25 49.9314 Q1457.25 38.7509 1462.76 32.4315 Q1468.31 26.1121 1478.07 26.1121 Z" fill="#000000" fill-rule="nonzero" fill-opacity="1" /><path clip-path="url(#clip490)" d="M1537.54 34.1734 Q1536.28 33.4443 1534.78 33.1202 Q1533.33 32.7556 1531.54 32.7556 Q1525.22 32.7556 1521.82 36.8875 Q1518.46 40.9789 1518.46 48.6757 L1518.46 72.576 L1510.97 72.576 L1510.97 27.2059 L1518.46 27.2059 L1518.46 34.2544 Q1520.81 30.1225 1524.58 28.1376 Q1528.34 26.1121 1533.73 26.1121 Q1534.5 26.1121 1535.43 26.2337 Q1536.36 26.3147 1537.5 26.5172 L1537.54 34.1734 Z" fill="#000000" fill-rule="nonzero" fill-opacity="1" /><path clip-path="url(#clip490)" d="M1589.63 9.62495 Q1584.21 18.942 1581.57 28.0566 Q1578.94 37.1711 1578.94 46.5287 Q1578.94 55.8863 1581.57 65.0818 Q1584.25 74.2369 1589.63 83.5134 L1583.15 83.5134 Q1577.08 73.9938 1574.04 64.7983 Q1571.04 55.6027 1571.04 46.5287 Q1571.04 37.4952 1574.04 28.3401 Q1577.04 19.1851 1583.15 9.62495 L1589.63 9.62495 Z" fill="#000000" fill-rule="nonzero" fill-opacity="1" /><path clip-path="url(#clip490)" d="M1604.1 27.2059 L1611.55 27.2059 L1611.55 72.576 L1604.1 72.576 L1604.1 27.2059 M1604.1 9.54393 L1611.55 9.54393 L1611.55 18.9825 L1604.1 18.9825 L1604.1 9.54393 Z" fill="#000000" fill-rule="nonzero" fill-opacity="1" /><path clip-path="url(#clip490)" d="M1664.86 45.1919 L1664.86 72.576 L1657.41 72.576 L1657.41 45.4349 Q1657.41 38.994 1654.89 35.7938 Q1652.38 32.5936 1647.36 32.5936 Q1641.32 32.5936 1637.84 36.4419 Q1634.36 40.2903 1634.36 46.9338 L1634.36 72.576 L1626.86 72.576 L1626.86 27.2059 L1634.36 27.2059 L1634.36 34.2544 Q1637.03 30.163 1640.63 28.1376 Q1644.28 26.1121 1649.02 26.1121 Q1656.84 26.1121 1660.85 30.9732 Q1664.86 35.7938 1664.86 45.1919 Z" fill="#000000" fill-rule="nonzero" fill-opacity="1" /><path clip-path="url(#clip490)" d="M1679.73 27.2059 L1687.18 27.2059 L1687.18 72.576 L1679.73 72.576 L1679.73 27.2059 M1679.73 9.54393 L1687.18 9.54393 L1687.18 18.9825 L1679.73 18.9825 L1679.73 9.54393 Z" fill="#000000" fill-rule="nonzero" fill-opacity="1" /><path clip-path="url(#clip490)" d="M1710.15 14.324 L1710.15 27.2059 L1725.5 27.2059 L1725.5 32.9987 L1710.15 32.9987 L1710.15 57.6282 Q1710.15 63.1779 1711.65 64.7578 Q1713.19 66.3376 1717.85 66.3376 L1725.5 66.3376 L1725.5 72.576 L1717.85 72.576 Q1709.22 72.576 1705.94 69.3758 Q1702.65 66.1351 1702.65 57.6282 L1702.65 32.9987 L1697.19 32.9987 L1697.19 27.2059 L1702.65 27.2059 L1702.65 14.324 L1710.15 14.324 Z" fill="#000000" fill-rule="nonzero" fill-opacity="1" /><path clip-path="url(#clip490)" d="M1735.3 27.2059 L1742.76 27.2059 L1742.76 72.576 L1735.3 72.576 L1735.3 27.2059 M1735.3 9.54393 L1742.76 9.54393 L1742.76 18.9825 L1735.3 18.9825 L1735.3 9.54393 Z" fill="#000000" fill-rule="nonzero" fill-opacity="1" /><path clip-path="url(#clip490)" d="M1778.97 49.7694 Q1769.94 49.7694 1766.46 51.8354 Q1762.97 53.9013 1762.97 58.8839 Q1762.97 62.8538 1765.56 65.2034 Q1768.2 67.5124 1772.69 67.5124 Q1778.89 67.5124 1782.62 63.1374 Q1786.39 58.7219 1786.39 51.4303 L1786.39 49.7694 L1778.97 49.7694 M1793.84 46.6907 L1793.84 72.576 L1786.39 72.576 L1786.39 65.6895 Q1783.83 69.8214 1780.03 71.8063 Q1776.22 73.7508 1770.71 73.7508 Q1763.74 73.7508 1759.61 69.8619 Q1755.52 65.9325 1755.52 59.3701 Q1755.52 51.7138 1760.62 47.825 Q1765.77 43.9361 1775.94 43.9361 L1786.39 43.9361 L1786.39 43.2069 Q1786.39 38.0623 1782.98 35.2672 Q1779.62 32.4315 1773.5 32.4315 Q1769.62 32.4315 1765.93 33.3632 Q1762.24 34.295 1758.84 36.1584 L1758.84 29.2718 Q1762.93 27.692 1766.78 26.9223 Q1770.63 26.1121 1774.27 26.1121 Q1784.12 26.1121 1788.98 31.2163 Q1793.84 36.3204 1793.84 46.6907 Z" fill="#000000" fill-rule="nonzero" fill-opacity="1" /><path clip-path="url(#clip490)" d="M1809.19 9.54393 L1816.65 9.54393 L1816.65 72.576 L1809.19 72.576 L1809.19 9.54393 Z" fill="#000000" fill-rule="nonzero" fill-opacity="1" /><path clip-path="url(#clip490)" d="M1831.07 9.62495 L1837.55 9.62495 Q1843.63 19.1851 1846.62 28.3401 Q1849.66 37.4952 1849.66 46.5287 Q1849.66 55.6027 1846.62 64.7983 Q1843.63 73.9938 1837.55 83.5134 L1831.07 83.5134 Q1836.46 74.2369 1839.09 65.0818 Q1841.76 55.8863 1841.76 46.5287 Q1841.76 37.1711 1839.09 28.0566 Q1836.46 18.942 1831.07 9.62495 Z" fill="#000000" fill-rule="nonzero" fill-opacity="1" /><circle clip-path="url(#clip492)" cx="309.854" cy="1386.4" r="3.6" fill="#009af9" fill-rule="evenodd" fill-opacity="1" stroke="#000000" stroke-opacity="1" stroke-width="3.2"/>
<circle clip-path="url(#clip492)" cx="970.987" cy="999.136" r="3.6" fill="#009af9" fill-rule="evenodd" fill-opacity="1" stroke="#000000" stroke-opacity="1" stroke-width="3.2"/>
<circle clip-path="url(#clip492)" cx="1632.12" cy="1213.8" r="3.6" fill="#009af9" fill-rule="evenodd" fill-opacity="1" stroke="#000000" stroke-opacity="1" stroke-width="3.2"/>
<circle clip-path="url(#clip492)" cx="2293.25" cy="160.256" r="3.6" fill="#009af9" fill-rule="evenodd" fill-opacity="1" stroke="#000000" stroke-opacity="1" stroke-width="3.2"/>
<path clip-path="url(#clip490)" d="M320.432 270.476 L623.936 270.476 L623.936 166.796 L320.432 166.796  Z" fill="#ffffff" fill-rule="evenodd" fill-opacity="1"/>
<polyline clip-path="url(#clip490)" style="stroke:#000000; stroke-linecap:round; stroke-linejoin:round; stroke-width:4; stroke-opacity:1; fill:none" points="320.432,270.476 623.936,270.476 623.936,166.796 320.432,166.796 320.432,270.476 "/>
<circle clip-path="url(#clip490)" cx="413.873" cy="218.636" r="15.36" fill="#009af9" fill-rule="evenodd" fill-opacity="1" stroke="#000000" stroke-opacity="1" stroke-width="13.6533"/>
<path clip-path="url(#clip490)" d="M507.313 201.356 L514.28 201.356 L523.1 224.874 L531.965 201.356 L538.933 201.356 L538.933 235.916 L534.373 235.916 L534.373 205.569 L525.461 229.272 L520.762 229.272 L511.85 205.569 L511.85 235.916 L507.313 235.916 L507.313 201.356 Z" fill="#000000" fill-rule="nonzero" fill-opacity="1" /><path clip-path="url(#clip490)" d="M568.933 202.49 L568.933 207.05 Q566.271 205.777 563.91 205.152 Q561.548 204.527 559.349 204.527 Q555.53 204.527 553.447 206.008 Q551.387 207.49 551.387 210.221 Q551.387 212.513 552.752 213.694 Q554.141 214.851 557.984 215.569 L560.808 216.147 Q566.039 217.143 568.516 219.666 Q571.016 222.166 571.016 226.379 Q571.016 231.402 567.636 233.994 Q564.28 236.587 557.775 236.587 Q555.322 236.587 552.544 236.031 Q549.789 235.476 546.826 234.388 L546.826 229.573 Q549.674 231.17 552.405 231.981 Q555.136 232.791 557.775 232.791 Q561.78 232.791 563.956 231.217 Q566.132 229.643 566.132 226.726 Q566.132 224.18 564.558 222.744 Q563.007 221.309 559.442 220.592 L556.595 220.036 Q551.363 218.995 549.025 216.772 Q546.687 214.55 546.687 210.592 Q546.687 206.008 549.905 203.37 Q553.146 200.731 558.817 200.731 Q561.248 200.731 563.771 201.171 Q566.294 201.61 568.933 202.49 Z" fill="#000000" fill-rule="nonzero" fill-opacity="1" /><path clip-path="url(#clip490)" d="M578.308 201.356 L600.159 201.356 L600.159 205.291 L582.984 205.291 L582.984 215.522 L599.442 215.522 L599.442 219.457 L582.984 219.457 L582.984 231.981 L600.576 231.981 L600.576 235.916 L578.308 235.916 L578.308 201.356 Z" fill="#000000" fill-rule="nonzero" fill-opacity="1" /></svg>
