<?xml version="1.0" encoding="utf-8"?>
<svg xmlns="http://www.w3.org/2000/svg" xmlns:xlink="http://www.w3.org/1999/xlink" width="600" height="400" viewBox="0 0 2400 1600">
<defs>
  <clipPath id="clip220">
    <rect x="0" y="0" width="2400" height="1600"/>
  </clipPath>
</defs>
<path clip-path="url(#clip220)" d="M0 1600 L2400 1600 L2400 8.88178e-14 L0 8.88178e-14  Z" fill="#ffffff" fill-rule="evenodd" fill-opacity="1"/>
<defs>
  <clipPath id="clip221">
    <rect x="480" y="0" width="1681" height="1600"/>
  </clipPath>
</defs>
<path clip-path="url(#clip220)" d="M219.866 1423.18 L2352.76 1423.18 L2352.76 123.472 L219.866 123.472  Z" fill="#ffffff" fill-rule="evenodd" fill-opacity="1"/>
<defs>
  <clipPath id="clip222">
    <rect x="219" y="123" width="2134" height="1301"/>
  </clipPath>
</defs>
<polyline clip-path="url(#clip222)" style="stroke:#000000; stroke-linecap:round; stroke-linejoin:round; stroke-width:2; stroke-opacity:0.1; fill:none" points="280.231,1423.18 280.231,123.472 "/>
<polyline clip-path="url(#clip222)" style="stroke:#000000; stroke-linecap:round; stroke-linejoin:round; stroke-width:2; stroke-opacity:0.1; fill:none" points="950.951,1423.18 950.951,123.472 "/>
<polyline clip-path="url(#clip222)" style="stroke:#000000; stroke-linecap:round; stroke-linejoin:round; stroke-width:2; stroke-opacity:0.1; fill:none" points="1621.67,1423.18 1621.67,123.472 "/>
<polyline clip-path="url(#clip222)" style="stroke:#000000; stroke-linecap:round; stroke-linejoin:round; stroke-width:2; stroke-opacity:0.1; fill:none" points="2292.39,1423.18 2292.39,123.472 "/>
<polyline clip-path="url(#clip220)" style="stroke:#000000; stroke-linecap:round; stroke-linejoin:round; stroke-width:4; stroke-opacity:1; fill:none" points="219.866,1423.18 2352.76,1423.18 "/>
<polyline clip-path="url(#clip220)" style="stroke:#000000; stroke-linecap:round; stroke-linejoin:round; stroke-width:4; stroke-opacity:1; fill:none" points="280.231,1423.18 280.231,1404.28 "/>
<polyline clip-path="url(#clip220)" style="stroke:#000000; stroke-linecap:round; stroke-linejoin:round; stroke-width:4; stroke-opacity:1; fill:none" points="950.951,1423.18 950.951,1404.28 "/>
<polyline clip-path="url(#clip220)" style="stroke:#000000; stroke-linecap:round; stroke-linejoin:round; stroke-width:4; stroke-opacity:1; fill:none" points="1621.67,1423.18 1621.67,1404.28 "/>
<polyline clip-path="url(#clip220)" style="stroke:#000000; stroke-linecap:round; stroke-linejoin:round; stroke-width:4; stroke-opacity:1; fill:none" points="2292.39,1423.18 2292.39,1404.28 "/>
<path clip-path="url(#clip220)" d="M270.613 1481.64 L278.252 1481.64 L278.252 1455.28 L269.942 1456.95 L269.942 1452.69 L278.206 1451.02 L282.882 1451.02 L282.882 1481.64 L290.52 1481.64 L290.52 1485.58 L270.613 1485.58 L270.613 1481.64 Z" fill="#000000" fill-rule="nonzero" fill-opacity="1" /><path clip-path="url(#clip220)" d="M945.604 1481.64 L961.923 1481.64 L961.923 1485.58 L939.979 1485.58 L939.979 1481.64 Q942.641 1478.89 947.224 1474.26 Q951.831 1469.61 953.011 1468.27 Q955.257 1465.74 956.136 1464.01 Q957.039 1462.25 957.039 1460.56 Q957.039 1457.8 955.095 1456.07 Q953.173 1454.33 950.071 1454.33 Q947.872 1454.33 945.419 1455.09 Q942.988 1455.86 940.21 1457.41 L940.21 1452.69 Q943.034 1451.55 945.488 1450.97 Q947.942 1450.39 949.979 1450.39 Q955.349 1450.39 958.544 1453.08 Q961.738 1455.77 961.738 1460.26 Q961.738 1462.39 960.928 1464.31 Q960.141 1466.2 958.034 1468.8 Q957.456 1469.47 954.354 1472.69 Q951.252 1475.88 945.604 1481.64 Z" fill="#000000" fill-rule="nonzero" fill-opacity="1" /><path clip-path="url(#clip220)" d="M1625.92 1466.95 Q1629.28 1467.66 1631.15 1469.93 Q1633.05 1472.2 1633.05 1475.53 Q1633.05 1480.65 1629.53 1483.45 Q1626.01 1486.25 1619.53 1486.25 Q1617.35 1486.25 1615.04 1485.81 Q1612.75 1485.39 1610.29 1484.54 L1610.29 1480.02 Q1612.24 1481.16 1614.55 1481.74 Q1616.87 1482.32 1619.39 1482.32 Q1623.79 1482.32 1626.08 1480.58 Q1628.4 1478.84 1628.4 1475.53 Q1628.4 1472.48 1626.24 1470.77 Q1624.11 1469.03 1620.29 1469.03 L1616.27 1469.03 L1616.27 1465.19 L1620.48 1465.19 Q1623.93 1465.19 1625.76 1463.82 Q1627.59 1462.43 1627.59 1459.84 Q1627.59 1457.18 1625.69 1455.77 Q1623.81 1454.33 1620.29 1454.33 Q1618.37 1454.33 1616.17 1454.75 Q1613.97 1455.16 1611.34 1456.04 L1611.34 1451.88 Q1614 1451.14 1616.31 1450.77 Q1618.65 1450.39 1620.71 1450.39 Q1626.03 1450.39 1629.14 1452.83 Q1632.24 1455.23 1632.24 1459.35 Q1632.24 1462.22 1630.59 1464.21 Q1628.95 1466.18 1625.92 1466.95 Z" fill="#000000" fill-rule="nonzero" fill-opacity="1" /><path clip-path="url(#clip220)" d="M2295.4 1455.09 L2283.59 1473.54 L2295.4 1473.54 L2295.4 1455.09 M2294.17 1451.02 L2300.05 1451.02 L2300.05 1473.54 L2304.98 1473.54 L2304.98 1477.43 L2300.05 1477.43 L2300.05 1485.58 L2295.4 1485.58 L2295.4 1477.43 L2279.8 1477.43 L2279.8 1472.92 L2294.17 1451.02 Z" fill="#000000" fill-rule="nonzero" fill-opacity="1" /><path clip-path="url(#clip220)" d="M1221.87 1561.26 L1221.87 1548.5 L1211.37 1548.5 L1211.37 1543.22 L1228.24 1543.22 L1228.24 1563.62 Q1224.52 1566.26 1220.03 1567.63 Q1215.54 1568.97 1210.45 1568.97 Q1199.31 1568.97 1193.01 1562.47 Q1186.74 1555.95 1186.74 1544.33 Q1186.74 1532.68 1193.01 1526.19 Q1199.31 1519.66 1210.45 1519.66 Q1215.09 1519.66 1219.26 1520.81 Q1223.47 1521.96 1227 1524.18 L1227 1531.03 Q1223.43 1528 1219.42 1526.48 Q1215.41 1524.95 1210.99 1524.95 Q1202.27 1524.95 1197.88 1529.82 Q1193.51 1534.69 1193.51 1544.33 Q1193.51 1553.94 1197.88 1558.81 Q1202.27 1563.68 1210.99 1563.68 Q1214.39 1563.68 1217.07 1563.11 Q1219.74 1562.51 1221.87 1561.26 Z" fill="#000000" fill-rule="nonzero" fill-opacity="1" /><path clip-path="url(#clip220)" d="M1270.22 1548.76 L1270.22 1551.62 L1243.29 1551.62 Q1243.68 1557.67 1246.92 1560.85 Q1250.2 1564 1256.03 1564 Q1259.4 1564 1262.55 1563.17 Q1265.73 1562.35 1268.85 1560.69 L1268.85 1566.23 Q1265.7 1567.57 1262.39 1568.27 Q1259.08 1568.97 1255.68 1568.97 Q1247.15 1568.97 1242.15 1564 Q1237.18 1559.04 1237.18 1550.57 Q1237.18 1541.82 1241.89 1536.69 Q1246.64 1531.54 1254.66 1531.54 Q1261.85 1531.54 1266.02 1536.18 Q1270.22 1540.8 1270.22 1548.76 M1264.37 1547.04 Q1264.3 1542.23 1261.66 1539.37 Q1259.05 1536.5 1254.72 1536.5 Q1249.82 1536.5 1246.86 1539.27 Q1243.93 1542.04 1243.49 1547.07 L1264.37 1547.04 Z" fill="#000000" fill-rule="nonzero" fill-opacity="1" /><path clip-path="url(#clip220)" d="M1309.47 1546.53 L1309.47 1568.04 L1303.61 1568.04 L1303.61 1546.72 Q1303.61 1541.66 1301.64 1539.14 Q1299.66 1536.63 1295.72 1536.63 Q1290.97 1536.63 1288.24 1539.65 Q1285.5 1542.68 1285.5 1547.9 L1285.5 1568.04 L1279.61 1568.04 L1279.61 1532.4 L1285.5 1532.4 L1285.5 1537.93 Q1287.6 1534.72 1290.43 1533.13 Q1293.3 1531.54 1297.02 1531.54 Q1303.16 1531.54 1306.32 1535.36 Q1309.47 1539.14 1309.47 1546.53 Z" fill="#000000" fill-rule="nonzero" fill-opacity="1" /><path clip-path="url(#clip220)" d="M1351.64 1548.76 L1351.64 1551.62 L1324.71 1551.62 Q1325.09 1557.67 1328.34 1560.85 Q1331.62 1564 1337.44 1564 Q1340.82 1564 1343.97 1563.17 Q1347.15 1562.35 1350.27 1560.69 L1350.27 1566.23 Q1347.12 1567.57 1343.81 1568.27 Q1340.5 1568.97 1337.09 1568.97 Q1328.56 1568.97 1323.57 1564 Q1318.6 1559.04 1318.6 1550.57 Q1318.6 1541.82 1323.31 1536.69 Q1328.05 1531.54 1336.07 1531.54 Q1343.27 1531.54 1347.44 1536.18 Q1351.64 1540.8 1351.64 1548.76 M1345.78 1547.04 Q1345.72 1542.23 1343.08 1539.37 Q1340.47 1536.5 1336.14 1536.5 Q1331.24 1536.5 1328.28 1539.27 Q1325.35 1542.04 1324.9 1547.07 L1345.78 1547.04 Z" fill="#000000" fill-rule="nonzero" fill-opacity="1" /><path clip-path="url(#clip220)" d="M1383.98 1533.45 L1383.98 1538.98 Q1381.49 1537.71 1378.82 1537.07 Q1376.15 1536.44 1373.28 1536.44 Q1368.92 1536.44 1366.73 1537.77 Q1364.56 1539.11 1364.56 1541.79 Q1364.56 1543.82 1366.12 1545 Q1367.68 1546.15 1372.39 1547.2 L1374.4 1547.64 Q1380.63 1548.98 1383.24 1551.43 Q1385.89 1553.85 1385.89 1558.21 Q1385.89 1563.17 1381.94 1566.07 Q1378.03 1568.97 1371.15 1568.97 Q1368.29 1568.97 1365.17 1568.39 Q1362.08 1567.85 1358.64 1566.74 L1358.64 1560.69 Q1361.89 1562.38 1365.04 1563.24 Q1368.19 1564.07 1371.28 1564.07 Q1375.42 1564.07 1377.64 1562.66 Q1379.87 1561.23 1379.87 1558.65 Q1379.87 1556.27 1378.25 1554.99 Q1376.66 1553.72 1371.21 1552.54 L1369.18 1552.07 Q1363.73 1550.92 1361.32 1548.56 Q1358.9 1546.18 1358.9 1542.04 Q1358.9 1537.01 1362.46 1534.27 Q1366.03 1531.54 1372.58 1531.54 Q1375.83 1531.54 1378.69 1532.01 Q1381.56 1532.49 1383.98 1533.45 Z" fill="#000000" fill-rule="nonzero" fill-opacity="1" /><polyline clip-path="url(#clip222)" style="stroke:#000000; stroke-linecap:round; stroke-linejoin:round; stroke-width:2; stroke-opacity:0.1; fill:none" points="219.866,1265.37 2352.76,1265.37 "/>
<polyline clip-path="url(#clip222)" style="stroke:#000000; stroke-linecap:round; stroke-linejoin:round; stroke-width:2; stroke-opacity:0.1; fill:none" points="219.866,1082.18 2352.76,1082.18 "/>
<polyline clip-path="url(#clip222)" style="stroke:#000000; stroke-linecap:round; stroke-linejoin:round; stroke-width:2; stroke-opacity:0.1; fill:none" points="219.866,898.979 2352.76,898.979 "/>
<polyline clip-path="url(#clip222)" style="stroke:#000000; stroke-linecap:round; stroke-linejoin:round; stroke-width:2; stroke-opacity:0.1; fill:none" points="219.866,715.783 2352.76,715.783 "/>
<polyline clip-path="url(#clip222)" style="stroke:#000000; stroke-linecap:round; stroke-linejoin:round; stroke-width:2; stroke-opacity:0.1; fill:none" points="219.866,532.587 2352.76,532.587 "/>
<polyline clip-path="url(#clip222)" style="stroke:#000000; stroke-linecap:round; stroke-linejoin:round; stroke-width:2; stroke-opacity:0.1; fill:none" points="219.866,349.391 2352.76,349.391 "/>
<polyline clip-path="url(#clip222)" style="stroke:#000000; stroke-linecap:round; stroke-linejoin:round; stroke-width:2; stroke-opacity:0.1; fill:none" points="219.866,166.195 2352.76,166.195 "/>
<polyline clip-path="url(#clip220)" style="stroke:#000000; stroke-linecap:round; stroke-linejoin:round; stroke-width:4; stroke-opacity:1; fill:none" points="219.866,1423.18 219.866,123.472 "/>
<polyline clip-path="url(#clip220)" style="stroke:#000000; stroke-linecap:round; stroke-linejoin:round; stroke-width:4; stroke-opacity:1; fill:none" points="219.866,1265.37 238.764,1265.37 "/>
<polyline clip-path="url(#clip220)" style="stroke:#000000; stroke-linecap:round; stroke-linejoin:round; stroke-width:4; stroke-opacity:1; fill:none" points="219.866,1082.18 238.764,1082.18 "/>
<polyline clip-path="url(#clip220)" style="stroke:#000000; stroke-linecap:round; stroke-linejoin:round; stroke-width:4; stroke-opacity:1; fill:none" points="219.866,898.979 238.764,898.979 "/>
<polyline clip-path="url(#clip220)" style="stroke:#000000; stroke-linecap:round; stroke-linejoin:round; stroke-width:4; stroke-opacity:1; fill:none" points="219.866,715.783 238.764,715.783 "/>
<polyline clip-path="url(#clip220)" style="stroke:#000000; stroke-linecap:round; stroke-linejoin:round; stroke-width:4; stroke-opacity:1; fill:none" points="219.866,532.587 238.764,532.587 "/>
<polyline clip-path="url(#clip220)" style="stroke:#000000; stroke-linecap:round; stroke-linejoin:round; stroke-width:4; stroke-opacity:1; fill:none" points="219.866,349.391 238.764,349.391 "/>
<polyline clip-path="url(#clip220)" style="stroke:#000000; stroke-linecap:round; stroke-linejoin:round; stroke-width:4; stroke-opacity:1; fill:none" points="219.866,166.195 238.764,166.195 "/>
<path clip-path="url(#clip220)" d="M127.339 1251.17 Q123.728 1251.17 121.899 1254.73 Q120.093 1258.28 120.093 1265.41 Q120.093 1272.51 121.899 1276.08 Q123.728 1279.62 127.339 1279.62 Q130.973 1279.62 132.779 1276.08 Q134.607 1272.51 134.607 1265.41 Q134.607 1258.28 132.779 1254.73 Q130.973 1251.17 127.339 1251.17 M127.339 1247.47 Q133.149 1247.47 136.204 1252.07 Q139.283 1256.66 139.283 1265.41 Q139.283 1274.13 136.204 1278.74 Q133.149 1283.32 127.339 1283.32 Q121.529 1283.32 118.45 1278.74 Q115.394 1274.13 115.394 1265.41 Q115.394 1256.66 118.45 1252.07 Q121.529 1247.47 127.339 1247.47 Z" fill="#000000" fill-rule="nonzero" fill-opacity="1" /><path clip-path="url(#clip220)" d="M147.501 1276.77 L152.385 1276.77 L152.385 1282.65 L147.501 1282.65 L147.501 1276.77 Z" fill="#000000" fill-rule="nonzero" fill-opacity="1" /><path clip-path="url(#clip220)" d="M176.737 1264.02 Q180.093 1264.73 181.968 1267 Q183.866 1269.27 183.866 1272.6 Q183.866 1277.72 180.348 1280.52 Q176.829 1283.32 170.348 1283.32 Q168.172 1283.32 165.857 1282.88 Q163.565 1282.47 161.112 1281.61 L161.112 1277.1 Q163.056 1278.23 165.371 1278.81 Q167.686 1279.39 170.209 1279.39 Q174.607 1279.39 176.899 1277.65 Q179.214 1275.92 179.214 1272.6 Q179.214 1269.55 177.061 1267.84 Q174.931 1266.1 171.112 1266.1 L167.084 1266.1 L167.084 1262.26 L171.297 1262.26 Q174.746 1262.26 176.575 1260.89 Q178.403 1259.5 178.403 1256.91 Q178.403 1254.25 176.505 1252.84 Q174.63 1251.4 171.112 1251.4 Q169.19 1251.4 166.991 1251.82 Q164.792 1252.23 162.153 1253.11 L162.153 1248.95 Q164.815 1248.21 167.13 1247.84 Q169.468 1247.47 171.528 1247.47 Q176.852 1247.47 179.954 1249.9 Q183.056 1252.3 183.056 1256.42 Q183.056 1259.29 181.413 1261.29 Q179.769 1263.25 176.737 1264.02 Z" fill="#000000" fill-rule="nonzero" fill-opacity="1" /><path clip-path="url(#clip220)" d="M126.205 1067.97 Q122.593 1067.97 120.765 1071.54 Q118.959 1075.08 118.959 1082.21 Q118.959 1089.32 120.765 1092.88 Q122.593 1096.42 126.205 1096.42 Q129.839 1096.42 131.644 1092.88 Q133.473 1089.32 133.473 1082.21 Q133.473 1075.08 131.644 1071.54 Q129.839 1067.97 126.205 1067.97 M126.205 1064.27 Q132.015 1064.27 135.07 1068.88 Q138.149 1073.46 138.149 1082.21 Q138.149 1090.94 135.07 1095.54 Q132.015 1100.13 126.205 1100.13 Q120.394 1100.13 117.316 1095.54 Q114.26 1090.94 114.26 1082.21 Q114.26 1073.46 117.316 1068.88 Q120.394 1064.27 126.205 1064.27 Z" fill="#000000" fill-rule="nonzero" fill-opacity="1" /><path clip-path="url(#clip220)" d="M146.366 1093.58 L151.251 1093.58 L151.251 1099.46 L146.366 1099.46 L146.366 1093.58 Z" fill="#000000" fill-rule="nonzero" fill-opacity="1" /><path clip-path="url(#clip220)" d="M174.283 1068.97 L162.477 1087.42 L174.283 1087.42 L174.283 1068.97 M173.056 1064.9 L178.936 1064.9 L178.936 1087.42 L183.866 1087.42 L183.866 1091.31 L178.936 1091.31 L178.936 1099.46 L174.283 1099.46 L174.283 1091.31 L158.681 1091.31 L158.681 1086.79 L173.056 1064.9 Z" fill="#000000" fill-rule="nonzero" fill-opacity="1" /><path clip-path="url(#clip220)" d="M127.686 884.778 Q124.075 884.778 122.246 888.343 Q120.441 891.884 120.441 899.014 Q120.441 906.12 122.246 909.685 Q124.075 913.227 127.686 913.227 Q131.32 913.227 133.126 909.685 Q134.954 906.12 134.954 899.014 Q134.954 891.884 133.126 888.343 Q131.32 884.778 127.686 884.778 M127.686 881.074 Q133.496 881.074 136.552 885.681 Q139.63 890.264 139.63 899.014 Q139.63 907.741 136.552 912.347 Q133.496 916.931 127.686 916.931 Q121.876 916.931 118.797 912.347 Q115.742 907.741 115.742 899.014 Q115.742 890.264 118.797 885.681 Q121.876 881.074 127.686 881.074 Z" fill="#000000" fill-rule="nonzero" fill-opacity="1" /><path clip-path="url(#clip220)" d="M147.848 910.38 L152.732 910.38 L152.732 916.259 L147.848 916.259 L147.848 910.38 Z" fill="#000000" fill-rule="nonzero" fill-opacity="1" /><path clip-path="url(#clip220)" d="M162.964 881.699 L181.32 881.699 L181.32 885.634 L167.246 885.634 L167.246 894.107 Q168.264 893.759 169.283 893.597 Q170.302 893.412 171.32 893.412 Q177.107 893.412 180.487 896.583 Q183.866 899.755 183.866 905.171 Q183.866 910.75 180.394 913.852 Q176.922 916.931 170.602 916.931 Q168.427 916.931 166.158 916.56 Q163.913 916.19 161.505 915.449 L161.505 910.75 Q163.589 911.884 165.811 912.44 Q168.033 912.995 170.51 912.995 Q174.514 912.995 176.852 910.889 Q179.19 908.782 179.19 905.171 Q179.19 901.56 176.852 899.454 Q174.514 897.347 170.51 897.347 Q168.635 897.347 166.76 897.764 Q164.908 898.181 162.964 899.06 L162.964 881.699 Z" fill="#000000" fill-rule="nonzero" fill-opacity="1" /><path clip-path="url(#clip220)" d="M126.529 701.582 Q122.918 701.582 121.089 705.147 Q119.283 708.688 119.283 715.818 Q119.283 722.924 121.089 726.489 Q122.918 730.031 126.529 730.031 Q130.163 730.031 131.968 726.489 Q133.797 722.924 133.797 715.818 Q133.797 708.688 131.968 705.147 Q130.163 701.582 126.529 701.582 M126.529 697.878 Q132.339 697.878 135.394 702.485 Q138.473 707.068 138.473 715.818 Q138.473 724.545 135.394 729.151 Q132.339 733.734 126.529 733.734 Q120.718 733.734 117.64 729.151 Q114.584 724.545 114.584 715.818 Q114.584 707.068 117.64 702.485 Q120.718 697.878 126.529 697.878 Z" fill="#000000" fill-rule="nonzero" fill-opacity="1" /><path clip-path="url(#clip220)" d="M146.691 727.184 L151.575 727.184 L151.575 733.063 L146.691 733.063 L146.691 727.184 Z" fill="#000000" fill-rule="nonzero" fill-opacity="1" /><path clip-path="url(#clip220)" d="M172.339 713.92 Q169.19 713.92 167.339 716.073 Q165.51 718.225 165.51 721.975 Q165.51 725.702 167.339 727.878 Q169.19 730.031 172.339 730.031 Q175.487 730.031 177.315 727.878 Q179.167 725.702 179.167 721.975 Q179.167 718.225 177.315 716.073 Q175.487 713.92 172.339 713.92 M181.621 699.267 L181.621 703.526 Q179.862 702.693 178.056 702.253 Q176.274 701.813 174.514 701.813 Q169.885 701.813 167.431 704.938 Q165.001 708.063 164.653 714.383 Q166.019 712.369 168.079 711.304 Q170.139 710.216 172.616 710.216 Q177.825 710.216 180.834 713.387 Q183.866 716.536 183.866 721.975 Q183.866 727.299 180.718 730.517 Q177.57 733.734 172.339 733.734 Q166.343 733.734 163.172 729.151 Q160.001 724.545 160.001 715.818 Q160.001 707.624 163.89 702.762 Q167.778 697.878 174.329 697.878 Q176.089 697.878 177.871 698.225 Q179.676 698.573 181.621 699.267 Z" fill="#000000" fill-rule="nonzero" fill-opacity="1" /><path clip-path="url(#clip220)" d="M127.593 518.386 Q123.982 518.386 122.154 521.951 Q120.348 525.492 120.348 532.622 Q120.348 539.728 122.154 543.293 Q123.982 546.835 127.593 546.835 Q131.228 546.835 133.033 543.293 Q134.862 539.728 134.862 532.622 Q134.862 525.492 133.033 521.951 Q131.228 518.386 127.593 518.386 M127.593 514.682 Q133.404 514.682 136.459 519.289 Q139.538 523.872 139.538 532.622 Q139.538 541.349 136.459 545.955 Q133.404 550.538 127.593 550.538 Q121.783 550.538 118.705 545.955 Q115.649 541.349 115.649 532.622 Q115.649 523.872 118.705 519.289 Q121.783 514.682 127.593 514.682 Z" fill="#000000" fill-rule="nonzero" fill-opacity="1" /><path clip-path="url(#clip220)" d="M147.755 543.988 L152.64 543.988 L152.64 549.867 L147.755 549.867 L147.755 543.988 Z" fill="#000000" fill-rule="nonzero" fill-opacity="1" /><path clip-path="url(#clip220)" d="M161.644 515.307 L183.866 515.307 L183.866 517.298 L171.32 549.867 L166.436 549.867 L178.241 519.242 L161.644 519.242 L161.644 515.307 Z" fill="#000000" fill-rule="nonzero" fill-opacity="1" /><path clip-path="url(#clip220)" d="M126.783 335.19 Q123.172 335.19 121.343 338.755 Q119.538 342.296 119.538 349.426 Q119.538 356.532 121.343 360.097 Q123.172 363.639 126.783 363.639 Q130.417 363.639 132.223 360.097 Q134.052 356.532 134.052 349.426 Q134.052 342.296 132.223 338.755 Q130.417 335.19 126.783 335.19 M126.783 331.486 Q132.593 331.486 135.649 336.093 Q138.728 340.676 138.728 349.426 Q138.728 358.153 135.649 362.759 Q132.593 367.342 126.783 367.342 Q120.973 367.342 117.894 362.759 Q114.839 358.153 114.839 349.426 Q114.839 340.676 117.894 336.093 Q120.973 331.486 126.783 331.486 Z" fill="#000000" fill-rule="nonzero" fill-opacity="1" /><path clip-path="url(#clip220)" d="M146.945 360.792 L151.829 360.792 L151.829 366.671 L146.945 366.671 L146.945 360.792 Z" fill="#000000" fill-rule="nonzero" fill-opacity="1" /><path clip-path="url(#clip220)" d="M172.014 350.259 Q168.681 350.259 166.76 352.042 Q164.862 353.824 164.862 356.949 Q164.862 360.074 166.76 361.856 Q168.681 363.639 172.014 363.639 Q175.348 363.639 177.269 361.856 Q179.19 360.051 179.19 356.949 Q179.19 353.824 177.269 352.042 Q175.371 350.259 172.014 350.259 M167.339 348.269 Q164.329 347.528 162.64 345.468 Q160.973 343.407 160.973 340.444 Q160.973 336.301 163.913 333.894 Q166.876 331.486 172.014 331.486 Q177.176 331.486 180.116 333.894 Q183.056 336.301 183.056 340.444 Q183.056 343.407 181.366 345.468 Q179.7 347.528 176.714 348.269 Q180.093 349.056 181.968 351.347 Q183.866 353.639 183.866 356.949 Q183.866 361.972 180.788 364.657 Q177.732 367.342 172.014 367.342 Q166.297 367.342 163.218 364.657 Q160.163 361.972 160.163 356.949 Q160.163 353.639 162.061 351.347 Q163.959 349.056 167.339 348.269 M165.626 340.884 Q165.626 343.569 167.292 345.074 Q168.982 346.579 172.014 346.579 Q175.024 346.579 176.714 345.074 Q178.426 343.569 178.426 340.884 Q178.426 338.199 176.714 336.694 Q175.024 335.19 172.014 335.19 Q168.982 335.19 167.292 336.694 Q165.626 338.199 165.626 340.884 Z" fill="#000000" fill-rule="nonzero" fill-opacity="1" /><path clip-path="url(#clip220)" d="M126.876 151.994 Q123.265 151.994 121.436 155.559 Q119.63 159.1 119.63 166.23 Q119.63 173.336 121.436 176.901 Q123.265 180.443 126.876 180.443 Q130.51 180.443 132.316 176.901 Q134.144 173.336 134.144 166.23 Q134.144 159.1 132.316 155.559 Q130.51 151.994 126.876 151.994 M126.876 148.29 Q132.686 148.29 135.742 152.897 Q138.82 157.48 138.82 166.23 Q138.82 174.957 135.742 179.563 Q132.686 184.146 126.876 184.146 Q121.066 184.146 117.987 179.563 Q114.931 174.957 114.931 166.23 Q114.931 157.48 117.987 152.897 Q121.066 148.29 126.876 148.29 Z" fill="#000000" fill-rule="nonzero" fill-opacity="1" /><path clip-path="url(#clip220)" d="M147.038 177.596 L151.922 177.596 L151.922 183.475 L147.038 183.475 L147.038 177.596 Z" fill="#000000" fill-rule="nonzero" fill-opacity="1" /><path clip-path="url(#clip220)" d="M162.246 182.758 L162.246 178.498 Q164.005 179.332 165.811 179.771 Q167.616 180.211 169.352 180.211 Q173.982 180.211 176.413 177.109 Q178.866 173.984 179.214 167.642 Q177.871 169.633 175.811 170.697 Q173.751 171.762 171.251 171.762 Q166.065 171.762 163.033 168.637 Q160.024 165.489 160.024 160.049 Q160.024 154.725 163.172 151.508 Q166.32 148.29 171.552 148.29 Q177.547 148.29 180.695 152.897 Q183.866 157.48 183.866 166.23 Q183.866 174.401 179.977 179.285 Q176.112 184.146 169.561 184.146 Q167.802 184.146 165.996 183.799 Q164.19 183.452 162.246 182.758 M171.552 168.105 Q174.7 168.105 176.528 165.952 Q178.38 163.799 178.38 160.049 Q178.38 156.323 176.528 154.17 Q174.7 151.994 171.552 151.994 Q168.403 151.994 166.552 154.17 Q164.723 156.323 164.723 160.049 Q164.723 163.799 166.552 165.952 Q168.403 168.105 171.552 168.105 Z" fill="#000000" fill-rule="nonzero" fill-opacity="1" /><path clip-path="url(#clip220)" d="M16.4842 837.445 L16.4842 827.864 L48.8219 815.738 L16.4842 803.547 L16.4842 793.967 L64.0042 793.967 L64.0042 800.237 L22.277 800.237 L54.8694 812.491 L54.8694 818.952 L22.277 831.206 L64.0042 831.206 L64.0042 837.445 L16.4842 837.445 Z" fill="#000000" fill-rule="nonzero" fill-opacity="1" /><path clip-path="url(#clip220)" d="M18.0438 752.717 L24.314 752.717 Q22.5634 756.377 21.704 759.624 Q20.8447 762.87 20.8447 765.894 Q20.8447 771.146 22.8817 774.01 Q24.9187 776.843 28.6745 776.843 Q31.8255 776.843 33.4488 774.965 Q35.0402 773.055 36.0269 767.772 L36.8226 763.889 Q38.1912 756.696 41.6605 753.29 Q45.098 749.852 50.8908 749.852 Q57.7976 749.852 61.3624 754.499 Q64.9272 759.115 64.9272 768.058 Q64.9272 771.432 64.1633 775.252 Q63.3994 779.039 61.9035 783.113 L55.2831 783.113 Q57.4793 779.198 58.5933 775.443 Q59.7073 771.687 59.7073 768.058 Q59.7073 762.552 57.543 759.56 Q55.3786 756.568 51.3682 756.568 Q47.8671 756.568 45.8937 758.733 Q43.9204 760.865 42.9337 765.767 L42.1698 769.682 Q40.7375 776.875 37.682 780.09 Q34.6264 783.304 29.1837 783.304 Q22.8817 783.304 19.2532 778.88 Q15.6248 774.424 15.6248 766.626 Q15.6248 763.284 16.2295 759.815 Q16.8343 756.345 18.0438 752.717 Z" fill="#000000" fill-rule="nonzero" fill-opacity="1" /><path clip-path="url(#clip220)" d="M16.4842 739.826 L16.4842 709.78 L21.895 709.78 L21.895 733.397 L35.9632 733.397 L35.9632 710.767 L41.3741 710.767 L41.3741 733.397 L58.5933 733.397 L58.5933 709.207 L64.0042 709.207 L64.0042 739.826 L16.4842 739.826 Z" fill="#000000" fill-rule="nonzero" fill-opacity="1" /><path clip-path="url(#clip220)" d="M877.514 12.096 L889.707 12.096 L905.141 53.2532 L920.656 12.096 L932.849 12.096 L932.849 72.576 L924.869 72.576 L924.869 19.4686 L909.273 60.9499 L901.05 60.9499 L885.454 19.4686 L885.454 72.576 L877.514 72.576 L877.514 12.096 Z" fill="#000000" fill-rule="nonzero" fill-opacity="1" /><path clip-path="url(#clip220)" d="M987.577 48.0275 L987.577 51.6733 L953.307 51.6733 Q953.793 59.3701 957.925 63.421 Q962.097 67.4314 969.51 67.4314 Q973.804 67.4314 977.814 66.3781 Q981.865 65.3249 985.835 63.2184 L985.835 70.267 Q981.825 71.9684 977.612 72.8596 Q973.399 73.7508 969.065 73.7508 Q958.208 73.7508 951.848 67.4314 Q945.529 61.1119 945.529 50.3365 Q945.529 39.1965 951.524 32.6746 Q957.56 26.1121 967.768 26.1121 Q976.923 26.1121 982.23 32.0264 Q987.577 37.9003 987.577 48.0275 M980.123 45.84 Q980.042 39.7232 976.68 36.0774 Q973.358 32.4315 967.849 32.4315 Q961.611 32.4315 957.844 35.9558 Q954.117 39.4801 953.55 45.8805 L980.123 45.84 Z" fill="#000000" fill-rule="nonzero" fill-opacity="1" /><path clip-path="url(#clip220)" d="M1020.43 49.7694 Q1011.4 49.7694 1007.91 51.8354 Q1004.43 53.9013 1004.43 58.8839 Q1004.43 62.8538 1007.02 65.2034 Q1009.65 67.5124 1014.15 67.5124 Q1020.35 67.5124 1024.08 63.1374 Q1027.84 58.7219 1027.84 51.4303 L1027.84 49.7694 L1020.43 49.7694 M1035.3 46.6907 L1035.3 72.576 L1027.84 72.576 L1027.84 65.6895 Q1025.29 69.8214 1021.48 71.8063 Q1017.68 73.7508 1012.17 73.7508 Q1005.2 73.7508 1001.07 69.8619 Q996.975 65.9325 996.975 59.3701 Q996.975 51.7138 1002.08 47.825 Q1007.22 43.9361 1017.39 43.9361 L1027.84 43.9361 L1027.84 43.2069 Q1027.84 38.0623 1024.44 35.2672 Q1021.08 32.4315 1014.96 32.4315 Q1011.07 32.4315 1007.39 33.3632 Q1003.7 34.295 1000.3 36.1584 L1000.3 29.2718 Q1004.39 27.692 1008.24 26.9223 Q1012.09 26.1121 1015.73 26.1121 Q1025.57 26.1121 1030.44 31.2163 Q1035.3 36.3204 1035.3 46.6907 Z" fill="#000000" fill-rule="nonzero" fill-opacity="1" /><path clip-path="url(#clip220)" d="M1088.36 45.1919 L1088.36 72.576 L1080.91 72.576 L1080.91 45.4349 Q1080.91 38.994 1078.4 35.7938 Q1075.89 32.5936 1070.86 32.5936 Q1064.83 32.5936 1061.34 36.4419 Q1057.86 40.2903 1057.86 46.9338 L1057.86 72.576 L1050.37 72.576 L1050.37 27.2059 L1057.86 27.2059 L1057.86 34.2544 Q1060.53 30.163 1064.14 28.1376 Q1067.79 26.1121 1072.52 26.1121 Q1080.34 26.1121 1084.35 30.9732 Q1088.36 35.7938 1088.36 45.1919 Z" fill="#000000" fill-rule="nonzero" fill-opacity="1" /><path clip-path="url(#clip220)" d="M1166.18 14.0809 L1166.18 22.0612 Q1161.52 19.8332 1157.39 18.7395 Q1153.26 17.6457 1149.41 17.6457 Q1142.73 17.6457 1139.08 20.2383 Q1135.48 22.8309 1135.48 27.611 Q1135.48 31.6214 1137.87 33.6873 Q1140.3 35.7128 1147.02 36.9686 L1151.96 37.9813 Q1161.12 39.7232 1165.45 44.1387 Q1169.83 48.5136 1169.83 55.8863 Q1169.83 64.6767 1163.91 69.2137 Q1158.04 73.7508 1146.66 73.7508 Q1142.36 73.7508 1137.5 72.7785 Q1132.68 71.8063 1127.5 69.9024 L1127.5 61.4765 Q1132.48 64.2716 1137.26 65.6895 Q1142.04 67.1073 1146.66 67.1073 Q1153.66 67.1073 1157.47 64.3527 Q1161.28 61.598 1161.28 56.4939 Q1161.28 52.0379 1158.53 49.5264 Q1155.81 47.0148 1149.57 45.759 L1144.59 44.7868 Q1135.44 42.9639 1131.34 39.075 Q1127.25 35.1862 1127.25 28.2591 Q1127.25 20.2383 1132.88 15.6203 Q1138.55 11.0023 1148.48 11.0023 Q1152.73 11.0023 1157.15 11.7719 Q1161.56 12.5416 1166.18 14.0809 Z" fill="#000000" fill-rule="nonzero" fill-opacity="1" /><path clip-path="url(#clip220)" d="M1186.72 49.9314 Q1186.72 58.1548 1190.08 62.8538 Q1193.48 67.5124 1199.4 67.5124 Q1205.31 67.5124 1208.72 62.8538 Q1212.12 58.1548 1212.12 49.9314 Q1212.12 41.7081 1208.72 37.0496 Q1205.31 32.3505 1199.4 32.3505 Q1193.48 32.3505 1190.08 37.0496 Q1186.72 41.7081 1186.72 49.9314 M1212.12 65.7705 Q1209.77 69.8214 1206.16 71.8063 Q1202.6 73.7508 1197.58 73.7508 Q1189.35 73.7508 1184.17 67.1883 Q1179.02 60.6258 1179.02 49.9314 Q1179.02 39.2371 1184.17 32.6746 Q1189.35 26.1121 1197.58 26.1121 Q1202.6 26.1121 1206.16 28.0971 Q1209.77 30.0415 1212.12 34.0924 L1212.12 27.2059 L1219.57 27.2059 L1219.57 89.8329 L1212.12 89.8329 L1212.12 65.7705 Z" fill="#000000" fill-rule="nonzero" fill-opacity="1" /><path clip-path="url(#clip220)" d="M1234.16 54.671 L1234.16 27.2059 L1241.61 27.2059 L1241.61 54.3874 Q1241.61 60.8284 1244.12 64.0691 Q1246.63 67.2693 1251.66 67.2693 Q1257.69 67.2693 1261.18 63.421 Q1264.7 59.5726 1264.7 52.9291 L1264.7 27.2059 L1272.15 27.2059 L1272.15 72.576 L1264.7 72.576 L1264.7 65.6084 Q1261.99 69.7404 1258.38 71.7658 Q1254.82 73.7508 1250.08 73.7508 Q1242.26 73.7508 1238.21 68.8897 Q1234.16 64.0286 1234.16 54.671 M1252.91 26.1121 L1252.91 26.1121 Z" fill="#000000" fill-rule="nonzero" fill-opacity="1" /><path clip-path="url(#clip220)" d="M1308.13 49.7694 Q1299.09 49.7694 1295.61 51.8354 Q1292.12 53.9013 1292.12 58.8839 Q1292.12 62.8538 1294.72 65.2034 Q1297.35 67.5124 1301.85 67.5124 Q1308.04 67.5124 1311.77 63.1374 Q1315.54 58.7219 1315.54 51.4303 L1315.54 49.7694 L1308.13 49.7694 M1322.99 46.6907 L1322.99 72.576 L1315.54 72.576 L1315.54 65.6895 Q1312.99 69.8214 1309.18 71.8063 Q1305.37 73.7508 1299.86 73.7508 Q1292.89 73.7508 1288.76 69.8619 Q1284.67 65.9325 1284.67 59.3701 Q1284.67 51.7138 1289.77 47.825 Q1294.92 43.9361 1305.09 43.9361 L1315.54 43.9361 L1315.54 43.2069 Q1315.54 38.0623 1312.14 35.2672 Q1308.77 32.4315 1302.66 32.4315 Q1298.77 32.4315 1295.08 33.3632 Q1291.39 34.295 1287.99 36.1584 L1287.99 29.2718 Q1292.08 27.692 1295.93 26.9223 Q1299.78 26.1121 1303.43 26.1121 Q1313.27 26.1121 1318.13 31.2163 Q1322.99 36.3204 1322.99 46.6907 Z" fill="#000000" fill-rule="nonzero" fill-opacity="1" /><path clip-path="url(#clip220)" d="M1364.64 34.1734 Q1363.38 33.4443 1361.88 33.1202 Q1360.42 32.7556 1358.64 32.7556 Q1352.32 32.7556 1348.92 36.8875 Q1345.56 40.9789 1345.56 48.6757 L1345.56 72.576 L1338.06 72.576 L1338.06 27.2059 L1345.56 27.2059 L1345.56 34.2544 Q1347.91 30.1225 1351.67 28.1376 Q1355.44 26.1121 1360.83 26.1121 Q1361.6 26.1121 1362.53 26.2337 Q1363.46 26.3147 1364.59 26.5172 L1364.64 34.1734 Z" fill="#000000" fill-rule="nonzero" fill-opacity="1" /><path clip-path="url(#clip220)" d="M1409.44 48.0275 L1409.44 51.6733 L1375.17 51.6733 Q1375.65 59.3701 1379.79 63.421 Q1383.96 67.4314 1391.37 67.4314 Q1395.67 67.4314 1399.68 66.3781 Q1403.73 65.3249 1407.7 63.2184 L1407.7 70.267 Q1403.69 71.9684 1399.47 72.8596 Q1395.26 73.7508 1390.93 73.7508 Q1380.07 73.7508 1373.71 67.4314 Q1367.39 61.1119 1367.39 50.3365 Q1367.39 39.1965 1373.39 32.6746 Q1379.42 26.1121 1389.63 26.1121 Q1398.78 26.1121 1404.09 32.0264 Q1409.44 37.9003 1409.44 48.0275 M1401.98 45.84 Q1401.9 39.7232 1398.54 36.0774 Q1395.22 32.4315 1389.71 32.4315 Q1383.47 32.4315 1379.7 35.9558 Q1375.98 39.4801 1375.41 45.8805 L1401.98 45.84 Z" fill="#000000" fill-rule="nonzero" fill-opacity="1" /><path clip-path="url(#clip220)" d="M1451.53 34.0924 L1451.53 9.54393 L1458.98 9.54393 L1458.98 72.576 L1451.53 72.576 L1451.53 65.7705 Q1449.18 69.8214 1445.57 71.8063 Q1442.01 73.7508 1436.98 73.7508 Q1428.76 73.7508 1423.58 67.1883 Q1418.43 60.6258 1418.43 49.9314 Q1418.43 39.2371 1423.58 32.6746 Q1428.76 26.1121 1436.98 26.1121 Q1442.01 26.1121 1445.57 28.0971 Q1449.18 30.0415 1451.53 34.0924 M1426.13 49.9314 Q1426.13 58.1548 1429.49 62.8538 Q1432.89 67.5124 1438.81 67.5124 Q1444.72 67.5124 1448.12 62.8538 Q1451.53 58.1548 1451.53 49.9314 Q1451.53 41.7081 1448.12 37.0496 Q1444.72 32.3505 1438.81 32.3505 Q1432.89 32.3505 1429.49 37.0496 Q1426.13 41.7081 1426.13 49.9314 Z" fill="#000000" fill-rule="nonzero" fill-opacity="1" /><path clip-path="url(#clip220)" d="M1501.03 12.096 L1539.27 12.096 L1539.27 18.9825 L1509.21 18.9825 L1509.21 36.8875 L1538.01 36.8875 L1538.01 43.7741 L1509.21 43.7741 L1509.21 65.6895 L1540 65.6895 L1540 72.576 L1501.03 72.576 L1501.03 12.096 Z" fill="#000000" fill-rule="nonzero" fill-opacity="1" /><path clip-path="url(#clip220)" d="M1579.41 34.1734 Q1578.16 33.4443 1576.66 33.1202 Q1575.2 32.7556 1573.42 32.7556 Q1567.1 32.7556 1563.7 36.8875 Q1560.33 40.9789 1560.33 48.6757 L1560.33 72.576 L1552.84 72.576 L1552.84 27.2059 L1560.33 27.2059 L1560.33 34.2544 Q1562.68 30.1225 1566.45 28.1376 Q1570.22 26.1121 1575.61 26.1121 Q1576.38 26.1121 1577.31 26.2337 Q1578.24 26.3147 1579.37 26.5172 L1579.41 34.1734 Z" fill="#000000" fill-rule="nonzero" fill-opacity="1" /><path clip-path="url(#clip220)" d="M1612.06 34.1734 Q1610.81 33.4443 1609.31 33.1202 Q1607.85 32.7556 1606.07 32.7556 Q1599.75 32.7556 1596.35 36.8875 Q1592.98 40.9789 1592.98 48.6757 L1592.98 72.576 L1585.49 72.576 L1585.49 27.2059 L1592.98 27.2059 L1592.98 34.2544 Q1595.33 30.1225 1599.1 28.1376 Q1602.87 26.1121 1608.26 26.1121 Q1609.03 26.1121 1609.96 26.2337 Q1610.89 26.3147 1612.02 26.5172 L1612.06 34.1734 Z" fill="#000000" fill-rule="nonzero" fill-opacity="1" /><path clip-path="url(#clip220)" d="M1635.64 32.4315 Q1629.65 32.4315 1626.16 37.1306 Q1622.68 41.7891 1622.68 49.9314 Q1622.68 58.0738 1626.12 62.7728 Q1629.6 67.4314 1635.64 67.4314 Q1641.6 67.4314 1645.08 62.7323 Q1648.56 58.0333 1648.56 49.9314 Q1648.56 41.8701 1645.08 37.1711 Q1641.6 32.4315 1635.64 32.4315 M1635.64 26.1121 Q1645.36 26.1121 1650.91 32.4315 Q1656.46 38.7509 1656.46 49.9314 Q1656.46 61.0714 1650.91 67.4314 Q1645.36 73.7508 1635.64 73.7508 Q1625.88 73.7508 1620.33 67.4314 Q1614.82 61.0714 1614.82 49.9314 Q1614.82 38.7509 1620.33 32.4315 Q1625.88 26.1121 1635.64 26.1121 Z" fill="#000000" fill-rule="nonzero" fill-opacity="1" /><path clip-path="url(#clip220)" d="M1695.11 34.1734 Q1693.85 33.4443 1692.35 33.1202 Q1690.9 32.7556 1689.11 32.7556 Q1682.79 32.7556 1679.39 36.8875 Q1676.03 40.9789 1676.03 48.6757 L1676.03 72.576 L1668.53 72.576 L1668.53 27.2059 L1676.03 27.2059 L1676.03 34.2544 Q1678.38 30.1225 1682.15 28.1376 Q1685.91 26.1121 1691.3 26.1121 Q1692.07 26.1121 1693 26.2337 Q1693.93 26.3147 1695.07 26.5172 L1695.11 34.1734 Z" fill="#000000" fill-rule="nonzero" fill-opacity="1" /><polyline clip-path="url(#clip222)" style="stroke:#009af9; stroke-linecap:round; stroke-linejoin:round; stroke-width:4; stroke-opacity:1; fill:none" points="280.231,294.582 950.951,160.256 1621.67,190.969 2292.39,199.075 "/>
<polyline clip-path="url(#clip222)" style="stroke:#e26f46; stroke-linecap:round; stroke-linejoin:round; stroke-width:4; stroke-opacity:1; fill:none" points="280.231,1385.53 950.951,1023.46 1621.67,1361.39 2292.39,1171.22 "/>
<polyline clip-path="url(#clip222)" style="stroke:#3da44d; stroke-linecap:round; stroke-linejoin:round; stroke-width:4; stroke-opacity:1; fill:none" points="280.231,1386.4 950.951,1020.17 1621.67,1348.03 2292.39,1173.59 "/>
<path clip-path="url(#clip220)" d="M290.963 374.156 L618.464 374.156 L618.464 166.796 L290.963 166.796  Z" fill="#ffffff" fill-rule="evenodd" fill-opacity="1"/>
<polyline clip-path="url(#clip220)" style="stroke:#000000; stroke-linecap:round; stroke-linejoin:round; stroke-width:4; stroke-opacity:1; fill:none" points="290.963,374.156 618.464,374.156 618.464,166.796 290.963,166.796 290.963,374.156 "/>
<polyline clip-path="url(#clip220)" style="stroke:#009af9; stroke-linecap:round; stroke-linejoin:round; stroke-width:4; stroke-opacity:1; fill:none" points="314.661,218.636 456.854,218.636 "/>
<path clip-path="url(#clip220)" d="M487.96 202.629 L487.96 209.99 L496.733 209.99 L496.733 213.3 L487.96 213.3 L487.96 227.374 Q487.96 230.545 488.817 231.448 Q489.696 232.351 492.358 232.351 L496.733 232.351 L496.733 235.916 L492.358 235.916 Q487.428 235.916 485.553 234.087 Q483.678 232.235 483.678 227.374 L483.678 213.3 L480.553 213.3 L480.553 209.99 L483.678 209.99 L483.678 202.629 L487.96 202.629 Z" fill="#000000" fill-rule="nonzero" fill-opacity="1" /><path clip-path="url(#clip220)" d="M502.891 214.388 L532.566 214.388 L532.566 218.277 L502.891 218.277 L502.891 214.388 M502.891 223.832 L532.566 223.832 L532.566 227.768 L502.891 227.768 L502.891 223.832 Z" fill="#000000" fill-rule="nonzero" fill-opacity="1" /><path clip-path="url(#clip220)" d="M543.469 231.981 L551.108 231.981 L551.108 205.615 L542.798 207.282 L542.798 203.022 L551.062 201.356 L555.738 201.356 L555.738 231.981 L563.376 231.981 L563.376 235.916 L543.469 235.916 L543.469 231.981 Z" fill="#000000" fill-rule="nonzero" fill-opacity="1" /><polyline clip-path="url(#clip220)" style="stroke:#e26f46; stroke-linecap:round; stroke-linejoin:round; stroke-width:4; stroke-opacity:1; fill:none" points="314.661,270.476 456.854,270.476 "/>
<path clip-path="url(#clip220)" d="M487.96 254.469 L487.96 261.83 L496.733 261.83 L496.733 265.14 L487.96 265.14 L487.96 279.214 Q487.96 282.385 488.817 283.288 Q489.696 284.191 492.358 284.191 L496.733 284.191 L496.733 287.756 L492.358 287.756 Q487.428 287.756 485.553 285.927 Q483.678 284.075 483.678 279.214 L483.678 265.14 L480.553 265.14 L480.553 261.83 L483.678 261.83 L483.678 254.469 L487.96 254.469 Z" fill="#000000" fill-rule="nonzero" fill-opacity="1" /><path clip-path="url(#clip220)" d="M502.891 266.228 L532.566 266.228 L532.566 270.117 L502.891 270.117 L502.891 266.228 M502.891 275.672 L532.566 275.672 L532.566 279.608 L502.891 279.608 L502.891 275.672 Z" fill="#000000" fill-rule="nonzero" fill-opacity="1" /><path clip-path="url(#clip220)" d="M542.705 253.196 L561.062 253.196 L561.062 257.131 L546.988 257.131 L546.988 265.603 Q548.006 265.256 549.025 265.094 Q550.043 264.909 551.062 264.909 Q556.849 264.909 560.228 268.08 Q563.608 271.251 563.608 276.668 Q563.608 282.246 560.136 285.348 Q556.663 288.427 550.344 288.427 Q548.168 288.427 545.9 288.057 Q543.654 287.686 541.247 286.946 L541.247 282.246 Q543.33 283.381 545.552 283.936 Q547.775 284.492 550.251 284.492 Q554.256 284.492 556.594 282.385 Q558.932 280.279 558.932 276.668 Q558.932 273.057 556.594 270.95 Q554.256 268.844 550.251 268.844 Q548.376 268.844 546.501 269.26 Q544.65 269.677 542.705 270.557 L542.705 253.196 Z" fill="#000000" fill-rule="nonzero" fill-opacity="1" /><polyline clip-path="url(#clip220)" style="stroke:#3da44d; stroke-linecap:round; stroke-linejoin:round; stroke-width:4; stroke-opacity:1; fill:none" points="314.661,322.316 456.854,322.316 "/>
<path clip-path="url(#clip220)" d="M487.96 306.309 L487.96 313.67 L496.733 313.67 L496.733 316.98 L487.96 316.98 L487.96 331.054 Q487.96 334.225 488.817 335.128 Q489.696 336.031 492.358 336.031 L496.733 336.031 L496.733 339.596 L492.358 339.596 Q487.428 339.596 485.553 337.767 Q483.678 335.915 483.678 331.054 L483.678 316.98 L480.553 316.98 L480.553 313.67 L483.678 313.67 L483.678 306.309 L487.96 306.309 Z" fill="#000000" fill-rule="nonzero" fill-opacity="1" /><path clip-path="url(#clip220)" d="M502.891 318.068 L532.566 318.068 L532.566 321.957 L502.891 321.957 L502.891 318.068 M502.891 327.512 L532.566 327.512 L532.566 331.448 L502.891 331.448 L502.891 327.512 Z" fill="#000000" fill-rule="nonzero" fill-opacity="1" /><path clip-path="url(#clip220)" d="M543.469 335.661 L551.108 335.661 L551.108 309.295 L542.798 310.962 L542.798 306.702 L551.062 305.036 L555.738 305.036 L555.738 335.661 L563.376 335.661 L563.376 339.596 L543.469 339.596 L543.469 335.661 Z" fill="#000000" fill-rule="nonzero" fill-opacity="1" /><path clip-path="url(#clip220)" d="M582.821 308.114 Q579.21 308.114 577.381 311.679 Q575.575 315.221 575.575 322.35 Q575.575 329.457 577.381 333.022 Q579.21 336.563 582.821 336.563 Q586.455 336.563 588.261 333.022 Q590.089 329.457 590.089 322.35 Q590.089 315.221 588.261 311.679 Q586.455 308.114 582.821 308.114 M582.821 304.411 Q588.631 304.411 591.686 309.017 Q594.765 313.6 594.765 322.35 Q594.765 331.077 591.686 335.684 Q588.631 340.267 582.821 340.267 Q577.011 340.267 573.932 335.684 Q570.876 331.077 570.876 322.35 Q570.876 313.6 573.932 309.017 Q577.011 304.411 582.821 304.411 Z" fill="#000000" fill-rule="nonzero" fill-opacity="1" /></svg>
