<?xml version="1.0" encoding="utf-8"?>
<svg xmlns="http://www.w3.org/2000/svg" xmlns:xlink="http://www.w3.org/1999/xlink" width="600" height="400" viewBox="0 0 2400 1600">
<defs>
  <clipPath id="clip150">
    <rect x="0" y="0" width="2400" height="1600"/>
  </clipPath>
</defs>
<path clip-path="url(#clip150)" d="M0 1600 L2400 1600 L2400 8.88178e-14 L0 8.88178e-14  Z" fill="#ffffff" fill-rule="evenodd" fill-opacity="1"/>
<defs>
  <clipPath id="clip151">
    <rect x="480" y="0" width="1681" height="1600"/>
  </clipPath>
</defs>
<path clip-path="url(#clip150)" d="M265.445 1423.18 L2352.76 1423.18 L2352.76 123.472 L265.445 123.472  Z" fill="#ffffff" fill-rule="evenodd" fill-opacity="1"/>
<defs>
  <clipPath id="clip152">
    <rect x="265" y="123" width="2088" height="1301"/>
  </clipPath>
</defs>
<polyline clip-path="url(#clip152)" style="stroke:#000000; stroke-linecap:round; stroke-linejoin:round; stroke-width:2; stroke-opacity:0.1; fill:none" points="739.08,1423.18 739.08,123.472 "/>
<polyline clip-path="url(#clip152)" style="stroke:#000000; stroke-linecap:round; stroke-linejoin:round; stroke-width:2; stroke-opacity:0.1; fill:none" points="1257.28,1423.18 1257.28,123.472 "/>
<polyline clip-path="url(#clip152)" style="stroke:#000000; stroke-linecap:round; stroke-linejoin:round; stroke-width:2; stroke-opacity:0.1; fill:none" points="1775.48,1423.18 1775.48,123.472 "/>
<polyline clip-path="url(#clip152)" style="stroke:#000000; stroke-linecap:round; stroke-linejoin:round; stroke-width:2; stroke-opacity:0.1; fill:none" points="2293.68,1423.18 2293.68,123.472 "/>
<polyline clip-path="url(#clip150)" style="stroke:#000000; stroke-linecap:round; stroke-linejoin:round; stroke-width:4; stroke-opacity:1; fill:none" points="265.445,1423.18 2352.76,1423.18 "/>
<polyline clip-path="url(#clip150)" style="stroke:#000000; stroke-linecap:round; stroke-linejoin:round; stroke-width:4; stroke-opacity:1; fill:none" points="739.08,1423.18 739.08,1404.28 "/>
<polyline clip-path="url(#clip150)" style="stroke:#000000; stroke-linecap:round; stroke-linejoin:round; stroke-width:4; stroke-opacity:1; fill:none" points="1257.28,1423.18 1257.28,1404.28 "/>
<polyline clip-path="url(#clip150)" style="stroke:#000000; stroke-linecap:round; stroke-linejoin:round; stroke-width:4; stroke-opacity:1; fill:none" points="1775.48,1423.18 1775.48,1404.28 "/>
<polyline clip-path="url(#clip150)" style="stroke:#000000; stroke-linecap:round; stroke-linejoin:round; stroke-width:4; stroke-opacity:1; fill:none" points="2293.68,1423.18 2293.68,1404.28 "/>
<path clip-path="url(#clip150)" d="M729.358 1451.02 L747.714 1451.02 L747.714 1454.96 L733.64 1454.96 L733.64 1463.43 Q734.659 1463.08 735.677 1462.92 Q736.696 1462.73 737.714 1462.73 Q743.501 1462.73 746.881 1465.9 Q750.26 1469.08 750.26 1474.49 Q750.26 1480.07 746.788 1483.17 Q743.316 1486.25 736.997 1486.25 Q734.821 1486.25 732.552 1485.88 Q730.307 1485.51 727.899 1484.77 L727.899 1480.07 Q729.983 1481.2 732.205 1481.76 Q734.427 1482.32 736.904 1482.32 Q740.909 1482.32 743.247 1480.21 Q745.584 1478.1 745.584 1474.49 Q745.584 1470.88 743.247 1468.77 Q740.909 1466.67 736.904 1466.67 Q735.029 1466.67 733.154 1467.08 Q731.302 1467.5 729.358 1468.38 L729.358 1451.02 Z" fill="#000000" fill-rule="nonzero" fill-opacity="1" /><path clip-path="url(#clip150)" d="M1231.97 1481.64 L1239.61 1481.64 L1239.61 1455.28 L1231.3 1456.95 L1231.3 1452.69 L1239.56 1451.02 L1244.24 1451.02 L1244.24 1481.64 L1251.88 1481.64 L1251.88 1485.58 L1231.97 1485.58 L1231.97 1481.64 Z" fill="#000000" fill-rule="nonzero" fill-opacity="1" /><path clip-path="url(#clip150)" d="M1271.32 1454.1 Q1267.71 1454.1 1265.88 1457.66 Q1264.07 1461.2 1264.07 1468.33 Q1264.07 1475.44 1265.88 1479.01 Q1267.71 1482.55 1271.32 1482.55 Q1274.95 1482.55 1276.76 1479.01 Q1278.59 1475.44 1278.59 1468.33 Q1278.59 1461.2 1276.76 1457.66 Q1274.95 1454.1 1271.32 1454.1 M1271.32 1450.39 Q1277.13 1450.39 1280.19 1455 Q1283.26 1459.58 1283.26 1468.33 Q1283.26 1477.06 1280.19 1481.67 Q1277.13 1486.25 1271.32 1486.25 Q1265.51 1486.25 1262.43 1481.67 Q1259.38 1477.06 1259.38 1468.33 Q1259.38 1459.58 1262.43 1455 Q1265.51 1450.39 1271.32 1450.39 Z" fill="#000000" fill-rule="nonzero" fill-opacity="1" /><path clip-path="url(#clip150)" d="M1750.67 1481.64 L1758.3 1481.64 L1758.3 1455.28 L1749.99 1456.95 L1749.99 1452.69 L1758.26 1451.02 L1762.93 1451.02 L1762.93 1481.64 L1770.57 1481.64 L1770.57 1485.58 L1750.67 1485.58 L1750.67 1481.64 Z" fill="#000000" fill-rule="nonzero" fill-opacity="1" /><path clip-path="url(#clip150)" d="M1780.06 1451.02 L1798.42 1451.02 L1798.42 1454.96 L1784.35 1454.96 L1784.35 1463.43 Q1785.36 1463.08 1786.38 1462.92 Q1787.4 1462.73 1788.42 1462.73 Q1794.21 1462.73 1797.59 1465.9 Q1800.97 1469.08 1800.97 1474.49 Q1800.97 1480.07 1797.49 1483.17 Q1794.02 1486.25 1787.7 1486.25 Q1785.53 1486.25 1783.26 1485.88 Q1781.01 1485.51 1778.61 1484.77 L1778.61 1480.07 Q1780.69 1481.2 1782.91 1481.76 Q1785.13 1482.32 1787.61 1482.32 Q1791.61 1482.32 1793.95 1480.21 Q1796.29 1478.1 1796.29 1474.49 Q1796.29 1470.88 1793.95 1468.77 Q1791.61 1466.67 1787.61 1466.67 Q1785.74 1466.67 1783.86 1467.08 Q1782.01 1467.5 1780.06 1468.38 L1780.06 1451.02 Z" fill="#000000" fill-rule="nonzero" fill-opacity="1" /><path clip-path="url(#clip150)" d="M2272.45 1481.64 L2288.77 1481.64 L2288.77 1485.58 L2266.83 1485.58 L2266.83 1481.64 Q2269.49 1478.89 2274.07 1474.26 Q2278.68 1469.61 2279.86 1468.27 Q2282.11 1465.74 2282.99 1464.01 Q2283.89 1462.25 2283.89 1460.56 Q2283.89 1457.8 2281.95 1456.07 Q2280.02 1454.33 2276.92 1454.33 Q2274.72 1454.33 2272.27 1455.09 Q2269.84 1455.86 2267.06 1457.41 L2267.06 1452.69 Q2269.88 1451.55 2272.34 1450.97 Q2274.79 1450.39 2276.83 1450.39 Q2282.2 1450.39 2285.39 1453.08 Q2288.59 1455.77 2288.59 1460.26 Q2288.59 1462.39 2287.78 1464.31 Q2286.99 1466.2 2284.88 1468.8 Q2284.31 1469.47 2281.2 1472.69 Q2278.1 1475.88 2272.45 1481.64 Z" fill="#000000" fill-rule="nonzero" fill-opacity="1" /><path clip-path="url(#clip150)" d="M2308.59 1454.1 Q2304.98 1454.1 2303.15 1457.66 Q2301.34 1461.2 2301.34 1468.33 Q2301.34 1475.44 2303.15 1479.01 Q2304.98 1482.55 2308.59 1482.55 Q2312.22 1482.55 2314.03 1479.01 Q2315.86 1475.44 2315.86 1468.33 Q2315.86 1461.2 2314.03 1457.66 Q2312.22 1454.1 2308.59 1454.1 M2308.59 1450.39 Q2314.4 1450.39 2317.45 1455 Q2320.53 1459.58 2320.53 1468.33 Q2320.53 1477.06 2317.45 1481.67 Q2314.4 1486.25 2308.59 1486.25 Q2302.78 1486.25 2299.7 1481.67 Q2296.64 1477.06 2296.64 1468.33 Q2296.64 1459.58 2299.7 1455 Q2302.78 1450.39 2308.59 1450.39 Z" fill="#000000" fill-rule="nonzero" fill-opacity="1" /><path clip-path="url(#clip150)" d="M1215.27 1520.52 L1245.32 1520.52 L1245.32 1525.93 L1221.7 1525.93 L1221.7 1540 L1244.33 1540 L1244.33 1545.41 L1221.7 1545.41 L1221.7 1562.63 L1245.89 1562.63 L1245.89 1568.04 L1215.27 1568.04 L1215.27 1520.52 Z" fill="#000000" fill-rule="nonzero" fill-opacity="1" /><path clip-path="url(#clip150)" d="M1261.87 1562.7 L1261.87 1581.6 L1255.98 1581.6 L1255.98 1532.4 L1261.87 1532.4 L1261.87 1537.81 Q1263.71 1534.62 1266.51 1533.1 Q1269.35 1531.54 1273.26 1531.54 Q1279.75 1531.54 1283.8 1536.69 Q1287.87 1541.85 1287.87 1550.25 Q1287.87 1558.65 1283.8 1563.81 Q1279.75 1568.97 1273.26 1568.97 Q1269.35 1568.97 1266.51 1567.44 Q1263.71 1565.88 1261.87 1562.7 M1281.79 1550.25 Q1281.79 1543.79 1279.12 1540.13 Q1276.48 1536.44 1271.83 1536.44 Q1267.18 1536.44 1264.51 1540.13 Q1261.87 1543.79 1261.87 1550.25 Q1261.87 1556.71 1264.51 1560.4 Q1267.18 1564.07 1271.83 1564.07 Q1276.48 1564.07 1279.12 1560.4 Q1281.79 1556.71 1281.79 1550.25 Z" fill="#000000" fill-rule="nonzero" fill-opacity="1" /><path clip-path="url(#clip150)" d="M1311.39 1536.5 Q1306.68 1536.5 1303.94 1540.19 Q1301.21 1543.85 1301.21 1550.25 Q1301.21 1556.65 1303.91 1560.34 Q1306.65 1564 1311.39 1564 Q1316.07 1564 1318.81 1560.31 Q1321.55 1556.62 1321.55 1550.25 Q1321.55 1543.92 1318.81 1540.23 Q1316.07 1536.5 1311.39 1536.5 M1311.39 1531.54 Q1319.03 1531.54 1323.39 1536.5 Q1327.75 1541.47 1327.75 1550.25 Q1327.75 1559 1323.39 1564 Q1319.03 1568.97 1311.39 1568.97 Q1303.72 1568.97 1299.36 1564 Q1295.03 1559 1295.03 1550.25 Q1295.03 1541.47 1299.36 1536.5 Q1303.72 1531.54 1311.39 1531.54 Z" fill="#000000" fill-rule="nonzero" fill-opacity="1" /><path clip-path="url(#clip150)" d="M1363.11 1533.76 L1363.11 1539.24 Q1360.63 1537.87 1358.12 1537.2 Q1355.63 1536.5 1353.09 1536.5 Q1347.39 1536.5 1344.24 1540.13 Q1341.09 1543.73 1341.09 1550.25 Q1341.09 1556.78 1344.24 1560.4 Q1347.39 1564 1353.09 1564 Q1355.63 1564 1358.12 1563.33 Q1360.63 1562.63 1363.11 1561.26 L1363.11 1566.68 Q1360.66 1567.82 1358.02 1568.39 Q1355.41 1568.97 1352.45 1568.97 Q1344.4 1568.97 1339.66 1563.91 Q1334.91 1558.85 1334.91 1550.25 Q1334.91 1541.53 1339.69 1536.53 Q1344.49 1531.54 1352.83 1531.54 Q1355.54 1531.54 1358.12 1532.11 Q1360.69 1532.65 1363.11 1533.76 Z" fill="#000000" fill-rule="nonzero" fill-opacity="1" /><path clip-path="url(#clip150)" d="M1402.93 1546.53 L1402.93 1568.04 L1397.07 1568.04 L1397.07 1546.72 Q1397.07 1541.66 1395.1 1539.14 Q1393.13 1536.63 1389.18 1536.63 Q1384.44 1536.63 1381.7 1539.65 Q1378.96 1542.68 1378.96 1547.9 L1378.96 1568.04 L1373.08 1568.04 L1373.08 1518.52 L1378.96 1518.52 L1378.96 1537.93 Q1381.06 1534.72 1383.9 1533.13 Q1386.76 1531.54 1390.49 1531.54 Q1396.63 1531.54 1399.78 1535.36 Q1402.93 1539.14 1402.93 1546.53 Z" fill="#000000" fill-rule="nonzero" fill-opacity="1" /><polyline clip-path="url(#clip152)" style="stroke:#000000; stroke-linecap:round; stroke-linejoin:round; stroke-width:2; stroke-opacity:0.1; fill:none" points="265.445,1415.97 2352.76,1415.97 "/>
<polyline clip-path="url(#clip152)" style="stroke:#000000; stroke-linecap:round; stroke-linejoin:round; stroke-width:2; stroke-opacity:0.1; fill:none" points="265.445,1190.37 2352.76,1190.37 "/>
<polyline clip-path="url(#clip152)" style="stroke:#000000; stroke-linecap:round; stroke-linejoin:round; stroke-width:2; stroke-opacity:0.1; fill:none" points="265.445,964.769 2352.76,964.769 "/>
<polyline clip-path="url(#clip152)" style="stroke:#000000; stroke-linecap:round; stroke-linejoin:round; stroke-width:2; stroke-opacity:0.1; fill:none" points="265.445,739.17 2352.76,739.17 "/>
<polyline clip-path="url(#clip152)" style="stroke:#000000; stroke-linecap:round; stroke-linejoin:round; stroke-width:2; stroke-opacity:0.1; fill:none" points="265.445,513.571 2352.76,513.571 "/>
<polyline clip-path="url(#clip152)" style="stroke:#000000; stroke-linecap:round; stroke-linejoin:round; stroke-width:2; stroke-opacity:0.1; fill:none" points="265.445,287.972 2352.76,287.972 "/>
<polyline clip-path="url(#clip150)" style="stroke:#000000; stroke-linecap:round; stroke-linejoin:round; stroke-width:4; stroke-opacity:1; fill:none" points="265.445,1423.18 265.445,123.472 "/>
<polyline clip-path="url(#clip150)" style="stroke:#000000; stroke-linecap:round; stroke-linejoin:round; stroke-width:4; stroke-opacity:1; fill:none" points="265.445,1415.97 284.342,1415.97 "/>
<polyline clip-path="url(#clip150)" style="stroke:#000000; stroke-linecap:round; stroke-linejoin:round; stroke-width:4; stroke-opacity:1; fill:none" points="265.445,1190.37 284.342,1190.37 "/>
<polyline clip-path="url(#clip150)" style="stroke:#000000; stroke-linecap:round; stroke-linejoin:round; stroke-width:4; stroke-opacity:1; fill:none" points="265.445,964.769 284.342,964.769 "/>
<polyline clip-path="url(#clip150)" style="stroke:#000000; stroke-linecap:round; stroke-linejoin:round; stroke-width:4; stroke-opacity:1; fill:none" points="265.445,739.17 284.342,739.17 "/>
<polyline clip-path="url(#clip150)" style="stroke:#000000; stroke-linecap:round; stroke-linejoin:round; stroke-width:4; stroke-opacity:1; fill:none" points="265.445,513.571 284.342,513.571 "/>
<polyline clip-path="url(#clip150)" style="stroke:#000000; stroke-linecap:round; stroke-linejoin:round; stroke-width:4; stroke-opacity:1; fill:none" points="265.445,287.972 284.342,287.972 "/>
<path clip-path="url(#clip150)" d="M131.181 1414.61 Q134.538 1415.33 136.413 1417.6 Q138.311 1419.87 138.311 1423.2 Q138.311 1428.32 134.792 1431.12 Q131.274 1433.92 124.793 1433.92 Q122.617 1433.92 120.302 1433.48 Q118.01 1433.06 115.556 1432.21 L115.556 1427.69 Q117.501 1428.83 119.816 1429.41 Q122.13 1429.98 124.654 1429.98 Q129.052 1429.98 131.343 1428.25 Q133.658 1426.51 133.658 1423.2 Q133.658 1420.15 131.505 1418.43 Q129.376 1416.7 125.556 1416.7 L121.529 1416.7 L121.529 1412.85 L125.742 1412.85 Q129.191 1412.85 131.019 1411.49 Q132.848 1410.1 132.848 1407.51 Q132.848 1404.85 130.95 1403.43 Q129.075 1402 125.556 1402 Q123.635 1402 121.436 1402.41 Q119.237 1402.83 116.598 1403.71 L116.598 1399.54 Q119.26 1398.8 121.575 1398.43 Q123.913 1398.06 125.973 1398.06 Q131.297 1398.06 134.399 1400.49 Q137.501 1402.9 137.501 1407.02 Q137.501 1409.89 135.857 1411.88 Q134.214 1413.85 131.181 1414.61 Z" fill="#000000" fill-rule="nonzero" fill-opacity="1" /><path clip-path="url(#clip150)" d="M157.177 1401.77 Q153.566 1401.77 151.737 1405.33 Q149.931 1408.87 149.931 1416 Q149.931 1423.11 151.737 1426.67 Q153.566 1430.22 157.177 1430.22 Q160.811 1430.22 162.616 1426.67 Q164.445 1423.11 164.445 1416 Q164.445 1408.87 162.616 1405.33 Q160.811 1401.77 157.177 1401.77 M157.177 1398.06 Q162.987 1398.06 166.042 1402.67 Q169.121 1407.25 169.121 1416 Q169.121 1424.73 166.042 1429.34 Q162.987 1433.92 157.177 1433.92 Q151.366 1433.92 148.288 1429.34 Q145.232 1424.73 145.232 1416 Q145.232 1407.25 148.288 1402.67 Q151.366 1398.06 157.177 1398.06 Z" fill="#000000" fill-rule="nonzero" fill-opacity="1" /><path clip-path="url(#clip150)" d="M187.338 1401.77 Q183.727 1401.77 181.899 1405.33 Q180.093 1408.87 180.093 1416 Q180.093 1423.11 181.899 1426.67 Q183.727 1430.22 187.338 1430.22 Q190.973 1430.22 192.778 1426.67 Q194.607 1423.11 194.607 1416 Q194.607 1408.87 192.778 1405.33 Q190.973 1401.77 187.338 1401.77 M187.338 1398.06 Q193.149 1398.06 196.204 1402.67 Q199.283 1407.25 199.283 1416 Q199.283 1424.73 196.204 1429.34 Q193.149 1433.92 187.338 1433.92 Q181.528 1433.92 178.45 1429.34 Q175.394 1424.73 175.394 1416 Q175.394 1407.25 178.45 1402.67 Q181.528 1398.06 187.338 1398.06 Z" fill="#000000" fill-rule="nonzero" fill-opacity="1" /><path clip-path="url(#clip150)" d="M217.5 1401.77 Q213.889 1401.77 212.061 1405.33 Q210.255 1408.87 210.255 1416 Q210.255 1423.11 212.061 1426.67 Q213.889 1430.22 217.5 1430.22 Q221.135 1430.22 222.94 1426.67 Q224.769 1423.11 224.769 1416 Q224.769 1408.87 222.94 1405.33 Q221.135 1401.77 217.5 1401.77 M217.5 1398.06 Q223.31 1398.06 226.366 1402.67 Q229.445 1407.25 229.445 1416 Q229.445 1424.73 226.366 1429.34 Q223.31 1433.92 217.5 1433.92 Q211.69 1433.92 208.612 1429.34 Q205.556 1424.73 205.556 1416 Q205.556 1407.25 208.612 1402.67 Q211.69 1398.06 217.5 1398.06 Z" fill="#000000" fill-rule="nonzero" fill-opacity="1" /><path clip-path="url(#clip150)" d="M131.181 1189.01 Q134.538 1189.73 136.413 1192 Q138.311 1194.27 138.311 1197.6 Q138.311 1202.72 134.792 1205.52 Q131.274 1208.32 124.793 1208.32 Q122.617 1208.32 120.302 1207.88 Q118.01 1207.46 115.556 1206.61 L115.556 1202.09 Q117.501 1203.23 119.816 1203.81 Q122.13 1204.38 124.654 1204.38 Q129.052 1204.38 131.343 1202.65 Q133.658 1200.91 133.658 1197.6 Q133.658 1194.55 131.505 1192.83 Q129.376 1191.1 125.556 1191.1 L121.529 1191.1 L121.529 1187.26 L125.742 1187.26 Q129.191 1187.26 131.019 1185.89 Q132.848 1184.5 132.848 1181.91 Q132.848 1179.25 130.95 1177.83 Q129.075 1176.4 125.556 1176.4 Q123.635 1176.4 121.436 1176.82 Q119.237 1177.23 116.598 1178.11 L116.598 1173.95 Q119.26 1173.2 121.575 1172.83 Q123.913 1172.46 125.973 1172.46 Q131.297 1172.46 134.399 1174.89 Q137.501 1177.3 137.501 1181.42 Q137.501 1184.29 135.857 1186.28 Q134.214 1188.25 131.181 1189.01 Z" fill="#000000" fill-rule="nonzero" fill-opacity="1" /><path clip-path="url(#clip150)" d="M147.223 1173.09 L165.579 1173.09 L165.579 1177.02 L151.505 1177.02 L151.505 1185.5 Q152.524 1185.15 153.542 1184.99 Q154.561 1184.8 155.579 1184.8 Q161.366 1184.8 164.746 1187.97 Q168.126 1191.14 168.126 1196.56 Q168.126 1202.14 164.653 1205.24 Q161.181 1208.32 154.862 1208.32 Q152.686 1208.32 150.417 1207.95 Q148.172 1207.58 145.765 1206.84 L145.765 1202.14 Q147.848 1203.27 150.07 1203.83 Q152.292 1204.38 154.769 1204.38 Q158.774 1204.38 161.112 1202.28 Q163.45 1200.17 163.45 1196.56 Q163.45 1192.95 161.112 1190.84 Q158.774 1188.74 154.769 1188.74 Q152.894 1188.74 151.019 1189.15 Q149.167 1189.57 147.223 1190.45 L147.223 1173.09 Z" fill="#000000" fill-rule="nonzero" fill-opacity="1" /><path clip-path="url(#clip150)" d="M187.338 1176.17 Q183.727 1176.17 181.899 1179.73 Q180.093 1183.27 180.093 1190.4 Q180.093 1197.51 181.899 1201.07 Q183.727 1204.62 187.338 1204.62 Q190.973 1204.62 192.778 1201.07 Q194.607 1197.51 194.607 1190.4 Q194.607 1183.27 192.778 1179.73 Q190.973 1176.17 187.338 1176.17 M187.338 1172.46 Q193.149 1172.46 196.204 1177.07 Q199.283 1181.65 199.283 1190.4 Q199.283 1199.13 196.204 1203.74 Q193.149 1208.32 187.338 1208.32 Q181.528 1208.32 178.45 1203.74 Q175.394 1199.13 175.394 1190.4 Q175.394 1181.65 178.45 1177.07 Q181.528 1172.46 187.338 1172.46 Z" fill="#000000" fill-rule="nonzero" fill-opacity="1" /><path clip-path="url(#clip150)" d="M217.5 1176.17 Q213.889 1176.17 212.061 1179.73 Q210.255 1183.27 210.255 1190.4 Q210.255 1197.51 212.061 1201.07 Q213.889 1204.62 217.5 1204.62 Q221.135 1204.62 222.94 1201.07 Q224.769 1197.51 224.769 1190.4 Q224.769 1183.27 222.94 1179.73 Q221.135 1176.17 217.5 1176.17 M217.5 1172.46 Q223.31 1172.46 226.366 1177.07 Q229.445 1181.65 229.445 1190.4 Q229.445 1199.13 226.366 1203.74 Q223.31 1208.32 217.5 1208.32 Q211.69 1208.32 208.612 1203.74 Q205.556 1199.13 205.556 1190.4 Q205.556 1181.65 208.612 1177.07 Q211.69 1172.46 217.5 1172.46 Z" fill="#000000" fill-rule="nonzero" fill-opacity="1" /><path clip-path="url(#clip150)" d="M129.862 951.563 L118.056 970.012 L129.862 970.012 L129.862 951.563 M128.635 947.489 L134.515 947.489 L134.515 970.012 L139.445 970.012 L139.445 973.901 L134.515 973.901 L134.515 982.049 L129.862 982.049 L129.862 973.901 L114.26 973.901 L114.26 969.387 L128.635 947.489 Z" fill="#000000" fill-rule="nonzero" fill-opacity="1" /><path clip-path="url(#clip150)" d="M157.177 950.568 Q153.566 950.568 151.737 954.133 Q149.931 957.675 149.931 964.804 Q149.931 971.911 151.737 975.475 Q153.566 979.017 157.177 979.017 Q160.811 979.017 162.616 975.475 Q164.445 971.911 164.445 964.804 Q164.445 957.675 162.616 954.133 Q160.811 950.568 157.177 950.568 M157.177 946.864 Q162.987 946.864 166.042 951.471 Q169.121 956.054 169.121 964.804 Q169.121 973.531 166.042 978.137 Q162.987 982.721 157.177 982.721 Q151.366 982.721 148.288 978.137 Q145.232 973.531 145.232 964.804 Q145.232 956.054 148.288 951.471 Q151.366 946.864 157.177 946.864 Z" fill="#000000" fill-rule="nonzero" fill-opacity="1" /><path clip-path="url(#clip150)" d="M187.338 950.568 Q183.727 950.568 181.899 954.133 Q180.093 957.675 180.093 964.804 Q180.093 971.911 181.899 975.475 Q183.727 979.017 187.338 979.017 Q190.973 979.017 192.778 975.475 Q194.607 971.911 194.607 964.804 Q194.607 957.675 192.778 954.133 Q190.973 950.568 187.338 950.568 M187.338 946.864 Q193.149 946.864 196.204 951.471 Q199.283 956.054 199.283 964.804 Q199.283 973.531 196.204 978.137 Q193.149 982.721 187.338 982.721 Q181.528 982.721 178.45 978.137 Q175.394 973.531 175.394 964.804 Q175.394 956.054 178.45 951.471 Q181.528 946.864 187.338 946.864 Z" fill="#000000" fill-rule="nonzero" fill-opacity="1" /><path clip-path="url(#clip150)" d="M217.5 950.568 Q213.889 950.568 212.061 954.133 Q210.255 957.675 210.255 964.804 Q210.255 971.911 212.061 975.475 Q213.889 979.017 217.5 979.017 Q221.135 979.017 222.94 975.475 Q224.769 971.911 224.769 964.804 Q224.769 957.675 222.94 954.133 Q221.135 950.568 217.5 950.568 M217.5 946.864 Q223.31 946.864 226.366 951.471 Q229.445 956.054 229.445 964.804 Q229.445 973.531 226.366 978.137 Q223.31 982.721 217.5 982.721 Q211.69 982.721 208.612 978.137 Q205.556 973.531 205.556 964.804 Q205.556 956.054 208.612 951.471 Q211.69 946.864 217.5 946.864 Z" fill="#000000" fill-rule="nonzero" fill-opacity="1" /><path clip-path="url(#clip150)" d="M129.862 725.964 L118.056 744.413 L129.862 744.413 L129.862 725.964 M128.635 721.89 L134.515 721.89 L134.515 744.413 L139.445 744.413 L139.445 748.302 L134.515 748.302 L134.515 756.45 L129.862 756.45 L129.862 748.302 L114.26 748.302 L114.26 743.788 L128.635 721.89 Z" fill="#000000" fill-rule="nonzero" fill-opacity="1" /><path clip-path="url(#clip150)" d="M147.223 721.89 L165.579 721.89 L165.579 725.825 L151.505 725.825 L151.505 734.298 Q152.524 733.95 153.542 733.788 Q154.561 733.603 155.579 733.603 Q161.366 733.603 164.746 736.774 Q168.126 739.946 168.126 745.362 Q168.126 750.941 164.653 754.043 Q161.181 757.121 154.862 757.121 Q152.686 757.121 150.417 756.751 Q148.172 756.381 145.765 755.64 L145.765 750.941 Q147.848 752.075 150.07 752.631 Q152.292 753.186 154.769 753.186 Q158.774 753.186 161.112 751.08 Q163.45 748.973 163.45 745.362 Q163.45 741.751 161.112 739.645 Q158.774 737.538 154.769 737.538 Q152.894 737.538 151.019 737.955 Q149.167 738.372 147.223 739.251 L147.223 721.89 Z" fill="#000000" fill-rule="nonzero" fill-opacity="1" /><path clip-path="url(#clip150)" d="M187.338 724.969 Q183.727 724.969 181.899 728.534 Q180.093 732.075 180.093 739.205 Q180.093 746.311 181.899 749.876 Q183.727 753.418 187.338 753.418 Q190.973 753.418 192.778 749.876 Q194.607 746.311 194.607 739.205 Q194.607 732.075 192.778 728.534 Q190.973 724.969 187.338 724.969 M187.338 721.265 Q193.149 721.265 196.204 725.872 Q199.283 730.455 199.283 739.205 Q199.283 747.932 196.204 752.538 Q193.149 757.121 187.338 757.121 Q181.528 757.121 178.45 752.538 Q175.394 747.932 175.394 739.205 Q175.394 730.455 178.45 725.872 Q181.528 721.265 187.338 721.265 Z" fill="#000000" fill-rule="nonzero" fill-opacity="1" /><path clip-path="url(#clip150)" d="M217.5 724.969 Q213.889 724.969 212.061 728.534 Q210.255 732.075 210.255 739.205 Q210.255 746.311 212.061 749.876 Q213.889 753.418 217.5 753.418 Q221.135 753.418 222.94 749.876 Q224.769 746.311 224.769 739.205 Q224.769 732.075 222.94 728.534 Q221.135 724.969 217.5 724.969 M217.5 721.265 Q223.31 721.265 226.366 725.872 Q229.445 730.455 229.445 739.205 Q229.445 747.932 226.366 752.538 Q223.31 757.121 217.5 757.121 Q211.69 757.121 208.612 752.538 Q205.556 747.932 205.556 739.205 Q205.556 730.455 208.612 725.872 Q211.69 721.265 217.5 721.265 Z" fill="#000000" fill-rule="nonzero" fill-opacity="1" /><path clip-path="url(#clip150)" d="M117.061 496.291 L135.417 496.291 L135.417 500.226 L121.343 500.226 L121.343 508.698 Q122.362 508.351 123.38 508.189 Q124.399 508.004 125.418 508.004 Q131.205 508.004 134.584 511.175 Q137.964 514.346 137.964 519.763 Q137.964 525.342 134.492 528.444 Q131.019 531.522 124.7 531.522 Q122.524 531.522 120.255 531.152 Q118.01 530.781 115.603 530.041 L115.603 525.342 Q117.686 526.476 119.908 527.032 Q122.13 527.587 124.607 527.587 Q128.612 527.587 130.95 525.481 Q133.288 523.374 133.288 519.763 Q133.288 516.152 130.95 514.045 Q128.612 511.939 124.607 511.939 Q122.732 511.939 120.857 512.356 Q119.006 512.772 117.061 513.652 L117.061 496.291 Z" fill="#000000" fill-rule="nonzero" fill-opacity="1" /><path clip-path="url(#clip150)" d="M157.177 499.37 Q153.566 499.37 151.737 502.934 Q149.931 506.476 149.931 513.606 Q149.931 520.712 151.737 524.277 Q153.566 527.819 157.177 527.819 Q160.811 527.819 162.616 524.277 Q164.445 520.712 164.445 513.606 Q164.445 506.476 162.616 502.934 Q160.811 499.37 157.177 499.37 M157.177 495.666 Q162.987 495.666 166.042 500.272 Q169.121 504.856 169.121 513.606 Q169.121 522.332 166.042 526.939 Q162.987 531.522 157.177 531.522 Q151.366 531.522 148.288 526.939 Q145.232 522.332 145.232 513.606 Q145.232 504.856 148.288 500.272 Q151.366 495.666 157.177 495.666 Z" fill="#000000" fill-rule="nonzero" fill-opacity="1" /><path clip-path="url(#clip150)" d="M187.338 499.37 Q183.727 499.37 181.899 502.934 Q180.093 506.476 180.093 513.606 Q180.093 520.712 181.899 524.277 Q183.727 527.819 187.338 527.819 Q190.973 527.819 192.778 524.277 Q194.607 520.712 194.607 513.606 Q194.607 506.476 192.778 502.934 Q190.973 499.37 187.338 499.37 M187.338 495.666 Q193.149 495.666 196.204 500.272 Q199.283 504.856 199.283 513.606 Q199.283 522.332 196.204 526.939 Q193.149 531.522 187.338 531.522 Q181.528 531.522 178.45 526.939 Q175.394 522.332 175.394 513.606 Q175.394 504.856 178.45 500.272 Q181.528 495.666 187.338 495.666 Z" fill="#000000" fill-rule="nonzero" fill-opacity="1" /><path clip-path="url(#clip150)" d="M217.5 499.37 Q213.889 499.37 212.061 502.934 Q210.255 506.476 210.255 513.606 Q210.255 520.712 212.061 524.277 Q213.889 527.819 217.5 527.819 Q221.135 527.819 222.94 524.277 Q224.769 520.712 224.769 513.606 Q224.769 506.476 222.94 502.934 Q221.135 499.37 217.5 499.37 M217.5 495.666 Q223.31 495.666 226.366 500.272 Q229.445 504.856 229.445 513.606 Q229.445 522.332 226.366 526.939 Q223.31 531.522 217.5 531.522 Q211.69 531.522 208.612 526.939 Q205.556 522.332 205.556 513.606 Q205.556 504.856 208.612 500.272 Q211.69 495.666 217.5 495.666 Z" fill="#000000" fill-rule="nonzero" fill-opacity="1" /><path clip-path="url(#clip150)" d="M117.061 270.692 L135.417 270.692 L135.417 274.627 L121.343 274.627 L121.343 283.099 Q122.362 282.752 123.38 282.59 Q124.399 282.405 125.418 282.405 Q131.205 282.405 134.584 285.576 Q137.964 288.747 137.964 294.164 Q137.964 299.742 134.492 302.844 Q131.019 305.923 124.7 305.923 Q122.524 305.923 120.255 305.553 Q118.01 305.182 115.603 304.442 L115.603 299.742 Q117.686 300.877 119.908 301.432 Q122.13 301.988 124.607 301.988 Q128.612 301.988 130.95 299.881 Q133.288 297.775 133.288 294.164 Q133.288 290.553 130.95 288.446 Q128.612 286.34 124.607 286.34 Q122.732 286.34 120.857 286.756 Q119.006 287.173 117.061 288.053 L117.061 270.692 Z" fill="#000000" fill-rule="nonzero" fill-opacity="1" /><path clip-path="url(#clip150)" d="M147.223 270.692 L165.579 270.692 L165.579 274.627 L151.505 274.627 L151.505 283.099 Q152.524 282.752 153.542 282.59 Q154.561 282.405 155.579 282.405 Q161.366 282.405 164.746 285.576 Q168.126 288.747 168.126 294.164 Q168.126 299.742 164.653 302.844 Q161.181 305.923 154.862 305.923 Q152.686 305.923 150.417 305.553 Q148.172 305.182 145.765 304.442 L145.765 299.742 Q147.848 300.877 150.07 301.432 Q152.292 301.988 154.769 301.988 Q158.774 301.988 161.112 299.881 Q163.45 297.775 163.45 294.164 Q163.45 290.553 161.112 288.446 Q158.774 286.34 154.769 286.34 Q152.894 286.34 151.019 286.756 Q149.167 287.173 147.223 288.053 L147.223 270.692 Z" fill="#000000" fill-rule="nonzero" fill-opacity="1" /><path clip-path="url(#clip150)" d="M187.338 273.77 Q183.727 273.77 181.899 277.335 Q180.093 280.877 180.093 288.006 Q180.093 295.113 181.899 298.678 Q183.727 302.219 187.338 302.219 Q190.973 302.219 192.778 298.678 Q194.607 295.113 194.607 288.006 Q194.607 280.877 192.778 277.335 Q190.973 273.77 187.338 273.77 M187.338 270.067 Q193.149 270.067 196.204 274.673 Q199.283 279.256 199.283 288.006 Q199.283 296.733 196.204 301.34 Q193.149 305.923 187.338 305.923 Q181.528 305.923 178.45 301.34 Q175.394 296.733 175.394 288.006 Q175.394 279.256 178.45 274.673 Q181.528 270.067 187.338 270.067 Z" fill="#000000" fill-rule="nonzero" fill-opacity="1" /><path clip-path="url(#clip150)" d="M217.5 273.77 Q213.889 273.77 212.061 277.335 Q210.255 280.877 210.255 288.006 Q210.255 295.113 212.061 298.678 Q213.889 302.219 217.5 302.219 Q221.135 302.219 222.94 298.678 Q224.769 295.113 224.769 288.006 Q224.769 280.877 222.94 277.335 Q221.135 273.77 217.5 273.77 M217.5 270.067 Q223.31 270.067 226.366 274.673 Q229.445 279.256 229.445 288.006 Q229.445 296.733 226.366 301.34 Q223.31 305.923 217.5 305.923 Q211.69 305.923 208.612 301.34 Q205.556 296.733 205.556 288.006 Q205.556 279.256 208.612 274.673 Q211.69 270.067 217.5 270.067 Z" fill="#000000" fill-rule="nonzero" fill-opacity="1" /><path clip-path="url(#clip150)" d="M16.4842 840.023 L16.4842 833.593 L58.5933 833.593 L58.5933 810.454 L64.0042 810.454 L64.0042 840.023 L16.4842 840.023 Z" fill="#000000" fill-rule="nonzero" fill-opacity="1" /><path clip-path="url(#clip150)" d="M32.4621 791.293 Q32.4621 796.004 36.1542 798.741 Q39.8145 801.478 46.212 801.478 Q52.6095 801.478 56.3017 798.773 Q59.9619 796.036 59.9619 791.293 Q59.9619 786.614 56.2698 783.877 Q52.5777 781.14 46.212 781.14 Q39.8781 781.14 36.186 783.877 Q32.4621 786.614 32.4621 791.293 M27.4968 791.293 Q27.4968 783.654 32.4621 779.294 Q37.4273 774.933 46.212 774.933 Q54.9649 774.933 59.9619 779.294 Q64.9272 783.654 64.9272 791.293 Q64.9272 798.964 59.9619 803.324 Q54.9649 807.653 46.212 807.653 Q37.4273 807.653 32.4621 803.324 Q27.4968 798.964 27.4968 791.293 Z" fill="#000000" fill-rule="nonzero" fill-opacity="1" /><path clip-path="url(#clip150)" d="M29.4065 742.5 L34.9447 742.5 Q33.6716 744.983 33.035 747.656 Q32.3984 750.33 32.3984 753.194 Q32.3984 757.555 33.7352 759.751 Q35.072 761.915 37.7456 761.915 Q39.7826 761.915 40.9603 760.356 Q42.1061 758.796 43.1565 754.086 L43.6021 752.08 Q44.9389 745.842 47.3897 743.232 Q49.8086 740.59 54.1691 740.59 Q59.1344 740.59 62.0308 744.537 Q64.9272 748.452 64.9272 755.327 Q64.9272 758.192 64.3543 761.311 Q63.8132 764.398 62.6992 767.836 L56.6518 767.836 Q58.3387 764.589 59.198 761.438 Q60.0256 758.287 60.0256 755.2 Q60.0256 751.062 58.6251 748.834 Q57.1929 746.606 54.6147 746.606 Q52.2276 746.606 50.9545 748.229 Q49.6813 749.821 48.5037 755.263 L48.0262 757.3 Q46.8804 762.743 44.5251 765.162 Q42.138 767.581 38.0002 767.581 Q32.9713 767.581 30.2341 764.016 Q27.4968 760.451 27.4968 753.895 Q27.4968 750.648 27.9743 747.784 Q28.4517 744.919 29.4065 742.5 Z" fill="#000000" fill-rule="nonzero" fill-opacity="1" /><path clip-path="url(#clip150)" d="M29.4065 708.539 L34.9447 708.539 Q33.6716 711.022 33.035 713.695 Q32.3984 716.369 32.3984 719.233 Q32.3984 723.594 33.7352 725.79 Q35.072 727.954 37.7456 727.954 Q39.7826 727.954 40.9603 726.395 Q42.1061 724.835 43.1565 720.125 L43.6021 718.119 Q44.9389 711.881 47.3897 709.271 Q49.8086 706.629 54.1691 706.629 Q59.1344 706.629 62.0308 710.576 Q64.9272 714.491 64.9272 721.366 Q64.9272 724.23 64.3543 727.35 Q63.8132 730.437 62.6992 733.875 L56.6518 733.875 Q58.3387 730.628 59.198 727.477 Q60.0256 724.326 60.0256 721.239 Q60.0256 717.101 58.6251 714.873 Q57.1929 712.645 54.6147 712.645 Q52.2276 712.645 50.9545 714.268 Q49.6813 715.86 48.5037 721.302 L48.0262 723.339 Q46.8804 728.782 44.5251 731.201 Q42.138 733.62 38.0002 733.62 Q32.9713 733.62 30.2341 730.055 Q27.4968 726.49 27.4968 719.934 Q27.4968 716.687 27.9743 713.823 Q28.4517 710.958 29.4065 708.539 Z" fill="#000000" fill-rule="nonzero" fill-opacity="1" /><path clip-path="url(#clip150)" d="M779.019 12.096 L791.212 12.096 L806.646 53.2532 L822.161 12.096 L834.355 12.096 L834.355 72.576 L826.374 72.576 L826.374 19.4686 L810.778 60.9499 L802.555 60.9499 L786.959 19.4686 L786.959 72.576 L779.019 72.576 L779.019 12.096 Z" fill="#000000" fill-rule="nonzero" fill-opacity="1" /><path clip-path="url(#clip150)" d="M889.082 48.0275 L889.082 51.6733 L854.812 51.6733 Q855.298 59.3701 859.43 63.421 Q863.602 67.4314 871.015 67.4314 Q875.309 67.4314 879.32 66.3781 Q883.371 65.3249 887.34 63.2184 L887.34 70.267 Q883.33 71.9684 879.117 72.8596 Q874.904 73.7508 870.57 73.7508 Q859.713 73.7508 853.353 67.4314 Q847.034 61.1119 847.034 50.3365 Q847.034 39.1965 853.029 32.6746 Q859.065 26.1121 869.273 26.1121 Q878.428 26.1121 883.735 32.0264 Q889.082 37.9003 889.082 48.0275 M881.629 45.84 Q881.548 39.7232 878.185 36.0774 Q874.864 32.4315 869.354 32.4315 Q863.116 32.4315 859.349 35.9558 Q855.622 39.4801 855.055 45.8805 L881.629 45.84 Z" fill="#000000" fill-rule="nonzero" fill-opacity="1" /><path clip-path="url(#clip150)" d="M921.935 49.7694 Q912.902 49.7694 909.418 51.8354 Q905.934 53.9013 905.934 58.8839 Q905.934 62.8538 908.527 65.2034 Q911.16 67.5124 915.656 67.5124 Q921.854 67.5124 925.581 63.1374 Q929.348 58.7219 929.348 51.4303 L929.348 49.7694 L921.935 49.7694 M936.802 46.6907 L936.802 72.576 L929.348 72.576 L929.348 65.6895 Q926.796 69.8214 922.988 71.8063 Q919.181 73.7508 913.671 73.7508 Q906.704 73.7508 902.572 69.8619 Q898.48 65.9325 898.48 59.3701 Q898.48 51.7138 903.585 47.825 Q908.729 43.9361 918.897 43.9361 L929.348 43.9361 L929.348 43.2069 Q929.348 38.0623 925.946 35.2672 Q922.583 32.4315 916.466 32.4315 Q912.578 32.4315 908.891 33.3632 Q905.205 34.295 901.802 36.1584 L901.802 29.2718 Q905.894 27.692 909.742 26.9223 Q913.59 26.1121 917.236 26.1121 Q927.08 26.1121 931.941 31.2163 Q936.802 36.3204 936.802 46.6907 Z" fill="#000000" fill-rule="nonzero" fill-opacity="1" /><path clip-path="url(#clip150)" d="M989.869 45.1919 L989.869 72.576 L982.415 72.576 L982.415 45.4349 Q982.415 38.994 979.904 35.7938 Q977.392 32.5936 972.369 32.5936 Q966.333 32.5936 962.849 36.4419 Q959.365 40.2903 959.365 46.9338 L959.365 72.576 L951.871 72.576 L951.871 27.2059 L959.365 27.2059 L959.365 34.2544 Q962.039 30.163 965.644 28.1376 Q969.29 26.1121 974.03 26.1121 Q981.848 26.1121 985.858 30.9732 Q989.869 35.7938 989.869 45.1919 Z" fill="#000000" fill-rule="nonzero" fill-opacity="1" /><path clip-path="url(#clip150)" d="M1038.48 14.324 L1038.48 27.2059 L1053.83 27.2059 L1053.83 32.9987 L1038.48 32.9987 L1038.48 57.6282 Q1038.48 63.1779 1039.98 64.7578 Q1041.52 66.3376 1046.18 66.3376 L1053.83 66.3376 L1053.83 72.576 L1046.18 72.576 Q1037.55 72.576 1034.27 69.3758 Q1030.99 66.1351 1030.99 57.6282 L1030.99 32.9987 L1025.52 32.9987 L1025.52 27.2059 L1030.99 27.2059 L1030.99 14.324 L1038.48 14.324 Z" fill="#000000" fill-rule="nonzero" fill-opacity="1" /><path clip-path="url(#clip150)" d="M1089.93 34.1734 Q1088.67 33.4443 1087.17 33.1202 Q1085.71 32.7556 1083.93 32.7556 Q1077.61 32.7556 1074.21 36.8875 Q1070.85 40.9789 1070.85 48.6757 L1070.85 72.576 L1063.35 72.576 L1063.35 27.2059 L1070.85 27.2059 L1070.85 34.2544 Q1073.2 30.1225 1076.96 28.1376 Q1080.73 26.1121 1086.12 26.1121 Q1086.89 26.1121 1087.82 26.2337 Q1088.75 26.3147 1089.89 26.5172 L1089.93 34.1734 Z" fill="#000000" fill-rule="nonzero" fill-opacity="1" /><path clip-path="url(#clip150)" d="M1118.36 49.7694 Q1109.33 49.7694 1105.85 51.8354 Q1102.36 53.9013 1102.36 58.8839 Q1102.36 62.8538 1104.95 65.2034 Q1107.59 67.5124 1112.08 67.5124 Q1118.28 67.5124 1122.01 63.1374 Q1125.78 58.7219 1125.78 51.4303 L1125.78 49.7694 L1118.36 49.7694 M1133.23 46.6907 L1133.23 72.576 L1125.78 72.576 L1125.78 65.6895 Q1123.22 69.8214 1119.42 71.8063 Q1115.61 73.7508 1110.1 73.7508 Q1103.13 73.7508 1099 69.8619 Q1094.91 65.9325 1094.91 59.3701 Q1094.91 51.7138 1100.01 47.825 Q1105.16 43.9361 1115.33 43.9361 L1125.78 43.9361 L1125.78 43.2069 Q1125.78 38.0623 1122.37 35.2672 Q1119.01 32.4315 1112.89 32.4315 Q1109.01 32.4315 1105.32 33.3632 Q1101.63 34.295 1098.23 36.1584 L1098.23 29.2718 Q1102.32 27.692 1106.17 26.9223 Q1110.02 26.1121 1113.66 26.1121 Q1123.51 26.1121 1128.37 31.2163 Q1133.23 36.3204 1133.23 46.6907 Z" fill="#000000" fill-rule="nonzero" fill-opacity="1" /><path clip-path="url(#clip150)" d="M1148.58 27.2059 L1156.04 27.2059 L1156.04 72.576 L1148.58 72.576 L1148.58 27.2059 M1148.58 9.54393 L1156.04 9.54393 L1156.04 18.9825 L1148.58 18.9825 L1148.58 9.54393 Z" fill="#000000" fill-rule="nonzero" fill-opacity="1" /><path clip-path="url(#clip150)" d="M1209.35 45.1919 L1209.35 72.576 L1201.89 72.576 L1201.89 45.4349 Q1201.89 38.994 1199.38 35.7938 Q1196.87 32.5936 1191.85 32.5936 Q1185.81 32.5936 1182.33 36.4419 Q1178.84 40.2903 1178.84 46.9338 L1178.84 72.576 L1171.35 72.576 L1171.35 27.2059 L1178.84 27.2059 L1178.84 34.2544 Q1181.52 30.163 1185.12 28.1376 Q1188.77 26.1121 1193.51 26.1121 Q1201.33 26.1121 1205.34 30.9732 Q1209.35 35.7938 1209.35 45.1919 Z" fill="#000000" fill-rule="nonzero" fill-opacity="1" /><path clip-path="url(#clip150)" d="M1250.59 9.54393 L1258.04 9.54393 L1258.04 72.576 L1250.59 72.576 L1250.59 9.54393 Z" fill="#000000" fill-rule="nonzero" fill-opacity="1" /><path clip-path="url(#clip150)" d="M1291.22 32.4315 Q1285.22 32.4315 1281.74 37.1306 Q1278.25 41.7891 1278.25 49.9314 Q1278.25 58.0738 1281.7 62.7728 Q1285.18 67.4314 1291.22 67.4314 Q1297.17 67.4314 1300.65 62.7323 Q1304.14 58.0333 1304.14 49.9314 Q1304.14 41.8701 1300.65 37.1711 Q1297.17 32.4315 1291.22 32.4315 M1291.22 26.1121 Q1300.94 26.1121 1306.49 32.4315 Q1312.04 38.7509 1312.04 49.9314 Q1312.04 61.0714 1306.49 67.4314 Q1300.94 73.7508 1291.22 73.7508 Q1281.45 73.7508 1275.9 67.4314 Q1270.39 61.0714 1270.39 49.9314 Q1270.39 38.7509 1275.9 32.4315 Q1281.45 26.1121 1291.22 26.1121 Z" fill="#000000" fill-rule="nonzero" fill-opacity="1" /><path clip-path="url(#clip150)" d="M1353.32 28.5427 L1353.32 35.5912 Q1350.16 33.9709 1346.75 33.1607 Q1343.35 32.3505 1339.7 32.3505 Q1334.16 32.3505 1331.36 34.0519 Q1328.61 35.7533 1328.61 39.156 Q1328.61 41.7486 1330.59 43.2475 Q1332.58 44.7058 1338.57 46.0426 L1341.12 46.6097 Q1349.06 48.3111 1352.38 51.4303 Q1355.75 54.509 1355.75 60.0587 Q1355.75 66.3781 1350.72 70.0644 Q1345.74 73.7508 1336.99 73.7508 Q1333.34 73.7508 1329.38 73.0216 Q1325.45 72.3329 1321.07 70.9151 L1321.07 63.2184 Q1325.2 65.3654 1329.21 66.4591 Q1333.22 67.5124 1337.15 67.5124 Q1342.42 67.5124 1345.25 65.73 Q1348.09 63.9071 1348.09 60.6258 Q1348.09 57.5877 1346.02 55.9673 Q1344 54.3469 1337.07 52.8481 L1334.48 52.2405 Q1327.55 50.7821 1324.47 47.7845 Q1321.39 44.7463 1321.39 39.4801 Q1321.39 33.0797 1325.93 29.5959 Q1330.47 26.1121 1338.81 26.1121 Q1342.95 26.1121 1346.59 26.7198 Q1350.24 27.3274 1353.32 28.5427 Z" fill="#000000" fill-rule="nonzero" fill-opacity="1" /><path clip-path="url(#clip150)" d="M1396.54 28.5427 L1396.54 35.5912 Q1393.38 33.9709 1389.98 33.1607 Q1386.57 32.3505 1382.93 32.3505 Q1377.38 32.3505 1374.58 34.0519 Q1371.83 35.7533 1371.83 39.156 Q1371.83 41.7486 1373.81 43.2475 Q1375.8 44.7058 1381.79 46.0426 L1384.35 46.6097 Q1392.29 48.3111 1395.61 51.4303 Q1398.97 54.509 1398.97 60.0587 Q1398.97 66.3781 1393.95 70.0644 Q1388.96 73.7508 1380.21 73.7508 Q1376.57 73.7508 1372.6 73.0216 Q1368.67 72.3329 1364.29 70.9151 L1364.29 63.2184 Q1368.43 65.3654 1372.44 66.4591 Q1376.45 67.5124 1380.38 67.5124 Q1385.64 67.5124 1388.48 65.73 Q1391.31 63.9071 1391.31 60.6258 Q1391.31 57.5877 1389.25 55.9673 Q1387.22 54.3469 1380.29 52.8481 L1377.7 52.2405 Q1370.78 50.7821 1367.7 47.7845 Q1364.62 44.7463 1364.62 39.4801 Q1364.62 33.0797 1369.15 29.5959 Q1373.69 26.1121 1382.04 26.1121 Q1386.17 26.1121 1389.81 26.7198 Q1393.46 27.3274 1396.54 28.5427 Z" fill="#000000" fill-rule="nonzero" fill-opacity="1" /><path clip-path="url(#clip150)" d="M1444.42 65.7705 L1444.42 89.8329 L1436.93 89.8329 L1436.93 27.2059 L1444.42 27.2059 L1444.42 34.0924 Q1446.77 30.0415 1450.34 28.0971 Q1453.94 26.1121 1458.92 26.1121 Q1467.19 26.1121 1472.33 32.6746 Q1477.52 39.2371 1477.52 49.9314 Q1477.52 60.6258 1472.33 67.1883 Q1467.19 73.7508 1458.92 73.7508 Q1453.94 73.7508 1450.34 71.8063 Q1446.77 69.8214 1444.42 65.7705 M1469.78 49.9314 Q1469.78 41.7081 1466.38 37.0496 Q1463.01 32.3505 1457.1 32.3505 Q1451.19 32.3505 1447.78 37.0496 Q1444.42 41.7081 1444.42 49.9314 Q1444.42 58.1548 1447.78 62.8538 Q1451.19 67.5124 1457.1 67.5124 Q1463.01 67.5124 1466.38 62.8538 Q1469.78 58.1548 1469.78 49.9314 Z" fill="#000000" fill-rule="nonzero" fill-opacity="1" /><path clip-path="url(#clip150)" d="M1528.68 48.0275 L1528.68 51.6733 L1494.41 51.6733 Q1494.9 59.3701 1499.03 63.421 Q1503.2 67.4314 1510.61 67.4314 Q1514.91 67.4314 1518.92 66.3781 Q1522.97 65.3249 1526.94 63.2184 L1526.94 70.267 Q1522.93 71.9684 1518.71 72.8596 Q1514.5 73.7508 1510.17 73.7508 Q1499.31 73.7508 1492.95 67.4314 Q1486.63 61.1119 1486.63 50.3365 Q1486.63 39.1965 1492.63 32.6746 Q1498.66 26.1121 1508.87 26.1121 Q1518.03 26.1121 1523.33 32.0264 Q1528.68 37.9003 1528.68 48.0275 M1521.23 45.84 Q1521.14 39.7232 1517.78 36.0774 Q1514.46 32.4315 1508.95 32.4315 Q1502.71 32.4315 1498.95 35.9558 Q1495.22 39.4801 1494.65 45.8805 L1521.23 45.84 Z" fill="#000000" fill-rule="nonzero" fill-opacity="1" /><path clip-path="url(#clip150)" d="M1567.2 34.1734 Q1565.95 33.4443 1564.45 33.1202 Q1562.99 32.7556 1561.21 32.7556 Q1554.89 32.7556 1551.49 36.8875 Q1548.12 40.9789 1548.12 48.6757 L1548.12 72.576 L1540.63 72.576 L1540.63 27.2059 L1548.12 27.2059 L1548.12 34.2544 Q1550.47 30.1225 1554.24 28.1376 Q1558.01 26.1121 1563.4 26.1121 Q1564.17 26.1121 1565.1 26.2337 Q1566.03 26.3147 1567.16 26.5172 L1567.2 34.1734 Z" fill="#000000" fill-rule="nonzero" fill-opacity="1" /><path clip-path="url(#clip150)" d="M1640.2 48.0275 L1640.2 51.6733 L1605.93 51.6733 Q1606.42 59.3701 1610.55 63.421 Q1614.72 67.4314 1622.13 67.4314 Q1626.43 67.4314 1630.44 66.3781 Q1634.49 65.3249 1638.46 63.2184 L1638.46 70.267 Q1634.45 71.9684 1630.24 72.8596 Q1626.02 73.7508 1621.69 73.7508 Q1610.83 73.7508 1604.47 67.4314 Q1598.15 61.1119 1598.15 50.3365 Q1598.15 39.1965 1604.15 32.6746 Q1610.18 26.1121 1620.39 26.1121 Q1629.55 26.1121 1634.85 32.0264 Q1640.2 37.9003 1640.2 48.0275 M1632.75 45.84 Q1632.67 39.7232 1629.3 36.0774 Q1625.98 32.4315 1620.47 32.4315 Q1614.23 32.4315 1610.47 35.9558 Q1606.74 39.4801 1606.17 45.8805 L1632.75 45.84 Z" fill="#000000" fill-rule="nonzero" fill-opacity="1" /><path clip-path="url(#clip150)" d="M1659.65 65.7705 L1659.65 89.8329 L1652.15 89.8329 L1652.15 27.2059 L1659.65 27.2059 L1659.65 34.0924 Q1661.99 30.0415 1665.56 28.0971 Q1669.16 26.1121 1674.15 26.1121 Q1682.41 26.1121 1687.56 32.6746 Q1692.74 39.2371 1692.74 49.9314 Q1692.74 60.6258 1687.56 67.1883 Q1682.41 73.7508 1674.15 73.7508 Q1669.16 73.7508 1665.56 71.8063 Q1661.99 69.8214 1659.65 65.7705 M1685 49.9314 Q1685 41.7081 1681.6 37.0496 Q1678.24 32.3505 1672.32 32.3505 Q1666.41 32.3505 1663.01 37.0496 Q1659.65 41.7081 1659.65 49.9314 Q1659.65 58.1548 1663.01 62.8538 Q1666.41 67.5124 1672.32 67.5124 Q1678.24 67.5124 1681.6 62.8538 Q1685 58.1548 1685 49.9314 Z" fill="#000000" fill-rule="nonzero" fill-opacity="1" /><path clip-path="url(#clip150)" d="M1722.68 32.4315 Q1716.68 32.4315 1713.2 37.1306 Q1709.71 41.7891 1709.71 49.9314 Q1709.71 58.0738 1713.16 62.7728 Q1716.64 67.4314 1722.68 67.4314 Q1728.63 67.4314 1732.12 62.7323 Q1735.6 58.0333 1735.6 49.9314 Q1735.6 41.8701 1732.12 37.1711 Q1728.63 32.4315 1722.68 32.4315 M1722.68 26.1121 Q1732.4 26.1121 1737.95 32.4315 Q1743.5 38.7509 1743.5 49.9314 Q1743.5 61.0714 1737.95 67.4314 Q1732.4 73.7508 1722.68 73.7508 Q1712.91 73.7508 1707.36 67.4314 Q1701.86 61.0714 1701.86 49.9314 Q1701.86 38.7509 1707.36 32.4315 Q1712.91 26.1121 1722.68 26.1121 Z" fill="#000000" fill-rule="nonzero" fill-opacity="1" /><path clip-path="url(#clip150)" d="M1788.5 28.9478 L1788.5 35.9153 Q1785.34 34.1734 1782.14 33.3227 Q1778.98 32.4315 1775.74 32.4315 Q1768.49 32.4315 1764.48 37.0496 Q1760.47 41.6271 1760.47 49.9314 Q1760.47 58.2358 1764.48 62.8538 Q1768.49 67.4314 1775.74 67.4314 Q1778.98 67.4314 1782.14 66.5807 Q1785.34 65.6895 1788.5 63.9476 L1788.5 70.8341 Q1785.39 72.2924 1782.02 73.0216 Q1778.7 73.7508 1774.93 73.7508 Q1764.69 73.7508 1758.65 67.3098 Q1752.61 60.8689 1752.61 49.9314 Q1752.61 38.832 1758.69 32.472 Q1764.81 26.1121 1775.42 26.1121 Q1778.86 26.1121 1782.14 26.8413 Q1785.43 27.5299 1788.5 28.9478 Z" fill="#000000" fill-rule="nonzero" fill-opacity="1" /><path clip-path="url(#clip150)" d="M1839.18 45.1919 L1839.18 72.576 L1831.73 72.576 L1831.73 45.4349 Q1831.73 38.994 1829.22 35.7938 Q1826.7 32.5936 1821.68 32.5936 Q1815.65 32.5936 1812.16 36.4419 Q1808.68 40.2903 1808.68 46.9338 L1808.68 72.576 L1801.18 72.576 L1801.18 9.54393 L1808.68 9.54393 L1808.68 34.2544 Q1811.35 30.163 1814.96 28.1376 Q1818.6 26.1121 1823.34 26.1121 Q1831.16 26.1121 1835.17 30.9732 Q1839.18 35.7938 1839.18 45.1919 Z" fill="#000000" fill-rule="nonzero" fill-opacity="1" /><polyline clip-path="url(#clip152)" style="stroke:#ff0000; stroke-linecap:round; stroke-linejoin:round; stroke-width:8; stroke-opacity:1; fill:none" points="324.52,160.256 428.16,552.218 531.8,761.593 635.44,905.266 739.08,990.359 842.72,1055.72 946.36,1098.7 1050,1195.05 1153.64,1261.14 1257.28,1284.6 1360.92,1304.06 1464.56,1327.09 1568.2,1342.53 1671.84,1347.53 1775.48,1357.6 1879.12,1362.15 1982.76,1366.96 2086.4,1368.11 2190.04,1383.48 2293.68,1386.4 "/>
<path clip-path="url(#clip150)" d="M1856.23 270.476 L2283.18 270.476 L2283.18 166.796 L1856.23 166.796  Z" fill="#ffffff" fill-rule="evenodd" fill-opacity="1"/>
<polyline clip-path="url(#clip150)" style="stroke:#000000; stroke-linecap:round; stroke-linejoin:round; stroke-width:4; stroke-opacity:1; fill:none" points="1856.23,270.476 2283.18,270.476 2283.18,166.796 1856.23,166.796 1856.23,270.476 "/>
<polyline clip-path="url(#clip150)" style="stroke:#ff0000; stroke-linecap:round; stroke-linejoin:round; stroke-width:8; stroke-opacity:1; fill:none" points="1879.42,218.636 2018.58,218.636 "/>
<path clip-path="url(#clip150)" d="M2041.77 201.356 L2071.01 201.356 L2071.01 205.291 L2058.74 205.291 L2058.74 235.916 L2054.04 235.916 L2054.04 205.291 L2041.77 205.291 L2041.77 201.356 Z" fill="#000000" fill-rule="nonzero" fill-opacity="1" /><path clip-path="url(#clip150)" d="M2083.39 213.971 Q2082.67 213.555 2081.82 213.37 Q2080.98 213.161 2079.96 213.161 Q2076.35 213.161 2074.41 215.522 Q2072.49 217.86 2072.49 222.258 L2072.49 235.916 L2068.21 235.916 L2068.21 209.99 L2072.49 209.99 L2072.49 214.018 Q2073.83 211.657 2075.98 210.522 Q2078.14 209.365 2081.21 209.365 Q2081.65 209.365 2082.19 209.434 Q2082.72 209.481 2083.37 209.596 L2083.39 213.971 Z" fill="#000000" fill-rule="nonzero" fill-opacity="1" /><path clip-path="url(#clip150)" d="M2099.64 222.883 Q2094.48 222.883 2092.49 224.064 Q2090.5 225.244 2090.5 228.092 Q2090.5 230.36 2091.98 231.703 Q2093.48 233.022 2096.05 233.022 Q2099.59 233.022 2101.72 230.522 Q2103.88 227.999 2103.88 223.832 L2103.88 222.883 L2099.64 222.883 M2108.14 221.124 L2108.14 235.916 L2103.88 235.916 L2103.88 231.981 Q2102.42 234.342 2100.24 235.476 Q2098.07 236.587 2094.92 236.587 Q2090.94 236.587 2088.58 234.365 Q2086.24 232.119 2086.24 228.369 Q2086.24 223.994 2089.15 221.772 Q2092.09 219.55 2097.9 219.55 L2103.88 219.55 L2103.88 219.133 Q2103.88 216.194 2101.93 214.596 Q2100.01 212.976 2096.52 212.976 Q2094.29 212.976 2092.19 213.508 Q2090.08 214.041 2088.14 215.106 L2088.14 211.17 Q2090.47 210.268 2092.67 209.828 Q2094.87 209.365 2096.95 209.365 Q2102.58 209.365 2105.36 212.282 Q2108.14 215.198 2108.14 221.124 Z" fill="#000000" fill-rule="nonzero" fill-opacity="1" /><path clip-path="url(#clip150)" d="M2116.91 209.99 L2121.17 209.99 L2121.17 235.916 L2116.91 235.916 L2116.91 209.99 M2116.91 199.897 L2121.17 199.897 L2121.17 205.291 L2116.91 205.291 L2116.91 199.897 Z" fill="#000000" fill-rule="nonzero" fill-opacity="1" /><path clip-path="url(#clip150)" d="M2151.63 220.268 L2151.63 235.916 L2147.37 235.916 L2147.37 220.407 Q2147.37 216.726 2145.94 214.897 Q2144.5 213.069 2141.63 213.069 Q2138.18 213.069 2136.19 215.268 Q2134.2 217.467 2134.2 221.263 L2134.2 235.916 L2129.92 235.916 L2129.92 209.99 L2134.2 209.99 L2134.2 214.018 Q2135.73 211.68 2137.79 210.522 Q2139.87 209.365 2142.58 209.365 Q2147.05 209.365 2149.34 212.143 Q2151.63 214.897 2151.63 220.268 Z" fill="#000000" fill-rule="nonzero" fill-opacity="1" /><path clip-path="url(#clip150)" d="M2175.2 199.897 L2179.45 199.897 L2179.45 235.916 L2175.2 235.916 L2175.2 199.897 Z" fill="#000000" fill-rule="nonzero" fill-opacity="1" /><path clip-path="url(#clip150)" d="M2198.41 212.976 Q2194.99 212.976 2193 215.661 Q2191.01 218.323 2191.01 222.976 Q2191.01 227.629 2192.97 230.314 Q2194.96 232.976 2198.41 232.976 Q2201.82 232.976 2203.81 230.291 Q2205.8 227.606 2205.8 222.976 Q2205.8 218.37 2203.81 215.684 Q2201.82 212.976 2198.41 212.976 M2198.41 209.365 Q2203.97 209.365 2207.14 212.976 Q2210.31 216.587 2210.31 222.976 Q2210.31 229.342 2207.14 232.976 Q2203.97 236.587 2198.41 236.587 Q2192.83 236.587 2189.66 232.976 Q2186.51 229.342 2186.51 222.976 Q2186.51 216.587 2189.66 212.976 Q2192.83 209.365 2198.41 209.365 Z" fill="#000000" fill-rule="nonzero" fill-opacity="1" /><path clip-path="url(#clip150)" d="M2233.9 210.754 L2233.9 214.782 Q2232.09 213.856 2230.15 213.393 Q2228.2 212.93 2226.12 212.93 Q2222.95 212.93 2221.35 213.902 Q2219.78 214.874 2219.78 216.819 Q2219.78 218.3 2220.91 219.157 Q2222.05 219.99 2225.47 220.754 L2226.93 221.078 Q2231.47 222.05 2233.37 223.832 Q2235.29 225.592 2235.29 228.763 Q2235.29 232.374 2232.42 234.481 Q2229.57 236.587 2224.57 236.587 Q2222.49 236.587 2220.22 236.17 Q2217.97 235.777 2215.47 234.967 L2215.47 230.569 Q2217.83 231.795 2220.13 232.42 Q2222.42 233.022 2224.66 233.022 Q2227.67 233.022 2229.29 232.004 Q2230.91 230.962 2230.91 229.087 Q2230.91 227.351 2229.73 226.425 Q2228.57 225.499 2224.62 224.643 L2223.13 224.295 Q2219.18 223.462 2217.42 221.749 Q2215.66 220.013 2215.66 217.004 Q2215.66 213.346 2218.25 211.356 Q2220.84 209.365 2225.61 209.365 Q2227.97 209.365 2230.06 209.712 Q2232.14 210.059 2233.9 210.754 Z" fill="#000000" fill-rule="nonzero" fill-opacity="1" /><path clip-path="url(#clip150)" d="M2258.6 210.754 L2258.6 214.782 Q2256.79 213.856 2254.85 213.393 Q2252.9 212.93 2250.82 212.93 Q2247.65 212.93 2246.05 213.902 Q2244.48 214.874 2244.48 216.819 Q2244.48 218.3 2245.61 219.157 Q2246.75 219.99 2250.17 220.754 L2251.63 221.078 Q2256.17 222.05 2258.07 223.832 Q2259.99 225.592 2259.99 228.763 Q2259.99 232.374 2257.12 234.481 Q2254.27 236.587 2249.27 236.587 Q2247.19 236.587 2244.92 236.17 Q2242.67 235.777 2240.17 234.967 L2240.17 230.569 Q2242.53 231.795 2244.82 232.42 Q2247.12 233.022 2249.36 233.022 Q2252.37 233.022 2253.99 232.004 Q2255.61 230.962 2255.61 229.087 Q2255.61 227.351 2254.43 226.425 Q2253.27 225.499 2249.32 224.643 L2247.83 224.295 Q2243.88 223.462 2242.12 221.749 Q2240.36 220.013 2240.36 217.004 Q2240.36 213.346 2242.95 211.356 Q2245.54 209.365 2250.31 209.365 Q2252.67 209.365 2254.76 209.712 Q2256.84 210.059 2258.6 210.754 Z" fill="#000000" fill-rule="nonzero" fill-opacity="1" /></svg>
