<?xml version="1.0" encoding="utf-8"?>
<svg xmlns="http://www.w3.org/2000/svg" xmlns:xlink="http://www.w3.org/1999/xlink" width="600" height="400" viewBox="0 0 2400 1600">
<defs>
  <clipPath id="clip330">
    <rect x="0" y="0" width="2400" height="1600"/>
  </clipPath>
</defs>
<path clip-path="url(#clip330)" d="M0 1600 L2400 1600 L2400 8.88178e-14 L0 8.88178e-14  Z" fill="#ffffff" fill-rule="evenodd" fill-opacity="1"/>
<defs>
  <clipPath id="clip331">
    <rect x="480" y="0" width="1681" height="1600"/>
  </clipPath>
</defs>
<path clip-path="url(#clip330)" d="M250.028 1423.18 L2352.76 1423.18 L2352.76 123.472 L250.028 123.472  Z" fill="#ffffff" fill-rule="evenodd" fill-opacity="1"/>
<defs>
  <clipPath id="clip332">
    <rect x="250" y="123" width="2104" height="1301"/>
  </clipPath>
</defs>
<polyline clip-path="url(#clip332)" style="stroke:#000000; stroke-linecap:round; stroke-linejoin:round; stroke-width:2; stroke-opacity:0.1; fill:none" points="309.539,1423.18 309.539,123.472 "/>
<polyline clip-path="url(#clip332)" style="stroke:#000000; stroke-linecap:round; stroke-linejoin:round; stroke-width:2; stroke-opacity:0.1; fill:none" points="970.774,1423.18 970.774,123.472 "/>
<polyline clip-path="url(#clip332)" style="stroke:#000000; stroke-linecap:round; stroke-linejoin:round; stroke-width:2; stroke-opacity:0.1; fill:none" points="1632.01,1423.18 1632.01,123.472 "/>
<polyline clip-path="url(#clip332)" style="stroke:#000000; stroke-linecap:round; stroke-linejoin:round; stroke-width:2; stroke-opacity:0.1; fill:none" points="2293.24,1423.18 2293.24,123.472 "/>
<polyline clip-path="url(#clip330)" style="stroke:#000000; stroke-linecap:round; stroke-linejoin:round; stroke-width:4; stroke-opacity:1; fill:none" points="250.028,1423.18 2352.76,1423.18 "/>
<polyline clip-path="url(#clip330)" style="stroke:#000000; stroke-linecap:round; stroke-linejoin:round; stroke-width:4; stroke-opacity:1; fill:none" points="309.539,1423.18 309.539,1404.28 "/>
<polyline clip-path="url(#clip330)" style="stroke:#000000; stroke-linecap:round; stroke-linejoin:round; stroke-width:4; stroke-opacity:1; fill:none" points="970.774,1423.18 970.774,1404.28 "/>
<polyline clip-path="url(#clip330)" style="stroke:#000000; stroke-linecap:round; stroke-linejoin:round; stroke-width:4; stroke-opacity:1; fill:none" points="1632.01,1423.18 1632.01,1404.28 "/>
<polyline clip-path="url(#clip330)" style="stroke:#000000; stroke-linecap:round; stroke-linejoin:round; stroke-width:4; stroke-opacity:1; fill:none" points="2293.24,1423.18 2293.24,1404.28 "/>
<path clip-path="url(#clip330)" d="M299.921 1481.64 L307.56 1481.64 L307.56 1455.28 L299.25 1456.95 L299.25 1452.69 L307.514 1451.02 L312.19 1451.02 L312.19 1481.64 L319.829 1481.64 L319.829 1485.58 L299.921 1485.58 L299.921 1481.64 Z" fill="#000000" fill-rule="nonzero" fill-opacity="1" /><path clip-path="url(#clip330)" d="M965.427 1481.64 L981.747 1481.64 L981.747 1485.58 L959.802 1485.58 L959.802 1481.64 Q962.464 1478.89 967.048 1474.26 Q971.654 1469.61 972.835 1468.27 Q975.08 1465.74 975.96 1464.01 Q976.862 1462.25 976.862 1460.56 Q976.862 1457.8 974.918 1456.07 Q972.997 1454.33 969.895 1454.33 Q967.696 1454.33 965.242 1455.09 Q962.812 1455.86 960.034 1457.41 L960.034 1452.69 Q962.858 1451.55 965.312 1450.97 Q967.765 1450.39 969.802 1450.39 Q975.173 1450.39 978.367 1453.08 Q981.561 1455.77 981.561 1460.26 Q981.561 1462.39 980.751 1464.31 Q979.964 1466.2 977.858 1468.8 Q977.279 1469.47 974.177 1472.69 Q971.075 1475.88 965.427 1481.64 Z" fill="#000000" fill-rule="nonzero" fill-opacity="1" /><path clip-path="url(#clip330)" d="M1636.26 1466.95 Q1639.61 1467.66 1641.49 1469.93 Q1643.39 1472.2 1643.39 1475.53 Q1643.39 1480.65 1639.87 1483.45 Q1636.35 1486.25 1629.87 1486.25 Q1627.69 1486.25 1625.38 1485.81 Q1623.09 1485.39 1620.63 1484.54 L1620.63 1480.02 Q1622.58 1481.16 1624.89 1481.74 Q1627.21 1482.32 1629.73 1482.32 Q1634.13 1482.32 1636.42 1480.58 Q1638.73 1478.84 1638.73 1475.53 Q1638.73 1472.48 1636.58 1470.77 Q1634.45 1469.03 1630.63 1469.03 L1626.6 1469.03 L1626.6 1465.19 L1630.82 1465.19 Q1634.27 1465.19 1636.1 1463.82 Q1637.92 1462.43 1637.92 1459.84 Q1637.92 1457.18 1636.03 1455.77 Q1634.15 1454.33 1630.63 1454.33 Q1628.71 1454.33 1626.51 1454.75 Q1624.31 1455.16 1621.67 1456.04 L1621.67 1451.88 Q1624.34 1451.14 1626.65 1450.77 Q1628.99 1450.39 1631.05 1450.39 Q1636.37 1450.39 1639.47 1452.83 Q1642.58 1455.23 1642.58 1459.35 Q1642.58 1462.22 1640.93 1464.21 Q1639.29 1466.18 1636.26 1466.95 Z" fill="#000000" fill-rule="nonzero" fill-opacity="1" /><path clip-path="url(#clip330)" d="M2296.25 1455.09 L2284.45 1473.54 L2296.25 1473.54 L2296.25 1455.09 M2295.03 1451.02 L2300.91 1451.02 L2300.91 1473.54 L2305.84 1473.54 L2305.84 1477.43 L2300.91 1477.43 L2300.91 1485.58 L2296.25 1485.58 L2296.25 1477.43 L2280.65 1477.43 L2280.65 1472.92 L2295.03 1451.02 Z" fill="#000000" fill-rule="nonzero" fill-opacity="1" /><path clip-path="url(#clip330)" d="M1005.61 1520.52 L1012.04 1520.52 L1012.04 1562.63 L1035.18 1562.63 L1035.18 1568.04 L1005.61 1568.04 L1005.61 1520.52 Z" fill="#000000" fill-rule="nonzero" fill-opacity="1" /><path clip-path="url(#clip330)" d="M1057.87 1550.12 Q1050.77 1550.12 1048.04 1551.75 Q1045.3 1553.37 1045.3 1557.29 Q1045.3 1560.4 1047.34 1562.25 Q1049.41 1564.07 1052.94 1564.07 Q1057.81 1564.07 1060.74 1560.63 Q1063.7 1557.16 1063.7 1551.43 L1063.7 1550.12 L1057.87 1550.12 M1069.55 1547.71 L1069.55 1568.04 L1063.7 1568.04 L1063.7 1562.63 Q1061.69 1565.88 1058.7 1567.44 Q1055.71 1568.97 1051.38 1568.97 Q1045.9 1568.97 1042.66 1565.91 Q1039.44 1562.82 1039.44 1557.67 Q1039.44 1551.65 1043.45 1548.6 Q1047.5 1545.54 1055.48 1545.54 L1063.7 1545.54 L1063.7 1544.97 Q1063.7 1540.93 1061.02 1538.73 Q1058.38 1536.5 1053.58 1536.5 Q1050.52 1536.5 1047.62 1537.23 Q1044.73 1537.97 1042.05 1539.43 L1042.05 1534.02 Q1045.27 1532.78 1048.29 1532.17 Q1051.32 1531.54 1054.18 1531.54 Q1061.91 1531.54 1065.73 1535.55 Q1069.55 1539.56 1069.55 1547.71 Z" fill="#000000" fill-rule="nonzero" fill-opacity="1" /><path clip-path="url(#clip330)" d="M1087.41 1522.27 L1087.41 1532.4 L1099.47 1532.4 L1099.47 1536.95 L1087.41 1536.95 L1087.41 1556.3 Q1087.41 1560.66 1088.59 1561.9 Q1089.8 1563.14 1093.46 1563.14 L1099.47 1563.14 L1099.47 1568.04 L1093.46 1568.04 Q1086.68 1568.04 1084.1 1565.53 Q1081.52 1562.98 1081.52 1556.3 L1081.52 1536.95 L1077.22 1536.95 L1077.22 1532.4 L1081.52 1532.4 L1081.52 1522.27 L1087.41 1522.27 Z" fill="#000000" fill-rule="nonzero" fill-opacity="1" /><path clip-path="url(#clip330)" d="M1137.67 1548.76 L1137.67 1551.62 L1110.74 1551.62 Q1111.12 1557.67 1114.37 1560.85 Q1117.65 1564 1123.47 1564 Q1126.84 1564 1130 1563.17 Q1133.18 1562.35 1136.3 1560.69 L1136.3 1566.23 Q1133.15 1567.57 1129.84 1568.27 Q1126.53 1568.97 1123.12 1568.97 Q1114.59 1568.97 1109.59 1564 Q1104.63 1559.04 1104.63 1550.57 Q1104.63 1541.82 1109.34 1536.69 Q1114.08 1531.54 1122.1 1531.54 Q1129.3 1531.54 1133.46 1536.18 Q1137.67 1540.8 1137.67 1548.76 M1131.81 1547.04 Q1131.75 1542.23 1129.1 1539.37 Q1126.49 1536.5 1122.17 1536.5 Q1117.26 1536.5 1114.3 1539.27 Q1111.38 1542.04 1110.93 1547.07 L1131.81 1547.04 Z" fill="#000000" fill-rule="nonzero" fill-opacity="1" /><path clip-path="url(#clip330)" d="M1176.91 1546.53 L1176.91 1568.04 L1171.05 1568.04 L1171.05 1546.72 Q1171.05 1541.66 1169.08 1539.14 Q1167.11 1536.63 1163.16 1536.63 Q1158.42 1536.63 1155.68 1539.65 Q1152.94 1542.68 1152.94 1547.9 L1152.94 1568.04 L1147.06 1568.04 L1147.06 1532.4 L1152.94 1532.4 L1152.94 1537.93 Q1155.04 1534.72 1157.88 1533.13 Q1160.74 1531.54 1164.47 1531.54 Q1170.61 1531.54 1173.76 1535.36 Q1176.91 1539.14 1176.91 1546.53 Z" fill="#000000" fill-rule="nonzero" fill-opacity="1" /><path clip-path="url(#clip330)" d="M1194.38 1522.27 L1194.38 1532.4 L1206.45 1532.4 L1206.45 1536.95 L1194.38 1536.95 L1194.38 1556.3 Q1194.38 1560.66 1195.56 1561.9 Q1196.77 1563.14 1200.43 1563.14 L1206.45 1563.14 L1206.45 1568.04 L1200.43 1568.04 Q1193.65 1568.04 1191.07 1565.53 Q1188.5 1562.98 1188.5 1556.3 L1188.5 1536.95 L1184.2 1536.95 L1184.2 1532.4 L1188.5 1532.4 L1188.5 1522.27 L1194.38 1522.27 Z" fill="#000000" fill-rule="nonzero" fill-opacity="1" /><path clip-path="url(#clip330)" d="M1258.33 1537.81 L1258.33 1518.52 L1264.18 1518.52 L1264.18 1568.04 L1258.33 1568.04 L1258.33 1562.7 Q1256.48 1565.88 1253.65 1567.44 Q1250.85 1568.97 1246.9 1568.97 Q1240.44 1568.97 1236.37 1563.81 Q1232.32 1558.65 1232.32 1550.25 Q1232.32 1541.85 1236.37 1536.69 Q1240.44 1531.54 1246.9 1531.54 Q1250.85 1531.54 1253.65 1533.1 Q1256.48 1534.62 1258.33 1537.81 M1238.37 1550.25 Q1238.37 1556.71 1241.01 1560.4 Q1243.69 1564.07 1248.33 1564.07 Q1252.98 1564.07 1255.65 1560.4 Q1258.33 1556.71 1258.33 1550.25 Q1258.33 1543.79 1255.65 1540.13 Q1252.98 1536.44 1248.33 1536.44 Q1243.69 1536.44 1241.01 1540.13 Q1238.37 1543.79 1238.37 1550.25 Z" fill="#000000" fill-rule="nonzero" fill-opacity="1" /><path clip-path="url(#clip330)" d="M1276.25 1532.4 L1282.1 1532.4 L1282.1 1568.04 L1276.25 1568.04 L1276.25 1532.4 M1276.25 1518.52 L1282.1 1518.52 L1282.1 1525.93 L1276.25 1525.93 L1276.25 1518.52 Z" fill="#000000" fill-rule="nonzero" fill-opacity="1" /><path clip-path="url(#clip330)" d="M1322.11 1539.24 Q1324.31 1535.29 1327.36 1533.41 Q1330.42 1531.54 1334.56 1531.54 Q1340.13 1531.54 1343.15 1535.45 Q1346.17 1539.33 1346.17 1546.53 L1346.17 1568.04 L1340.29 1568.04 L1340.29 1546.72 Q1340.29 1541.59 1338.47 1539.11 Q1336.66 1536.63 1332.93 1536.63 Q1328.38 1536.63 1325.74 1539.65 Q1323.1 1542.68 1323.1 1547.9 L1323.1 1568.04 L1317.21 1568.04 L1317.21 1546.72 Q1317.21 1541.56 1315.4 1539.11 Q1313.58 1536.63 1309.79 1536.63 Q1305.31 1536.63 1302.67 1539.68 Q1300.02 1542.71 1300.02 1547.9 L1300.02 1568.04 L1294.14 1568.04 L1294.14 1532.4 L1300.02 1532.4 L1300.02 1537.93 Q1302.03 1534.66 1304.83 1533.1 Q1307.63 1531.54 1311.48 1531.54 Q1315.36 1531.54 1318.07 1533.51 Q1320.81 1535.48 1322.11 1539.24 Z" fill="#000000" fill-rule="nonzero" fill-opacity="1" /><path clip-path="url(#clip330)" d="M1388.35 1548.76 L1388.35 1551.62 L1361.42 1551.62 Q1361.8 1557.67 1365.05 1560.85 Q1368.33 1564 1374.15 1564 Q1377.53 1564 1380.68 1563.17 Q1383.86 1562.35 1386.98 1560.69 L1386.98 1566.23 Q1383.83 1567.57 1380.52 1568.27 Q1377.21 1568.97 1373.8 1568.97 Q1365.27 1568.97 1360.27 1564 Q1355.31 1559.04 1355.31 1550.57 Q1355.31 1541.82 1360.02 1536.69 Q1364.76 1531.54 1372.78 1531.54 Q1379.98 1531.54 1384.15 1536.18 Q1388.35 1540.8 1388.35 1548.76 M1382.49 1547.04 Q1382.43 1542.23 1379.79 1539.37 Q1377.18 1536.5 1372.85 1536.5 Q1367.95 1536.5 1364.99 1539.27 Q1362.06 1542.04 1361.61 1547.07 L1382.49 1547.04 Z" fill="#000000" fill-rule="nonzero" fill-opacity="1" /><path clip-path="url(#clip330)" d="M1427.59 1546.53 L1427.59 1568.04 L1421.74 1568.04 L1421.74 1546.72 Q1421.74 1541.66 1419.76 1539.14 Q1417.79 1536.63 1413.84 1536.63 Q1409.1 1536.63 1406.36 1539.65 Q1403.63 1542.68 1403.63 1547.9 L1403.63 1568.04 L1397.74 1568.04 L1397.74 1532.4 L1403.63 1532.4 L1403.63 1537.93 Q1405.73 1534.72 1408.56 1533.13 Q1411.42 1531.54 1415.15 1531.54 Q1421.29 1531.54 1424.44 1535.36 Q1427.59 1539.14 1427.59 1546.53 Z" fill="#000000" fill-rule="nonzero" fill-opacity="1" /><path clip-path="url(#clip330)" d="M1462 1533.45 L1462 1538.98 Q1459.52 1537.71 1456.84 1537.07 Q1454.17 1536.44 1451.3 1536.44 Q1446.94 1536.44 1444.75 1537.77 Q1442.58 1539.11 1442.58 1541.79 Q1442.58 1543.82 1444.14 1545 Q1445.7 1546.15 1450.41 1547.2 L1452.42 1547.64 Q1458.66 1548.98 1461.27 1551.43 Q1463.91 1553.85 1463.91 1558.21 Q1463.91 1563.17 1459.96 1566.07 Q1456.05 1568.97 1449.17 1568.97 Q1446.31 1568.97 1443.19 1568.39 Q1440.1 1567.85 1436.66 1566.74 L1436.66 1560.69 Q1439.91 1562.38 1443.06 1563.24 Q1446.21 1564.07 1449.3 1564.07 Q1453.44 1564.07 1455.66 1562.66 Q1457.89 1561.23 1457.89 1558.65 Q1457.89 1556.27 1456.27 1554.99 Q1454.68 1553.72 1449.24 1552.54 L1447.2 1552.07 Q1441.76 1550.92 1439.34 1548.56 Q1436.92 1546.18 1436.92 1542.04 Q1436.92 1537.01 1440.48 1534.27 Q1444.05 1531.54 1450.6 1531.54 Q1453.85 1531.54 1456.72 1532.01 Q1459.58 1532.49 1462 1533.45 Z" fill="#000000" fill-rule="nonzero" fill-opacity="1" /><path clip-path="url(#clip330)" d="M1473.23 1532.4 L1479.09 1532.4 L1479.09 1568.04 L1473.23 1568.04 L1473.23 1532.4 M1473.23 1518.52 L1479.09 1518.52 L1479.09 1525.93 L1473.23 1525.93 L1473.23 1518.52 Z" fill="#000000" fill-rule="nonzero" fill-opacity="1" /><path clip-path="url(#clip330)" d="M1505.16 1536.5 Q1500.45 1536.5 1497.71 1540.19 Q1494.97 1543.85 1494.97 1550.25 Q1494.97 1556.65 1497.68 1560.34 Q1500.42 1564 1505.16 1564 Q1509.84 1564 1512.57 1560.31 Q1515.31 1556.62 1515.31 1550.25 Q1515.31 1543.92 1512.57 1540.23 Q1509.84 1536.5 1505.16 1536.5 M1505.16 1531.54 Q1512.8 1531.54 1517.16 1536.5 Q1521.52 1541.47 1521.52 1550.25 Q1521.52 1559 1517.16 1564 Q1512.8 1568.97 1505.16 1568.97 Q1497.49 1568.97 1493.13 1564 Q1488.8 1559 1488.8 1550.25 Q1488.8 1541.47 1493.13 1536.5 Q1497.49 1531.54 1505.16 1531.54 Z" fill="#000000" fill-rule="nonzero" fill-opacity="1" /><path clip-path="url(#clip330)" d="M1560.86 1546.53 L1560.86 1568.04 L1555 1568.04 L1555 1546.72 Q1555 1541.66 1553.03 1539.14 Q1551.06 1536.63 1547.11 1536.63 Q1542.37 1536.63 1539.63 1539.65 Q1536.89 1542.68 1536.89 1547.9 L1536.89 1568.04 L1531 1568.04 L1531 1532.4 L1536.89 1532.4 L1536.89 1537.93 Q1538.99 1534.72 1541.82 1533.13 Q1544.69 1531.54 1548.41 1531.54 Q1554.56 1531.54 1557.71 1535.36 Q1560.86 1539.14 1560.86 1546.53 Z" fill="#000000" fill-rule="nonzero" fill-opacity="1" /><path clip-path="url(#clip330)" d="M1595.26 1533.45 L1595.26 1538.98 Q1592.78 1537.71 1590.11 1537.07 Q1587.44 1536.44 1584.57 1536.44 Q1580.21 1536.44 1578.01 1537.77 Q1575.85 1539.11 1575.85 1541.79 Q1575.85 1543.82 1577.41 1545 Q1578.97 1546.15 1583.68 1547.2 L1585.68 1547.64 Q1591.92 1548.98 1594.53 1551.43 Q1597.17 1553.85 1597.17 1558.21 Q1597.17 1563.17 1593.23 1566.07 Q1589.31 1568.97 1582.44 1568.97 Q1579.57 1568.97 1576.45 1568.39 Q1573.37 1567.85 1569.93 1566.74 L1569.93 1560.69 Q1573.18 1562.38 1576.33 1563.24 Q1579.48 1564.07 1582.57 1564.07 Q1586.7 1564.07 1588.93 1562.66 Q1591.16 1561.23 1591.16 1558.65 Q1591.16 1556.27 1589.54 1554.99 Q1587.94 1553.72 1582.5 1552.54 L1580.46 1552.07 Q1575.02 1550.92 1572.6 1548.56 Q1570.18 1546.18 1570.18 1542.04 Q1570.18 1537.01 1573.75 1534.27 Q1577.31 1531.54 1583.87 1531.54 Q1587.12 1531.54 1589.98 1532.01 Q1592.85 1532.49 1595.26 1533.45 Z" fill="#000000" fill-rule="nonzero" fill-opacity="1" /><polyline clip-path="url(#clip332)" style="stroke:#000000; stroke-linecap:round; stroke-linejoin:round; stroke-width:2; stroke-opacity:0.1; fill:none" points="250.028,1310.48 2352.76,1310.48 "/>
<polyline clip-path="url(#clip332)" style="stroke:#000000; stroke-linecap:round; stroke-linejoin:round; stroke-width:2; stroke-opacity:0.1; fill:none" points="250.028,1023.06 2352.76,1023.06 "/>
<polyline clip-path="url(#clip332)" style="stroke:#000000; stroke-linecap:round; stroke-linejoin:round; stroke-width:2; stroke-opacity:0.1; fill:none" points="250.028,735.636 2352.76,735.636 "/>
<polyline clip-path="url(#clip332)" style="stroke:#000000; stroke-linecap:round; stroke-linejoin:round; stroke-width:2; stroke-opacity:0.1; fill:none" points="250.028,448.214 2352.76,448.214 "/>
<polyline clip-path="url(#clip332)" style="stroke:#000000; stroke-linecap:round; stroke-linejoin:round; stroke-width:2; stroke-opacity:0.1; fill:none" points="250.028,160.793 2352.76,160.793 "/>
<polyline clip-path="url(#clip330)" style="stroke:#000000; stroke-linecap:round; stroke-linejoin:round; stroke-width:4; stroke-opacity:1; fill:none" points="250.028,1423.18 250.028,123.472 "/>
<polyline clip-path="url(#clip330)" style="stroke:#000000; stroke-linecap:round; stroke-linejoin:round; stroke-width:4; stroke-opacity:1; fill:none" points="250.028,1310.48 268.926,1310.48 "/>
<polyline clip-path="url(#clip330)" style="stroke:#000000; stroke-linecap:round; stroke-linejoin:round; stroke-width:4; stroke-opacity:1; fill:none" points="250.028,1023.06 268.926,1023.06 "/>
<polyline clip-path="url(#clip330)" style="stroke:#000000; stroke-linecap:round; stroke-linejoin:round; stroke-width:4; stroke-opacity:1; fill:none" points="250.028,735.636 268.926,735.636 "/>
<polyline clip-path="url(#clip330)" style="stroke:#000000; stroke-linecap:round; stroke-linejoin:round; stroke-width:4; stroke-opacity:1; fill:none" points="250.028,448.214 268.926,448.214 "/>
<polyline clip-path="url(#clip330)" style="stroke:#000000; stroke-linecap:round; stroke-linejoin:round; stroke-width:4; stroke-opacity:1; fill:none" points="250.028,160.793 268.926,160.793 "/>
<path clip-path="url(#clip330)" d="M126.691 1296.28 Q123.08 1296.28 121.251 1299.84 Q119.445 1303.38 119.445 1310.51 Q119.445 1317.62 121.251 1321.18 Q123.08 1324.73 126.691 1324.73 Q130.325 1324.73 132.13 1321.18 Q133.959 1317.62 133.959 1310.51 Q133.959 1303.38 132.13 1299.84 Q130.325 1296.28 126.691 1296.28 M126.691 1292.57 Q132.501 1292.57 135.556 1297.18 Q138.635 1301.76 138.635 1310.51 Q138.635 1319.24 135.556 1323.85 Q132.501 1328.43 126.691 1328.43 Q120.88 1328.43 117.802 1323.85 Q114.746 1319.24 114.746 1310.51 Q114.746 1301.76 117.802 1297.18 Q120.88 1292.57 126.691 1292.57 Z" fill="#000000" fill-rule="nonzero" fill-opacity="1" /><path clip-path="url(#clip330)" d="M146.853 1321.88 L151.737 1321.88 L151.737 1327.76 L146.853 1327.76 L146.853 1321.88 Z" fill="#000000" fill-rule="nonzero" fill-opacity="1" /><path clip-path="url(#clip330)" d="M165.95 1323.82 L182.269 1323.82 L182.269 1327.76 L160.325 1327.76 L160.325 1323.82 Q162.987 1321.07 167.57 1316.44 Q172.177 1311.79 173.357 1310.44 Q175.602 1307.92 176.482 1306.18 Q177.385 1304.43 177.385 1302.74 Q177.385 1299.98 175.44 1298.24 Q173.519 1296.51 170.417 1296.51 Q168.218 1296.51 165.765 1297.27 Q163.334 1298.04 160.556 1299.59 L160.556 1294.87 Q163.38 1293.73 165.834 1293.15 Q168.288 1292.57 170.325 1292.57 Q175.695 1292.57 178.889 1295.26 Q182.084 1297.94 182.084 1302.43 Q182.084 1304.56 181.274 1306.49 Q180.487 1308.38 178.38 1310.98 Q177.801 1311.65 174.7 1314.86 Q171.598 1318.06 165.95 1323.82 Z" fill="#000000" fill-rule="nonzero" fill-opacity="1" /><path clip-path="url(#clip330)" d="M202.084 1296.28 Q198.473 1296.28 196.644 1299.84 Q194.838 1303.38 194.838 1310.51 Q194.838 1317.62 196.644 1321.18 Q198.473 1324.73 202.084 1324.73 Q205.718 1324.73 207.524 1321.18 Q209.352 1317.62 209.352 1310.51 Q209.352 1303.38 207.524 1299.84 Q205.718 1296.28 202.084 1296.28 M202.084 1292.57 Q207.894 1292.57 210.949 1297.18 Q214.028 1301.76 214.028 1310.51 Q214.028 1319.24 210.949 1323.85 Q207.894 1328.43 202.084 1328.43 Q196.274 1328.43 193.195 1323.85 Q190.139 1319.24 190.139 1310.51 Q190.139 1301.76 193.195 1297.18 Q196.274 1292.57 202.084 1292.57 Z" fill="#000000" fill-rule="nonzero" fill-opacity="1" /><path clip-path="url(#clip330)" d="M128.288 1008.86 Q124.677 1008.86 122.848 1012.42 Q121.043 1015.96 121.043 1023.09 Q121.043 1030.2 122.848 1033.76 Q124.677 1037.3 128.288 1037.3 Q131.922 1037.3 133.728 1033.76 Q135.556 1030.2 135.556 1023.09 Q135.556 1015.96 133.728 1012.42 Q131.922 1008.86 128.288 1008.86 M128.288 1005.15 Q134.098 1005.15 137.154 1009.76 Q140.232 1014.34 140.232 1023.09 Q140.232 1031.82 137.154 1036.43 Q134.098 1041.01 128.288 1041.01 Q122.478 1041.01 119.399 1036.43 Q116.343 1031.82 116.343 1023.09 Q116.343 1014.34 119.399 1009.76 Q122.478 1005.15 128.288 1005.15 Z" fill="#000000" fill-rule="nonzero" fill-opacity="1" /><path clip-path="url(#clip330)" d="M148.45 1034.46 L153.334 1034.46 L153.334 1040.34 L148.45 1040.34 L148.45 1034.46 Z" fill="#000000" fill-rule="nonzero" fill-opacity="1" /><path clip-path="url(#clip330)" d="M167.547 1036.4 L183.866 1036.4 L183.866 1040.34 L161.922 1040.34 L161.922 1036.4 Q164.584 1033.65 169.167 1029.02 Q173.774 1024.36 174.954 1023.02 Q177.2 1020.5 178.079 1018.76 Q178.982 1017 178.982 1015.31 Q178.982 1012.56 177.038 1010.82 Q175.116 1009.09 172.014 1009.09 Q169.815 1009.09 167.362 1009.85 Q164.931 1010.61 162.153 1012.17 L162.153 1007.44 Q164.977 1006.31 167.431 1005.73 Q169.885 1005.15 171.922 1005.15 Q177.292 1005.15 180.487 1007.84 Q183.681 1010.52 183.681 1015.01 Q183.681 1017.14 182.871 1019.06 Q182.084 1020.96 179.977 1023.55 Q179.399 1024.23 176.297 1027.44 Q173.195 1030.64 167.547 1036.4 Z" fill="#000000" fill-rule="nonzero" fill-opacity="1" /><path clip-path="url(#clip330)" d="M197.709 1036.4 L214.028 1036.4 L214.028 1040.34 L192.084 1040.34 L192.084 1036.4 Q194.746 1033.65 199.329 1029.02 Q203.936 1024.36 205.116 1023.02 Q207.362 1020.5 208.241 1018.76 Q209.144 1017 209.144 1015.31 Q209.144 1012.56 207.199 1010.82 Q205.278 1009.09 202.176 1009.09 Q199.977 1009.09 197.524 1009.85 Q195.093 1010.61 192.315 1012.17 L192.315 1007.44 Q195.139 1006.31 197.593 1005.73 Q200.047 1005.15 202.084 1005.15 Q207.454 1005.15 210.649 1007.84 Q213.843 1010.52 213.843 1015.01 Q213.843 1017.14 213.033 1019.06 Q212.246 1020.96 210.139 1023.55 Q209.561 1024.23 206.459 1027.44 Q203.357 1030.64 197.709 1036.4 Z" fill="#000000" fill-rule="nonzero" fill-opacity="1" /><path clip-path="url(#clip330)" d="M126.205 721.434 Q122.593 721.434 120.765 724.999 Q118.959 728.541 118.959 735.67 Q118.959 742.777 120.765 746.342 Q122.593 749.883 126.205 749.883 Q129.839 749.883 131.644 746.342 Q133.473 742.777 133.473 735.67 Q133.473 728.541 131.644 724.999 Q129.839 721.434 126.205 721.434 M126.205 717.731 Q132.015 717.731 135.07 722.337 Q138.149 726.92 138.149 735.67 Q138.149 744.397 135.07 749.004 Q132.015 753.587 126.205 753.587 Q120.394 753.587 117.316 749.004 Q114.26 744.397 114.26 735.67 Q114.26 726.92 117.316 722.337 Q120.394 717.731 126.205 717.731 Z" fill="#000000" fill-rule="nonzero" fill-opacity="1" /><path clip-path="url(#clip330)" d="M146.366 747.036 L151.251 747.036 L151.251 752.916 L146.366 752.916 L146.366 747.036 Z" fill="#000000" fill-rule="nonzero" fill-opacity="1" /><path clip-path="url(#clip330)" d="M165.464 748.981 L181.783 748.981 L181.783 752.916 L159.839 752.916 L159.839 748.981 Q162.501 746.226 167.084 741.596 Q171.69 736.944 172.871 735.601 Q175.116 733.078 175.996 731.342 Q176.899 729.582 176.899 727.893 Q176.899 725.138 174.954 723.402 Q173.033 721.666 169.931 721.666 Q167.732 721.666 165.278 722.43 Q162.848 723.194 160.07 724.745 L160.07 720.022 Q162.894 718.888 165.348 718.309 Q167.802 717.731 169.839 717.731 Q175.209 717.731 178.403 720.416 Q181.598 723.101 181.598 727.592 Q181.598 729.721 180.788 731.643 Q180.001 733.541 177.894 736.133 Q177.315 736.805 174.214 740.022 Q171.112 743.217 165.464 748.981 Z" fill="#000000" fill-rule="nonzero" fill-opacity="1" /><path clip-path="url(#clip330)" d="M204.445 722.43 L192.639 740.879 L204.445 740.879 L204.445 722.43 M203.218 718.356 L209.098 718.356 L209.098 740.879 L214.028 740.879 L214.028 744.768 L209.098 744.768 L209.098 752.916 L204.445 752.916 L204.445 744.768 L188.843 744.768 L188.843 740.254 L203.218 718.356 Z" fill="#000000" fill-rule="nonzero" fill-opacity="1" /><path clip-path="url(#clip330)" d="M126.529 434.013 Q122.918 434.013 121.089 437.578 Q119.283 441.119 119.283 448.249 Q119.283 455.355 121.089 458.92 Q122.918 462.462 126.529 462.462 Q130.163 462.462 131.968 458.92 Q133.797 455.355 133.797 448.249 Q133.797 441.119 131.968 437.578 Q130.163 434.013 126.529 434.013 M126.529 430.309 Q132.339 430.309 135.394 434.916 Q138.473 439.499 138.473 448.249 Q138.473 456.976 135.394 461.582 Q132.339 466.166 126.529 466.166 Q120.718 466.166 117.64 461.582 Q114.584 456.976 114.584 448.249 Q114.584 439.499 117.64 434.916 Q120.718 430.309 126.529 430.309 Z" fill="#000000" fill-rule="nonzero" fill-opacity="1" /><path clip-path="url(#clip330)" d="M146.691 459.615 L151.575 459.615 L151.575 465.494 L146.691 465.494 L146.691 459.615 Z" fill="#000000" fill-rule="nonzero" fill-opacity="1" /><path clip-path="url(#clip330)" d="M165.788 461.559 L182.107 461.559 L182.107 465.494 L160.163 465.494 L160.163 461.559 Q162.825 458.805 167.408 454.175 Q172.014 449.522 173.195 448.18 Q175.44 445.656 176.32 443.92 Q177.223 442.161 177.223 440.471 Q177.223 437.717 175.278 435.981 Q173.357 434.244 170.255 434.244 Q168.056 434.244 165.602 435.008 Q163.172 435.772 160.394 437.323 L160.394 432.601 Q163.218 431.467 165.672 430.888 Q168.126 430.309 170.163 430.309 Q175.533 430.309 178.727 432.994 Q181.922 435.68 181.922 440.17 Q181.922 442.3 181.112 444.221 Q180.325 446.119 178.218 448.712 Q177.639 449.383 174.538 452.601 Q171.436 455.795 165.788 461.559 Z" fill="#000000" fill-rule="nonzero" fill-opacity="1" /><path clip-path="url(#clip330)" d="M202.5 446.351 Q199.352 446.351 197.5 448.504 Q195.672 450.656 195.672 454.406 Q195.672 458.133 197.5 460.309 Q199.352 462.462 202.5 462.462 Q205.649 462.462 207.477 460.309 Q209.329 458.133 209.329 454.406 Q209.329 450.656 207.477 448.504 Q205.649 446.351 202.5 446.351 M211.783 431.698 L211.783 435.957 Q210.024 435.124 208.218 434.684 Q206.436 434.244 204.676 434.244 Q200.047 434.244 197.593 437.369 Q195.163 440.494 194.815 446.814 Q196.181 444.8 198.241 443.735 Q200.301 442.647 202.778 442.647 Q207.987 442.647 210.996 445.818 Q214.028 448.967 214.028 454.406 Q214.028 459.73 210.88 462.948 Q207.732 466.166 202.5 466.166 Q196.505 466.166 193.334 461.582 Q190.163 456.976 190.163 448.249 Q190.163 440.055 194.051 435.194 Q197.94 430.309 204.491 430.309 Q206.25 430.309 208.033 430.657 Q209.838 431.004 211.783 431.698 Z" fill="#000000" fill-rule="nonzero" fill-opacity="1" /><path clip-path="url(#clip330)" d="M126.783 146.592 Q123.172 146.592 121.343 150.156 Q119.538 153.698 119.538 160.828 Q119.538 167.934 121.343 171.499 Q123.172 175.041 126.783 175.041 Q130.417 175.041 132.223 171.499 Q134.052 167.934 134.052 160.828 Q134.052 153.698 132.223 150.156 Q130.417 146.592 126.783 146.592 M126.783 142.888 Q132.593 142.888 135.649 147.494 Q138.728 152.078 138.728 160.828 Q138.728 169.554 135.649 174.161 Q132.593 178.744 126.783 178.744 Q120.973 178.744 117.894 174.161 Q114.839 169.554 114.839 160.828 Q114.839 152.078 117.894 147.494 Q120.973 142.888 126.783 142.888 Z" fill="#000000" fill-rule="nonzero" fill-opacity="1" /><path clip-path="url(#clip330)" d="M146.945 172.193 L151.829 172.193 L151.829 178.073 L146.945 178.073 L146.945 172.193 Z" fill="#000000" fill-rule="nonzero" fill-opacity="1" /><path clip-path="url(#clip330)" d="M166.042 174.138 L182.362 174.138 L182.362 178.073 L160.417 178.073 L160.417 174.138 Q163.079 171.383 167.663 166.754 Q172.269 162.101 173.45 160.758 Q175.695 158.235 176.575 156.499 Q177.477 154.74 177.477 153.05 Q177.477 150.295 175.533 148.559 Q173.612 146.823 170.51 146.823 Q168.311 146.823 165.857 147.587 Q163.427 148.351 160.649 149.902 L160.649 145.18 Q163.473 144.045 165.927 143.467 Q168.38 142.888 170.417 142.888 Q175.788 142.888 178.982 145.573 Q182.176 148.258 182.176 152.749 Q182.176 154.879 181.366 156.8 Q180.579 158.698 178.473 161.291 Q177.894 161.962 174.792 165.179 Q171.69 168.374 166.042 174.138 Z" fill="#000000" fill-rule="nonzero" fill-opacity="1" /><path clip-path="url(#clip330)" d="M202.176 161.661 Q198.843 161.661 196.922 163.443 Q195.024 165.226 195.024 168.351 Q195.024 171.476 196.922 173.258 Q198.843 175.041 202.176 175.041 Q205.51 175.041 207.431 173.258 Q209.352 171.453 209.352 168.351 Q209.352 165.226 207.431 163.443 Q205.533 161.661 202.176 161.661 M197.5 159.67 Q194.491 158.93 192.801 156.869 Q191.135 154.809 191.135 151.846 Q191.135 147.703 194.075 145.295 Q197.037 142.888 202.176 142.888 Q207.338 142.888 210.278 145.295 Q213.218 147.703 213.218 151.846 Q213.218 154.809 211.528 156.869 Q209.861 158.93 206.875 159.67 Q210.255 160.457 212.13 162.749 Q214.028 165.041 214.028 168.351 Q214.028 173.374 210.949 176.059 Q207.894 178.744 202.176 178.744 Q196.459 178.744 193.38 176.059 Q190.325 173.374 190.325 168.351 Q190.325 165.041 192.223 162.749 Q194.121 160.457 197.5 159.67 M195.787 152.286 Q195.787 154.971 197.454 156.476 Q199.144 157.98 202.176 157.98 Q205.186 157.98 206.875 156.476 Q208.588 154.971 208.588 152.286 Q208.588 149.601 206.875 148.096 Q205.186 146.592 202.176 146.592 Q199.144 146.592 197.454 148.096 Q195.787 149.601 195.787 152.286 Z" fill="#000000" fill-rule="nonzero" fill-opacity="1" /><path clip-path="url(#clip330)" d="M16.4842 837.445 L16.4842 827.864 L48.8219 815.738 L16.4842 803.547 L16.4842 793.967 L64.0042 793.967 L64.0042 800.237 L22.277 800.237 L54.8694 812.491 L54.8694 818.952 L22.277 831.206 L64.0042 831.206 L64.0042 837.445 L16.4842 837.445 Z" fill="#000000" fill-rule="nonzero" fill-opacity="1" /><path clip-path="url(#clip330)" d="M18.0438 752.717 L24.314 752.717 Q22.5634 756.377 21.704 759.624 Q20.8447 762.87 20.8447 765.894 Q20.8447 771.146 22.8817 774.01 Q24.9187 776.843 28.6745 776.843 Q31.8255 776.843 33.4488 774.965 Q35.0402 773.055 36.0269 767.772 L36.8226 763.889 Q38.1912 756.696 41.6605 753.29 Q45.098 749.852 50.8908 749.852 Q57.7976 749.852 61.3624 754.499 Q64.9272 759.115 64.9272 768.058 Q64.9272 771.432 64.1633 775.252 Q63.3994 779.039 61.9035 783.113 L55.2831 783.113 Q57.4793 779.198 58.5933 775.443 Q59.7073 771.687 59.7073 768.058 Q59.7073 762.552 57.543 759.56 Q55.3786 756.568 51.3682 756.568 Q47.8671 756.568 45.8937 758.733 Q43.9204 760.865 42.9337 765.767 L42.1698 769.682 Q40.7375 776.875 37.682 780.09 Q34.6264 783.304 29.1837 783.304 Q22.8817 783.304 19.2532 778.88 Q15.6248 774.424 15.6248 766.626 Q15.6248 763.284 16.2295 759.815 Q16.8343 756.345 18.0438 752.717 Z" fill="#000000" fill-rule="nonzero" fill-opacity="1" /><path clip-path="url(#clip330)" d="M16.4842 739.826 L16.4842 709.78 L21.895 709.78 L21.895 733.397 L35.9632 733.397 L35.9632 710.767 L41.3741 710.767 L41.3741 733.397 L58.5933 733.397 L58.5933 709.207 L64.0042 709.207 L64.0042 739.826 L16.4842 739.826 Z" fill="#000000" fill-rule="nonzero" fill-opacity="1" /><path clip-path="url(#clip330)" d="M609.396 12.096 L621.59 12.096 L637.023 53.2532 L652.538 12.096 L664.732 12.096 L664.732 72.576 L656.751 72.576 L656.751 19.4686 L641.155 60.9499 L632.932 60.9499 L617.336 19.4686 L617.336 72.576 L609.396 72.576 L609.396 12.096 Z" fill="#000000" fill-rule="nonzero" fill-opacity="1" /><path clip-path="url(#clip330)" d="M719.459 48.0275 L719.459 51.6733 L685.189 51.6733 Q685.675 59.3701 689.807 63.421 Q693.979 67.4314 701.392 67.4314 Q705.686 67.4314 709.697 66.3781 Q713.748 65.3249 717.717 63.2184 L717.717 70.267 Q713.707 71.9684 709.494 72.8596 Q705.281 73.7508 700.947 73.7508 Q690.09 73.7508 683.73 67.4314 Q677.411 61.1119 677.411 50.3365 Q677.411 39.1965 683.406 32.6746 Q689.442 26.1121 699.65 26.1121 Q708.805 26.1121 714.112 32.0264 Q719.459 37.9003 719.459 48.0275 M712.006 45.84 Q711.925 39.7232 708.562 36.0774 Q705.241 32.4315 699.731 32.4315 Q693.493 32.4315 689.726 35.9558 Q685.999 39.4801 685.432 45.8805 L712.006 45.84 Z" fill="#000000" fill-rule="nonzero" fill-opacity="1" /><path clip-path="url(#clip330)" d="M752.312 49.7694 Q743.279 49.7694 739.795 51.8354 Q736.311 53.9013 736.311 58.8839 Q736.311 62.8538 738.904 65.2034 Q741.537 67.5124 746.033 67.5124 Q752.231 67.5124 755.958 63.1374 Q759.725 58.7219 759.725 51.4303 L759.725 49.7694 L752.312 49.7694 M767.179 46.6907 L767.179 72.576 L759.725 72.576 L759.725 65.6895 Q757.173 69.8214 753.365 71.8063 Q749.558 73.7508 744.048 73.7508 Q737.081 73.7508 732.949 69.8619 Q728.857 65.9325 728.857 59.3701 Q728.857 51.7138 733.962 47.825 Q739.106 43.9361 749.274 43.9361 L759.725 43.9361 L759.725 43.2069 Q759.725 38.0623 756.323 35.2672 Q752.96 32.4315 746.843 32.4315 Q742.955 32.4315 739.268 33.3632 Q735.582 34.295 732.179 36.1584 L732.179 29.2718 Q736.271 27.692 740.119 26.9223 Q743.967 26.1121 747.613 26.1121 Q757.457 26.1121 762.318 31.2163 Q767.179 36.3204 767.179 46.6907 Z" fill="#000000" fill-rule="nonzero" fill-opacity="1" /><path clip-path="url(#clip330)" d="M820.246 45.1919 L820.246 72.576 L812.792 72.576 L812.792 45.4349 Q812.792 38.994 810.281 35.7938 Q807.769 32.5936 802.746 32.5936 Q796.71 32.5936 793.226 36.4419 Q789.743 40.2903 789.743 46.9338 L789.743 72.576 L782.248 72.576 L782.248 27.2059 L789.743 27.2059 L789.743 34.2544 Q792.416 30.163 796.021 28.1376 Q799.667 26.1121 804.407 26.1121 Q812.225 26.1121 816.235 30.9732 Q820.246 35.7938 820.246 45.1919 Z" fill="#000000" fill-rule="nonzero" fill-opacity="1" /><path clip-path="url(#clip330)" d="M898.064 14.0809 L898.064 22.0612 Q893.405 19.8332 889.273 18.7395 Q885.141 17.6457 881.293 17.6457 Q874.609 17.6457 870.963 20.2383 Q867.358 22.8309 867.358 27.611 Q867.358 31.6214 869.748 33.6873 Q872.178 35.7128 878.903 36.9686 L883.845 37.9813 Q893 39.7232 897.335 44.1387 Q901.71 48.5136 901.71 55.8863 Q901.71 64.6767 895.795 69.2137 Q889.921 73.7508 878.538 73.7508 Q874.244 73.7508 869.383 72.7785 Q864.563 71.8063 859.378 69.9024 L859.378 61.4765 Q864.36 64.2716 869.14 65.6895 Q873.92 67.1073 878.538 67.1073 Q885.546 67.1073 889.354 64.3527 Q893.162 61.598 893.162 56.4939 Q893.162 52.0379 890.408 49.5264 Q887.693 47.0148 881.455 45.759 L876.472 44.7868 Q867.317 42.9639 863.226 39.075 Q859.135 35.1862 859.135 28.2591 Q859.135 20.2383 864.765 15.6203 Q870.437 11.0023 880.361 11.0023 Q884.615 11.0023 889.03 11.7719 Q893.446 12.5416 898.064 14.0809 Z" fill="#000000" fill-rule="nonzero" fill-opacity="1" /><path clip-path="url(#clip330)" d="M918.602 49.9314 Q918.602 58.1548 921.964 62.8538 Q925.367 67.5124 931.281 67.5124 Q937.195 67.5124 940.598 62.8538 Q944.001 58.1548 944.001 49.9314 Q944.001 41.7081 940.598 37.0496 Q937.195 32.3505 931.281 32.3505 Q925.367 32.3505 921.964 37.0496 Q918.602 41.7081 918.602 49.9314 M944.001 65.7705 Q941.651 69.8214 938.046 71.8063 Q934.481 73.7508 929.458 73.7508 Q921.235 73.7508 916.05 67.1883 Q910.905 60.6258 910.905 49.9314 Q910.905 39.2371 916.05 32.6746 Q921.235 26.1121 929.458 26.1121 Q934.481 26.1121 938.046 28.0971 Q941.651 30.0415 944.001 34.0924 L944.001 27.2059 L951.455 27.2059 L951.455 89.8329 L944.001 89.8329 L944.001 65.7705 Z" fill="#000000" fill-rule="nonzero" fill-opacity="1" /><path clip-path="url(#clip330)" d="M966.038 54.671 L966.038 27.2059 L973.492 27.2059 L973.492 54.3874 Q973.492 60.8284 976.003 64.0691 Q978.515 67.2693 983.538 67.2693 Q989.574 67.2693 993.057 63.421 Q996.582 59.5726 996.582 52.9291 L996.582 27.2059 L1004.04 27.2059 L1004.04 72.576 L996.582 72.576 L996.582 65.6084 Q993.868 69.7404 990.262 71.7658 Q986.698 73.7508 981.958 73.7508 Q974.14 73.7508 970.089 68.8897 Q966.038 64.0286 966.038 54.671 M984.794 26.1121 L984.794 26.1121 Z" fill="#000000" fill-rule="nonzero" fill-opacity="1" /><path clip-path="url(#clip330)" d="M1040.01 49.7694 Q1030.97 49.7694 1027.49 51.8354 Q1024.01 53.9013 1024.01 58.8839 Q1024.01 62.8538 1026.6 65.2034 Q1029.23 67.5124 1033.73 67.5124 Q1039.93 67.5124 1043.65 63.1374 Q1047.42 58.7219 1047.42 51.4303 L1047.42 49.7694 L1040.01 49.7694 M1054.87 46.6907 L1054.87 72.576 L1047.42 72.576 L1047.42 65.6895 Q1044.87 69.8214 1041.06 71.8063 Q1037.25 73.7508 1031.74 73.7508 Q1024.78 73.7508 1020.64 69.8619 Q1016.55 65.9325 1016.55 59.3701 Q1016.55 51.7138 1021.66 47.825 Q1026.8 43.9361 1036.97 43.9361 L1047.42 43.9361 L1047.42 43.2069 Q1047.42 38.0623 1044.02 35.2672 Q1040.66 32.4315 1034.54 32.4315 Q1030.65 32.4315 1026.96 33.3632 Q1023.28 34.295 1019.87 36.1584 L1019.87 29.2718 Q1023.97 27.692 1027.81 26.9223 Q1031.66 26.1121 1035.31 26.1121 Q1045.15 26.1121 1050.01 31.2163 Q1054.87 36.3204 1054.87 46.6907 Z" fill="#000000" fill-rule="nonzero" fill-opacity="1" /><path clip-path="url(#clip330)" d="M1096.52 34.1734 Q1095.26 33.4443 1093.76 33.1202 Q1092.3 32.7556 1090.52 32.7556 Q1084.2 32.7556 1080.8 36.8875 Q1077.44 40.9789 1077.44 48.6757 L1077.44 72.576 L1069.94 72.576 L1069.94 27.2059 L1077.44 27.2059 L1077.44 34.2544 Q1079.79 30.1225 1083.55 28.1376 Q1087.32 26.1121 1092.71 26.1121 Q1093.48 26.1121 1094.41 26.2337 Q1095.34 26.3147 1096.48 26.5172 L1096.52 34.1734 Z" fill="#000000" fill-rule="nonzero" fill-opacity="1" /><path clip-path="url(#clip330)" d="M1141.32 48.0275 L1141.32 51.6733 L1107.05 51.6733 Q1107.54 59.3701 1111.67 63.421 Q1115.84 67.4314 1123.25 67.4314 Q1127.55 67.4314 1131.56 66.3781 Q1135.61 65.3249 1139.58 63.2184 L1139.58 70.267 Q1135.57 71.9684 1131.36 72.8596 Q1127.14 73.7508 1122.81 73.7508 Q1111.95 73.7508 1105.59 67.4314 Q1099.27 61.1119 1099.27 50.3365 Q1099.27 39.1965 1105.27 32.6746 Q1111.3 26.1121 1121.51 26.1121 Q1130.67 26.1121 1135.97 32.0264 Q1141.32 37.9003 1141.32 48.0275 M1133.87 45.84 Q1133.79 39.7232 1130.42 36.0774 Q1127.1 32.4315 1121.59 32.4315 Q1115.35 32.4315 1111.59 35.9558 Q1107.86 39.4801 1107.29 45.8805 L1133.87 45.84 Z" fill="#000000" fill-rule="nonzero" fill-opacity="1" /><path clip-path="url(#clip330)" d="M1183.41 34.0924 L1183.41 9.54393 L1190.86 9.54393 L1190.86 72.576 L1183.41 72.576 L1183.41 65.7705 Q1181.06 69.8214 1177.45 71.8063 Q1173.89 73.7508 1168.87 73.7508 Q1160.64 73.7508 1155.46 67.1883 Q1150.31 60.6258 1150.31 49.9314 Q1150.31 39.2371 1155.46 32.6746 Q1160.64 26.1121 1168.87 26.1121 Q1173.89 26.1121 1177.45 28.0971 Q1181.06 30.0415 1183.41 34.0924 M1158.01 49.9314 Q1158.01 58.1548 1161.37 62.8538 Q1164.78 67.5124 1170.69 67.5124 Q1176.6 67.5124 1180.01 62.8538 Q1183.41 58.1548 1183.41 49.9314 Q1183.41 41.7081 1180.01 37.0496 Q1176.6 32.3505 1170.69 32.3505 Q1164.78 32.3505 1161.37 37.0496 Q1158.01 41.7081 1158.01 49.9314 Z" fill="#000000" fill-rule="nonzero" fill-opacity="1" /><path clip-path="url(#clip330)" d="M1232.91 12.096 L1271.15 12.096 L1271.15 18.9825 L1241.09 18.9825 L1241.09 36.8875 L1269.9 36.8875 L1269.9 43.7741 L1241.09 43.7741 L1241.09 65.6895 L1271.88 65.6895 L1271.88 72.576 L1232.91 72.576 L1232.91 12.096 Z" fill="#000000" fill-rule="nonzero" fill-opacity="1" /><path clip-path="url(#clip330)" d="M1311.3 34.1734 Q1310.04 33.4443 1308.54 33.1202 Q1307.08 32.7556 1305.3 32.7556 Q1298.98 32.7556 1295.58 36.8875 Q1292.22 40.9789 1292.22 48.6757 L1292.22 72.576 L1284.72 72.576 L1284.72 27.2059 L1292.22 27.2059 L1292.22 34.2544 Q1294.57 30.1225 1298.33 28.1376 Q1302.1 26.1121 1307.49 26.1121 Q1308.26 26.1121 1309.19 26.2337 Q1310.12 26.3147 1311.26 26.5172 L1311.3 34.1734 Z" fill="#000000" fill-rule="nonzero" fill-opacity="1" /><path clip-path="url(#clip330)" d="M1343.95 34.1734 Q1342.69 33.4443 1341.19 33.1202 Q1339.73 32.7556 1337.95 32.7556 Q1331.63 32.7556 1328.23 36.8875 Q1324.87 40.9789 1324.87 48.6757 L1324.87 72.576 L1317.37 72.576 L1317.37 27.2059 L1324.87 27.2059 L1324.87 34.2544 Q1327.22 30.1225 1330.98 28.1376 Q1334.75 26.1121 1340.14 26.1121 Q1340.91 26.1121 1341.84 26.2337 Q1342.77 26.3147 1343.91 26.5172 L1343.95 34.1734 Z" fill="#000000" fill-rule="nonzero" fill-opacity="1" /><path clip-path="url(#clip330)" d="M1367.52 32.4315 Q1361.53 32.4315 1358.04 37.1306 Q1354.56 41.7891 1354.56 49.9314 Q1354.56 58.0738 1358 62.7728 Q1361.49 67.4314 1367.52 67.4314 Q1373.48 67.4314 1376.96 62.7323 Q1380.45 58.0333 1380.45 49.9314 Q1380.45 41.8701 1376.96 37.1711 Q1373.48 32.4315 1367.52 32.4315 M1367.52 26.1121 Q1377.25 26.1121 1382.79 32.4315 Q1388.34 38.7509 1388.34 49.9314 Q1388.34 61.0714 1382.79 67.4314 Q1377.25 73.7508 1367.52 73.7508 Q1357.76 73.7508 1352.21 67.4314 Q1346.7 61.0714 1346.7 49.9314 Q1346.7 38.7509 1352.21 32.4315 Q1357.76 26.1121 1367.52 26.1121 Z" fill="#000000" fill-rule="nonzero" fill-opacity="1" /><path clip-path="url(#clip330)" d="M1426.99 34.1734 Q1425.73 33.4443 1424.24 33.1202 Q1422.78 32.7556 1420.99 32.7556 Q1414.68 32.7556 1411.27 36.8875 Q1407.91 40.9789 1407.91 48.6757 L1407.91 72.576 L1400.42 72.576 L1400.42 27.2059 L1407.91 27.2059 L1407.91 34.2544 Q1410.26 30.1225 1414.03 28.1376 Q1417.79 26.1121 1423.18 26.1121 Q1423.95 26.1121 1424.88 26.2337 Q1425.82 26.3147 1426.95 26.5172 L1426.99 34.1734 Z" fill="#000000" fill-rule="nonzero" fill-opacity="1" /><path clip-path="url(#clip330)" d="M1479.08 9.62495 Q1473.66 18.942 1471.02 28.0566 Q1468.39 37.1711 1468.39 46.5287 Q1468.39 55.8863 1471.02 65.0818 Q1473.7 74.2369 1479.08 83.5134 L1472.6 83.5134 Q1466.53 73.9938 1463.49 64.7983 Q1460.49 55.6027 1460.49 46.5287 Q1460.49 37.4952 1463.49 28.3401 Q1466.49 19.1851 1472.6 9.62495 L1479.08 9.62495 Z" fill="#000000" fill-rule="nonzero" fill-opacity="1" /><path clip-path="url(#clip330)" d="M1493.55 27.2059 L1501 27.2059 L1501 72.576 L1493.55 72.576 L1493.55 27.2059 M1493.55 9.54393 L1501 9.54393 L1501 18.9825 L1493.55 18.9825 L1493.55 9.54393 Z" fill="#000000" fill-rule="nonzero" fill-opacity="1" /><path clip-path="url(#clip330)" d="M1523.97 14.324 L1523.97 27.2059 L1539.32 27.2059 L1539.32 32.9987 L1523.97 32.9987 L1523.97 57.6282 Q1523.97 63.1779 1525.47 64.7578 Q1527.01 66.3376 1531.67 66.3376 L1539.32 66.3376 L1539.32 72.576 L1531.67 72.576 Q1523.04 72.576 1519.76 69.3758 Q1516.47 66.1351 1516.47 57.6282 L1516.47 32.9987 L1511.01 32.9987 L1511.01 27.2059 L1516.47 27.2059 L1516.47 14.324 L1523.97 14.324 Z" fill="#000000" fill-rule="nonzero" fill-opacity="1" /><path clip-path="url(#clip330)" d="M1587.93 48.0275 L1587.93 51.6733 L1553.66 51.6733 Q1554.15 59.3701 1558.28 63.421 Q1562.45 67.4314 1569.87 67.4314 Q1574.16 67.4314 1578.17 66.3781 Q1582.22 65.3249 1586.19 63.2184 L1586.19 70.267 Q1582.18 71.9684 1577.97 72.8596 Q1573.75 73.7508 1569.42 73.7508 Q1558.56 73.7508 1552.2 67.4314 Q1545.88 61.1119 1545.88 50.3365 Q1545.88 39.1965 1551.88 32.6746 Q1557.92 26.1121 1568.12 26.1121 Q1577.28 26.1121 1582.59 32.0264 Q1587.93 37.9003 1587.93 48.0275 M1580.48 45.84 Q1580.4 39.7232 1577.04 36.0774 Q1573.71 32.4315 1568.2 32.4315 Q1561.97 32.4315 1558.2 35.9558 Q1554.47 39.4801 1553.91 45.8805 L1580.48 45.84 Z" fill="#000000" fill-rule="nonzero" fill-opacity="1" /><path clip-path="url(#clip330)" d="M1626.46 34.1734 Q1625.2 33.4443 1623.7 33.1202 Q1622.24 32.7556 1620.46 32.7556 Q1614.14 32.7556 1610.74 36.8875 Q1607.38 40.9789 1607.38 48.6757 L1607.38 72.576 L1599.88 72.576 L1599.88 27.2059 L1607.38 27.2059 L1607.38 34.2544 Q1609.73 30.1225 1613.49 28.1376 Q1617.26 26.1121 1622.65 26.1121 Q1623.42 26.1121 1624.35 26.2337 Q1625.28 26.3147 1626.42 26.5172 L1626.46 34.1734 Z" fill="#000000" fill-rule="nonzero" fill-opacity="1" /><path clip-path="url(#clip330)" d="M1654.89 49.7694 Q1645.86 49.7694 1642.38 51.8354 Q1638.89 53.9013 1638.89 58.8839 Q1638.89 62.8538 1641.49 65.2034 Q1644.12 67.5124 1648.62 67.5124 Q1654.81 67.5124 1658.54 63.1374 Q1662.31 58.7219 1662.31 51.4303 L1662.31 49.7694 L1654.89 49.7694 M1669.76 46.6907 L1669.76 72.576 L1662.31 72.576 L1662.31 65.6895 Q1659.76 69.8214 1655.95 71.8063 Q1652.14 73.7508 1646.63 73.7508 Q1639.66 73.7508 1635.53 69.8619 Q1631.44 65.9325 1631.44 59.3701 Q1631.44 51.7138 1636.54 47.825 Q1641.69 43.9361 1651.86 43.9361 L1662.31 43.9361 L1662.31 43.2069 Q1662.31 38.0623 1658.9 35.2672 Q1655.54 32.4315 1649.43 32.4315 Q1645.54 32.4315 1641.85 33.3632 Q1638.16 34.295 1634.76 36.1584 L1634.76 29.2718 Q1638.85 27.692 1642.7 26.9223 Q1646.55 26.1121 1650.2 26.1121 Q1660.04 26.1121 1664.9 31.2163 Q1669.76 36.3204 1669.76 46.6907 Z" fill="#000000" fill-rule="nonzero" fill-opacity="1" /><path clip-path="url(#clip330)" d="M1692.49 14.324 L1692.49 27.2059 L1707.84 27.2059 L1707.84 32.9987 L1692.49 32.9987 L1692.49 57.6282 Q1692.49 63.1779 1693.99 64.7578 Q1695.52 66.3376 1700.18 66.3376 L1707.84 66.3376 L1707.84 72.576 L1700.18 72.576 Q1691.55 72.576 1688.27 69.3758 Q1684.99 66.1351 1684.99 57.6282 L1684.99 32.9987 L1679.52 32.9987 L1679.52 27.2059 L1684.99 27.2059 L1684.99 14.324 L1692.49 14.324 Z" fill="#000000" fill-rule="nonzero" fill-opacity="1" /><path clip-path="url(#clip330)" d="M1717.64 27.2059 L1725.1 27.2059 L1725.1 72.576 L1717.64 72.576 L1717.64 27.2059 M1717.64 9.54393 L1725.1 9.54393 L1725.1 18.9825 L1717.64 18.9825 L1717.64 9.54393 Z" fill="#000000" fill-rule="nonzero" fill-opacity="1" /><path clip-path="url(#clip330)" d="M1758.27 32.4315 Q1752.28 32.4315 1748.79 37.1306 Q1745.31 41.7891 1745.31 49.9314 Q1745.31 58.0738 1748.75 62.7728 Q1752.24 67.4314 1758.27 67.4314 Q1764.23 67.4314 1767.71 62.7323 Q1771.2 58.0333 1771.2 49.9314 Q1771.2 41.8701 1767.71 37.1711 Q1764.23 32.4315 1758.27 32.4315 M1758.27 26.1121 Q1768 26.1121 1773.55 32.4315 Q1779.09 38.7509 1779.09 49.9314 Q1779.09 61.0714 1773.55 67.4314 Q1768 73.7508 1758.27 73.7508 Q1748.51 73.7508 1742.96 67.4314 Q1737.45 61.0714 1737.45 49.9314 Q1737.45 38.7509 1742.96 32.4315 Q1748.51 26.1121 1758.27 26.1121 Z" fill="#000000" fill-rule="nonzero" fill-opacity="1" /><path clip-path="url(#clip330)" d="M1829.16 45.1919 L1829.16 72.576 L1821.71 72.576 L1821.71 45.4349 Q1821.71 38.994 1819.2 35.7938 Q1816.69 32.5936 1811.66 32.5936 Q1805.63 32.5936 1802.14 36.4419 Q1798.66 40.2903 1798.66 46.9338 L1798.66 72.576 L1791.17 72.576 L1791.17 27.2059 L1798.66 27.2059 L1798.66 34.2544 Q1801.33 30.163 1804.94 28.1376 Q1808.59 26.1121 1813.33 26.1121 Q1821.14 26.1121 1825.15 30.9732 Q1829.16 35.7938 1829.16 45.1919 Z" fill="#000000" fill-rule="nonzero" fill-opacity="1" /><path clip-path="url(#clip330)" d="M1872.87 65.6895 L1886.24 65.6895 L1886.24 19.5497 L1871.7 22.4663 L1871.7 15.0127 L1886.16 12.096 L1894.34 12.096 L1894.34 65.6895 L1907.71 65.6895 L1907.71 72.576 L1872.87 72.576 L1872.87 65.6895 Z" fill="#000000" fill-rule="nonzero" fill-opacity="1" /><path clip-path="url(#clip330)" d="M1941.74 17.4837 Q1935.42 17.4837 1932.22 23.7221 Q1929.06 29.92 1929.06 42.3968 Q1929.06 54.833 1932.22 61.0714 Q1935.42 67.2693 1941.74 67.2693 Q1948.1 67.2693 1951.26 61.0714 Q1954.46 54.833 1954.46 42.3968 Q1954.46 29.92 1951.26 23.7221 Q1948.1 17.4837 1941.74 17.4837 M1941.74 11.0023 Q1951.91 11.0023 1957.25 19.0636 Q1962.64 27.0843 1962.64 42.3968 Q1962.64 57.6687 1957.25 65.73 Q1951.91 73.7508 1941.74 73.7508 Q1931.57 73.7508 1926.18 65.73 Q1920.84 57.6687 1920.84 42.3968 Q1920.84 27.0843 1926.18 19.0636 Q1931.57 11.0023 1941.74 11.0023 Z" fill="#000000" fill-rule="nonzero" fill-opacity="1" /><path clip-path="url(#clip330)" d="M1974.79 9.62495 L1981.28 9.62495 Q1987.35 19.1851 1990.35 28.3401 Q1993.39 37.4952 1993.39 46.5287 Q1993.39 55.6027 1990.35 64.7983 Q1987.35 73.9938 1981.28 83.5134 L1974.79 83.5134 Q1980.18 74.2369 1982.81 65.0818 Q1985.49 55.8863 1985.49 46.5287 Q1985.49 37.1711 1982.81 28.0566 Q1980.18 18.942 1974.79 9.62495 Z" fill="#000000" fill-rule="nonzero" fill-opacity="1" /><circle clip-path="url(#clip332)" cx="309.539" cy="211.994" r="3.6" fill="#009af9" fill-rule="evenodd" fill-opacity="1" stroke="#000000" stroke-opacity="1" stroke-width="3.2"/>
<circle clip-path="url(#clip332)" cx="970.774" cy="1386.4" r="3.6" fill="#009af9" fill-rule="evenodd" fill-opacity="1" stroke="#000000" stroke-opacity="1" stroke-width="3.2"/>
<circle clip-path="url(#clip332)" cx="1632.01" cy="160.256" r="3.6" fill="#009af9" fill-rule="evenodd" fill-opacity="1" stroke="#000000" stroke-opacity="1" stroke-width="3.2"/>
<circle clip-path="url(#clip332)" cx="2293.24" cy="1212.14" r="3.6" fill="#009af9" fill-rule="evenodd" fill-opacity="1" stroke="#000000" stroke-opacity="1" stroke-width="3.2"/>
<path clip-path="url(#clip330)" d="M1979.13 270.476 L2282.66 270.476 L2282.66 166.796 L1979.13 166.796  Z" fill="#ffffff" fill-rule="evenodd" fill-opacity="1"/>
<polyline clip-path="url(#clip330)" style="stroke:#000000; stroke-linecap:round; stroke-linejoin:round; stroke-width:4; stroke-opacity:1; fill:none" points="1979.13,270.476 2282.66,270.476 2282.66,166.796 1979.13,166.796 1979.13,270.476 "/>
<circle clip-path="url(#clip330)" cx="2072.58" cy="218.636" r="15.36" fill="#009af9" fill-rule="evenodd" fill-opacity="1" stroke="#000000" stroke-opacity="1" stroke-width="13.6533"/>
<path clip-path="url(#clip330)" d="M2166.04 201.356 L2173.01 201.356 L2181.82 224.874 L2190.69 201.356 L2197.66 201.356 L2197.66 235.916 L2193.1 235.916 L2193.1 205.569 L2184.19 229.272 L2179.49 229.272 L2170.57 205.569 L2170.57 235.916 L2166.04 235.916 L2166.04 201.356 Z" fill="#000000" fill-rule="nonzero" fill-opacity="1" /><path clip-path="url(#clip330)" d="M2227.66 202.49 L2227.66 207.05 Q2225 205.777 2222.63 205.152 Q2220.27 204.527 2218.07 204.527 Q2214.26 204.527 2212.17 206.008 Q2210.11 207.49 2210.11 210.221 Q2210.11 212.513 2211.48 213.694 Q2212.87 214.851 2216.71 215.569 L2219.53 216.147 Q2224.76 217.143 2227.24 219.666 Q2229.74 222.166 2229.74 226.379 Q2229.74 231.402 2226.36 233.994 Q2223.01 236.587 2216.5 236.587 Q2214.05 236.587 2211.27 236.031 Q2208.51 235.476 2205.55 234.388 L2205.55 229.573 Q2208.4 231.17 2211.13 231.981 Q2213.86 232.791 2216.5 232.791 Q2220.51 232.791 2222.68 231.217 Q2224.86 229.643 2224.86 226.726 Q2224.86 224.18 2223.28 222.744 Q2221.73 221.309 2218.17 220.592 L2215.32 220.036 Q2210.09 218.995 2207.75 216.772 Q2205.41 214.55 2205.41 210.592 Q2205.41 206.008 2208.63 203.37 Q2211.87 200.731 2217.54 200.731 Q2219.97 200.731 2222.5 201.171 Q2225.02 201.61 2227.66 202.49 Z" fill="#000000" fill-rule="nonzero" fill-opacity="1" /><path clip-path="url(#clip330)" d="M2237.03 201.356 L2258.88 201.356 L2258.88 205.291 L2241.71 205.291 L2241.71 215.522 L2258.17 215.522 L2258.17 219.457 L2241.71 219.457 L2241.71 231.981 L2259.3 231.981 L2259.3 235.916 L2237.03 235.916 L2237.03 201.356 Z" fill="#000000" fill-rule="nonzero" fill-opacity="1" /></svg>
