<?xml version="1.0" encoding="utf-8"?>
<svg xmlns="http://www.w3.org/2000/svg" xmlns:xlink="http://www.w3.org/1999/xlink" width="600" height="400" viewBox="0 0 2400 1600">
<defs>
  <clipPath id="clip670">
    <rect x="0" y="0" width="2400" height="1600"/>
  </clipPath>
</defs>
<path clip-path="url(#clip670)" d="M0 1600 L2400 1600 L2400 8.88178e-14 L0 8.88178e-14  Z" fill="#ffffff" fill-rule="evenodd" fill-opacity="1"/>
<defs>
  <clipPath id="clip671">
    <rect x="480" y="0" width="1681" height="1600"/>
  </clipPath>
</defs>
<path clip-path="url(#clip670)" d="M219.866 1423.18 L2352.76 1423.18 L2352.76 123.472 L219.866 123.472  Z" fill="#ffffff" fill-rule="evenodd" fill-opacity="1"/>
<defs>
  <clipPath id="clip672">
    <rect x="219" y="123" width="2134" height="1301"/>
  </clipPath>
</defs>
<polyline clip-path="url(#clip672)" style="stroke:#000000; stroke-linecap:round; stroke-linejoin:round; stroke-width:2; stroke-opacity:0.1; fill:none" points="280.231,1423.18 280.231,123.472 "/>
<polyline clip-path="url(#clip672)" style="stroke:#000000; stroke-linecap:round; stroke-linejoin:round; stroke-width:2; stroke-opacity:0.1; fill:none" points="950.951,1423.18 950.951,123.472 "/>
<polyline clip-path="url(#clip672)" style="stroke:#000000; stroke-linecap:round; stroke-linejoin:round; stroke-width:2; stroke-opacity:0.1; fill:none" points="1621.67,1423.18 1621.67,123.472 "/>
<polyline clip-path="url(#clip672)" style="stroke:#000000; stroke-linecap:round; stroke-linejoin:round; stroke-width:2; stroke-opacity:0.1; fill:none" points="2292.39,1423.18 2292.39,123.472 "/>
<polyline clip-path="url(#clip670)" style="stroke:#000000; stroke-linecap:round; stroke-linejoin:round; stroke-width:4; stroke-opacity:1; fill:none" points="219.866,1423.18 2352.76,1423.18 "/>
<polyline clip-path="url(#clip670)" style="stroke:#000000; stroke-linecap:round; stroke-linejoin:round; stroke-width:4; stroke-opacity:1; fill:none" points="280.231,1423.18 280.231,1404.28 "/>
<polyline clip-path="url(#clip670)" style="stroke:#000000; stroke-linecap:round; stroke-linejoin:round; stroke-width:4; stroke-opacity:1; fill:none" points="950.951,1423.18 950.951,1404.28 "/>
<polyline clip-path="url(#clip670)" style="stroke:#000000; stroke-linecap:round; stroke-linejoin:round; stroke-width:4; stroke-opacity:1; fill:none" points="1621.67,1423.18 1621.67,1404.28 "/>
<polyline clip-path="url(#clip670)" style="stroke:#000000; stroke-linecap:round; stroke-linejoin:round; stroke-width:4; stroke-opacity:1; fill:none" points="2292.39,1423.18 2292.39,1404.28 "/>
<path clip-path="url(#clip670)" d="M270.613 1481.64 L278.252 1481.64 L278.252 1455.28 L269.942 1456.95 L269.942 1452.69 L278.206 1451.02 L282.882 1451.02 L282.882 1481.64 L290.52 1481.64 L290.52 1485.58 L270.613 1485.58 L270.613 1481.64 Z" fill="#000000" fill-rule="nonzero" fill-opacity="1" /><path clip-path="url(#clip670)" d="M945.604 1481.64 L961.923 1481.64 L961.923 1485.58 L939.979 1485.58 L939.979 1481.64 Q942.641 1478.89 947.224 1474.26 Q951.831 1469.61 953.011 1468.27 Q955.257 1465.74 956.136 1464.01 Q957.039 1462.25 957.039 1460.56 Q957.039 1457.8 955.095 1456.07 Q953.173 1454.33 950.071 1454.33 Q947.872 1454.33 945.419 1455.09 Q942.988 1455.86 940.21 1457.41 L940.21 1452.69 Q943.034 1451.55 945.488 1450.97 Q947.942 1450.39 949.979 1450.39 Q955.349 1450.39 958.544 1453.08 Q961.738 1455.77 961.738 1460.26 Q961.738 1462.39 960.928 1464.31 Q960.141 1466.2 958.034 1468.8 Q957.456 1469.47 954.354 1472.69 Q951.252 1475.88 945.604 1481.64 Z" fill="#000000" fill-rule="nonzero" fill-opacity="1" /><path clip-path="url(#clip670)" d="M1625.92 1466.95 Q1629.28 1467.66 1631.15 1469.93 Q1633.05 1472.2 1633.05 1475.53 Q1633.05 1480.65 1629.53 1483.45 Q1626.01 1486.25 1619.53 1486.25 Q1617.35 1486.25 1615.04 1485.81 Q1612.75 1485.39 1610.29 1484.54 L1610.29 1480.02 Q1612.24 1481.16 1614.55 1481.74 Q1616.87 1482.32 1619.39 1482.32 Q1623.79 1482.32 1626.08 1480.58 Q1628.4 1478.84 1628.4 1475.53 Q1628.4 1472.48 1626.24 1470.77 Q1624.11 1469.03 1620.29 1469.03 L1616.27 1469.03 L1616.27 1465.19 L1620.48 1465.19 Q1623.93 1465.19 1625.76 1463.82 Q1627.59 1462.43 1627.59 1459.84 Q1627.59 1457.18 1625.69 1455.77 Q1623.81 1454.33 1620.29 1454.33 Q1618.37 1454.33 1616.17 1454.75 Q1613.97 1455.16 1611.34 1456.04 L1611.34 1451.88 Q1614 1451.14 1616.31 1450.77 Q1618.65 1450.39 1620.71 1450.39 Q1626.03 1450.39 1629.14 1452.83 Q1632.24 1455.23 1632.24 1459.35 Q1632.24 1462.22 1630.59 1464.21 Q1628.95 1466.18 1625.92 1466.95 Z" fill="#000000" fill-rule="nonzero" fill-opacity="1" /><path clip-path="url(#clip670)" d="M2295.4 1455.09 L2283.59 1473.54 L2295.4 1473.54 L2295.4 1455.09 M2294.17 1451.02 L2300.05 1451.02 L2300.05 1473.54 L2304.98 1473.54 L2304.98 1477.43 L2300.05 1477.43 L2300.05 1485.58 L2295.4 1485.58 L2295.4 1477.43 L2279.8 1477.43 L2279.8 1472.92 L2294.17 1451.02 Z" fill="#000000" fill-rule="nonzero" fill-opacity="1" /><path clip-path="url(#clip670)" d="M1221.87 1561.26 L1221.87 1548.5 L1211.37 1548.5 L1211.37 1543.22 L1228.24 1543.22 L1228.24 1563.62 Q1224.52 1566.26 1220.03 1567.63 Q1215.54 1568.97 1210.45 1568.97 Q1199.31 1568.97 1193.01 1562.47 Q1186.74 1555.95 1186.74 1544.33 Q1186.74 1532.68 1193.01 1526.19 Q1199.31 1519.66 1210.45 1519.66 Q1215.09 1519.66 1219.26 1520.81 Q1223.47 1521.96 1227 1524.18 L1227 1531.03 Q1223.43 1528 1219.42 1526.48 Q1215.41 1524.95 1210.99 1524.95 Q1202.27 1524.95 1197.88 1529.82 Q1193.51 1534.69 1193.51 1544.33 Q1193.51 1553.94 1197.88 1558.81 Q1202.27 1563.68 1210.99 1563.68 Q1214.39 1563.68 1217.07 1563.11 Q1219.74 1562.51 1221.87 1561.26 Z" fill="#000000" fill-rule="nonzero" fill-opacity="1" /><path clip-path="url(#clip670)" d="M1270.22 1548.76 L1270.22 1551.62 L1243.29 1551.62 Q1243.68 1557.67 1246.92 1560.85 Q1250.2 1564 1256.03 1564 Q1259.4 1564 1262.55 1563.17 Q1265.73 1562.35 1268.85 1560.69 L1268.85 1566.23 Q1265.7 1567.57 1262.39 1568.27 Q1259.08 1568.97 1255.68 1568.97 Q1247.15 1568.97 1242.15 1564 Q1237.18 1559.04 1237.18 1550.57 Q1237.18 1541.82 1241.89 1536.69 Q1246.64 1531.54 1254.66 1531.54 Q1261.85 1531.54 1266.02 1536.18 Q1270.22 1540.8 1270.22 1548.76 M1264.37 1547.04 Q1264.3 1542.23 1261.66 1539.37 Q1259.05 1536.5 1254.72 1536.5 Q1249.82 1536.5 1246.86 1539.27 Q1243.93 1542.04 1243.49 1547.07 L1264.37 1547.04 Z" fill="#000000" fill-rule="nonzero" fill-opacity="1" /><path clip-path="url(#clip670)" d="M1309.47 1546.53 L1309.47 1568.04 L1303.61 1568.04 L1303.61 1546.72 Q1303.61 1541.66 1301.64 1539.14 Q1299.66 1536.63 1295.72 1536.63 Q1290.97 1536.63 1288.24 1539.65 Q1285.5 1542.68 1285.5 1547.9 L1285.5 1568.04 L1279.61 1568.04 L1279.61 1532.4 L1285.5 1532.4 L1285.5 1537.93 Q1287.6 1534.72 1290.43 1533.13 Q1293.3 1531.54 1297.02 1531.54 Q1303.16 1531.54 1306.32 1535.36 Q1309.47 1539.14 1309.47 1546.53 Z" fill="#000000" fill-rule="nonzero" fill-opacity="1" /><path clip-path="url(#clip670)" d="M1351.64 1548.76 L1351.64 1551.62 L1324.71 1551.62 Q1325.09 1557.67 1328.34 1560.85 Q1331.62 1564 1337.44 1564 Q1340.82 1564 1343.97 1563.17 Q1347.15 1562.35 1350.27 1560.69 L1350.27 1566.23 Q1347.12 1567.57 1343.81 1568.27 Q1340.5 1568.97 1337.09 1568.97 Q1328.56 1568.97 1323.57 1564 Q1318.6 1559.04 1318.6 1550.57 Q1318.6 1541.82 1323.31 1536.69 Q1328.05 1531.54 1336.07 1531.54 Q1343.27 1531.54 1347.44 1536.18 Q1351.64 1540.8 1351.64 1548.76 M1345.78 1547.04 Q1345.72 1542.23 1343.08 1539.37 Q1340.47 1536.5 1336.14 1536.5 Q1331.24 1536.5 1328.28 1539.27 Q1325.35 1542.04 1324.9 1547.07 L1345.78 1547.04 Z" fill="#000000" fill-rule="nonzero" fill-opacity="1" /><path clip-path="url(#clip670)" d="M1383.98 1533.45 L1383.98 1538.98 Q1381.49 1537.71 1378.82 1537.07 Q1376.15 1536.44 1373.28 1536.44 Q1368.92 1536.44 1366.73 1537.77 Q1364.56 1539.11 1364.56 1541.79 Q1364.56 1543.82 1366.12 1545 Q1367.68 1546.15 1372.39 1547.2 L1374.4 1547.64 Q1380.63 1548.98 1383.24 1551.43 Q1385.89 1553.85 1385.89 1558.21 Q1385.89 1563.17 1381.94 1566.07 Q1378.03 1568.97 1371.15 1568.97 Q1368.29 1568.97 1365.17 1568.39 Q1362.08 1567.85 1358.64 1566.74 L1358.64 1560.69 Q1361.89 1562.38 1365.04 1563.24 Q1368.19 1564.07 1371.28 1564.07 Q1375.42 1564.07 1377.64 1562.66 Q1379.87 1561.23 1379.87 1558.65 Q1379.87 1556.27 1378.25 1554.99 Q1376.66 1553.72 1371.21 1552.54 L1369.18 1552.07 Q1363.73 1550.92 1361.32 1548.56 Q1358.9 1546.18 1358.9 1542.04 Q1358.9 1537.01 1362.46 1534.27 Q1366.03 1531.54 1372.58 1531.54 Q1375.83 1531.54 1378.69 1532.01 Q1381.56 1532.49 1383.98 1533.45 Z" fill="#000000" fill-rule="nonzero" fill-opacity="1" /><polyline clip-path="url(#clip672)" style="stroke:#000000; stroke-linecap:round; stroke-linejoin:round; stroke-width:2; stroke-opacity:0.1; fill:none" points="219.866,1233.02 2352.76,1233.02 "/>
<polyline clip-path="url(#clip672)" style="stroke:#000000; stroke-linecap:round; stroke-linejoin:round; stroke-width:2; stroke-opacity:0.1; fill:none" points="219.866,1030.54 2352.76,1030.54 "/>
<polyline clip-path="url(#clip672)" style="stroke:#000000; stroke-linecap:round; stroke-linejoin:round; stroke-width:2; stroke-opacity:0.1; fill:none" points="219.866,828.07 2352.76,828.07 "/>
<polyline clip-path="url(#clip672)" style="stroke:#000000; stroke-linecap:round; stroke-linejoin:round; stroke-width:2; stroke-opacity:0.1; fill:none" points="219.866,625.596 2352.76,625.596 "/>
<polyline clip-path="url(#clip672)" style="stroke:#000000; stroke-linecap:round; stroke-linejoin:round; stroke-width:2; stroke-opacity:0.1; fill:none" points="219.866,423.122 2352.76,423.122 "/>
<polyline clip-path="url(#clip672)" style="stroke:#000000; stroke-linecap:round; stroke-linejoin:round; stroke-width:2; stroke-opacity:0.1; fill:none" points="219.866,220.648 2352.76,220.648 "/>
<polyline clip-path="url(#clip670)" style="stroke:#000000; stroke-linecap:round; stroke-linejoin:round; stroke-width:4; stroke-opacity:1; fill:none" points="219.866,1423.18 219.866,123.472 "/>
<polyline clip-path="url(#clip670)" style="stroke:#000000; stroke-linecap:round; stroke-linejoin:round; stroke-width:4; stroke-opacity:1; fill:none" points="219.866,1233.02 238.764,1233.02 "/>
<polyline clip-path="url(#clip670)" style="stroke:#000000; stroke-linecap:round; stroke-linejoin:round; stroke-width:4; stroke-opacity:1; fill:none" points="219.866,1030.54 238.764,1030.54 "/>
<polyline clip-path="url(#clip670)" style="stroke:#000000; stroke-linecap:round; stroke-linejoin:round; stroke-width:4; stroke-opacity:1; fill:none" points="219.866,828.07 238.764,828.07 "/>
<polyline clip-path="url(#clip670)" style="stroke:#000000; stroke-linecap:round; stroke-linejoin:round; stroke-width:4; stroke-opacity:1; fill:none" points="219.866,625.596 238.764,625.596 "/>
<polyline clip-path="url(#clip670)" style="stroke:#000000; stroke-linecap:round; stroke-linejoin:round; stroke-width:4; stroke-opacity:1; fill:none" points="219.866,423.122 238.764,423.122 "/>
<polyline clip-path="url(#clip670)" style="stroke:#000000; stroke-linecap:round; stroke-linejoin:round; stroke-width:4; stroke-opacity:1; fill:none" points="219.866,220.648 238.764,220.648 "/>
<path clip-path="url(#clip670)" d="M127.339 1218.82 Q123.728 1218.82 121.899 1222.38 Q120.093 1225.92 120.093 1233.05 Q120.093 1240.16 121.899 1243.72 Q123.728 1247.27 127.339 1247.27 Q130.973 1247.27 132.779 1243.72 Q134.607 1240.16 134.607 1233.05 Q134.607 1225.92 132.779 1222.38 Q130.973 1218.82 127.339 1218.82 M127.339 1215.11 Q133.149 1215.11 136.204 1219.72 Q139.283 1224.3 139.283 1233.05 Q139.283 1241.78 136.204 1246.39 Q133.149 1250.97 127.339 1250.97 Q121.529 1250.97 118.45 1246.39 Q115.394 1241.78 115.394 1233.05 Q115.394 1224.3 118.45 1219.72 Q121.529 1215.11 127.339 1215.11 Z" fill="#000000" fill-rule="nonzero" fill-opacity="1" /><path clip-path="url(#clip670)" d="M147.501 1244.42 L152.385 1244.42 L152.385 1250.3 L147.501 1250.3 L147.501 1244.42 Z" fill="#000000" fill-rule="nonzero" fill-opacity="1" /><path clip-path="url(#clip670)" d="M176.737 1231.66 Q180.093 1232.38 181.968 1234.65 Q183.866 1236.92 183.866 1240.25 Q183.866 1245.37 180.348 1248.17 Q176.829 1250.97 170.348 1250.97 Q168.172 1250.97 165.857 1250.53 Q163.565 1250.11 161.112 1249.26 L161.112 1244.74 Q163.056 1245.88 165.371 1246.46 Q167.686 1247.04 170.209 1247.04 Q174.607 1247.04 176.899 1245.3 Q179.214 1243.56 179.214 1240.25 Q179.214 1237.2 177.061 1235.48 Q174.931 1233.75 171.112 1233.75 L167.084 1233.75 L167.084 1229.91 L171.297 1229.91 Q174.746 1229.91 176.575 1228.54 Q178.403 1227.15 178.403 1224.56 Q178.403 1221.9 176.505 1220.48 Q174.63 1219.05 171.112 1219.05 Q169.19 1219.05 166.991 1219.47 Q164.792 1219.88 162.153 1220.76 L162.153 1216.6 Q164.815 1215.85 167.13 1215.48 Q169.468 1215.11 171.528 1215.11 Q176.852 1215.11 179.954 1217.54 Q183.056 1219.95 183.056 1224.07 Q183.056 1226.94 181.413 1228.93 Q179.769 1230.9 176.737 1231.66 Z" fill="#000000" fill-rule="nonzero" fill-opacity="1" /><path clip-path="url(#clip670)" d="M126.205 1016.34 Q122.593 1016.34 120.765 1019.91 Q118.959 1023.45 118.959 1030.58 Q118.959 1037.69 120.765 1041.25 Q122.593 1044.79 126.205 1044.79 Q129.839 1044.79 131.644 1041.25 Q133.473 1037.69 133.473 1030.58 Q133.473 1023.45 131.644 1019.91 Q129.839 1016.34 126.205 1016.34 M126.205 1012.64 Q132.015 1012.64 135.07 1017.25 Q138.149 1021.83 138.149 1030.58 Q138.149 1039.31 135.07 1043.91 Q132.015 1048.5 126.205 1048.5 Q120.394 1048.5 117.316 1043.91 Q114.26 1039.31 114.26 1030.58 Q114.26 1021.83 117.316 1017.25 Q120.394 1012.64 126.205 1012.64 Z" fill="#000000" fill-rule="nonzero" fill-opacity="1" /><path clip-path="url(#clip670)" d="M146.366 1041.95 L151.251 1041.95 L151.251 1047.82 L146.366 1047.82 L146.366 1041.95 Z" fill="#000000" fill-rule="nonzero" fill-opacity="1" /><path clip-path="url(#clip670)" d="M174.283 1017.34 L162.477 1035.79 L174.283 1035.79 L174.283 1017.34 M173.056 1013.26 L178.936 1013.26 L178.936 1035.79 L183.866 1035.79 L183.866 1039.68 L178.936 1039.68 L178.936 1047.82 L174.283 1047.82 L174.283 1039.68 L158.681 1039.68 L158.681 1035.16 L173.056 1013.26 Z" fill="#000000" fill-rule="nonzero" fill-opacity="1" /><path clip-path="url(#clip670)" d="M127.686 813.869 Q124.075 813.869 122.246 817.434 Q120.441 820.976 120.441 828.105 Q120.441 835.212 122.246 838.776 Q124.075 842.318 127.686 842.318 Q131.32 842.318 133.126 838.776 Q134.954 835.212 134.954 828.105 Q134.954 820.976 133.126 817.434 Q131.32 813.869 127.686 813.869 M127.686 810.165 Q133.496 810.165 136.552 814.772 Q139.63 819.355 139.63 828.105 Q139.63 836.832 136.552 841.438 Q133.496 846.022 127.686 846.022 Q121.876 846.022 118.797 841.438 Q115.742 836.832 115.742 828.105 Q115.742 819.355 118.797 814.772 Q121.876 810.165 127.686 810.165 Z" fill="#000000" fill-rule="nonzero" fill-opacity="1" /><path clip-path="url(#clip670)" d="M147.848 839.471 L152.732 839.471 L152.732 845.35 L147.848 845.35 L147.848 839.471 Z" fill="#000000" fill-rule="nonzero" fill-opacity="1" /><path clip-path="url(#clip670)" d="M162.964 810.79 L181.32 810.79 L181.32 814.726 L167.246 814.726 L167.246 823.198 Q168.264 822.851 169.283 822.689 Q170.302 822.503 171.32 822.503 Q177.107 822.503 180.487 825.675 Q183.866 828.846 183.866 834.263 Q183.866 839.841 180.394 842.943 Q176.922 846.022 170.602 846.022 Q168.427 846.022 166.158 845.651 Q163.913 845.281 161.505 844.54 L161.505 839.841 Q163.589 840.975 165.811 841.531 Q168.033 842.087 170.51 842.087 Q174.514 842.087 176.852 839.98 Q179.19 837.874 179.19 834.263 Q179.19 830.651 176.852 828.545 Q174.514 826.438 170.51 826.438 Q168.635 826.438 166.76 826.855 Q164.908 827.272 162.964 828.151 L162.964 810.79 Z" fill="#000000" fill-rule="nonzero" fill-opacity="1" /><path clip-path="url(#clip670)" d="M126.529 611.395 Q122.918 611.395 121.089 614.96 Q119.283 618.501 119.283 625.631 Q119.283 632.737 121.089 636.302 Q122.918 639.844 126.529 639.844 Q130.163 639.844 131.968 636.302 Q133.797 632.737 133.797 625.631 Q133.797 618.501 131.968 614.96 Q130.163 611.395 126.529 611.395 M126.529 607.691 Q132.339 607.691 135.394 612.298 Q138.473 616.881 138.473 625.631 Q138.473 634.358 135.394 638.964 Q132.339 643.547 126.529 643.547 Q120.718 643.547 117.64 638.964 Q114.584 634.358 114.584 625.631 Q114.584 616.881 117.64 612.298 Q120.718 607.691 126.529 607.691 Z" fill="#000000" fill-rule="nonzero" fill-opacity="1" /><path clip-path="url(#clip670)" d="M146.691 636.997 L151.575 636.997 L151.575 642.876 L146.691 642.876 L146.691 636.997 Z" fill="#000000" fill-rule="nonzero" fill-opacity="1" /><path clip-path="url(#clip670)" d="M172.339 623.733 Q169.19 623.733 167.339 625.885 Q165.51 628.038 165.51 631.788 Q165.51 635.515 167.339 637.691 Q169.19 639.844 172.339 639.844 Q175.487 639.844 177.315 637.691 Q179.167 635.515 179.167 631.788 Q179.167 628.038 177.315 625.885 Q175.487 623.733 172.339 623.733 M181.621 609.08 L181.621 613.339 Q179.862 612.506 178.056 612.066 Q176.274 611.626 174.514 611.626 Q169.885 611.626 167.431 614.751 Q165.001 617.876 164.653 624.196 Q166.019 622.182 168.079 621.117 Q170.139 620.029 172.616 620.029 Q177.825 620.029 180.834 623.2 Q183.866 626.348 183.866 631.788 Q183.866 637.112 180.718 640.33 Q177.57 643.547 172.339 643.547 Q166.343 643.547 163.172 638.964 Q160.001 634.358 160.001 625.631 Q160.001 617.436 163.89 612.575 Q167.778 607.691 174.329 607.691 Q176.089 607.691 177.871 608.038 Q179.676 608.386 181.621 609.08 Z" fill="#000000" fill-rule="nonzero" fill-opacity="1" /><path clip-path="url(#clip670)" d="M127.593 408.921 Q123.982 408.921 122.154 412.485 Q120.348 416.027 120.348 423.157 Q120.348 430.263 122.154 433.828 Q123.982 437.369 127.593 437.369 Q131.228 437.369 133.033 433.828 Q134.862 430.263 134.862 423.157 Q134.862 416.027 133.033 412.485 Q131.228 408.921 127.593 408.921 M127.593 405.217 Q133.404 405.217 136.459 409.823 Q139.538 414.407 139.538 423.157 Q139.538 431.883 136.459 436.49 Q133.404 441.073 127.593 441.073 Q121.783 441.073 118.705 436.49 Q115.649 431.883 115.649 423.157 Q115.649 414.407 118.705 409.823 Q121.783 405.217 127.593 405.217 Z" fill="#000000" fill-rule="nonzero" fill-opacity="1" /><path clip-path="url(#clip670)" d="M147.755 434.522 L152.64 434.522 L152.64 440.402 L147.755 440.402 L147.755 434.522 Z" fill="#000000" fill-rule="nonzero" fill-opacity="1" /><path clip-path="url(#clip670)" d="M161.644 405.842 L183.866 405.842 L183.866 407.833 L171.32 440.402 L166.436 440.402 L178.241 409.777 L161.644 409.777 L161.644 405.842 Z" fill="#000000" fill-rule="nonzero" fill-opacity="1" /><path clip-path="url(#clip670)" d="M126.783 206.446 Q123.172 206.446 121.343 210.011 Q119.538 213.553 119.538 220.682 Q119.538 227.789 121.343 231.354 Q123.172 234.895 126.783 234.895 Q130.417 234.895 132.223 231.354 Q134.052 227.789 134.052 220.682 Q134.052 213.553 132.223 210.011 Q130.417 206.446 126.783 206.446 M126.783 202.743 Q132.593 202.743 135.649 207.349 Q138.728 211.932 138.728 220.682 Q138.728 229.409 135.649 234.016 Q132.593 238.599 126.783 238.599 Q120.973 238.599 117.894 234.016 Q114.839 229.409 114.839 220.682 Q114.839 211.932 117.894 207.349 Q120.973 202.743 126.783 202.743 Z" fill="#000000" fill-rule="nonzero" fill-opacity="1" /><path clip-path="url(#clip670)" d="M146.945 232.048 L151.829 232.048 L151.829 237.928 L146.945 237.928 L146.945 232.048 Z" fill="#000000" fill-rule="nonzero" fill-opacity="1" /><path clip-path="url(#clip670)" d="M172.014 221.516 Q168.681 221.516 166.76 223.298 Q164.862 225.08 164.862 228.205 Q164.862 231.33 166.76 233.113 Q168.681 234.895 172.014 234.895 Q175.348 234.895 177.269 233.113 Q179.19 231.307 179.19 228.205 Q179.19 225.08 177.269 223.298 Q175.371 221.516 172.014 221.516 M167.339 219.525 Q164.329 218.784 162.64 216.724 Q160.973 214.664 160.973 211.701 Q160.973 207.557 163.913 205.15 Q166.876 202.743 172.014 202.743 Q177.176 202.743 180.116 205.15 Q183.056 207.557 183.056 211.701 Q183.056 214.664 181.366 216.724 Q179.7 218.784 176.714 219.525 Q180.093 220.312 181.968 222.604 Q183.866 224.895 183.866 228.205 Q183.866 233.229 180.788 235.914 Q177.732 238.599 172.014 238.599 Q166.297 238.599 163.218 235.914 Q160.163 233.229 160.163 228.205 Q160.163 224.895 162.061 222.604 Q163.959 220.312 167.339 219.525 M165.626 212.141 Q165.626 214.826 167.292 216.33 Q168.982 217.835 172.014 217.835 Q175.024 217.835 176.714 216.33 Q178.426 214.826 178.426 212.141 Q178.426 209.456 176.714 207.951 Q175.024 206.446 172.014 206.446 Q168.982 206.446 167.292 207.951 Q165.626 209.456 165.626 212.141 Z" fill="#000000" fill-rule="nonzero" fill-opacity="1" /><path clip-path="url(#clip670)" d="M16.4842 837.445 L16.4842 827.864 L48.8219 815.738 L16.4842 803.547 L16.4842 793.967 L64.0042 793.967 L64.0042 800.237 L22.277 800.237 L54.8694 812.491 L54.8694 818.952 L22.277 831.206 L64.0042 831.206 L64.0042 837.445 L16.4842 837.445 Z" fill="#000000" fill-rule="nonzero" fill-opacity="1" /><path clip-path="url(#clip670)" d="M18.0438 752.717 L24.314 752.717 Q22.5634 756.377 21.704 759.624 Q20.8447 762.87 20.8447 765.894 Q20.8447 771.146 22.8817 774.01 Q24.9187 776.843 28.6745 776.843 Q31.8255 776.843 33.4488 774.965 Q35.0402 773.055 36.0269 767.772 L36.8226 763.889 Q38.1912 756.696 41.6605 753.29 Q45.098 749.852 50.8908 749.852 Q57.7976 749.852 61.3624 754.499 Q64.9272 759.115 64.9272 768.058 Q64.9272 771.432 64.1633 775.252 Q63.3994 779.039 61.9035 783.113 L55.2831 783.113 Q57.4793 779.198 58.5933 775.443 Q59.7073 771.687 59.7073 768.058 Q59.7073 762.552 57.543 759.56 Q55.3786 756.568 51.3682 756.568 Q47.8671 756.568 45.8937 758.733 Q43.9204 760.865 42.9337 765.767 L42.1698 769.682 Q40.7375 776.875 37.682 780.09 Q34.6264 783.304 29.1837 783.304 Q22.8817 783.304 19.2532 778.88 Q15.6248 774.424 15.6248 766.626 Q15.6248 763.284 16.2295 759.815 Q16.8343 756.345 18.0438 752.717 Z" fill="#000000" fill-rule="nonzero" fill-opacity="1" /><path clip-path="url(#clip670)" d="M16.4842 739.826 L16.4842 709.78 L21.895 709.78 L21.895 733.397 L35.9632 733.397 L35.9632 710.767 L41.3741 710.767 L41.3741 733.397 L58.5933 733.397 L58.5933 709.207 L64.0042 709.207 L64.0042 739.826 L16.4842 739.826 Z" fill="#000000" fill-rule="nonzero" fill-opacity="1" /><path clip-path="url(#clip670)" d="M877.514 12.096 L889.707 12.096 L905.141 53.2532 L920.656 12.096 L932.849 12.096 L932.849 72.576 L924.869 72.576 L924.869 19.4686 L909.273 60.9499 L901.05 60.9499 L885.454 19.4686 L885.454 72.576 L877.514 72.576 L877.514 12.096 Z" fill="#000000" fill-rule="nonzero" fill-opacity="1" /><path clip-path="url(#clip670)" d="M987.577 48.0275 L987.577 51.6733 L953.307 51.6733 Q953.793 59.3701 957.925 63.421 Q962.097 67.4314 969.51 67.4314 Q973.804 67.4314 977.814 66.3781 Q981.865 65.3249 985.835 63.2184 L985.835 70.267 Q981.825 71.9684 977.612 72.8596 Q973.399 73.7508 969.065 73.7508 Q958.208 73.7508 951.848 67.4314 Q945.529 61.1119 945.529 50.3365 Q945.529 39.1965 951.524 32.6746 Q957.56 26.1121 967.768 26.1121 Q976.923 26.1121 982.23 32.0264 Q987.577 37.9003 987.577 48.0275 M980.123 45.84 Q980.042 39.7232 976.68 36.0774 Q973.358 32.4315 967.849 32.4315 Q961.611 32.4315 957.844 35.9558 Q954.117 39.4801 953.55 45.8805 L980.123 45.84 Z" fill="#000000" fill-rule="nonzero" fill-opacity="1" /><path clip-path="url(#clip670)" d="M1020.43 49.7694 Q1011.4 49.7694 1007.91 51.8354 Q1004.43 53.9013 1004.43 58.8839 Q1004.43 62.8538 1007.02 65.2034 Q1009.65 67.5124 1014.15 67.5124 Q1020.35 67.5124 1024.08 63.1374 Q1027.84 58.7219 1027.84 51.4303 L1027.84 49.7694 L1020.43 49.7694 M1035.3 46.6907 L1035.3 72.576 L1027.84 72.576 L1027.84 65.6895 Q1025.29 69.8214 1021.48 71.8063 Q1017.68 73.7508 1012.17 73.7508 Q1005.2 73.7508 1001.07 69.8619 Q996.975 65.9325 996.975 59.3701 Q996.975 51.7138 1002.08 47.825 Q1007.22 43.9361 1017.39 43.9361 L1027.84 43.9361 L1027.84 43.2069 Q1027.84 38.0623 1024.44 35.2672 Q1021.08 32.4315 1014.96 32.4315 Q1011.07 32.4315 1007.39 33.3632 Q1003.7 34.295 1000.3 36.1584 L1000.3 29.2718 Q1004.39 27.692 1008.24 26.9223 Q1012.09 26.1121 1015.73 26.1121 Q1025.57 26.1121 1030.44 31.2163 Q1035.3 36.3204 1035.3 46.6907 Z" fill="#000000" fill-rule="nonzero" fill-opacity="1" /><path clip-path="url(#clip670)" d="M1088.36 45.1919 L1088.36 72.576 L1080.91 72.576 L1080.91 45.4349 Q1080.91 38.994 1078.4 35.7938 Q1075.89 32.5936 1070.86 32.5936 Q1064.83 32.5936 1061.34 36.4419 Q1057.86 40.2903 1057.86 46.9338 L1057.86 72.576 L1050.37 72.576 L1050.37 27.2059 L1057.86 27.2059 L1057.86 34.2544 Q1060.53 30.163 1064.14 28.1376 Q1067.79 26.1121 1072.52 26.1121 Q1080.34 26.1121 1084.35 30.9732 Q1088.36 35.7938 1088.36 45.1919 Z" fill="#000000" fill-rule="nonzero" fill-opacity="1" /><path clip-path="url(#clip670)" d="M1166.18 14.0809 L1166.18 22.0612 Q1161.52 19.8332 1157.39 18.7395 Q1153.26 17.6457 1149.41 17.6457 Q1142.73 17.6457 1139.08 20.2383 Q1135.48 22.8309 1135.48 27.611 Q1135.48 31.6214 1137.87 33.6873 Q1140.3 35.7128 1147.02 36.9686 L1151.96 37.9813 Q1161.12 39.7232 1165.45 44.1387 Q1169.83 48.5136 1169.83 55.8863 Q1169.83 64.6767 1163.91 69.2137 Q1158.04 73.7508 1146.66 73.7508 Q1142.36 73.7508 1137.5 72.7785 Q1132.68 71.8063 1127.5 69.9024 L1127.5 61.4765 Q1132.48 64.2716 1137.26 65.6895 Q1142.04 67.1073 1146.66 67.1073 Q1153.66 67.1073 1157.47 64.3527 Q1161.28 61.598 1161.28 56.4939 Q1161.28 52.0379 1158.53 49.5264 Q1155.81 47.0148 1149.57 45.759 L1144.59 44.7868 Q1135.44 42.9639 1131.34 39.075 Q1127.25 35.1862 1127.25 28.2591 Q1127.25 20.2383 1132.88 15.6203 Q1138.55 11.0023 1148.48 11.0023 Q1152.73 11.0023 1157.15 11.7719 Q1161.56 12.5416 1166.18 14.0809 Z" fill="#000000" fill-rule="nonzero" fill-opacity="1" /><path clip-path="url(#clip670)" d="M1186.72 49.9314 Q1186.72 58.1548 1190.08 62.8538 Q1193.48 67.5124 1199.4 67.5124 Q1205.31 67.5124 1208.72 62.8538 Q1212.12 58.1548 1212.12 49.9314 Q1212.12 41.7081 1208.72 37.0496 Q1205.31 32.3505 1199.4 32.3505 Q1193.48 32.3505 1190.08 37.0496 Q1186.72 41.7081 1186.72 49.9314 M1212.12 65.7705 Q1209.77 69.8214 1206.16 71.8063 Q1202.6 73.7508 1197.58 73.7508 Q1189.35 73.7508 1184.17 67.1883 Q1179.02 60.6258 1179.02 49.9314 Q1179.02 39.2371 1184.17 32.6746 Q1189.35 26.1121 1197.58 26.1121 Q1202.6 26.1121 1206.16 28.0971 Q1209.77 30.0415 1212.12 34.0924 L1212.12 27.2059 L1219.57 27.2059 L1219.57 89.8329 L1212.12 89.8329 L1212.12 65.7705 Z" fill="#000000" fill-rule="nonzero" fill-opacity="1" /><path clip-path="url(#clip670)" d="M1234.16 54.671 L1234.16 27.2059 L1241.61 27.2059 L1241.61 54.3874 Q1241.61 60.8284 1244.12 64.0691 Q1246.63 67.2693 1251.66 67.2693 Q1257.69 67.2693 1261.18 63.421 Q1264.7 59.5726 1264.7 52.9291 L1264.7 27.2059 L1272.15 27.2059 L1272.15 72.576 L1264.7 72.576 L1264.7 65.6084 Q1261.99 69.7404 1258.38 71.7658 Q1254.82 73.7508 1250.08 73.7508 Q1242.26 73.7508 1238.21 68.8897 Q1234.16 64.0286 1234.16 54.671 M1252.91 26.1121 L1252.91 26.1121 Z" fill="#000000" fill-rule="nonzero" fill-opacity="1" /><path clip-path="url(#clip670)" d="M1308.13 49.7694 Q1299.09 49.7694 1295.61 51.8354 Q1292.12 53.9013 1292.12 58.8839 Q1292.12 62.8538 1294.72 65.2034 Q1297.35 67.5124 1301.85 67.5124 Q1308.04 67.5124 1311.77 63.1374 Q1315.54 58.7219 1315.54 51.4303 L1315.54 49.7694 L1308.13 49.7694 M1322.99 46.6907 L1322.99 72.576 L1315.54 72.576 L1315.54 65.6895 Q1312.99 69.8214 1309.18 71.8063 Q1305.37 73.7508 1299.86 73.7508 Q1292.89 73.7508 1288.76 69.8619 Q1284.67 65.9325 1284.67 59.3701 Q1284.67 51.7138 1289.77 47.825 Q1294.92 43.9361 1305.09 43.9361 L1315.54 43.9361 L1315.54 43.2069 Q1315.54 38.0623 1312.14 35.2672 Q1308.77 32.4315 1302.66 32.4315 Q1298.77 32.4315 1295.08 33.3632 Q1291.39 34.295 1287.99 36.1584 L1287.99 29.2718 Q1292.08 27.692 1295.93 26.9223 Q1299.78 26.1121 1303.43 26.1121 Q1313.27 26.1121 1318.13 31.2163 Q1322.99 36.3204 1322.99 46.6907 Z" fill="#000000" fill-rule="nonzero" fill-opacity="1" /><path clip-path="url(#clip670)" d="M1364.64 34.1734 Q1363.38 33.4443 1361.88 33.1202 Q1360.42 32.7556 1358.64 32.7556 Q1352.32 32.7556 1348.92 36.8875 Q1345.56 40.9789 1345.56 48.6757 L1345.56 72.576 L1338.06 72.576 L1338.06 27.2059 L1345.56 27.2059 L1345.56 34.2544 Q1347.91 30.1225 1351.67 28.1376 Q1355.44 26.1121 1360.83 26.1121 Q1361.6 26.1121 1362.53 26.2337 Q1363.46 26.3147 1364.59 26.5172 L1364.64 34.1734 Z" fill="#000000" fill-rule="nonzero" fill-opacity="1" /><path clip-path="url(#clip670)" d="M1409.44 48.0275 L1409.44 51.6733 L1375.17 51.6733 Q1375.65 59.3701 1379.79 63.421 Q1383.96 67.4314 1391.37 67.4314 Q1395.67 67.4314 1399.68 66.3781 Q1403.73 65.3249 1407.7 63.2184 L1407.7 70.267 Q1403.69 71.9684 1399.47 72.8596 Q1395.26 73.7508 1390.93 73.7508 Q1380.07 73.7508 1373.71 67.4314 Q1367.39 61.1119 1367.39 50.3365 Q1367.39 39.1965 1373.39 32.6746 Q1379.42 26.1121 1389.63 26.1121 Q1398.78 26.1121 1404.09 32.0264 Q1409.44 37.9003 1409.44 48.0275 M1401.98 45.84 Q1401.9 39.7232 1398.54 36.0774 Q1395.22 32.4315 1389.71 32.4315 Q1383.47 32.4315 1379.7 35.9558 Q1375.98 39.4801 1375.41 45.8805 L1401.98 45.84 Z" fill="#000000" fill-rule="nonzero" fill-opacity="1" /><path clip-path="url(#clip670)" d="M1451.53 34.0924 L1451.53 9.54393 L1458.98 9.54393 L1458.98 72.576 L1451.53 72.576 L1451.53 65.7705 Q1449.18 69.8214 1445.57 71.8063 Q1442.01 73.7508 1436.98 73.7508 Q1428.76 73.7508 1423.58 67.1883 Q1418.43 60.6258 1418.43 49.9314 Q1418.43 39.2371 1423.58 32.6746 Q1428.76 26.1121 1436.98 26.1121 Q1442.01 26.1121 1445.57 28.0971 Q1449.18 30.0415 1451.53 34.0924 M1426.13 49.9314 Q1426.13 58.1548 1429.49 62.8538 Q1432.89 67.5124 1438.81 67.5124 Q1444.72 67.5124 1448.12 62.8538 Q1451.53 58.1548 1451.53 49.9314 Q1451.53 41.7081 1448.12 37.0496 Q1444.72 32.3505 1438.81 32.3505 Q1432.89 32.3505 1429.49 37.0496 Q1426.13 41.7081 1426.13 49.9314 Z" fill="#000000" fill-rule="nonzero" fill-opacity="1" /><path clip-path="url(#clip670)" d="M1501.03 12.096 L1539.27 12.096 L1539.27 18.9825 L1509.21 18.9825 L1509.21 36.8875 L1538.01 36.8875 L1538.01 43.7741 L1509.21 43.7741 L1509.21 65.6895 L1540 65.6895 L1540 72.576 L1501.03 72.576 L1501.03 12.096 Z" fill="#000000" fill-rule="nonzero" fill-opacity="1" /><path clip-path="url(#clip670)" d="M1579.41 34.1734 Q1578.16 33.4443 1576.66 33.1202 Q1575.2 32.7556 1573.42 32.7556 Q1567.1 32.7556 1563.7 36.8875 Q1560.33 40.9789 1560.33 48.6757 L1560.33 72.576 L1552.84 72.576 L1552.84 27.2059 L1560.33 27.2059 L1560.33 34.2544 Q1562.68 30.1225 1566.45 28.1376 Q1570.22 26.1121 1575.61 26.1121 Q1576.38 26.1121 1577.31 26.2337 Q1578.24 26.3147 1579.37 26.5172 L1579.41 34.1734 Z" fill="#000000" fill-rule="nonzero" fill-opacity="1" /><path clip-path="url(#clip670)" d="M1612.06 34.1734 Q1610.81 33.4443 1609.31 33.1202 Q1607.85 32.7556 1606.07 32.7556 Q1599.75 32.7556 1596.35 36.8875 Q1592.98 40.9789 1592.98 48.6757 L1592.98 72.576 L1585.49 72.576 L1585.49 27.2059 L1592.98 27.2059 L1592.98 34.2544 Q1595.33 30.1225 1599.1 28.1376 Q1602.87 26.1121 1608.26 26.1121 Q1609.03 26.1121 1609.96 26.2337 Q1610.89 26.3147 1612.02 26.5172 L1612.06 34.1734 Z" fill="#000000" fill-rule="nonzero" fill-opacity="1" /><path clip-path="url(#clip670)" d="M1635.64 32.4315 Q1629.65 32.4315 1626.16 37.1306 Q1622.68 41.7891 1622.68 49.9314 Q1622.68 58.0738 1626.12 62.7728 Q1629.6 67.4314 1635.64 67.4314 Q1641.6 67.4314 1645.08 62.7323 Q1648.56 58.0333 1648.56 49.9314 Q1648.56 41.8701 1645.08 37.1711 Q1641.6 32.4315 1635.64 32.4315 M1635.64 26.1121 Q1645.36 26.1121 1650.91 32.4315 Q1656.46 38.7509 1656.46 49.9314 Q1656.46 61.0714 1650.91 67.4314 Q1645.36 73.7508 1635.64 73.7508 Q1625.88 73.7508 1620.33 67.4314 Q1614.82 61.0714 1614.82 49.9314 Q1614.82 38.7509 1620.33 32.4315 Q1625.88 26.1121 1635.64 26.1121 Z" fill="#000000" fill-rule="nonzero" fill-opacity="1" /><path clip-path="url(#clip670)" d="M1695.11 34.1734 Q1693.85 33.4443 1692.35 33.1202 Q1690.9 32.7556 1689.11 32.7556 Q1682.79 32.7556 1679.39 36.8875 Q1676.03 40.9789 1676.03 48.6757 L1676.03 72.576 L1668.53 72.576 L1668.53 27.2059 L1676.03 27.2059 L1676.03 34.2544 Q1678.38 30.1225 1682.15 28.1376 Q1685.91 26.1121 1691.3 26.1121 Q1692.07 26.1121 1693 26.2337 Q1693.93 26.3147 1695.07 26.5172 L1695.11 34.1734 Z" fill="#000000" fill-rule="nonzero" fill-opacity="1" /><polyline clip-path="url(#clip672)" style="stroke:#009af9; stroke-linecap:round; stroke-linejoin:round; stroke-width:4; stroke-opacity:1; fill:none" points="280.231,240.902 950.951,355.251 1621.67,160.256 2292.39,239.348 "/>
<polyline clip-path="url(#clip672)" style="stroke:#e26f46; stroke-linecap:round; stroke-linejoin:round; stroke-width:4; stroke-opacity:1; fill:none" points="280.231,1164.56 950.951,1276.22 1621.67,1386.4 2292.39,1251.43 "/>
<polyline clip-path="url(#clip672)" style="stroke:#3da44d; stroke-linecap:round; stroke-linejoin:round; stroke-width:4; stroke-opacity:1; fill:none" points="280.231,1233.59 950.951,1236.21 1621.67,1324.35 2292.39,1322.75 "/>
<path clip-path="url(#clip670)" d="M290.963 1379.86 L618.464 1379.86 L618.464 1172.5 L290.963 1172.5  Z" fill="#ffffff" fill-rule="evenodd" fill-opacity="1"/>
<polyline clip-path="url(#clip670)" style="stroke:#000000; stroke-linecap:round; stroke-linejoin:round; stroke-width:4; stroke-opacity:1; fill:none" points="290.963,1379.86 618.464,1379.86 618.464,1172.5 290.963,1172.5 290.963,1379.86 "/>
<polyline clip-path="url(#clip670)" style="stroke:#009af9; stroke-linecap:round; stroke-linejoin:round; stroke-width:4; stroke-opacity:1; fill:none" points="314.661,1224.34 456.854,1224.34 "/>
<path clip-path="url(#clip670)" d="M487.96 1208.33 L487.96 1215.69 L496.733 1215.69 L496.733 1219 L487.96 1219 L487.96 1233.07 Q487.96 1236.25 488.817 1237.15 Q489.696 1238.05 492.358 1238.05 L496.733 1238.05 L496.733 1241.62 L492.358 1241.62 Q487.428 1241.62 485.553 1239.79 Q483.678 1237.94 483.678 1233.07 L483.678 1219 L480.553 1219 L480.553 1215.69 L483.678 1215.69 L483.678 1208.33 L487.96 1208.33 Z" fill="#000000" fill-rule="nonzero" fill-opacity="1" /><path clip-path="url(#clip670)" d="M502.891 1220.09 L532.566 1220.09 L532.566 1223.98 L502.891 1223.98 L502.891 1220.09 M502.891 1229.53 L532.566 1229.53 L532.566 1233.47 L502.891 1233.47 L502.891 1229.53 Z" fill="#000000" fill-rule="nonzero" fill-opacity="1" /><path clip-path="url(#clip670)" d="M543.469 1237.68 L551.108 1237.68 L551.108 1211.32 L542.798 1212.98 L542.798 1208.72 L551.062 1207.06 L555.738 1207.06 L555.738 1237.68 L563.376 1237.68 L563.376 1241.62 L543.469 1241.62 L543.469 1237.68 Z" fill="#000000" fill-rule="nonzero" fill-opacity="1" /><polyline clip-path="url(#clip670)" style="stroke:#e26f46; stroke-linecap:round; stroke-linejoin:round; stroke-width:4; stroke-opacity:1; fill:none" points="314.661,1276.18 456.854,1276.18 "/>
<path clip-path="url(#clip670)" d="M487.96 1260.17 L487.96 1267.53 L496.733 1267.53 L496.733 1270.84 L487.96 1270.84 L487.96 1284.91 Q487.96 1288.09 488.817 1288.99 Q489.696 1289.89 492.358 1289.89 L496.733 1289.89 L496.733 1293.46 L492.358 1293.46 Q487.428 1293.46 485.553 1291.63 Q483.678 1289.78 483.678 1284.91 L483.678 1270.84 L480.553 1270.84 L480.553 1267.53 L483.678 1267.53 L483.678 1260.17 L487.96 1260.17 Z" fill="#000000" fill-rule="nonzero" fill-opacity="1" /><path clip-path="url(#clip670)" d="M502.891 1271.93 L532.566 1271.93 L532.566 1275.82 L502.891 1275.82 L502.891 1271.93 M502.891 1281.37 L532.566 1281.37 L532.566 1285.31 L502.891 1285.31 L502.891 1281.37 Z" fill="#000000" fill-rule="nonzero" fill-opacity="1" /><path clip-path="url(#clip670)" d="M542.705 1258.9 L561.062 1258.9 L561.062 1262.83 L546.988 1262.83 L546.988 1271.3 Q548.006 1270.96 549.025 1270.79 Q550.043 1270.61 551.062 1270.61 Q556.849 1270.61 560.228 1273.78 Q563.608 1276.95 563.608 1282.37 Q563.608 1287.95 560.136 1291.05 Q556.663 1294.13 550.344 1294.13 Q548.168 1294.13 545.9 1293.76 Q543.654 1293.39 541.247 1292.65 L541.247 1287.95 Q543.33 1289.08 545.552 1289.64 Q547.775 1290.19 550.251 1290.19 Q554.256 1290.19 556.594 1288.09 Q558.932 1285.98 558.932 1282.37 Q558.932 1278.76 556.594 1276.65 Q554.256 1274.54 550.251 1274.54 Q548.376 1274.54 546.501 1274.96 Q544.65 1275.38 542.705 1276.26 L542.705 1258.9 Z" fill="#000000" fill-rule="nonzero" fill-opacity="1" /><polyline clip-path="url(#clip670)" style="stroke:#3da44d; stroke-linecap:round; stroke-linejoin:round; stroke-width:4; stroke-opacity:1; fill:none" points="314.661,1328.02 456.854,1328.02 "/>
<path clip-path="url(#clip670)" d="M487.96 1312.01 L487.96 1319.37 L496.733 1319.37 L496.733 1322.68 L487.96 1322.68 L487.96 1336.75 Q487.96 1339.93 488.817 1340.83 Q489.696 1341.73 492.358 1341.73 L496.733 1341.73 L496.733 1345.3 L492.358 1345.3 Q487.428 1345.3 485.553 1343.47 Q483.678 1341.62 483.678 1336.75 L483.678 1322.68 L480.553 1322.68 L480.553 1319.37 L483.678 1319.37 L483.678 1312.01 L487.96 1312.01 Z" fill="#000000" fill-rule="nonzero" fill-opacity="1" /><path clip-path="url(#clip670)" d="M502.891 1323.77 L532.566 1323.77 L532.566 1327.66 L502.891 1327.66 L502.891 1323.77 M502.891 1333.21 L532.566 1333.21 L532.566 1337.15 L502.891 1337.15 L502.891 1333.21 Z" fill="#000000" fill-rule="nonzero" fill-opacity="1" /><path clip-path="url(#clip670)" d="M543.469 1341.36 L551.108 1341.36 L551.108 1315 L542.798 1316.66 L542.798 1312.4 L551.062 1310.74 L555.738 1310.74 L555.738 1341.36 L563.376 1341.36 L563.376 1345.3 L543.469 1345.3 L543.469 1341.36 Z" fill="#000000" fill-rule="nonzero" fill-opacity="1" /><path clip-path="url(#clip670)" d="M582.821 1313.81 Q579.21 1313.81 577.381 1317.38 Q575.575 1320.92 575.575 1328.05 Q575.575 1335.16 577.381 1338.72 Q579.21 1342.26 582.821 1342.26 Q586.455 1342.26 588.261 1338.72 Q590.089 1335.16 590.089 1328.05 Q590.089 1320.92 588.261 1317.38 Q586.455 1313.81 582.821 1313.81 M582.821 1310.11 Q588.631 1310.11 591.686 1314.72 Q594.765 1319.3 594.765 1328.05 Q594.765 1336.78 591.686 1341.38 Q588.631 1345.97 582.821 1345.97 Q577.011 1345.97 573.932 1341.38 Q570.876 1336.78 570.876 1328.05 Q570.876 1319.3 573.932 1314.72 Q577.011 1310.11 582.821 1310.11 Z" fill="#000000" fill-rule="nonzero" fill-opacity="1" /></svg>
