<svg xmlns="http://www.w3.org/2000/svg" xmlns:xlink="http://www.w3.org/1999/xlink" width="600" height="400" viewBox="0 0 2400 1600">
<defs>
  <clipPath id="clip420">
    <rect x="0" y="0" width="2400" height="1600"></rect>
  </clipPath>
</defs>
<path clip-path="url(#clip420)" d="M0 1600 L2400 1600 L2400 8.88178e-14 L0 8.88178e-14  Z" fill="#ffffff" fill-rule="evenodd" fill-opacity="1"></path>
<defs>
  <clipPath id="clip421">
    <rect x="480" y="0" width="1681" height="1600"></rect>
  </clipPath>
</defs>
<path clip-path="url(#clip420)" d="M199.283 1486.45 L2352.76 1486.45 L2352.76 47.2441 L199.283 47.2441  Z" fill="#ffffff" fill-rule="evenodd" fill-opacity="1"></path>
<defs>
  <clipPath id="clip422">
    <rect x="199" y="47" width="2154" height="1440"></rect>
  </clipPath>
</defs>
<polyline clip-path="url(#clip422)" style="stroke:#000000; stroke-linecap:round; stroke-linejoin:round; stroke-width:2; stroke-opacity:0.1; fill:none" points="258.197,1486.45 258.197,47.2441 "></polyline>
<polyline clip-path="url(#clip422)" style="stroke:#000000; stroke-linecap:round; stroke-linejoin:round; stroke-width:2; stroke-opacity:0.1; fill:none" points="766.6,1486.45 766.6,47.2441 "></polyline>
<polyline clip-path="url(#clip422)" style="stroke:#000000; stroke-linecap:round; stroke-linejoin:round; stroke-width:2; stroke-opacity:0.1; fill:none" points="1275,1486.45 1275,47.2441 "></polyline>
<polyline clip-path="url(#clip422)" style="stroke:#000000; stroke-linecap:round; stroke-linejoin:round; stroke-width:2; stroke-opacity:0.1; fill:none" points="1783.41,1486.45 1783.41,47.2441 "></polyline>
<polyline clip-path="url(#clip422)" style="stroke:#000000; stroke-linecap:round; stroke-linejoin:round; stroke-width:2; stroke-opacity:0.1; fill:none" points="2291.81,1486.45 2291.81,47.2441 "></polyline>
<polyline clip-path="url(#clip420)" style="stroke:#000000; stroke-linecap:round; stroke-linejoin:round; stroke-width:4; stroke-opacity:1; fill:none" points="199.283,1486.45 2352.76,1486.45 "></polyline>
<polyline clip-path="url(#clip420)" style="stroke:#000000; stroke-linecap:round; stroke-linejoin:round; stroke-width:4; stroke-opacity:1; fill:none" points="258.197,1486.45 258.197,1467.55 "></polyline>
<polyline clip-path="url(#clip420)" style="stroke:#000000; stroke-linecap:round; stroke-linejoin:round; stroke-width:4; stroke-opacity:1; fill:none" points="766.6,1486.45 766.6,1467.55 "></polyline>
<polyline clip-path="url(#clip420)" style="stroke:#000000; stroke-linecap:round; stroke-linejoin:round; stroke-width:4; stroke-opacity:1; fill:none" points="1275,1486.45 1275,1467.55 "></polyline>
<polyline clip-path="url(#clip420)" style="stroke:#000000; stroke-linecap:round; stroke-linejoin:round; stroke-width:4; stroke-opacity:1; fill:none" points="1783.41,1486.45 1783.41,1467.55 "></polyline>
<polyline clip-path="url(#clip420)" style="stroke:#000000; stroke-linecap:round; stroke-linejoin:round; stroke-width:4; stroke-opacity:1; fill:none" points="2291.81,1486.45 2291.81,1467.55 "></polyline>
<path clip-path="url(#clip420)" d="M258.197 1517.37 Q254.586 1517.37 252.757 1520.93 Q250.952 1524.47 250.952 1531.6 Q250.952 1538.71 252.757 1542.27 Q254.586 1545.82 258.197 1545.82 Q261.831 1545.82 263.637 1542.27 Q265.465 1538.71 265.465 1531.6 Q265.465 1524.47 263.637 1520.93 Q261.831 1517.37 258.197 1517.37 M258.197 1513.66 Q264.007 1513.66 267.063 1518.27 Q270.141 1522.85 270.141 1531.6 Q270.141 1540.33 267.063 1544.94 Q264.007 1549.52 258.197 1549.52 Q252.387 1549.52 249.308 1544.94 Q246.253 1540.33 246.253 1531.6 Q246.253 1522.85 249.308 1518.27 Q252.387 1513.66 258.197 1513.66 Z" fill="#000000" fill-rule="nonzero" fill-opacity="1"></path><path clip-path="url(#clip420)" d="M730.292 1544.91 L746.612 1544.91 L746.612 1548.85 L724.667 1548.85 L724.667 1544.91 Q727.329 1542.16 731.913 1537.53 Q736.519 1532.88 737.7 1531.53 Q739.945 1529.01 740.825 1527.27 Q741.727 1525.51 741.727 1523.82 Q741.727 1521.07 739.783 1519.33 Q737.862 1517.6 734.76 1517.6 Q732.561 1517.6 730.107 1518.36 Q727.676 1519.13 724.899 1520.68 L724.899 1515.95 Q727.723 1514.82 730.176 1514.24 Q732.63 1513.66 734.667 1513.66 Q740.037 1513.66 743.232 1516.35 Q746.426 1519.03 746.426 1523.52 Q746.426 1525.65 745.616 1527.57 Q744.829 1529.47 742.723 1532.07 Q742.144 1532.74 739.042 1535.95 Q735.94 1539.15 730.292 1544.91 Z" fill="#000000" fill-rule="nonzero" fill-opacity="1"></path><path clip-path="url(#clip420)" d="M756.473 1514.29 L774.829 1514.29 L774.829 1518.22 L760.755 1518.22 L760.755 1526.7 Q761.773 1526.35 762.792 1526.19 Q763.81 1526 764.829 1526 Q770.616 1526 773.996 1529.17 Q777.375 1532.34 777.375 1537.76 Q777.375 1543.34 773.903 1546.44 Q770.431 1549.52 764.111 1549.52 Q761.936 1549.52 759.667 1549.15 Q757.422 1548.78 755.014 1548.04 L755.014 1543.34 Q757.098 1544.47 759.32 1545.03 Q761.542 1545.58 764.019 1545.58 Q768.023 1545.58 770.361 1543.48 Q772.699 1541.37 772.699 1537.76 Q772.699 1534.15 770.361 1532.04 Q768.023 1529.94 764.019 1529.94 Q762.144 1529.94 760.269 1530.35 Q758.417 1530.77 756.473 1531.65 L756.473 1514.29 Z" fill="#000000" fill-rule="nonzero" fill-opacity="1"></path><path clip-path="url(#clip420)" d="M796.588 1517.37 Q792.977 1517.37 791.148 1520.93 Q789.343 1524.47 789.343 1531.6 Q789.343 1538.71 791.148 1542.27 Q792.977 1545.82 796.588 1545.82 Q800.222 1545.82 802.028 1542.27 Q803.857 1538.71 803.857 1531.6 Q803.857 1524.47 802.028 1520.93 Q800.222 1517.37 796.588 1517.37 M796.588 1513.66 Q802.398 1513.66 805.454 1518.27 Q808.532 1522.85 808.532 1531.6 Q808.532 1540.33 805.454 1544.94 Q802.398 1549.52 796.588 1549.52 Q790.778 1549.52 787.699 1544.94 Q784.644 1540.33 784.644 1531.6 Q784.644 1522.85 787.699 1518.27 Q790.778 1513.66 796.588 1513.66 Z" fill="#000000" fill-rule="nonzero" fill-opacity="1"></path><path clip-path="url(#clip420)" d="M1234.62 1514.29 L1252.98 1514.29 L1252.98 1518.22 L1238.9 1518.22 L1238.9 1526.7 Q1239.92 1526.35 1240.94 1526.19 Q1241.96 1526 1242.98 1526 Q1248.76 1526 1252.14 1529.17 Q1255.52 1532.34 1255.52 1537.76 Q1255.52 1543.34 1252.05 1546.44 Q1248.58 1549.52 1242.26 1549.52 Q1240.08 1549.52 1237.82 1549.15 Q1235.57 1548.78 1233.16 1548.04 L1233.16 1543.34 Q1235.25 1544.47 1237.47 1545.03 Q1239.69 1545.58 1242.17 1545.58 Q1246.17 1545.58 1248.51 1543.48 Q1250.85 1541.37 1250.85 1537.76 Q1250.85 1534.15 1248.51 1532.04 Q1246.17 1529.94 1242.17 1529.94 Q1240.29 1529.94 1238.42 1530.35 Q1236.57 1530.77 1234.62 1531.65 L1234.62 1514.29 Z" fill="#000000" fill-rule="nonzero" fill-opacity="1"></path><path clip-path="url(#clip420)" d="M1274.74 1517.37 Q1271.13 1517.37 1269.3 1520.93 Q1267.49 1524.47 1267.49 1531.6 Q1267.49 1538.71 1269.3 1542.27 Q1271.13 1545.82 1274.74 1545.82 Q1278.37 1545.82 1280.18 1542.27 Q1282.01 1538.71 1282.01 1531.6 Q1282.01 1524.47 1280.18 1520.93 Q1278.37 1517.37 1274.74 1517.37 M1274.74 1513.66 Q1280.55 1513.66 1283.6 1518.27 Q1286.68 1522.85 1286.68 1531.6 Q1286.68 1540.33 1283.6 1544.94 Q1280.55 1549.52 1274.74 1549.52 Q1268.93 1549.52 1265.85 1544.94 Q1262.79 1540.33 1262.79 1531.6 Q1262.79 1522.85 1265.85 1518.27 Q1268.93 1513.66 1274.74 1513.66 Z" fill="#000000" fill-rule="nonzero" fill-opacity="1"></path><path clip-path="url(#clip420)" d="M1304.9 1517.37 Q1301.29 1517.37 1299.46 1520.93 Q1297.65 1524.47 1297.65 1531.6 Q1297.65 1538.71 1299.46 1542.27 Q1301.29 1545.82 1304.9 1545.82 Q1308.53 1545.82 1310.34 1542.27 Q1312.17 1538.71 1312.17 1531.6 Q1312.17 1524.47 1310.34 1520.93 Q1308.53 1517.37 1304.9 1517.37 M1304.9 1513.66 Q1310.71 1513.66 1313.76 1518.27 Q1316.84 1522.85 1316.84 1531.6 Q1316.84 1540.33 1313.76 1544.94 Q1310.71 1549.52 1304.9 1549.52 Q1299.09 1549.52 1296.01 1544.94 Q1292.95 1540.33 1292.95 1531.6 Q1292.95 1522.85 1296.01 1518.27 Q1299.09 1513.66 1304.9 1513.66 Z" fill="#000000" fill-rule="nonzero" fill-opacity="1"></path><path clip-path="url(#clip420)" d="M1741.68 1514.29 L1763.9 1514.29 L1763.9 1516.28 L1751.36 1548.85 L1746.47 1548.85 L1758.28 1518.22 L1741.68 1518.22 L1741.68 1514.29 Z" fill="#000000" fill-rule="nonzero" fill-opacity="1"></path><path clip-path="url(#clip420)" d="M1773.07 1514.29 L1791.43 1514.29 L1791.43 1518.22 L1777.35 1518.22 L1777.35 1526.7 Q1778.37 1526.35 1779.39 1526.19 Q1780.41 1526 1781.43 1526 Q1787.21 1526 1790.59 1529.17 Q1793.97 1532.34 1793.97 1537.76 Q1793.97 1543.34 1790.5 1546.44 Q1787.03 1549.52 1780.71 1549.52 Q1778.53 1549.52 1776.26 1549.15 Q1774.02 1548.78 1771.61 1548.04 L1771.61 1543.34 Q1773.7 1544.47 1775.92 1545.03 Q1778.14 1545.58 1780.62 1545.58 Q1784.62 1545.58 1786.96 1543.48 Q1789.3 1541.37 1789.3 1537.76 Q1789.3 1534.15 1786.96 1532.04 Q1784.62 1529.94 1780.62 1529.94 Q1778.74 1529.94 1776.87 1530.35 Q1775.01 1530.77 1773.07 1531.65 L1773.07 1514.29 Z" fill="#000000" fill-rule="nonzero" fill-opacity="1"></path><path clip-path="url(#clip420)" d="M1813.19 1517.37 Q1809.57 1517.37 1807.75 1520.93 Q1805.94 1524.47 1805.94 1531.6 Q1805.94 1538.71 1807.75 1542.27 Q1809.57 1545.82 1813.19 1545.82 Q1816.82 1545.82 1818.63 1542.27 Q1820.45 1538.71 1820.45 1531.6 Q1820.45 1524.47 1818.63 1520.93 Q1816.82 1517.37 1813.19 1517.37 M1813.19 1513.66 Q1819 1513.66 1822.05 1518.27 Q1825.13 1522.85 1825.13 1531.6 Q1825.13 1540.33 1822.05 1544.94 Q1819 1549.52 1813.19 1549.52 Q1807.38 1549.52 1804.3 1544.94 Q1801.24 1540.33 1801.24 1531.6 Q1801.24 1522.85 1804.3 1518.27 Q1807.38 1513.66 1813.19 1513.66 Z" fill="#000000" fill-rule="nonzero" fill-opacity="1"></path><path clip-path="url(#clip420)" d="M2236.33 1544.91 L2243.97 1544.91 L2243.97 1518.55 L2235.66 1520.21 L2235.66 1515.95 L2243.93 1514.29 L2248.6 1514.29 L2248.6 1544.91 L2256.24 1544.91 L2256.24 1548.85 L2236.33 1548.85 L2236.33 1544.91 Z" fill="#000000" fill-rule="nonzero" fill-opacity="1"></path><path clip-path="url(#clip420)" d="M2275.69 1517.37 Q2272.07 1517.37 2270.25 1520.93 Q2268.44 1524.47 2268.44 1531.6 Q2268.44 1538.71 2270.25 1542.27 Q2272.07 1545.82 2275.69 1545.82 Q2279.32 1545.82 2281.13 1542.27 Q2282.95 1538.71 2282.95 1531.6 Q2282.95 1524.47 2281.13 1520.93 Q2279.32 1517.37 2275.69 1517.37 M2275.69 1513.66 Q2281.5 1513.66 2284.55 1518.27 Q2287.63 1522.85 2287.63 1531.6 Q2287.63 1540.33 2284.55 1544.94 Q2281.5 1549.52 2275.69 1549.52 Q2269.88 1549.52 2266.8 1544.94 Q2263.74 1540.33 2263.74 1531.6 Q2263.74 1522.85 2266.8 1518.27 Q2269.88 1513.66 2275.69 1513.66 Z" fill="#000000" fill-rule="nonzero" fill-opacity="1"></path><path clip-path="url(#clip420)" d="M2305.85 1517.37 Q2302.24 1517.37 2300.41 1520.93 Q2298.6 1524.47 2298.6 1531.6 Q2298.6 1538.71 2300.41 1542.27 Q2302.24 1545.82 2305.85 1545.82 Q2309.48 1545.82 2311.29 1542.27 Q2313.12 1538.71 2313.12 1531.6 Q2313.12 1524.47 2311.29 1520.93 Q2309.48 1517.37 2305.85 1517.37 M2305.85 1513.66 Q2311.66 1513.66 2314.71 1518.27 Q2317.79 1522.85 2317.79 1531.6 Q2317.79 1540.33 2314.71 1544.94 Q2311.66 1549.52 2305.85 1549.52 Q2300.04 1549.52 2296.96 1544.94 Q2293.9 1540.33 2293.9 1531.6 Q2293.9 1522.85 2296.96 1518.27 Q2300.04 1513.66 2305.85 1513.66 Z" fill="#000000" fill-rule="nonzero" fill-opacity="1"></path><path clip-path="url(#clip420)" d="M2336.01 1517.37 Q2332.4 1517.37 2330.57 1520.93 Q2328.76 1524.47 2328.76 1531.6 Q2328.76 1538.71 2330.57 1542.27 Q2332.4 1545.82 2336.01 1545.82 Q2339.64 1545.82 2341.45 1542.27 Q2343.28 1538.71 2343.28 1531.6 Q2343.28 1524.47 2341.45 1520.93 Q2339.64 1517.37 2336.01 1517.37 M2336.01 1513.66 Q2341.82 1513.66 2344.88 1518.27 Q2347.95 1522.85 2347.95 1531.6 Q2347.95 1540.33 2344.88 1544.94 Q2341.82 1549.52 2336.01 1549.52 Q2330.2 1549.52 2327.12 1544.94 Q2324.07 1540.33 2324.07 1531.6 Q2324.07 1522.85 2327.12 1518.27 Q2330.2 1513.66 2336.01 1513.66 Z" fill="#000000" fill-rule="nonzero" fill-opacity="1"></path><polyline clip-path="url(#clip422)" style="stroke:#000000; stroke-linecap:round; stroke-linejoin:round; stroke-width:2; stroke-opacity:0.1; fill:none" points="199.283,1238.6 2352.76,1238.6 "></polyline>
<polyline clip-path="url(#clip422)" style="stroke:#000000; stroke-linecap:round; stroke-linejoin:round; stroke-width:2; stroke-opacity:0.1; fill:none" points="199.283,950.946 2352.76,950.946 "></polyline>
<polyline clip-path="url(#clip422)" style="stroke:#000000; stroke-linecap:round; stroke-linejoin:round; stroke-width:2; stroke-opacity:0.1; fill:none" points="199.283,663.29 2352.76,663.29 "></polyline>
<polyline clip-path="url(#clip422)" style="stroke:#000000; stroke-linecap:round; stroke-linejoin:round; stroke-width:2; stroke-opacity:0.1; fill:none" points="199.283,375.633 2352.76,375.633 "></polyline>
<polyline clip-path="url(#clip422)" style="stroke:#000000; stroke-linecap:round; stroke-linejoin:round; stroke-width:2; stroke-opacity:0.1; fill:none" points="199.283,87.9763 2352.76,87.9763 "></polyline>
<polyline clip-path="url(#clip420)" style="stroke:#000000; stroke-linecap:round; stroke-linejoin:round; stroke-width:4; stroke-opacity:1; fill:none" points="199.283,1486.45 199.283,47.2441 "></polyline>
<polyline clip-path="url(#clip420)" style="stroke:#000000; stroke-linecap:round; stroke-linejoin:round; stroke-width:4; stroke-opacity:1; fill:none" points="199.283,1238.6 218.181,1238.6 "></polyline>
<polyline clip-path="url(#clip420)" style="stroke:#000000; stroke-linecap:round; stroke-linejoin:round; stroke-width:4; stroke-opacity:1; fill:none" points="199.283,950.946 218.181,950.946 "></polyline>
<polyline clip-path="url(#clip420)" style="stroke:#000000; stroke-linecap:round; stroke-linejoin:round; stroke-width:4; stroke-opacity:1; fill:none" points="199.283,663.29 218.181,663.29 "></polyline>
<polyline clip-path="url(#clip420)" style="stroke:#000000; stroke-linecap:round; stroke-linejoin:round; stroke-width:4; stroke-opacity:1; fill:none" points="199.283,375.633 218.181,375.633 "></polyline>
<polyline clip-path="url(#clip420)" style="stroke:#000000; stroke-linecap:round; stroke-linejoin:round; stroke-width:4; stroke-opacity:1; fill:none" points="199.283,87.9763 218.181,87.9763 "></polyline>
<path clip-path="url(#clip420)" d="M85.0429 1251.95 L101.362 1251.95 L101.362 1255.88 L79.4179 1255.88 L79.4179 1251.95 Q82.0799 1249.19 86.6632 1244.56 Q91.2697 1239.91 92.4502 1238.57 Q94.6956 1236.05 95.5752 1234.31 Q96.478 1232.55 96.478 1230.86 Q96.478 1228.11 94.5336 1226.37 Q92.6123 1224.63 89.5104 1224.63 Q87.3114 1224.63 84.8577 1225.4 Q82.4271 1226.16 79.6494 1227.71 L79.6494 1222.99 Q82.4734 1221.86 84.9271 1221.28 Q87.3808 1220.7 89.4178 1220.7 Q94.7882 1220.7 97.9826 1223.38 Q101.177 1226.07 101.177 1230.56 Q101.177 1232.69 100.367 1234.61 Q99.5798 1236.51 97.4734 1239.1 Q96.8947 1239.77 93.7928 1242.99 Q90.691 1246.18 85.0429 1251.95 Z" fill="#000000" fill-rule="nonzero" fill-opacity="1"></path><path clip-path="url(#clip420)" d="M121.177 1224.4 Q117.566 1224.4 115.737 1227.97 Q113.932 1231.51 113.932 1238.64 Q113.932 1245.74 115.737 1249.31 Q117.566 1252.85 121.177 1252.85 Q124.811 1252.85 126.617 1249.31 Q128.445 1245.74 128.445 1238.64 Q128.445 1231.51 126.617 1227.97 Q124.811 1224.4 121.177 1224.4 M121.177 1220.7 Q126.987 1220.7 130.043 1225.3 Q133.121 1229.89 133.121 1238.64 Q133.121 1247.36 130.043 1251.97 Q126.987 1256.55 121.177 1256.55 Q115.367 1256.55 112.288 1251.97 Q109.233 1247.36 109.233 1238.64 Q109.233 1229.89 112.288 1225.3 Q115.367 1220.7 121.177 1220.7 Z" fill="#000000" fill-rule="nonzero" fill-opacity="1"></path><path clip-path="url(#clip420)" d="M151.339 1224.4 Q147.728 1224.4 145.899 1227.97 Q144.093 1231.51 144.093 1238.64 Q144.093 1245.74 145.899 1249.31 Q147.728 1252.85 151.339 1252.85 Q154.973 1252.85 156.779 1249.31 Q158.607 1245.74 158.607 1238.64 Q158.607 1231.51 156.779 1227.97 Q154.973 1224.4 151.339 1224.4 M151.339 1220.7 Q157.149 1220.7 160.205 1225.3 Q163.283 1229.89 163.283 1238.64 Q163.283 1247.36 160.205 1251.97 Q157.149 1256.55 151.339 1256.55 Q145.529 1256.55 142.45 1251.97 Q139.394 1247.36 139.394 1238.64 Q139.394 1229.89 142.45 1225.3 Q145.529 1220.7 151.339 1220.7 Z" fill="#000000" fill-rule="nonzero" fill-opacity="1"></path><path clip-path="url(#clip420)" d="M93.8623 937.74 L82.0568 956.189 L93.8623 956.189 L93.8623 937.74 M92.6354 933.666 L98.515 933.666 L98.515 956.189 L103.446 956.189 L103.446 960.078 L98.515 960.078 L98.515 968.226 L93.8623 968.226 L93.8623 960.078 L78.2605 960.078 L78.2605 955.564 L92.6354 933.666 Z" fill="#000000" fill-rule="nonzero" fill-opacity="1"></path><path clip-path="url(#clip420)" d="M121.177 936.745 Q117.566 936.745 115.737 940.31 Q113.932 943.851 113.932 950.981 Q113.932 958.087 115.737 961.652 Q117.566 965.194 121.177 965.194 Q124.811 965.194 126.617 961.652 Q128.445 958.087 128.445 950.981 Q128.445 943.851 126.617 940.31 Q124.811 936.745 121.177 936.745 M121.177 933.041 Q126.987 933.041 130.043 937.648 Q133.121 942.231 133.121 950.981 Q133.121 959.708 130.043 964.314 Q126.987 968.898 121.177 968.898 Q115.367 968.898 112.288 964.314 Q109.233 959.708 109.233 950.981 Q109.233 942.231 112.288 937.648 Q115.367 933.041 121.177 933.041 Z" fill="#000000" fill-rule="nonzero" fill-opacity="1"></path><path clip-path="url(#clip420)" d="M151.339 936.745 Q147.728 936.745 145.899 940.31 Q144.093 943.851 144.093 950.981 Q144.093 958.087 145.899 961.652 Q147.728 965.194 151.339 965.194 Q154.973 965.194 156.779 961.652 Q158.607 958.087 158.607 950.981 Q158.607 943.851 156.779 940.31 Q154.973 936.745 151.339 936.745 M151.339 933.041 Q157.149 933.041 160.205 937.648 Q163.283 942.231 163.283 950.981 Q163.283 959.708 160.205 964.314 Q157.149 968.898 151.339 968.898 Q145.529 968.898 142.45 964.314 Q139.394 959.708 139.394 950.981 Q139.394 942.231 142.45 937.648 Q145.529 933.041 151.339 933.041 Z" fill="#000000" fill-rule="nonzero" fill-opacity="1"></path><path clip-path="url(#clip420)" d="M91.5938 661.426 Q88.4456 661.426 86.5938 663.579 Q84.7651 665.732 84.7651 669.482 Q84.7651 673.209 86.5938 675.384 Q88.4456 677.537 91.5938 677.537 Q94.7419 677.537 96.5706 675.384 Q98.4224 673.209 98.4224 669.482 Q98.4224 665.732 96.5706 663.579 Q94.7419 661.426 91.5938 661.426 M100.876 646.773 L100.876 651.033 Q99.1169 650.199 97.3113 649.76 Q95.5289 649.32 93.7697 649.32 Q89.1401 649.32 86.6864 652.445 Q84.2558 655.57 83.9086 661.889 Q85.2743 659.875 87.3345 658.81 Q89.3947 657.722 91.8715 657.722 Q97.0798 657.722 100.089 660.894 Q103.121 664.042 103.121 669.482 Q103.121 674.806 99.9733 678.023 Q96.8252 681.241 91.5938 681.241 Q85.5984 681.241 82.4271 676.658 Q79.2559 672.051 79.2559 663.324 Q79.2559 655.13 83.1447 650.269 Q87.0336 645.385 93.5845 645.385 Q95.3437 645.385 97.1261 645.732 Q98.9317 646.079 100.876 646.773 Z" fill="#000000" fill-rule="nonzero" fill-opacity="1"></path><path clip-path="url(#clip420)" d="M121.177 649.088 Q117.566 649.088 115.737 652.653 Q113.932 656.195 113.932 663.324 Q113.932 670.431 115.737 673.996 Q117.566 677.537 121.177 677.537 Q124.811 677.537 126.617 673.996 Q128.445 670.431 128.445 663.324 Q128.445 656.195 126.617 652.653 Q124.811 649.088 121.177 649.088 M121.177 645.385 Q126.987 645.385 130.043 649.991 Q133.121 654.574 133.121 663.324 Q133.121 672.051 130.043 676.658 Q126.987 681.241 121.177 681.241 Q115.367 681.241 112.288 676.658 Q109.233 672.051 109.233 663.324 Q109.233 654.574 112.288 649.991 Q115.367 645.385 121.177 645.385 Z" fill="#000000" fill-rule="nonzero" fill-opacity="1"></path><path clip-path="url(#clip420)" d="M151.339 649.088 Q147.728 649.088 145.899 652.653 Q144.093 656.195 144.093 663.324 Q144.093 670.431 145.899 673.996 Q147.728 677.537 151.339 677.537 Q154.973 677.537 156.779 673.996 Q158.607 670.431 158.607 663.324 Q158.607 656.195 156.779 652.653 Q154.973 649.088 151.339 649.088 M151.339 645.385 Q157.149 645.385 160.205 649.991 Q163.283 654.574 163.283 663.324 Q163.283 672.051 160.205 676.658 Q157.149 681.241 151.339 681.241 Q145.529 681.241 142.45 676.658 Q139.394 672.051 139.394 663.324 Q139.394 654.574 142.45 649.991 Q145.529 645.385 151.339 645.385 Z" fill="#000000" fill-rule="nonzero" fill-opacity="1"></path><path clip-path="url(#clip420)" d="M91.0151 376.501 Q87.6817 376.501 85.7605 378.283 Q83.8623 380.066 83.8623 383.191 Q83.8623 386.316 85.7605 388.098 Q87.6817 389.881 91.0151 389.881 Q94.3484 389.881 96.2697 388.098 Q98.1909 386.293 98.1909 383.191 Q98.1909 380.066 96.2697 378.283 Q94.3715 376.501 91.0151 376.501 M86.3392 374.51 Q83.3299 373.77 81.6401 371.709 Q79.9735 369.649 79.9735 366.686 Q79.9735 362.543 82.9133 360.135 Q85.8762 357.728 91.0151 357.728 Q96.1771 357.728 99.1169 360.135 Q102.057 362.543 102.057 366.686 Q102.057 369.649 100.367 371.709 Q98.7002 373.77 95.7141 374.51 Q99.0937 375.297 100.969 377.589 Q102.867 379.881 102.867 383.191 Q102.867 388.214 99.7882 390.899 Q96.7326 393.584 91.0151 393.584 Q85.2975 393.584 82.2188 390.899 Q79.1633 388.214 79.1633 383.191 Q79.1633 379.881 81.0614 377.589 Q82.9595 375.297 86.3392 374.51 M84.6262 367.126 Q84.6262 369.811 86.2929 371.316 Q87.9827 372.82 91.0151 372.82 Q94.0243 372.82 95.7141 371.316 Q97.4271 369.811 97.4271 367.126 Q97.4271 364.441 95.7141 362.936 Q94.0243 361.432 91.0151 361.432 Q87.9827 361.432 86.2929 362.936 Q84.6262 364.441 84.6262 367.126 Z" fill="#000000" fill-rule="nonzero" fill-opacity="1"></path><path clip-path="url(#clip420)" d="M121.177 361.432 Q117.566 361.432 115.737 364.996 Q113.932 368.538 113.932 375.668 Q113.932 382.774 115.737 386.339 Q117.566 389.881 121.177 389.881 Q124.811 389.881 126.617 386.339 Q128.445 382.774 128.445 375.668 Q128.445 368.538 126.617 364.996 Q124.811 361.432 121.177 361.432 M121.177 357.728 Q126.987 357.728 130.043 362.334 Q133.121 366.918 133.121 375.668 Q133.121 384.394 130.043 389.001 Q126.987 393.584 121.177 393.584 Q115.367 393.584 112.288 389.001 Q109.233 384.394 109.233 375.668 Q109.233 366.918 112.288 362.334 Q115.367 357.728 121.177 357.728 Z" fill="#000000" fill-rule="nonzero" fill-opacity="1"></path><path clip-path="url(#clip420)" d="M151.339 361.432 Q147.728 361.432 145.899 364.996 Q144.093 368.538 144.093 375.668 Q144.093 382.774 145.899 386.339 Q147.728 389.881 151.339 389.881 Q154.973 389.881 156.779 386.339 Q158.607 382.774 158.607 375.668 Q158.607 368.538 156.779 364.996 Q154.973 361.432 151.339 361.432 M151.339 357.728 Q157.149 357.728 160.205 362.334 Q163.283 366.918 163.283 375.668 Q163.283 384.394 160.205 389.001 Q157.149 393.584 151.339 393.584 Q145.529 393.584 142.45 389.001 Q139.394 384.394 139.394 375.668 Q139.394 366.918 142.45 362.334 Q145.529 357.728 151.339 357.728 Z" fill="#000000" fill-rule="nonzero" fill-opacity="1"></path><path clip-path="url(#clip420)" d="M51.6634 101.321 L59.3023 101.321 L59.3023 74.9555 L50.9921 76.6222 L50.9921 72.3629 L59.256 70.6963 L63.9319 70.6963 L63.9319 101.321 L71.5707 101.321 L71.5707 105.256 L51.6634 105.256 L51.6634 101.321 Z" fill="#000000" fill-rule="nonzero" fill-opacity="1"></path><path clip-path="url(#clip420)" d="M91.0151 73.775 Q87.404 73.775 85.5753 77.3398 Q83.7697 80.8814 83.7697 88.011 Q83.7697 95.1174 85.5753 98.6822 Q87.404 102.224 91.0151 102.224 Q94.6493 102.224 96.4548 98.6822 Q98.2835 95.1174 98.2835 88.011 Q98.2835 80.8814 96.4548 77.3398 Q94.6493 73.775 91.0151 73.775 M91.0151 70.0713 Q96.8252 70.0713 99.8808 74.6777 Q102.959 79.261 102.959 88.011 Q102.959 96.7378 99.8808 101.344 Q96.8252 105.928 91.0151 105.928 Q85.2049 105.928 82.1262 101.344 Q79.0707 96.7378 79.0707 88.011 Q79.0707 79.261 82.1262 74.6777 Q85.2049 70.0713 91.0151 70.0713 Z" fill="#000000" fill-rule="nonzero" fill-opacity="1"></path><path clip-path="url(#clip420)" d="M121.177 73.775 Q117.566 73.775 115.737 77.3398 Q113.932 80.8814 113.932 88.011 Q113.932 95.1174 115.737 98.6822 Q117.566 102.224 121.177 102.224 Q124.811 102.224 126.617 98.6822 Q128.445 95.1174 128.445 88.011 Q128.445 80.8814 126.617 77.3398 Q124.811 73.775 121.177 73.775 M121.177 70.0713 Q126.987 70.0713 130.043 74.6777 Q133.121 79.261 133.121 88.011 Q133.121 96.7378 130.043 101.344 Q126.987 105.928 121.177 105.928 Q115.367 105.928 112.288 101.344 Q109.233 96.7378 109.233 88.011 Q109.233 79.261 112.288 74.6777 Q115.367 70.0713 121.177 70.0713 Z" fill="#000000" fill-rule="nonzero" fill-opacity="1"></path><path clip-path="url(#clip420)" d="M151.339 73.775 Q147.728 73.775 145.899 77.3398 Q144.093 80.8814 144.093 88.011 Q144.093 95.1174 145.899 98.6822 Q147.728 102.224 151.339 102.224 Q154.973 102.224 156.779 98.6822 Q158.607 95.1174 158.607 88.011 Q158.607 80.8814 156.779 77.3398 Q154.973 73.775 151.339 73.775 M151.339 70.0713 Q157.149 70.0713 160.205 74.6777 Q163.283 79.261 163.283 88.011 Q163.283 96.7378 160.205 101.344 Q157.149 105.928 151.339 105.928 Q145.529 105.928 142.45 101.344 Q139.394 96.7378 139.394 88.011 Q139.394 79.261 142.45 74.6777 Q145.529 70.0713 151.339 70.0713 Z" fill="#000000" fill-rule="nonzero" fill-opacity="1"></path><polyline clip-path="url(#clip422)" style="stroke:#009af9; stroke-linecap:round; stroke-linejoin:round; stroke-width:4; stroke-opacity:1; fill:none" points="260.231,1129.29 262.264,1064.57 264.298,1150.87 266.331,920.742 268.365,811.433 270.399,860.334 272.432,953.823 274.466,904.921 276.499,992.656 278.533,986.903 280.567,1135.05 282.6,1099.09 284.634,1043 286.667,1021.42 288.701,876.156 290.735,891.977 292.768,1120.66 294.802,808.556 296.836,917.866 298.869,1081.83 300.903,1084.71 302.936,820.062 304.97,847.39 307.004,1116.35 309.037,1045.87 311.071,1019.98 313.104,1091.9 315.138,1109.16 317.172,1126.42 319.205,820.062 321.239,1126.42 323.272,1005.6 325.306,949.508 327.34,1055.94 329.373,1037.24 331.407,1060.26 333.441,1019.98 335.474,945.193 337.508,864.649 339.541,891.977 341.575,972.52 343.609,873.279 345.642,1149.43 347.676,940.878 349.709,1057.38 351.743,936.563 353.777,811.433 355.81,1129.29 357.844,891.977 359.878,1009.92 361.911,817.186 363.945,1086.14 365.978,1047.31 368.012,883.347 370.046,876.156 372.079,1014.23 374.113,1048.75 376.146,1163.81 378.18,996.971 380.214,876.156 382.247,896.291 384.281,919.304 386.314,877.594 388.348,989.78 390.382,1024.3 392.415,1106.28 394.449,1106.28 396.483,1067.45 398.516,1160.94 400.55,1038.68 402.583,1047.31 404.617,1083.27 406.651,961.014 408.684,1137.92 410.718,838.76 412.751,1067.45 414.785,1012.79 416.819,919.304 418.852,884.785 420.886,1005.6 422.919,841.637 424.953,1063.13 426.987,881.909 429.02,903.483 431.054,906.359 433.088,866.088 435.121,828.692 437.155,851.705 439.188,1009.92 441.222,1136.48 443.256,1008.48 445.289,1100.53 447.323,851.705 449.356,1104.84 451.39,1086.14 453.424,920.742 455.457,876.156 457.491,986.903 459.524,986.903 461.558,930.81 463.592,903.483 465.625,902.045 467.659,1071.76 469.693,1129.29 471.726,1133.61 473.76,1027.18 475.793,909.236 477.827,1057.38 479.861,919.304 481.894,933.687 483.928,949.508 485.961,1035.8 487.995,828.692 490.029,830.13 492.062,1143.68 494.096,894.853 496.129,909.236 498.163,1041.56 500.197,1071.76 502.23,925.057 504.264,838.76 506.298,870.402 508.331,902.045 510.365,896.291 512.398,979.712 514.432,1104.84 516.466,979.712 518.499,1104.84 520.533,1041.56 522.566,873.279 524.6,917.866 526.634,940.878 528.667,920.742 530.701,971.082 532.734,1119.23 534.768,1001.29 536.802,827.254 538.835,917.866 540.869,1011.35 542.903,861.773 544.936,1040.12 546.97,902.045 549.003,843.075 551.037,883.347 553.071,935.125 555.104,828.692 557.138,953.823 559.171,1104.84 561.205,914.989 563.239,1001.29 565.272,976.835 567.306,978.274 569.34,922.181 571.373,894.853 573.407,1040.12 575.44,818.624 577.474,1143.68 579.508,981.15 581.541,1123.54 583.575,1058.82 585.608,1109.16 587.642,1044.43 589.676,1051.63 591.709,1140.8 593.743,919.304 595.776,827.254 597.81,1005.6 599.844,1100.53 601.877,903.483 603.911,920.742 605.945,851.705 607.978,868.964 610.012,975.397 612.045,835.884 614.079,1018.55 616.113,903.483 618.146,1123.54 620.18,854.581 622.213,962.453 624.247,917.866 626.281,887.662 628.314,896.291 630.348,982.588 632.381,1031.49 634.415,854.581 636.449,834.445 638.482,929.372 640.516,821.501 642.55,1008.48 644.583,981.15 646.617,1073.2 648.65,891.977 650.684,952.385 652.718,834.445 654.751,1120.66 656.785,1066.01 658.818,1160.94 660.852,1012.79 662.886,1005.6 664.919,1064.57 666.953,812.871 668.986,907.798 671.02,1127.86 673.054,874.717 675.087,906.359 677.121,835.884 679.155,935.125 681.188,903.483 683.222,833.007 685.255,1005.6 687.289,971.082 689.323,920.742 691.356,981.15 693.39,1084.71 695.423,1004.16 697.457,1083.27 699.491,984.027 701.524,811.433 703.558,874.717 705.591,1009.92 707.625,811.433 709.659,1057.38 711.692,1091.9 713.726,1139.36 715.76,1091.9 717.793,1007.04 719.827,1112.03 721.86,879.032 723.894,963.891 725.928,1019.98 727.961,1064.57 729.995,1022.86 732.028,812.871 734.062,938.002 736.096,940.878 738.129,811.433 740.163,864.649 742.196,1116.35 744.23,950.946 746.264,1129.29 748.297,811.433 750.331,835.884 752.365,1159.5 754.398,925.057 756.432,822.939 758.465,856.02 760.499,940.878 762.533,1066.01 764.566,876.156 766.6,959.576 768.633,512.27 770.667,775.476 772.701,535.282 774.734,564.048 776.768,638.839 778.802,712.191 780.835,651.783 782.869,564.048 784.902,564.048 786.936,564.048 788.97,564.048 791.003,564.048 793.037,638.839 795.07,638.839 797.104,564.048 799.138,732.327 801.171,564.048 803.205,525.214 805.238,638.839 807.272,564.048 809.306,535.282 811.339,535.282 813.373,638.839 815.407,487.819 817.44,753.901 819.474,516.585 821.507,638.839 823.541,732.327 825.575,479.189 827.608,564.048 829.642,482.066 831.675,732.327 833.709,535.282 835.743,624.456 837.776,564.048 839.81,775.476 841.843,638.839 843.877,471.998 845.911,638.839 847.944,638.839 849.978,564.048 852.012,535.282 854.045,535.282 856.079,564.048 858.112,482.066 860.146,535.282 862.18,638.839 864.213,467.683 866.247,651.783 868.28,482.066 870.314,467.683 872.348,638.839 874.381,467.683 876.415,564.048 878.448,617.265 880.482,564.048 882.516,564.048 884.549,638.839 886.583,564.048 888.617,555.418 890.65,638.839 892.684,732.327 894.717,651.783 896.751,564.048 898.785,535.282 900.818,541.036 902.852,479.189 904.885,564.048 906.919,535.282 908.953,805.68 910.986,564.048 913.02,529.529 915.053,638.839 917.087,598.567 919.121,749.587 921.154,638.839 923.188,725.136 925.222,638.839 927.255,516.585 929.289,732.327 931.322,467.683 933.356,638.839 935.39,535.282 937.423,542.474 939.457,638.839 941.49,749.587 943.524,535.282 945.558,564.048 947.591,635.962 949.625,535.282 951.658,555.418 953.692,564.048 955.726,753.901 957.759,638.839 959.793,479.189 961.827,732.327 963.86,564.048 965.894,638.839 967.927,732.327 969.961,564.048 971.995,564.048 974.028,535.282 976.062,638.839 978.095,564.048 980.129,564.048 982.163,638.839 984.196,564.048 986.23,638.839 988.264,663.29 990.297,482.066 992.331,564.048 994.364,638.839 996.398,463.368 998.432,732.327 1000.47,638.839 1002.5,677.672 1004.53,756.778 1006.57,479.189 1008.6,638.839 1010.63,535.282 1012.67,564.048 1014.7,638.839 1016.73,638.839 1018.77,482.066 1020.8,638.839 1022.83,564.048 1024.87,638.839 1026.9,638.839 1028.94,564.048 1030.97,535.282 1033,564.048 1035.04,564.048 1037.07,657.536 1039.1,564.048 1041.14,732.327 1043.17,638.839 1045.2,535.282 1047.24,638.839 1049.27,564.048 1051.31,555.418 1053.34,564.048 1055.37,740.957 1057.41,564.048 1059.44,732.327 1061.47,564.048 1063.51,564.048 1065.54,555.418 1067.57,564.048 1069.61,535.282 1071.64,564.048 1073.68,535.282 1075.71,638.839 1077.74,638.839 1079.78,564.048 1081.81,564.048 1083.84,564.048 1085.88,441.794 1087.91,535.282 1089.94,638.839 1091.98,638.839 1094.01,538.159 1096.04,477.751 1098.08,638.839 1100.11,638.839 1102.15,564.048 1104.18,476.313 1106.21,549.665 1108.25,539.597 1110.28,535.282 1112.31,638.839 1114.35,638.839 1116.38,775.476 1118.41,535.282 1120.45,638.839 1122.48,638.839 1124.52,564.048 1126.55,535.282 1128.58,753.901 1130.62,477.751 1132.65,564.048 1134.68,726.574 1136.72,477.751 1138.75,535.282 1140.78,638.839 1142.82,564.048 1144.85,564.048 1146.89,638.839 1148.92,467.683 1150.95,610.073 1152.99,564.048 1155.02,732.327 1157.05,564.048 1159.09,638.839 1161.12,564.048 1163.15,564.048 1165.19,535.282 1167.22,476.313 1169.25,477.751 1171.29,756.778 1173.32,564.048 1175.36,732.327 1177.39,477.751 1179.42,564.048 1181.46,535.282 1183.49,564.048 1185.52,564.048 1187.56,479.189 1189.59,535.282 1191.62,533.844 1193.66,638.839 1195.69,564.048 1197.73,732.327 1199.76,638.839 1201.79,564.048 1203.83,638.839 1205.86,535.282 1207.89,775.476 1209.93,638.839 1211.96,516.585 1213.99,467.683 1216.03,564.048 1218.06,638.839 1220.1,732.327 1222.13,564.048 1224.16,564.048 1226.2,482.066 1228.23,722.259 1230.26,638.839 1232.3,726.574 1234.33,564.048 1236.36,663.29 1238.4,535.282 1240.43,732.327 1242.46,535.282 1244.5,638.839 1246.53,775.476 1248.57,535.282 1250.6,564.048 1252.63,638.839 1254.67,638.839 1256.7,555.418 1258.73,467.683 1260.77,638.839 1262.8,564.048 1264.83,467.683 1266.87,638.839 1268.9,732.327 1270.94,732.327 1272.97,564.048 1275,753.901 1277.04,184.341 1279.07,264.885 1281.1,274.953 1283.14,378.509 1285.17,87.9763 1287.2,201.601 1289.24,336.799 1291.27,230.366 1293.31,105.236 1295.34,270.638 1297.37,296.527 1299.41,372.756 1301.44,282.145 1303.47,118.18 1305.51,93.7294 1307.54,262.009 1309.57,214.545 1311.61,262.009 1313.64,169.958 1315.67,306.595 1317.71,257.694 1319.74,92.2911 1321.78,168.52 1323.81,385.701 1325.84,253.379 1327.88,134.001 1329.91,194.409 1331.94,332.484 1333.98,279.268 1336.01,259.132 1338.04,99.4825 1340.08,200.162 1342.11,318.102 1344.15,121.057 1346.18,134.001 1348.21,180.026 1350.25,203.039 1352.28,175.712 1354.31,384.263 1356.35,375.633 1358.38,361.25 1360.41,329.608 1362.45,430.288 1364.48,322.416 1366.52,89.4146 1368.55,244.749 1370.58,415.905 1372.62,335.361 1374.65,253.379 1376.68,385.701 1378.72,378.509 1380.75,384.263 1382.78,226.051 1384.82,262.009 1386.85,352.62 1388.88,352.62 1390.92,105.236 1392.95,262.009 1394.99,148.384 1397.02,217.422 1399.05,333.923 1401.09,341.114 1403.12,165.644 1405.15,260.57 1407.19,204.477 1409.22,320.978 1411.25,106.674 1413.29,354.059 1415.32,194.409 1417.36,251.941 1419.39,175.712 1421.42,361.25 1423.46,436.041 1425.49,122.495 1427.52,425.973 1429.56,428.849 1431.59,395.769 1433.62,251.941 1435.66,411.59 1437.69,267.762 1439.73,270.638 1441.76,181.465 1443.79,201.601 1445.83,217.422 1447.86,343.991 1449.89,401.522 1451.93,256.255 1453.96,195.848 1455.99,144.069 1458.03,122.495 1460.06,148.384 1462.1,407.275 1464.13,446.109 1466.16,436.041 1468.2,256.255 1470.23,200.162 1472.26,312.348 1474.3,208.792 1476.33,297.966 1478.36,425.973 1480.4,187.218 1482.43,128.248 1484.46,194.409 1486.5,371.318 1488.53,312.348 1490.57,262.009 1492.6,92.2911 1494.63,424.535 1496.67,404.399 1498.7,247.626 1500.73,356.935 1502.77,237.558 1504.8,289.336 1506.83,309.472 1508.87,335.361 1510.9,270.638 1512.94,315.225 1514.97,159.89 1517,201.601 1519.04,228.928 1521.07,348.306 1523.1,414.467 1525.14,343.991 1527.17,154.137 1529.2,230.366 1531.24,355.497 1533.27,223.175 1535.31,175.712 1537.34,328.17 1539.37,313.787 1541.41,138.316 1543.44,436.041 1545.47,190.094 1547.51,425.973 1549.54,336.799 1551.57,352.62 1553.61,201.601 1555.64,319.54 1557.67,437.479 1559.71,190.094 1561.74,302.28 1563.78,378.509 1565.81,125.372 1567.84,191.533 1569.88,135.44 1571.91,187.218 1573.94,98.0443 1575.98,162.767 1578.01,103.797 1580.04,177.15 1582.08,109.551 1584.11,365.565 1586.15,424.535 1588.18,98.0443 1590.21,146.946 1592.25,444.671 1594.28,243.311 1596.31,378.509 1598.35,338.238 1600.38,356.935 1602.41,303.719 1604.45,136.878 1606.48,195.848 1608.52,146.946 1610.55,157.014 1612.58,244.749 1614.62,361.25 1616.65,105.236 1618.68,300.842 1620.72,279.268 1622.75,158.452 1624.78,128.248 1626.82,384.263 1628.85,343.991 1630.88,119.619 1632.92,354.059 1634.95,309.472 1636.99,333.923 1639.02,295.089 1641.05,407.275 1643.09,161.329 1645.12,297.966 1647.15,388.577 1649.19,392.892 1651.22,165.644 1653.25,161.329 1655.29,211.669 1657.32,420.22 1659.36,356.935 1661.39,401.522 1663.42,195.848 1665.46,408.713 1667.49,190.094 1669.52,159.89 1671.56,217.422 1673.59,438.917 1675.62,251.941 1677.66,374.195 1679.69,264.885 1681.73,318.102 1683.76,191.533 1685.79,379.948 1687.83,385.701 1689.86,169.958 1691.89,446.109 1693.93,280.706 1695.96,119.619 1697.99,358.374 1700.03,362.688 1702.06,352.62 1704.09,161.329 1706.13,310.91 1708.16,391.454 1710.2,411.59 1712.23,326.731 1714.26,157.014 1716.3,287.898 1718.33,211.669 1720.36,358.374 1722.4,217.422 1724.43,211.669 1726.46,413.028 1728.5,95.1677 1730.53,165.644 1732.57,398.645 1734.6,320.978 1736.63,320.978 1738.67,388.577 1740.7,285.021 1742.73,359.812 1744.77,90.8528 1746.8,113.865 1748.83,154.137 1750.87,259.132 1752.9,157.014 1754.94,180.026 1756.97,264.885 1759,227.49 1761.04,243.311 1763.07,185.78 1765.1,218.86 1767.14,444.671 1769.17,211.669 1771.2,286.459 1773.24,815.748 1775.27,276.391 1777.3,315.225 1779.34,328.17 1781.37,167.082 1783.41,279.268 1785.44,1209.84 1787.47,1209.84 1789.51,575.554 1791.54,686.302 1793.57,1209.84 1795.61,1209.84 1797.64,1209.84 1799.67,654.66 1801.71,1209.84 1803.74,1209.84 1805.78,1209.84 1807.81,562.61 1809.84,1209.84 1811.88,556.857 1813.91,654.66 1815.94,1209.84 1817.98,1209.84 1820.01,1166.69 1822.04,1166.69 1824.08,653.222 1826.11,1209.84 1828.15,453.3 1830.18,1209.84 1832.21,556.857 1834.25,1209.84 1836.28,1209.84 1838.31,1445.72 1840.35,654.66 1842.38,1209.84 1844.41,1209.84 1846.45,1166.69 1848.48,630.209 1850.51,1209.84 1852.55,1209.84 1854.58,453.3 1856.62,1209.84 1858.65,1209.84 1860.68,1209.84 1862.72,1237.16 1864.75,1166.69 1866.78,1209.84 1868.82,1342.16 1870.85,1209.84 1872.88,1209.84 1874.92,653.222 1876.95,1209.84 1878.99,1209.84 1881.02,1166.69 1883.05,1209.84 1885.09,1209.84 1887.12,1209.84 1889.15,1166.69 1891.19,1209.84 1893.22,1209.84 1895.25,1209.84 1897.29,1209.84 1899.32,1209.84 1901.36,1166.69 1903.39,1209.84 1905.42,1166.69 1907.46,1209.84 1909.49,1166.69 1911.52,575.554 1913.56,1209.84 1915.59,1209.84 1917.62,1209.84 1919.66,1209.84 1921.69,1209.84 1923.72,575.554 1925.76,1166.69 1927.79,1209.84 1929.83,1209.84 1931.86,1209.84 1933.89,1209.84 1935.93,1209.84 1937.96,1101.97 1939.99,1209.84 1942.03,1209.84 1944.06,1209.84 1946.09,1209.84 1948.13,1382.43 1950.16,1209.84 1952.2,1209.84 1954.23,1209.84 1956.26,1166.69 1958.3,1209.84 1960.33,575.554 1962.36,618.703 1964.4,1209.84 1966.43,1209.84 1968.46,1209.84 1970.5,1209.84 1972.53,1209.84 1974.57,1209.84 1976.6,1166.69 1978.63,1209.84 1980.67,1342.16 1982.7,1209.84 1984.73,453.3 1986.77,1209.84 1988.8,1209.84 1990.83,1209.84 1992.87,1209.84 1994.9,1209.84 1996.93,1209.84 1998.97,1209.84 2001,1209.84 2003.04,1209.84 2005.07,1209.84 2007.1,654.66 2009.14,556.857 2011.17,1209.84 2013.2,1166.69 2015.24,1209.84 2017.27,1166.69 2019.3,562.61 2021.34,1209.84 2023.37,1209.84 2025.41,1209.84 2027.44,1209.84 2029.47,1209.84 2031.51,1345.04 2033.54,1209.84 2035.57,436.041 2037.61,1166.69 2039.64,1209.84 2041.67,1166.69 2043.71,654.66 2045.74,640.277 2047.78,1209.84 2049.81,1209.84 2051.84,1209.84 2053.88,1209.84 2055.91,1209.84 2057.94,1166.69 2059.98,1209.84 2062.01,1209.84 2064.04,1166.69 2066.08,1166.69 2068.11,1342.16 2070.14,1209.84 2072.18,1209.84 2074.21,1209.84 2076.25,1209.84 2078.28,1209.84 2080.31,1209.84 2082.35,1209.84 2084.38,1209.84 2086.41,1209.84 2088.45,592.814 2090.48,1209.84 2092.51,1209.84 2094.55,1209.84 2096.58,1209.84 2098.62,1209.84 2100.65,1209.84 2102.68,1209.84 2104.72,1209.84 2106.75,1209.84 2108.78,1209.84 2110.82,1209.84 2112.85,1209.84 2114.88,1166.69 2116.92,1209.84 2118.95,1209.84 2120.99,654.66 2123.02,1209.84 2125.05,1166.69 2127.09,1209.84 2129.12,653.222 2131.15,1209.84 2133.19,1209.84 2135.22,1342.16 2137.25,1209.84 2139.29,1209.84 2141.32,1209.84 2143.35,1209.84 2145.39,1209.84 2147.42,1209.84 2149.46,1209.84 2151.49,1209.84 2153.52,1209.84 2155.56,1209.84 2157.59,1209.84 2159.62,1209.84 2161.66,1209.84 2163.69,1209.84 2165.72,1209.84 2167.76,453.3 2169.79,1209.84 2171.83,1209.84 2173.86,575.554 2175.89,1209.84 2177.93,1209.84 2179.96,1209.84 2181.99,1209.84 2184.03,1209.84 2186.06,1209.84 2188.09,1166.69 2190.13,562.61 2192.16,1209.84 2194.2,1209.84 2196.23,1209.84 2198.26,1209.84 2200.3,1209.84 2202.33,1209.84 2204.36,592.814 2206.4,1209.84 2208.43,1209.84 2210.46,1209.84 2212.5,1209.84 2214.53,1209.84 2216.56,1209.84 2218.6,1209.84 2220.63,1209.84 2222.67,1101.97 2224.7,653.222 2226.73,1209.84 2228.77,1166.69 2230.8,592.814 2232.83,575.554 2234.87,1209.84 2236.9,1342.16 2238.93,1166.69 2240.97,1209.84 2243,1209.84 2245.04,1209.84 2247.07,556.857 2249.1,1209.84 2251.14,1209.84 2253.17,1342.16 2255.2,1209.84 2257.24,1166.69 2259.27,1209.84 2261.3,1209.84 2263.34,1317.71 2265.37,1166.69 2267.41,1166.69 2269.44,575.554 2271.47,1209.84 2273.51,654.66 2275.54,1209.84 2277.57,592.814 2279.61,1209.84 2281.64,618.703 2283.67,1166.69 2285.71,1209.84 2287.74,1209.84 2289.77,1209.84 2291.81,1209.84 "></polyline>
<path clip-path="url(#clip420)" d="M2013.2 198.898 L2280.97 198.898 L2280.97 95.2176 L2013.2 95.2176  Z" fill="#ffffff" fill-rule="evenodd" fill-opacity="1"></path>
<polyline clip-path="url(#clip420)" style="stroke:#000000; stroke-linecap:round; stroke-linejoin:round; stroke-width:4; stroke-opacity:1; fill:none" points="2013.2,198.898 2280.97,198.898 2280.97,95.2176 2013.2,95.2176 2013.2,198.898 "></polyline>
<polyline clip-path="url(#clip420)" style="stroke:#009af9; stroke-linecap:round; stroke-linejoin:round; stroke-width:4; stroke-opacity:1; fill:none" points="2037.12,147.058 2180.69,147.058 "></polyline>
<path clip-path="url(#clip420)" d="M2218.46 166.745 Q2216.65 171.375 2214.94 172.787 Q2213.23 174.199 2210.36 174.199 L2206.95 174.199 L2206.95 170.634 L2209.45 170.634 Q2211.21 170.634 2212.19 169.8 Q2213.16 168.967 2214.34 165.865 L2215.1 163.921 L2204.62 138.412 L2209.13 138.412 L2217.23 158.689 L2225.33 138.412 L2229.85 138.412 L2218.46 166.745 Z" fill="#000000" fill-rule="nonzero" fill-opacity="1"></path><path clip-path="url(#clip420)" d="M2237.14 160.402 L2244.78 160.402 L2244.78 134.037 L2236.47 135.703 L2236.47 131.444 L2244.73 129.778 L2249.41 129.778 L2249.41 160.402 L2257.05 160.402 L2257.05 164.338 L2237.14 164.338 L2237.14 160.402 Z" fill="#000000" fill-rule="nonzero" fill-opacity="1"></path></svg>