<svg xmlns="http://www.w3.org/2000/svg" xmlns:xlink="http://www.w3.org/1999/xlink" width="600" height="400" viewBox="0 0 2400 1600">
<defs>
  <clipPath id="clip020">
    <rect x="0" y="0" width="2400" height="1600"></rect>
  </clipPath>
</defs>
<path clip-path="url(#clip020)" d="M0 1600 L2400 1600 L2400 8.88178e-14 L0 8.88178e-14  Z" fill="#ffffff" fill-rule="evenodd" fill-opacity="1"></path>
<defs>
  <clipPath id="clip021">
    <rect x="480" y="0" width="1681" height="1600"></rect>
  </clipPath>
</defs>
<path clip-path="url(#clip020)" d="M257.366 1423.18 L2352.76 1423.18 L2352.76 123.472 L257.366 123.472  Z" fill="#ffffff" fill-rule="evenodd" fill-opacity="1"></path>
<defs>
  <clipPath id="clip022">
    <rect x="257" y="123" width="2096" height="1301"></rect>
  </clipPath>
</defs>
<polyline clip-path="url(#clip022)" style="stroke:#000000; stroke-linecap:round; stroke-linejoin:round; stroke-width:2; stroke-opacity:0.1; fill:none" points="314.691,1423.18 314.691,123.472 "></polyline>
<polyline clip-path="url(#clip022)" style="stroke:#000000; stroke-linecap:round; stroke-linejoin:round; stroke-width:2; stroke-opacity:0.1; fill:none" points="809.381,1423.18 809.381,123.472 "></polyline>
<polyline clip-path="url(#clip022)" style="stroke:#000000; stroke-linecap:round; stroke-linejoin:round; stroke-width:2; stroke-opacity:0.1; fill:none" points="1304.07,1423.18 1304.07,123.472 "></polyline>
<polyline clip-path="url(#clip022)" style="stroke:#000000; stroke-linecap:round; stroke-linejoin:round; stroke-width:2; stroke-opacity:0.1; fill:none" points="1798.76,1423.18 1798.76,123.472 "></polyline>
<polyline clip-path="url(#clip022)" style="stroke:#000000; stroke-linecap:round; stroke-linejoin:round; stroke-width:2; stroke-opacity:0.1; fill:none" points="2293.45,1423.18 2293.45,123.472 "></polyline>
<polyline clip-path="url(#clip020)" style="stroke:#000000; stroke-linecap:round; stroke-linejoin:round; stroke-width:4; stroke-opacity:1; fill:none" points="257.366,1423.18 2352.76,1423.18 "></polyline>
<polyline clip-path="url(#clip020)" style="stroke:#000000; stroke-linecap:round; stroke-linejoin:round; stroke-width:4; stroke-opacity:1; fill:none" points="314.691,1423.18 314.691,1404.28 "></polyline>
<polyline clip-path="url(#clip020)" style="stroke:#000000; stroke-linecap:round; stroke-linejoin:round; stroke-width:4; stroke-opacity:1; fill:none" points="809.381,1423.18 809.381,1404.28 "></polyline>
<polyline clip-path="url(#clip020)" style="stroke:#000000; stroke-linecap:round; stroke-linejoin:round; stroke-width:4; stroke-opacity:1; fill:none" points="1304.07,1423.18 1304.07,1404.28 "></polyline>
<polyline clip-path="url(#clip020)" style="stroke:#000000; stroke-linecap:round; stroke-linejoin:round; stroke-width:4; stroke-opacity:1; fill:none" points="1798.76,1423.18 1798.76,1404.28 "></polyline>
<polyline clip-path="url(#clip020)" style="stroke:#000000; stroke-linecap:round; stroke-linejoin:round; stroke-width:4; stroke-opacity:1; fill:none" points="2293.45,1423.18 2293.45,1404.28 "></polyline>
<path clip-path="url(#clip020)" d="M314.691 1454.1 Q311.08 1454.1 309.251 1457.66 Q307.445 1461.2 307.445 1468.33 Q307.445 1475.44 309.251 1479.01 Q311.08 1482.55 314.691 1482.55 Q318.325 1482.55 320.131 1479.01 Q321.959 1475.44 321.959 1468.33 Q321.959 1461.2 320.131 1457.66 Q318.325 1454.1 314.691 1454.1 M314.691 1450.39 Q320.501 1450.39 323.556 1455 Q326.635 1459.58 326.635 1468.33 Q326.635 1477.06 323.556 1481.67 Q320.501 1486.25 314.691 1486.25 Q308.881 1486.25 305.802 1481.67 Q302.746 1477.06 302.746 1468.33 Q302.746 1459.58 305.802 1455 Q308.881 1450.39 314.691 1450.39 Z" fill="#000000" fill-rule="nonzero" fill-opacity="1"></path><path clip-path="url(#clip020)" d="M773.074 1481.64 L789.393 1481.64 L789.393 1485.58 L767.449 1485.58 L767.449 1481.64 Q770.111 1478.89 774.694 1474.26 Q779.3 1469.61 780.481 1468.27 Q782.726 1465.74 783.606 1464.01 Q784.509 1462.25 784.509 1460.56 Q784.509 1457.8 782.564 1456.07 Q780.643 1454.33 777.541 1454.33 Q775.342 1454.33 772.888 1455.09 Q770.458 1455.86 767.68 1457.41 L767.68 1452.69 Q770.504 1451.55 772.958 1450.97 Q775.411 1450.39 777.448 1450.39 Q782.819 1450.39 786.013 1453.08 Q789.208 1455.77 789.208 1460.26 Q789.208 1462.39 788.398 1464.31 Q787.61 1466.2 785.504 1468.8 Q784.925 1469.47 781.823 1472.69 Q778.722 1475.88 773.074 1481.64 Z" fill="#000000" fill-rule="nonzero" fill-opacity="1"></path><path clip-path="url(#clip020)" d="M799.254 1451.02 L817.61 1451.02 L817.61 1454.96 L803.536 1454.96 L803.536 1463.43 Q804.555 1463.08 805.573 1462.92 Q806.592 1462.73 807.61 1462.73 Q813.397 1462.73 816.777 1465.9 Q820.157 1469.08 820.157 1474.49 Q820.157 1480.07 816.684 1483.17 Q813.212 1486.25 806.893 1486.25 Q804.717 1486.25 802.448 1485.88 Q800.203 1485.51 797.796 1484.77 L797.796 1480.07 Q799.879 1481.2 802.101 1481.76 Q804.323 1482.32 806.8 1482.32 Q810.805 1482.32 813.143 1480.21 Q815.481 1478.1 815.481 1474.49 Q815.481 1470.88 813.143 1468.77 Q810.805 1466.67 806.8 1466.67 Q804.925 1466.67 803.05 1467.08 Q801.198 1467.5 799.254 1468.38 L799.254 1451.02 Z" fill="#000000" fill-rule="nonzero" fill-opacity="1"></path><path clip-path="url(#clip020)" d="M839.369 1454.1 Q835.758 1454.1 833.93 1457.66 Q832.124 1461.2 832.124 1468.33 Q832.124 1475.44 833.93 1479.01 Q835.758 1482.55 839.369 1482.55 Q843.004 1482.55 844.809 1479.01 Q846.638 1475.44 846.638 1468.33 Q846.638 1461.2 844.809 1457.66 Q843.004 1454.1 839.369 1454.1 M839.369 1450.39 Q845.18 1450.39 848.235 1455 Q851.314 1459.58 851.314 1468.33 Q851.314 1477.06 848.235 1481.67 Q845.18 1486.25 839.369 1486.25 Q833.559 1486.25 830.481 1481.67 Q827.425 1477.06 827.425 1468.33 Q827.425 1459.58 830.481 1455 Q833.559 1450.39 839.369 1450.39 Z" fill="#000000" fill-rule="nonzero" fill-opacity="1"></path><path clip-path="url(#clip020)" d="M1263.69 1451.02 L1282.05 1451.02 L1282.05 1454.96 L1267.97 1454.96 L1267.97 1463.43 Q1268.99 1463.08 1270.01 1462.92 Q1271.03 1462.73 1272.05 1462.73 Q1277.83 1462.73 1281.21 1465.9 Q1284.59 1469.08 1284.59 1474.49 Q1284.59 1480.07 1281.12 1483.17 Q1277.65 1486.25 1271.33 1486.25 Q1269.15 1486.25 1266.88 1485.88 Q1264.64 1485.51 1262.23 1484.77 L1262.23 1480.07 Q1264.31 1481.2 1266.54 1481.76 Q1268.76 1482.32 1271.24 1482.32 Q1275.24 1482.32 1277.58 1480.21 Q1279.92 1478.1 1279.92 1474.49 Q1279.92 1470.88 1277.58 1468.77 Q1275.24 1466.67 1271.24 1466.67 Q1269.36 1466.67 1267.49 1467.08 Q1265.63 1467.5 1263.69 1468.38 L1263.69 1451.02 Z" fill="#000000" fill-rule="nonzero" fill-opacity="1"></path><path clip-path="url(#clip020)" d="M1303.81 1454.1 Q1300.19 1454.1 1298.37 1457.66 Q1296.56 1461.2 1296.56 1468.33 Q1296.56 1475.44 1298.37 1479.01 Q1300.19 1482.55 1303.81 1482.55 Q1307.44 1482.55 1309.25 1479.01 Q1311.07 1475.44 1311.07 1468.33 Q1311.07 1461.2 1309.25 1457.66 Q1307.44 1454.1 1303.81 1454.1 M1303.81 1450.39 Q1309.62 1450.39 1312.67 1455 Q1315.75 1459.58 1315.75 1468.33 Q1315.75 1477.06 1312.67 1481.67 Q1309.62 1486.25 1303.81 1486.25 Q1298 1486.25 1294.92 1481.67 Q1291.86 1477.06 1291.86 1468.33 Q1291.86 1459.58 1294.92 1455 Q1298 1450.39 1303.81 1450.39 Z" fill="#000000" fill-rule="nonzero" fill-opacity="1"></path><path clip-path="url(#clip020)" d="M1333.97 1454.1 Q1330.36 1454.1 1328.53 1457.66 Q1326.72 1461.2 1326.72 1468.33 Q1326.72 1475.44 1328.53 1479.01 Q1330.36 1482.55 1333.97 1482.55 Q1337.6 1482.55 1339.41 1479.01 Q1341.24 1475.44 1341.24 1468.33 Q1341.24 1461.2 1339.41 1457.66 Q1337.6 1454.1 1333.97 1454.1 M1333.97 1450.39 Q1339.78 1450.39 1342.83 1455 Q1345.91 1459.58 1345.91 1468.33 Q1345.91 1477.06 1342.83 1481.67 Q1339.78 1486.25 1333.97 1486.25 Q1328.16 1486.25 1325.08 1481.67 Q1322.02 1477.06 1322.02 1468.33 Q1322.02 1459.58 1325.08 1455 Q1328.16 1450.39 1333.97 1450.39 Z" fill="#000000" fill-rule="nonzero" fill-opacity="1"></path><path clip-path="url(#clip020)" d="M1757.04 1451.02 L1779.26 1451.02 L1779.26 1453.01 L1766.71 1485.58 L1761.83 1485.58 L1773.63 1454.96 L1757.04 1454.96 L1757.04 1451.02 Z" fill="#000000" fill-rule="nonzero" fill-opacity="1"></path><path clip-path="url(#clip020)" d="M1788.43 1451.02 L1806.78 1451.02 L1806.78 1454.96 L1792.71 1454.96 L1792.71 1463.43 Q1793.73 1463.08 1794.75 1462.92 Q1795.76 1462.73 1796.78 1462.73 Q1802.57 1462.73 1805.95 1465.9 Q1809.33 1469.08 1809.33 1474.49 Q1809.33 1480.07 1805.86 1483.17 Q1802.38 1486.25 1796.07 1486.25 Q1793.89 1486.25 1791.62 1485.88 Q1789.38 1485.51 1786.97 1484.77 L1786.97 1480.07 Q1789.05 1481.2 1791.27 1481.76 Q1793.5 1482.32 1795.97 1482.32 Q1799.98 1482.32 1802.32 1480.21 Q1804.65 1478.1 1804.65 1474.49 Q1804.65 1470.88 1802.32 1468.77 Q1799.98 1466.67 1795.97 1466.67 Q1794.1 1466.67 1792.22 1467.08 Q1790.37 1467.5 1788.43 1468.38 L1788.43 1451.02 Z" fill="#000000" fill-rule="nonzero" fill-opacity="1"></path><path clip-path="url(#clip020)" d="M1828.54 1454.1 Q1824.93 1454.1 1823.1 1457.66 Q1821.3 1461.2 1821.3 1468.33 Q1821.3 1475.44 1823.1 1479.01 Q1824.93 1482.55 1828.54 1482.55 Q1832.18 1482.55 1833.98 1479.01 Q1835.81 1475.44 1835.81 1468.33 Q1835.81 1461.2 1833.98 1457.66 Q1832.18 1454.1 1828.54 1454.1 M1828.54 1450.39 Q1834.35 1450.39 1837.41 1455 Q1840.49 1459.58 1840.49 1468.33 Q1840.49 1477.06 1837.41 1481.67 Q1834.35 1486.25 1828.54 1486.25 Q1822.73 1486.25 1819.65 1481.67 Q1816.6 1477.06 1816.6 1468.33 Q1816.6 1459.58 1819.65 1455 Q1822.73 1450.39 1828.54 1450.39 Z" fill="#000000" fill-rule="nonzero" fill-opacity="1"></path><path clip-path="url(#clip020)" d="M2237.98 1481.64 L2245.62 1481.64 L2245.62 1455.28 L2237.31 1456.95 L2237.31 1452.69 L2245.57 1451.02 L2250.25 1451.02 L2250.25 1481.64 L2257.89 1481.64 L2257.89 1485.58 L2237.98 1485.58 L2237.98 1481.64 Z" fill="#000000" fill-rule="nonzero" fill-opacity="1"></path><path clip-path="url(#clip020)" d="M2277.33 1454.1 Q2273.72 1454.1 2271.89 1457.66 Q2270.08 1461.2 2270.08 1468.33 Q2270.08 1475.44 2271.89 1479.01 Q2273.72 1482.55 2277.33 1482.55 Q2280.96 1482.55 2282.77 1479.01 Q2284.6 1475.44 2284.6 1468.33 Q2284.6 1461.2 2282.77 1457.66 Q2280.96 1454.1 2277.33 1454.1 M2277.33 1450.39 Q2283.14 1450.39 2286.2 1455 Q2289.27 1459.58 2289.27 1468.33 Q2289.27 1477.06 2286.2 1481.67 Q2283.14 1486.25 2277.33 1486.25 Q2271.52 1486.25 2268.44 1481.67 Q2265.39 1477.06 2265.39 1468.33 Q2265.39 1459.58 2268.44 1455 Q2271.52 1450.39 2277.33 1450.39 Z" fill="#000000" fill-rule="nonzero" fill-opacity="1"></path><path clip-path="url(#clip020)" d="M2307.49 1454.1 Q2303.88 1454.1 2302.05 1457.66 Q2300.25 1461.2 2300.25 1468.33 Q2300.25 1475.44 2302.05 1479.01 Q2303.88 1482.55 2307.49 1482.55 Q2311.13 1482.55 2312.93 1479.01 Q2314.76 1475.44 2314.76 1468.33 Q2314.76 1461.2 2312.93 1457.66 Q2311.13 1454.1 2307.49 1454.1 M2307.49 1450.39 Q2313.3 1450.39 2316.36 1455 Q2319.44 1459.58 2319.44 1468.33 Q2319.44 1477.06 2316.36 1481.67 Q2313.3 1486.25 2307.49 1486.25 Q2301.68 1486.25 2298.6 1481.67 Q2295.55 1477.06 2295.55 1468.33 Q2295.55 1459.58 2298.6 1455 Q2301.68 1450.39 2307.49 1450.39 Z" fill="#000000" fill-rule="nonzero" fill-opacity="1"></path><path clip-path="url(#clip020)" d="M2337.65 1454.1 Q2334.04 1454.1 2332.21 1457.66 Q2330.41 1461.2 2330.41 1468.33 Q2330.41 1475.44 2332.21 1479.01 Q2334.04 1482.55 2337.65 1482.55 Q2341.29 1482.55 2343.09 1479.01 Q2344.92 1475.44 2344.92 1468.33 Q2344.92 1461.2 2343.09 1457.66 Q2341.29 1454.1 2337.65 1454.1 M2337.65 1450.39 Q2343.46 1450.39 2346.52 1455 Q2349.6 1459.58 2349.6 1468.33 Q2349.6 1477.06 2346.52 1481.67 Q2343.46 1486.25 2337.65 1486.25 Q2331.84 1486.25 2328.76 1481.67 Q2325.71 1477.06 2325.71 1468.33 Q2325.71 1459.58 2328.76 1455 Q2331.84 1450.39 2337.65 1450.39 Z" fill="#000000" fill-rule="nonzero" fill-opacity="1"></path><path clip-path="url(#clip020)" d="M1219.6 1520.52 L1226.03 1520.52 L1226.03 1568.04 L1219.6 1568.04 L1219.6 1520.52 Z" fill="#000000" fill-rule="nonzero" fill-opacity="1"></path><path clip-path="url(#clip020)" d="M1268.2 1546.53 L1268.2 1568.04 L1262.35 1568.04 L1262.35 1546.72 Q1262.35 1541.66 1260.37 1539.14 Q1258.4 1536.63 1254.45 1536.63 Q1249.71 1536.63 1246.97 1539.65 Q1244.24 1542.68 1244.24 1547.9 L1244.24 1568.04 L1238.35 1568.04 L1238.35 1532.4 L1244.24 1532.4 L1244.24 1537.93 Q1246.34 1534.72 1249.17 1533.13 Q1252.03 1531.54 1255.76 1531.54 Q1261.9 1531.54 1265.05 1535.36 Q1268.2 1539.14 1268.2 1546.53 Z" fill="#000000" fill-rule="nonzero" fill-opacity="1"></path><path clip-path="url(#clip020)" d="M1303.34 1537.81 L1303.34 1518.52 L1309.2 1518.52 L1309.2 1568.04 L1303.34 1568.04 L1303.34 1562.7 Q1301.5 1565.88 1298.66 1567.44 Q1295.86 1568.97 1291.92 1568.97 Q1285.45 1568.97 1281.38 1563.81 Q1277.34 1558.65 1277.34 1550.25 Q1277.34 1541.85 1281.38 1536.69 Q1285.45 1531.54 1291.92 1531.54 Q1295.86 1531.54 1298.66 1533.1 Q1301.5 1534.62 1303.34 1537.81 M1283.39 1550.25 Q1283.39 1556.71 1286.03 1560.4 Q1288.7 1564.07 1293.35 1564.07 Q1298 1564.07 1300.67 1560.4 Q1303.34 1556.71 1303.34 1550.25 Q1303.34 1543.79 1300.67 1540.13 Q1298 1536.44 1293.35 1536.44 Q1288.7 1536.44 1286.03 1540.13 Q1283.39 1543.79 1283.39 1550.25 Z" fill="#000000" fill-rule="nonzero" fill-opacity="1"></path><path clip-path="url(#clip020)" d="M1351.75 1548.76 L1351.75 1551.62 L1324.83 1551.62 Q1325.21 1557.67 1328.45 1560.85 Q1331.73 1564 1337.56 1564 Q1340.93 1564 1344.08 1563.17 Q1347.27 1562.35 1350.38 1560.69 L1350.38 1566.23 Q1347.23 1567.57 1343.92 1568.27 Q1340.61 1568.97 1337.21 1568.97 Q1328.68 1568.97 1323.68 1564 Q1318.72 1559.04 1318.72 1550.57 Q1318.72 1541.82 1323.43 1536.69 Q1328.17 1531.54 1336.19 1531.54 Q1343.38 1531.54 1347.55 1536.18 Q1351.75 1540.8 1351.75 1548.76 M1345.9 1547.04 Q1345.83 1542.23 1343.19 1539.37 Q1340.58 1536.5 1336.25 1536.5 Q1331.35 1536.5 1328.39 1539.27 Q1325.46 1542.04 1325.02 1547.07 L1345.9 1547.04 Z" fill="#000000" fill-rule="nonzero" fill-opacity="1"></path><path clip-path="url(#clip020)" d="M1389.85 1532.4 L1376.96 1549.74 L1390.52 1568.04 L1383.61 1568.04 L1373.24 1554.04 L1362.86 1568.04 L1355.95 1568.04 L1369.8 1549.39 L1357.13 1532.4 L1364.04 1532.4 L1373.49 1545.1 L1382.95 1532.4 L1389.85 1532.4 Z" fill="#000000" fill-rule="nonzero" fill-opacity="1"></path><polyline clip-path="url(#clip022)" style="stroke:#000000; stroke-linecap:round; stroke-linejoin:round; stroke-width:2; stroke-opacity:0.1; fill:none" points="257.366,1328.32 2352.76,1328.32 "></polyline>
<polyline clip-path="url(#clip022)" style="stroke:#000000; stroke-linecap:round; stroke-linejoin:round; stroke-width:2; stroke-opacity:0.1; fill:none" points="257.366,1076.23 2352.76,1076.23 "></polyline>
<polyline clip-path="url(#clip022)" style="stroke:#000000; stroke-linecap:round; stroke-linejoin:round; stroke-width:2; stroke-opacity:0.1; fill:none" points="257.366,824.139 2352.76,824.139 "></polyline>
<polyline clip-path="url(#clip022)" style="stroke:#000000; stroke-linecap:round; stroke-linejoin:round; stroke-width:2; stroke-opacity:0.1; fill:none" points="257.366,572.047 2352.76,572.047 "></polyline>
<polyline clip-path="url(#clip022)" style="stroke:#000000; stroke-linecap:round; stroke-linejoin:round; stroke-width:2; stroke-opacity:0.1; fill:none" points="257.366,319.955 2352.76,319.955 "></polyline>
<polyline clip-path="url(#clip020)" style="stroke:#000000; stroke-linecap:round; stroke-linejoin:round; stroke-width:4; stroke-opacity:1; fill:none" points="257.366,1423.18 257.366,123.472 "></polyline>
<polyline clip-path="url(#clip020)" style="stroke:#000000; stroke-linecap:round; stroke-linejoin:round; stroke-width:4; stroke-opacity:1; fill:none" points="257.366,1328.32 276.264,1328.32 "></polyline>
<polyline clip-path="url(#clip020)" style="stroke:#000000; stroke-linecap:round; stroke-linejoin:round; stroke-width:4; stroke-opacity:1; fill:none" points="257.366,1076.23 276.264,1076.23 "></polyline>
<polyline clip-path="url(#clip020)" style="stroke:#000000; stroke-linecap:round; stroke-linejoin:round; stroke-width:4; stroke-opacity:1; fill:none" points="257.366,824.139 276.264,824.139 "></polyline>
<polyline clip-path="url(#clip020)" style="stroke:#000000; stroke-linecap:round; stroke-linejoin:round; stroke-width:4; stroke-opacity:1; fill:none" points="257.366,572.047 276.264,572.047 "></polyline>
<polyline clip-path="url(#clip020)" style="stroke:#000000; stroke-linecap:round; stroke-linejoin:round; stroke-width:4; stroke-opacity:1; fill:none" points="257.366,319.955 276.264,319.955 "></polyline>
<path clip-path="url(#clip020)" d="M114.26 1328.77 L143.936 1328.77 L143.936 1332.71 L114.26 1332.71 L114.26 1328.77 Z" fill="#000000" fill-rule="nonzero" fill-opacity="1"></path><path clip-path="url(#clip020)" d="M164.028 1314.12 Q160.417 1314.12 158.589 1317.69 Q156.783 1321.23 156.783 1328.36 Q156.783 1335.46 158.589 1339.03 Q160.417 1342.57 164.028 1342.57 Q167.663 1342.57 169.468 1339.03 Q171.297 1335.46 171.297 1328.36 Q171.297 1321.23 169.468 1317.69 Q167.663 1314.12 164.028 1314.12 M164.028 1310.42 Q169.839 1310.42 172.894 1315.02 Q175.973 1319.61 175.973 1328.36 Q175.973 1337.08 172.894 1341.69 Q169.839 1346.27 164.028 1346.27 Q158.218 1346.27 155.14 1341.69 Q152.084 1337.08 152.084 1328.36 Q152.084 1319.61 155.14 1315.02 Q158.218 1310.42 164.028 1310.42 Z" fill="#000000" fill-rule="nonzero" fill-opacity="1"></path><path clip-path="url(#clip020)" d="M184.19 1339.72 L189.075 1339.72 L189.075 1345.6 L184.19 1345.6 L184.19 1339.72 Z" fill="#000000" fill-rule="nonzero" fill-opacity="1"></path><path clip-path="url(#clip020)" d="M209.838 1326.46 Q206.69 1326.46 204.838 1328.61 Q203.01 1330.77 203.01 1334.51 Q203.01 1338.24 204.838 1340.42 Q206.69 1342.57 209.838 1342.57 Q212.986 1342.57 214.815 1340.42 Q216.667 1338.24 216.667 1334.51 Q216.667 1330.77 214.815 1328.61 Q212.986 1326.46 209.838 1326.46 M219.121 1311.81 L219.121 1316.07 Q217.361 1315.23 215.556 1314.79 Q213.774 1314.35 212.014 1314.35 Q207.385 1314.35 204.931 1317.48 Q202.5 1320.6 202.153 1326.92 Q203.519 1324.91 205.579 1323.84 Q207.639 1322.76 210.116 1322.76 Q215.324 1322.76 218.334 1325.93 Q221.366 1329.08 221.366 1334.51 Q221.366 1339.84 218.218 1343.06 Q215.07 1346.27 209.838 1346.27 Q203.843 1346.27 200.672 1341.69 Q197.5 1337.08 197.5 1328.36 Q197.5 1320.16 201.389 1315.3 Q205.278 1310.42 211.829 1310.42 Q213.588 1310.42 215.371 1310.77 Q217.176 1311.11 219.121 1311.81 Z" fill="#000000" fill-rule="nonzero" fill-opacity="1"></path><path clip-path="url(#clip020)" d="M115.07 1076.68 L144.746 1076.68 L144.746 1080.62 L115.07 1080.62 L115.07 1076.68 Z" fill="#000000" fill-rule="nonzero" fill-opacity="1"></path><path clip-path="url(#clip020)" d="M164.839 1062.03 Q161.227 1062.03 159.399 1065.59 Q157.593 1069.14 157.593 1076.27 Q157.593 1083.37 159.399 1086.94 Q161.227 1090.48 164.839 1090.48 Q168.473 1090.48 170.278 1086.94 Q172.107 1083.37 172.107 1076.27 Q172.107 1069.14 170.278 1065.59 Q168.473 1062.03 164.839 1062.03 M164.839 1058.33 Q170.649 1058.33 173.704 1062.93 Q176.783 1067.52 176.783 1076.27 Q176.783 1084.99 173.704 1089.6 Q170.649 1094.18 164.839 1094.18 Q159.028 1094.18 155.95 1089.6 Q152.894 1084.99 152.894 1076.27 Q152.894 1067.52 155.95 1062.93 Q159.028 1058.33 164.839 1058.33 Z" fill="#000000" fill-rule="nonzero" fill-opacity="1"></path><path clip-path="url(#clip020)" d="M185.001 1087.63 L189.885 1087.63 L189.885 1093.51 L185.001 1093.51 L185.001 1087.63 Z" fill="#000000" fill-rule="nonzero" fill-opacity="1"></path><path clip-path="url(#clip020)" d="M214.236 1074.88 Q217.593 1075.59 219.468 1077.86 Q221.366 1080.13 221.366 1083.46 Q221.366 1088.58 217.848 1091.38 Q214.329 1094.18 207.848 1094.18 Q205.672 1094.18 203.357 1093.74 Q201.065 1093.33 198.612 1092.47 L198.612 1087.96 Q200.556 1089.09 202.871 1089.67 Q205.186 1090.25 207.709 1090.25 Q212.107 1090.25 214.399 1088.51 Q216.713 1086.77 216.713 1083.46 Q216.713 1080.41 214.561 1078.7 Q212.431 1076.96 208.612 1076.96 L204.584 1076.96 L204.584 1073.12 L208.797 1073.12 Q212.246 1073.12 214.074 1071.75 Q215.903 1070.36 215.903 1067.77 Q215.903 1065.11 214.005 1063.7 Q212.13 1062.26 208.612 1062.26 Q206.69 1062.26 204.491 1062.68 Q202.292 1063.09 199.653 1063.97 L199.653 1059.81 Q202.315 1059.07 204.63 1058.7 Q206.968 1058.33 209.028 1058.33 Q214.352 1058.33 217.454 1060.76 Q220.556 1063.16 220.556 1067.28 Q220.556 1070.15 218.912 1072.15 Q217.269 1074.11 214.236 1074.88 Z" fill="#000000" fill-rule="nonzero" fill-opacity="1"></path><path clip-path="url(#clip020)" d="M164.19 809.938 Q160.579 809.938 158.751 813.503 Q156.945 817.044 156.945 824.174 Q156.945 831.28 158.751 834.845 Q160.579 838.387 164.19 838.387 Q167.825 838.387 169.63 834.845 Q171.459 831.28 171.459 824.174 Q171.459 817.044 169.63 813.503 Q167.825 809.938 164.19 809.938 M164.19 806.234 Q170.001 806.234 173.056 810.841 Q176.135 815.424 176.135 824.174 Q176.135 832.901 173.056 837.507 Q170.001 842.09 164.19 842.09 Q158.38 842.09 155.302 837.507 Q152.246 832.901 152.246 824.174 Q152.246 815.424 155.302 810.841 Q158.38 806.234 164.19 806.234 Z" fill="#000000" fill-rule="nonzero" fill-opacity="1"></path><path clip-path="url(#clip020)" d="M184.352 835.539 L189.237 835.539 L189.237 841.419 L184.352 841.419 L184.352 835.539 Z" fill="#000000" fill-rule="nonzero" fill-opacity="1"></path><path clip-path="url(#clip020)" d="M209.422 809.938 Q205.811 809.938 203.982 813.503 Q202.176 817.044 202.176 824.174 Q202.176 831.28 203.982 834.845 Q205.811 838.387 209.422 838.387 Q213.056 838.387 214.861 834.845 Q216.69 831.28 216.69 824.174 Q216.69 817.044 214.861 813.503 Q213.056 809.938 209.422 809.938 M209.422 806.234 Q215.232 806.234 218.287 810.841 Q221.366 815.424 221.366 824.174 Q221.366 832.901 218.287 837.507 Q215.232 842.09 209.422 842.09 Q203.612 842.09 200.533 837.507 Q197.477 832.901 197.477 824.174 Q197.477 815.424 200.533 810.841 Q203.612 806.234 209.422 806.234 Z" fill="#000000" fill-rule="nonzero" fill-opacity="1"></path><path clip-path="url(#clip020)" d="M164.839 557.846 Q161.227 557.846 159.399 561.411 Q157.593 564.952 157.593 572.082 Q157.593 579.188 159.399 582.753 Q161.227 586.295 164.839 586.295 Q168.473 586.295 170.278 582.753 Q172.107 579.188 172.107 572.082 Q172.107 564.952 170.278 561.411 Q168.473 557.846 164.839 557.846 M164.839 554.142 Q170.649 554.142 173.704 558.749 Q176.783 563.332 176.783 572.082 Q176.783 580.809 173.704 585.415 Q170.649 589.998 164.839 589.998 Q159.028 589.998 155.95 585.415 Q152.894 580.809 152.894 572.082 Q152.894 563.332 155.95 558.749 Q159.028 554.142 164.839 554.142 Z" fill="#000000" fill-rule="nonzero" fill-opacity="1"></path><path clip-path="url(#clip020)" d="M185.001 583.448 L189.885 583.448 L189.885 589.327 L185.001 589.327 L185.001 583.448 Z" fill="#000000" fill-rule="nonzero" fill-opacity="1"></path><path clip-path="url(#clip020)" d="M214.236 570.693 Q217.593 571.411 219.468 573.679 Q221.366 575.948 221.366 579.281 Q221.366 584.397 217.848 587.198 Q214.329 589.998 207.848 589.998 Q205.672 589.998 203.357 589.559 Q201.065 589.142 198.612 588.285 L198.612 583.772 Q200.556 584.906 202.871 585.485 Q205.186 586.063 207.709 586.063 Q212.107 586.063 214.399 584.327 Q216.713 582.591 216.713 579.281 Q216.713 576.225 214.561 574.512 Q212.431 572.776 208.612 572.776 L204.584 572.776 L204.584 568.934 L208.797 568.934 Q212.246 568.934 214.074 567.568 Q215.903 566.179 215.903 563.587 Q215.903 560.925 214.005 559.512 Q212.13 558.077 208.612 558.077 Q206.69 558.077 204.491 558.494 Q202.292 558.911 199.653 559.79 L199.653 555.624 Q202.315 554.883 204.63 554.513 Q206.968 554.142 209.028 554.142 Q214.352 554.142 217.454 556.573 Q220.556 558.98 220.556 563.1 Q220.556 565.971 218.912 567.962 Q217.269 569.929 214.236 570.693 Z" fill="#000000" fill-rule="nonzero" fill-opacity="1"></path><path clip-path="url(#clip020)" d="M164.028 305.754 Q160.417 305.754 158.589 309.319 Q156.783 312.86 156.783 319.99 Q156.783 327.096 158.589 330.661 Q160.417 334.203 164.028 334.203 Q167.663 334.203 169.468 330.661 Q171.297 327.096 171.297 319.99 Q171.297 312.86 169.468 309.319 Q167.663 305.754 164.028 305.754 M164.028 302.05 Q169.839 302.05 172.894 306.657 Q175.973 311.24 175.973 319.99 Q175.973 328.717 172.894 333.323 Q169.839 337.907 164.028 337.907 Q158.218 337.907 155.14 333.323 Q152.084 328.717 152.084 319.99 Q152.084 311.24 155.14 306.657 Q158.218 302.05 164.028 302.05 Z" fill="#000000" fill-rule="nonzero" fill-opacity="1"></path><path clip-path="url(#clip020)" d="M184.19 331.356 L189.075 331.356 L189.075 337.235 L184.19 337.235 L184.19 331.356 Z" fill="#000000" fill-rule="nonzero" fill-opacity="1"></path><path clip-path="url(#clip020)" d="M209.838 318.092 Q206.69 318.092 204.838 320.245 Q203.01 322.397 203.01 326.147 Q203.01 329.874 204.838 332.05 Q206.69 334.203 209.838 334.203 Q212.986 334.203 214.815 332.05 Q216.667 329.874 216.667 326.147 Q216.667 322.397 214.815 320.245 Q212.986 318.092 209.838 318.092 M219.121 303.439 L219.121 307.698 Q217.361 306.865 215.556 306.425 Q213.774 305.985 212.014 305.985 Q207.385 305.985 204.931 309.11 Q202.5 312.235 202.153 318.555 Q203.519 316.541 205.579 315.476 Q207.639 314.388 210.116 314.388 Q215.324 314.388 218.334 317.559 Q221.366 320.708 221.366 326.147 Q221.366 331.471 218.218 334.689 Q215.07 337.907 209.838 337.907 Q203.843 337.907 200.672 333.323 Q197.5 328.717 197.5 319.99 Q197.5 311.796 201.389 306.934 Q205.278 302.05 211.829 302.05 Q213.588 302.05 215.371 302.397 Q217.176 302.745 219.121 303.439 Z" fill="#000000" fill-rule="nonzero" fill-opacity="1"></path><path clip-path="url(#clip020)" d="M18.0438 893.717 L24.314 893.717 Q22.5634 897.378 21.704 900.624 Q20.8447 903.871 20.8447 906.894 Q20.8447 912.146 22.8817 915.011 Q24.9187 917.843 28.6745 917.843 Q31.8255 917.843 33.4488 915.966 Q35.0402 914.056 36.0269 908.772 L36.8226 904.889 Q38.1912 897.696 41.6605 894.29 Q45.098 890.853 50.8908 890.853 Q57.7976 890.853 61.3624 895.5 Q64.9272 900.115 64.9272 909.059 Q64.9272 912.433 64.1633 916.252 Q63.3994 920.04 61.9035 924.114 L55.2831 924.114 Q57.4793 920.199 58.5933 916.443 Q59.7073 912.687 59.7073 909.059 Q59.7073 903.552 57.543 900.561 Q55.3786 897.569 51.3682 897.569 Q47.8671 897.569 45.8937 899.733 Q43.9204 901.866 42.9337 906.767 L42.1698 910.682 Q40.7375 917.875 37.682 921.09 Q34.6264 924.305 29.1837 924.305 Q22.8817 924.305 19.2532 919.88 Q15.6248 915.424 15.6248 907.626 Q15.6248 904.284 16.2295 900.815 Q16.8343 897.346 18.0438 893.717 Z" fill="#000000" fill-rule="nonzero" fill-opacity="1"></path><path clip-path="url(#clip020)" d="M28.3562 881.081 L28.3562 875.225 L64.0042 875.225 L64.0042 881.081 L28.3562 881.081 M14.479 881.081 L14.479 875.225 L21.895 875.225 L21.895 881.081 L14.479 881.081 Z" fill="#000000" fill-rule="nonzero" fill-opacity="1"></path><path clip-path="url(#clip020)" d="M35.1993 835.217 Q31.2526 833.02 29.3747 829.965 Q27.4968 826.909 27.4968 822.772 Q27.4968 817.202 31.4117 814.178 Q35.2948 811.154 42.4881 811.154 L64.0042 811.154 L64.0042 817.042 L42.679 817.042 Q37.5546 817.042 35.072 818.857 Q32.5894 820.671 32.5894 824.395 Q32.5894 828.946 35.6131 831.588 Q38.6368 834.23 43.8567 834.23 L64.0042 834.23 L64.0042 840.118 L42.679 840.118 Q37.5228 840.118 35.072 841.932 Q32.5894 843.747 32.5894 847.534 Q32.5894 852.022 35.6449 854.664 Q38.6686 857.306 43.8567 857.306 L64.0042 857.306 L64.0042 863.194 L28.3562 863.194 L28.3562 857.306 L33.8944 857.306 Q30.616 855.3 29.0564 852.499 Q27.4968 849.699 27.4968 845.847 Q27.4968 841.964 29.4702 839.259 Q31.4436 836.522 35.1993 835.217 Z" fill="#000000" fill-rule="nonzero" fill-opacity="1"></path><path clip-path="url(#clip020)" d="M28.3562 799.473 L28.3562 793.617 L64.0042 793.617 L64.0042 799.473 L28.3562 799.473 M14.479 799.473 L14.479 793.617 L21.895 793.617 L21.895 799.473 L14.479 799.473 Z" fill="#000000" fill-rule="nonzero" fill-opacity="1"></path><path clip-path="url(#clip020)" d="M14.479 781.363 L14.479 775.506 L64.0042 775.506 L64.0042 781.363 L14.479 781.363 Z" fill="#000000" fill-rule="nonzero" fill-opacity="1"></path><path clip-path="url(#clip020)" d="M46.0847 747.052 Q46.0847 754.149 47.7079 756.887 Q49.3312 759.624 53.2461 759.624 Q56.3653 759.624 58.2114 757.587 Q60.0256 755.518 60.0256 751.985 Q60.0256 747.115 56.5881 744.187 Q53.1188 741.227 47.3897 741.227 L46.0847 741.227 L46.0847 747.052 M43.6657 735.37 L64.0042 735.37 L64.0042 741.227 L58.5933 741.227 Q61.8398 743.232 63.3994 746.224 Q64.9272 749.216 64.9272 753.545 Q64.9272 759.019 61.8716 762.266 Q58.7843 765.48 53.6281 765.48 Q47.6125 765.48 44.5569 761.47 Q41.5014 757.428 41.5014 749.439 L41.5014 741.227 L40.9285 741.227 Q36.8862 741.227 34.6901 743.901 Q32.4621 746.542 32.4621 751.348 Q32.4621 754.404 33.1941 757.3 Q33.9262 760.197 35.3903 762.87 L29.9795 762.87 Q28.7381 759.656 28.1334 756.632 Q27.4968 753.608 27.4968 750.744 Q27.4968 743.009 31.5072 739.19 Q35.5176 735.37 43.6657 735.37 Z" fill="#000000" fill-rule="nonzero" fill-opacity="1"></path><path clip-path="url(#clip020)" d="M33.8307 702.651 Q33.2578 703.637 33.0032 704.815 Q32.7167 705.961 32.7167 707.361 Q32.7167 712.327 35.9632 715 Q39.1779 717.642 45.2253 717.642 L64.0042 717.642 L64.0042 723.53 L28.3562 723.53 L28.3562 717.642 L33.8944 717.642 Q30.6479 715.796 29.0883 712.836 Q27.4968 709.876 27.4968 705.643 Q27.4968 705.038 27.5923 704.306 Q27.656 703.574 27.8151 702.683 L33.8307 702.651 Z" fill="#000000" fill-rule="nonzero" fill-opacity="1"></path><path clip-path="url(#clip020)" d="M28.3562 696.508 L28.3562 690.651 L64.0042 690.651 L64.0042 696.508 L28.3562 696.508 M14.479 696.508 L14.479 690.651 L21.895 690.651 L21.895 696.508 L14.479 696.508 Z" fill="#000000" fill-rule="nonzero" fill-opacity="1"></path><path clip-path="url(#clip020)" d="M18.2347 672.605 L28.3562 672.605 L28.3562 660.542 L32.9077 660.542 L32.9077 672.605 L52.2594 672.605 Q56.6199 672.605 57.8613 671.427 Q59.1026 670.217 59.1026 666.557 L59.1026 660.542 L64.0042 660.542 L64.0042 666.557 Q64.0042 673.337 61.4897 675.915 Q58.9434 678.493 52.2594 678.493 L32.9077 678.493 L32.9077 682.79 L28.3562 682.79 L28.3562 678.493 L18.2347 678.493 L18.2347 672.605 Z" fill="#000000" fill-rule="nonzero" fill-opacity="1"></path><path clip-path="url(#clip020)" d="M67.3143 638.007 Q73.68 640.49 75.6216 642.845 Q77.5631 645.2 77.5631 649.147 L77.5631 653.826 L72.6615 653.826 L72.6615 650.388 Q72.6615 647.969 71.5157 646.633 Q70.3699 645.296 66.1048 643.672 L63.4312 642.622 L28.3562 657.04 L28.3562 650.834 L56.238 639.694 L28.3562 628.554 L28.3562 622.347 L67.3143 638.007 Z" fill="#000000" fill-rule="nonzero" fill-opacity="1"></path><path clip-path="url(#clip020)" d="M784.844 16.7545 L784.844 25.383 Q780.712 21.5346 776.013 19.6307 Q771.354 17.7268 766.088 17.7268 Q755.718 17.7268 750.209 24.0867 Q744.699 30.4061 744.699 42.3968 Q744.699 54.3469 750.209 60.7069 Q755.718 67.0263 766.088 67.0263 Q771.354 67.0263 776.013 65.1223 Q780.712 63.2184 784.844 59.3701 L784.844 67.9175 Q780.55 70.8341 775.729 72.2924 Q770.949 73.7508 765.602 73.7508 Q751.87 73.7508 743.97 65.3654 Q736.071 56.9395 736.071 42.3968 Q736.071 27.8135 743.97 19.4281 Q751.87 11.0023 765.602 11.0023 Q771.03 11.0023 775.81 12.4606 Q780.631 13.8784 784.844 16.7545 Z" fill="#000000" fill-rule="nonzero" fill-opacity="1"></path><path clip-path="url(#clip020)" d="M814.74 32.4315 Q808.744 32.4315 805.26 37.1306 Q801.777 41.7891 801.777 49.9314 Q801.777 58.0738 805.22 62.7728 Q808.704 67.4314 814.74 67.4314 Q820.694 67.4314 824.178 62.7323 Q827.662 58.0333 827.662 49.9314 Q827.662 41.8701 824.178 37.1711 Q820.694 32.4315 814.74 32.4315 M814.74 26.1121 Q824.462 26.1121 830.011 32.4315 Q835.561 38.7509 835.561 49.9314 Q835.561 61.0714 830.011 67.4314 Q824.462 73.7508 814.74 73.7508 Q804.977 73.7508 799.427 67.4314 Q793.918 61.0714 793.918 49.9314 Q793.918 38.7509 799.427 32.4315 Q804.977 26.1121 814.74 26.1121 Z" fill="#000000" fill-rule="nonzero" fill-opacity="1"></path><path clip-path="url(#clip020)" d="M876.84 28.5427 L876.84 35.5912 Q873.68 33.9709 870.277 33.1607 Q866.875 32.3505 863.229 32.3505 Q857.679 32.3505 854.884 34.0519 Q852.129 35.7533 852.129 39.156 Q852.129 41.7486 854.114 43.2475 Q856.099 44.7058 862.095 46.0426 L864.647 46.6097 Q872.586 48.3111 875.908 51.4303 Q879.27 54.509 879.27 60.0587 Q879.27 66.3781 874.247 70.0644 Q869.265 73.7508 860.515 73.7508 Q856.869 73.7508 852.899 73.0216 Q848.97 72.3329 844.595 70.9151 L844.595 63.2184 Q848.727 65.3654 852.737 66.4591 Q856.747 67.5124 860.677 67.5124 Q865.943 67.5124 868.779 65.73 Q871.614 63.9071 871.614 60.6258 Q871.614 57.5877 869.548 55.9673 Q867.523 54.3469 860.596 52.8481 L858.003 52.2405 Q851.076 50.7821 847.997 47.7845 Q844.919 44.7463 844.919 39.4801 Q844.919 33.0797 849.456 29.5959 Q853.993 26.1121 862.338 26.1121 Q866.47 26.1121 870.115 26.7198 Q873.761 27.3274 876.84 28.5427 Z" fill="#000000" fill-rule="nonzero" fill-opacity="1"></path><path clip-path="url(#clip020)" d="M891.14 27.2059 L898.593 27.2059 L898.593 72.576 L891.14 72.576 L891.14 27.2059 M891.14 9.54393 L898.593 9.54393 L898.593 18.9825 L891.14 18.9825 L891.14 9.54393 Z" fill="#000000" fill-rule="nonzero" fill-opacity="1"></path><path clip-path="url(#clip020)" d="M951.903 45.1919 L951.903 72.576 L944.449 72.576 L944.449 45.4349 Q944.449 38.994 941.938 35.7938 Q939.426 32.5936 934.403 32.5936 Q928.367 32.5936 924.884 36.4419 Q921.4 40.2903 921.4 46.9338 L921.4 72.576 L913.906 72.576 L913.906 27.2059 L921.4 27.2059 L921.4 34.2544 Q924.073 30.163 927.679 28.1376 Q931.325 26.1121 936.064 26.1121 Q943.882 26.1121 947.893 30.9732 Q951.903 35.7938 951.903 45.1919 Z" fill="#000000" fill-rule="nonzero" fill-opacity="1"></path><path clip-path="url(#clip020)" d="M1005.58 48.0275 L1005.58 51.6733 L971.307 51.6733 Q971.793 59.3701 975.925 63.421 Q980.097 67.4314 987.511 67.4314 Q991.805 67.4314 995.815 66.3781 Q999.866 65.3249 1003.84 63.2184 L1003.84 70.267 Q999.825 71.9684 995.612 72.8596 Q991.399 73.7508 987.065 73.7508 Q976.209 73.7508 969.849 67.4314 Q963.529 61.1119 963.529 50.3365 Q963.529 39.1965 969.525 32.6746 Q975.56 26.1121 985.769 26.1121 Q994.924 26.1121 1000.23 32.0264 Q1005.58 37.9003 1005.58 48.0275 M998.124 45.84 Q998.043 39.7232 994.681 36.0774 Q991.359 32.4315 985.85 32.4315 Q979.611 32.4315 975.844 35.9558 Q972.117 39.4801 971.55 45.8805 L998.124 45.84 Z" fill="#000000" fill-rule="nonzero" fill-opacity="1"></path><path clip-path="url(#clip020)" d="M1073.11 28.5427 L1073.11 35.5912 Q1069.95 33.9709 1066.54 33.1607 Q1063.14 32.3505 1059.5 32.3505 Q1053.95 32.3505 1051.15 34.0519 Q1048.4 35.7533 1048.4 39.156 Q1048.4 41.7486 1050.38 43.2475 Q1052.37 44.7058 1058.36 46.0426 L1060.91 46.6097 Q1068.85 48.3111 1072.17 51.4303 Q1075.54 54.509 1075.54 60.0587 Q1075.54 66.3781 1070.51 70.0644 Q1065.53 73.7508 1056.78 73.7508 Q1053.14 73.7508 1049.17 73.0216 Q1045.24 72.3329 1040.86 70.9151 L1040.86 63.2184 Q1044.99 65.3654 1049 66.4591 Q1053.01 67.5124 1056.94 67.5124 Q1062.21 67.5124 1065.04 65.73 Q1067.88 63.9071 1067.88 60.6258 Q1067.88 57.5877 1065.81 55.9673 Q1063.79 54.3469 1056.86 52.8481 L1054.27 52.2405 Q1047.34 50.7821 1044.26 47.7845 Q1041.19 44.7463 1041.19 39.4801 Q1041.19 33.0797 1045.72 29.5959 Q1050.26 26.1121 1058.6 26.1121 Q1062.74 26.1121 1066.38 26.7198 Q1070.03 27.3274 1073.11 28.5427 Z" fill="#000000" fill-rule="nonzero" fill-opacity="1"></path><path clip-path="url(#clip020)" d="M1087.41 27.2059 L1094.86 27.2059 L1094.86 72.576 L1087.41 72.576 L1087.41 27.2059 M1087.41 9.54393 L1094.86 9.54393 L1094.86 18.9825 L1087.41 18.9825 L1087.41 9.54393 Z" fill="#000000" fill-rule="nonzero" fill-opacity="1"></path><path clip-path="url(#clip020)" d="M1145.78 35.9153 Q1148.57 30.8922 1152.46 28.5022 Q1156.35 26.1121 1161.62 26.1121 Q1168.71 26.1121 1172.56 31.0947 Q1176.4 36.0368 1176.4 45.1919 L1176.4 72.576 L1168.91 72.576 L1168.91 45.4349 Q1168.91 38.913 1166.6 35.7533 Q1164.29 32.5936 1159.55 32.5936 Q1153.76 32.5936 1150.4 36.4419 Q1147.04 40.2903 1147.04 46.9338 L1147.04 72.576 L1139.54 72.576 L1139.54 45.4349 Q1139.54 38.8725 1137.23 35.7533 Q1134.92 32.5936 1130.1 32.5936 Q1124.39 32.5936 1121.03 36.4824 Q1117.67 40.3308 1117.67 46.9338 L1117.67 72.576 L1110.17 72.576 L1110.17 27.2059 L1117.67 27.2059 L1117.67 34.2544 Q1120.22 30.082 1123.78 28.0971 Q1127.35 26.1121 1132.25 26.1121 Q1137.19 26.1121 1140.63 28.6237 Q1144.12 31.1352 1145.78 35.9153 Z" fill="#000000" fill-rule="nonzero" fill-opacity="1"></path><path clip-path="url(#clip020)" d="M1220.19 28.5427 L1220.19 35.5912 Q1217.03 33.9709 1213.63 33.1607 Q1210.23 32.3505 1206.58 32.3505 Q1201.03 32.3505 1198.24 34.0519 Q1195.48 35.7533 1195.48 39.156 Q1195.48 41.7486 1197.47 43.2475 Q1199.45 44.7058 1205.45 46.0426 L1208 46.6097 Q1215.94 48.3111 1219.26 51.4303 Q1222.63 54.509 1222.63 60.0587 Q1222.63 66.3781 1217.6 70.0644 Q1212.62 73.7508 1203.87 73.7508 Q1200.22 73.7508 1196.25 73.0216 Q1192.32 72.3329 1187.95 70.9151 L1187.95 63.2184 Q1192.08 65.3654 1196.09 66.4591 Q1200.1 67.5124 1204.03 67.5124 Q1209.3 67.5124 1212.13 65.73 Q1214.97 63.9071 1214.97 60.6258 Q1214.97 57.5877 1212.9 55.9673 Q1210.88 54.3469 1203.95 52.8481 L1201.36 52.2405 Q1194.43 50.7821 1191.35 47.7845 Q1188.27 44.7463 1188.27 39.4801 Q1188.27 33.0797 1192.81 29.5959 Q1197.35 26.1121 1205.69 26.1121 Q1209.82 26.1121 1213.47 26.7198 Q1217.12 27.3274 1220.19 28.5427 Z" fill="#000000" fill-rule="nonzero" fill-opacity="1"></path><path clip-path="url(#clip020)" d="M1293.52 28.9478 L1293.52 35.9153 Q1290.36 34.1734 1287.16 33.3227 Q1284 32.4315 1280.76 32.4315 Q1273.5 32.4315 1269.49 37.0496 Q1265.48 41.6271 1265.48 49.9314 Q1265.48 58.2358 1269.49 62.8538 Q1273.5 67.4314 1280.76 67.4314 Q1284 67.4314 1287.16 66.5807 Q1290.36 65.6895 1293.52 63.9476 L1293.52 70.8341 Q1290.4 72.2924 1287.03 73.0216 Q1283.71 73.7508 1279.95 73.7508 Q1269.7 73.7508 1263.66 67.3098 Q1257.62 60.8689 1257.62 49.9314 Q1257.62 38.832 1263.7 32.472 Q1269.82 26.1121 1280.43 26.1121 Q1283.87 26.1121 1287.16 26.8413 Q1290.44 27.5299 1293.52 28.9478 Z" fill="#000000" fill-rule="nonzero" fill-opacity="1"></path><path clip-path="url(#clip020)" d="M1345.29 48.0275 L1345.29 51.6733 L1311.02 51.6733 Q1311.5 59.3701 1315.63 63.421 Q1319.81 67.4314 1327.22 67.4314 Q1331.51 67.4314 1335.52 66.3781 Q1339.57 65.3249 1343.54 63.2184 L1343.54 70.267 Q1339.53 71.9684 1335.32 72.8596 Q1331.11 73.7508 1326.77 73.7508 Q1315.92 73.7508 1309.56 67.4314 Q1303.24 61.1119 1303.24 50.3365 Q1303.24 39.1965 1309.23 32.6746 Q1315.27 26.1121 1325.48 26.1121 Q1334.63 26.1121 1339.94 32.0264 Q1345.29 37.9003 1345.29 48.0275 M1337.83 45.84 Q1337.75 39.7232 1334.39 36.0774 Q1331.07 32.4315 1325.56 32.4315 Q1319.32 32.4315 1315.55 35.9558 Q1311.83 39.4801 1311.26 45.8805 L1337.83 45.84 Z" fill="#000000" fill-rule="nonzero" fill-opacity="1"></path><path clip-path="url(#clip020)" d="M1357.52 9.54393 L1364.97 9.54393 L1364.97 72.576 L1357.52 72.576 L1357.52 9.54393 Z" fill="#000000" fill-rule="nonzero" fill-opacity="1"></path><path clip-path="url(#clip020)" d="M1380.57 9.54393 L1388.02 9.54393 L1388.02 72.576 L1380.57 72.576 L1380.57 9.54393 Z" fill="#000000" fill-rule="nonzero" fill-opacity="1"></path><path clip-path="url(#clip020)" d="M1448.54 43.8551 Q1442.71 43.8551 1439.35 46.9743 Q1436.03 50.0935 1436.03 55.5622 Q1436.03 61.0309 1439.35 64.1501 Q1442.71 67.2693 1448.54 67.2693 Q1454.38 67.2693 1457.74 64.1501 Q1461.1 60.9904 1461.1 55.5622 Q1461.1 50.0935 1457.74 46.9743 Q1454.42 43.8551 1448.54 43.8551 M1440.36 40.3713 Q1435.1 39.075 1432.14 35.4697 Q1429.22 31.8644 1429.22 26.6793 Q1429.22 19.4281 1434.37 15.2152 Q1439.55 11.0023 1448.54 11.0023 Q1457.58 11.0023 1462.72 15.2152 Q1467.87 19.4281 1467.87 26.6793 Q1467.87 31.8644 1464.91 35.4697 Q1461.99 39.075 1456.77 40.3713 Q1462.68 41.7486 1465.96 45.759 Q1469.28 49.7694 1469.28 55.5622 Q1469.28 64.3527 1463.9 69.0517 Q1458.55 73.7508 1448.54 73.7508 Q1438.54 73.7508 1433.15 69.0517 Q1427.8 64.3527 1427.8 55.5622 Q1427.8 49.7694 1431.13 45.759 Q1434.45 41.7486 1440.36 40.3713 M1437.36 27.4489 Q1437.36 32.148 1440.28 34.7811 Q1443.24 37.4142 1448.54 37.4142 Q1453.81 37.4142 1456.77 34.7811 Q1459.77 32.148 1459.77 27.4489 Q1459.77 22.7499 1456.77 20.1168 Q1453.81 17.4837 1448.54 17.4837 Q1443.24 17.4837 1440.28 20.1168 Q1437.36 22.7499 1437.36 27.4489 Z" fill="#000000" fill-rule="nonzero" fill-opacity="1"></path><path clip-path="url(#clip020)" d="M1483.91 12.096 L1516.03 12.096 L1516.03 18.9825 L1491.4 18.9825 L1491.4 33.8088 Q1493.18 33.2012 1494.97 32.9176 Q1496.75 32.5936 1498.53 32.5936 Q1508.66 32.5936 1514.57 38.1433 Q1520.49 43.6931 1520.49 53.1722 Q1520.49 62.9348 1514.41 68.3631 Q1508.34 73.7508 1497.28 73.7508 Q1493.47 73.7508 1489.5 73.1026 Q1485.57 72.4545 1481.36 71.1582 L1481.36 62.9348 Q1485 64.9198 1488.89 65.892 Q1492.78 66.8642 1497.11 66.8642 Q1504.12 66.8642 1508.21 63.1779 Q1512.31 59.4916 1512.31 53.1722 Q1512.31 46.8528 1508.21 43.1664 Q1504.12 39.4801 1497.11 39.4801 Q1493.83 39.4801 1490.55 40.2093 Q1487.31 40.9384 1483.91 42.4778 L1483.91 12.096 Z" fill="#000000" fill-rule="nonzero" fill-opacity="1"></path><path clip-path="url(#clip020)" d="M1554.11 17.4837 Q1547.79 17.4837 1544.59 23.7221 Q1541.43 29.92 1541.43 42.3968 Q1541.43 54.833 1544.59 61.0714 Q1547.79 67.2693 1554.11 67.2693 Q1560.47 67.2693 1563.63 61.0714 Q1566.83 54.833 1566.83 42.3968 Q1566.83 29.92 1563.63 23.7221 Q1560.47 17.4837 1554.11 17.4837 M1554.11 11.0023 Q1564.28 11.0023 1569.63 19.0636 Q1575.01 27.0843 1575.01 42.3968 Q1575.01 57.6687 1569.63 65.73 Q1564.28 73.7508 1554.11 73.7508 Q1543.94 73.7508 1538.56 65.73 Q1533.21 57.6687 1533.21 42.3968 Q1533.21 27.0843 1538.56 19.0636 Q1543.94 11.0023 1554.11 11.0023 Z" fill="#000000" fill-rule="nonzero" fill-opacity="1"></path><path clip-path="url(#clip020)" d="M1614.71 27.2059 L1622.17 27.2059 L1622.17 72.576 L1614.71 72.576 L1614.71 27.2059 M1614.71 9.54393 L1622.17 9.54393 L1622.17 18.9825 L1614.71 18.9825 L1614.71 9.54393 Z" fill="#000000" fill-rule="nonzero" fill-opacity="1"></path><path clip-path="url(#clip020)" d="M1645.13 14.324 L1645.13 27.2059 L1660.49 27.2059 L1660.49 32.9987 L1645.13 32.9987 L1645.13 57.6282 Q1645.13 63.1779 1646.63 64.7578 Q1648.17 66.3376 1652.83 66.3376 L1660.49 66.3376 L1660.49 72.576 L1652.83 72.576 Q1644.2 72.576 1640.92 69.3758 Q1637.64 66.1351 1637.64 57.6282 L1637.64 32.9987 L1632.17 32.9987 L1632.17 27.2059 L1637.64 27.2059 L1637.64 14.324 L1645.13 14.324 Z" fill="#000000" fill-rule="nonzero" fill-opacity="1"></path><path clip-path="url(#clip020)" d="M1709.1 48.0275 L1709.1 51.6733 L1674.83 51.6733 Q1675.31 59.3701 1679.45 63.421 Q1683.62 67.4314 1691.03 67.4314 Q1695.33 67.4314 1699.34 66.3781 Q1703.39 65.3249 1707.36 63.2184 L1707.36 70.267 Q1703.35 71.9684 1699.13 72.8596 Q1694.92 73.7508 1690.59 73.7508 Q1679.73 73.7508 1673.37 67.4314 Q1667.05 61.1119 1667.05 50.3365 Q1667.05 39.1965 1673.05 32.6746 Q1679.08 26.1121 1689.29 26.1121 Q1698.44 26.1121 1703.75 32.0264 Q1709.1 37.9003 1709.1 48.0275 M1701.64 45.84 Q1701.56 39.7232 1698.2 36.0774 Q1694.88 32.4315 1689.37 32.4315 Q1683.13 32.4315 1679.36 35.9558 Q1675.64 39.4801 1675.07 45.8805 L1701.64 45.84 Z" fill="#000000" fill-rule="nonzero" fill-opacity="1"></path><path clip-path="url(#clip020)" d="M1747.62 34.1734 Q1746.37 33.4443 1744.87 33.1202 Q1743.41 32.7556 1741.63 32.7556 Q1735.31 32.7556 1731.9 36.8875 Q1728.54 40.9789 1728.54 48.6757 L1728.54 72.576 L1721.05 72.576 L1721.05 27.2059 L1728.54 27.2059 L1728.54 34.2544 Q1730.89 30.1225 1734.66 28.1376 Q1738.43 26.1121 1743.81 26.1121 Q1744.58 26.1121 1745.52 26.2337 Q1746.45 26.3147 1747.58 26.5172 L1747.62 34.1734 Z" fill="#000000" fill-rule="nonzero" fill-opacity="1"></path><path clip-path="url(#clip020)" d="M1784.28 65.6895 L1797.65 65.6895 L1797.65 19.5497 L1783.11 22.4663 L1783.11 15.0127 L1797.57 12.096 L1805.75 12.096 L1805.75 65.6895 L1819.12 65.6895 L1819.12 72.576 L1784.28 72.576 L1784.28 65.6895 Z" fill="#000000" fill-rule="nonzero" fill-opacity="1"></path><path clip-path="url(#clip020)" d="M1853.15 17.4837 Q1846.83 17.4837 1843.63 23.7221 Q1840.47 29.92 1840.47 42.3968 Q1840.47 54.833 1843.63 61.0714 Q1846.83 67.2693 1853.15 67.2693 Q1859.51 67.2693 1862.67 61.0714 Q1865.87 54.833 1865.87 42.3968 Q1865.87 29.92 1862.67 23.7221 Q1859.51 17.4837 1853.15 17.4837 M1853.15 11.0023 Q1863.32 11.0023 1868.66 19.0636 Q1874.05 27.0843 1874.05 42.3968 Q1874.05 57.6687 1868.66 65.73 Q1863.32 73.7508 1853.15 73.7508 Q1842.98 73.7508 1837.59 65.73 Q1832.25 57.6687 1832.25 42.3968 Q1832.25 27.0843 1837.59 19.0636 Q1842.98 11.0023 1853.15 11.0023 Z" fill="#000000" fill-rule="nonzero" fill-opacity="1"></path><polyline clip-path="url(#clip022)" style="stroke:#009af9; stroke-linecap:round; stroke-linejoin:round; stroke-width:4; stroke-opacity:1; fill:none" points="316.67,524.218 318.648,293.875 320.627,506.216 322.606,650.499 324.585,522.897 326.563,583.895 328.542,443.677 330.521,328.548 332.5,601.495 334.478,433.68 336.457,645.361 338.436,675.209 340.415,418.649 342.393,557.208 344.372,364.507 346.351,661.747 348.33,615.932 350.308,578.978 352.287,570.507 354.266,481.131 356.245,644.975 358.224,465.283 360.202,597.639 362.181,513.866 364.16,510.45 366.139,540.111 368.117,776.426 370.096,549.796 372.075,535.425 374.054,771.054 376.032,597.601 378.011,657.514 379.99,358.459 381.969,444.358 383.947,673.453 385.926,527.464 387.905,380.73 389.884,631.439 391.862,534.841 393.841,517.563 395.82,592.881 397.799,523.216 399.778,523.251 401.756,749.254 403.735,568.854 405.714,540.069 407.693,455.429 409.671,488.895 411.65,545.07 413.629,437.782 415.608,380.884 417.586,555.718 419.565,652.257 421.544,528.479 423.523,595.69 425.501,204.777 427.48,455.271 429.459,512.72 431.438,648.148 433.416,658.491 435.395,272.487 437.374,510.549 439.353,649.322 441.332,547.439 443.31,522.013 445.289,549.552 447.268,524.306 449.247,556.49 451.225,493.597 453.204,554.056 455.183,639.584 457.162,544.47 459.14,619.346 461.119,548.328 463.098,484.569 465.077,332.104 467.055,552.404 469.034,653.939 471.013,305.14 472.992,496.925 474.97,376.78 476.949,373.612 478.928,248.936 480.907,746.367 482.886,425.133 484.864,464.336 486.843,514.847 488.822,527.337 490.801,515.032 492.779,610.605 494.758,698.806 496.737,482.534 498.716,431.237 500.694,468.1 502.673,480.788 504.652,573.051 506.631,550.6 508.609,426.959 510.588,571.276 512.567,201.257 514.546,684.041 516.524,639.009 518.503,568.239 520.482,437.939 522.461,465.874 524.44,423.601 526.418,631.757 528.397,342.725 530.376,550.891 532.355,365.595 534.333,613.923 536.312,572.864 538.291,563.723 540.27,717.029 542.248,596.76 544.227,315.221 546.206,484.76 548.185,311.372 550.163,577.864 552.142,611.074 554.121,484.534 556.1,506.297 558.078,594.043 560.057,639.585 562.036,655.111 564.015,509.284 565.994,620.746 567.972,316.099 569.951,666.926 571.93,340.145 573.909,491.612 575.887,465.966 577.866,292.495 579.845,474.375 581.824,569.235 583.802,453.122 585.781,366.011 587.76,634.341 589.739,455.08 591.717,379.178 593.696,521.721 595.675,543.939 597.654,347.068 599.632,349.887 601.611,303.862 603.59,590.977 605.569,330.181 607.548,414.965 609.526,338.144 611.505,452.863 613.484,593.882 615.463,362.316 617.441,559.887 619.42,531.114 621.399,531.225 623.378,519.64 625.356,535.147 627.335,578.229 629.314,579.182 631.293,478.512 633.271,576.318 635.25,627.959 637.229,537.873 639.208,436.626 641.186,449.357 643.165,629.7 645.144,640.179 647.123,572.875 649.102,541.686 651.08,651.448 653.059,460.43 655.038,553.391 657.017,413.485 658.995,742.128 660.974,671.468 662.953,560.23 664.932,337.274 666.91,619.552 668.889,523.423 670.868,510.46 672.847,422.348 674.825,578.258 676.804,445.308 678.783,554.486 680.762,632.081 682.74,581.578 684.719,361.234 686.698,548.246 688.677,589.986 690.655,554.524 692.634,486.303 694.613,314.956 696.592,556.041 698.571,521.174 700.549,407.137 702.528,600.489 704.507,385.981 706.486,585.194 708.464,321.036 710.443,326.632 712.422,249.684 714.401,301.7 716.379,607.372 718.358,513.691 720.337,469.365 722.316,502.687 724.294,438.956 726.273,568.649 728.252,285.317 730.231,449.132 732.209,580.862 734.188,425.102 736.167,581.624 738.146,557.933 740.125,378.386 742.103,413.353 744.082,574.543 746.061,392.041 748.04,249.152 750.018,160.256 751.997,672.435 753.976,477.839 755.955,510.166 757.933,371.66 759.912,511.952 761.891,414.45 763.87,326.868 765.848,317.185 767.827,538.739 769.806,793.841 771.785,617.272 773.763,643.189 775.742,433.609 777.721,541.109 779.7,588.445 781.679,541.804 783.657,536.463 785.636,379.378 787.615,661.671 789.594,443.044 791.572,486.086 793.551,616.34 795.53,631.31 797.509,767.721 799.487,534.335 801.466,593.942 803.445,583.955 805.424,338.701 807.402,346.236 809.381,185.038 811.36,1028.67 813.339,912.262 815.317,759.901 817.296,971.471 819.275,656.896 821.254,1212.64 823.233,1089.3 825.211,878.436 827.19,1047.8 829.169,799.909 831.148,907.147 833.126,1298.83 835.105,823.744 837.084,1162.79 839.063,970.905 841.041,553.129 843.02,892.15 844.999,746.333 846.978,956.566 848.956,931.471 850.935,1261.4 852.914,1099.71 854.893,993.936 856.871,1072.81 858.85,979.986 860.829,892.09 862.808,1077.11 864.787,1081.46 866.765,983.479 868.744,993.423 870.723,895.455 872.702,918.87 874.68,932.925 876.659,814.146 878.638,949.926 880.617,795.556 882.595,999.968 884.574,967.862 886.553,923.671 888.532,921.267 890.51,792.029 892.489,914.467 894.468,607.427 896.447,993.216 898.425,358.113 900.404,709.2 902.383,1096.4 904.362,1191.72 906.341,1363.31 908.319,855.161 910.298,868.843 912.277,897.966 914.256,1189.76 916.234,949.516 918.213,904.855 920.192,1135.71 922.171,966.847 924.149,903.089 926.128,837.237 928.107,1091 930.086,990.83 932.064,1026.9 934.043,1098.34 936.022,1093.85 938.001,881.469 939.979,872.211 941.958,930.976 943.937,1071.99 945.916,1093.03 947.895,1045.68 949.873,1088.01 951.852,1001.61 953.831,784.587 955.81,1146.92 957.788,704.241 959.767,1024.57 961.746,820.493 963.725,1008.27 965.703,1040.57 967.682,874.512 969.661,997.289 971.64,1017.91 973.618,812.735 975.597,1038.27 977.576,975.543 979.555,1060.35 981.533,910.947 983.512,959.153 985.491,1040.15 987.47,1126.9 989.449,925.128 991.427,1111.91 993.406,912.816 995.385,910.365 997.364,1304.96 999.342,1114 1001.32,1269.04 1003.3,1005.49 1005.28,899.28 1007.26,934.285 1009.24,703.548 1011.21,482.609 1013.19,886.992 1015.17,1179.14 1017.15,973.066 1019.13,949.556 1021.11,1115.14 1023.09,1192.89 1025.07,1155.22 1027.04,946.248 1029.02,728.658 1031,920.617 1032.98,1259.87 1034.96,962.564 1036.94,885.258 1038.92,1305.28 1040.9,1124.68 1042.88,764.892 1044.85,944.896 1046.83,1157.42 1048.81,1069.35 1050.79,1068.18 1052.77,702.865 1054.75,1178.13 1056.73,687.722 1058.71,1026.72 1060.68,1124.62 1062.66,832.14 1064.64,813.946 1066.62,984.808 1068.6,1039.27 1070.58,978.282 1072.56,1111.48 1074.54,1032.6 1076.51,974.167 1078.49,1053.64 1080.47,784.085 1082.45,947.592 1084.43,1064.03 1086.41,1231.68 1088.39,1008.02 1090.37,1056.02 1092.34,993.496 1094.32,1024.6 1096.3,1006.34 1098.28,641.314 1100.26,1024.66 1102.24,871.577 1104.22,742.723 1106.2,1016.34 1108.17,1102.2 1110.15,998.337 1112.13,832.959 1114.11,1200.09 1116.09,745.062 1118.07,825.292 1120.05,812.306 1122.03,1025.19 1124,994.382 1125.98,1042.53 1127.96,961.28 1129.94,915.664 1131.92,1129.7 1133.9,874.351 1135.88,764.083 1137.86,1185.08 1139.83,978.206 1141.81,901.92 1143.79,745.694 1145.77,1044.95 1147.75,892.551 1149.73,972.26 1151.71,1062.06 1153.69,922.903 1155.66,922.542 1157.64,844.56 1159.62,1182.64 1161.6,1075.79 1163.58,898.913 1165.56,945.158 1167.54,1121.23 1169.52,1076.5 1171.49,1072.48 1173.47,843.145 1175.45,838.253 1177.43,825.741 1179.41,1233.25 1181.39,708.498 1183.37,943.254 1185.35,1048.45 1187.32,896.627 1189.3,905.744 1191.28,866.548 1193.26,896.769 1195.24,1057.9 1197.22,1136.61 1199.2,880.305 1201.18,1037.5 1203.15,1276.28 1205.13,949.748 1207.11,917.806 1209.09,1064.44 1211.07,1036.86 1213.05,940.308 1215.03,1155.53 1217.01,1001.74 1218.98,1065.05 1220.96,859.294 1222.94,1136.62 1224.92,1089.68 1226.9,1192.06 1228.88,1228.04 1230.86,783.864 1232.84,1131.97 1234.81,864.157 1236.79,919.977 1238.77,970.517 1240.75,922.993 1242.73,936.476 1244.71,975.203 1246.69,986.713 1248.67,1063.07 1250.65,741.196 1252.62,1073.43 1254.6,1087.48 1256.58,778.508 1258.56,947.605 1260.54,1008.89 1262.52,1028.6 1264.5,753.671 1266.48,1054.94 1268.45,1107.41 1270.43,787.711 1272.41,946.272 1274.39,992.948 1276.37,910.667 1278.35,904.793 1280.33,774.587 1282.31,1033.6 1284.28,1034.17 1286.26,742.835 1288.24,710.928 1290.22,1058.3 1292.2,1386.4 1294.18,993.003 1296.16,937.776 1298.14,854.643 1300.11,1005.57 1302.09,749.314 1304.07,1028.27 1306.05,479.779 1308.03,609.828 1310.01,483.401 1311.99,644.339 1313.97,574.851 1315.94,595.795 1317.92,727.381 1319.9,785.825 1321.88,631.413 1323.86,679.967 1325.84,683.703 1327.82,462.979 1329.8,601.494 1331.77,523.369 1333.75,776.739 1335.73,706.309 1337.71,565.055 1339.69,811.979 1341.67,651.982 1343.65,596.891 1345.63,625.359 1347.6,962.981 1349.58,630.215 1351.56,640.229 1353.54,595.272 1355.52,638.175 1357.5,524.384 1359.48,739.427 1361.46,574.398 1363.43,593.066 1365.41,780.542 1367.39,642.784 1369.37,684.273 1371.35,626.171 1373.33,910.82 1375.31,703.767 1377.29,914.279 1379.26,840.609 1381.24,575.58 1383.22,858.405 1385.2,721.332 1387.18,725.115 1389.16,661.573 1391.14,768.197 1393.12,554.386 1395.09,879.888 1397.07,778.893 1399.05,782.593 1401.03,576.973 1403.01,785.987 1404.99,529.905 1406.97,1068.51 1408.95,845.444 1410.92,678.187 1412.9,602.538 1414.88,845.637 1416.86,896.649 1418.84,654.126 1420.82,937.176 1422.8,736.745 1424.78,639.874 1426.75,566.357 1428.73,670.638 1430.71,771.725 1432.69,806.711 1434.67,793.47 1436.65,775.399 1438.63,749.816 1440.61,758.088 1442.58,582.158 1444.56,664.27 1446.54,704.951 1448.52,794.381 1450.5,758.564 1452.48,689.397 1454.46,538.42 1456.44,794.312 1458.42,497.979 1460.39,594.573 1462.37,688.371 1464.35,512.688 1466.33,682.843 1468.31,704.196 1470.29,451.684 1472.27,769.267 1474.25,471.455 1476.22,769.221 1478.2,670.863 1480.18,615.096 1482.16,715.939 1484.14,435.18 1486.12,589.044 1488.1,845.29 1490.08,977.499 1492.05,675.995 1494.03,735.936 1496.01,611.304 1497.99,607.72 1499.97,602.185 1501.95,928.453 1503.93,546.792 1505.91,517.523 1507.88,738.355 1509.86,953.287 1511.84,752.256 1513.82,370.924 1515.8,382.39 1517.78,1049.43 1519.76,473.005 1521.74,850.919 1523.71,706.95 1525.69,617.339 1527.67,725.09 1529.65,586.849 1531.63,750.517 1533.61,532.02 1535.59,1025.58 1537.57,718.165 1539.54,674.858 1541.52,711.315 1543.5,782.356 1545.48,553.781 1547.46,473.706 1549.44,562.454 1551.42,835.675 1553.4,783.426 1555.37,906.534 1557.35,939.656 1559.33,757.508 1561.31,512.852 1563.29,401.184 1565.27,905.267 1567.25,759.117 1569.23,626.96 1571.2,575.354 1573.18,570.988 1575.16,917.254 1577.14,679.458 1579.12,608.119 1581.1,754.842 1583.08,729.284 1585.06,733.45 1587.03,718.32 1589.01,420.938 1590.99,817.519 1592.97,758.255 1594.95,563.246 1596.93,681.841 1598.91,375.53 1600.89,783.796 1602.86,727.209 1604.84,902.226 1606.82,666.049 1608.8,782.007 1610.78,481.641 1612.76,625.553 1614.74,504.508 1616.72,611.89 1618.69,905.007 1620.67,555.776 1622.65,401.391 1624.63,922.994 1626.61,865.317 1628.59,521.734 1630.57,714.37 1632.55,753.795 1634.52,784.899 1636.5,629.225 1638.48,1231.49 1640.46,388.565 1642.44,700.641 1644.42,818.813 1646.4,541.494 1648.38,408.394 1650.35,974.723 1652.33,825.159 1654.31,563.565 1656.29,411.911 1658.27,896.349 1660.25,972.514 1662.23,625.993 1664.21,735.769 1666.18,417.873 1668.16,764.176 1670.14,854.86 1672.12,681.656 1674.1,862.367 1676.08,561.738 1678.06,1113.82 1680.04,778.197 1682.02,754.309 1683.99,760.242 1685.97,842.15 1687.95,679.027 1689.93,603.016 1691.91,826.743 1693.89,651.899 1695.87,671.459 1697.85,892.259 1699.82,725.237 1701.8,702.925 1703.78,973.619 1705.76,903.701 1707.74,772.233 1709.72,907.321 1711.7,578.686 1713.68,711.687 1715.65,974.598 1717.63,805.268 1719.61,671.03 1721.59,645.985 1723.57,741.909 1725.55,774.25 1727.53,682.089 1729.51,823.077 1731.48,736.585 1733.46,675.082 1735.44,773.442 1737.42,659.974 1739.4,724.328 1741.38,689.95 1743.36,851.068 1745.34,645.084 1747.31,823.098 1749.29,808.033 1751.27,939.593 1753.25,526.155 1755.23,996.488 1757.21,948.166 1759.19,845.719 1761.17,651.301 1763.14,576.247 1765.12,815.43 1767.1,745.528 1769.08,618.383 1771.06,981.632 1773.04,764.688 1775.02,711.771 1777,811.227 1778.97,667.675 1780.95,643.1 1782.93,809.591 1784.91,700.679 1786.89,639.653 1788.87,568.768 1790.85,421.113 1792.83,652.536 1794.8,781.246 1796.78,787.45 1798.76,548.968 1800.74,1245.73 1802.72,1323.48 1804.7,1298.15 1806.68,1371.8 1808.66,1353.48 1810.63,1119.21 1812.61,1132.64 1814.59,637.411 1816.57,974.037 1818.55,1118.74 1820.53,859.731 1822.51,1239.69 1824.49,1130.19 1826.46,1172.3 1828.44,1186.53 1830.42,1039.77 1832.4,1244.08 1834.38,1238.81 1836.36,1061.51 1838.34,1265.67 1840.32,1159.24 1842.29,1219.73 1844.27,1190.55 1846.25,1231.95 1848.23,1083.87 1850.21,1144.39 1852.19,1138.23 1854.17,1005.22 1856.15,1024.15 1858.12,1128.64 1860.1,1241.69 1862.08,1147.68 1864.06,1175.07 1866.04,1222.26 1868.02,1228.53 1870,1172.75 1871.98,1242.02 1873.95,1246.9 1875.93,1381.26 1877.91,1264.28 1879.89,1153.42 1881.87,1311.53 1883.85,1173.66 1885.83,1250.24 1887.81,1152.57 1889.79,1217.56 1891.76,1099.12 1893.74,1297.25 1895.72,1247.18 1897.7,1196.5 1899.68,1164.87 1901.66,1221.13 1903.64,1212.03 1905.62,959.851 1907.59,1074.81 1909.57,1259.1 1911.55,1156.38 1913.53,1215.47 1915.51,1175.43 1917.49,1191.12 1919.47,1199.11 1921.45,1159.52 1923.42,1117.56 1925.4,1195.34 1927.38,1157.21 1929.36,1126.81 1931.34,1017.94 1933.32,1084.53 1935.3,1315.99 1937.28,1240.9 1939.25,1107.21 1941.23,1054.18 1943.21,1240.02 1945.19,1298.91 1947.17,1158.73 1949.15,1252.01 1951.13,1271.47 1953.11,1248.65 1955.08,1152.65 1957.06,1248.83 1959.04,1144.75 1961.02,1302.4 1963,1153.35 1964.98,1249.82 1966.96,1175.51 1968.94,1246.24 1970.91,1203.15 1972.89,1215.53 1974.87,1019.64 1976.85,1287.74 1978.83,1203.79 1980.81,1303.59 1982.79,1002.38 1984.77,1142.23 1986.74,1193.28 1988.72,1320.38 1990.7,1334.93 1992.68,1326.99 1994.66,1308.28 1996.64,1195.93 1998.62,1158.31 2000.6,1327.81 2002.57,1053.9 2004.55,1175.78 2006.53,1276.32 2008.51,1327.64 2010.49,1160.28 2012.47,1307.81 2014.45,1178.13 2016.43,1331.47 2018.4,1067.72 2020.38,1134.8 2022.36,1199.92 2024.34,867.137 2026.32,1327.46 2028.3,981.506 2030.28,1243.06 2032.26,1152.07 2034.23,936.231 2036.21,1095.35 2038.19,1214.3 2040.17,1339.71 2042.15,1279.87 2044.13,1254.02 2046.11,1192.55 2048.09,1203.44 2050.06,1310.17 2052.04,1154.25 2054.02,1054.73 2056,933.647 2057.98,1280.81 2059.96,1117.38 2061.94,1138.94 2063.92,1217.76 2065.89,1291.19 2067.87,1168.53 2069.85,1320.25 2071.83,1114.35 2073.81,1203.41 2075.79,1202.17 2077.77,1288.57 2079.75,1212.85 2081.72,922.308 2083.7,1269.94 2085.68,1019.44 2087.66,1191.56 2089.64,1233.78 2091.62,956.553 2093.6,1162.04 2095.58,1232.73 2097.56,1349.01 2099.53,1214.25 2101.51,1202.2 2103.49,1129.8 2105.47,1195.2 2107.45,802.547 2109.43,1027.01 2111.41,1322.27 2113.39,997.226 2115.36,1125.24 2117.34,1073.51 2119.32,1153.47 2121.3,1089.1 2123.28,1019.14 2125.26,1237.35 2127.24,1330.6 2129.22,1250.75 2131.19,1227.57 2133.17,1050.59 2135.15,1330.17 2137.13,1273.93 2139.11,1196.28 2141.09,1214.28 2143.07,1194.3 2145.05,1012.33 2147.02,1288.05 2149,856.963 2150.98,1299.78 2152.96,1130.94 2154.94,1226.55 2156.92,1333.88 2158.9,978.655 2160.88,1073.04 2162.85,1079.43 2164.83,1185.06 2166.81,1258.81 2168.79,1197.9 2170.77,1076.2 2172.75,1134.33 2174.73,1188.83 2176.71,1024.69 2178.68,1365.76 2180.66,1270.59 2182.64,1113.14 2184.62,1146.15 2186.6,1246.36 2188.58,1259.26 2190.56,1103.64 2192.54,1191.7 2194.51,1374.25 2196.49,1095.63 2198.47,1222.82 2200.45,990.306 2202.43,1231.28 2204.41,1264.99 2206.39,1213.16 2208.37,1349.72 2210.34,1210 2212.32,1269.66 2214.3,1188.24 2216.28,1068.84 2218.26,1053.76 2220.24,1126.91 2222.22,1066.79 2224.2,938.105 2226.17,1005.09 2228.15,1179.56 2230.13,1186.19 2232.11,992.714 2234.09,1032.89 2236.07,1319.52 2238.05,1238.23 2240.03,1165.83 2242,1243.29 2243.98,1092.61 2245.96,1189.36 2247.94,1333.36 2249.92,1224.27 2251.9,1164.72 2253.88,1178.98 2255.86,1081.62 2257.83,1257.42 2259.81,1192.06 2261.79,1254.17 2263.77,1352.74 2265.75,1121.61 2267.73,1250.44 2269.71,1333.22 2271.69,1186 2273.66,1246.89 2275.64,1190.15 2277.62,1085.66 2279.6,962.129 2281.58,1195.73 2283.56,1172.4 2285.54,1156.1 2287.52,1186.56 2289.49,1144.7 2291.47,1226.44 2293.45,1260.86 "></polyline>
<path clip-path="url(#clip020)" d="M1853.77 270.476 L2282.91 270.476 L2282.91 166.796 L1853.77 166.796  Z" fill="#ffffff" fill-rule="evenodd" fill-opacity="1"></path>
<polyline clip-path="url(#clip020)" style="stroke:#000000; stroke-linecap:round; stroke-linejoin:round; stroke-width:4; stroke-opacity:1; fill:none" points="1853.77,270.476 2282.91,270.476 2282.91,166.796 1853.77,166.796 1853.77,270.476 "></polyline>
<polyline clip-path="url(#clip020)" style="stroke:#009af9; stroke-linecap:round; stroke-linejoin:round; stroke-width:4; stroke-opacity:1; fill:none" points="1877.05,218.636 2016.74,218.636 "></polyline>
<path clip-path="url(#clip020)" d="M2062.27 202.49 L2062.27 207.05 Q2059.61 205.777 2057.24 205.152 Q2054.88 204.527 2052.68 204.527 Q2048.86 204.527 2046.78 206.008 Q2044.72 207.49 2044.72 210.221 Q2044.72 212.513 2046.09 213.694 Q2047.48 214.851 2051.32 215.569 L2054.14 216.147 Q2059.37 217.143 2061.85 219.666 Q2064.35 222.166 2064.35 226.379 Q2064.35 231.402 2060.97 233.994 Q2057.61 236.587 2051.11 236.587 Q2048.66 236.587 2045.88 236.031 Q2043.12 235.476 2040.16 234.388 L2040.16 229.573 Q2043.01 231.17 2045.74 231.981 Q2048.47 232.791 2051.11 232.791 Q2055.11 232.791 2057.29 231.217 Q2059.47 229.643 2059.47 226.726 Q2059.47 224.18 2057.89 222.744 Q2056.34 221.309 2052.78 220.592 L2049.93 220.036 Q2044.7 218.995 2042.36 216.772 Q2040.02 214.55 2040.02 210.592 Q2040.02 206.008 2043.24 203.37 Q2046.48 200.731 2052.15 200.731 Q2054.58 200.731 2057.11 201.171 Q2059.63 201.61 2062.27 202.49 Z" fill="#000000" fill-rule="nonzero" fill-opacity="1"></path><path clip-path="url(#clip020)" d="M2071.46 209.99 L2075.72 209.99 L2075.72 235.916 L2071.46 235.916 L2071.46 209.99 M2071.46 199.897 L2075.72 199.897 L2075.72 205.291 L2071.46 205.291 L2071.46 199.897 Z" fill="#000000" fill-rule="nonzero" fill-opacity="1"></path><path clip-path="url(#clip020)" d="M2104.81 214.967 Q2106.41 212.096 2108.63 210.731 Q2110.86 209.365 2113.86 209.365 Q2117.92 209.365 2120.11 212.212 Q2122.31 215.036 2122.31 220.268 L2122.31 235.916 L2118.03 235.916 L2118.03 220.407 Q2118.03 216.68 2116.71 214.874 Q2115.39 213.069 2112.68 213.069 Q2109.37 213.069 2107.45 215.268 Q2105.53 217.467 2105.53 221.263 L2105.53 235.916 L2101.25 235.916 L2101.25 220.407 Q2101.25 216.657 2099.93 214.874 Q2098.61 213.069 2095.86 213.069 Q2092.59 213.069 2090.67 215.291 Q2088.75 217.49 2088.75 221.263 L2088.75 235.916 L2084.47 235.916 L2084.47 209.99 L2088.75 209.99 L2088.75 214.018 Q2090.21 211.633 2092.24 210.499 Q2094.28 209.365 2097.08 209.365 Q2099.91 209.365 2101.87 210.8 Q2103.86 212.235 2104.81 214.967 Z" fill="#000000" fill-rule="nonzero" fill-opacity="1"></path><path clip-path="url(#clip020)" d="M2130.81 209.99 L2135.07 209.99 L2135.07 235.916 L2130.81 235.916 L2130.81 209.99 M2130.81 199.897 L2135.07 199.897 L2135.07 205.291 L2130.81 205.291 L2130.81 199.897 Z" fill="#000000" fill-rule="nonzero" fill-opacity="1"></path><path clip-path="url(#clip020)" d="M2143.98 199.897 L2148.24 199.897 L2148.24 235.916 L2143.98 235.916 L2143.98 199.897 Z" fill="#000000" fill-rule="nonzero" fill-opacity="1"></path><path clip-path="url(#clip020)" d="M2168.93 222.883 Q2163.77 222.883 2161.78 224.064 Q2159.79 225.244 2159.79 228.092 Q2159.79 230.36 2161.27 231.703 Q2162.78 233.022 2165.35 233.022 Q2168.89 233.022 2171.02 230.522 Q2173.17 227.999 2173.17 223.832 L2173.17 222.883 L2168.93 222.883 M2177.43 221.124 L2177.43 235.916 L2173.17 235.916 L2173.17 231.981 Q2171.71 234.342 2169.54 235.476 Q2167.36 236.587 2164.21 236.587 Q2160.23 236.587 2157.87 234.365 Q2155.53 232.119 2155.53 228.369 Q2155.53 223.994 2158.45 221.772 Q2161.39 219.55 2167.2 219.55 L2173.17 219.55 L2173.17 219.133 Q2173.17 216.194 2171.23 214.596 Q2169.3 212.976 2165.81 212.976 Q2163.59 212.976 2161.48 213.508 Q2159.37 214.041 2157.43 215.106 L2157.43 211.17 Q2159.77 210.268 2161.97 209.828 Q2164.17 209.365 2166.25 209.365 Q2171.87 209.365 2174.65 212.282 Q2177.43 215.198 2177.43 221.124 Z" fill="#000000" fill-rule="nonzero" fill-opacity="1"></path><path clip-path="url(#clip020)" d="M2201.23 213.971 Q2200.51 213.555 2199.65 213.37 Q2198.82 213.161 2197.8 213.161 Q2194.19 213.161 2192.24 215.522 Q2190.32 217.86 2190.32 222.258 L2190.32 235.916 L2186.04 235.916 L2186.04 209.99 L2190.32 209.99 L2190.32 214.018 Q2191.66 211.657 2193.82 210.522 Q2195.97 209.365 2199.05 209.365 Q2199.49 209.365 2200.02 209.434 Q2200.55 209.481 2201.2 209.596 L2201.23 213.971 Z" fill="#000000" fill-rule="nonzero" fill-opacity="1"></path><path clip-path="url(#clip020)" d="M2205.69 209.99 L2209.95 209.99 L2209.95 235.916 L2205.69 235.916 L2205.69 209.99 M2205.69 199.897 L2209.95 199.897 L2209.95 205.291 L2205.69 205.291 L2205.69 199.897 Z" fill="#000000" fill-rule="nonzero" fill-opacity="1"></path><path clip-path="url(#clip020)" d="M2223.08 202.629 L2223.08 209.99 L2231.85 209.99 L2231.85 213.3 L2223.08 213.3 L2223.08 227.374 Q2223.08 230.545 2223.93 231.448 Q2224.81 232.351 2227.47 232.351 L2231.85 232.351 L2231.85 235.916 L2227.47 235.916 Q2222.54 235.916 2220.67 234.087 Q2218.79 232.235 2218.79 227.374 L2218.79 213.3 L2215.67 213.3 L2215.67 209.99 L2218.79 209.99 L2218.79 202.629 L2223.08 202.629 Z" fill="#000000" fill-rule="nonzero" fill-opacity="1"></path><path clip-path="url(#clip020)" d="M2248.24 238.323 Q2246.43 242.953 2244.72 244.365 Q2243.01 245.777 2240.14 245.777 L2236.73 245.777 L2236.73 242.212 L2239.23 242.212 Q2240.99 242.212 2241.97 241.379 Q2242.94 240.545 2244.12 237.443 L2244.88 235.499 L2234.4 209.99 L2238.91 209.99 L2247.01 230.268 L2255.11 209.99 L2259.63 209.99 L2248.24 238.323 Z" fill="#000000" fill-rule="nonzero" fill-opacity="1"></path></svg>