<svg xmlns="http://www.w3.org/2000/svg" xmlns:xlink="http://www.w3.org/1999/xlink" width="600" height="400" viewBox="0 0 2400 1600">
<defs>
  <clipPath id="clip780">
    <rect x="0" y="0" width="2400" height="1600"></rect>
  </clipPath>
</defs>
<path clip-path="url(#clip780)" d="M0 1600 L2400 1600 L2400 8.88178e-14 L0 8.88178e-14  Z" fill="#ffffff" fill-rule="evenodd" fill-opacity="1"></path>
<defs>
  <clipPath id="clip781">
    <rect x="480" y="0" width="1681" height="1600"></rect>
  </clipPath>
</defs>
<path clip-path="url(#clip780)" d="M256.209 1423.18 L2352.76 1423.18 L2352.76 123.472 L256.209 123.472  Z" fill="#ffffff" fill-rule="evenodd" fill-opacity="1"></path>
<defs>
  <clipPath id="clip782">
    <rect x="256" y="123" width="2098" height="1301"></rect>
  </clipPath>
</defs>
<polyline clip-path="url(#clip782)" style="stroke:#000000; stroke-linecap:round; stroke-linejoin:round; stroke-width:2; stroke-opacity:0.1; fill:none" points="313.565,1423.18 313.565,123.472 "></polyline>
<polyline clip-path="url(#clip782)" style="stroke:#000000; stroke-linecap:round; stroke-linejoin:round; stroke-width:2; stroke-opacity:0.1; fill:none" points="808.529,1423.18 808.529,123.472 "></polyline>
<polyline clip-path="url(#clip782)" style="stroke:#000000; stroke-linecap:round; stroke-linejoin:round; stroke-width:2; stroke-opacity:0.1; fill:none" points="1303.49,1423.18 1303.49,123.472 "></polyline>
<polyline clip-path="url(#clip782)" style="stroke:#000000; stroke-linecap:round; stroke-linejoin:round; stroke-width:2; stroke-opacity:0.1; fill:none" points="1798.46,1423.18 1798.46,123.472 "></polyline>
<polyline clip-path="url(#clip782)" style="stroke:#000000; stroke-linecap:round; stroke-linejoin:round; stroke-width:2; stroke-opacity:0.1; fill:none" points="2293.42,1423.18 2293.42,123.472 "></polyline>
<polyline clip-path="url(#clip780)" style="stroke:#000000; stroke-linecap:round; stroke-linejoin:round; stroke-width:4; stroke-opacity:1; fill:none" points="256.209,1423.18 2352.76,1423.18 "></polyline>
<polyline clip-path="url(#clip780)" style="stroke:#000000; stroke-linecap:round; stroke-linejoin:round; stroke-width:4; stroke-opacity:1; fill:none" points="313.565,1423.18 313.565,1404.28 "></polyline>
<polyline clip-path="url(#clip780)" style="stroke:#000000; stroke-linecap:round; stroke-linejoin:round; stroke-width:4; stroke-opacity:1; fill:none" points="808.529,1423.18 808.529,1404.28 "></polyline>
<polyline clip-path="url(#clip780)" style="stroke:#000000; stroke-linecap:round; stroke-linejoin:round; stroke-width:4; stroke-opacity:1; fill:none" points="1303.49,1423.18 1303.49,1404.28 "></polyline>
<polyline clip-path="url(#clip780)" style="stroke:#000000; stroke-linecap:round; stroke-linejoin:round; stroke-width:4; stroke-opacity:1; fill:none" points="1798.46,1423.18 1798.46,1404.28 "></polyline>
<polyline clip-path="url(#clip780)" style="stroke:#000000; stroke-linecap:round; stroke-linejoin:round; stroke-width:4; stroke-opacity:1; fill:none" points="2293.42,1423.18 2293.42,1404.28 "></polyline>
<path clip-path="url(#clip780)" d="M313.565 1454.1 Q309.954 1454.1 308.125 1457.66 Q306.32 1461.2 306.32 1468.33 Q306.32 1475.44 308.125 1479.01 Q309.954 1482.55 313.565 1482.55 Q317.199 1482.55 319.005 1479.01 Q320.834 1475.44 320.834 1468.33 Q320.834 1461.2 319.005 1457.66 Q317.199 1454.1 313.565 1454.1 M313.565 1450.39 Q319.375 1450.39 322.431 1455 Q325.509 1459.58 325.509 1468.33 Q325.509 1477.06 322.431 1481.67 Q319.375 1486.25 313.565 1486.25 Q307.755 1486.25 304.676 1481.67 Q301.621 1477.06 301.621 1468.33 Q301.621 1459.58 304.676 1455 Q307.755 1450.39 313.565 1450.39 Z" fill="#000000" fill-rule="nonzero" fill-opacity="1"></path><path clip-path="url(#clip780)" d="M772.221 1481.64 L788.54 1481.64 L788.54 1485.58 L766.596 1485.58 L766.596 1481.64 Q769.258 1478.89 773.841 1474.26 Q778.448 1469.61 779.628 1468.27 Q781.874 1465.74 782.753 1464.01 Q783.656 1462.25 783.656 1460.56 Q783.656 1457.8 781.712 1456.07 Q779.79 1454.33 776.689 1454.33 Q774.49 1454.33 772.036 1455.09 Q769.605 1455.86 766.828 1457.41 L766.828 1452.69 Q769.652 1451.55 772.105 1450.97 Q774.559 1450.39 776.596 1450.39 Q781.966 1450.39 785.161 1453.08 Q788.355 1455.77 788.355 1460.26 Q788.355 1462.39 787.545 1464.31 Q786.758 1466.2 784.652 1468.8 Q784.073 1469.47 780.971 1472.69 Q777.869 1475.88 772.221 1481.64 Z" fill="#000000" fill-rule="nonzero" fill-opacity="1"></path><path clip-path="url(#clip780)" d="M798.401 1451.02 L816.758 1451.02 L816.758 1454.96 L802.684 1454.96 L802.684 1463.43 Q803.702 1463.08 804.721 1462.92 Q805.739 1462.73 806.758 1462.73 Q812.545 1462.73 815.924 1465.9 Q819.304 1469.08 819.304 1474.49 Q819.304 1480.07 815.832 1483.17 Q812.36 1486.25 806.04 1486.25 Q803.864 1486.25 801.596 1485.88 Q799.351 1485.51 796.943 1484.77 L796.943 1480.07 Q799.026 1481.2 801.249 1481.76 Q803.471 1482.32 805.948 1482.32 Q809.952 1482.32 812.29 1480.21 Q814.628 1478.1 814.628 1474.49 Q814.628 1470.88 812.29 1468.77 Q809.952 1466.67 805.948 1466.67 Q804.073 1466.67 802.198 1467.08 Q800.346 1467.5 798.401 1468.38 L798.401 1451.02 Z" fill="#000000" fill-rule="nonzero" fill-opacity="1"></path><path clip-path="url(#clip780)" d="M838.517 1454.1 Q834.906 1454.1 833.077 1457.66 Q831.272 1461.2 831.272 1468.33 Q831.272 1475.44 833.077 1479.01 Q834.906 1482.55 838.517 1482.55 Q842.151 1482.55 843.957 1479.01 Q845.785 1475.44 845.785 1468.33 Q845.785 1461.2 843.957 1457.66 Q842.151 1454.1 838.517 1454.1 M838.517 1450.39 Q844.327 1450.39 847.383 1455 Q850.461 1459.58 850.461 1468.33 Q850.461 1477.06 847.383 1481.67 Q844.327 1486.25 838.517 1486.25 Q832.707 1486.25 829.628 1481.67 Q826.573 1477.06 826.573 1468.33 Q826.573 1459.58 829.628 1455 Q832.707 1450.39 838.517 1450.39 Z" fill="#000000" fill-rule="nonzero" fill-opacity="1"></path><path clip-path="url(#clip780)" d="M1263.11 1451.02 L1281.47 1451.02 L1281.47 1454.96 L1267.39 1454.96 L1267.39 1463.43 Q1268.41 1463.08 1269.43 1462.92 Q1270.45 1462.73 1271.47 1462.73 Q1277.25 1462.73 1280.63 1465.9 Q1284.01 1469.08 1284.01 1474.49 Q1284.01 1480.07 1280.54 1483.17 Q1277.07 1486.25 1270.75 1486.25 Q1268.57 1486.25 1266.31 1485.88 Q1264.06 1485.51 1261.65 1484.77 L1261.65 1480.07 Q1263.74 1481.2 1265.96 1481.76 Q1268.18 1482.32 1270.66 1482.32 Q1274.66 1482.32 1277 1480.21 Q1279.34 1478.1 1279.34 1474.49 Q1279.34 1470.88 1277 1468.77 Q1274.66 1466.67 1270.66 1466.67 Q1268.78 1466.67 1266.91 1467.08 Q1265.06 1467.5 1263.11 1468.38 L1263.11 1451.02 Z" fill="#000000" fill-rule="nonzero" fill-opacity="1"></path><path clip-path="url(#clip780)" d="M1303.23 1454.1 Q1299.62 1454.1 1297.79 1457.66 Q1295.98 1461.2 1295.98 1468.33 Q1295.98 1475.44 1297.79 1479.01 Q1299.62 1482.55 1303.23 1482.55 Q1306.86 1482.55 1308.67 1479.01 Q1310.49 1475.44 1310.49 1468.33 Q1310.49 1461.2 1308.67 1457.66 Q1306.86 1454.1 1303.23 1454.1 M1303.23 1450.39 Q1309.04 1450.39 1312.09 1455 Q1315.17 1459.58 1315.17 1468.33 Q1315.17 1477.06 1312.09 1481.67 Q1309.04 1486.25 1303.23 1486.25 Q1297.42 1486.25 1294.34 1481.67 Q1291.28 1477.06 1291.28 1468.33 Q1291.28 1459.58 1294.34 1455 Q1297.42 1450.39 1303.23 1450.39 Z" fill="#000000" fill-rule="nonzero" fill-opacity="1"></path><path clip-path="url(#clip780)" d="M1333.39 1454.1 Q1329.78 1454.1 1327.95 1457.66 Q1326.14 1461.2 1326.14 1468.33 Q1326.14 1475.44 1327.95 1479.01 Q1329.78 1482.55 1333.39 1482.55 Q1337.02 1482.55 1338.83 1479.01 Q1340.66 1475.44 1340.66 1468.33 Q1340.66 1461.2 1338.83 1457.66 Q1337.02 1454.1 1333.39 1454.1 M1333.39 1450.39 Q1339.2 1450.39 1342.25 1455 Q1345.33 1459.58 1345.33 1468.33 Q1345.33 1477.06 1342.25 1481.67 Q1339.2 1486.25 1333.39 1486.25 Q1327.58 1486.25 1324.5 1481.67 Q1321.44 1477.06 1321.44 1468.33 Q1321.44 1459.58 1324.5 1455 Q1327.58 1450.39 1333.39 1450.39 Z" fill="#000000" fill-rule="nonzero" fill-opacity="1"></path><path clip-path="url(#clip780)" d="M1756.73 1451.02 L1778.95 1451.02 L1778.95 1453.01 L1766.41 1485.58 L1761.52 1485.58 L1773.33 1454.96 L1756.73 1454.96 L1756.73 1451.02 Z" fill="#000000" fill-rule="nonzero" fill-opacity="1"></path><path clip-path="url(#clip780)" d="M1788.12 1451.02 L1806.48 1451.02 L1806.48 1454.96 L1792.4 1454.96 L1792.4 1463.43 Q1793.42 1463.08 1794.44 1462.92 Q1795.46 1462.73 1796.48 1462.73 Q1802.26 1462.73 1805.64 1465.9 Q1809.02 1469.08 1809.02 1474.49 Q1809.02 1480.07 1805.55 1483.17 Q1802.08 1486.25 1795.76 1486.25 Q1793.58 1486.25 1791.31 1485.88 Q1789.07 1485.51 1786.66 1484.77 L1786.66 1480.07 Q1788.75 1481.2 1790.97 1481.76 Q1793.19 1482.32 1795.67 1482.32 Q1799.67 1482.32 1802.01 1480.21 Q1804.35 1478.1 1804.35 1474.49 Q1804.35 1470.88 1802.01 1468.77 Q1799.67 1466.67 1795.67 1466.67 Q1793.79 1466.67 1791.92 1467.08 Q1790.06 1467.5 1788.12 1468.38 L1788.12 1451.02 Z" fill="#000000" fill-rule="nonzero" fill-opacity="1"></path><path clip-path="url(#clip780)" d="M1828.24 1454.1 Q1824.62 1454.1 1822.8 1457.66 Q1820.99 1461.2 1820.99 1468.33 Q1820.99 1475.44 1822.8 1479.01 Q1824.62 1482.55 1828.24 1482.55 Q1831.87 1482.55 1833.68 1479.01 Q1835.5 1475.44 1835.5 1468.33 Q1835.5 1461.2 1833.68 1457.66 Q1831.87 1454.1 1828.24 1454.1 M1828.24 1450.39 Q1834.05 1450.39 1837.1 1455 Q1840.18 1459.58 1840.18 1468.33 Q1840.18 1477.06 1837.1 1481.67 Q1834.05 1486.25 1828.24 1486.25 Q1822.43 1486.25 1819.35 1481.67 Q1816.29 1477.06 1816.29 1468.33 Q1816.29 1459.58 1819.35 1455 Q1822.43 1450.39 1828.24 1450.39 Z" fill="#000000" fill-rule="nonzero" fill-opacity="1"></path><path clip-path="url(#clip780)" d="M2237.95 1481.64 L2245.58 1481.64 L2245.58 1455.28 L2237.27 1456.95 L2237.27 1452.69 L2245.54 1451.02 L2250.21 1451.02 L2250.21 1481.64 L2257.85 1481.64 L2257.85 1485.58 L2237.95 1485.58 L2237.95 1481.64 Z" fill="#000000" fill-rule="nonzero" fill-opacity="1"></path><path clip-path="url(#clip780)" d="M2277.3 1454.1 Q2273.69 1454.1 2271.86 1457.66 Q2270.05 1461.2 2270.05 1468.33 Q2270.05 1475.44 2271.86 1479.01 Q2273.69 1482.55 2277.3 1482.55 Q2280.93 1482.55 2282.74 1479.01 Q2284.57 1475.44 2284.57 1468.33 Q2284.57 1461.2 2282.74 1457.66 Q2280.93 1454.1 2277.3 1454.1 M2277.3 1450.39 Q2283.11 1450.39 2286.16 1455 Q2289.24 1459.58 2289.24 1468.33 Q2289.24 1477.06 2286.16 1481.67 Q2283.11 1486.25 2277.3 1486.25 Q2271.49 1486.25 2268.41 1481.67 Q2265.35 1477.06 2265.35 1468.33 Q2265.35 1459.58 2268.41 1455 Q2271.49 1450.39 2277.3 1450.39 Z" fill="#000000" fill-rule="nonzero" fill-opacity="1"></path><path clip-path="url(#clip780)" d="M2307.46 1454.1 Q2303.85 1454.1 2302.02 1457.66 Q2300.21 1461.2 2300.21 1468.33 Q2300.21 1475.44 2302.02 1479.01 Q2303.85 1482.55 2307.46 1482.55 Q2311.09 1482.55 2312.9 1479.01 Q2314.73 1475.44 2314.73 1468.33 Q2314.73 1461.2 2312.9 1457.66 Q2311.09 1454.1 2307.46 1454.1 M2307.46 1450.39 Q2313.27 1450.39 2316.32 1455 Q2319.4 1459.58 2319.4 1468.33 Q2319.4 1477.06 2316.32 1481.67 Q2313.27 1486.25 2307.46 1486.25 Q2301.65 1486.25 2298.57 1481.67 Q2295.51 1477.06 2295.51 1468.33 Q2295.51 1459.58 2298.57 1455 Q2301.65 1450.39 2307.46 1450.39 Z" fill="#000000" fill-rule="nonzero" fill-opacity="1"></path><path clip-path="url(#clip780)" d="M2337.62 1454.1 Q2334.01 1454.1 2332.18 1457.66 Q2330.38 1461.2 2330.38 1468.33 Q2330.38 1475.44 2332.18 1479.01 Q2334.01 1482.55 2337.62 1482.55 Q2341.26 1482.55 2343.06 1479.01 Q2344.89 1475.44 2344.89 1468.33 Q2344.89 1461.2 2343.06 1457.66 Q2341.26 1454.1 2337.62 1454.1 M2337.62 1450.39 Q2343.43 1450.39 2346.49 1455 Q2349.57 1459.58 2349.57 1468.33 Q2349.57 1477.06 2346.49 1481.67 Q2343.43 1486.25 2337.62 1486.25 Q2331.81 1486.25 2328.73 1481.67 Q2325.68 1477.06 2325.68 1468.33 Q2325.68 1459.58 2328.73 1455 Q2331.81 1450.39 2337.62 1450.39 Z" fill="#000000" fill-rule="nonzero" fill-opacity="1"></path><path clip-path="url(#clip780)" d="M1219.02 1520.52 L1225.45 1520.52 L1225.45 1568.04 L1219.02 1568.04 L1219.02 1520.52 Z" fill="#000000" fill-rule="nonzero" fill-opacity="1"></path><path clip-path="url(#clip780)" d="M1267.62 1546.53 L1267.62 1568.04 L1261.77 1568.04 L1261.77 1546.72 Q1261.77 1541.66 1259.8 1539.14 Q1257.82 1536.63 1253.87 1536.63 Q1249.13 1536.63 1246.4 1539.65 Q1243.66 1542.68 1243.66 1547.9 L1243.66 1568.04 L1237.77 1568.04 L1237.77 1532.4 L1243.66 1532.4 L1243.66 1537.93 Q1245.76 1534.72 1248.59 1533.13 Q1251.46 1531.54 1255.18 1531.54 Q1261.32 1531.54 1264.47 1535.36 Q1267.62 1539.14 1267.62 1546.53 Z" fill="#000000" fill-rule="nonzero" fill-opacity="1"></path><path clip-path="url(#clip780)" d="M1302.76 1537.81 L1302.76 1518.52 L1308.62 1518.52 L1308.62 1568.04 L1302.76 1568.04 L1302.76 1562.7 Q1300.92 1565.88 1298.08 1567.44 Q1295.28 1568.97 1291.34 1568.97 Q1284.88 1568.97 1280.8 1563.81 Q1276.76 1558.65 1276.76 1550.25 Q1276.76 1541.85 1280.8 1536.69 Q1284.88 1531.54 1291.34 1531.54 Q1295.28 1531.54 1298.08 1533.1 Q1300.92 1534.62 1302.76 1537.81 M1282.81 1550.25 Q1282.81 1556.71 1285.45 1560.4 Q1288.12 1564.07 1292.77 1564.07 Q1297.42 1564.07 1300.09 1560.4 Q1302.76 1556.71 1302.76 1550.25 Q1302.76 1543.79 1300.09 1540.13 Q1297.42 1536.44 1292.77 1536.44 Q1288.12 1536.44 1285.45 1540.13 Q1282.81 1543.79 1282.81 1550.25 Z" fill="#000000" fill-rule="nonzero" fill-opacity="1"></path><path clip-path="url(#clip780)" d="M1351.17 1548.76 L1351.17 1551.62 L1324.25 1551.62 Q1324.63 1557.67 1327.88 1560.85 Q1331.15 1564 1336.98 1564 Q1340.35 1564 1343.5 1563.17 Q1346.69 1562.35 1349.81 1560.69 L1349.81 1566.23 Q1346.66 1567.57 1343.34 1568.27 Q1340.03 1568.97 1336.63 1568.97 Q1328.1 1568.97 1323.1 1564 Q1318.14 1559.04 1318.14 1550.57 Q1318.14 1541.82 1322.85 1536.69 Q1327.59 1531.54 1335.61 1531.54 Q1342.8 1531.54 1346.97 1536.18 Q1351.17 1540.8 1351.17 1548.76 M1345.32 1547.04 Q1345.25 1542.23 1342.61 1539.37 Q1340 1536.5 1335.67 1536.5 Q1330.77 1536.5 1327.81 1539.27 Q1324.88 1542.04 1324.44 1547.07 L1345.32 1547.04 Z" fill="#000000" fill-rule="nonzero" fill-opacity="1"></path><path clip-path="url(#clip780)" d="M1389.27 1532.4 L1376.38 1549.74 L1389.94 1568.04 L1383.04 1568.04 L1372.66 1554.04 L1362.28 1568.04 L1355.38 1568.04 L1369.22 1549.39 L1356.55 1532.4 L1363.46 1532.4 L1372.91 1545.1 L1382.37 1532.4 L1389.27 1532.4 Z" fill="#000000" fill-rule="nonzero" fill-opacity="1"></path><polyline clip-path="url(#clip782)" style="stroke:#000000; stroke-linecap:round; stroke-linejoin:round; stroke-width:2; stroke-opacity:0.1; fill:none" points="256.209,1224.11 2352.76,1224.11 "></polyline>
<polyline clip-path="url(#clip782)" style="stroke:#000000; stroke-linecap:round; stroke-linejoin:round; stroke-width:2; stroke-opacity:0.1; fill:none" points="256.209,865.481 2352.76,865.481 "></polyline>
<polyline clip-path="url(#clip782)" style="stroke:#000000; stroke-linecap:round; stroke-linejoin:round; stroke-width:2; stroke-opacity:0.1; fill:none" points="256.209,506.854 2352.76,506.854 "></polyline>
<polyline clip-path="url(#clip782)" style="stroke:#000000; stroke-linecap:round; stroke-linejoin:round; stroke-width:2; stroke-opacity:0.1; fill:none" points="256.209,148.228 2352.76,148.228 "></polyline>
<polyline clip-path="url(#clip780)" style="stroke:#000000; stroke-linecap:round; stroke-linejoin:round; stroke-width:4; stroke-opacity:1; fill:none" points="256.209,1423.18 256.209,123.472 "></polyline>
<polyline clip-path="url(#clip780)" style="stroke:#000000; stroke-linecap:round; stroke-linejoin:round; stroke-width:4; stroke-opacity:1; fill:none" points="256.209,1224.11 275.106,1224.11 "></polyline>
<polyline clip-path="url(#clip780)" style="stroke:#000000; stroke-linecap:round; stroke-linejoin:round; stroke-width:4; stroke-opacity:1; fill:none" points="256.209,865.481 275.106,865.481 "></polyline>
<polyline clip-path="url(#clip780)" style="stroke:#000000; stroke-linecap:round; stroke-linejoin:round; stroke-width:4; stroke-opacity:1; fill:none" points="256.209,506.854 275.106,506.854 "></polyline>
<polyline clip-path="url(#clip780)" style="stroke:#000000; stroke-linecap:round; stroke-linejoin:round; stroke-width:4; stroke-opacity:1; fill:none" points="256.209,148.228 275.106,148.228 "></polyline>
<path clip-path="url(#clip780)" d="M114.26 1224.56 L143.936 1224.56 L143.936 1228.49 L114.26 1228.49 L114.26 1224.56 Z" fill="#000000" fill-rule="nonzero" fill-opacity="1"></path><path clip-path="url(#clip780)" d="M164.028 1209.91 Q160.417 1209.91 158.589 1213.47 Q156.783 1217.01 156.783 1224.14 Q156.783 1231.25 158.589 1234.81 Q160.417 1238.35 164.028 1238.35 Q167.663 1238.35 169.468 1234.81 Q171.297 1231.25 171.297 1224.14 Q171.297 1217.01 169.468 1213.47 Q167.663 1209.91 164.028 1209.91 M164.028 1206.2 Q169.839 1206.2 172.894 1210.81 Q175.973 1215.39 175.973 1224.14 Q175.973 1232.87 172.894 1237.47 Q169.839 1242.06 164.028 1242.06 Q158.218 1242.06 155.14 1237.47 Q152.084 1232.87 152.084 1224.14 Q152.084 1215.39 155.14 1210.81 Q158.218 1206.2 164.028 1206.2 Z" fill="#000000" fill-rule="nonzero" fill-opacity="1"></path><path clip-path="url(#clip780)" d="M184.19 1235.51 L189.075 1235.51 L189.075 1241.39 L184.19 1241.39 L184.19 1235.51 Z" fill="#000000" fill-rule="nonzero" fill-opacity="1"></path><path clip-path="url(#clip780)" d="M199.306 1206.83 L217.662 1206.83 L217.662 1210.76 L203.588 1210.76 L203.588 1219.23 Q204.607 1218.89 205.625 1218.73 Q206.644 1218.54 207.662 1218.54 Q213.449 1218.54 216.829 1221.71 Q220.209 1224.88 220.209 1230.3 Q220.209 1235.88 216.736 1238.98 Q213.264 1242.06 206.945 1242.06 Q204.769 1242.06 202.5 1241.69 Q200.255 1241.32 197.848 1240.58 L197.848 1235.88 Q199.931 1237.01 202.153 1237.57 Q204.375 1238.12 206.852 1238.12 Q210.857 1238.12 213.195 1236.02 Q215.533 1233.91 215.533 1230.3 Q215.533 1226.69 213.195 1224.58 Q210.857 1222.48 206.852 1222.48 Q204.977 1222.48 203.102 1222.89 Q201.25 1223.31 199.306 1224.19 L199.306 1206.83 Z" fill="#000000" fill-rule="nonzero" fill-opacity="1"></path><path clip-path="url(#clip780)" d="M163.033 851.279 Q159.422 851.279 157.593 854.844 Q155.788 858.386 155.788 865.515 Q155.788 872.622 157.593 876.186 Q159.422 879.728 163.033 879.728 Q166.667 879.728 168.473 876.186 Q170.302 872.622 170.302 865.515 Q170.302 858.386 168.473 854.844 Q166.667 851.279 163.033 851.279 M163.033 847.576 Q168.843 847.576 171.899 852.182 Q174.977 856.765 174.977 865.515 Q174.977 874.242 171.899 878.849 Q168.843 883.432 163.033 883.432 Q157.223 883.432 154.144 878.849 Q151.089 874.242 151.089 865.515 Q151.089 856.765 154.144 852.182 Q157.223 847.576 163.033 847.576 Z" fill="#000000" fill-rule="nonzero" fill-opacity="1"></path><path clip-path="url(#clip780)" d="M183.195 876.881 L188.079 876.881 L188.079 882.761 L183.195 882.761 L183.195 876.881 Z" fill="#000000" fill-rule="nonzero" fill-opacity="1"></path><path clip-path="url(#clip780)" d="M208.264 851.279 Q204.653 851.279 202.824 854.844 Q201.019 858.386 201.019 865.515 Q201.019 872.622 202.824 876.186 Q204.653 879.728 208.264 879.728 Q211.899 879.728 213.704 876.186 Q215.533 872.622 215.533 865.515 Q215.533 858.386 213.704 854.844 Q211.899 851.279 208.264 851.279 M208.264 847.576 Q214.074 847.576 217.13 852.182 Q220.209 856.765 220.209 865.515 Q220.209 874.242 217.13 878.849 Q214.074 883.432 208.264 883.432 Q202.454 883.432 199.375 878.849 Q196.32 874.242 196.32 865.515 Q196.32 856.765 199.375 852.182 Q202.454 847.576 208.264 847.576 Z" fill="#000000" fill-rule="nonzero" fill-opacity="1"></path><path clip-path="url(#clip780)" d="M164.028 492.653 Q160.417 492.653 158.589 496.218 Q156.783 499.759 156.783 506.889 Q156.783 513.995 158.589 517.56 Q160.417 521.102 164.028 521.102 Q167.663 521.102 169.468 517.56 Q171.297 513.995 171.297 506.889 Q171.297 499.759 169.468 496.218 Q167.663 492.653 164.028 492.653 M164.028 488.949 Q169.839 488.949 172.894 493.556 Q175.973 498.139 175.973 506.889 Q175.973 515.616 172.894 520.222 Q169.839 524.805 164.028 524.805 Q158.218 524.805 155.14 520.222 Q152.084 515.616 152.084 506.889 Q152.084 498.139 155.14 493.556 Q158.218 488.949 164.028 488.949 Z" fill="#000000" fill-rule="nonzero" fill-opacity="1"></path><path clip-path="url(#clip780)" d="M184.19 518.254 L189.075 518.254 L189.075 524.134 L184.19 524.134 L184.19 518.254 Z" fill="#000000" fill-rule="nonzero" fill-opacity="1"></path><path clip-path="url(#clip780)" d="M199.306 489.574 L217.662 489.574 L217.662 493.509 L203.588 493.509 L203.588 501.981 Q204.607 501.634 205.625 501.472 Q206.644 501.287 207.662 501.287 Q213.449 501.287 216.829 504.458 Q220.209 507.63 220.209 513.046 Q220.209 518.625 216.736 521.727 Q213.264 524.805 206.945 524.805 Q204.769 524.805 202.5 524.435 Q200.255 524.065 197.848 523.324 L197.848 518.625 Q199.931 519.759 202.153 520.315 Q204.375 520.87 206.852 520.87 Q210.857 520.87 213.195 518.764 Q215.533 516.657 215.533 513.046 Q215.533 509.435 213.195 507.329 Q210.857 505.222 206.852 505.222 Q204.977 505.222 203.102 505.639 Q201.25 506.055 199.306 506.935 L199.306 489.574 Z" fill="#000000" fill-rule="nonzero" fill-opacity="1"></path><path clip-path="url(#clip780)" d="M153.843 161.572 L161.482 161.572 L161.482 135.207 L153.172 136.874 L153.172 132.614 L161.436 130.948 L166.112 130.948 L166.112 161.572 L173.751 161.572 L173.751 165.508 L153.843 165.508 L153.843 161.572 Z" fill="#000000" fill-rule="nonzero" fill-opacity="1"></path><path clip-path="url(#clip780)" d="M183.195 159.628 L188.079 159.628 L188.079 165.508 L183.195 165.508 L183.195 159.628 Z" fill="#000000" fill-rule="nonzero" fill-opacity="1"></path><path clip-path="url(#clip780)" d="M208.264 134.026 Q204.653 134.026 202.824 137.591 Q201.019 141.133 201.019 148.262 Q201.019 155.369 202.824 158.934 Q204.653 162.475 208.264 162.475 Q211.899 162.475 213.704 158.934 Q215.533 155.369 215.533 148.262 Q215.533 141.133 213.704 137.591 Q211.899 134.026 208.264 134.026 M208.264 130.323 Q214.074 130.323 217.13 134.929 Q220.209 139.512 220.209 148.262 Q220.209 156.989 217.13 161.596 Q214.074 166.179 208.264 166.179 Q202.454 166.179 199.375 161.596 Q196.32 156.989 196.32 148.262 Q196.32 139.512 199.375 134.929 Q202.454 130.323 208.264 130.323 Z" fill="#000000" fill-rule="nonzero" fill-opacity="1"></path><path clip-path="url(#clip780)" d="M18.0438 893.717 L24.314 893.717 Q22.5634 897.378 21.704 900.624 Q20.8447 903.871 20.8447 906.894 Q20.8447 912.146 22.8817 915.011 Q24.9187 917.843 28.6745 917.843 Q31.8255 917.843 33.4488 915.966 Q35.0402 914.056 36.0269 908.772 L36.8226 904.889 Q38.1912 897.696 41.6605 894.29 Q45.098 890.853 50.8908 890.853 Q57.7976 890.853 61.3624 895.5 Q64.9272 900.115 64.9272 909.059 Q64.9272 912.433 64.1633 916.252 Q63.3994 920.04 61.9035 924.114 L55.2831 924.114 Q57.4793 920.199 58.5933 916.443 Q59.7073 912.687 59.7073 909.059 Q59.7073 903.552 57.543 900.561 Q55.3786 897.569 51.3682 897.569 Q47.8671 897.569 45.8937 899.733 Q43.9204 901.866 42.9337 906.767 L42.1698 910.682 Q40.7375 917.875 37.682 921.09 Q34.6264 924.305 29.1837 924.305 Q22.8817 924.305 19.2532 919.88 Q15.6248 915.424 15.6248 907.626 Q15.6248 904.284 16.2295 900.815 Q16.8343 897.346 18.0438 893.717 Z" fill="#000000" fill-rule="nonzero" fill-opacity="1"></path><path clip-path="url(#clip780)" d="M28.3562 881.081 L28.3562 875.225 L64.0042 875.225 L64.0042 881.081 L28.3562 881.081 M14.479 881.081 L14.479 875.225 L21.895 875.225 L21.895 881.081 L14.479 881.081 Z" fill="#000000" fill-rule="nonzero" fill-opacity="1"></path><path clip-path="url(#clip780)" d="M35.1993 835.217 Q31.2526 833.02 29.3747 829.965 Q27.4968 826.909 27.4968 822.772 Q27.4968 817.202 31.4117 814.178 Q35.2948 811.154 42.4881 811.154 L64.0042 811.154 L64.0042 817.042 L42.679 817.042 Q37.5546 817.042 35.072 818.857 Q32.5894 820.671 32.5894 824.395 Q32.5894 828.946 35.6131 831.588 Q38.6368 834.23 43.8567 834.23 L64.0042 834.23 L64.0042 840.118 L42.679 840.118 Q37.5228 840.118 35.072 841.932 Q32.5894 843.747 32.5894 847.534 Q32.5894 852.022 35.6449 854.664 Q38.6686 857.306 43.8567 857.306 L64.0042 857.306 L64.0042 863.194 L28.3562 863.194 L28.3562 857.306 L33.8944 857.306 Q30.616 855.3 29.0564 852.499 Q27.4968 849.699 27.4968 845.847 Q27.4968 841.964 29.4702 839.259 Q31.4436 836.522 35.1993 835.217 Z" fill="#000000" fill-rule="nonzero" fill-opacity="1"></path><path clip-path="url(#clip780)" d="M28.3562 799.473 L28.3562 793.617 L64.0042 793.617 L64.0042 799.473 L28.3562 799.473 M14.479 799.473 L14.479 793.617 L21.895 793.617 L21.895 799.473 L14.479 799.473 Z" fill="#000000" fill-rule="nonzero" fill-opacity="1"></path><path clip-path="url(#clip780)" d="M14.479 781.363 L14.479 775.506 L64.0042 775.506 L64.0042 781.363 L14.479 781.363 Z" fill="#000000" fill-rule="nonzero" fill-opacity="1"></path><path clip-path="url(#clip780)" d="M46.0847 747.052 Q46.0847 754.149 47.7079 756.887 Q49.3312 759.624 53.2461 759.624 Q56.3653 759.624 58.2114 757.587 Q60.0256 755.518 60.0256 751.985 Q60.0256 747.115 56.5881 744.187 Q53.1188 741.227 47.3897 741.227 L46.0847 741.227 L46.0847 747.052 M43.6657 735.37 L64.0042 735.37 L64.0042 741.227 L58.5933 741.227 Q61.8398 743.232 63.3994 746.224 Q64.9272 749.216 64.9272 753.545 Q64.9272 759.019 61.8716 762.266 Q58.7843 765.48 53.6281 765.48 Q47.6125 765.48 44.5569 761.47 Q41.5014 757.428 41.5014 749.439 L41.5014 741.227 L40.9285 741.227 Q36.8862 741.227 34.6901 743.901 Q32.4621 746.542 32.4621 751.348 Q32.4621 754.404 33.1941 757.3 Q33.9262 760.197 35.3903 762.87 L29.9795 762.87 Q28.7381 759.656 28.1334 756.632 Q27.4968 753.608 27.4968 750.744 Q27.4968 743.009 31.5072 739.19 Q35.5176 735.37 43.6657 735.37 Z" fill="#000000" fill-rule="nonzero" fill-opacity="1"></path><path clip-path="url(#clip780)" d="M33.8307 702.651 Q33.2578 703.637 33.0032 704.815 Q32.7167 705.961 32.7167 707.361 Q32.7167 712.327 35.9632 715 Q39.1779 717.642 45.2253 717.642 L64.0042 717.642 L64.0042 723.53 L28.3562 723.53 L28.3562 717.642 L33.8944 717.642 Q30.6479 715.796 29.0883 712.836 Q27.4968 709.876 27.4968 705.643 Q27.4968 705.038 27.5923 704.306 Q27.656 703.574 27.8151 702.683 L33.8307 702.651 Z" fill="#000000" fill-rule="nonzero" fill-opacity="1"></path><path clip-path="url(#clip780)" d="M28.3562 696.508 L28.3562 690.651 L64.0042 690.651 L64.0042 696.508 L28.3562 696.508 M14.479 696.508 L14.479 690.651 L21.895 690.651 L21.895 696.508 L14.479 696.508 Z" fill="#000000" fill-rule="nonzero" fill-opacity="1"></path><path clip-path="url(#clip780)" d="M18.2347 672.605 L28.3562 672.605 L28.3562 660.542 L32.9077 660.542 L32.9077 672.605 L52.2594 672.605 Q56.6199 672.605 57.8613 671.427 Q59.1026 670.217 59.1026 666.557 L59.1026 660.542 L64.0042 660.542 L64.0042 666.557 Q64.0042 673.337 61.4897 675.915 Q58.9434 678.493 52.2594 678.493 L32.9077 678.493 L32.9077 682.79 L28.3562 682.79 L28.3562 678.493 L18.2347 678.493 L18.2347 672.605 Z" fill="#000000" fill-rule="nonzero" fill-opacity="1"></path><path clip-path="url(#clip780)" d="M67.3143 638.007 Q73.68 640.49 75.6216 642.845 Q77.5631 645.2 77.5631 649.147 L77.5631 653.826 L72.6615 653.826 L72.6615 650.388 Q72.6615 647.969 71.5157 646.633 Q70.3699 645.296 66.1048 643.672 L63.4312 642.622 L28.3562 657.04 L28.3562 650.834 L56.238 639.694 L28.3562 628.554 L28.3562 622.347 L67.3143 638.007 Z" fill="#000000" fill-rule="nonzero" fill-opacity="1"></path><path clip-path="url(#clip780)" d="M784.265 16.7545 L784.265 25.383 Q780.133 21.5346 775.434 19.6307 Q770.776 17.7268 765.509 17.7268 Q755.139 17.7268 749.63 24.0867 Q744.121 30.4061 744.121 42.3968 Q744.121 54.3469 749.63 60.7069 Q755.139 67.0263 765.509 67.0263 Q770.776 67.0263 775.434 65.1223 Q780.133 63.2184 784.265 59.3701 L784.265 67.9175 Q779.971 70.8341 775.151 72.2924 Q770.371 73.7508 765.023 73.7508 Q751.291 73.7508 743.392 65.3654 Q735.492 56.9395 735.492 42.3968 Q735.492 27.8135 743.392 19.4281 Q751.291 11.0023 765.023 11.0023 Q770.452 11.0023 775.232 12.4606 Q780.052 13.8784 784.265 16.7545 Z" fill="#000000" fill-rule="nonzero" fill-opacity="1"></path><path clip-path="url(#clip780)" d="M814.161 32.4315 Q808.165 32.4315 804.682 37.1306 Q801.198 41.7891 801.198 49.9314 Q801.198 58.0738 804.641 62.7728 Q808.125 67.4314 814.161 67.4314 Q820.116 67.4314 823.599 62.7323 Q827.083 58.0333 827.083 49.9314 Q827.083 41.8701 823.599 37.1711 Q820.116 32.4315 814.161 32.4315 M814.161 26.1121 Q823.883 26.1121 829.433 32.4315 Q834.982 38.7509 834.982 49.9314 Q834.982 61.0714 829.433 67.4314 Q823.883 73.7508 814.161 73.7508 Q804.398 73.7508 798.848 67.4314 Q793.339 61.0714 793.339 49.9314 Q793.339 38.7509 798.848 32.4315 Q804.398 26.1121 814.161 26.1121 Z" fill="#000000" fill-rule="nonzero" fill-opacity="1"></path><path clip-path="url(#clip780)" d="M876.261 28.5427 L876.261 35.5912 Q873.101 33.9709 869.699 33.1607 Q866.296 32.3505 862.65 32.3505 Q857.1 32.3505 854.305 34.0519 Q851.551 35.7533 851.551 39.156 Q851.551 41.7486 853.536 43.2475 Q855.521 44.7058 861.516 46.0426 L864.068 46.6097 Q872.008 48.3111 875.329 51.4303 Q878.692 54.509 878.692 60.0587 Q878.692 66.3781 873.669 70.0644 Q868.686 73.7508 859.936 73.7508 Q856.29 73.7508 852.32 73.0216 Q848.391 72.3329 844.016 70.9151 L844.016 63.2184 Q848.148 65.3654 852.158 66.4591 Q856.169 67.5124 860.098 67.5124 Q865.364 67.5124 868.2 65.73 Q871.036 63.9071 871.036 60.6258 Q871.036 57.5877 868.97 55.9673 Q866.944 54.3469 860.017 52.8481 L857.424 52.2405 Q850.497 50.7821 847.419 47.7845 Q844.34 44.7463 844.34 39.4801 Q844.34 33.0797 848.877 29.5959 Q853.414 26.1121 861.759 26.1121 Q865.891 26.1121 869.537 26.7198 Q873.183 27.3274 876.261 28.5427 Z" fill="#000000" fill-rule="nonzero" fill-opacity="1"></path><path clip-path="url(#clip780)" d="M890.561 27.2059 L898.015 27.2059 L898.015 72.576 L890.561 72.576 L890.561 27.2059 M890.561 9.54393 L898.015 9.54393 L898.015 18.9825 L890.561 18.9825 L890.561 9.54393 Z" fill="#000000" fill-rule="nonzero" fill-opacity="1"></path><path clip-path="url(#clip780)" d="M951.324 45.1919 L951.324 72.576 L943.871 72.576 L943.871 45.4349 Q943.871 38.994 941.359 35.7938 Q938.848 32.5936 933.825 32.5936 Q927.789 32.5936 924.305 36.4419 Q920.821 40.2903 920.821 46.9338 L920.821 72.576 L913.327 72.576 L913.327 27.2059 L920.821 27.2059 L920.821 34.2544 Q923.495 30.163 927.1 28.1376 Q930.746 26.1121 935.485 26.1121 Q943.304 26.1121 947.314 30.9732 Q951.324 35.7938 951.324 45.1919 Z" fill="#000000" fill-rule="nonzero" fill-opacity="1"></path><path clip-path="url(#clip780)" d="M1005 48.0275 L1005 51.6733 L970.728 51.6733 Q971.214 59.3701 975.346 63.421 Q979.519 67.4314 986.932 67.4314 Q991.226 67.4314 995.236 66.3781 Q999.287 65.3249 1003.26 63.2184 L1003.26 70.267 Q999.247 71.9684 995.034 72.8596 Q990.821 73.7508 986.486 73.7508 Q975.63 73.7508 969.27 67.4314 Q962.951 61.1119 962.951 50.3365 Q962.951 39.1965 968.946 32.6746 Q974.982 26.1121 985.19 26.1121 Q994.345 26.1121 999.652 32.0264 Q1005 37.9003 1005 48.0275 M997.545 45.84 Q997.464 39.7232 994.102 36.0774 Q990.78 32.4315 985.271 32.4315 Q979.033 32.4315 975.265 35.9558 Q971.538 39.4801 970.971 45.8805 L997.545 45.84 Z" fill="#000000" fill-rule="nonzero" fill-opacity="1"></path><path clip-path="url(#clip780)" d="M1072.53 28.5427 L1072.53 35.5912 Q1069.37 33.9709 1065.97 33.1607 Q1062.56 32.3505 1058.92 32.3505 Q1053.37 32.3505 1050.57 34.0519 Q1047.82 35.7533 1047.82 39.156 Q1047.82 41.7486 1049.8 43.2475 Q1051.79 44.7058 1057.78 46.0426 L1060.33 46.6097 Q1068.27 48.3111 1071.6 51.4303 Q1074.96 54.509 1074.96 60.0587 Q1074.96 66.3781 1069.93 70.0644 Q1064.95 73.7508 1056.2 73.7508 Q1052.56 73.7508 1048.59 73.0216 Q1044.66 72.3329 1040.28 70.9151 L1040.28 63.2184 Q1044.41 65.3654 1048.42 66.4591 Q1052.44 67.5124 1056.36 67.5124 Q1061.63 67.5124 1064.47 65.73 Q1067.3 63.9071 1067.3 60.6258 Q1067.3 57.5877 1065.24 55.9673 Q1063.21 54.3469 1056.28 52.8481 L1053.69 52.2405 Q1046.76 50.7821 1043.69 47.7845 Q1040.61 44.7463 1040.61 39.4801 Q1040.61 33.0797 1045.14 29.5959 Q1049.68 26.1121 1058.03 26.1121 Q1062.16 26.1121 1065.8 26.7198 Q1069.45 27.3274 1072.53 28.5427 Z" fill="#000000" fill-rule="nonzero" fill-opacity="1"></path><path clip-path="url(#clip780)" d="M1086.83 27.2059 L1094.28 27.2059 L1094.28 72.576 L1086.83 72.576 L1086.83 27.2059 M1086.83 9.54393 L1094.28 9.54393 L1094.28 18.9825 L1086.83 18.9825 L1086.83 9.54393 Z" fill="#000000" fill-rule="nonzero" fill-opacity="1"></path><path clip-path="url(#clip780)" d="M1145.2 35.9153 Q1148 30.8922 1151.88 28.5022 Q1155.77 26.1121 1161.04 26.1121 Q1168.13 26.1121 1171.98 31.0947 Q1175.83 36.0368 1175.83 45.1919 L1175.83 72.576 L1168.33 72.576 L1168.33 45.4349 Q1168.33 38.913 1166.02 35.7533 Q1163.71 32.5936 1158.97 32.5936 Q1153.18 32.5936 1149.82 36.4419 Q1146.46 40.2903 1146.46 46.9338 L1146.46 72.576 L1138.96 72.576 L1138.96 45.4349 Q1138.96 38.8725 1136.65 35.7533 Q1134.34 32.5936 1129.52 32.5936 Q1123.81 32.5936 1120.45 36.4824 Q1117.09 40.3308 1117.09 46.9338 L1117.09 72.576 L1109.59 72.576 L1109.59 27.2059 L1117.09 27.2059 L1117.09 34.2544 Q1119.64 30.082 1123.2 28.0971 Q1126.77 26.1121 1131.67 26.1121 Q1136.61 26.1121 1140.06 28.6237 Q1143.54 31.1352 1145.2 35.9153 Z" fill="#000000" fill-rule="nonzero" fill-opacity="1"></path><path clip-path="url(#clip780)" d="M1219.62 28.5427 L1219.62 35.5912 Q1216.46 33.9709 1213.05 33.1607 Q1209.65 32.3505 1206 32.3505 Q1200.46 32.3505 1197.66 34.0519 Q1194.91 35.7533 1194.91 39.156 Q1194.91 41.7486 1196.89 43.2475 Q1198.88 44.7058 1204.87 46.0426 L1207.42 46.6097 Q1215.36 48.3111 1218.68 51.4303 Q1222.05 54.509 1222.05 60.0587 Q1222.05 66.3781 1217.02 70.0644 Q1212.04 73.7508 1203.29 73.7508 Q1199.64 73.7508 1195.67 73.0216 Q1191.75 72.3329 1187.37 70.9151 L1187.37 63.2184 Q1191.5 65.3654 1195.51 66.4591 Q1199.52 67.5124 1203.45 67.5124 Q1208.72 67.5124 1211.55 65.73 Q1214.39 63.9071 1214.39 60.6258 Q1214.39 57.5877 1212.32 55.9673 Q1210.3 54.3469 1203.37 52.8481 L1200.78 52.2405 Q1193.85 50.7821 1190.77 47.7845 Q1187.69 44.7463 1187.69 39.4801 Q1187.69 33.0797 1192.23 29.5959 Q1196.77 26.1121 1205.11 26.1121 Q1209.25 26.1121 1212.89 26.7198 Q1216.54 27.3274 1219.62 28.5427 Z" fill="#000000" fill-rule="nonzero" fill-opacity="1"></path><path clip-path="url(#clip780)" d="M1292.94 28.9478 L1292.94 35.9153 Q1289.78 34.1734 1286.58 33.3227 Q1283.42 32.4315 1280.18 32.4315 Q1272.93 32.4315 1268.92 37.0496 Q1264.9 41.6271 1264.9 49.9314 Q1264.9 58.2358 1268.92 62.8538 Q1272.93 67.4314 1280.18 67.4314 Q1283.42 67.4314 1286.58 66.5807 Q1289.78 65.6895 1292.94 63.9476 L1292.94 70.8341 Q1289.82 72.2924 1286.46 73.0216 Q1283.13 73.7508 1279.37 73.7508 Q1269.12 73.7508 1263.08 67.3098 Q1257.05 60.8689 1257.05 49.9314 Q1257.05 38.832 1263.12 32.472 Q1269.24 26.1121 1279.85 26.1121 Q1283.3 26.1121 1286.58 26.8413 Q1289.86 27.5299 1292.94 28.9478 Z" fill="#000000" fill-rule="nonzero" fill-opacity="1"></path><path clip-path="url(#clip780)" d="M1344.71 48.0275 L1344.71 51.6733 L1310.44 51.6733 Q1310.92 59.3701 1315.06 63.421 Q1319.23 67.4314 1326.64 67.4314 Q1330.93 67.4314 1334.95 66.3781 Q1339 65.3249 1342.97 63.2184 L1342.97 70.267 Q1338.96 71.9684 1334.74 72.8596 Q1330.53 73.7508 1326.2 73.7508 Q1315.34 73.7508 1308.98 67.4314 Q1302.66 61.1119 1302.66 50.3365 Q1302.66 39.1965 1308.65 32.6746 Q1314.69 26.1121 1324.9 26.1121 Q1334.05 26.1121 1339.36 32.0264 Q1344.71 37.9003 1344.71 48.0275 M1337.25 45.84 Q1337.17 39.7232 1333.81 36.0774 Q1330.49 32.4315 1324.98 32.4315 Q1318.74 32.4315 1314.97 35.9558 Q1311.25 39.4801 1310.68 45.8805 L1337.25 45.84 Z" fill="#000000" fill-rule="nonzero" fill-opacity="1"></path><path clip-path="url(#clip780)" d="M1356.94 9.54393 L1364.4 9.54393 L1364.4 72.576 L1356.94 72.576 L1356.94 9.54393 Z" fill="#000000" fill-rule="nonzero" fill-opacity="1"></path><path clip-path="url(#clip780)" d="M1379.99 9.54393 L1387.44 9.54393 L1387.44 72.576 L1379.99 72.576 L1379.99 9.54393 Z" fill="#000000" fill-rule="nonzero" fill-opacity="1"></path><path clip-path="url(#clip780)" d="M1431.88 65.6895 L1445.25 65.6895 L1445.25 19.5497 L1430.71 22.4663 L1430.71 15.0127 L1445.17 12.096 L1453.35 12.096 L1453.35 65.6895 L1466.72 65.6895 L1466.72 72.576 L1431.88 72.576 L1431.88 65.6895 Z" fill="#000000" fill-rule="nonzero" fill-opacity="1"></path><path clip-path="url(#clip780)" d="M1500.75 17.4837 Q1494.43 17.4837 1491.23 23.7221 Q1488.07 29.92 1488.07 42.3968 Q1488.07 54.833 1491.23 61.0714 Q1494.43 67.2693 1500.75 67.2693 Q1507.11 67.2693 1510.27 61.0714 Q1513.47 54.833 1513.47 42.3968 Q1513.47 29.92 1510.27 23.7221 Q1507.11 17.4837 1500.75 17.4837 M1500.75 11.0023 Q1510.92 11.0023 1516.26 19.0636 Q1521.65 27.0843 1521.65 42.3968 Q1521.65 57.6687 1516.26 65.73 Q1510.92 73.7508 1500.75 73.7508 Q1490.58 73.7508 1485.19 65.73 Q1479.85 57.6687 1479.85 42.3968 Q1479.85 27.0843 1485.19 19.0636 Q1490.58 11.0023 1500.75 11.0023 Z" fill="#000000" fill-rule="nonzero" fill-opacity="1"></path><path clip-path="url(#clip780)" d="M1553.53 17.4837 Q1547.21 17.4837 1544.01 23.7221 Q1540.85 29.92 1540.85 42.3968 Q1540.85 54.833 1544.01 61.0714 Q1547.21 67.2693 1553.53 67.2693 Q1559.89 67.2693 1563.05 61.0714 Q1566.25 54.833 1566.25 42.3968 Q1566.25 29.92 1563.05 23.7221 Q1559.89 17.4837 1553.53 17.4837 M1553.53 11.0023 Q1563.7 11.0023 1569.05 19.0636 Q1574.43 27.0843 1574.43 42.3968 Q1574.43 57.6687 1569.05 65.73 Q1563.7 73.7508 1553.53 73.7508 Q1543.36 73.7508 1537.98 65.73 Q1532.63 57.6687 1532.63 42.3968 Q1532.63 27.0843 1537.98 19.0636 Q1543.36 11.0023 1553.53 11.0023 Z" fill="#000000" fill-rule="nonzero" fill-opacity="1"></path><path clip-path="url(#clip780)" d="M1614.13 27.2059 L1621.59 27.2059 L1621.59 72.576 L1614.13 72.576 L1614.13 27.2059 M1614.13 9.54393 L1621.59 9.54393 L1621.59 18.9825 L1614.13 18.9825 L1614.13 9.54393 Z" fill="#000000" fill-rule="nonzero" fill-opacity="1"></path><path clip-path="url(#clip780)" d="M1644.56 14.324 L1644.56 27.2059 L1659.91 27.2059 L1659.91 32.9987 L1644.56 32.9987 L1644.56 57.6282 Q1644.56 63.1779 1646.05 64.7578 Q1647.59 66.3376 1652.25 66.3376 L1659.91 66.3376 L1659.91 72.576 L1652.25 72.576 Q1643.62 72.576 1640.34 69.3758 Q1637.06 66.1351 1637.06 57.6282 L1637.06 32.9987 L1631.59 32.9987 L1631.59 27.2059 L1637.06 27.2059 L1637.06 14.324 L1644.56 14.324 Z" fill="#000000" fill-rule="nonzero" fill-opacity="1"></path><path clip-path="url(#clip780)" d="M1708.52 48.0275 L1708.52 51.6733 L1674.25 51.6733 Q1674.73 59.3701 1678.87 63.421 Q1683.04 67.4314 1690.45 67.4314 Q1694.75 67.4314 1698.76 66.3781 Q1702.81 65.3249 1706.78 63.2184 L1706.78 70.267 Q1702.77 71.9684 1698.55 72.8596 Q1694.34 73.7508 1690.01 73.7508 Q1679.15 73.7508 1672.79 67.4314 Q1666.47 61.1119 1666.47 50.3365 Q1666.47 39.1965 1672.47 32.6746 Q1678.5 26.1121 1688.71 26.1121 Q1697.87 26.1121 1703.17 32.0264 Q1708.52 37.9003 1708.52 48.0275 M1701.07 45.84 Q1700.98 39.7232 1697.62 36.0774 Q1694.3 32.4315 1688.79 32.4315 Q1682.55 32.4315 1678.79 35.9558 Q1675.06 39.4801 1674.49 45.8805 L1701.07 45.84 Z" fill="#000000" fill-rule="nonzero" fill-opacity="1"></path><path clip-path="url(#clip780)" d="M1747.04 34.1734 Q1745.79 33.4443 1744.29 33.1202 Q1742.83 32.7556 1741.05 32.7556 Q1734.73 32.7556 1731.33 36.8875 Q1727.96 40.9789 1727.96 48.6757 L1727.96 72.576 L1720.47 72.576 L1720.47 27.2059 L1727.96 27.2059 L1727.96 34.2544 Q1730.31 30.1225 1734.08 28.1376 Q1737.85 26.1121 1743.24 26.1121 Q1744.01 26.1121 1744.94 26.2337 Q1745.87 26.3147 1747 26.5172 L1747.04 34.1734 Z" fill="#000000" fill-rule="nonzero" fill-opacity="1"></path><path clip-path="url(#clip780)" d="M1783.7 65.6895 L1797.07 65.6895 L1797.07 19.5497 L1782.53 22.4663 L1782.53 15.0127 L1796.99 12.096 L1805.17 12.096 L1805.17 65.6895 L1818.54 65.6895 L1818.54 72.576 L1783.7 72.576 L1783.7 65.6895 Z" fill="#000000" fill-rule="nonzero" fill-opacity="1"></path><path clip-path="url(#clip780)" d="M1852.57 17.4837 Q1846.25 17.4837 1843.05 23.7221 Q1839.89 29.92 1839.89 42.3968 Q1839.89 54.833 1843.05 61.0714 Q1846.25 67.2693 1852.57 67.2693 Q1858.93 67.2693 1862.09 61.0714 Q1865.29 54.833 1865.29 42.3968 Q1865.29 29.92 1862.09 23.7221 Q1858.93 17.4837 1852.57 17.4837 M1852.57 11.0023 Q1862.74 11.0023 1868.08 19.0636 Q1873.47 27.0843 1873.47 42.3968 Q1873.47 57.6687 1868.08 65.73 Q1862.74 73.7508 1852.57 73.7508 Q1842.4 73.7508 1837.01 65.73 Q1831.67 57.6687 1831.67 42.3968 Q1831.67 27.0843 1837.01 19.0636 Q1842.4 11.0023 1852.57 11.0023 Z" fill="#000000" fill-rule="nonzero" fill-opacity="1"></path><polyline clip-path="url(#clip782)" style="stroke:#009af9; stroke-linecap:round; stroke-linejoin:round; stroke-width:4; stroke-opacity:1; fill:none" points="315.545,867.947 317.525,864.183 319.505,887.024 321.484,930.191 323.464,1050.72 325.444,1006.8 327.424,964.554 329.404,938.082 331.384,810.628 333.364,1027.8 335.343,899.181 337.323,866.961 339.303,883.369 341.283,886.194 343.263,877.097 345.243,857.13 347.223,820.492 349.202,949.547 351.182,873.473 353.162,970.748 355.142,808.417 357.122,958.183 359.102,914.741 361.082,870.376 363.061,912.267 365.041,899.501 367.021,944.667 369.001,924.485 370.981,899.787 372.961,994.249 374.941,850.518 376.92,923.966 378.9,912.944 380.88,901.873 382.86,910.496 384.84,943.493 386.82,939.827 388.8,876.15 390.779,869.651 392.759,913.836 394.739,941.876 396.719,891.781 398.699,926.846 400.679,1023.81 402.659,835.45 404.638,946.609 406.618,896.125 408.598,885.381 410.578,939.975 412.558,898.732 414.538,1027.61 416.517,830.597 418.497,838.841 420.477,855.33 422.457,890.331 424.437,963.891 426.417,908.932 428.397,907.171 430.376,1049.79 432.356,944.452 434.336,954.344 436.316,797.14 438.296,796.56 440.276,995.239 442.256,890.473 444.235,892.521 446.215,908.129 448.195,881.143 450.175,907.483 452.155,872.736 454.135,881.486 456.115,874.239 458.094,904.608 460.074,841.466 462.054,906.457 464.034,872.446 466.014,853.246 467.994,931.425 469.974,907.129 471.953,927.421 473.933,868.797 475.913,855.064 477.893,965.379 479.873,886.456 481.853,957.718 483.833,917.816 485.812,832.642 487.792,862.668 489.772,874.772 491.752,852.833 493.732,818.747 495.712,961.817 497.692,930.595 499.671,912.106 501.651,913.694 503.631,875.109 505.611,876.81 507.591,1007.31 509.571,882.761 511.551,951.62 513.53,917.104 515.51,946.79 517.49,859.985 519.47,952.243 521.45,903.941 523.43,948.44 525.409,943.388 527.389,970.414 529.369,838.433 531.349,899.515 533.329,879.025 535.309,911.296 537.289,926.533 539.268,1016.09 541.248,903.159 543.228,947.64 545.208,909.852 547.188,1017.91 549.168,960.814 551.148,935.565 553.127,909.084 555.107,925.058 557.087,797.777 559.067,955.15 561.047,965.864 563.027,1150.11 565.007,926.965 566.986,1132.49 568.966,889.731 570.946,945.971 572.926,925.088 574.906,927.36 576.886,963.161 578.866,910.839 580.845,901.452 582.825,959.814 584.805,903.222 586.785,880.666 588.765,866.282 590.745,858.914 592.725,880.345 594.704,945.51 596.684,890.105 598.664,919.86 600.644,1019.84 602.624,900.915 604.604,937.529 606.584,931.845 608.563,887.791 610.543,956.54 612.523,847.004 614.503,1009.24 616.483,859.765 618.463,802.966 620.443,851.911 622.422,912.539 624.402,1043.69 626.382,843.207 628.362,803.276 630.342,899.189 632.322,857.518 634.301,955.999 636.281,859.739 638.261,818.162 640.241,916.226 642.221,993.164 644.201,844.05 646.181,879.694 648.16,813.622 650.14,794.88 652.12,910.269 654.1,896.188 656.08,971.258 658.06,906.791 660.04,924.711 662.019,808.201 663.999,935.773 665.979,912.066 667.959,937.304 669.939,887.932 671.919,1046.45 673.899,882.573 675.878,888.275 677.858,887.035 679.838,920.731 681.818,924.829 683.798,963.187 685.778,929.583 687.758,875.617 689.737,941.828 691.717,876.795 693.697,911.008 695.677,927.617 697.657,919.686 699.637,982.882 701.617,862.018 703.596,904.297 705.576,854.588 707.556,1069.12 709.536,903.03 711.516,921.695 713.496,949.377 715.476,1025.68 717.455,853.167 719.435,905.951 721.415,904.834 723.395,899.861 725.375,842.898 727.355,1022.78 729.335,1031.77 731.314,911.424 733.294,839.175 735.274,894.388 737.254,862.939 739.234,974.169 741.214,988.244 743.194,847.362 745.173,953.736 747.153,923.827 749.133,1012.55 751.113,905.203 753.093,989.17 755.073,923.624 757.052,963.603 759.032,870.27 761.012,884.516 762.992,928.139 764.972,932.97 766.952,910.837 768.932,983.715 770.911,880.602 772.891,902.141 774.871,856.61 776.851,1001.47 778.831,929.937 780.811,1036.76 782.791,876.099 784.77,885.973 786.75,879.274 788.73,930.322 790.71,956.077 792.69,918.805 794.67,962.223 796.65,955.846 798.629,856.734 800.609,981.601 802.589,967.981 804.569,986.117 806.549,1081.22 808.529,946.338 810.509,241.195 812.488,239.994 814.468,260.519 816.448,228.926 818.428,271.962 820.408,245.927 822.388,236.225 824.368,256.637 826.347,230.944 828.327,262.048 830.307,204.139 832.287,220.459 834.267,228.581 836.247,189.201 838.227,235.866 840.206,325.93 842.186,214.552 844.166,253.337 846.146,209.144 848.126,257.528 850.106,221.414 852.086,239.555 854.065,201.501 856.045,246.229 858.025,203.408 860.005,221.176 861.985,195.932 863.965,160.256 865.944,238.289 867.924,203.491 869.904,247.298 871.884,192.786 873.864,202.962 875.844,257.263 877.824,196.116 879.803,245.267 881.783,211.798 883.763,218.418 885.743,205.066 887.723,217.016 889.703,256.653 891.683,203.826 893.662,245.971 895.642,214.753 897.622,597.456 899.602,287.008 901.582,194.108 903.562,260.789 905.542,301.251 907.521,240.545 909.501,233.648 911.481,173.498 913.461,207.823 915.441,196.622 917.421,245.648 919.401,203.283 921.38,230.95 923.36,191.239 925.34,249.309 927.32,213.939 929.3,200.546 931.28,214.981 933.26,202.546 935.239,201.508 937.219,218.984 939.199,237.998 941.179,224.069 943.159,244.48 945.139,201.724 947.119,242.284 949.098,172.711 951.078,229.492 953.058,248.9 955.038,230.432 957.018,275.213 958.998,173.58 960.978,251.797 962.957,185.716 964.937,220.383 966.917,227.767 968.897,242.814 970.877,226.272 972.857,233.616 974.836,212.907 976.816,212.604 978.796,181.061 980.776,236.505 982.756,210.814 984.736,195.46 986.716,204.649 988.695,241.427 990.675,201.149 992.655,239.092 994.635,213.372 996.615,243.357 998.595,211.926 1000.57,233.516 1002.55,211.158 1004.53,209.436 1006.51,206.048 1008.49,261.055 1010.47,354.156 1012.45,206.532 1014.43,193.877 1016.41,211.351 1018.39,195.67 1020.37,256.834 1022.35,186.05 1024.33,220.552 1026.31,191.127 1028.29,291.062 1030.27,195.315 1032.25,255.581 1034.23,228.74 1036.21,207.953 1038.19,260.398 1040.17,218.288 1042.15,275.971 1044.13,195.049 1046.11,223.279 1048.09,242.69 1050.07,212.81 1052.05,262.514 1054.03,219.993 1056.01,257.987 1057.99,215.531 1059.97,191.041 1061.95,240.276 1063.93,259.941 1065.91,215.006 1067.89,217.151 1069.87,192.377 1071.85,232.322 1073.83,199.142 1075.81,224.243 1077.79,192.413 1079.77,292.865 1081.75,239.339 1083.73,197.851 1085.71,260.351 1087.69,168.25 1089.67,202.47 1091.65,230.867 1093.63,212.277 1095.61,199.206 1097.59,307.571 1099.57,247.031 1101.55,287.896 1103.53,262.466 1105.51,225.26 1107.49,191.868 1109.47,225.516 1111.45,243.682 1113.43,183.145 1115.41,300.52 1117.39,281.65 1119.37,169.431 1121.35,192.444 1123.33,217.944 1125.31,193.74 1127.29,223.021 1129.27,221.035 1131.25,165.254 1133.22,229.687 1135.2,249.153 1137.18,230.804 1139.16,234.242 1141.14,257.544 1143.12,279.299 1145.1,183.572 1147.08,203.267 1149.06,208.46 1151.04,172.314 1153.02,222.499 1155,199.254 1156.98,227.717 1158.96,207.759 1160.94,298.488 1162.92,258.754 1164.9,228.091 1166.88,226.138 1168.86,236.774 1170.84,257.846 1172.82,214.94 1174.8,234.817 1176.78,256.321 1178.76,207.098 1180.74,280.982 1182.72,225.99 1184.7,177.994 1186.68,171.783 1188.66,225.357 1190.64,234.2 1192.62,233.631 1194.6,219.702 1196.58,222.47 1198.56,279.347 1200.54,207.818 1202.52,244.205 1204.5,240.669 1206.48,241.162 1208.46,192.998 1210.44,184.307 1212.42,226.962 1214.4,231.413 1216.38,215.795 1218.36,238.742 1220.34,239.423 1222.32,198.157 1224.3,231.304 1226.28,246.804 1228.26,239.126 1230.24,231.491 1232.22,230.706 1234.2,234.979 1236.18,208.145 1238.16,212.844 1240.14,202.482 1242.12,215.94 1244.1,207.766 1246.08,204.323 1248.06,218.686 1250.04,268.105 1252.02,213.736 1254,208.417 1255.98,197.931 1257.96,261.39 1259.94,175.398 1261.92,226.298 1263.9,271.281 1265.88,189.806 1267.85,209.137 1269.83,268.208 1271.81,206.892 1273.79,195.836 1275.77,241.767 1277.75,236.053 1279.73,284.084 1281.71,167.081 1283.69,181.58 1285.67,255.245 1287.65,286.793 1289.63,221.122 1291.61,308.16 1293.59,225.578 1295.57,202.599 1297.55,187.47 1299.53,197.745 1301.51,315.076 1303.49,274.003 1305.47,1101.75 1307.45,1192.42 1309.43,1040.71 1311.41,1151.16 1313.39,1105.64 1315.37,1249.95 1317.35,1111.19 1319.33,1170.66 1321.31,1156.82 1323.29,1058.45 1325.27,1127.8 1327.25,1210.2 1329.23,1091.16 1331.21,1123.67 1333.19,1142.38 1335.17,1188.4 1337.15,1137.01 1339.13,1218.32 1341.11,1146.45 1343.09,1151.35 1345.07,1180.73 1347.05,1123.75 1349.03,1161.26 1351.01,1167.85 1352.99,1128.55 1354.97,1184.35 1356.95,1219.88 1358.93,1194.12 1360.91,1154.82 1362.89,1143.02 1364.87,1273.02 1366.85,1152.99 1368.83,1141.45 1370.81,1090.75 1372.79,1136.48 1374.77,1114.06 1376.75,1104.97 1378.73,1154.47 1380.71,1095.66 1382.69,1069.86 1384.67,1132.19 1386.65,1159.17 1388.63,1093.33 1390.61,1135.9 1392.59,1068.71 1394.57,1074 1396.55,1222.23 1398.53,1062.79 1400.51,1158.34 1402.49,1095.25 1404.46,1250.08 1406.44,1123.07 1408.42,1109.44 1410.4,1164.71 1412.38,1159.76 1414.36,1118.87 1416.34,1206.72 1418.32,1174.83 1420.3,1138.38 1422.28,1137.36 1424.26,1235.59 1426.24,1123.61 1428.22,1074.91 1430.2,1238.09 1432.18,1154.5 1434.16,1111.06 1436.14,1231.39 1438.12,1135.65 1440.1,1115.93 1442.08,1061.65 1444.06,1217.72 1446.04,1128.26 1448.02,1292.41 1450,1177.08 1451.98,1059.5 1453.96,1252.99 1455.94,1226.96 1457.92,1085.78 1459.9,1216.2 1461.88,1250.62 1463.86,1121.01 1465.84,1177.23 1467.82,1170.15 1469.8,1213.43 1471.78,1185.82 1473.76,1108.99 1475.74,1177.64 1477.72,1155.05 1479.7,1136.2 1481.68,1070.68 1483.66,1162.66 1485.64,1261.23 1487.62,1203.09 1489.6,1269.96 1491.58,1172.83 1493.56,1096.25 1495.54,1119.38 1497.52,1100.56 1499.5,1121.05 1501.48,1168.56 1503.46,1181.37 1505.44,1106.29 1507.42,1095.87 1509.4,1140.78 1511.38,1138.56 1513.36,1171.76 1515.34,1134.54 1517.32,1170.83 1519.3,1124.34 1521.28,1198.52 1523.26,1108.83 1525.24,1085.35 1527.22,1039.73 1529.2,1189.15 1531.18,1046.78 1533.16,1101.98 1535.14,987.255 1537.12,1110.41 1539.1,1103.08 1541.07,1245.43 1543.05,1138.17 1545.03,1087.48 1547.01,1111.43 1548.99,1082.97 1550.97,1084.06 1552.95,1132.77 1554.93,1162.66 1556.91,1072.33 1558.89,1180.91 1560.87,1091.97 1562.85,1059.85 1564.83,1208.82 1566.81,1172.97 1568.79,1105.87 1570.77,1094.6 1572.75,1162.6 1574.73,1227.02 1576.71,1145.4 1578.69,1140.11 1580.67,1152.68 1582.65,1066.38 1584.63,1207.21 1586.61,1110.04 1588.59,1213.25 1590.57,1140.82 1592.55,1151.63 1594.53,1054.63 1596.51,1168.21 1598.49,1110.59 1600.47,1197.87 1602.45,1034.38 1604.43,1204.77 1606.41,1159.87 1608.39,1289.48 1610.37,1148.53 1612.35,1103.81 1614.33,1110.1 1616.31,1254.83 1618.29,1141.34 1620.27,1121.37 1622.25,1295.78 1624.23,1191.12 1626.21,1057.29 1628.19,1274.84 1630.17,1255.67 1632.15,1146.83 1634.13,1116.95 1636.11,1300.58 1638.09,1163.51 1640.07,1107.85 1642.05,1078.4 1644.03,1043.18 1646.01,1126.25 1647.99,1201.26 1649.97,1082.79 1651.95,1188.33 1653.93,1187.99 1655.91,1166.5 1657.89,1107.91 1659.87,1203.02 1661.85,1137.22 1663.83,1075.93 1665.81,1099.97 1667.79,1106.69 1669.77,1177.23 1671.75,1162.94 1673.73,1154.54 1675.71,1129.53 1677.68,1137.93 1679.66,1111.68 1681.64,1253.13 1683.62,1109.72 1685.6,1191.67 1687.58,970.562 1689.56,1151.75 1691.54,1123.08 1693.52,1209.47 1695.5,1231.97 1697.48,1157.77 1699.46,1162.95 1701.44,1173.11 1703.42,1140.35 1705.4,1205.17 1707.38,1178.81 1709.36,1125.97 1711.34,1191.38 1713.32,1219.13 1715.3,1221.9 1717.28,1128.27 1719.26,1218.18 1721.24,1236.16 1723.22,1028.89 1725.2,1115.59 1727.18,1166.4 1729.16,973.829 1731.14,1165.93 1733.12,1121.24 1735.1,1210.14 1737.08,1134.21 1739.06,1174.1 1741.04,1107.57 1743.02,1139.81 1745,1240.63 1746.98,1080.81 1748.96,1172.88 1750.94,1159.86 1752.92,1174.53 1754.9,1132.1 1756.88,1094.27 1758.86,1069.84 1760.84,1267.31 1762.82,1040.28 1764.8,1261.72 1766.78,1162.95 1768.76,948.946 1770.74,1140.37 1772.72,1099.15 1774.7,1105.39 1776.68,1172.41 1778.66,1301.29 1780.64,1213.68 1782.62,1139.39 1784.6,1141.15 1786.58,1163.81 1788.56,1085.73 1790.54,1243.43 1792.52,1144.42 1794.5,1130.42 1796.48,1183.3 1798.46,1241.63 1800.44,1176.93 1802.42,1151.38 1804.4,1183.46 1806.38,1234.45 1808.36,1160.11 1810.34,1278.35 1812.31,1297.19 1814.29,1386.4 1816.27,1373.67 1818.25,1285.23 1820.23,1365.37 1822.21,1220.57 1824.19,1294.74 1826.17,1185.9 1828.15,1250.65 1830.13,1313.6 1832.11,1220.07 1834.09,1226.46 1836.07,1275.51 1838.05,1123.35 1840.03,1228.34 1842.01,1180.43 1843.99,1273.78 1845.97,1207.53 1847.95,1385.76 1849.93,1265.4 1851.91,1361.32 1853.89,1316.08 1855.87,1317.89 1857.85,1227.38 1859.83,1219.13 1861.81,1131.69 1863.79,1262.99 1865.77,1227.63 1867.75,1213.91 1869.73,1245.03 1871.71,1260.35 1873.69,1202.78 1875.67,1053.87 1877.65,1172.35 1879.63,1324.48 1881.61,1217.58 1883.59,1278.69 1885.57,1222.24 1887.55,1242.76 1889.53,1228.78 1891.51,1308.98 1893.49,1175.3 1895.47,1237.28 1897.45,1262.38 1899.43,1300.98 1901.41,1169.04 1903.39,1225.05 1905.37,1336.78 1907.35,1325.11 1909.33,1181.34 1911.31,1312.54 1913.29,1184.39 1915.27,1288.63 1917.25,1253.95 1919.23,1295.91 1921.21,1264.96 1923.19,1240.62 1925.17,1228.35 1927.15,1174.72 1929.13,1205.99 1931.11,1292.35 1933.09,1322.13 1935.07,1147.11 1937.05,1217.09 1939.03,1324.98 1941.01,1244.31 1942.99,1232.44 1944.97,1191 1946.95,1327.68 1948.92,1287.98 1950.9,1215.09 1952.88,1217.09 1954.86,1259.62 1956.84,1180.23 1958.82,1372.43 1960.8,1212.73 1962.78,1248.12 1964.76,1214.39 1966.74,1234.68 1968.72,1260.68 1970.7,1237.39 1972.68,1272.34 1974.66,1293.54 1976.64,1191.29 1978.62,1279.08 1980.6,1205.84 1982.58,1351.1 1984.56,1177.05 1986.54,1208.37 1988.52,1187.76 1990.5,1184.2 1992.48,1141.3 1994.46,1180.82 1996.44,1249.33 1998.42,1321.03 2000.4,1186.09 2002.38,1335.58 2004.36,1272.25 2006.34,1210.16 2008.32,1171.05 2010.3,1301.73 2012.28,1138.91 2014.26,1330.86 2016.24,1132.91 2018.22,1336.64 2020.2,1267.79 2022.18,1308.9 2024.16,1357.83 2026.14,1125.07 2028.12,1221.63 2030.1,1108.31 2032.08,1286.34 2034.06,1306.31 2036.04,1300.91 2038.02,1252.8 2040,1258.91 2041.98,1185.19 2043.96,1356.04 2045.94,1150.34 2047.92,1191.12 2049.9,1084.42 2051.88,1247.74 2053.86,1228.84 2055.84,1357.33 2057.82,1205.62 2059.8,1265.22 2061.78,1282.83 2063.76,1265.57 2065.74,1202.38 2067.72,1216.81 2069.7,1161.72 2071.68,1290.58 2073.66,1236.66 2075.64,1281.48 2077.62,1181.72 2079.6,1228.09 2081.58,1364.47 2083.56,1203.89 2085.53,1334.25 2087.51,1251.86 2089.49,1243.72 2091.47,1363.08 2093.45,1268.64 2095.43,1220.56 2097.41,1138.4 2099.39,1261.95 2101.37,1272.79 2103.35,1245.22 2105.33,1257.62 2107.31,1369.34 2109.29,1307.54 2111.27,1139.14 2113.25,1307.92 2115.23,1268.63 2117.21,1337.52 2119.19,1232.41 2121.17,1283.03 2123.15,1288.22 2125.13,1203.7 2127.11,1141.89 2129.09,1229.89 2131.07,1232.59 2133.05,1284.35 2135.03,1168.25 2137.01,1119.54 2138.99,1224.54 2140.97,1235.74 2142.95,1276.78 2144.93,1334.59 2146.91,1199.79 2148.89,1371.32 2150.87,1191.61 2152.85,1294.63 2154.83,1189.7 2156.81,1188.86 2158.79,1355.95 2160.77,1302.24 2162.75,1331.16 2164.73,1261.02 2166.71,1197.76 2168.69,1215.75 2170.67,1333.66 2172.65,1282.61 2174.63,1281.71 2176.61,1345.78 2178.59,1114.65 2180.57,1205.06 2182.55,1324.62 2184.53,1309.92 2186.51,1251.31 2188.49,1187.93 2190.47,1235.48 2192.45,1211.21 2194.43,1103.19 2196.41,1350.34 2198.39,1306.03 2200.37,1341.53 2202.35,1238.09 2204.33,1211.4 2206.31,1283.78 2208.29,1138.34 2210.27,1268.34 2212.25,1241.58 2214.23,1259.24 2216.21,1305.46 2218.19,1342.21 2220.17,1304.26 2222.14,1323.88 2224.12,1362.19 2226.1,1350.53 2228.08,1220.85 2230.06,1225.64 2232.04,1349.27 2234.02,1348.61 2236,1215 2237.98,1271.59 2239.96,1292.82 2241.94,1197.79 2243.92,1269.49 2245.9,1252.78 2247.88,1133.46 2249.86,1221.82 2251.84,1235.13 2253.82,1279.04 2255.8,1320.2 2257.78,1220.68 2259.76,1273.76 2261.74,1200.37 2263.72,1120.71 2265.7,1289.62 2267.68,1189.39 2269.66,1126.06 2271.64,1230.97 2273.62,1173.75 2275.6,1199.74 2277.58,1304.22 2279.56,1367.05 2281.54,1253.02 2283.52,1219.64 2285.5,1276 2287.48,1224.19 2289.46,1256.99 2291.44,1266.6 2293.42,1207.56 "></polyline>
<path clip-path="url(#clip780)" d="M1853.61 270.476 L2282.87 270.476 L2282.87 166.796 L1853.61 166.796  Z" fill="#ffffff" fill-rule="evenodd" fill-opacity="1"></path>
<polyline clip-path="url(#clip780)" style="stroke:#000000; stroke-linecap:round; stroke-linejoin:round; stroke-width:4; stroke-opacity:1; fill:none" points="1853.61,270.476 2282.87,270.476 2282.87,166.796 1853.61,166.796 1853.61,270.476 "></polyline>
<polyline clip-path="url(#clip780)" style="stroke:#009af9; stroke-linecap:round; stroke-linejoin:round; stroke-width:4; stroke-opacity:1; fill:none" points="1876.91,218.636 2016.68,218.636 "></polyline>
<path clip-path="url(#clip780)" d="M2062.22 202.49 L2062.22 207.05 Q2059.55 205.777 2057.19 205.152 Q2054.83 204.527 2052.63 204.527 Q2048.81 204.527 2046.73 206.008 Q2044.67 207.49 2044.67 210.221 Q2044.67 212.513 2046.04 213.694 Q2047.42 214.851 2051.27 215.569 L2054.09 216.147 Q2059.32 217.143 2061.8 219.666 Q2064.3 222.166 2064.3 226.379 Q2064.3 231.402 2060.92 233.994 Q2057.56 236.587 2051.06 236.587 Q2048.6 236.587 2045.83 236.031 Q2043.07 235.476 2040.11 234.388 L2040.11 229.573 Q2042.96 231.17 2045.69 231.981 Q2048.42 232.791 2051.06 232.791 Q2055.06 232.791 2057.24 231.217 Q2059.42 229.643 2059.42 226.726 Q2059.42 224.18 2057.84 222.744 Q2056.29 221.309 2052.73 220.592 L2049.88 220.036 Q2044.65 218.995 2042.31 216.772 Q2039.97 214.55 2039.97 210.592 Q2039.97 206.008 2043.19 203.37 Q2046.43 200.731 2052.1 200.731 Q2054.53 200.731 2057.05 201.171 Q2059.58 201.61 2062.22 202.49 Z" fill="#000000" fill-rule="nonzero" fill-opacity="1"></path><path clip-path="url(#clip780)" d="M2071.41 209.99 L2075.66 209.99 L2075.66 235.916 L2071.41 235.916 L2071.41 209.99 M2071.41 199.897 L2075.66 199.897 L2075.66 205.291 L2071.41 205.291 L2071.41 199.897 Z" fill="#000000" fill-rule="nonzero" fill-opacity="1"></path><path clip-path="url(#clip780)" d="M2104.76 214.967 Q2106.36 212.096 2108.58 210.731 Q2110.8 209.365 2113.81 209.365 Q2117.86 209.365 2120.06 212.212 Q2122.26 215.036 2122.26 220.268 L2122.26 235.916 L2117.98 235.916 L2117.98 220.407 Q2117.98 216.68 2116.66 214.874 Q2115.34 213.069 2112.63 213.069 Q2109.32 213.069 2107.4 215.268 Q2105.48 217.467 2105.48 221.263 L2105.48 235.916 L2101.2 235.916 L2101.2 220.407 Q2101.2 216.657 2099.88 214.874 Q2098.56 213.069 2095.8 213.069 Q2092.54 213.069 2090.62 215.291 Q2088.7 217.49 2088.7 221.263 L2088.7 235.916 L2084.41 235.916 L2084.41 209.99 L2088.7 209.99 L2088.7 214.018 Q2090.16 211.633 2092.19 210.499 Q2094.23 209.365 2097.03 209.365 Q2099.85 209.365 2101.82 210.8 Q2103.81 212.235 2104.76 214.967 Z" fill="#000000" fill-rule="nonzero" fill-opacity="1"></path><path clip-path="url(#clip780)" d="M2130.76 209.99 L2135.02 209.99 L2135.02 235.916 L2130.76 235.916 L2130.76 209.99 M2130.76 199.897 L2135.02 199.897 L2135.02 205.291 L2130.76 205.291 L2130.76 199.897 Z" fill="#000000" fill-rule="nonzero" fill-opacity="1"></path><path clip-path="url(#clip780)" d="M2143.93 199.897 L2148.19 199.897 L2148.19 235.916 L2143.93 235.916 L2143.93 199.897 Z" fill="#000000" fill-rule="nonzero" fill-opacity="1"></path><path clip-path="url(#clip780)" d="M2168.88 222.883 Q2163.72 222.883 2161.73 224.064 Q2159.74 225.244 2159.74 228.092 Q2159.74 230.36 2161.22 231.703 Q2162.72 233.022 2165.29 233.022 Q2168.84 233.022 2170.97 230.522 Q2173.12 227.999 2173.12 223.832 L2173.12 222.883 L2168.88 222.883 M2177.38 221.124 L2177.38 235.916 L2173.12 235.916 L2173.12 231.981 Q2171.66 234.342 2169.48 235.476 Q2167.31 236.587 2164.16 236.587 Q2160.18 236.587 2157.82 234.365 Q2155.48 232.119 2155.48 228.369 Q2155.48 223.994 2158.4 221.772 Q2161.34 219.55 2167.15 219.55 L2173.12 219.55 L2173.12 219.133 Q2173.12 216.194 2171.17 214.596 Q2169.25 212.976 2165.76 212.976 Q2163.53 212.976 2161.43 213.508 Q2159.32 214.041 2157.38 215.106 L2157.38 211.17 Q2159.72 210.268 2161.91 209.828 Q2164.11 209.365 2166.2 209.365 Q2171.82 209.365 2174.6 212.282 Q2177.38 215.198 2177.38 221.124 Z" fill="#000000" fill-rule="nonzero" fill-opacity="1"></path><path clip-path="url(#clip780)" d="M2201.17 213.971 Q2200.46 213.555 2199.6 213.37 Q2198.77 213.161 2197.75 213.161 Q2194.14 213.161 2192.19 215.522 Q2190.27 217.86 2190.27 222.258 L2190.27 235.916 L2185.99 235.916 L2185.99 209.99 L2190.27 209.99 L2190.27 214.018 Q2191.61 211.657 2193.77 210.522 Q2195.92 209.365 2199 209.365 Q2199.44 209.365 2199.97 209.434 Q2200.5 209.481 2201.15 209.596 L2201.17 213.971 Z" fill="#000000" fill-rule="nonzero" fill-opacity="1"></path><path clip-path="url(#clip780)" d="M2205.64 209.99 L2209.9 209.99 L2209.9 235.916 L2205.64 235.916 L2205.64 209.99 M2205.64 199.897 L2209.9 199.897 L2209.9 205.291 L2205.64 205.291 L2205.64 199.897 Z" fill="#000000" fill-rule="nonzero" fill-opacity="1"></path><path clip-path="url(#clip780)" d="M2223.03 202.629 L2223.03 209.99 L2231.8 209.99 L2231.8 213.3 L2223.03 213.3 L2223.03 227.374 Q2223.03 230.545 2223.88 231.448 Q2224.76 232.351 2227.42 232.351 L2231.8 232.351 L2231.8 235.916 L2227.42 235.916 Q2222.49 235.916 2220.62 234.087 Q2218.74 232.235 2218.74 227.374 L2218.74 213.3 L2215.62 213.3 L2215.62 209.99 L2218.74 209.99 L2218.74 202.629 L2223.03 202.629 Z" fill="#000000" fill-rule="nonzero" fill-opacity="1"></path><path clip-path="url(#clip780)" d="M2248.19 238.323 Q2246.38 242.953 2244.67 244.365 Q2242.96 245.777 2240.09 245.777 L2236.68 245.777 L2236.68 242.212 L2239.18 242.212 Q2240.94 242.212 2241.91 241.379 Q2242.89 240.545 2244.07 237.443 L2244.83 235.499 L2234.34 209.99 L2238.86 209.99 L2246.96 230.268 L2255.06 209.99 L2259.58 209.99 L2248.19 238.323 Z" fill="#000000" fill-rule="nonzero" fill-opacity="1"></path></svg>