<svg xmlns="http://www.w3.org/2000/svg" xmlns:xlink="http://www.w3.org/1999/xlink" width="600" height="400" viewBox="0 0 2400 1600">
<defs>
  <clipPath id="clip860">
    <rect x="0" y="0" width="2400" height="1600"></rect>
  </clipPath>
</defs>
<path clip-path="url(#clip860)" d="M0 1600 L2400 1600 L2400 8.88178e-14 L0 8.88178e-14  Z" fill="#ffffff" fill-rule="evenodd" fill-opacity="1"></path>
<defs>
  <clipPath id="clip861">
    <rect x="480" y="0" width="1681" height="1600"></rect>
  </clipPath>
</defs>
<path clip-path="url(#clip860)" d="M256.209 1423.18 L2352.76 1423.18 L2352.76 123.472 L256.209 123.472  Z" fill="#ffffff" fill-rule="evenodd" fill-opacity="1"></path>
<defs>
  <clipPath id="clip862">
    <rect x="256" y="123" width="2098" height="1301"></rect>
  </clipPath>
</defs>
<polyline clip-path="url(#clip862)" style="stroke:#000000; stroke-linecap:round; stroke-linejoin:round; stroke-width:2; stroke-opacity:0.1; fill:none" points="313.565,1423.18 313.565,123.472 "></polyline>
<polyline clip-path="url(#clip862)" style="stroke:#000000; stroke-linecap:round; stroke-linejoin:round; stroke-width:2; stroke-opacity:0.1; fill:none" points="808.529,1423.18 808.529,123.472 "></polyline>
<polyline clip-path="url(#clip862)" style="stroke:#000000; stroke-linecap:round; stroke-linejoin:round; stroke-width:2; stroke-opacity:0.1; fill:none" points="1303.49,1423.18 1303.49,123.472 "></polyline>
<polyline clip-path="url(#clip862)" style="stroke:#000000; stroke-linecap:round; stroke-linejoin:round; stroke-width:2; stroke-opacity:0.1; fill:none" points="1798.46,1423.18 1798.46,123.472 "></polyline>
<polyline clip-path="url(#clip862)" style="stroke:#000000; stroke-linecap:round; stroke-linejoin:round; stroke-width:2; stroke-opacity:0.1; fill:none" points="2293.42,1423.18 2293.42,123.472 "></polyline>
<polyline clip-path="url(#clip860)" style="stroke:#000000; stroke-linecap:round; stroke-linejoin:round; stroke-width:4; stroke-opacity:1; fill:none" points="256.209,1423.18 2352.76,1423.18 "></polyline>
<polyline clip-path="url(#clip860)" style="stroke:#000000; stroke-linecap:round; stroke-linejoin:round; stroke-width:4; stroke-opacity:1; fill:none" points="313.565,1423.18 313.565,1404.28 "></polyline>
<polyline clip-path="url(#clip860)" style="stroke:#000000; stroke-linecap:round; stroke-linejoin:round; stroke-width:4; stroke-opacity:1; fill:none" points="808.529,1423.18 808.529,1404.28 "></polyline>
<polyline clip-path="url(#clip860)" style="stroke:#000000; stroke-linecap:round; stroke-linejoin:round; stroke-width:4; stroke-opacity:1; fill:none" points="1303.49,1423.18 1303.49,1404.28 "></polyline>
<polyline clip-path="url(#clip860)" style="stroke:#000000; stroke-linecap:round; stroke-linejoin:round; stroke-width:4; stroke-opacity:1; fill:none" points="1798.46,1423.18 1798.46,1404.28 "></polyline>
<polyline clip-path="url(#clip860)" style="stroke:#000000; stroke-linecap:round; stroke-linejoin:round; stroke-width:4; stroke-opacity:1; fill:none" points="2293.42,1423.18 2293.42,1404.28 "></polyline>
<path clip-path="url(#clip860)" d="M313.565 1454.1 Q309.954 1454.1 308.125 1457.66 Q306.32 1461.2 306.32 1468.33 Q306.32 1475.44 308.125 1479.01 Q309.954 1482.55 313.565 1482.55 Q317.199 1482.55 319.005 1479.01 Q320.834 1475.44 320.834 1468.33 Q320.834 1461.2 319.005 1457.66 Q317.199 1454.1 313.565 1454.1 M313.565 1450.39 Q319.375 1450.39 322.431 1455 Q325.509 1459.58 325.509 1468.33 Q325.509 1477.06 322.431 1481.67 Q319.375 1486.25 313.565 1486.25 Q307.755 1486.25 304.676 1481.67 Q301.621 1477.06 301.621 1468.33 Q301.621 1459.58 304.676 1455 Q307.755 1450.39 313.565 1450.39 Z" fill="#000000" fill-rule="nonzero" fill-opacity="1"></path><path clip-path="url(#clip860)" d="M772.221 1481.64 L788.54 1481.64 L788.54 1485.58 L766.596 1485.58 L766.596 1481.64 Q769.258 1478.89 773.841 1474.26 Q778.448 1469.61 779.628 1468.27 Q781.874 1465.74 782.753 1464.01 Q783.656 1462.25 783.656 1460.56 Q783.656 1457.8 781.712 1456.07 Q779.79 1454.33 776.689 1454.33 Q774.49 1454.33 772.036 1455.09 Q769.605 1455.86 766.828 1457.41 L766.828 1452.69 Q769.652 1451.55 772.105 1450.97 Q774.559 1450.39 776.596 1450.39 Q781.966 1450.39 785.161 1453.08 Q788.355 1455.77 788.355 1460.26 Q788.355 1462.39 787.545 1464.31 Q786.758 1466.2 784.652 1468.8 Q784.073 1469.47 780.971 1472.69 Q777.869 1475.88 772.221 1481.64 Z" fill="#000000" fill-rule="nonzero" fill-opacity="1"></path><path clip-path="url(#clip860)" d="M798.401 1451.02 L816.758 1451.02 L816.758 1454.96 L802.684 1454.96 L802.684 1463.43 Q803.702 1463.08 804.721 1462.92 Q805.739 1462.73 806.758 1462.73 Q812.545 1462.73 815.924 1465.9 Q819.304 1469.08 819.304 1474.49 Q819.304 1480.07 815.832 1483.17 Q812.36 1486.25 806.04 1486.25 Q803.864 1486.25 801.596 1485.88 Q799.351 1485.51 796.943 1484.77 L796.943 1480.07 Q799.026 1481.2 801.249 1481.76 Q803.471 1482.32 805.948 1482.32 Q809.952 1482.32 812.29 1480.21 Q814.628 1478.1 814.628 1474.49 Q814.628 1470.88 812.29 1468.77 Q809.952 1466.67 805.948 1466.67 Q804.073 1466.67 802.198 1467.08 Q800.346 1467.5 798.401 1468.38 L798.401 1451.02 Z" fill="#000000" fill-rule="nonzero" fill-opacity="1"></path><path clip-path="url(#clip860)" d="M838.517 1454.1 Q834.906 1454.1 833.077 1457.66 Q831.272 1461.2 831.272 1468.33 Q831.272 1475.44 833.077 1479.01 Q834.906 1482.55 838.517 1482.55 Q842.151 1482.55 843.957 1479.01 Q845.785 1475.44 845.785 1468.33 Q845.785 1461.2 843.957 1457.66 Q842.151 1454.1 838.517 1454.1 M838.517 1450.39 Q844.327 1450.39 847.383 1455 Q850.461 1459.58 850.461 1468.33 Q850.461 1477.06 847.383 1481.67 Q844.327 1486.25 838.517 1486.25 Q832.707 1486.25 829.628 1481.67 Q826.573 1477.06 826.573 1468.33 Q826.573 1459.58 829.628 1455 Q832.707 1450.39 838.517 1450.39 Z" fill="#000000" fill-rule="nonzero" fill-opacity="1"></path><path clip-path="url(#clip860)" d="M1263.11 1451.02 L1281.47 1451.02 L1281.47 1454.96 L1267.39 1454.96 L1267.39 1463.43 Q1268.41 1463.08 1269.43 1462.92 Q1270.45 1462.73 1271.47 1462.73 Q1277.25 1462.73 1280.63 1465.9 Q1284.01 1469.08 1284.01 1474.49 Q1284.01 1480.07 1280.54 1483.17 Q1277.07 1486.25 1270.75 1486.25 Q1268.57 1486.25 1266.31 1485.88 Q1264.06 1485.51 1261.65 1484.77 L1261.65 1480.07 Q1263.74 1481.2 1265.96 1481.76 Q1268.18 1482.32 1270.66 1482.32 Q1274.66 1482.32 1277 1480.21 Q1279.34 1478.1 1279.34 1474.49 Q1279.34 1470.88 1277 1468.77 Q1274.66 1466.67 1270.66 1466.67 Q1268.78 1466.67 1266.91 1467.08 Q1265.06 1467.5 1263.11 1468.38 L1263.11 1451.02 Z" fill="#000000" fill-rule="nonzero" fill-opacity="1"></path><path clip-path="url(#clip860)" d="M1303.23 1454.1 Q1299.62 1454.1 1297.79 1457.66 Q1295.98 1461.2 1295.98 1468.33 Q1295.98 1475.44 1297.79 1479.01 Q1299.62 1482.55 1303.23 1482.55 Q1306.86 1482.55 1308.67 1479.01 Q1310.49 1475.44 1310.49 1468.33 Q1310.49 1461.2 1308.67 1457.66 Q1306.86 1454.1 1303.23 1454.1 M1303.23 1450.39 Q1309.04 1450.39 1312.09 1455 Q1315.17 1459.58 1315.17 1468.33 Q1315.17 1477.06 1312.09 1481.67 Q1309.04 1486.25 1303.23 1486.25 Q1297.42 1486.25 1294.34 1481.67 Q1291.28 1477.06 1291.28 1468.33 Q1291.28 1459.58 1294.34 1455 Q1297.42 1450.39 1303.23 1450.39 Z" fill="#000000" fill-rule="nonzero" fill-opacity="1"></path><path clip-path="url(#clip860)" d="M1333.39 1454.1 Q1329.78 1454.1 1327.95 1457.66 Q1326.14 1461.2 1326.14 1468.33 Q1326.14 1475.44 1327.95 1479.01 Q1329.78 1482.55 1333.39 1482.55 Q1337.02 1482.55 1338.83 1479.01 Q1340.66 1475.44 1340.66 1468.33 Q1340.66 1461.2 1338.83 1457.66 Q1337.02 1454.1 1333.39 1454.1 M1333.39 1450.39 Q1339.2 1450.39 1342.25 1455 Q1345.33 1459.58 1345.33 1468.33 Q1345.33 1477.06 1342.25 1481.67 Q1339.2 1486.25 1333.39 1486.25 Q1327.58 1486.25 1324.5 1481.67 Q1321.44 1477.06 1321.44 1468.33 Q1321.44 1459.58 1324.5 1455 Q1327.58 1450.39 1333.39 1450.39 Z" fill="#000000" fill-rule="nonzero" fill-opacity="1"></path><path clip-path="url(#clip860)" d="M1756.73 1451.02 L1778.95 1451.02 L1778.95 1453.01 L1766.41 1485.58 L1761.52 1485.58 L1773.33 1454.96 L1756.73 1454.96 L1756.73 1451.02 Z" fill="#000000" fill-rule="nonzero" fill-opacity="1"></path><path clip-path="url(#clip860)" d="M1788.12 1451.02 L1806.48 1451.02 L1806.48 1454.96 L1792.4 1454.96 L1792.4 1463.43 Q1793.42 1463.08 1794.44 1462.92 Q1795.46 1462.73 1796.48 1462.73 Q1802.26 1462.73 1805.64 1465.9 Q1809.02 1469.08 1809.02 1474.49 Q1809.02 1480.07 1805.55 1483.17 Q1802.08 1486.25 1795.76 1486.25 Q1793.58 1486.25 1791.31 1485.88 Q1789.07 1485.51 1786.66 1484.77 L1786.66 1480.07 Q1788.75 1481.2 1790.97 1481.76 Q1793.19 1482.32 1795.67 1482.32 Q1799.67 1482.32 1802.01 1480.21 Q1804.35 1478.1 1804.35 1474.49 Q1804.35 1470.88 1802.01 1468.77 Q1799.67 1466.67 1795.67 1466.67 Q1793.79 1466.67 1791.92 1467.08 Q1790.06 1467.5 1788.12 1468.38 L1788.12 1451.02 Z" fill="#000000" fill-rule="nonzero" fill-opacity="1"></path><path clip-path="url(#clip860)" d="M1828.24 1454.1 Q1824.62 1454.1 1822.8 1457.66 Q1820.99 1461.2 1820.99 1468.33 Q1820.99 1475.44 1822.8 1479.01 Q1824.62 1482.55 1828.24 1482.55 Q1831.87 1482.55 1833.68 1479.01 Q1835.5 1475.44 1835.5 1468.33 Q1835.5 1461.2 1833.68 1457.66 Q1831.87 1454.1 1828.24 1454.1 M1828.24 1450.39 Q1834.05 1450.39 1837.1 1455 Q1840.18 1459.58 1840.18 1468.33 Q1840.18 1477.06 1837.1 1481.67 Q1834.05 1486.25 1828.24 1486.25 Q1822.43 1486.25 1819.35 1481.67 Q1816.29 1477.06 1816.29 1468.33 Q1816.29 1459.58 1819.35 1455 Q1822.43 1450.39 1828.24 1450.39 Z" fill="#000000" fill-rule="nonzero" fill-opacity="1"></path><path clip-path="url(#clip860)" d="M2237.95 1481.64 L2245.58 1481.64 L2245.58 1455.28 L2237.27 1456.95 L2237.27 1452.69 L2245.54 1451.02 L2250.21 1451.02 L2250.21 1481.64 L2257.85 1481.64 L2257.85 1485.58 L2237.95 1485.58 L2237.95 1481.64 Z" fill="#000000" fill-rule="nonzero" fill-opacity="1"></path><path clip-path="url(#clip860)" d="M2277.3 1454.1 Q2273.69 1454.1 2271.86 1457.66 Q2270.05 1461.2 2270.05 1468.33 Q2270.05 1475.44 2271.86 1479.01 Q2273.69 1482.55 2277.3 1482.55 Q2280.93 1482.55 2282.74 1479.01 Q2284.57 1475.44 2284.57 1468.33 Q2284.57 1461.2 2282.74 1457.66 Q2280.93 1454.1 2277.3 1454.1 M2277.3 1450.39 Q2283.11 1450.39 2286.16 1455 Q2289.24 1459.58 2289.24 1468.33 Q2289.24 1477.06 2286.16 1481.67 Q2283.11 1486.25 2277.3 1486.25 Q2271.49 1486.25 2268.41 1481.67 Q2265.35 1477.06 2265.35 1468.33 Q2265.35 1459.58 2268.41 1455 Q2271.49 1450.39 2277.3 1450.39 Z" fill="#000000" fill-rule="nonzero" fill-opacity="1"></path><path clip-path="url(#clip860)" d="M2307.46 1454.1 Q2303.85 1454.1 2302.02 1457.66 Q2300.21 1461.2 2300.21 1468.33 Q2300.21 1475.44 2302.02 1479.01 Q2303.85 1482.55 2307.46 1482.55 Q2311.09 1482.55 2312.9 1479.01 Q2314.73 1475.44 2314.73 1468.33 Q2314.73 1461.2 2312.9 1457.66 Q2311.09 1454.1 2307.46 1454.1 M2307.46 1450.39 Q2313.27 1450.39 2316.32 1455 Q2319.4 1459.58 2319.4 1468.33 Q2319.4 1477.06 2316.32 1481.67 Q2313.27 1486.25 2307.46 1486.25 Q2301.65 1486.25 2298.57 1481.67 Q2295.51 1477.06 2295.51 1468.33 Q2295.51 1459.58 2298.57 1455 Q2301.65 1450.39 2307.46 1450.39 Z" fill="#000000" fill-rule="nonzero" fill-opacity="1"></path><path clip-path="url(#clip860)" d="M2337.62 1454.1 Q2334.01 1454.1 2332.18 1457.66 Q2330.38 1461.2 2330.38 1468.33 Q2330.38 1475.44 2332.18 1479.01 Q2334.01 1482.55 2337.62 1482.55 Q2341.26 1482.55 2343.06 1479.01 Q2344.89 1475.44 2344.89 1468.33 Q2344.89 1461.2 2343.06 1457.66 Q2341.26 1454.1 2337.62 1454.1 M2337.62 1450.39 Q2343.43 1450.39 2346.49 1455 Q2349.57 1459.58 2349.57 1468.33 Q2349.57 1477.06 2346.49 1481.67 Q2343.43 1486.25 2337.62 1486.25 Q2331.81 1486.25 2328.73 1481.67 Q2325.68 1477.06 2325.68 1468.33 Q2325.68 1459.58 2328.73 1455 Q2331.81 1450.39 2337.62 1450.39 Z" fill="#000000" fill-rule="nonzero" fill-opacity="1"></path><path clip-path="url(#clip860)" d="M1219.02 1520.52 L1225.45 1520.52 L1225.45 1568.04 L1219.02 1568.04 L1219.02 1520.52 Z" fill="#000000" fill-rule="nonzero" fill-opacity="1"></path><path clip-path="url(#clip860)" d="M1267.62 1546.53 L1267.62 1568.04 L1261.77 1568.04 L1261.77 1546.72 Q1261.77 1541.66 1259.8 1539.14 Q1257.82 1536.63 1253.87 1536.63 Q1249.13 1536.63 1246.4 1539.65 Q1243.66 1542.68 1243.66 1547.9 L1243.66 1568.04 L1237.77 1568.04 L1237.77 1532.4 L1243.66 1532.4 L1243.66 1537.93 Q1245.76 1534.72 1248.59 1533.13 Q1251.46 1531.54 1255.18 1531.54 Q1261.32 1531.54 1264.47 1535.36 Q1267.62 1539.14 1267.62 1546.53 Z" fill="#000000" fill-rule="nonzero" fill-opacity="1"></path><path clip-path="url(#clip860)" d="M1302.76 1537.81 L1302.76 1518.52 L1308.62 1518.52 L1308.62 1568.04 L1302.76 1568.04 L1302.76 1562.7 Q1300.92 1565.88 1298.08 1567.44 Q1295.28 1568.97 1291.34 1568.97 Q1284.88 1568.97 1280.8 1563.81 Q1276.76 1558.65 1276.76 1550.25 Q1276.76 1541.85 1280.8 1536.69 Q1284.88 1531.54 1291.34 1531.54 Q1295.28 1531.54 1298.08 1533.1 Q1300.92 1534.62 1302.76 1537.81 M1282.81 1550.25 Q1282.81 1556.71 1285.45 1560.4 Q1288.12 1564.07 1292.77 1564.07 Q1297.42 1564.07 1300.09 1560.4 Q1302.76 1556.71 1302.76 1550.25 Q1302.76 1543.79 1300.09 1540.13 Q1297.42 1536.44 1292.77 1536.44 Q1288.12 1536.44 1285.45 1540.13 Q1282.81 1543.79 1282.81 1550.25 Z" fill="#000000" fill-rule="nonzero" fill-opacity="1"></path><path clip-path="url(#clip860)" d="M1351.17 1548.76 L1351.17 1551.62 L1324.25 1551.62 Q1324.63 1557.67 1327.88 1560.85 Q1331.15 1564 1336.98 1564 Q1340.35 1564 1343.5 1563.17 Q1346.69 1562.35 1349.81 1560.69 L1349.81 1566.23 Q1346.66 1567.57 1343.34 1568.27 Q1340.03 1568.97 1336.63 1568.97 Q1328.1 1568.97 1323.1 1564 Q1318.14 1559.04 1318.14 1550.57 Q1318.14 1541.82 1322.85 1536.69 Q1327.59 1531.54 1335.61 1531.54 Q1342.8 1531.54 1346.97 1536.18 Q1351.17 1540.8 1351.17 1548.76 M1345.32 1547.04 Q1345.25 1542.23 1342.61 1539.37 Q1340 1536.5 1335.67 1536.5 Q1330.77 1536.5 1327.81 1539.27 Q1324.88 1542.04 1324.44 1547.07 L1345.32 1547.04 Z" fill="#000000" fill-rule="nonzero" fill-opacity="1"></path><path clip-path="url(#clip860)" d="M1389.27 1532.4 L1376.38 1549.74 L1389.94 1568.04 L1383.04 1568.04 L1372.66 1554.04 L1362.28 1568.04 L1355.38 1568.04 L1369.22 1549.39 L1356.55 1532.4 L1363.46 1532.4 L1372.91 1545.1 L1382.37 1532.4 L1389.27 1532.4 Z" fill="#000000" fill-rule="nonzero" fill-opacity="1"></path><polyline clip-path="url(#clip862)" style="stroke:#000000; stroke-linecap:round; stroke-linejoin:round; stroke-width:2; stroke-opacity:0.1; fill:none" points="256.209,1246.28 2352.76,1246.28 "></polyline>
<polyline clip-path="url(#clip862)" style="stroke:#000000; stroke-linecap:round; stroke-linejoin:round; stroke-width:2; stroke-opacity:0.1; fill:none" points="256.209,873.162 2352.76,873.162 "></polyline>
<polyline clip-path="url(#clip862)" style="stroke:#000000; stroke-linecap:round; stroke-linejoin:round; stroke-width:2; stroke-opacity:0.1; fill:none" points="256.209,500.038 2352.76,500.038 "></polyline>
<polyline clip-path="url(#clip862)" style="stroke:#000000; stroke-linecap:round; stroke-linejoin:round; stroke-width:2; stroke-opacity:0.1; fill:none" points="256.209,126.915 2352.76,126.915 "></polyline>
<polyline clip-path="url(#clip860)" style="stroke:#000000; stroke-linecap:round; stroke-linejoin:round; stroke-width:4; stroke-opacity:1; fill:none" points="256.209,1423.18 256.209,123.472 "></polyline>
<polyline clip-path="url(#clip860)" style="stroke:#000000; stroke-linecap:round; stroke-linejoin:round; stroke-width:4; stroke-opacity:1; fill:none" points="256.209,1246.28 275.106,1246.28 "></polyline>
<polyline clip-path="url(#clip860)" style="stroke:#000000; stroke-linecap:round; stroke-linejoin:round; stroke-width:4; stroke-opacity:1; fill:none" points="256.209,873.162 275.106,873.162 "></polyline>
<polyline clip-path="url(#clip860)" style="stroke:#000000; stroke-linecap:round; stroke-linejoin:round; stroke-width:4; stroke-opacity:1; fill:none" points="256.209,500.038 275.106,500.038 "></polyline>
<polyline clip-path="url(#clip860)" style="stroke:#000000; stroke-linecap:round; stroke-linejoin:round; stroke-width:4; stroke-opacity:1; fill:none" points="256.209,126.915 275.106,126.915 "></polyline>
<path clip-path="url(#clip860)" d="M114.26 1246.74 L143.936 1246.74 L143.936 1250.67 L114.26 1250.67 L114.26 1246.74 Z" fill="#000000" fill-rule="nonzero" fill-opacity="1"></path><path clip-path="url(#clip860)" d="M164.028 1232.08 Q160.417 1232.08 158.589 1235.65 Q156.783 1239.19 156.783 1246.32 Q156.783 1253.43 158.589 1256.99 Q160.417 1260.53 164.028 1260.53 Q167.663 1260.53 169.468 1256.99 Q171.297 1253.43 171.297 1246.32 Q171.297 1239.19 169.468 1235.65 Q167.663 1232.08 164.028 1232.08 M164.028 1228.38 Q169.839 1228.38 172.894 1232.99 Q175.973 1237.57 175.973 1246.32 Q175.973 1255.05 172.894 1259.65 Q169.839 1264.24 164.028 1264.24 Q158.218 1264.24 155.14 1259.65 Q152.084 1255.05 152.084 1246.32 Q152.084 1237.57 155.14 1232.99 Q158.218 1228.38 164.028 1228.38 Z" fill="#000000" fill-rule="nonzero" fill-opacity="1"></path><path clip-path="url(#clip860)" d="M184.19 1257.69 L189.075 1257.69 L189.075 1263.56 L184.19 1263.56 L184.19 1257.69 Z" fill="#000000" fill-rule="nonzero" fill-opacity="1"></path><path clip-path="url(#clip860)" d="M199.306 1229 L217.662 1229 L217.662 1232.94 L203.588 1232.94 L203.588 1241.41 Q204.607 1241.06 205.625 1240.9 Q206.644 1240.72 207.662 1240.72 Q213.449 1240.72 216.829 1243.89 Q220.209 1247.06 220.209 1252.48 Q220.209 1258.06 216.736 1261.16 Q213.264 1264.24 206.945 1264.24 Q204.769 1264.24 202.5 1263.87 Q200.255 1263.5 197.848 1262.75 L197.848 1258.06 Q199.931 1259.19 202.153 1259.75 Q204.375 1260.3 206.852 1260.3 Q210.857 1260.3 213.195 1258.19 Q215.533 1256.09 215.533 1252.48 Q215.533 1248.87 213.195 1246.76 Q210.857 1244.65 206.852 1244.65 Q204.977 1244.65 203.102 1245.07 Q201.25 1245.49 199.306 1246.37 L199.306 1229 Z" fill="#000000" fill-rule="nonzero" fill-opacity="1"></path><path clip-path="url(#clip860)" d="M163.033 858.96 Q159.422 858.96 157.593 862.525 Q155.788 866.067 155.788 873.196 Q155.788 880.303 157.593 883.868 Q159.422 887.409 163.033 887.409 Q166.667 887.409 168.473 883.868 Q170.302 880.303 170.302 873.196 Q170.302 866.067 168.473 862.525 Q166.667 858.96 163.033 858.96 M163.033 855.257 Q168.843 855.257 171.899 859.863 Q174.977 864.446 174.977 873.196 Q174.977 881.923 171.899 886.53 Q168.843 891.113 163.033 891.113 Q157.223 891.113 154.144 886.53 Q151.089 881.923 151.089 873.196 Q151.089 864.446 154.144 859.863 Q157.223 855.257 163.033 855.257 Z" fill="#000000" fill-rule="nonzero" fill-opacity="1"></path><path clip-path="url(#clip860)" d="M183.195 884.562 L188.079 884.562 L188.079 890.442 L183.195 890.442 L183.195 884.562 Z" fill="#000000" fill-rule="nonzero" fill-opacity="1"></path><path clip-path="url(#clip860)" d="M208.264 858.96 Q204.653 858.96 202.824 862.525 Q201.019 866.067 201.019 873.196 Q201.019 880.303 202.824 883.868 Q204.653 887.409 208.264 887.409 Q211.899 887.409 213.704 883.868 Q215.533 880.303 215.533 873.196 Q215.533 866.067 213.704 862.525 Q211.899 858.96 208.264 858.96 M208.264 855.257 Q214.074 855.257 217.13 859.863 Q220.209 864.446 220.209 873.196 Q220.209 881.923 217.13 886.53 Q214.074 891.113 208.264 891.113 Q202.454 891.113 199.375 886.53 Q196.32 881.923 196.32 873.196 Q196.32 864.446 199.375 859.863 Q202.454 855.257 208.264 855.257 Z" fill="#000000" fill-rule="nonzero" fill-opacity="1"></path><path clip-path="url(#clip860)" d="M164.028 485.837 Q160.417 485.837 158.589 489.402 Q156.783 492.943 156.783 500.073 Q156.783 507.179 158.589 510.744 Q160.417 514.286 164.028 514.286 Q167.663 514.286 169.468 510.744 Q171.297 507.179 171.297 500.073 Q171.297 492.943 169.468 489.402 Q167.663 485.837 164.028 485.837 M164.028 482.133 Q169.839 482.133 172.894 486.74 Q175.973 491.323 175.973 500.073 Q175.973 508.8 172.894 513.406 Q169.839 517.99 164.028 517.99 Q158.218 517.99 155.14 513.406 Q152.084 508.8 152.084 500.073 Q152.084 491.323 155.14 486.74 Q158.218 482.133 164.028 482.133 Z" fill="#000000" fill-rule="nonzero" fill-opacity="1"></path><path clip-path="url(#clip860)" d="M184.19 511.439 L189.075 511.439 L189.075 517.318 L184.19 517.318 L184.19 511.439 Z" fill="#000000" fill-rule="nonzero" fill-opacity="1"></path><path clip-path="url(#clip860)" d="M199.306 482.758 L217.662 482.758 L217.662 486.693 L203.588 486.693 L203.588 495.166 Q204.607 494.818 205.625 494.656 Q206.644 494.471 207.662 494.471 Q213.449 494.471 216.829 497.642 Q220.209 500.814 220.209 506.23 Q220.209 511.809 216.736 514.911 Q213.264 517.99 206.945 517.99 Q204.769 517.99 202.5 517.619 Q200.255 517.249 197.848 516.508 L197.848 511.809 Q199.931 512.943 202.153 513.499 Q204.375 514.054 206.852 514.054 Q210.857 514.054 213.195 511.948 Q215.533 509.841 215.533 506.23 Q215.533 502.619 213.195 500.513 Q210.857 498.406 206.852 498.406 Q204.977 498.406 203.102 498.823 Q201.25 499.24 199.306 500.119 L199.306 482.758 Z" fill="#000000" fill-rule="nonzero" fill-opacity="1"></path><path clip-path="url(#clip860)" d="M153.843 140.26 L161.482 140.26 L161.482 113.894 L153.172 115.561 L153.172 111.302 L161.436 109.635 L166.112 109.635 L166.112 140.26 L173.751 140.26 L173.751 144.195 L153.843 144.195 L153.843 140.26 Z" fill="#000000" fill-rule="nonzero" fill-opacity="1"></path><path clip-path="url(#clip860)" d="M183.195 138.315 L188.079 138.315 L188.079 144.195 L183.195 144.195 L183.195 138.315 Z" fill="#000000" fill-rule="nonzero" fill-opacity="1"></path><path clip-path="url(#clip860)" d="M208.264 112.714 Q204.653 112.714 202.824 116.278 Q201.019 119.82 201.019 126.95 Q201.019 134.056 202.824 137.621 Q204.653 141.163 208.264 141.163 Q211.899 141.163 213.704 137.621 Q215.533 134.056 215.533 126.95 Q215.533 119.82 213.704 116.278 Q211.899 112.714 208.264 112.714 M208.264 109.01 Q214.074 109.01 217.13 113.616 Q220.209 118.2 220.209 126.95 Q220.209 135.677 217.13 140.283 Q214.074 144.866 208.264 144.866 Q202.454 144.866 199.375 140.283 Q196.32 135.677 196.32 126.95 Q196.32 118.2 199.375 113.616 Q202.454 109.01 208.264 109.01 Z" fill="#000000" fill-rule="nonzero" fill-opacity="1"></path><path clip-path="url(#clip860)" d="M18.0438 893.717 L24.314 893.717 Q22.5634 897.378 21.704 900.624 Q20.8447 903.871 20.8447 906.894 Q20.8447 912.146 22.8817 915.011 Q24.9187 917.843 28.6745 917.843 Q31.8255 917.843 33.4488 915.966 Q35.0402 914.056 36.0269 908.772 L36.8226 904.889 Q38.1912 897.696 41.6605 894.29 Q45.098 890.853 50.8908 890.853 Q57.7976 890.853 61.3624 895.5 Q64.9272 900.115 64.9272 909.059 Q64.9272 912.433 64.1633 916.252 Q63.3994 920.04 61.9035 924.114 L55.2831 924.114 Q57.4793 920.199 58.5933 916.443 Q59.7073 912.687 59.7073 909.059 Q59.7073 903.552 57.543 900.561 Q55.3786 897.569 51.3682 897.569 Q47.8671 897.569 45.8937 899.733 Q43.9204 901.866 42.9337 906.767 L42.1698 910.682 Q40.7375 917.875 37.682 921.09 Q34.6264 924.305 29.1837 924.305 Q22.8817 924.305 19.2532 919.88 Q15.6248 915.424 15.6248 907.626 Q15.6248 904.284 16.2295 900.815 Q16.8343 897.346 18.0438 893.717 Z" fill="#000000" fill-rule="nonzero" fill-opacity="1"></path><path clip-path="url(#clip860)" d="M28.3562 881.081 L28.3562 875.225 L64.0042 875.225 L64.0042 881.081 L28.3562 881.081 M14.479 881.081 L14.479 875.225 L21.895 875.225 L21.895 881.081 L14.479 881.081 Z" fill="#000000" fill-rule="nonzero" fill-opacity="1"></path><path clip-path="url(#clip860)" d="M35.1993 835.217 Q31.2526 833.02 29.3747 829.965 Q27.4968 826.909 27.4968 822.772 Q27.4968 817.202 31.4117 814.178 Q35.2948 811.154 42.4881 811.154 L64.0042 811.154 L64.0042 817.042 L42.679 817.042 Q37.5546 817.042 35.072 818.857 Q32.5894 820.671 32.5894 824.395 Q32.5894 828.946 35.6131 831.588 Q38.6368 834.23 43.8567 834.23 L64.0042 834.23 L64.0042 840.118 L42.679 840.118 Q37.5228 840.118 35.072 841.932 Q32.5894 843.747 32.5894 847.534 Q32.5894 852.022 35.6449 854.664 Q38.6686 857.306 43.8567 857.306 L64.0042 857.306 L64.0042 863.194 L28.3562 863.194 L28.3562 857.306 L33.8944 857.306 Q30.616 855.3 29.0564 852.499 Q27.4968 849.699 27.4968 845.847 Q27.4968 841.964 29.4702 839.259 Q31.4436 836.522 35.1993 835.217 Z" fill="#000000" fill-rule="nonzero" fill-opacity="1"></path><path clip-path="url(#clip860)" d="M28.3562 799.473 L28.3562 793.617 L64.0042 793.617 L64.0042 799.473 L28.3562 799.473 M14.479 799.473 L14.479 793.617 L21.895 793.617 L21.895 799.473 L14.479 799.473 Z" fill="#000000" fill-rule="nonzero" fill-opacity="1"></path><path clip-path="url(#clip860)" d="M14.479 781.363 L14.479 775.506 L64.0042 775.506 L64.0042 781.363 L14.479 781.363 Z" fill="#000000" fill-rule="nonzero" fill-opacity="1"></path><path clip-path="url(#clip860)" d="M46.0847 747.052 Q46.0847 754.149 47.7079 756.887 Q49.3312 759.624 53.2461 759.624 Q56.3653 759.624 58.2114 757.587 Q60.0256 755.518 60.0256 751.985 Q60.0256 747.115 56.5881 744.187 Q53.1188 741.227 47.3897 741.227 L46.0847 741.227 L46.0847 747.052 M43.6657 735.37 L64.0042 735.37 L64.0042 741.227 L58.5933 741.227 Q61.8398 743.232 63.3994 746.224 Q64.9272 749.216 64.9272 753.545 Q64.9272 759.019 61.8716 762.266 Q58.7843 765.48 53.6281 765.48 Q47.6125 765.48 44.5569 761.47 Q41.5014 757.428 41.5014 749.439 L41.5014 741.227 L40.9285 741.227 Q36.8862 741.227 34.6901 743.901 Q32.4621 746.542 32.4621 751.348 Q32.4621 754.404 33.1941 757.3 Q33.9262 760.197 35.3903 762.87 L29.9795 762.87 Q28.7381 759.656 28.1334 756.632 Q27.4968 753.608 27.4968 750.744 Q27.4968 743.009 31.5072 739.19 Q35.5176 735.37 43.6657 735.37 Z" fill="#000000" fill-rule="nonzero" fill-opacity="1"></path><path clip-path="url(#clip860)" d="M33.8307 702.651 Q33.2578 703.637 33.0032 704.815 Q32.7167 705.961 32.7167 707.361 Q32.7167 712.327 35.9632 715 Q39.1779 717.642 45.2253 717.642 L64.0042 717.642 L64.0042 723.53 L28.3562 723.53 L28.3562 717.642 L33.8944 717.642 Q30.6479 715.796 29.0883 712.836 Q27.4968 709.876 27.4968 705.643 Q27.4968 705.038 27.5923 704.306 Q27.656 703.574 27.8151 702.683 L33.8307 702.651 Z" fill="#000000" fill-rule="nonzero" fill-opacity="1"></path><path clip-path="url(#clip860)" d="M28.3562 696.508 L28.3562 690.651 L64.0042 690.651 L64.0042 696.508 L28.3562 696.508 M14.479 696.508 L14.479 690.651 L21.895 690.651 L21.895 696.508 L14.479 696.508 Z" fill="#000000" fill-rule="nonzero" fill-opacity="1"></path><path clip-path="url(#clip860)" d="M18.2347 672.605 L28.3562 672.605 L28.3562 660.542 L32.9077 660.542 L32.9077 672.605 L52.2594 672.605 Q56.6199 672.605 57.8613 671.427 Q59.1026 670.217 59.1026 666.557 L59.1026 660.542 L64.0042 660.542 L64.0042 666.557 Q64.0042 673.337 61.4897 675.915 Q58.9434 678.493 52.2594 678.493 L32.9077 678.493 L32.9077 682.79 L28.3562 682.79 L28.3562 678.493 L18.2347 678.493 L18.2347 672.605 Z" fill="#000000" fill-rule="nonzero" fill-opacity="1"></path><path clip-path="url(#clip860)" d="M67.3143 638.007 Q73.68 640.49 75.6216 642.845 Q77.5631 645.2 77.5631 649.147 L77.5631 653.826 L72.6615 653.826 L72.6615 650.388 Q72.6615 647.969 71.5157 646.633 Q70.3699 645.296 66.1048 643.672 L63.4312 642.622 L28.3562 657.04 L28.3562 650.834 L56.238 639.694 L28.3562 628.554 L28.3562 622.347 L67.3143 638.007 Z" fill="#000000" fill-rule="nonzero" fill-opacity="1"></path><path clip-path="url(#clip860)" d="M784.265 16.7545 L784.265 25.383 Q780.133 21.5346 775.434 19.6307 Q770.776 17.7268 765.509 17.7268 Q755.139 17.7268 749.63 24.0867 Q744.121 30.4061 744.121 42.3968 Q744.121 54.3469 749.63 60.7069 Q755.139 67.0263 765.509 67.0263 Q770.776 67.0263 775.434 65.1223 Q780.133 63.2184 784.265 59.3701 L784.265 67.9175 Q779.971 70.8341 775.151 72.2924 Q770.371 73.7508 765.023 73.7508 Q751.291 73.7508 743.392 65.3654 Q735.492 56.9395 735.492 42.3968 Q735.492 27.8135 743.392 19.4281 Q751.291 11.0023 765.023 11.0023 Q770.452 11.0023 775.232 12.4606 Q780.052 13.8784 784.265 16.7545 Z" fill="#000000" fill-rule="nonzero" fill-opacity="1"></path><path clip-path="url(#clip860)" d="M814.161 32.4315 Q808.165 32.4315 804.682 37.1306 Q801.198 41.7891 801.198 49.9314 Q801.198 58.0738 804.641 62.7728 Q808.125 67.4314 814.161 67.4314 Q820.116 67.4314 823.599 62.7323 Q827.083 58.0333 827.083 49.9314 Q827.083 41.8701 823.599 37.1711 Q820.116 32.4315 814.161 32.4315 M814.161 26.1121 Q823.883 26.1121 829.433 32.4315 Q834.982 38.7509 834.982 49.9314 Q834.982 61.0714 829.433 67.4314 Q823.883 73.7508 814.161 73.7508 Q804.398 73.7508 798.848 67.4314 Q793.339 61.0714 793.339 49.9314 Q793.339 38.7509 798.848 32.4315 Q804.398 26.1121 814.161 26.1121 Z" fill="#000000" fill-rule="nonzero" fill-opacity="1"></path><path clip-path="url(#clip860)" d="M876.261 28.5427 L876.261 35.5912 Q873.101 33.9709 869.699 33.1607 Q866.296 32.3505 862.65 32.3505 Q857.1 32.3505 854.305 34.0519 Q851.551 35.7533 851.551 39.156 Q851.551 41.7486 853.536 43.2475 Q855.521 44.7058 861.516 46.0426 L864.068 46.6097 Q872.008 48.3111 875.329 51.4303 Q878.692 54.509 878.692 60.0587 Q878.692 66.3781 873.669 70.0644 Q868.686 73.7508 859.936 73.7508 Q856.29 73.7508 852.32 73.0216 Q848.391 72.3329 844.016 70.9151 L844.016 63.2184 Q848.148 65.3654 852.158 66.4591 Q856.169 67.5124 860.098 67.5124 Q865.364 67.5124 868.2 65.73 Q871.036 63.9071 871.036 60.6258 Q871.036 57.5877 868.97 55.9673 Q866.944 54.3469 860.017 52.8481 L857.424 52.2405 Q850.497 50.7821 847.419 47.7845 Q844.34 44.7463 844.34 39.4801 Q844.34 33.0797 848.877 29.5959 Q853.414 26.1121 861.759 26.1121 Q865.891 26.1121 869.537 26.7198 Q873.183 27.3274 876.261 28.5427 Z" fill="#000000" fill-rule="nonzero" fill-opacity="1"></path><path clip-path="url(#clip860)" d="M890.561 27.2059 L898.015 27.2059 L898.015 72.576 L890.561 72.576 L890.561 27.2059 M890.561 9.54393 L898.015 9.54393 L898.015 18.9825 L890.561 18.9825 L890.561 9.54393 Z" fill="#000000" fill-rule="nonzero" fill-opacity="1"></path><path clip-path="url(#clip860)" d="M951.324 45.1919 L951.324 72.576 L943.871 72.576 L943.871 45.4349 Q943.871 38.994 941.359 35.7938 Q938.848 32.5936 933.825 32.5936 Q927.789 32.5936 924.305 36.4419 Q920.821 40.2903 920.821 46.9338 L920.821 72.576 L913.327 72.576 L913.327 27.2059 L920.821 27.2059 L920.821 34.2544 Q923.495 30.163 927.1 28.1376 Q930.746 26.1121 935.485 26.1121 Q943.304 26.1121 947.314 30.9732 Q951.324 35.7938 951.324 45.1919 Z" fill="#000000" fill-rule="nonzero" fill-opacity="1"></path><path clip-path="url(#clip860)" d="M1005 48.0275 L1005 51.6733 L970.728 51.6733 Q971.214 59.3701 975.346 63.421 Q979.519 67.4314 986.932 67.4314 Q991.226 67.4314 995.236 66.3781 Q999.287 65.3249 1003.26 63.2184 L1003.26 70.267 Q999.247 71.9684 995.034 72.8596 Q990.821 73.7508 986.486 73.7508 Q975.63 73.7508 969.27 67.4314 Q962.951 61.1119 962.951 50.3365 Q962.951 39.1965 968.946 32.6746 Q974.982 26.1121 985.19 26.1121 Q994.345 26.1121 999.652 32.0264 Q1005 37.9003 1005 48.0275 M997.545 45.84 Q997.464 39.7232 994.102 36.0774 Q990.78 32.4315 985.271 32.4315 Q979.033 32.4315 975.265 35.9558 Q971.538 39.4801 970.971 45.8805 L997.545 45.84 Z" fill="#000000" fill-rule="nonzero" fill-opacity="1"></path><path clip-path="url(#clip860)" d="M1072.53 28.5427 L1072.53 35.5912 Q1069.37 33.9709 1065.97 33.1607 Q1062.56 32.3505 1058.92 32.3505 Q1053.37 32.3505 1050.57 34.0519 Q1047.82 35.7533 1047.82 39.156 Q1047.82 41.7486 1049.8 43.2475 Q1051.79 44.7058 1057.78 46.0426 L1060.33 46.6097 Q1068.27 48.3111 1071.6 51.4303 Q1074.96 54.509 1074.96 60.0587 Q1074.96 66.3781 1069.93 70.0644 Q1064.95 73.7508 1056.2 73.7508 Q1052.56 73.7508 1048.59 73.0216 Q1044.66 72.3329 1040.28 70.9151 L1040.28 63.2184 Q1044.41 65.3654 1048.42 66.4591 Q1052.44 67.5124 1056.36 67.5124 Q1061.63 67.5124 1064.47 65.73 Q1067.3 63.9071 1067.3 60.6258 Q1067.3 57.5877 1065.24 55.9673 Q1063.21 54.3469 1056.28 52.8481 L1053.69 52.2405 Q1046.76 50.7821 1043.69 47.7845 Q1040.61 44.7463 1040.61 39.4801 Q1040.61 33.0797 1045.14 29.5959 Q1049.68 26.1121 1058.03 26.1121 Q1062.16 26.1121 1065.8 26.7198 Q1069.45 27.3274 1072.53 28.5427 Z" fill="#000000" fill-rule="nonzero" fill-opacity="1"></path><path clip-path="url(#clip860)" d="M1086.83 27.2059 L1094.28 27.2059 L1094.28 72.576 L1086.83 72.576 L1086.83 27.2059 M1086.83 9.54393 L1094.28 9.54393 L1094.28 18.9825 L1086.83 18.9825 L1086.83 9.54393 Z" fill="#000000" fill-rule="nonzero" fill-opacity="1"></path><path clip-path="url(#clip860)" d="M1145.2 35.9153 Q1148 30.8922 1151.88 28.5022 Q1155.77 26.1121 1161.04 26.1121 Q1168.13 26.1121 1171.98 31.0947 Q1175.83 36.0368 1175.83 45.1919 L1175.83 72.576 L1168.33 72.576 L1168.33 45.4349 Q1168.33 38.913 1166.02 35.7533 Q1163.71 32.5936 1158.97 32.5936 Q1153.18 32.5936 1149.82 36.4419 Q1146.46 40.2903 1146.46 46.9338 L1146.46 72.576 L1138.96 72.576 L1138.96 45.4349 Q1138.96 38.8725 1136.65 35.7533 Q1134.34 32.5936 1129.52 32.5936 Q1123.81 32.5936 1120.45 36.4824 Q1117.09 40.3308 1117.09 46.9338 L1117.09 72.576 L1109.59 72.576 L1109.59 27.2059 L1117.09 27.2059 L1117.09 34.2544 Q1119.64 30.082 1123.2 28.0971 Q1126.77 26.1121 1131.67 26.1121 Q1136.61 26.1121 1140.06 28.6237 Q1143.54 31.1352 1145.2 35.9153 Z" fill="#000000" fill-rule="nonzero" fill-opacity="1"></path><path clip-path="url(#clip860)" d="M1219.62 28.5427 L1219.62 35.5912 Q1216.46 33.9709 1213.05 33.1607 Q1209.65 32.3505 1206 32.3505 Q1200.46 32.3505 1197.66 34.0519 Q1194.91 35.7533 1194.91 39.156 Q1194.91 41.7486 1196.89 43.2475 Q1198.88 44.7058 1204.87 46.0426 L1207.42 46.6097 Q1215.36 48.3111 1218.68 51.4303 Q1222.05 54.509 1222.05 60.0587 Q1222.05 66.3781 1217.02 70.0644 Q1212.04 73.7508 1203.29 73.7508 Q1199.64 73.7508 1195.67 73.0216 Q1191.75 72.3329 1187.37 70.9151 L1187.37 63.2184 Q1191.5 65.3654 1195.51 66.4591 Q1199.52 67.5124 1203.45 67.5124 Q1208.72 67.5124 1211.55 65.73 Q1214.39 63.9071 1214.39 60.6258 Q1214.39 57.5877 1212.32 55.9673 Q1210.3 54.3469 1203.37 52.8481 L1200.78 52.2405 Q1193.85 50.7821 1190.77 47.7845 Q1187.69 44.7463 1187.69 39.4801 Q1187.69 33.0797 1192.23 29.5959 Q1196.77 26.1121 1205.11 26.1121 Q1209.25 26.1121 1212.89 26.7198 Q1216.54 27.3274 1219.62 28.5427 Z" fill="#000000" fill-rule="nonzero" fill-opacity="1"></path><path clip-path="url(#clip860)" d="M1292.94 28.9478 L1292.94 35.9153 Q1289.78 34.1734 1286.58 33.3227 Q1283.42 32.4315 1280.18 32.4315 Q1272.93 32.4315 1268.92 37.0496 Q1264.9 41.6271 1264.9 49.9314 Q1264.9 58.2358 1268.92 62.8538 Q1272.93 67.4314 1280.18 67.4314 Q1283.42 67.4314 1286.58 66.5807 Q1289.78 65.6895 1292.94 63.9476 L1292.94 70.8341 Q1289.82 72.2924 1286.46 73.0216 Q1283.13 73.7508 1279.37 73.7508 Q1269.12 73.7508 1263.08 67.3098 Q1257.05 60.8689 1257.05 49.9314 Q1257.05 38.832 1263.12 32.472 Q1269.24 26.1121 1279.85 26.1121 Q1283.3 26.1121 1286.58 26.8413 Q1289.86 27.5299 1292.94 28.9478 Z" fill="#000000" fill-rule="nonzero" fill-opacity="1"></path><path clip-path="url(#clip860)" d="M1344.71 48.0275 L1344.71 51.6733 L1310.44 51.6733 Q1310.92 59.3701 1315.06 63.421 Q1319.23 67.4314 1326.64 67.4314 Q1330.93 67.4314 1334.95 66.3781 Q1339 65.3249 1342.97 63.2184 L1342.97 70.267 Q1338.96 71.9684 1334.74 72.8596 Q1330.53 73.7508 1326.2 73.7508 Q1315.34 73.7508 1308.98 67.4314 Q1302.66 61.1119 1302.66 50.3365 Q1302.66 39.1965 1308.65 32.6746 Q1314.69 26.1121 1324.9 26.1121 Q1334.05 26.1121 1339.36 32.0264 Q1344.71 37.9003 1344.71 48.0275 M1337.25 45.84 Q1337.17 39.7232 1333.81 36.0774 Q1330.49 32.4315 1324.98 32.4315 Q1318.74 32.4315 1314.97 35.9558 Q1311.25 39.4801 1310.68 45.8805 L1337.25 45.84 Z" fill="#000000" fill-rule="nonzero" fill-opacity="1"></path><path clip-path="url(#clip860)" d="M1356.94 9.54393 L1364.4 9.54393 L1364.4 72.576 L1356.94 72.576 L1356.94 9.54393 Z" fill="#000000" fill-rule="nonzero" fill-opacity="1"></path><path clip-path="url(#clip860)" d="M1379.99 9.54393 L1387.44 9.54393 L1387.44 72.576 L1379.99 72.576 L1379.99 9.54393 Z" fill="#000000" fill-rule="nonzero" fill-opacity="1"></path><path clip-path="url(#clip860)" d="M1455.26 39.9662 Q1461.13 41.222 1464.41 45.1919 Q1467.73 49.1618 1467.73 54.9951 Q1467.73 63.9476 1461.58 68.8492 Q1455.42 73.7508 1444.08 73.7508 Q1440.27 73.7508 1436.22 72.9811 Q1432.21 72.2519 1427.91 70.7531 L1427.91 62.8538 Q1431.32 64.8388 1435.37 65.8515 Q1439.42 66.8642 1443.83 66.8642 Q1451.53 66.8642 1455.54 63.826 Q1459.59 60.7879 1459.59 54.9951 Q1459.59 49.6479 1455.82 46.6502 Q1452.1 43.612 1445.41 43.612 L1438.36 43.612 L1438.36 36.8875 L1445.74 36.8875 Q1451.77 36.8875 1454.97 34.4975 Q1458.17 32.067 1458.17 27.5299 Q1458.17 22.8714 1454.85 20.4004 Q1451.57 17.8888 1445.41 17.8888 Q1442.05 17.8888 1438.2 18.618 Q1434.35 19.3471 1429.74 20.8865 L1429.74 13.5948 Q1434.39 12.2985 1438.45 11.6504 Q1442.54 11.0023 1446.14 11.0023 Q1455.46 11.0023 1460.89 15.2557 Q1466.32 19.4686 1466.32 26.6793 Q1466.32 31.7024 1463.44 35.1862 Q1460.56 38.6294 1455.26 39.9662 Z" fill="#000000" fill-rule="nonzero" fill-opacity="1"></path><path clip-path="url(#clip860)" d="M1483.33 12.096 L1515.45 12.096 L1515.45 18.9825 L1490.82 18.9825 L1490.82 33.8088 Q1492.61 33.2012 1494.39 32.9176 Q1496.17 32.5936 1497.95 32.5936 Q1508.08 32.5936 1514 38.1433 Q1519.91 43.6931 1519.91 53.1722 Q1519.91 62.9348 1513.83 68.3631 Q1507.76 73.7508 1496.7 73.7508 Q1492.89 73.7508 1488.92 73.1026 Q1484.99 72.4545 1480.78 71.1582 L1480.78 62.9348 Q1484.42 64.9198 1488.31 65.892 Q1492.2 66.8642 1496.54 66.8642 Q1503.54 66.8642 1507.64 63.1779 Q1511.73 59.4916 1511.73 53.1722 Q1511.73 46.8528 1507.64 43.1664 Q1503.54 39.4801 1496.54 39.4801 Q1493.25 39.4801 1489.97 40.2093 Q1486.73 40.9384 1483.33 42.4778 L1483.33 12.096 Z" fill="#000000" fill-rule="nonzero" fill-opacity="1"></path><path clip-path="url(#clip860)" d="M1553.53 17.4837 Q1547.21 17.4837 1544.01 23.7221 Q1540.85 29.92 1540.85 42.3968 Q1540.85 54.833 1544.01 61.0714 Q1547.21 67.2693 1553.53 67.2693 Q1559.89 67.2693 1563.05 61.0714 Q1566.25 54.833 1566.25 42.3968 Q1566.25 29.92 1563.05 23.7221 Q1559.89 17.4837 1553.53 17.4837 M1553.53 11.0023 Q1563.7 11.0023 1569.05 19.0636 Q1574.43 27.0843 1574.43 42.3968 Q1574.43 57.6687 1569.05 65.73 Q1563.7 73.7508 1553.53 73.7508 Q1543.36 73.7508 1537.98 65.73 Q1532.63 57.6687 1532.63 42.3968 Q1532.63 27.0843 1537.98 19.0636 Q1543.36 11.0023 1553.53 11.0023 Z" fill="#000000" fill-rule="nonzero" fill-opacity="1"></path><path clip-path="url(#clip860)" d="M1614.13 27.2059 L1621.59 27.2059 L1621.59 72.576 L1614.13 72.576 L1614.13 27.2059 M1614.13 9.54393 L1621.59 9.54393 L1621.59 18.9825 L1614.13 18.9825 L1614.13 9.54393 Z" fill="#000000" fill-rule="nonzero" fill-opacity="1"></path><path clip-path="url(#clip860)" d="M1644.56 14.324 L1644.56 27.2059 L1659.91 27.2059 L1659.91 32.9987 L1644.56 32.9987 L1644.56 57.6282 Q1644.56 63.1779 1646.05 64.7578 Q1647.59 66.3376 1652.25 66.3376 L1659.91 66.3376 L1659.91 72.576 L1652.25 72.576 Q1643.62 72.576 1640.34 69.3758 Q1637.06 66.1351 1637.06 57.6282 L1637.06 32.9987 L1631.59 32.9987 L1631.59 27.2059 L1637.06 27.2059 L1637.06 14.324 L1644.56 14.324 Z" fill="#000000" fill-rule="nonzero" fill-opacity="1"></path><path clip-path="url(#clip860)" d="M1708.52 48.0275 L1708.52 51.6733 L1674.25 51.6733 Q1674.73 59.3701 1678.87 63.421 Q1683.04 67.4314 1690.45 67.4314 Q1694.75 67.4314 1698.76 66.3781 Q1702.81 65.3249 1706.78 63.2184 L1706.78 70.267 Q1702.77 71.9684 1698.55 72.8596 Q1694.34 73.7508 1690.01 73.7508 Q1679.15 73.7508 1672.79 67.4314 Q1666.47 61.1119 1666.47 50.3365 Q1666.47 39.1965 1672.47 32.6746 Q1678.5 26.1121 1688.71 26.1121 Q1697.87 26.1121 1703.17 32.0264 Q1708.52 37.9003 1708.52 48.0275 M1701.07 45.84 Q1700.98 39.7232 1697.62 36.0774 Q1694.3 32.4315 1688.79 32.4315 Q1682.55 32.4315 1678.79 35.9558 Q1675.06 39.4801 1674.49 45.8805 L1701.07 45.84 Z" fill="#000000" fill-rule="nonzero" fill-opacity="1"></path><path clip-path="url(#clip860)" d="M1747.04 34.1734 Q1745.79 33.4443 1744.29 33.1202 Q1742.83 32.7556 1741.05 32.7556 Q1734.73 32.7556 1731.33 36.8875 Q1727.96 40.9789 1727.96 48.6757 L1727.96 72.576 L1720.47 72.576 L1720.47 27.2059 L1727.96 27.2059 L1727.96 34.2544 Q1730.31 30.1225 1734.08 28.1376 Q1737.85 26.1121 1743.24 26.1121 Q1744.01 26.1121 1744.94 26.2337 Q1745.87 26.3147 1747 26.5172 L1747.04 34.1734 Z" fill="#000000" fill-rule="nonzero" fill-opacity="1"></path><path clip-path="url(#clip860)" d="M1783.7 65.6895 L1797.07 65.6895 L1797.07 19.5497 L1782.53 22.4663 L1782.53 15.0127 L1796.99 12.096 L1805.17 12.096 L1805.17 65.6895 L1818.54 65.6895 L1818.54 72.576 L1783.7 72.576 L1783.7 65.6895 Z" fill="#000000" fill-rule="nonzero" fill-opacity="1"></path><path clip-path="url(#clip860)" d="M1852.57 17.4837 Q1846.25 17.4837 1843.05 23.7221 Q1839.89 29.92 1839.89 42.3968 Q1839.89 54.833 1843.05 61.0714 Q1846.25 67.2693 1852.57 67.2693 Q1858.93 67.2693 1862.09 61.0714 Q1865.29 54.833 1865.29 42.3968 Q1865.29 29.92 1862.09 23.7221 Q1858.93 17.4837 1852.57 17.4837 M1852.57 11.0023 Q1862.74 11.0023 1868.08 19.0636 Q1873.47 27.0843 1873.47 42.3968 Q1873.47 57.6687 1868.08 65.73 Q1862.74 73.7508 1852.57 73.7508 Q1842.4 73.7508 1837.01 65.73 Q1831.67 57.6687 1831.67 42.3968 Q1831.67 27.0843 1837.01 19.0636 Q1842.4 11.0023 1852.57 11.0023 Z" fill="#000000" fill-rule="nonzero" fill-opacity="1"></path><polyline clip-path="url(#clip862)" style="stroke:#009af9; stroke-linecap:round; stroke-linejoin:round; stroke-width:4; stroke-opacity:1; fill:none" points="315.545,1122.33 317.525,1322.01 319.505,1123.86 321.484,993.416 323.464,1035.97 325.444,1046.36 327.424,1162.93 329.404,1203.42 331.384,1080.93 333.364,1134.62 335.343,1043.67 337.323,1018.99 339.303,1199.46 341.283,1118.77 343.263,1291.24 345.243,1002.55 347.223,1060.52 349.202,1044.99 351.182,1118.98 353.162,1111.83 355.142,1029.23 357.122,1124.55 359.102,1033.68 361.082,1195.86 363.061,1149.53 365.041,1184.89 367.021,901.783 369.001,1046.27 370.981,1119.46 372.961,901.781 374.941,1074.66 376.92,1018.18 378.9,1231.72 380.88,1170.62 382.86,995.383 384.84,1090.02 386.82,1188.2 388.8,1040.89 390.779,1179.63 392.759,1111.16 394.739,1074.39 396.719,1107.97 398.699,1134.93 400.679,947.694 402.659,1102.65 404.638,1126.08 406.618,1157.88 408.598,1128.66 410.578,1098.96 412.558,1132.89 414.538,1175.59 416.517,1127.52 418.497,1016.03 420.477,1182.09 422.457,1069.12 424.437,1353.65 426.417,1196.56 428.397,1124.73 430.376,971.232 432.356,1014.62 434.336,1279.53 436.316,1161.19 438.296,1028.84 440.276,1103.5 442.256,1099.33 444.235,1139.9 446.215,1124.48 448.195,1119.69 450.175,1117.83 452.155,1119.1 454.135,1055.02 456.115,1103.29 458.094,1043.99 460.074,1110.11 462.054,1160.98 464.034,1386.4 466.014,1133.87 467.994,1025.99 469.974,1234.37 471.953,1105.8 473.933,1227.61 475.913,1232.21 477.893,1268.52 479.873,928.054 481.853,1127.95 483.833,1162.1 485.812,1159.32 487.792,1109.24 489.772,1106.86 491.752,1062.75 493.732,979.875 495.712,1141.68 497.692,1099.69 499.671,1181.87 501.651,1138.12 503.631,1089.68 505.611,1121.69 507.591,1165.73 509.571,1133.73 511.551,1340.11 513.53,978.972 515.51,1045.18 517.49,1086.08 519.47,1220.83 521.45,1189.74 523.43,1205.52 525.409,1038 527.389,1173.34 529.369,1132.82 531.349,1161.71 533.329,1046.45 535.309,1078.37 537.289,1091.12 539.268,948.175 541.248,1063.99 543.228,1200.68 545.208,1208.64 547.188,1197.59 549.168,1049.19 551.148,1040.13 553.127,1141.75 555.107,1103.87 557.087,1075.01 559.067,1040.28 561.047,1020.71 563.027,1230.17 565.007,1024.95 566.986,1098.9 568.966,1005.3 570.946,1198.7 572.926,1147.11 574.906,1185.72 576.886,1209.95 578.866,1175.7 580.845,1097.59 582.825,1100.75 584.805,1219.45 586.785,1024.67 588.765,1211 590.745,1206.84 592.725,1093.86 594.704,1073.53 596.684,1190.13 598.664,1220.48 600.644,1239.77 602.624,1068.37 604.604,1230.21 606.584,1243.55 608.563,1134.27 610.543,1133.97 612.523,1091.57 614.503,1116.84 616.483,1112.92 618.463,1101.71 620.443,1124.27 622.422,1160.29 624.402,1121.08 626.382,1070.5 628.362,1101.17 630.342,1100.55 632.322,1096.72 634.301,1016.51 636.281,1110.17 638.261,1079.95 640.241,1164.63 642.221,1019.01 644.201,1040.58 646.181,1099.57 648.16,1120.93 650.14,1030.45 652.12,1166.09 654.1,1114.7 656.08,1089.6 658.06,942.423 660.04,1008.11 662.019,1044.83 663.999,1275.36 665.979,1050.3 667.959,1096.05 669.939,1126.96 671.919,1127.21 673.899,1096.88 675.878,1201.63 677.858,1143.4 679.838,1041.83 681.818,1073.67 683.798,1199.5 685.778,1070.98 687.758,1069 689.737,1136.48 691.717,1164.51 693.697,1284.58 695.677,1065.37 697.657,1121.08 699.637,1169.74 701.617,1079.75 703.596,1217.66 705.576,1104.28 707.556,1156.07 709.536,1270.83 711.516,1230.49 713.496,1269.1 715.476,1049.09 717.455,1138.72 719.435,1147.76 721.415,1124.09 723.395,1149.33 725.375,1154.52 727.355,1262.9 729.335,1089.99 731.314,1083.23 733.294,1243.27 735.274,1092.13 737.254,1105.29 739.234,1133.65 741.214,1144.39 743.194,1082.35 745.173,1184.45 747.153,1182.24 749.133,1247.27 751.113,1014.71 753.093,1110.27 755.073,1110.27 757.052,1171.43 759.032,1140.6 761.012,1243.55 762.992,1187.35 764.972,1231.69 766.952,1092.62 768.932,894.468 770.911,1054.34 772.891,1039.53 774.871,1212.44 776.851,1054.24 778.831,1106.48 780.811,1022.89 782.791,1082.79 784.77,1216.01 786.75,1021.23 788.73,1165.67 790.71,1153.17 792.69,1051.09 794.67,1046.72 796.65,914.05 798.629,1143.36 800.609,1032.51 802.589,1064.98 804.569,1132.01 806.549,1195.42 808.529,1221.95 810.509,1028.19 812.488,1049.8 814.468,1109.69 816.448,1014.5 818.428,1322.63 820.408,894.372 822.388,953.266 824.368,1101.96 826.347,983.624 828.327,1100.05 830.307,1084.35 832.287,819.971 834.267,1124.27 836.247,854.185 838.227,1025.31 840.206,1378.92 842.186,1019.2 844.166,1203.39 846.146,1056.72 848.126,1026.81 850.106,873.063 852.086,917.542 854.065,1034.71 856.045,1023.42 858.025,1045.54 860.005,1142.67 861.985,1028.27 863.965,917.355 865.944,1014.05 867.924,980.558 869.904,1107.75 871.884,1036.66 873.864,1028.62 875.844,1117.71 877.824,1091.72 879.803,1148.21 881.783,1032.35 883.763,1064.17 885.743,1102.45 887.723,1067.94 889.703,1167.88 891.683,1069.51 893.662,1312.29 895.642,1039.81 897.622,1239.95 899.602,1147.63 901.582,1013.61 903.562,945.637 905.542,788.125 907.521,1104.73 909.501,1122.59 911.481,1136.93 913.461,885.568 915.441,1044.96 917.421,1041.44 919.401,919.769 921.38,1071.29 923.36,1075.95 925.34,1193.66 927.32,1018.73 929.3,1021.87 931.28,1016.77 933.26,864.831 935.239,934.044 937.219,1090.75 939.199,1190.24 941.179,1100.48 943.159,975.24 945.139,999.319 947.119,1084.18 949.098,999.654 951.078,1028.02 953.058,1156.96 955.038,962.926 957.018,1223.06 958.998,1045.12 960.978,1045.02 962.957,1024.42 964.937,996.205 966.917,1177.48 968.897,1008.26 970.877,985.899 972.857,1105.71 974.836,1023.74 976.816,1062.72 978.796,986.56 980.776,1113.96 982.756,1063.76 984.736,1007.86 986.716,904.923 988.695,1076.27 990.675,967.789 992.655,1080.14 994.635,1061.83 996.615,801.575 998.595,953.906 1000.57,850.817 1002.55,1048.27 1004.53,1048.33 1006.51,996.968 1008.49,1189.52 1010.47,1338.26 1012.45,1021.17 1014.43,862.051 1016.41,1037.9 1018.39,1071.97 1020.37,964.199 1022.35,894.292 1024.33,992.176 1026.31,1095.5 1028.29,1164.25 1030.27,1180.45 1032.25,912.131 1034.23,1100.08 1036.21,1130.67 1038.19,827.755 1040.17,968.277 1042.15,1298.8 1044.13,1088.2 1046.11,924.361 1048.09,1022.52 1050.07,1042.91 1052.05,1229.65 1054.03,926.973 1056.01,1291.9 1057.99,981.339 1059.97,992.512 1061.95,1164.85 1063.93,1139.46 1065.91,998.173 1067.89,952.657 1069.87,1023.89 1071.85,992.641 1073.83,979.605 1075.81,1029.16 1077.79,995.504 1079.77,1104.49 1081.75,1038.5 1083.73,1002.39 1085.71,913.48 1087.69,1020.35 1089.67,973.927 1091.65,1015.77 1093.63,1030.89 1095.61,1024.68 1097.59,1222.71 1099.57,1065.39 1101.55,1082.74 1103.53,1181.91 1105.51,1005.07 1107.49,956.361 1109.47,1081.42 1111.45,1123.27 1113.43,881.188 1115.41,1130.87 1117.39,1079.8 1119.37,1088.94 1121.35,1004.16 1123.33,1076.18 1125.31,1004.27 1127.29,1026.65 1129.27,1091.31 1131.25,921.604 1133.22,1140 1135.2,1180.4 1137.18,889.654 1139.16,1040.91 1141.14,1223.52 1143.12,1138.42 1145.1,970.177 1147.08,1128.55 1149.06,1028.43 1151.04,1029.46 1153.02,1070.96 1155,1133.65 1156.98,1096.66 1158.96,917.285 1160.94,982.641 1162.92,1057.05 1164.9,1054.99 1166.88,983.43 1168.86,956.485 1170.84,1134.47 1172.82,1192.92 1174.8,1080.43 1176.78,1129.04 1178.76,848.135 1180.74,1205.75 1182.72,1170.57 1184.7,966.555 1186.68,1120.12 1188.66,1062.68 1190.64,1151.63 1192.62,1095.15 1194.6,934.879 1196.58,958.222 1198.56,1067.07 1200.54,995.413 1202.52,836.005 1204.5,1025.09 1206.48,1054.12 1208.46,1058.69 1210.44,987.327 1212.42,1025.82 1214.4,932.39 1216.38,1011.3 1218.36,982.127 1220.34,1129.09 1222.32,955.392 1224.3,991.91 1226.28,915.247 1228.26,898.051 1230.24,1167.37 1232.22,905.53 1234.2,1075.26 1236.18,1053.62 1238.16,1033.05 1240.14,1075.84 1242.12,1100.78 1244.1,1055.06 1246.08,1030.35 1248.06,1015 1250.04,1172.07 1252.02,928.245 1254,981.094 1255.98,1111.89 1257.96,1045.46 1259.94,1020.83 1261.92,1017.39 1263.9,1132.97 1265.88,1029.07 1267.85,972.793 1269.83,1170.34 1271.81,1105.09 1273.79,1055.13 1275.77,1105.88 1277.75,1062.6 1279.73,1141.55 1281.71,1041.09 1283.69,1027.38 1285.67,1246.58 1287.65,1222.52 1289.63,986.446 1291.61,743.991 1293.59,1042.63 1295.57,1091.49 1297.55,1214.34 1299.53,1007.11 1301.51,1112.56 1303.49,965.49 1305.47,623.792 1307.45,507.332 1309.43,628.867 1311.41,492.971 1313.39,534.11 1315.37,517.239 1317.35,428.153 1319.33,381.822 1321.31,486.41 1323.29,467.039 1325.27,456.129 1327.25,642.152 1329.23,517.21 1331.21,584.833 1333.19,411.589 1335.17,443.456 1337.15,535.459 1339.13,355.013 1341.11,473.142 1343.09,515.128 1345.07,502.268 1347.05,277.572 1349.03,492.901 1351.01,476.032 1352.99,514.9 1354.97,477.641 1356.95,573.95 1358.93,407.089 1360.91,530.149 1362.89,531.015 1364.87,378.933 1366.85,476.49 1368.83,478.9 1370.81,495.515 1372.79,298.109 1374.77,448.068 1376.75,297.711 1378.73,336.761 1380.71,535.122 1382.69,345.671 1384.67,421.769 1386.65,422.331 1388.63,475.429 1390.61,391.813 1392.59,557.895 1394.57,321.127 1396.55,376.219 1398.53,395.292 1400.51,550.396 1402.49,388.181 1404.46,568.022 1406.44,224.442 1408.42,341.152 1410.4,451.669 1412.38,507.046 1414.36,340.884 1416.34,310.756 1418.32,463.354 1420.3,298.597 1422.28,402.704 1424.26,477.633 1426.24,543.133 1428.22,465.073 1430.2,380.331 1432.18,363.794 1434.16,376.767 1436.14,375.743 1438.12,402.757 1440.1,397.341 1442.08,548.437 1444.06,476.59 1446.04,443.461 1448.02,379.285 1450,391.285 1451.98,455.388 1453.96,563.918 1455.94,381.328 1457.92,599.84 1459.9,514.995 1461.88,443.362 1463.86,603.902 1465.84,445.182 1467.82,437.314 1469.8,696.669 1471.78,385.456 1473.76,623.045 1475.74,383.513 1477.72,459.576 1479.7,497.703 1481.68,433.019 1483.66,665.985 1485.64,526.36 1487.62,336.28 1489.6,283.624 1491.58,462.226 1493.56,419.804 1495.54,500.84 1497.52,512.204 1499.5,510.236 1501.48,300.053 1503.46,547.769 1505.44,582.94 1507.42,415.504 1509.4,281.542 1511.38,404.296 1513.36,718.466 1515.34,709.265 1517.32,229.6 1519.3,624.138 1521.28,341.518 1523.26,436.337 1525.24,503.485 1527.22,430.977 1529.2,532.764 1531.18,421.798 1533.16,569.531 1535.14,251.4 1537.12,430.807 1539.1,459.782 1541.07,439.699 1543.05,381.464 1545.03,553.747 1547.01,619.864 1548.99,549.853 1550.97,354.039 1552.95,382.859 1554.93,313.124 1556.91,296.416 1558.89,389.516 1560.87,590.959 1562.85,735.431 1564.83,312.881 1566.81,401.125 1568.79,497.283 1570.77,539.667 1572.75,545.557 1574.73,292.484 1576.71,455.856 1578.69,501.73 1580.67,401.657 1582.65,430.108 1584.63,408.633 1586.61,430.445 1588.59,696.897 1590.57,378.324 1592.55,412.98 1594.53,554.289 1596.51,451.309 1598.49,731.458 1600.47,387.323 1602.45,433.135 1604.43,305.408 1606.41,528.233 1608.39,380.274 1610.37,612.877 1612.35,491.12 1614.33,591.095 1616.31,499.43 1618.29,307.845 1620.27,579.191 1622.25,694.303 1624.23,305.016 1626.21,339.505 1628.19,570.773 1630.17,422.017 1632.15,405.533 1634.13,381.733 1636.11,486.139 1638.09,160.256 1640.07,704.864 1642.05,449.078 1644.03,363.797 1646.01,567.996 1647.99,674.244 1649.97,270.843 1651.95,345.944 1653.93,535.72 1655.91,674.438 1657.89,308.512 1659.87,319.819 1661.85,490.868 1663.83,414.823 1665.81,689.086 1667.79,404.261 1669.77,351.363 1671.75,449.083 1673.73,328.57 1675.71,543.417 1677.68,196.77 1679.66,383.493 1681.64,403.094 1683.62,399.305 1685.6,346.599 1687.58,479.753 1689.56,506.007 1691.54,353.928 1693.52,480.958 1695.5,453.318 1697.48,319.045 1699.46,420.47 1701.44,433.696 1703.42,270.037 1705.4,303.719 1707.38,387.922 1709.36,299.898 1711.34,529.914 1713.32,429.089 1715.3,269.998 1717.28,371.426 1719.26,452.054 1721.24,478.018 1723.22,432.373 1725.2,386.493 1727.18,455.782 1729.16,371.969 1731.14,422.896 1733.12,454.147 1735.1,379.125 1737.08,485.816 1739.06,418.784 1741.04,446.841 1743.02,336.881 1745,470.499 1746.98,360.591 1748.96,371.182 1750.94,286.937 1752.92,568.328 1754.9,261.846 1756.88,288.376 1758.86,342.765 1760.84,465.782 1762.82,544.187 1764.8,352.927 1766.78,419.168 1768.76,526.886 1770.74,254.546 1772.72,394.772 1774.7,433.52 1776.68,360.688 1778.66,458.285 1780.64,476.423 1782.62,360.948 1784.6,437.48 1786.58,488.68 1788.56,540.217 1790.54,665.691 1792.52,476.519 1794.5,382.154 1796.48,370.794 1798.46,549.409 1800.44,794.388 1802.42,714.772 1804.4,727.246 1806.38,571.727 1808.36,671.466 1810.34,834.905 1812.31,799.834 1814.29,1070.96 1816.27,881.756 1818.25,835.234 1820.23,972.539 1822.21,760.238 1824.19,804.521 1826.17,870.336 1828.15,790.678 1830.13,877.054 1832.11,755.947 1834.09,736.094 1836.07,905.158 1838.05,816.787 1840.03,821.036 1842.01,821.137 1843.99,761.606 1845.97,789.325 1847.95,764.44 1849.93,822.088 1851.91,737.937 1853.89,925.147 1855.87,884.219 1857.85,883.496 1859.83,755.262 1861.81,920.98 1863.79,774.45 1865.77,774.336 1867.75,783.755 1869.73,814.727 1871.71,713.796 1873.69,771.542 1875.67,726.642 1877.65,786.895 1879.63,753.574 1881.61,664.429 1883.59,794 1885.57,752.158 1887.55,836.674 1889.53,781.97 1891.51,827.863 1893.49,737.67 1895.47,733.969 1897.45,764.677 1899.43,747.251 1901.41,830.727 1903.39,798.091 1905.37,917.026 1907.35,834.082 1909.33,781.347 1911.31,765.839 1913.29,820.83 1915.27,770.98 1917.25,785.097 1919.23,738.961 1921.21,809.018 1923.19,862.349 1925.17,802.922 1927.15,898.995 1929.13,903.71 1931.11,932.853 1933.09,830.191 1935.07,736.813 1937.05,753.951 1939.03,798.5 1941.01,939.335 1942.99,745.699 1944.97,723.897 1946.95,742.645 1948.92,683.104 1950.9,727.233 1952.88,749.231 1954.86,821.324 1956.84,791.819 1958.82,713.776 1960.8,684.861 1962.78,837.982 1964.76,760.899 1966.74,781.199 1968.72,712.606 1970.7,787.347 1972.68,745.93 1974.66,912.702 1976.64,731.945 1978.62,734.047 1980.6,705.306 1982.58,862.206 1984.56,909.363 1986.54,834.77 1988.52,699.514 1990.5,686.138 1992.48,737.47 1994.46,717.959 1996.44,783.478 1998.42,759.867 2000.4,687.019 2002.38,829.283 2004.36,784.934 2006.34,713.597 2008.32,709.821 2010.3,734.846 2012.28,757.898 2014.26,706.595 2016.24,729.882 2018.22,815.856 2020.2,829.065 2022.18,724.89 2024.16,988.158 2026.14,748.988 2028.12,998.106 2030.1,857.795 2032.08,784.256 2034.06,992.557 2036.04,832.039 2038.02,765.253 2040,585.961 2041.98,750.287 2043.96,512.216 2045.94,883.001 2047.92,830.693 2049.9,802.588 2051.88,828.4 2053.86,954.846 2055.84,948.312 2057.82,720.708 2059.8,856.8 2061.78,819.591 2063.76,710.982 2065.74,725.063 2067.72,845.283 2069.7,721.068 2071.68,829.983 2073.66,787.017 2075.64,722.508 2077.62,746.516 2079.6,784.82 2081.58,931.529 2083.56,743.056 2085.53,859.143 2087.51,780.817 2089.49,749.543 2091.47,901.739 2093.45,791.749 2095.43,770.66 2097.41,710.712 2099.39,739.266 2101.37,763.985 2103.35,852.544 2105.33,777.176 2107.31,1036.58 2109.29,909.948 2111.27,717.677 2113.25,928.054 2115.23,855.366 2117.21,799.136 2119.19,851.875 2121.17,867.932 2123.15,911.915 2125.13,783.568 2127.11,725.045 2129.09,736.242 2131.07,758.194 2133.05,901.239 2135.03,700.981 2137.01,819.6 2138.99,813.228 2140.97,763.824 2142.95,745.059 2144.93,875.254 2146.91,726.954 2148.89,970.067 2150.87,722.145 2152.85,808.404 2154.83,776.718 2156.81,684.636 2158.79,883.854 2160.77,858.153 2162.75,824.616 2164.73,777.781 2166.71,763.695 2168.69,814.059 2170.67,819.36 2172.65,817.039 2174.63,727.884 2176.61,849.297 2178.59,703.108 2180.57,741.526 2182.55,778.479 2184.53,787.98 2186.51,718.685 2188.49,770.642 2190.47,901.061 2192.45,831.132 2194.43,708.093 2196.41,780.124 2198.39,701.761 2200.37,890.861 2202.35,760.755 2204.33,735.992 2206.31,727.77 2208.29,706.621 2210.27,756.681 2212.25,714.532 2214.23,782.417 2216.21,858.089 2218.19,832.753 2220.17,795.283 2222.14,832.466 2224.12,872.112 2226.1,884.315 2228.08,830.194 2230.06,818.154 2232.04,883.534 2234.02,840.161 2236,671.354 2237.98,711.639 2239.96,756.023 2241.94,780.284 2243.92,871.504 2245.9,790.931 2247.88,731.901 2249.86,772.862 2251.84,828.926 2253.82,768.223 2255.8,820.422 2257.78,743.599 2259.76,761.919 2261.74,765.167 2263.72,719.73 2265.7,823.236 2267.68,780.526 2269.66,742.789 2271.64,812.108 2273.62,798.912 2275.6,842.128 2277.58,843.774 2279.56,863.591 2281.54,773.049 2283.52,845.914 2285.5,814.877 2287.48,820.671 2289.46,836.549 2291.44,703.758 2293.42,747.164 "></polyline>
<path clip-path="url(#clip860)" d="M1853.61 270.476 L2282.87 270.476 L2282.87 166.796 L1853.61 166.796  Z" fill="#ffffff" fill-rule="evenodd" fill-opacity="1"></path>
<polyline clip-path="url(#clip860)" style="stroke:#000000; stroke-linecap:round; stroke-linejoin:round; stroke-width:4; stroke-opacity:1; fill:none" points="1853.61,270.476 2282.87,270.476 2282.87,166.796 1853.61,166.796 1853.61,270.476 "></polyline>
<polyline clip-path="url(#clip860)" style="stroke:#009af9; stroke-linecap:round; stroke-linejoin:round; stroke-width:4; stroke-opacity:1; fill:none" points="1876.91,218.636 2016.68,218.636 "></polyline>
<path clip-path="url(#clip860)" d="M2062.22 202.49 L2062.22 207.05 Q2059.55 205.777 2057.19 205.152 Q2054.83 204.527 2052.63 204.527 Q2048.81 204.527 2046.73 206.008 Q2044.67 207.49 2044.67 210.221 Q2044.67 212.513 2046.04 213.694 Q2047.42 214.851 2051.27 215.569 L2054.09 216.147 Q2059.32 217.143 2061.8 219.666 Q2064.3 222.166 2064.3 226.379 Q2064.3 231.402 2060.92 233.994 Q2057.56 236.587 2051.06 236.587 Q2048.6 236.587 2045.83 236.031 Q2043.07 235.476 2040.11 234.388 L2040.11 229.573 Q2042.96 231.17 2045.69 231.981 Q2048.42 232.791 2051.06 232.791 Q2055.06 232.791 2057.24 231.217 Q2059.42 229.643 2059.42 226.726 Q2059.42 224.18 2057.84 222.744 Q2056.29 221.309 2052.73 220.592 L2049.88 220.036 Q2044.65 218.995 2042.31 216.772 Q2039.97 214.55 2039.97 210.592 Q2039.97 206.008 2043.19 203.37 Q2046.43 200.731 2052.1 200.731 Q2054.53 200.731 2057.05 201.171 Q2059.58 201.61 2062.22 202.49 Z" fill="#000000" fill-rule="nonzero" fill-opacity="1"></path><path clip-path="url(#clip860)" d="M2071.41 209.99 L2075.66 209.99 L2075.66 235.916 L2071.41 235.916 L2071.41 209.99 M2071.41 199.897 L2075.66 199.897 L2075.66 205.291 L2071.41 205.291 L2071.41 199.897 Z" fill="#000000" fill-rule="nonzero" fill-opacity="1"></path><path clip-path="url(#clip860)" d="M2104.76 214.967 Q2106.36 212.096 2108.58 210.731 Q2110.8 209.365 2113.81 209.365 Q2117.86 209.365 2120.06 212.212 Q2122.26 215.036 2122.26 220.268 L2122.26 235.916 L2117.98 235.916 L2117.98 220.407 Q2117.98 216.68 2116.66 214.874 Q2115.34 213.069 2112.63 213.069 Q2109.32 213.069 2107.4 215.268 Q2105.48 217.467 2105.48 221.263 L2105.48 235.916 L2101.2 235.916 L2101.2 220.407 Q2101.2 216.657 2099.88 214.874 Q2098.56 213.069 2095.8 213.069 Q2092.54 213.069 2090.62 215.291 Q2088.7 217.49 2088.7 221.263 L2088.7 235.916 L2084.41 235.916 L2084.41 209.99 L2088.7 209.99 L2088.7 214.018 Q2090.16 211.633 2092.19 210.499 Q2094.23 209.365 2097.03 209.365 Q2099.85 209.365 2101.82 210.8 Q2103.81 212.235 2104.76 214.967 Z" fill="#000000" fill-rule="nonzero" fill-opacity="1"></path><path clip-path="url(#clip860)" d="M2130.76 209.99 L2135.02 209.99 L2135.02 235.916 L2130.76 235.916 L2130.76 209.99 M2130.76 199.897 L2135.02 199.897 L2135.02 205.291 L2130.76 205.291 L2130.76 199.897 Z" fill="#000000" fill-rule="nonzero" fill-opacity="1"></path><path clip-path="url(#clip860)" d="M2143.93 199.897 L2148.19 199.897 L2148.19 235.916 L2143.93 235.916 L2143.93 199.897 Z" fill="#000000" fill-rule="nonzero" fill-opacity="1"></path><path clip-path="url(#clip860)" d="M2168.88 222.883 Q2163.72 222.883 2161.73 224.064 Q2159.74 225.244 2159.74 228.092 Q2159.74 230.36 2161.22 231.703 Q2162.72 233.022 2165.29 233.022 Q2168.84 233.022 2170.97 230.522 Q2173.12 227.999 2173.12 223.832 L2173.12 222.883 L2168.88 222.883 M2177.38 221.124 L2177.38 235.916 L2173.12 235.916 L2173.12 231.981 Q2171.66 234.342 2169.48 235.476 Q2167.31 236.587 2164.16 236.587 Q2160.18 236.587 2157.82 234.365 Q2155.48 232.119 2155.48 228.369 Q2155.48 223.994 2158.4 221.772 Q2161.34 219.55 2167.15 219.55 L2173.12 219.55 L2173.12 219.133 Q2173.12 216.194 2171.17 214.596 Q2169.25 212.976 2165.76 212.976 Q2163.53 212.976 2161.43 213.508 Q2159.32 214.041 2157.38 215.106 L2157.38 211.17 Q2159.72 210.268 2161.91 209.828 Q2164.11 209.365 2166.2 209.365 Q2171.82 209.365 2174.6 212.282 Q2177.38 215.198 2177.38 221.124 Z" fill="#000000" fill-rule="nonzero" fill-opacity="1"></path><path clip-path="url(#clip860)" d="M2201.17 213.971 Q2200.46 213.555 2199.6 213.37 Q2198.77 213.161 2197.75 213.161 Q2194.14 213.161 2192.19 215.522 Q2190.27 217.86 2190.27 222.258 L2190.27 235.916 L2185.99 235.916 L2185.99 209.99 L2190.27 209.99 L2190.27 214.018 Q2191.61 211.657 2193.77 210.522 Q2195.92 209.365 2199 209.365 Q2199.44 209.365 2199.97 209.434 Q2200.5 209.481 2201.15 209.596 L2201.17 213.971 Z" fill="#000000" fill-rule="nonzero" fill-opacity="1"></path><path clip-path="url(#clip860)" d="M2205.64 209.99 L2209.9 209.99 L2209.9 235.916 L2205.64 235.916 L2205.64 209.99 M2205.64 199.897 L2209.9 199.897 L2209.9 205.291 L2205.64 205.291 L2205.64 199.897 Z" fill="#000000" fill-rule="nonzero" fill-opacity="1"></path><path clip-path="url(#clip860)" d="M2223.03 202.629 L2223.03 209.99 L2231.8 209.99 L2231.8 213.3 L2223.03 213.3 L2223.03 227.374 Q2223.03 230.545 2223.88 231.448 Q2224.76 232.351 2227.42 232.351 L2231.8 232.351 L2231.8 235.916 L2227.42 235.916 Q2222.49 235.916 2220.62 234.087 Q2218.74 232.235 2218.74 227.374 L2218.74 213.3 L2215.62 213.3 L2215.62 209.99 L2218.74 209.99 L2218.74 202.629 L2223.03 202.629 Z" fill="#000000" fill-rule="nonzero" fill-opacity="1"></path><path clip-path="url(#clip860)" d="M2248.19 238.323 Q2246.38 242.953 2244.67 244.365 Q2242.96 245.777 2240.09 245.777 L2236.68 245.777 L2236.68 242.212 L2239.18 242.212 Q2240.94 242.212 2241.91 241.379 Q2242.89 240.545 2244.07 237.443 L2244.83 235.499 L2234.34 209.99 L2238.86 209.99 L2246.96 230.268 L2255.06 209.99 L2259.58 209.99 L2248.19 238.323 Z" fill="#000000" fill-rule="nonzero" fill-opacity="1"></path></svg>