<svg xmlns="http://www.w3.org/2000/svg" xmlns:xlink="http://www.w3.org/1999/xlink" width="600" height="400" viewBox="0 0 2400 1600">
<defs>
  <clipPath id="clip100">
    <rect x="0" y="0" width="2400" height="1600"></rect>
  </clipPath>
</defs>
<path clip-path="url(#clip100)" d="M0 1600 L2400 1600 L2400 8.88178e-14 L0 8.88178e-14  Z" fill="#ffffff" fill-rule="evenodd" fill-opacity="1"></path>
<defs>
  <clipPath id="clip101">
    <rect x="480" y="0" width="1681" height="1600"></rect>
  </clipPath>
</defs>
<path clip-path="url(#clip100)" d="M186.274 1486.45 L2352.76 1486.45 L2352.76 47.2441 L186.274 47.2441  Z" fill="#ffffff" fill-rule="evenodd" fill-opacity="1"></path>
<defs>
  <clipPath id="clip102">
    <rect x="186" y="47" width="2167" height="1440"></rect>
  </clipPath>
</defs>
<polyline clip-path="url(#clip102)" style="stroke:#000000; stroke-linecap:round; stroke-linejoin:round; stroke-width:2; stroke-opacity:0.1; fill:none" points="677.874,1486.45 677.874,47.2441 "></polyline>
<polyline clip-path="url(#clip102)" style="stroke:#000000; stroke-linecap:round; stroke-linejoin:round; stroke-width:2; stroke-opacity:0.1; fill:none" points="1215.73,1486.45 1215.73,47.2441 "></polyline>
<polyline clip-path="url(#clip102)" style="stroke:#000000; stroke-linecap:round; stroke-linejoin:round; stroke-width:2; stroke-opacity:0.1; fill:none" points="1753.58,1486.45 1753.58,47.2441 "></polyline>
<polyline clip-path="url(#clip102)" style="stroke:#000000; stroke-linecap:round; stroke-linejoin:round; stroke-width:2; stroke-opacity:0.1; fill:none" points="2291.44,1486.45 2291.44,47.2441 "></polyline>
<polyline clip-path="url(#clip100)" style="stroke:#000000; stroke-linecap:round; stroke-linejoin:round; stroke-width:4; stroke-opacity:1; fill:none" points="186.274,1486.45 2352.76,1486.45 "></polyline>
<polyline clip-path="url(#clip100)" style="stroke:#000000; stroke-linecap:round; stroke-linejoin:round; stroke-width:4; stroke-opacity:1; fill:none" points="677.874,1486.45 677.874,1467.55 "></polyline>
<polyline clip-path="url(#clip100)" style="stroke:#000000; stroke-linecap:round; stroke-linejoin:round; stroke-width:4; stroke-opacity:1; fill:none" points="1215.73,1486.45 1215.73,1467.55 "></polyline>
<polyline clip-path="url(#clip100)" style="stroke:#000000; stroke-linecap:round; stroke-linejoin:round; stroke-width:4; stroke-opacity:1; fill:none" points="1753.58,1486.45 1753.58,1467.55 "></polyline>
<polyline clip-path="url(#clip100)" style="stroke:#000000; stroke-linecap:round; stroke-linejoin:round; stroke-width:4; stroke-opacity:1; fill:none" points="2291.44,1486.45 2291.44,1467.55 "></polyline>
<path clip-path="url(#clip100)" d="M668.152 1514.29 L686.508 1514.29 L686.508 1518.22 L672.434 1518.22 L672.434 1526.7 Q673.453 1526.35 674.471 1526.19 Q675.49 1526 676.508 1526 Q682.295 1526 685.675 1529.17 Q689.054 1532.34 689.054 1537.76 Q689.054 1543.34 685.582 1546.44 Q682.11 1549.52 675.791 1549.52 Q673.615 1549.52 671.346 1549.15 Q669.101 1548.78 666.693 1548.04 L666.693 1543.34 Q668.777 1544.47 670.999 1545.03 Q673.221 1545.58 675.698 1545.58 Q679.703 1545.58 682.041 1543.48 Q684.379 1541.37 684.379 1537.76 Q684.379 1534.15 682.041 1532.04 Q679.703 1529.94 675.698 1529.94 Q673.823 1529.94 671.948 1530.35 Q670.096 1530.77 668.152 1531.65 L668.152 1514.29 Z" fill="#000000" fill-rule="nonzero" fill-opacity="1"></path><path clip-path="url(#clip100)" d="M1190.42 1544.91 L1198.06 1544.91 L1198.06 1518.55 L1189.75 1520.21 L1189.75 1515.95 L1198.01 1514.29 L1202.69 1514.29 L1202.69 1544.91 L1210.32 1544.91 L1210.32 1548.85 L1190.42 1548.85 L1190.42 1544.91 Z" fill="#000000" fill-rule="nonzero" fill-opacity="1"></path><path clip-path="url(#clip100)" d="M1229.77 1517.37 Q1226.16 1517.37 1224.33 1520.93 Q1222.52 1524.47 1222.52 1531.6 Q1222.52 1538.71 1224.33 1542.27 Q1226.16 1545.82 1229.77 1545.82 Q1233.4 1545.82 1235.21 1542.27 Q1237.04 1538.71 1237.04 1531.6 Q1237.04 1524.47 1235.21 1520.93 Q1233.4 1517.37 1229.77 1517.37 M1229.77 1513.66 Q1235.58 1513.66 1238.63 1518.27 Q1241.71 1522.85 1241.71 1531.6 Q1241.71 1540.33 1238.63 1544.94 Q1235.58 1549.52 1229.77 1549.52 Q1223.96 1549.52 1220.88 1544.94 Q1217.82 1540.33 1217.82 1531.6 Q1217.82 1522.85 1220.88 1518.27 Q1223.96 1513.66 1229.77 1513.66 Z" fill="#000000" fill-rule="nonzero" fill-opacity="1"></path><path clip-path="url(#clip100)" d="M1728.77 1544.91 L1736.41 1544.91 L1736.41 1518.55 L1728.1 1520.21 L1728.1 1515.95 L1736.36 1514.29 L1741.04 1514.29 L1741.04 1544.91 L1748.68 1544.91 L1748.68 1548.85 L1728.77 1548.85 L1728.77 1544.91 Z" fill="#000000" fill-rule="nonzero" fill-opacity="1"></path><path clip-path="url(#clip100)" d="M1758.17 1514.29 L1776.52 1514.29 L1776.52 1518.22 L1762.45 1518.22 L1762.45 1526.7 Q1763.47 1526.35 1764.49 1526.19 Q1765.51 1526 1766.52 1526 Q1772.31 1526 1775.69 1529.17 Q1779.07 1532.34 1779.07 1537.76 Q1779.07 1543.34 1775.6 1546.44 Q1772.13 1549.52 1765.81 1549.52 Q1763.63 1549.52 1761.36 1549.15 Q1759.12 1548.78 1756.71 1548.04 L1756.71 1543.34 Q1758.79 1544.47 1761.02 1545.03 Q1763.24 1545.58 1765.71 1545.58 Q1769.72 1545.58 1772.06 1543.48 Q1774.39 1541.37 1774.39 1537.76 Q1774.39 1534.15 1772.06 1532.04 Q1769.72 1529.94 1765.71 1529.94 Q1763.84 1529.94 1761.96 1530.35 Q1760.11 1530.77 1758.17 1531.65 L1758.17 1514.29 Z" fill="#000000" fill-rule="nonzero" fill-opacity="1"></path><path clip-path="url(#clip100)" d="M2270.21 1544.91 L2286.53 1544.91 L2286.53 1548.85 L2264.59 1548.85 L2264.59 1544.91 Q2267.25 1542.16 2271.83 1537.53 Q2276.44 1532.88 2277.62 1531.53 Q2279.87 1529.01 2280.75 1527.27 Q2281.65 1525.51 2281.65 1523.82 Q2281.65 1521.07 2279.7 1519.33 Q2277.78 1517.6 2274.68 1517.6 Q2272.48 1517.6 2270.03 1518.36 Q2267.6 1519.13 2264.82 1520.68 L2264.82 1515.95 Q2267.64 1514.82 2270.1 1514.24 Q2272.55 1513.66 2274.59 1513.66 Q2279.96 1513.66 2283.15 1516.35 Q2286.35 1519.03 2286.35 1523.52 Q2286.35 1525.65 2285.54 1527.57 Q2284.75 1529.47 2282.64 1532.07 Q2282.07 1532.74 2278.96 1535.95 Q2275.86 1539.15 2270.21 1544.91 Z" fill="#000000" fill-rule="nonzero" fill-opacity="1"></path><path clip-path="url(#clip100)" d="M2306.35 1517.37 Q2302.74 1517.37 2300.91 1520.93 Q2299.1 1524.47 2299.1 1531.6 Q2299.1 1538.71 2300.91 1542.27 Q2302.74 1545.82 2306.35 1545.82 Q2309.98 1545.82 2311.79 1542.27 Q2313.62 1538.71 2313.62 1531.6 Q2313.62 1524.47 2311.79 1520.93 Q2309.98 1517.37 2306.35 1517.37 M2306.35 1513.66 Q2312.16 1513.66 2315.21 1518.27 Q2318.29 1522.85 2318.29 1531.6 Q2318.29 1540.33 2315.21 1544.94 Q2312.16 1549.52 2306.35 1549.52 Q2300.54 1549.52 2297.46 1544.94 Q2294.4 1540.33 2294.4 1531.6 Q2294.4 1522.85 2297.46 1518.27 Q2300.54 1513.66 2306.35 1513.66 Z" fill="#000000" fill-rule="nonzero" fill-opacity="1"></path><polyline clip-path="url(#clip102)" style="stroke:#000000; stroke-linecap:round; stroke-linejoin:round; stroke-width:2; stroke-opacity:0.1; fill:none" points="186.274,1406.48 2352.76,1406.48 "></polyline>
<polyline clip-path="url(#clip102)" style="stroke:#000000; stroke-linecap:round; stroke-linejoin:round; stroke-width:2; stroke-opacity:0.1; fill:none" points="186.274,1176.4 2352.76,1176.4 "></polyline>
<polyline clip-path="url(#clip102)" style="stroke:#000000; stroke-linecap:round; stroke-linejoin:round; stroke-width:2; stroke-opacity:0.1; fill:none" points="186.274,946.323 2352.76,946.323 "></polyline>
<polyline clip-path="url(#clip102)" style="stroke:#000000; stroke-linecap:round; stroke-linejoin:round; stroke-width:2; stroke-opacity:0.1; fill:none" points="186.274,716.245 2352.76,716.245 "></polyline>
<polyline clip-path="url(#clip102)" style="stroke:#000000; stroke-linecap:round; stroke-linejoin:round; stroke-width:2; stroke-opacity:0.1; fill:none" points="186.274,486.167 2352.76,486.167 "></polyline>
<polyline clip-path="url(#clip102)" style="stroke:#000000; stroke-linecap:round; stroke-linejoin:round; stroke-width:2; stroke-opacity:0.1; fill:none" points="186.274,256.09 2352.76,256.09 "></polyline>
<polyline clip-path="url(#clip100)" style="stroke:#000000; stroke-linecap:round; stroke-linejoin:round; stroke-width:4; stroke-opacity:1; fill:none" points="186.274,1486.45 186.274,47.2441 "></polyline>
<polyline clip-path="url(#clip100)" style="stroke:#000000; stroke-linecap:round; stroke-linejoin:round; stroke-width:4; stroke-opacity:1; fill:none" points="186.274,1406.48 205.172,1406.48 "></polyline>
<polyline clip-path="url(#clip100)" style="stroke:#000000; stroke-linecap:round; stroke-linejoin:round; stroke-width:4; stroke-opacity:1; fill:none" points="186.274,1176.4 205.172,1176.4 "></polyline>
<polyline clip-path="url(#clip100)" style="stroke:#000000; stroke-linecap:round; stroke-linejoin:round; stroke-width:4; stroke-opacity:1; fill:none" points="186.274,946.323 205.172,946.323 "></polyline>
<polyline clip-path="url(#clip100)" style="stroke:#000000; stroke-linecap:round; stroke-linejoin:round; stroke-width:4; stroke-opacity:1; fill:none" points="186.274,716.245 205.172,716.245 "></polyline>
<polyline clip-path="url(#clip100)" style="stroke:#000000; stroke-linecap:round; stroke-linejoin:round; stroke-width:4; stroke-opacity:1; fill:none" points="186.274,486.167 205.172,486.167 "></polyline>
<polyline clip-path="url(#clip100)" style="stroke:#000000; stroke-linecap:round; stroke-linejoin:round; stroke-width:4; stroke-opacity:1; fill:none" points="186.274,256.09 205.172,256.09 "></polyline>
<path clip-path="url(#clip100)" d="M62.9365 1392.28 Q59.3254 1392.28 57.4967 1395.84 Q55.6912 1399.38 55.6912 1406.51 Q55.6912 1413.62 57.4967 1417.18 Q59.3254 1420.73 62.9365 1420.73 Q66.5707 1420.73 68.3763 1417.18 Q70.205 1413.62 70.205 1406.51 Q70.205 1399.38 68.3763 1395.84 Q66.5707 1392.28 62.9365 1392.28 M62.9365 1388.57 Q68.7467 1388.57 71.8022 1393.18 Q74.8809 1397.76 74.8809 1406.51 Q74.8809 1415.24 71.8022 1419.85 Q68.7467 1424.43 62.9365 1424.43 Q57.1264 1424.43 54.0477 1419.85 Q50.9921 1415.24 50.9921 1406.51 Q50.9921 1397.76 54.0477 1393.18 Q57.1264 1388.57 62.9365 1388.57 Z" fill="#000000" fill-rule="nonzero" fill-opacity="1"></path><path clip-path="url(#clip100)" d="M83.0984 1417.88 L87.9827 1417.88 L87.9827 1423.76 L83.0984 1423.76 L83.0984 1417.88 Z" fill="#000000" fill-rule="nonzero" fill-opacity="1"></path><path clip-path="url(#clip100)" d="M98.2141 1389.2 L116.57 1389.2 L116.57 1393.13 L102.496 1393.13 L102.496 1401.61 Q103.515 1401.26 104.534 1401.1 Q105.552 1400.91 106.571 1400.91 Q112.358 1400.91 115.737 1404.08 Q119.117 1407.25 119.117 1412.67 Q119.117 1418.25 115.645 1421.35 Q112.172 1424.43 105.853 1424.43 Q103.677 1424.43 101.409 1424.06 Q99.1632 1423.69 96.7558 1422.95 L96.7558 1418.25 Q98.8391 1419.38 101.061 1419.94 Q103.284 1420.49 105.76 1420.49 Q109.765 1420.49 112.103 1418.39 Q114.441 1416.28 114.441 1412.67 Q114.441 1409.06 112.103 1406.95 Q109.765 1404.85 105.76 1404.85 Q103.885 1404.85 102.01 1405.26 Q100.159 1405.68 98.2141 1406.56 L98.2141 1389.2 Z" fill="#000000" fill-rule="nonzero" fill-opacity="1"></path><path clip-path="url(#clip100)" d="M138.33 1392.28 Q134.719 1392.28 132.89 1395.84 Q131.084 1399.38 131.084 1406.51 Q131.084 1413.62 132.89 1417.18 Q134.719 1420.73 138.33 1420.73 Q141.964 1420.73 143.769 1417.18 Q145.598 1413.62 145.598 1406.51 Q145.598 1399.38 143.769 1395.84 Q141.964 1392.28 138.33 1392.28 M138.33 1388.57 Q144.14 1388.57 147.195 1393.18 Q150.274 1397.76 150.274 1406.51 Q150.274 1415.24 147.195 1419.85 Q144.14 1424.43 138.33 1424.43 Q132.519 1424.43 129.441 1419.85 Q126.385 1415.24 126.385 1406.51 Q126.385 1397.76 129.441 1393.18 Q132.519 1388.57 138.33 1388.57 Z" fill="#000000" fill-rule="nonzero" fill-opacity="1"></path><path clip-path="url(#clip100)" d="M63.9319 1162.2 Q60.3208 1162.2 58.4921 1165.76 Q56.6865 1169.31 56.6865 1176.44 Q56.6865 1183.54 58.4921 1187.11 Q60.3208 1190.65 63.9319 1190.65 Q67.5661 1190.65 69.3717 1187.11 Q71.2004 1183.54 71.2004 1176.44 Q71.2004 1169.31 69.3717 1165.76 Q67.5661 1162.2 63.9319 1162.2 M63.9319 1158.5 Q69.742 1158.5 72.7976 1163.1 Q75.8763 1167.69 75.8763 1176.44 Q75.8763 1185.16 72.7976 1189.77 Q69.742 1194.35 63.9319 1194.35 Q58.1217 1194.35 55.043 1189.77 Q51.9875 1185.16 51.9875 1176.44 Q51.9875 1167.69 55.043 1163.1 Q58.1217 1158.5 63.9319 1158.5 Z" fill="#000000" fill-rule="nonzero" fill-opacity="1"></path><path clip-path="url(#clip100)" d="M84.0938 1187.8 L88.978 1187.8 L88.978 1193.68 L84.0938 1193.68 L84.0938 1187.8 Z" fill="#000000" fill-rule="nonzero" fill-opacity="1"></path><path clip-path="url(#clip100)" d="M99.2095 1159.12 L117.566 1159.12 L117.566 1163.06 L103.492 1163.06 L103.492 1171.53 Q104.51 1171.18 105.529 1171.02 Q106.547 1170.83 107.566 1170.83 Q113.353 1170.83 116.733 1174 Q120.112 1177.18 120.112 1182.59 Q120.112 1188.17 116.64 1191.27 Q113.168 1194.35 106.848 1194.35 Q104.672 1194.35 102.404 1193.98 Q100.159 1193.61 97.7511 1192.87 L97.7511 1188.17 Q99.8345 1189.31 102.057 1189.86 Q104.279 1190.42 106.756 1190.42 Q110.76 1190.42 113.098 1188.31 Q115.436 1186.2 115.436 1182.59 Q115.436 1178.98 113.098 1176.88 Q110.76 1174.77 106.756 1174.77 Q104.881 1174.77 103.006 1175.19 Q101.154 1175.6 99.2095 1176.48 L99.2095 1159.12 Z" fill="#000000" fill-rule="nonzero" fill-opacity="1"></path><path clip-path="url(#clip100)" d="M129.371 1159.12 L147.728 1159.12 L147.728 1163.06 L133.654 1163.06 L133.654 1171.53 Q134.672 1171.18 135.691 1171.02 Q136.709 1170.83 137.728 1170.83 Q143.515 1170.83 146.894 1174 Q150.274 1177.18 150.274 1182.59 Q150.274 1188.17 146.802 1191.27 Q143.33 1194.35 137.01 1194.35 Q134.834 1194.35 132.566 1193.98 Q130.32 1193.61 127.913 1192.87 L127.913 1188.17 Q129.996 1189.31 132.219 1189.86 Q134.441 1190.42 136.918 1190.42 Q140.922 1190.42 143.26 1188.31 Q145.598 1186.2 145.598 1182.59 Q145.598 1178.98 143.26 1176.88 Q140.922 1174.77 136.918 1174.77 Q135.043 1174.77 133.168 1175.19 Q131.316 1175.6 129.371 1176.48 L129.371 1159.12 Z" fill="#000000" fill-rule="nonzero" fill-opacity="1"></path><path clip-path="url(#clip100)" d="M62.9365 932.122 Q59.3254 932.122 57.4967 935.686 Q55.6912 939.228 55.6912 946.358 Q55.6912 953.464 57.4967 957.029 Q59.3254 960.571 62.9365 960.571 Q66.5707 960.571 68.3763 957.029 Q70.205 953.464 70.205 946.358 Q70.205 939.228 68.3763 935.686 Q66.5707 932.122 62.9365 932.122 M62.9365 928.418 Q68.7467 928.418 71.8022 933.024 Q74.8809 937.608 74.8809 946.358 Q74.8809 955.084 71.8022 959.691 Q68.7467 964.274 62.9365 964.274 Q57.1264 964.274 54.0477 959.691 Q50.9921 955.084 50.9921 946.358 Q50.9921 937.608 54.0477 933.024 Q57.1264 928.418 62.9365 928.418 Z" fill="#000000" fill-rule="nonzero" fill-opacity="1"></path><path clip-path="url(#clip100)" d="M83.0984 957.723 L87.9827 957.723 L87.9827 963.603 L83.0984 963.603 L83.0984 957.723 Z" fill="#000000" fill-rule="nonzero" fill-opacity="1"></path><path clip-path="url(#clip100)" d="M108.746 944.459 Q105.598 944.459 103.746 946.612 Q101.918 948.765 101.918 952.515 Q101.918 956.242 103.746 958.418 Q105.598 960.571 108.746 960.571 Q111.895 960.571 113.723 958.418 Q115.575 956.242 115.575 952.515 Q115.575 948.765 113.723 946.612 Q111.895 944.459 108.746 944.459 M118.029 929.807 L118.029 934.066 Q116.27 933.233 114.464 932.793 Q112.682 932.353 110.922 932.353 Q106.293 932.353 103.839 935.478 Q101.409 938.603 101.061 944.922 Q102.427 942.909 104.487 941.844 Q106.547 940.756 109.024 940.756 Q114.233 940.756 117.242 943.927 Q120.274 947.075 120.274 952.515 Q120.274 957.839 117.126 961.057 Q113.978 964.274 108.746 964.274 Q102.751 964.274 99.5798 959.691 Q96.4085 955.084 96.4085 946.358 Q96.4085 938.163 100.297 933.302 Q104.186 928.418 110.737 928.418 Q112.496 928.418 114.279 928.765 Q116.084 929.112 118.029 929.807 Z" fill="#000000" fill-rule="nonzero" fill-opacity="1"></path><path clip-path="url(#clip100)" d="M138.33 932.122 Q134.719 932.122 132.89 935.686 Q131.084 939.228 131.084 946.358 Q131.084 953.464 132.89 957.029 Q134.719 960.571 138.33 960.571 Q141.964 960.571 143.769 957.029 Q145.598 953.464 145.598 946.358 Q145.598 939.228 143.769 935.686 Q141.964 932.122 138.33 932.122 M138.33 928.418 Q144.14 928.418 147.195 933.024 Q150.274 937.608 150.274 946.358 Q150.274 955.084 147.195 959.691 Q144.14 964.274 138.33 964.274 Q132.519 964.274 129.441 959.691 Q126.385 955.084 126.385 946.358 Q126.385 937.608 129.441 933.024 Q132.519 928.418 138.33 928.418 Z" fill="#000000" fill-rule="nonzero" fill-opacity="1"></path><path clip-path="url(#clip100)" d="M63.9319 702.044 Q60.3208 702.044 58.4921 705.609 Q56.6865 709.15 56.6865 716.28 Q56.6865 723.386 58.4921 726.951 Q60.3208 730.493 63.9319 730.493 Q67.5661 730.493 69.3717 726.951 Q71.2004 723.386 71.2004 716.28 Q71.2004 709.15 69.3717 705.609 Q67.5661 702.044 63.9319 702.044 M63.9319 698.34 Q69.742 698.34 72.7976 702.947 Q75.8763 707.53 75.8763 716.28 Q75.8763 725.007 72.7976 729.613 Q69.742 734.196 63.9319 734.196 Q58.1217 734.196 55.043 729.613 Q51.9875 725.007 51.9875 716.28 Q51.9875 707.53 55.043 702.947 Q58.1217 698.34 63.9319 698.34 Z" fill="#000000" fill-rule="nonzero" fill-opacity="1"></path><path clip-path="url(#clip100)" d="M84.0938 727.646 L88.978 727.646 L88.978 733.525 L84.0938 733.525 L84.0938 727.646 Z" fill="#000000" fill-rule="nonzero" fill-opacity="1"></path><path clip-path="url(#clip100)" d="M109.742 714.382 Q106.594 714.382 104.742 716.535 Q102.913 718.687 102.913 722.437 Q102.913 726.164 104.742 728.34 Q106.594 730.493 109.742 730.493 Q112.89 730.493 114.719 728.34 Q116.57 726.164 116.57 722.437 Q116.57 718.687 114.719 716.535 Q112.89 714.382 109.742 714.382 M119.024 699.729 L119.024 703.988 Q117.265 703.155 115.459 702.715 Q113.677 702.275 111.918 702.275 Q107.288 702.275 104.834 705.4 Q102.404 708.525 102.057 714.845 Q103.422 712.831 105.483 711.766 Q107.543 710.678 110.02 710.678 Q115.228 710.678 118.237 713.849 Q121.27 716.998 121.27 722.437 Q121.27 727.761 118.121 730.979 Q114.973 734.196 109.742 734.196 Q103.746 734.196 100.575 729.613 Q97.4039 725.007 97.4039 716.28 Q97.4039 708.086 101.293 703.224 Q105.182 698.34 111.733 698.34 Q113.492 698.34 115.274 698.687 Q117.08 699.035 119.024 699.729 Z" fill="#000000" fill-rule="nonzero" fill-opacity="1"></path><path clip-path="url(#clip100)" d="M129.371 698.965 L147.728 698.965 L147.728 702.9 L133.654 702.9 L133.654 711.373 Q134.672 711.025 135.691 710.863 Q136.709 710.678 137.728 710.678 Q143.515 710.678 146.894 713.849 Q150.274 717.021 150.274 722.437 Q150.274 728.016 146.802 731.118 Q143.33 734.196 137.01 734.196 Q134.834 734.196 132.566 733.826 Q130.32 733.456 127.913 732.715 L127.913 728.016 Q129.996 729.15 132.219 729.706 Q134.441 730.261 136.918 730.261 Q140.922 730.261 143.26 728.155 Q145.598 726.048 145.598 722.437 Q145.598 718.826 143.26 716.72 Q140.922 714.613 136.918 714.613 Q135.043 714.613 133.168 715.03 Q131.316 715.447 129.371 716.326 L129.371 698.965 Z" fill="#000000" fill-rule="nonzero" fill-opacity="1"></path><path clip-path="url(#clip100)" d="M62.9365 471.966 Q59.3254 471.966 57.4967 475.531 Q55.6912 479.073 55.6912 486.202 Q55.6912 493.309 57.4967 496.873 Q59.3254 500.415 62.9365 500.415 Q66.5707 500.415 68.3763 496.873 Q70.205 493.309 70.205 486.202 Q70.205 479.073 68.3763 475.531 Q66.5707 471.966 62.9365 471.966 M62.9365 468.262 Q68.7467 468.262 71.8022 472.869 Q74.8809 477.452 74.8809 486.202 Q74.8809 494.929 71.8022 499.535 Q68.7467 504.119 62.9365 504.119 Q57.1264 504.119 54.0477 499.535 Q50.9921 494.929 50.9921 486.202 Q50.9921 477.452 54.0477 472.869 Q57.1264 468.262 62.9365 468.262 Z" fill="#000000" fill-rule="nonzero" fill-opacity="1"></path><path clip-path="url(#clip100)" d="M83.0984 497.568 L87.9827 497.568 L87.9827 503.447 L83.0984 503.447 L83.0984 497.568 Z" fill="#000000" fill-rule="nonzero" fill-opacity="1"></path><path clip-path="url(#clip100)" d="M96.9872 468.887 L119.209 468.887 L119.209 470.878 L106.663 503.447 L101.779 503.447 L113.584 472.823 L96.9872 472.823 L96.9872 468.887 Z" fill="#000000" fill-rule="nonzero" fill-opacity="1"></path><path clip-path="url(#clip100)" d="M138.33 471.966 Q134.719 471.966 132.89 475.531 Q131.084 479.073 131.084 486.202 Q131.084 493.309 132.89 496.873 Q134.719 500.415 138.33 500.415 Q141.964 500.415 143.769 496.873 Q145.598 493.309 145.598 486.202 Q145.598 479.073 143.769 475.531 Q141.964 471.966 138.33 471.966 M138.33 468.262 Q144.14 468.262 147.195 472.869 Q150.274 477.452 150.274 486.202 Q150.274 494.929 147.195 499.535 Q144.14 504.119 138.33 504.119 Q132.519 504.119 129.441 499.535 Q126.385 494.929 126.385 486.202 Q126.385 477.452 129.441 472.869 Q132.519 468.262 138.33 468.262 Z" fill="#000000" fill-rule="nonzero" fill-opacity="1"></path><path clip-path="url(#clip100)" d="M63.9319 241.888 Q60.3208 241.888 58.4921 245.453 Q56.6865 248.995 56.6865 256.125 Q56.6865 263.231 58.4921 266.796 Q60.3208 270.337 63.9319 270.337 Q67.5661 270.337 69.3717 266.796 Q71.2004 263.231 71.2004 256.125 Q71.2004 248.995 69.3717 245.453 Q67.5661 241.888 63.9319 241.888 M63.9319 238.185 Q69.742 238.185 72.7976 242.791 Q75.8763 247.375 75.8763 256.125 Q75.8763 264.851 72.7976 269.458 Q69.742 274.041 63.9319 274.041 Q58.1217 274.041 55.043 269.458 Q51.9875 264.851 51.9875 256.125 Q51.9875 247.375 55.043 242.791 Q58.1217 238.185 63.9319 238.185 Z" fill="#000000" fill-rule="nonzero" fill-opacity="1"></path><path clip-path="url(#clip100)" d="M84.0938 267.49 L88.978 267.49 L88.978 273.37 L84.0938 273.37 L84.0938 267.49 Z" fill="#000000" fill-rule="nonzero" fill-opacity="1"></path><path clip-path="url(#clip100)" d="M97.9826 238.81 L120.205 238.81 L120.205 240.801 L107.658 273.37 L102.774 273.37 L114.58 242.745 L97.9826 242.745 L97.9826 238.81 Z" fill="#000000" fill-rule="nonzero" fill-opacity="1"></path><path clip-path="url(#clip100)" d="M129.371 238.81 L147.728 238.81 L147.728 242.745 L133.654 242.745 L133.654 251.217 Q134.672 250.87 135.691 250.708 Q136.709 250.523 137.728 250.523 Q143.515 250.523 146.894 253.694 Q150.274 256.865 150.274 262.282 Q150.274 267.861 146.802 270.962 Q143.33 274.041 137.01 274.041 Q134.834 274.041 132.566 273.671 Q130.32 273.3 127.913 272.56 L127.913 267.861 Q129.996 268.995 132.219 269.55 Q134.441 270.106 136.918 270.106 Q140.922 270.106 143.26 267.999 Q145.598 265.893 145.598 262.282 Q145.598 258.671 143.26 256.564 Q140.922 254.458 136.918 254.458 Q135.043 254.458 133.168 254.875 Q131.316 255.291 129.371 256.171 L129.371 238.81 Z" fill="#000000" fill-rule="nonzero" fill-opacity="1"></path><polyline clip-path="url(#clip102)" style="stroke:#009af9; stroke-linecap:round; stroke-linejoin:round; stroke-width:4; stroke-opacity:1; fill:none" points="247.59,87.9763 355.161,1140.36 462.732,1263.1 570.303,1317.32 677.874,1340.05 785.445,1351.52 893.016,1360.2 1000.59,1366.26 1108.16,1373.57 1215.73,1385.36 1323.3,1390.81 1430.87,1400.03 1538.44,1400.52 1646.01,1415.05 1753.58,1418.11 1861.16,1425.89 1968.73,1433.56 2076.3,1436.28 2183.87,1437.95 2291.44,1445.72 "></polyline>
<path clip-path="url(#clip100)" d="M2011.46 198.898 L2280.54 198.898 L2280.54 95.2176 L2011.46 95.2176  Z" fill="#ffffff" fill-rule="evenodd" fill-opacity="1"></path>
<polyline clip-path="url(#clip100)" style="stroke:#000000; stroke-linecap:round; stroke-linejoin:round; stroke-width:4; stroke-opacity:1; fill:none" points="2011.46,198.898 2280.54,198.898 2280.54,95.2176 2011.46,95.2176 2011.46,198.898 "></polyline>
<polyline clip-path="url(#clip100)" style="stroke:#009af9; stroke-linecap:round; stroke-linejoin:round; stroke-width:4; stroke-opacity:1; fill:none" points="2035.53,147.058 2179.97,147.058 "></polyline>
<path clip-path="url(#clip100)" d="M2217.88 166.745 Q2216.07 171.375 2214.36 172.787 Q2212.65 174.199 2209.78 174.199 L2206.38 174.199 L2206.38 170.634 L2208.88 170.634 Q2210.63 170.634 2211.61 169.8 Q2212.58 168.967 2213.76 165.865 L2214.52 163.921 L2204.04 138.412 L2208.55 138.412 L2216.65 158.689 L2224.76 138.412 L2229.27 138.412 L2217.88 166.745 Z" fill="#000000" fill-rule="nonzero" fill-opacity="1"></path><path clip-path="url(#clip100)" d="M2236.56 160.402 L2244.2 160.402 L2244.2 134.037 L2235.89 135.703 L2235.89 131.444 L2244.15 129.778 L2248.83 129.778 L2248.83 160.402 L2256.47 160.402 L2256.47 164.338 L2236.56 164.338 L2236.56 160.402 Z" fill="#000000" fill-rule="nonzero" fill-opacity="1"></path></svg>