<?xml version="1.0" encoding="utf-8"?>
<svg xmlns="http://www.w3.org/2000/svg" xmlns:xlink="http://www.w3.org/1999/xlink" width="600" height="400" viewBox="0 0 2400 1600">
<defs>
  <clipPath id="clip040">
    <rect x="0" y="0" width="2400" height="1600"/>
  </clipPath>
</defs>
<path clip-path="url(#clip040)" d="M0 1600 L2400 1600 L2400 8.88178e-14 L0 8.88178e-14  Z" fill="#ffffff" fill-rule="evenodd" fill-opacity="1"/>
<defs>
  <clipPath id="clip041">
    <rect x="480" y="0" width="1681" height="1600"/>
  </clipPath>
</defs>
<path clip-path="url(#clip040)" d="M249.704 1423.18 L2352.76 1423.18 L2352.76 123.472 L249.704 123.472  Z" fill="#ffffff" fill-rule="evenodd" fill-opacity="1"/>
<defs>
  <clipPath id="clip042">
    <rect x="249" y="123" width="2104" height="1301"/>
  </clipPath>
</defs>
<polyline clip-path="url(#clip042)" style="stroke:#000000; stroke-linecap:round; stroke-linejoin:round; stroke-width:2; stroke-opacity:0.1; fill:none" points="309.224,1423.18 309.224,123.472 "/>
<polyline clip-path="url(#clip042)" style="stroke:#000000; stroke-linecap:round; stroke-linejoin:round; stroke-width:2; stroke-opacity:0.1; fill:none" points="970.561,1423.18 970.561,123.472 "/>
<polyline clip-path="url(#clip042)" style="stroke:#000000; stroke-linecap:round; stroke-linejoin:round; stroke-width:2; stroke-opacity:0.1; fill:none" points="1631.9,1423.18 1631.9,123.472 "/>
<polyline clip-path="url(#clip042)" style="stroke:#000000; stroke-linecap:round; stroke-linejoin:round; stroke-width:2; stroke-opacity:0.1; fill:none" points="2293.24,1423.18 2293.24,123.472 "/>
<polyline clip-path="url(#clip040)" style="stroke:#000000; stroke-linecap:round; stroke-linejoin:round; stroke-width:4; stroke-opacity:1; fill:none" points="249.704,1423.18 2352.76,1423.18 "/>
<polyline clip-path="url(#clip040)" style="stroke:#000000; stroke-linecap:round; stroke-linejoin:round; stroke-width:4; stroke-opacity:1; fill:none" points="309.224,1423.18 309.224,1404.28 "/>
<polyline clip-path="url(#clip040)" style="stroke:#000000; stroke-linecap:round; stroke-linejoin:round; stroke-width:4; stroke-opacity:1; fill:none" points="970.561,1423.18 970.561,1404.28 "/>
<polyline clip-path="url(#clip040)" style="stroke:#000000; stroke-linecap:round; stroke-linejoin:round; stroke-width:4; stroke-opacity:1; fill:none" points="1631.9,1423.18 1631.9,1404.28 "/>
<polyline clip-path="url(#clip040)" style="stroke:#000000; stroke-linecap:round; stroke-linejoin:round; stroke-width:4; stroke-opacity:1; fill:none" points="2293.24,1423.18 2293.24,1404.28 "/>
<path clip-path="url(#clip040)" d="M299.606 1481.64 L307.245 1481.64 L307.245 1455.28 L298.935 1456.95 L298.935 1452.69 L307.199 1451.02 L311.875 1451.02 L311.875 1481.64 L319.514 1481.64 L319.514 1485.58 L299.606 1485.58 L299.606 1481.64 Z" fill="#000000" fill-rule="nonzero" fill-opacity="1" /><path clip-path="url(#clip040)" d="M965.214 1481.64 L981.534 1481.64 L981.534 1485.58 L959.589 1485.58 L959.589 1481.64 Q962.251 1478.89 966.835 1474.26 Q971.441 1469.61 972.622 1468.27 Q974.867 1465.74 975.747 1464.01 Q976.649 1462.25 976.649 1460.56 Q976.649 1457.8 974.705 1456.07 Q972.784 1454.33 969.682 1454.33 Q967.483 1454.33 965.029 1455.09 Q962.599 1455.86 959.821 1457.41 L959.821 1452.69 Q962.645 1451.55 965.099 1450.97 Q967.552 1450.39 969.589 1450.39 Q974.96 1450.39 978.154 1453.08 Q981.348 1455.77 981.348 1460.26 Q981.348 1462.39 980.538 1464.31 Q979.751 1466.2 977.645 1468.8 Q977.066 1469.47 973.964 1472.69 Q970.862 1475.88 965.214 1481.64 Z" fill="#000000" fill-rule="nonzero" fill-opacity="1" /><path clip-path="url(#clip040)" d="M1636.15 1466.95 Q1639.5 1467.66 1641.38 1469.93 Q1643.28 1472.2 1643.28 1475.53 Q1643.28 1480.65 1639.76 1483.45 Q1636.24 1486.25 1629.76 1486.25 Q1627.58 1486.25 1625.27 1485.81 Q1622.97 1485.39 1620.52 1484.54 L1620.52 1480.02 Q1622.47 1481.16 1624.78 1481.74 Q1627.1 1482.32 1629.62 1482.32 Q1634.02 1482.32 1636.31 1480.58 Q1638.62 1478.84 1638.62 1475.53 Q1638.62 1472.48 1636.47 1470.77 Q1634.34 1469.03 1630.52 1469.03 L1626.49 1469.03 L1626.49 1465.19 L1630.71 1465.19 Q1634.16 1465.19 1635.98 1463.82 Q1637.81 1462.43 1637.81 1459.84 Q1637.81 1457.18 1635.91 1455.77 Q1634.04 1454.33 1630.52 1454.33 Q1628.6 1454.33 1626.4 1454.75 Q1624.2 1455.16 1621.56 1456.04 L1621.56 1451.88 Q1624.22 1451.14 1626.54 1450.77 Q1628.88 1450.39 1630.94 1450.39 Q1636.26 1450.39 1639.36 1452.83 Q1642.47 1455.23 1642.47 1459.35 Q1642.47 1462.22 1640.82 1464.21 Q1639.18 1466.18 1636.15 1466.95 Z" fill="#000000" fill-rule="nonzero" fill-opacity="1" /><path clip-path="url(#clip040)" d="M2296.24 1455.09 L2284.44 1473.54 L2296.24 1473.54 L2296.24 1455.09 M2295.02 1451.02 L2300.9 1451.02 L2300.9 1473.54 L2305.83 1473.54 L2305.83 1477.43 L2300.9 1477.43 L2300.9 1485.58 L2296.24 1485.58 L2296.24 1477.43 L2280.64 1477.43 L2280.64 1472.92 L2295.02 1451.02 Z" fill="#000000" fill-rule="nonzero" fill-opacity="1" /><path clip-path="url(#clip040)" d="M1005.45 1520.52 L1011.88 1520.52 L1011.88 1562.63 L1035.02 1562.63 L1035.02 1568.04 L1005.45 1568.04 L1005.45 1520.52 Z" fill="#000000" fill-rule="nonzero" fill-opacity="1" /><path clip-path="url(#clip040)" d="M1057.71 1550.12 Q1050.61 1550.12 1047.87 1551.75 Q1045.14 1553.37 1045.14 1557.29 Q1045.14 1560.4 1047.17 1562.25 Q1049.24 1564.07 1052.78 1564.07 Q1057.65 1564.07 1060.57 1560.63 Q1063.53 1557.16 1063.53 1551.43 L1063.53 1550.12 L1057.71 1550.12 M1069.39 1547.71 L1069.39 1568.04 L1063.53 1568.04 L1063.53 1562.63 Q1061.53 1565.88 1058.54 1567.44 Q1055.55 1568.97 1051.22 1568.97 Q1045.74 1568.97 1042.5 1565.91 Q1039.28 1562.82 1039.28 1557.67 Q1039.28 1551.65 1043.29 1548.6 Q1047.33 1545.54 1055.32 1545.54 L1063.53 1545.54 L1063.53 1544.97 Q1063.53 1540.93 1060.86 1538.73 Q1058.22 1536.5 1053.41 1536.5 Q1050.36 1536.5 1047.46 1537.23 Q1044.56 1537.97 1041.89 1539.43 L1041.89 1534.02 Q1045.11 1532.78 1048.13 1532.17 Q1051.15 1531.54 1054.02 1531.54 Q1061.75 1531.54 1065.57 1535.55 Q1069.39 1539.56 1069.39 1547.71 Z" fill="#000000" fill-rule="nonzero" fill-opacity="1" /><path clip-path="url(#clip040)" d="M1087.25 1522.27 L1087.25 1532.4 L1099.31 1532.4 L1099.31 1536.95 L1087.25 1536.95 L1087.25 1556.3 Q1087.25 1560.66 1088.42 1561.9 Q1089.63 1563.14 1093.29 1563.14 L1099.31 1563.14 L1099.31 1568.04 L1093.29 1568.04 Q1086.51 1568.04 1083.94 1565.53 Q1081.36 1562.98 1081.36 1556.3 L1081.36 1536.95 L1077.06 1536.95 L1077.06 1532.4 L1081.36 1532.4 L1081.36 1522.27 L1087.25 1522.27 Z" fill="#000000" fill-rule="nonzero" fill-opacity="1" /><path clip-path="url(#clip040)" d="M1137.5 1548.76 L1137.5 1551.62 L1110.58 1551.62 Q1110.96 1557.67 1114.21 1560.85 Q1117.48 1564 1123.31 1564 Q1126.68 1564 1129.83 1563.17 Q1133.02 1562.35 1136.14 1560.69 L1136.14 1566.23 Q1132.98 1567.57 1129.67 1568.27 Q1126.36 1568.97 1122.96 1568.97 Q1114.43 1568.97 1109.43 1564 Q1104.47 1559.04 1104.47 1550.57 Q1104.47 1541.82 1109.18 1536.69 Q1113.92 1531.54 1121.94 1531.54 Q1129.13 1531.54 1133.3 1536.18 Q1137.5 1540.8 1137.5 1548.76 M1131.65 1547.04 Q1131.58 1542.23 1128.94 1539.37 Q1126.33 1536.5 1122 1536.5 Q1117.1 1536.5 1114.14 1539.27 Q1111.21 1542.04 1110.77 1547.07 L1131.65 1547.04 Z" fill="#000000" fill-rule="nonzero" fill-opacity="1" /><path clip-path="url(#clip040)" d="M1176.75 1546.53 L1176.75 1568.04 L1170.89 1568.04 L1170.89 1546.72 Q1170.89 1541.66 1168.92 1539.14 Q1166.95 1536.63 1163 1536.63 Q1158.26 1536.63 1155.52 1539.65 Q1152.78 1542.68 1152.78 1547.9 L1152.78 1568.04 L1146.89 1568.04 L1146.89 1532.4 L1152.78 1532.4 L1152.78 1537.93 Q1154.88 1534.72 1157.72 1533.13 Q1160.58 1531.54 1164.3 1531.54 Q1170.45 1531.54 1173.6 1535.36 Q1176.75 1539.14 1176.75 1546.53 Z" fill="#000000" fill-rule="nonzero" fill-opacity="1" /><path clip-path="url(#clip040)" d="M1194.22 1522.27 L1194.22 1532.4 L1206.29 1532.4 L1206.29 1536.95 L1194.22 1536.95 L1194.22 1556.3 Q1194.22 1560.66 1195.4 1561.9 Q1196.61 1563.14 1200.27 1563.14 L1206.29 1563.14 L1206.29 1568.04 L1200.27 1568.04 Q1193.49 1568.04 1190.91 1565.53 Q1188.33 1562.98 1188.33 1556.3 L1188.33 1536.95 L1184.04 1536.95 L1184.04 1532.4 L1188.33 1532.4 L1188.33 1522.27 L1194.22 1522.27 Z" fill="#000000" fill-rule="nonzero" fill-opacity="1" /><path clip-path="url(#clip040)" d="M1258.17 1537.81 L1258.17 1518.52 L1264.02 1518.52 L1264.02 1568.04 L1258.17 1568.04 L1258.17 1562.7 Q1256.32 1565.88 1253.49 1567.44 Q1250.69 1568.97 1246.74 1568.97 Q1240.28 1568.97 1236.2 1563.81 Q1232.16 1558.65 1232.16 1550.25 Q1232.16 1541.85 1236.2 1536.69 Q1240.28 1531.54 1246.74 1531.54 Q1250.69 1531.54 1253.49 1533.1 Q1256.32 1534.62 1258.17 1537.81 M1238.21 1550.25 Q1238.21 1556.71 1240.85 1560.4 Q1243.52 1564.07 1248.17 1564.07 Q1252.82 1564.07 1255.49 1560.4 Q1258.17 1556.71 1258.17 1550.25 Q1258.17 1543.79 1255.49 1540.13 Q1252.82 1536.44 1248.17 1536.44 Q1243.52 1536.44 1240.85 1540.13 Q1238.21 1543.79 1238.21 1550.25 Z" fill="#000000" fill-rule="nonzero" fill-opacity="1" /><path clip-path="url(#clip040)" d="M1276.09 1532.4 L1281.94 1532.4 L1281.94 1568.04 L1276.09 1568.04 L1276.09 1532.4 M1276.09 1518.52 L1281.94 1518.52 L1281.94 1525.93 L1276.09 1525.93 L1276.09 1518.52 Z" fill="#000000" fill-rule="nonzero" fill-opacity="1" /><path clip-path="url(#clip040)" d="M1321.95 1539.24 Q1324.15 1535.29 1327.2 1533.41 Q1330.26 1531.54 1334.4 1531.54 Q1339.97 1531.54 1342.99 1535.45 Q1346.01 1539.33 1346.01 1546.53 L1346.01 1568.04 L1340.12 1568.04 L1340.12 1546.72 Q1340.12 1541.59 1338.31 1539.11 Q1336.5 1536.63 1332.77 1536.63 Q1328.22 1536.63 1325.58 1539.65 Q1322.94 1542.68 1322.94 1547.9 L1322.94 1568.04 L1317.05 1568.04 L1317.05 1546.72 Q1317.05 1541.56 1315.23 1539.11 Q1313.42 1536.63 1309.63 1536.63 Q1305.14 1536.63 1302.5 1539.68 Q1299.86 1542.71 1299.86 1547.9 L1299.86 1568.04 L1293.97 1568.04 L1293.97 1532.4 L1299.86 1532.4 L1299.86 1537.93 Q1301.87 1534.66 1304.67 1533.1 Q1307.47 1531.54 1311.32 1531.54 Q1315.2 1531.54 1317.91 1533.51 Q1320.65 1535.48 1321.95 1539.24 Z" fill="#000000" fill-rule="nonzero" fill-opacity="1" /><path clip-path="url(#clip040)" d="M1388.19 1548.76 L1388.19 1551.62 L1361.26 1551.62 Q1361.64 1557.67 1364.89 1560.85 Q1368.17 1564 1373.99 1564 Q1377.36 1564 1380.51 1563.17 Q1383.7 1562.35 1386.82 1560.69 L1386.82 1566.23 Q1383.67 1567.57 1380.36 1568.27 Q1377.05 1568.97 1373.64 1568.97 Q1365.11 1568.97 1360.11 1564 Q1355.15 1559.04 1355.15 1550.57 Q1355.15 1541.82 1359.86 1536.69 Q1364.6 1531.54 1372.62 1531.54 Q1379.81 1531.54 1383.98 1536.18 Q1388.19 1540.8 1388.19 1548.76 M1382.33 1547.04 Q1382.27 1542.23 1379.62 1539.37 Q1377.01 1536.5 1372.69 1536.5 Q1367.78 1536.5 1364.82 1539.27 Q1361.9 1542.04 1361.45 1547.07 L1382.33 1547.04 Z" fill="#000000" fill-rule="nonzero" fill-opacity="1" /><path clip-path="url(#clip040)" d="M1427.43 1546.53 L1427.43 1568.04 L1421.57 1568.04 L1421.57 1546.72 Q1421.57 1541.66 1419.6 1539.14 Q1417.63 1536.63 1413.68 1536.63 Q1408.94 1536.63 1406.2 1539.65 Q1403.46 1542.68 1403.46 1547.9 L1403.46 1568.04 L1397.57 1568.04 L1397.57 1532.4 L1403.46 1532.4 L1403.46 1537.93 Q1405.56 1534.72 1408.4 1533.13 Q1411.26 1531.54 1414.99 1531.54 Q1421.13 1531.54 1424.28 1535.36 Q1427.43 1539.14 1427.43 1546.53 Z" fill="#000000" fill-rule="nonzero" fill-opacity="1" /><path clip-path="url(#clip040)" d="M1461.84 1533.45 L1461.84 1538.98 Q1459.35 1537.71 1456.68 1537.07 Q1454.01 1536.44 1451.14 1536.44 Q1446.78 1536.44 1444.59 1537.77 Q1442.42 1539.11 1442.42 1541.79 Q1442.42 1543.82 1443.98 1545 Q1445.54 1546.15 1450.25 1547.2 L1452.26 1547.64 Q1458.49 1548.98 1461.1 1551.43 Q1463.75 1553.85 1463.75 1558.21 Q1463.75 1563.17 1459.8 1566.07 Q1455.88 1568.97 1449.01 1568.97 Q1446.15 1568.97 1443.03 1568.39 Q1439.94 1567.85 1436.5 1566.74 L1436.5 1560.69 Q1439.75 1562.38 1442.9 1563.24 Q1446.05 1564.07 1449.14 1564.07 Q1453.27 1564.07 1455.5 1562.66 Q1457.73 1561.23 1457.73 1558.65 Q1457.73 1556.27 1456.11 1554.99 Q1454.52 1553.72 1449.07 1552.54 L1447.04 1552.07 Q1441.59 1550.92 1439.17 1548.56 Q1436.76 1546.18 1436.76 1542.04 Q1436.76 1537.01 1440.32 1534.27 Q1443.89 1531.54 1450.44 1531.54 Q1453.69 1531.54 1456.55 1532.01 Q1459.42 1532.49 1461.84 1533.45 Z" fill="#000000" fill-rule="nonzero" fill-opacity="1" /><path clip-path="url(#clip040)" d="M1473.07 1532.4 L1478.93 1532.4 L1478.93 1568.04 L1473.07 1568.04 L1473.07 1532.4 M1473.07 1518.52 L1478.93 1518.52 L1478.93 1525.93 L1473.07 1525.93 L1473.07 1518.52 Z" fill="#000000" fill-rule="nonzero" fill-opacity="1" /><path clip-path="url(#clip040)" d="M1505 1536.5 Q1500.29 1536.5 1497.55 1540.19 Q1494.81 1543.85 1494.81 1550.25 Q1494.81 1556.65 1497.52 1560.34 Q1500.25 1564 1505 1564 Q1509.68 1564 1512.41 1560.31 Q1515.15 1556.62 1515.15 1550.25 Q1515.15 1543.92 1512.41 1540.23 Q1509.68 1536.5 1505 1536.5 M1505 1531.54 Q1512.64 1531.54 1517 1536.5 Q1521.36 1541.47 1521.36 1550.25 Q1521.36 1559 1517 1564 Q1512.64 1568.97 1505 1568.97 Q1497.33 1568.97 1492.97 1564 Q1488.64 1559 1488.64 1550.25 Q1488.64 1541.47 1492.97 1536.5 Q1497.33 1531.54 1505 1531.54 Z" fill="#000000" fill-rule="nonzero" fill-opacity="1" /><path clip-path="url(#clip040)" d="M1560.7 1546.53 L1560.7 1568.04 L1554.84 1568.04 L1554.84 1546.72 Q1554.84 1541.66 1552.87 1539.14 Q1550.89 1536.63 1546.95 1536.63 Q1542.2 1536.63 1539.47 1539.65 Q1536.73 1542.68 1536.73 1547.9 L1536.73 1568.04 L1530.84 1568.04 L1530.84 1532.4 L1536.73 1532.4 L1536.73 1537.93 Q1538.83 1534.72 1541.66 1533.13 Q1544.53 1531.54 1548.25 1531.54 Q1554.39 1531.54 1557.55 1535.36 Q1560.7 1539.14 1560.7 1546.53 Z" fill="#000000" fill-rule="nonzero" fill-opacity="1" /><path clip-path="url(#clip040)" d="M1595.1 1533.45 L1595.1 1538.98 Q1592.62 1537.71 1589.95 1537.07 Q1587.27 1536.44 1584.41 1536.44 Q1580.05 1536.44 1577.85 1537.77 Q1575.69 1539.11 1575.69 1541.79 Q1575.69 1543.82 1577.25 1545 Q1578.81 1546.15 1583.52 1547.2 L1585.52 1547.64 Q1591.76 1548.98 1594.37 1551.43 Q1597.01 1553.85 1597.01 1558.21 Q1597.01 1563.17 1593.07 1566.07 Q1589.15 1568.97 1582.28 1568.97 Q1579.41 1568.97 1576.29 1568.39 Q1573.2 1567.85 1569.77 1566.74 L1569.77 1560.69 Q1573.01 1562.38 1576.16 1563.24 Q1579.32 1564.07 1582.4 1564.07 Q1586.54 1564.07 1588.77 1562.66 Q1591 1561.23 1591 1558.65 Q1591 1556.27 1589.37 1554.99 Q1587.78 1553.72 1582.34 1552.54 L1580.3 1552.07 Q1574.86 1550.92 1572.44 1548.56 Q1570.02 1546.18 1570.02 1542.04 Q1570.02 1537.01 1573.59 1534.27 Q1577.15 1531.54 1583.71 1531.54 Q1586.95 1531.54 1589.82 1532.01 Q1592.68 1532.49 1595.1 1533.45 Z" fill="#000000" fill-rule="nonzero" fill-opacity="1" /><polyline clip-path="url(#clip042)" style="stroke:#000000; stroke-linecap:round; stroke-linejoin:round; stroke-width:2; stroke-opacity:0.1; fill:none" points="249.704,1250.72 2352.76,1250.72 "/>
<polyline clip-path="url(#clip042)" style="stroke:#000000; stroke-linecap:round; stroke-linejoin:round; stroke-width:2; stroke-opacity:0.1; fill:none" points="249.704,1055.41 2352.76,1055.41 "/>
<polyline clip-path="url(#clip042)" style="stroke:#000000; stroke-linecap:round; stroke-linejoin:round; stroke-width:2; stroke-opacity:0.1; fill:none" points="249.704,860.092 2352.76,860.092 "/>
<polyline clip-path="url(#clip042)" style="stroke:#000000; stroke-linecap:round; stroke-linejoin:round; stroke-width:2; stroke-opacity:0.1; fill:none" points="249.704,664.778 2352.76,664.778 "/>
<polyline clip-path="url(#clip042)" style="stroke:#000000; stroke-linecap:round; stroke-linejoin:round; stroke-width:2; stroke-opacity:0.1; fill:none" points="249.704,469.464 2352.76,469.464 "/>
<polyline clip-path="url(#clip042)" style="stroke:#000000; stroke-linecap:round; stroke-linejoin:round; stroke-width:2; stroke-opacity:0.1; fill:none" points="249.704,274.15 2352.76,274.15 "/>
<polyline clip-path="url(#clip040)" style="stroke:#000000; stroke-linecap:round; stroke-linejoin:round; stroke-width:4; stroke-opacity:1; fill:none" points="249.704,1423.18 249.704,123.472 "/>
<polyline clip-path="url(#clip040)" style="stroke:#000000; stroke-linecap:round; stroke-linejoin:round; stroke-width:4; stroke-opacity:1; fill:none" points="249.704,1250.72 268.602,1250.72 "/>
<polyline clip-path="url(#clip040)" style="stroke:#000000; stroke-linecap:round; stroke-linejoin:round; stroke-width:4; stroke-opacity:1; fill:none" points="249.704,1055.41 268.602,1055.41 "/>
<polyline clip-path="url(#clip040)" style="stroke:#000000; stroke-linecap:round; stroke-linejoin:round; stroke-width:4; stroke-opacity:1; fill:none" points="249.704,860.092 268.602,860.092 "/>
<polyline clip-path="url(#clip040)" style="stroke:#000000; stroke-linecap:round; stroke-linejoin:round; stroke-width:4; stroke-opacity:1; fill:none" points="249.704,664.778 268.602,664.778 "/>
<polyline clip-path="url(#clip040)" style="stroke:#000000; stroke-linecap:round; stroke-linejoin:round; stroke-width:4; stroke-opacity:1; fill:none" points="249.704,469.464 268.602,469.464 "/>
<polyline clip-path="url(#clip040)" style="stroke:#000000; stroke-linecap:round; stroke-linejoin:round; stroke-width:4; stroke-opacity:1; fill:none" points="249.704,274.15 268.602,274.15 "/>
<path clip-path="url(#clip040)" d="M127.362 1236.52 Q123.751 1236.52 121.922 1240.08 Q120.117 1243.62 120.117 1250.75 Q120.117 1257.86 121.922 1261.43 Q123.751 1264.97 127.362 1264.97 Q130.996 1264.97 132.802 1261.43 Q134.63 1257.86 134.63 1250.75 Q134.63 1243.62 132.802 1240.08 Q130.996 1236.52 127.362 1236.52 M127.362 1232.81 Q133.172 1232.81 136.228 1237.42 Q139.306 1242 139.306 1250.75 Q139.306 1259.48 136.228 1264.09 Q133.172 1268.67 127.362 1268.67 Q121.552 1268.67 118.473 1264.09 Q115.418 1259.48 115.418 1250.75 Q115.418 1242 118.473 1237.42 Q121.552 1232.81 127.362 1232.81 Z" fill="#000000" fill-rule="nonzero" fill-opacity="1" /><path clip-path="url(#clip040)" d="M147.524 1262.12 L152.408 1262.12 L152.408 1268 L147.524 1268 L147.524 1262.12 Z" fill="#000000" fill-rule="nonzero" fill-opacity="1" /><path clip-path="url(#clip040)" d="M166.621 1264.06 L182.94 1264.06 L182.94 1268 L160.996 1268 L160.996 1264.06 Q163.658 1261.31 168.241 1256.68 Q172.848 1252.03 174.028 1250.68 Q176.274 1248.16 177.153 1246.43 Q178.056 1244.67 178.056 1242.98 Q178.056 1240.22 176.112 1238.49 Q174.19 1236.75 171.089 1236.75 Q168.889 1236.75 166.436 1237.51 Q164.005 1238.28 161.227 1239.83 L161.227 1235.11 Q164.052 1233.97 166.505 1233.39 Q168.959 1232.81 170.996 1232.81 Q176.366 1232.81 179.561 1235.5 Q182.755 1238.19 182.755 1242.68 Q182.755 1244.81 181.945 1246.73 Q181.158 1248.62 179.051 1251.22 Q178.473 1251.89 175.371 1255.11 Q172.269 1258.3 166.621 1264.06 Z" fill="#000000" fill-rule="nonzero" fill-opacity="1" /><path clip-path="url(#clip040)" d="M192.801 1233.44 L211.158 1233.44 L211.158 1237.37 L197.084 1237.37 L197.084 1245.85 Q198.102 1245.5 199.121 1245.34 Q200.139 1245.15 201.158 1245.15 Q206.945 1245.15 210.324 1248.32 Q213.704 1251.5 213.704 1256.91 Q213.704 1262.49 210.232 1265.59 Q206.76 1268.67 200.44 1268.67 Q198.264 1268.67 195.996 1268.3 Q193.75 1267.93 191.343 1267.19 L191.343 1262.49 Q193.426 1263.62 195.649 1264.18 Q197.871 1264.74 200.348 1264.74 Q204.352 1264.74 206.69 1262.63 Q209.028 1260.52 209.028 1256.91 Q209.028 1253.3 206.69 1251.19 Q204.352 1249.09 200.348 1249.09 Q198.473 1249.09 196.598 1249.5 Q194.746 1249.92 192.801 1250.8 L192.801 1233.44 Z" fill="#000000" fill-rule="nonzero" fill-opacity="1" /><path clip-path="url(#clip040)" d="M126.205 1041.2 Q122.593 1041.2 120.765 1044.77 Q118.959 1048.31 118.959 1055.44 Q118.959 1062.55 120.765 1066.11 Q122.593 1069.65 126.205 1069.65 Q129.839 1069.65 131.644 1066.11 Q133.473 1062.55 133.473 1055.44 Q133.473 1048.31 131.644 1044.77 Q129.839 1041.2 126.205 1041.2 M126.205 1037.5 Q132.015 1037.5 135.07 1042.11 Q138.149 1046.69 138.149 1055.44 Q138.149 1064.17 135.07 1068.77 Q132.015 1073.36 126.205 1073.36 Q120.394 1073.36 117.316 1068.77 Q114.26 1064.17 114.26 1055.44 Q114.26 1046.69 117.316 1042.11 Q120.394 1037.5 126.205 1037.5 Z" fill="#000000" fill-rule="nonzero" fill-opacity="1" /><path clip-path="url(#clip040)" d="M146.366 1066.81 L151.251 1066.81 L151.251 1072.69 L146.366 1072.69 L146.366 1066.81 Z" fill="#000000" fill-rule="nonzero" fill-opacity="1" /><path clip-path="url(#clip040)" d="M165.464 1068.75 L181.783 1068.75 L181.783 1072.69 L159.839 1072.69 L159.839 1068.75 Q162.501 1066 167.084 1061.37 Q171.69 1056.71 172.871 1055.37 Q175.116 1052.85 175.996 1051.11 Q176.899 1049.35 176.899 1047.66 Q176.899 1044.91 174.954 1043.17 Q173.033 1041.44 169.931 1041.44 Q167.732 1041.44 165.278 1042.2 Q162.848 1042.96 160.07 1044.51 L160.07 1039.79 Q162.894 1038.66 165.348 1038.08 Q167.802 1037.5 169.839 1037.5 Q175.209 1037.5 178.403 1040.19 Q181.598 1042.87 181.598 1047.36 Q181.598 1049.49 180.788 1051.41 Q180.001 1053.31 177.894 1055.9 Q177.315 1056.57 174.214 1059.79 Q171.112 1062.99 165.464 1068.75 Z" fill="#000000" fill-rule="nonzero" fill-opacity="1" /><path clip-path="url(#clip040)" d="M202.176 1053.54 Q199.028 1053.54 197.176 1055.7 Q195.348 1057.85 195.348 1061.6 Q195.348 1065.32 197.176 1067.5 Q199.028 1069.65 202.176 1069.65 Q205.324 1069.65 207.153 1067.5 Q209.005 1065.32 209.005 1061.6 Q209.005 1057.85 207.153 1055.7 Q205.324 1053.54 202.176 1053.54 M211.459 1038.89 L211.459 1043.15 Q209.699 1042.32 207.894 1041.88 Q206.112 1041.44 204.352 1041.44 Q199.723 1041.44 197.269 1044.56 Q194.838 1047.69 194.491 1054.01 Q195.857 1051.99 197.917 1050.93 Q199.977 1049.84 202.454 1049.84 Q207.662 1049.84 210.672 1053.01 Q213.704 1056.16 213.704 1061.6 Q213.704 1066.92 210.556 1070.14 Q207.408 1073.36 202.176 1073.36 Q196.181 1073.36 193.01 1068.77 Q189.838 1064.17 189.838 1055.44 Q189.838 1047.25 193.727 1042.39 Q197.616 1037.5 204.167 1037.5 Q205.926 1037.5 207.709 1037.85 Q209.514 1038.2 211.459 1038.89 Z" fill="#000000" fill-rule="nonzero" fill-opacity="1" /><path clip-path="url(#clip040)" d="M127.269 845.891 Q123.658 845.891 121.83 849.455 Q120.024 852.997 120.024 860.127 Q120.024 867.233 121.83 870.798 Q123.658 874.339 127.269 874.339 Q130.904 874.339 132.709 870.798 Q134.538 867.233 134.538 860.127 Q134.538 852.997 132.709 849.455 Q130.904 845.891 127.269 845.891 M127.269 842.187 Q133.08 842.187 136.135 846.793 Q139.214 851.377 139.214 860.127 Q139.214 868.853 136.135 873.46 Q133.08 878.043 127.269 878.043 Q121.459 878.043 118.381 873.46 Q115.325 868.853 115.325 860.127 Q115.325 851.377 118.381 846.793 Q121.459 842.187 127.269 842.187 Z" fill="#000000" fill-rule="nonzero" fill-opacity="1" /><path clip-path="url(#clip040)" d="M147.431 871.492 L152.316 871.492 L152.316 877.372 L147.431 877.372 L147.431 871.492 Z" fill="#000000" fill-rule="nonzero" fill-opacity="1" /><path clip-path="url(#clip040)" d="M166.528 873.437 L182.848 873.437 L182.848 877.372 L160.903 877.372 L160.903 873.437 Q163.565 870.682 168.149 866.052 Q172.755 861.4 173.936 860.057 Q176.181 857.534 177.061 855.798 Q177.964 854.039 177.964 852.349 Q177.964 849.594 176.019 847.858 Q174.098 846.122 170.996 846.122 Q168.797 846.122 166.343 846.886 Q163.913 847.65 161.135 849.201 L161.135 844.479 Q163.959 843.344 166.413 842.766 Q168.866 842.187 170.903 842.187 Q176.274 842.187 179.468 844.872 Q182.663 847.557 182.663 852.048 Q182.663 854.178 181.852 856.099 Q181.065 857.997 178.959 860.59 Q178.38 861.261 175.278 864.478 Q172.177 867.673 166.528 873.437 Z" fill="#000000" fill-rule="nonzero" fill-opacity="1" /><path clip-path="url(#clip040)" d="M191.482 842.812 L213.704 842.812 L213.704 844.803 L201.158 877.372 L196.274 877.372 L208.079 846.747 L191.482 846.747 L191.482 842.812 Z" fill="#000000" fill-rule="nonzero" fill-opacity="1" /><path clip-path="url(#clip040)" d="M126.459 650.577 Q122.848 650.577 121.019 654.141 Q119.214 657.683 119.214 664.813 Q119.214 671.919 121.019 675.484 Q122.848 679.026 126.459 679.026 Q130.093 679.026 131.899 675.484 Q133.728 671.919 133.728 664.813 Q133.728 657.683 131.899 654.141 Q130.093 650.577 126.459 650.577 M126.459 646.873 Q132.269 646.873 135.325 651.479 Q138.404 656.063 138.404 664.813 Q138.404 673.539 135.325 678.146 Q132.269 682.729 126.459 682.729 Q120.649 682.729 117.57 678.146 Q114.515 673.539 114.515 664.813 Q114.515 656.063 117.57 651.479 Q120.649 646.873 126.459 646.873 Z" fill="#000000" fill-rule="nonzero" fill-opacity="1" /><path clip-path="url(#clip040)" d="M146.621 676.178 L151.505 676.178 L151.505 682.058 L146.621 682.058 L146.621 676.178 Z" fill="#000000" fill-rule="nonzero" fill-opacity="1" /><path clip-path="url(#clip040)" d="M165.718 678.123 L182.038 678.123 L182.038 682.058 L160.093 682.058 L160.093 678.123 Q162.755 675.368 167.339 670.739 Q171.945 666.086 173.126 664.743 Q175.371 662.22 176.251 660.484 Q177.153 658.725 177.153 657.035 Q177.153 654.28 175.209 652.544 Q173.288 650.808 170.186 650.808 Q167.987 650.808 165.533 651.572 Q163.102 652.336 160.325 653.887 L160.325 649.165 Q163.149 648.03 165.602 647.452 Q168.056 646.873 170.093 646.873 Q175.464 646.873 178.658 649.558 Q181.852 652.243 181.852 656.734 Q181.852 658.864 181.042 660.785 Q180.255 662.683 178.149 665.276 Q177.57 665.947 174.468 669.165 Q171.366 672.359 165.718 678.123 Z" fill="#000000" fill-rule="nonzero" fill-opacity="1" /><path clip-path="url(#clip040)" d="M201.852 665.646 Q198.519 665.646 196.598 667.428 Q194.7 669.211 194.7 672.336 Q194.7 675.461 196.598 677.243 Q198.519 679.026 201.852 679.026 Q205.186 679.026 207.107 677.243 Q209.028 675.438 209.028 672.336 Q209.028 669.211 207.107 667.428 Q205.209 665.646 201.852 665.646 M197.176 663.655 Q194.167 662.915 192.477 660.854 Q190.811 658.794 190.811 655.831 Q190.811 651.688 193.75 649.28 Q196.713 646.873 201.852 646.873 Q207.014 646.873 209.954 649.28 Q212.894 651.688 212.894 655.831 Q212.894 658.794 211.204 660.854 Q209.537 662.915 206.551 663.655 Q209.931 664.442 211.806 666.734 Q213.704 669.026 213.704 672.336 Q213.704 677.359 210.625 680.044 Q207.57 682.729 201.852 682.729 Q196.135 682.729 193.056 680.044 Q190 677.359 190 672.336 Q190 669.026 191.899 666.734 Q193.797 664.442 197.176 663.655 M195.463 656.271 Q195.463 658.956 197.13 660.461 Q198.82 661.965 201.852 661.965 Q204.862 661.965 206.551 660.461 Q208.264 658.956 208.264 656.271 Q208.264 653.586 206.551 652.081 Q204.862 650.577 201.852 650.577 Q198.82 650.577 197.13 652.081 Q195.463 653.586 195.463 656.271 Z" fill="#000000" fill-rule="nonzero" fill-opacity="1" /><path clip-path="url(#clip040)" d="M126.552 455.263 Q122.941 455.263 121.112 458.828 Q119.306 462.369 119.306 469.499 Q119.306 476.605 121.112 480.17 Q122.941 483.712 126.552 483.712 Q130.186 483.712 131.992 480.17 Q133.82 476.605 133.82 469.499 Q133.82 462.369 131.992 458.828 Q130.186 455.263 126.552 455.263 M126.552 451.559 Q132.362 451.559 135.417 456.166 Q138.496 460.749 138.496 469.499 Q138.496 478.226 135.417 482.832 Q132.362 487.415 126.552 487.415 Q120.742 487.415 117.663 482.832 Q114.607 478.226 114.607 469.499 Q114.607 460.749 117.663 456.166 Q120.742 451.559 126.552 451.559 Z" fill="#000000" fill-rule="nonzero" fill-opacity="1" /><path clip-path="url(#clip040)" d="M146.714 480.864 L151.598 480.864 L151.598 486.744 L146.714 486.744 L146.714 480.864 Z" fill="#000000" fill-rule="nonzero" fill-opacity="1" /><path clip-path="url(#clip040)" d="M165.811 482.809 L182.13 482.809 L182.13 486.744 L160.186 486.744 L160.186 482.809 Q162.848 480.054 167.431 475.425 Q172.038 470.772 173.218 469.429 Q175.464 466.906 176.343 465.17 Q177.246 463.411 177.246 461.721 Q177.246 458.966 175.301 457.23 Q173.38 455.494 170.278 455.494 Q168.079 455.494 165.626 456.258 Q163.195 457.022 160.417 458.573 L160.417 453.851 Q163.241 452.716 165.695 452.138 Q168.149 451.559 170.186 451.559 Q175.556 451.559 178.751 454.244 Q181.945 456.929 181.945 461.42 Q181.945 463.55 181.135 465.471 Q180.348 467.369 178.241 469.962 Q177.663 470.633 174.561 473.851 Q171.459 477.045 165.811 482.809 Z" fill="#000000" fill-rule="nonzero" fill-opacity="1" /><path clip-path="url(#clip040)" d="M192.084 486.026 L192.084 481.767 Q193.843 482.601 195.649 483.04 Q197.454 483.48 199.19 483.48 Q203.82 483.48 206.25 480.378 Q208.704 477.253 209.051 470.911 Q207.709 472.902 205.649 473.966 Q203.588 475.031 201.088 475.031 Q195.903 475.031 192.871 471.906 Q189.862 468.758 189.862 463.318 Q189.862 457.994 193.01 454.777 Q196.158 451.559 201.389 451.559 Q207.385 451.559 210.533 456.166 Q213.704 460.749 213.704 469.499 Q213.704 477.67 209.815 482.554 Q205.949 487.415 199.399 487.415 Q197.639 487.415 195.834 487.068 Q194.028 486.721 192.084 486.026 M201.389 471.374 Q204.537 471.374 206.366 469.221 Q208.218 467.068 208.218 463.318 Q208.218 459.591 206.366 457.439 Q204.537 455.263 201.389 455.263 Q198.241 455.263 196.389 457.439 Q194.561 459.591 194.561 463.318 Q194.561 467.068 196.389 469.221 Q198.241 471.374 201.389 471.374 Z" fill="#000000" fill-rule="nonzero" fill-opacity="1" /><path clip-path="url(#clip040)" d="M126.367 259.949 Q122.755 259.949 120.927 263.514 Q119.121 267.055 119.121 274.185 Q119.121 281.291 120.927 284.856 Q122.755 288.398 126.367 288.398 Q130.001 288.398 131.806 284.856 Q133.635 281.291 133.635 274.185 Q133.635 267.055 131.806 263.514 Q130.001 259.949 126.367 259.949 M126.367 256.245 Q132.177 256.245 135.232 260.852 Q138.311 265.435 138.311 274.185 Q138.311 282.912 135.232 287.518 Q132.177 292.101 126.367 292.101 Q120.556 292.101 117.478 287.518 Q114.422 282.912 114.422 274.185 Q114.422 265.435 117.478 260.852 Q120.556 256.245 126.367 256.245 Z" fill="#000000" fill-rule="nonzero" fill-opacity="1" /><path clip-path="url(#clip040)" d="M146.529 285.551 L151.413 285.551 L151.413 291.43 L146.529 291.43 L146.529 285.551 Z" fill="#000000" fill-rule="nonzero" fill-opacity="1" /><path clip-path="url(#clip040)" d="M175.764 272.796 Q179.121 273.514 180.996 275.782 Q182.894 278.051 182.894 281.384 Q182.894 286.5 179.376 289.301 Q175.857 292.101 169.376 292.101 Q167.2 292.101 164.885 291.662 Q162.593 291.245 160.14 290.388 L160.14 285.875 Q162.084 287.009 164.399 287.588 Q166.714 288.166 169.237 288.166 Q173.635 288.166 175.926 286.43 Q178.241 284.694 178.241 281.384 Q178.241 278.328 176.089 276.615 Q173.959 274.879 170.139 274.879 L166.112 274.879 L166.112 271.037 L170.325 271.037 Q173.774 271.037 175.602 269.671 Q177.431 268.282 177.431 265.69 Q177.431 263.028 175.533 261.615 Q173.658 260.18 170.139 260.18 Q168.218 260.18 166.019 260.597 Q163.82 261.014 161.181 261.893 L161.181 257.727 Q163.843 256.986 166.158 256.616 Q168.496 256.245 170.556 256.245 Q175.88 256.245 178.982 258.676 Q182.084 261.083 182.084 265.203 Q182.084 268.074 180.44 270.065 Q178.797 272.032 175.764 272.796 Z" fill="#000000" fill-rule="nonzero" fill-opacity="1" /><path clip-path="url(#clip040)" d="M201.76 259.949 Q198.149 259.949 196.32 263.514 Q194.514 267.055 194.514 274.185 Q194.514 281.291 196.32 284.856 Q198.149 288.398 201.76 288.398 Q205.394 288.398 207.199 284.856 Q209.028 281.291 209.028 274.185 Q209.028 267.055 207.199 263.514 Q205.394 259.949 201.76 259.949 M201.76 256.245 Q207.57 256.245 210.625 260.852 Q213.704 265.435 213.704 274.185 Q213.704 282.912 210.625 287.518 Q207.57 292.101 201.76 292.101 Q195.95 292.101 192.871 287.518 Q189.815 282.912 189.815 274.185 Q189.815 265.435 192.871 260.852 Q195.95 256.245 201.76 256.245 Z" fill="#000000" fill-rule="nonzero" fill-opacity="1" /><path clip-path="url(#clip040)" d="M16.4842 837.445 L16.4842 827.864 L48.8219 815.738 L16.4842 803.547 L16.4842 793.967 L64.0042 793.967 L64.0042 800.237 L22.277 800.237 L54.8694 812.491 L54.8694 818.952 L22.277 831.206 L64.0042 831.206 L64.0042 837.445 L16.4842 837.445 Z" fill="#000000" fill-rule="nonzero" fill-opacity="1" /><path clip-path="url(#clip040)" d="M18.0438 752.717 L24.314 752.717 Q22.5634 756.377 21.704 759.624 Q20.8447 762.87 20.8447 765.894 Q20.8447 771.146 22.8817 774.01 Q24.9187 776.843 28.6745 776.843 Q31.8255 776.843 33.4488 774.965 Q35.0402 773.055 36.0269 767.772 L36.8226 763.889 Q38.1912 756.696 41.6605 753.29 Q45.098 749.852 50.8908 749.852 Q57.7976 749.852 61.3624 754.499 Q64.9272 759.115 64.9272 768.058 Q64.9272 771.432 64.1633 775.252 Q63.3994 779.039 61.9035 783.113 L55.2831 783.113 Q57.4793 779.198 58.5933 775.443 Q59.7073 771.687 59.7073 768.058 Q59.7073 762.552 57.543 759.56 Q55.3786 756.568 51.3682 756.568 Q47.8671 756.568 45.8937 758.733 Q43.9204 760.865 42.9337 765.767 L42.1698 769.682 Q40.7375 776.875 37.682 780.09 Q34.6264 783.304 29.1837 783.304 Q22.8817 783.304 19.2532 778.88 Q15.6248 774.424 15.6248 766.626 Q15.6248 763.284 16.2295 759.815 Q16.8343 756.345 18.0438 752.717 Z" fill="#000000" fill-rule="nonzero" fill-opacity="1" /><path clip-path="url(#clip040)" d="M16.4842 739.826 L16.4842 709.78 L21.895 709.78 L21.895 733.397 L35.9632 733.397 L35.9632 710.767 L41.3741 710.767 L41.3741 733.397 L58.5933 733.397 L58.5933 709.207 L64.0042 709.207 L64.0042 739.826 L16.4842 739.826 Z" fill="#000000" fill-rule="nonzero" fill-opacity="1" /><path clip-path="url(#clip040)" d="M609.234 12.096 L621.427 12.096 L636.861 53.2532 L652.376 12.096 L664.57 12.096 L664.57 72.576 L656.589 72.576 L656.589 19.4686 L640.993 60.9499 L632.77 60.9499 L617.174 19.4686 L617.174 72.576 L609.234 72.576 L609.234 12.096 Z" fill="#000000" fill-rule="nonzero" fill-opacity="1" /><path clip-path="url(#clip040)" d="M719.297 48.0275 L719.297 51.6733 L685.027 51.6733 Q685.513 59.3701 689.645 63.421 Q693.817 67.4314 701.23 67.4314 Q705.524 67.4314 709.535 66.3781 Q713.586 65.3249 717.555 63.2184 L717.555 70.267 Q713.545 71.9684 709.332 72.8596 Q705.119 73.7508 700.785 73.7508 Q689.928 73.7508 683.568 67.4314 Q677.249 61.1119 677.249 50.3365 Q677.249 39.1965 683.244 32.6746 Q689.28 26.1121 699.488 26.1121 Q708.643 26.1121 713.95 32.0264 Q719.297 37.9003 719.297 48.0275 M711.844 45.84 Q711.763 39.7232 708.4 36.0774 Q705.079 32.4315 699.569 32.4315 Q693.331 32.4315 689.564 35.9558 Q685.837 39.4801 685.27 45.8805 L711.844 45.84 Z" fill="#000000" fill-rule="nonzero" fill-opacity="1" /><path clip-path="url(#clip040)" d="M752.15 49.7694 Q743.117 49.7694 739.633 51.8354 Q736.149 53.9013 736.149 58.8839 Q736.149 62.8538 738.742 65.2034 Q741.375 67.5124 745.871 67.5124 Q752.069 67.5124 755.796 63.1374 Q759.563 58.7219 759.563 51.4303 L759.563 49.7694 L752.15 49.7694 M767.017 46.6907 L767.017 72.576 L759.563 72.576 L759.563 65.6895 Q757.011 69.8214 753.203 71.8063 Q749.396 73.7508 743.886 73.7508 Q736.919 73.7508 732.787 69.8619 Q728.695 65.9325 728.695 59.3701 Q728.695 51.7138 733.8 47.825 Q738.944 43.9361 749.112 43.9361 L759.563 43.9361 L759.563 43.2069 Q759.563 38.0623 756.161 35.2672 Q752.798 32.4315 746.681 32.4315 Q742.793 32.4315 739.106 33.3632 Q735.42 34.295 732.017 36.1584 L732.017 29.2718 Q736.109 27.692 739.957 26.9223 Q743.805 26.1121 747.451 26.1121 Q757.295 26.1121 762.156 31.2163 Q767.017 36.3204 767.017 46.6907 Z" fill="#000000" fill-rule="nonzero" fill-opacity="1" /><path clip-path="url(#clip040)" d="M820.084 45.1919 L820.084 72.576 L812.63 72.576 L812.63 45.4349 Q812.63 38.994 810.119 35.7938 Q807.607 32.5936 802.584 32.5936 Q796.548 32.5936 793.064 36.4419 Q789.581 40.2903 789.581 46.9338 L789.581 72.576 L782.086 72.576 L782.086 27.2059 L789.581 27.2059 L789.581 34.2544 Q792.254 30.163 795.859 28.1376 Q799.505 26.1121 804.245 26.1121 Q812.063 26.1121 816.073 30.9732 Q820.084 35.7938 820.084 45.1919 Z" fill="#000000" fill-rule="nonzero" fill-opacity="1" /><path clip-path="url(#clip040)" d="M897.902 14.0809 L897.902 22.0612 Q893.243 19.8332 889.111 18.7395 Q884.979 17.6457 881.131 17.6457 Q874.447 17.6457 870.801 20.2383 Q867.196 22.8309 867.196 27.611 Q867.196 31.6214 869.586 33.6873 Q872.016 35.7128 878.741 36.9686 L883.683 37.9813 Q892.838 39.7232 897.173 44.1387 Q901.548 48.5136 901.548 55.8863 Q901.548 64.6767 895.633 69.2137 Q889.759 73.7508 878.376 73.7508 Q874.082 73.7508 869.221 72.7785 Q864.401 71.8063 859.216 69.9024 L859.216 61.4765 Q864.198 64.2716 868.978 65.6895 Q873.758 67.1073 878.376 67.1073 Q885.384 67.1073 889.192 64.3527 Q893 61.598 893 56.4939 Q893 52.0379 890.245 49.5264 Q887.531 47.0148 881.293 45.759 L876.31 44.7868 Q867.155 42.9639 863.064 39.075 Q858.973 35.1862 858.973 28.2591 Q858.973 20.2383 864.603 15.6203 Q870.275 11.0023 880.199 11.0023 Q884.453 11.0023 888.868 11.7719 Q893.284 12.5416 897.902 14.0809 Z" fill="#000000" fill-rule="nonzero" fill-opacity="1" /><path clip-path="url(#clip040)" d="M918.44 49.9314 Q918.44 58.1548 921.802 62.8538 Q925.205 67.5124 931.119 67.5124 Q937.033 67.5124 940.436 62.8538 Q943.839 58.1548 943.839 49.9314 Q943.839 41.7081 940.436 37.0496 Q937.033 32.3505 931.119 32.3505 Q925.205 32.3505 921.802 37.0496 Q918.44 41.7081 918.44 49.9314 M943.839 65.7705 Q941.489 69.8214 937.884 71.8063 Q934.319 73.7508 929.296 73.7508 Q921.073 73.7508 915.888 67.1883 Q910.743 60.6258 910.743 49.9314 Q910.743 39.2371 915.888 32.6746 Q921.073 26.1121 929.296 26.1121 Q934.319 26.1121 937.884 28.0971 Q941.489 30.0415 943.839 34.0924 L943.839 27.2059 L951.293 27.2059 L951.293 89.8329 L943.839 89.8329 L943.839 65.7705 Z" fill="#000000" fill-rule="nonzero" fill-opacity="1" /><path clip-path="url(#clip040)" d="M965.876 54.671 L965.876 27.2059 L973.33 27.2059 L973.33 54.3874 Q973.33 60.8284 975.841 64.0691 Q978.353 67.2693 983.376 67.2693 Q989.412 67.2693 992.895 63.421 Q996.42 59.5726 996.42 52.9291 L996.42 27.2059 L1003.87 27.2059 L1003.87 72.576 L996.42 72.576 L996.42 65.6084 Q993.706 69.7404 990.1 71.7658 Q986.535 73.7508 981.796 73.7508 Q973.978 73.7508 969.927 68.8897 Q965.876 64.0286 965.876 54.671 M984.632 26.1121 L984.632 26.1121 Z" fill="#000000" fill-rule="nonzero" fill-opacity="1" /><path clip-path="url(#clip040)" d="M1039.85 49.7694 Q1030.81 49.7694 1027.33 51.8354 Q1023.84 53.9013 1023.84 58.8839 Q1023.84 62.8538 1026.44 65.2034 Q1029.07 67.5124 1033.57 67.5124 Q1039.76 67.5124 1043.49 63.1374 Q1047.26 58.7219 1047.26 51.4303 L1047.26 49.7694 L1039.85 49.7694 M1054.71 46.6907 L1054.71 72.576 L1047.26 72.576 L1047.26 65.6895 Q1044.71 69.8214 1040.9 71.8063 Q1037.09 73.7508 1031.58 73.7508 Q1024.61 73.7508 1020.48 69.8619 Q1016.39 65.9325 1016.39 59.3701 Q1016.39 51.7138 1021.49 47.825 Q1026.64 43.9361 1036.81 43.9361 L1047.26 43.9361 L1047.26 43.2069 Q1047.26 38.0623 1043.86 35.2672 Q1040.49 32.4315 1034.38 32.4315 Q1030.49 32.4315 1026.8 33.3632 Q1023.12 34.295 1019.71 36.1584 L1019.71 29.2718 Q1023.8 27.692 1027.65 26.9223 Q1031.5 26.1121 1035.15 26.1121 Q1044.99 26.1121 1049.85 31.2163 Q1054.71 36.3204 1054.71 46.6907 Z" fill="#000000" fill-rule="nonzero" fill-opacity="1" /><path clip-path="url(#clip040)" d="M1096.36 34.1734 Q1095.1 33.4443 1093.6 33.1202 Q1092.14 32.7556 1090.36 32.7556 Q1084.04 32.7556 1080.64 36.8875 Q1077.28 40.9789 1077.28 48.6757 L1077.28 72.576 L1069.78 72.576 L1069.78 27.2059 L1077.28 27.2059 L1077.28 34.2544 Q1079.63 30.1225 1083.39 28.1376 Q1087.16 26.1121 1092.55 26.1121 Q1093.32 26.1121 1094.25 26.2337 Q1095.18 26.3147 1096.31 26.5172 L1096.36 34.1734 Z" fill="#000000" fill-rule="nonzero" fill-opacity="1" /><path clip-path="url(#clip040)" d="M1141.16 48.0275 L1141.16 51.6733 L1106.89 51.6733 Q1107.37 59.3701 1111.51 63.421 Q1115.68 67.4314 1123.09 67.4314 Q1127.39 67.4314 1131.4 66.3781 Q1135.45 65.3249 1139.42 63.2184 L1139.42 70.267 Q1135.41 71.9684 1131.19 72.8596 Q1126.98 73.7508 1122.65 73.7508 Q1111.79 73.7508 1105.43 67.4314 Q1099.11 61.1119 1099.11 50.3365 Q1099.11 39.1965 1105.11 32.6746 Q1111.14 26.1121 1121.35 26.1121 Q1130.5 26.1121 1135.81 32.0264 Q1141.16 37.9003 1141.16 48.0275 M1133.7 45.84 Q1133.62 39.7232 1130.26 36.0774 Q1126.94 32.4315 1121.43 32.4315 Q1115.19 32.4315 1111.42 35.9558 Q1107.7 39.4801 1107.13 45.8805 L1133.7 45.84 Z" fill="#000000" fill-rule="nonzero" fill-opacity="1" /><path clip-path="url(#clip040)" d="M1183.25 34.0924 L1183.25 9.54393 L1190.7 9.54393 L1190.7 72.576 L1183.25 72.576 L1183.25 65.7705 Q1180.9 69.8214 1177.29 71.8063 Q1173.73 73.7508 1168.7 73.7508 Q1160.48 73.7508 1155.3 67.1883 Q1150.15 60.6258 1150.15 49.9314 Q1150.15 39.2371 1155.3 32.6746 Q1160.48 26.1121 1168.7 26.1121 Q1173.73 26.1121 1177.29 28.0971 Q1180.9 30.0415 1183.25 34.0924 M1157.85 49.9314 Q1157.85 58.1548 1161.21 62.8538 Q1164.61 67.5124 1170.53 67.5124 Q1176.44 67.5124 1179.84 62.8538 Q1183.25 58.1548 1183.25 49.9314 Q1183.25 41.7081 1179.84 37.0496 Q1176.44 32.3505 1170.53 32.3505 Q1164.61 32.3505 1161.21 37.0496 Q1157.85 41.7081 1157.85 49.9314 Z" fill="#000000" fill-rule="nonzero" fill-opacity="1" /><path clip-path="url(#clip040)" d="M1232.75 12.096 L1270.99 12.096 L1270.99 18.9825 L1240.93 18.9825 L1240.93 36.8875 L1269.73 36.8875 L1269.73 43.7741 L1240.93 43.7741 L1240.93 65.6895 L1271.72 65.6895 L1271.72 72.576 L1232.75 72.576 L1232.75 12.096 Z" fill="#000000" fill-rule="nonzero" fill-opacity="1" /><path clip-path="url(#clip040)" d="M1311.13 34.1734 Q1309.88 33.4443 1308.38 33.1202 Q1306.92 32.7556 1305.14 32.7556 Q1298.82 32.7556 1295.42 36.8875 Q1292.05 40.9789 1292.05 48.6757 L1292.05 72.576 L1284.56 72.576 L1284.56 27.2059 L1292.05 27.2059 L1292.05 34.2544 Q1294.4 30.1225 1298.17 28.1376 Q1301.94 26.1121 1307.33 26.1121 Q1308.1 26.1121 1309.03 26.2337 Q1309.96 26.3147 1311.09 26.5172 L1311.13 34.1734 Z" fill="#000000" fill-rule="nonzero" fill-opacity="1" /><path clip-path="url(#clip040)" d="M1343.78 34.1734 Q1342.53 33.4443 1341.03 33.1202 Q1339.57 32.7556 1337.79 32.7556 Q1331.47 32.7556 1328.07 36.8875 Q1324.7 40.9789 1324.7 48.6757 L1324.7 72.576 L1317.21 72.576 L1317.21 27.2059 L1324.7 27.2059 L1324.7 34.2544 Q1327.05 30.1225 1330.82 28.1376 Q1334.59 26.1121 1339.98 26.1121 Q1340.75 26.1121 1341.68 26.2337 Q1342.61 26.3147 1343.74 26.5172 L1343.78 34.1734 Z" fill="#000000" fill-rule="nonzero" fill-opacity="1" /><path clip-path="url(#clip040)" d="M1367.36 32.4315 Q1361.37 32.4315 1357.88 37.1306 Q1354.4 41.7891 1354.4 49.9314 Q1354.4 58.0738 1357.84 62.7728 Q1361.33 67.4314 1367.36 67.4314 Q1373.32 67.4314 1376.8 62.7323 Q1380.28 58.0333 1380.28 49.9314 Q1380.28 41.8701 1376.8 37.1711 Q1373.32 32.4315 1367.36 32.4315 M1367.36 26.1121 Q1377.08 26.1121 1382.63 32.4315 Q1388.18 38.7509 1388.18 49.9314 Q1388.18 61.0714 1382.63 67.4314 Q1377.08 73.7508 1367.36 73.7508 Q1357.6 73.7508 1352.05 67.4314 Q1346.54 61.0714 1346.54 49.9314 Q1346.54 38.7509 1352.05 32.4315 Q1357.6 26.1121 1367.36 26.1121 Z" fill="#000000" fill-rule="nonzero" fill-opacity="1" /><path clip-path="url(#clip040)" d="M1426.83 34.1734 Q1425.57 33.4443 1424.07 33.1202 Q1422.62 32.7556 1420.83 32.7556 Q1414.51 32.7556 1411.11 36.8875 Q1407.75 40.9789 1407.75 48.6757 L1407.75 72.576 L1400.25 72.576 L1400.25 27.2059 L1407.75 27.2059 L1407.75 34.2544 Q1410.1 30.1225 1413.87 28.1376 Q1417.63 26.1121 1423.02 26.1121 Q1423.79 26.1121 1424.72 26.2337 Q1425.65 26.3147 1426.79 26.5172 L1426.83 34.1734 Z" fill="#000000" fill-rule="nonzero" fill-opacity="1" /><path clip-path="url(#clip040)" d="M1478.92 9.62495 Q1473.49 18.942 1470.86 28.0566 Q1468.23 37.1711 1468.23 46.5287 Q1468.23 55.8863 1470.86 65.0818 Q1473.54 74.2369 1478.92 83.5134 L1472.44 83.5134 Q1466.37 73.9938 1463.33 64.7983 Q1460.33 55.6027 1460.33 46.5287 Q1460.33 37.4952 1463.33 28.3401 Q1466.32 19.1851 1472.44 9.62495 L1478.92 9.62495 Z" fill="#000000" fill-rule="nonzero" fill-opacity="1" /><path clip-path="url(#clip040)" d="M1493.38 27.2059 L1500.84 27.2059 L1500.84 72.576 L1493.38 72.576 L1493.38 27.2059 M1493.38 9.54393 L1500.84 9.54393 L1500.84 18.9825 L1493.38 18.9825 L1493.38 9.54393 Z" fill="#000000" fill-rule="nonzero" fill-opacity="1" /><path clip-path="url(#clip040)" d="M1523.81 14.324 L1523.81 27.2059 L1539.16 27.2059 L1539.16 32.9987 L1523.81 32.9987 L1523.81 57.6282 Q1523.81 63.1779 1525.31 64.7578 Q1526.85 66.3376 1531.5 66.3376 L1539.16 66.3376 L1539.16 72.576 L1531.5 72.576 Q1522.88 72.576 1519.59 69.3758 Q1516.31 66.1351 1516.31 57.6282 L1516.31 32.9987 L1510.84 32.9987 L1510.84 27.2059 L1516.31 27.2059 L1516.31 14.324 L1523.81 14.324 Z" fill="#000000" fill-rule="nonzero" fill-opacity="1" /><path clip-path="url(#clip040)" d="M1587.77 48.0275 L1587.77 51.6733 L1553.5 51.6733 Q1553.99 59.3701 1558.12 63.421 Q1562.29 67.4314 1569.7 67.4314 Q1574 67.4314 1578.01 66.3781 Q1582.06 65.3249 1586.03 63.2184 L1586.03 70.267 Q1582.02 71.9684 1577.81 72.8596 Q1573.59 73.7508 1569.26 73.7508 Q1558.4 73.7508 1552.04 67.4314 Q1545.72 61.1119 1545.72 50.3365 Q1545.72 39.1965 1551.72 32.6746 Q1557.75 26.1121 1567.96 26.1121 Q1577.12 26.1121 1582.42 32.0264 Q1587.77 37.9003 1587.77 48.0275 M1580.32 45.84 Q1580.24 39.7232 1576.87 36.0774 Q1573.55 32.4315 1568.04 32.4315 Q1561.8 32.4315 1558.04 35.9558 Q1554.31 39.4801 1553.74 45.8805 L1580.32 45.84 Z" fill="#000000" fill-rule="nonzero" fill-opacity="1" /><path clip-path="url(#clip040)" d="M1626.29 34.1734 Q1625.04 33.4443 1623.54 33.1202 Q1622.08 32.7556 1620.3 32.7556 Q1613.98 32.7556 1610.58 36.8875 Q1607.22 40.9789 1607.22 48.6757 L1607.22 72.576 L1599.72 72.576 L1599.72 27.2059 L1607.22 27.2059 L1607.22 34.2544 Q1609.56 30.1225 1613.33 28.1376 Q1617.1 26.1121 1622.49 26.1121 Q1623.26 26.1121 1624.19 26.2337 Q1625.12 26.3147 1626.25 26.5172 L1626.29 34.1734 Z" fill="#000000" fill-rule="nonzero" fill-opacity="1" /><path clip-path="url(#clip040)" d="M1654.73 49.7694 Q1645.7 49.7694 1642.21 51.8354 Q1638.73 53.9013 1638.73 58.8839 Q1638.73 62.8538 1641.32 65.2034 Q1643.96 67.5124 1648.45 67.5124 Q1654.65 67.5124 1658.38 63.1374 Q1662.15 58.7219 1662.15 51.4303 L1662.15 49.7694 L1654.73 49.7694 M1669.6 46.6907 L1669.6 72.576 L1662.15 72.576 L1662.15 65.6895 Q1659.59 69.8214 1655.79 71.8063 Q1651.98 73.7508 1646.47 73.7508 Q1639.5 73.7508 1635.37 69.8619 Q1631.28 65.9325 1631.28 59.3701 Q1631.28 51.7138 1636.38 47.825 Q1641.53 43.9361 1651.69 43.9361 L1662.15 43.9361 L1662.15 43.2069 Q1662.15 38.0623 1658.74 35.2672 Q1655.38 32.4315 1649.26 32.4315 Q1645.37 32.4315 1641.69 33.3632 Q1638 34.295 1634.6 36.1584 L1634.6 29.2718 Q1638.69 27.692 1642.54 26.9223 Q1646.39 26.1121 1650.03 26.1121 Q1659.88 26.1121 1664.74 31.2163 Q1669.6 36.3204 1669.6 46.6907 Z" fill="#000000" fill-rule="nonzero" fill-opacity="1" /><path clip-path="url(#clip040)" d="M1692.32 14.324 L1692.32 27.2059 L1707.68 27.2059 L1707.68 32.9987 L1692.32 32.9987 L1692.32 57.6282 Q1692.32 63.1779 1693.82 64.7578 Q1695.36 66.3376 1700.02 66.3376 L1707.68 66.3376 L1707.68 72.576 L1700.02 72.576 Q1691.39 72.576 1688.11 69.3758 Q1684.83 66.1351 1684.83 57.6282 L1684.83 32.9987 L1679.36 32.9987 L1679.36 27.2059 L1684.83 27.2059 L1684.83 14.324 L1692.32 14.324 Z" fill="#000000" fill-rule="nonzero" fill-opacity="1" /><path clip-path="url(#clip040)" d="M1717.48 27.2059 L1724.93 27.2059 L1724.93 72.576 L1717.48 72.576 L1717.48 27.2059 M1717.48 9.54393 L1724.93 9.54393 L1724.93 18.9825 L1717.48 18.9825 L1717.48 9.54393 Z" fill="#000000" fill-rule="nonzero" fill-opacity="1" /><path clip-path="url(#clip040)" d="M1758.11 32.4315 Q1752.12 32.4315 1748.63 37.1306 Q1745.15 41.7891 1745.15 49.9314 Q1745.15 58.0738 1748.59 62.7728 Q1752.08 67.4314 1758.11 67.4314 Q1764.07 67.4314 1767.55 62.7323 Q1771.03 58.0333 1771.03 49.9314 Q1771.03 41.8701 1767.55 37.1711 Q1764.07 32.4315 1758.11 32.4315 M1758.11 26.1121 Q1767.83 26.1121 1773.38 32.4315 Q1778.93 38.7509 1778.93 49.9314 Q1778.93 61.0714 1773.38 67.4314 Q1767.83 73.7508 1758.11 73.7508 Q1748.35 73.7508 1742.8 67.4314 Q1737.29 61.0714 1737.29 49.9314 Q1737.29 38.7509 1742.8 32.4315 Q1748.35 26.1121 1758.11 26.1121 Z" fill="#000000" fill-rule="nonzero" fill-opacity="1" /><path clip-path="url(#clip040)" d="M1829 45.1919 L1829 72.576 L1821.55 72.576 L1821.55 45.4349 Q1821.55 38.994 1819.04 35.7938 Q1816.53 32.5936 1811.5 32.5936 Q1805.47 32.5936 1801.98 36.4419 Q1798.5 40.2903 1798.5 46.9338 L1798.5 72.576 L1791 72.576 L1791 27.2059 L1798.5 27.2059 L1798.5 34.2544 Q1801.17 30.163 1804.78 28.1376 Q1808.42 26.1121 1813.16 26.1121 Q1820.98 26.1121 1824.99 30.9732 Q1829 35.7938 1829 45.1919 Z" fill="#000000" fill-rule="nonzero" fill-opacity="1" /><path clip-path="url(#clip040)" d="M1878.34 65.6895 L1906.9 65.6895 L1906.9 72.576 L1868.5 72.576 L1868.5 65.6895 Q1873.16 60.8689 1881.18 52.7671 Q1889.24 44.6248 1891.3 42.2752 Q1895.23 37.8598 1896.77 34.8216 Q1898.35 31.7429 1898.35 28.7857 Q1898.35 23.9651 1894.95 20.927 Q1891.59 17.8888 1886.16 17.8888 Q1882.31 17.8888 1878.02 19.2256 Q1873.76 20.5624 1868.9 23.2765 L1868.9 15.0127 Q1873.85 13.0277 1878.14 12.015 Q1882.43 11.0023 1886 11.0023 Q1895.4 11.0023 1900.99 15.7013 Q1906.58 20.4004 1906.58 28.2591 Q1906.58 31.9859 1905.16 35.3482 Q1903.78 38.6699 1900.1 43.2069 Q1899.08 44.3817 1893.65 50.0125 Q1888.23 55.6027 1878.34 65.6895 Z" fill="#000000" fill-rule="nonzero" fill-opacity="1" /><path clip-path="url(#clip040)" d="M1941.58 17.4837 Q1935.26 17.4837 1932.06 23.7221 Q1928.9 29.92 1928.9 42.3968 Q1928.9 54.833 1932.06 61.0714 Q1935.26 67.2693 1941.58 67.2693 Q1947.94 67.2693 1951.1 61.0714 Q1954.3 54.833 1954.3 42.3968 Q1954.3 29.92 1951.1 23.7221 Q1947.94 17.4837 1941.58 17.4837 M1941.58 11.0023 Q1951.74 11.0023 1957.09 19.0636 Q1962.48 27.0843 1962.48 42.3968 Q1962.48 57.6687 1957.09 65.73 Q1951.74 73.7508 1941.58 73.7508 Q1931.41 73.7508 1926.02 65.73 Q1920.67 57.6687 1920.67 42.3968 Q1920.67 27.0843 1926.02 19.0636 Q1931.41 11.0023 1941.58 11.0023 Z" fill="#000000" fill-rule="nonzero" fill-opacity="1" /><path clip-path="url(#clip040)" d="M1974.63 9.62495 L1981.11 9.62495 Q1987.19 19.1851 1990.19 28.3401 Q1993.23 37.4952 1993.23 46.5287 Q1993.23 55.6027 1990.19 64.7983 Q1987.19 73.9938 1981.11 83.5134 L1974.63 83.5134 Q1980.02 74.2369 1982.65 65.0818 Q1985.33 55.8863 1985.33 46.5287 Q1985.33 37.1711 1982.65 28.0566 Q1980.02 18.942 1974.63 9.62495 Z" fill="#000000" fill-rule="nonzero" fill-opacity="1" /><circle clip-path="url(#clip042)" cx="309.224" cy="160.256" r="3.6" fill="#009af9" fill-rule="evenodd" fill-opacity="1" stroke="#000000" stroke-opacity="1" stroke-width="3.2"/>
<circle clip-path="url(#clip042)" cx="970.561" cy="315.834" r="3.6" fill="#009af9" fill-rule="evenodd" fill-opacity="1" stroke="#000000" stroke-opacity="1" stroke-width="3.2"/>
<circle clip-path="url(#clip042)" cx="1631.9" cy="1386.4" r="3.6" fill="#009af9" fill-rule="evenodd" fill-opacity="1" stroke="#000000" stroke-opacity="1" stroke-width="3.2"/>
<circle clip-path="url(#clip042)" cx="2293.24" cy="879.305" r="3.6" fill="#009af9" fill-rule="evenodd" fill-opacity="1" stroke="#000000" stroke-opacity="1" stroke-width="3.2"/>
<path clip-path="url(#clip040)" d="M1979.09 270.476 L2282.65 270.476 L2282.65 166.796 L1979.09 166.796  Z" fill="#ffffff" fill-rule="evenodd" fill-opacity="1"/>
<polyline clip-path="url(#clip040)" style="stroke:#000000; stroke-linecap:round; stroke-linejoin:round; stroke-width:4; stroke-opacity:1; fill:none" points="1979.09,270.476 2282.65,270.476 2282.65,166.796 1979.09,166.796 1979.09,270.476 "/>
<circle clip-path="url(#clip040)" cx="2072.55" cy="218.636" r="15.36" fill="#009af9" fill-rule="evenodd" fill-opacity="1" stroke="#000000" stroke-opacity="1" stroke-width="13.6533"/>
<path clip-path="url(#clip040)" d="M2166.02 201.356 L2172.99 201.356 L2181.81 224.874 L2190.68 201.356 L2197.64 201.356 L2197.64 235.916 L2193.08 235.916 L2193.08 205.569 L2184.17 229.272 L2179.47 229.272 L2170.56 205.569 L2170.56 235.916 L2166.02 235.916 L2166.02 201.356 Z" fill="#000000" fill-rule="nonzero" fill-opacity="1" /><path clip-path="url(#clip040)" d="M2227.64 202.49 L2227.64 207.05 Q2224.98 205.777 2222.62 205.152 Q2220.26 204.527 2218.06 204.527 Q2214.24 204.527 2212.16 206.008 Q2210.1 207.49 2210.1 210.221 Q2210.1 212.513 2211.46 213.694 Q2212.85 214.851 2216.69 215.569 L2219.52 216.147 Q2224.75 217.143 2227.23 219.666 Q2229.73 222.166 2229.73 226.379 Q2229.73 231.402 2226.35 233.994 Q2222.99 236.587 2216.49 236.587 Q2214.03 236.587 2211.25 236.031 Q2208.5 235.476 2205.54 234.388 L2205.54 229.573 Q2208.38 231.17 2211.12 231.981 Q2213.85 232.791 2216.49 232.791 Q2220.49 232.791 2222.67 231.217 Q2224.84 229.643 2224.84 226.726 Q2224.84 224.18 2223.27 222.744 Q2221.72 221.309 2218.15 220.592 L2215.31 220.036 Q2210.07 218.995 2207.74 216.772 Q2205.4 214.55 2205.4 210.592 Q2205.4 206.008 2208.62 203.37 Q2211.86 200.731 2217.53 200.731 Q2219.96 200.731 2222.48 201.171 Q2225 201.61 2227.64 202.49 Z" fill="#000000" fill-rule="nonzero" fill-opacity="1" /><path clip-path="url(#clip040)" d="M2237.02 201.356 L2258.87 201.356 L2258.87 205.291 L2241.69 205.291 L2241.69 215.522 L2258.15 215.522 L2258.15 219.457 L2241.69 219.457 L2241.69 231.981 L2259.29 231.981 L2259.29 235.916 L2237.02 235.916 L2237.02 201.356 Z" fill="#000000" fill-rule="nonzero" fill-opacity="1" /></svg>
