<?xml version="1.0" encoding="utf-8"?>
<svg xmlns="http://www.w3.org/2000/svg" xmlns:xlink="http://www.w3.org/1999/xlink" width="600" height="400" viewBox="0 0 2400 1600">
<defs>
  <clipPath id="clip340">
    <rect x="0" y="0" width="2400" height="1600"/>
  </clipPath>
</defs>
<path clip-path="url(#clip340)" d="M0 1600 L2400 1600 L2400 8.88178e-14 L0 8.88178e-14  Z" fill="#ffffff" fill-rule="evenodd" fill-opacity="1"/>
<defs>
  <clipPath id="clip341">
    <rect x="480" y="0" width="1681" height="1600"/>
  </clipPath>
</defs>
<path clip-path="url(#clip340)" d="M250.028 1423.18 L2352.76 1423.18 L2352.76 123.472 L250.028 123.472  Z" fill="#ffffff" fill-rule="evenodd" fill-opacity="1"/>
<defs>
  <clipPath id="clip342">
    <rect x="250" y="123" width="2104" height="1301"/>
  </clipPath>
</defs>
<polyline clip-path="url(#clip342)" style="stroke:#000000; stroke-linecap:round; stroke-linejoin:round; stroke-width:2; stroke-opacity:0.1; fill:none" points="309.539,1423.18 309.539,123.472 "/>
<polyline clip-path="url(#clip342)" style="stroke:#000000; stroke-linecap:round; stroke-linejoin:round; stroke-width:2; stroke-opacity:0.1; fill:none" points="970.774,1423.18 970.774,123.472 "/>
<polyline clip-path="url(#clip342)" style="stroke:#000000; stroke-linecap:round; stroke-linejoin:round; stroke-width:2; stroke-opacity:0.1; fill:none" points="1632.01,1423.18 1632.01,123.472 "/>
<polyline clip-path="url(#clip342)" style="stroke:#000000; stroke-linecap:round; stroke-linejoin:round; stroke-width:2; stroke-opacity:0.1; fill:none" points="2293.24,1423.18 2293.24,123.472 "/>
<polyline clip-path="url(#clip340)" style="stroke:#000000; stroke-linecap:round; stroke-linejoin:round; stroke-width:4; stroke-opacity:1; fill:none" points="250.028,1423.18 2352.76,1423.18 "/>
<polyline clip-path="url(#clip340)" style="stroke:#000000; stroke-linecap:round; stroke-linejoin:round; stroke-width:4; stroke-opacity:1; fill:none" points="309.539,1423.18 309.539,1404.28 "/>
<polyline clip-path="url(#clip340)" style="stroke:#000000; stroke-linecap:round; stroke-linejoin:round; stroke-width:4; stroke-opacity:1; fill:none" points="970.774,1423.18 970.774,1404.28 "/>
<polyline clip-path="url(#clip340)" style="stroke:#000000; stroke-linecap:round; stroke-linejoin:round; stroke-width:4; stroke-opacity:1; fill:none" points="1632.01,1423.18 1632.01,1404.28 "/>
<polyline clip-path="url(#clip340)" style="stroke:#000000; stroke-linecap:round; stroke-linejoin:round; stroke-width:4; stroke-opacity:1; fill:none" points="2293.24,1423.18 2293.24,1404.28 "/>
<path clip-path="url(#clip340)" d="M299.921 1481.64 L307.56 1481.64 L307.56 1455.28 L299.25 1456.95 L299.25 1452.69 L307.514 1451.02 L312.19 1451.02 L312.19 1481.64 L319.829 1481.64 L319.829 1485.58 L299.921 1485.58 L299.921 1481.64 Z" fill="#000000" fill-rule="nonzero" fill-opacity="1" /><path clip-path="url(#clip340)" d="M965.427 1481.64 L981.747 1481.64 L981.747 1485.58 L959.802 1485.58 L959.802 1481.64 Q962.464 1478.89 967.048 1474.26 Q971.654 1469.61 972.835 1468.27 Q975.08 1465.74 975.96 1464.01 Q976.862 1462.25 976.862 1460.56 Q976.862 1457.8 974.918 1456.07 Q972.997 1454.33 969.895 1454.33 Q967.696 1454.33 965.242 1455.09 Q962.812 1455.86 960.034 1457.41 L960.034 1452.69 Q962.858 1451.55 965.312 1450.97 Q967.765 1450.39 969.802 1450.39 Q975.173 1450.39 978.367 1453.08 Q981.561 1455.77 981.561 1460.26 Q981.561 1462.39 980.751 1464.31 Q979.964 1466.2 977.858 1468.8 Q977.279 1469.47 974.177 1472.69 Q971.075 1475.88 965.427 1481.64 Z" fill="#000000" fill-rule="nonzero" fill-opacity="1" /><path clip-path="url(#clip340)" d="M1636.26 1466.95 Q1639.61 1467.66 1641.49 1469.93 Q1643.39 1472.2 1643.39 1475.53 Q1643.39 1480.65 1639.87 1483.45 Q1636.35 1486.25 1629.87 1486.25 Q1627.69 1486.25 1625.38 1485.81 Q1623.09 1485.39 1620.63 1484.54 L1620.63 1480.02 Q1622.58 1481.16 1624.89 1481.74 Q1627.21 1482.32 1629.73 1482.32 Q1634.13 1482.32 1636.42 1480.58 Q1638.73 1478.84 1638.73 1475.53 Q1638.73 1472.48 1636.58 1470.77 Q1634.45 1469.03 1630.63 1469.03 L1626.6 1469.03 L1626.6 1465.19 L1630.82 1465.19 Q1634.27 1465.19 1636.1 1463.82 Q1637.92 1462.43 1637.92 1459.84 Q1637.92 1457.18 1636.03 1455.77 Q1634.15 1454.33 1630.63 1454.33 Q1628.71 1454.33 1626.51 1454.75 Q1624.31 1455.16 1621.67 1456.04 L1621.67 1451.88 Q1624.34 1451.14 1626.65 1450.77 Q1628.99 1450.39 1631.05 1450.39 Q1636.37 1450.39 1639.47 1452.83 Q1642.58 1455.23 1642.58 1459.35 Q1642.58 1462.22 1640.93 1464.21 Q1639.29 1466.18 1636.26 1466.95 Z" fill="#000000" fill-rule="nonzero" fill-opacity="1" /><path clip-path="url(#clip340)" d="M2296.25 1455.09 L2284.45 1473.54 L2296.25 1473.54 L2296.25 1455.09 M2295.03 1451.02 L2300.91 1451.02 L2300.91 1473.54 L2305.84 1473.54 L2305.84 1477.43 L2300.91 1477.43 L2300.91 1485.58 L2296.25 1485.58 L2296.25 1477.43 L2280.65 1477.43 L2280.65 1472.92 L2295.03 1451.02 Z" fill="#000000" fill-rule="nonzero" fill-opacity="1" /><path clip-path="url(#clip340)" d="M1005.61 1520.52 L1012.04 1520.52 L1012.04 1562.63 L1035.18 1562.63 L1035.18 1568.04 L1005.61 1568.04 L1005.61 1520.52 Z" fill="#000000" fill-rule="nonzero" fill-opacity="1" /><path clip-path="url(#clip340)" d="M1057.87 1550.12 Q1050.77 1550.12 1048.04 1551.75 Q1045.3 1553.37 1045.3 1557.29 Q1045.3 1560.4 1047.34 1562.25 Q1049.41 1564.07 1052.94 1564.07 Q1057.81 1564.07 1060.74 1560.63 Q1063.7 1557.16 1063.7 1551.43 L1063.7 1550.12 L1057.87 1550.12 M1069.55 1547.71 L1069.55 1568.04 L1063.7 1568.04 L1063.7 1562.63 Q1061.69 1565.88 1058.7 1567.44 Q1055.71 1568.97 1051.38 1568.97 Q1045.9 1568.97 1042.66 1565.91 Q1039.44 1562.82 1039.44 1557.67 Q1039.44 1551.65 1043.45 1548.6 Q1047.5 1545.54 1055.48 1545.54 L1063.7 1545.54 L1063.7 1544.97 Q1063.7 1540.93 1061.02 1538.73 Q1058.38 1536.5 1053.58 1536.5 Q1050.52 1536.5 1047.62 1537.23 Q1044.73 1537.97 1042.05 1539.43 L1042.05 1534.02 Q1045.27 1532.78 1048.29 1532.17 Q1051.32 1531.54 1054.18 1531.54 Q1061.91 1531.54 1065.73 1535.55 Q1069.55 1539.56 1069.55 1547.71 Z" fill="#000000" fill-rule="nonzero" fill-opacity="1" /><path clip-path="url(#clip340)" d="M1087.41 1522.27 L1087.41 1532.4 L1099.47 1532.4 L1099.47 1536.95 L1087.41 1536.95 L1087.41 1556.3 Q1087.41 1560.66 1088.59 1561.9 Q1089.8 1563.14 1093.46 1563.14 L1099.47 1563.14 L1099.47 1568.04 L1093.46 1568.04 Q1086.68 1568.04 1084.1 1565.53 Q1081.52 1562.98 1081.52 1556.3 L1081.52 1536.95 L1077.22 1536.95 L1077.22 1532.4 L1081.52 1532.4 L1081.52 1522.27 L1087.41 1522.27 Z" fill="#000000" fill-rule="nonzero" fill-opacity="1" /><path clip-path="url(#clip340)" d="M1137.67 1548.76 L1137.67 1551.62 L1110.74 1551.62 Q1111.12 1557.67 1114.37 1560.85 Q1117.65 1564 1123.47 1564 Q1126.84 1564 1130 1563.17 Q1133.18 1562.35 1136.3 1560.69 L1136.3 1566.23 Q1133.15 1567.57 1129.84 1568.27 Q1126.53 1568.97 1123.12 1568.97 Q1114.59 1568.97 1109.59 1564 Q1104.63 1559.04 1104.63 1550.57 Q1104.63 1541.82 1109.34 1536.69 Q1114.08 1531.54 1122.1 1531.54 Q1129.3 1531.54 1133.46 1536.18 Q1137.67 1540.8 1137.67 1548.76 M1131.81 1547.04 Q1131.75 1542.23 1129.1 1539.37 Q1126.49 1536.5 1122.17 1536.5 Q1117.26 1536.5 1114.3 1539.27 Q1111.38 1542.04 1110.93 1547.07 L1131.81 1547.04 Z" fill="#000000" fill-rule="nonzero" fill-opacity="1" /><path clip-path="url(#clip340)" d="M1176.91 1546.53 L1176.91 1568.04 L1171.05 1568.04 L1171.05 1546.72 Q1171.05 1541.66 1169.08 1539.14 Q1167.11 1536.63 1163.16 1536.63 Q1158.42 1536.63 1155.68 1539.65 Q1152.94 1542.68 1152.94 1547.9 L1152.94 1568.04 L1147.06 1568.04 L1147.06 1532.4 L1152.94 1532.4 L1152.94 1537.93 Q1155.04 1534.72 1157.88 1533.13 Q1160.74 1531.54 1164.47 1531.54 Q1170.61 1531.54 1173.76 1535.36 Q1176.91 1539.14 1176.91 1546.53 Z" fill="#000000" fill-rule="nonzero" fill-opacity="1" /><path clip-path="url(#clip340)" d="M1194.38 1522.27 L1194.38 1532.4 L1206.45 1532.4 L1206.45 1536.95 L1194.38 1536.95 L1194.38 1556.3 Q1194.38 1560.66 1195.56 1561.9 Q1196.77 1563.14 1200.43 1563.14 L1206.45 1563.14 L1206.45 1568.04 L1200.43 1568.04 Q1193.65 1568.04 1191.07 1565.53 Q1188.5 1562.98 1188.5 1556.3 L1188.5 1536.95 L1184.2 1536.95 L1184.2 1532.4 L1188.5 1532.4 L1188.5 1522.27 L1194.38 1522.27 Z" fill="#000000" fill-rule="nonzero" fill-opacity="1" /><path clip-path="url(#clip340)" d="M1258.33 1537.81 L1258.33 1518.52 L1264.18 1518.52 L1264.18 1568.04 L1258.33 1568.04 L1258.33 1562.7 Q1256.48 1565.88 1253.65 1567.44 Q1250.85 1568.97 1246.9 1568.97 Q1240.44 1568.97 1236.37 1563.81 Q1232.32 1558.65 1232.32 1550.25 Q1232.32 1541.85 1236.37 1536.69 Q1240.44 1531.54 1246.9 1531.54 Q1250.85 1531.54 1253.65 1533.1 Q1256.48 1534.62 1258.33 1537.81 M1238.37 1550.25 Q1238.37 1556.71 1241.01 1560.4 Q1243.69 1564.07 1248.33 1564.07 Q1252.98 1564.07 1255.65 1560.4 Q1258.33 1556.71 1258.33 1550.25 Q1258.33 1543.79 1255.65 1540.13 Q1252.98 1536.44 1248.33 1536.44 Q1243.69 1536.44 1241.01 1540.13 Q1238.37 1543.79 1238.37 1550.25 Z" fill="#000000" fill-rule="nonzero" fill-opacity="1" /><path clip-path="url(#clip340)" d="M1276.25 1532.4 L1282.1 1532.4 L1282.1 1568.04 L1276.25 1568.04 L1276.25 1532.4 M1276.25 1518.52 L1282.1 1518.52 L1282.1 1525.93 L1276.25 1525.93 L1276.25 1518.52 Z" fill="#000000" fill-rule="nonzero" fill-opacity="1" /><path clip-path="url(#clip340)" d="M1322.11 1539.24 Q1324.31 1535.29 1327.36 1533.41 Q1330.42 1531.54 1334.56 1531.54 Q1340.13 1531.54 1343.15 1535.45 Q1346.17 1539.33 1346.17 1546.53 L1346.17 1568.04 L1340.29 1568.04 L1340.29 1546.72 Q1340.29 1541.59 1338.47 1539.11 Q1336.66 1536.63 1332.93 1536.63 Q1328.38 1536.63 1325.74 1539.65 Q1323.1 1542.68 1323.1 1547.9 L1323.1 1568.04 L1317.21 1568.04 L1317.21 1546.72 Q1317.21 1541.56 1315.4 1539.11 Q1313.58 1536.63 1309.79 1536.63 Q1305.31 1536.63 1302.67 1539.68 Q1300.02 1542.71 1300.02 1547.9 L1300.02 1568.04 L1294.14 1568.04 L1294.14 1532.4 L1300.02 1532.4 L1300.02 1537.93 Q1302.03 1534.66 1304.83 1533.1 Q1307.63 1531.54 1311.48 1531.54 Q1315.36 1531.54 1318.07 1533.51 Q1320.81 1535.48 1322.11 1539.24 Z" fill="#000000" fill-rule="nonzero" fill-opacity="1" /><path clip-path="url(#clip340)" d="M1388.35 1548.76 L1388.35 1551.62 L1361.42 1551.62 Q1361.8 1557.67 1365.05 1560.85 Q1368.33 1564 1374.15 1564 Q1377.53 1564 1380.68 1563.17 Q1383.86 1562.35 1386.98 1560.69 L1386.98 1566.23 Q1383.83 1567.57 1380.52 1568.27 Q1377.21 1568.97 1373.8 1568.97 Q1365.27 1568.97 1360.27 1564 Q1355.31 1559.04 1355.31 1550.57 Q1355.31 1541.82 1360.02 1536.69 Q1364.76 1531.54 1372.78 1531.54 Q1379.98 1531.54 1384.15 1536.18 Q1388.35 1540.8 1388.35 1548.76 M1382.49 1547.04 Q1382.43 1542.23 1379.79 1539.37 Q1377.18 1536.5 1372.85 1536.5 Q1367.95 1536.5 1364.99 1539.27 Q1362.06 1542.04 1361.61 1547.07 L1382.49 1547.04 Z" fill="#000000" fill-rule="nonzero" fill-opacity="1" /><path clip-path="url(#clip340)" d="M1427.59 1546.53 L1427.59 1568.04 L1421.74 1568.04 L1421.74 1546.72 Q1421.74 1541.66 1419.76 1539.14 Q1417.79 1536.63 1413.84 1536.63 Q1409.1 1536.63 1406.36 1539.65 Q1403.63 1542.68 1403.63 1547.9 L1403.63 1568.04 L1397.74 1568.04 L1397.74 1532.4 L1403.63 1532.4 L1403.63 1537.93 Q1405.73 1534.72 1408.56 1533.13 Q1411.42 1531.54 1415.15 1531.54 Q1421.29 1531.54 1424.44 1535.36 Q1427.59 1539.14 1427.59 1546.53 Z" fill="#000000" fill-rule="nonzero" fill-opacity="1" /><path clip-path="url(#clip340)" d="M1462 1533.45 L1462 1538.98 Q1459.52 1537.71 1456.84 1537.07 Q1454.17 1536.44 1451.3 1536.44 Q1446.94 1536.44 1444.75 1537.77 Q1442.58 1539.11 1442.58 1541.79 Q1442.58 1543.82 1444.14 1545 Q1445.7 1546.15 1450.41 1547.2 L1452.42 1547.64 Q1458.66 1548.98 1461.27 1551.43 Q1463.91 1553.85 1463.91 1558.21 Q1463.91 1563.17 1459.96 1566.07 Q1456.05 1568.97 1449.17 1568.97 Q1446.31 1568.97 1443.19 1568.39 Q1440.1 1567.85 1436.66 1566.74 L1436.66 1560.69 Q1439.91 1562.38 1443.06 1563.24 Q1446.21 1564.07 1449.3 1564.07 Q1453.44 1564.07 1455.66 1562.66 Q1457.89 1561.23 1457.89 1558.65 Q1457.89 1556.27 1456.27 1554.99 Q1454.68 1553.72 1449.24 1552.54 L1447.2 1552.07 Q1441.76 1550.92 1439.34 1548.56 Q1436.92 1546.18 1436.92 1542.04 Q1436.92 1537.01 1440.48 1534.27 Q1444.05 1531.54 1450.6 1531.54 Q1453.85 1531.54 1456.72 1532.01 Q1459.58 1532.49 1462 1533.45 Z" fill="#000000" fill-rule="nonzero" fill-opacity="1" /><path clip-path="url(#clip340)" d="M1473.23 1532.4 L1479.09 1532.4 L1479.09 1568.04 L1473.23 1568.04 L1473.23 1532.4 M1473.23 1518.52 L1479.09 1518.52 L1479.09 1525.93 L1473.23 1525.93 L1473.23 1518.52 Z" fill="#000000" fill-rule="nonzero" fill-opacity="1" /><path clip-path="url(#clip340)" d="M1505.16 1536.5 Q1500.45 1536.5 1497.71 1540.19 Q1494.97 1543.85 1494.97 1550.25 Q1494.97 1556.65 1497.68 1560.34 Q1500.42 1564 1505.16 1564 Q1509.84 1564 1512.57 1560.31 Q1515.31 1556.62 1515.31 1550.25 Q1515.31 1543.92 1512.57 1540.23 Q1509.84 1536.5 1505.16 1536.5 M1505.16 1531.54 Q1512.8 1531.54 1517.16 1536.5 Q1521.52 1541.47 1521.52 1550.25 Q1521.52 1559 1517.16 1564 Q1512.8 1568.97 1505.16 1568.97 Q1497.49 1568.97 1493.13 1564 Q1488.8 1559 1488.8 1550.25 Q1488.8 1541.47 1493.13 1536.5 Q1497.49 1531.54 1505.16 1531.54 Z" fill="#000000" fill-rule="nonzero" fill-opacity="1" /><path clip-path="url(#clip340)" d="M1560.86 1546.53 L1560.86 1568.04 L1555 1568.04 L1555 1546.72 Q1555 1541.66 1553.03 1539.14 Q1551.06 1536.63 1547.11 1536.63 Q1542.37 1536.63 1539.63 1539.65 Q1536.89 1542.68 1536.89 1547.9 L1536.89 1568.04 L1531 1568.04 L1531 1532.4 L1536.89 1532.4 L1536.89 1537.93 Q1538.99 1534.72 1541.82 1533.13 Q1544.69 1531.54 1548.41 1531.54 Q1554.56 1531.54 1557.71 1535.36 Q1560.86 1539.14 1560.86 1546.53 Z" fill="#000000" fill-rule="nonzero" fill-opacity="1" /><path clip-path="url(#clip340)" d="M1595.26 1533.45 L1595.26 1538.98 Q1592.78 1537.71 1590.11 1537.07 Q1587.44 1536.44 1584.57 1536.44 Q1580.21 1536.44 1578.01 1537.77 Q1575.85 1539.11 1575.85 1541.79 Q1575.85 1543.82 1577.41 1545 Q1578.97 1546.15 1583.68 1547.2 L1585.68 1547.64 Q1591.92 1548.98 1594.53 1551.43 Q1597.17 1553.85 1597.17 1558.21 Q1597.17 1563.17 1593.23 1566.07 Q1589.31 1568.97 1582.44 1568.97 Q1579.57 1568.97 1576.45 1568.39 Q1573.37 1567.85 1569.93 1566.74 L1569.93 1560.69 Q1573.18 1562.38 1576.33 1563.24 Q1579.48 1564.07 1582.57 1564.07 Q1586.7 1564.07 1588.93 1562.66 Q1591.16 1561.23 1591.16 1558.65 Q1591.16 1556.27 1589.54 1554.99 Q1587.94 1553.72 1582.5 1552.54 L1580.46 1552.07 Q1575.02 1550.92 1572.6 1548.56 Q1570.18 1546.18 1570.18 1542.04 Q1570.18 1537.01 1573.75 1534.27 Q1577.31 1531.54 1583.87 1531.54 Q1587.12 1531.54 1589.98 1532.01 Q1592.85 1532.49 1595.26 1533.45 Z" fill="#000000" fill-rule="nonzero" fill-opacity="1" /><polyline clip-path="url(#clip342)" style="stroke:#000000; stroke-linecap:round; stroke-linejoin:round; stroke-width:2; stroke-opacity:0.1; fill:none" points="250.028,1216.22 2352.76,1216.22 "/>
<polyline clip-path="url(#clip342)" style="stroke:#000000; stroke-linecap:round; stroke-linejoin:round; stroke-width:2; stroke-opacity:0.1; fill:none" points="250.028,988.986 2352.76,988.986 "/>
<polyline clip-path="url(#clip342)" style="stroke:#000000; stroke-linecap:round; stroke-linejoin:round; stroke-width:2; stroke-opacity:0.1; fill:none" points="250.028,761.753 2352.76,761.753 "/>
<polyline clip-path="url(#clip342)" style="stroke:#000000; stroke-linecap:round; stroke-linejoin:round; stroke-width:2; stroke-opacity:0.1; fill:none" points="250.028,534.52 2352.76,534.52 "/>
<polyline clip-path="url(#clip342)" style="stroke:#000000; stroke-linecap:round; stroke-linejoin:round; stroke-width:2; stroke-opacity:0.1; fill:none" points="250.028,307.287 2352.76,307.287 "/>
<polyline clip-path="url(#clip340)" style="stroke:#000000; stroke-linecap:round; stroke-linejoin:round; stroke-width:4; stroke-opacity:1; fill:none" points="250.028,1423.18 250.028,123.472 "/>
<polyline clip-path="url(#clip340)" style="stroke:#000000; stroke-linecap:round; stroke-linejoin:round; stroke-width:4; stroke-opacity:1; fill:none" points="250.028,1216.22 268.926,1216.22 "/>
<polyline clip-path="url(#clip340)" style="stroke:#000000; stroke-linecap:round; stroke-linejoin:round; stroke-width:4; stroke-opacity:1; fill:none" points="250.028,988.986 268.926,988.986 "/>
<polyline clip-path="url(#clip340)" style="stroke:#000000; stroke-linecap:round; stroke-linejoin:round; stroke-width:4; stroke-opacity:1; fill:none" points="250.028,761.753 268.926,761.753 "/>
<polyline clip-path="url(#clip340)" style="stroke:#000000; stroke-linecap:round; stroke-linejoin:round; stroke-width:4; stroke-opacity:1; fill:none" points="250.028,534.52 268.926,534.52 "/>
<polyline clip-path="url(#clip340)" style="stroke:#000000; stroke-linecap:round; stroke-linejoin:round; stroke-width:4; stroke-opacity:1; fill:none" points="250.028,307.287 268.926,307.287 "/>
<path clip-path="url(#clip340)" d="M126.205 1202.02 Q122.593 1202.02 120.765 1205.58 Q118.959 1209.12 118.959 1216.25 Q118.959 1223.36 120.765 1226.93 Q122.593 1230.47 126.205 1230.47 Q129.839 1230.47 131.644 1226.93 Q133.473 1223.36 133.473 1216.25 Q133.473 1209.12 131.644 1205.58 Q129.839 1202.02 126.205 1202.02 M126.205 1198.31 Q132.015 1198.31 135.07 1202.92 Q138.149 1207.5 138.149 1216.25 Q138.149 1224.98 135.07 1229.59 Q132.015 1234.17 126.205 1234.17 Q120.394 1234.17 117.316 1229.59 Q114.26 1224.98 114.26 1216.25 Q114.26 1207.5 117.316 1202.92 Q120.394 1198.31 126.205 1198.31 Z" fill="#000000" fill-rule="nonzero" fill-opacity="1" /><path clip-path="url(#clip340)" d="M146.366 1227.62 L151.251 1227.62 L151.251 1233.5 L146.366 1233.5 L146.366 1227.62 Z" fill="#000000" fill-rule="nonzero" fill-opacity="1" /><path clip-path="url(#clip340)" d="M165.464 1229.56 L181.783 1229.56 L181.783 1233.5 L159.839 1233.5 L159.839 1229.56 Q162.501 1226.81 167.084 1222.18 Q171.69 1217.53 172.871 1216.18 Q175.116 1213.66 175.996 1211.93 Q176.899 1210.17 176.899 1208.48 Q176.899 1205.72 174.954 1203.99 Q173.033 1202.25 169.931 1202.25 Q167.732 1202.25 165.278 1203.01 Q162.848 1203.78 160.07 1205.33 L160.07 1200.61 Q162.894 1199.47 165.348 1198.89 Q167.802 1198.31 169.839 1198.31 Q175.209 1198.31 178.403 1201 Q181.598 1203.68 181.598 1208.18 Q181.598 1210.31 180.788 1212.23 Q180.001 1214.12 177.894 1216.72 Q177.315 1217.39 174.214 1220.61 Q171.112 1223.8 165.464 1229.56 Z" fill="#000000" fill-rule="nonzero" fill-opacity="1" /><path clip-path="url(#clip340)" d="M204.445 1203.01 L192.639 1221.46 L204.445 1221.46 L204.445 1203.01 M203.218 1198.94 L209.098 1198.94 L209.098 1221.46 L214.028 1221.46 L214.028 1225.35 L209.098 1225.35 L209.098 1233.5 L204.445 1233.5 L204.445 1225.35 L188.843 1225.35 L188.843 1220.84 L203.218 1198.94 Z" fill="#000000" fill-rule="nonzero" fill-opacity="1" /><path clip-path="url(#clip340)" d="M126.529 974.785 Q122.918 974.785 121.089 978.35 Q119.283 981.892 119.283 989.021 Q119.283 996.128 121.089 999.692 Q122.918 1003.23 126.529 1003.23 Q130.163 1003.23 131.968 999.692 Q133.797 996.128 133.797 989.021 Q133.797 981.892 131.968 978.35 Q130.163 974.785 126.529 974.785 M126.529 971.081 Q132.339 971.081 135.394 975.688 Q138.473 980.271 138.473 989.021 Q138.473 997.748 135.394 1002.35 Q132.339 1006.94 126.529 1006.94 Q120.718 1006.94 117.64 1002.35 Q114.584 997.748 114.584 989.021 Q114.584 980.271 117.64 975.688 Q120.718 971.081 126.529 971.081 Z" fill="#000000" fill-rule="nonzero" fill-opacity="1" /><path clip-path="url(#clip340)" d="M146.691 1000.39 L151.575 1000.39 L151.575 1006.27 L146.691 1006.27 L146.691 1000.39 Z" fill="#000000" fill-rule="nonzero" fill-opacity="1" /><path clip-path="url(#clip340)" d="M165.788 1002.33 L182.107 1002.33 L182.107 1006.27 L160.163 1006.27 L160.163 1002.33 Q162.825 999.577 167.408 994.947 Q172.014 990.294 173.195 988.952 Q175.44 986.429 176.32 984.692 Q177.223 982.933 177.223 981.243 Q177.223 978.489 175.278 976.753 Q173.357 975.017 170.255 975.017 Q168.056 975.017 165.602 975.78 Q163.172 976.544 160.394 978.095 L160.394 973.373 Q163.218 972.239 165.672 971.66 Q168.126 971.081 170.163 971.081 Q175.533 971.081 178.727 973.767 Q181.922 976.452 181.922 980.942 Q181.922 983.072 181.112 984.993 Q180.325 986.892 178.218 989.484 Q177.639 990.155 174.538 993.373 Q171.436 996.567 165.788 1002.33 Z" fill="#000000" fill-rule="nonzero" fill-opacity="1" /><path clip-path="url(#clip340)" d="M202.5 987.123 Q199.352 987.123 197.5 989.276 Q195.672 991.429 195.672 995.179 Q195.672 998.905 197.5 1001.08 Q199.352 1003.23 202.5 1003.23 Q205.649 1003.23 207.477 1001.08 Q209.329 998.905 209.329 995.179 Q209.329 991.429 207.477 989.276 Q205.649 987.123 202.5 987.123 M211.783 972.47 L211.783 976.73 Q210.024 975.896 208.218 975.456 Q206.436 975.017 204.676 975.017 Q200.047 975.017 197.593 978.142 Q195.163 981.267 194.815 987.586 Q196.181 985.572 198.241 984.507 Q200.301 983.419 202.778 983.419 Q207.987 983.419 210.996 986.591 Q214.028 989.739 214.028 995.179 Q214.028 1000.5 210.88 1003.72 Q207.732 1006.94 202.5 1006.94 Q196.505 1006.94 193.334 1002.35 Q190.163 997.748 190.163 989.021 Q190.163 980.827 194.051 975.966 Q197.94 971.081 204.491 971.081 Q206.25 971.081 208.033 971.429 Q209.838 971.776 211.783 972.47 Z" fill="#000000" fill-rule="nonzero" fill-opacity="1" /><path clip-path="url(#clip340)" d="M126.783 747.552 Q123.172 747.552 121.343 751.117 Q119.538 754.658 119.538 761.788 Q119.538 768.894 121.343 772.459 Q123.172 776.001 126.783 776.001 Q130.417 776.001 132.223 772.459 Q134.052 768.894 134.052 761.788 Q134.052 754.658 132.223 751.117 Q130.417 747.552 126.783 747.552 M126.783 743.848 Q132.593 743.848 135.649 748.455 Q138.728 753.038 138.728 761.788 Q138.728 770.515 135.649 775.121 Q132.593 779.705 126.783 779.705 Q120.973 779.705 117.894 775.121 Q114.839 770.515 114.839 761.788 Q114.839 753.038 117.894 748.455 Q120.973 743.848 126.783 743.848 Z" fill="#000000" fill-rule="nonzero" fill-opacity="1" /><path clip-path="url(#clip340)" d="M146.945 773.154 L151.829 773.154 L151.829 779.033 L146.945 779.033 L146.945 773.154 Z" fill="#000000" fill-rule="nonzero" fill-opacity="1" /><path clip-path="url(#clip340)" d="M166.042 775.098 L182.362 775.098 L182.362 779.033 L160.417 779.033 L160.417 775.098 Q163.079 772.343 167.663 767.714 Q172.269 763.061 173.45 761.718 Q175.695 759.195 176.575 757.459 Q177.477 755.7 177.477 754.01 Q177.477 751.256 175.533 749.519 Q173.612 747.783 170.51 747.783 Q168.311 747.783 165.857 748.547 Q163.427 749.311 160.649 750.862 L160.649 746.14 Q163.473 745.006 165.927 744.427 Q168.38 743.848 170.417 743.848 Q175.788 743.848 178.982 746.533 Q182.176 749.219 182.176 753.709 Q182.176 755.839 181.366 757.76 Q180.579 759.658 178.473 762.251 Q177.894 762.922 174.792 766.14 Q171.69 769.334 166.042 775.098 Z" fill="#000000" fill-rule="nonzero" fill-opacity="1" /><path clip-path="url(#clip340)" d="M202.176 762.621 Q198.843 762.621 196.922 764.404 Q195.024 766.186 195.024 769.311 Q195.024 772.436 196.922 774.218 Q198.843 776.001 202.176 776.001 Q205.51 776.001 207.431 774.218 Q209.352 772.413 209.352 769.311 Q209.352 766.186 207.431 764.404 Q205.533 762.621 202.176 762.621 M197.5 760.631 Q194.491 759.89 192.801 757.83 Q191.135 755.769 191.135 752.807 Q191.135 748.663 194.075 746.256 Q197.037 743.848 202.176 743.848 Q207.338 743.848 210.278 746.256 Q213.218 748.663 213.218 752.807 Q213.218 755.769 211.528 757.83 Q209.861 759.89 206.875 760.631 Q210.255 761.418 212.13 763.709 Q214.028 766.001 214.028 769.311 Q214.028 774.334 210.949 777.019 Q207.894 779.705 202.176 779.705 Q196.459 779.705 193.38 777.019 Q190.325 774.334 190.325 769.311 Q190.325 766.001 192.223 763.709 Q194.121 761.418 197.5 760.631 M195.787 753.246 Q195.787 755.931 197.454 757.436 Q199.144 758.941 202.176 758.941 Q205.186 758.941 206.875 757.436 Q208.588 755.931 208.588 753.246 Q208.588 750.561 206.875 749.057 Q205.186 747.552 202.176 747.552 Q199.144 747.552 197.454 749.057 Q195.787 750.561 195.787 753.246 Z" fill="#000000" fill-rule="nonzero" fill-opacity="1" /><path clip-path="url(#clip340)" d="M126.691 520.319 Q123.08 520.319 121.251 523.883 Q119.445 527.425 119.445 534.555 Q119.445 541.661 121.251 545.226 Q123.08 548.768 126.691 548.768 Q130.325 548.768 132.13 545.226 Q133.959 541.661 133.959 534.555 Q133.959 527.425 132.13 523.883 Q130.325 520.319 126.691 520.319 M126.691 516.615 Q132.501 516.615 135.556 521.221 Q138.635 525.805 138.635 534.555 Q138.635 543.282 135.556 547.888 Q132.501 552.471 126.691 552.471 Q120.88 552.471 117.802 547.888 Q114.746 543.282 114.746 534.555 Q114.746 525.805 117.802 521.221 Q120.88 516.615 126.691 516.615 Z" fill="#000000" fill-rule="nonzero" fill-opacity="1" /><path clip-path="url(#clip340)" d="M146.853 545.92 L151.737 545.92 L151.737 551.8 L146.853 551.8 L146.853 545.92 Z" fill="#000000" fill-rule="nonzero" fill-opacity="1" /><path clip-path="url(#clip340)" d="M176.089 533.166 Q179.445 533.883 181.32 536.152 Q183.218 538.42 183.218 541.754 Q183.218 546.869 179.7 549.67 Q176.181 552.471 169.7 552.471 Q167.524 552.471 165.209 552.031 Q162.917 551.615 160.464 550.758 L160.464 546.244 Q162.408 547.379 164.723 547.957 Q167.038 548.536 169.561 548.536 Q173.959 548.536 176.251 546.8 Q178.565 545.064 178.565 541.754 Q178.565 538.698 176.413 536.985 Q174.283 535.249 170.464 535.249 L166.436 535.249 L166.436 531.407 L170.649 531.407 Q174.098 531.407 175.926 530.041 Q177.755 528.652 177.755 526.059 Q177.755 523.397 175.857 521.985 Q173.982 520.55 170.464 520.55 Q168.542 520.55 166.343 520.967 Q164.144 521.383 161.505 522.263 L161.505 518.096 Q164.167 517.356 166.482 516.985 Q168.82 516.615 170.88 516.615 Q176.204 516.615 179.306 519.046 Q182.408 521.453 182.408 525.573 Q182.408 528.444 180.764 530.434 Q179.121 532.402 176.089 533.166 Z" fill="#000000" fill-rule="nonzero" fill-opacity="1" /><path clip-path="url(#clip340)" d="M202.084 520.319 Q198.473 520.319 196.644 523.883 Q194.838 527.425 194.838 534.555 Q194.838 541.661 196.644 545.226 Q198.473 548.768 202.084 548.768 Q205.718 548.768 207.524 545.226 Q209.352 541.661 209.352 534.555 Q209.352 527.425 207.524 523.883 Q205.718 520.319 202.084 520.319 M202.084 516.615 Q207.894 516.615 210.949 521.221 Q214.028 525.805 214.028 534.555 Q214.028 543.282 210.949 547.888 Q207.894 552.471 202.084 552.471 Q196.274 552.471 193.195 547.888 Q190.139 543.282 190.139 534.555 Q190.139 525.805 193.195 521.221 Q196.274 516.615 202.084 516.615 Z" fill="#000000" fill-rule="nonzero" fill-opacity="1" /><path clip-path="url(#clip340)" d="M128.288 293.085 Q124.677 293.085 122.848 296.65 Q121.043 300.192 121.043 307.321 Q121.043 314.428 122.848 317.993 Q124.677 321.534 128.288 321.534 Q131.922 321.534 133.728 317.993 Q135.556 314.428 135.556 307.321 Q135.556 300.192 133.728 296.65 Q131.922 293.085 128.288 293.085 M128.288 289.382 Q134.098 289.382 137.154 293.988 Q140.232 298.572 140.232 307.321 Q140.232 316.048 137.154 320.655 Q134.098 325.238 128.288 325.238 Q122.478 325.238 119.399 320.655 Q116.343 316.048 116.343 307.321 Q116.343 298.572 119.399 293.988 Q122.478 289.382 128.288 289.382 Z" fill="#000000" fill-rule="nonzero" fill-opacity="1" /><path clip-path="url(#clip340)" d="M148.45 318.687 L153.334 318.687 L153.334 324.567 L148.45 324.567 L148.45 318.687 Z" fill="#000000" fill-rule="nonzero" fill-opacity="1" /><path clip-path="url(#clip340)" d="M177.686 305.933 Q181.042 306.65 182.917 308.919 Q184.815 311.187 184.815 314.521 Q184.815 319.636 181.297 322.437 Q177.778 325.238 171.297 325.238 Q169.121 325.238 166.806 324.798 Q164.515 324.382 162.061 323.525 L162.061 319.011 Q164.005 320.146 166.32 320.724 Q168.635 321.303 171.158 321.303 Q175.556 321.303 177.848 319.567 Q180.163 317.831 180.163 314.521 Q180.163 311.465 178.01 309.752 Q175.88 308.016 172.061 308.016 L168.033 308.016 L168.033 304.173 L172.246 304.173 Q175.695 304.173 177.524 302.808 Q179.352 301.419 179.352 298.826 Q179.352 296.164 177.454 294.752 Q175.579 293.317 172.061 293.317 Q170.139 293.317 167.94 293.734 Q165.741 294.15 163.102 295.03 L163.102 290.863 Q165.765 290.123 168.079 289.752 Q170.417 289.382 172.477 289.382 Q177.801 289.382 180.903 291.812 Q184.005 294.22 184.005 298.34 Q184.005 301.21 182.362 303.201 Q180.718 305.169 177.686 305.933 Z" fill="#000000" fill-rule="nonzero" fill-opacity="1" /><path clip-path="url(#clip340)" d="M197.709 320.632 L214.028 320.632 L214.028 324.567 L192.084 324.567 L192.084 320.632 Q194.746 317.877 199.329 313.247 Q203.936 308.595 205.116 307.252 Q207.362 304.729 208.241 302.993 Q209.144 301.234 209.144 299.544 Q209.144 296.789 207.199 295.053 Q205.278 293.317 202.176 293.317 Q199.977 293.317 197.524 294.081 Q195.093 294.845 192.315 296.396 L192.315 291.673 Q195.139 290.539 197.593 289.96 Q200.047 289.382 202.084 289.382 Q207.454 289.382 210.649 292.067 Q213.843 294.752 213.843 299.243 Q213.843 301.372 213.033 303.294 Q212.246 305.192 210.139 307.784 Q209.561 308.456 206.459 311.673 Q203.357 314.868 197.709 320.632 Z" fill="#000000" fill-rule="nonzero" fill-opacity="1" /><path clip-path="url(#clip340)" d="M16.4842 837.445 L16.4842 827.864 L48.8219 815.738 L16.4842 803.547 L16.4842 793.967 L64.0042 793.967 L64.0042 800.237 L22.277 800.237 L54.8694 812.491 L54.8694 818.952 L22.277 831.206 L64.0042 831.206 L64.0042 837.445 L16.4842 837.445 Z" fill="#000000" fill-rule="nonzero" fill-opacity="1" /><path clip-path="url(#clip340)" d="M18.0438 752.717 L24.314 752.717 Q22.5634 756.377 21.704 759.624 Q20.8447 762.87 20.8447 765.894 Q20.8447 771.146 22.8817 774.01 Q24.9187 776.843 28.6745 776.843 Q31.8255 776.843 33.4488 774.965 Q35.0402 773.055 36.0269 767.772 L36.8226 763.889 Q38.1912 756.696 41.6605 753.29 Q45.098 749.852 50.8908 749.852 Q57.7976 749.852 61.3624 754.499 Q64.9272 759.115 64.9272 768.058 Q64.9272 771.432 64.1633 775.252 Q63.3994 779.039 61.9035 783.113 L55.2831 783.113 Q57.4793 779.198 58.5933 775.443 Q59.7073 771.687 59.7073 768.058 Q59.7073 762.552 57.543 759.56 Q55.3786 756.568 51.3682 756.568 Q47.8671 756.568 45.8937 758.733 Q43.9204 760.865 42.9337 765.767 L42.1698 769.682 Q40.7375 776.875 37.682 780.09 Q34.6264 783.304 29.1837 783.304 Q22.8817 783.304 19.2532 778.88 Q15.6248 774.424 15.6248 766.626 Q15.6248 763.284 16.2295 759.815 Q16.8343 756.345 18.0438 752.717 Z" fill="#000000" fill-rule="nonzero" fill-opacity="1" /><path clip-path="url(#clip340)" d="M16.4842 739.826 L16.4842 709.78 L21.895 709.78 L21.895 733.397 L35.9632 733.397 L35.9632 710.767 L41.3741 710.767 L41.3741 733.397 L58.5933 733.397 L58.5933 709.207 L64.0042 709.207 L64.0042 739.826 L16.4842 739.826 Z" fill="#000000" fill-rule="nonzero" fill-opacity="1" /><path clip-path="url(#clip340)" d="M635.788 12.096 L647.981 12.096 L663.415 53.2532 L678.93 12.096 L691.123 12.096 L691.123 72.576 L683.143 72.576 L683.143 19.4686 L667.547 60.9499 L659.324 60.9499 L643.728 19.4686 L643.728 72.576 L635.788 72.576 L635.788 12.096 Z" fill="#000000" fill-rule="nonzero" fill-opacity="1" /><path clip-path="url(#clip340)" d="M745.851 48.0275 L745.851 51.6733 L711.58 51.6733 Q712.066 59.3701 716.198 63.421 Q720.371 67.4314 727.784 67.4314 Q732.078 67.4314 736.088 66.3781 Q740.139 65.3249 744.109 63.2184 L744.109 70.267 Q740.099 71.9684 735.886 72.8596 Q731.673 73.7508 727.338 73.7508 Q716.482 73.7508 710.122 67.4314 Q703.803 61.1119 703.803 50.3365 Q703.803 39.1965 709.798 32.6746 Q715.834 26.1121 726.042 26.1121 Q735.197 26.1121 740.504 32.0264 Q745.851 37.9003 745.851 48.0275 M738.397 45.84 Q738.316 39.7232 734.954 36.0774 Q731.632 32.4315 726.123 32.4315 Q719.885 32.4315 716.117 35.9558 Q712.391 39.4801 711.823 45.8805 L738.397 45.84 Z" fill="#000000" fill-rule="nonzero" fill-opacity="1" /><path clip-path="url(#clip340)" d="M778.704 49.7694 Q769.67 49.7694 766.187 51.8354 Q762.703 53.9013 762.703 58.8839 Q762.703 62.8538 765.295 65.2034 Q767.928 67.5124 772.425 67.5124 Q778.623 67.5124 782.35 63.1374 Q786.117 58.7219 786.117 51.4303 L786.117 49.7694 L778.704 49.7694 M793.571 46.6907 L793.571 72.576 L786.117 72.576 L786.117 65.6895 Q783.565 69.8214 779.757 71.8063 Q775.949 73.7508 770.44 73.7508 Q763.472 73.7508 759.341 69.8619 Q755.249 65.9325 755.249 59.3701 Q755.249 51.7138 760.353 47.825 Q765.498 43.9361 775.666 43.9361 L786.117 43.9361 L786.117 43.2069 Q786.117 38.0623 782.714 35.2672 Q779.352 32.4315 773.235 32.4315 Q769.346 32.4315 765.66 33.3632 Q761.974 34.295 758.571 36.1584 L758.571 29.2718 Q762.662 27.692 766.511 26.9223 Q770.359 26.1121 774.005 26.1121 Q783.849 26.1121 788.71 31.2163 Q793.571 36.3204 793.571 46.6907 Z" fill="#000000" fill-rule="nonzero" fill-opacity="1" /><path clip-path="url(#clip340)" d="M846.638 45.1919 L846.638 72.576 L839.184 72.576 L839.184 45.4349 Q839.184 38.994 836.672 35.7938 Q834.161 32.5936 829.138 32.5936 Q823.102 32.5936 819.618 36.4419 Q816.134 40.2903 816.134 46.9338 L816.134 72.576 L808.64 72.576 L808.64 27.2059 L816.134 27.2059 L816.134 34.2544 Q818.808 30.163 822.413 28.1376 Q826.059 26.1121 830.798 26.1121 Q838.617 26.1121 842.627 30.9732 Q846.638 35.7938 846.638 45.1919 Z" fill="#000000" fill-rule="nonzero" fill-opacity="1" /><path clip-path="url(#clip340)" d="M924.455 14.0809 L924.455 22.0612 Q919.797 19.8332 915.665 18.7395 Q911.533 17.6457 907.685 17.6457 Q901.001 17.6457 897.355 20.2383 Q893.75 22.8309 893.75 27.611 Q893.75 31.6214 896.14 33.6873 Q898.57 35.7128 905.295 36.9686 L910.237 37.9813 Q919.392 39.7232 923.726 44.1387 Q928.101 48.5136 928.101 55.8863 Q928.101 64.6767 922.187 69.2137 Q916.313 73.7508 904.93 73.7508 Q900.636 73.7508 895.775 72.7785 Q890.954 71.8063 885.769 69.9024 L885.769 61.4765 Q890.752 64.2716 895.532 65.6895 Q900.312 67.1073 904.93 67.1073 Q911.938 67.1073 915.746 64.3527 Q919.554 61.598 919.554 56.4939 Q919.554 52.0379 916.799 49.5264 Q914.085 47.0148 907.847 45.759 L902.864 44.7868 Q893.709 42.9639 889.618 39.075 Q885.526 35.1862 885.526 28.2591 Q885.526 20.2383 891.157 15.6203 Q896.828 11.0023 906.753 11.0023 Q911.006 11.0023 915.422 11.7719 Q919.837 12.5416 924.455 14.0809 Z" fill="#000000" fill-rule="nonzero" fill-opacity="1" /><path clip-path="url(#clip340)" d="M944.993 49.9314 Q944.993 58.1548 948.356 62.8538 Q951.758 67.5124 957.673 67.5124 Q963.587 67.5124 966.99 62.8538 Q970.393 58.1548 970.393 49.9314 Q970.393 41.7081 966.99 37.0496 Q963.587 32.3505 957.673 32.3505 Q951.758 32.3505 948.356 37.0496 Q944.993 41.7081 944.993 49.9314 M970.393 65.7705 Q968.043 69.8214 964.438 71.8063 Q960.873 73.7508 955.85 73.7508 Q947.627 73.7508 942.441 67.1883 Q937.297 60.6258 937.297 49.9314 Q937.297 39.2371 942.441 32.6746 Q947.627 26.1121 955.85 26.1121 Q960.873 26.1121 964.438 28.0971 Q968.043 30.0415 970.393 34.0924 L970.393 27.2059 L977.846 27.2059 L977.846 89.8329 L970.393 89.8329 L970.393 65.7705 Z" fill="#000000" fill-rule="nonzero" fill-opacity="1" /><path clip-path="url(#clip340)" d="M992.43 54.671 L992.43 27.2059 L999.883 27.2059 L999.883 54.3874 Q999.883 60.8284 1002.39 64.0691 Q1004.91 67.2693 1009.93 67.2693 Q1015.97 67.2693 1019.45 63.421 Q1022.97 59.5726 1022.97 52.9291 L1022.97 27.2059 L1030.43 27.2059 L1030.43 72.576 L1022.97 72.576 L1022.97 65.6084 Q1020.26 69.7404 1016.65 71.7658 Q1013.09 73.7508 1008.35 73.7508 Q1000.53 73.7508 996.48 68.8897 Q992.43 64.0286 992.43 54.671 M1011.19 26.1121 L1011.19 26.1121 Z" fill="#000000" fill-rule="nonzero" fill-opacity="1" /><path clip-path="url(#clip340)" d="M1066.4 49.7694 Q1057.37 49.7694 1053.88 51.8354 Q1050.4 53.9013 1050.4 58.8839 Q1050.4 62.8538 1052.99 65.2034 Q1055.62 67.5124 1060.12 67.5124 Q1066.32 67.5124 1070.04 63.1374 Q1073.81 58.7219 1073.81 51.4303 L1073.81 49.7694 L1066.4 49.7694 M1081.27 46.6907 L1081.27 72.576 L1073.81 72.576 L1073.81 65.6895 Q1071.26 69.8214 1067.45 71.8063 Q1063.64 73.7508 1058.14 73.7508 Q1051.17 73.7508 1047.04 69.8619 Q1042.94 65.9325 1042.94 59.3701 Q1042.94 51.7138 1048.05 47.825 Q1053.19 43.9361 1063.36 43.9361 L1073.81 43.9361 L1073.81 43.2069 Q1073.81 38.0623 1070.41 35.2672 Q1067.05 32.4315 1060.93 32.4315 Q1057.04 32.4315 1053.36 33.3632 Q1049.67 34.295 1046.27 36.1584 L1046.27 29.2718 Q1050.36 27.692 1054.21 26.9223 Q1058.05 26.1121 1061.7 26.1121 Q1071.54 26.1121 1076.4 31.2163 Q1081.27 36.3204 1081.27 46.6907 Z" fill="#000000" fill-rule="nonzero" fill-opacity="1" /><path clip-path="url(#clip340)" d="M1122.91 34.1734 Q1121.65 33.4443 1120.15 33.1202 Q1118.7 32.7556 1116.91 32.7556 Q1110.59 32.7556 1107.19 36.8875 Q1103.83 40.9789 1103.83 48.6757 L1103.83 72.576 L1096.34 72.576 L1096.34 27.2059 L1103.83 27.2059 L1103.83 34.2544 Q1106.18 30.1225 1109.95 28.1376 Q1113.71 26.1121 1119.1 26.1121 Q1119.87 26.1121 1120.8 26.2337 Q1121.73 26.3147 1122.87 26.5172 L1122.91 34.1734 Z" fill="#000000" fill-rule="nonzero" fill-opacity="1" /><path clip-path="url(#clip340)" d="M1167.71 48.0275 L1167.71 51.6733 L1133.44 51.6733 Q1133.93 59.3701 1138.06 63.421 Q1142.23 67.4314 1149.65 67.4314 Q1153.94 67.4314 1157.95 66.3781 Q1162 65.3249 1165.97 63.2184 L1165.97 70.267 Q1161.96 71.9684 1157.75 72.8596 Q1153.53 73.7508 1149.2 73.7508 Q1138.34 73.7508 1131.98 67.4314 Q1125.66 61.1119 1125.66 50.3365 Q1125.66 39.1965 1131.66 32.6746 Q1137.69 26.1121 1147.9 26.1121 Q1157.06 26.1121 1162.36 32.0264 Q1167.71 37.9003 1167.71 48.0275 M1160.26 45.84 Q1160.18 39.7232 1156.82 36.0774 Q1153.49 32.4315 1147.98 32.4315 Q1141.75 32.4315 1137.98 35.9558 Q1134.25 39.4801 1133.68 45.8805 L1160.26 45.84 Z" fill="#000000" fill-rule="nonzero" fill-opacity="1" /><path clip-path="url(#clip340)" d="M1209.8 34.0924 L1209.8 9.54393 L1217.25 9.54393 L1217.25 72.576 L1209.8 72.576 L1209.8 65.7705 Q1207.45 69.8214 1203.85 71.8063 Q1200.28 73.7508 1195.26 73.7508 Q1187.03 73.7508 1181.85 67.1883 Q1176.71 60.6258 1176.71 49.9314 Q1176.71 39.2371 1181.85 32.6746 Q1187.03 26.1121 1195.26 26.1121 Q1200.28 26.1121 1203.85 28.0971 Q1207.45 30.0415 1209.8 34.0924 M1184.4 49.9314 Q1184.4 58.1548 1187.76 62.8538 Q1191.17 67.5124 1197.08 67.5124 Q1203 67.5124 1206.4 62.8538 Q1209.8 58.1548 1209.8 49.9314 Q1209.8 41.7081 1206.4 37.0496 Q1203 32.3505 1197.08 32.3505 Q1191.17 32.3505 1187.76 37.0496 Q1184.4 41.7081 1184.4 49.9314 Z" fill="#000000" fill-rule="nonzero" fill-opacity="1" /><path clip-path="url(#clip340)" d="M1259.3 12.096 L1297.54 12.096 L1297.54 18.9825 L1267.49 18.9825 L1267.49 36.8875 L1296.29 36.8875 L1296.29 43.7741 L1267.49 43.7741 L1267.49 65.6895 L1298.27 65.6895 L1298.27 72.576 L1259.3 72.576 L1259.3 12.096 Z" fill="#000000" fill-rule="nonzero" fill-opacity="1" /><path clip-path="url(#clip340)" d="M1337.69 34.1734 Q1336.43 33.4443 1334.93 33.1202 Q1333.48 32.7556 1331.69 32.7556 Q1325.37 32.7556 1321.97 36.8875 Q1318.61 40.9789 1318.61 48.6757 L1318.61 72.576 L1311.11 72.576 L1311.11 27.2059 L1318.61 27.2059 L1318.61 34.2544 Q1320.96 30.1225 1324.73 28.1376 Q1328.49 26.1121 1333.88 26.1121 Q1334.65 26.1121 1335.58 26.2337 Q1336.51 26.3147 1337.65 26.5172 L1337.69 34.1734 Z" fill="#000000" fill-rule="nonzero" fill-opacity="1" /><path clip-path="url(#clip340)" d="M1370.34 34.1734 Q1369.08 33.4443 1367.58 33.1202 Q1366.13 32.7556 1364.34 32.7556 Q1358.02 32.7556 1354.62 36.8875 Q1351.26 40.9789 1351.26 48.6757 L1351.26 72.576 L1343.76 72.576 L1343.76 27.2059 L1351.26 27.2059 L1351.26 34.2544 Q1353.61 30.1225 1357.38 28.1376 Q1361.14 26.1121 1366.53 26.1121 Q1367.3 26.1121 1368.23 26.2337 Q1369.16 26.3147 1370.3 26.5172 L1370.34 34.1734 Z" fill="#000000" fill-rule="nonzero" fill-opacity="1" /><path clip-path="url(#clip340)" d="M1393.91 32.4315 Q1387.92 32.4315 1384.44 37.1306 Q1380.95 41.7891 1380.95 49.9314 Q1380.95 58.0738 1384.4 62.7728 Q1387.88 67.4314 1393.91 67.4314 Q1399.87 67.4314 1403.35 62.7323 Q1406.84 58.0333 1406.84 49.9314 Q1406.84 41.8701 1403.35 37.1711 Q1399.87 32.4315 1393.91 32.4315 M1393.91 26.1121 Q1403.64 26.1121 1409.19 32.4315 Q1414.74 38.7509 1414.74 49.9314 Q1414.74 61.0714 1409.19 67.4314 Q1403.64 73.7508 1393.91 73.7508 Q1384.15 73.7508 1378.6 67.4314 Q1373.09 61.0714 1373.09 49.9314 Q1373.09 38.7509 1378.6 32.4315 Q1384.15 26.1121 1393.91 26.1121 Z" fill="#000000" fill-rule="nonzero" fill-opacity="1" /><path clip-path="url(#clip340)" d="M1453.38 34.1734 Q1452.13 33.4443 1450.63 33.1202 Q1449.17 32.7556 1447.39 32.7556 Q1441.07 32.7556 1437.66 36.8875 Q1434.3 40.9789 1434.3 48.6757 L1434.3 72.576 L1426.81 72.576 L1426.81 27.2059 L1434.3 27.2059 L1434.3 34.2544 Q1436.65 30.1225 1440.42 28.1376 Q1444.19 26.1121 1449.57 26.1121 Q1450.34 26.1121 1451.28 26.2337 Q1452.21 26.3147 1453.34 26.5172 L1453.38 34.1734 Z" fill="#000000" fill-rule="nonzero" fill-opacity="1" /><path clip-path="url(#clip340)" d="M1505.48 9.62495 Q1500.05 18.942 1497.42 28.0566 Q1494.78 37.1711 1494.78 46.5287 Q1494.78 55.8863 1497.42 65.0818 Q1500.09 74.2369 1505.48 83.5134 L1499 83.5134 Q1492.92 73.9938 1489.88 64.7983 Q1486.88 55.6027 1486.88 46.5287 Q1486.88 37.4952 1489.88 28.3401 Q1492.88 19.1851 1499 9.62495 L1505.48 9.62495 Z" fill="#000000" fill-rule="nonzero" fill-opacity="1" /><path clip-path="url(#clip340)" d="M1519.94 27.2059 L1527.39 27.2059 L1527.39 72.576 L1519.94 72.576 L1519.94 27.2059 M1519.94 9.54393 L1527.39 9.54393 L1527.39 18.9825 L1519.94 18.9825 L1519.94 9.54393 Z" fill="#000000" fill-rule="nonzero" fill-opacity="1" /><path clip-path="url(#clip340)" d="M1550.36 14.324 L1550.36 27.2059 L1565.71 27.2059 L1565.71 32.9987 L1550.36 32.9987 L1550.36 57.6282 Q1550.36 63.1779 1551.86 64.7578 Q1553.4 66.3376 1558.06 66.3376 L1565.71 66.3376 L1565.71 72.576 L1558.06 72.576 Q1549.43 72.576 1546.15 69.3758 Q1542.87 66.1351 1542.87 57.6282 L1542.87 32.9987 L1537.4 32.9987 L1537.4 27.2059 L1542.87 27.2059 L1542.87 14.324 L1550.36 14.324 Z" fill="#000000" fill-rule="nonzero" fill-opacity="1" /><path clip-path="url(#clip340)" d="M1614.32 48.0275 L1614.32 51.6733 L1580.05 51.6733 Q1580.54 59.3701 1584.67 63.421 Q1588.84 67.4314 1596.26 67.4314 Q1600.55 67.4314 1604.56 66.3781 Q1608.61 65.3249 1612.58 63.2184 L1612.58 70.267 Q1608.57 71.9684 1604.36 72.8596 Q1600.15 73.7508 1595.81 73.7508 Q1584.96 73.7508 1578.6 67.4314 Q1572.28 61.1119 1572.28 50.3365 Q1572.28 39.1965 1578.27 32.6746 Q1584.31 26.1121 1594.52 26.1121 Q1603.67 26.1121 1608.98 32.0264 Q1614.32 37.9003 1614.32 48.0275 M1606.87 45.84 Q1606.79 39.7232 1603.43 36.0774 Q1600.11 32.4315 1594.6 32.4315 Q1588.36 32.4315 1584.59 35.9558 Q1580.86 39.4801 1580.3 45.8805 L1606.87 45.84 Z" fill="#000000" fill-rule="nonzero" fill-opacity="1" /><path clip-path="url(#clip340)" d="M1652.85 34.1734 Q1651.59 33.4443 1650.09 33.1202 Q1648.64 32.7556 1646.85 32.7556 Q1640.53 32.7556 1637.13 36.8875 Q1633.77 40.9789 1633.77 48.6757 L1633.77 72.576 L1626.27 72.576 L1626.27 27.2059 L1633.77 27.2059 L1633.77 34.2544 Q1636.12 30.1225 1639.89 28.1376 Q1643.65 26.1121 1649.04 26.1121 Q1649.81 26.1121 1650.74 26.2337 Q1651.67 26.3147 1652.81 26.5172 L1652.85 34.1734 Z" fill="#000000" fill-rule="nonzero" fill-opacity="1" /><path clip-path="url(#clip340)" d="M1681.29 49.7694 Q1672.25 49.7694 1668.77 51.8354 Q1665.28 53.9013 1665.28 58.8839 Q1665.28 62.8538 1667.88 65.2034 Q1670.51 67.5124 1675.01 67.5124 Q1681.2 67.5124 1684.93 63.1374 Q1688.7 58.7219 1688.7 51.4303 L1688.7 49.7694 L1681.29 49.7694 M1696.15 46.6907 L1696.15 72.576 L1688.7 72.576 L1688.7 65.6895 Q1686.15 69.8214 1682.34 71.8063 Q1678.53 73.7508 1673.02 73.7508 Q1666.05 73.7508 1661.92 69.8619 Q1657.83 65.9325 1657.83 59.3701 Q1657.83 51.7138 1662.94 47.825 Q1668.08 43.9361 1678.25 43.9361 L1688.7 43.9361 L1688.7 43.2069 Q1688.7 38.0623 1685.3 35.2672 Q1681.93 32.4315 1675.82 32.4315 Q1671.93 32.4315 1668.24 33.3632 Q1664.56 34.295 1661.15 36.1584 L1661.15 29.2718 Q1665.24 27.692 1669.09 26.9223 Q1672.94 26.1121 1676.59 26.1121 Q1686.43 26.1121 1691.29 31.2163 Q1696.15 36.3204 1696.15 46.6907 Z" fill="#000000" fill-rule="nonzero" fill-opacity="1" /><path clip-path="url(#clip340)" d="M1718.88 14.324 L1718.88 27.2059 L1734.23 27.2059 L1734.23 32.9987 L1718.88 32.9987 L1718.88 57.6282 Q1718.88 63.1779 1720.38 64.7578 Q1721.92 66.3376 1726.57 66.3376 L1734.23 66.3376 L1734.23 72.576 L1726.57 72.576 Q1717.95 72.576 1714.67 69.3758 Q1711.38 66.1351 1711.38 57.6282 L1711.38 32.9987 L1705.92 32.9987 L1705.92 27.2059 L1711.38 27.2059 L1711.38 14.324 L1718.88 14.324 Z" fill="#000000" fill-rule="nonzero" fill-opacity="1" /><path clip-path="url(#clip340)" d="M1744.03 27.2059 L1751.49 27.2059 L1751.49 72.576 L1744.03 72.576 L1744.03 27.2059 M1744.03 9.54393 L1751.49 9.54393 L1751.49 18.9825 L1744.03 18.9825 L1744.03 9.54393 Z" fill="#000000" fill-rule="nonzero" fill-opacity="1" /><path clip-path="url(#clip340)" d="M1784.66 32.4315 Q1778.67 32.4315 1775.19 37.1306 Q1771.7 41.7891 1771.7 49.9314 Q1771.7 58.0738 1775.15 62.7728 Q1778.63 67.4314 1784.66 67.4314 Q1790.62 67.4314 1794.1 62.7323 Q1797.59 58.0333 1797.59 49.9314 Q1797.59 41.8701 1794.1 37.1711 Q1790.62 32.4315 1784.66 32.4315 M1784.66 26.1121 Q1794.39 26.1121 1799.94 32.4315 Q1805.49 38.7509 1805.49 49.9314 Q1805.49 61.0714 1799.94 67.4314 Q1794.39 73.7508 1784.66 73.7508 Q1774.9 73.7508 1769.35 67.4314 Q1763.84 61.0714 1763.84 49.9314 Q1763.84 38.7509 1769.35 32.4315 Q1774.9 26.1121 1784.66 26.1121 Z" fill="#000000" fill-rule="nonzero" fill-opacity="1" /><path clip-path="url(#clip340)" d="M1855.56 45.1919 L1855.56 72.576 L1848.1 72.576 L1848.1 45.4349 Q1848.1 38.994 1845.59 35.7938 Q1843.08 32.5936 1838.06 32.5936 Q1832.02 32.5936 1828.54 36.4419 Q1825.05 40.2903 1825.05 46.9338 L1825.05 72.576 L1817.56 72.576 L1817.56 27.2059 L1825.05 27.2059 L1825.05 34.2544 Q1827.73 30.163 1831.33 28.1376 Q1834.98 26.1121 1839.72 26.1121 Q1847.53 26.1121 1851.55 30.9732 Q1855.56 35.7938 1855.56 45.1919 Z" fill="#000000" fill-rule="nonzero" fill-opacity="1" /><path clip-path="url(#clip340)" d="M1897.93 12.096 L1930.05 12.096 L1930.05 18.9825 L1905.42 18.9825 L1905.42 33.8088 Q1907.2 33.2012 1908.99 32.9176 Q1910.77 32.5936 1912.55 32.5936 Q1922.68 32.5936 1928.59 38.1433 Q1934.51 43.6931 1934.51 53.1722 Q1934.51 62.9348 1928.43 68.3631 Q1922.36 73.7508 1911.3 73.7508 Q1907.49 73.7508 1903.52 73.1026 Q1899.59 72.4545 1895.38 71.1582 L1895.38 62.9348 Q1899.02 64.9198 1902.91 65.892 Q1906.8 66.8642 1911.13 66.8642 Q1918.14 66.8642 1922.23 63.1779 Q1926.33 59.4916 1926.33 53.1722 Q1926.33 46.8528 1922.23 43.1664 Q1918.14 39.4801 1911.13 39.4801 Q1907.85 39.4801 1904.57 40.2093 Q1901.33 40.9384 1897.93 42.4778 L1897.93 12.096 Z" fill="#000000" fill-rule="nonzero" fill-opacity="1" /><path clip-path="url(#clip340)" d="M1948.4 9.62495 L1954.88 9.62495 Q1960.96 19.1851 1963.96 28.3401 Q1967 37.4952 1967 46.5287 Q1967 55.6027 1963.96 64.7983 Q1960.96 73.9938 1954.88 83.5134 L1948.4 83.5134 Q1953.79 74.2369 1956.42 65.0818 Q1959.1 55.8863 1959.1 46.5287 Q1959.1 37.1711 1956.42 28.0566 Q1953.79 18.942 1948.4 9.62495 Z" fill="#000000" fill-rule="nonzero" fill-opacity="1" /><circle clip-path="url(#clip342)" cx="309.539" cy="160.256" r="3.6" fill="#009af9" fill-rule="evenodd" fill-opacity="1" stroke="#000000" stroke-opacity="1" stroke-width="3.2"/>
<circle clip-path="url(#clip342)" cx="970.774" cy="735.489" r="3.6" fill="#009af9" fill-rule="evenodd" fill-opacity="1" stroke="#000000" stroke-opacity="1" stroke-width="3.2"/>
<circle clip-path="url(#clip342)" cx="1632.01" cy="1386.4" r="3.6" fill="#009af9" fill-rule="evenodd" fill-opacity="1" stroke="#000000" stroke-opacity="1" stroke-width="3.2"/>
<circle clip-path="url(#clip342)" cx="2293.24" cy="599.253" r="3.6" fill="#009af9" fill-rule="evenodd" fill-opacity="1" stroke="#000000" stroke-opacity="1" stroke-width="3.2"/>
<path clip-path="url(#clip340)" d="M1979.13 270.476 L2282.66 270.476 L2282.66 166.796 L1979.13 166.796  Z" fill="#ffffff" fill-rule="evenodd" fill-opacity="1"/>
<polyline clip-path="url(#clip340)" style="stroke:#000000; stroke-linecap:round; stroke-linejoin:round; stroke-width:4; stroke-opacity:1; fill:none" points="1979.13,270.476 2282.66,270.476 2282.66,166.796 1979.13,166.796 1979.13,270.476 "/>
<circle clip-path="url(#clip340)" cx="2072.58" cy="218.636" r="15.36" fill="#009af9" fill-rule="evenodd" fill-opacity="1" stroke="#000000" stroke-opacity="1" stroke-width="13.6533"/>
<path clip-path="url(#clip340)" d="M2166.04 201.356 L2173.01 201.356 L2181.82 224.874 L2190.69 201.356 L2197.66 201.356 L2197.66 235.916 L2193.1 235.916 L2193.1 205.569 L2184.19 229.272 L2179.49 229.272 L2170.57 205.569 L2170.57 235.916 L2166.04 235.916 L2166.04 201.356 Z" fill="#000000" fill-rule="nonzero" fill-opacity="1" /><path clip-path="url(#clip340)" d="M2227.66 202.49 L2227.66 207.05 Q2225 205.777 2222.63 205.152 Q2220.27 204.527 2218.07 204.527 Q2214.26 204.527 2212.17 206.008 Q2210.11 207.49 2210.11 210.221 Q2210.11 212.513 2211.48 213.694 Q2212.87 214.851 2216.71 215.569 L2219.53 216.147 Q2224.76 217.143 2227.24 219.666 Q2229.74 222.166 2229.74 226.379 Q2229.74 231.402 2226.36 233.994 Q2223.01 236.587 2216.5 236.587 Q2214.05 236.587 2211.27 236.031 Q2208.51 235.476 2205.55 234.388 L2205.55 229.573 Q2208.4 231.17 2211.13 231.981 Q2213.86 232.791 2216.5 232.791 Q2220.51 232.791 2222.68 231.217 Q2224.86 229.643 2224.86 226.726 Q2224.86 224.18 2223.28 222.744 Q2221.73 221.309 2218.17 220.592 L2215.32 220.036 Q2210.09 218.995 2207.75 216.772 Q2205.41 214.55 2205.41 210.592 Q2205.41 206.008 2208.63 203.37 Q2211.87 200.731 2217.54 200.731 Q2219.97 200.731 2222.5 201.171 Q2225.02 201.61 2227.66 202.49 Z" fill="#000000" fill-rule="nonzero" fill-opacity="1" /><path clip-path="url(#clip340)" d="M2237.03 201.356 L2258.88 201.356 L2258.88 205.291 L2241.71 205.291 L2241.71 215.522 L2258.17 215.522 L2258.17 219.457 L2241.71 219.457 L2241.71 231.981 L2259.3 231.981 L2259.3 235.916 L2237.03 235.916 L2237.03 201.356 Z" fill="#000000" fill-rule="nonzero" fill-opacity="1" /></svg>
