<?xml version="1.0" encoding="utf-8"?>
<svg xmlns="http://www.w3.org/2000/svg" xmlns:xlink="http://www.w3.org/1999/xlink" width="600" height="400" viewBox="0 0 2400 1600">
<defs>
  <clipPath id="clip760">
    <rect x="0" y="0" width="2400" height="1600"/>
  </clipPath>
</defs>
<path clip-path="url(#clip760)" d="M0 1600 L2400 1600 L2400 8.88178e-14 L0 8.88178e-14  Z" fill="#ffffff" fill-rule="evenodd" fill-opacity="1"/>
<defs>
  <clipPath id="clip761">
    <rect x="480" y="0" width="1681" height="1600"/>
  </clipPath>
</defs>
<path clip-path="url(#clip760)" d="M249.542 1423.18 L2352.76 1423.18 L2352.76 123.472 L249.542 123.472  Z" fill="#ffffff" fill-rule="evenodd" fill-opacity="1"/>
<defs>
  <clipPath id="clip762">
    <rect x="249" y="123" width="2104" height="1301"/>
  </clipPath>
</defs>
<polyline clip-path="url(#clip762)" style="stroke:#000000; stroke-linecap:round; stroke-linejoin:round; stroke-width:2; stroke-opacity:0.1; fill:none" points="309.067,1423.18 309.067,123.472 "/>
<polyline clip-path="url(#clip762)" style="stroke:#000000; stroke-linecap:round; stroke-linejoin:round; stroke-width:2; stroke-opacity:0.1; fill:none" points="970.455,1423.18 970.455,123.472 "/>
<polyline clip-path="url(#clip762)" style="stroke:#000000; stroke-linecap:round; stroke-linejoin:round; stroke-width:2; stroke-opacity:0.1; fill:none" points="1631.84,1423.18 1631.84,123.472 "/>
<polyline clip-path="url(#clip762)" style="stroke:#000000; stroke-linecap:round; stroke-linejoin:round; stroke-width:2; stroke-opacity:0.1; fill:none" points="2293.23,1423.18 2293.23,123.472 "/>
<polyline clip-path="url(#clip760)" style="stroke:#000000; stroke-linecap:round; stroke-linejoin:round; stroke-width:4; stroke-opacity:1; fill:none" points="249.542,1423.18 2352.76,1423.18 "/>
<polyline clip-path="url(#clip760)" style="stroke:#000000; stroke-linecap:round; stroke-linejoin:round; stroke-width:4; stroke-opacity:1; fill:none" points="309.067,1423.18 309.067,1404.28 "/>
<polyline clip-path="url(#clip760)" style="stroke:#000000; stroke-linecap:round; stroke-linejoin:round; stroke-width:4; stroke-opacity:1; fill:none" points="970.455,1423.18 970.455,1404.28 "/>
<polyline clip-path="url(#clip760)" style="stroke:#000000; stroke-linecap:round; stroke-linejoin:round; stroke-width:4; stroke-opacity:1; fill:none" points="1631.84,1423.18 1631.84,1404.28 "/>
<polyline clip-path="url(#clip760)" style="stroke:#000000; stroke-linecap:round; stroke-linejoin:round; stroke-width:4; stroke-opacity:1; fill:none" points="2293.23,1423.18 2293.23,1404.28 "/>
<path clip-path="url(#clip760)" d="M299.449 1481.64 L307.088 1481.64 L307.088 1455.28 L298.778 1456.95 L298.778 1452.69 L307.042 1451.02 L311.717 1451.02 L311.717 1481.64 L319.356 1481.64 L319.356 1485.58 L299.449 1485.58 L299.449 1481.64 Z" fill="#000000" fill-rule="nonzero" fill-opacity="1" /><path clip-path="url(#clip760)" d="M965.108 1481.64 L981.427 1481.64 L981.427 1485.58 L959.483 1485.58 L959.483 1481.64 Q962.145 1478.89 966.728 1474.26 Q971.335 1469.61 972.515 1468.27 Q974.76 1465.74 975.64 1464.01 Q976.543 1462.25 976.543 1460.56 Q976.543 1457.8 974.598 1456.07 Q972.677 1454.33 969.575 1454.33 Q967.376 1454.33 964.923 1455.09 Q962.492 1455.86 959.714 1457.41 L959.714 1452.69 Q962.538 1451.55 964.992 1450.97 Q967.446 1450.39 969.483 1450.39 Q974.853 1450.39 978.048 1453.08 Q981.242 1455.77 981.242 1460.26 Q981.242 1462.39 980.432 1464.31 Q979.645 1466.2 977.538 1468.8 Q976.96 1469.47 973.858 1472.69 Q970.756 1475.88 965.108 1481.64 Z" fill="#000000" fill-rule="nonzero" fill-opacity="1" /><path clip-path="url(#clip760)" d="M1636.09 1466.95 Q1639.45 1467.66 1641.32 1469.93 Q1643.22 1472.2 1643.22 1475.53 Q1643.22 1480.65 1639.7 1483.45 Q1636.18 1486.25 1629.7 1486.25 Q1627.53 1486.25 1625.21 1485.81 Q1622.92 1485.39 1620.47 1484.54 L1620.47 1480.02 Q1622.41 1481.16 1624.72 1481.74 Q1627.04 1482.32 1629.56 1482.32 Q1633.96 1482.32 1636.25 1480.58 Q1638.57 1478.84 1638.57 1475.53 Q1638.57 1472.48 1636.41 1470.77 Q1634.29 1469.03 1630.47 1469.03 L1626.44 1469.03 L1626.44 1465.19 L1630.65 1465.19 Q1634.1 1465.19 1635.93 1463.82 Q1637.76 1462.43 1637.76 1459.84 Q1637.76 1457.18 1635.86 1455.77 Q1633.98 1454.33 1630.47 1454.33 Q1628.54 1454.33 1626.35 1454.75 Q1624.15 1455.16 1621.51 1456.04 L1621.51 1451.88 Q1624.17 1451.14 1626.48 1450.77 Q1628.82 1450.39 1630.88 1450.39 Q1636.21 1450.39 1639.31 1452.83 Q1642.41 1455.23 1642.41 1459.35 Q1642.41 1462.22 1640.77 1464.21 Q1639.12 1466.18 1636.09 1466.95 Z" fill="#000000" fill-rule="nonzero" fill-opacity="1" /><path clip-path="url(#clip760)" d="M2296.24 1455.09 L2284.43 1473.54 L2296.24 1473.54 L2296.24 1455.09 M2295.01 1451.02 L2300.89 1451.02 L2300.89 1473.54 L2305.82 1473.54 L2305.82 1477.43 L2300.89 1477.43 L2300.89 1485.58 L2296.24 1485.58 L2296.24 1477.43 L2280.64 1477.43 L2280.64 1472.92 L2295.01 1451.02 Z" fill="#000000" fill-rule="nonzero" fill-opacity="1" /><path clip-path="url(#clip760)" d="M1000.96 1520.52 L1007.39 1520.52 L1007.39 1562.63 L1030.53 1562.63 L1030.53 1568.04 L1000.96 1568.04 L1000.96 1520.52 Z" fill="#000000" fill-rule="nonzero" fill-opacity="1" /><path clip-path="url(#clip760)" d="M1053.22 1550.12 Q1046.12 1550.12 1043.39 1551.75 Q1040.65 1553.37 1040.65 1557.29 Q1040.65 1560.4 1042.69 1562.25 Q1044.75 1564.07 1048.29 1564.07 Q1053.16 1564.07 1056.09 1560.63 Q1059.05 1557.16 1059.05 1551.43 L1059.05 1550.12 L1053.22 1550.12 M1064.9 1547.71 L1064.9 1568.04 L1059.05 1568.04 L1059.05 1562.63 Q1057.04 1565.88 1054.05 1567.44 Q1051.06 1568.97 1046.73 1568.97 Q1041.25 1568.97 1038.01 1565.91 Q1034.79 1562.82 1034.79 1557.67 Q1034.79 1551.65 1038.8 1548.6 Q1042.84 1545.54 1050.83 1545.54 L1059.05 1545.54 L1059.05 1544.97 Q1059.05 1540.93 1056.37 1538.73 Q1053.73 1536.5 1048.92 1536.5 Q1045.87 1536.5 1042.97 1537.23 Q1040.08 1537.97 1037.4 1539.43 L1037.4 1534.02 Q1040.62 1532.78 1043.64 1532.17 Q1046.66 1531.54 1049.53 1531.54 Q1057.26 1531.54 1061.08 1535.55 Q1064.9 1539.56 1064.9 1547.71 Z" fill="#000000" fill-rule="nonzero" fill-opacity="1" /><path clip-path="url(#clip760)" d="M1082.76 1522.27 L1082.76 1532.4 L1094.82 1532.4 L1094.82 1536.95 L1082.76 1536.95 L1082.76 1556.3 Q1082.76 1560.66 1083.94 1561.9 Q1085.14 1563.14 1088.8 1563.14 L1094.82 1563.14 L1094.82 1568.04 L1088.8 1568.04 Q1082.03 1568.04 1079.45 1565.53 Q1076.87 1562.98 1076.87 1556.3 L1076.87 1536.95 L1072.57 1536.95 L1072.57 1532.4 L1076.87 1532.4 L1076.87 1522.27 L1082.76 1522.27 Z" fill="#000000" fill-rule="nonzero" fill-opacity="1" /><path clip-path="url(#clip760)" d="M1133.01 1548.76 L1133.01 1551.62 L1106.09 1551.62 Q1106.47 1557.67 1109.72 1560.85 Q1112.99 1564 1118.82 1564 Q1122.19 1564 1125.34 1563.17 Q1128.53 1562.35 1131.65 1560.69 L1131.65 1566.23 Q1128.5 1567.57 1125.18 1568.27 Q1121.87 1568.97 1118.47 1568.97 Q1109.94 1568.97 1104.94 1564 Q1099.98 1559.04 1099.98 1550.57 Q1099.98 1541.82 1104.69 1536.69 Q1109.43 1531.54 1117.45 1531.54 Q1124.64 1531.54 1128.81 1536.18 Q1133.01 1540.8 1133.01 1548.76 M1127.16 1547.04 Q1127.09 1542.23 1124.45 1539.37 Q1121.84 1536.5 1117.51 1536.5 Q1112.61 1536.5 1109.65 1539.27 Q1106.72 1542.04 1106.28 1547.07 L1127.16 1547.04 Z" fill="#000000" fill-rule="nonzero" fill-opacity="1" /><path clip-path="url(#clip760)" d="M1172.26 1546.53 L1172.26 1568.04 L1166.4 1568.04 L1166.4 1546.72 Q1166.4 1541.66 1164.43 1539.14 Q1162.46 1536.63 1158.51 1536.63 Q1153.77 1536.63 1151.03 1539.65 Q1148.29 1542.68 1148.29 1547.9 L1148.29 1568.04 L1142.4 1568.04 L1142.4 1532.4 L1148.29 1532.4 L1148.29 1537.93 Q1150.39 1534.72 1153.23 1533.13 Q1156.09 1531.54 1159.81 1531.54 Q1165.96 1531.54 1169.11 1535.36 Q1172.26 1539.14 1172.26 1546.53 Z" fill="#000000" fill-rule="nonzero" fill-opacity="1" /><path clip-path="url(#clip760)" d="M1189.73 1522.27 L1189.73 1532.4 L1201.8 1532.4 L1201.8 1536.95 L1189.73 1536.95 L1189.73 1556.3 Q1189.73 1560.66 1190.91 1561.9 Q1192.12 1563.14 1195.78 1563.14 L1201.8 1563.14 L1201.8 1568.04 L1195.78 1568.04 Q1189 1568.04 1186.42 1565.53 Q1183.84 1562.98 1183.84 1556.3 L1183.84 1536.95 L1179.55 1536.95 L1179.55 1532.4 L1183.84 1532.4 L1183.84 1522.27 L1189.73 1522.27 Z" fill="#000000" fill-rule="nonzero" fill-opacity="1" /><path clip-path="url(#clip760)" d="M1236.9 1525.81 L1236.9 1562.76 L1244.67 1562.76 Q1254.5 1562.76 1259.06 1558.3 Q1263.64 1553.85 1263.64 1544.24 Q1263.64 1534.69 1259.06 1530.26 Q1254.5 1525.81 1244.67 1525.81 L1236.9 1525.81 M1230.47 1520.52 L1243.68 1520.52 Q1257.5 1520.52 1263.96 1526.28 Q1270.42 1532.01 1270.42 1544.24 Q1270.42 1556.52 1263.93 1562.28 Q1257.43 1568.04 1243.68 1568.04 L1230.47 1568.04 L1230.47 1520.52 Z" fill="#000000" fill-rule="nonzero" fill-opacity="1" /><path clip-path="url(#clip760)" d="M1280.41 1532.4 L1286.27 1532.4 L1286.27 1568.04 L1280.41 1568.04 L1280.41 1532.4 M1280.41 1518.52 L1286.27 1518.52 L1286.27 1525.93 L1280.41 1525.93 L1280.41 1518.52 Z" fill="#000000" fill-rule="nonzero" fill-opacity="1" /><path clip-path="url(#clip760)" d="M1326.28 1539.24 Q1328.47 1535.29 1331.53 1533.41 Q1334.58 1531.54 1338.72 1531.54 Q1344.29 1531.54 1347.32 1535.45 Q1350.34 1539.33 1350.34 1546.53 L1350.34 1568.04 L1344.45 1568.04 L1344.45 1546.72 Q1344.45 1541.59 1342.64 1539.11 Q1340.82 1536.63 1337.1 1536.63 Q1332.55 1536.63 1329.91 1539.65 Q1327.26 1542.68 1327.26 1547.9 L1327.26 1568.04 L1321.38 1568.04 L1321.38 1546.72 Q1321.38 1541.56 1319.56 1539.11 Q1317.75 1536.63 1313.96 1536.63 Q1309.47 1536.63 1306.83 1539.68 Q1304.19 1542.71 1304.19 1547.9 L1304.19 1568.04 L1298.3 1568.04 L1298.3 1532.4 L1304.19 1532.4 L1304.19 1537.93 Q1306.19 1534.66 1308.99 1533.1 Q1311.8 1531.54 1315.65 1531.54 Q1319.53 1531.54 1322.24 1533.51 Q1324.97 1535.48 1326.28 1539.24 Z" fill="#000000" fill-rule="nonzero" fill-opacity="1" /><path clip-path="url(#clip760)" d="M1392.51 1548.76 L1392.51 1551.62 L1365.59 1551.62 Q1365.97 1557.67 1369.21 1560.85 Q1372.49 1564 1378.32 1564 Q1381.69 1564 1384.84 1563.17 Q1388.02 1562.35 1391.14 1560.69 L1391.14 1566.23 Q1387.99 1567.57 1384.68 1568.27 Q1381.37 1568.97 1377.97 1568.97 Q1369.44 1568.97 1364.44 1564 Q1359.47 1559.04 1359.47 1550.57 Q1359.47 1541.82 1364.19 1536.69 Q1368.93 1531.54 1376.95 1531.54 Q1384.14 1531.54 1388.31 1536.18 Q1392.51 1540.8 1392.51 1548.76 M1386.66 1547.04 Q1386.59 1542.23 1383.95 1539.37 Q1381.34 1536.5 1377.01 1536.5 Q1372.11 1536.5 1369.15 1539.27 Q1366.22 1542.04 1365.78 1547.07 L1386.66 1547.04 Z" fill="#000000" fill-rule="nonzero" fill-opacity="1" /><path clip-path="url(#clip760)" d="M1431.76 1546.53 L1431.76 1568.04 L1425.9 1568.04 L1425.9 1546.72 Q1425.9 1541.66 1423.93 1539.14 Q1421.95 1536.63 1418.01 1536.63 Q1413.26 1536.63 1410.53 1539.65 Q1407.79 1542.68 1407.79 1547.9 L1407.79 1568.04 L1401.9 1568.04 L1401.9 1532.4 L1407.79 1532.4 L1407.79 1537.93 Q1409.89 1534.72 1412.72 1533.13 Q1415.59 1531.54 1419.31 1531.54 Q1425.46 1531.54 1428.61 1535.36 Q1431.76 1539.14 1431.76 1546.53 Z" fill="#000000" fill-rule="nonzero" fill-opacity="1" /><path clip-path="url(#clip760)" d="M1466.16 1533.45 L1466.16 1538.98 Q1463.68 1537.71 1461.01 1537.07 Q1458.33 1536.44 1455.47 1536.44 Q1451.11 1536.44 1448.91 1537.77 Q1446.75 1539.11 1446.75 1541.79 Q1446.75 1543.82 1448.31 1545 Q1449.87 1546.15 1454.58 1547.2 L1456.58 1547.64 Q1462.82 1548.98 1465.43 1551.43 Q1468.07 1553.85 1468.07 1558.21 Q1468.07 1563.17 1464.13 1566.07 Q1460.21 1568.97 1453.34 1568.97 Q1450.47 1568.97 1447.35 1568.39 Q1444.27 1567.85 1440.83 1566.74 L1440.83 1560.69 Q1444.07 1562.38 1447.23 1563.24 Q1450.38 1564.07 1453.46 1564.07 Q1457.6 1564.07 1459.83 1562.66 Q1462.06 1561.23 1462.06 1558.65 Q1462.06 1556.27 1460.43 1554.99 Q1458.84 1553.72 1453.4 1552.54 L1451.36 1552.07 Q1445.92 1550.92 1443.5 1548.56 Q1441.08 1546.18 1441.08 1542.04 Q1441.08 1537.01 1444.65 1534.27 Q1448.21 1531.54 1454.77 1531.54 Q1458.02 1531.54 1460.88 1532.01 Q1463.75 1532.49 1466.16 1533.45 Z" fill="#000000" fill-rule="nonzero" fill-opacity="1" /><path clip-path="url(#clip760)" d="M1477.4 1532.4 L1483.26 1532.4 L1483.26 1568.04 L1477.4 1568.04 L1477.4 1532.4 M1477.4 1518.52 L1483.26 1518.52 L1483.26 1525.93 L1477.4 1525.93 L1477.4 1518.52 Z" fill="#000000" fill-rule="nonzero" fill-opacity="1" /><path clip-path="url(#clip760)" d="M1509.32 1536.5 Q1504.61 1536.5 1501.88 1540.19 Q1499.14 1543.85 1499.14 1550.25 Q1499.14 1556.65 1501.84 1560.34 Q1504.58 1564 1509.32 1564 Q1514 1564 1516.74 1560.31 Q1519.48 1556.62 1519.48 1550.25 Q1519.48 1543.92 1516.74 1540.23 Q1514 1536.5 1509.32 1536.5 M1509.32 1531.54 Q1516.96 1531.54 1521.32 1536.5 Q1525.68 1541.47 1525.68 1550.25 Q1525.68 1559 1521.32 1564 Q1516.96 1568.97 1509.32 1568.97 Q1501.65 1568.97 1497.29 1564 Q1492.96 1559 1492.96 1550.25 Q1492.96 1541.47 1497.29 1536.5 Q1501.65 1531.54 1509.32 1531.54 Z" fill="#000000" fill-rule="nonzero" fill-opacity="1" /><path clip-path="url(#clip760)" d="M1565.02 1546.53 L1565.02 1568.04 L1559.17 1568.04 L1559.17 1546.72 Q1559.17 1541.66 1557.19 1539.14 Q1555.22 1536.63 1551.27 1536.63 Q1546.53 1536.63 1543.79 1539.65 Q1541.06 1542.68 1541.06 1547.9 L1541.06 1568.04 L1535.17 1568.04 L1535.17 1532.4 L1541.06 1532.4 L1541.06 1537.93 Q1543.16 1534.72 1545.99 1533.13 Q1548.85 1531.54 1552.58 1531.54 Q1558.72 1531.54 1561.87 1535.36 Q1565.02 1539.14 1565.02 1546.53 Z" fill="#000000" fill-rule="nonzero" fill-opacity="1" /><path clip-path="url(#clip760)" d="M1599.43 1533.45 L1599.43 1538.98 Q1596.95 1537.71 1594.27 1537.07 Q1591.6 1536.44 1588.74 1536.44 Q1584.38 1536.44 1582.18 1537.77 Q1580.01 1539.11 1580.01 1541.79 Q1580.01 1543.82 1581.57 1545 Q1583.13 1546.15 1587.84 1547.2 L1589.85 1547.64 Q1596.09 1548.98 1598.7 1551.43 Q1601.34 1553.85 1601.34 1558.21 Q1601.34 1563.17 1597.39 1566.07 Q1593.48 1568.97 1586.6 1568.97 Q1583.74 1568.97 1580.62 1568.39 Q1577.53 1567.85 1574.09 1566.74 L1574.09 1560.69 Q1577.34 1562.38 1580.49 1563.24 Q1583.64 1564.07 1586.73 1564.07 Q1590.87 1564.07 1593.1 1562.66 Q1595.32 1561.23 1595.32 1558.65 Q1595.32 1556.27 1593.7 1554.99 Q1592.11 1553.72 1586.67 1552.54 L1584.63 1552.07 Q1579.19 1550.92 1576.77 1548.56 Q1574.35 1546.18 1574.35 1542.04 Q1574.35 1537.01 1577.91 1534.27 Q1581.48 1531.54 1588.04 1531.54 Q1591.28 1531.54 1594.15 1532.01 Q1597.01 1532.49 1599.43 1533.45 Z" fill="#000000" fill-rule="nonzero" fill-opacity="1" /><polyline clip-path="url(#clip762)" style="stroke:#000000; stroke-linecap:round; stroke-linejoin:round; stroke-width:2; stroke-opacity:0.1; fill:none" points="249.542,1260.15 2352.76,1260.15 "/>
<polyline clip-path="url(#clip762)" style="stroke:#000000; stroke-linecap:round; stroke-linejoin:round; stroke-width:2; stroke-opacity:0.1; fill:none" points="249.542,934.432 2352.76,934.432 "/>
<polyline clip-path="url(#clip762)" style="stroke:#000000; stroke-linecap:round; stroke-linejoin:round; stroke-width:2; stroke-opacity:0.1; fill:none" points="249.542,608.711 2352.76,608.711 "/>
<polyline clip-path="url(#clip762)" style="stroke:#000000; stroke-linecap:round; stroke-linejoin:round; stroke-width:2; stroke-opacity:0.1; fill:none" points="249.542,282.991 2352.76,282.991 "/>
<polyline clip-path="url(#clip760)" style="stroke:#000000; stroke-linecap:round; stroke-linejoin:round; stroke-width:4; stroke-opacity:1; fill:none" points="249.542,1423.18 249.542,123.472 "/>
<polyline clip-path="url(#clip760)" style="stroke:#000000; stroke-linecap:round; stroke-linejoin:round; stroke-width:4; stroke-opacity:1; fill:none" points="249.542,1260.15 268.44,1260.15 "/>
<polyline clip-path="url(#clip760)" style="stroke:#000000; stroke-linecap:round; stroke-linejoin:round; stroke-width:4; stroke-opacity:1; fill:none" points="249.542,934.432 268.44,934.432 "/>
<polyline clip-path="url(#clip760)" style="stroke:#000000; stroke-linecap:round; stroke-linejoin:round; stroke-width:4; stroke-opacity:1; fill:none" points="249.542,608.711 268.44,608.711 "/>
<polyline clip-path="url(#clip760)" style="stroke:#000000; stroke-linecap:round; stroke-linejoin:round; stroke-width:4; stroke-opacity:1; fill:none" points="249.542,282.991 268.44,282.991 "/>
<path clip-path="url(#clip760)" d="M126.205 1245.95 Q122.593 1245.95 120.765 1249.52 Q118.959 1253.06 118.959 1260.19 Q118.959 1267.29 120.765 1270.86 Q122.593 1274.4 126.205 1274.4 Q129.839 1274.4 131.644 1270.86 Q133.473 1267.29 133.473 1260.19 Q133.473 1253.06 131.644 1249.52 Q129.839 1245.95 126.205 1245.95 M126.205 1242.25 Q132.015 1242.25 135.07 1246.85 Q138.149 1251.44 138.149 1260.19 Q138.149 1268.91 135.07 1273.52 Q132.015 1278.1 126.205 1278.1 Q120.394 1278.1 117.316 1273.52 Q114.26 1268.91 114.26 1260.19 Q114.26 1251.44 117.316 1246.85 Q120.394 1242.25 126.205 1242.25 Z" fill="#000000" fill-rule="nonzero" fill-opacity="1" /><path clip-path="url(#clip760)" d="M146.366 1271.55 L151.251 1271.55 L151.251 1277.43 L146.366 1277.43 L146.366 1271.55 Z" fill="#000000" fill-rule="nonzero" fill-opacity="1" /><path clip-path="url(#clip760)" d="M162.246 1273.5 L169.885 1273.5 L169.885 1247.13 L161.575 1248.8 L161.575 1244.54 L169.839 1242.87 L174.514 1242.87 L174.514 1273.5 L182.153 1273.5 L182.153 1277.43 L162.246 1277.43 L162.246 1273.5 Z" fill="#000000" fill-rule="nonzero" fill-opacity="1" /><path clip-path="url(#clip760)" d="M201.598 1245.95 Q197.987 1245.95 196.158 1249.52 Q194.352 1253.06 194.352 1260.19 Q194.352 1267.29 196.158 1270.86 Q197.987 1274.4 201.598 1274.4 Q205.232 1274.4 207.037 1270.86 Q208.866 1267.29 208.866 1260.19 Q208.866 1253.06 207.037 1249.52 Q205.232 1245.95 201.598 1245.95 M201.598 1242.25 Q207.408 1242.25 210.463 1246.85 Q213.542 1251.44 213.542 1260.19 Q213.542 1268.91 210.463 1273.52 Q207.408 1278.1 201.598 1278.1 Q195.787 1278.1 192.709 1273.52 Q189.653 1268.91 189.653 1260.19 Q189.653 1251.44 192.709 1246.85 Q195.787 1242.25 201.598 1242.25 Z" fill="#000000" fill-rule="nonzero" fill-opacity="1" /><path clip-path="url(#clip760)" d="M127.2 920.231 Q123.589 920.231 121.76 923.796 Q119.955 927.337 119.955 934.467 Q119.955 941.573 121.76 945.138 Q123.589 948.68 127.2 948.68 Q130.834 948.68 132.64 945.138 Q134.468 941.573 134.468 934.467 Q134.468 927.337 132.64 923.796 Q130.834 920.231 127.2 920.231 M127.2 916.527 Q133.01 916.527 136.066 921.134 Q139.144 925.717 139.144 934.467 Q139.144 943.194 136.066 947.8 Q133.01 952.384 127.2 952.384 Q121.39 952.384 118.311 947.8 Q115.256 943.194 115.256 934.467 Q115.256 925.717 118.311 921.134 Q121.39 916.527 127.2 916.527 Z" fill="#000000" fill-rule="nonzero" fill-opacity="1" /><path clip-path="url(#clip760)" d="M147.362 945.833 L152.246 945.833 L152.246 951.712 L147.362 951.712 L147.362 945.833 Z" fill="#000000" fill-rule="nonzero" fill-opacity="1" /><path clip-path="url(#clip760)" d="M163.241 947.777 L170.88 947.777 L170.88 921.411 L162.57 923.078 L162.57 918.819 L170.834 917.152 L175.51 917.152 L175.51 947.777 L183.149 947.777 L183.149 951.712 L163.241 951.712 L163.241 947.777 Z" fill="#000000" fill-rule="nonzero" fill-opacity="1" /><path clip-path="url(#clip760)" d="M192.639 917.152 L210.996 917.152 L210.996 921.087 L196.922 921.087 L196.922 929.56 Q197.94 929.212 198.959 929.05 Q199.977 928.865 200.996 928.865 Q206.783 928.865 210.162 932.036 Q213.542 935.208 213.542 940.624 Q213.542 946.203 210.07 949.305 Q206.598 952.384 200.278 952.384 Q198.102 952.384 195.834 952.013 Q193.588 951.643 191.181 950.902 L191.181 946.203 Q193.264 947.337 195.487 947.893 Q197.709 948.448 200.186 948.448 Q204.19 948.448 206.528 946.342 Q208.866 944.235 208.866 940.624 Q208.866 937.013 206.528 934.907 Q204.19 932.8 200.186 932.8 Q198.311 932.8 196.436 933.217 Q194.584 933.634 192.639 934.513 L192.639 917.152 Z" fill="#000000" fill-rule="nonzero" fill-opacity="1" /><path clip-path="url(#clip760)" d="M126.205 594.51 Q122.593 594.51 120.765 598.075 Q118.959 601.617 118.959 608.746 Q118.959 615.853 120.765 619.417 Q122.593 622.959 126.205 622.959 Q129.839 622.959 131.644 619.417 Q133.473 615.853 133.473 608.746 Q133.473 601.617 131.644 598.075 Q129.839 594.51 126.205 594.51 M126.205 590.806 Q132.015 590.806 135.07 595.413 Q138.149 599.996 138.149 608.746 Q138.149 617.473 135.07 622.079 Q132.015 626.663 126.205 626.663 Q120.394 626.663 117.316 622.079 Q114.26 617.473 114.26 608.746 Q114.26 599.996 117.316 595.413 Q120.394 590.806 126.205 590.806 Z" fill="#000000" fill-rule="nonzero" fill-opacity="1" /><path clip-path="url(#clip760)" d="M146.366 620.112 L151.251 620.112 L151.251 625.991 L146.366 625.991 L146.366 620.112 Z" fill="#000000" fill-rule="nonzero" fill-opacity="1" /><path clip-path="url(#clip760)" d="M165.464 622.056 L181.783 622.056 L181.783 625.991 L159.839 625.991 L159.839 622.056 Q162.501 619.302 167.084 614.672 Q171.69 610.019 172.871 608.677 Q175.116 606.154 175.996 604.417 Q176.899 602.658 176.899 600.968 Q176.899 598.214 174.954 596.478 Q173.033 594.742 169.931 594.742 Q167.732 594.742 165.278 595.505 Q162.848 596.269 160.07 597.82 L160.07 593.098 Q162.894 591.964 165.348 591.385 Q167.802 590.806 169.839 590.806 Q175.209 590.806 178.403 593.492 Q181.598 596.177 181.598 600.668 Q181.598 602.797 180.788 604.718 Q180.001 606.617 177.894 609.209 Q177.315 609.88 174.214 613.098 Q171.112 616.292 165.464 622.056 Z" fill="#000000" fill-rule="nonzero" fill-opacity="1" /><path clip-path="url(#clip760)" d="M201.598 594.51 Q197.987 594.51 196.158 598.075 Q194.352 601.617 194.352 608.746 Q194.352 615.853 196.158 619.417 Q197.987 622.959 201.598 622.959 Q205.232 622.959 207.037 619.417 Q208.866 615.853 208.866 608.746 Q208.866 601.617 207.037 598.075 Q205.232 594.51 201.598 594.51 M201.598 590.806 Q207.408 590.806 210.463 595.413 Q213.542 599.996 213.542 608.746 Q213.542 617.473 210.463 622.079 Q207.408 626.663 201.598 626.663 Q195.787 626.663 192.709 622.079 Q189.653 617.473 189.653 608.746 Q189.653 599.996 192.709 595.413 Q195.787 590.806 201.598 590.806 Z" fill="#000000" fill-rule="nonzero" fill-opacity="1" /><path clip-path="url(#clip760)" d="M127.2 268.789 Q123.589 268.789 121.76 272.354 Q119.955 275.896 119.955 283.025 Q119.955 290.132 121.76 293.697 Q123.589 297.238 127.2 297.238 Q130.834 297.238 132.64 293.697 Q134.468 290.132 134.468 283.025 Q134.468 275.896 132.64 272.354 Q130.834 268.789 127.2 268.789 M127.2 265.086 Q133.01 265.086 136.066 269.692 Q139.144 274.275 139.144 283.025 Q139.144 291.752 136.066 296.359 Q133.01 300.942 127.2 300.942 Q121.39 300.942 118.311 296.359 Q115.256 291.752 115.256 283.025 Q115.256 274.275 118.311 269.692 Q121.39 265.086 127.2 265.086 Z" fill="#000000" fill-rule="nonzero" fill-opacity="1" /><path clip-path="url(#clip760)" d="M147.362 294.391 L152.246 294.391 L152.246 300.271 L147.362 300.271 L147.362 294.391 Z" fill="#000000" fill-rule="nonzero" fill-opacity="1" /><path clip-path="url(#clip760)" d="M166.459 296.336 L182.778 296.336 L182.778 300.271 L160.834 300.271 L160.834 296.336 Q163.496 293.581 168.079 288.951 Q172.686 284.299 173.866 282.956 Q176.112 280.433 176.991 278.697 Q177.894 276.937 177.894 275.248 Q177.894 272.493 175.95 270.757 Q174.028 269.021 170.927 269.021 Q168.727 269.021 166.274 269.785 Q163.843 270.549 161.065 272.1 L161.065 267.377 Q163.89 266.243 166.343 265.664 Q168.797 265.086 170.834 265.086 Q176.204 265.086 179.399 267.771 Q182.593 270.456 182.593 274.947 Q182.593 277.076 181.783 278.998 Q180.996 280.896 178.889 283.488 Q178.311 284.16 175.209 287.377 Q172.107 290.572 166.459 296.336 Z" fill="#000000" fill-rule="nonzero" fill-opacity="1" /><path clip-path="url(#clip760)" d="M192.639 265.711 L210.996 265.711 L210.996 269.646 L196.922 269.646 L196.922 278.118 Q197.94 277.771 198.959 277.609 Q199.977 277.424 200.996 277.424 Q206.783 277.424 210.162 280.595 Q213.542 283.766 213.542 289.183 Q213.542 294.761 210.07 297.863 Q206.598 300.942 200.278 300.942 Q198.102 300.942 195.834 300.572 Q193.588 300.201 191.181 299.461 L191.181 294.761 Q193.264 295.896 195.487 296.451 Q197.709 297.007 200.186 297.007 Q204.19 297.007 206.528 294.9 Q208.866 292.794 208.866 289.183 Q208.866 285.572 206.528 283.465 Q204.19 281.359 200.186 281.359 Q198.311 281.359 196.436 281.775 Q194.584 282.192 192.639 283.072 L192.639 265.711 Z" fill="#000000" fill-rule="nonzero" fill-opacity="1" /><path clip-path="url(#clip760)" d="M16.4842 837.445 L16.4842 827.864 L48.8219 815.738 L16.4842 803.547 L16.4842 793.967 L64.0042 793.967 L64.0042 800.237 L22.277 800.237 L54.8694 812.491 L54.8694 818.952 L22.277 831.206 L64.0042 831.206 L64.0042 837.445 L16.4842 837.445 Z" fill="#000000" fill-rule="nonzero" fill-opacity="1" /><path clip-path="url(#clip760)" d="M18.0438 752.717 L24.314 752.717 Q22.5634 756.377 21.704 759.624 Q20.8447 762.87 20.8447 765.894 Q20.8447 771.146 22.8817 774.01 Q24.9187 776.843 28.6745 776.843 Q31.8255 776.843 33.4488 774.965 Q35.0402 773.055 36.0269 767.772 L36.8226 763.889 Q38.1912 756.696 41.6605 753.29 Q45.098 749.852 50.8908 749.852 Q57.7976 749.852 61.3624 754.499 Q64.9272 759.115 64.9272 768.058 Q64.9272 771.432 64.1633 775.252 Q63.3994 779.039 61.9035 783.113 L55.2831 783.113 Q57.4793 779.198 58.5933 775.443 Q59.7073 771.687 59.7073 768.058 Q59.7073 762.552 57.543 759.56 Q55.3786 756.568 51.3682 756.568 Q47.8671 756.568 45.8937 758.733 Q43.9204 760.865 42.9337 765.767 L42.1698 769.682 Q40.7375 776.875 37.682 780.09 Q34.6264 783.304 29.1837 783.304 Q22.8817 783.304 19.2532 778.88 Q15.6248 774.424 15.6248 766.626 Q15.6248 763.284 16.2295 759.815 Q16.8343 756.345 18.0438 752.717 Z" fill="#000000" fill-rule="nonzero" fill-opacity="1" /><path clip-path="url(#clip760)" d="M16.4842 739.826 L16.4842 709.78 L21.895 709.78 L21.895 733.397 L35.9632 733.397 L35.9632 710.767 L41.3741 710.767 L41.3741 733.397 L58.5933 733.397 L58.5933 709.207 L64.0042 709.207 L64.0042 739.826 L16.4842 739.826 Z" fill="#000000" fill-rule="nonzero" fill-opacity="1" /><path clip-path="url(#clip760)" d="M719.54 12.096 L731.734 12.096 L747.168 53.2532 L762.683 12.096 L774.876 12.096 L774.876 72.576 L766.895 72.576 L766.895 19.4686 L751.299 60.9499 L743.076 60.9499 L727.48 19.4686 L727.48 72.576 L719.54 72.576 L719.54 12.096 Z" fill="#000000" fill-rule="nonzero" fill-opacity="1" /><path clip-path="url(#clip760)" d="M829.603 48.0275 L829.603 51.6733 L795.333 51.6733 Q795.819 59.3701 799.951 63.421 Q804.123 67.4314 811.536 67.4314 Q815.83 67.4314 819.841 66.3781 Q823.892 65.3249 827.862 63.2184 L827.862 70.267 Q823.851 71.9684 819.638 72.8596 Q815.425 73.7508 811.091 73.7508 Q800.234 73.7508 793.874 67.4314 Q787.555 61.1119 787.555 50.3365 Q787.555 39.1965 793.55 32.6746 Q799.586 26.1121 809.795 26.1121 Q818.95 26.1121 824.256 32.0264 Q829.603 37.9003 829.603 48.0275 M822.15 45.84 Q822.069 39.7232 818.707 36.0774 Q815.385 32.4315 809.876 32.4315 Q803.637 32.4315 799.87 35.9558 Q796.143 39.4801 795.576 45.8805 L822.15 45.84 Z" fill="#000000" fill-rule="nonzero" fill-opacity="1" /><path clip-path="url(#clip760)" d="M862.456 49.7694 Q853.423 49.7694 849.939 51.8354 Q846.455 53.9013 846.455 58.8839 Q846.455 62.8538 849.048 65.2034 Q851.681 67.5124 856.177 67.5124 Q862.375 67.5124 866.102 63.1374 Q869.869 58.7219 869.869 51.4303 L869.869 49.7694 L862.456 49.7694 M877.323 46.6907 L877.323 72.576 L869.869 72.576 L869.869 65.6895 Q867.317 69.8214 863.51 71.8063 Q859.702 73.7508 854.192 73.7508 Q847.225 73.7508 843.093 69.8619 Q839.002 65.9325 839.002 59.3701 Q839.002 51.7138 844.106 47.825 Q849.25 43.9361 859.418 43.9361 L869.869 43.9361 L869.869 43.2069 Q869.869 38.0623 866.467 35.2672 Q863.104 32.4315 856.988 32.4315 Q853.099 32.4315 849.412 33.3632 Q845.726 34.295 842.323 36.1584 L842.323 29.2718 Q846.415 27.692 850.263 26.9223 Q854.111 26.1121 857.757 26.1121 Q867.601 26.1121 872.462 31.2163 Q877.323 36.3204 877.323 46.6907 Z" fill="#000000" fill-rule="nonzero" fill-opacity="1" /><path clip-path="url(#clip760)" d="M930.39 45.1919 L930.39 72.576 L922.936 72.576 L922.936 45.4349 Q922.936 38.994 920.425 35.7938 Q917.913 32.5936 912.89 32.5936 Q906.854 32.5936 903.37 36.4419 Q899.887 40.2903 899.887 46.9338 L899.887 72.576 L892.392 72.576 L892.392 27.2059 L899.887 27.2059 L899.887 34.2544 Q902.56 30.163 906.166 28.1376 Q909.811 26.1121 914.551 26.1121 Q922.369 26.1121 926.38 30.9732 Q930.39 35.7938 930.39 45.1919 Z" fill="#000000" fill-rule="nonzero" fill-opacity="1" /><path clip-path="url(#clip760)" d="M1008.21 14.0809 L1008.21 22.0612 Q1003.55 19.8332 999.417 18.7395 Q995.285 17.6457 991.437 17.6457 Q984.753 17.6457 981.107 20.2383 Q977.502 22.8309 977.502 27.611 Q977.502 31.6214 979.892 33.6873 Q982.323 35.7128 989.047 36.9686 L993.989 37.9813 Q1003.14 39.7232 1007.48 44.1387 Q1011.85 48.5136 1011.85 55.8863 Q1011.85 64.6767 1005.94 69.2137 Q1000.07 73.7508 988.682 73.7508 Q984.389 73.7508 979.527 72.7785 Q974.707 71.8063 969.522 69.9024 L969.522 61.4765 Q974.504 64.2716 979.284 65.6895 Q984.064 67.1073 988.682 67.1073 Q995.691 67.1073 999.498 64.3527 Q1003.31 61.598 1003.31 56.4939 Q1003.31 52.0379 1000.55 49.5264 Q997.838 47.0148 991.599 45.759 L986.617 44.7868 Q977.461 42.9639 973.37 39.075 Q969.279 35.1862 969.279 28.2591 Q969.279 20.2383 974.909 15.6203 Q980.581 11.0023 990.505 11.0023 Q994.759 11.0023 999.174 11.7719 Q1003.59 12.5416 1008.21 14.0809 Z" fill="#000000" fill-rule="nonzero" fill-opacity="1" /><path clip-path="url(#clip760)" d="M1028.75 49.9314 Q1028.75 58.1548 1032.11 62.8538 Q1035.51 67.5124 1041.43 67.5124 Q1047.34 67.5124 1050.74 62.8538 Q1054.15 58.1548 1054.15 49.9314 Q1054.15 41.7081 1050.74 37.0496 Q1047.34 32.3505 1041.43 32.3505 Q1035.51 32.3505 1032.11 37.0496 Q1028.75 41.7081 1028.75 49.9314 M1054.15 65.7705 Q1051.8 69.8214 1048.19 71.8063 Q1044.63 73.7508 1039.6 73.7508 Q1031.38 73.7508 1026.19 67.1883 Q1021.05 60.6258 1021.05 49.9314 Q1021.05 39.2371 1026.19 32.6746 Q1031.38 26.1121 1039.6 26.1121 Q1044.63 26.1121 1048.19 28.0971 Q1051.8 30.0415 1054.15 34.0924 L1054.15 27.2059 L1061.6 27.2059 L1061.6 89.8329 L1054.15 89.8329 L1054.15 65.7705 Z" fill="#000000" fill-rule="nonzero" fill-opacity="1" /><path clip-path="url(#clip760)" d="M1076.18 54.671 L1076.18 27.2059 L1083.64 27.2059 L1083.64 54.3874 Q1083.64 60.8284 1086.15 64.0691 Q1088.66 67.2693 1093.68 67.2693 Q1099.72 67.2693 1103.2 63.421 Q1106.73 59.5726 1106.73 52.9291 L1106.73 27.2059 L1114.18 27.2059 L1114.18 72.576 L1106.73 72.576 L1106.73 65.6084 Q1104.01 69.7404 1100.41 71.7658 Q1096.84 73.7508 1092.1 73.7508 Q1084.28 73.7508 1080.23 68.8897 Q1076.18 64.0286 1076.18 54.671 M1094.94 26.1121 L1094.94 26.1121 Z" fill="#000000" fill-rule="nonzero" fill-opacity="1" /><path clip-path="url(#clip760)" d="M1150.15 49.7694 Q1141.12 49.7694 1137.63 51.8354 Q1134.15 53.9013 1134.15 58.8839 Q1134.15 62.8538 1136.74 65.2034 Q1139.38 67.5124 1143.87 67.5124 Q1150.07 67.5124 1153.8 63.1374 Q1157.56 58.7219 1157.56 51.4303 L1157.56 49.7694 L1150.15 49.7694 M1165.02 46.6907 L1165.02 72.576 L1157.56 72.576 L1157.56 65.6895 Q1155.01 69.8214 1151.2 71.8063 Q1147.4 73.7508 1141.89 73.7508 Q1134.92 73.7508 1130.79 69.8619 Q1126.7 65.9325 1126.7 59.3701 Q1126.7 51.7138 1131.8 47.825 Q1136.95 43.9361 1147.11 43.9361 L1157.56 43.9361 L1157.56 43.2069 Q1157.56 38.0623 1154.16 35.2672 Q1150.8 32.4315 1144.68 32.4315 Q1140.79 32.4315 1137.11 33.3632 Q1133.42 34.295 1130.02 36.1584 L1130.02 29.2718 Q1134.11 27.692 1137.96 26.9223 Q1141.81 26.1121 1145.45 26.1121 Q1155.3 26.1121 1160.16 31.2163 Q1165.02 36.3204 1165.02 46.6907 Z" fill="#000000" fill-rule="nonzero" fill-opacity="1" /><path clip-path="url(#clip760)" d="M1206.66 34.1734 Q1205.41 33.4443 1203.91 33.1202 Q1202.45 32.7556 1200.67 32.7556 Q1194.35 32.7556 1190.94 36.8875 Q1187.58 40.9789 1187.58 48.6757 L1187.58 72.576 L1180.09 72.576 L1180.09 27.2059 L1187.58 27.2059 L1187.58 34.2544 Q1189.93 30.1225 1193.7 28.1376 Q1197.47 26.1121 1202.85 26.1121 Q1203.62 26.1121 1204.56 26.2337 Q1205.49 26.3147 1206.62 26.5172 L1206.66 34.1734 Z" fill="#000000" fill-rule="nonzero" fill-opacity="1" /><path clip-path="url(#clip760)" d="M1251.46 48.0275 L1251.46 51.6733 L1217.19 51.6733 Q1217.68 59.3701 1221.81 63.421 Q1225.98 67.4314 1233.4 67.4314 Q1237.69 67.4314 1241.7 66.3781 Q1245.75 65.3249 1249.72 63.2184 L1249.72 70.267 Q1245.71 71.9684 1241.5 72.8596 Q1237.29 73.7508 1232.95 73.7508 Q1222.1 73.7508 1215.74 67.4314 Q1209.42 61.1119 1209.42 50.3365 Q1209.42 39.1965 1215.41 32.6746 Q1221.45 26.1121 1231.66 26.1121 Q1240.81 26.1121 1246.12 32.0264 Q1251.46 37.9003 1251.46 48.0275 M1244.01 45.84 Q1243.93 39.7232 1240.57 36.0774 Q1237.25 32.4315 1231.74 32.4315 Q1225.5 32.4315 1221.73 35.9558 Q1218 39.4801 1217.44 45.8805 L1244.01 45.84 Z" fill="#000000" fill-rule="nonzero" fill-opacity="1" /><path clip-path="url(#clip760)" d="M1293.55 34.0924 L1293.55 9.54393 L1301.01 9.54393 L1301.01 72.576 L1293.55 72.576 L1293.55 65.7705 Q1291.2 69.8214 1287.6 71.8063 Q1284.03 73.7508 1279.01 73.7508 Q1270.79 73.7508 1265.6 67.1883 Q1260.46 60.6258 1260.46 49.9314 Q1260.46 39.2371 1265.6 32.6746 Q1270.79 26.1121 1279.01 26.1121 Q1284.03 26.1121 1287.6 28.0971 Q1291.2 30.0415 1293.55 34.0924 M1268.15 49.9314 Q1268.15 58.1548 1271.52 62.8538 Q1274.92 67.5124 1280.83 67.5124 Q1286.75 67.5124 1290.15 62.8538 Q1293.55 58.1548 1293.55 49.9314 Q1293.55 41.7081 1290.15 37.0496 Q1286.75 32.3505 1280.83 32.3505 Q1274.92 32.3505 1271.52 37.0496 Q1268.15 41.7081 1268.15 49.9314 Z" fill="#000000" fill-rule="nonzero" fill-opacity="1" /><path clip-path="url(#clip760)" d="M1343.06 12.096 L1381.3 12.096 L1381.3 18.9825 L1351.24 18.9825 L1351.24 36.8875 L1380.04 36.8875 L1380.04 43.7741 L1351.24 43.7741 L1351.24 65.6895 L1382.03 65.6895 L1382.03 72.576 L1343.06 72.576 L1343.06 12.096 Z" fill="#000000" fill-rule="nonzero" fill-opacity="1" /><path clip-path="url(#clip760)" d="M1421.44 34.1734 Q1420.18 33.4443 1418.69 33.1202 Q1417.23 32.7556 1415.45 32.7556 Q1409.13 32.7556 1405.72 36.8875 Q1402.36 40.9789 1402.36 48.6757 L1402.36 72.576 L1394.87 72.576 L1394.87 27.2059 L1402.36 27.2059 L1402.36 34.2544 Q1404.71 30.1225 1408.48 28.1376 Q1412.25 26.1121 1417.63 26.1121 Q1418.4 26.1121 1419.33 26.2337 Q1420.27 26.3147 1421.4 26.5172 L1421.44 34.1734 Z" fill="#000000" fill-rule="nonzero" fill-opacity="1" /><path clip-path="url(#clip760)" d="M1454.09 34.1734 Q1452.84 33.4443 1451.34 33.1202 Q1449.88 32.7556 1448.1 32.7556 Q1441.78 32.7556 1438.37 36.8875 Q1435.01 40.9789 1435.01 48.6757 L1435.01 72.576 L1427.52 72.576 L1427.52 27.2059 L1435.01 27.2059 L1435.01 34.2544 Q1437.36 30.1225 1441.13 28.1376 Q1444.9 26.1121 1450.28 26.1121 Q1451.05 26.1121 1451.98 26.2337 Q1452.92 26.3147 1454.05 26.5172 L1454.09 34.1734 Z" fill="#000000" fill-rule="nonzero" fill-opacity="1" /><path clip-path="url(#clip760)" d="M1477.67 32.4315 Q1471.67 32.4315 1468.19 37.1306 Q1464.7 41.7891 1464.7 49.9314 Q1464.7 58.0738 1468.15 62.7728 Q1471.63 67.4314 1477.67 67.4314 Q1483.62 67.4314 1487.11 62.7323 Q1490.59 58.0333 1490.59 49.9314 Q1490.59 41.8701 1487.11 37.1711 Q1483.62 32.4315 1477.67 32.4315 M1477.67 26.1121 Q1487.39 26.1121 1492.94 32.4315 Q1498.49 38.7509 1498.49 49.9314 Q1498.49 61.0714 1492.94 67.4314 Q1487.39 73.7508 1477.67 73.7508 Q1467.9 73.7508 1462.35 67.4314 Q1456.85 61.0714 1456.85 49.9314 Q1456.85 38.7509 1462.35 32.4315 Q1467.9 26.1121 1477.67 26.1121 Z" fill="#000000" fill-rule="nonzero" fill-opacity="1" /><path clip-path="url(#clip760)" d="M1537.13 34.1734 Q1535.88 33.4443 1534.38 33.1202 Q1532.92 32.7556 1531.14 32.7556 Q1524.82 32.7556 1521.42 36.8875 Q1518.05 40.9789 1518.05 48.6757 L1518.05 72.576 L1510.56 72.576 L1510.56 27.2059 L1518.05 27.2059 L1518.05 34.2544 Q1520.4 30.1225 1524.17 28.1376 Q1527.94 26.1121 1533.33 26.1121 Q1534.1 26.1121 1535.03 26.2337 Q1535.96 26.3147 1537.09 26.5172 L1537.13 34.1734 Z" fill="#000000" fill-rule="nonzero" fill-opacity="1" /><path clip-path="url(#clip760)" d="M1589.23 9.62495 Q1583.8 18.942 1581.17 28.0566 Q1578.53 37.1711 1578.53 46.5287 Q1578.53 55.8863 1581.17 65.0818 Q1583.84 74.2369 1589.23 83.5134 L1582.75 83.5134 Q1576.67 73.9938 1573.63 64.7983 Q1570.64 55.6027 1570.64 46.5287 Q1570.64 37.4952 1573.63 28.3401 Q1576.63 19.1851 1582.75 9.62495 L1589.23 9.62495 Z" fill="#000000" fill-rule="nonzero" fill-opacity="1" /><path clip-path="url(#clip760)" d="M1603.69 27.2059 L1611.14 27.2059 L1611.14 72.576 L1603.69 72.576 L1603.69 27.2059 M1603.69 9.54393 L1611.14 9.54393 L1611.14 18.9825 L1603.69 18.9825 L1603.69 9.54393 Z" fill="#000000" fill-rule="nonzero" fill-opacity="1" /><path clip-path="url(#clip760)" d="M1664.45 45.1919 L1664.45 72.576 L1657 72.576 L1657 45.4349 Q1657 38.994 1654.49 35.7938 Q1651.98 32.5936 1646.95 32.5936 Q1640.92 32.5936 1637.43 36.4419 Q1633.95 40.2903 1633.95 46.9338 L1633.95 72.576 L1626.46 72.576 L1626.46 27.2059 L1633.95 27.2059 L1633.95 34.2544 Q1636.62 30.163 1640.23 28.1376 Q1643.88 26.1121 1648.62 26.1121 Q1656.43 26.1121 1660.44 30.9732 Q1664.45 35.7938 1664.45 45.1919 Z" fill="#000000" fill-rule="nonzero" fill-opacity="1" /><path clip-path="url(#clip760)" d="M1679.32 27.2059 L1686.77 27.2059 L1686.77 72.576 L1679.32 72.576 L1679.32 27.2059 M1679.32 9.54393 L1686.77 9.54393 L1686.77 18.9825 L1679.32 18.9825 L1679.32 9.54393 Z" fill="#000000" fill-rule="nonzero" fill-opacity="1" /><path clip-path="url(#clip760)" d="M1709.74 14.324 L1709.74 27.2059 L1725.1 27.2059 L1725.1 32.9987 L1709.74 32.9987 L1709.74 57.6282 Q1709.74 63.1779 1711.24 64.7578 Q1712.78 66.3376 1717.44 66.3376 L1725.1 66.3376 L1725.1 72.576 L1717.44 72.576 Q1708.81 72.576 1705.53 69.3758 Q1702.25 66.1351 1702.25 57.6282 L1702.25 32.9987 L1696.78 32.9987 L1696.78 27.2059 L1702.25 27.2059 L1702.25 14.324 L1709.74 14.324 Z" fill="#000000" fill-rule="nonzero" fill-opacity="1" /><path clip-path="url(#clip760)" d="M1734.9 27.2059 L1742.35 27.2059 L1742.35 72.576 L1734.9 72.576 L1734.9 27.2059 M1734.9 9.54393 L1742.35 9.54393 L1742.35 18.9825 L1734.9 18.9825 L1734.9 9.54393 Z" fill="#000000" fill-rule="nonzero" fill-opacity="1" /><path clip-path="url(#clip760)" d="M1778.57 49.7694 Q1769.53 49.7694 1766.05 51.8354 Q1762.57 53.9013 1762.57 58.8839 Q1762.57 62.8538 1765.16 65.2034 Q1767.79 67.5124 1772.29 67.5124 Q1778.49 67.5124 1782.21 63.1374 Q1785.98 58.7219 1785.98 51.4303 L1785.98 49.7694 L1778.57 49.7694 M1793.44 46.6907 L1793.44 72.576 L1785.98 72.576 L1785.98 65.6895 Q1783.43 69.8214 1779.62 71.8063 Q1775.81 73.7508 1770.3 73.7508 Q1763.34 73.7508 1759.2 69.8619 Q1755.11 65.9325 1755.11 59.3701 Q1755.11 51.7138 1760.22 47.825 Q1765.36 43.9361 1775.53 43.9361 L1785.98 43.9361 L1785.98 43.2069 Q1785.98 38.0623 1782.58 35.2672 Q1779.22 32.4315 1773.1 32.4315 Q1769.21 32.4315 1765.52 33.3632 Q1761.84 34.295 1758.44 36.1584 L1758.44 29.2718 Q1762.53 27.692 1766.38 26.9223 Q1770.22 26.1121 1773.87 26.1121 Q1783.71 26.1121 1788.57 31.2163 Q1793.44 36.3204 1793.44 46.6907 Z" fill="#000000" fill-rule="nonzero" fill-opacity="1" /><path clip-path="url(#clip760)" d="M1808.79 9.54393 L1816.24 9.54393 L1816.24 72.576 L1808.79 72.576 L1808.79 9.54393 Z" fill="#000000" fill-rule="nonzero" fill-opacity="1" /><path clip-path="url(#clip760)" d="M1830.66 9.62495 L1837.14 9.62495 Q1843.22 19.1851 1846.22 28.3401 Q1849.26 37.4952 1849.26 46.5287 Q1849.26 55.6027 1846.22 64.7983 Q1843.22 73.9938 1837.14 83.5134 L1830.66 83.5134 Q1836.05 74.2369 1838.68 65.0818 Q1841.36 55.8863 1841.36 46.5287 Q1841.36 37.1711 1838.68 28.0566 Q1836.05 18.942 1830.66 9.62495 Z" fill="#000000" fill-rule="nonzero" fill-opacity="1" /><circle clip-path="url(#clip762)" cx="309.067" cy="369.614" r="3.6" fill="#009af9" fill-rule="evenodd" fill-opacity="1" stroke="#000000" stroke-opacity="1" stroke-width="3.2"/>
<circle clip-path="url(#clip762)" cx="970.455" cy="169.781" r="3.6" fill="#009af9" fill-rule="evenodd" fill-opacity="1" stroke="#000000" stroke-opacity="1" stroke-width="3.2"/>
<circle clip-path="url(#clip762)" cx="1631.84" cy="1386.4" r="3.6" fill="#009af9" fill-rule="evenodd" fill-opacity="1" stroke="#000000" stroke-opacity="1" stroke-width="3.2"/>
<circle clip-path="url(#clip762)" cx="2293.23" cy="160.256" r="3.6" fill="#009af9" fill-rule="evenodd" fill-opacity="1" stroke="#000000" stroke-opacity="1" stroke-width="3.2"/>
<path clip-path="url(#clip760)" d="M1979.06 1379.86 L2282.65 1379.86 L2282.65 1276.18 L1979.06 1276.18  Z" fill="#ffffff" fill-rule="evenodd" fill-opacity="1"/>
<polyline clip-path="url(#clip760)" style="stroke:#000000; stroke-linecap:round; stroke-linejoin:round; stroke-width:4; stroke-opacity:1; fill:none" points="1979.06,1379.86 2282.65,1379.86 2282.65,1276.18 1979.06,1276.18 1979.06,1379.86 "/>
<circle clip-path="url(#clip760)" cx="2072.54" cy="1328.02" r="15.36" fill="#009af9" fill-rule="evenodd" fill-opacity="1" stroke="#000000" stroke-opacity="1" stroke-width="13.6533"/>
<path clip-path="url(#clip760)" d="M2166.02 1310.74 L2172.98 1310.74 L2181.8 1334.25 L2190.67 1310.74 L2197.64 1310.74 L2197.64 1345.3 L2193.08 1345.3 L2193.08 1314.95 L2184.16 1338.65 L2179.47 1338.65 L2170.55 1314.95 L2170.55 1345.3 L2166.02 1345.3 L2166.02 1310.74 Z" fill="#000000" fill-rule="nonzero" fill-opacity="1" /><path clip-path="url(#clip760)" d="M2227.64 1311.87 L2227.64 1316.43 Q2224.97 1315.16 2222.61 1314.53 Q2220.25 1313.91 2218.05 1313.91 Q2214.23 1313.91 2212.15 1315.39 Q2210.09 1316.87 2210.09 1319.6 Q2210.09 1321.89 2211.46 1323.07 Q2212.84 1324.23 2216.69 1324.95 L2219.51 1325.53 Q2224.74 1326.52 2227.22 1329.05 Q2229.72 1331.55 2229.72 1335.76 Q2229.72 1340.78 2226.34 1343.37 Q2222.98 1345.97 2216.48 1345.97 Q2214.03 1345.97 2211.25 1345.41 Q2208.49 1344.86 2205.53 1343.77 L2205.53 1338.95 Q2208.38 1340.55 2211.11 1341.36 Q2213.84 1342.17 2216.48 1342.17 Q2220.48 1342.17 2222.66 1340.6 Q2224.84 1339.02 2224.84 1336.11 Q2224.84 1333.56 2223.26 1332.13 Q2221.71 1330.69 2218.15 1329.97 L2215.3 1329.42 Q2210.07 1328.38 2207.73 1326.15 Q2205.39 1323.93 2205.39 1319.97 Q2205.39 1315.39 2208.61 1312.75 Q2211.85 1310.11 2217.52 1310.11 Q2219.95 1310.11 2222.47 1310.55 Q2225 1310.99 2227.64 1311.87 Z" fill="#000000" fill-rule="nonzero" fill-opacity="1" /><path clip-path="url(#clip760)" d="M2237.01 1310.74 L2258.86 1310.74 L2258.86 1314.67 L2241.69 1314.67 L2241.69 1324.9 L2258.15 1324.9 L2258.15 1328.84 L2241.69 1328.84 L2241.69 1341.36 L2259.28 1341.36 L2259.28 1345.3 L2237.01 1345.3 L2237.01 1310.74 Z" fill="#000000" fill-rule="nonzero" fill-opacity="1" /></svg>
