<?xml version="1.0" encoding="utf-8"?>
<svg xmlns="http://www.w3.org/2000/svg" xmlns:xlink="http://www.w3.org/1999/xlink" width="600" height="400" viewBox="0 0 2400 1600">
<defs>
  <clipPath id="clip230">
    <rect x="0" y="0" width="2400" height="1600"/>
  </clipPath>
</defs>
<path clip-path="url(#clip230)" d="M0 1600 L2400 1600 L2400 8.88178e-14 L0 8.88178e-14  Z" fill="#ffffff" fill-rule="evenodd" fill-opacity="1"/>
<defs>
  <clipPath id="clip231">
    <rect x="480" y="0" width="1681" height="1600"/>
  </clipPath>
</defs>
<path clip-path="url(#clip230)" d="M219.866 1423.18 L2352.76 1423.18 L2352.76 123.472 L219.866 123.472  Z" fill="#ffffff" fill-rule="evenodd" fill-opacity="1"/>
<defs>
  <clipPath id="clip232">
    <rect x="219" y="123" width="2134" height="1301"/>
  </clipPath>
</defs>
<polyline clip-path="url(#clip232)" style="stroke:#000000; stroke-linecap:round; stroke-linejoin:round; stroke-width:2; stroke-opacity:0.1; fill:none" points="280.231,1423.18 280.231,123.472 "/>
<polyline clip-path="url(#clip232)" style="stroke:#000000; stroke-linecap:round; stroke-linejoin:round; stroke-width:2; stroke-opacity:0.1; fill:none" points="950.951,1423.18 950.951,123.472 "/>
<polyline clip-path="url(#clip232)" style="stroke:#000000; stroke-linecap:round; stroke-linejoin:round; stroke-width:2; stroke-opacity:0.1; fill:none" points="1621.67,1423.18 1621.67,123.472 "/>
<polyline clip-path="url(#clip232)" style="stroke:#000000; stroke-linecap:round; stroke-linejoin:round; stroke-width:2; stroke-opacity:0.1; fill:none" points="2292.39,1423.18 2292.39,123.472 "/>
<polyline clip-path="url(#clip230)" style="stroke:#000000; stroke-linecap:round; stroke-linejoin:round; stroke-width:4; stroke-opacity:1; fill:none" points="219.866,1423.18 2352.76,1423.18 "/>
<polyline clip-path="url(#clip230)" style="stroke:#000000; stroke-linecap:round; stroke-linejoin:round; stroke-width:4; stroke-opacity:1; fill:none" points="280.231,1423.18 280.231,1404.28 "/>
<polyline clip-path="url(#clip230)" style="stroke:#000000; stroke-linecap:round; stroke-linejoin:round; stroke-width:4; stroke-opacity:1; fill:none" points="950.951,1423.18 950.951,1404.28 "/>
<polyline clip-path="url(#clip230)" style="stroke:#000000; stroke-linecap:round; stroke-linejoin:round; stroke-width:4; stroke-opacity:1; fill:none" points="1621.67,1423.18 1621.67,1404.28 "/>
<polyline clip-path="url(#clip230)" style="stroke:#000000; stroke-linecap:round; stroke-linejoin:round; stroke-width:4; stroke-opacity:1; fill:none" points="2292.39,1423.18 2292.39,1404.28 "/>
<path clip-path="url(#clip230)" d="M270.613 1481.64 L278.252 1481.64 L278.252 1455.28 L269.942 1456.95 L269.942 1452.69 L278.206 1451.02 L282.882 1451.02 L282.882 1481.64 L290.52 1481.64 L290.52 1485.58 L270.613 1485.58 L270.613 1481.64 Z" fill="#000000" fill-rule="nonzero" fill-opacity="1" /><path clip-path="url(#clip230)" d="M945.604 1481.64 L961.923 1481.64 L961.923 1485.58 L939.979 1485.58 L939.979 1481.64 Q942.641 1478.89 947.224 1474.26 Q951.831 1469.61 953.011 1468.27 Q955.257 1465.74 956.136 1464.01 Q957.039 1462.25 957.039 1460.56 Q957.039 1457.8 955.095 1456.07 Q953.173 1454.33 950.071 1454.33 Q947.872 1454.33 945.419 1455.09 Q942.988 1455.86 940.21 1457.41 L940.21 1452.69 Q943.034 1451.55 945.488 1450.97 Q947.942 1450.39 949.979 1450.39 Q955.349 1450.39 958.544 1453.08 Q961.738 1455.77 961.738 1460.26 Q961.738 1462.39 960.928 1464.31 Q960.141 1466.2 958.034 1468.8 Q957.456 1469.47 954.354 1472.69 Q951.252 1475.88 945.604 1481.64 Z" fill="#000000" fill-rule="nonzero" fill-opacity="1" /><path clip-path="url(#clip230)" d="M1625.92 1466.95 Q1629.28 1467.66 1631.15 1469.93 Q1633.05 1472.2 1633.05 1475.53 Q1633.05 1480.65 1629.53 1483.45 Q1626.01 1486.25 1619.53 1486.25 Q1617.35 1486.25 1615.04 1485.81 Q1612.75 1485.39 1610.29 1484.54 L1610.29 1480.02 Q1612.24 1481.16 1614.55 1481.74 Q1616.87 1482.32 1619.39 1482.32 Q1623.79 1482.32 1626.08 1480.58 Q1628.4 1478.84 1628.4 1475.53 Q1628.4 1472.48 1626.24 1470.77 Q1624.11 1469.03 1620.29 1469.03 L1616.27 1469.03 L1616.27 1465.19 L1620.48 1465.19 Q1623.93 1465.19 1625.76 1463.82 Q1627.59 1462.43 1627.59 1459.84 Q1627.59 1457.18 1625.69 1455.77 Q1623.81 1454.33 1620.29 1454.33 Q1618.37 1454.33 1616.17 1454.75 Q1613.97 1455.16 1611.34 1456.04 L1611.34 1451.88 Q1614 1451.14 1616.31 1450.77 Q1618.65 1450.39 1620.71 1450.39 Q1626.03 1450.39 1629.14 1452.83 Q1632.24 1455.23 1632.24 1459.35 Q1632.24 1462.22 1630.59 1464.21 Q1628.95 1466.18 1625.92 1466.95 Z" fill="#000000" fill-rule="nonzero" fill-opacity="1" /><path clip-path="url(#clip230)" d="M2295.4 1455.09 L2283.59 1473.54 L2295.4 1473.54 L2295.4 1455.09 M2294.17 1451.02 L2300.05 1451.02 L2300.05 1473.54 L2304.98 1473.54 L2304.98 1477.43 L2300.05 1477.43 L2300.05 1485.58 L2295.4 1485.58 L2295.4 1477.43 L2279.8 1477.43 L2279.8 1472.92 L2294.17 1451.02 Z" fill="#000000" fill-rule="nonzero" fill-opacity="1" /><path clip-path="url(#clip230)" d="M1221.87 1561.26 L1221.87 1548.5 L1211.37 1548.5 L1211.37 1543.22 L1228.24 1543.22 L1228.24 1563.62 Q1224.52 1566.26 1220.03 1567.63 Q1215.54 1568.97 1210.45 1568.97 Q1199.31 1568.97 1193.01 1562.47 Q1186.74 1555.95 1186.74 1544.33 Q1186.74 1532.68 1193.01 1526.19 Q1199.31 1519.66 1210.45 1519.66 Q1215.09 1519.66 1219.26 1520.81 Q1223.47 1521.96 1227 1524.18 L1227 1531.03 Q1223.43 1528 1219.42 1526.48 Q1215.41 1524.95 1210.99 1524.95 Q1202.27 1524.95 1197.88 1529.82 Q1193.51 1534.69 1193.51 1544.33 Q1193.51 1553.94 1197.88 1558.81 Q1202.27 1563.68 1210.99 1563.68 Q1214.39 1563.68 1217.07 1563.11 Q1219.74 1562.51 1221.87 1561.26 Z" fill="#000000" fill-rule="nonzero" fill-opacity="1" /><path clip-path="url(#clip230)" d="M1270.22 1548.76 L1270.22 1551.62 L1243.29 1551.62 Q1243.68 1557.67 1246.92 1560.85 Q1250.2 1564 1256.03 1564 Q1259.4 1564 1262.55 1563.17 Q1265.73 1562.35 1268.85 1560.69 L1268.85 1566.23 Q1265.7 1567.57 1262.39 1568.27 Q1259.08 1568.97 1255.68 1568.97 Q1247.15 1568.97 1242.15 1564 Q1237.18 1559.04 1237.18 1550.57 Q1237.18 1541.82 1241.89 1536.69 Q1246.64 1531.54 1254.66 1531.54 Q1261.85 1531.54 1266.02 1536.18 Q1270.22 1540.8 1270.22 1548.76 M1264.37 1547.04 Q1264.3 1542.23 1261.66 1539.37 Q1259.05 1536.5 1254.72 1536.5 Q1249.82 1536.5 1246.86 1539.27 Q1243.93 1542.04 1243.49 1547.07 L1264.37 1547.04 Z" fill="#000000" fill-rule="nonzero" fill-opacity="1" /><path clip-path="url(#clip230)" d="M1309.47 1546.53 L1309.47 1568.04 L1303.61 1568.04 L1303.61 1546.72 Q1303.61 1541.66 1301.64 1539.14 Q1299.66 1536.63 1295.72 1536.63 Q1290.97 1536.63 1288.24 1539.65 Q1285.5 1542.68 1285.5 1547.9 L1285.5 1568.04 L1279.61 1568.04 L1279.61 1532.4 L1285.5 1532.4 L1285.5 1537.93 Q1287.6 1534.72 1290.43 1533.13 Q1293.3 1531.54 1297.02 1531.54 Q1303.16 1531.54 1306.32 1535.36 Q1309.47 1539.14 1309.47 1546.53 Z" fill="#000000" fill-rule="nonzero" fill-opacity="1" /><path clip-path="url(#clip230)" d="M1351.64 1548.76 L1351.64 1551.62 L1324.71 1551.62 Q1325.09 1557.67 1328.34 1560.85 Q1331.62 1564 1337.44 1564 Q1340.82 1564 1343.97 1563.17 Q1347.15 1562.35 1350.27 1560.69 L1350.27 1566.23 Q1347.12 1567.57 1343.81 1568.27 Q1340.5 1568.97 1337.09 1568.97 Q1328.56 1568.97 1323.57 1564 Q1318.6 1559.04 1318.6 1550.57 Q1318.6 1541.82 1323.31 1536.69 Q1328.05 1531.54 1336.07 1531.54 Q1343.27 1531.54 1347.44 1536.18 Q1351.64 1540.8 1351.64 1548.76 M1345.78 1547.04 Q1345.72 1542.23 1343.08 1539.37 Q1340.47 1536.5 1336.14 1536.5 Q1331.24 1536.5 1328.28 1539.27 Q1325.35 1542.04 1324.9 1547.07 L1345.78 1547.04 Z" fill="#000000" fill-rule="nonzero" fill-opacity="1" /><path clip-path="url(#clip230)" d="M1383.98 1533.45 L1383.98 1538.98 Q1381.49 1537.71 1378.82 1537.07 Q1376.15 1536.44 1373.28 1536.44 Q1368.92 1536.44 1366.73 1537.77 Q1364.56 1539.11 1364.56 1541.79 Q1364.56 1543.82 1366.12 1545 Q1367.68 1546.15 1372.39 1547.2 L1374.4 1547.64 Q1380.63 1548.98 1383.24 1551.43 Q1385.89 1553.85 1385.89 1558.21 Q1385.89 1563.17 1381.94 1566.07 Q1378.03 1568.97 1371.15 1568.97 Q1368.29 1568.97 1365.17 1568.39 Q1362.08 1567.85 1358.64 1566.74 L1358.64 1560.69 Q1361.89 1562.38 1365.04 1563.24 Q1368.19 1564.07 1371.28 1564.07 Q1375.42 1564.07 1377.64 1562.66 Q1379.87 1561.23 1379.87 1558.65 Q1379.87 1556.27 1378.25 1554.99 Q1376.66 1553.72 1371.21 1552.54 L1369.18 1552.07 Q1363.73 1550.92 1361.32 1548.56 Q1358.9 1546.18 1358.9 1542.04 Q1358.9 1537.01 1362.46 1534.27 Q1366.03 1531.54 1372.58 1531.54 Q1375.83 1531.54 1378.69 1532.01 Q1381.56 1532.49 1383.98 1533.45 Z" fill="#000000" fill-rule="nonzero" fill-opacity="1" /><polyline clip-path="url(#clip232)" style="stroke:#000000; stroke-linecap:round; stroke-linejoin:round; stroke-width:2; stroke-opacity:0.1; fill:none" points="219.866,1389.69 2352.76,1389.69 "/>
<polyline clip-path="url(#clip232)" style="stroke:#000000; stroke-linecap:round; stroke-linejoin:round; stroke-width:2; stroke-opacity:0.1; fill:none" points="219.866,1180 2352.76,1180 "/>
<polyline clip-path="url(#clip232)" style="stroke:#000000; stroke-linecap:round; stroke-linejoin:round; stroke-width:2; stroke-opacity:0.1; fill:none" points="219.866,970.314 2352.76,970.314 "/>
<polyline clip-path="url(#clip232)" style="stroke:#000000; stroke-linecap:round; stroke-linejoin:round; stroke-width:2; stroke-opacity:0.1; fill:none" points="219.866,760.624 2352.76,760.624 "/>
<polyline clip-path="url(#clip232)" style="stroke:#000000; stroke-linecap:round; stroke-linejoin:round; stroke-width:2; stroke-opacity:0.1; fill:none" points="219.866,550.934 2352.76,550.934 "/>
<polyline clip-path="url(#clip232)" style="stroke:#000000; stroke-linecap:round; stroke-linejoin:round; stroke-width:2; stroke-opacity:0.1; fill:none" points="219.866,341.245 2352.76,341.245 "/>
<polyline clip-path="url(#clip232)" style="stroke:#000000; stroke-linecap:round; stroke-linejoin:round; stroke-width:2; stroke-opacity:0.1; fill:none" points="219.866,131.555 2352.76,131.555 "/>
<polyline clip-path="url(#clip230)" style="stroke:#000000; stroke-linecap:round; stroke-linejoin:round; stroke-width:4; stroke-opacity:1; fill:none" points="219.866,1423.18 219.866,123.472 "/>
<polyline clip-path="url(#clip230)" style="stroke:#000000; stroke-linecap:round; stroke-linejoin:round; stroke-width:4; stroke-opacity:1; fill:none" points="219.866,1389.69 238.764,1389.69 "/>
<polyline clip-path="url(#clip230)" style="stroke:#000000; stroke-linecap:round; stroke-linejoin:round; stroke-width:4; stroke-opacity:1; fill:none" points="219.866,1180 238.764,1180 "/>
<polyline clip-path="url(#clip230)" style="stroke:#000000; stroke-linecap:round; stroke-linejoin:round; stroke-width:4; stroke-opacity:1; fill:none" points="219.866,970.314 238.764,970.314 "/>
<polyline clip-path="url(#clip230)" style="stroke:#000000; stroke-linecap:round; stroke-linejoin:round; stroke-width:4; stroke-opacity:1; fill:none" points="219.866,760.624 238.764,760.624 "/>
<polyline clip-path="url(#clip230)" style="stroke:#000000; stroke-linecap:round; stroke-linejoin:round; stroke-width:4; stroke-opacity:1; fill:none" points="219.866,550.934 238.764,550.934 "/>
<polyline clip-path="url(#clip230)" style="stroke:#000000; stroke-linecap:round; stroke-linejoin:round; stroke-width:4; stroke-opacity:1; fill:none" points="219.866,341.245 238.764,341.245 "/>
<polyline clip-path="url(#clip230)" style="stroke:#000000; stroke-linecap:round; stroke-linejoin:round; stroke-width:4; stroke-opacity:1; fill:none" points="219.866,131.555 238.764,131.555 "/>
<path clip-path="url(#clip230)" d="M128.288 1375.49 Q124.677 1375.49 122.848 1379.06 Q121.043 1382.6 121.043 1389.73 Q121.043 1396.84 122.848 1400.4 Q124.677 1403.94 128.288 1403.94 Q131.922 1403.94 133.728 1400.4 Q135.556 1396.84 135.556 1389.73 Q135.556 1382.6 133.728 1379.06 Q131.922 1375.49 128.288 1375.49 M128.288 1371.79 Q134.098 1371.79 137.154 1376.4 Q140.232 1380.98 140.232 1389.73 Q140.232 1398.46 137.154 1403.06 Q134.098 1407.65 128.288 1407.65 Q122.478 1407.65 119.399 1403.06 Q116.343 1398.46 116.343 1389.73 Q116.343 1380.98 119.399 1376.4 Q122.478 1371.79 128.288 1371.79 Z" fill="#000000" fill-rule="nonzero" fill-opacity="1" /><path clip-path="url(#clip230)" d="M148.45 1401.09 L153.334 1401.09 L153.334 1406.97 L148.45 1406.97 L148.45 1401.09 Z" fill="#000000" fill-rule="nonzero" fill-opacity="1" /><path clip-path="url(#clip230)" d="M167.547 1403.04 L183.866 1403.04 L183.866 1406.97 L161.922 1406.97 L161.922 1403.04 Q164.584 1400.28 169.167 1395.65 Q173.774 1391 174.954 1389.66 Q177.2 1387.14 178.079 1385.4 Q178.982 1383.64 178.982 1381.95 Q178.982 1379.2 177.038 1377.46 Q175.116 1375.72 172.014 1375.72 Q169.815 1375.72 167.362 1376.49 Q164.931 1377.25 162.153 1378.8 L162.153 1374.08 Q164.977 1372.95 167.431 1372.37 Q169.885 1371.79 171.922 1371.79 Q177.292 1371.79 180.487 1374.47 Q183.681 1377.16 183.681 1381.65 Q183.681 1383.78 182.871 1385.7 Q182.084 1387.6 179.977 1390.19 Q179.399 1390.86 176.297 1394.08 Q173.195 1397.27 167.547 1403.04 Z" fill="#000000" fill-rule="nonzero" fill-opacity="1" /><path clip-path="url(#clip230)" d="M127.339 1165.8 Q123.728 1165.8 121.899 1169.37 Q120.093 1172.91 120.093 1180.04 Q120.093 1187.15 121.899 1190.71 Q123.728 1194.25 127.339 1194.25 Q130.973 1194.25 132.779 1190.71 Q134.607 1187.15 134.607 1180.04 Q134.607 1172.91 132.779 1169.37 Q130.973 1165.8 127.339 1165.8 M127.339 1162.1 Q133.149 1162.1 136.204 1166.71 Q139.283 1171.29 139.283 1180.04 Q139.283 1188.77 136.204 1193.37 Q133.149 1197.96 127.339 1197.96 Q121.529 1197.96 118.45 1193.37 Q115.394 1188.77 115.394 1180.04 Q115.394 1171.29 118.45 1166.71 Q121.529 1162.1 127.339 1162.1 Z" fill="#000000" fill-rule="nonzero" fill-opacity="1" /><path clip-path="url(#clip230)" d="M147.501 1191.4 L152.385 1191.4 L152.385 1197.28 L147.501 1197.28 L147.501 1191.4 Z" fill="#000000" fill-rule="nonzero" fill-opacity="1" /><path clip-path="url(#clip230)" d="M176.737 1178.65 Q180.093 1179.37 181.968 1181.64 Q183.866 1183.9 183.866 1187.24 Q183.866 1192.35 180.348 1195.15 Q176.829 1197.96 170.348 1197.96 Q168.172 1197.96 165.857 1197.52 Q163.565 1197.1 161.112 1196.24 L161.112 1191.73 Q163.056 1192.86 165.371 1193.44 Q167.686 1194.02 170.209 1194.02 Q174.607 1194.02 176.899 1192.28 Q179.214 1190.55 179.214 1187.24 Q179.214 1184.18 177.061 1182.47 Q174.931 1180.73 171.112 1180.73 L167.084 1180.73 L167.084 1176.89 L171.297 1176.89 Q174.746 1176.89 176.575 1175.52 Q178.403 1174.14 178.403 1171.54 Q178.403 1168.88 176.505 1167.47 Q174.63 1166.03 171.112 1166.03 Q169.19 1166.03 166.991 1166.45 Q164.792 1166.87 162.153 1167.75 L162.153 1163.58 Q164.815 1162.84 167.13 1162.47 Q169.468 1162.1 171.528 1162.1 Q176.852 1162.1 179.954 1164.53 Q183.056 1166.94 183.056 1171.06 Q183.056 1173.93 181.413 1175.92 Q179.769 1177.89 176.737 1178.65 Z" fill="#000000" fill-rule="nonzero" fill-opacity="1" /><path clip-path="url(#clip230)" d="M126.205 956.113 Q122.593 956.113 120.765 959.678 Q118.959 963.219 118.959 970.349 Q118.959 977.455 120.765 981.02 Q122.593 984.562 126.205 984.562 Q129.839 984.562 131.644 981.02 Q133.473 977.455 133.473 970.349 Q133.473 963.219 131.644 959.678 Q129.839 956.113 126.205 956.113 M126.205 952.409 Q132.015 952.409 135.07 957.016 Q138.149 961.599 138.149 970.349 Q138.149 979.076 135.07 983.682 Q132.015 988.266 126.205 988.266 Q120.394 988.266 117.316 983.682 Q114.26 979.076 114.26 970.349 Q114.26 961.599 117.316 957.016 Q120.394 952.409 126.205 952.409 Z" fill="#000000" fill-rule="nonzero" fill-opacity="1" /><path clip-path="url(#clip230)" d="M146.366 981.715 L151.251 981.715 L151.251 987.594 L146.366 987.594 L146.366 981.715 Z" fill="#000000" fill-rule="nonzero" fill-opacity="1" /><path clip-path="url(#clip230)" d="M174.283 957.108 L162.477 975.557 L174.283 975.557 L174.283 957.108 M173.056 953.034 L178.936 953.034 L178.936 975.557 L183.866 975.557 L183.866 979.446 L178.936 979.446 L178.936 987.594 L174.283 987.594 L174.283 979.446 L158.681 979.446 L158.681 974.932 L173.056 953.034 Z" fill="#000000" fill-rule="nonzero" fill-opacity="1" /><path clip-path="url(#clip230)" d="M127.686 746.423 Q124.075 746.423 122.246 749.988 Q120.441 753.529 120.441 760.659 Q120.441 767.765 122.246 771.33 Q124.075 774.872 127.686 774.872 Q131.32 774.872 133.126 771.33 Q134.954 767.765 134.954 760.659 Q134.954 753.529 133.126 749.988 Q131.32 746.423 127.686 746.423 M127.686 742.719 Q133.496 742.719 136.552 747.326 Q139.63 751.909 139.63 760.659 Q139.63 769.386 136.552 773.992 Q133.496 778.576 127.686 778.576 Q121.876 778.576 118.797 773.992 Q115.742 769.386 115.742 760.659 Q115.742 751.909 118.797 747.326 Q121.876 742.719 127.686 742.719 Z" fill="#000000" fill-rule="nonzero" fill-opacity="1" /><path clip-path="url(#clip230)" d="M147.848 772.025 L152.732 772.025 L152.732 777.904 L147.848 777.904 L147.848 772.025 Z" fill="#000000" fill-rule="nonzero" fill-opacity="1" /><path clip-path="url(#clip230)" d="M162.964 743.344 L181.32 743.344 L181.32 747.279 L167.246 747.279 L167.246 755.752 Q168.264 755.404 169.283 755.242 Q170.302 755.057 171.32 755.057 Q177.107 755.057 180.487 758.229 Q183.866 761.4 183.866 766.816 Q183.866 772.395 180.394 775.497 Q176.922 778.576 170.602 778.576 Q168.427 778.576 166.158 778.205 Q163.913 777.835 161.505 777.094 L161.505 772.395 Q163.589 773.529 165.811 774.085 Q168.033 774.64 170.51 774.64 Q174.514 774.64 176.852 772.534 Q179.19 770.428 179.19 766.816 Q179.19 763.205 176.852 761.099 Q174.514 758.992 170.51 758.992 Q168.635 758.992 166.76 759.409 Q164.908 759.826 162.964 760.705 L162.964 743.344 Z" fill="#000000" fill-rule="nonzero" fill-opacity="1" /><path clip-path="url(#clip230)" d="M126.529 536.733 Q122.918 536.733 121.089 540.298 Q119.283 543.84 119.283 550.969 Q119.283 558.076 121.089 561.64 Q122.918 565.182 126.529 565.182 Q130.163 565.182 131.968 561.64 Q133.797 558.076 133.797 550.969 Q133.797 543.84 131.968 540.298 Q130.163 536.733 126.529 536.733 M126.529 533.029 Q132.339 533.029 135.394 537.636 Q138.473 542.219 138.473 550.969 Q138.473 559.696 135.394 564.302 Q132.339 568.886 126.529 568.886 Q120.718 568.886 117.64 564.302 Q114.584 559.696 114.584 550.969 Q114.584 542.219 117.64 537.636 Q120.718 533.029 126.529 533.029 Z" fill="#000000" fill-rule="nonzero" fill-opacity="1" /><path clip-path="url(#clip230)" d="M146.691 562.335 L151.575 562.335 L151.575 568.214 L146.691 568.214 L146.691 562.335 Z" fill="#000000" fill-rule="nonzero" fill-opacity="1" /><path clip-path="url(#clip230)" d="M172.339 549.071 Q169.19 549.071 167.339 551.224 Q165.51 553.377 165.51 557.127 Q165.51 560.853 167.339 563.029 Q169.19 565.182 172.339 565.182 Q175.487 565.182 177.315 563.029 Q179.167 560.853 179.167 557.127 Q179.167 553.377 177.315 551.224 Q175.487 549.071 172.339 549.071 M181.621 534.418 L181.621 538.678 Q179.862 537.844 178.056 537.404 Q176.274 536.965 174.514 536.965 Q169.885 536.965 167.431 540.09 Q165.001 543.215 164.653 549.534 Q166.019 547.52 168.079 546.455 Q170.139 545.367 172.616 545.367 Q177.825 545.367 180.834 548.539 Q183.866 551.687 183.866 557.127 Q183.866 562.451 180.718 565.668 Q177.57 568.886 172.339 568.886 Q166.343 568.886 163.172 564.302 Q160.001 559.696 160.001 550.969 Q160.001 542.775 163.89 537.914 Q167.778 533.029 174.329 533.029 Q176.089 533.029 177.871 533.377 Q179.676 533.724 181.621 534.418 Z" fill="#000000" fill-rule="nonzero" fill-opacity="1" /><path clip-path="url(#clip230)" d="M127.593 327.043 Q123.982 327.043 122.154 330.608 Q120.348 334.15 120.348 341.279 Q120.348 348.386 122.154 351.951 Q123.982 355.492 127.593 355.492 Q131.228 355.492 133.033 351.951 Q134.862 348.386 134.862 341.279 Q134.862 334.15 133.033 330.608 Q131.228 327.043 127.593 327.043 M127.593 323.34 Q133.404 323.34 136.459 327.946 Q139.538 332.529 139.538 341.279 Q139.538 350.006 136.459 354.613 Q133.404 359.196 127.593 359.196 Q121.783 359.196 118.705 354.613 Q115.649 350.006 115.649 341.279 Q115.649 332.529 118.705 327.946 Q121.783 323.34 127.593 323.34 Z" fill="#000000" fill-rule="nonzero" fill-opacity="1" /><path clip-path="url(#clip230)" d="M147.755 352.645 L152.64 352.645 L152.64 358.525 L147.755 358.525 L147.755 352.645 Z" fill="#000000" fill-rule="nonzero" fill-opacity="1" /><path clip-path="url(#clip230)" d="M161.644 323.965 L183.866 323.965 L183.866 325.955 L171.32 358.525 L166.436 358.525 L178.241 327.9 L161.644 327.9 L161.644 323.965 Z" fill="#000000" fill-rule="nonzero" fill-opacity="1" /><path clip-path="url(#clip230)" d="M126.783 117.353 Q123.172 117.353 121.343 120.918 Q119.538 124.46 119.538 131.589 Q119.538 138.696 121.343 142.261 Q123.172 145.802 126.783 145.802 Q130.417 145.802 132.223 142.261 Q134.052 138.696 134.052 131.589 Q134.052 124.46 132.223 120.918 Q130.417 117.353 126.783 117.353 M126.783 113.65 Q132.593 113.65 135.649 118.256 Q138.728 122.839 138.728 131.589 Q138.728 140.316 135.649 144.923 Q132.593 149.506 126.783 149.506 Q120.973 149.506 117.894 144.923 Q114.839 140.316 114.839 131.589 Q114.839 122.839 117.894 118.256 Q120.973 113.65 126.783 113.65 Z" fill="#000000" fill-rule="nonzero" fill-opacity="1" /><path clip-path="url(#clip230)" d="M146.945 142.955 L151.829 142.955 L151.829 148.835 L146.945 148.835 L146.945 142.955 Z" fill="#000000" fill-rule="nonzero" fill-opacity="1" /><path clip-path="url(#clip230)" d="M172.014 132.423 Q168.681 132.423 166.76 134.205 Q164.862 135.988 164.862 139.113 Q164.862 142.237 166.76 144.02 Q168.681 145.802 172.014 145.802 Q175.348 145.802 177.269 144.02 Q179.19 142.214 179.19 139.113 Q179.19 135.988 177.269 134.205 Q175.371 132.423 172.014 132.423 M167.339 130.432 Q164.329 129.691 162.64 127.631 Q160.973 125.571 160.973 122.608 Q160.973 118.464 163.913 116.057 Q166.876 113.65 172.014 113.65 Q177.176 113.65 180.116 116.057 Q183.056 118.464 183.056 122.608 Q183.056 125.571 181.366 127.631 Q179.7 129.691 176.714 130.432 Q180.093 131.219 181.968 133.511 Q183.866 135.802 183.866 139.113 Q183.866 144.136 180.788 146.821 Q177.732 149.506 172.014 149.506 Q166.297 149.506 163.218 146.821 Q160.163 144.136 160.163 139.113 Q160.163 135.802 162.061 133.511 Q163.959 131.219 167.339 130.432 M165.626 123.048 Q165.626 125.733 167.292 127.238 Q168.982 128.742 172.014 128.742 Q175.024 128.742 176.714 127.238 Q178.426 125.733 178.426 123.048 Q178.426 120.363 176.714 118.858 Q175.024 117.353 172.014 117.353 Q168.982 117.353 167.292 118.858 Q165.626 120.363 165.626 123.048 Z" fill="#000000" fill-rule="nonzero" fill-opacity="1" /><path clip-path="url(#clip230)" d="M16.4842 837.445 L16.4842 827.864 L48.8219 815.738 L16.4842 803.547 L16.4842 793.967 L64.0042 793.967 L64.0042 800.237 L22.277 800.237 L54.8694 812.491 L54.8694 818.952 L22.277 831.206 L64.0042 831.206 L64.0042 837.445 L16.4842 837.445 Z" fill="#000000" fill-rule="nonzero" fill-opacity="1" /><path clip-path="url(#clip230)" d="M18.0438 752.717 L24.314 752.717 Q22.5634 756.377 21.704 759.624 Q20.8447 762.87 20.8447 765.894 Q20.8447 771.146 22.8817 774.01 Q24.9187 776.843 28.6745 776.843 Q31.8255 776.843 33.4488 774.965 Q35.0402 773.055 36.0269 767.772 L36.8226 763.889 Q38.1912 756.696 41.6605 753.29 Q45.098 749.852 50.8908 749.852 Q57.7976 749.852 61.3624 754.499 Q64.9272 759.115 64.9272 768.058 Q64.9272 771.432 64.1633 775.252 Q63.3994 779.039 61.9035 783.113 L55.2831 783.113 Q57.4793 779.198 58.5933 775.443 Q59.7073 771.687 59.7073 768.058 Q59.7073 762.552 57.543 759.56 Q55.3786 756.568 51.3682 756.568 Q47.8671 756.568 45.8937 758.733 Q43.9204 760.865 42.9337 765.767 L42.1698 769.682 Q40.7375 776.875 37.682 780.09 Q34.6264 783.304 29.1837 783.304 Q22.8817 783.304 19.2532 778.88 Q15.6248 774.424 15.6248 766.626 Q15.6248 763.284 16.2295 759.815 Q16.8343 756.345 18.0438 752.717 Z" fill="#000000" fill-rule="nonzero" fill-opacity="1" /><path clip-path="url(#clip230)" d="M16.4842 739.826 L16.4842 709.78 L21.895 709.78 L21.895 733.397 L35.9632 733.397 L35.9632 710.767 L41.3741 710.767 L41.3741 733.397 L58.5933 733.397 L58.5933 709.207 L64.0042 709.207 L64.0042 739.826 L16.4842 739.826 Z" fill="#000000" fill-rule="nonzero" fill-opacity="1" /><path clip-path="url(#clip230)" d="M877.514 12.096 L889.707 12.096 L905.141 53.2532 L920.656 12.096 L932.849 12.096 L932.849 72.576 L924.869 72.576 L924.869 19.4686 L909.273 60.9499 L901.05 60.9499 L885.454 19.4686 L885.454 72.576 L877.514 72.576 L877.514 12.096 Z" fill="#000000" fill-rule="nonzero" fill-opacity="1" /><path clip-path="url(#clip230)" d="M987.577 48.0275 L987.577 51.6733 L953.307 51.6733 Q953.793 59.3701 957.925 63.421 Q962.097 67.4314 969.51 67.4314 Q973.804 67.4314 977.814 66.3781 Q981.865 65.3249 985.835 63.2184 L985.835 70.267 Q981.825 71.9684 977.612 72.8596 Q973.399 73.7508 969.065 73.7508 Q958.208 73.7508 951.848 67.4314 Q945.529 61.1119 945.529 50.3365 Q945.529 39.1965 951.524 32.6746 Q957.56 26.1121 967.768 26.1121 Q976.923 26.1121 982.23 32.0264 Q987.577 37.9003 987.577 48.0275 M980.123 45.84 Q980.042 39.7232 976.68 36.0774 Q973.358 32.4315 967.849 32.4315 Q961.611 32.4315 957.844 35.9558 Q954.117 39.4801 953.55 45.8805 L980.123 45.84 Z" fill="#000000" fill-rule="nonzero" fill-opacity="1" /><path clip-path="url(#clip230)" d="M1020.43 49.7694 Q1011.4 49.7694 1007.91 51.8354 Q1004.43 53.9013 1004.43 58.8839 Q1004.43 62.8538 1007.02 65.2034 Q1009.65 67.5124 1014.15 67.5124 Q1020.35 67.5124 1024.08 63.1374 Q1027.84 58.7219 1027.84 51.4303 L1027.84 49.7694 L1020.43 49.7694 M1035.3 46.6907 L1035.3 72.576 L1027.84 72.576 L1027.84 65.6895 Q1025.29 69.8214 1021.48 71.8063 Q1017.68 73.7508 1012.17 73.7508 Q1005.2 73.7508 1001.07 69.8619 Q996.975 65.9325 996.975 59.3701 Q996.975 51.7138 1002.08 47.825 Q1007.22 43.9361 1017.39 43.9361 L1027.84 43.9361 L1027.84 43.2069 Q1027.84 38.0623 1024.44 35.2672 Q1021.08 32.4315 1014.96 32.4315 Q1011.07 32.4315 1007.39 33.3632 Q1003.7 34.295 1000.3 36.1584 L1000.3 29.2718 Q1004.39 27.692 1008.24 26.9223 Q1012.09 26.1121 1015.73 26.1121 Q1025.57 26.1121 1030.44 31.2163 Q1035.3 36.3204 1035.3 46.6907 Z" fill="#000000" fill-rule="nonzero" fill-opacity="1" /><path clip-path="url(#clip230)" d="M1088.36 45.1919 L1088.36 72.576 L1080.91 72.576 L1080.91 45.4349 Q1080.91 38.994 1078.4 35.7938 Q1075.89 32.5936 1070.86 32.5936 Q1064.83 32.5936 1061.34 36.4419 Q1057.86 40.2903 1057.86 46.9338 L1057.86 72.576 L1050.37 72.576 L1050.37 27.2059 L1057.86 27.2059 L1057.86 34.2544 Q1060.53 30.163 1064.14 28.1376 Q1067.79 26.1121 1072.52 26.1121 Q1080.34 26.1121 1084.35 30.9732 Q1088.36 35.7938 1088.36 45.1919 Z" fill="#000000" fill-rule="nonzero" fill-opacity="1" /><path clip-path="url(#clip230)" d="M1166.18 14.0809 L1166.18 22.0612 Q1161.52 19.8332 1157.39 18.7395 Q1153.26 17.6457 1149.41 17.6457 Q1142.73 17.6457 1139.08 20.2383 Q1135.48 22.8309 1135.48 27.611 Q1135.48 31.6214 1137.87 33.6873 Q1140.3 35.7128 1147.02 36.9686 L1151.96 37.9813 Q1161.12 39.7232 1165.45 44.1387 Q1169.83 48.5136 1169.83 55.8863 Q1169.83 64.6767 1163.91 69.2137 Q1158.04 73.7508 1146.66 73.7508 Q1142.36 73.7508 1137.5 72.7785 Q1132.68 71.8063 1127.5 69.9024 L1127.5 61.4765 Q1132.48 64.2716 1137.26 65.6895 Q1142.04 67.1073 1146.66 67.1073 Q1153.66 67.1073 1157.47 64.3527 Q1161.28 61.598 1161.28 56.4939 Q1161.28 52.0379 1158.53 49.5264 Q1155.81 47.0148 1149.57 45.759 L1144.59 44.7868 Q1135.44 42.9639 1131.34 39.075 Q1127.25 35.1862 1127.25 28.2591 Q1127.25 20.2383 1132.88 15.6203 Q1138.55 11.0023 1148.48 11.0023 Q1152.73 11.0023 1157.15 11.7719 Q1161.56 12.5416 1166.18 14.0809 Z" fill="#000000" fill-rule="nonzero" fill-opacity="1" /><path clip-path="url(#clip230)" d="M1186.72 49.9314 Q1186.72 58.1548 1190.08 62.8538 Q1193.48 67.5124 1199.4 67.5124 Q1205.31 67.5124 1208.72 62.8538 Q1212.12 58.1548 1212.12 49.9314 Q1212.12 41.7081 1208.72 37.0496 Q1205.31 32.3505 1199.4 32.3505 Q1193.48 32.3505 1190.08 37.0496 Q1186.72 41.7081 1186.72 49.9314 M1212.12 65.7705 Q1209.77 69.8214 1206.16 71.8063 Q1202.6 73.7508 1197.58 73.7508 Q1189.35 73.7508 1184.17 67.1883 Q1179.02 60.6258 1179.02 49.9314 Q1179.02 39.2371 1184.17 32.6746 Q1189.35 26.1121 1197.58 26.1121 Q1202.6 26.1121 1206.16 28.0971 Q1209.77 30.0415 1212.12 34.0924 L1212.12 27.2059 L1219.57 27.2059 L1219.57 89.8329 L1212.12 89.8329 L1212.12 65.7705 Z" fill="#000000" fill-rule="nonzero" fill-opacity="1" /><path clip-path="url(#clip230)" d="M1234.16 54.671 L1234.16 27.2059 L1241.61 27.2059 L1241.61 54.3874 Q1241.61 60.8284 1244.12 64.0691 Q1246.63 67.2693 1251.66 67.2693 Q1257.69 67.2693 1261.18 63.421 Q1264.7 59.5726 1264.7 52.9291 L1264.7 27.2059 L1272.15 27.2059 L1272.15 72.576 L1264.7 72.576 L1264.7 65.6084 Q1261.99 69.7404 1258.38 71.7658 Q1254.82 73.7508 1250.08 73.7508 Q1242.26 73.7508 1238.21 68.8897 Q1234.16 64.0286 1234.16 54.671 M1252.91 26.1121 L1252.91 26.1121 Z" fill="#000000" fill-rule="nonzero" fill-opacity="1" /><path clip-path="url(#clip230)" d="M1308.13 49.7694 Q1299.09 49.7694 1295.61 51.8354 Q1292.12 53.9013 1292.12 58.8839 Q1292.12 62.8538 1294.72 65.2034 Q1297.35 67.5124 1301.85 67.5124 Q1308.04 67.5124 1311.77 63.1374 Q1315.54 58.7219 1315.54 51.4303 L1315.54 49.7694 L1308.13 49.7694 M1322.99 46.6907 L1322.99 72.576 L1315.54 72.576 L1315.54 65.6895 Q1312.99 69.8214 1309.18 71.8063 Q1305.37 73.7508 1299.86 73.7508 Q1292.89 73.7508 1288.76 69.8619 Q1284.67 65.9325 1284.67 59.3701 Q1284.67 51.7138 1289.77 47.825 Q1294.92 43.9361 1305.09 43.9361 L1315.54 43.9361 L1315.54 43.2069 Q1315.54 38.0623 1312.14 35.2672 Q1308.77 32.4315 1302.66 32.4315 Q1298.77 32.4315 1295.08 33.3632 Q1291.39 34.295 1287.99 36.1584 L1287.99 29.2718 Q1292.08 27.692 1295.93 26.9223 Q1299.78 26.1121 1303.43 26.1121 Q1313.27 26.1121 1318.13 31.2163 Q1322.99 36.3204 1322.99 46.6907 Z" fill="#000000" fill-rule="nonzero" fill-opacity="1" /><path clip-path="url(#clip230)" d="M1364.64 34.1734 Q1363.38 33.4443 1361.88 33.1202 Q1360.42 32.7556 1358.64 32.7556 Q1352.32 32.7556 1348.92 36.8875 Q1345.56 40.9789 1345.56 48.6757 L1345.56 72.576 L1338.06 72.576 L1338.06 27.2059 L1345.56 27.2059 L1345.56 34.2544 Q1347.91 30.1225 1351.67 28.1376 Q1355.44 26.1121 1360.83 26.1121 Q1361.6 26.1121 1362.53 26.2337 Q1363.46 26.3147 1364.59 26.5172 L1364.64 34.1734 Z" fill="#000000" fill-rule="nonzero" fill-opacity="1" /><path clip-path="url(#clip230)" d="M1409.44 48.0275 L1409.44 51.6733 L1375.17 51.6733 Q1375.65 59.3701 1379.79 63.421 Q1383.96 67.4314 1391.37 67.4314 Q1395.67 67.4314 1399.68 66.3781 Q1403.73 65.3249 1407.7 63.2184 L1407.7 70.267 Q1403.69 71.9684 1399.47 72.8596 Q1395.26 73.7508 1390.93 73.7508 Q1380.07 73.7508 1373.71 67.4314 Q1367.39 61.1119 1367.39 50.3365 Q1367.39 39.1965 1373.39 32.6746 Q1379.42 26.1121 1389.63 26.1121 Q1398.78 26.1121 1404.09 32.0264 Q1409.44 37.9003 1409.44 48.0275 M1401.98 45.84 Q1401.9 39.7232 1398.54 36.0774 Q1395.22 32.4315 1389.71 32.4315 Q1383.47 32.4315 1379.7 35.9558 Q1375.98 39.4801 1375.41 45.8805 L1401.98 45.84 Z" fill="#000000" fill-rule="nonzero" fill-opacity="1" /><path clip-path="url(#clip230)" d="M1451.53 34.0924 L1451.53 9.54393 L1458.98 9.54393 L1458.98 72.576 L1451.53 72.576 L1451.53 65.7705 Q1449.18 69.8214 1445.57 71.8063 Q1442.01 73.7508 1436.98 73.7508 Q1428.76 73.7508 1423.58 67.1883 Q1418.43 60.6258 1418.43 49.9314 Q1418.43 39.2371 1423.58 32.6746 Q1428.76 26.1121 1436.98 26.1121 Q1442.01 26.1121 1445.57 28.0971 Q1449.18 30.0415 1451.53 34.0924 M1426.13 49.9314 Q1426.13 58.1548 1429.49 62.8538 Q1432.89 67.5124 1438.81 67.5124 Q1444.72 67.5124 1448.12 62.8538 Q1451.53 58.1548 1451.53 49.9314 Q1451.53 41.7081 1448.12 37.0496 Q1444.72 32.3505 1438.81 32.3505 Q1432.89 32.3505 1429.49 37.0496 Q1426.13 41.7081 1426.13 49.9314 Z" fill="#000000" fill-rule="nonzero" fill-opacity="1" /><path clip-path="url(#clip230)" d="M1501.03 12.096 L1539.27 12.096 L1539.27 18.9825 L1509.21 18.9825 L1509.21 36.8875 L1538.01 36.8875 L1538.01 43.7741 L1509.21 43.7741 L1509.21 65.6895 L1540 65.6895 L1540 72.576 L1501.03 72.576 L1501.03 12.096 Z" fill="#000000" fill-rule="nonzero" fill-opacity="1" /><path clip-path="url(#clip230)" d="M1579.41 34.1734 Q1578.16 33.4443 1576.66 33.1202 Q1575.2 32.7556 1573.42 32.7556 Q1567.1 32.7556 1563.7 36.8875 Q1560.33 40.9789 1560.33 48.6757 L1560.33 72.576 L1552.84 72.576 L1552.84 27.2059 L1560.33 27.2059 L1560.33 34.2544 Q1562.68 30.1225 1566.45 28.1376 Q1570.22 26.1121 1575.61 26.1121 Q1576.38 26.1121 1577.31 26.2337 Q1578.24 26.3147 1579.37 26.5172 L1579.41 34.1734 Z" fill="#000000" fill-rule="nonzero" fill-opacity="1" /><path clip-path="url(#clip230)" d="M1612.06 34.1734 Q1610.81 33.4443 1609.31 33.1202 Q1607.85 32.7556 1606.07 32.7556 Q1599.75 32.7556 1596.35 36.8875 Q1592.98 40.9789 1592.98 48.6757 L1592.98 72.576 L1585.49 72.576 L1585.49 27.2059 L1592.98 27.2059 L1592.98 34.2544 Q1595.33 30.1225 1599.1 28.1376 Q1602.87 26.1121 1608.26 26.1121 Q1609.03 26.1121 1609.96 26.2337 Q1610.89 26.3147 1612.02 26.5172 L1612.06 34.1734 Z" fill="#000000" fill-rule="nonzero" fill-opacity="1" /><path clip-path="url(#clip230)" d="M1635.64 32.4315 Q1629.65 32.4315 1626.16 37.1306 Q1622.68 41.7891 1622.68 49.9314 Q1622.68 58.0738 1626.12 62.7728 Q1629.6 67.4314 1635.64 67.4314 Q1641.6 67.4314 1645.08 62.7323 Q1648.56 58.0333 1648.56 49.9314 Q1648.56 41.8701 1645.08 37.1711 Q1641.6 32.4315 1635.64 32.4315 M1635.64 26.1121 Q1645.36 26.1121 1650.91 32.4315 Q1656.46 38.7509 1656.46 49.9314 Q1656.46 61.0714 1650.91 67.4314 Q1645.36 73.7508 1635.64 73.7508 Q1625.88 73.7508 1620.33 67.4314 Q1614.82 61.0714 1614.82 49.9314 Q1614.82 38.7509 1620.33 32.4315 Q1625.88 26.1121 1635.64 26.1121 Z" fill="#000000" fill-rule="nonzero" fill-opacity="1" /><path clip-path="url(#clip230)" d="M1695.11 34.1734 Q1693.85 33.4443 1692.35 33.1202 Q1690.9 32.7556 1689.11 32.7556 Q1682.79 32.7556 1679.39 36.8875 Q1676.03 40.9789 1676.03 48.6757 L1676.03 72.576 L1668.53 72.576 L1668.53 27.2059 L1676.03 27.2059 L1676.03 34.2544 Q1678.38 30.1225 1682.15 28.1376 Q1685.91 26.1121 1691.3 26.1121 Q1692.07 26.1121 1693 26.2337 Q1693.93 26.3147 1695.07 26.5172 L1695.11 34.1734 Z" fill="#000000" fill-rule="nonzero" fill-opacity="1" /><polyline clip-path="url(#clip232)" style="stroke:#009af9; stroke-linecap:round; stroke-linejoin:round; stroke-width:4; stroke-opacity:1; fill:none" points="280.231,160.256 950.951,437.637 1621.67,274.854 2292.39,373.644 "/>
<polyline clip-path="url(#clip232)" style="stroke:#e26f46; stroke-linecap:round; stroke-linejoin:round; stroke-width:4; stroke-opacity:1; fill:none" points="280.231,1176.72 950.951,1372.85 1621.67,1314.89 2292.39,1367.76 "/>
<polyline clip-path="url(#clip232)" style="stroke:#3da44d; stroke-linecap:round; stroke-linejoin:round; stroke-width:4; stroke-opacity:1; fill:none" points="280.231,1201.24 950.951,1386.4 1621.67,1349.84 2292.39,1344.97 "/>
<path clip-path="url(#clip230)" d="M1954.16 374.156 L2281.66 374.156 L2281.66 166.796 L1954.16 166.796  Z" fill="#ffffff" fill-rule="evenodd" fill-opacity="1"/>
<polyline clip-path="url(#clip230)" style="stroke:#000000; stroke-linecap:round; stroke-linejoin:round; stroke-width:4; stroke-opacity:1; fill:none" points="1954.16,374.156 2281.66,374.156 2281.66,166.796 1954.16,166.796 1954.16,374.156 "/>
<polyline clip-path="url(#clip230)" style="stroke:#009af9; stroke-linecap:round; stroke-linejoin:round; stroke-width:4; stroke-opacity:1; fill:none" points="1977.86,218.636 2120.05,218.636 "/>
<path clip-path="url(#clip230)" d="M2151.16 202.629 L2151.16 209.99 L2159.93 209.99 L2159.93 213.3 L2151.16 213.3 L2151.16 227.374 Q2151.16 230.545 2152.01 231.448 Q2152.89 232.351 2155.55 232.351 L2159.93 232.351 L2159.93 235.916 L2155.55 235.916 Q2150.62 235.916 2148.75 234.087 Q2146.87 232.235 2146.87 227.374 L2146.87 213.3 L2143.75 213.3 L2143.75 209.99 L2146.87 209.99 L2146.87 202.629 L2151.16 202.629 Z" fill="#000000" fill-rule="nonzero" fill-opacity="1" /><path clip-path="url(#clip230)" d="M2166.09 214.388 L2195.76 214.388 L2195.76 218.277 L2166.09 218.277 L2166.09 214.388 M2166.09 223.832 L2195.76 223.832 L2195.76 227.768 L2166.09 227.768 L2166.09 223.832 Z" fill="#000000" fill-rule="nonzero" fill-opacity="1" /><path clip-path="url(#clip230)" d="M2206.66 231.981 L2214.3 231.981 L2214.3 205.615 L2205.99 207.282 L2205.99 203.022 L2214.26 201.356 L2218.93 201.356 L2218.93 231.981 L2226.57 231.981 L2226.57 235.916 L2206.66 235.916 L2206.66 231.981 Z" fill="#000000" fill-rule="nonzero" fill-opacity="1" /><polyline clip-path="url(#clip230)" style="stroke:#e26f46; stroke-linecap:round; stroke-linejoin:round; stroke-width:4; stroke-opacity:1; fill:none" points="1977.86,270.476 2120.05,270.476 "/>
<path clip-path="url(#clip230)" d="M2151.16 254.469 L2151.16 261.83 L2159.93 261.83 L2159.93 265.14 L2151.16 265.14 L2151.16 279.214 Q2151.16 282.385 2152.01 283.288 Q2152.89 284.191 2155.55 284.191 L2159.93 284.191 L2159.93 287.756 L2155.55 287.756 Q2150.62 287.756 2148.75 285.927 Q2146.87 284.075 2146.87 279.214 L2146.87 265.14 L2143.75 265.14 L2143.75 261.83 L2146.87 261.83 L2146.87 254.469 L2151.16 254.469 Z" fill="#000000" fill-rule="nonzero" fill-opacity="1" /><path clip-path="url(#clip230)" d="M2166.09 266.228 L2195.76 266.228 L2195.76 270.117 L2166.09 270.117 L2166.09 266.228 M2166.09 275.672 L2195.76 275.672 L2195.76 279.608 L2166.09 279.608 L2166.09 275.672 Z" fill="#000000" fill-rule="nonzero" fill-opacity="1" /><path clip-path="url(#clip230)" d="M2205.9 253.196 L2224.26 253.196 L2224.26 257.131 L2210.18 257.131 L2210.18 265.603 Q2211.2 265.256 2212.22 265.094 Q2213.24 264.909 2214.26 264.909 Q2220.04 264.909 2223.42 268.08 Q2226.8 271.251 2226.8 276.668 Q2226.8 282.246 2223.33 285.348 Q2219.86 288.427 2213.54 288.427 Q2211.36 288.427 2209.1 288.057 Q2206.85 287.686 2204.44 286.946 L2204.44 282.246 Q2206.53 283.381 2208.75 283.936 Q2210.97 284.492 2213.45 284.492 Q2217.45 284.492 2219.79 282.385 Q2222.13 280.279 2222.13 276.668 Q2222.13 273.057 2219.79 270.95 Q2217.45 268.844 2213.45 268.844 Q2211.57 268.844 2209.7 269.26 Q2207.85 269.677 2205.9 270.557 L2205.9 253.196 Z" fill="#000000" fill-rule="nonzero" fill-opacity="1" /><polyline clip-path="url(#clip230)" style="stroke:#3da44d; stroke-linecap:round; stroke-linejoin:round; stroke-width:4; stroke-opacity:1; fill:none" points="1977.86,322.316 2120.05,322.316 "/>
<path clip-path="url(#clip230)" d="M2151.16 306.309 L2151.16 313.67 L2159.93 313.67 L2159.93 316.98 L2151.16 316.98 L2151.16 331.054 Q2151.16 334.225 2152.01 335.128 Q2152.89 336.031 2155.55 336.031 L2159.93 336.031 L2159.93 339.596 L2155.55 339.596 Q2150.62 339.596 2148.75 337.767 Q2146.87 335.915 2146.87 331.054 L2146.87 316.98 L2143.75 316.98 L2143.75 313.67 L2146.87 313.67 L2146.87 306.309 L2151.16 306.309 Z" fill="#000000" fill-rule="nonzero" fill-opacity="1" /><path clip-path="url(#clip230)" d="M2166.09 318.068 L2195.76 318.068 L2195.76 321.957 L2166.09 321.957 L2166.09 318.068 M2166.09 327.512 L2195.76 327.512 L2195.76 331.448 L2166.09 331.448 L2166.09 327.512 Z" fill="#000000" fill-rule="nonzero" fill-opacity="1" /><path clip-path="url(#clip230)" d="M2206.66 335.661 L2214.3 335.661 L2214.3 309.295 L2205.99 310.962 L2205.99 306.702 L2214.26 305.036 L2218.93 305.036 L2218.93 335.661 L2226.57 335.661 L2226.57 339.596 L2206.66 339.596 L2206.66 335.661 Z" fill="#000000" fill-rule="nonzero" fill-opacity="1" /><path clip-path="url(#clip230)" d="M2246.02 308.114 Q2242.41 308.114 2240.58 311.679 Q2238.77 315.221 2238.77 322.35 Q2238.77 329.457 2240.58 333.022 Q2242.41 336.563 2246.02 336.563 Q2249.65 336.563 2251.46 333.022 Q2253.28 329.457 2253.28 322.35 Q2253.28 315.221 2251.46 311.679 Q2249.65 308.114 2246.02 308.114 M2246.02 304.411 Q2251.83 304.411 2254.88 309.017 Q2257.96 313.6 2257.96 322.35 Q2257.96 331.077 2254.88 335.684 Q2251.83 340.267 2246.02 340.267 Q2240.21 340.267 2237.13 335.684 Q2234.07 331.077 2234.07 322.35 Q2234.07 313.6 2237.13 309.017 Q2240.21 304.411 2246.02 304.411 Z" fill="#000000" fill-rule="nonzero" fill-opacity="1" /></svg>
