<svg xmlns="http://www.w3.org/2000/svg" xmlns:xlink="http://www.w3.org/1999/xlink" width="600" height="400" viewBox="0 0 2400 1600">
<defs>
  <clipPath id="clip500">
    <rect x="0" y="0" width="2400" height="1600"></rect>
  </clipPath>
</defs>
<path clip-path="url(#clip500)" d="M0 1600 L2400 1600 L2400 8.88178e-14 L0 8.88178e-14  Z" fill="#ffffff" fill-rule="evenodd" fill-opacity="1"></path>
<defs>
  <clipPath id="clip501">
    <rect x="480" y="0" width="1681" height="1600"></rect>
  </clipPath>
</defs>
<path clip-path="url(#clip500)" d="M202.177 1486.45 L2352.76 1486.45 L2352.76 47.2441 L202.177 47.2441  Z" fill="#ffffff" fill-rule="evenodd" fill-opacity="1"></path>
<defs>
  <clipPath id="clip502">
    <rect x="202" y="47" width="2152" height="1440"></rect>
  </clipPath>
</defs>
<polyline clip-path="url(#clip502)" style="stroke:#000000; stroke-linecap:round; stroke-linejoin:round; stroke-width:2; stroke-opacity:0.1; fill:none" points="690.168,1486.45 690.168,47.2441 "></polyline>
<polyline clip-path="url(#clip502)" style="stroke:#000000; stroke-linecap:round; stroke-linejoin:round; stroke-width:2; stroke-opacity:0.1; fill:none" points="1224.08,1486.45 1224.08,47.2441 "></polyline>
<polyline clip-path="url(#clip502)" style="stroke:#000000; stroke-linecap:round; stroke-linejoin:round; stroke-width:2; stroke-opacity:0.1; fill:none" points="1757.98,1486.45 1757.98,47.2441 "></polyline>
<polyline clip-path="url(#clip502)" style="stroke:#000000; stroke-linecap:round; stroke-linejoin:round; stroke-width:2; stroke-opacity:0.1; fill:none" points="2291.89,1486.45 2291.89,47.2441 "></polyline>
<polyline clip-path="url(#clip500)" style="stroke:#000000; stroke-linecap:round; stroke-linejoin:round; stroke-width:4; stroke-opacity:1; fill:none" points="202.177,1486.45 2352.76,1486.45 "></polyline>
<polyline clip-path="url(#clip500)" style="stroke:#000000; stroke-linecap:round; stroke-linejoin:round; stroke-width:4; stroke-opacity:1; fill:none" points="690.168,1486.45 690.168,1467.55 "></polyline>
<polyline clip-path="url(#clip500)" style="stroke:#000000; stroke-linecap:round; stroke-linejoin:round; stroke-width:4; stroke-opacity:1; fill:none" points="1224.08,1486.45 1224.08,1467.55 "></polyline>
<polyline clip-path="url(#clip500)" style="stroke:#000000; stroke-linecap:round; stroke-linejoin:round; stroke-width:4; stroke-opacity:1; fill:none" points="1757.98,1486.45 1757.98,1467.55 "></polyline>
<polyline clip-path="url(#clip500)" style="stroke:#000000; stroke-linecap:round; stroke-linejoin:round; stroke-width:4; stroke-opacity:1; fill:none" points="2291.89,1486.45 2291.89,1467.55 "></polyline>
<path clip-path="url(#clip500)" d="M680.446 1514.29 L698.802 1514.29 L698.802 1518.22 L684.728 1518.22 L684.728 1526.7 Q685.747 1526.35 686.765 1526.19 Q687.784 1526 688.802 1526 Q694.589 1526 697.969 1529.17 Q701.349 1532.34 701.349 1537.76 Q701.349 1543.34 697.876 1546.44 Q694.404 1549.52 688.085 1549.52 Q685.909 1549.52 683.64 1549.15 Q681.395 1548.78 678.988 1548.04 L678.988 1543.34 Q681.071 1544.47 683.293 1545.03 Q685.515 1545.58 687.992 1545.58 Q691.997 1545.58 694.335 1543.48 Q696.673 1541.37 696.673 1537.76 Q696.673 1534.15 694.335 1532.04 Q691.997 1529.94 687.992 1529.94 Q686.117 1529.94 684.242 1530.35 Q682.39 1530.77 680.446 1531.65 L680.446 1514.29 Z" fill="#000000" fill-rule="nonzero" fill-opacity="1"></path><path clip-path="url(#clip500)" d="M1198.76 1544.91 L1206.4 1544.91 L1206.4 1518.55 L1198.09 1520.21 L1198.09 1515.95 L1206.36 1514.29 L1211.03 1514.29 L1211.03 1544.91 L1218.67 1544.91 L1218.67 1548.85 L1198.76 1548.85 L1198.76 1544.91 Z" fill="#000000" fill-rule="nonzero" fill-opacity="1"></path><path clip-path="url(#clip500)" d="M1238.11 1517.37 Q1234.5 1517.37 1232.68 1520.93 Q1230.87 1524.47 1230.87 1531.6 Q1230.87 1538.71 1232.68 1542.27 Q1234.5 1545.82 1238.11 1545.82 Q1241.75 1545.82 1243.55 1542.27 Q1245.38 1538.71 1245.38 1531.6 Q1245.38 1524.47 1243.55 1520.93 Q1241.75 1517.37 1238.11 1517.37 M1238.11 1513.66 Q1243.92 1513.66 1246.98 1518.27 Q1250.06 1522.85 1250.06 1531.6 Q1250.06 1540.33 1246.98 1544.94 Q1243.92 1549.52 1238.11 1549.52 Q1232.3 1549.52 1229.23 1544.94 Q1226.17 1540.33 1226.17 1531.6 Q1226.17 1522.85 1229.23 1518.27 Q1232.3 1513.66 1238.11 1513.66 Z" fill="#000000" fill-rule="nonzero" fill-opacity="1"></path><path clip-path="url(#clip500)" d="M1733.17 1544.91 L1740.81 1544.91 L1740.81 1518.55 L1732.5 1520.21 L1732.5 1515.95 L1740.76 1514.29 L1745.44 1514.29 L1745.44 1544.91 L1753.08 1544.91 L1753.08 1548.85 L1733.17 1548.85 L1733.17 1544.91 Z" fill="#000000" fill-rule="nonzero" fill-opacity="1"></path><path clip-path="url(#clip500)" d="M1762.57 1514.29 L1780.92 1514.29 L1780.92 1518.22 L1766.85 1518.22 L1766.85 1526.7 Q1767.87 1526.35 1768.89 1526.19 Q1769.9 1526 1770.92 1526 Q1776.71 1526 1780.09 1529.17 Q1783.47 1532.34 1783.47 1537.76 Q1783.47 1543.34 1780 1546.44 Q1776.52 1549.52 1770.21 1549.52 Q1768.03 1549.52 1765.76 1549.15 Q1763.52 1548.78 1761.11 1548.04 L1761.11 1543.34 Q1763.19 1544.47 1765.41 1545.03 Q1767.64 1545.58 1770.11 1545.58 Q1774.12 1545.58 1776.46 1543.48 Q1778.79 1541.37 1778.79 1537.76 Q1778.79 1534.15 1776.46 1532.04 Q1774.12 1529.94 1770.11 1529.94 Q1768.24 1529.94 1766.36 1530.35 Q1764.51 1530.77 1762.57 1531.65 L1762.57 1514.29 Z" fill="#000000" fill-rule="nonzero" fill-opacity="1"></path><path clip-path="url(#clip500)" d="M2270.66 1544.91 L2286.98 1544.91 L2286.98 1548.85 L2265.04 1548.85 L2265.04 1544.91 Q2267.7 1542.16 2272.28 1537.53 Q2276.89 1532.88 2278.07 1531.53 Q2280.32 1529.01 2281.2 1527.27 Q2282.1 1525.51 2282.1 1523.82 Q2282.1 1521.07 2280.15 1519.33 Q2278.23 1517.6 2275.13 1517.6 Q2272.93 1517.6 2270.48 1518.36 Q2268.05 1519.13 2265.27 1520.68 L2265.27 1515.95 Q2268.09 1514.82 2270.55 1514.24 Q2273 1513.66 2275.04 1513.66 Q2280.41 1513.66 2283.6 1516.35 Q2286.8 1519.03 2286.8 1523.52 Q2286.8 1525.65 2285.99 1527.57 Q2285.2 1529.47 2283.09 1532.07 Q2282.52 1532.74 2279.41 1535.95 Q2276.31 1539.15 2270.66 1544.91 Z" fill="#000000" fill-rule="nonzero" fill-opacity="1"></path><path clip-path="url(#clip500)" d="M2306.8 1517.37 Q2303.19 1517.37 2301.36 1520.93 Q2299.55 1524.47 2299.55 1531.6 Q2299.55 1538.71 2301.36 1542.27 Q2303.19 1545.82 2306.8 1545.82 Q2310.43 1545.82 2312.24 1542.27 Q2314.07 1538.71 2314.07 1531.6 Q2314.07 1524.47 2312.24 1520.93 Q2310.43 1517.37 2306.8 1517.37 M2306.8 1513.66 Q2312.61 1513.66 2315.66 1518.27 Q2318.74 1522.85 2318.74 1531.6 Q2318.74 1540.33 2315.66 1544.94 Q2312.61 1549.52 2306.8 1549.52 Q2300.99 1549.52 2297.91 1544.94 Q2294.85 1540.33 2294.85 1531.6 Q2294.85 1522.85 2297.91 1518.27 Q2300.99 1513.66 2306.8 1513.66 Z" fill="#000000" fill-rule="nonzero" fill-opacity="1"></path><polyline clip-path="url(#clip502)" style="stroke:#000000; stroke-linecap:round; stroke-linejoin:round; stroke-width:2; stroke-opacity:0.1; fill:none" points="202.177,1209.84 2352.76,1209.84 "></polyline>
<polyline clip-path="url(#clip502)" style="stroke:#000000; stroke-linecap:round; stroke-linejoin:round; stroke-width:2; stroke-opacity:0.1; fill:none" points="202.177,896.363 2352.76,896.363 "></polyline>
<polyline clip-path="url(#clip502)" style="stroke:#000000; stroke-linecap:round; stroke-linejoin:round; stroke-width:2; stroke-opacity:0.1; fill:none" points="202.177,582.89 2352.76,582.89 "></polyline>
<polyline clip-path="url(#clip502)" style="stroke:#000000; stroke-linecap:round; stroke-linejoin:round; stroke-width:2; stroke-opacity:0.1; fill:none" points="202.177,269.417 2352.76,269.417 "></polyline>
<polyline clip-path="url(#clip500)" style="stroke:#000000; stroke-linecap:round; stroke-linejoin:round; stroke-width:4; stroke-opacity:1; fill:none" points="202.177,1486.45 202.177,47.2441 "></polyline>
<polyline clip-path="url(#clip500)" style="stroke:#000000; stroke-linecap:round; stroke-linejoin:round; stroke-width:4; stroke-opacity:1; fill:none" points="202.177,1209.84 221.074,1209.84 "></polyline>
<polyline clip-path="url(#clip500)" style="stroke:#000000; stroke-linecap:round; stroke-linejoin:round; stroke-width:4; stroke-opacity:1; fill:none" points="202.177,896.363 221.074,896.363 "></polyline>
<polyline clip-path="url(#clip500)" style="stroke:#000000; stroke-linecap:round; stroke-linejoin:round; stroke-width:4; stroke-opacity:1; fill:none" points="202.177,582.89 221.074,582.89 "></polyline>
<polyline clip-path="url(#clip500)" style="stroke:#000000; stroke-linecap:round; stroke-linejoin:round; stroke-width:4; stroke-opacity:1; fill:none" points="202.177,269.417 221.074,269.417 "></polyline>
<path clip-path="url(#clip500)" d="M57.7745 1223.18 L74.0939 1223.18 L74.0939 1227.12 L52.1495 1227.12 L52.1495 1223.18 Q54.8115 1220.43 59.3949 1215.8 Q64.0013 1211.14 65.1819 1209.8 Q67.4272 1207.28 68.3068 1205.54 Q69.2096 1203.78 69.2096 1202.09 Q69.2096 1199.34 67.2652 1197.6 Q65.3439 1195.87 62.2421 1195.87 Q60.043 1195.87 57.5893 1196.63 Q55.1588 1197.39 52.381 1198.94 L52.381 1194.22 Q55.2051 1193.09 57.6588 1192.51 Q60.1124 1191.93 62.1495 1191.93 Q67.5198 1191.93 70.7142 1194.62 Q73.9087 1197.3 73.9087 1201.79 Q73.9087 1203.92 73.0985 1205.84 Q72.3115 1207.74 70.205 1210.33 Q69.6263 1211 66.5245 1214.22 Q63.4226 1217.42 57.7745 1223.18 Z" fill="#000000" fill-rule="nonzero" fill-opacity="1"></path><path clip-path="url(#clip500)" d="M93.9086 1195.63 Q90.2975 1195.63 88.4688 1199.2 Q86.6632 1202.74 86.6632 1209.87 Q86.6632 1216.98 88.4688 1220.54 Q90.2975 1224.08 93.9086 1224.08 Q97.5428 1224.08 99.3483 1220.54 Q101.177 1216.98 101.177 1209.87 Q101.177 1202.74 99.3483 1199.2 Q97.5428 1195.63 93.9086 1195.63 M93.9086 1191.93 Q99.7187 1191.93 102.774 1196.54 Q105.853 1201.12 105.853 1209.87 Q105.853 1218.6 102.774 1223.2 Q99.7187 1227.79 93.9086 1227.79 Q88.0984 1227.79 85.0197 1223.2 Q81.9642 1218.6 81.9642 1209.87 Q81.9642 1201.12 85.0197 1196.54 Q88.0984 1191.93 93.9086 1191.93 Z" fill="#000000" fill-rule="nonzero" fill-opacity="1"></path><path clip-path="url(#clip500)" d="M124.07 1195.63 Q120.459 1195.63 118.631 1199.2 Q116.825 1202.74 116.825 1209.87 Q116.825 1216.98 118.631 1220.54 Q120.459 1224.08 124.07 1224.08 Q127.705 1224.08 129.51 1220.54 Q131.339 1216.98 131.339 1209.87 Q131.339 1202.74 129.51 1199.2 Q127.705 1195.63 124.07 1195.63 M124.07 1191.93 Q129.881 1191.93 132.936 1196.54 Q136.015 1201.12 136.015 1209.87 Q136.015 1218.6 132.936 1223.2 Q129.881 1227.79 124.07 1227.79 Q118.26 1227.79 115.182 1223.2 Q112.126 1218.6 112.126 1209.87 Q112.126 1201.12 115.182 1196.54 Q118.26 1191.93 124.07 1191.93 Z" fill="#000000" fill-rule="nonzero" fill-opacity="1"></path><path clip-path="url(#clip500)" d="M154.232 1195.63 Q150.621 1195.63 148.793 1199.2 Q146.987 1202.74 146.987 1209.87 Q146.987 1216.98 148.793 1220.54 Q150.621 1224.08 154.232 1224.08 Q157.867 1224.08 159.672 1220.54 Q161.501 1216.98 161.501 1209.87 Q161.501 1202.74 159.672 1199.2 Q157.867 1195.63 154.232 1195.63 M154.232 1191.93 Q160.042 1191.93 163.098 1196.54 Q166.177 1201.12 166.177 1209.87 Q166.177 1218.6 163.098 1223.2 Q160.042 1227.79 154.232 1227.79 Q148.422 1227.79 145.343 1223.2 Q142.288 1218.6 142.288 1209.87 Q142.288 1201.12 145.343 1196.54 Q148.422 1191.93 154.232 1191.93 Z" fill="#000000" fill-rule="nonzero" fill-opacity="1"></path><path clip-path="url(#clip500)" d="M67.9133 895.009 Q71.2698 895.726 73.1448 897.995 Q75.0429 900.264 75.0429 903.597 Q75.0429 908.713 71.5244 911.513 Q68.0059 914.314 61.5245 914.314 Q59.3486 914.314 57.0338 913.875 Q54.7421 913.458 52.2884 912.601 L52.2884 908.088 Q54.2328 909.222 56.5477 909.8 Q58.8625 910.379 61.3856 910.379 Q65.7837 910.379 68.0754 908.643 Q70.3902 906.907 70.3902 903.597 Q70.3902 900.541 68.2374 898.828 Q66.1078 897.092 62.2884 897.092 L58.2606 897.092 L58.2606 893.25 L62.4735 893.25 Q65.9226 893.25 67.7513 891.884 Q69.58 890.495 69.58 887.902 Q69.58 885.24 67.6819 883.828 Q65.8069 882.393 62.2884 882.393 Q60.3671 882.393 58.168 882.81 Q55.969 883.227 53.3301 884.106 L53.3301 879.94 Q55.9921 879.199 58.3069 878.828 Q60.6449 878.458 62.705 878.458 Q68.0291 878.458 71.1309 880.889 Q74.2327 883.296 74.2327 887.416 Q74.2327 890.287 72.5892 892.277 Q70.9457 894.245 67.9133 895.009 Z" fill="#000000" fill-rule="nonzero" fill-opacity="1"></path><path clip-path="url(#clip500)" d="M93.9086 882.162 Q90.2975 882.162 88.4688 885.727 Q86.6632 889.268 86.6632 896.398 Q86.6632 903.504 88.4688 907.069 Q90.2975 910.611 93.9086 910.611 Q97.5428 910.611 99.3483 907.069 Q101.177 903.504 101.177 896.398 Q101.177 889.268 99.3483 885.727 Q97.5428 882.162 93.9086 882.162 M93.9086 878.458 Q99.7187 878.458 102.774 883.065 Q105.853 887.648 105.853 896.398 Q105.853 905.125 102.774 909.731 Q99.7187 914.314 93.9086 914.314 Q88.0984 914.314 85.0197 909.731 Q81.9642 905.125 81.9642 896.398 Q81.9642 887.648 85.0197 883.065 Q88.0984 878.458 93.9086 878.458 Z" fill="#000000" fill-rule="nonzero" fill-opacity="1"></path><path clip-path="url(#clip500)" d="M124.07 882.162 Q120.459 882.162 118.631 885.727 Q116.825 889.268 116.825 896.398 Q116.825 903.504 118.631 907.069 Q120.459 910.611 124.07 910.611 Q127.705 910.611 129.51 907.069 Q131.339 903.504 131.339 896.398 Q131.339 889.268 129.51 885.727 Q127.705 882.162 124.07 882.162 M124.07 878.458 Q129.881 878.458 132.936 883.065 Q136.015 887.648 136.015 896.398 Q136.015 905.125 132.936 909.731 Q129.881 914.314 124.07 914.314 Q118.26 914.314 115.182 909.731 Q112.126 905.125 112.126 896.398 Q112.126 887.648 115.182 883.065 Q118.26 878.458 124.07 878.458 Z" fill="#000000" fill-rule="nonzero" fill-opacity="1"></path><path clip-path="url(#clip500)" d="M154.232 882.162 Q150.621 882.162 148.793 885.727 Q146.987 889.268 146.987 896.398 Q146.987 903.504 148.793 907.069 Q150.621 910.611 154.232 910.611 Q157.867 910.611 159.672 907.069 Q161.501 903.504 161.501 896.398 Q161.501 889.268 159.672 885.727 Q157.867 882.162 154.232 882.162 M154.232 878.458 Q160.042 878.458 163.098 883.065 Q166.177 887.648 166.177 896.398 Q166.177 905.125 163.098 909.731 Q160.042 914.314 154.232 914.314 Q148.422 914.314 145.343 909.731 Q142.288 905.125 142.288 896.398 Q142.288 887.648 145.343 883.065 Q148.422 878.458 154.232 878.458 Z" fill="#000000" fill-rule="nonzero" fill-opacity="1"></path><path clip-path="url(#clip500)" d="M66.5939 569.684 L54.7884 588.133 L66.5939 588.133 L66.5939 569.684 M65.367 565.61 L71.2466 565.61 L71.2466 588.133 L76.1772 588.133 L76.1772 592.022 L71.2466 592.022 L71.2466 600.17 L66.5939 600.17 L66.5939 592.022 L50.9921 592.022 L50.9921 587.508 L65.367 565.61 Z" fill="#000000" fill-rule="nonzero" fill-opacity="1"></path><path clip-path="url(#clip500)" d="M93.9086 568.689 Q90.2975 568.689 88.4688 572.254 Q86.6632 575.795 86.6632 582.925 Q86.6632 590.031 88.4688 593.596 Q90.2975 597.138 93.9086 597.138 Q97.5428 597.138 99.3483 593.596 Q101.177 590.031 101.177 582.925 Q101.177 575.795 99.3483 572.254 Q97.5428 568.689 93.9086 568.689 M93.9086 564.985 Q99.7187 564.985 102.774 569.592 Q105.853 574.175 105.853 582.925 Q105.853 591.652 102.774 596.258 Q99.7187 600.842 93.9086 600.842 Q88.0984 600.842 85.0197 596.258 Q81.9642 591.652 81.9642 582.925 Q81.9642 574.175 85.0197 569.592 Q88.0984 564.985 93.9086 564.985 Z" fill="#000000" fill-rule="nonzero" fill-opacity="1"></path><path clip-path="url(#clip500)" d="M124.07 568.689 Q120.459 568.689 118.631 572.254 Q116.825 575.795 116.825 582.925 Q116.825 590.031 118.631 593.596 Q120.459 597.138 124.07 597.138 Q127.705 597.138 129.51 593.596 Q131.339 590.031 131.339 582.925 Q131.339 575.795 129.51 572.254 Q127.705 568.689 124.07 568.689 M124.07 564.985 Q129.881 564.985 132.936 569.592 Q136.015 574.175 136.015 582.925 Q136.015 591.652 132.936 596.258 Q129.881 600.842 124.07 600.842 Q118.26 600.842 115.182 596.258 Q112.126 591.652 112.126 582.925 Q112.126 574.175 115.182 569.592 Q118.26 564.985 124.07 564.985 Z" fill="#000000" fill-rule="nonzero" fill-opacity="1"></path><path clip-path="url(#clip500)" d="M154.232 568.689 Q150.621 568.689 148.793 572.254 Q146.987 575.795 146.987 582.925 Q146.987 590.031 148.793 593.596 Q150.621 597.138 154.232 597.138 Q157.867 597.138 159.672 593.596 Q161.501 590.031 161.501 582.925 Q161.501 575.795 159.672 572.254 Q157.867 568.689 154.232 568.689 M154.232 564.985 Q160.042 564.985 163.098 569.592 Q166.177 574.175 166.177 582.925 Q166.177 591.652 163.098 596.258 Q160.042 600.842 154.232 600.842 Q148.422 600.842 145.343 596.258 Q142.288 591.652 142.288 582.925 Q142.288 574.175 145.343 569.592 Q148.422 564.985 154.232 564.985 Z" fill="#000000" fill-rule="nonzero" fill-opacity="1"></path><path clip-path="url(#clip500)" d="M53.793 252.137 L72.1494 252.137 L72.1494 256.073 L58.0754 256.073 L58.0754 264.545 Q59.0939 264.197 60.1124 264.035 Q61.131 263.85 62.1495 263.85 Q67.9365 263.85 71.3161 267.022 Q74.6957 270.193 74.6957 275.609 Q74.6957 281.188 71.2235 284.29 Q67.7513 287.369 61.4319 287.369 Q59.256 287.369 56.9875 286.998 Q54.7421 286.628 52.3347 285.887 L52.3347 281.188 Q54.418 282.322 56.6402 282.878 Q58.8625 283.433 61.3393 283.433 Q65.3439 283.433 67.6819 281.327 Q70.0198 279.221 70.0198 275.609 Q70.0198 271.998 67.6819 269.892 Q65.3439 267.785 61.3393 267.785 Q59.4643 267.785 57.5893 268.202 Q55.7375 268.619 53.793 269.498 L53.793 252.137 Z" fill="#000000" fill-rule="nonzero" fill-opacity="1"></path><path clip-path="url(#clip500)" d="M93.9086 255.216 Q90.2975 255.216 88.4688 258.781 Q86.6632 262.322 86.6632 269.452 Q86.6632 276.559 88.4688 280.123 Q90.2975 283.665 93.9086 283.665 Q97.5428 283.665 99.3483 280.123 Q101.177 276.559 101.177 269.452 Q101.177 262.322 99.3483 258.781 Q97.5428 255.216 93.9086 255.216 M93.9086 251.512 Q99.7187 251.512 102.774 256.119 Q105.853 260.702 105.853 269.452 Q105.853 278.179 102.774 282.785 Q99.7187 287.369 93.9086 287.369 Q88.0984 287.369 85.0197 282.785 Q81.9642 278.179 81.9642 269.452 Q81.9642 260.702 85.0197 256.119 Q88.0984 251.512 93.9086 251.512 Z" fill="#000000" fill-rule="nonzero" fill-opacity="1"></path><path clip-path="url(#clip500)" d="M124.07 255.216 Q120.459 255.216 118.631 258.781 Q116.825 262.322 116.825 269.452 Q116.825 276.559 118.631 280.123 Q120.459 283.665 124.07 283.665 Q127.705 283.665 129.51 280.123 Q131.339 276.559 131.339 269.452 Q131.339 262.322 129.51 258.781 Q127.705 255.216 124.07 255.216 M124.07 251.512 Q129.881 251.512 132.936 256.119 Q136.015 260.702 136.015 269.452 Q136.015 278.179 132.936 282.785 Q129.881 287.369 124.07 287.369 Q118.26 287.369 115.182 282.785 Q112.126 278.179 112.126 269.452 Q112.126 260.702 115.182 256.119 Q118.26 251.512 124.07 251.512 Z" fill="#000000" fill-rule="nonzero" fill-opacity="1"></path><path clip-path="url(#clip500)" d="M154.232 255.216 Q150.621 255.216 148.793 258.781 Q146.987 262.322 146.987 269.452 Q146.987 276.559 148.793 280.123 Q150.621 283.665 154.232 283.665 Q157.867 283.665 159.672 280.123 Q161.501 276.559 161.501 269.452 Q161.501 262.322 159.672 258.781 Q157.867 255.216 154.232 255.216 M154.232 251.512 Q160.042 251.512 163.098 256.119 Q166.177 260.702 166.177 269.452 Q166.177 278.179 163.098 282.785 Q160.042 287.369 154.232 287.369 Q148.422 287.369 145.343 282.785 Q142.288 278.179 142.288 269.452 Q142.288 260.702 145.343 256.119 Q148.422 251.512 154.232 251.512 Z" fill="#000000" fill-rule="nonzero" fill-opacity="1"></path><polyline clip-path="url(#clip502)" style="stroke:#009af9; stroke-linecap:round; stroke-linejoin:round; stroke-width:4; stroke-opacity:1; fill:none" points="263.042,87.9763 369.824,677.042 476.605,924.393 583.387,1089.14 690.168,1201.55 796.95,1274.77 903.731,1302.75 1010.51,1342.61 1117.29,1346.31 1224.08,1354.77 1330.86,1379.53 1437.64,1390.68 1544.42,1398.79 1651.2,1423.71 1757.98,1429.58 1864.76,1417.79 1971.55,1441.2 2078.33,1431.16 2185.11,1438.92 2291.89,1445.72 "></polyline>
<path clip-path="url(#clip500)" d="M2013.58 198.898 L2281.07 198.898 L2281.07 95.2176 L2013.58 95.2176  Z" fill="#ffffff" fill-rule="evenodd" fill-opacity="1"></path>
<polyline clip-path="url(#clip500)" style="stroke:#000000; stroke-linecap:round; stroke-linejoin:round; stroke-width:4; stroke-opacity:1; fill:none" points="2013.58,198.898 2281.07,198.898 2281.07,95.2176 2013.58,95.2176 2013.58,198.898 "></polyline>
<polyline clip-path="url(#clip500)" style="stroke:#009af9; stroke-linecap:round; stroke-linejoin:round; stroke-width:4; stroke-opacity:1; fill:none" points="2037.48,147.058 2180.85,147.058 "></polyline>
<path clip-path="url(#clip500)" d="M2218.59 166.745 Q2216.78 171.375 2215.07 172.787 Q2213.36 174.199 2210.49 174.199 L2207.08 174.199 L2207.08 170.634 L2209.58 170.634 Q2211.34 170.634 2212.31 169.8 Q2213.29 168.967 2214.47 165.865 L2215.23 163.921 L2204.74 138.412 L2209.26 138.412 L2217.36 158.689 L2225.46 138.412 L2229.98 138.412 L2218.59 166.745 Z" fill="#000000" fill-rule="nonzero" fill-opacity="1"></path><path clip-path="url(#clip500)" d="M2237.27 160.402 L2244.91 160.402 L2244.91 134.037 L2236.6 135.703 L2236.6 131.444 L2244.86 129.778 L2249.54 129.778 L2249.54 160.402 L2257.17 160.402 L2257.17 164.338 L2237.27 164.338 L2237.27 160.402 Z" fill="#000000" fill-rule="nonzero" fill-opacity="1"></path></svg>