<?xml version="1.0" encoding="utf-8"?>
<svg xmlns="http://www.w3.org/2000/svg" xmlns:xlink="http://www.w3.org/1999/xlink" width="600" height="400" viewBox="0 0 2400 1600">
<defs>
  <clipPath id="clip350">
    <rect x="0" y="0" width="2400" height="1600"/>
  </clipPath>
</defs>
<path clip-path="url(#clip350)" d="M0 1600 L2400 1600 L2400 8.88178e-14 L0 8.88178e-14  Z" fill="#ffffff" fill-rule="evenodd" fill-opacity="1"/>
<defs>
  <clipPath id="clip351">
    <rect x="480" y="0" width="1681" height="1600"/>
  </clipPath>
</defs>
<path clip-path="url(#clip350)" d="M219.866 1423.18 L2352.76 1423.18 L2352.76 123.472 L219.866 123.472  Z" fill="#ffffff" fill-rule="evenodd" fill-opacity="1"/>
<defs>
  <clipPath id="clip352">
    <rect x="219" y="123" width="2134" height="1301"/>
  </clipPath>
</defs>
<polyline clip-path="url(#clip352)" style="stroke:#000000; stroke-linecap:round; stroke-linejoin:round; stroke-width:2; stroke-opacity:0.1; fill:none" points="251.069,1423.18 251.069,123.472 "/>
<polyline clip-path="url(#clip352)" style="stroke:#000000; stroke-linecap:round; stroke-linejoin:round; stroke-width:2; stroke-opacity:0.1; fill:none" points="834.304,1423.18 834.304,123.472 "/>
<polyline clip-path="url(#clip352)" style="stroke:#000000; stroke-linecap:round; stroke-linejoin:round; stroke-width:2; stroke-opacity:0.1; fill:none" points="1417.54,1423.18 1417.54,123.472 "/>
<polyline clip-path="url(#clip352)" style="stroke:#000000; stroke-linecap:round; stroke-linejoin:round; stroke-width:2; stroke-opacity:0.1; fill:none" points="2000.77,1423.18 2000.77,123.472 "/>
<polyline clip-path="url(#clip350)" style="stroke:#000000; stroke-linecap:round; stroke-linejoin:round; stroke-width:4; stroke-opacity:1; fill:none" points="219.866,1423.18 2352.76,1423.18 "/>
<polyline clip-path="url(#clip350)" style="stroke:#000000; stroke-linecap:round; stroke-linejoin:round; stroke-width:4; stroke-opacity:1; fill:none" points="251.069,1423.18 251.069,1404.28 "/>
<polyline clip-path="url(#clip350)" style="stroke:#000000; stroke-linecap:round; stroke-linejoin:round; stroke-width:4; stroke-opacity:1; fill:none" points="834.304,1423.18 834.304,1404.28 "/>
<polyline clip-path="url(#clip350)" style="stroke:#000000; stroke-linecap:round; stroke-linejoin:round; stroke-width:4; stroke-opacity:1; fill:none" points="1417.54,1423.18 1417.54,1404.28 "/>
<polyline clip-path="url(#clip350)" style="stroke:#000000; stroke-linecap:round; stroke-linejoin:round; stroke-width:4; stroke-opacity:1; fill:none" points="2000.77,1423.18 2000.77,1404.28 "/>
<path clip-path="url(#clip350)" d="M251.069 1454.1 Q247.458 1454.1 245.63 1457.66 Q243.824 1461.2 243.824 1468.33 Q243.824 1475.44 245.63 1479.01 Q247.458 1482.55 251.069 1482.55 Q254.704 1482.55 256.509 1479.01 Q258.338 1475.44 258.338 1468.33 Q258.338 1461.2 256.509 1457.66 Q254.704 1454.1 251.069 1454.1 M251.069 1450.39 Q256.879 1450.39 259.935 1455 Q263.014 1459.58 263.014 1468.33 Q263.014 1477.06 259.935 1481.67 Q256.879 1486.25 251.069 1486.25 Q245.259 1486.25 242.18 1481.67 Q239.125 1477.06 239.125 1468.33 Q239.125 1459.58 242.18 1455 Q245.259 1450.39 251.069 1450.39 Z" fill="#000000" fill-rule="nonzero" fill-opacity="1" /><path clip-path="url(#clip350)" d="M813.077 1481.64 L829.397 1481.64 L829.397 1485.58 L807.452 1485.58 L807.452 1481.64 Q810.114 1478.89 814.698 1474.26 Q819.304 1469.61 820.485 1468.27 Q822.73 1465.74 823.61 1464.01 Q824.513 1462.25 824.513 1460.56 Q824.513 1457.8 822.568 1456.07 Q820.647 1454.33 817.545 1454.33 Q815.346 1454.33 812.892 1455.09 Q810.462 1455.86 807.684 1457.41 L807.684 1452.69 Q810.508 1451.55 812.962 1450.97 Q815.415 1450.39 817.452 1450.39 Q822.823 1450.39 826.017 1453.08 Q829.212 1455.77 829.212 1460.26 Q829.212 1462.39 828.401 1464.31 Q827.614 1466.2 825.508 1468.8 Q824.929 1469.47 821.827 1472.69 Q818.726 1475.88 813.077 1481.64 Z" fill="#000000" fill-rule="nonzero" fill-opacity="1" /><path clip-path="url(#clip350)" d="M849.211 1454.1 Q845.6 1454.1 843.772 1457.66 Q841.966 1461.2 841.966 1468.33 Q841.966 1475.44 843.772 1479.01 Q845.6 1482.55 849.211 1482.55 Q852.846 1482.55 854.651 1479.01 Q856.48 1475.44 856.48 1468.33 Q856.48 1461.2 854.651 1457.66 Q852.846 1454.1 849.211 1454.1 M849.211 1450.39 Q855.022 1450.39 858.077 1455 Q861.156 1459.58 861.156 1468.33 Q861.156 1477.06 858.077 1481.67 Q855.022 1486.25 849.211 1486.25 Q843.401 1486.25 840.323 1481.67 Q837.267 1477.06 837.267 1468.33 Q837.267 1459.58 840.323 1455 Q843.401 1450.39 849.211 1450.39 Z" fill="#000000" fill-rule="nonzero" fill-opacity="1" /><path clip-path="url(#clip350)" d="M1405.71 1455.09 L1393.9 1473.54 L1405.71 1473.54 L1405.71 1455.09 M1404.48 1451.02 L1410.36 1451.02 L1410.36 1473.54 L1415.29 1473.54 L1415.29 1477.43 L1410.36 1477.43 L1410.36 1485.58 L1405.71 1485.58 L1405.71 1477.43 L1390.11 1477.43 L1390.11 1472.92 L1404.48 1451.02 Z" fill="#000000" fill-rule="nonzero" fill-opacity="1" /><path clip-path="url(#clip350)" d="M1433.02 1454.1 Q1429.41 1454.1 1427.59 1457.66 Q1425.78 1461.2 1425.78 1468.33 Q1425.78 1475.44 1427.59 1479.01 Q1429.41 1482.55 1433.02 1482.55 Q1436.66 1482.55 1438.46 1479.01 Q1440.29 1475.44 1440.29 1468.33 Q1440.29 1461.2 1438.46 1457.66 Q1436.66 1454.1 1433.02 1454.1 M1433.02 1450.39 Q1438.84 1450.39 1441.89 1455 Q1444.97 1459.58 1444.97 1468.33 Q1444.97 1477.06 1441.89 1481.67 Q1438.84 1486.25 1433.02 1486.25 Q1427.21 1486.25 1424.14 1481.67 Q1421.08 1477.06 1421.08 1468.33 Q1421.08 1459.58 1424.14 1455 Q1427.21 1450.39 1433.02 1450.39 Z" fill="#000000" fill-rule="nonzero" fill-opacity="1" /><path clip-path="url(#clip350)" d="M1986.18 1466.44 Q1983.03 1466.44 1981.18 1468.59 Q1979.35 1470.74 1979.35 1474.49 Q1979.35 1478.22 1981.18 1480.39 Q1983.03 1482.55 1986.18 1482.55 Q1989.33 1482.55 1991.16 1480.39 Q1993.01 1478.22 1993.01 1474.49 Q1993.01 1470.74 1991.16 1468.59 Q1989.33 1466.44 1986.18 1466.44 M1995.46 1451.78 L1995.46 1456.04 Q1993.7 1455.21 1991.9 1454.77 Q1990.11 1454.33 1988.35 1454.33 Q1983.73 1454.33 1981.27 1457.45 Q1978.84 1460.58 1978.49 1466.9 Q1979.86 1464.89 1981.92 1463.82 Q1983.98 1462.73 1986.46 1462.73 Q1991.66 1462.73 1994.67 1465.9 Q1997.71 1469.05 1997.71 1474.49 Q1997.71 1479.82 1994.56 1483.03 Q1991.41 1486.25 1986.18 1486.25 Q1980.18 1486.25 1977.01 1481.67 Q1973.84 1477.06 1973.84 1468.33 Q1973.84 1460.14 1977.73 1455.28 Q1981.62 1450.39 1988.17 1450.39 Q1989.93 1450.39 1991.71 1450.74 Q1993.52 1451.09 1995.46 1451.78 Z" fill="#000000" fill-rule="nonzero" fill-opacity="1" /><path clip-path="url(#clip350)" d="M2015.76 1454.1 Q2012.15 1454.1 2010.32 1457.66 Q2008.52 1461.2 2008.52 1468.33 Q2008.52 1475.44 2010.32 1479.01 Q2012.15 1482.55 2015.76 1482.55 Q2019.4 1482.55 2021.2 1479.01 Q2023.03 1475.44 2023.03 1468.33 Q2023.03 1461.2 2021.2 1457.66 Q2019.4 1454.1 2015.76 1454.1 M2015.76 1450.39 Q2021.57 1450.39 2024.63 1455 Q2027.71 1459.58 2027.71 1468.33 Q2027.71 1477.06 2024.63 1481.67 Q2021.57 1486.25 2015.76 1486.25 Q2009.95 1486.25 2006.87 1481.67 Q2003.82 1477.06 2003.82 1468.33 Q2003.82 1459.58 2006.87 1455 Q2009.95 1450.39 2015.76 1450.39 Z" fill="#000000" fill-rule="nonzero" fill-opacity="1" /><path clip-path="url(#clip350)" d="M1221.87 1561.26 L1221.87 1548.5 L1211.37 1548.5 L1211.37 1543.22 L1228.24 1543.22 L1228.24 1563.62 Q1224.52 1566.26 1220.03 1567.63 Q1215.54 1568.97 1210.45 1568.97 Q1199.31 1568.97 1193.01 1562.47 Q1186.74 1555.95 1186.74 1544.33 Q1186.74 1532.68 1193.01 1526.19 Q1199.31 1519.66 1210.45 1519.66 Q1215.09 1519.66 1219.26 1520.81 Q1223.47 1521.96 1227 1524.18 L1227 1531.03 Q1223.43 1528 1219.42 1526.48 Q1215.41 1524.95 1210.99 1524.95 Q1202.27 1524.95 1197.88 1529.82 Q1193.51 1534.69 1193.51 1544.33 Q1193.51 1553.94 1197.88 1558.81 Q1202.27 1563.68 1210.99 1563.68 Q1214.39 1563.68 1217.07 1563.11 Q1219.74 1562.51 1221.87 1561.26 Z" fill="#000000" fill-rule="nonzero" fill-opacity="1" /><path clip-path="url(#clip350)" d="M1270.22 1548.76 L1270.22 1551.62 L1243.29 1551.62 Q1243.68 1557.67 1246.92 1560.85 Q1250.2 1564 1256.03 1564 Q1259.4 1564 1262.55 1563.17 Q1265.73 1562.35 1268.85 1560.69 L1268.85 1566.23 Q1265.7 1567.57 1262.39 1568.27 Q1259.08 1568.97 1255.68 1568.97 Q1247.15 1568.97 1242.15 1564 Q1237.18 1559.04 1237.18 1550.57 Q1237.18 1541.82 1241.89 1536.69 Q1246.64 1531.54 1254.66 1531.54 Q1261.85 1531.54 1266.02 1536.18 Q1270.22 1540.8 1270.22 1548.76 M1264.37 1547.04 Q1264.3 1542.23 1261.66 1539.37 Q1259.05 1536.5 1254.72 1536.5 Q1249.82 1536.5 1246.86 1539.27 Q1243.93 1542.04 1243.49 1547.07 L1264.37 1547.04 Z" fill="#000000" fill-rule="nonzero" fill-opacity="1" /><path clip-path="url(#clip350)" d="M1309.47 1546.53 L1309.47 1568.04 L1303.61 1568.04 L1303.61 1546.72 Q1303.61 1541.66 1301.64 1539.14 Q1299.66 1536.63 1295.72 1536.63 Q1290.97 1536.63 1288.24 1539.65 Q1285.5 1542.68 1285.5 1547.9 L1285.5 1568.04 L1279.61 1568.04 L1279.61 1532.4 L1285.5 1532.4 L1285.5 1537.93 Q1287.6 1534.72 1290.43 1533.13 Q1293.3 1531.54 1297.02 1531.54 Q1303.16 1531.54 1306.32 1535.36 Q1309.47 1539.14 1309.47 1546.53 Z" fill="#000000" fill-rule="nonzero" fill-opacity="1" /><path clip-path="url(#clip350)" d="M1351.64 1548.76 L1351.64 1551.62 L1324.71 1551.62 Q1325.09 1557.67 1328.34 1560.85 Q1331.62 1564 1337.44 1564 Q1340.82 1564 1343.97 1563.17 Q1347.15 1562.35 1350.27 1560.69 L1350.27 1566.23 Q1347.12 1567.57 1343.81 1568.27 Q1340.5 1568.97 1337.09 1568.97 Q1328.56 1568.97 1323.57 1564 Q1318.6 1559.04 1318.6 1550.57 Q1318.6 1541.82 1323.31 1536.69 Q1328.05 1531.54 1336.07 1531.54 Q1343.27 1531.54 1347.44 1536.18 Q1351.64 1540.8 1351.64 1548.76 M1345.78 1547.04 Q1345.72 1542.23 1343.08 1539.37 Q1340.47 1536.5 1336.14 1536.5 Q1331.24 1536.5 1328.28 1539.27 Q1325.35 1542.04 1324.9 1547.07 L1345.78 1547.04 Z" fill="#000000" fill-rule="nonzero" fill-opacity="1" /><path clip-path="url(#clip350)" d="M1383.98 1533.45 L1383.98 1538.98 Q1381.49 1537.71 1378.82 1537.07 Q1376.15 1536.44 1373.28 1536.44 Q1368.92 1536.44 1366.73 1537.77 Q1364.56 1539.11 1364.56 1541.79 Q1364.56 1543.82 1366.12 1545 Q1367.68 1546.15 1372.39 1547.2 L1374.4 1547.64 Q1380.63 1548.98 1383.24 1551.43 Q1385.89 1553.85 1385.89 1558.21 Q1385.89 1563.17 1381.94 1566.07 Q1378.03 1568.97 1371.15 1568.97 Q1368.29 1568.97 1365.17 1568.39 Q1362.08 1567.85 1358.64 1566.74 L1358.64 1560.69 Q1361.89 1562.38 1365.04 1563.24 Q1368.19 1564.07 1371.28 1564.07 Q1375.42 1564.07 1377.64 1562.66 Q1379.87 1561.23 1379.87 1558.65 Q1379.87 1556.27 1378.25 1554.99 Q1376.66 1553.72 1371.21 1552.54 L1369.18 1552.07 Q1363.73 1550.92 1361.32 1548.56 Q1358.9 1546.18 1358.9 1542.04 Q1358.9 1537.01 1362.46 1534.27 Q1366.03 1531.54 1372.58 1531.54 Q1375.83 1531.54 1378.69 1532.01 Q1381.56 1532.49 1383.98 1533.45 Z" fill="#000000" fill-rule="nonzero" fill-opacity="1" /><polyline clip-path="url(#clip352)" style="stroke:#000000; stroke-linecap:round; stroke-linejoin:round; stroke-width:2; stroke-opacity:0.1; fill:none" points="219.866,1163.61 2352.76,1163.61 "/>
<polyline clip-path="url(#clip352)" style="stroke:#000000; stroke-linecap:round; stroke-linejoin:round; stroke-width:2; stroke-opacity:0.1; fill:none" points="219.866,824.593 2352.76,824.593 "/>
<polyline clip-path="url(#clip352)" style="stroke:#000000; stroke-linecap:round; stroke-linejoin:round; stroke-width:2; stroke-opacity:0.1; fill:none" points="219.866,485.576 2352.76,485.576 "/>
<polyline clip-path="url(#clip352)" style="stroke:#000000; stroke-linecap:round; stroke-linejoin:round; stroke-width:2; stroke-opacity:0.1; fill:none" points="219.866,146.559 2352.76,146.559 "/>
<polyline clip-path="url(#clip350)" style="stroke:#000000; stroke-linecap:round; stroke-linejoin:round; stroke-width:4; stroke-opacity:1; fill:none" points="219.866,1423.18 219.866,123.472 "/>
<polyline clip-path="url(#clip350)" style="stroke:#000000; stroke-linecap:round; stroke-linejoin:round; stroke-width:4; stroke-opacity:1; fill:none" points="219.866,1163.61 238.764,1163.61 "/>
<polyline clip-path="url(#clip350)" style="stroke:#000000; stroke-linecap:round; stroke-linejoin:round; stroke-width:4; stroke-opacity:1; fill:none" points="219.866,824.593 238.764,824.593 "/>
<polyline clip-path="url(#clip350)" style="stroke:#000000; stroke-linecap:round; stroke-linejoin:round; stroke-width:4; stroke-opacity:1; fill:none" points="219.866,485.576 238.764,485.576 "/>
<polyline clip-path="url(#clip350)" style="stroke:#000000; stroke-linecap:round; stroke-linejoin:round; stroke-width:4; stroke-opacity:1; fill:none" points="219.866,146.559 238.764,146.559 "/>
<path clip-path="url(#clip350)" d="M126.205 1149.41 Q122.593 1149.41 120.765 1152.97 Q118.959 1156.52 118.959 1163.65 Q118.959 1170.75 120.765 1174.32 Q122.593 1177.86 126.205 1177.86 Q129.839 1177.86 131.644 1174.32 Q133.473 1170.75 133.473 1163.65 Q133.473 1156.52 131.644 1152.97 Q129.839 1149.41 126.205 1149.41 M126.205 1145.71 Q132.015 1145.71 135.07 1150.31 Q138.149 1154.9 138.149 1163.65 Q138.149 1172.37 135.07 1176.98 Q132.015 1181.56 126.205 1181.56 Q120.394 1181.56 117.316 1176.98 Q114.26 1172.37 114.26 1163.65 Q114.26 1154.9 117.316 1150.31 Q120.394 1145.71 126.205 1145.71 Z" fill="#000000" fill-rule="nonzero" fill-opacity="1" /><path clip-path="url(#clip350)" d="M146.366 1175.01 L151.251 1175.01 L151.251 1180.89 L146.366 1180.89 L146.366 1175.01 Z" fill="#000000" fill-rule="nonzero" fill-opacity="1" /><path clip-path="url(#clip350)" d="M174.283 1150.4 L162.477 1168.85 L174.283 1168.85 L174.283 1150.4 M173.056 1146.33 L178.936 1146.33 L178.936 1168.85 L183.866 1168.85 L183.866 1172.74 L178.936 1172.74 L178.936 1180.89 L174.283 1180.89 L174.283 1172.74 L158.681 1172.74 L158.681 1168.23 L173.056 1146.33 Z" fill="#000000" fill-rule="nonzero" fill-opacity="1" /><path clip-path="url(#clip350)" d="M126.529 810.392 Q122.918 810.392 121.089 813.957 Q119.283 817.498 119.283 824.628 Q119.283 831.735 121.089 835.299 Q122.918 838.841 126.529 838.841 Q130.163 838.841 131.968 835.299 Q133.797 831.735 133.797 824.628 Q133.797 817.498 131.968 813.957 Q130.163 810.392 126.529 810.392 M126.529 806.688 Q132.339 806.688 135.394 811.295 Q138.473 815.878 138.473 824.628 Q138.473 833.355 135.394 837.961 Q132.339 842.545 126.529 842.545 Q120.718 842.545 117.64 837.961 Q114.584 833.355 114.584 824.628 Q114.584 815.878 117.64 811.295 Q120.718 806.688 126.529 806.688 Z" fill="#000000" fill-rule="nonzero" fill-opacity="1" /><path clip-path="url(#clip350)" d="M146.691 835.994 L151.575 835.994 L151.575 841.873 L146.691 841.873 L146.691 835.994 Z" fill="#000000" fill-rule="nonzero" fill-opacity="1" /><path clip-path="url(#clip350)" d="M172.339 822.73 Q169.19 822.73 167.339 824.883 Q165.51 827.035 165.51 830.785 Q165.51 834.512 167.339 836.688 Q169.19 838.841 172.339 838.841 Q175.487 838.841 177.315 836.688 Q179.167 834.512 179.167 830.785 Q179.167 827.035 177.315 824.883 Q175.487 822.73 172.339 822.73 M181.621 808.077 L181.621 812.336 Q179.862 811.503 178.056 811.063 Q176.274 810.624 174.514 810.624 Q169.885 810.624 167.431 813.749 Q165.001 816.873 164.653 823.193 Q166.019 821.179 168.079 820.114 Q170.139 819.026 172.616 819.026 Q177.825 819.026 180.834 822.198 Q183.866 825.346 183.866 830.785 Q183.866 836.11 180.718 839.327 Q177.57 842.545 172.339 842.545 Q166.343 842.545 163.172 837.961 Q160.001 833.355 160.001 824.628 Q160.001 816.434 163.89 811.573 Q167.778 806.688 174.329 806.688 Q176.089 806.688 177.871 807.036 Q179.676 807.383 181.621 808.077 Z" fill="#000000" fill-rule="nonzero" fill-opacity="1" /><path clip-path="url(#clip350)" d="M126.783 471.375 Q123.172 471.375 121.343 474.939 Q119.538 478.481 119.538 485.611 Q119.538 492.717 121.343 496.282 Q123.172 499.824 126.783 499.824 Q130.417 499.824 132.223 496.282 Q134.052 492.717 134.052 485.611 Q134.052 478.481 132.223 474.939 Q130.417 471.375 126.783 471.375 M126.783 467.671 Q132.593 467.671 135.649 472.277 Q138.728 476.861 138.728 485.611 Q138.728 494.337 135.649 498.944 Q132.593 503.527 126.783 503.527 Q120.973 503.527 117.894 498.944 Q114.839 494.337 114.839 485.611 Q114.839 476.861 117.894 472.277 Q120.973 467.671 126.783 467.671 Z" fill="#000000" fill-rule="nonzero" fill-opacity="1" /><path clip-path="url(#clip350)" d="M146.945 496.976 L151.829 496.976 L151.829 502.856 L146.945 502.856 L146.945 496.976 Z" fill="#000000" fill-rule="nonzero" fill-opacity="1" /><path clip-path="url(#clip350)" d="M172.014 486.444 Q168.681 486.444 166.76 488.226 Q164.862 490.009 164.862 493.134 Q164.862 496.259 166.76 498.041 Q168.681 499.824 172.014 499.824 Q175.348 499.824 177.269 498.041 Q179.19 496.236 179.19 493.134 Q179.19 490.009 177.269 488.226 Q175.371 486.444 172.014 486.444 M167.339 484.453 Q164.329 483.713 162.64 481.652 Q160.973 479.592 160.973 476.629 Q160.973 472.486 163.913 470.078 Q166.876 467.671 172.014 467.671 Q177.176 467.671 180.116 470.078 Q183.056 472.486 183.056 476.629 Q183.056 479.592 181.366 481.652 Q179.7 483.713 176.714 484.453 Q180.093 485.24 181.968 487.532 Q183.866 489.824 183.866 493.134 Q183.866 498.157 180.788 500.842 Q177.732 503.527 172.014 503.527 Q166.297 503.527 163.218 500.842 Q160.163 498.157 160.163 493.134 Q160.163 489.824 162.061 487.532 Q163.959 485.24 167.339 484.453 M165.626 477.069 Q165.626 479.754 167.292 481.259 Q168.982 482.763 172.014 482.763 Q175.024 482.763 176.714 481.259 Q178.426 479.754 178.426 477.069 Q178.426 474.384 176.714 472.879 Q175.024 471.375 172.014 471.375 Q168.982 471.375 167.292 472.879 Q165.626 474.384 165.626 477.069 Z" fill="#000000" fill-rule="nonzero" fill-opacity="1" /><path clip-path="url(#clip350)" d="M117.501 159.903 L125.14 159.903 L125.14 133.538 L116.83 135.204 L116.83 130.945 L125.093 129.279 L129.769 129.279 L129.769 159.903 L137.408 159.903 L137.408 163.839 L117.501 163.839 L117.501 159.903 Z" fill="#000000" fill-rule="nonzero" fill-opacity="1" /><path clip-path="url(#clip350)" d="M146.853 157.959 L151.737 157.959 L151.737 163.839 L146.853 163.839 L146.853 157.959 Z" fill="#000000" fill-rule="nonzero" fill-opacity="1" /><path clip-path="url(#clip350)" d="M171.922 132.357 Q168.311 132.357 166.482 135.922 Q164.677 139.464 164.677 146.593 Q164.677 153.7 166.482 157.265 Q168.311 160.806 171.922 160.806 Q175.556 160.806 177.362 157.265 Q179.19 153.7 179.19 146.593 Q179.19 139.464 177.362 135.922 Q175.556 132.357 171.922 132.357 M171.922 128.654 Q177.732 128.654 180.788 133.26 Q183.866 137.843 183.866 146.593 Q183.866 155.32 180.788 159.927 Q177.732 164.51 171.922 164.51 Q166.112 164.51 163.033 159.927 Q159.978 155.32 159.978 146.593 Q159.978 137.843 163.033 133.26 Q166.112 128.654 171.922 128.654 Z" fill="#000000" fill-rule="nonzero" fill-opacity="1" /><path clip-path="url(#clip350)" d="M16.4842 837.445 L16.4842 827.864 L48.8219 815.738 L16.4842 803.547 L16.4842 793.967 L64.0042 793.967 L64.0042 800.237 L22.277 800.237 L54.8694 812.491 L54.8694 818.952 L22.277 831.206 L64.0042 831.206 L64.0042 837.445 L16.4842 837.445 Z" fill="#000000" fill-rule="nonzero" fill-opacity="1" /><path clip-path="url(#clip350)" d="M18.0438 752.717 L24.314 752.717 Q22.5634 756.377 21.704 759.624 Q20.8447 762.87 20.8447 765.894 Q20.8447 771.146 22.8817 774.01 Q24.9187 776.843 28.6745 776.843 Q31.8255 776.843 33.4488 774.965 Q35.0402 773.055 36.0269 767.772 L36.8226 763.889 Q38.1912 756.696 41.6605 753.29 Q45.098 749.852 50.8908 749.852 Q57.7976 749.852 61.3624 754.499 Q64.9272 759.115 64.9272 768.058 Q64.9272 771.432 64.1633 775.252 Q63.3994 779.039 61.9035 783.113 L55.2831 783.113 Q57.4793 779.198 58.5933 775.443 Q59.7073 771.687 59.7073 768.058 Q59.7073 762.552 57.543 759.56 Q55.3786 756.568 51.3682 756.568 Q47.8671 756.568 45.8937 758.733 Q43.9204 760.865 42.9337 765.767 L42.1698 769.682 Q40.7375 776.875 37.682 780.09 Q34.6264 783.304 29.1837 783.304 Q22.8817 783.304 19.2532 778.88 Q15.6248 774.424 15.6248 766.626 Q15.6248 763.284 16.2295 759.815 Q16.8343 756.345 18.0438 752.717 Z" fill="#000000" fill-rule="nonzero" fill-opacity="1" /><path clip-path="url(#clip350)" d="M16.4842 739.826 L16.4842 709.78 L21.895 709.78 L21.895 733.397 L35.9632 733.397 L35.9632 710.767 L41.3741 710.767 L41.3741 733.397 L58.5933 733.397 L58.5933 709.207 L64.0042 709.207 L64.0042 739.826 L16.4842 739.826 Z" fill="#000000" fill-rule="nonzero" fill-opacity="1" /><path clip-path="url(#clip350)" d="M877.514 12.096 L889.707 12.096 L905.141 53.2532 L920.656 12.096 L932.849 12.096 L932.849 72.576 L924.869 72.576 L924.869 19.4686 L909.273 60.9499 L901.05 60.9499 L885.454 19.4686 L885.454 72.576 L877.514 72.576 L877.514 12.096 Z" fill="#000000" fill-rule="nonzero" fill-opacity="1" /><path clip-path="url(#clip350)" d="M987.577 48.0275 L987.577 51.6733 L953.307 51.6733 Q953.793 59.3701 957.925 63.421 Q962.097 67.4314 969.51 67.4314 Q973.804 67.4314 977.814 66.3781 Q981.865 65.3249 985.835 63.2184 L985.835 70.267 Q981.825 71.9684 977.612 72.8596 Q973.399 73.7508 969.065 73.7508 Q958.208 73.7508 951.848 67.4314 Q945.529 61.1119 945.529 50.3365 Q945.529 39.1965 951.524 32.6746 Q957.56 26.1121 967.768 26.1121 Q976.923 26.1121 982.23 32.0264 Q987.577 37.9003 987.577 48.0275 M980.123 45.84 Q980.042 39.7232 976.68 36.0774 Q973.358 32.4315 967.849 32.4315 Q961.611 32.4315 957.844 35.9558 Q954.117 39.4801 953.55 45.8805 L980.123 45.84 Z" fill="#000000" fill-rule="nonzero" fill-opacity="1" /><path clip-path="url(#clip350)" d="M1020.43 49.7694 Q1011.4 49.7694 1007.91 51.8354 Q1004.43 53.9013 1004.43 58.8839 Q1004.43 62.8538 1007.02 65.2034 Q1009.65 67.5124 1014.15 67.5124 Q1020.35 67.5124 1024.08 63.1374 Q1027.84 58.7219 1027.84 51.4303 L1027.84 49.7694 L1020.43 49.7694 M1035.3 46.6907 L1035.3 72.576 L1027.84 72.576 L1027.84 65.6895 Q1025.29 69.8214 1021.48 71.8063 Q1017.68 73.7508 1012.17 73.7508 Q1005.2 73.7508 1001.07 69.8619 Q996.975 65.9325 996.975 59.3701 Q996.975 51.7138 1002.08 47.825 Q1007.22 43.9361 1017.39 43.9361 L1027.84 43.9361 L1027.84 43.2069 Q1027.84 38.0623 1024.44 35.2672 Q1021.08 32.4315 1014.96 32.4315 Q1011.07 32.4315 1007.39 33.3632 Q1003.7 34.295 1000.3 36.1584 L1000.3 29.2718 Q1004.39 27.692 1008.24 26.9223 Q1012.09 26.1121 1015.73 26.1121 Q1025.57 26.1121 1030.44 31.2163 Q1035.3 36.3204 1035.3 46.6907 Z" fill="#000000" fill-rule="nonzero" fill-opacity="1" /><path clip-path="url(#clip350)" d="M1088.36 45.1919 L1088.36 72.576 L1080.91 72.576 L1080.91 45.4349 Q1080.91 38.994 1078.4 35.7938 Q1075.89 32.5936 1070.86 32.5936 Q1064.83 32.5936 1061.34 36.4419 Q1057.86 40.2903 1057.86 46.9338 L1057.86 72.576 L1050.37 72.576 L1050.37 27.2059 L1057.86 27.2059 L1057.86 34.2544 Q1060.53 30.163 1064.14 28.1376 Q1067.79 26.1121 1072.52 26.1121 Q1080.34 26.1121 1084.35 30.9732 Q1088.36 35.7938 1088.36 45.1919 Z" fill="#000000" fill-rule="nonzero" fill-opacity="1" /><path clip-path="url(#clip350)" d="M1166.18 14.0809 L1166.18 22.0612 Q1161.52 19.8332 1157.39 18.7395 Q1153.26 17.6457 1149.41 17.6457 Q1142.73 17.6457 1139.08 20.2383 Q1135.48 22.8309 1135.48 27.611 Q1135.48 31.6214 1137.87 33.6873 Q1140.3 35.7128 1147.02 36.9686 L1151.96 37.9813 Q1161.12 39.7232 1165.45 44.1387 Q1169.83 48.5136 1169.83 55.8863 Q1169.83 64.6767 1163.91 69.2137 Q1158.04 73.7508 1146.66 73.7508 Q1142.36 73.7508 1137.5 72.7785 Q1132.68 71.8063 1127.5 69.9024 L1127.5 61.4765 Q1132.48 64.2716 1137.26 65.6895 Q1142.04 67.1073 1146.66 67.1073 Q1153.66 67.1073 1157.47 64.3527 Q1161.28 61.598 1161.28 56.4939 Q1161.28 52.0379 1158.53 49.5264 Q1155.81 47.0148 1149.57 45.759 L1144.59 44.7868 Q1135.44 42.9639 1131.34 39.075 Q1127.25 35.1862 1127.25 28.2591 Q1127.25 20.2383 1132.88 15.6203 Q1138.55 11.0023 1148.48 11.0023 Q1152.73 11.0023 1157.15 11.7719 Q1161.56 12.5416 1166.18 14.0809 Z" fill="#000000" fill-rule="nonzero" fill-opacity="1" /><path clip-path="url(#clip350)" d="M1186.72 49.9314 Q1186.72 58.1548 1190.08 62.8538 Q1193.48 67.5124 1199.4 67.5124 Q1205.31 67.5124 1208.72 62.8538 Q1212.12 58.1548 1212.12 49.9314 Q1212.12 41.7081 1208.72 37.0496 Q1205.31 32.3505 1199.4 32.3505 Q1193.48 32.3505 1190.08 37.0496 Q1186.72 41.7081 1186.72 49.9314 M1212.12 65.7705 Q1209.77 69.8214 1206.16 71.8063 Q1202.6 73.7508 1197.58 73.7508 Q1189.35 73.7508 1184.17 67.1883 Q1179.02 60.6258 1179.02 49.9314 Q1179.02 39.2371 1184.17 32.6746 Q1189.35 26.1121 1197.58 26.1121 Q1202.6 26.1121 1206.16 28.0971 Q1209.77 30.0415 1212.12 34.0924 L1212.12 27.2059 L1219.57 27.2059 L1219.57 89.8329 L1212.12 89.8329 L1212.12 65.7705 Z" fill="#000000" fill-rule="nonzero" fill-opacity="1" /><path clip-path="url(#clip350)" d="M1234.16 54.671 L1234.16 27.2059 L1241.61 27.2059 L1241.61 54.3874 Q1241.61 60.8284 1244.12 64.0691 Q1246.63 67.2693 1251.66 67.2693 Q1257.69 67.2693 1261.18 63.421 Q1264.7 59.5726 1264.7 52.9291 L1264.7 27.2059 L1272.15 27.2059 L1272.15 72.576 L1264.7 72.576 L1264.7 65.6084 Q1261.99 69.7404 1258.38 71.7658 Q1254.82 73.7508 1250.08 73.7508 Q1242.26 73.7508 1238.21 68.8897 Q1234.16 64.0286 1234.16 54.671 M1252.91 26.1121 L1252.91 26.1121 Z" fill="#000000" fill-rule="nonzero" fill-opacity="1" /><path clip-path="url(#clip350)" d="M1308.13 49.7694 Q1299.09 49.7694 1295.61 51.8354 Q1292.12 53.9013 1292.12 58.8839 Q1292.12 62.8538 1294.72 65.2034 Q1297.35 67.5124 1301.85 67.5124 Q1308.04 67.5124 1311.77 63.1374 Q1315.54 58.7219 1315.54 51.4303 L1315.54 49.7694 L1308.13 49.7694 M1322.99 46.6907 L1322.99 72.576 L1315.54 72.576 L1315.54 65.6895 Q1312.99 69.8214 1309.18 71.8063 Q1305.37 73.7508 1299.86 73.7508 Q1292.89 73.7508 1288.76 69.8619 Q1284.67 65.9325 1284.67 59.3701 Q1284.67 51.7138 1289.77 47.825 Q1294.92 43.9361 1305.09 43.9361 L1315.54 43.9361 L1315.54 43.2069 Q1315.54 38.0623 1312.14 35.2672 Q1308.77 32.4315 1302.66 32.4315 Q1298.77 32.4315 1295.08 33.3632 Q1291.39 34.295 1287.99 36.1584 L1287.99 29.2718 Q1292.08 27.692 1295.93 26.9223 Q1299.78 26.1121 1303.43 26.1121 Q1313.27 26.1121 1318.13 31.2163 Q1322.99 36.3204 1322.99 46.6907 Z" fill="#000000" fill-rule="nonzero" fill-opacity="1" /><path clip-path="url(#clip350)" d="M1364.64 34.1734 Q1363.38 33.4443 1361.88 33.1202 Q1360.42 32.7556 1358.64 32.7556 Q1352.32 32.7556 1348.92 36.8875 Q1345.56 40.9789 1345.56 48.6757 L1345.56 72.576 L1338.06 72.576 L1338.06 27.2059 L1345.56 27.2059 L1345.56 34.2544 Q1347.91 30.1225 1351.67 28.1376 Q1355.44 26.1121 1360.83 26.1121 Q1361.6 26.1121 1362.53 26.2337 Q1363.46 26.3147 1364.59 26.5172 L1364.64 34.1734 Z" fill="#000000" fill-rule="nonzero" fill-opacity="1" /><path clip-path="url(#clip350)" d="M1409.44 48.0275 L1409.44 51.6733 L1375.17 51.6733 Q1375.65 59.3701 1379.79 63.421 Q1383.96 67.4314 1391.37 67.4314 Q1395.67 67.4314 1399.68 66.3781 Q1403.73 65.3249 1407.7 63.2184 L1407.7 70.267 Q1403.69 71.9684 1399.47 72.8596 Q1395.26 73.7508 1390.93 73.7508 Q1380.07 73.7508 1373.71 67.4314 Q1367.39 61.1119 1367.39 50.3365 Q1367.39 39.1965 1373.39 32.6746 Q1379.42 26.1121 1389.63 26.1121 Q1398.78 26.1121 1404.09 32.0264 Q1409.44 37.9003 1409.44 48.0275 M1401.98 45.84 Q1401.9 39.7232 1398.54 36.0774 Q1395.22 32.4315 1389.71 32.4315 Q1383.47 32.4315 1379.7 35.9558 Q1375.98 39.4801 1375.41 45.8805 L1401.98 45.84 Z" fill="#000000" fill-rule="nonzero" fill-opacity="1" /><path clip-path="url(#clip350)" d="M1451.53 34.0924 L1451.53 9.54393 L1458.98 9.54393 L1458.98 72.576 L1451.53 72.576 L1451.53 65.7705 Q1449.18 69.8214 1445.57 71.8063 Q1442.01 73.7508 1436.98 73.7508 Q1428.76 73.7508 1423.58 67.1883 Q1418.43 60.6258 1418.43 49.9314 Q1418.43 39.2371 1423.58 32.6746 Q1428.76 26.1121 1436.98 26.1121 Q1442.01 26.1121 1445.57 28.0971 Q1449.18 30.0415 1451.53 34.0924 M1426.13 49.9314 Q1426.13 58.1548 1429.49 62.8538 Q1432.89 67.5124 1438.81 67.5124 Q1444.72 67.5124 1448.12 62.8538 Q1451.53 58.1548 1451.53 49.9314 Q1451.53 41.7081 1448.12 37.0496 Q1444.72 32.3505 1438.81 32.3505 Q1432.89 32.3505 1429.49 37.0496 Q1426.13 41.7081 1426.13 49.9314 Z" fill="#000000" fill-rule="nonzero" fill-opacity="1" /><path clip-path="url(#clip350)" d="M1501.03 12.096 L1539.27 12.096 L1539.27 18.9825 L1509.21 18.9825 L1509.21 36.8875 L1538.01 36.8875 L1538.01 43.7741 L1509.21 43.7741 L1509.21 65.6895 L1540 65.6895 L1540 72.576 L1501.03 72.576 L1501.03 12.096 Z" fill="#000000" fill-rule="nonzero" fill-opacity="1" /><path clip-path="url(#clip350)" d="M1579.41 34.1734 Q1578.16 33.4443 1576.66 33.1202 Q1575.2 32.7556 1573.42 32.7556 Q1567.1 32.7556 1563.7 36.8875 Q1560.33 40.9789 1560.33 48.6757 L1560.33 72.576 L1552.84 72.576 L1552.84 27.2059 L1560.33 27.2059 L1560.33 34.2544 Q1562.68 30.1225 1566.45 28.1376 Q1570.22 26.1121 1575.61 26.1121 Q1576.38 26.1121 1577.31 26.2337 Q1578.24 26.3147 1579.37 26.5172 L1579.41 34.1734 Z" fill="#000000" fill-rule="nonzero" fill-opacity="1" /><path clip-path="url(#clip350)" d="M1612.06 34.1734 Q1610.81 33.4443 1609.31 33.1202 Q1607.85 32.7556 1606.07 32.7556 Q1599.75 32.7556 1596.35 36.8875 Q1592.98 40.9789 1592.98 48.6757 L1592.98 72.576 L1585.49 72.576 L1585.49 27.2059 L1592.98 27.2059 L1592.98 34.2544 Q1595.33 30.1225 1599.1 28.1376 Q1602.87 26.1121 1608.26 26.1121 Q1609.03 26.1121 1609.96 26.2337 Q1610.89 26.3147 1612.02 26.5172 L1612.06 34.1734 Z" fill="#000000" fill-rule="nonzero" fill-opacity="1" /><path clip-path="url(#clip350)" d="M1635.64 32.4315 Q1629.65 32.4315 1626.16 37.1306 Q1622.68 41.7891 1622.68 49.9314 Q1622.68 58.0738 1626.12 62.7728 Q1629.6 67.4314 1635.64 67.4314 Q1641.6 67.4314 1645.08 62.7323 Q1648.56 58.0333 1648.56 49.9314 Q1648.56 41.8701 1645.08 37.1711 Q1641.6 32.4315 1635.64 32.4315 M1635.64 26.1121 Q1645.36 26.1121 1650.91 32.4315 Q1656.46 38.7509 1656.46 49.9314 Q1656.46 61.0714 1650.91 67.4314 Q1645.36 73.7508 1635.64 73.7508 Q1625.88 73.7508 1620.33 67.4314 Q1614.82 61.0714 1614.82 49.9314 Q1614.82 38.7509 1620.33 32.4315 Q1625.88 26.1121 1635.64 26.1121 Z" fill="#000000" fill-rule="nonzero" fill-opacity="1" /><path clip-path="url(#clip350)" d="M1695.11 34.1734 Q1693.85 33.4443 1692.35 33.1202 Q1690.9 32.7556 1689.11 32.7556 Q1682.79 32.7556 1679.39 36.8875 Q1676.03 40.9789 1676.03 48.6757 L1676.03 72.576 L1668.53 72.576 L1668.53 27.2059 L1676.03 27.2059 L1676.03 34.2544 Q1678.38 30.1225 1682.15 28.1376 Q1685.91 26.1121 1691.3 26.1121 Q1692.07 26.1121 1693 26.2337 Q1693.93 26.3147 1695.07 26.5172 L1695.11 34.1734 Z" fill="#000000" fill-rule="nonzero" fill-opacity="1" /><polyline clip-path="url(#clip352)" style="stroke:#009af9; stroke-linecap:round; stroke-linejoin:round; stroke-width:4; stroke-opacity:1; fill:none" points="280.231,274.827 309.393,213.093 338.555,277.014 367.716,197.984 396.878,274.163 426.04,306.764 455.202,255.932 484.363,285.344 513.525,231.938 542.687,360.536 571.848,270.037 601.01,326.252 630.172,237.727 659.334,273.065 688.495,224.245 717.657,221.083 746.819,180.617 775.981,223.132 805.142,191.544 834.304,218.795 863.466,232.422 892.628,232.509 921.789,232.749 950.951,201.009 980.113,208.228 1009.27,247.401 1038.44,197.633 1067.6,220.173 1096.76,160.256 1125.92,182.992 1155.08,200.325 1184.24,298.184 1213.41,297.83 1242.57,260.741 1271.73,346.966 1300.89,247.999 1330.05,254.391 1359.22,314.485 1388.38,305.064 1417.54,339.381 1446.7,218.533 1475.86,309.994 1505.02,302.731 1534.19,264.375 1563.35,272.254 1592.51,308.719 1621.67,260.424 1650.83,233.07 1679.99,204.508 1709.16,223.198 1738.32,180.83 1767.48,240.345 1796.64,238.538 1825.8,257.442 1854.97,260.374 1884.13,167.85 1913.29,352.155 1942.45,304.971 1971.61,245.274 2000.77,236.345 2029.94,281.802 2059.1,251.012 2088.26,196.834 2117.42,197.199 2146.58,187.843 2175.74,181.994 2204.91,223.879 2234.07,236.69 2263.23,215.498 2292.39,195.598 "/>
<polyline clip-path="url(#clip352)" style="stroke:#e26f46; stroke-linecap:round; stroke-linejoin:round; stroke-width:4; stroke-opacity:1; fill:none" points="280.231,1122.77 309.393,1108.11 338.555,1155.97 367.716,1023.34 396.878,1103.62 426.04,1122.19 455.202,1053.57 484.363,1285.21 513.525,1085.76 542.687,1206.37 571.848,1155.71 601.01,1247 630.172,1305.46 659.334,1233.73 688.495,1302.64 717.657,1172.24 746.819,1143.88 775.981,1195.01 805.142,1172.77 834.304,1176.12 863.466,992.221 892.628,1200.61 921.789,1265.09 950.951,1293.73 980.113,1356.18 1009.27,1357.97 1038.44,1287.63 1067.6,1232.94 1096.76,1350.25 1125.92,1254.14 1155.08,922.396 1184.24,1145.41 1213.41,1102.09 1242.57,1170 1271.73,1191.37 1300.89,1056.65 1330.05,1052.41 1359.22,1257.95 1388.38,1297.63 1417.54,1283.44 1446.7,1256.83 1475.86,1256.49 1505.02,1232.36 1534.19,1293.35 1563.35,1296.92 1592.51,1177.93 1621.67,999.175 1650.83,1001.9 1679.99,1257.71 1709.16,1201.03 1738.32,1126.26 1767.48,1015.83 1796.64,1115.36 1825.8,1353.97 1854.97,1289.83 1884.13,1263.68 1913.29,1327.74 1942.45,1284.43 1971.61,1318.87 2000.77,1309.4 2029.94,195.349 2059.1,588.234 2088.26,237.78 2117.42,162.59 2146.58,192.174 2175.74,196.062 2204.91,250.346 2234.07,199.226 2263.23,252.912 2292.39,177.391 "/>
<polyline clip-path="url(#clip352)" style="stroke:#3da44d; stroke-linecap:round; stroke-linejoin:round; stroke-width:4; stroke-opacity:1; fill:none" points="280.231,1096.8 309.393,1051.03 338.555,1186.52 367.716,1057.71 396.878,1069.72 426.04,1066.53 455.202,1111.6 484.363,1282.87 513.525,1042.43 542.687,1182.91 571.848,1181.89 601.01,1228.03 630.172,1284.91 659.334,1239.2 688.495,1345.66 717.657,1142.16 746.819,1165.54 775.981,1264.04 805.142,1198.8 834.304,1222.99 863.466,970.127 892.628,1238.76 921.789,1258.44 950.951,1338.58 980.113,1369.03 1009.27,1386.4 1038.44,1341.96 1067.6,1276.27 1096.76,1350.68 1125.92,1200.45 1155.08,947.432 1184.24,1118.63 1213.41,1086.47 1242.57,1215.23 1271.73,1207.99 1300.89,1124.43 1330.05,1078.41 1359.22,1317.58 1388.38,1277.92 1417.54,1333.43 1446.7,1293.55 1475.86,1265.3 1505.02,1189.42 1534.19,1328.6 1563.35,1275.95 1592.51,1122.11 1621.67,959.606 1650.83,1056.47 1679.99,1316.91 1709.16,1231.68 1738.32,1086.65 1767.48,1147.94 1796.64,1045.74 1825.8,1349.31 1854.97,1300.59 1884.13,1273.24 1913.29,1335.89 1942.45,1301 1971.61,1339.64 2000.77,1325.51 2029.94,247.572 2059.1,796.093 2088.26,353.834 2117.42,203.435 2146.58,192.802 2175.74,192.963 2204.91,396.305 2234.07,273.597 2263.23,562.905 2292.39,165.802 "/>
<path clip-path="url(#clip350)" d="M1954.16 1379.86 L2281.66 1379.86 L2281.66 1172.5 L1954.16 1172.5  Z" fill="#ffffff" fill-rule="evenodd" fill-opacity="1"/>
<polyline clip-path="url(#clip350)" style="stroke:#000000; stroke-linecap:round; stroke-linejoin:round; stroke-width:4; stroke-opacity:1; fill:none" points="1954.16,1379.86 2281.66,1379.86 2281.66,1172.5 1954.16,1172.5 1954.16,1379.86 "/>
<polyline clip-path="url(#clip350)" style="stroke:#009af9; stroke-linecap:round; stroke-linejoin:round; stroke-width:4; stroke-opacity:1; fill:none" points="1977.86,1224.34 2120.05,1224.34 "/>
<path clip-path="url(#clip350)" d="M2151.16 1208.33 L2151.16 1215.69 L2159.93 1215.69 L2159.93 1219 L2151.16 1219 L2151.16 1233.07 Q2151.16 1236.25 2152.01 1237.15 Q2152.89 1238.05 2155.55 1238.05 L2159.93 1238.05 L2159.93 1241.62 L2155.55 1241.62 Q2150.62 1241.62 2148.75 1239.79 Q2146.87 1237.94 2146.87 1233.07 L2146.87 1219 L2143.75 1219 L2143.75 1215.69 L2146.87 1215.69 L2146.87 1208.33 L2151.16 1208.33 Z" fill="#000000" fill-rule="nonzero" fill-opacity="1" /><path clip-path="url(#clip350)" d="M2166.09 1220.09 L2195.76 1220.09 L2195.76 1223.98 L2166.09 1223.98 L2166.09 1220.09 M2166.09 1229.53 L2195.76 1229.53 L2195.76 1233.47 L2166.09 1233.47 L2166.09 1229.53 Z" fill="#000000" fill-rule="nonzero" fill-opacity="1" /><path clip-path="url(#clip350)" d="M2206.66 1237.68 L2214.3 1237.68 L2214.3 1211.32 L2205.99 1212.98 L2205.99 1208.72 L2214.26 1207.06 L2218.93 1207.06 L2218.93 1237.68 L2226.57 1237.68 L2226.57 1241.62 L2206.66 1241.62 L2206.66 1237.68 Z" fill="#000000" fill-rule="nonzero" fill-opacity="1" /><polyline clip-path="url(#clip350)" style="stroke:#e26f46; stroke-linecap:round; stroke-linejoin:round; stroke-width:4; stroke-opacity:1; fill:none" points="1977.86,1276.18 2120.05,1276.18 "/>
<path clip-path="url(#clip350)" d="M2151.16 1260.17 L2151.16 1267.53 L2159.93 1267.53 L2159.93 1270.84 L2151.16 1270.84 L2151.16 1284.91 Q2151.16 1288.09 2152.01 1288.99 Q2152.89 1289.89 2155.55 1289.89 L2159.93 1289.89 L2159.93 1293.46 L2155.55 1293.46 Q2150.62 1293.46 2148.75 1291.63 Q2146.87 1289.78 2146.87 1284.91 L2146.87 1270.84 L2143.75 1270.84 L2143.75 1267.53 L2146.87 1267.53 L2146.87 1260.17 L2151.16 1260.17 Z" fill="#000000" fill-rule="nonzero" fill-opacity="1" /><path clip-path="url(#clip350)" d="M2166.09 1271.93 L2195.76 1271.93 L2195.76 1275.82 L2166.09 1275.82 L2166.09 1271.93 M2166.09 1281.37 L2195.76 1281.37 L2195.76 1285.31 L2166.09 1285.31 L2166.09 1281.37 Z" fill="#000000" fill-rule="nonzero" fill-opacity="1" /><path clip-path="url(#clip350)" d="M2205.9 1258.9 L2224.26 1258.9 L2224.26 1262.83 L2210.18 1262.83 L2210.18 1271.3 Q2211.2 1270.96 2212.22 1270.79 Q2213.24 1270.61 2214.26 1270.61 Q2220.04 1270.61 2223.42 1273.78 Q2226.8 1276.95 2226.8 1282.37 Q2226.8 1287.95 2223.33 1291.05 Q2219.86 1294.13 2213.54 1294.13 Q2211.36 1294.13 2209.1 1293.76 Q2206.85 1293.39 2204.44 1292.65 L2204.44 1287.95 Q2206.53 1289.08 2208.75 1289.64 Q2210.97 1290.19 2213.45 1290.19 Q2217.45 1290.19 2219.79 1288.09 Q2222.13 1285.98 2222.13 1282.37 Q2222.13 1278.76 2219.79 1276.65 Q2217.45 1274.54 2213.45 1274.54 Q2211.57 1274.54 2209.7 1274.96 Q2207.85 1275.38 2205.9 1276.26 L2205.9 1258.9 Z" fill="#000000" fill-rule="nonzero" fill-opacity="1" /><polyline clip-path="url(#clip350)" style="stroke:#3da44d; stroke-linecap:round; stroke-linejoin:round; stroke-width:4; stroke-opacity:1; fill:none" points="1977.86,1328.02 2120.05,1328.02 "/>
<path clip-path="url(#clip350)" d="M2151.16 1312.01 L2151.16 1319.37 L2159.93 1319.37 L2159.93 1322.68 L2151.16 1322.68 L2151.16 1336.75 Q2151.16 1339.93 2152.01 1340.83 Q2152.89 1341.73 2155.55 1341.73 L2159.93 1341.73 L2159.93 1345.3 L2155.55 1345.3 Q2150.62 1345.3 2148.75 1343.47 Q2146.87 1341.62 2146.87 1336.75 L2146.87 1322.68 L2143.75 1322.68 L2143.75 1319.37 L2146.87 1319.37 L2146.87 1312.01 L2151.16 1312.01 Z" fill="#000000" fill-rule="nonzero" fill-opacity="1" /><path clip-path="url(#clip350)" d="M2166.09 1323.77 L2195.76 1323.77 L2195.76 1327.66 L2166.09 1327.66 L2166.09 1323.77 M2166.09 1333.21 L2195.76 1333.21 L2195.76 1337.15 L2166.09 1337.15 L2166.09 1333.21 Z" fill="#000000" fill-rule="nonzero" fill-opacity="1" /><path clip-path="url(#clip350)" d="M2206.66 1341.36 L2214.3 1341.36 L2214.3 1315 L2205.99 1316.66 L2205.99 1312.4 L2214.26 1310.74 L2218.93 1310.74 L2218.93 1341.36 L2226.57 1341.36 L2226.57 1345.3 L2206.66 1345.3 L2206.66 1341.36 Z" fill="#000000" fill-rule="nonzero" fill-opacity="1" /><path clip-path="url(#clip350)" d="M2246.02 1313.81 Q2242.41 1313.81 2240.58 1317.38 Q2238.77 1320.92 2238.77 1328.05 Q2238.77 1335.16 2240.58 1338.72 Q2242.41 1342.26 2246.02 1342.26 Q2249.65 1342.26 2251.46 1338.72 Q2253.28 1335.16 2253.28 1328.05 Q2253.28 1320.92 2251.46 1317.38 Q2249.65 1313.81 2246.02 1313.81 M2246.02 1310.11 Q2251.83 1310.11 2254.88 1314.72 Q2257.96 1319.3 2257.96 1328.05 Q2257.96 1336.78 2254.88 1341.38 Q2251.83 1345.97 2246.02 1345.97 Q2240.21 1345.97 2237.13 1341.38 Q2234.07 1336.78 2234.07 1328.05 Q2234.07 1319.3 2237.13 1314.72 Q2240.21 1310.11 2246.02 1310.11 Z" fill="#000000" fill-rule="nonzero" fill-opacity="1" /></svg>
