<?xml version="1.0" encoding="utf-8"?>
<svg xmlns="http://www.w3.org/2000/svg" xmlns:xlink="http://www.w3.org/1999/xlink" width="600" height="400" viewBox="0 0 2400 1600">
<defs>
  <clipPath id="clip540">
    <rect x="0" y="0" width="2400" height="1600"/>
  </clipPath>
</defs>
<path clip-path="url(#clip540)" d="M0 1600 L2400 1600 L2400 8.88178e-14 L0 8.88178e-14  Z" fill="#ffffff" fill-rule="evenodd" fill-opacity="1"/>
<defs>
  <clipPath id="clip541">
    <rect x="480" y="0" width="1681" height="1600"/>
  </clipPath>
</defs>
<path clip-path="url(#clip540)" d="M219.866 1423.18 L2352.76 1423.18 L2352.76 123.472 L219.866 123.472  Z" fill="#ffffff" fill-rule="evenodd" fill-opacity="1"/>
<defs>
  <clipPath id="clip542">
    <rect x="219" y="123" width="2134" height="1301"/>
  </clipPath>
</defs>
<polyline clip-path="url(#clip542)" style="stroke:#000000; stroke-linecap:round; stroke-linejoin:round; stroke-width:2; stroke-opacity:0.1; fill:none" points="251.069,1423.18 251.069,123.472 "/>
<polyline clip-path="url(#clip542)" style="stroke:#000000; stroke-linecap:round; stroke-linejoin:round; stroke-width:2; stroke-opacity:0.1; fill:none" points="834.304,1423.18 834.304,123.472 "/>
<polyline clip-path="url(#clip542)" style="stroke:#000000; stroke-linecap:round; stroke-linejoin:round; stroke-width:2; stroke-opacity:0.1; fill:none" points="1417.54,1423.18 1417.54,123.472 "/>
<polyline clip-path="url(#clip542)" style="stroke:#000000; stroke-linecap:round; stroke-linejoin:round; stroke-width:2; stroke-opacity:0.1; fill:none" points="2000.77,1423.18 2000.77,123.472 "/>
<polyline clip-path="url(#clip540)" style="stroke:#000000; stroke-linecap:round; stroke-linejoin:round; stroke-width:4; stroke-opacity:1; fill:none" points="219.866,1423.18 2352.76,1423.18 "/>
<polyline clip-path="url(#clip540)" style="stroke:#000000; stroke-linecap:round; stroke-linejoin:round; stroke-width:4; stroke-opacity:1; fill:none" points="251.069,1423.18 251.069,1404.28 "/>
<polyline clip-path="url(#clip540)" style="stroke:#000000; stroke-linecap:round; stroke-linejoin:round; stroke-width:4; stroke-opacity:1; fill:none" points="834.304,1423.18 834.304,1404.28 "/>
<polyline clip-path="url(#clip540)" style="stroke:#000000; stroke-linecap:round; stroke-linejoin:round; stroke-width:4; stroke-opacity:1; fill:none" points="1417.54,1423.18 1417.54,1404.28 "/>
<polyline clip-path="url(#clip540)" style="stroke:#000000; stroke-linecap:round; stroke-linejoin:round; stroke-width:4; stroke-opacity:1; fill:none" points="2000.77,1423.18 2000.77,1404.28 "/>
<path clip-path="url(#clip540)" d="M251.069 1454.1 Q247.458 1454.1 245.63 1457.66 Q243.824 1461.2 243.824 1468.33 Q243.824 1475.44 245.63 1479.01 Q247.458 1482.55 251.069 1482.55 Q254.704 1482.55 256.509 1479.01 Q258.338 1475.44 258.338 1468.33 Q258.338 1461.2 256.509 1457.66 Q254.704 1454.1 251.069 1454.1 M251.069 1450.39 Q256.879 1450.39 259.935 1455 Q263.014 1459.58 263.014 1468.33 Q263.014 1477.06 259.935 1481.67 Q256.879 1486.25 251.069 1486.25 Q245.259 1486.25 242.18 1481.67 Q239.125 1477.06 239.125 1468.33 Q239.125 1459.58 242.18 1455 Q245.259 1450.39 251.069 1450.39 Z" fill="#000000" fill-rule="nonzero" fill-opacity="1" /><path clip-path="url(#clip540)" d="M813.077 1481.64 L829.397 1481.64 L829.397 1485.58 L807.452 1485.58 L807.452 1481.64 Q810.114 1478.89 814.698 1474.26 Q819.304 1469.61 820.485 1468.27 Q822.73 1465.74 823.61 1464.01 Q824.513 1462.25 824.513 1460.56 Q824.513 1457.8 822.568 1456.07 Q820.647 1454.33 817.545 1454.33 Q815.346 1454.33 812.892 1455.09 Q810.462 1455.86 807.684 1457.41 L807.684 1452.69 Q810.508 1451.55 812.962 1450.97 Q815.415 1450.39 817.452 1450.39 Q822.823 1450.39 826.017 1453.08 Q829.212 1455.77 829.212 1460.26 Q829.212 1462.39 828.401 1464.31 Q827.614 1466.2 825.508 1468.8 Q824.929 1469.47 821.827 1472.69 Q818.726 1475.88 813.077 1481.64 Z" fill="#000000" fill-rule="nonzero" fill-opacity="1" /><path clip-path="url(#clip540)" d="M849.211 1454.1 Q845.6 1454.1 843.772 1457.66 Q841.966 1461.2 841.966 1468.33 Q841.966 1475.44 843.772 1479.01 Q845.6 1482.55 849.211 1482.55 Q852.846 1482.55 854.651 1479.01 Q856.48 1475.44 856.48 1468.33 Q856.48 1461.2 854.651 1457.66 Q852.846 1454.1 849.211 1454.1 M849.211 1450.39 Q855.022 1450.39 858.077 1455 Q861.156 1459.58 861.156 1468.33 Q861.156 1477.06 858.077 1481.67 Q855.022 1486.25 849.211 1486.25 Q843.401 1486.25 840.323 1481.67 Q837.267 1477.06 837.267 1468.33 Q837.267 1459.58 840.323 1455 Q843.401 1450.39 849.211 1450.39 Z" fill="#000000" fill-rule="nonzero" fill-opacity="1" /><path clip-path="url(#clip540)" d="M1405.71 1455.09 L1393.9 1473.54 L1405.71 1473.54 L1405.71 1455.09 M1404.48 1451.02 L1410.36 1451.02 L1410.36 1473.54 L1415.29 1473.54 L1415.29 1477.43 L1410.36 1477.43 L1410.36 1485.58 L1405.71 1485.58 L1405.71 1477.43 L1390.11 1477.43 L1390.11 1472.92 L1404.48 1451.02 Z" fill="#000000" fill-rule="nonzero" fill-opacity="1" /><path clip-path="url(#clip540)" d="M1433.02 1454.1 Q1429.41 1454.1 1427.59 1457.66 Q1425.78 1461.2 1425.78 1468.33 Q1425.78 1475.44 1427.59 1479.01 Q1429.41 1482.55 1433.02 1482.55 Q1436.66 1482.55 1438.46 1479.01 Q1440.29 1475.44 1440.29 1468.33 Q1440.29 1461.2 1438.46 1457.66 Q1436.66 1454.1 1433.02 1454.1 M1433.02 1450.39 Q1438.84 1450.39 1441.89 1455 Q1444.97 1459.58 1444.97 1468.33 Q1444.97 1477.06 1441.89 1481.67 Q1438.84 1486.25 1433.02 1486.25 Q1427.21 1486.25 1424.14 1481.67 Q1421.08 1477.06 1421.08 1468.33 Q1421.08 1459.58 1424.14 1455 Q1427.21 1450.39 1433.02 1450.39 Z" fill="#000000" fill-rule="nonzero" fill-opacity="1" /><path clip-path="url(#clip540)" d="M1986.18 1466.44 Q1983.03 1466.44 1981.18 1468.59 Q1979.35 1470.74 1979.35 1474.49 Q1979.35 1478.22 1981.18 1480.39 Q1983.03 1482.55 1986.18 1482.55 Q1989.33 1482.55 1991.16 1480.39 Q1993.01 1478.22 1993.01 1474.49 Q1993.01 1470.74 1991.16 1468.59 Q1989.33 1466.44 1986.18 1466.44 M1995.46 1451.78 L1995.46 1456.04 Q1993.7 1455.21 1991.9 1454.77 Q1990.11 1454.33 1988.35 1454.33 Q1983.73 1454.33 1981.27 1457.45 Q1978.84 1460.58 1978.49 1466.9 Q1979.86 1464.89 1981.92 1463.82 Q1983.98 1462.73 1986.46 1462.73 Q1991.66 1462.73 1994.67 1465.9 Q1997.71 1469.05 1997.71 1474.49 Q1997.71 1479.82 1994.56 1483.03 Q1991.41 1486.25 1986.18 1486.25 Q1980.18 1486.25 1977.01 1481.67 Q1973.84 1477.06 1973.84 1468.33 Q1973.84 1460.14 1977.73 1455.28 Q1981.62 1450.39 1988.17 1450.39 Q1989.93 1450.39 1991.71 1450.74 Q1993.52 1451.09 1995.46 1451.78 Z" fill="#000000" fill-rule="nonzero" fill-opacity="1" /><path clip-path="url(#clip540)" d="M2015.76 1454.1 Q2012.15 1454.1 2010.32 1457.66 Q2008.52 1461.2 2008.52 1468.33 Q2008.52 1475.44 2010.32 1479.01 Q2012.15 1482.55 2015.76 1482.55 Q2019.4 1482.55 2021.2 1479.01 Q2023.03 1475.44 2023.03 1468.33 Q2023.03 1461.2 2021.2 1457.66 Q2019.4 1454.1 2015.76 1454.1 M2015.76 1450.39 Q2021.57 1450.39 2024.63 1455 Q2027.71 1459.58 2027.71 1468.33 Q2027.71 1477.06 2024.63 1481.67 Q2021.57 1486.25 2015.76 1486.25 Q2009.95 1486.25 2006.87 1481.67 Q2003.82 1477.06 2003.82 1468.33 Q2003.82 1459.58 2006.87 1455 Q2009.95 1450.39 2015.76 1450.39 Z" fill="#000000" fill-rule="nonzero" fill-opacity="1" /><path clip-path="url(#clip540)" d="M1150.96 1520.52 L1178.27 1520.52 L1178.27 1525.93 L1157.39 1525.93 L1157.39 1539.94 L1176.23 1539.94 L1176.23 1545.35 L1157.39 1545.35 L1157.39 1568.04 L1150.96 1568.04 L1150.96 1520.52 Z" fill="#000000" fill-rule="nonzero" fill-opacity="1" /><path clip-path="url(#clip540)" d="M1215.13 1548.76 L1215.13 1551.62 L1188.2 1551.62 Q1188.58 1557.67 1191.83 1560.85 Q1195.11 1564 1200.93 1564 Q1204.3 1564 1207.46 1563.17 Q1210.64 1562.35 1213.76 1560.69 L1213.76 1566.23 Q1210.61 1567.57 1207.3 1568.27 Q1203.99 1568.97 1200.58 1568.97 Q1192.05 1568.97 1187.05 1564 Q1182.09 1559.04 1182.09 1550.57 Q1182.09 1541.82 1186.8 1536.69 Q1191.54 1531.54 1199.56 1531.54 Q1206.76 1531.54 1210.93 1536.18 Q1215.13 1540.8 1215.13 1548.76 M1209.27 1547.04 Q1209.21 1542.23 1206.56 1539.37 Q1203.95 1536.5 1199.63 1536.5 Q1194.72 1536.5 1191.76 1539.27 Q1188.84 1542.04 1188.39 1547.07 L1209.27 1547.04 Z" fill="#000000" fill-rule="nonzero" fill-opacity="1" /><path clip-path="url(#clip540)" d="M1240.94 1550.12 Q1233.84 1550.12 1231.1 1551.75 Q1228.37 1553.37 1228.37 1557.29 Q1228.37 1560.4 1230.4 1562.25 Q1232.47 1564.07 1236.01 1564.07 Q1240.88 1564.07 1243.8 1560.63 Q1246.76 1557.16 1246.76 1551.43 L1246.76 1550.12 L1240.94 1550.12 M1252.62 1547.71 L1252.62 1568.04 L1246.76 1568.04 L1246.76 1562.63 Q1244.76 1565.88 1241.77 1567.44 Q1238.78 1568.97 1234.45 1568.97 Q1228.97 1568.97 1225.73 1565.91 Q1222.51 1562.82 1222.51 1557.67 Q1222.51 1551.65 1226.52 1548.6 Q1230.56 1545.54 1238.55 1545.54 L1246.76 1545.54 L1246.76 1544.97 Q1246.76 1540.93 1244.09 1538.73 Q1241.45 1536.5 1236.64 1536.5 Q1233.59 1536.5 1230.69 1537.23 Q1227.79 1537.97 1225.12 1539.43 L1225.12 1534.02 Q1228.34 1532.78 1231.36 1532.17 Q1234.38 1531.54 1237.25 1531.54 Q1244.98 1531.54 1248.8 1535.55 Q1252.62 1539.56 1252.62 1547.71 Z" fill="#000000" fill-rule="nonzero" fill-opacity="1" /><path clip-path="url(#clip540)" d="M1270.48 1522.27 L1270.48 1532.4 L1282.54 1532.4 L1282.54 1536.95 L1270.48 1536.95 L1270.48 1556.3 Q1270.48 1560.66 1271.65 1561.9 Q1272.86 1563.14 1276.52 1563.14 L1282.54 1563.14 L1282.54 1568.04 L1276.52 1568.04 Q1269.74 1568.04 1267.17 1565.53 Q1264.59 1562.98 1264.59 1556.3 L1264.59 1536.95 L1260.29 1536.95 L1260.29 1532.4 L1264.59 1532.4 L1264.59 1522.27 L1270.48 1522.27 Z" fill="#000000" fill-rule="nonzero" fill-opacity="1" /><path clip-path="url(#clip540)" d="M1289.64 1553.98 L1289.64 1532.4 L1295.49 1532.4 L1295.49 1553.75 Q1295.49 1558.81 1297.47 1561.36 Q1299.44 1563.87 1303.39 1563.87 Q1308.13 1563.87 1310.87 1560.85 Q1313.64 1557.83 1313.64 1552.61 L1313.64 1532.4 L1319.49 1532.4 L1319.49 1568.04 L1313.64 1568.04 L1313.64 1562.57 Q1311.5 1565.82 1308.67 1567.41 Q1305.87 1568.97 1302.15 1568.97 Q1296 1568.97 1292.82 1565.15 Q1289.64 1561.33 1289.64 1553.98 M1304.37 1531.54 L1304.37 1531.54 Z" fill="#000000" fill-rule="nonzero" fill-opacity="1" /><path clip-path="url(#clip540)" d="M1352.21 1537.87 Q1351.23 1537.3 1350.05 1537.04 Q1348.9 1536.76 1347.5 1536.76 Q1342.54 1536.76 1339.86 1540 Q1337.22 1543.22 1337.22 1549.27 L1337.22 1568.04 L1331.33 1568.04 L1331.33 1532.4 L1337.22 1532.4 L1337.22 1537.93 Q1339.07 1534.69 1342.03 1533.13 Q1344.99 1531.54 1349.22 1531.54 Q1349.82 1531.54 1350.56 1531.63 Q1351.29 1531.7 1352.18 1531.85 L1352.21 1537.87 Z" fill="#000000" fill-rule="nonzero" fill-opacity="1" /><path clip-path="url(#clip540)" d="M1387.41 1548.76 L1387.41 1551.62 L1360.49 1551.62 Q1360.87 1557.67 1364.12 1560.85 Q1367.39 1564 1373.22 1564 Q1376.59 1564 1379.74 1563.17 Q1382.93 1562.35 1386.05 1560.69 L1386.05 1566.23 Q1382.89 1567.57 1379.58 1568.27 Q1376.27 1568.97 1372.87 1568.97 Q1364.34 1568.97 1359.34 1564 Q1354.38 1559.04 1354.38 1550.57 Q1354.38 1541.82 1359.09 1536.69 Q1363.83 1531.54 1371.85 1531.54 Q1379.04 1531.54 1383.21 1536.18 Q1387.41 1540.8 1387.41 1548.76 M1381.56 1547.04 Q1381.49 1542.23 1378.85 1539.37 Q1376.24 1536.5 1371.91 1536.5 Q1367.01 1536.5 1364.05 1539.27 Q1361.12 1542.04 1360.68 1547.07 L1381.56 1547.04 Z" fill="#000000" fill-rule="nonzero" fill-opacity="1" /><path clip-path="url(#clip540)" d="M1419.75 1533.45 L1419.75 1538.98 Q1417.27 1537.71 1414.6 1537.07 Q1411.92 1536.44 1409.06 1536.44 Q1404.7 1536.44 1402.5 1537.77 Q1400.34 1539.11 1400.34 1541.79 Q1400.34 1543.82 1401.9 1545 Q1403.46 1546.15 1408.17 1547.2 L1410.17 1547.64 Q1416.41 1548.98 1419.02 1551.43 Q1421.66 1553.85 1421.66 1558.21 Q1421.66 1563.17 1417.72 1566.07 Q1413.8 1568.97 1406.93 1568.97 Q1404.06 1568.97 1400.94 1568.39 Q1397.85 1567.85 1394.42 1566.74 L1394.42 1560.69 Q1397.66 1562.38 1400.81 1563.24 Q1403.97 1564.07 1407.05 1564.07 Q1411.19 1564.07 1413.42 1562.66 Q1415.65 1561.23 1415.65 1558.65 Q1415.65 1556.27 1414.02 1554.99 Q1412.43 1553.72 1406.99 1552.54 L1404.95 1552.07 Q1399.51 1550.92 1397.09 1548.56 Q1394.67 1546.18 1394.67 1542.04 Q1394.67 1537.01 1398.24 1534.27 Q1401.8 1531.54 1408.36 1531.54 Q1411.6 1531.54 1414.47 1532.01 Q1417.33 1532.49 1419.75 1533.45 Z" fill="#000000" fill-rule="nonzero" fill-opacity="1" /><polyline clip-path="url(#clip542)" style="stroke:#000000; stroke-linecap:round; stroke-linejoin:round; stroke-width:2; stroke-opacity:0.1; fill:none" points="219.866,1384.99 2352.76,1384.99 "/>
<polyline clip-path="url(#clip542)" style="stroke:#000000; stroke-linecap:round; stroke-linejoin:round; stroke-width:2; stroke-opacity:0.1; fill:none" points="219.866,1188.86 2352.76,1188.86 "/>
<polyline clip-path="url(#clip542)" style="stroke:#000000; stroke-linecap:round; stroke-linejoin:round; stroke-width:2; stroke-opacity:0.1; fill:none" points="219.866,992.739 2352.76,992.739 "/>
<polyline clip-path="url(#clip542)" style="stroke:#000000; stroke-linecap:round; stroke-linejoin:round; stroke-width:2; stroke-opacity:0.1; fill:none" points="219.866,796.616 2352.76,796.616 "/>
<polyline clip-path="url(#clip542)" style="stroke:#000000; stroke-linecap:round; stroke-linejoin:round; stroke-width:2; stroke-opacity:0.1; fill:none" points="219.866,600.493 2352.76,600.493 "/>
<polyline clip-path="url(#clip542)" style="stroke:#000000; stroke-linecap:round; stroke-linejoin:round; stroke-width:2; stroke-opacity:0.1; fill:none" points="219.866,404.37 2352.76,404.37 "/>
<polyline clip-path="url(#clip542)" style="stroke:#000000; stroke-linecap:round; stroke-linejoin:round; stroke-width:2; stroke-opacity:0.1; fill:none" points="219.866,208.246 2352.76,208.246 "/>
<polyline clip-path="url(#clip540)" style="stroke:#000000; stroke-linecap:round; stroke-linejoin:round; stroke-width:4; stroke-opacity:1; fill:none" points="219.866,1423.18 219.866,123.472 "/>
<polyline clip-path="url(#clip540)" style="stroke:#000000; stroke-linecap:round; stroke-linejoin:round; stroke-width:4; stroke-opacity:1; fill:none" points="219.866,1384.99 238.764,1384.99 "/>
<polyline clip-path="url(#clip540)" style="stroke:#000000; stroke-linecap:round; stroke-linejoin:round; stroke-width:4; stroke-opacity:1; fill:none" points="219.866,1188.86 238.764,1188.86 "/>
<polyline clip-path="url(#clip540)" style="stroke:#000000; stroke-linecap:round; stroke-linejoin:round; stroke-width:4; stroke-opacity:1; fill:none" points="219.866,992.739 238.764,992.739 "/>
<polyline clip-path="url(#clip540)" style="stroke:#000000; stroke-linecap:round; stroke-linejoin:round; stroke-width:4; stroke-opacity:1; fill:none" points="219.866,796.616 238.764,796.616 "/>
<polyline clip-path="url(#clip540)" style="stroke:#000000; stroke-linecap:round; stroke-linejoin:round; stroke-width:4; stroke-opacity:1; fill:none" points="219.866,600.493 238.764,600.493 "/>
<polyline clip-path="url(#clip540)" style="stroke:#000000; stroke-linecap:round; stroke-linejoin:round; stroke-width:4; stroke-opacity:1; fill:none" points="219.866,404.37 238.764,404.37 "/>
<polyline clip-path="url(#clip540)" style="stroke:#000000; stroke-linecap:round; stroke-linejoin:round; stroke-width:4; stroke-opacity:1; fill:none" points="219.866,208.246 238.764,208.246 "/>
<path clip-path="url(#clip540)" d="M127.339 1370.78 Q123.728 1370.78 121.899 1374.35 Q120.093 1377.89 120.093 1385.02 Q120.093 1392.13 121.899 1395.69 Q123.728 1399.23 127.339 1399.23 Q130.973 1399.23 132.779 1395.69 Q134.607 1392.13 134.607 1385.02 Q134.607 1377.89 132.779 1374.35 Q130.973 1370.78 127.339 1370.78 M127.339 1367.08 Q133.149 1367.08 136.204 1371.69 Q139.283 1376.27 139.283 1385.02 Q139.283 1393.75 136.204 1398.35 Q133.149 1402.94 127.339 1402.94 Q121.529 1402.94 118.45 1398.35 Q115.394 1393.75 115.394 1385.02 Q115.394 1376.27 118.45 1371.69 Q121.529 1367.08 127.339 1367.08 Z" fill="#000000" fill-rule="nonzero" fill-opacity="1" /><path clip-path="url(#clip540)" d="M147.501 1396.39 L152.385 1396.39 L152.385 1402.27 L147.501 1402.27 L147.501 1396.39 Z" fill="#000000" fill-rule="nonzero" fill-opacity="1" /><path clip-path="url(#clip540)" d="M176.737 1383.63 Q180.093 1384.35 181.968 1386.62 Q183.866 1388.89 183.866 1392.22 Q183.866 1397.33 180.348 1400.14 Q176.829 1402.94 170.348 1402.94 Q168.172 1402.94 165.857 1402.5 Q163.565 1402.08 161.112 1401.22 L161.112 1396.71 Q163.056 1397.84 165.371 1398.42 Q167.686 1399 170.209 1399 Q174.607 1399 176.899 1397.27 Q179.214 1395.53 179.214 1392.22 Q179.214 1389.16 177.061 1387.45 Q174.931 1385.71 171.112 1385.71 L167.084 1385.71 L167.084 1381.87 L171.297 1381.87 Q174.746 1381.87 176.575 1380.51 Q178.403 1379.12 178.403 1376.52 Q178.403 1373.86 176.505 1372.45 Q174.63 1371.02 171.112 1371.02 Q169.19 1371.02 166.991 1371.43 Q164.792 1371.85 162.153 1372.73 L162.153 1368.56 Q164.815 1367.82 167.13 1367.45 Q169.468 1367.08 171.528 1367.08 Q176.852 1367.08 179.954 1369.51 Q183.056 1371.92 183.056 1376.04 Q183.056 1378.91 181.413 1380.9 Q179.769 1382.87 176.737 1383.63 Z" fill="#000000" fill-rule="nonzero" fill-opacity="1" /><path clip-path="url(#clip540)" d="M126.205 1174.66 Q122.593 1174.66 120.765 1178.23 Q118.959 1181.77 118.959 1188.9 Q118.959 1196 120.765 1199.57 Q122.593 1203.11 126.205 1203.11 Q129.839 1203.11 131.644 1199.57 Q133.473 1196 133.473 1188.9 Q133.473 1181.77 131.644 1178.23 Q129.839 1174.66 126.205 1174.66 M126.205 1170.96 Q132.015 1170.96 135.07 1175.56 Q138.149 1180.15 138.149 1188.9 Q138.149 1197.62 135.07 1202.23 Q132.015 1206.81 126.205 1206.81 Q120.394 1206.81 117.316 1202.23 Q114.26 1197.62 114.26 1188.9 Q114.26 1180.15 117.316 1175.56 Q120.394 1170.96 126.205 1170.96 Z" fill="#000000" fill-rule="nonzero" fill-opacity="1" /><path clip-path="url(#clip540)" d="M146.366 1200.26 L151.251 1200.26 L151.251 1206.14 L146.366 1206.14 L146.366 1200.26 Z" fill="#000000" fill-rule="nonzero" fill-opacity="1" /><path clip-path="url(#clip540)" d="M174.283 1175.66 L162.477 1194.1 L174.283 1194.1 L174.283 1175.66 M173.056 1171.58 L178.936 1171.58 L178.936 1194.1 L183.866 1194.1 L183.866 1197.99 L178.936 1197.99 L178.936 1206.14 L174.283 1206.14 L174.283 1197.99 L158.681 1197.99 L158.681 1193.48 L173.056 1171.58 Z" fill="#000000" fill-rule="nonzero" fill-opacity="1" /><path clip-path="url(#clip540)" d="M127.686 978.538 Q124.075 978.538 122.246 982.102 Q120.441 985.644 120.441 992.774 Q120.441 999.88 122.246 1003.44 Q124.075 1006.99 127.686 1006.99 Q131.32 1006.99 133.126 1003.44 Q134.954 999.88 134.954 992.774 Q134.954 985.644 133.126 982.102 Q131.32 978.538 127.686 978.538 M127.686 974.834 Q133.496 974.834 136.552 979.44 Q139.63 984.024 139.63 992.774 Q139.63 1001.5 136.552 1006.11 Q133.496 1010.69 127.686 1010.69 Q121.876 1010.69 118.797 1006.11 Q115.742 1001.5 115.742 992.774 Q115.742 984.024 118.797 979.44 Q121.876 974.834 127.686 974.834 Z" fill="#000000" fill-rule="nonzero" fill-opacity="1" /><path clip-path="url(#clip540)" d="M147.848 1004.14 L152.732 1004.14 L152.732 1010.02 L147.848 1010.02 L147.848 1004.14 Z" fill="#000000" fill-rule="nonzero" fill-opacity="1" /><path clip-path="url(#clip540)" d="M162.964 975.459 L181.32 975.459 L181.32 979.394 L167.246 979.394 L167.246 987.866 Q168.264 987.519 169.283 987.357 Q170.302 987.172 171.32 987.172 Q177.107 987.172 180.487 990.343 Q183.866 993.514 183.866 998.931 Q183.866 1004.51 180.394 1007.61 Q176.922 1010.69 170.602 1010.69 Q168.427 1010.69 166.158 1010.32 Q163.913 1009.95 161.505 1009.21 L161.505 1004.51 Q163.589 1005.64 165.811 1006.2 Q168.033 1006.76 170.51 1006.76 Q174.514 1006.76 176.852 1004.65 Q179.19 1002.54 179.19 998.931 Q179.19 995.32 176.852 993.213 Q174.514 991.107 170.51 991.107 Q168.635 991.107 166.76 991.524 Q164.908 991.94 162.964 992.82 L162.964 975.459 Z" fill="#000000" fill-rule="nonzero" fill-opacity="1" /><path clip-path="url(#clip540)" d="M126.529 782.414 Q122.918 782.414 121.089 785.979 Q119.283 789.521 119.283 796.65 Q119.283 803.757 121.089 807.322 Q122.918 810.863 126.529 810.863 Q130.163 810.863 131.968 807.322 Q133.797 803.757 133.797 796.65 Q133.797 789.521 131.968 785.979 Q130.163 782.414 126.529 782.414 M126.529 778.711 Q132.339 778.711 135.394 783.317 Q138.473 787.901 138.473 796.65 Q138.473 805.377 135.394 809.984 Q132.339 814.567 126.529 814.567 Q120.718 814.567 117.64 809.984 Q114.584 805.377 114.584 796.65 Q114.584 787.901 117.64 783.317 Q120.718 778.711 126.529 778.711 Z" fill="#000000" fill-rule="nonzero" fill-opacity="1" /><path clip-path="url(#clip540)" d="M146.691 808.016 L151.575 808.016 L151.575 813.896 L146.691 813.896 L146.691 808.016 Z" fill="#000000" fill-rule="nonzero" fill-opacity="1" /><path clip-path="url(#clip540)" d="M172.339 794.752 Q169.19 794.752 167.339 796.905 Q165.51 799.058 165.51 802.808 Q165.51 806.535 167.339 808.711 Q169.19 810.863 172.339 810.863 Q175.487 810.863 177.315 808.711 Q179.167 806.535 179.167 802.808 Q179.167 799.058 177.315 796.905 Q175.487 794.752 172.339 794.752 M181.621 780.1 L181.621 784.359 Q179.862 783.526 178.056 783.086 Q176.274 782.646 174.514 782.646 Q169.885 782.646 167.431 785.771 Q165.001 788.896 164.653 795.215 Q166.019 793.201 168.079 792.137 Q170.139 791.049 172.616 791.049 Q177.825 791.049 180.834 794.22 Q183.866 797.368 183.866 802.808 Q183.866 808.132 180.718 811.349 Q177.57 814.567 172.339 814.567 Q166.343 814.567 163.172 809.984 Q160.001 805.377 160.001 796.65 Q160.001 788.456 163.89 783.595 Q167.778 778.711 174.329 778.711 Q176.089 778.711 177.871 779.058 Q179.676 779.405 181.621 780.1 Z" fill="#000000" fill-rule="nonzero" fill-opacity="1" /><path clip-path="url(#clip540)" d="M127.593 586.291 Q123.982 586.291 122.154 589.856 Q120.348 593.398 120.348 600.527 Q120.348 607.634 122.154 611.199 Q123.982 614.74 127.593 614.74 Q131.228 614.74 133.033 611.199 Q134.862 607.634 134.862 600.527 Q134.862 593.398 133.033 589.856 Q131.228 586.291 127.593 586.291 M127.593 582.588 Q133.404 582.588 136.459 587.194 Q139.538 591.777 139.538 600.527 Q139.538 609.254 136.459 613.861 Q133.404 618.444 127.593 618.444 Q121.783 618.444 118.705 613.861 Q115.649 609.254 115.649 600.527 Q115.649 591.777 118.705 587.194 Q121.783 582.588 127.593 582.588 Z" fill="#000000" fill-rule="nonzero" fill-opacity="1" /><path clip-path="url(#clip540)" d="M147.755 611.893 L152.64 611.893 L152.64 617.773 L147.755 617.773 L147.755 611.893 Z" fill="#000000" fill-rule="nonzero" fill-opacity="1" /><path clip-path="url(#clip540)" d="M161.644 583.213 L183.866 583.213 L183.866 585.203 L171.32 617.773 L166.436 617.773 L178.241 587.148 L161.644 587.148 L161.644 583.213 Z" fill="#000000" fill-rule="nonzero" fill-opacity="1" /><path clip-path="url(#clip540)" d="M126.783 390.168 Q123.172 390.168 121.343 393.733 Q119.538 397.275 119.538 404.404 Q119.538 411.511 121.343 415.076 Q123.172 418.617 126.783 418.617 Q130.417 418.617 132.223 415.076 Q134.052 411.511 134.052 404.404 Q134.052 397.275 132.223 393.733 Q130.417 390.168 126.783 390.168 M126.783 386.465 Q132.593 386.465 135.649 391.071 Q138.728 395.654 138.728 404.404 Q138.728 413.131 135.649 417.738 Q132.593 422.321 126.783 422.321 Q120.973 422.321 117.894 417.738 Q114.839 413.131 114.839 404.404 Q114.839 395.654 117.894 391.071 Q120.973 386.465 126.783 386.465 Z" fill="#000000" fill-rule="nonzero" fill-opacity="1" /><path clip-path="url(#clip540)" d="M146.945 415.77 L151.829 415.77 L151.829 421.65 L146.945 421.65 L146.945 415.77 Z" fill="#000000" fill-rule="nonzero" fill-opacity="1" /><path clip-path="url(#clip540)" d="M172.014 405.238 Q168.681 405.238 166.76 407.02 Q164.862 408.802 164.862 411.927 Q164.862 415.052 166.76 416.835 Q168.681 418.617 172.014 418.617 Q175.348 418.617 177.269 416.835 Q179.19 415.029 179.19 411.927 Q179.19 408.802 177.269 407.02 Q175.371 405.238 172.014 405.238 M167.339 403.247 Q164.329 402.506 162.64 400.446 Q160.973 398.386 160.973 395.423 Q160.973 391.279 163.913 388.872 Q166.876 386.465 172.014 386.465 Q177.176 386.465 180.116 388.872 Q183.056 391.279 183.056 395.423 Q183.056 398.386 181.366 400.446 Q179.7 402.506 176.714 403.247 Q180.093 404.034 181.968 406.326 Q183.866 408.617 183.866 411.927 Q183.866 416.951 180.788 419.636 Q177.732 422.321 172.014 422.321 Q166.297 422.321 163.218 419.636 Q160.163 416.951 160.163 411.927 Q160.163 408.617 162.061 406.326 Q163.959 404.034 167.339 403.247 M165.626 395.863 Q165.626 398.548 167.292 400.052 Q168.982 401.557 172.014 401.557 Q175.024 401.557 176.714 400.052 Q178.426 398.548 178.426 395.863 Q178.426 393.178 176.714 391.673 Q175.024 390.168 172.014 390.168 Q168.982 390.168 167.292 391.673 Q165.626 393.178 165.626 395.863 Z" fill="#000000" fill-rule="nonzero" fill-opacity="1" /><path clip-path="url(#clip540)" d="M126.876 194.045 Q123.265 194.045 121.436 197.61 Q119.63 201.152 119.63 208.281 Q119.63 215.388 121.436 218.952 Q123.265 222.494 126.876 222.494 Q130.51 222.494 132.316 218.952 Q134.144 215.388 134.144 208.281 Q134.144 201.152 132.316 197.61 Q130.51 194.045 126.876 194.045 M126.876 190.341 Q132.686 190.341 135.742 194.948 Q138.82 199.531 138.82 208.281 Q138.82 217.008 135.742 221.614 Q132.686 226.198 126.876 226.198 Q121.066 226.198 117.987 221.614 Q114.931 217.008 114.931 208.281 Q114.931 199.531 117.987 194.948 Q121.066 190.341 126.876 190.341 Z" fill="#000000" fill-rule="nonzero" fill-opacity="1" /><path clip-path="url(#clip540)" d="M147.038 219.647 L151.922 219.647 L151.922 225.526 L147.038 225.526 L147.038 219.647 Z" fill="#000000" fill-rule="nonzero" fill-opacity="1" /><path clip-path="url(#clip540)" d="M162.246 224.809 L162.246 220.55 Q164.005 221.383 165.811 221.823 Q167.616 222.263 169.352 222.263 Q173.982 222.263 176.413 219.161 Q178.866 216.036 179.214 209.693 Q177.871 211.684 175.811 212.749 Q173.751 213.814 171.251 213.814 Q166.065 213.814 163.033 210.689 Q160.024 207.54 160.024 202.101 Q160.024 196.777 163.172 193.559 Q166.32 190.341 171.552 190.341 Q177.547 190.341 180.695 194.948 Q183.866 199.531 183.866 208.281 Q183.866 216.452 179.977 221.337 Q176.112 226.198 169.561 226.198 Q167.802 226.198 165.996 225.851 Q164.19 225.503 162.246 224.809 M171.552 210.156 Q174.7 210.156 176.528 208.003 Q178.38 205.851 178.38 202.101 Q178.38 198.374 176.528 196.221 Q174.7 194.045 171.552 194.045 Q168.403 194.045 166.552 196.221 Q164.723 198.374 164.723 202.101 Q164.723 205.851 166.552 208.003 Q168.403 210.156 171.552 210.156 Z" fill="#000000" fill-rule="nonzero" fill-opacity="1" /><path clip-path="url(#clip540)" d="M16.4842 837.445 L16.4842 827.864 L48.8219 815.738 L16.4842 803.547 L16.4842 793.967 L64.0042 793.967 L64.0042 800.237 L22.277 800.237 L54.8694 812.491 L54.8694 818.952 L22.277 831.206 L64.0042 831.206 L64.0042 837.445 L16.4842 837.445 Z" fill="#000000" fill-rule="nonzero" fill-opacity="1" /><path clip-path="url(#clip540)" d="M18.0438 752.717 L24.314 752.717 Q22.5634 756.377 21.704 759.624 Q20.8447 762.87 20.8447 765.894 Q20.8447 771.146 22.8817 774.01 Q24.9187 776.843 28.6745 776.843 Q31.8255 776.843 33.4488 774.965 Q35.0402 773.055 36.0269 767.772 L36.8226 763.889 Q38.1912 756.696 41.6605 753.29 Q45.098 749.852 50.8908 749.852 Q57.7976 749.852 61.3624 754.499 Q64.9272 759.115 64.9272 768.058 Q64.9272 771.432 64.1633 775.252 Q63.3994 779.039 61.9035 783.113 L55.2831 783.113 Q57.4793 779.198 58.5933 775.443 Q59.7073 771.687 59.7073 768.058 Q59.7073 762.552 57.543 759.56 Q55.3786 756.568 51.3682 756.568 Q47.8671 756.568 45.8937 758.733 Q43.9204 760.865 42.9337 765.767 L42.1698 769.682 Q40.7375 776.875 37.682 780.09 Q34.6264 783.304 29.1837 783.304 Q22.8817 783.304 19.2532 778.88 Q15.6248 774.424 15.6248 766.626 Q15.6248 763.284 16.2295 759.815 Q16.8343 756.345 18.0438 752.717 Z" fill="#000000" fill-rule="nonzero" fill-opacity="1" /><path clip-path="url(#clip540)" d="M16.4842 739.826 L16.4842 709.78 L21.895 709.78 L21.895 733.397 L35.9632 733.397 L35.9632 710.767 L41.3741 710.767 L41.3741 733.397 L58.5933 733.397 L58.5933 709.207 L64.0042 709.207 L64.0042 739.826 L16.4842 739.826 Z" fill="#000000" fill-rule="nonzero" fill-opacity="1" /><path clip-path="url(#clip540)" d="M877.514 12.096 L889.707 12.096 L905.141 53.2532 L920.656 12.096 L932.849 12.096 L932.849 72.576 L924.869 72.576 L924.869 19.4686 L909.273 60.9499 L901.05 60.9499 L885.454 19.4686 L885.454 72.576 L877.514 72.576 L877.514 12.096 Z" fill="#000000" fill-rule="nonzero" fill-opacity="1" /><path clip-path="url(#clip540)" d="M987.577 48.0275 L987.577 51.6733 L953.307 51.6733 Q953.793 59.3701 957.925 63.421 Q962.097 67.4314 969.51 67.4314 Q973.804 67.4314 977.814 66.3781 Q981.865 65.3249 985.835 63.2184 L985.835 70.267 Q981.825 71.9684 977.612 72.8596 Q973.399 73.7508 969.065 73.7508 Q958.208 73.7508 951.848 67.4314 Q945.529 61.1119 945.529 50.3365 Q945.529 39.1965 951.524 32.6746 Q957.56 26.1121 967.768 26.1121 Q976.923 26.1121 982.23 32.0264 Q987.577 37.9003 987.577 48.0275 M980.123 45.84 Q980.042 39.7232 976.68 36.0774 Q973.358 32.4315 967.849 32.4315 Q961.611 32.4315 957.844 35.9558 Q954.117 39.4801 953.55 45.8805 L980.123 45.84 Z" fill="#000000" fill-rule="nonzero" fill-opacity="1" /><path clip-path="url(#clip540)" d="M1020.43 49.7694 Q1011.4 49.7694 1007.91 51.8354 Q1004.43 53.9013 1004.43 58.8839 Q1004.43 62.8538 1007.02 65.2034 Q1009.65 67.5124 1014.15 67.5124 Q1020.35 67.5124 1024.08 63.1374 Q1027.84 58.7219 1027.84 51.4303 L1027.84 49.7694 L1020.43 49.7694 M1035.3 46.6907 L1035.3 72.576 L1027.84 72.576 L1027.84 65.6895 Q1025.29 69.8214 1021.48 71.8063 Q1017.68 73.7508 1012.17 73.7508 Q1005.2 73.7508 1001.07 69.8619 Q996.975 65.9325 996.975 59.3701 Q996.975 51.7138 1002.08 47.825 Q1007.22 43.9361 1017.39 43.9361 L1027.84 43.9361 L1027.84 43.2069 Q1027.84 38.0623 1024.44 35.2672 Q1021.08 32.4315 1014.96 32.4315 Q1011.07 32.4315 1007.39 33.3632 Q1003.7 34.295 1000.3 36.1584 L1000.3 29.2718 Q1004.39 27.692 1008.24 26.9223 Q1012.09 26.1121 1015.73 26.1121 Q1025.57 26.1121 1030.44 31.2163 Q1035.3 36.3204 1035.3 46.6907 Z" fill="#000000" fill-rule="nonzero" fill-opacity="1" /><path clip-path="url(#clip540)" d="M1088.36 45.1919 L1088.36 72.576 L1080.91 72.576 L1080.91 45.4349 Q1080.91 38.994 1078.4 35.7938 Q1075.89 32.5936 1070.86 32.5936 Q1064.83 32.5936 1061.34 36.4419 Q1057.86 40.2903 1057.86 46.9338 L1057.86 72.576 L1050.37 72.576 L1050.37 27.2059 L1057.86 27.2059 L1057.86 34.2544 Q1060.53 30.163 1064.14 28.1376 Q1067.79 26.1121 1072.52 26.1121 Q1080.34 26.1121 1084.35 30.9732 Q1088.36 35.7938 1088.36 45.1919 Z" fill="#000000" fill-rule="nonzero" fill-opacity="1" /><path clip-path="url(#clip540)" d="M1166.18 14.0809 L1166.18 22.0612 Q1161.52 19.8332 1157.39 18.7395 Q1153.26 17.6457 1149.41 17.6457 Q1142.73 17.6457 1139.08 20.2383 Q1135.48 22.8309 1135.48 27.611 Q1135.48 31.6214 1137.87 33.6873 Q1140.3 35.7128 1147.02 36.9686 L1151.96 37.9813 Q1161.12 39.7232 1165.45 44.1387 Q1169.83 48.5136 1169.83 55.8863 Q1169.83 64.6767 1163.91 69.2137 Q1158.04 73.7508 1146.66 73.7508 Q1142.36 73.7508 1137.5 72.7785 Q1132.68 71.8063 1127.5 69.9024 L1127.5 61.4765 Q1132.48 64.2716 1137.26 65.6895 Q1142.04 67.1073 1146.66 67.1073 Q1153.66 67.1073 1157.47 64.3527 Q1161.28 61.598 1161.28 56.4939 Q1161.28 52.0379 1158.53 49.5264 Q1155.81 47.0148 1149.57 45.759 L1144.59 44.7868 Q1135.44 42.9639 1131.34 39.075 Q1127.25 35.1862 1127.25 28.2591 Q1127.25 20.2383 1132.88 15.6203 Q1138.55 11.0023 1148.48 11.0023 Q1152.73 11.0023 1157.15 11.7719 Q1161.56 12.5416 1166.18 14.0809 Z" fill="#000000" fill-rule="nonzero" fill-opacity="1" /><path clip-path="url(#clip540)" d="M1186.72 49.9314 Q1186.72 58.1548 1190.08 62.8538 Q1193.48 67.5124 1199.4 67.5124 Q1205.31 67.5124 1208.72 62.8538 Q1212.12 58.1548 1212.12 49.9314 Q1212.12 41.7081 1208.72 37.0496 Q1205.31 32.3505 1199.4 32.3505 Q1193.48 32.3505 1190.08 37.0496 Q1186.72 41.7081 1186.72 49.9314 M1212.12 65.7705 Q1209.77 69.8214 1206.16 71.8063 Q1202.6 73.7508 1197.58 73.7508 Q1189.35 73.7508 1184.17 67.1883 Q1179.02 60.6258 1179.02 49.9314 Q1179.02 39.2371 1184.17 32.6746 Q1189.35 26.1121 1197.58 26.1121 Q1202.6 26.1121 1206.16 28.0971 Q1209.77 30.0415 1212.12 34.0924 L1212.12 27.2059 L1219.57 27.2059 L1219.57 89.8329 L1212.12 89.8329 L1212.12 65.7705 Z" fill="#000000" fill-rule="nonzero" fill-opacity="1" /><path clip-path="url(#clip540)" d="M1234.16 54.671 L1234.16 27.2059 L1241.61 27.2059 L1241.61 54.3874 Q1241.61 60.8284 1244.12 64.0691 Q1246.63 67.2693 1251.66 67.2693 Q1257.69 67.2693 1261.18 63.421 Q1264.7 59.5726 1264.7 52.9291 L1264.7 27.2059 L1272.15 27.2059 L1272.15 72.576 L1264.7 72.576 L1264.7 65.6084 Q1261.99 69.7404 1258.38 71.7658 Q1254.82 73.7508 1250.08 73.7508 Q1242.26 73.7508 1238.21 68.8897 Q1234.16 64.0286 1234.16 54.671 M1252.91 26.1121 L1252.91 26.1121 Z" fill="#000000" fill-rule="nonzero" fill-opacity="1" /><path clip-path="url(#clip540)" d="M1308.13 49.7694 Q1299.09 49.7694 1295.61 51.8354 Q1292.12 53.9013 1292.12 58.8839 Q1292.12 62.8538 1294.72 65.2034 Q1297.35 67.5124 1301.85 67.5124 Q1308.04 67.5124 1311.77 63.1374 Q1315.54 58.7219 1315.54 51.4303 L1315.54 49.7694 L1308.13 49.7694 M1322.99 46.6907 L1322.99 72.576 L1315.54 72.576 L1315.54 65.6895 Q1312.99 69.8214 1309.18 71.8063 Q1305.37 73.7508 1299.86 73.7508 Q1292.89 73.7508 1288.76 69.8619 Q1284.67 65.9325 1284.67 59.3701 Q1284.67 51.7138 1289.77 47.825 Q1294.92 43.9361 1305.09 43.9361 L1315.54 43.9361 L1315.54 43.2069 Q1315.54 38.0623 1312.14 35.2672 Q1308.77 32.4315 1302.66 32.4315 Q1298.77 32.4315 1295.08 33.3632 Q1291.39 34.295 1287.99 36.1584 L1287.99 29.2718 Q1292.08 27.692 1295.93 26.9223 Q1299.78 26.1121 1303.43 26.1121 Q1313.27 26.1121 1318.13 31.2163 Q1322.99 36.3204 1322.99 46.6907 Z" fill="#000000" fill-rule="nonzero" fill-opacity="1" /><path clip-path="url(#clip540)" d="M1364.64 34.1734 Q1363.38 33.4443 1361.88 33.1202 Q1360.42 32.7556 1358.64 32.7556 Q1352.32 32.7556 1348.92 36.8875 Q1345.56 40.9789 1345.56 48.6757 L1345.56 72.576 L1338.06 72.576 L1338.06 27.2059 L1345.56 27.2059 L1345.56 34.2544 Q1347.91 30.1225 1351.67 28.1376 Q1355.44 26.1121 1360.83 26.1121 Q1361.6 26.1121 1362.53 26.2337 Q1363.46 26.3147 1364.59 26.5172 L1364.64 34.1734 Z" fill="#000000" fill-rule="nonzero" fill-opacity="1" /><path clip-path="url(#clip540)" d="M1409.44 48.0275 L1409.44 51.6733 L1375.17 51.6733 Q1375.65 59.3701 1379.79 63.421 Q1383.96 67.4314 1391.37 67.4314 Q1395.67 67.4314 1399.68 66.3781 Q1403.73 65.3249 1407.7 63.2184 L1407.7 70.267 Q1403.69 71.9684 1399.47 72.8596 Q1395.26 73.7508 1390.93 73.7508 Q1380.07 73.7508 1373.71 67.4314 Q1367.39 61.1119 1367.39 50.3365 Q1367.39 39.1965 1373.39 32.6746 Q1379.42 26.1121 1389.63 26.1121 Q1398.78 26.1121 1404.09 32.0264 Q1409.44 37.9003 1409.44 48.0275 M1401.98 45.84 Q1401.9 39.7232 1398.54 36.0774 Q1395.22 32.4315 1389.71 32.4315 Q1383.47 32.4315 1379.7 35.9558 Q1375.98 39.4801 1375.41 45.8805 L1401.98 45.84 Z" fill="#000000" fill-rule="nonzero" fill-opacity="1" /><path clip-path="url(#clip540)" d="M1451.53 34.0924 L1451.53 9.54393 L1458.98 9.54393 L1458.98 72.576 L1451.53 72.576 L1451.53 65.7705 Q1449.18 69.8214 1445.57 71.8063 Q1442.01 73.7508 1436.98 73.7508 Q1428.76 73.7508 1423.58 67.1883 Q1418.43 60.6258 1418.43 49.9314 Q1418.43 39.2371 1423.58 32.6746 Q1428.76 26.1121 1436.98 26.1121 Q1442.01 26.1121 1445.57 28.0971 Q1449.18 30.0415 1451.53 34.0924 M1426.13 49.9314 Q1426.13 58.1548 1429.49 62.8538 Q1432.89 67.5124 1438.81 67.5124 Q1444.72 67.5124 1448.12 62.8538 Q1451.53 58.1548 1451.53 49.9314 Q1451.53 41.7081 1448.12 37.0496 Q1444.72 32.3505 1438.81 32.3505 Q1432.89 32.3505 1429.49 37.0496 Q1426.13 41.7081 1426.13 49.9314 Z" fill="#000000" fill-rule="nonzero" fill-opacity="1" /><path clip-path="url(#clip540)" d="M1501.03 12.096 L1539.27 12.096 L1539.27 18.9825 L1509.21 18.9825 L1509.21 36.8875 L1538.01 36.8875 L1538.01 43.7741 L1509.21 43.7741 L1509.21 65.6895 L1540 65.6895 L1540 72.576 L1501.03 72.576 L1501.03 12.096 Z" fill="#000000" fill-rule="nonzero" fill-opacity="1" /><path clip-path="url(#clip540)" d="M1579.41 34.1734 Q1578.16 33.4443 1576.66 33.1202 Q1575.2 32.7556 1573.42 32.7556 Q1567.1 32.7556 1563.7 36.8875 Q1560.33 40.9789 1560.33 48.6757 L1560.33 72.576 L1552.84 72.576 L1552.84 27.2059 L1560.33 27.2059 L1560.33 34.2544 Q1562.68 30.1225 1566.45 28.1376 Q1570.22 26.1121 1575.61 26.1121 Q1576.38 26.1121 1577.31 26.2337 Q1578.24 26.3147 1579.37 26.5172 L1579.41 34.1734 Z" fill="#000000" fill-rule="nonzero" fill-opacity="1" /><path clip-path="url(#clip540)" d="M1612.06 34.1734 Q1610.81 33.4443 1609.31 33.1202 Q1607.85 32.7556 1606.07 32.7556 Q1599.75 32.7556 1596.35 36.8875 Q1592.98 40.9789 1592.98 48.6757 L1592.98 72.576 L1585.49 72.576 L1585.49 27.2059 L1592.98 27.2059 L1592.98 34.2544 Q1595.33 30.1225 1599.1 28.1376 Q1602.87 26.1121 1608.26 26.1121 Q1609.03 26.1121 1609.96 26.2337 Q1610.89 26.3147 1612.02 26.5172 L1612.06 34.1734 Z" fill="#000000" fill-rule="nonzero" fill-opacity="1" /><path clip-path="url(#clip540)" d="M1635.64 32.4315 Q1629.65 32.4315 1626.16 37.1306 Q1622.68 41.7891 1622.68 49.9314 Q1622.68 58.0738 1626.12 62.7728 Q1629.6 67.4314 1635.64 67.4314 Q1641.6 67.4314 1645.08 62.7323 Q1648.56 58.0333 1648.56 49.9314 Q1648.56 41.8701 1645.08 37.1711 Q1641.6 32.4315 1635.64 32.4315 M1635.64 26.1121 Q1645.36 26.1121 1650.91 32.4315 Q1656.46 38.7509 1656.46 49.9314 Q1656.46 61.0714 1650.91 67.4314 Q1645.36 73.7508 1635.64 73.7508 Q1625.88 73.7508 1620.33 67.4314 Q1614.82 61.0714 1614.82 49.9314 Q1614.82 38.7509 1620.33 32.4315 Q1625.88 26.1121 1635.64 26.1121 Z" fill="#000000" fill-rule="nonzero" fill-opacity="1" /><path clip-path="url(#clip540)" d="M1695.11 34.1734 Q1693.85 33.4443 1692.35 33.1202 Q1690.9 32.7556 1689.11 32.7556 Q1682.79 32.7556 1679.39 36.8875 Q1676.03 40.9789 1676.03 48.6757 L1676.03 72.576 L1668.53 72.576 L1668.53 27.2059 L1676.03 27.2059 L1676.03 34.2544 Q1678.38 30.1225 1682.15 28.1376 Q1685.91 26.1121 1691.3 26.1121 Q1692.07 26.1121 1693 26.2337 Q1693.93 26.3147 1695.07 26.5172 L1695.11 34.1734 Z" fill="#000000" fill-rule="nonzero" fill-opacity="1" /><polyline clip-path="url(#clip542)" style="stroke:#009af9; stroke-linecap:round; stroke-linejoin:round; stroke-width:4; stroke-opacity:1; fill:none" points="280.231,593.576 309.393,476.906 338.555,539.417 367.716,609.994 396.878,496.094 426.04,623.364 455.202,844.603 484.363,832.537 513.525,816.11 542.687,899.154 571.848,831.719 601.01,918.639 630.172,863.696 659.334,745.9 688.495,791.27 717.657,313.823 746.819,823.086 775.981,630.554 805.142,320.056 834.304,291.743 863.466,641.578 892.628,409.493 921.789,869.847 950.951,809.901 980.113,886.112 1009.27,936.03 1038.44,746.841 1067.6,744.263 1096.76,756.214 1125.92,817.292 1155.08,215.476 1184.24,758.205 1213.41,160.256 1242.57,555.647 1271.73,778.629 1300.89,268.217 1330.05,671.293 1359.22,802.535 1388.38,828.163 1417.54,737.742 1446.7,789.602 1475.86,790.007 1505.02,794.003 1534.19,733.568 1563.35,745.589 1592.51,549.809 1621.67,624.445 1650.83,665.051 1679.99,622.407 1709.16,574.58 1738.32,600.422 1767.48,666.995 1796.64,725.601 1825.8,774.157 1854.97,795.328 1884.13,853.503 1913.29,862.874 1942.45,837.59 1971.61,799.515 2000.77,915.946 2029.94,665.787 2059.1,854.042 2088.26,698.484 2117.42,746.812 2146.58,620.448 2175.74,713.566 2204.91,816.366 2234.07,496.229 2263.23,598.846 2292.39,729.068 "/>
<polyline clip-path="url(#clip542)" style="stroke:#e26f46; stroke-linecap:round; stroke-linejoin:round; stroke-width:4; stroke-opacity:1; fill:none" points="280.231,1072.75 309.393,1055.04 338.555,1072 367.716,1121.68 396.878,1022.78 426.04,1153.16 455.202,1147.26 484.363,1045.7 513.525,1330.16 542.687,1333.76 571.848,1286.42 601.01,1361.19 630.172,1302.8 659.334,1115.68 688.495,1316.96 717.657,880.442 746.819,1091.35 775.981,1012.29 805.142,620.407 834.304,882.915 863.466,1016.59 892.628,932.212 921.789,1287.87 950.951,1377.19 980.113,1296.39 1009.27,1369.9 1038.44,1297.92 1067.6,1262.3 1096.76,1270.3 1125.92,1213.46 1155.08,830.539 1184.24,1039.64 1213.41,644.799 1242.57,959.313 1271.73,929.783 1300.89,864.289 1330.05,1080.33 1359.22,1386.4 1388.38,1191.79 1417.54,1281.51 1446.7,1337.25 1475.86,1235.22 1505.02,1196.57 1534.19,1322.27 1563.35,1233.49 1592.51,993.78 1621.67,936.849 1650.83,1121.72 1679.99,1013.12 1709.16,913.496 1738.32,975.936 1767.48,1022.75 1796.64,1188.57 1825.8,1300.75 1854.97,1236.76 1884.13,1303.47 1913.29,1214.06 1942.45,1322.84 1971.61,1238.88 2000.77,1339.82 2029.94,579.137 2059.1,918.651 2088.26,719.318 2117.42,676.065 2146.58,599.302 2175.74,644.74 2204.91,806.274 2234.07,604.198 2263.23,742.22 2292.39,682.533 "/>
<path clip-path="url(#clip540)" d="M1985.55 322.316 L2281.66 322.316 L2281.66 166.796 L1985.55 166.796  Z" fill="#ffffff" fill-rule="evenodd" fill-opacity="1"/>
<polyline clip-path="url(#clip540)" style="stroke:#000000; stroke-linecap:round; stroke-linejoin:round; stroke-width:4; stroke-opacity:1; fill:none" points="1985.55,322.316 2281.66,322.316 2281.66,166.796 1985.55,166.796 1985.55,322.316 "/>
<polyline clip-path="url(#clip540)" style="stroke:#009af9; stroke-linecap:round; stroke-linejoin:round; stroke-width:4; stroke-opacity:1; fill:none" points="2009.25,218.636 2151.44,218.636 "/>
<path clip-path="url(#clip540)" d="M2182.54 202.629 L2182.54 209.99 L2191.32 209.99 L2191.32 213.3 L2182.54 213.3 L2182.54 227.374 Q2182.54 230.545 2183.4 231.448 Q2184.28 232.351 2186.94 232.351 L2191.32 232.351 L2191.32 235.916 L2186.94 235.916 Q2182.01 235.916 2180.14 234.087 Q2178.26 232.235 2178.26 227.374 L2178.26 213.3 L2175.14 213.3 L2175.14 209.99 L2178.26 209.99 L2178.26 202.629 L2182.54 202.629 Z" fill="#000000" fill-rule="nonzero" fill-opacity="1" /><path clip-path="url(#clip540)" d="M2197.48 214.388 L2227.15 214.388 L2227.15 218.277 L2197.48 218.277 L2197.48 214.388 M2197.48 223.832 L2227.15 223.832 L2227.15 227.768 L2197.48 227.768 L2197.48 223.832 Z" fill="#000000" fill-rule="nonzero" fill-opacity="1" /><path clip-path="url(#clip540)" d="M2238.05 231.981 L2245.69 231.981 L2245.69 205.615 L2237.38 207.282 L2237.38 203.022 L2245.65 201.356 L2250.32 201.356 L2250.32 231.981 L2257.96 231.981 L2257.96 235.916 L2238.05 235.916 L2238.05 231.981 Z" fill="#000000" fill-rule="nonzero" fill-opacity="1" /><polyline clip-path="url(#clip540)" style="stroke:#e26f46; stroke-linecap:round; stroke-linejoin:round; stroke-width:4; stroke-opacity:1; fill:none" points="2009.25,270.476 2151.44,270.476 "/>
<path clip-path="url(#clip540)" d="M2182.54 254.469 L2182.54 261.83 L2191.32 261.83 L2191.32 265.14 L2182.54 265.14 L2182.54 279.214 Q2182.54 282.385 2183.4 283.288 Q2184.28 284.191 2186.94 284.191 L2191.32 284.191 L2191.32 287.756 L2186.94 287.756 Q2182.01 287.756 2180.14 285.927 Q2178.26 284.075 2178.26 279.214 L2178.26 265.14 L2175.14 265.14 L2175.14 261.83 L2178.26 261.83 L2178.26 254.469 L2182.54 254.469 Z" fill="#000000" fill-rule="nonzero" fill-opacity="1" /><path clip-path="url(#clip540)" d="M2197.48 266.228 L2227.15 266.228 L2227.15 270.117 L2197.48 270.117 L2197.48 266.228 M2197.48 275.672 L2227.15 275.672 L2227.15 279.608 L2197.48 279.608 L2197.48 275.672 Z" fill="#000000" fill-rule="nonzero" fill-opacity="1" /><path clip-path="url(#clip540)" d="M2241.27 283.821 L2257.59 283.821 L2257.59 287.756 L2235.65 287.756 L2235.65 283.821 Q2238.31 281.066 2242.89 276.436 Q2247.5 271.784 2248.68 270.441 Q2250.92 267.918 2251.8 266.182 Q2252.71 264.423 2252.71 262.733 Q2252.71 259.978 2250.76 258.242 Q2248.84 256.506 2245.74 256.506 Q2243.54 256.506 2241.09 257.27 Q2238.66 258.034 2235.88 259.585 L2235.88 254.862 Q2238.7 253.728 2241.16 253.149 Q2243.61 252.571 2245.65 252.571 Q2251.02 252.571 2254.21 255.256 Q2257.41 257.941 2257.41 262.432 Q2257.41 264.561 2256.6 266.483 Q2255.81 268.381 2253.7 270.973 Q2253.12 271.645 2250.02 274.862 Q2246.92 278.057 2241.27 283.821 Z" fill="#000000" fill-rule="nonzero" fill-opacity="1" /></svg>
