<?xml version="1.0" encoding="utf-8"?>
<svg xmlns="http://www.w3.org/2000/svg" xmlns:xlink="http://www.w3.org/1999/xlink" width="600" height="400" viewBox="0 0 2400 1600">
<defs>
  <clipPath id="clip550">
    <rect x="0" y="0" width="2400" height="1600"/>
  </clipPath>
</defs>
<path clip-path="url(#clip550)" d="M0 1600 L2400 1600 L2400 8.88178e-14 L0 8.88178e-14  Z" fill="#ffffff" fill-rule="evenodd" fill-opacity="1"/>
<defs>
  <clipPath id="clip551">
    <rect x="480" y="0" width="1681" height="1600"/>
  </clipPath>
</defs>
<path clip-path="url(#clip550)" d="M219.866 1423.18 L2352.76 1423.18 L2352.76 123.472 L219.866 123.472  Z" fill="#ffffff" fill-rule="evenodd" fill-opacity="1"/>
<defs>
  <clipPath id="clip552">
    <rect x="219" y="123" width="2134" height="1301"/>
  </clipPath>
</defs>
<polyline clip-path="url(#clip552)" style="stroke:#000000; stroke-linecap:round; stroke-linejoin:round; stroke-width:2; stroke-opacity:0.1; fill:none" points="251.069,1423.18 251.069,123.472 "/>
<polyline clip-path="url(#clip552)" style="stroke:#000000; stroke-linecap:round; stroke-linejoin:round; stroke-width:2; stroke-opacity:0.1; fill:none" points="834.304,1423.18 834.304,123.472 "/>
<polyline clip-path="url(#clip552)" style="stroke:#000000; stroke-linecap:round; stroke-linejoin:round; stroke-width:2; stroke-opacity:0.1; fill:none" points="1417.54,1423.18 1417.54,123.472 "/>
<polyline clip-path="url(#clip552)" style="stroke:#000000; stroke-linecap:round; stroke-linejoin:round; stroke-width:2; stroke-opacity:0.1; fill:none" points="2000.77,1423.18 2000.77,123.472 "/>
<polyline clip-path="url(#clip550)" style="stroke:#000000; stroke-linecap:round; stroke-linejoin:round; stroke-width:4; stroke-opacity:1; fill:none" points="219.866,1423.18 2352.76,1423.18 "/>
<polyline clip-path="url(#clip550)" style="stroke:#000000; stroke-linecap:round; stroke-linejoin:round; stroke-width:4; stroke-opacity:1; fill:none" points="251.069,1423.18 251.069,1404.28 "/>
<polyline clip-path="url(#clip550)" style="stroke:#000000; stroke-linecap:round; stroke-linejoin:round; stroke-width:4; stroke-opacity:1; fill:none" points="834.304,1423.18 834.304,1404.28 "/>
<polyline clip-path="url(#clip550)" style="stroke:#000000; stroke-linecap:round; stroke-linejoin:round; stroke-width:4; stroke-opacity:1; fill:none" points="1417.54,1423.18 1417.54,1404.28 "/>
<polyline clip-path="url(#clip550)" style="stroke:#000000; stroke-linecap:round; stroke-linejoin:round; stroke-width:4; stroke-opacity:1; fill:none" points="2000.77,1423.18 2000.77,1404.28 "/>
<path clip-path="url(#clip550)" d="M251.069 1454.1 Q247.458 1454.1 245.63 1457.66 Q243.824 1461.2 243.824 1468.33 Q243.824 1475.44 245.63 1479.01 Q247.458 1482.55 251.069 1482.55 Q254.704 1482.55 256.509 1479.01 Q258.338 1475.44 258.338 1468.33 Q258.338 1461.2 256.509 1457.66 Q254.704 1454.1 251.069 1454.1 M251.069 1450.39 Q256.879 1450.39 259.935 1455 Q263.014 1459.58 263.014 1468.33 Q263.014 1477.06 259.935 1481.67 Q256.879 1486.25 251.069 1486.25 Q245.259 1486.25 242.18 1481.67 Q239.125 1477.06 239.125 1468.33 Q239.125 1459.58 242.18 1455 Q245.259 1450.39 251.069 1450.39 Z" fill="#000000" fill-rule="nonzero" fill-opacity="1" /><path clip-path="url(#clip550)" d="M813.077 1481.64 L829.397 1481.64 L829.397 1485.58 L807.452 1485.58 L807.452 1481.64 Q810.114 1478.89 814.698 1474.26 Q819.304 1469.61 820.485 1468.27 Q822.73 1465.74 823.61 1464.01 Q824.513 1462.25 824.513 1460.56 Q824.513 1457.8 822.568 1456.07 Q820.647 1454.33 817.545 1454.33 Q815.346 1454.33 812.892 1455.09 Q810.462 1455.86 807.684 1457.41 L807.684 1452.69 Q810.508 1451.55 812.962 1450.97 Q815.415 1450.39 817.452 1450.39 Q822.823 1450.39 826.017 1453.08 Q829.212 1455.77 829.212 1460.26 Q829.212 1462.39 828.401 1464.31 Q827.614 1466.2 825.508 1468.8 Q824.929 1469.47 821.827 1472.69 Q818.726 1475.88 813.077 1481.64 Z" fill="#000000" fill-rule="nonzero" fill-opacity="1" /><path clip-path="url(#clip550)" d="M849.211 1454.1 Q845.6 1454.1 843.772 1457.66 Q841.966 1461.2 841.966 1468.33 Q841.966 1475.44 843.772 1479.01 Q845.6 1482.55 849.211 1482.55 Q852.846 1482.55 854.651 1479.01 Q856.48 1475.44 856.48 1468.33 Q856.48 1461.2 854.651 1457.66 Q852.846 1454.1 849.211 1454.1 M849.211 1450.39 Q855.022 1450.39 858.077 1455 Q861.156 1459.58 861.156 1468.33 Q861.156 1477.06 858.077 1481.67 Q855.022 1486.25 849.211 1486.25 Q843.401 1486.25 840.323 1481.67 Q837.267 1477.06 837.267 1468.33 Q837.267 1459.58 840.323 1455 Q843.401 1450.39 849.211 1450.39 Z" fill="#000000" fill-rule="nonzero" fill-opacity="1" /><path clip-path="url(#clip550)" d="M1405.71 1455.09 L1393.9 1473.54 L1405.71 1473.54 L1405.71 1455.09 M1404.48 1451.02 L1410.36 1451.02 L1410.36 1473.54 L1415.29 1473.54 L1415.29 1477.43 L1410.36 1477.43 L1410.36 1485.58 L1405.71 1485.58 L1405.71 1477.43 L1390.11 1477.43 L1390.11 1472.92 L1404.48 1451.02 Z" fill="#000000" fill-rule="nonzero" fill-opacity="1" /><path clip-path="url(#clip550)" d="M1433.02 1454.1 Q1429.41 1454.1 1427.59 1457.66 Q1425.78 1461.2 1425.78 1468.33 Q1425.78 1475.44 1427.59 1479.01 Q1429.41 1482.55 1433.02 1482.55 Q1436.66 1482.55 1438.46 1479.01 Q1440.29 1475.44 1440.29 1468.33 Q1440.29 1461.2 1438.46 1457.66 Q1436.66 1454.1 1433.02 1454.1 M1433.02 1450.39 Q1438.84 1450.39 1441.89 1455 Q1444.97 1459.58 1444.97 1468.33 Q1444.97 1477.06 1441.89 1481.67 Q1438.84 1486.25 1433.02 1486.25 Q1427.21 1486.25 1424.14 1481.67 Q1421.08 1477.06 1421.08 1468.33 Q1421.08 1459.58 1424.14 1455 Q1427.21 1450.39 1433.02 1450.39 Z" fill="#000000" fill-rule="nonzero" fill-opacity="1" /><path clip-path="url(#clip550)" d="M1986.18 1466.44 Q1983.03 1466.44 1981.18 1468.59 Q1979.35 1470.74 1979.35 1474.49 Q1979.35 1478.22 1981.18 1480.39 Q1983.03 1482.55 1986.18 1482.55 Q1989.33 1482.55 1991.16 1480.39 Q1993.01 1478.22 1993.01 1474.49 Q1993.01 1470.74 1991.16 1468.59 Q1989.33 1466.44 1986.18 1466.44 M1995.46 1451.78 L1995.46 1456.04 Q1993.7 1455.21 1991.9 1454.77 Q1990.11 1454.33 1988.35 1454.33 Q1983.73 1454.33 1981.27 1457.45 Q1978.84 1460.58 1978.49 1466.9 Q1979.86 1464.89 1981.92 1463.82 Q1983.98 1462.73 1986.46 1462.73 Q1991.66 1462.73 1994.67 1465.9 Q1997.71 1469.05 1997.71 1474.49 Q1997.71 1479.82 1994.56 1483.03 Q1991.41 1486.25 1986.18 1486.25 Q1980.18 1486.25 1977.01 1481.67 Q1973.84 1477.06 1973.84 1468.33 Q1973.84 1460.14 1977.73 1455.28 Q1981.62 1450.39 1988.17 1450.39 Q1989.93 1450.39 1991.71 1450.74 Q1993.52 1451.09 1995.46 1451.78 Z" fill="#000000" fill-rule="nonzero" fill-opacity="1" /><path clip-path="url(#clip550)" d="M2015.76 1454.1 Q2012.15 1454.1 2010.32 1457.66 Q2008.52 1461.2 2008.52 1468.33 Q2008.52 1475.44 2010.32 1479.01 Q2012.15 1482.55 2015.76 1482.55 Q2019.4 1482.55 2021.2 1479.01 Q2023.03 1475.44 2023.03 1468.33 Q2023.03 1461.2 2021.2 1457.66 Q2019.4 1454.1 2015.76 1454.1 M2015.76 1450.39 Q2021.57 1450.39 2024.63 1455 Q2027.71 1459.58 2027.71 1468.33 Q2027.71 1477.06 2024.63 1481.67 Q2021.57 1486.25 2015.76 1486.25 Q2009.95 1486.25 2006.87 1481.67 Q2003.82 1477.06 2003.82 1468.33 Q2003.82 1459.58 2006.87 1455 Q2009.95 1450.39 2015.76 1450.39 Z" fill="#000000" fill-rule="nonzero" fill-opacity="1" /><path clip-path="url(#clip550)" d="M1150.96 1520.52 L1178.27 1520.52 L1178.27 1525.93 L1157.39 1525.93 L1157.39 1539.94 L1176.23 1539.94 L1176.23 1545.35 L1157.39 1545.35 L1157.39 1568.04 L1150.96 1568.04 L1150.96 1520.52 Z" fill="#000000" fill-rule="nonzero" fill-opacity="1" /><path clip-path="url(#clip550)" d="M1215.13 1548.76 L1215.13 1551.62 L1188.2 1551.62 Q1188.58 1557.67 1191.83 1560.85 Q1195.11 1564 1200.93 1564 Q1204.3 1564 1207.46 1563.17 Q1210.64 1562.35 1213.76 1560.69 L1213.76 1566.23 Q1210.61 1567.57 1207.3 1568.27 Q1203.99 1568.97 1200.58 1568.97 Q1192.05 1568.97 1187.05 1564 Q1182.09 1559.04 1182.09 1550.57 Q1182.09 1541.82 1186.8 1536.69 Q1191.54 1531.54 1199.56 1531.54 Q1206.76 1531.54 1210.93 1536.18 Q1215.13 1540.8 1215.13 1548.76 M1209.27 1547.04 Q1209.21 1542.23 1206.56 1539.37 Q1203.95 1536.5 1199.63 1536.5 Q1194.72 1536.5 1191.76 1539.27 Q1188.84 1542.04 1188.39 1547.07 L1209.27 1547.04 Z" fill="#000000" fill-rule="nonzero" fill-opacity="1" /><path clip-path="url(#clip550)" d="M1240.94 1550.12 Q1233.84 1550.12 1231.1 1551.75 Q1228.37 1553.37 1228.37 1557.29 Q1228.37 1560.4 1230.4 1562.25 Q1232.47 1564.07 1236.01 1564.07 Q1240.88 1564.07 1243.8 1560.63 Q1246.76 1557.16 1246.76 1551.43 L1246.76 1550.12 L1240.94 1550.12 M1252.62 1547.71 L1252.62 1568.04 L1246.76 1568.04 L1246.76 1562.63 Q1244.76 1565.88 1241.77 1567.44 Q1238.78 1568.97 1234.45 1568.97 Q1228.97 1568.97 1225.73 1565.91 Q1222.51 1562.82 1222.51 1557.67 Q1222.51 1551.65 1226.52 1548.6 Q1230.56 1545.54 1238.55 1545.54 L1246.76 1545.54 L1246.76 1544.97 Q1246.76 1540.93 1244.09 1538.73 Q1241.45 1536.5 1236.64 1536.5 Q1233.59 1536.5 1230.69 1537.23 Q1227.79 1537.97 1225.12 1539.43 L1225.12 1534.02 Q1228.34 1532.78 1231.36 1532.17 Q1234.38 1531.54 1237.25 1531.54 Q1244.98 1531.54 1248.8 1535.55 Q1252.62 1539.56 1252.62 1547.71 Z" fill="#000000" fill-rule="nonzero" fill-opacity="1" /><path clip-path="url(#clip550)" d="M1270.48 1522.27 L1270.48 1532.4 L1282.54 1532.4 L1282.54 1536.95 L1270.48 1536.95 L1270.48 1556.3 Q1270.48 1560.66 1271.65 1561.9 Q1272.86 1563.14 1276.52 1563.14 L1282.54 1563.14 L1282.54 1568.04 L1276.52 1568.04 Q1269.74 1568.04 1267.17 1565.53 Q1264.59 1562.98 1264.59 1556.3 L1264.59 1536.95 L1260.29 1536.95 L1260.29 1532.4 L1264.59 1532.4 L1264.59 1522.27 L1270.48 1522.27 Z" fill="#000000" fill-rule="nonzero" fill-opacity="1" /><path clip-path="url(#clip550)" d="M1289.64 1553.98 L1289.64 1532.4 L1295.49 1532.4 L1295.49 1553.75 Q1295.49 1558.81 1297.47 1561.36 Q1299.44 1563.87 1303.39 1563.87 Q1308.13 1563.87 1310.87 1560.85 Q1313.64 1557.83 1313.64 1552.61 L1313.64 1532.4 L1319.49 1532.4 L1319.49 1568.04 L1313.64 1568.04 L1313.64 1562.57 Q1311.5 1565.82 1308.67 1567.41 Q1305.87 1568.97 1302.15 1568.97 Q1296 1568.97 1292.82 1565.15 Q1289.64 1561.33 1289.64 1553.98 M1304.37 1531.54 L1304.37 1531.54 Z" fill="#000000" fill-rule="nonzero" fill-opacity="1" /><path clip-path="url(#clip550)" d="M1352.21 1537.87 Q1351.23 1537.3 1350.05 1537.04 Q1348.9 1536.76 1347.5 1536.76 Q1342.54 1536.76 1339.86 1540 Q1337.22 1543.22 1337.22 1549.27 L1337.22 1568.04 L1331.33 1568.04 L1331.33 1532.4 L1337.22 1532.4 L1337.22 1537.93 Q1339.07 1534.69 1342.03 1533.13 Q1344.99 1531.54 1349.22 1531.54 Q1349.82 1531.54 1350.56 1531.63 Q1351.29 1531.7 1352.18 1531.85 L1352.21 1537.87 Z" fill="#000000" fill-rule="nonzero" fill-opacity="1" /><path clip-path="url(#clip550)" d="M1387.41 1548.76 L1387.41 1551.62 L1360.49 1551.62 Q1360.87 1557.67 1364.12 1560.85 Q1367.39 1564 1373.22 1564 Q1376.59 1564 1379.74 1563.17 Q1382.93 1562.35 1386.05 1560.69 L1386.05 1566.23 Q1382.89 1567.57 1379.58 1568.27 Q1376.27 1568.97 1372.87 1568.97 Q1364.34 1568.97 1359.34 1564 Q1354.38 1559.04 1354.38 1550.57 Q1354.38 1541.82 1359.09 1536.69 Q1363.83 1531.54 1371.85 1531.54 Q1379.04 1531.54 1383.21 1536.18 Q1387.41 1540.8 1387.41 1548.76 M1381.56 1547.04 Q1381.49 1542.23 1378.85 1539.37 Q1376.24 1536.5 1371.91 1536.5 Q1367.01 1536.5 1364.05 1539.27 Q1361.12 1542.04 1360.68 1547.07 L1381.56 1547.04 Z" fill="#000000" fill-rule="nonzero" fill-opacity="1" /><path clip-path="url(#clip550)" d="M1419.75 1533.45 L1419.75 1538.98 Q1417.27 1537.71 1414.6 1537.07 Q1411.92 1536.44 1409.06 1536.44 Q1404.7 1536.44 1402.5 1537.77 Q1400.34 1539.11 1400.34 1541.79 Q1400.34 1543.82 1401.9 1545 Q1403.46 1546.15 1408.17 1547.2 L1410.17 1547.64 Q1416.41 1548.98 1419.02 1551.43 Q1421.66 1553.85 1421.66 1558.21 Q1421.66 1563.17 1417.72 1566.07 Q1413.8 1568.97 1406.93 1568.97 Q1404.06 1568.97 1400.94 1568.39 Q1397.85 1567.85 1394.42 1566.74 L1394.42 1560.69 Q1397.66 1562.38 1400.81 1563.24 Q1403.97 1564.07 1407.05 1564.07 Q1411.19 1564.07 1413.42 1562.66 Q1415.65 1561.23 1415.65 1558.65 Q1415.65 1556.27 1414.02 1554.99 Q1412.43 1553.72 1406.99 1552.54 L1404.95 1552.07 Q1399.51 1550.92 1397.09 1548.56 Q1394.67 1546.18 1394.67 1542.04 Q1394.67 1537.01 1398.24 1534.27 Q1401.8 1531.54 1408.36 1531.54 Q1411.6 1531.54 1414.47 1532.01 Q1417.33 1532.49 1419.75 1533.45 Z" fill="#000000" fill-rule="nonzero" fill-opacity="1" /><polyline clip-path="url(#clip552)" style="stroke:#000000; stroke-linecap:round; stroke-linejoin:round; stroke-width:2; stroke-opacity:0.1; fill:none" points="219.866,1221.58 2352.76,1221.58 "/>
<polyline clip-path="url(#clip552)" style="stroke:#000000; stroke-linecap:round; stroke-linejoin:round; stroke-width:2; stroke-opacity:0.1; fill:none" points="219.866,910.083 2352.76,910.083 "/>
<polyline clip-path="url(#clip552)" style="stroke:#000000; stroke-linecap:round; stroke-linejoin:round; stroke-width:2; stroke-opacity:0.1; fill:none" points="219.866,598.589 2352.76,598.589 "/>
<polyline clip-path="url(#clip552)" style="stroke:#000000; stroke-linecap:round; stroke-linejoin:round; stroke-width:2; stroke-opacity:0.1; fill:none" points="219.866,287.094 2352.76,287.094 "/>
<polyline clip-path="url(#clip550)" style="stroke:#000000; stroke-linecap:round; stroke-linejoin:round; stroke-width:4; stroke-opacity:1; fill:none" points="219.866,1423.18 219.866,123.472 "/>
<polyline clip-path="url(#clip550)" style="stroke:#000000; stroke-linecap:round; stroke-linejoin:round; stroke-width:4; stroke-opacity:1; fill:none" points="219.866,1221.58 238.764,1221.58 "/>
<polyline clip-path="url(#clip550)" style="stroke:#000000; stroke-linecap:round; stroke-linejoin:round; stroke-width:4; stroke-opacity:1; fill:none" points="219.866,910.083 238.764,910.083 "/>
<polyline clip-path="url(#clip550)" style="stroke:#000000; stroke-linecap:round; stroke-linejoin:round; stroke-width:4; stroke-opacity:1; fill:none" points="219.866,598.589 238.764,598.589 "/>
<polyline clip-path="url(#clip550)" style="stroke:#000000; stroke-linecap:round; stroke-linejoin:round; stroke-width:4; stroke-opacity:1; fill:none" points="219.866,287.094 238.764,287.094 "/>
<path clip-path="url(#clip550)" d="M126.205 1207.38 Q122.593 1207.38 120.765 1210.94 Q118.959 1214.48 118.959 1221.61 Q118.959 1228.72 120.765 1232.28 Q122.593 1235.82 126.205 1235.82 Q129.839 1235.82 131.644 1232.28 Q133.473 1228.72 133.473 1221.61 Q133.473 1214.48 131.644 1210.94 Q129.839 1207.38 126.205 1207.38 M126.205 1203.67 Q132.015 1203.67 135.07 1208.28 Q138.149 1212.86 138.149 1221.61 Q138.149 1230.34 135.07 1234.95 Q132.015 1239.53 126.205 1239.53 Q120.394 1239.53 117.316 1234.95 Q114.26 1230.34 114.26 1221.61 Q114.26 1212.86 117.316 1208.28 Q120.394 1203.67 126.205 1203.67 Z" fill="#000000" fill-rule="nonzero" fill-opacity="1" /><path clip-path="url(#clip550)" d="M146.366 1232.98 L151.251 1232.98 L151.251 1238.86 L146.366 1238.86 L146.366 1232.98 Z" fill="#000000" fill-rule="nonzero" fill-opacity="1" /><path clip-path="url(#clip550)" d="M174.283 1208.37 L162.477 1226.82 L174.283 1226.82 L174.283 1208.37 M173.056 1204.3 L178.936 1204.3 L178.936 1226.82 L183.866 1226.82 L183.866 1230.71 L178.936 1230.71 L178.936 1238.86 L174.283 1238.86 L174.283 1230.71 L158.681 1230.71 L158.681 1226.2 L173.056 1204.3 Z" fill="#000000" fill-rule="nonzero" fill-opacity="1" /><path clip-path="url(#clip550)" d="M126.529 895.882 Q122.918 895.882 121.089 899.446 Q119.283 902.988 119.283 910.118 Q119.283 917.224 121.089 920.789 Q122.918 924.33 126.529 924.33 Q130.163 924.33 131.968 920.789 Q133.797 917.224 133.797 910.118 Q133.797 902.988 131.968 899.446 Q130.163 895.882 126.529 895.882 M126.529 892.178 Q132.339 892.178 135.394 896.784 Q138.473 901.368 138.473 910.118 Q138.473 918.844 135.394 923.451 Q132.339 928.034 126.529 928.034 Q120.718 928.034 117.64 923.451 Q114.584 918.844 114.584 910.118 Q114.584 901.368 117.64 896.784 Q120.718 892.178 126.529 892.178 Z" fill="#000000" fill-rule="nonzero" fill-opacity="1" /><path clip-path="url(#clip550)" d="M146.691 921.483 L151.575 921.483 L151.575 927.363 L146.691 927.363 L146.691 921.483 Z" fill="#000000" fill-rule="nonzero" fill-opacity="1" /><path clip-path="url(#clip550)" d="M172.339 908.219 Q169.19 908.219 167.339 910.372 Q165.51 912.525 165.51 916.275 Q165.51 920.002 167.339 922.178 Q169.19 924.33 172.339 924.33 Q175.487 924.33 177.315 922.178 Q179.167 920.002 179.167 916.275 Q179.167 912.525 177.315 910.372 Q175.487 908.219 172.339 908.219 M181.621 893.567 L181.621 897.826 Q179.862 896.993 178.056 896.553 Q176.274 896.113 174.514 896.113 Q169.885 896.113 167.431 899.238 Q165.001 902.363 164.653 908.682 Q166.019 906.669 168.079 905.604 Q170.139 904.516 172.616 904.516 Q177.825 904.516 180.834 907.687 Q183.866 910.835 183.866 916.275 Q183.866 921.599 180.718 924.817 Q177.57 928.034 172.339 928.034 Q166.343 928.034 163.172 923.451 Q160.001 918.844 160.001 910.118 Q160.001 901.923 163.89 897.062 Q167.778 892.178 174.329 892.178 Q176.089 892.178 177.871 892.525 Q179.676 892.872 181.621 893.567 Z" fill="#000000" fill-rule="nonzero" fill-opacity="1" /><path clip-path="url(#clip550)" d="M126.783 584.387 Q123.172 584.387 121.343 587.952 Q119.538 591.494 119.538 598.623 Q119.538 605.73 121.343 609.294 Q123.172 612.836 126.783 612.836 Q130.417 612.836 132.223 609.294 Q134.052 605.73 134.052 598.623 Q134.052 591.494 132.223 587.952 Q130.417 584.387 126.783 584.387 M126.783 580.684 Q132.593 580.684 135.649 585.29 Q138.728 589.873 138.728 598.623 Q138.728 607.35 135.649 611.957 Q132.593 616.54 126.783 616.54 Q120.973 616.54 117.894 611.957 Q114.839 607.35 114.839 598.623 Q114.839 589.873 117.894 585.29 Q120.973 580.684 126.783 580.684 Z" fill="#000000" fill-rule="nonzero" fill-opacity="1" /><path clip-path="url(#clip550)" d="M146.945 609.989 L151.829 609.989 L151.829 615.869 L146.945 615.869 L146.945 609.989 Z" fill="#000000" fill-rule="nonzero" fill-opacity="1" /><path clip-path="url(#clip550)" d="M172.014 599.457 Q168.681 599.457 166.76 601.239 Q164.862 603.021 164.862 606.146 Q164.862 609.271 166.76 611.054 Q168.681 612.836 172.014 612.836 Q175.348 612.836 177.269 611.054 Q179.19 609.248 179.19 606.146 Q179.19 603.021 177.269 601.239 Q175.371 599.457 172.014 599.457 M167.339 597.466 Q164.329 596.725 162.64 594.665 Q160.973 592.605 160.973 589.642 Q160.973 585.498 163.913 583.091 Q166.876 580.684 172.014 580.684 Q177.176 580.684 180.116 583.091 Q183.056 585.498 183.056 589.642 Q183.056 592.605 181.366 594.665 Q179.7 596.725 176.714 597.466 Q180.093 598.253 181.968 600.545 Q183.866 602.836 183.866 606.146 Q183.866 611.169 180.788 613.855 Q177.732 616.54 172.014 616.54 Q166.297 616.54 163.218 613.855 Q160.163 611.169 160.163 606.146 Q160.163 602.836 162.061 600.545 Q163.959 598.253 167.339 597.466 M165.626 590.082 Q165.626 592.767 167.292 594.271 Q168.982 595.776 172.014 595.776 Q175.024 595.776 176.714 594.271 Q178.426 592.767 178.426 590.082 Q178.426 587.396 176.714 585.892 Q175.024 584.387 172.014 584.387 Q168.982 584.387 167.292 585.892 Q165.626 587.396 165.626 590.082 Z" fill="#000000" fill-rule="nonzero" fill-opacity="1" /><path clip-path="url(#clip550)" d="M117.501 300.439 L125.14 300.439 L125.14 274.073 L116.83 275.74 L116.83 271.481 L125.093 269.814 L129.769 269.814 L129.769 300.439 L137.408 300.439 L137.408 304.374 L117.501 304.374 L117.501 300.439 Z" fill="#000000" fill-rule="nonzero" fill-opacity="1" /><path clip-path="url(#clip550)" d="M146.853 298.495 L151.737 298.495 L151.737 304.374 L146.853 304.374 L146.853 298.495 Z" fill="#000000" fill-rule="nonzero" fill-opacity="1" /><path clip-path="url(#clip550)" d="M171.922 272.893 Q168.311 272.893 166.482 276.458 Q164.677 279.999 164.677 287.129 Q164.677 294.235 166.482 297.8 Q168.311 301.342 171.922 301.342 Q175.556 301.342 177.362 297.8 Q179.19 294.235 179.19 287.129 Q179.19 279.999 177.362 276.458 Q175.556 272.893 171.922 272.893 M171.922 269.189 Q177.732 269.189 180.788 273.796 Q183.866 278.379 183.866 287.129 Q183.866 295.856 180.788 300.462 Q177.732 305.045 171.922 305.045 Q166.112 305.045 163.033 300.462 Q159.978 295.856 159.978 287.129 Q159.978 278.379 163.033 273.796 Q166.112 269.189 171.922 269.189 Z" fill="#000000" fill-rule="nonzero" fill-opacity="1" /><path clip-path="url(#clip550)" d="M16.4842 837.445 L16.4842 827.864 L48.8219 815.738 L16.4842 803.547 L16.4842 793.967 L64.0042 793.967 L64.0042 800.237 L22.277 800.237 L54.8694 812.491 L54.8694 818.952 L22.277 831.206 L64.0042 831.206 L64.0042 837.445 L16.4842 837.445 Z" fill="#000000" fill-rule="nonzero" fill-opacity="1" /><path clip-path="url(#clip550)" d="M18.0438 752.717 L24.314 752.717 Q22.5634 756.377 21.704 759.624 Q20.8447 762.87 20.8447 765.894 Q20.8447 771.146 22.8817 774.01 Q24.9187 776.843 28.6745 776.843 Q31.8255 776.843 33.4488 774.965 Q35.0402 773.055 36.0269 767.772 L36.8226 763.889 Q38.1912 756.696 41.6605 753.29 Q45.098 749.852 50.8908 749.852 Q57.7976 749.852 61.3624 754.499 Q64.9272 759.115 64.9272 768.058 Q64.9272 771.432 64.1633 775.252 Q63.3994 779.039 61.9035 783.113 L55.2831 783.113 Q57.4793 779.198 58.5933 775.443 Q59.7073 771.687 59.7073 768.058 Q59.7073 762.552 57.543 759.56 Q55.3786 756.568 51.3682 756.568 Q47.8671 756.568 45.8937 758.733 Q43.9204 760.865 42.9337 765.767 L42.1698 769.682 Q40.7375 776.875 37.682 780.09 Q34.6264 783.304 29.1837 783.304 Q22.8817 783.304 19.2532 778.88 Q15.6248 774.424 15.6248 766.626 Q15.6248 763.284 16.2295 759.815 Q16.8343 756.345 18.0438 752.717 Z" fill="#000000" fill-rule="nonzero" fill-opacity="1" /><path clip-path="url(#clip550)" d="M16.4842 739.826 L16.4842 709.78 L21.895 709.78 L21.895 733.397 L35.9632 733.397 L35.9632 710.767 L41.3741 710.767 L41.3741 733.397 L58.5933 733.397 L58.5933 709.207 L64.0042 709.207 L64.0042 739.826 L16.4842 739.826 Z" fill="#000000" fill-rule="nonzero" fill-opacity="1" /><path clip-path="url(#clip550)" d="M877.514 12.096 L889.707 12.096 L905.141 53.2532 L920.656 12.096 L932.849 12.096 L932.849 72.576 L924.869 72.576 L924.869 19.4686 L909.273 60.9499 L901.05 60.9499 L885.454 19.4686 L885.454 72.576 L877.514 72.576 L877.514 12.096 Z" fill="#000000" fill-rule="nonzero" fill-opacity="1" /><path clip-path="url(#clip550)" d="M987.577 48.0275 L987.577 51.6733 L953.307 51.6733 Q953.793 59.3701 957.925 63.421 Q962.097 67.4314 969.51 67.4314 Q973.804 67.4314 977.814 66.3781 Q981.865 65.3249 985.835 63.2184 L985.835 70.267 Q981.825 71.9684 977.612 72.8596 Q973.399 73.7508 969.065 73.7508 Q958.208 73.7508 951.848 67.4314 Q945.529 61.1119 945.529 50.3365 Q945.529 39.1965 951.524 32.6746 Q957.56 26.1121 967.768 26.1121 Q976.923 26.1121 982.23 32.0264 Q987.577 37.9003 987.577 48.0275 M980.123 45.84 Q980.042 39.7232 976.68 36.0774 Q973.358 32.4315 967.849 32.4315 Q961.611 32.4315 957.844 35.9558 Q954.117 39.4801 953.55 45.8805 L980.123 45.84 Z" fill="#000000" fill-rule="nonzero" fill-opacity="1" /><path clip-path="url(#clip550)" d="M1020.43 49.7694 Q1011.4 49.7694 1007.91 51.8354 Q1004.43 53.9013 1004.43 58.8839 Q1004.43 62.8538 1007.02 65.2034 Q1009.65 67.5124 1014.15 67.5124 Q1020.35 67.5124 1024.08 63.1374 Q1027.84 58.7219 1027.84 51.4303 L1027.84 49.7694 L1020.43 49.7694 M1035.3 46.6907 L1035.3 72.576 L1027.84 72.576 L1027.84 65.6895 Q1025.29 69.8214 1021.48 71.8063 Q1017.68 73.7508 1012.17 73.7508 Q1005.2 73.7508 1001.07 69.8619 Q996.975 65.9325 996.975 59.3701 Q996.975 51.7138 1002.08 47.825 Q1007.22 43.9361 1017.39 43.9361 L1027.84 43.9361 L1027.84 43.2069 Q1027.84 38.0623 1024.44 35.2672 Q1021.08 32.4315 1014.96 32.4315 Q1011.07 32.4315 1007.39 33.3632 Q1003.7 34.295 1000.3 36.1584 L1000.3 29.2718 Q1004.39 27.692 1008.24 26.9223 Q1012.09 26.1121 1015.73 26.1121 Q1025.57 26.1121 1030.44 31.2163 Q1035.3 36.3204 1035.3 46.6907 Z" fill="#000000" fill-rule="nonzero" fill-opacity="1" /><path clip-path="url(#clip550)" d="M1088.36 45.1919 L1088.36 72.576 L1080.91 72.576 L1080.91 45.4349 Q1080.91 38.994 1078.4 35.7938 Q1075.89 32.5936 1070.86 32.5936 Q1064.83 32.5936 1061.34 36.4419 Q1057.86 40.2903 1057.86 46.9338 L1057.86 72.576 L1050.37 72.576 L1050.37 27.2059 L1057.86 27.2059 L1057.86 34.2544 Q1060.53 30.163 1064.14 28.1376 Q1067.79 26.1121 1072.52 26.1121 Q1080.34 26.1121 1084.35 30.9732 Q1088.36 35.7938 1088.36 45.1919 Z" fill="#000000" fill-rule="nonzero" fill-opacity="1" /><path clip-path="url(#clip550)" d="M1166.18 14.0809 L1166.18 22.0612 Q1161.52 19.8332 1157.39 18.7395 Q1153.26 17.6457 1149.41 17.6457 Q1142.73 17.6457 1139.08 20.2383 Q1135.48 22.8309 1135.48 27.611 Q1135.48 31.6214 1137.87 33.6873 Q1140.3 35.7128 1147.02 36.9686 L1151.96 37.9813 Q1161.12 39.7232 1165.45 44.1387 Q1169.83 48.5136 1169.83 55.8863 Q1169.83 64.6767 1163.91 69.2137 Q1158.04 73.7508 1146.66 73.7508 Q1142.36 73.7508 1137.5 72.7785 Q1132.68 71.8063 1127.5 69.9024 L1127.5 61.4765 Q1132.48 64.2716 1137.26 65.6895 Q1142.04 67.1073 1146.66 67.1073 Q1153.66 67.1073 1157.47 64.3527 Q1161.28 61.598 1161.28 56.4939 Q1161.28 52.0379 1158.53 49.5264 Q1155.81 47.0148 1149.57 45.759 L1144.59 44.7868 Q1135.44 42.9639 1131.34 39.075 Q1127.25 35.1862 1127.25 28.2591 Q1127.25 20.2383 1132.88 15.6203 Q1138.55 11.0023 1148.48 11.0023 Q1152.73 11.0023 1157.15 11.7719 Q1161.56 12.5416 1166.18 14.0809 Z" fill="#000000" fill-rule="nonzero" fill-opacity="1" /><path clip-path="url(#clip550)" d="M1186.72 49.9314 Q1186.72 58.1548 1190.08 62.8538 Q1193.48 67.5124 1199.4 67.5124 Q1205.31 67.5124 1208.72 62.8538 Q1212.12 58.1548 1212.12 49.9314 Q1212.12 41.7081 1208.72 37.0496 Q1205.31 32.3505 1199.4 32.3505 Q1193.48 32.3505 1190.08 37.0496 Q1186.72 41.7081 1186.72 49.9314 M1212.12 65.7705 Q1209.77 69.8214 1206.16 71.8063 Q1202.6 73.7508 1197.58 73.7508 Q1189.35 73.7508 1184.17 67.1883 Q1179.02 60.6258 1179.02 49.9314 Q1179.02 39.2371 1184.17 32.6746 Q1189.35 26.1121 1197.58 26.1121 Q1202.6 26.1121 1206.16 28.0971 Q1209.77 30.0415 1212.12 34.0924 L1212.12 27.2059 L1219.57 27.2059 L1219.57 89.8329 L1212.12 89.8329 L1212.12 65.7705 Z" fill="#000000" fill-rule="nonzero" fill-opacity="1" /><path clip-path="url(#clip550)" d="M1234.16 54.671 L1234.16 27.2059 L1241.61 27.2059 L1241.61 54.3874 Q1241.61 60.8284 1244.12 64.0691 Q1246.63 67.2693 1251.66 67.2693 Q1257.69 67.2693 1261.18 63.421 Q1264.7 59.5726 1264.7 52.9291 L1264.7 27.2059 L1272.15 27.2059 L1272.15 72.576 L1264.7 72.576 L1264.7 65.6084 Q1261.99 69.7404 1258.38 71.7658 Q1254.82 73.7508 1250.08 73.7508 Q1242.26 73.7508 1238.21 68.8897 Q1234.16 64.0286 1234.16 54.671 M1252.91 26.1121 L1252.91 26.1121 Z" fill="#000000" fill-rule="nonzero" fill-opacity="1" /><path clip-path="url(#clip550)" d="M1308.13 49.7694 Q1299.09 49.7694 1295.61 51.8354 Q1292.12 53.9013 1292.12 58.8839 Q1292.12 62.8538 1294.72 65.2034 Q1297.35 67.5124 1301.85 67.5124 Q1308.04 67.5124 1311.77 63.1374 Q1315.54 58.7219 1315.54 51.4303 L1315.54 49.7694 L1308.13 49.7694 M1322.99 46.6907 L1322.99 72.576 L1315.54 72.576 L1315.54 65.6895 Q1312.99 69.8214 1309.18 71.8063 Q1305.37 73.7508 1299.86 73.7508 Q1292.89 73.7508 1288.76 69.8619 Q1284.67 65.9325 1284.67 59.3701 Q1284.67 51.7138 1289.77 47.825 Q1294.92 43.9361 1305.09 43.9361 L1315.54 43.9361 L1315.54 43.2069 Q1315.54 38.0623 1312.14 35.2672 Q1308.77 32.4315 1302.66 32.4315 Q1298.77 32.4315 1295.08 33.3632 Q1291.39 34.295 1287.99 36.1584 L1287.99 29.2718 Q1292.08 27.692 1295.93 26.9223 Q1299.78 26.1121 1303.43 26.1121 Q1313.27 26.1121 1318.13 31.2163 Q1322.99 36.3204 1322.99 46.6907 Z" fill="#000000" fill-rule="nonzero" fill-opacity="1" /><path clip-path="url(#clip550)" d="M1364.64 34.1734 Q1363.38 33.4443 1361.88 33.1202 Q1360.42 32.7556 1358.64 32.7556 Q1352.32 32.7556 1348.92 36.8875 Q1345.56 40.9789 1345.56 48.6757 L1345.56 72.576 L1338.06 72.576 L1338.06 27.2059 L1345.56 27.2059 L1345.56 34.2544 Q1347.91 30.1225 1351.67 28.1376 Q1355.44 26.1121 1360.83 26.1121 Q1361.6 26.1121 1362.53 26.2337 Q1363.46 26.3147 1364.59 26.5172 L1364.64 34.1734 Z" fill="#000000" fill-rule="nonzero" fill-opacity="1" /><path clip-path="url(#clip550)" d="M1409.44 48.0275 L1409.44 51.6733 L1375.17 51.6733 Q1375.65 59.3701 1379.79 63.421 Q1383.96 67.4314 1391.37 67.4314 Q1395.67 67.4314 1399.68 66.3781 Q1403.73 65.3249 1407.7 63.2184 L1407.7 70.267 Q1403.69 71.9684 1399.47 72.8596 Q1395.26 73.7508 1390.93 73.7508 Q1380.07 73.7508 1373.71 67.4314 Q1367.39 61.1119 1367.39 50.3365 Q1367.39 39.1965 1373.39 32.6746 Q1379.42 26.1121 1389.63 26.1121 Q1398.78 26.1121 1404.09 32.0264 Q1409.44 37.9003 1409.44 48.0275 M1401.98 45.84 Q1401.9 39.7232 1398.54 36.0774 Q1395.22 32.4315 1389.71 32.4315 Q1383.47 32.4315 1379.7 35.9558 Q1375.98 39.4801 1375.41 45.8805 L1401.98 45.84 Z" fill="#000000" fill-rule="nonzero" fill-opacity="1" /><path clip-path="url(#clip550)" d="M1451.53 34.0924 L1451.53 9.54393 L1458.98 9.54393 L1458.98 72.576 L1451.53 72.576 L1451.53 65.7705 Q1449.18 69.8214 1445.57 71.8063 Q1442.01 73.7508 1436.98 73.7508 Q1428.76 73.7508 1423.58 67.1883 Q1418.43 60.6258 1418.43 49.9314 Q1418.43 39.2371 1423.58 32.6746 Q1428.76 26.1121 1436.98 26.1121 Q1442.01 26.1121 1445.57 28.0971 Q1449.18 30.0415 1451.53 34.0924 M1426.13 49.9314 Q1426.13 58.1548 1429.49 62.8538 Q1432.89 67.5124 1438.81 67.5124 Q1444.72 67.5124 1448.12 62.8538 Q1451.53 58.1548 1451.53 49.9314 Q1451.53 41.7081 1448.12 37.0496 Q1444.72 32.3505 1438.81 32.3505 Q1432.89 32.3505 1429.49 37.0496 Q1426.13 41.7081 1426.13 49.9314 Z" fill="#000000" fill-rule="nonzero" fill-opacity="1" /><path clip-path="url(#clip550)" d="M1501.03 12.096 L1539.27 12.096 L1539.27 18.9825 L1509.21 18.9825 L1509.21 36.8875 L1538.01 36.8875 L1538.01 43.7741 L1509.21 43.7741 L1509.21 65.6895 L1540 65.6895 L1540 72.576 L1501.03 72.576 L1501.03 12.096 Z" fill="#000000" fill-rule="nonzero" fill-opacity="1" /><path clip-path="url(#clip550)" d="M1579.41 34.1734 Q1578.16 33.4443 1576.66 33.1202 Q1575.2 32.7556 1573.42 32.7556 Q1567.1 32.7556 1563.7 36.8875 Q1560.33 40.9789 1560.33 48.6757 L1560.33 72.576 L1552.84 72.576 L1552.84 27.2059 L1560.33 27.2059 L1560.33 34.2544 Q1562.68 30.1225 1566.45 28.1376 Q1570.22 26.1121 1575.61 26.1121 Q1576.38 26.1121 1577.31 26.2337 Q1578.24 26.3147 1579.37 26.5172 L1579.41 34.1734 Z" fill="#000000" fill-rule="nonzero" fill-opacity="1" /><path clip-path="url(#clip550)" d="M1612.06 34.1734 Q1610.81 33.4443 1609.31 33.1202 Q1607.85 32.7556 1606.07 32.7556 Q1599.75 32.7556 1596.35 36.8875 Q1592.98 40.9789 1592.98 48.6757 L1592.98 72.576 L1585.49 72.576 L1585.49 27.2059 L1592.98 27.2059 L1592.98 34.2544 Q1595.33 30.1225 1599.1 28.1376 Q1602.87 26.1121 1608.26 26.1121 Q1609.03 26.1121 1609.96 26.2337 Q1610.89 26.3147 1612.02 26.5172 L1612.06 34.1734 Z" fill="#000000" fill-rule="nonzero" fill-opacity="1" /><path clip-path="url(#clip550)" d="M1635.64 32.4315 Q1629.65 32.4315 1626.16 37.1306 Q1622.68 41.7891 1622.68 49.9314 Q1622.68 58.0738 1626.12 62.7728 Q1629.6 67.4314 1635.64 67.4314 Q1641.6 67.4314 1645.08 62.7323 Q1648.56 58.0333 1648.56 49.9314 Q1648.56 41.8701 1645.08 37.1711 Q1641.6 32.4315 1635.64 32.4315 M1635.64 26.1121 Q1645.36 26.1121 1650.91 32.4315 Q1656.46 38.7509 1656.46 49.9314 Q1656.46 61.0714 1650.91 67.4314 Q1645.36 73.7508 1635.64 73.7508 Q1625.88 73.7508 1620.33 67.4314 Q1614.82 61.0714 1614.82 49.9314 Q1614.82 38.7509 1620.33 32.4315 Q1625.88 26.1121 1635.64 26.1121 Z" fill="#000000" fill-rule="nonzero" fill-opacity="1" /><path clip-path="url(#clip550)" d="M1695.11 34.1734 Q1693.85 33.4443 1692.35 33.1202 Q1690.9 32.7556 1689.11 32.7556 Q1682.79 32.7556 1679.39 36.8875 Q1676.03 40.9789 1676.03 48.6757 L1676.03 72.576 L1668.53 72.576 L1668.53 27.2059 L1676.03 27.2059 L1676.03 34.2544 Q1678.38 30.1225 1682.15 28.1376 Q1685.91 26.1121 1691.3 26.1121 Q1692.07 26.1121 1693 26.2337 Q1693.93 26.3147 1695.07 26.5172 L1695.11 34.1734 Z" fill="#000000" fill-rule="nonzero" fill-opacity="1" /><polyline clip-path="url(#clip552)" style="stroke:#009af9; stroke-linecap:round; stroke-linejoin:round; stroke-width:4; stroke-opacity:1; fill:none" points="280.231,612.917 309.393,341.638 338.555,559.89 367.716,443.448 396.878,668.047 426.04,621.908 455.202,742.709 484.363,673.465 513.525,585.806 542.687,684.846 571.848,560.186 601.01,757.772 630.172,724.742 659.334,589.842 688.495,635.443 717.657,491.399 746.819,719.979 775.981,563.858 805.142,160.256 834.304,247.192 863.466,627.609 892.628,390.633 921.789,799.304 950.951,614.478 980.113,695.621 1009.27,686.603 1038.44,646.506 1067.6,570.003 1096.76,653.788 1125.92,679.781 1155.08,317.627 1184.24,617.281 1213.41,312.983 1242.57,702.399 1271.73,684.378 1300.89,175.812 1330.05,548.73 1359.22,630.412 1388.38,698.234 1417.54,625.833 1446.7,646.719 1475.86,654.857 1505.02,636.409 1534.19,671.752 1563.35,661.702 1592.51,427.47 1621.67,641.121 1650.83,707.749 1679.99,500.086 1709.16,398.326 1738.32,633.44 1767.48,498.696 1796.64,547.336 1825.8,601.995 1854.97,661.707 1884.13,632.919 1913.29,732.489 1942.45,742.986 1971.61,641.971 2000.77,694.846 2029.94,791.512 2059.1,930.552 2088.26,789.012 2117.42,908.943 2146.58,773.92 2175.74,835.818 2204.91,1004.91 2234.07,693.24 2263.23,838.208 2292.39,816.196 "/>
<polyline clip-path="url(#clip552)" style="stroke:#e26f46; stroke-linecap:round; stroke-linejoin:round; stroke-width:4; stroke-opacity:1; fill:none" points="280.231,1149.51 309.393,1052.39 338.555,1066.1 367.716,1107.92 396.878,1100.54 426.04,1122.96 455.202,1189.82 484.363,1212.58 513.525,1341.54 542.687,1313.24 571.848,1321.72 601.01,1324 630.172,1322.02 659.334,1181.69 688.495,1316.58 717.657,908.505 746.819,1191.39 775.981,1074.24 805.142,783.647 834.304,904.631 863.466,1077.12 892.628,1009.72 921.789,1375.75 950.951,1297.93 980.113,1324.06 1009.27,1386.4 1038.44,1262.26 1067.6,1340.32 1096.76,1317.14 1125.92,1264.01 1155.08,935.739 1184.24,1156.4 1213.41,910.55 1242.57,1071.36 1271.73,997.535 1300.89,977.688 1330.05,1177.84 1359.22,1312.62 1388.38,1292.46 1417.54,1291.01 1446.7,1378.9 1475.86,1242.65 1505.02,1252.34 1534.19,1307.25 1563.35,1299.49 1592.51,929.276 1621.67,1030.14 1650.83,1102.74 1679.99,1110.52 1709.16,1045.53 1738.32,1112.14 1767.48,1054.23 1796.64,1307.53 1825.8,1330.09 1854.97,1260.6 1884.13,1322.7 1913.29,1182.59 1942.45,1292.57 1971.61,1266.69 2000.77,1366.79 2029.94,753.209 2059.1,1063.47 2088.26,769.741 2117.42,875.606 2146.58,668.133 2175.74,867.545 2204.91,882.016 2234.07,757.574 2263.23,837.833 2292.39,784.448 "/>
<polyline clip-path="url(#clip552)" style="stroke:#3da44d; stroke-linecap:round; stroke-linejoin:round; stroke-width:4; stroke-opacity:1; fill:none" points="280.231,1142.29 309.393,1185.05 338.555,1096.97 367.716,1159.18 396.878,1041.98 426.04,1134.42 455.202,1161.13 484.363,1179.49 513.525,1373.04 542.687,1313.93 571.848,1313.55 601.01,1342.35 630.172,1310.19 659.334,1120.76 688.495,1326.32 717.657,1010.16 746.819,1206.92 775.981,1107.42 805.142,901.567 834.304,987.409 863.466,1047.24 892.628,1088.94 921.789,1313.84 950.951,1326.16 980.113,1308.76 1009.27,1354.13 1038.44,1320.45 1067.6,1314.62 1096.76,1324.12 1125.92,1322.66 1155.08,922.13 1184.24,1137.15 1213.41,792.175 1242.57,1054.08 1271.73,1035.38 1300.89,1074.97 1330.05,1177.57 1359.22,1332.13 1388.38,1265.7 1417.54,1303.86 1446.7,1357.49 1475.86,1160.29 1505.02,1273.68 1534.19,1306.15 1563.35,1291.21 1592.51,954.138 1621.67,1086.63 1650.83,1229.7 1679.99,1061.13 1709.16,1008.6 1738.32,1076.5 1767.48,1030.3 1796.64,1275.41 1825.8,1321.46 1854.97,1267.13 1884.13,1303.38 1913.29,1225.58 1942.45,1262.21 1971.61,1256.11 2000.77,1374.31 2029.94,741.4 2059.1,953.655 2088.26,858.19 2117.42,965.385 2146.58,818.373 2175.74,869.212 2204.91,835.163 2234.07,838.023 2263.23,765.901 2292.39,828.662 "/>
<path clip-path="url(#clip550)" d="M1984.97 374.156 L2281.66 374.156 L2281.66 166.796 L1984.97 166.796  Z" fill="#ffffff" fill-rule="evenodd" fill-opacity="1"/>
<polyline clip-path="url(#clip550)" style="stroke:#000000; stroke-linecap:round; stroke-linejoin:round; stroke-width:4; stroke-opacity:1; fill:none" points="1984.97,374.156 2281.66,374.156 2281.66,166.796 1984.97,166.796 1984.97,374.156 "/>
<polyline clip-path="url(#clip550)" style="stroke:#009af9; stroke-linecap:round; stroke-linejoin:round; stroke-width:4; stroke-opacity:1; fill:none" points="2008.67,218.636 2150.86,218.636 "/>
<path clip-path="url(#clip550)" d="M2181.97 202.629 L2181.97 209.99 L2190.74 209.99 L2190.74 213.3 L2181.97 213.3 L2181.97 227.374 Q2181.97 230.545 2182.82 231.448 Q2183.7 232.351 2186.36 232.351 L2190.74 232.351 L2190.74 235.916 L2186.36 235.916 Q2181.43 235.916 2179.56 234.087 Q2177.68 232.235 2177.68 227.374 L2177.68 213.3 L2174.56 213.3 L2174.56 209.99 L2177.68 209.99 L2177.68 202.629 L2181.97 202.629 Z" fill="#000000" fill-rule="nonzero" fill-opacity="1" /><path clip-path="url(#clip550)" d="M2196.9 214.388 L2226.57 214.388 L2226.57 218.277 L2196.9 218.277 L2196.9 214.388 M2196.9 223.832 L2226.57 223.832 L2226.57 227.768 L2196.9 227.768 L2196.9 223.832 Z" fill="#000000" fill-rule="nonzero" fill-opacity="1" /><path clip-path="url(#clip550)" d="M2237.47 231.981 L2245.11 231.981 L2245.11 205.615 L2236.8 207.282 L2236.8 203.022 L2245.07 201.356 L2249.74 201.356 L2249.74 231.981 L2257.38 231.981 L2257.38 235.916 L2237.47 235.916 L2237.47 231.981 Z" fill="#000000" fill-rule="nonzero" fill-opacity="1" /><polyline clip-path="url(#clip550)" style="stroke:#e26f46; stroke-linecap:round; stroke-linejoin:round; stroke-width:4; stroke-opacity:1; fill:none" points="2008.67,270.476 2150.86,270.476 "/>
<path clip-path="url(#clip550)" d="M2181.97 254.469 L2181.97 261.83 L2190.74 261.83 L2190.74 265.14 L2181.97 265.14 L2181.97 279.214 Q2181.97 282.385 2182.82 283.288 Q2183.7 284.191 2186.36 284.191 L2190.74 284.191 L2190.74 287.756 L2186.36 287.756 Q2181.43 287.756 2179.56 285.927 Q2177.68 284.075 2177.68 279.214 L2177.68 265.14 L2174.56 265.14 L2174.56 261.83 L2177.68 261.83 L2177.68 254.469 L2181.97 254.469 Z" fill="#000000" fill-rule="nonzero" fill-opacity="1" /><path clip-path="url(#clip550)" d="M2196.9 266.228 L2226.57 266.228 L2226.57 270.117 L2196.9 270.117 L2196.9 266.228 M2196.9 275.672 L2226.57 275.672 L2226.57 279.608 L2196.9 279.608 L2196.9 275.672 Z" fill="#000000" fill-rule="nonzero" fill-opacity="1" /><path clip-path="url(#clip550)" d="M2240.69 283.821 L2257.01 283.821 L2257.01 287.756 L2235.07 287.756 L2235.07 283.821 Q2237.73 281.066 2242.31 276.436 Q2246.92 271.784 2248.1 270.441 Q2250.35 267.918 2251.22 266.182 Q2252.13 264.423 2252.13 262.733 Q2252.13 259.978 2250.18 258.242 Q2248.26 256.506 2245.16 256.506 Q2242.96 256.506 2240.51 257.27 Q2238.08 258.034 2235.3 259.585 L2235.3 254.862 Q2238.12 253.728 2240.58 253.149 Q2243.03 252.571 2245.07 252.571 Q2250.44 252.571 2253.63 255.256 Q2256.83 257.941 2256.83 262.432 Q2256.83 264.561 2256.02 266.483 Q2255.23 268.381 2253.12 270.973 Q2252.54 271.645 2249.44 274.862 Q2246.34 278.057 2240.69 283.821 Z" fill="#000000" fill-rule="nonzero" fill-opacity="1" /><polyline clip-path="url(#clip550)" style="stroke:#3da44d; stroke-linecap:round; stroke-linejoin:round; stroke-width:4; stroke-opacity:1; fill:none" points="2008.67,322.316 2150.86,322.316 "/>
<path clip-path="url(#clip550)" d="M2181.97 306.309 L2181.97 313.67 L2190.74 313.67 L2190.74 316.98 L2181.97 316.98 L2181.97 331.054 Q2181.97 334.225 2182.82 335.128 Q2183.7 336.031 2186.36 336.031 L2190.74 336.031 L2190.74 339.596 L2186.36 339.596 Q2181.43 339.596 2179.56 337.767 Q2177.68 335.915 2177.68 331.054 L2177.68 316.98 L2174.56 316.98 L2174.56 313.67 L2177.68 313.67 L2177.68 306.309 L2181.97 306.309 Z" fill="#000000" fill-rule="nonzero" fill-opacity="1" /><path clip-path="url(#clip550)" d="M2196.9 318.068 L2226.57 318.068 L2226.57 321.957 L2196.9 321.957 L2196.9 318.068 M2196.9 327.512 L2226.57 327.512 L2226.57 331.448 L2196.9 331.448 L2196.9 327.512 Z" fill="#000000" fill-rule="nonzero" fill-opacity="1" /><path clip-path="url(#clip550)" d="M2250.83 320.962 Q2254.19 321.679 2256.06 323.948 Q2257.96 326.216 2257.96 329.549 Q2257.96 334.665 2254.44 337.466 Q2250.92 340.267 2244.44 340.267 Q2242.27 340.267 2239.95 339.827 Q2237.66 339.411 2235.21 338.554 L2235.21 334.04 Q2237.15 335.174 2239.47 335.753 Q2241.78 336.332 2244.3 336.332 Q2248.7 336.332 2250.99 334.596 Q2253.31 332.86 2253.31 329.549 Q2253.31 326.494 2251.16 324.781 Q2249.03 323.045 2245.21 323.045 L2241.18 323.045 L2241.18 319.202 L2245.39 319.202 Q2248.84 319.202 2250.67 317.837 Q2252.5 316.448 2252.5 313.855 Q2252.5 311.193 2250.6 309.781 Q2248.72 308.346 2245.21 308.346 Q2243.28 308.346 2241.09 308.763 Q2238.89 309.179 2236.25 310.059 L2236.25 305.892 Q2238.91 305.151 2241.22 304.781 Q2243.56 304.411 2245.62 304.411 Q2250.95 304.411 2254.05 306.841 Q2257.15 309.249 2257.15 313.369 Q2257.15 316.239 2255.51 318.23 Q2253.86 320.198 2250.83 320.962 Z" fill="#000000" fill-rule="nonzero" fill-opacity="1" /></svg>
