<?xml version="1.0" encoding="utf-8"?>
<svg xmlns="http://www.w3.org/2000/svg" xmlns:xlink="http://www.w3.org/1999/xlink" width="600" height="400" viewBox="0 0 2400 1600">
<defs>
  <clipPath id="clip140">
    <rect x="0" y="0" width="2400" height="1600"/>
  </clipPath>
</defs>
<path clip-path="url(#clip140)" d="M0 1600 L2400 1600 L2400 8.88178e-14 L0 8.88178e-14  Z" fill="#ffffff" fill-rule="evenodd" fill-opacity="1"/>
<defs>
  <clipPath id="clip141">
    <rect x="480" y="0" width="1681" height="1600"/>
  </clipPath>
</defs>
<path clip-path="url(#clip140)" d="M219.866 1423.18 L2352.76 1423.18 L2352.76 123.472 L219.866 123.472  Z" fill="#ffffff" fill-rule="evenodd" fill-opacity="1"/>
<defs>
  <clipPath id="clip142">
    <rect x="219" y="123" width="2134" height="1301"/>
  </clipPath>
</defs>
<polyline clip-path="url(#clip142)" style="stroke:#000000; stroke-linecap:round; stroke-linejoin:round; stroke-width:2; stroke-opacity:0.1; fill:none" points="280.231,1423.18 280.231,123.472 "/>
<polyline clip-path="url(#clip142)" style="stroke:#000000; stroke-linecap:round; stroke-linejoin:round; stroke-width:2; stroke-opacity:0.1; fill:none" points="950.951,1423.18 950.951,123.472 "/>
<polyline clip-path="url(#clip142)" style="stroke:#000000; stroke-linecap:round; stroke-linejoin:round; stroke-width:2; stroke-opacity:0.1; fill:none" points="1621.67,1423.18 1621.67,123.472 "/>
<polyline clip-path="url(#clip142)" style="stroke:#000000; stroke-linecap:round; stroke-linejoin:round; stroke-width:2; stroke-opacity:0.1; fill:none" points="2292.39,1423.18 2292.39,123.472 "/>
<polyline clip-path="url(#clip140)" style="stroke:#000000; stroke-linecap:round; stroke-linejoin:round; stroke-width:4; stroke-opacity:1; fill:none" points="219.866,1423.18 2352.76,1423.18 "/>
<polyline clip-path="url(#clip140)" style="stroke:#000000; stroke-linecap:round; stroke-linejoin:round; stroke-width:4; stroke-opacity:1; fill:none" points="280.231,1423.18 280.231,1404.28 "/>
<polyline clip-path="url(#clip140)" style="stroke:#000000; stroke-linecap:round; stroke-linejoin:round; stroke-width:4; stroke-opacity:1; fill:none" points="950.951,1423.18 950.951,1404.28 "/>
<polyline clip-path="url(#clip140)" style="stroke:#000000; stroke-linecap:round; stroke-linejoin:round; stroke-width:4; stroke-opacity:1; fill:none" points="1621.67,1423.18 1621.67,1404.28 "/>
<polyline clip-path="url(#clip140)" style="stroke:#000000; stroke-linecap:round; stroke-linejoin:round; stroke-width:4; stroke-opacity:1; fill:none" points="2292.39,1423.18 2292.39,1404.28 "/>
<path clip-path="url(#clip140)" d="M270.613 1481.64 L278.252 1481.64 L278.252 1455.28 L269.942 1456.95 L269.942 1452.69 L278.206 1451.02 L282.882 1451.02 L282.882 1481.64 L290.52 1481.64 L290.52 1485.58 L270.613 1485.58 L270.613 1481.64 Z" fill="#000000" fill-rule="nonzero" fill-opacity="1" /><path clip-path="url(#clip140)" d="M945.604 1481.64 L961.923 1481.64 L961.923 1485.58 L939.979 1485.58 L939.979 1481.64 Q942.641 1478.89 947.224 1474.26 Q951.831 1469.61 953.011 1468.27 Q955.257 1465.74 956.136 1464.01 Q957.039 1462.25 957.039 1460.56 Q957.039 1457.8 955.095 1456.07 Q953.173 1454.33 950.071 1454.33 Q947.872 1454.33 945.419 1455.09 Q942.988 1455.86 940.21 1457.41 L940.21 1452.69 Q943.034 1451.55 945.488 1450.97 Q947.942 1450.39 949.979 1450.39 Q955.349 1450.39 958.544 1453.08 Q961.738 1455.77 961.738 1460.26 Q961.738 1462.39 960.928 1464.31 Q960.141 1466.2 958.034 1468.8 Q957.456 1469.47 954.354 1472.69 Q951.252 1475.88 945.604 1481.64 Z" fill="#000000" fill-rule="nonzero" fill-opacity="1" /><path clip-path="url(#clip140)" d="M1625.92 1466.95 Q1629.28 1467.66 1631.15 1469.93 Q1633.05 1472.2 1633.05 1475.53 Q1633.05 1480.65 1629.53 1483.45 Q1626.01 1486.25 1619.53 1486.25 Q1617.35 1486.25 1615.04 1485.81 Q1612.75 1485.39 1610.29 1484.54 L1610.29 1480.02 Q1612.24 1481.16 1614.55 1481.74 Q1616.87 1482.32 1619.39 1482.32 Q1623.79 1482.32 1626.08 1480.58 Q1628.4 1478.84 1628.4 1475.53 Q1628.4 1472.48 1626.24 1470.77 Q1624.11 1469.03 1620.29 1469.03 L1616.27 1469.03 L1616.27 1465.19 L1620.48 1465.19 Q1623.93 1465.19 1625.76 1463.82 Q1627.59 1462.43 1627.59 1459.84 Q1627.59 1457.18 1625.69 1455.77 Q1623.81 1454.33 1620.29 1454.33 Q1618.37 1454.33 1616.17 1454.75 Q1613.97 1455.16 1611.34 1456.04 L1611.34 1451.88 Q1614 1451.14 1616.31 1450.77 Q1618.65 1450.39 1620.71 1450.39 Q1626.03 1450.39 1629.14 1452.83 Q1632.24 1455.23 1632.24 1459.35 Q1632.24 1462.22 1630.59 1464.21 Q1628.95 1466.18 1625.92 1466.95 Z" fill="#000000" fill-rule="nonzero" fill-opacity="1" /><path clip-path="url(#clip140)" d="M2295.4 1455.09 L2283.59 1473.54 L2295.4 1473.54 L2295.4 1455.09 M2294.17 1451.02 L2300.05 1451.02 L2300.05 1473.54 L2304.98 1473.54 L2304.98 1477.43 L2300.05 1477.43 L2300.05 1485.58 L2295.4 1485.58 L2295.4 1477.43 L2279.8 1477.43 L2279.8 1472.92 L2294.17 1451.02 Z" fill="#000000" fill-rule="nonzero" fill-opacity="1" /><path clip-path="url(#clip140)" d="M1221.87 1561.26 L1221.87 1548.5 L1211.37 1548.5 L1211.37 1543.22 L1228.24 1543.22 L1228.24 1563.62 Q1224.52 1566.26 1220.03 1567.63 Q1215.54 1568.97 1210.45 1568.97 Q1199.31 1568.97 1193.01 1562.47 Q1186.74 1555.95 1186.74 1544.33 Q1186.74 1532.68 1193.01 1526.19 Q1199.31 1519.66 1210.45 1519.66 Q1215.09 1519.66 1219.26 1520.81 Q1223.47 1521.96 1227 1524.18 L1227 1531.03 Q1223.43 1528 1219.42 1526.48 Q1215.41 1524.95 1210.99 1524.95 Q1202.27 1524.95 1197.88 1529.82 Q1193.51 1534.69 1193.51 1544.33 Q1193.51 1553.94 1197.88 1558.81 Q1202.27 1563.68 1210.99 1563.68 Q1214.39 1563.68 1217.07 1563.11 Q1219.74 1562.51 1221.87 1561.26 Z" fill="#000000" fill-rule="nonzero" fill-opacity="1" /><path clip-path="url(#clip140)" d="M1270.22 1548.76 L1270.22 1551.62 L1243.29 1551.62 Q1243.68 1557.67 1246.92 1560.85 Q1250.2 1564 1256.03 1564 Q1259.4 1564 1262.55 1563.17 Q1265.73 1562.35 1268.85 1560.69 L1268.85 1566.23 Q1265.7 1567.57 1262.39 1568.27 Q1259.08 1568.97 1255.68 1568.97 Q1247.15 1568.97 1242.15 1564 Q1237.18 1559.04 1237.18 1550.57 Q1237.18 1541.82 1241.89 1536.69 Q1246.64 1531.54 1254.66 1531.54 Q1261.85 1531.54 1266.02 1536.18 Q1270.22 1540.8 1270.22 1548.76 M1264.37 1547.04 Q1264.3 1542.23 1261.66 1539.37 Q1259.05 1536.5 1254.72 1536.5 Q1249.82 1536.5 1246.86 1539.27 Q1243.93 1542.04 1243.49 1547.07 L1264.37 1547.04 Z" fill="#000000" fill-rule="nonzero" fill-opacity="1" /><path clip-path="url(#clip140)" d="M1309.47 1546.53 L1309.47 1568.04 L1303.61 1568.04 L1303.61 1546.72 Q1303.61 1541.66 1301.64 1539.14 Q1299.66 1536.63 1295.72 1536.63 Q1290.97 1536.63 1288.24 1539.65 Q1285.5 1542.68 1285.5 1547.9 L1285.5 1568.04 L1279.61 1568.04 L1279.61 1532.4 L1285.5 1532.4 L1285.5 1537.93 Q1287.6 1534.72 1290.43 1533.13 Q1293.3 1531.54 1297.02 1531.54 Q1303.16 1531.54 1306.32 1535.36 Q1309.47 1539.14 1309.47 1546.53 Z" fill="#000000" fill-rule="nonzero" fill-opacity="1" /><path clip-path="url(#clip140)" d="M1351.64 1548.76 L1351.64 1551.62 L1324.71 1551.62 Q1325.09 1557.67 1328.34 1560.85 Q1331.62 1564 1337.44 1564 Q1340.82 1564 1343.97 1563.17 Q1347.15 1562.35 1350.27 1560.69 L1350.27 1566.23 Q1347.12 1567.57 1343.81 1568.27 Q1340.5 1568.97 1337.09 1568.97 Q1328.56 1568.97 1323.57 1564 Q1318.6 1559.04 1318.6 1550.57 Q1318.6 1541.82 1323.31 1536.69 Q1328.05 1531.54 1336.07 1531.54 Q1343.27 1531.54 1347.44 1536.18 Q1351.64 1540.8 1351.64 1548.76 M1345.78 1547.04 Q1345.72 1542.23 1343.08 1539.37 Q1340.47 1536.5 1336.14 1536.5 Q1331.24 1536.5 1328.28 1539.27 Q1325.35 1542.04 1324.9 1547.07 L1345.78 1547.04 Z" fill="#000000" fill-rule="nonzero" fill-opacity="1" /><path clip-path="url(#clip140)" d="M1383.98 1533.45 L1383.98 1538.98 Q1381.49 1537.71 1378.82 1537.07 Q1376.15 1536.44 1373.28 1536.44 Q1368.92 1536.44 1366.73 1537.77 Q1364.56 1539.11 1364.56 1541.79 Q1364.56 1543.82 1366.12 1545 Q1367.68 1546.15 1372.39 1547.2 L1374.4 1547.64 Q1380.63 1548.98 1383.24 1551.43 Q1385.89 1553.85 1385.89 1558.21 Q1385.89 1563.17 1381.94 1566.07 Q1378.03 1568.97 1371.15 1568.97 Q1368.29 1568.97 1365.17 1568.39 Q1362.08 1567.85 1358.64 1566.74 L1358.64 1560.69 Q1361.89 1562.38 1365.04 1563.24 Q1368.19 1564.07 1371.28 1564.07 Q1375.42 1564.07 1377.64 1562.66 Q1379.87 1561.23 1379.87 1558.65 Q1379.87 1556.27 1378.25 1554.99 Q1376.66 1553.72 1371.21 1552.54 L1369.18 1552.07 Q1363.73 1550.92 1361.32 1548.56 Q1358.9 1546.18 1358.9 1542.04 Q1358.9 1537.01 1362.46 1534.27 Q1366.03 1531.54 1372.58 1531.54 Q1375.83 1531.54 1378.69 1532.01 Q1381.56 1532.49 1383.98 1533.45 Z" fill="#000000" fill-rule="nonzero" fill-opacity="1" /><polyline clip-path="url(#clip142)" style="stroke:#000000; stroke-linecap:round; stroke-linejoin:round; stroke-width:2; stroke-opacity:0.1; fill:none" points="219.866,1296.27 2352.76,1296.27 "/>
<polyline clip-path="url(#clip142)" style="stroke:#000000; stroke-linecap:round; stroke-linejoin:round; stroke-width:2; stroke-opacity:0.1; fill:none" points="219.866,998.696 2352.76,998.696 "/>
<polyline clip-path="url(#clip142)" style="stroke:#000000; stroke-linecap:round; stroke-linejoin:round; stroke-width:2; stroke-opacity:0.1; fill:none" points="219.866,701.12 2352.76,701.12 "/>
<polyline clip-path="url(#clip142)" style="stroke:#000000; stroke-linecap:round; stroke-linejoin:round; stroke-width:2; stroke-opacity:0.1; fill:none" points="219.866,403.544 2352.76,403.544 "/>
<polyline clip-path="url(#clip140)" style="stroke:#000000; stroke-linecap:round; stroke-linejoin:round; stroke-width:4; stroke-opacity:1; fill:none" points="219.866,1423.18 219.866,123.472 "/>
<polyline clip-path="url(#clip140)" style="stroke:#000000; stroke-linecap:round; stroke-linejoin:round; stroke-width:4; stroke-opacity:1; fill:none" points="219.866,1296.27 238.764,1296.27 "/>
<polyline clip-path="url(#clip140)" style="stroke:#000000; stroke-linecap:round; stroke-linejoin:round; stroke-width:4; stroke-opacity:1; fill:none" points="219.866,998.696 238.764,998.696 "/>
<polyline clip-path="url(#clip140)" style="stroke:#000000; stroke-linecap:round; stroke-linejoin:round; stroke-width:4; stroke-opacity:1; fill:none" points="219.866,701.12 238.764,701.12 "/>
<polyline clip-path="url(#clip140)" style="stroke:#000000; stroke-linecap:round; stroke-linejoin:round; stroke-width:4; stroke-opacity:1; fill:none" points="219.866,403.544 238.764,403.544 "/>
<path clip-path="url(#clip140)" d="M128.288 1282.07 Q124.677 1282.07 122.848 1285.64 Q121.043 1289.18 121.043 1296.31 Q121.043 1303.41 122.848 1306.98 Q124.677 1310.52 128.288 1310.52 Q131.922 1310.52 133.728 1306.98 Q135.556 1303.41 135.556 1296.31 Q135.556 1289.18 133.728 1285.64 Q131.922 1282.07 128.288 1282.07 M128.288 1278.37 Q134.098 1278.37 137.154 1282.97 Q140.232 1287.56 140.232 1296.31 Q140.232 1305.03 137.154 1309.64 Q134.098 1314.22 128.288 1314.22 Q122.478 1314.22 119.399 1309.64 Q116.343 1305.03 116.343 1296.31 Q116.343 1287.56 119.399 1282.97 Q122.478 1278.37 128.288 1278.37 Z" fill="#000000" fill-rule="nonzero" fill-opacity="1" /><path clip-path="url(#clip140)" d="M148.45 1307.67 L153.334 1307.67 L153.334 1313.55 L148.45 1313.55 L148.45 1307.67 Z" fill="#000000" fill-rule="nonzero" fill-opacity="1" /><path clip-path="url(#clip140)" d="M167.547 1309.62 L183.866 1309.62 L183.866 1313.55 L161.922 1313.55 L161.922 1309.62 Q164.584 1306.86 169.167 1302.23 Q173.774 1297.58 174.954 1296.24 Q177.2 1293.71 178.079 1291.98 Q178.982 1290.22 178.982 1288.53 Q178.982 1285.77 177.038 1284.04 Q175.116 1282.3 172.014 1282.3 Q169.815 1282.3 167.362 1283.07 Q164.931 1283.83 162.153 1285.38 L162.153 1280.66 Q164.977 1279.52 167.431 1278.95 Q169.885 1278.37 171.922 1278.37 Q177.292 1278.37 180.487 1281.05 Q183.681 1283.74 183.681 1288.23 Q183.681 1290.36 182.871 1292.28 Q182.084 1294.18 179.977 1296.77 Q179.399 1297.44 176.297 1300.66 Q173.195 1303.85 167.547 1309.62 Z" fill="#000000" fill-rule="nonzero" fill-opacity="1" /><path clip-path="url(#clip140)" d="M126.205 984.495 Q122.593 984.495 120.765 988.059 Q118.959 991.601 118.959 998.731 Q118.959 1005.84 120.765 1009.4 Q122.593 1012.94 126.205 1012.94 Q129.839 1012.94 131.644 1009.4 Q133.473 1005.84 133.473 998.731 Q133.473 991.601 131.644 988.059 Q129.839 984.495 126.205 984.495 M126.205 980.791 Q132.015 980.791 135.07 985.397 Q138.149 989.981 138.149 998.731 Q138.149 1007.46 135.07 1012.06 Q132.015 1016.65 126.205 1016.65 Q120.394 1016.65 117.316 1012.06 Q114.26 1007.46 114.26 998.731 Q114.26 989.981 117.316 985.397 Q120.394 980.791 126.205 980.791 Z" fill="#000000" fill-rule="nonzero" fill-opacity="1" /><path clip-path="url(#clip140)" d="M146.366 1010.1 L151.251 1010.1 L151.251 1015.98 L146.366 1015.98 L146.366 1010.1 Z" fill="#000000" fill-rule="nonzero" fill-opacity="1" /><path clip-path="url(#clip140)" d="M174.283 985.49 L162.477 1003.94 L174.283 1003.94 L174.283 985.49 M173.056 981.416 L178.936 981.416 L178.936 1003.94 L183.866 1003.94 L183.866 1007.83 L178.936 1007.83 L178.936 1015.98 L174.283 1015.98 L174.283 1007.83 L158.681 1007.83 L158.681 1003.31 L173.056 981.416 Z" fill="#000000" fill-rule="nonzero" fill-opacity="1" /><path clip-path="url(#clip140)" d="M126.529 686.919 Q122.918 686.919 121.089 690.484 Q119.283 694.025 119.283 701.155 Q119.283 708.261 121.089 711.826 Q122.918 715.368 126.529 715.368 Q130.163 715.368 131.968 711.826 Q133.797 708.261 133.797 701.155 Q133.797 694.025 131.968 690.484 Q130.163 686.919 126.529 686.919 M126.529 683.215 Q132.339 683.215 135.394 687.822 Q138.473 692.405 138.473 701.155 Q138.473 709.882 135.394 714.488 Q132.339 719.072 126.529 719.072 Q120.718 719.072 117.64 714.488 Q114.584 709.882 114.584 701.155 Q114.584 692.405 117.64 687.822 Q120.718 683.215 126.529 683.215 Z" fill="#000000" fill-rule="nonzero" fill-opacity="1" /><path clip-path="url(#clip140)" d="M146.691 712.521 L151.575 712.521 L151.575 718.4 L146.691 718.4 L146.691 712.521 Z" fill="#000000" fill-rule="nonzero" fill-opacity="1" /><path clip-path="url(#clip140)" d="M172.339 699.257 Q169.19 699.257 167.339 701.41 Q165.51 703.562 165.51 707.312 Q165.51 711.039 167.339 713.215 Q169.19 715.368 172.339 715.368 Q175.487 715.368 177.315 713.215 Q179.167 711.039 179.167 707.312 Q179.167 703.562 177.315 701.41 Q175.487 699.257 172.339 699.257 M181.621 684.604 L181.621 688.863 Q179.862 688.03 178.056 687.59 Q176.274 687.15 174.514 687.15 Q169.885 687.15 167.431 690.275 Q165.001 693.4 164.653 699.72 Q166.019 697.706 168.079 696.641 Q170.139 695.553 172.616 695.553 Q177.825 695.553 180.834 698.724 Q183.866 701.873 183.866 707.312 Q183.866 712.636 180.718 715.854 Q177.57 719.072 172.339 719.072 Q166.343 719.072 163.172 714.488 Q160.001 709.882 160.001 701.155 Q160.001 692.961 163.89 688.099 Q167.778 683.215 174.329 683.215 Q176.089 683.215 177.871 683.562 Q179.676 683.91 181.621 684.604 Z" fill="#000000" fill-rule="nonzero" fill-opacity="1" /><path clip-path="url(#clip140)" d="M126.783 389.343 Q123.172 389.343 121.343 392.908 Q119.538 396.45 119.538 403.579 Q119.538 410.686 121.343 414.25 Q123.172 417.792 126.783 417.792 Q130.417 417.792 132.223 414.25 Q134.052 410.686 134.052 403.579 Q134.052 396.45 132.223 392.908 Q130.417 389.343 126.783 389.343 M126.783 385.639 Q132.593 385.639 135.649 390.246 Q138.728 394.829 138.728 403.579 Q138.728 412.306 135.649 416.912 Q132.593 421.496 126.783 421.496 Q120.973 421.496 117.894 416.912 Q114.839 412.306 114.839 403.579 Q114.839 394.829 117.894 390.246 Q120.973 385.639 126.783 385.639 Z" fill="#000000" fill-rule="nonzero" fill-opacity="1" /><path clip-path="url(#clip140)" d="M146.945 414.945 L151.829 414.945 L151.829 420.824 L146.945 420.824 L146.945 414.945 Z" fill="#000000" fill-rule="nonzero" fill-opacity="1" /><path clip-path="url(#clip140)" d="M172.014 404.413 Q168.681 404.413 166.76 406.195 Q164.862 407.977 164.862 411.102 Q164.862 414.227 166.76 416.01 Q168.681 417.792 172.014 417.792 Q175.348 417.792 177.269 416.01 Q179.19 414.204 179.19 411.102 Q179.19 407.977 177.269 406.195 Q175.371 404.413 172.014 404.413 M167.339 402.422 Q164.329 401.681 162.64 399.621 Q160.973 397.561 160.973 394.598 Q160.973 390.454 163.913 388.047 Q166.876 385.639 172.014 385.639 Q177.176 385.639 180.116 388.047 Q183.056 390.454 183.056 394.598 Q183.056 397.561 181.366 399.621 Q179.7 401.681 176.714 402.422 Q180.093 403.209 181.968 405.5 Q183.866 407.792 183.866 411.102 Q183.866 416.125 180.788 418.811 Q177.732 421.496 172.014 421.496 Q166.297 421.496 163.218 418.811 Q160.163 416.125 160.163 411.102 Q160.163 407.792 162.061 405.5 Q163.959 403.209 167.339 402.422 M165.626 395.038 Q165.626 397.723 167.292 399.227 Q168.982 400.732 172.014 400.732 Q175.024 400.732 176.714 399.227 Q178.426 397.723 178.426 395.038 Q178.426 392.352 176.714 390.848 Q175.024 389.343 172.014 389.343 Q168.982 389.343 167.292 390.848 Q165.626 392.352 165.626 395.038 Z" fill="#000000" fill-rule="nonzero" fill-opacity="1" /><path clip-path="url(#clip140)" d="M16.4842 837.445 L16.4842 827.864 L48.8219 815.738 L16.4842 803.547 L16.4842 793.967 L64.0042 793.967 L64.0042 800.237 L22.277 800.237 L54.8694 812.491 L54.8694 818.952 L22.277 831.206 L64.0042 831.206 L64.0042 837.445 L16.4842 837.445 Z" fill="#000000" fill-rule="nonzero" fill-opacity="1" /><path clip-path="url(#clip140)" d="M18.0438 752.717 L24.314 752.717 Q22.5634 756.377 21.704 759.624 Q20.8447 762.87 20.8447 765.894 Q20.8447 771.146 22.8817 774.01 Q24.9187 776.843 28.6745 776.843 Q31.8255 776.843 33.4488 774.965 Q35.0402 773.055 36.0269 767.772 L36.8226 763.889 Q38.1912 756.696 41.6605 753.29 Q45.098 749.852 50.8908 749.852 Q57.7976 749.852 61.3624 754.499 Q64.9272 759.115 64.9272 768.058 Q64.9272 771.432 64.1633 775.252 Q63.3994 779.039 61.9035 783.113 L55.2831 783.113 Q57.4793 779.198 58.5933 775.443 Q59.7073 771.687 59.7073 768.058 Q59.7073 762.552 57.543 759.56 Q55.3786 756.568 51.3682 756.568 Q47.8671 756.568 45.8937 758.733 Q43.9204 760.865 42.9337 765.767 L42.1698 769.682 Q40.7375 776.875 37.682 780.09 Q34.6264 783.304 29.1837 783.304 Q22.8817 783.304 19.2532 778.88 Q15.6248 774.424 15.6248 766.626 Q15.6248 763.284 16.2295 759.815 Q16.8343 756.345 18.0438 752.717 Z" fill="#000000" fill-rule="nonzero" fill-opacity="1" /><path clip-path="url(#clip140)" d="M16.4842 739.826 L16.4842 709.78 L21.895 709.78 L21.895 733.397 L35.9632 733.397 L35.9632 710.767 L41.3741 710.767 L41.3741 733.397 L58.5933 733.397 L58.5933 709.207 L64.0042 709.207 L64.0042 739.826 L16.4842 739.826 Z" fill="#000000" fill-rule="nonzero" fill-opacity="1" /><path clip-path="url(#clip140)" d="M877.514 12.096 L889.707 12.096 L905.141 53.2532 L920.656 12.096 L932.849 12.096 L932.849 72.576 L924.869 72.576 L924.869 19.4686 L909.273 60.9499 L901.05 60.9499 L885.454 19.4686 L885.454 72.576 L877.514 72.576 L877.514 12.096 Z" fill="#000000" fill-rule="nonzero" fill-opacity="1" /><path clip-path="url(#clip140)" d="M987.577 48.0275 L987.577 51.6733 L953.307 51.6733 Q953.793 59.3701 957.925 63.421 Q962.097 67.4314 969.51 67.4314 Q973.804 67.4314 977.814 66.3781 Q981.865 65.3249 985.835 63.2184 L985.835 70.267 Q981.825 71.9684 977.612 72.8596 Q973.399 73.7508 969.065 73.7508 Q958.208 73.7508 951.848 67.4314 Q945.529 61.1119 945.529 50.3365 Q945.529 39.1965 951.524 32.6746 Q957.56 26.1121 967.768 26.1121 Q976.923 26.1121 982.23 32.0264 Q987.577 37.9003 987.577 48.0275 M980.123 45.84 Q980.042 39.7232 976.68 36.0774 Q973.358 32.4315 967.849 32.4315 Q961.611 32.4315 957.844 35.9558 Q954.117 39.4801 953.55 45.8805 L980.123 45.84 Z" fill="#000000" fill-rule="nonzero" fill-opacity="1" /><path clip-path="url(#clip140)" d="M1020.43 49.7694 Q1011.4 49.7694 1007.91 51.8354 Q1004.43 53.9013 1004.43 58.8839 Q1004.43 62.8538 1007.02 65.2034 Q1009.65 67.5124 1014.15 67.5124 Q1020.35 67.5124 1024.08 63.1374 Q1027.84 58.7219 1027.84 51.4303 L1027.84 49.7694 L1020.43 49.7694 M1035.3 46.6907 L1035.3 72.576 L1027.84 72.576 L1027.84 65.6895 Q1025.29 69.8214 1021.48 71.8063 Q1017.68 73.7508 1012.17 73.7508 Q1005.2 73.7508 1001.07 69.8619 Q996.975 65.9325 996.975 59.3701 Q996.975 51.7138 1002.08 47.825 Q1007.22 43.9361 1017.39 43.9361 L1027.84 43.9361 L1027.84 43.2069 Q1027.84 38.0623 1024.44 35.2672 Q1021.08 32.4315 1014.96 32.4315 Q1011.07 32.4315 1007.39 33.3632 Q1003.7 34.295 1000.3 36.1584 L1000.3 29.2718 Q1004.39 27.692 1008.24 26.9223 Q1012.09 26.1121 1015.73 26.1121 Q1025.57 26.1121 1030.44 31.2163 Q1035.3 36.3204 1035.3 46.6907 Z" fill="#000000" fill-rule="nonzero" fill-opacity="1" /><path clip-path="url(#clip140)" d="M1088.36 45.1919 L1088.36 72.576 L1080.91 72.576 L1080.91 45.4349 Q1080.91 38.994 1078.4 35.7938 Q1075.89 32.5936 1070.86 32.5936 Q1064.83 32.5936 1061.34 36.4419 Q1057.86 40.2903 1057.86 46.9338 L1057.86 72.576 L1050.37 72.576 L1050.37 27.2059 L1057.86 27.2059 L1057.86 34.2544 Q1060.53 30.163 1064.14 28.1376 Q1067.79 26.1121 1072.52 26.1121 Q1080.34 26.1121 1084.35 30.9732 Q1088.36 35.7938 1088.36 45.1919 Z" fill="#000000" fill-rule="nonzero" fill-opacity="1" /><path clip-path="url(#clip140)" d="M1166.18 14.0809 L1166.18 22.0612 Q1161.52 19.8332 1157.39 18.7395 Q1153.26 17.6457 1149.41 17.6457 Q1142.73 17.6457 1139.08 20.2383 Q1135.48 22.8309 1135.48 27.611 Q1135.48 31.6214 1137.87 33.6873 Q1140.3 35.7128 1147.02 36.9686 L1151.96 37.9813 Q1161.12 39.7232 1165.45 44.1387 Q1169.83 48.5136 1169.83 55.8863 Q1169.83 64.6767 1163.91 69.2137 Q1158.04 73.7508 1146.66 73.7508 Q1142.36 73.7508 1137.5 72.7785 Q1132.68 71.8063 1127.5 69.9024 L1127.5 61.4765 Q1132.48 64.2716 1137.26 65.6895 Q1142.04 67.1073 1146.66 67.1073 Q1153.66 67.1073 1157.47 64.3527 Q1161.28 61.598 1161.28 56.4939 Q1161.28 52.0379 1158.53 49.5264 Q1155.81 47.0148 1149.57 45.759 L1144.59 44.7868 Q1135.44 42.9639 1131.34 39.075 Q1127.25 35.1862 1127.25 28.2591 Q1127.25 20.2383 1132.88 15.6203 Q1138.55 11.0023 1148.48 11.0023 Q1152.73 11.0023 1157.15 11.7719 Q1161.56 12.5416 1166.18 14.0809 Z" fill="#000000" fill-rule="nonzero" fill-opacity="1" /><path clip-path="url(#clip140)" d="M1186.72 49.9314 Q1186.72 58.1548 1190.08 62.8538 Q1193.48 67.5124 1199.4 67.5124 Q1205.31 67.5124 1208.72 62.8538 Q1212.12 58.1548 1212.12 49.9314 Q1212.12 41.7081 1208.72 37.0496 Q1205.31 32.3505 1199.4 32.3505 Q1193.48 32.3505 1190.08 37.0496 Q1186.72 41.7081 1186.72 49.9314 M1212.12 65.7705 Q1209.77 69.8214 1206.16 71.8063 Q1202.6 73.7508 1197.58 73.7508 Q1189.35 73.7508 1184.17 67.1883 Q1179.02 60.6258 1179.02 49.9314 Q1179.02 39.2371 1184.17 32.6746 Q1189.35 26.1121 1197.58 26.1121 Q1202.6 26.1121 1206.16 28.0971 Q1209.77 30.0415 1212.12 34.0924 L1212.12 27.2059 L1219.57 27.2059 L1219.57 89.8329 L1212.12 89.8329 L1212.12 65.7705 Z" fill="#000000" fill-rule="nonzero" fill-opacity="1" /><path clip-path="url(#clip140)" d="M1234.16 54.671 L1234.16 27.2059 L1241.61 27.2059 L1241.61 54.3874 Q1241.61 60.8284 1244.12 64.0691 Q1246.63 67.2693 1251.66 67.2693 Q1257.69 67.2693 1261.18 63.421 Q1264.7 59.5726 1264.7 52.9291 L1264.7 27.2059 L1272.15 27.2059 L1272.15 72.576 L1264.7 72.576 L1264.7 65.6084 Q1261.99 69.7404 1258.38 71.7658 Q1254.82 73.7508 1250.08 73.7508 Q1242.26 73.7508 1238.21 68.8897 Q1234.16 64.0286 1234.16 54.671 M1252.91 26.1121 L1252.91 26.1121 Z" fill="#000000" fill-rule="nonzero" fill-opacity="1" /><path clip-path="url(#clip140)" d="M1308.13 49.7694 Q1299.09 49.7694 1295.61 51.8354 Q1292.12 53.9013 1292.12 58.8839 Q1292.12 62.8538 1294.72 65.2034 Q1297.35 67.5124 1301.85 67.5124 Q1308.04 67.5124 1311.77 63.1374 Q1315.54 58.7219 1315.54 51.4303 L1315.54 49.7694 L1308.13 49.7694 M1322.99 46.6907 L1322.99 72.576 L1315.54 72.576 L1315.54 65.6895 Q1312.99 69.8214 1309.18 71.8063 Q1305.37 73.7508 1299.86 73.7508 Q1292.89 73.7508 1288.76 69.8619 Q1284.67 65.9325 1284.67 59.3701 Q1284.67 51.7138 1289.77 47.825 Q1294.92 43.9361 1305.09 43.9361 L1315.54 43.9361 L1315.54 43.2069 Q1315.54 38.0623 1312.14 35.2672 Q1308.77 32.4315 1302.66 32.4315 Q1298.77 32.4315 1295.08 33.3632 Q1291.39 34.295 1287.99 36.1584 L1287.99 29.2718 Q1292.08 27.692 1295.93 26.9223 Q1299.78 26.1121 1303.43 26.1121 Q1313.27 26.1121 1318.13 31.2163 Q1322.99 36.3204 1322.99 46.6907 Z" fill="#000000" fill-rule="nonzero" fill-opacity="1" /><path clip-path="url(#clip140)" d="M1364.64 34.1734 Q1363.38 33.4443 1361.88 33.1202 Q1360.42 32.7556 1358.64 32.7556 Q1352.32 32.7556 1348.92 36.8875 Q1345.56 40.9789 1345.56 48.6757 L1345.56 72.576 L1338.06 72.576 L1338.06 27.2059 L1345.56 27.2059 L1345.56 34.2544 Q1347.91 30.1225 1351.67 28.1376 Q1355.44 26.1121 1360.83 26.1121 Q1361.6 26.1121 1362.53 26.2337 Q1363.46 26.3147 1364.59 26.5172 L1364.64 34.1734 Z" fill="#000000" fill-rule="nonzero" fill-opacity="1" /><path clip-path="url(#clip140)" d="M1409.44 48.0275 L1409.44 51.6733 L1375.17 51.6733 Q1375.65 59.3701 1379.79 63.421 Q1383.96 67.4314 1391.37 67.4314 Q1395.67 67.4314 1399.68 66.3781 Q1403.73 65.3249 1407.7 63.2184 L1407.7 70.267 Q1403.69 71.9684 1399.47 72.8596 Q1395.26 73.7508 1390.93 73.7508 Q1380.07 73.7508 1373.71 67.4314 Q1367.39 61.1119 1367.39 50.3365 Q1367.39 39.1965 1373.39 32.6746 Q1379.42 26.1121 1389.63 26.1121 Q1398.78 26.1121 1404.09 32.0264 Q1409.44 37.9003 1409.44 48.0275 M1401.98 45.84 Q1401.9 39.7232 1398.54 36.0774 Q1395.22 32.4315 1389.71 32.4315 Q1383.47 32.4315 1379.7 35.9558 Q1375.98 39.4801 1375.41 45.8805 L1401.98 45.84 Z" fill="#000000" fill-rule="nonzero" fill-opacity="1" /><path clip-path="url(#clip140)" d="M1451.53 34.0924 L1451.53 9.54393 L1458.98 9.54393 L1458.98 72.576 L1451.53 72.576 L1451.53 65.7705 Q1449.18 69.8214 1445.57 71.8063 Q1442.01 73.7508 1436.98 73.7508 Q1428.76 73.7508 1423.58 67.1883 Q1418.43 60.6258 1418.43 49.9314 Q1418.43 39.2371 1423.58 32.6746 Q1428.76 26.1121 1436.98 26.1121 Q1442.01 26.1121 1445.57 28.0971 Q1449.18 30.0415 1451.53 34.0924 M1426.13 49.9314 Q1426.13 58.1548 1429.49 62.8538 Q1432.89 67.5124 1438.81 67.5124 Q1444.72 67.5124 1448.12 62.8538 Q1451.53 58.1548 1451.53 49.9314 Q1451.53 41.7081 1448.12 37.0496 Q1444.72 32.3505 1438.81 32.3505 Q1432.89 32.3505 1429.49 37.0496 Q1426.13 41.7081 1426.13 49.9314 Z" fill="#000000" fill-rule="nonzero" fill-opacity="1" /><path clip-path="url(#clip140)" d="M1501.03 12.096 L1539.27 12.096 L1539.27 18.9825 L1509.21 18.9825 L1509.21 36.8875 L1538.01 36.8875 L1538.01 43.7741 L1509.21 43.7741 L1509.21 65.6895 L1540 65.6895 L1540 72.576 L1501.03 72.576 L1501.03 12.096 Z" fill="#000000" fill-rule="nonzero" fill-opacity="1" /><path clip-path="url(#clip140)" d="M1579.41 34.1734 Q1578.16 33.4443 1576.66 33.1202 Q1575.2 32.7556 1573.42 32.7556 Q1567.1 32.7556 1563.7 36.8875 Q1560.33 40.9789 1560.33 48.6757 L1560.33 72.576 L1552.84 72.576 L1552.84 27.2059 L1560.33 27.2059 L1560.33 34.2544 Q1562.68 30.1225 1566.45 28.1376 Q1570.22 26.1121 1575.61 26.1121 Q1576.38 26.1121 1577.31 26.2337 Q1578.24 26.3147 1579.37 26.5172 L1579.41 34.1734 Z" fill="#000000" fill-rule="nonzero" fill-opacity="1" /><path clip-path="url(#clip140)" d="M1612.06 34.1734 Q1610.81 33.4443 1609.31 33.1202 Q1607.85 32.7556 1606.07 32.7556 Q1599.75 32.7556 1596.35 36.8875 Q1592.98 40.9789 1592.98 48.6757 L1592.98 72.576 L1585.49 72.576 L1585.49 27.2059 L1592.98 27.2059 L1592.98 34.2544 Q1595.33 30.1225 1599.1 28.1376 Q1602.87 26.1121 1608.26 26.1121 Q1609.03 26.1121 1609.96 26.2337 Q1610.89 26.3147 1612.02 26.5172 L1612.06 34.1734 Z" fill="#000000" fill-rule="nonzero" fill-opacity="1" /><path clip-path="url(#clip140)" d="M1635.64 32.4315 Q1629.65 32.4315 1626.16 37.1306 Q1622.68 41.7891 1622.68 49.9314 Q1622.68 58.0738 1626.12 62.7728 Q1629.6 67.4314 1635.64 67.4314 Q1641.6 67.4314 1645.08 62.7323 Q1648.56 58.0333 1648.56 49.9314 Q1648.56 41.8701 1645.08 37.1711 Q1641.6 32.4315 1635.64 32.4315 M1635.64 26.1121 Q1645.36 26.1121 1650.91 32.4315 Q1656.46 38.7509 1656.46 49.9314 Q1656.46 61.0714 1650.91 67.4314 Q1645.36 73.7508 1635.64 73.7508 Q1625.88 73.7508 1620.33 67.4314 Q1614.82 61.0714 1614.82 49.9314 Q1614.82 38.7509 1620.33 32.4315 Q1625.88 26.1121 1635.64 26.1121 Z" fill="#000000" fill-rule="nonzero" fill-opacity="1" /><path clip-path="url(#clip140)" d="M1695.11 34.1734 Q1693.85 33.4443 1692.35 33.1202 Q1690.9 32.7556 1689.11 32.7556 Q1682.79 32.7556 1679.39 36.8875 Q1676.03 40.9789 1676.03 48.6757 L1676.03 72.576 L1668.53 72.576 L1668.53 27.2059 L1676.03 27.2059 L1676.03 34.2544 Q1678.38 30.1225 1682.15 28.1376 Q1685.91 26.1121 1691.3 26.1121 Q1692.07 26.1121 1693 26.2337 Q1693.93 26.3147 1695.07 26.5172 L1695.11 34.1734 Z" fill="#000000" fill-rule="nonzero" fill-opacity="1" /><polyline clip-path="url(#clip142)" style="stroke:#009af9; stroke-linecap:round; stroke-linejoin:round; stroke-width:4; stroke-opacity:1; fill:none" points="280.231,207.279 950.951,194.568 1621.67,160.256 2292.39,167.719 "/>
<polyline clip-path="url(#clip142)" style="stroke:#e26f46; stroke-linecap:round; stroke-linejoin:round; stroke-width:4; stroke-opacity:1; fill:none" points="280.231,1374.48 950.951,834.679 1621.67,1291.36 2292.39,1171.12 "/>
<polyline clip-path="url(#clip142)" style="stroke:#3da44d; stroke-linecap:round; stroke-linejoin:round; stroke-width:4; stroke-opacity:1; fill:none" points="280.231,1386.4 950.951,934.495 1621.67,1298.52 2292.39,1236.39 "/>
<path clip-path="url(#clip140)" d="M1954.16 1379.86 L2281.66 1379.86 L2281.66 1172.5 L1954.16 1172.5  Z" fill="#ffffff" fill-rule="evenodd" fill-opacity="1"/>
<polyline clip-path="url(#clip140)" style="stroke:#000000; stroke-linecap:round; stroke-linejoin:round; stroke-width:4; stroke-opacity:1; fill:none" points="1954.16,1379.86 2281.66,1379.86 2281.66,1172.5 1954.16,1172.5 1954.16,1379.86 "/>
<polyline clip-path="url(#clip140)" style="stroke:#009af9; stroke-linecap:round; stroke-linejoin:round; stroke-width:4; stroke-opacity:1; fill:none" points="1977.86,1224.34 2120.05,1224.34 "/>
<path clip-path="url(#clip140)" d="M2151.16 1208.33 L2151.16 1215.69 L2159.93 1215.69 L2159.93 1219 L2151.16 1219 L2151.16 1233.07 Q2151.16 1236.25 2152.01 1237.15 Q2152.89 1238.05 2155.55 1238.05 L2159.93 1238.05 L2159.93 1241.62 L2155.55 1241.62 Q2150.62 1241.62 2148.75 1239.79 Q2146.87 1237.94 2146.87 1233.07 L2146.87 1219 L2143.75 1219 L2143.75 1215.69 L2146.87 1215.69 L2146.87 1208.33 L2151.16 1208.33 Z" fill="#000000" fill-rule="nonzero" fill-opacity="1" /><path clip-path="url(#clip140)" d="M2166.09 1220.09 L2195.76 1220.09 L2195.76 1223.98 L2166.09 1223.98 L2166.09 1220.09 M2166.09 1229.53 L2195.76 1229.53 L2195.76 1233.47 L2166.09 1233.47 L2166.09 1229.53 Z" fill="#000000" fill-rule="nonzero" fill-opacity="1" /><path clip-path="url(#clip140)" d="M2206.66 1237.68 L2214.3 1237.68 L2214.3 1211.32 L2205.99 1212.98 L2205.99 1208.72 L2214.26 1207.06 L2218.93 1207.06 L2218.93 1237.68 L2226.57 1237.68 L2226.57 1241.62 L2206.66 1241.62 L2206.66 1237.68 Z" fill="#000000" fill-rule="nonzero" fill-opacity="1" /><polyline clip-path="url(#clip140)" style="stroke:#e26f46; stroke-linecap:round; stroke-linejoin:round; stroke-width:4; stroke-opacity:1; fill:none" points="1977.86,1276.18 2120.05,1276.18 "/>
<path clip-path="url(#clip140)" d="M2151.16 1260.17 L2151.16 1267.53 L2159.93 1267.53 L2159.93 1270.84 L2151.16 1270.84 L2151.16 1284.91 Q2151.16 1288.09 2152.01 1288.99 Q2152.89 1289.89 2155.55 1289.89 L2159.93 1289.89 L2159.93 1293.46 L2155.55 1293.46 Q2150.62 1293.46 2148.75 1291.63 Q2146.87 1289.78 2146.87 1284.91 L2146.87 1270.84 L2143.75 1270.84 L2143.75 1267.53 L2146.87 1267.53 L2146.87 1260.17 L2151.16 1260.17 Z" fill="#000000" fill-rule="nonzero" fill-opacity="1" /><path clip-path="url(#clip140)" d="M2166.09 1271.93 L2195.76 1271.93 L2195.76 1275.82 L2166.09 1275.82 L2166.09 1271.93 M2166.09 1281.37 L2195.76 1281.37 L2195.76 1285.31 L2166.09 1285.31 L2166.09 1281.37 Z" fill="#000000" fill-rule="nonzero" fill-opacity="1" /><path clip-path="url(#clip140)" d="M2205.9 1258.9 L2224.26 1258.9 L2224.26 1262.83 L2210.18 1262.83 L2210.18 1271.3 Q2211.2 1270.96 2212.22 1270.79 Q2213.24 1270.61 2214.26 1270.61 Q2220.04 1270.61 2223.42 1273.78 Q2226.8 1276.95 2226.8 1282.37 Q2226.8 1287.95 2223.33 1291.05 Q2219.86 1294.13 2213.54 1294.13 Q2211.36 1294.13 2209.1 1293.76 Q2206.85 1293.39 2204.44 1292.65 L2204.44 1287.95 Q2206.53 1289.08 2208.75 1289.64 Q2210.97 1290.19 2213.45 1290.19 Q2217.45 1290.19 2219.79 1288.09 Q2222.13 1285.98 2222.13 1282.37 Q2222.13 1278.76 2219.79 1276.65 Q2217.45 1274.54 2213.45 1274.54 Q2211.57 1274.54 2209.7 1274.96 Q2207.85 1275.38 2205.9 1276.26 L2205.9 1258.9 Z" fill="#000000" fill-rule="nonzero" fill-opacity="1" /><polyline clip-path="url(#clip140)" style="stroke:#3da44d; stroke-linecap:round; stroke-linejoin:round; stroke-width:4; stroke-opacity:1; fill:none" points="1977.86,1328.02 2120.05,1328.02 "/>
<path clip-path="url(#clip140)" d="M2151.16 1312.01 L2151.16 1319.37 L2159.93 1319.37 L2159.93 1322.68 L2151.16 1322.68 L2151.16 1336.75 Q2151.16 1339.93 2152.01 1340.83 Q2152.89 1341.73 2155.55 1341.73 L2159.93 1341.73 L2159.93 1345.3 L2155.55 1345.3 Q2150.62 1345.3 2148.75 1343.47 Q2146.87 1341.62 2146.87 1336.75 L2146.87 1322.68 L2143.75 1322.68 L2143.75 1319.37 L2146.87 1319.37 L2146.87 1312.01 L2151.16 1312.01 Z" fill="#000000" fill-rule="nonzero" fill-opacity="1" /><path clip-path="url(#clip140)" d="M2166.09 1323.77 L2195.76 1323.77 L2195.76 1327.66 L2166.09 1327.66 L2166.09 1323.77 M2166.09 1333.21 L2195.76 1333.21 L2195.76 1337.15 L2166.09 1337.15 L2166.09 1333.21 Z" fill="#000000" fill-rule="nonzero" fill-opacity="1" /><path clip-path="url(#clip140)" d="M2206.66 1341.36 L2214.3 1341.36 L2214.3 1315 L2205.99 1316.66 L2205.99 1312.4 L2214.26 1310.74 L2218.93 1310.74 L2218.93 1341.36 L2226.57 1341.36 L2226.57 1345.3 L2206.66 1345.3 L2206.66 1341.36 Z" fill="#000000" fill-rule="nonzero" fill-opacity="1" /><path clip-path="url(#clip140)" d="M2246.02 1313.81 Q2242.41 1313.81 2240.58 1317.38 Q2238.77 1320.92 2238.77 1328.05 Q2238.77 1335.16 2240.58 1338.72 Q2242.41 1342.26 2246.02 1342.26 Q2249.65 1342.26 2251.46 1338.72 Q2253.28 1335.16 2253.28 1328.05 Q2253.28 1320.92 2251.46 1317.38 Q2249.65 1313.81 2246.02 1313.81 M2246.02 1310.11 Q2251.83 1310.11 2254.88 1314.72 Q2257.96 1319.3 2257.96 1328.05 Q2257.96 1336.78 2254.88 1341.38 Q2251.83 1345.97 2246.02 1345.97 Q2240.21 1345.97 2237.13 1341.38 Q2234.07 1336.78 2234.07 1328.05 Q2234.07 1319.3 2237.13 1314.72 Q2240.21 1310.11 2246.02 1310.11 Z" fill="#000000" fill-rule="nonzero" fill-opacity="1" /></svg>
