<?xml version="1.0" encoding="utf-8"?>
<svg xmlns="http://www.w3.org/2000/svg" xmlns:xlink="http://www.w3.org/1999/xlink" width="600" height="400" viewBox="0 0 2400 1600">
<defs>
  <clipPath id="clip980">
    <rect x="0" y="0" width="2400" height="1600"/>
  </clipPath>
</defs>
<path clip-path="url(#clip980)" d="M0 1600 L2400 1600 L2400 8.88178e-14 L0 8.88178e-14  Z" fill="#ffffff" fill-rule="evenodd" fill-opacity="1"/>
<defs>
  <clipPath id="clip981">
    <rect x="480" y="0" width="1681" height="1600"/>
  </clipPath>
</defs>
<path clip-path="url(#clip980)" d="M257.204 1423.18 L2352.76 1423.18 L2352.76 123.472 L257.204 123.472  Z" fill="#ffffff" fill-rule="evenodd" fill-opacity="1"/>
<defs>
  <clipPath id="clip982">
    <rect x="257" y="123" width="2097" height="1301"/>
  </clipPath>
</defs>
<polyline clip-path="url(#clip982)" style="stroke:#000000; stroke-linecap:round; stroke-linejoin:round; stroke-width:2; stroke-opacity:0.1; fill:none" points="314.533,1423.18 314.533,123.472 "/>
<polyline clip-path="url(#clip982)" style="stroke:#000000; stroke-linecap:round; stroke-linejoin:round; stroke-width:2; stroke-opacity:0.1; fill:none" points="809.262,1423.18 809.262,123.472 "/>
<polyline clip-path="url(#clip982)" style="stroke:#000000; stroke-linecap:round; stroke-linejoin:round; stroke-width:2; stroke-opacity:0.1; fill:none" points="1303.99,1423.18 1303.99,123.472 "/>
<polyline clip-path="url(#clip982)" style="stroke:#000000; stroke-linecap:round; stroke-linejoin:round; stroke-width:2; stroke-opacity:0.1; fill:none" points="1798.72,1423.18 1798.72,123.472 "/>
<polyline clip-path="url(#clip982)" style="stroke:#000000; stroke-linecap:round; stroke-linejoin:round; stroke-width:2; stroke-opacity:0.1; fill:none" points="2293.45,1423.18 2293.45,123.472 "/>
<polyline clip-path="url(#clip980)" style="stroke:#000000; stroke-linecap:round; stroke-linejoin:round; stroke-width:4; stroke-opacity:1; fill:none" points="257.204,1423.18 2352.76,1423.18 "/>
<polyline clip-path="url(#clip980)" style="stroke:#000000; stroke-linecap:round; stroke-linejoin:round; stroke-width:4; stroke-opacity:1; fill:none" points="314.533,1423.18 314.533,1404.28 "/>
<polyline clip-path="url(#clip980)" style="stroke:#000000; stroke-linecap:round; stroke-linejoin:round; stroke-width:4; stroke-opacity:1; fill:none" points="809.262,1423.18 809.262,1404.28 "/>
<polyline clip-path="url(#clip980)" style="stroke:#000000; stroke-linecap:round; stroke-linejoin:round; stroke-width:4; stroke-opacity:1; fill:none" points="1303.99,1423.18 1303.99,1404.28 "/>
<polyline clip-path="url(#clip980)" style="stroke:#000000; stroke-linecap:round; stroke-linejoin:round; stroke-width:4; stroke-opacity:1; fill:none" points="1798.72,1423.18 1798.72,1404.28 "/>
<polyline clip-path="url(#clip980)" style="stroke:#000000; stroke-linecap:round; stroke-linejoin:round; stroke-width:4; stroke-opacity:1; fill:none" points="2293.45,1423.18 2293.45,1404.28 "/>
<path clip-path="url(#clip980)" d="M314.533 1454.1 Q310.922 1454.1 309.093 1457.66 Q307.288 1461.2 307.288 1468.33 Q307.288 1475.44 309.093 1479.01 Q310.922 1482.55 314.533 1482.55 Q318.167 1482.55 319.973 1479.01 Q321.802 1475.44 321.802 1468.33 Q321.802 1461.2 319.973 1457.66 Q318.167 1454.1 314.533 1454.1 M314.533 1450.39 Q320.343 1450.39 323.399 1455 Q326.478 1459.58 326.478 1468.33 Q326.478 1477.06 323.399 1481.67 Q320.343 1486.25 314.533 1486.25 Q308.723 1486.25 305.644 1481.67 Q302.589 1477.06 302.589 1468.33 Q302.589 1459.58 305.644 1455 Q308.723 1450.39 314.533 1450.39 Z" fill="#000000" fill-rule="nonzero" fill-opacity="1" /><path clip-path="url(#clip980)" d="M772.954 1481.64 L789.274 1481.64 L789.274 1485.58 L767.329 1485.58 L767.329 1481.64 Q769.991 1478.89 774.575 1474.26 Q779.181 1469.61 780.362 1468.27 Q782.607 1465.74 783.487 1464.01 Q784.389 1462.25 784.389 1460.56 Q784.389 1457.8 782.445 1456.07 Q780.524 1454.33 777.422 1454.33 Q775.223 1454.33 772.769 1455.09 Q770.338 1455.86 767.561 1457.41 L767.561 1452.69 Q770.385 1451.55 772.838 1450.97 Q775.292 1450.39 777.329 1450.39 Q782.699 1450.39 785.894 1453.08 Q789.088 1455.77 789.088 1460.26 Q789.088 1462.39 788.278 1464.31 Q787.491 1466.2 785.385 1468.8 Q784.806 1469.47 781.704 1472.69 Q778.602 1475.88 772.954 1481.64 Z" fill="#000000" fill-rule="nonzero" fill-opacity="1" /><path clip-path="url(#clip980)" d="M799.135 1451.02 L817.491 1451.02 L817.491 1454.96 L803.417 1454.96 L803.417 1463.43 Q804.435 1463.08 805.454 1462.92 Q806.473 1462.73 807.491 1462.73 Q813.278 1462.73 816.658 1465.9 Q820.037 1469.08 820.037 1474.49 Q820.037 1480.07 816.565 1483.17 Q813.093 1486.25 806.773 1486.25 Q804.598 1486.25 802.329 1485.88 Q800.084 1485.51 797.676 1484.77 L797.676 1480.07 Q799.76 1481.2 801.982 1481.76 Q804.204 1482.32 806.681 1482.32 Q810.685 1482.32 813.023 1480.21 Q815.361 1478.1 815.361 1474.49 Q815.361 1470.88 813.023 1468.77 Q810.685 1466.67 806.681 1466.67 Q804.806 1466.67 802.931 1467.08 Q801.079 1467.5 799.135 1468.38 L799.135 1451.02 Z" fill="#000000" fill-rule="nonzero" fill-opacity="1" /><path clip-path="url(#clip980)" d="M839.25 1454.1 Q835.639 1454.1 833.81 1457.66 Q832.005 1461.2 832.005 1468.33 Q832.005 1475.44 833.81 1479.01 Q835.639 1482.55 839.25 1482.55 Q842.884 1482.55 844.69 1479.01 Q846.519 1475.44 846.519 1468.33 Q846.519 1461.2 844.69 1457.66 Q842.884 1454.1 839.25 1454.1 M839.25 1450.39 Q845.06 1450.39 848.116 1455 Q851.194 1459.58 851.194 1468.33 Q851.194 1477.06 848.116 1481.67 Q845.06 1486.25 839.25 1486.25 Q833.44 1486.25 830.361 1481.67 Q827.306 1477.06 827.306 1468.33 Q827.306 1459.58 830.361 1455 Q833.44 1450.39 839.25 1450.39 Z" fill="#000000" fill-rule="nonzero" fill-opacity="1" /><path clip-path="url(#clip980)" d="M1263.61 1451.02 L1281.97 1451.02 L1281.97 1454.96 L1267.89 1454.96 L1267.89 1463.43 Q1268.91 1463.08 1269.93 1462.92 Q1270.95 1462.73 1271.97 1462.73 Q1277.75 1462.73 1281.13 1465.9 Q1284.51 1469.08 1284.51 1474.49 Q1284.51 1480.07 1281.04 1483.17 Q1277.57 1486.25 1271.25 1486.25 Q1269.07 1486.25 1266.8 1485.88 Q1264.56 1485.51 1262.15 1484.77 L1262.15 1480.07 Q1264.23 1481.2 1266.46 1481.76 Q1268.68 1482.32 1271.16 1482.32 Q1275.16 1482.32 1277.5 1480.21 Q1279.84 1478.1 1279.84 1474.49 Q1279.84 1470.88 1277.5 1468.77 Q1275.16 1466.67 1271.16 1466.67 Q1269.28 1466.67 1267.41 1467.08 Q1265.55 1467.5 1263.61 1468.38 L1263.61 1451.02 Z" fill="#000000" fill-rule="nonzero" fill-opacity="1" /><path clip-path="url(#clip980)" d="M1303.72 1454.1 Q1300.11 1454.1 1298.28 1457.66 Q1296.48 1461.2 1296.48 1468.33 Q1296.48 1475.44 1298.28 1479.01 Q1300.11 1482.55 1303.72 1482.55 Q1307.36 1482.55 1309.16 1479.01 Q1310.99 1475.44 1310.99 1468.33 Q1310.99 1461.2 1309.16 1457.66 Q1307.36 1454.1 1303.72 1454.1 M1303.72 1450.39 Q1309.53 1450.39 1312.59 1455 Q1315.67 1459.58 1315.67 1468.33 Q1315.67 1477.06 1312.59 1481.67 Q1309.53 1486.25 1303.72 1486.25 Q1297.91 1486.25 1294.84 1481.67 Q1291.78 1477.06 1291.78 1468.33 Q1291.78 1459.58 1294.84 1455 Q1297.91 1450.39 1303.72 1450.39 Z" fill="#000000" fill-rule="nonzero" fill-opacity="1" /><path clip-path="url(#clip980)" d="M1333.89 1454.1 Q1330.28 1454.1 1328.45 1457.66 Q1326.64 1461.2 1326.64 1468.33 Q1326.64 1475.44 1328.45 1479.01 Q1330.28 1482.55 1333.89 1482.55 Q1337.52 1482.55 1339.33 1479.01 Q1341.15 1475.44 1341.15 1468.33 Q1341.15 1461.2 1339.33 1457.66 Q1337.52 1454.1 1333.89 1454.1 M1333.89 1450.39 Q1339.7 1450.39 1342.75 1455 Q1345.83 1459.58 1345.83 1468.33 Q1345.83 1477.06 1342.75 1481.67 Q1339.7 1486.25 1333.89 1486.25 Q1328.08 1486.25 1325 1481.67 Q1321.94 1477.06 1321.94 1468.33 Q1321.94 1459.58 1325 1455 Q1328.08 1450.39 1333.89 1450.39 Z" fill="#000000" fill-rule="nonzero" fill-opacity="1" /><path clip-path="url(#clip980)" d="M1756.99 1451.02 L1779.22 1451.02 L1779.22 1453.01 L1766.67 1485.58 L1761.79 1485.58 L1773.59 1454.96 L1756.99 1454.96 L1756.99 1451.02 Z" fill="#000000" fill-rule="nonzero" fill-opacity="1" /><path clip-path="url(#clip980)" d="M1788.38 1451.02 L1806.74 1451.02 L1806.74 1454.96 L1792.67 1454.96 L1792.67 1463.43 Q1793.68 1463.08 1794.7 1462.92 Q1795.72 1462.73 1796.74 1462.73 Q1802.53 1462.73 1805.91 1465.9 Q1809.29 1469.08 1809.29 1474.49 Q1809.29 1480.07 1805.81 1483.17 Q1802.34 1486.25 1796.02 1486.25 Q1793.85 1486.25 1791.58 1485.88 Q1789.33 1485.51 1786.93 1484.77 L1786.93 1480.07 Q1789.01 1481.2 1791.23 1481.76 Q1793.45 1482.32 1795.93 1482.32 Q1799.93 1482.32 1802.27 1480.21 Q1804.61 1478.1 1804.61 1474.49 Q1804.61 1470.88 1802.27 1468.77 Q1799.93 1466.67 1795.93 1466.67 Q1794.05 1466.67 1792.18 1467.08 Q1790.33 1467.5 1788.38 1468.38 L1788.38 1451.02 Z" fill="#000000" fill-rule="nonzero" fill-opacity="1" /><path clip-path="url(#clip980)" d="M1828.5 1454.1 Q1824.89 1454.1 1823.06 1457.66 Q1821.25 1461.2 1821.25 1468.33 Q1821.25 1475.44 1823.06 1479.01 Q1824.89 1482.55 1828.5 1482.55 Q1832.13 1482.55 1833.94 1479.01 Q1835.77 1475.44 1835.77 1468.33 Q1835.77 1461.2 1833.94 1457.66 Q1832.13 1454.1 1828.5 1454.1 M1828.5 1450.39 Q1834.31 1450.39 1837.36 1455 Q1840.44 1459.58 1840.44 1468.33 Q1840.44 1477.06 1837.36 1481.67 Q1834.31 1486.25 1828.5 1486.25 Q1822.69 1486.25 1819.61 1481.67 Q1816.55 1477.06 1816.55 1468.33 Q1816.55 1459.58 1819.61 1455 Q1822.69 1450.39 1828.5 1450.39 Z" fill="#000000" fill-rule="nonzero" fill-opacity="1" /><path clip-path="url(#clip980)" d="M2237.97 1481.64 L2245.61 1481.64 L2245.61 1455.28 L2237.3 1456.95 L2237.3 1452.69 L2245.57 1451.02 L2250.24 1451.02 L2250.24 1481.64 L2257.88 1481.64 L2257.88 1485.58 L2237.97 1485.58 L2237.97 1481.64 Z" fill="#000000" fill-rule="nonzero" fill-opacity="1" /><path clip-path="url(#clip980)" d="M2277.33 1454.1 Q2273.71 1454.1 2271.89 1457.66 Q2270.08 1461.2 2270.08 1468.33 Q2270.08 1475.44 2271.89 1479.01 Q2273.71 1482.55 2277.33 1482.55 Q2280.96 1482.55 2282.77 1479.01 Q2284.59 1475.44 2284.59 1468.33 Q2284.59 1461.2 2282.77 1457.66 Q2280.96 1454.1 2277.33 1454.1 M2277.33 1450.39 Q2283.14 1450.39 2286.19 1455 Q2289.27 1459.58 2289.27 1468.33 Q2289.27 1477.06 2286.19 1481.67 Q2283.14 1486.25 2277.33 1486.25 Q2271.52 1486.25 2268.44 1481.67 Q2265.38 1477.06 2265.38 1468.33 Q2265.38 1459.58 2268.44 1455 Q2271.52 1450.39 2277.33 1450.39 Z" fill="#000000" fill-rule="nonzero" fill-opacity="1" /><path clip-path="url(#clip980)" d="M2307.49 1454.1 Q2303.88 1454.1 2302.05 1457.66 Q2300.24 1461.2 2300.24 1468.33 Q2300.24 1475.44 2302.05 1479.01 Q2303.88 1482.55 2307.49 1482.55 Q2311.12 1482.55 2312.93 1479.01 Q2314.76 1475.44 2314.76 1468.33 Q2314.76 1461.2 2312.93 1457.66 Q2311.12 1454.1 2307.49 1454.1 M2307.49 1450.39 Q2313.3 1450.39 2316.35 1455 Q2319.43 1459.58 2319.43 1468.33 Q2319.43 1477.06 2316.35 1481.67 Q2313.3 1486.25 2307.49 1486.25 Q2301.68 1486.25 2298.6 1481.67 Q2295.54 1477.06 2295.54 1468.33 Q2295.54 1459.58 2298.6 1455 Q2301.68 1450.39 2307.49 1450.39 Z" fill="#000000" fill-rule="nonzero" fill-opacity="1" /><path clip-path="url(#clip980)" d="M2337.65 1454.1 Q2334.04 1454.1 2332.21 1457.66 Q2330.4 1461.2 2330.4 1468.33 Q2330.4 1475.44 2332.21 1479.01 Q2334.04 1482.55 2337.65 1482.55 Q2341.28 1482.55 2343.09 1479.01 Q2344.92 1475.44 2344.92 1468.33 Q2344.92 1461.2 2343.09 1457.66 Q2341.28 1454.1 2337.65 1454.1 M2337.65 1450.39 Q2343.46 1450.39 2346.51 1455 Q2349.59 1459.58 2349.59 1468.33 Q2349.59 1477.06 2346.51 1481.67 Q2343.46 1486.25 2337.65 1486.25 Q2331.84 1486.25 2328.76 1481.67 Q2325.7 1477.06 2325.7 1468.33 Q2325.7 1459.58 2328.76 1455 Q2331.84 1450.39 2337.65 1450.39 Z" fill="#000000" fill-rule="nonzero" fill-opacity="1" /><path clip-path="url(#clip980)" d="M1268.82 1524.18 L1268.82 1530.96 Q1265.58 1527.94 1261.88 1526.44 Q1258.22 1524.95 1254.09 1524.95 Q1245.94 1524.95 1241.61 1529.95 Q1237.28 1534.91 1237.28 1544.33 Q1237.28 1553.72 1241.61 1558.72 Q1245.94 1563.68 1254.09 1563.68 Q1258.22 1563.68 1261.88 1562.19 Q1265.58 1560.69 1268.82 1557.67 L1268.82 1564.38 Q1265.45 1566.68 1261.66 1567.82 Q1257.91 1568.97 1253.7 1568.97 Q1242.91 1568.97 1236.71 1562.38 Q1230.5 1555.76 1230.5 1544.33 Q1230.5 1532.87 1236.71 1526.28 Q1242.91 1519.66 1253.7 1519.66 Q1257.97 1519.66 1261.72 1520.81 Q1265.51 1521.92 1268.82 1524.18 Z" fill="#000000" fill-rule="nonzero" fill-opacity="1" /><path clip-path="url(#clip980)" d="M1308.99 1548.76 L1308.99 1551.62 L1282.06 1551.62 Q1282.45 1557.67 1285.69 1560.85 Q1288.97 1564 1294.79 1564 Q1298.17 1564 1301.32 1563.17 Q1304.5 1562.35 1307.62 1560.69 L1307.62 1566.23 Q1304.47 1567.57 1301.16 1568.27 Q1297.85 1568.97 1294.44 1568.97 Q1285.91 1568.97 1280.92 1564 Q1275.95 1559.04 1275.95 1550.57 Q1275.95 1541.82 1280.66 1536.69 Q1285.41 1531.54 1293.43 1531.54 Q1300.62 1531.54 1304.79 1536.18 Q1308.99 1540.8 1308.99 1548.76 M1303.13 1547.04 Q1303.07 1542.23 1300.43 1539.37 Q1297.82 1536.5 1293.49 1536.5 Q1288.59 1536.5 1285.63 1539.27 Q1282.7 1542.04 1282.25 1547.07 L1303.13 1547.04 Z" fill="#000000" fill-rule="nonzero" fill-opacity="1" /><path clip-path="url(#clip980)" d="M1318.6 1518.52 L1324.46 1518.52 L1324.46 1568.04 L1318.6 1568.04 L1318.6 1518.52 Z" fill="#000000" fill-rule="nonzero" fill-opacity="1" /><path clip-path="url(#clip980)" d="M1336.71 1518.52 L1342.57 1518.52 L1342.57 1568.04 L1336.71 1568.04 L1336.71 1518.52 Z" fill="#000000" fill-rule="nonzero" fill-opacity="1" /><path clip-path="url(#clip980)" d="M1377.55 1533.45 L1377.55 1538.98 Q1375.07 1537.71 1372.39 1537.07 Q1369.72 1536.44 1366.85 1536.44 Q1362.49 1536.44 1360.3 1537.77 Q1358.13 1539.11 1358.13 1541.79 Q1358.13 1543.82 1359.69 1545 Q1361.25 1546.15 1365.96 1547.2 L1367.97 1547.64 Q1374.21 1548.98 1376.82 1551.43 Q1379.46 1553.85 1379.46 1558.21 Q1379.46 1563.17 1375.51 1566.07 Q1371.6 1568.97 1364.72 1568.97 Q1361.86 1568.97 1358.74 1568.39 Q1355.65 1567.85 1352.21 1566.74 L1352.21 1560.69 Q1355.46 1562.38 1358.61 1563.24 Q1361.76 1564.07 1364.85 1564.07 Q1368.99 1564.07 1371.22 1562.66 Q1373.44 1561.23 1373.44 1558.65 Q1373.44 1556.27 1371.82 1554.99 Q1370.23 1553.72 1364.79 1552.54 L1362.75 1552.07 Q1357.31 1550.92 1354.89 1548.56 Q1352.47 1546.18 1352.47 1542.04 Q1352.47 1537.01 1356.03 1534.27 Q1359.6 1531.54 1366.15 1531.54 Q1369.4 1531.54 1372.27 1532.01 Q1375.13 1532.49 1377.55 1533.45 Z" fill="#000000" fill-rule="nonzero" fill-opacity="1" /><polyline clip-path="url(#clip982)" style="stroke:#000000; stroke-linecap:round; stroke-linejoin:round; stroke-width:2; stroke-opacity:0.1; fill:none" points="257.204,1411.04 2352.76,1411.04 "/>
<polyline clip-path="url(#clip982)" style="stroke:#000000; stroke-linecap:round; stroke-linejoin:round; stroke-width:2; stroke-opacity:0.1; fill:none" points="257.204,1096.47 2352.76,1096.47 "/>
<polyline clip-path="url(#clip982)" style="stroke:#000000; stroke-linecap:round; stroke-linejoin:round; stroke-width:2; stroke-opacity:0.1; fill:none" points="257.204,781.907 2352.76,781.907 "/>
<polyline clip-path="url(#clip982)" style="stroke:#000000; stroke-linecap:round; stroke-linejoin:round; stroke-width:2; stroke-opacity:0.1; fill:none" points="257.204,467.34 2352.76,467.34 "/>
<polyline clip-path="url(#clip982)" style="stroke:#000000; stroke-linecap:round; stroke-linejoin:round; stroke-width:2; stroke-opacity:0.1; fill:none" points="257.204,152.772 2352.76,152.772 "/>
<polyline clip-path="url(#clip980)" style="stroke:#000000; stroke-linecap:round; stroke-linejoin:round; stroke-width:4; stroke-opacity:1; fill:none" points="257.204,1423.18 257.204,123.472 "/>
<polyline clip-path="url(#clip980)" style="stroke:#000000; stroke-linecap:round; stroke-linejoin:round; stroke-width:4; stroke-opacity:1; fill:none" points="257.204,1411.04 276.102,1411.04 "/>
<polyline clip-path="url(#clip980)" style="stroke:#000000; stroke-linecap:round; stroke-linejoin:round; stroke-width:4; stroke-opacity:1; fill:none" points="257.204,1096.47 276.102,1096.47 "/>
<polyline clip-path="url(#clip980)" style="stroke:#000000; stroke-linecap:round; stroke-linejoin:round; stroke-width:4; stroke-opacity:1; fill:none" points="257.204,781.907 276.102,781.907 "/>
<polyline clip-path="url(#clip980)" style="stroke:#000000; stroke-linecap:round; stroke-linejoin:round; stroke-width:4; stroke-opacity:1; fill:none" points="257.204,467.34 276.102,467.34 "/>
<polyline clip-path="url(#clip980)" style="stroke:#000000; stroke-linecap:round; stroke-linejoin:round; stroke-width:4; stroke-opacity:1; fill:none" points="257.204,152.772 276.102,152.772 "/>
<path clip-path="url(#clip980)" d="M114.26 1411.49 L143.936 1411.49 L143.936 1415.43 L114.26 1415.43 L114.26 1411.49 Z" fill="#000000" fill-rule="nonzero" fill-opacity="1" /><path clip-path="url(#clip980)" d="M154.839 1424.39 L162.477 1424.39 L162.477 1398.02 L154.167 1399.69 L154.167 1395.43 L162.431 1393.76 L167.107 1393.76 L167.107 1424.39 L174.746 1424.39 L174.746 1428.32 L154.839 1428.32 L154.839 1424.39 Z" fill="#000000" fill-rule="nonzero" fill-opacity="1" /><path clip-path="url(#clip980)" d="M184.19 1422.44 L189.075 1422.44 L189.075 1428.32 L184.19 1428.32 L184.19 1422.44 Z" fill="#000000" fill-rule="nonzero" fill-opacity="1" /><path clip-path="url(#clip980)" d="M209.26 1396.84 Q205.649 1396.84 203.82 1400.41 Q202.014 1403.95 202.014 1411.08 Q202.014 1418.18 203.82 1421.75 Q205.649 1425.29 209.26 1425.29 Q212.894 1425.29 214.699 1421.75 Q216.528 1418.18 216.528 1411.08 Q216.528 1403.95 214.699 1400.41 Q212.894 1396.84 209.26 1396.84 M209.26 1393.14 Q215.07 1393.14 218.125 1397.74 Q221.204 1402.33 221.204 1411.08 Q221.204 1419.8 218.125 1424.41 Q215.07 1428.99 209.26 1428.99 Q203.449 1428.99 200.371 1424.41 Q197.315 1419.8 197.315 1411.08 Q197.315 1402.33 200.371 1397.74 Q203.449 1393.14 209.26 1393.14 Z" fill="#000000" fill-rule="nonzero" fill-opacity="1" /><path clip-path="url(#clip980)" d="M115.256 1096.93 L144.931 1096.93 L144.931 1100.86 L115.256 1100.86 L115.256 1096.93 Z" fill="#000000" fill-rule="nonzero" fill-opacity="1" /><path clip-path="url(#clip980)" d="M165.024 1082.27 Q161.413 1082.27 159.584 1085.84 Q157.778 1089.38 157.778 1096.51 Q157.778 1103.62 159.584 1107.18 Q161.413 1110.72 165.024 1110.72 Q168.658 1110.72 170.464 1107.18 Q172.292 1103.62 172.292 1096.51 Q172.292 1089.38 170.464 1085.84 Q168.658 1082.27 165.024 1082.27 M165.024 1078.57 Q170.834 1078.57 173.889 1083.18 Q176.968 1087.76 176.968 1096.51 Q176.968 1105.24 173.889 1109.84 Q170.834 1114.43 165.024 1114.43 Q159.214 1114.43 156.135 1109.84 Q153.079 1105.24 153.079 1096.51 Q153.079 1087.76 156.135 1083.18 Q159.214 1078.57 165.024 1078.57 Z" fill="#000000" fill-rule="nonzero" fill-opacity="1" /><path clip-path="url(#clip980)" d="M185.186 1107.87 L190.07 1107.87 L190.07 1113.75 L185.186 1113.75 L185.186 1107.87 Z" fill="#000000" fill-rule="nonzero" fill-opacity="1" /><path clip-path="url(#clip980)" d="M200.301 1079.19 L218.658 1079.19 L218.658 1083.13 L204.584 1083.13 L204.584 1091.6 Q205.602 1091.25 206.621 1091.09 Q207.639 1090.91 208.658 1090.91 Q214.445 1090.91 217.824 1094.08 Q221.204 1097.25 221.204 1102.67 Q221.204 1108.24 217.732 1111.35 Q214.26 1114.43 207.94 1114.43 Q205.764 1114.43 203.496 1114.06 Q201.25 1113.68 198.843 1112.94 L198.843 1108.24 Q200.926 1109.38 203.149 1109.93 Q205.371 1110.49 207.848 1110.49 Q211.852 1110.49 214.19 1108.38 Q216.528 1106.28 216.528 1102.67 Q216.528 1099.06 214.19 1096.95 Q211.852 1094.84 207.848 1094.84 Q205.973 1094.84 204.098 1095.26 Q202.246 1095.68 200.301 1096.56 L200.301 1079.19 Z" fill="#000000" fill-rule="nonzero" fill-opacity="1" /><path clip-path="url(#clip980)" d="M164.028 767.706 Q160.417 767.706 158.589 771.27 Q156.783 774.812 156.783 781.942 Q156.783 789.048 158.589 792.613 Q160.417 796.155 164.028 796.155 Q167.663 796.155 169.468 792.613 Q171.297 789.048 171.297 781.942 Q171.297 774.812 169.468 771.27 Q167.663 767.706 164.028 767.706 M164.028 764.002 Q169.839 764.002 172.894 768.608 Q175.973 773.192 175.973 781.942 Q175.973 790.668 172.894 795.275 Q169.839 799.858 164.028 799.858 Q158.218 799.858 155.14 795.275 Q152.084 790.668 152.084 781.942 Q152.084 773.192 155.14 768.608 Q158.218 764.002 164.028 764.002 Z" fill="#000000" fill-rule="nonzero" fill-opacity="1" /><path clip-path="url(#clip980)" d="M184.19 793.307 L189.075 793.307 L189.075 799.187 L184.19 799.187 L184.19 793.307 Z" fill="#000000" fill-rule="nonzero" fill-opacity="1" /><path clip-path="url(#clip980)" d="M209.26 767.706 Q205.649 767.706 203.82 771.27 Q202.014 774.812 202.014 781.942 Q202.014 789.048 203.82 792.613 Q205.649 796.155 209.26 796.155 Q212.894 796.155 214.699 792.613 Q216.528 789.048 216.528 781.942 Q216.528 774.812 214.699 771.27 Q212.894 767.706 209.26 767.706 M209.26 764.002 Q215.07 764.002 218.125 768.608 Q221.204 773.192 221.204 781.942 Q221.204 790.668 218.125 795.275 Q215.07 799.858 209.26 799.858 Q203.449 799.858 200.371 795.275 Q197.315 790.668 197.315 781.942 Q197.315 773.192 200.371 768.608 Q203.449 764.002 209.26 764.002 Z" fill="#000000" fill-rule="nonzero" fill-opacity="1" /><path clip-path="url(#clip980)" d="M165.024 453.138 Q161.413 453.138 159.584 456.703 Q157.778 460.245 157.778 467.374 Q157.778 474.481 159.584 478.046 Q161.413 481.587 165.024 481.587 Q168.658 481.587 170.464 478.046 Q172.292 474.481 172.292 467.374 Q172.292 460.245 170.464 456.703 Q168.658 453.138 165.024 453.138 M165.024 449.435 Q170.834 449.435 173.889 454.041 Q176.968 458.624 176.968 467.374 Q176.968 476.101 173.889 480.708 Q170.834 485.291 165.024 485.291 Q159.214 485.291 156.135 480.708 Q153.079 476.101 153.079 467.374 Q153.079 458.624 156.135 454.041 Q159.214 449.435 165.024 449.435 Z" fill="#000000" fill-rule="nonzero" fill-opacity="1" /><path clip-path="url(#clip980)" d="M185.186 478.74 L190.07 478.74 L190.07 484.62 L185.186 484.62 L185.186 478.74 Z" fill="#000000" fill-rule="nonzero" fill-opacity="1" /><path clip-path="url(#clip980)" d="M200.301 450.06 L218.658 450.06 L218.658 453.995 L204.584 453.995 L204.584 462.467 Q205.602 462.12 206.621 461.958 Q207.639 461.773 208.658 461.773 Q214.445 461.773 217.824 464.944 Q221.204 468.115 221.204 473.532 Q221.204 479.11 217.732 482.212 Q214.26 485.291 207.94 485.291 Q205.764 485.291 203.496 484.921 Q201.25 484.55 198.843 483.809 L198.843 479.11 Q200.926 480.245 203.149 480.8 Q205.371 481.356 207.848 481.356 Q211.852 481.356 214.19 479.249 Q216.528 477.143 216.528 473.532 Q216.528 469.921 214.19 467.814 Q211.852 465.708 207.848 465.708 Q205.973 465.708 204.098 466.124 Q202.246 466.541 200.301 467.421 L200.301 450.06 Z" fill="#000000" fill-rule="nonzero" fill-opacity="1" /><path clip-path="url(#clip980)" d="M154.839 166.117 L162.477 166.117 L162.477 139.752 L154.167 141.418 L154.167 137.159 L162.431 135.492 L167.107 135.492 L167.107 166.117 L174.746 166.117 L174.746 170.052 L154.839 170.052 L154.839 166.117 Z" fill="#000000" fill-rule="nonzero" fill-opacity="1" /><path clip-path="url(#clip980)" d="M184.19 164.173 L189.075 164.173 L189.075 170.052 L184.19 170.052 L184.19 164.173 Z" fill="#000000" fill-rule="nonzero" fill-opacity="1" /><path clip-path="url(#clip980)" d="M209.26 138.571 Q205.649 138.571 203.82 142.136 Q202.014 145.677 202.014 152.807 Q202.014 159.913 203.82 163.478 Q205.649 167.02 209.26 167.02 Q212.894 167.02 214.699 163.478 Q216.528 159.913 216.528 152.807 Q216.528 145.677 214.699 142.136 Q212.894 138.571 209.26 138.571 M209.26 134.867 Q215.07 134.867 218.125 139.474 Q221.204 144.057 221.204 152.807 Q221.204 161.534 218.125 166.14 Q215.07 170.724 209.26 170.724 Q203.449 170.724 200.371 166.14 Q197.315 161.534 197.315 152.807 Q197.315 144.057 200.371 139.474 Q203.449 134.867 209.26 134.867 Z" fill="#000000" fill-rule="nonzero" fill-opacity="1" /><path clip-path="url(#clip980)" d="M18.0438 893.717 L24.314 893.717 Q22.5634 897.378 21.704 900.624 Q20.8447 903.871 20.8447 906.894 Q20.8447 912.146 22.8817 915.011 Q24.9187 917.843 28.6745 917.843 Q31.8255 917.843 33.4488 915.966 Q35.0402 914.056 36.0269 908.772 L36.8226 904.889 Q38.1912 897.696 41.6605 894.29 Q45.098 890.853 50.8908 890.853 Q57.7976 890.853 61.3624 895.5 Q64.9272 900.115 64.9272 909.059 Q64.9272 912.433 64.1633 916.252 Q63.3994 920.04 61.9035 924.114 L55.2831 924.114 Q57.4793 920.199 58.5933 916.443 Q59.7073 912.687 59.7073 909.059 Q59.7073 903.552 57.543 900.561 Q55.3786 897.569 51.3682 897.569 Q47.8671 897.569 45.8937 899.733 Q43.9204 901.866 42.9337 906.767 L42.1698 910.682 Q40.7375 917.875 37.682 921.09 Q34.6264 924.305 29.1837 924.305 Q22.8817 924.305 19.2532 919.88 Q15.6248 915.424 15.6248 907.626 Q15.6248 904.284 16.2295 900.815 Q16.8343 897.346 18.0438 893.717 Z" fill="#000000" fill-rule="nonzero" fill-opacity="1" /><path clip-path="url(#clip980)" d="M28.3562 881.081 L28.3562 875.225 L64.0042 875.225 L64.0042 881.081 L28.3562 881.081 M14.479 881.081 L14.479 875.225 L21.895 875.225 L21.895 881.081 L14.479 881.081 Z" fill="#000000" fill-rule="nonzero" fill-opacity="1" /><path clip-path="url(#clip980)" d="M35.1993 835.217 Q31.2526 833.02 29.3747 829.965 Q27.4968 826.909 27.4968 822.772 Q27.4968 817.202 31.4117 814.178 Q35.2948 811.154 42.4881 811.154 L64.0042 811.154 L64.0042 817.042 L42.679 817.042 Q37.5546 817.042 35.072 818.857 Q32.5894 820.671 32.5894 824.395 Q32.5894 828.946 35.6131 831.588 Q38.6368 834.23 43.8567 834.23 L64.0042 834.23 L64.0042 840.118 L42.679 840.118 Q37.5228 840.118 35.072 841.932 Q32.5894 843.747 32.5894 847.534 Q32.5894 852.022 35.6449 854.664 Q38.6686 857.306 43.8567 857.306 L64.0042 857.306 L64.0042 863.194 L28.3562 863.194 L28.3562 857.306 L33.8944 857.306 Q30.616 855.3 29.0564 852.499 Q27.4968 849.699 27.4968 845.847 Q27.4968 841.964 29.4702 839.259 Q31.4436 836.522 35.1993 835.217 Z" fill="#000000" fill-rule="nonzero" fill-opacity="1" /><path clip-path="url(#clip980)" d="M28.3562 799.473 L28.3562 793.617 L64.0042 793.617 L64.0042 799.473 L28.3562 799.473 M14.479 799.473 L14.479 793.617 L21.895 793.617 L21.895 799.473 L14.479 799.473 Z" fill="#000000" fill-rule="nonzero" fill-opacity="1" /><path clip-path="url(#clip980)" d="M14.479 781.363 L14.479 775.506 L64.0042 775.506 L64.0042 781.363 L14.479 781.363 Z" fill="#000000" fill-rule="nonzero" fill-opacity="1" /><path clip-path="url(#clip980)" d="M46.0847 747.052 Q46.0847 754.149 47.7079 756.887 Q49.3312 759.624 53.2461 759.624 Q56.3653 759.624 58.2114 757.587 Q60.0256 755.518 60.0256 751.985 Q60.0256 747.115 56.5881 744.187 Q53.1188 741.227 47.3897 741.227 L46.0847 741.227 L46.0847 747.052 M43.6657 735.37 L64.0042 735.37 L64.0042 741.227 L58.5933 741.227 Q61.8398 743.232 63.3994 746.224 Q64.9272 749.216 64.9272 753.545 Q64.9272 759.019 61.8716 762.266 Q58.7843 765.48 53.6281 765.48 Q47.6125 765.48 44.5569 761.47 Q41.5014 757.428 41.5014 749.439 L41.5014 741.227 L40.9285 741.227 Q36.8862 741.227 34.6901 743.901 Q32.4621 746.542 32.4621 751.348 Q32.4621 754.404 33.1941 757.3 Q33.9262 760.197 35.3903 762.87 L29.9795 762.87 Q28.7381 759.656 28.1334 756.632 Q27.4968 753.608 27.4968 750.744 Q27.4968 743.009 31.5072 739.19 Q35.5176 735.37 43.6657 735.37 Z" fill="#000000" fill-rule="nonzero" fill-opacity="1" /><path clip-path="url(#clip980)" d="M33.8307 702.651 Q33.2578 703.637 33.0032 704.815 Q32.7167 705.961 32.7167 707.361 Q32.7167 712.327 35.9632 715 Q39.1779 717.642 45.2253 717.642 L64.0042 717.642 L64.0042 723.53 L28.3562 723.53 L28.3562 717.642 L33.8944 717.642 Q30.6479 715.796 29.0883 712.836 Q27.4968 709.876 27.4968 705.643 Q27.4968 705.038 27.5923 704.306 Q27.656 703.574 27.8151 702.683 L33.8307 702.651 Z" fill="#000000" fill-rule="nonzero" fill-opacity="1" /><path clip-path="url(#clip980)" d="M28.3562 696.508 L28.3562 690.651 L64.0042 690.651 L64.0042 696.508 L28.3562 696.508 M14.479 696.508 L14.479 690.651 L21.895 690.651 L21.895 696.508 L14.479 696.508 Z" fill="#000000" fill-rule="nonzero" fill-opacity="1" /><path clip-path="url(#clip980)" d="M18.2347 672.605 L28.3562 672.605 L28.3562 660.542 L32.9077 660.542 L32.9077 672.605 L52.2594 672.605 Q56.6199 672.605 57.8613 671.427 Q59.1026 670.217 59.1026 666.557 L59.1026 660.542 L64.0042 660.542 L64.0042 666.557 Q64.0042 673.337 61.4897 675.915 Q58.9434 678.493 52.2594 678.493 L32.9077 678.493 L32.9077 682.79 L28.3562 682.79 L28.3562 678.493 L18.2347 678.493 L18.2347 672.605 Z" fill="#000000" fill-rule="nonzero" fill-opacity="1" /><path clip-path="url(#clip980)" d="M67.3143 638.007 Q73.68 640.49 75.6216 642.845 Q77.5631 645.2 77.5631 649.147 L77.5631 653.826 L72.6615 653.826 L72.6615 650.388 Q72.6615 647.969 71.5157 646.633 Q70.3699 645.296 66.1048 643.672 L63.4312 642.622 L28.3562 657.04 L28.3562 650.834 L56.238 639.694 L28.3562 628.554 L28.3562 622.347 L67.3143 638.007 Z" fill="#000000" fill-rule="nonzero" fill-opacity="1" /><path clip-path="url(#clip980)" d="M396.18 14.0809 L396.18 22.0612 Q391.521 19.8332 387.389 18.7395 Q383.257 17.6457 379.409 17.6457 Q372.725 17.6457 369.079 20.2383 Q365.474 22.8309 365.474 27.611 Q365.474 31.6214 367.864 33.6873 Q370.295 35.7128 377.019 36.9686 L381.961 37.9813 Q391.116 39.7232 395.451 44.1387 Q399.826 48.5136 399.826 55.8863 Q399.826 64.6767 393.911 69.2137 Q388.038 73.7508 376.655 73.7508 Q372.361 73.7508 367.499 72.7785 Q362.679 71.8063 357.494 69.9024 L357.494 61.4765 Q362.476 64.2716 367.256 65.6895 Q372.036 67.1073 376.655 67.1073 Q383.663 67.1073 387.47 64.3527 Q391.278 61.598 391.278 56.4939 Q391.278 52.0379 388.524 49.5264 Q385.81 47.0148 379.571 45.759 L374.589 44.7868 Q365.433 42.9639 361.342 39.075 Q357.251 35.1862 357.251 28.2591 Q357.251 20.2383 362.881 15.6203 Q368.553 11.0023 378.477 11.0023 Q382.731 11.0023 387.146 11.7719 Q391.562 12.5416 396.18 14.0809 Z" fill="#000000" fill-rule="nonzero" fill-opacity="1" /><path clip-path="url(#clip980)" d="M429.843 32.4315 Q423.848 32.4315 420.364 37.1306 Q416.88 41.7891 416.88 49.9314 Q416.88 58.0738 420.323 62.7728 Q423.807 67.4314 429.843 67.4314 Q435.798 67.4314 439.281 62.7323 Q442.765 58.0333 442.765 49.9314 Q442.765 41.8701 439.281 37.1711 Q435.798 32.4315 429.843 32.4315 M429.843 26.1121 Q439.565 26.1121 445.115 32.4315 Q450.665 38.7509 450.665 49.9314 Q450.665 61.0714 445.115 67.4314 Q439.565 73.7508 429.843 73.7508 Q420.08 73.7508 414.53 67.4314 Q409.021 61.0714 409.021 49.9314 Q409.021 38.7509 414.53 32.4315 Q420.08 26.1121 429.843 26.1121 Z" fill="#000000" fill-rule="nonzero" fill-opacity="1" /><path clip-path="url(#clip980)" d="M489.31 34.1734 Q488.054 33.4443 486.556 33.1202 Q485.097 32.7556 483.315 32.7556 Q476.995 32.7556 473.593 36.8875 Q470.23 40.9789 470.23 48.6757 L470.23 72.576 L462.736 72.576 L462.736 27.2059 L470.23 27.2059 L470.23 34.2544 Q472.58 30.1225 476.347 28.1376 Q480.115 26.1121 485.502 26.1121 Q486.272 26.1121 487.204 26.2337 Q488.135 26.3147 489.27 26.5172 L489.31 34.1734 Z" fill="#000000" fill-rule="nonzero" fill-opacity="1" /><path clip-path="url(#clip980)" d="M504.501 14.324 L504.501 27.2059 L519.854 27.2059 L519.854 32.9987 L504.501 32.9987 L504.501 57.6282 Q504.501 63.1779 506 64.7578 Q507.539 66.3376 512.198 66.3376 L519.854 66.3376 L519.854 72.576 L512.198 72.576 Q503.569 72.576 500.288 69.3758 Q497.007 66.1351 497.007 57.6282 L497.007 32.9987 L491.538 32.9987 L491.538 27.2059 L497.007 27.2059 L497.007 14.324 L504.501 14.324 Z" fill="#000000" fill-rule="nonzero" fill-opacity="1" /><path clip-path="url(#clip980)" d="M568.465 48.0275 L568.465 51.6733 L534.194 51.6733 Q534.68 59.3701 538.812 63.421 Q542.985 67.4314 550.398 67.4314 Q554.692 67.4314 558.702 66.3781 Q562.753 65.3249 566.723 63.2184 L566.723 70.267 Q562.713 71.9684 558.5 72.8596 Q554.287 73.7508 549.952 73.7508 Q539.096 73.7508 532.736 67.4314 Q526.416 61.1119 526.416 50.3365 Q526.416 39.1965 532.412 32.6746 Q538.448 26.1121 548.656 26.1121 Q557.811 26.1121 563.118 32.0264 Q568.465 37.9003 568.465 48.0275 M561.011 45.84 Q560.93 39.7232 557.568 36.0774 Q554.246 32.4315 548.737 32.4315 Q542.499 32.4315 538.731 35.9558 Q535.004 39.4801 534.437 45.8805 L561.011 45.84 Z" fill="#000000" fill-rule="nonzero" fill-opacity="1" /><path clip-path="url(#clip980)" d="M610.554 34.0924 L610.554 9.54393 L618.007 9.54393 L618.007 72.576 L610.554 72.576 L610.554 65.7705 Q608.204 69.8214 604.599 71.8063 Q601.034 73.7508 596.011 73.7508 Q587.788 73.7508 582.602 67.1883 Q577.458 60.6258 577.458 49.9314 Q577.458 39.2371 582.602 32.6746 Q587.788 26.1121 596.011 26.1121 Q601.034 26.1121 604.599 28.0971 Q608.204 30.0415 610.554 34.0924 M585.155 49.9314 Q585.155 58.1548 588.517 62.8538 Q591.92 67.5124 597.834 67.5124 Q603.748 67.5124 607.151 62.8538 Q610.554 58.1548 610.554 49.9314 Q610.554 41.7081 607.151 37.0496 Q603.748 32.3505 597.834 32.3505 Q591.92 32.3505 588.517 37.0496 Q585.155 41.7081 585.155 49.9314 Z" fill="#000000" fill-rule="nonzero" fill-opacity="1" /><path clip-path="url(#clip980)" d="M692.382 28.9478 L692.382 35.9153 Q689.222 34.1734 686.022 33.3227 Q682.862 32.4315 679.622 32.4315 Q672.371 32.4315 668.36 37.0496 Q664.35 41.6271 664.35 49.9314 Q664.35 58.2358 668.36 62.8538 Q672.371 67.4314 679.622 67.4314 Q682.862 67.4314 686.022 66.5807 Q689.222 65.6895 692.382 63.9476 L692.382 70.8341 Q689.263 72.2924 685.901 73.0216 Q682.579 73.7508 678.811 73.7508 Q668.563 73.7508 662.527 67.3098 Q656.491 60.8689 656.491 49.9314 Q656.491 38.832 662.567 32.472 Q668.684 26.1121 679.298 26.1121 Q682.741 26.1121 686.022 26.8413 Q689.303 27.5299 692.382 28.9478 Z" fill="#000000" fill-rule="nonzero" fill-opacity="1" /><path clip-path="url(#clip980)" d="M722.926 32.4315 Q716.93 32.4315 713.447 37.1306 Q709.963 41.7891 709.963 49.9314 Q709.963 58.0738 713.406 62.7728 Q716.89 67.4314 722.926 67.4314 Q728.881 67.4314 732.364 62.7323 Q735.848 58.0333 735.848 49.9314 Q735.848 41.8701 732.364 37.1711 Q728.881 32.4315 722.926 32.4315 M722.926 26.1121 Q732.648 26.1121 738.198 32.4315 Q743.747 38.7509 743.747 49.9314 Q743.747 61.0714 738.198 67.4314 Q732.648 73.7508 722.926 73.7508 Q713.163 73.7508 707.613 67.4314 Q702.104 61.0714 702.104 49.9314 Q702.104 38.7509 707.613 32.4315 Q713.163 26.1121 722.926 26.1121 Z" fill="#000000" fill-rule="nonzero" fill-opacity="1" /><path clip-path="url(#clip980)" d="M785.026 28.5427 L785.026 35.5912 Q781.866 33.9709 778.464 33.1607 Q775.061 32.3505 771.415 32.3505 Q765.865 32.3505 763.07 34.0519 Q760.316 35.7533 760.316 39.156 Q760.316 41.7486 762.301 43.2475 Q764.286 44.7058 770.281 46.0426 L772.833 46.6097 Q780.773 48.3111 784.094 51.4303 Q787.457 54.509 787.457 60.0587 Q787.457 66.3781 782.434 70.0644 Q777.451 73.7508 768.701 73.7508 Q765.055 73.7508 761.085 73.0216 Q757.156 72.3329 752.781 70.9151 L752.781 63.2184 Q756.913 65.3654 760.923 66.4591 Q764.934 67.5124 768.863 67.5124 Q774.129 67.5124 776.965 65.73 Q779.8 63.9071 779.8 60.6258 Q779.8 57.5877 777.735 55.9673 Q775.709 54.3469 768.782 52.8481 L766.189 52.2405 Q759.262 50.7821 756.184 47.7845 Q753.105 44.7463 753.105 39.4801 Q753.105 33.0797 757.642 29.5959 Q762.179 26.1121 770.524 26.1121 Q774.656 26.1121 778.302 26.7198 Q781.947 27.3274 785.026 28.5427 Z" fill="#000000" fill-rule="nonzero" fill-opacity="1" /><path clip-path="url(#clip980)" d="M799.326 27.2059 L806.78 27.2059 L806.78 72.576 L799.326 72.576 L799.326 27.2059 M799.326 9.54393 L806.78 9.54393 L806.78 18.9825 L799.326 18.9825 L799.326 9.54393 Z" fill="#000000" fill-rule="nonzero" fill-opacity="1" /><path clip-path="url(#clip980)" d="M860.089 45.1919 L860.089 72.576 L852.636 72.576 L852.636 45.4349 Q852.636 38.994 850.124 35.7938 Q847.613 32.5936 842.59 32.5936 Q836.554 32.5936 833.07 36.4419 Q829.586 40.2903 829.586 46.9338 L829.586 72.576 L822.092 72.576 L822.092 27.2059 L829.586 27.2059 L829.586 34.2544 Q832.26 30.163 835.865 28.1376 Q839.511 26.1121 844.25 26.1121 Q852.069 26.1121 856.079 30.9732 Q860.089 35.7938 860.089 45.1919 Z" fill="#000000" fill-rule="nonzero" fill-opacity="1" /><path clip-path="url(#clip980)" d="M913.764 48.0275 L913.764 51.6733 L879.493 51.6733 Q879.979 59.3701 884.111 63.421 Q888.284 67.4314 895.697 67.4314 Q899.991 67.4314 904.001 66.3781 Q908.052 65.3249 912.022 63.2184 L912.022 70.267 Q908.012 71.9684 903.799 72.8596 Q899.586 73.7508 895.251 73.7508 Q884.395 73.7508 878.035 67.4314 Q871.716 61.1119 871.716 50.3365 Q871.716 39.1965 877.711 32.6746 Q883.747 26.1121 893.955 26.1121 Q903.11 26.1121 908.417 32.0264 Q913.764 37.9003 913.764 48.0275 M906.31 45.84 Q906.229 39.7232 902.867 36.0774 Q899.545 32.4315 894.036 32.4315 Q887.798 32.4315 884.03 35.9558 Q880.303 39.4801 879.736 45.8805 L906.31 45.84 Z" fill="#000000" fill-rule="nonzero" fill-opacity="1" /><path clip-path="url(#clip980)" d="M981.292 28.5427 L981.292 35.5912 Q978.133 33.9709 974.73 33.1607 Q971.327 32.3505 967.681 32.3505 Q962.132 32.3505 959.337 34.0519 Q956.582 35.7533 956.582 39.156 Q956.582 41.7486 958.567 43.2475 Q960.552 44.7058 966.547 46.0426 L969.099 46.6097 Q977.039 48.3111 980.361 51.4303 Q983.723 54.509 983.723 60.0587 Q983.723 66.3781 978.7 70.0644 Q973.717 73.7508 964.967 73.7508 Q961.322 73.7508 957.352 73.0216 Q953.422 72.3329 949.047 70.9151 L949.047 63.2184 Q953.179 65.3654 957.19 66.4591 Q961.2 67.5124 965.129 67.5124 Q970.396 67.5124 973.231 65.73 Q976.067 63.9071 976.067 60.6258 Q976.067 57.5877 974.001 55.9673 Q971.975 54.3469 965.048 52.8481 L962.456 52.2405 Q955.529 50.7821 952.45 47.7845 Q949.371 44.7463 949.371 39.4801 Q949.371 33.0797 953.908 29.5959 Q958.445 26.1121 966.79 26.1121 Q970.922 26.1121 974.568 26.7198 Q978.214 27.3274 981.292 28.5427 Z" fill="#000000" fill-rule="nonzero" fill-opacity="1" /><path clip-path="url(#clip980)" d="M995.592 27.2059 L1003.05 27.2059 L1003.05 72.576 L995.592 72.576 L995.592 27.2059 M995.592 9.54393 L1003.05 9.54393 L1003.05 18.9825 L995.592 18.9825 L995.592 9.54393 Z" fill="#000000" fill-rule="nonzero" fill-opacity="1" /><path clip-path="url(#clip980)" d="M1053.97 35.9153 Q1056.76 30.8922 1060.65 28.5022 Q1064.54 26.1121 1069.8 26.1121 Q1076.89 26.1121 1080.74 31.0947 Q1084.59 36.0368 1084.59 45.1919 L1084.59 72.576 L1077.1 72.576 L1077.1 45.4349 Q1077.1 38.913 1074.79 35.7533 Q1072.48 32.5936 1067.74 32.5936 Q1061.95 32.5936 1058.58 36.4419 Q1055.22 40.2903 1055.22 46.9338 L1055.22 72.576 L1047.73 72.576 L1047.73 45.4349 Q1047.73 38.8725 1045.42 35.7533 Q1043.11 32.5936 1038.29 32.5936 Q1032.58 32.5936 1029.21 36.4824 Q1025.85 40.3308 1025.85 46.9338 L1025.85 72.576 L1018.36 72.576 L1018.36 27.2059 L1025.85 27.2059 L1025.85 34.2544 Q1028.4 30.082 1031.97 28.0971 Q1035.53 26.1121 1040.44 26.1121 Q1045.38 26.1121 1048.82 28.6237 Q1052.3 31.1352 1053.97 35.9153 Z" fill="#000000" fill-rule="nonzero" fill-opacity="1" /><path clip-path="url(#clip980)" d="M1099.46 27.2059 L1106.91 27.2059 L1106.91 72.576 L1099.46 72.576 L1099.46 27.2059 M1099.46 9.54393 L1106.91 9.54393 L1106.91 18.9825 L1099.46 18.9825 L1099.46 9.54393 Z" fill="#000000" fill-rule="nonzero" fill-opacity="1" /><path clip-path="url(#clip980)" d="M1122.51 9.54393 L1129.96 9.54393 L1129.96 72.576 L1122.51 72.576 L1122.51 9.54393 Z" fill="#000000" fill-rule="nonzero" fill-opacity="1" /><path clip-path="url(#clip980)" d="M1166.18 49.7694 Q1157.14 49.7694 1153.66 51.8354 Q1150.17 53.9013 1150.17 58.8839 Q1150.17 62.8538 1152.77 65.2034 Q1155.4 67.5124 1159.9 67.5124 Q1166.09 67.5124 1169.82 63.1374 Q1173.59 58.7219 1173.59 51.4303 L1173.59 49.7694 L1166.18 49.7694 M1181.04 46.6907 L1181.04 72.576 L1173.59 72.576 L1173.59 65.6895 Q1171.04 69.8214 1167.23 71.8063 Q1163.42 73.7508 1157.91 73.7508 Q1150.94 73.7508 1146.81 69.8619 Q1142.72 65.9325 1142.72 59.3701 Q1142.72 51.7138 1147.83 47.825 Q1152.97 43.9361 1163.14 43.9361 L1173.59 43.9361 L1173.59 43.2069 Q1173.59 38.0623 1170.19 35.2672 Q1166.82 32.4315 1160.71 32.4315 Q1156.82 32.4315 1153.13 33.3632 Q1149.45 34.295 1146.04 36.1584 L1146.04 29.2718 Q1150.13 27.692 1153.98 26.9223 Q1157.83 26.1121 1161.48 26.1121 Q1171.32 26.1121 1176.18 31.2163 Q1181.04 36.3204 1181.04 46.6907 Z" fill="#000000" fill-rule="nonzero" fill-opacity="1" /><path clip-path="url(#clip980)" d="M1222.69 34.1734 Q1221.43 33.4443 1219.93 33.1202 Q1218.47 32.7556 1216.69 32.7556 Q1210.37 32.7556 1206.97 36.8875 Q1203.61 40.9789 1203.61 48.6757 L1203.61 72.576 L1196.11 72.576 L1196.11 27.2059 L1203.61 27.2059 L1203.61 34.2544 Q1205.96 30.1225 1209.72 28.1376 Q1213.49 26.1121 1218.88 26.1121 Q1219.65 26.1121 1220.58 26.2337 Q1221.51 26.3147 1222.65 26.5172 L1222.69 34.1734 Z" fill="#000000" fill-rule="nonzero" fill-opacity="1" /><path clip-path="url(#clip980)" d="M1230.5 27.2059 L1237.96 27.2059 L1237.96 72.576 L1230.5 72.576 L1230.5 27.2059 M1230.5 9.54393 L1237.96 9.54393 L1237.96 18.9825 L1230.5 18.9825 L1230.5 9.54393 Z" fill="#000000" fill-rule="nonzero" fill-opacity="1" /><path clip-path="url(#clip980)" d="M1260.93 14.324 L1260.93 27.2059 L1276.28 27.2059 L1276.28 32.9987 L1260.93 32.9987 L1260.93 57.6282 Q1260.93 63.1779 1262.43 64.7578 Q1263.96 66.3376 1268.62 66.3376 L1276.28 66.3376 L1276.28 72.576 L1268.62 72.576 Q1259.99 72.576 1256.71 69.3758 Q1253.43 66.1351 1253.43 57.6282 L1253.43 32.9987 L1247.96 32.9987 L1247.96 27.2059 L1253.43 27.2059 L1253.43 14.324 L1260.93 14.324 Z" fill="#000000" fill-rule="nonzero" fill-opacity="1" /><path clip-path="url(#clip980)" d="M1286.08 27.2059 L1293.54 27.2059 L1293.54 72.576 L1286.08 72.576 L1286.08 27.2059 M1286.08 9.54393 L1293.54 9.54393 L1293.54 18.9825 L1286.08 18.9825 L1286.08 9.54393 Z" fill="#000000" fill-rule="nonzero" fill-opacity="1" /><path clip-path="url(#clip980)" d="M1347.94 48.0275 L1347.94 51.6733 L1313.67 51.6733 Q1314.16 59.3701 1318.29 63.421 Q1322.46 67.4314 1329.87 67.4314 Q1334.17 67.4314 1338.18 66.3781 Q1342.23 65.3249 1346.2 63.2184 L1346.2 70.267 Q1342.19 71.9684 1337.97 72.8596 Q1333.76 73.7508 1329.43 73.7508 Q1318.57 73.7508 1312.21 67.4314 Q1305.89 61.1119 1305.89 50.3365 Q1305.89 39.1965 1311.89 32.6746 Q1317.92 26.1121 1328.13 26.1121 Q1337.29 26.1121 1342.59 32.0264 Q1347.94 37.9003 1347.94 48.0275 M1340.49 45.84 Q1340.41 39.7232 1337.04 36.0774 Q1333.72 32.4315 1328.21 32.4315 Q1321.97 32.4315 1318.21 35.9558 Q1314.48 39.4801 1313.91 45.8805 L1340.49 45.84 Z" fill="#000000" fill-rule="nonzero" fill-opacity="1" /><path clip-path="url(#clip980)" d="M1389.1 28.5427 L1389.1 35.5912 Q1385.94 33.9709 1382.53 33.1607 Q1379.13 32.3505 1375.49 32.3505 Q1369.94 32.3505 1367.14 34.0519 Q1364.39 35.7533 1364.39 39.156 Q1364.39 41.7486 1366.37 43.2475 Q1368.36 44.7058 1374.35 46.0426 L1376.9 46.6097 Q1384.84 48.3111 1388.17 51.4303 Q1391.53 54.509 1391.53 60.0587 Q1391.53 66.3781 1386.5 70.0644 Q1381.52 73.7508 1372.77 73.7508 Q1369.13 73.7508 1365.16 73.0216 Q1361.23 72.3329 1356.85 70.9151 L1356.85 63.2184 Q1360.98 65.3654 1364.99 66.4591 Q1369 67.5124 1372.93 67.5124 Q1378.2 67.5124 1381.04 65.73 Q1383.87 63.9071 1383.87 60.6258 Q1383.87 57.5877 1381.81 55.9673 Q1379.78 54.3469 1372.85 52.8481 L1370.26 52.2405 Q1363.33 50.7821 1360.25 47.7845 Q1357.18 44.7463 1357.18 39.4801 Q1357.18 33.0797 1361.71 29.5959 Q1366.25 26.1121 1374.59 26.1121 Q1378.73 26.1121 1382.37 26.7198 Q1386.02 27.3274 1389.1 28.5427 Z" fill="#000000" fill-rule="nonzero" fill-opacity="1" /><path clip-path="url(#clip980)" d="M1462.42 28.9478 L1462.42 35.9153 Q1459.26 34.1734 1456.06 33.3227 Q1452.9 32.4315 1449.66 32.4315 Q1442.41 32.4315 1438.4 37.0496 Q1434.39 41.6271 1434.39 49.9314 Q1434.39 58.2358 1438.4 62.8538 Q1442.41 67.4314 1449.66 67.4314 Q1452.9 67.4314 1456.06 66.5807 Q1459.26 65.6895 1462.42 63.9476 L1462.42 70.8341 Q1459.3 72.2924 1455.94 73.0216 Q1452.62 73.7508 1448.85 73.7508 Q1438.6 73.7508 1432.56 67.3098 Q1426.53 60.8689 1426.53 49.9314 Q1426.53 38.832 1432.6 32.472 Q1438.72 26.1121 1449.33 26.1121 Q1452.78 26.1121 1456.06 26.8413 Q1459.34 27.5299 1462.42 28.9478 Z" fill="#000000" fill-rule="nonzero" fill-opacity="1" /><path clip-path="url(#clip980)" d="M1514.19 48.0275 L1514.19 51.6733 L1479.92 51.6733 Q1480.4 59.3701 1484.54 63.421 Q1488.71 67.4314 1496.12 67.4314 Q1500.42 67.4314 1504.43 66.3781 Q1508.48 65.3249 1512.45 63.2184 L1512.45 70.267 Q1508.44 71.9684 1504.22 72.8596 Q1500.01 73.7508 1495.68 73.7508 Q1484.82 73.7508 1478.46 67.4314 Q1472.14 61.1119 1472.14 50.3365 Q1472.14 39.1965 1478.14 32.6746 Q1484.17 26.1121 1494.38 26.1121 Q1503.54 26.1121 1508.84 32.0264 Q1514.19 37.9003 1514.19 48.0275 M1506.74 45.84 Q1506.65 39.7232 1503.29 36.0774 Q1499.97 32.4315 1494.46 32.4315 Q1488.22 32.4315 1484.46 35.9558 Q1480.73 39.4801 1480.16 45.8805 L1506.74 45.84 Z" fill="#000000" fill-rule="nonzero" fill-opacity="1" /><path clip-path="url(#clip980)" d="M1526.42 9.54393 L1533.88 9.54393 L1533.88 72.576 L1526.42 72.576 L1526.42 9.54393 Z" fill="#000000" fill-rule="nonzero" fill-opacity="1" /><path clip-path="url(#clip980)" d="M1549.47 9.54393 L1556.93 9.54393 L1556.93 72.576 L1549.47 72.576 L1549.47 9.54393 Z" fill="#000000" fill-rule="nonzero" fill-opacity="1" /><path clip-path="url(#clip980)" d="M1624.74 39.9662 Q1630.61 41.222 1633.89 45.1919 Q1637.21 49.1618 1637.21 54.9951 Q1637.21 63.9476 1631.06 68.8492 Q1624.9 73.7508 1613.56 73.7508 Q1609.75 73.7508 1605.7 72.9811 Q1601.69 72.2519 1597.39 70.7531 L1597.39 62.8538 Q1600.8 64.8388 1604.85 65.8515 Q1608.9 66.8642 1613.31 66.8642 Q1621.01 66.8642 1625.02 63.826 Q1629.07 60.7879 1629.07 54.9951 Q1629.07 49.6479 1625.31 46.6502 Q1621.58 43.612 1614.89 43.612 L1607.85 43.612 L1607.85 36.8875 L1615.22 36.8875 Q1621.25 36.8875 1624.45 34.4975 Q1627.65 32.067 1627.65 27.5299 Q1627.65 22.8714 1624.33 20.4004 Q1621.05 17.8888 1614.89 17.8888 Q1611.53 17.8888 1607.68 18.618 Q1603.84 19.3471 1599.22 20.8865 L1599.22 13.5948 Q1603.88 12.2985 1607.93 11.6504 Q1612.02 11.0023 1615.62 11.0023 Q1624.94 11.0023 1630.37 15.2557 Q1635.8 19.4686 1635.8 26.6793 Q1635.8 31.7024 1632.92 35.1862 Q1630.04 38.6294 1624.74 39.9662 Z" fill="#000000" fill-rule="nonzero" fill-opacity="1" /><path clip-path="url(#clip980)" d="M1652.81 12.096 L1684.93 12.096 L1684.93 18.9825 L1660.31 18.9825 L1660.31 33.8088 Q1662.09 33.2012 1663.87 32.9176 Q1665.65 32.5936 1667.43 32.5936 Q1677.56 32.5936 1683.48 38.1433 Q1689.39 43.6931 1689.39 53.1722 Q1689.39 62.9348 1683.31 68.3631 Q1677.24 73.7508 1666.18 73.7508 Q1662.37 73.7508 1658.4 73.1026 Q1654.47 72.4545 1650.26 71.1582 L1650.26 62.9348 Q1653.9 64.9198 1657.79 65.892 Q1661.68 66.8642 1666.02 66.8642 Q1673.02 66.8642 1677.12 63.1779 Q1681.21 59.4916 1681.21 53.1722 Q1681.21 46.8528 1677.12 43.1664 Q1673.02 39.4801 1666.02 39.4801 Q1662.74 39.4801 1659.45 40.2093 Q1656.21 40.9384 1652.81 42.4778 L1652.81 12.096 Z" fill="#000000" fill-rule="nonzero" fill-opacity="1" /><path clip-path="url(#clip980)" d="M1706.93 65.6895 L1720.3 65.6895 L1720.3 19.5497 L1705.76 22.4663 L1705.76 15.0127 L1720.22 12.096 L1728.4 12.096 L1728.4 65.6895 L1741.77 65.6895 L1741.77 72.576 L1706.93 72.576 L1706.93 65.6895 Z" fill="#000000" fill-rule="nonzero" fill-opacity="1" /><path clip-path="url(#clip980)" d="M1783.61 27.2059 L1791.07 27.2059 L1791.07 72.576 L1783.61 72.576 L1783.61 27.2059 M1783.61 9.54393 L1791.07 9.54393 L1791.07 18.9825 L1783.61 18.9825 L1783.61 9.54393 Z" fill="#000000" fill-rule="nonzero" fill-opacity="1" /><path clip-path="url(#clip980)" d="M1814.04 14.324 L1814.04 27.2059 L1829.39 27.2059 L1829.39 32.9987 L1814.04 32.9987 L1814.04 57.6282 Q1814.04 63.1779 1815.54 64.7578 Q1817.08 66.3376 1821.73 66.3376 L1829.39 66.3376 L1829.39 72.576 L1821.73 72.576 Q1813.11 72.576 1809.82 69.3758 Q1806.54 66.1351 1806.54 57.6282 L1806.54 32.9987 L1801.07 32.9987 L1801.07 27.2059 L1806.54 27.2059 L1806.54 14.324 L1814.04 14.324 Z" fill="#000000" fill-rule="nonzero" fill-opacity="1" /><path clip-path="url(#clip980)" d="M1878 48.0275 L1878 51.6733 L1843.73 51.6733 Q1844.22 59.3701 1848.35 63.421 Q1852.52 67.4314 1859.93 67.4314 Q1864.23 67.4314 1868.24 66.3781 Q1872.29 65.3249 1876.26 63.2184 L1876.26 70.267 Q1872.25 71.9684 1868.04 72.8596 Q1863.82 73.7508 1859.49 73.7508 Q1848.63 73.7508 1842.27 67.4314 Q1835.95 61.1119 1835.95 50.3365 Q1835.95 39.1965 1841.95 32.6746 Q1847.98 26.1121 1858.19 26.1121 Q1867.35 26.1121 1872.65 32.0264 Q1878 37.9003 1878 48.0275 M1870.55 45.84 Q1870.47 39.7232 1867.1 36.0774 Q1863.78 32.4315 1858.27 32.4315 Q1852.03 32.4315 1848.27 35.9558 Q1844.54 39.4801 1843.97 45.8805 L1870.55 45.84 Z" fill="#000000" fill-rule="nonzero" fill-opacity="1" /><path clip-path="url(#clip980)" d="M1916.52 34.1734 Q1915.27 33.4443 1913.77 33.1202 Q1912.31 32.7556 1910.53 32.7556 Q1904.21 32.7556 1900.81 36.8875 Q1897.44 40.9789 1897.44 48.6757 L1897.44 72.576 L1889.95 72.576 L1889.95 27.2059 L1897.44 27.2059 L1897.44 34.2544 Q1899.79 30.1225 1903.56 28.1376 Q1907.33 26.1121 1912.72 26.1121 Q1913.49 26.1121 1914.42 26.2337 Q1915.35 26.3147 1916.48 26.5172 L1916.52 34.1734 Z" fill="#000000" fill-rule="nonzero" fill-opacity="1" /><path clip-path="url(#clip980)" d="M1944.96 49.7694 Q1935.93 49.7694 1932.44 51.8354 Q1928.96 53.9013 1928.96 58.8839 Q1928.96 62.8538 1931.55 65.2034 Q1934.19 67.5124 1938.68 67.5124 Q1944.88 67.5124 1948.61 63.1374 Q1952.38 58.7219 1952.38 51.4303 L1952.38 49.7694 L1944.96 49.7694 M1959.83 46.6907 L1959.83 72.576 L1952.38 72.576 L1952.38 65.6895 Q1949.82 69.8214 1946.02 71.8063 Q1942.21 73.7508 1936.7 73.7508 Q1929.73 73.7508 1925.6 69.8619 Q1921.51 65.9325 1921.51 59.3701 Q1921.51 51.7138 1926.61 47.825 Q1931.76 43.9361 1941.92 43.9361 L1952.38 43.9361 L1952.38 43.2069 Q1952.38 38.0623 1948.97 35.2672 Q1945.61 32.4315 1939.49 32.4315 Q1935.6 32.4315 1931.92 33.3632 Q1928.23 34.295 1924.83 36.1584 L1924.83 29.2718 Q1928.92 27.692 1932.77 26.9223 Q1936.62 26.1121 1940.26 26.1121 Q1950.11 26.1121 1954.97 31.2163 Q1959.83 36.3204 1959.83 46.6907 Z" fill="#000000" fill-rule="nonzero" fill-opacity="1" /><path clip-path="url(#clip980)" d="M1982.55 14.324 L1982.55 27.2059 L1997.91 27.2059 L1997.91 32.9987 L1982.55 32.9987 L1982.55 57.6282 Q1982.55 63.1779 1984.05 64.7578 Q1985.59 66.3376 1990.25 66.3376 L1997.91 66.3376 L1997.91 72.576 L1990.25 72.576 Q1981.62 72.576 1978.34 69.3758 Q1975.06 66.1351 1975.06 57.6282 L1975.06 32.9987 L1969.59 32.9987 L1969.59 27.2059 L1975.06 27.2059 L1975.06 14.324 L1982.55 14.324 Z" fill="#000000" fill-rule="nonzero" fill-opacity="1" /><path clip-path="url(#clip980)" d="M2007.71 27.2059 L2015.16 27.2059 L2015.16 72.576 L2007.71 72.576 L2007.71 27.2059 M2007.71 9.54393 L2015.16 9.54393 L2015.16 18.9825 L2007.71 18.9825 L2007.71 9.54393 Z" fill="#000000" fill-rule="nonzero" fill-opacity="1" /><path clip-path="url(#clip980)" d="M2048.34 32.4315 Q2042.35 32.4315 2038.86 37.1306 Q2035.38 41.7891 2035.38 49.9314 Q2035.38 58.0738 2038.82 62.7728 Q2042.31 67.4314 2048.34 67.4314 Q2054.3 67.4314 2057.78 62.7323 Q2061.26 58.0333 2061.26 49.9314 Q2061.26 41.8701 2057.78 37.1711 Q2054.3 32.4315 2048.34 32.4315 M2048.34 26.1121 Q2058.06 26.1121 2063.61 32.4315 Q2069.16 38.7509 2069.16 49.9314 Q2069.16 61.0714 2063.61 67.4314 Q2058.06 73.7508 2048.34 73.7508 Q2038.58 73.7508 2033.03 67.4314 Q2027.52 61.0714 2027.52 49.9314 Q2027.52 38.7509 2033.03 32.4315 Q2038.58 26.1121 2048.34 26.1121 Z" fill="#000000" fill-rule="nonzero" fill-opacity="1" /><path clip-path="url(#clip980)" d="M2119.23 45.1919 L2119.23 72.576 L2111.78 72.576 L2111.78 45.4349 Q2111.78 38.994 2109.27 35.7938 Q2106.76 32.5936 2101.73 32.5936 Q2095.7 32.5936 2092.21 36.4419 Q2088.73 40.2903 2088.73 46.9338 L2088.73 72.576 L2081.23 72.576 L2081.23 27.2059 L2088.73 27.2059 L2088.73 34.2544 Q2091.4 30.163 2095.01 28.1376 Q2098.65 26.1121 2103.39 26.1121 Q2111.21 26.1121 2115.22 30.9732 Q2119.23 35.7938 2119.23 45.1919 Z" fill="#000000" fill-rule="nonzero" fill-opacity="1" /><path clip-path="url(#clip980)" d="M2162.94 65.6895 L2176.31 65.6895 L2176.31 19.5497 L2161.77 22.4663 L2161.77 15.0127 L2176.23 12.096 L2184.41 12.096 L2184.41 65.6895 L2197.78 65.6895 L2197.78 72.576 L2162.94 72.576 L2162.94 65.6895 Z" fill="#000000" fill-rule="nonzero" fill-opacity="1" /><path clip-path="url(#clip980)" d="M2231.81 17.4837 Q2225.49 17.4837 2222.29 23.7221 Q2219.13 29.92 2219.13 42.3968 Q2219.13 54.833 2222.29 61.0714 Q2225.49 67.2693 2231.81 67.2693 Q2238.17 67.2693 2241.33 61.0714 Q2244.53 54.833 2244.53 42.3968 Q2244.53 29.92 2241.33 23.7221 Q2238.17 17.4837 2231.81 17.4837 M2231.81 11.0023 Q2241.97 11.0023 2247.32 19.0636 Q2252.71 27.0843 2252.71 42.3968 Q2252.71 57.6687 2247.32 65.73 Q2241.97 73.7508 2231.81 73.7508 Q2221.64 73.7508 2216.25 65.73 Q2210.9 57.6687 2210.9 42.3968 Q2210.9 27.0843 2216.25 19.0636 Q2221.64 11.0023 2231.81 11.0023 Z" fill="#000000" fill-rule="nonzero" fill-opacity="1" /><polyline clip-path="url(#clip982)" style="stroke:#009af9; stroke-linecap:round; stroke-linejoin:round; stroke-width:4; stroke-opacity:1; fill:none" points="316.512,1386.4 318.491,1355.44 320.47,1349.68 322.449,1323.46 324.428,1314.41 326.407,1303.44 328.386,1289.87 330.365,1289.35 332.343,1283 334.322,1282.81 336.301,1281.23 338.28,1279.6 340.259,1276.09 342.238,1272.41 344.217,1272.29 346.196,1269.56 348.175,1269.31 350.154,1267.83 352.133,1266.77 354.111,1262.61 356.09,1262.02 358.069,1260.79 360.048,1257.78 362.027,1254.79 364.006,1252.54 365.985,1251.64 367.964,1249.24 369.943,1241.1 371.922,1240.23 373.901,1239.34 375.88,1238.74 377.858,1237.28 379.837,1237.28 381.816,1236.53 383.795,1235.45 385.774,1235.36 387.753,1233.11 389.732,1232.45 391.711,1232.09 393.69,1230.72 395.669,1229.61 397.648,1229.23 399.627,1228.4 401.605,1227.6 403.584,1227.43 405.563,1226.4 407.542,1225.54 409.521,1223.61 411.5,1223.37 413.479,1222.81 415.458,1221.41 417.437,1221.19 419.416,1220.72 421.395,1220.01 423.373,1218.69 425.352,1218.1 427.331,1217.24 429.31,1215.79 431.289,1215.21 433.268,1214.45 435.247,1214.03 437.226,1213.1 439.205,1211.51 441.184,1210.16 443.163,1208.49 445.142,1207.88 447.12,1207.73 449.099,1207.36 451.078,1207.22 453.057,1206.77 455.036,1206.11 457.015,1205.37 458.994,1204.33 460.973,1204.26 462.952,1204.13 464.931,1202.33 466.91,1201.86 468.889,1201.49 470.867,1201.21 472.846,1201.21 474.825,1201.12 476.804,1200.63 478.783,1199.66 480.762,1199.06 482.741,1197.22 484.72,1196.37 486.699,1196.36 488.678,1195.28 490.657,1194.8 492.636,1194.62 494.614,1194.33 496.593,1194.19 498.572,1193.97 500.551,1193.26 502.53,1192.93 504.509,1192.18 506.488,1191.55 508.467,1191 510.446,1190.68 512.425,1189.33 514.404,1189.21 516.382,1189.01 518.361,1188.92 520.34,1188.63 522.319,1188.43 524.298,1188.21 526.277,1187.22 528.256,1186.57 530.235,1186.12 532.214,1184.37 534.193,1183.97 536.172,1183.94 538.151,1183.84 540.129,1183.61 542.108,1183.37 544.087,1183.07 546.066,1182.91 548.045,1182.73 550.024,1182.39 552.003,1182.1 553.982,1182.03 555.961,1181.78 557.94,1181.65 559.919,1181.29 561.898,1181.12 563.876,1180.77 565.855,1180.68 567.834,1180.67 569.813,1178.35 571.792,1178.19 573.771,1177.83 575.75,1177.67 577.729,1177.19 579.708,1177.16 581.687,1176.61 583.666,1175.78 585.644,1175.68 587.623,1175.38 589.602,1174.65 591.581,1173.61 593.56,1173.47 595.539,1173.37 597.518,1173.26 599.497,1173.09 601.476,1172.9 603.455,1171.98 605.434,1171.24 607.413,1171 609.391,1170.86 611.37,1169 613.349,1168.92 615.328,1168.88 617.307,1168.18 619.286,1166.27 621.265,1166.02 623.244,1165.96 625.223,1165.96 627.202,1165.45 629.181,1164.9 631.16,1164.9 633.138,1164.78 635.117,1164.62 637.096,1164.31 639.075,1163.3 641.054,1162.81 643.033,1162.57 645.012,1162.44 646.991,1162.02 648.97,1161.67 650.949,1161.46 652.928,1160.37 654.907,1160.23 656.885,1159.47 658.864,1159.29 660.843,1158.8 662.822,1158.67 664.801,1158.53 666.78,1157.29 668.759,1156.42 670.738,1155.82 672.717,1154.93 674.696,1154.88 676.675,1154.38 678.653,1153.67 680.632,1153.65 682.611,1153.09 684.59,1152.18 686.569,1151.64 688.548,1151.36 690.527,1149.93 692.506,1149.82 694.485,1149.68 696.464,1147.32 698.443,1147.25 700.422,1146.74 702.4,1145.85 704.379,1145.63 706.358,1144.53 708.337,1143.56 710.316,1142.76 712.295,1141.93 714.274,1141.46 716.253,1140.89 718.232,1140.59 720.211,1139.35 722.19,1138.03 724.169,1137.78 726.147,1137.45 728.126,1137.44 730.105,1136.89 732.084,1136.08 734.063,1134.86 736.042,1134.45 738.021,1134.23 740,1131.98 741.979,1131.24 743.958,1129.33 745.937,1129.14 747.915,1129.12 749.894,1122.02 751.873,1121.97 753.852,1121.21 755.831,1121 757.81,1120.22 759.789,1117.41 761.768,1115.71 763.747,1115.37 765.726,1114.87 767.705,1114.01 769.684,1111.89 771.662,1111.09 773.641,1109.47 775.62,1108.74 777.599,1107.94 779.578,1106.46 781.557,1104.7 783.536,1104.03 785.515,1103.09 787.494,1102.34 789.473,1101.14 791.452,1100.05 793.431,1099.29 795.409,1098.66 797.388,1098.46 799.367,1098.21 801.346,1096.94 803.325,1096.29 805.304,1094.05 807.283,1092.76 809.262,1089.3 811.241,1084.07 813.22,1083.6 815.199,1083.18 817.178,1082.16 819.156,1081.88 821.135,1076.04 823.114,1073.55 825.093,1073.3 827.072,1071.37 829.051,1066.64 831.03,1065.52 833.009,1065.06 834.988,1064.73 836.967,1064.57 838.946,1063.99 840.924,1063.77 842.903,1062.43 844.882,1062.33 846.861,1060.25 848.84,1057.08 850.819,1053.21 852.798,1051.21 854.777,1049.53 856.756,1044.99 858.735,1044.73 860.714,1044.38 862.693,1041.95 864.671,1041.93 866.65,1037.36 868.629,1037.05 870.608,1035.49 872.587,1035.1 874.566,1034.52 876.545,1034.18 878.524,1033.05 880.503,1032.17 882.482,1029.18 884.461,1027.25 886.44,1026.91 888.418,1026.65 890.397,1025.74 892.376,1025.05 894.355,1024.39 896.334,1022.89 898.313,1021.5 900.292,1020.54 902.271,1020.46 904.25,1020.09 906.229,1018.87 908.208,1017.05 910.186,1016.96 912.165,1016.56 914.144,1015.34 916.123,1014.15 918.102,1011.34 920.081,1011.2 922.06,1009.26 924.039,1009.1 926.018,1003.09 927.997,1002.95 929.976,1002.85 931.955,1002.04 933.933,999.792 935.912,998.416 937.891,998.149 939.87,997.365 941.849,996.817 943.828,995.89 945.807,995.878 947.786,994.318 949.765,993.441 951.744,993.233 953.723,992.867 955.702,992.643 957.68,992.615 959.659,990.871 961.638,990.396 963.617,989.959 965.596,987.909 967.575,987.69 969.554,987.443 971.533,986.809 973.512,986.364 975.491,985.713 977.47,985.253 979.449,984.847 981.427,982.813 983.406,980.643 985.385,980.159 987.364,976.616 989.343,975.859 991.322,975.183 993.301,975.08 995.28,974.875 997.259,974.846 999.238,973.09 1001.22,972.736 1003.2,972.113 1005.17,969.076 1007.15,968.63 1009.13,968.568 1011.11,966.891 1013.09,966.316 1015.07,963.821 1017.05,963.79 1019.03,963.003 1021.01,962.629 1022.98,961.094 1024.96,961.012 1026.94,959.657 1028.92,957.028 1030.9,957.012 1032.88,956.951 1034.86,955.059 1036.84,953.418 1038.82,952.939 1040.79,951.727 1042.77,950.566 1044.75,950.018 1046.73,949.79 1048.71,949.1 1050.69,948.13 1052.67,947.652 1054.65,946.448 1056.63,945.97 1058.61,945.552 1060.58,943.79 1062.56,941.539 1064.54,940.472 1066.52,939.613 1068.5,938.208 1070.48,938.12 1072.46,937.982 1074.44,936.646 1076.42,936.401 1078.39,934.805 1080.37,932.746 1082.35,931.655 1084.33,927.878 1086.31,925.268 1088.29,925.19 1090.27,924.831 1092.25,924.67 1094.23,922.987 1096.2,922.714 1098.18,921.344 1100.16,920.33 1102.14,918.357 1104.12,918.172 1106.1,918.123 1108.08,917.914 1110.06,917.67 1112.04,917.007 1114.01,916.646 1115.99,916.507 1117.97,916.231 1119.95,916.199 1121.93,915.455 1123.91,915.443 1125.89,914.46 1127.87,911.886 1129.85,910.949 1131.82,910.385 1133.8,909.295 1135.78,908.862 1137.76,907.623 1139.74,905.453 1141.72,902.473 1143.7,902.37 1145.68,901.893 1147.66,899.495 1149.64,899.485 1151.61,899.418 1153.59,899.133 1155.57,894.324 1157.55,893.313 1159.53,890.262 1161.51,888.367 1163.49,888.141 1165.47,887.974 1167.45,887.716 1169.42,887.1 1171.4,886.991 1173.38,886.692 1175.36,884.181 1177.34,882.768 1179.32,880.838 1181.3,880.501 1183.28,880.063 1185.26,877.696 1187.23,876.684 1189.21,875.31 1191.19,874.703 1193.17,873.316 1195.15,871.989 1197.13,871.899 1199.11,871.787 1201.09,871.311 1203.07,868.983 1205.04,866.734 1207.02,866.566 1209,866.377 1210.98,865.108 1212.96,864.448 1214.94,864.04 1216.92,863.879 1218.9,861.249 1220.88,857.001 1222.86,856.264 1224.83,856.215 1226.81,854.228 1228.79,852.398 1230.77,851.902 1232.75,849.177 1234.73,849.03 1236.71,848.576 1238.69,845.321 1240.67,839.105 1242.64,837.489 1244.62,836.648 1246.6,835.947 1248.58,835.913 1250.56,831.124 1252.54,829.456 1254.52,828.249 1256.5,827.143 1258.48,824.926 1260.45,824.512 1262.43,823.888 1264.41,822.942 1266.39,822.853 1268.37,822.377 1270.35,821.748 1272.33,821.651 1274.31,821.339 1276.29,820.834 1278.26,820.053 1280.24,817.26 1282.22,816.368 1284.2,816.257 1286.18,814.024 1288.16,813.555 1290.14,811.894 1292.12,809.329 1294.1,808.483 1296.07,802.521 1298.05,801.591 1300.03,795.899 1302.01,795.819 1303.99,794.307 1305.97,793.485 1307.95,790.546 1309.93,789.882 1311.91,788.863 1313.89,788.503 1315.86,787.826 1317.84,787.593 1319.82,786.469 1321.8,785.995 1323.78,784.561 1325.76,783.502 1327.74,782.966 1329.72,781.839 1331.7,781.021 1333.67,780.226 1335.65,780.148 1337.63,779.38 1339.61,778.339 1341.59,778.139 1343.57,778.07 1345.55,775.741 1347.53,775.094 1349.51,774.779 1351.48,772.922 1353.46,771.616 1355.44,771.248 1357.42,770.545 1359.4,768.053 1361.38,765.771 1363.36,765.653 1365.34,765.397 1367.32,765.031 1369.29,764.797 1371.27,764.471 1373.25,763.731 1375.23,762.795 1377.21,759.292 1379.19,757.109 1381.17,755.156 1383.15,754.976 1385.13,754.375 1387.1,753.407 1389.08,749.841 1391.06,748.511 1393.04,748.306 1395.02,745.528 1397,741.681 1398.98,740.266 1400.96,737.817 1402.94,737.731 1404.92,736.9 1406.89,736.609 1408.87,734.87 1410.85,734.381 1412.83,733.319 1414.81,730.96 1416.79,730.61 1418.77,727.076 1420.75,726.126 1422.73,724.228 1424.7,720.201 1426.68,719.059 1428.66,716.491 1430.64,716.088 1432.62,710.661 1434.6,710.03 1436.58,709.491 1438.56,708.919 1440.54,708.774 1442.51,707.627 1444.49,707.619 1446.47,706.876 1448.45,706.216 1450.43,706.166 1452.41,706.056 1454.39,703.362 1456.37,702.529 1458.35,702.244 1460.32,701.173 1462.3,697.943 1464.28,696.855 1466.26,696.448 1468.24,694.862 1470.22,692.907 1472.2,690.363 1474.18,688.341 1476.16,687.841 1478.13,684.281 1480.11,684.012 1482.09,681.807 1484.07,680.93 1486.05,680.682 1488.03,679.288 1490.01,679.145 1491.99,678.765 1493.97,678.387 1495.95,677.862 1497.92,673.426 1499.9,673 1501.88,670.503 1503.86,670.451 1505.84,670.267 1507.82,669.686 1509.8,669.532 1511.78,668.733 1513.76,668.026 1515.73,665.64 1517.71,663.256 1519.69,660.973 1521.67,660.964 1523.65,658.089 1525.63,657.408 1527.61,657.099 1529.59,655.164 1531.57,653.911 1533.54,651.566 1535.52,651.455 1537.5,651.16 1539.48,650.938 1541.46,650.911 1543.44,647.064 1545.42,644.975 1547.4,644.967 1549.38,644.738 1551.35,643.653 1553.33,643.377 1555.31,641.878 1557.29,640.471 1559.27,639.437 1561.25,638.713 1563.23,638.302 1565.21,631.441 1567.19,627.767 1569.17,626.769 1571.14,626.315 1573.12,625 1575.1,624.584 1577.08,624.566 1579.06,624.075 1581.04,623.441 1583.02,622.799 1585,622.206 1586.98,621.227 1588.95,620.14 1590.93,617.805 1592.91,616.863 1594.89,616.224 1596.87,615.449 1598.85,614.654 1600.83,612.39 1602.81,609.538 1604.79,606.925 1606.76,605.852 1608.74,605.702 1610.72,605.463 1612.7,605.225 1614.68,604.615 1616.66,604.342 1618.64,603.691 1620.62,603.506 1622.6,603.303 1624.57,603.05 1626.55,602.966 1628.53,598.412 1630.51,597.536 1632.49,597.426 1634.47,597.045 1636.45,596.187 1638.43,596.147 1640.41,595.011 1642.38,592.894 1644.36,592.501 1646.34,590.926 1648.32,590.533 1650.3,590.124 1652.28,589.363 1654.26,587.871 1656.24,587.424 1658.22,587.2 1660.2,584.7 1662.17,581.922 1664.15,580.433 1666.13,580.414 1668.11,578.105 1670.09,577.612 1672.07,574.22 1674.05,573.718 1676.03,572.896 1678.01,571.761 1679.98,567.824 1681.96,564.6 1683.94,562.92 1685.92,561.936 1687.9,561.156 1689.88,559.74 1691.86,558.785 1693.84,556.131 1695.82,555.428 1697.79,554.85 1699.77,553.459 1701.75,552.477 1703.73,551.225 1705.71,547.714 1707.69,547.467 1709.67,547.266 1711.65,546.461 1713.63,544.992 1715.6,544.941 1717.58,544.233 1719.56,542.939 1721.54,542.837 1723.52,541.917 1725.5,540.533 1727.48,538.423 1729.46,537.682 1731.44,537.415 1733.41,536.816 1735.39,535.74 1737.37,535.177 1739.35,534.882 1741.33,532.605 1743.31,531.898 1745.29,528.992 1747.27,526.637 1749.25,525.006 1751.23,524.266 1753.2,520.013 1755.18,516.947 1757.16,515.058 1759.14,510.246 1761.12,508.04 1763.1,507.886 1765.08,506.546 1767.06,496.225 1769.04,495.764 1771.01,493.913 1772.99,493.472 1774.97,491.311 1776.95,490.671 1778.93,487.537 1780.91,487.533 1782.89,485.957 1784.87,482.366 1786.85,478.539 1788.82,461.128 1790.8,456.24 1792.78,454.951 1794.76,430.797 1796.74,414.933 1798.72,395.835 1800.7,364.379 1802.68,359.206 1804.66,358.814 1806.63,358.801 1808.61,343.632 1810.59,339.743 1812.57,338.623 1814.55,334.019 1816.53,328.442 1818.51,324.17 1820.49,324.001 1822.47,323.182 1824.45,322.792 1826.42,305.081 1828.4,300.279 1830.38,296.911 1832.36,291.036 1834.34,286.734 1836.32,285.758 1838.3,281.34 1840.28,280.947 1842.26,280.324 1844.23,279.098 1846.21,278.549 1848.19,277.504 1850.17,275.756 1852.15,273.977 1854.13,273.823 1856.11,270.81 1858.09,270.043 1860.07,267.187 1862.04,267.121 1864.02,266.516 1866,265.86 1867.98,265.644 1869.96,265.287 1871.94,263.301 1873.92,261.292 1875.9,259.862 1877.88,255.902 1879.85,254.462 1881.83,253.514 1883.81,252.941 1885.79,250.795 1887.77,250.005 1889.75,249.912 1891.73,248.437 1893.71,247.647 1895.69,245.084 1897.66,241.454 1899.64,240.925 1901.62,240.374 1903.6,236.85 1905.58,236.056 1907.56,235.953 1909.54,233.197 1911.52,231.905 1913.5,231.83 1915.48,229.953 1917.45,229.172 1919.43,228.347 1921.41,227.575 1923.39,225.777 1925.37,221.42 1927.35,221.372 1929.33,220.821 1931.31,219.132 1933.29,218.963 1935.26,218.751 1937.24,218.509 1939.22,218.158 1941.2,216.314 1943.18,215.846 1945.16,215.139 1947.14,214.728 1949.12,214.092 1951.1,214.05 1953.07,213.622 1955.05,211.616 1957.03,210.118 1959.01,210.014 1960.99,209.447 1962.97,208.819 1964.95,208.626 1966.93,207.928 1968.91,206.969 1970.88,206.541 1972.86,206.053 1974.84,205.604 1976.82,205.387 1978.8,205.355 1980.78,205.242 1982.76,204.403 1984.74,203.97 1986.72,203.411 1988.69,202.747 1990.67,202.529 1992.65,201.73 1994.63,201.692 1996.61,201.474 1998.59,201.395 2000.57,200.937 2002.55,200.807 2004.53,200.285 2006.51,199.772 2008.48,199.407 2010.46,198.876 2012.44,197.151 2014.42,196.956 2016.4,196.532 2018.38,196.523 2020.36,196.419 2022.34,196.213 2024.32,195.379 2026.29,194.379 2028.27,193.855 2030.25,193.545 2032.23,193.412 2034.21,193.011 2036.19,192.826 2038.17,192.782 2040.15,192.702 2042.13,192.272 2044.1,191.638 2046.08,191.454 2048.06,191.388 2050.04,190.382 2052.02,190.111 2054,189.917 2055.98,187.836 2057.96,187.436 2059.94,187.423 2061.91,185.439 2063.89,185.393 2065.87,184.251 2067.85,183.637 2069.83,183.537 2071.81,183.406 2073.79,183.379 2075.77,182.757 2077.75,182.58 2079.73,182.474 2081.7,182.101 2083.68,181.994 2085.66,181.351 2087.64,181.112 2089.62,181.08 2091.6,180.609 2093.58,180.566 2095.56,180.495 2097.54,180.397 2099.51,180.283 2101.49,180.205 2103.47,180.156 2105.45,180.002 2107.43,179.901 2109.41,179.873 2111.39,178.724 2113.37,178.665 2115.35,178.586 2117.32,178.543 2119.3,178.384 2121.28,177.923 2123.26,177.787 2125.24,177.257 2127.22,176.927 2129.2,176.581 2131.18,176.22 2133.16,176.141 2135.13,176.084 2137.11,175.851 2139.09,175.537 2141.07,175.47 2143.05,175.295 2145.03,174.546 2147.01,174.502 2148.99,174.441 2150.97,173.766 2152.94,173.535 2154.92,172.903 2156.9,172.274 2158.88,172.227 2160.86,171.396 2162.84,171.056 2164.82,171.029 2166.8,170.917 2168.78,170.855 2170.76,170.695 2172.73,170.645 2174.71,170.463 2176.69,170.356 2178.67,170.342 2180.65,170.238 2182.63,170.106 2184.61,170.077 2186.59,169.658 2188.57,169.279 2190.54,169.244 2192.52,168.924 2194.5,168.909 2196.48,168.853 2198.46,168.641 2200.44,168.552 2202.42,168.545 2204.4,168.4 2206.38,168.319 2208.35,168.247 2210.33,168.003 2212.31,167.985 2214.29,167.822 2216.27,167.618 2218.25,167.584 2220.23,167.54 2222.21,167.537 2224.19,167.34 2226.16,167.231 2228.14,166.972 2230.12,166.779 2232.1,166.733 2234.08,166.666 2236.06,166.56 2238.04,166.505 2240.02,166.121 2242,166.012 2243.97,165.334 2245.95,165.286 2247.93,164.96 2249.91,164.924 2251.89,164.921 2253.87,164.881 2255.85,164.805 2257.83,164.786 2259.81,164.47 2261.79,164.059 2263.76,163.664 2265.74,163.204 2267.72,163.031 2269.7,163.016 2271.68,162.577 2273.66,162.539 2275.64,162.374 2277.62,162.266 2279.6,162.246 2281.57,162.168 2283.55,161.894 2285.53,161.753 2287.51,161.685 2289.49,161.394 2291.47,160.839 2293.45,160.256 "/>
<path clip-path="url(#clip980)" d="M327.056 270.476 L756.216 270.476 L756.216 166.796 L327.056 166.796  Z" fill="#ffffff" fill-rule="evenodd" fill-opacity="1"/>
<polyline clip-path="url(#clip980)" style="stroke:#000000; stroke-linecap:round; stroke-linejoin:round; stroke-width:4; stroke-opacity:1; fill:none" points="327.056,270.476 756.216,270.476 756.216,166.796 327.056,166.796 327.056,270.476 "/>
<polyline clip-path="url(#clip980)" style="stroke:#009af9; stroke-linecap:round; stroke-linejoin:round; stroke-width:4; stroke-opacity:1; fill:none" points="350.34,218.636 490.043,218.636 "/>
<path clip-path="url(#clip980)" d="M535.572 202.49 L535.572 207.05 Q532.91 205.777 530.549 205.152 Q528.188 204.527 525.989 204.527 Q522.17 204.527 520.086 206.008 Q518.026 207.49 518.026 210.221 Q518.026 212.513 519.392 213.694 Q520.781 214.851 524.623 215.569 L527.447 216.147 Q532.679 217.143 535.156 219.666 Q537.656 222.166 537.656 226.379 Q537.656 231.402 534.276 233.994 Q530.92 236.587 524.415 236.587 Q521.961 236.587 519.183 236.031 Q516.429 235.476 513.466 234.388 L513.466 229.573 Q516.313 231.17 519.045 231.981 Q521.776 232.791 524.415 232.791 Q528.42 232.791 530.595 231.217 Q532.771 229.643 532.771 226.726 Q532.771 224.18 531.197 222.744 Q529.646 221.309 526.082 220.592 L523.234 220.036 Q518.003 218.995 515.665 216.772 Q513.327 214.55 513.327 210.592 Q513.327 206.008 516.545 203.37 Q519.785 200.731 525.457 200.731 Q527.887 200.731 530.41 201.171 Q532.933 201.61 535.572 202.49 Z" fill="#000000" fill-rule="nonzero" fill-opacity="1" /><path clip-path="url(#clip980)" d="M544.762 209.99 L549.021 209.99 L549.021 235.916 L544.762 235.916 L544.762 209.99 M544.762 199.897 L549.021 199.897 L549.021 205.291 L544.762 205.291 L544.762 199.897 Z" fill="#000000" fill-rule="nonzero" fill-opacity="1" /><path clip-path="url(#clip980)" d="M578.118 214.967 Q579.716 212.096 581.938 210.731 Q584.16 209.365 587.169 209.365 Q591.22 209.365 593.419 212.212 Q595.618 215.036 595.618 220.268 L595.618 235.916 L591.336 235.916 L591.336 220.407 Q591.336 216.68 590.016 214.874 Q588.697 213.069 585.989 213.069 Q582.679 213.069 580.757 215.268 Q578.836 217.467 578.836 221.263 L578.836 235.916 L574.554 235.916 L574.554 220.407 Q574.554 216.657 573.234 214.874 Q571.915 213.069 569.16 213.069 Q565.896 213.069 563.975 215.291 Q562.054 217.49 562.054 221.263 L562.054 235.916 L557.771 235.916 L557.771 209.99 L562.054 209.99 L562.054 214.018 Q563.512 211.633 565.549 210.499 Q567.586 209.365 570.387 209.365 Q573.211 209.365 575.179 210.8 Q577.169 212.235 578.118 214.967 Z" fill="#000000" fill-rule="nonzero" fill-opacity="1" /><path clip-path="url(#clip980)" d="M604.114 209.99 L608.373 209.99 L608.373 235.916 L604.114 235.916 L604.114 209.99 M604.114 199.897 L608.373 199.897 L608.373 205.291 L604.114 205.291 L604.114 199.897 Z" fill="#000000" fill-rule="nonzero" fill-opacity="1" /><path clip-path="url(#clip980)" d="M617.285 199.897 L621.544 199.897 L621.544 235.916 L617.285 235.916 L617.285 199.897 Z" fill="#000000" fill-rule="nonzero" fill-opacity="1" /><path clip-path="url(#clip980)" d="M642.238 222.883 Q637.076 222.883 635.086 224.064 Q633.095 225.244 633.095 228.092 Q633.095 230.36 634.576 231.703 Q636.081 233.022 638.65 233.022 Q642.192 233.022 644.322 230.522 Q646.474 227.999 646.474 223.832 L646.474 222.883 L642.238 222.883 M650.734 221.124 L650.734 235.916 L646.474 235.916 L646.474 231.981 Q645.016 234.342 642.84 235.476 Q640.664 236.587 637.516 236.587 Q633.535 236.587 631.174 234.365 Q628.836 232.119 628.836 228.369 Q628.836 223.994 631.752 221.772 Q634.692 219.55 640.502 219.55 L646.474 219.55 L646.474 219.133 Q646.474 216.194 644.53 214.596 Q642.609 212.976 639.113 212.976 Q636.891 212.976 634.785 213.508 Q632.678 214.041 630.734 215.106 L630.734 211.17 Q633.072 210.268 635.271 209.828 Q637.47 209.365 639.553 209.365 Q645.178 209.365 647.956 212.282 Q650.734 215.198 650.734 221.124 Z" fill="#000000" fill-rule="nonzero" fill-opacity="1" /><path clip-path="url(#clip980)" d="M674.53 213.971 Q673.812 213.555 672.956 213.37 Q672.122 213.161 671.104 213.161 Q667.493 213.161 665.548 215.522 Q663.627 217.86 663.627 222.258 L663.627 235.916 L659.345 235.916 L659.345 209.99 L663.627 209.99 L663.627 214.018 Q664.97 211.657 667.123 210.522 Q669.275 209.365 672.354 209.365 Q672.794 209.365 673.326 209.434 Q673.859 209.481 674.507 209.596 L674.53 213.971 Z" fill="#000000" fill-rule="nonzero" fill-opacity="1" /><path clip-path="url(#clip980)" d="M678.997 209.99 L683.257 209.99 L683.257 235.916 L678.997 235.916 L678.997 209.99 M678.997 199.897 L683.257 199.897 L683.257 205.291 L678.997 205.291 L678.997 199.897 Z" fill="#000000" fill-rule="nonzero" fill-opacity="1" /><path clip-path="url(#clip980)" d="M696.382 202.629 L696.382 209.99 L705.155 209.99 L705.155 213.3 L696.382 213.3 L696.382 227.374 Q696.382 230.545 697.238 231.448 Q698.118 232.351 700.78 232.351 L705.155 232.351 L705.155 235.916 L700.78 235.916 Q695.849 235.916 693.974 234.087 Q692.099 232.235 692.099 227.374 L692.099 213.3 L688.974 213.3 L688.974 209.99 L692.099 209.99 L692.099 202.629 L696.382 202.629 Z" fill="#000000" fill-rule="nonzero" fill-opacity="1" /><path clip-path="url(#clip980)" d="M721.544 238.323 Q719.738 242.953 718.025 244.365 Q716.312 245.777 713.442 245.777 L710.039 245.777 L710.039 242.212 L712.539 242.212 Q714.298 242.212 715.27 241.379 Q716.243 240.545 717.423 237.443 L718.187 235.499 L707.701 209.99 L712.215 209.99 L720.317 230.268 L728.418 209.99 L732.932 209.99 L721.544 238.323 Z" fill="#000000" fill-rule="nonzero" fill-opacity="1" /></svg>
