<?xml version="1.0" encoding="utf-8"?>
<svg xmlns="http://www.w3.org/2000/svg" xmlns:xlink="http://www.w3.org/1999/xlink" width="600" height="400" viewBox="0 0 2400 1600">
<defs>
  <clipPath id="clip830">
    <rect x="0" y="0" width="2400" height="1600"/>
  </clipPath>
</defs>
<path clip-path="url(#clip830)" d="M0 1600 L2400 1600 L2400 8.88178e-14 L0 8.88178e-14  Z" fill="#ffffff" fill-rule="evenodd" fill-opacity="1"/>
<defs>
  <clipPath id="clip831">
    <rect x="480" y="0" width="1681" height="1600"/>
  </clipPath>
</defs>
<path clip-path="url(#clip830)" d="M257.204 1423.18 L2352.76 1423.18 L2352.76 123.472 L257.204 123.472  Z" fill="#ffffff" fill-rule="evenodd" fill-opacity="1"/>
<defs>
  <clipPath id="clip832">
    <rect x="257" y="123" width="2097" height="1301"/>
  </clipPath>
</defs>
<polyline clip-path="url(#clip832)" style="stroke:#000000; stroke-linecap:round; stroke-linejoin:round; stroke-width:2; stroke-opacity:0.1; fill:none" points="314.533,1423.18 314.533,123.472 "/>
<polyline clip-path="url(#clip832)" style="stroke:#000000; stroke-linecap:round; stroke-linejoin:round; stroke-width:2; stroke-opacity:0.1; fill:none" points="809.262,1423.18 809.262,123.472 "/>
<polyline clip-path="url(#clip832)" style="stroke:#000000; stroke-linecap:round; stroke-linejoin:round; stroke-width:2; stroke-opacity:0.1; fill:none" points="1303.99,1423.18 1303.99,123.472 "/>
<polyline clip-path="url(#clip832)" style="stroke:#000000; stroke-linecap:round; stroke-linejoin:round; stroke-width:2; stroke-opacity:0.1; fill:none" points="1798.72,1423.18 1798.72,123.472 "/>
<polyline clip-path="url(#clip832)" style="stroke:#000000; stroke-linecap:round; stroke-linejoin:round; stroke-width:2; stroke-opacity:0.1; fill:none" points="2293.45,1423.18 2293.45,123.472 "/>
<polyline clip-path="url(#clip830)" style="stroke:#000000; stroke-linecap:round; stroke-linejoin:round; stroke-width:4; stroke-opacity:1; fill:none" points="257.204,1423.18 2352.76,1423.18 "/>
<polyline clip-path="url(#clip830)" style="stroke:#000000; stroke-linecap:round; stroke-linejoin:round; stroke-width:4; stroke-opacity:1; fill:none" points="314.533,1423.18 314.533,1404.28 "/>
<polyline clip-path="url(#clip830)" style="stroke:#000000; stroke-linecap:round; stroke-linejoin:round; stroke-width:4; stroke-opacity:1; fill:none" points="809.262,1423.18 809.262,1404.28 "/>
<polyline clip-path="url(#clip830)" style="stroke:#000000; stroke-linecap:round; stroke-linejoin:round; stroke-width:4; stroke-opacity:1; fill:none" points="1303.99,1423.18 1303.99,1404.28 "/>
<polyline clip-path="url(#clip830)" style="stroke:#000000; stroke-linecap:round; stroke-linejoin:round; stroke-width:4; stroke-opacity:1; fill:none" points="1798.72,1423.18 1798.72,1404.28 "/>
<polyline clip-path="url(#clip830)" style="stroke:#000000; stroke-linecap:round; stroke-linejoin:round; stroke-width:4; stroke-opacity:1; fill:none" points="2293.45,1423.18 2293.45,1404.28 "/>
<path clip-path="url(#clip830)" d="M314.533 1454.1 Q310.922 1454.1 309.093 1457.66 Q307.288 1461.2 307.288 1468.33 Q307.288 1475.44 309.093 1479.01 Q310.922 1482.55 314.533 1482.55 Q318.167 1482.55 319.973 1479.01 Q321.802 1475.44 321.802 1468.33 Q321.802 1461.2 319.973 1457.66 Q318.167 1454.1 314.533 1454.1 M314.533 1450.39 Q320.343 1450.39 323.399 1455 Q326.478 1459.58 326.478 1468.33 Q326.478 1477.06 323.399 1481.67 Q320.343 1486.25 314.533 1486.25 Q308.723 1486.25 305.644 1481.67 Q302.589 1477.06 302.589 1468.33 Q302.589 1459.58 305.644 1455 Q308.723 1450.39 314.533 1450.39 Z" fill="#000000" fill-rule="nonzero" fill-opacity="1" /><path clip-path="url(#clip830)" d="M772.954 1481.64 L789.274 1481.64 L789.274 1485.58 L767.329 1485.58 L767.329 1481.64 Q769.991 1478.89 774.575 1474.26 Q779.181 1469.61 780.362 1468.27 Q782.607 1465.74 783.487 1464.01 Q784.389 1462.25 784.389 1460.56 Q784.389 1457.8 782.445 1456.07 Q780.524 1454.33 777.422 1454.33 Q775.223 1454.33 772.769 1455.09 Q770.338 1455.86 767.561 1457.41 L767.561 1452.69 Q770.385 1451.55 772.838 1450.97 Q775.292 1450.39 777.329 1450.39 Q782.699 1450.39 785.894 1453.08 Q789.088 1455.77 789.088 1460.26 Q789.088 1462.39 788.278 1464.31 Q787.491 1466.2 785.385 1468.8 Q784.806 1469.47 781.704 1472.69 Q778.602 1475.88 772.954 1481.64 Z" fill="#000000" fill-rule="nonzero" fill-opacity="1" /><path clip-path="url(#clip830)" d="M799.135 1451.02 L817.491 1451.02 L817.491 1454.96 L803.417 1454.96 L803.417 1463.43 Q804.435 1463.08 805.454 1462.92 Q806.473 1462.73 807.491 1462.73 Q813.278 1462.73 816.658 1465.9 Q820.037 1469.08 820.037 1474.49 Q820.037 1480.07 816.565 1483.17 Q813.093 1486.25 806.773 1486.25 Q804.598 1486.25 802.329 1485.88 Q800.084 1485.51 797.676 1484.77 L797.676 1480.07 Q799.76 1481.2 801.982 1481.76 Q804.204 1482.32 806.681 1482.32 Q810.685 1482.32 813.023 1480.21 Q815.361 1478.1 815.361 1474.49 Q815.361 1470.88 813.023 1468.77 Q810.685 1466.67 806.681 1466.67 Q804.806 1466.67 802.931 1467.08 Q801.079 1467.5 799.135 1468.38 L799.135 1451.02 Z" fill="#000000" fill-rule="nonzero" fill-opacity="1" /><path clip-path="url(#clip830)" d="M839.25 1454.1 Q835.639 1454.1 833.81 1457.66 Q832.005 1461.2 832.005 1468.33 Q832.005 1475.44 833.81 1479.01 Q835.639 1482.55 839.25 1482.55 Q842.884 1482.55 844.69 1479.01 Q846.519 1475.44 846.519 1468.33 Q846.519 1461.2 844.69 1457.66 Q842.884 1454.1 839.25 1454.1 M839.25 1450.39 Q845.06 1450.39 848.116 1455 Q851.194 1459.58 851.194 1468.33 Q851.194 1477.06 848.116 1481.67 Q845.06 1486.25 839.25 1486.25 Q833.44 1486.25 830.361 1481.67 Q827.306 1477.06 827.306 1468.33 Q827.306 1459.58 830.361 1455 Q833.44 1450.39 839.25 1450.39 Z" fill="#000000" fill-rule="nonzero" fill-opacity="1" /><path clip-path="url(#clip830)" d="M1263.61 1451.02 L1281.97 1451.02 L1281.97 1454.96 L1267.89 1454.96 L1267.89 1463.43 Q1268.91 1463.08 1269.93 1462.92 Q1270.95 1462.73 1271.97 1462.73 Q1277.75 1462.73 1281.13 1465.9 Q1284.51 1469.08 1284.51 1474.49 Q1284.51 1480.07 1281.04 1483.17 Q1277.57 1486.25 1271.25 1486.25 Q1269.07 1486.25 1266.8 1485.88 Q1264.56 1485.51 1262.15 1484.77 L1262.15 1480.07 Q1264.23 1481.2 1266.46 1481.76 Q1268.68 1482.32 1271.16 1482.32 Q1275.16 1482.32 1277.5 1480.21 Q1279.84 1478.1 1279.84 1474.49 Q1279.84 1470.88 1277.5 1468.77 Q1275.16 1466.67 1271.16 1466.67 Q1269.28 1466.67 1267.41 1467.08 Q1265.55 1467.5 1263.61 1468.38 L1263.61 1451.02 Z" fill="#000000" fill-rule="nonzero" fill-opacity="1" /><path clip-path="url(#clip830)" d="M1303.72 1454.1 Q1300.11 1454.1 1298.28 1457.66 Q1296.48 1461.2 1296.48 1468.33 Q1296.48 1475.44 1298.28 1479.01 Q1300.11 1482.55 1303.72 1482.55 Q1307.36 1482.55 1309.16 1479.01 Q1310.99 1475.44 1310.99 1468.33 Q1310.99 1461.2 1309.16 1457.66 Q1307.36 1454.1 1303.72 1454.1 M1303.72 1450.39 Q1309.53 1450.39 1312.59 1455 Q1315.67 1459.58 1315.67 1468.33 Q1315.67 1477.06 1312.59 1481.67 Q1309.53 1486.25 1303.72 1486.25 Q1297.91 1486.25 1294.84 1481.67 Q1291.78 1477.06 1291.78 1468.33 Q1291.78 1459.58 1294.84 1455 Q1297.91 1450.39 1303.72 1450.39 Z" fill="#000000" fill-rule="nonzero" fill-opacity="1" /><path clip-path="url(#clip830)" d="M1333.89 1454.1 Q1330.28 1454.1 1328.45 1457.66 Q1326.64 1461.2 1326.64 1468.33 Q1326.64 1475.44 1328.45 1479.01 Q1330.28 1482.55 1333.89 1482.55 Q1337.52 1482.55 1339.33 1479.01 Q1341.15 1475.44 1341.15 1468.33 Q1341.15 1461.2 1339.33 1457.66 Q1337.52 1454.1 1333.89 1454.1 M1333.89 1450.39 Q1339.7 1450.39 1342.75 1455 Q1345.83 1459.58 1345.83 1468.33 Q1345.83 1477.06 1342.75 1481.67 Q1339.7 1486.25 1333.89 1486.25 Q1328.08 1486.25 1325 1481.67 Q1321.94 1477.06 1321.94 1468.33 Q1321.94 1459.58 1325 1455 Q1328.08 1450.39 1333.89 1450.39 Z" fill="#000000" fill-rule="nonzero" fill-opacity="1" /><path clip-path="url(#clip830)" d="M1756.99 1451.02 L1779.22 1451.02 L1779.22 1453.01 L1766.67 1485.58 L1761.79 1485.58 L1773.59 1454.96 L1756.99 1454.96 L1756.99 1451.02 Z" fill="#000000" fill-rule="nonzero" fill-opacity="1" /><path clip-path="url(#clip830)" d="M1788.38 1451.02 L1806.74 1451.02 L1806.74 1454.96 L1792.67 1454.96 L1792.67 1463.43 Q1793.68 1463.08 1794.7 1462.92 Q1795.72 1462.73 1796.74 1462.73 Q1802.53 1462.73 1805.91 1465.9 Q1809.29 1469.08 1809.29 1474.49 Q1809.29 1480.07 1805.81 1483.17 Q1802.34 1486.25 1796.02 1486.25 Q1793.85 1486.25 1791.58 1485.88 Q1789.33 1485.51 1786.93 1484.77 L1786.93 1480.07 Q1789.01 1481.2 1791.23 1481.76 Q1793.45 1482.32 1795.93 1482.32 Q1799.93 1482.32 1802.27 1480.21 Q1804.61 1478.1 1804.61 1474.49 Q1804.61 1470.88 1802.27 1468.77 Q1799.93 1466.67 1795.93 1466.67 Q1794.05 1466.67 1792.18 1467.08 Q1790.33 1467.5 1788.38 1468.38 L1788.38 1451.02 Z" fill="#000000" fill-rule="nonzero" fill-opacity="1" /><path clip-path="url(#clip830)" d="M1828.5 1454.1 Q1824.89 1454.1 1823.06 1457.66 Q1821.25 1461.2 1821.25 1468.33 Q1821.25 1475.44 1823.06 1479.01 Q1824.89 1482.55 1828.5 1482.55 Q1832.13 1482.55 1833.94 1479.01 Q1835.77 1475.44 1835.77 1468.33 Q1835.77 1461.2 1833.94 1457.66 Q1832.13 1454.1 1828.5 1454.1 M1828.5 1450.39 Q1834.31 1450.39 1837.36 1455 Q1840.44 1459.58 1840.44 1468.33 Q1840.44 1477.06 1837.36 1481.67 Q1834.31 1486.25 1828.5 1486.25 Q1822.69 1486.25 1819.61 1481.67 Q1816.55 1477.06 1816.55 1468.33 Q1816.55 1459.58 1819.61 1455 Q1822.69 1450.39 1828.5 1450.39 Z" fill="#000000" fill-rule="nonzero" fill-opacity="1" /><path clip-path="url(#clip830)" d="M2237.97 1481.64 L2245.61 1481.64 L2245.61 1455.28 L2237.3 1456.95 L2237.3 1452.69 L2245.57 1451.02 L2250.24 1451.02 L2250.24 1481.64 L2257.88 1481.64 L2257.88 1485.58 L2237.97 1485.58 L2237.97 1481.64 Z" fill="#000000" fill-rule="nonzero" fill-opacity="1" /><path clip-path="url(#clip830)" d="M2277.33 1454.1 Q2273.71 1454.1 2271.89 1457.66 Q2270.08 1461.2 2270.08 1468.33 Q2270.08 1475.44 2271.89 1479.01 Q2273.71 1482.55 2277.33 1482.55 Q2280.96 1482.55 2282.77 1479.01 Q2284.59 1475.44 2284.59 1468.33 Q2284.59 1461.2 2282.77 1457.66 Q2280.96 1454.1 2277.33 1454.1 M2277.33 1450.39 Q2283.14 1450.39 2286.19 1455 Q2289.27 1459.58 2289.27 1468.33 Q2289.27 1477.06 2286.19 1481.67 Q2283.14 1486.25 2277.33 1486.25 Q2271.52 1486.25 2268.44 1481.67 Q2265.38 1477.06 2265.38 1468.33 Q2265.38 1459.58 2268.44 1455 Q2271.52 1450.39 2277.33 1450.39 Z" fill="#000000" fill-rule="nonzero" fill-opacity="1" /><path clip-path="url(#clip830)" d="M2307.49 1454.1 Q2303.88 1454.1 2302.05 1457.66 Q2300.24 1461.2 2300.24 1468.33 Q2300.24 1475.44 2302.05 1479.01 Q2303.88 1482.55 2307.49 1482.55 Q2311.12 1482.55 2312.93 1479.01 Q2314.76 1475.44 2314.76 1468.33 Q2314.76 1461.2 2312.93 1457.66 Q2311.12 1454.1 2307.49 1454.1 M2307.49 1450.39 Q2313.3 1450.39 2316.35 1455 Q2319.43 1459.58 2319.43 1468.33 Q2319.43 1477.06 2316.35 1481.67 Q2313.3 1486.25 2307.49 1486.25 Q2301.68 1486.25 2298.6 1481.67 Q2295.54 1477.06 2295.54 1468.33 Q2295.54 1459.58 2298.6 1455 Q2301.68 1450.39 2307.49 1450.39 Z" fill="#000000" fill-rule="nonzero" fill-opacity="1" /><path clip-path="url(#clip830)" d="M2337.65 1454.1 Q2334.04 1454.1 2332.21 1457.66 Q2330.4 1461.2 2330.4 1468.33 Q2330.4 1475.44 2332.21 1479.01 Q2334.04 1482.55 2337.65 1482.55 Q2341.28 1482.55 2343.09 1479.01 Q2344.92 1475.44 2344.92 1468.33 Q2344.92 1461.2 2343.09 1457.66 Q2341.28 1454.1 2337.65 1454.1 M2337.65 1450.39 Q2343.46 1450.39 2346.51 1455 Q2349.59 1459.58 2349.59 1468.33 Q2349.59 1477.06 2346.51 1481.67 Q2343.46 1486.25 2337.65 1486.25 Q2331.84 1486.25 2328.76 1481.67 Q2325.7 1477.06 2325.7 1468.33 Q2325.7 1459.58 2328.76 1455 Q2331.84 1450.39 2337.65 1450.39 Z" fill="#000000" fill-rule="nonzero" fill-opacity="1" /><path clip-path="url(#clip830)" d="M1268.82 1524.18 L1268.82 1530.96 Q1265.58 1527.94 1261.88 1526.44 Q1258.22 1524.95 1254.09 1524.95 Q1245.94 1524.95 1241.61 1529.95 Q1237.28 1534.91 1237.28 1544.33 Q1237.28 1553.72 1241.61 1558.72 Q1245.94 1563.68 1254.09 1563.68 Q1258.22 1563.68 1261.88 1562.19 Q1265.58 1560.69 1268.82 1557.67 L1268.82 1564.38 Q1265.45 1566.68 1261.66 1567.82 Q1257.91 1568.97 1253.7 1568.97 Q1242.91 1568.97 1236.71 1562.38 Q1230.5 1555.76 1230.5 1544.33 Q1230.5 1532.87 1236.71 1526.28 Q1242.91 1519.66 1253.7 1519.66 Q1257.97 1519.66 1261.72 1520.81 Q1265.51 1521.92 1268.82 1524.18 Z" fill="#000000" fill-rule="nonzero" fill-opacity="1" /><path clip-path="url(#clip830)" d="M1308.99 1548.76 L1308.99 1551.62 L1282.06 1551.62 Q1282.45 1557.67 1285.69 1560.85 Q1288.97 1564 1294.79 1564 Q1298.17 1564 1301.32 1563.17 Q1304.5 1562.35 1307.62 1560.69 L1307.62 1566.23 Q1304.47 1567.57 1301.16 1568.27 Q1297.85 1568.97 1294.44 1568.97 Q1285.91 1568.97 1280.92 1564 Q1275.95 1559.04 1275.95 1550.57 Q1275.95 1541.82 1280.66 1536.69 Q1285.41 1531.54 1293.43 1531.54 Q1300.62 1531.54 1304.79 1536.18 Q1308.99 1540.8 1308.99 1548.76 M1303.13 1547.04 Q1303.07 1542.23 1300.43 1539.37 Q1297.82 1536.5 1293.49 1536.5 Q1288.59 1536.5 1285.63 1539.27 Q1282.7 1542.04 1282.25 1547.07 L1303.13 1547.04 Z" fill="#000000" fill-rule="nonzero" fill-opacity="1" /><path clip-path="url(#clip830)" d="M1318.6 1518.52 L1324.46 1518.52 L1324.46 1568.04 L1318.6 1568.04 L1318.6 1518.52 Z" fill="#000000" fill-rule="nonzero" fill-opacity="1" /><path clip-path="url(#clip830)" d="M1336.71 1518.52 L1342.57 1518.52 L1342.57 1568.04 L1336.71 1568.04 L1336.71 1518.52 Z" fill="#000000" fill-rule="nonzero" fill-opacity="1" /><path clip-path="url(#clip830)" d="M1377.55 1533.45 L1377.55 1538.98 Q1375.07 1537.71 1372.39 1537.07 Q1369.72 1536.44 1366.85 1536.44 Q1362.49 1536.44 1360.3 1537.77 Q1358.13 1539.11 1358.13 1541.79 Q1358.13 1543.82 1359.69 1545 Q1361.25 1546.15 1365.96 1547.2 L1367.97 1547.64 Q1374.21 1548.98 1376.82 1551.43 Q1379.46 1553.85 1379.46 1558.21 Q1379.46 1563.17 1375.51 1566.07 Q1371.6 1568.97 1364.72 1568.97 Q1361.86 1568.97 1358.74 1568.39 Q1355.65 1567.85 1352.21 1566.74 L1352.21 1560.69 Q1355.46 1562.38 1358.61 1563.24 Q1361.76 1564.07 1364.85 1564.07 Q1368.99 1564.07 1371.22 1562.66 Q1373.44 1561.23 1373.44 1558.65 Q1373.44 1556.27 1371.82 1554.99 Q1370.23 1553.72 1364.79 1552.54 L1362.75 1552.07 Q1357.31 1550.92 1354.89 1548.56 Q1352.47 1546.18 1352.47 1542.04 Q1352.47 1537.01 1356.03 1534.27 Q1359.6 1531.54 1366.15 1531.54 Q1369.4 1531.54 1372.27 1532.01 Q1375.13 1532.49 1377.55 1533.45 Z" fill="#000000" fill-rule="nonzero" fill-opacity="1" /><polyline clip-path="url(#clip832)" style="stroke:#000000; stroke-linecap:round; stroke-linejoin:round; stroke-width:2; stroke-opacity:0.1; fill:none" points="257.204,1410.35 2352.76,1410.35 "/>
<polyline clip-path="url(#clip832)" style="stroke:#000000; stroke-linecap:round; stroke-linejoin:round; stroke-width:2; stroke-opacity:0.1; fill:none" points="257.204,1095.88 2352.76,1095.88 "/>
<polyline clip-path="url(#clip832)" style="stroke:#000000; stroke-linecap:round; stroke-linejoin:round; stroke-width:2; stroke-opacity:0.1; fill:none" points="257.204,781.413 2352.76,781.413 "/>
<polyline clip-path="url(#clip832)" style="stroke:#000000; stroke-linecap:round; stroke-linejoin:round; stroke-width:2; stroke-opacity:0.1; fill:none" points="257.204,466.943 2352.76,466.943 "/>
<polyline clip-path="url(#clip832)" style="stroke:#000000; stroke-linecap:round; stroke-linejoin:round; stroke-width:2; stroke-opacity:0.1; fill:none" points="257.204,152.474 2352.76,152.474 "/>
<polyline clip-path="url(#clip830)" style="stroke:#000000; stroke-linecap:round; stroke-linejoin:round; stroke-width:4; stroke-opacity:1; fill:none" points="257.204,1423.18 257.204,123.472 "/>
<polyline clip-path="url(#clip830)" style="stroke:#000000; stroke-linecap:round; stroke-linejoin:round; stroke-width:4; stroke-opacity:1; fill:none" points="257.204,1410.35 276.102,1410.35 "/>
<polyline clip-path="url(#clip830)" style="stroke:#000000; stroke-linecap:round; stroke-linejoin:round; stroke-width:4; stroke-opacity:1; fill:none" points="257.204,1095.88 276.102,1095.88 "/>
<polyline clip-path="url(#clip830)" style="stroke:#000000; stroke-linecap:round; stroke-linejoin:round; stroke-width:4; stroke-opacity:1; fill:none" points="257.204,781.413 276.102,781.413 "/>
<polyline clip-path="url(#clip830)" style="stroke:#000000; stroke-linecap:round; stroke-linejoin:round; stroke-width:4; stroke-opacity:1; fill:none" points="257.204,466.943 276.102,466.943 "/>
<polyline clip-path="url(#clip830)" style="stroke:#000000; stroke-linecap:round; stroke-linejoin:round; stroke-width:4; stroke-opacity:1; fill:none" points="257.204,152.474 276.102,152.474 "/>
<path clip-path="url(#clip830)" d="M114.26 1410.8 L143.936 1410.8 L143.936 1414.74 L114.26 1414.74 L114.26 1410.8 Z" fill="#000000" fill-rule="nonzero" fill-opacity="1" /><path clip-path="url(#clip830)" d="M154.839 1423.7 L162.477 1423.7 L162.477 1397.33 L154.167 1399 L154.167 1394.74 L162.431 1393.07 L167.107 1393.07 L167.107 1423.7 L174.746 1423.7 L174.746 1427.63 L154.839 1427.63 L154.839 1423.7 Z" fill="#000000" fill-rule="nonzero" fill-opacity="1" /><path clip-path="url(#clip830)" d="M184.19 1421.75 L189.075 1421.75 L189.075 1427.63 L184.19 1427.63 L184.19 1421.75 Z" fill="#000000" fill-rule="nonzero" fill-opacity="1" /><path clip-path="url(#clip830)" d="M209.26 1396.15 Q205.649 1396.15 203.82 1399.72 Q202.014 1403.26 202.014 1410.39 Q202.014 1417.49 203.82 1421.06 Q205.649 1424.6 209.26 1424.6 Q212.894 1424.6 214.699 1421.06 Q216.528 1417.49 216.528 1410.39 Q216.528 1403.26 214.699 1399.72 Q212.894 1396.15 209.26 1396.15 M209.26 1392.45 Q215.07 1392.45 218.125 1397.05 Q221.204 1401.64 221.204 1410.39 Q221.204 1419.11 218.125 1423.72 Q215.07 1428.3 209.26 1428.3 Q203.449 1428.3 200.371 1423.72 Q197.315 1419.11 197.315 1410.39 Q197.315 1401.64 200.371 1397.05 Q203.449 1392.45 209.26 1392.45 Z" fill="#000000" fill-rule="nonzero" fill-opacity="1" /><path clip-path="url(#clip830)" d="M115.256 1096.33 L144.931 1096.33 L144.931 1100.27 L115.256 1100.27 L115.256 1096.33 Z" fill="#000000" fill-rule="nonzero" fill-opacity="1" /><path clip-path="url(#clip830)" d="M165.024 1081.68 Q161.413 1081.68 159.584 1085.25 Q157.778 1088.79 157.778 1095.92 Q157.778 1103.02 159.584 1106.59 Q161.413 1110.13 165.024 1110.13 Q168.658 1110.13 170.464 1106.59 Q172.292 1103.02 172.292 1095.92 Q172.292 1088.79 170.464 1085.25 Q168.658 1081.68 165.024 1081.68 M165.024 1077.98 Q170.834 1077.98 173.889 1082.58 Q176.968 1087.17 176.968 1095.92 Q176.968 1104.64 173.889 1109.25 Q170.834 1113.83 165.024 1113.83 Q159.214 1113.83 156.135 1109.25 Q153.079 1104.64 153.079 1095.92 Q153.079 1087.17 156.135 1082.58 Q159.214 1077.98 165.024 1077.98 Z" fill="#000000" fill-rule="nonzero" fill-opacity="1" /><path clip-path="url(#clip830)" d="M185.186 1107.28 L190.07 1107.28 L190.07 1113.16 L185.186 1113.16 L185.186 1107.28 Z" fill="#000000" fill-rule="nonzero" fill-opacity="1" /><path clip-path="url(#clip830)" d="M200.301 1078.6 L218.658 1078.6 L218.658 1082.54 L204.584 1082.54 L204.584 1091.01 Q205.602 1090.66 206.621 1090.5 Q207.639 1090.32 208.658 1090.32 Q214.445 1090.32 217.824 1093.49 Q221.204 1096.66 221.204 1102.07 Q221.204 1107.65 217.732 1110.75 Q214.26 1113.83 207.94 1113.83 Q205.764 1113.83 203.496 1113.46 Q201.25 1113.09 198.843 1112.35 L198.843 1107.65 Q200.926 1108.79 203.149 1109.34 Q205.371 1109.9 207.848 1109.9 Q211.852 1109.9 214.19 1107.79 Q216.528 1105.69 216.528 1102.07 Q216.528 1098.46 214.19 1096.36 Q211.852 1094.25 207.848 1094.25 Q205.973 1094.25 204.098 1094.67 Q202.246 1095.08 200.301 1095.96 L200.301 1078.6 Z" fill="#000000" fill-rule="nonzero" fill-opacity="1" /><path clip-path="url(#clip830)" d="M164.028 767.211 Q160.417 767.211 158.589 770.776 Q156.783 774.318 156.783 781.447 Q156.783 788.554 158.589 792.119 Q160.417 795.66 164.028 795.66 Q167.663 795.66 169.468 792.119 Q171.297 788.554 171.297 781.447 Q171.297 774.318 169.468 770.776 Q167.663 767.211 164.028 767.211 M164.028 763.508 Q169.839 763.508 172.894 768.114 Q175.973 772.697 175.973 781.447 Q175.973 790.174 172.894 794.781 Q169.839 799.364 164.028 799.364 Q158.218 799.364 155.14 794.781 Q152.084 790.174 152.084 781.447 Q152.084 772.697 155.14 768.114 Q158.218 763.508 164.028 763.508 Z" fill="#000000" fill-rule="nonzero" fill-opacity="1" /><path clip-path="url(#clip830)" d="M184.19 792.813 L189.075 792.813 L189.075 798.693 L184.19 798.693 L184.19 792.813 Z" fill="#000000" fill-rule="nonzero" fill-opacity="1" /><path clip-path="url(#clip830)" d="M209.26 767.211 Q205.649 767.211 203.82 770.776 Q202.014 774.318 202.014 781.447 Q202.014 788.554 203.82 792.119 Q205.649 795.66 209.26 795.66 Q212.894 795.66 214.699 792.119 Q216.528 788.554 216.528 781.447 Q216.528 774.318 214.699 770.776 Q212.894 767.211 209.26 767.211 M209.26 763.508 Q215.07 763.508 218.125 768.114 Q221.204 772.697 221.204 781.447 Q221.204 790.174 218.125 794.781 Q215.07 799.364 209.26 799.364 Q203.449 799.364 200.371 794.781 Q197.315 790.174 197.315 781.447 Q197.315 772.697 200.371 768.114 Q203.449 763.508 209.26 763.508 Z" fill="#000000" fill-rule="nonzero" fill-opacity="1" /><path clip-path="url(#clip830)" d="M165.024 452.742 Q161.413 452.742 159.584 456.307 Q157.778 459.848 157.778 466.978 Q157.778 474.084 159.584 477.649 Q161.413 481.191 165.024 481.191 Q168.658 481.191 170.464 477.649 Q172.292 474.084 172.292 466.978 Q172.292 459.848 170.464 456.307 Q168.658 452.742 165.024 452.742 M165.024 449.038 Q170.834 449.038 173.889 453.645 Q176.968 458.228 176.968 466.978 Q176.968 475.705 173.889 480.311 Q170.834 484.894 165.024 484.894 Q159.214 484.894 156.135 480.311 Q153.079 475.705 153.079 466.978 Q153.079 458.228 156.135 453.645 Q159.214 449.038 165.024 449.038 Z" fill="#000000" fill-rule="nonzero" fill-opacity="1" /><path clip-path="url(#clip830)" d="M185.186 478.343 L190.07 478.343 L190.07 484.223 L185.186 484.223 L185.186 478.343 Z" fill="#000000" fill-rule="nonzero" fill-opacity="1" /><path clip-path="url(#clip830)" d="M200.301 449.663 L218.658 449.663 L218.658 453.598 L204.584 453.598 L204.584 462.07 Q205.602 461.723 206.621 461.561 Q207.639 461.376 208.658 461.376 Q214.445 461.376 217.824 464.547 Q221.204 467.719 221.204 473.135 Q221.204 478.714 217.732 481.816 Q214.26 484.894 207.94 484.894 Q205.764 484.894 203.496 484.524 Q201.25 484.154 198.843 483.413 L198.843 478.714 Q200.926 479.848 203.149 480.404 Q205.371 480.959 207.848 480.959 Q211.852 480.959 214.19 478.853 Q216.528 476.746 216.528 473.135 Q216.528 469.524 214.19 467.418 Q211.852 465.311 207.848 465.311 Q205.973 465.311 204.098 465.728 Q202.246 466.144 200.301 467.024 L200.301 449.663 Z" fill="#000000" fill-rule="nonzero" fill-opacity="1" /><path clip-path="url(#clip830)" d="M154.839 165.818 L162.477 165.818 L162.477 139.453 L154.167 141.119 L154.167 136.86 L162.431 135.194 L167.107 135.194 L167.107 165.818 L174.746 165.818 L174.746 169.754 L154.839 169.754 L154.839 165.818 Z" fill="#000000" fill-rule="nonzero" fill-opacity="1" /><path clip-path="url(#clip830)" d="M184.19 163.874 L189.075 163.874 L189.075 169.754 L184.19 169.754 L184.19 163.874 Z" fill="#000000" fill-rule="nonzero" fill-opacity="1" /><path clip-path="url(#clip830)" d="M209.26 138.272 Q205.649 138.272 203.82 141.837 Q202.014 145.379 202.014 152.508 Q202.014 159.615 203.82 163.18 Q205.649 166.721 209.26 166.721 Q212.894 166.721 214.699 163.18 Q216.528 159.615 216.528 152.508 Q216.528 145.379 214.699 141.837 Q212.894 138.272 209.26 138.272 M209.26 134.569 Q215.07 134.569 218.125 139.175 Q221.204 143.758 221.204 152.508 Q221.204 161.235 218.125 165.842 Q215.07 170.425 209.26 170.425 Q203.449 170.425 200.371 165.842 Q197.315 161.235 197.315 152.508 Q197.315 143.758 200.371 139.175 Q203.449 134.569 209.26 134.569 Z" fill="#000000" fill-rule="nonzero" fill-opacity="1" /><path clip-path="url(#clip830)" d="M18.0438 893.717 L24.314 893.717 Q22.5634 897.378 21.704 900.624 Q20.8447 903.871 20.8447 906.894 Q20.8447 912.146 22.8817 915.011 Q24.9187 917.843 28.6745 917.843 Q31.8255 917.843 33.4488 915.966 Q35.0402 914.056 36.0269 908.772 L36.8226 904.889 Q38.1912 897.696 41.6605 894.29 Q45.098 890.853 50.8908 890.853 Q57.7976 890.853 61.3624 895.5 Q64.9272 900.115 64.9272 909.059 Q64.9272 912.433 64.1633 916.252 Q63.3994 920.04 61.9035 924.114 L55.2831 924.114 Q57.4793 920.199 58.5933 916.443 Q59.7073 912.687 59.7073 909.059 Q59.7073 903.552 57.543 900.561 Q55.3786 897.569 51.3682 897.569 Q47.8671 897.569 45.8937 899.733 Q43.9204 901.866 42.9337 906.767 L42.1698 910.682 Q40.7375 917.875 37.682 921.09 Q34.6264 924.305 29.1837 924.305 Q22.8817 924.305 19.2532 919.88 Q15.6248 915.424 15.6248 907.626 Q15.6248 904.284 16.2295 900.815 Q16.8343 897.346 18.0438 893.717 Z" fill="#000000" fill-rule="nonzero" fill-opacity="1" /><path clip-path="url(#clip830)" d="M28.3562 881.081 L28.3562 875.225 L64.0042 875.225 L64.0042 881.081 L28.3562 881.081 M14.479 881.081 L14.479 875.225 L21.895 875.225 L21.895 881.081 L14.479 881.081 Z" fill="#000000" fill-rule="nonzero" fill-opacity="1" /><path clip-path="url(#clip830)" d="M35.1993 835.217 Q31.2526 833.02 29.3747 829.965 Q27.4968 826.909 27.4968 822.772 Q27.4968 817.202 31.4117 814.178 Q35.2948 811.154 42.4881 811.154 L64.0042 811.154 L64.0042 817.042 L42.679 817.042 Q37.5546 817.042 35.072 818.857 Q32.5894 820.671 32.5894 824.395 Q32.5894 828.946 35.6131 831.588 Q38.6368 834.23 43.8567 834.23 L64.0042 834.23 L64.0042 840.118 L42.679 840.118 Q37.5228 840.118 35.072 841.932 Q32.5894 843.747 32.5894 847.534 Q32.5894 852.022 35.6449 854.664 Q38.6686 857.306 43.8567 857.306 L64.0042 857.306 L64.0042 863.194 L28.3562 863.194 L28.3562 857.306 L33.8944 857.306 Q30.616 855.3 29.0564 852.499 Q27.4968 849.699 27.4968 845.847 Q27.4968 841.964 29.4702 839.259 Q31.4436 836.522 35.1993 835.217 Z" fill="#000000" fill-rule="nonzero" fill-opacity="1" /><path clip-path="url(#clip830)" d="M28.3562 799.473 L28.3562 793.617 L64.0042 793.617 L64.0042 799.473 L28.3562 799.473 M14.479 799.473 L14.479 793.617 L21.895 793.617 L21.895 799.473 L14.479 799.473 Z" fill="#000000" fill-rule="nonzero" fill-opacity="1" /><path clip-path="url(#clip830)" d="M14.479 781.363 L14.479 775.506 L64.0042 775.506 L64.0042 781.363 L14.479 781.363 Z" fill="#000000" fill-rule="nonzero" fill-opacity="1" /><path clip-path="url(#clip830)" d="M46.0847 747.052 Q46.0847 754.149 47.7079 756.887 Q49.3312 759.624 53.2461 759.624 Q56.3653 759.624 58.2114 757.587 Q60.0256 755.518 60.0256 751.985 Q60.0256 747.115 56.5881 744.187 Q53.1188 741.227 47.3897 741.227 L46.0847 741.227 L46.0847 747.052 M43.6657 735.37 L64.0042 735.37 L64.0042 741.227 L58.5933 741.227 Q61.8398 743.232 63.3994 746.224 Q64.9272 749.216 64.9272 753.545 Q64.9272 759.019 61.8716 762.266 Q58.7843 765.48 53.6281 765.48 Q47.6125 765.48 44.5569 761.47 Q41.5014 757.428 41.5014 749.439 L41.5014 741.227 L40.9285 741.227 Q36.8862 741.227 34.6901 743.901 Q32.4621 746.542 32.4621 751.348 Q32.4621 754.404 33.1941 757.3 Q33.9262 760.197 35.3903 762.87 L29.9795 762.87 Q28.7381 759.656 28.1334 756.632 Q27.4968 753.608 27.4968 750.744 Q27.4968 743.009 31.5072 739.19 Q35.5176 735.37 43.6657 735.37 Z" fill="#000000" fill-rule="nonzero" fill-opacity="1" /><path clip-path="url(#clip830)" d="M33.8307 702.651 Q33.2578 703.637 33.0032 704.815 Q32.7167 705.961 32.7167 707.361 Q32.7167 712.327 35.9632 715 Q39.1779 717.642 45.2253 717.642 L64.0042 717.642 L64.0042 723.53 L28.3562 723.53 L28.3562 717.642 L33.8944 717.642 Q30.6479 715.796 29.0883 712.836 Q27.4968 709.876 27.4968 705.643 Q27.4968 705.038 27.5923 704.306 Q27.656 703.574 27.8151 702.683 L33.8307 702.651 Z" fill="#000000" fill-rule="nonzero" fill-opacity="1" /><path clip-path="url(#clip830)" d="M28.3562 696.508 L28.3562 690.651 L64.0042 690.651 L64.0042 696.508 L28.3562 696.508 M14.479 696.508 L14.479 690.651 L21.895 690.651 L21.895 696.508 L14.479 696.508 Z" fill="#000000" fill-rule="nonzero" fill-opacity="1" /><path clip-path="url(#clip830)" d="M18.2347 672.605 L28.3562 672.605 L28.3562 660.542 L32.9077 660.542 L32.9077 672.605 L52.2594 672.605 Q56.6199 672.605 57.8613 671.427 Q59.1026 670.217 59.1026 666.557 L59.1026 660.542 L64.0042 660.542 L64.0042 666.557 Q64.0042 673.337 61.4897 675.915 Q58.9434 678.493 52.2594 678.493 L32.9077 678.493 L32.9077 682.79 L28.3562 682.79 L28.3562 678.493 L18.2347 678.493 L18.2347 672.605 Z" fill="#000000" fill-rule="nonzero" fill-opacity="1" /><path clip-path="url(#clip830)" d="M67.3143 638.007 Q73.68 640.49 75.6216 642.845 Q77.5631 645.2 77.5631 649.147 L77.5631 653.826 L72.6615 653.826 L72.6615 650.388 Q72.6615 647.969 71.5157 646.633 Q70.3699 645.296 66.1048 643.672 L63.4312 642.622 L28.3562 657.04 L28.3562 650.834 L56.238 639.694 L28.3562 628.554 L28.3562 622.347 L67.3143 638.007 Z" fill="#000000" fill-rule="nonzero" fill-opacity="1" /><path clip-path="url(#clip830)" d="M396.18 14.0809 L396.18 22.0612 Q391.521 19.8332 387.389 18.7395 Q383.257 17.6457 379.409 17.6457 Q372.725 17.6457 369.079 20.2383 Q365.474 22.8309 365.474 27.611 Q365.474 31.6214 367.864 33.6873 Q370.295 35.7128 377.019 36.9686 L381.961 37.9813 Q391.116 39.7232 395.451 44.1387 Q399.826 48.5136 399.826 55.8863 Q399.826 64.6767 393.911 69.2137 Q388.038 73.7508 376.655 73.7508 Q372.361 73.7508 367.499 72.7785 Q362.679 71.8063 357.494 69.9024 L357.494 61.4765 Q362.476 64.2716 367.256 65.6895 Q372.036 67.1073 376.655 67.1073 Q383.663 67.1073 387.47 64.3527 Q391.278 61.598 391.278 56.4939 Q391.278 52.0379 388.524 49.5264 Q385.81 47.0148 379.571 45.759 L374.589 44.7868 Q365.433 42.9639 361.342 39.075 Q357.251 35.1862 357.251 28.2591 Q357.251 20.2383 362.881 15.6203 Q368.553 11.0023 378.477 11.0023 Q382.731 11.0023 387.146 11.7719 Q391.562 12.5416 396.18 14.0809 Z" fill="#000000" fill-rule="nonzero" fill-opacity="1" /><path clip-path="url(#clip830)" d="M429.843 32.4315 Q423.848 32.4315 420.364 37.1306 Q416.88 41.7891 416.88 49.9314 Q416.88 58.0738 420.323 62.7728 Q423.807 67.4314 429.843 67.4314 Q435.798 67.4314 439.281 62.7323 Q442.765 58.0333 442.765 49.9314 Q442.765 41.8701 439.281 37.1711 Q435.798 32.4315 429.843 32.4315 M429.843 26.1121 Q439.565 26.1121 445.115 32.4315 Q450.665 38.7509 450.665 49.9314 Q450.665 61.0714 445.115 67.4314 Q439.565 73.7508 429.843 73.7508 Q420.08 73.7508 414.53 67.4314 Q409.021 61.0714 409.021 49.9314 Q409.021 38.7509 414.53 32.4315 Q420.08 26.1121 429.843 26.1121 Z" fill="#000000" fill-rule="nonzero" fill-opacity="1" /><path clip-path="url(#clip830)" d="M489.31 34.1734 Q488.054 33.4443 486.556 33.1202 Q485.097 32.7556 483.315 32.7556 Q476.995 32.7556 473.593 36.8875 Q470.23 40.9789 470.23 48.6757 L470.23 72.576 L462.736 72.576 L462.736 27.2059 L470.23 27.2059 L470.23 34.2544 Q472.58 30.1225 476.347 28.1376 Q480.115 26.1121 485.502 26.1121 Q486.272 26.1121 487.204 26.2337 Q488.135 26.3147 489.27 26.5172 L489.31 34.1734 Z" fill="#000000" fill-rule="nonzero" fill-opacity="1" /><path clip-path="url(#clip830)" d="M504.501 14.324 L504.501 27.2059 L519.854 27.2059 L519.854 32.9987 L504.501 32.9987 L504.501 57.6282 Q504.501 63.1779 506 64.7578 Q507.539 66.3376 512.198 66.3376 L519.854 66.3376 L519.854 72.576 L512.198 72.576 Q503.569 72.576 500.288 69.3758 Q497.007 66.1351 497.007 57.6282 L497.007 32.9987 L491.538 32.9987 L491.538 27.2059 L497.007 27.2059 L497.007 14.324 L504.501 14.324 Z" fill="#000000" fill-rule="nonzero" fill-opacity="1" /><path clip-path="url(#clip830)" d="M568.465 48.0275 L568.465 51.6733 L534.194 51.6733 Q534.68 59.3701 538.812 63.421 Q542.985 67.4314 550.398 67.4314 Q554.692 67.4314 558.702 66.3781 Q562.753 65.3249 566.723 63.2184 L566.723 70.267 Q562.713 71.9684 558.5 72.8596 Q554.287 73.7508 549.952 73.7508 Q539.096 73.7508 532.736 67.4314 Q526.416 61.1119 526.416 50.3365 Q526.416 39.1965 532.412 32.6746 Q538.448 26.1121 548.656 26.1121 Q557.811 26.1121 563.118 32.0264 Q568.465 37.9003 568.465 48.0275 M561.011 45.84 Q560.93 39.7232 557.568 36.0774 Q554.246 32.4315 548.737 32.4315 Q542.499 32.4315 538.731 35.9558 Q535.004 39.4801 534.437 45.8805 L561.011 45.84 Z" fill="#000000" fill-rule="nonzero" fill-opacity="1" /><path clip-path="url(#clip830)" d="M610.554 34.0924 L610.554 9.54393 L618.007 9.54393 L618.007 72.576 L610.554 72.576 L610.554 65.7705 Q608.204 69.8214 604.599 71.8063 Q601.034 73.7508 596.011 73.7508 Q587.788 73.7508 582.602 67.1883 Q577.458 60.6258 577.458 49.9314 Q577.458 39.2371 582.602 32.6746 Q587.788 26.1121 596.011 26.1121 Q601.034 26.1121 604.599 28.0971 Q608.204 30.0415 610.554 34.0924 M585.155 49.9314 Q585.155 58.1548 588.517 62.8538 Q591.92 67.5124 597.834 67.5124 Q603.748 67.5124 607.151 62.8538 Q610.554 58.1548 610.554 49.9314 Q610.554 41.7081 607.151 37.0496 Q603.748 32.3505 597.834 32.3505 Q591.92 32.3505 588.517 37.0496 Q585.155 41.7081 585.155 49.9314 Z" fill="#000000" fill-rule="nonzero" fill-opacity="1" /><path clip-path="url(#clip830)" d="M692.382 28.9478 L692.382 35.9153 Q689.222 34.1734 686.022 33.3227 Q682.862 32.4315 679.622 32.4315 Q672.371 32.4315 668.36 37.0496 Q664.35 41.6271 664.35 49.9314 Q664.35 58.2358 668.36 62.8538 Q672.371 67.4314 679.622 67.4314 Q682.862 67.4314 686.022 66.5807 Q689.222 65.6895 692.382 63.9476 L692.382 70.8341 Q689.263 72.2924 685.901 73.0216 Q682.579 73.7508 678.811 73.7508 Q668.563 73.7508 662.527 67.3098 Q656.491 60.8689 656.491 49.9314 Q656.491 38.832 662.567 32.472 Q668.684 26.1121 679.298 26.1121 Q682.741 26.1121 686.022 26.8413 Q689.303 27.5299 692.382 28.9478 Z" fill="#000000" fill-rule="nonzero" fill-opacity="1" /><path clip-path="url(#clip830)" d="M722.926 32.4315 Q716.93 32.4315 713.447 37.1306 Q709.963 41.7891 709.963 49.9314 Q709.963 58.0738 713.406 62.7728 Q716.89 67.4314 722.926 67.4314 Q728.881 67.4314 732.364 62.7323 Q735.848 58.0333 735.848 49.9314 Q735.848 41.8701 732.364 37.1711 Q728.881 32.4315 722.926 32.4315 M722.926 26.1121 Q732.648 26.1121 738.198 32.4315 Q743.747 38.7509 743.747 49.9314 Q743.747 61.0714 738.198 67.4314 Q732.648 73.7508 722.926 73.7508 Q713.163 73.7508 707.613 67.4314 Q702.104 61.0714 702.104 49.9314 Q702.104 38.7509 707.613 32.4315 Q713.163 26.1121 722.926 26.1121 Z" fill="#000000" fill-rule="nonzero" fill-opacity="1" /><path clip-path="url(#clip830)" d="M785.026 28.5427 L785.026 35.5912 Q781.866 33.9709 778.464 33.1607 Q775.061 32.3505 771.415 32.3505 Q765.865 32.3505 763.07 34.0519 Q760.316 35.7533 760.316 39.156 Q760.316 41.7486 762.301 43.2475 Q764.286 44.7058 770.281 46.0426 L772.833 46.6097 Q780.773 48.3111 784.094 51.4303 Q787.457 54.509 787.457 60.0587 Q787.457 66.3781 782.434 70.0644 Q777.451 73.7508 768.701 73.7508 Q765.055 73.7508 761.085 73.0216 Q757.156 72.3329 752.781 70.9151 L752.781 63.2184 Q756.913 65.3654 760.923 66.4591 Q764.934 67.5124 768.863 67.5124 Q774.129 67.5124 776.965 65.73 Q779.8 63.9071 779.8 60.6258 Q779.8 57.5877 777.735 55.9673 Q775.709 54.3469 768.782 52.8481 L766.189 52.2405 Q759.262 50.7821 756.184 47.7845 Q753.105 44.7463 753.105 39.4801 Q753.105 33.0797 757.642 29.5959 Q762.179 26.1121 770.524 26.1121 Q774.656 26.1121 778.302 26.7198 Q781.947 27.3274 785.026 28.5427 Z" fill="#000000" fill-rule="nonzero" fill-opacity="1" /><path clip-path="url(#clip830)" d="M799.326 27.2059 L806.78 27.2059 L806.78 72.576 L799.326 72.576 L799.326 27.2059 M799.326 9.54393 L806.78 9.54393 L806.78 18.9825 L799.326 18.9825 L799.326 9.54393 Z" fill="#000000" fill-rule="nonzero" fill-opacity="1" /><path clip-path="url(#clip830)" d="M860.089 45.1919 L860.089 72.576 L852.636 72.576 L852.636 45.4349 Q852.636 38.994 850.124 35.7938 Q847.613 32.5936 842.59 32.5936 Q836.554 32.5936 833.07 36.4419 Q829.586 40.2903 829.586 46.9338 L829.586 72.576 L822.092 72.576 L822.092 27.2059 L829.586 27.2059 L829.586 34.2544 Q832.26 30.163 835.865 28.1376 Q839.511 26.1121 844.25 26.1121 Q852.069 26.1121 856.079 30.9732 Q860.089 35.7938 860.089 45.1919 Z" fill="#000000" fill-rule="nonzero" fill-opacity="1" /><path clip-path="url(#clip830)" d="M913.764 48.0275 L913.764 51.6733 L879.493 51.6733 Q879.979 59.3701 884.111 63.421 Q888.284 67.4314 895.697 67.4314 Q899.991 67.4314 904.001 66.3781 Q908.052 65.3249 912.022 63.2184 L912.022 70.267 Q908.012 71.9684 903.799 72.8596 Q899.586 73.7508 895.251 73.7508 Q884.395 73.7508 878.035 67.4314 Q871.716 61.1119 871.716 50.3365 Q871.716 39.1965 877.711 32.6746 Q883.747 26.1121 893.955 26.1121 Q903.11 26.1121 908.417 32.0264 Q913.764 37.9003 913.764 48.0275 M906.31 45.84 Q906.229 39.7232 902.867 36.0774 Q899.545 32.4315 894.036 32.4315 Q887.798 32.4315 884.03 35.9558 Q880.303 39.4801 879.736 45.8805 L906.31 45.84 Z" fill="#000000" fill-rule="nonzero" fill-opacity="1" /><path clip-path="url(#clip830)" d="M981.292 28.5427 L981.292 35.5912 Q978.133 33.9709 974.73 33.1607 Q971.327 32.3505 967.681 32.3505 Q962.132 32.3505 959.337 34.0519 Q956.582 35.7533 956.582 39.156 Q956.582 41.7486 958.567 43.2475 Q960.552 44.7058 966.547 46.0426 L969.099 46.6097 Q977.039 48.3111 980.361 51.4303 Q983.723 54.509 983.723 60.0587 Q983.723 66.3781 978.7 70.0644 Q973.717 73.7508 964.967 73.7508 Q961.322 73.7508 957.352 73.0216 Q953.422 72.3329 949.047 70.9151 L949.047 63.2184 Q953.179 65.3654 957.19 66.4591 Q961.2 67.5124 965.129 67.5124 Q970.396 67.5124 973.231 65.73 Q976.067 63.9071 976.067 60.6258 Q976.067 57.5877 974.001 55.9673 Q971.975 54.3469 965.048 52.8481 L962.456 52.2405 Q955.529 50.7821 952.45 47.7845 Q949.371 44.7463 949.371 39.4801 Q949.371 33.0797 953.908 29.5959 Q958.445 26.1121 966.79 26.1121 Q970.922 26.1121 974.568 26.7198 Q978.214 27.3274 981.292 28.5427 Z" fill="#000000" fill-rule="nonzero" fill-opacity="1" /><path clip-path="url(#clip830)" d="M995.592 27.2059 L1003.05 27.2059 L1003.05 72.576 L995.592 72.576 L995.592 27.2059 M995.592 9.54393 L1003.05 9.54393 L1003.05 18.9825 L995.592 18.9825 L995.592 9.54393 Z" fill="#000000" fill-rule="nonzero" fill-opacity="1" /><path clip-path="url(#clip830)" d="M1053.97 35.9153 Q1056.76 30.8922 1060.65 28.5022 Q1064.54 26.1121 1069.8 26.1121 Q1076.89 26.1121 1080.74 31.0947 Q1084.59 36.0368 1084.59 45.1919 L1084.59 72.576 L1077.1 72.576 L1077.1 45.4349 Q1077.1 38.913 1074.79 35.7533 Q1072.48 32.5936 1067.74 32.5936 Q1061.95 32.5936 1058.58 36.4419 Q1055.22 40.2903 1055.22 46.9338 L1055.22 72.576 L1047.73 72.576 L1047.73 45.4349 Q1047.73 38.8725 1045.42 35.7533 Q1043.11 32.5936 1038.29 32.5936 Q1032.58 32.5936 1029.21 36.4824 Q1025.85 40.3308 1025.85 46.9338 L1025.85 72.576 L1018.36 72.576 L1018.36 27.2059 L1025.85 27.2059 L1025.85 34.2544 Q1028.4 30.082 1031.97 28.0971 Q1035.53 26.1121 1040.44 26.1121 Q1045.38 26.1121 1048.82 28.6237 Q1052.3 31.1352 1053.97 35.9153 Z" fill="#000000" fill-rule="nonzero" fill-opacity="1" /><path clip-path="url(#clip830)" d="M1099.46 27.2059 L1106.91 27.2059 L1106.91 72.576 L1099.46 72.576 L1099.46 27.2059 M1099.46 9.54393 L1106.91 9.54393 L1106.91 18.9825 L1099.46 18.9825 L1099.46 9.54393 Z" fill="#000000" fill-rule="nonzero" fill-opacity="1" /><path clip-path="url(#clip830)" d="M1122.51 9.54393 L1129.96 9.54393 L1129.96 72.576 L1122.51 72.576 L1122.51 9.54393 Z" fill="#000000" fill-rule="nonzero" fill-opacity="1" /><path clip-path="url(#clip830)" d="M1166.18 49.7694 Q1157.14 49.7694 1153.66 51.8354 Q1150.17 53.9013 1150.17 58.8839 Q1150.17 62.8538 1152.77 65.2034 Q1155.4 67.5124 1159.9 67.5124 Q1166.09 67.5124 1169.82 63.1374 Q1173.59 58.7219 1173.59 51.4303 L1173.59 49.7694 L1166.18 49.7694 M1181.04 46.6907 L1181.04 72.576 L1173.59 72.576 L1173.59 65.6895 Q1171.04 69.8214 1167.23 71.8063 Q1163.42 73.7508 1157.91 73.7508 Q1150.94 73.7508 1146.81 69.8619 Q1142.72 65.9325 1142.72 59.3701 Q1142.72 51.7138 1147.83 47.825 Q1152.97 43.9361 1163.14 43.9361 L1173.59 43.9361 L1173.59 43.2069 Q1173.59 38.0623 1170.19 35.2672 Q1166.82 32.4315 1160.71 32.4315 Q1156.82 32.4315 1153.13 33.3632 Q1149.45 34.295 1146.04 36.1584 L1146.04 29.2718 Q1150.13 27.692 1153.98 26.9223 Q1157.83 26.1121 1161.48 26.1121 Q1171.32 26.1121 1176.18 31.2163 Q1181.04 36.3204 1181.04 46.6907 Z" fill="#000000" fill-rule="nonzero" fill-opacity="1" /><path clip-path="url(#clip830)" d="M1222.69 34.1734 Q1221.43 33.4443 1219.93 33.1202 Q1218.47 32.7556 1216.69 32.7556 Q1210.37 32.7556 1206.97 36.8875 Q1203.61 40.9789 1203.61 48.6757 L1203.61 72.576 L1196.11 72.576 L1196.11 27.2059 L1203.61 27.2059 L1203.61 34.2544 Q1205.96 30.1225 1209.72 28.1376 Q1213.49 26.1121 1218.88 26.1121 Q1219.65 26.1121 1220.58 26.2337 Q1221.51 26.3147 1222.65 26.5172 L1222.69 34.1734 Z" fill="#000000" fill-rule="nonzero" fill-opacity="1" /><path clip-path="url(#clip830)" d="M1230.5 27.2059 L1237.96 27.2059 L1237.96 72.576 L1230.5 72.576 L1230.5 27.2059 M1230.5 9.54393 L1237.96 9.54393 L1237.96 18.9825 L1230.5 18.9825 L1230.5 9.54393 Z" fill="#000000" fill-rule="nonzero" fill-opacity="1" /><path clip-path="url(#clip830)" d="M1260.93 14.324 L1260.93 27.2059 L1276.28 27.2059 L1276.28 32.9987 L1260.93 32.9987 L1260.93 57.6282 Q1260.93 63.1779 1262.43 64.7578 Q1263.96 66.3376 1268.62 66.3376 L1276.28 66.3376 L1276.28 72.576 L1268.62 72.576 Q1259.99 72.576 1256.71 69.3758 Q1253.43 66.1351 1253.43 57.6282 L1253.43 32.9987 L1247.96 32.9987 L1247.96 27.2059 L1253.43 27.2059 L1253.43 14.324 L1260.93 14.324 Z" fill="#000000" fill-rule="nonzero" fill-opacity="1" /><path clip-path="url(#clip830)" d="M1286.08 27.2059 L1293.54 27.2059 L1293.54 72.576 L1286.08 72.576 L1286.08 27.2059 M1286.08 9.54393 L1293.54 9.54393 L1293.54 18.9825 L1286.08 18.9825 L1286.08 9.54393 Z" fill="#000000" fill-rule="nonzero" fill-opacity="1" /><path clip-path="url(#clip830)" d="M1347.94 48.0275 L1347.94 51.6733 L1313.67 51.6733 Q1314.16 59.3701 1318.29 63.421 Q1322.46 67.4314 1329.87 67.4314 Q1334.17 67.4314 1338.18 66.3781 Q1342.23 65.3249 1346.2 63.2184 L1346.2 70.267 Q1342.19 71.9684 1337.97 72.8596 Q1333.76 73.7508 1329.43 73.7508 Q1318.57 73.7508 1312.21 67.4314 Q1305.89 61.1119 1305.89 50.3365 Q1305.89 39.1965 1311.89 32.6746 Q1317.92 26.1121 1328.13 26.1121 Q1337.29 26.1121 1342.59 32.0264 Q1347.94 37.9003 1347.94 48.0275 M1340.49 45.84 Q1340.41 39.7232 1337.04 36.0774 Q1333.72 32.4315 1328.21 32.4315 Q1321.97 32.4315 1318.21 35.9558 Q1314.48 39.4801 1313.91 45.8805 L1340.49 45.84 Z" fill="#000000" fill-rule="nonzero" fill-opacity="1" /><path clip-path="url(#clip830)" d="M1389.1 28.5427 L1389.1 35.5912 Q1385.94 33.9709 1382.53 33.1607 Q1379.13 32.3505 1375.49 32.3505 Q1369.94 32.3505 1367.14 34.0519 Q1364.39 35.7533 1364.39 39.156 Q1364.39 41.7486 1366.37 43.2475 Q1368.36 44.7058 1374.35 46.0426 L1376.9 46.6097 Q1384.84 48.3111 1388.17 51.4303 Q1391.53 54.509 1391.53 60.0587 Q1391.53 66.3781 1386.5 70.0644 Q1381.52 73.7508 1372.77 73.7508 Q1369.13 73.7508 1365.16 73.0216 Q1361.23 72.3329 1356.85 70.9151 L1356.85 63.2184 Q1360.98 65.3654 1364.99 66.4591 Q1369 67.5124 1372.93 67.5124 Q1378.2 67.5124 1381.04 65.73 Q1383.87 63.9071 1383.87 60.6258 Q1383.87 57.5877 1381.81 55.9673 Q1379.78 54.3469 1372.85 52.8481 L1370.26 52.2405 Q1363.33 50.7821 1360.25 47.7845 Q1357.18 44.7463 1357.18 39.4801 Q1357.18 33.0797 1361.71 29.5959 Q1366.25 26.1121 1374.59 26.1121 Q1378.73 26.1121 1382.37 26.7198 Q1386.02 27.3274 1389.1 28.5427 Z" fill="#000000" fill-rule="nonzero" fill-opacity="1" /><path clip-path="url(#clip830)" d="M1462.42 28.9478 L1462.42 35.9153 Q1459.26 34.1734 1456.06 33.3227 Q1452.9 32.4315 1449.66 32.4315 Q1442.41 32.4315 1438.4 37.0496 Q1434.39 41.6271 1434.39 49.9314 Q1434.39 58.2358 1438.4 62.8538 Q1442.41 67.4314 1449.66 67.4314 Q1452.9 67.4314 1456.06 66.5807 Q1459.26 65.6895 1462.42 63.9476 L1462.42 70.8341 Q1459.3 72.2924 1455.94 73.0216 Q1452.62 73.7508 1448.85 73.7508 Q1438.6 73.7508 1432.56 67.3098 Q1426.53 60.8689 1426.53 49.9314 Q1426.53 38.832 1432.6 32.472 Q1438.72 26.1121 1449.33 26.1121 Q1452.78 26.1121 1456.06 26.8413 Q1459.34 27.5299 1462.42 28.9478 Z" fill="#000000" fill-rule="nonzero" fill-opacity="1" /><path clip-path="url(#clip830)" d="M1514.19 48.0275 L1514.19 51.6733 L1479.92 51.6733 Q1480.4 59.3701 1484.54 63.421 Q1488.71 67.4314 1496.12 67.4314 Q1500.42 67.4314 1504.43 66.3781 Q1508.48 65.3249 1512.45 63.2184 L1512.45 70.267 Q1508.44 71.9684 1504.22 72.8596 Q1500.01 73.7508 1495.68 73.7508 Q1484.82 73.7508 1478.46 67.4314 Q1472.14 61.1119 1472.14 50.3365 Q1472.14 39.1965 1478.14 32.6746 Q1484.17 26.1121 1494.38 26.1121 Q1503.54 26.1121 1508.84 32.0264 Q1514.19 37.9003 1514.19 48.0275 M1506.74 45.84 Q1506.65 39.7232 1503.29 36.0774 Q1499.97 32.4315 1494.46 32.4315 Q1488.22 32.4315 1484.46 35.9558 Q1480.73 39.4801 1480.16 45.8805 L1506.74 45.84 Z" fill="#000000" fill-rule="nonzero" fill-opacity="1" /><path clip-path="url(#clip830)" d="M1526.42 9.54393 L1533.88 9.54393 L1533.88 72.576 L1526.42 72.576 L1526.42 9.54393 Z" fill="#000000" fill-rule="nonzero" fill-opacity="1" /><path clip-path="url(#clip830)" d="M1549.47 9.54393 L1556.93 9.54393 L1556.93 72.576 L1549.47 72.576 L1549.47 9.54393 Z" fill="#000000" fill-rule="nonzero" fill-opacity="1" /><path clip-path="url(#clip830)" d="M1624.74 39.9662 Q1630.61 41.222 1633.89 45.1919 Q1637.21 49.1618 1637.21 54.9951 Q1637.21 63.9476 1631.06 68.8492 Q1624.9 73.7508 1613.56 73.7508 Q1609.75 73.7508 1605.7 72.9811 Q1601.69 72.2519 1597.39 70.7531 L1597.39 62.8538 Q1600.8 64.8388 1604.85 65.8515 Q1608.9 66.8642 1613.31 66.8642 Q1621.01 66.8642 1625.02 63.826 Q1629.07 60.7879 1629.07 54.9951 Q1629.07 49.6479 1625.31 46.6502 Q1621.58 43.612 1614.89 43.612 L1607.85 43.612 L1607.85 36.8875 L1615.22 36.8875 Q1621.25 36.8875 1624.45 34.4975 Q1627.65 32.067 1627.65 27.5299 Q1627.65 22.8714 1624.33 20.4004 Q1621.05 17.8888 1614.89 17.8888 Q1611.53 17.8888 1607.68 18.618 Q1603.84 19.3471 1599.22 20.8865 L1599.22 13.5948 Q1603.88 12.2985 1607.93 11.6504 Q1612.02 11.0023 1615.62 11.0023 Q1624.94 11.0023 1630.37 15.2557 Q1635.8 19.4686 1635.8 26.6793 Q1635.8 31.7024 1632.92 35.1862 Q1630.04 38.6294 1624.74 39.9662 Z" fill="#000000" fill-rule="nonzero" fill-opacity="1" /><path clip-path="url(#clip830)" d="M1652.81 12.096 L1684.93 12.096 L1684.93 18.9825 L1660.31 18.9825 L1660.31 33.8088 Q1662.09 33.2012 1663.87 32.9176 Q1665.65 32.5936 1667.43 32.5936 Q1677.56 32.5936 1683.48 38.1433 Q1689.39 43.6931 1689.39 53.1722 Q1689.39 62.9348 1683.31 68.3631 Q1677.24 73.7508 1666.18 73.7508 Q1662.37 73.7508 1658.4 73.1026 Q1654.47 72.4545 1650.26 71.1582 L1650.26 62.9348 Q1653.9 64.9198 1657.79 65.892 Q1661.68 66.8642 1666.02 66.8642 Q1673.02 66.8642 1677.12 63.1779 Q1681.21 59.4916 1681.21 53.1722 Q1681.21 46.8528 1677.12 43.1664 Q1673.02 39.4801 1666.02 39.4801 Q1662.74 39.4801 1659.45 40.2093 Q1656.21 40.9384 1652.81 42.4778 L1652.81 12.096 Z" fill="#000000" fill-rule="nonzero" fill-opacity="1" /><path clip-path="url(#clip830)" d="M1706.93 65.6895 L1720.3 65.6895 L1720.3 19.5497 L1705.76 22.4663 L1705.76 15.0127 L1720.22 12.096 L1728.4 12.096 L1728.4 65.6895 L1741.77 65.6895 L1741.77 72.576 L1706.93 72.576 L1706.93 65.6895 Z" fill="#000000" fill-rule="nonzero" fill-opacity="1" /><path clip-path="url(#clip830)" d="M1783.61 27.2059 L1791.07 27.2059 L1791.07 72.576 L1783.61 72.576 L1783.61 27.2059 M1783.61 9.54393 L1791.07 9.54393 L1791.07 18.9825 L1783.61 18.9825 L1783.61 9.54393 Z" fill="#000000" fill-rule="nonzero" fill-opacity="1" /><path clip-path="url(#clip830)" d="M1814.04 14.324 L1814.04 27.2059 L1829.39 27.2059 L1829.39 32.9987 L1814.04 32.9987 L1814.04 57.6282 Q1814.04 63.1779 1815.54 64.7578 Q1817.08 66.3376 1821.73 66.3376 L1829.39 66.3376 L1829.39 72.576 L1821.73 72.576 Q1813.11 72.576 1809.82 69.3758 Q1806.54 66.1351 1806.54 57.6282 L1806.54 32.9987 L1801.07 32.9987 L1801.07 27.2059 L1806.54 27.2059 L1806.54 14.324 L1814.04 14.324 Z" fill="#000000" fill-rule="nonzero" fill-opacity="1" /><path clip-path="url(#clip830)" d="M1878 48.0275 L1878 51.6733 L1843.73 51.6733 Q1844.22 59.3701 1848.35 63.421 Q1852.52 67.4314 1859.93 67.4314 Q1864.23 67.4314 1868.24 66.3781 Q1872.29 65.3249 1876.26 63.2184 L1876.26 70.267 Q1872.25 71.9684 1868.04 72.8596 Q1863.82 73.7508 1859.49 73.7508 Q1848.63 73.7508 1842.27 67.4314 Q1835.95 61.1119 1835.95 50.3365 Q1835.95 39.1965 1841.95 32.6746 Q1847.98 26.1121 1858.19 26.1121 Q1867.35 26.1121 1872.65 32.0264 Q1878 37.9003 1878 48.0275 M1870.55 45.84 Q1870.47 39.7232 1867.1 36.0774 Q1863.78 32.4315 1858.27 32.4315 Q1852.03 32.4315 1848.27 35.9558 Q1844.54 39.4801 1843.97 45.8805 L1870.55 45.84 Z" fill="#000000" fill-rule="nonzero" fill-opacity="1" /><path clip-path="url(#clip830)" d="M1916.52 34.1734 Q1915.27 33.4443 1913.77 33.1202 Q1912.31 32.7556 1910.53 32.7556 Q1904.21 32.7556 1900.81 36.8875 Q1897.44 40.9789 1897.44 48.6757 L1897.44 72.576 L1889.95 72.576 L1889.95 27.2059 L1897.44 27.2059 L1897.44 34.2544 Q1899.79 30.1225 1903.56 28.1376 Q1907.33 26.1121 1912.72 26.1121 Q1913.49 26.1121 1914.42 26.2337 Q1915.35 26.3147 1916.48 26.5172 L1916.52 34.1734 Z" fill="#000000" fill-rule="nonzero" fill-opacity="1" /><path clip-path="url(#clip830)" d="M1944.96 49.7694 Q1935.93 49.7694 1932.44 51.8354 Q1928.96 53.9013 1928.96 58.8839 Q1928.96 62.8538 1931.55 65.2034 Q1934.19 67.5124 1938.68 67.5124 Q1944.88 67.5124 1948.61 63.1374 Q1952.38 58.7219 1952.38 51.4303 L1952.38 49.7694 L1944.96 49.7694 M1959.83 46.6907 L1959.83 72.576 L1952.38 72.576 L1952.38 65.6895 Q1949.82 69.8214 1946.02 71.8063 Q1942.21 73.7508 1936.7 73.7508 Q1929.73 73.7508 1925.6 69.8619 Q1921.51 65.9325 1921.51 59.3701 Q1921.51 51.7138 1926.61 47.825 Q1931.76 43.9361 1941.92 43.9361 L1952.38 43.9361 L1952.38 43.2069 Q1952.38 38.0623 1948.97 35.2672 Q1945.61 32.4315 1939.49 32.4315 Q1935.6 32.4315 1931.92 33.3632 Q1928.23 34.295 1924.83 36.1584 L1924.83 29.2718 Q1928.92 27.692 1932.77 26.9223 Q1936.62 26.1121 1940.26 26.1121 Q1950.11 26.1121 1954.97 31.2163 Q1959.83 36.3204 1959.83 46.6907 Z" fill="#000000" fill-rule="nonzero" fill-opacity="1" /><path clip-path="url(#clip830)" d="M1982.55 14.324 L1982.55 27.2059 L1997.91 27.2059 L1997.91 32.9987 L1982.55 32.9987 L1982.55 57.6282 Q1982.55 63.1779 1984.05 64.7578 Q1985.59 66.3376 1990.25 66.3376 L1997.91 66.3376 L1997.91 72.576 L1990.25 72.576 Q1981.62 72.576 1978.34 69.3758 Q1975.06 66.1351 1975.06 57.6282 L1975.06 32.9987 L1969.59 32.9987 L1969.59 27.2059 L1975.06 27.2059 L1975.06 14.324 L1982.55 14.324 Z" fill="#000000" fill-rule="nonzero" fill-opacity="1" /><path clip-path="url(#clip830)" d="M2007.71 27.2059 L2015.16 27.2059 L2015.16 72.576 L2007.71 72.576 L2007.71 27.2059 M2007.71 9.54393 L2015.16 9.54393 L2015.16 18.9825 L2007.71 18.9825 L2007.71 9.54393 Z" fill="#000000" fill-rule="nonzero" fill-opacity="1" /><path clip-path="url(#clip830)" d="M2048.34 32.4315 Q2042.35 32.4315 2038.86 37.1306 Q2035.38 41.7891 2035.38 49.9314 Q2035.38 58.0738 2038.82 62.7728 Q2042.31 67.4314 2048.34 67.4314 Q2054.3 67.4314 2057.78 62.7323 Q2061.26 58.0333 2061.26 49.9314 Q2061.26 41.8701 2057.78 37.1711 Q2054.3 32.4315 2048.34 32.4315 M2048.34 26.1121 Q2058.06 26.1121 2063.61 32.4315 Q2069.16 38.7509 2069.16 49.9314 Q2069.16 61.0714 2063.61 67.4314 Q2058.06 73.7508 2048.34 73.7508 Q2038.58 73.7508 2033.03 67.4314 Q2027.52 61.0714 2027.52 49.9314 Q2027.52 38.7509 2033.03 32.4315 Q2038.58 26.1121 2048.34 26.1121 Z" fill="#000000" fill-rule="nonzero" fill-opacity="1" /><path clip-path="url(#clip830)" d="M2119.23 45.1919 L2119.23 72.576 L2111.78 72.576 L2111.78 45.4349 Q2111.78 38.994 2109.27 35.7938 Q2106.76 32.5936 2101.73 32.5936 Q2095.7 32.5936 2092.21 36.4419 Q2088.73 40.2903 2088.73 46.9338 L2088.73 72.576 L2081.23 72.576 L2081.23 27.2059 L2088.73 27.2059 L2088.73 34.2544 Q2091.4 30.163 2095.01 28.1376 Q2098.65 26.1121 2103.39 26.1121 Q2111.21 26.1121 2115.22 30.9732 Q2119.23 35.7938 2119.23 45.1919 Z" fill="#000000" fill-rule="nonzero" fill-opacity="1" /><path clip-path="url(#clip830)" d="M2168.57 65.6895 L2197.13 65.6895 L2197.13 72.576 L2158.73 72.576 L2158.73 65.6895 Q2163.39 60.8689 2171.41 52.7671 Q2179.47 44.6248 2181.53 42.2752 Q2185.46 37.8598 2187 34.8216 Q2188.58 31.7429 2188.58 28.7857 Q2188.58 23.9651 2185.18 20.927 Q2181.82 17.8888 2176.39 17.8888 Q2172.54 17.8888 2168.25 19.2256 Q2163.99 20.5624 2159.13 23.2765 L2159.13 15.0127 Q2164.08 13.0277 2168.37 12.015 Q2172.66 11.0023 2176.23 11.0023 Q2185.63 11.0023 2191.22 15.7013 Q2196.81 20.4004 2196.81 28.2591 Q2196.81 31.9859 2195.39 35.3482 Q2194.01 38.6699 2190.33 43.2069 Q2189.31 44.3817 2183.88 50.0125 Q2178.46 55.6027 2168.57 65.6895 Z" fill="#000000" fill-rule="nonzero" fill-opacity="1" /><path clip-path="url(#clip830)" d="M2231.81 17.4837 Q2225.49 17.4837 2222.29 23.7221 Q2219.13 29.92 2219.13 42.3968 Q2219.13 54.833 2222.29 61.0714 Q2225.49 67.2693 2231.81 67.2693 Q2238.17 67.2693 2241.33 61.0714 Q2244.53 54.833 2244.53 42.3968 Q2244.53 29.92 2241.33 23.7221 Q2238.17 17.4837 2231.81 17.4837 M2231.81 11.0023 Q2241.97 11.0023 2247.32 19.0636 Q2252.71 27.0843 2252.71 42.3968 Q2252.71 57.6687 2247.32 65.73 Q2241.97 73.7508 2231.81 73.7508 Q2221.64 73.7508 2216.25 65.73 Q2210.9 57.6687 2210.9 42.3968 Q2210.9 27.0843 2216.25 19.0636 Q2221.64 11.0023 2231.81 11.0023 Z" fill="#000000" fill-rule="nonzero" fill-opacity="1" /><polyline clip-path="url(#clip832)" style="stroke:#009af9; stroke-linecap:round; stroke-linejoin:round; stroke-width:4; stroke-opacity:1; fill:none" points="316.512,1386.4 318.491,1355.58 320.47,1350.07 322.449,1323.58 324.428,1314.85 326.407,1304.17 328.386,1290.38 330.365,1289.25 332.343,1283.68 334.322,1283.03 336.301,1281.97 338.28,1280.43 340.259,1276.56 342.238,1273.14 344.217,1273 346.196,1270.37 348.175,1270.31 350.154,1268.68 352.133,1267.52 354.111,1263.42 356.09,1262.31 358.069,1261.56 360.048,1258.66 362.027,1255.51 364.006,1253.58 365.985,1252.28 367.964,1249.95 369.943,1241.66 371.922,1241.01 373.901,1240.31 375.88,1239.39 377.858,1238.39 379.837,1237.79 381.816,1237.61 383.795,1236.55 385.774,1236.42 387.753,1234.01 389.732,1233.68 391.711,1233.18 393.69,1231.39 395.669,1230.57 397.648,1230.32 399.627,1229.28 401.605,1228.38 403.584,1227.7 405.563,1227.53 407.542,1226.3 409.521,1224.76 411.5,1224.4 413.479,1223.98 415.458,1222.26 417.437,1222.26 419.416,1221.98 421.395,1221.29 423.373,1219.86 425.352,1219 427.331,1217.86 429.31,1216.74 431.289,1216.41 433.268,1215.63 435.247,1214.53 437.226,1214.37 439.205,1212.6 441.184,1211.33 443.163,1209.33 445.142,1209.01 447.12,1208.97 449.099,1208.48 451.078,1208.42 453.057,1208.1 455.036,1206.92 457.015,1206.63 458.994,1205.54 460.973,1205.31 462.952,1205.21 464.931,1203.37 466.91,1203.21 468.889,1202.52 470.867,1202.46 472.846,1202.31 474.825,1202.23 476.804,1201.99 478.783,1200.62 480.762,1199.86 482.741,1198.32 484.72,1197.62 486.699,1197.47 488.678,1196.54 490.657,1196 492.636,1195.95 494.614,1195.68 496.593,1195.31 498.572,1195 500.551,1194.55 502.53,1194.26 504.509,1193.55 506.488,1192.14 508.467,1192.13 510.446,1191.81 512.425,1190.48 514.404,1190.39 516.382,1190.26 518.361,1190.16 520.34,1189.73 522.319,1189.57 524.298,1189.06 526.277,1188.5 528.256,1187.48 530.235,1187.35 532.214,1185.74 534.193,1185.32 536.172,1185.24 538.151,1185.01 540.129,1184.69 542.108,1184.58 544.087,1184.48 546.066,1184.18 548.045,1184.05 550.024,1183.63 552.003,1183.36 553.982,1183.3 555.961,1182.87 557.94,1182.78 559.919,1182.51 561.898,1182.16 563.876,1182.13 565.855,1182.05 567.834,1181.42 569.813,1179.76 571.792,1179.29 573.771,1179.21 575.75,1178.82 577.729,1178.46 579.708,1178.22 581.687,1177.93 583.666,1177.15 585.644,1176.45 587.623,1176.31 589.602,1175.97 591.581,1174.9 593.56,1174.78 595.539,1174.6 597.518,1174.52 599.497,1174.31 601.476,1174.06 603.455,1173.39 605.434,1172.44 607.413,1172.28 609.391,1171.95 611.37,1170.38 613.349,1170.26 615.328,1170.17 617.307,1169.61 619.286,1167.63 621.265,1167.44 623.244,1167.42 625.223,1167.38 627.202,1166.57 629.181,1166.27 631.16,1166.2 633.138,1166.09 635.117,1165.62 637.096,1165.53 639.075,1164.72 641.054,1164.01 643.033,1163.53 645.012,1163.38 646.991,1163.28 648.97,1163.12 650.949,1162.62 652.928,1161.59 654.907,1161.58 656.885,1160.64 658.864,1160.63 660.843,1160.23 662.822,1160.1 664.801,1159.13 666.78,1158.71 668.759,1157.82 670.738,1157.25 672.717,1156.33 674.696,1156.28 676.675,1155.57 678.653,1155.11 680.632,1155.11 682.611,1154.55 684.59,1153.68 686.569,1153.13 688.548,1152.76 690.527,1151.33 692.506,1151.18 694.485,1150.77 696.464,1148.84 698.443,1148.78 700.422,1147.65 702.4,1147.3 704.379,1147.13 706.358,1145.32 708.337,1144.84 710.316,1144.28 712.295,1142.97 714.274,1142.95 716.253,1142.4 718.232,1142.08 720.211,1140.89 722.19,1139.37 724.169,1139.13 726.147,1138.93 728.126,1138.43 730.105,1137.23 732.084,1136.42 734.063,1135.81 736.042,1135.5 738.021,1135.4 740,1133.53 741.979,1132.61 743.958,1130.59 745.937,1130.52 747.915,1130.23 749.894,1123.57 751.873,1123.53 753.852,1122.36 755.831,1121.4 757.81,1119.39 759.789,1118.77 761.768,1117.24 763.747,1116.85 765.726,1116.23 767.705,1113.39 769.684,1112.7 771.662,1112.13 773.641,1107.87 775.62,1107.55 777.599,1106.76 779.578,1106 781.557,1103.36 783.536,1102.88 785.515,1102.39 787.494,1102.05 789.473,1101.07 791.452,1100.82 793.431,1099.05 795.409,1097.95 797.388,1097.56 799.367,1096.58 801.346,1096.12 803.325,1094.76 805.304,1093.94 807.283,1091.98 809.262,1087.04 811.241,1085.31 813.22,1081.36 815.199,1080.9 817.178,1079.76 819.156,1079.57 821.135,1073.93 823.114,1073.01 825.093,1071.35 827.072,1070.95 829.051,1065.78 831.03,1064.54 833.009,1063.36 834.988,1063.07 836.967,1062.04 838.946,1061.71 840.924,1061.38 842.903,1059.92 844.882,1059.89 846.861,1057.86 848.84,1054.55 850.819,1050.72 852.798,1048.81 854.777,1047.03 856.756,1045.33 858.735,1042.33 860.714,1042.15 862.693,1039.38 864.671,1039.38 866.65,1036.76 868.629,1035.77 870.608,1034.85 872.587,1034.61 874.566,1032.95 876.545,1032 878.524,1030.51 880.503,1029.6 882.482,1026.62 884.461,1024.62 886.44,1024.32 888.418,1023.9 890.397,1022.99 892.376,1022.45 894.355,1021.66 896.334,1020.43 898.313,1018.85 900.292,1018 902.271,1017.95 904.25,1017.88 906.229,1017.43 908.208,1016.81 910.186,1016.35 912.165,1014.34 914.144,1014.25 916.123,1011.45 918.102,1008.71 920.081,1008.61 922.06,1006.5 924.039,1006.36 926.018,1004.62 927.997,1004.16 929.976,1000.71 931.955,999.537 933.933,997.344 935.912,997.02 937.891,995.781 939.87,995.464 941.849,995.05 943.828,994.177 945.807,994.031 947.786,993.919 949.765,993.073 951.744,991.495 953.723,990.946 955.702,989.861 957.68,989.841 959.659,988.218 961.638,987.617 963.617,987.144 965.596,986.839 967.575,985.112 969.554,984.837 971.533,984.708 973.512,984 975.491,983.532 977.47,982.468 979.449,982.113 981.427,979.992 983.406,977.86 985.385,977.387 987.364,973.759 989.343,973.037 991.322,972.487 993.301,972.299 995.28,972.099 997.259,972.013 999.238,970.221 1001.22,969.909 1003.2,969.21 1005.17,966.275 1007.15,965.896 1009.13,965.747 1011.11,964.096 1013.09,963.459 1015.07,961.059 1017.05,960.997 1019.03,960.069 1021.01,959.68 1022.98,958.228 1024.96,958.185 1026.94,956.738 1028.92,954.152 1030.9,954.149 1032.88,954.087 1034.86,952.144 1036.84,950.481 1038.82,950.069 1040.79,948.906 1042.77,948.759 1044.75,947.349 1046.73,947.149 1048.71,946.232 1050.69,945.191 1052.67,944.813 1054.65,943.58 1056.63,943.21 1058.61,942.633 1060.58,940.903 1062.56,938.697 1064.54,937.547 1066.52,936.743 1068.5,935.366 1070.48,935.308 1072.46,935.051 1074.44,934.002 1076.42,933.653 1078.39,932.022 1080.37,930.484 1082.35,928.842 1084.33,924.959 1086.31,922.329 1088.29,922.298 1090.27,921.956 1092.25,921.666 1094.23,920.06 1096.2,919.813 1098.18,919.58 1100.16,918.432 1102.14,917.847 1104.12,915.695 1106.1,915.322 1108.08,915.246 1110.06,915.037 1112.04,914.995 1114.01,914.168 1115.99,913.573 1117.97,913.306 1119.95,913.232 1121.93,912.502 1123.91,912.501 1125.89,911.536 1127.87,908.911 1129.85,908.033 1131.82,907.951 1133.8,907.428 1135.78,906.317 1137.76,905.953 1139.74,902.561 1141.72,899.89 1143.7,899.744 1145.68,899.567 1147.66,899.386 1149.64,898.953 1151.61,898.243 1153.59,896.506 1155.57,891.341 1157.55,890.337 1159.53,888.87 1161.51,887.729 1163.49,887.543 1165.47,885.394 1167.45,884.979 1169.42,884.772 1171.4,884.108 1173.38,883.763 1175.36,883.004 1177.34,880.702 1179.32,879.779 1181.3,877.875 1183.28,877.175 1185.26,875.514 1187.23,874.695 1189.21,873.7 1191.19,872.545 1193.17,872.442 1195.15,872.12 1197.13,870.39 1199.11,869.63 1201.09,868.755 1203.07,868.607 1205.04,865.3 1207.02,864.19 1209,863.744 1210.98,863.569 1212.96,863.425 1214.94,861.628 1216.92,861.067 1218.9,858.283 1220.88,856.785 1222.86,854.346 1224.83,854.011 1226.81,853.31 1228.79,851.68 1230.77,849.386 1232.75,848.028 1234.73,847.95 1236.71,846.227 1238.69,845.944 1240.67,836.537 1242.64,836.25 1244.62,836.243 1246.6,833.675 1248.58,833.006 1250.56,830.982 1252.54,826.445 1254.52,825.272 1256.5,824.177 1258.48,822.257 1260.45,821.927 1262.43,821.867 1264.41,821.602 1266.39,821.531 1268.37,820.877 1270.35,819.964 1272.33,819.859 1274.31,819.855 1276.29,819.346 1278.26,818.685 1280.24,817.705 1282.22,816.86 1284.2,816.482 1286.18,814.281 1288.16,810.786 1290.14,809.952 1292.12,809.173 1294.1,808.836 1296.07,799.578 1298.05,798.645 1300.03,795.826 1302.01,793.721 1303.99,792.829 1305.97,791.44 1307.95,788.908 1309.93,787.985 1311.91,787.543 1313.89,787.533 1315.86,786.95 1317.84,786.431 1319.82,786.229 1321.8,785.512 1323.78,785.238 1325.76,782.147 1327.74,780.539 1329.72,780.515 1331.7,780.02 1333.67,779.963 1335.65,779.962 1337.63,778.55 1339.61,778.04 1341.59,777.935 1343.57,775.341 1345.55,775.079 1347.53,773.07 1349.51,772.785 1351.48,772.163 1353.46,771.853 1355.44,771.768 1357.42,769.929 1359.4,765.907 1361.38,765.251 1363.36,764.727 1365.34,764.335 1367.32,763.294 1369.29,762.782 1371.27,762.031 1373.25,761.786 1375.23,760.773 1377.21,758.068 1379.19,755.695 1381.17,755.354 1383.15,754.134 1385.13,752.551 1387.1,751.451 1389.08,748.813 1391.06,748.377 1393.04,746.851 1395.02,745.312 1397,738.782 1398.98,737.992 1400.96,737.583 1402.94,737.316 1404.92,737.31 1406.89,736.453 1408.87,735.086 1410.85,734.516 1412.83,731.468 1414.81,730.459 1416.79,730.329 1418.77,727.487 1420.75,724.588 1422.73,723.161 1424.7,720.127 1426.68,719.35 1428.66,716.53 1430.64,716.294 1432.62,710.604 1434.6,709.313 1436.58,708.566 1438.56,708.238 1440.54,707.703 1442.51,706.873 1444.49,706.58 1446.47,706.499 1448.45,706.368 1450.43,706.086 1452.41,704.652 1454.39,703.97 1456.37,702.473 1458.35,699.712 1460.32,699.299 1462.3,697.978 1464.28,693.885 1466.26,693.485 1468.24,693.143 1470.22,691.924 1472.2,689.499 1474.18,688.432 1476.16,687.873 1478.13,684.033 1480.11,682.296 1482.09,681.331 1484.07,680.427 1486.05,679.53 1488.03,679.283 1490.01,679.213 1491.99,678.818 1493.97,678.545 1495.95,678.029 1497.92,673.86 1499.9,672.805 1501.88,671.202 1503.86,670.346 1505.84,670.087 1507.82,669.981 1509.8,669.104 1511.78,667.633 1513.76,666.094 1515.73,665.787 1517.71,663.664 1519.69,661.185 1521.67,660.07 1523.65,656.658 1525.63,655.177 1527.61,655.166 1529.59,654.176 1531.57,653.316 1533.54,651.824 1535.52,651.413 1537.5,651.216 1539.48,650.751 1541.46,648.23 1543.44,647.697 1545.42,645.4 1547.4,644.468 1549.38,644.444 1551.35,643.973 1553.33,643.638 1555.31,641.089 1557.29,640.428 1559.27,639.393 1561.25,639.227 1563.23,638.331 1565.21,629.839 1567.19,627.791 1569.17,626.384 1571.14,625.857 1573.12,624.895 1575.1,624.883 1577.08,624.84 1579.06,624.367 1581.04,623.626 1583.02,622.267 1585,621.802 1586.98,621.427 1588.95,618.714 1590.93,617.155 1592.91,615.983 1594.89,614.917 1596.87,614.512 1598.85,613.876 1600.83,612.344 1602.81,609.171 1604.79,606.588 1606.76,606.274 1608.74,604.996 1610.72,604.976 1612.7,604.595 1614.68,604.032 1616.66,604.011 1618.64,603.838 1620.62,603.554 1622.6,603.511 1624.57,603.076 1626.55,603.041 1628.53,598.578 1630.51,598.217 1632.49,597.582 1634.47,597.342 1636.45,596.242 1638.43,595.333 1640.41,594.891 1642.38,592.395 1644.36,591.825 1646.34,591.377 1648.32,590.383 1650.3,590.097 1652.28,588.298 1654.26,587.974 1656.24,586.921 1658.22,586.311 1660.2,584.865 1662.17,582.192 1664.15,580.853 1666.13,579.861 1668.11,578.164 1670.09,576.898 1672.07,574.364 1674.05,573.964 1676.03,573.236 1678.01,570.771 1679.98,567.93 1681.96,564.492 1683.94,562.877 1685.92,561.702 1687.9,559.829 1689.88,559.29 1691.86,558.303 1693.84,555.348 1695.82,554.97 1697.79,554.785 1699.77,552.987 1701.75,552.332 1703.73,551.408 1705.71,547.69 1707.69,547.579 1709.67,547.479 1711.65,547.083 1713.63,545.585 1715.6,545.428 1717.58,544.236 1719.56,543.477 1721.54,543.356 1723.52,542.381 1725.5,540.714 1727.48,538.297 1729.46,537.444 1731.44,537.048 1733.41,536.52 1735.39,535.815 1737.37,535.252 1739.35,535.226 1741.33,532.106 1743.31,531.57 1745.29,529.097 1747.27,526.774 1749.25,525.17 1751.23,524.458 1753.2,519.877 1755.18,517.039 1757.16,514.948 1759.14,510.368 1761.12,507.983 1763.1,507.752 1765.08,506.556 1767.06,496.44 1769.04,495.661 1771.01,493.802 1772.99,493.74 1774.97,491.588 1776.95,491.14 1778.93,487.688 1780.91,487.323 1782.89,486.002 1784.87,482.683 1786.85,478.887 1788.82,461.225 1790.8,456.484 1792.78,455.091 1794.76,430.733 1796.74,415.399 1798.72,396.445 1800.7,365.064 1802.68,359.932 1804.66,359.632 1806.63,359.58 1808.61,344.386 1810.59,339.689 1812.57,339.334 1814.55,334.918 1816.53,329.42 1818.51,324.817 1820.49,324.593 1822.47,323.488 1824.45,323.377 1826.42,305.601 1828.4,300.922 1830.38,297.469 1832.36,291.587 1834.34,287.428 1836.32,286.35 1838.3,281.622 1840.28,281.038 1842.26,279.629 1844.23,279.16 1846.21,278.389 1848.19,278.123 1850.17,276.606 1852.15,274.386 1854.13,274.38 1856.11,271.396 1858.09,270.555 1860.07,266.974 1862.04,266.649 1864.02,266.435 1866,266.346 1867.98,266.316 1869.96,265.756 1871.94,263.395 1873.92,261.14 1875.9,260.331 1877.88,256.409 1879.85,253.901 1881.83,253.538 1883.81,253.233 1885.79,251.73 1887.77,250.362 1889.75,249.16 1891.73,248.943 1893.71,247.948 1895.69,245.688 1897.66,241.984 1899.64,241.486 1901.62,240.913 1903.6,237.445 1905.58,236.313 1907.56,236.148 1909.54,232.704 1911.52,232.516 1913.5,231.975 1915.48,230.446 1917.45,229.648 1919.43,228.69 1921.41,227.904 1923.39,226.28 1925.37,221.794 1927.35,220.834 1929.33,220.371 1931.31,219.753 1933.29,219.227 1935.26,219.07 1937.24,218.666 1939.22,217.153 1941.2,216.858 1943.18,215.549 1945.16,215.199 1947.14,214.934 1949.12,214.466 1951.1,214.449 1953.07,214.056 1955.05,211.42 1957.03,210.545 1959.01,210.463 1960.99,209.866 1962.97,208.783 1964.95,208.45 1966.93,207.418 1968.91,207.155 1970.88,206.84 1972.86,206.307 1974.84,205.623 1976.82,205.276 1978.8,205.197 1980.78,205.178 1982.76,204.675 1984.74,204.336 1986.72,203.599 1988.69,203.052 1990.67,202.743 1992.65,201.831 1994.63,201.746 1996.61,201.709 1998.59,201.317 2000.57,201.296 2002.55,201.148 2004.53,200.302 2006.51,199.703 2008.48,199.414 2010.46,199.201 2012.44,197.72 2014.42,197.119 2016.4,196.946 2018.38,196.836 2020.36,196.722 2022.34,196.203 2024.32,195.34 2026.29,194.454 2028.27,194.01 2030.25,193.81 2032.23,193.224 2034.21,193.156 2036.19,193.154 2038.17,192.997 2040.15,192.525 2042.13,192.443 2044.1,192.228 2046.08,191.811 2048.06,191.531 2050.04,190.231 2052.02,190.197 2054,190.079 2055.98,188.227 2057.96,187.783 2059.94,187.742 2061.91,185.782 2063.89,185.734 2065.87,184.558 2067.85,183.708 2069.83,183.394 2071.81,183.38 2073.79,183.169 2075.77,183.087 2077.75,182.563 2079.73,182.377 2081.7,182.101 2083.68,182.083 2085.66,181.742 2087.64,181.365 2089.62,181.188 2091.6,180.947 2093.58,180.788 2095.56,180.787 2097.54,180.43 2099.51,180.344 2101.49,180.295 2103.47,180.272 2105.45,180.083 2107.43,179.96 2109.41,179.901 2111.39,178.945 2113.37,178.931 2115.35,178.885 2117.32,178.822 2119.3,178.519 2121.28,178.26 2123.26,178.034 2125.24,177.533 2127.22,176.968 2129.2,176.709 2131.18,176.46 2133.16,176.457 2135.13,176.335 2137.11,176.082 2139.09,175.742 2141.07,175.213 2143.05,175.165 2145.03,174.82 2147.01,174.618 2148.99,174.342 2150.97,173.973 2152.94,173.701 2154.92,173.136 2156.9,172.333 2158.88,171.846 2160.86,171.652 2162.84,171.245 2164.82,171.21 2166.8,171.073 2168.78,170.838 2170.76,170.712 2172.73,170.606 2174.71,170.534 2176.69,170.44 2178.67,170.44 2180.65,170.277 2182.63,170.198 2184.61,170.192 2186.59,169.836 2188.57,169.301 2190.54,169.261 2192.52,169.044 2194.5,168.947 2196.48,168.918 2198.46,168.885 2200.44,168.784 2202.42,168.719 2204.4,168.574 2206.38,168.437 2208.35,168.366 2210.33,168.175 2212.31,168.136 2214.29,167.999 2216.27,167.822 2218.25,167.71 2220.23,167.671 2222.21,167.472 2224.19,167.244 2226.16,167.224 2228.14,167.08 2230.12,166.777 2232.1,166.761 2234.08,166.705 2236.06,166.659 2238.04,166.592 2240.02,166.194 2242,166.12 2243.97,165.502 2245.95,165.391 2247.93,165.075 2249.91,165.064 2251.89,165.02 2253.87,164.981 2255.85,164.917 2257.83,164.856 2259.81,164.621 2261.79,163.842 2263.76,163.693 2265.74,163.26 2267.72,163.082 2269.7,163.064 2271.68,162.62 2273.66,162.436 2275.64,162.43 2277.62,162.224 2279.6,162.21 2281.57,161.992 2283.55,161.967 2285.53,161.799 2287.51,161.68 2289.49,161.441 2291.47,160.846 2293.45,160.256 "/>
<path clip-path="url(#clip830)" d="M327.056 270.476 L756.216 270.476 L756.216 166.796 L327.056 166.796  Z" fill="#ffffff" fill-rule="evenodd" fill-opacity="1"/>
<polyline clip-path="url(#clip830)" style="stroke:#000000; stroke-linecap:round; stroke-linejoin:round; stroke-width:4; stroke-opacity:1; fill:none" points="327.056,270.476 756.216,270.476 756.216,166.796 327.056,166.796 327.056,270.476 "/>
<polyline clip-path="url(#clip830)" style="stroke:#009af9; stroke-linecap:round; stroke-linejoin:round; stroke-width:4; stroke-opacity:1; fill:none" points="350.34,218.636 490.043,218.636 "/>
<path clip-path="url(#clip830)" d="M535.572 202.49 L535.572 207.05 Q532.91 205.777 530.549 205.152 Q528.188 204.527 525.989 204.527 Q522.17 204.527 520.086 206.008 Q518.026 207.49 518.026 210.221 Q518.026 212.513 519.392 213.694 Q520.781 214.851 524.623 215.569 L527.447 216.147 Q532.679 217.143 535.156 219.666 Q537.656 222.166 537.656 226.379 Q537.656 231.402 534.276 233.994 Q530.92 236.587 524.415 236.587 Q521.961 236.587 519.183 236.031 Q516.429 235.476 513.466 234.388 L513.466 229.573 Q516.313 231.17 519.045 231.981 Q521.776 232.791 524.415 232.791 Q528.42 232.791 530.595 231.217 Q532.771 229.643 532.771 226.726 Q532.771 224.18 531.197 222.744 Q529.646 221.309 526.082 220.592 L523.234 220.036 Q518.003 218.995 515.665 216.772 Q513.327 214.55 513.327 210.592 Q513.327 206.008 516.545 203.37 Q519.785 200.731 525.457 200.731 Q527.887 200.731 530.41 201.171 Q532.933 201.61 535.572 202.49 Z" fill="#000000" fill-rule="nonzero" fill-opacity="1" /><path clip-path="url(#clip830)" d="M544.762 209.99 L549.021 209.99 L549.021 235.916 L544.762 235.916 L544.762 209.99 M544.762 199.897 L549.021 199.897 L549.021 205.291 L544.762 205.291 L544.762 199.897 Z" fill="#000000" fill-rule="nonzero" fill-opacity="1" /><path clip-path="url(#clip830)" d="M578.118 214.967 Q579.716 212.096 581.938 210.731 Q584.16 209.365 587.169 209.365 Q591.22 209.365 593.419 212.212 Q595.618 215.036 595.618 220.268 L595.618 235.916 L591.336 235.916 L591.336 220.407 Q591.336 216.68 590.016 214.874 Q588.697 213.069 585.989 213.069 Q582.679 213.069 580.757 215.268 Q578.836 217.467 578.836 221.263 L578.836 235.916 L574.554 235.916 L574.554 220.407 Q574.554 216.657 573.234 214.874 Q571.915 213.069 569.16 213.069 Q565.896 213.069 563.975 215.291 Q562.054 217.49 562.054 221.263 L562.054 235.916 L557.771 235.916 L557.771 209.99 L562.054 209.99 L562.054 214.018 Q563.512 211.633 565.549 210.499 Q567.586 209.365 570.387 209.365 Q573.211 209.365 575.179 210.8 Q577.169 212.235 578.118 214.967 Z" fill="#000000" fill-rule="nonzero" fill-opacity="1" /><path clip-path="url(#clip830)" d="M604.114 209.99 L608.373 209.99 L608.373 235.916 L604.114 235.916 L604.114 209.99 M604.114 199.897 L608.373 199.897 L608.373 205.291 L604.114 205.291 L604.114 199.897 Z" fill="#000000" fill-rule="nonzero" fill-opacity="1" /><path clip-path="url(#clip830)" d="M617.285 199.897 L621.544 199.897 L621.544 235.916 L617.285 235.916 L617.285 199.897 Z" fill="#000000" fill-rule="nonzero" fill-opacity="1" /><path clip-path="url(#clip830)" d="M642.238 222.883 Q637.076 222.883 635.086 224.064 Q633.095 225.244 633.095 228.092 Q633.095 230.36 634.576 231.703 Q636.081 233.022 638.65 233.022 Q642.192 233.022 644.322 230.522 Q646.474 227.999 646.474 223.832 L646.474 222.883 L642.238 222.883 M650.734 221.124 L650.734 235.916 L646.474 235.916 L646.474 231.981 Q645.016 234.342 642.84 235.476 Q640.664 236.587 637.516 236.587 Q633.535 236.587 631.174 234.365 Q628.836 232.119 628.836 228.369 Q628.836 223.994 631.752 221.772 Q634.692 219.55 640.502 219.55 L646.474 219.55 L646.474 219.133 Q646.474 216.194 644.53 214.596 Q642.609 212.976 639.113 212.976 Q636.891 212.976 634.785 213.508 Q632.678 214.041 630.734 215.106 L630.734 211.17 Q633.072 210.268 635.271 209.828 Q637.47 209.365 639.553 209.365 Q645.178 209.365 647.956 212.282 Q650.734 215.198 650.734 221.124 Z" fill="#000000" fill-rule="nonzero" fill-opacity="1" /><path clip-path="url(#clip830)" d="M674.53 213.971 Q673.812 213.555 672.956 213.37 Q672.122 213.161 671.104 213.161 Q667.493 213.161 665.548 215.522 Q663.627 217.86 663.627 222.258 L663.627 235.916 L659.345 235.916 L659.345 209.99 L663.627 209.99 L663.627 214.018 Q664.97 211.657 667.123 210.522 Q669.275 209.365 672.354 209.365 Q672.794 209.365 673.326 209.434 Q673.859 209.481 674.507 209.596 L674.53 213.971 Z" fill="#000000" fill-rule="nonzero" fill-opacity="1" /><path clip-path="url(#clip830)" d="M678.997 209.99 L683.257 209.99 L683.257 235.916 L678.997 235.916 L678.997 209.99 M678.997 199.897 L683.257 199.897 L683.257 205.291 L678.997 205.291 L678.997 199.897 Z" fill="#000000" fill-rule="nonzero" fill-opacity="1" /><path clip-path="url(#clip830)" d="M696.382 202.629 L696.382 209.99 L705.155 209.99 L705.155 213.3 L696.382 213.3 L696.382 227.374 Q696.382 230.545 697.238 231.448 Q698.118 232.351 700.78 232.351 L705.155 232.351 L705.155 235.916 L700.78 235.916 Q695.849 235.916 693.974 234.087 Q692.099 232.235 692.099 227.374 L692.099 213.3 L688.974 213.3 L688.974 209.99 L692.099 209.99 L692.099 202.629 L696.382 202.629 Z" fill="#000000" fill-rule="nonzero" fill-opacity="1" /><path clip-path="url(#clip830)" d="M721.544 238.323 Q719.738 242.953 718.025 244.365 Q716.312 245.777 713.442 245.777 L710.039 245.777 L710.039 242.212 L712.539 242.212 Q714.298 242.212 715.27 241.379 Q716.243 240.545 717.423 237.443 L718.187 235.499 L707.701 209.99 L712.215 209.99 L720.317 230.268 L728.418 209.99 L732.932 209.99 L721.544 238.323 Z" fill="#000000" fill-rule="nonzero" fill-opacity="1" /></svg>
