<?xml version="1.0" encoding="utf-8"?>
<svg xmlns="http://www.w3.org/2000/svg" xmlns:xlink="http://www.w3.org/1999/xlink" width="600" height="400" viewBox="0 0 2400 1600">
<defs>
  <clipPath id="clip930">
    <rect x="0" y="0" width="2400" height="1600"/>
  </clipPath>
</defs>
<path clip-path="url(#clip930)" d="M0 1600 L2400 1600 L2400 8.88178e-14 L0 8.88178e-14  Z" fill="#ffffff" fill-rule="evenodd" fill-opacity="1"/>
<defs>
  <clipPath id="clip931">
    <rect x="480" y="0" width="1681" height="1600"/>
  </clipPath>
</defs>
<path clip-path="url(#clip930)" d="M256.209 1423.18 L2352.76 1423.18 L2352.76 123.472 L256.209 123.472  Z" fill="#ffffff" fill-rule="evenodd" fill-opacity="1"/>
<defs>
  <clipPath id="clip932">
    <rect x="256" y="123" width="2098" height="1301"/>
  </clipPath>
</defs>
<polyline clip-path="url(#clip932)" style="stroke:#000000; stroke-linecap:round; stroke-linejoin:round; stroke-width:2; stroke-opacity:0.1; fill:none" points="313.565,1423.18 313.565,123.472 "/>
<polyline clip-path="url(#clip932)" style="stroke:#000000; stroke-linecap:round; stroke-linejoin:round; stroke-width:2; stroke-opacity:0.1; fill:none" points="808.529,1423.18 808.529,123.472 "/>
<polyline clip-path="url(#clip932)" style="stroke:#000000; stroke-linecap:round; stroke-linejoin:round; stroke-width:2; stroke-opacity:0.1; fill:none" points="1303.49,1423.18 1303.49,123.472 "/>
<polyline clip-path="url(#clip932)" style="stroke:#000000; stroke-linecap:round; stroke-linejoin:round; stroke-width:2; stroke-opacity:0.1; fill:none" points="1798.46,1423.18 1798.46,123.472 "/>
<polyline clip-path="url(#clip932)" style="stroke:#000000; stroke-linecap:round; stroke-linejoin:round; stroke-width:2; stroke-opacity:0.1; fill:none" points="2293.42,1423.18 2293.42,123.472 "/>
<polyline clip-path="url(#clip930)" style="stroke:#000000; stroke-linecap:round; stroke-linejoin:round; stroke-width:4; stroke-opacity:1; fill:none" points="256.209,1423.18 2352.76,1423.18 "/>
<polyline clip-path="url(#clip930)" style="stroke:#000000; stroke-linecap:round; stroke-linejoin:round; stroke-width:4; stroke-opacity:1; fill:none" points="313.565,1423.18 313.565,1404.28 "/>
<polyline clip-path="url(#clip930)" style="stroke:#000000; stroke-linecap:round; stroke-linejoin:round; stroke-width:4; stroke-opacity:1; fill:none" points="808.529,1423.18 808.529,1404.28 "/>
<polyline clip-path="url(#clip930)" style="stroke:#000000; stroke-linecap:round; stroke-linejoin:round; stroke-width:4; stroke-opacity:1; fill:none" points="1303.49,1423.18 1303.49,1404.28 "/>
<polyline clip-path="url(#clip930)" style="stroke:#000000; stroke-linecap:round; stroke-linejoin:round; stroke-width:4; stroke-opacity:1; fill:none" points="1798.46,1423.18 1798.46,1404.28 "/>
<polyline clip-path="url(#clip930)" style="stroke:#000000; stroke-linecap:round; stroke-linejoin:round; stroke-width:4; stroke-opacity:1; fill:none" points="2293.42,1423.18 2293.42,1404.28 "/>
<path clip-path="url(#clip930)" d="M313.565 1454.1 Q309.954 1454.1 308.125 1457.66 Q306.32 1461.2 306.32 1468.33 Q306.32 1475.44 308.125 1479.01 Q309.954 1482.55 313.565 1482.55 Q317.199 1482.55 319.005 1479.01 Q320.834 1475.44 320.834 1468.33 Q320.834 1461.2 319.005 1457.66 Q317.199 1454.1 313.565 1454.1 M313.565 1450.39 Q319.375 1450.39 322.431 1455 Q325.509 1459.58 325.509 1468.33 Q325.509 1477.06 322.431 1481.67 Q319.375 1486.25 313.565 1486.25 Q307.755 1486.25 304.676 1481.67 Q301.621 1477.06 301.621 1468.33 Q301.621 1459.58 304.676 1455 Q307.755 1450.39 313.565 1450.39 Z" fill="#000000" fill-rule="nonzero" fill-opacity="1" /><path clip-path="url(#clip930)" d="M772.221 1481.64 L788.54 1481.64 L788.54 1485.58 L766.596 1485.58 L766.596 1481.64 Q769.258 1478.89 773.841 1474.26 Q778.448 1469.61 779.628 1468.27 Q781.874 1465.74 782.753 1464.01 Q783.656 1462.25 783.656 1460.56 Q783.656 1457.8 781.712 1456.07 Q779.79 1454.33 776.689 1454.33 Q774.49 1454.33 772.036 1455.09 Q769.605 1455.86 766.828 1457.41 L766.828 1452.69 Q769.652 1451.55 772.105 1450.97 Q774.559 1450.39 776.596 1450.39 Q781.966 1450.39 785.161 1453.08 Q788.355 1455.77 788.355 1460.26 Q788.355 1462.39 787.545 1464.31 Q786.758 1466.2 784.652 1468.8 Q784.073 1469.47 780.971 1472.69 Q777.869 1475.88 772.221 1481.64 Z" fill="#000000" fill-rule="nonzero" fill-opacity="1" /><path clip-path="url(#clip930)" d="M798.401 1451.02 L816.758 1451.02 L816.758 1454.96 L802.684 1454.96 L802.684 1463.43 Q803.702 1463.08 804.721 1462.92 Q805.739 1462.73 806.758 1462.73 Q812.545 1462.73 815.924 1465.9 Q819.304 1469.08 819.304 1474.49 Q819.304 1480.07 815.832 1483.17 Q812.36 1486.25 806.04 1486.25 Q803.864 1486.25 801.596 1485.88 Q799.351 1485.51 796.943 1484.77 L796.943 1480.07 Q799.026 1481.2 801.249 1481.76 Q803.471 1482.32 805.948 1482.32 Q809.952 1482.32 812.29 1480.21 Q814.628 1478.1 814.628 1474.49 Q814.628 1470.88 812.29 1468.77 Q809.952 1466.67 805.948 1466.67 Q804.073 1466.67 802.198 1467.08 Q800.346 1467.5 798.401 1468.38 L798.401 1451.02 Z" fill="#000000" fill-rule="nonzero" fill-opacity="1" /><path clip-path="url(#clip930)" d="M838.517 1454.1 Q834.906 1454.1 833.077 1457.66 Q831.272 1461.2 831.272 1468.33 Q831.272 1475.44 833.077 1479.01 Q834.906 1482.55 838.517 1482.55 Q842.151 1482.55 843.957 1479.01 Q845.785 1475.44 845.785 1468.33 Q845.785 1461.2 843.957 1457.66 Q842.151 1454.1 838.517 1454.1 M838.517 1450.39 Q844.327 1450.39 847.383 1455 Q850.461 1459.58 850.461 1468.33 Q850.461 1477.06 847.383 1481.67 Q844.327 1486.25 838.517 1486.25 Q832.707 1486.25 829.628 1481.67 Q826.573 1477.06 826.573 1468.33 Q826.573 1459.58 829.628 1455 Q832.707 1450.39 838.517 1450.39 Z" fill="#000000" fill-rule="nonzero" fill-opacity="1" /><path clip-path="url(#clip930)" d="M1263.11 1451.02 L1281.47 1451.02 L1281.47 1454.96 L1267.39 1454.96 L1267.39 1463.43 Q1268.41 1463.08 1269.43 1462.92 Q1270.45 1462.73 1271.47 1462.73 Q1277.25 1462.73 1280.63 1465.9 Q1284.01 1469.08 1284.01 1474.49 Q1284.01 1480.07 1280.54 1483.17 Q1277.07 1486.25 1270.75 1486.25 Q1268.57 1486.25 1266.31 1485.88 Q1264.06 1485.51 1261.65 1484.77 L1261.65 1480.07 Q1263.74 1481.2 1265.96 1481.76 Q1268.18 1482.32 1270.66 1482.32 Q1274.66 1482.32 1277 1480.21 Q1279.34 1478.1 1279.34 1474.49 Q1279.34 1470.88 1277 1468.77 Q1274.66 1466.67 1270.66 1466.67 Q1268.78 1466.67 1266.91 1467.08 Q1265.06 1467.5 1263.11 1468.38 L1263.11 1451.02 Z" fill="#000000" fill-rule="nonzero" fill-opacity="1" /><path clip-path="url(#clip930)" d="M1303.23 1454.1 Q1299.62 1454.1 1297.79 1457.66 Q1295.98 1461.2 1295.98 1468.33 Q1295.98 1475.44 1297.79 1479.01 Q1299.62 1482.55 1303.23 1482.55 Q1306.86 1482.55 1308.67 1479.01 Q1310.49 1475.44 1310.49 1468.33 Q1310.49 1461.2 1308.67 1457.66 Q1306.86 1454.1 1303.23 1454.1 M1303.23 1450.39 Q1309.04 1450.39 1312.09 1455 Q1315.17 1459.58 1315.17 1468.33 Q1315.17 1477.06 1312.09 1481.67 Q1309.04 1486.25 1303.23 1486.25 Q1297.42 1486.25 1294.34 1481.67 Q1291.28 1477.06 1291.28 1468.33 Q1291.28 1459.58 1294.34 1455 Q1297.42 1450.39 1303.23 1450.39 Z" fill="#000000" fill-rule="nonzero" fill-opacity="1" /><path clip-path="url(#clip930)" d="M1333.39 1454.1 Q1329.78 1454.1 1327.95 1457.66 Q1326.14 1461.2 1326.14 1468.33 Q1326.14 1475.44 1327.95 1479.01 Q1329.78 1482.55 1333.39 1482.55 Q1337.02 1482.55 1338.83 1479.01 Q1340.66 1475.44 1340.66 1468.33 Q1340.66 1461.2 1338.83 1457.66 Q1337.02 1454.1 1333.39 1454.1 M1333.39 1450.39 Q1339.2 1450.39 1342.25 1455 Q1345.33 1459.58 1345.33 1468.33 Q1345.33 1477.06 1342.25 1481.67 Q1339.2 1486.25 1333.39 1486.25 Q1327.58 1486.25 1324.5 1481.67 Q1321.44 1477.06 1321.44 1468.33 Q1321.44 1459.58 1324.5 1455 Q1327.58 1450.39 1333.39 1450.39 Z" fill="#000000" fill-rule="nonzero" fill-opacity="1" /><path clip-path="url(#clip930)" d="M1756.73 1451.02 L1778.95 1451.02 L1778.95 1453.01 L1766.41 1485.58 L1761.52 1485.58 L1773.33 1454.96 L1756.73 1454.96 L1756.73 1451.02 Z" fill="#000000" fill-rule="nonzero" fill-opacity="1" /><path clip-path="url(#clip930)" d="M1788.12 1451.02 L1806.48 1451.02 L1806.48 1454.96 L1792.4 1454.96 L1792.4 1463.43 Q1793.42 1463.08 1794.44 1462.92 Q1795.46 1462.73 1796.48 1462.73 Q1802.26 1462.73 1805.64 1465.9 Q1809.02 1469.08 1809.02 1474.49 Q1809.02 1480.07 1805.55 1483.17 Q1802.08 1486.25 1795.76 1486.25 Q1793.58 1486.25 1791.31 1485.88 Q1789.07 1485.51 1786.66 1484.77 L1786.66 1480.07 Q1788.75 1481.2 1790.97 1481.76 Q1793.19 1482.32 1795.67 1482.32 Q1799.67 1482.32 1802.01 1480.21 Q1804.35 1478.1 1804.35 1474.49 Q1804.35 1470.88 1802.01 1468.77 Q1799.67 1466.67 1795.67 1466.67 Q1793.79 1466.67 1791.92 1467.08 Q1790.06 1467.5 1788.12 1468.38 L1788.12 1451.02 Z" fill="#000000" fill-rule="nonzero" fill-opacity="1" /><path clip-path="url(#clip930)" d="M1828.24 1454.1 Q1824.62 1454.1 1822.8 1457.66 Q1820.99 1461.2 1820.99 1468.33 Q1820.99 1475.44 1822.8 1479.01 Q1824.62 1482.55 1828.24 1482.55 Q1831.87 1482.55 1833.68 1479.01 Q1835.5 1475.44 1835.5 1468.33 Q1835.5 1461.2 1833.68 1457.66 Q1831.87 1454.1 1828.24 1454.1 M1828.24 1450.39 Q1834.05 1450.39 1837.1 1455 Q1840.18 1459.58 1840.18 1468.33 Q1840.18 1477.06 1837.1 1481.67 Q1834.05 1486.25 1828.24 1486.25 Q1822.43 1486.25 1819.35 1481.67 Q1816.29 1477.06 1816.29 1468.33 Q1816.29 1459.58 1819.35 1455 Q1822.43 1450.39 1828.24 1450.39 Z" fill="#000000" fill-rule="nonzero" fill-opacity="1" /><path clip-path="url(#clip930)" d="M2237.95 1481.64 L2245.58 1481.64 L2245.58 1455.28 L2237.27 1456.95 L2237.27 1452.69 L2245.54 1451.02 L2250.21 1451.02 L2250.21 1481.64 L2257.85 1481.64 L2257.85 1485.58 L2237.95 1485.58 L2237.95 1481.64 Z" fill="#000000" fill-rule="nonzero" fill-opacity="1" /><path clip-path="url(#clip930)" d="M2277.3 1454.1 Q2273.69 1454.1 2271.86 1457.66 Q2270.05 1461.2 2270.05 1468.33 Q2270.05 1475.44 2271.86 1479.01 Q2273.69 1482.55 2277.3 1482.55 Q2280.93 1482.55 2282.74 1479.01 Q2284.57 1475.44 2284.57 1468.33 Q2284.57 1461.2 2282.74 1457.66 Q2280.93 1454.1 2277.3 1454.1 M2277.3 1450.39 Q2283.11 1450.39 2286.16 1455 Q2289.24 1459.58 2289.24 1468.33 Q2289.24 1477.06 2286.16 1481.67 Q2283.11 1486.25 2277.3 1486.25 Q2271.49 1486.25 2268.41 1481.67 Q2265.35 1477.06 2265.35 1468.33 Q2265.35 1459.58 2268.41 1455 Q2271.49 1450.39 2277.3 1450.39 Z" fill="#000000" fill-rule="nonzero" fill-opacity="1" /><path clip-path="url(#clip930)" d="M2307.46 1454.1 Q2303.85 1454.1 2302.02 1457.66 Q2300.21 1461.2 2300.21 1468.33 Q2300.21 1475.44 2302.02 1479.01 Q2303.85 1482.55 2307.46 1482.55 Q2311.09 1482.55 2312.9 1479.01 Q2314.73 1475.44 2314.73 1468.33 Q2314.73 1461.2 2312.9 1457.66 Q2311.09 1454.1 2307.46 1454.1 M2307.46 1450.39 Q2313.27 1450.39 2316.32 1455 Q2319.4 1459.58 2319.4 1468.33 Q2319.4 1477.06 2316.32 1481.67 Q2313.27 1486.25 2307.46 1486.25 Q2301.65 1486.25 2298.57 1481.67 Q2295.51 1477.06 2295.51 1468.33 Q2295.51 1459.58 2298.57 1455 Q2301.65 1450.39 2307.46 1450.39 Z" fill="#000000" fill-rule="nonzero" fill-opacity="1" /><path clip-path="url(#clip930)" d="M2337.62 1454.1 Q2334.01 1454.1 2332.18 1457.66 Q2330.38 1461.2 2330.38 1468.33 Q2330.38 1475.44 2332.18 1479.01 Q2334.01 1482.55 2337.62 1482.55 Q2341.26 1482.55 2343.06 1479.01 Q2344.89 1475.44 2344.89 1468.33 Q2344.89 1461.2 2343.06 1457.66 Q2341.26 1454.1 2337.62 1454.1 M2337.62 1450.39 Q2343.43 1450.39 2346.49 1455 Q2349.57 1459.58 2349.57 1468.33 Q2349.57 1477.06 2346.49 1481.67 Q2343.43 1486.25 2337.62 1486.25 Q2331.81 1486.25 2328.73 1481.67 Q2325.68 1477.06 2325.68 1468.33 Q2325.68 1459.58 2328.73 1455 Q2331.81 1450.39 2337.62 1450.39 Z" fill="#000000" fill-rule="nonzero" fill-opacity="1" /><path clip-path="url(#clip930)" d="M1268.33 1524.18 L1268.33 1530.96 Q1265.08 1527.94 1261.39 1526.44 Q1257.73 1524.95 1253.59 1524.95 Q1245.44 1524.95 1241.11 1529.95 Q1236.78 1534.91 1236.78 1544.33 Q1236.78 1553.72 1241.11 1558.72 Q1245.44 1563.68 1253.59 1563.68 Q1257.73 1563.68 1261.39 1562.19 Q1265.08 1560.69 1268.33 1557.67 L1268.33 1564.38 Q1264.95 1566.68 1261.16 1567.82 Q1257.41 1568.97 1253.21 1568.97 Q1242.42 1568.97 1236.21 1562.38 Q1230 1555.76 1230 1544.33 Q1230 1532.87 1236.21 1526.28 Q1242.42 1519.66 1253.21 1519.66 Q1257.47 1519.66 1261.23 1520.81 Q1265.01 1521.92 1268.33 1524.18 Z" fill="#000000" fill-rule="nonzero" fill-opacity="1" /><path clip-path="url(#clip930)" d="M1308.49 1548.76 L1308.49 1551.62 L1281.57 1551.62 Q1281.95 1557.67 1285.19 1560.85 Q1288.47 1564 1294.3 1564 Q1297.67 1564 1300.82 1563.17 Q1304 1562.35 1307.12 1560.69 L1307.12 1566.23 Q1303.97 1567.57 1300.66 1568.27 Q1297.35 1568.97 1293.95 1568.97 Q1285.42 1568.97 1280.42 1564 Q1275.45 1559.04 1275.45 1550.57 Q1275.45 1541.82 1280.17 1536.69 Q1284.91 1531.54 1292.93 1531.54 Q1300.12 1531.54 1304.29 1536.18 Q1308.49 1540.8 1308.49 1548.76 M1302.64 1547.04 Q1302.57 1542.23 1299.93 1539.37 Q1297.32 1536.5 1292.99 1536.5 Q1288.09 1536.5 1285.13 1539.27 Q1282.2 1542.04 1281.76 1547.07 L1302.64 1547.04 Z" fill="#000000" fill-rule="nonzero" fill-opacity="1" /><path clip-path="url(#clip930)" d="M1318.1 1518.52 L1323.96 1518.52 L1323.96 1568.04 L1318.1 1568.04 L1318.1 1518.52 Z" fill="#000000" fill-rule="nonzero" fill-opacity="1" /><path clip-path="url(#clip930)" d="M1336.22 1518.52 L1342.07 1518.52 L1342.07 1568.04 L1336.22 1568.04 L1336.22 1518.52 Z" fill="#000000" fill-rule="nonzero" fill-opacity="1" /><path clip-path="url(#clip930)" d="M1377.05 1533.45 L1377.05 1538.98 Q1374.57 1537.71 1371.9 1537.07 Q1369.22 1536.44 1366.36 1536.44 Q1362 1536.44 1359.8 1537.77 Q1357.64 1539.11 1357.64 1541.79 Q1357.64 1543.82 1359.2 1545 Q1360.76 1546.15 1365.47 1547.2 L1367.47 1547.64 Q1373.71 1548.98 1376.32 1551.43 Q1378.96 1553.85 1378.96 1558.21 Q1378.96 1563.17 1375.01 1566.07 Q1371.1 1568.97 1364.22 1568.97 Q1361.36 1568.97 1358.24 1568.39 Q1355.15 1567.85 1351.72 1566.74 L1351.72 1560.69 Q1354.96 1562.38 1358.11 1563.24 Q1361.26 1564.07 1364.35 1564.07 Q1368.49 1564.07 1370.72 1562.66 Q1372.95 1561.23 1372.95 1558.65 Q1372.95 1556.27 1371.32 1554.99 Q1369.73 1553.72 1364.29 1552.54 L1362.25 1552.07 Q1356.81 1550.92 1354.39 1548.56 Q1351.97 1546.18 1351.97 1542.04 Q1351.97 1537.01 1355.54 1534.27 Q1359.1 1531.54 1365.66 1531.54 Q1368.9 1531.54 1371.77 1532.01 Q1374.63 1532.49 1377.05 1533.45 Z" fill="#000000" fill-rule="nonzero" fill-opacity="1" /><polyline clip-path="url(#clip932)" style="stroke:#000000; stroke-linecap:round; stroke-linejoin:round; stroke-width:2; stroke-opacity:0.1; fill:none" points="256.209,1117.36 2352.76,1117.36 "/>
<polyline clip-path="url(#clip932)" style="stroke:#000000; stroke-linecap:round; stroke-linejoin:round; stroke-width:2; stroke-opacity:0.1; fill:none" points="256.209,792.746 2352.76,792.746 "/>
<polyline clip-path="url(#clip932)" style="stroke:#000000; stroke-linecap:round; stroke-linejoin:round; stroke-width:2; stroke-opacity:0.1; fill:none" points="256.209,468.133 2352.76,468.133 "/>
<polyline clip-path="url(#clip932)" style="stroke:#000000; stroke-linecap:round; stroke-linejoin:round; stroke-width:2; stroke-opacity:0.1; fill:none" points="256.209,143.52 2352.76,143.52 "/>
<polyline clip-path="url(#clip930)" style="stroke:#000000; stroke-linecap:round; stroke-linejoin:round; stroke-width:4; stroke-opacity:1; fill:none" points="256.209,1423.18 256.209,123.472 "/>
<polyline clip-path="url(#clip930)" style="stroke:#000000; stroke-linecap:round; stroke-linejoin:round; stroke-width:4; stroke-opacity:1; fill:none" points="256.209,1117.36 275.106,1117.36 "/>
<polyline clip-path="url(#clip930)" style="stroke:#000000; stroke-linecap:round; stroke-linejoin:round; stroke-width:4; stroke-opacity:1; fill:none" points="256.209,792.746 275.106,792.746 "/>
<polyline clip-path="url(#clip930)" style="stroke:#000000; stroke-linecap:round; stroke-linejoin:round; stroke-width:4; stroke-opacity:1; fill:none" points="256.209,468.133 275.106,468.133 "/>
<polyline clip-path="url(#clip930)" style="stroke:#000000; stroke-linecap:round; stroke-linejoin:round; stroke-width:4; stroke-opacity:1; fill:none" points="256.209,143.52 275.106,143.52 "/>
<path clip-path="url(#clip930)" d="M114.26 1117.81 L143.936 1117.81 L143.936 1121.75 L114.26 1121.75 L114.26 1117.81 Z" fill="#000000" fill-rule="nonzero" fill-opacity="1" /><path clip-path="url(#clip930)" d="M164.028 1103.16 Q160.417 1103.16 158.589 1106.72 Q156.783 1110.26 156.783 1117.39 Q156.783 1124.5 158.589 1128.07 Q160.417 1131.61 164.028 1131.61 Q167.663 1131.61 169.468 1128.07 Q171.297 1124.5 171.297 1117.39 Q171.297 1110.26 169.468 1106.72 Q167.663 1103.16 164.028 1103.16 M164.028 1099.45 Q169.839 1099.45 172.894 1104.06 Q175.973 1108.64 175.973 1117.39 Q175.973 1126.12 172.894 1130.73 Q169.839 1135.31 164.028 1135.31 Q158.218 1135.31 155.14 1130.73 Q152.084 1126.12 152.084 1117.39 Q152.084 1108.64 155.14 1104.06 Q158.218 1099.45 164.028 1099.45 Z" fill="#000000" fill-rule="nonzero" fill-opacity="1" /><path clip-path="url(#clip930)" d="M184.19 1128.76 L189.075 1128.76 L189.075 1134.64 L184.19 1134.64 L184.19 1128.76 Z" fill="#000000" fill-rule="nonzero" fill-opacity="1" /><path clip-path="url(#clip930)" d="M199.306 1100.08 L217.662 1100.08 L217.662 1104.01 L203.588 1104.01 L203.588 1112.49 Q204.607 1112.14 205.625 1111.98 Q206.644 1111.79 207.662 1111.79 Q213.449 1111.79 216.829 1114.96 Q220.209 1118.13 220.209 1123.55 Q220.209 1129.13 216.736 1132.23 Q213.264 1135.31 206.945 1135.31 Q204.769 1135.31 202.5 1134.94 Q200.255 1134.57 197.848 1133.83 L197.848 1129.13 Q199.931 1130.26 202.153 1130.82 Q204.375 1131.38 206.852 1131.38 Q210.857 1131.38 213.195 1129.27 Q215.533 1127.16 215.533 1123.55 Q215.533 1119.94 213.195 1117.83 Q210.857 1115.73 206.852 1115.73 Q204.977 1115.73 203.102 1116.14 Q201.25 1116.56 199.306 1117.44 L199.306 1100.08 Z" fill="#000000" fill-rule="nonzero" fill-opacity="1" /><path clip-path="url(#clip930)" d="M163.033 778.545 Q159.422 778.545 157.593 782.11 Q155.788 785.651 155.788 792.781 Q155.788 799.887 157.593 803.452 Q159.422 806.994 163.033 806.994 Q166.667 806.994 168.473 803.452 Q170.302 799.887 170.302 792.781 Q170.302 785.651 168.473 782.11 Q166.667 778.545 163.033 778.545 M163.033 774.841 Q168.843 774.841 171.899 779.448 Q174.977 784.031 174.977 792.781 Q174.977 801.508 171.899 806.114 Q168.843 810.698 163.033 810.698 Q157.223 810.698 154.144 806.114 Q151.089 801.508 151.089 792.781 Q151.089 784.031 154.144 779.448 Q157.223 774.841 163.033 774.841 Z" fill="#000000" fill-rule="nonzero" fill-opacity="1" /><path clip-path="url(#clip930)" d="M183.195 804.147 L188.079 804.147 L188.079 810.026 L183.195 810.026 L183.195 804.147 Z" fill="#000000" fill-rule="nonzero" fill-opacity="1" /><path clip-path="url(#clip930)" d="M208.264 778.545 Q204.653 778.545 202.824 782.11 Q201.019 785.651 201.019 792.781 Q201.019 799.887 202.824 803.452 Q204.653 806.994 208.264 806.994 Q211.899 806.994 213.704 803.452 Q215.533 799.887 215.533 792.781 Q215.533 785.651 213.704 782.11 Q211.899 778.545 208.264 778.545 M208.264 774.841 Q214.074 774.841 217.13 779.448 Q220.209 784.031 220.209 792.781 Q220.209 801.508 217.13 806.114 Q214.074 810.698 208.264 810.698 Q202.454 810.698 199.375 806.114 Q196.32 801.508 196.32 792.781 Q196.32 784.031 199.375 779.448 Q202.454 774.841 208.264 774.841 Z" fill="#000000" fill-rule="nonzero" fill-opacity="1" /><path clip-path="url(#clip930)" d="M164.028 453.932 Q160.417 453.932 158.589 457.497 Q156.783 461.038 156.783 468.168 Q156.783 475.274 158.589 478.839 Q160.417 482.381 164.028 482.381 Q167.663 482.381 169.468 478.839 Q171.297 475.274 171.297 468.168 Q171.297 461.038 169.468 457.497 Q167.663 453.932 164.028 453.932 M164.028 450.228 Q169.839 450.228 172.894 454.835 Q175.973 459.418 175.973 468.168 Q175.973 476.895 172.894 481.501 Q169.839 486.084 164.028 486.084 Q158.218 486.084 155.14 481.501 Q152.084 476.895 152.084 468.168 Q152.084 459.418 155.14 454.835 Q158.218 450.228 164.028 450.228 Z" fill="#000000" fill-rule="nonzero" fill-opacity="1" /><path clip-path="url(#clip930)" d="M184.19 479.533 L189.075 479.533 L189.075 485.413 L184.19 485.413 L184.19 479.533 Z" fill="#000000" fill-rule="nonzero" fill-opacity="1" /><path clip-path="url(#clip930)" d="M199.306 450.853 L217.662 450.853 L217.662 454.788 L203.588 454.788 L203.588 463.26 Q204.607 462.913 205.625 462.751 Q206.644 462.566 207.662 462.566 Q213.449 462.566 216.829 465.737 Q220.209 468.909 220.209 474.325 Q220.209 479.904 216.736 483.006 Q213.264 486.084 206.945 486.084 Q204.769 486.084 202.5 485.714 Q200.255 485.344 197.848 484.603 L197.848 479.904 Q199.931 481.038 202.153 481.594 Q204.375 482.149 206.852 482.149 Q210.857 482.149 213.195 480.043 Q215.533 477.936 215.533 474.325 Q215.533 470.714 213.195 468.608 Q210.857 466.501 206.852 466.501 Q204.977 466.501 203.102 466.918 Q201.25 467.334 199.306 468.214 L199.306 450.853 Z" fill="#000000" fill-rule="nonzero" fill-opacity="1" /><path clip-path="url(#clip930)" d="M153.843 156.865 L161.482 156.865 L161.482 130.499 L153.172 132.166 L153.172 127.907 L161.436 126.24 L166.112 126.24 L166.112 156.865 L173.751 156.865 L173.751 160.8 L153.843 160.8 L153.843 156.865 Z" fill="#000000" fill-rule="nonzero" fill-opacity="1" /><path clip-path="url(#clip930)" d="M183.195 154.92 L188.079 154.92 L188.079 160.8 L183.195 160.8 L183.195 154.92 Z" fill="#000000" fill-rule="nonzero" fill-opacity="1" /><path clip-path="url(#clip930)" d="M208.264 129.319 Q204.653 129.319 202.824 132.883 Q201.019 136.425 201.019 143.555 Q201.019 150.661 202.824 154.226 Q204.653 157.768 208.264 157.768 Q211.899 157.768 213.704 154.226 Q215.533 150.661 215.533 143.555 Q215.533 136.425 213.704 132.883 Q211.899 129.319 208.264 129.319 M208.264 125.615 Q214.074 125.615 217.13 130.221 Q220.209 134.805 220.209 143.555 Q220.209 152.282 217.13 156.888 Q214.074 161.471 208.264 161.471 Q202.454 161.471 199.375 156.888 Q196.32 152.282 196.32 143.555 Q196.32 134.805 199.375 130.221 Q202.454 125.615 208.264 125.615 Z" fill="#000000" fill-rule="nonzero" fill-opacity="1" /><path clip-path="url(#clip930)" d="M18.0438 893.717 L24.314 893.717 Q22.5634 897.378 21.704 900.624 Q20.8447 903.871 20.8447 906.894 Q20.8447 912.146 22.8817 915.011 Q24.9187 917.843 28.6745 917.843 Q31.8255 917.843 33.4488 915.966 Q35.0402 914.056 36.0269 908.772 L36.8226 904.889 Q38.1912 897.696 41.6605 894.29 Q45.098 890.853 50.8908 890.853 Q57.7976 890.853 61.3624 895.5 Q64.9272 900.115 64.9272 909.059 Q64.9272 912.433 64.1633 916.252 Q63.3994 920.04 61.9035 924.114 L55.2831 924.114 Q57.4793 920.199 58.5933 916.443 Q59.7073 912.687 59.7073 909.059 Q59.7073 903.552 57.543 900.561 Q55.3786 897.569 51.3682 897.569 Q47.8671 897.569 45.8937 899.733 Q43.9204 901.866 42.9337 906.767 L42.1698 910.682 Q40.7375 917.875 37.682 921.09 Q34.6264 924.305 29.1837 924.305 Q22.8817 924.305 19.2532 919.88 Q15.6248 915.424 15.6248 907.626 Q15.6248 904.284 16.2295 900.815 Q16.8343 897.346 18.0438 893.717 Z" fill="#000000" fill-rule="nonzero" fill-opacity="1" /><path clip-path="url(#clip930)" d="M28.3562 881.081 L28.3562 875.225 L64.0042 875.225 L64.0042 881.081 L28.3562 881.081 M14.479 881.081 L14.479 875.225 L21.895 875.225 L21.895 881.081 L14.479 881.081 Z" fill="#000000" fill-rule="nonzero" fill-opacity="1" /><path clip-path="url(#clip930)" d="M35.1993 835.217 Q31.2526 833.02 29.3747 829.965 Q27.4968 826.909 27.4968 822.772 Q27.4968 817.202 31.4117 814.178 Q35.2948 811.154 42.4881 811.154 L64.0042 811.154 L64.0042 817.042 L42.679 817.042 Q37.5546 817.042 35.072 818.857 Q32.5894 820.671 32.5894 824.395 Q32.5894 828.946 35.6131 831.588 Q38.6368 834.23 43.8567 834.23 L64.0042 834.23 L64.0042 840.118 L42.679 840.118 Q37.5228 840.118 35.072 841.932 Q32.5894 843.747 32.5894 847.534 Q32.5894 852.022 35.6449 854.664 Q38.6686 857.306 43.8567 857.306 L64.0042 857.306 L64.0042 863.194 L28.3562 863.194 L28.3562 857.306 L33.8944 857.306 Q30.616 855.3 29.0564 852.499 Q27.4968 849.699 27.4968 845.847 Q27.4968 841.964 29.4702 839.259 Q31.4436 836.522 35.1993 835.217 Z" fill="#000000" fill-rule="nonzero" fill-opacity="1" /><path clip-path="url(#clip930)" d="M28.3562 799.473 L28.3562 793.617 L64.0042 793.617 L64.0042 799.473 L28.3562 799.473 M14.479 799.473 L14.479 793.617 L21.895 793.617 L21.895 799.473 L14.479 799.473 Z" fill="#000000" fill-rule="nonzero" fill-opacity="1" /><path clip-path="url(#clip930)" d="M14.479 781.363 L14.479 775.506 L64.0042 775.506 L64.0042 781.363 L14.479 781.363 Z" fill="#000000" fill-rule="nonzero" fill-opacity="1" /><path clip-path="url(#clip930)" d="M46.0847 747.052 Q46.0847 754.149 47.7079 756.887 Q49.3312 759.624 53.2461 759.624 Q56.3653 759.624 58.2114 757.587 Q60.0256 755.518 60.0256 751.985 Q60.0256 747.115 56.5881 744.187 Q53.1188 741.227 47.3897 741.227 L46.0847 741.227 L46.0847 747.052 M43.6657 735.37 L64.0042 735.37 L64.0042 741.227 L58.5933 741.227 Q61.8398 743.232 63.3994 746.224 Q64.9272 749.216 64.9272 753.545 Q64.9272 759.019 61.8716 762.266 Q58.7843 765.48 53.6281 765.48 Q47.6125 765.48 44.5569 761.47 Q41.5014 757.428 41.5014 749.439 L41.5014 741.227 L40.9285 741.227 Q36.8862 741.227 34.6901 743.901 Q32.4621 746.542 32.4621 751.348 Q32.4621 754.404 33.1941 757.3 Q33.9262 760.197 35.3903 762.87 L29.9795 762.87 Q28.7381 759.656 28.1334 756.632 Q27.4968 753.608 27.4968 750.744 Q27.4968 743.009 31.5072 739.19 Q35.5176 735.37 43.6657 735.37 Z" fill="#000000" fill-rule="nonzero" fill-opacity="1" /><path clip-path="url(#clip930)" d="M33.8307 702.651 Q33.2578 703.637 33.0032 704.815 Q32.7167 705.961 32.7167 707.361 Q32.7167 712.327 35.9632 715 Q39.1779 717.642 45.2253 717.642 L64.0042 717.642 L64.0042 723.53 L28.3562 723.53 L28.3562 717.642 L33.8944 717.642 Q30.6479 715.796 29.0883 712.836 Q27.4968 709.876 27.4968 705.643 Q27.4968 705.038 27.5923 704.306 Q27.656 703.574 27.8151 702.683 L33.8307 702.651 Z" fill="#000000" fill-rule="nonzero" fill-opacity="1" /><path clip-path="url(#clip930)" d="M28.3562 696.508 L28.3562 690.651 L64.0042 690.651 L64.0042 696.508 L28.3562 696.508 M14.479 696.508 L14.479 690.651 L21.895 690.651 L21.895 696.508 L14.479 696.508 Z" fill="#000000" fill-rule="nonzero" fill-opacity="1" /><path clip-path="url(#clip930)" d="M18.2347 672.605 L28.3562 672.605 L28.3562 660.542 L32.9077 660.542 L32.9077 672.605 L52.2594 672.605 Q56.6199 672.605 57.8613 671.427 Q59.1026 670.217 59.1026 666.557 L59.1026 660.542 L64.0042 660.542 L64.0042 666.557 Q64.0042 673.337 61.4897 675.915 Q58.9434 678.493 52.2594 678.493 L32.9077 678.493 L32.9077 682.79 L28.3562 682.79 L28.3562 678.493 L18.2347 678.493 L18.2347 672.605 Z" fill="#000000" fill-rule="nonzero" fill-opacity="1" /><path clip-path="url(#clip930)" d="M67.3143 638.007 Q73.68 640.49 75.6216 642.845 Q77.5631 645.2 77.5631 649.147 L77.5631 653.826 L72.6615 653.826 L72.6615 650.388 Q72.6615 647.969 71.5157 646.633 Q70.3699 645.296 66.1048 643.672 L63.4312 642.622 L28.3562 657.04 L28.3562 650.834 L56.238 639.694 L28.3562 628.554 L28.3562 622.347 L67.3143 638.007 Z" fill="#000000" fill-rule="nonzero" fill-opacity="1" /><path clip-path="url(#clip930)" d="M422.945 14.0809 L422.945 22.0612 Q418.286 19.8332 414.154 18.7395 Q410.022 17.6457 406.174 17.6457 Q399.49 17.6457 395.844 20.2383 Q392.239 22.8309 392.239 27.611 Q392.239 31.6214 394.629 33.6873 Q397.059 35.7128 403.784 36.9686 L408.726 37.9813 Q417.881 39.7232 422.216 44.1387 Q426.591 48.5136 426.591 55.8863 Q426.591 64.6767 420.676 69.2137 Q414.802 73.7508 403.419 73.7508 Q399.125 73.7508 394.264 72.7785 Q389.444 71.8063 384.259 69.9024 L384.259 61.4765 Q389.241 64.2716 394.021 65.6895 Q398.801 67.1073 403.419 67.1073 Q410.427 67.1073 414.235 64.3527 Q418.043 61.598 418.043 56.4939 Q418.043 52.0379 415.289 49.5264 Q412.574 47.0148 406.336 45.759 L401.353 44.7868 Q392.198 42.9639 388.107 39.075 Q384.016 35.1862 384.016 28.2591 Q384.016 20.2383 389.646 15.6203 Q395.318 11.0023 405.242 11.0023 Q409.496 11.0023 413.911 11.7719 Q418.327 12.5416 422.945 14.0809 Z" fill="#000000" fill-rule="nonzero" fill-opacity="1" /><path clip-path="url(#clip930)" d="M456.608 32.4315 Q450.612 32.4315 447.129 37.1306 Q443.645 41.7891 443.645 49.9314 Q443.645 58.0738 447.088 62.7728 Q450.572 67.4314 456.608 67.4314 Q462.563 67.4314 466.046 62.7323 Q469.53 58.0333 469.53 49.9314 Q469.53 41.8701 466.046 37.1711 Q462.563 32.4315 456.608 32.4315 M456.608 26.1121 Q466.33 26.1121 471.88 32.4315 Q477.429 38.7509 477.429 49.9314 Q477.429 61.0714 471.88 67.4314 Q466.33 73.7508 456.608 73.7508 Q446.845 73.7508 441.295 67.4314 Q435.786 61.0714 435.786 49.9314 Q435.786 38.7509 441.295 32.4315 Q446.845 26.1121 456.608 26.1121 Z" fill="#000000" fill-rule="nonzero" fill-opacity="1" /><path clip-path="url(#clip930)" d="M516.075 34.1734 Q514.819 33.4443 513.32 33.1202 Q511.862 32.7556 510.08 32.7556 Q503.76 32.7556 500.358 36.8875 Q496.995 40.9789 496.995 48.6757 L496.995 72.576 L489.501 72.576 L489.501 27.2059 L496.995 27.2059 L496.995 34.2544 Q499.345 30.1225 503.112 28.1376 Q506.879 26.1121 512.267 26.1121 Q513.037 26.1121 513.969 26.2337 Q514.9 26.3147 516.035 26.5172 L516.075 34.1734 Z" fill="#000000" fill-rule="nonzero" fill-opacity="1" /><path clip-path="url(#clip930)" d="M531.266 14.324 L531.266 27.2059 L546.619 27.2059 L546.619 32.9987 L531.266 32.9987 L531.266 57.6282 Q531.266 63.1779 532.765 64.7578 Q534.304 66.3376 538.963 66.3376 L546.619 66.3376 L546.619 72.576 L538.963 72.576 Q530.334 72.576 527.053 69.3758 Q523.772 66.1351 523.772 57.6282 L523.772 32.9987 L518.303 32.9987 L518.303 27.2059 L523.772 27.2059 L523.772 14.324 L531.266 14.324 Z" fill="#000000" fill-rule="nonzero" fill-opacity="1" /><path clip-path="url(#clip930)" d="M595.23 48.0275 L595.23 51.6733 L560.959 51.6733 Q561.445 59.3701 565.577 63.421 Q569.75 67.4314 577.163 67.4314 Q581.457 67.4314 585.467 66.3781 Q589.518 65.3249 593.488 63.2184 L593.488 70.267 Q589.477 71.9684 585.264 72.8596 Q581.052 73.7508 576.717 73.7508 Q565.861 73.7508 559.501 67.4314 Q553.181 61.1119 553.181 50.3365 Q553.181 39.1965 559.177 32.6746 Q565.213 26.1121 575.421 26.1121 Q584.576 26.1121 589.883 32.0264 Q595.23 37.9003 595.23 48.0275 M587.776 45.84 Q587.695 39.7232 584.333 36.0774 Q581.011 32.4315 575.502 32.4315 Q569.263 32.4315 565.496 35.9558 Q561.769 39.4801 561.202 45.8805 L587.776 45.84 Z" fill="#000000" fill-rule="nonzero" fill-opacity="1" /><path clip-path="url(#clip930)" d="M637.319 34.0924 L637.319 9.54393 L644.772 9.54393 L644.772 72.576 L637.319 72.576 L637.319 65.7705 Q634.969 69.8214 631.364 71.8063 Q627.799 73.7508 622.776 73.7508 Q614.553 73.7508 609.367 67.1883 Q604.223 60.6258 604.223 49.9314 Q604.223 39.2371 609.367 32.6746 Q614.553 26.1121 622.776 26.1121 Q627.799 26.1121 631.364 28.0971 Q634.969 30.0415 637.319 34.0924 M611.919 49.9314 Q611.919 58.1548 615.282 62.8538 Q618.684 67.5124 624.599 67.5124 Q630.513 67.5124 633.916 62.8538 Q637.319 58.1548 637.319 49.9314 Q637.319 41.7081 633.916 37.0496 Q630.513 32.3505 624.599 32.3505 Q618.684 32.3505 615.282 37.0496 Q611.919 41.7081 611.919 49.9314 Z" fill="#000000" fill-rule="nonzero" fill-opacity="1" /><path clip-path="url(#clip930)" d="M719.147 28.9478 L719.147 35.9153 Q715.987 34.1734 712.787 33.3227 Q709.627 32.4315 706.387 32.4315 Q699.135 32.4315 695.125 37.0496 Q691.115 41.6271 691.115 49.9314 Q691.115 58.2358 695.125 62.8538 Q699.135 67.4314 706.387 67.4314 Q709.627 67.4314 712.787 66.5807 Q715.987 65.6895 719.147 63.9476 L719.147 70.8341 Q716.028 72.2924 712.665 73.0216 Q709.344 73.7508 705.576 73.7508 Q695.328 73.7508 689.292 67.3098 Q683.256 60.8689 683.256 49.9314 Q683.256 38.832 689.332 32.472 Q695.449 26.1121 706.062 26.1121 Q709.506 26.1121 712.787 26.8413 Q716.068 27.5299 719.147 28.9478 Z" fill="#000000" fill-rule="nonzero" fill-opacity="1" /><path clip-path="url(#clip930)" d="M749.691 32.4315 Q743.695 32.4315 740.212 37.1306 Q736.728 41.7891 736.728 49.9314 Q736.728 58.0738 740.171 62.7728 Q743.655 67.4314 749.691 67.4314 Q755.646 67.4314 759.129 62.7323 Q762.613 58.0333 762.613 49.9314 Q762.613 41.8701 759.129 37.1711 Q755.646 32.4315 749.691 32.4315 M749.691 26.1121 Q759.413 26.1121 764.963 32.4315 Q770.512 38.7509 770.512 49.9314 Q770.512 61.0714 764.963 67.4314 Q759.413 73.7508 749.691 73.7508 Q739.928 73.7508 734.378 67.4314 Q728.869 61.0714 728.869 49.9314 Q728.869 38.7509 734.378 32.4315 Q739.928 26.1121 749.691 26.1121 Z" fill="#000000" fill-rule="nonzero" fill-opacity="1" /><path clip-path="url(#clip930)" d="M811.791 28.5427 L811.791 35.5912 Q808.631 33.9709 805.229 33.1607 Q801.826 32.3505 798.18 32.3505 Q792.63 32.3505 789.835 34.0519 Q787.081 35.7533 787.081 39.156 Q787.081 41.7486 789.065 43.2475 Q791.05 44.7058 797.046 46.0426 L799.598 46.6097 Q807.538 48.3111 810.859 51.4303 Q814.222 54.509 814.222 60.0587 Q814.222 66.3781 809.198 70.0644 Q804.216 73.7508 795.466 73.7508 Q791.82 73.7508 787.85 73.0216 Q783.921 72.3329 779.546 70.9151 L779.546 63.2184 Q783.678 65.3654 787.688 66.4591 Q791.699 67.5124 795.628 67.5124 Q800.894 67.5124 803.73 65.73 Q806.565 63.9071 806.565 60.6258 Q806.565 57.5877 804.499 55.9673 Q802.474 54.3469 795.547 52.8481 L792.954 52.2405 Q786.027 50.7821 782.949 47.7845 Q779.87 44.7463 779.87 39.4801 Q779.87 33.0797 784.407 29.5959 Q788.944 26.1121 797.289 26.1121 Q801.421 26.1121 805.067 26.7198 Q808.712 27.3274 811.791 28.5427 Z" fill="#000000" fill-rule="nonzero" fill-opacity="1" /><path clip-path="url(#clip930)" d="M826.091 27.2059 L833.544 27.2059 L833.544 72.576 L826.091 72.576 L826.091 27.2059 M826.091 9.54393 L833.544 9.54393 L833.544 18.9825 L826.091 18.9825 L826.091 9.54393 Z" fill="#000000" fill-rule="nonzero" fill-opacity="1" /><path clip-path="url(#clip930)" d="M886.854 45.1919 L886.854 72.576 L879.401 72.576 L879.401 45.4349 Q879.401 38.994 876.889 35.7938 Q874.378 32.5936 869.354 32.5936 Q863.319 32.5936 859.835 36.4419 Q856.351 40.2903 856.351 46.9338 L856.351 72.576 L848.857 72.576 L848.857 27.2059 L856.351 27.2059 L856.351 34.2544 Q859.025 30.163 862.63 28.1376 Q866.276 26.1121 871.015 26.1121 Q878.834 26.1121 882.844 30.9732 Q886.854 35.7938 886.854 45.1919 Z" fill="#000000" fill-rule="nonzero" fill-opacity="1" /><path clip-path="url(#clip930)" d="M940.529 48.0275 L940.529 51.6733 L906.258 51.6733 Q906.744 59.3701 910.876 63.421 Q915.049 67.4314 922.462 67.4314 Q926.756 67.4314 930.766 66.3781 Q934.817 65.3249 938.787 63.2184 L938.787 70.267 Q934.777 71.9684 930.564 72.8596 Q926.351 73.7508 922.016 73.7508 Q911.16 73.7508 904.8 67.4314 Q898.48 61.1119 898.48 50.3365 Q898.48 39.1965 904.476 32.6746 Q910.512 26.1121 920.72 26.1121 Q929.875 26.1121 935.182 32.0264 Q940.529 37.9003 940.529 48.0275 M933.075 45.84 Q932.994 39.7232 929.632 36.0774 Q926.31 32.4315 920.801 32.4315 Q914.562 32.4315 910.795 35.9558 Q907.068 39.4801 906.501 45.8805 L933.075 45.84 Z" fill="#000000" fill-rule="nonzero" fill-opacity="1" /><path clip-path="url(#clip930)" d="M1008.06 28.5427 L1008.06 35.5912 Q1004.9 33.9709 1001.49 33.1607 Q998.092 32.3505 994.446 32.3505 Q988.897 32.3505 986.101 34.0519 Q983.347 35.7533 983.347 39.156 Q983.347 41.7486 985.332 43.2475 Q987.317 44.7058 993.312 46.0426 L995.864 46.6097 Q1003.8 48.3111 1007.13 51.4303 Q1010.49 54.509 1010.49 60.0587 Q1010.49 66.3781 1005.46 70.0644 Q1000.48 73.7508 991.732 73.7508 Q988.086 73.7508 984.117 73.0216 Q980.187 72.3329 975.812 70.9151 L975.812 63.2184 Q979.944 65.3654 983.954 66.4591 Q987.965 67.5124 991.894 67.5124 Q997.16 67.5124 999.996 65.73 Q1002.83 63.9071 1002.83 60.6258 Q1002.83 57.5877 1000.77 55.9673 Q998.74 54.3469 991.813 52.8481 L989.221 52.2405 Q982.294 50.7821 979.215 47.7845 Q976.136 44.7463 976.136 39.4801 Q976.136 33.0797 980.673 29.5959 Q985.21 26.1121 993.555 26.1121 Q997.687 26.1121 1001.33 26.7198 Q1004.98 27.3274 1008.06 28.5427 Z" fill="#000000" fill-rule="nonzero" fill-opacity="1" /><path clip-path="url(#clip930)" d="M1022.36 27.2059 L1029.81 27.2059 L1029.81 72.576 L1022.36 72.576 L1022.36 27.2059 M1022.36 9.54393 L1029.81 9.54393 L1029.81 18.9825 L1022.36 18.9825 L1022.36 9.54393 Z" fill="#000000" fill-rule="nonzero" fill-opacity="1" /><path clip-path="url(#clip930)" d="M1080.73 35.9153 Q1083.53 30.8922 1087.41 28.5022 Q1091.3 26.1121 1096.57 26.1121 Q1103.66 26.1121 1107.51 31.0947 Q1111.36 36.0368 1111.36 45.1919 L1111.36 72.576 L1103.86 72.576 L1103.86 45.4349 Q1103.86 38.913 1101.55 35.7533 Q1099.24 32.5936 1094.5 32.5936 Q1088.71 32.5936 1085.35 36.4419 Q1081.99 40.2903 1081.99 46.9338 L1081.99 72.576 L1074.49 72.576 L1074.49 45.4349 Q1074.49 38.8725 1072.18 35.7533 Q1069.87 32.5936 1065.05 32.5936 Q1059.34 32.5936 1055.98 36.4824 Q1052.62 40.3308 1052.62 46.9338 L1052.62 72.576 L1045.12 72.576 L1045.12 27.2059 L1052.62 27.2059 L1052.62 34.2544 Q1055.17 30.082 1058.73 28.0971 Q1062.3 26.1121 1067.2 26.1121 Q1072.14 26.1121 1075.59 28.6237 Q1079.07 31.1352 1080.73 35.9153 Z" fill="#000000" fill-rule="nonzero" fill-opacity="1" /><path clip-path="url(#clip930)" d="M1126.22 27.2059 L1133.68 27.2059 L1133.68 72.576 L1126.22 72.576 L1126.22 27.2059 M1126.22 9.54393 L1133.68 9.54393 L1133.68 18.9825 L1126.22 18.9825 L1126.22 9.54393 Z" fill="#000000" fill-rule="nonzero" fill-opacity="1" /><path clip-path="url(#clip930)" d="M1149.27 9.54393 L1156.73 9.54393 L1156.73 72.576 L1149.27 72.576 L1149.27 9.54393 Z" fill="#000000" fill-rule="nonzero" fill-opacity="1" /><path clip-path="url(#clip930)" d="M1192.94 49.7694 Q1183.91 49.7694 1180.42 51.8354 Q1176.94 53.9013 1176.94 58.8839 Q1176.94 62.8538 1179.53 65.2034 Q1182.17 67.5124 1186.66 67.5124 Q1192.86 67.5124 1196.59 63.1374 Q1200.35 58.7219 1200.35 51.4303 L1200.35 49.7694 L1192.94 49.7694 M1207.81 46.6907 L1207.81 72.576 L1200.35 72.576 L1200.35 65.6895 Q1197.8 69.8214 1193.99 71.8063 Q1190.19 73.7508 1184.68 73.7508 Q1177.71 73.7508 1173.58 69.8619 Q1169.49 65.9325 1169.49 59.3701 Q1169.49 51.7138 1174.59 47.825 Q1179.73 43.9361 1189.9 43.9361 L1200.35 43.9361 L1200.35 43.2069 Q1200.35 38.0623 1196.95 35.2672 Q1193.59 32.4315 1187.47 32.4315 Q1183.58 32.4315 1179.9 33.3632 Q1176.21 34.295 1172.81 36.1584 L1172.81 29.2718 Q1176.9 27.692 1180.75 26.9223 Q1184.6 26.1121 1188.24 26.1121 Q1198.09 26.1121 1202.95 31.2163 Q1207.81 36.3204 1207.81 46.6907 Z" fill="#000000" fill-rule="nonzero" fill-opacity="1" /><path clip-path="url(#clip930)" d="M1249.45 34.1734 Q1248.19 33.4443 1246.7 33.1202 Q1245.24 32.7556 1243.46 32.7556 Q1237.14 32.7556 1233.73 36.8875 Q1230.37 40.9789 1230.37 48.6757 L1230.37 72.576 L1222.88 72.576 L1222.88 27.2059 L1230.37 27.2059 L1230.37 34.2544 Q1232.72 30.1225 1236.49 28.1376 Q1240.26 26.1121 1245.64 26.1121 Q1246.41 26.1121 1247.34 26.2337 Q1248.28 26.3147 1249.41 26.5172 L1249.45 34.1734 Z" fill="#000000" fill-rule="nonzero" fill-opacity="1" /><path clip-path="url(#clip930)" d="M1257.27 27.2059 L1264.72 27.2059 L1264.72 72.576 L1257.27 72.576 L1257.27 27.2059 M1257.27 9.54393 L1264.72 9.54393 L1264.72 18.9825 L1257.27 18.9825 L1257.27 9.54393 Z" fill="#000000" fill-rule="nonzero" fill-opacity="1" /><path clip-path="url(#clip930)" d="M1287.69 14.324 L1287.69 27.2059 L1303.04 27.2059 L1303.04 32.9987 L1287.69 32.9987 L1287.69 57.6282 Q1287.69 63.1779 1289.19 64.7578 Q1290.73 66.3376 1295.39 66.3376 L1303.04 66.3376 L1303.04 72.576 L1295.39 72.576 Q1286.76 72.576 1283.48 69.3758 Q1280.2 66.1351 1280.2 57.6282 L1280.2 32.9987 L1274.73 32.9987 L1274.73 27.2059 L1280.2 27.2059 L1280.2 14.324 L1287.69 14.324 Z" fill="#000000" fill-rule="nonzero" fill-opacity="1" /><path clip-path="url(#clip930)" d="M1312.85 27.2059 L1320.3 27.2059 L1320.3 72.576 L1312.85 72.576 L1312.85 27.2059 M1312.85 9.54393 L1320.3 9.54393 L1320.3 18.9825 L1312.85 18.9825 L1312.85 9.54393 Z" fill="#000000" fill-rule="nonzero" fill-opacity="1" /><path clip-path="url(#clip930)" d="M1374.7 48.0275 L1374.7 51.6733 L1340.43 51.6733 Q1340.92 59.3701 1345.05 63.421 Q1349.22 67.4314 1356.64 67.4314 Q1360.93 67.4314 1364.94 66.3781 Q1368.99 65.3249 1372.96 63.2184 L1372.96 70.267 Q1368.95 71.9684 1364.74 72.8596 Q1360.53 73.7508 1356.19 73.7508 Q1345.34 73.7508 1338.98 67.4314 Q1332.66 61.1119 1332.66 50.3365 Q1332.66 39.1965 1338.65 32.6746 Q1344.69 26.1121 1354.9 26.1121 Q1364.05 26.1121 1369.36 32.0264 Q1374.7 37.9003 1374.7 48.0275 M1367.25 45.84 Q1367.17 39.7232 1363.81 36.0774 Q1360.49 32.4315 1354.98 32.4315 Q1348.74 32.4315 1344.97 35.9558 Q1341.24 39.4801 1340.68 45.8805 L1367.25 45.84 Z" fill="#000000" fill-rule="nonzero" fill-opacity="1" /><path clip-path="url(#clip930)" d="M1415.86 28.5427 L1415.86 35.5912 Q1412.7 33.9709 1409.3 33.1607 Q1405.9 32.3505 1402.25 32.3505 Q1396.7 32.3505 1393.91 34.0519 Q1391.15 35.7533 1391.15 39.156 Q1391.15 41.7486 1393.14 43.2475 Q1395.12 44.7058 1401.12 46.0426 L1403.67 46.6097 Q1411.61 48.3111 1414.93 51.4303 Q1418.29 54.509 1418.29 60.0587 Q1418.29 66.3781 1413.27 70.0644 Q1408.29 73.7508 1399.54 73.7508 Q1395.89 73.7508 1391.92 73.0216 Q1387.99 72.3329 1383.62 70.9151 L1383.62 63.2184 Q1387.75 65.3654 1391.76 66.4591 Q1395.77 67.5124 1399.7 67.5124 Q1404.96 67.5124 1407.8 65.73 Q1410.64 63.9071 1410.64 60.6258 Q1410.64 57.5877 1408.57 55.9673 Q1406.54 54.3469 1399.62 52.8481 L1397.03 52.2405 Q1390.1 50.7821 1387.02 47.7845 Q1383.94 44.7463 1383.94 39.4801 Q1383.94 33.0797 1388.48 29.5959 Q1393.01 26.1121 1401.36 26.1121 Q1405.49 26.1121 1409.14 26.7198 Q1412.78 27.3274 1415.86 28.5427 Z" fill="#000000" fill-rule="nonzero" fill-opacity="1" /><path clip-path="url(#clip930)" d="M1489.18 28.9478 L1489.18 35.9153 Q1486.02 34.1734 1482.82 33.3227 Q1479.66 32.4315 1476.42 32.4315 Q1469.17 32.4315 1465.16 37.0496 Q1461.15 41.6271 1461.15 49.9314 Q1461.15 58.2358 1465.16 62.8538 Q1469.17 67.4314 1476.42 67.4314 Q1479.66 67.4314 1482.82 66.5807 Q1486.02 65.6895 1489.18 63.9476 L1489.18 70.8341 Q1486.06 72.2924 1482.7 73.0216 Q1479.38 73.7508 1475.61 73.7508 Q1465.36 73.7508 1459.33 67.3098 Q1453.29 60.8689 1453.29 49.9314 Q1453.29 38.832 1459.37 32.472 Q1465.49 26.1121 1476.1 26.1121 Q1479.54 26.1121 1482.82 26.8413 Q1486.1 27.5299 1489.18 28.9478 Z" fill="#000000" fill-rule="nonzero" fill-opacity="1" /><path clip-path="url(#clip930)" d="M1540.95 48.0275 L1540.95 51.6733 L1506.68 51.6733 Q1507.17 59.3701 1511.3 63.421 Q1515.47 67.4314 1522.89 67.4314 Q1527.18 67.4314 1531.19 66.3781 Q1535.24 65.3249 1539.21 63.2184 L1539.21 70.267 Q1535.2 71.9684 1530.99 72.8596 Q1526.78 73.7508 1522.44 73.7508 Q1511.58 73.7508 1505.22 67.4314 Q1498.91 61.1119 1498.91 50.3365 Q1498.91 39.1965 1504.9 32.6746 Q1510.94 26.1121 1521.14 26.1121 Q1530.3 26.1121 1535.61 32.0264 Q1540.95 37.9003 1540.95 48.0275 M1533.5 45.84 Q1533.42 39.7232 1530.06 36.0774 Q1526.74 32.4315 1521.23 32.4315 Q1514.99 32.4315 1511.22 35.9558 Q1507.49 39.4801 1506.93 45.8805 L1533.5 45.84 Z" fill="#000000" fill-rule="nonzero" fill-opacity="1" /><path clip-path="url(#clip930)" d="M1553.19 9.54393 L1560.64 9.54393 L1560.64 72.576 L1553.19 72.576 L1553.19 9.54393 Z" fill="#000000" fill-rule="nonzero" fill-opacity="1" /><path clip-path="url(#clip930)" d="M1576.24 9.54393 L1583.69 9.54393 L1583.69 72.576 L1576.24 72.576 L1576.24 9.54393 Z" fill="#000000" fill-rule="nonzero" fill-opacity="1" /><path clip-path="url(#clip930)" d="M1628.13 65.6895 L1641.5 65.6895 L1641.5 19.5497 L1626.95 22.4663 L1626.95 15.0127 L1641.42 12.096 L1649.6 12.096 L1649.6 65.6895 L1662.97 65.6895 L1662.97 72.576 L1628.13 72.576 L1628.13 65.6895 Z" fill="#000000" fill-rule="nonzero" fill-opacity="1" /><path clip-path="url(#clip930)" d="M1696.99 17.4837 Q1690.68 17.4837 1687.48 23.7221 Q1684.32 29.92 1684.32 42.3968 Q1684.32 54.833 1687.48 61.0714 Q1690.68 67.2693 1696.99 67.2693 Q1703.35 67.2693 1706.51 61.0714 Q1709.71 54.833 1709.71 42.3968 Q1709.71 29.92 1706.51 23.7221 Q1703.35 17.4837 1696.99 17.4837 M1696.99 11.0023 Q1707.16 11.0023 1712.51 19.0636 Q1717.9 27.0843 1717.9 42.3968 Q1717.9 57.6687 1712.51 65.73 Q1707.16 73.7508 1696.99 73.7508 Q1686.83 73.7508 1681.44 65.73 Q1676.09 57.6687 1676.09 42.3968 Q1676.09 27.0843 1681.44 19.0636 Q1686.83 11.0023 1696.99 11.0023 Z" fill="#000000" fill-rule="nonzero" fill-opacity="1" /><path clip-path="url(#clip930)" d="M1739.33 65.6895 L1767.89 65.6895 L1767.89 72.576 L1729.48 72.576 L1729.48 65.6895 Q1734.14 60.8689 1742.16 52.7671 Q1750.22 44.6248 1752.29 42.2752 Q1756.22 37.8598 1757.76 34.8216 Q1759.34 31.7429 1759.34 28.7857 Q1759.34 23.9651 1755.94 20.927 Q1752.57 17.8888 1747.14 17.8888 Q1743.3 17.8888 1739 19.2256 Q1734.75 20.5624 1729.89 23.2765 L1729.89 15.0127 Q1734.83 13.0277 1739.12 12.015 Q1743.42 11.0023 1746.98 11.0023 Q1756.38 11.0023 1761.97 15.7013 Q1767.56 20.4004 1767.56 28.2591 Q1767.56 31.9859 1766.14 35.3482 Q1764.77 38.6699 1761.08 43.2069 Q1760.07 44.3817 1754.64 50.0125 Q1749.21 55.6027 1739.33 65.6895 Z" fill="#000000" fill-rule="nonzero" fill-opacity="1" /><path clip-path="url(#clip930)" d="M1810.38 27.2059 L1817.83 27.2059 L1817.83 72.576 L1810.38 72.576 L1810.38 27.2059 M1810.38 9.54393 L1817.83 9.54393 L1817.83 18.9825 L1810.38 18.9825 L1810.38 9.54393 Z" fill="#000000" fill-rule="nonzero" fill-opacity="1" /><path clip-path="url(#clip930)" d="M1840.8 14.324 L1840.8 27.2059 L1856.15 27.2059 L1856.15 32.9987 L1840.8 32.9987 L1840.8 57.6282 Q1840.8 63.1779 1842.3 64.7578 Q1843.84 66.3376 1848.5 66.3376 L1856.15 66.3376 L1856.15 72.576 L1848.5 72.576 Q1839.87 72.576 1836.59 69.3758 Q1833.31 66.1351 1833.31 57.6282 L1833.31 32.9987 L1827.84 32.9987 L1827.84 27.2059 L1833.31 27.2059 L1833.31 14.324 L1840.8 14.324 Z" fill="#000000" fill-rule="nonzero" fill-opacity="1" /><path clip-path="url(#clip930)" d="M1904.77 48.0275 L1904.77 51.6733 L1870.49 51.6733 Q1870.98 59.3701 1875.11 63.421 Q1879.29 67.4314 1886.7 67.4314 Q1890.99 67.4314 1895 66.3781 Q1899.05 65.3249 1903.02 63.2184 L1903.02 70.267 Q1899.01 71.9684 1894.8 72.8596 Q1890.59 73.7508 1886.25 73.7508 Q1875.4 73.7508 1869.04 67.4314 Q1862.72 61.1119 1862.72 50.3365 Q1862.72 39.1965 1868.71 32.6746 Q1874.75 26.1121 1884.96 26.1121 Q1894.11 26.1121 1899.42 32.0264 Q1904.77 37.9003 1904.77 48.0275 M1897.31 45.84 Q1897.23 39.7232 1893.87 36.0774 Q1890.55 32.4315 1885.04 32.4315 Q1878.8 32.4315 1875.03 35.9558 Q1871.31 39.4801 1870.74 45.8805 L1897.31 45.84 Z" fill="#000000" fill-rule="nonzero" fill-opacity="1" /><path clip-path="url(#clip930)" d="M1943.29 34.1734 Q1942.03 33.4443 1940.54 33.1202 Q1939.08 32.7556 1937.29 32.7556 Q1930.97 32.7556 1927.57 36.8875 Q1924.21 40.9789 1924.21 48.6757 L1924.21 72.576 L1916.72 72.576 L1916.72 27.2059 L1924.21 27.2059 L1924.21 34.2544 Q1926.56 30.1225 1930.33 28.1376 Q1934.09 26.1121 1939.48 26.1121 Q1940.25 26.1121 1941.18 26.2337 Q1942.11 26.3147 1943.25 26.5172 L1943.29 34.1734 Z" fill="#000000" fill-rule="nonzero" fill-opacity="1" /><path clip-path="url(#clip930)" d="M1971.73 49.7694 Q1962.69 49.7694 1959.21 51.8354 Q1955.73 53.9013 1955.73 58.8839 Q1955.73 62.8538 1958.32 65.2034 Q1960.95 67.5124 1965.45 67.5124 Q1971.65 67.5124 1975.37 63.1374 Q1979.14 58.7219 1979.14 51.4303 L1979.14 49.7694 L1971.73 49.7694 M1986.59 46.6907 L1986.59 72.576 L1979.14 72.576 L1979.14 65.6895 Q1976.59 69.8214 1972.78 71.8063 Q1968.97 73.7508 1963.46 73.7508 Q1956.5 73.7508 1952.36 69.8619 Q1948.27 65.9325 1948.27 59.3701 Q1948.27 51.7138 1953.38 47.825 Q1958.52 43.9361 1968.69 43.9361 L1979.14 43.9361 L1979.14 43.2069 Q1979.14 38.0623 1975.74 35.2672 Q1972.38 32.4315 1966.26 32.4315 Q1962.37 32.4315 1958.68 33.3632 Q1955 34.295 1951.59 36.1584 L1951.59 29.2718 Q1955.69 27.692 1959.53 26.9223 Q1963.38 26.1121 1967.03 26.1121 Q1976.87 26.1121 1981.73 31.2163 Q1986.59 36.3204 1986.59 46.6907 Z" fill="#000000" fill-rule="nonzero" fill-opacity="1" /><path clip-path="url(#clip930)" d="M2009.32 14.324 L2009.32 27.2059 L2024.67 27.2059 L2024.67 32.9987 L2009.32 32.9987 L2009.32 57.6282 Q2009.32 63.1779 2010.82 64.7578 Q2012.36 66.3376 2017.02 66.3376 L2024.67 66.3376 L2024.67 72.576 L2017.02 72.576 Q2008.39 72.576 2005.11 69.3758 Q2001.83 66.1351 2001.83 57.6282 L2001.83 32.9987 L1996.36 32.9987 L1996.36 27.2059 L2001.83 27.2059 L2001.83 14.324 L2009.32 14.324 Z" fill="#000000" fill-rule="nonzero" fill-opacity="1" /><path clip-path="url(#clip930)" d="M2034.48 27.2059 L2041.93 27.2059 L2041.93 72.576 L2034.48 72.576 L2034.48 27.2059 M2034.48 9.54393 L2041.93 9.54393 L2041.93 18.9825 L2034.48 18.9825 L2034.48 9.54393 Z" fill="#000000" fill-rule="nonzero" fill-opacity="1" /><path clip-path="url(#clip930)" d="M2075.11 32.4315 Q2069.11 32.4315 2065.63 37.1306 Q2062.14 41.7891 2062.14 49.9314 Q2062.14 58.0738 2065.59 62.7728 Q2069.07 67.4314 2075.11 67.4314 Q2081.06 67.4314 2084.54 62.7323 Q2088.03 58.0333 2088.03 49.9314 Q2088.03 41.8701 2084.54 37.1711 Q2081.06 32.4315 2075.11 32.4315 M2075.11 26.1121 Q2084.83 26.1121 2090.38 32.4315 Q2095.93 38.7509 2095.93 49.9314 Q2095.93 61.0714 2090.38 67.4314 Q2084.83 73.7508 2075.11 73.7508 Q2065.34 73.7508 2059.79 67.4314 Q2054.28 61.0714 2054.28 49.9314 Q2054.28 38.7509 2059.79 32.4315 Q2065.34 26.1121 2075.11 26.1121 Z" fill="#000000" fill-rule="nonzero" fill-opacity="1" /><path clip-path="url(#clip930)" d="M2146 45.1919 L2146 72.576 L2138.54 72.576 L2138.54 45.4349 Q2138.54 38.994 2136.03 35.7938 Q2133.52 32.5936 2128.5 32.5936 Q2122.46 32.5936 2118.98 36.4419 Q2115.49 40.2903 2115.49 46.9338 L2115.49 72.576 L2108 72.576 L2108 27.2059 L2115.49 27.2059 L2115.49 34.2544 Q2118.17 30.163 2121.77 28.1376 Q2125.42 26.1121 2130.16 26.1121 Q2137.98 26.1121 2141.99 30.9732 Q2146 35.7938 2146 45.1919 Z" fill="#000000" fill-rule="nonzero" fill-opacity="1" /><path clip-path="url(#clip930)" d="M2188.37 12.096 L2220.49 12.096 L2220.49 18.9825 L2195.86 18.9825 L2195.86 33.8088 Q2197.65 33.2012 2199.43 32.9176 Q2201.21 32.5936 2202.99 32.5936 Q2213.12 32.5936 2219.03 38.1433 Q2224.95 43.6931 2224.95 53.1722 Q2224.95 62.9348 2218.87 68.3631 Q2212.8 73.7508 2201.74 73.7508 Q2197.93 73.7508 2193.96 73.1026 Q2190.03 72.4545 2185.82 71.1582 L2185.82 62.9348 Q2189.46 64.9198 2193.35 65.892 Q2197.24 66.8642 2201.58 66.8642 Q2208.58 66.8642 2212.67 63.1779 Q2216.77 59.4916 2216.77 53.1722 Q2216.77 46.8528 2212.67 43.1664 Q2208.58 39.4801 2201.58 39.4801 Q2198.29 39.4801 2195.01 40.2093 Q2191.77 40.9384 2188.37 42.4778 L2188.37 12.096 Z" fill="#000000" fill-rule="nonzero" fill-opacity="1" /><polyline clip-path="url(#clip932)" style="stroke:#009af9; stroke-linecap:round; stroke-linejoin:round; stroke-width:4; stroke-opacity:1; fill:none" points="315.545,1386.4 317.525,1379.63 319.505,1356.7 321.484,1356.49 323.464,1352.19 325.444,1348.78 327.424,1348.74 329.404,1346.74 331.384,1345.63 333.364,1345.6 335.343,1345.14 337.323,1342.67 339.303,1342.5 341.283,1341.9 343.263,1341.53 345.243,1340.34 347.223,1338.71 349.202,1334.27 351.182,1332.67 353.162,1328.71 355.142,1328.02 357.122,1326.95 359.102,1322.68 361.082,1320.91 363.061,1319.84 365.041,1319.03 367.021,1318.48 369.001,1317.47 370.981,1316.45 372.961,1316.07 374.941,1315.6 376.92,1312.19 378.9,1311.71 380.88,1311.54 382.86,1310.79 384.84,1309.82 386.82,1309.45 388.8,1309.33 390.779,1309.11 392.759,1308.37 394.739,1308.18 396.719,1307.19 398.699,1307.12 400.679,1306.12 402.659,1305.48 404.638,1305.27 406.618,1304.73 408.598,1304.2 410.578,1303.03 412.558,1302.15 414.538,1301.58 416.517,1300.19 418.497,1298.57 420.477,1296.43 422.457,1295.7 424.437,1294.87 426.417,1294.79 428.397,1293.96 430.376,1293.71 432.356,1293.38 434.336,1292.34 436.316,1292.32 438.296,1292.24 440.276,1290.6 442.256,1290.37 444.235,1289.37 446.215,1289.02 448.195,1287.74 450.175,1287.66 452.155,1287.64 454.135,1287.38 456.115,1287.15 458.094,1286.68 460.074,1286.45 462.054,1285.52 464.034,1285.15 466.014,1284.84 467.994,1284.59 469.974,1284.5 471.953,1283.61 473.933,1282.39 475.913,1282.35 477.893,1282.1 479.873,1279.66 481.853,1278.48 483.833,1278.47 485.812,1277.68 487.792,1276.93 489.772,1276.11 491.752,1275.98 493.732,1275.8 495.712,1275.69 497.692,1275.2 499.671,1275.16 501.651,1271.94 503.631,1270.73 505.611,1268.72 507.591,1267.8 509.571,1266.74 511.551,1266.64 513.53,1265.55 515.51,1265.52 517.49,1264.71 519.47,1264.41 521.45,1264.32 523.43,1264.25 525.409,1264.14 527.389,1264.13 529.369,1264.05 531.349,1262.56 533.329,1259.24 535.309,1258.61 537.289,1256.67 539.268,1256.17 541.248,1254.7 543.228,1254.67 545.208,1254.2 547.188,1251.99 549.168,1251.77 551.148,1251.39 553.127,1248.14 555.107,1247.93 557.087,1247.8 559.067,1247.55 561.047,1247.3 563.027,1246.98 565.007,1246.2 566.986,1245.7 568.966,1244.73 570.946,1244.54 572.926,1244.1 574.906,1241.97 576.886,1241.9 578.866,1240.88 580.845,1240.36 582.825,1240.28 584.805,1240.18 586.785,1239.75 588.765,1237.96 590.745,1237.88 592.725,1236.23 594.704,1235.35 596.684,1234.8 598.664,1234.05 600.644,1233.42 602.624,1232.16 604.604,1229.73 606.584,1229.73 608.563,1229.71 610.543,1229.51 612.523,1229.32 614.503,1229.26 616.483,1228.92 618.463,1228.56 620.443,1226.65 622.422,1226.09 624.402,1225.75 626.382,1225.35 628.362,1225.23 630.342,1225.23 632.322,1224.96 634.301,1224.92 636.281,1224.59 638.261,1224.55 640.241,1224.12 642.221,1223.99 644.201,1223.49 646.181,1223.4 648.16,1223.21 650.14,1221.61 652.12,1221.55 654.1,1220.71 656.08,1220.71 658.06,1220.23 660.04,1219.4 662.019,1219.17 663.999,1218.49 665.979,1217.4 667.959,1217.24 669.939,1216.8 671.919,1216.45 673.899,1216.18 675.878,1216.14 677.858,1215.6 679.838,1214.65 681.818,1214.46 683.798,1213.99 685.778,1213.32 687.758,1213.24 689.737,1213.1 691.717,1213.01 693.697,1212.63 695.677,1212.4 697.657,1211.79 699.637,1211.49 701.617,1211.03 703.596,1210.92 705.576,1210.86 707.556,1210.07 709.536,1209.71 711.516,1209.4 713.496,1209.38 715.476,1209.38 717.455,1207.56 719.435,1207.21 721.415,1206.75 723.395,1206.04 725.375,1206.03 727.355,1205.85 729.335,1205.19 731.314,1204.96 733.294,1204.52 735.274,1204.06 737.254,1203.89 739.234,1203.87 741.214,1203.8 743.194,1203.74 745.173,1203.58 747.153,1203.43 749.133,1203.14 751.113,1203.07 753.093,1202.74 755.073,1202.62 757.052,1201.92 759.032,1201.14 761.012,1200.83 762.992,1200.67 764.972,1200.62 766.952,1200.43 768.932,1200.36 770.911,1200.26 772.891,1199.07 774.871,1198.98 776.851,1198.19 778.831,1197.97 780.811,1197.96 782.791,1197.28 784.77,1197.17 786.75,1197 788.73,1196.29 790.71,1196.18 792.69,1195.02 794.67,1194.06 796.65,1193.56 798.629,1193.26 800.609,1193.19 802.589,1193.11 804.569,1192.82 806.549,1192.02 808.529,1191.93 810.509,1191.51 812.488,1191.28 814.468,1191.11 816.448,1191.11 818.428,1190.85 820.408,1189.86 822.388,1189.79 824.368,1188.91 826.347,1188.9 828.327,1188.48 830.307,1188.46 832.287,1188.29 834.267,1188.03 836.247,1187.92 838.227,1187.59 840.206,1187.42 842.186,1187.41 844.166,1187.23 846.146,1186.32 848.126,1186.09 850.106,1185.6 852.086,1185.57 854.065,1185.3 856.045,1184.35 858.025,1184.15 860.005,1184.06 861.985,1183.82 863.965,1183.77 865.944,1183.05 867.924,1182.28 869.904,1182.17 871.884,1181.54 873.864,1181.43 875.844,1180.82 877.824,1179.93 879.803,1179.49 881.783,1179.19 883.763,1178.33 885.743,1178.14 887.723,1177.73 889.703,1177.52 891.683,1177.39 893.662,1177.29 895.642,1176.68 897.622,1175.11 899.602,1174.89 901.582,1174.01 903.562,1173.67 905.542,1173 907.521,1172.86 909.501,1172.83 911.481,1172.47 913.461,1172.37 915.441,1172.31 917.421,1172.07 919.401,1170.58 921.38,1170.41 923.36,1167.06 925.34,1166.42 927.32,1165.5 929.3,1165.03 931.28,1164.72 933.26,1164.55 935.239,1164.45 937.219,1164.31 939.199,1163.97 941.179,1163.78 943.159,1162.61 945.139,1162.54 947.119,1162.39 949.098,1162.32 951.078,1161.91 953.058,1161.29 955.038,1161.2 957.018,1160.83 958.998,1159.89 960.978,1159.35 962.957,1159.35 964.937,1158.06 966.917,1158 968.897,1157.91 970.877,1157.76 972.857,1156.78 974.836,1154.71 976.816,1153.87 978.796,1152.23 980.776,1151.93 982.756,1151.72 984.736,1150.84 986.716,1150.49 988.695,1150.45 990.675,1150.01 992.655,1148.77 994.635,1148.58 996.615,1147.6 998.595,1147.15 1000.57,1146.16 1002.55,1145.28 1004.53,1145.1 1006.51,1144.81 1008.49,1143.34 1010.47,1142.67 1012.45,1142.3 1014.43,1142.26 1016.41,1141.85 1018.39,1141.31 1020.37,1141 1022.35,1140.98 1024.33,1140.09 1026.31,1140.03 1028.29,1137.14 1030.27,1136.5 1032.25,1136.32 1034.23,1136.17 1036.21,1134.08 1038.19,1133.85 1040.17,1133.84 1042.15,1133.42 1044.13,1133.29 1046.11,1132 1048.09,1131.94 1050.07,1130.81 1052.05,1130.06 1054.03,1129.89 1056.01,1129.22 1057.99,1128.43 1059.97,1128.19 1061.95,1127.05 1063.93,1123.89 1065.91,1122.91 1067.89,1121.15 1069.87,1121.1 1071.85,1119.96 1073.83,1118.73 1075.81,1117.08 1077.79,1116.82 1079.77,1116.53 1081.75,1116.36 1083.73,1116.23 1085.71,1114.53 1087.69,1113.68 1089.67,1110.54 1091.65,1110.04 1093.63,1109.79 1095.61,1107.78 1097.59,1104.36 1099.57,1103.92 1101.55,1102.98 1103.53,1102.88 1105.51,1102.53 1107.49,1099.92 1109.47,1098.9 1111.45,1096.75 1113.43,1095.48 1115.41,1095.29 1117.39,1094.32 1119.37,1094.27 1121.35,1093 1123.33,1092.04 1125.31,1091.85 1127.29,1091.45 1129.27,1090.71 1131.25,1089.59 1133.22,1088.16 1135.2,1088.16 1137.18,1087.22 1139.16,1086.32 1141.14,1085.02 1143.12,1084.45 1145.1,1084.22 1147.08,1083.6 1149.06,1082.36 1151.04,1082.31 1153.02,1082.23 1155,1080.52 1156.98,1079.14 1158.96,1076.15 1160.94,1076.05 1162.92,1075.89 1164.9,1074.05 1166.88,1072.82 1168.86,1070.66 1170.84,1070.3 1172.82,1067.53 1174.8,1064.38 1176.78,1062.48 1178.76,1061.68 1180.74,1061.53 1182.72,1060.66 1184.7,1060.66 1186.68,1058.72 1188.66,1058.56 1190.64,1058.22 1192.62,1054.97 1194.6,1054.81 1196.58,1054 1198.56,1053.19 1200.54,1051.43 1202.52,1049.91 1204.5,1048.96 1206.48,1047.43 1208.46,1046.08 1210.44,1045.72 1212.42,1045.18 1214.4,1040.44 1216.38,1040.19 1218.36,1034.67 1220.34,1028.27 1222.32,1025.88 1224.3,1024.61 1226.28,1022.85 1228.26,1021.93 1230.24,1016.75 1232.22,1015.74 1234.2,1015.13 1236.18,1011.02 1238.16,1010.23 1240.14,1009.14 1242.12,1006.69 1244.1,1005.52 1246.08,1004.08 1248.06,1001.21 1250.04,1000.14 1252.02,997.88 1254,993.479 1255.98,990.242 1257.96,988.462 1259.94,987.298 1261.92,984.121 1263.9,981.566 1265.88,980.127 1267.85,972.18 1269.83,968.559 1271.81,967.407 1273.79,966.535 1275.77,955.175 1277.75,953.877 1279.73,945.703 1281.71,937.248 1283.69,933.866 1285.67,928.219 1287.65,925.79 1289.63,900.18 1291.61,892.593 1293.59,889.318 1295.57,886.988 1297.55,885.862 1299.53,881.401 1301.51,875.941 1303.49,852.996 1305.47,847.627 1307.45,845.98 1309.43,841.782 1311.41,840.318 1313.39,840.1 1315.37,839.063 1317.35,838.539 1319.33,836.751 1321.31,835.721 1323.29,832.539 1325.27,830.73 1327.25,830.69 1329.23,830.47 1331.21,828.016 1333.19,827.267 1335.17,826.709 1337.15,825.135 1339.13,824.4 1341.11,823.33 1343.09,822.464 1345.07,820.809 1347.05,818.962 1349.03,816.604 1351.01,815.262 1352.99,814.738 1354.97,814.586 1356.95,814.584 1358.93,813.138 1360.91,811.711 1362.89,810.837 1364.87,807.002 1366.85,806.645 1368.83,806.06 1370.81,805.95 1372.79,805.408 1374.77,805.116 1376.75,805.006 1378.73,803.511 1380.71,802.661 1382.69,800.674 1384.67,800.444 1386.65,800.364 1388.63,797.746 1390.61,797.574 1392.59,795.645 1394.57,794.793 1396.55,794.643 1398.53,793.817 1400.51,793.542 1402.49,793.069 1404.46,792.796 1406.44,792.222 1408.42,792.052 1410.4,791.702 1412.38,791.529 1414.36,791.417 1416.34,790.986 1418.32,790.861 1420.3,786.156 1422.28,783.937 1424.26,783.815 1426.24,782.918 1428.22,782.534 1430.2,782.207 1432.18,782.122 1434.16,781.632 1436.14,781.167 1438.12,781.153 1440.1,781.122 1442.08,780.017 1444.06,779.946 1446.04,779.736 1448.02,778.896 1450,778.093 1451.98,777.771 1453.96,775.43 1455.94,774.397 1457.92,774.012 1459.9,773.883 1461.88,773.239 1463.86,773.234 1465.84,772.918 1467.82,771.538 1469.8,771.428 1471.78,770.422 1473.76,768.985 1475.74,767.231 1477.72,766.106 1479.7,766.076 1481.68,765.699 1483.66,763.774 1485.64,762.991 1487.62,760.448 1489.6,760.299 1491.58,759.692 1493.56,757.716 1495.54,757.1 1497.52,757.014 1499.5,756.832 1501.48,752.955 1503.46,752.778 1505.44,752.536 1507.42,751.84 1509.4,751.222 1511.38,750.854 1513.36,750.316 1515.34,749.822 1517.32,748.359 1519.3,747.434 1521.28,747.183 1523.26,745.927 1525.24,744.555 1527.22,742.743 1529.2,742.275 1531.18,742.139 1533.16,734.091 1535.14,731.414 1537.12,730.855 1539.1,730.673 1541.07,728.239 1543.05,727.948 1545.03,725.437 1547.01,725.187 1548.99,723.981 1550.97,723.836 1552.95,723.568 1554.93,722.904 1556.91,721.684 1558.89,720.278 1560.87,719.374 1562.85,718.781 1564.83,717.687 1566.81,716.399 1568.79,715.454 1570.77,715.278 1572.75,713.688 1574.73,708.567 1576.71,706.314 1578.69,704.236 1580.67,703.231 1582.65,703.057 1584.63,702.5 1586.61,702.441 1588.59,701.672 1590.57,700.585 1592.55,700.387 1594.53,700.27 1596.51,699.175 1598.49,698.321 1600.47,697.571 1602.45,696.501 1604.43,695.704 1606.41,695.088 1608.39,692.089 1610.37,691.577 1612.35,691.485 1614.33,690.777 1616.31,690.333 1618.29,689.094 1620.27,688.204 1622.25,687.159 1624.23,687.126 1626.21,686.967 1628.19,686.876 1630.17,686.636 1632.15,684.767 1634.13,683.865 1636.11,681.405 1638.09,679.525 1640.07,678.728 1642.05,678.522 1644.03,674.99 1646.01,674.15 1647.99,673.515 1649.97,673.428 1651.95,670.084 1653.93,668.483 1655.91,664.459 1657.89,662.414 1659.87,661.547 1661.85,661.371 1663.83,658.716 1665.81,657.242 1667.79,654.851 1669.77,652.148 1671.75,650.451 1673.73,646.834 1675.71,646.461 1677.68,644.979 1679.66,644.863 1681.64,639.899 1683.62,639.569 1685.6,638.162 1687.58,634.962 1689.56,634.893 1691.54,632.813 1693.52,628.272 1695.5,627.901 1697.48,626.119 1699.46,624.301 1701.44,622.349 1703.42,618.657 1705.4,618.491 1707.38,616.841 1709.36,616.161 1711.34,616.03 1713.32,615.986 1715.3,612.811 1717.28,610.357 1719.26,609.044 1721.24,607.05 1723.22,606.51 1725.2,603.62 1727.18,603.593 1729.16,602.343 1731.14,598.052 1733.12,595.517 1735.1,594.39 1737.08,593.342 1739.06,590.692 1741.04,586.927 1743.02,584.548 1745,584.407 1746.98,582.033 1748.96,580.313 1750.94,578.992 1752.92,574.323 1754.9,571.335 1756.88,570.574 1758.86,569.057 1760.84,569.056 1762.82,568.437 1764.8,568.254 1766.78,555.301 1768.76,553.801 1770.74,552.838 1772.72,550.807 1774.7,545.959 1776.68,542.271 1778.66,538.507 1780.64,537.807 1782.62,531.507 1784.6,527.71 1786.58,522.24 1788.56,515.558 1790.54,493.493 1792.52,491.347 1794.5,481.601 1796.48,477.96 1798.46,475.763 1800.44,454.401 1802.42,426.779 1804.4,426.118 1806.38,418.713 1808.36,418.359 1810.34,414.98 1812.31,400.171 1814.29,394.94 1816.27,393.025 1818.25,391.03 1820.23,386.103 1822.21,385.593 1824.19,383.803 1826.17,379.914 1828.15,376.301 1830.13,368.888 1832.11,365.252 1834.09,354.581 1836.07,352.285 1838.05,349.674 1840.03,346.958 1842.01,344.384 1843.99,342.379 1845.97,341.96 1847.95,339.516 1849.93,336.783 1851.91,336.117 1853.89,334.082 1855.87,332.981 1857.85,330.491 1859.83,330.43 1861.81,328.808 1863.79,328.211 1865.77,327.518 1867.75,322.574 1869.73,322.081 1871.71,320.761 1873.69,314.814 1875.67,311.936 1877.65,308.522 1879.63,307.988 1881.61,307.85 1883.59,304.029 1885.57,303.122 1887.55,302.035 1889.53,301.838 1891.51,301.244 1893.49,300.512 1895.47,300.104 1897.45,299.074 1899.43,298.027 1901.41,295.426 1903.39,293.215 1905.37,292.865 1907.35,289.61 1909.33,289.398 1911.31,287.596 1913.29,287.064 1915.27,284.279 1917.25,282.469 1919.23,281.953 1921.21,281.017 1923.19,280.903 1925.17,280.568 1927.15,280.51 1929.13,280.189 1931.11,277.973 1933.09,275.139 1935.07,274.58 1937.05,273.428 1939.03,273.39 1941.01,271.651 1942.99,271.589 1944.97,271.332 1946.95,271.152 1948.92,270.733 1950.9,267.497 1952.88,267.341 1954.86,265.764 1956.84,263.713 1958.82,263.038 1960.8,262.63 1962.78,261.304 1964.76,258.704 1966.74,258.57 1968.72,257.173 1970.7,255.49 1972.68,255.068 1974.66,252.973 1976.64,251.886 1978.62,250.378 1980.6,249.734 1982.58,249.398 1984.56,249.286 1986.54,248.579 1988.52,248.42 1990.5,248.33 1992.48,248.23 1994.46,248.136 1996.44,247.512 1998.42,246.883 2000.4,245.464 2002.38,244.922 2004.36,244.759 2006.34,244.514 2008.32,243.942 2010.3,243.232 2012.28,241.283 2014.26,241.068 2016.24,238.724 2018.22,238.471 2020.2,237.535 2022.18,237.319 2024.16,237.257 2026.14,236.011 2028.12,234.699 2030.1,233.477 2032.08,232.394 2034.06,232.384 2036.04,230.859 2038.02,230.158 2040,229.42 2041.98,228.75 2043.96,228.533 2045.94,228.478 2047.92,227.734 2049.9,227.679 2051.88,227.101 2053.86,225.702 2055.84,225.097 2057.82,224.698 2059.8,224.685 2061.78,224.273 2063.76,224.144 2065.74,222.453 2067.72,222.386 2069.7,222.23 2071.68,221.577 2073.66,220.954 2075.64,220.462 2077.62,218.463 2079.6,217.467 2081.58,217.128 2083.56,215.836 2085.53,215.15 2087.51,215.002 2089.49,214.64 2091.47,214.483 2093.45,213.542 2095.43,213.53 2097.41,213.32 2099.39,212.118 2101.37,211.57 2103.35,211.199 2105.33,211.043 2107.31,210.656 2109.29,210.366 2111.27,210.053 2113.25,209.557 2115.23,207.691 2117.21,207.331 2119.19,207.063 2121.17,206.025 2123.15,205.905 2125.13,205.466 2127.11,205.013 2129.09,204.401 2131.07,204.234 2133.05,203.964 2135.03,203.459 2137.01,202.32 2138.99,202.271 2140.97,201.493 2142.95,199.805 2144.93,198.699 2146.91,198.691 2148.89,197.745 2150.87,196.928 2152.85,196.249 2154.83,195.93 2156.81,195.879 2158.79,195.45 2160.77,194.355 2162.75,192.364 2164.73,190.985 2166.71,190.682 2168.69,189.889 2170.67,189.62 2172.65,189.566 2174.63,186.6 2176.61,185.716 2178.59,183.59 2180.57,182.978 2182.55,181.729 2184.53,181.69 2186.51,180.99 2188.49,180.754 2190.47,179.641 2192.45,179.496 2194.43,178.884 2196.41,178.528 2198.39,177.576 2200.37,177.571 2202.35,176.441 2204.33,175.817 2206.31,175.439 2208.29,174.909 2210.27,174.491 2212.25,174.453 2214.23,173.965 2216.21,173.789 2218.19,173.631 2220.17,173.462 2222.14,173.369 2224.12,173.004 2226.1,172.713 2228.08,171.601 2230.06,171.376 2232.04,171.223 2234.02,169.99 2236,169.8 2237.98,169.446 2239.96,168.809 2241.94,168.151 2243.92,167.961 2245.9,167.705 2247.88,166.901 2249.86,166.349 2251.84,166.006 2253.82,165.717 2255.8,165.672 2257.78,165.415 2259.76,165.375 2261.74,165.148 2263.72,165.027 2265.7,164.742 2267.68,163.823 2269.66,163.639 2271.64,163.618 2273.62,163.333 2275.6,163.116 2277.58,162.28 2279.56,162.037 2281.54,162.015 2283.52,161.62 2285.5,161.379 2287.48,161.215 2289.46,161.148 2291.44,160.827 2293.42,160.256 "/>
<path clip-path="url(#clip930)" d="M326.094 270.476 L755.354 270.476 L755.354 166.796 L326.094 166.796  Z" fill="#ffffff" fill-rule="evenodd" fill-opacity="1"/>
<polyline clip-path="url(#clip930)" style="stroke:#000000; stroke-linecap:round; stroke-linejoin:round; stroke-width:4; stroke-opacity:1; fill:none" points="326.094,270.476 755.354,270.476 755.354,166.796 326.094,166.796 326.094,270.476 "/>
<polyline clip-path="url(#clip930)" style="stroke:#009af9; stroke-linecap:round; stroke-linejoin:round; stroke-width:4; stroke-opacity:1; fill:none" points="349.389,218.636 489.158,218.636 "/>
<path clip-path="url(#clip930)" d="M534.699 202.49 L534.699 207.05 Q532.037 205.777 529.675 205.152 Q527.314 204.527 525.115 204.527 Q521.296 204.527 519.213 206.008 Q517.152 207.49 517.152 210.221 Q517.152 212.513 518.518 213.694 Q519.907 214.851 523.75 215.569 L526.574 216.147 Q531.805 217.143 534.282 219.666 Q536.782 222.166 536.782 226.379 Q536.782 231.402 533.402 233.994 Q530.046 236.587 523.541 236.587 Q521.088 236.587 518.31 236.031 Q515.555 235.476 512.592 234.388 L512.592 229.573 Q515.439 231.17 518.171 231.981 Q520.902 232.791 523.541 232.791 Q527.546 232.791 529.722 231.217 Q531.898 229.643 531.898 226.726 Q531.898 224.18 530.324 222.744 Q528.773 221.309 525.208 220.592 L522.361 220.036 Q517.129 218.995 514.791 216.772 Q512.453 214.55 512.453 210.592 Q512.453 206.008 515.671 203.37 Q518.912 200.731 524.583 200.731 Q527.013 200.731 529.537 201.171 Q532.06 201.61 534.699 202.49 Z" fill="#000000" fill-rule="nonzero" fill-opacity="1" /><path clip-path="url(#clip930)" d="M543.888 209.99 L548.148 209.99 L548.148 235.916 L543.888 235.916 L543.888 209.99 M543.888 199.897 L548.148 199.897 L548.148 205.291 L543.888 205.291 L543.888 199.897 Z" fill="#000000" fill-rule="nonzero" fill-opacity="1" /><path clip-path="url(#clip930)" d="M577.245 214.967 Q578.842 212.096 581.064 210.731 Q583.286 209.365 586.296 209.365 Q590.346 209.365 592.545 212.212 Q594.745 215.036 594.745 220.268 L594.745 235.916 L590.462 235.916 L590.462 220.407 Q590.462 216.68 589.143 214.874 Q587.823 213.069 585.115 213.069 Q581.805 213.069 579.884 215.268 Q577.962 217.467 577.962 221.263 L577.962 235.916 L573.68 235.916 L573.68 220.407 Q573.68 216.657 572.36 214.874 Q571.041 213.069 568.286 213.069 Q565.022 213.069 563.101 215.291 Q561.18 217.49 561.18 221.263 L561.18 235.916 L556.898 235.916 L556.898 209.99 L561.18 209.99 L561.18 214.018 Q562.638 211.633 564.675 210.499 Q566.712 209.365 569.513 209.365 Q572.337 209.365 574.305 210.8 Q576.296 212.235 577.245 214.967 Z" fill="#000000" fill-rule="nonzero" fill-opacity="1" /><path clip-path="url(#clip930)" d="M603.24 209.99 L607.499 209.99 L607.499 235.916 L603.24 235.916 L603.24 209.99 M603.24 199.897 L607.499 199.897 L607.499 205.291 L603.24 205.291 L603.24 199.897 Z" fill="#000000" fill-rule="nonzero" fill-opacity="1" /><path clip-path="url(#clip930)" d="M616.411 199.897 L620.67 199.897 L620.67 235.916 L616.411 235.916 L616.411 199.897 Z" fill="#000000" fill-rule="nonzero" fill-opacity="1" /><path clip-path="url(#clip930)" d="M641.365 222.883 Q636.203 222.883 634.212 224.064 Q632.221 225.244 632.221 228.092 Q632.221 230.36 633.703 231.703 Q635.207 233.022 637.777 233.022 Q641.318 233.022 643.448 230.522 Q645.601 227.999 645.601 223.832 L645.601 222.883 L641.365 222.883 M649.86 221.124 L649.86 235.916 L645.601 235.916 L645.601 231.981 Q644.142 234.342 641.967 235.476 Q639.791 236.587 636.642 236.587 Q632.661 236.587 630.3 234.365 Q627.962 232.119 627.962 228.369 Q627.962 223.994 630.879 221.772 Q633.818 219.55 639.629 219.55 L645.601 219.55 L645.601 219.133 Q645.601 216.194 643.656 214.596 Q641.735 212.976 638.24 212.976 Q636.017 212.976 633.911 213.508 Q631.805 214.041 629.86 215.106 L629.86 211.17 Q632.198 210.268 634.397 209.828 Q636.596 209.365 638.68 209.365 Q644.304 209.365 647.082 212.282 Q649.86 215.198 649.86 221.124 Z" fill="#000000" fill-rule="nonzero" fill-opacity="1" /><path clip-path="url(#clip930)" d="M673.656 213.971 Q672.939 213.555 672.082 213.37 Q671.249 213.161 670.23 213.161 Q666.619 213.161 664.675 215.522 Q662.753 217.86 662.753 222.258 L662.753 235.916 L658.471 235.916 L658.471 209.99 L662.753 209.99 L662.753 214.018 Q664.096 211.657 666.249 210.522 Q668.402 209.365 671.48 209.365 Q671.92 209.365 672.452 209.434 Q672.985 209.481 673.633 209.596 L673.656 213.971 Z" fill="#000000" fill-rule="nonzero" fill-opacity="1" /><path clip-path="url(#clip930)" d="M678.124 209.99 L682.383 209.99 L682.383 235.916 L678.124 235.916 L678.124 209.99 M678.124 199.897 L682.383 199.897 L682.383 205.291 L678.124 205.291 L678.124 199.897 Z" fill="#000000" fill-rule="nonzero" fill-opacity="1" /><path clip-path="url(#clip930)" d="M695.508 202.629 L695.508 209.99 L704.281 209.99 L704.281 213.3 L695.508 213.3 L695.508 227.374 Q695.508 230.545 696.364 231.448 Q697.244 232.351 699.906 232.351 L704.281 232.351 L704.281 235.916 L699.906 235.916 Q694.975 235.916 693.101 234.087 Q691.226 232.235 691.226 227.374 L691.226 213.3 L688.101 213.3 L688.101 209.99 L691.226 209.99 L691.226 202.629 L695.508 202.629 Z" fill="#000000" fill-rule="nonzero" fill-opacity="1" /><path clip-path="url(#clip930)" d="M720.67 238.323 Q718.864 242.953 717.151 244.365 Q715.438 245.777 712.568 245.777 L709.165 245.777 L709.165 242.212 L711.665 242.212 Q713.424 242.212 714.397 241.379 Q715.369 240.545 716.549 237.443 L717.313 235.499 L706.827 209.99 L711.341 209.99 L719.443 230.268 L727.545 209.99 L732.059 209.99 L720.67 238.323 Z" fill="#000000" fill-rule="nonzero" fill-opacity="1" /></svg>
