<?xml version="1.0" encoding="utf-8"?>
<svg xmlns="http://www.w3.org/2000/svg" xmlns:xlink="http://www.w3.org/1999/xlink" width="600" height="400" viewBox="0 0 2400 1600">
<defs>
  <clipPath id="clip980">
    <rect x="0" y="0" width="2400" height="1600"/>
  </clipPath>
</defs>
<path clip-path="url(#clip980)" d="M0 1600 L2400 1600 L2400 8.88178e-14 L0 8.88178e-14  Z" fill="#ffffff" fill-rule="evenodd" fill-opacity="1"/>
<defs>
  <clipPath id="clip981">
    <rect x="480" y="0" width="1681" height="1600"/>
  </clipPath>
</defs>
<path clip-path="url(#clip980)" d="M257.69 1423.18 L2352.76 1423.18 L2352.76 123.472 L257.69 123.472  Z" fill="#ffffff" fill-rule="evenodd" fill-opacity="1"/>
<defs>
  <clipPath id="clip982">
    <rect x="257" y="123" width="2096" height="1301"/>
  </clipPath>
</defs>
<polyline clip-path="url(#clip982)" style="stroke:#000000; stroke-linecap:round; stroke-linejoin:round; stroke-width:2; stroke-opacity:0.1; fill:none" points="315.006,1423.18 315.006,123.472 "/>
<polyline clip-path="url(#clip982)" style="stroke:#000000; stroke-linecap:round; stroke-linejoin:round; stroke-width:2; stroke-opacity:0.1; fill:none" points="809.62,1423.18 809.62,123.472 "/>
<polyline clip-path="url(#clip982)" style="stroke:#000000; stroke-linecap:round; stroke-linejoin:round; stroke-width:2; stroke-opacity:0.1; fill:none" points="1304.23,1423.18 1304.23,123.472 "/>
<polyline clip-path="url(#clip982)" style="stroke:#000000; stroke-linecap:round; stroke-linejoin:round; stroke-width:2; stroke-opacity:0.1; fill:none" points="1798.85,1423.18 1798.85,123.472 "/>
<polyline clip-path="url(#clip982)" style="stroke:#000000; stroke-linecap:round; stroke-linejoin:round; stroke-width:2; stroke-opacity:0.1; fill:none" points="2293.46,1423.18 2293.46,123.472 "/>
<polyline clip-path="url(#clip980)" style="stroke:#000000; stroke-linecap:round; stroke-linejoin:round; stroke-width:4; stroke-opacity:1; fill:none" points="257.69,1423.18 2352.76,1423.18 "/>
<polyline clip-path="url(#clip980)" style="stroke:#000000; stroke-linecap:round; stroke-linejoin:round; stroke-width:4; stroke-opacity:1; fill:none" points="315.006,1423.18 315.006,1404.28 "/>
<polyline clip-path="url(#clip980)" style="stroke:#000000; stroke-linecap:round; stroke-linejoin:round; stroke-width:4; stroke-opacity:1; fill:none" points="809.62,1423.18 809.62,1404.28 "/>
<polyline clip-path="url(#clip980)" style="stroke:#000000; stroke-linecap:round; stroke-linejoin:round; stroke-width:4; stroke-opacity:1; fill:none" points="1304.23,1423.18 1304.23,1404.28 "/>
<polyline clip-path="url(#clip980)" style="stroke:#000000; stroke-linecap:round; stroke-linejoin:round; stroke-width:4; stroke-opacity:1; fill:none" points="1798.85,1423.18 1798.85,1404.28 "/>
<polyline clip-path="url(#clip980)" style="stroke:#000000; stroke-linecap:round; stroke-linejoin:round; stroke-width:4; stroke-opacity:1; fill:none" points="2293.46,1423.18 2293.46,1404.28 "/>
<path clip-path="url(#clip980)" d="M315.006 1454.1 Q311.395 1454.1 309.566 1457.66 Q307.761 1461.2 307.761 1468.33 Q307.761 1475.44 309.566 1479.01 Q311.395 1482.55 315.006 1482.55 Q318.64 1482.55 320.446 1479.01 Q322.274 1475.44 322.274 1468.33 Q322.274 1461.2 320.446 1457.66 Q318.64 1454.1 315.006 1454.1 M315.006 1450.39 Q320.816 1450.39 323.872 1455 Q326.95 1459.58 326.95 1468.33 Q326.95 1477.06 323.872 1481.67 Q320.816 1486.25 315.006 1486.25 Q309.196 1486.25 306.117 1481.67 Q303.062 1477.06 303.062 1468.33 Q303.062 1459.58 306.117 1455 Q309.196 1450.39 315.006 1450.39 Z" fill="#000000" fill-rule="nonzero" fill-opacity="1" /><path clip-path="url(#clip980)" d="M773.312 1481.64 L789.632 1481.64 L789.632 1485.58 L767.687 1485.58 L767.687 1481.64 Q770.349 1478.89 774.933 1474.26 Q779.539 1469.61 780.72 1468.27 Q782.965 1465.74 783.845 1464.01 Q784.747 1462.25 784.747 1460.56 Q784.747 1457.8 782.803 1456.07 Q780.882 1454.33 777.78 1454.33 Q775.581 1454.33 773.127 1455.09 Q770.696 1455.86 767.919 1457.41 L767.919 1452.69 Q770.743 1451.55 773.196 1450.97 Q775.65 1450.39 777.687 1450.39 Q783.058 1450.39 786.252 1453.08 Q789.446 1455.77 789.446 1460.26 Q789.446 1462.39 788.636 1464.31 Q787.849 1466.2 785.743 1468.8 Q785.164 1469.47 782.062 1472.69 Q778.96 1475.88 773.312 1481.64 Z" fill="#000000" fill-rule="nonzero" fill-opacity="1" /><path clip-path="url(#clip980)" d="M799.493 1451.02 L817.849 1451.02 L817.849 1454.96 L803.775 1454.96 L803.775 1463.43 Q804.794 1463.08 805.812 1462.92 Q806.831 1462.73 807.849 1462.73 Q813.636 1462.73 817.016 1465.9 Q820.395 1469.08 820.395 1474.49 Q820.395 1480.07 816.923 1483.17 Q813.451 1486.25 807.131 1486.25 Q804.956 1486.25 802.687 1485.88 Q800.442 1485.51 798.034 1484.77 L798.034 1480.07 Q800.118 1481.2 802.34 1481.76 Q804.562 1482.32 807.039 1482.32 Q811.043 1482.32 813.381 1480.21 Q815.719 1478.1 815.719 1474.49 Q815.719 1470.88 813.381 1468.77 Q811.043 1466.67 807.039 1466.67 Q805.164 1466.67 803.289 1467.08 Q801.437 1467.5 799.493 1468.38 L799.493 1451.02 Z" fill="#000000" fill-rule="nonzero" fill-opacity="1" /><path clip-path="url(#clip980)" d="M839.608 1454.1 Q835.997 1454.1 834.168 1457.66 Q832.363 1461.2 832.363 1468.33 Q832.363 1475.44 834.168 1479.01 Q835.997 1482.55 839.608 1482.55 Q843.242 1482.55 845.048 1479.01 Q846.877 1475.44 846.877 1468.33 Q846.877 1461.2 845.048 1457.66 Q843.242 1454.1 839.608 1454.1 M839.608 1450.39 Q845.418 1450.39 848.474 1455 Q851.553 1459.58 851.553 1468.33 Q851.553 1477.06 848.474 1481.67 Q845.418 1486.25 839.608 1486.25 Q833.798 1486.25 830.719 1481.67 Q827.664 1477.06 827.664 1468.33 Q827.664 1459.58 830.719 1455 Q833.798 1450.39 839.608 1450.39 Z" fill="#000000" fill-rule="nonzero" fill-opacity="1" /><path clip-path="url(#clip980)" d="M1263.85 1451.02 L1282.21 1451.02 L1282.21 1454.96 L1268.13 1454.96 L1268.13 1463.43 Q1269.15 1463.08 1270.17 1462.92 Q1271.19 1462.73 1272.21 1462.73 Q1278 1462.73 1281.38 1465.9 Q1284.75 1469.08 1284.75 1474.49 Q1284.75 1480.07 1281.28 1483.17 Q1277.81 1486.25 1271.49 1486.25 Q1269.31 1486.25 1267.05 1485.88 Q1264.8 1485.51 1262.39 1484.77 L1262.39 1480.07 Q1264.48 1481.2 1266.7 1481.76 Q1268.92 1482.32 1271.4 1482.32 Q1275.4 1482.32 1277.74 1480.21 Q1280.08 1478.1 1280.08 1474.49 Q1280.08 1470.88 1277.74 1468.77 Q1275.4 1466.67 1271.4 1466.67 Q1269.52 1466.67 1267.65 1467.08 Q1265.8 1467.5 1263.85 1468.38 L1263.85 1451.02 Z" fill="#000000" fill-rule="nonzero" fill-opacity="1" /><path clip-path="url(#clip980)" d="M1303.97 1454.1 Q1300.36 1454.1 1298.53 1457.66 Q1296.72 1461.2 1296.72 1468.33 Q1296.72 1475.44 1298.53 1479.01 Q1300.36 1482.55 1303.97 1482.55 Q1307.6 1482.55 1309.41 1479.01 Q1311.24 1475.44 1311.24 1468.33 Q1311.24 1461.2 1309.41 1457.66 Q1307.6 1454.1 1303.97 1454.1 M1303.97 1450.39 Q1309.78 1450.39 1312.83 1455 Q1315.91 1459.58 1315.91 1468.33 Q1315.91 1477.06 1312.83 1481.67 Q1309.78 1486.25 1303.97 1486.25 Q1298.16 1486.25 1295.08 1481.67 Q1292.02 1477.06 1292.02 1468.33 Q1292.02 1459.58 1295.08 1455 Q1298.16 1450.39 1303.97 1450.39 Z" fill="#000000" fill-rule="nonzero" fill-opacity="1" /><path clip-path="url(#clip980)" d="M1334.13 1454.1 Q1330.52 1454.1 1328.69 1457.66 Q1326.88 1461.2 1326.88 1468.33 Q1326.88 1475.44 1328.69 1479.01 Q1330.52 1482.55 1334.13 1482.55 Q1337.76 1482.55 1339.57 1479.01 Q1341.4 1475.44 1341.4 1468.33 Q1341.4 1461.2 1339.57 1457.66 Q1337.76 1454.1 1334.13 1454.1 M1334.13 1450.39 Q1339.94 1450.39 1343 1455 Q1346.07 1459.58 1346.07 1468.33 Q1346.07 1477.06 1343 1481.67 Q1339.94 1486.25 1334.13 1486.25 Q1328.32 1486.25 1325.24 1481.67 Q1322.19 1477.06 1322.19 1468.33 Q1322.19 1459.58 1325.24 1455 Q1328.32 1450.39 1334.13 1450.39 Z" fill="#000000" fill-rule="nonzero" fill-opacity="1" /><path clip-path="url(#clip980)" d="M1757.12 1451.02 L1779.35 1451.02 L1779.35 1453.01 L1766.8 1485.58 L1761.92 1485.58 L1773.72 1454.96 L1757.12 1454.96 L1757.12 1451.02 Z" fill="#000000" fill-rule="nonzero" fill-opacity="1" /><path clip-path="url(#clip980)" d="M1788.51 1451.02 L1806.87 1451.02 L1806.87 1454.96 L1792.79 1454.96 L1792.79 1463.43 Q1793.81 1463.08 1794.83 1462.92 Q1795.85 1462.73 1796.87 1462.73 Q1802.66 1462.73 1806.04 1465.9 Q1809.41 1469.08 1809.41 1474.49 Q1809.41 1480.07 1805.94 1483.17 Q1802.47 1486.25 1796.15 1486.25 Q1793.98 1486.25 1791.71 1485.88 Q1789.46 1485.51 1787.05 1484.77 L1787.05 1480.07 Q1789.14 1481.2 1791.36 1481.76 Q1793.58 1482.32 1796.06 1482.32 Q1800.06 1482.32 1802.4 1480.21 Q1804.74 1478.1 1804.74 1474.49 Q1804.74 1470.88 1802.4 1468.77 Q1800.06 1466.67 1796.06 1466.67 Q1794.18 1466.67 1792.31 1467.08 Q1790.46 1467.5 1788.51 1468.38 L1788.51 1451.02 Z" fill="#000000" fill-rule="nonzero" fill-opacity="1" /><path clip-path="url(#clip980)" d="M1828.63 1454.1 Q1825.02 1454.1 1823.19 1457.66 Q1821.38 1461.2 1821.38 1468.33 Q1821.38 1475.44 1823.19 1479.01 Q1825.02 1482.55 1828.63 1482.55 Q1832.26 1482.55 1834.07 1479.01 Q1835.9 1475.44 1835.9 1468.33 Q1835.9 1461.2 1834.07 1457.66 Q1832.26 1454.1 1828.63 1454.1 M1828.63 1450.39 Q1834.44 1450.39 1837.49 1455 Q1840.57 1459.58 1840.57 1468.33 Q1840.57 1477.06 1837.49 1481.67 Q1834.44 1486.25 1828.63 1486.25 Q1822.82 1486.25 1819.74 1481.67 Q1816.68 1477.06 1816.68 1468.33 Q1816.68 1459.58 1819.74 1455 Q1822.82 1450.39 1828.63 1450.39 Z" fill="#000000" fill-rule="nonzero" fill-opacity="1" /><path clip-path="url(#clip980)" d="M2237.99 1481.64 L2245.63 1481.64 L2245.63 1455.28 L2237.32 1456.95 L2237.32 1452.69 L2245.58 1451.02 L2250.26 1451.02 L2250.26 1481.64 L2257.89 1481.64 L2257.89 1485.58 L2237.99 1485.58 L2237.99 1481.64 Z" fill="#000000" fill-rule="nonzero" fill-opacity="1" /><path clip-path="url(#clip980)" d="M2277.34 1454.1 Q2273.73 1454.1 2271.9 1457.66 Q2270.09 1461.2 2270.09 1468.33 Q2270.09 1475.44 2271.9 1479.01 Q2273.73 1482.55 2277.34 1482.55 Q2280.97 1482.55 2282.78 1479.01 Q2284.61 1475.44 2284.61 1468.33 Q2284.61 1461.2 2282.78 1457.66 Q2280.97 1454.1 2277.34 1454.1 M2277.34 1450.39 Q2283.15 1450.39 2286.2 1455 Q2289.28 1459.58 2289.28 1468.33 Q2289.28 1477.06 2286.2 1481.67 Q2283.15 1486.25 2277.34 1486.25 Q2271.53 1486.25 2268.45 1481.67 Q2265.39 1477.06 2265.39 1468.33 Q2265.39 1459.58 2268.45 1455 Q2271.53 1450.39 2277.34 1450.39 Z" fill="#000000" fill-rule="nonzero" fill-opacity="1" /><path clip-path="url(#clip980)" d="M2307.5 1454.1 Q2303.89 1454.1 2302.06 1457.66 Q2300.26 1461.2 2300.26 1468.33 Q2300.26 1475.44 2302.06 1479.01 Q2303.89 1482.55 2307.5 1482.55 Q2311.14 1482.55 2312.94 1479.01 Q2314.77 1475.44 2314.77 1468.33 Q2314.77 1461.2 2312.94 1457.66 Q2311.14 1454.1 2307.5 1454.1 M2307.5 1450.39 Q2313.31 1450.39 2316.37 1455 Q2319.45 1459.58 2319.45 1468.33 Q2319.45 1477.06 2316.37 1481.67 Q2313.31 1486.25 2307.5 1486.25 Q2301.69 1486.25 2298.61 1481.67 Q2295.56 1477.06 2295.56 1468.33 Q2295.56 1459.58 2298.61 1455 Q2301.69 1450.39 2307.5 1450.39 Z" fill="#000000" fill-rule="nonzero" fill-opacity="1" /><path clip-path="url(#clip980)" d="M2337.66 1454.1 Q2334.05 1454.1 2332.22 1457.66 Q2330.42 1461.2 2330.42 1468.33 Q2330.42 1475.44 2332.22 1479.01 Q2334.05 1482.55 2337.66 1482.55 Q2341.3 1482.55 2343.1 1479.01 Q2344.93 1475.44 2344.93 1468.33 Q2344.93 1461.2 2343.1 1457.66 Q2341.3 1454.1 2337.66 1454.1 M2337.66 1450.39 Q2343.47 1450.39 2346.53 1455 Q2349.61 1459.58 2349.61 1468.33 Q2349.61 1477.06 2346.53 1481.67 Q2343.47 1486.25 2337.66 1486.25 Q2331.85 1486.25 2328.77 1481.67 Q2325.72 1477.06 2325.72 1468.33 Q2325.72 1459.58 2328.77 1455 Q2331.85 1450.39 2337.66 1450.39 Z" fill="#000000" fill-rule="nonzero" fill-opacity="1" /><path clip-path="url(#clip980)" d="M1269.07 1524.18 L1269.07 1530.96 Q1265.82 1527.94 1262.13 1526.44 Q1258.47 1524.95 1254.33 1524.95 Q1246.18 1524.95 1241.85 1529.95 Q1237.52 1534.91 1237.52 1544.33 Q1237.52 1553.72 1241.85 1558.72 Q1246.18 1563.68 1254.33 1563.68 Q1258.47 1563.68 1262.13 1562.19 Q1265.82 1560.69 1269.07 1557.67 L1269.07 1564.38 Q1265.69 1566.68 1261.9 1567.82 Q1258.15 1568.97 1253.95 1568.97 Q1243.16 1568.97 1236.95 1562.38 Q1230.74 1555.76 1230.74 1544.33 Q1230.74 1532.87 1236.95 1526.28 Q1243.16 1519.66 1253.95 1519.66 Q1258.21 1519.66 1261.97 1520.81 Q1265.76 1521.92 1269.07 1524.18 Z" fill="#000000" fill-rule="nonzero" fill-opacity="1" /><path clip-path="url(#clip980)" d="M1309.23 1548.76 L1309.23 1551.62 L1282.31 1551.62 Q1282.69 1557.67 1285.93 1560.85 Q1289.21 1564 1295.04 1564 Q1298.41 1564 1301.56 1563.17 Q1304.75 1562.35 1307.86 1560.69 L1307.86 1566.23 Q1304.71 1567.57 1301.4 1568.27 Q1298.09 1568.97 1294.69 1568.97 Q1286.16 1568.97 1281.16 1564 Q1276.2 1559.04 1276.2 1550.57 Q1276.2 1541.82 1280.91 1536.69 Q1285.65 1531.54 1293.67 1531.54 Q1300.86 1531.54 1305.03 1536.18 Q1309.23 1540.8 1309.23 1548.76 M1303.38 1547.04 Q1303.31 1542.23 1300.67 1539.37 Q1298.06 1536.5 1293.73 1536.5 Q1288.83 1536.5 1285.87 1539.27 Q1282.94 1542.04 1282.5 1547.07 L1303.38 1547.04 Z" fill="#000000" fill-rule="nonzero" fill-opacity="1" /><path clip-path="url(#clip980)" d="M1318.85 1518.52 L1324.7 1518.52 L1324.7 1568.04 L1318.85 1568.04 L1318.85 1518.52 Z" fill="#000000" fill-rule="nonzero" fill-opacity="1" /><path clip-path="url(#clip980)" d="M1336.96 1518.52 L1342.81 1518.52 L1342.81 1568.04 L1336.96 1568.04 L1336.96 1518.52 Z" fill="#000000" fill-rule="nonzero" fill-opacity="1" /><path clip-path="url(#clip980)" d="M1377.79 1533.45 L1377.79 1538.98 Q1375.31 1537.71 1372.64 1537.07 Q1369.96 1536.44 1367.1 1536.44 Q1362.74 1536.44 1360.54 1537.77 Q1358.38 1539.11 1358.38 1541.79 Q1358.38 1543.82 1359.94 1545 Q1361.5 1546.15 1366.21 1547.2 L1368.21 1547.64 Q1374.45 1548.98 1377.06 1551.43 Q1379.7 1553.85 1379.7 1558.21 Q1379.7 1563.17 1375.76 1566.07 Q1371.84 1568.97 1364.97 1568.97 Q1362.1 1568.97 1358.98 1568.39 Q1355.89 1567.85 1352.46 1566.74 L1352.46 1560.69 Q1355.7 1562.38 1358.85 1563.24 Q1362.01 1564.07 1365.09 1564.07 Q1369.23 1564.07 1371.46 1562.66 Q1373.69 1561.23 1373.69 1558.65 Q1373.69 1556.27 1372.06 1554.99 Q1370.47 1553.72 1365.03 1552.54 L1362.99 1552.07 Q1357.55 1550.92 1355.13 1548.56 Q1352.71 1546.18 1352.71 1542.04 Q1352.71 1537.01 1356.28 1534.27 Q1359.84 1531.54 1366.4 1531.54 Q1369.64 1531.54 1372.51 1532.01 Q1375.37 1532.49 1377.79 1533.45 Z" fill="#000000" fill-rule="nonzero" fill-opacity="1" /><polyline clip-path="url(#clip982)" style="stroke:#000000; stroke-linecap:round; stroke-linejoin:round; stroke-width:2; stroke-opacity:0.1; fill:none" points="257.69,1279.28 2352.76,1279.28 "/>
<polyline clip-path="url(#clip982)" style="stroke:#000000; stroke-linecap:round; stroke-linejoin:round; stroke-width:2; stroke-opacity:0.1; fill:none" points="257.69,1133.88 2352.76,1133.88 "/>
<polyline clip-path="url(#clip982)" style="stroke:#000000; stroke-linecap:round; stroke-linejoin:round; stroke-width:2; stroke-opacity:0.1; fill:none" points="257.69,988.488 2352.76,988.488 "/>
<polyline clip-path="url(#clip982)" style="stroke:#000000; stroke-linecap:round; stroke-linejoin:round; stroke-width:2; stroke-opacity:0.1; fill:none" points="257.69,843.095 2352.76,843.095 "/>
<polyline clip-path="url(#clip982)" style="stroke:#000000; stroke-linecap:round; stroke-linejoin:round; stroke-width:2; stroke-opacity:0.1; fill:none" points="257.69,697.701 2352.76,697.701 "/>
<polyline clip-path="url(#clip982)" style="stroke:#000000; stroke-linecap:round; stroke-linejoin:round; stroke-width:2; stroke-opacity:0.1; fill:none" points="257.69,552.308 2352.76,552.308 "/>
<polyline clip-path="url(#clip982)" style="stroke:#000000; stroke-linecap:round; stroke-linejoin:round; stroke-width:2; stroke-opacity:0.1; fill:none" points="257.69,406.914 2352.76,406.914 "/>
<polyline clip-path="url(#clip982)" style="stroke:#000000; stroke-linecap:round; stroke-linejoin:round; stroke-width:2; stroke-opacity:0.1; fill:none" points="257.69,261.521 2352.76,261.521 "/>
<polyline clip-path="url(#clip980)" style="stroke:#000000; stroke-linecap:round; stroke-linejoin:round; stroke-width:4; stroke-opacity:1; fill:none" points="257.69,1423.18 257.69,123.472 "/>
<polyline clip-path="url(#clip980)" style="stroke:#000000; stroke-linecap:round; stroke-linejoin:round; stroke-width:4; stroke-opacity:1; fill:none" points="257.69,1279.28 276.588,1279.28 "/>
<polyline clip-path="url(#clip980)" style="stroke:#000000; stroke-linecap:round; stroke-linejoin:round; stroke-width:4; stroke-opacity:1; fill:none" points="257.69,1133.88 276.588,1133.88 "/>
<polyline clip-path="url(#clip980)" style="stroke:#000000; stroke-linecap:round; stroke-linejoin:round; stroke-width:4; stroke-opacity:1; fill:none" points="257.69,988.488 276.588,988.488 "/>
<polyline clip-path="url(#clip980)" style="stroke:#000000; stroke-linecap:round; stroke-linejoin:round; stroke-width:4; stroke-opacity:1; fill:none" points="257.69,843.095 276.588,843.095 "/>
<polyline clip-path="url(#clip980)" style="stroke:#000000; stroke-linecap:round; stroke-linejoin:round; stroke-width:4; stroke-opacity:1; fill:none" points="257.69,697.701 276.588,697.701 "/>
<polyline clip-path="url(#clip980)" style="stroke:#000000; stroke-linecap:round; stroke-linejoin:round; stroke-width:4; stroke-opacity:1; fill:none" points="257.69,552.308 276.588,552.308 "/>
<polyline clip-path="url(#clip980)" style="stroke:#000000; stroke-linecap:round; stroke-linejoin:round; stroke-width:4; stroke-opacity:1; fill:none" points="257.69,406.914 276.588,406.914 "/>
<polyline clip-path="url(#clip980)" style="stroke:#000000; stroke-linecap:round; stroke-linejoin:round; stroke-width:4; stroke-opacity:1; fill:none" points="257.69,261.521 276.588,261.521 "/>
<path clip-path="url(#clip980)" d="M114.584 1279.73 L144.26 1279.73 L144.26 1283.66 L114.584 1283.66 L114.584 1279.73 Z" fill="#000000" fill-rule="nonzero" fill-opacity="1" /><path clip-path="url(#clip980)" d="M164.352 1265.07 Q160.741 1265.07 158.913 1268.64 Q157.107 1272.18 157.107 1279.31 Q157.107 1286.42 158.913 1289.98 Q160.741 1293.52 164.352 1293.52 Q167.987 1293.52 169.792 1289.98 Q171.621 1286.42 171.621 1279.31 Q171.621 1272.18 169.792 1268.64 Q167.987 1265.07 164.352 1265.07 M164.352 1261.37 Q170.163 1261.37 173.218 1265.98 Q176.297 1270.56 176.297 1279.31 Q176.297 1288.04 173.218 1292.64 Q170.163 1297.23 164.352 1297.23 Q158.542 1297.23 155.464 1292.64 Q152.408 1288.04 152.408 1279.31 Q152.408 1270.56 155.464 1265.98 Q158.542 1261.37 164.352 1261.37 Z" fill="#000000" fill-rule="nonzero" fill-opacity="1" /><path clip-path="url(#clip980)" d="M184.514 1290.68 L189.399 1290.68 L189.399 1296.56 L184.514 1296.56 L184.514 1290.68 Z" fill="#000000" fill-rule="nonzero" fill-opacity="1" /><path clip-path="url(#clip980)" d="M210.162 1277.41 Q207.014 1277.41 205.162 1279.56 Q203.334 1281.72 203.334 1285.47 Q203.334 1289.19 205.162 1291.37 Q207.014 1293.52 210.162 1293.52 Q213.311 1293.52 215.139 1291.37 Q216.991 1289.19 216.991 1285.47 Q216.991 1281.72 215.139 1279.56 Q213.311 1277.41 210.162 1277.41 M219.445 1262.76 L219.445 1267.02 Q217.686 1266.19 215.88 1265.75 Q214.098 1265.31 212.338 1265.31 Q207.709 1265.31 205.255 1268.43 Q202.824 1271.56 202.477 1277.88 Q203.843 1275.86 205.903 1274.8 Q207.963 1273.71 210.44 1273.71 Q215.649 1273.71 218.658 1276.88 Q221.69 1280.03 221.69 1285.47 Q221.69 1290.79 218.542 1294.01 Q215.394 1297.23 210.162 1297.23 Q204.167 1297.23 200.996 1292.64 Q197.825 1288.04 197.825 1279.31 Q197.825 1271.12 201.713 1266.25 Q205.602 1261.37 212.153 1261.37 Q213.912 1261.37 215.695 1261.72 Q217.5 1262.06 219.445 1262.76 Z" fill="#000000" fill-rule="nonzero" fill-opacity="1" /><path clip-path="url(#clip980)" d="M114.26 1134.33 L143.936 1134.33 L143.936 1138.27 L114.26 1138.27 L114.26 1134.33 Z" fill="#000000" fill-rule="nonzero" fill-opacity="1" /><path clip-path="url(#clip980)" d="M164.028 1119.68 Q160.417 1119.68 158.589 1123.25 Q156.783 1126.79 156.783 1133.92 Q156.783 1141.02 158.589 1144.59 Q160.417 1148.13 164.028 1148.13 Q167.663 1148.13 169.468 1144.59 Q171.297 1141.02 171.297 1133.92 Q171.297 1126.79 169.468 1123.25 Q167.663 1119.68 164.028 1119.68 M164.028 1115.98 Q169.839 1115.98 172.894 1120.58 Q175.973 1125.17 175.973 1133.92 Q175.973 1142.64 172.894 1147.25 Q169.839 1151.83 164.028 1151.83 Q158.218 1151.83 155.14 1147.25 Q152.084 1142.64 152.084 1133.92 Q152.084 1125.17 155.14 1120.58 Q158.218 1115.98 164.028 1115.98 Z" fill="#000000" fill-rule="nonzero" fill-opacity="1" /><path clip-path="url(#clip980)" d="M184.19 1145.28 L189.075 1145.28 L189.075 1151.16 L184.19 1151.16 L184.19 1145.28 Z" fill="#000000" fill-rule="nonzero" fill-opacity="1" /><path clip-path="url(#clip980)" d="M212.107 1120.68 L200.301 1139.12 L212.107 1139.12 L212.107 1120.68 M210.88 1116.6 L216.76 1116.6 L216.76 1139.12 L221.69 1139.12 L221.69 1143.01 L216.76 1143.01 L216.76 1151.16 L212.107 1151.16 L212.107 1143.01 L196.505 1143.01 L196.505 1138.5 L210.88 1116.6 Z" fill="#000000" fill-rule="nonzero" fill-opacity="1" /><path clip-path="url(#clip980)" d="M116.343 988.94 L146.019 988.94 L146.019 992.875 L116.343 992.875 L116.343 988.94 Z" fill="#000000" fill-rule="nonzero" fill-opacity="1" /><path clip-path="url(#clip980)" d="M166.112 974.287 Q162.501 974.287 160.672 977.852 Q158.866 981.394 158.866 988.523 Q158.866 995.63 160.672 999.194 Q162.501 1002.74 166.112 1002.74 Q169.746 1002.74 171.552 999.194 Q173.38 995.63 173.38 988.523 Q173.38 981.394 171.552 977.852 Q169.746 974.287 166.112 974.287 M166.112 970.583 Q171.922 970.583 174.977 975.19 Q178.056 979.773 178.056 988.523 Q178.056 997.25 174.977 1001.86 Q171.922 1006.44 166.112 1006.44 Q160.302 1006.44 157.223 1001.86 Q154.167 997.25 154.167 988.523 Q154.167 979.773 157.223 975.19 Q160.302 970.583 166.112 970.583 Z" fill="#000000" fill-rule="nonzero" fill-opacity="1" /><path clip-path="url(#clip980)" d="M186.274 999.889 L191.158 999.889 L191.158 1005.77 L186.274 1005.77 L186.274 999.889 Z" fill="#000000" fill-rule="nonzero" fill-opacity="1" /><path clip-path="url(#clip980)" d="M205.371 1001.83 L221.69 1001.83 L221.69 1005.77 L199.746 1005.77 L199.746 1001.83 Q202.408 999.079 206.991 994.449 Q211.598 989.796 212.778 988.454 Q215.024 985.931 215.903 984.194 Q216.806 982.435 216.806 980.745 Q216.806 977.991 214.861 976.255 Q212.94 974.519 209.838 974.519 Q207.639 974.519 205.186 975.283 Q202.755 976.046 199.977 977.597 L199.977 972.875 Q202.801 971.741 205.255 971.162 Q207.709 970.583 209.746 970.583 Q215.116 970.583 218.311 973.269 Q221.505 975.954 221.505 980.445 Q221.505 982.574 220.695 984.495 Q219.908 986.394 217.801 988.986 Q217.223 989.657 214.121 992.875 Q211.019 996.069 205.371 1001.83 Z" fill="#000000" fill-rule="nonzero" fill-opacity="1" /><path clip-path="url(#clip980)" d="M164.515 828.894 Q160.903 828.894 159.075 832.458 Q157.269 836 157.269 843.13 Q157.269 850.236 159.075 853.801 Q160.903 857.343 164.515 857.343 Q168.149 857.343 169.954 853.801 Q171.783 850.236 171.783 843.13 Q171.783 836 169.954 832.458 Q168.149 828.894 164.515 828.894 M164.515 825.19 Q170.325 825.19 173.38 829.796 Q176.459 834.38 176.459 843.13 Q176.459 851.856 173.38 856.463 Q170.325 861.046 164.515 861.046 Q158.704 861.046 155.626 856.463 Q152.57 851.856 152.57 843.13 Q152.57 834.38 155.626 829.796 Q158.704 825.19 164.515 825.19 Z" fill="#000000" fill-rule="nonzero" fill-opacity="1" /><path clip-path="url(#clip980)" d="M184.676 854.495 L189.561 854.495 L189.561 860.375 L184.676 860.375 L184.676 854.495 Z" fill="#000000" fill-rule="nonzero" fill-opacity="1" /><path clip-path="url(#clip980)" d="M209.746 828.894 Q206.135 828.894 204.306 832.458 Q202.5 836 202.5 843.13 Q202.5 850.236 204.306 853.801 Q206.135 857.343 209.746 857.343 Q213.38 857.343 215.186 853.801 Q217.014 850.236 217.014 843.13 Q217.014 836 215.186 832.458 Q213.38 828.894 209.746 828.894 M209.746 825.19 Q215.556 825.19 218.611 829.796 Q221.69 834.38 221.69 843.13 Q221.69 851.856 218.611 856.463 Q215.556 861.046 209.746 861.046 Q203.936 861.046 200.857 856.463 Q197.801 851.856 197.801 843.13 Q197.801 834.38 200.857 829.796 Q203.936 825.19 209.746 825.19 Z" fill="#000000" fill-rule="nonzero" fill-opacity="1" /><path clip-path="url(#clip980)" d="M166.112 683.5 Q162.501 683.5 160.672 687.065 Q158.866 690.607 158.866 697.736 Q158.866 704.843 160.672 708.407 Q162.501 711.949 166.112 711.949 Q169.746 711.949 171.552 708.407 Q173.38 704.843 173.38 697.736 Q173.38 690.607 171.552 687.065 Q169.746 683.5 166.112 683.5 M166.112 679.796 Q171.922 679.796 174.977 684.403 Q178.056 688.986 178.056 697.736 Q178.056 706.463 174.977 711.069 Q171.922 715.653 166.112 715.653 Q160.302 715.653 157.223 711.069 Q154.167 706.463 154.167 697.736 Q154.167 688.986 157.223 684.403 Q160.302 679.796 166.112 679.796 Z" fill="#000000" fill-rule="nonzero" fill-opacity="1" /><path clip-path="url(#clip980)" d="M186.274 709.102 L191.158 709.102 L191.158 714.981 L186.274 714.981 L186.274 709.102 Z" fill="#000000" fill-rule="nonzero" fill-opacity="1" /><path clip-path="url(#clip980)" d="M205.371 711.046 L221.69 711.046 L221.69 714.981 L199.746 714.981 L199.746 711.046 Q202.408 708.292 206.991 703.662 Q211.598 699.009 212.778 697.667 Q215.024 695.144 215.903 693.407 Q216.806 691.648 216.806 689.958 Q216.806 687.204 214.861 685.468 Q212.94 683.732 209.838 683.732 Q207.639 683.732 205.186 684.495 Q202.755 685.259 199.977 686.81 L199.977 682.088 Q202.801 680.954 205.255 680.375 Q207.709 679.796 209.746 679.796 Q215.116 679.796 218.311 682.482 Q221.505 685.167 221.505 689.657 Q221.505 691.787 220.695 693.708 Q219.908 695.607 217.801 698.199 Q217.223 698.87 214.121 702.088 Q211.019 705.282 205.371 711.046 Z" fill="#000000" fill-rule="nonzero" fill-opacity="1" /><path clip-path="url(#clip980)" d="M164.028 538.107 Q160.417 538.107 158.589 541.671 Q156.783 545.213 156.783 552.343 Q156.783 559.449 158.589 563.014 Q160.417 566.555 164.028 566.555 Q167.663 566.555 169.468 563.014 Q171.297 559.449 171.297 552.343 Q171.297 545.213 169.468 541.671 Q167.663 538.107 164.028 538.107 M164.028 534.403 Q169.839 534.403 172.894 539.009 Q175.973 543.593 175.973 552.343 Q175.973 561.069 172.894 565.676 Q169.839 570.259 164.028 570.259 Q158.218 570.259 155.14 565.676 Q152.084 561.069 152.084 552.343 Q152.084 543.593 155.14 539.009 Q158.218 534.403 164.028 534.403 Z" fill="#000000" fill-rule="nonzero" fill-opacity="1" /><path clip-path="url(#clip980)" d="M184.19 563.708 L189.075 563.708 L189.075 569.588 L184.19 569.588 L184.19 563.708 Z" fill="#000000" fill-rule="nonzero" fill-opacity="1" /><path clip-path="url(#clip980)" d="M212.107 539.102 L200.301 557.551 L212.107 557.551 L212.107 539.102 M210.88 535.028 L216.76 535.028 L216.76 557.551 L221.69 557.551 L221.69 561.44 L216.76 561.44 L216.76 569.588 L212.107 569.588 L212.107 561.44 L196.505 561.44 L196.505 556.926 L210.88 535.028 Z" fill="#000000" fill-rule="nonzero" fill-opacity="1" /><path clip-path="url(#clip980)" d="M164.352 392.713 Q160.741 392.713 158.913 396.278 Q157.107 399.819 157.107 406.949 Q157.107 414.056 158.913 417.62 Q160.741 421.162 164.352 421.162 Q167.987 421.162 169.792 417.62 Q171.621 414.056 171.621 406.949 Q171.621 399.819 169.792 396.278 Q167.987 392.713 164.352 392.713 M164.352 389.009 Q170.163 389.009 173.218 393.616 Q176.297 398.199 176.297 406.949 Q176.297 415.676 173.218 420.282 Q170.163 424.866 164.352 424.866 Q158.542 424.866 155.464 420.282 Q152.408 415.676 152.408 406.949 Q152.408 398.199 155.464 393.616 Q158.542 389.009 164.352 389.009 Z" fill="#000000" fill-rule="nonzero" fill-opacity="1" /><path clip-path="url(#clip980)" d="M184.514 418.315 L189.399 418.315 L189.399 424.194 L184.514 424.194 L184.514 418.315 Z" fill="#000000" fill-rule="nonzero" fill-opacity="1" /><path clip-path="url(#clip980)" d="M210.162 405.051 Q207.014 405.051 205.162 407.204 Q203.334 409.356 203.334 413.106 Q203.334 416.833 205.162 419.009 Q207.014 421.162 210.162 421.162 Q213.311 421.162 215.139 419.009 Q216.991 416.833 216.991 413.106 Q216.991 409.356 215.139 407.204 Q213.311 405.051 210.162 405.051 M219.445 390.398 L219.445 394.657 Q217.686 393.824 215.88 393.384 Q214.098 392.945 212.338 392.945 Q207.709 392.945 205.255 396.07 Q202.824 399.195 202.477 405.514 Q203.843 403.5 205.903 402.435 Q207.963 401.347 210.44 401.347 Q215.649 401.347 218.658 404.519 Q221.69 407.667 221.69 413.106 Q221.69 418.431 218.542 421.648 Q215.394 424.866 210.162 424.866 Q204.167 424.866 200.996 420.282 Q197.825 415.676 197.825 406.949 Q197.825 398.755 201.713 393.894 Q205.602 389.009 212.153 389.009 Q213.912 389.009 215.695 389.357 Q217.5 389.704 219.445 390.398 Z" fill="#000000" fill-rule="nonzero" fill-opacity="1" /><path clip-path="url(#clip980)" d="M164.607 247.32 Q160.996 247.32 159.167 250.884 Q157.362 254.426 157.362 261.556 Q157.362 268.662 159.167 272.227 Q160.996 275.768 164.607 275.768 Q168.241 275.768 170.047 272.227 Q171.876 268.662 171.876 261.556 Q171.876 254.426 170.047 250.884 Q168.241 247.32 164.607 247.32 M164.607 243.616 Q170.417 243.616 173.473 248.222 Q176.551 252.806 176.551 261.556 Q176.551 270.282 173.473 274.889 Q170.417 279.472 164.607 279.472 Q158.797 279.472 155.718 274.889 Q152.663 270.282 152.663 261.556 Q152.663 252.806 155.718 248.222 Q158.797 243.616 164.607 243.616 Z" fill="#000000" fill-rule="nonzero" fill-opacity="1" /><path clip-path="url(#clip980)" d="M184.769 272.921 L189.653 272.921 L189.653 278.801 L184.769 278.801 L184.769 272.921 Z" fill="#000000" fill-rule="nonzero" fill-opacity="1" /><path clip-path="url(#clip980)" d="M209.838 262.389 Q206.505 262.389 204.584 264.171 Q202.686 265.954 202.686 269.079 Q202.686 272.204 204.584 273.986 Q206.505 275.768 209.838 275.768 Q213.172 275.768 215.093 273.986 Q217.014 272.181 217.014 269.079 Q217.014 265.954 215.093 264.171 Q213.195 262.389 209.838 262.389 M205.162 260.398 Q202.153 259.657 200.463 257.597 Q198.797 255.537 198.797 252.574 Q198.797 248.431 201.737 246.023 Q204.699 243.616 209.838 243.616 Q215 243.616 217.94 246.023 Q220.88 248.431 220.88 252.574 Q220.88 255.537 219.19 257.597 Q217.523 259.657 214.537 260.398 Q217.917 261.185 219.792 263.477 Q221.69 265.769 221.69 269.079 Q221.69 274.102 218.611 276.787 Q215.556 279.472 209.838 279.472 Q204.121 279.472 201.042 276.787 Q197.987 274.102 197.987 269.079 Q197.987 265.769 199.885 263.477 Q201.783 261.185 205.162 260.398 M203.449 253.014 Q203.449 255.699 205.116 257.204 Q206.806 258.708 209.838 258.708 Q212.848 258.708 214.537 257.204 Q216.25 255.699 216.25 253.014 Q216.25 250.329 214.537 248.824 Q212.848 247.32 209.838 247.32 Q206.806 247.32 205.116 248.824 Q203.449 250.329 203.449 253.014 Z" fill="#000000" fill-rule="nonzero" fill-opacity="1" /><path clip-path="url(#clip980)" d="M18.0438 893.717 L24.314 893.717 Q22.5634 897.378 21.704 900.624 Q20.8447 903.871 20.8447 906.894 Q20.8447 912.146 22.8817 915.011 Q24.9187 917.843 28.6745 917.843 Q31.8255 917.843 33.4488 915.966 Q35.0402 914.056 36.0269 908.772 L36.8226 904.889 Q38.1912 897.696 41.6605 894.29 Q45.098 890.853 50.8908 890.853 Q57.7976 890.853 61.3624 895.5 Q64.9272 900.115 64.9272 909.059 Q64.9272 912.433 64.1633 916.252 Q63.3994 920.04 61.9035 924.114 L55.2831 924.114 Q57.4793 920.199 58.5933 916.443 Q59.7073 912.687 59.7073 909.059 Q59.7073 903.552 57.543 900.561 Q55.3786 897.569 51.3682 897.569 Q47.8671 897.569 45.8937 899.733 Q43.9204 901.866 42.9337 906.767 L42.1698 910.682 Q40.7375 917.875 37.682 921.09 Q34.6264 924.305 29.1837 924.305 Q22.8817 924.305 19.2532 919.88 Q15.6248 915.424 15.6248 907.626 Q15.6248 904.284 16.2295 900.815 Q16.8343 897.346 18.0438 893.717 Z" fill="#000000" fill-rule="nonzero" fill-opacity="1" /><path clip-path="url(#clip980)" d="M28.3562 881.081 L28.3562 875.225 L64.0042 875.225 L64.0042 881.081 L28.3562 881.081 M14.479 881.081 L14.479 875.225 L21.895 875.225 L21.895 881.081 L14.479 881.081 Z" fill="#000000" fill-rule="nonzero" fill-opacity="1" /><path clip-path="url(#clip980)" d="M35.1993 835.217 Q31.2526 833.02 29.3747 829.965 Q27.4968 826.909 27.4968 822.772 Q27.4968 817.202 31.4117 814.178 Q35.2948 811.154 42.4881 811.154 L64.0042 811.154 L64.0042 817.042 L42.679 817.042 Q37.5546 817.042 35.072 818.857 Q32.5894 820.671 32.5894 824.395 Q32.5894 828.946 35.6131 831.588 Q38.6368 834.23 43.8567 834.23 L64.0042 834.23 L64.0042 840.118 L42.679 840.118 Q37.5228 840.118 35.072 841.932 Q32.5894 843.747 32.5894 847.534 Q32.5894 852.022 35.6449 854.664 Q38.6686 857.306 43.8567 857.306 L64.0042 857.306 L64.0042 863.194 L28.3562 863.194 L28.3562 857.306 L33.8944 857.306 Q30.616 855.3 29.0564 852.499 Q27.4968 849.699 27.4968 845.847 Q27.4968 841.964 29.4702 839.259 Q31.4436 836.522 35.1993 835.217 Z" fill="#000000" fill-rule="nonzero" fill-opacity="1" /><path clip-path="url(#clip980)" d="M28.3562 799.473 L28.3562 793.617 L64.0042 793.617 L64.0042 799.473 L28.3562 799.473 M14.479 799.473 L14.479 793.617 L21.895 793.617 L21.895 799.473 L14.479 799.473 Z" fill="#000000" fill-rule="nonzero" fill-opacity="1" /><path clip-path="url(#clip980)" d="M14.479 781.363 L14.479 775.506 L64.0042 775.506 L64.0042 781.363 L14.479 781.363 Z" fill="#000000" fill-rule="nonzero" fill-opacity="1" /><path clip-path="url(#clip980)" d="M46.0847 747.052 Q46.0847 754.149 47.7079 756.887 Q49.3312 759.624 53.2461 759.624 Q56.3653 759.624 58.2114 757.587 Q60.0256 755.518 60.0256 751.985 Q60.0256 747.115 56.5881 744.187 Q53.1188 741.227 47.3897 741.227 L46.0847 741.227 L46.0847 747.052 M43.6657 735.37 L64.0042 735.37 L64.0042 741.227 L58.5933 741.227 Q61.8398 743.232 63.3994 746.224 Q64.9272 749.216 64.9272 753.545 Q64.9272 759.019 61.8716 762.266 Q58.7843 765.48 53.6281 765.48 Q47.6125 765.48 44.5569 761.47 Q41.5014 757.428 41.5014 749.439 L41.5014 741.227 L40.9285 741.227 Q36.8862 741.227 34.6901 743.901 Q32.4621 746.542 32.4621 751.348 Q32.4621 754.404 33.1941 757.3 Q33.9262 760.197 35.3903 762.87 L29.9795 762.87 Q28.7381 759.656 28.1334 756.632 Q27.4968 753.608 27.4968 750.744 Q27.4968 743.009 31.5072 739.19 Q35.5176 735.37 43.6657 735.37 Z" fill="#000000" fill-rule="nonzero" fill-opacity="1" /><path clip-path="url(#clip980)" d="M33.8307 702.651 Q33.2578 703.637 33.0032 704.815 Q32.7167 705.961 32.7167 707.361 Q32.7167 712.327 35.9632 715 Q39.1779 717.642 45.2253 717.642 L64.0042 717.642 L64.0042 723.53 L28.3562 723.53 L28.3562 717.642 L33.8944 717.642 Q30.6479 715.796 29.0883 712.836 Q27.4968 709.876 27.4968 705.643 Q27.4968 705.038 27.5923 704.306 Q27.656 703.574 27.8151 702.683 L33.8307 702.651 Z" fill="#000000" fill-rule="nonzero" fill-opacity="1" /><path clip-path="url(#clip980)" d="M28.3562 696.508 L28.3562 690.651 L64.0042 690.651 L64.0042 696.508 L28.3562 696.508 M14.479 696.508 L14.479 690.651 L21.895 690.651 L21.895 696.508 L14.479 696.508 Z" fill="#000000" fill-rule="nonzero" fill-opacity="1" /><path clip-path="url(#clip980)" d="M18.2347 672.605 L28.3562 672.605 L28.3562 660.542 L32.9077 660.542 L32.9077 672.605 L52.2594 672.605 Q56.6199 672.605 57.8613 671.427 Q59.1026 670.217 59.1026 666.557 L59.1026 660.542 L64.0042 660.542 L64.0042 666.557 Q64.0042 673.337 61.4897 675.915 Q58.9434 678.493 52.2594 678.493 L32.9077 678.493 L32.9077 682.79 L28.3562 682.79 L28.3562 678.493 L18.2347 678.493 L18.2347 672.605 Z" fill="#000000" fill-rule="nonzero" fill-opacity="1" /><path clip-path="url(#clip980)" d="M67.3143 638.007 Q73.68 640.49 75.6216 642.845 Q77.5631 645.2 77.5631 649.147 L77.5631 653.826 L72.6615 653.826 L72.6615 650.388 Q72.6615 647.969 71.5157 646.633 Q70.3699 645.296 66.1048 643.672 L63.4312 642.622 L28.3562 657.04 L28.3562 650.834 L56.238 639.694 L28.3562 628.554 L28.3562 622.347 L67.3143 638.007 Z" fill="#000000" fill-rule="nonzero" fill-opacity="1" /><path clip-path="url(#clip980)" d="M423.888 14.0809 L423.888 22.0612 Q419.23 19.8332 415.098 18.7395 Q410.966 17.6457 407.117 17.6457 Q400.433 17.6457 396.787 20.2383 Q393.182 22.8309 393.182 27.611 Q393.182 31.6214 395.572 33.6873 Q398.003 35.7128 404.727 36.9686 L409.669 37.9813 Q418.824 39.7232 423.159 44.1387 Q427.534 48.5136 427.534 55.8863 Q427.534 64.6767 421.62 69.2137 Q415.746 73.7508 404.363 73.7508 Q400.069 73.7508 395.208 72.7785 Q390.387 71.8063 385.202 69.9024 L385.202 61.4765 Q390.185 64.2716 394.965 65.6895 Q399.745 67.1073 404.363 67.1073 Q411.371 67.1073 415.179 64.3527 Q418.986 61.598 418.986 56.4939 Q418.986 52.0379 416.232 49.5264 Q413.518 47.0148 407.279 45.759 L402.297 44.7868 Q393.142 42.9639 389.05 39.075 Q384.959 35.1862 384.959 28.2591 Q384.959 20.2383 390.59 15.6203 Q396.261 11.0023 406.186 11.0023 Q410.439 11.0023 414.855 11.7719 Q419.27 12.5416 423.888 14.0809 Z" fill="#000000" fill-rule="nonzero" fill-opacity="1" /><path clip-path="url(#clip980)" d="M457.551 32.4315 Q451.556 32.4315 448.072 37.1306 Q444.588 41.7891 444.588 49.9314 Q444.588 58.0738 448.031 62.7728 Q451.515 67.4314 457.551 67.4314 Q463.506 67.4314 466.99 62.7323 Q470.473 58.0333 470.473 49.9314 Q470.473 41.8701 466.99 37.1711 Q463.506 32.4315 457.551 32.4315 M457.551 26.1121 Q467.273 26.1121 472.823 32.4315 Q478.373 38.7509 478.373 49.9314 Q478.373 61.0714 472.823 67.4314 Q467.273 73.7508 457.551 73.7508 Q447.788 73.7508 442.239 67.4314 Q436.729 61.0714 436.729 49.9314 Q436.729 38.7509 442.239 32.4315 Q447.788 26.1121 457.551 26.1121 Z" fill="#000000" fill-rule="nonzero" fill-opacity="1" /><path clip-path="url(#clip980)" d="M517.018 34.1734 Q515.763 33.4443 514.264 33.1202 Q512.805 32.7556 511.023 32.7556 Q504.704 32.7556 501.301 36.8875 Q497.939 40.9789 497.939 48.6757 L497.939 72.576 L490.444 72.576 L490.444 27.2059 L497.939 27.2059 L497.939 34.2544 Q500.288 30.1225 504.055 28.1376 Q507.823 26.1121 513.21 26.1121 Q513.98 26.1121 514.912 26.2337 Q515.844 26.3147 516.978 26.5172 L517.018 34.1734 Z" fill="#000000" fill-rule="nonzero" fill-opacity="1" /><path clip-path="url(#clip980)" d="M532.209 14.324 L532.209 27.2059 L547.562 27.2059 L547.562 32.9987 L532.209 32.9987 L532.209 57.6282 Q532.209 63.1779 533.708 64.7578 Q535.247 66.3376 539.906 66.3376 L547.562 66.3376 L547.562 72.576 L539.906 72.576 Q531.278 72.576 527.996 69.3758 Q524.715 66.1351 524.715 57.6282 L524.715 32.9987 L519.246 32.9987 L519.246 27.2059 L524.715 27.2059 L524.715 14.324 L532.209 14.324 Z" fill="#000000" fill-rule="nonzero" fill-opacity="1" /><path clip-path="url(#clip980)" d="M596.173 48.0275 L596.173 51.6733 L561.902 51.6733 Q562.388 59.3701 566.52 63.421 Q570.693 67.4314 578.106 67.4314 Q582.4 67.4314 586.41 66.3781 Q590.461 65.3249 594.431 63.2184 L594.431 70.267 Q590.421 71.9684 586.208 72.8596 Q581.995 73.7508 577.66 73.7508 Q566.804 73.7508 560.444 67.4314 Q554.125 61.1119 554.125 50.3365 Q554.125 39.1965 560.12 32.6746 Q566.156 26.1121 576.364 26.1121 Q585.519 26.1121 590.826 32.0264 Q596.173 37.9003 596.173 48.0275 M588.719 45.84 Q588.638 39.7232 585.276 36.0774 Q581.954 32.4315 576.445 32.4315 Q570.207 32.4315 566.439 35.9558 Q562.713 39.4801 562.145 45.8805 L588.719 45.84 Z" fill="#000000" fill-rule="nonzero" fill-opacity="1" /><path clip-path="url(#clip980)" d="M638.262 34.0924 L638.262 9.54393 L645.716 9.54393 L645.716 72.576 L638.262 72.576 L638.262 65.7705 Q635.912 69.8214 632.307 71.8063 Q628.742 73.7508 623.719 73.7508 Q615.496 73.7508 610.311 67.1883 Q605.166 60.6258 605.166 49.9314 Q605.166 39.2371 610.311 32.6746 Q615.496 26.1121 623.719 26.1121 Q628.742 26.1121 632.307 28.0971 Q635.912 30.0415 638.262 34.0924 M612.863 49.9314 Q612.863 58.1548 616.225 62.8538 Q619.628 67.5124 625.542 67.5124 Q631.456 67.5124 634.859 62.8538 Q638.262 58.1548 638.262 49.9314 Q638.262 41.7081 634.859 37.0496 Q631.456 32.3505 625.542 32.3505 Q619.628 32.3505 616.225 37.0496 Q612.863 41.7081 612.863 49.9314 Z" fill="#000000" fill-rule="nonzero" fill-opacity="1" /><path clip-path="url(#clip980)" d="M720.09 28.9478 L720.09 35.9153 Q716.93 34.1734 713.73 33.3227 Q710.571 32.4315 707.33 32.4315 Q700.079 32.4315 696.068 37.0496 Q692.058 41.6271 692.058 49.9314 Q692.058 58.2358 696.068 62.8538 Q700.079 67.4314 707.33 67.4314 Q710.571 67.4314 713.73 66.5807 Q716.93 65.6895 720.09 63.9476 L720.09 70.8341 Q716.971 72.2924 713.609 73.0216 Q710.287 73.7508 706.52 73.7508 Q696.271 73.7508 690.235 67.3098 Q684.199 60.8689 684.199 49.9314 Q684.199 38.832 690.276 32.472 Q696.392 26.1121 707.006 26.1121 Q710.449 26.1121 713.73 26.8413 Q717.011 27.5299 720.09 28.9478 Z" fill="#000000" fill-rule="nonzero" fill-opacity="1" /><path clip-path="url(#clip980)" d="M750.634 32.4315 Q744.639 32.4315 741.155 37.1306 Q737.671 41.7891 737.671 49.9314 Q737.671 58.0738 741.114 62.7728 Q744.598 67.4314 750.634 67.4314 Q756.589 67.4314 760.073 62.7323 Q763.556 58.0333 763.556 49.9314 Q763.556 41.8701 760.073 37.1711 Q756.589 32.4315 750.634 32.4315 M750.634 26.1121 Q760.356 26.1121 765.906 32.4315 Q771.456 38.7509 771.456 49.9314 Q771.456 61.0714 765.906 67.4314 Q760.356 73.7508 750.634 73.7508 Q740.871 73.7508 735.322 67.4314 Q729.812 61.0714 729.812 49.9314 Q729.812 38.7509 735.322 32.4315 Q740.871 26.1121 750.634 26.1121 Z" fill="#000000" fill-rule="nonzero" fill-opacity="1" /><path clip-path="url(#clip980)" d="M812.734 28.5427 L812.734 35.5912 Q809.575 33.9709 806.172 33.1607 Q802.769 32.3505 799.123 32.3505 Q793.574 32.3505 790.778 34.0519 Q788.024 35.7533 788.024 39.156 Q788.024 41.7486 790.009 43.2475 Q791.994 44.7058 797.989 46.0426 L800.541 46.6097 Q808.481 48.3111 811.803 51.4303 Q815.165 54.509 815.165 60.0587 Q815.165 66.3781 810.142 70.0644 Q805.159 73.7508 796.409 73.7508 Q792.763 73.7508 788.793 73.0216 Q784.864 72.3329 780.489 70.9151 L780.489 63.2184 Q784.621 65.3654 788.631 66.4591 Q792.642 67.5124 796.571 67.5124 Q801.837 67.5124 804.673 65.73 Q807.509 63.9071 807.509 60.6258 Q807.509 57.5877 805.443 55.9673 Q803.417 54.3469 796.49 52.8481 L793.898 52.2405 Q786.971 50.7821 783.892 47.7845 Q780.813 44.7463 780.813 39.4801 Q780.813 33.0797 785.35 29.5959 Q789.887 26.1121 798.232 26.1121 Q802.364 26.1121 806.01 26.7198 Q809.656 27.3274 812.734 28.5427 Z" fill="#000000" fill-rule="nonzero" fill-opacity="1" /><path clip-path="url(#clip980)" d="M827.034 27.2059 L834.488 27.2059 L834.488 72.576 L827.034 72.576 L827.034 27.2059 M827.034 9.54393 L834.488 9.54393 L834.488 18.9825 L827.034 18.9825 L827.034 9.54393 Z" fill="#000000" fill-rule="nonzero" fill-opacity="1" /><path clip-path="url(#clip980)" d="M887.798 45.1919 L887.798 72.576 L880.344 72.576 L880.344 45.4349 Q880.344 38.994 877.832 35.7938 Q875.321 32.5936 870.298 32.5936 Q864.262 32.5936 860.778 36.4419 Q857.294 40.2903 857.294 46.9338 L857.294 72.576 L849.8 72.576 L849.8 27.2059 L857.294 27.2059 L857.294 34.2544 Q859.968 30.163 863.573 28.1376 Q867.219 26.1121 871.959 26.1121 Q879.777 26.1121 883.787 30.9732 Q887.798 35.7938 887.798 45.1919 Z" fill="#000000" fill-rule="nonzero" fill-opacity="1" /><path clip-path="url(#clip980)" d="M941.472 48.0275 L941.472 51.6733 L907.201 51.6733 Q907.688 59.3701 911.819 63.421 Q915.992 67.4314 923.405 67.4314 Q927.699 67.4314 931.709 66.3781 Q935.76 65.3249 939.73 63.2184 L939.73 70.267 Q935.72 71.9684 931.507 72.8596 Q927.294 73.7508 922.959 73.7508 Q912.103 73.7508 905.743 67.4314 Q899.424 61.1119 899.424 50.3365 Q899.424 39.1965 905.419 32.6746 Q911.455 26.1121 921.663 26.1121 Q930.818 26.1121 936.125 32.0264 Q941.472 37.9003 941.472 48.0275 M934.018 45.84 Q933.937 39.7232 930.575 36.0774 Q927.253 32.4315 921.744 32.4315 Q915.506 32.4315 911.738 35.9558 Q908.012 39.4801 907.444 45.8805 L934.018 45.84 Z" fill="#000000" fill-rule="nonzero" fill-opacity="1" /><path clip-path="url(#clip980)" d="M1009 28.5427 L1009 35.5912 Q1005.84 33.9709 1002.44 33.1607 Q999.035 32.3505 995.39 32.3505 Q989.84 32.3505 987.045 34.0519 Q984.29 35.7533 984.29 39.156 Q984.29 41.7486 986.275 43.2475 Q988.26 44.7058 994.255 46.0426 L996.807 46.6097 Q1004.75 48.3111 1008.07 51.4303 Q1011.43 54.509 1011.43 60.0587 Q1011.43 66.3781 1006.41 70.0644 Q1001.43 73.7508 992.676 73.7508 Q989.03 73.7508 985.06 73.0216 Q981.13 72.3329 976.755 70.9151 L976.755 63.2184 Q980.887 65.3654 984.898 66.4591 Q988.908 67.5124 992.838 67.5124 Q998.104 67.5124 1000.94 65.73 Q1003.77 63.9071 1003.77 60.6258 Q1003.77 57.5877 1001.71 55.9673 Q999.684 54.3469 992.757 52.8481 L990.164 52.2405 Q983.237 50.7821 980.158 47.7845 Q977.08 44.7463 977.08 39.4801 Q977.08 33.0797 981.617 29.5959 Q986.154 26.1121 994.498 26.1121 Q998.63 26.1121 1002.28 26.7198 Q1005.92 27.3274 1009 28.5427 Z" fill="#000000" fill-rule="nonzero" fill-opacity="1" /><path clip-path="url(#clip980)" d="M1023.3 27.2059 L1030.75 27.2059 L1030.75 72.576 L1023.3 72.576 L1023.3 27.2059 M1023.3 9.54393 L1030.75 9.54393 L1030.75 18.9825 L1023.3 18.9825 L1023.3 9.54393 Z" fill="#000000" fill-rule="nonzero" fill-opacity="1" /><path clip-path="url(#clip980)" d="M1081.67 35.9153 Q1084.47 30.8922 1088.36 28.5022 Q1092.25 26.1121 1097.51 26.1121 Q1104.6 26.1121 1108.45 31.0947 Q1112.3 36.0368 1112.3 45.1919 L1112.3 72.576 L1104.8 72.576 L1104.8 45.4349 Q1104.8 38.913 1102.5 35.7533 Q1100.19 32.5936 1095.45 32.5936 Q1089.65 32.5936 1086.29 36.4419 Q1082.93 40.2903 1082.93 46.9338 L1082.93 72.576 L1075.44 72.576 L1075.44 45.4349 Q1075.44 38.8725 1073.13 35.7533 Q1070.82 32.5936 1066 32.5936 Q1060.29 32.5936 1056.92 36.4824 Q1053.56 40.3308 1053.56 46.9338 L1053.56 72.576 L1046.07 72.576 L1046.07 27.2059 L1053.56 27.2059 L1053.56 34.2544 Q1056.11 30.082 1059.68 28.0971 Q1063.24 26.1121 1068.14 26.1121 Q1073.09 26.1121 1076.53 28.6237 Q1080.01 31.1352 1081.67 35.9153 Z" fill="#000000" fill-rule="nonzero" fill-opacity="1" /><path clip-path="url(#clip980)" d="M1127.17 27.2059 L1134.62 27.2059 L1134.62 72.576 L1127.17 72.576 L1127.17 27.2059 M1127.17 9.54393 L1134.62 9.54393 L1134.62 18.9825 L1127.17 18.9825 L1127.17 9.54393 Z" fill="#000000" fill-rule="nonzero" fill-opacity="1" /><path clip-path="url(#clip980)" d="M1150.22 9.54393 L1157.67 9.54393 L1157.67 72.576 L1150.22 72.576 L1150.22 9.54393 Z" fill="#000000" fill-rule="nonzero" fill-opacity="1" /><path clip-path="url(#clip980)" d="M1193.88 49.7694 Q1184.85 49.7694 1181.37 51.8354 Q1177.88 53.9013 1177.88 58.8839 Q1177.88 62.8538 1180.48 65.2034 Q1183.11 67.5124 1187.61 67.5124 Q1193.8 67.5124 1197.53 63.1374 Q1201.3 58.7219 1201.3 51.4303 L1201.3 49.7694 L1193.88 49.7694 M1208.75 46.6907 L1208.75 72.576 L1201.3 72.576 L1201.3 65.6895 Q1198.75 69.8214 1194.94 71.8063 Q1191.13 73.7508 1185.62 73.7508 Q1178.65 73.7508 1174.52 69.8619 Q1170.43 65.9325 1170.43 59.3701 Q1170.43 51.7138 1175.53 47.825 Q1180.68 43.9361 1190.85 43.9361 L1201.3 43.9361 L1201.3 43.2069 Q1201.3 38.0623 1197.89 35.2672 Q1194.53 32.4315 1188.42 32.4315 Q1184.53 32.4315 1180.84 33.3632 Q1177.15 34.295 1173.75 36.1584 L1173.75 29.2718 Q1177.84 27.692 1181.69 26.9223 Q1185.54 26.1121 1189.18 26.1121 Q1199.03 26.1121 1203.89 31.2163 Q1208.75 36.3204 1208.75 46.6907 Z" fill="#000000" fill-rule="nonzero" fill-opacity="1" /><path clip-path="url(#clip980)" d="M1250.39 34.1734 Q1249.14 33.4443 1247.64 33.1202 Q1246.18 32.7556 1244.4 32.7556 Q1238.08 32.7556 1234.68 36.8875 Q1231.31 40.9789 1231.31 48.6757 L1231.31 72.576 L1223.82 72.576 L1223.82 27.2059 L1231.31 27.2059 L1231.31 34.2544 Q1233.66 30.1225 1237.43 28.1376 Q1241.2 26.1121 1246.59 26.1121 Q1247.36 26.1121 1248.29 26.2337 Q1249.22 26.3147 1250.35 26.5172 L1250.39 34.1734 Z" fill="#000000" fill-rule="nonzero" fill-opacity="1" /><path clip-path="url(#clip980)" d="M1258.21 27.2059 L1265.67 27.2059 L1265.67 72.576 L1258.21 72.576 L1258.21 27.2059 M1258.21 9.54393 L1265.67 9.54393 L1265.67 18.9825 L1258.21 18.9825 L1258.21 9.54393 Z" fill="#000000" fill-rule="nonzero" fill-opacity="1" /><path clip-path="url(#clip980)" d="M1288.63 14.324 L1288.63 27.2059 L1303.99 27.2059 L1303.99 32.9987 L1288.63 32.9987 L1288.63 57.6282 Q1288.63 63.1779 1290.13 64.7578 Q1291.67 66.3376 1296.33 66.3376 L1303.99 66.3376 L1303.99 72.576 L1296.33 72.576 Q1287.7 72.576 1284.42 69.3758 Q1281.14 66.1351 1281.14 57.6282 L1281.14 32.9987 L1275.67 32.9987 L1275.67 27.2059 L1281.14 27.2059 L1281.14 14.324 L1288.63 14.324 Z" fill="#000000" fill-rule="nonzero" fill-opacity="1" /><path clip-path="url(#clip980)" d="M1313.79 27.2059 L1321.24 27.2059 L1321.24 72.576 L1313.79 72.576 L1313.79 27.2059 M1313.79 9.54393 L1321.24 9.54393 L1321.24 18.9825 L1313.79 18.9825 L1313.79 9.54393 Z" fill="#000000" fill-rule="nonzero" fill-opacity="1" /><path clip-path="url(#clip980)" d="M1375.65 48.0275 L1375.65 51.6733 L1341.38 51.6733 Q1341.86 59.3701 1346 63.421 Q1350.17 67.4314 1357.58 67.4314 Q1361.87 67.4314 1365.89 66.3781 Q1369.94 65.3249 1373.91 63.2184 L1373.91 70.267 Q1369.9 71.9684 1365.68 72.8596 Q1361.47 73.7508 1357.14 73.7508 Q1346.28 73.7508 1339.92 67.4314 Q1333.6 61.1119 1333.6 50.3365 Q1333.6 39.1965 1339.59 32.6746 Q1345.63 26.1121 1355.84 26.1121 Q1364.99 26.1121 1370.3 32.0264 Q1375.65 37.9003 1375.65 48.0275 M1368.19 45.84 Q1368.11 39.7232 1364.75 36.0774 Q1361.43 32.4315 1355.92 32.4315 Q1349.68 32.4315 1345.91 35.9558 Q1342.19 39.4801 1341.62 45.8805 L1368.19 45.84 Z" fill="#000000" fill-rule="nonzero" fill-opacity="1" /><path clip-path="url(#clip980)" d="M1416.81 28.5427 L1416.81 35.5912 Q1413.65 33.9709 1410.24 33.1607 Q1406.84 32.3505 1403.19 32.3505 Q1397.64 32.3505 1394.85 34.0519 Q1392.09 35.7533 1392.09 39.156 Q1392.09 41.7486 1394.08 43.2475 Q1396.06 44.7058 1402.06 46.0426 L1404.61 46.6097 Q1412.55 48.3111 1415.87 51.4303 Q1419.24 54.509 1419.24 60.0587 Q1419.24 66.3781 1414.21 70.0644 Q1409.23 73.7508 1400.48 73.7508 Q1396.83 73.7508 1392.86 73.0216 Q1388.93 72.3329 1384.56 70.9151 L1384.56 63.2184 Q1388.69 65.3654 1392.7 66.4591 Q1396.71 67.5124 1400.64 67.5124 Q1405.91 67.5124 1408.74 65.73 Q1411.58 63.9071 1411.58 60.6258 Q1411.58 57.5877 1409.51 55.9673 Q1407.49 54.3469 1400.56 52.8481 L1397.97 52.2405 Q1391.04 50.7821 1387.96 47.7845 Q1384.88 44.7463 1384.88 39.4801 Q1384.88 33.0797 1389.42 29.5959 Q1393.96 26.1121 1402.3 26.1121 Q1406.43 26.1121 1410.08 26.7198 Q1413.73 27.3274 1416.81 28.5427 Z" fill="#000000" fill-rule="nonzero" fill-opacity="1" /><path clip-path="url(#clip980)" d="M1490.13 28.9478 L1490.13 35.9153 Q1486.97 34.1734 1483.77 33.3227 Q1480.61 32.4315 1477.37 32.4315 Q1470.12 32.4315 1466.1 37.0496 Q1462.09 41.6271 1462.09 49.9314 Q1462.09 58.2358 1466.1 62.8538 Q1470.12 67.4314 1477.37 67.4314 Q1480.61 67.4314 1483.77 66.5807 Q1486.97 65.6895 1490.13 63.9476 L1490.13 70.8341 Q1487.01 72.2924 1483.65 73.0216 Q1480.32 73.7508 1476.56 73.7508 Q1466.31 73.7508 1460.27 67.3098 Q1454.24 60.8689 1454.24 49.9314 Q1454.24 38.832 1460.31 32.472 Q1466.43 26.1121 1477.04 26.1121 Q1480.49 26.1121 1483.77 26.8413 Q1487.05 27.5299 1490.13 28.9478 Z" fill="#000000" fill-rule="nonzero" fill-opacity="1" /><path clip-path="url(#clip980)" d="M1541.9 48.0275 L1541.9 51.6733 L1507.63 51.6733 Q1508.11 59.3701 1512.24 63.421 Q1516.42 67.4314 1523.83 67.4314 Q1528.12 67.4314 1532.13 66.3781 Q1536.19 65.3249 1540.16 63.2184 L1540.16 70.267 Q1536.14 71.9684 1531.93 72.8596 Q1527.72 73.7508 1523.38 73.7508 Q1512.53 73.7508 1506.17 67.4314 Q1499.85 61.1119 1499.85 50.3365 Q1499.85 39.1965 1505.84 32.6746 Q1511.88 26.1121 1522.09 26.1121 Q1531.24 26.1121 1536.55 32.0264 Q1541.9 37.9003 1541.9 48.0275 M1534.44 45.84 Q1534.36 39.7232 1531 36.0774 Q1527.68 32.4315 1522.17 32.4315 Q1515.93 32.4315 1512.16 35.9558 Q1508.44 39.4801 1507.87 45.8805 L1534.44 45.84 Z" fill="#000000" fill-rule="nonzero" fill-opacity="1" /><path clip-path="url(#clip980)" d="M1554.13 9.54393 L1561.58 9.54393 L1561.58 72.576 L1554.13 72.576 L1554.13 9.54393 Z" fill="#000000" fill-rule="nonzero" fill-opacity="1" /><path clip-path="url(#clip980)" d="M1577.18 9.54393 L1584.63 9.54393 L1584.63 72.576 L1577.18 72.576 L1577.18 9.54393 Z" fill="#000000" fill-rule="nonzero" fill-opacity="1" /><path clip-path="url(#clip980)" d="M1629.07 65.6895 L1642.44 65.6895 L1642.44 19.5497 L1627.9 22.4663 L1627.9 15.0127 L1642.36 12.096 L1650.54 12.096 L1650.54 65.6895 L1663.91 65.6895 L1663.91 72.576 L1629.07 72.576 L1629.07 65.6895 Z" fill="#000000" fill-rule="nonzero" fill-opacity="1" /><path clip-path="url(#clip980)" d="M1697.94 17.4837 Q1691.62 17.4837 1688.42 23.7221 Q1685.26 29.92 1685.26 42.3968 Q1685.26 54.833 1688.42 61.0714 Q1691.62 67.2693 1697.94 67.2693 Q1704.3 67.2693 1707.46 61.0714 Q1710.66 54.833 1710.66 42.3968 Q1710.66 29.92 1707.46 23.7221 Q1704.3 17.4837 1697.94 17.4837 M1697.94 11.0023 Q1708.11 11.0023 1713.45 19.0636 Q1718.84 27.0843 1718.84 42.3968 Q1718.84 57.6687 1713.45 65.73 Q1708.11 73.7508 1697.94 73.7508 Q1687.77 73.7508 1682.38 65.73 Q1677.04 57.6687 1677.04 42.3968 Q1677.04 27.0843 1682.38 19.0636 Q1687.77 11.0023 1697.94 11.0023 Z" fill="#000000" fill-rule="nonzero" fill-opacity="1" /><path clip-path="url(#clip980)" d="M1734.64 65.6895 L1748.01 65.6895 L1748.01 19.5497 L1733.46 22.4663 L1733.46 15.0127 L1747.93 12.096 L1756.11 12.096 L1756.11 65.6895 L1769.48 65.6895 L1769.48 72.576 L1734.64 72.576 L1734.64 65.6895 Z" fill="#000000" fill-rule="nonzero" fill-opacity="1" /><path clip-path="url(#clip980)" d="M1811.32 27.2059 L1818.78 27.2059 L1818.78 72.576 L1811.32 72.576 L1811.32 27.2059 M1811.32 9.54393 L1818.78 9.54393 L1818.78 18.9825 L1811.32 18.9825 L1811.32 9.54393 Z" fill="#000000" fill-rule="nonzero" fill-opacity="1" /><path clip-path="url(#clip980)" d="M1841.75 14.324 L1841.75 27.2059 L1857.1 27.2059 L1857.1 32.9987 L1841.75 32.9987 L1841.75 57.6282 Q1841.75 63.1779 1843.24 64.7578 Q1844.78 66.3376 1849.44 66.3376 L1857.1 66.3376 L1857.1 72.576 L1849.44 72.576 Q1840.81 72.576 1837.53 69.3758 Q1834.25 66.1351 1834.25 57.6282 L1834.25 32.9987 L1828.78 32.9987 L1828.78 27.2059 L1834.25 27.2059 L1834.25 14.324 L1841.75 14.324 Z" fill="#000000" fill-rule="nonzero" fill-opacity="1" /><path clip-path="url(#clip980)" d="M1905.71 48.0275 L1905.71 51.6733 L1871.44 51.6733 Q1871.92 59.3701 1876.06 63.421 Q1880.23 67.4314 1887.64 67.4314 Q1891.94 67.4314 1895.95 66.3781 Q1900 65.3249 1903.97 63.2184 L1903.97 70.267 Q1899.96 71.9684 1895.74 72.8596 Q1891.53 73.7508 1887.2 73.7508 Q1876.34 73.7508 1869.98 67.4314 Q1863.66 61.1119 1863.66 50.3365 Q1863.66 39.1965 1869.66 32.6746 Q1875.69 26.1121 1885.9 26.1121 Q1895.05 26.1121 1900.36 32.0264 Q1905.71 37.9003 1905.71 48.0275 M1898.26 45.84 Q1898.17 39.7232 1894.81 36.0774 Q1891.49 32.4315 1885.98 32.4315 Q1879.74 32.4315 1875.98 35.9558 Q1872.25 39.4801 1871.68 45.8805 L1898.26 45.84 Z" fill="#000000" fill-rule="nonzero" fill-opacity="1" /><path clip-path="url(#clip980)" d="M1944.23 34.1734 Q1942.98 33.4443 1941.48 33.1202 Q1940.02 32.7556 1938.24 32.7556 Q1931.92 32.7556 1928.52 36.8875 Q1925.15 40.9789 1925.15 48.6757 L1925.15 72.576 L1917.66 72.576 L1917.66 27.2059 L1925.15 27.2059 L1925.15 34.2544 Q1927.5 30.1225 1931.27 28.1376 Q1935.04 26.1121 1940.43 26.1121 Q1941.19 26.1121 1942.13 26.2337 Q1943.06 26.3147 1944.19 26.5172 L1944.23 34.1734 Z" fill="#000000" fill-rule="nonzero" fill-opacity="1" /><path clip-path="url(#clip980)" d="M1972.67 49.7694 Q1963.64 49.7694 1960.15 51.8354 Q1956.67 53.9013 1956.67 58.8839 Q1956.67 62.8538 1959.26 65.2034 Q1961.89 67.5124 1966.39 67.5124 Q1972.59 67.5124 1976.32 63.1374 Q1980.08 58.7219 1980.08 51.4303 L1980.08 49.7694 L1972.67 49.7694 M1987.54 46.6907 L1987.54 72.576 L1980.08 72.576 L1980.08 65.6895 Q1977.53 69.8214 1973.72 71.8063 Q1969.92 73.7508 1964.41 73.7508 Q1957.44 73.7508 1953.31 69.8619 Q1949.22 65.9325 1949.22 59.3701 Q1949.22 51.7138 1954.32 47.825 Q1959.46 43.9361 1969.63 43.9361 L1980.08 43.9361 L1980.08 43.2069 Q1980.08 38.0623 1976.68 35.2672 Q1973.32 32.4315 1967.2 32.4315 Q1963.31 32.4315 1959.63 33.3632 Q1955.94 34.295 1952.54 36.1584 L1952.54 29.2718 Q1956.63 27.692 1960.48 26.9223 Q1964.33 26.1121 1967.97 26.1121 Q1977.81 26.1121 1982.68 31.2163 Q1987.54 36.3204 1987.54 46.6907 Z" fill="#000000" fill-rule="nonzero" fill-opacity="1" /><path clip-path="url(#clip980)" d="M2010.26 14.324 L2010.26 27.2059 L2025.62 27.2059 L2025.62 32.9987 L2010.26 32.9987 L2010.26 57.6282 Q2010.26 63.1779 2011.76 64.7578 Q2013.3 66.3376 2017.96 66.3376 L2025.62 66.3376 L2025.62 72.576 L2017.96 72.576 Q2009.33 72.576 2006.05 69.3758 Q2002.77 66.1351 2002.77 57.6282 L2002.77 32.9987 L1997.3 32.9987 L1997.3 27.2059 L2002.77 27.2059 L2002.77 14.324 L2010.26 14.324 Z" fill="#000000" fill-rule="nonzero" fill-opacity="1" /><path clip-path="url(#clip980)" d="M2035.42 27.2059 L2042.87 27.2059 L2042.87 72.576 L2035.42 72.576 L2035.42 27.2059 M2035.42 9.54393 L2042.87 9.54393 L2042.87 18.9825 L2035.42 18.9825 L2035.42 9.54393 Z" fill="#000000" fill-rule="nonzero" fill-opacity="1" /><path clip-path="url(#clip980)" d="M2076.05 32.4315 Q2070.05 32.4315 2066.57 37.1306 Q2063.09 41.7891 2063.09 49.9314 Q2063.09 58.0738 2066.53 62.7728 Q2070.01 67.4314 2076.05 67.4314 Q2082 67.4314 2085.49 62.7323 Q2088.97 58.0333 2088.97 49.9314 Q2088.97 41.8701 2085.49 37.1711 Q2082 32.4315 2076.05 32.4315 M2076.05 26.1121 Q2085.77 26.1121 2091.32 32.4315 Q2096.87 38.7509 2096.87 49.9314 Q2096.87 61.0714 2091.32 67.4314 Q2085.77 73.7508 2076.05 73.7508 Q2066.29 73.7508 2060.74 67.4314 Q2055.23 61.0714 2055.23 49.9314 Q2055.23 38.7509 2060.74 32.4315 Q2066.29 26.1121 2076.05 26.1121 Z" fill="#000000" fill-rule="nonzero" fill-opacity="1" /><path clip-path="url(#clip980)" d="M2146.94 45.1919 L2146.94 72.576 L2139.49 72.576 L2139.49 45.4349 Q2139.49 38.994 2136.97 35.7938 Q2134.46 32.5936 2129.44 32.5936 Q2123.4 32.5936 2119.92 36.4419 Q2116.44 40.2903 2116.44 46.9338 L2116.44 72.576 L2108.94 72.576 L2108.94 27.2059 L2116.44 27.2059 L2116.44 34.2544 Q2119.11 30.163 2122.72 28.1376 Q2126.36 26.1121 2131.1 26.1121 Q2138.92 26.1121 2142.93 30.9732 Q2146.94 35.7938 2146.94 45.1919 Z" fill="#000000" fill-rule="nonzero" fill-opacity="1" /><path clip-path="url(#clip980)" d="M2190.65 65.6895 L2204.02 65.6895 L2204.02 19.5497 L2189.47 22.4663 L2189.47 15.0127 L2203.94 12.096 L2212.12 12.096 L2212.12 65.6895 L2225.49 65.6895 L2225.49 72.576 L2190.65 72.576 L2190.65 65.6895 Z" fill="#000000" fill-rule="nonzero" fill-opacity="1" /><polyline clip-path="url(#clip982)" style="stroke:#009af9; stroke-linecap:round; stroke-linejoin:round; stroke-width:4; stroke-opacity:1; fill:none" points="316.984,1386.4 318.963,1379.32 320.941,1366.63 322.92,1364.11 324.898,1355.14 326.877,1342.11 328.855,1335.85 330.834,1334.24 332.812,1331.78 334.791,1331.08 336.769,1326.24 338.747,1321.42 340.726,1316.43 342.704,1315.71 344.683,1315.56 346.661,1314.21 348.64,1314.12 350.618,1314.05 352.597,1312 354.575,1310.87 356.554,1306.76 358.532,1306.69 360.51,1305.27 362.489,1303.52 364.467,1301.24 366.446,1300.67 368.424,1300.35 370.403,1300.11 372.381,1296.6 374.36,1293.16 376.338,1292.96 378.317,1292.62 380.295,1291.25 382.273,1290.69 384.252,1289.3 386.23,1286.52 388.209,1284.41 390.187,1282.92 392.166,1282.85 394.144,1282.49 396.123,1281.63 398.101,1281.59 400.08,1281.39 402.058,1281.14 404.036,1280.96 406.015,1280.48 407.993,1280.11 409.972,1279.51 411.95,1277.71 413.929,1276.93 415.907,1276.86 417.886,1275.82 419.864,1274.92 421.843,1274.56 423.821,1273.44 425.8,1271.75 427.778,1270.84 429.756,1269.75 431.735,1269.41 433.713,1269.32 435.692,1269.29 437.67,1269.19 439.649,1268.75 441.627,1267.83 443.606,1267.65 445.584,1266.89 447.563,1266.26 449.541,1266.06 451.519,1265.82 453.498,1265.56 455.476,1265.36 457.455,1265.16 459.433,1264.47 461.412,1262.5 463.39,1262.15 465.369,1261.84 467.347,1261.52 469.326,1260.57 471.304,1260.47 473.282,1259.44 475.261,1259.42 477.239,1259 479.218,1258.72 481.196,1257.77 483.175,1257.63 485.153,1257.39 487.132,1256.71 489.11,1256.39 491.089,1255.3 493.067,1255.11 495.045,1252.94 497.024,1252.87 499.002,1252.78 500.981,1252.7 502.959,1252.49 504.938,1252.4 506.916,1252.35 508.895,1251.63 510.873,1251.37 512.852,1250.94 514.83,1250.25 516.808,1250.25 518.787,1249.09 520.765,1248.99 522.744,1248.36 524.722,1247.71 526.701,1247.4 528.679,1247.28 530.658,1247.2 532.636,1246.5 534.615,1245.48 536.593,1244.75 538.571,1242.64 540.55,1242.6 542.528,1242.25 544.507,1242.04 546.485,1241.77 548.464,1241.69 550.442,1241.6 552.421,1240.81 554.399,1240.81 556.378,1240.06 558.356,1240.01 560.334,1239.68 562.313,1239.63 564.291,1239.43 566.27,1239.32 568.248,1239.26 570.227,1239.22 572.205,1239.13 574.184,1238.92 576.162,1237.78 578.141,1237.69 580.119,1236.96 582.098,1236.7 584.076,1236.38 586.054,1235.89 588.033,1235.27 590.011,1234.93 591.99,1233.75 593.968,1233.44 595.947,1231.88 597.925,1231.78 599.904,1230.73 601.882,1230.45 603.861,1230.42 605.839,1230.29 607.817,1230.01 609.796,1229.9 611.774,1229.13 613.753,1228.86 615.731,1228.41 617.71,1227.35 619.688,1227.23 621.667,1227.14 623.645,1226.91 625.624,1226.28 627.602,1226.02 629.58,1225.92 631.559,1224.97 633.537,1224.69 635.516,1224.64 637.494,1224.22 639.473,1221.95 641.451,1221.83 643.43,1221.32 645.408,1220.74 647.387,1219.67 649.365,1218.99 651.343,1218.52 653.322,1217.68 655.3,1216.68 657.279,1214.92 659.257,1214.78 661.236,1213.67 663.214,1213.27 665.193,1212.78 667.171,1212.75 669.15,1212.42 671.128,1212.25 673.106,1211.14 675.085,1209.84 677.063,1209.13 679.042,1208.57 681.02,1208.52 682.999,1207.91 684.977,1207.73 686.956,1207.27 688.934,1207.18 690.913,1206.92 692.891,1206.82 694.869,1206.68 696.848,1206.22 698.826,1206.18 700.805,1206 702.783,1204.85 704.762,1203.62 706.74,1202.79 708.719,1202.43 710.697,1202.02 712.676,1201.96 714.654,1201.77 716.632,1201.61 718.611,1200.67 720.589,1199.79 722.568,1198.48 724.546,1198.16 726.525,1197.73 728.503,1195.95 730.482,1195.83 732.46,1194.35 734.439,1194.31 736.417,1193.79 738.395,1193.77 740.374,1193.71 742.352,1193.47 744.331,1193.12 746.309,1192.32 748.288,1191.95 750.266,1191.76 752.245,1191.33 754.223,1191.29 756.202,1190.91 758.18,1190.17 760.159,1190.03 762.137,1189.81 764.115,1188.95 766.094,1188.28 768.072,1188.12 770.051,1187.86 772.029,1187.58 774.008,1186.58 775.986,1185.43 777.965,1185.38 779.943,1183.67 781.922,1183.44 783.9,1183.39 785.878,1182.65 787.857,1182.51 789.835,1182.44 791.814,1181.6 793.792,1181.53 795.771,1180.87 797.749,1180.63 799.728,1179.96 801.706,1179.45 803.685,1179.23 805.663,1178.31 807.641,1177.43 809.62,1176.17 811.598,1175.7 813.577,1175.34 815.555,1175.31 817.534,1174.96 819.512,1174.75 821.491,1174.4 823.469,1174.21 825.448,1174.16 827.426,1173.94 829.404,1173.91 831.383,1173.86 833.361,1173.75 835.34,1173.71 837.318,1173.08 839.297,1172.66 841.275,1172.2 843.254,1172.15 845.232,1171.2 847.211,1169.8 849.189,1169.25 851.167,1169.15 853.146,1168.86 855.124,1168.57 857.103,1168.33 859.081,1166.83 861.06,1166.64 863.038,1166.63 865.017,1166.47 866.995,1165.57 868.974,1165.51 870.952,1165.47 872.93,1165.33 874.909,1165.13 876.887,1164.33 878.866,1164.32 880.844,1164.12 882.823,1163.86 884.801,1163.82 886.78,1163.66 888.758,1163.15 890.737,1162.71 892.715,1162.62 894.693,1161.71 896.672,1161.67 898.65,1160.39 900.629,1160.24 902.607,1160.11 904.586,1160.02 906.564,1159.23 908.543,1157.68 910.521,1157.61 912.5,1156.71 914.478,1155.2 916.456,1154.52 918.435,1153.97 920.413,1153.91 922.392,1152.31 924.37,1152.17 926.349,1151.81 928.327,1151.5 930.306,1151.14 932.284,1151.01 934.263,1150.96 936.241,1150.75 938.22,1149.63 940.198,1149.32 942.176,1149.16 944.155,1148.71 946.133,1147.07 948.112,1145.25 950.09,1145.22 952.069,1144.96 954.047,1144.26 956.026,1143.64 958.004,1143.25 959.983,1143.07 961.961,1140.96 963.939,1139.42 965.918,1139.21 967.896,1139.15 969.875,1138.54 971.853,1138.38 973.832,1137.84 975.81,1137.47 977.789,1137.12 979.767,1136.99 981.746,1136.77 983.724,1136.19 985.702,1136.12 987.681,1135.67 989.659,1135.09 991.638,1135.09 993.616,1134.95 995.595,1134.69 997.573,1134.68 999.552,1134.31 1001.53,1133.45 1003.51,1133.05 1005.49,1133.03 1007.47,1132.9 1009.44,1132.12 1011.42,1131.24 1013.4,1130.87 1015.38,1130.68 1017.36,1130.35 1019.34,1130.19 1021.31,1130.11 1023.29,1129.56 1025.27,1128.36 1027.25,1128.3 1029.23,1128.02 1031.21,1127.96 1033.19,1127.91 1035.16,1127.75 1037.14,1127.63 1039.12,1127.19 1041.1,1127.11 1043.08,1126.51 1045.06,1126.36 1047.03,1126.23 1049.01,1125.84 1050.99,1125.73 1052.97,1125.7 1054.95,1125.54 1056.93,1125.12 1058.91,1124.56 1060.88,1123.78 1062.86,1123.43 1064.84,1122.89 1066.82,1122.79 1068.8,1122.66 1070.78,1122.64 1072.75,1122.37 1074.73,1121.9 1076.71,1121.07 1078.69,1120.69 1080.67,1119.56 1082.65,1118.51 1084.63,1117.46 1086.6,1117.3 1088.58,1117.02 1090.56,1116.57 1092.54,1116.16 1094.52,1115.94 1096.5,1115 1098.47,1114.31 1100.45,1114.13 1102.43,1114.1 1104.41,1111.42 1106.39,1110.78 1108.37,1110.42 1110.35,1110 1112.32,1107.64 1114.3,1107.43 1116.28,1107.19 1118.26,1106.4 1120.24,1106.23 1122.22,1105.99 1124.19,1105.73 1126.17,1105.21 1128.15,1104.69 1130.13,1104.31 1132.11,1103.77 1134.09,1103.65 1136.07,1103.05 1138.04,1102.91 1140.02,1102.31 1142,1102.05 1143.98,1101.63 1145.96,1101.62 1147.94,1101.54 1149.91,1101.4 1151.89,1100.09 1153.87,1100.03 1155.85,1098.69 1157.83,1098.04 1159.81,1097.96 1161.78,1097.61 1163.76,1097.58 1165.74,1096.81 1167.72,1096.52 1169.7,1095.22 1171.68,1093.01 1173.66,1092.71 1175.63,1092.53 1177.61,1092.18 1179.59,1091.89 1181.57,1091.82 1183.55,1091.2 1185.53,1090.57 1187.5,1090.52 1189.48,1089.25 1191.46,1089.03 1193.44,1088.9 1195.42,1088.31 1197.4,1088 1199.38,1085.66 1201.35,1085.65 1203.33,1085.39 1205.31,1085.36 1207.29,1084.55 1209.27,1084.48 1211.25,1084.26 1213.22,1084.16 1215.2,1082.58 1217.18,1081.28 1219.16,1080.06 1221.14,1077.28 1223.12,1076.62 1225.1,1075.39 1227.07,1074.78 1229.05,1074.34 1231.03,1073.96 1233.01,1073.92 1234.99,1073.83 1236.97,1073.69 1238.94,1073.07 1240.92,1073 1242.9,1071.35 1244.88,1070.8 1246.86,1070.27 1248.84,1069.08 1250.82,1068.09 1252.79,1067.74 1254.77,1066.65 1256.75,1066.55 1258.73,1065.73 1260.71,1065 1262.69,1063.65 1264.66,1062.59 1266.64,1062.33 1268.62,1062.07 1270.6,1061.7 1272.58,1060.44 1274.56,1060.32 1276.54,1059.89 1278.51,1059.86 1280.49,1059.65 1282.47,1059.63 1284.45,1059.48 1286.43,1059.47 1288.41,1059 1290.38,1058.9 1292.36,1058.84 1294.34,1058.51 1296.32,1058.26 1298.3,1057.83 1300.28,1057.65 1302.26,1057.34 1304.23,1056.83 1306.21,1056.73 1308.19,1056.5 1310.17,1056.49 1312.15,1053.4 1314.13,1052.93 1316.1,1052.88 1318.08,1052.71 1320.06,1052.54 1322.04,1052.14 1324.02,1051.61 1326,1051.04 1327.98,1050.95 1329.95,1050.5 1331.93,1049.85 1333.91,1049.7 1335.89,1049 1337.87,1048.88 1339.85,1048.47 1341.82,1048.25 1343.8,1048.19 1345.78,1047.76 1347.76,1047.52 1349.74,1046.6 1351.72,1046.58 1353.7,1045.8 1355.67,1044.24 1357.65,1043.96 1359.63,1042.97 1361.61,1042.04 1363.59,1041.93 1365.57,1040.63 1367.54,1040.43 1369.52,1039.5 1371.5,1039.34 1373.48,1038.52 1375.46,1037.01 1377.44,1036.47 1379.42,1036.34 1381.39,1036.26 1383.37,1035.18 1385.35,1034.91 1387.33,1034.32 1389.31,1033.82 1391.29,1033.74 1393.26,1033.63 1395.24,1033.44 1397.22,1031.11 1399.2,1031.09 1401.18,1030.3 1403.16,1029.46 1405.14,1028.1 1407.11,1027.22 1409.09,1027.07 1411.07,1026.16 1413.05,1024.57 1415.03,1024.44 1417.01,1023.89 1418.98,1021.86 1420.96,1021.65 1422.94,1021.1 1424.92,1021.02 1426.9,1019.87 1428.88,1019.8 1430.85,1018.51 1432.83,1018.38 1434.81,1017.59 1436.79,1017.47 1438.77,1017.21 1440.75,1016.42 1442.73,1013.83 1444.7,1013.55 1446.68,1013.32 1448.66,1013.23 1450.64,1012.92 1452.62,1011.7 1454.6,1011.36 1456.57,1011.11 1458.55,1011.1 1460.53,1010.36 1462.51,1010.28 1464.49,1010.09 1466.47,1009.87 1468.45,1008.98 1470.42,1007.3 1472.4,1006.26 1474.38,1004.85 1476.36,1003.73 1478.34,1003.53 1480.32,1002.94 1482.29,1000.79 1484.27,1000.47 1486.25,1000.13 1488.23,999.808 1490.21,999.377 1492.19,998.971 1494.17,997.233 1496.14,997.177 1498.12,994.158 1500.1,993.902 1502.08,993.861 1504.06,992.199 1506.04,991.461 1508.01,991.191 1509.99,990.616 1511.97,990.486 1513.95,990.368 1515.93,990.011 1517.91,989.308 1519.89,989.16 1521.86,988.865 1523.84,986.253 1525.82,986.136 1527.8,983.336 1529.78,981.607 1531.76,981.465 1533.73,980.177 1535.71,979.635 1537.69,979.273 1539.67,979.134 1541.65,978.206 1543.63,978.179 1545.61,977.776 1547.58,975.57 1549.56,974.893 1551.54,974.503 1553.52,974.457 1555.5,974.184 1557.48,972.128 1559.45,970.614 1561.43,970.284 1563.41,969.965 1565.39,969.357 1567.37,966.781 1569.35,966.54 1571.33,964.227 1573.3,963.54 1575.28,962.548 1577.26,961.865 1579.24,961.779 1581.22,961.649 1583.2,961.302 1585.17,960.869 1587.15,960.812 1589.13,959.744 1591.11,957.207 1593.09,956.326 1595.07,955.208 1597.05,953 1599.02,952.829 1601,952.364 1602.98,952.119 1604.96,951.385 1606.94,951.004 1608.92,950.93 1610.89,950.581 1612.87,949.77 1614.85,943.8 1616.83,942.679 1618.81,941.151 1620.79,939.433 1622.77,938.842 1624.74,938.297 1626.72,938.202 1628.7,935.964 1630.68,935.869 1632.66,935.865 1634.64,935.152 1636.61,934.683 1638.59,933.461 1640.57,933.364 1642.55,929.423 1644.53,928.247 1646.51,928.017 1648.49,927.262 1650.46,926.766 1652.44,925.258 1654.42,920.669 1656.4,919.103 1658.38,916.759 1660.36,910.508 1662.33,910.258 1664.31,910.099 1666.29,909.748 1668.27,909.331 1670.25,907.939 1672.23,907.359 1674.2,899.636 1676.18,899.33 1678.16,898.377 1680.14,898.317 1682.12,893.484 1684.1,890.608 1686.08,890.456 1688.05,889.112 1690.03,888.142 1692.01,886.754 1693.99,884.668 1695.97,882.037 1697.95,880.063 1699.92,879.137 1701.9,877.724 1703.88,875.702 1705.86,870.997 1707.84,869.797 1709.82,868.51 1711.8,866.856 1713.77,866.474 1715.75,866.136 1717.73,865.618 1719.71,863.544 1721.69,862.23 1723.67,861.609 1725.64,861.553 1727.62,861.287 1729.6,859.128 1731.58,856.015 1733.56,847.285 1735.54,847.267 1737.52,845.825 1739.49,844.536 1741.47,840.194 1743.45,833.315 1745.43,833.175 1747.41,830.856 1749.39,824.595 1751.36,820.419 1753.34,817.859 1755.32,814.715 1757.3,814.459 1759.28,814.452 1761.26,810.912 1763.24,809.556 1765.21,804.62 1767.19,804.25 1769.17,801.431 1771.15,778.37 1773.13,768.778 1775.11,762.896 1777.08,757.26 1779.06,756.402 1781.04,747.318 1783.02,732.573 1785,715.013 1786.98,712.574 1788.96,709.564 1790.93,707.891 1792.91,684.064 1794.89,670.957 1796.87,648.989 1798.85,571.662 1800.83,403.124 1802.8,398.518 1804.78,384.342 1806.76,375.498 1808.74,374.612 1810.72,369.496 1812.7,359.899 1814.68,359.658 1816.65,353.214 1818.63,350.742 1820.61,346.736 1822.59,345.437 1824.57,344.314 1826.55,341.358 1828.52,337.967 1830.5,335.632 1832.48,335.432 1834.46,334.818 1836.44,331.614 1838.42,327.781 1840.4,315.921 1842.37,314.593 1844.35,313.829 1846.33,303.049 1848.31,302.206 1850.29,300.271 1852.27,297.981 1854.24,294.426 1856.22,293.296 1858.2,292.88 1860.18,286.19 1862.16,284.104 1864.14,279.061 1866.12,277.187 1868.09,277.112 1870.07,274.475 1872.05,273.915 1874.03,273.558 1876.01,269.893 1877.99,269.39 1879.96,269.375 1881.94,267.738 1883.92,267.616 1885.9,267.544 1887.88,267.198 1889.86,265.24 1891.84,262.571 1893.81,262.045 1895.79,262.037 1897.77,261.78 1899.75,260.98 1901.73,260.596 1903.71,256.118 1905.68,255.49 1907.66,254.281 1909.64,253.095 1911.62,252.689 1913.6,252.558 1915.58,252.467 1917.56,251.679 1919.53,249.807 1921.51,249.602 1923.49,249.353 1925.47,247.683 1927.45,245.739 1929.43,245.217 1931.4,245.106 1933.38,243.951 1935.36,243.134 1937.34,242.023 1939.32,241.594 1941.3,241.35 1943.27,240.891 1945.25,240.78 1947.23,240.225 1949.21,239.694 1951.19,238.044 1953.17,237.621 1955.15,235.443 1957.12,234.352 1959.1,232.949 1961.08,232.444 1963.06,231.996 1965.04,231.74 1967.02,230.751 1968.99,230.28 1970.97,230.269 1972.95,229.73 1974.93,229.383 1976.91,229.23 1978.89,228.014 1980.87,227.601 1982.84,226.913 1984.82,226.879 1986.8,226.619 1988.78,225.598 1990.76,223.174 1992.74,222.283 1994.71,221.043 1996.69,220.302 1998.67,220.085 2000.65,218.307 2002.63,217.995 2004.61,216.512 2006.59,216.461 2008.56,216.281 2010.54,216.022 2012.52,215.906 2014.5,214.935 2016.48,214.091 2018.46,213.528 2020.43,213.225 2022.41,213.006 2024.39,212.301 2026.37,211.975 2028.35,211.934 2030.33,210.939 2032.31,210.069 2034.28,209.716 2036.26,208.107 2038.24,207.828 2040.22,207.388 2042.2,206.989 2044.18,206.478 2046.15,205.691 2048.13,204.745 2050.11,204.704 2052.09,204.429 2054.07,204.299 2056.05,203.942 2058.03,203.629 2060,202.947 2061.98,201.625 2063.96,201.237 2065.94,200.524 2067.92,200.312 2069.9,200.021 2071.87,199.964 2073.85,198.833 2075.83,198.549 2077.81,197.366 2079.79,197.292 2081.77,197.226 2083.75,196.806 2085.72,196.667 2087.7,196.271 2089.68,196.258 2091.66,196.123 2093.64,196.089 2095.62,195.201 2097.59,195.129 2099.57,194.783 2101.55,194.445 2103.53,193.713 2105.51,193.502 2107.49,193.431 2109.47,193.394 2111.44,193.269 2113.42,193.113 2115.4,192.51 2117.38,192.44 2119.36,192.427 2121.34,192.356 2123.31,192.244 2125.29,191.611 2127.27,191.402 2129.25,191.315 2131.23,191.267 2133.21,191.091 2135.19,190.248 2137.16,190.188 2139.14,189.415 2141.12,189.161 2143.1,188.957 2145.08,188.738 2147.06,188.617 2149.03,186.942 2151.01,186.822 2152.99,186.679 2154.97,186.129 2156.95,185.795 2158.93,185.616 2160.91,185.538 2162.88,185.482 2164.86,185.284 2166.84,184.413 2168.82,184.28 2170.8,184.222 2172.78,184.202 2174.75,183.8 2176.73,183.786 2178.71,183.657 2180.69,183.544 2182.67,183.268 2184.65,183.184 2186.62,183.082 2188.6,182.693 2190.58,182.359 2192.56,182.287 2194.54,181.89 2196.52,181.855 2198.5,181.731 2200.47,181.372 2202.45,180.258 2204.43,179.806 2206.41,179.801 2208.39,179.285 2210.37,179.244 2212.34,179.227 2214.32,179.123 2216.3,178.852 2218.28,177.996 2220.26,177.917 2222.24,177.663 2224.22,176.762 2226.19,176.74 2228.17,176.684 2230.15,176.215 2232.13,176.088 2234.11,174.949 2236.09,174.925 2238.06,174.261 2240.04,174.039 2242.02,173.984 2244,173.852 2245.98,173.497 2247.96,173.397 2249.94,172.862 2251.91,172.801 2253.89,172.414 2255.87,172.212 2257.85,171.954 2259.83,171.64 2261.81,171.181 2263.78,171.038 2265.76,170.992 2267.74,170.978 2269.72,170.959 2271.7,170.766 2273.68,170.603 2275.66,169.499 2277.63,169.142 2279.61,168.914 2281.59,168.749 2283.57,165.121 2285.55,162.708 2287.53,162.707 2289.5,160.882 2291.48,160.643 2293.46,160.256 "/>
<path clip-path="url(#clip980)" d="M327.526 270.476 L756.638 270.476 L756.638 166.796 L327.526 166.796  Z" fill="#ffffff" fill-rule="evenodd" fill-opacity="1"/>
<polyline clip-path="url(#clip980)" style="stroke:#000000; stroke-linecap:round; stroke-linejoin:round; stroke-width:4; stroke-opacity:1; fill:none" points="327.526,270.476 756.638,270.476 756.638,166.796 327.526,166.796 327.526,270.476 "/>
<polyline clip-path="url(#clip980)" style="stroke:#009af9; stroke-linecap:round; stroke-linejoin:round; stroke-width:4; stroke-opacity:1; fill:none" points="350.804,218.636 490.475,218.636 "/>
<path clip-path="url(#clip980)" d="M535.999 202.49 L535.999 207.05 Q533.337 205.777 530.976 205.152 Q528.615 204.527 526.416 204.527 Q522.596 204.527 520.513 206.008 Q518.453 207.49 518.453 210.221 Q518.453 212.513 519.819 213.694 Q521.207 214.851 525.05 215.569 L527.874 216.147 Q533.105 217.143 535.582 219.666 Q538.082 222.166 538.082 226.379 Q538.082 231.402 534.703 233.994 Q531.346 236.587 524.842 236.587 Q522.388 236.587 519.61 236.031 Q516.856 235.476 513.893 234.388 L513.893 229.573 Q516.74 231.17 519.471 231.981 Q522.203 232.791 524.842 232.791 Q528.846 232.791 531.022 231.217 Q533.198 229.643 533.198 226.726 Q533.198 224.18 531.624 222.744 Q530.073 221.309 526.508 220.592 L523.661 220.036 Q518.43 218.995 516.092 216.772 Q513.754 214.55 513.754 210.592 Q513.754 206.008 516.971 203.37 Q520.212 200.731 525.883 200.731 Q528.314 200.731 530.837 201.171 Q533.36 201.61 535.999 202.49 Z" fill="#000000" fill-rule="nonzero" fill-opacity="1" /><path clip-path="url(#clip980)" d="M545.189 209.99 L549.448 209.99 L549.448 235.916 L545.189 235.916 L545.189 209.99 M545.189 199.897 L549.448 199.897 L549.448 205.291 L545.189 205.291 L545.189 199.897 Z" fill="#000000" fill-rule="nonzero" fill-opacity="1" /><path clip-path="url(#clip980)" d="M578.545 214.967 Q580.142 212.096 582.364 210.731 Q584.587 209.365 587.596 209.365 Q591.647 209.365 593.846 212.212 Q596.045 215.036 596.045 220.268 L596.045 235.916 L591.763 235.916 L591.763 220.407 Q591.763 216.68 590.443 214.874 Q589.124 213.069 586.415 213.069 Q583.105 213.069 581.184 215.268 Q579.263 217.467 579.263 221.263 L579.263 235.916 L574.98 235.916 L574.98 220.407 Q574.98 216.657 573.661 214.874 Q572.341 213.069 569.587 213.069 Q566.323 213.069 564.402 215.291 Q562.48 217.49 562.48 221.263 L562.48 235.916 L558.198 235.916 L558.198 209.99 L562.48 209.99 L562.48 214.018 Q563.939 211.633 565.976 210.499 Q568.013 209.365 570.814 209.365 Q573.638 209.365 575.605 210.8 Q577.596 212.235 578.545 214.967 Z" fill="#000000" fill-rule="nonzero" fill-opacity="1" /><path clip-path="url(#clip980)" d="M604.54 209.99 L608.8 209.99 L608.8 235.916 L604.54 235.916 L604.54 209.99 M604.54 199.897 L608.8 199.897 L608.8 205.291 L604.54 205.291 L604.54 199.897 Z" fill="#000000" fill-rule="nonzero" fill-opacity="1" /><path clip-path="url(#clip980)" d="M617.712 199.897 L621.971 199.897 L621.971 235.916 L617.712 235.916 L617.712 199.897 Z" fill="#000000" fill-rule="nonzero" fill-opacity="1" /><path clip-path="url(#clip980)" d="M642.665 222.883 Q637.503 222.883 635.512 224.064 Q633.522 225.244 633.522 228.092 Q633.522 230.36 635.003 231.703 Q636.508 233.022 639.077 233.022 Q642.619 233.022 644.748 230.522 Q646.901 227.999 646.901 223.832 L646.901 222.883 L642.665 222.883 M651.16 221.124 L651.16 235.916 L646.901 235.916 L646.901 231.981 Q645.443 234.342 643.267 235.476 Q641.091 236.587 637.943 236.587 Q633.961 236.587 631.6 234.365 Q629.262 232.119 629.262 228.369 Q629.262 223.994 632.179 221.772 Q635.119 219.55 640.929 219.55 L646.901 219.55 L646.901 219.133 Q646.901 216.194 644.957 214.596 Q643.035 212.976 639.54 212.976 Q637.318 212.976 635.211 213.508 Q633.105 214.041 631.161 215.106 L631.161 211.17 Q633.498 210.268 635.698 209.828 Q637.897 209.365 639.98 209.365 Q645.605 209.365 648.383 212.282 Q651.16 215.198 651.16 221.124 Z" fill="#000000" fill-rule="nonzero" fill-opacity="1" /><path clip-path="url(#clip980)" d="M674.957 213.971 Q674.239 213.555 673.383 213.37 Q672.549 213.161 671.531 213.161 Q667.92 213.161 665.975 215.522 Q664.054 217.86 664.054 222.258 L664.054 235.916 L659.771 235.916 L659.771 209.99 L664.054 209.99 L664.054 214.018 Q665.396 211.657 667.549 210.522 Q669.702 209.365 672.781 209.365 Q673.22 209.365 673.753 209.434 Q674.285 209.481 674.933 209.596 L674.957 213.971 Z" fill="#000000" fill-rule="nonzero" fill-opacity="1" /><path clip-path="url(#clip980)" d="M679.424 209.99 L683.683 209.99 L683.683 235.916 L679.424 235.916 L679.424 209.99 M679.424 199.897 L683.683 199.897 L683.683 205.291 L679.424 205.291 L679.424 199.897 Z" fill="#000000" fill-rule="nonzero" fill-opacity="1" /><path clip-path="url(#clip980)" d="M696.808 202.629 L696.808 209.99 L705.581 209.99 L705.581 213.3 L696.808 213.3 L696.808 227.374 Q696.808 230.545 697.665 231.448 Q698.544 232.351 701.206 232.351 L705.581 232.351 L705.581 235.916 L701.206 235.916 Q696.276 235.916 694.401 234.087 Q692.526 232.235 692.526 227.374 L692.526 213.3 L689.401 213.3 L689.401 209.99 L692.526 209.99 L692.526 202.629 L696.808 202.629 Z" fill="#000000" fill-rule="nonzero" fill-opacity="1" /><path clip-path="url(#clip980)" d="M721.97 238.323 Q720.165 242.953 718.452 244.365 Q716.739 245.777 713.868 245.777 L710.466 245.777 L710.466 242.212 L712.966 242.212 Q714.725 242.212 715.697 241.379 Q716.669 240.545 717.85 237.443 L718.614 235.499 L708.128 209.99 L712.642 209.99 L720.743 230.268 L728.845 209.99 L733.359 209.99 L721.97 238.323 Z" fill="#000000" fill-rule="nonzero" fill-opacity="1" /></svg>
