<?xml version="1.0" encoding="utf-8"?>
<svg xmlns="http://www.w3.org/2000/svg" xmlns:xlink="http://www.w3.org/1999/xlink" width="600" height="400" viewBox="0 0 2400 1600">
<defs>
  <clipPath id="clip280">
    <rect x="0" y="0" width="2400" height="1600"/>
  </clipPath>
</defs>
<path clip-path="url(#clip280)" d="M0 1600 L2400 1600 L2400 8.88178e-14 L0 8.88178e-14  Z" fill="#ffffff" fill-rule="evenodd" fill-opacity="1"/>
<defs>
  <clipPath id="clip281">
    <rect x="480" y="0" width="1681" height="1600"/>
  </clipPath>
</defs>
<path clip-path="url(#clip280)" d="M256.209 1423.18 L2352.76 1423.18 L2352.76 123.472 L256.209 123.472  Z" fill="#ffffff" fill-rule="evenodd" fill-opacity="1"/>
<defs>
  <clipPath id="clip282">
    <rect x="256" y="123" width="2098" height="1301"/>
  </clipPath>
</defs>
<polyline clip-path="url(#clip282)" style="stroke:#000000; stroke-linecap:round; stroke-linejoin:round; stroke-width:2; stroke-opacity:0.1; fill:none" points="313.565,1423.18 313.565,123.472 "/>
<polyline clip-path="url(#clip282)" style="stroke:#000000; stroke-linecap:round; stroke-linejoin:round; stroke-width:2; stroke-opacity:0.1; fill:none" points="808.529,1423.18 808.529,123.472 "/>
<polyline clip-path="url(#clip282)" style="stroke:#000000; stroke-linecap:round; stroke-linejoin:round; stroke-width:2; stroke-opacity:0.1; fill:none" points="1303.49,1423.18 1303.49,123.472 "/>
<polyline clip-path="url(#clip282)" style="stroke:#000000; stroke-linecap:round; stroke-linejoin:round; stroke-width:2; stroke-opacity:0.1; fill:none" points="1798.46,1423.18 1798.46,123.472 "/>
<polyline clip-path="url(#clip282)" style="stroke:#000000; stroke-linecap:round; stroke-linejoin:round; stroke-width:2; stroke-opacity:0.1; fill:none" points="2293.42,1423.18 2293.42,123.472 "/>
<polyline clip-path="url(#clip280)" style="stroke:#000000; stroke-linecap:round; stroke-linejoin:round; stroke-width:4; stroke-opacity:1; fill:none" points="256.209,1423.18 2352.76,1423.18 "/>
<polyline clip-path="url(#clip280)" style="stroke:#000000; stroke-linecap:round; stroke-linejoin:round; stroke-width:4; stroke-opacity:1; fill:none" points="313.565,1423.18 313.565,1404.28 "/>
<polyline clip-path="url(#clip280)" style="stroke:#000000; stroke-linecap:round; stroke-linejoin:round; stroke-width:4; stroke-opacity:1; fill:none" points="808.529,1423.18 808.529,1404.28 "/>
<polyline clip-path="url(#clip280)" style="stroke:#000000; stroke-linecap:round; stroke-linejoin:round; stroke-width:4; stroke-opacity:1; fill:none" points="1303.49,1423.18 1303.49,1404.28 "/>
<polyline clip-path="url(#clip280)" style="stroke:#000000; stroke-linecap:round; stroke-linejoin:round; stroke-width:4; stroke-opacity:1; fill:none" points="1798.46,1423.18 1798.46,1404.28 "/>
<polyline clip-path="url(#clip280)" style="stroke:#000000; stroke-linecap:round; stroke-linejoin:round; stroke-width:4; stroke-opacity:1; fill:none" points="2293.42,1423.18 2293.42,1404.28 "/>
<path clip-path="url(#clip280)" d="M313.565 1454.1 Q309.954 1454.1 308.125 1457.66 Q306.32 1461.2 306.32 1468.33 Q306.32 1475.44 308.125 1479.01 Q309.954 1482.55 313.565 1482.55 Q317.199 1482.55 319.005 1479.01 Q320.834 1475.44 320.834 1468.33 Q320.834 1461.2 319.005 1457.66 Q317.199 1454.1 313.565 1454.1 M313.565 1450.39 Q319.375 1450.39 322.431 1455 Q325.509 1459.58 325.509 1468.33 Q325.509 1477.06 322.431 1481.67 Q319.375 1486.25 313.565 1486.25 Q307.755 1486.25 304.676 1481.67 Q301.621 1477.06 301.621 1468.33 Q301.621 1459.58 304.676 1455 Q307.755 1450.39 313.565 1450.39 Z" fill="#000000" fill-rule="nonzero" fill-opacity="1" /><path clip-path="url(#clip280)" d="M772.221 1481.64 L788.54 1481.64 L788.54 1485.58 L766.596 1485.58 L766.596 1481.64 Q769.258 1478.89 773.841 1474.26 Q778.448 1469.61 779.628 1468.27 Q781.874 1465.74 782.753 1464.01 Q783.656 1462.25 783.656 1460.56 Q783.656 1457.8 781.712 1456.07 Q779.79 1454.33 776.689 1454.33 Q774.49 1454.33 772.036 1455.09 Q769.605 1455.86 766.828 1457.41 L766.828 1452.69 Q769.652 1451.55 772.105 1450.97 Q774.559 1450.39 776.596 1450.39 Q781.966 1450.39 785.161 1453.08 Q788.355 1455.77 788.355 1460.26 Q788.355 1462.39 787.545 1464.31 Q786.758 1466.2 784.652 1468.8 Q784.073 1469.47 780.971 1472.69 Q777.869 1475.88 772.221 1481.64 Z" fill="#000000" fill-rule="nonzero" fill-opacity="1" /><path clip-path="url(#clip280)" d="M798.401 1451.02 L816.758 1451.02 L816.758 1454.96 L802.684 1454.96 L802.684 1463.43 Q803.702 1463.08 804.721 1462.92 Q805.739 1462.73 806.758 1462.73 Q812.545 1462.73 815.924 1465.9 Q819.304 1469.08 819.304 1474.49 Q819.304 1480.07 815.832 1483.17 Q812.36 1486.25 806.04 1486.25 Q803.864 1486.25 801.596 1485.88 Q799.351 1485.51 796.943 1484.77 L796.943 1480.07 Q799.026 1481.2 801.249 1481.76 Q803.471 1482.32 805.948 1482.32 Q809.952 1482.32 812.29 1480.21 Q814.628 1478.1 814.628 1474.49 Q814.628 1470.88 812.29 1468.77 Q809.952 1466.67 805.948 1466.67 Q804.073 1466.67 802.198 1467.08 Q800.346 1467.5 798.401 1468.38 L798.401 1451.02 Z" fill="#000000" fill-rule="nonzero" fill-opacity="1" /><path clip-path="url(#clip280)" d="M838.517 1454.1 Q834.906 1454.1 833.077 1457.66 Q831.272 1461.2 831.272 1468.33 Q831.272 1475.44 833.077 1479.01 Q834.906 1482.55 838.517 1482.55 Q842.151 1482.55 843.957 1479.01 Q845.785 1475.44 845.785 1468.33 Q845.785 1461.2 843.957 1457.66 Q842.151 1454.1 838.517 1454.1 M838.517 1450.39 Q844.327 1450.39 847.383 1455 Q850.461 1459.58 850.461 1468.33 Q850.461 1477.06 847.383 1481.67 Q844.327 1486.25 838.517 1486.25 Q832.707 1486.25 829.628 1481.67 Q826.573 1477.06 826.573 1468.33 Q826.573 1459.58 829.628 1455 Q832.707 1450.39 838.517 1450.39 Z" fill="#000000" fill-rule="nonzero" fill-opacity="1" /><path clip-path="url(#clip280)" d="M1263.11 1451.02 L1281.47 1451.02 L1281.47 1454.96 L1267.39 1454.96 L1267.39 1463.43 Q1268.41 1463.08 1269.43 1462.92 Q1270.45 1462.73 1271.47 1462.73 Q1277.25 1462.73 1280.63 1465.9 Q1284.01 1469.08 1284.01 1474.49 Q1284.01 1480.07 1280.54 1483.17 Q1277.07 1486.25 1270.75 1486.25 Q1268.57 1486.25 1266.31 1485.88 Q1264.06 1485.51 1261.65 1484.77 L1261.65 1480.07 Q1263.74 1481.2 1265.96 1481.76 Q1268.18 1482.32 1270.66 1482.32 Q1274.66 1482.32 1277 1480.21 Q1279.34 1478.1 1279.34 1474.49 Q1279.34 1470.88 1277 1468.77 Q1274.66 1466.67 1270.66 1466.67 Q1268.78 1466.67 1266.91 1467.08 Q1265.06 1467.5 1263.11 1468.38 L1263.11 1451.02 Z" fill="#000000" fill-rule="nonzero" fill-opacity="1" /><path clip-path="url(#clip280)" d="M1303.23 1454.1 Q1299.62 1454.1 1297.79 1457.66 Q1295.98 1461.2 1295.98 1468.33 Q1295.98 1475.44 1297.79 1479.01 Q1299.62 1482.55 1303.23 1482.55 Q1306.86 1482.55 1308.67 1479.01 Q1310.49 1475.44 1310.49 1468.33 Q1310.49 1461.2 1308.67 1457.66 Q1306.86 1454.1 1303.23 1454.1 M1303.23 1450.39 Q1309.04 1450.39 1312.09 1455 Q1315.17 1459.58 1315.17 1468.33 Q1315.17 1477.06 1312.09 1481.67 Q1309.04 1486.25 1303.23 1486.25 Q1297.42 1486.25 1294.34 1481.67 Q1291.28 1477.06 1291.28 1468.33 Q1291.28 1459.58 1294.34 1455 Q1297.42 1450.39 1303.23 1450.39 Z" fill="#000000" fill-rule="nonzero" fill-opacity="1" /><path clip-path="url(#clip280)" d="M1333.39 1454.1 Q1329.78 1454.1 1327.95 1457.66 Q1326.14 1461.2 1326.14 1468.33 Q1326.14 1475.44 1327.95 1479.01 Q1329.78 1482.55 1333.39 1482.55 Q1337.02 1482.55 1338.83 1479.01 Q1340.66 1475.44 1340.66 1468.33 Q1340.66 1461.2 1338.83 1457.66 Q1337.02 1454.1 1333.39 1454.1 M1333.39 1450.39 Q1339.2 1450.39 1342.25 1455 Q1345.33 1459.58 1345.33 1468.33 Q1345.33 1477.06 1342.25 1481.67 Q1339.2 1486.25 1333.39 1486.25 Q1327.58 1486.25 1324.5 1481.67 Q1321.44 1477.06 1321.44 1468.33 Q1321.44 1459.58 1324.5 1455 Q1327.58 1450.39 1333.39 1450.39 Z" fill="#000000" fill-rule="nonzero" fill-opacity="1" /><path clip-path="url(#clip280)" d="M1756.73 1451.02 L1778.95 1451.02 L1778.95 1453.01 L1766.41 1485.58 L1761.52 1485.58 L1773.33 1454.96 L1756.73 1454.96 L1756.73 1451.02 Z" fill="#000000" fill-rule="nonzero" fill-opacity="1" /><path clip-path="url(#clip280)" d="M1788.12 1451.02 L1806.48 1451.02 L1806.48 1454.96 L1792.4 1454.96 L1792.4 1463.43 Q1793.42 1463.08 1794.44 1462.92 Q1795.46 1462.73 1796.48 1462.73 Q1802.26 1462.73 1805.64 1465.9 Q1809.02 1469.08 1809.02 1474.49 Q1809.02 1480.07 1805.55 1483.17 Q1802.08 1486.25 1795.76 1486.25 Q1793.58 1486.25 1791.31 1485.88 Q1789.07 1485.51 1786.66 1484.77 L1786.66 1480.07 Q1788.75 1481.2 1790.97 1481.76 Q1793.19 1482.32 1795.67 1482.32 Q1799.67 1482.32 1802.01 1480.21 Q1804.35 1478.1 1804.35 1474.49 Q1804.35 1470.88 1802.01 1468.77 Q1799.67 1466.67 1795.67 1466.67 Q1793.79 1466.67 1791.92 1467.08 Q1790.06 1467.5 1788.12 1468.38 L1788.12 1451.02 Z" fill="#000000" fill-rule="nonzero" fill-opacity="1" /><path clip-path="url(#clip280)" d="M1828.24 1454.1 Q1824.62 1454.1 1822.8 1457.66 Q1820.99 1461.2 1820.99 1468.33 Q1820.99 1475.44 1822.8 1479.01 Q1824.62 1482.55 1828.24 1482.55 Q1831.87 1482.55 1833.68 1479.01 Q1835.5 1475.44 1835.5 1468.33 Q1835.5 1461.2 1833.68 1457.66 Q1831.87 1454.1 1828.24 1454.1 M1828.24 1450.39 Q1834.05 1450.39 1837.1 1455 Q1840.18 1459.58 1840.18 1468.33 Q1840.18 1477.06 1837.1 1481.67 Q1834.05 1486.25 1828.24 1486.25 Q1822.43 1486.25 1819.35 1481.67 Q1816.29 1477.06 1816.29 1468.33 Q1816.29 1459.58 1819.35 1455 Q1822.43 1450.39 1828.24 1450.39 Z" fill="#000000" fill-rule="nonzero" fill-opacity="1" /><path clip-path="url(#clip280)" d="M2237.95 1481.64 L2245.58 1481.64 L2245.58 1455.28 L2237.27 1456.95 L2237.27 1452.69 L2245.54 1451.02 L2250.21 1451.02 L2250.21 1481.64 L2257.85 1481.64 L2257.85 1485.58 L2237.95 1485.58 L2237.95 1481.64 Z" fill="#000000" fill-rule="nonzero" fill-opacity="1" /><path clip-path="url(#clip280)" d="M2277.3 1454.1 Q2273.69 1454.1 2271.86 1457.66 Q2270.05 1461.2 2270.05 1468.33 Q2270.05 1475.44 2271.86 1479.01 Q2273.69 1482.55 2277.3 1482.55 Q2280.93 1482.55 2282.74 1479.01 Q2284.57 1475.44 2284.57 1468.33 Q2284.57 1461.2 2282.74 1457.66 Q2280.93 1454.1 2277.3 1454.1 M2277.3 1450.39 Q2283.11 1450.39 2286.16 1455 Q2289.24 1459.58 2289.24 1468.33 Q2289.24 1477.06 2286.16 1481.67 Q2283.11 1486.25 2277.3 1486.25 Q2271.49 1486.25 2268.41 1481.67 Q2265.35 1477.06 2265.35 1468.33 Q2265.35 1459.58 2268.41 1455 Q2271.49 1450.39 2277.3 1450.39 Z" fill="#000000" fill-rule="nonzero" fill-opacity="1" /><path clip-path="url(#clip280)" d="M2307.46 1454.1 Q2303.85 1454.1 2302.02 1457.66 Q2300.21 1461.2 2300.21 1468.33 Q2300.21 1475.44 2302.02 1479.01 Q2303.85 1482.55 2307.46 1482.55 Q2311.09 1482.55 2312.9 1479.01 Q2314.73 1475.44 2314.73 1468.33 Q2314.73 1461.2 2312.9 1457.66 Q2311.09 1454.1 2307.46 1454.1 M2307.46 1450.39 Q2313.27 1450.39 2316.32 1455 Q2319.4 1459.58 2319.4 1468.33 Q2319.4 1477.06 2316.32 1481.67 Q2313.27 1486.25 2307.46 1486.25 Q2301.65 1486.25 2298.57 1481.67 Q2295.51 1477.06 2295.51 1468.33 Q2295.51 1459.58 2298.57 1455 Q2301.65 1450.39 2307.46 1450.39 Z" fill="#000000" fill-rule="nonzero" fill-opacity="1" /><path clip-path="url(#clip280)" d="M2337.62 1454.1 Q2334.01 1454.1 2332.18 1457.66 Q2330.38 1461.2 2330.38 1468.33 Q2330.38 1475.44 2332.18 1479.01 Q2334.01 1482.55 2337.62 1482.55 Q2341.26 1482.55 2343.06 1479.01 Q2344.89 1475.44 2344.89 1468.33 Q2344.89 1461.2 2343.06 1457.66 Q2341.26 1454.1 2337.62 1454.1 M2337.62 1450.39 Q2343.43 1450.39 2346.49 1455 Q2349.57 1459.58 2349.57 1468.33 Q2349.57 1477.06 2346.49 1481.67 Q2343.43 1486.25 2337.62 1486.25 Q2331.81 1486.25 2328.73 1481.67 Q2325.68 1477.06 2325.68 1468.33 Q2325.68 1459.58 2328.73 1455 Q2331.81 1450.39 2337.62 1450.39 Z" fill="#000000" fill-rule="nonzero" fill-opacity="1" /><path clip-path="url(#clip280)" d="M1268.33 1524.18 L1268.33 1530.96 Q1265.08 1527.94 1261.39 1526.44 Q1257.73 1524.95 1253.59 1524.95 Q1245.44 1524.95 1241.11 1529.95 Q1236.78 1534.91 1236.78 1544.33 Q1236.78 1553.72 1241.11 1558.72 Q1245.44 1563.68 1253.59 1563.68 Q1257.73 1563.68 1261.39 1562.19 Q1265.08 1560.69 1268.33 1557.67 L1268.33 1564.38 Q1264.95 1566.68 1261.16 1567.82 Q1257.41 1568.97 1253.21 1568.97 Q1242.42 1568.97 1236.21 1562.38 Q1230 1555.76 1230 1544.33 Q1230 1532.87 1236.21 1526.28 Q1242.42 1519.66 1253.21 1519.66 Q1257.47 1519.66 1261.23 1520.81 Q1265.01 1521.92 1268.33 1524.18 Z" fill="#000000" fill-rule="nonzero" fill-opacity="1" /><path clip-path="url(#clip280)" d="M1308.49 1548.76 L1308.49 1551.62 L1281.57 1551.62 Q1281.95 1557.67 1285.19 1560.85 Q1288.47 1564 1294.3 1564 Q1297.67 1564 1300.82 1563.17 Q1304 1562.35 1307.12 1560.69 L1307.12 1566.23 Q1303.97 1567.57 1300.66 1568.27 Q1297.35 1568.97 1293.95 1568.97 Q1285.42 1568.97 1280.42 1564 Q1275.45 1559.04 1275.45 1550.57 Q1275.45 1541.82 1280.17 1536.69 Q1284.91 1531.54 1292.93 1531.54 Q1300.12 1531.54 1304.29 1536.18 Q1308.49 1540.8 1308.49 1548.76 M1302.64 1547.04 Q1302.57 1542.23 1299.93 1539.37 Q1297.32 1536.5 1292.99 1536.5 Q1288.09 1536.5 1285.13 1539.27 Q1282.2 1542.04 1281.76 1547.07 L1302.64 1547.04 Z" fill="#000000" fill-rule="nonzero" fill-opacity="1" /><path clip-path="url(#clip280)" d="M1318.1 1518.52 L1323.96 1518.52 L1323.96 1568.04 L1318.1 1568.04 L1318.1 1518.52 Z" fill="#000000" fill-rule="nonzero" fill-opacity="1" /><path clip-path="url(#clip280)" d="M1336.22 1518.52 L1342.07 1518.52 L1342.07 1568.04 L1336.22 1568.04 L1336.22 1518.52 Z" fill="#000000" fill-rule="nonzero" fill-opacity="1" /><path clip-path="url(#clip280)" d="M1377.05 1533.45 L1377.05 1538.98 Q1374.57 1537.71 1371.9 1537.07 Q1369.22 1536.44 1366.36 1536.44 Q1362 1536.44 1359.8 1537.77 Q1357.64 1539.11 1357.64 1541.79 Q1357.64 1543.82 1359.2 1545 Q1360.76 1546.15 1365.47 1547.2 L1367.47 1547.64 Q1373.71 1548.98 1376.32 1551.43 Q1378.96 1553.85 1378.96 1558.21 Q1378.96 1563.17 1375.01 1566.07 Q1371.1 1568.97 1364.22 1568.97 Q1361.36 1568.97 1358.24 1568.39 Q1355.15 1567.85 1351.72 1566.74 L1351.72 1560.69 Q1354.96 1562.38 1358.11 1563.24 Q1361.26 1564.07 1364.35 1564.07 Q1368.49 1564.07 1370.72 1562.66 Q1372.95 1561.23 1372.95 1558.65 Q1372.95 1556.27 1371.32 1554.99 Q1369.73 1553.72 1364.29 1552.54 L1362.25 1552.07 Q1356.81 1550.92 1354.39 1548.56 Q1351.97 1546.18 1351.97 1542.04 Q1351.97 1537.01 1355.54 1534.27 Q1359.1 1531.54 1365.66 1531.54 Q1368.9 1531.54 1371.77 1532.01 Q1374.63 1532.49 1377.05 1533.45 Z" fill="#000000" fill-rule="nonzero" fill-opacity="1" /><polyline clip-path="url(#clip282)" style="stroke:#000000; stroke-linecap:round; stroke-linejoin:round; stroke-width:2; stroke-opacity:0.1; fill:none" points="256.209,1107.89 2352.76,1107.89 "/>
<polyline clip-path="url(#clip282)" style="stroke:#000000; stroke-linecap:round; stroke-linejoin:round; stroke-width:2; stroke-opacity:0.1; fill:none" points="256.209,791.972 2352.76,791.972 "/>
<polyline clip-path="url(#clip282)" style="stroke:#000000; stroke-linecap:round; stroke-linejoin:round; stroke-width:2; stroke-opacity:0.1; fill:none" points="256.209,476.055 2352.76,476.055 "/>
<polyline clip-path="url(#clip282)" style="stroke:#000000; stroke-linecap:round; stroke-linejoin:round; stroke-width:2; stroke-opacity:0.1; fill:none" points="256.209,160.138 2352.76,160.138 "/>
<polyline clip-path="url(#clip280)" style="stroke:#000000; stroke-linecap:round; stroke-linejoin:round; stroke-width:4; stroke-opacity:1; fill:none" points="256.209,1423.18 256.209,123.472 "/>
<polyline clip-path="url(#clip280)" style="stroke:#000000; stroke-linecap:round; stroke-linejoin:round; stroke-width:4; stroke-opacity:1; fill:none" points="256.209,1107.89 275.106,1107.89 "/>
<polyline clip-path="url(#clip280)" style="stroke:#000000; stroke-linecap:round; stroke-linejoin:round; stroke-width:4; stroke-opacity:1; fill:none" points="256.209,791.972 275.106,791.972 "/>
<polyline clip-path="url(#clip280)" style="stroke:#000000; stroke-linecap:round; stroke-linejoin:round; stroke-width:4; stroke-opacity:1; fill:none" points="256.209,476.055 275.106,476.055 "/>
<polyline clip-path="url(#clip280)" style="stroke:#000000; stroke-linecap:round; stroke-linejoin:round; stroke-width:4; stroke-opacity:1; fill:none" points="256.209,160.138 275.106,160.138 "/>
<path clip-path="url(#clip280)" d="M114.26 1108.34 L143.936 1108.34 L143.936 1112.28 L114.26 1112.28 L114.26 1108.34 Z" fill="#000000" fill-rule="nonzero" fill-opacity="1" /><path clip-path="url(#clip280)" d="M164.028 1093.69 Q160.417 1093.69 158.589 1097.25 Q156.783 1100.79 156.783 1107.92 Q156.783 1115.03 158.589 1118.59 Q160.417 1122.14 164.028 1122.14 Q167.663 1122.14 169.468 1118.59 Q171.297 1115.03 171.297 1107.92 Q171.297 1100.79 169.468 1097.25 Q167.663 1093.69 164.028 1093.69 M164.028 1089.98 Q169.839 1089.98 172.894 1094.59 Q175.973 1099.17 175.973 1107.92 Q175.973 1116.65 172.894 1121.26 Q169.839 1125.84 164.028 1125.84 Q158.218 1125.84 155.14 1121.26 Q152.084 1116.65 152.084 1107.92 Q152.084 1099.17 155.14 1094.59 Q158.218 1089.98 164.028 1089.98 Z" fill="#000000" fill-rule="nonzero" fill-opacity="1" /><path clip-path="url(#clip280)" d="M184.19 1119.29 L189.075 1119.29 L189.075 1125.17 L184.19 1125.17 L184.19 1119.29 Z" fill="#000000" fill-rule="nonzero" fill-opacity="1" /><path clip-path="url(#clip280)" d="M199.306 1090.61 L217.662 1090.61 L217.662 1094.54 L203.588 1094.54 L203.588 1103.02 Q204.607 1102.67 205.625 1102.51 Q206.644 1102.32 207.662 1102.32 Q213.449 1102.32 216.829 1105.49 Q220.209 1108.66 220.209 1114.08 Q220.209 1119.66 216.736 1122.76 Q213.264 1125.84 206.945 1125.84 Q204.769 1125.84 202.5 1125.47 Q200.255 1125.1 197.848 1124.36 L197.848 1119.66 Q199.931 1120.79 202.153 1121.35 Q204.375 1121.91 206.852 1121.91 Q210.857 1121.91 213.195 1119.8 Q215.533 1117.69 215.533 1114.08 Q215.533 1110.47 213.195 1108.36 Q210.857 1106.26 206.852 1106.26 Q204.977 1106.26 203.102 1106.67 Q201.25 1107.09 199.306 1107.97 L199.306 1090.61 Z" fill="#000000" fill-rule="nonzero" fill-opacity="1" /><path clip-path="url(#clip280)" d="M163.033 777.771 Q159.422 777.771 157.593 781.335 Q155.788 784.877 155.788 792.007 Q155.788 799.113 157.593 802.678 Q159.422 806.22 163.033 806.22 Q166.667 806.22 168.473 802.678 Q170.302 799.113 170.302 792.007 Q170.302 784.877 168.473 781.335 Q166.667 777.771 163.033 777.771 M163.033 774.067 Q168.843 774.067 171.899 778.673 Q174.977 783.257 174.977 792.007 Q174.977 800.733 171.899 805.34 Q168.843 809.923 163.033 809.923 Q157.223 809.923 154.144 805.34 Q151.089 800.733 151.089 792.007 Q151.089 783.257 154.144 778.673 Q157.223 774.067 163.033 774.067 Z" fill="#000000" fill-rule="nonzero" fill-opacity="1" /><path clip-path="url(#clip280)" d="M183.195 803.372 L188.079 803.372 L188.079 809.252 L183.195 809.252 L183.195 803.372 Z" fill="#000000" fill-rule="nonzero" fill-opacity="1" /><path clip-path="url(#clip280)" d="M208.264 777.771 Q204.653 777.771 202.824 781.335 Q201.019 784.877 201.019 792.007 Q201.019 799.113 202.824 802.678 Q204.653 806.22 208.264 806.22 Q211.899 806.22 213.704 802.678 Q215.533 799.113 215.533 792.007 Q215.533 784.877 213.704 781.335 Q211.899 777.771 208.264 777.771 M208.264 774.067 Q214.074 774.067 217.13 778.673 Q220.209 783.257 220.209 792.007 Q220.209 800.733 217.13 805.34 Q214.074 809.923 208.264 809.923 Q202.454 809.923 199.375 805.34 Q196.32 800.733 196.32 792.007 Q196.32 783.257 199.375 778.673 Q202.454 774.067 208.264 774.067 Z" fill="#000000" fill-rule="nonzero" fill-opacity="1" /><path clip-path="url(#clip280)" d="M164.028 461.853 Q160.417 461.853 158.589 465.418 Q156.783 468.96 156.783 476.09 Q156.783 483.196 158.589 486.761 Q160.417 490.302 164.028 490.302 Q167.663 490.302 169.468 486.761 Q171.297 483.196 171.297 476.09 Q171.297 468.96 169.468 465.418 Q167.663 461.853 164.028 461.853 M164.028 458.15 Q169.839 458.15 172.894 462.756 Q175.973 467.34 175.973 476.09 Q175.973 484.816 172.894 489.423 Q169.839 494.006 164.028 494.006 Q158.218 494.006 155.14 489.423 Q152.084 484.816 152.084 476.09 Q152.084 467.34 155.14 462.756 Q158.218 458.15 164.028 458.15 Z" fill="#000000" fill-rule="nonzero" fill-opacity="1" /><path clip-path="url(#clip280)" d="M184.19 487.455 L189.075 487.455 L189.075 493.335 L184.19 493.335 L184.19 487.455 Z" fill="#000000" fill-rule="nonzero" fill-opacity="1" /><path clip-path="url(#clip280)" d="M199.306 458.775 L217.662 458.775 L217.662 462.71 L203.588 462.71 L203.588 471.182 Q204.607 470.835 205.625 470.673 Q206.644 470.488 207.662 470.488 Q213.449 470.488 216.829 473.659 Q220.209 476.83 220.209 482.247 Q220.209 487.826 216.736 490.927 Q213.264 494.006 206.945 494.006 Q204.769 494.006 202.5 493.636 Q200.255 493.265 197.848 492.525 L197.848 487.826 Q199.931 488.96 202.153 489.515 Q204.375 490.071 206.852 490.071 Q210.857 490.071 213.195 487.964 Q215.533 485.858 215.533 482.247 Q215.533 478.636 213.195 476.529 Q210.857 474.423 206.852 474.423 Q204.977 474.423 203.102 474.84 Q201.25 475.256 199.306 476.136 L199.306 458.775 Z" fill="#000000" fill-rule="nonzero" fill-opacity="1" /><path clip-path="url(#clip280)" d="M153.843 173.483 L161.482 173.483 L161.482 147.117 L153.172 148.784 L153.172 144.524 L161.436 142.858 L166.112 142.858 L166.112 173.483 L173.751 173.483 L173.751 177.418 L153.843 177.418 L153.843 173.483 Z" fill="#000000" fill-rule="nonzero" fill-opacity="1" /><path clip-path="url(#clip280)" d="M183.195 171.538 L188.079 171.538 L188.079 177.418 L183.195 177.418 L183.195 171.538 Z" fill="#000000" fill-rule="nonzero" fill-opacity="1" /><path clip-path="url(#clip280)" d="M208.264 145.936 Q204.653 145.936 202.824 149.501 Q201.019 153.043 201.019 160.172 Q201.019 167.279 202.824 170.844 Q204.653 174.385 208.264 174.385 Q211.899 174.385 213.704 170.844 Q215.533 167.279 215.533 160.172 Q215.533 153.043 213.704 149.501 Q211.899 145.936 208.264 145.936 M208.264 142.233 Q214.074 142.233 217.13 146.839 Q220.209 151.422 220.209 160.172 Q220.209 168.899 217.13 173.506 Q214.074 178.089 208.264 178.089 Q202.454 178.089 199.375 173.506 Q196.32 168.899 196.32 160.172 Q196.32 151.422 199.375 146.839 Q202.454 142.233 208.264 142.233 Z" fill="#000000" fill-rule="nonzero" fill-opacity="1" /><path clip-path="url(#clip280)" d="M18.0438 893.717 L24.314 893.717 Q22.5634 897.378 21.704 900.624 Q20.8447 903.871 20.8447 906.894 Q20.8447 912.146 22.8817 915.011 Q24.9187 917.843 28.6745 917.843 Q31.8255 917.843 33.4488 915.966 Q35.0402 914.056 36.0269 908.772 L36.8226 904.889 Q38.1912 897.696 41.6605 894.29 Q45.098 890.853 50.8908 890.853 Q57.7976 890.853 61.3624 895.5 Q64.9272 900.115 64.9272 909.059 Q64.9272 912.433 64.1633 916.252 Q63.3994 920.04 61.9035 924.114 L55.2831 924.114 Q57.4793 920.199 58.5933 916.443 Q59.7073 912.687 59.7073 909.059 Q59.7073 903.552 57.543 900.561 Q55.3786 897.569 51.3682 897.569 Q47.8671 897.569 45.8937 899.733 Q43.9204 901.866 42.9337 906.767 L42.1698 910.682 Q40.7375 917.875 37.682 921.09 Q34.6264 924.305 29.1837 924.305 Q22.8817 924.305 19.2532 919.88 Q15.6248 915.424 15.6248 907.626 Q15.6248 904.284 16.2295 900.815 Q16.8343 897.346 18.0438 893.717 Z" fill="#000000" fill-rule="nonzero" fill-opacity="1" /><path clip-path="url(#clip280)" d="M28.3562 881.081 L28.3562 875.225 L64.0042 875.225 L64.0042 881.081 L28.3562 881.081 M14.479 881.081 L14.479 875.225 L21.895 875.225 L21.895 881.081 L14.479 881.081 Z" fill="#000000" fill-rule="nonzero" fill-opacity="1" /><path clip-path="url(#clip280)" d="M35.1993 835.217 Q31.2526 833.02 29.3747 829.965 Q27.4968 826.909 27.4968 822.772 Q27.4968 817.202 31.4117 814.178 Q35.2948 811.154 42.4881 811.154 L64.0042 811.154 L64.0042 817.042 L42.679 817.042 Q37.5546 817.042 35.072 818.857 Q32.5894 820.671 32.5894 824.395 Q32.5894 828.946 35.6131 831.588 Q38.6368 834.23 43.8567 834.23 L64.0042 834.23 L64.0042 840.118 L42.679 840.118 Q37.5228 840.118 35.072 841.932 Q32.5894 843.747 32.5894 847.534 Q32.5894 852.022 35.6449 854.664 Q38.6686 857.306 43.8567 857.306 L64.0042 857.306 L64.0042 863.194 L28.3562 863.194 L28.3562 857.306 L33.8944 857.306 Q30.616 855.3 29.0564 852.499 Q27.4968 849.699 27.4968 845.847 Q27.4968 841.964 29.4702 839.259 Q31.4436 836.522 35.1993 835.217 Z" fill="#000000" fill-rule="nonzero" fill-opacity="1" /><path clip-path="url(#clip280)" d="M28.3562 799.473 L28.3562 793.617 L64.0042 793.617 L64.0042 799.473 L28.3562 799.473 M14.479 799.473 L14.479 793.617 L21.895 793.617 L21.895 799.473 L14.479 799.473 Z" fill="#000000" fill-rule="nonzero" fill-opacity="1" /><path clip-path="url(#clip280)" d="M14.479 781.363 L14.479 775.506 L64.0042 775.506 L64.0042 781.363 L14.479 781.363 Z" fill="#000000" fill-rule="nonzero" fill-opacity="1" /><path clip-path="url(#clip280)" d="M46.0847 747.052 Q46.0847 754.149 47.7079 756.887 Q49.3312 759.624 53.2461 759.624 Q56.3653 759.624 58.2114 757.587 Q60.0256 755.518 60.0256 751.985 Q60.0256 747.115 56.5881 744.187 Q53.1188 741.227 47.3897 741.227 L46.0847 741.227 L46.0847 747.052 M43.6657 735.37 L64.0042 735.37 L64.0042 741.227 L58.5933 741.227 Q61.8398 743.232 63.3994 746.224 Q64.9272 749.216 64.9272 753.545 Q64.9272 759.019 61.8716 762.266 Q58.7843 765.48 53.6281 765.48 Q47.6125 765.48 44.5569 761.47 Q41.5014 757.428 41.5014 749.439 L41.5014 741.227 L40.9285 741.227 Q36.8862 741.227 34.6901 743.901 Q32.4621 746.542 32.4621 751.348 Q32.4621 754.404 33.1941 757.3 Q33.9262 760.197 35.3903 762.87 L29.9795 762.87 Q28.7381 759.656 28.1334 756.632 Q27.4968 753.608 27.4968 750.744 Q27.4968 743.009 31.5072 739.19 Q35.5176 735.37 43.6657 735.37 Z" fill="#000000" fill-rule="nonzero" fill-opacity="1" /><path clip-path="url(#clip280)" d="M33.8307 702.651 Q33.2578 703.637 33.0032 704.815 Q32.7167 705.961 32.7167 707.361 Q32.7167 712.327 35.9632 715 Q39.1779 717.642 45.2253 717.642 L64.0042 717.642 L64.0042 723.53 L28.3562 723.53 L28.3562 717.642 L33.8944 717.642 Q30.6479 715.796 29.0883 712.836 Q27.4968 709.876 27.4968 705.643 Q27.4968 705.038 27.5923 704.306 Q27.656 703.574 27.8151 702.683 L33.8307 702.651 Z" fill="#000000" fill-rule="nonzero" fill-opacity="1" /><path clip-path="url(#clip280)" d="M28.3562 696.508 L28.3562 690.651 L64.0042 690.651 L64.0042 696.508 L28.3562 696.508 M14.479 696.508 L14.479 690.651 L21.895 690.651 L21.895 696.508 L14.479 696.508 Z" fill="#000000" fill-rule="nonzero" fill-opacity="1" /><path clip-path="url(#clip280)" d="M18.2347 672.605 L28.3562 672.605 L28.3562 660.542 L32.9077 660.542 L32.9077 672.605 L52.2594 672.605 Q56.6199 672.605 57.8613 671.427 Q59.1026 670.217 59.1026 666.557 L59.1026 660.542 L64.0042 660.542 L64.0042 666.557 Q64.0042 673.337 61.4897 675.915 Q58.9434 678.493 52.2594 678.493 L32.9077 678.493 L32.9077 682.79 L28.3562 682.79 L28.3562 678.493 L18.2347 678.493 L18.2347 672.605 Z" fill="#000000" fill-rule="nonzero" fill-opacity="1" /><path clip-path="url(#clip280)" d="M67.3143 638.007 Q73.68 640.49 75.6216 642.845 Q77.5631 645.2 77.5631 649.147 L77.5631 653.826 L72.6615 653.826 L72.6615 650.388 Q72.6615 647.969 71.5157 646.633 Q70.3699 645.296 66.1048 643.672 L63.4312 642.622 L28.3562 657.04 L28.3562 650.834 L56.238 639.694 L28.3562 628.554 L28.3562 622.347 L67.3143 638.007 Z" fill="#000000" fill-rule="nonzero" fill-opacity="1" /><path clip-path="url(#clip280)" d="M423.147 14.0809 L423.147 22.0612 Q418.489 19.8332 414.357 18.7395 Q410.225 17.6457 406.377 17.6457 Q399.693 17.6457 396.047 20.2383 Q392.441 22.8309 392.441 27.611 Q392.441 31.6214 394.831 33.6873 Q397.262 35.7128 403.987 36.9686 L408.929 37.9813 Q418.084 39.7232 422.418 44.1387 Q426.793 48.5136 426.793 55.8863 Q426.793 64.6767 420.879 69.2137 Q415.005 73.7508 403.622 73.7508 Q399.328 73.7508 394.467 72.7785 Q389.646 71.8063 384.461 69.9024 L384.461 61.4765 Q389.444 64.2716 394.224 65.6895 Q399.004 67.1073 403.622 67.1073 Q410.63 67.1073 414.438 64.3527 Q418.246 61.598 418.246 56.4939 Q418.246 52.0379 415.491 49.5264 Q412.777 47.0148 406.539 45.759 L401.556 44.7868 Q392.401 42.9639 388.31 39.075 Q384.218 35.1862 384.218 28.2591 Q384.218 20.2383 389.849 15.6203 Q395.52 11.0023 405.445 11.0023 Q409.698 11.0023 414.114 11.7719 Q418.529 12.5416 423.147 14.0809 Z" fill="#000000" fill-rule="nonzero" fill-opacity="1" /><path clip-path="url(#clip280)" d="M456.81 32.4315 Q450.815 32.4315 447.331 37.1306 Q443.847 41.7891 443.847 49.9314 Q443.847 58.0738 447.291 62.7728 Q450.774 67.4314 456.81 67.4314 Q462.765 67.4314 466.249 62.7323 Q469.733 58.0333 469.733 49.9314 Q469.733 41.8701 466.249 37.1711 Q462.765 32.4315 456.81 32.4315 M456.81 26.1121 Q466.532 26.1121 472.082 32.4315 Q477.632 38.7509 477.632 49.9314 Q477.632 61.0714 472.082 67.4314 Q466.532 73.7508 456.81 73.7508 Q447.048 73.7508 441.498 67.4314 Q435.989 61.0714 435.989 49.9314 Q435.989 38.7509 441.498 32.4315 Q447.048 26.1121 456.81 26.1121 Z" fill="#000000" fill-rule="nonzero" fill-opacity="1" /><path clip-path="url(#clip280)" d="M516.278 34.1734 Q515.022 33.4443 513.523 33.1202 Q512.065 32.7556 510.282 32.7556 Q503.963 32.7556 500.56 36.8875 Q497.198 40.9789 497.198 48.6757 L497.198 72.576 L489.704 72.576 L489.704 27.2059 L497.198 27.2059 L497.198 34.2544 Q499.547 30.1225 503.315 28.1376 Q507.082 26.1121 512.47 26.1121 Q513.239 26.1121 514.171 26.2337 Q515.103 26.3147 516.237 26.5172 L516.278 34.1734 Z" fill="#000000" fill-rule="nonzero" fill-opacity="1" /><path clip-path="url(#clip280)" d="M531.468 14.324 L531.468 27.2059 L546.821 27.2059 L546.821 32.9987 L531.468 32.9987 L531.468 57.6282 Q531.468 63.1779 532.967 64.7578 Q534.507 66.3376 539.165 66.3376 L546.821 66.3376 L546.821 72.576 L539.165 72.576 Q530.537 72.576 527.256 69.3758 Q523.974 66.1351 523.974 57.6282 L523.974 32.9987 L518.506 32.9987 L518.506 27.2059 L523.974 27.2059 L523.974 14.324 L531.468 14.324 Z" fill="#000000" fill-rule="nonzero" fill-opacity="1" /><path clip-path="url(#clip280)" d="M595.432 48.0275 L595.432 51.6733 L561.162 51.6733 Q561.648 59.3701 565.78 63.421 Q569.952 67.4314 577.365 67.4314 Q581.659 67.4314 585.67 66.3781 Q589.72 65.3249 593.69 63.2184 L593.69 70.267 Q589.68 71.9684 585.467 72.8596 Q581.254 73.7508 576.92 73.7508 Q566.063 73.7508 559.703 67.4314 Q553.384 61.1119 553.384 50.3365 Q553.384 39.1965 559.379 32.6746 Q565.415 26.1121 575.623 26.1121 Q584.778 26.1121 590.085 32.0264 Q595.432 37.9003 595.432 48.0275 M587.979 45.84 Q587.898 39.7232 584.535 36.0774 Q581.214 32.4315 575.704 32.4315 Q569.466 32.4315 565.699 35.9558 Q561.972 39.4801 561.405 45.8805 L587.979 45.84 Z" fill="#000000" fill-rule="nonzero" fill-opacity="1" /><path clip-path="url(#clip280)" d="M637.521 34.0924 L637.521 9.54393 L644.975 9.54393 L644.975 72.576 L637.521 72.576 L637.521 65.7705 Q635.172 69.8214 631.566 71.8063 Q628.002 73.7508 622.978 73.7508 Q614.755 73.7508 609.57 67.1883 Q604.425 60.6258 604.425 49.9314 Q604.425 39.2371 609.57 32.6746 Q614.755 26.1121 622.978 26.1121 Q628.002 26.1121 631.566 28.0971 Q635.172 30.0415 637.521 34.0924 M612.122 49.9314 Q612.122 58.1548 615.484 62.8538 Q618.887 67.5124 624.801 67.5124 Q630.716 67.5124 634.118 62.8538 Q637.521 58.1548 637.521 49.9314 Q637.521 41.7081 634.118 37.0496 Q630.716 32.3505 624.801 32.3505 Q618.887 32.3505 615.484 37.0496 Q612.122 41.7081 612.122 49.9314 Z" fill="#000000" fill-rule="nonzero" fill-opacity="1" /><path clip-path="url(#clip280)" d="M719.349 28.9478 L719.349 35.9153 Q716.19 34.1734 712.99 33.3227 Q709.83 32.4315 706.589 32.4315 Q699.338 32.4315 695.328 37.0496 Q691.317 41.6271 691.317 49.9314 Q691.317 58.2358 695.328 62.8538 Q699.338 67.4314 706.589 67.4314 Q709.83 67.4314 712.99 66.5807 Q716.19 65.6895 719.349 63.9476 L719.349 70.8341 Q716.23 72.2924 712.868 73.0216 Q709.546 73.7508 705.779 73.7508 Q695.53 73.7508 689.494 67.3098 Q683.458 60.8689 683.458 49.9314 Q683.458 38.832 689.535 32.472 Q695.652 26.1121 706.265 26.1121 Q709.708 26.1121 712.99 26.8413 Q716.271 27.5299 719.349 28.9478 Z" fill="#000000" fill-rule="nonzero" fill-opacity="1" /><path clip-path="url(#clip280)" d="M749.893 32.4315 Q743.898 32.4315 740.414 37.1306 Q736.93 41.7891 736.93 49.9314 Q736.93 58.0738 740.374 62.7728 Q743.857 67.4314 749.893 67.4314 Q755.848 67.4314 759.332 62.7323 Q762.816 58.0333 762.816 49.9314 Q762.816 41.8701 759.332 37.1711 Q755.848 32.4315 749.893 32.4315 M749.893 26.1121 Q759.615 26.1121 765.165 32.4315 Q770.715 38.7509 770.715 49.9314 Q770.715 61.0714 765.165 67.4314 Q759.615 73.7508 749.893 73.7508 Q740.131 73.7508 734.581 67.4314 Q729.072 61.0714 729.072 49.9314 Q729.072 38.7509 734.581 32.4315 Q740.131 26.1121 749.893 26.1121 Z" fill="#000000" fill-rule="nonzero" fill-opacity="1" /><path clip-path="url(#clip280)" d="M811.994 28.5427 L811.994 35.5912 Q808.834 33.9709 805.431 33.1607 Q802.028 32.3505 798.383 32.3505 Q792.833 32.3505 790.038 34.0519 Q787.283 35.7533 787.283 39.156 Q787.283 41.7486 789.268 43.2475 Q791.253 44.7058 797.248 46.0426 L799.8 46.6097 Q807.74 48.3111 811.062 51.4303 Q814.424 54.509 814.424 60.0587 Q814.424 66.3781 809.401 70.0644 Q804.418 73.7508 795.668 73.7508 Q792.023 73.7508 788.053 73.0216 Q784.123 72.3329 779.748 70.9151 L779.748 63.2184 Q783.88 65.3654 787.891 66.4591 Q791.901 67.5124 795.83 67.5124 Q801.097 67.5124 803.932 65.73 Q806.768 63.9071 806.768 60.6258 Q806.768 57.5877 804.702 55.9673 Q802.677 54.3469 795.749 52.8481 L793.157 52.2405 Q786.23 50.7821 783.151 47.7845 Q780.072 44.7463 780.072 39.4801 Q780.072 33.0797 784.609 29.5959 Q789.147 26.1121 797.491 26.1121 Q801.623 26.1121 805.269 26.7198 Q808.915 27.3274 811.994 28.5427 Z" fill="#000000" fill-rule="nonzero" fill-opacity="1" /><path clip-path="url(#clip280)" d="M826.293 27.2059 L833.747 27.2059 L833.747 72.576 L826.293 72.576 L826.293 27.2059 M826.293 9.54393 L833.747 9.54393 L833.747 18.9825 L826.293 18.9825 L826.293 9.54393 Z" fill="#000000" fill-rule="nonzero" fill-opacity="1" /><path clip-path="url(#clip280)" d="M887.057 45.1919 L887.057 72.576 L879.603 72.576 L879.603 45.4349 Q879.603 38.994 877.092 35.7938 Q874.58 32.5936 869.557 32.5936 Q863.521 32.5936 860.037 36.4419 Q856.554 40.2903 856.554 46.9338 L856.554 72.576 L849.059 72.576 L849.059 27.2059 L856.554 27.2059 L856.554 34.2544 Q859.227 30.163 862.832 28.1376 Q866.478 26.1121 871.218 26.1121 Q879.036 26.1121 883.046 30.9732 Q887.057 35.7938 887.057 45.1919 Z" fill="#000000" fill-rule="nonzero" fill-opacity="1" /><path clip-path="url(#clip280)" d="M940.731 48.0275 L940.731 51.6733 L906.461 51.6733 Q906.947 59.3701 911.079 63.421 Q915.251 67.4314 922.664 67.4314 Q926.958 67.4314 930.969 66.3781 Q935.02 65.3249 938.989 63.2184 L938.989 70.267 Q934.979 71.9684 930.766 72.8596 Q926.553 73.7508 922.219 73.7508 Q911.362 73.7508 905.002 67.4314 Q898.683 61.1119 898.683 50.3365 Q898.683 39.1965 904.678 32.6746 Q910.714 26.1121 920.922 26.1121 Q930.077 26.1121 935.384 32.0264 Q940.731 37.9003 940.731 48.0275 M933.278 45.84 Q933.197 39.7232 929.834 36.0774 Q926.513 32.4315 921.003 32.4315 Q914.765 32.4315 910.998 35.9558 Q907.271 39.4801 906.704 45.8805 L933.278 45.84 Z" fill="#000000" fill-rule="nonzero" fill-opacity="1" /><path clip-path="url(#clip280)" d="M1008.26 28.5427 L1008.26 35.5912 Q1005.1 33.9709 1001.7 33.1607 Q998.295 32.3505 994.649 32.3505 Q989.099 32.3505 986.304 34.0519 Q983.549 35.7533 983.549 39.156 Q983.549 41.7486 985.534 43.2475 Q987.519 44.7058 993.515 46.0426 L996.067 46.6097 Q1004.01 48.3111 1007.33 51.4303 Q1010.69 54.509 1010.69 60.0587 Q1010.69 66.3781 1005.67 70.0644 Q1000.68 73.7508 991.935 73.7508 Q988.289 73.7508 984.319 73.0216 Q980.39 72.3329 976.015 70.9151 L976.015 63.2184 Q980.147 65.3654 984.157 66.4591 Q988.167 67.5124 992.097 67.5124 Q997.363 67.5124 1000.2 65.73 Q1003.03 63.9071 1003.03 60.6258 Q1003.03 57.5877 1000.97 55.9673 Q998.943 54.3469 992.016 52.8481 L989.423 52.2405 Q982.496 50.7821 979.417 47.7845 Q976.339 44.7463 976.339 39.4801 Q976.339 33.0797 980.876 29.5959 Q985.413 26.1121 993.758 26.1121 Q997.89 26.1121 1001.54 26.7198 Q1005.18 27.3274 1008.26 28.5427 Z" fill="#000000" fill-rule="nonzero" fill-opacity="1" /><path clip-path="url(#clip280)" d="M1022.56 27.2059 L1030.01 27.2059 L1030.01 72.576 L1022.56 72.576 L1022.56 27.2059 M1022.56 9.54393 L1030.01 9.54393 L1030.01 18.9825 L1022.56 18.9825 L1022.56 9.54393 Z" fill="#000000" fill-rule="nonzero" fill-opacity="1" /><path clip-path="url(#clip280)" d="M1080.93 35.9153 Q1083.73 30.8922 1087.62 28.5022 Q1091.51 26.1121 1096.77 26.1121 Q1103.86 26.1121 1107.71 31.0947 Q1111.56 36.0368 1111.56 45.1919 L1111.56 72.576 L1104.06 72.576 L1104.06 45.4349 Q1104.06 38.913 1101.75 35.7533 Q1099.45 32.5936 1094.71 32.5936 Q1088.91 32.5936 1085.55 36.4419 Q1082.19 40.2903 1082.19 46.9338 L1082.19 72.576 L1074.69 72.576 L1074.69 45.4349 Q1074.69 38.8725 1072.39 35.7533 Q1070.08 32.5936 1065.26 32.5936 Q1059.54 32.5936 1056.18 36.4824 Q1052.82 40.3308 1052.82 46.9338 L1052.82 72.576 L1045.33 72.576 L1045.33 27.2059 L1052.82 27.2059 L1052.82 34.2544 Q1055.37 30.082 1058.94 28.0971 Q1062.5 26.1121 1067.4 26.1121 Q1072.35 26.1121 1075.79 28.6237 Q1079.27 31.1352 1080.93 35.9153 Z" fill="#000000" fill-rule="nonzero" fill-opacity="1" /><path clip-path="url(#clip280)" d="M1126.42 27.2059 L1133.88 27.2059 L1133.88 72.576 L1126.42 72.576 L1126.42 27.2059 M1126.42 9.54393 L1133.88 9.54393 L1133.88 18.9825 L1126.42 18.9825 L1126.42 9.54393 Z" fill="#000000" fill-rule="nonzero" fill-opacity="1" /><path clip-path="url(#clip280)" d="M1149.47 9.54393 L1156.93 9.54393 L1156.93 72.576 L1149.47 72.576 L1149.47 9.54393 Z" fill="#000000" fill-rule="nonzero" fill-opacity="1" /><path clip-path="url(#clip280)" d="M1193.14 49.7694 Q1184.11 49.7694 1180.63 51.8354 Q1177.14 53.9013 1177.14 58.8839 Q1177.14 62.8538 1179.73 65.2034 Q1182.37 67.5124 1186.86 67.5124 Q1193.06 67.5124 1196.79 63.1374 Q1200.56 58.7219 1200.56 51.4303 L1200.56 49.7694 L1193.14 49.7694 M1208.01 46.6907 L1208.01 72.576 L1200.56 72.576 L1200.56 65.6895 Q1198 69.8214 1194.2 71.8063 Q1190.39 73.7508 1184.88 73.7508 Q1177.91 73.7508 1173.78 69.8619 Q1169.69 65.9325 1169.69 59.3701 Q1169.69 51.7138 1174.79 47.825 Q1179.94 43.9361 1190.11 43.9361 L1200.56 43.9361 L1200.56 43.2069 Q1200.56 38.0623 1197.15 35.2672 Q1193.79 32.4315 1187.67 32.4315 Q1183.79 32.4315 1180.1 33.3632 Q1176.41 34.295 1173.01 36.1584 L1173.01 29.2718 Q1177.1 27.692 1180.95 26.9223 Q1184.8 26.1121 1188.44 26.1121 Q1198.29 26.1121 1203.15 31.2163 Q1208.01 36.3204 1208.01 46.6907 Z" fill="#000000" fill-rule="nonzero" fill-opacity="1" /><path clip-path="url(#clip280)" d="M1249.65 34.1734 Q1248.4 33.4443 1246.9 33.1202 Q1245.44 32.7556 1243.66 32.7556 Q1237.34 32.7556 1233.94 36.8875 Q1230.57 40.9789 1230.57 48.6757 L1230.57 72.576 L1223.08 72.576 L1223.08 27.2059 L1230.57 27.2059 L1230.57 34.2544 Q1232.92 30.1225 1236.69 28.1376 Q1240.46 26.1121 1245.85 26.1121 Q1246.62 26.1121 1247.55 26.2337 Q1248.48 26.3147 1249.61 26.5172 L1249.65 34.1734 Z" fill="#000000" fill-rule="nonzero" fill-opacity="1" /><path clip-path="url(#clip280)" d="M1257.47 27.2059 L1264.93 27.2059 L1264.93 72.576 L1257.47 72.576 L1257.47 27.2059 M1257.47 9.54393 L1264.93 9.54393 L1264.93 18.9825 L1257.47 18.9825 L1257.47 9.54393 Z" fill="#000000" fill-rule="nonzero" fill-opacity="1" /><path clip-path="url(#clip280)" d="M1287.89 14.324 L1287.89 27.2059 L1303.25 27.2059 L1303.25 32.9987 L1287.89 32.9987 L1287.89 57.6282 Q1287.89 63.1779 1289.39 64.7578 Q1290.93 66.3376 1295.59 66.3376 L1303.25 66.3376 L1303.25 72.576 L1295.59 72.576 Q1286.96 72.576 1283.68 69.3758 Q1280.4 66.1351 1280.4 57.6282 L1280.4 32.9987 L1274.93 32.9987 L1274.93 27.2059 L1280.4 27.2059 L1280.4 14.324 L1287.89 14.324 Z" fill="#000000" fill-rule="nonzero" fill-opacity="1" /><path clip-path="url(#clip280)" d="M1313.05 27.2059 L1320.5 27.2059 L1320.5 72.576 L1313.05 72.576 L1313.05 27.2059 M1313.05 9.54393 L1320.5 9.54393 L1320.5 18.9825 L1313.05 18.9825 L1313.05 9.54393 Z" fill="#000000" fill-rule="nonzero" fill-opacity="1" /><path clip-path="url(#clip280)" d="M1374.91 48.0275 L1374.91 51.6733 L1340.64 51.6733 Q1341.12 59.3701 1345.25 63.421 Q1349.43 67.4314 1356.84 67.4314 Q1361.13 67.4314 1365.14 66.3781 Q1369.2 65.3249 1373.17 63.2184 L1373.17 70.267 Q1369.15 71.9684 1364.94 72.8596 Q1360.73 73.7508 1356.39 73.7508 Q1345.54 73.7508 1339.18 67.4314 Q1332.86 61.1119 1332.86 50.3365 Q1332.86 39.1965 1338.85 32.6746 Q1344.89 26.1121 1355.1 26.1121 Q1364.25 26.1121 1369.56 32.0264 Q1374.91 37.9003 1374.91 48.0275 M1367.45 45.84 Q1367.37 39.7232 1364.01 36.0774 Q1360.69 32.4315 1355.18 32.4315 Q1348.94 32.4315 1345.17 35.9558 Q1341.45 39.4801 1340.88 45.8805 L1367.45 45.84 Z" fill="#000000" fill-rule="nonzero" fill-opacity="1" /><path clip-path="url(#clip280)" d="M1416.06 28.5427 L1416.06 35.5912 Q1412.9 33.9709 1409.5 33.1607 Q1406.1 32.3505 1402.45 32.3505 Q1396.9 32.3505 1394.11 34.0519 Q1391.35 35.7533 1391.35 39.156 Q1391.35 41.7486 1393.34 43.2475 Q1395.32 44.7058 1401.32 46.0426 L1403.87 46.6097 Q1411.81 48.3111 1415.13 51.4303 Q1418.49 54.509 1418.49 60.0587 Q1418.49 66.3781 1413.47 70.0644 Q1408.49 73.7508 1399.74 73.7508 Q1396.09 73.7508 1392.12 73.0216 Q1388.19 72.3329 1383.82 70.9151 L1383.82 63.2184 Q1387.95 65.3654 1391.96 66.4591 Q1395.97 67.5124 1399.9 67.5124 Q1405.17 67.5124 1408 65.73 Q1410.84 63.9071 1410.84 60.6258 Q1410.84 57.5877 1408.77 55.9673 Q1406.75 54.3469 1399.82 52.8481 L1397.23 52.2405 Q1390.3 50.7821 1387.22 47.7845 Q1384.14 44.7463 1384.14 39.4801 Q1384.14 33.0797 1388.68 29.5959 Q1393.22 26.1121 1401.56 26.1121 Q1405.69 26.1121 1409.34 26.7198 Q1412.99 27.3274 1416.06 28.5427 Z" fill="#000000" fill-rule="nonzero" fill-opacity="1" /><path clip-path="url(#clip280)" d="M1489.39 28.9478 L1489.39 35.9153 Q1486.23 34.1734 1483.03 33.3227 Q1479.87 32.4315 1476.63 32.4315 Q1469.37 32.4315 1465.36 37.0496 Q1461.35 41.6271 1461.35 49.9314 Q1461.35 58.2358 1465.36 62.8538 Q1469.37 67.4314 1476.63 67.4314 Q1479.87 67.4314 1483.03 66.5807 Q1486.23 65.6895 1489.39 63.9476 L1489.39 70.8341 Q1486.27 72.2924 1482.9 73.0216 Q1479.58 73.7508 1475.82 73.7508 Q1465.57 73.7508 1459.53 67.3098 Q1453.49 60.8689 1453.49 49.9314 Q1453.49 38.832 1459.57 32.472 Q1465.69 26.1121 1476.3 26.1121 Q1479.74 26.1121 1483.03 26.8413 Q1486.31 27.5299 1489.39 28.9478 Z" fill="#000000" fill-rule="nonzero" fill-opacity="1" /><path clip-path="url(#clip280)" d="M1541.16 48.0275 L1541.16 51.6733 L1506.89 51.6733 Q1507.37 59.3701 1511.5 63.421 Q1515.68 67.4314 1523.09 67.4314 Q1527.38 67.4314 1531.39 66.3781 Q1535.44 65.3249 1539.41 63.2184 L1539.41 70.267 Q1535.4 71.9684 1531.19 72.8596 Q1526.98 73.7508 1522.64 73.7508 Q1511.79 73.7508 1505.43 67.4314 Q1499.11 61.1119 1499.11 50.3365 Q1499.11 39.1965 1505.1 32.6746 Q1511.14 26.1121 1521.35 26.1121 Q1530.5 26.1121 1535.81 32.0264 Q1541.16 37.9003 1541.16 48.0275 M1533.7 45.84 Q1533.62 39.7232 1530.26 36.0774 Q1526.94 32.4315 1521.43 32.4315 Q1515.19 32.4315 1511.42 35.9558 Q1507.7 39.4801 1507.13 45.8805 L1533.7 45.84 Z" fill="#000000" fill-rule="nonzero" fill-opacity="1" /><path clip-path="url(#clip280)" d="M1553.39 9.54393 L1560.84 9.54393 L1560.84 72.576 L1553.39 72.576 L1553.39 9.54393 Z" fill="#000000" fill-rule="nonzero" fill-opacity="1" /><path clip-path="url(#clip280)" d="M1576.44 9.54393 L1583.89 9.54393 L1583.89 72.576 L1576.44 72.576 L1576.44 9.54393 Z" fill="#000000" fill-rule="nonzero" fill-opacity="1" /><path clip-path="url(#clip280)" d="M1651.71 39.9662 Q1657.58 41.222 1660.86 45.1919 Q1664.18 49.1618 1664.18 54.9951 Q1664.18 63.9476 1658.02 68.8492 Q1651.87 73.7508 1640.53 73.7508 Q1636.72 73.7508 1632.67 72.9811 Q1628.66 72.2519 1624.36 70.7531 L1624.36 62.8538 Q1627.76 64.8388 1631.82 65.8515 Q1635.87 66.8642 1640.28 66.8642 Q1647.98 66.8642 1651.99 63.826 Q1656.04 60.7879 1656.04 54.9951 Q1656.04 49.6479 1652.27 46.6502 Q1648.55 43.612 1641.86 43.612 L1634.81 43.612 L1634.81 36.8875 L1642.19 36.8875 Q1648.22 36.8875 1651.42 34.4975 Q1654.62 32.067 1654.62 27.5299 Q1654.62 22.8714 1651.3 20.4004 Q1648.02 17.8888 1641.86 17.8888 Q1638.5 17.8888 1634.65 18.618 Q1630.8 19.3471 1626.18 20.8865 L1626.18 13.5948 Q1630.84 12.2985 1634.89 11.6504 Q1638.99 11.0023 1642.59 11.0023 Q1651.91 11.0023 1657.34 15.2557 Q1662.76 19.4686 1662.76 26.6793 Q1662.76 31.7024 1659.89 35.1862 Q1657.01 38.6294 1651.71 39.9662 Z" fill="#000000" fill-rule="nonzero" fill-opacity="1" /><path clip-path="url(#clip280)" d="M1679.78 12.096 L1711.9 12.096 L1711.9 18.9825 L1687.27 18.9825 L1687.27 33.8088 Q1689.05 33.2012 1690.84 32.9176 Q1692.62 32.5936 1694.4 32.5936 Q1704.53 32.5936 1710.44 38.1433 Q1716.36 43.6931 1716.36 53.1722 Q1716.36 62.9348 1710.28 68.3631 Q1704.21 73.7508 1693.15 73.7508 Q1689.34 73.7508 1685.37 73.1026 Q1681.44 72.4545 1677.23 71.1582 L1677.23 62.9348 Q1680.87 64.9198 1684.76 65.892 Q1688.65 66.8642 1692.98 66.8642 Q1699.99 66.8642 1704.08 63.1779 Q1708.18 59.4916 1708.18 53.1722 Q1708.18 46.8528 1704.08 43.1664 Q1699.99 39.4801 1692.98 39.4801 Q1689.7 39.4801 1686.42 40.2093 Q1683.18 40.9384 1679.78 42.4778 L1679.78 12.096 Z" fill="#000000" fill-rule="nonzero" fill-opacity="1" /><path clip-path="url(#clip280)" d="M1733.9 65.6895 L1747.27 65.6895 L1747.27 19.5497 L1732.72 22.4663 L1732.72 15.0127 L1747.19 12.096 L1755.37 12.096 L1755.37 65.6895 L1768.74 65.6895 L1768.74 72.576 L1733.9 72.576 L1733.9 65.6895 Z" fill="#000000" fill-rule="nonzero" fill-opacity="1" /><path clip-path="url(#clip280)" d="M1810.58 27.2059 L1818.04 27.2059 L1818.04 72.576 L1810.58 72.576 L1810.58 27.2059 M1810.58 9.54393 L1818.04 9.54393 L1818.04 18.9825 L1810.58 18.9825 L1810.58 9.54393 Z" fill="#000000" fill-rule="nonzero" fill-opacity="1" /><path clip-path="url(#clip280)" d="M1841 14.324 L1841 27.2059 L1856.36 27.2059 L1856.36 32.9987 L1841 32.9987 L1841 57.6282 Q1841 63.1779 1842.5 64.7578 Q1844.04 66.3376 1848.7 66.3376 L1856.36 66.3376 L1856.36 72.576 L1848.7 72.576 Q1840.07 72.576 1836.79 69.3758 Q1833.51 66.1351 1833.51 57.6282 L1833.51 32.9987 L1828.04 32.9987 L1828.04 27.2059 L1833.51 27.2059 L1833.51 14.324 L1841 14.324 Z" fill="#000000" fill-rule="nonzero" fill-opacity="1" /><path clip-path="url(#clip280)" d="M1904.97 48.0275 L1904.97 51.6733 L1870.7 51.6733 Q1871.18 59.3701 1875.32 63.421 Q1879.49 67.4314 1886.9 67.4314 Q1891.19 67.4314 1895.21 66.3781 Q1899.26 65.3249 1903.23 63.2184 L1903.23 70.267 Q1899.22 71.9684 1895 72.8596 Q1890.79 73.7508 1886.46 73.7508 Q1875.6 73.7508 1869.24 67.4314 Q1862.92 61.1119 1862.92 50.3365 Q1862.92 39.1965 1868.92 32.6746 Q1874.95 26.1121 1885.16 26.1121 Q1894.31 26.1121 1899.62 32.0264 Q1904.97 37.9003 1904.97 48.0275 M1897.51 45.84 Q1897.43 39.7232 1894.07 36.0774 Q1890.75 32.4315 1885.24 32.4315 Q1879 32.4315 1875.23 35.9558 Q1871.51 39.4801 1870.94 45.8805 L1897.51 45.84 Z" fill="#000000" fill-rule="nonzero" fill-opacity="1" /><path clip-path="url(#clip280)" d="M1943.49 34.1734 Q1942.24 33.4443 1940.74 33.1202 Q1939.28 32.7556 1937.5 32.7556 Q1931.18 32.7556 1927.77 36.8875 Q1924.41 40.9789 1924.41 48.6757 L1924.41 72.576 L1916.92 72.576 L1916.92 27.2059 L1924.41 27.2059 L1924.41 34.2544 Q1926.76 30.1225 1930.53 28.1376 Q1934.3 26.1121 1939.68 26.1121 Q1940.45 26.1121 1941.39 26.2337 Q1942.32 26.3147 1943.45 26.5172 L1943.49 34.1734 Z" fill="#000000" fill-rule="nonzero" fill-opacity="1" /><path clip-path="url(#clip280)" d="M1971.93 49.7694 Q1962.9 49.7694 1959.41 51.8354 Q1955.93 53.9013 1955.93 58.8839 Q1955.93 62.8538 1958.52 65.2034 Q1961.15 67.5124 1965.65 67.5124 Q1971.85 67.5124 1975.58 63.1374 Q1979.34 58.7219 1979.34 51.4303 L1979.34 49.7694 L1971.93 49.7694 M1986.8 46.6907 L1986.8 72.576 L1979.34 72.576 L1979.34 65.6895 Q1976.79 69.8214 1972.98 71.8063 Q1969.17 73.7508 1963.67 73.7508 Q1956.7 73.7508 1952.57 69.8619 Q1948.47 65.9325 1948.47 59.3701 Q1948.47 51.7138 1953.58 47.825 Q1958.72 43.9361 1968.89 43.9361 L1979.34 43.9361 L1979.34 43.2069 Q1979.34 38.0623 1975.94 35.2672 Q1972.58 32.4315 1966.46 32.4315 Q1962.57 32.4315 1958.89 33.3632 Q1955.2 34.295 1951.8 36.1584 L1951.8 29.2718 Q1955.89 27.692 1959.74 26.9223 Q1963.58 26.1121 1967.23 26.1121 Q1977.07 26.1121 1981.94 31.2163 Q1986.8 36.3204 1986.8 46.6907 Z" fill="#000000" fill-rule="nonzero" fill-opacity="1" /><path clip-path="url(#clip280)" d="M2009.52 14.324 L2009.52 27.2059 L2024.87 27.2059 L2024.87 32.9987 L2009.52 32.9987 L2009.52 57.6282 Q2009.52 63.1779 2011.02 64.7578 Q2012.56 66.3376 2017.22 66.3376 L2024.87 66.3376 L2024.87 72.576 L2017.22 72.576 Q2008.59 72.576 2005.31 69.3758 Q2002.03 66.1351 2002.03 57.6282 L2002.03 32.9987 L1996.56 32.9987 L1996.56 27.2059 L2002.03 27.2059 L2002.03 14.324 L2009.52 14.324 Z" fill="#000000" fill-rule="nonzero" fill-opacity="1" /><path clip-path="url(#clip280)" d="M2034.68 27.2059 L2042.13 27.2059 L2042.13 72.576 L2034.68 72.576 L2034.68 27.2059 M2034.68 9.54393 L2042.13 9.54393 L2042.13 18.9825 L2034.68 18.9825 L2034.68 9.54393 Z" fill="#000000" fill-rule="nonzero" fill-opacity="1" /><path clip-path="url(#clip280)" d="M2075.31 32.4315 Q2069.31 32.4315 2065.83 37.1306 Q2062.35 41.7891 2062.35 49.9314 Q2062.35 58.0738 2065.79 62.7728 Q2069.27 67.4314 2075.31 67.4314 Q2081.26 67.4314 2084.75 62.7323 Q2088.23 58.0333 2088.23 49.9314 Q2088.23 41.8701 2084.75 37.1711 Q2081.26 32.4315 2075.31 32.4315 M2075.31 26.1121 Q2085.03 26.1121 2090.58 32.4315 Q2096.13 38.7509 2096.13 49.9314 Q2096.13 61.0714 2090.58 67.4314 Q2085.03 73.7508 2075.31 73.7508 Q2065.55 73.7508 2060 67.4314 Q2054.49 61.0714 2054.49 49.9314 Q2054.49 38.7509 2060 32.4315 Q2065.55 26.1121 2075.31 26.1121 Z" fill="#000000" fill-rule="nonzero" fill-opacity="1" /><path clip-path="url(#clip280)" d="M2146.2 45.1919 L2146.2 72.576 L2138.75 72.576 L2138.75 45.4349 Q2138.75 38.994 2136.23 35.7938 Q2133.72 32.5936 2128.7 32.5936 Q2122.66 32.5936 2119.18 36.4419 Q2115.7 40.2903 2115.7 46.9338 L2115.7 72.576 L2108.2 72.576 L2108.2 27.2059 L2115.7 27.2059 L2115.7 34.2544 Q2118.37 30.163 2121.98 28.1376 Q2125.62 26.1121 2130.36 26.1121 Q2138.18 26.1121 2142.19 30.9732 Q2146.2 35.7938 2146.2 45.1919 Z" fill="#000000" fill-rule="nonzero" fill-opacity="1" /><path clip-path="url(#clip280)" d="M2189.91 65.6895 L2203.28 65.6895 L2203.28 19.5497 L2188.73 22.4663 L2188.73 15.0127 L2203.2 12.096 L2211.38 12.096 L2211.38 65.6895 L2224.75 65.6895 L2224.75 72.576 L2189.91 72.576 L2189.91 65.6895 Z" fill="#000000" fill-rule="nonzero" fill-opacity="1" /><polyline clip-path="url(#clip282)" style="stroke:#009af9; stroke-linecap:round; stroke-linejoin:round; stroke-width:4; stroke-opacity:1; fill:none" points="315.545,1386.4 317.525,1309.42 319.505,1297.2 321.484,1291.06 323.464,1258.09 325.444,1246.51 327.424,1242.23 329.404,1233.13 331.384,1225.81 333.364,1217.42 335.343,1214.85 337.323,1214.7 339.303,1211.91 341.283,1207.57 343.263,1206.35 345.243,1204.89 347.223,1197 349.202,1196.91 351.182,1195.52 353.162,1194.83 355.142,1194.82 357.122,1193.68 359.102,1191.67 361.082,1190.15 363.061,1189.42 365.041,1189.3 367.021,1188.17 369.001,1187.22 370.981,1185.83 372.961,1185.23 374.941,1183.78 376.92,1183.58 378.9,1180.2 380.88,1179.11 382.86,1178.4 384.84,1175.02 386.82,1174.89 388.8,1174.87 390.779,1174.71 392.759,1173.82 394.739,1171.88 396.719,1169.89 398.699,1168.42 400.679,1166.46 402.659,1166.44 404.638,1166 406.618,1164.8 408.598,1164.27 410.578,1163.2 412.558,1162.2 414.538,1162.01 416.517,1161.26 418.497,1160.95 420.477,1160.08 422.457,1159.09 424.437,1158.23 426.417,1157.88 428.397,1157.03 430.376,1156.93 432.356,1156.09 434.336,1156.02 436.316,1155.74 438.296,1154.38 440.276,1153.73 442.256,1153.58 444.235,1152.13 446.215,1150.23 448.195,1149.67 450.175,1147.22 452.155,1146.87 454.135,1146.36 456.115,1144.95 458.094,1144.59 460.074,1144.35 462.054,1144.05 464.034,1143.5 466.014,1143.15 467.994,1142.45 469.974,1141.3 471.953,1140.84 473.933,1139.12 475.913,1138.78 477.893,1138.73 479.873,1137.81 481.853,1137.74 483.833,1137.47 485.812,1137.45 487.792,1136.73 489.772,1136.58 491.752,1135.77 493.732,1135.63 495.712,1134.97 497.692,1134.7 499.671,1134.56 501.651,1134.54 503.631,1134.06 505.611,1133.1 507.591,1132.57 509.571,1132.47 511.551,1132.42 513.53,1131.54 515.51,1131.47 517.49,1130.83 519.47,1129.86 521.45,1129.58 523.43,1129.45 525.409,1129.06 527.389,1126 529.369,1124.1 531.349,1123.87 533.329,1123.73 535.309,1123.55 537.289,1123.35 539.268,1122.95 541.248,1122.8 543.228,1122.67 545.208,1122.61 547.188,1121.92 549.168,1121.34 551.148,1121.24 553.127,1119.6 555.107,1119.5 557.087,1119.49 559.067,1119.19 561.047,1119.11 563.027,1118.62 565.007,1118.46 566.986,1117.74 568.966,1117.68 570.946,1116.46 572.926,1116.28 574.906,1116.05 576.886,1115.68 578.866,1114.89 580.845,1114.69 582.825,1114.67 584.805,1114.6 586.785,1113.06 588.765,1112.34 590.745,1112.22 592.725,1111.1 594.704,1111.04 596.684,1110.77 598.664,1110.76 600.644,1110.73 602.624,1110.67 604.604,1109.15 606.584,1108.89 608.563,1108.87 610.543,1107.85 612.523,1107.44 614.503,1106.75 616.483,1106.25 618.463,1104.73 620.443,1104.23 622.422,1103.99 624.402,1103.43 626.382,1103.28 628.362,1103.19 630.342,1103.08 632.322,1102.63 634.301,1102.29 636.281,1101.27 638.261,1100.51 640.241,1100.45 642.221,1100.4 644.201,1100.03 646.181,1099.73 648.16,1099.05 650.14,1097.44 652.12,1097.37 654.1,1097.17 656.08,1096.72 658.06,1096.27 660.04,1095.62 662.019,1095.29 663.999,1093.58 665.979,1093.29 667.959,1093.16 669.939,1093.04 671.919,1093.01 673.899,1092.24 675.878,1091.47 677.858,1091.26 679.838,1090.58 681.818,1089.66 683.798,1087.91 685.778,1086.2 687.758,1085.48 689.737,1083.85 691.717,1083.69 693.697,1081.87 695.677,1080.64 697.657,1080 699.637,1079.54 701.617,1079.19 703.596,1078.63 705.576,1078.07 707.556,1076.25 709.536,1075.26 711.516,1074.18 713.496,1072.21 715.476,1069.78 717.455,1068.96 719.435,1066.95 721.415,1066.52 723.395,1065.32 725.375,1063.7 727.355,1063.59 729.335,1061.42 731.314,1061.07 733.294,1060.91 735.274,1059.67 737.254,1057.88 739.234,1055.28 741.214,1054.99 743.194,1053.97 745.173,1053.63 747.153,1052.26 749.133,1051.54 751.113,1050.76 753.093,1048.21 755.073,1047.51 757.052,1046.89 759.032,1045.94 761.012,1045.81 762.992,1045.64 764.972,1044.83 766.952,1043.94 768.932,1041.63 770.911,1041.37 772.891,1040.55 774.871,1040.3 776.851,1036.98 778.831,1036.75 780.811,1034.25 782.791,1034.19 784.77,1033.55 786.75,1031.56 788.73,1031.42 790.71,1030.25 792.69,1028.83 794.67,1028.03 796.65,1027.13 798.629,1022.67 800.609,1022.01 802.589,1021.13 804.569,1018.66 806.549,1018.23 808.529,1016.73 810.509,1014.23 812.488,1013.98 814.468,1013.79 816.448,1013.37 818.428,1013.31 820.408,1012.47 822.388,1011.34 824.368,1011 826.347,1010.54 828.327,1010.22 830.307,1010.07 832.287,1009.48 834.267,1009.35 836.247,1008.92 838.227,1008.55 840.206,1008.26 842.186,1008.19 844.166,1004.87 846.146,1004.58 848.126,1004.02 850.106,1003.41 852.086,1002.17 854.065,1001.55 856.045,1001.32 858.025,1001.23 860.005,1001.19 861.985,999.8 863.965,999.67 865.944,997.062 867.924,996.05 869.904,995.161 871.884,994.473 873.864,993.358 875.844,992.836 877.824,991.604 879.803,990.139 881.783,989.756 883.763,989.595 885.743,988.744 887.723,988.637 889.703,988.554 891.683,988.088 893.662,987.806 895.642,986.811 897.622,985.946 899.602,985.383 901.582,984.134 903.562,982.747 905.542,982.338 907.521,982.304 909.501,981.808 911.481,980.334 913.461,979.29 915.441,978.687 917.421,978.056 919.401,977.089 921.38,975.86 923.36,975.459 925.34,975.252 927.32,973.969 929.3,973.522 931.28,973.412 933.26,972.955 935.239,972.789 937.219,972.313 939.199,972.154 941.179,971.784 943.159,971.679 945.139,971.625 947.119,971.021 949.098,970.275 951.078,969.934 953.058,969.878 955.038,969.76 957.018,969.721 958.998,969.038 960.978,968.705 962.957,967.16 964.937,967.126 966.917,966.109 968.897,966.001 970.877,965.05 972.857,964.908 974.836,963.91 976.816,963.694 978.796,963.503 980.776,963.103 982.756,962.851 984.736,962.527 986.716,962.33 988.695,961.024 990.675,960.5 992.655,959.421 994.635,959.356 996.615,959.123 998.595,958.974 1000.57,958.67 1002.55,958.178 1004.53,958.133 1006.51,954.791 1008.49,954.54 1010.47,953.948 1012.45,953.072 1014.43,953.061 1016.41,952.885 1018.39,952.813 1020.37,952.551 1022.35,951.718 1024.33,951.54 1026.31,951.076 1028.29,951.051 1030.27,950.963 1032.25,950.607 1034.23,950.602 1036.21,950.124 1038.19,949.367 1040.17,949.309 1042.15,949.187 1044.13,948.835 1046.11,947.224 1048.09,946.945 1050.07,945.047 1052.05,944.357 1054.03,943.138 1056.01,942.834 1057.99,942.531 1059.97,942.347 1061.95,942.306 1063.93,942.13 1065.91,941.806 1067.89,941.745 1069.87,941.531 1071.85,940.651 1073.83,940.614 1075.81,940.424 1077.79,939.712 1079.77,939.312 1081.75,937.968 1083.73,937.338 1085.71,937.094 1087.69,936.902 1089.67,936.826 1091.65,936.504 1093.63,936.106 1095.61,935.111 1097.59,934.628 1099.57,934.068 1101.55,932.659 1103.53,932.63 1105.51,932.621 1107.49,932.548 1109.47,932.307 1111.45,930.9 1113.43,930.693 1115.41,929.522 1117.39,929.009 1119.37,928.345 1121.35,928.319 1123.33,927.549 1125.31,927.339 1127.29,925.689 1129.27,925.659 1131.25,924.142 1133.22,923.609 1135.2,923.482 1137.18,923.161 1139.16,923.017 1141.14,922.989 1143.12,922.37 1145.1,922.146 1147.08,922.093 1149.06,922.012 1151.04,921.688 1153.02,921.613 1155,921.395 1156.98,920.764 1158.96,920.154 1160.94,920.118 1162.92,919.15 1164.9,918.952 1166.88,918.317 1168.86,915.516 1170.84,914.625 1172.82,912.856 1174.8,911.861 1176.78,911.31 1178.76,910.562 1180.74,910.53 1182.72,908.579 1184.7,907.966 1186.68,907.769 1188.66,907.713 1190.64,907.261 1192.62,905.286 1194.6,905.19 1196.58,904.364 1198.56,903.578 1200.54,903.475 1202.52,902.599 1204.5,902.324 1206.48,901.772 1208.46,901.351 1210.44,899.911 1212.42,899.829 1214.4,899.428 1216.38,899.228 1218.36,899.214 1220.34,898.942 1222.32,898.59 1224.3,897.814 1226.28,897.709 1228.26,897.451 1230.24,896.795 1232.22,895.353 1234.2,894.404 1236.18,894.03 1238.16,893.337 1240.14,892.711 1242.12,891.351 1244.1,891.205 1246.08,890.843 1248.06,890.615 1250.04,889.547 1252.02,888.647 1254,888.499 1255.98,888.449 1257.96,888.346 1259.94,887.407 1261.92,887.297 1263.9,886.372 1265.88,885.709 1267.85,884.379 1269.83,883.819 1271.81,883.494 1273.79,883.333 1275.77,882.799 1277.75,882.662 1279.73,881.692 1281.71,881.592 1283.69,880.637 1285.67,880.547 1287.65,877.893 1289.63,877.543 1291.61,877.062 1293.59,876.792 1295.57,876.524 1297.55,875.3 1299.53,874.624 1301.51,874.092 1303.49,873.863 1305.47,873.077 1307.45,871.351 1309.43,870.694 1311.41,869.628 1313.39,868.987 1315.37,868.615 1317.35,868.52 1319.33,867.663 1321.31,867.475 1323.29,867.401 1325.27,866.708 1327.25,865.511 1329.23,865.367 1331.21,863.775 1333.19,862.628 1335.17,862.068 1337.15,861.834 1339.13,860.824 1341.11,859.783 1343.09,859.641 1345.07,858.995 1347.05,857.366 1349.03,857.333 1351.01,856.526 1352.99,855.493 1354.97,853.276 1356.95,852.944 1358.93,850.418 1360.91,849.568 1362.89,849.481 1364.87,847.628 1366.85,847.181 1368.83,846.97 1370.81,846.743 1372.79,846.56 1374.77,845.112 1376.75,844.131 1378.73,843.789 1380.71,843.649 1382.69,843.377 1384.67,841.387 1386.65,840.98 1388.63,838.598 1390.61,838.261 1392.59,837.244 1394.57,836.665 1396.55,835.251 1398.53,834.607 1400.51,832.286 1402.49,829.9 1404.46,828.906 1406.44,828.225 1408.42,827.812 1410.4,827.42 1412.38,827.246 1414.36,826.73 1416.34,826.011 1418.32,825.375 1420.3,824.794 1422.28,824.688 1424.26,824.258 1426.24,822.976 1428.22,822.307 1430.2,821.607 1432.18,820.183 1434.16,819.448 1436.14,819.325 1438.12,818.567 1440.1,816.342 1442.08,815.883 1444.06,814.961 1446.04,814.1 1448.02,814.055 1450,814.039 1451.98,813.549 1453.96,813.522 1455.94,812.51 1457.92,812.055 1459.9,811.681 1461.88,811.539 1463.86,811.081 1465.84,810.383 1467.82,809.881 1469.8,808.063 1471.78,807.162 1473.76,806.038 1475.74,803.815 1477.72,803.112 1479.7,801.988 1481.68,800.49 1483.66,797.578 1485.64,797.312 1487.62,796.662 1489.6,796.346 1491.58,795.997 1493.56,795.882 1495.54,795.049 1497.52,794.695 1499.5,789.414 1501.48,789.128 1503.46,789.058 1505.44,789.02 1507.42,788.808 1509.4,788.361 1511.38,786.94 1513.36,785.268 1515.34,784.181 1517.32,783.328 1519.3,782.736 1521.28,781.516 1523.26,780.848 1525.24,780.773 1527.22,780.529 1529.2,779.987 1531.18,779.784 1533.16,778.542 1535.14,778.129 1537.12,777.237 1539.1,777.18 1541.07,776.632 1543.05,776.431 1545.03,775.636 1547.01,775.357 1548.99,774.426 1550.97,773.449 1552.95,773.229 1554.93,772.683 1556.91,772.433 1558.89,771.072 1560.87,770.955 1562.85,767.911 1564.83,766.664 1566.81,765.822 1568.79,765.789 1570.77,765.353 1572.75,764.294 1574.73,764.239 1576.71,764.213 1578.69,764.186 1580.67,762.898 1582.65,762.095 1584.63,761.429 1586.61,761.094 1588.59,761.024 1590.57,760.794 1592.55,760.588 1594.53,760.484 1596.51,759.7 1598.49,758.411 1600.47,757.97 1602.45,757.605 1604.43,755.687 1606.41,750.766 1608.39,749.909 1610.37,749.509 1612.35,749.209 1614.33,749.027 1616.31,748.01 1618.29,747.866 1620.27,745.732 1622.25,745.487 1624.23,745.475 1626.21,744.841 1628.19,744.792 1630.17,742.282 1632.15,740.139 1634.13,734.237 1636.11,734.049 1638.09,733.734 1640.07,732.339 1642.05,732.092 1644.03,731.664 1646.01,731.315 1647.99,729.876 1649.97,727.146 1651.95,725.35 1653.93,725.191 1655.91,724.908 1657.89,724.108 1659.87,722.471 1661.85,721.004 1663.83,721.002 1665.81,720.121 1667.79,718.762 1669.77,716.564 1671.75,714.496 1673.73,713.766 1675.71,712.56 1677.68,710.94 1679.66,710.095 1681.64,709.538 1683.62,705.914 1685.6,705.416 1687.58,704.772 1689.56,704.024 1691.54,702.846 1693.52,702.503 1695.5,702.209 1697.48,702.096 1699.46,702.09 1701.44,700.571 1703.42,699.3 1705.4,697.47 1707.38,697.229 1709.36,696.544 1711.34,696.312 1713.32,695.872 1715.3,695.864 1717.28,695.285 1719.26,695.204 1721.24,694.348 1723.22,694.233 1725.2,693.228 1727.18,692.735 1729.16,688.833 1731.14,686.839 1733.12,685.642 1735.1,685.175 1737.08,684.227 1739.06,682.309 1741.04,680.275 1743.02,680.131 1745,673.37 1746.98,672.352 1748.96,668.991 1750.94,668.854 1752.92,668.093 1754.9,666.695 1756.88,658.318 1758.86,656.637 1760.84,654.886 1762.82,654.472 1764.8,653.864 1766.78,649.668 1768.76,647.9 1770.74,647.557 1772.72,645.821 1774.7,645.616 1776.68,640.9 1778.66,637.354 1780.64,635.352 1782.62,630.626 1784.6,620.496 1786.58,618.896 1788.56,610.416 1790.54,608.764 1792.52,573.852 1794.5,573.258 1796.48,552.943 1798.46,439.557 1800.44,306.39 1802.42,281.617 1804.4,279.438 1806.38,278.609 1808.36,276.735 1810.34,268.873 1812.31,267.487 1814.29,266.383 1816.27,263.445 1818.25,256.92 1820.23,247.018 1822.21,243.627 1824.19,243.48 1826.17,242.92 1828.15,236.794 1830.13,235.505 1832.11,234.218 1834.09,233.299 1836.07,233.079 1838.05,230.246 1840.03,229.581 1842.01,229.439 1843.99,226.141 1845.97,225.528 1847.95,221.242 1849.93,221.021 1851.91,218.916 1853.89,218.75 1855.87,218.5 1857.85,217.772 1859.83,217.717 1861.81,217.715 1863.79,216.385 1865.77,216.144 1867.75,215.818 1869.73,215.149 1871.71,214.663 1873.69,211.511 1875.67,210.766 1877.65,210.588 1879.63,210.471 1881.61,210.426 1883.59,209.365 1885.57,208.722 1887.55,208.372 1889.53,207.823 1891.51,206.439 1893.49,205.897 1895.47,205.873 1897.45,205.231 1899.43,204.42 1901.41,202.313 1903.39,201.991 1905.37,201.833 1907.35,201.387 1909.33,201.246 1911.31,200.002 1913.29,199.979 1915.27,199.923 1917.25,198.758 1919.23,197.323 1921.21,196.168 1923.19,195.421 1925.17,194.25 1927.15,193.812 1929.13,193.674 1931.11,193.299 1933.09,193.072 1935.07,193.023 1937.05,192.448 1939.03,191.565 1941.01,191.487 1942.99,190.873 1944.97,190.045 1946.95,189.977 1948.92,189.741 1950.9,189.455 1952.88,189.138 1954.86,188.661 1956.84,187.844 1958.82,187.634 1960.8,187.065 1962.78,186.874 1964.76,186.501 1966.74,186.383 1968.72,186.29 1970.7,186.106 1972.68,186.095 1974.66,185.972 1976.64,185.716 1978.62,185.638 1980.6,185.368 1982.58,185.022 1984.56,184.837 1986.54,184.721 1988.52,184.674 1990.5,184.628 1992.48,184.403 1994.46,184.073 1996.44,183.812 1998.42,183.389 2000.4,183.338 2002.38,183.198 2004.36,182.787 2006.34,182.43 2008.32,182.336 2010.3,182.129 2012.28,182.008 2014.26,181.633 2016.24,181.421 2018.22,181.363 2020.2,181.331 2022.18,181.168 2024.16,181.113 2026.14,181.05 2028.12,180.795 2030.1,180.75 2032.08,180.718 2034.06,180.674 2036.04,180.497 2038.02,180.138 2040,180.035 2041.98,180 2043.96,179.964 2045.94,179.687 2047.92,179.677 2049.9,179.607 2051.88,179.54 2053.86,179.519 2055.84,179.348 2057.82,179.297 2059.8,179.291 2061.78,179.245 2063.76,179.131 2065.74,178.972 2067.72,178.852 2069.7,178.688 2071.68,178.31 2073.66,178.244 2075.64,178.232 2077.62,178.208 2079.6,178.173 2081.58,178.143 2083.56,178.079 2085.53,178.042 2087.51,177.93 2089.49,177.863 2091.47,177.809 2093.45,177.716 2095.43,177.665 2097.41,177.613 2099.39,177.458 2101.37,177.323 2103.35,177.298 2105.33,177.284 2107.31,177.138 2109.29,176.992 2111.27,176.979 2113.25,176.916 2115.23,176.866 2117.21,176.831 2119.19,176.8 2121.17,176.649 2123.15,176.64 2125.13,176.561 2127.11,176.456 2129.09,176.429 2131.07,176.392 2133.05,176.269 2135.03,176.222 2137.01,176.175 2138.99,175.988 2140.97,175.908 2142.95,175.86 2144.93,175.806 2146.91,175.757 2148.89,175.51 2150.87,175.473 2152.85,175.188 2154.83,175.133 2156.81,175.11 2158.79,175.089 2160.77,175.056 2162.75,175.047 2164.73,174.969 2166.71,174.926 2168.69,174.657 2170.67,174.586 2172.65,174.472 2174.63,174.174 2176.61,173.75 2178.59,173.73 2180.57,173.634 2182.55,173.631 2184.53,173.337 2186.51,173.215 2188.49,173.183 2190.47,173.101 2192.45,172.931 2194.43,172.725 2196.41,172.709 2198.39,172.578 2200.37,172.299 2202.35,171.846 2204.33,171.685 2206.31,171.314 2208.29,171.229 2210.27,171.197 2212.25,170.775 2214.23,170.421 2216.21,170.4 2218.19,170.062 2220.17,169.171 2222.14,169.132 2224.12,168.933 2226.1,168.887 2228.08,168.5 2230.06,168.313 2232.04,168.311 2234.02,168.274 2236,168.157 2237.98,167.974 2239.96,167.763 2241.94,167.575 2243.92,167.488 2245.9,167.465 2247.88,167.194 2249.86,167.179 2251.84,167.077 2253.82,166.941 2255.8,166.447 2257.78,166.331 2259.76,166.072 2261.74,165.976 2263.72,165.736 2265.7,165.225 2267.68,164.446 2269.66,164.405 2271.64,164.359 2273.62,163.454 2275.6,163.379 2277.58,163.211 2279.56,162.937 2281.54,162.918 2283.52,162.764 2285.5,161.836 2287.48,160.905 2289.46,160.826 2291.44,160.475 2293.42,160.256 "/>
<path clip-path="url(#clip280)" d="M326.094 270.476 L755.354 270.476 L755.354 166.796 L326.094 166.796  Z" fill="#ffffff" fill-rule="evenodd" fill-opacity="1"/>
<polyline clip-path="url(#clip280)" style="stroke:#000000; stroke-linecap:round; stroke-linejoin:round; stroke-width:4; stroke-opacity:1; fill:none" points="326.094,270.476 755.354,270.476 755.354,166.796 326.094,166.796 326.094,270.476 "/>
<polyline clip-path="url(#clip280)" style="stroke:#009af9; stroke-linecap:round; stroke-linejoin:round; stroke-width:4; stroke-opacity:1; fill:none" points="349.389,218.636 489.158,218.636 "/>
<path clip-path="url(#clip280)" d="M534.699 202.49 L534.699 207.05 Q532.037 205.777 529.675 205.152 Q527.314 204.527 525.115 204.527 Q521.296 204.527 519.213 206.008 Q517.152 207.49 517.152 210.221 Q517.152 212.513 518.518 213.694 Q519.907 214.851 523.75 215.569 L526.574 216.147 Q531.805 217.143 534.282 219.666 Q536.782 222.166 536.782 226.379 Q536.782 231.402 533.402 233.994 Q530.046 236.587 523.541 236.587 Q521.088 236.587 518.31 236.031 Q515.555 235.476 512.592 234.388 L512.592 229.573 Q515.439 231.17 518.171 231.981 Q520.902 232.791 523.541 232.791 Q527.546 232.791 529.722 231.217 Q531.898 229.643 531.898 226.726 Q531.898 224.18 530.324 222.744 Q528.773 221.309 525.208 220.592 L522.361 220.036 Q517.129 218.995 514.791 216.772 Q512.453 214.55 512.453 210.592 Q512.453 206.008 515.671 203.37 Q518.912 200.731 524.583 200.731 Q527.013 200.731 529.537 201.171 Q532.06 201.61 534.699 202.49 Z" fill="#000000" fill-rule="nonzero" fill-opacity="1" /><path clip-path="url(#clip280)" d="M543.888 209.99 L548.148 209.99 L548.148 235.916 L543.888 235.916 L543.888 209.99 M543.888 199.897 L548.148 199.897 L548.148 205.291 L543.888 205.291 L543.888 199.897 Z" fill="#000000" fill-rule="nonzero" fill-opacity="1" /><path clip-path="url(#clip280)" d="M577.245 214.967 Q578.842 212.096 581.064 210.731 Q583.286 209.365 586.296 209.365 Q590.346 209.365 592.545 212.212 Q594.745 215.036 594.745 220.268 L594.745 235.916 L590.462 235.916 L590.462 220.407 Q590.462 216.68 589.143 214.874 Q587.823 213.069 585.115 213.069 Q581.805 213.069 579.884 215.268 Q577.962 217.467 577.962 221.263 L577.962 235.916 L573.68 235.916 L573.68 220.407 Q573.68 216.657 572.36 214.874 Q571.041 213.069 568.286 213.069 Q565.022 213.069 563.101 215.291 Q561.18 217.49 561.18 221.263 L561.18 235.916 L556.898 235.916 L556.898 209.99 L561.18 209.99 L561.18 214.018 Q562.638 211.633 564.675 210.499 Q566.712 209.365 569.513 209.365 Q572.337 209.365 574.305 210.8 Q576.296 212.235 577.245 214.967 Z" fill="#000000" fill-rule="nonzero" fill-opacity="1" /><path clip-path="url(#clip280)" d="M603.24 209.99 L607.499 209.99 L607.499 235.916 L603.24 235.916 L603.24 209.99 M603.24 199.897 L607.499 199.897 L607.499 205.291 L603.24 205.291 L603.24 199.897 Z" fill="#000000" fill-rule="nonzero" fill-opacity="1" /><path clip-path="url(#clip280)" d="M616.411 199.897 L620.67 199.897 L620.67 235.916 L616.411 235.916 L616.411 199.897 Z" fill="#000000" fill-rule="nonzero" fill-opacity="1" /><path clip-path="url(#clip280)" d="M641.365 222.883 Q636.203 222.883 634.212 224.064 Q632.221 225.244 632.221 228.092 Q632.221 230.36 633.703 231.703 Q635.207 233.022 637.777 233.022 Q641.318 233.022 643.448 230.522 Q645.601 227.999 645.601 223.832 L645.601 222.883 L641.365 222.883 M649.86 221.124 L649.86 235.916 L645.601 235.916 L645.601 231.981 Q644.142 234.342 641.967 235.476 Q639.791 236.587 636.642 236.587 Q632.661 236.587 630.3 234.365 Q627.962 232.119 627.962 228.369 Q627.962 223.994 630.879 221.772 Q633.818 219.55 639.629 219.55 L645.601 219.55 L645.601 219.133 Q645.601 216.194 643.656 214.596 Q641.735 212.976 638.24 212.976 Q636.017 212.976 633.911 213.508 Q631.805 214.041 629.86 215.106 L629.86 211.17 Q632.198 210.268 634.397 209.828 Q636.596 209.365 638.68 209.365 Q644.304 209.365 647.082 212.282 Q649.86 215.198 649.86 221.124 Z" fill="#000000" fill-rule="nonzero" fill-opacity="1" /><path clip-path="url(#clip280)" d="M673.656 213.971 Q672.939 213.555 672.082 213.37 Q671.249 213.161 670.23 213.161 Q666.619 213.161 664.675 215.522 Q662.753 217.86 662.753 222.258 L662.753 235.916 L658.471 235.916 L658.471 209.99 L662.753 209.99 L662.753 214.018 Q664.096 211.657 666.249 210.522 Q668.402 209.365 671.48 209.365 Q671.92 209.365 672.452 209.434 Q672.985 209.481 673.633 209.596 L673.656 213.971 Z" fill="#000000" fill-rule="nonzero" fill-opacity="1" /><path clip-path="url(#clip280)" d="M678.124 209.99 L682.383 209.99 L682.383 235.916 L678.124 235.916 L678.124 209.99 M678.124 199.897 L682.383 199.897 L682.383 205.291 L678.124 205.291 L678.124 199.897 Z" fill="#000000" fill-rule="nonzero" fill-opacity="1" /><path clip-path="url(#clip280)" d="M695.508 202.629 L695.508 209.99 L704.281 209.99 L704.281 213.3 L695.508 213.3 L695.508 227.374 Q695.508 230.545 696.364 231.448 Q697.244 232.351 699.906 232.351 L704.281 232.351 L704.281 235.916 L699.906 235.916 Q694.975 235.916 693.101 234.087 Q691.226 232.235 691.226 227.374 L691.226 213.3 L688.101 213.3 L688.101 209.99 L691.226 209.99 L691.226 202.629 L695.508 202.629 Z" fill="#000000" fill-rule="nonzero" fill-opacity="1" /><path clip-path="url(#clip280)" d="M720.67 238.323 Q718.864 242.953 717.151 244.365 Q715.438 245.777 712.568 245.777 L709.165 245.777 L709.165 242.212 L711.665 242.212 Q713.424 242.212 714.397 241.379 Q715.369 240.545 716.549 237.443 L717.313 235.499 L706.827 209.99 L711.341 209.99 L719.443 230.268 L727.545 209.99 L732.059 209.99 L720.67 238.323 Z" fill="#000000" fill-rule="nonzero" fill-opacity="1" /></svg>
