<?xml version="1.0" encoding="utf-8"?>
<svg xmlns="http://www.w3.org/2000/svg" xmlns:xlink="http://www.w3.org/1999/xlink" width="600" height="400" viewBox="0 0 2400 1600">
<defs>
  <clipPath id="clip530">
    <rect x="0" y="0" width="2400" height="1600"/>
  </clipPath>
</defs>
<path clip-path="url(#clip530)" d="M0 1600 L2400 1600 L2400 8.88178e-14 L0 8.88178e-14  Z" fill="#ffffff" fill-rule="evenodd" fill-opacity="1"/>
<defs>
  <clipPath id="clip531">
    <rect x="480" y="0" width="1681" height="1600"/>
  </clipPath>
</defs>
<path clip-path="url(#clip530)" d="M287.366 1423.18 L2352.76 1423.18 L2352.76 123.472 L287.366 123.472  Z" fill="#ffffff" fill-rule="evenodd" fill-opacity="1"/>
<defs>
  <clipPath id="clip532">
    <rect x="287" y="123" width="2066" height="1301"/>
  </clipPath>
</defs>
<polyline clip-path="url(#clip532)" style="stroke:#000000; stroke-linecap:round; stroke-linejoin:round; stroke-width:2; stroke-opacity:0.1; fill:none" points="343.87,1423.18 343.87,123.472 "/>
<polyline clip-path="url(#clip532)" style="stroke:#000000; stroke-linecap:round; stroke-linejoin:round; stroke-width:2; stroke-opacity:0.1; fill:none" points="831.478,1423.18 831.478,123.472 "/>
<polyline clip-path="url(#clip532)" style="stroke:#000000; stroke-linecap:round; stroke-linejoin:round; stroke-width:2; stroke-opacity:0.1; fill:none" points="1319.09,1423.18 1319.09,123.472 "/>
<polyline clip-path="url(#clip532)" style="stroke:#000000; stroke-linecap:round; stroke-linejoin:round; stroke-width:2; stroke-opacity:0.1; fill:none" points="1806.69,1423.18 1806.69,123.472 "/>
<polyline clip-path="url(#clip532)" style="stroke:#000000; stroke-linecap:round; stroke-linejoin:round; stroke-width:2; stroke-opacity:0.1; fill:none" points="2294.3,1423.18 2294.3,123.472 "/>
<polyline clip-path="url(#clip530)" style="stroke:#000000; stroke-linecap:round; stroke-linejoin:round; stroke-width:4; stroke-opacity:1; fill:none" points="287.366,1423.18 2352.76,1423.18 "/>
<polyline clip-path="url(#clip530)" style="stroke:#000000; stroke-linecap:round; stroke-linejoin:round; stroke-width:4; stroke-opacity:1; fill:none" points="343.87,1423.18 343.87,1404.28 "/>
<polyline clip-path="url(#clip530)" style="stroke:#000000; stroke-linecap:round; stroke-linejoin:round; stroke-width:4; stroke-opacity:1; fill:none" points="831.478,1423.18 831.478,1404.28 "/>
<polyline clip-path="url(#clip530)" style="stroke:#000000; stroke-linecap:round; stroke-linejoin:round; stroke-width:4; stroke-opacity:1; fill:none" points="1319.09,1423.18 1319.09,1404.28 "/>
<polyline clip-path="url(#clip530)" style="stroke:#000000; stroke-linecap:round; stroke-linejoin:round; stroke-width:4; stroke-opacity:1; fill:none" points="1806.69,1423.18 1806.69,1404.28 "/>
<polyline clip-path="url(#clip530)" style="stroke:#000000; stroke-linecap:round; stroke-linejoin:round; stroke-width:4; stroke-opacity:1; fill:none" points="2294.3,1423.18 2294.3,1404.28 "/>
<path clip-path="url(#clip530)" d="M343.87 1454.1 Q340.259 1454.1 338.43 1457.66 Q336.625 1461.2 336.625 1468.33 Q336.625 1475.44 338.43 1479.01 Q340.259 1482.55 343.87 1482.55 Q347.504 1482.55 349.31 1479.01 Q351.138 1475.44 351.138 1468.33 Q351.138 1461.2 349.31 1457.66 Q347.504 1454.1 343.87 1454.1 M343.87 1450.39 Q349.68 1450.39 352.736 1455 Q355.814 1459.58 355.814 1468.33 Q355.814 1477.06 352.736 1481.67 Q349.68 1486.25 343.87 1486.25 Q338.06 1486.25 334.981 1481.67 Q331.926 1477.06 331.926 1468.33 Q331.926 1459.58 334.981 1455 Q338.06 1450.39 343.87 1450.39 Z" fill="#000000" fill-rule="nonzero" fill-opacity="1" /><path clip-path="url(#clip530)" d="M795.17 1481.64 L811.489 1481.64 L811.489 1485.58 L789.545 1485.58 L789.545 1481.64 Q792.207 1478.89 796.79 1474.26 Q801.397 1469.61 802.577 1468.27 Q804.823 1465.74 805.702 1464.01 Q806.605 1462.25 806.605 1460.56 Q806.605 1457.8 804.661 1456.07 Q802.74 1454.33 799.638 1454.33 Q797.439 1454.33 794.985 1455.09 Q792.554 1455.86 789.777 1457.41 L789.777 1452.69 Q792.601 1451.55 795.054 1450.97 Q797.508 1450.39 799.545 1450.39 Q804.915 1450.39 808.11 1453.08 Q811.304 1455.77 811.304 1460.26 Q811.304 1462.39 810.494 1464.31 Q809.707 1466.2 807.601 1468.8 Q807.022 1469.47 803.92 1472.69 Q800.818 1475.88 795.17 1481.64 Z" fill="#000000" fill-rule="nonzero" fill-opacity="1" /><path clip-path="url(#clip530)" d="M821.351 1451.02 L839.707 1451.02 L839.707 1454.96 L825.633 1454.96 L825.633 1463.43 Q826.651 1463.08 827.67 1462.92 Q828.688 1462.73 829.707 1462.73 Q835.494 1462.73 838.874 1465.9 Q842.253 1469.08 842.253 1474.49 Q842.253 1480.07 838.781 1483.17 Q835.309 1486.25 828.989 1486.25 Q826.813 1486.25 824.545 1485.88 Q822.3 1485.51 819.892 1484.77 L819.892 1480.07 Q821.976 1481.2 824.198 1481.76 Q826.42 1482.32 828.897 1482.32 Q832.901 1482.32 835.239 1480.21 Q837.577 1478.1 837.577 1474.49 Q837.577 1470.88 835.239 1468.77 Q832.901 1466.67 828.897 1466.67 Q827.022 1466.67 825.147 1467.08 Q823.295 1467.5 821.351 1468.38 L821.351 1451.02 Z" fill="#000000" fill-rule="nonzero" fill-opacity="1" /><path clip-path="url(#clip530)" d="M861.466 1454.1 Q857.855 1454.1 856.026 1457.66 Q854.221 1461.2 854.221 1468.33 Q854.221 1475.44 856.026 1479.01 Q857.855 1482.55 861.466 1482.55 Q865.1 1482.55 866.906 1479.01 Q868.735 1475.44 868.735 1468.33 Q868.735 1461.2 866.906 1457.66 Q865.1 1454.1 861.466 1454.1 M861.466 1450.39 Q867.276 1450.39 870.332 1455 Q873.41 1459.58 873.41 1468.33 Q873.41 1477.06 870.332 1481.67 Q867.276 1486.25 861.466 1486.25 Q855.656 1486.25 852.577 1481.67 Q849.522 1477.06 849.522 1468.33 Q849.522 1459.58 852.577 1455 Q855.656 1450.39 861.466 1450.39 Z" fill="#000000" fill-rule="nonzero" fill-opacity="1" /><path clip-path="url(#clip530)" d="M1278.7 1451.02 L1297.06 1451.02 L1297.06 1454.96 L1282.99 1454.96 L1282.99 1463.43 Q1284 1463.08 1285.02 1462.92 Q1286.04 1462.73 1287.06 1462.73 Q1292.85 1462.73 1296.23 1465.9 Q1299.61 1469.08 1299.61 1474.49 Q1299.61 1480.07 1296.13 1483.17 Q1292.66 1486.25 1286.34 1486.25 Q1284.17 1486.25 1281.9 1485.88 Q1279.65 1485.51 1277.25 1484.77 L1277.25 1480.07 Q1279.33 1481.2 1281.55 1481.76 Q1283.77 1482.32 1286.25 1482.32 Q1290.25 1482.32 1292.59 1480.21 Q1294.93 1478.1 1294.93 1474.49 Q1294.93 1470.88 1292.59 1468.77 Q1290.25 1466.67 1286.25 1466.67 Q1284.38 1466.67 1282.5 1467.08 Q1280.65 1467.5 1278.7 1468.38 L1278.7 1451.02 Z" fill="#000000" fill-rule="nonzero" fill-opacity="1" /><path clip-path="url(#clip530)" d="M1318.82 1454.1 Q1315.21 1454.1 1313.38 1457.66 Q1311.57 1461.2 1311.57 1468.33 Q1311.57 1475.44 1313.38 1479.01 Q1315.21 1482.55 1318.82 1482.55 Q1322.45 1482.55 1324.26 1479.01 Q1326.09 1475.44 1326.09 1468.33 Q1326.09 1461.2 1324.26 1457.66 Q1322.45 1454.1 1318.82 1454.1 M1318.82 1450.39 Q1324.63 1450.39 1327.69 1455 Q1330.76 1459.58 1330.76 1468.33 Q1330.76 1477.06 1327.69 1481.67 Q1324.63 1486.25 1318.82 1486.25 Q1313.01 1486.25 1309.93 1481.67 Q1306.88 1477.06 1306.88 1468.33 Q1306.88 1459.58 1309.93 1455 Q1313.01 1450.39 1318.82 1450.39 Z" fill="#000000" fill-rule="nonzero" fill-opacity="1" /><path clip-path="url(#clip530)" d="M1348.98 1454.1 Q1345.37 1454.1 1343.54 1457.66 Q1341.74 1461.2 1341.74 1468.33 Q1341.74 1475.44 1343.54 1479.01 Q1345.37 1482.55 1348.98 1482.55 Q1352.62 1482.55 1354.42 1479.01 Q1356.25 1475.44 1356.25 1468.33 Q1356.25 1461.2 1354.42 1457.66 Q1352.62 1454.1 1348.98 1454.1 M1348.98 1450.39 Q1354.79 1450.39 1357.85 1455 Q1360.93 1459.58 1360.93 1468.33 Q1360.93 1477.06 1357.85 1481.67 Q1354.79 1486.25 1348.98 1486.25 Q1343.17 1486.25 1340.09 1481.67 Q1337.04 1477.06 1337.04 1468.33 Q1337.04 1459.58 1340.09 1455 Q1343.17 1450.39 1348.98 1450.39 Z" fill="#000000" fill-rule="nonzero" fill-opacity="1" /><path clip-path="url(#clip530)" d="M1764.97 1451.02 L1787.19 1451.02 L1787.19 1453.01 L1774.65 1485.58 L1769.76 1485.58 L1781.57 1454.96 L1764.97 1454.96 L1764.97 1451.02 Z" fill="#000000" fill-rule="nonzero" fill-opacity="1" /><path clip-path="url(#clip530)" d="M1796.36 1451.02 L1814.71 1451.02 L1814.71 1454.96 L1800.64 1454.96 L1800.64 1463.43 Q1801.66 1463.08 1802.68 1462.92 Q1803.7 1462.73 1804.71 1462.73 Q1810.5 1462.73 1813.88 1465.9 Q1817.26 1469.08 1817.26 1474.49 Q1817.26 1480.07 1813.79 1483.17 Q1810.32 1486.25 1804 1486.25 Q1801.82 1486.25 1799.55 1485.88 Q1797.31 1485.51 1794.9 1484.77 L1794.9 1480.07 Q1796.98 1481.2 1799.21 1481.76 Q1801.43 1482.32 1803.9 1482.32 Q1807.91 1482.32 1810.25 1480.21 Q1812.58 1478.1 1812.58 1474.49 Q1812.58 1470.88 1810.25 1468.77 Q1807.91 1466.67 1803.9 1466.67 Q1802.03 1466.67 1800.15 1467.08 Q1798.3 1467.5 1796.36 1468.38 L1796.36 1451.02 Z" fill="#000000" fill-rule="nonzero" fill-opacity="1" /><path clip-path="url(#clip530)" d="M1836.47 1454.1 Q1832.86 1454.1 1831.03 1457.66 Q1829.23 1461.2 1829.23 1468.33 Q1829.23 1475.44 1831.03 1479.01 Q1832.86 1482.55 1836.47 1482.55 Q1840.11 1482.55 1841.91 1479.01 Q1843.74 1475.44 1843.74 1468.33 Q1843.74 1461.2 1841.91 1457.66 Q1840.11 1454.1 1836.47 1454.1 M1836.47 1450.39 Q1842.28 1450.39 1845.34 1455 Q1848.42 1459.58 1848.42 1468.33 Q1848.42 1477.06 1845.34 1481.67 Q1842.28 1486.25 1836.47 1486.25 Q1830.66 1486.25 1827.58 1481.67 Q1824.53 1477.06 1824.53 1468.33 Q1824.53 1459.58 1827.58 1455 Q1830.66 1450.39 1836.47 1450.39 Z" fill="#000000" fill-rule="nonzero" fill-opacity="1" /><path clip-path="url(#clip530)" d="M2238.83 1481.64 L2246.47 1481.64 L2246.47 1455.28 L2238.16 1456.95 L2238.16 1452.69 L2246.42 1451.02 L2251.1 1451.02 L2251.1 1481.64 L2258.73 1481.64 L2258.73 1485.58 L2238.83 1485.58 L2238.83 1481.64 Z" fill="#000000" fill-rule="nonzero" fill-opacity="1" /><path clip-path="url(#clip530)" d="M2278.18 1454.1 Q2274.57 1454.1 2272.74 1457.66 Q2270.93 1461.2 2270.93 1468.33 Q2270.93 1475.44 2272.74 1479.01 Q2274.57 1482.55 2278.18 1482.55 Q2281.81 1482.55 2283.62 1479.01 Q2285.45 1475.44 2285.45 1468.33 Q2285.45 1461.2 2283.62 1457.66 Q2281.81 1454.1 2278.18 1454.1 M2278.18 1450.39 Q2283.99 1450.39 2287.04 1455 Q2290.12 1459.58 2290.12 1468.33 Q2290.12 1477.06 2287.04 1481.67 Q2283.99 1486.25 2278.18 1486.25 Q2272.37 1486.25 2269.29 1481.67 Q2266.23 1477.06 2266.23 1468.33 Q2266.23 1459.58 2269.29 1455 Q2272.37 1450.39 2278.18 1450.39 Z" fill="#000000" fill-rule="nonzero" fill-opacity="1" /><path clip-path="url(#clip530)" d="M2308.34 1454.1 Q2304.73 1454.1 2302.9 1457.66 Q2301.1 1461.2 2301.1 1468.33 Q2301.1 1475.44 2302.9 1479.01 Q2304.73 1482.55 2308.34 1482.55 Q2311.97 1482.55 2313.78 1479.01 Q2315.61 1475.44 2315.61 1468.33 Q2315.61 1461.2 2313.78 1457.66 Q2311.97 1454.1 2308.34 1454.1 M2308.34 1450.39 Q2314.15 1450.39 2317.21 1455 Q2320.29 1459.58 2320.29 1468.33 Q2320.29 1477.06 2317.21 1481.67 Q2314.15 1486.25 2308.34 1486.25 Q2302.53 1486.25 2299.45 1481.67 Q2296.4 1477.06 2296.4 1468.33 Q2296.4 1459.58 2299.45 1455 Q2302.53 1450.39 2308.34 1450.39 Z" fill="#000000" fill-rule="nonzero" fill-opacity="1" /><path clip-path="url(#clip530)" d="M2338.5 1454.1 Q2334.89 1454.1 2333.06 1457.66 Q2331.26 1461.2 2331.26 1468.33 Q2331.26 1475.44 2333.06 1479.01 Q2334.89 1482.55 2338.5 1482.55 Q2342.14 1482.55 2343.94 1479.01 Q2345.77 1475.44 2345.77 1468.33 Q2345.77 1461.2 2343.94 1457.66 Q2342.14 1454.1 2338.5 1454.1 M2338.5 1450.39 Q2344.31 1450.39 2347.37 1455 Q2350.45 1459.58 2350.45 1468.33 Q2350.45 1477.06 2347.37 1481.67 Q2344.31 1486.25 2338.5 1486.25 Q2332.69 1486.25 2329.61 1481.67 Q2326.56 1477.06 2326.56 1468.33 Q2326.56 1459.58 2329.61 1455 Q2332.69 1450.39 2338.5 1450.39 Z" fill="#000000" fill-rule="nonzero" fill-opacity="1" /><path clip-path="url(#clip530)" d="M1283.9 1524.18 L1283.9 1530.96 Q1280.66 1527.94 1276.97 1526.44 Q1273.3 1524.95 1269.17 1524.95 Q1261.02 1524.95 1256.69 1529.95 Q1252.36 1534.91 1252.36 1544.33 Q1252.36 1553.72 1256.69 1558.72 Q1261.02 1563.68 1269.17 1563.68 Q1273.3 1563.68 1276.97 1562.19 Q1280.66 1560.69 1283.9 1557.67 L1283.9 1564.38 Q1280.53 1566.68 1276.74 1567.82 Q1272.99 1568.97 1268.79 1568.97 Q1258 1568.97 1251.79 1562.38 Q1245.58 1555.76 1245.58 1544.33 Q1245.58 1532.87 1251.79 1526.28 Q1258 1519.66 1268.79 1519.66 Q1273.05 1519.66 1276.81 1520.81 Q1280.59 1521.92 1283.9 1524.18 Z" fill="#000000" fill-rule="nonzero" fill-opacity="1" /><path clip-path="url(#clip530)" d="M1324.07 1548.76 L1324.07 1551.62 L1297.14 1551.62 Q1297.53 1557.67 1300.77 1560.85 Q1304.05 1564 1309.88 1564 Q1313.25 1564 1316.4 1563.17 Q1319.58 1562.35 1322.7 1560.69 L1322.7 1566.23 Q1319.55 1567.57 1316.24 1568.27 Q1312.93 1568.97 1309.53 1568.97 Q1301 1568.97 1296 1564 Q1291.03 1559.04 1291.03 1550.57 Q1291.03 1541.82 1295.74 1536.69 Q1300.49 1531.54 1308.51 1531.54 Q1315.7 1531.54 1319.87 1536.18 Q1324.07 1540.8 1324.07 1548.76 M1318.21 1547.04 Q1318.15 1542.23 1315.51 1539.37 Q1312.9 1536.5 1308.57 1536.5 Q1303.67 1536.5 1300.71 1539.27 Q1297.78 1542.04 1297.34 1547.07 L1318.21 1547.04 Z" fill="#000000" fill-rule="nonzero" fill-opacity="1" /><path clip-path="url(#clip530)" d="M1333.68 1518.52 L1339.54 1518.52 L1339.54 1568.04 L1333.68 1568.04 L1333.68 1518.52 Z" fill="#000000" fill-rule="nonzero" fill-opacity="1" /><path clip-path="url(#clip530)" d="M1351.79 1518.52 L1357.65 1518.52 L1357.65 1568.04 L1351.79 1568.04 L1351.79 1518.52 Z" fill="#000000" fill-rule="nonzero" fill-opacity="1" /><path clip-path="url(#clip530)" d="M1392.63 1533.45 L1392.63 1538.98 Q1390.15 1537.71 1387.47 1537.07 Q1384.8 1536.44 1381.94 1536.44 Q1377.58 1536.44 1375.38 1537.77 Q1373.21 1539.11 1373.21 1541.79 Q1373.21 1543.82 1374.77 1545 Q1376.33 1546.15 1381.04 1547.2 L1383.05 1547.64 Q1389.29 1548.98 1391.9 1551.43 Q1394.54 1553.85 1394.54 1558.21 Q1394.54 1563.17 1390.59 1566.07 Q1386.68 1568.97 1379.8 1568.97 Q1376.94 1568.97 1373.82 1568.39 Q1370.73 1567.85 1367.29 1566.74 L1367.29 1560.69 Q1370.54 1562.38 1373.69 1563.24 Q1376.84 1564.07 1379.93 1564.07 Q1384.07 1564.07 1386.3 1562.66 Q1388.52 1561.23 1388.52 1558.65 Q1388.52 1556.27 1386.9 1554.99 Q1385.31 1553.72 1379.87 1552.54 L1377.83 1552.07 Q1372.39 1550.92 1369.97 1548.56 Q1367.55 1546.18 1367.55 1542.04 Q1367.55 1537.01 1371.11 1534.27 Q1374.68 1531.54 1381.24 1531.54 Q1384.48 1531.54 1387.35 1532.01 Q1390.21 1532.49 1392.63 1533.45 Z" fill="#000000" fill-rule="nonzero" fill-opacity="1" /><polyline clip-path="url(#clip532)" style="stroke:#000000; stroke-linecap:round; stroke-linejoin:round; stroke-width:2; stroke-opacity:0.1; fill:none" points="287.366,1295.2 2352.76,1295.2 "/>
<polyline clip-path="url(#clip532)" style="stroke:#000000; stroke-linecap:round; stroke-linejoin:round; stroke-width:2; stroke-opacity:0.1; fill:none" points="287.366,1124.13 2352.76,1124.13 "/>
<polyline clip-path="url(#clip532)" style="stroke:#000000; stroke-linecap:round; stroke-linejoin:round; stroke-width:2; stroke-opacity:0.1; fill:none" points="287.366,953.061 2352.76,953.061 "/>
<polyline clip-path="url(#clip532)" style="stroke:#000000; stroke-linecap:round; stroke-linejoin:round; stroke-width:2; stroke-opacity:0.1; fill:none" points="287.366,781.994 2352.76,781.994 "/>
<polyline clip-path="url(#clip532)" style="stroke:#000000; stroke-linecap:round; stroke-linejoin:round; stroke-width:2; stroke-opacity:0.1; fill:none" points="287.366,610.927 2352.76,610.927 "/>
<polyline clip-path="url(#clip532)" style="stroke:#000000; stroke-linecap:round; stroke-linejoin:round; stroke-width:2; stroke-opacity:0.1; fill:none" points="287.366,439.86 2352.76,439.86 "/>
<polyline clip-path="url(#clip532)" style="stroke:#000000; stroke-linecap:round; stroke-linejoin:round; stroke-width:2; stroke-opacity:0.1; fill:none" points="287.366,268.792 2352.76,268.792 "/>
<polyline clip-path="url(#clip530)" style="stroke:#000000; stroke-linecap:round; stroke-linejoin:round; stroke-width:4; stroke-opacity:1; fill:none" points="287.366,1423.18 287.366,123.472 "/>
<polyline clip-path="url(#clip530)" style="stroke:#000000; stroke-linecap:round; stroke-linejoin:round; stroke-width:4; stroke-opacity:1; fill:none" points="287.366,1295.2 306.264,1295.2 "/>
<polyline clip-path="url(#clip530)" style="stroke:#000000; stroke-linecap:round; stroke-linejoin:round; stroke-width:4; stroke-opacity:1; fill:none" points="287.366,1124.13 306.264,1124.13 "/>
<polyline clip-path="url(#clip530)" style="stroke:#000000; stroke-linecap:round; stroke-linejoin:round; stroke-width:4; stroke-opacity:1; fill:none" points="287.366,953.061 306.264,953.061 "/>
<polyline clip-path="url(#clip530)" style="stroke:#000000; stroke-linecap:round; stroke-linejoin:round; stroke-width:4; stroke-opacity:1; fill:none" points="287.366,781.994 306.264,781.994 "/>
<polyline clip-path="url(#clip530)" style="stroke:#000000; stroke-linecap:round; stroke-linejoin:round; stroke-width:4; stroke-opacity:1; fill:none" points="287.366,610.927 306.264,610.927 "/>
<polyline clip-path="url(#clip530)" style="stroke:#000000; stroke-linecap:round; stroke-linejoin:round; stroke-width:4; stroke-opacity:1; fill:none" points="287.366,439.86 306.264,439.86 "/>
<polyline clip-path="url(#clip530)" style="stroke:#000000; stroke-linecap:round; stroke-linejoin:round; stroke-width:4; stroke-opacity:1; fill:none" points="287.366,268.792 306.264,268.792 "/>
<path clip-path="url(#clip530)" d="M115.256 1295.65 L144.931 1295.65 L144.931 1299.58 L115.256 1299.58 L115.256 1295.65 Z" fill="#000000" fill-rule="nonzero" fill-opacity="1" /><path clip-path="url(#clip530)" d="M165.024 1280.99 Q161.413 1280.99 159.584 1284.56 Q157.778 1288.1 157.778 1295.23 Q157.778 1302.34 159.584 1305.9 Q161.413 1309.44 165.024 1309.44 Q168.658 1309.44 170.464 1305.9 Q172.292 1302.34 172.292 1295.23 Q172.292 1288.1 170.464 1284.56 Q168.658 1280.99 165.024 1280.99 M165.024 1277.29 Q170.834 1277.29 173.889 1281.9 Q176.968 1286.48 176.968 1295.23 Q176.968 1303.96 173.889 1308.56 Q170.834 1313.15 165.024 1313.15 Q159.214 1313.15 156.135 1308.56 Q153.079 1303.96 153.079 1295.23 Q153.079 1286.48 156.135 1281.9 Q159.214 1277.29 165.024 1277.29 Z" fill="#000000" fill-rule="nonzero" fill-opacity="1" /><path clip-path="url(#clip530)" d="M185.186 1306.6 L190.07 1306.6 L190.07 1312.48 L185.186 1312.48 L185.186 1306.6 Z" fill="#000000" fill-rule="nonzero" fill-opacity="1" /><path clip-path="url(#clip530)" d="M199.075 1277.92 L221.297 1277.92 L221.297 1279.91 L208.75 1312.48 L203.866 1312.48 L215.672 1281.85 L199.075 1281.85 L199.075 1277.92 Z" fill="#000000" fill-rule="nonzero" fill-opacity="1" /><path clip-path="url(#clip530)" d="M230.463 1277.92 L248.82 1277.92 L248.82 1281.85 L234.746 1281.85 L234.746 1290.32 Q235.764 1289.98 236.783 1289.81 Q237.801 1289.63 238.82 1289.63 Q244.607 1289.63 247.986 1292.8 Q251.366 1295.97 251.366 1301.39 Q251.366 1306.97 247.894 1310.07 Q244.421 1313.15 238.102 1313.15 Q235.926 1313.15 233.658 1312.78 Q231.412 1312.41 229.005 1311.67 L229.005 1306.97 Q231.088 1308.1 233.31 1308.66 Q235.533 1309.21 238.009 1309.21 Q242.014 1309.21 244.352 1307.11 Q246.69 1305 246.69 1301.39 Q246.69 1297.78 244.352 1295.67 Q242.014 1293.56 238.009 1293.56 Q236.135 1293.56 234.26 1293.98 Q232.408 1294.4 230.463 1295.28 L230.463 1277.92 Z" fill="#000000" fill-rule="nonzero" fill-opacity="1" /><path clip-path="url(#clip530)" d="M114.26 1124.58 L143.936 1124.58 L143.936 1128.52 L114.26 1128.52 L114.26 1124.58 Z" fill="#000000" fill-rule="nonzero" fill-opacity="1" /><path clip-path="url(#clip530)" d="M164.028 1109.93 Q160.417 1109.93 158.589 1113.49 Q156.783 1117.03 156.783 1124.16 Q156.783 1131.27 158.589 1134.83 Q160.417 1138.38 164.028 1138.38 Q167.663 1138.38 169.468 1134.83 Q171.297 1131.27 171.297 1124.16 Q171.297 1117.03 169.468 1113.49 Q167.663 1109.93 164.028 1109.93 M164.028 1106.22 Q169.839 1106.22 172.894 1110.83 Q175.973 1115.41 175.973 1124.16 Q175.973 1132.89 172.894 1137.5 Q169.839 1142.08 164.028 1142.08 Q158.218 1142.08 155.14 1137.5 Q152.084 1132.89 152.084 1124.16 Q152.084 1115.41 155.14 1110.83 Q158.218 1106.22 164.028 1106.22 Z" fill="#000000" fill-rule="nonzero" fill-opacity="1" /><path clip-path="url(#clip530)" d="M184.19 1135.53 L189.075 1135.53 L189.075 1141.41 L184.19 1141.41 L184.19 1135.53 Z" fill="#000000" fill-rule="nonzero" fill-opacity="1" /><path clip-path="url(#clip530)" d="M199.306 1106.85 L217.662 1106.85 L217.662 1110.78 L203.588 1110.78 L203.588 1119.26 Q204.607 1118.91 205.625 1118.75 Q206.644 1118.56 207.662 1118.56 Q213.449 1118.56 216.829 1121.73 Q220.209 1124.9 220.209 1130.32 Q220.209 1135.9 216.736 1139 Q213.264 1142.08 206.945 1142.08 Q204.769 1142.08 202.5 1141.71 Q200.255 1141.34 197.848 1140.6 L197.848 1135.9 Q199.931 1137.03 202.153 1137.59 Q204.375 1138.14 206.852 1138.14 Q210.857 1138.14 213.195 1136.04 Q215.533 1133.93 215.533 1130.32 Q215.533 1126.71 213.195 1124.6 Q210.857 1122.5 206.852 1122.5 Q204.977 1122.5 203.102 1122.91 Q201.25 1123.33 199.306 1124.21 L199.306 1106.85 Z" fill="#000000" fill-rule="nonzero" fill-opacity="1" /><path clip-path="url(#clip530)" d="M239.422 1109.93 Q235.81 1109.93 233.982 1113.49 Q232.176 1117.03 232.176 1124.16 Q232.176 1131.27 233.982 1134.83 Q235.81 1138.38 239.422 1138.38 Q243.056 1138.38 244.861 1134.83 Q246.69 1131.27 246.69 1124.16 Q246.69 1117.03 244.861 1113.49 Q243.056 1109.93 239.422 1109.93 M239.422 1106.22 Q245.232 1106.22 248.287 1110.83 Q251.366 1115.41 251.366 1124.16 Q251.366 1132.89 248.287 1137.5 Q245.232 1142.08 239.422 1142.08 Q233.611 1142.08 230.533 1137.5 Q227.477 1132.89 227.477 1124.16 Q227.477 1115.41 230.533 1110.83 Q233.611 1106.22 239.422 1106.22 Z" fill="#000000" fill-rule="nonzero" fill-opacity="1" /><path clip-path="url(#clip530)" d="M115.256 953.513 L144.931 953.513 L144.931 957.448 L115.256 957.448 L115.256 953.513 Z" fill="#000000" fill-rule="nonzero" fill-opacity="1" /><path clip-path="url(#clip530)" d="M165.024 938.86 Q161.413 938.86 159.584 942.425 Q157.778 945.966 157.778 953.096 Q157.778 960.202 159.584 963.767 Q161.413 967.309 165.024 967.309 Q168.658 967.309 170.464 963.767 Q172.292 960.202 172.292 953.096 Q172.292 945.966 170.464 942.425 Q168.658 938.86 165.024 938.86 M165.024 935.156 Q170.834 935.156 173.889 939.763 Q176.968 944.346 176.968 953.096 Q176.968 961.823 173.889 966.429 Q170.834 971.013 165.024 971.013 Q159.214 971.013 156.135 966.429 Q153.079 961.823 153.079 953.096 Q153.079 944.346 156.135 939.763 Q159.214 935.156 165.024 935.156 Z" fill="#000000" fill-rule="nonzero" fill-opacity="1" /><path clip-path="url(#clip530)" d="M185.186 964.462 L190.07 964.462 L190.07 970.341 L185.186 970.341 L185.186 964.462 Z" fill="#000000" fill-rule="nonzero" fill-opacity="1" /><path clip-path="url(#clip530)" d="M204.283 966.406 L220.602 966.406 L220.602 970.341 L198.658 970.341 L198.658 966.406 Q201.32 963.651 205.903 959.022 Q210.51 954.369 211.69 953.027 Q213.936 950.503 214.815 948.767 Q215.718 947.008 215.718 945.318 Q215.718 942.564 213.774 940.828 Q211.852 939.091 208.75 939.091 Q206.551 939.091 204.098 939.855 Q201.667 940.619 198.889 942.17 L198.889 937.448 Q201.713 936.314 204.167 935.735 Q206.621 935.156 208.658 935.156 Q214.028 935.156 217.223 937.841 Q220.417 940.527 220.417 945.017 Q220.417 947.147 219.607 949.068 Q218.82 950.966 216.713 953.559 Q216.135 954.23 213.033 957.448 Q209.931 960.642 204.283 966.406 Z" fill="#000000" fill-rule="nonzero" fill-opacity="1" /><path clip-path="url(#clip530)" d="M230.463 935.781 L248.82 935.781 L248.82 939.716 L234.746 939.716 L234.746 948.189 Q235.764 947.841 236.783 947.679 Q237.801 947.494 238.82 947.494 Q244.607 947.494 247.986 950.665 Q251.366 953.837 251.366 959.253 Q251.366 964.832 247.894 967.934 Q244.421 971.013 238.102 971.013 Q235.926 971.013 233.658 970.642 Q231.412 970.272 229.005 969.531 L229.005 964.832 Q231.088 965.966 233.31 966.522 Q235.533 967.077 238.009 967.077 Q242.014 967.077 244.352 964.971 Q246.69 962.864 246.69 959.253 Q246.69 955.642 244.352 953.536 Q242.014 951.429 238.009 951.429 Q236.135 951.429 234.26 951.846 Q232.408 952.263 230.463 953.142 L230.463 935.781 Z" fill="#000000" fill-rule="nonzero" fill-opacity="1" /><path clip-path="url(#clip530)" d="M164.028 767.793 Q160.417 767.793 158.589 771.357 Q156.783 774.899 156.783 782.029 Q156.783 789.135 158.589 792.7 Q160.417 796.242 164.028 796.242 Q167.663 796.242 169.468 792.7 Q171.297 789.135 171.297 782.029 Q171.297 774.899 169.468 771.357 Q167.663 767.793 164.028 767.793 M164.028 764.089 Q169.839 764.089 172.894 768.695 Q175.973 773.279 175.973 782.029 Q175.973 790.756 172.894 795.362 Q169.839 799.945 164.028 799.945 Q158.218 799.945 155.14 795.362 Q152.084 790.756 152.084 782.029 Q152.084 773.279 155.14 768.695 Q158.218 764.089 164.028 764.089 Z" fill="#000000" fill-rule="nonzero" fill-opacity="1" /><path clip-path="url(#clip530)" d="M184.19 793.394 L189.075 793.394 L189.075 799.274 L184.19 799.274 L184.19 793.394 Z" fill="#000000" fill-rule="nonzero" fill-opacity="1" /><path clip-path="url(#clip530)" d="M209.26 767.793 Q205.649 767.793 203.82 771.357 Q202.014 774.899 202.014 782.029 Q202.014 789.135 203.82 792.7 Q205.649 796.242 209.26 796.242 Q212.894 796.242 214.699 792.7 Q216.528 789.135 216.528 782.029 Q216.528 774.899 214.699 771.357 Q212.894 767.793 209.26 767.793 M209.26 764.089 Q215.07 764.089 218.125 768.695 Q221.204 773.279 221.204 782.029 Q221.204 790.756 218.125 795.362 Q215.07 799.945 209.26 799.945 Q203.449 799.945 200.371 795.362 Q197.315 790.756 197.315 782.029 Q197.315 773.279 200.371 768.695 Q203.449 764.089 209.26 764.089 Z" fill="#000000" fill-rule="nonzero" fill-opacity="1" /><path clip-path="url(#clip530)" d="M239.422 767.793 Q235.81 767.793 233.982 771.357 Q232.176 774.899 232.176 782.029 Q232.176 789.135 233.982 792.7 Q235.81 796.242 239.422 796.242 Q243.056 796.242 244.861 792.7 Q246.69 789.135 246.69 782.029 Q246.69 774.899 244.861 771.357 Q243.056 767.793 239.422 767.793 M239.422 764.089 Q245.232 764.089 248.287 768.695 Q251.366 773.279 251.366 782.029 Q251.366 790.756 248.287 795.362 Q245.232 799.945 239.422 799.945 Q233.611 799.945 230.533 795.362 Q227.477 790.756 227.477 782.029 Q227.477 773.279 230.533 768.695 Q233.611 764.089 239.422 764.089 Z" fill="#000000" fill-rule="nonzero" fill-opacity="1" /><path clip-path="url(#clip530)" d="M165.024 596.725 Q161.413 596.725 159.584 600.29 Q157.778 603.832 157.778 610.962 Q157.778 618.068 159.584 621.633 Q161.413 625.174 165.024 625.174 Q168.658 625.174 170.464 621.633 Q172.292 618.068 172.292 610.962 Q172.292 603.832 170.464 600.29 Q168.658 596.725 165.024 596.725 M165.024 593.022 Q170.834 593.022 173.889 597.628 Q176.968 602.212 176.968 610.962 Q176.968 619.688 173.889 624.295 Q170.834 628.878 165.024 628.878 Q159.214 628.878 156.135 624.295 Q153.079 619.688 153.079 610.962 Q153.079 602.212 156.135 597.628 Q159.214 593.022 165.024 593.022 Z" fill="#000000" fill-rule="nonzero" fill-opacity="1" /><path clip-path="url(#clip530)" d="M185.186 622.327 L190.07 622.327 L190.07 628.207 L185.186 628.207 L185.186 622.327 Z" fill="#000000" fill-rule="nonzero" fill-opacity="1" /><path clip-path="url(#clip530)" d="M204.283 624.272 L220.602 624.272 L220.602 628.207 L198.658 628.207 L198.658 624.272 Q201.32 621.517 205.903 616.887 Q210.51 612.235 211.69 610.892 Q213.936 608.369 214.815 606.633 Q215.718 604.874 215.718 603.184 Q215.718 600.429 213.774 598.693 Q211.852 596.957 208.75 596.957 Q206.551 596.957 204.098 597.721 Q201.667 598.485 198.889 600.036 L198.889 595.313 Q201.713 594.179 204.167 593.6 Q206.621 593.022 208.658 593.022 Q214.028 593.022 217.223 595.707 Q220.417 598.392 220.417 602.883 Q220.417 605.012 219.607 606.934 Q218.82 608.832 216.713 611.424 Q216.135 612.096 213.033 615.313 Q209.931 618.508 204.283 624.272 Z" fill="#000000" fill-rule="nonzero" fill-opacity="1" /><path clip-path="url(#clip530)" d="M230.463 593.647 L248.82 593.647 L248.82 597.582 L234.746 597.582 L234.746 606.054 Q235.764 605.707 236.783 605.545 Q237.801 605.36 238.82 605.36 Q244.607 605.36 247.986 608.531 Q251.366 611.702 251.366 617.119 Q251.366 622.698 247.894 625.799 Q244.421 628.878 238.102 628.878 Q235.926 628.878 233.658 628.508 Q231.412 628.137 229.005 627.397 L229.005 622.698 Q231.088 623.832 233.31 624.387 Q235.533 624.943 238.009 624.943 Q242.014 624.943 244.352 622.836 Q246.69 620.73 246.69 617.119 Q246.69 613.508 244.352 611.401 Q242.014 609.295 238.009 609.295 Q236.135 609.295 234.26 609.712 Q232.408 610.128 230.463 611.008 L230.463 593.647 Z" fill="#000000" fill-rule="nonzero" fill-opacity="1" /><path clip-path="url(#clip530)" d="M164.028 425.658 Q160.417 425.658 158.589 429.223 Q156.783 432.765 156.783 439.894 Q156.783 447.001 158.589 450.566 Q160.417 454.107 164.028 454.107 Q167.663 454.107 169.468 450.566 Q171.297 447.001 171.297 439.894 Q171.297 432.765 169.468 429.223 Q167.663 425.658 164.028 425.658 M164.028 421.955 Q169.839 421.955 172.894 426.561 Q175.973 431.144 175.973 439.894 Q175.973 448.621 172.894 453.228 Q169.839 457.811 164.028 457.811 Q158.218 457.811 155.14 453.228 Q152.084 448.621 152.084 439.894 Q152.084 431.144 155.14 426.561 Q158.218 421.955 164.028 421.955 Z" fill="#000000" fill-rule="nonzero" fill-opacity="1" /><path clip-path="url(#clip530)" d="M184.19 451.26 L189.075 451.26 L189.075 457.14 L184.19 457.14 L184.19 451.26 Z" fill="#000000" fill-rule="nonzero" fill-opacity="1" /><path clip-path="url(#clip530)" d="M199.306 422.58 L217.662 422.58 L217.662 426.515 L203.588 426.515 L203.588 434.987 Q204.607 434.64 205.625 434.478 Q206.644 434.292 207.662 434.292 Q213.449 434.292 216.829 437.464 Q220.209 440.635 220.209 446.052 Q220.209 451.63 216.736 454.732 Q213.264 457.811 206.945 457.811 Q204.769 457.811 202.5 457.44 Q200.255 457.07 197.848 456.329 L197.848 451.63 Q199.931 452.765 202.153 453.32 Q204.375 453.876 206.852 453.876 Q210.857 453.876 213.195 451.769 Q215.533 449.663 215.533 446.052 Q215.533 442.441 213.195 440.334 Q210.857 438.228 206.852 438.228 Q204.977 438.228 203.102 438.644 Q201.25 439.061 199.306 439.941 L199.306 422.58 Z" fill="#000000" fill-rule="nonzero" fill-opacity="1" /><path clip-path="url(#clip530)" d="M239.422 425.658 Q235.81 425.658 233.982 429.223 Q232.176 432.765 232.176 439.894 Q232.176 447.001 233.982 450.566 Q235.81 454.107 239.422 454.107 Q243.056 454.107 244.861 450.566 Q246.69 447.001 246.69 439.894 Q246.69 432.765 244.861 429.223 Q243.056 425.658 239.422 425.658 M239.422 421.955 Q245.232 421.955 248.287 426.561 Q251.366 431.144 251.366 439.894 Q251.366 448.621 248.287 453.228 Q245.232 457.811 239.422 457.811 Q233.611 457.811 230.533 453.228 Q227.477 448.621 227.477 439.894 Q227.477 431.144 230.533 426.561 Q233.611 421.955 239.422 421.955 Z" fill="#000000" fill-rule="nonzero" fill-opacity="1" /><path clip-path="url(#clip530)" d="M165.024 254.591 Q161.413 254.591 159.584 258.156 Q157.778 261.697 157.778 268.827 Q157.778 275.933 159.584 279.498 Q161.413 283.04 165.024 283.04 Q168.658 283.04 170.464 279.498 Q172.292 275.933 172.292 268.827 Q172.292 261.697 170.464 258.156 Q168.658 254.591 165.024 254.591 M165.024 250.887 Q170.834 250.887 173.889 255.494 Q176.968 260.077 176.968 268.827 Q176.968 277.554 173.889 282.16 Q170.834 286.744 165.024 286.744 Q159.214 286.744 156.135 282.16 Q153.079 277.554 153.079 268.827 Q153.079 260.077 156.135 255.494 Q159.214 250.887 165.024 250.887 Z" fill="#000000" fill-rule="nonzero" fill-opacity="1" /><path clip-path="url(#clip530)" d="M185.186 280.193 L190.07 280.193 L190.07 286.072 L185.186 286.072 L185.186 280.193 Z" fill="#000000" fill-rule="nonzero" fill-opacity="1" /><path clip-path="url(#clip530)" d="M199.075 251.512 L221.297 251.512 L221.297 253.503 L208.75 286.072 L203.866 286.072 L215.672 255.447 L199.075 255.447 L199.075 251.512 Z" fill="#000000" fill-rule="nonzero" fill-opacity="1" /><path clip-path="url(#clip530)" d="M230.463 251.512 L248.82 251.512 L248.82 255.447 L234.746 255.447 L234.746 263.92 Q235.764 263.572 236.783 263.41 Q237.801 263.225 238.82 263.225 Q244.607 263.225 247.986 266.397 Q251.366 269.568 251.366 274.984 Q251.366 280.563 247.894 283.665 Q244.421 286.744 238.102 286.744 Q235.926 286.744 233.658 286.373 Q231.412 286.003 229.005 285.262 L229.005 280.563 Q231.088 281.697 233.31 282.253 Q235.533 282.808 238.009 282.808 Q242.014 282.808 244.352 280.702 Q246.69 278.596 246.69 274.984 Q246.69 271.373 244.352 269.267 Q242.014 267.16 238.009 267.16 Q236.135 267.16 234.26 267.577 Q232.408 267.994 230.463 268.873 L230.463 251.512 Z" fill="#000000" fill-rule="nonzero" fill-opacity="1" /><path clip-path="url(#clip530)" d="M18.0438 893.717 L24.314 893.717 Q22.5634 897.378 21.704 900.624 Q20.8447 903.871 20.8447 906.894 Q20.8447 912.146 22.8817 915.011 Q24.9187 917.843 28.6745 917.843 Q31.8255 917.843 33.4488 915.966 Q35.0402 914.056 36.0269 908.772 L36.8226 904.889 Q38.1912 897.696 41.6605 894.29 Q45.098 890.853 50.8908 890.853 Q57.7976 890.853 61.3624 895.5 Q64.9272 900.115 64.9272 909.059 Q64.9272 912.433 64.1633 916.252 Q63.3994 920.04 61.9035 924.114 L55.2831 924.114 Q57.4793 920.199 58.5933 916.443 Q59.7073 912.687 59.7073 909.059 Q59.7073 903.552 57.543 900.561 Q55.3786 897.569 51.3682 897.569 Q47.8671 897.569 45.8937 899.733 Q43.9204 901.866 42.9337 906.767 L42.1698 910.682 Q40.7375 917.875 37.682 921.09 Q34.6264 924.305 29.1837 924.305 Q22.8817 924.305 19.2532 919.88 Q15.6248 915.424 15.6248 907.626 Q15.6248 904.284 16.2295 900.815 Q16.8343 897.346 18.0438 893.717 Z" fill="#000000" fill-rule="nonzero" fill-opacity="1" /><path clip-path="url(#clip530)" d="M28.3562 881.081 L28.3562 875.225 L64.0042 875.225 L64.0042 881.081 L28.3562 881.081 M14.479 881.081 L14.479 875.225 L21.895 875.225 L21.895 881.081 L14.479 881.081 Z" fill="#000000" fill-rule="nonzero" fill-opacity="1" /><path clip-path="url(#clip530)" d="M35.1993 835.217 Q31.2526 833.02 29.3747 829.965 Q27.4968 826.909 27.4968 822.772 Q27.4968 817.202 31.4117 814.178 Q35.2948 811.154 42.4881 811.154 L64.0042 811.154 L64.0042 817.042 L42.679 817.042 Q37.5546 817.042 35.072 818.857 Q32.5894 820.671 32.5894 824.395 Q32.5894 828.946 35.6131 831.588 Q38.6368 834.23 43.8567 834.23 L64.0042 834.23 L64.0042 840.118 L42.679 840.118 Q37.5228 840.118 35.072 841.932 Q32.5894 843.747 32.5894 847.534 Q32.5894 852.022 35.6449 854.664 Q38.6686 857.306 43.8567 857.306 L64.0042 857.306 L64.0042 863.194 L28.3562 863.194 L28.3562 857.306 L33.8944 857.306 Q30.616 855.3 29.0564 852.499 Q27.4968 849.699 27.4968 845.847 Q27.4968 841.964 29.4702 839.259 Q31.4436 836.522 35.1993 835.217 Z" fill="#000000" fill-rule="nonzero" fill-opacity="1" /><path clip-path="url(#clip530)" d="M28.3562 799.473 L28.3562 793.617 L64.0042 793.617 L64.0042 799.473 L28.3562 799.473 M14.479 799.473 L14.479 793.617 L21.895 793.617 L21.895 799.473 L14.479 799.473 Z" fill="#000000" fill-rule="nonzero" fill-opacity="1" /><path clip-path="url(#clip530)" d="M14.479 781.363 L14.479 775.506 L64.0042 775.506 L64.0042 781.363 L14.479 781.363 Z" fill="#000000" fill-rule="nonzero" fill-opacity="1" /><path clip-path="url(#clip530)" d="M46.0847 747.052 Q46.0847 754.149 47.7079 756.887 Q49.3312 759.624 53.2461 759.624 Q56.3653 759.624 58.2114 757.587 Q60.0256 755.518 60.0256 751.985 Q60.0256 747.115 56.5881 744.187 Q53.1188 741.227 47.3897 741.227 L46.0847 741.227 L46.0847 747.052 M43.6657 735.37 L64.0042 735.37 L64.0042 741.227 L58.5933 741.227 Q61.8398 743.232 63.3994 746.224 Q64.9272 749.216 64.9272 753.545 Q64.9272 759.019 61.8716 762.266 Q58.7843 765.48 53.6281 765.48 Q47.6125 765.48 44.5569 761.47 Q41.5014 757.428 41.5014 749.439 L41.5014 741.227 L40.9285 741.227 Q36.8862 741.227 34.6901 743.901 Q32.4621 746.542 32.4621 751.348 Q32.4621 754.404 33.1941 757.3 Q33.9262 760.197 35.3903 762.87 L29.9795 762.87 Q28.7381 759.656 28.1334 756.632 Q27.4968 753.608 27.4968 750.744 Q27.4968 743.009 31.5072 739.19 Q35.5176 735.37 43.6657 735.37 Z" fill="#000000" fill-rule="nonzero" fill-opacity="1" /><path clip-path="url(#clip530)" d="M33.8307 702.651 Q33.2578 703.637 33.0032 704.815 Q32.7167 705.961 32.7167 707.361 Q32.7167 712.327 35.9632 715 Q39.1779 717.642 45.2253 717.642 L64.0042 717.642 L64.0042 723.53 L28.3562 723.53 L28.3562 717.642 L33.8944 717.642 Q30.6479 715.796 29.0883 712.836 Q27.4968 709.876 27.4968 705.643 Q27.4968 705.038 27.5923 704.306 Q27.656 703.574 27.8151 702.683 L33.8307 702.651 Z" fill="#000000" fill-rule="nonzero" fill-opacity="1" /><path clip-path="url(#clip530)" d="M28.3562 696.508 L28.3562 690.651 L64.0042 690.651 L64.0042 696.508 L28.3562 696.508 M14.479 696.508 L14.479 690.651 L21.895 690.651 L21.895 696.508 L14.479 696.508 Z" fill="#000000" fill-rule="nonzero" fill-opacity="1" /><path clip-path="url(#clip530)" d="M18.2347 672.605 L28.3562 672.605 L28.3562 660.542 L32.9077 660.542 L32.9077 672.605 L52.2594 672.605 Q56.6199 672.605 57.8613 671.427 Q59.1026 670.217 59.1026 666.557 L59.1026 660.542 L64.0042 660.542 L64.0042 666.557 Q64.0042 673.337 61.4897 675.915 Q58.9434 678.493 52.2594 678.493 L32.9077 678.493 L32.9077 682.79 L28.3562 682.79 L28.3562 678.493 L18.2347 678.493 L18.2347 672.605 Z" fill="#000000" fill-rule="nonzero" fill-opacity="1" /><path clip-path="url(#clip530)" d="M67.3143 638.007 Q73.68 640.49 75.6216 642.845 Q77.5631 645.2 77.5631 649.147 L77.5631 653.826 L72.6615 653.826 L72.6615 650.388 Q72.6615 647.969 71.5157 646.633 Q70.3699 645.296 66.1048 643.672 L63.4312 642.622 L28.3562 657.04 L28.3562 650.834 L56.238 639.694 L28.3562 628.554 L28.3562 622.347 L67.3143 638.007 Z" fill="#000000" fill-rule="nonzero" fill-opacity="1" /><path clip-path="url(#clip530)" d="M411.261 14.0809 L411.261 22.0612 Q406.602 19.8332 402.47 18.7395 Q398.338 17.6457 394.49 17.6457 Q387.806 17.6457 384.16 20.2383 Q380.555 22.8309 380.555 27.611 Q380.555 31.6214 382.945 33.6873 Q385.376 35.7128 392.1 36.9686 L397.042 37.9813 Q406.197 39.7232 410.532 44.1387 Q414.907 48.5136 414.907 55.8863 Q414.907 64.6767 408.992 69.2137 Q403.118 73.7508 391.735 73.7508 Q387.441 73.7508 382.58 72.7785 Q377.76 71.8063 372.575 69.9024 L372.575 61.4765 Q377.557 64.2716 382.337 65.6895 Q387.117 67.1073 391.735 67.1073 Q398.744 67.1073 402.551 64.3527 Q406.359 61.598 406.359 56.4939 Q406.359 52.0379 403.605 49.5264 Q400.89 47.0148 394.652 45.759 L389.669 44.7868 Q380.514 42.9639 376.423 39.075 Q372.332 35.1862 372.332 28.2591 Q372.332 20.2383 377.962 15.6203 Q383.634 11.0023 393.558 11.0023 Q397.812 11.0023 402.227 11.7719 Q406.643 12.5416 411.261 14.0809 Z" fill="#000000" fill-rule="nonzero" fill-opacity="1" /><path clip-path="url(#clip530)" d="M444.924 32.4315 Q438.928 32.4315 435.445 37.1306 Q431.961 41.7891 431.961 49.9314 Q431.961 58.0738 435.404 62.7728 Q438.888 67.4314 444.924 67.4314 Q450.879 67.4314 454.362 62.7323 Q457.846 58.0333 457.846 49.9314 Q457.846 41.8701 454.362 37.1711 Q450.879 32.4315 444.924 32.4315 M444.924 26.1121 Q454.646 26.1121 460.196 32.4315 Q465.745 38.7509 465.745 49.9314 Q465.745 61.0714 460.196 67.4314 Q454.646 73.7508 444.924 73.7508 Q435.161 73.7508 429.611 67.4314 Q424.102 61.0714 424.102 49.9314 Q424.102 38.7509 429.611 32.4315 Q435.161 26.1121 444.924 26.1121 Z" fill="#000000" fill-rule="nonzero" fill-opacity="1" /><path clip-path="url(#clip530)" d="M504.391 34.1734 Q503.135 33.4443 501.636 33.1202 Q500.178 32.7556 498.396 32.7556 Q492.076 32.7556 488.674 36.8875 Q485.311 40.9789 485.311 48.6757 L485.311 72.576 L477.817 72.576 L477.817 27.2059 L485.311 27.2059 L485.311 34.2544 Q487.661 30.1225 491.428 28.1376 Q495.196 26.1121 500.583 26.1121 Q501.353 26.1121 502.285 26.2337 Q503.216 26.3147 504.351 26.5172 L504.391 34.1734 Z" fill="#000000" fill-rule="nonzero" fill-opacity="1" /><path clip-path="url(#clip530)" d="M519.582 14.324 L519.582 27.2059 L534.935 27.2059 L534.935 32.9987 L519.582 32.9987 L519.582 57.6282 Q519.582 63.1779 521.081 64.7578 Q522.62 66.3376 527.279 66.3376 L534.935 66.3376 L534.935 72.576 L527.279 72.576 Q518.65 72.576 515.369 69.3758 Q512.088 66.1351 512.088 57.6282 L512.088 32.9987 L506.619 32.9987 L506.619 27.2059 L512.088 27.2059 L512.088 14.324 L519.582 14.324 Z" fill="#000000" fill-rule="nonzero" fill-opacity="1" /><path clip-path="url(#clip530)" d="M583.546 48.0275 L583.546 51.6733 L549.275 51.6733 Q549.761 59.3701 553.893 63.421 Q558.066 67.4314 565.479 67.4314 Q569.773 67.4314 573.783 66.3781 Q577.834 65.3249 581.804 63.2184 L581.804 70.267 Q577.793 71.9684 573.581 72.8596 Q569.368 73.7508 565.033 73.7508 Q554.177 73.7508 547.817 67.4314 Q541.497 61.1119 541.497 50.3365 Q541.497 39.1965 547.493 32.6746 Q553.529 26.1121 563.737 26.1121 Q572.892 26.1121 578.199 32.0264 Q583.546 37.9003 583.546 48.0275 M576.092 45.84 Q576.011 39.7232 572.649 36.0774 Q569.327 32.4315 563.818 32.4315 Q557.579 32.4315 553.812 35.9558 Q550.085 39.4801 549.518 45.8805 L576.092 45.84 Z" fill="#000000" fill-rule="nonzero" fill-opacity="1" /><path clip-path="url(#clip530)" d="M625.635 34.0924 L625.635 9.54393 L633.088 9.54393 L633.088 72.576 L625.635 72.576 L625.635 65.7705 Q623.285 69.8214 619.68 71.8063 Q616.115 73.7508 611.092 73.7508 Q602.869 73.7508 597.683 67.1883 Q592.539 60.6258 592.539 49.9314 Q592.539 39.2371 597.683 32.6746 Q602.869 26.1121 611.092 26.1121 Q616.115 26.1121 619.68 28.0971 Q623.285 30.0415 625.635 34.0924 M600.235 49.9314 Q600.235 58.1548 603.598 62.8538 Q607 67.5124 612.915 67.5124 Q618.829 67.5124 622.232 62.8538 Q625.635 58.1548 625.635 49.9314 Q625.635 41.7081 622.232 37.0496 Q618.829 32.3505 612.915 32.3505 Q607 32.3505 603.598 37.0496 Q600.235 41.7081 600.235 49.9314 Z" fill="#000000" fill-rule="nonzero" fill-opacity="1" /><path clip-path="url(#clip530)" d="M707.463 28.9478 L707.463 35.9153 Q704.303 34.1734 701.103 33.3227 Q697.943 32.4315 694.703 32.4315 Q687.451 32.4315 683.441 37.0496 Q679.431 41.6271 679.431 49.9314 Q679.431 58.2358 683.441 62.8538 Q687.451 67.4314 694.703 67.4314 Q697.943 67.4314 701.103 66.5807 Q704.303 65.6895 707.463 63.9476 L707.463 70.8341 Q704.344 72.2924 700.981 73.0216 Q697.66 73.7508 693.892 73.7508 Q683.644 73.7508 677.608 67.3098 Q671.572 60.8689 671.572 49.9314 Q671.572 38.832 677.648 32.472 Q683.765 26.1121 694.378 26.1121 Q697.822 26.1121 701.103 26.8413 Q704.384 27.5299 707.463 28.9478 Z" fill="#000000" fill-rule="nonzero" fill-opacity="1" /><path clip-path="url(#clip530)" d="M738.007 32.4315 Q732.011 32.4315 728.528 37.1306 Q725.044 41.7891 725.044 49.9314 Q725.044 58.0738 728.487 62.7728 Q731.971 67.4314 738.007 67.4314 Q743.962 67.4314 747.445 62.7323 Q750.929 58.0333 750.929 49.9314 Q750.929 41.8701 747.445 37.1711 Q743.962 32.4315 738.007 32.4315 M738.007 26.1121 Q747.729 26.1121 753.279 32.4315 Q758.828 38.7509 758.828 49.9314 Q758.828 61.0714 753.279 67.4314 Q747.729 73.7508 738.007 73.7508 Q728.244 73.7508 722.694 67.4314 Q717.185 61.0714 717.185 49.9314 Q717.185 38.7509 722.694 32.4315 Q728.244 26.1121 738.007 26.1121 Z" fill="#000000" fill-rule="nonzero" fill-opacity="1" /><path clip-path="url(#clip530)" d="M800.107 28.5427 L800.107 35.5912 Q796.947 33.9709 793.545 33.1607 Q790.142 32.3505 786.496 32.3505 Q780.946 32.3505 778.151 34.0519 Q775.397 35.7533 775.397 39.156 Q775.397 41.7486 777.382 43.2475 Q779.366 44.7058 785.362 46.0426 L787.914 46.6097 Q795.854 48.3111 799.175 51.4303 Q802.538 54.509 802.538 60.0587 Q802.538 66.3781 797.515 70.0644 Q792.532 73.7508 783.782 73.7508 Q780.136 73.7508 776.166 73.0216 Q772.237 72.3329 767.862 70.9151 L767.862 63.2184 Q771.994 65.3654 776.004 66.4591 Q780.015 67.5124 783.944 67.5124 Q789.21 67.5124 792.046 65.73 Q794.881 63.9071 794.881 60.6258 Q794.881 57.5877 792.815 55.9673 Q790.79 54.3469 783.863 52.8481 L781.27 52.2405 Q774.343 50.7821 771.265 47.7845 Q768.186 44.7463 768.186 39.4801 Q768.186 33.0797 772.723 29.5959 Q777.26 26.1121 785.605 26.1121 Q789.737 26.1121 793.383 26.7198 Q797.028 27.3274 800.107 28.5427 Z" fill="#000000" fill-rule="nonzero" fill-opacity="1" /><path clip-path="url(#clip530)" d="M814.407 27.2059 L821.86 27.2059 L821.86 72.576 L814.407 72.576 L814.407 27.2059 M814.407 9.54393 L821.86 9.54393 L821.86 18.9825 L814.407 18.9825 L814.407 9.54393 Z" fill="#000000" fill-rule="nonzero" fill-opacity="1" /><path clip-path="url(#clip530)" d="M875.17 45.1919 L875.17 72.576 L867.717 72.576 L867.717 45.4349 Q867.717 38.994 865.205 35.7938 Q862.694 32.5936 857.67 32.5936 Q851.635 32.5936 848.151 36.4419 Q844.667 40.2903 844.667 46.9338 L844.667 72.576 L837.173 72.576 L837.173 27.2059 L844.667 27.2059 L844.667 34.2544 Q847.341 30.163 850.946 28.1376 Q854.592 26.1121 859.331 26.1121 Q867.15 26.1121 871.16 30.9732 Q875.17 35.7938 875.17 45.1919 Z" fill="#000000" fill-rule="nonzero" fill-opacity="1" /><path clip-path="url(#clip530)" d="M928.845 48.0275 L928.845 51.6733 L894.574 51.6733 Q895.06 59.3701 899.192 63.421 Q903.365 67.4314 910.778 67.4314 Q915.072 67.4314 919.082 66.3781 Q923.133 65.3249 927.103 63.2184 L927.103 70.267 Q923.093 71.9684 918.88 72.8596 Q914.667 73.7508 910.332 73.7508 Q899.476 73.7508 893.116 67.4314 Q886.796 61.1119 886.796 50.3365 Q886.796 39.1965 892.792 32.6746 Q898.828 26.1121 909.036 26.1121 Q918.191 26.1121 923.498 32.0264 Q928.845 37.9003 928.845 48.0275 M921.391 45.84 Q921.31 39.7232 917.948 36.0774 Q914.626 32.4315 909.117 32.4315 Q902.879 32.4315 899.111 35.9558 Q895.384 39.4801 894.817 45.8805 L921.391 45.84 Z" fill="#000000" fill-rule="nonzero" fill-opacity="1" /><path clip-path="url(#clip530)" d="M996.373 28.5427 L996.373 35.5912 Q993.214 33.9709 989.811 33.1607 Q986.408 32.3505 982.762 32.3505 Q977.213 32.3505 974.418 34.0519 Q971.663 35.7533 971.663 39.156 Q971.663 41.7486 973.648 43.2475 Q975.633 44.7058 981.628 46.0426 L984.18 46.6097 Q992.12 48.3111 995.442 51.4303 Q998.804 54.509 998.804 60.0587 Q998.804 66.3781 993.781 70.0644 Q988.798 73.7508 980.048 73.7508 Q976.402 73.7508 972.433 73.0216 Q968.503 72.3329 964.128 70.9151 L964.128 63.2184 Q968.26 65.3654 972.271 66.4591 Q976.281 67.5124 980.21 67.5124 Q985.476 67.5124 988.312 65.73 Q991.148 63.9071 991.148 60.6258 Q991.148 57.5877 989.082 55.9673 Q987.056 54.3469 980.129 52.8481 L977.537 52.2405 Q970.61 50.7821 967.531 47.7845 Q964.452 44.7463 964.452 39.4801 Q964.452 33.0797 968.989 29.5959 Q973.526 26.1121 981.871 26.1121 Q986.003 26.1121 989.649 26.7198 Q993.295 27.3274 996.373 28.5427 Z" fill="#000000" fill-rule="nonzero" fill-opacity="1" /><path clip-path="url(#clip530)" d="M1010.67 27.2059 L1018.13 27.2059 L1018.13 72.576 L1010.67 72.576 L1010.67 27.2059 M1010.67 9.54393 L1018.13 9.54393 L1018.13 18.9825 L1010.67 18.9825 L1010.67 9.54393 Z" fill="#000000" fill-rule="nonzero" fill-opacity="1" /><path clip-path="url(#clip530)" d="M1069.05 35.9153 Q1071.84 30.8922 1075.73 28.5022 Q1079.62 26.1121 1084.89 26.1121 Q1091.97 26.1121 1095.82 31.0947 Q1099.67 36.0368 1099.67 45.1919 L1099.67 72.576 L1092.18 72.576 L1092.18 45.4349 Q1092.18 38.913 1089.87 35.7533 Q1087.56 32.5936 1082.82 32.5936 Q1077.03 32.5936 1073.66 36.4419 Q1070.3 40.2903 1070.3 46.9338 L1070.3 72.576 L1062.81 72.576 L1062.81 45.4349 Q1062.81 38.8725 1060.5 35.7533 Q1058.19 32.5936 1053.37 32.5936 Q1047.66 32.5936 1044.3 36.4824 Q1040.93 40.3308 1040.93 46.9338 L1040.93 72.576 L1033.44 72.576 L1033.44 27.2059 L1040.93 27.2059 L1040.93 34.2544 Q1043.49 30.082 1047.05 28.0971 Q1050.62 26.1121 1055.52 26.1121 Q1060.46 26.1121 1063.9 28.6237 Q1067.39 31.1352 1069.05 35.9153 Z" fill="#000000" fill-rule="nonzero" fill-opacity="1" /><path clip-path="url(#clip530)" d="M1114.54 27.2059 L1121.99 27.2059 L1121.99 72.576 L1114.54 72.576 L1114.54 27.2059 M1114.54 9.54393 L1121.99 9.54393 L1121.99 18.9825 L1114.54 18.9825 L1114.54 9.54393 Z" fill="#000000" fill-rule="nonzero" fill-opacity="1" /><path clip-path="url(#clip530)" d="M1137.59 9.54393 L1145.04 9.54393 L1145.04 72.576 L1137.59 72.576 L1137.59 9.54393 Z" fill="#000000" fill-rule="nonzero" fill-opacity="1" /><path clip-path="url(#clip530)" d="M1181.26 49.7694 Q1172.22 49.7694 1168.74 51.8354 Q1165.26 53.9013 1165.26 58.8839 Q1165.26 62.8538 1167.85 65.2034 Q1170.48 67.5124 1174.98 67.5124 Q1181.18 67.5124 1184.9 63.1374 Q1188.67 58.7219 1188.67 51.4303 L1188.67 49.7694 L1181.26 49.7694 M1196.12 46.6907 L1196.12 72.576 L1188.67 72.576 L1188.67 65.6895 Q1186.12 69.8214 1182.31 71.8063 Q1178.5 73.7508 1172.99 73.7508 Q1166.03 73.7508 1161.89 69.8619 Q1157.8 65.9325 1157.8 59.3701 Q1157.8 51.7138 1162.91 47.825 Q1168.05 43.9361 1178.22 43.9361 L1188.67 43.9361 L1188.67 43.2069 Q1188.67 38.0623 1185.27 35.2672 Q1181.9 32.4315 1175.79 32.4315 Q1171.9 32.4315 1168.21 33.3632 Q1164.53 34.295 1161.12 36.1584 L1161.12 29.2718 Q1165.22 27.692 1169.06 26.9223 Q1172.91 26.1121 1176.56 26.1121 Q1186.4 26.1121 1191.26 31.2163 Q1196.12 36.3204 1196.12 46.6907 Z" fill="#000000" fill-rule="nonzero" fill-opacity="1" /><path clip-path="url(#clip530)" d="M1237.77 34.1734 Q1236.51 33.4443 1235.01 33.1202 Q1233.55 32.7556 1231.77 32.7556 Q1225.45 32.7556 1222.05 36.8875 Q1218.69 40.9789 1218.69 48.6757 L1218.69 72.576 L1211.19 72.576 L1211.19 27.2059 L1218.69 27.2059 L1218.69 34.2544 Q1221.04 30.1225 1224.8 28.1376 Q1228.57 26.1121 1233.96 26.1121 Q1234.73 26.1121 1235.66 26.2337 Q1236.59 26.3147 1237.73 26.5172 L1237.77 34.1734 Z" fill="#000000" fill-rule="nonzero" fill-opacity="1" /><path clip-path="url(#clip530)" d="M1245.59 27.2059 L1253.04 27.2059 L1253.04 72.576 L1245.59 72.576 L1245.59 27.2059 M1245.59 9.54393 L1253.04 9.54393 L1253.04 18.9825 L1245.59 18.9825 L1245.59 9.54393 Z" fill="#000000" fill-rule="nonzero" fill-opacity="1" /><path clip-path="url(#clip530)" d="M1276.01 14.324 L1276.01 27.2059 L1291.36 27.2059 L1291.36 32.9987 L1276.01 32.9987 L1276.01 57.6282 Q1276.01 63.1779 1277.51 64.7578 Q1279.05 66.3376 1283.7 66.3376 L1291.36 66.3376 L1291.36 72.576 L1283.7 72.576 Q1275.08 72.576 1271.79 69.3758 Q1268.51 66.1351 1268.51 57.6282 L1268.51 32.9987 L1263.04 32.9987 L1263.04 27.2059 L1268.51 27.2059 L1268.51 14.324 L1276.01 14.324 Z" fill="#000000" fill-rule="nonzero" fill-opacity="1" /><path clip-path="url(#clip530)" d="M1301.16 27.2059 L1308.62 27.2059 L1308.62 72.576 L1301.16 72.576 L1301.16 27.2059 M1301.16 9.54393 L1308.62 9.54393 L1308.62 18.9825 L1301.16 18.9825 L1301.16 9.54393 Z" fill="#000000" fill-rule="nonzero" fill-opacity="1" /><path clip-path="url(#clip530)" d="M1363.02 48.0275 L1363.02 51.6733 L1328.75 51.6733 Q1329.24 59.3701 1333.37 63.421 Q1337.54 67.4314 1344.95 67.4314 Q1349.25 67.4314 1353.26 66.3781 Q1357.31 65.3249 1361.28 63.2184 L1361.28 70.267 Q1357.27 71.9684 1353.06 72.8596 Q1348.84 73.7508 1344.51 73.7508 Q1333.65 73.7508 1327.29 67.4314 Q1320.97 61.1119 1320.97 50.3365 Q1320.97 39.1965 1326.97 32.6746 Q1333 26.1121 1343.21 26.1121 Q1352.37 26.1121 1357.67 32.0264 Q1363.02 37.9003 1363.02 48.0275 M1355.57 45.84 Q1355.49 39.7232 1352.12 36.0774 Q1348.8 32.4315 1343.29 32.4315 Q1337.05 32.4315 1333.29 35.9558 Q1329.56 39.4801 1328.99 45.8805 L1355.57 45.84 Z" fill="#000000" fill-rule="nonzero" fill-opacity="1" /><path clip-path="url(#clip530)" d="M1404.18 28.5427 L1404.18 35.5912 Q1401.02 33.9709 1397.62 33.1607 Q1394.21 32.3505 1390.57 32.3505 Q1385.02 32.3505 1382.22 34.0519 Q1379.47 35.7533 1379.47 39.156 Q1379.47 41.7486 1381.45 43.2475 Q1383.44 44.7058 1389.43 46.0426 L1391.98 46.6097 Q1399.92 48.3111 1403.25 51.4303 Q1406.61 54.509 1406.61 60.0587 Q1406.61 66.3781 1401.59 70.0644 Q1396.6 73.7508 1387.85 73.7508 Q1384.21 73.7508 1380.24 73.0216 Q1376.31 72.3329 1371.93 70.9151 L1371.93 63.2184 Q1376.06 65.3654 1380.08 66.4591 Q1384.09 67.5124 1388.01 67.5124 Q1393.28 67.5124 1396.12 65.73 Q1398.95 63.9071 1398.95 60.6258 Q1398.95 57.5877 1396.89 55.9673 Q1394.86 54.3469 1387.93 52.8481 L1385.34 52.2405 Q1378.41 50.7821 1375.34 47.7845 Q1372.26 44.7463 1372.26 39.4801 Q1372.26 33.0797 1376.79 29.5959 Q1381.33 26.1121 1389.68 26.1121 Q1393.81 26.1121 1397.45 26.7198 Q1401.1 27.3274 1404.18 28.5427 Z" fill="#000000" fill-rule="nonzero" fill-opacity="1" /><path clip-path="url(#clip530)" d="M1477.5 28.9478 L1477.5 35.9153 Q1474.34 34.1734 1471.14 33.3227 Q1467.98 32.4315 1464.74 32.4315 Q1457.49 32.4315 1453.48 37.0496 Q1449.47 41.6271 1449.47 49.9314 Q1449.47 58.2358 1453.48 62.8538 Q1457.49 67.4314 1464.74 67.4314 Q1467.98 67.4314 1471.14 66.5807 Q1474.34 65.6895 1477.5 63.9476 L1477.5 70.8341 Q1474.38 72.2924 1471.02 73.0216 Q1467.7 73.7508 1463.93 73.7508 Q1453.68 73.7508 1447.64 67.3098 Q1441.61 60.8689 1441.61 49.9314 Q1441.61 38.832 1447.68 32.472 Q1453.8 26.1121 1464.41 26.1121 Q1467.86 26.1121 1471.14 26.8413 Q1474.42 27.5299 1477.5 28.9478 Z" fill="#000000" fill-rule="nonzero" fill-opacity="1" /><path clip-path="url(#clip530)" d="M1529.27 48.0275 L1529.27 51.6733 L1495 51.6733 Q1495.49 59.3701 1499.62 63.421 Q1503.79 67.4314 1511.2 67.4314 Q1515.5 67.4314 1519.51 66.3781 Q1523.56 65.3249 1527.53 63.2184 L1527.53 70.267 Q1523.52 71.9684 1519.3 72.8596 Q1515.09 73.7508 1510.76 73.7508 Q1499.9 73.7508 1493.54 67.4314 Q1487.22 61.1119 1487.22 50.3365 Q1487.22 39.1965 1493.22 32.6746 Q1499.25 26.1121 1509.46 26.1121 Q1518.62 26.1121 1523.92 32.0264 Q1529.27 37.9003 1529.27 48.0275 M1521.82 45.84 Q1521.74 39.7232 1518.37 36.0774 Q1515.05 32.4315 1509.54 32.4315 Q1503.3 32.4315 1499.54 35.9558 Q1495.81 39.4801 1495.24 45.8805 L1521.82 45.84 Z" fill="#000000" fill-rule="nonzero" fill-opacity="1" /><path clip-path="url(#clip530)" d="M1541.5 9.54393 L1548.96 9.54393 L1548.96 72.576 L1541.5 72.576 L1541.5 9.54393 Z" fill="#000000" fill-rule="nonzero" fill-opacity="1" /><path clip-path="url(#clip530)" d="M1564.55 9.54393 L1572.01 9.54393 L1572.01 72.576 L1564.55 72.576 L1564.55 9.54393 Z" fill="#000000" fill-rule="nonzero" fill-opacity="1" /><path clip-path="url(#clip530)" d="M1616.45 65.6895 L1629.81 65.6895 L1629.81 19.5497 L1615.27 22.4663 L1615.27 15.0127 L1629.73 12.096 L1637.92 12.096 L1637.92 65.6895 L1651.28 65.6895 L1651.28 72.576 L1616.45 72.576 L1616.45 65.6895 Z" fill="#000000" fill-rule="nonzero" fill-opacity="1" /><path clip-path="url(#clip530)" d="M1685.31 17.4837 Q1678.99 17.4837 1675.79 23.7221 Q1672.63 29.92 1672.63 42.3968 Q1672.63 54.833 1675.79 61.0714 Q1678.99 67.2693 1685.31 67.2693 Q1691.67 67.2693 1694.83 61.0714 Q1698.03 54.833 1698.03 42.3968 Q1698.03 29.92 1694.83 23.7221 Q1691.67 17.4837 1685.31 17.4837 M1685.31 11.0023 Q1695.48 11.0023 1700.83 19.0636 Q1706.21 27.0843 1706.21 42.3968 Q1706.21 57.6687 1700.83 65.73 Q1695.48 73.7508 1685.31 73.7508 Q1675.14 73.7508 1669.76 65.73 Q1664.41 57.6687 1664.41 42.3968 Q1664.41 27.0843 1669.76 19.0636 Q1675.14 11.0023 1685.31 11.0023 Z" fill="#000000" fill-rule="nonzero" fill-opacity="1" /><path clip-path="url(#clip530)" d="M1722.01 65.6895 L1735.38 65.6895 L1735.38 19.5497 L1720.84 22.4663 L1720.84 15.0127 L1735.3 12.096 L1743.48 12.096 L1743.48 65.6895 L1756.85 65.6895 L1756.85 72.576 L1722.01 72.576 L1722.01 65.6895 Z" fill="#000000" fill-rule="nonzero" fill-opacity="1" /><path clip-path="url(#clip530)" d="M1798.7 27.2059 L1806.15 27.2059 L1806.15 72.576 L1798.7 72.576 L1798.7 27.2059 M1798.7 9.54393 L1806.15 9.54393 L1806.15 18.9825 L1798.7 18.9825 L1798.7 9.54393 Z" fill="#000000" fill-rule="nonzero" fill-opacity="1" /><path clip-path="url(#clip530)" d="M1829.12 14.324 L1829.12 27.2059 L1844.47 27.2059 L1844.47 32.9987 L1829.12 32.9987 L1829.12 57.6282 Q1829.12 63.1779 1830.62 64.7578 Q1832.16 66.3376 1836.81 66.3376 L1844.47 66.3376 L1844.47 72.576 L1836.81 72.576 Q1828.19 72.576 1824.9 69.3758 Q1821.62 66.1351 1821.62 57.6282 L1821.62 32.9987 L1816.15 32.9987 L1816.15 27.2059 L1821.62 27.2059 L1821.62 14.324 L1829.12 14.324 Z" fill="#000000" fill-rule="nonzero" fill-opacity="1" /><path clip-path="url(#clip530)" d="M1893.08 48.0275 L1893.08 51.6733 L1858.81 51.6733 Q1859.3 59.3701 1863.43 63.421 Q1867.6 67.4314 1875.01 67.4314 Q1879.31 67.4314 1883.32 66.3781 Q1887.37 65.3249 1891.34 63.2184 L1891.34 70.267 Q1887.33 71.9684 1883.12 72.8596 Q1878.9 73.7508 1874.57 73.7508 Q1863.71 73.7508 1857.35 67.4314 Q1851.03 61.1119 1851.03 50.3365 Q1851.03 39.1965 1857.03 32.6746 Q1863.06 26.1121 1873.27 26.1121 Q1882.43 26.1121 1887.73 32.0264 Q1893.08 37.9003 1893.08 48.0275 M1885.63 45.84 Q1885.55 39.7232 1882.18 36.0774 Q1878.86 32.4315 1873.35 32.4315 Q1867.12 32.4315 1863.35 35.9558 Q1859.62 39.4801 1859.05 45.8805 L1885.63 45.84 Z" fill="#000000" fill-rule="nonzero" fill-opacity="1" /><path clip-path="url(#clip530)" d="M1931.61 34.1734 Q1930.35 33.4443 1928.85 33.1202 Q1927.39 32.7556 1925.61 32.7556 Q1919.29 32.7556 1915.89 36.8875 Q1912.53 40.9789 1912.53 48.6757 L1912.53 72.576 L1905.03 72.576 L1905.03 27.2059 L1912.53 27.2059 L1912.53 34.2544 Q1914.88 30.1225 1918.64 28.1376 Q1922.41 26.1121 1927.8 26.1121 Q1928.57 26.1121 1929.5 26.2337 Q1930.43 26.3147 1931.57 26.5172 L1931.61 34.1734 Z" fill="#000000" fill-rule="nonzero" fill-opacity="1" /><path clip-path="url(#clip530)" d="M1960.04 49.7694 Q1951.01 49.7694 1947.53 51.8354 Q1944.04 53.9013 1944.04 58.8839 Q1944.04 62.8538 1946.63 65.2034 Q1949.27 67.5124 1953.76 67.5124 Q1959.96 67.5124 1963.69 63.1374 Q1967.46 58.7219 1967.46 51.4303 L1967.46 49.7694 L1960.04 49.7694 M1974.91 46.6907 L1974.91 72.576 L1967.46 72.576 L1967.46 65.6895 Q1964.9 69.8214 1961.1 71.8063 Q1957.29 73.7508 1951.78 73.7508 Q1944.81 73.7508 1940.68 69.8619 Q1936.59 65.9325 1936.59 59.3701 Q1936.59 51.7138 1941.69 47.825 Q1946.84 43.9361 1957 43.9361 L1967.46 43.9361 L1967.46 43.2069 Q1967.46 38.0623 1964.05 35.2672 Q1960.69 32.4315 1954.57 32.4315 Q1950.69 32.4315 1947 33.3632 Q1943.31 34.295 1939.91 36.1584 L1939.91 29.2718 Q1944 27.692 1947.85 26.9223 Q1951.7 26.1121 1955.34 26.1121 Q1965.19 26.1121 1970.05 31.2163 Q1974.91 36.3204 1974.91 46.6907 Z" fill="#000000" fill-rule="nonzero" fill-opacity="1" /><path clip-path="url(#clip530)" d="M1997.64 14.324 L1997.64 27.2059 L2012.99 27.2059 L2012.99 32.9987 L1997.64 32.9987 L1997.64 57.6282 Q1997.64 63.1779 1999.13 64.7578 Q2000.67 66.3376 2005.33 66.3376 L2012.99 66.3376 L2012.99 72.576 L2005.33 72.576 Q1996.7 72.576 1993.42 69.3758 Q1990.14 66.1351 1990.14 57.6282 L1990.14 32.9987 L1984.67 32.9987 L1984.67 27.2059 L1990.14 27.2059 L1990.14 14.324 L1997.64 14.324 Z" fill="#000000" fill-rule="nonzero" fill-opacity="1" /><path clip-path="url(#clip530)" d="M2022.79 27.2059 L2030.25 27.2059 L2030.25 72.576 L2022.79 72.576 L2022.79 27.2059 M2022.79 9.54393 L2030.25 9.54393 L2030.25 18.9825 L2022.79 18.9825 L2022.79 9.54393 Z" fill="#000000" fill-rule="nonzero" fill-opacity="1" /><path clip-path="url(#clip530)" d="M2063.42 32.4315 Q2057.43 32.4315 2053.94 37.1306 Q2050.46 41.7891 2050.46 49.9314 Q2050.46 58.0738 2053.9 62.7728 Q2057.39 67.4314 2063.42 67.4314 Q2069.38 67.4314 2072.86 62.7323 Q2076.34 58.0333 2076.34 49.9314 Q2076.34 41.8701 2072.86 37.1711 Q2069.38 32.4315 2063.42 32.4315 M2063.42 26.1121 Q2073.14 26.1121 2078.69 32.4315 Q2084.24 38.7509 2084.24 49.9314 Q2084.24 61.0714 2078.69 67.4314 Q2073.14 73.7508 2063.42 73.7508 Q2053.66 73.7508 2048.11 67.4314 Q2042.6 61.0714 2042.6 49.9314 Q2042.6 38.7509 2048.11 32.4315 Q2053.66 26.1121 2063.42 26.1121 Z" fill="#000000" fill-rule="nonzero" fill-opacity="1" /><path clip-path="url(#clip530)" d="M2134.31 45.1919 L2134.31 72.576 L2126.86 72.576 L2126.86 45.4349 Q2126.86 38.994 2124.35 35.7938 Q2121.84 32.5936 2116.81 32.5936 Q2110.78 32.5936 2107.29 36.4419 Q2103.81 40.2903 2103.81 46.9338 L2103.81 72.576 L2096.32 72.576 L2096.32 27.2059 L2103.81 27.2059 L2103.81 34.2544 Q2106.48 30.163 2110.09 28.1376 Q2113.73 26.1121 2118.47 26.1121 Q2126.29 26.1121 2130.3 30.9732 Q2134.31 35.7938 2134.31 45.1919 Z" fill="#000000" fill-rule="nonzero" fill-opacity="1" /><path clip-path="url(#clip530)" d="M2183.65 65.6895 L2212.21 65.6895 L2212.21 72.576 L2173.81 72.576 L2173.81 65.6895 Q2178.47 60.8689 2186.49 52.7671 Q2194.55 44.6248 2196.62 42.2752 Q2200.55 37.8598 2202.08 34.8216 Q2203.66 31.7429 2203.66 28.7857 Q2203.66 23.9651 2200.26 20.927 Q2196.9 17.8888 2191.47 17.8888 Q2187.62 17.8888 2183.33 19.2256 Q2179.08 20.5624 2174.21 23.2765 L2174.21 15.0127 Q2179.16 13.0277 2183.45 12.015 Q2187.74 11.0023 2191.31 11.0023 Q2200.71 11.0023 2206.3 15.7013 Q2211.89 20.4004 2211.89 28.2591 Q2211.89 31.9859 2210.47 35.3482 Q2209.09 38.6699 2205.41 43.2069 Q2204.39 44.3817 2198.97 50.0125 Q2193.54 55.6027 2183.65 65.6895 Z" fill="#000000" fill-rule="nonzero" fill-opacity="1" /><path clip-path="url(#clip530)" d="M2246.89 17.4837 Q2240.57 17.4837 2237.37 23.7221 Q2234.21 29.92 2234.21 42.3968 Q2234.21 54.833 2237.37 61.0714 Q2240.57 67.2693 2246.89 67.2693 Q2253.25 67.2693 2256.41 61.0714 Q2259.61 54.833 2259.61 42.3968 Q2259.61 29.92 2256.41 23.7221 Q2253.25 17.4837 2246.89 17.4837 M2246.89 11.0023 Q2257.06 11.0023 2262.4 19.0636 Q2267.79 27.0843 2267.79 42.3968 Q2267.79 57.6687 2262.4 65.73 Q2257.06 73.7508 2246.89 73.7508 Q2236.72 73.7508 2231.33 65.73 Q2225.98 57.6687 2225.98 42.3968 Q2225.98 27.0843 2231.33 19.0636 Q2236.72 11.0023 2246.89 11.0023 Z" fill="#000000" fill-rule="nonzero" fill-opacity="1" /><polyline clip-path="url(#clip532)" style="stroke:#009af9; stroke-linecap:round; stroke-linejoin:round; stroke-width:4; stroke-opacity:1; fill:none" points="345.82,1386.4 347.771,1367.98 349.721,1367.76 351.672,1358.23 353.622,1353.52 355.572,1351.08 357.523,1350.55 359.473,1343.74 361.424,1343.2 363.374,1343.04 365.325,1341.4 367.275,1340.96 369.226,1340.07 371.176,1340.05 373.126,1339.96 375.077,1335.46 377.027,1334.45 378.978,1333.9 380.928,1332.9 382.879,1332.48 384.829,1330.62 386.779,1330.38 388.73,1328.86 390.68,1326.54 392.631,1326.53 394.581,1325.22 396.532,1324.53 398.482,1324.46 400.432,1324.41 402.383,1324.18 404.333,1324.03 406.284,1323.52 408.234,1323.49 410.185,1323.38 412.135,1323.22 414.085,1322.7 416.036,1321.85 417.986,1321.8 419.937,1321.44 421.887,1320.4 423.838,1319.7 425.788,1319.66 427.738,1318.84 429.689,1318.75 431.639,1317.03 433.59,1316.4 435.54,1315.16 437.491,1314.93 439.441,1314.87 441.391,1314.78 443.342,1314.77 445.292,1314.57 447.243,1314.25 449.193,1314.01 451.144,1313.86 453.094,1313.62 455.045,1313.61 456.995,1313.49 458.945,1313.46 460.896,1313.4 462.846,1313.38 464.797,1313.29 466.747,1313.26 468.698,1313.25 470.648,1313.22 472.598,1313 474.549,1312.85 476.499,1312.85 478.45,1312.79 480.4,1312.71 482.351,1312.43 484.301,1312.1 486.251,1311.96 488.202,1311.95 490.152,1311.81 492.103,1311.71 494.053,1311.68 496.004,1311.58 497.954,1311.47 499.904,1311.46 501.855,1311.17 503.805,1310.89 505.756,1309.84 507.706,1308.88 509.657,1308.52 511.607,1307.85 513.557,1307.4 515.508,1307.16 517.458,1307.03 519.409,1306.78 521.359,1306.37 523.31,1306.35 525.26,1306.02 527.21,1306 529.161,1305.77 531.111,1305.51 533.062,1305.31 535.012,1304.45 536.963,1304.31 538.913,1304.07 540.863,1303.55 542.814,1303.18 544.764,1302.98 546.715,1302.93 548.665,1302.86 550.616,1302.72 552.566,1302.57 554.517,1302.5 556.467,1302.46 558.417,1302.09 560.368,1301.81 562.318,1301.2 564.269,1301.16 566.219,1300.76 568.17,1300.25 570.12,1299.87 572.07,1299.68 574.021,1299.64 575.971,1299.46 577.922,1298.19 579.872,1297.88 581.823,1297.16 583.773,1296.84 585.723,1296.28 587.674,1295.68 589.624,1295.58 591.575,1294.85 593.525,1294.33 595.476,1293.93 597.426,1292.66 599.376,1292.23 601.327,1291.9 603.277,1291.56 605.228,1291.22 607.178,1290.78 609.129,1290.69 611.079,1290.17 613.029,1289.31 614.98,1287.79 616.93,1287.55 618.881,1287.19 620.831,1286.94 622.782,1286.62 624.732,1286.44 626.682,1286.18 628.633,1285.35 630.583,1285.3 632.534,1284.09 634.484,1283.53 636.435,1283.44 638.385,1283.39 640.336,1283.11 642.286,1281.66 644.236,1279.35 646.187,1278.92 648.137,1278.8 650.088,1278.45 652.038,1277.54 653.989,1276.4 655.939,1275.49 657.889,1274.99 659.84,1274.85 661.79,1274.21 663.741,1274.14 665.691,1273.85 667.642,1273.56 669.592,1273.24 671.542,1271.21 673.493,1268.89 675.443,1268.62 677.394,1266.67 679.344,1266.57 681.295,1264.16 683.245,1264.13 685.195,1263.06 687.146,1263.03 689.096,1261.76 691.047,1261.19 692.997,1261 694.948,1260.71 696.898,1259.98 698.848,1259.91 700.799,1258.4 702.749,1257.01 704.7,1256.2 706.65,1255.82 708.601,1255.45 710.551,1254.85 712.501,1254.32 714.452,1254.29 716.402,1251.92 718.353,1251.25 720.303,1250.53 722.254,1250.41 724.204,1250.29 726.154,1250.26 728.105,1244.63 730.055,1244.49 732.006,1242.73 733.956,1242.18 735.907,1236.99 737.857,1236.49 739.808,1236.19 741.758,1234.6 743.708,1234.55 745.659,1232.07 747.609,1228.72 749.56,1226.87 751.51,1226.02 753.461,1223.16 755.411,1220.65 757.361,1219.89 759.312,1213.08 761.262,1209.73 763.213,1208.07 765.163,1207.71 767.114,1207.04 769.064,1206.66 771.014,1204.46 772.965,1204.2 774.915,1202.44 776.866,1198.08 778.816,1197.21 780.767,1194.26 782.717,1193.02 784.667,1192.45 786.618,1189.04 788.568,1187.12 790.519,1182.22 792.469,1180.06 794.42,1179.48 796.37,1177.18 798.32,1175.75 800.271,1174.34 802.221,1170.89 804.172,1170.82 806.122,1169.21 808.073,1168.79 810.023,1168.56 811.973,1168.39 813.924,1167.91 815.874,1167.24 817.825,1163.44 819.775,1163.43 821.726,1163.03 823.676,1162.32 825.627,1157.9 827.577,1157.62 829.527,1157.13 831.478,1155.84 833.428,1155.24 835.379,1154.32 837.329,1152.76 839.28,1151.14 841.23,1146.94 843.18,1146.11 845.131,1144.86 847.081,1140.88 849.032,1139.23 850.982,1138.41 852.933,1137.03 854.883,1132.54 856.833,1132.14 858.784,1130.87 860.734,1129.94 862.685,1124.71 864.635,1124.39 866.586,1122.87 868.536,1120.67 870.486,1116.81 872.437,1116.8 874.387,1116.28 876.338,1115.89 878.288,1115.07 880.239,1113.43 882.189,1113.25 884.139,1111.49 886.09,1111.19 888.04,1110.24 889.991,1110.05 891.941,1108.28 893.892,1108.11 895.842,1106.91 897.792,1105.58 899.743,1105.55 901.693,1105.24 903.644,1105.13 905.594,1102.39 907.545,1100.02 909.495,1099.55 911.445,1099.03 913.396,1097.87 915.346,1097.26 917.297,1095.86 919.247,1094.89 921.198,1088.73 923.148,1088.52 925.099,1085.2 927.049,1084.46 928.999,1084.17 930.95,1081.93 932.9,1081.1 934.851,1080.42 936.801,1078.75 938.752,1078.16 940.702,1077.34 942.652,1077.31 944.603,1076.83 946.553,1075.65 948.504,1074.78 950.454,1074.38 952.405,1073.19 954.355,1072.48 956.305,1071.8 958.256,1071.68 960.206,1070.56 962.157,1070.12 964.107,1069.64 966.058,1068.81 968.008,1067.89 969.958,1067.7 971.909,1067.25 973.859,1067.09 975.81,1067.05 977.76,1065.75 979.711,1063.73 981.661,1062.27 983.611,1060.13 985.562,1059.92 987.512,1057.69 989.463,1057.5 991.413,1056.95 993.364,1054.97 995.314,1054.33 997.264,1053.84 999.215,1051.12 1001.17,1050.11 1003.12,1049.41 1005.07,1048.81 1007.02,1045.27 1008.97,1045.22 1010.92,1044.87 1012.87,1044.66 1014.82,1043.19 1016.77,1038.52 1018.72,1038.27 1020.67,1036.74 1022.62,1036.18 1024.57,1035.94 1026.52,1034.05 1028.47,1033.94 1030.42,1033.67 1032.37,1029.92 1034.32,1029.63 1036.27,1028.43 1038.22,1027.62 1040.17,1026.33 1042.12,1025.81 1044.07,1024.8 1046.03,1023.95 1047.98,1022.76 1049.93,1020.8 1051.88,1020.5 1053.83,1019.06 1055.78,1017.85 1057.73,1017.65 1059.68,1017.55 1061.63,1016.95 1063.58,1016.42 1065.53,1014.56 1067.48,1013.89 1069.43,1013.3 1071.38,1012.82 1073.33,1007.51 1075.28,1006.48 1077.23,1006.22 1079.18,1005.25 1081.13,1004.12 1083.08,1003.96 1085.03,1003.39 1086.98,1003.31 1088.93,1001.84 1090.89,998.083 1092.84,997.963 1094.79,997.5 1096.74,996.102 1098.69,994.8 1100.64,992.454 1102.59,990.071 1104.54,988.578 1106.49,987.866 1108.44,987.254 1110.39,986.179 1112.34,985.897 1114.29,984.523 1116.24,984.102 1118.19,982.729 1120.14,981.253 1122.09,980.961 1124.04,980.805 1125.99,980.433 1127.94,977.993 1129.89,977.099 1131.84,976.959 1133.79,976.908 1135.75,976.021 1137.7,974.355 1139.65,973.784 1141.6,973.26 1143.55,972.011 1145.5,970.94 1147.45,970.194 1149.4,969.818 1151.35,968.711 1153.3,968.351 1155.25,967.82 1157.2,967.168 1159.15,966.569 1161.1,966.535 1163.05,966.199 1165,966.19 1166.95,966.059 1168.9,965.906 1170.85,965.587 1172.8,965.352 1174.75,964.007 1176.7,963.789 1178.65,963.062 1180.61,962.31 1182.56,961.622 1184.51,960.914 1186.46,958.415 1188.41,958.371 1190.36,955.876 1192.31,954.752 1194.26,954.359 1196.21,954.193 1198.16,952.591 1200.11,951.667 1202.06,949.986 1204.01,949.854 1205.96,949.602 1207.91,948.01 1209.86,946.663 1211.81,943.156 1213.76,941.477 1215.71,940.616 1217.66,939.938 1219.61,937.58 1221.56,935.038 1223.51,932.931 1225.46,932.213 1227.42,930.759 1229.37,930.1 1231.32,925.072 1233.27,924.783 1235.22,924.649 1237.17,924.587 1239.12,923.329 1241.07,922.174 1243.02,921.936 1244.97,920.445 1246.92,920.296 1248.87,919.99 1250.82,919.24 1252.77,918.697 1254.72,918.557 1256.67,918.126 1258.62,917.229 1260.57,916.157 1262.52,915.666 1264.47,915.271 1266.42,914.168 1268.37,912.993 1270.32,910.009 1272.28,908.895 1274.23,908.708 1276.18,907.008 1278.13,906.709 1280.08,906.706 1282.03,905.616 1283.98,904.749 1285.93,904.188 1287.88,903.609 1289.83,903.606 1291.78,903.358 1293.73,903.289 1295.68,902.282 1297.63,901.996 1299.58,901.838 1301.53,901.103 1303.48,901.083 1305.43,900.576 1307.38,900.35 1309.33,900.316 1311.28,899.179 1313.23,898.913 1315.18,898.628 1317.14,898.507 1319.09,898.185 1321.04,898.163 1322.99,896.59 1324.94,894.926 1326.89,893.908 1328.84,892.707 1330.79,891.727 1332.74,891.543 1334.69,891.155 1336.64,891.1 1338.59,891.066 1340.54,890.559 1342.49,890.468 1344.44,890.422 1346.39,890.394 1348.34,889.513 1350.29,888.93 1352.24,888.252 1354.19,886.538 1356.14,886.352 1358.09,886.337 1360.04,886.234 1362,886.209 1363.95,885.921 1365.9,885.23 1367.85,884.389 1369.8,884.091 1371.75,883.284 1373.7,881.924 1375.65,881.531 1377.6,880.819 1379.55,880.432 1381.5,880.097 1383.45,879.299 1385.4,879.189 1387.35,878.799 1389.3,878.794 1391.25,878.651 1393.2,876.918 1395.15,876.734 1397.1,876.232 1399.05,875.214 1401,875.037 1402.95,874.822 1404.9,874.33 1406.86,873.459 1408.81,873.165 1410.76,872.947 1412.71,872.909 1414.66,872.26 1416.61,871.631 1418.56,870.148 1420.51,869.897 1422.46,869.199 1424.41,868.989 1426.36,868.546 1428.31,868.453 1430.26,868.405 1432.21,867.97 1434.16,867.523 1436.11,867.323 1438.06,866.873 1440.01,866.381 1441.96,866.172 1443.91,865.16 1445.86,864.984 1447.81,863.613 1449.76,863.4 1451.72,863.183 1453.67,862.668 1455.62,862.421 1457.57,859.946 1459.52,859.687 1461.47,857.756 1463.42,857.611 1465.37,856.618 1467.32,856.593 1469.27,856.588 1471.22,854.224 1473.17,853.693 1475.12,852.834 1477.07,852.649 1479.02,851.775 1480.97,850.084 1482.92,848.401 1484.87,848.031 1486.82,846.95 1488.77,846.818 1490.72,845.092 1492.67,844.452 1494.62,843.248 1496.57,841.709 1498.53,841.173 1500.48,841.112 1502.43,840.362 1504.38,840.254 1506.33,839.974 1508.28,839.716 1510.23,839.596 1512.18,839.573 1514.13,839.501 1516.08,838.563 1518.03,838.466 1519.98,838.156 1521.93,837.984 1523.88,837.492 1525.83,836.789 1527.78,836.575 1529.73,836.27 1531.68,835.097 1533.63,834.981 1535.58,834.1 1537.53,833.866 1539.48,833.337 1541.43,832.713 1543.39,831.69 1545.34,831.293 1547.29,830.991 1549.24,829.38 1551.19,828.954 1553.14,827.858 1555.09,826.118 1557.04,824.969 1558.99,824.895 1560.94,824.81 1562.89,822.886 1564.84,822.791 1566.79,822.578 1568.74,821.795 1570.69,821.653 1572.64,820.174 1574.59,820.049 1576.54,819.722 1578.49,815.6 1580.44,815.323 1582.39,810.558 1584.34,809.144 1586.29,808.574 1588.25,808.463 1590.2,806.848 1592.15,806.79 1594.1,805.577 1596.05,804.829 1598,804.206 1599.95,802.799 1601.9,802.53 1603.85,802.51 1605.8,802.379 1607.75,800.72 1609.7,800.62 1611.65,799.655 1613.6,799.592 1615.55,799.253 1617.5,797.842 1619.45,796.555 1621.4,795.482 1623.35,794.478 1625.3,793.594 1627.25,793.175 1629.2,793.161 1631.15,791.884 1633.11,789.862 1635.06,789.442 1637.01,789.31 1638.96,788.583 1640.91,787.404 1642.86,787.23 1644.81,785.886 1646.76,783.951 1648.71,782.012 1650.66,774.257 1652.61,773.385 1654.56,773.273 1656.51,772.748 1658.46,772.214 1660.41,771.139 1662.36,765.984 1664.31,765.345 1666.26,764.092 1668.21,762.475 1670.16,762.185 1672.11,760.592 1674.06,759.138 1676.01,758.919 1677.97,758.37 1679.92,758.081 1681.87,755.141 1683.82,754.697 1685.77,752.584 1687.72,751.798 1689.67,750.872 1691.62,750.84 1693.57,749.749 1695.52,748.289 1697.47,747.42 1699.42,746.481 1701.37,746.204 1703.32,746.177 1705.27,744.654 1707.22,744.457 1709.17,742.255 1711.12,741.488 1713.07,741.472 1715.02,735.07 1716.97,734.133 1718.92,729.94 1720.87,728.595 1722.83,725.69 1724.78,723.666 1726.73,717.814 1728.68,716.515 1730.63,716.504 1732.58,714.206 1734.53,714.048 1736.48,711.769 1738.43,711.08 1740.38,709.107 1742.33,705.606 1744.28,703.98 1746.23,703.571 1748.18,701.406 1750.13,700.987 1752.08,696.449 1754.03,694.989 1755.98,693.842 1757.93,691.237 1759.88,688.027 1761.83,687.978 1763.78,681.629 1765.73,680.565 1767.68,677.801 1769.64,677.553 1771.59,674.822 1773.54,672.621 1775.49,668.083 1777.44,663.267 1779.39,662.478 1781.34,650.977 1783.29,645.864 1785.24,636.208 1787.19,627.852 1789.14,618.033 1791.09,600.172 1793.04,595.47 1794.99,585.348 1796.94,569.394 1798.89,559.141 1800.84,559.036 1802.79,528.578 1804.74,521.263 1806.69,493.554 1808.64,471.187 1810.59,412.17 1812.54,384.281 1814.5,377.69 1816.45,376.157 1818.4,367.075 1820.35,362.218 1822.3,353.83 1824.25,348.084 1826.2,343.336 1828.15,343.271 1830.1,340.908 1832.05,334.974 1834,333.503 1835.95,333.087 1837.9,322.672 1839.85,321.163 1841.8,315.244 1843.75,313.828 1845.7,313.016 1847.65,307.375 1849.6,301.987 1851.55,299.739 1853.5,295.759 1855.45,295.507 1857.4,291.123 1859.36,290.912 1861.31,290.842 1863.26,290.366 1865.21,289.825 1867.16,289.415 1869.11,282.728 1871.06,280.761 1873.01,280.214 1874.96,280.197 1876.91,279.792 1878.86,279.169 1880.81,277.08 1882.76,273.839 1884.71,272.559 1886.66,271.826 1888.61,270.766 1890.56,269.171 1892.51,268.807 1894.46,262.33 1896.41,261.488 1898.36,260.26 1900.31,258.485 1902.26,258.288 1904.22,257.882 1906.17,254.515 1908.12,254.237 1910.07,252.753 1912.02,252.168 1913.97,251.448 1915.92,251.112 1917.87,250.935 1919.82,250.526 1921.77,249.909 1923.72,249.49 1925.67,248.396 1927.62,248.212 1929.57,248.109 1931.52,247.027 1933.47,246.833 1935.42,246.647 1937.37,244.488 1939.32,244.298 1941.27,244.224 1943.22,241.15 1945.17,239.202 1947.12,238.253 1949.08,238.086 1951.03,237.936 1952.98,237.505 1954.93,234.335 1956.88,233.683 1958.83,233.27 1960.78,230.995 1962.73,230.461 1964.68,229.921 1966.63,229.91 1968.58,229.027 1970.53,227.857 1972.48,227.168 1974.43,226.381 1976.38,225.974 1978.33,225.809 1980.28,224.409 1982.23,224.165 1984.18,221.944 1986.13,221.575 1988.08,221.394 1990.03,219.89 1991.98,219.393 1993.94,219.08 1995.89,218.944 1997.84,216.923 1999.79,216.62 2001.74,216.308 2003.69,214.486 2005.64,214.393 2007.59,212.707 2009.54,211.52 2011.49,211.311 2013.44,211.168 2015.39,210.621 2017.34,210.343 2019.29,210.125 2021.24,209.878 2023.19,209.549 2025.14,209.474 2027.09,208.6 2029.04,208.012 2030.99,207.987 2032.94,207.487 2034.89,207.22 2036.84,207.154 2038.79,206.421 2040.75,206.32 2042.7,206.269 2044.65,206.199 2046.6,205.638 2048.55,204.971 2050.5,203.702 2052.45,203.699 2054.4,203.02 2056.35,202.965 2058.3,201.799 2060.25,201.535 2062.2,201.358 2064.15,201.274 2066.1,200.926 2068.05,200.521 2070,199.797 2071.95,199.371 2073.9,198.755 2075.85,198.454 2077.8,198.336 2079.75,198.024 2081.7,197.935 2083.65,197.913 2085.61,197.723 2087.56,197.684 2089.51,197.49 2091.46,197.365 2093.41,197.361 2095.36,197.226 2097.31,196.468 2099.26,196.053 2101.21,195.585 2103.16,195.291 2105.11,194.853 2107.06,194.262 2109.01,194.057 2110.96,193.747 2112.91,193.393 2114.86,192.993 2116.81,192.955 2118.76,192.64 2120.71,192.208 2122.66,191.241 2124.61,190.973 2126.56,190.805 2128.51,190.17 2130.47,187.933 2132.42,187.566 2134.37,187.454 2136.32,186.932 2138.27,186.646 2140.22,186.33 2142.17,186.022 2144.12,185.963 2146.07,185.822 2148.02,185.804 2149.97,185.743 2151.92,185.649 2153.87,185.633 2155.82,185.569 2157.77,185.446 2159.72,185.369 2161.67,185.035 2163.62,184.873 2165.57,184.858 2167.52,184.494 2169.47,184.042 2171.42,183.833 2173.37,183.761 2175.33,183.61 2177.28,183.159 2179.23,183.067 2181.18,182.71 2183.13,182.597 2185.08,182.349 2187.03,181.686 2188.98,181.575 2190.93,181.401 2192.88,180.82 2194.83,180.687 2196.78,180.433 2198.73,179.988 2200.68,179.834 2202.63,179.809 2204.58,179.664 2206.53,179.52 2208.48,179.046 2210.43,178.065 2212.38,177.83 2214.33,177.603 2216.28,177.304 2218.23,176.767 2220.19,175.774 2222.14,175.591 2224.09,175.562 2226.04,175.545 2227.99,175.352 2229.94,175.323 2231.89,175.26 2233.84,174.776 2235.79,174.727 2237.74,174.232 2239.69,173.711 2241.64,173.219 2243.59,172.624 2245.54,172.379 2247.49,171.723 2249.44,171.353 2251.39,171.248 2253.34,171.179 2255.29,171.069 2257.24,170.964 2259.19,170.834 2261.14,170.48 2263.09,169.006 2265.04,168.881 2267,168.756 2268.95,168.447 2270.9,168.359 2272.85,168.337 2274.8,168.184 2276.75,167.924 2278.7,167.377 2280.65,166.789 2282.6,166.666 2284.55,166.633 2286.5,166.531 2288.45,166.289 2290.4,165.94 2292.35,161.436 2294.3,160.256 "/>
<path clip-path="url(#clip530)" d="M356.212 270.476 L782.357 270.476 L782.357 166.796 L356.212 166.796  Z" fill="#ffffff" fill-rule="evenodd" fill-opacity="1"/>
<polyline clip-path="url(#clip530)" style="stroke:#000000; stroke-linecap:round; stroke-linejoin:round; stroke-width:4; stroke-opacity:1; fill:none" points="356.212,270.476 782.357,270.476 782.357,166.796 356.212,166.796 356.212,270.476 "/>
<polyline clip-path="url(#clip530)" style="stroke:#009af9; stroke-linecap:round; stroke-linejoin:round; stroke-width:4; stroke-opacity:1; fill:none" points="379.161,218.636 516.854,218.636 "/>
<path clip-path="url(#clip530)" d="M562.048 202.49 L562.048 207.05 Q559.386 205.777 557.025 205.152 Q554.663 204.527 552.464 204.527 Q548.645 204.527 546.562 206.008 Q544.502 207.49 544.502 210.221 Q544.502 212.513 545.867 213.694 Q547.256 214.851 551.099 215.569 L553.923 216.147 Q559.154 217.143 561.631 219.666 Q564.131 222.166 564.131 226.379 Q564.131 231.402 560.751 233.994 Q557.395 236.587 550.89 236.587 Q548.437 236.587 545.659 236.031 Q542.904 235.476 539.941 234.388 L539.941 229.573 Q542.789 231.17 545.52 231.981 Q548.251 232.791 550.89 232.791 Q554.895 232.791 557.071 231.217 Q559.247 229.643 559.247 226.726 Q559.247 224.18 557.673 222.744 Q556.122 221.309 552.557 220.592 L549.71 220.036 Q544.478 218.995 542.14 216.772 Q539.802 214.55 539.802 210.592 Q539.802 206.008 543.02 203.37 Q546.261 200.731 551.932 200.731 Q554.363 200.731 556.886 201.171 Q559.409 201.61 562.048 202.49 Z" fill="#000000" fill-rule="nonzero" fill-opacity="1" /><path clip-path="url(#clip530)" d="M571.237 209.99 L575.497 209.99 L575.497 235.916 L571.237 235.916 L571.237 209.99 M571.237 199.897 L575.497 199.897 L575.497 205.291 L571.237 205.291 L571.237 199.897 Z" fill="#000000" fill-rule="nonzero" fill-opacity="1" /><path clip-path="url(#clip530)" d="M604.594 214.967 Q606.191 212.096 608.413 210.731 Q610.635 209.365 613.645 209.365 Q617.696 209.365 619.895 212.212 Q622.094 215.036 622.094 220.268 L622.094 235.916 L617.811 235.916 L617.811 220.407 Q617.811 216.68 616.492 214.874 Q615.172 213.069 612.464 213.069 Q609.154 213.069 607.233 215.268 Q605.311 217.467 605.311 221.263 L605.311 235.916 L601.029 235.916 L601.029 220.407 Q601.029 216.657 599.71 214.874 Q598.39 213.069 595.635 213.069 Q592.372 213.069 590.45 215.291 Q588.529 217.49 588.529 221.263 L588.529 235.916 L584.247 235.916 L584.247 209.99 L588.529 209.99 L588.529 214.018 Q589.987 211.633 592.024 210.499 Q594.061 209.365 596.862 209.365 Q599.686 209.365 601.654 210.8 Q603.645 212.235 604.594 214.967 Z" fill="#000000" fill-rule="nonzero" fill-opacity="1" /><path clip-path="url(#clip530)" d="M630.589 209.99 L634.848 209.99 L634.848 235.916 L630.589 235.916 L630.589 209.99 M630.589 199.897 L634.848 199.897 L634.848 205.291 L630.589 205.291 L630.589 199.897 Z" fill="#000000" fill-rule="nonzero" fill-opacity="1" /><path clip-path="url(#clip530)" d="M643.76 199.897 L648.019 199.897 L648.019 235.916 L643.76 235.916 L643.76 199.897 Z" fill="#000000" fill-rule="nonzero" fill-opacity="1" /><path clip-path="url(#clip530)" d="M668.714 222.883 Q663.552 222.883 661.561 224.064 Q659.57 225.244 659.57 228.092 Q659.57 230.36 661.052 231.703 Q662.556 233.022 665.126 233.022 Q668.668 233.022 670.797 230.522 Q672.95 227.999 672.95 223.832 L672.95 222.883 L668.714 222.883 M677.209 221.124 L677.209 235.916 L672.95 235.916 L672.95 231.981 Q671.492 234.342 669.316 235.476 Q667.14 236.587 663.992 236.587 Q660.01 236.587 657.649 234.365 Q655.311 232.119 655.311 228.369 Q655.311 223.994 658.228 221.772 Q661.168 219.55 666.978 219.55 L672.95 219.55 L672.95 219.133 Q672.95 216.194 671.005 214.596 Q669.084 212.976 665.589 212.976 Q663.367 212.976 661.26 213.508 Q659.154 214.041 657.209 215.106 L657.209 211.17 Q659.547 210.268 661.746 209.828 Q663.945 209.365 666.029 209.365 Q671.654 209.365 674.431 212.282 Q677.209 215.198 677.209 221.124 Z" fill="#000000" fill-rule="nonzero" fill-opacity="1" /><path clip-path="url(#clip530)" d="M701.005 213.971 Q700.288 213.555 699.431 213.37 Q698.598 213.161 697.579 213.161 Q693.968 213.161 692.024 215.522 Q690.103 217.86 690.103 222.258 L690.103 235.916 L685.82 235.916 L685.82 209.99 L690.103 209.99 L690.103 214.018 Q691.445 211.657 693.598 210.522 Q695.751 209.365 698.829 209.365 Q699.269 209.365 699.802 209.434 Q700.334 209.481 700.982 209.596 L701.005 213.971 Z" fill="#000000" fill-rule="nonzero" fill-opacity="1" /><path clip-path="url(#clip530)" d="M705.473 209.99 L709.732 209.99 L709.732 235.916 L705.473 235.916 L705.473 209.99 M705.473 199.897 L709.732 199.897 L709.732 205.291 L705.473 205.291 L705.473 199.897 Z" fill="#000000" fill-rule="nonzero" fill-opacity="1" /><path clip-path="url(#clip530)" d="M722.857 202.629 L722.857 209.99 L731.63 209.99 L731.63 213.3 L722.857 213.3 L722.857 227.374 Q722.857 230.545 723.714 231.448 Q724.593 232.351 727.255 232.351 L731.63 232.351 L731.63 235.916 L727.255 235.916 Q722.325 235.916 720.45 234.087 Q718.575 232.235 718.575 227.374 L718.575 213.3 L715.45 213.3 L715.45 209.99 L718.575 209.99 L718.575 202.629 L722.857 202.629 Z" fill="#000000" fill-rule="nonzero" fill-opacity="1" /><path clip-path="url(#clip530)" d="M748.019 238.323 Q746.213 242.953 744.5 244.365 Q742.787 245.777 739.917 245.777 L736.514 245.777 L736.514 242.212 L739.014 242.212 Q740.774 242.212 741.746 241.379 Q742.718 240.545 743.899 237.443 L744.662 235.499 L734.176 209.99 L738.69 209.99 L746.792 230.268 L754.894 209.99 L759.408 209.99 L748.019 238.323 Z" fill="#000000" fill-rule="nonzero" fill-opacity="1" /></svg>
