<?xml version="1.0" encoding="utf-8"?>
<svg xmlns="http://www.w3.org/2000/svg" xmlns:xlink="http://www.w3.org/1999/xlink" width="600" height="400" viewBox="0 0 2400 1600">
<defs>
  <clipPath id="clip880">
    <rect x="0" y="0" width="2400" height="1600"/>
  </clipPath>
</defs>
<path clip-path="url(#clip880)" d="M0 1600 L2400 1600 L2400 8.88178e-14 L0 8.88178e-14  Z" fill="#ffffff" fill-rule="evenodd" fill-opacity="1"/>
<defs>
  <clipPath id="clip881">
    <rect x="480" y="0" width="1681" height="1600"/>
  </clipPath>
</defs>
<path clip-path="url(#clip880)" d="M256.209 1423.18 L2352.76 1423.18 L2352.76 123.472 L256.209 123.472  Z" fill="#ffffff" fill-rule="evenodd" fill-opacity="1"/>
<defs>
  <clipPath id="clip882">
    <rect x="256" y="123" width="2098" height="1301"/>
  </clipPath>
</defs>
<polyline clip-path="url(#clip882)" style="stroke:#000000; stroke-linecap:round; stroke-linejoin:round; stroke-width:2; stroke-opacity:0.1; fill:none" points="313.565,1423.18 313.565,123.472 "/>
<polyline clip-path="url(#clip882)" style="stroke:#000000; stroke-linecap:round; stroke-linejoin:round; stroke-width:2; stroke-opacity:0.1; fill:none" points="808.529,1423.18 808.529,123.472 "/>
<polyline clip-path="url(#clip882)" style="stroke:#000000; stroke-linecap:round; stroke-linejoin:round; stroke-width:2; stroke-opacity:0.1; fill:none" points="1303.49,1423.18 1303.49,123.472 "/>
<polyline clip-path="url(#clip882)" style="stroke:#000000; stroke-linecap:round; stroke-linejoin:round; stroke-width:2; stroke-opacity:0.1; fill:none" points="1798.46,1423.18 1798.46,123.472 "/>
<polyline clip-path="url(#clip882)" style="stroke:#000000; stroke-linecap:round; stroke-linejoin:round; stroke-width:2; stroke-opacity:0.1; fill:none" points="2293.42,1423.18 2293.42,123.472 "/>
<polyline clip-path="url(#clip880)" style="stroke:#000000; stroke-linecap:round; stroke-linejoin:round; stroke-width:4; stroke-opacity:1; fill:none" points="256.209,1423.18 2352.76,1423.18 "/>
<polyline clip-path="url(#clip880)" style="stroke:#000000; stroke-linecap:round; stroke-linejoin:round; stroke-width:4; stroke-opacity:1; fill:none" points="313.565,1423.18 313.565,1404.28 "/>
<polyline clip-path="url(#clip880)" style="stroke:#000000; stroke-linecap:round; stroke-linejoin:round; stroke-width:4; stroke-opacity:1; fill:none" points="808.529,1423.18 808.529,1404.28 "/>
<polyline clip-path="url(#clip880)" style="stroke:#000000; stroke-linecap:round; stroke-linejoin:round; stroke-width:4; stroke-opacity:1; fill:none" points="1303.49,1423.18 1303.49,1404.28 "/>
<polyline clip-path="url(#clip880)" style="stroke:#000000; stroke-linecap:round; stroke-linejoin:round; stroke-width:4; stroke-opacity:1; fill:none" points="1798.46,1423.18 1798.46,1404.28 "/>
<polyline clip-path="url(#clip880)" style="stroke:#000000; stroke-linecap:round; stroke-linejoin:round; stroke-width:4; stroke-opacity:1; fill:none" points="2293.42,1423.18 2293.42,1404.28 "/>
<path clip-path="url(#clip880)" d="M313.565 1454.1 Q309.954 1454.1 308.125 1457.66 Q306.32 1461.2 306.32 1468.33 Q306.32 1475.44 308.125 1479.01 Q309.954 1482.55 313.565 1482.55 Q317.199 1482.55 319.005 1479.01 Q320.834 1475.44 320.834 1468.33 Q320.834 1461.2 319.005 1457.66 Q317.199 1454.1 313.565 1454.1 M313.565 1450.39 Q319.375 1450.39 322.431 1455 Q325.509 1459.58 325.509 1468.33 Q325.509 1477.06 322.431 1481.67 Q319.375 1486.25 313.565 1486.25 Q307.755 1486.25 304.676 1481.67 Q301.621 1477.06 301.621 1468.33 Q301.621 1459.58 304.676 1455 Q307.755 1450.39 313.565 1450.39 Z" fill="#000000" fill-rule="nonzero" fill-opacity="1" /><path clip-path="url(#clip880)" d="M772.221 1481.64 L788.54 1481.64 L788.54 1485.58 L766.596 1485.58 L766.596 1481.64 Q769.258 1478.89 773.841 1474.26 Q778.448 1469.61 779.628 1468.27 Q781.874 1465.74 782.753 1464.01 Q783.656 1462.25 783.656 1460.56 Q783.656 1457.8 781.712 1456.07 Q779.79 1454.33 776.689 1454.33 Q774.49 1454.33 772.036 1455.09 Q769.605 1455.86 766.828 1457.41 L766.828 1452.69 Q769.652 1451.55 772.105 1450.97 Q774.559 1450.39 776.596 1450.39 Q781.966 1450.39 785.161 1453.08 Q788.355 1455.77 788.355 1460.26 Q788.355 1462.39 787.545 1464.31 Q786.758 1466.2 784.652 1468.8 Q784.073 1469.47 780.971 1472.69 Q777.869 1475.88 772.221 1481.64 Z" fill="#000000" fill-rule="nonzero" fill-opacity="1" /><path clip-path="url(#clip880)" d="M798.401 1451.02 L816.758 1451.02 L816.758 1454.96 L802.684 1454.96 L802.684 1463.43 Q803.702 1463.08 804.721 1462.92 Q805.739 1462.73 806.758 1462.73 Q812.545 1462.73 815.924 1465.9 Q819.304 1469.08 819.304 1474.49 Q819.304 1480.07 815.832 1483.17 Q812.36 1486.25 806.04 1486.25 Q803.864 1486.25 801.596 1485.88 Q799.351 1485.51 796.943 1484.77 L796.943 1480.07 Q799.026 1481.2 801.249 1481.76 Q803.471 1482.32 805.948 1482.32 Q809.952 1482.32 812.29 1480.21 Q814.628 1478.1 814.628 1474.49 Q814.628 1470.88 812.29 1468.77 Q809.952 1466.67 805.948 1466.67 Q804.073 1466.67 802.198 1467.08 Q800.346 1467.5 798.401 1468.38 L798.401 1451.02 Z" fill="#000000" fill-rule="nonzero" fill-opacity="1" /><path clip-path="url(#clip880)" d="M838.517 1454.1 Q834.906 1454.1 833.077 1457.66 Q831.272 1461.2 831.272 1468.33 Q831.272 1475.44 833.077 1479.01 Q834.906 1482.55 838.517 1482.55 Q842.151 1482.55 843.957 1479.01 Q845.785 1475.44 845.785 1468.33 Q845.785 1461.2 843.957 1457.66 Q842.151 1454.1 838.517 1454.1 M838.517 1450.39 Q844.327 1450.39 847.383 1455 Q850.461 1459.58 850.461 1468.33 Q850.461 1477.06 847.383 1481.67 Q844.327 1486.25 838.517 1486.25 Q832.707 1486.25 829.628 1481.67 Q826.573 1477.06 826.573 1468.33 Q826.573 1459.58 829.628 1455 Q832.707 1450.39 838.517 1450.39 Z" fill="#000000" fill-rule="nonzero" fill-opacity="1" /><path clip-path="url(#clip880)" d="M1263.11 1451.02 L1281.47 1451.02 L1281.47 1454.96 L1267.39 1454.96 L1267.39 1463.43 Q1268.41 1463.08 1269.43 1462.92 Q1270.45 1462.73 1271.47 1462.73 Q1277.25 1462.73 1280.63 1465.9 Q1284.01 1469.08 1284.01 1474.49 Q1284.01 1480.07 1280.54 1483.17 Q1277.07 1486.25 1270.75 1486.25 Q1268.57 1486.25 1266.31 1485.88 Q1264.06 1485.51 1261.65 1484.77 L1261.65 1480.07 Q1263.74 1481.2 1265.96 1481.76 Q1268.18 1482.32 1270.66 1482.32 Q1274.66 1482.32 1277 1480.21 Q1279.34 1478.1 1279.34 1474.49 Q1279.34 1470.88 1277 1468.77 Q1274.66 1466.67 1270.66 1466.67 Q1268.78 1466.67 1266.91 1467.08 Q1265.06 1467.5 1263.11 1468.38 L1263.11 1451.02 Z" fill="#000000" fill-rule="nonzero" fill-opacity="1" /><path clip-path="url(#clip880)" d="M1303.23 1454.1 Q1299.62 1454.1 1297.79 1457.66 Q1295.98 1461.2 1295.98 1468.33 Q1295.98 1475.44 1297.79 1479.01 Q1299.62 1482.55 1303.23 1482.55 Q1306.86 1482.55 1308.67 1479.01 Q1310.49 1475.44 1310.49 1468.33 Q1310.49 1461.2 1308.67 1457.66 Q1306.86 1454.1 1303.23 1454.1 M1303.23 1450.39 Q1309.04 1450.39 1312.09 1455 Q1315.17 1459.58 1315.17 1468.33 Q1315.17 1477.06 1312.09 1481.67 Q1309.04 1486.25 1303.23 1486.25 Q1297.42 1486.25 1294.34 1481.67 Q1291.28 1477.06 1291.28 1468.33 Q1291.28 1459.58 1294.34 1455 Q1297.42 1450.39 1303.23 1450.39 Z" fill="#000000" fill-rule="nonzero" fill-opacity="1" /><path clip-path="url(#clip880)" d="M1333.39 1454.1 Q1329.78 1454.1 1327.95 1457.66 Q1326.14 1461.2 1326.14 1468.33 Q1326.14 1475.44 1327.95 1479.01 Q1329.78 1482.55 1333.39 1482.55 Q1337.02 1482.55 1338.83 1479.01 Q1340.66 1475.44 1340.66 1468.33 Q1340.66 1461.2 1338.83 1457.66 Q1337.02 1454.1 1333.39 1454.1 M1333.39 1450.39 Q1339.2 1450.39 1342.25 1455 Q1345.33 1459.58 1345.33 1468.33 Q1345.33 1477.06 1342.25 1481.67 Q1339.2 1486.25 1333.39 1486.25 Q1327.58 1486.25 1324.5 1481.67 Q1321.44 1477.06 1321.44 1468.33 Q1321.44 1459.58 1324.5 1455 Q1327.58 1450.39 1333.39 1450.39 Z" fill="#000000" fill-rule="nonzero" fill-opacity="1" /><path clip-path="url(#clip880)" d="M1756.73 1451.02 L1778.95 1451.02 L1778.95 1453.01 L1766.41 1485.58 L1761.52 1485.58 L1773.33 1454.96 L1756.73 1454.96 L1756.73 1451.02 Z" fill="#000000" fill-rule="nonzero" fill-opacity="1" /><path clip-path="url(#clip880)" d="M1788.12 1451.02 L1806.48 1451.02 L1806.48 1454.96 L1792.4 1454.96 L1792.4 1463.43 Q1793.42 1463.08 1794.44 1462.92 Q1795.46 1462.73 1796.48 1462.73 Q1802.26 1462.73 1805.64 1465.9 Q1809.02 1469.08 1809.02 1474.49 Q1809.02 1480.07 1805.55 1483.17 Q1802.08 1486.25 1795.76 1486.25 Q1793.58 1486.25 1791.31 1485.88 Q1789.07 1485.51 1786.66 1484.77 L1786.66 1480.07 Q1788.75 1481.2 1790.97 1481.76 Q1793.19 1482.32 1795.67 1482.32 Q1799.67 1482.32 1802.01 1480.21 Q1804.35 1478.1 1804.35 1474.49 Q1804.35 1470.88 1802.01 1468.77 Q1799.67 1466.67 1795.67 1466.67 Q1793.79 1466.67 1791.92 1467.08 Q1790.06 1467.5 1788.12 1468.38 L1788.12 1451.02 Z" fill="#000000" fill-rule="nonzero" fill-opacity="1" /><path clip-path="url(#clip880)" d="M1828.24 1454.1 Q1824.62 1454.1 1822.8 1457.66 Q1820.99 1461.2 1820.99 1468.33 Q1820.99 1475.44 1822.8 1479.01 Q1824.62 1482.55 1828.24 1482.55 Q1831.87 1482.55 1833.68 1479.01 Q1835.5 1475.44 1835.5 1468.33 Q1835.5 1461.2 1833.68 1457.66 Q1831.87 1454.1 1828.24 1454.1 M1828.24 1450.39 Q1834.05 1450.39 1837.1 1455 Q1840.18 1459.58 1840.18 1468.33 Q1840.18 1477.06 1837.1 1481.67 Q1834.05 1486.25 1828.24 1486.25 Q1822.43 1486.25 1819.35 1481.67 Q1816.29 1477.06 1816.29 1468.33 Q1816.29 1459.58 1819.35 1455 Q1822.43 1450.39 1828.24 1450.39 Z" fill="#000000" fill-rule="nonzero" fill-opacity="1" /><path clip-path="url(#clip880)" d="M2237.95 1481.64 L2245.58 1481.64 L2245.58 1455.28 L2237.27 1456.95 L2237.27 1452.69 L2245.54 1451.02 L2250.21 1451.02 L2250.21 1481.64 L2257.85 1481.64 L2257.85 1485.58 L2237.95 1485.58 L2237.95 1481.64 Z" fill="#000000" fill-rule="nonzero" fill-opacity="1" /><path clip-path="url(#clip880)" d="M2277.3 1454.1 Q2273.69 1454.1 2271.86 1457.66 Q2270.05 1461.2 2270.05 1468.33 Q2270.05 1475.44 2271.86 1479.01 Q2273.69 1482.55 2277.3 1482.55 Q2280.93 1482.55 2282.74 1479.01 Q2284.57 1475.44 2284.57 1468.33 Q2284.57 1461.2 2282.74 1457.66 Q2280.93 1454.1 2277.3 1454.1 M2277.3 1450.39 Q2283.11 1450.39 2286.16 1455 Q2289.24 1459.58 2289.24 1468.33 Q2289.24 1477.06 2286.16 1481.67 Q2283.11 1486.25 2277.3 1486.25 Q2271.49 1486.25 2268.41 1481.67 Q2265.35 1477.06 2265.35 1468.33 Q2265.35 1459.58 2268.41 1455 Q2271.49 1450.39 2277.3 1450.39 Z" fill="#000000" fill-rule="nonzero" fill-opacity="1" /><path clip-path="url(#clip880)" d="M2307.46 1454.1 Q2303.85 1454.1 2302.02 1457.66 Q2300.21 1461.2 2300.21 1468.33 Q2300.21 1475.44 2302.02 1479.01 Q2303.85 1482.55 2307.46 1482.55 Q2311.09 1482.55 2312.9 1479.01 Q2314.73 1475.44 2314.73 1468.33 Q2314.73 1461.2 2312.9 1457.66 Q2311.09 1454.1 2307.46 1454.1 M2307.46 1450.39 Q2313.27 1450.39 2316.32 1455 Q2319.4 1459.58 2319.4 1468.33 Q2319.4 1477.06 2316.32 1481.67 Q2313.27 1486.25 2307.46 1486.25 Q2301.65 1486.25 2298.57 1481.67 Q2295.51 1477.06 2295.51 1468.33 Q2295.51 1459.58 2298.57 1455 Q2301.65 1450.39 2307.46 1450.39 Z" fill="#000000" fill-rule="nonzero" fill-opacity="1" /><path clip-path="url(#clip880)" d="M2337.62 1454.1 Q2334.01 1454.1 2332.18 1457.66 Q2330.38 1461.2 2330.38 1468.33 Q2330.38 1475.44 2332.18 1479.01 Q2334.01 1482.55 2337.62 1482.55 Q2341.26 1482.55 2343.06 1479.01 Q2344.89 1475.44 2344.89 1468.33 Q2344.89 1461.2 2343.06 1457.66 Q2341.26 1454.1 2337.62 1454.1 M2337.62 1450.39 Q2343.43 1450.39 2346.49 1455 Q2349.57 1459.58 2349.57 1468.33 Q2349.57 1477.06 2346.49 1481.67 Q2343.43 1486.25 2337.62 1486.25 Q2331.81 1486.25 2328.73 1481.67 Q2325.68 1477.06 2325.68 1468.33 Q2325.68 1459.58 2328.73 1455 Q2331.81 1450.39 2337.62 1450.39 Z" fill="#000000" fill-rule="nonzero" fill-opacity="1" /><path clip-path="url(#clip880)" d="M1268.33 1524.18 L1268.33 1530.96 Q1265.08 1527.94 1261.39 1526.44 Q1257.73 1524.95 1253.59 1524.95 Q1245.44 1524.95 1241.11 1529.95 Q1236.78 1534.91 1236.78 1544.33 Q1236.78 1553.72 1241.11 1558.72 Q1245.44 1563.68 1253.59 1563.68 Q1257.73 1563.68 1261.39 1562.19 Q1265.08 1560.69 1268.33 1557.67 L1268.33 1564.38 Q1264.95 1566.68 1261.16 1567.82 Q1257.41 1568.97 1253.21 1568.97 Q1242.42 1568.97 1236.21 1562.38 Q1230 1555.76 1230 1544.33 Q1230 1532.87 1236.21 1526.28 Q1242.42 1519.66 1253.21 1519.66 Q1257.47 1519.66 1261.23 1520.81 Q1265.01 1521.92 1268.33 1524.18 Z" fill="#000000" fill-rule="nonzero" fill-opacity="1" /><path clip-path="url(#clip880)" d="M1308.49 1548.76 L1308.49 1551.62 L1281.57 1551.62 Q1281.95 1557.67 1285.19 1560.85 Q1288.47 1564 1294.3 1564 Q1297.67 1564 1300.82 1563.17 Q1304 1562.35 1307.12 1560.69 L1307.12 1566.23 Q1303.97 1567.57 1300.66 1568.27 Q1297.35 1568.97 1293.95 1568.97 Q1285.42 1568.97 1280.42 1564 Q1275.45 1559.04 1275.45 1550.57 Q1275.45 1541.82 1280.17 1536.69 Q1284.91 1531.54 1292.93 1531.54 Q1300.12 1531.54 1304.29 1536.18 Q1308.49 1540.8 1308.49 1548.76 M1302.64 1547.04 Q1302.57 1542.23 1299.93 1539.37 Q1297.32 1536.5 1292.99 1536.5 Q1288.09 1536.5 1285.13 1539.27 Q1282.2 1542.04 1281.76 1547.07 L1302.64 1547.04 Z" fill="#000000" fill-rule="nonzero" fill-opacity="1" /><path clip-path="url(#clip880)" d="M1318.1 1518.52 L1323.96 1518.52 L1323.96 1568.04 L1318.1 1568.04 L1318.1 1518.52 Z" fill="#000000" fill-rule="nonzero" fill-opacity="1" /><path clip-path="url(#clip880)" d="M1336.22 1518.52 L1342.07 1518.52 L1342.07 1568.04 L1336.22 1568.04 L1336.22 1518.52 Z" fill="#000000" fill-rule="nonzero" fill-opacity="1" /><path clip-path="url(#clip880)" d="M1377.05 1533.45 L1377.05 1538.98 Q1374.57 1537.71 1371.9 1537.07 Q1369.22 1536.44 1366.36 1536.44 Q1362 1536.44 1359.8 1537.77 Q1357.64 1539.11 1357.64 1541.79 Q1357.64 1543.82 1359.2 1545 Q1360.76 1546.15 1365.47 1547.2 L1367.47 1547.64 Q1373.71 1548.98 1376.32 1551.43 Q1378.96 1553.85 1378.96 1558.21 Q1378.96 1563.17 1375.01 1566.07 Q1371.1 1568.97 1364.22 1568.97 Q1361.36 1568.97 1358.24 1568.39 Q1355.15 1567.85 1351.72 1566.74 L1351.72 1560.69 Q1354.96 1562.38 1358.11 1563.24 Q1361.26 1564.07 1364.35 1564.07 Q1368.49 1564.07 1370.72 1562.66 Q1372.95 1561.23 1372.95 1558.65 Q1372.95 1556.27 1371.32 1554.99 Q1369.73 1553.72 1364.29 1552.54 L1362.25 1552.07 Q1356.81 1550.92 1354.39 1548.56 Q1351.97 1546.18 1351.97 1542.04 Q1351.97 1537.01 1355.54 1534.27 Q1359.1 1531.54 1365.66 1531.54 Q1368.9 1531.54 1371.77 1532.01 Q1374.63 1532.49 1377.05 1533.45 Z" fill="#000000" fill-rule="nonzero" fill-opacity="1" /><polyline clip-path="url(#clip882)" style="stroke:#000000; stroke-linecap:round; stroke-linejoin:round; stroke-width:2; stroke-opacity:0.1; fill:none" points="256.209,1224.17 2352.76,1224.17 "/>
<polyline clip-path="url(#clip882)" style="stroke:#000000; stroke-linecap:round; stroke-linejoin:round; stroke-width:2; stroke-opacity:0.1; fill:none" points="256.209,867.401 2352.76,867.401 "/>
<polyline clip-path="url(#clip882)" style="stroke:#000000; stroke-linecap:round; stroke-linejoin:round; stroke-width:2; stroke-opacity:0.1; fill:none" points="256.209,510.633 2352.76,510.633 "/>
<polyline clip-path="url(#clip882)" style="stroke:#000000; stroke-linecap:round; stroke-linejoin:round; stroke-width:2; stroke-opacity:0.1; fill:none" points="256.209,153.865 2352.76,153.865 "/>
<polyline clip-path="url(#clip880)" style="stroke:#000000; stroke-linecap:round; stroke-linejoin:round; stroke-width:4; stroke-opacity:1; fill:none" points="256.209,1423.18 256.209,123.472 "/>
<polyline clip-path="url(#clip880)" style="stroke:#000000; stroke-linecap:round; stroke-linejoin:round; stroke-width:4; stroke-opacity:1; fill:none" points="256.209,1224.17 275.106,1224.17 "/>
<polyline clip-path="url(#clip880)" style="stroke:#000000; stroke-linecap:round; stroke-linejoin:round; stroke-width:4; stroke-opacity:1; fill:none" points="256.209,867.401 275.106,867.401 "/>
<polyline clip-path="url(#clip880)" style="stroke:#000000; stroke-linecap:round; stroke-linejoin:round; stroke-width:4; stroke-opacity:1; fill:none" points="256.209,510.633 275.106,510.633 "/>
<polyline clip-path="url(#clip880)" style="stroke:#000000; stroke-linecap:round; stroke-linejoin:round; stroke-width:4; stroke-opacity:1; fill:none" points="256.209,153.865 275.106,153.865 "/>
<path clip-path="url(#clip880)" d="M114.26 1224.62 L143.936 1224.62 L143.936 1228.56 L114.26 1228.56 L114.26 1224.62 Z" fill="#000000" fill-rule="nonzero" fill-opacity="1" /><path clip-path="url(#clip880)" d="M164.028 1209.97 Q160.417 1209.97 158.589 1213.53 Q156.783 1217.07 156.783 1224.2 Q156.783 1231.31 158.589 1234.88 Q160.417 1238.42 164.028 1238.42 Q167.663 1238.42 169.468 1234.88 Q171.297 1231.31 171.297 1224.2 Q171.297 1217.07 169.468 1213.53 Q167.663 1209.97 164.028 1209.97 M164.028 1206.26 Q169.839 1206.26 172.894 1210.87 Q175.973 1215.45 175.973 1224.2 Q175.973 1232.93 172.894 1237.54 Q169.839 1242.12 164.028 1242.12 Q158.218 1242.12 155.14 1237.54 Q152.084 1232.93 152.084 1224.2 Q152.084 1215.45 155.14 1210.87 Q158.218 1206.26 164.028 1206.26 Z" fill="#000000" fill-rule="nonzero" fill-opacity="1" /><path clip-path="url(#clip880)" d="M184.19 1235.57 L189.075 1235.57 L189.075 1241.45 L184.19 1241.45 L184.19 1235.57 Z" fill="#000000" fill-rule="nonzero" fill-opacity="1" /><path clip-path="url(#clip880)" d="M199.306 1206.89 L217.662 1206.89 L217.662 1210.82 L203.588 1210.82 L203.588 1219.3 Q204.607 1218.95 205.625 1218.79 Q206.644 1218.6 207.662 1218.6 Q213.449 1218.6 216.829 1221.77 Q220.209 1224.94 220.209 1230.36 Q220.209 1235.94 216.736 1239.04 Q213.264 1242.12 206.945 1242.12 Q204.769 1242.12 202.5 1241.75 Q200.255 1241.38 197.848 1240.64 L197.848 1235.94 Q199.931 1237.07 202.153 1237.63 Q204.375 1238.19 206.852 1238.19 Q210.857 1238.19 213.195 1236.08 Q215.533 1233.97 215.533 1230.36 Q215.533 1226.75 213.195 1224.64 Q210.857 1222.54 206.852 1222.54 Q204.977 1222.54 203.102 1222.95 Q201.25 1223.37 199.306 1224.25 L199.306 1206.89 Z" fill="#000000" fill-rule="nonzero" fill-opacity="1" /><path clip-path="url(#clip880)" d="M163.033 853.2 Q159.422 853.2 157.593 856.765 Q155.788 860.306 155.788 867.436 Q155.788 874.542 157.593 878.107 Q159.422 881.649 163.033 881.649 Q166.667 881.649 168.473 878.107 Q170.302 874.542 170.302 867.436 Q170.302 860.306 168.473 856.765 Q166.667 853.2 163.033 853.2 M163.033 849.496 Q168.843 849.496 171.899 854.102 Q174.977 858.686 174.977 867.436 Q174.977 876.163 171.899 880.769 Q168.843 885.352 163.033 885.352 Q157.223 885.352 154.144 880.769 Q151.089 876.163 151.089 867.436 Q151.089 858.686 154.144 854.102 Q157.223 849.496 163.033 849.496 Z" fill="#000000" fill-rule="nonzero" fill-opacity="1" /><path clip-path="url(#clip880)" d="M183.195 878.801 L188.079 878.801 L188.079 884.681 L183.195 884.681 L183.195 878.801 Z" fill="#000000" fill-rule="nonzero" fill-opacity="1" /><path clip-path="url(#clip880)" d="M208.264 853.2 Q204.653 853.2 202.824 856.765 Q201.019 860.306 201.019 867.436 Q201.019 874.542 202.824 878.107 Q204.653 881.649 208.264 881.649 Q211.899 881.649 213.704 878.107 Q215.533 874.542 215.533 867.436 Q215.533 860.306 213.704 856.765 Q211.899 853.2 208.264 853.2 M208.264 849.496 Q214.074 849.496 217.13 854.102 Q220.209 858.686 220.209 867.436 Q220.209 876.163 217.13 880.769 Q214.074 885.352 208.264 885.352 Q202.454 885.352 199.375 880.769 Q196.32 876.163 196.32 867.436 Q196.32 858.686 199.375 854.102 Q202.454 849.496 208.264 849.496 Z" fill="#000000" fill-rule="nonzero" fill-opacity="1" /><path clip-path="url(#clip880)" d="M164.028 496.432 Q160.417 496.432 158.589 499.996 Q156.783 503.538 156.783 510.668 Q156.783 517.774 158.589 521.339 Q160.417 524.881 164.028 524.881 Q167.663 524.881 169.468 521.339 Q171.297 517.774 171.297 510.668 Q171.297 503.538 169.468 499.996 Q167.663 496.432 164.028 496.432 M164.028 492.728 Q169.839 492.728 172.894 497.334 Q175.973 501.918 175.973 510.668 Q175.973 519.394 172.894 524.001 Q169.839 528.584 164.028 528.584 Q158.218 528.584 155.14 524.001 Q152.084 519.394 152.084 510.668 Q152.084 501.918 155.14 497.334 Q158.218 492.728 164.028 492.728 Z" fill="#000000" fill-rule="nonzero" fill-opacity="1" /><path clip-path="url(#clip880)" d="M184.19 522.033 L189.075 522.033 L189.075 527.913 L184.19 527.913 L184.19 522.033 Z" fill="#000000" fill-rule="nonzero" fill-opacity="1" /><path clip-path="url(#clip880)" d="M199.306 493.353 L217.662 493.353 L217.662 497.288 L203.588 497.288 L203.588 505.76 Q204.607 505.413 205.625 505.251 Q206.644 505.066 207.662 505.066 Q213.449 505.066 216.829 508.237 Q220.209 511.408 220.209 516.825 Q220.209 522.404 216.736 525.505 Q213.264 528.584 206.945 528.584 Q204.769 528.584 202.5 528.214 Q200.255 527.843 197.848 527.103 L197.848 522.404 Q199.931 523.538 202.153 524.093 Q204.375 524.649 206.852 524.649 Q210.857 524.649 213.195 522.543 Q215.533 520.436 215.533 516.825 Q215.533 513.214 213.195 511.107 Q210.857 509.001 206.852 509.001 Q204.977 509.001 203.102 509.418 Q201.25 509.834 199.306 510.714 L199.306 493.353 Z" fill="#000000" fill-rule="nonzero" fill-opacity="1" /><path clip-path="url(#clip880)" d="M153.843 167.21 L161.482 167.21 L161.482 140.844 L153.172 142.511 L153.172 138.251 L161.436 136.585 L166.112 136.585 L166.112 167.21 L173.751 167.21 L173.751 171.145 L153.843 171.145 L153.843 167.21 Z" fill="#000000" fill-rule="nonzero" fill-opacity="1" /><path clip-path="url(#clip880)" d="M183.195 165.265 L188.079 165.265 L188.079 171.145 L183.195 171.145 L183.195 165.265 Z" fill="#000000" fill-rule="nonzero" fill-opacity="1" /><path clip-path="url(#clip880)" d="M208.264 139.663 Q204.653 139.663 202.824 143.228 Q201.019 146.77 201.019 153.899 Q201.019 161.006 202.824 164.571 Q204.653 168.112 208.264 168.112 Q211.899 168.112 213.704 164.571 Q215.533 161.006 215.533 153.899 Q215.533 146.77 213.704 143.228 Q211.899 139.663 208.264 139.663 M208.264 135.96 Q214.074 135.96 217.13 140.566 Q220.209 145.15 220.209 153.899 Q220.209 162.626 217.13 167.233 Q214.074 171.816 208.264 171.816 Q202.454 171.816 199.375 167.233 Q196.32 162.626 196.32 153.899 Q196.32 145.15 199.375 140.566 Q202.454 135.96 208.264 135.96 Z" fill="#000000" fill-rule="nonzero" fill-opacity="1" /><path clip-path="url(#clip880)" d="M18.0438 893.717 L24.314 893.717 Q22.5634 897.378 21.704 900.624 Q20.8447 903.871 20.8447 906.894 Q20.8447 912.146 22.8817 915.011 Q24.9187 917.843 28.6745 917.843 Q31.8255 917.843 33.4488 915.966 Q35.0402 914.056 36.0269 908.772 L36.8226 904.889 Q38.1912 897.696 41.6605 894.29 Q45.098 890.853 50.8908 890.853 Q57.7976 890.853 61.3624 895.5 Q64.9272 900.115 64.9272 909.059 Q64.9272 912.433 64.1633 916.252 Q63.3994 920.04 61.9035 924.114 L55.2831 924.114 Q57.4793 920.199 58.5933 916.443 Q59.7073 912.687 59.7073 909.059 Q59.7073 903.552 57.543 900.561 Q55.3786 897.569 51.3682 897.569 Q47.8671 897.569 45.8937 899.733 Q43.9204 901.866 42.9337 906.767 L42.1698 910.682 Q40.7375 917.875 37.682 921.09 Q34.6264 924.305 29.1837 924.305 Q22.8817 924.305 19.2532 919.88 Q15.6248 915.424 15.6248 907.626 Q15.6248 904.284 16.2295 900.815 Q16.8343 897.346 18.0438 893.717 Z" fill="#000000" fill-rule="nonzero" fill-opacity="1" /><path clip-path="url(#clip880)" d="M28.3562 881.081 L28.3562 875.225 L64.0042 875.225 L64.0042 881.081 L28.3562 881.081 M14.479 881.081 L14.479 875.225 L21.895 875.225 L21.895 881.081 L14.479 881.081 Z" fill="#000000" fill-rule="nonzero" fill-opacity="1" /><path clip-path="url(#clip880)" d="M35.1993 835.217 Q31.2526 833.02 29.3747 829.965 Q27.4968 826.909 27.4968 822.772 Q27.4968 817.202 31.4117 814.178 Q35.2948 811.154 42.4881 811.154 L64.0042 811.154 L64.0042 817.042 L42.679 817.042 Q37.5546 817.042 35.072 818.857 Q32.5894 820.671 32.5894 824.395 Q32.5894 828.946 35.6131 831.588 Q38.6368 834.23 43.8567 834.23 L64.0042 834.23 L64.0042 840.118 L42.679 840.118 Q37.5228 840.118 35.072 841.932 Q32.5894 843.747 32.5894 847.534 Q32.5894 852.022 35.6449 854.664 Q38.6686 857.306 43.8567 857.306 L64.0042 857.306 L64.0042 863.194 L28.3562 863.194 L28.3562 857.306 L33.8944 857.306 Q30.616 855.3 29.0564 852.499 Q27.4968 849.699 27.4968 845.847 Q27.4968 841.964 29.4702 839.259 Q31.4436 836.522 35.1993 835.217 Z" fill="#000000" fill-rule="nonzero" fill-opacity="1" /><path clip-path="url(#clip880)" d="M28.3562 799.473 L28.3562 793.617 L64.0042 793.617 L64.0042 799.473 L28.3562 799.473 M14.479 799.473 L14.479 793.617 L21.895 793.617 L21.895 799.473 L14.479 799.473 Z" fill="#000000" fill-rule="nonzero" fill-opacity="1" /><path clip-path="url(#clip880)" d="M14.479 781.363 L14.479 775.506 L64.0042 775.506 L64.0042 781.363 L14.479 781.363 Z" fill="#000000" fill-rule="nonzero" fill-opacity="1" /><path clip-path="url(#clip880)" d="M46.0847 747.052 Q46.0847 754.149 47.7079 756.887 Q49.3312 759.624 53.2461 759.624 Q56.3653 759.624 58.2114 757.587 Q60.0256 755.518 60.0256 751.985 Q60.0256 747.115 56.5881 744.187 Q53.1188 741.227 47.3897 741.227 L46.0847 741.227 L46.0847 747.052 M43.6657 735.37 L64.0042 735.37 L64.0042 741.227 L58.5933 741.227 Q61.8398 743.232 63.3994 746.224 Q64.9272 749.216 64.9272 753.545 Q64.9272 759.019 61.8716 762.266 Q58.7843 765.48 53.6281 765.48 Q47.6125 765.48 44.5569 761.47 Q41.5014 757.428 41.5014 749.439 L41.5014 741.227 L40.9285 741.227 Q36.8862 741.227 34.6901 743.901 Q32.4621 746.542 32.4621 751.348 Q32.4621 754.404 33.1941 757.3 Q33.9262 760.197 35.3903 762.87 L29.9795 762.87 Q28.7381 759.656 28.1334 756.632 Q27.4968 753.608 27.4968 750.744 Q27.4968 743.009 31.5072 739.19 Q35.5176 735.37 43.6657 735.37 Z" fill="#000000" fill-rule="nonzero" fill-opacity="1" /><path clip-path="url(#clip880)" d="M33.8307 702.651 Q33.2578 703.637 33.0032 704.815 Q32.7167 705.961 32.7167 707.361 Q32.7167 712.327 35.9632 715 Q39.1779 717.642 45.2253 717.642 L64.0042 717.642 L64.0042 723.53 L28.3562 723.53 L28.3562 717.642 L33.8944 717.642 Q30.6479 715.796 29.0883 712.836 Q27.4968 709.876 27.4968 705.643 Q27.4968 705.038 27.5923 704.306 Q27.656 703.574 27.8151 702.683 L33.8307 702.651 Z" fill="#000000" fill-rule="nonzero" fill-opacity="1" /><path clip-path="url(#clip880)" d="M28.3562 696.508 L28.3562 690.651 L64.0042 690.651 L64.0042 696.508 L28.3562 696.508 M14.479 696.508 L14.479 690.651 L21.895 690.651 L21.895 696.508 L14.479 696.508 Z" fill="#000000" fill-rule="nonzero" fill-opacity="1" /><path clip-path="url(#clip880)" d="M18.2347 672.605 L28.3562 672.605 L28.3562 660.542 L32.9077 660.542 L32.9077 672.605 L52.2594 672.605 Q56.6199 672.605 57.8613 671.427 Q59.1026 670.217 59.1026 666.557 L59.1026 660.542 L64.0042 660.542 L64.0042 666.557 Q64.0042 673.337 61.4897 675.915 Q58.9434 678.493 52.2594 678.493 L32.9077 678.493 L32.9077 682.79 L28.3562 682.79 L28.3562 678.493 L18.2347 678.493 L18.2347 672.605 Z" fill="#000000" fill-rule="nonzero" fill-opacity="1" /><path clip-path="url(#clip880)" d="M67.3143 638.007 Q73.68 640.49 75.6216 642.845 Q77.5631 645.2 77.5631 649.147 L77.5631 653.826 L72.6615 653.826 L72.6615 650.388 Q72.6615 647.969 71.5157 646.633 Q70.3699 645.296 66.1048 643.672 L63.4312 642.622 L28.3562 657.04 L28.3562 650.834 L56.238 639.694 L28.3562 628.554 L28.3562 622.347 L67.3143 638.007 Z" fill="#000000" fill-rule="nonzero" fill-opacity="1" /><path clip-path="url(#clip880)" d="M423.147 14.0809 L423.147 22.0612 Q418.489 19.8332 414.357 18.7395 Q410.225 17.6457 406.377 17.6457 Q399.693 17.6457 396.047 20.2383 Q392.441 22.8309 392.441 27.611 Q392.441 31.6214 394.831 33.6873 Q397.262 35.7128 403.987 36.9686 L408.929 37.9813 Q418.084 39.7232 422.418 44.1387 Q426.793 48.5136 426.793 55.8863 Q426.793 64.6767 420.879 69.2137 Q415.005 73.7508 403.622 73.7508 Q399.328 73.7508 394.467 72.7785 Q389.646 71.8063 384.461 69.9024 L384.461 61.4765 Q389.444 64.2716 394.224 65.6895 Q399.004 67.1073 403.622 67.1073 Q410.63 67.1073 414.438 64.3527 Q418.246 61.598 418.246 56.4939 Q418.246 52.0379 415.491 49.5264 Q412.777 47.0148 406.539 45.759 L401.556 44.7868 Q392.401 42.9639 388.31 39.075 Q384.218 35.1862 384.218 28.2591 Q384.218 20.2383 389.849 15.6203 Q395.52 11.0023 405.445 11.0023 Q409.698 11.0023 414.114 11.7719 Q418.529 12.5416 423.147 14.0809 Z" fill="#000000" fill-rule="nonzero" fill-opacity="1" /><path clip-path="url(#clip880)" d="M456.81 32.4315 Q450.815 32.4315 447.331 37.1306 Q443.847 41.7891 443.847 49.9314 Q443.847 58.0738 447.291 62.7728 Q450.774 67.4314 456.81 67.4314 Q462.765 67.4314 466.249 62.7323 Q469.733 58.0333 469.733 49.9314 Q469.733 41.8701 466.249 37.1711 Q462.765 32.4315 456.81 32.4315 M456.81 26.1121 Q466.532 26.1121 472.082 32.4315 Q477.632 38.7509 477.632 49.9314 Q477.632 61.0714 472.082 67.4314 Q466.532 73.7508 456.81 73.7508 Q447.048 73.7508 441.498 67.4314 Q435.989 61.0714 435.989 49.9314 Q435.989 38.7509 441.498 32.4315 Q447.048 26.1121 456.81 26.1121 Z" fill="#000000" fill-rule="nonzero" fill-opacity="1" /><path clip-path="url(#clip880)" d="M516.278 34.1734 Q515.022 33.4443 513.523 33.1202 Q512.065 32.7556 510.282 32.7556 Q503.963 32.7556 500.56 36.8875 Q497.198 40.9789 497.198 48.6757 L497.198 72.576 L489.704 72.576 L489.704 27.2059 L497.198 27.2059 L497.198 34.2544 Q499.547 30.1225 503.315 28.1376 Q507.082 26.1121 512.47 26.1121 Q513.239 26.1121 514.171 26.2337 Q515.103 26.3147 516.237 26.5172 L516.278 34.1734 Z" fill="#000000" fill-rule="nonzero" fill-opacity="1" /><path clip-path="url(#clip880)" d="M531.468 14.324 L531.468 27.2059 L546.821 27.2059 L546.821 32.9987 L531.468 32.9987 L531.468 57.6282 Q531.468 63.1779 532.967 64.7578 Q534.507 66.3376 539.165 66.3376 L546.821 66.3376 L546.821 72.576 L539.165 72.576 Q530.537 72.576 527.256 69.3758 Q523.974 66.1351 523.974 57.6282 L523.974 32.9987 L518.506 32.9987 L518.506 27.2059 L523.974 27.2059 L523.974 14.324 L531.468 14.324 Z" fill="#000000" fill-rule="nonzero" fill-opacity="1" /><path clip-path="url(#clip880)" d="M595.432 48.0275 L595.432 51.6733 L561.162 51.6733 Q561.648 59.3701 565.78 63.421 Q569.952 67.4314 577.365 67.4314 Q581.659 67.4314 585.67 66.3781 Q589.72 65.3249 593.69 63.2184 L593.69 70.267 Q589.68 71.9684 585.467 72.8596 Q581.254 73.7508 576.92 73.7508 Q566.063 73.7508 559.703 67.4314 Q553.384 61.1119 553.384 50.3365 Q553.384 39.1965 559.379 32.6746 Q565.415 26.1121 575.623 26.1121 Q584.778 26.1121 590.085 32.0264 Q595.432 37.9003 595.432 48.0275 M587.979 45.84 Q587.898 39.7232 584.535 36.0774 Q581.214 32.4315 575.704 32.4315 Q569.466 32.4315 565.699 35.9558 Q561.972 39.4801 561.405 45.8805 L587.979 45.84 Z" fill="#000000" fill-rule="nonzero" fill-opacity="1" /><path clip-path="url(#clip880)" d="M637.521 34.0924 L637.521 9.54393 L644.975 9.54393 L644.975 72.576 L637.521 72.576 L637.521 65.7705 Q635.172 69.8214 631.566 71.8063 Q628.002 73.7508 622.978 73.7508 Q614.755 73.7508 609.57 67.1883 Q604.425 60.6258 604.425 49.9314 Q604.425 39.2371 609.57 32.6746 Q614.755 26.1121 622.978 26.1121 Q628.002 26.1121 631.566 28.0971 Q635.172 30.0415 637.521 34.0924 M612.122 49.9314 Q612.122 58.1548 615.484 62.8538 Q618.887 67.5124 624.801 67.5124 Q630.716 67.5124 634.118 62.8538 Q637.521 58.1548 637.521 49.9314 Q637.521 41.7081 634.118 37.0496 Q630.716 32.3505 624.801 32.3505 Q618.887 32.3505 615.484 37.0496 Q612.122 41.7081 612.122 49.9314 Z" fill="#000000" fill-rule="nonzero" fill-opacity="1" /><path clip-path="url(#clip880)" d="M719.349 28.9478 L719.349 35.9153 Q716.19 34.1734 712.99 33.3227 Q709.83 32.4315 706.589 32.4315 Q699.338 32.4315 695.328 37.0496 Q691.317 41.6271 691.317 49.9314 Q691.317 58.2358 695.328 62.8538 Q699.338 67.4314 706.589 67.4314 Q709.83 67.4314 712.99 66.5807 Q716.19 65.6895 719.349 63.9476 L719.349 70.8341 Q716.23 72.2924 712.868 73.0216 Q709.546 73.7508 705.779 73.7508 Q695.53 73.7508 689.494 67.3098 Q683.458 60.8689 683.458 49.9314 Q683.458 38.832 689.535 32.472 Q695.652 26.1121 706.265 26.1121 Q709.708 26.1121 712.99 26.8413 Q716.271 27.5299 719.349 28.9478 Z" fill="#000000" fill-rule="nonzero" fill-opacity="1" /><path clip-path="url(#clip880)" d="M749.893 32.4315 Q743.898 32.4315 740.414 37.1306 Q736.93 41.7891 736.93 49.9314 Q736.93 58.0738 740.374 62.7728 Q743.857 67.4314 749.893 67.4314 Q755.848 67.4314 759.332 62.7323 Q762.816 58.0333 762.816 49.9314 Q762.816 41.8701 759.332 37.1711 Q755.848 32.4315 749.893 32.4315 M749.893 26.1121 Q759.615 26.1121 765.165 32.4315 Q770.715 38.7509 770.715 49.9314 Q770.715 61.0714 765.165 67.4314 Q759.615 73.7508 749.893 73.7508 Q740.131 73.7508 734.581 67.4314 Q729.072 61.0714 729.072 49.9314 Q729.072 38.7509 734.581 32.4315 Q740.131 26.1121 749.893 26.1121 Z" fill="#000000" fill-rule="nonzero" fill-opacity="1" /><path clip-path="url(#clip880)" d="M811.994 28.5427 L811.994 35.5912 Q808.834 33.9709 805.431 33.1607 Q802.028 32.3505 798.383 32.3505 Q792.833 32.3505 790.038 34.0519 Q787.283 35.7533 787.283 39.156 Q787.283 41.7486 789.268 43.2475 Q791.253 44.7058 797.248 46.0426 L799.8 46.6097 Q807.74 48.3111 811.062 51.4303 Q814.424 54.509 814.424 60.0587 Q814.424 66.3781 809.401 70.0644 Q804.418 73.7508 795.668 73.7508 Q792.023 73.7508 788.053 73.0216 Q784.123 72.3329 779.748 70.9151 L779.748 63.2184 Q783.88 65.3654 787.891 66.4591 Q791.901 67.5124 795.83 67.5124 Q801.097 67.5124 803.932 65.73 Q806.768 63.9071 806.768 60.6258 Q806.768 57.5877 804.702 55.9673 Q802.677 54.3469 795.749 52.8481 L793.157 52.2405 Q786.23 50.7821 783.151 47.7845 Q780.072 44.7463 780.072 39.4801 Q780.072 33.0797 784.609 29.5959 Q789.147 26.1121 797.491 26.1121 Q801.623 26.1121 805.269 26.7198 Q808.915 27.3274 811.994 28.5427 Z" fill="#000000" fill-rule="nonzero" fill-opacity="1" /><path clip-path="url(#clip880)" d="M826.293 27.2059 L833.747 27.2059 L833.747 72.576 L826.293 72.576 L826.293 27.2059 M826.293 9.54393 L833.747 9.54393 L833.747 18.9825 L826.293 18.9825 L826.293 9.54393 Z" fill="#000000" fill-rule="nonzero" fill-opacity="1" /><path clip-path="url(#clip880)" d="M887.057 45.1919 L887.057 72.576 L879.603 72.576 L879.603 45.4349 Q879.603 38.994 877.092 35.7938 Q874.58 32.5936 869.557 32.5936 Q863.521 32.5936 860.037 36.4419 Q856.554 40.2903 856.554 46.9338 L856.554 72.576 L849.059 72.576 L849.059 27.2059 L856.554 27.2059 L856.554 34.2544 Q859.227 30.163 862.832 28.1376 Q866.478 26.1121 871.218 26.1121 Q879.036 26.1121 883.046 30.9732 Q887.057 35.7938 887.057 45.1919 Z" fill="#000000" fill-rule="nonzero" fill-opacity="1" /><path clip-path="url(#clip880)" d="M940.731 48.0275 L940.731 51.6733 L906.461 51.6733 Q906.947 59.3701 911.079 63.421 Q915.251 67.4314 922.664 67.4314 Q926.958 67.4314 930.969 66.3781 Q935.02 65.3249 938.989 63.2184 L938.989 70.267 Q934.979 71.9684 930.766 72.8596 Q926.553 73.7508 922.219 73.7508 Q911.362 73.7508 905.002 67.4314 Q898.683 61.1119 898.683 50.3365 Q898.683 39.1965 904.678 32.6746 Q910.714 26.1121 920.922 26.1121 Q930.077 26.1121 935.384 32.0264 Q940.731 37.9003 940.731 48.0275 M933.278 45.84 Q933.197 39.7232 929.834 36.0774 Q926.513 32.4315 921.003 32.4315 Q914.765 32.4315 910.998 35.9558 Q907.271 39.4801 906.704 45.8805 L933.278 45.84 Z" fill="#000000" fill-rule="nonzero" fill-opacity="1" /><path clip-path="url(#clip880)" d="M1008.26 28.5427 L1008.26 35.5912 Q1005.1 33.9709 1001.7 33.1607 Q998.295 32.3505 994.649 32.3505 Q989.099 32.3505 986.304 34.0519 Q983.549 35.7533 983.549 39.156 Q983.549 41.7486 985.534 43.2475 Q987.519 44.7058 993.515 46.0426 L996.067 46.6097 Q1004.01 48.3111 1007.33 51.4303 Q1010.69 54.509 1010.69 60.0587 Q1010.69 66.3781 1005.67 70.0644 Q1000.68 73.7508 991.935 73.7508 Q988.289 73.7508 984.319 73.0216 Q980.39 72.3329 976.015 70.9151 L976.015 63.2184 Q980.147 65.3654 984.157 66.4591 Q988.167 67.5124 992.097 67.5124 Q997.363 67.5124 1000.2 65.73 Q1003.03 63.9071 1003.03 60.6258 Q1003.03 57.5877 1000.97 55.9673 Q998.943 54.3469 992.016 52.8481 L989.423 52.2405 Q982.496 50.7821 979.417 47.7845 Q976.339 44.7463 976.339 39.4801 Q976.339 33.0797 980.876 29.5959 Q985.413 26.1121 993.758 26.1121 Q997.89 26.1121 1001.54 26.7198 Q1005.18 27.3274 1008.26 28.5427 Z" fill="#000000" fill-rule="nonzero" fill-opacity="1" /><path clip-path="url(#clip880)" d="M1022.56 27.2059 L1030.01 27.2059 L1030.01 72.576 L1022.56 72.576 L1022.56 27.2059 M1022.56 9.54393 L1030.01 9.54393 L1030.01 18.9825 L1022.56 18.9825 L1022.56 9.54393 Z" fill="#000000" fill-rule="nonzero" fill-opacity="1" /><path clip-path="url(#clip880)" d="M1080.93 35.9153 Q1083.73 30.8922 1087.62 28.5022 Q1091.51 26.1121 1096.77 26.1121 Q1103.86 26.1121 1107.71 31.0947 Q1111.56 36.0368 1111.56 45.1919 L1111.56 72.576 L1104.06 72.576 L1104.06 45.4349 Q1104.06 38.913 1101.75 35.7533 Q1099.45 32.5936 1094.71 32.5936 Q1088.91 32.5936 1085.55 36.4419 Q1082.19 40.2903 1082.19 46.9338 L1082.19 72.576 L1074.69 72.576 L1074.69 45.4349 Q1074.69 38.8725 1072.39 35.7533 Q1070.08 32.5936 1065.26 32.5936 Q1059.54 32.5936 1056.18 36.4824 Q1052.82 40.3308 1052.82 46.9338 L1052.82 72.576 L1045.33 72.576 L1045.33 27.2059 L1052.82 27.2059 L1052.82 34.2544 Q1055.37 30.082 1058.94 28.0971 Q1062.5 26.1121 1067.4 26.1121 Q1072.35 26.1121 1075.79 28.6237 Q1079.27 31.1352 1080.93 35.9153 Z" fill="#000000" fill-rule="nonzero" fill-opacity="1" /><path clip-path="url(#clip880)" d="M1126.42 27.2059 L1133.88 27.2059 L1133.88 72.576 L1126.42 72.576 L1126.42 27.2059 M1126.42 9.54393 L1133.88 9.54393 L1133.88 18.9825 L1126.42 18.9825 L1126.42 9.54393 Z" fill="#000000" fill-rule="nonzero" fill-opacity="1" /><path clip-path="url(#clip880)" d="M1149.47 9.54393 L1156.93 9.54393 L1156.93 72.576 L1149.47 72.576 L1149.47 9.54393 Z" fill="#000000" fill-rule="nonzero" fill-opacity="1" /><path clip-path="url(#clip880)" d="M1193.14 49.7694 Q1184.11 49.7694 1180.63 51.8354 Q1177.14 53.9013 1177.14 58.8839 Q1177.14 62.8538 1179.73 65.2034 Q1182.37 67.5124 1186.86 67.5124 Q1193.06 67.5124 1196.79 63.1374 Q1200.56 58.7219 1200.56 51.4303 L1200.56 49.7694 L1193.14 49.7694 M1208.01 46.6907 L1208.01 72.576 L1200.56 72.576 L1200.56 65.6895 Q1198 69.8214 1194.2 71.8063 Q1190.39 73.7508 1184.88 73.7508 Q1177.91 73.7508 1173.78 69.8619 Q1169.69 65.9325 1169.69 59.3701 Q1169.69 51.7138 1174.79 47.825 Q1179.94 43.9361 1190.11 43.9361 L1200.56 43.9361 L1200.56 43.2069 Q1200.56 38.0623 1197.15 35.2672 Q1193.79 32.4315 1187.67 32.4315 Q1183.79 32.4315 1180.1 33.3632 Q1176.41 34.295 1173.01 36.1584 L1173.01 29.2718 Q1177.1 27.692 1180.95 26.9223 Q1184.8 26.1121 1188.44 26.1121 Q1198.29 26.1121 1203.15 31.2163 Q1208.01 36.3204 1208.01 46.6907 Z" fill="#000000" fill-rule="nonzero" fill-opacity="1" /><path clip-path="url(#clip880)" d="M1249.65 34.1734 Q1248.4 33.4443 1246.9 33.1202 Q1245.44 32.7556 1243.66 32.7556 Q1237.34 32.7556 1233.94 36.8875 Q1230.57 40.9789 1230.57 48.6757 L1230.57 72.576 L1223.08 72.576 L1223.08 27.2059 L1230.57 27.2059 L1230.57 34.2544 Q1232.92 30.1225 1236.69 28.1376 Q1240.46 26.1121 1245.85 26.1121 Q1246.62 26.1121 1247.55 26.2337 Q1248.48 26.3147 1249.61 26.5172 L1249.65 34.1734 Z" fill="#000000" fill-rule="nonzero" fill-opacity="1" /><path clip-path="url(#clip880)" d="M1257.47 27.2059 L1264.93 27.2059 L1264.93 72.576 L1257.47 72.576 L1257.47 27.2059 M1257.47 9.54393 L1264.93 9.54393 L1264.93 18.9825 L1257.47 18.9825 L1257.47 9.54393 Z" fill="#000000" fill-rule="nonzero" fill-opacity="1" /><path clip-path="url(#clip880)" d="M1287.89 14.324 L1287.89 27.2059 L1303.25 27.2059 L1303.25 32.9987 L1287.89 32.9987 L1287.89 57.6282 Q1287.89 63.1779 1289.39 64.7578 Q1290.93 66.3376 1295.59 66.3376 L1303.25 66.3376 L1303.25 72.576 L1295.59 72.576 Q1286.96 72.576 1283.68 69.3758 Q1280.4 66.1351 1280.4 57.6282 L1280.4 32.9987 L1274.93 32.9987 L1274.93 27.2059 L1280.4 27.2059 L1280.4 14.324 L1287.89 14.324 Z" fill="#000000" fill-rule="nonzero" fill-opacity="1" /><path clip-path="url(#clip880)" d="M1313.05 27.2059 L1320.5 27.2059 L1320.5 72.576 L1313.05 72.576 L1313.05 27.2059 M1313.05 9.54393 L1320.5 9.54393 L1320.5 18.9825 L1313.05 18.9825 L1313.05 9.54393 Z" fill="#000000" fill-rule="nonzero" fill-opacity="1" /><path clip-path="url(#clip880)" d="M1374.91 48.0275 L1374.91 51.6733 L1340.64 51.6733 Q1341.12 59.3701 1345.25 63.421 Q1349.43 67.4314 1356.84 67.4314 Q1361.13 67.4314 1365.14 66.3781 Q1369.2 65.3249 1373.17 63.2184 L1373.17 70.267 Q1369.15 71.9684 1364.94 72.8596 Q1360.73 73.7508 1356.39 73.7508 Q1345.54 73.7508 1339.18 67.4314 Q1332.86 61.1119 1332.86 50.3365 Q1332.86 39.1965 1338.85 32.6746 Q1344.89 26.1121 1355.1 26.1121 Q1364.25 26.1121 1369.56 32.0264 Q1374.91 37.9003 1374.91 48.0275 M1367.45 45.84 Q1367.37 39.7232 1364.01 36.0774 Q1360.69 32.4315 1355.18 32.4315 Q1348.94 32.4315 1345.17 35.9558 Q1341.45 39.4801 1340.88 45.8805 L1367.45 45.84 Z" fill="#000000" fill-rule="nonzero" fill-opacity="1" /><path clip-path="url(#clip880)" d="M1416.06 28.5427 L1416.06 35.5912 Q1412.9 33.9709 1409.5 33.1607 Q1406.1 32.3505 1402.45 32.3505 Q1396.9 32.3505 1394.11 34.0519 Q1391.35 35.7533 1391.35 39.156 Q1391.35 41.7486 1393.34 43.2475 Q1395.32 44.7058 1401.32 46.0426 L1403.87 46.6097 Q1411.81 48.3111 1415.13 51.4303 Q1418.49 54.509 1418.49 60.0587 Q1418.49 66.3781 1413.47 70.0644 Q1408.49 73.7508 1399.74 73.7508 Q1396.09 73.7508 1392.12 73.0216 Q1388.19 72.3329 1383.82 70.9151 L1383.82 63.2184 Q1387.95 65.3654 1391.96 66.4591 Q1395.97 67.5124 1399.9 67.5124 Q1405.17 67.5124 1408 65.73 Q1410.84 63.9071 1410.84 60.6258 Q1410.84 57.5877 1408.77 55.9673 Q1406.75 54.3469 1399.82 52.8481 L1397.23 52.2405 Q1390.3 50.7821 1387.22 47.7845 Q1384.14 44.7463 1384.14 39.4801 Q1384.14 33.0797 1388.68 29.5959 Q1393.22 26.1121 1401.56 26.1121 Q1405.69 26.1121 1409.34 26.7198 Q1412.99 27.3274 1416.06 28.5427 Z" fill="#000000" fill-rule="nonzero" fill-opacity="1" /><path clip-path="url(#clip880)" d="M1489.39 28.9478 L1489.39 35.9153 Q1486.23 34.1734 1483.03 33.3227 Q1479.87 32.4315 1476.63 32.4315 Q1469.37 32.4315 1465.36 37.0496 Q1461.35 41.6271 1461.35 49.9314 Q1461.35 58.2358 1465.36 62.8538 Q1469.37 67.4314 1476.63 67.4314 Q1479.87 67.4314 1483.03 66.5807 Q1486.23 65.6895 1489.39 63.9476 L1489.39 70.8341 Q1486.27 72.2924 1482.9 73.0216 Q1479.58 73.7508 1475.82 73.7508 Q1465.57 73.7508 1459.53 67.3098 Q1453.49 60.8689 1453.49 49.9314 Q1453.49 38.832 1459.57 32.472 Q1465.69 26.1121 1476.3 26.1121 Q1479.74 26.1121 1483.03 26.8413 Q1486.31 27.5299 1489.39 28.9478 Z" fill="#000000" fill-rule="nonzero" fill-opacity="1" /><path clip-path="url(#clip880)" d="M1541.16 48.0275 L1541.16 51.6733 L1506.89 51.6733 Q1507.37 59.3701 1511.5 63.421 Q1515.68 67.4314 1523.09 67.4314 Q1527.38 67.4314 1531.39 66.3781 Q1535.44 65.3249 1539.41 63.2184 L1539.41 70.267 Q1535.4 71.9684 1531.19 72.8596 Q1526.98 73.7508 1522.64 73.7508 Q1511.79 73.7508 1505.43 67.4314 Q1499.11 61.1119 1499.11 50.3365 Q1499.11 39.1965 1505.1 32.6746 Q1511.14 26.1121 1521.35 26.1121 Q1530.5 26.1121 1535.81 32.0264 Q1541.16 37.9003 1541.16 48.0275 M1533.7 45.84 Q1533.62 39.7232 1530.26 36.0774 Q1526.94 32.4315 1521.43 32.4315 Q1515.19 32.4315 1511.42 35.9558 Q1507.7 39.4801 1507.13 45.8805 L1533.7 45.84 Z" fill="#000000" fill-rule="nonzero" fill-opacity="1" /><path clip-path="url(#clip880)" d="M1553.39 9.54393 L1560.84 9.54393 L1560.84 72.576 L1553.39 72.576 L1553.39 9.54393 Z" fill="#000000" fill-rule="nonzero" fill-opacity="1" /><path clip-path="url(#clip880)" d="M1576.44 9.54393 L1583.89 9.54393 L1583.89 72.576 L1576.44 72.576 L1576.44 9.54393 Z" fill="#000000" fill-rule="nonzero" fill-opacity="1" /><path clip-path="url(#clip880)" d="M1628.33 65.6895 L1641.7 65.6895 L1641.7 19.5497 L1627.16 22.4663 L1627.16 15.0127 L1641.62 12.096 L1649.8 12.096 L1649.8 65.6895 L1663.17 65.6895 L1663.17 72.576 L1628.33 72.576 L1628.33 65.6895 Z" fill="#000000" fill-rule="nonzero" fill-opacity="1" /><path clip-path="url(#clip880)" d="M1697.2 17.4837 Q1690.88 17.4837 1687.68 23.7221 Q1684.52 29.92 1684.52 42.3968 Q1684.52 54.833 1687.68 61.0714 Q1690.88 67.2693 1697.2 67.2693 Q1703.56 67.2693 1706.72 61.0714 Q1709.92 54.833 1709.92 42.3968 Q1709.92 29.92 1706.72 23.7221 Q1703.56 17.4837 1697.2 17.4837 M1697.2 11.0023 Q1707.36 11.0023 1712.71 19.0636 Q1718.1 27.0843 1718.1 42.3968 Q1718.1 57.6687 1712.71 65.73 Q1707.36 73.7508 1697.2 73.7508 Q1687.03 73.7508 1681.64 65.73 Q1676.29 57.6687 1676.29 42.3968 Q1676.29 27.0843 1681.64 19.0636 Q1687.03 11.0023 1697.2 11.0023 Z" fill="#000000" fill-rule="nonzero" fill-opacity="1" /><path clip-path="url(#clip880)" d="M1749.98 17.4837 Q1743.66 17.4837 1740.46 23.7221 Q1737.3 29.92 1737.3 42.3968 Q1737.3 54.833 1740.46 61.0714 Q1743.66 67.2693 1749.98 67.2693 Q1756.34 67.2693 1759.5 61.0714 Q1762.7 54.833 1762.7 42.3968 Q1762.7 29.92 1759.5 23.7221 Q1756.34 17.4837 1749.98 17.4837 M1749.98 11.0023 Q1760.15 11.0023 1765.5 19.0636 Q1770.88 27.0843 1770.88 42.3968 Q1770.88 57.6687 1765.5 65.73 Q1760.15 73.7508 1749.98 73.7508 Q1739.81 73.7508 1734.43 65.73 Q1729.08 57.6687 1729.08 42.3968 Q1729.08 27.0843 1734.43 19.0636 Q1739.81 11.0023 1749.98 11.0023 Z" fill="#000000" fill-rule="nonzero" fill-opacity="1" /><path clip-path="url(#clip880)" d="M1810.58 27.2059 L1818.04 27.2059 L1818.04 72.576 L1810.58 72.576 L1810.58 27.2059 M1810.58 9.54393 L1818.04 9.54393 L1818.04 18.9825 L1810.58 18.9825 L1810.58 9.54393 Z" fill="#000000" fill-rule="nonzero" fill-opacity="1" /><path clip-path="url(#clip880)" d="M1841 14.324 L1841 27.2059 L1856.36 27.2059 L1856.36 32.9987 L1841 32.9987 L1841 57.6282 Q1841 63.1779 1842.5 64.7578 Q1844.04 66.3376 1848.7 66.3376 L1856.36 66.3376 L1856.36 72.576 L1848.7 72.576 Q1840.07 72.576 1836.79 69.3758 Q1833.51 66.1351 1833.51 57.6282 L1833.51 32.9987 L1828.04 32.9987 L1828.04 27.2059 L1833.51 27.2059 L1833.51 14.324 L1841 14.324 Z" fill="#000000" fill-rule="nonzero" fill-opacity="1" /><path clip-path="url(#clip880)" d="M1904.97 48.0275 L1904.97 51.6733 L1870.7 51.6733 Q1871.18 59.3701 1875.32 63.421 Q1879.49 67.4314 1886.9 67.4314 Q1891.19 67.4314 1895.21 66.3781 Q1899.26 65.3249 1903.23 63.2184 L1903.23 70.267 Q1899.22 71.9684 1895 72.8596 Q1890.79 73.7508 1886.46 73.7508 Q1875.6 73.7508 1869.24 67.4314 Q1862.92 61.1119 1862.92 50.3365 Q1862.92 39.1965 1868.92 32.6746 Q1874.95 26.1121 1885.16 26.1121 Q1894.31 26.1121 1899.62 32.0264 Q1904.97 37.9003 1904.97 48.0275 M1897.51 45.84 Q1897.43 39.7232 1894.07 36.0774 Q1890.75 32.4315 1885.24 32.4315 Q1879 32.4315 1875.23 35.9558 Q1871.51 39.4801 1870.94 45.8805 L1897.51 45.84 Z" fill="#000000" fill-rule="nonzero" fill-opacity="1" /><path clip-path="url(#clip880)" d="M1943.49 34.1734 Q1942.24 33.4443 1940.74 33.1202 Q1939.28 32.7556 1937.5 32.7556 Q1931.18 32.7556 1927.77 36.8875 Q1924.41 40.9789 1924.41 48.6757 L1924.41 72.576 L1916.92 72.576 L1916.92 27.2059 L1924.41 27.2059 L1924.41 34.2544 Q1926.76 30.1225 1930.53 28.1376 Q1934.3 26.1121 1939.68 26.1121 Q1940.45 26.1121 1941.39 26.2337 Q1942.32 26.3147 1943.45 26.5172 L1943.49 34.1734 Z" fill="#000000" fill-rule="nonzero" fill-opacity="1" /><path clip-path="url(#clip880)" d="M1971.93 49.7694 Q1962.9 49.7694 1959.41 51.8354 Q1955.93 53.9013 1955.93 58.8839 Q1955.93 62.8538 1958.52 65.2034 Q1961.15 67.5124 1965.65 67.5124 Q1971.85 67.5124 1975.58 63.1374 Q1979.34 58.7219 1979.34 51.4303 L1979.34 49.7694 L1971.93 49.7694 M1986.8 46.6907 L1986.8 72.576 L1979.34 72.576 L1979.34 65.6895 Q1976.79 69.8214 1972.98 71.8063 Q1969.17 73.7508 1963.67 73.7508 Q1956.7 73.7508 1952.57 69.8619 Q1948.47 65.9325 1948.47 59.3701 Q1948.47 51.7138 1953.58 47.825 Q1958.72 43.9361 1968.89 43.9361 L1979.34 43.9361 L1979.34 43.2069 Q1979.34 38.0623 1975.94 35.2672 Q1972.58 32.4315 1966.46 32.4315 Q1962.57 32.4315 1958.89 33.3632 Q1955.2 34.295 1951.8 36.1584 L1951.8 29.2718 Q1955.89 27.692 1959.74 26.9223 Q1963.58 26.1121 1967.23 26.1121 Q1977.07 26.1121 1981.94 31.2163 Q1986.8 36.3204 1986.8 46.6907 Z" fill="#000000" fill-rule="nonzero" fill-opacity="1" /><path clip-path="url(#clip880)" d="M2009.52 14.324 L2009.52 27.2059 L2024.87 27.2059 L2024.87 32.9987 L2009.52 32.9987 L2009.52 57.6282 Q2009.52 63.1779 2011.02 64.7578 Q2012.56 66.3376 2017.22 66.3376 L2024.87 66.3376 L2024.87 72.576 L2017.22 72.576 Q2008.59 72.576 2005.31 69.3758 Q2002.03 66.1351 2002.03 57.6282 L2002.03 32.9987 L1996.56 32.9987 L1996.56 27.2059 L2002.03 27.2059 L2002.03 14.324 L2009.52 14.324 Z" fill="#000000" fill-rule="nonzero" fill-opacity="1" /><path clip-path="url(#clip880)" d="M2034.68 27.2059 L2042.13 27.2059 L2042.13 72.576 L2034.68 72.576 L2034.68 27.2059 M2034.68 9.54393 L2042.13 9.54393 L2042.13 18.9825 L2034.68 18.9825 L2034.68 9.54393 Z" fill="#000000" fill-rule="nonzero" fill-opacity="1" /><path clip-path="url(#clip880)" d="M2075.31 32.4315 Q2069.31 32.4315 2065.83 37.1306 Q2062.35 41.7891 2062.35 49.9314 Q2062.35 58.0738 2065.79 62.7728 Q2069.27 67.4314 2075.31 67.4314 Q2081.26 67.4314 2084.75 62.7323 Q2088.23 58.0333 2088.23 49.9314 Q2088.23 41.8701 2084.75 37.1711 Q2081.26 32.4315 2075.31 32.4315 M2075.31 26.1121 Q2085.03 26.1121 2090.58 32.4315 Q2096.13 38.7509 2096.13 49.9314 Q2096.13 61.0714 2090.58 67.4314 Q2085.03 73.7508 2075.31 73.7508 Q2065.55 73.7508 2060 67.4314 Q2054.49 61.0714 2054.49 49.9314 Q2054.49 38.7509 2060 32.4315 Q2065.55 26.1121 2075.31 26.1121 Z" fill="#000000" fill-rule="nonzero" fill-opacity="1" /><path clip-path="url(#clip880)" d="M2146.2 45.1919 L2146.2 72.576 L2138.75 72.576 L2138.75 45.4349 Q2138.75 38.994 2136.23 35.7938 Q2133.72 32.5936 2128.7 32.5936 Q2122.66 32.5936 2119.18 36.4419 Q2115.7 40.2903 2115.7 46.9338 L2115.7 72.576 L2108.2 72.576 L2108.2 27.2059 L2115.7 27.2059 L2115.7 34.2544 Q2118.37 30.163 2121.98 28.1376 Q2125.62 26.1121 2130.36 26.1121 Q2138.18 26.1121 2142.19 30.9732 Q2146.2 35.7938 2146.2 45.1919 Z" fill="#000000" fill-rule="nonzero" fill-opacity="1" /><path clip-path="url(#clip880)" d="M2189.91 65.6895 L2203.28 65.6895 L2203.28 19.5497 L2188.73 22.4663 L2188.73 15.0127 L2203.2 12.096 L2211.38 12.096 L2211.38 65.6895 L2224.75 65.6895 L2224.75 72.576 L2189.91 72.576 L2189.91 65.6895 Z" fill="#000000" fill-rule="nonzero" fill-opacity="1" /><polyline clip-path="url(#clip882)" style="stroke:#009af9; stroke-linecap:round; stroke-linejoin:round; stroke-width:4; stroke-opacity:1; fill:none" points="315.545,1386.4 317.525,1380.99 319.505,1378.32 321.484,1376.47 323.464,1375.39 325.444,1375.33 327.424,1373.69 329.404,1371.19 331.384,1370.54 333.364,1368.74 335.343,1364.98 337.323,1364.86 339.303,1363.24 341.283,1363.23 343.263,1362.49 345.243,1362.28 347.223,1360.18 349.202,1360.07 351.182,1358.07 353.162,1356.75 355.142,1356.62 357.122,1355.13 359.102,1353.87 361.082,1353.42 363.061,1352.38 365.041,1351.58 367.021,1349.12 369.001,1346.55 370.981,1345.7 372.961,1345.56 374.941,1345.13 376.92,1342.16 378.9,1341.85 380.88,1340.82 382.86,1339.83 384.84,1338.13 386.82,1337.88 388.8,1337.76 390.779,1336.1 392.759,1335.62 394.739,1333.88 396.719,1331.45 398.699,1327.89 400.679,1327.81 402.659,1327.79 404.638,1326.3 406.618,1326.28 408.598,1325.81 410.578,1325.24 412.558,1321.66 414.538,1321.07 416.517,1320.8 418.497,1320.8 420.477,1320.62 422.457,1320.48 424.437,1320.44 426.417,1320.1 428.397,1319.01 430.376,1318.01 432.356,1317.56 434.336,1315.51 436.316,1315.48 438.296,1315.31 440.276,1315.27 442.256,1314.65 444.235,1314.4 446.215,1314.35 448.195,1313.78 450.175,1312.56 452.155,1311.61 454.135,1311.38 456.115,1311.14 458.094,1310.26 460.074,1309.92 462.054,1309.58 464.034,1308.16 466.014,1307.95 467.994,1307.9 469.974,1307.32 471.953,1305.7 473.933,1305.36 475.913,1304.69 477.893,1303.17 479.873,1301.62 481.853,1301.59 483.833,1300.71 485.812,1300.01 487.792,1299.51 489.772,1299.47 491.752,1298.96 493.732,1297.53 495.712,1297.4 497.692,1296.56 499.671,1296.4 501.651,1296.16 503.631,1295.52 505.611,1294.64 507.591,1294.44 509.571,1294.01 511.551,1293.16 513.53,1293.07 515.51,1292.28 517.49,1291.65 519.47,1290.88 521.45,1290.55 523.43,1290.44 525.409,1289.88 527.389,1288.47 529.369,1287.47 531.349,1287.22 533.329,1287.05 535.309,1286.54 537.289,1286.45 539.268,1286.22 541.248,1285.57 543.228,1285.5 545.208,1285.36 547.188,1284.99 549.168,1284.8 551.148,1284.75 553.127,1283.99 555.107,1283.46 557.087,1283.35 559.067,1283.14 561.047,1282.53 563.027,1282.02 565.007,1281.18 566.986,1281.02 568.966,1280.23 570.946,1279.06 572.926,1278.57 574.906,1278.57 576.886,1277.94 578.866,1277.72 580.845,1277.51 582.825,1277.03 584.805,1276.62 586.785,1276.61 588.765,1275.48 590.745,1274.75 592.725,1274.43 594.704,1274.42 596.684,1274.13 598.664,1273.65 600.644,1273.58 602.624,1273.19 604.604,1273.09 606.584,1272.87 608.563,1272.65 610.543,1272.64 612.523,1271.75 614.503,1271.71 616.483,1270.27 618.463,1270.07 620.443,1269.59 622.422,1269.22 624.402,1269.12 626.382,1268.81 628.362,1268.43 630.342,1267.78 632.322,1267.22 634.301,1267 636.281,1266.89 638.261,1265.24 640.241,1264.97 642.221,1264.91 644.201,1264.76 646.181,1264.18 648.16,1263.46 650.14,1263.45 652.12,1263.27 654.1,1263.1 656.08,1262.76 658.06,1261.92 660.04,1261.43 662.019,1261.34 663.999,1260.4 665.979,1260.05 667.959,1259.78 669.939,1259.64 671.919,1259.43 673.899,1259.36 675.878,1259.35 677.858,1259.28 679.838,1258.95 681.818,1258.87 683.798,1258.77 685.778,1258.51 687.758,1258.23 689.737,1258.05 691.717,1257.59 693.697,1257.55 695.677,1256.46 697.657,1255.01 699.637,1253.18 701.617,1252.73 703.596,1251.9 705.576,1251.27 707.556,1248.69 709.536,1248.42 711.516,1248.27 713.496,1247.55 715.476,1247.12 717.455,1246.8 719.435,1246.12 721.415,1245.81 723.395,1245.68 725.375,1245.51 727.355,1245.42 729.335,1244.56 731.314,1244.48 733.294,1244.11 735.274,1243.38 737.254,1243.07 739.234,1242.04 741.214,1239.78 743.194,1239.27 745.173,1238.55 747.153,1238.32 749.133,1238.14 751.113,1238.11 753.093,1237.81 755.073,1237.67 757.052,1237.64 759.032,1237.27 761.012,1237.04 762.992,1236.78 764.972,1236.43 766.952,1236.11 768.932,1235.44 770.911,1235.27 772.891,1235.26 774.871,1235.22 776.851,1233.78 778.831,1233.6 780.811,1233.25 782.791,1233.01 784.77,1232.69 786.75,1232.38 788.73,1232.34 790.71,1232.1 792.69,1232.05 794.67,1230.58 796.65,1229.53 798.629,1228.97 800.609,1228.29 802.589,1228.23 804.569,1227.9 806.549,1227.04 808.529,1225.56 810.509,1225.17 812.488,1224.55 814.468,1224.22 816.448,1224.1 818.428,1223.83 820.408,1223.51 822.388,1223.41 824.368,1222.9 826.347,1222.5 828.327,1222.03 830.307,1221.79 832.287,1221.11 834.267,1221.05 836.247,1220.8 838.227,1220.77 840.206,1218.77 842.186,1217.24 844.166,1216.88 846.146,1216.8 848.126,1215.62 850.106,1215.1 852.086,1214.29 854.065,1214.19 856.045,1213.58 858.025,1212.89 860.005,1212.54 861.985,1211.75 863.965,1211.58 865.944,1211.57 867.924,1210.45 869.904,1208.26 871.884,1208.06 873.864,1208.01 875.844,1206.93 877.824,1206.18 879.803,1206.02 881.783,1205.72 883.763,1204.32 885.743,1202.4 887.723,1200.41 889.703,1200.1 891.683,1200 893.662,1199.93 895.642,1199.38 897.622,1198.18 899.602,1196.12 901.582,1194.99 903.562,1194.68 905.542,1194.2 907.521,1194.11 909.501,1194.06 911.481,1193.27 913.461,1193.25 915.441,1193.18 917.421,1192.39 919.401,1192.14 921.38,1191.75 923.36,1190.32 925.34,1189.2 927.32,1188.52 929.3,1188.27 931.28,1188.1 933.26,1187.84 935.239,1187.17 937.219,1186.71 939.199,1186.52 941.179,1185.6 943.159,1185.43 945.139,1184.59 947.119,1184.46 949.098,1184.06 951.078,1183.71 953.058,1182.55 955.038,1180.85 957.018,1180.42 958.998,1179.74 960.978,1178.29 962.957,1178.24 964.937,1177.47 966.917,1177.46 968.897,1177.38 970.877,1177.38 972.857,1177.16 974.836,1177.07 976.816,1176.98 978.796,1175.63 980.776,1175.02 982.756,1174.67 984.736,1172.8 986.716,1172.21 988.695,1172.21 990.675,1172.19 992.655,1171.74 994.635,1170.54 996.615,1170.46 998.595,1169.95 1000.57,1169.73 1002.55,1169.4 1004.53,1169.1 1006.51,1169.08 1008.49,1167.69 1010.47,1167.08 1012.45,1165.65 1014.43,1165.35 1016.41,1163.55 1018.39,1163.38 1020.37,1162.39 1022.35,1162.32 1024.33,1162.31 1026.31,1161.45 1028.29,1161.29 1030.27,1160.4 1032.25,1159.24 1034.23,1158.86 1036.21,1154.6 1038.19,1154.16 1040.17,1152.62 1042.15,1152.48 1044.13,1150.97 1046.11,1149.71 1048.09,1149.58 1050.07,1149.37 1052.05,1148.68 1054.03,1147.55 1056.01,1147.1 1057.99,1145.8 1059.97,1145.49 1061.95,1145.34 1063.93,1144.48 1065.91,1142.64 1067.89,1142.43 1069.87,1140.5 1071.85,1139.74 1073.83,1138.44 1075.81,1137.79 1077.79,1136.29 1079.77,1135.15 1081.75,1133.47 1083.73,1131.43 1085.71,1129.54 1087.69,1128.88 1089.67,1127.4 1091.65,1127.25 1093.63,1126.77 1095.61,1126.24 1097.59,1122.91 1099.57,1122.26 1101.55,1121.81 1103.53,1120.37 1105.51,1120 1107.49,1119.33 1109.47,1118.55 1111.45,1118.06 1113.43,1117.98 1115.41,1117.5 1117.39,1116.07 1119.37,1113.41 1121.35,1112.64 1123.33,1112.49 1125.31,1111.93 1127.29,1111.27 1129.27,1110.33 1131.25,1108.04 1133.22,1108.02 1135.2,1107.21 1137.18,1106.76 1139.16,1104.77 1141.14,1104.75 1143.12,1101.67 1145.1,1101.51 1147.08,1101.34 1149.06,1101.3 1151.04,1101.08 1153.02,1099.41 1155,1097.81 1156.98,1096.66 1158.96,1095.17 1160.94,1094.61 1162.92,1094.13 1164.9,1092.3 1166.88,1089.72 1168.86,1089.38 1170.84,1088.91 1172.82,1088.4 1174.8,1086.67 1176.78,1085.35 1178.76,1083.42 1180.74,1083.04 1182.72,1082.76 1184.7,1082.55 1186.68,1082.12 1188.66,1082.09 1190.64,1081.69 1192.62,1081.32 1194.6,1081.24 1196.58,1080.37 1198.56,1080.17 1200.54,1079.33 1202.52,1078.75 1204.5,1077.79 1206.48,1076.03 1208.46,1075.67 1210.44,1073.8 1212.42,1073 1214.4,1072.95 1216.38,1072.44 1218.36,1072.12 1220.34,1071.26 1222.32,1070.81 1224.3,1070.6 1226.28,1067.47 1228.26,1065.87 1230.24,1065.74 1232.22,1065.24 1234.2,1065.03 1236.18,1063.62 1238.16,1062.66 1240.14,1062.15 1242.12,1062.03 1244.1,1061.99 1246.08,1061.96 1248.06,1061.46 1250.04,1060.37 1252.02,1059.75 1254,1058.22 1255.98,1057.77 1257.96,1057.5 1259.94,1056.88 1261.92,1056.65 1263.9,1056.57 1265.88,1055.12 1267.85,1054.81 1269.83,1054.41 1271.81,1054.04 1273.79,1053.55 1275.77,1053.51 1277.75,1052.47 1279.73,1051.34 1281.71,1050.9 1283.69,1050.66 1285.67,1048.88 1287.65,1047.99 1289.63,1047.93 1291.61,1047.77 1293.59,1047.48 1295.57,1046.55 1297.55,1045.36 1299.53,1045.2 1301.51,1045 1303.49,1044.82 1305.47,1044.38 1307.45,1044.25 1309.43,1043.85 1311.41,1043.31 1313.39,1043.1 1315.37,1042.86 1317.35,1042.55 1319.33,1041.99 1321.31,1041.53 1323.29,1040.4 1325.27,1040.29 1327.25,1040.19 1329.23,1040.16 1331.21,1040.04 1333.19,1039.75 1335.17,1039.45 1337.15,1039.44 1339.13,1039.38 1341.11,1039.11 1343.09,1039.04 1345.07,1037.96 1347.05,1037.7 1349.03,1037.45 1351.01,1037.39 1352.99,1037.03 1354.97,1036.73 1356.95,1036.13 1358.93,1035.9 1360.91,1035.28 1362.89,1035.16 1364.87,1034.47 1366.85,1034.06 1368.83,1033.66 1370.81,1033.62 1372.79,1032.71 1374.77,1032.71 1376.75,1032.44 1378.73,1032.16 1380.71,1031.91 1382.69,1031.04 1384.67,1031.01 1386.65,1030.58 1388.63,1030.13 1390.61,1029.88 1392.59,1029.23 1394.57,1029.14 1396.55,1028.88 1398.53,1028.69 1400.51,1028.53 1402.49,1028.18 1404.46,1027.96 1406.44,1027.94 1408.42,1027.82 1410.4,1027.2 1412.38,1026.42 1414.36,1026.4 1416.34,1026.09 1418.32,1026.07 1420.3,1025.45 1422.28,1025.09 1424.26,1025.01 1426.24,1024.37 1428.22,1024.24 1430.2,1024.16 1432.18,1024.13 1434.16,1024.02 1436.14,1023.83 1438.12,1023.13 1440.1,1023.04 1442.08,1022.96 1444.06,1022.24 1446.04,1022.02 1448.02,1021.76 1450,1021.66 1451.98,1020.88 1453.96,1020.35 1455.94,1020.29 1457.92,1020.28 1459.9,1020.05 1461.88,1019.91 1463.86,1018.76 1465.84,1018.49 1467.82,1018.46 1469.8,1018.44 1471.78,1018.25 1473.76,1018.23 1475.74,1017.33 1477.72,1017.18 1479.7,1017.02 1481.68,1016.94 1483.66,1016.75 1485.64,1016.04 1487.62,1015.32 1489.6,1015.17 1491.58,1014.72 1493.56,1013.85 1495.54,1013.41 1497.52,1013.4 1499.5,1013.4 1501.48,1013.23 1503.46,1012.74 1505.44,1011.55 1507.42,1011.07 1509.4,1010.34 1511.38,1009.9 1513.36,1009.87 1515.34,1009.63 1517.32,1008.98 1519.3,1008.87 1521.28,1007.82 1523.26,1007.52 1525.24,1007.26 1527.22,1007.22 1529.2,1006.61 1531.18,1006.07 1533.16,1005.5 1535.14,1004.3 1537.12,1004.03 1539.1,1003.61 1541.07,1001.96 1543.05,1001.75 1545.03,1001.17 1547.01,999.345 1548.99,999.086 1550.97,997.386 1552.95,997.306 1554.93,995.599 1556.91,995.504 1558.89,995.196 1560.87,993.8 1562.85,993.167 1564.83,993.138 1566.81,993.004 1568.79,992.473 1570.77,991.545 1572.75,991.296 1574.73,990.143 1576.71,990.027 1578.69,989.157 1580.67,986.495 1582.65,984.89 1584.63,983.797 1586.61,983.756 1588.59,983.583 1590.57,982.582 1592.55,982.516 1594.53,982.278 1596.51,981.603 1598.49,980.997 1600.47,980.915 1602.45,978.075 1604.43,976.742 1606.41,976.589 1608.39,975.932 1610.37,975.9 1612.35,975.772 1614.33,974.046 1616.31,974.018 1618.29,971.903 1620.27,971.823 1622.25,971.694 1624.23,970.603 1626.21,969.687 1628.19,968.388 1630.17,968.277 1632.15,967.39 1634.13,964.42 1636.11,961.571 1638.09,960.99 1640.07,960.99 1642.05,959.519 1644.03,957.49 1646.01,956.786 1647.99,953.895 1649.97,952.802 1651.95,952.597 1653.93,951.9 1655.91,950.955 1657.89,949.523 1659.87,949.468 1661.85,946.64 1663.83,945.627 1665.81,945.32 1667.79,945.188 1669.77,943.11 1671.75,941.757 1673.73,940 1675.71,939.695 1677.68,938.276 1679.66,933.978 1681.64,933.099 1683.62,929.24 1685.6,927.269 1687.58,927.162 1689.56,921.105 1691.54,920.516 1693.52,916.987 1695.5,916.333 1697.48,914.424 1699.46,914.191 1701.44,913.959 1703.42,912.235 1705.4,909.892 1707.38,908.525 1709.36,906.222 1711.34,901.551 1713.32,899.688 1715.3,896.012 1717.28,894.608 1719.26,893.559 1721.24,893.172 1723.22,892.643 1725.2,890.288 1727.18,888.062 1729.16,886.36 1731.14,876.695 1733.12,872.385 1735.1,872.26 1737.08,869.99 1739.06,869.115 1741.04,868.186 1743.02,867.607 1745,865.653 1746.98,863.934 1748.96,863.12 1750.94,857.09 1752.92,853.71 1754.9,848.552 1756.88,843.971 1758.86,839.646 1760.84,838.889 1762.82,831.574 1764.8,830.234 1766.78,815.73 1768.76,814.119 1770.74,810.811 1772.72,805.381 1774.7,793.817 1776.68,781.802 1778.66,778.605 1780.64,775.551 1782.62,770.177 1784.6,766.947 1786.58,751.899 1788.56,750.235 1790.54,713.13 1792.52,692.179 1794.5,690.352 1796.48,676.183 1798.46,655.008 1800.44,340.179 1802.42,334.707 1804.4,326.275 1806.38,318.02 1808.36,313.534 1810.34,313.15 1812.31,307.036 1814.29,304.754 1816.27,298.447 1818.25,294.918 1820.23,287.801 1822.21,286.491 1824.19,285.796 1826.17,284.875 1828.15,276.737 1830.13,276.204 1832.11,272.716 1834.09,265.51 1836.07,261.67 1838.05,260.001 1840.03,258.106 1842.01,254.532 1843.99,253.005 1845.97,250.201 1847.95,247.977 1849.93,243.212 1851.91,241.495 1853.89,240.383 1855.87,235.605 1857.85,231.917 1859.83,229.82 1861.81,229.325 1863.79,228.12 1865.77,226.748 1867.75,222.481 1869.73,220.924 1871.71,219.925 1873.69,218.495 1875.67,218.472 1877.65,216.132 1879.63,215.219 1881.61,214.339 1883.59,211.94 1885.57,210.226 1887.55,209.573 1889.53,209.386 1891.51,208.641 1893.49,208.259 1895.47,207.7 1897.45,207.391 1899.43,207.195 1901.41,206.873 1903.39,205.787 1905.37,205.774 1907.35,205.186 1909.33,204.723 1911.31,203.978 1913.29,202.346 1915.27,201.985 1917.25,201.625 1919.23,200.341 1921.21,199.516 1923.19,198.975 1925.17,197.516 1927.15,197.272 1929.13,196.359 1931.11,195.847 1933.09,195.659 1935.07,195.649 1937.05,195.602 1939.03,194.758 1941.01,191.547 1942.99,191.058 1944.97,191.025 1946.95,190.866 1948.92,190.004 1950.9,188.975 1952.88,188.827 1954.86,188.646 1956.84,188.289 1958.82,187.908 1960.8,187.754 1962.78,187.511 1964.76,187.207 1966.74,185.126 1968.72,184.92 1970.7,184.76 1972.68,184.387 1974.66,184.209 1976.64,184.096 1978.62,183.843 1980.6,183.68 1982.58,183.626 1984.56,183.446 1986.54,182.982 1988.52,182.762 1990.5,182.759 1992.48,182.74 1994.46,182.515 1996.44,182.403 1998.42,182.008 2000.4,181.97 2002.38,181.695 2004.36,181.63 2006.34,181.615 2008.32,181.586 2010.3,181.503 2012.28,181.213 2014.26,181.098 2016.24,180.946 2018.22,180.811 2020.2,180.771 2022.18,180.32 2024.16,180.258 2026.14,180.098 2028.12,179.957 2030.1,179.792 2032.08,179.432 2034.06,179.288 2036.04,179.216 2038.02,179.027 2040,178.906 2041.98,178.811 2043.96,178.793 2045.94,178.102 2047.92,177.926 2049.9,177.718 2051.88,177.704 2053.86,177.651 2055.84,177.367 2057.82,177.048 2059.8,176.918 2061.78,176.85 2063.76,176.818 2065.74,176.553 2067.72,176.435 2069.7,175.959 2071.68,175.607 2073.66,175.588 2075.64,175.457 2077.62,175.394 2079.6,175.137 2081.58,174.737 2083.56,174.719 2085.53,174.65 2087.51,174.181 2089.49,174.133 2091.47,173.8 2093.45,173.79 2095.43,173.788 2097.41,173.749 2099.39,173.656 2101.37,173.518 2103.35,173.274 2105.33,173.237 2107.31,173.191 2109.29,173.119 2111.27,173.079 2113.25,172.922 2115.23,172.439 2117.21,172.435 2119.19,172.209 2121.17,172.162 2123.15,172.139 2125.13,171.956 2127.11,171.911 2129.09,171.83 2131.07,171.687 2133.05,171.642 2135.03,171.596 2137.01,171.457 2138.99,171.399 2140.97,171.297 2142.95,171.241 2144.93,171.221 2146.91,171.198 2148.89,171.12 2150.87,170.976 2152.85,170.918 2154.83,170.757 2156.81,170.706 2158.79,170.576 2160.77,170.033 2162.75,169.9 2164.73,169.747 2166.71,169.707 2168.69,169.682 2170.67,169.679 2172.65,169.665 2174.63,169.662 2176.61,169.629 2178.59,169.623 2180.57,169.589 2182.55,169.587 2184.53,169.437 2186.51,169.083 2188.49,168.895 2190.47,168.854 2192.45,168.831 2194.43,168.762 2196.41,168.741 2198.39,168.441 2200.37,168.333 2202.35,168.2 2204.33,168.124 2206.31,168.118 2208.29,168.022 2210.27,167.802 2212.25,167.702 2214.23,167.699 2216.21,167.561 2218.19,167.394 2220.17,167.348 2222.14,167.339 2224.12,167.171 2226.1,166.665 2228.08,166.573 2230.06,166.336 2232.04,166.304 2234.02,165.985 2236,165.803 2237.98,165.799 2239.96,165.692 2241.94,165.63 2243.92,165.582 2245.9,165.5 2247.88,165.477 2249.86,165.075 2251.84,164.88 2253.82,164.667 2255.8,164.549 2257.78,164.405 2259.76,164.404 2261.74,164.282 2263.72,164.022 2265.7,163.953 2267.68,163.414 2269.66,163.372 2271.64,163.205 2273.62,162.929 2275.6,162.92 2277.58,162.734 2279.56,162.678 2281.54,162.389 2283.52,162.137 2285.5,162.021 2287.48,161.407 2289.46,161.303 2291.44,161.191 2293.42,160.256 "/>
<path clip-path="url(#clip880)" d="M326.094 270.476 L755.354 270.476 L755.354 166.796 L326.094 166.796  Z" fill="#ffffff" fill-rule="evenodd" fill-opacity="1"/>
<polyline clip-path="url(#clip880)" style="stroke:#000000; stroke-linecap:round; stroke-linejoin:round; stroke-width:4; stroke-opacity:1; fill:none" points="326.094,270.476 755.354,270.476 755.354,166.796 326.094,166.796 326.094,270.476 "/>
<polyline clip-path="url(#clip880)" style="stroke:#009af9; stroke-linecap:round; stroke-linejoin:round; stroke-width:4; stroke-opacity:1; fill:none" points="349.389,218.636 489.158,218.636 "/>
<path clip-path="url(#clip880)" d="M534.699 202.49 L534.699 207.05 Q532.037 205.777 529.675 205.152 Q527.314 204.527 525.115 204.527 Q521.296 204.527 519.213 206.008 Q517.152 207.49 517.152 210.221 Q517.152 212.513 518.518 213.694 Q519.907 214.851 523.75 215.569 L526.574 216.147 Q531.805 217.143 534.282 219.666 Q536.782 222.166 536.782 226.379 Q536.782 231.402 533.402 233.994 Q530.046 236.587 523.541 236.587 Q521.088 236.587 518.31 236.031 Q515.555 235.476 512.592 234.388 L512.592 229.573 Q515.439 231.17 518.171 231.981 Q520.902 232.791 523.541 232.791 Q527.546 232.791 529.722 231.217 Q531.898 229.643 531.898 226.726 Q531.898 224.18 530.324 222.744 Q528.773 221.309 525.208 220.592 L522.361 220.036 Q517.129 218.995 514.791 216.772 Q512.453 214.55 512.453 210.592 Q512.453 206.008 515.671 203.37 Q518.912 200.731 524.583 200.731 Q527.013 200.731 529.537 201.171 Q532.06 201.61 534.699 202.49 Z" fill="#000000" fill-rule="nonzero" fill-opacity="1" /><path clip-path="url(#clip880)" d="M543.888 209.99 L548.148 209.99 L548.148 235.916 L543.888 235.916 L543.888 209.99 M543.888 199.897 L548.148 199.897 L548.148 205.291 L543.888 205.291 L543.888 199.897 Z" fill="#000000" fill-rule="nonzero" fill-opacity="1" /><path clip-path="url(#clip880)" d="M577.245 214.967 Q578.842 212.096 581.064 210.731 Q583.286 209.365 586.296 209.365 Q590.346 209.365 592.545 212.212 Q594.745 215.036 594.745 220.268 L594.745 235.916 L590.462 235.916 L590.462 220.407 Q590.462 216.68 589.143 214.874 Q587.823 213.069 585.115 213.069 Q581.805 213.069 579.884 215.268 Q577.962 217.467 577.962 221.263 L577.962 235.916 L573.68 235.916 L573.68 220.407 Q573.68 216.657 572.36 214.874 Q571.041 213.069 568.286 213.069 Q565.022 213.069 563.101 215.291 Q561.18 217.49 561.18 221.263 L561.18 235.916 L556.898 235.916 L556.898 209.99 L561.18 209.99 L561.18 214.018 Q562.638 211.633 564.675 210.499 Q566.712 209.365 569.513 209.365 Q572.337 209.365 574.305 210.8 Q576.296 212.235 577.245 214.967 Z" fill="#000000" fill-rule="nonzero" fill-opacity="1" /><path clip-path="url(#clip880)" d="M603.24 209.99 L607.499 209.99 L607.499 235.916 L603.24 235.916 L603.24 209.99 M603.24 199.897 L607.499 199.897 L607.499 205.291 L603.24 205.291 L603.24 199.897 Z" fill="#000000" fill-rule="nonzero" fill-opacity="1" /><path clip-path="url(#clip880)" d="M616.411 199.897 L620.67 199.897 L620.67 235.916 L616.411 235.916 L616.411 199.897 Z" fill="#000000" fill-rule="nonzero" fill-opacity="1" /><path clip-path="url(#clip880)" d="M641.365 222.883 Q636.203 222.883 634.212 224.064 Q632.221 225.244 632.221 228.092 Q632.221 230.36 633.703 231.703 Q635.207 233.022 637.777 233.022 Q641.318 233.022 643.448 230.522 Q645.601 227.999 645.601 223.832 L645.601 222.883 L641.365 222.883 M649.86 221.124 L649.86 235.916 L645.601 235.916 L645.601 231.981 Q644.142 234.342 641.967 235.476 Q639.791 236.587 636.642 236.587 Q632.661 236.587 630.3 234.365 Q627.962 232.119 627.962 228.369 Q627.962 223.994 630.879 221.772 Q633.818 219.55 639.629 219.55 L645.601 219.55 L645.601 219.133 Q645.601 216.194 643.656 214.596 Q641.735 212.976 638.24 212.976 Q636.017 212.976 633.911 213.508 Q631.805 214.041 629.86 215.106 L629.86 211.17 Q632.198 210.268 634.397 209.828 Q636.596 209.365 638.68 209.365 Q644.304 209.365 647.082 212.282 Q649.86 215.198 649.86 221.124 Z" fill="#000000" fill-rule="nonzero" fill-opacity="1" /><path clip-path="url(#clip880)" d="M673.656 213.971 Q672.939 213.555 672.082 213.37 Q671.249 213.161 670.23 213.161 Q666.619 213.161 664.675 215.522 Q662.753 217.86 662.753 222.258 L662.753 235.916 L658.471 235.916 L658.471 209.99 L662.753 209.99 L662.753 214.018 Q664.096 211.657 666.249 210.522 Q668.402 209.365 671.48 209.365 Q671.92 209.365 672.452 209.434 Q672.985 209.481 673.633 209.596 L673.656 213.971 Z" fill="#000000" fill-rule="nonzero" fill-opacity="1" /><path clip-path="url(#clip880)" d="M678.124 209.99 L682.383 209.99 L682.383 235.916 L678.124 235.916 L678.124 209.99 M678.124 199.897 L682.383 199.897 L682.383 205.291 L678.124 205.291 L678.124 199.897 Z" fill="#000000" fill-rule="nonzero" fill-opacity="1" /><path clip-path="url(#clip880)" d="M695.508 202.629 L695.508 209.99 L704.281 209.99 L704.281 213.3 L695.508 213.3 L695.508 227.374 Q695.508 230.545 696.364 231.448 Q697.244 232.351 699.906 232.351 L704.281 232.351 L704.281 235.916 L699.906 235.916 Q694.975 235.916 693.101 234.087 Q691.226 232.235 691.226 227.374 L691.226 213.3 L688.101 213.3 L688.101 209.99 L691.226 209.99 L691.226 202.629 L695.508 202.629 Z" fill="#000000" fill-rule="nonzero" fill-opacity="1" /><path clip-path="url(#clip880)" d="M720.67 238.323 Q718.864 242.953 717.151 244.365 Q715.438 245.777 712.568 245.777 L709.165 245.777 L709.165 242.212 L711.665 242.212 Q713.424 242.212 714.397 241.379 Q715.369 240.545 716.549 237.443 L717.313 235.499 L706.827 209.99 L711.341 209.99 L719.443 230.268 L727.545 209.99 L732.059 209.99 L720.67 238.323 Z" fill="#000000" fill-rule="nonzero" fill-opacity="1" /></svg>
