<?xml version="1.0" encoding="utf-8"?>
<svg xmlns="http://www.w3.org/2000/svg" xmlns:xlink="http://www.w3.org/1999/xlink" width="600" height="400" viewBox="0 0 2400 1600">
<defs>
  <clipPath id="clip830">
    <rect x="0" y="0" width="2400" height="1600"/>
  </clipPath>
</defs>
<path clip-path="url(#clip830)" d="M0 1600 L2400 1600 L2400 8.88178e-14 L0 8.88178e-14  Z" fill="#ffffff" fill-rule="evenodd" fill-opacity="1"/>
<defs>
  <clipPath id="clip831">
    <rect x="480" y="0" width="1681" height="1600"/>
  </clipPath>
</defs>
<path clip-path="url(#clip830)" d="M287.366 1423.18 L2352.76 1423.18 L2352.76 123.472 L287.366 123.472  Z" fill="#ffffff" fill-rule="evenodd" fill-opacity="1"/>
<defs>
  <clipPath id="clip832">
    <rect x="287" y="123" width="2066" height="1301"/>
  </clipPath>
</defs>
<polyline clip-path="url(#clip832)" style="stroke:#000000; stroke-linecap:round; stroke-linejoin:round; stroke-width:2; stroke-opacity:0.1; fill:none" points="343.87,1423.18 343.87,123.472 "/>
<polyline clip-path="url(#clip832)" style="stroke:#000000; stroke-linecap:round; stroke-linejoin:round; stroke-width:2; stroke-opacity:0.1; fill:none" points="831.478,1423.18 831.478,123.472 "/>
<polyline clip-path="url(#clip832)" style="stroke:#000000; stroke-linecap:round; stroke-linejoin:round; stroke-width:2; stroke-opacity:0.1; fill:none" points="1319.09,1423.18 1319.09,123.472 "/>
<polyline clip-path="url(#clip832)" style="stroke:#000000; stroke-linecap:round; stroke-linejoin:round; stroke-width:2; stroke-opacity:0.1; fill:none" points="1806.69,1423.18 1806.69,123.472 "/>
<polyline clip-path="url(#clip832)" style="stroke:#000000; stroke-linecap:round; stroke-linejoin:round; stroke-width:2; stroke-opacity:0.1; fill:none" points="2294.3,1423.18 2294.3,123.472 "/>
<polyline clip-path="url(#clip830)" style="stroke:#000000; stroke-linecap:round; stroke-linejoin:round; stroke-width:4; stroke-opacity:1; fill:none" points="287.366,1423.18 2352.76,1423.18 "/>
<polyline clip-path="url(#clip830)" style="stroke:#000000; stroke-linecap:round; stroke-linejoin:round; stroke-width:4; stroke-opacity:1; fill:none" points="343.87,1423.18 343.87,1404.28 "/>
<polyline clip-path="url(#clip830)" style="stroke:#000000; stroke-linecap:round; stroke-linejoin:round; stroke-width:4; stroke-opacity:1; fill:none" points="831.478,1423.18 831.478,1404.28 "/>
<polyline clip-path="url(#clip830)" style="stroke:#000000; stroke-linecap:round; stroke-linejoin:round; stroke-width:4; stroke-opacity:1; fill:none" points="1319.09,1423.18 1319.09,1404.28 "/>
<polyline clip-path="url(#clip830)" style="stroke:#000000; stroke-linecap:round; stroke-linejoin:round; stroke-width:4; stroke-opacity:1; fill:none" points="1806.69,1423.18 1806.69,1404.28 "/>
<polyline clip-path="url(#clip830)" style="stroke:#000000; stroke-linecap:round; stroke-linejoin:round; stroke-width:4; stroke-opacity:1; fill:none" points="2294.3,1423.18 2294.3,1404.28 "/>
<path clip-path="url(#clip830)" d="M343.87 1454.1 Q340.259 1454.1 338.43 1457.66 Q336.625 1461.2 336.625 1468.33 Q336.625 1475.44 338.43 1479.01 Q340.259 1482.55 343.87 1482.55 Q347.504 1482.55 349.31 1479.01 Q351.138 1475.44 351.138 1468.33 Q351.138 1461.2 349.31 1457.66 Q347.504 1454.1 343.87 1454.1 M343.87 1450.39 Q349.68 1450.39 352.736 1455 Q355.814 1459.58 355.814 1468.33 Q355.814 1477.06 352.736 1481.67 Q349.68 1486.25 343.87 1486.25 Q338.06 1486.25 334.981 1481.67 Q331.926 1477.06 331.926 1468.33 Q331.926 1459.58 334.981 1455 Q338.06 1450.39 343.87 1450.39 Z" fill="#000000" fill-rule="nonzero" fill-opacity="1" /><path clip-path="url(#clip830)" d="M795.17 1481.64 L811.489 1481.64 L811.489 1485.58 L789.545 1485.58 L789.545 1481.64 Q792.207 1478.89 796.79 1474.26 Q801.397 1469.61 802.577 1468.27 Q804.823 1465.74 805.702 1464.01 Q806.605 1462.25 806.605 1460.56 Q806.605 1457.8 804.661 1456.07 Q802.74 1454.33 799.638 1454.33 Q797.439 1454.33 794.985 1455.09 Q792.554 1455.86 789.777 1457.41 L789.777 1452.69 Q792.601 1451.55 795.054 1450.97 Q797.508 1450.39 799.545 1450.39 Q804.915 1450.39 808.11 1453.08 Q811.304 1455.77 811.304 1460.26 Q811.304 1462.39 810.494 1464.31 Q809.707 1466.2 807.601 1468.8 Q807.022 1469.47 803.92 1472.69 Q800.818 1475.88 795.17 1481.64 Z" fill="#000000" fill-rule="nonzero" fill-opacity="1" /><path clip-path="url(#clip830)" d="M821.351 1451.02 L839.707 1451.02 L839.707 1454.96 L825.633 1454.96 L825.633 1463.43 Q826.651 1463.08 827.67 1462.92 Q828.688 1462.73 829.707 1462.73 Q835.494 1462.73 838.874 1465.9 Q842.253 1469.08 842.253 1474.49 Q842.253 1480.07 838.781 1483.17 Q835.309 1486.25 828.989 1486.25 Q826.813 1486.25 824.545 1485.88 Q822.3 1485.51 819.892 1484.77 L819.892 1480.07 Q821.976 1481.2 824.198 1481.76 Q826.42 1482.32 828.897 1482.32 Q832.901 1482.32 835.239 1480.21 Q837.577 1478.1 837.577 1474.49 Q837.577 1470.88 835.239 1468.77 Q832.901 1466.67 828.897 1466.67 Q827.022 1466.67 825.147 1467.08 Q823.295 1467.5 821.351 1468.38 L821.351 1451.02 Z" fill="#000000" fill-rule="nonzero" fill-opacity="1" /><path clip-path="url(#clip830)" d="M861.466 1454.1 Q857.855 1454.1 856.026 1457.66 Q854.221 1461.2 854.221 1468.33 Q854.221 1475.44 856.026 1479.01 Q857.855 1482.55 861.466 1482.55 Q865.1 1482.55 866.906 1479.01 Q868.735 1475.44 868.735 1468.33 Q868.735 1461.2 866.906 1457.66 Q865.1 1454.1 861.466 1454.1 M861.466 1450.39 Q867.276 1450.39 870.332 1455 Q873.41 1459.58 873.41 1468.33 Q873.41 1477.06 870.332 1481.67 Q867.276 1486.25 861.466 1486.25 Q855.656 1486.25 852.577 1481.67 Q849.522 1477.06 849.522 1468.33 Q849.522 1459.58 852.577 1455 Q855.656 1450.39 861.466 1450.39 Z" fill="#000000" fill-rule="nonzero" fill-opacity="1" /><path clip-path="url(#clip830)" d="M1278.7 1451.02 L1297.06 1451.02 L1297.06 1454.96 L1282.99 1454.96 L1282.99 1463.43 Q1284 1463.08 1285.02 1462.92 Q1286.04 1462.73 1287.06 1462.73 Q1292.85 1462.73 1296.23 1465.9 Q1299.61 1469.08 1299.61 1474.49 Q1299.61 1480.07 1296.13 1483.17 Q1292.66 1486.25 1286.34 1486.25 Q1284.17 1486.25 1281.9 1485.88 Q1279.65 1485.51 1277.25 1484.77 L1277.25 1480.07 Q1279.33 1481.2 1281.55 1481.76 Q1283.77 1482.32 1286.25 1482.32 Q1290.25 1482.32 1292.59 1480.21 Q1294.93 1478.1 1294.93 1474.49 Q1294.93 1470.88 1292.59 1468.77 Q1290.25 1466.67 1286.25 1466.67 Q1284.38 1466.67 1282.5 1467.08 Q1280.65 1467.5 1278.7 1468.38 L1278.7 1451.02 Z" fill="#000000" fill-rule="nonzero" fill-opacity="1" /><path clip-path="url(#clip830)" d="M1318.82 1454.1 Q1315.21 1454.1 1313.38 1457.66 Q1311.57 1461.2 1311.57 1468.33 Q1311.57 1475.44 1313.38 1479.01 Q1315.21 1482.55 1318.82 1482.55 Q1322.45 1482.55 1324.26 1479.01 Q1326.09 1475.44 1326.09 1468.33 Q1326.09 1461.2 1324.26 1457.66 Q1322.45 1454.1 1318.82 1454.1 M1318.82 1450.39 Q1324.63 1450.39 1327.69 1455 Q1330.76 1459.58 1330.76 1468.33 Q1330.76 1477.06 1327.69 1481.67 Q1324.63 1486.25 1318.82 1486.25 Q1313.01 1486.25 1309.93 1481.67 Q1306.88 1477.06 1306.88 1468.33 Q1306.88 1459.58 1309.93 1455 Q1313.01 1450.39 1318.82 1450.39 Z" fill="#000000" fill-rule="nonzero" fill-opacity="1" /><path clip-path="url(#clip830)" d="M1348.98 1454.1 Q1345.37 1454.1 1343.54 1457.66 Q1341.74 1461.2 1341.74 1468.33 Q1341.74 1475.44 1343.54 1479.01 Q1345.37 1482.55 1348.98 1482.55 Q1352.62 1482.55 1354.42 1479.01 Q1356.25 1475.44 1356.25 1468.33 Q1356.25 1461.2 1354.42 1457.66 Q1352.62 1454.1 1348.98 1454.1 M1348.98 1450.39 Q1354.79 1450.39 1357.85 1455 Q1360.93 1459.58 1360.93 1468.33 Q1360.93 1477.06 1357.85 1481.67 Q1354.79 1486.25 1348.98 1486.25 Q1343.17 1486.25 1340.09 1481.67 Q1337.04 1477.06 1337.04 1468.33 Q1337.04 1459.58 1340.09 1455 Q1343.17 1450.39 1348.98 1450.39 Z" fill="#000000" fill-rule="nonzero" fill-opacity="1" /><path clip-path="url(#clip830)" d="M1764.97 1451.02 L1787.19 1451.02 L1787.19 1453.01 L1774.65 1485.58 L1769.76 1485.58 L1781.57 1454.96 L1764.97 1454.96 L1764.97 1451.02 Z" fill="#000000" fill-rule="nonzero" fill-opacity="1" /><path clip-path="url(#clip830)" d="M1796.36 1451.02 L1814.71 1451.02 L1814.71 1454.96 L1800.64 1454.96 L1800.64 1463.43 Q1801.66 1463.08 1802.68 1462.92 Q1803.7 1462.73 1804.71 1462.73 Q1810.5 1462.73 1813.88 1465.9 Q1817.26 1469.08 1817.26 1474.49 Q1817.26 1480.07 1813.79 1483.17 Q1810.32 1486.25 1804 1486.25 Q1801.82 1486.25 1799.55 1485.88 Q1797.31 1485.51 1794.9 1484.77 L1794.9 1480.07 Q1796.98 1481.2 1799.21 1481.76 Q1801.43 1482.32 1803.9 1482.32 Q1807.91 1482.32 1810.25 1480.21 Q1812.58 1478.1 1812.58 1474.49 Q1812.58 1470.88 1810.25 1468.77 Q1807.91 1466.67 1803.9 1466.67 Q1802.03 1466.67 1800.15 1467.08 Q1798.3 1467.5 1796.36 1468.38 L1796.36 1451.02 Z" fill="#000000" fill-rule="nonzero" fill-opacity="1" /><path clip-path="url(#clip830)" d="M1836.47 1454.1 Q1832.86 1454.1 1831.03 1457.66 Q1829.23 1461.2 1829.23 1468.33 Q1829.23 1475.44 1831.03 1479.01 Q1832.86 1482.55 1836.47 1482.55 Q1840.11 1482.55 1841.91 1479.01 Q1843.74 1475.44 1843.74 1468.33 Q1843.74 1461.2 1841.91 1457.66 Q1840.11 1454.1 1836.47 1454.1 M1836.47 1450.39 Q1842.28 1450.39 1845.34 1455 Q1848.42 1459.58 1848.42 1468.33 Q1848.42 1477.06 1845.34 1481.67 Q1842.28 1486.25 1836.47 1486.25 Q1830.66 1486.25 1827.58 1481.67 Q1824.53 1477.06 1824.53 1468.33 Q1824.53 1459.58 1827.58 1455 Q1830.66 1450.39 1836.47 1450.39 Z" fill="#000000" fill-rule="nonzero" fill-opacity="1" /><path clip-path="url(#clip830)" d="M2238.83 1481.64 L2246.47 1481.64 L2246.47 1455.28 L2238.16 1456.95 L2238.16 1452.69 L2246.42 1451.02 L2251.1 1451.02 L2251.1 1481.64 L2258.73 1481.64 L2258.73 1485.58 L2238.83 1485.58 L2238.83 1481.64 Z" fill="#000000" fill-rule="nonzero" fill-opacity="1" /><path clip-path="url(#clip830)" d="M2278.18 1454.1 Q2274.57 1454.1 2272.74 1457.66 Q2270.93 1461.2 2270.93 1468.33 Q2270.93 1475.44 2272.74 1479.01 Q2274.57 1482.55 2278.18 1482.55 Q2281.81 1482.55 2283.62 1479.01 Q2285.45 1475.44 2285.45 1468.33 Q2285.45 1461.2 2283.62 1457.66 Q2281.81 1454.1 2278.18 1454.1 M2278.18 1450.39 Q2283.99 1450.39 2287.04 1455 Q2290.12 1459.58 2290.12 1468.33 Q2290.12 1477.06 2287.04 1481.67 Q2283.99 1486.25 2278.18 1486.25 Q2272.37 1486.25 2269.29 1481.67 Q2266.23 1477.06 2266.23 1468.33 Q2266.23 1459.58 2269.29 1455 Q2272.37 1450.39 2278.18 1450.39 Z" fill="#000000" fill-rule="nonzero" fill-opacity="1" /><path clip-path="url(#clip830)" d="M2308.34 1454.1 Q2304.73 1454.1 2302.9 1457.66 Q2301.1 1461.2 2301.1 1468.33 Q2301.1 1475.44 2302.9 1479.01 Q2304.73 1482.55 2308.34 1482.55 Q2311.97 1482.55 2313.78 1479.01 Q2315.61 1475.44 2315.61 1468.33 Q2315.61 1461.2 2313.78 1457.66 Q2311.97 1454.1 2308.34 1454.1 M2308.34 1450.39 Q2314.15 1450.39 2317.21 1455 Q2320.29 1459.58 2320.29 1468.33 Q2320.29 1477.06 2317.21 1481.67 Q2314.15 1486.25 2308.34 1486.25 Q2302.53 1486.25 2299.45 1481.67 Q2296.4 1477.06 2296.4 1468.33 Q2296.4 1459.58 2299.45 1455 Q2302.53 1450.39 2308.34 1450.39 Z" fill="#000000" fill-rule="nonzero" fill-opacity="1" /><path clip-path="url(#clip830)" d="M2338.5 1454.1 Q2334.89 1454.1 2333.06 1457.66 Q2331.26 1461.2 2331.26 1468.33 Q2331.26 1475.44 2333.06 1479.01 Q2334.89 1482.55 2338.5 1482.55 Q2342.14 1482.55 2343.94 1479.01 Q2345.77 1475.44 2345.77 1468.33 Q2345.77 1461.2 2343.94 1457.66 Q2342.14 1454.1 2338.5 1454.1 M2338.5 1450.39 Q2344.31 1450.39 2347.37 1455 Q2350.45 1459.58 2350.45 1468.33 Q2350.45 1477.06 2347.37 1481.67 Q2344.31 1486.25 2338.5 1486.25 Q2332.69 1486.25 2329.61 1481.67 Q2326.56 1477.06 2326.56 1468.33 Q2326.56 1459.58 2329.61 1455 Q2332.69 1450.39 2338.5 1450.39 Z" fill="#000000" fill-rule="nonzero" fill-opacity="1" /><path clip-path="url(#clip830)" d="M1283.9 1524.18 L1283.9 1530.96 Q1280.66 1527.94 1276.97 1526.44 Q1273.3 1524.95 1269.17 1524.95 Q1261.02 1524.95 1256.69 1529.95 Q1252.36 1534.91 1252.36 1544.33 Q1252.36 1553.72 1256.69 1558.72 Q1261.02 1563.68 1269.17 1563.68 Q1273.3 1563.68 1276.97 1562.19 Q1280.66 1560.69 1283.9 1557.67 L1283.9 1564.38 Q1280.53 1566.68 1276.74 1567.82 Q1272.99 1568.97 1268.79 1568.97 Q1258 1568.97 1251.79 1562.38 Q1245.58 1555.76 1245.58 1544.33 Q1245.58 1532.87 1251.79 1526.28 Q1258 1519.66 1268.79 1519.66 Q1273.05 1519.66 1276.81 1520.81 Q1280.59 1521.92 1283.9 1524.18 Z" fill="#000000" fill-rule="nonzero" fill-opacity="1" /><path clip-path="url(#clip830)" d="M1324.07 1548.76 L1324.07 1551.62 L1297.14 1551.62 Q1297.53 1557.67 1300.77 1560.85 Q1304.05 1564 1309.88 1564 Q1313.25 1564 1316.4 1563.17 Q1319.58 1562.35 1322.7 1560.69 L1322.7 1566.23 Q1319.55 1567.57 1316.24 1568.27 Q1312.93 1568.97 1309.53 1568.97 Q1301 1568.97 1296 1564 Q1291.03 1559.04 1291.03 1550.57 Q1291.03 1541.82 1295.74 1536.69 Q1300.49 1531.54 1308.51 1531.54 Q1315.7 1531.54 1319.87 1536.18 Q1324.07 1540.8 1324.07 1548.76 M1318.21 1547.04 Q1318.15 1542.23 1315.51 1539.37 Q1312.9 1536.5 1308.57 1536.5 Q1303.67 1536.5 1300.71 1539.27 Q1297.78 1542.04 1297.34 1547.07 L1318.21 1547.04 Z" fill="#000000" fill-rule="nonzero" fill-opacity="1" /><path clip-path="url(#clip830)" d="M1333.68 1518.52 L1339.54 1518.52 L1339.54 1568.04 L1333.68 1568.04 L1333.68 1518.52 Z" fill="#000000" fill-rule="nonzero" fill-opacity="1" /><path clip-path="url(#clip830)" d="M1351.79 1518.52 L1357.65 1518.52 L1357.65 1568.04 L1351.79 1568.04 L1351.79 1518.52 Z" fill="#000000" fill-rule="nonzero" fill-opacity="1" /><path clip-path="url(#clip830)" d="M1392.63 1533.45 L1392.63 1538.98 Q1390.15 1537.71 1387.47 1537.07 Q1384.8 1536.44 1381.94 1536.44 Q1377.58 1536.44 1375.38 1537.77 Q1373.21 1539.11 1373.21 1541.79 Q1373.21 1543.82 1374.77 1545 Q1376.33 1546.15 1381.04 1547.2 L1383.05 1547.64 Q1389.29 1548.98 1391.9 1551.43 Q1394.54 1553.85 1394.54 1558.21 Q1394.54 1563.17 1390.59 1566.07 Q1386.68 1568.97 1379.8 1568.97 Q1376.94 1568.97 1373.82 1568.39 Q1370.73 1567.85 1367.29 1566.74 L1367.29 1560.69 Q1370.54 1562.38 1373.69 1563.24 Q1376.84 1564.07 1379.93 1564.07 Q1384.07 1564.07 1386.3 1562.66 Q1388.52 1561.23 1388.52 1558.65 Q1388.52 1556.27 1386.9 1554.99 Q1385.31 1553.72 1379.87 1552.54 L1377.83 1552.07 Q1372.39 1550.92 1369.97 1548.56 Q1367.55 1546.18 1367.55 1542.04 Q1367.55 1537.01 1371.11 1534.27 Q1374.68 1531.54 1381.24 1531.54 Q1384.48 1531.54 1387.35 1532.01 Q1390.21 1532.49 1392.63 1533.45 Z" fill="#000000" fill-rule="nonzero" fill-opacity="1" /><polyline clip-path="url(#clip832)" style="stroke:#000000; stroke-linecap:round; stroke-linejoin:round; stroke-width:2; stroke-opacity:0.1; fill:none" points="287.366,1306.29 2352.76,1306.29 "/>
<polyline clip-path="url(#clip832)" style="stroke:#000000; stroke-linecap:round; stroke-linejoin:round; stroke-width:2; stroke-opacity:0.1; fill:none" points="287.366,1135.06 2352.76,1135.06 "/>
<polyline clip-path="url(#clip832)" style="stroke:#000000; stroke-linecap:round; stroke-linejoin:round; stroke-width:2; stroke-opacity:0.1; fill:none" points="287.366,963.823 2352.76,963.823 "/>
<polyline clip-path="url(#clip832)" style="stroke:#000000; stroke-linecap:round; stroke-linejoin:round; stroke-width:2; stroke-opacity:0.1; fill:none" points="287.366,792.588 2352.76,792.588 "/>
<polyline clip-path="url(#clip832)" style="stroke:#000000; stroke-linecap:round; stroke-linejoin:round; stroke-width:2; stroke-opacity:0.1; fill:none" points="287.366,621.354 2352.76,621.354 "/>
<polyline clip-path="url(#clip832)" style="stroke:#000000; stroke-linecap:round; stroke-linejoin:round; stroke-width:2; stroke-opacity:0.1; fill:none" points="287.366,450.12 2352.76,450.12 "/>
<polyline clip-path="url(#clip832)" style="stroke:#000000; stroke-linecap:round; stroke-linejoin:round; stroke-width:2; stroke-opacity:0.1; fill:none" points="287.366,278.885 2352.76,278.885 "/>
<polyline clip-path="url(#clip830)" style="stroke:#000000; stroke-linecap:round; stroke-linejoin:round; stroke-width:4; stroke-opacity:1; fill:none" points="287.366,1423.18 287.366,123.472 "/>
<polyline clip-path="url(#clip830)" style="stroke:#000000; stroke-linecap:round; stroke-linejoin:round; stroke-width:4; stroke-opacity:1; fill:none" points="287.366,1306.29 306.264,1306.29 "/>
<polyline clip-path="url(#clip830)" style="stroke:#000000; stroke-linecap:round; stroke-linejoin:round; stroke-width:4; stroke-opacity:1; fill:none" points="287.366,1135.06 306.264,1135.06 "/>
<polyline clip-path="url(#clip830)" style="stroke:#000000; stroke-linecap:round; stroke-linejoin:round; stroke-width:4; stroke-opacity:1; fill:none" points="287.366,963.823 306.264,963.823 "/>
<polyline clip-path="url(#clip830)" style="stroke:#000000; stroke-linecap:round; stroke-linejoin:round; stroke-width:4; stroke-opacity:1; fill:none" points="287.366,792.588 306.264,792.588 "/>
<polyline clip-path="url(#clip830)" style="stroke:#000000; stroke-linecap:round; stroke-linejoin:round; stroke-width:4; stroke-opacity:1; fill:none" points="287.366,621.354 306.264,621.354 "/>
<polyline clip-path="url(#clip830)" style="stroke:#000000; stroke-linecap:round; stroke-linejoin:round; stroke-width:4; stroke-opacity:1; fill:none" points="287.366,450.12 306.264,450.12 "/>
<polyline clip-path="url(#clip830)" style="stroke:#000000; stroke-linecap:round; stroke-linejoin:round; stroke-width:4; stroke-opacity:1; fill:none" points="287.366,278.885 306.264,278.885 "/>
<path clip-path="url(#clip830)" d="M115.256 1306.74 L144.931 1306.74 L144.931 1310.68 L115.256 1310.68 L115.256 1306.74 Z" fill="#000000" fill-rule="nonzero" fill-opacity="1" /><path clip-path="url(#clip830)" d="M165.024 1292.09 Q161.413 1292.09 159.584 1295.65 Q157.778 1299.2 157.778 1306.33 Q157.778 1313.43 159.584 1317 Q161.413 1320.54 165.024 1320.54 Q168.658 1320.54 170.464 1317 Q172.292 1313.43 172.292 1306.33 Q172.292 1299.2 170.464 1295.65 Q168.658 1292.09 165.024 1292.09 M165.024 1288.39 Q170.834 1288.39 173.889 1292.99 Q176.968 1297.58 176.968 1306.33 Q176.968 1315.05 173.889 1319.66 Q170.834 1324.24 165.024 1324.24 Q159.214 1324.24 156.135 1319.66 Q153.079 1315.05 153.079 1306.33 Q153.079 1297.58 156.135 1292.99 Q159.214 1288.39 165.024 1288.39 Z" fill="#000000" fill-rule="nonzero" fill-opacity="1" /><path clip-path="url(#clip830)" d="M185.186 1317.69 L190.07 1317.69 L190.07 1323.57 L185.186 1323.57 L185.186 1317.69 Z" fill="#000000" fill-rule="nonzero" fill-opacity="1" /><path clip-path="url(#clip830)" d="M199.075 1289.01 L221.297 1289.01 L221.297 1291 L208.75 1323.57 L203.866 1323.57 L215.672 1292.95 L199.075 1292.95 L199.075 1289.01 Z" fill="#000000" fill-rule="nonzero" fill-opacity="1" /><path clip-path="url(#clip830)" d="M230.463 1289.01 L248.82 1289.01 L248.82 1292.95 L234.746 1292.95 L234.746 1301.42 Q235.764 1301.07 236.783 1300.91 Q237.801 1300.72 238.82 1300.72 Q244.607 1300.72 247.986 1303.9 Q251.366 1307.07 251.366 1312.48 Q251.366 1318.06 247.894 1321.16 Q244.421 1324.24 238.102 1324.24 Q235.926 1324.24 233.658 1323.87 Q231.412 1323.5 229.005 1322.76 L229.005 1318.06 Q231.088 1319.2 233.31 1319.75 Q235.533 1320.31 238.009 1320.31 Q242.014 1320.31 244.352 1318.2 Q246.69 1316.09 246.69 1312.48 Q246.69 1308.87 244.352 1306.77 Q242.014 1304.66 238.009 1304.66 Q236.135 1304.66 234.26 1305.08 Q232.408 1305.49 230.463 1306.37 L230.463 1289.01 Z" fill="#000000" fill-rule="nonzero" fill-opacity="1" /><path clip-path="url(#clip830)" d="M114.26 1135.51 L143.936 1135.51 L143.936 1139.44 L114.26 1139.44 L114.26 1135.51 Z" fill="#000000" fill-rule="nonzero" fill-opacity="1" /><path clip-path="url(#clip830)" d="M164.028 1120.86 Q160.417 1120.86 158.589 1124.42 Q156.783 1127.96 156.783 1135.09 Q156.783 1142.2 158.589 1145.76 Q160.417 1149.3 164.028 1149.3 Q167.663 1149.3 169.468 1145.76 Q171.297 1142.2 171.297 1135.09 Q171.297 1127.96 169.468 1124.42 Q167.663 1120.86 164.028 1120.86 M164.028 1117.15 Q169.839 1117.15 172.894 1121.76 Q175.973 1126.34 175.973 1135.09 Q175.973 1143.82 172.894 1148.42 Q169.839 1153.01 164.028 1153.01 Q158.218 1153.01 155.14 1148.42 Q152.084 1143.82 152.084 1135.09 Q152.084 1126.34 155.14 1121.76 Q158.218 1117.15 164.028 1117.15 Z" fill="#000000" fill-rule="nonzero" fill-opacity="1" /><path clip-path="url(#clip830)" d="M184.19 1146.46 L189.075 1146.46 L189.075 1152.34 L184.19 1152.34 L184.19 1146.46 Z" fill="#000000" fill-rule="nonzero" fill-opacity="1" /><path clip-path="url(#clip830)" d="M199.306 1117.78 L217.662 1117.78 L217.662 1121.71 L203.588 1121.71 L203.588 1130.18 Q204.607 1129.84 205.625 1129.67 Q206.644 1129.49 207.662 1129.49 Q213.449 1129.49 216.829 1132.66 Q220.209 1135.83 220.209 1141.25 Q220.209 1146.83 216.736 1149.93 Q213.264 1153.01 206.945 1153.01 Q204.769 1153.01 202.5 1152.64 Q200.255 1152.27 197.848 1151.53 L197.848 1146.83 Q199.931 1147.96 202.153 1148.52 Q204.375 1149.07 206.852 1149.07 Q210.857 1149.07 213.195 1146.97 Q215.533 1144.86 215.533 1141.25 Q215.533 1137.64 213.195 1135.53 Q210.857 1133.42 206.852 1133.42 Q204.977 1133.42 203.102 1133.84 Q201.25 1134.26 199.306 1135.14 L199.306 1117.78 Z" fill="#000000" fill-rule="nonzero" fill-opacity="1" /><path clip-path="url(#clip830)" d="M239.422 1120.86 Q235.81 1120.86 233.982 1124.42 Q232.176 1127.96 232.176 1135.09 Q232.176 1142.2 233.982 1145.76 Q235.81 1149.3 239.422 1149.3 Q243.056 1149.3 244.861 1145.76 Q246.69 1142.2 246.69 1135.09 Q246.69 1127.96 244.861 1124.42 Q243.056 1120.86 239.422 1120.86 M239.422 1117.15 Q245.232 1117.15 248.287 1121.76 Q251.366 1126.34 251.366 1135.09 Q251.366 1143.82 248.287 1148.42 Q245.232 1153.01 239.422 1153.01 Q233.611 1153.01 230.533 1148.42 Q227.477 1143.82 227.477 1135.09 Q227.477 1126.34 230.533 1121.76 Q233.611 1117.15 239.422 1117.15 Z" fill="#000000" fill-rule="nonzero" fill-opacity="1" /><path clip-path="url(#clip830)" d="M115.256 964.274 L144.931 964.274 L144.931 968.209 L115.256 968.209 L115.256 964.274 Z" fill="#000000" fill-rule="nonzero" fill-opacity="1" /><path clip-path="url(#clip830)" d="M165.024 949.621 Q161.413 949.621 159.584 953.186 Q157.778 956.728 157.778 963.857 Q157.778 970.964 159.584 974.529 Q161.413 978.07 165.024 978.07 Q168.658 978.07 170.464 974.529 Q172.292 970.964 172.292 963.857 Q172.292 956.728 170.464 953.186 Q168.658 949.621 165.024 949.621 M165.024 945.918 Q170.834 945.918 173.889 950.524 Q176.968 955.107 176.968 963.857 Q176.968 972.584 173.889 977.191 Q170.834 981.774 165.024 981.774 Q159.214 981.774 156.135 977.191 Q153.079 972.584 153.079 963.857 Q153.079 955.107 156.135 950.524 Q159.214 945.918 165.024 945.918 Z" fill="#000000" fill-rule="nonzero" fill-opacity="1" /><path clip-path="url(#clip830)" d="M185.186 975.223 L190.07 975.223 L190.07 981.103 L185.186 981.103 L185.186 975.223 Z" fill="#000000" fill-rule="nonzero" fill-opacity="1" /><path clip-path="url(#clip830)" d="M204.283 977.167 L220.602 977.167 L220.602 981.103 L198.658 981.103 L198.658 977.167 Q201.32 974.413 205.903 969.783 Q210.51 965.13 211.69 963.788 Q213.936 961.265 214.815 959.529 Q215.718 957.769 215.718 956.08 Q215.718 953.325 213.774 951.589 Q211.852 949.853 208.75 949.853 Q206.551 949.853 204.098 950.617 Q201.667 951.38 198.889 952.931 L198.889 948.209 Q201.713 947.075 204.167 946.496 Q206.621 945.918 208.658 945.918 Q214.028 945.918 217.223 948.603 Q220.417 951.288 220.417 955.779 Q220.417 957.908 219.607 959.83 Q218.82 961.728 216.713 964.32 Q216.135 964.992 213.033 968.209 Q209.931 971.404 204.283 977.167 Z" fill="#000000" fill-rule="nonzero" fill-opacity="1" /><path clip-path="url(#clip830)" d="M230.463 946.543 L248.82 946.543 L248.82 950.478 L234.746 950.478 L234.746 958.95 Q235.764 958.603 236.783 958.441 Q237.801 958.255 238.82 958.255 Q244.607 958.255 247.986 961.427 Q251.366 964.598 251.366 970.015 Q251.366 975.593 247.894 978.695 Q244.421 981.774 238.102 981.774 Q235.926 981.774 233.658 981.403 Q231.412 981.033 229.005 980.292 L229.005 975.593 Q231.088 976.728 233.31 977.283 Q235.533 977.839 238.009 977.839 Q242.014 977.839 244.352 975.732 Q246.69 973.626 246.69 970.015 Q246.69 966.404 244.352 964.297 Q242.014 962.191 238.009 962.191 Q236.135 962.191 234.26 962.607 Q232.408 963.024 230.463 963.904 L230.463 946.543 Z" fill="#000000" fill-rule="nonzero" fill-opacity="1" /><path clip-path="url(#clip830)" d="M164.028 778.387 Q160.417 778.387 158.589 781.952 Q156.783 785.493 156.783 792.623 Q156.783 799.729 158.589 803.294 Q160.417 806.836 164.028 806.836 Q167.663 806.836 169.468 803.294 Q171.297 799.729 171.297 792.623 Q171.297 785.493 169.468 781.952 Q167.663 778.387 164.028 778.387 M164.028 774.683 Q169.839 774.683 172.894 779.29 Q175.973 783.873 175.973 792.623 Q175.973 801.35 172.894 805.956 Q169.839 810.54 164.028 810.54 Q158.218 810.54 155.14 805.956 Q152.084 801.35 152.084 792.623 Q152.084 783.873 155.14 779.29 Q158.218 774.683 164.028 774.683 Z" fill="#000000" fill-rule="nonzero" fill-opacity="1" /><path clip-path="url(#clip830)" d="M184.19 803.989 L189.075 803.989 L189.075 809.868 L184.19 809.868 L184.19 803.989 Z" fill="#000000" fill-rule="nonzero" fill-opacity="1" /><path clip-path="url(#clip830)" d="M209.26 778.387 Q205.649 778.387 203.82 781.952 Q202.014 785.493 202.014 792.623 Q202.014 799.729 203.82 803.294 Q205.649 806.836 209.26 806.836 Q212.894 806.836 214.699 803.294 Q216.528 799.729 216.528 792.623 Q216.528 785.493 214.699 781.952 Q212.894 778.387 209.26 778.387 M209.26 774.683 Q215.07 774.683 218.125 779.29 Q221.204 783.873 221.204 792.623 Q221.204 801.35 218.125 805.956 Q215.07 810.54 209.26 810.54 Q203.449 810.54 200.371 805.956 Q197.315 801.35 197.315 792.623 Q197.315 783.873 200.371 779.29 Q203.449 774.683 209.26 774.683 Z" fill="#000000" fill-rule="nonzero" fill-opacity="1" /><path clip-path="url(#clip830)" d="M239.422 778.387 Q235.81 778.387 233.982 781.952 Q232.176 785.493 232.176 792.623 Q232.176 799.729 233.982 803.294 Q235.81 806.836 239.422 806.836 Q243.056 806.836 244.861 803.294 Q246.69 799.729 246.69 792.623 Q246.69 785.493 244.861 781.952 Q243.056 778.387 239.422 778.387 M239.422 774.683 Q245.232 774.683 248.287 779.29 Q251.366 783.873 251.366 792.623 Q251.366 801.35 248.287 805.956 Q245.232 810.54 239.422 810.54 Q233.611 810.54 230.533 805.956 Q227.477 801.35 227.477 792.623 Q227.477 783.873 230.533 779.29 Q233.611 774.683 239.422 774.683 Z" fill="#000000" fill-rule="nonzero" fill-opacity="1" /><path clip-path="url(#clip830)" d="M165.024 607.153 Q161.413 607.153 159.584 610.717 Q157.778 614.259 157.778 621.389 Q157.778 628.495 159.584 632.06 Q161.413 635.602 165.024 635.602 Q168.658 635.602 170.464 632.06 Q172.292 628.495 172.292 621.389 Q172.292 614.259 170.464 610.717 Q168.658 607.153 165.024 607.153 M165.024 603.449 Q170.834 603.449 173.889 608.055 Q176.968 612.639 176.968 621.389 Q176.968 630.116 173.889 634.722 Q170.834 639.305 165.024 639.305 Q159.214 639.305 156.135 634.722 Q153.079 630.116 153.079 621.389 Q153.079 612.639 156.135 608.055 Q159.214 603.449 165.024 603.449 Z" fill="#000000" fill-rule="nonzero" fill-opacity="1" /><path clip-path="url(#clip830)" d="M185.186 632.754 L190.07 632.754 L190.07 638.634 L185.186 638.634 L185.186 632.754 Z" fill="#000000" fill-rule="nonzero" fill-opacity="1" /><path clip-path="url(#clip830)" d="M204.283 634.699 L220.602 634.699 L220.602 638.634 L198.658 638.634 L198.658 634.699 Q201.32 631.944 205.903 627.315 Q210.51 622.662 211.69 621.319 Q213.936 618.796 214.815 617.06 Q215.718 615.301 215.718 613.611 Q215.718 610.856 213.774 609.12 Q211.852 607.384 208.75 607.384 Q206.551 607.384 204.098 608.148 Q201.667 608.912 198.889 610.463 L198.889 605.741 Q201.713 604.606 204.167 604.028 Q206.621 603.449 208.658 603.449 Q214.028 603.449 217.223 606.134 Q220.417 608.819 220.417 613.31 Q220.417 615.44 219.607 617.361 Q218.82 619.259 216.713 621.852 Q216.135 622.523 213.033 625.741 Q209.931 628.935 204.283 634.699 Z" fill="#000000" fill-rule="nonzero" fill-opacity="1" /><path clip-path="url(#clip830)" d="M230.463 604.074 L248.82 604.074 L248.82 608.009 L234.746 608.009 L234.746 616.481 Q235.764 616.134 236.783 615.972 Q237.801 615.787 238.82 615.787 Q244.607 615.787 247.986 618.958 Q251.366 622.129 251.366 627.546 Q251.366 633.125 247.894 636.227 Q244.421 639.305 238.102 639.305 Q235.926 639.305 233.658 638.935 Q231.412 638.565 229.005 637.824 L229.005 633.125 Q231.088 634.259 233.31 634.815 Q235.533 635.37 238.009 635.37 Q242.014 635.37 244.352 633.264 Q246.69 631.157 246.69 627.546 Q246.69 623.935 244.352 621.829 Q242.014 619.722 238.009 619.722 Q236.135 619.722 234.26 620.139 Q232.408 620.555 230.463 621.435 L230.463 604.074 Z" fill="#000000" fill-rule="nonzero" fill-opacity="1" /><path clip-path="url(#clip830)" d="M164.028 435.918 Q160.417 435.918 158.589 439.483 Q156.783 443.025 156.783 450.154 Q156.783 457.261 158.589 460.826 Q160.417 464.367 164.028 464.367 Q167.663 464.367 169.468 460.826 Q171.297 457.261 171.297 450.154 Q171.297 443.025 169.468 439.483 Q167.663 435.918 164.028 435.918 M164.028 432.215 Q169.839 432.215 172.894 436.821 Q175.973 441.404 175.973 450.154 Q175.973 458.881 172.894 463.488 Q169.839 468.071 164.028 468.071 Q158.218 468.071 155.14 463.488 Q152.084 458.881 152.084 450.154 Q152.084 441.404 155.14 436.821 Q158.218 432.215 164.028 432.215 Z" fill="#000000" fill-rule="nonzero" fill-opacity="1" /><path clip-path="url(#clip830)" d="M184.19 461.52 L189.075 461.52 L189.075 467.4 L184.19 467.4 L184.19 461.52 Z" fill="#000000" fill-rule="nonzero" fill-opacity="1" /><path clip-path="url(#clip830)" d="M199.306 432.84 L217.662 432.84 L217.662 436.775 L203.588 436.775 L203.588 445.247 Q204.607 444.9 205.625 444.738 Q206.644 444.553 207.662 444.553 Q213.449 444.553 216.829 447.724 Q220.209 450.895 220.209 456.312 Q220.209 461.89 216.736 464.992 Q213.264 468.071 206.945 468.071 Q204.769 468.071 202.5 467.701 Q200.255 467.33 197.848 466.59 L197.848 461.89 Q199.931 463.025 202.153 463.58 Q204.375 464.136 206.852 464.136 Q210.857 464.136 213.195 462.029 Q215.533 459.923 215.533 456.312 Q215.533 452.701 213.195 450.594 Q210.857 448.488 206.852 448.488 Q204.977 448.488 203.102 448.904 Q201.25 449.321 199.306 450.201 L199.306 432.84 Z" fill="#000000" fill-rule="nonzero" fill-opacity="1" /><path clip-path="url(#clip830)" d="M239.422 435.918 Q235.81 435.918 233.982 439.483 Q232.176 443.025 232.176 450.154 Q232.176 457.261 233.982 460.826 Q235.81 464.367 239.422 464.367 Q243.056 464.367 244.861 460.826 Q246.69 457.261 246.69 450.154 Q246.69 443.025 244.861 439.483 Q243.056 435.918 239.422 435.918 M239.422 432.215 Q245.232 432.215 248.287 436.821 Q251.366 441.404 251.366 450.154 Q251.366 458.881 248.287 463.488 Q245.232 468.071 239.422 468.071 Q233.611 468.071 230.533 463.488 Q227.477 458.881 227.477 450.154 Q227.477 441.404 230.533 436.821 Q233.611 432.215 239.422 432.215 Z" fill="#000000" fill-rule="nonzero" fill-opacity="1" /><path clip-path="url(#clip830)" d="M165.024 264.684 Q161.413 264.684 159.584 268.249 Q157.778 271.791 157.778 278.92 Q157.778 286.027 159.584 289.591 Q161.413 293.133 165.024 293.133 Q168.658 293.133 170.464 289.591 Q172.292 286.027 172.292 278.92 Q172.292 271.791 170.464 268.249 Q168.658 264.684 165.024 264.684 M165.024 260.98 Q170.834 260.98 173.889 265.587 Q176.968 270.17 176.968 278.92 Q176.968 287.647 173.889 292.253 Q170.834 296.837 165.024 296.837 Q159.214 296.837 156.135 292.253 Q153.079 287.647 153.079 278.92 Q153.079 270.17 156.135 265.587 Q159.214 260.98 165.024 260.98 Z" fill="#000000" fill-rule="nonzero" fill-opacity="1" /><path clip-path="url(#clip830)" d="M185.186 290.286 L190.07 290.286 L190.07 296.165 L185.186 296.165 L185.186 290.286 Z" fill="#000000" fill-rule="nonzero" fill-opacity="1" /><path clip-path="url(#clip830)" d="M199.075 261.605 L221.297 261.605 L221.297 263.596 L208.75 296.165 L203.866 296.165 L215.672 265.541 L199.075 265.541 L199.075 261.605 Z" fill="#000000" fill-rule="nonzero" fill-opacity="1" /><path clip-path="url(#clip830)" d="M230.463 261.605 L248.82 261.605 L248.82 265.541 L234.746 265.541 L234.746 274.013 Q235.764 273.666 236.783 273.504 Q237.801 273.318 238.82 273.318 Q244.607 273.318 247.986 276.49 Q251.366 279.661 251.366 285.078 Q251.366 290.656 247.894 293.758 Q244.421 296.837 238.102 296.837 Q235.926 296.837 233.658 296.466 Q231.412 296.096 229.005 295.355 L229.005 290.656 Q231.088 291.79 233.31 292.346 Q235.533 292.902 238.009 292.902 Q242.014 292.902 244.352 290.795 Q246.69 288.689 246.69 285.078 Q246.69 281.466 244.352 279.36 Q242.014 277.254 238.009 277.254 Q236.135 277.254 234.26 277.67 Q232.408 278.087 230.463 278.966 L230.463 261.605 Z" fill="#000000" fill-rule="nonzero" fill-opacity="1" /><path clip-path="url(#clip830)" d="M18.0438 893.717 L24.314 893.717 Q22.5634 897.378 21.704 900.624 Q20.8447 903.871 20.8447 906.894 Q20.8447 912.146 22.8817 915.011 Q24.9187 917.843 28.6745 917.843 Q31.8255 917.843 33.4488 915.966 Q35.0402 914.056 36.0269 908.772 L36.8226 904.889 Q38.1912 897.696 41.6605 894.29 Q45.098 890.853 50.8908 890.853 Q57.7976 890.853 61.3624 895.5 Q64.9272 900.115 64.9272 909.059 Q64.9272 912.433 64.1633 916.252 Q63.3994 920.04 61.9035 924.114 L55.2831 924.114 Q57.4793 920.199 58.5933 916.443 Q59.7073 912.687 59.7073 909.059 Q59.7073 903.552 57.543 900.561 Q55.3786 897.569 51.3682 897.569 Q47.8671 897.569 45.8937 899.733 Q43.9204 901.866 42.9337 906.767 L42.1698 910.682 Q40.7375 917.875 37.682 921.09 Q34.6264 924.305 29.1837 924.305 Q22.8817 924.305 19.2532 919.88 Q15.6248 915.424 15.6248 907.626 Q15.6248 904.284 16.2295 900.815 Q16.8343 897.346 18.0438 893.717 Z" fill="#000000" fill-rule="nonzero" fill-opacity="1" /><path clip-path="url(#clip830)" d="M28.3562 881.081 L28.3562 875.225 L64.0042 875.225 L64.0042 881.081 L28.3562 881.081 M14.479 881.081 L14.479 875.225 L21.895 875.225 L21.895 881.081 L14.479 881.081 Z" fill="#000000" fill-rule="nonzero" fill-opacity="1" /><path clip-path="url(#clip830)" d="M35.1993 835.217 Q31.2526 833.02 29.3747 829.965 Q27.4968 826.909 27.4968 822.772 Q27.4968 817.202 31.4117 814.178 Q35.2948 811.154 42.4881 811.154 L64.0042 811.154 L64.0042 817.042 L42.679 817.042 Q37.5546 817.042 35.072 818.857 Q32.5894 820.671 32.5894 824.395 Q32.5894 828.946 35.6131 831.588 Q38.6368 834.23 43.8567 834.23 L64.0042 834.23 L64.0042 840.118 L42.679 840.118 Q37.5228 840.118 35.072 841.932 Q32.5894 843.747 32.5894 847.534 Q32.5894 852.022 35.6449 854.664 Q38.6686 857.306 43.8567 857.306 L64.0042 857.306 L64.0042 863.194 L28.3562 863.194 L28.3562 857.306 L33.8944 857.306 Q30.616 855.3 29.0564 852.499 Q27.4968 849.699 27.4968 845.847 Q27.4968 841.964 29.4702 839.259 Q31.4436 836.522 35.1993 835.217 Z" fill="#000000" fill-rule="nonzero" fill-opacity="1" /><path clip-path="url(#clip830)" d="M28.3562 799.473 L28.3562 793.617 L64.0042 793.617 L64.0042 799.473 L28.3562 799.473 M14.479 799.473 L14.479 793.617 L21.895 793.617 L21.895 799.473 L14.479 799.473 Z" fill="#000000" fill-rule="nonzero" fill-opacity="1" /><path clip-path="url(#clip830)" d="M14.479 781.363 L14.479 775.506 L64.0042 775.506 L64.0042 781.363 L14.479 781.363 Z" fill="#000000" fill-rule="nonzero" fill-opacity="1" /><path clip-path="url(#clip830)" d="M46.0847 747.052 Q46.0847 754.149 47.7079 756.887 Q49.3312 759.624 53.2461 759.624 Q56.3653 759.624 58.2114 757.587 Q60.0256 755.518 60.0256 751.985 Q60.0256 747.115 56.5881 744.187 Q53.1188 741.227 47.3897 741.227 L46.0847 741.227 L46.0847 747.052 M43.6657 735.37 L64.0042 735.37 L64.0042 741.227 L58.5933 741.227 Q61.8398 743.232 63.3994 746.224 Q64.9272 749.216 64.9272 753.545 Q64.9272 759.019 61.8716 762.266 Q58.7843 765.48 53.6281 765.48 Q47.6125 765.48 44.5569 761.47 Q41.5014 757.428 41.5014 749.439 L41.5014 741.227 L40.9285 741.227 Q36.8862 741.227 34.6901 743.901 Q32.4621 746.542 32.4621 751.348 Q32.4621 754.404 33.1941 757.3 Q33.9262 760.197 35.3903 762.87 L29.9795 762.87 Q28.7381 759.656 28.1334 756.632 Q27.4968 753.608 27.4968 750.744 Q27.4968 743.009 31.5072 739.19 Q35.5176 735.37 43.6657 735.37 Z" fill="#000000" fill-rule="nonzero" fill-opacity="1" /><path clip-path="url(#clip830)" d="M33.8307 702.651 Q33.2578 703.637 33.0032 704.815 Q32.7167 705.961 32.7167 707.361 Q32.7167 712.327 35.9632 715 Q39.1779 717.642 45.2253 717.642 L64.0042 717.642 L64.0042 723.53 L28.3562 723.53 L28.3562 717.642 L33.8944 717.642 Q30.6479 715.796 29.0883 712.836 Q27.4968 709.876 27.4968 705.643 Q27.4968 705.038 27.5923 704.306 Q27.656 703.574 27.8151 702.683 L33.8307 702.651 Z" fill="#000000" fill-rule="nonzero" fill-opacity="1" /><path clip-path="url(#clip830)" d="M28.3562 696.508 L28.3562 690.651 L64.0042 690.651 L64.0042 696.508 L28.3562 696.508 M14.479 696.508 L14.479 690.651 L21.895 690.651 L21.895 696.508 L14.479 696.508 Z" fill="#000000" fill-rule="nonzero" fill-opacity="1" /><path clip-path="url(#clip830)" d="M18.2347 672.605 L28.3562 672.605 L28.3562 660.542 L32.9077 660.542 L32.9077 672.605 L52.2594 672.605 Q56.6199 672.605 57.8613 671.427 Q59.1026 670.217 59.1026 666.557 L59.1026 660.542 L64.0042 660.542 L64.0042 666.557 Q64.0042 673.337 61.4897 675.915 Q58.9434 678.493 52.2594 678.493 L32.9077 678.493 L32.9077 682.79 L28.3562 682.79 L28.3562 678.493 L18.2347 678.493 L18.2347 672.605 Z" fill="#000000" fill-rule="nonzero" fill-opacity="1" /><path clip-path="url(#clip830)" d="M67.3143 638.007 Q73.68 640.49 75.6216 642.845 Q77.5631 645.2 77.5631 649.147 L77.5631 653.826 L72.6615 653.826 L72.6615 650.388 Q72.6615 647.969 71.5157 646.633 Q70.3699 645.296 66.1048 643.672 L63.4312 642.622 L28.3562 657.04 L28.3562 650.834 L56.238 639.694 L28.3562 628.554 L28.3562 622.347 L67.3143 638.007 Z" fill="#000000" fill-rule="nonzero" fill-opacity="1" /><path clip-path="url(#clip830)" d="M438.523 14.0809 L438.523 22.0612 Q433.865 19.8332 429.733 18.7395 Q425.601 17.6457 421.753 17.6457 Q415.069 17.6457 411.423 20.2383 Q407.818 22.8309 407.818 27.611 Q407.818 31.6214 410.208 33.6873 Q412.638 35.7128 419.363 36.9686 L424.305 37.9813 Q433.46 39.7232 437.794 44.1387 Q442.169 48.5136 442.169 55.8863 Q442.169 64.6767 436.255 69.2137 Q430.381 73.7508 418.998 73.7508 Q414.704 73.7508 409.843 72.7785 Q405.022 71.8063 399.837 69.9024 L399.837 61.4765 Q404.82 64.2716 409.6 65.6895 Q414.38 67.1073 418.998 67.1073 Q426.006 67.1073 429.814 64.3527 Q433.622 61.598 433.622 56.4939 Q433.622 52.0379 430.867 49.5264 Q428.153 47.0148 421.915 45.759 L416.932 44.7868 Q407.777 42.9639 403.686 39.075 Q399.594 35.1862 399.594 28.2591 Q399.594 20.2383 405.225 15.6203 Q410.896 11.0023 420.821 11.0023 Q425.074 11.0023 429.49 11.7719 Q433.905 12.5416 438.523 14.0809 Z" fill="#000000" fill-rule="nonzero" fill-opacity="1" /><path clip-path="url(#clip830)" d="M472.186 32.4315 Q466.191 32.4315 462.707 37.1306 Q459.224 41.7891 459.224 49.9314 Q459.224 58.0738 462.667 62.7728 Q466.151 67.4314 472.186 67.4314 Q478.141 67.4314 481.625 62.7323 Q485.109 58.0333 485.109 49.9314 Q485.109 41.8701 481.625 37.1711 Q478.141 32.4315 472.186 32.4315 M472.186 26.1121 Q481.909 26.1121 487.458 32.4315 Q493.008 38.7509 493.008 49.9314 Q493.008 61.0714 487.458 67.4314 Q481.909 73.7508 472.186 73.7508 Q462.424 73.7508 456.874 67.4314 Q451.365 61.0714 451.365 49.9314 Q451.365 38.7509 456.874 32.4315 Q462.424 26.1121 472.186 26.1121 Z" fill="#000000" fill-rule="nonzero" fill-opacity="1" /><path clip-path="url(#clip830)" d="M531.654 34.1734 Q530.398 33.4443 528.899 33.1202 Q527.441 32.7556 525.658 32.7556 Q519.339 32.7556 515.936 36.8875 Q512.574 40.9789 512.574 48.6757 L512.574 72.576 L505.08 72.576 L505.08 27.2059 L512.574 27.2059 L512.574 34.2544 Q514.923 30.1225 518.691 28.1376 Q522.458 26.1121 527.846 26.1121 Q528.615 26.1121 529.547 26.2337 Q530.479 26.3147 531.613 26.5172 L531.654 34.1734 Z" fill="#000000" fill-rule="nonzero" fill-opacity="1" /><path clip-path="url(#clip830)" d="M546.845 14.324 L546.845 27.2059 L562.197 27.2059 L562.197 32.9987 L546.845 32.9987 L546.845 57.6282 Q546.845 63.1779 548.343 64.7578 Q549.883 66.3376 554.541 66.3376 L562.197 66.3376 L562.197 72.576 L554.541 72.576 Q545.913 72.576 542.632 69.3758 Q539.35 66.1351 539.35 57.6282 L539.35 32.9987 L533.882 32.9987 L533.882 27.2059 L539.35 27.2059 L539.35 14.324 L546.845 14.324 Z" fill="#000000" fill-rule="nonzero" fill-opacity="1" /><path clip-path="url(#clip830)" d="M610.808 48.0275 L610.808 51.6733 L576.538 51.6733 Q577.024 59.3701 581.156 63.421 Q585.328 67.4314 592.741 67.4314 Q597.035 67.4314 601.046 66.3781 Q605.097 65.3249 609.066 63.2184 L609.066 70.267 Q605.056 71.9684 600.843 72.8596 Q596.63 73.7508 592.296 73.7508 Q581.439 73.7508 575.079 67.4314 Q568.76 61.1119 568.76 50.3365 Q568.76 39.1965 574.755 32.6746 Q580.791 26.1121 590.999 26.1121 Q600.154 26.1121 605.461 32.0264 Q610.808 37.9003 610.808 48.0275 M603.355 45.84 Q603.274 39.7232 599.911 36.0774 Q596.59 32.4315 591.08 32.4315 Q584.842 32.4315 581.075 35.9558 Q577.348 39.4801 576.781 45.8805 L603.355 45.84 Z" fill="#000000" fill-rule="nonzero" fill-opacity="1" /><path clip-path="url(#clip830)" d="M652.897 34.0924 L652.897 9.54393 L660.351 9.54393 L660.351 72.576 L652.897 72.576 L652.897 65.7705 Q650.548 69.8214 646.942 71.8063 Q643.378 73.7508 638.354 73.7508 Q630.131 73.7508 624.946 67.1883 Q619.801 60.6258 619.801 49.9314 Q619.801 39.2371 624.946 32.6746 Q630.131 26.1121 638.354 26.1121 Q643.378 26.1121 646.942 28.0971 Q650.548 30.0415 652.897 34.0924 M627.498 49.9314 Q627.498 58.1548 630.86 62.8538 Q634.263 67.5124 640.177 67.5124 Q646.092 67.5124 649.494 62.8538 Q652.897 58.1548 652.897 49.9314 Q652.897 41.7081 649.494 37.0496 Q646.092 32.3505 640.177 32.3505 Q634.263 32.3505 630.86 37.0496 Q627.498 41.7081 627.498 49.9314 Z" fill="#000000" fill-rule="nonzero" fill-opacity="1" /><path clip-path="url(#clip830)" d="M734.725 28.9478 L734.725 35.9153 Q731.566 34.1734 728.366 33.3227 Q725.206 32.4315 721.965 32.4315 Q714.714 32.4315 710.704 37.0496 Q706.693 41.6271 706.693 49.9314 Q706.693 58.2358 710.704 62.8538 Q714.714 67.4314 721.965 67.4314 Q725.206 67.4314 728.366 66.5807 Q731.566 65.6895 734.725 63.9476 L734.725 70.8341 Q731.606 72.2924 728.244 73.0216 Q724.922 73.7508 721.155 73.7508 Q710.906 73.7508 704.87 67.3098 Q698.834 60.8689 698.834 49.9314 Q698.834 38.832 704.911 32.472 Q711.028 26.1121 721.641 26.1121 Q725.084 26.1121 728.366 26.8413 Q731.647 27.5299 734.725 28.9478 Z" fill="#000000" fill-rule="nonzero" fill-opacity="1" /><path clip-path="url(#clip830)" d="M765.269 32.4315 Q759.274 32.4315 755.79 37.1306 Q752.306 41.7891 752.306 49.9314 Q752.306 58.0738 755.75 62.7728 Q759.233 67.4314 765.269 67.4314 Q771.224 67.4314 774.708 62.7323 Q778.192 58.0333 778.192 49.9314 Q778.192 41.8701 774.708 37.1711 Q771.224 32.4315 765.269 32.4315 M765.269 26.1121 Q774.991 26.1121 780.541 32.4315 Q786.091 38.7509 786.091 49.9314 Q786.091 61.0714 780.541 67.4314 Q774.991 73.7508 765.269 73.7508 Q755.507 73.7508 749.957 67.4314 Q744.448 61.0714 744.448 49.9314 Q744.448 38.7509 749.957 32.4315 Q755.507 26.1121 765.269 26.1121 Z" fill="#000000" fill-rule="nonzero" fill-opacity="1" /><path clip-path="url(#clip830)" d="M827.37 28.5427 L827.37 35.5912 Q824.21 33.9709 820.807 33.1607 Q817.404 32.3505 813.759 32.3505 Q808.209 32.3505 805.414 34.0519 Q802.659 35.7533 802.659 39.156 Q802.659 41.7486 804.644 43.2475 Q806.629 44.7058 812.624 46.0426 L815.176 46.6097 Q823.116 48.3111 826.438 51.4303 Q829.8 54.509 829.8 60.0587 Q829.8 66.3781 824.777 70.0644 Q819.794 73.7508 811.045 73.7508 Q807.399 73.7508 803.429 73.0216 Q799.499 72.3329 795.124 70.9151 L795.124 63.2184 Q799.256 65.3654 803.267 66.4591 Q807.277 67.5124 811.207 67.5124 Q816.473 67.5124 819.308 65.73 Q822.144 63.9071 822.144 60.6258 Q822.144 57.5877 820.078 55.9673 Q818.053 54.3469 811.126 52.8481 L808.533 52.2405 Q801.606 50.7821 798.527 47.7845 Q795.449 44.7463 795.449 39.4801 Q795.449 33.0797 799.986 29.5959 Q804.523 26.1121 812.867 26.1121 Q816.999 26.1121 820.645 26.7198 Q824.291 27.3274 827.37 28.5427 Z" fill="#000000" fill-rule="nonzero" fill-opacity="1" /><path clip-path="url(#clip830)" d="M841.669 27.2059 L849.123 27.2059 L849.123 72.576 L841.669 72.576 L841.669 27.2059 M841.669 9.54393 L849.123 9.54393 L849.123 18.9825 L841.669 18.9825 L841.669 9.54393 Z" fill="#000000" fill-rule="nonzero" fill-opacity="1" /><path clip-path="url(#clip830)" d="M902.433 45.1919 L902.433 72.576 L894.979 72.576 L894.979 45.4349 Q894.979 38.994 892.468 35.7938 Q889.956 32.5936 884.933 32.5936 Q878.897 32.5936 875.413 36.4419 Q871.93 40.2903 871.93 46.9338 L871.93 72.576 L864.435 72.576 L864.435 27.2059 L871.93 27.2059 L871.93 34.2544 Q874.603 30.163 878.209 28.1376 Q881.854 26.1121 886.594 26.1121 Q894.412 26.1121 898.423 30.9732 Q902.433 35.7938 902.433 45.1919 Z" fill="#000000" fill-rule="nonzero" fill-opacity="1" /><path clip-path="url(#clip830)" d="M956.107 48.0275 L956.107 51.6733 L921.837 51.6733 Q922.323 59.3701 926.455 63.421 Q930.627 67.4314 938.04 67.4314 Q942.334 67.4314 946.345 66.3781 Q950.396 65.3249 954.366 63.2184 L954.366 70.267 Q950.355 71.9684 946.142 72.8596 Q941.929 73.7508 937.595 73.7508 Q926.738 73.7508 920.378 67.4314 Q914.059 61.1119 914.059 50.3365 Q914.059 39.1965 920.054 32.6746 Q926.09 26.1121 936.298 26.1121 Q945.454 26.1121 950.76 32.0264 Q956.107 37.9003 956.107 48.0275 M948.654 45.84 Q948.573 39.7232 945.21 36.0774 Q941.889 32.4315 936.38 32.4315 Q930.141 32.4315 926.374 35.9558 Q922.647 39.4801 922.08 45.8805 L948.654 45.84 Z" fill="#000000" fill-rule="nonzero" fill-opacity="1" /><path clip-path="url(#clip830)" d="M1023.64 28.5427 L1023.64 35.5912 Q1020.48 33.9709 1017.07 33.1607 Q1013.67 32.3505 1010.02 32.3505 Q1004.48 32.3505 1001.68 34.0519 Q998.925 35.7533 998.925 39.156 Q998.925 41.7486 1000.91 43.2475 Q1002.9 44.7058 1008.89 46.0426 L1011.44 46.6097 Q1019.38 48.3111 1022.7 51.4303 Q1026.07 54.509 1026.07 60.0587 Q1026.07 66.3781 1021.04 70.0644 Q1016.06 73.7508 1007.31 73.7508 Q1003.67 73.7508 999.695 73.0216 Q995.766 72.3329 991.391 70.9151 L991.391 63.2184 Q995.523 65.3654 999.533 66.4591 Q1003.54 67.5124 1007.47 67.5124 Q1012.74 67.5124 1015.57 65.73 Q1018.41 63.9071 1018.41 60.6258 Q1018.41 57.5877 1016.34 55.9673 Q1014.32 54.3469 1007.39 52.8481 L1004.8 52.2405 Q997.872 50.7821 994.794 47.7845 Q991.715 44.7463 991.715 39.4801 Q991.715 33.0797 996.252 29.5959 Q1000.79 26.1121 1009.13 26.1121 Q1013.27 26.1121 1016.91 26.7198 Q1020.56 27.3274 1023.64 28.5427 Z" fill="#000000" fill-rule="nonzero" fill-opacity="1" /><path clip-path="url(#clip830)" d="M1037.94 27.2059 L1045.39 27.2059 L1045.39 72.576 L1037.94 72.576 L1037.94 27.2059 M1037.94 9.54393 L1045.39 9.54393 L1045.39 18.9825 L1037.94 18.9825 L1037.94 9.54393 Z" fill="#000000" fill-rule="nonzero" fill-opacity="1" /><path clip-path="url(#clip830)" d="M1096.31 35.9153 Q1099.1 30.8922 1102.99 28.5022 Q1106.88 26.1121 1112.15 26.1121 Q1119.24 26.1121 1123.09 31.0947 Q1126.93 36.0368 1126.93 45.1919 L1126.93 72.576 L1119.44 72.576 L1119.44 45.4349 Q1119.44 38.913 1117.13 35.7533 Q1114.82 32.5936 1110.08 32.5936 Q1104.29 32.5936 1100.93 36.4419 Q1097.56 40.2903 1097.56 46.9338 L1097.56 72.576 L1090.07 72.576 L1090.07 45.4349 Q1090.07 38.8725 1087.76 35.7533 Q1085.45 32.5936 1080.63 32.5936 Q1074.92 32.5936 1071.56 36.4824 Q1068.2 40.3308 1068.2 46.9338 L1068.2 72.576 L1060.7 72.576 L1060.7 27.2059 L1068.2 27.2059 L1068.2 34.2544 Q1070.75 30.082 1074.31 28.0971 Q1077.88 26.1121 1082.78 26.1121 Q1087.72 26.1121 1091.16 28.6237 Q1094.65 31.1352 1096.31 35.9153 Z" fill="#000000" fill-rule="nonzero" fill-opacity="1" /><path clip-path="url(#clip830)" d="M1141.8 27.2059 L1149.25 27.2059 L1149.25 72.576 L1141.8 72.576 L1141.8 27.2059 M1141.8 9.54393 L1149.25 9.54393 L1149.25 18.9825 L1141.8 18.9825 L1141.8 9.54393 Z" fill="#000000" fill-rule="nonzero" fill-opacity="1" /><path clip-path="url(#clip830)" d="M1164.85 9.54393 L1172.3 9.54393 L1172.3 72.576 L1164.85 72.576 L1164.85 9.54393 Z" fill="#000000" fill-rule="nonzero" fill-opacity="1" /><path clip-path="url(#clip830)" d="M1208.52 49.7694 Q1199.49 49.7694 1196 51.8354 Q1192.52 53.9013 1192.52 58.8839 Q1192.52 62.8538 1195.11 65.2034 Q1197.74 67.5124 1202.24 67.5124 Q1208.44 67.5124 1212.17 63.1374 Q1215.93 58.7219 1215.93 51.4303 L1215.93 49.7694 L1208.52 49.7694 M1223.39 46.6907 L1223.39 72.576 L1215.93 72.576 L1215.93 65.6895 Q1213.38 69.8214 1209.57 71.8063 Q1205.76 73.7508 1200.26 73.7508 Q1193.29 73.7508 1189.16 69.8619 Q1185.06 65.9325 1185.06 59.3701 Q1185.06 51.7138 1190.17 47.825 Q1195.31 43.9361 1205.48 43.9361 L1215.93 43.9361 L1215.93 43.2069 Q1215.93 38.0623 1212.53 35.2672 Q1209.17 32.4315 1203.05 32.4315 Q1199.16 32.4315 1195.48 33.3632 Q1191.79 34.295 1188.39 36.1584 L1188.39 29.2718 Q1192.48 27.692 1196.33 26.9223 Q1200.17 26.1121 1203.82 26.1121 Q1213.66 26.1121 1218.52 31.2163 Q1223.39 36.3204 1223.39 46.6907 Z" fill="#000000" fill-rule="nonzero" fill-opacity="1" /><path clip-path="url(#clip830)" d="M1265.03 34.1734 Q1263.77 33.4443 1262.27 33.1202 Q1260.82 32.7556 1259.03 32.7556 Q1252.71 32.7556 1249.31 36.8875 Q1245.95 40.9789 1245.95 48.6757 L1245.95 72.576 L1238.46 72.576 L1238.46 27.2059 L1245.95 27.2059 L1245.95 34.2544 Q1248.3 30.1225 1252.07 28.1376 Q1255.83 26.1121 1261.22 26.1121 Q1261.99 26.1121 1262.92 26.2337 Q1263.85 26.3147 1264.99 26.5172 L1265.03 34.1734 Z" fill="#000000" fill-rule="nonzero" fill-opacity="1" /><path clip-path="url(#clip830)" d="M1272.85 27.2059 L1280.3 27.2059 L1280.3 72.576 L1272.85 72.576 L1272.85 27.2059 M1272.85 9.54393 L1280.3 9.54393 L1280.3 18.9825 L1272.85 18.9825 L1272.85 9.54393 Z" fill="#000000" fill-rule="nonzero" fill-opacity="1" /><path clip-path="url(#clip830)" d="M1303.27 14.324 L1303.27 27.2059 L1318.62 27.2059 L1318.62 32.9987 L1303.27 32.9987 L1303.27 57.6282 Q1303.27 63.1779 1304.77 64.7578 Q1306.31 66.3376 1310.97 66.3376 L1318.62 66.3376 L1318.62 72.576 L1310.97 72.576 Q1302.34 72.576 1299.06 69.3758 Q1295.78 66.1351 1295.78 57.6282 L1295.78 32.9987 L1290.31 32.9987 L1290.31 27.2059 L1295.78 27.2059 L1295.78 14.324 L1303.27 14.324 Z" fill="#000000" fill-rule="nonzero" fill-opacity="1" /><path clip-path="url(#clip830)" d="M1328.43 27.2059 L1335.88 27.2059 L1335.88 72.576 L1328.43 72.576 L1328.43 27.2059 M1328.43 9.54393 L1335.88 9.54393 L1335.88 18.9825 L1328.43 18.9825 L1328.43 9.54393 Z" fill="#000000" fill-rule="nonzero" fill-opacity="1" /><path clip-path="url(#clip830)" d="M1390.28 48.0275 L1390.28 51.6733 L1356.01 51.6733 Q1356.5 59.3701 1360.63 63.421 Q1364.8 67.4314 1372.22 67.4314 Q1376.51 67.4314 1380.52 66.3781 Q1384.57 65.3249 1388.54 63.2184 L1388.54 70.267 Q1384.53 71.9684 1380.32 72.8596 Q1376.11 73.7508 1371.77 73.7508 Q1360.91 73.7508 1354.55 67.4314 Q1348.23 61.1119 1348.23 50.3365 Q1348.23 39.1965 1354.23 32.6746 Q1360.27 26.1121 1370.47 26.1121 Q1379.63 26.1121 1384.94 32.0264 Q1390.28 37.9003 1390.28 48.0275 M1382.83 45.84 Q1382.75 39.7232 1379.39 36.0774 Q1376.06 32.4315 1370.56 32.4315 Q1364.32 32.4315 1360.55 35.9558 Q1356.82 39.4801 1356.26 45.8805 L1382.83 45.84 Z" fill="#000000" fill-rule="nonzero" fill-opacity="1" /><path clip-path="url(#clip830)" d="M1431.44 28.5427 L1431.44 35.5912 Q1428.28 33.9709 1424.88 33.1607 Q1421.48 32.3505 1417.83 32.3505 Q1412.28 32.3505 1409.48 34.0519 Q1406.73 35.7533 1406.73 39.156 Q1406.73 41.7486 1408.71 43.2475 Q1410.7 44.7058 1416.7 46.0426 L1419.25 46.6097 Q1427.19 48.3111 1430.51 51.4303 Q1433.87 54.509 1433.87 60.0587 Q1433.87 66.3781 1428.85 70.0644 Q1423.87 73.7508 1415.12 73.7508 Q1411.47 73.7508 1407.5 73.0216 Q1403.57 72.3329 1399.2 70.9151 L1399.2 63.2184 Q1403.33 65.3654 1407.34 66.4591 Q1411.35 67.5124 1415.28 67.5124 Q1420.54 67.5124 1423.38 65.73 Q1426.21 63.9071 1426.21 60.6258 Q1426.21 57.5877 1424.15 55.9673 Q1422.12 54.3469 1415.2 52.8481 L1412.6 52.2405 Q1405.68 50.7821 1402.6 47.7845 Q1399.52 44.7463 1399.52 39.4801 Q1399.52 33.0797 1404.06 29.5959 Q1408.59 26.1121 1416.94 26.1121 Q1421.07 26.1121 1424.72 26.7198 Q1428.36 27.3274 1431.44 28.5427 Z" fill="#000000" fill-rule="nonzero" fill-opacity="1" /><path clip-path="url(#clip830)" d="M1504.76 28.9478 L1504.76 35.9153 Q1501.6 34.1734 1498.4 33.3227 Q1495.24 32.4315 1492 32.4315 Q1484.75 32.4315 1480.74 37.0496 Q1476.73 41.6271 1476.73 49.9314 Q1476.73 58.2358 1480.74 62.8538 Q1484.75 67.4314 1492 67.4314 Q1495.24 67.4314 1498.4 66.5807 Q1501.6 65.6895 1504.76 63.9476 L1504.76 70.8341 Q1501.64 72.2924 1498.28 73.0216 Q1494.96 73.7508 1491.19 73.7508 Q1480.94 73.7508 1474.91 67.3098 Q1468.87 60.8689 1468.87 49.9314 Q1468.87 38.832 1474.95 32.472 Q1481.06 26.1121 1491.68 26.1121 Q1495.12 26.1121 1498.4 26.8413 Q1501.68 27.5299 1504.76 28.9478 Z" fill="#000000" fill-rule="nonzero" fill-opacity="1" /><path clip-path="url(#clip830)" d="M1556.53 48.0275 L1556.53 51.6733 L1522.26 51.6733 Q1522.75 59.3701 1526.88 63.421 Q1531.05 67.4314 1538.47 67.4314 Q1542.76 67.4314 1546.77 66.3781 Q1550.82 65.3249 1554.79 63.2184 L1554.79 70.267 Q1550.78 71.9684 1546.57 72.8596 Q1542.35 73.7508 1538.02 73.7508 Q1527.16 73.7508 1520.8 67.4314 Q1514.48 61.1119 1514.48 50.3365 Q1514.48 39.1965 1520.48 32.6746 Q1526.52 26.1121 1536.72 26.1121 Q1545.88 26.1121 1551.19 32.0264 Q1556.53 37.9003 1556.53 48.0275 M1549.08 45.84 Q1549 39.7232 1545.64 36.0774 Q1542.31 32.4315 1536.8 32.4315 Q1530.57 32.4315 1526.8 35.9558 Q1523.07 39.4801 1522.5 45.8805 L1549.08 45.84 Z" fill="#000000" fill-rule="nonzero" fill-opacity="1" /><path clip-path="url(#clip830)" d="M1568.77 9.54393 L1576.22 9.54393 L1576.22 72.576 L1568.77 72.576 L1568.77 9.54393 Z" fill="#000000" fill-rule="nonzero" fill-opacity="1" /><path clip-path="url(#clip830)" d="M1591.82 9.54393 L1599.27 9.54393 L1599.27 72.576 L1591.82 72.576 L1591.82 9.54393 Z" fill="#000000" fill-rule="nonzero" fill-opacity="1" /><path clip-path="url(#clip830)" d="M1643.71 65.6895 L1657.08 65.6895 L1657.08 19.5497 L1642.53 22.4663 L1642.53 15.0127 L1656.99 12.096 L1665.18 12.096 L1665.18 65.6895 L1678.55 65.6895 L1678.55 72.576 L1643.71 72.576 L1643.71 65.6895 Z" fill="#000000" fill-rule="nonzero" fill-opacity="1" /><path clip-path="url(#clip830)" d="M1712.57 17.4837 Q1706.25 17.4837 1703.05 23.7221 Q1699.89 29.92 1699.89 42.3968 Q1699.89 54.833 1703.05 61.0714 Q1706.25 67.2693 1712.57 67.2693 Q1718.93 67.2693 1722.09 61.0714 Q1725.29 54.833 1725.29 42.3968 Q1725.29 29.92 1722.09 23.7221 Q1718.93 17.4837 1712.57 17.4837 M1712.57 11.0023 Q1722.74 11.0023 1728.09 19.0636 Q1733.48 27.0843 1733.48 42.3968 Q1733.48 57.6687 1728.09 65.73 Q1722.74 73.7508 1712.57 73.7508 Q1702.41 73.7508 1697.02 65.73 Q1691.67 57.6687 1691.67 42.3968 Q1691.67 27.0843 1697.02 19.0636 Q1702.41 11.0023 1712.57 11.0023 Z" fill="#000000" fill-rule="nonzero" fill-opacity="1" /><path clip-path="url(#clip830)" d="M1749.27 65.6895 L1762.64 65.6895 L1762.64 19.5497 L1748.1 22.4663 L1748.1 15.0127 L1762.56 12.096 L1770.74 12.096 L1770.74 65.6895 L1784.11 65.6895 L1784.11 72.576 L1749.27 72.576 L1749.27 65.6895 Z" fill="#000000" fill-rule="nonzero" fill-opacity="1" /><path clip-path="url(#clip830)" d="M1825.96 27.2059 L1833.41 27.2059 L1833.41 72.576 L1825.96 72.576 L1825.96 27.2059 M1825.96 9.54393 L1833.41 9.54393 L1833.41 18.9825 L1825.96 18.9825 L1825.96 9.54393 Z" fill="#000000" fill-rule="nonzero" fill-opacity="1" /><path clip-path="url(#clip830)" d="M1856.38 14.324 L1856.38 27.2059 L1871.73 27.2059 L1871.73 32.9987 L1856.38 32.9987 L1856.38 57.6282 Q1856.38 63.1779 1857.88 64.7578 Q1859.42 66.3376 1864.08 66.3376 L1871.73 66.3376 L1871.73 72.576 L1864.08 72.576 Q1855.45 72.576 1852.17 69.3758 Q1848.89 66.1351 1848.89 57.6282 L1848.89 32.9987 L1843.42 32.9987 L1843.42 27.2059 L1848.89 27.2059 L1848.89 14.324 L1856.38 14.324 Z" fill="#000000" fill-rule="nonzero" fill-opacity="1" /><path clip-path="url(#clip830)" d="M1920.34 48.0275 L1920.34 51.6733 L1886.07 51.6733 Q1886.56 59.3701 1890.69 63.421 Q1894.86 67.4314 1902.28 67.4314 Q1906.57 67.4314 1910.58 66.3781 Q1914.63 65.3249 1918.6 63.2184 L1918.6 70.267 Q1914.59 71.9684 1910.38 72.8596 Q1906.17 73.7508 1901.83 73.7508 Q1890.98 73.7508 1884.62 67.4314 Q1878.3 61.1119 1878.3 50.3365 Q1878.3 39.1965 1884.29 32.6746 Q1890.33 26.1121 1900.54 26.1121 Q1909.69 26.1121 1915 32.0264 Q1920.34 37.9003 1920.34 48.0275 M1912.89 45.84 Q1912.81 39.7232 1909.45 36.0774 Q1906.13 32.4315 1900.62 32.4315 Q1894.38 32.4315 1890.61 35.9558 Q1886.88 39.4801 1886.32 45.8805 L1912.89 45.84 Z" fill="#000000" fill-rule="nonzero" fill-opacity="1" /><path clip-path="url(#clip830)" d="M1958.87 34.1734 Q1957.61 33.4443 1956.11 33.1202 Q1954.66 32.7556 1952.87 32.7556 Q1946.55 32.7556 1943.15 36.8875 Q1939.79 40.9789 1939.79 48.6757 L1939.79 72.576 L1932.29 72.576 L1932.29 27.2059 L1939.79 27.2059 L1939.79 34.2544 Q1942.14 30.1225 1945.91 28.1376 Q1949.67 26.1121 1955.06 26.1121 Q1955.83 26.1121 1956.76 26.2337 Q1957.69 26.3147 1958.83 26.5172 L1958.87 34.1734 Z" fill="#000000" fill-rule="nonzero" fill-opacity="1" /><path clip-path="url(#clip830)" d="M1987.31 49.7694 Q1978.27 49.7694 1974.79 51.8354 Q1971.3 53.9013 1971.3 58.8839 Q1971.3 62.8538 1973.9 65.2034 Q1976.53 67.5124 1981.03 67.5124 Q1987.22 67.5124 1990.95 63.1374 Q1994.72 58.7219 1994.72 51.4303 L1994.72 49.7694 L1987.31 49.7694 M2002.17 46.6907 L2002.17 72.576 L1994.72 72.576 L1994.72 65.6895 Q1992.17 69.8214 1988.36 71.8063 Q1984.55 73.7508 1979.04 73.7508 Q1972.07 73.7508 1967.94 69.8619 Q1963.85 65.9325 1963.85 59.3701 Q1963.85 51.7138 1968.95 47.825 Q1974.1 43.9361 1984.27 43.9361 L1994.72 43.9361 L1994.72 43.2069 Q1994.72 38.0623 1991.32 35.2672 Q1987.95 32.4315 1981.84 32.4315 Q1977.95 32.4315 1974.26 33.3632 Q1970.58 34.295 1967.17 36.1584 L1967.17 29.2718 Q1971.26 27.692 1975.11 26.9223 Q1978.96 26.1121 1982.61 26.1121 Q1992.45 26.1121 1997.31 31.2163 Q2002.17 36.3204 2002.17 46.6907 Z" fill="#000000" fill-rule="nonzero" fill-opacity="1" /><path clip-path="url(#clip830)" d="M2024.9 14.324 L2024.9 27.2059 L2040.25 27.2059 L2040.25 32.9987 L2024.9 32.9987 L2024.9 57.6282 Q2024.9 63.1779 2026.4 64.7578 Q2027.94 66.3376 2032.59 66.3376 L2040.25 66.3376 L2040.25 72.576 L2032.59 72.576 Q2023.97 72.576 2020.69 69.3758 Q2017.4 66.1351 2017.4 57.6282 L2017.4 32.9987 L2011.94 32.9987 L2011.94 27.2059 L2017.4 27.2059 L2017.4 14.324 L2024.9 14.324 Z" fill="#000000" fill-rule="nonzero" fill-opacity="1" /><path clip-path="url(#clip830)" d="M2050.05 27.2059 L2057.51 27.2059 L2057.51 72.576 L2050.05 72.576 L2050.05 27.2059 M2050.05 9.54393 L2057.51 9.54393 L2057.51 18.9825 L2050.05 18.9825 L2050.05 9.54393 Z" fill="#000000" fill-rule="nonzero" fill-opacity="1" /><path clip-path="url(#clip830)" d="M2090.68 32.4315 Q2084.69 32.4315 2081.21 37.1306 Q2077.72 41.7891 2077.72 49.9314 Q2077.72 58.0738 2081.17 62.7728 Q2084.65 67.4314 2090.68 67.4314 Q2096.64 67.4314 2100.12 62.7323 Q2103.61 58.0333 2103.61 49.9314 Q2103.61 41.8701 2100.12 37.1711 Q2096.64 32.4315 2090.68 32.4315 M2090.68 26.1121 Q2100.41 26.1121 2105.96 32.4315 Q2111.51 38.7509 2111.51 49.9314 Q2111.51 61.0714 2105.96 67.4314 Q2100.41 73.7508 2090.68 73.7508 Q2080.92 73.7508 2075.37 67.4314 Q2069.86 61.0714 2069.86 49.9314 Q2069.86 38.7509 2075.37 32.4315 Q2080.92 26.1121 2090.68 26.1121 Z" fill="#000000" fill-rule="nonzero" fill-opacity="1" /><path clip-path="url(#clip830)" d="M2161.58 45.1919 L2161.58 72.576 L2154.12 72.576 L2154.12 45.4349 Q2154.12 38.994 2151.61 35.7938 Q2149.1 32.5936 2144.08 32.5936 Q2138.04 32.5936 2134.56 36.4419 Q2131.07 40.2903 2131.07 46.9338 L2131.07 72.576 L2123.58 72.576 L2123.58 27.2059 L2131.07 27.2059 L2131.07 34.2544 Q2133.75 30.163 2137.35 28.1376 Q2141 26.1121 2145.74 26.1121 Q2153.55 26.1121 2157.57 30.9732 Q2161.58 35.7938 2161.58 45.1919 Z" fill="#000000" fill-rule="nonzero" fill-opacity="1" /><path clip-path="url(#clip830)" d="M2203.95 12.096 L2236.07 12.096 L2236.07 18.9825 L2211.44 18.9825 L2211.44 33.8088 Q2213.22 33.2012 2215.01 32.9176 Q2216.79 32.5936 2218.57 32.5936 Q2228.7 32.5936 2234.61 38.1433 Q2240.53 43.6931 2240.53 53.1722 Q2240.53 62.9348 2234.45 68.3631 Q2228.37 73.7508 2217.32 73.7508 Q2213.51 73.7508 2209.54 73.1026 Q2205.61 72.4545 2201.4 71.1582 L2201.4 62.9348 Q2205.04 64.9198 2208.93 65.892 Q2212.82 66.8642 2217.15 66.8642 Q2224.16 66.8642 2228.25 63.1779 Q2232.34 59.4916 2232.34 53.1722 Q2232.34 46.8528 2228.25 43.1664 Q2224.16 39.4801 2217.15 39.4801 Q2213.87 39.4801 2210.59 40.2093 Q2207.35 40.9384 2203.95 42.4778 L2203.95 12.096 Z" fill="#000000" fill-rule="nonzero" fill-opacity="1" /><polyline clip-path="url(#clip832)" style="stroke:#009af9; stroke-linecap:round; stroke-linejoin:round; stroke-width:4; stroke-opacity:1; fill:none" points="345.82,1386.4 347.771,1369.46 349.721,1368.26 351.672,1356.38 353.622,1350.72 355.572,1348.4 357.523,1348.37 359.473,1345.87 361.424,1342.65 363.374,1342.41 365.325,1341.12 367.275,1338.93 369.226,1337.32 371.176,1337.28 373.126,1336.45 375.077,1334.36 377.027,1332.57 378.978,1332.29 380.928,1328.93 382.879,1328.5 384.829,1326.93 386.779,1326.41 388.73,1324.94 390.68,1322.62 392.631,1321.6 394.581,1321.53 396.532,1321.49 398.482,1321.47 400.432,1321.23 402.383,1320.4 404.333,1320.39 406.284,1320.19 408.234,1320 410.185,1319.16 412.135,1319.15 414.085,1318.96 416.036,1318.74 417.986,1317.9 419.937,1317.7 421.887,1317.12 423.838,1316.75 425.788,1316.05 427.738,1315.43 429.689,1315.15 431.639,1314.61 433.59,1314.54 435.54,1314.35 437.491,1311.54 439.441,1311.08 441.391,1310.97 443.342,1310.68 445.292,1310.54 447.243,1310.53 449.193,1310.45 451.144,1310.27 453.094,1310.27 455.045,1310 456.995,1309.97 458.945,1309.93 460.896,1309.76 462.846,1309.6 464.797,1309.37 466.747,1309.3 468.698,1309.26 470.648,1309.17 472.598,1308.98 474.549,1308.83 476.499,1308.67 478.45,1308.32 480.4,1308.27 482.351,1308.15 484.301,1307.67 486.251,1307.64 488.202,1307.52 490.152,1307.42 492.103,1307.26 494.053,1307.16 496.004,1307.01 497.954,1306.93 499.904,1306.51 501.855,1306.41 503.805,1306.38 505.756,1306.38 507.706,1305.43 509.657,1304.58 511.607,1303.74 513.557,1303.59 515.508,1303.36 517.458,1303.13 519.409,1302.4 521.359,1301.83 523.31,1301.77 525.26,1301.6 527.21,1301.28 529.161,1301.23 531.111,1301.14 533.062,1300.16 535.012,1300.04 536.963,1299.77 538.913,1299.17 540.863,1299.11 542.814,1298.72 544.764,1298.61 546.715,1298.16 548.665,1298.01 550.616,1297.83 552.566,1297.78 554.517,1297.71 556.467,1297.54 558.417,1297.27 560.368,1297.22 562.318,1296.96 564.269,1296.81 566.219,1296.17 568.17,1295.75 570.12,1294.84 572.07,1294.5 574.021,1294.31 575.971,1293.87 577.922,1292.76 579.872,1292.69 581.823,1292.59 583.773,1292.49 585.723,1292.44 587.674,1291.34 589.624,1289.9 591.575,1289.67 593.525,1289.27 595.476,1288 597.426,1287.51 599.376,1286.93 601.327,1286.68 603.277,1286.56 605.228,1286.52 607.178,1286.29 609.129,1285.93 611.079,1283.82 613.029,1283.56 614.98,1283.03 616.93,1282.67 618.881,1282.4 620.831,1282.33 622.782,1281.92 624.732,1281.49 626.682,1280.92 628.633,1280.11 630.583,1279.64 632.534,1277.41 634.484,1277.1 636.435,1277.02 638.385,1276.82 640.336,1276.58 642.286,1275.34 644.236,1274.29 646.187,1273.43 648.137,1273.24 650.088,1272.38 652.038,1272.34 653.989,1270.43 655.939,1270.04 657.889,1269.03 659.84,1268.51 661.79,1268.35 663.741,1267.92 665.691,1267.78 667.642,1267.11 669.592,1266.48 671.542,1264.99 673.493,1262.62 675.443,1262.45 677.394,1260.54 679.344,1260.14 681.295,1259.87 683.245,1259.34 685.195,1257.38 687.146,1257.26 689.096,1256.91 691.047,1255.08 692.997,1254.8 694.948,1254.74 696.898,1254.26 698.848,1253.61 700.799,1253.15 702.749,1252.31 704.7,1250.07 706.65,1250.07 708.601,1249.79 710.551,1249.36 712.501,1248.76 714.452,1248.63 716.402,1247.88 718.353,1243.8 720.303,1243.62 722.254,1243.59 724.204,1243.43 726.154,1243.4 728.105,1242.92 730.055,1238.57 732.006,1237.28 733.956,1234.85 735.907,1229.28 737.857,1228.4 739.808,1228.3 741.758,1226.8 743.708,1226.3 745.659,1225.63 747.609,1220.61 749.56,1219.39 751.51,1217.45 753.461,1215.49 755.411,1214.99 757.361,1211.57 759.312,1210.64 761.262,1210.03 763.213,1204.27 765.163,1203.59 767.114,1200.7 769.064,1199.43 771.014,1198.95 772.965,1198.65 774.915,1198.48 776.866,1195.91 778.816,1195.6 780.767,1194.93 782.717,1194.1 784.667,1193.96 786.618,1192.98 788.568,1190.39 790.519,1189.89 792.469,1189.44 794.42,1189.31 796.37,1188.94 798.32,1187.45 800.271,1187.43 802.221,1184.24 804.172,1184.17 806.122,1183.28 808.073,1183.03 810.023,1181.61 811.973,1177.29 813.924,1175.84 815.874,1173.77 817.825,1171.59 819.775,1169.02 821.726,1168.98 823.676,1167.87 825.627,1165.41 827.577,1164.91 829.527,1159.79 831.478,1159.68 833.428,1159.39 835.379,1158.31 837.329,1157.63 839.28,1152.43 841.23,1152.2 843.18,1150.7 845.131,1149.73 847.081,1147.76 849.032,1147.59 850.982,1146.51 852.933,1145.75 854.883,1145.13 856.833,1144.93 858.784,1142.12 860.734,1141.44 862.685,1141.19 864.635,1138.28 866.586,1138.03 868.536,1137.18 870.486,1136.57 872.437,1135.32 874.387,1135.16 876.338,1134.74 878.288,1133.71 880.239,1131.98 882.189,1131.44 884.139,1130.38 886.09,1129.26 888.04,1128.93 889.991,1128.89 891.941,1127.17 893.892,1127.09 895.842,1126.92 897.792,1120.32 899.743,1120.14 901.693,1119.83 903.644,1119.71 905.594,1119.57 907.545,1119.34 909.495,1119.03 911.445,1116.21 913.396,1113.75 915.346,1113.2 917.297,1109.97 919.247,1106.9 921.198,1106.89 923.148,1106.67 925.099,1105.72 927.049,1105.52 928.999,1104.28 930.95,1103.69 932.9,1103.53 934.851,1103.42 936.801,1103.05 938.752,1102.58 940.702,1102.47 942.652,1100.11 944.603,1099.84 946.553,1099.67 948.504,1098.76 950.454,1096.49 952.405,1096.43 954.355,1095.8 956.305,1095.26 958.256,1095 960.206,1094.56 962.157,1093.59 964.107,1093.13 966.058,1092.58 968.008,1092.32 969.958,1092.07 971.909,1091.32 973.859,1091.01 975.81,1090.35 977.76,1088.54 979.711,1087.94 981.661,1087.63 983.611,1085.02 985.562,1082.69 987.512,1079.9 989.463,1078.93 991.413,1078.79 993.364,1076.36 995.314,1076.21 997.264,1074.84 999.215,1074.52 1001.17,1074.12 1003.12,1073.19 1005.07,1070.16 1007.02,1068.66 1008.97,1067.88 1010.92,1066.82 1012.87,1063.54 1014.82,1060.49 1016.77,1060.26 1018.72,1059.47 1020.67,1059.14 1022.62,1058.54 1024.57,1057.08 1026.52,1056.16 1028.47,1055.61 1030.42,1055.45 1032.37,1052.2 1034.32,1052.16 1036.27,1050.45 1038.22,1049.56 1040.17,1049.41 1042.12,1049.39 1044.07,1047.3 1046.03,1046.96 1047.98,1046.75 1049.93,1045.09 1051.88,1044.74 1053.83,1043.43 1055.78,1041.85 1057.73,1040.39 1059.68,1040.17 1061.63,1039.16 1063.58,1039 1065.53,1037.11 1067.48,1036.99 1069.43,1033.62 1071.38,1033.55 1073.33,1032.75 1075.28,1031.12 1077.23,1030.85 1079.18,1028.64 1081.13,1027.23 1083.08,1027.15 1085.03,1025.92 1086.98,1025.57 1088.93,1025.06 1090.89,1024.87 1092.84,1023.99 1094.79,1022.12 1096.74,1018.63 1098.69,1017.83 1100.64,1017.78 1102.59,1016.48 1104.54,1015.23 1106.49,1014.62 1108.44,1013.04 1110.39,1012.37 1112.34,1012.14 1114.29,1011.46 1116.24,1011.2 1118.19,1007.6 1120.14,1007.43 1122.09,1007.26 1124.04,1006.24 1125.99,1003.82 1127.94,1003.69 1129.89,1003.37 1131.84,1002.59 1133.79,1002.49 1135.75,1002.43 1137.7,1001.99 1139.65,1001.79 1141.6,998.942 1143.55,998.826 1145.5,998.788 1147.45,998.237 1149.4,998.14 1151.35,997.919 1153.3,997.828 1155.25,996.923 1157.2,995.527 1159.15,995.429 1161.1,994.376 1163.05,994.152 1165,993.251 1166.95,992.451 1168.9,992.174 1170.85,992.055 1172.8,991.322 1174.75,988.302 1176.7,988.198 1178.65,988.038 1180.61,985.907 1182.56,983.546 1184.51,983.1 1186.46,982.131 1188.41,980.919 1190.36,980.157 1192.31,979.38 1194.26,978.478 1196.21,978.227 1198.16,975.122 1200.11,973.739 1202.06,972.41 1204.01,972.055 1205.96,971.461 1207.91,970.636 1209.86,970.159 1211.81,969.286 1213.76,967.511 1215.71,966.198 1217.66,963.654 1219.61,963.441 1221.56,960.059 1223.51,960.039 1225.46,959.465 1227.42,957.284 1229.37,956.416 1231.32,952.066 1233.27,951.072 1235.22,950.822 1237.17,950.281 1239.12,949.082 1241.07,948.592 1243.02,948.403 1244.97,947.502 1246.92,947.494 1248.87,946.811 1250.82,946.5 1252.77,942.531 1254.72,942.035 1256.67,941.943 1258.62,941.768 1260.57,940.903 1262.52,939.693 1264.47,937.692 1266.42,936.709 1268.37,936.123 1270.32,936.019 1272.28,935.224 1274.23,934.76 1276.18,934.192 1278.13,933.721 1280.08,932.835 1282.03,930.98 1283.98,930.492 1285.93,930.43 1287.88,930.329 1289.83,930.231 1291.78,930.181 1293.73,929.543 1295.68,929.415 1297.63,928.495 1299.58,928.352 1301.53,927.878 1303.48,927.384 1305.43,927.003 1307.38,926.176 1309.33,926.124 1311.28,926.109 1313.23,925.746 1315.18,924.678 1317.14,920.47 1319.09,920.398 1321.04,919.435 1322.99,918.894 1324.94,918.531 1326.89,918.276 1328.84,918.033 1330.79,917.928 1332.74,917.699 1334.69,917.687 1336.64,916.542 1338.59,916.314 1340.54,915.6 1342.49,914.98 1344.44,914.665 1346.39,914.446 1348.34,914.369 1350.29,913.436 1352.24,913.265 1354.19,912.888 1356.14,912.008 1358.09,911.553 1360.04,911.402 1362,911.288 1363.95,909.833 1365.9,909.662 1367.85,909.487 1369.8,909.464 1371.75,908.207 1373.7,907.725 1375.65,907.348 1377.6,905.655 1379.55,905.265 1381.5,905.038 1383.45,904.835 1385.4,904.669 1387.35,904.358 1389.3,904.116 1391.25,903.786 1393.2,903.718 1395.15,903.102 1397.1,902.677 1399.05,902.275 1401,901.707 1402.95,900.801 1404.9,900.289 1406.86,899.886 1408.81,899.772 1410.76,899.231 1412.71,898.323 1414.66,897.9 1416.61,896.818 1418.56,896.57 1420.51,896.429 1422.46,895.304 1424.41,894.727 1426.36,894.379 1428.31,893.761 1430.26,893.663 1432.21,893.548 1434.16,892.916 1436.11,892.77 1438.06,891.598 1440.01,890.624 1441.96,889.786 1443.91,889.749 1445.86,889.677 1447.81,889.629 1449.76,888.517 1451.72,888.276 1453.67,886.306 1455.62,886.111 1457.57,886.041 1459.52,885.502 1461.47,885.205 1463.42,884.938 1465.37,883.046 1467.32,881.996 1469.27,880.643 1471.22,880.437 1473.17,879.906 1475.12,878.731 1477.07,878.165 1479.02,876.383 1480.97,875.952 1482.92,875.806 1484.87,874.83 1486.82,872.769 1488.77,871.822 1490.72,871.649 1492.67,870.372 1494.62,869.785 1496.57,868.81 1498.53,868.355 1500.48,867.595 1502.43,867.497 1504.38,867.157 1506.33,866.26 1508.28,865.405 1510.23,865.265 1512.18,865.004 1514.13,864.648 1516.08,864.441 1518.03,863.978 1519.98,863.528 1521.93,863.246 1523.88,862.361 1525.83,861.155 1527.78,860.838 1529.73,860.185 1531.68,859.731 1533.63,858.727 1535.58,858.508 1537.53,857.977 1539.48,857.48 1541.43,857.291 1543.39,856.399 1545.34,856.213 1547.29,855.873 1549.24,855.723 1551.19,854.645 1553.14,852.671 1555.09,852.59 1557.04,850.87 1558.99,850.792 1560.94,850 1562.89,849.861 1564.84,849.382 1566.79,848.199 1568.74,847.497 1570.69,846.359 1572.64,845.57 1574.59,844.802 1576.54,840.336 1578.49,839.958 1580.44,839.852 1582.39,839.489 1584.34,838.658 1586.29,833.301 1588.25,831.956 1590.2,831.158 1592.15,831.037 1594.1,830.308 1596.05,829.418 1598,829.33 1599.95,829.031 1601.9,828.202 1603.85,828.191 1605.8,828.111 1607.75,826.822 1609.7,824.772 1611.65,824.618 1613.6,824.515 1615.55,822.394 1617.5,821.826 1619.45,820.59 1621.4,818.851 1623.35,818.748 1625.3,818.669 1627.25,814.87 1629.2,814.673 1631.15,814.555 1633.11,814.359 1635.06,812.798 1637.01,812.566 1638.96,811.041 1640.91,810.066 1642.86,808.999 1644.81,808.749 1646.76,807.779 1648.71,804.366 1650.66,800.052 1652.61,797.852 1654.56,797.392 1656.51,796.572 1658.46,793.652 1660.41,792.111 1662.36,792.081 1664.31,789.48 1666.26,789.472 1668.21,788.01 1670.16,787.339 1672.11,783.862 1674.06,782.544 1676.01,782.119 1677.97,780.193 1679.92,779.352 1681.87,779.156 1683.82,778.755 1685.77,778.497 1687.72,775.4 1689.67,773.578 1691.62,772.072 1693.57,771.475 1695.52,769.405 1697.47,768.42 1699.42,767.133 1701.37,766.605 1703.32,765.803 1705.27,765.277 1707.22,763.907 1709.17,761.227 1711.12,760.987 1713.07,759.159 1715.02,756.389 1716.97,754.63 1718.92,751.751 1720.87,749.356 1722.83,748.313 1724.78,748.288 1726.73,747.598 1728.68,737.944 1730.63,736.814 1732.58,734.365 1734.53,734.146 1736.48,734.077 1738.43,733.695 1740.38,732.251 1742.33,729.348 1744.28,727.104 1746.23,725.262 1748.18,723.19 1750.13,723.113 1752.08,720.278 1754.03,717.716 1755.98,717.254 1757.93,714.574 1759.88,712.365 1761.83,710.94 1763.78,706.988 1765.73,702.962 1767.68,699.798 1769.64,699.659 1771.59,698.607 1773.54,695.146 1775.49,692.888 1777.44,691.033 1779.39,688.053 1781.34,673.638 1783.29,665.075 1785.24,659.475 1787.19,649.437 1789.14,633.89 1791.09,624.54 1793.04,614.247 1794.99,605.156 1796.94,593.02 1798.89,586.493 1800.84,581.376 1802.79,546.239 1804.74,546.167 1806.69,524.397 1808.64,461.884 1810.59,403.123 1812.54,375.658 1814.5,369.12 1816.45,367.664 1818.4,358.981 1820.35,353.283 1822.3,345.917 1824.25,339.865 1826.2,335.854 1828.15,335.711 1830.1,332.965 1832.05,327.624 1834,326.095 1835.95,325.868 1837.9,314.305 1839.85,313.862 1841.8,307.144 1843.75,306.608 1845.7,305.647 1847.65,299.729 1849.6,295.497 1851.55,292.935 1853.5,290.039 1855.45,288.638 1857.4,284.594 1859.36,284.348 1861.31,284.21 1863.26,283.685 1865.21,283.114 1867.16,282.297 1869.11,277.132 1871.06,274.99 1873.01,274.176 1874.96,273.514 1876.91,273.184 1878.86,272.859 1880.81,271.539 1882.76,269.79 1884.71,268.182 1886.66,266.427 1888.61,266.228 1890.56,264.51 1892.51,263.632 1894.46,261.979 1896.41,261.52 1898.36,255.03 1900.31,254.667 1902.26,254.331 1904.22,254.107 1906.17,252.212 1908.12,249.7 1910.07,249.265 1912.02,248.924 1913.97,247.087 1915.92,246.853 1917.87,246.216 1919.82,245.948 1921.77,245.773 1923.72,245.571 1925.67,244.867 1927.62,244.823 1929.57,243.9 1931.52,243.531 1933.47,243.048 1935.42,241.265 1937.37,240.828 1939.32,240.458 1941.27,240.113 1943.22,240.095 1945.17,239.477 1947.12,238.626 1949.08,234.159 1951.03,233.407 1952.98,233.321 1954.93,233.135 1956.88,232.824 1958.83,230.422 1960.78,229.773 1962.73,229.77 1964.68,227.43 1966.63,225.35 1968.58,225.208 1970.53,225.132 1972.48,224.862 1974.43,223.801 1976.38,222.972 1978.33,222.271 1980.28,222.192 1982.23,222.09 1984.18,221.782 1986.13,221.46 1988.08,218.667 1990.03,218.667 1991.98,218.23 1993.94,216.533 1995.89,215.403 1997.84,213.97 1999.79,213.161 2001.74,213.132 2003.69,211.744 2005.64,211.357 2007.59,210.84 2009.54,210.747 2011.49,208.804 2013.44,208.489 2015.39,208.45 2017.34,208.207 2019.29,207.771 2021.24,206.874 2023.19,206.554 2025.14,206.129 2027.09,206.082 2029.04,205.936 2030.99,205.213 2032.94,204.972 2034.89,204.532 2036.84,203.859 2038.79,203.514 2040.75,203.225 2042.7,203.156 2044.65,202.948 2046.6,202.637 2048.55,202.074 2050.5,201.53 2052.45,201.045 2054.4,200.632 2056.35,200.39 2058.3,200.383 2060.25,199.905 2062.2,198.782 2064.15,198.484 2066.1,198.379 2068.05,198.367 2070,198.09 2071.95,197.962 2073.9,196.913 2075.85,196.61 2077.8,196.603 2079.75,196.107 2081.7,195.696 2083.65,195.694 2085.61,195.596 2087.56,195.55 2089.51,195.386 2091.46,195.01 2093.41,194.692 2095.36,194.536 2097.31,194.386 2099.26,194.077 2101.21,193.824 2103.16,193.106 2105.11,193.041 2107.06,192.907 2109.01,192.855 2110.96,191.686 2112.91,190.991 2114.86,190.752 2116.81,190.735 2118.76,190.347 2120.71,189.905 2122.66,189.109 2124.61,188.893 2126.56,188.734 2128.51,188.253 2130.47,186.56 2132.42,186.508 2134.37,185.632 2136.32,185.279 2138.27,185.267 2140.22,184.85 2142.17,184.726 2144.12,184.707 2146.07,184.63 2148.02,184.57 2149.97,184.038 2151.92,183.981 2153.87,183.962 2155.82,183.762 2157.77,183.501 2159.72,183.458 2161.67,183.371 2163.62,183.346 2165.57,182.971 2167.52,182.726 2169.47,182.625 2171.42,182.43 2173.37,182.066 2175.33,181.65 2177.28,181.6 2179.23,181.206 2181.18,181.202 2183.13,181.135 2185.08,181.127 2187.03,180.972 2188.98,180.791 2190.93,180.31 2192.88,179.192 2194.83,178.986 2196.78,178.929 2198.73,178.778 2200.68,178.312 2202.63,178.018 2204.58,177.962 2206.53,177.927 2208.48,177.88 2210.43,177.203 2212.38,177.185 2214.33,176.871 2216.28,176.395 2218.23,175.717 2220.19,175.68 2222.14,175.226 2224.09,174.77 2226.04,174.35 2227.99,174.306 2229.94,174.107 2231.89,174.082 2233.84,173.949 2235.79,173.907 2237.74,173.356 2239.69,173.312 2241.64,171.987 2243.59,171.432 2245.54,171.39 2247.49,171.179 2249.44,170.749 2251.39,170.353 2253.34,170.137 2255.29,170.133 2257.24,170.077 2259.19,170.074 2261.14,169.567 2263.09,168.282 2265.04,168.099 2267,167.998 2268.95,167.98 2270.9,167.745 2272.85,167.481 2274.8,167.309 2276.75,167.112 2278.7,166.667 2280.65,166.178 2282.6,166.143 2284.55,166.034 2286.5,165.974 2288.45,165.64 2290.4,165.313 2292.35,161.413 2294.3,160.256 "/>
<path clip-path="url(#clip830)" d="M356.212 270.476 L782.357 270.476 L782.357 166.796 L356.212 166.796  Z" fill="#ffffff" fill-rule="evenodd" fill-opacity="1"/>
<polyline clip-path="url(#clip830)" style="stroke:#000000; stroke-linecap:round; stroke-linejoin:round; stroke-width:4; stroke-opacity:1; fill:none" points="356.212,270.476 782.357,270.476 782.357,166.796 356.212,166.796 356.212,270.476 "/>
<polyline clip-path="url(#clip830)" style="stroke:#009af9; stroke-linecap:round; stroke-linejoin:round; stroke-width:4; stroke-opacity:1; fill:none" points="379.161,218.636 516.854,218.636 "/>
<path clip-path="url(#clip830)" d="M562.048 202.49 L562.048 207.05 Q559.386 205.777 557.025 205.152 Q554.663 204.527 552.464 204.527 Q548.645 204.527 546.562 206.008 Q544.502 207.49 544.502 210.221 Q544.502 212.513 545.867 213.694 Q547.256 214.851 551.099 215.569 L553.923 216.147 Q559.154 217.143 561.631 219.666 Q564.131 222.166 564.131 226.379 Q564.131 231.402 560.751 233.994 Q557.395 236.587 550.89 236.587 Q548.437 236.587 545.659 236.031 Q542.904 235.476 539.941 234.388 L539.941 229.573 Q542.789 231.17 545.52 231.981 Q548.251 232.791 550.89 232.791 Q554.895 232.791 557.071 231.217 Q559.247 229.643 559.247 226.726 Q559.247 224.18 557.673 222.744 Q556.122 221.309 552.557 220.592 L549.71 220.036 Q544.478 218.995 542.14 216.772 Q539.802 214.55 539.802 210.592 Q539.802 206.008 543.02 203.37 Q546.261 200.731 551.932 200.731 Q554.363 200.731 556.886 201.171 Q559.409 201.61 562.048 202.49 Z" fill="#000000" fill-rule="nonzero" fill-opacity="1" /><path clip-path="url(#clip830)" d="M571.237 209.99 L575.497 209.99 L575.497 235.916 L571.237 235.916 L571.237 209.99 M571.237 199.897 L575.497 199.897 L575.497 205.291 L571.237 205.291 L571.237 199.897 Z" fill="#000000" fill-rule="nonzero" fill-opacity="1" /><path clip-path="url(#clip830)" d="M604.594 214.967 Q606.191 212.096 608.413 210.731 Q610.635 209.365 613.645 209.365 Q617.696 209.365 619.895 212.212 Q622.094 215.036 622.094 220.268 L622.094 235.916 L617.811 235.916 L617.811 220.407 Q617.811 216.68 616.492 214.874 Q615.172 213.069 612.464 213.069 Q609.154 213.069 607.233 215.268 Q605.311 217.467 605.311 221.263 L605.311 235.916 L601.029 235.916 L601.029 220.407 Q601.029 216.657 599.71 214.874 Q598.39 213.069 595.635 213.069 Q592.372 213.069 590.45 215.291 Q588.529 217.49 588.529 221.263 L588.529 235.916 L584.247 235.916 L584.247 209.99 L588.529 209.99 L588.529 214.018 Q589.987 211.633 592.024 210.499 Q594.061 209.365 596.862 209.365 Q599.686 209.365 601.654 210.8 Q603.645 212.235 604.594 214.967 Z" fill="#000000" fill-rule="nonzero" fill-opacity="1" /><path clip-path="url(#clip830)" d="M630.589 209.99 L634.848 209.99 L634.848 235.916 L630.589 235.916 L630.589 209.99 M630.589 199.897 L634.848 199.897 L634.848 205.291 L630.589 205.291 L630.589 199.897 Z" fill="#000000" fill-rule="nonzero" fill-opacity="1" /><path clip-path="url(#clip830)" d="M643.76 199.897 L648.019 199.897 L648.019 235.916 L643.76 235.916 L643.76 199.897 Z" fill="#000000" fill-rule="nonzero" fill-opacity="1" /><path clip-path="url(#clip830)" d="M668.714 222.883 Q663.552 222.883 661.561 224.064 Q659.57 225.244 659.57 228.092 Q659.57 230.36 661.052 231.703 Q662.556 233.022 665.126 233.022 Q668.668 233.022 670.797 230.522 Q672.95 227.999 672.95 223.832 L672.95 222.883 L668.714 222.883 M677.209 221.124 L677.209 235.916 L672.95 235.916 L672.95 231.981 Q671.492 234.342 669.316 235.476 Q667.14 236.587 663.992 236.587 Q660.01 236.587 657.649 234.365 Q655.311 232.119 655.311 228.369 Q655.311 223.994 658.228 221.772 Q661.168 219.55 666.978 219.55 L672.95 219.55 L672.95 219.133 Q672.95 216.194 671.005 214.596 Q669.084 212.976 665.589 212.976 Q663.367 212.976 661.26 213.508 Q659.154 214.041 657.209 215.106 L657.209 211.17 Q659.547 210.268 661.746 209.828 Q663.945 209.365 666.029 209.365 Q671.654 209.365 674.431 212.282 Q677.209 215.198 677.209 221.124 Z" fill="#000000" fill-rule="nonzero" fill-opacity="1" /><path clip-path="url(#clip830)" d="M701.005 213.971 Q700.288 213.555 699.431 213.37 Q698.598 213.161 697.579 213.161 Q693.968 213.161 692.024 215.522 Q690.103 217.86 690.103 222.258 L690.103 235.916 L685.82 235.916 L685.82 209.99 L690.103 209.99 L690.103 214.018 Q691.445 211.657 693.598 210.522 Q695.751 209.365 698.829 209.365 Q699.269 209.365 699.802 209.434 Q700.334 209.481 700.982 209.596 L701.005 213.971 Z" fill="#000000" fill-rule="nonzero" fill-opacity="1" /><path clip-path="url(#clip830)" d="M705.473 209.99 L709.732 209.99 L709.732 235.916 L705.473 235.916 L705.473 209.99 M705.473 199.897 L709.732 199.897 L709.732 205.291 L705.473 205.291 L705.473 199.897 Z" fill="#000000" fill-rule="nonzero" fill-opacity="1" /><path clip-path="url(#clip830)" d="M722.857 202.629 L722.857 209.99 L731.63 209.99 L731.63 213.3 L722.857 213.3 L722.857 227.374 Q722.857 230.545 723.714 231.448 Q724.593 232.351 727.255 232.351 L731.63 232.351 L731.63 235.916 L727.255 235.916 Q722.325 235.916 720.45 234.087 Q718.575 232.235 718.575 227.374 L718.575 213.3 L715.45 213.3 L715.45 209.99 L718.575 209.99 L718.575 202.629 L722.857 202.629 Z" fill="#000000" fill-rule="nonzero" fill-opacity="1" /><path clip-path="url(#clip830)" d="M748.019 238.323 Q746.213 242.953 744.5 244.365 Q742.787 245.777 739.917 245.777 L736.514 245.777 L736.514 242.212 L739.014 242.212 Q740.774 242.212 741.746 241.379 Q742.718 240.545 743.899 237.443 L744.662 235.499 L734.176 209.99 L738.69 209.99 L746.792 230.268 L754.894 209.99 L759.408 209.99 L748.019 238.323 Z" fill="#000000" fill-rule="nonzero" fill-opacity="1" /></svg>
