<?xml version="1.0" encoding="utf-8"?>
<svg xmlns="http://www.w3.org/2000/svg" xmlns:xlink="http://www.w3.org/1999/xlink" width="600" height="400" viewBox="0 0 2400 1600">
<defs>
  <clipPath id="clip430">
    <rect x="0" y="0" width="2400" height="1600"/>
  </clipPath>
</defs>
<path clip-path="url(#clip430)" d="M0 1600 L2400 1600 L2400 8.88178e-14 L0 8.88178e-14  Z" fill="#ffffff" fill-rule="evenodd" fill-opacity="1"/>
<defs>
  <clipPath id="clip431">
    <rect x="480" y="0" width="1681" height="1600"/>
  </clipPath>
</defs>
<path clip-path="url(#clip430)" d="M256.209 1423.18 L2352.76 1423.18 L2352.76 123.472 L256.209 123.472  Z" fill="#ffffff" fill-rule="evenodd" fill-opacity="1"/>
<defs>
  <clipPath id="clip432">
    <rect x="256" y="123" width="2098" height="1301"/>
  </clipPath>
</defs>
<polyline clip-path="url(#clip432)" style="stroke:#000000; stroke-linecap:round; stroke-linejoin:round; stroke-width:2; stroke-opacity:0.1; fill:none" points="313.565,1423.18 313.565,123.472 "/>
<polyline clip-path="url(#clip432)" style="stroke:#000000; stroke-linecap:round; stroke-linejoin:round; stroke-width:2; stroke-opacity:0.1; fill:none" points="808.529,1423.18 808.529,123.472 "/>
<polyline clip-path="url(#clip432)" style="stroke:#000000; stroke-linecap:round; stroke-linejoin:round; stroke-width:2; stroke-opacity:0.1; fill:none" points="1303.49,1423.18 1303.49,123.472 "/>
<polyline clip-path="url(#clip432)" style="stroke:#000000; stroke-linecap:round; stroke-linejoin:round; stroke-width:2; stroke-opacity:0.1; fill:none" points="1798.46,1423.18 1798.46,123.472 "/>
<polyline clip-path="url(#clip432)" style="stroke:#000000; stroke-linecap:round; stroke-linejoin:round; stroke-width:2; stroke-opacity:0.1; fill:none" points="2293.42,1423.18 2293.42,123.472 "/>
<polyline clip-path="url(#clip430)" style="stroke:#000000; stroke-linecap:round; stroke-linejoin:round; stroke-width:4; stroke-opacity:1; fill:none" points="256.209,1423.18 2352.76,1423.18 "/>
<polyline clip-path="url(#clip430)" style="stroke:#000000; stroke-linecap:round; stroke-linejoin:round; stroke-width:4; stroke-opacity:1; fill:none" points="313.565,1423.18 313.565,1404.28 "/>
<polyline clip-path="url(#clip430)" style="stroke:#000000; stroke-linecap:round; stroke-linejoin:round; stroke-width:4; stroke-opacity:1; fill:none" points="808.529,1423.18 808.529,1404.28 "/>
<polyline clip-path="url(#clip430)" style="stroke:#000000; stroke-linecap:round; stroke-linejoin:round; stroke-width:4; stroke-opacity:1; fill:none" points="1303.49,1423.18 1303.49,1404.28 "/>
<polyline clip-path="url(#clip430)" style="stroke:#000000; stroke-linecap:round; stroke-linejoin:round; stroke-width:4; stroke-opacity:1; fill:none" points="1798.46,1423.18 1798.46,1404.28 "/>
<polyline clip-path="url(#clip430)" style="stroke:#000000; stroke-linecap:round; stroke-linejoin:round; stroke-width:4; stroke-opacity:1; fill:none" points="2293.42,1423.18 2293.42,1404.28 "/>
<path clip-path="url(#clip430)" d="M313.565 1454.1 Q309.954 1454.1 308.125 1457.66 Q306.32 1461.2 306.32 1468.33 Q306.32 1475.44 308.125 1479.01 Q309.954 1482.55 313.565 1482.55 Q317.199 1482.55 319.005 1479.01 Q320.834 1475.44 320.834 1468.33 Q320.834 1461.2 319.005 1457.66 Q317.199 1454.1 313.565 1454.1 M313.565 1450.39 Q319.375 1450.39 322.431 1455 Q325.509 1459.58 325.509 1468.33 Q325.509 1477.06 322.431 1481.67 Q319.375 1486.25 313.565 1486.25 Q307.755 1486.25 304.676 1481.67 Q301.621 1477.06 301.621 1468.33 Q301.621 1459.58 304.676 1455 Q307.755 1450.39 313.565 1450.39 Z" fill="#000000" fill-rule="nonzero" fill-opacity="1" /><path clip-path="url(#clip430)" d="M772.221 1481.64 L788.54 1481.64 L788.54 1485.58 L766.596 1485.58 L766.596 1481.64 Q769.258 1478.89 773.841 1474.26 Q778.448 1469.61 779.628 1468.27 Q781.874 1465.74 782.753 1464.01 Q783.656 1462.25 783.656 1460.56 Q783.656 1457.8 781.712 1456.07 Q779.79 1454.33 776.689 1454.33 Q774.49 1454.33 772.036 1455.09 Q769.605 1455.86 766.828 1457.41 L766.828 1452.69 Q769.652 1451.55 772.105 1450.97 Q774.559 1450.39 776.596 1450.39 Q781.966 1450.39 785.161 1453.08 Q788.355 1455.77 788.355 1460.26 Q788.355 1462.39 787.545 1464.31 Q786.758 1466.2 784.652 1468.8 Q784.073 1469.47 780.971 1472.69 Q777.869 1475.88 772.221 1481.64 Z" fill="#000000" fill-rule="nonzero" fill-opacity="1" /><path clip-path="url(#clip430)" d="M798.401 1451.02 L816.758 1451.02 L816.758 1454.96 L802.684 1454.96 L802.684 1463.43 Q803.702 1463.08 804.721 1462.92 Q805.739 1462.73 806.758 1462.73 Q812.545 1462.73 815.924 1465.9 Q819.304 1469.08 819.304 1474.49 Q819.304 1480.07 815.832 1483.17 Q812.36 1486.25 806.04 1486.25 Q803.864 1486.25 801.596 1485.88 Q799.351 1485.51 796.943 1484.77 L796.943 1480.07 Q799.026 1481.2 801.249 1481.76 Q803.471 1482.32 805.948 1482.32 Q809.952 1482.32 812.29 1480.21 Q814.628 1478.1 814.628 1474.49 Q814.628 1470.88 812.29 1468.77 Q809.952 1466.67 805.948 1466.67 Q804.073 1466.67 802.198 1467.08 Q800.346 1467.5 798.401 1468.38 L798.401 1451.02 Z" fill="#000000" fill-rule="nonzero" fill-opacity="1" /><path clip-path="url(#clip430)" d="M838.517 1454.1 Q834.906 1454.1 833.077 1457.66 Q831.272 1461.2 831.272 1468.33 Q831.272 1475.44 833.077 1479.01 Q834.906 1482.55 838.517 1482.55 Q842.151 1482.55 843.957 1479.01 Q845.785 1475.44 845.785 1468.33 Q845.785 1461.2 843.957 1457.66 Q842.151 1454.1 838.517 1454.1 M838.517 1450.39 Q844.327 1450.39 847.383 1455 Q850.461 1459.58 850.461 1468.33 Q850.461 1477.06 847.383 1481.67 Q844.327 1486.25 838.517 1486.25 Q832.707 1486.25 829.628 1481.67 Q826.573 1477.06 826.573 1468.33 Q826.573 1459.58 829.628 1455 Q832.707 1450.39 838.517 1450.39 Z" fill="#000000" fill-rule="nonzero" fill-opacity="1" /><path clip-path="url(#clip430)" d="M1263.11 1451.02 L1281.47 1451.02 L1281.47 1454.96 L1267.39 1454.96 L1267.39 1463.43 Q1268.41 1463.08 1269.43 1462.92 Q1270.45 1462.73 1271.47 1462.73 Q1277.25 1462.73 1280.63 1465.9 Q1284.01 1469.08 1284.01 1474.49 Q1284.01 1480.07 1280.54 1483.17 Q1277.07 1486.25 1270.75 1486.25 Q1268.57 1486.25 1266.31 1485.88 Q1264.06 1485.51 1261.65 1484.77 L1261.65 1480.07 Q1263.74 1481.2 1265.96 1481.76 Q1268.18 1482.32 1270.66 1482.32 Q1274.66 1482.32 1277 1480.21 Q1279.34 1478.1 1279.34 1474.49 Q1279.34 1470.88 1277 1468.77 Q1274.66 1466.67 1270.66 1466.67 Q1268.78 1466.67 1266.91 1467.08 Q1265.06 1467.5 1263.11 1468.38 L1263.11 1451.02 Z" fill="#000000" fill-rule="nonzero" fill-opacity="1" /><path clip-path="url(#clip430)" d="M1303.23 1454.1 Q1299.62 1454.1 1297.79 1457.66 Q1295.98 1461.2 1295.98 1468.33 Q1295.98 1475.44 1297.79 1479.01 Q1299.62 1482.55 1303.23 1482.55 Q1306.86 1482.55 1308.67 1479.01 Q1310.49 1475.44 1310.49 1468.33 Q1310.49 1461.2 1308.67 1457.66 Q1306.86 1454.1 1303.23 1454.1 M1303.23 1450.39 Q1309.04 1450.39 1312.09 1455 Q1315.17 1459.58 1315.17 1468.33 Q1315.17 1477.06 1312.09 1481.67 Q1309.04 1486.25 1303.23 1486.25 Q1297.42 1486.25 1294.34 1481.67 Q1291.28 1477.06 1291.28 1468.33 Q1291.28 1459.58 1294.34 1455 Q1297.42 1450.39 1303.23 1450.39 Z" fill="#000000" fill-rule="nonzero" fill-opacity="1" /><path clip-path="url(#clip430)" d="M1333.39 1454.1 Q1329.78 1454.1 1327.95 1457.66 Q1326.14 1461.2 1326.14 1468.33 Q1326.14 1475.44 1327.95 1479.01 Q1329.78 1482.55 1333.39 1482.55 Q1337.02 1482.55 1338.83 1479.01 Q1340.66 1475.44 1340.66 1468.33 Q1340.66 1461.2 1338.83 1457.66 Q1337.02 1454.1 1333.39 1454.1 M1333.39 1450.39 Q1339.2 1450.39 1342.25 1455 Q1345.33 1459.58 1345.33 1468.33 Q1345.33 1477.06 1342.25 1481.67 Q1339.2 1486.25 1333.39 1486.25 Q1327.58 1486.25 1324.5 1481.67 Q1321.44 1477.06 1321.44 1468.33 Q1321.44 1459.58 1324.5 1455 Q1327.58 1450.39 1333.39 1450.39 Z" fill="#000000" fill-rule="nonzero" fill-opacity="1" /><path clip-path="url(#clip430)" d="M1756.73 1451.02 L1778.95 1451.02 L1778.95 1453.01 L1766.41 1485.58 L1761.52 1485.58 L1773.33 1454.96 L1756.73 1454.96 L1756.73 1451.02 Z" fill="#000000" fill-rule="nonzero" fill-opacity="1" /><path clip-path="url(#clip430)" d="M1788.12 1451.02 L1806.48 1451.02 L1806.48 1454.96 L1792.4 1454.96 L1792.4 1463.43 Q1793.42 1463.08 1794.44 1462.92 Q1795.46 1462.73 1796.48 1462.73 Q1802.26 1462.73 1805.64 1465.9 Q1809.02 1469.08 1809.02 1474.49 Q1809.02 1480.07 1805.55 1483.17 Q1802.08 1486.25 1795.76 1486.25 Q1793.58 1486.25 1791.31 1485.88 Q1789.07 1485.51 1786.66 1484.77 L1786.66 1480.07 Q1788.75 1481.2 1790.97 1481.76 Q1793.19 1482.32 1795.67 1482.32 Q1799.67 1482.32 1802.01 1480.21 Q1804.35 1478.1 1804.35 1474.49 Q1804.35 1470.88 1802.01 1468.77 Q1799.67 1466.67 1795.67 1466.67 Q1793.79 1466.67 1791.92 1467.08 Q1790.06 1467.5 1788.12 1468.38 L1788.12 1451.02 Z" fill="#000000" fill-rule="nonzero" fill-opacity="1" /><path clip-path="url(#clip430)" d="M1828.24 1454.1 Q1824.62 1454.1 1822.8 1457.66 Q1820.99 1461.2 1820.99 1468.33 Q1820.99 1475.44 1822.8 1479.01 Q1824.62 1482.55 1828.24 1482.55 Q1831.87 1482.55 1833.68 1479.01 Q1835.5 1475.44 1835.5 1468.33 Q1835.5 1461.2 1833.68 1457.66 Q1831.87 1454.1 1828.24 1454.1 M1828.24 1450.39 Q1834.05 1450.39 1837.1 1455 Q1840.18 1459.58 1840.18 1468.33 Q1840.18 1477.06 1837.1 1481.67 Q1834.05 1486.25 1828.24 1486.25 Q1822.43 1486.25 1819.35 1481.67 Q1816.29 1477.06 1816.29 1468.33 Q1816.29 1459.58 1819.35 1455 Q1822.43 1450.39 1828.24 1450.39 Z" fill="#000000" fill-rule="nonzero" fill-opacity="1" /><path clip-path="url(#clip430)" d="M2237.95 1481.64 L2245.58 1481.64 L2245.58 1455.28 L2237.27 1456.95 L2237.27 1452.69 L2245.54 1451.02 L2250.21 1451.02 L2250.21 1481.64 L2257.85 1481.64 L2257.85 1485.58 L2237.95 1485.58 L2237.95 1481.64 Z" fill="#000000" fill-rule="nonzero" fill-opacity="1" /><path clip-path="url(#clip430)" d="M2277.3 1454.1 Q2273.69 1454.1 2271.86 1457.66 Q2270.05 1461.2 2270.05 1468.33 Q2270.05 1475.44 2271.86 1479.01 Q2273.69 1482.55 2277.3 1482.55 Q2280.93 1482.55 2282.74 1479.01 Q2284.57 1475.44 2284.57 1468.33 Q2284.57 1461.2 2282.74 1457.66 Q2280.93 1454.1 2277.3 1454.1 M2277.3 1450.39 Q2283.11 1450.39 2286.16 1455 Q2289.24 1459.58 2289.24 1468.33 Q2289.24 1477.06 2286.16 1481.67 Q2283.11 1486.25 2277.3 1486.25 Q2271.49 1486.25 2268.41 1481.67 Q2265.35 1477.06 2265.35 1468.33 Q2265.35 1459.58 2268.41 1455 Q2271.49 1450.39 2277.3 1450.39 Z" fill="#000000" fill-rule="nonzero" fill-opacity="1" /><path clip-path="url(#clip430)" d="M2307.46 1454.1 Q2303.85 1454.1 2302.02 1457.66 Q2300.21 1461.2 2300.21 1468.33 Q2300.21 1475.44 2302.02 1479.01 Q2303.85 1482.55 2307.46 1482.55 Q2311.09 1482.55 2312.9 1479.01 Q2314.73 1475.44 2314.73 1468.33 Q2314.73 1461.2 2312.9 1457.66 Q2311.09 1454.1 2307.46 1454.1 M2307.46 1450.39 Q2313.27 1450.39 2316.32 1455 Q2319.4 1459.58 2319.4 1468.33 Q2319.4 1477.06 2316.32 1481.67 Q2313.27 1486.25 2307.46 1486.25 Q2301.65 1486.25 2298.57 1481.67 Q2295.51 1477.06 2295.51 1468.33 Q2295.51 1459.58 2298.57 1455 Q2301.65 1450.39 2307.46 1450.39 Z" fill="#000000" fill-rule="nonzero" fill-opacity="1" /><path clip-path="url(#clip430)" d="M2337.62 1454.1 Q2334.01 1454.1 2332.18 1457.66 Q2330.38 1461.2 2330.38 1468.33 Q2330.38 1475.44 2332.18 1479.01 Q2334.01 1482.55 2337.62 1482.55 Q2341.26 1482.55 2343.06 1479.01 Q2344.89 1475.44 2344.89 1468.33 Q2344.89 1461.2 2343.06 1457.66 Q2341.26 1454.1 2337.62 1454.1 M2337.62 1450.39 Q2343.43 1450.39 2346.49 1455 Q2349.57 1459.58 2349.57 1468.33 Q2349.57 1477.06 2346.49 1481.67 Q2343.43 1486.25 2337.62 1486.25 Q2331.81 1486.25 2328.73 1481.67 Q2325.68 1477.06 2325.68 1468.33 Q2325.68 1459.58 2328.73 1455 Q2331.81 1450.39 2337.62 1450.39 Z" fill="#000000" fill-rule="nonzero" fill-opacity="1" /><path clip-path="url(#clip430)" d="M1268.33 1524.18 L1268.33 1530.96 Q1265.08 1527.94 1261.39 1526.44 Q1257.73 1524.95 1253.59 1524.95 Q1245.44 1524.95 1241.11 1529.95 Q1236.78 1534.91 1236.78 1544.33 Q1236.78 1553.72 1241.11 1558.72 Q1245.44 1563.68 1253.59 1563.68 Q1257.73 1563.68 1261.39 1562.19 Q1265.08 1560.69 1268.33 1557.67 L1268.33 1564.38 Q1264.95 1566.68 1261.16 1567.82 Q1257.41 1568.97 1253.21 1568.97 Q1242.42 1568.97 1236.21 1562.38 Q1230 1555.76 1230 1544.33 Q1230 1532.87 1236.21 1526.28 Q1242.42 1519.66 1253.21 1519.66 Q1257.47 1519.66 1261.23 1520.81 Q1265.01 1521.92 1268.33 1524.18 Z" fill="#000000" fill-rule="nonzero" fill-opacity="1" /><path clip-path="url(#clip430)" d="M1308.49 1548.76 L1308.49 1551.62 L1281.57 1551.62 Q1281.95 1557.67 1285.19 1560.85 Q1288.47 1564 1294.3 1564 Q1297.67 1564 1300.82 1563.17 Q1304 1562.35 1307.12 1560.69 L1307.12 1566.23 Q1303.97 1567.57 1300.66 1568.27 Q1297.35 1568.97 1293.95 1568.97 Q1285.42 1568.97 1280.42 1564 Q1275.45 1559.04 1275.45 1550.57 Q1275.45 1541.82 1280.17 1536.69 Q1284.91 1531.54 1292.93 1531.54 Q1300.12 1531.54 1304.29 1536.18 Q1308.49 1540.8 1308.49 1548.76 M1302.64 1547.04 Q1302.57 1542.23 1299.93 1539.37 Q1297.32 1536.5 1292.99 1536.5 Q1288.09 1536.5 1285.13 1539.27 Q1282.2 1542.04 1281.76 1547.07 L1302.64 1547.04 Z" fill="#000000" fill-rule="nonzero" fill-opacity="1" /><path clip-path="url(#clip430)" d="M1318.1 1518.52 L1323.96 1518.52 L1323.96 1568.04 L1318.1 1568.04 L1318.1 1518.52 Z" fill="#000000" fill-rule="nonzero" fill-opacity="1" /><path clip-path="url(#clip430)" d="M1336.22 1518.52 L1342.07 1518.52 L1342.07 1568.04 L1336.22 1568.04 L1336.22 1518.52 Z" fill="#000000" fill-rule="nonzero" fill-opacity="1" /><path clip-path="url(#clip430)" d="M1377.05 1533.45 L1377.05 1538.98 Q1374.57 1537.71 1371.9 1537.07 Q1369.22 1536.44 1366.36 1536.44 Q1362 1536.44 1359.8 1537.77 Q1357.64 1539.11 1357.64 1541.79 Q1357.64 1543.82 1359.2 1545 Q1360.76 1546.15 1365.47 1547.2 L1367.47 1547.64 Q1373.71 1548.98 1376.32 1551.43 Q1378.96 1553.85 1378.96 1558.21 Q1378.96 1563.17 1375.01 1566.07 Q1371.1 1568.97 1364.22 1568.97 Q1361.36 1568.97 1358.24 1568.39 Q1355.15 1567.85 1351.72 1566.74 L1351.72 1560.69 Q1354.96 1562.38 1358.11 1563.24 Q1361.26 1564.07 1364.35 1564.07 Q1368.49 1564.07 1370.72 1562.66 Q1372.95 1561.23 1372.95 1558.65 Q1372.95 1556.27 1371.32 1554.99 Q1369.73 1553.72 1364.29 1552.54 L1362.25 1552.07 Q1356.81 1550.92 1354.39 1548.56 Q1351.97 1546.18 1351.97 1542.04 Q1351.97 1537.01 1355.54 1534.27 Q1359.1 1531.54 1365.66 1531.54 Q1368.9 1531.54 1371.77 1532.01 Q1374.63 1532.49 1377.05 1533.45 Z" fill="#000000" fill-rule="nonzero" fill-opacity="1" /><polyline clip-path="url(#clip432)" style="stroke:#000000; stroke-linecap:round; stroke-linejoin:round; stroke-width:2; stroke-opacity:0.1; fill:none" points="256.209,1134.43 2352.76,1134.43 "/>
<polyline clip-path="url(#clip432)" style="stroke:#000000; stroke-linecap:round; stroke-linejoin:round; stroke-width:2; stroke-opacity:0.1; fill:none" points="256.209,802.755 2352.76,802.755 "/>
<polyline clip-path="url(#clip432)" style="stroke:#000000; stroke-linecap:round; stroke-linejoin:round; stroke-width:2; stroke-opacity:0.1; fill:none" points="256.209,471.075 2352.76,471.075 "/>
<polyline clip-path="url(#clip432)" style="stroke:#000000; stroke-linecap:round; stroke-linejoin:round; stroke-width:2; stroke-opacity:0.1; fill:none" points="256.209,139.396 2352.76,139.396 "/>
<polyline clip-path="url(#clip430)" style="stroke:#000000; stroke-linecap:round; stroke-linejoin:round; stroke-width:4; stroke-opacity:1; fill:none" points="256.209,1423.18 256.209,123.472 "/>
<polyline clip-path="url(#clip430)" style="stroke:#000000; stroke-linecap:round; stroke-linejoin:round; stroke-width:4; stroke-opacity:1; fill:none" points="256.209,1134.43 275.106,1134.43 "/>
<polyline clip-path="url(#clip430)" style="stroke:#000000; stroke-linecap:round; stroke-linejoin:round; stroke-width:4; stroke-opacity:1; fill:none" points="256.209,802.755 275.106,802.755 "/>
<polyline clip-path="url(#clip430)" style="stroke:#000000; stroke-linecap:round; stroke-linejoin:round; stroke-width:4; stroke-opacity:1; fill:none" points="256.209,471.075 275.106,471.075 "/>
<polyline clip-path="url(#clip430)" style="stroke:#000000; stroke-linecap:round; stroke-linejoin:round; stroke-width:4; stroke-opacity:1; fill:none" points="256.209,139.396 275.106,139.396 "/>
<path clip-path="url(#clip430)" d="M114.26 1134.89 L143.936 1134.89 L143.936 1138.82 L114.26 1138.82 L114.26 1134.89 Z" fill="#000000" fill-rule="nonzero" fill-opacity="1" /><path clip-path="url(#clip430)" d="M164.028 1120.23 Q160.417 1120.23 158.589 1123.8 Q156.783 1127.34 156.783 1134.47 Q156.783 1141.58 158.589 1145.14 Q160.417 1148.68 164.028 1148.68 Q167.663 1148.68 169.468 1145.14 Q171.297 1141.58 171.297 1134.47 Q171.297 1127.34 169.468 1123.8 Q167.663 1120.23 164.028 1120.23 M164.028 1116.53 Q169.839 1116.53 172.894 1121.14 Q175.973 1125.72 175.973 1134.47 Q175.973 1143.2 172.894 1147.8 Q169.839 1152.39 164.028 1152.39 Q158.218 1152.39 155.14 1147.8 Q152.084 1143.2 152.084 1134.47 Q152.084 1125.72 155.14 1121.14 Q158.218 1116.53 164.028 1116.53 Z" fill="#000000" fill-rule="nonzero" fill-opacity="1" /><path clip-path="url(#clip430)" d="M184.19 1145.84 L189.075 1145.84 L189.075 1151.71 L184.19 1151.71 L184.19 1145.84 Z" fill="#000000" fill-rule="nonzero" fill-opacity="1" /><path clip-path="url(#clip430)" d="M199.306 1117.15 L217.662 1117.15 L217.662 1121.09 L203.588 1121.09 L203.588 1129.56 Q204.607 1129.22 205.625 1129.05 Q206.644 1128.87 207.662 1128.87 Q213.449 1128.87 216.829 1132.04 Q220.209 1135.21 220.209 1140.63 Q220.209 1146.21 216.736 1149.31 Q213.264 1152.39 206.945 1152.39 Q204.769 1152.39 202.5 1152.02 Q200.255 1151.65 197.848 1150.9 L197.848 1146.21 Q199.931 1147.34 202.153 1147.9 Q204.375 1148.45 206.852 1148.45 Q210.857 1148.45 213.195 1146.34 Q215.533 1144.24 215.533 1140.63 Q215.533 1137.02 213.195 1134.91 Q210.857 1132.8 206.852 1132.8 Q204.977 1132.8 203.102 1133.22 Q201.25 1133.64 199.306 1134.52 L199.306 1117.15 Z" fill="#000000" fill-rule="nonzero" fill-opacity="1" /><path clip-path="url(#clip430)" d="M163.033 788.554 Q159.422 788.554 157.593 792.119 Q155.788 795.66 155.788 802.79 Q155.788 809.896 157.593 813.461 Q159.422 817.003 163.033 817.003 Q166.667 817.003 168.473 813.461 Q170.302 809.896 170.302 802.79 Q170.302 795.66 168.473 792.119 Q166.667 788.554 163.033 788.554 M163.033 784.85 Q168.843 784.85 171.899 789.457 Q174.977 794.04 174.977 802.79 Q174.977 811.517 171.899 816.123 Q168.843 820.707 163.033 820.707 Q157.223 820.707 154.144 816.123 Q151.089 811.517 151.089 802.79 Q151.089 794.04 154.144 789.457 Q157.223 784.85 163.033 784.85 Z" fill="#000000" fill-rule="nonzero" fill-opacity="1" /><path clip-path="url(#clip430)" d="M183.195 814.156 L188.079 814.156 L188.079 820.035 L183.195 820.035 L183.195 814.156 Z" fill="#000000" fill-rule="nonzero" fill-opacity="1" /><path clip-path="url(#clip430)" d="M208.264 788.554 Q204.653 788.554 202.824 792.119 Q201.019 795.66 201.019 802.79 Q201.019 809.896 202.824 813.461 Q204.653 817.003 208.264 817.003 Q211.899 817.003 213.704 813.461 Q215.533 809.896 215.533 802.79 Q215.533 795.66 213.704 792.119 Q211.899 788.554 208.264 788.554 M208.264 784.85 Q214.074 784.85 217.13 789.457 Q220.209 794.04 220.209 802.79 Q220.209 811.517 217.13 816.123 Q214.074 820.707 208.264 820.707 Q202.454 820.707 199.375 816.123 Q196.32 811.517 196.32 802.79 Q196.32 794.04 199.375 789.457 Q202.454 784.85 208.264 784.85 Z" fill="#000000" fill-rule="nonzero" fill-opacity="1" /><path clip-path="url(#clip430)" d="M164.028 456.874 Q160.417 456.874 158.589 460.439 Q156.783 463.981 156.783 471.11 Q156.783 478.217 158.589 481.781 Q160.417 485.323 164.028 485.323 Q167.663 485.323 169.468 481.781 Q171.297 478.217 171.297 471.11 Q171.297 463.981 169.468 460.439 Q167.663 456.874 164.028 456.874 M164.028 453.17 Q169.839 453.17 172.894 457.777 Q175.973 462.36 175.973 471.11 Q175.973 479.837 172.894 484.443 Q169.839 489.027 164.028 489.027 Q158.218 489.027 155.14 484.443 Q152.084 479.837 152.084 471.11 Q152.084 462.36 155.14 457.777 Q158.218 453.17 164.028 453.17 Z" fill="#000000" fill-rule="nonzero" fill-opacity="1" /><path clip-path="url(#clip430)" d="M184.19 482.476 L189.075 482.476 L189.075 488.355 L184.19 488.355 L184.19 482.476 Z" fill="#000000" fill-rule="nonzero" fill-opacity="1" /><path clip-path="url(#clip430)" d="M199.306 453.795 L217.662 453.795 L217.662 457.731 L203.588 457.731 L203.588 466.203 Q204.607 465.856 205.625 465.694 Q206.644 465.508 207.662 465.508 Q213.449 465.508 216.829 468.68 Q220.209 471.851 220.209 477.268 Q220.209 482.846 216.736 485.948 Q213.264 489.027 206.945 489.027 Q204.769 489.027 202.5 488.656 Q200.255 488.286 197.848 487.545 L197.848 482.846 Q199.931 483.98 202.153 484.536 Q204.375 485.092 206.852 485.092 Q210.857 485.092 213.195 482.985 Q215.533 480.879 215.533 477.268 Q215.533 473.656 213.195 471.55 Q210.857 469.444 206.852 469.444 Q204.977 469.444 203.102 469.86 Q201.25 470.277 199.306 471.156 L199.306 453.795 Z" fill="#000000" fill-rule="nonzero" fill-opacity="1" /><path clip-path="url(#clip430)" d="M153.843 152.74 L161.482 152.74 L161.482 126.375 L153.172 128.042 L153.172 123.782 L161.436 122.116 L166.112 122.116 L166.112 152.74 L173.751 152.74 L173.751 156.676 L153.843 156.676 L153.843 152.74 Z" fill="#000000" fill-rule="nonzero" fill-opacity="1" /><path clip-path="url(#clip430)" d="M183.195 150.796 L188.079 150.796 L188.079 156.676 L183.195 156.676 L183.195 150.796 Z" fill="#000000" fill-rule="nonzero" fill-opacity="1" /><path clip-path="url(#clip430)" d="M208.264 125.194 Q204.653 125.194 202.824 128.759 Q201.019 132.301 201.019 139.43 Q201.019 146.537 202.824 150.102 Q204.653 153.643 208.264 153.643 Q211.899 153.643 213.704 150.102 Q215.533 146.537 215.533 139.43 Q215.533 132.301 213.704 128.759 Q211.899 125.194 208.264 125.194 M208.264 121.491 Q214.074 121.491 217.13 126.097 Q220.209 130.68 220.209 139.43 Q220.209 148.157 217.13 152.764 Q214.074 157.347 208.264 157.347 Q202.454 157.347 199.375 152.764 Q196.32 148.157 196.32 139.43 Q196.32 130.68 199.375 126.097 Q202.454 121.491 208.264 121.491 Z" fill="#000000" fill-rule="nonzero" fill-opacity="1" /><path clip-path="url(#clip430)" d="M18.0438 893.717 L24.314 893.717 Q22.5634 897.378 21.704 900.624 Q20.8447 903.871 20.8447 906.894 Q20.8447 912.146 22.8817 915.011 Q24.9187 917.843 28.6745 917.843 Q31.8255 917.843 33.4488 915.966 Q35.0402 914.056 36.0269 908.772 L36.8226 904.889 Q38.1912 897.696 41.6605 894.29 Q45.098 890.853 50.8908 890.853 Q57.7976 890.853 61.3624 895.5 Q64.9272 900.115 64.9272 909.059 Q64.9272 912.433 64.1633 916.252 Q63.3994 920.04 61.9035 924.114 L55.2831 924.114 Q57.4793 920.199 58.5933 916.443 Q59.7073 912.687 59.7073 909.059 Q59.7073 903.552 57.543 900.561 Q55.3786 897.569 51.3682 897.569 Q47.8671 897.569 45.8937 899.733 Q43.9204 901.866 42.9337 906.767 L42.1698 910.682 Q40.7375 917.875 37.682 921.09 Q34.6264 924.305 29.1837 924.305 Q22.8817 924.305 19.2532 919.88 Q15.6248 915.424 15.6248 907.626 Q15.6248 904.284 16.2295 900.815 Q16.8343 897.346 18.0438 893.717 Z" fill="#000000" fill-rule="nonzero" fill-opacity="1" /><path clip-path="url(#clip430)" d="M28.3562 881.081 L28.3562 875.225 L64.0042 875.225 L64.0042 881.081 L28.3562 881.081 M14.479 881.081 L14.479 875.225 L21.895 875.225 L21.895 881.081 L14.479 881.081 Z" fill="#000000" fill-rule="nonzero" fill-opacity="1" /><path clip-path="url(#clip430)" d="M35.1993 835.217 Q31.2526 833.02 29.3747 829.965 Q27.4968 826.909 27.4968 822.772 Q27.4968 817.202 31.4117 814.178 Q35.2948 811.154 42.4881 811.154 L64.0042 811.154 L64.0042 817.042 L42.679 817.042 Q37.5546 817.042 35.072 818.857 Q32.5894 820.671 32.5894 824.395 Q32.5894 828.946 35.6131 831.588 Q38.6368 834.23 43.8567 834.23 L64.0042 834.23 L64.0042 840.118 L42.679 840.118 Q37.5228 840.118 35.072 841.932 Q32.5894 843.747 32.5894 847.534 Q32.5894 852.022 35.6449 854.664 Q38.6686 857.306 43.8567 857.306 L64.0042 857.306 L64.0042 863.194 L28.3562 863.194 L28.3562 857.306 L33.8944 857.306 Q30.616 855.3 29.0564 852.499 Q27.4968 849.699 27.4968 845.847 Q27.4968 841.964 29.4702 839.259 Q31.4436 836.522 35.1993 835.217 Z" fill="#000000" fill-rule="nonzero" fill-opacity="1" /><path clip-path="url(#clip430)" d="M28.3562 799.473 L28.3562 793.617 L64.0042 793.617 L64.0042 799.473 L28.3562 799.473 M14.479 799.473 L14.479 793.617 L21.895 793.617 L21.895 799.473 L14.479 799.473 Z" fill="#000000" fill-rule="nonzero" fill-opacity="1" /><path clip-path="url(#clip430)" d="M14.479 781.363 L14.479 775.506 L64.0042 775.506 L64.0042 781.363 L14.479 781.363 Z" fill="#000000" fill-rule="nonzero" fill-opacity="1" /><path clip-path="url(#clip430)" d="M46.0847 747.052 Q46.0847 754.149 47.7079 756.887 Q49.3312 759.624 53.2461 759.624 Q56.3653 759.624 58.2114 757.587 Q60.0256 755.518 60.0256 751.985 Q60.0256 747.115 56.5881 744.187 Q53.1188 741.227 47.3897 741.227 L46.0847 741.227 L46.0847 747.052 M43.6657 735.37 L64.0042 735.37 L64.0042 741.227 L58.5933 741.227 Q61.8398 743.232 63.3994 746.224 Q64.9272 749.216 64.9272 753.545 Q64.9272 759.019 61.8716 762.266 Q58.7843 765.48 53.6281 765.48 Q47.6125 765.48 44.5569 761.47 Q41.5014 757.428 41.5014 749.439 L41.5014 741.227 L40.9285 741.227 Q36.8862 741.227 34.6901 743.901 Q32.4621 746.542 32.4621 751.348 Q32.4621 754.404 33.1941 757.3 Q33.9262 760.197 35.3903 762.87 L29.9795 762.87 Q28.7381 759.656 28.1334 756.632 Q27.4968 753.608 27.4968 750.744 Q27.4968 743.009 31.5072 739.19 Q35.5176 735.37 43.6657 735.37 Z" fill="#000000" fill-rule="nonzero" fill-opacity="1" /><path clip-path="url(#clip430)" d="M33.8307 702.651 Q33.2578 703.637 33.0032 704.815 Q32.7167 705.961 32.7167 707.361 Q32.7167 712.327 35.9632 715 Q39.1779 717.642 45.2253 717.642 L64.0042 717.642 L64.0042 723.53 L28.3562 723.53 L28.3562 717.642 L33.8944 717.642 Q30.6479 715.796 29.0883 712.836 Q27.4968 709.876 27.4968 705.643 Q27.4968 705.038 27.5923 704.306 Q27.656 703.574 27.8151 702.683 L33.8307 702.651 Z" fill="#000000" fill-rule="nonzero" fill-opacity="1" /><path clip-path="url(#clip430)" d="M28.3562 696.508 L28.3562 690.651 L64.0042 690.651 L64.0042 696.508 L28.3562 696.508 M14.479 696.508 L14.479 690.651 L21.895 690.651 L21.895 696.508 L14.479 696.508 Z" fill="#000000" fill-rule="nonzero" fill-opacity="1" /><path clip-path="url(#clip430)" d="M18.2347 672.605 L28.3562 672.605 L28.3562 660.542 L32.9077 660.542 L32.9077 672.605 L52.2594 672.605 Q56.6199 672.605 57.8613 671.427 Q59.1026 670.217 59.1026 666.557 L59.1026 660.542 L64.0042 660.542 L64.0042 666.557 Q64.0042 673.337 61.4897 675.915 Q58.9434 678.493 52.2594 678.493 L32.9077 678.493 L32.9077 682.79 L28.3562 682.79 L28.3562 678.493 L18.2347 678.493 L18.2347 672.605 Z" fill="#000000" fill-rule="nonzero" fill-opacity="1" /><path clip-path="url(#clip430)" d="M67.3143 638.007 Q73.68 640.49 75.6216 642.845 Q77.5631 645.2 77.5631 649.147 L77.5631 653.826 L72.6615 653.826 L72.6615 650.388 Q72.6615 647.969 71.5157 646.633 Q70.3699 645.296 66.1048 643.672 L63.4312 642.622 L28.3562 657.04 L28.3562 650.834 L56.238 639.694 L28.3562 628.554 L28.3562 622.347 L67.3143 638.007 Z" fill="#000000" fill-rule="nonzero" fill-opacity="1" /><path clip-path="url(#clip430)" d="M395.682 14.0809 L395.682 22.0612 Q391.024 19.8332 386.892 18.7395 Q382.76 17.6457 378.911 17.6457 Q372.227 17.6457 368.582 20.2383 Q364.976 22.8309 364.976 27.611 Q364.976 31.6214 367.366 33.6873 Q369.797 35.7128 376.521 36.9686 L381.464 37.9813 Q390.619 39.7232 394.953 44.1387 Q399.328 48.5136 399.328 55.8863 Q399.328 64.6767 393.414 69.2137 Q387.54 73.7508 376.157 73.7508 Q371.863 73.7508 367.002 72.7785 Q362.181 71.8063 356.996 69.9024 L356.996 61.4765 Q361.979 64.2716 366.759 65.6895 Q371.539 67.1073 376.157 67.1073 Q383.165 67.1073 386.973 64.3527 Q390.781 61.598 390.781 56.4939 Q390.781 52.0379 388.026 49.5264 Q385.312 47.0148 379.073 45.759 L374.091 44.7868 Q364.936 42.9639 360.844 39.075 Q356.753 35.1862 356.753 28.2591 Q356.753 20.2383 362.384 15.6203 Q368.055 11.0023 377.98 11.0023 Q382.233 11.0023 386.649 11.7719 Q391.064 12.5416 395.682 14.0809 Z" fill="#000000" fill-rule="nonzero" fill-opacity="1" /><path clip-path="url(#clip430)" d="M429.345 32.4315 Q423.35 32.4315 419.866 37.1306 Q416.382 41.7891 416.382 49.9314 Q416.382 58.0738 419.826 62.7728 Q423.309 67.4314 429.345 67.4314 Q435.3 67.4314 438.784 62.7323 Q442.268 58.0333 442.268 49.9314 Q442.268 41.8701 438.784 37.1711 Q435.3 32.4315 429.345 32.4315 M429.345 26.1121 Q439.067 26.1121 444.617 32.4315 Q450.167 38.7509 450.167 49.9314 Q450.167 61.0714 444.617 67.4314 Q439.067 73.7508 429.345 73.7508 Q419.583 73.7508 414.033 67.4314 Q408.524 61.0714 408.524 49.9314 Q408.524 38.7509 414.033 32.4315 Q419.583 26.1121 429.345 26.1121 Z" fill="#000000" fill-rule="nonzero" fill-opacity="1" /><path clip-path="url(#clip430)" d="M488.812 34.1734 Q487.557 33.4443 486.058 33.1202 Q484.6 32.7556 482.817 32.7556 Q476.498 32.7556 473.095 36.8875 Q469.733 40.9789 469.733 48.6757 L469.733 72.576 L462.239 72.576 L462.239 27.2059 L469.733 27.2059 L469.733 34.2544 Q472.082 30.1225 475.85 28.1376 Q479.617 26.1121 485.005 26.1121 Q485.774 26.1121 486.706 26.2337 Q487.638 26.3147 488.772 26.5172 L488.812 34.1734 Z" fill="#000000" fill-rule="nonzero" fill-opacity="1" /><path clip-path="url(#clip430)" d="M504.003 14.324 L504.003 27.2059 L519.356 27.2059 L519.356 32.9987 L504.003 32.9987 L504.003 57.6282 Q504.003 63.1779 505.502 64.7578 Q507.042 66.3376 511.7 66.3376 L519.356 66.3376 L519.356 72.576 L511.7 72.576 Q503.072 72.576 499.79 69.3758 Q496.509 66.1351 496.509 57.6282 L496.509 32.9987 L491.04 32.9987 L491.04 27.2059 L496.509 27.2059 L496.509 14.324 L504.003 14.324 Z" fill="#000000" fill-rule="nonzero" fill-opacity="1" /><path clip-path="url(#clip430)" d="M567.967 48.0275 L567.967 51.6733 L533.696 51.6733 Q534.183 59.3701 538.315 63.421 Q542.487 67.4314 549.9 67.4314 Q554.194 67.4314 558.204 66.3781 Q562.255 65.3249 566.225 63.2184 L566.225 70.267 Q562.215 71.9684 558.002 72.8596 Q553.789 73.7508 549.455 73.7508 Q538.598 73.7508 532.238 67.4314 Q525.919 61.1119 525.919 50.3365 Q525.919 39.1965 531.914 32.6746 Q537.95 26.1121 548.158 26.1121 Q557.313 26.1121 562.62 32.0264 Q567.967 37.9003 567.967 48.0275 M560.513 45.84 Q560.432 39.7232 557.07 36.0774 Q553.748 32.4315 548.239 32.4315 Q542.001 32.4315 538.233 35.9558 Q534.507 39.4801 533.94 45.8805 L560.513 45.84 Z" fill="#000000" fill-rule="nonzero" fill-opacity="1" /><path clip-path="url(#clip430)" d="M610.056 34.0924 L610.056 9.54393 L617.51 9.54393 L617.51 72.576 L610.056 72.576 L610.056 65.7705 Q607.707 69.8214 604.101 71.8063 Q600.536 73.7508 595.513 73.7508 Q587.29 73.7508 582.105 67.1883 Q576.96 60.6258 576.96 49.9314 Q576.96 39.2371 582.105 32.6746 Q587.29 26.1121 595.513 26.1121 Q600.536 26.1121 604.101 28.0971 Q607.707 30.0415 610.056 34.0924 M584.657 49.9314 Q584.657 58.1548 588.019 62.8538 Q591.422 67.5124 597.336 67.5124 Q603.251 67.5124 606.653 62.8538 Q610.056 58.1548 610.056 49.9314 Q610.056 41.7081 606.653 37.0496 Q603.251 32.3505 597.336 32.3505 Q591.422 32.3505 588.019 37.0496 Q584.657 41.7081 584.657 49.9314 Z" fill="#000000" fill-rule="nonzero" fill-opacity="1" /><path clip-path="url(#clip430)" d="M691.884 28.9478 L691.884 35.9153 Q688.725 34.1734 685.524 33.3227 Q682.365 32.4315 679.124 32.4315 Q671.873 32.4315 667.862 37.0496 Q663.852 41.6271 663.852 49.9314 Q663.852 58.2358 667.862 62.8538 Q671.873 67.4314 679.124 67.4314 Q682.365 67.4314 685.524 66.5807 Q688.725 65.6895 691.884 63.9476 L691.884 70.8341 Q688.765 72.2924 685.403 73.0216 Q682.081 73.7508 678.314 73.7508 Q668.065 73.7508 662.029 67.3098 Q655.993 60.8689 655.993 49.9314 Q655.993 38.832 662.07 32.472 Q668.187 26.1121 678.8 26.1121 Q682.243 26.1121 685.524 26.8413 Q688.806 27.5299 691.884 28.9478 Z" fill="#000000" fill-rule="nonzero" fill-opacity="1" /><path clip-path="url(#clip430)" d="M722.428 32.4315 Q716.433 32.4315 712.949 37.1306 Q709.465 41.7891 709.465 49.9314 Q709.465 58.0738 712.908 62.7728 Q716.392 67.4314 722.428 67.4314 Q728.383 67.4314 731.867 62.7323 Q735.35 58.0333 735.35 49.9314 Q735.35 41.8701 731.867 37.1711 Q728.383 32.4315 722.428 32.4315 M722.428 26.1121 Q732.15 26.1121 737.7 32.4315 Q743.25 38.7509 743.25 49.9314 Q743.25 61.0714 737.7 67.4314 Q732.15 73.7508 722.428 73.7508 Q712.665 73.7508 707.116 67.4314 Q701.606 61.0714 701.606 49.9314 Q701.606 38.7509 707.116 32.4315 Q712.665 26.1121 722.428 26.1121 Z" fill="#000000" fill-rule="nonzero" fill-opacity="1" /><path clip-path="url(#clip430)" d="M784.528 28.5427 L784.528 35.5912 Q781.369 33.9709 777.966 33.1607 Q774.563 32.3505 770.917 32.3505 Q765.368 32.3505 762.573 34.0519 Q759.818 35.7533 759.818 39.156 Q759.818 41.7486 761.803 43.2475 Q763.788 44.7058 769.783 46.0426 L772.335 46.6097 Q780.275 48.3111 783.597 51.4303 Q786.959 54.509 786.959 60.0587 Q786.959 66.3781 781.936 70.0644 Q776.953 73.7508 768.203 73.7508 Q764.558 73.7508 760.588 73.0216 Q756.658 72.3329 752.283 70.9151 L752.283 63.2184 Q756.415 65.3654 760.426 66.4591 Q764.436 67.5124 768.365 67.5124 Q773.632 67.5124 776.467 65.73 Q779.303 63.9071 779.303 60.6258 Q779.303 57.5877 777.237 55.9673 Q775.211 54.3469 768.284 52.8481 L765.692 52.2405 Q758.765 50.7821 755.686 47.7845 Q752.607 44.7463 752.607 39.4801 Q752.607 33.0797 757.144 29.5959 Q761.681 26.1121 770.026 26.1121 Q774.158 26.1121 777.804 26.7198 Q781.45 27.3274 784.528 28.5427 Z" fill="#000000" fill-rule="nonzero" fill-opacity="1" /><path clip-path="url(#clip430)" d="M798.828 27.2059 L806.282 27.2059 L806.282 72.576 L798.828 72.576 L798.828 27.2059 M798.828 9.54393 L806.282 9.54393 L806.282 18.9825 L798.828 18.9825 L798.828 9.54393 Z" fill="#000000" fill-rule="nonzero" fill-opacity="1" /><path clip-path="url(#clip430)" d="M859.592 45.1919 L859.592 72.576 L852.138 72.576 L852.138 45.4349 Q852.138 38.994 849.627 35.7938 Q847.115 32.5936 842.092 32.5936 Q836.056 32.5936 832.572 36.4419 Q829.088 40.2903 829.088 46.9338 L829.088 72.576 L821.594 72.576 L821.594 27.2059 L829.088 27.2059 L829.088 34.2544 Q831.762 30.163 835.367 28.1376 Q839.013 26.1121 843.753 26.1121 Q851.571 26.1121 855.581 30.9732 Q859.592 35.7938 859.592 45.1919 Z" fill="#000000" fill-rule="nonzero" fill-opacity="1" /><path clip-path="url(#clip430)" d="M913.266 48.0275 L913.266 51.6733 L878.996 51.6733 Q879.482 59.3701 883.614 63.421 Q887.786 67.4314 895.199 67.4314 Q899.493 67.4314 903.504 66.3781 Q907.554 65.3249 911.524 63.2184 L911.524 70.267 Q907.514 71.9684 903.301 72.8596 Q899.088 73.7508 894.754 73.7508 Q883.897 73.7508 877.537 67.4314 Q871.218 61.1119 871.218 50.3365 Q871.218 39.1965 877.213 32.6746 Q883.249 26.1121 893.457 26.1121 Q902.612 26.1121 907.919 32.0264 Q913.266 37.9003 913.266 48.0275 M905.813 45.84 Q905.732 39.7232 902.369 36.0774 Q899.048 32.4315 893.538 32.4315 Q887.3 32.4315 883.533 35.9558 Q879.806 39.4801 879.239 45.8805 L905.813 45.84 Z" fill="#000000" fill-rule="nonzero" fill-opacity="1" /><path clip-path="url(#clip430)" d="M980.795 28.5427 L980.795 35.5912 Q977.635 33.9709 974.232 33.1607 Q970.83 32.3505 967.184 32.3505 Q961.634 32.3505 958.839 34.0519 Q956.084 35.7533 956.084 39.156 Q956.084 41.7486 958.069 43.2475 Q960.054 44.7058 966.049 46.0426 L968.602 46.6097 Q976.541 48.3111 979.863 51.4303 Q983.225 54.509 983.225 60.0587 Q983.225 66.3781 978.202 70.0644 Q973.22 73.7508 964.47 73.7508 Q960.824 73.7508 956.854 73.0216 Q952.925 72.3329 948.55 70.9151 L948.55 63.2184 Q952.682 65.3654 956.692 66.4591 Q960.702 67.5124 964.632 67.5124 Q969.898 67.5124 972.733 65.73 Q975.569 63.9071 975.569 60.6258 Q975.569 57.5877 973.503 55.9673 Q971.478 54.3469 964.551 52.8481 L961.958 52.2405 Q955.031 50.7821 951.952 47.7845 Q948.874 44.7463 948.874 39.4801 Q948.874 33.0797 953.411 29.5959 Q957.948 26.1121 966.293 26.1121 Q970.424 26.1121 974.07 26.7198 Q977.716 27.3274 980.795 28.5427 Z" fill="#000000" fill-rule="nonzero" fill-opacity="1" /><path clip-path="url(#clip430)" d="M995.094 27.2059 L1002.55 27.2059 L1002.55 72.576 L995.094 72.576 L995.094 27.2059 M995.094 9.54393 L1002.55 9.54393 L1002.55 18.9825 L995.094 18.9825 L995.094 9.54393 Z" fill="#000000" fill-rule="nonzero" fill-opacity="1" /><path clip-path="url(#clip430)" d="M1053.47 35.9153 Q1056.26 30.8922 1060.15 28.5022 Q1064.04 26.1121 1069.31 26.1121 Q1076.4 26.1121 1080.24 31.0947 Q1084.09 36.0368 1084.09 45.1919 L1084.09 72.576 L1076.6 72.576 L1076.6 45.4349 Q1076.6 38.913 1074.29 35.7533 Q1071.98 32.5936 1067.24 32.5936 Q1061.45 32.5936 1058.09 36.4419 Q1054.72 40.2903 1054.72 46.9338 L1054.72 72.576 L1047.23 72.576 L1047.23 45.4349 Q1047.23 38.8725 1044.92 35.7533 Q1042.61 32.5936 1037.79 32.5936 Q1032.08 32.5936 1028.72 36.4824 Q1025.35 40.3308 1025.35 46.9338 L1025.35 72.576 L1017.86 72.576 L1017.86 27.2059 L1025.35 27.2059 L1025.35 34.2544 Q1027.91 30.082 1031.47 28.0971 Q1035.04 26.1121 1039.94 26.1121 Q1044.88 26.1121 1048.32 28.6237 Q1051.81 31.1352 1053.47 35.9153 Z" fill="#000000" fill-rule="nonzero" fill-opacity="1" /><path clip-path="url(#clip430)" d="M1098.96 27.2059 L1106.41 27.2059 L1106.41 72.576 L1098.96 72.576 L1098.96 27.2059 M1098.96 9.54393 L1106.41 9.54393 L1106.41 18.9825 L1098.96 18.9825 L1098.96 9.54393 Z" fill="#000000" fill-rule="nonzero" fill-opacity="1" /><path clip-path="url(#clip430)" d="M1122.01 9.54393 L1129.46 9.54393 L1129.46 72.576 L1122.01 72.576 L1122.01 9.54393 Z" fill="#000000" fill-rule="nonzero" fill-opacity="1" /><path clip-path="url(#clip430)" d="M1165.68 49.7694 Q1156.64 49.7694 1153.16 51.8354 Q1149.68 53.9013 1149.68 58.8839 Q1149.68 62.8538 1152.27 65.2034 Q1154.9 67.5124 1159.4 67.5124 Q1165.6 67.5124 1169.32 63.1374 Q1173.09 58.7219 1173.09 51.4303 L1173.09 49.7694 L1165.68 49.7694 M1180.54 46.6907 L1180.54 72.576 L1173.09 72.576 L1173.09 65.6895 Q1170.54 69.8214 1166.73 71.8063 Q1162.92 73.7508 1157.41 73.7508 Q1150.45 73.7508 1146.31 69.8619 Q1142.22 65.9325 1142.22 59.3701 Q1142.22 51.7138 1147.33 47.825 Q1152.47 43.9361 1162.64 43.9361 L1173.09 43.9361 L1173.09 43.2069 Q1173.09 38.0623 1169.69 35.2672 Q1166.33 32.4315 1160.21 32.4315 Q1156.32 32.4315 1152.63 33.3632 Q1148.95 34.295 1145.55 36.1584 L1145.55 29.2718 Q1149.64 27.692 1153.48 26.9223 Q1157.33 26.1121 1160.98 26.1121 Q1170.82 26.1121 1175.68 31.2163 Q1180.54 36.3204 1180.54 46.6907 Z" fill="#000000" fill-rule="nonzero" fill-opacity="1" /><path clip-path="url(#clip430)" d="M1222.19 34.1734 Q1220.93 33.4443 1219.43 33.1202 Q1217.98 32.7556 1216.19 32.7556 Q1209.87 32.7556 1206.47 36.8875 Q1203.11 40.9789 1203.11 48.6757 L1203.11 72.576 L1195.61 72.576 L1195.61 27.2059 L1203.11 27.2059 L1203.11 34.2544 Q1205.46 30.1225 1209.23 28.1376 Q1212.99 26.1121 1218.38 26.1121 Q1219.15 26.1121 1220.08 26.2337 Q1221.01 26.3147 1222.15 26.5172 L1222.19 34.1734 Z" fill="#000000" fill-rule="nonzero" fill-opacity="1" /><path clip-path="url(#clip430)" d="M1230.01 27.2059 L1237.46 27.2059 L1237.46 72.576 L1230.01 72.576 L1230.01 27.2059 M1230.01 9.54393 L1237.46 9.54393 L1237.46 18.9825 L1230.01 18.9825 L1230.01 9.54393 Z" fill="#000000" fill-rule="nonzero" fill-opacity="1" /><path clip-path="url(#clip430)" d="M1260.43 14.324 L1260.43 27.2059 L1275.78 27.2059 L1275.78 32.9987 L1260.43 32.9987 L1260.43 57.6282 Q1260.43 63.1779 1261.93 64.7578 Q1263.47 66.3376 1268.13 66.3376 L1275.78 66.3376 L1275.78 72.576 L1268.13 72.576 Q1259.5 72.576 1256.22 69.3758 Q1252.93 66.1351 1252.93 57.6282 L1252.93 32.9987 L1247.47 32.9987 L1247.47 27.2059 L1252.93 27.2059 L1252.93 14.324 L1260.43 14.324 Z" fill="#000000" fill-rule="nonzero" fill-opacity="1" /><path clip-path="url(#clip430)" d="M1285.58 27.2059 L1293.04 27.2059 L1293.04 72.576 L1285.58 72.576 L1285.58 27.2059 M1285.58 9.54393 L1293.04 9.54393 L1293.04 18.9825 L1285.58 18.9825 L1285.58 9.54393 Z" fill="#000000" fill-rule="nonzero" fill-opacity="1" /><path clip-path="url(#clip430)" d="M1347.44 48.0275 L1347.44 51.6733 L1313.17 51.6733 Q1313.66 59.3701 1317.79 63.421 Q1321.96 67.4314 1329.38 67.4314 Q1333.67 67.4314 1337.68 66.3781 Q1341.73 65.3249 1345.7 63.2184 L1345.7 70.267 Q1341.69 71.9684 1337.48 72.8596 Q1333.26 73.7508 1328.93 73.7508 Q1318.07 73.7508 1311.71 67.4314 Q1305.39 61.1119 1305.39 50.3365 Q1305.39 39.1965 1311.39 32.6746 Q1317.42 26.1121 1327.63 26.1121 Q1336.79 26.1121 1342.09 32.0264 Q1347.44 37.9003 1347.44 48.0275 M1339.99 45.84 Q1339.91 39.7232 1336.55 36.0774 Q1333.22 32.4315 1327.71 32.4315 Q1321.48 32.4315 1317.71 35.9558 Q1313.98 39.4801 1313.41 45.8805 L1339.99 45.84 Z" fill="#000000" fill-rule="nonzero" fill-opacity="1" /><path clip-path="url(#clip430)" d="M1388.6 28.5427 L1388.6 35.5912 Q1385.44 33.9709 1382.04 33.1607 Q1378.63 32.3505 1374.99 32.3505 Q1369.44 32.3505 1366.64 34.0519 Q1363.89 35.7533 1363.89 39.156 Q1363.89 41.7486 1365.87 43.2475 Q1367.86 44.7058 1373.85 46.0426 L1376.41 46.6097 Q1384.35 48.3111 1387.67 51.4303 Q1391.03 54.509 1391.03 60.0587 Q1391.03 66.3781 1386.01 70.0644 Q1381.02 73.7508 1372.27 73.7508 Q1368.63 73.7508 1364.66 73.0216 Q1360.73 72.3329 1356.35 70.9151 L1356.35 63.2184 Q1360.49 65.3654 1364.5 66.4591 Q1368.51 67.5124 1372.44 67.5124 Q1377.7 67.5124 1380.54 65.73 Q1383.37 63.9071 1383.37 60.6258 Q1383.37 57.5877 1381.31 55.9673 Q1379.28 54.3469 1372.36 52.8481 L1369.76 52.2405 Q1362.84 50.7821 1359.76 47.7845 Q1356.68 44.7463 1356.68 39.4801 Q1356.68 33.0797 1361.22 29.5959 Q1365.75 26.1121 1374.1 26.1121 Q1378.23 26.1121 1381.87 26.7198 Q1385.52 27.3274 1388.6 28.5427 Z" fill="#000000" fill-rule="nonzero" fill-opacity="1" /><path clip-path="url(#clip430)" d="M1461.92 28.9478 L1461.92 35.9153 Q1458.76 34.1734 1455.56 33.3227 Q1452.4 32.4315 1449.16 32.4315 Q1441.91 32.4315 1437.9 37.0496 Q1433.89 41.6271 1433.89 49.9314 Q1433.89 58.2358 1437.9 62.8538 Q1441.91 67.4314 1449.16 67.4314 Q1452.4 67.4314 1455.56 66.5807 Q1458.76 65.6895 1461.92 63.9476 L1461.92 70.8341 Q1458.8 72.2924 1455.44 73.0216 Q1452.12 73.7508 1448.35 73.7508 Q1438.1 73.7508 1432.07 67.3098 Q1426.03 60.8689 1426.03 49.9314 Q1426.03 38.832 1432.11 32.472 Q1438.22 26.1121 1448.84 26.1121 Q1452.28 26.1121 1455.56 26.8413 Q1458.84 27.5299 1461.92 28.9478 Z" fill="#000000" fill-rule="nonzero" fill-opacity="1" /><path clip-path="url(#clip430)" d="M1513.69 48.0275 L1513.69 51.6733 L1479.42 51.6733 Q1479.91 59.3701 1484.04 63.421 Q1488.21 67.4314 1495.62 67.4314 Q1499.92 67.4314 1503.93 66.3781 Q1507.98 65.3249 1511.95 63.2184 L1511.95 70.267 Q1507.94 71.9684 1503.73 72.8596 Q1499.51 73.7508 1495.18 73.7508 Q1484.32 73.7508 1477.96 67.4314 Q1471.64 61.1119 1471.64 50.3365 Q1471.64 39.1965 1477.64 32.6746 Q1483.67 26.1121 1493.88 26.1121 Q1503.04 26.1121 1508.34 32.0264 Q1513.69 37.9003 1513.69 48.0275 M1506.24 45.84 Q1506.16 39.7232 1502.79 36.0774 Q1499.47 32.4315 1493.96 32.4315 Q1487.72 32.4315 1483.96 35.9558 Q1480.23 39.4801 1479.66 45.8805 L1506.24 45.84 Z" fill="#000000" fill-rule="nonzero" fill-opacity="1" /><path clip-path="url(#clip430)" d="M1525.92 9.54393 L1533.38 9.54393 L1533.38 72.576 L1525.92 72.576 L1525.92 9.54393 Z" fill="#000000" fill-rule="nonzero" fill-opacity="1" /><path clip-path="url(#clip430)" d="M1548.97 9.54393 L1556.43 9.54393 L1556.43 72.576 L1548.97 72.576 L1548.97 9.54393 Z" fill="#000000" fill-rule="nonzero" fill-opacity="1" /><path clip-path="url(#clip430)" d="M1600.87 65.6895 L1614.23 65.6895 L1614.23 19.5497 L1599.69 22.4663 L1599.69 15.0127 L1614.15 12.096 L1622.34 12.096 L1622.34 65.6895 L1635.7 65.6895 L1635.7 72.576 L1600.87 72.576 L1600.87 65.6895 Z" fill="#000000" fill-rule="nonzero" fill-opacity="1" /><path clip-path="url(#clip430)" d="M1669.73 17.4837 Q1663.41 17.4837 1660.21 23.7221 Q1657.05 29.92 1657.05 42.3968 Q1657.05 54.833 1660.21 61.0714 Q1663.41 67.2693 1669.73 67.2693 Q1676.09 67.2693 1679.25 61.0714 Q1682.45 54.833 1682.45 42.3968 Q1682.45 29.92 1679.25 23.7221 Q1676.09 17.4837 1669.73 17.4837 M1669.73 11.0023 Q1679.9 11.0023 1685.25 19.0636 Q1690.63 27.0843 1690.63 42.3968 Q1690.63 57.6687 1685.25 65.73 Q1679.9 73.7508 1669.73 73.7508 Q1659.56 73.7508 1654.18 65.73 Q1648.83 57.6687 1648.83 42.3968 Q1648.83 27.0843 1654.18 19.0636 Q1659.56 11.0023 1669.73 11.0023 Z" fill="#000000" fill-rule="nonzero" fill-opacity="1" /><path clip-path="url(#clip430)" d="M1722.52 17.4837 Q1716.2 17.4837 1713 23.7221 Q1709.84 29.92 1709.84 42.3968 Q1709.84 54.833 1713 61.0714 Q1716.2 67.2693 1722.52 67.2693 Q1728.88 67.2693 1732.03 61.0714 Q1735.24 54.833 1735.24 42.3968 Q1735.24 29.92 1732.03 23.7221 Q1728.88 17.4837 1722.52 17.4837 M1722.52 11.0023 Q1732.68 11.0023 1738.03 19.0636 Q1743.42 27.0843 1743.42 42.3968 Q1743.42 57.6687 1738.03 65.73 Q1732.68 73.7508 1722.52 73.7508 Q1712.35 73.7508 1706.96 65.73 Q1701.61 57.6687 1701.61 42.3968 Q1701.61 27.0843 1706.96 19.0636 Q1712.35 11.0023 1722.52 11.0023 Z" fill="#000000" fill-rule="nonzero" fill-opacity="1" /><path clip-path="url(#clip430)" d="M1783.12 27.2059 L1790.57 27.2059 L1790.57 72.576 L1783.12 72.576 L1783.12 27.2059 M1783.12 9.54393 L1790.57 9.54393 L1790.57 18.9825 L1783.12 18.9825 L1783.12 9.54393 Z" fill="#000000" fill-rule="nonzero" fill-opacity="1" /><path clip-path="url(#clip430)" d="M1813.54 14.324 L1813.54 27.2059 L1828.89 27.2059 L1828.89 32.9987 L1813.54 32.9987 L1813.54 57.6282 Q1813.54 63.1779 1815.04 64.7578 Q1816.58 66.3376 1821.24 66.3376 L1828.89 66.3376 L1828.89 72.576 L1821.24 72.576 Q1812.61 72.576 1809.33 69.3758 Q1806.04 66.1351 1806.04 57.6282 L1806.04 32.9987 L1800.58 32.9987 L1800.58 27.2059 L1806.04 27.2059 L1806.04 14.324 L1813.54 14.324 Z" fill="#000000" fill-rule="nonzero" fill-opacity="1" /><path clip-path="url(#clip430)" d="M1877.5 48.0275 L1877.5 51.6733 L1843.23 51.6733 Q1843.72 59.3701 1847.85 63.421 Q1852.02 67.4314 1859.44 67.4314 Q1863.73 67.4314 1867.74 66.3781 Q1871.79 65.3249 1875.76 63.2184 L1875.76 70.267 Q1871.75 71.9684 1867.54 72.8596 Q1863.32 73.7508 1858.99 73.7508 Q1848.13 73.7508 1841.77 67.4314 Q1835.45 61.1119 1835.45 50.3365 Q1835.45 39.1965 1841.45 32.6746 Q1847.49 26.1121 1857.69 26.1121 Q1866.85 26.1121 1872.16 32.0264 Q1877.5 37.9003 1877.5 48.0275 M1870.05 45.84 Q1869.97 39.7232 1866.61 36.0774 Q1863.28 32.4315 1857.78 32.4315 Q1851.54 32.4315 1847.77 35.9558 Q1844.04 39.4801 1843.48 45.8805 L1870.05 45.84 Z" fill="#000000" fill-rule="nonzero" fill-opacity="1" /><path clip-path="url(#clip430)" d="M1916.03 34.1734 Q1914.77 33.4443 1913.27 33.1202 Q1911.81 32.7556 1910.03 32.7556 Q1903.71 32.7556 1900.31 36.8875 Q1896.95 40.9789 1896.95 48.6757 L1896.95 72.576 L1889.45 72.576 L1889.45 27.2059 L1896.95 27.2059 L1896.95 34.2544 Q1899.3 30.1225 1903.06 28.1376 Q1906.83 26.1121 1912.22 26.1121 Q1912.99 26.1121 1913.92 26.2337 Q1914.85 26.3147 1915.99 26.5172 L1916.03 34.1734 Z" fill="#000000" fill-rule="nonzero" fill-opacity="1" /><path clip-path="url(#clip430)" d="M1944.46 49.7694 Q1935.43 49.7694 1931.95 51.8354 Q1928.46 53.9013 1928.46 58.8839 Q1928.46 62.8538 1931.06 65.2034 Q1933.69 67.5124 1938.19 67.5124 Q1944.38 67.5124 1948.11 63.1374 Q1951.88 58.7219 1951.88 51.4303 L1951.88 49.7694 L1944.46 49.7694 M1959.33 46.6907 L1959.33 72.576 L1951.88 72.576 L1951.88 65.6895 Q1949.33 69.8214 1945.52 71.8063 Q1941.71 73.7508 1936.2 73.7508 Q1929.23 73.7508 1925.1 69.8619 Q1921.01 65.9325 1921.01 59.3701 Q1921.01 51.7138 1926.11 47.825 Q1931.26 43.9361 1941.43 43.9361 L1951.88 43.9361 L1951.88 43.2069 Q1951.88 38.0623 1948.47 35.2672 Q1945.11 32.4315 1939 32.4315 Q1935.11 32.4315 1931.42 33.3632 Q1927.73 34.295 1924.33 36.1584 L1924.33 29.2718 Q1928.42 27.692 1932.27 26.9223 Q1936.12 26.1121 1939.77 26.1121 Q1949.61 26.1121 1954.47 31.2163 Q1959.33 36.3204 1959.33 46.6907 Z" fill="#000000" fill-rule="nonzero" fill-opacity="1" /><path clip-path="url(#clip430)" d="M1982.06 14.324 L1982.06 27.2059 L1997.41 27.2059 L1997.41 32.9987 L1982.06 32.9987 L1982.06 57.6282 Q1982.06 63.1779 1983.56 64.7578 Q1985.09 66.3376 1989.75 66.3376 L1997.41 66.3376 L1997.41 72.576 L1989.75 72.576 Q1981.13 72.576 1977.84 69.3758 Q1974.56 66.1351 1974.56 57.6282 L1974.56 32.9987 L1969.09 32.9987 L1969.09 27.2059 L1974.56 27.2059 L1974.56 14.324 L1982.06 14.324 Z" fill="#000000" fill-rule="nonzero" fill-opacity="1" /><path clip-path="url(#clip430)" d="M2007.21 27.2059 L2014.67 27.2059 L2014.67 72.576 L2007.21 72.576 L2007.21 27.2059 M2007.21 9.54393 L2014.67 9.54393 L2014.67 18.9825 L2007.21 18.9825 L2007.21 9.54393 Z" fill="#000000" fill-rule="nonzero" fill-opacity="1" /><path clip-path="url(#clip430)" d="M2047.84 32.4315 Q2041.85 32.4315 2038.36 37.1306 Q2034.88 41.7891 2034.88 49.9314 Q2034.88 58.0738 2038.32 62.7728 Q2041.81 67.4314 2047.84 67.4314 Q2053.8 67.4314 2057.28 62.7323 Q2060.77 58.0333 2060.77 49.9314 Q2060.77 41.8701 2057.28 37.1711 Q2053.8 32.4315 2047.84 32.4315 M2047.84 26.1121 Q2057.57 26.1121 2063.12 32.4315 Q2068.67 38.7509 2068.67 49.9314 Q2068.67 61.0714 2063.12 67.4314 Q2057.57 73.7508 2047.84 73.7508 Q2038.08 73.7508 2032.53 67.4314 Q2027.02 61.0714 2027.02 49.9314 Q2027.02 38.7509 2032.53 32.4315 Q2038.08 26.1121 2047.84 26.1121 Z" fill="#000000" fill-rule="nonzero" fill-opacity="1" /><path clip-path="url(#clip430)" d="M2118.73 45.1919 L2118.73 72.576 L2111.28 72.576 L2111.28 45.4349 Q2111.28 38.994 2108.77 35.7938 Q2106.26 32.5936 2101.23 32.5936 Q2095.2 32.5936 2091.71 36.4419 Q2088.23 40.2903 2088.23 46.9338 L2088.23 72.576 L2080.74 72.576 L2080.74 27.2059 L2088.23 27.2059 L2088.23 34.2544 Q2090.9 30.163 2094.51 28.1376 Q2098.16 26.1121 2102.9 26.1121 Q2110.71 26.1121 2114.72 30.9732 Q2118.73 35.7938 2118.73 45.1919 Z" fill="#000000" fill-rule="nonzero" fill-opacity="1" /><path clip-path="url(#clip430)" d="M2168.07 65.6895 L2196.63 65.6895 L2196.63 72.576 L2158.23 72.576 L2158.23 65.6895 Q2162.89 60.8689 2170.91 52.7671 Q2178.97 44.6248 2181.04 42.2752 Q2184.97 37.8598 2186.51 34.8216 Q2188.09 31.7429 2188.09 28.7857 Q2188.09 23.9651 2184.68 20.927 Q2181.32 17.8888 2175.89 17.8888 Q2172.04 17.8888 2167.75 19.2256 Q2163.5 20.5624 2158.64 23.2765 L2158.64 15.0127 Q2163.58 13.0277 2167.87 12.015 Q2172.17 11.0023 2175.73 11.0023 Q2185.13 11.0023 2190.72 15.7013 Q2196.31 20.4004 2196.31 28.2591 Q2196.31 31.9859 2194.89 35.3482 Q2193.51 38.6699 2189.83 43.2069 Q2188.81 44.3817 2183.39 50.0125 Q2177.96 55.6027 2168.07 65.6895 Z" fill="#000000" fill-rule="nonzero" fill-opacity="1" /><path clip-path="url(#clip430)" d="M2231.31 17.4837 Q2224.99 17.4837 2221.79 23.7221 Q2218.63 29.92 2218.63 42.3968 Q2218.63 54.833 2221.79 61.0714 Q2224.99 67.2693 2231.31 67.2693 Q2237.67 67.2693 2240.83 61.0714 Q2244.03 54.833 2244.03 42.3968 Q2244.03 29.92 2240.83 23.7221 Q2237.67 17.4837 2231.31 17.4837 M2231.31 11.0023 Q2241.48 11.0023 2246.82 19.0636 Q2252.21 27.0843 2252.21 42.3968 Q2252.21 57.6687 2246.82 65.73 Q2241.48 73.7508 2231.31 73.7508 Q2221.14 73.7508 2215.75 65.73 Q2210.41 57.6687 2210.41 42.3968 Q2210.41 27.0843 2215.75 19.0636 Q2221.14 11.0023 2231.31 11.0023 Z" fill="#000000" fill-rule="nonzero" fill-opacity="1" /><polyline clip-path="url(#clip432)" style="stroke:#009af9; stroke-linecap:round; stroke-linejoin:round; stroke-width:4; stroke-opacity:1; fill:none" points="315.545,1386.4 317.525,1382.93 319.505,1380.95 321.484,1379.13 323.464,1377.45 325.444,1376.21 327.424,1375.17 329.404,1374.96 331.384,1374.56 333.364,1374.17 335.343,1371.56 337.323,1371.26 339.303,1370.82 341.283,1369.27 343.263,1368.46 345.243,1366.24 347.223,1366.06 349.202,1366.02 351.182,1365.85 353.162,1365.59 355.142,1365.32 357.122,1364.9 359.102,1363.66 361.082,1363.36 363.061,1363.08 365.041,1362.91 367.021,1362.49 369.001,1362.46 370.981,1358.78 372.961,1358.2 374.941,1357.62 376.92,1357.24 378.9,1357.2 380.88,1357.16 382.86,1356.62 384.84,1356.28 386.82,1355.47 388.8,1355.2 390.779,1353.86 392.759,1352.77 394.739,1352.66 396.719,1352.48 398.699,1352.07 400.679,1351.78 402.659,1350.45 404.638,1349.96 406.618,1349.72 408.598,1349.48 410.578,1348.68 412.558,1347.26 414.538,1346.99 416.517,1346.97 418.497,1346.36 420.477,1344.87 422.457,1344.49 424.437,1343.78 426.417,1343.51 428.397,1342.88 430.376,1341.86 432.356,1341.72 434.336,1340.2 436.316,1340.17 438.296,1339.68 440.276,1339.23 442.256,1338.83 444.235,1337.97 446.215,1337.15 448.195,1336.49 450.175,1336.41 452.155,1335.93 454.135,1335.49 456.115,1335.28 458.094,1335.11 460.074,1334.41 462.054,1333.04 464.034,1331.98 466.014,1331.15 467.994,1330.45 469.974,1330.45 471.953,1329.75 473.933,1328.81 475.913,1328.79 477.893,1327.46 479.873,1325.08 481.853,1324.92 483.833,1322.65 485.812,1322.49 487.792,1322.25 489.772,1322.2 491.752,1322.02 493.732,1321.63 495.712,1320.78 497.692,1320.37 499.671,1318.66 501.651,1318.35 503.631,1318.02 505.611,1317.76 507.591,1317.65 509.571,1317.13 511.551,1316.79 513.53,1316.47 515.51,1315.55 517.49,1314.88 519.47,1314.02 521.45,1311.94 523.43,1311.82 525.409,1311.54 527.389,1310.56 529.369,1309.93 531.349,1309.47 533.329,1309.33 535.309,1308.38 537.289,1307.76 539.268,1307.7 541.248,1307.46 543.228,1305.7 545.208,1304.72 547.188,1304.54 549.168,1304.12 551.148,1303.44 553.127,1303.23 555.107,1302.56 557.087,1302.41 559.067,1302.03 561.047,1301.88 563.027,1301.52 565.007,1301.2 566.986,1300.58 568.966,1300.57 570.946,1300.25 572.926,1299.93 574.906,1299.8 576.886,1298.51 578.866,1298.43 580.845,1298.43 582.825,1298.11 584.805,1297.52 586.785,1297.17 588.765,1297.06 590.745,1296.35 592.725,1295.63 594.704,1295.17 596.684,1295.09 598.664,1294.67 600.644,1293.23 602.624,1293.01 604.604,1292.66 606.584,1292.25 608.563,1292.04 610.543,1291.34 612.523,1291.11 614.503,1290.97 616.483,1290.6 618.463,1290.37 620.443,1288.7 622.422,1288.59 624.402,1287.71 626.382,1287.62 628.362,1286.23 630.342,1284.24 632.322,1283.49 634.301,1282.52 636.281,1282.45 638.261,1282.08 640.241,1280.48 642.221,1278.11 644.201,1276.43 646.181,1276.3 648.16,1275.18 650.14,1274.54 652.12,1274.41 654.1,1273.68 656.08,1273.23 658.06,1272.76 660.04,1272.62 662.019,1271.44 663.999,1271.33 665.979,1271.32 667.959,1269.51 669.939,1268.52 671.919,1264.89 673.899,1264.26 675.878,1262.05 677.858,1261.89 679.838,1261.73 681.818,1261.13 683.798,1260.06 685.778,1258.24 687.758,1258.03 689.737,1257.81 691.717,1256.8 693.697,1256.28 695.677,1255.01 697.657,1254.76 699.637,1253.5 701.617,1252.33 703.596,1251.45 705.576,1250.2 707.556,1249.65 709.536,1248.79 711.516,1247.03 713.496,1246.07 715.476,1242.88 717.455,1240.81 719.435,1238.88 721.415,1238.26 723.395,1236.88 725.375,1234.96 727.355,1234.78 729.335,1229.38 731.314,1227.8 733.294,1227.12 735.274,1227.01 737.254,1226.01 739.234,1222.77 741.214,1219.57 743.194,1215.87 745.173,1213.79 747.153,1213.1 749.133,1212.72 751.113,1209.3 753.093,1204.42 755.073,1194.54 757.052,1193.95 759.032,1193.09 761.012,1191.19 762.992,1190.54 764.972,1187.09 766.952,1179.13 768.932,1177.62 770.911,1176.43 772.891,1174.11 774.871,1173.31 776.851,1172.33 778.831,1170.91 780.811,1170.18 782.791,1169.39 784.77,1168.2 786.75,1167.81 788.73,1166.86 790.71,1162.06 792.69,1158 794.67,1124.75 796.65,1119.57 798.629,1114.54 800.609,1108.43 802.589,1098.18 804.569,1096.27 806.549,1093.58 808.529,1091.92 810.509,1081.41 812.488,1077.28 814.468,1075.8 816.448,1068.69 818.428,1065.74 820.408,1057.43 822.388,1055.46 824.368,1055.21 826.347,1052.14 828.327,1050.46 830.307,1048.85 832.287,1048.49 834.267,1048.3 836.247,1047.94 838.227,1040.13 840.206,1040.01 842.186,1039.28 844.166,1038.88 846.146,1038.31 848.126,1038.23 850.106,1037.1 852.086,1036.87 854.065,1036.82 856.045,1036.19 858.025,1035.69 860.005,1034.66 861.985,1031.89 863.965,1030.41 865.944,1029.83 867.924,1027.5 869.904,1026.47 871.884,1022.59 873.864,1022.55 875.844,1022.54 877.824,1021.5 879.803,1019.79 881.783,1019.38 883.763,1018.65 885.743,1018.63 887.723,1018.6 889.703,1017.06 891.683,1016.07 893.662,1015.37 895.642,1014.93 897.622,1013.85 899.602,1012.78 901.582,1011.39 903.562,1011.29 905.542,1011.14 907.521,1010.86 909.501,1010.36 911.481,1010.27 913.461,1009.85 915.441,1009.7 917.421,1009.04 919.401,1008.74 921.38,1008.15 923.36,1007.38 925.34,1007.31 927.32,1007.16 929.3,1006.84 931.28,1004.48 933.26,1003.5 935.239,1003.43 937.219,1003.19 939.199,1001.95 941.179,1001.68 943.159,1000.9 945.139,1000.57 947.119,1000.53 949.098,999.957 951.078,999.87 953.058,999.716 955.038,998.829 957.018,998.576 958.998,997.44 960.978,997.347 962.957,997.206 964.937,997.155 966.917,996.609 968.897,995.622 970.877,995.459 972.857,993.948 974.836,993.861 976.816,993.759 978.796,993.559 980.776,993.488 982.756,993.026 984.736,991.646 986.716,991.394 988.695,990.384 990.675,989.506 992.655,988.159 994.635,988.05 996.615,987.021 998.595,986.114 1000.57,985.681 1002.55,985.635 1004.53,985.076 1006.51,984.485 1008.49,983.809 1010.47,983.58 1012.45,983.266 1014.43,983.223 1016.41,982.871 1018.39,982.497 1020.37,982.452 1022.35,982.345 1024.33,982.264 1026.31,980.755 1028.29,980.451 1030.27,980.369 1032.25,980.192 1034.23,979.866 1036.21,979.117 1038.19,978.654 1040.17,978.52 1042.15,977.75 1044.13,977.575 1046.11,976.211 1048.09,975.558 1050.07,975.39 1052.05,973.409 1054.03,973.368 1056.01,973.019 1057.99,972.665 1059.97,972.197 1061.95,972.182 1063.93,971.812 1065.91,971.306 1067.89,970.744 1069.87,970.702 1071.85,970.48 1073.83,970.054 1075.81,969.92 1077.79,969.672 1079.77,969.248 1081.75,968.907 1083.73,968.84 1085.71,968.635 1087.69,968.281 1089.67,967.577 1091.65,966.492 1093.63,965.794 1095.61,965.696 1097.59,965.542 1099.57,965.488 1101.55,965.159 1103.53,964.047 1105.51,963.665 1107.49,963.289 1109.47,963.233 1111.45,962.912 1113.43,962.625 1115.41,962.446 1117.39,962.331 1119.37,962.125 1121.35,961.728 1123.33,961.672 1125.31,961.37 1127.29,961.198 1129.27,961.022 1131.25,960.532 1133.22,960.497 1135.2,960.325 1137.18,960.265 1139.16,959.781 1141.14,959.522 1143.12,959.369 1145.1,958.938 1147.08,958.13 1149.06,957.799 1151.04,957.358 1153.02,956.699 1155,955.812 1156.98,955.561 1158.96,954.641 1160.94,953.852 1162.92,953.521 1164.9,953.4 1166.88,953.146 1168.86,952.531 1170.84,952.15 1172.82,951.486 1174.8,951.413 1176.78,951.081 1178.76,951.007 1180.74,950.972 1182.72,950.673 1184.7,950.575 1186.68,949.963 1188.66,949.443 1190.64,949.027 1192.62,948.924 1194.6,948.035 1196.58,947.903 1198.56,947.505 1200.54,947.336 1202.52,946.829 1204.5,946.511 1206.48,945.702 1208.46,945.296 1210.44,944.991 1212.42,944.431 1214.4,940.402 1216.38,939.719 1218.36,939.183 1220.34,937.328 1222.32,937.267 1224.3,937.033 1226.28,936.764 1228.26,936.59 1230.24,936.292 1232.22,935.534 1234.2,934.206 1236.18,933.171 1238.16,932.918 1240.14,932.688 1242.12,930.95 1244.1,930.672 1246.08,930.614 1248.06,930.567 1250.04,930.076 1252.02,930.022 1254,930.007 1255.98,929.84 1257.96,929.203 1259.94,929.153 1261.92,928.1 1263.9,927.923 1265.88,926.199 1267.85,924.848 1269.83,924.654 1271.81,922.257 1273.79,922.002 1275.77,921.737 1277.75,921.27 1279.73,921.091 1281.71,920.71 1283.69,920.442 1285.67,920.285 1287.65,919.651 1289.63,919.483 1291.61,919.236 1293.59,917.757 1295.57,917.502 1297.55,917.078 1299.53,916.509 1301.51,916.005 1303.49,915.81 1305.47,915.454 1307.45,914.867 1309.43,914.849 1311.41,914.642 1313.39,914.489 1315.37,913.56 1317.35,912.253 1319.33,911.291 1321.31,910.399 1323.29,909.336 1325.27,908.669 1327.25,908.031 1329.23,907.878 1331.21,907.731 1333.19,907.105 1335.17,905.699 1337.15,905.678 1339.13,904.483 1341.11,903.298 1343.09,903.261 1345.07,903.137 1347.05,902.608 1349.03,902.2 1351.01,902.151 1352.99,902.13 1354.97,901.936 1356.95,901.801 1358.93,901.52 1360.91,901.156 1362.89,900.987 1364.87,900.39 1366.85,900.376 1368.83,899.211 1370.81,899.02 1372.79,898.678 1374.77,897.786 1376.75,896.954 1378.73,895.24 1380.71,894.92 1382.69,894.903 1384.67,894.897 1386.65,894.484 1388.63,894.459 1390.61,894.254 1392.59,894.107 1394.57,894.063 1396.55,893.829 1398.53,893.487 1400.51,892.502 1402.49,892.139 1404.46,892.005 1406.44,890.369 1408.42,890.28 1410.4,890.059 1412.38,889.963 1414.36,888.938 1416.34,887.594 1418.32,886.332 1420.3,884.48 1422.28,883.994 1424.26,883.974 1426.24,883.562 1428.22,882.781 1430.2,882.623 1432.18,880.755 1434.16,880.015 1436.14,879.801 1438.12,879.309 1440.1,878.802 1442.08,878.567 1444.06,877.567 1446.04,875.505 1448.02,874.119 1450,873.338 1451.98,872.957 1453.96,872.596 1455.94,871.335 1457.92,870.973 1459.9,870.664 1461.88,870.553 1463.86,867.839 1465.84,866.23 1467.82,865.655 1469.8,865.458 1471.78,865.228 1473.76,865.173 1475.74,864.349 1477.72,863.893 1479.7,863.567 1481.68,863.274 1483.66,862.89 1485.64,862.685 1487.62,860.393 1489.6,858.957 1491.58,858.745 1493.56,858.501 1495.54,858.499 1497.52,856.518 1499.5,856.199 1501.48,855.311 1503.46,854.181 1505.44,853.628 1507.42,853.113 1509.4,852.977 1511.38,851.476 1513.36,850.783 1515.34,850.55 1517.32,850.546 1519.3,850.171 1521.28,850.031 1523.26,849.618 1525.24,848.559 1527.22,847.939 1529.2,847.672 1531.18,846.485 1533.16,844.841 1535.14,844.66 1537.12,843.795 1539.1,843.366 1541.07,843.259 1543.05,843.18 1545.03,841.886 1547.01,841.566 1548.99,841.533 1550.97,840.692 1552.95,839.898 1554.93,838.524 1556.91,838.325 1558.89,837.169 1560.87,836.645 1562.85,836.414 1564.83,835.811 1566.81,835.695 1568.79,834.069 1570.77,833.816 1572.75,832.434 1574.73,830.651 1576.71,830.543 1578.69,828.672 1580.67,827.487 1582.65,826.689 1584.63,826.049 1586.61,825.924 1588.59,825.923 1590.57,825.749 1592.55,824.407 1594.53,824.023 1596.51,821.658 1598.49,821.613 1600.47,821.594 1602.45,821.378 1604.43,820.192 1606.41,819.857 1608.39,819.756 1610.37,819.444 1612.35,819.313 1614.33,819.097 1616.31,815.104 1618.29,814.774 1620.27,813.337 1622.25,812.003 1624.23,810.902 1626.21,810.738 1628.19,804.542 1630.17,804.429 1632.15,804.315 1634.13,803.411 1636.11,802.775 1638.09,801.56 1640.07,797.043 1642.05,795.344 1644.03,795.282 1646.01,794.216 1647.99,794.147 1649.97,792.548 1651.95,792.089 1653.93,790.003 1655.91,787.475 1657.89,787.347 1659.87,784 1661.85,780.127 1663.83,779.604 1665.81,779.479 1667.79,775.298 1669.77,774.235 1671.75,774.17 1673.73,773.895 1675.71,772.715 1677.68,770.068 1679.66,769.752 1681.64,769.131 1683.62,767.8 1685.6,767.351 1687.58,766.353 1689.56,765.79 1691.54,765.505 1693.52,764.1 1695.5,763.141 1697.48,760.012 1699.46,759.121 1701.44,758.574 1703.42,758.043 1705.4,751.143 1707.38,750.009 1709.36,749.98 1711.34,747.99 1713.32,745.905 1715.3,744.483 1717.28,744.38 1719.26,743.416 1721.24,741.247 1723.22,740.306 1725.2,739.231 1727.18,738.803 1729.16,738.451 1731.14,737.771 1733.12,737.606 1735.1,737.377 1737.08,735.97 1739.06,734.902 1741.04,734.106 1743.02,729.309 1745,728.483 1746.98,725.439 1748.96,718.342 1750.94,718.028 1752.92,716.451 1754.9,715.725 1756.88,713.753 1758.86,711.56 1760.84,711.187 1762.82,708.551 1764.8,704.441 1766.78,703.763 1768.76,697.557 1770.74,688.639 1772.72,688.464 1774.7,686.806 1776.68,685.405 1778.66,680.617 1780.64,662.293 1782.62,643.315 1784.6,641.016 1786.58,640.479 1788.56,639.508 1790.54,631.085 1792.52,626.069 1794.5,615.741 1796.48,594.614 1798.46,578.043 1800.44,358.143 1802.42,305.518 1804.4,289.347 1806.38,284.75 1808.36,282.99 1810.34,282.772 1812.31,277.674 1814.29,275.449 1816.27,274.915 1818.25,272.869 1820.23,270.277 1822.21,269.698 1824.19,263.28 1826.17,260.187 1828.15,259.873 1830.13,259.581 1832.11,259.302 1834.09,255.743 1836.07,254.65 1838.05,254.619 1840.03,254.442 1842.01,254.404 1843.99,253.427 1845.97,252.438 1847.95,251.159 1849.93,249.889 1851.91,248.078 1853.89,247.403 1855.87,247.038 1857.85,246.092 1859.83,245.632 1861.81,243.295 1863.79,242.726 1865.77,242.396 1867.75,242.075 1869.73,241.808 1871.71,241.803 1873.69,240.391 1875.67,240.139 1877.65,239.885 1879.63,239.362 1881.61,239.263 1883.59,238.228 1885.57,238.03 1887.55,237.776 1889.53,237.761 1891.51,237.514 1893.49,236.503 1895.47,235.231 1897.45,234.966 1899.43,234.721 1901.41,234.577 1903.39,233.859 1905.37,233.669 1907.35,233.655 1909.33,232.9 1911.31,232.636 1913.29,232.527 1915.27,231.396 1917.25,229.916 1919.23,229.903 1921.21,229.609 1923.19,228.773 1925.17,227.649 1927.15,227.101 1929.13,226.762 1931.11,226.536 1933.09,226.07 1935.07,225.574 1937.05,225.473 1939.03,224.982 1941.01,224.434 1942.99,223.645 1944.97,222.877 1946.95,222.795 1948.92,222.78 1950.9,222.407 1952.88,222.304 1954.86,222.205 1956.84,222.107 1958.82,221.404 1960.8,221.345 1962.78,220.813 1964.76,220.615 1966.74,220.409 1968.72,219.921 1970.7,218.891 1972.68,218.436 1974.66,218.112 1976.64,217.762 1978.62,216.916 1980.6,216.88 1982.58,216.837 1984.56,216.315 1986.54,216.183 1988.52,215.715 1990.5,215.166 1992.48,214.615 1994.46,214.439 1996.44,214.418 1998.42,213.965 2000.4,213.818 2002.38,213.408 2004.36,212.557 2006.34,212.502 2008.32,211.575 2010.3,210.566 2012.28,210.033 2014.26,210.005 2016.24,209.393 2018.22,209.341 2020.2,208.992 2022.18,208.696 2024.16,208.691 2026.14,208.269 2028.12,208.086 2030.1,207.538 2032.08,207.392 2034.06,207.078 2036.04,206.735 2038.02,206.692 2040,206.256 2041.98,206.229 2043.96,206.089 2045.94,205.827 2047.92,205.5 2049.9,205.409 2051.88,205.284 2053.86,205.273 2055.84,205.223 2057.82,204.86 2059.8,204.511 2061.78,204.32 2063.76,203.754 2065.74,203.364 2067.72,203.327 2069.7,202.571 2071.68,202.403 2073.66,201.795 2075.64,201.733 2077.62,201.445 2079.6,201.394 2081.58,201.079 2083.56,200.226 2085.53,200.08 2087.51,200.057 2089.49,199.81 2091.47,199.762 2093.45,199.519 2095.43,199.124 2097.41,199.081 2099.39,198.816 2101.37,198.779 2103.35,198.085 2105.33,197.589 2107.31,197.564 2109.29,197.559 2111.27,197.491 2113.25,197.489 2115.23,197.218 2117.21,197.11 2119.19,196.696 2121.17,196.405 2123.15,196.187 2125.13,196.097 2127.11,195.923 2129.09,195.114 2131.07,195.04 2133.05,194.903 2135.03,194.89 2137.01,194.192 2138.99,194.049 2140.97,193.799 2142.95,193.42 2144.93,193.098 2146.91,193.074 2148.89,192.776 2150.87,192.732 2152.85,192.407 2154.83,192.376 2156.81,192.335 2158.79,191.7 2160.77,191.699 2162.75,191.325 2164.73,190.365 2166.71,190.067 2168.69,189.856 2170.67,189.614 2172.65,189.495 2174.63,189.46 2176.61,189.263 2178.59,189.096 2180.57,188.697 2182.55,187.961 2184.53,187.696 2186.51,187.395 2188.49,187.351 2190.47,186.831 2192.45,186.715 2194.43,186.703 2196.41,186.034 2198.39,185.971 2200.37,185.811 2202.35,185.724 2204.33,185.386 2206.31,184.766 2208.29,184.682 2210.27,184.618 2212.25,183.999 2214.23,183.949 2216.21,183.634 2218.19,183.58 2220.17,183.394 2222.14,182.807 2224.12,182.501 2226.1,182.182 2228.08,182.087 2230.06,182.037 2232.04,182.027 2234.02,181.505 2236,181.452 2237.98,181.225 2239.96,181.124 2241.94,180.943 2243.92,180.731 2245.9,180.287 2247.88,179.974 2249.86,179.673 2251.84,179.618 2253.82,179.585 2255.8,178.605 2257.78,177.963 2259.76,177.936 2261.74,177.738 2263.72,176.379 2265.7,174.572 2267.68,173.335 2269.66,172.114 2271.64,170.873 2273.62,169.909 2275.6,169.625 2277.58,169.539 2279.56,168.537 2281.54,167.491 2283.52,167.481 2285.5,167.082 2287.48,166.763 2289.46,161.77 2291.44,160.404 2293.42,160.256 "/>
<path clip-path="url(#clip430)" d="M326.094 270.476 L755.354 270.476 L755.354 166.796 L326.094 166.796  Z" fill="#ffffff" fill-rule="evenodd" fill-opacity="1"/>
<polyline clip-path="url(#clip430)" style="stroke:#000000; stroke-linecap:round; stroke-linejoin:round; stroke-width:4; stroke-opacity:1; fill:none" points="326.094,270.476 755.354,270.476 755.354,166.796 326.094,166.796 326.094,270.476 "/>
<polyline clip-path="url(#clip430)" style="stroke:#009af9; stroke-linecap:round; stroke-linejoin:round; stroke-width:4; stroke-opacity:1; fill:none" points="349.389,218.636 489.158,218.636 "/>
<path clip-path="url(#clip430)" d="M534.699 202.49 L534.699 207.05 Q532.037 205.777 529.675 205.152 Q527.314 204.527 525.115 204.527 Q521.296 204.527 519.213 206.008 Q517.152 207.49 517.152 210.221 Q517.152 212.513 518.518 213.694 Q519.907 214.851 523.75 215.569 L526.574 216.147 Q531.805 217.143 534.282 219.666 Q536.782 222.166 536.782 226.379 Q536.782 231.402 533.402 233.994 Q530.046 236.587 523.541 236.587 Q521.088 236.587 518.31 236.031 Q515.555 235.476 512.592 234.388 L512.592 229.573 Q515.439 231.17 518.171 231.981 Q520.902 232.791 523.541 232.791 Q527.546 232.791 529.722 231.217 Q531.898 229.643 531.898 226.726 Q531.898 224.18 530.324 222.744 Q528.773 221.309 525.208 220.592 L522.361 220.036 Q517.129 218.995 514.791 216.772 Q512.453 214.55 512.453 210.592 Q512.453 206.008 515.671 203.37 Q518.912 200.731 524.583 200.731 Q527.013 200.731 529.537 201.171 Q532.06 201.61 534.699 202.49 Z" fill="#000000" fill-rule="nonzero" fill-opacity="1" /><path clip-path="url(#clip430)" d="M543.888 209.99 L548.148 209.99 L548.148 235.916 L543.888 235.916 L543.888 209.99 M543.888 199.897 L548.148 199.897 L548.148 205.291 L543.888 205.291 L543.888 199.897 Z" fill="#000000" fill-rule="nonzero" fill-opacity="1" /><path clip-path="url(#clip430)" d="M577.245 214.967 Q578.842 212.096 581.064 210.731 Q583.286 209.365 586.296 209.365 Q590.346 209.365 592.545 212.212 Q594.745 215.036 594.745 220.268 L594.745 235.916 L590.462 235.916 L590.462 220.407 Q590.462 216.68 589.143 214.874 Q587.823 213.069 585.115 213.069 Q581.805 213.069 579.884 215.268 Q577.962 217.467 577.962 221.263 L577.962 235.916 L573.68 235.916 L573.68 220.407 Q573.68 216.657 572.36 214.874 Q571.041 213.069 568.286 213.069 Q565.022 213.069 563.101 215.291 Q561.18 217.49 561.18 221.263 L561.18 235.916 L556.898 235.916 L556.898 209.99 L561.18 209.99 L561.18 214.018 Q562.638 211.633 564.675 210.499 Q566.712 209.365 569.513 209.365 Q572.337 209.365 574.305 210.8 Q576.296 212.235 577.245 214.967 Z" fill="#000000" fill-rule="nonzero" fill-opacity="1" /><path clip-path="url(#clip430)" d="M603.24 209.99 L607.499 209.99 L607.499 235.916 L603.24 235.916 L603.24 209.99 M603.24 199.897 L607.499 199.897 L607.499 205.291 L603.24 205.291 L603.24 199.897 Z" fill="#000000" fill-rule="nonzero" fill-opacity="1" /><path clip-path="url(#clip430)" d="M616.411 199.897 L620.67 199.897 L620.67 235.916 L616.411 235.916 L616.411 199.897 Z" fill="#000000" fill-rule="nonzero" fill-opacity="1" /><path clip-path="url(#clip430)" d="M641.365 222.883 Q636.203 222.883 634.212 224.064 Q632.221 225.244 632.221 228.092 Q632.221 230.36 633.703 231.703 Q635.207 233.022 637.777 233.022 Q641.318 233.022 643.448 230.522 Q645.601 227.999 645.601 223.832 L645.601 222.883 L641.365 222.883 M649.86 221.124 L649.86 235.916 L645.601 235.916 L645.601 231.981 Q644.142 234.342 641.967 235.476 Q639.791 236.587 636.642 236.587 Q632.661 236.587 630.3 234.365 Q627.962 232.119 627.962 228.369 Q627.962 223.994 630.879 221.772 Q633.818 219.55 639.629 219.55 L645.601 219.55 L645.601 219.133 Q645.601 216.194 643.656 214.596 Q641.735 212.976 638.24 212.976 Q636.017 212.976 633.911 213.508 Q631.805 214.041 629.86 215.106 L629.86 211.17 Q632.198 210.268 634.397 209.828 Q636.596 209.365 638.68 209.365 Q644.304 209.365 647.082 212.282 Q649.86 215.198 649.86 221.124 Z" fill="#000000" fill-rule="nonzero" fill-opacity="1" /><path clip-path="url(#clip430)" d="M673.656 213.971 Q672.939 213.555 672.082 213.37 Q671.249 213.161 670.23 213.161 Q666.619 213.161 664.675 215.522 Q662.753 217.86 662.753 222.258 L662.753 235.916 L658.471 235.916 L658.471 209.99 L662.753 209.99 L662.753 214.018 Q664.096 211.657 666.249 210.522 Q668.402 209.365 671.48 209.365 Q671.92 209.365 672.452 209.434 Q672.985 209.481 673.633 209.596 L673.656 213.971 Z" fill="#000000" fill-rule="nonzero" fill-opacity="1" /><path clip-path="url(#clip430)" d="M678.124 209.99 L682.383 209.99 L682.383 235.916 L678.124 235.916 L678.124 209.99 M678.124 199.897 L682.383 199.897 L682.383 205.291 L678.124 205.291 L678.124 199.897 Z" fill="#000000" fill-rule="nonzero" fill-opacity="1" /><path clip-path="url(#clip430)" d="M695.508 202.629 L695.508 209.99 L704.281 209.99 L704.281 213.3 L695.508 213.3 L695.508 227.374 Q695.508 230.545 696.364 231.448 Q697.244 232.351 699.906 232.351 L704.281 232.351 L704.281 235.916 L699.906 235.916 Q694.975 235.916 693.101 234.087 Q691.226 232.235 691.226 227.374 L691.226 213.3 L688.101 213.3 L688.101 209.99 L691.226 209.99 L691.226 202.629 L695.508 202.629 Z" fill="#000000" fill-rule="nonzero" fill-opacity="1" /><path clip-path="url(#clip430)" d="M720.67 238.323 Q718.864 242.953 717.151 244.365 Q715.438 245.777 712.568 245.777 L709.165 245.777 L709.165 242.212 L711.665 242.212 Q713.424 242.212 714.397 241.379 Q715.369 240.545 716.549 237.443 L717.313 235.499 L706.827 209.99 L711.341 209.99 L719.443 230.268 L727.545 209.99 L732.059 209.99 L720.67 238.323 Z" fill="#000000" fill-rule="nonzero" fill-opacity="1" /></svg>
