<?xml version="1.0" encoding="utf-8"?>
<svg xmlns="http://www.w3.org/2000/svg" xmlns:xlink="http://www.w3.org/1999/xlink" width="600" height="400" viewBox="0 0 2400 1600">
<defs>
  <clipPath id="clip970">
    <rect x="0" y="0" width="2400" height="1600"/>
  </clipPath>
</defs>
<path clip-path="url(#clip970)" d="M0 1600 L2400 1600 L2400 8.88178e-14 L0 8.88178e-14  Z" fill="#ffffff" fill-rule="evenodd" fill-opacity="1"/>
<defs>
  <clipPath id="clip971">
    <rect x="480" y="0" width="1681" height="1600"/>
  </clipPath>
</defs>
<path clip-path="url(#clip970)" d="M249.542 1423.18 L2352.76 1423.18 L2352.76 123.472 L249.542 123.472  Z" fill="#ffffff" fill-rule="evenodd" fill-opacity="1"/>
<defs>
  <clipPath id="clip972">
    <rect x="249" y="123" width="2104" height="1301"/>
  </clipPath>
</defs>
<polyline clip-path="url(#clip972)" style="stroke:#000000; stroke-linecap:round; stroke-linejoin:round; stroke-width:2; stroke-opacity:0.1; fill:none" points="309.067,1423.18 309.067,123.472 "/>
<polyline clip-path="url(#clip972)" style="stroke:#000000; stroke-linecap:round; stroke-linejoin:round; stroke-width:2; stroke-opacity:0.1; fill:none" points="970.455,1423.18 970.455,123.472 "/>
<polyline clip-path="url(#clip972)" style="stroke:#000000; stroke-linecap:round; stroke-linejoin:round; stroke-width:2; stroke-opacity:0.1; fill:none" points="1631.84,1423.18 1631.84,123.472 "/>
<polyline clip-path="url(#clip972)" style="stroke:#000000; stroke-linecap:round; stroke-linejoin:round; stroke-width:2; stroke-opacity:0.1; fill:none" points="2293.23,1423.18 2293.23,123.472 "/>
<polyline clip-path="url(#clip970)" style="stroke:#000000; stroke-linecap:round; stroke-linejoin:round; stroke-width:4; stroke-opacity:1; fill:none" points="249.542,1423.18 2352.76,1423.18 "/>
<polyline clip-path="url(#clip970)" style="stroke:#000000; stroke-linecap:round; stroke-linejoin:round; stroke-width:4; stroke-opacity:1; fill:none" points="309.067,1423.18 309.067,1404.28 "/>
<polyline clip-path="url(#clip970)" style="stroke:#000000; stroke-linecap:round; stroke-linejoin:round; stroke-width:4; stroke-opacity:1; fill:none" points="970.455,1423.18 970.455,1404.28 "/>
<polyline clip-path="url(#clip970)" style="stroke:#000000; stroke-linecap:round; stroke-linejoin:round; stroke-width:4; stroke-opacity:1; fill:none" points="1631.84,1423.18 1631.84,1404.28 "/>
<polyline clip-path="url(#clip970)" style="stroke:#000000; stroke-linecap:round; stroke-linejoin:round; stroke-width:4; stroke-opacity:1; fill:none" points="2293.23,1423.18 2293.23,1404.28 "/>
<path clip-path="url(#clip970)" d="M299.449 1481.64 L307.088 1481.64 L307.088 1455.28 L298.778 1456.95 L298.778 1452.69 L307.042 1451.02 L311.717 1451.02 L311.717 1481.64 L319.356 1481.64 L319.356 1485.58 L299.449 1485.58 L299.449 1481.64 Z" fill="#000000" fill-rule="nonzero" fill-opacity="1" /><path clip-path="url(#clip970)" d="M965.108 1481.64 L981.427 1481.64 L981.427 1485.58 L959.483 1485.58 L959.483 1481.64 Q962.145 1478.89 966.728 1474.26 Q971.335 1469.61 972.515 1468.27 Q974.76 1465.74 975.64 1464.01 Q976.543 1462.25 976.543 1460.56 Q976.543 1457.8 974.598 1456.07 Q972.677 1454.33 969.575 1454.33 Q967.376 1454.33 964.923 1455.09 Q962.492 1455.86 959.714 1457.41 L959.714 1452.69 Q962.538 1451.55 964.992 1450.97 Q967.446 1450.39 969.483 1450.39 Q974.853 1450.39 978.048 1453.08 Q981.242 1455.77 981.242 1460.26 Q981.242 1462.39 980.432 1464.31 Q979.645 1466.2 977.538 1468.8 Q976.96 1469.47 973.858 1472.69 Q970.756 1475.88 965.108 1481.64 Z" fill="#000000" fill-rule="nonzero" fill-opacity="1" /><path clip-path="url(#clip970)" d="M1636.09 1466.95 Q1639.45 1467.66 1641.32 1469.93 Q1643.22 1472.2 1643.22 1475.53 Q1643.22 1480.65 1639.7 1483.45 Q1636.18 1486.25 1629.7 1486.25 Q1627.53 1486.25 1625.21 1485.81 Q1622.92 1485.39 1620.47 1484.54 L1620.47 1480.02 Q1622.41 1481.16 1624.72 1481.74 Q1627.04 1482.32 1629.56 1482.32 Q1633.96 1482.32 1636.25 1480.58 Q1638.57 1478.84 1638.57 1475.53 Q1638.57 1472.48 1636.41 1470.77 Q1634.29 1469.03 1630.47 1469.03 L1626.44 1469.03 L1626.44 1465.19 L1630.65 1465.19 Q1634.1 1465.19 1635.93 1463.82 Q1637.76 1462.43 1637.76 1459.84 Q1637.76 1457.18 1635.86 1455.77 Q1633.98 1454.33 1630.47 1454.33 Q1628.54 1454.33 1626.35 1454.75 Q1624.15 1455.16 1621.51 1456.04 L1621.51 1451.88 Q1624.17 1451.14 1626.48 1450.77 Q1628.82 1450.39 1630.88 1450.39 Q1636.21 1450.39 1639.31 1452.83 Q1642.41 1455.23 1642.41 1459.35 Q1642.41 1462.22 1640.77 1464.21 Q1639.12 1466.18 1636.09 1466.95 Z" fill="#000000" fill-rule="nonzero" fill-opacity="1" /><path clip-path="url(#clip970)" d="M2296.24 1455.09 L2284.43 1473.54 L2296.24 1473.54 L2296.24 1455.09 M2295.01 1451.02 L2300.89 1451.02 L2300.89 1473.54 L2305.82 1473.54 L2305.82 1477.43 L2300.89 1477.43 L2300.89 1485.58 L2296.24 1485.58 L2296.24 1477.43 L2280.64 1477.43 L2280.64 1472.92 L2295.01 1451.02 Z" fill="#000000" fill-rule="nonzero" fill-opacity="1" /><path clip-path="url(#clip970)" d="M1236.71 1561.26 L1236.71 1548.5 L1226.21 1548.5 L1226.21 1543.22 L1243.08 1543.22 L1243.08 1563.62 Q1239.35 1566.26 1234.87 1567.63 Q1230.38 1568.97 1225.29 1568.97 Q1214.15 1568.97 1207.84 1562.47 Q1201.57 1555.95 1201.57 1544.33 Q1201.57 1532.68 1207.84 1526.19 Q1214.15 1519.66 1225.29 1519.66 Q1229.93 1519.66 1234.1 1520.81 Q1238.3 1521.96 1241.84 1524.18 L1241.84 1531.03 Q1238.27 1528 1234.26 1526.48 Q1230.25 1524.95 1225.83 1524.95 Q1217.11 1524.95 1212.71 1529.82 Q1208.35 1534.69 1208.35 1544.33 Q1208.35 1553.94 1212.71 1558.81 Q1217.11 1563.68 1225.83 1563.68 Q1229.23 1563.68 1231.91 1563.11 Q1234.58 1562.51 1236.71 1561.26 Z" fill="#000000" fill-rule="nonzero" fill-opacity="1" /><path clip-path="url(#clip970)" d="M1285.06 1548.76 L1285.06 1551.62 L1258.13 1551.62 Q1258.51 1557.67 1261.76 1560.85 Q1265.04 1564 1270.86 1564 Q1274.24 1564 1277.39 1563.17 Q1280.57 1562.35 1283.69 1560.69 L1283.69 1566.23 Q1280.54 1567.57 1277.23 1568.27 Q1273.92 1568.97 1270.51 1568.97 Q1261.98 1568.97 1256.99 1564 Q1252.02 1559.04 1252.02 1550.57 Q1252.02 1541.82 1256.73 1536.69 Q1261.47 1531.54 1269.5 1531.54 Q1276.69 1531.54 1280.86 1536.18 Q1285.06 1540.8 1285.06 1548.76 M1279.2 1547.04 Q1279.14 1542.23 1276.5 1539.37 Q1273.89 1536.5 1269.56 1536.5 Q1264.66 1536.5 1261.7 1539.27 Q1258.77 1542.04 1258.32 1547.07 L1279.2 1547.04 Z" fill="#000000" fill-rule="nonzero" fill-opacity="1" /><path clip-path="url(#clip970)" d="M1324.3 1546.53 L1324.3 1568.04 L1318.45 1568.04 L1318.45 1546.72 Q1318.45 1541.66 1316.47 1539.14 Q1314.5 1536.63 1310.55 1536.63 Q1305.81 1536.63 1303.07 1539.65 Q1300.34 1542.68 1300.34 1547.9 L1300.34 1568.04 L1294.45 1568.04 L1294.45 1532.4 L1300.34 1532.4 L1300.34 1537.93 Q1302.44 1534.72 1305.27 1533.13 Q1308.14 1531.54 1311.86 1531.54 Q1318 1531.54 1321.15 1535.36 Q1324.3 1539.14 1324.3 1546.53 Z" fill="#000000" fill-rule="nonzero" fill-opacity="1" /><path clip-path="url(#clip970)" d="M1366.48 1548.76 L1366.48 1551.62 L1339.55 1551.62 Q1339.93 1557.67 1343.18 1560.85 Q1346.46 1564 1352.28 1564 Q1355.66 1564 1358.81 1563.17 Q1361.99 1562.35 1365.11 1560.69 L1365.11 1566.23 Q1361.96 1567.57 1358.65 1568.27 Q1355.34 1568.97 1351.93 1568.97 Q1343.4 1568.97 1338.4 1564 Q1333.44 1559.04 1333.44 1550.57 Q1333.44 1541.82 1338.15 1536.69 Q1342.89 1531.54 1350.91 1531.54 Q1358.11 1531.54 1362.28 1536.18 Q1366.48 1540.8 1366.48 1548.76 M1360.62 1547.04 Q1360.56 1542.23 1357.92 1539.37 Q1355.31 1536.5 1350.98 1536.5 Q1346.07 1536.5 1343.11 1539.27 Q1340.19 1542.04 1339.74 1547.07 L1360.62 1547.04 Z" fill="#000000" fill-rule="nonzero" fill-opacity="1" /><path clip-path="url(#clip970)" d="M1398.81 1533.45 L1398.81 1538.98 Q1396.33 1537.71 1393.66 1537.07 Q1390.99 1536.44 1388.12 1536.44 Q1383.76 1536.44 1381.56 1537.77 Q1379.4 1539.11 1379.4 1541.79 Q1379.4 1543.82 1380.96 1545 Q1382.52 1546.15 1387.23 1547.2 L1389.23 1547.64 Q1395.47 1548.98 1398.08 1551.43 Q1400.72 1553.85 1400.72 1558.21 Q1400.72 1563.17 1396.78 1566.07 Q1392.86 1568.97 1385.99 1568.97 Q1383.12 1568.97 1380 1568.39 Q1376.92 1567.85 1373.48 1566.74 L1373.48 1560.69 Q1376.73 1562.38 1379.88 1563.24 Q1383.03 1564.07 1386.12 1564.07 Q1390.25 1564.07 1392.48 1562.66 Q1394.71 1561.23 1394.71 1558.65 Q1394.71 1556.27 1393.09 1554.99 Q1391.49 1553.72 1386.05 1552.54 L1384.01 1552.07 Q1378.57 1550.92 1376.15 1548.56 Q1373.73 1546.18 1373.73 1542.04 Q1373.73 1537.01 1377.3 1534.27 Q1380.86 1531.54 1387.42 1531.54 Q1390.67 1531.54 1393.53 1532.01 Q1396.4 1532.49 1398.81 1533.45 Z" fill="#000000" fill-rule="nonzero" fill-opacity="1" /><polyline clip-path="url(#clip972)" style="stroke:#000000; stroke-linecap:round; stroke-linejoin:round; stroke-width:2; stroke-opacity:0.1; fill:none" points="249.542,1345.52 2352.76,1345.52 "/>
<polyline clip-path="url(#clip972)" style="stroke:#000000; stroke-linecap:round; stroke-linejoin:round; stroke-width:2; stroke-opacity:0.1; fill:none" points="249.542,993.078 2352.76,993.078 "/>
<polyline clip-path="url(#clip972)" style="stroke:#000000; stroke-linecap:round; stroke-linejoin:round; stroke-width:2; stroke-opacity:0.1; fill:none" points="249.542,640.639 2352.76,640.639 "/>
<polyline clip-path="url(#clip972)" style="stroke:#000000; stroke-linecap:round; stroke-linejoin:round; stroke-width:2; stroke-opacity:0.1; fill:none" points="249.542,288.2 2352.76,288.2 "/>
<polyline clip-path="url(#clip970)" style="stroke:#000000; stroke-linecap:round; stroke-linejoin:round; stroke-width:4; stroke-opacity:1; fill:none" points="249.542,1423.18 249.542,123.472 "/>
<polyline clip-path="url(#clip970)" style="stroke:#000000; stroke-linecap:round; stroke-linejoin:round; stroke-width:4; stroke-opacity:1; fill:none" points="249.542,1345.52 268.44,1345.52 "/>
<polyline clip-path="url(#clip970)" style="stroke:#000000; stroke-linecap:round; stroke-linejoin:round; stroke-width:4; stroke-opacity:1; fill:none" points="249.542,993.078 268.44,993.078 "/>
<polyline clip-path="url(#clip970)" style="stroke:#000000; stroke-linecap:round; stroke-linejoin:round; stroke-width:4; stroke-opacity:1; fill:none" points="249.542,640.639 268.44,640.639 "/>
<polyline clip-path="url(#clip970)" style="stroke:#000000; stroke-linecap:round; stroke-linejoin:round; stroke-width:4; stroke-opacity:1; fill:none" points="249.542,288.2 268.44,288.2 "/>
<path clip-path="url(#clip970)" d="M127.2 1331.32 Q123.589 1331.32 121.76 1334.88 Q119.955 1338.42 119.955 1345.55 Q119.955 1352.66 121.76 1356.22 Q123.589 1359.76 127.2 1359.76 Q130.834 1359.76 132.64 1356.22 Q134.468 1352.66 134.468 1345.55 Q134.468 1338.42 132.64 1334.88 Q130.834 1331.32 127.2 1331.32 M127.2 1327.61 Q133.01 1327.61 136.066 1332.22 Q139.144 1336.8 139.144 1345.55 Q139.144 1354.28 136.066 1358.88 Q133.01 1363.47 127.2 1363.47 Q121.39 1363.47 118.311 1358.88 Q115.256 1354.28 115.256 1345.55 Q115.256 1336.8 118.311 1332.22 Q121.39 1327.61 127.2 1327.61 Z" fill="#000000" fill-rule="nonzero" fill-opacity="1" /><path clip-path="url(#clip970)" d="M147.362 1356.92 L152.246 1356.92 L152.246 1362.8 L147.362 1362.8 L147.362 1356.92 Z" fill="#000000" fill-rule="nonzero" fill-opacity="1" /><path clip-path="url(#clip970)" d="M163.241 1358.86 L170.88 1358.86 L170.88 1332.5 L162.57 1334.16 L162.57 1329.9 L170.834 1328.24 L175.51 1328.24 L175.51 1358.86 L183.149 1358.86 L183.149 1362.8 L163.241 1362.8 L163.241 1358.86 Z" fill="#000000" fill-rule="nonzero" fill-opacity="1" /><path clip-path="url(#clip970)" d="M192.639 1328.24 L210.996 1328.24 L210.996 1332.17 L196.922 1332.17 L196.922 1340.64 Q197.94 1340.3 198.959 1340.13 Q199.977 1339.95 200.996 1339.95 Q206.783 1339.95 210.162 1343.12 Q213.542 1346.29 213.542 1351.71 Q213.542 1357.29 210.07 1360.39 Q206.598 1363.47 200.278 1363.47 Q198.102 1363.47 195.834 1363.1 Q193.588 1362.73 191.181 1361.99 L191.181 1357.29 Q193.264 1358.42 195.487 1358.98 Q197.709 1359.53 200.186 1359.53 Q204.19 1359.53 206.528 1357.43 Q208.866 1355.32 208.866 1351.71 Q208.866 1348.1 206.528 1345.99 Q204.19 1343.88 200.186 1343.88 Q198.311 1343.88 196.436 1344.3 Q194.584 1344.72 192.639 1345.6 L192.639 1328.24 Z" fill="#000000" fill-rule="nonzero" fill-opacity="1" /><path clip-path="url(#clip970)" d="M126.205 978.876 Q122.593 978.876 120.765 982.441 Q118.959 985.983 118.959 993.112 Q118.959 1000.22 120.765 1003.78 Q122.593 1007.33 126.205 1007.33 Q129.839 1007.33 131.644 1003.78 Q133.473 1000.22 133.473 993.112 Q133.473 985.983 131.644 982.441 Q129.839 978.876 126.205 978.876 M126.205 975.173 Q132.015 975.173 135.07 979.779 Q138.149 984.362 138.149 993.112 Q138.149 1001.84 135.07 1006.45 Q132.015 1011.03 126.205 1011.03 Q120.394 1011.03 117.316 1006.45 Q114.26 1001.84 114.26 993.112 Q114.26 984.362 117.316 979.779 Q120.394 975.173 126.205 975.173 Z" fill="#000000" fill-rule="nonzero" fill-opacity="1" /><path clip-path="url(#clip970)" d="M146.366 1004.48 L151.251 1004.48 L151.251 1010.36 L146.366 1010.36 L146.366 1004.48 Z" fill="#000000" fill-rule="nonzero" fill-opacity="1" /><path clip-path="url(#clip970)" d="M165.464 1006.42 L181.783 1006.42 L181.783 1010.36 L159.839 1010.36 L159.839 1006.42 Q162.501 1003.67 167.084 999.038 Q171.69 994.386 172.871 993.043 Q175.116 990.52 175.996 988.784 Q176.899 987.025 176.899 985.335 Q176.899 982.58 174.954 980.844 Q173.033 979.108 169.931 979.108 Q167.732 979.108 165.278 979.872 Q162.848 980.636 160.07 982.187 L160.07 977.464 Q162.894 976.33 165.348 975.751 Q167.802 975.173 169.839 975.173 Q175.209 975.173 178.403 977.858 Q181.598 980.543 181.598 985.034 Q181.598 987.163 180.788 989.085 Q180.001 990.983 177.894 993.575 Q177.315 994.247 174.214 997.464 Q171.112 1000.66 165.464 1006.42 Z" fill="#000000" fill-rule="nonzero" fill-opacity="1" /><path clip-path="url(#clip970)" d="M201.598 978.876 Q197.987 978.876 196.158 982.441 Q194.352 985.983 194.352 993.112 Q194.352 1000.22 196.158 1003.78 Q197.987 1007.33 201.598 1007.33 Q205.232 1007.33 207.037 1003.78 Q208.866 1000.22 208.866 993.112 Q208.866 985.983 207.037 982.441 Q205.232 978.876 201.598 978.876 M201.598 975.173 Q207.408 975.173 210.463 979.779 Q213.542 984.362 213.542 993.112 Q213.542 1001.84 210.463 1006.45 Q207.408 1011.03 201.598 1011.03 Q195.787 1011.03 192.709 1006.45 Q189.653 1001.84 189.653 993.112 Q189.653 984.362 192.709 979.779 Q195.787 975.173 201.598 975.173 Z" fill="#000000" fill-rule="nonzero" fill-opacity="1" /><path clip-path="url(#clip970)" d="M127.2 626.437 Q123.589 626.437 121.76 630.002 Q119.955 633.544 119.955 640.673 Q119.955 647.78 121.76 651.345 Q123.589 654.886 127.2 654.886 Q130.834 654.886 132.64 651.345 Q134.468 647.78 134.468 640.673 Q134.468 633.544 132.64 630.002 Q130.834 626.437 127.2 626.437 M127.2 622.734 Q133.01 622.734 136.066 627.34 Q139.144 631.923 139.144 640.673 Q139.144 649.4 136.066 654.007 Q133.01 658.59 127.2 658.59 Q121.39 658.59 118.311 654.007 Q115.256 649.4 115.256 640.673 Q115.256 631.923 118.311 627.34 Q121.39 622.734 127.2 622.734 Z" fill="#000000" fill-rule="nonzero" fill-opacity="1" /><path clip-path="url(#clip970)" d="M147.362 652.039 L152.246 652.039 L152.246 657.919 L147.362 657.919 L147.362 652.039 Z" fill="#000000" fill-rule="nonzero" fill-opacity="1" /><path clip-path="url(#clip970)" d="M166.459 653.984 L182.778 653.984 L182.778 657.919 L160.834 657.919 L160.834 653.984 Q163.496 651.229 168.079 646.599 Q172.686 641.947 173.866 640.604 Q176.112 638.081 176.991 636.345 Q177.894 634.586 177.894 632.896 Q177.894 630.141 175.95 628.405 Q174.028 626.669 170.927 626.669 Q168.727 626.669 166.274 627.433 Q163.843 628.197 161.065 629.748 L161.065 625.025 Q163.89 623.891 166.343 623.312 Q168.797 622.734 170.834 622.734 Q176.204 622.734 179.399 625.419 Q182.593 628.104 182.593 632.595 Q182.593 634.724 181.783 636.646 Q180.996 638.544 178.889 641.136 Q178.311 641.808 175.209 645.025 Q172.107 648.22 166.459 653.984 Z" fill="#000000" fill-rule="nonzero" fill-opacity="1" /><path clip-path="url(#clip970)" d="M192.639 623.359 L210.996 623.359 L210.996 627.294 L196.922 627.294 L196.922 635.766 Q197.94 635.419 198.959 635.257 Q199.977 635.072 200.996 635.072 Q206.783 635.072 210.162 638.243 Q213.542 641.414 213.542 646.831 Q213.542 652.409 210.07 655.511 Q206.598 658.59 200.278 658.59 Q198.102 658.59 195.834 658.22 Q193.588 657.849 191.181 657.109 L191.181 652.409 Q193.264 653.544 195.487 654.099 Q197.709 654.655 200.186 654.655 Q204.19 654.655 206.528 652.548 Q208.866 650.442 208.866 646.831 Q208.866 643.22 206.528 641.113 Q204.19 639.007 200.186 639.007 Q198.311 639.007 196.436 639.423 Q194.584 639.84 192.639 640.72 L192.639 623.359 Z" fill="#000000" fill-rule="nonzero" fill-opacity="1" /><path clip-path="url(#clip970)" d="M126.205 273.998 Q122.593 273.998 120.765 277.563 Q118.959 281.105 118.959 288.234 Q118.959 295.341 120.765 298.906 Q122.593 302.447 126.205 302.447 Q129.839 302.447 131.644 298.906 Q133.473 295.341 133.473 288.234 Q133.473 281.105 131.644 277.563 Q129.839 273.998 126.205 273.998 M126.205 270.295 Q132.015 270.295 135.07 274.901 Q138.149 279.485 138.149 288.234 Q138.149 296.961 135.07 301.568 Q132.015 306.151 126.205 306.151 Q120.394 306.151 117.316 301.568 Q114.26 296.961 114.26 288.234 Q114.26 279.485 117.316 274.901 Q120.394 270.295 126.205 270.295 Z" fill="#000000" fill-rule="nonzero" fill-opacity="1" /><path clip-path="url(#clip970)" d="M146.366 299.6 L151.251 299.6 L151.251 305.48 L146.366 305.48 L146.366 299.6 Z" fill="#000000" fill-rule="nonzero" fill-opacity="1" /><path clip-path="url(#clip970)" d="M175.602 286.846 Q178.959 287.563 180.834 289.832 Q182.732 292.1 182.732 295.433 Q182.732 300.549 179.214 303.35 Q175.695 306.151 169.214 306.151 Q167.038 306.151 164.723 305.711 Q162.431 305.295 159.978 304.438 L159.978 299.924 Q161.922 301.058 164.237 301.637 Q166.552 302.216 169.075 302.216 Q173.473 302.216 175.764 300.48 Q178.079 298.744 178.079 295.433 Q178.079 292.378 175.926 290.665 Q173.797 288.929 169.977 288.929 L165.95 288.929 L165.95 285.086 L170.163 285.086 Q173.612 285.086 175.44 283.721 Q177.269 282.332 177.269 279.739 Q177.269 277.077 175.371 275.665 Q173.496 274.23 169.977 274.23 Q168.056 274.23 165.857 274.647 Q163.658 275.063 161.019 275.943 L161.019 271.776 Q163.681 271.035 165.996 270.665 Q168.334 270.295 170.394 270.295 Q175.718 270.295 178.82 272.725 Q181.922 275.133 181.922 279.253 Q181.922 282.123 180.278 284.114 Q178.635 286.082 175.602 286.846 Z" fill="#000000" fill-rule="nonzero" fill-opacity="1" /><path clip-path="url(#clip970)" d="M201.598 273.998 Q197.987 273.998 196.158 277.563 Q194.352 281.105 194.352 288.234 Q194.352 295.341 196.158 298.906 Q197.987 302.447 201.598 302.447 Q205.232 302.447 207.037 298.906 Q208.866 295.341 208.866 288.234 Q208.866 281.105 207.037 277.563 Q205.232 273.998 201.598 273.998 M201.598 270.295 Q207.408 270.295 210.463 274.901 Q213.542 279.485 213.542 288.234 Q213.542 296.961 210.463 301.568 Q207.408 306.151 201.598 306.151 Q195.787 306.151 192.709 301.568 Q189.653 296.961 189.653 288.234 Q189.653 279.485 192.709 274.901 Q195.787 270.295 201.598 270.295 Z" fill="#000000" fill-rule="nonzero" fill-opacity="1" /><path clip-path="url(#clip970)" d="M16.4842 837.445 L16.4842 827.864 L48.8219 815.738 L16.4842 803.547 L16.4842 793.967 L64.0042 793.967 L64.0042 800.237 L22.277 800.237 L54.8694 812.491 L54.8694 818.952 L22.277 831.206 L64.0042 831.206 L64.0042 837.445 L16.4842 837.445 Z" fill="#000000" fill-rule="nonzero" fill-opacity="1" /><path clip-path="url(#clip970)" d="M18.0438 752.717 L24.314 752.717 Q22.5634 756.377 21.704 759.624 Q20.8447 762.87 20.8447 765.894 Q20.8447 771.146 22.8817 774.01 Q24.9187 776.843 28.6745 776.843 Q31.8255 776.843 33.4488 774.965 Q35.0402 773.055 36.0269 767.772 L36.8226 763.889 Q38.1912 756.696 41.6605 753.29 Q45.098 749.852 50.8908 749.852 Q57.7976 749.852 61.3624 754.499 Q64.9272 759.115 64.9272 768.058 Q64.9272 771.432 64.1633 775.252 Q63.3994 779.039 61.9035 783.113 L55.2831 783.113 Q57.4793 779.198 58.5933 775.443 Q59.7073 771.687 59.7073 768.058 Q59.7073 762.552 57.543 759.56 Q55.3786 756.568 51.3682 756.568 Q47.8671 756.568 45.8937 758.733 Q43.9204 760.865 42.9337 765.767 L42.1698 769.682 Q40.7375 776.875 37.682 780.09 Q34.6264 783.304 29.1837 783.304 Q22.8817 783.304 19.2532 778.88 Q15.6248 774.424 15.6248 766.626 Q15.6248 763.284 16.2295 759.815 Q16.8343 756.345 18.0438 752.717 Z" fill="#000000" fill-rule="nonzero" fill-opacity="1" /><path clip-path="url(#clip970)" d="M16.4842 739.826 L16.4842 709.78 L21.895 709.78 L21.895 733.397 L35.9632 733.397 L35.9632 710.767 L41.3741 710.767 L41.3741 733.397 L58.5933 733.397 L58.5933 709.207 L64.0042 709.207 L64.0042 739.826 L16.4842 739.826 Z" fill="#000000" fill-rule="nonzero" fill-opacity="1" /><path clip-path="url(#clip970)" d="M892.352 12.096 L904.545 12.096 L919.979 53.2532 L935.494 12.096 L947.687 12.096 L947.687 72.576 L939.707 72.576 L939.707 19.4686 L924.111 60.9499 L915.888 60.9499 L900.292 19.4686 L900.292 72.576 L892.352 72.576 L892.352 12.096 Z" fill="#000000" fill-rule="nonzero" fill-opacity="1" /><path clip-path="url(#clip970)" d="M1002.42 48.0275 L1002.42 51.6733 L968.144 51.6733 Q968.63 59.3701 972.762 63.421 Q976.935 67.4314 984.348 67.4314 Q988.642 67.4314 992.652 66.3781 Q996.703 65.3249 1000.67 63.2184 L1000.67 70.267 Q996.663 71.9684 992.45 72.8596 Q988.237 73.7508 983.902 73.7508 Q973.046 73.7508 966.686 67.4314 Q960.367 61.1119 960.367 50.3365 Q960.367 39.1965 966.362 32.6746 Q972.398 26.1121 982.606 26.1121 Q991.761 26.1121 997.068 32.0264 Q1002.42 37.9003 1002.42 48.0275 M994.961 45.84 Q994.88 39.7232 991.518 36.0774 Q988.196 32.4315 982.687 32.4315 Q976.449 32.4315 972.681 35.9558 Q968.955 39.4801 968.387 45.8805 L994.961 45.84 Z" fill="#000000" fill-rule="nonzero" fill-opacity="1" /><path clip-path="url(#clip970)" d="M1035.27 49.7694 Q1026.23 49.7694 1022.75 51.8354 Q1019.27 53.9013 1019.27 58.8839 Q1019.27 62.8538 1021.86 65.2034 Q1024.49 67.5124 1028.99 67.5124 Q1035.19 67.5124 1038.91 63.1374 Q1042.68 58.7219 1042.68 51.4303 L1042.68 49.7694 L1035.27 49.7694 M1050.13 46.6907 L1050.13 72.576 L1042.68 72.576 L1042.68 65.6895 Q1040.13 69.8214 1036.32 71.8063 Q1032.51 73.7508 1027 73.7508 Q1020.04 73.7508 1015.9 69.8619 Q1011.81 65.9325 1011.81 59.3701 Q1011.81 51.7138 1016.92 47.825 Q1022.06 43.9361 1032.23 43.9361 L1042.68 43.9361 L1042.68 43.2069 Q1042.68 38.0623 1039.28 35.2672 Q1035.92 32.4315 1029.8 32.4315 Q1025.91 32.4315 1022.22 33.3632 Q1018.54 34.295 1015.13 36.1584 L1015.13 29.2718 Q1019.23 27.692 1023.07 26.9223 Q1026.92 26.1121 1030.57 26.1121 Q1040.41 26.1121 1045.27 31.2163 Q1050.13 36.3204 1050.13 46.6907 Z" fill="#000000" fill-rule="nonzero" fill-opacity="1" /><path clip-path="url(#clip970)" d="M1103.2 45.1919 L1103.2 72.576 L1095.75 72.576 L1095.75 45.4349 Q1095.75 38.994 1093.24 35.7938 Q1090.72 32.5936 1085.7 32.5936 Q1079.67 32.5936 1076.18 36.4419 Q1072.7 40.2903 1072.7 46.9338 L1072.7 72.576 L1065.2 72.576 L1065.2 27.2059 L1072.7 27.2059 L1072.7 34.2544 Q1075.37 30.163 1078.98 28.1376 Q1082.62 26.1121 1087.36 26.1121 Q1095.18 26.1121 1099.19 30.9732 Q1103.2 35.7938 1103.2 45.1919 Z" fill="#000000" fill-rule="nonzero" fill-opacity="1" /><path clip-path="url(#clip970)" d="M1181.02 14.0809 L1181.02 22.0612 Q1176.36 19.8332 1172.23 18.7395 Q1168.1 17.6457 1164.25 17.6457 Q1157.56 17.6457 1153.92 20.2383 Q1150.31 22.8309 1150.31 27.611 Q1150.31 31.6214 1152.7 33.6873 Q1155.13 35.7128 1161.86 36.9686 L1166.8 37.9813 Q1175.96 39.7232 1180.29 44.1387 Q1184.67 48.5136 1184.67 55.8863 Q1184.67 64.6767 1178.75 69.2137 Q1172.88 73.7508 1161.49 73.7508 Q1157.2 73.7508 1152.34 72.7785 Q1147.52 71.8063 1142.33 69.9024 L1142.33 61.4765 Q1147.32 64.2716 1152.1 65.6895 Q1156.88 67.1073 1161.49 67.1073 Q1168.5 67.1073 1172.31 64.3527 Q1176.12 61.598 1176.12 56.4939 Q1176.12 52.0379 1173.36 49.5264 Q1170.65 47.0148 1164.41 45.759 L1159.43 44.7868 Q1150.27 42.9639 1146.18 39.075 Q1142.09 35.1862 1142.09 28.2591 Q1142.09 20.2383 1147.72 15.6203 Q1153.39 11.0023 1163.32 11.0023 Q1167.57 11.0023 1171.99 11.7719 Q1176.4 12.5416 1181.02 14.0809 Z" fill="#000000" fill-rule="nonzero" fill-opacity="1" /><path clip-path="url(#clip970)" d="M1201.56 49.9314 Q1201.56 58.1548 1204.92 62.8538 Q1208.32 67.5124 1214.24 67.5124 Q1220.15 67.5124 1223.55 62.8538 Q1226.96 58.1548 1226.96 49.9314 Q1226.96 41.7081 1223.55 37.0496 Q1220.15 32.3505 1214.24 32.3505 Q1208.32 32.3505 1204.92 37.0496 Q1201.56 41.7081 1201.56 49.9314 M1226.96 65.7705 Q1224.61 69.8214 1221 71.8063 Q1217.44 73.7508 1212.41 73.7508 Q1204.19 73.7508 1199.01 67.1883 Q1193.86 60.6258 1193.86 49.9314 Q1193.86 39.2371 1199.01 32.6746 Q1204.19 26.1121 1212.41 26.1121 Q1217.44 26.1121 1221 28.0971 Q1224.61 30.0415 1226.96 34.0924 L1226.96 27.2059 L1234.41 27.2059 L1234.41 89.8329 L1226.96 89.8329 L1226.96 65.7705 Z" fill="#000000" fill-rule="nonzero" fill-opacity="1" /><path clip-path="url(#clip970)" d="M1248.99 54.671 L1248.99 27.2059 L1256.45 27.2059 L1256.45 54.3874 Q1256.45 60.8284 1258.96 64.0691 Q1261.47 67.2693 1266.49 67.2693 Q1272.53 67.2693 1276.01 63.421 Q1279.54 59.5726 1279.54 52.9291 L1279.54 27.2059 L1286.99 27.2059 L1286.99 72.576 L1279.54 72.576 L1279.54 65.6084 Q1276.82 69.7404 1273.22 71.7658 Q1269.65 73.7508 1264.91 73.7508 Q1257.1 73.7508 1253.04 68.8897 Q1248.99 64.0286 1248.99 54.671 M1267.75 26.1121 L1267.75 26.1121 Z" fill="#000000" fill-rule="nonzero" fill-opacity="1" /><path clip-path="url(#clip970)" d="M1322.96 49.7694 Q1313.93 49.7694 1310.45 51.8354 Q1306.96 53.9013 1306.96 58.8839 Q1306.96 62.8538 1309.55 65.2034 Q1312.19 67.5124 1316.68 67.5124 Q1322.88 67.5124 1326.61 63.1374 Q1330.38 58.7219 1330.38 51.4303 L1330.38 49.7694 L1322.96 49.7694 M1337.83 46.6907 L1337.83 72.576 L1330.38 72.576 L1330.38 65.6895 Q1327.82 69.8214 1324.02 71.8063 Q1320.21 73.7508 1314.7 73.7508 Q1307.73 73.7508 1303.6 69.8619 Q1299.51 65.9325 1299.51 59.3701 Q1299.51 51.7138 1304.61 47.825 Q1309.76 43.9361 1319.92 43.9361 L1330.38 43.9361 L1330.38 43.2069 Q1330.38 38.0623 1326.97 35.2672 Q1323.61 32.4315 1317.49 32.4315 Q1313.61 32.4315 1309.92 33.3632 Q1306.23 34.295 1302.83 36.1584 L1302.83 29.2718 Q1306.92 27.692 1310.77 26.9223 Q1314.62 26.1121 1318.26 26.1121 Q1328.11 26.1121 1332.97 31.2163 Q1337.83 36.3204 1337.83 46.6907 Z" fill="#000000" fill-rule="nonzero" fill-opacity="1" /><path clip-path="url(#clip970)" d="M1379.47 34.1734 Q1378.22 33.4443 1376.72 33.1202 Q1375.26 32.7556 1373.48 32.7556 Q1367.16 32.7556 1363.76 36.8875 Q1360.39 40.9789 1360.39 48.6757 L1360.39 72.576 L1352.9 72.576 L1352.9 27.2059 L1360.39 27.2059 L1360.39 34.2544 Q1362.74 30.1225 1366.51 28.1376 Q1370.28 26.1121 1375.67 26.1121 Q1376.44 26.1121 1377.37 26.2337 Q1378.3 26.3147 1379.43 26.5172 L1379.47 34.1734 Z" fill="#000000" fill-rule="nonzero" fill-opacity="1" /><path clip-path="url(#clip970)" d="M1424.28 48.0275 L1424.28 51.6733 L1390.01 51.6733 Q1390.49 59.3701 1394.62 63.421 Q1398.8 67.4314 1406.21 67.4314 Q1410.5 67.4314 1414.51 66.3781 Q1418.56 65.3249 1422.53 63.2184 L1422.53 70.267 Q1418.52 71.9684 1414.31 72.8596 Q1410.1 73.7508 1405.76 73.7508 Q1394.91 73.7508 1388.55 67.4314 Q1382.23 61.1119 1382.23 50.3365 Q1382.23 39.1965 1388.22 32.6746 Q1394.26 26.1121 1404.47 26.1121 Q1413.62 26.1121 1418.93 32.0264 Q1424.28 37.9003 1424.28 48.0275 M1416.82 45.84 Q1416.74 39.7232 1413.38 36.0774 Q1410.06 32.4315 1404.55 32.4315 Q1398.31 32.4315 1394.54 35.9558 Q1390.82 39.4801 1390.25 45.8805 L1416.82 45.84 Z" fill="#000000" fill-rule="nonzero" fill-opacity="1" /><path clip-path="url(#clip970)" d="M1466.37 34.0924 L1466.37 9.54393 L1473.82 9.54393 L1473.82 72.576 L1466.37 72.576 L1466.37 65.7705 Q1464.02 69.8214 1460.41 71.8063 Q1456.85 73.7508 1451.82 73.7508 Q1443.6 73.7508 1438.41 67.1883 Q1433.27 60.6258 1433.27 49.9314 Q1433.27 39.2371 1438.41 32.6746 Q1443.6 26.1121 1451.82 26.1121 Q1456.85 26.1121 1460.41 28.0971 Q1464.02 30.0415 1466.37 34.0924 M1440.97 49.9314 Q1440.97 58.1548 1444.33 62.8538 Q1447.73 67.5124 1453.65 67.5124 Q1459.56 67.5124 1462.96 62.8538 Q1466.37 58.1548 1466.37 49.9314 Q1466.37 41.7081 1462.96 37.0496 Q1459.56 32.3505 1453.65 32.3505 Q1447.73 32.3505 1444.33 37.0496 Q1440.97 41.7081 1440.97 49.9314 Z" fill="#000000" fill-rule="nonzero" fill-opacity="1" /><path clip-path="url(#clip970)" d="M1515.87 12.096 L1554.11 12.096 L1554.11 18.9825 L1524.05 18.9825 L1524.05 36.8875 L1552.85 36.8875 L1552.85 43.7741 L1524.05 43.7741 L1524.05 65.6895 L1554.84 65.6895 L1554.84 72.576 L1515.87 72.576 L1515.87 12.096 Z" fill="#000000" fill-rule="nonzero" fill-opacity="1" /><path clip-path="url(#clip970)" d="M1594.25 34.1734 Q1593 33.4443 1591.5 33.1202 Q1590.04 32.7556 1588.26 32.7556 Q1581.94 32.7556 1578.53 36.8875 Q1575.17 40.9789 1575.17 48.6757 L1575.17 72.576 L1567.68 72.576 L1567.68 27.2059 L1575.17 27.2059 L1575.17 34.2544 Q1577.52 30.1225 1581.29 28.1376 Q1585.06 26.1121 1590.44 26.1121 Q1591.21 26.1121 1592.15 26.2337 Q1593.08 26.3147 1594.21 26.5172 L1594.25 34.1734 Z" fill="#000000" fill-rule="nonzero" fill-opacity="1" /><path clip-path="url(#clip970)" d="M1626.9 34.1734 Q1625.65 33.4443 1624.15 33.1202 Q1622.69 32.7556 1620.91 32.7556 Q1614.59 32.7556 1611.18 36.8875 Q1607.82 40.9789 1607.82 48.6757 L1607.82 72.576 L1600.33 72.576 L1600.33 27.2059 L1607.82 27.2059 L1607.82 34.2544 Q1610.17 30.1225 1613.94 28.1376 Q1617.71 26.1121 1623.09 26.1121 Q1623.86 26.1121 1624.8 26.2337 Q1625.73 26.3147 1626.86 26.5172 L1626.9 34.1734 Z" fill="#000000" fill-rule="nonzero" fill-opacity="1" /><path clip-path="url(#clip970)" d="M1650.48 32.4315 Q1644.48 32.4315 1641 37.1306 Q1637.52 41.7891 1637.52 49.9314 Q1637.52 58.0738 1640.96 62.7728 Q1644.44 67.4314 1650.48 67.4314 Q1656.43 67.4314 1659.92 62.7323 Q1663.4 58.0333 1663.4 49.9314 Q1663.4 41.8701 1659.92 37.1711 Q1656.43 32.4315 1650.48 32.4315 M1650.48 26.1121 Q1660.2 26.1121 1665.75 32.4315 Q1671.3 38.7509 1671.3 49.9314 Q1671.3 61.0714 1665.75 67.4314 Q1660.2 73.7508 1650.48 73.7508 Q1640.72 73.7508 1635.17 67.4314 Q1629.66 61.0714 1629.66 49.9314 Q1629.66 38.7509 1635.17 32.4315 Q1640.72 26.1121 1650.48 26.1121 Z" fill="#000000" fill-rule="nonzero" fill-opacity="1" /><path clip-path="url(#clip970)" d="M1709.95 34.1734 Q1708.69 33.4443 1707.19 33.1202 Q1705.73 32.7556 1703.95 32.7556 Q1697.63 32.7556 1694.23 36.8875 Q1690.87 40.9789 1690.87 48.6757 L1690.87 72.576 L1683.37 72.576 L1683.37 27.2059 L1690.87 27.2059 L1690.87 34.2544 Q1693.22 30.1225 1696.98 28.1376 Q1700.75 26.1121 1706.14 26.1121 Q1706.91 26.1121 1707.84 26.2337 Q1708.77 26.3147 1709.91 26.5172 L1709.95 34.1734 Z" fill="#000000" fill-rule="nonzero" fill-opacity="1" /><polyline clip-path="url(#clip972)" style="stroke:#009af9; stroke-linecap:round; stroke-linejoin:round; stroke-width:4; stroke-opacity:1; fill:none" points="309.067,883.589 970.455,1386.4 1631.84,160.256 2293.23,1292.85 "/>
<polyline clip-path="url(#clip972)" style="stroke:#e26f46; stroke-linecap:round; stroke-linejoin:round; stroke-width:4; stroke-opacity:1; fill:none" points="309.067,727.211 970.455,955.829 1631.84,373.408 2293.23,785.202 "/>
<polyline clip-path="url(#clip972)" style="stroke:#3da44d; stroke-linecap:round; stroke-linejoin:round; stroke-width:4; stroke-opacity:1; fill:none" points="309.067,769.97 970.455,968.961 1631.84,402.079 2293.23,749.969 "/>
<path clip-path="url(#clip970)" d="M1958.12 374.156 L2282.65 374.156 L2282.65 166.796 L1958.12 166.796  Z" fill="#ffffff" fill-rule="evenodd" fill-opacity="1"/>
<polyline clip-path="url(#clip970)" style="stroke:#000000; stroke-linecap:round; stroke-linejoin:round; stroke-width:4; stroke-opacity:1; fill:none" points="1958.12,374.156 2282.65,374.156 2282.65,166.796 1958.12,166.796 1958.12,374.156 "/>
<polyline clip-path="url(#clip970)" style="stroke:#009af9; stroke-linecap:round; stroke-linejoin:round; stroke-width:4; stroke-opacity:1; fill:none" points="1981.48,218.636 2121.7,218.636 "/>
<path clip-path="url(#clip970)" d="M2152.47 202.629 L2152.47 209.99 L2161.25 209.99 L2161.25 213.3 L2152.47 213.3 L2152.47 227.374 Q2152.47 230.545 2153.33 231.448 Q2154.21 232.351 2156.87 232.351 L2161.25 232.351 L2161.25 235.916 L2156.87 235.916 Q2151.94 235.916 2150.07 234.087 Q2148.19 232.235 2148.19 227.374 L2148.19 213.3 L2145.07 213.3 L2145.07 209.99 L2148.19 209.99 L2148.19 202.629 L2152.47 202.629 Z" fill="#000000" fill-rule="nonzero" fill-opacity="1" /><path clip-path="url(#clip970)" d="M2167.41 214.388 L2197.08 214.388 L2197.08 218.277 L2167.41 218.277 L2167.41 214.388 M2167.41 223.832 L2197.08 223.832 L2197.08 227.768 L2167.41 227.768 L2167.41 223.832 Z" fill="#000000" fill-rule="nonzero" fill-opacity="1" /><path clip-path="url(#clip970)" d="M2207.98 231.981 L2215.62 231.981 L2215.62 205.615 L2207.31 207.282 L2207.31 203.022 L2215.58 201.356 L2220.25 201.356 L2220.25 231.981 L2227.89 231.981 L2227.89 235.916 L2207.98 235.916 L2207.98 231.981 Z" fill="#000000" fill-rule="nonzero" fill-opacity="1" /><polyline clip-path="url(#clip970)" style="stroke:#e26f46; stroke-linecap:round; stroke-linejoin:round; stroke-width:4; stroke-opacity:1; fill:none" points="1981.48,270.476 2121.7,270.476 "/>
<path clip-path="url(#clip970)" d="M2152.47 254.469 L2152.47 261.83 L2161.25 261.83 L2161.25 265.14 L2152.47 265.14 L2152.47 279.214 Q2152.47 282.385 2153.33 283.288 Q2154.21 284.191 2156.87 284.191 L2161.25 284.191 L2161.25 287.756 L2156.87 287.756 Q2151.94 287.756 2150.07 285.927 Q2148.19 284.075 2148.19 279.214 L2148.19 265.14 L2145.07 265.14 L2145.07 261.83 L2148.19 261.83 L2148.19 254.469 L2152.47 254.469 Z" fill="#000000" fill-rule="nonzero" fill-opacity="1" /><path clip-path="url(#clip970)" d="M2167.41 266.228 L2197.08 266.228 L2197.08 270.117 L2167.41 270.117 L2167.41 266.228 M2167.41 275.672 L2197.08 275.672 L2197.08 279.608 L2167.41 279.608 L2167.41 275.672 Z" fill="#000000" fill-rule="nonzero" fill-opacity="1" /><path clip-path="url(#clip970)" d="M2207.22 253.196 L2225.58 253.196 L2225.58 257.131 L2211.5 257.131 L2211.5 265.603 Q2212.52 265.256 2213.54 265.094 Q2214.56 264.909 2215.58 264.909 Q2221.36 264.909 2224.74 268.08 Q2228.12 271.251 2228.12 276.668 Q2228.12 282.246 2224.65 285.348 Q2221.18 288.427 2214.86 288.427 Q2212.68 288.427 2210.41 288.057 Q2208.17 287.686 2205.76 286.946 L2205.76 282.246 Q2207.84 283.381 2210.07 283.936 Q2212.29 284.492 2214.77 284.492 Q2218.77 284.492 2221.11 282.385 Q2223.45 280.279 2223.45 276.668 Q2223.45 273.057 2221.11 270.95 Q2218.77 268.844 2214.77 268.844 Q2212.89 268.844 2211.02 269.26 Q2209.16 269.677 2207.22 270.557 L2207.22 253.196 Z" fill="#000000" fill-rule="nonzero" fill-opacity="1" /><polyline clip-path="url(#clip970)" style="stroke:#3da44d; stroke-linecap:round; stroke-linejoin:round; stroke-width:4; stroke-opacity:1; fill:none" points="1981.48,322.316 2121.7,322.316 "/>
<path clip-path="url(#clip970)" d="M2152.47 306.309 L2152.47 313.67 L2161.25 313.67 L2161.25 316.98 L2152.47 316.98 L2152.47 331.054 Q2152.47 334.225 2153.33 335.128 Q2154.21 336.031 2156.87 336.031 L2161.25 336.031 L2161.25 339.596 L2156.87 339.596 Q2151.94 339.596 2150.07 337.767 Q2148.19 335.915 2148.19 331.054 L2148.19 316.98 L2145.07 316.98 L2145.07 313.67 L2148.19 313.67 L2148.19 306.309 L2152.47 306.309 Z" fill="#000000" fill-rule="nonzero" fill-opacity="1" /><path clip-path="url(#clip970)" d="M2167.41 318.068 L2197.08 318.068 L2197.08 321.957 L2167.41 321.957 L2167.41 318.068 M2167.41 327.512 L2197.08 327.512 L2197.08 331.448 L2167.41 331.448 L2167.41 327.512 Z" fill="#000000" fill-rule="nonzero" fill-opacity="1" /><path clip-path="url(#clip970)" d="M2207.98 335.661 L2215.62 335.661 L2215.62 309.295 L2207.31 310.962 L2207.31 306.702 L2215.58 305.036 L2220.25 305.036 L2220.25 335.661 L2227.89 335.661 L2227.89 339.596 L2207.98 339.596 L2207.98 335.661 Z" fill="#000000" fill-rule="nonzero" fill-opacity="1" /><path clip-path="url(#clip970)" d="M2247.34 308.114 Q2243.72 308.114 2241.9 311.679 Q2240.09 315.221 2240.09 322.35 Q2240.09 329.457 2241.9 333.022 Q2243.72 336.563 2247.34 336.563 Q2250.97 336.563 2252.78 333.022 Q2254.6 329.457 2254.6 322.35 Q2254.6 315.221 2252.78 311.679 Q2250.97 308.114 2247.34 308.114 M2247.34 304.411 Q2253.15 304.411 2256.2 309.017 Q2259.28 313.6 2259.28 322.35 Q2259.28 331.077 2256.2 335.684 Q2253.15 340.267 2247.34 340.267 Q2241.53 340.267 2238.45 335.684 Q2235.39 331.077 2235.39 322.35 Q2235.39 313.6 2238.45 309.017 Q2241.53 304.411 2247.34 304.411 Z" fill="#000000" fill-rule="nonzero" fill-opacity="1" /></svg>
