<?xml version="1.0" encoding="utf-8"?>
<svg xmlns="http://www.w3.org/2000/svg" xmlns:xlink="http://www.w3.org/1999/xlink" width="600" height="400" viewBox="0 0 2400 1600">
<defs>
  <clipPath id="clip010">
    <rect x="0" y="0" width="2400" height="1600"/>
  </clipPath>
</defs>
<path clip-path="url(#clip010)" d="M0 1600 L2400 1600 L2400 8.88178e-14 L0 8.88178e-14  Z" fill="#ffffff" fill-rule="evenodd" fill-opacity="1"/>
<defs>
  <clipPath id="clip011">
    <rect x="480" y="0" width="1681" height="1600"/>
  </clipPath>
</defs>
<path clip-path="url(#clip010)" d="M219.866 1423.18 L2352.76 1423.18 L2352.76 123.472 L219.866 123.472  Z" fill="#ffffff" fill-rule="evenodd" fill-opacity="1"/>
<defs>
  <clipPath id="clip012">
    <rect x="219" y="123" width="2134" height="1301"/>
  </clipPath>
</defs>
<polyline clip-path="url(#clip012)" style="stroke:#000000; stroke-linecap:round; stroke-linejoin:round; stroke-width:2; stroke-opacity:0.1; fill:none" points="251.069,1423.18 251.069,123.472 "/>
<polyline clip-path="url(#clip012)" style="stroke:#000000; stroke-linecap:round; stroke-linejoin:round; stroke-width:2; stroke-opacity:0.1; fill:none" points="834.304,1423.18 834.304,123.472 "/>
<polyline clip-path="url(#clip012)" style="stroke:#000000; stroke-linecap:round; stroke-linejoin:round; stroke-width:2; stroke-opacity:0.1; fill:none" points="1417.54,1423.18 1417.54,123.472 "/>
<polyline clip-path="url(#clip012)" style="stroke:#000000; stroke-linecap:round; stroke-linejoin:round; stroke-width:2; stroke-opacity:0.1; fill:none" points="2000.77,1423.18 2000.77,123.472 "/>
<polyline clip-path="url(#clip010)" style="stroke:#000000; stroke-linecap:round; stroke-linejoin:round; stroke-width:4; stroke-opacity:1; fill:none" points="219.866,1423.18 2352.76,1423.18 "/>
<polyline clip-path="url(#clip010)" style="stroke:#000000; stroke-linecap:round; stroke-linejoin:round; stroke-width:4; stroke-opacity:1; fill:none" points="251.069,1423.18 251.069,1404.28 "/>
<polyline clip-path="url(#clip010)" style="stroke:#000000; stroke-linecap:round; stroke-linejoin:round; stroke-width:4; stroke-opacity:1; fill:none" points="834.304,1423.18 834.304,1404.28 "/>
<polyline clip-path="url(#clip010)" style="stroke:#000000; stroke-linecap:round; stroke-linejoin:round; stroke-width:4; stroke-opacity:1; fill:none" points="1417.54,1423.18 1417.54,1404.28 "/>
<polyline clip-path="url(#clip010)" style="stroke:#000000; stroke-linecap:round; stroke-linejoin:round; stroke-width:4; stroke-opacity:1; fill:none" points="2000.77,1423.18 2000.77,1404.28 "/>
<path clip-path="url(#clip010)" d="M251.069 1454.1 Q247.458 1454.1 245.63 1457.66 Q243.824 1461.2 243.824 1468.33 Q243.824 1475.44 245.63 1479.01 Q247.458 1482.55 251.069 1482.55 Q254.704 1482.55 256.509 1479.01 Q258.338 1475.44 258.338 1468.33 Q258.338 1461.2 256.509 1457.66 Q254.704 1454.1 251.069 1454.1 M251.069 1450.39 Q256.879 1450.39 259.935 1455 Q263.014 1459.58 263.014 1468.33 Q263.014 1477.06 259.935 1481.67 Q256.879 1486.25 251.069 1486.25 Q245.259 1486.25 242.18 1481.67 Q239.125 1477.06 239.125 1468.33 Q239.125 1459.58 242.18 1455 Q245.259 1450.39 251.069 1450.39 Z" fill="#000000" fill-rule="nonzero" fill-opacity="1" /><path clip-path="url(#clip010)" d="M813.077 1481.64 L829.397 1481.64 L829.397 1485.58 L807.452 1485.58 L807.452 1481.64 Q810.114 1478.89 814.698 1474.26 Q819.304 1469.61 820.485 1468.27 Q822.73 1465.74 823.61 1464.01 Q824.513 1462.25 824.513 1460.56 Q824.513 1457.8 822.568 1456.07 Q820.647 1454.33 817.545 1454.33 Q815.346 1454.33 812.892 1455.09 Q810.462 1455.86 807.684 1457.41 L807.684 1452.69 Q810.508 1451.55 812.962 1450.97 Q815.415 1450.39 817.452 1450.39 Q822.823 1450.39 826.017 1453.08 Q829.212 1455.77 829.212 1460.26 Q829.212 1462.39 828.401 1464.31 Q827.614 1466.2 825.508 1468.8 Q824.929 1469.47 821.827 1472.69 Q818.726 1475.88 813.077 1481.64 Z" fill="#000000" fill-rule="nonzero" fill-opacity="1" /><path clip-path="url(#clip010)" d="M849.211 1454.1 Q845.6 1454.1 843.772 1457.66 Q841.966 1461.2 841.966 1468.33 Q841.966 1475.44 843.772 1479.01 Q845.6 1482.55 849.211 1482.55 Q852.846 1482.55 854.651 1479.01 Q856.48 1475.44 856.48 1468.33 Q856.48 1461.2 854.651 1457.66 Q852.846 1454.1 849.211 1454.1 M849.211 1450.39 Q855.022 1450.39 858.077 1455 Q861.156 1459.58 861.156 1468.33 Q861.156 1477.06 858.077 1481.67 Q855.022 1486.25 849.211 1486.25 Q843.401 1486.25 840.323 1481.67 Q837.267 1477.06 837.267 1468.33 Q837.267 1459.58 840.323 1455 Q843.401 1450.39 849.211 1450.39 Z" fill="#000000" fill-rule="nonzero" fill-opacity="1" /><path clip-path="url(#clip010)" d="M1405.71 1455.09 L1393.9 1473.54 L1405.71 1473.54 L1405.71 1455.09 M1404.48 1451.02 L1410.36 1451.02 L1410.36 1473.54 L1415.29 1473.54 L1415.29 1477.43 L1410.36 1477.43 L1410.36 1485.58 L1405.71 1485.58 L1405.71 1477.43 L1390.11 1477.43 L1390.11 1472.92 L1404.48 1451.02 Z" fill="#000000" fill-rule="nonzero" fill-opacity="1" /><path clip-path="url(#clip010)" d="M1433.02 1454.1 Q1429.41 1454.1 1427.59 1457.66 Q1425.78 1461.2 1425.78 1468.33 Q1425.78 1475.44 1427.59 1479.01 Q1429.41 1482.55 1433.02 1482.55 Q1436.66 1482.55 1438.46 1479.01 Q1440.29 1475.44 1440.29 1468.33 Q1440.29 1461.2 1438.46 1457.66 Q1436.66 1454.1 1433.02 1454.1 M1433.02 1450.39 Q1438.84 1450.39 1441.89 1455 Q1444.97 1459.58 1444.97 1468.33 Q1444.97 1477.06 1441.89 1481.67 Q1438.84 1486.25 1433.02 1486.25 Q1427.21 1486.25 1424.14 1481.67 Q1421.08 1477.06 1421.08 1468.33 Q1421.08 1459.58 1424.14 1455 Q1427.21 1450.39 1433.02 1450.39 Z" fill="#000000" fill-rule="nonzero" fill-opacity="1" /><path clip-path="url(#clip010)" d="M1986.18 1466.44 Q1983.03 1466.44 1981.18 1468.59 Q1979.35 1470.74 1979.35 1474.49 Q1979.35 1478.22 1981.18 1480.39 Q1983.03 1482.55 1986.18 1482.55 Q1989.33 1482.55 1991.16 1480.39 Q1993.01 1478.22 1993.01 1474.49 Q1993.01 1470.74 1991.16 1468.59 Q1989.33 1466.44 1986.18 1466.44 M1995.46 1451.78 L1995.46 1456.04 Q1993.7 1455.21 1991.9 1454.77 Q1990.11 1454.33 1988.35 1454.33 Q1983.73 1454.33 1981.27 1457.45 Q1978.84 1460.58 1978.49 1466.9 Q1979.86 1464.89 1981.92 1463.82 Q1983.98 1462.73 1986.46 1462.73 Q1991.66 1462.73 1994.67 1465.9 Q1997.71 1469.05 1997.71 1474.49 Q1997.71 1479.82 1994.56 1483.03 Q1991.41 1486.25 1986.18 1486.25 Q1980.18 1486.25 1977.01 1481.67 Q1973.84 1477.06 1973.84 1468.33 Q1973.84 1460.14 1977.73 1455.28 Q1981.62 1450.39 1988.17 1450.39 Q1989.93 1450.39 1991.71 1450.74 Q1993.52 1451.09 1995.46 1451.78 Z" fill="#000000" fill-rule="nonzero" fill-opacity="1" /><path clip-path="url(#clip010)" d="M2015.76 1454.1 Q2012.15 1454.1 2010.32 1457.66 Q2008.52 1461.2 2008.52 1468.33 Q2008.52 1475.44 2010.32 1479.01 Q2012.15 1482.55 2015.76 1482.55 Q2019.4 1482.55 2021.2 1479.01 Q2023.03 1475.44 2023.03 1468.33 Q2023.03 1461.2 2021.2 1457.66 Q2019.4 1454.1 2015.76 1454.1 M2015.76 1450.39 Q2021.57 1450.39 2024.63 1455 Q2027.71 1459.58 2027.71 1468.33 Q2027.71 1477.06 2024.63 1481.67 Q2021.57 1486.25 2015.76 1486.25 Q2009.95 1486.25 2006.87 1481.67 Q2003.82 1477.06 2003.82 1468.33 Q2003.82 1459.58 2006.87 1455 Q2009.95 1450.39 2015.76 1450.39 Z" fill="#000000" fill-rule="nonzero" fill-opacity="1" /><path clip-path="url(#clip010)" d="M1150.96 1520.52 L1178.27 1520.52 L1178.27 1525.93 L1157.39 1525.93 L1157.39 1539.94 L1176.23 1539.94 L1176.23 1545.35 L1157.39 1545.35 L1157.39 1568.04 L1150.96 1568.04 L1150.96 1520.52 Z" fill="#000000" fill-rule="nonzero" fill-opacity="1" /><path clip-path="url(#clip010)" d="M1215.13 1548.76 L1215.13 1551.62 L1188.2 1551.62 Q1188.58 1557.67 1191.83 1560.85 Q1195.11 1564 1200.93 1564 Q1204.3 1564 1207.46 1563.17 Q1210.64 1562.35 1213.76 1560.69 L1213.76 1566.23 Q1210.61 1567.57 1207.3 1568.27 Q1203.99 1568.97 1200.58 1568.97 Q1192.05 1568.97 1187.05 1564 Q1182.09 1559.04 1182.09 1550.57 Q1182.09 1541.82 1186.8 1536.69 Q1191.54 1531.54 1199.56 1531.54 Q1206.76 1531.54 1210.93 1536.18 Q1215.13 1540.8 1215.13 1548.76 M1209.27 1547.04 Q1209.21 1542.23 1206.56 1539.37 Q1203.95 1536.5 1199.63 1536.5 Q1194.72 1536.5 1191.76 1539.27 Q1188.84 1542.04 1188.39 1547.07 L1209.27 1547.04 Z" fill="#000000" fill-rule="nonzero" fill-opacity="1" /><path clip-path="url(#clip010)" d="M1240.94 1550.12 Q1233.84 1550.12 1231.1 1551.75 Q1228.37 1553.37 1228.37 1557.29 Q1228.37 1560.4 1230.4 1562.25 Q1232.47 1564.07 1236.01 1564.07 Q1240.88 1564.07 1243.8 1560.63 Q1246.76 1557.16 1246.76 1551.43 L1246.76 1550.12 L1240.94 1550.12 M1252.62 1547.71 L1252.62 1568.04 L1246.76 1568.04 L1246.76 1562.63 Q1244.76 1565.88 1241.77 1567.44 Q1238.78 1568.97 1234.45 1568.97 Q1228.97 1568.97 1225.73 1565.91 Q1222.51 1562.82 1222.51 1557.67 Q1222.51 1551.65 1226.52 1548.6 Q1230.56 1545.54 1238.55 1545.54 L1246.76 1545.54 L1246.76 1544.97 Q1246.76 1540.93 1244.09 1538.73 Q1241.45 1536.5 1236.64 1536.5 Q1233.59 1536.5 1230.69 1537.23 Q1227.79 1537.97 1225.12 1539.43 L1225.12 1534.02 Q1228.34 1532.78 1231.36 1532.17 Q1234.38 1531.54 1237.25 1531.54 Q1244.98 1531.54 1248.8 1535.55 Q1252.62 1539.56 1252.62 1547.71 Z" fill="#000000" fill-rule="nonzero" fill-opacity="1" /><path clip-path="url(#clip010)" d="M1270.48 1522.27 L1270.48 1532.4 L1282.54 1532.4 L1282.54 1536.95 L1270.48 1536.95 L1270.48 1556.3 Q1270.48 1560.66 1271.65 1561.9 Q1272.86 1563.14 1276.52 1563.14 L1282.54 1563.14 L1282.54 1568.04 L1276.52 1568.04 Q1269.74 1568.04 1267.17 1565.53 Q1264.59 1562.98 1264.59 1556.3 L1264.59 1536.95 L1260.29 1536.95 L1260.29 1532.4 L1264.59 1532.4 L1264.59 1522.27 L1270.48 1522.27 Z" fill="#000000" fill-rule="nonzero" fill-opacity="1" /><path clip-path="url(#clip010)" d="M1289.64 1553.98 L1289.64 1532.4 L1295.49 1532.4 L1295.49 1553.75 Q1295.49 1558.81 1297.47 1561.36 Q1299.44 1563.87 1303.39 1563.87 Q1308.13 1563.87 1310.87 1560.85 Q1313.64 1557.83 1313.64 1552.61 L1313.64 1532.4 L1319.49 1532.4 L1319.49 1568.04 L1313.64 1568.04 L1313.64 1562.57 Q1311.5 1565.82 1308.67 1567.41 Q1305.87 1568.97 1302.15 1568.97 Q1296 1568.97 1292.82 1565.15 Q1289.64 1561.33 1289.64 1553.98 M1304.37 1531.54 L1304.37 1531.54 Z" fill="#000000" fill-rule="nonzero" fill-opacity="1" /><path clip-path="url(#clip010)" d="M1352.21 1537.87 Q1351.23 1537.3 1350.05 1537.04 Q1348.9 1536.76 1347.5 1536.76 Q1342.54 1536.76 1339.86 1540 Q1337.22 1543.22 1337.22 1549.27 L1337.22 1568.04 L1331.33 1568.04 L1331.33 1532.4 L1337.22 1532.4 L1337.22 1537.93 Q1339.07 1534.69 1342.03 1533.13 Q1344.99 1531.54 1349.22 1531.54 Q1349.82 1531.54 1350.56 1531.63 Q1351.29 1531.7 1352.18 1531.85 L1352.21 1537.87 Z" fill="#000000" fill-rule="nonzero" fill-opacity="1" /><path clip-path="url(#clip010)" d="M1387.41 1548.76 L1387.41 1551.62 L1360.49 1551.62 Q1360.87 1557.67 1364.12 1560.85 Q1367.39 1564 1373.22 1564 Q1376.59 1564 1379.74 1563.17 Q1382.93 1562.35 1386.05 1560.69 L1386.05 1566.23 Q1382.89 1567.57 1379.58 1568.27 Q1376.27 1568.97 1372.87 1568.97 Q1364.34 1568.97 1359.34 1564 Q1354.38 1559.04 1354.38 1550.57 Q1354.38 1541.82 1359.09 1536.69 Q1363.83 1531.54 1371.85 1531.54 Q1379.04 1531.54 1383.21 1536.18 Q1387.41 1540.8 1387.41 1548.76 M1381.56 1547.04 Q1381.49 1542.23 1378.85 1539.37 Q1376.24 1536.5 1371.91 1536.5 Q1367.01 1536.5 1364.05 1539.27 Q1361.12 1542.04 1360.68 1547.07 L1381.56 1547.04 Z" fill="#000000" fill-rule="nonzero" fill-opacity="1" /><path clip-path="url(#clip010)" d="M1419.75 1533.45 L1419.75 1538.98 Q1417.27 1537.71 1414.6 1537.07 Q1411.92 1536.44 1409.06 1536.44 Q1404.7 1536.44 1402.5 1537.77 Q1400.34 1539.11 1400.34 1541.79 Q1400.34 1543.82 1401.9 1545 Q1403.46 1546.15 1408.17 1547.2 L1410.17 1547.64 Q1416.41 1548.98 1419.02 1551.43 Q1421.66 1553.85 1421.66 1558.21 Q1421.66 1563.17 1417.72 1566.07 Q1413.8 1568.97 1406.93 1568.97 Q1404.06 1568.97 1400.94 1568.39 Q1397.85 1567.85 1394.42 1566.74 L1394.42 1560.69 Q1397.66 1562.38 1400.81 1563.24 Q1403.97 1564.07 1407.05 1564.07 Q1411.19 1564.07 1413.42 1562.66 Q1415.65 1561.23 1415.65 1558.65 Q1415.65 1556.27 1414.02 1554.99 Q1412.43 1553.72 1406.99 1552.54 L1404.95 1552.07 Q1399.51 1550.92 1397.09 1548.56 Q1394.67 1546.18 1394.67 1542.04 Q1394.67 1537.01 1398.24 1534.27 Q1401.8 1531.54 1408.36 1531.54 Q1411.6 1531.54 1414.47 1532.01 Q1417.33 1532.49 1419.75 1533.45 Z" fill="#000000" fill-rule="nonzero" fill-opacity="1" /><polyline clip-path="url(#clip012)" style="stroke:#000000; stroke-linecap:round; stroke-linejoin:round; stroke-width:2; stroke-opacity:0.1; fill:none" points="219.866,1244.53 2352.76,1244.53 "/>
<polyline clip-path="url(#clip012)" style="stroke:#000000; stroke-linecap:round; stroke-linejoin:round; stroke-width:2; stroke-opacity:0.1; fill:none" points="219.866,1002.63 2352.76,1002.63 "/>
<polyline clip-path="url(#clip012)" style="stroke:#000000; stroke-linecap:round; stroke-linejoin:round; stroke-width:2; stroke-opacity:0.1; fill:none" points="219.866,760.721 2352.76,760.721 "/>
<polyline clip-path="url(#clip012)" style="stroke:#000000; stroke-linecap:round; stroke-linejoin:round; stroke-width:2; stroke-opacity:0.1; fill:none" points="219.866,518.814 2352.76,518.814 "/>
<polyline clip-path="url(#clip012)" style="stroke:#000000; stroke-linecap:round; stroke-linejoin:round; stroke-width:2; stroke-opacity:0.1; fill:none" points="219.866,276.908 2352.76,276.908 "/>
<polyline clip-path="url(#clip010)" style="stroke:#000000; stroke-linecap:round; stroke-linejoin:round; stroke-width:4; stroke-opacity:1; fill:none" points="219.866,1423.18 219.866,123.472 "/>
<polyline clip-path="url(#clip010)" style="stroke:#000000; stroke-linecap:round; stroke-linejoin:round; stroke-width:4; stroke-opacity:1; fill:none" points="219.866,1244.53 238.764,1244.53 "/>
<polyline clip-path="url(#clip010)" style="stroke:#000000; stroke-linecap:round; stroke-linejoin:round; stroke-width:4; stroke-opacity:1; fill:none" points="219.866,1002.63 238.764,1002.63 "/>
<polyline clip-path="url(#clip010)" style="stroke:#000000; stroke-linecap:round; stroke-linejoin:round; stroke-width:4; stroke-opacity:1; fill:none" points="219.866,760.721 238.764,760.721 "/>
<polyline clip-path="url(#clip010)" style="stroke:#000000; stroke-linecap:round; stroke-linejoin:round; stroke-width:4; stroke-opacity:1; fill:none" points="219.866,518.814 238.764,518.814 "/>
<polyline clip-path="url(#clip010)" style="stroke:#000000; stroke-linecap:round; stroke-linejoin:round; stroke-width:4; stroke-opacity:1; fill:none" points="219.866,276.908 238.764,276.908 "/>
<path clip-path="url(#clip010)" d="M126.205 1230.33 Q122.593 1230.33 120.765 1233.9 Q118.959 1237.44 118.959 1244.57 Q118.959 1251.68 120.765 1255.24 Q122.593 1258.78 126.205 1258.78 Q129.839 1258.78 131.644 1255.24 Q133.473 1251.68 133.473 1244.57 Q133.473 1237.44 131.644 1233.9 Q129.839 1230.33 126.205 1230.33 M126.205 1226.63 Q132.015 1226.63 135.07 1231.24 Q138.149 1235.82 138.149 1244.57 Q138.149 1253.3 135.07 1257.9 Q132.015 1262.49 126.205 1262.49 Q120.394 1262.49 117.316 1257.9 Q114.26 1253.3 114.26 1244.57 Q114.26 1235.82 117.316 1231.24 Q120.394 1226.63 126.205 1226.63 Z" fill="#000000" fill-rule="nonzero" fill-opacity="1" /><path clip-path="url(#clip010)" d="M146.366 1255.93 L151.251 1255.93 L151.251 1261.81 L146.366 1261.81 L146.366 1255.93 Z" fill="#000000" fill-rule="nonzero" fill-opacity="1" /><path clip-path="url(#clip010)" d="M174.283 1231.33 L162.477 1249.78 L174.283 1249.78 L174.283 1231.33 M173.056 1227.25 L178.936 1227.25 L178.936 1249.78 L183.866 1249.78 L183.866 1253.67 L178.936 1253.67 L178.936 1261.81 L174.283 1261.81 L174.283 1253.67 L158.681 1253.67 L158.681 1249.15 L173.056 1227.25 Z" fill="#000000" fill-rule="nonzero" fill-opacity="1" /><path clip-path="url(#clip010)" d="M126.529 988.426 Q122.918 988.426 121.089 991.991 Q119.283 995.533 119.283 1002.66 Q119.283 1009.77 121.089 1013.33 Q122.918 1016.88 126.529 1016.88 Q130.163 1016.88 131.968 1013.33 Q133.797 1009.77 133.797 1002.66 Q133.797 995.533 131.968 991.991 Q130.163 988.426 126.529 988.426 M126.529 984.723 Q132.339 984.723 135.394 989.329 Q138.473 993.912 138.473 1002.66 Q138.473 1011.39 135.394 1016 Q132.339 1020.58 126.529 1020.58 Q120.718 1020.58 117.64 1016 Q114.584 1011.39 114.584 1002.66 Q114.584 993.912 117.64 989.329 Q120.718 984.723 126.529 984.723 Z" fill="#000000" fill-rule="nonzero" fill-opacity="1" /><path clip-path="url(#clip010)" d="M146.691 1014.03 L151.575 1014.03 L151.575 1019.91 L146.691 1019.91 L146.691 1014.03 Z" fill="#000000" fill-rule="nonzero" fill-opacity="1" /><path clip-path="url(#clip010)" d="M172.339 1000.76 Q169.19 1000.76 167.339 1002.92 Q165.51 1005.07 165.51 1008.82 Q165.51 1012.55 167.339 1014.72 Q169.19 1016.88 172.339 1016.88 Q175.487 1016.88 177.315 1014.72 Q179.167 1012.55 179.167 1008.82 Q179.167 1005.07 177.315 1002.92 Q175.487 1000.76 172.339 1000.76 M181.621 986.112 L181.621 990.371 Q179.862 989.537 178.056 989.098 Q176.274 988.658 174.514 988.658 Q169.885 988.658 167.431 991.783 Q165.001 994.908 164.653 1001.23 Q166.019 999.213 168.079 998.149 Q170.139 997.061 172.616 997.061 Q177.825 997.061 180.834 1000.23 Q183.866 1003.38 183.866 1008.82 Q183.866 1014.14 180.718 1017.36 Q177.57 1020.58 172.339 1020.58 Q166.343 1020.58 163.172 1016 Q160.001 1011.39 160.001 1002.66 Q160.001 994.468 163.89 989.607 Q167.778 984.723 174.329 984.723 Q176.089 984.723 177.871 985.07 Q179.676 985.417 181.621 986.112 Z" fill="#000000" fill-rule="nonzero" fill-opacity="1" /><path clip-path="url(#clip010)" d="M126.783 746.52 Q123.172 746.52 121.343 750.084 Q119.538 753.626 119.538 760.756 Q119.538 767.862 121.343 771.427 Q123.172 774.969 126.783 774.969 Q130.417 774.969 132.223 771.427 Q134.052 767.862 134.052 760.756 Q134.052 753.626 132.223 750.084 Q130.417 746.52 126.783 746.52 M126.783 742.816 Q132.593 742.816 135.649 747.422 Q138.728 752.006 138.728 760.756 Q138.728 769.483 135.649 774.089 Q132.593 778.672 126.783 778.672 Q120.973 778.672 117.894 774.089 Q114.839 769.483 114.839 760.756 Q114.839 752.006 117.894 747.422 Q120.973 742.816 126.783 742.816 Z" fill="#000000" fill-rule="nonzero" fill-opacity="1" /><path clip-path="url(#clip010)" d="M146.945 772.121 L151.829 772.121 L151.829 778.001 L146.945 778.001 L146.945 772.121 Z" fill="#000000" fill-rule="nonzero" fill-opacity="1" /><path clip-path="url(#clip010)" d="M172.014 761.589 Q168.681 761.589 166.76 763.371 Q164.862 765.154 164.862 768.279 Q164.862 771.404 166.76 773.186 Q168.681 774.969 172.014 774.969 Q175.348 774.969 177.269 773.186 Q179.19 771.381 179.19 768.279 Q179.19 765.154 177.269 763.371 Q175.371 761.589 172.014 761.589 M167.339 759.598 Q164.329 758.858 162.64 756.797 Q160.973 754.737 160.973 751.774 Q160.973 747.631 163.913 745.223 Q166.876 742.816 172.014 742.816 Q177.176 742.816 180.116 745.223 Q183.056 747.631 183.056 751.774 Q183.056 754.737 181.366 756.797 Q179.7 758.858 176.714 759.598 Q180.093 760.385 181.968 762.677 Q183.866 764.969 183.866 768.279 Q183.866 773.302 180.788 775.987 Q177.732 778.672 172.014 778.672 Q166.297 778.672 163.218 775.987 Q160.163 773.302 160.163 768.279 Q160.163 764.969 162.061 762.677 Q163.959 760.385 167.339 759.598 M165.626 752.214 Q165.626 754.899 167.292 756.404 Q168.982 757.909 172.014 757.909 Q175.024 757.909 176.714 756.404 Q178.426 754.899 178.426 752.214 Q178.426 749.529 176.714 748.024 Q175.024 746.52 172.014 746.52 Q168.982 746.52 167.292 748.024 Q165.626 749.529 165.626 752.214 Z" fill="#000000" fill-rule="nonzero" fill-opacity="1" /><path clip-path="url(#clip010)" d="M117.501 532.159 L125.14 532.159 L125.14 505.794 L116.83 507.46 L116.83 503.201 L125.093 501.534 L129.769 501.534 L129.769 532.159 L137.408 532.159 L137.408 536.094 L117.501 536.094 L117.501 532.159 Z" fill="#000000" fill-rule="nonzero" fill-opacity="1" /><path clip-path="url(#clip010)" d="M146.853 530.215 L151.737 530.215 L151.737 536.094 L146.853 536.094 L146.853 530.215 Z" fill="#000000" fill-rule="nonzero" fill-opacity="1" /><path clip-path="url(#clip010)" d="M171.922 504.613 Q168.311 504.613 166.482 508.178 Q164.677 511.719 164.677 518.849 Q164.677 525.955 166.482 529.52 Q168.311 533.062 171.922 533.062 Q175.556 533.062 177.362 529.52 Q179.19 525.955 179.19 518.849 Q179.19 511.719 177.362 508.178 Q175.556 504.613 171.922 504.613 M171.922 500.909 Q177.732 500.909 180.788 505.516 Q183.866 510.099 183.866 518.849 Q183.866 527.576 180.788 532.182 Q177.732 536.766 171.922 536.766 Q166.112 536.766 163.033 532.182 Q159.978 527.576 159.978 518.849 Q159.978 510.099 163.033 505.516 Q166.112 500.909 171.922 500.909 Z" fill="#000000" fill-rule="nonzero" fill-opacity="1" /><path clip-path="url(#clip010)" d="M119.098 290.252 L126.737 290.252 L126.737 263.887 L118.427 265.554 L118.427 261.294 L126.691 259.628 L131.367 259.628 L131.367 290.252 L139.005 290.252 L139.005 294.188 L119.098 294.188 L119.098 290.252 Z" fill="#000000" fill-rule="nonzero" fill-opacity="1" /><path clip-path="url(#clip010)" d="M148.45 288.308 L153.334 288.308 L153.334 294.188 L148.45 294.188 L148.45 288.308 Z" fill="#000000" fill-rule="nonzero" fill-opacity="1" /><path clip-path="url(#clip010)" d="M167.547 290.252 L183.866 290.252 L183.866 294.188 L161.922 294.188 L161.922 290.252 Q164.584 287.498 169.167 282.868 Q173.774 278.215 174.954 276.873 Q177.2 274.35 178.079 272.614 Q178.982 270.854 178.982 269.165 Q178.982 266.41 177.038 264.674 Q175.116 262.938 172.014 262.938 Q169.815 262.938 167.362 263.702 Q164.931 264.466 162.153 266.016 L162.153 261.294 Q164.977 260.16 167.431 259.581 Q169.885 259.003 171.922 259.003 Q177.292 259.003 180.487 261.688 Q183.681 264.373 183.681 268.864 Q183.681 270.993 182.871 272.915 Q182.084 274.813 179.977 277.405 Q179.399 278.077 176.297 281.294 Q173.195 284.489 167.547 290.252 Z" fill="#000000" fill-rule="nonzero" fill-opacity="1" /><path clip-path="url(#clip010)" d="M16.4842 837.445 L16.4842 827.864 L48.8219 815.738 L16.4842 803.547 L16.4842 793.967 L64.0042 793.967 L64.0042 800.237 L22.277 800.237 L54.8694 812.491 L54.8694 818.952 L22.277 831.206 L64.0042 831.206 L64.0042 837.445 L16.4842 837.445 Z" fill="#000000" fill-rule="nonzero" fill-opacity="1" /><path clip-path="url(#clip010)" d="M18.0438 752.717 L24.314 752.717 Q22.5634 756.377 21.704 759.624 Q20.8447 762.87 20.8447 765.894 Q20.8447 771.146 22.8817 774.01 Q24.9187 776.843 28.6745 776.843 Q31.8255 776.843 33.4488 774.965 Q35.0402 773.055 36.0269 767.772 L36.8226 763.889 Q38.1912 756.696 41.6605 753.29 Q45.098 749.852 50.8908 749.852 Q57.7976 749.852 61.3624 754.499 Q64.9272 759.115 64.9272 768.058 Q64.9272 771.432 64.1633 775.252 Q63.3994 779.039 61.9035 783.113 L55.2831 783.113 Q57.4793 779.198 58.5933 775.443 Q59.7073 771.687 59.7073 768.058 Q59.7073 762.552 57.543 759.56 Q55.3786 756.568 51.3682 756.568 Q47.8671 756.568 45.8937 758.733 Q43.9204 760.865 42.9337 765.767 L42.1698 769.682 Q40.7375 776.875 37.682 780.09 Q34.6264 783.304 29.1837 783.304 Q22.8817 783.304 19.2532 778.88 Q15.6248 774.424 15.6248 766.626 Q15.6248 763.284 16.2295 759.815 Q16.8343 756.345 18.0438 752.717 Z" fill="#000000" fill-rule="nonzero" fill-opacity="1" /><path clip-path="url(#clip010)" d="M16.4842 739.826 L16.4842 709.78 L21.895 709.78 L21.895 733.397 L35.9632 733.397 L35.9632 710.767 L41.3741 710.767 L41.3741 733.397 L58.5933 733.397 L58.5933 709.207 L64.0042 709.207 L64.0042 739.826 L16.4842 739.826 Z" fill="#000000" fill-rule="nonzero" fill-opacity="1" /><path clip-path="url(#clip010)" d="M877.514 12.096 L889.707 12.096 L905.141 53.2532 L920.656 12.096 L932.849 12.096 L932.849 72.576 L924.869 72.576 L924.869 19.4686 L909.273 60.9499 L901.05 60.9499 L885.454 19.4686 L885.454 72.576 L877.514 72.576 L877.514 12.096 Z" fill="#000000" fill-rule="nonzero" fill-opacity="1" /><path clip-path="url(#clip010)" d="M987.577 48.0275 L987.577 51.6733 L953.307 51.6733 Q953.793 59.3701 957.925 63.421 Q962.097 67.4314 969.51 67.4314 Q973.804 67.4314 977.814 66.3781 Q981.865 65.3249 985.835 63.2184 L985.835 70.267 Q981.825 71.9684 977.612 72.8596 Q973.399 73.7508 969.065 73.7508 Q958.208 73.7508 951.848 67.4314 Q945.529 61.1119 945.529 50.3365 Q945.529 39.1965 951.524 32.6746 Q957.56 26.1121 967.768 26.1121 Q976.923 26.1121 982.23 32.0264 Q987.577 37.9003 987.577 48.0275 M980.123 45.84 Q980.042 39.7232 976.68 36.0774 Q973.358 32.4315 967.849 32.4315 Q961.611 32.4315 957.844 35.9558 Q954.117 39.4801 953.55 45.8805 L980.123 45.84 Z" fill="#000000" fill-rule="nonzero" fill-opacity="1" /><path clip-path="url(#clip010)" d="M1020.43 49.7694 Q1011.4 49.7694 1007.91 51.8354 Q1004.43 53.9013 1004.43 58.8839 Q1004.43 62.8538 1007.02 65.2034 Q1009.65 67.5124 1014.15 67.5124 Q1020.35 67.5124 1024.08 63.1374 Q1027.84 58.7219 1027.84 51.4303 L1027.84 49.7694 L1020.43 49.7694 M1035.3 46.6907 L1035.3 72.576 L1027.84 72.576 L1027.84 65.6895 Q1025.29 69.8214 1021.48 71.8063 Q1017.68 73.7508 1012.17 73.7508 Q1005.2 73.7508 1001.07 69.8619 Q996.975 65.9325 996.975 59.3701 Q996.975 51.7138 1002.08 47.825 Q1007.22 43.9361 1017.39 43.9361 L1027.84 43.9361 L1027.84 43.2069 Q1027.84 38.0623 1024.44 35.2672 Q1021.08 32.4315 1014.96 32.4315 Q1011.07 32.4315 1007.39 33.3632 Q1003.7 34.295 1000.3 36.1584 L1000.3 29.2718 Q1004.39 27.692 1008.24 26.9223 Q1012.09 26.1121 1015.73 26.1121 Q1025.57 26.1121 1030.44 31.2163 Q1035.3 36.3204 1035.3 46.6907 Z" fill="#000000" fill-rule="nonzero" fill-opacity="1" /><path clip-path="url(#clip010)" d="M1088.36 45.1919 L1088.36 72.576 L1080.91 72.576 L1080.91 45.4349 Q1080.91 38.994 1078.4 35.7938 Q1075.89 32.5936 1070.86 32.5936 Q1064.83 32.5936 1061.34 36.4419 Q1057.86 40.2903 1057.86 46.9338 L1057.86 72.576 L1050.37 72.576 L1050.37 27.2059 L1057.86 27.2059 L1057.86 34.2544 Q1060.53 30.163 1064.14 28.1376 Q1067.79 26.1121 1072.52 26.1121 Q1080.34 26.1121 1084.35 30.9732 Q1088.36 35.7938 1088.36 45.1919 Z" fill="#000000" fill-rule="nonzero" fill-opacity="1" /><path clip-path="url(#clip010)" d="M1166.18 14.0809 L1166.18 22.0612 Q1161.52 19.8332 1157.39 18.7395 Q1153.26 17.6457 1149.41 17.6457 Q1142.73 17.6457 1139.08 20.2383 Q1135.48 22.8309 1135.48 27.611 Q1135.48 31.6214 1137.87 33.6873 Q1140.3 35.7128 1147.02 36.9686 L1151.96 37.9813 Q1161.12 39.7232 1165.45 44.1387 Q1169.83 48.5136 1169.83 55.8863 Q1169.83 64.6767 1163.91 69.2137 Q1158.04 73.7508 1146.66 73.7508 Q1142.36 73.7508 1137.5 72.7785 Q1132.68 71.8063 1127.5 69.9024 L1127.5 61.4765 Q1132.48 64.2716 1137.26 65.6895 Q1142.04 67.1073 1146.66 67.1073 Q1153.66 67.1073 1157.47 64.3527 Q1161.28 61.598 1161.28 56.4939 Q1161.28 52.0379 1158.53 49.5264 Q1155.81 47.0148 1149.57 45.759 L1144.59 44.7868 Q1135.44 42.9639 1131.34 39.075 Q1127.25 35.1862 1127.25 28.2591 Q1127.25 20.2383 1132.88 15.6203 Q1138.55 11.0023 1148.48 11.0023 Q1152.73 11.0023 1157.15 11.7719 Q1161.56 12.5416 1166.18 14.0809 Z" fill="#000000" fill-rule="nonzero" fill-opacity="1" /><path clip-path="url(#clip010)" d="M1186.72 49.9314 Q1186.72 58.1548 1190.08 62.8538 Q1193.48 67.5124 1199.4 67.5124 Q1205.31 67.5124 1208.72 62.8538 Q1212.12 58.1548 1212.12 49.9314 Q1212.12 41.7081 1208.72 37.0496 Q1205.31 32.3505 1199.4 32.3505 Q1193.48 32.3505 1190.08 37.0496 Q1186.72 41.7081 1186.72 49.9314 M1212.12 65.7705 Q1209.77 69.8214 1206.16 71.8063 Q1202.6 73.7508 1197.58 73.7508 Q1189.35 73.7508 1184.17 67.1883 Q1179.02 60.6258 1179.02 49.9314 Q1179.02 39.2371 1184.17 32.6746 Q1189.35 26.1121 1197.58 26.1121 Q1202.6 26.1121 1206.16 28.0971 Q1209.77 30.0415 1212.12 34.0924 L1212.12 27.2059 L1219.57 27.2059 L1219.57 89.8329 L1212.12 89.8329 L1212.12 65.7705 Z" fill="#000000" fill-rule="nonzero" fill-opacity="1" /><path clip-path="url(#clip010)" d="M1234.16 54.671 L1234.16 27.2059 L1241.61 27.2059 L1241.61 54.3874 Q1241.61 60.8284 1244.12 64.0691 Q1246.63 67.2693 1251.66 67.2693 Q1257.69 67.2693 1261.18 63.421 Q1264.7 59.5726 1264.7 52.9291 L1264.7 27.2059 L1272.15 27.2059 L1272.15 72.576 L1264.7 72.576 L1264.7 65.6084 Q1261.99 69.7404 1258.38 71.7658 Q1254.82 73.7508 1250.08 73.7508 Q1242.26 73.7508 1238.21 68.8897 Q1234.16 64.0286 1234.16 54.671 M1252.91 26.1121 L1252.91 26.1121 Z" fill="#000000" fill-rule="nonzero" fill-opacity="1" /><path clip-path="url(#clip010)" d="M1308.13 49.7694 Q1299.09 49.7694 1295.61 51.8354 Q1292.12 53.9013 1292.12 58.8839 Q1292.12 62.8538 1294.72 65.2034 Q1297.35 67.5124 1301.85 67.5124 Q1308.04 67.5124 1311.77 63.1374 Q1315.54 58.7219 1315.54 51.4303 L1315.54 49.7694 L1308.13 49.7694 M1322.99 46.6907 L1322.99 72.576 L1315.54 72.576 L1315.54 65.6895 Q1312.99 69.8214 1309.18 71.8063 Q1305.37 73.7508 1299.86 73.7508 Q1292.89 73.7508 1288.76 69.8619 Q1284.67 65.9325 1284.67 59.3701 Q1284.67 51.7138 1289.77 47.825 Q1294.92 43.9361 1305.09 43.9361 L1315.54 43.9361 L1315.54 43.2069 Q1315.54 38.0623 1312.14 35.2672 Q1308.77 32.4315 1302.66 32.4315 Q1298.77 32.4315 1295.08 33.3632 Q1291.39 34.295 1287.99 36.1584 L1287.99 29.2718 Q1292.08 27.692 1295.93 26.9223 Q1299.78 26.1121 1303.43 26.1121 Q1313.27 26.1121 1318.13 31.2163 Q1322.99 36.3204 1322.99 46.6907 Z" fill="#000000" fill-rule="nonzero" fill-opacity="1" /><path clip-path="url(#clip010)" d="M1364.64 34.1734 Q1363.38 33.4443 1361.88 33.1202 Q1360.42 32.7556 1358.64 32.7556 Q1352.32 32.7556 1348.92 36.8875 Q1345.56 40.9789 1345.56 48.6757 L1345.56 72.576 L1338.06 72.576 L1338.06 27.2059 L1345.56 27.2059 L1345.56 34.2544 Q1347.91 30.1225 1351.67 28.1376 Q1355.44 26.1121 1360.83 26.1121 Q1361.6 26.1121 1362.53 26.2337 Q1363.46 26.3147 1364.59 26.5172 L1364.64 34.1734 Z" fill="#000000" fill-rule="nonzero" fill-opacity="1" /><path clip-path="url(#clip010)" d="M1409.44 48.0275 L1409.44 51.6733 L1375.17 51.6733 Q1375.65 59.3701 1379.79 63.421 Q1383.96 67.4314 1391.37 67.4314 Q1395.67 67.4314 1399.68 66.3781 Q1403.73 65.3249 1407.7 63.2184 L1407.7 70.267 Q1403.69 71.9684 1399.47 72.8596 Q1395.26 73.7508 1390.93 73.7508 Q1380.07 73.7508 1373.71 67.4314 Q1367.39 61.1119 1367.39 50.3365 Q1367.39 39.1965 1373.39 32.6746 Q1379.42 26.1121 1389.63 26.1121 Q1398.78 26.1121 1404.09 32.0264 Q1409.44 37.9003 1409.44 48.0275 M1401.98 45.84 Q1401.9 39.7232 1398.54 36.0774 Q1395.22 32.4315 1389.71 32.4315 Q1383.47 32.4315 1379.7 35.9558 Q1375.98 39.4801 1375.41 45.8805 L1401.98 45.84 Z" fill="#000000" fill-rule="nonzero" fill-opacity="1" /><path clip-path="url(#clip010)" d="M1451.53 34.0924 L1451.53 9.54393 L1458.98 9.54393 L1458.98 72.576 L1451.53 72.576 L1451.53 65.7705 Q1449.18 69.8214 1445.57 71.8063 Q1442.01 73.7508 1436.98 73.7508 Q1428.76 73.7508 1423.58 67.1883 Q1418.43 60.6258 1418.43 49.9314 Q1418.43 39.2371 1423.58 32.6746 Q1428.76 26.1121 1436.98 26.1121 Q1442.01 26.1121 1445.57 28.0971 Q1449.18 30.0415 1451.53 34.0924 M1426.13 49.9314 Q1426.13 58.1548 1429.49 62.8538 Q1432.89 67.5124 1438.81 67.5124 Q1444.72 67.5124 1448.12 62.8538 Q1451.53 58.1548 1451.53 49.9314 Q1451.53 41.7081 1448.12 37.0496 Q1444.72 32.3505 1438.81 32.3505 Q1432.89 32.3505 1429.49 37.0496 Q1426.13 41.7081 1426.13 49.9314 Z" fill="#000000" fill-rule="nonzero" fill-opacity="1" /><path clip-path="url(#clip010)" d="M1501.03 12.096 L1539.27 12.096 L1539.27 18.9825 L1509.21 18.9825 L1509.21 36.8875 L1538.01 36.8875 L1538.01 43.7741 L1509.21 43.7741 L1509.21 65.6895 L1540 65.6895 L1540 72.576 L1501.03 72.576 L1501.03 12.096 Z" fill="#000000" fill-rule="nonzero" fill-opacity="1" /><path clip-path="url(#clip010)" d="M1579.41 34.1734 Q1578.16 33.4443 1576.66 33.1202 Q1575.2 32.7556 1573.42 32.7556 Q1567.1 32.7556 1563.7 36.8875 Q1560.33 40.9789 1560.33 48.6757 L1560.33 72.576 L1552.84 72.576 L1552.84 27.2059 L1560.33 27.2059 L1560.33 34.2544 Q1562.68 30.1225 1566.45 28.1376 Q1570.22 26.1121 1575.61 26.1121 Q1576.38 26.1121 1577.31 26.2337 Q1578.24 26.3147 1579.37 26.5172 L1579.41 34.1734 Z" fill="#000000" fill-rule="nonzero" fill-opacity="1" /><path clip-path="url(#clip010)" d="M1612.06 34.1734 Q1610.81 33.4443 1609.31 33.1202 Q1607.85 32.7556 1606.07 32.7556 Q1599.75 32.7556 1596.35 36.8875 Q1592.98 40.9789 1592.98 48.6757 L1592.98 72.576 L1585.49 72.576 L1585.49 27.2059 L1592.98 27.2059 L1592.98 34.2544 Q1595.33 30.1225 1599.1 28.1376 Q1602.87 26.1121 1608.26 26.1121 Q1609.03 26.1121 1609.96 26.2337 Q1610.89 26.3147 1612.02 26.5172 L1612.06 34.1734 Z" fill="#000000" fill-rule="nonzero" fill-opacity="1" /><path clip-path="url(#clip010)" d="M1635.64 32.4315 Q1629.65 32.4315 1626.16 37.1306 Q1622.68 41.7891 1622.68 49.9314 Q1622.68 58.0738 1626.12 62.7728 Q1629.6 67.4314 1635.64 67.4314 Q1641.6 67.4314 1645.08 62.7323 Q1648.56 58.0333 1648.56 49.9314 Q1648.56 41.8701 1645.08 37.1711 Q1641.6 32.4315 1635.64 32.4315 M1635.64 26.1121 Q1645.36 26.1121 1650.91 32.4315 Q1656.46 38.7509 1656.46 49.9314 Q1656.46 61.0714 1650.91 67.4314 Q1645.36 73.7508 1635.64 73.7508 Q1625.88 73.7508 1620.33 67.4314 Q1614.82 61.0714 1614.82 49.9314 Q1614.82 38.7509 1620.33 32.4315 Q1625.88 26.1121 1635.64 26.1121 Z" fill="#000000" fill-rule="nonzero" fill-opacity="1" /><path clip-path="url(#clip010)" d="M1695.11 34.1734 Q1693.85 33.4443 1692.35 33.1202 Q1690.9 32.7556 1689.11 32.7556 Q1682.79 32.7556 1679.39 36.8875 Q1676.03 40.9789 1676.03 48.6757 L1676.03 72.576 L1668.53 72.576 L1668.53 27.2059 L1676.03 27.2059 L1676.03 34.2544 Q1678.38 30.1225 1682.15 28.1376 Q1685.91 26.1121 1691.3 26.1121 Q1692.07 26.1121 1693 26.2337 Q1693.93 26.3147 1695.07 26.5172 L1695.11 34.1734 Z" fill="#000000" fill-rule="nonzero" fill-opacity="1" /><polyline clip-path="url(#clip012)" style="stroke:#009af9; stroke-linecap:round; stroke-linejoin:round; stroke-width:4; stroke-opacity:1; fill:none" points="280.231,539.63 309.393,360.059 338.555,229.455 367.716,547.103 396.878,289.623 426.04,544.691 455.202,347.521 484.363,559.56 513.525,483.999 542.687,510.304 571.848,467.005 601.01,484.619 630.172,493.494 659.334,520.756 688.495,540.432 717.657,764.619 746.819,616.331 775.981,751.699 805.142,673.772 834.304,726.565 863.466,234.352 892.628,390.869 921.789,628.766 950.951,585.206 980.113,545.025 1009.27,624.025 1038.44,516.479 1067.6,510.739 1096.76,557.772 1125.92,565.668 1155.08,639.332 1184.24,797.271 1213.41,706.386 1242.57,582.992 1271.73,937.973 1300.89,810.415 1330.05,918.365 1359.22,723.28 1388.38,728.412 1417.54,743.415 1446.7,572.304 1475.86,639.555 1505.02,648.345 1534.19,661.976 1563.35,654.761 1592.51,160.256 1621.67,264.093 1650.83,608.784 1679.99,619.501 1709.16,536.713 1738.32,470.1 1767.48,370.657 1796.64,422.807 1825.8,561.07 1854.97,450.828 1884.13,500.981 1913.29,429.282 1942.45,532.58 1971.61,459.684 2000.77,523.131 2029.94,414.341 2059.1,558.046 2088.26,773.499 2117.42,336.546 2146.58,367.584 2175.74,177.421 2204.91,281.118 2234.07,459.521 2263.23,808.203 2292.39,601.624 "/>
<polyline clip-path="url(#clip012)" style="stroke:#e26f46; stroke-linecap:round; stroke-linejoin:round; stroke-width:4; stroke-opacity:1; fill:none" points="280.231,794.838 309.393,719.092 338.555,971.192 367.716,966.213 396.878,894.523 426.04,1020.07 455.202,784.875 484.363,902.568 513.525,1113.14 542.687,1090.47 571.848,950.222 601.01,1022.71 630.172,984.378 659.334,962.562 688.495,1131.34 717.657,970.916 746.819,1020.89 775.981,1020.65 805.142,1145.95 834.304,1047.56 863.466,1086.75 892.628,886.574 921.789,958.962 950.951,933.957 980.113,769.593 1009.27,1006.79 1038.44,767.224 1067.6,772.573 1096.76,1100.43 1125.92,1016.26 1155.08,768.435 1184.24,1042.61 1213.41,712.848 1242.57,714.53 1271.73,985.888 1300.89,995.73 1330.05,1015.15 1359.22,671.965 1388.38,1096.39 1417.54,1114.19 1446.7,1034.33 1475.86,1005.82 1505.02,923.84 1534.19,981.804 1563.35,1084.13 1592.51,574.772 1621.67,1074.49 1650.83,1081.17 1679.99,932.782 1709.16,1015.16 1738.32,1074.87 1767.48,1084.24 1796.64,1033.99 1825.8,942.253 1854.97,1097.19 1884.13,1080.84 1913.29,1122.1 1942.45,1285.58 1971.61,1088.19 2000.77,1122.56 2029.94,882.319 2059.1,890.312 2088.26,1047.33 2117.42,872.443 2146.58,880.574 2175.74,904.409 2204.91,926.341 2234.07,596.61 2263.23,985.78 2292.39,478.985 "/>
<polyline clip-path="url(#clip012)" style="stroke:#3da44d; stroke-linecap:round; stroke-linejoin:round; stroke-width:4; stroke-opacity:1; fill:none" points="280.231,1116.1 309.393,1091.27 338.555,1181.11 367.716,1093.48 396.878,1203.84 426.04,1189.98 455.202,1189.24 484.363,1214.49 513.525,1355.15 542.687,1340.24 571.848,1218.15 601.01,1332.11 630.172,1323.66 659.334,1223.05 688.495,1314.23 717.657,1202.18 746.819,1326.77 775.981,1270.15 805.142,1234.03 834.304,1267.9 863.466,1308.9 892.628,1186.9 921.789,1306.68 950.951,1313.26 980.113,1215.04 1009.27,1308.19 1038.44,1231.84 1067.6,1306.83 1096.76,1331.19 1125.92,1255.98 1155.08,812.479 1184.24,1192.65 1213.41,837.104 1242.57,1019.25 1271.73,948.35 1300.89,1184.15 1330.05,1088.48 1359.22,703.481 1388.38,1152.24 1417.54,1125.18 1446.7,1275.29 1475.86,1186.44 1505.02,1158.81 1534.19,1181.1 1563.35,1259.15 1592.51,1051.95 1621.67,1151.17 1650.83,1200.27 1679.99,1220.84 1709.16,1093.84 1738.32,1091.88 1767.48,1235.84 1796.64,1304.93 1825.8,1314.85 1854.97,1283.23 1884.13,1345.02 1913.29,1340.92 1942.45,1343.93 1971.61,1351.28 2000.77,1338.11 2029.94,816.066 2059.1,1090.35 2088.26,851.708 2117.42,946.279 2146.58,909.965 2175.74,1019.92 2204.91,1003.97 2234.07,856.772 2263.23,1135.54 2292.39,717.899 "/>
<polyline clip-path="url(#clip012)" style="stroke:#c271d2; stroke-linecap:round; stroke-linejoin:round; stroke-width:4; stroke-opacity:1; fill:none" points="280.231,1171.57 309.393,1163.82 338.555,1173.47 367.716,1165.15 396.878,1280.71 426.04,1208.97 455.202,1256.64 484.363,1179.81 513.525,1379.96 542.687,1346.16 571.848,1326.82 601.01,1363.25 630.172,1375.05 659.334,1247.7 688.495,1326.98 717.657,1242.43 746.819,1369.72 775.981,1348.03 805.142,1218.74 834.304,1302.23 863.466,1334.66 892.628,1239.78 921.789,1363.37 950.951,1339.77 980.113,1262.71 1009.27,1346.88 1038.44,1321.53 1067.6,1356.76 1096.76,1347.87 1125.92,1315.84 1155.08,1001.46 1184.24,1203.62 1213.41,891.665 1242.57,1133.43 1271.73,1021.34 1300.89,1196.73 1330.05,1082.13 1359.22,812.016 1388.38,1313.62 1417.54,1282.39 1446.7,1309.86 1475.86,1280.48 1505.02,1210.69 1534.19,1293.2 1563.35,1338.54 1592.51,1079.75 1621.67,1195.52 1650.83,1235.79 1679.99,1187.23 1709.16,1143.37 1738.32,1208.65 1767.48,1217.51 1796.64,1307.13 1825.8,1322.34 1854.97,1288.58 1884.13,1358.23 1913.29,1281.95 1942.45,1341.85 1971.61,1364.35 2000.77,1378.96 2029.94,869.32 2059.1,1041.24 2088.26,949.739 2117.42,995.227 2146.58,959.23 2175.74,1045.1 2204.91,1080.56 2234.07,989.93 2263.23,1107.45 2292.39,860.947 "/>
<polyline clip-path="url(#clip012)" style="stroke:#ac8d18; stroke-linecap:round; stroke-linejoin:round; stroke-width:4; stroke-opacity:1; fill:none" points="280.231,1183.33 309.393,1151.82 338.555,1200.64 367.716,1171.06 396.878,1229.73 426.04,1194.64 455.202,1234.8 484.363,1220.44 513.525,1369.95 542.687,1341.49 571.848,1324.37 601.01,1360.51 630.172,1349.85 659.334,1236.62 688.495,1373.58 717.657,1307.79 746.819,1366.84 775.981,1344.42 805.142,1245.64 834.304,1321.14 863.466,1350.11 892.628,1266.09 921.789,1365.72 950.951,1372.05 980.113,1299.26 1009.27,1386.4 1038.44,1343.86 1067.6,1335.21 1096.76,1379.3 1125.92,1343.29 1155.08,1003.46 1184.24,1221.05 1213.41,818.413 1242.57,1340.96 1271.73,1026 1300.89,1210.11 1330.05,1114.66 1359.22,847.079 1388.38,1367.21 1417.54,1329.95 1446.7,1341.53 1475.86,1290.23 1505.02,1251.44 1534.19,1333.4 1563.35,1361.99 1592.51,1071.75 1621.67,1182.7 1650.83,1192.16 1679.99,1217.81 1709.16,1156.74 1738.32,1200.76 1767.48,1211.91 1796.64,1297.37 1825.8,1331.29 1854.97,1270.83 1884.13,1365.4 1913.29,1233.96 1942.45,1349.35 1971.61,1343.78 2000.77,1369.63 2029.94,921.524 2059.1,1069.51 2088.26,945.474 2117.42,1131.91 2146.58,980.509 2175.74,1003.05 2204.91,1108.03 2234.07,988.428 2263.23,1096.98 2292.39,818.76 "/>
<path clip-path="url(#clip010)" d="M290.963 477.836 L588.788 477.836 L588.788 166.796 L290.963 166.796  Z" fill="#ffffff" fill-rule="evenodd" fill-opacity="1"/>
<polyline clip-path="url(#clip010)" style="stroke:#000000; stroke-linecap:round; stroke-linejoin:round; stroke-width:4; stroke-opacity:1; fill:none" points="290.963,477.836 588.788,477.836 588.788,166.796 290.963,166.796 290.963,477.836 "/>
<polyline clip-path="url(#clip010)" style="stroke:#009af9; stroke-linecap:round; stroke-linejoin:round; stroke-width:4; stroke-opacity:1; fill:none" points="314.661,218.636 456.854,218.636 "/>
<path clip-path="url(#clip010)" d="M487.96 202.629 L487.96 209.99 L496.733 209.99 L496.733 213.3 L487.96 213.3 L487.96 227.374 Q487.96 230.545 488.817 231.448 Q489.696 232.351 492.358 232.351 L496.733 232.351 L496.733 235.916 L492.358 235.916 Q487.428 235.916 485.553 234.087 Q483.678 232.235 483.678 227.374 L483.678 213.3 L480.553 213.3 L480.553 209.99 L483.678 209.99 L483.678 202.629 L487.96 202.629 Z" fill="#000000" fill-rule="nonzero" fill-opacity="1" /><path clip-path="url(#clip010)" d="M502.891 214.388 L532.566 214.388 L532.566 218.277 L502.891 218.277 L502.891 214.388 M502.891 223.832 L532.566 223.832 L532.566 227.768 L502.891 227.768 L502.891 223.832 Z" fill="#000000" fill-rule="nonzero" fill-opacity="1" /><path clip-path="url(#clip010)" d="M543.469 231.981 L551.108 231.981 L551.108 205.615 L542.798 207.282 L542.798 203.022 L551.062 201.356 L555.738 201.356 L555.738 231.981 L563.376 231.981 L563.376 235.916 L543.469 235.916 L543.469 231.981 Z" fill="#000000" fill-rule="nonzero" fill-opacity="1" /><polyline clip-path="url(#clip010)" style="stroke:#e26f46; stroke-linecap:round; stroke-linejoin:round; stroke-width:4; stroke-opacity:1; fill:none" points="314.661,270.476 456.854,270.476 "/>
<path clip-path="url(#clip010)" d="M487.96 254.469 L487.96 261.83 L496.733 261.83 L496.733 265.14 L487.96 265.14 L487.96 279.214 Q487.96 282.385 488.817 283.288 Q489.696 284.191 492.358 284.191 L496.733 284.191 L496.733 287.756 L492.358 287.756 Q487.428 287.756 485.553 285.927 Q483.678 284.075 483.678 279.214 L483.678 265.14 L480.553 265.14 L480.553 261.83 L483.678 261.83 L483.678 254.469 L487.96 254.469 Z" fill="#000000" fill-rule="nonzero" fill-opacity="1" /><path clip-path="url(#clip010)" d="M502.891 266.228 L532.566 266.228 L532.566 270.117 L502.891 270.117 L502.891 266.228 M502.891 275.672 L532.566 275.672 L532.566 279.608 L502.891 279.608 L502.891 275.672 Z" fill="#000000" fill-rule="nonzero" fill-opacity="1" /><path clip-path="url(#clip010)" d="M546.687 283.821 L563.006 283.821 L563.006 287.756 L541.062 287.756 L541.062 283.821 Q543.724 281.066 548.307 276.436 Q552.914 271.784 554.094 270.441 Q556.339 267.918 557.219 266.182 Q558.122 264.423 558.122 262.733 Q558.122 259.978 556.177 258.242 Q554.256 256.506 551.154 256.506 Q548.955 256.506 546.501 257.27 Q544.071 258.034 541.293 259.585 L541.293 254.862 Q544.117 253.728 546.571 253.149 Q549.025 252.571 551.062 252.571 Q556.432 252.571 559.626 255.256 Q562.821 257.941 562.821 262.432 Q562.821 264.561 562.011 266.483 Q561.224 268.381 559.117 270.973 Q558.538 271.645 555.437 274.862 Q552.335 278.057 546.687 283.821 Z" fill="#000000" fill-rule="nonzero" fill-opacity="1" /><polyline clip-path="url(#clip010)" style="stroke:#3da44d; stroke-linecap:round; stroke-linejoin:round; stroke-width:4; stroke-opacity:1; fill:none" points="314.661,322.316 456.854,322.316 "/>
<path clip-path="url(#clip010)" d="M487.96 306.309 L487.96 313.67 L496.733 313.67 L496.733 316.98 L487.96 316.98 L487.96 331.054 Q487.96 334.225 488.817 335.128 Q489.696 336.031 492.358 336.031 L496.733 336.031 L496.733 339.596 L492.358 339.596 Q487.428 339.596 485.553 337.767 Q483.678 335.915 483.678 331.054 L483.678 316.98 L480.553 316.98 L480.553 313.67 L483.678 313.67 L483.678 306.309 L487.96 306.309 Z" fill="#000000" fill-rule="nonzero" fill-opacity="1" /><path clip-path="url(#clip010)" d="M502.891 318.068 L532.566 318.068 L532.566 321.957 L502.891 321.957 L502.891 318.068 M502.891 327.512 L532.566 327.512 L532.566 331.448 L502.891 331.448 L502.891 327.512 Z" fill="#000000" fill-rule="nonzero" fill-opacity="1" /><path clip-path="url(#clip010)" d="M556.826 320.962 Q560.182 321.679 562.057 323.948 Q563.955 326.216 563.955 329.549 Q563.955 334.665 560.437 337.466 Q556.918 340.267 550.437 340.267 Q548.261 340.267 545.946 339.827 Q543.654 339.411 541.201 338.554 L541.201 334.04 Q543.145 335.174 545.46 335.753 Q547.775 336.332 550.298 336.332 Q554.696 336.332 556.988 334.596 Q559.302 332.86 559.302 329.549 Q559.302 326.494 557.15 324.781 Q555.02 323.045 551.201 323.045 L547.173 323.045 L547.173 319.202 L551.386 319.202 Q554.835 319.202 556.663 317.837 Q558.492 316.448 558.492 313.855 Q558.492 311.193 556.594 309.781 Q554.719 308.346 551.201 308.346 Q549.279 308.346 547.08 308.763 Q544.881 309.179 542.242 310.059 L542.242 305.892 Q544.904 305.151 547.219 304.781 Q549.557 304.411 551.617 304.411 Q556.941 304.411 560.043 306.841 Q563.145 309.249 563.145 313.369 Q563.145 316.239 561.501 318.23 Q559.858 320.198 556.826 320.962 Z" fill="#000000" fill-rule="nonzero" fill-opacity="1" /><polyline clip-path="url(#clip010)" style="stroke:#c271d2; stroke-linecap:round; stroke-linejoin:round; stroke-width:4; stroke-opacity:1; fill:none" points="314.661,374.156 456.854,374.156 "/>
<path clip-path="url(#clip010)" d="M487.96 358.149 L487.96 365.51 L496.733 365.51 L496.733 368.82 L487.96 368.82 L487.96 382.894 Q487.96 386.065 488.817 386.968 Q489.696 387.871 492.358 387.871 L496.733 387.871 L496.733 391.436 L492.358 391.436 Q487.428 391.436 485.553 389.607 Q483.678 387.755 483.678 382.894 L483.678 368.82 L480.553 368.82 L480.553 365.51 L483.678 365.51 L483.678 358.149 L487.96 358.149 Z" fill="#000000" fill-rule="nonzero" fill-opacity="1" /><path clip-path="url(#clip010)" d="M502.891 369.908 L532.566 369.908 L532.566 373.797 L502.891 373.797 L502.891 369.908 M502.891 379.352 L532.566 379.352 L532.566 383.288 L502.891 383.288 L502.891 379.352 Z" fill="#000000" fill-rule="nonzero" fill-opacity="1" /><path clip-path="url(#clip010)" d="M555.506 360.95 L543.701 379.399 L555.506 379.399 L555.506 360.95 M554.279 356.876 L560.159 356.876 L560.159 379.399 L565.089 379.399 L565.089 383.288 L560.159 383.288 L560.159 391.436 L555.506 391.436 L555.506 383.288 L539.904 383.288 L539.904 378.774 L554.279 356.876 Z" fill="#000000" fill-rule="nonzero" fill-opacity="1" /><polyline clip-path="url(#clip010)" style="stroke:#ac8d18; stroke-linecap:round; stroke-linejoin:round; stroke-width:4; stroke-opacity:1; fill:none" points="314.661,425.996 456.854,425.996 "/>
<path clip-path="url(#clip010)" d="M487.96 409.989 L487.96 417.35 L496.733 417.35 L496.733 420.66 L487.96 420.66 L487.96 434.734 Q487.96 437.905 488.817 438.808 Q489.696 439.711 492.358 439.711 L496.733 439.711 L496.733 443.276 L492.358 443.276 Q487.428 443.276 485.553 441.447 Q483.678 439.595 483.678 434.734 L483.678 420.66 L480.553 420.66 L480.553 417.35 L483.678 417.35 L483.678 409.989 L487.96 409.989 Z" fill="#000000" fill-rule="nonzero" fill-opacity="1" /><path clip-path="url(#clip010)" d="M502.891 421.748 L532.566 421.748 L532.566 425.637 L502.891 425.637 L502.891 421.748 M502.891 431.192 L532.566 431.192 L532.566 435.128 L502.891 435.128 L502.891 431.192 Z" fill="#000000" fill-rule="nonzero" fill-opacity="1" /><path clip-path="url(#clip010)" d="M542.705 408.716 L561.062 408.716 L561.062 412.651 L546.988 412.651 L546.988 421.123 Q548.006 420.776 549.025 420.614 Q550.043 420.429 551.062 420.429 Q556.849 420.429 560.228 423.6 Q563.608 426.771 563.608 432.188 Q563.608 437.766 560.136 440.868 Q556.663 443.947 550.344 443.947 Q548.168 443.947 545.9 443.577 Q543.654 443.206 541.247 442.466 L541.247 437.766 Q543.33 438.901 545.552 439.456 Q547.775 440.012 550.251 440.012 Q554.256 440.012 556.594 437.905 Q558.932 435.799 558.932 432.188 Q558.932 428.577 556.594 426.47 Q554.256 424.364 550.251 424.364 Q548.376 424.364 546.501 424.78 Q544.65 425.197 542.705 426.077 L542.705 408.716 Z" fill="#000000" fill-rule="nonzero" fill-opacity="1" /></svg>
