<?xml version="1.0" encoding="utf-8"?>
<svg xmlns="http://www.w3.org/2000/svg" xmlns:xlink="http://www.w3.org/1999/xlink" width="600" height="400" viewBox="0 0 2400 1600">
<defs>
  <clipPath id="clip130">
    <rect x="0" y="0" width="2400" height="1600"/>
  </clipPath>
</defs>
<path clip-path="url(#clip130)" d="M0 1600 L2400 1600 L2400 8.88178e-14 L0 8.88178e-14  Z" fill="#ffffff" fill-rule="evenodd" fill-opacity="1"/>
<defs>
  <clipPath id="clip131">
    <rect x="480" y="0" width="1681" height="1600"/>
  </clipPath>
</defs>
<path clip-path="url(#clip130)" d="M287.366 1423.18 L2352.76 1423.18 L2352.76 123.472 L287.366 123.472  Z" fill="#ffffff" fill-rule="evenodd" fill-opacity="1"/>
<defs>
  <clipPath id="clip132">
    <rect x="287" y="123" width="2066" height="1301"/>
  </clipPath>
</defs>
<polyline clip-path="url(#clip132)" style="stroke:#000000; stroke-linecap:round; stroke-linejoin:round; stroke-width:2; stroke-opacity:0.1; fill:none" points="343.87,1423.18 343.87,123.472 "/>
<polyline clip-path="url(#clip132)" style="stroke:#000000; stroke-linecap:round; stroke-linejoin:round; stroke-width:2; stroke-opacity:0.1; fill:none" points="831.478,1423.18 831.478,123.472 "/>
<polyline clip-path="url(#clip132)" style="stroke:#000000; stroke-linecap:round; stroke-linejoin:round; stroke-width:2; stroke-opacity:0.1; fill:none" points="1319.09,1423.18 1319.09,123.472 "/>
<polyline clip-path="url(#clip132)" style="stroke:#000000; stroke-linecap:round; stroke-linejoin:round; stroke-width:2; stroke-opacity:0.1; fill:none" points="1806.69,1423.18 1806.69,123.472 "/>
<polyline clip-path="url(#clip132)" style="stroke:#000000; stroke-linecap:round; stroke-linejoin:round; stroke-width:2; stroke-opacity:0.1; fill:none" points="2294.3,1423.18 2294.3,123.472 "/>
<polyline clip-path="url(#clip130)" style="stroke:#000000; stroke-linecap:round; stroke-linejoin:round; stroke-width:4; stroke-opacity:1; fill:none" points="287.366,1423.18 2352.76,1423.18 "/>
<polyline clip-path="url(#clip130)" style="stroke:#000000; stroke-linecap:round; stroke-linejoin:round; stroke-width:4; stroke-opacity:1; fill:none" points="343.87,1423.18 343.87,1404.28 "/>
<polyline clip-path="url(#clip130)" style="stroke:#000000; stroke-linecap:round; stroke-linejoin:round; stroke-width:4; stroke-opacity:1; fill:none" points="831.478,1423.18 831.478,1404.28 "/>
<polyline clip-path="url(#clip130)" style="stroke:#000000; stroke-linecap:round; stroke-linejoin:round; stroke-width:4; stroke-opacity:1; fill:none" points="1319.09,1423.18 1319.09,1404.28 "/>
<polyline clip-path="url(#clip130)" style="stroke:#000000; stroke-linecap:round; stroke-linejoin:round; stroke-width:4; stroke-opacity:1; fill:none" points="1806.69,1423.18 1806.69,1404.28 "/>
<polyline clip-path="url(#clip130)" style="stroke:#000000; stroke-linecap:round; stroke-linejoin:round; stroke-width:4; stroke-opacity:1; fill:none" points="2294.3,1423.18 2294.3,1404.28 "/>
<path clip-path="url(#clip130)" d="M343.87 1454.1 Q340.259 1454.1 338.43 1457.66 Q336.625 1461.2 336.625 1468.33 Q336.625 1475.44 338.43 1479.01 Q340.259 1482.55 343.87 1482.55 Q347.504 1482.55 349.31 1479.01 Q351.138 1475.44 351.138 1468.33 Q351.138 1461.2 349.31 1457.66 Q347.504 1454.1 343.87 1454.1 M343.87 1450.39 Q349.68 1450.39 352.736 1455 Q355.814 1459.58 355.814 1468.33 Q355.814 1477.06 352.736 1481.67 Q349.68 1486.25 343.87 1486.25 Q338.06 1486.25 334.981 1481.67 Q331.926 1477.06 331.926 1468.33 Q331.926 1459.58 334.981 1455 Q338.06 1450.39 343.87 1450.39 Z" fill="#000000" fill-rule="nonzero" fill-opacity="1" /><path clip-path="url(#clip130)" d="M795.17 1481.64 L811.489 1481.64 L811.489 1485.58 L789.545 1485.58 L789.545 1481.64 Q792.207 1478.89 796.79 1474.26 Q801.397 1469.61 802.577 1468.27 Q804.823 1465.74 805.702 1464.01 Q806.605 1462.25 806.605 1460.56 Q806.605 1457.8 804.661 1456.07 Q802.74 1454.33 799.638 1454.33 Q797.439 1454.33 794.985 1455.09 Q792.554 1455.86 789.777 1457.41 L789.777 1452.69 Q792.601 1451.55 795.054 1450.97 Q797.508 1450.39 799.545 1450.39 Q804.915 1450.39 808.11 1453.08 Q811.304 1455.77 811.304 1460.26 Q811.304 1462.39 810.494 1464.31 Q809.707 1466.2 807.601 1468.8 Q807.022 1469.47 803.92 1472.69 Q800.818 1475.88 795.17 1481.64 Z" fill="#000000" fill-rule="nonzero" fill-opacity="1" /><path clip-path="url(#clip130)" d="M821.351 1451.02 L839.707 1451.02 L839.707 1454.96 L825.633 1454.96 L825.633 1463.43 Q826.651 1463.08 827.67 1462.92 Q828.688 1462.73 829.707 1462.73 Q835.494 1462.73 838.874 1465.9 Q842.253 1469.08 842.253 1474.49 Q842.253 1480.07 838.781 1483.17 Q835.309 1486.25 828.989 1486.25 Q826.813 1486.25 824.545 1485.88 Q822.3 1485.51 819.892 1484.77 L819.892 1480.07 Q821.976 1481.2 824.198 1481.76 Q826.42 1482.32 828.897 1482.32 Q832.901 1482.32 835.239 1480.21 Q837.577 1478.1 837.577 1474.49 Q837.577 1470.88 835.239 1468.77 Q832.901 1466.67 828.897 1466.67 Q827.022 1466.67 825.147 1467.08 Q823.295 1467.5 821.351 1468.38 L821.351 1451.02 Z" fill="#000000" fill-rule="nonzero" fill-opacity="1" /><path clip-path="url(#clip130)" d="M861.466 1454.1 Q857.855 1454.1 856.026 1457.66 Q854.221 1461.2 854.221 1468.33 Q854.221 1475.44 856.026 1479.01 Q857.855 1482.55 861.466 1482.55 Q865.1 1482.55 866.906 1479.01 Q868.735 1475.44 868.735 1468.33 Q868.735 1461.2 866.906 1457.66 Q865.1 1454.1 861.466 1454.1 M861.466 1450.39 Q867.276 1450.39 870.332 1455 Q873.41 1459.58 873.41 1468.33 Q873.41 1477.06 870.332 1481.67 Q867.276 1486.25 861.466 1486.25 Q855.656 1486.25 852.577 1481.67 Q849.522 1477.06 849.522 1468.33 Q849.522 1459.58 852.577 1455 Q855.656 1450.39 861.466 1450.39 Z" fill="#000000" fill-rule="nonzero" fill-opacity="1" /><path clip-path="url(#clip130)" d="M1278.7 1451.02 L1297.06 1451.02 L1297.06 1454.96 L1282.99 1454.96 L1282.99 1463.43 Q1284 1463.08 1285.02 1462.92 Q1286.04 1462.73 1287.06 1462.73 Q1292.85 1462.73 1296.23 1465.9 Q1299.61 1469.08 1299.61 1474.49 Q1299.61 1480.07 1296.13 1483.17 Q1292.66 1486.25 1286.34 1486.25 Q1284.17 1486.25 1281.9 1485.88 Q1279.65 1485.51 1277.25 1484.77 L1277.25 1480.07 Q1279.33 1481.2 1281.55 1481.76 Q1283.77 1482.32 1286.25 1482.32 Q1290.25 1482.32 1292.59 1480.21 Q1294.93 1478.1 1294.93 1474.49 Q1294.93 1470.88 1292.59 1468.77 Q1290.25 1466.67 1286.25 1466.67 Q1284.38 1466.67 1282.5 1467.08 Q1280.65 1467.5 1278.7 1468.38 L1278.7 1451.02 Z" fill="#000000" fill-rule="nonzero" fill-opacity="1" /><path clip-path="url(#clip130)" d="M1318.82 1454.1 Q1315.21 1454.1 1313.38 1457.66 Q1311.57 1461.2 1311.57 1468.33 Q1311.57 1475.44 1313.38 1479.01 Q1315.21 1482.55 1318.82 1482.55 Q1322.45 1482.55 1324.26 1479.01 Q1326.09 1475.44 1326.09 1468.33 Q1326.09 1461.2 1324.26 1457.66 Q1322.45 1454.1 1318.82 1454.1 M1318.82 1450.39 Q1324.63 1450.39 1327.69 1455 Q1330.76 1459.58 1330.76 1468.33 Q1330.76 1477.06 1327.69 1481.67 Q1324.63 1486.25 1318.82 1486.25 Q1313.01 1486.25 1309.93 1481.67 Q1306.88 1477.06 1306.88 1468.33 Q1306.88 1459.58 1309.93 1455 Q1313.01 1450.39 1318.82 1450.39 Z" fill="#000000" fill-rule="nonzero" fill-opacity="1" /><path clip-path="url(#clip130)" d="M1348.98 1454.1 Q1345.37 1454.1 1343.54 1457.66 Q1341.74 1461.2 1341.74 1468.33 Q1341.74 1475.44 1343.54 1479.01 Q1345.37 1482.55 1348.98 1482.55 Q1352.62 1482.55 1354.42 1479.01 Q1356.25 1475.44 1356.25 1468.33 Q1356.25 1461.2 1354.42 1457.66 Q1352.62 1454.1 1348.98 1454.1 M1348.98 1450.39 Q1354.79 1450.39 1357.85 1455 Q1360.93 1459.58 1360.93 1468.33 Q1360.93 1477.06 1357.85 1481.67 Q1354.79 1486.25 1348.98 1486.25 Q1343.17 1486.25 1340.09 1481.67 Q1337.04 1477.06 1337.04 1468.33 Q1337.04 1459.58 1340.09 1455 Q1343.17 1450.39 1348.98 1450.39 Z" fill="#000000" fill-rule="nonzero" fill-opacity="1" /><path clip-path="url(#clip130)" d="M1764.97 1451.02 L1787.19 1451.02 L1787.19 1453.01 L1774.65 1485.58 L1769.76 1485.58 L1781.57 1454.96 L1764.97 1454.96 L1764.97 1451.02 Z" fill="#000000" fill-rule="nonzero" fill-opacity="1" /><path clip-path="url(#clip130)" d="M1796.36 1451.02 L1814.71 1451.02 L1814.71 1454.96 L1800.64 1454.96 L1800.64 1463.43 Q1801.66 1463.08 1802.68 1462.92 Q1803.7 1462.73 1804.71 1462.73 Q1810.5 1462.73 1813.88 1465.9 Q1817.26 1469.08 1817.26 1474.49 Q1817.26 1480.07 1813.79 1483.17 Q1810.32 1486.25 1804 1486.25 Q1801.82 1486.25 1799.55 1485.88 Q1797.31 1485.51 1794.9 1484.77 L1794.9 1480.07 Q1796.98 1481.2 1799.21 1481.76 Q1801.43 1482.32 1803.9 1482.32 Q1807.91 1482.32 1810.25 1480.21 Q1812.58 1478.1 1812.58 1474.49 Q1812.58 1470.88 1810.25 1468.77 Q1807.91 1466.67 1803.9 1466.67 Q1802.03 1466.67 1800.15 1467.08 Q1798.3 1467.5 1796.36 1468.38 L1796.36 1451.02 Z" fill="#000000" fill-rule="nonzero" fill-opacity="1" /><path clip-path="url(#clip130)" d="M1836.47 1454.1 Q1832.86 1454.1 1831.03 1457.66 Q1829.23 1461.2 1829.23 1468.33 Q1829.23 1475.44 1831.03 1479.01 Q1832.86 1482.55 1836.47 1482.55 Q1840.11 1482.55 1841.91 1479.01 Q1843.74 1475.44 1843.74 1468.33 Q1843.74 1461.2 1841.91 1457.66 Q1840.11 1454.1 1836.47 1454.1 M1836.47 1450.39 Q1842.28 1450.39 1845.34 1455 Q1848.42 1459.58 1848.42 1468.33 Q1848.42 1477.06 1845.34 1481.67 Q1842.28 1486.25 1836.47 1486.25 Q1830.66 1486.25 1827.58 1481.67 Q1824.53 1477.06 1824.53 1468.33 Q1824.53 1459.58 1827.58 1455 Q1830.66 1450.39 1836.47 1450.39 Z" fill="#000000" fill-rule="nonzero" fill-opacity="1" /><path clip-path="url(#clip130)" d="M2238.83 1481.64 L2246.47 1481.64 L2246.47 1455.28 L2238.16 1456.95 L2238.16 1452.69 L2246.42 1451.02 L2251.1 1451.02 L2251.1 1481.64 L2258.73 1481.64 L2258.73 1485.58 L2238.83 1485.58 L2238.83 1481.64 Z" fill="#000000" fill-rule="nonzero" fill-opacity="1" /><path clip-path="url(#clip130)" d="M2278.18 1454.1 Q2274.57 1454.1 2272.74 1457.66 Q2270.93 1461.2 2270.93 1468.33 Q2270.93 1475.44 2272.74 1479.01 Q2274.57 1482.55 2278.18 1482.55 Q2281.81 1482.55 2283.62 1479.01 Q2285.45 1475.44 2285.45 1468.33 Q2285.45 1461.2 2283.62 1457.66 Q2281.81 1454.1 2278.18 1454.1 M2278.18 1450.39 Q2283.99 1450.39 2287.04 1455 Q2290.12 1459.58 2290.12 1468.33 Q2290.12 1477.06 2287.04 1481.67 Q2283.99 1486.25 2278.18 1486.25 Q2272.37 1486.25 2269.29 1481.67 Q2266.23 1477.06 2266.23 1468.33 Q2266.23 1459.58 2269.29 1455 Q2272.37 1450.39 2278.18 1450.39 Z" fill="#000000" fill-rule="nonzero" fill-opacity="1" /><path clip-path="url(#clip130)" d="M2308.34 1454.1 Q2304.73 1454.1 2302.9 1457.66 Q2301.1 1461.2 2301.1 1468.33 Q2301.1 1475.44 2302.9 1479.01 Q2304.73 1482.55 2308.34 1482.55 Q2311.97 1482.55 2313.78 1479.01 Q2315.61 1475.44 2315.61 1468.33 Q2315.61 1461.2 2313.78 1457.66 Q2311.97 1454.1 2308.34 1454.1 M2308.34 1450.39 Q2314.15 1450.39 2317.21 1455 Q2320.29 1459.58 2320.29 1468.33 Q2320.29 1477.06 2317.21 1481.67 Q2314.15 1486.25 2308.34 1486.25 Q2302.53 1486.25 2299.45 1481.67 Q2296.4 1477.06 2296.4 1468.33 Q2296.4 1459.58 2299.45 1455 Q2302.53 1450.39 2308.34 1450.39 Z" fill="#000000" fill-rule="nonzero" fill-opacity="1" /><path clip-path="url(#clip130)" d="M2338.5 1454.1 Q2334.89 1454.1 2333.06 1457.66 Q2331.26 1461.2 2331.26 1468.33 Q2331.26 1475.44 2333.06 1479.01 Q2334.89 1482.55 2338.5 1482.55 Q2342.14 1482.55 2343.94 1479.01 Q2345.77 1475.44 2345.77 1468.33 Q2345.77 1461.2 2343.94 1457.66 Q2342.14 1454.1 2338.5 1454.1 M2338.5 1450.39 Q2344.31 1450.39 2347.37 1455 Q2350.45 1459.58 2350.45 1468.33 Q2350.45 1477.06 2347.37 1481.67 Q2344.31 1486.25 2338.5 1486.25 Q2332.69 1486.25 2329.61 1481.67 Q2326.56 1477.06 2326.56 1468.33 Q2326.56 1459.58 2329.61 1455 Q2332.69 1450.39 2338.5 1450.39 Z" fill="#000000" fill-rule="nonzero" fill-opacity="1" /><path clip-path="url(#clip130)" d="M1283.9 1524.18 L1283.9 1530.96 Q1280.66 1527.94 1276.97 1526.44 Q1273.3 1524.95 1269.17 1524.95 Q1261.02 1524.95 1256.69 1529.95 Q1252.36 1534.91 1252.36 1544.33 Q1252.36 1553.72 1256.69 1558.72 Q1261.02 1563.68 1269.17 1563.68 Q1273.3 1563.68 1276.97 1562.19 Q1280.66 1560.69 1283.9 1557.67 L1283.9 1564.38 Q1280.53 1566.68 1276.74 1567.82 Q1272.99 1568.97 1268.79 1568.97 Q1258 1568.97 1251.79 1562.38 Q1245.58 1555.76 1245.58 1544.33 Q1245.58 1532.87 1251.79 1526.28 Q1258 1519.66 1268.79 1519.66 Q1273.05 1519.66 1276.81 1520.81 Q1280.59 1521.92 1283.9 1524.18 Z" fill="#000000" fill-rule="nonzero" fill-opacity="1" /><path clip-path="url(#clip130)" d="M1324.07 1548.76 L1324.07 1551.62 L1297.14 1551.62 Q1297.53 1557.67 1300.77 1560.85 Q1304.05 1564 1309.88 1564 Q1313.25 1564 1316.4 1563.17 Q1319.58 1562.35 1322.7 1560.69 L1322.7 1566.23 Q1319.55 1567.57 1316.24 1568.27 Q1312.93 1568.97 1309.53 1568.97 Q1301 1568.97 1296 1564 Q1291.03 1559.04 1291.03 1550.57 Q1291.03 1541.82 1295.74 1536.69 Q1300.49 1531.54 1308.51 1531.54 Q1315.7 1531.54 1319.87 1536.18 Q1324.07 1540.8 1324.07 1548.76 M1318.21 1547.04 Q1318.15 1542.23 1315.51 1539.37 Q1312.9 1536.5 1308.57 1536.5 Q1303.67 1536.5 1300.71 1539.27 Q1297.78 1542.04 1297.34 1547.07 L1318.21 1547.04 Z" fill="#000000" fill-rule="nonzero" fill-opacity="1" /><path clip-path="url(#clip130)" d="M1333.68 1518.52 L1339.54 1518.52 L1339.54 1568.04 L1333.68 1568.04 L1333.68 1518.52 Z" fill="#000000" fill-rule="nonzero" fill-opacity="1" /><path clip-path="url(#clip130)" d="M1351.79 1518.52 L1357.65 1518.52 L1357.65 1568.04 L1351.79 1568.04 L1351.79 1518.52 Z" fill="#000000" fill-rule="nonzero" fill-opacity="1" /><path clip-path="url(#clip130)" d="M1392.63 1533.45 L1392.63 1538.98 Q1390.15 1537.71 1387.47 1537.07 Q1384.8 1536.44 1381.94 1536.44 Q1377.58 1536.44 1375.38 1537.77 Q1373.21 1539.11 1373.21 1541.79 Q1373.21 1543.82 1374.77 1545 Q1376.33 1546.15 1381.04 1547.2 L1383.05 1547.64 Q1389.29 1548.98 1391.9 1551.43 Q1394.54 1553.85 1394.54 1558.21 Q1394.54 1563.17 1390.59 1566.07 Q1386.68 1568.97 1379.8 1568.97 Q1376.94 1568.97 1373.82 1568.39 Q1370.73 1567.85 1367.29 1566.74 L1367.29 1560.69 Q1370.54 1562.38 1373.69 1563.24 Q1376.84 1564.07 1379.93 1564.07 Q1384.07 1564.07 1386.3 1562.66 Q1388.52 1561.23 1388.52 1558.65 Q1388.52 1556.27 1386.9 1554.99 Q1385.31 1553.72 1379.87 1552.54 L1377.83 1552.07 Q1372.39 1550.92 1369.97 1548.56 Q1367.55 1546.18 1367.55 1542.04 Q1367.55 1537.01 1371.11 1534.27 Q1374.68 1531.54 1381.24 1531.54 Q1384.48 1531.54 1387.35 1532.01 Q1390.21 1532.49 1392.63 1533.45 Z" fill="#000000" fill-rule="nonzero" fill-opacity="1" /><polyline clip-path="url(#clip132)" style="stroke:#000000; stroke-linecap:round; stroke-linejoin:round; stroke-width:2; stroke-opacity:0.1; fill:none" points="287.366,1343.66 2352.76,1343.66 "/>
<polyline clip-path="url(#clip132)" style="stroke:#000000; stroke-linecap:round; stroke-linejoin:round; stroke-width:2; stroke-opacity:0.1; fill:none" points="287.366,1168.69 2352.76,1168.69 "/>
<polyline clip-path="url(#clip132)" style="stroke:#000000; stroke-linecap:round; stroke-linejoin:round; stroke-width:2; stroke-opacity:0.1; fill:none" points="287.366,993.71 2352.76,993.71 "/>
<polyline clip-path="url(#clip132)" style="stroke:#000000; stroke-linecap:round; stroke-linejoin:round; stroke-width:2; stroke-opacity:0.1; fill:none" points="287.366,818.735 2352.76,818.735 "/>
<polyline clip-path="url(#clip132)" style="stroke:#000000; stroke-linecap:round; stroke-linejoin:round; stroke-width:2; stroke-opacity:0.1; fill:none" points="287.366,643.76 2352.76,643.76 "/>
<polyline clip-path="url(#clip132)" style="stroke:#000000; stroke-linecap:round; stroke-linejoin:round; stroke-width:2; stroke-opacity:0.1; fill:none" points="287.366,468.784 2352.76,468.784 "/>
<polyline clip-path="url(#clip132)" style="stroke:#000000; stroke-linecap:round; stroke-linejoin:round; stroke-width:2; stroke-opacity:0.1; fill:none" points="287.366,293.809 2352.76,293.809 "/>
<polyline clip-path="url(#clip130)" style="stroke:#000000; stroke-linecap:round; stroke-linejoin:round; stroke-width:4; stroke-opacity:1; fill:none" points="287.366,1423.18 287.366,123.472 "/>
<polyline clip-path="url(#clip130)" style="stroke:#000000; stroke-linecap:round; stroke-linejoin:round; stroke-width:4; stroke-opacity:1; fill:none" points="287.366,1343.66 306.264,1343.66 "/>
<polyline clip-path="url(#clip130)" style="stroke:#000000; stroke-linecap:round; stroke-linejoin:round; stroke-width:4; stroke-opacity:1; fill:none" points="287.366,1168.69 306.264,1168.69 "/>
<polyline clip-path="url(#clip130)" style="stroke:#000000; stroke-linecap:round; stroke-linejoin:round; stroke-width:4; stroke-opacity:1; fill:none" points="287.366,993.71 306.264,993.71 "/>
<polyline clip-path="url(#clip130)" style="stroke:#000000; stroke-linecap:round; stroke-linejoin:round; stroke-width:4; stroke-opacity:1; fill:none" points="287.366,818.735 306.264,818.735 "/>
<polyline clip-path="url(#clip130)" style="stroke:#000000; stroke-linecap:round; stroke-linejoin:round; stroke-width:4; stroke-opacity:1; fill:none" points="287.366,643.76 306.264,643.76 "/>
<polyline clip-path="url(#clip130)" style="stroke:#000000; stroke-linecap:round; stroke-linejoin:round; stroke-width:4; stroke-opacity:1; fill:none" points="287.366,468.784 306.264,468.784 "/>
<polyline clip-path="url(#clip130)" style="stroke:#000000; stroke-linecap:round; stroke-linejoin:round; stroke-width:4; stroke-opacity:1; fill:none" points="287.366,293.809 306.264,293.809 "/>
<path clip-path="url(#clip130)" d="M115.256 1344.11 L144.931 1344.11 L144.931 1348.05 L115.256 1348.05 L115.256 1344.11 Z" fill="#000000" fill-rule="nonzero" fill-opacity="1" /><path clip-path="url(#clip130)" d="M165.024 1329.46 Q161.413 1329.46 159.584 1333.02 Q157.778 1336.57 157.778 1343.7 Q157.778 1350.8 159.584 1354.37 Q161.413 1357.91 165.024 1357.91 Q168.658 1357.91 170.464 1354.37 Q172.292 1350.8 172.292 1343.7 Q172.292 1336.57 170.464 1333.02 Q168.658 1329.46 165.024 1329.46 M165.024 1325.76 Q170.834 1325.76 173.889 1330.36 Q176.968 1334.95 176.968 1343.7 Q176.968 1352.42 173.889 1357.03 Q170.834 1361.61 165.024 1361.61 Q159.214 1361.61 156.135 1357.03 Q153.079 1352.42 153.079 1343.7 Q153.079 1334.95 156.135 1330.36 Q159.214 1325.76 165.024 1325.76 Z" fill="#000000" fill-rule="nonzero" fill-opacity="1" /><path clip-path="url(#clip130)" d="M185.186 1355.06 L190.07 1355.06 L190.07 1360.94 L185.186 1360.94 L185.186 1355.06 Z" fill="#000000" fill-rule="nonzero" fill-opacity="1" /><path clip-path="url(#clip130)" d="M199.075 1326.38 L221.297 1326.38 L221.297 1328.37 L208.75 1360.94 L203.866 1360.94 L215.672 1330.32 L199.075 1330.32 L199.075 1326.38 Z" fill="#000000" fill-rule="nonzero" fill-opacity="1" /><path clip-path="url(#clip130)" d="M230.463 1326.38 L248.82 1326.38 L248.82 1330.32 L234.746 1330.32 L234.746 1338.79 Q235.764 1338.44 236.783 1338.28 Q237.801 1338.09 238.82 1338.09 Q244.607 1338.09 247.986 1341.27 Q251.366 1344.44 251.366 1349.85 Q251.366 1355.43 247.894 1358.53 Q244.421 1361.61 238.102 1361.61 Q235.926 1361.61 233.658 1361.24 Q231.412 1360.87 229.005 1360.13 L229.005 1355.43 Q231.088 1356.57 233.31 1357.12 Q235.533 1357.68 238.009 1357.68 Q242.014 1357.68 244.352 1355.57 Q246.69 1353.46 246.69 1349.85 Q246.69 1346.24 244.352 1344.14 Q242.014 1342.03 238.009 1342.03 Q236.135 1342.03 234.26 1342.45 Q232.408 1342.86 230.463 1343.74 L230.463 1326.38 Z" fill="#000000" fill-rule="nonzero" fill-opacity="1" /><path clip-path="url(#clip130)" d="M114.26 1169.14 L143.936 1169.14 L143.936 1173.07 L114.26 1173.07 L114.26 1169.14 Z" fill="#000000" fill-rule="nonzero" fill-opacity="1" /><path clip-path="url(#clip130)" d="M164.028 1154.48 Q160.417 1154.48 158.589 1158.05 Q156.783 1161.59 156.783 1168.72 Q156.783 1175.83 158.589 1179.39 Q160.417 1182.93 164.028 1182.93 Q167.663 1182.93 169.468 1179.39 Q171.297 1175.83 171.297 1168.72 Q171.297 1161.59 169.468 1158.05 Q167.663 1154.48 164.028 1154.48 M164.028 1150.78 Q169.839 1150.78 172.894 1155.39 Q175.973 1159.97 175.973 1168.72 Q175.973 1177.45 172.894 1182.05 Q169.839 1186.64 164.028 1186.64 Q158.218 1186.64 155.14 1182.05 Q152.084 1177.45 152.084 1168.72 Q152.084 1159.97 155.14 1155.39 Q158.218 1150.78 164.028 1150.78 Z" fill="#000000" fill-rule="nonzero" fill-opacity="1" /><path clip-path="url(#clip130)" d="M184.19 1180.09 L189.075 1180.09 L189.075 1185.97 L184.19 1185.97 L184.19 1180.09 Z" fill="#000000" fill-rule="nonzero" fill-opacity="1" /><path clip-path="url(#clip130)" d="M199.306 1151.41 L217.662 1151.41 L217.662 1155.34 L203.588 1155.34 L203.588 1163.81 Q204.607 1163.47 205.625 1163.3 Q206.644 1163.12 207.662 1163.12 Q213.449 1163.12 216.829 1166.29 Q220.209 1169.46 220.209 1174.88 Q220.209 1180.46 216.736 1183.56 Q213.264 1186.64 206.945 1186.64 Q204.769 1186.64 202.5 1186.27 Q200.255 1185.9 197.848 1185.16 L197.848 1180.46 Q199.931 1181.59 202.153 1182.15 Q204.375 1182.7 206.852 1182.7 Q210.857 1182.7 213.195 1180.6 Q215.533 1178.49 215.533 1174.88 Q215.533 1171.27 213.195 1169.16 Q210.857 1167.05 206.852 1167.05 Q204.977 1167.05 203.102 1167.47 Q201.25 1167.89 199.306 1168.77 L199.306 1151.41 Z" fill="#000000" fill-rule="nonzero" fill-opacity="1" /><path clip-path="url(#clip130)" d="M239.422 1154.48 Q235.81 1154.48 233.982 1158.05 Q232.176 1161.59 232.176 1168.72 Q232.176 1175.83 233.982 1179.39 Q235.81 1182.93 239.422 1182.93 Q243.056 1182.93 244.861 1179.39 Q246.69 1175.83 246.69 1168.72 Q246.69 1161.59 244.861 1158.05 Q243.056 1154.48 239.422 1154.48 M239.422 1150.78 Q245.232 1150.78 248.287 1155.39 Q251.366 1159.97 251.366 1168.72 Q251.366 1177.45 248.287 1182.05 Q245.232 1186.64 239.422 1186.64 Q233.611 1186.64 230.533 1182.05 Q227.477 1177.45 227.477 1168.72 Q227.477 1159.97 230.533 1155.39 Q233.611 1150.78 239.422 1150.78 Z" fill="#000000" fill-rule="nonzero" fill-opacity="1" /><path clip-path="url(#clip130)" d="M115.256 994.162 L144.931 994.162 L144.931 998.097 L115.256 998.097 L115.256 994.162 Z" fill="#000000" fill-rule="nonzero" fill-opacity="1" /><path clip-path="url(#clip130)" d="M165.024 979.509 Q161.413 979.509 159.584 983.074 Q157.778 986.615 157.778 993.745 Q157.778 1000.85 159.584 1004.42 Q161.413 1007.96 165.024 1007.96 Q168.658 1007.96 170.464 1004.42 Q172.292 1000.85 172.292 993.745 Q172.292 986.615 170.464 983.074 Q168.658 979.509 165.024 979.509 M165.024 975.805 Q170.834 975.805 173.889 980.412 Q176.968 984.995 176.968 993.745 Q176.968 1002.47 173.889 1007.08 Q170.834 1011.66 165.024 1011.66 Q159.214 1011.66 156.135 1007.08 Q153.079 1002.47 153.079 993.745 Q153.079 984.995 156.135 980.412 Q159.214 975.805 165.024 975.805 Z" fill="#000000" fill-rule="nonzero" fill-opacity="1" /><path clip-path="url(#clip130)" d="M185.186 1005.11 L190.07 1005.11 L190.07 1010.99 L185.186 1010.99 L185.186 1005.11 Z" fill="#000000" fill-rule="nonzero" fill-opacity="1" /><path clip-path="url(#clip130)" d="M204.283 1007.06 L220.602 1007.06 L220.602 1010.99 L198.658 1010.99 L198.658 1007.06 Q201.32 1004.3 205.903 999.671 Q210.51 995.018 211.69 993.676 Q213.936 991.152 214.815 989.416 Q215.718 987.657 215.718 985.967 Q215.718 983.213 213.774 981.477 Q211.852 979.74 208.75 979.74 Q206.551 979.74 204.098 980.504 Q201.667 981.268 198.889 982.819 L198.889 978.097 Q201.713 976.963 204.167 976.384 Q206.621 975.805 208.658 975.805 Q214.028 975.805 217.223 978.49 Q220.417 981.176 220.417 985.666 Q220.417 987.796 219.607 989.717 Q218.82 991.615 216.713 994.208 Q216.135 994.879 213.033 998.097 Q209.931 1001.29 204.283 1007.06 Z" fill="#000000" fill-rule="nonzero" fill-opacity="1" /><path clip-path="url(#clip130)" d="M230.463 976.43 L248.82 976.43 L248.82 980.365 L234.746 980.365 L234.746 988.838 Q235.764 988.49 236.783 988.328 Q237.801 988.143 238.82 988.143 Q244.607 988.143 247.986 991.314 Q251.366 994.486 251.366 999.902 Q251.366 1005.48 247.894 1008.58 Q244.421 1011.66 238.102 1011.66 Q235.926 1011.66 233.658 1011.29 Q231.412 1010.92 229.005 1010.18 L229.005 1005.48 Q231.088 1006.62 233.31 1007.17 Q235.533 1007.73 238.009 1007.73 Q242.014 1007.73 244.352 1005.62 Q246.69 1003.51 246.69 999.902 Q246.69 996.291 244.352 994.185 Q242.014 992.078 238.009 992.078 Q236.135 992.078 234.26 992.495 Q232.408 992.912 230.463 993.791 L230.463 976.43 Z" fill="#000000" fill-rule="nonzero" fill-opacity="1" /><path clip-path="url(#clip130)" d="M164.028 804.534 Q160.417 804.534 158.589 808.098 Q156.783 811.64 156.783 818.77 Q156.783 825.876 158.589 829.441 Q160.417 832.983 164.028 832.983 Q167.663 832.983 169.468 829.441 Q171.297 825.876 171.297 818.77 Q171.297 811.64 169.468 808.098 Q167.663 804.534 164.028 804.534 M164.028 800.83 Q169.839 800.83 172.894 805.436 Q175.973 810.02 175.973 818.77 Q175.973 827.496 172.894 832.103 Q169.839 836.686 164.028 836.686 Q158.218 836.686 155.14 832.103 Q152.084 827.496 152.084 818.77 Q152.084 810.02 155.14 805.436 Q158.218 800.83 164.028 800.83 Z" fill="#000000" fill-rule="nonzero" fill-opacity="1" /><path clip-path="url(#clip130)" d="M184.19 830.135 L189.075 830.135 L189.075 836.015 L184.19 836.015 L184.19 830.135 Z" fill="#000000" fill-rule="nonzero" fill-opacity="1" /><path clip-path="url(#clip130)" d="M209.26 804.534 Q205.649 804.534 203.82 808.098 Q202.014 811.64 202.014 818.77 Q202.014 825.876 203.82 829.441 Q205.649 832.983 209.26 832.983 Q212.894 832.983 214.699 829.441 Q216.528 825.876 216.528 818.77 Q216.528 811.64 214.699 808.098 Q212.894 804.534 209.26 804.534 M209.26 800.83 Q215.07 800.83 218.125 805.436 Q221.204 810.02 221.204 818.77 Q221.204 827.496 218.125 832.103 Q215.07 836.686 209.26 836.686 Q203.449 836.686 200.371 832.103 Q197.315 827.496 197.315 818.77 Q197.315 810.02 200.371 805.436 Q203.449 800.83 209.26 800.83 Z" fill="#000000" fill-rule="nonzero" fill-opacity="1" /><path clip-path="url(#clip130)" d="M239.422 804.534 Q235.81 804.534 233.982 808.098 Q232.176 811.64 232.176 818.77 Q232.176 825.876 233.982 829.441 Q235.81 832.983 239.422 832.983 Q243.056 832.983 244.861 829.441 Q246.69 825.876 246.69 818.77 Q246.69 811.64 244.861 808.098 Q243.056 804.534 239.422 804.534 M239.422 800.83 Q245.232 800.83 248.287 805.436 Q251.366 810.02 251.366 818.77 Q251.366 827.496 248.287 832.103 Q245.232 836.686 239.422 836.686 Q233.611 836.686 230.533 832.103 Q227.477 827.496 227.477 818.77 Q227.477 810.02 230.533 805.436 Q233.611 800.83 239.422 800.83 Z" fill="#000000" fill-rule="nonzero" fill-opacity="1" /><path clip-path="url(#clip130)" d="M165.024 629.558 Q161.413 629.558 159.584 633.123 Q157.778 636.665 157.778 643.794 Q157.778 650.901 159.584 654.466 Q161.413 658.007 165.024 658.007 Q168.658 658.007 170.464 654.466 Q172.292 650.901 172.292 643.794 Q172.292 636.665 170.464 633.123 Q168.658 629.558 165.024 629.558 M165.024 625.855 Q170.834 625.855 173.889 630.461 Q176.968 635.044 176.968 643.794 Q176.968 652.521 173.889 657.128 Q170.834 661.711 165.024 661.711 Q159.214 661.711 156.135 657.128 Q153.079 652.521 153.079 643.794 Q153.079 635.044 156.135 630.461 Q159.214 625.855 165.024 625.855 Z" fill="#000000" fill-rule="nonzero" fill-opacity="1" /><path clip-path="url(#clip130)" d="M185.186 655.16 L190.07 655.16 L190.07 661.04 L185.186 661.04 L185.186 655.16 Z" fill="#000000" fill-rule="nonzero" fill-opacity="1" /><path clip-path="url(#clip130)" d="M204.283 657.104 L220.602 657.104 L220.602 661.04 L198.658 661.04 L198.658 657.104 Q201.32 654.35 205.903 649.72 Q210.51 645.068 211.69 643.725 Q213.936 641.202 214.815 639.466 Q215.718 637.706 215.718 636.017 Q215.718 633.262 213.774 631.526 Q211.852 629.79 208.75 629.79 Q206.551 629.79 204.098 630.554 Q201.667 631.318 198.889 632.868 L198.889 628.146 Q201.713 627.012 204.167 626.433 Q206.621 625.855 208.658 625.855 Q214.028 625.855 217.223 628.54 Q220.417 631.225 220.417 635.716 Q220.417 637.845 219.607 639.767 Q218.82 641.665 216.713 644.257 Q216.135 644.929 213.033 648.146 Q209.931 651.341 204.283 657.104 Z" fill="#000000" fill-rule="nonzero" fill-opacity="1" /><path clip-path="url(#clip130)" d="M230.463 626.48 L248.82 626.48 L248.82 630.415 L234.746 630.415 L234.746 638.887 Q235.764 638.54 236.783 638.378 Q237.801 638.193 238.82 638.193 Q244.607 638.193 247.986 641.364 Q251.366 644.535 251.366 649.952 Q251.366 655.53 247.894 658.632 Q244.421 661.711 238.102 661.711 Q235.926 661.711 233.658 661.341 Q231.412 660.97 229.005 660.229 L229.005 655.53 Q231.088 656.665 233.31 657.22 Q235.533 657.776 238.009 657.776 Q242.014 657.776 244.352 655.669 Q246.69 653.563 246.69 649.952 Q246.69 646.341 244.352 644.234 Q242.014 642.128 238.009 642.128 Q236.135 642.128 234.26 642.544 Q232.408 642.961 230.463 643.841 L230.463 626.48 Z" fill="#000000" fill-rule="nonzero" fill-opacity="1" /><path clip-path="url(#clip130)" d="M164.028 454.583 Q160.417 454.583 158.589 458.148 Q156.783 461.689 156.783 468.819 Q156.783 475.925 158.589 479.49 Q160.417 483.032 164.028 483.032 Q167.663 483.032 169.468 479.49 Q171.297 475.925 171.297 468.819 Q171.297 461.689 169.468 458.148 Q167.663 454.583 164.028 454.583 M164.028 450.879 Q169.839 450.879 172.894 455.486 Q175.973 460.069 175.973 468.819 Q175.973 477.546 172.894 482.152 Q169.839 486.736 164.028 486.736 Q158.218 486.736 155.14 482.152 Q152.084 477.546 152.084 468.819 Q152.084 460.069 155.14 455.486 Q158.218 450.879 164.028 450.879 Z" fill="#000000" fill-rule="nonzero" fill-opacity="1" /><path clip-path="url(#clip130)" d="M184.19 480.185 L189.075 480.185 L189.075 486.064 L184.19 486.064 L184.19 480.185 Z" fill="#000000" fill-rule="nonzero" fill-opacity="1" /><path clip-path="url(#clip130)" d="M199.306 451.504 L217.662 451.504 L217.662 455.439 L203.588 455.439 L203.588 463.912 Q204.607 463.564 205.625 463.402 Q206.644 463.217 207.662 463.217 Q213.449 463.217 216.829 466.389 Q220.209 469.56 220.209 474.976 Q220.209 480.555 216.736 483.657 Q213.264 486.736 206.945 486.736 Q204.769 486.736 202.5 486.365 Q200.255 485.995 197.848 485.254 L197.848 480.555 Q199.931 481.689 202.153 482.245 Q204.375 482.8 206.852 482.8 Q210.857 482.8 213.195 480.694 Q215.533 478.588 215.533 474.976 Q215.533 471.365 213.195 469.259 Q210.857 467.152 206.852 467.152 Q204.977 467.152 203.102 467.569 Q201.25 467.986 199.306 468.865 L199.306 451.504 Z" fill="#000000" fill-rule="nonzero" fill-opacity="1" /><path clip-path="url(#clip130)" d="M239.422 454.583 Q235.81 454.583 233.982 458.148 Q232.176 461.689 232.176 468.819 Q232.176 475.925 233.982 479.49 Q235.81 483.032 239.422 483.032 Q243.056 483.032 244.861 479.49 Q246.69 475.925 246.69 468.819 Q246.69 461.689 244.861 458.148 Q243.056 454.583 239.422 454.583 M239.422 450.879 Q245.232 450.879 248.287 455.486 Q251.366 460.069 251.366 468.819 Q251.366 477.546 248.287 482.152 Q245.232 486.736 239.422 486.736 Q233.611 486.736 230.533 482.152 Q227.477 477.546 227.477 468.819 Q227.477 460.069 230.533 455.486 Q233.611 450.879 239.422 450.879 Z" fill="#000000" fill-rule="nonzero" fill-opacity="1" /><path clip-path="url(#clip130)" d="M165.024 279.608 Q161.413 279.608 159.584 283.172 Q157.778 286.714 157.778 293.844 Q157.778 300.95 159.584 304.515 Q161.413 308.057 165.024 308.057 Q168.658 308.057 170.464 304.515 Q172.292 300.95 172.292 293.844 Q172.292 286.714 170.464 283.172 Q168.658 279.608 165.024 279.608 M165.024 275.904 Q170.834 275.904 173.889 280.51 Q176.968 285.094 176.968 293.844 Q176.968 302.571 173.889 307.177 Q170.834 311.76 165.024 311.76 Q159.214 311.76 156.135 307.177 Q153.079 302.571 153.079 293.844 Q153.079 285.094 156.135 280.51 Q159.214 275.904 165.024 275.904 Z" fill="#000000" fill-rule="nonzero" fill-opacity="1" /><path clip-path="url(#clip130)" d="M185.186 305.209 L190.07 305.209 L190.07 311.089 L185.186 311.089 L185.186 305.209 Z" fill="#000000" fill-rule="nonzero" fill-opacity="1" /><path clip-path="url(#clip130)" d="M199.075 276.529 L221.297 276.529 L221.297 278.52 L208.75 311.089 L203.866 311.089 L215.672 280.464 L199.075 280.464 L199.075 276.529 Z" fill="#000000" fill-rule="nonzero" fill-opacity="1" /><path clip-path="url(#clip130)" d="M230.463 276.529 L248.82 276.529 L248.82 280.464 L234.746 280.464 L234.746 288.936 Q235.764 288.589 236.783 288.427 Q237.801 288.242 238.82 288.242 Q244.607 288.242 247.986 291.413 Q251.366 294.584 251.366 300.001 Q251.366 305.58 247.894 308.682 Q244.421 311.76 238.102 311.76 Q235.926 311.76 233.658 311.39 Q231.412 311.02 229.005 310.279 L229.005 305.58 Q231.088 306.714 233.31 307.27 Q235.533 307.825 238.009 307.825 Q242.014 307.825 244.352 305.719 Q246.69 303.612 246.69 300.001 Q246.69 296.39 244.352 294.284 Q242.014 292.177 238.009 292.177 Q236.135 292.177 234.26 292.594 Q232.408 293.01 230.463 293.89 L230.463 276.529 Z" fill="#000000" fill-rule="nonzero" fill-opacity="1" /><path clip-path="url(#clip130)" d="M18.0438 893.717 L24.314 893.717 Q22.5634 897.378 21.704 900.624 Q20.8447 903.871 20.8447 906.894 Q20.8447 912.146 22.8817 915.011 Q24.9187 917.843 28.6745 917.843 Q31.8255 917.843 33.4488 915.966 Q35.0402 914.056 36.0269 908.772 L36.8226 904.889 Q38.1912 897.696 41.6605 894.29 Q45.098 890.853 50.8908 890.853 Q57.7976 890.853 61.3624 895.5 Q64.9272 900.115 64.9272 909.059 Q64.9272 912.433 64.1633 916.252 Q63.3994 920.04 61.9035 924.114 L55.2831 924.114 Q57.4793 920.199 58.5933 916.443 Q59.7073 912.687 59.7073 909.059 Q59.7073 903.552 57.543 900.561 Q55.3786 897.569 51.3682 897.569 Q47.8671 897.569 45.8937 899.733 Q43.9204 901.866 42.9337 906.767 L42.1698 910.682 Q40.7375 917.875 37.682 921.09 Q34.6264 924.305 29.1837 924.305 Q22.8817 924.305 19.2532 919.88 Q15.6248 915.424 15.6248 907.626 Q15.6248 904.284 16.2295 900.815 Q16.8343 897.346 18.0438 893.717 Z" fill="#000000" fill-rule="nonzero" fill-opacity="1" /><path clip-path="url(#clip130)" d="M28.3562 881.081 L28.3562 875.225 L64.0042 875.225 L64.0042 881.081 L28.3562 881.081 M14.479 881.081 L14.479 875.225 L21.895 875.225 L21.895 881.081 L14.479 881.081 Z" fill="#000000" fill-rule="nonzero" fill-opacity="1" /><path clip-path="url(#clip130)" d="M35.1993 835.217 Q31.2526 833.02 29.3747 829.965 Q27.4968 826.909 27.4968 822.772 Q27.4968 817.202 31.4117 814.178 Q35.2948 811.154 42.4881 811.154 L64.0042 811.154 L64.0042 817.042 L42.679 817.042 Q37.5546 817.042 35.072 818.857 Q32.5894 820.671 32.5894 824.395 Q32.5894 828.946 35.6131 831.588 Q38.6368 834.23 43.8567 834.23 L64.0042 834.23 L64.0042 840.118 L42.679 840.118 Q37.5228 840.118 35.072 841.932 Q32.5894 843.747 32.5894 847.534 Q32.5894 852.022 35.6449 854.664 Q38.6686 857.306 43.8567 857.306 L64.0042 857.306 L64.0042 863.194 L28.3562 863.194 L28.3562 857.306 L33.8944 857.306 Q30.616 855.3 29.0564 852.499 Q27.4968 849.699 27.4968 845.847 Q27.4968 841.964 29.4702 839.259 Q31.4436 836.522 35.1993 835.217 Z" fill="#000000" fill-rule="nonzero" fill-opacity="1" /><path clip-path="url(#clip130)" d="M28.3562 799.473 L28.3562 793.617 L64.0042 793.617 L64.0042 799.473 L28.3562 799.473 M14.479 799.473 L14.479 793.617 L21.895 793.617 L21.895 799.473 L14.479 799.473 Z" fill="#000000" fill-rule="nonzero" fill-opacity="1" /><path clip-path="url(#clip130)" d="M14.479 781.363 L14.479 775.506 L64.0042 775.506 L64.0042 781.363 L14.479 781.363 Z" fill="#000000" fill-rule="nonzero" fill-opacity="1" /><path clip-path="url(#clip130)" d="M46.0847 747.052 Q46.0847 754.149 47.7079 756.887 Q49.3312 759.624 53.2461 759.624 Q56.3653 759.624 58.2114 757.587 Q60.0256 755.518 60.0256 751.985 Q60.0256 747.115 56.5881 744.187 Q53.1188 741.227 47.3897 741.227 L46.0847 741.227 L46.0847 747.052 M43.6657 735.37 L64.0042 735.37 L64.0042 741.227 L58.5933 741.227 Q61.8398 743.232 63.3994 746.224 Q64.9272 749.216 64.9272 753.545 Q64.9272 759.019 61.8716 762.266 Q58.7843 765.48 53.6281 765.48 Q47.6125 765.48 44.5569 761.47 Q41.5014 757.428 41.5014 749.439 L41.5014 741.227 L40.9285 741.227 Q36.8862 741.227 34.6901 743.901 Q32.4621 746.542 32.4621 751.348 Q32.4621 754.404 33.1941 757.3 Q33.9262 760.197 35.3903 762.87 L29.9795 762.87 Q28.7381 759.656 28.1334 756.632 Q27.4968 753.608 27.4968 750.744 Q27.4968 743.009 31.5072 739.19 Q35.5176 735.37 43.6657 735.37 Z" fill="#000000" fill-rule="nonzero" fill-opacity="1" /><path clip-path="url(#clip130)" d="M33.8307 702.651 Q33.2578 703.637 33.0032 704.815 Q32.7167 705.961 32.7167 707.361 Q32.7167 712.327 35.9632 715 Q39.1779 717.642 45.2253 717.642 L64.0042 717.642 L64.0042 723.53 L28.3562 723.53 L28.3562 717.642 L33.8944 717.642 Q30.6479 715.796 29.0883 712.836 Q27.4968 709.876 27.4968 705.643 Q27.4968 705.038 27.5923 704.306 Q27.656 703.574 27.8151 702.683 L33.8307 702.651 Z" fill="#000000" fill-rule="nonzero" fill-opacity="1" /><path clip-path="url(#clip130)" d="M28.3562 696.508 L28.3562 690.651 L64.0042 690.651 L64.0042 696.508 L28.3562 696.508 M14.479 696.508 L14.479 690.651 L21.895 690.651 L21.895 696.508 L14.479 696.508 Z" fill="#000000" fill-rule="nonzero" fill-opacity="1" /><path clip-path="url(#clip130)" d="M18.2347 672.605 L28.3562 672.605 L28.3562 660.542 L32.9077 660.542 L32.9077 672.605 L52.2594 672.605 Q56.6199 672.605 57.8613 671.427 Q59.1026 670.217 59.1026 666.557 L59.1026 660.542 L64.0042 660.542 L64.0042 666.557 Q64.0042 673.337 61.4897 675.915 Q58.9434 678.493 52.2594 678.493 L32.9077 678.493 L32.9077 682.79 L28.3562 682.79 L28.3562 678.493 L18.2347 678.493 L18.2347 672.605 Z" fill="#000000" fill-rule="nonzero" fill-opacity="1" /><path clip-path="url(#clip130)" d="M67.3143 638.007 Q73.68 640.49 75.6216 642.845 Q77.5631 645.2 77.5631 649.147 L77.5631 653.826 L72.6615 653.826 L72.6615 650.388 Q72.6615 647.969 71.5157 646.633 Q70.3699 645.296 66.1048 643.672 L63.4312 642.622 L28.3562 657.04 L28.3562 650.834 L56.238 639.694 L28.3562 628.554 L28.3562 622.347 L67.3143 638.007 Z" fill="#000000" fill-rule="nonzero" fill-opacity="1" /><path clip-path="url(#clip130)" d="M438.726 14.0809 L438.726 22.0612 Q434.067 19.8332 429.935 18.7395 Q425.804 17.6457 421.955 17.6457 Q415.271 17.6457 411.625 20.2383 Q408.02 22.8309 408.02 27.611 Q408.02 31.6214 410.41 33.6873 Q412.841 35.7128 419.565 36.9686 L424.507 37.9813 Q433.662 39.7232 437.997 44.1387 Q442.372 48.5136 442.372 55.8863 Q442.372 64.6767 436.457 69.2137 Q430.584 73.7508 419.201 73.7508 Q414.907 73.7508 410.046 72.7785 Q405.225 71.8063 400.04 69.9024 L400.04 61.4765 Q405.022 64.2716 409.802 65.6895 Q414.583 67.1073 419.201 67.1073 Q426.209 67.1073 430.016 64.3527 Q433.824 61.598 433.824 56.4939 Q433.824 52.0379 431.07 49.5264 Q428.356 47.0148 422.117 45.759 L417.135 44.7868 Q407.98 42.9639 403.888 39.075 Q399.797 35.1862 399.797 28.2591 Q399.797 20.2383 405.427 15.6203 Q411.099 11.0023 421.023 11.0023 Q425.277 11.0023 429.692 11.7719 Q434.108 12.5416 438.726 14.0809 Z" fill="#000000" fill-rule="nonzero" fill-opacity="1" /><path clip-path="url(#clip130)" d="M472.389 32.4315 Q466.394 32.4315 462.91 37.1306 Q459.426 41.7891 459.426 49.9314 Q459.426 58.0738 462.869 62.7728 Q466.353 67.4314 472.389 67.4314 Q478.344 67.4314 481.828 62.7323 Q485.311 58.0333 485.311 49.9314 Q485.311 41.8701 481.828 37.1711 Q478.344 32.4315 472.389 32.4315 M472.389 26.1121 Q482.111 26.1121 487.661 32.4315 Q493.211 38.7509 493.211 49.9314 Q493.211 61.0714 487.661 67.4314 Q482.111 73.7508 472.389 73.7508 Q462.626 73.7508 457.077 67.4314 Q451.567 61.0714 451.567 49.9314 Q451.567 38.7509 457.077 32.4315 Q462.626 26.1121 472.389 26.1121 Z" fill="#000000" fill-rule="nonzero" fill-opacity="1" /><path clip-path="url(#clip130)" d="M531.856 34.1734 Q530.6 33.4443 529.102 33.1202 Q527.643 32.7556 525.861 32.7556 Q519.541 32.7556 516.139 36.8875 Q512.776 40.9789 512.776 48.6757 L512.776 72.576 L505.282 72.576 L505.282 27.2059 L512.776 27.2059 L512.776 34.2544 Q515.126 30.1225 518.893 28.1376 Q522.661 26.1121 528.048 26.1121 Q528.818 26.1121 529.75 26.2337 Q530.681 26.3147 531.816 26.5172 L531.856 34.1734 Z" fill="#000000" fill-rule="nonzero" fill-opacity="1" /><path clip-path="url(#clip130)" d="M547.047 14.324 L547.047 27.2059 L562.4 27.2059 L562.4 32.9987 L547.047 32.9987 L547.047 57.6282 Q547.047 63.1779 548.546 64.7578 Q550.085 66.3376 554.744 66.3376 L562.4 66.3376 L562.4 72.576 L554.744 72.576 Q546.115 72.576 542.834 69.3758 Q539.553 66.1351 539.553 57.6282 L539.553 32.9987 L534.084 32.9987 L534.084 27.2059 L539.553 27.2059 L539.553 14.324 L547.047 14.324 Z" fill="#000000" fill-rule="nonzero" fill-opacity="1" /><path clip-path="url(#clip130)" d="M611.011 48.0275 L611.011 51.6733 L576.74 51.6733 Q577.226 59.3701 581.358 63.421 Q585.531 67.4314 592.944 67.4314 Q597.238 67.4314 601.248 66.3781 Q605.299 65.3249 609.269 63.2184 L609.269 70.267 Q605.259 71.9684 601.046 72.8596 Q596.833 73.7508 592.498 73.7508 Q581.642 73.7508 575.282 67.4314 Q568.962 61.1119 568.962 50.3365 Q568.962 39.1965 574.958 32.6746 Q580.994 26.1121 591.202 26.1121 Q600.357 26.1121 605.664 32.0264 Q611.011 37.9003 611.011 48.0275 M603.557 45.84 Q603.476 39.7232 600.114 36.0774 Q596.792 32.4315 591.283 32.4315 Q585.045 32.4315 581.277 35.9558 Q577.55 39.4801 576.983 45.8805 L603.557 45.84 Z" fill="#000000" fill-rule="nonzero" fill-opacity="1" /><path clip-path="url(#clip130)" d="M653.1 34.0924 L653.1 9.54393 L660.553 9.54393 L660.553 72.576 L653.1 72.576 L653.1 65.7705 Q650.75 69.8214 647.145 71.8063 Q643.58 73.7508 638.557 73.7508 Q630.334 73.7508 625.149 67.1883 Q620.004 60.6258 620.004 49.9314 Q620.004 39.2371 625.149 32.6746 Q630.334 26.1121 638.557 26.1121 Q643.58 26.1121 647.145 28.0971 Q650.75 30.0415 653.1 34.0924 M627.701 49.9314 Q627.701 58.1548 631.063 62.8538 Q634.466 67.5124 640.38 67.5124 Q646.294 67.5124 649.697 62.8538 Q653.1 58.1548 653.1 49.9314 Q653.1 41.7081 649.697 37.0496 Q646.294 32.3505 640.38 32.3505 Q634.466 32.3505 631.063 37.0496 Q627.701 41.7081 627.701 49.9314 Z" fill="#000000" fill-rule="nonzero" fill-opacity="1" /><path clip-path="url(#clip130)" d="M734.928 28.9478 L734.928 35.9153 Q731.768 34.1734 728.568 33.3227 Q725.408 32.4315 722.168 32.4315 Q714.917 32.4315 710.906 37.0496 Q706.896 41.6271 706.896 49.9314 Q706.896 58.2358 710.906 62.8538 Q714.917 67.4314 722.168 67.4314 Q725.408 67.4314 728.568 66.5807 Q731.768 65.6895 734.928 63.9476 L734.928 70.8341 Q731.809 72.2924 728.447 73.0216 Q725.125 73.7508 721.358 73.7508 Q711.109 73.7508 705.073 67.3098 Q699.037 60.8689 699.037 49.9314 Q699.037 38.832 705.113 32.472 Q711.23 26.1121 721.844 26.1121 Q725.287 26.1121 728.568 26.8413 Q731.849 27.5299 734.928 28.9478 Z" fill="#000000" fill-rule="nonzero" fill-opacity="1" /><path clip-path="url(#clip130)" d="M765.472 32.4315 Q759.477 32.4315 755.993 37.1306 Q752.509 41.7891 752.509 49.9314 Q752.509 58.0738 755.952 62.7728 Q759.436 67.4314 765.472 67.4314 Q771.427 67.4314 774.91 62.7323 Q778.394 58.0333 778.394 49.9314 Q778.394 41.8701 774.91 37.1711 Q771.427 32.4315 765.472 32.4315 M765.472 26.1121 Q775.194 26.1121 780.744 32.4315 Q786.294 38.7509 786.294 49.9314 Q786.294 61.0714 780.744 67.4314 Q775.194 73.7508 765.472 73.7508 Q755.709 73.7508 750.159 67.4314 Q744.65 61.0714 744.65 49.9314 Q744.65 38.7509 750.159 32.4315 Q755.709 26.1121 765.472 26.1121 Z" fill="#000000" fill-rule="nonzero" fill-opacity="1" /><path clip-path="url(#clip130)" d="M827.572 28.5427 L827.572 35.5912 Q824.413 33.9709 821.01 33.1607 Q817.607 32.3505 813.961 32.3505 Q808.411 32.3505 805.616 34.0519 Q802.862 35.7533 802.862 39.156 Q802.862 41.7486 804.847 43.2475 Q806.832 44.7058 812.827 46.0426 L815.379 46.6097 Q823.319 48.3111 826.641 51.4303 Q830.003 54.509 830.003 60.0587 Q830.003 66.3781 824.98 70.0644 Q819.997 73.7508 811.247 73.7508 Q807.601 73.7508 803.631 73.0216 Q799.702 72.3329 795.327 70.9151 L795.327 63.2184 Q799.459 65.3654 803.469 66.4591 Q807.48 67.5124 811.409 67.5124 Q816.675 67.5124 819.511 65.73 Q822.347 63.9071 822.347 60.6258 Q822.347 57.5877 820.281 55.9673 Q818.255 54.3469 811.328 52.8481 L808.736 52.2405 Q801.808 50.7821 798.73 47.7845 Q795.651 44.7463 795.651 39.4801 Q795.651 33.0797 800.188 29.5959 Q804.725 26.1121 813.07 26.1121 Q817.202 26.1121 820.848 26.7198 Q824.494 27.3274 827.572 28.5427 Z" fill="#000000" fill-rule="nonzero" fill-opacity="1" /><path clip-path="url(#clip130)" d="M841.872 27.2059 L849.326 27.2059 L849.326 72.576 L841.872 72.576 L841.872 27.2059 M841.872 9.54393 L849.326 9.54393 L849.326 18.9825 L841.872 18.9825 L841.872 9.54393 Z" fill="#000000" fill-rule="nonzero" fill-opacity="1" /><path clip-path="url(#clip130)" d="M902.635 45.1919 L902.635 72.576 L895.182 72.576 L895.182 45.4349 Q895.182 38.994 892.67 35.7938 Q890.159 32.5936 885.136 32.5936 Q879.1 32.5936 875.616 36.4419 Q872.132 40.2903 872.132 46.9338 L872.132 72.576 L864.638 72.576 L864.638 27.2059 L872.132 27.2059 L872.132 34.2544 Q874.806 30.163 878.411 28.1376 Q882.057 26.1121 886.796 26.1121 Q894.615 26.1121 898.625 30.9732 Q902.635 35.7938 902.635 45.1919 Z" fill="#000000" fill-rule="nonzero" fill-opacity="1" /><path clip-path="url(#clip130)" d="M956.31 48.0275 L956.31 51.6733 L922.039 51.6733 Q922.525 59.3701 926.657 63.421 Q930.83 67.4314 938.243 67.4314 Q942.537 67.4314 946.547 66.3781 Q950.598 65.3249 954.568 63.2184 L954.568 70.267 Q950.558 71.9684 946.345 72.8596 Q942.132 73.7508 937.797 73.7508 Q926.941 73.7508 920.581 67.4314 Q914.262 61.1119 914.262 50.3365 Q914.262 39.1965 920.257 32.6746 Q926.293 26.1121 936.501 26.1121 Q945.656 26.1121 950.963 32.0264 Q956.31 37.9003 956.31 48.0275 M948.856 45.84 Q948.775 39.7232 945.413 36.0774 Q942.091 32.4315 936.582 32.4315 Q930.344 32.4315 926.576 35.9558 Q922.849 39.4801 922.282 45.8805 L948.856 45.84 Z" fill="#000000" fill-rule="nonzero" fill-opacity="1" /><path clip-path="url(#clip130)" d="M1023.84 28.5427 L1023.84 35.5912 Q1020.68 33.9709 1017.28 33.1607 Q1013.87 32.3505 1010.23 32.3505 Q1004.68 32.3505 1001.88 34.0519 Q999.128 35.7533 999.128 39.156 Q999.128 41.7486 1001.11 43.2475 Q1003.1 44.7058 1009.09 46.0426 L1011.65 46.6097 Q1019.59 48.3111 1022.91 51.4303 Q1026.27 54.509 1026.27 60.0587 Q1026.27 66.3781 1021.25 70.0644 Q1016.26 73.7508 1007.51 73.7508 Q1003.87 73.7508 999.898 73.0216 Q995.968 72.3329 991.593 70.9151 L991.593 63.2184 Q995.725 65.3654 999.736 66.4591 Q1003.75 67.5124 1007.68 67.5124 Q1012.94 67.5124 1015.78 65.73 Q1018.61 63.9071 1018.61 60.6258 Q1018.61 57.5877 1016.55 55.9673 Q1014.52 54.3469 1007.59 52.8481 L1005 52.2405 Q998.075 50.7821 994.996 47.7845 Q991.917 44.7463 991.917 39.4801 Q991.917 33.0797 996.454 29.5959 Q1000.99 26.1121 1009.34 26.1121 Q1013.47 26.1121 1017.11 26.7198 Q1020.76 27.3274 1023.84 28.5427 Z" fill="#000000" fill-rule="nonzero" fill-opacity="1" /><path clip-path="url(#clip130)" d="M1038.14 27.2059 L1045.59 27.2059 L1045.59 72.576 L1038.14 72.576 L1038.14 27.2059 M1038.14 9.54393 L1045.59 9.54393 L1045.59 18.9825 L1038.14 18.9825 L1038.14 9.54393 Z" fill="#000000" fill-rule="nonzero" fill-opacity="1" /><path clip-path="url(#clip130)" d="M1096.51 35.9153 Q1099.31 30.8922 1103.2 28.5022 Q1107.08 26.1121 1112.35 26.1121 Q1119.44 26.1121 1123.29 31.0947 Q1127.14 36.0368 1127.14 45.1919 L1127.14 72.576 L1119.64 72.576 L1119.64 45.4349 Q1119.64 38.913 1117.33 35.7533 Q1115.02 32.5936 1110.28 32.5936 Q1104.49 32.5936 1101.13 36.4419 Q1097.77 40.2903 1097.77 46.9338 L1097.77 72.576 L1090.27 72.576 L1090.27 45.4349 Q1090.27 38.8725 1087.96 35.7533 Q1085.66 32.5936 1080.83 32.5936 Q1075.12 32.5936 1071.76 36.4824 Q1068.4 40.3308 1068.4 46.9338 L1068.4 72.576 L1060.9 72.576 L1060.9 27.2059 L1068.4 27.2059 L1068.4 34.2544 Q1070.95 30.082 1074.52 28.0971 Q1078.08 26.1121 1082.98 26.1121 Q1087.92 26.1121 1091.37 28.6237 Q1094.85 31.1352 1096.51 35.9153 Z" fill="#000000" fill-rule="nonzero" fill-opacity="1" /><path clip-path="url(#clip130)" d="M1142 27.2059 L1149.46 27.2059 L1149.46 72.576 L1142 72.576 L1142 27.2059 M1142 9.54393 L1149.46 9.54393 L1149.46 18.9825 L1142 18.9825 L1142 9.54393 Z" fill="#000000" fill-rule="nonzero" fill-opacity="1" /><path clip-path="url(#clip130)" d="M1165.05 9.54393 L1172.51 9.54393 L1172.51 72.576 L1165.05 72.576 L1165.05 9.54393 Z" fill="#000000" fill-rule="nonzero" fill-opacity="1" /><path clip-path="url(#clip130)" d="M1208.72 49.7694 Q1199.69 49.7694 1196.2 51.8354 Q1192.72 53.9013 1192.72 58.8839 Q1192.72 62.8538 1195.31 65.2034 Q1197.95 67.5124 1202.44 67.5124 Q1208.64 67.5124 1212.37 63.1374 Q1216.13 58.7219 1216.13 51.4303 L1216.13 49.7694 L1208.72 49.7694 M1223.59 46.6907 L1223.59 72.576 L1216.13 72.576 L1216.13 65.6895 Q1213.58 69.8214 1209.78 71.8063 Q1205.97 73.7508 1200.46 73.7508 Q1193.49 73.7508 1189.36 69.8619 Q1185.27 65.9325 1185.27 59.3701 Q1185.27 51.7138 1190.37 47.825 Q1195.52 43.9361 1205.68 43.9361 L1216.13 43.9361 L1216.13 43.2069 Q1216.13 38.0623 1212.73 35.2672 Q1209.37 32.4315 1203.25 32.4315 Q1199.36 32.4315 1195.68 33.3632 Q1191.99 34.295 1188.59 36.1584 L1188.59 29.2718 Q1192.68 27.692 1196.53 26.9223 Q1200.38 26.1121 1204.02 26.1121 Q1213.87 26.1121 1218.73 31.2163 Q1223.59 36.3204 1223.59 46.6907 Z" fill="#000000" fill-rule="nonzero" fill-opacity="1" /><path clip-path="url(#clip130)" d="M1265.23 34.1734 Q1263.98 33.4443 1262.48 33.1202 Q1261.02 32.7556 1259.24 32.7556 Q1252.92 32.7556 1249.51 36.8875 Q1246.15 40.9789 1246.15 48.6757 L1246.15 72.576 L1238.66 72.576 L1238.66 27.2059 L1246.15 27.2059 L1246.15 34.2544 Q1248.5 30.1225 1252.27 28.1376 Q1256.04 26.1121 1261.42 26.1121 Q1262.19 26.1121 1263.13 26.2337 Q1264.06 26.3147 1265.19 26.5172 L1265.23 34.1734 Z" fill="#000000" fill-rule="nonzero" fill-opacity="1" /><path clip-path="url(#clip130)" d="M1273.05 27.2059 L1280.5 27.2059 L1280.5 72.576 L1273.05 72.576 L1273.05 27.2059 M1273.05 9.54393 L1280.5 9.54393 L1280.5 18.9825 L1273.05 18.9825 L1273.05 9.54393 Z" fill="#000000" fill-rule="nonzero" fill-opacity="1" /><path clip-path="url(#clip130)" d="M1303.47 14.324 L1303.47 27.2059 L1318.83 27.2059 L1318.83 32.9987 L1303.47 32.9987 L1303.47 57.6282 Q1303.47 63.1779 1304.97 64.7578 Q1306.51 66.3376 1311.17 66.3376 L1318.83 66.3376 L1318.83 72.576 L1311.17 72.576 Q1302.54 72.576 1299.26 69.3758 Q1295.98 66.1351 1295.98 57.6282 L1295.98 32.9987 L1290.51 32.9987 L1290.51 27.2059 L1295.98 27.2059 L1295.98 14.324 L1303.47 14.324 Z" fill="#000000" fill-rule="nonzero" fill-opacity="1" /><path clip-path="url(#clip130)" d="M1328.63 27.2059 L1336.08 27.2059 L1336.08 72.576 L1328.63 72.576 L1328.63 27.2059 M1328.63 9.54393 L1336.08 9.54393 L1336.08 18.9825 L1328.63 18.9825 L1328.63 9.54393 Z" fill="#000000" fill-rule="nonzero" fill-opacity="1" /><path clip-path="url(#clip130)" d="M1390.49 48.0275 L1390.49 51.6733 L1356.22 51.6733 Q1356.7 59.3701 1360.83 63.421 Q1365.01 67.4314 1372.42 67.4314 Q1376.71 67.4314 1380.72 66.3781 Q1384.77 65.3249 1388.74 63.2184 L1388.74 70.267 Q1384.73 71.9684 1380.52 72.8596 Q1376.31 73.7508 1371.97 73.7508 Q1361.12 73.7508 1354.76 67.4314 Q1348.44 61.1119 1348.44 50.3365 Q1348.44 39.1965 1354.43 32.6746 Q1360.47 26.1121 1370.68 26.1121 Q1379.83 26.1121 1385.14 32.0264 Q1390.49 37.9003 1390.49 48.0275 M1383.03 45.84 Q1382.95 39.7232 1379.59 36.0774 Q1376.27 32.4315 1370.76 32.4315 Q1364.52 32.4315 1360.75 35.9558 Q1357.03 39.4801 1356.46 45.8805 L1383.03 45.84 Z" fill="#000000" fill-rule="nonzero" fill-opacity="1" /><path clip-path="url(#clip130)" d="M1431.64 28.5427 L1431.64 35.5912 Q1428.48 33.9709 1425.08 33.1607 Q1421.68 32.3505 1418.03 32.3505 Q1412.48 32.3505 1409.69 34.0519 Q1406.93 35.7533 1406.93 39.156 Q1406.93 41.7486 1408.92 43.2475 Q1410.9 44.7058 1416.9 46.0426 L1419.45 46.6097 Q1427.39 48.3111 1430.71 51.4303 Q1434.07 54.509 1434.07 60.0587 Q1434.07 66.3781 1429.05 70.0644 Q1424.07 73.7508 1415.32 73.7508 Q1411.67 73.7508 1407.7 73.0216 Q1403.77 72.3329 1399.4 70.9151 L1399.4 63.2184 Q1403.53 65.3654 1407.54 66.4591 Q1411.55 67.5124 1415.48 67.5124 Q1420.75 67.5124 1423.58 65.73 Q1426.42 63.9071 1426.42 60.6258 Q1426.42 57.5877 1424.35 55.9673 Q1422.33 54.3469 1415.4 52.8481 L1412.81 52.2405 Q1405.88 50.7821 1402.8 47.7845 Q1399.72 44.7463 1399.72 39.4801 Q1399.72 33.0797 1404.26 29.5959 Q1408.8 26.1121 1417.14 26.1121 Q1421.27 26.1121 1424.92 26.7198 Q1428.56 27.3274 1431.64 28.5427 Z" fill="#000000" fill-rule="nonzero" fill-opacity="1" /><path clip-path="url(#clip130)" d="M1504.96 28.9478 L1504.96 35.9153 Q1501.8 34.1734 1498.6 33.3227 Q1495.44 32.4315 1492.2 32.4315 Q1484.95 32.4315 1480.94 37.0496 Q1476.93 41.6271 1476.93 49.9314 Q1476.93 58.2358 1480.94 62.8538 Q1484.95 67.4314 1492.2 67.4314 Q1495.44 67.4314 1498.6 66.5807 Q1501.8 65.6895 1504.96 63.9476 L1504.96 70.8341 Q1501.85 72.2924 1498.48 73.0216 Q1495.16 73.7508 1491.39 73.7508 Q1481.15 73.7508 1475.11 67.3098 Q1469.07 60.8689 1469.07 49.9314 Q1469.07 38.832 1475.15 32.472 Q1481.27 26.1121 1491.88 26.1121 Q1495.32 26.1121 1498.6 26.8413 Q1501.89 27.5299 1504.96 28.9478 Z" fill="#000000" fill-rule="nonzero" fill-opacity="1" /><path clip-path="url(#clip130)" d="M1556.73 48.0275 L1556.73 51.6733 L1522.46 51.6733 Q1522.95 59.3701 1527.08 63.421 Q1531.25 67.4314 1538.67 67.4314 Q1542.96 67.4314 1546.97 66.3781 Q1551.02 65.3249 1554.99 63.2184 L1554.99 70.267 Q1550.98 71.9684 1546.77 72.8596 Q1542.56 73.7508 1538.22 73.7508 Q1527.37 73.7508 1521.01 67.4314 Q1514.69 61.1119 1514.69 50.3365 Q1514.69 39.1965 1520.68 32.6746 Q1526.72 26.1121 1536.93 26.1121 Q1546.08 26.1121 1551.39 32.0264 Q1556.73 37.9003 1556.73 48.0275 M1549.28 45.84 Q1549.2 39.7232 1545.84 36.0774 Q1542.52 32.4315 1537.01 32.4315 Q1530.77 32.4315 1527 35.9558 Q1523.27 39.4801 1522.71 45.8805 L1549.28 45.84 Z" fill="#000000" fill-rule="nonzero" fill-opacity="1" /><path clip-path="url(#clip130)" d="M1568.97 9.54393 L1576.42 9.54393 L1576.42 72.576 L1568.97 72.576 L1568.97 9.54393 Z" fill="#000000" fill-rule="nonzero" fill-opacity="1" /><path clip-path="url(#clip130)" d="M1592.02 9.54393 L1599.47 9.54393 L1599.47 72.576 L1592.02 72.576 L1592.02 9.54393 Z" fill="#000000" fill-rule="nonzero" fill-opacity="1" /><path clip-path="url(#clip130)" d="M1667.28 39.9662 Q1673.16 41.222 1676.44 45.1919 Q1679.76 49.1618 1679.76 54.9951 Q1679.76 63.9476 1673.6 68.8492 Q1667.45 73.7508 1656.1 73.7508 Q1652.3 73.7508 1648.24 72.9811 Q1644.23 72.2519 1639.94 70.7531 L1639.94 62.8538 Q1643.34 64.8388 1647.39 65.8515 Q1651.45 66.8642 1655.86 66.8642 Q1663.56 66.8642 1667.57 63.826 Q1671.62 60.7879 1671.62 54.9951 Q1671.62 49.6479 1667.85 46.6502 Q1664.12 43.612 1657.44 43.612 L1650.39 43.612 L1650.39 36.8875 L1657.76 36.8875 Q1663.8 36.8875 1667 34.4975 Q1670.2 32.067 1670.2 27.5299 Q1670.2 22.8714 1666.88 20.4004 Q1663.6 17.8888 1657.44 17.8888 Q1654.08 17.8888 1650.23 18.618 Q1646.38 19.3471 1641.76 20.8865 L1641.76 13.5948 Q1646.42 12.2985 1650.47 11.6504 Q1654.56 11.0023 1658.17 11.0023 Q1667.49 11.0023 1672.91 15.2557 Q1678.34 19.4686 1678.34 26.6793 Q1678.34 31.7024 1675.47 35.1862 Q1672.59 38.6294 1667.28 39.9662 Z" fill="#000000" fill-rule="nonzero" fill-opacity="1" /><path clip-path="url(#clip130)" d="M1695.36 12.096 L1727.48 12.096 L1727.48 18.9825 L1702.85 18.9825 L1702.85 33.8088 Q1704.63 33.2012 1706.42 32.9176 Q1708.2 32.5936 1709.98 32.5936 Q1720.11 32.5936 1726.02 38.1433 Q1731.94 43.6931 1731.94 53.1722 Q1731.94 62.9348 1725.86 68.3631 Q1719.78 73.7508 1708.72 73.7508 Q1704.92 73.7508 1700.95 73.1026 Q1697.02 72.4545 1692.8 71.1582 L1692.8 62.9348 Q1696.45 64.9198 1700.34 65.892 Q1704.23 66.8642 1708.56 66.8642 Q1715.57 66.8642 1719.66 63.1779 Q1723.75 59.4916 1723.75 53.1722 Q1723.75 46.8528 1719.66 43.1664 Q1715.57 39.4801 1708.56 39.4801 Q1705.28 39.4801 1702 40.2093 Q1698.76 40.9384 1695.36 42.4778 L1695.36 12.096 Z" fill="#000000" fill-rule="nonzero" fill-opacity="1" /><path clip-path="url(#clip130)" d="M1749.48 65.6895 L1762.84 65.6895 L1762.84 19.5497 L1748.3 22.4663 L1748.3 15.0127 L1762.76 12.096 L1770.95 12.096 L1770.95 65.6895 L1784.31 65.6895 L1784.31 72.576 L1749.48 72.576 L1749.48 65.6895 Z" fill="#000000" fill-rule="nonzero" fill-opacity="1" /><path clip-path="url(#clip130)" d="M1826.16 27.2059 L1833.61 27.2059 L1833.61 72.576 L1826.16 72.576 L1826.16 27.2059 M1826.16 9.54393 L1833.61 9.54393 L1833.61 18.9825 L1826.16 18.9825 L1826.16 9.54393 Z" fill="#000000" fill-rule="nonzero" fill-opacity="1" /><path clip-path="url(#clip130)" d="M1856.58 14.324 L1856.58 27.2059 L1871.94 27.2059 L1871.94 32.9987 L1856.58 32.9987 L1856.58 57.6282 Q1856.58 63.1779 1858.08 64.7578 Q1859.62 66.3376 1864.28 66.3376 L1871.94 66.3376 L1871.94 72.576 L1864.28 72.576 Q1855.65 72.576 1852.37 69.3758 Q1849.09 66.1351 1849.09 57.6282 L1849.09 32.9987 L1843.62 32.9987 L1843.62 27.2059 L1849.09 27.2059 L1849.09 14.324 L1856.58 14.324 Z" fill="#000000" fill-rule="nonzero" fill-opacity="1" /><path clip-path="url(#clip130)" d="M1920.55 48.0275 L1920.55 51.6733 L1886.28 51.6733 Q1886.76 59.3701 1890.89 63.421 Q1895.07 67.4314 1902.48 67.4314 Q1906.77 67.4314 1910.78 66.3781 Q1914.83 65.3249 1918.8 63.2184 L1918.8 70.267 Q1914.79 71.9684 1910.58 72.8596 Q1906.37 73.7508 1902.03 73.7508 Q1891.18 73.7508 1884.82 67.4314 Q1878.5 61.1119 1878.5 50.3365 Q1878.5 39.1965 1884.49 32.6746 Q1890.53 26.1121 1900.74 26.1121 Q1909.89 26.1121 1915.2 32.0264 Q1920.55 37.9003 1920.55 48.0275 M1913.09 45.84 Q1913.01 39.7232 1909.65 36.0774 Q1906.33 32.4315 1900.82 32.4315 Q1894.58 32.4315 1890.81 35.9558 Q1887.09 39.4801 1886.52 45.8805 L1913.09 45.84 Z" fill="#000000" fill-rule="nonzero" fill-opacity="1" /><path clip-path="url(#clip130)" d="M1959.07 34.1734 Q1957.82 33.4443 1956.32 33.1202 Q1954.86 32.7556 1953.08 32.7556 Q1946.76 32.7556 1943.35 36.8875 Q1939.99 40.9789 1939.99 48.6757 L1939.99 72.576 L1932.5 72.576 L1932.5 27.2059 L1939.99 27.2059 L1939.99 34.2544 Q1942.34 30.1225 1946.11 28.1376 Q1949.88 26.1121 1955.26 26.1121 Q1956.03 26.1121 1956.96 26.2337 Q1957.9 26.3147 1959.03 26.5172 L1959.07 34.1734 Z" fill="#000000" fill-rule="nonzero" fill-opacity="1" /><path clip-path="url(#clip130)" d="M1987.51 49.7694 Q1978.47 49.7694 1974.99 51.8354 Q1971.51 53.9013 1971.51 58.8839 Q1971.51 62.8538 1974.1 65.2034 Q1976.73 67.5124 1981.23 67.5124 Q1987.43 67.5124 1991.15 63.1374 Q1994.92 58.7219 1994.92 51.4303 L1994.92 49.7694 L1987.51 49.7694 M2002.37 46.6907 L2002.37 72.576 L1994.92 72.576 L1994.92 65.6895 Q1992.37 69.8214 1988.56 71.8063 Q1984.75 73.7508 1979.24 73.7508 Q1972.28 73.7508 1968.14 69.8619 Q1964.05 65.9325 1964.05 59.3701 Q1964.05 51.7138 1969.16 47.825 Q1974.3 43.9361 1984.47 43.9361 L1994.92 43.9361 L1994.92 43.2069 Q1994.92 38.0623 1991.52 35.2672 Q1988.16 32.4315 1982.04 32.4315 Q1978.15 32.4315 1974.46 33.3632 Q1970.78 34.295 1967.38 36.1584 L1967.38 29.2718 Q1971.47 27.692 1975.31 26.9223 Q1979.16 26.1121 1982.81 26.1121 Q1992.65 26.1121 1997.51 31.2163 Q2002.37 36.3204 2002.37 46.6907 Z" fill="#000000" fill-rule="nonzero" fill-opacity="1" /><path clip-path="url(#clip130)" d="M2025.1 14.324 L2025.1 27.2059 L2040.45 27.2059 L2040.45 32.9987 L2025.1 32.9987 L2025.1 57.6282 Q2025.1 63.1779 2026.6 64.7578 Q2028.14 66.3376 2032.8 66.3376 L2040.45 66.3376 L2040.45 72.576 L2032.8 72.576 Q2024.17 72.576 2020.89 69.3758 Q2017.61 66.1351 2017.61 57.6282 L2017.61 32.9987 L2012.14 32.9987 L2012.14 27.2059 L2017.61 27.2059 L2017.61 14.324 L2025.1 14.324 Z" fill="#000000" fill-rule="nonzero" fill-opacity="1" /><path clip-path="url(#clip130)" d="M2050.26 27.2059 L2057.71 27.2059 L2057.71 72.576 L2050.26 72.576 L2050.26 27.2059 M2050.26 9.54393 L2057.71 9.54393 L2057.71 18.9825 L2050.26 18.9825 L2050.26 9.54393 Z" fill="#000000" fill-rule="nonzero" fill-opacity="1" /><path clip-path="url(#clip130)" d="M2090.89 32.4315 Q2084.89 32.4315 2081.41 37.1306 Q2077.92 41.7891 2077.92 49.9314 Q2077.92 58.0738 2081.37 62.7728 Q2084.85 67.4314 2090.89 67.4314 Q2096.84 67.4314 2100.33 62.7323 Q2103.81 58.0333 2103.81 49.9314 Q2103.81 41.8701 2100.33 37.1711 Q2096.84 32.4315 2090.89 32.4315 M2090.89 26.1121 Q2100.61 26.1121 2106.16 32.4315 Q2111.71 38.7509 2111.71 49.9314 Q2111.71 61.0714 2106.16 67.4314 Q2100.61 73.7508 2090.89 73.7508 Q2081.12 73.7508 2075.57 67.4314 Q2070.07 61.0714 2070.07 49.9314 Q2070.07 38.7509 2075.57 32.4315 Q2081.12 26.1121 2090.89 26.1121 Z" fill="#000000" fill-rule="nonzero" fill-opacity="1" /><path clip-path="url(#clip130)" d="M2161.78 45.1919 L2161.78 72.576 L2154.32 72.576 L2154.32 45.4349 Q2154.32 38.994 2151.81 35.7938 Q2149.3 32.5936 2144.28 32.5936 Q2138.24 32.5936 2134.76 36.4419 Q2131.27 40.2903 2131.27 46.9338 L2131.27 72.576 L2123.78 72.576 L2123.78 27.2059 L2131.27 27.2059 L2131.27 34.2544 Q2133.95 30.163 2137.55 28.1376 Q2141.2 26.1121 2145.94 26.1121 Q2153.76 26.1121 2157.77 30.9732 Q2161.78 35.7938 2161.78 45.1919 Z" fill="#000000" fill-rule="nonzero" fill-opacity="1" /><path clip-path="url(#clip130)" d="M2205.49 65.6895 L2218.86 65.6895 L2218.86 19.5497 L2204.31 22.4663 L2204.31 15.0127 L2218.77 12.096 L2226.96 12.096 L2226.96 65.6895 L2240.33 65.6895 L2240.33 72.576 L2205.49 72.576 L2205.49 65.6895 Z" fill="#000000" fill-rule="nonzero" fill-opacity="1" /><polyline clip-path="url(#clip132)" style="stroke:#009af9; stroke-linecap:round; stroke-linejoin:round; stroke-width:4; stroke-opacity:1; fill:none" points="345.82,1386.4 347.771,1321.53 349.721,1318.55 351.672,1318.03 353.622,1318 355.572,1317.97 357.523,1317.97 359.473,1317.97 361.424,1317.95 363.374,1317.94 365.325,1317.93 367.275,1317.93 369.226,1317.91 371.176,1317.9 373.126,1317.9 375.077,1317.9 377.027,1317.89 378.978,1317.88 380.928,1317.88 382.879,1317.88 384.829,1317.87 386.779,1317.86 388.73,1317.84 390.68,1317.83 392.631,1317.83 394.581,1317.83 396.532,1317.83 398.482,1317.81 400.432,1317.81 402.383,1317.8 404.333,1317.8 406.284,1317.79 408.234,1317.78 410.185,1317.78 412.135,1317.77 414.085,1317.76 416.036,1317.75 417.986,1317.74 419.937,1317.74 421.887,1317.73 423.838,1317.72 425.788,1317.71 427.738,1317.7 429.689,1317.7 431.639,1317.7 433.59,1317.69 435.54,1317.69 437.491,1317.69 439.441,1317.69 441.391,1317.69 443.342,1317.69 445.292,1317.68 447.243,1317.68 449.193,1317.68 451.144,1317.68 453.094,1317.68 455.045,1317.68 456.995,1317.68 458.945,1317.68 460.896,1317.68 462.846,1317.68 464.797,1317.68 466.747,1317.68 468.698,1317.68 470.648,1317.67 472.598,1317.67 474.549,1317.67 476.499,1317.67 478.45,1317.67 480.4,1317.67 482.351,1317.67 484.301,1317.67 486.251,1317.67 488.202,1317.67 490.152,1317.67 492.103,1317.67 494.053,1317.67 496.004,1317.67 497.954,1317.67 499.904,1317.67 501.855,1317.67 503.805,1317.67 505.756,1317.67 507.706,1317.67 509.657,1317.67 511.607,1317.67 513.557,1317.67 515.508,1317.67 517.458,1317.67 519.409,1317.67 521.359,1317.67 523.31,1317.67 525.26,1317.67 527.21,1317.67 529.161,1317.67 531.111,1317.67 533.062,1317.67 535.012,1317.67 536.963,1317.67 538.913,1317.67 540.863,1317.67 542.814,1317.67 544.764,1317.67 546.715,1317.67 548.665,1317.66 550.616,1317.66 552.566,1317.66 554.517,1317.66 556.467,1317.66 558.417,1317.66 560.368,1317.66 562.318,1317.66 564.269,1317.66 566.219,1317.66 568.17,1317.66 570.12,1317.66 572.07,1317.66 574.021,1317.66 575.971,1317.66 577.922,1317.65 579.872,1317.65 581.823,1317.65 583.773,1317.65 585.723,1317.65 587.674,1317.65 589.624,1317.65 591.575,1317.65 593.525,1317.65 595.476,1317.65 597.426,1317.64 599.376,1317.64 601.327,1317.64 603.277,1317.64 605.228,1317.64 607.178,1317.64 609.129,1317.63 611.079,1317.63 613.029,1317.63 614.98,1317.63 616.93,1317.63 618.881,1317.63 620.831,1317.63 622.782,1317.63 624.732,1317.63 626.682,1317.63 628.633,1317.63 630.583,1317.62 632.534,1317.62 634.484,1317.62 636.435,1317.62 638.385,1317.62 640.336,1317.62 642.286,1317.61 644.236,1317.61 646.187,1317.61 648.137,1317.61 650.088,1317.61 652.038,1317.61 653.989,1317.61 655.939,1317.61 657.889,1317.6 659.84,1317.6 661.79,1317.6 663.741,1317.6 665.691,1317.59 667.642,1317.59 669.592,1317.59 671.542,1317.59 673.493,1317.59 675.443,1317.58 677.394,1317.58 679.344,1317.58 681.295,1317.58 683.245,1317.58 685.195,1317.57 687.146,1317.57 689.096,1317.57 691.047,1317.57 692.997,1317.57 694.948,1317.57 696.898,1317.57 698.848,1317.56 700.799,1317.55 702.749,1317.55 704.7,1317.55 706.65,1317.55 708.601,1317.55 710.551,1317.55 712.501,1317.55 714.452,1317.53 716.402,1317.53 718.353,1317.52 720.303,1317.52 722.254,1317.52 724.204,1317.51 726.154,1317.51 728.105,1317.51 730.055,1317.51 732.006,1317.51 733.956,1317.51 735.907,1317.51 737.857,1317.5 739.808,1317.5 741.758,1317.5 743.708,1317.5 745.659,1317.5 747.609,1317.5 749.56,1317.5 751.51,1317.49 753.461,1317.49 755.411,1317.49 757.361,1317.49 759.312,1317.49 761.262,1317.49 763.213,1317.49 765.163,1317.49 767.114,1317.49 769.064,1317.49 771.014,1317.49 772.965,1317.49 774.915,1317.48 776.866,1317.48 778.816,1317.48 780.767,1317.48 782.717,1317.48 784.667,1317.48 786.618,1317.48 788.568,1317.47 790.519,1317.47 792.469,1317.47 794.42,1317.47 796.37,1317.47 798.32,1317.46 800.271,1317.46 802.221,1317.46 804.172,1317.46 806.122,1317.46 808.073,1317.46 810.023,1317.46 811.973,1317.46 813.924,1317.46 815.874,1317.45 817.825,1317.45 819.775,1317.45 821.726,1317.45 823.676,1317.44 825.627,1317.44 827.577,1317.44 829.527,1317.44 831.478,1317.44 833.428,1133.8 835.379,1133.8 837.329,1133.79 839.28,1133.78 841.23,1133.77 843.18,1133.76 845.131,1133.75 847.081,1133.74 849.032,1133.74 850.982,1133.72 852.933,1133.72 854.883,1133.7 856.833,1133.7 858.784,1133.69 860.734,1133.69 862.685,1133.68 864.635,1133.68 866.586,1133.68 868.536,1133.68 870.486,1133.64 872.437,1133.63 874.387,1133.62 876.338,1133.61 878.288,1133.6 880.239,1133.58 882.189,1133.58 884.139,1133.57 886.09,1133.56 888.04,1133.56 889.991,1133.56 891.941,1133.56 893.892,1133.56 895.842,1133.55 897.792,1133.55 899.743,1133.55 901.693,1133.55 903.644,1133.52 905.594,1133.51 907.545,1133.5 909.495,1133.5 911.445,1133.5 913.396,1133.49 915.346,1133.49 917.297,1133.48 919.247,1133.47 921.198,1133.47 923.148,1133.47 925.099,1133.47 927.049,1133.46 928.999,1133.46 930.95,1133.45 932.9,1133.45 934.851,1133.44 936.801,1133.44 938.752,1133.44 940.702,1133.4 942.652,1133.38 944.603,1133.38 946.553,1133.38 948.504,1133.38 950.454,1133.38 952.405,1133.37 954.355,1133.37 956.305,1133.35 958.256,1133.35 960.206,1133.33 962.157,1133.31 964.107,1133.29 966.058,1133.27 968.008,1133.27 969.958,1133.27 971.909,1133.27 973.859,1133.22 975.81,1133.19 977.76,1133.17 979.711,1133.15 981.661,1133.15 983.611,1133.15 985.562,1133.13 987.512,1133.11 989.463,1133.11 991.413,1133.07 993.364,1133.05 995.314,1133.04 997.264,1133.03 999.215,1133.03 1001.17,1133.02 1003.12,1132.99 1005.07,1132.98 1007.02,1132.97 1008.97,1132.97 1010.92,1132.96 1012.87,1132.94 1014.82,1132.94 1016.77,1132.92 1018.72,1132.9 1020.67,1132.89 1022.62,1132.87 1024.57,1132.87 1026.52,1132.85 1028.47,1132.84 1030.42,1132.8 1032.37,1132.78 1034.32,1132.78 1036.27,1132.77 1038.22,1132.72 1040.17,1132.7 1042.12,1132.68 1044.07,1132.67 1046.03,1132.66 1047.98,1132.64 1049.93,1132.63 1051.88,1132.58 1053.83,1132.51 1055.78,1132.51 1057.73,1132.47 1059.68,1132.45 1061.63,1132.4 1063.58,1132.38 1065.53,1132.37 1067.48,1132.36 1069.43,1132.25 1071.38,1132.24 1073.33,1132.23 1075.28,1132.1 1077.23,1132.1 1079.18,1132.09 1081.13,1132.08 1083.08,1132.08 1085.03,1132.07 1086.98,1132 1088.93,1131.92 1090.89,1131.91 1092.84,1131.87 1094.79,1131.82 1096.74,1131.68 1098.69,1131.68 1100.64,1131.57 1102.59,1131.52 1104.54,1131.46 1106.49,1131.45 1108.44,1131.43 1110.39,1131.33 1112.34,1131.27 1114.29,1131.01 1116.24,1130.97 1118.19,1130.95 1120.14,1130.94 1122.09,1130.67 1124.04,1130.64 1125.99,1130.57 1127.94,1130.41 1129.89,1130.33 1131.84,1130.27 1133.79,1130.24 1135.75,1130.13 1137.7,1130.06 1139.65,1130.04 1141.6,1130.02 1143.55,1129.9 1145.5,1129.89 1147.45,1129.87 1149.4,1129.71 1151.35,1129.59 1153.3,1129.32 1155.25,1129.09 1157.2,1128.94 1159.15,1128.78 1161.1,1128.71 1163.05,1128.64 1165,1128.53 1166.95,1128.46 1168.9,1128.41 1170.85,1128.4 1172.8,1128.31 1174.75,1128.15 1176.7,1127.98 1178.65,1127.61 1180.61,1127.3 1182.56,1127.09 1184.51,1126.94 1186.46,1126.64 1188.41,1126.61 1190.36,1126.55 1192.31,1126.52 1194.26,1125.75 1196.21,1125.69 1198.16,1125.54 1200.11,1125.43 1202.06,1124.43 1204.01,1123.51 1205.96,1123.42 1207.91,1122.87 1209.86,1122.25 1211.81,1121.9 1213.76,1121.56 1215.71,1120.59 1217.66,1119.02 1219.61,1117.65 1221.56,1117.19 1223.51,1116.98 1225.46,1116.98 1227.42,1116.44 1229.37,1116.12 1231.32,1115.46 1233.27,1115.36 1235.22,1115 1237.17,1113.87 1239.12,1113.46 1241.07,1112.72 1243.02,1111.53 1244.97,1110.58 1246.92,1110.04 1248.87,1108.93 1250.82,1108.71 1252.77,1106.32 1254.72,1105.16 1256.67,1104.7 1258.62,1097.52 1260.57,1097.05 1262.52,1093.39 1264.47,1093.23 1266.42,1092.79 1268.37,1092.06 1270.32,1089.14 1272.28,1087.63 1274.23,1086.18 1276.18,1084.75 1278.13,1079.47 1280.08,1075.25 1282.03,1074.54 1283.98,1072.48 1285.93,1068.84 1287.88,1066.14 1289.83,1062.12 1291.78,1054.53 1293.73,1049.51 1295.68,1042.3 1297.63,1040.76 1299.58,1039.12 1301.53,1034.52 1303.48,1025.4 1305.43,1023.86 1307.38,1022.22 1309.33,1001.76 1311.28,990.501 1313.23,984.535 1315.18,976.098 1317.14,883.854 1319.09,697.309 1321.04,680.154 1322.99,675.164 1324.94,674.699 1326.89,674.044 1328.84,673.735 1330.79,673.561 1332.74,672.313 1334.69,670.566 1336.64,669.73 1338.59,669.31 1340.54,668.752 1342.49,668.66 1344.44,668.363 1346.39,668.34 1348.34,668.232 1350.29,667.878 1352.24,667.451 1354.19,667.134 1356.14,667.097 1358.09,666.854 1360.04,666.824 1362,666.573 1363.95,666.549 1365.9,666.505 1367.85,666.213 1369.8,666.026 1371.75,666.006 1373.7,665.677 1375.65,664.999 1377.6,664.669 1379.55,664.419 1381.5,664.092 1383.45,664.015 1385.4,663.471 1387.35,663.136 1389.3,662.959 1391.25,662.803 1393.2,662.426 1395.15,662.339 1397.1,662.264 1399.05,661.714 1401,661.682 1402.95,661.661 1404.9,661.656 1406.86,661.548 1408.81,661.523 1410.76,661.332 1412.71,661.309 1414.66,661.239 1416.61,661.19 1418.56,661.027 1420.51,660.736 1422.46,660.687 1424.41,660.673 1426.36,660.633 1428.31,660.614 1430.26,660.587 1432.21,660.579 1434.16,660.569 1436.11,660.568 1438.06,660.55 1440.01,660.495 1441.96,660.433 1443.91,660.404 1445.86,660.343 1447.81,660.248 1449.76,660.203 1451.72,660.026 1453.67,659.822 1455.62,659.727 1457.57,659.698 1459.52,659.635 1461.47,659.566 1463.42,659.553 1465.37,659.546 1467.32,659.532 1469.27,659.48 1471.22,659.429 1473.17,659.322 1475.12,659.025 1477.07,658.784 1479.02,658.766 1480.97,658.676 1482.92,658.668 1484.87,658.657 1486.82,658.595 1488.77,658.586 1490.72,658.569 1492.67,658.527 1494.62,658.513 1496.57,658.461 1498.53,658.407 1500.48,658.38 1502.43,658.36 1504.38,658.298 1506.33,658.292 1508.28,658.29 1510.23,658.282 1512.18,658.22 1514.13,658.211 1516.08,658.21 1518.03,658.127 1519.98,658.086 1521.93,657.994 1523.88,657.857 1525.83,657.78 1527.78,657.774 1529.73,657.768 1531.68,657.682 1533.63,657.668 1535.58,657.665 1537.53,657.504 1539.48,657.425 1541.43,657.332 1543.39,657.332 1545.34,657.27 1547.29,657.236 1549.24,657.128 1551.19,657.126 1553.14,657.03 1555.09,656.957 1557.04,656.874 1558.99,656.873 1560.94,656.868 1562.89,656.851 1564.84,656.732 1566.79,656.731 1568.74,656.696 1570.69,656.693 1572.64,656.688 1574.59,656.56 1576.54,656.546 1578.49,656.478 1580.44,656.472 1582.39,656.451 1584.34,656.396 1586.29,656.39 1588.25,656.388 1590.2,656.367 1592.15,656.321 1594.1,656.295 1596.05,656.256 1598,656.146 1599.95,656.139 1601.9,656.076 1603.85,656.072 1605.8,656.056 1607.75,655.982 1609.7,655.951 1611.65,655.938 1613.6,655.921 1615.55,655.917 1617.5,655.712 1619.45,655.508 1621.4,655.449 1623.35,655.379 1625.3,655.304 1627.25,655.3 1629.2,655.187 1631.15,654.928 1633.11,654.909 1635.06,654.823 1637.01,654.704 1638.96,654.677 1640.91,654.614 1642.86,654.581 1644.81,654.572 1646.76,654.557 1648.71,654.55 1650.66,654.547 1652.61,654.448 1654.56,654.39 1656.51,654.36 1658.46,654.34 1660.41,654.312 1662.36,654.243 1664.31,654.223 1666.26,654.152 1668.21,653.997 1670.16,653.607 1672.11,653.453 1674.06,653.44 1676.01,653.389 1677.97,653.249 1679.92,653.182 1681.87,653.162 1683.82,653.158 1685.77,652.977 1687.72,652.919 1689.67,652.912 1691.62,652.854 1693.57,652.826 1695.52,652.361 1697.47,652.349 1699.42,651.966 1701.37,651.888 1703.32,651.786 1705.27,651.671 1707.22,651.63 1709.17,651.524 1711.12,651.472 1713.07,651.468 1715.02,651.298 1716.97,651.06 1718.92,650.994 1720.87,650.915 1722.83,650.915 1724.78,650.9 1726.73,650.856 1728.68,650.85 1730.63,650.835 1732.58,650.698 1734.53,650.351 1736.48,650.177 1738.43,650.051 1740.38,650.039 1742.33,649.9 1744.28,649.795 1746.23,649.767 1748.18,649.713 1750.13,649.701 1752.08,649.674 1754.03,649.655 1755.98,649.447 1757.93,649.071 1759.88,649.027 1761.83,649.003 1763.78,648.854 1765.73,648.662 1767.68,648.659 1769.64,648.603 1771.59,648.553 1773.54,648.506 1775.49,648.473 1777.44,648.42 1779.39,648.371 1781.34,648.237 1783.29,648.227 1785.24,648.038 1787.19,648.027 1789.14,647.955 1791.09,647.737 1793.04,647.737 1794.99,647.669 1796.94,647.575 1798.89,647.561 1800.84,647.415 1802.79,646.612 1804.74,646.043 1806.69,459.162 1808.64,217.059 1810.59,213.821 1812.54,205.747 1814.5,204.04 1816.45,201.341 1818.4,200.733 1820.35,194.228 1822.3,192.448 1824.25,191.282 1826.2,191.267 1828.15,185.572 1830.1,183.28 1832.05,182.954 1834,181.557 1835.95,180.278 1837.9,177.633 1839.85,174.753 1841.8,174.266 1843.75,172.337 1845.7,170.837 1847.65,170.13 1849.6,169.862 1851.55,168.818 1853.5,168.817 1855.45,168.596 1857.4,168.388 1859.36,168.129 1861.31,167.742 1863.26,167.19 1865.21,167.177 1867.16,167.084 1869.11,167.05 1871.06,166.98 1873.01,166.976 1874.96,166.97 1876.91,166.765 1878.86,166.653 1880.81,166.622 1882.76,166.559 1884.71,166.524 1886.66,166.472 1888.61,166.407 1890.56,166.397 1892.51,166.381 1894.46,166.338 1896.41,166.11 1898.36,166.086 1900.31,166.06 1902.26,166.053 1904.22,166.051 1906.17,166.033 1908.12,165.983 1910.07,165.982 1912.02,165.973 1913.97,165.958 1915.92,165.947 1917.87,165.945 1919.82,165.918 1921.77,165.871 1923.72,165.856 1925.67,165.849 1927.62,165.829 1929.57,165.822 1931.52,165.819 1933.47,165.818 1935.42,165.815 1937.37,165.802 1939.32,165.791 1941.27,165.787 1943.22,165.786 1945.17,165.784 1947.12,165.772 1949.08,165.771 1951.03,165.766 1952.98,165.758 1954.93,165.757 1956.88,165.756 1958.83,165.751 1960.78,165.75 1962.73,165.748 1964.68,165.746 1966.63,165.739 1968.58,165.729 1970.53,165.726 1972.48,165.719 1974.43,165.716 1976.38,165.714 1978.33,165.713 1980.28,165.707 1982.23,165.699 1984.18,165.689 1986.13,165.683 1988.08,165.68 1990.03,165.679 1991.98,165.678 1993.94,165.654 1995.89,165.652 1997.84,165.65 1999.79,165.627 2001.74,165.58 2003.69,165.573 2005.64,165.568 2007.59,165.565 2009.54,165.51 2011.49,165.507 2013.44,165.502 2015.39,165.484 2017.34,165.452 2019.29,165.428 2021.24,165.395 2023.19,165.316 2025.14,165.279 2027.09,165.266 2029.04,165.245 2030.99,165.189 2032.94,165.172 2034.89,165.158 2036.84,165.146 2038.79,165.08 2040.75,165.051 2042.7,164.968 2044.65,164.963 2046.6,164.937 2048.55,164.937 2050.5,164.836 2052.45,164.638 2054.4,164.613 2056.35,164.612 2058.3,164.489 2060.25,164.29 2062.2,164.225 2064.15,164.165 2066.1,164.119 2068.05,164.079 2070,164.033 2071.95,163.973 2073.9,163.927 2075.85,163.906 2077.8,163.899 2079.75,163.893 2081.7,163.864 2083.65,163.851 2085.61,163.742 2087.56,163.695 2089.51,163.692 2091.46,163.667 2093.41,163.62 2095.36,163.504 2097.31,163.483 2099.26,163.453 2101.21,163.411 2103.16,163.36 2105.11,163.359 2107.06,163.345 2109.01,163.188 2110.96,163.187 2112.91,163.101 2114.86,163.055 2116.81,162.971 2118.76,162.889 2120.71,162.86 2122.66,162.773 2124.61,162.73 2126.56,162.714 2128.51,162.67 2130.47,162.619 2132.42,162.573 2134.37,162.541 2136.32,162.459 2138.27,162.411 2140.22,162.396 2142.17,162.284 2144.12,162.278 2146.07,162.273 2148.02,162.23 2149.97,162.215 2151.92,162.19 2153.87,162.183 2155.82,162.144 2157.77,162.137 2159.72,162.094 2161.67,162.071 2163.62,162.02 2165.57,161.985 2167.52,161.957 2169.47,161.916 2171.42,161.905 2173.37,161.896 2175.33,161.865 2177.28,161.825 2179.23,161.82 2181.18,161.813 2183.13,161.771 2185.08,161.742 2187.03,161.705 2188.98,161.646 2190.93,161.614 2192.88,161.568 2194.83,161.552 2196.78,161.5 2198.73,161.5 2200.68,161.492 2202.63,161.475 2204.58,161.475 2206.53,161.435 2208.48,161.41 2210.43,161.22 2212.38,161.182 2214.33,161.133 2216.28,161.132 2218.23,161.123 2220.19,161.113 2222.14,161.048 2224.09,161.043 2226.04,160.971 2227.99,160.946 2229.94,160.9 2231.89,160.885 2233.84,160.859 2235.79,160.834 2237.74,160.811 2239.69,160.809 2241.64,160.75 2243.59,160.746 2245.54,160.711 2247.49,160.646 2249.44,160.646 2251.39,160.638 2253.34,160.636 2255.29,160.635 2257.24,160.617 2259.19,160.616 2261.14,160.615 2263.09,160.535 2265.04,160.5 2267,160.471 2268.95,160.448 2270.9,160.395 2272.85,160.391 2274.8,160.378 2276.75,160.377 2278.7,160.369 2280.65,160.357 2282.6,160.337 2284.55,160.334 2286.5,160.334 2288.45,160.321 2290.4,160.315 2292.35,160.313 2294.3,160.256 "/>
<path clip-path="url(#clip130)" d="M356.212 270.476 L782.357 270.476 L782.357 166.796 L356.212 166.796  Z" fill="#ffffff" fill-rule="evenodd" fill-opacity="1"/>
<polyline clip-path="url(#clip130)" style="stroke:#000000; stroke-linecap:round; stroke-linejoin:round; stroke-width:4; stroke-opacity:1; fill:none" points="356.212,270.476 782.357,270.476 782.357,166.796 356.212,166.796 356.212,270.476 "/>
<polyline clip-path="url(#clip130)" style="stroke:#009af9; stroke-linecap:round; stroke-linejoin:round; stroke-width:4; stroke-opacity:1; fill:none" points="379.161,218.636 516.854,218.636 "/>
<path clip-path="url(#clip130)" d="M562.048 202.49 L562.048 207.05 Q559.386 205.777 557.025 205.152 Q554.663 204.527 552.464 204.527 Q548.645 204.527 546.562 206.008 Q544.502 207.49 544.502 210.221 Q544.502 212.513 545.867 213.694 Q547.256 214.851 551.099 215.569 L553.923 216.147 Q559.154 217.143 561.631 219.666 Q564.131 222.166 564.131 226.379 Q564.131 231.402 560.751 233.994 Q557.395 236.587 550.89 236.587 Q548.437 236.587 545.659 236.031 Q542.904 235.476 539.941 234.388 L539.941 229.573 Q542.789 231.17 545.52 231.981 Q548.251 232.791 550.89 232.791 Q554.895 232.791 557.071 231.217 Q559.247 229.643 559.247 226.726 Q559.247 224.18 557.673 222.744 Q556.122 221.309 552.557 220.592 L549.71 220.036 Q544.478 218.995 542.14 216.772 Q539.802 214.55 539.802 210.592 Q539.802 206.008 543.02 203.37 Q546.261 200.731 551.932 200.731 Q554.363 200.731 556.886 201.171 Q559.409 201.61 562.048 202.49 Z" fill="#000000" fill-rule="nonzero" fill-opacity="1" /><path clip-path="url(#clip130)" d="M571.237 209.99 L575.497 209.99 L575.497 235.916 L571.237 235.916 L571.237 209.99 M571.237 199.897 L575.497 199.897 L575.497 205.291 L571.237 205.291 L571.237 199.897 Z" fill="#000000" fill-rule="nonzero" fill-opacity="1" /><path clip-path="url(#clip130)" d="M604.594 214.967 Q606.191 212.096 608.413 210.731 Q610.635 209.365 613.645 209.365 Q617.696 209.365 619.895 212.212 Q622.094 215.036 622.094 220.268 L622.094 235.916 L617.811 235.916 L617.811 220.407 Q617.811 216.68 616.492 214.874 Q615.172 213.069 612.464 213.069 Q609.154 213.069 607.233 215.268 Q605.311 217.467 605.311 221.263 L605.311 235.916 L601.029 235.916 L601.029 220.407 Q601.029 216.657 599.71 214.874 Q598.39 213.069 595.635 213.069 Q592.372 213.069 590.45 215.291 Q588.529 217.49 588.529 221.263 L588.529 235.916 L584.247 235.916 L584.247 209.99 L588.529 209.99 L588.529 214.018 Q589.987 211.633 592.024 210.499 Q594.061 209.365 596.862 209.365 Q599.686 209.365 601.654 210.8 Q603.645 212.235 604.594 214.967 Z" fill="#000000" fill-rule="nonzero" fill-opacity="1" /><path clip-path="url(#clip130)" d="M630.589 209.99 L634.848 209.99 L634.848 235.916 L630.589 235.916 L630.589 209.99 M630.589 199.897 L634.848 199.897 L634.848 205.291 L630.589 205.291 L630.589 199.897 Z" fill="#000000" fill-rule="nonzero" fill-opacity="1" /><path clip-path="url(#clip130)" d="M643.76 199.897 L648.019 199.897 L648.019 235.916 L643.76 235.916 L643.76 199.897 Z" fill="#000000" fill-rule="nonzero" fill-opacity="1" /><path clip-path="url(#clip130)" d="M668.714 222.883 Q663.552 222.883 661.561 224.064 Q659.57 225.244 659.57 228.092 Q659.57 230.36 661.052 231.703 Q662.556 233.022 665.126 233.022 Q668.668 233.022 670.797 230.522 Q672.95 227.999 672.95 223.832 L672.95 222.883 L668.714 222.883 M677.209 221.124 L677.209 235.916 L672.95 235.916 L672.95 231.981 Q671.492 234.342 669.316 235.476 Q667.14 236.587 663.992 236.587 Q660.01 236.587 657.649 234.365 Q655.311 232.119 655.311 228.369 Q655.311 223.994 658.228 221.772 Q661.168 219.55 666.978 219.55 L672.95 219.55 L672.95 219.133 Q672.95 216.194 671.005 214.596 Q669.084 212.976 665.589 212.976 Q663.367 212.976 661.26 213.508 Q659.154 214.041 657.209 215.106 L657.209 211.17 Q659.547 210.268 661.746 209.828 Q663.945 209.365 666.029 209.365 Q671.654 209.365 674.431 212.282 Q677.209 215.198 677.209 221.124 Z" fill="#000000" fill-rule="nonzero" fill-opacity="1" /><path clip-path="url(#clip130)" d="M701.005 213.971 Q700.288 213.555 699.431 213.37 Q698.598 213.161 697.579 213.161 Q693.968 213.161 692.024 215.522 Q690.103 217.86 690.103 222.258 L690.103 235.916 L685.82 235.916 L685.82 209.99 L690.103 209.99 L690.103 214.018 Q691.445 211.657 693.598 210.522 Q695.751 209.365 698.829 209.365 Q699.269 209.365 699.802 209.434 Q700.334 209.481 700.982 209.596 L701.005 213.971 Z" fill="#000000" fill-rule="nonzero" fill-opacity="1" /><path clip-path="url(#clip130)" d="M705.473 209.99 L709.732 209.99 L709.732 235.916 L705.473 235.916 L705.473 209.99 M705.473 199.897 L709.732 199.897 L709.732 205.291 L705.473 205.291 L705.473 199.897 Z" fill="#000000" fill-rule="nonzero" fill-opacity="1" /><path clip-path="url(#clip130)" d="M722.857 202.629 L722.857 209.99 L731.63 209.99 L731.63 213.3 L722.857 213.3 L722.857 227.374 Q722.857 230.545 723.714 231.448 Q724.593 232.351 727.255 232.351 L731.63 232.351 L731.63 235.916 L727.255 235.916 Q722.325 235.916 720.45 234.087 Q718.575 232.235 718.575 227.374 L718.575 213.3 L715.45 213.3 L715.45 209.99 L718.575 209.99 L718.575 202.629 L722.857 202.629 Z" fill="#000000" fill-rule="nonzero" fill-opacity="1" /><path clip-path="url(#clip130)" d="M748.019 238.323 Q746.213 242.953 744.5 244.365 Q742.787 245.777 739.917 245.777 L736.514 245.777 L736.514 242.212 L739.014 242.212 Q740.774 242.212 741.746 241.379 Q742.718 240.545 743.899 237.443 L744.662 235.499 L734.176 209.99 L738.69 209.99 L746.792 230.268 L754.894 209.99 L759.408 209.99 L748.019 238.323 Z" fill="#000000" fill-rule="nonzero" fill-opacity="1" /></svg>
