<?xml version="1.0" encoding="utf-8"?>
<svg xmlns="http://www.w3.org/2000/svg" xmlns:xlink="http://www.w3.org/1999/xlink" width="600" height="400" viewBox="0 0 2400 1600">
<defs>
  <clipPath id="clip680">
    <rect x="0" y="0" width="2400" height="1600"/>
  </clipPath>
</defs>
<path clip-path="url(#clip680)" d="M0 1600 L2400 1600 L2400 8.88178e-14 L0 8.88178e-14  Z" fill="#ffffff" fill-rule="evenodd" fill-opacity="1"/>
<defs>
  <clipPath id="clip681">
    <rect x="480" y="0" width="1681" height="1600"/>
  </clipPath>
</defs>
<path clip-path="url(#clip680)" d="M257.69 1423.18 L2352.76 1423.18 L2352.76 123.472 L257.69 123.472  Z" fill="#ffffff" fill-rule="evenodd" fill-opacity="1"/>
<defs>
  <clipPath id="clip682">
    <rect x="257" y="123" width="2096" height="1301"/>
  </clipPath>
</defs>
<polyline clip-path="url(#clip682)" style="stroke:#000000; stroke-linecap:round; stroke-linejoin:round; stroke-width:2; stroke-opacity:0.1; fill:none" points="315.006,1423.18 315.006,123.472 "/>
<polyline clip-path="url(#clip682)" style="stroke:#000000; stroke-linecap:round; stroke-linejoin:round; stroke-width:2; stroke-opacity:0.1; fill:none" points="809.62,1423.18 809.62,123.472 "/>
<polyline clip-path="url(#clip682)" style="stroke:#000000; stroke-linecap:round; stroke-linejoin:round; stroke-width:2; stroke-opacity:0.1; fill:none" points="1304.23,1423.18 1304.23,123.472 "/>
<polyline clip-path="url(#clip682)" style="stroke:#000000; stroke-linecap:round; stroke-linejoin:round; stroke-width:2; stroke-opacity:0.1; fill:none" points="1798.85,1423.18 1798.85,123.472 "/>
<polyline clip-path="url(#clip682)" style="stroke:#000000; stroke-linecap:round; stroke-linejoin:round; stroke-width:2; stroke-opacity:0.1; fill:none" points="2293.46,1423.18 2293.46,123.472 "/>
<polyline clip-path="url(#clip680)" style="stroke:#000000; stroke-linecap:round; stroke-linejoin:round; stroke-width:4; stroke-opacity:1; fill:none" points="257.69,1423.18 2352.76,1423.18 "/>
<polyline clip-path="url(#clip680)" style="stroke:#000000; stroke-linecap:round; stroke-linejoin:round; stroke-width:4; stroke-opacity:1; fill:none" points="315.006,1423.18 315.006,1404.28 "/>
<polyline clip-path="url(#clip680)" style="stroke:#000000; stroke-linecap:round; stroke-linejoin:round; stroke-width:4; stroke-opacity:1; fill:none" points="809.62,1423.18 809.62,1404.28 "/>
<polyline clip-path="url(#clip680)" style="stroke:#000000; stroke-linecap:round; stroke-linejoin:round; stroke-width:4; stroke-opacity:1; fill:none" points="1304.23,1423.18 1304.23,1404.28 "/>
<polyline clip-path="url(#clip680)" style="stroke:#000000; stroke-linecap:round; stroke-linejoin:round; stroke-width:4; stroke-opacity:1; fill:none" points="1798.85,1423.18 1798.85,1404.28 "/>
<polyline clip-path="url(#clip680)" style="stroke:#000000; stroke-linecap:round; stroke-linejoin:round; stroke-width:4; stroke-opacity:1; fill:none" points="2293.46,1423.18 2293.46,1404.28 "/>
<path clip-path="url(#clip680)" d="M315.006 1454.1 Q311.395 1454.1 309.566 1457.66 Q307.761 1461.2 307.761 1468.33 Q307.761 1475.44 309.566 1479.01 Q311.395 1482.55 315.006 1482.55 Q318.64 1482.55 320.446 1479.01 Q322.274 1475.44 322.274 1468.33 Q322.274 1461.2 320.446 1457.66 Q318.64 1454.1 315.006 1454.1 M315.006 1450.39 Q320.816 1450.39 323.872 1455 Q326.95 1459.58 326.95 1468.33 Q326.95 1477.06 323.872 1481.67 Q320.816 1486.25 315.006 1486.25 Q309.196 1486.25 306.117 1481.67 Q303.062 1477.06 303.062 1468.33 Q303.062 1459.58 306.117 1455 Q309.196 1450.39 315.006 1450.39 Z" fill="#000000" fill-rule="nonzero" fill-opacity="1" /><path clip-path="url(#clip680)" d="M773.312 1481.64 L789.632 1481.64 L789.632 1485.58 L767.687 1485.58 L767.687 1481.64 Q770.349 1478.89 774.933 1474.26 Q779.539 1469.61 780.72 1468.27 Q782.965 1465.74 783.845 1464.01 Q784.747 1462.25 784.747 1460.56 Q784.747 1457.8 782.803 1456.07 Q780.882 1454.33 777.78 1454.33 Q775.581 1454.33 773.127 1455.09 Q770.696 1455.86 767.919 1457.41 L767.919 1452.69 Q770.743 1451.55 773.196 1450.97 Q775.65 1450.39 777.687 1450.39 Q783.058 1450.39 786.252 1453.08 Q789.446 1455.77 789.446 1460.26 Q789.446 1462.39 788.636 1464.31 Q787.849 1466.2 785.743 1468.8 Q785.164 1469.47 782.062 1472.69 Q778.96 1475.88 773.312 1481.64 Z" fill="#000000" fill-rule="nonzero" fill-opacity="1" /><path clip-path="url(#clip680)" d="M799.493 1451.02 L817.849 1451.02 L817.849 1454.96 L803.775 1454.96 L803.775 1463.43 Q804.794 1463.08 805.812 1462.92 Q806.831 1462.73 807.849 1462.73 Q813.636 1462.73 817.016 1465.9 Q820.395 1469.08 820.395 1474.49 Q820.395 1480.07 816.923 1483.17 Q813.451 1486.25 807.131 1486.25 Q804.956 1486.25 802.687 1485.88 Q800.442 1485.51 798.034 1484.77 L798.034 1480.07 Q800.118 1481.2 802.34 1481.76 Q804.562 1482.32 807.039 1482.32 Q811.043 1482.32 813.381 1480.21 Q815.719 1478.1 815.719 1474.49 Q815.719 1470.88 813.381 1468.77 Q811.043 1466.67 807.039 1466.67 Q805.164 1466.67 803.289 1467.08 Q801.437 1467.5 799.493 1468.38 L799.493 1451.02 Z" fill="#000000" fill-rule="nonzero" fill-opacity="1" /><path clip-path="url(#clip680)" d="M839.608 1454.1 Q835.997 1454.1 834.168 1457.66 Q832.363 1461.2 832.363 1468.33 Q832.363 1475.44 834.168 1479.01 Q835.997 1482.55 839.608 1482.55 Q843.242 1482.55 845.048 1479.01 Q846.877 1475.44 846.877 1468.33 Q846.877 1461.2 845.048 1457.66 Q843.242 1454.1 839.608 1454.1 M839.608 1450.39 Q845.418 1450.39 848.474 1455 Q851.553 1459.58 851.553 1468.33 Q851.553 1477.06 848.474 1481.67 Q845.418 1486.25 839.608 1486.25 Q833.798 1486.25 830.719 1481.67 Q827.664 1477.06 827.664 1468.33 Q827.664 1459.58 830.719 1455 Q833.798 1450.39 839.608 1450.39 Z" fill="#000000" fill-rule="nonzero" fill-opacity="1" /><path clip-path="url(#clip680)" d="M1263.85 1451.02 L1282.21 1451.02 L1282.21 1454.96 L1268.13 1454.96 L1268.13 1463.43 Q1269.15 1463.08 1270.17 1462.92 Q1271.19 1462.73 1272.21 1462.73 Q1278 1462.73 1281.38 1465.9 Q1284.75 1469.08 1284.75 1474.49 Q1284.75 1480.07 1281.28 1483.17 Q1277.81 1486.25 1271.49 1486.25 Q1269.31 1486.25 1267.05 1485.88 Q1264.8 1485.51 1262.39 1484.77 L1262.39 1480.07 Q1264.48 1481.2 1266.7 1481.76 Q1268.92 1482.32 1271.4 1482.32 Q1275.4 1482.32 1277.74 1480.21 Q1280.08 1478.1 1280.08 1474.49 Q1280.08 1470.88 1277.74 1468.77 Q1275.4 1466.67 1271.4 1466.67 Q1269.52 1466.67 1267.65 1467.08 Q1265.8 1467.5 1263.85 1468.38 L1263.85 1451.02 Z" fill="#000000" fill-rule="nonzero" fill-opacity="1" /><path clip-path="url(#clip680)" d="M1303.97 1454.1 Q1300.36 1454.1 1298.53 1457.66 Q1296.72 1461.2 1296.72 1468.33 Q1296.72 1475.44 1298.53 1479.01 Q1300.36 1482.55 1303.97 1482.55 Q1307.6 1482.55 1309.41 1479.01 Q1311.24 1475.44 1311.24 1468.33 Q1311.24 1461.2 1309.41 1457.66 Q1307.6 1454.1 1303.97 1454.1 M1303.97 1450.39 Q1309.78 1450.39 1312.83 1455 Q1315.91 1459.58 1315.91 1468.33 Q1315.91 1477.06 1312.83 1481.67 Q1309.78 1486.25 1303.97 1486.25 Q1298.16 1486.25 1295.08 1481.67 Q1292.02 1477.06 1292.02 1468.33 Q1292.02 1459.58 1295.08 1455 Q1298.16 1450.39 1303.97 1450.39 Z" fill="#000000" fill-rule="nonzero" fill-opacity="1" /><path clip-path="url(#clip680)" d="M1334.13 1454.1 Q1330.52 1454.1 1328.69 1457.66 Q1326.88 1461.2 1326.88 1468.33 Q1326.88 1475.44 1328.69 1479.01 Q1330.52 1482.55 1334.13 1482.55 Q1337.76 1482.55 1339.57 1479.01 Q1341.4 1475.44 1341.4 1468.33 Q1341.4 1461.2 1339.57 1457.66 Q1337.76 1454.1 1334.13 1454.1 M1334.13 1450.39 Q1339.94 1450.39 1343 1455 Q1346.07 1459.58 1346.07 1468.33 Q1346.07 1477.06 1343 1481.67 Q1339.94 1486.25 1334.13 1486.25 Q1328.32 1486.25 1325.24 1481.67 Q1322.19 1477.06 1322.19 1468.33 Q1322.19 1459.58 1325.24 1455 Q1328.32 1450.39 1334.13 1450.39 Z" fill="#000000" fill-rule="nonzero" fill-opacity="1" /><path clip-path="url(#clip680)" d="M1757.12 1451.02 L1779.35 1451.02 L1779.35 1453.01 L1766.8 1485.58 L1761.92 1485.58 L1773.72 1454.96 L1757.12 1454.96 L1757.12 1451.02 Z" fill="#000000" fill-rule="nonzero" fill-opacity="1" /><path clip-path="url(#clip680)" d="M1788.51 1451.02 L1806.87 1451.02 L1806.87 1454.96 L1792.79 1454.96 L1792.79 1463.43 Q1793.81 1463.08 1794.83 1462.92 Q1795.85 1462.73 1796.87 1462.73 Q1802.66 1462.73 1806.04 1465.9 Q1809.41 1469.08 1809.41 1474.49 Q1809.41 1480.07 1805.94 1483.17 Q1802.47 1486.25 1796.15 1486.25 Q1793.98 1486.25 1791.71 1485.88 Q1789.46 1485.51 1787.05 1484.77 L1787.05 1480.07 Q1789.14 1481.2 1791.36 1481.76 Q1793.58 1482.32 1796.06 1482.32 Q1800.06 1482.32 1802.4 1480.21 Q1804.74 1478.1 1804.74 1474.49 Q1804.74 1470.88 1802.4 1468.77 Q1800.06 1466.67 1796.06 1466.67 Q1794.18 1466.67 1792.31 1467.08 Q1790.46 1467.5 1788.51 1468.38 L1788.51 1451.02 Z" fill="#000000" fill-rule="nonzero" fill-opacity="1" /><path clip-path="url(#clip680)" d="M1828.63 1454.1 Q1825.02 1454.1 1823.19 1457.66 Q1821.38 1461.2 1821.38 1468.33 Q1821.38 1475.44 1823.19 1479.01 Q1825.02 1482.55 1828.63 1482.55 Q1832.26 1482.55 1834.07 1479.01 Q1835.9 1475.44 1835.9 1468.33 Q1835.9 1461.2 1834.07 1457.66 Q1832.26 1454.1 1828.63 1454.1 M1828.63 1450.39 Q1834.44 1450.39 1837.49 1455 Q1840.57 1459.58 1840.57 1468.33 Q1840.57 1477.06 1837.49 1481.67 Q1834.44 1486.25 1828.63 1486.25 Q1822.82 1486.25 1819.74 1481.67 Q1816.68 1477.06 1816.68 1468.33 Q1816.68 1459.58 1819.74 1455 Q1822.82 1450.39 1828.63 1450.39 Z" fill="#000000" fill-rule="nonzero" fill-opacity="1" /><path clip-path="url(#clip680)" d="M2237.99 1481.64 L2245.63 1481.64 L2245.63 1455.28 L2237.32 1456.95 L2237.32 1452.69 L2245.58 1451.02 L2250.26 1451.02 L2250.26 1481.64 L2257.89 1481.64 L2257.89 1485.58 L2237.99 1485.58 L2237.99 1481.64 Z" fill="#000000" fill-rule="nonzero" fill-opacity="1" /><path clip-path="url(#clip680)" d="M2277.34 1454.1 Q2273.73 1454.1 2271.9 1457.66 Q2270.09 1461.2 2270.09 1468.33 Q2270.09 1475.44 2271.9 1479.01 Q2273.73 1482.55 2277.34 1482.55 Q2280.97 1482.55 2282.78 1479.01 Q2284.61 1475.44 2284.61 1468.33 Q2284.61 1461.2 2282.78 1457.66 Q2280.97 1454.1 2277.34 1454.1 M2277.34 1450.39 Q2283.15 1450.39 2286.2 1455 Q2289.28 1459.58 2289.28 1468.33 Q2289.28 1477.06 2286.2 1481.67 Q2283.15 1486.25 2277.34 1486.25 Q2271.53 1486.25 2268.45 1481.67 Q2265.39 1477.06 2265.39 1468.33 Q2265.39 1459.58 2268.45 1455 Q2271.53 1450.39 2277.34 1450.39 Z" fill="#000000" fill-rule="nonzero" fill-opacity="1" /><path clip-path="url(#clip680)" d="M2307.5 1454.1 Q2303.89 1454.1 2302.06 1457.66 Q2300.26 1461.2 2300.26 1468.33 Q2300.26 1475.44 2302.06 1479.01 Q2303.89 1482.55 2307.5 1482.55 Q2311.14 1482.55 2312.94 1479.01 Q2314.77 1475.44 2314.77 1468.33 Q2314.77 1461.2 2312.94 1457.66 Q2311.14 1454.1 2307.5 1454.1 M2307.5 1450.39 Q2313.31 1450.39 2316.37 1455 Q2319.45 1459.58 2319.45 1468.33 Q2319.45 1477.06 2316.37 1481.67 Q2313.31 1486.25 2307.5 1486.25 Q2301.69 1486.25 2298.61 1481.67 Q2295.56 1477.06 2295.56 1468.33 Q2295.56 1459.58 2298.61 1455 Q2301.69 1450.39 2307.5 1450.39 Z" fill="#000000" fill-rule="nonzero" fill-opacity="1" /><path clip-path="url(#clip680)" d="M2337.66 1454.1 Q2334.05 1454.1 2332.22 1457.66 Q2330.42 1461.2 2330.42 1468.33 Q2330.42 1475.44 2332.22 1479.01 Q2334.05 1482.55 2337.66 1482.55 Q2341.3 1482.55 2343.1 1479.01 Q2344.93 1475.44 2344.93 1468.33 Q2344.93 1461.2 2343.1 1457.66 Q2341.3 1454.1 2337.66 1454.1 M2337.66 1450.39 Q2343.47 1450.39 2346.53 1455 Q2349.61 1459.58 2349.61 1468.33 Q2349.61 1477.06 2346.53 1481.67 Q2343.47 1486.25 2337.66 1486.25 Q2331.85 1486.25 2328.77 1481.67 Q2325.72 1477.06 2325.72 1468.33 Q2325.72 1459.58 2328.77 1455 Q2331.85 1450.39 2337.66 1450.39 Z" fill="#000000" fill-rule="nonzero" fill-opacity="1" /><path clip-path="url(#clip680)" d="M1269.07 1524.18 L1269.07 1530.96 Q1265.82 1527.94 1262.13 1526.44 Q1258.47 1524.95 1254.33 1524.95 Q1246.18 1524.95 1241.85 1529.95 Q1237.52 1534.91 1237.52 1544.33 Q1237.52 1553.72 1241.85 1558.72 Q1246.18 1563.68 1254.33 1563.68 Q1258.47 1563.68 1262.13 1562.19 Q1265.82 1560.69 1269.07 1557.67 L1269.07 1564.38 Q1265.69 1566.68 1261.9 1567.82 Q1258.15 1568.97 1253.95 1568.97 Q1243.16 1568.97 1236.95 1562.38 Q1230.74 1555.76 1230.74 1544.33 Q1230.74 1532.87 1236.95 1526.28 Q1243.16 1519.66 1253.95 1519.66 Q1258.21 1519.66 1261.97 1520.81 Q1265.76 1521.92 1269.07 1524.18 Z" fill="#000000" fill-rule="nonzero" fill-opacity="1" /><path clip-path="url(#clip680)" d="M1309.23 1548.76 L1309.23 1551.62 L1282.31 1551.62 Q1282.69 1557.67 1285.93 1560.85 Q1289.21 1564 1295.04 1564 Q1298.41 1564 1301.56 1563.17 Q1304.75 1562.35 1307.86 1560.69 L1307.86 1566.23 Q1304.71 1567.57 1301.4 1568.27 Q1298.09 1568.97 1294.69 1568.97 Q1286.16 1568.97 1281.16 1564 Q1276.2 1559.04 1276.2 1550.57 Q1276.2 1541.82 1280.91 1536.69 Q1285.65 1531.54 1293.67 1531.54 Q1300.86 1531.54 1305.03 1536.18 Q1309.23 1540.8 1309.23 1548.76 M1303.38 1547.04 Q1303.31 1542.23 1300.67 1539.37 Q1298.06 1536.5 1293.73 1536.5 Q1288.83 1536.5 1285.87 1539.27 Q1282.94 1542.04 1282.5 1547.07 L1303.38 1547.04 Z" fill="#000000" fill-rule="nonzero" fill-opacity="1" /><path clip-path="url(#clip680)" d="M1318.85 1518.52 L1324.7 1518.52 L1324.7 1568.04 L1318.85 1568.04 L1318.85 1518.52 Z" fill="#000000" fill-rule="nonzero" fill-opacity="1" /><path clip-path="url(#clip680)" d="M1336.96 1518.52 L1342.81 1518.52 L1342.81 1568.04 L1336.96 1568.04 L1336.96 1518.52 Z" fill="#000000" fill-rule="nonzero" fill-opacity="1" /><path clip-path="url(#clip680)" d="M1377.79 1533.45 L1377.79 1538.98 Q1375.31 1537.71 1372.64 1537.07 Q1369.96 1536.44 1367.1 1536.44 Q1362.74 1536.44 1360.54 1537.77 Q1358.38 1539.11 1358.38 1541.79 Q1358.38 1543.82 1359.94 1545 Q1361.5 1546.15 1366.21 1547.2 L1368.21 1547.64 Q1374.45 1548.98 1377.06 1551.43 Q1379.7 1553.85 1379.7 1558.21 Q1379.7 1563.17 1375.76 1566.07 Q1371.84 1568.97 1364.97 1568.97 Q1362.1 1568.97 1358.98 1568.39 Q1355.89 1567.85 1352.46 1566.74 L1352.46 1560.69 Q1355.7 1562.38 1358.85 1563.24 Q1362.01 1564.07 1365.09 1564.07 Q1369.23 1564.07 1371.46 1562.66 Q1373.69 1561.23 1373.69 1558.65 Q1373.69 1556.27 1372.06 1554.99 Q1370.47 1553.72 1365.03 1552.54 L1362.99 1552.07 Q1357.55 1550.92 1355.13 1548.56 Q1352.71 1546.18 1352.71 1542.04 Q1352.71 1537.01 1356.28 1534.27 Q1359.84 1531.54 1366.4 1531.54 Q1369.64 1531.54 1372.51 1532.01 Q1375.37 1532.49 1377.79 1533.45 Z" fill="#000000" fill-rule="nonzero" fill-opacity="1" /><polyline clip-path="url(#clip682)" style="stroke:#000000; stroke-linecap:round; stroke-linejoin:round; stroke-width:2; stroke-opacity:0.1; fill:none" points="257.69,1346.81 2352.76,1346.81 "/>
<polyline clip-path="url(#clip682)" style="stroke:#000000; stroke-linecap:round; stroke-linejoin:round; stroke-width:2; stroke-opacity:0.1; fill:none" points="257.69,1167.63 2352.76,1167.63 "/>
<polyline clip-path="url(#clip682)" style="stroke:#000000; stroke-linecap:round; stroke-linejoin:round; stroke-width:2; stroke-opacity:0.1; fill:none" points="257.69,988.444 2352.76,988.444 "/>
<polyline clip-path="url(#clip682)" style="stroke:#000000; stroke-linecap:round; stroke-linejoin:round; stroke-width:2; stroke-opacity:0.1; fill:none" points="257.69,809.259 2352.76,809.259 "/>
<polyline clip-path="url(#clip682)" style="stroke:#000000; stroke-linecap:round; stroke-linejoin:round; stroke-width:2; stroke-opacity:0.1; fill:none" points="257.69,630.074 2352.76,630.074 "/>
<polyline clip-path="url(#clip682)" style="stroke:#000000; stroke-linecap:round; stroke-linejoin:round; stroke-width:2; stroke-opacity:0.1; fill:none" points="257.69,450.889 2352.76,450.889 "/>
<polyline clip-path="url(#clip682)" style="stroke:#000000; stroke-linecap:round; stroke-linejoin:round; stroke-width:2; stroke-opacity:0.1; fill:none" points="257.69,271.704 2352.76,271.704 "/>
<polyline clip-path="url(#clip680)" style="stroke:#000000; stroke-linecap:round; stroke-linejoin:round; stroke-width:4; stroke-opacity:1; fill:none" points="257.69,1423.18 257.69,123.472 "/>
<polyline clip-path="url(#clip680)" style="stroke:#000000; stroke-linecap:round; stroke-linejoin:round; stroke-width:4; stroke-opacity:1; fill:none" points="257.69,1346.81 276.588,1346.81 "/>
<polyline clip-path="url(#clip680)" style="stroke:#000000; stroke-linecap:round; stroke-linejoin:round; stroke-width:4; stroke-opacity:1; fill:none" points="257.69,1167.63 276.588,1167.63 "/>
<polyline clip-path="url(#clip680)" style="stroke:#000000; stroke-linecap:round; stroke-linejoin:round; stroke-width:4; stroke-opacity:1; fill:none" points="257.69,988.444 276.588,988.444 "/>
<polyline clip-path="url(#clip680)" style="stroke:#000000; stroke-linecap:round; stroke-linejoin:round; stroke-width:4; stroke-opacity:1; fill:none" points="257.69,809.259 276.588,809.259 "/>
<polyline clip-path="url(#clip680)" style="stroke:#000000; stroke-linecap:round; stroke-linejoin:round; stroke-width:4; stroke-opacity:1; fill:none" points="257.69,630.074 276.588,630.074 "/>
<polyline clip-path="url(#clip680)" style="stroke:#000000; stroke-linecap:round; stroke-linejoin:round; stroke-width:4; stroke-opacity:1; fill:none" points="257.69,450.889 276.588,450.889 "/>
<polyline clip-path="url(#clip680)" style="stroke:#000000; stroke-linecap:round; stroke-linejoin:round; stroke-width:4; stroke-opacity:1; fill:none" points="257.69,271.704 276.588,271.704 "/>
<path clip-path="url(#clip680)" d="M114.584 1347.26 L144.26 1347.26 L144.26 1351.2 L114.584 1351.2 L114.584 1347.26 Z" fill="#000000" fill-rule="nonzero" fill-opacity="1" /><path clip-path="url(#clip680)" d="M164.352 1332.61 Q160.741 1332.61 158.913 1336.18 Q157.107 1339.72 157.107 1346.85 Q157.107 1353.95 158.913 1357.52 Q160.741 1361.06 164.352 1361.06 Q167.987 1361.06 169.792 1357.52 Q171.621 1353.95 171.621 1346.85 Q171.621 1339.72 169.792 1336.18 Q167.987 1332.61 164.352 1332.61 M164.352 1328.91 Q170.163 1328.91 173.218 1333.51 Q176.297 1338.1 176.297 1346.85 Q176.297 1355.57 173.218 1360.18 Q170.163 1364.76 164.352 1364.76 Q158.542 1364.76 155.464 1360.18 Q152.408 1355.57 152.408 1346.85 Q152.408 1338.1 155.464 1333.51 Q158.542 1328.91 164.352 1328.91 Z" fill="#000000" fill-rule="nonzero" fill-opacity="1" /><path clip-path="url(#clip680)" d="M184.514 1358.21 L189.399 1358.21 L189.399 1364.09 L184.514 1364.09 L184.514 1358.21 Z" fill="#000000" fill-rule="nonzero" fill-opacity="1" /><path clip-path="url(#clip680)" d="M210.162 1344.95 Q207.014 1344.95 205.162 1347.1 Q203.334 1349.26 203.334 1353.01 Q203.334 1356.73 205.162 1358.91 Q207.014 1361.06 210.162 1361.06 Q213.311 1361.06 215.139 1358.91 Q216.991 1356.73 216.991 1353.01 Q216.991 1349.26 215.139 1347.1 Q213.311 1344.95 210.162 1344.95 M219.445 1330.3 L219.445 1334.56 Q217.686 1333.72 215.88 1333.28 Q214.098 1332.84 212.338 1332.84 Q207.709 1332.84 205.255 1335.97 Q202.824 1339.09 202.477 1345.41 Q203.843 1343.4 205.903 1342.33 Q207.963 1341.25 210.44 1341.25 Q215.649 1341.25 218.658 1344.42 Q221.69 1347.57 221.69 1353.01 Q221.69 1358.33 218.542 1361.55 Q215.394 1364.76 210.162 1364.76 Q204.167 1364.76 200.996 1360.18 Q197.825 1355.57 197.825 1346.85 Q197.825 1338.65 201.713 1333.79 Q205.602 1328.91 212.153 1328.91 Q213.912 1328.91 215.695 1329.26 Q217.5 1329.6 219.445 1330.3 Z" fill="#000000" fill-rule="nonzero" fill-opacity="1" /><path clip-path="url(#clip680)" d="M114.26 1168.08 L143.936 1168.08 L143.936 1172.02 L114.26 1172.02 L114.26 1168.08 Z" fill="#000000" fill-rule="nonzero" fill-opacity="1" /><path clip-path="url(#clip680)" d="M164.028 1153.43 Q160.417 1153.43 158.589 1156.99 Q156.783 1160.53 156.783 1167.66 Q156.783 1174.77 158.589 1178.33 Q160.417 1181.88 164.028 1181.88 Q167.663 1181.88 169.468 1178.33 Q171.297 1174.77 171.297 1167.66 Q171.297 1160.53 169.468 1156.99 Q167.663 1153.43 164.028 1153.43 M164.028 1149.72 Q169.839 1149.72 172.894 1154.33 Q175.973 1158.91 175.973 1167.66 Q175.973 1176.39 172.894 1181 Q169.839 1185.58 164.028 1185.58 Q158.218 1185.58 155.14 1181 Q152.084 1176.39 152.084 1167.66 Q152.084 1158.91 155.14 1154.33 Q158.218 1149.72 164.028 1149.72 Z" fill="#000000" fill-rule="nonzero" fill-opacity="1" /><path clip-path="url(#clip680)" d="M184.19 1179.03 L189.075 1179.03 L189.075 1184.91 L184.19 1184.91 L184.19 1179.03 Z" fill="#000000" fill-rule="nonzero" fill-opacity="1" /><path clip-path="url(#clip680)" d="M212.107 1154.42 L200.301 1172.87 L212.107 1172.87 L212.107 1154.42 M210.88 1150.35 L216.76 1150.35 L216.76 1172.87 L221.69 1172.87 L221.69 1176.76 L216.76 1176.76 L216.76 1184.91 L212.107 1184.91 L212.107 1176.76 L196.505 1176.76 L196.505 1172.25 L210.88 1150.35 Z" fill="#000000" fill-rule="nonzero" fill-opacity="1" /><path clip-path="url(#clip680)" d="M116.343 988.895 L146.019 988.895 L146.019 992.83 L116.343 992.83 L116.343 988.895 Z" fill="#000000" fill-rule="nonzero" fill-opacity="1" /><path clip-path="url(#clip680)" d="M166.112 974.242 Q162.501 974.242 160.672 977.807 Q158.866 981.349 158.866 988.478 Q158.866 995.585 160.672 999.15 Q162.501 1002.69 166.112 1002.69 Q169.746 1002.69 171.552 999.15 Q173.38 995.585 173.38 988.478 Q173.38 981.349 171.552 977.807 Q169.746 974.242 166.112 974.242 M166.112 970.539 Q171.922 970.539 174.977 975.145 Q178.056 979.728 178.056 988.478 Q178.056 997.205 174.977 1001.81 Q171.922 1006.39 166.112 1006.39 Q160.302 1006.39 157.223 1001.81 Q154.167 997.205 154.167 988.478 Q154.167 979.728 157.223 975.145 Q160.302 970.539 166.112 970.539 Z" fill="#000000" fill-rule="nonzero" fill-opacity="1" /><path clip-path="url(#clip680)" d="M186.274 999.844 L191.158 999.844 L191.158 1005.72 L186.274 1005.72 L186.274 999.844 Z" fill="#000000" fill-rule="nonzero" fill-opacity="1" /><path clip-path="url(#clip680)" d="M205.371 1001.79 L221.69 1001.79 L221.69 1005.72 L199.746 1005.72 L199.746 1001.79 Q202.408 999.034 206.991 994.404 Q211.598 989.751 212.778 988.409 Q215.024 985.886 215.903 984.15 Q216.806 982.39 216.806 980.701 Q216.806 977.946 214.861 976.21 Q212.94 974.474 209.838 974.474 Q207.639 974.474 205.186 975.238 Q202.755 976.002 199.977 977.552 L199.977 972.83 Q202.801 971.696 205.255 971.117 Q207.709 970.539 209.746 970.539 Q215.116 970.539 218.311 973.224 Q221.505 975.909 221.505 980.4 Q221.505 982.529 220.695 984.451 Q219.908 986.349 217.801 988.941 Q217.223 989.613 214.121 992.83 Q211.019 996.025 205.371 1001.79 Z" fill="#000000" fill-rule="nonzero" fill-opacity="1" /><path clip-path="url(#clip680)" d="M164.515 795.057 Q160.903 795.057 159.075 798.622 Q157.269 802.164 157.269 809.293 Q157.269 816.4 159.075 819.965 Q160.903 823.506 164.515 823.506 Q168.149 823.506 169.954 819.965 Q171.783 816.4 171.783 809.293 Q171.783 802.164 169.954 798.622 Q168.149 795.057 164.515 795.057 M164.515 791.354 Q170.325 791.354 173.38 795.96 Q176.459 800.544 176.459 809.293 Q176.459 818.02 173.38 822.627 Q170.325 827.21 164.515 827.21 Q158.704 827.21 155.626 822.627 Q152.57 818.02 152.57 809.293 Q152.57 800.544 155.626 795.96 Q158.704 791.354 164.515 791.354 Z" fill="#000000" fill-rule="nonzero" fill-opacity="1" /><path clip-path="url(#clip680)" d="M184.676 820.659 L189.561 820.659 L189.561 826.539 L184.676 826.539 L184.676 820.659 Z" fill="#000000" fill-rule="nonzero" fill-opacity="1" /><path clip-path="url(#clip680)" d="M209.746 795.057 Q206.135 795.057 204.306 798.622 Q202.5 802.164 202.5 809.293 Q202.5 816.4 204.306 819.965 Q206.135 823.506 209.746 823.506 Q213.38 823.506 215.186 819.965 Q217.014 816.4 217.014 809.293 Q217.014 802.164 215.186 798.622 Q213.38 795.057 209.746 795.057 M209.746 791.354 Q215.556 791.354 218.611 795.96 Q221.69 800.544 221.69 809.293 Q221.69 818.02 218.611 822.627 Q215.556 827.21 209.746 827.21 Q203.936 827.21 200.857 822.627 Q197.801 818.02 197.801 809.293 Q197.801 800.544 200.857 795.96 Q203.936 791.354 209.746 791.354 Z" fill="#000000" fill-rule="nonzero" fill-opacity="1" /><path clip-path="url(#clip680)" d="M166.112 615.873 Q162.501 615.873 160.672 619.437 Q158.866 622.979 158.866 630.109 Q158.866 637.215 160.672 640.78 Q162.501 644.322 166.112 644.322 Q169.746 644.322 171.552 640.78 Q173.38 637.215 173.38 630.109 Q173.38 622.979 171.552 619.437 Q169.746 615.873 166.112 615.873 M166.112 612.169 Q171.922 612.169 174.977 616.775 Q178.056 621.359 178.056 630.109 Q178.056 638.835 174.977 643.442 Q171.922 648.025 166.112 648.025 Q160.302 648.025 157.223 643.442 Q154.167 638.835 154.167 630.109 Q154.167 621.359 157.223 616.775 Q160.302 612.169 166.112 612.169 Z" fill="#000000" fill-rule="nonzero" fill-opacity="1" /><path clip-path="url(#clip680)" d="M186.274 641.474 L191.158 641.474 L191.158 647.354 L186.274 647.354 L186.274 641.474 Z" fill="#000000" fill-rule="nonzero" fill-opacity="1" /><path clip-path="url(#clip680)" d="M205.371 643.419 L221.69 643.419 L221.69 647.354 L199.746 647.354 L199.746 643.419 Q202.408 640.664 206.991 636.035 Q211.598 631.382 212.778 630.039 Q215.024 627.516 215.903 625.78 Q216.806 624.021 216.806 622.331 Q216.806 619.576 214.861 617.84 Q212.94 616.104 209.838 616.104 Q207.639 616.104 205.186 616.868 Q202.755 617.632 199.977 619.183 L199.977 614.461 Q202.801 613.326 205.255 612.748 Q207.709 612.169 209.746 612.169 Q215.116 612.169 218.311 614.854 Q221.505 617.539 221.505 622.03 Q221.505 624.16 220.695 626.081 Q219.908 627.979 217.801 630.572 Q217.223 631.243 214.121 634.46 Q211.019 637.655 205.371 643.419 Z" fill="#000000" fill-rule="nonzero" fill-opacity="1" /><path clip-path="url(#clip680)" d="M164.028 436.688 Q160.417 436.688 158.589 440.253 Q156.783 443.794 156.783 450.924 Q156.783 458.03 158.589 461.595 Q160.417 465.137 164.028 465.137 Q167.663 465.137 169.468 461.595 Q171.297 458.03 171.297 450.924 Q171.297 443.794 169.468 440.253 Q167.663 436.688 164.028 436.688 M164.028 432.984 Q169.839 432.984 172.894 437.591 Q175.973 442.174 175.973 450.924 Q175.973 459.651 172.894 464.257 Q169.839 468.84 164.028 468.84 Q158.218 468.84 155.14 464.257 Q152.084 459.651 152.084 450.924 Q152.084 442.174 155.14 437.591 Q158.218 432.984 164.028 432.984 Z" fill="#000000" fill-rule="nonzero" fill-opacity="1" /><path clip-path="url(#clip680)" d="M184.19 462.289 L189.075 462.289 L189.075 468.169 L184.19 468.169 L184.19 462.289 Z" fill="#000000" fill-rule="nonzero" fill-opacity="1" /><path clip-path="url(#clip680)" d="M212.107 437.683 L200.301 456.132 L212.107 456.132 L212.107 437.683 M210.88 433.609 L216.76 433.609 L216.76 456.132 L221.69 456.132 L221.69 460.021 L216.76 460.021 L216.76 468.169 L212.107 468.169 L212.107 460.021 L196.505 460.021 L196.505 455.507 L210.88 433.609 Z" fill="#000000" fill-rule="nonzero" fill-opacity="1" /><path clip-path="url(#clip680)" d="M164.352 257.503 Q160.741 257.503 158.913 261.068 Q157.107 264.609 157.107 271.739 Q157.107 278.845 158.913 282.41 Q160.741 285.952 164.352 285.952 Q167.987 285.952 169.792 282.41 Q171.621 278.845 171.621 271.739 Q171.621 264.609 169.792 261.068 Q167.987 257.503 164.352 257.503 M164.352 253.799 Q170.163 253.799 173.218 258.406 Q176.297 262.989 176.297 271.739 Q176.297 280.466 173.218 285.072 Q170.163 289.656 164.352 289.656 Q158.542 289.656 155.464 285.072 Q152.408 280.466 152.408 271.739 Q152.408 262.989 155.464 258.406 Q158.542 253.799 164.352 253.799 Z" fill="#000000" fill-rule="nonzero" fill-opacity="1" /><path clip-path="url(#clip680)" d="M184.514 283.105 L189.399 283.105 L189.399 288.984 L184.514 288.984 L184.514 283.105 Z" fill="#000000" fill-rule="nonzero" fill-opacity="1" /><path clip-path="url(#clip680)" d="M210.162 269.841 Q207.014 269.841 205.162 271.994 Q203.334 274.146 203.334 277.896 Q203.334 281.623 205.162 283.799 Q207.014 285.952 210.162 285.952 Q213.311 285.952 215.139 283.799 Q216.991 281.623 216.991 277.896 Q216.991 274.146 215.139 271.994 Q213.311 269.841 210.162 269.841 M219.445 255.188 L219.445 259.447 Q217.686 258.614 215.88 258.174 Q214.098 257.734 212.338 257.734 Q207.709 257.734 205.255 260.859 Q202.824 263.984 202.477 270.304 Q203.843 268.29 205.903 267.225 Q207.963 266.137 210.44 266.137 Q215.649 266.137 218.658 269.308 Q221.69 272.457 221.69 277.896 Q221.69 283.22 218.542 286.438 Q215.394 289.656 210.162 289.656 Q204.167 289.656 200.996 285.072 Q197.825 280.466 197.825 271.739 Q197.825 263.545 201.713 258.683 Q205.602 253.799 212.153 253.799 Q213.912 253.799 215.695 254.146 Q217.5 254.494 219.445 255.188 Z" fill="#000000" fill-rule="nonzero" fill-opacity="1" /><path clip-path="url(#clip680)" d="M18.0438 893.717 L24.314 893.717 Q22.5634 897.378 21.704 900.624 Q20.8447 903.871 20.8447 906.894 Q20.8447 912.146 22.8817 915.011 Q24.9187 917.843 28.6745 917.843 Q31.8255 917.843 33.4488 915.966 Q35.0402 914.056 36.0269 908.772 L36.8226 904.889 Q38.1912 897.696 41.6605 894.29 Q45.098 890.853 50.8908 890.853 Q57.7976 890.853 61.3624 895.5 Q64.9272 900.115 64.9272 909.059 Q64.9272 912.433 64.1633 916.252 Q63.3994 920.04 61.9035 924.114 L55.2831 924.114 Q57.4793 920.199 58.5933 916.443 Q59.7073 912.687 59.7073 909.059 Q59.7073 903.552 57.543 900.561 Q55.3786 897.569 51.3682 897.569 Q47.8671 897.569 45.8937 899.733 Q43.9204 901.866 42.9337 906.767 L42.1698 910.682 Q40.7375 917.875 37.682 921.09 Q34.6264 924.305 29.1837 924.305 Q22.8817 924.305 19.2532 919.88 Q15.6248 915.424 15.6248 907.626 Q15.6248 904.284 16.2295 900.815 Q16.8343 897.346 18.0438 893.717 Z" fill="#000000" fill-rule="nonzero" fill-opacity="1" /><path clip-path="url(#clip680)" d="M28.3562 881.081 L28.3562 875.225 L64.0042 875.225 L64.0042 881.081 L28.3562 881.081 M14.479 881.081 L14.479 875.225 L21.895 875.225 L21.895 881.081 L14.479 881.081 Z" fill="#000000" fill-rule="nonzero" fill-opacity="1" /><path clip-path="url(#clip680)" d="M35.1993 835.217 Q31.2526 833.02 29.3747 829.965 Q27.4968 826.909 27.4968 822.772 Q27.4968 817.202 31.4117 814.178 Q35.2948 811.154 42.4881 811.154 L64.0042 811.154 L64.0042 817.042 L42.679 817.042 Q37.5546 817.042 35.072 818.857 Q32.5894 820.671 32.5894 824.395 Q32.5894 828.946 35.6131 831.588 Q38.6368 834.23 43.8567 834.23 L64.0042 834.23 L64.0042 840.118 L42.679 840.118 Q37.5228 840.118 35.072 841.932 Q32.5894 843.747 32.5894 847.534 Q32.5894 852.022 35.6449 854.664 Q38.6686 857.306 43.8567 857.306 L64.0042 857.306 L64.0042 863.194 L28.3562 863.194 L28.3562 857.306 L33.8944 857.306 Q30.616 855.3 29.0564 852.499 Q27.4968 849.699 27.4968 845.847 Q27.4968 841.964 29.4702 839.259 Q31.4436 836.522 35.1993 835.217 Z" fill="#000000" fill-rule="nonzero" fill-opacity="1" /><path clip-path="url(#clip680)" d="M28.3562 799.473 L28.3562 793.617 L64.0042 793.617 L64.0042 799.473 L28.3562 799.473 M14.479 799.473 L14.479 793.617 L21.895 793.617 L21.895 799.473 L14.479 799.473 Z" fill="#000000" fill-rule="nonzero" fill-opacity="1" /><path clip-path="url(#clip680)" d="M14.479 781.363 L14.479 775.506 L64.0042 775.506 L64.0042 781.363 L14.479 781.363 Z" fill="#000000" fill-rule="nonzero" fill-opacity="1" /><path clip-path="url(#clip680)" d="M46.0847 747.052 Q46.0847 754.149 47.7079 756.887 Q49.3312 759.624 53.2461 759.624 Q56.3653 759.624 58.2114 757.587 Q60.0256 755.518 60.0256 751.985 Q60.0256 747.115 56.5881 744.187 Q53.1188 741.227 47.3897 741.227 L46.0847 741.227 L46.0847 747.052 M43.6657 735.37 L64.0042 735.37 L64.0042 741.227 L58.5933 741.227 Q61.8398 743.232 63.3994 746.224 Q64.9272 749.216 64.9272 753.545 Q64.9272 759.019 61.8716 762.266 Q58.7843 765.48 53.6281 765.48 Q47.6125 765.48 44.5569 761.47 Q41.5014 757.428 41.5014 749.439 L41.5014 741.227 L40.9285 741.227 Q36.8862 741.227 34.6901 743.901 Q32.4621 746.542 32.4621 751.348 Q32.4621 754.404 33.1941 757.3 Q33.9262 760.197 35.3903 762.87 L29.9795 762.87 Q28.7381 759.656 28.1334 756.632 Q27.4968 753.608 27.4968 750.744 Q27.4968 743.009 31.5072 739.19 Q35.5176 735.37 43.6657 735.37 Z" fill="#000000" fill-rule="nonzero" fill-opacity="1" /><path clip-path="url(#clip680)" d="M33.8307 702.651 Q33.2578 703.637 33.0032 704.815 Q32.7167 705.961 32.7167 707.361 Q32.7167 712.327 35.9632 715 Q39.1779 717.642 45.2253 717.642 L64.0042 717.642 L64.0042 723.53 L28.3562 723.53 L28.3562 717.642 L33.8944 717.642 Q30.6479 715.796 29.0883 712.836 Q27.4968 709.876 27.4968 705.643 Q27.4968 705.038 27.5923 704.306 Q27.656 703.574 27.8151 702.683 L33.8307 702.651 Z" fill="#000000" fill-rule="nonzero" fill-opacity="1" /><path clip-path="url(#clip680)" d="M28.3562 696.508 L28.3562 690.651 L64.0042 690.651 L64.0042 696.508 L28.3562 696.508 M14.479 696.508 L14.479 690.651 L21.895 690.651 L21.895 696.508 L14.479 696.508 Z" fill="#000000" fill-rule="nonzero" fill-opacity="1" /><path clip-path="url(#clip680)" d="M18.2347 672.605 L28.3562 672.605 L28.3562 660.542 L32.9077 660.542 L32.9077 672.605 L52.2594 672.605 Q56.6199 672.605 57.8613 671.427 Q59.1026 670.217 59.1026 666.557 L59.1026 660.542 L64.0042 660.542 L64.0042 666.557 Q64.0042 673.337 61.4897 675.915 Q58.9434 678.493 52.2594 678.493 L32.9077 678.493 L32.9077 682.79 L28.3562 682.79 L28.3562 678.493 L18.2347 678.493 L18.2347 672.605 Z" fill="#000000" fill-rule="nonzero" fill-opacity="1" /><path clip-path="url(#clip680)" d="M67.3143 638.007 Q73.68 640.49 75.6216 642.845 Q77.5631 645.2 77.5631 649.147 L77.5631 653.826 L72.6615 653.826 L72.6615 650.388 Q72.6615 647.969 71.5157 646.633 Q70.3699 645.296 66.1048 643.672 L63.4312 642.622 L28.3562 657.04 L28.3562 650.834 L56.238 639.694 L28.3562 628.554 L28.3562 622.347 L67.3143 638.007 Z" fill="#000000" fill-rule="nonzero" fill-opacity="1" /><path clip-path="url(#clip680)" d="M423.685 14.0809 L423.685 22.0612 Q419.027 19.8332 414.895 18.7395 Q410.763 17.6457 406.915 17.6457 Q400.231 17.6457 396.585 20.2383 Q392.98 22.8309 392.98 27.611 Q392.98 31.6214 395.37 33.6873 Q397.8 35.7128 404.525 36.9686 L409.467 37.9813 Q418.622 39.7232 422.956 44.1387 Q427.331 48.5136 427.331 55.8863 Q427.331 64.6767 421.417 69.2137 Q415.543 73.7508 404.16 73.7508 Q399.866 73.7508 395.005 72.7785 Q390.185 71.8063 384.999 69.9024 L384.999 61.4765 Q389.982 64.2716 394.762 65.6895 Q399.542 67.1073 404.16 67.1073 Q411.168 67.1073 414.976 64.3527 Q418.784 61.598 418.784 56.4939 Q418.784 52.0379 416.029 49.5264 Q413.315 47.0148 407.077 45.759 L402.094 44.7868 Q392.939 42.9639 388.848 39.075 Q384.756 35.1862 384.756 28.2591 Q384.756 20.2383 390.387 15.6203 Q396.058 11.0023 405.983 11.0023 Q410.236 11.0023 414.652 11.7719 Q419.067 12.5416 423.685 14.0809 Z" fill="#000000" fill-rule="nonzero" fill-opacity="1" /><path clip-path="url(#clip680)" d="M457.349 32.4315 Q451.353 32.4315 447.869 37.1306 Q444.386 41.7891 444.386 49.9314 Q444.386 58.0738 447.829 62.7728 Q451.313 67.4314 457.349 67.4314 Q463.303 67.4314 466.787 62.7323 Q470.271 58.0333 470.271 49.9314 Q470.271 41.8701 466.787 37.1711 Q463.303 32.4315 457.349 32.4315 M457.349 26.1121 Q467.071 26.1121 472.62 32.4315 Q478.17 38.7509 478.17 49.9314 Q478.17 61.0714 472.62 67.4314 Q467.071 73.7508 457.349 73.7508 Q447.586 73.7508 442.036 67.4314 Q436.527 61.0714 436.527 49.9314 Q436.527 38.7509 442.036 32.4315 Q447.586 26.1121 457.349 26.1121 Z" fill="#000000" fill-rule="nonzero" fill-opacity="1" /><path clip-path="url(#clip680)" d="M516.816 34.1734 Q515.56 33.4443 514.061 33.1202 Q512.603 32.7556 510.82 32.7556 Q504.501 32.7556 501.098 36.8875 Q497.736 40.9789 497.736 48.6757 L497.736 72.576 L490.242 72.576 L490.242 27.2059 L497.736 27.2059 L497.736 34.2544 Q500.086 30.1225 503.853 28.1376 Q507.62 26.1121 513.008 26.1121 Q513.778 26.1121 514.709 26.2337 Q515.641 26.3147 516.775 26.5172 L516.816 34.1734 Z" fill="#000000" fill-rule="nonzero" fill-opacity="1" /><path clip-path="url(#clip680)" d="M532.007 14.324 L532.007 27.2059 L547.36 27.2059 L547.36 32.9987 L532.007 32.9987 L532.007 57.6282 Q532.007 63.1779 533.506 64.7578 Q535.045 66.3376 539.703 66.3376 L547.36 66.3376 L547.36 72.576 L539.703 72.576 Q531.075 72.576 527.794 69.3758 Q524.513 66.1351 524.513 57.6282 L524.513 32.9987 L519.044 32.9987 L519.044 27.2059 L524.513 27.2059 L524.513 14.324 L532.007 14.324 Z" fill="#000000" fill-rule="nonzero" fill-opacity="1" /><path clip-path="url(#clip680)" d="M595.97 48.0275 L595.97 51.6733 L561.7 51.6733 Q562.186 59.3701 566.318 63.421 Q570.49 67.4314 577.903 67.4314 Q582.197 67.4314 586.208 66.3781 Q590.259 65.3249 594.229 63.2184 L594.229 70.267 Q590.218 71.9684 586.005 72.8596 Q581.792 73.7508 577.458 73.7508 Q566.601 73.7508 560.241 67.4314 Q553.922 61.1119 553.922 50.3365 Q553.922 39.1965 559.917 32.6746 Q565.953 26.1121 576.162 26.1121 Q585.317 26.1121 590.623 32.0264 Q595.97 37.9003 595.97 48.0275 M588.517 45.84 Q588.436 39.7232 585.074 36.0774 Q581.752 32.4315 576.243 32.4315 Q570.004 32.4315 566.237 35.9558 Q562.51 39.4801 561.943 45.8805 L588.517 45.84 Z" fill="#000000" fill-rule="nonzero" fill-opacity="1" /><path clip-path="url(#clip680)" d="M638.059 34.0924 L638.059 9.54393 L645.513 9.54393 L645.513 72.576 L638.059 72.576 L638.059 65.7705 Q635.71 69.8214 632.105 71.8063 Q628.54 73.7508 623.517 73.7508 Q615.293 73.7508 610.108 67.1883 Q604.963 60.6258 604.963 49.9314 Q604.963 39.2371 610.108 32.6746 Q615.293 26.1121 623.517 26.1121 Q628.54 26.1121 632.105 28.0971 Q635.71 30.0415 638.059 34.0924 M612.66 49.9314 Q612.66 58.1548 616.022 62.8538 Q619.425 67.5124 625.34 67.5124 Q631.254 67.5124 634.657 62.8538 Q638.059 58.1548 638.059 49.9314 Q638.059 41.7081 634.657 37.0496 Q631.254 32.3505 625.34 32.3505 Q619.425 32.3505 616.022 37.0496 Q612.66 41.7081 612.66 49.9314 Z" fill="#000000" fill-rule="nonzero" fill-opacity="1" /><path clip-path="url(#clip680)" d="M719.888 28.9478 L719.888 35.9153 Q716.728 34.1734 713.528 33.3227 Q710.368 32.4315 707.127 32.4315 Q699.876 32.4315 695.866 37.0496 Q691.855 41.6271 691.855 49.9314 Q691.855 58.2358 695.866 62.8538 Q699.876 67.4314 707.127 67.4314 Q710.368 67.4314 713.528 66.5807 Q716.728 65.6895 719.888 63.9476 L719.888 70.8341 Q716.768 72.2924 713.406 73.0216 Q710.084 73.7508 706.317 73.7508 Q696.068 73.7508 690.032 67.3098 Q683.997 60.8689 683.997 49.9314 Q683.997 38.832 690.073 32.472 Q696.19 26.1121 706.803 26.1121 Q710.246 26.1121 713.528 26.8413 Q716.809 27.5299 719.888 28.9478 Z" fill="#000000" fill-rule="nonzero" fill-opacity="1" /><path clip-path="url(#clip680)" d="M750.431 32.4315 Q744.436 32.4315 740.952 37.1306 Q737.469 41.7891 737.469 49.9314 Q737.469 58.0738 740.912 62.7728 Q744.396 67.4314 750.431 67.4314 Q756.386 67.4314 759.87 62.7323 Q763.354 58.0333 763.354 49.9314 Q763.354 41.8701 759.87 37.1711 Q756.386 32.4315 750.431 32.4315 M750.431 26.1121 Q760.154 26.1121 765.703 32.4315 Q771.253 38.7509 771.253 49.9314 Q771.253 61.0714 765.703 67.4314 Q760.154 73.7508 750.431 73.7508 Q740.669 73.7508 735.119 67.4314 Q729.61 61.0714 729.61 49.9314 Q729.61 38.7509 735.119 32.4315 Q740.669 26.1121 750.431 26.1121 Z" fill="#000000" fill-rule="nonzero" fill-opacity="1" /><path clip-path="url(#clip680)" d="M812.532 28.5427 L812.532 35.5912 Q809.372 33.9709 805.969 33.1607 Q802.567 32.3505 798.921 32.3505 Q793.371 32.3505 790.576 34.0519 Q787.821 35.7533 787.821 39.156 Q787.821 41.7486 789.806 43.2475 Q791.791 44.7058 797.787 46.0426 L800.339 46.6097 Q808.278 48.3111 811.6 51.4303 Q814.962 54.509 814.962 60.0587 Q814.962 66.3781 809.939 70.0644 Q804.957 73.7508 796.207 73.7508 Q792.561 73.7508 788.591 73.0216 Q784.662 72.3329 780.287 70.9151 L780.287 63.2184 Q784.419 65.3654 788.429 66.4591 Q792.439 67.5124 796.369 67.5124 Q801.635 67.5124 804.47 65.73 Q807.306 63.9071 807.306 60.6258 Q807.306 57.5877 805.24 55.9673 Q803.215 54.3469 796.288 52.8481 L793.695 52.2405 Q786.768 50.7821 783.689 47.7845 Q780.611 44.7463 780.611 39.4801 Q780.611 33.0797 785.148 29.5959 Q789.685 26.1121 798.03 26.1121 Q802.161 26.1121 805.807 26.7198 Q809.453 27.3274 812.532 28.5427 Z" fill="#000000" fill-rule="nonzero" fill-opacity="1" /><path clip-path="url(#clip680)" d="M826.831 27.2059 L834.285 27.2059 L834.285 72.576 L826.831 72.576 L826.831 27.2059 M826.831 9.54393 L834.285 9.54393 L834.285 18.9825 L826.831 18.9825 L826.831 9.54393 Z" fill="#000000" fill-rule="nonzero" fill-opacity="1" /><path clip-path="url(#clip680)" d="M887.595 45.1919 L887.595 72.576 L880.141 72.576 L880.141 45.4349 Q880.141 38.994 877.63 35.7938 Q875.118 32.5936 870.095 32.5936 Q864.059 32.5936 860.576 36.4419 Q857.092 40.2903 857.092 46.9338 L857.092 72.576 L849.598 72.576 L849.598 27.2059 L857.092 27.2059 L857.092 34.2544 Q859.765 30.163 863.371 28.1376 Q867.016 26.1121 871.756 26.1121 Q879.574 26.1121 883.585 30.9732 Q887.595 35.7938 887.595 45.1919 Z" fill="#000000" fill-rule="nonzero" fill-opacity="1" /><path clip-path="url(#clip680)" d="M941.27 48.0275 L941.27 51.6733 L906.999 51.6733 Q907.485 59.3701 911.617 63.421 Q915.789 67.4314 923.202 67.4314 Q927.496 67.4314 931.507 66.3781 Q935.558 65.3249 939.528 63.2184 L939.528 70.267 Q935.517 71.9684 931.304 72.8596 Q927.091 73.7508 922.757 73.7508 Q911.9 73.7508 905.541 67.4314 Q899.221 61.1119 899.221 50.3365 Q899.221 39.1965 905.216 32.6746 Q911.252 26.1121 921.461 26.1121 Q930.616 26.1121 935.922 32.0264 Q941.27 37.9003 941.27 48.0275 M933.816 45.84 Q933.735 39.7232 930.373 36.0774 Q927.051 32.4315 921.542 32.4315 Q915.303 32.4315 911.536 35.9558 Q907.809 39.4801 907.242 45.8805 L933.816 45.84 Z" fill="#000000" fill-rule="nonzero" fill-opacity="1" /><path clip-path="url(#clip680)" d="M1008.8 28.5427 L1008.8 35.5912 Q1005.64 33.9709 1002.24 33.1607 Q998.833 32.3505 995.187 32.3505 Q989.637 32.3505 986.842 34.0519 Q984.088 35.7533 984.088 39.156 Q984.088 41.7486 986.073 43.2475 Q988.057 44.7058 994.053 46.0426 L996.605 46.6097 Q1004.54 48.3111 1007.87 51.4303 Q1011.23 54.509 1011.23 60.0587 Q1011.23 66.3781 1006.21 70.0644 Q1001.22 73.7508 992.473 73.7508 Q988.827 73.7508 984.857 73.0216 Q980.928 72.3329 976.553 70.9151 L976.553 63.2184 Q980.685 65.3654 984.695 66.4591 Q988.706 67.5124 992.635 67.5124 Q997.901 67.5124 1000.74 65.73 Q1003.57 63.9071 1003.57 60.6258 Q1003.57 57.5877 1001.51 55.9673 Q999.481 54.3469 992.554 52.8481 L989.961 52.2405 Q983.034 50.7821 979.956 47.7845 Q976.877 44.7463 976.877 39.4801 Q976.877 33.0797 981.414 29.5959 Q985.951 26.1121 994.296 26.1121 Q998.428 26.1121 1002.07 26.7198 Q1005.72 27.3274 1008.8 28.5427 Z" fill="#000000" fill-rule="nonzero" fill-opacity="1" /><path clip-path="url(#clip680)" d="M1023.1 27.2059 L1030.55 27.2059 L1030.55 72.576 L1023.1 72.576 L1023.1 27.2059 M1023.1 9.54393 L1030.55 9.54393 L1030.55 18.9825 L1023.1 18.9825 L1023.1 9.54393 Z" fill="#000000" fill-rule="nonzero" fill-opacity="1" /><path clip-path="url(#clip680)" d="M1081.47 35.9153 Q1084.27 30.8922 1088.16 28.5022 Q1092.04 26.1121 1097.31 26.1121 Q1104.4 26.1121 1108.25 31.0947 Q1112.1 36.0368 1112.1 45.1919 L1112.1 72.576 L1104.6 72.576 L1104.6 45.4349 Q1104.6 38.913 1102.29 35.7533 Q1099.98 32.5936 1095.24 32.5936 Q1089.45 32.5936 1086.09 36.4419 Q1082.73 40.2903 1082.73 46.9338 L1082.73 72.576 L1075.23 72.576 L1075.23 45.4349 Q1075.23 38.8725 1072.92 35.7533 Q1070.61 32.5936 1065.79 32.5936 Q1060.08 32.5936 1056.72 36.4824 Q1053.36 40.3308 1053.36 46.9338 L1053.36 72.576 L1045.86 72.576 L1045.86 27.2059 L1053.36 27.2059 L1053.36 34.2544 Q1055.91 30.082 1059.47 28.0971 Q1063.04 26.1121 1067.94 26.1121 Q1072.88 26.1121 1076.33 28.6237 Q1079.81 31.1352 1081.47 35.9153 Z" fill="#000000" fill-rule="nonzero" fill-opacity="1" /><path clip-path="url(#clip680)" d="M1126.96 27.2059 L1134.42 27.2059 L1134.42 72.576 L1126.96 72.576 L1126.96 27.2059 M1126.96 9.54393 L1134.42 9.54393 L1134.42 18.9825 L1126.96 18.9825 L1126.96 9.54393 Z" fill="#000000" fill-rule="nonzero" fill-opacity="1" /><path clip-path="url(#clip680)" d="M1150.01 9.54393 L1157.47 9.54393 L1157.47 72.576 L1150.01 72.576 L1150.01 9.54393 Z" fill="#000000" fill-rule="nonzero" fill-opacity="1" /><path clip-path="url(#clip680)" d="M1193.68 49.7694 Q1184.65 49.7694 1181.16 51.8354 Q1177.68 53.9013 1177.68 58.8839 Q1177.68 62.8538 1180.27 65.2034 Q1182.91 67.5124 1187.4 67.5124 Q1193.6 67.5124 1197.33 63.1374 Q1201.09 58.7219 1201.09 51.4303 L1201.09 49.7694 L1193.68 49.7694 M1208.55 46.6907 L1208.55 72.576 L1201.09 72.576 L1201.09 65.6895 Q1198.54 69.8214 1194.73 71.8063 Q1190.93 73.7508 1185.42 73.7508 Q1178.45 73.7508 1174.32 69.8619 Q1170.23 65.9325 1170.23 59.3701 Q1170.23 51.7138 1175.33 47.825 Q1180.48 43.9361 1190.64 43.9361 L1201.09 43.9361 L1201.09 43.2069 Q1201.09 38.0623 1197.69 35.2672 Q1194.33 32.4315 1188.21 32.4315 Q1184.32 32.4315 1180.64 33.3632 Q1176.95 34.295 1173.55 36.1584 L1173.55 29.2718 Q1177.64 27.692 1181.49 26.9223 Q1185.34 26.1121 1188.98 26.1121 Q1198.83 26.1121 1203.69 31.2163 Q1208.55 36.3204 1208.55 46.6907 Z" fill="#000000" fill-rule="nonzero" fill-opacity="1" /><path clip-path="url(#clip680)" d="M1250.19 34.1734 Q1248.94 33.4443 1247.44 33.1202 Q1245.98 32.7556 1244.2 32.7556 Q1237.88 32.7556 1234.47 36.8875 Q1231.11 40.9789 1231.11 48.6757 L1231.11 72.576 L1223.62 72.576 L1223.62 27.2059 L1231.11 27.2059 L1231.11 34.2544 Q1233.46 30.1225 1237.23 28.1376 Q1241 26.1121 1246.38 26.1121 Q1247.15 26.1121 1248.09 26.2337 Q1249.02 26.3147 1250.15 26.5172 L1250.19 34.1734 Z" fill="#000000" fill-rule="nonzero" fill-opacity="1" /><path clip-path="url(#clip680)" d="M1258.01 27.2059 L1265.46 27.2059 L1265.46 72.576 L1258.01 72.576 L1258.01 27.2059 M1258.01 9.54393 L1265.46 9.54393 L1265.46 18.9825 L1258.01 18.9825 L1258.01 9.54393 Z" fill="#000000" fill-rule="nonzero" fill-opacity="1" /><path clip-path="url(#clip680)" d="M1288.43 14.324 L1288.43 27.2059 L1303.78 27.2059 L1303.78 32.9987 L1288.43 32.9987 L1288.43 57.6282 Q1288.43 63.1779 1289.93 64.7578 Q1291.47 66.3376 1296.13 66.3376 L1303.78 66.3376 L1303.78 72.576 L1296.13 72.576 Q1287.5 72.576 1284.22 69.3758 Q1280.94 66.1351 1280.94 57.6282 L1280.94 32.9987 L1275.47 32.9987 L1275.47 27.2059 L1280.94 27.2059 L1280.94 14.324 L1288.43 14.324 Z" fill="#000000" fill-rule="nonzero" fill-opacity="1" /><path clip-path="url(#clip680)" d="M1313.59 27.2059 L1321.04 27.2059 L1321.04 72.576 L1313.59 72.576 L1313.59 27.2059 M1313.59 9.54393 L1321.04 9.54393 L1321.04 18.9825 L1313.59 18.9825 L1313.59 9.54393 Z" fill="#000000" fill-rule="nonzero" fill-opacity="1" /><path clip-path="url(#clip680)" d="M1375.45 48.0275 L1375.45 51.6733 L1341.17 51.6733 Q1341.66 59.3701 1345.79 63.421 Q1349.97 67.4314 1357.38 67.4314 Q1361.67 67.4314 1365.68 66.3781 Q1369.73 65.3249 1373.7 63.2184 L1373.7 70.267 Q1369.69 71.9684 1365.48 72.8596 Q1361.27 73.7508 1356.93 73.7508 Q1346.08 73.7508 1339.72 67.4314 Q1333.4 61.1119 1333.4 50.3365 Q1333.4 39.1965 1339.39 32.6746 Q1345.43 26.1121 1355.64 26.1121 Q1364.79 26.1121 1370.1 32.0264 Q1375.45 37.9003 1375.45 48.0275 M1367.99 45.84 Q1367.91 39.7232 1364.55 36.0774 Q1361.23 32.4315 1355.72 32.4315 Q1349.48 32.4315 1345.71 35.9558 Q1341.98 39.4801 1341.42 45.8805 L1367.99 45.84 Z" fill="#000000" fill-rule="nonzero" fill-opacity="1" /><path clip-path="url(#clip680)" d="M1416.6 28.5427 L1416.6 35.5912 Q1413.44 33.9709 1410.04 33.1607 Q1406.64 32.3505 1402.99 32.3505 Q1397.44 32.3505 1394.65 34.0519 Q1391.89 35.7533 1391.89 39.156 Q1391.89 41.7486 1393.88 43.2475 Q1395.86 44.7058 1401.86 46.0426 L1404.41 46.6097 Q1412.35 48.3111 1415.67 51.4303 Q1419.03 54.509 1419.03 60.0587 Q1419.03 66.3781 1414.01 70.0644 Q1409.03 73.7508 1400.28 73.7508 Q1396.63 73.7508 1392.66 73.0216 Q1388.73 72.3329 1384.36 70.9151 L1384.36 63.2184 Q1388.49 65.3654 1392.5 66.4591 Q1396.51 67.5124 1400.44 67.5124 Q1405.71 67.5124 1408.54 65.73 Q1411.38 63.9071 1411.38 60.6258 Q1411.38 57.5877 1409.31 55.9673 Q1407.29 54.3469 1400.36 52.8481 L1397.77 52.2405 Q1390.84 50.7821 1387.76 47.7845 Q1384.68 44.7463 1384.68 39.4801 Q1384.68 33.0797 1389.22 29.5959 Q1393.76 26.1121 1402.1 26.1121 Q1406.23 26.1121 1409.88 26.7198 Q1413.52 27.3274 1416.6 28.5427 Z" fill="#000000" fill-rule="nonzero" fill-opacity="1" /><path clip-path="url(#clip680)" d="M1489.92 28.9478 L1489.92 35.9153 Q1486.76 34.1734 1483.56 33.3227 Q1480.4 32.4315 1477.16 32.4315 Q1469.91 32.4315 1465.9 37.0496 Q1461.89 41.6271 1461.89 49.9314 Q1461.89 58.2358 1465.9 62.8538 Q1469.91 67.4314 1477.16 67.4314 Q1480.4 67.4314 1483.56 66.5807 Q1486.76 65.6895 1489.92 63.9476 L1489.92 70.8341 Q1486.8 72.2924 1483.44 73.0216 Q1480.12 73.7508 1476.35 73.7508 Q1466.1 73.7508 1460.07 67.3098 Q1454.03 60.8689 1454.03 49.9314 Q1454.03 38.832 1460.11 32.472 Q1466.23 26.1121 1476.84 26.1121 Q1480.28 26.1121 1483.56 26.8413 Q1486.85 27.5299 1489.92 28.9478 Z" fill="#000000" fill-rule="nonzero" fill-opacity="1" /><path clip-path="url(#clip680)" d="M1541.69 48.0275 L1541.69 51.6733 L1507.42 51.6733 Q1507.91 59.3701 1512.04 63.421 Q1516.21 67.4314 1523.63 67.4314 Q1527.92 67.4314 1531.93 66.3781 Q1535.98 65.3249 1539.95 63.2184 L1539.95 70.267 Q1535.94 71.9684 1531.73 72.8596 Q1527.52 73.7508 1523.18 73.7508 Q1512.33 73.7508 1505.97 67.4314 Q1499.65 61.1119 1499.65 50.3365 Q1499.65 39.1965 1505.64 32.6746 Q1511.68 26.1121 1521.89 26.1121 Q1531.04 26.1121 1536.35 32.0264 Q1541.69 37.9003 1541.69 48.0275 M1534.24 45.84 Q1534.16 39.7232 1530.8 36.0774 Q1527.48 32.4315 1521.97 32.4315 Q1515.73 32.4315 1511.96 35.9558 Q1508.23 39.4801 1507.67 45.8805 L1534.24 45.84 Z" fill="#000000" fill-rule="nonzero" fill-opacity="1" /><path clip-path="url(#clip680)" d="M1553.93 9.54393 L1561.38 9.54393 L1561.38 72.576 L1553.93 72.576 L1553.93 9.54393 Z" fill="#000000" fill-rule="nonzero" fill-opacity="1" /><path clip-path="url(#clip680)" d="M1576.98 9.54393 L1584.43 9.54393 L1584.43 72.576 L1576.98 72.576 L1576.98 9.54393 Z" fill="#000000" fill-rule="nonzero" fill-opacity="1" /><path clip-path="url(#clip680)" d="M1628.87 65.6895 L1642.24 65.6895 L1642.24 19.5497 L1627.7 22.4663 L1627.7 15.0127 L1642.16 12.096 L1650.34 12.096 L1650.34 65.6895 L1663.71 65.6895 L1663.71 72.576 L1628.87 72.576 L1628.87 65.6895 Z" fill="#000000" fill-rule="nonzero" fill-opacity="1" /><path clip-path="url(#clip680)" d="M1697.74 17.4837 Q1691.42 17.4837 1688.22 23.7221 Q1685.06 29.92 1685.06 42.3968 Q1685.06 54.833 1688.22 61.0714 Q1691.42 67.2693 1697.74 67.2693 Q1704.1 67.2693 1707.26 61.0714 Q1710.46 54.833 1710.46 42.3968 Q1710.46 29.92 1707.26 23.7221 Q1704.1 17.4837 1697.74 17.4837 M1697.74 11.0023 Q1707.9 11.0023 1713.25 19.0636 Q1718.64 27.0843 1718.64 42.3968 Q1718.64 57.6687 1713.25 65.73 Q1707.9 73.7508 1697.74 73.7508 Q1687.57 73.7508 1682.18 65.73 Q1676.83 57.6687 1676.83 42.3968 Q1676.83 27.0843 1682.18 19.0636 Q1687.57 11.0023 1697.74 11.0023 Z" fill="#000000" fill-rule="nonzero" fill-opacity="1" /><path clip-path="url(#clip680)" d="M1734.44 65.6895 L1747.8 65.6895 L1747.8 19.5497 L1733.26 22.4663 L1733.26 15.0127 L1747.72 12.096 L1755.91 12.096 L1755.91 65.6895 L1769.27 65.6895 L1769.27 72.576 L1734.44 72.576 L1734.44 65.6895 Z" fill="#000000" fill-rule="nonzero" fill-opacity="1" /><path clip-path="url(#clip680)" d="M1811.12 27.2059 L1818.57 27.2059 L1818.57 72.576 L1811.12 72.576 L1811.12 27.2059 M1811.12 9.54393 L1818.57 9.54393 L1818.57 18.9825 L1811.12 18.9825 L1811.12 9.54393 Z" fill="#000000" fill-rule="nonzero" fill-opacity="1" /><path clip-path="url(#clip680)" d="M1841.54 14.324 L1841.54 27.2059 L1856.9 27.2059 L1856.9 32.9987 L1841.54 32.9987 L1841.54 57.6282 Q1841.54 63.1779 1843.04 64.7578 Q1844.58 66.3376 1849.24 66.3376 L1856.9 66.3376 L1856.9 72.576 L1849.24 72.576 Q1840.61 72.576 1837.33 69.3758 Q1834.05 66.1351 1834.05 57.6282 L1834.05 32.9987 L1828.58 32.9987 L1828.58 27.2059 L1834.05 27.2059 L1834.05 14.324 L1841.54 14.324 Z" fill="#000000" fill-rule="nonzero" fill-opacity="1" /><path clip-path="url(#clip680)" d="M1905.51 48.0275 L1905.51 51.6733 L1871.24 51.6733 Q1871.72 59.3701 1875.85 63.421 Q1880.03 67.4314 1887.44 67.4314 Q1891.73 67.4314 1895.74 66.3781 Q1899.79 65.3249 1903.76 63.2184 L1903.76 70.267 Q1899.75 71.9684 1895.54 72.8596 Q1891.33 73.7508 1886.99 73.7508 Q1876.14 73.7508 1869.78 67.4314 Q1863.46 61.1119 1863.46 50.3365 Q1863.46 39.1965 1869.45 32.6746 Q1875.49 26.1121 1885.7 26.1121 Q1894.85 26.1121 1900.16 32.0264 Q1905.51 37.9003 1905.51 48.0275 M1898.05 45.84 Q1897.97 39.7232 1894.61 36.0774 Q1891.29 32.4315 1885.78 32.4315 Q1879.54 32.4315 1875.77 35.9558 Q1872.05 39.4801 1871.48 45.8805 L1898.05 45.84 Z" fill="#000000" fill-rule="nonzero" fill-opacity="1" /><path clip-path="url(#clip680)" d="M1944.03 34.1734 Q1942.77 33.4443 1941.28 33.1202 Q1939.82 32.7556 1938.04 32.7556 Q1931.72 32.7556 1928.31 36.8875 Q1924.95 40.9789 1924.95 48.6757 L1924.95 72.576 L1917.46 72.576 L1917.46 27.2059 L1924.95 27.2059 L1924.95 34.2544 Q1927.3 30.1225 1931.07 28.1376 Q1934.83 26.1121 1940.22 26.1121 Q1940.99 26.1121 1941.92 26.2337 Q1942.86 26.3147 1943.99 26.5172 L1944.03 34.1734 Z" fill="#000000" fill-rule="nonzero" fill-opacity="1" /><path clip-path="url(#clip680)" d="M1972.47 49.7694 Q1963.43 49.7694 1959.95 51.8354 Q1956.47 53.9013 1956.47 58.8839 Q1956.47 62.8538 1959.06 65.2034 Q1961.69 67.5124 1966.19 67.5124 Q1972.39 67.5124 1976.11 63.1374 Q1979.88 58.7219 1979.88 51.4303 L1979.88 49.7694 L1972.47 49.7694 M1987.33 46.6907 L1987.33 72.576 L1979.88 72.576 L1979.88 65.6895 Q1977.33 69.8214 1973.52 71.8063 Q1969.71 73.7508 1964.2 73.7508 Q1957.24 73.7508 1953.1 69.8619 Q1949.01 65.9325 1949.01 59.3701 Q1949.01 51.7138 1954.12 47.825 Q1959.26 43.9361 1969.43 43.9361 L1979.88 43.9361 L1979.88 43.2069 Q1979.88 38.0623 1976.48 35.2672 Q1973.12 32.4315 1967 32.4315 Q1963.11 32.4315 1959.42 33.3632 Q1955.74 34.295 1952.33 36.1584 L1952.33 29.2718 Q1956.43 27.692 1960.27 26.9223 Q1964.12 26.1121 1967.77 26.1121 Q1977.61 26.1121 1982.47 31.2163 Q1987.33 36.3204 1987.33 46.6907 Z" fill="#000000" fill-rule="nonzero" fill-opacity="1" /><path clip-path="url(#clip680)" d="M2010.06 14.324 L2010.06 27.2059 L2025.41 27.2059 L2025.41 32.9987 L2010.06 32.9987 L2010.06 57.6282 Q2010.06 63.1779 2011.56 64.7578 Q2013.1 66.3376 2017.76 66.3376 L2025.41 66.3376 L2025.41 72.576 L2017.76 72.576 Q2009.13 72.576 2005.85 69.3758 Q2002.57 66.1351 2002.57 57.6282 L2002.57 32.9987 L1997.1 32.9987 L1997.1 27.2059 L2002.57 27.2059 L2002.57 14.324 L2010.06 14.324 Z" fill="#000000" fill-rule="nonzero" fill-opacity="1" /><path clip-path="url(#clip680)" d="M2035.22 27.2059 L2042.67 27.2059 L2042.67 72.576 L2035.22 72.576 L2035.22 27.2059 M2035.22 9.54393 L2042.67 9.54393 L2042.67 18.9825 L2035.22 18.9825 L2035.22 9.54393 Z" fill="#000000" fill-rule="nonzero" fill-opacity="1" /><path clip-path="url(#clip680)" d="M2075.85 32.4315 Q2069.85 32.4315 2066.37 37.1306 Q2062.88 41.7891 2062.88 49.9314 Q2062.88 58.0738 2066.33 62.7728 Q2069.81 67.4314 2075.85 67.4314 Q2081.8 67.4314 2085.29 62.7323 Q2088.77 58.0333 2088.77 49.9314 Q2088.77 41.8701 2085.29 37.1711 Q2081.8 32.4315 2075.85 32.4315 M2075.85 26.1121 Q2085.57 26.1121 2091.12 32.4315 Q2096.67 38.7509 2096.67 49.9314 Q2096.67 61.0714 2091.12 67.4314 Q2085.57 73.7508 2075.85 73.7508 Q2066.08 73.7508 2060.53 67.4314 Q2055.03 61.0714 2055.03 49.9314 Q2055.03 38.7509 2060.53 32.4315 Q2066.08 26.1121 2075.85 26.1121 Z" fill="#000000" fill-rule="nonzero" fill-opacity="1" /><path clip-path="url(#clip680)" d="M2146.74 45.1919 L2146.74 72.576 L2139.28 72.576 L2139.28 45.4349 Q2139.28 38.994 2136.77 35.7938 Q2134.26 32.5936 2129.24 32.5936 Q2123.2 32.5936 2119.72 36.4419 Q2116.23 40.2903 2116.23 46.9338 L2116.23 72.576 L2108.74 72.576 L2108.74 27.2059 L2116.23 27.2059 L2116.23 34.2544 Q2118.91 30.163 2122.51 28.1376 Q2126.16 26.1121 2130.9 26.1121 Q2138.72 26.1121 2142.73 30.9732 Q2146.74 35.7938 2146.74 45.1919 Z" fill="#000000" fill-rule="nonzero" fill-opacity="1" /><path clip-path="url(#clip680)" d="M2189.11 12.096 L2221.23 12.096 L2221.23 18.9825 L2196.6 18.9825 L2196.6 33.8088 Q2198.39 33.2012 2200.17 32.9176 Q2201.95 32.5936 2203.73 32.5936 Q2213.86 32.5936 2219.78 38.1433 Q2225.69 43.6931 2225.69 53.1722 Q2225.69 62.9348 2219.61 68.3631 Q2213.54 73.7508 2202.48 73.7508 Q2198.67 73.7508 2194.7 73.1026 Q2190.77 72.4545 2186.56 71.1582 L2186.56 62.9348 Q2190.2 64.9198 2194.09 65.892 Q2197.98 66.8642 2202.32 66.8642 Q2209.32 66.8642 2213.42 63.1779 Q2217.51 59.4916 2217.51 53.1722 Q2217.51 46.8528 2213.42 43.1664 Q2209.32 39.4801 2202.32 39.4801 Q2199.03 39.4801 2195.75 40.2093 Q2192.51 40.9384 2189.11 42.4778 L2189.11 12.096 Z" fill="#000000" fill-rule="nonzero" fill-opacity="1" /><polyline clip-path="url(#clip682)" style="stroke:#009af9; stroke-linecap:round; stroke-linejoin:round; stroke-width:4; stroke-opacity:1; fill:none" points="316.984,1386.4 318.963,1383.08 320.941,1376.24 322.92,1374.54 324.898,1371.79 326.877,1371.14 328.855,1359.89 330.834,1347.95 332.812,1345.09 334.791,1299.47 336.769,1299.13 338.747,1296.74 340.726,1295.52 342.704,1294.01 344.683,1285.74 346.661,1285.72 348.64,1280.87 350.618,1280.34 352.597,1280.34 354.575,1280.19 356.554,1279.84 358.532,1279.39 360.51,1279.25 362.489,1278.25 364.467,1278.22 366.446,1277.85 368.424,1277.71 370.403,1277.47 372.381,1277.28 374.36,1275.9 376.338,1275.36 378.317,1275.35 380.295,1275.2 382.273,1275.1 384.252,1274.87 386.23,1274.84 388.209,1274.73 390.187,1274.52 392.166,1274.47 394.144,1274.44 396.123,1274.39 398.101,1273.97 400.08,1273.74 402.058,1273.57 404.036,1273.37 406.015,1273.33 407.993,1273.28 409.972,1273.28 411.95,1272.94 413.929,1272.67 415.907,1272.65 417.886,1272.18 419.864,1272.07 421.843,1272.04 423.821,1271.97 425.8,1271.62 427.778,1271.41 429.756,1271.3 431.735,1270.38 433.713,1270.33 435.692,1270.03 437.67,1269.94 439.649,1269.93 441.627,1269.91 443.606,1269.85 445.584,1269.59 447.563,1269.57 449.541,1269.38 451.519,1269.26 453.498,1269.08 455.476,1268.85 457.455,1268.8 459.433,1268.65 461.412,1268.52 463.39,1268.44 465.369,1268.39 467.347,1268.24 469.326,1268.21 471.304,1268.16 473.282,1268.01 475.261,1267.85 477.239,1267.74 479.218,1267.52 481.196,1267.47 483.175,1267.27 485.153,1267.23 487.132,1267.1 489.11,1267.01 491.089,1266.98 493.067,1266.96 495.045,1266.75 497.024,1266.73 499.002,1266.71 500.981,1266.3 502.959,1266.19 504.938,1265.74 506.916,1265.66 508.895,1265.49 510.873,1265.26 512.852,1265.08 514.83,1265.08 516.808,1264.94 518.787,1264.63 520.765,1264.21 522.744,1263.92 524.722,1263.64 526.701,1263.42 528.679,1262.92 530.658,1262.84 532.636,1262.77 534.615,1262.7 536.593,1262.56 538.571,1262.42 540.55,1262.3 542.528,1261.98 544.507,1261.77 546.485,1261.76 548.464,1261.22 550.442,1261.16 552.421,1261.07 554.399,1261.04 556.378,1261.04 558.356,1260.92 560.334,1260.81 562.313,1260.6 564.291,1260.48 566.27,1260.36 568.248,1260.18 570.227,1260.04 572.205,1259.82 574.184,1259.17 576.162,1258.81 578.141,1258.79 580.119,1258.71 582.098,1258.1 584.076,1257.79 586.054,1257.79 588.033,1257.71 590.011,1257.7 591.99,1257.44 593.968,1257.36 595.947,1257.28 597.925,1257.16 599.904,1257.12 601.882,1257.03 603.861,1256.86 605.839,1256.8 607.817,1256.76 609.796,1256.65 611.774,1256.42 613.753,1256.31 615.731,1256.25 617.71,1256.15 619.688,1256.15 621.667,1256.1 623.645,1256.08 625.624,1255.91 627.602,1255.9 629.58,1255.89 631.559,1255.87 633.537,1255.73 635.516,1255.67 637.494,1255.66 639.473,1255.65 641.451,1255.58 643.43,1255.58 645.408,1255.57 647.387,1255.57 649.365,1255.55 651.343,1255.53 653.322,1255.5 655.3,1255.48 657.279,1255.48 659.257,1255.47 661.236,1255.47 663.214,1255.45 665.193,1255.43 667.171,1255.41 669.15,1255.39 671.128,1255.38 673.106,1255.37 675.085,1255.37 677.063,1255.35 679.042,1255.35 681.02,1255.35 682.999,1255.34 684.977,1255.31 686.956,1255.31 688.934,1255.29 690.913,1255.27 692.891,1255.27 694.869,1255.26 696.848,1255.23 698.826,1255.19 700.805,1255.18 702.783,1255.18 704.762,1255.17 706.74,1255.15 708.719,1255.09 710.697,1255.07 712.676,1255.03 714.654,1254.91 716.632,1254.82 718.611,1254.81 720.589,1254.8 722.568,1254.78 724.546,1254.74 726.525,1254.72 728.503,1254.71 730.482,1254.58 732.46,1254.52 734.439,1254.49 736.417,1254.42 738.395,1254.36 740.374,1253.73 742.352,1253.63 744.331,1253.62 746.309,1253.57 748.288,1253.36 750.266,1253.21 752.245,1253.16 754.223,1253.05 756.202,1252.85 758.18,1252.55 760.159,1252.2 762.137,1252.01 764.115,1251.97 766.094,1251.93 768.072,1251.69 770.051,1251.58 772.029,1251.4 774.008,1249.96 775.986,1249.17 777.965,1248.29 779.943,1247.74 781.922,1247.29 783.9,1247.28 785.878,1244.64 787.857,1243.99 789.835,1242.6 791.814,1238.92 793.792,1234.73 795.771,1233.61 797.749,1227.51 799.728,1222.48 801.706,1217.8 803.685,1212.6 805.663,1202.91 807.641,1200.86 809.62,1197.85 811.598,1035.95 813.577,853.179 815.555,852.528 817.534,852.447 819.512,852.422 821.491,852.415 823.469,852.414 825.448,852.413 827.426,852.413 829.404,852.413 831.383,852.413 833.361,852.411 835.34,852.411 837.318,852.41 839.297,852.409 841.275,852.408 843.254,852.406 845.232,852.406 847.211,852.404 849.189,852.403 851.167,852.403 853.146,852.403 855.124,852.403 857.103,852.402 859.081,852.401 861.06,852.4 863.038,852.397 865.017,852.396 866.995,852.396 868.974,852.396 870.952,852.396 872.93,852.395 874.909,852.393 876.887,852.393 878.866,852.393 880.844,852.393 882.823,852.392 884.801,852.391 886.78,852.391 888.758,852.39 890.737,852.389 892.715,852.388 894.693,852.387 896.672,852.387 898.65,852.387 900.629,852.387 902.607,852.387 904.586,852.387 906.564,852.386 908.543,852.386 910.521,852.386 912.5,852.385 914.478,852.384 916.456,852.382 918.435,852.381 920.413,852.379 922.392,852.378 924.37,852.378 926.349,852.378 928.327,852.378 930.306,852.377 932.284,852.374 934.263,852.374 936.241,852.374 938.22,852.367 940.198,852.36 942.176,852.36 944.155,852.359 946.133,852.359 948.112,852.357 950.09,852.355 952.069,852.355 954.047,852.354 956.026,852.354 958.004,852.351 959.983,852.349 961.961,852.348 963.939,852.347 965.918,852.347 967.896,852.346 969.875,852.345 971.853,852.345 973.832,852.344 975.81,852.344 977.789,852.344 979.767,852.343 981.746,852.341 983.724,852.341 985.702,852.34 987.681,852.34 989.659,852.339 991.638,852.337 993.616,852.337 995.595,852.336 997.573,852.336 999.552,852.334 1001.53,852.333 1003.51,852.331 1005.49,852.331 1007.47,852.33 1009.44,852.329 1011.42,852.328 1013.4,852.327 1015.38,852.326 1017.36,852.326 1019.34,852.325 1021.31,852.325 1023.29,852.324 1025.27,852.324 1027.25,852.321 1029.23,852.32 1031.21,852.319 1033.19,852.318 1035.16,852.318 1037.14,852.318 1039.12,852.317 1041.1,852.317 1043.08,852.317 1045.06,852.316 1047.03,852.316 1049.01,852.316 1050.99,852.315 1052.97,852.314 1054.95,852.313 1056.93,852.312 1058.91,852.31 1060.88,852.31 1062.86,852.309 1064.84,852.308 1066.82,852.308 1068.8,852.306 1070.78,852.304 1072.75,852.304 1074.73,852.304 1076.71,852.304 1078.69,852.303 1080.67,852.303 1082.65,852.303 1084.63,852.302 1086.6,852.302 1088.58,852.301 1090.56,852.301 1092.54,852.301 1094.52,852.3 1096.5,852.3 1098.47,852.3 1100.45,852.299 1102.43,852.299 1104.41,852.299 1106.39,852.299 1108.37,852.298 1110.35,852.298 1112.32,852.298 1114.3,852.297 1116.28,852.297 1118.26,852.297 1120.24,852.297 1122.22,852.297 1124.19,852.296 1126.17,852.296 1128.15,852.296 1130.13,852.296 1132.11,852.296 1134.09,852.296 1136.07,852.296 1138.04,852.295 1140.02,852.295 1142,852.295 1143.98,852.295 1145.96,852.295 1147.94,852.295 1149.91,852.295 1151.89,852.295 1153.87,852.295 1155.85,852.295 1157.83,852.295 1159.81,852.294 1161.78,852.294 1163.76,852.294 1165.74,852.294 1167.72,852.294 1169.7,852.294 1171.68,852.294 1173.66,852.294 1175.63,852.294 1177.61,852.294 1179.59,852.294 1181.57,852.294 1183.55,852.293 1185.53,852.293 1187.5,852.293 1189.48,852.293 1191.46,852.293 1193.44,852.293 1195.42,852.293 1197.4,852.293 1199.38,852.293 1201.35,852.292 1203.33,852.291 1205.31,852.291 1207.29,852.291 1209.27,852.29 1211.25,852.287 1213.22,852.286 1215.2,852.286 1217.18,852.285 1219.16,852.285 1221.14,852.284 1223.12,852.28 1225.1,852.279 1227.07,852.278 1229.05,852.277 1231.03,852.273 1233.01,852.271 1234.99,852.268 1236.97,852.26 1238.94,852.258 1240.92,852.257 1242.9,852.253 1244.88,852.251 1246.86,852.244 1248.84,852.244 1250.82,852.24 1252.79,852.229 1254.77,852.226 1256.75,852.223 1258.73,852.218 1260.71,852.206 1262.69,852.191 1264.66,852.183 1266.64,852.183 1268.62,852.183 1270.6,852.18 1272.58,852.179 1274.56,852.178 1276.54,852.169 1278.51,852.163 1280.49,852.16 1282.47,852.152 1284.45,852.152 1286.43,852.146 1288.41,852.137 1290.38,852.13 1292.36,852.129 1294.34,852.126 1296.32,852.125 1298.3,852.112 1300.28,852.096 1302.26,851.862 1304.23,849.69 1306.21,805.562 1308.19,762.78 1310.17,762.722 1312.15,762.667 1314.13,762.63 1316.1,762.598 1318.08,762.527 1320.06,762.521 1322.04,762.502 1324.02,762.499 1326,762.452 1327.98,762.435 1329.95,762.427 1331.93,762.425 1333.91,762.419 1335.89,762.408 1337.87,762.399 1339.85,762.381 1341.82,762.375 1343.8,762.372 1345.78,762.367 1347.76,762.359 1349.74,762.357 1351.72,762.353 1353.7,762.343 1355.67,762.331 1357.65,762.33 1359.63,762.328 1361.61,762.311 1363.59,762.311 1365.57,762.306 1367.54,762.301 1369.52,762.286 1371.5,762.284 1373.48,762.276 1375.46,762.269 1377.44,762.258 1379.42,762.257 1381.39,762.252 1383.37,762.252 1385.35,762.245 1387.33,762.243 1389.31,762.242 1391.29,762.239 1393.26,762.235 1395.24,762.233 1397.22,762.232 1399.2,762.231 1401.18,762.23 1403.16,762.229 1405.14,762.223 1407.11,762.221 1409.09,762.221 1411.07,762.22 1413.05,762.219 1415.03,762.218 1417.01,762.216 1418.98,762.215 1420.96,762.214 1422.94,762.21 1424.92,762.199 1426.9,762.198 1428.88,762.193 1430.85,762.192 1432.83,762.188 1434.81,762.187 1436.79,762.186 1438.77,762.183 1440.75,762.18 1442.73,762.175 1444.7,762.175 1446.68,762.173 1448.66,762.171 1450.64,762.17 1452.62,762.162 1454.6,762.161 1456.57,762.16 1458.55,762.159 1460.53,762.159 1462.51,762.148 1464.49,762.147 1466.47,762.147 1468.45,762.14 1470.42,762.128 1472.4,762.127 1474.38,762.126 1476.36,762.124 1478.34,762.121 1480.32,762.12 1482.29,762.113 1484.27,762.107 1486.25,762.105 1488.23,762.104 1490.21,762.097 1492.19,762.097 1494.17,762.095 1496.14,762.093 1498.12,762.09 1500.1,762.077 1502.08,762.075 1504.06,762.073 1506.04,762.072 1508.01,762.069 1509.99,762.064 1511.97,762.064 1513.95,762.061 1515.93,762.057 1517.91,762.053 1519.89,762.052 1521.86,762.051 1523.84,762.048 1525.82,762.043 1527.8,762.041 1529.78,762.031 1531.76,762.022 1533.73,762.015 1535.71,762.014 1537.69,761.995 1539.67,761.988 1541.65,761.987 1543.63,761.986 1545.61,761.974 1547.58,761.96 1549.56,761.96 1551.54,761.95 1553.52,761.941 1555.5,761.917 1557.48,761.912 1559.45,761.911 1561.43,761.887 1563.41,761.885 1565.39,761.856 1567.37,761.84 1569.35,761.839 1571.33,761.825 1573.3,761.821 1575.28,761.814 1577.26,761.813 1579.24,761.789 1581.22,761.778 1583.2,761.777 1585.17,761.763 1587.15,761.744 1589.13,761.742 1591.11,761.704 1593.09,761.702 1595.07,761.673 1597.05,761.666 1599.02,761.656 1601,761.646 1602.98,761.558 1604.96,761.549 1606.94,761.494 1608.92,761.433 1610.89,761.426 1612.87,761.426 1614.85,761.419 1616.83,761.404 1618.81,761.385 1620.79,761.366 1622.77,761.362 1624.74,761.35 1626.72,761.33 1628.7,761.312 1630.68,761.286 1632.66,761.166 1634.64,761.084 1636.61,761.031 1638.59,761.008 1640.57,760.984 1642.55,760.933 1644.53,760.923 1646.51,760.913 1648.49,760.901 1650.46,760.9 1652.44,760.872 1654.42,760.855 1656.4,760.85 1658.38,760.786 1660.36,760.548 1662.33,760.498 1664.31,760.491 1666.29,760.386 1668.27,760.367 1670.25,760.334 1672.23,760.301 1674.2,760.169 1676.18,760.042 1678.16,759.986 1680.14,759.937 1682.12,759.746 1684.1,759.605 1686.08,759.531 1688.05,759.129 1690.03,758.834 1692.01,758.831 1693.99,758.616 1695.97,758.545 1697.95,758.28 1699.92,758.108 1701.9,757.63 1703.88,757.556 1705.86,757.047 1707.84,756.92 1709.82,756.912 1711.8,756.891 1713.77,756.702 1715.75,756.669 1717.73,756.496 1719.71,756.365 1721.69,756.004 1723.67,755.541 1725.64,754.648 1727.62,754.572 1729.6,754.138 1731.58,753.779 1733.56,753.433 1735.54,752.774 1737.52,752.319 1739.49,751.422 1741.47,748.272 1743.45,748.212 1745.43,745.963 1747.41,745.841 1749.39,742.134 1751.36,741.918 1753.34,741.346 1755.32,739.004 1757.3,738.842 1759.28,736.523 1761.26,735.671 1763.24,734.901 1765.21,734.691 1767.19,734.124 1769.17,731.085 1771.15,728.434 1773.13,728.101 1775.11,724.667 1777.08,724.657 1779.06,720.268 1781.04,719.816 1783.02,716.304 1785,714.583 1786.98,710.766 1788.96,710.545 1790.93,707.451 1792.91,698.885 1794.89,693.908 1796.87,687.325 1798.85,660.473 1800.83,210.555 1802.8,210.195 1804.78,207.767 1806.76,204.722 1808.74,204.31 1810.72,203.884 1812.7,203.576 1814.68,203.097 1816.65,202.156 1818.63,202.061 1820.61,201.854 1822.59,201.757 1824.57,201.013 1826.55,200.861 1828.52,200.622 1830.5,200.601 1832.48,200.016 1834.46,199.813 1836.44,199.797 1838.42,199.43 1840.4,199.139 1842.37,199.07 1844.35,198.7 1846.33,198.279 1848.31,198.128 1850.29,197.895 1852.27,197.54 1854.24,197.435 1856.22,197.326 1858.2,196.036 1860.18,196.01 1862.16,195.797 1864.14,195.777 1866.12,195.507 1868.09,195.496 1870.07,195.279 1872.05,194.977 1874.03,194.468 1876.01,194.197 1877.99,193.704 1879.96,193.476 1881.94,193.014 1883.92,192.7 1885.9,192.527 1887.88,192.184 1889.86,192.035 1891.84,191.943 1893.81,191.289 1895.79,191.275 1897.77,190.992 1899.75,190.678 1901.73,190.461 1903.71,190.179 1905.68,190.082 1907.66,189.979 1909.64,189.508 1911.62,188.851 1913.6,188.821 1915.58,188.265 1917.56,188.189 1919.53,187.928 1921.51,187.813 1923.49,187.701 1925.47,187.33 1927.45,186.769 1929.43,186.642 1931.4,186.556 1933.38,186.38 1935.36,186.264 1937.34,185.765 1939.32,185.487 1941.3,185.372 1943.27,184.981 1945.25,184.92 1947.23,184.521 1949.21,184.492 1951.19,184.059 1953.17,183.861 1955.15,183.776 1957.12,183.753 1959.1,183.642 1961.08,183.213 1963.06,182.802 1965.04,182.522 1967.02,182.187 1968.99,182.182 1970.97,182.013 1972.95,181.944 1974.93,181.76 1976.91,181.438 1978.89,181.393 1980.87,181.239 1982.84,181.221 1984.82,180.921 1986.8,180.547 1988.78,180.038 1990.76,179.863 1992.74,179.758 1994.71,179.647 1996.69,179.455 1998.67,179.365 2000.65,179.282 2002.63,179.144 2004.61,179.082 2006.59,178.848 2008.56,178.41 2010.54,178.383 2012.52,178.254 2014.5,178.22 2016.48,177.909 2018.46,177.586 2020.43,177.428 2022.41,177.312 2024.39,177.251 2026.37,176.81 2028.35,176.674 2030.33,176.582 2032.31,176.186 2034.28,176.138 2036.26,175.77 2038.24,175.677 2040.22,175.502 2042.2,175.415 2044.18,175.395 2046.15,175.282 2048.13,175.103 2050.11,174.474 2052.09,174.38 2054.07,174.334 2056.05,173.783 2058.03,173.503 2060,173.488 2061.98,173.447 2063.96,173.411 2065.94,173.409 2067.92,173.315 2069.9,173.235 2071.87,173.185 2073.85,172.873 2075.83,172.688 2077.81,172.615 2079.79,172.272 2081.77,172.26 2083.75,172.248 2085.72,172.23 2087.7,172.204 2089.68,172.079 2091.66,171.958 2093.64,171.911 2095.62,171.756 2097.59,171.744 2099.57,171.716 2101.55,171.624 2103.53,171.556 2105.51,171.549 2107.49,171.547 2109.47,171.545 2111.44,171.523 2113.42,171.469 2115.4,171.411 2117.38,171.405 2119.36,171.376 2121.34,171.361 2123.31,171.299 2125.29,171.229 2127.27,171.168 2129.25,171.122 2131.23,171.086 2133.21,171.061 2135.19,171.061 2137.16,171.052 2139.14,170.939 2141.12,170.763 2143.1,170.662 2145.08,170.634 2147.06,170.623 2149.03,170.585 2151.01,170.578 2152.99,170.438 2154.97,170.371 2156.95,170.335 2158.93,170.318 2160.91,170.14 2162.88,170.098 2164.86,169.882 2166.84,169.84 2168.82,169.805 2170.8,169.803 2172.78,169.778 2174.75,169.723 2176.73,169.683 2178.71,169.666 2180.69,169.661 2182.67,169.65 2184.65,169.551 2186.62,169.444 2188.6,169.408 2190.58,169.381 2192.56,169.375 2194.54,169.343 2196.52,169.292 2198.5,169.145 2200.47,169.025 2202.45,168.809 2204.43,168.724 2206.41,168.607 2208.39,168.571 2210.37,168.151 2212.34,168.142 2214.32,168.068 2216.3,168.039 2218.28,167.885 2220.26,167.796 2222.24,167.727 2224.22,167.638 2226.19,167.637 2228.17,167.501 2230.15,167.477 2232.13,167.43 2234.11,167.33 2236.09,167.085 2238.06,167.017 2240.04,167.013 2242.02,166.957 2244,166.941 2245.98,166.709 2247.96,166.623 2249.94,166.537 2251.91,166.471 2253.89,166.442 2255.87,166.393 2257.85,166.349 2259.83,166.282 2261.81,166.169 2263.78,165.526 2265.76,165.376 2267.74,165.268 2269.72,165.103 2271.7,164.522 2273.68,164.507 2275.66,164.333 2277.63,163.685 2279.61,163.271 2281.59,163.106 2283.57,163.044 2285.55,162.347 2287.53,162.317 2289.5,161.565 2291.48,160.301 2293.46,160.256 "/>
<path clip-path="url(#clip680)" d="M327.526 270.476 L756.638 270.476 L756.638 166.796 L327.526 166.796  Z" fill="#ffffff" fill-rule="evenodd" fill-opacity="1"/>
<polyline clip-path="url(#clip680)" style="stroke:#000000; stroke-linecap:round; stroke-linejoin:round; stroke-width:4; stroke-opacity:1; fill:none" points="327.526,270.476 756.638,270.476 756.638,166.796 327.526,166.796 327.526,270.476 "/>
<polyline clip-path="url(#clip680)" style="stroke:#009af9; stroke-linecap:round; stroke-linejoin:round; stroke-width:4; stroke-opacity:1; fill:none" points="350.804,218.636 490.475,218.636 "/>
<path clip-path="url(#clip680)" d="M535.999 202.49 L535.999 207.05 Q533.337 205.777 530.976 205.152 Q528.615 204.527 526.416 204.527 Q522.596 204.527 520.513 206.008 Q518.453 207.49 518.453 210.221 Q518.453 212.513 519.819 213.694 Q521.207 214.851 525.05 215.569 L527.874 216.147 Q533.105 217.143 535.582 219.666 Q538.082 222.166 538.082 226.379 Q538.082 231.402 534.703 233.994 Q531.346 236.587 524.842 236.587 Q522.388 236.587 519.61 236.031 Q516.856 235.476 513.893 234.388 L513.893 229.573 Q516.74 231.17 519.471 231.981 Q522.203 232.791 524.842 232.791 Q528.846 232.791 531.022 231.217 Q533.198 229.643 533.198 226.726 Q533.198 224.18 531.624 222.744 Q530.073 221.309 526.508 220.592 L523.661 220.036 Q518.43 218.995 516.092 216.772 Q513.754 214.55 513.754 210.592 Q513.754 206.008 516.971 203.37 Q520.212 200.731 525.883 200.731 Q528.314 200.731 530.837 201.171 Q533.36 201.61 535.999 202.49 Z" fill="#000000" fill-rule="nonzero" fill-opacity="1" /><path clip-path="url(#clip680)" d="M545.189 209.99 L549.448 209.99 L549.448 235.916 L545.189 235.916 L545.189 209.99 M545.189 199.897 L549.448 199.897 L549.448 205.291 L545.189 205.291 L545.189 199.897 Z" fill="#000000" fill-rule="nonzero" fill-opacity="1" /><path clip-path="url(#clip680)" d="M578.545 214.967 Q580.142 212.096 582.364 210.731 Q584.587 209.365 587.596 209.365 Q591.647 209.365 593.846 212.212 Q596.045 215.036 596.045 220.268 L596.045 235.916 L591.763 235.916 L591.763 220.407 Q591.763 216.68 590.443 214.874 Q589.124 213.069 586.415 213.069 Q583.105 213.069 581.184 215.268 Q579.263 217.467 579.263 221.263 L579.263 235.916 L574.98 235.916 L574.98 220.407 Q574.98 216.657 573.661 214.874 Q572.341 213.069 569.587 213.069 Q566.323 213.069 564.402 215.291 Q562.48 217.49 562.48 221.263 L562.48 235.916 L558.198 235.916 L558.198 209.99 L562.48 209.99 L562.48 214.018 Q563.939 211.633 565.976 210.499 Q568.013 209.365 570.814 209.365 Q573.638 209.365 575.605 210.8 Q577.596 212.235 578.545 214.967 Z" fill="#000000" fill-rule="nonzero" fill-opacity="1" /><path clip-path="url(#clip680)" d="M604.54 209.99 L608.8 209.99 L608.8 235.916 L604.54 235.916 L604.54 209.99 M604.54 199.897 L608.8 199.897 L608.8 205.291 L604.54 205.291 L604.54 199.897 Z" fill="#000000" fill-rule="nonzero" fill-opacity="1" /><path clip-path="url(#clip680)" d="M617.712 199.897 L621.971 199.897 L621.971 235.916 L617.712 235.916 L617.712 199.897 Z" fill="#000000" fill-rule="nonzero" fill-opacity="1" /><path clip-path="url(#clip680)" d="M642.665 222.883 Q637.503 222.883 635.512 224.064 Q633.522 225.244 633.522 228.092 Q633.522 230.36 635.003 231.703 Q636.508 233.022 639.077 233.022 Q642.619 233.022 644.748 230.522 Q646.901 227.999 646.901 223.832 L646.901 222.883 L642.665 222.883 M651.16 221.124 L651.16 235.916 L646.901 235.916 L646.901 231.981 Q645.443 234.342 643.267 235.476 Q641.091 236.587 637.943 236.587 Q633.961 236.587 631.6 234.365 Q629.262 232.119 629.262 228.369 Q629.262 223.994 632.179 221.772 Q635.119 219.55 640.929 219.55 L646.901 219.55 L646.901 219.133 Q646.901 216.194 644.957 214.596 Q643.035 212.976 639.54 212.976 Q637.318 212.976 635.211 213.508 Q633.105 214.041 631.161 215.106 L631.161 211.17 Q633.498 210.268 635.698 209.828 Q637.897 209.365 639.98 209.365 Q645.605 209.365 648.383 212.282 Q651.16 215.198 651.16 221.124 Z" fill="#000000" fill-rule="nonzero" fill-opacity="1" /><path clip-path="url(#clip680)" d="M674.957 213.971 Q674.239 213.555 673.383 213.37 Q672.549 213.161 671.531 213.161 Q667.92 213.161 665.975 215.522 Q664.054 217.86 664.054 222.258 L664.054 235.916 L659.771 235.916 L659.771 209.99 L664.054 209.99 L664.054 214.018 Q665.396 211.657 667.549 210.522 Q669.702 209.365 672.781 209.365 Q673.22 209.365 673.753 209.434 Q674.285 209.481 674.933 209.596 L674.957 213.971 Z" fill="#000000" fill-rule="nonzero" fill-opacity="1" /><path clip-path="url(#clip680)" d="M679.424 209.99 L683.683 209.99 L683.683 235.916 L679.424 235.916 L679.424 209.99 M679.424 199.897 L683.683 199.897 L683.683 205.291 L679.424 205.291 L679.424 199.897 Z" fill="#000000" fill-rule="nonzero" fill-opacity="1" /><path clip-path="url(#clip680)" d="M696.808 202.629 L696.808 209.99 L705.581 209.99 L705.581 213.3 L696.808 213.3 L696.808 227.374 Q696.808 230.545 697.665 231.448 Q698.544 232.351 701.206 232.351 L705.581 232.351 L705.581 235.916 L701.206 235.916 Q696.276 235.916 694.401 234.087 Q692.526 232.235 692.526 227.374 L692.526 213.3 L689.401 213.3 L689.401 209.99 L692.526 209.99 L692.526 202.629 L696.808 202.629 Z" fill="#000000" fill-rule="nonzero" fill-opacity="1" /><path clip-path="url(#clip680)" d="M721.97 238.323 Q720.165 242.953 718.452 244.365 Q716.739 245.777 713.868 245.777 L710.466 245.777 L710.466 242.212 L712.966 242.212 Q714.725 242.212 715.697 241.379 Q716.669 240.545 717.85 237.443 L718.614 235.499 L708.128 209.99 L712.642 209.99 L720.743 230.268 L728.845 209.99 L733.359 209.99 L721.97 238.323 Z" fill="#000000" fill-rule="nonzero" fill-opacity="1" /></svg>
