<?xml version="1.0" encoding="utf-8"?>
<svg xmlns="http://www.w3.org/2000/svg" xmlns:xlink="http://www.w3.org/1999/xlink" width="600" height="400" viewBox="0 0 2400 1600">
<defs>
  <clipPath id="clip380">
    <rect x="0" y="0" width="2400" height="1600"/>
  </clipPath>
</defs>
<path clip-path="url(#clip380)" d="M0 1600 L2400 1600 L2400 8.88178e-14 L0 8.88178e-14  Z" fill="#ffffff" fill-rule="evenodd" fill-opacity="1"/>
<defs>
  <clipPath id="clip381">
    <rect x="480" y="0" width="1681" height="1600"/>
  </clipPath>
</defs>
<path clip-path="url(#clip380)" d="M257.69 1423.18 L2352.76 1423.18 L2352.76 123.472 L257.69 123.472  Z" fill="#ffffff" fill-rule="evenodd" fill-opacity="1"/>
<defs>
  <clipPath id="clip382">
    <rect x="257" y="123" width="2096" height="1301"/>
  </clipPath>
</defs>
<polyline clip-path="url(#clip382)" style="stroke:#000000; stroke-linecap:round; stroke-linejoin:round; stroke-width:2; stroke-opacity:0.1; fill:none" points="315.006,1423.18 315.006,123.472 "/>
<polyline clip-path="url(#clip382)" style="stroke:#000000; stroke-linecap:round; stroke-linejoin:round; stroke-width:2; stroke-opacity:0.1; fill:none" points="809.62,1423.18 809.62,123.472 "/>
<polyline clip-path="url(#clip382)" style="stroke:#000000; stroke-linecap:round; stroke-linejoin:round; stroke-width:2; stroke-opacity:0.1; fill:none" points="1304.23,1423.18 1304.23,123.472 "/>
<polyline clip-path="url(#clip382)" style="stroke:#000000; stroke-linecap:round; stroke-linejoin:round; stroke-width:2; stroke-opacity:0.1; fill:none" points="1798.85,1423.18 1798.85,123.472 "/>
<polyline clip-path="url(#clip382)" style="stroke:#000000; stroke-linecap:round; stroke-linejoin:round; stroke-width:2; stroke-opacity:0.1; fill:none" points="2293.46,1423.18 2293.46,123.472 "/>
<polyline clip-path="url(#clip380)" style="stroke:#000000; stroke-linecap:round; stroke-linejoin:round; stroke-width:4; stroke-opacity:1; fill:none" points="257.69,1423.18 2352.76,1423.18 "/>
<polyline clip-path="url(#clip380)" style="stroke:#000000; stroke-linecap:round; stroke-linejoin:round; stroke-width:4; stroke-opacity:1; fill:none" points="315.006,1423.18 315.006,1404.28 "/>
<polyline clip-path="url(#clip380)" style="stroke:#000000; stroke-linecap:round; stroke-linejoin:round; stroke-width:4; stroke-opacity:1; fill:none" points="809.62,1423.18 809.62,1404.28 "/>
<polyline clip-path="url(#clip380)" style="stroke:#000000; stroke-linecap:round; stroke-linejoin:round; stroke-width:4; stroke-opacity:1; fill:none" points="1304.23,1423.18 1304.23,1404.28 "/>
<polyline clip-path="url(#clip380)" style="stroke:#000000; stroke-linecap:round; stroke-linejoin:round; stroke-width:4; stroke-opacity:1; fill:none" points="1798.85,1423.18 1798.85,1404.28 "/>
<polyline clip-path="url(#clip380)" style="stroke:#000000; stroke-linecap:round; stroke-linejoin:round; stroke-width:4; stroke-opacity:1; fill:none" points="2293.46,1423.18 2293.46,1404.28 "/>
<path clip-path="url(#clip380)" d="M315.006 1454.1 Q311.395 1454.1 309.566 1457.66 Q307.761 1461.2 307.761 1468.33 Q307.761 1475.44 309.566 1479.01 Q311.395 1482.55 315.006 1482.55 Q318.64 1482.55 320.446 1479.01 Q322.274 1475.44 322.274 1468.33 Q322.274 1461.2 320.446 1457.66 Q318.64 1454.1 315.006 1454.1 M315.006 1450.39 Q320.816 1450.39 323.872 1455 Q326.95 1459.58 326.95 1468.33 Q326.95 1477.06 323.872 1481.67 Q320.816 1486.25 315.006 1486.25 Q309.196 1486.25 306.117 1481.67 Q303.062 1477.06 303.062 1468.33 Q303.062 1459.58 306.117 1455 Q309.196 1450.39 315.006 1450.39 Z" fill="#000000" fill-rule="nonzero" fill-opacity="1" /><path clip-path="url(#clip380)" d="M773.312 1481.64 L789.632 1481.64 L789.632 1485.58 L767.687 1485.58 L767.687 1481.64 Q770.349 1478.89 774.933 1474.26 Q779.539 1469.61 780.72 1468.27 Q782.965 1465.74 783.845 1464.01 Q784.747 1462.25 784.747 1460.56 Q784.747 1457.8 782.803 1456.07 Q780.882 1454.33 777.78 1454.33 Q775.581 1454.33 773.127 1455.09 Q770.696 1455.86 767.919 1457.41 L767.919 1452.69 Q770.743 1451.55 773.196 1450.97 Q775.65 1450.39 777.687 1450.39 Q783.058 1450.39 786.252 1453.08 Q789.446 1455.77 789.446 1460.26 Q789.446 1462.39 788.636 1464.31 Q787.849 1466.2 785.743 1468.8 Q785.164 1469.47 782.062 1472.69 Q778.96 1475.88 773.312 1481.64 Z" fill="#000000" fill-rule="nonzero" fill-opacity="1" /><path clip-path="url(#clip380)" d="M799.493 1451.02 L817.849 1451.02 L817.849 1454.96 L803.775 1454.96 L803.775 1463.43 Q804.794 1463.08 805.812 1462.92 Q806.831 1462.73 807.849 1462.73 Q813.636 1462.73 817.016 1465.9 Q820.395 1469.08 820.395 1474.49 Q820.395 1480.07 816.923 1483.17 Q813.451 1486.25 807.131 1486.25 Q804.956 1486.25 802.687 1485.88 Q800.442 1485.51 798.034 1484.77 L798.034 1480.07 Q800.118 1481.2 802.34 1481.76 Q804.562 1482.32 807.039 1482.32 Q811.043 1482.32 813.381 1480.21 Q815.719 1478.1 815.719 1474.49 Q815.719 1470.88 813.381 1468.77 Q811.043 1466.67 807.039 1466.67 Q805.164 1466.67 803.289 1467.08 Q801.437 1467.5 799.493 1468.38 L799.493 1451.02 Z" fill="#000000" fill-rule="nonzero" fill-opacity="1" /><path clip-path="url(#clip380)" d="M839.608 1454.1 Q835.997 1454.1 834.168 1457.66 Q832.363 1461.2 832.363 1468.33 Q832.363 1475.44 834.168 1479.01 Q835.997 1482.55 839.608 1482.55 Q843.242 1482.55 845.048 1479.01 Q846.877 1475.44 846.877 1468.33 Q846.877 1461.2 845.048 1457.66 Q843.242 1454.1 839.608 1454.1 M839.608 1450.39 Q845.418 1450.39 848.474 1455 Q851.553 1459.58 851.553 1468.33 Q851.553 1477.06 848.474 1481.67 Q845.418 1486.25 839.608 1486.25 Q833.798 1486.25 830.719 1481.67 Q827.664 1477.06 827.664 1468.33 Q827.664 1459.58 830.719 1455 Q833.798 1450.39 839.608 1450.39 Z" fill="#000000" fill-rule="nonzero" fill-opacity="1" /><path clip-path="url(#clip380)" d="M1263.85 1451.02 L1282.21 1451.02 L1282.21 1454.96 L1268.13 1454.96 L1268.13 1463.43 Q1269.15 1463.08 1270.17 1462.92 Q1271.19 1462.73 1272.21 1462.73 Q1278 1462.73 1281.38 1465.9 Q1284.75 1469.08 1284.75 1474.49 Q1284.75 1480.07 1281.28 1483.17 Q1277.81 1486.25 1271.49 1486.25 Q1269.31 1486.25 1267.05 1485.88 Q1264.8 1485.51 1262.39 1484.77 L1262.39 1480.07 Q1264.48 1481.2 1266.7 1481.76 Q1268.92 1482.32 1271.4 1482.32 Q1275.4 1482.32 1277.74 1480.21 Q1280.08 1478.1 1280.08 1474.49 Q1280.08 1470.88 1277.74 1468.77 Q1275.4 1466.67 1271.4 1466.67 Q1269.52 1466.67 1267.65 1467.08 Q1265.8 1467.5 1263.85 1468.38 L1263.85 1451.02 Z" fill="#000000" fill-rule="nonzero" fill-opacity="1" /><path clip-path="url(#clip380)" d="M1303.97 1454.1 Q1300.36 1454.1 1298.53 1457.66 Q1296.72 1461.2 1296.72 1468.33 Q1296.72 1475.44 1298.53 1479.01 Q1300.36 1482.55 1303.97 1482.55 Q1307.6 1482.55 1309.41 1479.01 Q1311.24 1475.44 1311.24 1468.33 Q1311.24 1461.2 1309.41 1457.66 Q1307.6 1454.1 1303.97 1454.1 M1303.97 1450.39 Q1309.78 1450.39 1312.83 1455 Q1315.91 1459.58 1315.91 1468.33 Q1315.91 1477.06 1312.83 1481.67 Q1309.78 1486.25 1303.97 1486.25 Q1298.16 1486.25 1295.08 1481.67 Q1292.02 1477.06 1292.02 1468.33 Q1292.02 1459.58 1295.08 1455 Q1298.16 1450.39 1303.97 1450.39 Z" fill="#000000" fill-rule="nonzero" fill-opacity="1" /><path clip-path="url(#clip380)" d="M1334.13 1454.1 Q1330.52 1454.1 1328.69 1457.66 Q1326.88 1461.2 1326.88 1468.33 Q1326.88 1475.44 1328.69 1479.01 Q1330.52 1482.55 1334.13 1482.55 Q1337.76 1482.55 1339.57 1479.01 Q1341.4 1475.44 1341.4 1468.33 Q1341.4 1461.2 1339.57 1457.66 Q1337.76 1454.1 1334.13 1454.1 M1334.13 1450.39 Q1339.94 1450.39 1343 1455 Q1346.07 1459.58 1346.07 1468.33 Q1346.07 1477.06 1343 1481.67 Q1339.94 1486.25 1334.13 1486.25 Q1328.32 1486.25 1325.24 1481.67 Q1322.19 1477.06 1322.19 1468.33 Q1322.19 1459.58 1325.24 1455 Q1328.32 1450.39 1334.13 1450.39 Z" fill="#000000" fill-rule="nonzero" fill-opacity="1" /><path clip-path="url(#clip380)" d="M1757.12 1451.02 L1779.35 1451.02 L1779.35 1453.01 L1766.8 1485.58 L1761.92 1485.58 L1773.72 1454.96 L1757.12 1454.96 L1757.12 1451.02 Z" fill="#000000" fill-rule="nonzero" fill-opacity="1" /><path clip-path="url(#clip380)" d="M1788.51 1451.02 L1806.87 1451.02 L1806.87 1454.96 L1792.79 1454.96 L1792.79 1463.43 Q1793.81 1463.08 1794.83 1462.92 Q1795.85 1462.73 1796.87 1462.73 Q1802.66 1462.73 1806.04 1465.9 Q1809.41 1469.08 1809.41 1474.49 Q1809.41 1480.07 1805.94 1483.17 Q1802.47 1486.25 1796.15 1486.25 Q1793.98 1486.25 1791.71 1485.88 Q1789.46 1485.51 1787.05 1484.77 L1787.05 1480.07 Q1789.14 1481.2 1791.36 1481.76 Q1793.58 1482.32 1796.06 1482.32 Q1800.06 1482.32 1802.4 1480.21 Q1804.74 1478.1 1804.74 1474.49 Q1804.74 1470.88 1802.4 1468.77 Q1800.06 1466.67 1796.06 1466.67 Q1794.18 1466.67 1792.31 1467.08 Q1790.46 1467.5 1788.51 1468.38 L1788.51 1451.02 Z" fill="#000000" fill-rule="nonzero" fill-opacity="1" /><path clip-path="url(#clip380)" d="M1828.63 1454.1 Q1825.02 1454.1 1823.19 1457.66 Q1821.38 1461.2 1821.38 1468.33 Q1821.38 1475.44 1823.19 1479.01 Q1825.02 1482.55 1828.63 1482.55 Q1832.26 1482.55 1834.07 1479.01 Q1835.9 1475.44 1835.9 1468.33 Q1835.9 1461.2 1834.07 1457.66 Q1832.26 1454.1 1828.63 1454.1 M1828.63 1450.39 Q1834.44 1450.39 1837.49 1455 Q1840.57 1459.58 1840.57 1468.33 Q1840.57 1477.06 1837.49 1481.67 Q1834.44 1486.25 1828.63 1486.25 Q1822.82 1486.25 1819.74 1481.67 Q1816.68 1477.06 1816.68 1468.33 Q1816.68 1459.58 1819.74 1455 Q1822.82 1450.39 1828.63 1450.39 Z" fill="#000000" fill-rule="nonzero" fill-opacity="1" /><path clip-path="url(#clip380)" d="M2237.99 1481.64 L2245.63 1481.64 L2245.63 1455.28 L2237.32 1456.95 L2237.32 1452.69 L2245.58 1451.02 L2250.26 1451.02 L2250.26 1481.64 L2257.89 1481.64 L2257.89 1485.58 L2237.99 1485.58 L2237.99 1481.64 Z" fill="#000000" fill-rule="nonzero" fill-opacity="1" /><path clip-path="url(#clip380)" d="M2277.34 1454.1 Q2273.73 1454.1 2271.9 1457.66 Q2270.09 1461.2 2270.09 1468.33 Q2270.09 1475.44 2271.9 1479.01 Q2273.73 1482.55 2277.34 1482.55 Q2280.97 1482.55 2282.78 1479.01 Q2284.61 1475.44 2284.61 1468.33 Q2284.61 1461.2 2282.78 1457.66 Q2280.97 1454.1 2277.34 1454.1 M2277.34 1450.39 Q2283.15 1450.39 2286.2 1455 Q2289.28 1459.58 2289.28 1468.33 Q2289.28 1477.06 2286.2 1481.67 Q2283.15 1486.25 2277.34 1486.25 Q2271.53 1486.25 2268.45 1481.67 Q2265.39 1477.06 2265.39 1468.33 Q2265.39 1459.58 2268.45 1455 Q2271.53 1450.39 2277.34 1450.39 Z" fill="#000000" fill-rule="nonzero" fill-opacity="1" /><path clip-path="url(#clip380)" d="M2307.5 1454.1 Q2303.89 1454.1 2302.06 1457.66 Q2300.26 1461.2 2300.26 1468.33 Q2300.26 1475.44 2302.06 1479.01 Q2303.89 1482.55 2307.5 1482.55 Q2311.14 1482.55 2312.94 1479.01 Q2314.77 1475.44 2314.77 1468.33 Q2314.77 1461.2 2312.94 1457.66 Q2311.14 1454.1 2307.5 1454.1 M2307.5 1450.39 Q2313.31 1450.39 2316.37 1455 Q2319.45 1459.58 2319.45 1468.33 Q2319.45 1477.06 2316.37 1481.67 Q2313.31 1486.25 2307.5 1486.25 Q2301.69 1486.25 2298.61 1481.67 Q2295.56 1477.06 2295.56 1468.33 Q2295.56 1459.58 2298.61 1455 Q2301.69 1450.39 2307.5 1450.39 Z" fill="#000000" fill-rule="nonzero" fill-opacity="1" /><path clip-path="url(#clip380)" d="M2337.66 1454.1 Q2334.05 1454.1 2332.22 1457.66 Q2330.42 1461.2 2330.42 1468.33 Q2330.42 1475.44 2332.22 1479.01 Q2334.05 1482.55 2337.66 1482.55 Q2341.3 1482.55 2343.1 1479.01 Q2344.93 1475.44 2344.93 1468.33 Q2344.93 1461.2 2343.1 1457.66 Q2341.3 1454.1 2337.66 1454.1 M2337.66 1450.39 Q2343.47 1450.39 2346.53 1455 Q2349.61 1459.58 2349.61 1468.33 Q2349.61 1477.06 2346.53 1481.67 Q2343.47 1486.25 2337.66 1486.25 Q2331.85 1486.25 2328.77 1481.67 Q2325.72 1477.06 2325.72 1468.33 Q2325.72 1459.58 2328.77 1455 Q2331.85 1450.39 2337.66 1450.39 Z" fill="#000000" fill-rule="nonzero" fill-opacity="1" /><path clip-path="url(#clip380)" d="M1269.07 1524.18 L1269.07 1530.96 Q1265.82 1527.94 1262.13 1526.44 Q1258.47 1524.95 1254.33 1524.95 Q1246.18 1524.95 1241.85 1529.95 Q1237.52 1534.91 1237.52 1544.33 Q1237.52 1553.72 1241.85 1558.72 Q1246.18 1563.68 1254.33 1563.68 Q1258.47 1563.68 1262.13 1562.19 Q1265.82 1560.69 1269.07 1557.67 L1269.07 1564.38 Q1265.69 1566.68 1261.9 1567.82 Q1258.15 1568.97 1253.95 1568.97 Q1243.16 1568.97 1236.95 1562.38 Q1230.74 1555.76 1230.74 1544.33 Q1230.74 1532.87 1236.95 1526.28 Q1243.16 1519.66 1253.95 1519.66 Q1258.21 1519.66 1261.97 1520.81 Q1265.76 1521.92 1269.07 1524.18 Z" fill="#000000" fill-rule="nonzero" fill-opacity="1" /><path clip-path="url(#clip380)" d="M1309.23 1548.76 L1309.23 1551.62 L1282.31 1551.62 Q1282.69 1557.67 1285.93 1560.85 Q1289.21 1564 1295.04 1564 Q1298.41 1564 1301.56 1563.17 Q1304.75 1562.35 1307.86 1560.69 L1307.86 1566.23 Q1304.71 1567.57 1301.4 1568.27 Q1298.09 1568.97 1294.69 1568.97 Q1286.16 1568.97 1281.16 1564 Q1276.2 1559.04 1276.2 1550.57 Q1276.2 1541.82 1280.91 1536.69 Q1285.65 1531.54 1293.67 1531.54 Q1300.86 1531.54 1305.03 1536.18 Q1309.23 1540.8 1309.23 1548.76 M1303.38 1547.04 Q1303.31 1542.23 1300.67 1539.37 Q1298.06 1536.5 1293.73 1536.5 Q1288.83 1536.5 1285.87 1539.27 Q1282.94 1542.04 1282.5 1547.07 L1303.38 1547.04 Z" fill="#000000" fill-rule="nonzero" fill-opacity="1" /><path clip-path="url(#clip380)" d="M1318.85 1518.52 L1324.7 1518.52 L1324.7 1568.04 L1318.85 1568.04 L1318.85 1518.52 Z" fill="#000000" fill-rule="nonzero" fill-opacity="1" /><path clip-path="url(#clip380)" d="M1336.96 1518.52 L1342.81 1518.52 L1342.81 1568.04 L1336.96 1568.04 L1336.96 1518.52 Z" fill="#000000" fill-rule="nonzero" fill-opacity="1" /><path clip-path="url(#clip380)" d="M1377.79 1533.45 L1377.79 1538.98 Q1375.31 1537.71 1372.64 1537.07 Q1369.96 1536.44 1367.1 1536.44 Q1362.74 1536.44 1360.54 1537.77 Q1358.38 1539.11 1358.38 1541.79 Q1358.38 1543.82 1359.94 1545 Q1361.5 1546.15 1366.21 1547.2 L1368.21 1547.64 Q1374.45 1548.98 1377.06 1551.43 Q1379.7 1553.85 1379.7 1558.21 Q1379.7 1563.17 1375.76 1566.07 Q1371.84 1568.97 1364.97 1568.97 Q1362.1 1568.97 1358.98 1568.39 Q1355.89 1567.85 1352.46 1566.74 L1352.46 1560.69 Q1355.7 1562.38 1358.85 1563.24 Q1362.01 1564.07 1365.09 1564.07 Q1369.23 1564.07 1371.46 1562.66 Q1373.69 1561.23 1373.69 1558.65 Q1373.69 1556.27 1372.06 1554.99 Q1370.47 1553.72 1365.03 1552.54 L1362.99 1552.07 Q1357.55 1550.92 1355.13 1548.56 Q1352.71 1546.18 1352.71 1542.04 Q1352.71 1537.01 1356.28 1534.27 Q1359.84 1531.54 1366.4 1531.54 Q1369.64 1531.54 1372.51 1532.01 Q1375.37 1532.49 1377.79 1533.45 Z" fill="#000000" fill-rule="nonzero" fill-opacity="1" /><polyline clip-path="url(#clip382)" style="stroke:#000000; stroke-linecap:round; stroke-linejoin:round; stroke-width:2; stroke-opacity:0.1; fill:none" points="257.69,1317.81 2352.76,1317.81 "/>
<polyline clip-path="url(#clip382)" style="stroke:#000000; stroke-linecap:round; stroke-linejoin:round; stroke-width:2; stroke-opacity:0.1; fill:none" points="257.69,1144.18 2352.76,1144.18 "/>
<polyline clip-path="url(#clip382)" style="stroke:#000000; stroke-linecap:round; stroke-linejoin:round; stroke-width:2; stroke-opacity:0.1; fill:none" points="257.69,970.558 2352.76,970.558 "/>
<polyline clip-path="url(#clip382)" style="stroke:#000000; stroke-linecap:round; stroke-linejoin:round; stroke-width:2; stroke-opacity:0.1; fill:none" points="257.69,796.932 2352.76,796.932 "/>
<polyline clip-path="url(#clip382)" style="stroke:#000000; stroke-linecap:round; stroke-linejoin:round; stroke-width:2; stroke-opacity:0.1; fill:none" points="257.69,623.305 2352.76,623.305 "/>
<polyline clip-path="url(#clip382)" style="stroke:#000000; stroke-linecap:round; stroke-linejoin:round; stroke-width:2; stroke-opacity:0.1; fill:none" points="257.69,449.679 2352.76,449.679 "/>
<polyline clip-path="url(#clip382)" style="stroke:#000000; stroke-linecap:round; stroke-linejoin:round; stroke-width:2; stroke-opacity:0.1; fill:none" points="257.69,276.052 2352.76,276.052 "/>
<polyline clip-path="url(#clip380)" style="stroke:#000000; stroke-linecap:round; stroke-linejoin:round; stroke-width:4; stroke-opacity:1; fill:none" points="257.69,1423.18 257.69,123.472 "/>
<polyline clip-path="url(#clip380)" style="stroke:#000000; stroke-linecap:round; stroke-linejoin:round; stroke-width:4; stroke-opacity:1; fill:none" points="257.69,1317.81 276.588,1317.81 "/>
<polyline clip-path="url(#clip380)" style="stroke:#000000; stroke-linecap:round; stroke-linejoin:round; stroke-width:4; stroke-opacity:1; fill:none" points="257.69,1144.18 276.588,1144.18 "/>
<polyline clip-path="url(#clip380)" style="stroke:#000000; stroke-linecap:round; stroke-linejoin:round; stroke-width:4; stroke-opacity:1; fill:none" points="257.69,970.558 276.588,970.558 "/>
<polyline clip-path="url(#clip380)" style="stroke:#000000; stroke-linecap:round; stroke-linejoin:round; stroke-width:4; stroke-opacity:1; fill:none" points="257.69,796.932 276.588,796.932 "/>
<polyline clip-path="url(#clip380)" style="stroke:#000000; stroke-linecap:round; stroke-linejoin:round; stroke-width:4; stroke-opacity:1; fill:none" points="257.69,623.305 276.588,623.305 "/>
<polyline clip-path="url(#clip380)" style="stroke:#000000; stroke-linecap:round; stroke-linejoin:round; stroke-width:4; stroke-opacity:1; fill:none" points="257.69,449.679 276.588,449.679 "/>
<polyline clip-path="url(#clip380)" style="stroke:#000000; stroke-linecap:round; stroke-linejoin:round; stroke-width:4; stroke-opacity:1; fill:none" points="257.69,276.052 276.588,276.052 "/>
<path clip-path="url(#clip380)" d="M114.584 1318.26 L144.26 1318.26 L144.26 1322.2 L114.584 1322.2 L114.584 1318.26 Z" fill="#000000" fill-rule="nonzero" fill-opacity="1" /><path clip-path="url(#clip380)" d="M164.352 1303.61 Q160.741 1303.61 158.913 1307.17 Q157.107 1310.72 157.107 1317.85 Q157.107 1324.95 158.913 1328.52 Q160.741 1332.06 164.352 1332.06 Q167.987 1332.06 169.792 1328.52 Q171.621 1324.95 171.621 1317.85 Q171.621 1310.72 169.792 1307.17 Q167.987 1303.61 164.352 1303.61 M164.352 1299.91 Q170.163 1299.91 173.218 1304.51 Q176.297 1309.1 176.297 1317.85 Q176.297 1326.57 173.218 1331.18 Q170.163 1335.76 164.352 1335.76 Q158.542 1335.76 155.464 1331.18 Q152.408 1326.57 152.408 1317.85 Q152.408 1309.1 155.464 1304.51 Q158.542 1299.91 164.352 1299.91 Z" fill="#000000" fill-rule="nonzero" fill-opacity="1" /><path clip-path="url(#clip380)" d="M184.514 1329.21 L189.399 1329.21 L189.399 1335.09 L184.514 1335.09 L184.514 1329.21 Z" fill="#000000" fill-rule="nonzero" fill-opacity="1" /><path clip-path="url(#clip380)" d="M210.162 1315.95 Q207.014 1315.95 205.162 1318.1 Q203.334 1320.25 203.334 1324 Q203.334 1327.73 205.162 1329.91 Q207.014 1332.06 210.162 1332.06 Q213.311 1332.06 215.139 1329.91 Q216.991 1327.73 216.991 1324 Q216.991 1320.25 215.139 1318.1 Q213.311 1315.95 210.162 1315.95 M219.445 1301.29 L219.445 1305.55 Q217.686 1304.72 215.88 1304.28 Q214.098 1303.84 212.338 1303.84 Q207.709 1303.84 205.255 1306.97 Q202.824 1310.09 202.477 1316.41 Q203.843 1314.4 205.903 1313.33 Q207.963 1312.24 210.44 1312.24 Q215.649 1312.24 218.658 1315.41 Q221.69 1318.56 221.69 1324 Q221.69 1329.33 218.542 1332.54 Q215.394 1335.76 210.162 1335.76 Q204.167 1335.76 200.996 1331.18 Q197.825 1326.57 197.825 1317.85 Q197.825 1309.65 201.713 1304.79 Q205.602 1299.91 212.153 1299.91 Q213.912 1299.91 215.695 1300.25 Q217.5 1300.6 219.445 1301.29 Z" fill="#000000" fill-rule="nonzero" fill-opacity="1" /><path clip-path="url(#clip380)" d="M114.26 1144.64 L143.936 1144.64 L143.936 1148.57 L114.26 1148.57 L114.26 1144.64 Z" fill="#000000" fill-rule="nonzero" fill-opacity="1" /><path clip-path="url(#clip380)" d="M164.028 1129.98 Q160.417 1129.98 158.589 1133.55 Q156.783 1137.09 156.783 1144.22 Q156.783 1151.33 158.589 1154.89 Q160.417 1158.43 164.028 1158.43 Q167.663 1158.43 169.468 1154.89 Q171.297 1151.33 171.297 1144.22 Q171.297 1137.09 169.468 1133.55 Q167.663 1129.98 164.028 1129.98 M164.028 1126.28 Q169.839 1126.28 172.894 1130.89 Q175.973 1135.47 175.973 1144.22 Q175.973 1152.95 172.894 1157.55 Q169.839 1162.14 164.028 1162.14 Q158.218 1162.14 155.14 1157.55 Q152.084 1152.95 152.084 1144.22 Q152.084 1135.47 155.14 1130.89 Q158.218 1126.28 164.028 1126.28 Z" fill="#000000" fill-rule="nonzero" fill-opacity="1" /><path clip-path="url(#clip380)" d="M184.19 1155.58 L189.075 1155.58 L189.075 1161.46 L184.19 1161.46 L184.19 1155.58 Z" fill="#000000" fill-rule="nonzero" fill-opacity="1" /><path clip-path="url(#clip380)" d="M212.107 1130.98 L200.301 1149.43 L212.107 1149.43 L212.107 1130.98 M210.88 1126.9 L216.76 1126.9 L216.76 1149.43 L221.69 1149.43 L221.69 1153.32 L216.76 1153.32 L216.76 1161.46 L212.107 1161.46 L212.107 1153.32 L196.505 1153.32 L196.505 1148.8 L210.88 1126.9 Z" fill="#000000" fill-rule="nonzero" fill-opacity="1" /><path clip-path="url(#clip380)" d="M116.343 971.009 L146.019 971.009 L146.019 974.945 L116.343 974.945 L116.343 971.009 Z" fill="#000000" fill-rule="nonzero" fill-opacity="1" /><path clip-path="url(#clip380)" d="M166.112 956.357 Q162.501 956.357 160.672 959.921 Q158.866 963.463 158.866 970.593 Q158.866 977.699 160.672 981.264 Q162.501 984.806 166.112 984.806 Q169.746 984.806 171.552 981.264 Q173.38 977.699 173.38 970.593 Q173.38 963.463 171.552 959.921 Q169.746 956.357 166.112 956.357 M166.112 952.653 Q171.922 952.653 174.977 957.259 Q178.056 961.843 178.056 970.593 Q178.056 979.319 174.977 983.926 Q171.922 988.509 166.112 988.509 Q160.302 988.509 157.223 983.926 Q154.167 979.319 154.167 970.593 Q154.167 961.843 157.223 957.259 Q160.302 952.653 166.112 952.653 Z" fill="#000000" fill-rule="nonzero" fill-opacity="1" /><path clip-path="url(#clip380)" d="M186.274 981.958 L191.158 981.958 L191.158 987.838 L186.274 987.838 L186.274 981.958 Z" fill="#000000" fill-rule="nonzero" fill-opacity="1" /><path clip-path="url(#clip380)" d="M205.371 983.903 L221.69 983.903 L221.69 987.838 L199.746 987.838 L199.746 983.903 Q202.408 981.148 206.991 976.519 Q211.598 971.866 212.778 970.523 Q215.024 968 215.903 966.264 Q216.806 964.505 216.806 962.815 Q216.806 960.06 214.861 958.324 Q212.94 956.588 209.838 956.588 Q207.639 956.588 205.186 957.352 Q202.755 958.116 199.977 959.667 L199.977 954.945 Q202.801 953.81 205.255 953.232 Q207.709 952.653 209.746 952.653 Q215.116 952.653 218.311 955.338 Q221.505 958.023 221.505 962.514 Q221.505 964.644 220.695 966.565 Q219.908 968.463 217.801 971.056 Q217.223 971.727 214.121 974.945 Q211.019 978.139 205.371 983.903 Z" fill="#000000" fill-rule="nonzero" fill-opacity="1" /><path clip-path="url(#clip380)" d="M164.515 782.73 Q160.903 782.73 159.075 786.295 Q157.269 789.837 157.269 796.966 Q157.269 804.073 159.075 807.638 Q160.903 811.179 164.515 811.179 Q168.149 811.179 169.954 807.638 Q171.783 804.073 171.783 796.966 Q171.783 789.837 169.954 786.295 Q168.149 782.73 164.515 782.73 M164.515 779.027 Q170.325 779.027 173.38 783.633 Q176.459 788.216 176.459 796.966 Q176.459 805.693 173.38 810.3 Q170.325 814.883 164.515 814.883 Q158.704 814.883 155.626 810.3 Q152.57 805.693 152.57 796.966 Q152.57 788.216 155.626 783.633 Q158.704 779.027 164.515 779.027 Z" fill="#000000" fill-rule="nonzero" fill-opacity="1" /><path clip-path="url(#clip380)" d="M184.676 808.332 L189.561 808.332 L189.561 814.212 L184.676 814.212 L184.676 808.332 Z" fill="#000000" fill-rule="nonzero" fill-opacity="1" /><path clip-path="url(#clip380)" d="M209.746 782.73 Q206.135 782.73 204.306 786.295 Q202.5 789.837 202.5 796.966 Q202.5 804.073 204.306 807.638 Q206.135 811.179 209.746 811.179 Q213.38 811.179 215.186 807.638 Q217.014 804.073 217.014 796.966 Q217.014 789.837 215.186 786.295 Q213.38 782.73 209.746 782.73 M209.746 779.027 Q215.556 779.027 218.611 783.633 Q221.69 788.216 221.69 796.966 Q221.69 805.693 218.611 810.3 Q215.556 814.883 209.746 814.883 Q203.936 814.883 200.857 810.3 Q197.801 805.693 197.801 796.966 Q197.801 788.216 200.857 783.633 Q203.936 779.027 209.746 779.027 Z" fill="#000000" fill-rule="nonzero" fill-opacity="1" /><path clip-path="url(#clip380)" d="M166.112 609.104 Q162.501 609.104 160.672 612.669 Q158.866 616.21 158.866 623.34 Q158.866 630.446 160.672 634.011 Q162.501 637.553 166.112 637.553 Q169.746 637.553 171.552 634.011 Q173.38 630.446 173.38 623.34 Q173.38 616.21 171.552 612.669 Q169.746 609.104 166.112 609.104 M166.112 605.4 Q171.922 605.4 174.977 610.007 Q178.056 614.59 178.056 623.34 Q178.056 632.067 174.977 636.673 Q171.922 641.256 166.112 641.256 Q160.302 641.256 157.223 636.673 Q154.167 632.067 154.167 623.34 Q154.167 614.59 157.223 610.007 Q160.302 605.4 166.112 605.4 Z" fill="#000000" fill-rule="nonzero" fill-opacity="1" /><path clip-path="url(#clip380)" d="M186.274 634.706 L191.158 634.706 L191.158 640.585 L186.274 640.585 L186.274 634.706 Z" fill="#000000" fill-rule="nonzero" fill-opacity="1" /><path clip-path="url(#clip380)" d="M205.371 636.65 L221.69 636.65 L221.69 640.585 L199.746 640.585 L199.746 636.65 Q202.408 633.895 206.991 629.266 Q211.598 624.613 212.778 623.27 Q215.024 620.747 215.903 619.011 Q216.806 617.252 216.806 615.562 Q216.806 612.807 214.861 611.071 Q212.94 609.335 209.838 609.335 Q207.639 609.335 205.186 610.099 Q202.755 610.863 199.977 612.414 L199.977 607.692 Q202.801 606.558 205.255 605.979 Q207.709 605.4 209.746 605.4 Q215.116 605.4 218.311 608.085 Q221.505 610.77 221.505 615.261 Q221.505 617.391 220.695 619.312 Q219.908 621.21 217.801 623.803 Q217.223 624.474 214.121 627.692 Q211.019 630.886 205.371 636.65 Z" fill="#000000" fill-rule="nonzero" fill-opacity="1" /><path clip-path="url(#clip380)" d="M164.028 435.477 Q160.417 435.477 158.589 439.042 Q156.783 442.584 156.783 449.713 Q156.783 456.82 158.589 460.385 Q160.417 463.926 164.028 463.926 Q167.663 463.926 169.468 460.385 Q171.297 456.82 171.297 449.713 Q171.297 442.584 169.468 439.042 Q167.663 435.477 164.028 435.477 M164.028 431.774 Q169.839 431.774 172.894 436.38 Q175.973 440.963 175.973 449.713 Q175.973 458.44 172.894 463.047 Q169.839 467.63 164.028 467.63 Q158.218 467.63 155.14 463.047 Q152.084 458.44 152.084 449.713 Q152.084 440.963 155.14 436.38 Q158.218 431.774 164.028 431.774 Z" fill="#000000" fill-rule="nonzero" fill-opacity="1" /><path clip-path="url(#clip380)" d="M184.19 461.079 L189.075 461.079 L189.075 466.959 L184.19 466.959 L184.19 461.079 Z" fill="#000000" fill-rule="nonzero" fill-opacity="1" /><path clip-path="url(#clip380)" d="M212.107 436.473 L200.301 454.922 L212.107 454.922 L212.107 436.473 M210.88 432.399 L216.76 432.399 L216.76 454.922 L221.69 454.922 L221.69 458.811 L216.76 458.811 L216.76 466.959 L212.107 466.959 L212.107 458.811 L196.505 458.811 L196.505 454.297 L210.88 432.399 Z" fill="#000000" fill-rule="nonzero" fill-opacity="1" /><path clip-path="url(#clip380)" d="M164.352 261.851 Q160.741 261.851 158.913 265.416 Q157.107 268.957 157.107 276.087 Q157.107 283.193 158.913 286.758 Q160.741 290.3 164.352 290.3 Q167.987 290.3 169.792 286.758 Q171.621 283.193 171.621 276.087 Q171.621 268.957 169.792 265.416 Q167.987 261.851 164.352 261.851 M164.352 258.147 Q170.163 258.147 173.218 262.754 Q176.297 267.337 176.297 276.087 Q176.297 284.814 173.218 289.42 Q170.163 294.004 164.352 294.004 Q158.542 294.004 155.464 289.42 Q152.408 284.814 152.408 276.087 Q152.408 267.337 155.464 262.754 Q158.542 258.147 164.352 258.147 Z" fill="#000000" fill-rule="nonzero" fill-opacity="1" /><path clip-path="url(#clip380)" d="M184.514 287.453 L189.399 287.453 L189.399 293.332 L184.514 293.332 L184.514 287.453 Z" fill="#000000" fill-rule="nonzero" fill-opacity="1" /><path clip-path="url(#clip380)" d="M210.162 274.189 Q207.014 274.189 205.162 276.342 Q203.334 278.494 203.334 282.244 Q203.334 285.971 205.162 288.147 Q207.014 290.3 210.162 290.3 Q213.311 290.3 215.139 288.147 Q216.991 285.971 216.991 282.244 Q216.991 278.494 215.139 276.342 Q213.311 274.189 210.162 274.189 M219.445 259.536 L219.445 263.795 Q217.686 262.962 215.88 262.522 Q214.098 262.082 212.338 262.082 Q207.709 262.082 205.255 265.207 Q202.824 268.332 202.477 274.652 Q203.843 272.638 205.903 271.573 Q207.963 270.485 210.44 270.485 Q215.649 270.485 218.658 273.656 Q221.69 276.805 221.69 282.244 Q221.69 287.568 218.542 290.786 Q215.394 294.004 210.162 294.004 Q204.167 294.004 200.996 289.42 Q197.825 284.814 197.825 276.087 Q197.825 267.893 201.713 263.032 Q205.602 258.147 212.153 258.147 Q213.912 258.147 215.695 258.495 Q217.5 258.842 219.445 259.536 Z" fill="#000000" fill-rule="nonzero" fill-opacity="1" /><path clip-path="url(#clip380)" d="M18.0438 893.717 L24.314 893.717 Q22.5634 897.378 21.704 900.624 Q20.8447 903.871 20.8447 906.894 Q20.8447 912.146 22.8817 915.011 Q24.9187 917.843 28.6745 917.843 Q31.8255 917.843 33.4488 915.966 Q35.0402 914.056 36.0269 908.772 L36.8226 904.889 Q38.1912 897.696 41.6605 894.29 Q45.098 890.853 50.8908 890.853 Q57.7976 890.853 61.3624 895.5 Q64.9272 900.115 64.9272 909.059 Q64.9272 912.433 64.1633 916.252 Q63.3994 920.04 61.9035 924.114 L55.2831 924.114 Q57.4793 920.199 58.5933 916.443 Q59.7073 912.687 59.7073 909.059 Q59.7073 903.552 57.543 900.561 Q55.3786 897.569 51.3682 897.569 Q47.8671 897.569 45.8937 899.733 Q43.9204 901.866 42.9337 906.767 L42.1698 910.682 Q40.7375 917.875 37.682 921.09 Q34.6264 924.305 29.1837 924.305 Q22.8817 924.305 19.2532 919.88 Q15.6248 915.424 15.6248 907.626 Q15.6248 904.284 16.2295 900.815 Q16.8343 897.346 18.0438 893.717 Z" fill="#000000" fill-rule="nonzero" fill-opacity="1" /><path clip-path="url(#clip380)" d="M28.3562 881.081 L28.3562 875.225 L64.0042 875.225 L64.0042 881.081 L28.3562 881.081 M14.479 881.081 L14.479 875.225 L21.895 875.225 L21.895 881.081 L14.479 881.081 Z" fill="#000000" fill-rule="nonzero" fill-opacity="1" /><path clip-path="url(#clip380)" d="M35.1993 835.217 Q31.2526 833.02 29.3747 829.965 Q27.4968 826.909 27.4968 822.772 Q27.4968 817.202 31.4117 814.178 Q35.2948 811.154 42.4881 811.154 L64.0042 811.154 L64.0042 817.042 L42.679 817.042 Q37.5546 817.042 35.072 818.857 Q32.5894 820.671 32.5894 824.395 Q32.5894 828.946 35.6131 831.588 Q38.6368 834.23 43.8567 834.23 L64.0042 834.23 L64.0042 840.118 L42.679 840.118 Q37.5228 840.118 35.072 841.932 Q32.5894 843.747 32.5894 847.534 Q32.5894 852.022 35.6449 854.664 Q38.6686 857.306 43.8567 857.306 L64.0042 857.306 L64.0042 863.194 L28.3562 863.194 L28.3562 857.306 L33.8944 857.306 Q30.616 855.3 29.0564 852.499 Q27.4968 849.699 27.4968 845.847 Q27.4968 841.964 29.4702 839.259 Q31.4436 836.522 35.1993 835.217 Z" fill="#000000" fill-rule="nonzero" fill-opacity="1" /><path clip-path="url(#clip380)" d="M28.3562 799.473 L28.3562 793.617 L64.0042 793.617 L64.0042 799.473 L28.3562 799.473 M14.479 799.473 L14.479 793.617 L21.895 793.617 L21.895 799.473 L14.479 799.473 Z" fill="#000000" fill-rule="nonzero" fill-opacity="1" /><path clip-path="url(#clip380)" d="M14.479 781.363 L14.479 775.506 L64.0042 775.506 L64.0042 781.363 L14.479 781.363 Z" fill="#000000" fill-rule="nonzero" fill-opacity="1" /><path clip-path="url(#clip380)" d="M46.0847 747.052 Q46.0847 754.149 47.7079 756.887 Q49.3312 759.624 53.2461 759.624 Q56.3653 759.624 58.2114 757.587 Q60.0256 755.518 60.0256 751.985 Q60.0256 747.115 56.5881 744.187 Q53.1188 741.227 47.3897 741.227 L46.0847 741.227 L46.0847 747.052 M43.6657 735.37 L64.0042 735.37 L64.0042 741.227 L58.5933 741.227 Q61.8398 743.232 63.3994 746.224 Q64.9272 749.216 64.9272 753.545 Q64.9272 759.019 61.8716 762.266 Q58.7843 765.48 53.6281 765.48 Q47.6125 765.48 44.5569 761.47 Q41.5014 757.428 41.5014 749.439 L41.5014 741.227 L40.9285 741.227 Q36.8862 741.227 34.6901 743.901 Q32.4621 746.542 32.4621 751.348 Q32.4621 754.404 33.1941 757.3 Q33.9262 760.197 35.3903 762.87 L29.9795 762.87 Q28.7381 759.656 28.1334 756.632 Q27.4968 753.608 27.4968 750.744 Q27.4968 743.009 31.5072 739.19 Q35.5176 735.37 43.6657 735.37 Z" fill="#000000" fill-rule="nonzero" fill-opacity="1" /><path clip-path="url(#clip380)" d="M33.8307 702.651 Q33.2578 703.637 33.0032 704.815 Q32.7167 705.961 32.7167 707.361 Q32.7167 712.327 35.9632 715 Q39.1779 717.642 45.2253 717.642 L64.0042 717.642 L64.0042 723.53 L28.3562 723.53 L28.3562 717.642 L33.8944 717.642 Q30.6479 715.796 29.0883 712.836 Q27.4968 709.876 27.4968 705.643 Q27.4968 705.038 27.5923 704.306 Q27.656 703.574 27.8151 702.683 L33.8307 702.651 Z" fill="#000000" fill-rule="nonzero" fill-opacity="1" /><path clip-path="url(#clip380)" d="M28.3562 696.508 L28.3562 690.651 L64.0042 690.651 L64.0042 696.508 L28.3562 696.508 M14.479 696.508 L14.479 690.651 L21.895 690.651 L21.895 696.508 L14.479 696.508 Z" fill="#000000" fill-rule="nonzero" fill-opacity="1" /><path clip-path="url(#clip380)" d="M18.2347 672.605 L28.3562 672.605 L28.3562 660.542 L32.9077 660.542 L32.9077 672.605 L52.2594 672.605 Q56.6199 672.605 57.8613 671.427 Q59.1026 670.217 59.1026 666.557 L59.1026 660.542 L64.0042 660.542 L64.0042 666.557 Q64.0042 673.337 61.4897 675.915 Q58.9434 678.493 52.2594 678.493 L32.9077 678.493 L32.9077 682.79 L28.3562 682.79 L28.3562 678.493 L18.2347 678.493 L18.2347 672.605 Z" fill="#000000" fill-rule="nonzero" fill-opacity="1" /><path clip-path="url(#clip380)" d="M67.3143 638.007 Q73.68 640.49 75.6216 642.845 Q77.5631 645.2 77.5631 649.147 L77.5631 653.826 L72.6615 653.826 L72.6615 650.388 Q72.6615 647.969 71.5157 646.633 Q70.3699 645.296 66.1048 643.672 L63.4312 642.622 L28.3562 657.04 L28.3562 650.834 L56.238 639.694 L28.3562 628.554 L28.3562 622.347 L67.3143 638.007 Z" fill="#000000" fill-rule="nonzero" fill-opacity="1" /><path clip-path="url(#clip380)" d="M396.423 14.0809 L396.423 22.0612 Q391.764 19.8332 387.632 18.7395 Q383.501 17.6457 379.652 17.6457 Q372.968 17.6457 369.322 20.2383 Q365.717 22.8309 365.717 27.611 Q365.717 31.6214 368.107 33.6873 Q370.538 35.7128 377.262 36.9686 L382.204 37.9813 Q391.359 39.7232 395.694 44.1387 Q400.069 48.5136 400.069 55.8863 Q400.069 64.6767 394.154 69.2137 Q388.281 73.7508 376.898 73.7508 Q372.604 73.7508 367.743 72.7785 Q362.922 71.8063 357.737 69.9024 L357.737 61.4765 Q362.719 64.2716 367.499 65.6895 Q372.28 67.1073 376.898 67.1073 Q383.906 67.1073 387.713 64.3527 Q391.521 61.598 391.521 56.4939 Q391.521 52.0379 388.767 49.5264 Q386.053 47.0148 379.814 45.759 L374.832 44.7868 Q365.677 42.9639 361.585 39.075 Q357.494 35.1862 357.494 28.2591 Q357.494 20.2383 363.124 15.6203 Q368.796 11.0023 378.72 11.0023 Q382.974 11.0023 387.389 11.7719 Q391.805 12.5416 396.423 14.0809 Z" fill="#000000" fill-rule="nonzero" fill-opacity="1" /><path clip-path="url(#clip380)" d="M430.086 32.4315 Q424.091 32.4315 420.607 37.1306 Q417.123 41.7891 417.123 49.9314 Q417.123 58.0738 420.566 62.7728 Q424.05 67.4314 430.086 67.4314 Q436.041 67.4314 439.525 62.7323 Q443.008 58.0333 443.008 49.9314 Q443.008 41.8701 439.525 37.1711 Q436.041 32.4315 430.086 32.4315 M430.086 26.1121 Q439.808 26.1121 445.358 32.4315 Q450.908 38.7509 450.908 49.9314 Q450.908 61.0714 445.358 67.4314 Q439.808 73.7508 430.086 73.7508 Q420.323 73.7508 414.774 67.4314 Q409.264 61.0714 409.264 49.9314 Q409.264 38.7509 414.774 32.4315 Q420.323 26.1121 430.086 26.1121 Z" fill="#000000" fill-rule="nonzero" fill-opacity="1" /><path clip-path="url(#clip380)" d="M489.553 34.1734 Q488.297 33.4443 486.799 33.1202 Q485.34 32.7556 483.558 32.7556 Q477.238 32.7556 473.836 36.8875 Q470.473 40.9789 470.473 48.6757 L470.473 72.576 L462.979 72.576 L462.979 27.2059 L470.473 27.2059 L470.473 34.2544 Q472.823 30.1225 476.59 28.1376 Q480.358 26.1121 485.745 26.1121 Q486.515 26.1121 487.447 26.2337 Q488.378 26.3147 489.513 26.5172 L489.553 34.1734 Z" fill="#000000" fill-rule="nonzero" fill-opacity="1" /><path clip-path="url(#clip380)" d="M504.744 14.324 L504.744 27.2059 L520.097 27.2059 L520.097 32.9987 L504.744 32.9987 L504.744 57.6282 Q504.744 63.1779 506.243 64.7578 Q507.782 66.3376 512.441 66.3376 L520.097 66.3376 L520.097 72.576 L512.441 72.576 Q503.812 72.576 500.531 69.3758 Q497.25 66.1351 497.25 57.6282 L497.25 32.9987 L491.781 32.9987 L491.781 27.2059 L497.25 27.2059 L497.25 14.324 L504.744 14.324 Z" fill="#000000" fill-rule="nonzero" fill-opacity="1" /><path clip-path="url(#clip380)" d="M568.708 48.0275 L568.708 51.6733 L534.437 51.6733 Q534.923 59.3701 539.055 63.421 Q543.228 67.4314 550.641 67.4314 Q554.935 67.4314 558.945 66.3781 Q562.996 65.3249 566.966 63.2184 L566.966 70.267 Q562.956 71.9684 558.743 72.8596 Q554.53 73.7508 550.195 73.7508 Q539.339 73.7508 532.979 67.4314 Q526.659 61.1119 526.659 50.3365 Q526.659 39.1965 532.655 32.6746 Q538.691 26.1121 548.899 26.1121 Q558.054 26.1121 563.361 32.0264 Q568.708 37.9003 568.708 48.0275 M561.254 45.84 Q561.173 39.7232 557.811 36.0774 Q554.489 32.4315 548.98 32.4315 Q542.742 32.4315 538.974 35.9558 Q535.247 39.4801 534.68 45.8805 L561.254 45.84 Z" fill="#000000" fill-rule="nonzero" fill-opacity="1" /><path clip-path="url(#clip380)" d="M610.797 34.0924 L610.797 9.54393 L618.25 9.54393 L618.25 72.576 L610.797 72.576 L610.797 65.7705 Q608.447 69.8214 604.842 71.8063 Q601.277 73.7508 596.254 73.7508 Q588.031 73.7508 582.846 67.1883 Q577.701 60.6258 577.701 49.9314 Q577.701 39.2371 582.846 32.6746 Q588.031 26.1121 596.254 26.1121 Q601.277 26.1121 604.842 28.0971 Q608.447 30.0415 610.797 34.0924 M585.398 49.9314 Q585.398 58.1548 588.76 62.8538 Q592.163 67.5124 598.077 67.5124 Q603.991 67.5124 607.394 62.8538 Q610.797 58.1548 610.797 49.9314 Q610.797 41.7081 607.394 37.0496 Q603.991 32.3505 598.077 32.3505 Q592.163 32.3505 588.76 37.0496 Q585.398 41.7081 585.398 49.9314 Z" fill="#000000" fill-rule="nonzero" fill-opacity="1" /><path clip-path="url(#clip380)" d="M692.625 28.9478 L692.625 35.9153 Q689.465 34.1734 686.265 33.3227 Q683.105 32.4315 679.865 32.4315 Q672.614 32.4315 668.603 37.0496 Q664.593 41.6271 664.593 49.9314 Q664.593 58.2358 668.603 62.8538 Q672.614 67.4314 679.865 67.4314 Q683.105 67.4314 686.265 66.5807 Q689.465 65.6895 692.625 63.9476 L692.625 70.8341 Q689.506 72.2924 686.144 73.0216 Q682.822 73.7508 679.055 73.7508 Q668.806 73.7508 662.77 67.3098 Q656.734 60.8689 656.734 49.9314 Q656.734 38.832 662.81 32.472 Q668.927 26.1121 679.541 26.1121 Q682.984 26.1121 686.265 26.8413 Q689.546 27.5299 692.625 28.9478 Z" fill="#000000" fill-rule="nonzero" fill-opacity="1" /><path clip-path="url(#clip380)" d="M723.169 32.4315 Q717.174 32.4315 713.69 37.1306 Q710.206 41.7891 710.206 49.9314 Q710.206 58.0738 713.649 62.7728 Q717.133 67.4314 723.169 67.4314 Q729.124 67.4314 732.607 62.7323 Q736.091 58.0333 736.091 49.9314 Q736.091 41.8701 732.607 37.1711 Q729.124 32.4315 723.169 32.4315 M723.169 26.1121 Q732.891 26.1121 738.441 32.4315 Q743.99 38.7509 743.99 49.9314 Q743.99 61.0714 738.441 67.4314 Q732.891 73.7508 723.169 73.7508 Q713.406 73.7508 707.856 67.4314 Q702.347 61.0714 702.347 49.9314 Q702.347 38.7509 707.856 32.4315 Q713.406 26.1121 723.169 26.1121 Z" fill="#000000" fill-rule="nonzero" fill-opacity="1" /><path clip-path="url(#clip380)" d="M785.269 28.5427 L785.269 35.5912 Q782.11 33.9709 778.707 33.1607 Q775.304 32.3505 771.658 32.3505 Q766.108 32.3505 763.313 34.0519 Q760.559 35.7533 760.559 39.156 Q760.559 41.7486 762.544 43.2475 Q764.529 44.7058 770.524 46.0426 L773.076 46.6097 Q781.016 48.3111 784.338 51.4303 Q787.7 54.509 787.7 60.0587 Q787.7 66.3781 782.677 70.0644 Q777.694 73.7508 768.944 73.7508 Q765.298 73.7508 761.328 73.0216 Q757.399 72.3329 753.024 70.9151 L753.024 63.2184 Q757.156 65.3654 761.166 66.4591 Q765.177 67.5124 769.106 67.5124 Q774.372 67.5124 777.208 65.73 Q780.044 63.9071 780.044 60.6258 Q780.044 57.5877 777.978 55.9673 Q775.952 54.3469 769.025 52.8481 L766.433 52.2405 Q759.505 50.7821 756.427 47.7845 Q753.348 44.7463 753.348 39.4801 Q753.348 33.0797 757.885 29.5959 Q762.422 26.1121 770.767 26.1121 Q774.899 26.1121 778.545 26.7198 Q782.191 27.3274 785.269 28.5427 Z" fill="#000000" fill-rule="nonzero" fill-opacity="1" /><path clip-path="url(#clip380)" d="M799.569 27.2059 L807.023 27.2059 L807.023 72.576 L799.569 72.576 L799.569 27.2059 M799.569 9.54393 L807.023 9.54393 L807.023 18.9825 L799.569 18.9825 L799.569 9.54393 Z" fill="#000000" fill-rule="nonzero" fill-opacity="1" /><path clip-path="url(#clip380)" d="M860.332 45.1919 L860.332 72.576 L852.879 72.576 L852.879 45.4349 Q852.879 38.994 850.367 35.7938 Q847.856 32.5936 842.833 32.5936 Q836.797 32.5936 833.313 36.4419 Q829.829 40.2903 829.829 46.9338 L829.829 72.576 L822.335 72.576 L822.335 27.2059 L829.829 27.2059 L829.829 34.2544 Q832.503 30.163 836.108 28.1376 Q839.754 26.1121 844.493 26.1121 Q852.312 26.1121 856.322 30.9732 Q860.332 35.7938 860.332 45.1919 Z" fill="#000000" fill-rule="nonzero" fill-opacity="1" /><path clip-path="url(#clip380)" d="M914.007 48.0275 L914.007 51.6733 L879.736 51.6733 Q880.222 59.3701 884.354 63.421 Q888.527 67.4314 895.94 67.4314 Q900.234 67.4314 904.244 66.3781 Q908.295 65.3249 912.265 63.2184 L912.265 70.267 Q908.255 71.9684 904.042 72.8596 Q899.829 73.7508 895.494 73.7508 Q884.638 73.7508 878.278 67.4314 Q871.959 61.1119 871.959 50.3365 Q871.959 39.1965 877.954 32.6746 Q883.99 26.1121 894.198 26.1121 Q903.353 26.1121 908.66 32.0264 Q914.007 37.9003 914.007 48.0275 M906.553 45.84 Q906.472 39.7232 903.11 36.0774 Q899.788 32.4315 894.279 32.4315 Q888.041 32.4315 884.273 35.9558 Q880.546 39.4801 879.979 45.8805 L906.553 45.84 Z" fill="#000000" fill-rule="nonzero" fill-opacity="1" /><path clip-path="url(#clip380)" d="M981.536 28.5427 L981.536 35.5912 Q978.376 33.9709 974.973 33.1607 Q971.57 32.3505 967.924 32.3505 Q962.375 32.3505 959.58 34.0519 Q956.825 35.7533 956.825 39.156 Q956.825 41.7486 958.81 43.2475 Q960.795 44.7058 966.79 46.0426 L969.342 46.6097 Q977.282 48.3111 980.604 51.4303 Q983.966 54.509 983.966 60.0587 Q983.966 66.3781 978.943 70.0644 Q973.96 73.7508 965.21 73.7508 Q961.565 73.7508 957.595 73.0216 Q953.665 72.3329 949.29 70.9151 L949.29 63.2184 Q953.422 65.3654 957.433 66.4591 Q961.443 67.5124 965.372 67.5124 Q970.639 67.5124 973.474 65.73 Q976.31 63.9071 976.31 60.6258 Q976.31 57.5877 974.244 55.9673 Q972.218 54.3469 965.291 52.8481 L962.699 52.2405 Q955.772 50.7821 952.693 47.7845 Q949.614 44.7463 949.614 39.4801 Q949.614 33.0797 954.151 29.5959 Q958.688 26.1121 967.033 26.1121 Q971.165 26.1121 974.811 26.7198 Q978.457 27.3274 981.536 28.5427 Z" fill="#000000" fill-rule="nonzero" fill-opacity="1" /><path clip-path="url(#clip380)" d="M995.835 27.2059 L1003.29 27.2059 L1003.29 72.576 L995.835 72.576 L995.835 27.2059 M995.835 9.54393 L1003.29 9.54393 L1003.29 18.9825 L995.835 18.9825 L995.835 9.54393 Z" fill="#000000" fill-rule="nonzero" fill-opacity="1" /><path clip-path="url(#clip380)" d="M1054.21 35.9153 Q1057 30.8922 1060.89 28.5022 Q1064.78 26.1121 1070.05 26.1121 Q1077.14 26.1121 1080.99 31.0947 Q1084.83 36.0368 1084.83 45.1919 L1084.83 72.576 L1077.34 72.576 L1077.34 45.4349 Q1077.34 38.913 1075.03 35.7533 Q1072.72 32.5936 1067.98 32.5936 Q1062.19 32.5936 1058.83 36.4419 Q1055.46 40.2903 1055.46 46.9338 L1055.46 72.576 L1047.97 72.576 L1047.97 45.4349 Q1047.97 38.8725 1045.66 35.7533 Q1043.35 32.5936 1038.53 32.5936 Q1032.82 32.5936 1029.46 36.4824 Q1026.1 40.3308 1026.1 46.9338 L1026.1 72.576 L1018.6 72.576 L1018.6 27.2059 L1026.1 27.2059 L1026.1 34.2544 Q1028.65 30.082 1032.21 28.0971 Q1035.78 26.1121 1040.68 26.1121 Q1045.62 26.1121 1049.06 28.6237 Q1052.55 31.1352 1054.21 35.9153 Z" fill="#000000" fill-rule="nonzero" fill-opacity="1" /><path clip-path="url(#clip380)" d="M1099.7 27.2059 L1107.15 27.2059 L1107.15 72.576 L1099.7 72.576 L1099.7 27.2059 M1099.7 9.54393 L1107.15 9.54393 L1107.15 18.9825 L1099.7 18.9825 L1099.7 9.54393 Z" fill="#000000" fill-rule="nonzero" fill-opacity="1" /><path clip-path="url(#clip380)" d="M1122.75 9.54393 L1130.2 9.54393 L1130.2 72.576 L1122.75 72.576 L1122.75 9.54393 Z" fill="#000000" fill-rule="nonzero" fill-opacity="1" /><path clip-path="url(#clip380)" d="M1166.42 49.7694 Q1157.39 49.7694 1153.9 51.8354 Q1150.42 53.9013 1150.42 58.8839 Q1150.42 62.8538 1153.01 65.2034 Q1155.64 67.5124 1160.14 67.5124 Q1166.34 67.5124 1170.06 63.1374 Q1173.83 58.7219 1173.83 51.4303 L1173.83 49.7694 L1166.42 49.7694 M1181.29 46.6907 L1181.29 72.576 L1173.83 72.576 L1173.83 65.6895 Q1171.28 69.8214 1167.47 71.8063 Q1163.66 73.7508 1158.15 73.7508 Q1151.19 73.7508 1147.06 69.8619 Q1142.96 65.9325 1142.96 59.3701 Q1142.96 51.7138 1148.07 47.825 Q1153.21 43.9361 1163.38 43.9361 L1173.83 43.9361 L1173.83 43.2069 Q1173.83 38.0623 1170.43 35.2672 Q1167.07 32.4315 1160.95 32.4315 Q1157.06 32.4315 1153.37 33.3632 Q1149.69 34.295 1146.29 36.1584 L1146.29 29.2718 Q1150.38 27.692 1154.23 26.9223 Q1158.07 26.1121 1161.72 26.1121 Q1171.56 26.1121 1176.42 31.2163 Q1181.29 36.3204 1181.29 46.6907 Z" fill="#000000" fill-rule="nonzero" fill-opacity="1" /><path clip-path="url(#clip380)" d="M1222.93 34.1734 Q1221.67 33.4443 1220.17 33.1202 Q1218.72 32.7556 1216.93 32.7556 Q1210.61 32.7556 1207.21 36.8875 Q1203.85 40.9789 1203.85 48.6757 L1203.85 72.576 L1196.35 72.576 L1196.35 27.2059 L1203.85 27.2059 L1203.85 34.2544 Q1206.2 30.1225 1209.97 28.1376 Q1213.73 26.1121 1219.12 26.1121 Q1219.89 26.1121 1220.82 26.2337 Q1221.75 26.3147 1222.89 26.5172 L1222.93 34.1734 Z" fill="#000000" fill-rule="nonzero" fill-opacity="1" /><path clip-path="url(#clip380)" d="M1230.75 27.2059 L1238.2 27.2059 L1238.2 72.576 L1230.75 72.576 L1230.75 27.2059 M1230.75 9.54393 L1238.2 9.54393 L1238.2 18.9825 L1230.75 18.9825 L1230.75 9.54393 Z" fill="#000000" fill-rule="nonzero" fill-opacity="1" /><path clip-path="url(#clip380)" d="M1261.17 14.324 L1261.17 27.2059 L1276.52 27.2059 L1276.52 32.9987 L1261.17 32.9987 L1261.17 57.6282 Q1261.17 63.1779 1262.67 64.7578 Q1264.21 66.3376 1268.87 66.3376 L1276.52 66.3376 L1276.52 72.576 L1268.87 72.576 Q1260.24 72.576 1256.96 69.3758 Q1253.68 66.1351 1253.68 57.6282 L1253.68 32.9987 L1248.21 32.9987 L1248.21 27.2059 L1253.68 27.2059 L1253.68 14.324 L1261.17 14.324 Z" fill="#000000" fill-rule="nonzero" fill-opacity="1" /><path clip-path="url(#clip380)" d="M1286.33 27.2059 L1293.78 27.2059 L1293.78 72.576 L1286.33 72.576 L1286.33 27.2059 M1286.33 9.54393 L1293.78 9.54393 L1293.78 18.9825 L1286.33 18.9825 L1286.33 9.54393 Z" fill="#000000" fill-rule="nonzero" fill-opacity="1" /><path clip-path="url(#clip380)" d="M1348.18 48.0275 L1348.18 51.6733 L1313.91 51.6733 Q1314.4 59.3701 1318.53 63.421 Q1322.7 67.4314 1330.12 67.4314 Q1334.41 67.4314 1338.42 66.3781 Q1342.47 65.3249 1346.44 63.2184 L1346.44 70.267 Q1342.43 71.9684 1338.22 72.8596 Q1334 73.7508 1329.67 73.7508 Q1318.81 73.7508 1312.45 67.4314 Q1306.13 61.1119 1306.13 50.3365 Q1306.13 39.1965 1312.13 32.6746 Q1318.17 26.1121 1328.37 26.1121 Q1337.53 26.1121 1342.84 32.0264 Q1348.18 37.9003 1348.18 48.0275 M1340.73 45.84 Q1340.65 39.7232 1337.29 36.0774 Q1333.96 32.4315 1328.45 32.4315 Q1322.22 32.4315 1318.45 35.9558 Q1314.72 39.4801 1314.16 45.8805 L1340.73 45.84 Z" fill="#000000" fill-rule="nonzero" fill-opacity="1" /><path clip-path="url(#clip380)" d="M1389.34 28.5427 L1389.34 35.5912 Q1386.18 33.9709 1382.78 33.1607 Q1379.37 32.3505 1375.73 32.3505 Q1370.18 32.3505 1367.38 34.0519 Q1364.63 35.7533 1364.63 39.156 Q1364.63 41.7486 1366.61 43.2475 Q1368.6 44.7058 1374.59 46.0426 L1377.15 46.6097 Q1385.09 48.3111 1388.41 51.4303 Q1391.77 54.509 1391.77 60.0587 Q1391.77 66.3781 1386.75 70.0644 Q1381.76 73.7508 1373.01 73.7508 Q1369.37 73.7508 1365.4 73.0216 Q1361.47 72.3329 1357.09 70.9151 L1357.09 63.2184 Q1361.23 65.3654 1365.24 66.4591 Q1369.25 67.5124 1373.18 67.5124 Q1378.44 67.5124 1381.28 65.73 Q1384.11 63.9071 1384.11 60.6258 Q1384.11 57.5877 1382.05 55.9673 Q1380.02 54.3469 1373.1 52.8481 L1370.5 52.2405 Q1363.58 50.7821 1360.5 47.7845 Q1357.42 44.7463 1357.42 39.4801 Q1357.42 33.0797 1361.96 29.5959 Q1366.49 26.1121 1374.84 26.1121 Q1378.97 26.1121 1382.62 26.7198 Q1386.26 27.3274 1389.34 28.5427 Z" fill="#000000" fill-rule="nonzero" fill-opacity="1" /><path clip-path="url(#clip380)" d="M1462.66 28.9478 L1462.66 35.9153 Q1459.5 34.1734 1456.3 33.3227 Q1453.14 32.4315 1449.9 32.4315 Q1442.65 32.4315 1438.64 37.0496 Q1434.63 41.6271 1434.63 49.9314 Q1434.63 58.2358 1438.64 62.8538 Q1442.65 67.4314 1449.9 67.4314 Q1453.14 67.4314 1456.3 66.5807 Q1459.5 65.6895 1462.66 63.9476 L1462.66 70.8341 Q1459.54 72.2924 1456.18 73.0216 Q1452.86 73.7508 1449.09 73.7508 Q1438.84 73.7508 1432.81 67.3098 Q1426.77 60.8689 1426.77 49.9314 Q1426.77 38.832 1432.85 32.472 Q1438.96 26.1121 1449.58 26.1121 Q1453.02 26.1121 1456.3 26.8413 Q1459.58 27.5299 1462.66 28.9478 Z" fill="#000000" fill-rule="nonzero" fill-opacity="1" /><path clip-path="url(#clip380)" d="M1514.43 48.0275 L1514.43 51.6733 L1480.16 51.6733 Q1480.65 59.3701 1484.78 63.421 Q1488.95 67.4314 1496.36 67.4314 Q1500.66 67.4314 1504.67 66.3781 Q1508.72 65.3249 1512.69 63.2184 L1512.69 70.267 Q1508.68 71.9684 1504.47 72.8596 Q1500.25 73.7508 1495.92 73.7508 Q1485.06 73.7508 1478.7 67.4314 Q1472.38 61.1119 1472.38 50.3365 Q1472.38 39.1965 1478.38 32.6746 Q1484.41 26.1121 1494.62 26.1121 Q1503.78 26.1121 1509.08 32.0264 Q1514.43 37.9003 1514.43 48.0275 M1506.98 45.84 Q1506.9 39.7232 1503.54 36.0774 Q1500.21 32.4315 1494.7 32.4315 Q1488.47 32.4315 1484.7 35.9558 Q1480.97 39.4801 1480.4 45.8805 L1506.98 45.84 Z" fill="#000000" fill-rule="nonzero" fill-opacity="1" /><path clip-path="url(#clip380)" d="M1526.67 9.54393 L1534.12 9.54393 L1534.12 72.576 L1526.67 72.576 L1526.67 9.54393 Z" fill="#000000" fill-rule="nonzero" fill-opacity="1" /><path clip-path="url(#clip380)" d="M1549.72 9.54393 L1557.17 9.54393 L1557.17 72.576 L1549.72 72.576 L1549.72 9.54393 Z" fill="#000000" fill-rule="nonzero" fill-opacity="1" /><path clip-path="url(#clip380)" d="M1601.61 65.6895 L1614.98 65.6895 L1614.98 19.5497 L1600.43 22.4663 L1600.43 15.0127 L1614.89 12.096 L1623.08 12.096 L1623.08 65.6895 L1636.45 65.6895 L1636.45 72.576 L1601.61 72.576 L1601.61 65.6895 Z" fill="#000000" fill-rule="nonzero" fill-opacity="1" /><path clip-path="url(#clip380)" d="M1670.47 17.4837 Q1664.15 17.4837 1660.95 23.7221 Q1657.79 29.92 1657.79 42.3968 Q1657.79 54.833 1660.95 61.0714 Q1664.15 67.2693 1670.47 67.2693 Q1676.83 67.2693 1679.99 61.0714 Q1683.19 54.833 1683.19 42.3968 Q1683.19 29.92 1679.99 23.7221 Q1676.83 17.4837 1670.47 17.4837 M1670.47 11.0023 Q1680.64 11.0023 1685.99 19.0636 Q1691.38 27.0843 1691.38 42.3968 Q1691.38 57.6687 1685.99 65.73 Q1680.64 73.7508 1670.47 73.7508 Q1660.31 73.7508 1654.92 65.73 Q1649.57 57.6687 1649.57 42.3968 Q1649.57 27.0843 1654.92 19.0636 Q1660.31 11.0023 1670.47 11.0023 Z" fill="#000000" fill-rule="nonzero" fill-opacity="1" /><path clip-path="url(#clip380)" d="M1707.17 65.6895 L1720.54 65.6895 L1720.54 19.5497 L1706 22.4663 L1706 15.0127 L1720.46 12.096 L1728.64 12.096 L1728.64 65.6895 L1742.01 65.6895 L1742.01 72.576 L1707.17 72.576 L1707.17 65.6895 Z" fill="#000000" fill-rule="nonzero" fill-opacity="1" /><path clip-path="url(#clip380)" d="M1783.86 27.2059 L1791.31 27.2059 L1791.31 72.576 L1783.86 72.576 L1783.86 27.2059 M1783.86 9.54393 L1791.31 9.54393 L1791.31 18.9825 L1783.86 18.9825 L1783.86 9.54393 Z" fill="#000000" fill-rule="nonzero" fill-opacity="1" /><path clip-path="url(#clip380)" d="M1814.28 14.324 L1814.28 27.2059 L1829.63 27.2059 L1829.63 32.9987 L1814.28 32.9987 L1814.28 57.6282 Q1814.28 63.1779 1815.78 64.7578 Q1817.32 66.3376 1821.98 66.3376 L1829.63 66.3376 L1829.63 72.576 L1821.98 72.576 Q1813.35 72.576 1810.07 69.3758 Q1806.79 66.1351 1806.79 57.6282 L1806.79 32.9987 L1801.32 32.9987 L1801.32 27.2059 L1806.79 27.2059 L1806.79 14.324 L1814.28 14.324 Z" fill="#000000" fill-rule="nonzero" fill-opacity="1" /><path clip-path="url(#clip380)" d="M1878.24 48.0275 L1878.24 51.6733 L1843.97 51.6733 Q1844.46 59.3701 1848.59 63.421 Q1852.76 67.4314 1860.18 67.4314 Q1864.47 67.4314 1868.48 66.3781 Q1872.53 65.3249 1876.5 63.2184 L1876.5 70.267 Q1872.49 71.9684 1868.28 72.8596 Q1864.07 73.7508 1859.73 73.7508 Q1848.87 73.7508 1842.51 67.4314 Q1836.2 61.1119 1836.2 50.3365 Q1836.2 39.1965 1842.19 32.6746 Q1848.23 26.1121 1858.43 26.1121 Q1867.59 26.1121 1872.9 32.0264 Q1878.24 37.9003 1878.24 48.0275 M1870.79 45.84 Q1870.71 39.7232 1867.35 36.0774 Q1864.03 32.4315 1858.52 32.4315 Q1852.28 32.4315 1848.51 35.9558 Q1844.78 39.4801 1844.22 45.8805 L1870.79 45.84 Z" fill="#000000" fill-rule="nonzero" fill-opacity="1" /><path clip-path="url(#clip380)" d="M1916.77 34.1734 Q1915.51 33.4443 1914.01 33.1202 Q1912.55 32.7556 1910.77 32.7556 Q1904.45 32.7556 1901.05 36.8875 Q1897.69 40.9789 1897.69 48.6757 L1897.69 72.576 L1890.19 72.576 L1890.19 27.2059 L1897.69 27.2059 L1897.69 34.2544 Q1900.04 30.1225 1903.8 28.1376 Q1907.57 26.1121 1912.96 26.1121 Q1913.73 26.1121 1914.66 26.2337 Q1915.59 26.3147 1916.73 26.5172 L1916.77 34.1734 Z" fill="#000000" fill-rule="nonzero" fill-opacity="1" /><path clip-path="url(#clip380)" d="M1945.21 49.7694 Q1936.17 49.7694 1932.69 51.8354 Q1929.2 53.9013 1929.2 58.8839 Q1929.2 62.8538 1931.8 65.2034 Q1934.43 67.5124 1938.93 67.5124 Q1945.12 67.5124 1948.85 63.1374 Q1952.62 58.7219 1952.62 51.4303 L1952.62 49.7694 L1945.21 49.7694 M1960.07 46.6907 L1960.07 72.576 L1952.62 72.576 L1952.62 65.6895 Q1950.07 69.8214 1946.26 71.8063 Q1942.45 73.7508 1936.94 73.7508 Q1929.97 73.7508 1925.84 69.8619 Q1921.75 65.9325 1921.75 59.3701 Q1921.75 51.7138 1926.85 47.825 Q1932 43.9361 1942.17 43.9361 L1952.62 43.9361 L1952.62 43.2069 Q1952.62 38.0623 1949.22 35.2672 Q1945.85 32.4315 1939.74 32.4315 Q1935.85 32.4315 1932.16 33.3632 Q1928.47 34.295 1925.07 36.1584 L1925.07 29.2718 Q1929.16 27.692 1933.01 26.9223 Q1936.86 26.1121 1940.51 26.1121 Q1950.35 26.1121 1955.21 31.2163 Q1960.07 36.3204 1960.07 46.6907 Z" fill="#000000" fill-rule="nonzero" fill-opacity="1" /><path clip-path="url(#clip380)" d="M1982.8 14.324 L1982.8 27.2059 L1998.15 27.2059 L1998.15 32.9987 L1982.8 32.9987 L1982.8 57.6282 Q1982.8 63.1779 1984.3 64.7578 Q1985.84 66.3376 1990.49 66.3376 L1998.15 66.3376 L1998.15 72.576 L1990.49 72.576 Q1981.87 72.576 1978.58 69.3758 Q1975.3 66.1351 1975.3 57.6282 L1975.3 32.9987 L1969.83 32.9987 L1969.83 27.2059 L1975.3 27.2059 L1975.3 14.324 L1982.8 14.324 Z" fill="#000000" fill-rule="nonzero" fill-opacity="1" /><path clip-path="url(#clip380)" d="M2007.95 27.2059 L2015.41 27.2059 L2015.41 72.576 L2007.95 72.576 L2007.95 27.2059 M2007.95 9.54393 L2015.41 9.54393 L2015.41 18.9825 L2007.95 18.9825 L2007.95 9.54393 Z" fill="#000000" fill-rule="nonzero" fill-opacity="1" /><path clip-path="url(#clip380)" d="M2048.58 32.4315 Q2042.59 32.4315 2039.11 37.1306 Q2035.62 41.7891 2035.62 49.9314 Q2035.62 58.0738 2039.06 62.7728 Q2042.55 67.4314 2048.58 67.4314 Q2054.54 67.4314 2058.02 62.7323 Q2061.51 58.0333 2061.51 49.9314 Q2061.51 41.8701 2058.02 37.1711 Q2054.54 32.4315 2048.58 32.4315 M2048.58 26.1121 Q2058.31 26.1121 2063.86 32.4315 Q2069.41 38.7509 2069.41 49.9314 Q2069.41 61.0714 2063.86 67.4314 Q2058.31 73.7508 2048.58 73.7508 Q2038.82 73.7508 2033.27 67.4314 Q2027.76 61.0714 2027.76 49.9314 Q2027.76 38.7509 2033.27 32.4315 Q2038.82 26.1121 2048.58 26.1121 Z" fill="#000000" fill-rule="nonzero" fill-opacity="1" /><path clip-path="url(#clip380)" d="M2119.48 45.1919 L2119.48 72.576 L2112.02 72.576 L2112.02 45.4349 Q2112.02 38.994 2109.51 35.7938 Q2107 32.5936 2101.98 32.5936 Q2095.94 32.5936 2092.46 36.4419 Q2088.97 40.2903 2088.97 46.9338 L2088.97 72.576 L2081.48 72.576 L2081.48 27.2059 L2088.97 27.2059 L2088.97 34.2544 Q2091.65 30.163 2095.25 28.1376 Q2098.9 26.1121 2103.64 26.1121 Q2111.45 26.1121 2115.46 30.9732 Q2119.48 35.7938 2119.48 45.1919 Z" fill="#000000" fill-rule="nonzero" fill-opacity="1" /><path clip-path="url(#clip380)" d="M2168.82 65.6895 L2197.37 65.6895 L2197.37 72.576 L2158.97 72.576 L2158.97 65.6895 Q2163.63 60.8689 2171.65 52.7671 Q2179.71 44.6248 2181.78 42.2752 Q2185.71 37.8598 2187.25 34.8216 Q2188.83 31.7429 2188.83 28.7857 Q2188.83 23.9651 2185.42 20.927 Q2182.06 17.8888 2176.63 17.8888 Q2172.78 17.8888 2168.49 19.2256 Q2164.24 20.5624 2159.38 23.2765 L2159.38 15.0127 Q2164.32 13.0277 2168.61 12.015 Q2172.91 11.0023 2176.47 11.0023 Q2185.87 11.0023 2191.46 15.7013 Q2197.05 20.4004 2197.05 28.2591 Q2197.05 31.9859 2195.63 35.3482 Q2194.25 38.6699 2190.57 43.2069 Q2189.56 44.3817 2184.13 50.0125 Q2178.7 55.6027 2168.82 65.6895 Z" fill="#000000" fill-rule="nonzero" fill-opacity="1" /><path clip-path="url(#clip380)" d="M2232.05 17.4837 Q2225.73 17.4837 2222.53 23.7221 Q2219.37 29.92 2219.37 42.3968 Q2219.37 54.833 2222.53 61.0714 Q2225.73 67.2693 2232.05 67.2693 Q2238.41 67.2693 2241.57 61.0714 Q2244.77 54.833 2244.77 42.3968 Q2244.77 29.92 2241.57 23.7221 Q2238.41 17.4837 2232.05 17.4837 M2232.05 11.0023 Q2242.22 11.0023 2247.56 19.0636 Q2252.95 27.0843 2252.95 42.3968 Q2252.95 57.6687 2247.56 65.73 Q2242.22 73.7508 2232.05 73.7508 Q2221.88 73.7508 2216.49 65.73 Q2211.15 57.6687 2211.15 42.3968 Q2211.15 27.0843 2216.49 19.0636 Q2221.88 11.0023 2232.05 11.0023 Z" fill="#000000" fill-rule="nonzero" fill-opacity="1" /><polyline clip-path="url(#clip382)" style="stroke:#009af9; stroke-linecap:round; stroke-linejoin:round; stroke-width:4; stroke-opacity:1; fill:none" points="316.984,1386.4 318.963,1384.27 320.941,1380.83 322.92,1379.86 324.898,1378.31 326.877,1377.93 328.855,1371.17 330.834,1363.47 332.812,1361.59 334.791,1329.92 336.769,1329.18 338.747,1327.41 340.726,1326.5 342.704,1325.42 344.683,1319.25 346.661,1319.2 348.64,1315.53 350.618,1315.15 352.597,1315.12 354.575,1315.01 356.554,1314.75 358.532,1314.43 360.51,1314.32 362.489,1313.55 364.467,1313.54 366.446,1313.28 368.424,1313.17 370.403,1312.98 372.381,1312.87 374.36,1311.81 376.338,1311.4 378.317,1311.4 380.295,1311.27 382.273,1311.22 384.252,1311.05 386.23,1311.04 388.209,1310.95 390.187,1310.79 392.166,1310.75 394.144,1310.73 396.123,1310.69 398.101,1310.38 400.08,1310.21 402.058,1310.09 404.036,1309.94 406.015,1309.9 407.993,1309.87 409.972,1309.87 411.95,1309.62 413.929,1309.42 415.907,1309.4 417.886,1309.05 419.864,1308.97 421.843,1308.94 423.821,1308.9 425.8,1308.63 427.778,1308.48 429.756,1308.39 431.735,1307.71 433.713,1307.67 435.692,1307.45 437.67,1307.38 439.649,1307.37 441.627,1307.36 443.606,1307.31 445.584,1307.12 447.563,1307.1 449.541,1306.96 451.519,1306.87 453.498,1306.73 455.476,1306.56 457.455,1306.52 459.433,1306.41 461.412,1306.31 463.39,1306.25 465.369,1306.22 467.347,1306.11 469.326,1306.08 471.304,1306.04 473.282,1305.94 475.261,1305.81 477.239,1305.73 479.218,1305.56 481.196,1305.52 483.175,1305.37 485.153,1305.34 487.132,1305.25 489.11,1305.17 491.089,1305.15 493.067,1305.14 495.045,1304.99 497.024,1304.96 499.002,1304.95 500.981,1304.64 502.959,1304.56 504.938,1304.22 506.916,1304.16 508.895,1304.03 510.873,1303.85 512.852,1303.72 514.83,1303.71 516.808,1303.61 518.787,1303.38 520.765,1303.06 522.744,1302.84 524.722,1302.63 526.701,1302.45 528.679,1302.08 530.658,1302.01 532.636,1301.96 534.615,1301.91 536.593,1301.8 538.571,1301.69 540.55,1301.6 542.528,1301.36 544.507,1301.19 546.485,1301.18 548.464,1300.77 550.442,1300.73 552.421,1300.66 554.399,1300.64 556.378,1300.63 558.356,1300.54 560.334,1300.45 562.313,1300.3 564.291,1300.21 566.27,1300.11 568.248,1299.97 570.227,1299.87 572.205,1299.69 574.184,1299.19 576.162,1298.91 578.141,1298.9 580.119,1298.84 582.098,1298.36 584.076,1298.13 586.054,1298.13 588.033,1298.07 590.011,1298.05 591.99,1297.86 593.968,1297.79 595.947,1297.74 597.925,1297.64 599.904,1297.61 601.882,1297.54 603.861,1297.41 605.839,1297.36 607.817,1297.33 609.796,1297.24 611.774,1297.06 613.753,1296.98 615.731,1296.93 617.71,1296.86 619.688,1296.85 621.667,1296.81 623.645,1296.8 625.624,1296.67 627.602,1296.66 629.58,1296.65 631.559,1296.63 633.537,1296.53 635.516,1296.48 637.494,1296.47 639.473,1296.46 641.451,1296.41 643.43,1296.41 645.408,1296.4 647.387,1296.4 649.365,1296.39 651.343,1296.37 653.322,1296.35 655.3,1296.33 657.279,1296.33 659.257,1296.32 661.236,1296.32 663.214,1296.31 665.193,1296.29 667.171,1296.28 669.15,1296.26 671.128,1296.25 673.106,1296.25 675.085,1296.24 677.063,1296.23 679.042,1296.23 681.02,1296.23 682.999,1296.22 684.977,1296.2 686.956,1296.2 688.934,1296.18 690.913,1296.17 692.891,1296.16 694.869,1296.16 696.848,1296.13 698.826,1296.1 700.805,1296.1 702.783,1296.1 704.762,1296.09 706.74,1296.08 708.719,1296.03 710.697,1296.01 712.676,1295.98 714.654,1295.88 716.632,1295.82 718.611,1295.81 720.589,1295.81 722.568,1295.79 724.546,1295.75 726.525,1295.74 728.503,1295.73 730.482,1295.63 732.46,1295.58 734.439,1295.56 736.417,1295.51 738.395,1295.45 740.374,1294.97 742.352,1294.89 744.331,1294.88 746.309,1294.84 748.288,1294.67 750.266,1294.55 752.245,1294.52 754.223,1294.44 756.202,1294.28 758.18,1294.04 760.159,1293.78 762.137,1293.62 764.115,1293.58 766.094,1293.56 768.072,1293.36 770.051,1293.28 772.029,1293.14 774.008,1292 775.986,1291.39 777.965,1290.68 779.943,1290.24 781.922,1289.9 783.9,1289.88 785.878,1287.78 787.857,1287.26 789.835,1286.16 791.814,1283.19 793.792,1279.79 795.771,1278.88 797.749,1273.88 799.728,1269.72 801.706,1265.83 803.685,1261.46 805.663,1253.26 807.641,1251.51 809.62,1248.94 811.598,1087.89 813.577,774.089 815.555,774.089 817.534,773.981 819.512,773.943 821.491,773.916 823.469,773.858 825.448,773.844 827.426,773.83 829.404,773.822 831.383,773.804 833.361,773.776 835.34,773.766 837.318,773.757 839.297,773.753 841.275,773.747 843.254,773.737 845.232,773.734 847.211,773.72 849.189,773.709 851.167,773.709 853.146,773.703 855.124,773.701 857.103,773.7 859.081,773.698 861.06,773.695 863.038,773.69 865.017,773.683 866.995,773.68 868.974,773.674 870.952,773.673 872.93,773.663 874.909,773.66 876.887,773.66 878.866,773.652 880.844,773.649 882.823,773.648 884.801,773.647 886.78,773.642 888.758,773.64 890.737,773.639 892.715,773.634 894.693,773.632 896.672,773.627 898.65,773.624 900.629,773.623 902.607,773.622 904.586,773.621 906.564,773.619 908.543,773.619 910.521,773.618 912.5,773.618 914.478,773.615 916.456,773.615 918.435,773.614 920.413,773.613 922.392,773.613 924.37,773.613 926.349,773.611 928.327,773.61 930.306,773.609 932.284,773.608 934.263,773.608 936.241,773.607 938.22,773.605 940.198,773.604 942.176,773.604 944.155,773.604 946.133,773.602 948.112,773.601 950.09,773.601 952.069,773.601 954.047,773.6 956.026,773.599 958.004,773.599 959.983,773.598 961.961,773.595 963.939,773.595 965.918,773.592 967.896,773.591 969.875,773.59 971.853,773.59 973.832,773.589 975.81,773.588 977.789,773.587 979.767,773.583 981.746,773.583 983.724,773.583 985.702,773.583 987.681,773.582 989.659,773.58 991.638,773.579 993.616,773.578 995.595,773.578 997.573,773.573 999.552,773.573 1001.53,773.572 1003.51,773.571 1005.49,773.571 1007.47,773.57 1009.44,773.57 1011.42,773.568 1013.4,773.567 1015.38,773.567 1017.36,773.566 1019.34,773.564 1021.31,773.564 1023.29,773.563 1025.27,773.562 1027.25,773.562 1029.23,773.561 1031.21,773.561 1033.19,773.559 1035.16,773.559 1037.14,773.559 1039.12,773.559 1041.1,773.555 1043.08,773.554 1045.06,773.553 1047.03,773.552 1049.01,773.55 1050.99,773.548 1052.97,773.548 1054.95,773.547 1056.93,773.546 1058.91,773.546 1060.88,773.544 1062.86,773.541 1064.84,773.538 1066.82,773.534 1068.8,773.534 1070.78,773.533 1072.75,773.532 1074.73,773.531 1076.71,773.529 1078.69,773.526 1080.67,773.518 1082.65,773.512 1084.63,773.497 1086.6,773.496 1088.58,773.493 1090.56,773.491 1092.54,773.486 1094.52,773.486 1096.5,773.482 1098.47,773.477 1100.45,773.476 1102.43,773.467 1104.41,773.462 1106.39,773.458 1108.37,773.454 1110.35,773.447 1112.32,773.445 1114.3,773.427 1116.28,773.422 1118.26,773.418 1120.24,773.406 1122.22,773.395 1124.19,773.37 1126.17,773.343 1128.15,773.343 1130.13,773.322 1132.11,773.312 1134.09,773.304 1136.07,773.271 1138.04,773.265 1140.02,773.21 1142,773.194 1143.98,773.189 1145.96,773.165 1147.94,773.164 1149.91,773.135 1151.89,773.114 1153.87,773.085 1155.85,773.061 1157.83,773.056 1159.81,773.051 1161.78,773.046 1163.76,773.041 1165.74,773.032 1167.72,772.994 1169.7,772.891 1171.68,772.882 1173.66,772.854 1175.63,772.849 1177.61,772.835 1179.59,772.777 1181.57,772.772 1183.55,772.662 1185.53,772.582 1187.5,772.419 1189.48,772.394 1191.46,772.377 1193.44,772.35 1195.42,772.239 1197.4,772.02 1199.38,771.993 1201.35,771.988 1203.33,771.863 1205.31,771.724 1207.29,771.678 1209.27,771.579 1211.25,771.464 1213.22,771.253 1215.2,771.133 1217.18,770.876 1219.16,770.833 1221.14,770.763 1223.12,770.718 1225.1,770.427 1227.07,769.968 1229.05,769.235 1231.03,768.947 1233.01,768.759 1234.99,768.691 1236.97,768.683 1238.94,768.519 1240.92,768.297 1242.9,768.221 1244.88,767.633 1246.86,765.164 1248.84,764.292 1250.82,762.542 1252.79,762.251 1254.77,758.363 1256.75,758.036 1258.73,757.969 1260.71,755.695 1262.69,755.23 1264.66,754.78 1266.64,754.651 1268.62,754.177 1270.6,754.108 1272.58,754.082 1274.56,754.074 1276.54,754.074 1278.51,754.073 1280.49,754.073 1282.47,754.073 1284.45,754.072 1286.43,754.071 1288.41,754.071 1290.38,754.071 1292.36,754.069 1294.34,754.068 1296.32,754.066 1298.3,754.065 1300.28,754.064 1302.26,754.063 1304.23,754.063 1306.21,754.063 1308.19,754.062 1310.17,754.062 1312.15,754.061 1314.13,754.057 1316.1,754.056 1318.08,754.056 1320.06,754.056 1322.04,754.056 1324.02,754.055 1326,754.055 1327.98,754.053 1329.95,754.053 1331.93,754.053 1333.91,754.053 1335.89,754.052 1337.87,754.051 1339.85,754.05 1341.82,754.05 1343.8,754.049 1345.78,754.048 1347.76,754.047 1349.74,754.047 1351.72,754.047 1353.7,754.047 1355.67,754.047 1357.65,754.046 1359.63,754.046 1361.61,754.046 1363.59,754.046 1365.57,754.045 1367.54,754.044 1369.52,754.042 1371.5,754.041 1373.48,754.039 1375.46,754.038 1377.44,754.038 1379.42,754.037 1381.39,754.037 1383.37,754.037 1385.35,754.034 1387.33,754.034 1389.31,754.034 1391.29,754.026 1393.26,754.02 1395.24,754.02 1397.22,754.019 1399.2,754.019 1401.18,754.016 1403.16,754.015 1405.14,754.015 1407.11,754.014 1409.09,754.014 1411.07,754.01 1413.05,754.008 1415.03,754.008 1417.01,754.007 1418.98,754.007 1420.96,754.005 1422.94,754.005 1424.92,754.005 1426.9,754.005 1428.88,754.004 1430.85,754.004 1432.83,754.003 1434.81,754.001 1436.79,754 1438.77,754 1440.75,754 1442.73,753.999 1444.7,753.997 1446.68,753.997 1448.66,753.996 1450.64,753.995 1452.62,753.994 1454.6,753.993 1456.57,753.991 1458.55,753.991 1460.53,753.99 1462.51,753.99 1464.49,753.988 1466.47,753.987 1468.45,753.986 1470.42,753.986 1472.4,753.985 1474.38,753.985 1476.36,753.984 1478.34,753.984 1480.32,753.981 1482.29,753.98 1484.27,753.979 1486.25,753.978 1488.23,753.978 1490.21,753.978 1492.19,753.977 1494.17,753.977 1496.14,753.977 1498.12,753.977 1500.1,753.976 1502.08,753.976 1504.06,753.975 1506.04,753.974 1508.01,753.973 1509.99,753.973 1511.97,753.971 1513.95,753.97 1515.93,753.97 1517.91,753.969 1519.89,753.967 1521.86,753.966 1523.84,753.964 1525.82,753.964 1527.8,753.964 1529.78,753.964 1531.76,753.963 1533.73,753.963 1535.71,753.963 1537.69,753.962 1539.67,753.962 1541.65,753.961 1543.63,753.961 1545.61,753.961 1547.58,753.961 1549.56,753.961 1551.54,753.96 1553.52,753.96 1555.5,753.96 1557.48,753.96 1559.45,753.96 1561.43,753.958 1563.41,753.958 1565.39,753.958 1567.37,753.958 1569.35,753.958 1571.33,753.957 1573.3,753.957 1575.28,753.957 1577.26,753.957 1579.24,753.957 1581.22,753.957 1583.2,753.956 1585.17,753.956 1587.15,753.956 1589.13,753.956 1591.11,753.956 1593.09,753.956 1595.07,753.956 1597.05,753.955 1599.02,753.955 1601,753.955 1602.98,753.955 1604.96,753.955 1606.94,753.955 1608.92,753.955 1610.89,753.955 1612.87,753.955 1614.85,753.955 1616.83,753.955 1618.81,753.955 1620.79,753.955 1622.77,753.954 1624.74,753.954 1626.72,753.954 1628.7,753.954 1630.68,753.954 1632.66,753.954 1634.64,753.954 1636.61,753.954 1638.59,753.954 1640.57,753.954 1642.55,753.954 1644.53,753.953 1646.51,753.953 1648.49,753.953 1650.46,753.953 1652.44,753.953 1654.42,753.953 1656.4,753.952 1658.38,753.951 1660.36,753.951 1662.33,753.95 1664.31,753.948 1666.29,753.947 1668.27,753.947 1670.25,753.945 1672.23,753.945 1674.2,753.945 1676.18,753.944 1678.16,753.94 1680.14,753.938 1682.12,753.937 1684.1,753.933 1686.08,753.931 1688.05,753.926 1690.03,753.92 1692.01,753.918 1693.99,753.917 1695.97,753.913 1697.95,753.908 1699.92,753.905 1701.9,753.904 1703.88,753.9 1705.86,753.889 1707.84,753.886 1709.82,753.884 1711.8,753.878 1713.77,753.866 1715.75,753.851 1717.73,753.845 1719.71,753.843 1721.69,753.842 1723.67,753.84 1725.64,753.839 1727.62,753.837 1729.6,753.829 1731.58,753.822 1733.56,753.82 1735.54,753.812 1737.52,753.81 1739.49,753.805 1741.47,753.797 1743.45,753.789 1745.43,753.789 1747.41,753.786 1749.39,753.784 1751.36,753.772 1753.34,753.756 1755.32,753.562 1757.3,753.526 1759.28,752.911 1761.26,752.779 1763.24,751.741 1765.21,751.31 1767.19,750.601 1769.17,749.592 1771.15,747.226 1773.13,744.813 1775.11,743.802 1777.08,740.808 1779.06,740.804 1781.04,737.496 1783.02,737.269 1785,732.72 1786.98,732.37 1788.96,731.6 1790.93,723.532 1792.91,718.183 1794.89,710.824 1796.87,707.726 1798.85,689.167 1800.83,211.567 1802.8,211.288 1804.78,206.053 1806.76,205.636 1808.74,205.253 1810.72,204.96 1812.7,204.524 1814.68,204.387 1816.65,203.637 1818.63,203.527 1820.61,203.323 1822.59,203.237 1824.57,202.505 1826.55,202.39 1828.52,202.147 1830.5,202.11 1832.48,201.607 1834.46,201.398 1836.44,201.391 1838.42,201.025 1840.4,200.752 1842.37,200.636 1844.35,200.309 1846.33,199.938 1848.31,199.814 1850.29,199.482 1852.27,198.991 1854.24,198.817 1856.22,198.563 1858.2,197.804 1860.18,197.75 1862.16,197.58 1864.14,197.555 1866.12,197.202 1868.09,197.149 1870.07,197.075 1872.05,196.8 1874.03,196.183 1876.01,196.025 1877.99,195.589 1879.96,195.399 1881.94,194.959 1883.92,194.564 1885.9,194.31 1887.88,194.167 1889.86,193.873 1891.84,193.84 1893.81,193.013 1895.79,192.72 1897.77,192.381 1899.75,192.256 1901.73,192.243 1903.71,192.159 1905.68,192.135 1907.66,192.002 1909.64,191.531 1911.62,190.914 1913.6,190.793 1915.58,190.418 1917.56,190.354 1919.53,189.773 1921.51,189.438 1923.49,189.368 1925.47,189.056 1927.45,188.67 1929.43,188.56 1931.4,188.466 1933.38,188.174 1935.36,187.913 1937.34,187.672 1939.32,187.47 1941.3,187.271 1943.27,187.262 1945.25,186.822 1947.23,186.806 1949.21,186.752 1951.19,185.94 1953.17,185.746 1955.15,185.624 1957.12,185.551 1959.1,185.485 1961.08,184.837 1963.06,184.787 1965.04,184.67 1967.02,184.521 1968.99,184.486 1970.97,184.24 1972.95,183.943 1974.93,183.809 1976.91,183.781 1978.89,183.645 1980.87,183.38 1982.84,183.366 1984.82,182.984 1986.8,182.575 1988.78,182.452 1990.76,182.326 1992.74,182.025 1994.71,181.981 1996.69,181.896 1998.67,181.836 2000.65,181.713 2002.63,181.356 2004.61,180.912 2006.59,180.893 2008.56,180.739 2010.54,180.576 2012.52,180.516 2014.5,180.298 2016.48,180.262 2018.46,179.995 2020.43,179.945 2022.41,179.932 2024.39,179.44 2026.37,179.419 2028.35,178.878 2030.33,178.625 2032.31,178.622 2034.28,178.503 2036.26,178.233 2038.24,178.222 2040.22,178.112 2042.2,178.098 2044.18,177.953 2046.15,177.382 2048.13,177.301 2050.11,177.216 2052.09,176.65 2054.07,176.647 2056.05,176.333 2058.03,176.254 2060,176.199 2061.98,176.001 2063.96,175.95 2065.94,175.924 2067.92,175.667 2069.9,175.656 2071.87,175.273 2073.85,175.263 2075.83,175.244 2077.81,175.209 2079.79,175.092 2081.77,175.079 2083.75,175.048 2085.72,174.947 2087.7,174.856 2089.68,174.854 2091.66,174.788 2093.64,174.704 2095.62,174.687 2097.59,174.596 2099.57,174.594 2101.55,174.591 2103.53,174.571 2105.51,174.541 2107.49,174.516 2109.47,174.468 2111.44,174.454 2113.42,174.452 2115.4,174.416 2117.38,174.403 2119.36,174.361 2121.34,174.272 2123.31,174.22 2125.29,174.136 2127.27,174.13 2129.25,174.103 2131.23,174.092 2133.21,174.063 2135.19,174.042 2137.16,173.94 2139.14,173.829 2141.12,173.611 2143.1,173.592 2145.08,173.533 2147.06,173.439 2149.03,173.386 2151.01,173.341 2152.99,173.071 2154.97,173.066 2156.95,173.01 2158.93,172.94 2160.91,172.826 2162.88,172.807 2164.86,172.758 2166.84,172.757 2168.82,172.693 2170.8,172.622 2172.78,172.606 2174.75,172.604 2176.73,172.496 2178.71,172.397 2180.69,172.374 2182.67,172.353 2184.65,172.343 2186.62,172.3 2188.6,172.267 2190.58,172.206 2192.56,172.204 2194.54,172.166 2196.52,172.097 2198.5,171.959 2200.47,171.692 2202.45,171.657 2204.43,171.615 2206.41,171.505 2208.39,171.454 2210.37,170.908 2212.34,170.903 2214.32,170.761 2216.3,170.651 2218.28,170.583 2220.26,170.508 2222.24,170.499 2224.22,170.366 2226.19,170.239 2228.17,170.221 2230.15,170.134 2232.13,169.906 2234.11,169.796 2236.09,169.751 2238.06,169.612 2240.04,169.546 2242.02,169.446 2244,169.373 2245.98,169.311 2247.96,169.209 2249.94,169.206 2251.91,169.041 2253.89,169.008 2255.87,168.76 2257.85,168.656 2259.83,168.442 2261.81,168.31 2263.78,168.175 2265.76,167.759 2267.74,167.694 2269.72,167.201 2271.7,166.895 2273.68,166.724 2275.66,166.203 2277.63,165.715 2279.61,165.703 2281.59,165.431 2283.57,165.292 2285.55,164.701 2287.53,164.661 2289.5,162.335 2291.48,162.079 2293.46,160.256 "/>
<path clip-path="url(#clip380)" d="M327.526 270.476 L756.638 270.476 L756.638 166.796 L327.526 166.796  Z" fill="#ffffff" fill-rule="evenodd" fill-opacity="1"/>
<polyline clip-path="url(#clip380)" style="stroke:#000000; stroke-linecap:round; stroke-linejoin:round; stroke-width:4; stroke-opacity:1; fill:none" points="327.526,270.476 756.638,270.476 756.638,166.796 327.526,166.796 327.526,270.476 "/>
<polyline clip-path="url(#clip380)" style="stroke:#009af9; stroke-linecap:round; stroke-linejoin:round; stroke-width:4; stroke-opacity:1; fill:none" points="350.804,218.636 490.475,218.636 "/>
<path clip-path="url(#clip380)" d="M535.999 202.49 L535.999 207.05 Q533.337 205.777 530.976 205.152 Q528.615 204.527 526.416 204.527 Q522.596 204.527 520.513 206.008 Q518.453 207.49 518.453 210.221 Q518.453 212.513 519.819 213.694 Q521.207 214.851 525.05 215.569 L527.874 216.147 Q533.105 217.143 535.582 219.666 Q538.082 222.166 538.082 226.379 Q538.082 231.402 534.703 233.994 Q531.346 236.587 524.842 236.587 Q522.388 236.587 519.61 236.031 Q516.856 235.476 513.893 234.388 L513.893 229.573 Q516.74 231.17 519.471 231.981 Q522.203 232.791 524.842 232.791 Q528.846 232.791 531.022 231.217 Q533.198 229.643 533.198 226.726 Q533.198 224.18 531.624 222.744 Q530.073 221.309 526.508 220.592 L523.661 220.036 Q518.43 218.995 516.092 216.772 Q513.754 214.55 513.754 210.592 Q513.754 206.008 516.971 203.37 Q520.212 200.731 525.883 200.731 Q528.314 200.731 530.837 201.171 Q533.36 201.61 535.999 202.49 Z" fill="#000000" fill-rule="nonzero" fill-opacity="1" /><path clip-path="url(#clip380)" d="M545.189 209.99 L549.448 209.99 L549.448 235.916 L545.189 235.916 L545.189 209.99 M545.189 199.897 L549.448 199.897 L549.448 205.291 L545.189 205.291 L545.189 199.897 Z" fill="#000000" fill-rule="nonzero" fill-opacity="1" /><path clip-path="url(#clip380)" d="M578.545 214.967 Q580.142 212.096 582.364 210.731 Q584.587 209.365 587.596 209.365 Q591.647 209.365 593.846 212.212 Q596.045 215.036 596.045 220.268 L596.045 235.916 L591.763 235.916 L591.763 220.407 Q591.763 216.68 590.443 214.874 Q589.124 213.069 586.415 213.069 Q583.105 213.069 581.184 215.268 Q579.263 217.467 579.263 221.263 L579.263 235.916 L574.98 235.916 L574.98 220.407 Q574.98 216.657 573.661 214.874 Q572.341 213.069 569.587 213.069 Q566.323 213.069 564.402 215.291 Q562.48 217.49 562.48 221.263 L562.48 235.916 L558.198 235.916 L558.198 209.99 L562.48 209.99 L562.48 214.018 Q563.939 211.633 565.976 210.499 Q568.013 209.365 570.814 209.365 Q573.638 209.365 575.605 210.8 Q577.596 212.235 578.545 214.967 Z" fill="#000000" fill-rule="nonzero" fill-opacity="1" /><path clip-path="url(#clip380)" d="M604.54 209.99 L608.8 209.99 L608.8 235.916 L604.54 235.916 L604.54 209.99 M604.54 199.897 L608.8 199.897 L608.8 205.291 L604.54 205.291 L604.54 199.897 Z" fill="#000000" fill-rule="nonzero" fill-opacity="1" /><path clip-path="url(#clip380)" d="M617.712 199.897 L621.971 199.897 L621.971 235.916 L617.712 235.916 L617.712 199.897 Z" fill="#000000" fill-rule="nonzero" fill-opacity="1" /><path clip-path="url(#clip380)" d="M642.665 222.883 Q637.503 222.883 635.512 224.064 Q633.522 225.244 633.522 228.092 Q633.522 230.36 635.003 231.703 Q636.508 233.022 639.077 233.022 Q642.619 233.022 644.748 230.522 Q646.901 227.999 646.901 223.832 L646.901 222.883 L642.665 222.883 M651.16 221.124 L651.16 235.916 L646.901 235.916 L646.901 231.981 Q645.443 234.342 643.267 235.476 Q641.091 236.587 637.943 236.587 Q633.961 236.587 631.6 234.365 Q629.262 232.119 629.262 228.369 Q629.262 223.994 632.179 221.772 Q635.119 219.55 640.929 219.55 L646.901 219.55 L646.901 219.133 Q646.901 216.194 644.957 214.596 Q643.035 212.976 639.54 212.976 Q637.318 212.976 635.211 213.508 Q633.105 214.041 631.161 215.106 L631.161 211.17 Q633.498 210.268 635.698 209.828 Q637.897 209.365 639.98 209.365 Q645.605 209.365 648.383 212.282 Q651.16 215.198 651.16 221.124 Z" fill="#000000" fill-rule="nonzero" fill-opacity="1" /><path clip-path="url(#clip380)" d="M674.957 213.971 Q674.239 213.555 673.383 213.37 Q672.549 213.161 671.531 213.161 Q667.92 213.161 665.975 215.522 Q664.054 217.86 664.054 222.258 L664.054 235.916 L659.771 235.916 L659.771 209.99 L664.054 209.99 L664.054 214.018 Q665.396 211.657 667.549 210.522 Q669.702 209.365 672.781 209.365 Q673.22 209.365 673.753 209.434 Q674.285 209.481 674.933 209.596 L674.957 213.971 Z" fill="#000000" fill-rule="nonzero" fill-opacity="1" /><path clip-path="url(#clip380)" d="M679.424 209.99 L683.683 209.99 L683.683 235.916 L679.424 235.916 L679.424 209.99 M679.424 199.897 L683.683 199.897 L683.683 205.291 L679.424 205.291 L679.424 199.897 Z" fill="#000000" fill-rule="nonzero" fill-opacity="1" /><path clip-path="url(#clip380)" d="M696.808 202.629 L696.808 209.99 L705.581 209.99 L705.581 213.3 L696.808 213.3 L696.808 227.374 Q696.808 230.545 697.665 231.448 Q698.544 232.351 701.206 232.351 L705.581 232.351 L705.581 235.916 L701.206 235.916 Q696.276 235.916 694.401 234.087 Q692.526 232.235 692.526 227.374 L692.526 213.3 L689.401 213.3 L689.401 209.99 L692.526 209.99 L692.526 202.629 L696.808 202.629 Z" fill="#000000" fill-rule="nonzero" fill-opacity="1" /><path clip-path="url(#clip380)" d="M721.97 238.323 Q720.165 242.953 718.452 244.365 Q716.739 245.777 713.868 245.777 L710.466 245.777 L710.466 242.212 L712.966 242.212 Q714.725 242.212 715.697 241.379 Q716.669 240.545 717.85 237.443 L718.614 235.499 L708.128 209.99 L712.642 209.99 L720.743 230.268 L728.845 209.99 L733.359 209.99 L721.97 238.323 Z" fill="#000000" fill-rule="nonzero" fill-opacity="1" /></svg>
