<?xml version="1.0" encoding="utf-8"?>
<svg xmlns="http://www.w3.org/2000/svg" xmlns:xlink="http://www.w3.org/1999/xlink" width="600" height="400" viewBox="0 0 2400 1600">
<defs>
  <clipPath id="clip730">
    <rect x="0" y="0" width="2400" height="1600"/>
  </clipPath>
</defs>
<path clip-path="url(#clip730)" d="M0 1600 L2400 1600 L2400 8.88178e-14 L0 8.88178e-14  Z" fill="#ffffff" fill-rule="evenodd" fill-opacity="1"/>
<defs>
  <clipPath id="clip731">
    <rect x="480" y="0" width="1681" height="1600"/>
  </clipPath>
</defs>
<path clip-path="url(#clip730)" d="M287.366 1423.18 L2352.76 1423.18 L2352.76 123.472 L287.366 123.472  Z" fill="#ffffff" fill-rule="evenodd" fill-opacity="1"/>
<defs>
  <clipPath id="clip732">
    <rect x="287" y="123" width="2066" height="1301"/>
  </clipPath>
</defs>
<polyline clip-path="url(#clip732)" style="stroke:#000000; stroke-linecap:round; stroke-linejoin:round; stroke-width:2; stroke-opacity:0.1; fill:none" points="343.87,1423.18 343.87,123.472 "/>
<polyline clip-path="url(#clip732)" style="stroke:#000000; stroke-linecap:round; stroke-linejoin:round; stroke-width:2; stroke-opacity:0.1; fill:none" points="831.478,1423.18 831.478,123.472 "/>
<polyline clip-path="url(#clip732)" style="stroke:#000000; stroke-linecap:round; stroke-linejoin:round; stroke-width:2; stroke-opacity:0.1; fill:none" points="1319.09,1423.18 1319.09,123.472 "/>
<polyline clip-path="url(#clip732)" style="stroke:#000000; stroke-linecap:round; stroke-linejoin:round; stroke-width:2; stroke-opacity:0.1; fill:none" points="1806.69,1423.18 1806.69,123.472 "/>
<polyline clip-path="url(#clip732)" style="stroke:#000000; stroke-linecap:round; stroke-linejoin:round; stroke-width:2; stroke-opacity:0.1; fill:none" points="2294.3,1423.18 2294.3,123.472 "/>
<polyline clip-path="url(#clip730)" style="stroke:#000000; stroke-linecap:round; stroke-linejoin:round; stroke-width:4; stroke-opacity:1; fill:none" points="287.366,1423.18 2352.76,1423.18 "/>
<polyline clip-path="url(#clip730)" style="stroke:#000000; stroke-linecap:round; stroke-linejoin:round; stroke-width:4; stroke-opacity:1; fill:none" points="343.87,1423.18 343.87,1404.28 "/>
<polyline clip-path="url(#clip730)" style="stroke:#000000; stroke-linecap:round; stroke-linejoin:round; stroke-width:4; stroke-opacity:1; fill:none" points="831.478,1423.18 831.478,1404.28 "/>
<polyline clip-path="url(#clip730)" style="stroke:#000000; stroke-linecap:round; stroke-linejoin:round; stroke-width:4; stroke-opacity:1; fill:none" points="1319.09,1423.18 1319.09,1404.28 "/>
<polyline clip-path="url(#clip730)" style="stroke:#000000; stroke-linecap:round; stroke-linejoin:round; stroke-width:4; stroke-opacity:1; fill:none" points="1806.69,1423.18 1806.69,1404.28 "/>
<polyline clip-path="url(#clip730)" style="stroke:#000000; stroke-linecap:round; stroke-linejoin:round; stroke-width:4; stroke-opacity:1; fill:none" points="2294.3,1423.18 2294.3,1404.28 "/>
<path clip-path="url(#clip730)" d="M343.87 1454.1 Q340.259 1454.1 338.43 1457.66 Q336.625 1461.2 336.625 1468.33 Q336.625 1475.44 338.43 1479.01 Q340.259 1482.55 343.87 1482.55 Q347.504 1482.55 349.31 1479.01 Q351.138 1475.44 351.138 1468.33 Q351.138 1461.2 349.31 1457.66 Q347.504 1454.1 343.87 1454.1 M343.87 1450.39 Q349.68 1450.39 352.736 1455 Q355.814 1459.58 355.814 1468.33 Q355.814 1477.06 352.736 1481.67 Q349.68 1486.25 343.87 1486.25 Q338.06 1486.25 334.981 1481.67 Q331.926 1477.06 331.926 1468.33 Q331.926 1459.58 334.981 1455 Q338.06 1450.39 343.87 1450.39 Z" fill="#000000" fill-rule="nonzero" fill-opacity="1" /><path clip-path="url(#clip730)" d="M795.17 1481.64 L811.489 1481.64 L811.489 1485.58 L789.545 1485.58 L789.545 1481.64 Q792.207 1478.89 796.79 1474.26 Q801.397 1469.61 802.577 1468.27 Q804.823 1465.74 805.702 1464.01 Q806.605 1462.25 806.605 1460.56 Q806.605 1457.8 804.661 1456.07 Q802.74 1454.33 799.638 1454.33 Q797.439 1454.33 794.985 1455.09 Q792.554 1455.86 789.777 1457.41 L789.777 1452.69 Q792.601 1451.55 795.054 1450.97 Q797.508 1450.39 799.545 1450.39 Q804.915 1450.39 808.11 1453.08 Q811.304 1455.77 811.304 1460.26 Q811.304 1462.39 810.494 1464.31 Q809.707 1466.2 807.601 1468.8 Q807.022 1469.47 803.92 1472.69 Q800.818 1475.88 795.17 1481.64 Z" fill="#000000" fill-rule="nonzero" fill-opacity="1" /><path clip-path="url(#clip730)" d="M821.351 1451.02 L839.707 1451.02 L839.707 1454.96 L825.633 1454.96 L825.633 1463.43 Q826.651 1463.08 827.67 1462.92 Q828.688 1462.73 829.707 1462.73 Q835.494 1462.73 838.874 1465.9 Q842.253 1469.08 842.253 1474.49 Q842.253 1480.07 838.781 1483.17 Q835.309 1486.25 828.989 1486.25 Q826.813 1486.25 824.545 1485.88 Q822.3 1485.51 819.892 1484.77 L819.892 1480.07 Q821.976 1481.2 824.198 1481.76 Q826.42 1482.32 828.897 1482.32 Q832.901 1482.32 835.239 1480.21 Q837.577 1478.1 837.577 1474.49 Q837.577 1470.88 835.239 1468.77 Q832.901 1466.67 828.897 1466.67 Q827.022 1466.67 825.147 1467.08 Q823.295 1467.5 821.351 1468.38 L821.351 1451.02 Z" fill="#000000" fill-rule="nonzero" fill-opacity="1" /><path clip-path="url(#clip730)" d="M861.466 1454.1 Q857.855 1454.1 856.026 1457.66 Q854.221 1461.2 854.221 1468.33 Q854.221 1475.44 856.026 1479.01 Q857.855 1482.55 861.466 1482.55 Q865.1 1482.55 866.906 1479.01 Q868.735 1475.44 868.735 1468.33 Q868.735 1461.2 866.906 1457.66 Q865.1 1454.1 861.466 1454.1 M861.466 1450.39 Q867.276 1450.39 870.332 1455 Q873.41 1459.58 873.41 1468.33 Q873.41 1477.06 870.332 1481.67 Q867.276 1486.25 861.466 1486.25 Q855.656 1486.25 852.577 1481.67 Q849.522 1477.06 849.522 1468.33 Q849.522 1459.58 852.577 1455 Q855.656 1450.39 861.466 1450.39 Z" fill="#000000" fill-rule="nonzero" fill-opacity="1" /><path clip-path="url(#clip730)" d="M1278.7 1451.02 L1297.06 1451.02 L1297.06 1454.96 L1282.99 1454.96 L1282.99 1463.43 Q1284 1463.08 1285.02 1462.92 Q1286.04 1462.73 1287.06 1462.73 Q1292.85 1462.73 1296.23 1465.9 Q1299.61 1469.08 1299.61 1474.49 Q1299.61 1480.07 1296.13 1483.17 Q1292.66 1486.25 1286.34 1486.25 Q1284.17 1486.25 1281.9 1485.88 Q1279.65 1485.51 1277.25 1484.77 L1277.25 1480.07 Q1279.33 1481.2 1281.55 1481.76 Q1283.77 1482.32 1286.25 1482.32 Q1290.25 1482.32 1292.59 1480.21 Q1294.93 1478.1 1294.93 1474.49 Q1294.93 1470.88 1292.59 1468.77 Q1290.25 1466.67 1286.25 1466.67 Q1284.38 1466.67 1282.5 1467.08 Q1280.65 1467.5 1278.7 1468.38 L1278.7 1451.02 Z" fill="#000000" fill-rule="nonzero" fill-opacity="1" /><path clip-path="url(#clip730)" d="M1318.82 1454.1 Q1315.21 1454.1 1313.38 1457.66 Q1311.57 1461.2 1311.57 1468.33 Q1311.57 1475.44 1313.38 1479.01 Q1315.21 1482.55 1318.82 1482.55 Q1322.45 1482.55 1324.26 1479.01 Q1326.09 1475.44 1326.09 1468.33 Q1326.09 1461.2 1324.26 1457.66 Q1322.45 1454.1 1318.82 1454.1 M1318.82 1450.39 Q1324.63 1450.39 1327.69 1455 Q1330.76 1459.58 1330.76 1468.33 Q1330.76 1477.06 1327.69 1481.67 Q1324.63 1486.25 1318.82 1486.25 Q1313.01 1486.25 1309.93 1481.67 Q1306.88 1477.06 1306.88 1468.33 Q1306.88 1459.58 1309.93 1455 Q1313.01 1450.39 1318.82 1450.39 Z" fill="#000000" fill-rule="nonzero" fill-opacity="1" /><path clip-path="url(#clip730)" d="M1348.98 1454.1 Q1345.37 1454.1 1343.54 1457.66 Q1341.74 1461.2 1341.74 1468.33 Q1341.74 1475.44 1343.54 1479.01 Q1345.37 1482.55 1348.98 1482.55 Q1352.62 1482.55 1354.42 1479.01 Q1356.25 1475.44 1356.25 1468.33 Q1356.25 1461.2 1354.42 1457.66 Q1352.62 1454.1 1348.98 1454.1 M1348.98 1450.39 Q1354.79 1450.39 1357.85 1455 Q1360.93 1459.58 1360.93 1468.33 Q1360.93 1477.06 1357.85 1481.67 Q1354.79 1486.25 1348.98 1486.25 Q1343.17 1486.25 1340.09 1481.67 Q1337.04 1477.06 1337.04 1468.33 Q1337.04 1459.58 1340.09 1455 Q1343.17 1450.39 1348.98 1450.39 Z" fill="#000000" fill-rule="nonzero" fill-opacity="1" /><path clip-path="url(#clip730)" d="M1764.97 1451.02 L1787.19 1451.02 L1787.19 1453.01 L1774.65 1485.58 L1769.76 1485.58 L1781.57 1454.96 L1764.97 1454.96 L1764.97 1451.02 Z" fill="#000000" fill-rule="nonzero" fill-opacity="1" /><path clip-path="url(#clip730)" d="M1796.36 1451.02 L1814.71 1451.02 L1814.71 1454.96 L1800.64 1454.96 L1800.64 1463.43 Q1801.66 1463.08 1802.68 1462.92 Q1803.7 1462.73 1804.71 1462.73 Q1810.5 1462.73 1813.88 1465.9 Q1817.26 1469.08 1817.26 1474.49 Q1817.26 1480.07 1813.79 1483.17 Q1810.32 1486.25 1804 1486.25 Q1801.82 1486.25 1799.55 1485.88 Q1797.31 1485.51 1794.9 1484.77 L1794.9 1480.07 Q1796.98 1481.2 1799.21 1481.76 Q1801.43 1482.32 1803.9 1482.32 Q1807.91 1482.32 1810.25 1480.21 Q1812.58 1478.1 1812.58 1474.49 Q1812.58 1470.88 1810.25 1468.77 Q1807.91 1466.67 1803.9 1466.67 Q1802.03 1466.67 1800.15 1467.08 Q1798.3 1467.5 1796.36 1468.38 L1796.36 1451.02 Z" fill="#000000" fill-rule="nonzero" fill-opacity="1" /><path clip-path="url(#clip730)" d="M1836.47 1454.1 Q1832.86 1454.1 1831.03 1457.66 Q1829.23 1461.2 1829.23 1468.33 Q1829.23 1475.44 1831.03 1479.01 Q1832.86 1482.55 1836.47 1482.55 Q1840.11 1482.55 1841.91 1479.01 Q1843.74 1475.44 1843.74 1468.33 Q1843.74 1461.2 1841.91 1457.66 Q1840.11 1454.1 1836.47 1454.1 M1836.47 1450.39 Q1842.28 1450.39 1845.34 1455 Q1848.42 1459.58 1848.42 1468.33 Q1848.42 1477.06 1845.34 1481.67 Q1842.28 1486.25 1836.47 1486.25 Q1830.66 1486.25 1827.58 1481.67 Q1824.53 1477.06 1824.53 1468.33 Q1824.53 1459.58 1827.58 1455 Q1830.66 1450.39 1836.47 1450.39 Z" fill="#000000" fill-rule="nonzero" fill-opacity="1" /><path clip-path="url(#clip730)" d="M2238.83 1481.64 L2246.47 1481.64 L2246.47 1455.28 L2238.16 1456.95 L2238.16 1452.69 L2246.42 1451.02 L2251.1 1451.02 L2251.1 1481.64 L2258.73 1481.64 L2258.73 1485.58 L2238.83 1485.58 L2238.83 1481.64 Z" fill="#000000" fill-rule="nonzero" fill-opacity="1" /><path clip-path="url(#clip730)" d="M2278.18 1454.1 Q2274.57 1454.1 2272.74 1457.66 Q2270.93 1461.2 2270.93 1468.33 Q2270.93 1475.44 2272.74 1479.01 Q2274.57 1482.55 2278.18 1482.55 Q2281.81 1482.55 2283.62 1479.01 Q2285.45 1475.44 2285.45 1468.33 Q2285.45 1461.2 2283.62 1457.66 Q2281.81 1454.1 2278.18 1454.1 M2278.18 1450.39 Q2283.99 1450.39 2287.04 1455 Q2290.12 1459.58 2290.12 1468.33 Q2290.12 1477.06 2287.04 1481.67 Q2283.99 1486.25 2278.18 1486.25 Q2272.37 1486.25 2269.29 1481.67 Q2266.23 1477.06 2266.23 1468.33 Q2266.23 1459.58 2269.29 1455 Q2272.37 1450.39 2278.18 1450.39 Z" fill="#000000" fill-rule="nonzero" fill-opacity="1" /><path clip-path="url(#clip730)" d="M2308.34 1454.1 Q2304.73 1454.1 2302.9 1457.66 Q2301.1 1461.2 2301.1 1468.33 Q2301.1 1475.44 2302.9 1479.01 Q2304.73 1482.55 2308.34 1482.55 Q2311.97 1482.55 2313.78 1479.01 Q2315.61 1475.44 2315.61 1468.33 Q2315.61 1461.2 2313.78 1457.66 Q2311.97 1454.1 2308.34 1454.1 M2308.34 1450.39 Q2314.15 1450.39 2317.21 1455 Q2320.29 1459.58 2320.29 1468.33 Q2320.29 1477.06 2317.21 1481.67 Q2314.15 1486.25 2308.34 1486.25 Q2302.53 1486.25 2299.45 1481.67 Q2296.4 1477.06 2296.4 1468.33 Q2296.4 1459.58 2299.45 1455 Q2302.53 1450.39 2308.34 1450.39 Z" fill="#000000" fill-rule="nonzero" fill-opacity="1" /><path clip-path="url(#clip730)" d="M2338.5 1454.1 Q2334.89 1454.1 2333.06 1457.66 Q2331.26 1461.2 2331.26 1468.33 Q2331.26 1475.44 2333.06 1479.01 Q2334.89 1482.55 2338.5 1482.55 Q2342.14 1482.55 2343.94 1479.01 Q2345.77 1475.44 2345.77 1468.33 Q2345.77 1461.2 2343.94 1457.66 Q2342.14 1454.1 2338.5 1454.1 M2338.5 1450.39 Q2344.31 1450.39 2347.37 1455 Q2350.45 1459.58 2350.45 1468.33 Q2350.45 1477.06 2347.37 1481.67 Q2344.31 1486.25 2338.5 1486.25 Q2332.69 1486.25 2329.61 1481.67 Q2326.56 1477.06 2326.56 1468.33 Q2326.56 1459.58 2329.61 1455 Q2332.69 1450.39 2338.5 1450.39 Z" fill="#000000" fill-rule="nonzero" fill-opacity="1" /><path clip-path="url(#clip730)" d="M1283.9 1524.18 L1283.9 1530.96 Q1280.66 1527.94 1276.97 1526.44 Q1273.3 1524.95 1269.17 1524.95 Q1261.02 1524.95 1256.69 1529.95 Q1252.36 1534.91 1252.36 1544.33 Q1252.36 1553.72 1256.69 1558.72 Q1261.02 1563.68 1269.17 1563.68 Q1273.3 1563.68 1276.97 1562.19 Q1280.66 1560.69 1283.9 1557.67 L1283.9 1564.38 Q1280.53 1566.68 1276.74 1567.82 Q1272.99 1568.97 1268.79 1568.97 Q1258 1568.97 1251.79 1562.38 Q1245.58 1555.76 1245.58 1544.33 Q1245.58 1532.87 1251.79 1526.28 Q1258 1519.66 1268.79 1519.66 Q1273.05 1519.66 1276.81 1520.81 Q1280.59 1521.92 1283.9 1524.18 Z" fill="#000000" fill-rule="nonzero" fill-opacity="1" /><path clip-path="url(#clip730)" d="M1324.07 1548.76 L1324.07 1551.62 L1297.14 1551.62 Q1297.53 1557.67 1300.77 1560.85 Q1304.05 1564 1309.88 1564 Q1313.25 1564 1316.4 1563.17 Q1319.58 1562.35 1322.7 1560.69 L1322.7 1566.23 Q1319.55 1567.57 1316.24 1568.27 Q1312.93 1568.97 1309.53 1568.97 Q1301 1568.97 1296 1564 Q1291.03 1559.04 1291.03 1550.57 Q1291.03 1541.82 1295.74 1536.69 Q1300.49 1531.54 1308.51 1531.54 Q1315.7 1531.54 1319.87 1536.18 Q1324.07 1540.8 1324.07 1548.76 M1318.21 1547.04 Q1318.15 1542.23 1315.51 1539.37 Q1312.9 1536.5 1308.57 1536.5 Q1303.67 1536.5 1300.71 1539.27 Q1297.78 1542.04 1297.34 1547.07 L1318.21 1547.04 Z" fill="#000000" fill-rule="nonzero" fill-opacity="1" /><path clip-path="url(#clip730)" d="M1333.68 1518.52 L1339.54 1518.52 L1339.54 1568.04 L1333.68 1568.04 L1333.68 1518.52 Z" fill="#000000" fill-rule="nonzero" fill-opacity="1" /><path clip-path="url(#clip730)" d="M1351.79 1518.52 L1357.65 1518.52 L1357.65 1568.04 L1351.79 1568.04 L1351.79 1518.52 Z" fill="#000000" fill-rule="nonzero" fill-opacity="1" /><path clip-path="url(#clip730)" d="M1392.63 1533.45 L1392.63 1538.98 Q1390.15 1537.71 1387.47 1537.07 Q1384.8 1536.44 1381.94 1536.44 Q1377.58 1536.44 1375.38 1537.77 Q1373.21 1539.11 1373.21 1541.79 Q1373.21 1543.82 1374.77 1545 Q1376.33 1546.15 1381.04 1547.2 L1383.05 1547.64 Q1389.29 1548.98 1391.9 1551.43 Q1394.54 1553.85 1394.54 1558.21 Q1394.54 1563.17 1390.59 1566.07 Q1386.68 1568.97 1379.8 1568.97 Q1376.94 1568.97 1373.82 1568.39 Q1370.73 1567.85 1367.29 1566.74 L1367.29 1560.69 Q1370.54 1562.38 1373.69 1563.24 Q1376.84 1564.07 1379.93 1564.07 Q1384.07 1564.07 1386.3 1562.66 Q1388.52 1561.23 1388.52 1558.65 Q1388.52 1556.27 1386.9 1554.99 Q1385.31 1553.72 1379.87 1552.54 L1377.83 1552.07 Q1372.39 1550.92 1369.97 1548.56 Q1367.55 1546.18 1367.55 1542.04 Q1367.55 1537.01 1371.11 1534.27 Q1374.68 1531.54 1381.24 1531.54 Q1384.48 1531.54 1387.35 1532.01 Q1390.21 1532.49 1392.63 1533.45 Z" fill="#000000" fill-rule="nonzero" fill-opacity="1" /><polyline clip-path="url(#clip732)" style="stroke:#000000; stroke-linecap:round; stroke-linejoin:round; stroke-width:2; stroke-opacity:0.1; fill:none" points="287.366,1297.43 2352.76,1297.43 "/>
<polyline clip-path="url(#clip732)" style="stroke:#000000; stroke-linecap:round; stroke-linejoin:round; stroke-width:2; stroke-opacity:0.1; fill:none" points="287.366,1124.34 2352.76,1124.34 "/>
<polyline clip-path="url(#clip732)" style="stroke:#000000; stroke-linecap:round; stroke-linejoin:round; stroke-width:2; stroke-opacity:0.1; fill:none" points="287.366,951.253 2352.76,951.253 "/>
<polyline clip-path="url(#clip732)" style="stroke:#000000; stroke-linecap:round; stroke-linejoin:round; stroke-width:2; stroke-opacity:0.1; fill:none" points="287.366,778.165 2352.76,778.165 "/>
<polyline clip-path="url(#clip732)" style="stroke:#000000; stroke-linecap:round; stroke-linejoin:round; stroke-width:2; stroke-opacity:0.1; fill:none" points="287.366,605.077 2352.76,605.077 "/>
<polyline clip-path="url(#clip732)" style="stroke:#000000; stroke-linecap:round; stroke-linejoin:round; stroke-width:2; stroke-opacity:0.1; fill:none" points="287.366,431.988 2352.76,431.988 "/>
<polyline clip-path="url(#clip732)" style="stroke:#000000; stroke-linecap:round; stroke-linejoin:round; stroke-width:2; stroke-opacity:0.1; fill:none" points="287.366,258.9 2352.76,258.9 "/>
<polyline clip-path="url(#clip730)" style="stroke:#000000; stroke-linecap:round; stroke-linejoin:round; stroke-width:4; stroke-opacity:1; fill:none" points="287.366,1423.18 287.366,123.472 "/>
<polyline clip-path="url(#clip730)" style="stroke:#000000; stroke-linecap:round; stroke-linejoin:round; stroke-width:4; stroke-opacity:1; fill:none" points="287.366,1297.43 306.264,1297.43 "/>
<polyline clip-path="url(#clip730)" style="stroke:#000000; stroke-linecap:round; stroke-linejoin:round; stroke-width:4; stroke-opacity:1; fill:none" points="287.366,1124.34 306.264,1124.34 "/>
<polyline clip-path="url(#clip730)" style="stroke:#000000; stroke-linecap:round; stroke-linejoin:round; stroke-width:4; stroke-opacity:1; fill:none" points="287.366,951.253 306.264,951.253 "/>
<polyline clip-path="url(#clip730)" style="stroke:#000000; stroke-linecap:round; stroke-linejoin:round; stroke-width:4; stroke-opacity:1; fill:none" points="287.366,778.165 306.264,778.165 "/>
<polyline clip-path="url(#clip730)" style="stroke:#000000; stroke-linecap:round; stroke-linejoin:round; stroke-width:4; stroke-opacity:1; fill:none" points="287.366,605.077 306.264,605.077 "/>
<polyline clip-path="url(#clip730)" style="stroke:#000000; stroke-linecap:round; stroke-linejoin:round; stroke-width:4; stroke-opacity:1; fill:none" points="287.366,431.988 306.264,431.988 "/>
<polyline clip-path="url(#clip730)" style="stroke:#000000; stroke-linecap:round; stroke-linejoin:round; stroke-width:4; stroke-opacity:1; fill:none" points="287.366,258.9 306.264,258.9 "/>
<path clip-path="url(#clip730)" d="M115.256 1297.88 L144.931 1297.88 L144.931 1301.82 L115.256 1301.82 L115.256 1297.88 Z" fill="#000000" fill-rule="nonzero" fill-opacity="1" /><path clip-path="url(#clip730)" d="M165.024 1283.23 Q161.413 1283.23 159.584 1286.79 Q157.778 1290.33 157.778 1297.46 Q157.778 1304.57 159.584 1308.14 Q161.413 1311.68 165.024 1311.68 Q168.658 1311.68 170.464 1308.14 Q172.292 1304.57 172.292 1297.46 Q172.292 1290.33 170.464 1286.79 Q168.658 1283.23 165.024 1283.23 M165.024 1279.52 Q170.834 1279.52 173.889 1284.13 Q176.968 1288.71 176.968 1297.46 Q176.968 1306.19 173.889 1310.8 Q170.834 1315.38 165.024 1315.38 Q159.214 1315.38 156.135 1310.8 Q153.079 1306.19 153.079 1297.46 Q153.079 1288.71 156.135 1284.13 Q159.214 1279.52 165.024 1279.52 Z" fill="#000000" fill-rule="nonzero" fill-opacity="1" /><path clip-path="url(#clip730)" d="M185.186 1308.83 L190.07 1308.83 L190.07 1314.71 L185.186 1314.71 L185.186 1308.83 Z" fill="#000000" fill-rule="nonzero" fill-opacity="1" /><path clip-path="url(#clip730)" d="M199.075 1280.15 L221.297 1280.15 L221.297 1282.14 L208.75 1314.71 L203.866 1314.71 L215.672 1284.08 L199.075 1284.08 L199.075 1280.15 Z" fill="#000000" fill-rule="nonzero" fill-opacity="1" /><path clip-path="url(#clip730)" d="M230.463 1280.15 L248.82 1280.15 L248.82 1284.08 L234.746 1284.08 L234.746 1292.56 Q235.764 1292.21 236.783 1292.05 Q237.801 1291.86 238.82 1291.86 Q244.607 1291.86 247.986 1295.03 Q251.366 1298.21 251.366 1303.62 Q251.366 1309.2 247.894 1312.3 Q244.421 1315.38 238.102 1315.38 Q235.926 1315.38 233.658 1315.01 Q231.412 1314.64 229.005 1313.9 L229.005 1309.2 Q231.088 1310.33 233.31 1310.89 Q235.533 1311.45 238.009 1311.45 Q242.014 1311.45 244.352 1309.34 Q246.69 1307.23 246.69 1303.62 Q246.69 1300.01 244.352 1297.9 Q242.014 1295.8 238.009 1295.8 Q236.135 1295.8 234.26 1296.21 Q232.408 1296.63 230.463 1297.51 L230.463 1280.15 Z" fill="#000000" fill-rule="nonzero" fill-opacity="1" /><path clip-path="url(#clip730)" d="M114.26 1124.79 L143.936 1124.79 L143.936 1128.73 L114.26 1128.73 L114.26 1124.79 Z" fill="#000000" fill-rule="nonzero" fill-opacity="1" /><path clip-path="url(#clip730)" d="M164.028 1110.14 Q160.417 1110.14 158.589 1113.7 Q156.783 1117.25 156.783 1124.38 Q156.783 1131.48 158.589 1135.05 Q160.417 1138.59 164.028 1138.59 Q167.663 1138.59 169.468 1135.05 Q171.297 1131.48 171.297 1124.38 Q171.297 1117.25 169.468 1113.7 Q167.663 1110.14 164.028 1110.14 M164.028 1106.44 Q169.839 1106.44 172.894 1111.04 Q175.973 1115.63 175.973 1124.38 Q175.973 1133.1 172.894 1137.71 Q169.839 1142.29 164.028 1142.29 Q158.218 1142.29 155.14 1137.71 Q152.084 1133.1 152.084 1124.38 Q152.084 1115.63 155.14 1111.04 Q158.218 1106.44 164.028 1106.44 Z" fill="#000000" fill-rule="nonzero" fill-opacity="1" /><path clip-path="url(#clip730)" d="M184.19 1135.74 L189.075 1135.74 L189.075 1141.62 L184.19 1141.62 L184.19 1135.74 Z" fill="#000000" fill-rule="nonzero" fill-opacity="1" /><path clip-path="url(#clip730)" d="M199.306 1107.06 L217.662 1107.06 L217.662 1111 L203.588 1111 L203.588 1119.47 Q204.607 1119.12 205.625 1118.96 Q206.644 1118.77 207.662 1118.77 Q213.449 1118.77 216.829 1121.95 Q220.209 1125.12 220.209 1130.53 Q220.209 1136.11 216.736 1139.21 Q213.264 1142.29 206.945 1142.29 Q204.769 1142.29 202.5 1141.92 Q200.255 1141.55 197.848 1140.81 L197.848 1136.11 Q199.931 1137.25 202.153 1137.8 Q204.375 1138.36 206.852 1138.36 Q210.857 1138.36 213.195 1136.25 Q215.533 1134.14 215.533 1130.53 Q215.533 1126.92 213.195 1124.82 Q210.857 1122.71 206.852 1122.71 Q204.977 1122.71 203.102 1123.13 Q201.25 1123.54 199.306 1124.42 L199.306 1107.06 Z" fill="#000000" fill-rule="nonzero" fill-opacity="1" /><path clip-path="url(#clip730)" d="M239.422 1110.14 Q235.81 1110.14 233.982 1113.7 Q232.176 1117.25 232.176 1124.38 Q232.176 1131.48 233.982 1135.05 Q235.81 1138.59 239.422 1138.59 Q243.056 1138.59 244.861 1135.05 Q246.69 1131.48 246.69 1124.38 Q246.69 1117.25 244.861 1113.7 Q243.056 1110.14 239.422 1110.14 M239.422 1106.44 Q245.232 1106.44 248.287 1111.04 Q251.366 1115.63 251.366 1124.38 Q251.366 1133.1 248.287 1137.71 Q245.232 1142.29 239.422 1142.29 Q233.611 1142.29 230.533 1137.71 Q227.477 1133.1 227.477 1124.38 Q227.477 1115.63 230.533 1111.04 Q233.611 1106.44 239.422 1106.44 Z" fill="#000000" fill-rule="nonzero" fill-opacity="1" /><path clip-path="url(#clip730)" d="M115.256 951.704 L144.931 951.704 L144.931 955.64 L115.256 955.64 L115.256 951.704 Z" fill="#000000" fill-rule="nonzero" fill-opacity="1" /><path clip-path="url(#clip730)" d="M165.024 937.052 Q161.413 937.052 159.584 940.617 Q157.778 944.158 157.778 951.288 Q157.778 958.394 159.584 961.959 Q161.413 965.501 165.024 965.501 Q168.658 965.501 170.464 961.959 Q172.292 958.394 172.292 951.288 Q172.292 944.158 170.464 940.617 Q168.658 937.052 165.024 937.052 M165.024 933.348 Q170.834 933.348 173.889 937.955 Q176.968 942.538 176.968 951.288 Q176.968 960.015 173.889 964.621 Q170.834 969.204 165.024 969.204 Q159.214 969.204 156.135 964.621 Q153.079 960.015 153.079 951.288 Q153.079 942.538 156.135 937.955 Q159.214 933.348 165.024 933.348 Z" fill="#000000" fill-rule="nonzero" fill-opacity="1" /><path clip-path="url(#clip730)" d="M185.186 962.653 L190.07 962.653 L190.07 968.533 L185.186 968.533 L185.186 962.653 Z" fill="#000000" fill-rule="nonzero" fill-opacity="1" /><path clip-path="url(#clip730)" d="M204.283 964.598 L220.602 964.598 L220.602 968.533 L198.658 968.533 L198.658 964.598 Q201.32 961.843 205.903 957.214 Q210.51 952.561 211.69 951.218 Q213.936 948.695 214.815 946.959 Q215.718 945.2 215.718 943.51 Q215.718 940.755 213.774 939.019 Q211.852 937.283 208.75 937.283 Q206.551 937.283 204.098 938.047 Q201.667 938.811 198.889 940.362 L198.889 935.64 Q201.713 934.506 204.167 933.927 Q206.621 933.348 208.658 933.348 Q214.028 933.348 217.223 936.033 Q220.417 938.718 220.417 943.209 Q220.417 945.339 219.607 947.26 Q218.82 949.158 216.713 951.751 Q216.135 952.422 213.033 955.64 Q209.931 958.834 204.283 964.598 Z" fill="#000000" fill-rule="nonzero" fill-opacity="1" /><path clip-path="url(#clip730)" d="M230.463 933.973 L248.82 933.973 L248.82 937.908 L234.746 937.908 L234.746 946.38 Q235.764 946.033 236.783 945.871 Q237.801 945.686 238.82 945.686 Q244.607 945.686 247.986 948.857 Q251.366 952.029 251.366 957.445 Q251.366 963.024 247.894 966.126 Q244.421 969.204 238.102 969.204 Q235.926 969.204 233.658 968.834 Q231.412 968.464 229.005 967.723 L229.005 963.024 Q231.088 964.158 233.31 964.714 Q235.533 965.269 238.009 965.269 Q242.014 965.269 244.352 963.163 Q246.69 961.056 246.69 957.445 Q246.69 953.834 244.352 951.728 Q242.014 949.621 238.009 949.621 Q236.135 949.621 234.26 950.038 Q232.408 950.454 230.463 951.334 L230.463 933.973 Z" fill="#000000" fill-rule="nonzero" fill-opacity="1" /><path clip-path="url(#clip730)" d="M164.028 763.964 Q160.417 763.964 158.589 767.528 Q156.783 771.07 156.783 778.2 Q156.783 785.306 158.589 788.871 Q160.417 792.412 164.028 792.412 Q167.663 792.412 169.468 788.871 Q171.297 785.306 171.297 778.2 Q171.297 771.07 169.468 767.528 Q167.663 763.964 164.028 763.964 M164.028 760.26 Q169.839 760.26 172.894 764.866 Q175.973 769.45 175.973 778.2 Q175.973 786.926 172.894 791.533 Q169.839 796.116 164.028 796.116 Q158.218 796.116 155.14 791.533 Q152.084 786.926 152.084 778.2 Q152.084 769.45 155.14 764.866 Q158.218 760.26 164.028 760.26 Z" fill="#000000" fill-rule="nonzero" fill-opacity="1" /><path clip-path="url(#clip730)" d="M184.19 789.565 L189.075 789.565 L189.075 795.445 L184.19 795.445 L184.19 789.565 Z" fill="#000000" fill-rule="nonzero" fill-opacity="1" /><path clip-path="url(#clip730)" d="M209.26 763.964 Q205.649 763.964 203.82 767.528 Q202.014 771.07 202.014 778.2 Q202.014 785.306 203.82 788.871 Q205.649 792.412 209.26 792.412 Q212.894 792.412 214.699 788.871 Q216.528 785.306 216.528 778.2 Q216.528 771.07 214.699 767.528 Q212.894 763.964 209.26 763.964 M209.26 760.26 Q215.07 760.26 218.125 764.866 Q221.204 769.45 221.204 778.2 Q221.204 786.926 218.125 791.533 Q215.07 796.116 209.26 796.116 Q203.449 796.116 200.371 791.533 Q197.315 786.926 197.315 778.2 Q197.315 769.45 200.371 764.866 Q203.449 760.26 209.26 760.26 Z" fill="#000000" fill-rule="nonzero" fill-opacity="1" /><path clip-path="url(#clip730)" d="M239.422 763.964 Q235.81 763.964 233.982 767.528 Q232.176 771.07 232.176 778.2 Q232.176 785.306 233.982 788.871 Q235.81 792.412 239.422 792.412 Q243.056 792.412 244.861 788.871 Q246.69 785.306 246.69 778.2 Q246.69 771.07 244.861 767.528 Q243.056 763.964 239.422 763.964 M239.422 760.26 Q245.232 760.26 248.287 764.866 Q251.366 769.45 251.366 778.2 Q251.366 786.926 248.287 791.533 Q245.232 796.116 239.422 796.116 Q233.611 796.116 230.533 791.533 Q227.477 786.926 227.477 778.2 Q227.477 769.45 230.533 764.866 Q233.611 760.26 239.422 760.26 Z" fill="#000000" fill-rule="nonzero" fill-opacity="1" /><path clip-path="url(#clip730)" d="M165.024 590.875 Q161.413 590.875 159.584 594.44 Q157.778 597.982 157.778 605.111 Q157.778 612.218 159.584 615.783 Q161.413 619.324 165.024 619.324 Q168.658 619.324 170.464 615.783 Q172.292 612.218 172.292 605.111 Q172.292 597.982 170.464 594.44 Q168.658 590.875 165.024 590.875 M165.024 587.172 Q170.834 587.172 173.889 591.778 Q176.968 596.361 176.968 605.111 Q176.968 613.838 173.889 618.445 Q170.834 623.028 165.024 623.028 Q159.214 623.028 156.135 618.445 Q153.079 613.838 153.079 605.111 Q153.079 596.361 156.135 591.778 Q159.214 587.172 165.024 587.172 Z" fill="#000000" fill-rule="nonzero" fill-opacity="1" /><path clip-path="url(#clip730)" d="M185.186 616.477 L190.07 616.477 L190.07 622.357 L185.186 622.357 L185.186 616.477 Z" fill="#000000" fill-rule="nonzero" fill-opacity="1" /><path clip-path="url(#clip730)" d="M204.283 618.421 L220.602 618.421 L220.602 622.357 L198.658 622.357 L198.658 618.421 Q201.32 615.667 205.903 611.037 Q210.51 606.384 211.69 605.042 Q213.936 602.519 214.815 600.783 Q215.718 599.023 215.718 597.334 Q215.718 594.579 213.774 592.843 Q211.852 591.107 208.75 591.107 Q206.551 591.107 204.098 591.871 Q201.667 592.634 198.889 594.185 L198.889 589.463 Q201.713 588.329 204.167 587.75 Q206.621 587.172 208.658 587.172 Q214.028 587.172 217.223 589.857 Q220.417 592.542 220.417 597.033 Q220.417 599.162 219.607 601.084 Q218.82 602.982 216.713 605.574 Q216.135 606.246 213.033 609.463 Q209.931 612.658 204.283 618.421 Z" fill="#000000" fill-rule="nonzero" fill-opacity="1" /><path clip-path="url(#clip730)" d="M230.463 587.797 L248.82 587.797 L248.82 591.732 L234.746 591.732 L234.746 600.204 Q235.764 599.857 236.783 599.695 Q237.801 599.509 238.82 599.509 Q244.607 599.509 247.986 602.681 Q251.366 605.852 251.366 611.269 Q251.366 616.847 247.894 619.949 Q244.421 623.028 238.102 623.028 Q235.926 623.028 233.658 622.657 Q231.412 622.287 229.005 621.546 L229.005 616.847 Q231.088 617.982 233.31 618.537 Q235.533 619.093 238.009 619.093 Q242.014 619.093 244.352 616.986 Q246.69 614.88 246.69 611.269 Q246.69 607.658 244.352 605.551 Q242.014 603.445 238.009 603.445 Q236.135 603.445 234.26 603.861 Q232.408 604.278 230.463 605.158 L230.463 587.797 Z" fill="#000000" fill-rule="nonzero" fill-opacity="1" /><path clip-path="url(#clip730)" d="M164.028 417.787 Q160.417 417.787 158.589 421.352 Q156.783 424.893 156.783 432.023 Q156.783 439.129 158.589 442.694 Q160.417 446.236 164.028 446.236 Q167.663 446.236 169.468 442.694 Q171.297 439.129 171.297 432.023 Q171.297 424.893 169.468 421.352 Q167.663 417.787 164.028 417.787 M164.028 414.083 Q169.839 414.083 172.894 418.69 Q175.973 423.273 175.973 432.023 Q175.973 440.75 172.894 445.356 Q169.839 449.94 164.028 449.94 Q158.218 449.94 155.14 445.356 Q152.084 440.75 152.084 432.023 Q152.084 423.273 155.14 418.69 Q158.218 414.083 164.028 414.083 Z" fill="#000000" fill-rule="nonzero" fill-opacity="1" /><path clip-path="url(#clip730)" d="M184.19 443.389 L189.075 443.389 L189.075 449.268 L184.19 449.268 L184.19 443.389 Z" fill="#000000" fill-rule="nonzero" fill-opacity="1" /><path clip-path="url(#clip730)" d="M199.306 414.708 L217.662 414.708 L217.662 418.643 L203.588 418.643 L203.588 427.116 Q204.607 426.768 205.625 426.606 Q206.644 426.421 207.662 426.421 Q213.449 426.421 216.829 429.592 Q220.209 432.764 220.209 438.18 Q220.209 443.759 216.736 446.861 Q213.264 449.94 206.945 449.94 Q204.769 449.94 202.5 449.569 Q200.255 449.199 197.848 448.458 L197.848 443.759 Q199.931 444.893 202.153 445.449 Q204.375 446.004 206.852 446.004 Q210.857 446.004 213.195 443.898 Q215.533 441.791 215.533 438.18 Q215.533 434.569 213.195 432.463 Q210.857 430.356 206.852 430.356 Q204.977 430.356 203.102 430.773 Q201.25 431.19 199.306 432.069 L199.306 414.708 Z" fill="#000000" fill-rule="nonzero" fill-opacity="1" /><path clip-path="url(#clip730)" d="M239.422 417.787 Q235.81 417.787 233.982 421.352 Q232.176 424.893 232.176 432.023 Q232.176 439.129 233.982 442.694 Q235.81 446.236 239.422 446.236 Q243.056 446.236 244.861 442.694 Q246.69 439.129 246.69 432.023 Q246.69 424.893 244.861 421.352 Q243.056 417.787 239.422 417.787 M239.422 414.083 Q245.232 414.083 248.287 418.69 Q251.366 423.273 251.366 432.023 Q251.366 440.75 248.287 445.356 Q245.232 449.94 239.422 449.94 Q233.611 449.94 230.533 445.356 Q227.477 440.75 227.477 432.023 Q227.477 423.273 230.533 418.69 Q233.611 414.083 239.422 414.083 Z" fill="#000000" fill-rule="nonzero" fill-opacity="1" /><path clip-path="url(#clip730)" d="M165.024 244.699 Q161.413 244.699 159.584 248.264 Q157.778 251.805 157.778 258.935 Q157.778 266.041 159.584 269.606 Q161.413 273.148 165.024 273.148 Q168.658 273.148 170.464 269.606 Q172.292 266.041 172.292 258.935 Q172.292 251.805 170.464 248.264 Q168.658 244.699 165.024 244.699 M165.024 240.995 Q170.834 240.995 173.889 245.601 Q176.968 250.185 176.968 258.935 Q176.968 267.662 173.889 272.268 Q170.834 276.851 165.024 276.851 Q159.214 276.851 156.135 272.268 Q153.079 267.662 153.079 258.935 Q153.079 250.185 156.135 245.601 Q159.214 240.995 165.024 240.995 Z" fill="#000000" fill-rule="nonzero" fill-opacity="1" /><path clip-path="url(#clip730)" d="M185.186 270.3 L190.07 270.3 L190.07 276.18 L185.186 276.18 L185.186 270.3 Z" fill="#000000" fill-rule="nonzero" fill-opacity="1" /><path clip-path="url(#clip730)" d="M199.075 241.62 L221.297 241.62 L221.297 243.611 L208.75 276.18 L203.866 276.18 L215.672 245.555 L199.075 245.555 L199.075 241.62 Z" fill="#000000" fill-rule="nonzero" fill-opacity="1" /><path clip-path="url(#clip730)" d="M230.463 241.62 L248.82 241.62 L248.82 245.555 L234.746 245.555 L234.746 254.027 Q235.764 253.68 236.783 253.518 Q237.801 253.333 238.82 253.333 Q244.607 253.333 247.986 256.504 Q251.366 259.675 251.366 265.092 Q251.366 270.671 247.894 273.773 Q244.421 276.851 238.102 276.851 Q235.926 276.851 233.658 276.481 Q231.412 276.111 229.005 275.37 L229.005 270.671 Q231.088 271.805 233.31 272.361 Q235.533 272.916 238.009 272.916 Q242.014 272.916 244.352 270.81 Q246.69 268.703 246.69 265.092 Q246.69 261.481 244.352 259.375 Q242.014 257.268 238.009 257.268 Q236.135 257.268 234.26 257.685 Q232.408 258.101 230.463 258.981 L230.463 241.62 Z" fill="#000000" fill-rule="nonzero" fill-opacity="1" /><path clip-path="url(#clip730)" d="M18.0438 893.717 L24.314 893.717 Q22.5634 897.378 21.704 900.624 Q20.8447 903.871 20.8447 906.894 Q20.8447 912.146 22.8817 915.011 Q24.9187 917.843 28.6745 917.843 Q31.8255 917.843 33.4488 915.966 Q35.0402 914.056 36.0269 908.772 L36.8226 904.889 Q38.1912 897.696 41.6605 894.29 Q45.098 890.853 50.8908 890.853 Q57.7976 890.853 61.3624 895.5 Q64.9272 900.115 64.9272 909.059 Q64.9272 912.433 64.1633 916.252 Q63.3994 920.04 61.9035 924.114 L55.2831 924.114 Q57.4793 920.199 58.5933 916.443 Q59.7073 912.687 59.7073 909.059 Q59.7073 903.552 57.543 900.561 Q55.3786 897.569 51.3682 897.569 Q47.8671 897.569 45.8937 899.733 Q43.9204 901.866 42.9337 906.767 L42.1698 910.682 Q40.7375 917.875 37.682 921.09 Q34.6264 924.305 29.1837 924.305 Q22.8817 924.305 19.2532 919.88 Q15.6248 915.424 15.6248 907.626 Q15.6248 904.284 16.2295 900.815 Q16.8343 897.346 18.0438 893.717 Z" fill="#000000" fill-rule="nonzero" fill-opacity="1" /><path clip-path="url(#clip730)" d="M28.3562 881.081 L28.3562 875.225 L64.0042 875.225 L64.0042 881.081 L28.3562 881.081 M14.479 881.081 L14.479 875.225 L21.895 875.225 L21.895 881.081 L14.479 881.081 Z" fill="#000000" fill-rule="nonzero" fill-opacity="1" /><path clip-path="url(#clip730)" d="M35.1993 835.217 Q31.2526 833.02 29.3747 829.965 Q27.4968 826.909 27.4968 822.772 Q27.4968 817.202 31.4117 814.178 Q35.2948 811.154 42.4881 811.154 L64.0042 811.154 L64.0042 817.042 L42.679 817.042 Q37.5546 817.042 35.072 818.857 Q32.5894 820.671 32.5894 824.395 Q32.5894 828.946 35.6131 831.588 Q38.6368 834.23 43.8567 834.23 L64.0042 834.23 L64.0042 840.118 L42.679 840.118 Q37.5228 840.118 35.072 841.932 Q32.5894 843.747 32.5894 847.534 Q32.5894 852.022 35.6449 854.664 Q38.6686 857.306 43.8567 857.306 L64.0042 857.306 L64.0042 863.194 L28.3562 863.194 L28.3562 857.306 L33.8944 857.306 Q30.616 855.3 29.0564 852.499 Q27.4968 849.699 27.4968 845.847 Q27.4968 841.964 29.4702 839.259 Q31.4436 836.522 35.1993 835.217 Z" fill="#000000" fill-rule="nonzero" fill-opacity="1" /><path clip-path="url(#clip730)" d="M28.3562 799.473 L28.3562 793.617 L64.0042 793.617 L64.0042 799.473 L28.3562 799.473 M14.479 799.473 L14.479 793.617 L21.895 793.617 L21.895 799.473 L14.479 799.473 Z" fill="#000000" fill-rule="nonzero" fill-opacity="1" /><path clip-path="url(#clip730)" d="M14.479 781.363 L14.479 775.506 L64.0042 775.506 L64.0042 781.363 L14.479 781.363 Z" fill="#000000" fill-rule="nonzero" fill-opacity="1" /><path clip-path="url(#clip730)" d="M46.0847 747.052 Q46.0847 754.149 47.7079 756.887 Q49.3312 759.624 53.2461 759.624 Q56.3653 759.624 58.2114 757.587 Q60.0256 755.518 60.0256 751.985 Q60.0256 747.115 56.5881 744.187 Q53.1188 741.227 47.3897 741.227 L46.0847 741.227 L46.0847 747.052 M43.6657 735.37 L64.0042 735.37 L64.0042 741.227 L58.5933 741.227 Q61.8398 743.232 63.3994 746.224 Q64.9272 749.216 64.9272 753.545 Q64.9272 759.019 61.8716 762.266 Q58.7843 765.48 53.6281 765.48 Q47.6125 765.48 44.5569 761.47 Q41.5014 757.428 41.5014 749.439 L41.5014 741.227 L40.9285 741.227 Q36.8862 741.227 34.6901 743.901 Q32.4621 746.542 32.4621 751.348 Q32.4621 754.404 33.1941 757.3 Q33.9262 760.197 35.3903 762.87 L29.9795 762.87 Q28.7381 759.656 28.1334 756.632 Q27.4968 753.608 27.4968 750.744 Q27.4968 743.009 31.5072 739.19 Q35.5176 735.37 43.6657 735.37 Z" fill="#000000" fill-rule="nonzero" fill-opacity="1" /><path clip-path="url(#clip730)" d="M33.8307 702.651 Q33.2578 703.637 33.0032 704.815 Q32.7167 705.961 32.7167 707.361 Q32.7167 712.327 35.9632 715 Q39.1779 717.642 45.2253 717.642 L64.0042 717.642 L64.0042 723.53 L28.3562 723.53 L28.3562 717.642 L33.8944 717.642 Q30.6479 715.796 29.0883 712.836 Q27.4968 709.876 27.4968 705.643 Q27.4968 705.038 27.5923 704.306 Q27.656 703.574 27.8151 702.683 L33.8307 702.651 Z" fill="#000000" fill-rule="nonzero" fill-opacity="1" /><path clip-path="url(#clip730)" d="M28.3562 696.508 L28.3562 690.651 L64.0042 690.651 L64.0042 696.508 L28.3562 696.508 M14.479 696.508 L14.479 690.651 L21.895 690.651 L21.895 696.508 L14.479 696.508 Z" fill="#000000" fill-rule="nonzero" fill-opacity="1" /><path clip-path="url(#clip730)" d="M18.2347 672.605 L28.3562 672.605 L28.3562 660.542 L32.9077 660.542 L32.9077 672.605 L52.2594 672.605 Q56.6199 672.605 57.8613 671.427 Q59.1026 670.217 59.1026 666.557 L59.1026 660.542 L64.0042 660.542 L64.0042 666.557 Q64.0042 673.337 61.4897 675.915 Q58.9434 678.493 52.2594 678.493 L32.9077 678.493 L32.9077 682.79 L28.3562 682.79 L28.3562 678.493 L18.2347 678.493 L18.2347 672.605 Z" fill="#000000" fill-rule="nonzero" fill-opacity="1" /><path clip-path="url(#clip730)" d="M67.3143 638.007 Q73.68 640.49 75.6216 642.845 Q77.5631 645.2 77.5631 649.147 L77.5631 653.826 L72.6615 653.826 L72.6615 650.388 Q72.6615 647.969 71.5157 646.633 Q70.3699 645.296 66.1048 643.672 L63.4312 642.622 L28.3562 657.04 L28.3562 650.834 L56.238 639.694 L28.3562 628.554 L28.3562 622.347 L67.3143 638.007 Z" fill="#000000" fill-rule="nonzero" fill-opacity="1" /><path clip-path="url(#clip730)" d="M438.726 14.0809 L438.726 22.0612 Q434.067 19.8332 429.935 18.7395 Q425.804 17.6457 421.955 17.6457 Q415.271 17.6457 411.625 20.2383 Q408.02 22.8309 408.02 27.611 Q408.02 31.6214 410.41 33.6873 Q412.841 35.7128 419.565 36.9686 L424.507 37.9813 Q433.662 39.7232 437.997 44.1387 Q442.372 48.5136 442.372 55.8863 Q442.372 64.6767 436.457 69.2137 Q430.584 73.7508 419.201 73.7508 Q414.907 73.7508 410.046 72.7785 Q405.225 71.8063 400.04 69.9024 L400.04 61.4765 Q405.022 64.2716 409.802 65.6895 Q414.583 67.1073 419.201 67.1073 Q426.209 67.1073 430.016 64.3527 Q433.824 61.598 433.824 56.4939 Q433.824 52.0379 431.07 49.5264 Q428.356 47.0148 422.117 45.759 L417.135 44.7868 Q407.98 42.9639 403.888 39.075 Q399.797 35.1862 399.797 28.2591 Q399.797 20.2383 405.427 15.6203 Q411.099 11.0023 421.023 11.0023 Q425.277 11.0023 429.692 11.7719 Q434.108 12.5416 438.726 14.0809 Z" fill="#000000" fill-rule="nonzero" fill-opacity="1" /><path clip-path="url(#clip730)" d="M472.389 32.4315 Q466.394 32.4315 462.91 37.1306 Q459.426 41.7891 459.426 49.9314 Q459.426 58.0738 462.869 62.7728 Q466.353 67.4314 472.389 67.4314 Q478.344 67.4314 481.828 62.7323 Q485.311 58.0333 485.311 49.9314 Q485.311 41.8701 481.828 37.1711 Q478.344 32.4315 472.389 32.4315 M472.389 26.1121 Q482.111 26.1121 487.661 32.4315 Q493.211 38.7509 493.211 49.9314 Q493.211 61.0714 487.661 67.4314 Q482.111 73.7508 472.389 73.7508 Q462.626 73.7508 457.077 67.4314 Q451.567 61.0714 451.567 49.9314 Q451.567 38.7509 457.077 32.4315 Q462.626 26.1121 472.389 26.1121 Z" fill="#000000" fill-rule="nonzero" fill-opacity="1" /><path clip-path="url(#clip730)" d="M531.856 34.1734 Q530.6 33.4443 529.102 33.1202 Q527.643 32.7556 525.861 32.7556 Q519.541 32.7556 516.139 36.8875 Q512.776 40.9789 512.776 48.6757 L512.776 72.576 L505.282 72.576 L505.282 27.2059 L512.776 27.2059 L512.776 34.2544 Q515.126 30.1225 518.893 28.1376 Q522.661 26.1121 528.048 26.1121 Q528.818 26.1121 529.75 26.2337 Q530.681 26.3147 531.816 26.5172 L531.856 34.1734 Z" fill="#000000" fill-rule="nonzero" fill-opacity="1" /><path clip-path="url(#clip730)" d="M547.047 14.324 L547.047 27.2059 L562.4 27.2059 L562.4 32.9987 L547.047 32.9987 L547.047 57.6282 Q547.047 63.1779 548.546 64.7578 Q550.085 66.3376 554.744 66.3376 L562.4 66.3376 L562.4 72.576 L554.744 72.576 Q546.115 72.576 542.834 69.3758 Q539.553 66.1351 539.553 57.6282 L539.553 32.9987 L534.084 32.9987 L534.084 27.2059 L539.553 27.2059 L539.553 14.324 L547.047 14.324 Z" fill="#000000" fill-rule="nonzero" fill-opacity="1" /><path clip-path="url(#clip730)" d="M611.011 48.0275 L611.011 51.6733 L576.74 51.6733 Q577.226 59.3701 581.358 63.421 Q585.531 67.4314 592.944 67.4314 Q597.238 67.4314 601.248 66.3781 Q605.299 65.3249 609.269 63.2184 L609.269 70.267 Q605.259 71.9684 601.046 72.8596 Q596.833 73.7508 592.498 73.7508 Q581.642 73.7508 575.282 67.4314 Q568.962 61.1119 568.962 50.3365 Q568.962 39.1965 574.958 32.6746 Q580.994 26.1121 591.202 26.1121 Q600.357 26.1121 605.664 32.0264 Q611.011 37.9003 611.011 48.0275 M603.557 45.84 Q603.476 39.7232 600.114 36.0774 Q596.792 32.4315 591.283 32.4315 Q585.045 32.4315 581.277 35.9558 Q577.55 39.4801 576.983 45.8805 L603.557 45.84 Z" fill="#000000" fill-rule="nonzero" fill-opacity="1" /><path clip-path="url(#clip730)" d="M653.1 34.0924 L653.1 9.54393 L660.553 9.54393 L660.553 72.576 L653.1 72.576 L653.1 65.7705 Q650.75 69.8214 647.145 71.8063 Q643.58 73.7508 638.557 73.7508 Q630.334 73.7508 625.149 67.1883 Q620.004 60.6258 620.004 49.9314 Q620.004 39.2371 625.149 32.6746 Q630.334 26.1121 638.557 26.1121 Q643.58 26.1121 647.145 28.0971 Q650.75 30.0415 653.1 34.0924 M627.701 49.9314 Q627.701 58.1548 631.063 62.8538 Q634.466 67.5124 640.38 67.5124 Q646.294 67.5124 649.697 62.8538 Q653.1 58.1548 653.1 49.9314 Q653.1 41.7081 649.697 37.0496 Q646.294 32.3505 640.38 32.3505 Q634.466 32.3505 631.063 37.0496 Q627.701 41.7081 627.701 49.9314 Z" fill="#000000" fill-rule="nonzero" fill-opacity="1" /><path clip-path="url(#clip730)" d="M734.928 28.9478 L734.928 35.9153 Q731.768 34.1734 728.568 33.3227 Q725.408 32.4315 722.168 32.4315 Q714.917 32.4315 710.906 37.0496 Q706.896 41.6271 706.896 49.9314 Q706.896 58.2358 710.906 62.8538 Q714.917 67.4314 722.168 67.4314 Q725.408 67.4314 728.568 66.5807 Q731.768 65.6895 734.928 63.9476 L734.928 70.8341 Q731.809 72.2924 728.447 73.0216 Q725.125 73.7508 721.358 73.7508 Q711.109 73.7508 705.073 67.3098 Q699.037 60.8689 699.037 49.9314 Q699.037 38.832 705.113 32.472 Q711.23 26.1121 721.844 26.1121 Q725.287 26.1121 728.568 26.8413 Q731.849 27.5299 734.928 28.9478 Z" fill="#000000" fill-rule="nonzero" fill-opacity="1" /><path clip-path="url(#clip730)" d="M765.472 32.4315 Q759.477 32.4315 755.993 37.1306 Q752.509 41.7891 752.509 49.9314 Q752.509 58.0738 755.952 62.7728 Q759.436 67.4314 765.472 67.4314 Q771.427 67.4314 774.91 62.7323 Q778.394 58.0333 778.394 49.9314 Q778.394 41.8701 774.91 37.1711 Q771.427 32.4315 765.472 32.4315 M765.472 26.1121 Q775.194 26.1121 780.744 32.4315 Q786.294 38.7509 786.294 49.9314 Q786.294 61.0714 780.744 67.4314 Q775.194 73.7508 765.472 73.7508 Q755.709 73.7508 750.159 67.4314 Q744.65 61.0714 744.65 49.9314 Q744.65 38.7509 750.159 32.4315 Q755.709 26.1121 765.472 26.1121 Z" fill="#000000" fill-rule="nonzero" fill-opacity="1" /><path clip-path="url(#clip730)" d="M827.572 28.5427 L827.572 35.5912 Q824.413 33.9709 821.01 33.1607 Q817.607 32.3505 813.961 32.3505 Q808.411 32.3505 805.616 34.0519 Q802.862 35.7533 802.862 39.156 Q802.862 41.7486 804.847 43.2475 Q806.832 44.7058 812.827 46.0426 L815.379 46.6097 Q823.319 48.3111 826.641 51.4303 Q830.003 54.509 830.003 60.0587 Q830.003 66.3781 824.98 70.0644 Q819.997 73.7508 811.247 73.7508 Q807.601 73.7508 803.631 73.0216 Q799.702 72.3329 795.327 70.9151 L795.327 63.2184 Q799.459 65.3654 803.469 66.4591 Q807.48 67.5124 811.409 67.5124 Q816.675 67.5124 819.511 65.73 Q822.347 63.9071 822.347 60.6258 Q822.347 57.5877 820.281 55.9673 Q818.255 54.3469 811.328 52.8481 L808.736 52.2405 Q801.808 50.7821 798.73 47.7845 Q795.651 44.7463 795.651 39.4801 Q795.651 33.0797 800.188 29.5959 Q804.725 26.1121 813.07 26.1121 Q817.202 26.1121 820.848 26.7198 Q824.494 27.3274 827.572 28.5427 Z" fill="#000000" fill-rule="nonzero" fill-opacity="1" /><path clip-path="url(#clip730)" d="M841.872 27.2059 L849.326 27.2059 L849.326 72.576 L841.872 72.576 L841.872 27.2059 M841.872 9.54393 L849.326 9.54393 L849.326 18.9825 L841.872 18.9825 L841.872 9.54393 Z" fill="#000000" fill-rule="nonzero" fill-opacity="1" /><path clip-path="url(#clip730)" d="M902.635 45.1919 L902.635 72.576 L895.182 72.576 L895.182 45.4349 Q895.182 38.994 892.67 35.7938 Q890.159 32.5936 885.136 32.5936 Q879.1 32.5936 875.616 36.4419 Q872.132 40.2903 872.132 46.9338 L872.132 72.576 L864.638 72.576 L864.638 27.2059 L872.132 27.2059 L872.132 34.2544 Q874.806 30.163 878.411 28.1376 Q882.057 26.1121 886.796 26.1121 Q894.615 26.1121 898.625 30.9732 Q902.635 35.7938 902.635 45.1919 Z" fill="#000000" fill-rule="nonzero" fill-opacity="1" /><path clip-path="url(#clip730)" d="M956.31 48.0275 L956.31 51.6733 L922.039 51.6733 Q922.525 59.3701 926.657 63.421 Q930.83 67.4314 938.243 67.4314 Q942.537 67.4314 946.547 66.3781 Q950.598 65.3249 954.568 63.2184 L954.568 70.267 Q950.558 71.9684 946.345 72.8596 Q942.132 73.7508 937.797 73.7508 Q926.941 73.7508 920.581 67.4314 Q914.262 61.1119 914.262 50.3365 Q914.262 39.1965 920.257 32.6746 Q926.293 26.1121 936.501 26.1121 Q945.656 26.1121 950.963 32.0264 Q956.31 37.9003 956.31 48.0275 M948.856 45.84 Q948.775 39.7232 945.413 36.0774 Q942.091 32.4315 936.582 32.4315 Q930.344 32.4315 926.576 35.9558 Q922.849 39.4801 922.282 45.8805 L948.856 45.84 Z" fill="#000000" fill-rule="nonzero" fill-opacity="1" /><path clip-path="url(#clip730)" d="M1023.84 28.5427 L1023.84 35.5912 Q1020.68 33.9709 1017.28 33.1607 Q1013.87 32.3505 1010.23 32.3505 Q1004.68 32.3505 1001.88 34.0519 Q999.128 35.7533 999.128 39.156 Q999.128 41.7486 1001.11 43.2475 Q1003.1 44.7058 1009.09 46.0426 L1011.65 46.6097 Q1019.59 48.3111 1022.91 51.4303 Q1026.27 54.509 1026.27 60.0587 Q1026.27 66.3781 1021.25 70.0644 Q1016.26 73.7508 1007.51 73.7508 Q1003.87 73.7508 999.898 73.0216 Q995.968 72.3329 991.593 70.9151 L991.593 63.2184 Q995.725 65.3654 999.736 66.4591 Q1003.75 67.5124 1007.68 67.5124 Q1012.94 67.5124 1015.78 65.73 Q1018.61 63.9071 1018.61 60.6258 Q1018.61 57.5877 1016.55 55.9673 Q1014.52 54.3469 1007.59 52.8481 L1005 52.2405 Q998.075 50.7821 994.996 47.7845 Q991.917 44.7463 991.917 39.4801 Q991.917 33.0797 996.454 29.5959 Q1000.99 26.1121 1009.34 26.1121 Q1013.47 26.1121 1017.11 26.7198 Q1020.76 27.3274 1023.84 28.5427 Z" fill="#000000" fill-rule="nonzero" fill-opacity="1" /><path clip-path="url(#clip730)" d="M1038.14 27.2059 L1045.59 27.2059 L1045.59 72.576 L1038.14 72.576 L1038.14 27.2059 M1038.14 9.54393 L1045.59 9.54393 L1045.59 18.9825 L1038.14 18.9825 L1038.14 9.54393 Z" fill="#000000" fill-rule="nonzero" fill-opacity="1" /><path clip-path="url(#clip730)" d="M1096.51 35.9153 Q1099.31 30.8922 1103.2 28.5022 Q1107.08 26.1121 1112.35 26.1121 Q1119.44 26.1121 1123.29 31.0947 Q1127.14 36.0368 1127.14 45.1919 L1127.14 72.576 L1119.64 72.576 L1119.64 45.4349 Q1119.64 38.913 1117.33 35.7533 Q1115.02 32.5936 1110.28 32.5936 Q1104.49 32.5936 1101.13 36.4419 Q1097.77 40.2903 1097.77 46.9338 L1097.77 72.576 L1090.27 72.576 L1090.27 45.4349 Q1090.27 38.8725 1087.96 35.7533 Q1085.66 32.5936 1080.83 32.5936 Q1075.12 32.5936 1071.76 36.4824 Q1068.4 40.3308 1068.4 46.9338 L1068.4 72.576 L1060.9 72.576 L1060.9 27.2059 L1068.4 27.2059 L1068.4 34.2544 Q1070.95 30.082 1074.52 28.0971 Q1078.08 26.1121 1082.98 26.1121 Q1087.92 26.1121 1091.37 28.6237 Q1094.85 31.1352 1096.51 35.9153 Z" fill="#000000" fill-rule="nonzero" fill-opacity="1" /><path clip-path="url(#clip730)" d="M1142 27.2059 L1149.46 27.2059 L1149.46 72.576 L1142 72.576 L1142 27.2059 M1142 9.54393 L1149.46 9.54393 L1149.46 18.9825 L1142 18.9825 L1142 9.54393 Z" fill="#000000" fill-rule="nonzero" fill-opacity="1" /><path clip-path="url(#clip730)" d="M1165.05 9.54393 L1172.51 9.54393 L1172.51 72.576 L1165.05 72.576 L1165.05 9.54393 Z" fill="#000000" fill-rule="nonzero" fill-opacity="1" /><path clip-path="url(#clip730)" d="M1208.72 49.7694 Q1199.69 49.7694 1196.2 51.8354 Q1192.72 53.9013 1192.72 58.8839 Q1192.72 62.8538 1195.31 65.2034 Q1197.95 67.5124 1202.44 67.5124 Q1208.64 67.5124 1212.37 63.1374 Q1216.13 58.7219 1216.13 51.4303 L1216.13 49.7694 L1208.72 49.7694 M1223.59 46.6907 L1223.59 72.576 L1216.13 72.576 L1216.13 65.6895 Q1213.58 69.8214 1209.78 71.8063 Q1205.97 73.7508 1200.46 73.7508 Q1193.49 73.7508 1189.36 69.8619 Q1185.27 65.9325 1185.27 59.3701 Q1185.27 51.7138 1190.37 47.825 Q1195.52 43.9361 1205.68 43.9361 L1216.13 43.9361 L1216.13 43.2069 Q1216.13 38.0623 1212.73 35.2672 Q1209.37 32.4315 1203.25 32.4315 Q1199.36 32.4315 1195.68 33.3632 Q1191.99 34.295 1188.59 36.1584 L1188.59 29.2718 Q1192.68 27.692 1196.53 26.9223 Q1200.38 26.1121 1204.02 26.1121 Q1213.87 26.1121 1218.73 31.2163 Q1223.59 36.3204 1223.59 46.6907 Z" fill="#000000" fill-rule="nonzero" fill-opacity="1" /><path clip-path="url(#clip730)" d="M1265.23 34.1734 Q1263.98 33.4443 1262.48 33.1202 Q1261.02 32.7556 1259.24 32.7556 Q1252.92 32.7556 1249.51 36.8875 Q1246.15 40.9789 1246.15 48.6757 L1246.15 72.576 L1238.66 72.576 L1238.66 27.2059 L1246.15 27.2059 L1246.15 34.2544 Q1248.5 30.1225 1252.27 28.1376 Q1256.04 26.1121 1261.42 26.1121 Q1262.19 26.1121 1263.13 26.2337 Q1264.06 26.3147 1265.19 26.5172 L1265.23 34.1734 Z" fill="#000000" fill-rule="nonzero" fill-opacity="1" /><path clip-path="url(#clip730)" d="M1273.05 27.2059 L1280.5 27.2059 L1280.5 72.576 L1273.05 72.576 L1273.05 27.2059 M1273.05 9.54393 L1280.5 9.54393 L1280.5 18.9825 L1273.05 18.9825 L1273.05 9.54393 Z" fill="#000000" fill-rule="nonzero" fill-opacity="1" /><path clip-path="url(#clip730)" d="M1303.47 14.324 L1303.47 27.2059 L1318.83 27.2059 L1318.83 32.9987 L1303.47 32.9987 L1303.47 57.6282 Q1303.47 63.1779 1304.97 64.7578 Q1306.51 66.3376 1311.17 66.3376 L1318.83 66.3376 L1318.83 72.576 L1311.17 72.576 Q1302.54 72.576 1299.26 69.3758 Q1295.98 66.1351 1295.98 57.6282 L1295.98 32.9987 L1290.51 32.9987 L1290.51 27.2059 L1295.98 27.2059 L1295.98 14.324 L1303.47 14.324 Z" fill="#000000" fill-rule="nonzero" fill-opacity="1" /><path clip-path="url(#clip730)" d="M1328.63 27.2059 L1336.08 27.2059 L1336.08 72.576 L1328.63 72.576 L1328.63 27.2059 M1328.63 9.54393 L1336.08 9.54393 L1336.08 18.9825 L1328.63 18.9825 L1328.63 9.54393 Z" fill="#000000" fill-rule="nonzero" fill-opacity="1" /><path clip-path="url(#clip730)" d="M1390.49 48.0275 L1390.49 51.6733 L1356.22 51.6733 Q1356.7 59.3701 1360.83 63.421 Q1365.01 67.4314 1372.42 67.4314 Q1376.71 67.4314 1380.72 66.3781 Q1384.77 65.3249 1388.74 63.2184 L1388.74 70.267 Q1384.73 71.9684 1380.52 72.8596 Q1376.31 73.7508 1371.97 73.7508 Q1361.12 73.7508 1354.76 67.4314 Q1348.44 61.1119 1348.44 50.3365 Q1348.44 39.1965 1354.43 32.6746 Q1360.47 26.1121 1370.68 26.1121 Q1379.83 26.1121 1385.14 32.0264 Q1390.49 37.9003 1390.49 48.0275 M1383.03 45.84 Q1382.95 39.7232 1379.59 36.0774 Q1376.27 32.4315 1370.76 32.4315 Q1364.52 32.4315 1360.75 35.9558 Q1357.03 39.4801 1356.46 45.8805 L1383.03 45.84 Z" fill="#000000" fill-rule="nonzero" fill-opacity="1" /><path clip-path="url(#clip730)" d="M1431.64 28.5427 L1431.64 35.5912 Q1428.48 33.9709 1425.08 33.1607 Q1421.68 32.3505 1418.03 32.3505 Q1412.48 32.3505 1409.69 34.0519 Q1406.93 35.7533 1406.93 39.156 Q1406.93 41.7486 1408.92 43.2475 Q1410.9 44.7058 1416.9 46.0426 L1419.45 46.6097 Q1427.39 48.3111 1430.71 51.4303 Q1434.07 54.509 1434.07 60.0587 Q1434.07 66.3781 1429.05 70.0644 Q1424.07 73.7508 1415.32 73.7508 Q1411.67 73.7508 1407.7 73.0216 Q1403.77 72.3329 1399.4 70.9151 L1399.4 63.2184 Q1403.53 65.3654 1407.54 66.4591 Q1411.55 67.5124 1415.48 67.5124 Q1420.75 67.5124 1423.58 65.73 Q1426.42 63.9071 1426.42 60.6258 Q1426.42 57.5877 1424.35 55.9673 Q1422.33 54.3469 1415.4 52.8481 L1412.81 52.2405 Q1405.88 50.7821 1402.8 47.7845 Q1399.72 44.7463 1399.72 39.4801 Q1399.72 33.0797 1404.26 29.5959 Q1408.8 26.1121 1417.14 26.1121 Q1421.27 26.1121 1424.92 26.7198 Q1428.56 27.3274 1431.64 28.5427 Z" fill="#000000" fill-rule="nonzero" fill-opacity="1" /><path clip-path="url(#clip730)" d="M1504.96 28.9478 L1504.96 35.9153 Q1501.8 34.1734 1498.6 33.3227 Q1495.44 32.4315 1492.2 32.4315 Q1484.95 32.4315 1480.94 37.0496 Q1476.93 41.6271 1476.93 49.9314 Q1476.93 58.2358 1480.94 62.8538 Q1484.95 67.4314 1492.2 67.4314 Q1495.44 67.4314 1498.6 66.5807 Q1501.8 65.6895 1504.96 63.9476 L1504.96 70.8341 Q1501.85 72.2924 1498.48 73.0216 Q1495.16 73.7508 1491.39 73.7508 Q1481.15 73.7508 1475.11 67.3098 Q1469.07 60.8689 1469.07 49.9314 Q1469.07 38.832 1475.15 32.472 Q1481.27 26.1121 1491.88 26.1121 Q1495.32 26.1121 1498.6 26.8413 Q1501.89 27.5299 1504.96 28.9478 Z" fill="#000000" fill-rule="nonzero" fill-opacity="1" /><path clip-path="url(#clip730)" d="M1556.73 48.0275 L1556.73 51.6733 L1522.46 51.6733 Q1522.95 59.3701 1527.08 63.421 Q1531.25 67.4314 1538.67 67.4314 Q1542.96 67.4314 1546.97 66.3781 Q1551.02 65.3249 1554.99 63.2184 L1554.99 70.267 Q1550.98 71.9684 1546.77 72.8596 Q1542.56 73.7508 1538.22 73.7508 Q1527.37 73.7508 1521.01 67.4314 Q1514.69 61.1119 1514.69 50.3365 Q1514.69 39.1965 1520.68 32.6746 Q1526.72 26.1121 1536.93 26.1121 Q1546.08 26.1121 1551.39 32.0264 Q1556.73 37.9003 1556.73 48.0275 M1549.28 45.84 Q1549.2 39.7232 1545.84 36.0774 Q1542.52 32.4315 1537.01 32.4315 Q1530.77 32.4315 1527 35.9558 Q1523.27 39.4801 1522.71 45.8805 L1549.28 45.84 Z" fill="#000000" fill-rule="nonzero" fill-opacity="1" /><path clip-path="url(#clip730)" d="M1568.97 9.54393 L1576.42 9.54393 L1576.42 72.576 L1568.97 72.576 L1568.97 9.54393 Z" fill="#000000" fill-rule="nonzero" fill-opacity="1" /><path clip-path="url(#clip730)" d="M1592.02 9.54393 L1599.47 9.54393 L1599.47 72.576 L1592.02 72.576 L1592.02 9.54393 Z" fill="#000000" fill-rule="nonzero" fill-opacity="1" /><path clip-path="url(#clip730)" d="M1643.91 65.6895 L1657.28 65.6895 L1657.28 19.5497 L1642.74 22.4663 L1642.74 15.0127 L1657.2 12.096 L1665.38 12.096 L1665.38 65.6895 L1678.75 65.6895 L1678.75 72.576 L1643.91 72.576 L1643.91 65.6895 Z" fill="#000000" fill-rule="nonzero" fill-opacity="1" /><path clip-path="url(#clip730)" d="M1712.78 17.4837 Q1706.46 17.4837 1703.26 23.7221 Q1700.1 29.92 1700.1 42.3968 Q1700.1 54.833 1703.26 61.0714 Q1706.46 67.2693 1712.78 67.2693 Q1719.14 67.2693 1722.3 61.0714 Q1725.5 54.833 1725.5 42.3968 Q1725.5 29.92 1722.3 23.7221 Q1719.14 17.4837 1712.78 17.4837 M1712.78 11.0023 Q1722.94 11.0023 1728.29 19.0636 Q1733.68 27.0843 1733.68 42.3968 Q1733.68 57.6687 1728.29 65.73 Q1722.94 73.7508 1712.78 73.7508 Q1702.61 73.7508 1697.22 65.73 Q1691.87 57.6687 1691.87 42.3968 Q1691.87 27.0843 1697.22 19.0636 Q1702.61 11.0023 1712.78 11.0023 Z" fill="#000000" fill-rule="nonzero" fill-opacity="1" /><path clip-path="url(#clip730)" d="M1765.56 17.4837 Q1759.24 17.4837 1756.04 23.7221 Q1752.88 29.92 1752.88 42.3968 Q1752.88 54.833 1756.04 61.0714 Q1759.24 67.2693 1765.56 67.2693 Q1771.92 67.2693 1775.08 61.0714 Q1778.28 54.833 1778.28 42.3968 Q1778.28 29.92 1775.08 23.7221 Q1771.92 17.4837 1765.56 17.4837 M1765.56 11.0023 Q1775.73 11.0023 1781.07 19.0636 Q1786.46 27.0843 1786.46 42.3968 Q1786.46 57.6687 1781.07 65.73 Q1775.73 73.7508 1765.56 73.7508 Q1755.39 73.7508 1750 65.73 Q1744.66 57.6687 1744.66 42.3968 Q1744.66 27.0843 1750 19.0636 Q1755.39 11.0023 1765.56 11.0023 Z" fill="#000000" fill-rule="nonzero" fill-opacity="1" /><path clip-path="url(#clip730)" d="M1826.16 27.2059 L1833.61 27.2059 L1833.61 72.576 L1826.16 72.576 L1826.16 27.2059 M1826.16 9.54393 L1833.61 9.54393 L1833.61 18.9825 L1826.16 18.9825 L1826.16 9.54393 Z" fill="#000000" fill-rule="nonzero" fill-opacity="1" /><path clip-path="url(#clip730)" d="M1856.58 14.324 L1856.58 27.2059 L1871.94 27.2059 L1871.94 32.9987 L1856.58 32.9987 L1856.58 57.6282 Q1856.58 63.1779 1858.08 64.7578 Q1859.62 66.3376 1864.28 66.3376 L1871.94 66.3376 L1871.94 72.576 L1864.28 72.576 Q1855.65 72.576 1852.37 69.3758 Q1849.09 66.1351 1849.09 57.6282 L1849.09 32.9987 L1843.62 32.9987 L1843.62 27.2059 L1849.09 27.2059 L1849.09 14.324 L1856.58 14.324 Z" fill="#000000" fill-rule="nonzero" fill-opacity="1" /><path clip-path="url(#clip730)" d="M1920.55 48.0275 L1920.55 51.6733 L1886.28 51.6733 Q1886.76 59.3701 1890.89 63.421 Q1895.07 67.4314 1902.48 67.4314 Q1906.77 67.4314 1910.78 66.3781 Q1914.83 65.3249 1918.8 63.2184 L1918.8 70.267 Q1914.79 71.9684 1910.58 72.8596 Q1906.37 73.7508 1902.03 73.7508 Q1891.18 73.7508 1884.82 67.4314 Q1878.5 61.1119 1878.5 50.3365 Q1878.5 39.1965 1884.49 32.6746 Q1890.53 26.1121 1900.74 26.1121 Q1909.89 26.1121 1915.2 32.0264 Q1920.55 37.9003 1920.55 48.0275 M1913.09 45.84 Q1913.01 39.7232 1909.65 36.0774 Q1906.33 32.4315 1900.82 32.4315 Q1894.58 32.4315 1890.81 35.9558 Q1887.09 39.4801 1886.52 45.8805 L1913.09 45.84 Z" fill="#000000" fill-rule="nonzero" fill-opacity="1" /><path clip-path="url(#clip730)" d="M1959.07 34.1734 Q1957.82 33.4443 1956.32 33.1202 Q1954.86 32.7556 1953.08 32.7556 Q1946.76 32.7556 1943.35 36.8875 Q1939.99 40.9789 1939.99 48.6757 L1939.99 72.576 L1932.5 72.576 L1932.5 27.2059 L1939.99 27.2059 L1939.99 34.2544 Q1942.34 30.1225 1946.11 28.1376 Q1949.88 26.1121 1955.26 26.1121 Q1956.03 26.1121 1956.96 26.2337 Q1957.9 26.3147 1959.03 26.5172 L1959.07 34.1734 Z" fill="#000000" fill-rule="nonzero" fill-opacity="1" /><path clip-path="url(#clip730)" d="M1987.51 49.7694 Q1978.47 49.7694 1974.99 51.8354 Q1971.51 53.9013 1971.51 58.8839 Q1971.51 62.8538 1974.1 65.2034 Q1976.73 67.5124 1981.23 67.5124 Q1987.43 67.5124 1991.15 63.1374 Q1994.92 58.7219 1994.92 51.4303 L1994.92 49.7694 L1987.51 49.7694 M2002.37 46.6907 L2002.37 72.576 L1994.92 72.576 L1994.92 65.6895 Q1992.37 69.8214 1988.56 71.8063 Q1984.75 73.7508 1979.24 73.7508 Q1972.28 73.7508 1968.14 69.8619 Q1964.05 65.9325 1964.05 59.3701 Q1964.05 51.7138 1969.16 47.825 Q1974.3 43.9361 1984.47 43.9361 L1994.92 43.9361 L1994.92 43.2069 Q1994.92 38.0623 1991.52 35.2672 Q1988.16 32.4315 1982.04 32.4315 Q1978.15 32.4315 1974.46 33.3632 Q1970.78 34.295 1967.38 36.1584 L1967.38 29.2718 Q1971.47 27.692 1975.31 26.9223 Q1979.16 26.1121 1982.81 26.1121 Q1992.65 26.1121 1997.51 31.2163 Q2002.37 36.3204 2002.37 46.6907 Z" fill="#000000" fill-rule="nonzero" fill-opacity="1" /><path clip-path="url(#clip730)" d="M2025.1 14.324 L2025.1 27.2059 L2040.45 27.2059 L2040.45 32.9987 L2025.1 32.9987 L2025.1 57.6282 Q2025.1 63.1779 2026.6 64.7578 Q2028.14 66.3376 2032.8 66.3376 L2040.45 66.3376 L2040.45 72.576 L2032.8 72.576 Q2024.17 72.576 2020.89 69.3758 Q2017.61 66.1351 2017.61 57.6282 L2017.61 32.9987 L2012.14 32.9987 L2012.14 27.2059 L2017.61 27.2059 L2017.61 14.324 L2025.1 14.324 Z" fill="#000000" fill-rule="nonzero" fill-opacity="1" /><path clip-path="url(#clip730)" d="M2050.26 27.2059 L2057.71 27.2059 L2057.71 72.576 L2050.26 72.576 L2050.26 27.2059 M2050.26 9.54393 L2057.71 9.54393 L2057.71 18.9825 L2050.26 18.9825 L2050.26 9.54393 Z" fill="#000000" fill-rule="nonzero" fill-opacity="1" /><path clip-path="url(#clip730)" d="M2090.89 32.4315 Q2084.89 32.4315 2081.41 37.1306 Q2077.92 41.7891 2077.92 49.9314 Q2077.92 58.0738 2081.37 62.7728 Q2084.85 67.4314 2090.89 67.4314 Q2096.84 67.4314 2100.33 62.7323 Q2103.81 58.0333 2103.81 49.9314 Q2103.81 41.8701 2100.33 37.1711 Q2096.84 32.4315 2090.89 32.4315 M2090.89 26.1121 Q2100.61 26.1121 2106.16 32.4315 Q2111.71 38.7509 2111.71 49.9314 Q2111.71 61.0714 2106.16 67.4314 Q2100.61 73.7508 2090.89 73.7508 Q2081.12 73.7508 2075.57 67.4314 Q2070.07 61.0714 2070.07 49.9314 Q2070.07 38.7509 2075.57 32.4315 Q2081.12 26.1121 2090.89 26.1121 Z" fill="#000000" fill-rule="nonzero" fill-opacity="1" /><path clip-path="url(#clip730)" d="M2161.78 45.1919 L2161.78 72.576 L2154.32 72.576 L2154.32 45.4349 Q2154.32 38.994 2151.81 35.7938 Q2149.3 32.5936 2144.28 32.5936 Q2138.24 32.5936 2134.76 36.4419 Q2131.27 40.2903 2131.27 46.9338 L2131.27 72.576 L2123.78 72.576 L2123.78 27.2059 L2131.27 27.2059 L2131.27 34.2544 Q2133.95 30.163 2137.55 28.1376 Q2141.2 26.1121 2145.94 26.1121 Q2153.76 26.1121 2157.77 30.9732 Q2161.78 35.7938 2161.78 45.1919 Z" fill="#000000" fill-rule="nonzero" fill-opacity="1" /><path clip-path="url(#clip730)" d="M2205.49 65.6895 L2218.86 65.6895 L2218.86 19.5497 L2204.31 22.4663 L2204.31 15.0127 L2218.77 12.096 L2226.96 12.096 L2226.96 65.6895 L2240.33 65.6895 L2240.33 72.576 L2205.49 72.576 L2205.49 65.6895 Z" fill="#000000" fill-rule="nonzero" fill-opacity="1" /><polyline clip-path="url(#clip732)" style="stroke:#009af9; stroke-linecap:round; stroke-linejoin:round; stroke-width:4; stroke-opacity:1; fill:none" points="345.82,1386.4 347.771,1386.36 349.721,1386.36 351.672,1386.34 353.622,1386.32 355.572,1386.31 357.523,1386.31 359.473,1386.3 361.424,1386.29 363.374,1386.28 365.325,1386.28 367.275,1386.28 369.226,1386.27 371.176,1386.27 373.126,1386.27 375.077,1386.26 377.027,1386.26 378.978,1386.25 380.928,1386.25 382.879,1386.25 384.829,1386.25 386.779,1386.24 388.73,1386.23 390.68,1386.23 392.631,1386.22 394.581,1386.22 396.532,1386.22 398.482,1386.21 400.432,1386.21 402.383,1386.21 404.333,1386.2 406.284,1386.2 408.234,1386.2 410.185,1386.19 412.135,1386.18 414.085,1386.18 416.036,1386.18 417.986,1386.18 419.937,1386.17 421.887,1386.17 423.838,1386.16 425.788,1386.16 427.738,1386.16 429.689,1386.16 431.639,1386.15 433.59,1386.15 435.54,1386.15 437.491,1386.15 439.441,1386.15 441.391,1386.15 443.342,1386.14 445.292,1386.14 447.243,1386.14 449.193,1386.14 451.144,1386.14 453.094,1386.14 455.045,1386.13 456.995,1386.13 458.945,1386.12 460.896,1386.12 462.846,1386.11 464.797,1386.11 466.747,1386.11 468.698,1386.11 470.648,1386.1 472.598,1386.1 474.549,1386.1 476.499,1386.09 478.45,1386.09 480.4,1386.09 482.351,1386.08 484.301,1386.08 486.251,1386.07 488.202,1386.06 490.152,1386.05 492.103,1386.05 494.053,1386.04 496.004,1386.03 497.954,1386.03 499.904,1386.02 501.855,1386.02 503.805,1386.02 505.756,1386.02 507.706,1386.02 509.657,1386.01 511.607,1386.01 513.557,1386 515.508,1386 517.458,1386 519.409,1386 521.359,1385.99 523.31,1385.98 525.26,1385.98 527.21,1385.97 529.161,1385.96 531.111,1385.96 533.062,1385.96 535.012,1385.95 536.963,1385.94 538.913,1385.94 540.863,1385.93 542.814,1385.93 544.764,1385.92 546.715,1385.91 548.665,1385.91 550.616,1385.9 552.566,1385.88 554.517,1385.87 556.467,1385.87 558.417,1385.86 560.368,1385.86 562.318,1385.85 564.269,1385.84 566.219,1385.84 568.17,1385.84 570.12,1385.81 572.07,1385.8 574.021,1385.79 575.971,1385.78 577.922,1385.78 579.872,1385.77 581.823,1385.75 583.773,1385.75 585.723,1385.73 587.674,1385.7 589.624,1385.69 591.575,1385.68 593.525,1385.67 595.476,1385.66 597.426,1385.64 599.376,1385.64 601.327,1385.63 603.277,1385.62 605.228,1385.6 607.178,1385.59 609.129,1385.54 611.079,1385.51 613.029,1385.51 614.98,1385.5 616.93,1385.46 618.881,1385.46 620.831,1385.46 622.782,1385.42 624.732,1385.39 626.682,1385.33 628.633,1385.31 630.583,1385.3 632.534,1385.29 634.484,1385.27 636.435,1385.26 638.385,1385.25 640.336,1385.2 642.286,1385.13 644.236,1385.08 646.187,1385.08 648.137,1385.07 650.088,1385.07 652.038,1385.03 653.989,1384.99 655.939,1384.94 657.889,1384.9 659.84,1384.9 661.79,1384.88 663.741,1384.85 665.691,1384.82 667.642,1384.65 669.592,1384.65 671.542,1384.56 673.493,1384.49 675.443,1384.49 677.394,1384.48 679.344,1384.48 681.295,1384.46 683.245,1384.43 685.195,1384.35 687.146,1384.31 689.096,1384.28 691.047,1384.22 692.997,1384.1 694.948,1384.05 696.898,1384.03 698.848,1383.97 700.799,1383.87 702.749,1383.82 704.7,1383.82 706.65,1383.72 708.601,1383.49 710.551,1383.43 712.501,1383.4 714.452,1383.09 716.402,1382.94 718.353,1382.78 720.303,1382.61 722.254,1382.37 724.204,1382.32 726.154,1382.1 728.105,1382.05 730.055,1381.31 732.006,1381.29 733.956,1380.87 735.907,1380.74 737.857,1380.38 739.808,1380.36 741.758,1380.27 743.708,1380.13 745.659,1380.12 747.609,1379.92 749.56,1379.87 751.51,1379.3 753.461,1379.07 755.411,1378.84 757.361,1378.59 759.312,1378.02 761.262,1377.92 763.213,1377.48 765.163,1376.99 767.114,1376.77 769.064,1376.44 771.014,1374.13 772.965,1373.44 774.915,1372.7 776.866,1372.46 778.816,1372.42 780.767,1372.4 782.717,1371.25 784.667,1370.66 786.618,1370.12 788.568,1369.55 790.519,1367.35 792.469,1365.53 794.42,1365.35 796.37,1364.52 798.32,1362.81 800.271,1361.71 802.221,1359.7 804.172,1356.29 806.122,1354.07 808.073,1350.92 810.023,1349.8 811.973,1348.82 813.924,1346.01 815.874,1340.94 817.825,1340.77 819.775,1339.33 821.726,1329.04 823.676,1320.97 825.627,1316.09 827.577,1308.74 829.527,1241.45 831.478,1056.53 833.428,865.621 835.379,788.486 837.329,785.447 839.28,784.874 841.23,784.808 843.18,784.774 845.131,784.77 847.081,784.744 849.032,784.741 850.982,784.736 852.933,784.716 854.883,784.706 856.833,784.694 858.784,784.69 860.734,784.679 862.685,784.671 864.635,784.667 866.586,784.647 868.536,784.641 870.486,784.638 872.437,784.636 874.387,784.631 876.338,784.622 878.288,784.616 880.239,784.614 882.189,784.606 884.139,784.584 886.09,784.577 888.04,784.571 889.991,784.56 891.941,784.559 893.892,784.55 895.842,784.545 897.792,784.538 899.743,784.526 901.693,784.509 903.644,784.508 905.594,784.49 907.545,784.48 909.495,784.479 911.445,784.476 913.396,784.454 915.346,784.449 917.297,784.44 919.247,784.439 921.198,784.439 923.148,784.431 925.099,784.425 927.049,784.425 928.999,784.424 930.95,784.422 932.9,784.421 934.851,784.419 936.801,784.414 938.752,784.413 940.702,784.412 942.652,784.411 944.603,784.41 946.553,784.41 948.504,784.409 950.454,784.409 952.405,784.409 954.355,784.408 956.305,784.408 958.256,784.408 960.206,784.408 962.157,784.408 964.107,784.407 966.058,784.407 968.008,784.407 969.958,784.407 971.909,784.407 973.859,784.406 975.81,784.406 977.76,784.406 979.711,784.406 981.661,784.405 983.611,784.405 985.562,784.405 987.512,784.405 989.463,784.405 991.413,784.405 993.364,784.405 995.314,784.405 997.264,784.405 999.215,784.404 1001.17,784.404 1003.12,784.404 1005.07,784.404 1007.02,784.404 1008.97,784.404 1010.92,784.403 1012.87,784.403 1014.82,784.403 1016.77,784.402 1018.72,784.401 1020.67,784.401 1022.62,784.401 1024.57,784.401 1026.52,784.401 1028.47,784.4 1030.42,784.399 1032.37,784.399 1034.32,784.398 1036.27,784.398 1038.22,784.397 1040.17,784.396 1042.12,784.394 1044.07,784.394 1046.03,784.393 1047.98,784.393 1049.93,784.392 1051.88,784.392 1053.83,784.392 1055.78,784.392 1057.73,784.391 1059.68,784.391 1061.63,784.39 1063.58,784.388 1065.53,784.388 1067.48,784.387 1069.43,784.386 1071.38,784.386 1073.33,784.384 1075.28,784.384 1077.23,784.384 1079.18,784.383 1081.13,784.378 1083.08,784.376 1085.03,784.374 1086.98,784.371 1088.93,784.37 1090.89,784.37 1092.84,784.369 1094.79,784.369 1096.74,784.364 1098.69,784.364 1100.64,784.364 1102.59,784.358 1104.54,784.357 1106.49,784.356 1108.44,784.356 1110.39,784.355 1112.34,784.355 1114.29,784.354 1116.24,784.353 1118.19,784.353 1120.14,784.353 1122.09,784.352 1124.04,784.352 1125.99,784.344 1127.94,784.343 1129.89,784.342 1131.84,784.338 1133.79,784.338 1135.75,784.337 1137.7,784.335 1139.65,784.335 1141.6,784.334 1143.55,784.333 1145.5,784.33 1147.45,784.325 1149.4,784.321 1151.35,784.319 1153.3,784.317 1155.25,784.314 1157.2,784.31 1159.15,784.31 1161.1,784.309 1163.05,784.308 1165,784.3 1166.95,784.299 1168.9,784.295 1170.85,784.293 1172.8,784.29 1174.75,784.287 1176.7,784.287 1178.65,784.286 1180.61,784.285 1182.56,784.284 1184.51,784.281 1186.46,784.28 1188.41,784.267 1190.36,784.265 1192.31,784.265 1194.26,784.259 1196.21,784.258 1198.16,784.257 1200.11,784.256 1202.06,784.256 1204.01,784.248 1205.96,784.243 1207.91,784.23 1209.86,784.225 1211.81,784.22 1213.76,784.22 1215.71,784.218 1217.66,784.216 1219.61,784.216 1221.56,784.215 1223.51,784.213 1225.46,784.211 1227.42,784.209 1229.37,784.204 1231.32,784.203 1233.27,784.201 1235.22,784.201 1237.17,784.2 1239.12,784.2 1241.07,784.197 1243.02,784.197 1244.97,784.197 1246.92,784.197 1248.87,784.196 1250.82,784.195 1252.77,784.195 1254.72,784.193 1256.67,784.19 1258.62,784.19 1260.57,784.189 1262.52,784.187 1264.47,784.185 1266.42,784.185 1268.37,784.184 1270.32,784.181 1272.28,784.181 1274.23,784.178 1276.18,784.175 1278.13,784.175 1280.08,784.174 1282.03,784.174 1283.98,784.172 1285.93,784.168 1287.88,784.166 1289.83,784.163 1291.78,784.163 1293.73,784.161 1295.68,784.161 1297.63,784.156 1299.58,784.154 1301.53,784.152 1303.48,784.15 1305.43,784.147 1307.38,784.147 1309.33,784.145 1311.28,784.138 1313.23,784.137 1315.18,784.137 1317.14,784.135 1319.09,784.133 1321.04,730.02 1322.99,726.375 1324.94,723.941 1326.89,711.37 1328.84,705.18 1330.79,698.56 1332.74,691.63 1334.69,683.523 1336.64,682.068 1338.59,676.177 1340.54,671.271 1342.49,668.945 1344.44,668.021 1346.39,664.312 1348.34,664.305 1350.29,663.526 1352.24,662.754 1354.19,661.728 1356.14,660.325 1358.09,658.19 1360.04,658.098 1362,657.774 1363.95,657.591 1365.9,657.359 1367.85,657.334 1369.8,657.256 1371.75,656.501 1373.7,656.049 1375.65,655.887 1377.6,655.652 1379.55,655.523 1381.5,655.31 1383.45,655.033 1385.4,654.977 1387.35,654.933 1389.3,654.758 1391.25,653.812 1393.2,653.713 1395.15,653.604 1397.1,653.572 1399.05,653.487 1401,653.466 1402.95,653.281 1404.9,653.274 1406.86,653.237 1408.81,653.174 1410.76,653.13 1412.71,653.12 1414.66,653 1416.61,652.803 1418.56,652.741 1420.51,652.71 1422.46,652.624 1424.41,652.596 1426.36,652.584 1428.31,652.578 1430.26,652.568 1432.21,652.511 1434.16,652.463 1436.11,652.448 1438.06,652.44 1440.01,652.431 1441.96,652.384 1443.91,652.379 1445.86,652.352 1447.81,652.322 1449.76,652.321 1451.72,652.316 1453.67,652.293 1455.62,652.288 1457.57,652.28 1459.52,652.27 1461.47,652.238 1463.42,652.199 1465.37,652.182 1467.32,652.154 1469.27,652.143 1471.22,652.132 1473.17,652.128 1475.12,652.103 1477.07,652.067 1479.02,652.024 1480.97,651.999 1482.92,651.988 1484.87,651.983 1486.82,651.978 1488.77,651.875 1490.72,651.862 1492.67,651.853 1494.62,651.758 1496.57,651.553 1498.53,651.522 1500.48,651.502 1502.43,651.489 1504.38,651.236 1506.33,651.219 1508.28,651.212 1510.23,651.134 1512.18,650.991 1514.13,650.888 1516.08,650.741 1518.03,650.392 1519.98,650.226 1521.93,650.171 1523.88,650.077 1525.83,649.825 1527.78,649.69 1529.73,649.67 1531.68,649.632 1533.63,649.335 1535.58,649.206 1537.53,648.828 1539.48,648.806 1541.43,648.689 1543.39,648.687 1545.34,648.227 1547.29,647.308 1549.24,647.189 1551.19,647.182 1553.14,646.611 1555.09,645.655 1557.04,645.338 1558.99,645.069 1560.94,644.831 1562.89,644.634 1564.84,644.425 1566.79,644.125 1568.74,643.914 1570.69,643.782 1572.64,643.746 1574.59,643.74 1576.54,643.583 1578.49,643.508 1580.44,642.715 1582.39,642.701 1584.34,642.345 1586.29,641.789 1588.25,641.655 1590.2,641.477 1592.15,641.263 1594.1,641.049 1596.05,641.01 1598,640.917 1599.95,640.11 1601.9,640 1603.85,639.377 1605.8,638.92 1607.75,638.301 1609.7,637.815 1611.65,637.58 1613.6,637.53 1615.55,637.269 1617.5,636.952 1619.45,636.692 1621.4,636.527 1623.35,635.794 1625.3,635.667 1627.25,635.01 1629.2,634.981 1631.15,634.972 1633.11,634.671 1635.06,634.606 1637.01,634.498 1638.96,634.413 1640.91,634.189 1642.86,634.142 1644.81,633.858 1646.76,633.745 1648.71,633.417 1650.66,633.217 1652.61,633.011 1654.56,632.76 1656.51,632.673 1658.46,632.658 1660.41,632.421 1662.36,632.246 1664.31,632.178 1666.26,632.058 1668.21,631.806 1670.16,631.662 1672.11,631.37 1674.06,631.034 1676.01,630.832 1677.97,630.512 1679.92,630.469 1681.87,630.081 1683.82,630.046 1685.77,629.986 1687.72,629.93 1689.67,629.867 1691.62,629.492 1693.57,629.365 1695.52,627.977 1697.47,627.751 1699.42,627.399 1701.37,627.14 1703.32,626.716 1705.27,626.654 1707.22,626.465 1709.17,625.875 1711.12,625.717 1713.07,625.431 1715.02,624.983 1716.97,624.964 1718.92,624.861 1720.87,624.641 1722.83,624.575 1724.78,624.104 1726.73,624.069 1728.68,623.243 1730.63,623.227 1732.58,623.194 1734.53,623.091 1736.48,622.984 1738.43,622.899 1740.38,622.789 1742.33,622.123 1744.28,621.789 1746.23,621.699 1748.18,621.521 1750.13,621.017 1752.08,620.775 1754.03,619.35 1755.98,619.338 1757.93,618.941 1759.88,618.627 1761.83,618.265 1763.78,617.682 1765.73,617.647 1767.68,617.399 1769.64,616.969 1771.59,616.776 1773.54,616.473 1775.49,616.191 1777.44,614.216 1779.39,614.155 1781.34,609.867 1783.29,609.695 1785.24,609.503 1787.19,608.812 1789.14,607.9 1791.09,588.648 1793.04,587.546 1794.99,582.515 1796.94,577.496 1798.89,577.23 1800.84,575.909 1802.79,575.149 1804.74,571.046 1806.69,570.733 1808.64,197.101 1810.59,196.628 1812.54,196.474 1814.5,196.277 1816.45,196.139 1818.4,195.818 1820.35,195.578 1822.3,195.524 1824.25,195.137 1826.2,195.103 1828.15,195.085 1830.1,194.818 1832.05,194.634 1834,194.61 1835.95,194.447 1837.9,194.432 1839.85,194.359 1841.8,194.353 1843.75,194.092 1845.7,194.089 1847.65,193.951 1849.6,193.931 1851.55,193.803 1853.5,193.798 1855.45,193.791 1857.4,193.775 1859.36,193.755 1861.31,193.68 1863.26,193.548 1865.21,193.547 1867.16,193.53 1869.11,193.416 1871.06,193.392 1873.01,193.161 1874.96,193.11 1876.91,193.014 1878.86,192.949 1880.81,192.865 1882.76,192.804 1884.71,192.673 1886.66,192.64 1888.61,192.606 1890.56,192.598 1892.51,192.583 1894.46,192.577 1896.41,192.563 1898.36,192.497 1900.31,192.486 1902.26,192.445 1904.22,192.416 1906.17,192.375 1908.12,192.349 1910.07,192.341 1912.02,192.293 1913.97,192.289 1915.92,192.288 1917.87,192.202 1919.82,192.022 1921.77,191.942 1923.72,191.911 1925.67,191.888 1927.62,191.873 1929.57,191.858 1931.52,191.687 1933.47,191.583 1935.42,191.558 1937.37,191.545 1939.32,191.543 1941.27,191.538 1943.22,191.491 1945.17,191.459 1947.12,191.459 1949.08,191.453 1951.03,191.395 1952.98,191.38 1954.93,191.325 1956.88,191.245 1958.83,191.241 1960.78,191.24 1962.73,191.231 1964.68,191.202 1966.63,191.193 1968.58,191.193 1970.53,191.181 1972.48,191.161 1974.43,191.093 1976.38,190.945 1978.33,190.927 1980.28,190.895 1982.23,190.872 1984.18,190.861 1986.13,190.796 1988.08,190.774 1990.03,190.738 1991.98,190.72 1993.94,190.638 1995.89,190.57 1997.84,190.506 1999.79,190.497 2001.74,190.349 2003.69,190.328 2005.64,190.241 2007.59,190.151 2009.54,190.128 2011.49,190.043 2013.44,190.013 2015.39,189.67 2017.34,189.589 2019.29,189.47 2021.24,189.468 2023.19,189.385 2025.14,189.34 2027.09,189.284 2029.04,189.227 2030.99,189.113 2032.94,188.967 2034.89,188.63 2036.84,188.371 2038.79,187.946 2040.75,187.821 2042.7,187.779 2044.65,187.598 2046.6,187.206 2048.55,186.972 2050.5,186.866 2052.45,186.806 2054.4,186.76 2056.35,186.441 2058.3,186.197 2060.25,186.16 2062.2,185.865 2064.15,185.855 2066.1,185.795 2068.05,185.524 2070,185.366 2071.95,185.103 2073.9,185.044 2075.85,185.025 2077.8,184.995 2079.75,184.573 2081.7,184.535 2083.65,184.395 2085.61,184.121 2087.56,184.081 2089.51,184.079 2091.46,183.998 2093.41,183.971 2095.36,183.936 2097.31,183.8 2099.26,183.399 2101.21,183.361 2103.16,182.85 2105.11,182.522 2107.06,182.359 2109.01,182.233 2110.96,182.086 2112.91,181.908 2114.86,181.888 2116.81,181.873 2118.76,181.457 2120.71,181.051 2122.66,180.941 2124.61,180.898 2126.56,180.791 2128.51,180.759 2130.47,180.438 2132.42,180.16 2134.37,180.035 2136.32,179.608 2138.27,179.513 2140.22,179.454 2142.17,179.321 2144.12,179.288 2146.07,178.884 2148.02,178.844 2149.97,178.777 2151.92,178.719 2153.87,178.556 2155.82,177.679 2157.77,177.345 2159.72,177.294 2161.67,177.137 2163.62,177.003 2165.57,176.971 2167.52,176.877 2169.47,176.66 2171.42,176.568 2173.37,176.311 2175.33,176.026 2177.28,176.006 2179.23,175.875 2181.18,175.704 2183.13,175.68 2185.08,175.539 2187.03,175.146 2188.98,175.039 2190.93,175.02 2192.88,174.607 2194.83,174.594 2196.78,174.467 2198.73,174.158 2200.68,173.757 2202.63,173.513 2204.58,173.183 2206.53,173.009 2208.48,172.964 2210.43,172.766 2212.38,172.717 2214.33,172.304 2216.28,172.069 2218.23,171.876 2220.19,171.651 2222.14,171.378 2224.09,171.349 2226.04,171.096 2227.99,171.03 2229.94,170.762 2231.89,170.684 2233.84,170.663 2235.79,170.563 2237.74,170.561 2239.69,169.132 2241.64,169.118 2243.59,168.981 2245.54,168.924 2247.49,168.81 2249.44,168.556 2251.39,168.302 2253.34,168.288 2255.29,168.195 2257.24,168.102 2259.19,167.869 2261.14,167.807 2263.09,167.738 2265.04,167.218 2267,167.215 2268.95,167.078 2270.9,166.857 2272.85,166.454 2274.8,166.392 2276.75,166.239 2278.7,166.23 2280.65,165.576 2282.6,165.158 2284.55,164.962 2286.5,164.574 2288.45,164.346 2290.4,162.634 2292.35,160.657 2294.3,160.256 "/>
<path clip-path="url(#clip730)" d="M356.212 270.476 L782.357 270.476 L782.357 166.796 L356.212 166.796  Z" fill="#ffffff" fill-rule="evenodd" fill-opacity="1"/>
<polyline clip-path="url(#clip730)" style="stroke:#000000; stroke-linecap:round; stroke-linejoin:round; stroke-width:4; stroke-opacity:1; fill:none" points="356.212,270.476 782.357,270.476 782.357,166.796 356.212,166.796 356.212,270.476 "/>
<polyline clip-path="url(#clip730)" style="stroke:#009af9; stroke-linecap:round; stroke-linejoin:round; stroke-width:4; stroke-opacity:1; fill:none" points="379.161,218.636 516.854,218.636 "/>
<path clip-path="url(#clip730)" d="M562.048 202.49 L562.048 207.05 Q559.386 205.777 557.025 205.152 Q554.663 204.527 552.464 204.527 Q548.645 204.527 546.562 206.008 Q544.502 207.49 544.502 210.221 Q544.502 212.513 545.867 213.694 Q547.256 214.851 551.099 215.569 L553.923 216.147 Q559.154 217.143 561.631 219.666 Q564.131 222.166 564.131 226.379 Q564.131 231.402 560.751 233.994 Q557.395 236.587 550.89 236.587 Q548.437 236.587 545.659 236.031 Q542.904 235.476 539.941 234.388 L539.941 229.573 Q542.789 231.17 545.52 231.981 Q548.251 232.791 550.89 232.791 Q554.895 232.791 557.071 231.217 Q559.247 229.643 559.247 226.726 Q559.247 224.18 557.673 222.744 Q556.122 221.309 552.557 220.592 L549.71 220.036 Q544.478 218.995 542.14 216.772 Q539.802 214.55 539.802 210.592 Q539.802 206.008 543.02 203.37 Q546.261 200.731 551.932 200.731 Q554.363 200.731 556.886 201.171 Q559.409 201.61 562.048 202.49 Z" fill="#000000" fill-rule="nonzero" fill-opacity="1" /><path clip-path="url(#clip730)" d="M571.237 209.99 L575.497 209.99 L575.497 235.916 L571.237 235.916 L571.237 209.99 M571.237 199.897 L575.497 199.897 L575.497 205.291 L571.237 205.291 L571.237 199.897 Z" fill="#000000" fill-rule="nonzero" fill-opacity="1" /><path clip-path="url(#clip730)" d="M604.594 214.967 Q606.191 212.096 608.413 210.731 Q610.635 209.365 613.645 209.365 Q617.696 209.365 619.895 212.212 Q622.094 215.036 622.094 220.268 L622.094 235.916 L617.811 235.916 L617.811 220.407 Q617.811 216.68 616.492 214.874 Q615.172 213.069 612.464 213.069 Q609.154 213.069 607.233 215.268 Q605.311 217.467 605.311 221.263 L605.311 235.916 L601.029 235.916 L601.029 220.407 Q601.029 216.657 599.71 214.874 Q598.39 213.069 595.635 213.069 Q592.372 213.069 590.45 215.291 Q588.529 217.49 588.529 221.263 L588.529 235.916 L584.247 235.916 L584.247 209.99 L588.529 209.99 L588.529 214.018 Q589.987 211.633 592.024 210.499 Q594.061 209.365 596.862 209.365 Q599.686 209.365 601.654 210.8 Q603.645 212.235 604.594 214.967 Z" fill="#000000" fill-rule="nonzero" fill-opacity="1" /><path clip-path="url(#clip730)" d="M630.589 209.99 L634.848 209.99 L634.848 235.916 L630.589 235.916 L630.589 209.99 M630.589 199.897 L634.848 199.897 L634.848 205.291 L630.589 205.291 L630.589 199.897 Z" fill="#000000" fill-rule="nonzero" fill-opacity="1" /><path clip-path="url(#clip730)" d="M643.76 199.897 L648.019 199.897 L648.019 235.916 L643.76 235.916 L643.76 199.897 Z" fill="#000000" fill-rule="nonzero" fill-opacity="1" /><path clip-path="url(#clip730)" d="M668.714 222.883 Q663.552 222.883 661.561 224.064 Q659.57 225.244 659.57 228.092 Q659.57 230.36 661.052 231.703 Q662.556 233.022 665.126 233.022 Q668.668 233.022 670.797 230.522 Q672.95 227.999 672.95 223.832 L672.95 222.883 L668.714 222.883 M677.209 221.124 L677.209 235.916 L672.95 235.916 L672.95 231.981 Q671.492 234.342 669.316 235.476 Q667.14 236.587 663.992 236.587 Q660.01 236.587 657.649 234.365 Q655.311 232.119 655.311 228.369 Q655.311 223.994 658.228 221.772 Q661.168 219.55 666.978 219.55 L672.95 219.55 L672.95 219.133 Q672.95 216.194 671.005 214.596 Q669.084 212.976 665.589 212.976 Q663.367 212.976 661.26 213.508 Q659.154 214.041 657.209 215.106 L657.209 211.17 Q659.547 210.268 661.746 209.828 Q663.945 209.365 666.029 209.365 Q671.654 209.365 674.431 212.282 Q677.209 215.198 677.209 221.124 Z" fill="#000000" fill-rule="nonzero" fill-opacity="1" /><path clip-path="url(#clip730)" d="M701.005 213.971 Q700.288 213.555 699.431 213.37 Q698.598 213.161 697.579 213.161 Q693.968 213.161 692.024 215.522 Q690.103 217.86 690.103 222.258 L690.103 235.916 L685.82 235.916 L685.82 209.99 L690.103 209.99 L690.103 214.018 Q691.445 211.657 693.598 210.522 Q695.751 209.365 698.829 209.365 Q699.269 209.365 699.802 209.434 Q700.334 209.481 700.982 209.596 L701.005 213.971 Z" fill="#000000" fill-rule="nonzero" fill-opacity="1" /><path clip-path="url(#clip730)" d="M705.473 209.99 L709.732 209.99 L709.732 235.916 L705.473 235.916 L705.473 209.99 M705.473 199.897 L709.732 199.897 L709.732 205.291 L705.473 205.291 L705.473 199.897 Z" fill="#000000" fill-rule="nonzero" fill-opacity="1" /><path clip-path="url(#clip730)" d="M722.857 202.629 L722.857 209.99 L731.63 209.99 L731.63 213.3 L722.857 213.3 L722.857 227.374 Q722.857 230.545 723.714 231.448 Q724.593 232.351 727.255 232.351 L731.63 232.351 L731.63 235.916 L727.255 235.916 Q722.325 235.916 720.45 234.087 Q718.575 232.235 718.575 227.374 L718.575 213.3 L715.45 213.3 L715.45 209.99 L718.575 209.99 L718.575 202.629 L722.857 202.629 Z" fill="#000000" fill-rule="nonzero" fill-opacity="1" /><path clip-path="url(#clip730)" d="M748.019 238.323 Q746.213 242.953 744.5 244.365 Q742.787 245.777 739.917 245.777 L736.514 245.777 L736.514 242.212 L739.014 242.212 Q740.774 242.212 741.746 241.379 Q742.718 240.545 743.899 237.443 L744.662 235.499 L734.176 209.99 L738.69 209.99 L746.792 230.268 L754.894 209.99 L759.408 209.99 L748.019 238.323 Z" fill="#000000" fill-rule="nonzero" fill-opacity="1" /></svg>
