<?xml version="1.0" encoding="utf-8"?>
<svg xmlns="http://www.w3.org/2000/svg" xmlns:xlink="http://www.w3.org/1999/xlink" width="600" height="400" viewBox="0 0 2400 1600">
<defs>
  <clipPath id="clip780">
    <rect x="0" y="0" width="2400" height="1600"/>
  </clipPath>
</defs>
<path clip-path="url(#clip780)" d="M0 1600 L2400 1600 L2400 8.88178e-14 L0 8.88178e-14  Z" fill="#ffffff" fill-rule="evenodd" fill-opacity="1"/>
<defs>
  <clipPath id="clip781">
    <rect x="480" y="0" width="1681" height="1600"/>
  </clipPath>
</defs>
<path clip-path="url(#clip780)" d="M257.69 1423.18 L2352.76 1423.18 L2352.76 123.472 L257.69 123.472  Z" fill="#ffffff" fill-rule="evenodd" fill-opacity="1"/>
<defs>
  <clipPath id="clip782">
    <rect x="257" y="123" width="2096" height="1301"/>
  </clipPath>
</defs>
<polyline clip-path="url(#clip782)" style="stroke:#000000; stroke-linecap:round; stroke-linejoin:round; stroke-width:2; stroke-opacity:0.1; fill:none" points="315.006,1423.18 315.006,123.472 "/>
<polyline clip-path="url(#clip782)" style="stroke:#000000; stroke-linecap:round; stroke-linejoin:round; stroke-width:2; stroke-opacity:0.1; fill:none" points="809.62,1423.18 809.62,123.472 "/>
<polyline clip-path="url(#clip782)" style="stroke:#000000; stroke-linecap:round; stroke-linejoin:round; stroke-width:2; stroke-opacity:0.1; fill:none" points="1304.23,1423.18 1304.23,123.472 "/>
<polyline clip-path="url(#clip782)" style="stroke:#000000; stroke-linecap:round; stroke-linejoin:round; stroke-width:2; stroke-opacity:0.1; fill:none" points="1798.85,1423.18 1798.85,123.472 "/>
<polyline clip-path="url(#clip782)" style="stroke:#000000; stroke-linecap:round; stroke-linejoin:round; stroke-width:2; stroke-opacity:0.1; fill:none" points="2293.46,1423.18 2293.46,123.472 "/>
<polyline clip-path="url(#clip780)" style="stroke:#000000; stroke-linecap:round; stroke-linejoin:round; stroke-width:4; stroke-opacity:1; fill:none" points="257.69,1423.18 2352.76,1423.18 "/>
<polyline clip-path="url(#clip780)" style="stroke:#000000; stroke-linecap:round; stroke-linejoin:round; stroke-width:4; stroke-opacity:1; fill:none" points="315.006,1423.18 315.006,1404.28 "/>
<polyline clip-path="url(#clip780)" style="stroke:#000000; stroke-linecap:round; stroke-linejoin:round; stroke-width:4; stroke-opacity:1; fill:none" points="809.62,1423.18 809.62,1404.28 "/>
<polyline clip-path="url(#clip780)" style="stroke:#000000; stroke-linecap:round; stroke-linejoin:round; stroke-width:4; stroke-opacity:1; fill:none" points="1304.23,1423.18 1304.23,1404.28 "/>
<polyline clip-path="url(#clip780)" style="stroke:#000000; stroke-linecap:round; stroke-linejoin:round; stroke-width:4; stroke-opacity:1; fill:none" points="1798.85,1423.18 1798.85,1404.28 "/>
<polyline clip-path="url(#clip780)" style="stroke:#000000; stroke-linecap:round; stroke-linejoin:round; stroke-width:4; stroke-opacity:1; fill:none" points="2293.46,1423.18 2293.46,1404.28 "/>
<path clip-path="url(#clip780)" d="M315.006 1454.1 Q311.395 1454.1 309.566 1457.66 Q307.761 1461.2 307.761 1468.33 Q307.761 1475.44 309.566 1479.01 Q311.395 1482.55 315.006 1482.55 Q318.64 1482.55 320.446 1479.01 Q322.274 1475.44 322.274 1468.33 Q322.274 1461.2 320.446 1457.66 Q318.64 1454.1 315.006 1454.1 M315.006 1450.39 Q320.816 1450.39 323.872 1455 Q326.95 1459.58 326.95 1468.33 Q326.95 1477.06 323.872 1481.67 Q320.816 1486.25 315.006 1486.25 Q309.196 1486.25 306.117 1481.67 Q303.062 1477.06 303.062 1468.33 Q303.062 1459.58 306.117 1455 Q309.196 1450.39 315.006 1450.39 Z" fill="#000000" fill-rule="nonzero" fill-opacity="1" /><path clip-path="url(#clip780)" d="M773.312 1481.64 L789.632 1481.64 L789.632 1485.58 L767.687 1485.58 L767.687 1481.64 Q770.349 1478.89 774.933 1474.26 Q779.539 1469.61 780.72 1468.27 Q782.965 1465.74 783.845 1464.01 Q784.747 1462.25 784.747 1460.56 Q784.747 1457.8 782.803 1456.07 Q780.882 1454.33 777.78 1454.33 Q775.581 1454.33 773.127 1455.09 Q770.696 1455.86 767.919 1457.41 L767.919 1452.69 Q770.743 1451.55 773.196 1450.97 Q775.65 1450.39 777.687 1450.39 Q783.058 1450.39 786.252 1453.08 Q789.446 1455.77 789.446 1460.26 Q789.446 1462.39 788.636 1464.31 Q787.849 1466.2 785.743 1468.8 Q785.164 1469.47 782.062 1472.69 Q778.96 1475.88 773.312 1481.64 Z" fill="#000000" fill-rule="nonzero" fill-opacity="1" /><path clip-path="url(#clip780)" d="M799.493 1451.02 L817.849 1451.02 L817.849 1454.96 L803.775 1454.96 L803.775 1463.43 Q804.794 1463.08 805.812 1462.92 Q806.831 1462.73 807.849 1462.73 Q813.636 1462.73 817.016 1465.9 Q820.395 1469.08 820.395 1474.49 Q820.395 1480.07 816.923 1483.17 Q813.451 1486.25 807.131 1486.25 Q804.956 1486.25 802.687 1485.88 Q800.442 1485.51 798.034 1484.77 L798.034 1480.07 Q800.118 1481.2 802.34 1481.76 Q804.562 1482.32 807.039 1482.32 Q811.043 1482.32 813.381 1480.21 Q815.719 1478.1 815.719 1474.49 Q815.719 1470.88 813.381 1468.77 Q811.043 1466.67 807.039 1466.67 Q805.164 1466.67 803.289 1467.08 Q801.437 1467.5 799.493 1468.38 L799.493 1451.02 Z" fill="#000000" fill-rule="nonzero" fill-opacity="1" /><path clip-path="url(#clip780)" d="M839.608 1454.1 Q835.997 1454.1 834.168 1457.66 Q832.363 1461.2 832.363 1468.33 Q832.363 1475.44 834.168 1479.01 Q835.997 1482.55 839.608 1482.55 Q843.242 1482.55 845.048 1479.01 Q846.877 1475.44 846.877 1468.33 Q846.877 1461.2 845.048 1457.66 Q843.242 1454.1 839.608 1454.1 M839.608 1450.39 Q845.418 1450.39 848.474 1455 Q851.553 1459.58 851.553 1468.33 Q851.553 1477.06 848.474 1481.67 Q845.418 1486.25 839.608 1486.25 Q833.798 1486.25 830.719 1481.67 Q827.664 1477.06 827.664 1468.33 Q827.664 1459.58 830.719 1455 Q833.798 1450.39 839.608 1450.39 Z" fill="#000000" fill-rule="nonzero" fill-opacity="1" /><path clip-path="url(#clip780)" d="M1263.85 1451.02 L1282.21 1451.02 L1282.21 1454.96 L1268.13 1454.96 L1268.13 1463.43 Q1269.15 1463.08 1270.17 1462.92 Q1271.19 1462.73 1272.21 1462.73 Q1278 1462.73 1281.38 1465.9 Q1284.75 1469.08 1284.75 1474.49 Q1284.75 1480.07 1281.28 1483.17 Q1277.81 1486.25 1271.49 1486.25 Q1269.31 1486.25 1267.05 1485.88 Q1264.8 1485.51 1262.39 1484.77 L1262.39 1480.07 Q1264.48 1481.2 1266.7 1481.76 Q1268.92 1482.32 1271.4 1482.32 Q1275.4 1482.32 1277.74 1480.21 Q1280.08 1478.1 1280.08 1474.49 Q1280.08 1470.88 1277.74 1468.77 Q1275.4 1466.67 1271.4 1466.67 Q1269.52 1466.67 1267.65 1467.08 Q1265.8 1467.5 1263.85 1468.38 L1263.85 1451.02 Z" fill="#000000" fill-rule="nonzero" fill-opacity="1" /><path clip-path="url(#clip780)" d="M1303.97 1454.1 Q1300.36 1454.1 1298.53 1457.66 Q1296.72 1461.2 1296.72 1468.33 Q1296.72 1475.44 1298.53 1479.01 Q1300.36 1482.55 1303.97 1482.55 Q1307.6 1482.55 1309.41 1479.01 Q1311.24 1475.44 1311.24 1468.33 Q1311.24 1461.2 1309.41 1457.66 Q1307.6 1454.1 1303.97 1454.1 M1303.97 1450.39 Q1309.78 1450.39 1312.83 1455 Q1315.91 1459.58 1315.91 1468.33 Q1315.91 1477.06 1312.83 1481.67 Q1309.78 1486.25 1303.97 1486.25 Q1298.16 1486.25 1295.08 1481.67 Q1292.02 1477.06 1292.02 1468.33 Q1292.02 1459.58 1295.08 1455 Q1298.16 1450.39 1303.97 1450.39 Z" fill="#000000" fill-rule="nonzero" fill-opacity="1" /><path clip-path="url(#clip780)" d="M1334.13 1454.1 Q1330.52 1454.1 1328.69 1457.66 Q1326.88 1461.2 1326.88 1468.33 Q1326.88 1475.44 1328.69 1479.01 Q1330.52 1482.55 1334.13 1482.55 Q1337.76 1482.55 1339.57 1479.01 Q1341.4 1475.44 1341.4 1468.33 Q1341.4 1461.2 1339.57 1457.66 Q1337.76 1454.1 1334.13 1454.1 M1334.13 1450.39 Q1339.94 1450.39 1343 1455 Q1346.07 1459.58 1346.07 1468.33 Q1346.07 1477.06 1343 1481.67 Q1339.94 1486.25 1334.13 1486.25 Q1328.32 1486.25 1325.24 1481.67 Q1322.19 1477.06 1322.19 1468.33 Q1322.19 1459.58 1325.24 1455 Q1328.32 1450.39 1334.13 1450.39 Z" fill="#000000" fill-rule="nonzero" fill-opacity="1" /><path clip-path="url(#clip780)" d="M1757.12 1451.02 L1779.35 1451.02 L1779.35 1453.01 L1766.8 1485.58 L1761.92 1485.58 L1773.72 1454.96 L1757.12 1454.96 L1757.12 1451.02 Z" fill="#000000" fill-rule="nonzero" fill-opacity="1" /><path clip-path="url(#clip780)" d="M1788.51 1451.02 L1806.87 1451.02 L1806.87 1454.96 L1792.79 1454.96 L1792.79 1463.43 Q1793.81 1463.08 1794.83 1462.92 Q1795.85 1462.73 1796.87 1462.73 Q1802.66 1462.73 1806.04 1465.9 Q1809.41 1469.08 1809.41 1474.49 Q1809.41 1480.07 1805.94 1483.17 Q1802.47 1486.25 1796.15 1486.25 Q1793.98 1486.25 1791.71 1485.88 Q1789.46 1485.51 1787.05 1484.77 L1787.05 1480.07 Q1789.14 1481.2 1791.36 1481.76 Q1793.58 1482.32 1796.06 1482.32 Q1800.06 1482.32 1802.4 1480.21 Q1804.74 1478.1 1804.74 1474.49 Q1804.74 1470.88 1802.4 1468.77 Q1800.06 1466.67 1796.06 1466.67 Q1794.18 1466.67 1792.31 1467.08 Q1790.46 1467.5 1788.51 1468.38 L1788.51 1451.02 Z" fill="#000000" fill-rule="nonzero" fill-opacity="1" /><path clip-path="url(#clip780)" d="M1828.63 1454.1 Q1825.02 1454.1 1823.19 1457.66 Q1821.38 1461.2 1821.38 1468.33 Q1821.38 1475.44 1823.19 1479.01 Q1825.02 1482.55 1828.63 1482.55 Q1832.26 1482.55 1834.07 1479.01 Q1835.9 1475.44 1835.9 1468.33 Q1835.9 1461.2 1834.07 1457.66 Q1832.26 1454.1 1828.63 1454.1 M1828.63 1450.39 Q1834.44 1450.39 1837.49 1455 Q1840.57 1459.58 1840.57 1468.33 Q1840.57 1477.06 1837.49 1481.67 Q1834.44 1486.25 1828.63 1486.25 Q1822.82 1486.25 1819.74 1481.67 Q1816.68 1477.06 1816.68 1468.33 Q1816.68 1459.58 1819.74 1455 Q1822.82 1450.39 1828.63 1450.39 Z" fill="#000000" fill-rule="nonzero" fill-opacity="1" /><path clip-path="url(#clip780)" d="M2237.99 1481.64 L2245.63 1481.64 L2245.63 1455.28 L2237.32 1456.95 L2237.32 1452.69 L2245.58 1451.02 L2250.26 1451.02 L2250.26 1481.64 L2257.89 1481.64 L2257.89 1485.58 L2237.99 1485.58 L2237.99 1481.64 Z" fill="#000000" fill-rule="nonzero" fill-opacity="1" /><path clip-path="url(#clip780)" d="M2277.34 1454.1 Q2273.73 1454.1 2271.9 1457.66 Q2270.09 1461.2 2270.09 1468.33 Q2270.09 1475.44 2271.9 1479.01 Q2273.73 1482.55 2277.34 1482.55 Q2280.97 1482.55 2282.78 1479.01 Q2284.61 1475.44 2284.61 1468.33 Q2284.61 1461.2 2282.78 1457.66 Q2280.97 1454.1 2277.34 1454.1 M2277.34 1450.39 Q2283.15 1450.39 2286.2 1455 Q2289.28 1459.58 2289.28 1468.33 Q2289.28 1477.06 2286.2 1481.67 Q2283.15 1486.25 2277.34 1486.25 Q2271.53 1486.25 2268.45 1481.67 Q2265.39 1477.06 2265.39 1468.33 Q2265.39 1459.58 2268.45 1455 Q2271.53 1450.39 2277.34 1450.39 Z" fill="#000000" fill-rule="nonzero" fill-opacity="1" /><path clip-path="url(#clip780)" d="M2307.5 1454.1 Q2303.89 1454.1 2302.06 1457.66 Q2300.26 1461.2 2300.26 1468.33 Q2300.26 1475.44 2302.06 1479.01 Q2303.89 1482.55 2307.5 1482.55 Q2311.14 1482.55 2312.94 1479.01 Q2314.77 1475.44 2314.77 1468.33 Q2314.77 1461.2 2312.94 1457.66 Q2311.14 1454.1 2307.5 1454.1 M2307.5 1450.39 Q2313.31 1450.39 2316.37 1455 Q2319.45 1459.58 2319.45 1468.33 Q2319.45 1477.06 2316.37 1481.67 Q2313.31 1486.25 2307.5 1486.25 Q2301.69 1486.25 2298.61 1481.67 Q2295.56 1477.06 2295.56 1468.33 Q2295.56 1459.58 2298.61 1455 Q2301.69 1450.39 2307.5 1450.39 Z" fill="#000000" fill-rule="nonzero" fill-opacity="1" /><path clip-path="url(#clip780)" d="M2337.66 1454.1 Q2334.05 1454.1 2332.22 1457.66 Q2330.42 1461.2 2330.42 1468.33 Q2330.42 1475.44 2332.22 1479.01 Q2334.05 1482.55 2337.66 1482.55 Q2341.3 1482.55 2343.1 1479.01 Q2344.93 1475.44 2344.93 1468.33 Q2344.93 1461.2 2343.1 1457.66 Q2341.3 1454.1 2337.66 1454.1 M2337.66 1450.39 Q2343.47 1450.39 2346.53 1455 Q2349.61 1459.58 2349.61 1468.33 Q2349.61 1477.06 2346.53 1481.67 Q2343.47 1486.25 2337.66 1486.25 Q2331.85 1486.25 2328.77 1481.67 Q2325.72 1477.06 2325.72 1468.33 Q2325.72 1459.58 2328.77 1455 Q2331.85 1450.39 2337.66 1450.39 Z" fill="#000000" fill-rule="nonzero" fill-opacity="1" /><path clip-path="url(#clip780)" d="M1269.07 1524.18 L1269.07 1530.96 Q1265.82 1527.94 1262.13 1526.44 Q1258.47 1524.95 1254.33 1524.95 Q1246.18 1524.95 1241.85 1529.95 Q1237.52 1534.91 1237.52 1544.33 Q1237.52 1553.72 1241.85 1558.72 Q1246.18 1563.68 1254.33 1563.68 Q1258.47 1563.68 1262.13 1562.19 Q1265.82 1560.69 1269.07 1557.67 L1269.07 1564.38 Q1265.69 1566.68 1261.9 1567.82 Q1258.15 1568.97 1253.95 1568.97 Q1243.16 1568.97 1236.95 1562.38 Q1230.74 1555.76 1230.74 1544.33 Q1230.74 1532.87 1236.95 1526.28 Q1243.16 1519.66 1253.95 1519.66 Q1258.21 1519.66 1261.97 1520.81 Q1265.76 1521.92 1269.07 1524.18 Z" fill="#000000" fill-rule="nonzero" fill-opacity="1" /><path clip-path="url(#clip780)" d="M1309.23 1548.76 L1309.23 1551.62 L1282.31 1551.62 Q1282.69 1557.67 1285.93 1560.85 Q1289.21 1564 1295.04 1564 Q1298.41 1564 1301.56 1563.17 Q1304.75 1562.35 1307.86 1560.69 L1307.86 1566.23 Q1304.71 1567.57 1301.4 1568.27 Q1298.09 1568.97 1294.69 1568.97 Q1286.16 1568.97 1281.16 1564 Q1276.2 1559.04 1276.2 1550.57 Q1276.2 1541.82 1280.91 1536.69 Q1285.65 1531.54 1293.67 1531.54 Q1300.86 1531.54 1305.03 1536.18 Q1309.23 1540.8 1309.23 1548.76 M1303.38 1547.04 Q1303.31 1542.23 1300.67 1539.37 Q1298.06 1536.5 1293.73 1536.5 Q1288.83 1536.5 1285.87 1539.27 Q1282.94 1542.04 1282.5 1547.07 L1303.38 1547.04 Z" fill="#000000" fill-rule="nonzero" fill-opacity="1" /><path clip-path="url(#clip780)" d="M1318.85 1518.52 L1324.7 1518.52 L1324.7 1568.04 L1318.85 1568.04 L1318.85 1518.52 Z" fill="#000000" fill-rule="nonzero" fill-opacity="1" /><path clip-path="url(#clip780)" d="M1336.96 1518.52 L1342.81 1518.52 L1342.81 1568.04 L1336.96 1568.04 L1336.96 1518.52 Z" fill="#000000" fill-rule="nonzero" fill-opacity="1" /><path clip-path="url(#clip780)" d="M1377.79 1533.45 L1377.79 1538.98 Q1375.31 1537.71 1372.64 1537.07 Q1369.96 1536.44 1367.1 1536.44 Q1362.74 1536.44 1360.54 1537.77 Q1358.38 1539.11 1358.38 1541.79 Q1358.38 1543.82 1359.94 1545 Q1361.5 1546.15 1366.21 1547.2 L1368.21 1547.64 Q1374.45 1548.98 1377.06 1551.43 Q1379.7 1553.85 1379.7 1558.21 Q1379.7 1563.17 1375.76 1566.07 Q1371.84 1568.97 1364.97 1568.97 Q1362.1 1568.97 1358.98 1568.39 Q1355.89 1567.85 1352.46 1566.74 L1352.46 1560.69 Q1355.7 1562.38 1358.85 1563.24 Q1362.01 1564.07 1365.09 1564.07 Q1369.23 1564.07 1371.46 1562.66 Q1373.69 1561.23 1373.69 1558.65 Q1373.69 1556.27 1372.06 1554.99 Q1370.47 1553.72 1365.03 1552.54 L1362.99 1552.07 Q1357.55 1550.92 1355.13 1548.56 Q1352.71 1546.18 1352.71 1542.04 Q1352.71 1537.01 1356.28 1534.27 Q1359.84 1531.54 1366.4 1531.54 Q1369.64 1531.54 1372.51 1532.01 Q1375.37 1532.49 1377.79 1533.45 Z" fill="#000000" fill-rule="nonzero" fill-opacity="1" /><polyline clip-path="url(#clip782)" style="stroke:#000000; stroke-linecap:round; stroke-linejoin:round; stroke-width:2; stroke-opacity:0.1; fill:none" points="257.69,1334.41 2352.76,1334.41 "/>
<polyline clip-path="url(#clip782)" style="stroke:#000000; stroke-linecap:round; stroke-linejoin:round; stroke-width:2; stroke-opacity:0.1; fill:none" points="257.69,1159.81 2352.76,1159.81 "/>
<polyline clip-path="url(#clip782)" style="stroke:#000000; stroke-linecap:round; stroke-linejoin:round; stroke-width:2; stroke-opacity:0.1; fill:none" points="257.69,985.206 2352.76,985.206 "/>
<polyline clip-path="url(#clip782)" style="stroke:#000000; stroke-linecap:round; stroke-linejoin:round; stroke-width:2; stroke-opacity:0.1; fill:none" points="257.69,810.603 2352.76,810.603 "/>
<polyline clip-path="url(#clip782)" style="stroke:#000000; stroke-linecap:round; stroke-linejoin:round; stroke-width:2; stroke-opacity:0.1; fill:none" points="257.69,635.999 2352.76,635.999 "/>
<polyline clip-path="url(#clip782)" style="stroke:#000000; stroke-linecap:round; stroke-linejoin:round; stroke-width:2; stroke-opacity:0.1; fill:none" points="257.69,461.396 2352.76,461.396 "/>
<polyline clip-path="url(#clip782)" style="stroke:#000000; stroke-linecap:round; stroke-linejoin:round; stroke-width:2; stroke-opacity:0.1; fill:none" points="257.69,286.793 2352.76,286.793 "/>
<polyline clip-path="url(#clip780)" style="stroke:#000000; stroke-linecap:round; stroke-linejoin:round; stroke-width:4; stroke-opacity:1; fill:none" points="257.69,1423.18 257.69,123.472 "/>
<polyline clip-path="url(#clip780)" style="stroke:#000000; stroke-linecap:round; stroke-linejoin:round; stroke-width:4; stroke-opacity:1; fill:none" points="257.69,1334.41 276.588,1334.41 "/>
<polyline clip-path="url(#clip780)" style="stroke:#000000; stroke-linecap:round; stroke-linejoin:round; stroke-width:4; stroke-opacity:1; fill:none" points="257.69,1159.81 276.588,1159.81 "/>
<polyline clip-path="url(#clip780)" style="stroke:#000000; stroke-linecap:round; stroke-linejoin:round; stroke-width:4; stroke-opacity:1; fill:none" points="257.69,985.206 276.588,985.206 "/>
<polyline clip-path="url(#clip780)" style="stroke:#000000; stroke-linecap:round; stroke-linejoin:round; stroke-width:4; stroke-opacity:1; fill:none" points="257.69,810.603 276.588,810.603 "/>
<polyline clip-path="url(#clip780)" style="stroke:#000000; stroke-linecap:round; stroke-linejoin:round; stroke-width:4; stroke-opacity:1; fill:none" points="257.69,635.999 276.588,635.999 "/>
<polyline clip-path="url(#clip780)" style="stroke:#000000; stroke-linecap:round; stroke-linejoin:round; stroke-width:4; stroke-opacity:1; fill:none" points="257.69,461.396 276.588,461.396 "/>
<polyline clip-path="url(#clip780)" style="stroke:#000000; stroke-linecap:round; stroke-linejoin:round; stroke-width:4; stroke-opacity:1; fill:none" points="257.69,286.793 276.588,286.793 "/>
<path clip-path="url(#clip780)" d="M114.26 1334.86 L143.936 1334.86 L143.936 1338.8 L114.26 1338.8 L114.26 1334.86 Z" fill="#000000" fill-rule="nonzero" fill-opacity="1" /><path clip-path="url(#clip780)" d="M164.028 1320.21 Q160.417 1320.21 158.589 1323.78 Q156.783 1327.32 156.783 1334.45 Q156.783 1341.55 158.589 1345.12 Q160.417 1348.66 164.028 1348.66 Q167.663 1348.66 169.468 1345.12 Q171.297 1341.55 171.297 1334.45 Q171.297 1327.32 169.468 1323.78 Q167.663 1320.21 164.028 1320.21 M164.028 1316.51 Q169.839 1316.51 172.894 1321.11 Q175.973 1325.7 175.973 1334.45 Q175.973 1343.17 172.894 1347.78 Q169.839 1352.36 164.028 1352.36 Q158.218 1352.36 155.14 1347.78 Q152.084 1343.17 152.084 1334.45 Q152.084 1325.7 155.14 1321.11 Q158.218 1316.51 164.028 1316.51 Z" fill="#000000" fill-rule="nonzero" fill-opacity="1" /><path clip-path="url(#clip780)" d="M184.19 1345.81 L189.075 1345.81 L189.075 1351.69 L184.19 1351.69 L184.19 1345.81 Z" fill="#000000" fill-rule="nonzero" fill-opacity="1" /><path clip-path="url(#clip780)" d="M212.107 1321.21 L200.301 1339.66 L212.107 1339.66 L212.107 1321.21 M210.88 1317.13 L216.76 1317.13 L216.76 1339.66 L221.69 1339.66 L221.69 1343.54 L216.76 1343.54 L216.76 1351.69 L212.107 1351.69 L212.107 1343.54 L196.505 1343.54 L196.505 1339.03 L210.88 1317.13 Z" fill="#000000" fill-rule="nonzero" fill-opacity="1" /><path clip-path="url(#clip780)" d="M116.343 1160.26 L146.019 1160.26 L146.019 1164.2 L116.343 1164.2 L116.343 1160.26 Z" fill="#000000" fill-rule="nonzero" fill-opacity="1" /><path clip-path="url(#clip780)" d="M166.112 1145.61 Q162.501 1145.61 160.672 1149.17 Q158.866 1152.71 158.866 1159.84 Q158.866 1166.95 160.672 1170.51 Q162.501 1174.06 166.112 1174.06 Q169.746 1174.06 171.552 1170.51 Q173.38 1166.95 173.38 1159.84 Q173.38 1152.71 171.552 1149.17 Q169.746 1145.61 166.112 1145.61 M166.112 1141.9 Q171.922 1141.9 174.977 1146.51 Q178.056 1151.09 178.056 1159.84 Q178.056 1168.57 174.977 1173.18 Q171.922 1177.76 166.112 1177.76 Q160.302 1177.76 157.223 1173.18 Q154.167 1168.57 154.167 1159.84 Q154.167 1151.09 157.223 1146.51 Q160.302 1141.9 166.112 1141.9 Z" fill="#000000" fill-rule="nonzero" fill-opacity="1" /><path clip-path="url(#clip780)" d="M186.274 1171.21 L191.158 1171.21 L191.158 1177.09 L186.274 1177.09 L186.274 1171.21 Z" fill="#000000" fill-rule="nonzero" fill-opacity="1" /><path clip-path="url(#clip780)" d="M205.371 1173.15 L221.69 1173.15 L221.69 1177.09 L199.746 1177.09 L199.746 1173.15 Q202.408 1170.4 206.991 1165.77 Q211.598 1161.12 212.778 1159.77 Q215.024 1157.25 215.903 1155.52 Q216.806 1153.76 216.806 1152.07 Q216.806 1149.31 214.861 1147.58 Q212.94 1145.84 209.838 1145.84 Q207.639 1145.84 205.186 1146.6 Q202.755 1147.37 199.977 1148.92 L199.977 1144.2 Q202.801 1143.06 205.255 1142.48 Q207.709 1141.9 209.746 1141.9 Q215.116 1141.9 218.311 1144.59 Q221.505 1147.27 221.505 1151.77 Q221.505 1153.89 220.695 1155.82 Q219.908 1157.71 217.801 1160.31 Q217.223 1160.98 214.121 1164.2 Q211.019 1167.39 205.371 1173.15 Z" fill="#000000" fill-rule="nonzero" fill-opacity="1" /><path clip-path="url(#clip780)" d="M164.515 971.005 Q160.903 971.005 159.075 974.569 Q157.269 978.111 157.269 985.241 Q157.269 992.347 159.075 995.912 Q160.903 999.453 164.515 999.453 Q168.149 999.453 169.954 995.912 Q171.783 992.347 171.783 985.241 Q171.783 978.111 169.954 974.569 Q168.149 971.005 164.515 971.005 M164.515 967.301 Q170.325 967.301 173.38 971.907 Q176.459 976.491 176.459 985.241 Q176.459 993.967 173.38 998.574 Q170.325 1003.16 164.515 1003.16 Q158.704 1003.16 155.626 998.574 Q152.57 993.967 152.57 985.241 Q152.57 976.491 155.626 971.907 Q158.704 967.301 164.515 967.301 Z" fill="#000000" fill-rule="nonzero" fill-opacity="1" /><path clip-path="url(#clip780)" d="M184.676 996.606 L189.561 996.606 L189.561 1002.49 L184.676 1002.49 L184.676 996.606 Z" fill="#000000" fill-rule="nonzero" fill-opacity="1" /><path clip-path="url(#clip780)" d="M209.746 971.005 Q206.135 971.005 204.306 974.569 Q202.5 978.111 202.5 985.241 Q202.5 992.347 204.306 995.912 Q206.135 999.453 209.746 999.453 Q213.38 999.453 215.186 995.912 Q217.014 992.347 217.014 985.241 Q217.014 978.111 215.186 974.569 Q213.38 971.005 209.746 971.005 M209.746 967.301 Q215.556 967.301 218.611 971.907 Q221.69 976.491 221.69 985.241 Q221.69 993.967 218.611 998.574 Q215.556 1003.16 209.746 1003.16 Q203.936 1003.16 200.857 998.574 Q197.801 993.967 197.801 985.241 Q197.801 976.491 200.857 971.907 Q203.936 967.301 209.746 967.301 Z" fill="#000000" fill-rule="nonzero" fill-opacity="1" /><path clip-path="url(#clip780)" d="M166.112 796.401 Q162.501 796.401 160.672 799.966 Q158.866 803.508 158.866 810.637 Q158.866 817.744 160.672 821.309 Q162.501 824.85 166.112 824.85 Q169.746 824.85 171.552 821.309 Q173.38 817.744 173.38 810.637 Q173.38 803.508 171.552 799.966 Q169.746 796.401 166.112 796.401 M166.112 792.698 Q171.922 792.698 174.977 797.304 Q178.056 801.887 178.056 810.637 Q178.056 819.364 174.977 823.971 Q171.922 828.554 166.112 828.554 Q160.302 828.554 157.223 823.971 Q154.167 819.364 154.167 810.637 Q154.167 801.887 157.223 797.304 Q160.302 792.698 166.112 792.698 Z" fill="#000000" fill-rule="nonzero" fill-opacity="1" /><path clip-path="url(#clip780)" d="M186.274 822.003 L191.158 822.003 L191.158 827.883 L186.274 827.883 L186.274 822.003 Z" fill="#000000" fill-rule="nonzero" fill-opacity="1" /><path clip-path="url(#clip780)" d="M205.371 823.947 L221.69 823.947 L221.69 827.883 L199.746 827.883 L199.746 823.947 Q202.408 821.193 206.991 816.563 Q211.598 811.911 212.778 810.568 Q215.024 808.045 215.903 806.309 Q216.806 804.549 216.806 802.86 Q216.806 800.105 214.861 798.369 Q212.94 796.633 209.838 796.633 Q207.639 796.633 205.186 797.397 Q202.755 798.161 199.977 799.712 L199.977 794.989 Q202.801 793.855 205.255 793.276 Q207.709 792.698 209.746 792.698 Q215.116 792.698 218.311 795.383 Q221.505 798.068 221.505 802.559 Q221.505 804.688 220.695 806.61 Q219.908 808.508 217.801 811.1 Q217.223 811.772 214.121 814.989 Q211.019 818.184 205.371 823.947 Z" fill="#000000" fill-rule="nonzero" fill-opacity="1" /><path clip-path="url(#clip780)" d="M164.028 621.798 Q160.417 621.798 158.589 625.363 Q156.783 628.905 156.783 636.034 Q156.783 643.141 158.589 646.705 Q160.417 650.247 164.028 650.247 Q167.663 650.247 169.468 646.705 Q171.297 643.141 171.297 636.034 Q171.297 628.905 169.468 625.363 Q167.663 621.798 164.028 621.798 M164.028 618.094 Q169.839 618.094 172.894 622.701 Q175.973 627.284 175.973 636.034 Q175.973 644.761 172.894 649.367 Q169.839 653.951 164.028 653.951 Q158.218 653.951 155.14 649.367 Q152.084 644.761 152.084 636.034 Q152.084 627.284 155.14 622.701 Q158.218 618.094 164.028 618.094 Z" fill="#000000" fill-rule="nonzero" fill-opacity="1" /><path clip-path="url(#clip780)" d="M184.19 647.4 L189.075 647.4 L189.075 653.279 L184.19 653.279 L184.19 647.4 Z" fill="#000000" fill-rule="nonzero" fill-opacity="1" /><path clip-path="url(#clip780)" d="M212.107 622.794 L200.301 641.242 L212.107 641.242 L212.107 622.794 M210.88 618.719 L216.76 618.719 L216.76 641.242 L221.69 641.242 L221.69 645.131 L216.76 645.131 L216.76 653.279 L212.107 653.279 L212.107 645.131 L196.505 645.131 L196.505 640.618 L210.88 618.719 Z" fill="#000000" fill-rule="nonzero" fill-opacity="1" /><path clip-path="url(#clip780)" d="M164.352 447.195 Q160.741 447.195 158.913 450.76 Q157.107 454.301 157.107 461.431 Q157.107 468.537 158.913 472.102 Q160.741 475.644 164.352 475.644 Q167.987 475.644 169.792 472.102 Q171.621 468.537 171.621 461.431 Q171.621 454.301 169.792 450.76 Q167.987 447.195 164.352 447.195 M164.352 443.491 Q170.163 443.491 173.218 448.098 Q176.297 452.681 176.297 461.431 Q176.297 470.158 173.218 474.764 Q170.163 479.348 164.352 479.348 Q158.542 479.348 155.464 474.764 Q152.408 470.158 152.408 461.431 Q152.408 452.681 155.464 448.098 Q158.542 443.491 164.352 443.491 Z" fill="#000000" fill-rule="nonzero" fill-opacity="1" /><path clip-path="url(#clip780)" d="M184.514 472.797 L189.399 472.797 L189.399 478.676 L184.514 478.676 L184.514 472.797 Z" fill="#000000" fill-rule="nonzero" fill-opacity="1" /><path clip-path="url(#clip780)" d="M210.162 459.533 Q207.014 459.533 205.162 461.686 Q203.334 463.838 203.334 467.588 Q203.334 471.315 205.162 473.491 Q207.014 475.644 210.162 475.644 Q213.311 475.644 215.139 473.491 Q216.991 471.315 216.991 467.588 Q216.991 463.838 215.139 461.686 Q213.311 459.533 210.162 459.533 M219.445 444.88 L219.445 449.139 Q217.686 448.306 215.88 447.866 Q214.098 447.426 212.338 447.426 Q207.709 447.426 205.255 450.551 Q202.824 453.676 202.477 459.996 Q203.843 457.982 205.903 456.917 Q207.963 455.829 210.44 455.829 Q215.649 455.829 218.658 459 Q221.69 462.149 221.69 467.588 Q221.69 472.912 218.542 476.13 Q215.394 479.348 210.162 479.348 Q204.167 479.348 200.996 474.764 Q197.825 470.158 197.825 461.431 Q197.825 453.237 201.713 448.376 Q205.602 443.491 212.153 443.491 Q213.912 443.491 215.695 443.839 Q217.5 444.186 219.445 444.88 Z" fill="#000000" fill-rule="nonzero" fill-opacity="1" /><path clip-path="url(#clip780)" d="M164.607 272.592 Q160.996 272.592 159.167 276.157 Q157.362 279.698 157.362 286.828 Q157.362 293.934 159.167 297.499 Q160.996 301.041 164.607 301.041 Q168.241 301.041 170.047 297.499 Q171.876 293.934 171.876 286.828 Q171.876 279.698 170.047 276.157 Q168.241 272.592 164.607 272.592 M164.607 268.888 Q170.417 268.888 173.473 273.495 Q176.551 278.078 176.551 286.828 Q176.551 295.555 173.473 300.161 Q170.417 304.744 164.607 304.744 Q158.797 304.744 155.718 300.161 Q152.663 295.555 152.663 286.828 Q152.663 278.078 155.718 273.495 Q158.797 268.888 164.607 268.888 Z" fill="#000000" fill-rule="nonzero" fill-opacity="1" /><path clip-path="url(#clip780)" d="M184.769 298.194 L189.653 298.194 L189.653 304.073 L184.769 304.073 L184.769 298.194 Z" fill="#000000" fill-rule="nonzero" fill-opacity="1" /><path clip-path="url(#clip780)" d="M209.838 287.661 Q206.505 287.661 204.584 289.444 Q202.686 291.226 202.686 294.351 Q202.686 297.476 204.584 299.258 Q206.505 301.041 209.838 301.041 Q213.172 301.041 215.093 299.258 Q217.014 297.453 217.014 294.351 Q217.014 291.226 215.093 289.444 Q213.195 287.661 209.838 287.661 M205.162 285.67 Q202.153 284.93 200.463 282.87 Q198.797 280.809 198.797 277.846 Q198.797 273.703 201.737 271.296 Q204.699 268.888 209.838 268.888 Q215 268.888 217.94 271.296 Q220.88 273.703 220.88 277.846 Q220.88 280.809 219.19 282.87 Q217.523 284.93 214.537 285.67 Q217.917 286.457 219.792 288.749 Q221.69 291.041 221.69 294.351 Q221.69 299.374 218.611 302.059 Q215.556 304.744 209.838 304.744 Q204.121 304.744 201.042 302.059 Q197.987 299.374 197.987 294.351 Q197.987 291.041 199.885 288.749 Q201.783 286.457 205.162 285.67 M203.449 278.286 Q203.449 280.971 205.116 282.476 Q206.806 283.981 209.838 283.981 Q212.848 283.981 214.537 282.476 Q216.25 280.971 216.25 278.286 Q216.25 275.601 214.537 274.096 Q212.848 272.592 209.838 272.592 Q206.806 272.592 205.116 274.096 Q203.449 275.601 203.449 278.286 Z" fill="#000000" fill-rule="nonzero" fill-opacity="1" /><path clip-path="url(#clip780)" d="M18.0438 893.717 L24.314 893.717 Q22.5634 897.378 21.704 900.624 Q20.8447 903.871 20.8447 906.894 Q20.8447 912.146 22.8817 915.011 Q24.9187 917.843 28.6745 917.843 Q31.8255 917.843 33.4488 915.966 Q35.0402 914.056 36.0269 908.772 L36.8226 904.889 Q38.1912 897.696 41.6605 894.29 Q45.098 890.853 50.8908 890.853 Q57.7976 890.853 61.3624 895.5 Q64.9272 900.115 64.9272 909.059 Q64.9272 912.433 64.1633 916.252 Q63.3994 920.04 61.9035 924.114 L55.2831 924.114 Q57.4793 920.199 58.5933 916.443 Q59.7073 912.687 59.7073 909.059 Q59.7073 903.552 57.543 900.561 Q55.3786 897.569 51.3682 897.569 Q47.8671 897.569 45.8937 899.733 Q43.9204 901.866 42.9337 906.767 L42.1698 910.682 Q40.7375 917.875 37.682 921.09 Q34.6264 924.305 29.1837 924.305 Q22.8817 924.305 19.2532 919.88 Q15.6248 915.424 15.6248 907.626 Q15.6248 904.284 16.2295 900.815 Q16.8343 897.346 18.0438 893.717 Z" fill="#000000" fill-rule="nonzero" fill-opacity="1" /><path clip-path="url(#clip780)" d="M28.3562 881.081 L28.3562 875.225 L64.0042 875.225 L64.0042 881.081 L28.3562 881.081 M14.479 881.081 L14.479 875.225 L21.895 875.225 L21.895 881.081 L14.479 881.081 Z" fill="#000000" fill-rule="nonzero" fill-opacity="1" /><path clip-path="url(#clip780)" d="M35.1993 835.217 Q31.2526 833.02 29.3747 829.965 Q27.4968 826.909 27.4968 822.772 Q27.4968 817.202 31.4117 814.178 Q35.2948 811.154 42.4881 811.154 L64.0042 811.154 L64.0042 817.042 L42.679 817.042 Q37.5546 817.042 35.072 818.857 Q32.5894 820.671 32.5894 824.395 Q32.5894 828.946 35.6131 831.588 Q38.6368 834.23 43.8567 834.23 L64.0042 834.23 L64.0042 840.118 L42.679 840.118 Q37.5228 840.118 35.072 841.932 Q32.5894 843.747 32.5894 847.534 Q32.5894 852.022 35.6449 854.664 Q38.6686 857.306 43.8567 857.306 L64.0042 857.306 L64.0042 863.194 L28.3562 863.194 L28.3562 857.306 L33.8944 857.306 Q30.616 855.3 29.0564 852.499 Q27.4968 849.699 27.4968 845.847 Q27.4968 841.964 29.4702 839.259 Q31.4436 836.522 35.1993 835.217 Z" fill="#000000" fill-rule="nonzero" fill-opacity="1" /><path clip-path="url(#clip780)" d="M28.3562 799.473 L28.3562 793.617 L64.0042 793.617 L64.0042 799.473 L28.3562 799.473 M14.479 799.473 L14.479 793.617 L21.895 793.617 L21.895 799.473 L14.479 799.473 Z" fill="#000000" fill-rule="nonzero" fill-opacity="1" /><path clip-path="url(#clip780)" d="M14.479 781.363 L14.479 775.506 L64.0042 775.506 L64.0042 781.363 L14.479 781.363 Z" fill="#000000" fill-rule="nonzero" fill-opacity="1" /><path clip-path="url(#clip780)" d="M46.0847 747.052 Q46.0847 754.149 47.7079 756.887 Q49.3312 759.624 53.2461 759.624 Q56.3653 759.624 58.2114 757.587 Q60.0256 755.518 60.0256 751.985 Q60.0256 747.115 56.5881 744.187 Q53.1188 741.227 47.3897 741.227 L46.0847 741.227 L46.0847 747.052 M43.6657 735.37 L64.0042 735.37 L64.0042 741.227 L58.5933 741.227 Q61.8398 743.232 63.3994 746.224 Q64.9272 749.216 64.9272 753.545 Q64.9272 759.019 61.8716 762.266 Q58.7843 765.48 53.6281 765.48 Q47.6125 765.48 44.5569 761.47 Q41.5014 757.428 41.5014 749.439 L41.5014 741.227 L40.9285 741.227 Q36.8862 741.227 34.6901 743.901 Q32.4621 746.542 32.4621 751.348 Q32.4621 754.404 33.1941 757.3 Q33.9262 760.197 35.3903 762.87 L29.9795 762.87 Q28.7381 759.656 28.1334 756.632 Q27.4968 753.608 27.4968 750.744 Q27.4968 743.009 31.5072 739.19 Q35.5176 735.37 43.6657 735.37 Z" fill="#000000" fill-rule="nonzero" fill-opacity="1" /><path clip-path="url(#clip780)" d="M33.8307 702.651 Q33.2578 703.637 33.0032 704.815 Q32.7167 705.961 32.7167 707.361 Q32.7167 712.327 35.9632 715 Q39.1779 717.642 45.2253 717.642 L64.0042 717.642 L64.0042 723.53 L28.3562 723.53 L28.3562 717.642 L33.8944 717.642 Q30.6479 715.796 29.0883 712.836 Q27.4968 709.876 27.4968 705.643 Q27.4968 705.038 27.5923 704.306 Q27.656 703.574 27.8151 702.683 L33.8307 702.651 Z" fill="#000000" fill-rule="nonzero" fill-opacity="1" /><path clip-path="url(#clip780)" d="M28.3562 696.508 L28.3562 690.651 L64.0042 690.651 L64.0042 696.508 L28.3562 696.508 M14.479 696.508 L14.479 690.651 L21.895 690.651 L21.895 696.508 L14.479 696.508 Z" fill="#000000" fill-rule="nonzero" fill-opacity="1" /><path clip-path="url(#clip780)" d="M18.2347 672.605 L28.3562 672.605 L28.3562 660.542 L32.9077 660.542 L32.9077 672.605 L52.2594 672.605 Q56.6199 672.605 57.8613 671.427 Q59.1026 670.217 59.1026 666.557 L59.1026 660.542 L64.0042 660.542 L64.0042 666.557 Q64.0042 673.337 61.4897 675.915 Q58.9434 678.493 52.2594 678.493 L32.9077 678.493 L32.9077 682.79 L28.3562 682.79 L28.3562 678.493 L18.2347 678.493 L18.2347 672.605 Z" fill="#000000" fill-rule="nonzero" fill-opacity="1" /><path clip-path="url(#clip780)" d="M67.3143 638.007 Q73.68 640.49 75.6216 642.845 Q77.5631 645.2 77.5631 649.147 L77.5631 653.826 L72.6615 653.826 L72.6615 650.388 Q72.6615 647.969 71.5157 646.633 Q70.3699 645.296 66.1048 643.672 L63.4312 642.622 L28.3562 657.04 L28.3562 650.834 L56.238 639.694 L28.3562 628.554 L28.3562 622.347 L67.3143 638.007 Z" fill="#000000" fill-rule="nonzero" fill-opacity="1" /><path clip-path="url(#clip780)" d="M423.685 14.0809 L423.685 22.0612 Q419.027 19.8332 414.895 18.7395 Q410.763 17.6457 406.915 17.6457 Q400.231 17.6457 396.585 20.2383 Q392.98 22.8309 392.98 27.611 Q392.98 31.6214 395.37 33.6873 Q397.8 35.7128 404.525 36.9686 L409.467 37.9813 Q418.622 39.7232 422.956 44.1387 Q427.331 48.5136 427.331 55.8863 Q427.331 64.6767 421.417 69.2137 Q415.543 73.7508 404.16 73.7508 Q399.866 73.7508 395.005 72.7785 Q390.185 71.8063 384.999 69.9024 L384.999 61.4765 Q389.982 64.2716 394.762 65.6895 Q399.542 67.1073 404.16 67.1073 Q411.168 67.1073 414.976 64.3527 Q418.784 61.598 418.784 56.4939 Q418.784 52.0379 416.029 49.5264 Q413.315 47.0148 407.077 45.759 L402.094 44.7868 Q392.939 42.9639 388.848 39.075 Q384.756 35.1862 384.756 28.2591 Q384.756 20.2383 390.387 15.6203 Q396.058 11.0023 405.983 11.0023 Q410.236 11.0023 414.652 11.7719 Q419.067 12.5416 423.685 14.0809 Z" fill="#000000" fill-rule="nonzero" fill-opacity="1" /><path clip-path="url(#clip780)" d="M457.349 32.4315 Q451.353 32.4315 447.869 37.1306 Q444.386 41.7891 444.386 49.9314 Q444.386 58.0738 447.829 62.7728 Q451.313 67.4314 457.349 67.4314 Q463.303 67.4314 466.787 62.7323 Q470.271 58.0333 470.271 49.9314 Q470.271 41.8701 466.787 37.1711 Q463.303 32.4315 457.349 32.4315 M457.349 26.1121 Q467.071 26.1121 472.62 32.4315 Q478.17 38.7509 478.17 49.9314 Q478.17 61.0714 472.62 67.4314 Q467.071 73.7508 457.349 73.7508 Q447.586 73.7508 442.036 67.4314 Q436.527 61.0714 436.527 49.9314 Q436.527 38.7509 442.036 32.4315 Q447.586 26.1121 457.349 26.1121 Z" fill="#000000" fill-rule="nonzero" fill-opacity="1" /><path clip-path="url(#clip780)" d="M516.816 34.1734 Q515.56 33.4443 514.061 33.1202 Q512.603 32.7556 510.82 32.7556 Q504.501 32.7556 501.098 36.8875 Q497.736 40.9789 497.736 48.6757 L497.736 72.576 L490.242 72.576 L490.242 27.2059 L497.736 27.2059 L497.736 34.2544 Q500.086 30.1225 503.853 28.1376 Q507.62 26.1121 513.008 26.1121 Q513.778 26.1121 514.709 26.2337 Q515.641 26.3147 516.775 26.5172 L516.816 34.1734 Z" fill="#000000" fill-rule="nonzero" fill-opacity="1" /><path clip-path="url(#clip780)" d="M532.007 14.324 L532.007 27.2059 L547.36 27.2059 L547.36 32.9987 L532.007 32.9987 L532.007 57.6282 Q532.007 63.1779 533.506 64.7578 Q535.045 66.3376 539.703 66.3376 L547.36 66.3376 L547.36 72.576 L539.703 72.576 Q531.075 72.576 527.794 69.3758 Q524.513 66.1351 524.513 57.6282 L524.513 32.9987 L519.044 32.9987 L519.044 27.2059 L524.513 27.2059 L524.513 14.324 L532.007 14.324 Z" fill="#000000" fill-rule="nonzero" fill-opacity="1" /><path clip-path="url(#clip780)" d="M595.97 48.0275 L595.97 51.6733 L561.7 51.6733 Q562.186 59.3701 566.318 63.421 Q570.49 67.4314 577.903 67.4314 Q582.197 67.4314 586.208 66.3781 Q590.259 65.3249 594.229 63.2184 L594.229 70.267 Q590.218 71.9684 586.005 72.8596 Q581.792 73.7508 577.458 73.7508 Q566.601 73.7508 560.241 67.4314 Q553.922 61.1119 553.922 50.3365 Q553.922 39.1965 559.917 32.6746 Q565.953 26.1121 576.162 26.1121 Q585.317 26.1121 590.623 32.0264 Q595.97 37.9003 595.97 48.0275 M588.517 45.84 Q588.436 39.7232 585.074 36.0774 Q581.752 32.4315 576.243 32.4315 Q570.004 32.4315 566.237 35.9558 Q562.51 39.4801 561.943 45.8805 L588.517 45.84 Z" fill="#000000" fill-rule="nonzero" fill-opacity="1" /><path clip-path="url(#clip780)" d="M638.059 34.0924 L638.059 9.54393 L645.513 9.54393 L645.513 72.576 L638.059 72.576 L638.059 65.7705 Q635.71 69.8214 632.105 71.8063 Q628.54 73.7508 623.517 73.7508 Q615.293 73.7508 610.108 67.1883 Q604.963 60.6258 604.963 49.9314 Q604.963 39.2371 610.108 32.6746 Q615.293 26.1121 623.517 26.1121 Q628.54 26.1121 632.105 28.0971 Q635.71 30.0415 638.059 34.0924 M612.66 49.9314 Q612.66 58.1548 616.022 62.8538 Q619.425 67.5124 625.34 67.5124 Q631.254 67.5124 634.657 62.8538 Q638.059 58.1548 638.059 49.9314 Q638.059 41.7081 634.657 37.0496 Q631.254 32.3505 625.34 32.3505 Q619.425 32.3505 616.022 37.0496 Q612.66 41.7081 612.66 49.9314 Z" fill="#000000" fill-rule="nonzero" fill-opacity="1" /><path clip-path="url(#clip780)" d="M719.888 28.9478 L719.888 35.9153 Q716.728 34.1734 713.528 33.3227 Q710.368 32.4315 707.127 32.4315 Q699.876 32.4315 695.866 37.0496 Q691.855 41.6271 691.855 49.9314 Q691.855 58.2358 695.866 62.8538 Q699.876 67.4314 707.127 67.4314 Q710.368 67.4314 713.528 66.5807 Q716.728 65.6895 719.888 63.9476 L719.888 70.8341 Q716.768 72.2924 713.406 73.0216 Q710.084 73.7508 706.317 73.7508 Q696.068 73.7508 690.032 67.3098 Q683.997 60.8689 683.997 49.9314 Q683.997 38.832 690.073 32.472 Q696.19 26.1121 706.803 26.1121 Q710.246 26.1121 713.528 26.8413 Q716.809 27.5299 719.888 28.9478 Z" fill="#000000" fill-rule="nonzero" fill-opacity="1" /><path clip-path="url(#clip780)" d="M750.431 32.4315 Q744.436 32.4315 740.952 37.1306 Q737.469 41.7891 737.469 49.9314 Q737.469 58.0738 740.912 62.7728 Q744.396 67.4314 750.431 67.4314 Q756.386 67.4314 759.87 62.7323 Q763.354 58.0333 763.354 49.9314 Q763.354 41.8701 759.87 37.1711 Q756.386 32.4315 750.431 32.4315 M750.431 26.1121 Q760.154 26.1121 765.703 32.4315 Q771.253 38.7509 771.253 49.9314 Q771.253 61.0714 765.703 67.4314 Q760.154 73.7508 750.431 73.7508 Q740.669 73.7508 735.119 67.4314 Q729.61 61.0714 729.61 49.9314 Q729.61 38.7509 735.119 32.4315 Q740.669 26.1121 750.431 26.1121 Z" fill="#000000" fill-rule="nonzero" fill-opacity="1" /><path clip-path="url(#clip780)" d="M812.532 28.5427 L812.532 35.5912 Q809.372 33.9709 805.969 33.1607 Q802.567 32.3505 798.921 32.3505 Q793.371 32.3505 790.576 34.0519 Q787.821 35.7533 787.821 39.156 Q787.821 41.7486 789.806 43.2475 Q791.791 44.7058 797.787 46.0426 L800.339 46.6097 Q808.278 48.3111 811.6 51.4303 Q814.962 54.509 814.962 60.0587 Q814.962 66.3781 809.939 70.0644 Q804.957 73.7508 796.207 73.7508 Q792.561 73.7508 788.591 73.0216 Q784.662 72.3329 780.287 70.9151 L780.287 63.2184 Q784.419 65.3654 788.429 66.4591 Q792.439 67.5124 796.369 67.5124 Q801.635 67.5124 804.47 65.73 Q807.306 63.9071 807.306 60.6258 Q807.306 57.5877 805.24 55.9673 Q803.215 54.3469 796.288 52.8481 L793.695 52.2405 Q786.768 50.7821 783.689 47.7845 Q780.611 44.7463 780.611 39.4801 Q780.611 33.0797 785.148 29.5959 Q789.685 26.1121 798.03 26.1121 Q802.161 26.1121 805.807 26.7198 Q809.453 27.3274 812.532 28.5427 Z" fill="#000000" fill-rule="nonzero" fill-opacity="1" /><path clip-path="url(#clip780)" d="M826.831 27.2059 L834.285 27.2059 L834.285 72.576 L826.831 72.576 L826.831 27.2059 M826.831 9.54393 L834.285 9.54393 L834.285 18.9825 L826.831 18.9825 L826.831 9.54393 Z" fill="#000000" fill-rule="nonzero" fill-opacity="1" /><path clip-path="url(#clip780)" d="M887.595 45.1919 L887.595 72.576 L880.141 72.576 L880.141 45.4349 Q880.141 38.994 877.63 35.7938 Q875.118 32.5936 870.095 32.5936 Q864.059 32.5936 860.576 36.4419 Q857.092 40.2903 857.092 46.9338 L857.092 72.576 L849.598 72.576 L849.598 27.2059 L857.092 27.2059 L857.092 34.2544 Q859.765 30.163 863.371 28.1376 Q867.016 26.1121 871.756 26.1121 Q879.574 26.1121 883.585 30.9732 Q887.595 35.7938 887.595 45.1919 Z" fill="#000000" fill-rule="nonzero" fill-opacity="1" /><path clip-path="url(#clip780)" d="M941.27 48.0275 L941.27 51.6733 L906.999 51.6733 Q907.485 59.3701 911.617 63.421 Q915.789 67.4314 923.202 67.4314 Q927.496 67.4314 931.507 66.3781 Q935.558 65.3249 939.528 63.2184 L939.528 70.267 Q935.517 71.9684 931.304 72.8596 Q927.091 73.7508 922.757 73.7508 Q911.9 73.7508 905.541 67.4314 Q899.221 61.1119 899.221 50.3365 Q899.221 39.1965 905.216 32.6746 Q911.252 26.1121 921.461 26.1121 Q930.616 26.1121 935.922 32.0264 Q941.27 37.9003 941.27 48.0275 M933.816 45.84 Q933.735 39.7232 930.373 36.0774 Q927.051 32.4315 921.542 32.4315 Q915.303 32.4315 911.536 35.9558 Q907.809 39.4801 907.242 45.8805 L933.816 45.84 Z" fill="#000000" fill-rule="nonzero" fill-opacity="1" /><path clip-path="url(#clip780)" d="M1008.8 28.5427 L1008.8 35.5912 Q1005.64 33.9709 1002.24 33.1607 Q998.833 32.3505 995.187 32.3505 Q989.637 32.3505 986.842 34.0519 Q984.088 35.7533 984.088 39.156 Q984.088 41.7486 986.073 43.2475 Q988.057 44.7058 994.053 46.0426 L996.605 46.6097 Q1004.54 48.3111 1007.87 51.4303 Q1011.23 54.509 1011.23 60.0587 Q1011.23 66.3781 1006.21 70.0644 Q1001.22 73.7508 992.473 73.7508 Q988.827 73.7508 984.857 73.0216 Q980.928 72.3329 976.553 70.9151 L976.553 63.2184 Q980.685 65.3654 984.695 66.4591 Q988.706 67.5124 992.635 67.5124 Q997.901 67.5124 1000.74 65.73 Q1003.57 63.9071 1003.57 60.6258 Q1003.57 57.5877 1001.51 55.9673 Q999.481 54.3469 992.554 52.8481 L989.961 52.2405 Q983.034 50.7821 979.956 47.7845 Q976.877 44.7463 976.877 39.4801 Q976.877 33.0797 981.414 29.5959 Q985.951 26.1121 994.296 26.1121 Q998.428 26.1121 1002.07 26.7198 Q1005.72 27.3274 1008.8 28.5427 Z" fill="#000000" fill-rule="nonzero" fill-opacity="1" /><path clip-path="url(#clip780)" d="M1023.1 27.2059 L1030.55 27.2059 L1030.55 72.576 L1023.1 72.576 L1023.1 27.2059 M1023.1 9.54393 L1030.55 9.54393 L1030.55 18.9825 L1023.1 18.9825 L1023.1 9.54393 Z" fill="#000000" fill-rule="nonzero" fill-opacity="1" /><path clip-path="url(#clip780)" d="M1081.47 35.9153 Q1084.27 30.8922 1088.16 28.5022 Q1092.04 26.1121 1097.31 26.1121 Q1104.4 26.1121 1108.25 31.0947 Q1112.1 36.0368 1112.1 45.1919 L1112.1 72.576 L1104.6 72.576 L1104.6 45.4349 Q1104.6 38.913 1102.29 35.7533 Q1099.98 32.5936 1095.24 32.5936 Q1089.45 32.5936 1086.09 36.4419 Q1082.73 40.2903 1082.73 46.9338 L1082.73 72.576 L1075.23 72.576 L1075.23 45.4349 Q1075.23 38.8725 1072.92 35.7533 Q1070.61 32.5936 1065.79 32.5936 Q1060.08 32.5936 1056.72 36.4824 Q1053.36 40.3308 1053.36 46.9338 L1053.36 72.576 L1045.86 72.576 L1045.86 27.2059 L1053.36 27.2059 L1053.36 34.2544 Q1055.91 30.082 1059.47 28.0971 Q1063.04 26.1121 1067.94 26.1121 Q1072.88 26.1121 1076.33 28.6237 Q1079.81 31.1352 1081.47 35.9153 Z" fill="#000000" fill-rule="nonzero" fill-opacity="1" /><path clip-path="url(#clip780)" d="M1126.96 27.2059 L1134.42 27.2059 L1134.42 72.576 L1126.96 72.576 L1126.96 27.2059 M1126.96 9.54393 L1134.42 9.54393 L1134.42 18.9825 L1126.96 18.9825 L1126.96 9.54393 Z" fill="#000000" fill-rule="nonzero" fill-opacity="1" /><path clip-path="url(#clip780)" d="M1150.01 9.54393 L1157.47 9.54393 L1157.47 72.576 L1150.01 72.576 L1150.01 9.54393 Z" fill="#000000" fill-rule="nonzero" fill-opacity="1" /><path clip-path="url(#clip780)" d="M1193.68 49.7694 Q1184.65 49.7694 1181.16 51.8354 Q1177.68 53.9013 1177.68 58.8839 Q1177.68 62.8538 1180.27 65.2034 Q1182.91 67.5124 1187.4 67.5124 Q1193.6 67.5124 1197.33 63.1374 Q1201.09 58.7219 1201.09 51.4303 L1201.09 49.7694 L1193.68 49.7694 M1208.55 46.6907 L1208.55 72.576 L1201.09 72.576 L1201.09 65.6895 Q1198.54 69.8214 1194.73 71.8063 Q1190.93 73.7508 1185.42 73.7508 Q1178.45 73.7508 1174.32 69.8619 Q1170.23 65.9325 1170.23 59.3701 Q1170.23 51.7138 1175.33 47.825 Q1180.48 43.9361 1190.64 43.9361 L1201.09 43.9361 L1201.09 43.2069 Q1201.09 38.0623 1197.69 35.2672 Q1194.33 32.4315 1188.21 32.4315 Q1184.32 32.4315 1180.64 33.3632 Q1176.95 34.295 1173.55 36.1584 L1173.55 29.2718 Q1177.64 27.692 1181.49 26.9223 Q1185.34 26.1121 1188.98 26.1121 Q1198.83 26.1121 1203.69 31.2163 Q1208.55 36.3204 1208.55 46.6907 Z" fill="#000000" fill-rule="nonzero" fill-opacity="1" /><path clip-path="url(#clip780)" d="M1250.19 34.1734 Q1248.94 33.4443 1247.44 33.1202 Q1245.98 32.7556 1244.2 32.7556 Q1237.88 32.7556 1234.47 36.8875 Q1231.11 40.9789 1231.11 48.6757 L1231.11 72.576 L1223.62 72.576 L1223.62 27.2059 L1231.11 27.2059 L1231.11 34.2544 Q1233.46 30.1225 1237.23 28.1376 Q1241 26.1121 1246.38 26.1121 Q1247.15 26.1121 1248.09 26.2337 Q1249.02 26.3147 1250.15 26.5172 L1250.19 34.1734 Z" fill="#000000" fill-rule="nonzero" fill-opacity="1" /><path clip-path="url(#clip780)" d="M1258.01 27.2059 L1265.46 27.2059 L1265.46 72.576 L1258.01 72.576 L1258.01 27.2059 M1258.01 9.54393 L1265.46 9.54393 L1265.46 18.9825 L1258.01 18.9825 L1258.01 9.54393 Z" fill="#000000" fill-rule="nonzero" fill-opacity="1" /><path clip-path="url(#clip780)" d="M1288.43 14.324 L1288.43 27.2059 L1303.78 27.2059 L1303.78 32.9987 L1288.43 32.9987 L1288.43 57.6282 Q1288.43 63.1779 1289.93 64.7578 Q1291.47 66.3376 1296.13 66.3376 L1303.78 66.3376 L1303.78 72.576 L1296.13 72.576 Q1287.5 72.576 1284.22 69.3758 Q1280.94 66.1351 1280.94 57.6282 L1280.94 32.9987 L1275.47 32.9987 L1275.47 27.2059 L1280.94 27.2059 L1280.94 14.324 L1288.43 14.324 Z" fill="#000000" fill-rule="nonzero" fill-opacity="1" /><path clip-path="url(#clip780)" d="M1313.59 27.2059 L1321.04 27.2059 L1321.04 72.576 L1313.59 72.576 L1313.59 27.2059 M1313.59 9.54393 L1321.04 9.54393 L1321.04 18.9825 L1313.59 18.9825 L1313.59 9.54393 Z" fill="#000000" fill-rule="nonzero" fill-opacity="1" /><path clip-path="url(#clip780)" d="M1375.45 48.0275 L1375.45 51.6733 L1341.17 51.6733 Q1341.66 59.3701 1345.79 63.421 Q1349.97 67.4314 1357.38 67.4314 Q1361.67 67.4314 1365.68 66.3781 Q1369.73 65.3249 1373.7 63.2184 L1373.7 70.267 Q1369.69 71.9684 1365.48 72.8596 Q1361.27 73.7508 1356.93 73.7508 Q1346.08 73.7508 1339.72 67.4314 Q1333.4 61.1119 1333.4 50.3365 Q1333.4 39.1965 1339.39 32.6746 Q1345.43 26.1121 1355.64 26.1121 Q1364.79 26.1121 1370.1 32.0264 Q1375.45 37.9003 1375.45 48.0275 M1367.99 45.84 Q1367.91 39.7232 1364.55 36.0774 Q1361.23 32.4315 1355.72 32.4315 Q1349.48 32.4315 1345.71 35.9558 Q1341.98 39.4801 1341.42 45.8805 L1367.99 45.84 Z" fill="#000000" fill-rule="nonzero" fill-opacity="1" /><path clip-path="url(#clip780)" d="M1416.6 28.5427 L1416.6 35.5912 Q1413.44 33.9709 1410.04 33.1607 Q1406.64 32.3505 1402.99 32.3505 Q1397.44 32.3505 1394.65 34.0519 Q1391.89 35.7533 1391.89 39.156 Q1391.89 41.7486 1393.88 43.2475 Q1395.86 44.7058 1401.86 46.0426 L1404.41 46.6097 Q1412.35 48.3111 1415.67 51.4303 Q1419.03 54.509 1419.03 60.0587 Q1419.03 66.3781 1414.01 70.0644 Q1409.03 73.7508 1400.28 73.7508 Q1396.63 73.7508 1392.66 73.0216 Q1388.73 72.3329 1384.36 70.9151 L1384.36 63.2184 Q1388.49 65.3654 1392.5 66.4591 Q1396.51 67.5124 1400.44 67.5124 Q1405.71 67.5124 1408.54 65.73 Q1411.38 63.9071 1411.38 60.6258 Q1411.38 57.5877 1409.31 55.9673 Q1407.29 54.3469 1400.36 52.8481 L1397.77 52.2405 Q1390.84 50.7821 1387.76 47.7845 Q1384.68 44.7463 1384.68 39.4801 Q1384.68 33.0797 1389.22 29.5959 Q1393.76 26.1121 1402.1 26.1121 Q1406.23 26.1121 1409.88 26.7198 Q1413.52 27.3274 1416.6 28.5427 Z" fill="#000000" fill-rule="nonzero" fill-opacity="1" /><path clip-path="url(#clip780)" d="M1489.92 28.9478 L1489.92 35.9153 Q1486.76 34.1734 1483.56 33.3227 Q1480.4 32.4315 1477.16 32.4315 Q1469.91 32.4315 1465.9 37.0496 Q1461.89 41.6271 1461.89 49.9314 Q1461.89 58.2358 1465.9 62.8538 Q1469.91 67.4314 1477.16 67.4314 Q1480.4 67.4314 1483.56 66.5807 Q1486.76 65.6895 1489.92 63.9476 L1489.92 70.8341 Q1486.8 72.2924 1483.44 73.0216 Q1480.12 73.7508 1476.35 73.7508 Q1466.1 73.7508 1460.07 67.3098 Q1454.03 60.8689 1454.03 49.9314 Q1454.03 38.832 1460.11 32.472 Q1466.23 26.1121 1476.84 26.1121 Q1480.28 26.1121 1483.56 26.8413 Q1486.85 27.5299 1489.92 28.9478 Z" fill="#000000" fill-rule="nonzero" fill-opacity="1" /><path clip-path="url(#clip780)" d="M1541.69 48.0275 L1541.69 51.6733 L1507.42 51.6733 Q1507.91 59.3701 1512.04 63.421 Q1516.21 67.4314 1523.63 67.4314 Q1527.92 67.4314 1531.93 66.3781 Q1535.98 65.3249 1539.95 63.2184 L1539.95 70.267 Q1535.94 71.9684 1531.73 72.8596 Q1527.52 73.7508 1523.18 73.7508 Q1512.33 73.7508 1505.97 67.4314 Q1499.65 61.1119 1499.65 50.3365 Q1499.65 39.1965 1505.64 32.6746 Q1511.68 26.1121 1521.89 26.1121 Q1531.04 26.1121 1536.35 32.0264 Q1541.69 37.9003 1541.69 48.0275 M1534.24 45.84 Q1534.16 39.7232 1530.8 36.0774 Q1527.48 32.4315 1521.97 32.4315 Q1515.73 32.4315 1511.96 35.9558 Q1508.23 39.4801 1507.67 45.8805 L1534.24 45.84 Z" fill="#000000" fill-rule="nonzero" fill-opacity="1" /><path clip-path="url(#clip780)" d="M1553.93 9.54393 L1561.38 9.54393 L1561.38 72.576 L1553.93 72.576 L1553.93 9.54393 Z" fill="#000000" fill-rule="nonzero" fill-opacity="1" /><path clip-path="url(#clip780)" d="M1576.98 9.54393 L1584.43 9.54393 L1584.43 72.576 L1576.98 72.576 L1576.98 9.54393 Z" fill="#000000" fill-rule="nonzero" fill-opacity="1" /><path clip-path="url(#clip780)" d="M1628.87 65.6895 L1642.24 65.6895 L1642.24 19.5497 L1627.7 22.4663 L1627.7 15.0127 L1642.16 12.096 L1650.34 12.096 L1650.34 65.6895 L1663.71 65.6895 L1663.71 72.576 L1628.87 72.576 L1628.87 65.6895 Z" fill="#000000" fill-rule="nonzero" fill-opacity="1" /><path clip-path="url(#clip780)" d="M1697.74 17.4837 Q1691.42 17.4837 1688.22 23.7221 Q1685.06 29.92 1685.06 42.3968 Q1685.06 54.833 1688.22 61.0714 Q1691.42 67.2693 1697.74 67.2693 Q1704.1 67.2693 1707.26 61.0714 Q1710.46 54.833 1710.46 42.3968 Q1710.46 29.92 1707.26 23.7221 Q1704.1 17.4837 1697.74 17.4837 M1697.74 11.0023 Q1707.9 11.0023 1713.25 19.0636 Q1718.64 27.0843 1718.64 42.3968 Q1718.64 57.6687 1713.25 65.73 Q1707.9 73.7508 1697.74 73.7508 Q1687.57 73.7508 1682.18 65.73 Q1676.83 57.6687 1676.83 42.3968 Q1676.83 27.0843 1682.18 19.0636 Q1687.57 11.0023 1697.74 11.0023 Z" fill="#000000" fill-rule="nonzero" fill-opacity="1" /><path clip-path="url(#clip780)" d="M1740.07 65.6895 L1768.63 65.6895 L1768.63 72.576 L1730.22 72.576 L1730.22 65.6895 Q1734.88 60.8689 1742.9 52.7671 Q1750.96 44.6248 1753.03 42.2752 Q1756.96 37.8598 1758.5 34.8216 Q1760.08 31.7429 1760.08 28.7857 Q1760.08 23.9651 1756.68 20.927 Q1753.31 17.8888 1747.89 17.8888 Q1744.04 17.8888 1739.74 19.2256 Q1735.49 20.5624 1730.63 23.2765 L1730.63 15.0127 Q1735.57 13.0277 1739.86 12.015 Q1744.16 11.0023 1747.72 11.0023 Q1757.12 11.0023 1762.71 15.7013 Q1768.3 20.4004 1768.3 28.2591 Q1768.3 31.9859 1766.88 35.3482 Q1765.51 38.6699 1761.82 43.2069 Q1760.81 44.3817 1755.38 50.0125 Q1749.95 55.6027 1740.07 65.6895 Z" fill="#000000" fill-rule="nonzero" fill-opacity="1" /><path clip-path="url(#clip780)" d="M1811.12 27.2059 L1818.57 27.2059 L1818.57 72.576 L1811.12 72.576 L1811.12 27.2059 M1811.12 9.54393 L1818.57 9.54393 L1818.57 18.9825 L1811.12 18.9825 L1811.12 9.54393 Z" fill="#000000" fill-rule="nonzero" fill-opacity="1" /><path clip-path="url(#clip780)" d="M1841.54 14.324 L1841.54 27.2059 L1856.9 27.2059 L1856.9 32.9987 L1841.54 32.9987 L1841.54 57.6282 Q1841.54 63.1779 1843.04 64.7578 Q1844.58 66.3376 1849.24 66.3376 L1856.9 66.3376 L1856.9 72.576 L1849.24 72.576 Q1840.61 72.576 1837.33 69.3758 Q1834.05 66.1351 1834.05 57.6282 L1834.05 32.9987 L1828.58 32.9987 L1828.58 27.2059 L1834.05 27.2059 L1834.05 14.324 L1841.54 14.324 Z" fill="#000000" fill-rule="nonzero" fill-opacity="1" /><path clip-path="url(#clip780)" d="M1905.51 48.0275 L1905.51 51.6733 L1871.24 51.6733 Q1871.72 59.3701 1875.85 63.421 Q1880.03 67.4314 1887.44 67.4314 Q1891.73 67.4314 1895.74 66.3781 Q1899.79 65.3249 1903.76 63.2184 L1903.76 70.267 Q1899.75 71.9684 1895.54 72.8596 Q1891.33 73.7508 1886.99 73.7508 Q1876.14 73.7508 1869.78 67.4314 Q1863.46 61.1119 1863.46 50.3365 Q1863.46 39.1965 1869.45 32.6746 Q1875.49 26.1121 1885.7 26.1121 Q1894.85 26.1121 1900.16 32.0264 Q1905.51 37.9003 1905.51 48.0275 M1898.05 45.84 Q1897.97 39.7232 1894.61 36.0774 Q1891.29 32.4315 1885.78 32.4315 Q1879.54 32.4315 1875.77 35.9558 Q1872.05 39.4801 1871.48 45.8805 L1898.05 45.84 Z" fill="#000000" fill-rule="nonzero" fill-opacity="1" /><path clip-path="url(#clip780)" d="M1944.03 34.1734 Q1942.77 33.4443 1941.28 33.1202 Q1939.82 32.7556 1938.04 32.7556 Q1931.72 32.7556 1928.31 36.8875 Q1924.95 40.9789 1924.95 48.6757 L1924.95 72.576 L1917.46 72.576 L1917.46 27.2059 L1924.95 27.2059 L1924.95 34.2544 Q1927.3 30.1225 1931.07 28.1376 Q1934.83 26.1121 1940.22 26.1121 Q1940.99 26.1121 1941.92 26.2337 Q1942.86 26.3147 1943.99 26.5172 L1944.03 34.1734 Z" fill="#000000" fill-rule="nonzero" fill-opacity="1" /><path clip-path="url(#clip780)" d="M1972.47 49.7694 Q1963.43 49.7694 1959.95 51.8354 Q1956.47 53.9013 1956.47 58.8839 Q1956.47 62.8538 1959.06 65.2034 Q1961.69 67.5124 1966.19 67.5124 Q1972.39 67.5124 1976.11 63.1374 Q1979.88 58.7219 1979.88 51.4303 L1979.88 49.7694 L1972.47 49.7694 M1987.33 46.6907 L1987.33 72.576 L1979.88 72.576 L1979.88 65.6895 Q1977.33 69.8214 1973.52 71.8063 Q1969.71 73.7508 1964.2 73.7508 Q1957.24 73.7508 1953.1 69.8619 Q1949.01 65.9325 1949.01 59.3701 Q1949.01 51.7138 1954.12 47.825 Q1959.26 43.9361 1969.43 43.9361 L1979.88 43.9361 L1979.88 43.2069 Q1979.88 38.0623 1976.48 35.2672 Q1973.12 32.4315 1967 32.4315 Q1963.11 32.4315 1959.42 33.3632 Q1955.74 34.295 1952.33 36.1584 L1952.33 29.2718 Q1956.43 27.692 1960.27 26.9223 Q1964.12 26.1121 1967.77 26.1121 Q1977.61 26.1121 1982.47 31.2163 Q1987.33 36.3204 1987.33 46.6907 Z" fill="#000000" fill-rule="nonzero" fill-opacity="1" /><path clip-path="url(#clip780)" d="M2010.06 14.324 L2010.06 27.2059 L2025.41 27.2059 L2025.41 32.9987 L2010.06 32.9987 L2010.06 57.6282 Q2010.06 63.1779 2011.56 64.7578 Q2013.1 66.3376 2017.76 66.3376 L2025.41 66.3376 L2025.41 72.576 L2017.76 72.576 Q2009.13 72.576 2005.85 69.3758 Q2002.57 66.1351 2002.57 57.6282 L2002.57 32.9987 L1997.1 32.9987 L1997.1 27.2059 L2002.57 27.2059 L2002.57 14.324 L2010.06 14.324 Z" fill="#000000" fill-rule="nonzero" fill-opacity="1" /><path clip-path="url(#clip780)" d="M2035.22 27.2059 L2042.67 27.2059 L2042.67 72.576 L2035.22 72.576 L2035.22 27.2059 M2035.22 9.54393 L2042.67 9.54393 L2042.67 18.9825 L2035.22 18.9825 L2035.22 9.54393 Z" fill="#000000" fill-rule="nonzero" fill-opacity="1" /><path clip-path="url(#clip780)" d="M2075.85 32.4315 Q2069.85 32.4315 2066.37 37.1306 Q2062.88 41.7891 2062.88 49.9314 Q2062.88 58.0738 2066.33 62.7728 Q2069.81 67.4314 2075.85 67.4314 Q2081.8 67.4314 2085.29 62.7323 Q2088.77 58.0333 2088.77 49.9314 Q2088.77 41.8701 2085.29 37.1711 Q2081.8 32.4315 2075.85 32.4315 M2075.85 26.1121 Q2085.57 26.1121 2091.12 32.4315 Q2096.67 38.7509 2096.67 49.9314 Q2096.67 61.0714 2091.12 67.4314 Q2085.57 73.7508 2075.85 73.7508 Q2066.08 73.7508 2060.53 67.4314 Q2055.03 61.0714 2055.03 49.9314 Q2055.03 38.7509 2060.53 32.4315 Q2066.08 26.1121 2075.85 26.1121 Z" fill="#000000" fill-rule="nonzero" fill-opacity="1" /><path clip-path="url(#clip780)" d="M2146.74 45.1919 L2146.74 72.576 L2139.28 72.576 L2139.28 45.4349 Q2139.28 38.994 2136.77 35.7938 Q2134.26 32.5936 2129.24 32.5936 Q2123.2 32.5936 2119.72 36.4419 Q2116.23 40.2903 2116.23 46.9338 L2116.23 72.576 L2108.74 72.576 L2108.74 27.2059 L2116.23 27.2059 L2116.23 34.2544 Q2118.91 30.163 2122.51 28.1376 Q2126.16 26.1121 2130.9 26.1121 Q2138.72 26.1121 2142.73 30.9732 Q2146.74 35.7938 2146.74 45.1919 Z" fill="#000000" fill-rule="nonzero" fill-opacity="1" /><path clip-path="url(#clip780)" d="M2189.11 12.096 L2221.23 12.096 L2221.23 18.9825 L2196.6 18.9825 L2196.6 33.8088 Q2198.39 33.2012 2200.17 32.9176 Q2201.95 32.5936 2203.73 32.5936 Q2213.86 32.5936 2219.78 38.1433 Q2225.69 43.6931 2225.69 53.1722 Q2225.69 62.9348 2219.61 68.3631 Q2213.54 73.7508 2202.48 73.7508 Q2198.67 73.7508 2194.7 73.1026 Q2190.77 72.4545 2186.56 71.1582 L2186.56 62.9348 Q2190.2 64.9198 2194.09 65.892 Q2197.98 66.8642 2202.32 66.8642 Q2209.32 66.8642 2213.42 63.1779 Q2217.51 59.4916 2217.51 53.1722 Q2217.51 46.8528 2213.42 43.1664 Q2209.32 39.4801 2202.32 39.4801 Q2199.03 39.4801 2195.75 40.2093 Q2192.51 40.9384 2189.11 42.4778 L2189.11 12.096 Z" fill="#000000" fill-rule="nonzero" fill-opacity="1" /><polyline clip-path="url(#clip782)" style="stroke:#009af9; stroke-linecap:round; stroke-linejoin:round; stroke-width:4; stroke-opacity:1; fill:none" points="316.984,1386.4 318.963,1376.71 320.941,1376.63 322.92,1376.62 324.898,1376.59 326.877,1376.56 328.855,1376.5 330.834,1376.5 332.812,1376.48 334.791,1376.48 336.769,1376.43 338.747,1376.43 340.726,1376.42 342.704,1376.42 344.683,1376.4 346.661,1376.4 348.64,1376.4 350.618,1376.38 352.597,1376.38 354.575,1376.37 356.554,1376.36 358.532,1376.36 360.51,1376.36 362.489,1376.35 364.467,1376.34 366.446,1376.34 368.424,1376.33 370.403,1376.33 372.381,1376.32 374.36,1376.31 376.338,1376.31 378.317,1376.3 380.295,1376.3 382.273,1376.29 384.252,1376.28 386.23,1376.27 388.209,1376.26 390.187,1376.26 392.166,1376.26 394.144,1376.26 396.123,1376.25 398.101,1376.25 400.08,1376.24 402.058,1376.24 404.036,1376.24 406.015,1376.24 407.993,1376.24 409.972,1376.24 411.95,1376.24 413.929,1376.23 415.907,1376.23 417.886,1376.23 419.864,1376.23 421.843,1376.22 423.821,1376.22 425.8,1376.22 427.778,1376.22 429.756,1376.21 431.735,1376.21 433.713,1376.21 435.692,1376.21 437.67,1376.2 439.649,1376.2 441.627,1376.2 443.606,1376.19 445.584,1376.19 447.563,1376.18 449.541,1376.18 451.519,1376.18 453.498,1376.18 455.476,1376.18 457.455,1376.17 459.433,1376.17 461.412,1376.17 463.39,1376.17 465.369,1376.16 467.347,1376.15 469.326,1376.15 471.304,1376.15 473.282,1376.14 475.261,1376.14 477.239,1376.13 479.218,1376.13 481.196,1376.13 483.175,1376.12 485.153,1376.12 487.132,1376.12 489.11,1376.11 491.089,1376.11 493.067,1376.11 495.045,1376.1 497.024,1376.1 499.002,1376.09 500.981,1376.09 502.959,1376.08 504.938,1376.07 506.916,1376.07 508.895,1376.07 510.873,1376.06 512.852,1376.05 514.83,1376.05 516.808,1376.05 518.787,1376.04 520.765,1376.04 522.744,1376.04 524.722,1376.04 526.701,1376.03 528.679,1376.02 530.658,1376.02 532.636,1376.01 534.615,1376.01 536.593,1376 538.571,1375.99 540.55,1375.99 542.528,1375.97 544.507,1375.97 546.485,1375.96 548.464,1375.95 550.442,1375.94 552.421,1375.94 554.399,1375.93 556.378,1375.92 558.356,1375.92 560.334,1375.92 562.313,1375.91 564.291,1375.9 566.27,1375.87 568.248,1375.86 570.227,1375.85 572.205,1375.85 574.184,1375.83 576.162,1375.82 578.141,1375.81 580.119,1375.8 582.098,1375.78 584.076,1375.77 586.054,1375.77 588.033,1375.74 590.011,1375.73 591.99,1375.71 593.968,1375.69 595.947,1375.68 597.925,1375.66 599.904,1375.65 601.882,1375.62 603.861,1375.59 605.839,1375.56 607.817,1375.56 609.796,1375.5 611.774,1375.44 613.753,1375.43 615.731,1375.43 617.71,1375.43 619.688,1375.41 621.667,1375.34 623.645,1375.33 625.624,1375.3 627.602,1375.29 629.58,1375.28 631.559,1375.26 633.537,1375.23 635.516,1375.22 637.494,1375.16 639.473,1375.13 641.451,1375.08 643.43,1375.06 645.408,1375.05 647.387,1375 649.365,1374.95 651.343,1374.94 653.322,1374.93 655.3,1374.86 657.279,1374.83 659.257,1374.81 661.236,1374.8 663.214,1374.79 665.193,1374.76 667.171,1374.71 669.15,1374.67 671.128,1374.58 673.106,1374.34 675.085,1374.28 677.063,1374.26 679.042,1374.21 681.02,1374.18 682.999,1374.16 684.977,1374.1 686.956,1374.07 688.934,1373.97 690.913,1373.84 692.891,1373.7 694.869,1373.51 696.848,1373.39 698.826,1373.13 700.805,1372.84 702.783,1372.82 704.762,1372.73 706.74,1372.15 708.719,1371.99 710.697,1371.72 712.676,1371.63 714.654,1371.17 716.632,1371.14 718.611,1370.98 720.589,1370.82 722.568,1370.77 724.546,1370.75 726.525,1370.53 728.503,1370.51 730.482,1370.5 732.46,1369.68 734.439,1369.58 736.417,1369.35 738.395,1369.08 740.374,1369.04 742.352,1368.31 744.331,1367.69 746.309,1367.12 748.288,1367.09 750.266,1364.97 752.245,1363.8 754.223,1362.99 756.202,1361.99 758.18,1361.85 760.159,1360.03 762.137,1359.33 764.115,1358.75 766.094,1357.22 768.072,1357.03 770.051,1353.85 772.029,1353.71 774.008,1353.31 775.986,1352.39 777.965,1351.16 779.943,1349.12 781.922,1346.65 783.9,1343.07 785.878,1342.01 787.857,1341.91 789.835,1337.5 791.814,1336.61 793.792,1333.14 795.771,1329.63 797.749,1327.39 799.728,1326.68 801.706,1319.46 803.685,1310.27 805.663,1304.74 807.641,1296.9 809.62,1269.98 811.598,1269.29 813.577,1268.85 815.555,1265.99 817.534,1264.83 819.512,1264.22 821.491,1263.01 823.469,1262.77 825.448,1262.52 827.426,1262.23 829.404,1261.82 831.383,1261.68 833.361,1261.18 835.34,1259.51 837.318,1259.14 839.297,1258.79 841.275,1257.14 843.254,1256.75 845.232,1255.99 847.211,1255.86 849.189,1255.04 851.167,1254.77 853.146,1253.71 855.124,1253.7 857.103,1253.42 859.081,1253.2 861.06,1253 863.038,1252.46 865.017,1251.84 866.995,1251.8 868.974,1251.68 870.952,1251.67 872.93,1251.61 874.909,1251.55 876.887,1251.54 878.866,1251.27 880.844,1251.13 882.823,1251.13 884.801,1251.03 886.78,1250.96 888.758,1250.9 890.737,1250.83 892.715,1250.83 894.693,1250.79 896.672,1250.73 898.65,1250.44 900.629,1250.42 902.607,1250.39 904.586,1250.36 906.564,1250.35 908.543,1250.32 910.521,1250.25 912.5,1250.25 914.478,1250.24 916.456,1250.22 918.435,1250.21 920.413,1250.2 922.392,1250.17 924.37,1250.1 926.349,1250.08 928.327,1250.07 930.306,1250.05 932.284,1250.04 934.263,1250.03 936.241,1250.03 938.22,1250.03 940.198,1250.01 942.176,1249.99 944.155,1249.99 946.133,1249.99 948.112,1249.99 950.09,1249.97 952.069,1249.97 954.047,1249.96 956.026,1249.95 958.004,1249.95 959.983,1249.95 961.961,1249.94 963.939,1249.94 965.918,1249.93 967.896,1249.93 969.875,1249.92 971.853,1249.91 973.832,1249.91 975.81,1249.9 977.789,1249.89 979.767,1249.89 981.746,1249.89 983.724,1249.88 985.702,1249.87 987.681,1249.85 989.659,1249.84 991.638,1249.84 993.616,1249.84 995.595,1249.84 997.573,1249.81 999.552,1249.8 1001.53,1249.8 1003.51,1249.77 1005.49,1249.7 1007.47,1249.69 1009.44,1249.69 1011.42,1249.68 1013.4,1249.63 1015.38,1249.6 1017.36,1249.6 1019.34,1249.57 1021.31,1249.53 1023.29,1249.49 1025.27,1249.45 1027.25,1249.34 1029.23,1249.29 1031.21,1249.27 1033.19,1249.24 1035.16,1249.2 1037.14,1249.16 1039.12,1249.11 1041.1,1249.09 1043.08,1249 1045.06,1248.96 1047.03,1248.84 1049.01,1248.83 1050.99,1248.79 1052.97,1248.79 1054.95,1248.64 1056.93,1248.35 1058.91,1248.31 1060.88,1248.31 1062.86,1248.12 1064.84,1247.81 1066.82,1247.72 1068.8,1247.61 1070.78,1247.54 1072.75,1247.47 1074.73,1247.4 1076.71,1247.3 1078.69,1247.21 1080.67,1247.19 1082.65,1247.19 1084.63,1247.16 1086.6,1247.12 1088.58,1247.1 1090.56,1246.85 1092.54,1246.84 1094.52,1246.72 1096.5,1246.5 1098.47,1246.48 1100.45,1246.43 1102.43,1246.36 1104.41,1246.26 1106.39,1246.25 1108.37,1246.24 1110.35,1246.01 1112.32,1245.95 1114.3,1245.72 1116.28,1245.57 1118.26,1245.36 1120.24,1245.23 1122.22,1245.2 1124.19,1245.11 1126.17,1245.07 1128.15,1244.99 1130.13,1244.9 1132.11,1244.81 1134.09,1244.74 1136.07,1244.48 1138.04,1244.45 1140.02,1244.23 1142,1244.22 1143.98,1244.2 1145.96,1244.12 1147.94,1244.08 1149.91,1244.02 1151.89,1244.02 1153.87,1243.93 1155.85,1243.92 1157.83,1243.83 1159.81,1243.78 1161.78,1243.73 1163.76,1243.67 1165.74,1243.59 1167.72,1243.54 1169.7,1243.44 1171.68,1243.43 1173.66,1243.4 1175.63,1243.4 1177.61,1243.34 1179.59,1243.24 1181.57,1243.23 1183.55,1243.23 1185.53,1243.13 1187.5,1243.06 1189.48,1242.98 1191.46,1242.98 1193.44,1242.84 1195.42,1242.78 1197.4,1242.77 1199.38,1242.66 1201.35,1242.61 1203.33,1242.51 1205.31,1242.5 1207.29,1242.49 1209.27,1242.45 1211.25,1242.44 1213.22,1242.36 1215.2,1242.29 1217.18,1242.13 1219.16,1241.83 1221.14,1241.73 1223.12,1241.62 1225.1,1241.6 1227.07,1241.39 1229.05,1241.37 1231.03,1241.16 1233.01,1241.11 1234.99,1240.98 1236.97,1240.95 1238.94,1240.88 1240.92,1240.81 1242.9,1240.74 1244.88,1240.73 1246.86,1240.56 1248.84,1240.55 1250.82,1240.45 1252.79,1240.39 1254.77,1240.34 1256.75,1240.26 1258.73,1240.23 1260.71,1240.23 1262.69,1240.23 1264.66,1240.17 1266.64,1240.17 1268.62,1240.16 1270.6,1240.14 1272.58,1239.81 1274.56,1239.72 1276.54,1239.65 1278.51,1239.49 1280.49,1239.47 1282.47,1239.42 1284.45,1239.34 1286.43,1239.18 1288.41,1239.12 1290.38,1239.12 1292.36,1239.11 1294.34,1239.01 1296.32,1238.93 1298.3,1238.91 1300.28,1238.86 1302.26,1238.86 1304.23,1238.8 1306.21,972.884 1308.19,949.332 1310.17,949.145 1312.15,948.772 1314.13,948.714 1316.1,948.548 1318.08,948.44 1320.06,948.426 1322.04,948.419 1324.02,948.418 1326,948.416 1327.98,948.412 1329.95,948.411 1331.93,948.408 1333.91,948.401 1335.89,948.401 1337.87,948.4 1339.85,948.394 1341.82,948.394 1343.8,948.391 1345.78,948.381 1347.76,948.38 1349.74,948.379 1351.72,948.377 1353.7,948.373 1355.67,948.37 1357.65,948.363 1359.63,948.36 1361.61,948.354 1363.59,948.351 1365.57,948.349 1367.54,948.349 1369.52,948.347 1371.5,948.34 1373.48,948.339 1375.46,948.337 1377.44,948.337 1379.42,948.335 1381.39,948.333 1383.37,948.331 1385.35,948.331 1387.33,948.331 1389.31,948.327 1391.29,948.326 1393.26,948.318 1395.24,948.316 1397.22,948.314 1399.2,948.314 1401.18,948.313 1403.16,948.313 1405.14,948.312 1407.11,948.308 1409.09,948.308 1411.07,948.307 1413.05,948.307 1415.03,948.307 1417.01,948.306 1418.98,948.306 1420.96,948.305 1422.94,948.304 1424.92,948.304 1426.9,948.304 1428.88,948.303 1430.85,948.302 1432.83,948.302 1434.81,948.302 1436.79,948.302 1438.77,948.302 1440.75,948.302 1442.73,948.302 1444.7,948.302 1446.68,948.302 1448.66,948.302 1450.64,948.302 1452.62,948.302 1454.6,948.302 1456.57,948.302 1458.55,948.301 1460.53,948.301 1462.51,948.301 1464.49,948.301 1466.47,948.301 1468.45,948.301 1470.42,948.301 1472.4,948.301 1474.38,948.301 1476.36,948.301 1478.34,948.301 1480.32,948.301 1482.29,948.301 1484.27,948.301 1486.25,948.301 1488.23,948.301 1490.21,948.301 1492.19,948.301 1494.17,948.3 1496.14,948.3 1498.12,948.3 1500.1,948.3 1502.08,948.3 1504.06,948.3 1506.04,948.299 1508.01,948.299 1509.99,948.299 1511.97,948.299 1513.95,948.299 1515.93,948.298 1517.91,948.298 1519.89,948.298 1521.86,948.298 1523.84,948.297 1525.82,948.297 1527.8,948.297 1529.78,948.297 1531.76,948.296 1533.73,948.296 1535.71,948.296 1537.69,948.296 1539.67,948.296 1541.65,948.295 1543.63,948.295 1545.61,948.295 1547.58,948.295 1549.56,948.295 1551.54,948.295 1553.52,948.294 1555.5,948.293 1557.48,948.293 1559.45,948.293 1561.43,948.293 1563.41,948.293 1565.39,948.292 1567.37,948.292 1569.35,948.289 1571.33,948.289 1573.3,948.288 1575.28,948.288 1577.26,948.287 1579.24,948.286 1581.22,948.286 1583.2,948.285 1585.17,948.283 1587.15,948.283 1589.13,948.282 1591.11,948.282 1593.09,948.282 1595.07,948.282 1597.05,948.282 1599.02,948.281 1601,948.281 1602.98,948.281 1604.96,948.277 1606.94,948.277 1608.92,948.276 1610.89,948.276 1612.87,948.275 1614.85,948.275 1616.83,948.274 1618.81,948.274 1620.79,948.274 1622.77,948.273 1624.74,948.272 1626.72,948.27 1628.7,948.269 1630.68,948.267 1632.66,948.267 1634.64,948.266 1636.61,948.266 1638.59,948.265 1640.57,948.265 1642.55,948.264 1644.53,948.261 1646.51,948.261 1648.49,948.26 1650.46,948.259 1652.44,948.258 1654.42,948.258 1656.4,948.256 1658.38,948.256 1660.36,948.255 1662.33,948.255 1664.31,948.255 1666.29,948.254 1668.27,948.254 1670.25,948.248 1672.23,948.248 1674.2,948.247 1676.18,948.247 1678.16,948.246 1680.14,948.245 1682.12,948.245 1684.1,948.245 1686.08,948.24 1688.05,948.237 1690.03,948.236 1692.01,948.236 1693.99,948.232 1695.97,948.232 1697.95,948.232 1699.92,948.231 1701.9,948.23 1703.88,948.23 1705.86,948.229 1707.84,948.229 1709.82,948.227 1711.8,948.226 1713.77,948.226 1715.75,948.225 1717.73,948.225 1719.71,948.224 1721.69,948.223 1723.67,948.223 1725.64,948.222 1727.62,948.222 1729.6,948.222 1731.58,948.221 1733.56,948.221 1735.54,948.22 1737.52,948.22 1739.49,948.219 1741.47,948.219 1743.45,948.219 1745.43,948.218 1747.41,948.218 1749.39,948.218 1751.36,948.218 1753.34,948.217 1755.32,948.216 1757.3,948.216 1759.28,948.215 1761.26,948.213 1763.24,948.213 1765.21,948.213 1767.19,948.212 1769.17,948.211 1771.15,948.21 1773.13,948.209 1775.11,948.209 1777.08,948.206 1779.06,948.206 1781.04,948.205 1783.02,948.205 1785,948.205 1786.98,948.205 1788.96,948.204 1790.93,948.204 1792.91,948.2 1794.89,948.199 1796.87,948.199 1798.85,948.198 1800.83,177.679 1802.8,175.012 1804.78,173.614 1806.76,173.336 1808.74,173.085 1810.72,172.892 1812.7,172.883 1814.68,172.823 1816.65,172.76 1818.63,172.647 1820.61,172.568 1822.59,172.535 1824.57,172.53 1826.55,172.522 1828.52,172.505 1830.5,172.503 1832.48,172.503 1834.46,172.5 1836.44,172.498 1838.42,172.492 1840.4,172.488 1842.37,172.485 1844.35,172.473 1846.33,172.468 1848.31,172.443 1850.29,172.44 1852.27,172.439 1854.24,172.437 1856.22,172.435 1858.2,172.431 1860.18,172.429 1862.16,172.423 1864.14,172.405 1866.12,172.404 1868.09,172.393 1870.07,172.378 1872.05,172.362 1874.03,172.361 1876.01,172.345 1877.99,172.345 1879.96,172.33 1881.94,172.322 1883.92,172.274 1885.9,172.269 1887.88,172.264 1889.86,172.263 1891.84,172.248 1893.81,172.246 1895.79,172.214 1897.77,172.209 1899.75,172.203 1901.73,172.185 1903.71,172.17 1905.68,172.157 1907.66,172.152 1909.64,172.151 1911.62,172.148 1913.6,172.142 1915.58,172.14 1917.56,172.13 1919.53,172.119 1921.51,172.118 1923.49,172.117 1925.47,172.114 1927.45,172.114 1929.43,172.11 1931.4,172.097 1933.38,172.074 1935.36,172.073 1937.34,172.073 1939.32,172.063 1941.3,172.061 1943.27,172.061 1945.25,172.059 1947.23,172.021 1949.21,172.003 1951.19,172.002 1953.17,171.999 1955.15,171.987 1957.12,171.984 1959.1,171.975 1961.08,171.968 1963.06,171.963 1965.04,171.957 1967.02,171.95 1968.99,171.94 1970.97,171.933 1972.95,171.931 1974.93,171.924 1976.91,171.923 1978.89,171.921 1980.87,171.92 1982.84,171.902 1984.82,171.901 1986.8,171.885 1988.78,171.883 1990.76,171.88 1992.74,171.88 1994.71,171.879 1996.69,171.867 1998.67,171.856 2000.65,171.843 2002.63,171.838 2004.61,171.819 2006.59,171.811 2008.56,171.8 2010.54,171.789 2012.52,171.788 2014.5,171.784 2016.48,171.773 2018.46,171.77 2020.43,171.755 2022.41,171.75 2024.39,171.747 2026.37,171.745 2028.35,171.744 2030.33,171.737 2032.31,171.734 2034.28,171.731 2036.26,171.713 2038.24,171.713 2040.22,171.704 2042.2,171.702 2044.18,171.701 2046.15,171.698 2048.13,171.694 2050.11,171.694 2052.09,171.668 2054.07,171.664 2056.05,171.643 2058.03,171.62 2060,171.619 2061.98,171.611 2063.96,171.589 2065.94,171.578 2067.92,171.567 2069.9,171.563 2071.87,171.556 2073.85,171.539 2075.83,171.536 2077.81,171.523 2079.79,171.521 2081.77,171.516 2083.75,171.513 2085.72,171.499 2087.7,171.482 2089.68,171.482 2091.66,171.475 2093.64,171.455 2095.62,171.454 2097.59,171.451 2099.57,171.427 2101.55,171.406 2103.53,171.355 2105.51,171.342 2107.49,171.327 2109.47,171.315 2111.44,171.312 2113.42,171.289 2115.4,171.281 2117.38,171.273 2119.36,171.271 2121.34,171.235 2123.31,171.223 2125.29,171.219 2127.27,171.217 2129.25,171.217 2131.23,171.202 2133.21,171.182 2135.19,171.16 2137.16,171.148 2139.14,171.144 2141.12,171.129 2143.1,171.117 2145.08,171.109 2147.06,171.073 2149.03,171.022 2151.01,171.003 2152.99,170.855 2154.97,170.844 2156.95,170.831 2158.93,170.74 2160.91,170.673 2162.88,170.635 2164.86,170.61 2166.84,170.596 2168.82,170.595 2170.8,170.551 2172.78,170.529 2174.75,170.472 2176.73,170.467 2178.71,170.458 2180.69,170.231 2182.67,170.207 2184.65,170.142 2186.62,170.131 2188.6,170.118 2190.58,170.114 2192.56,170.035 2194.54,169.956 2196.52,169.92 2198.5,169.883 2200.47,169.804 2202.45,169.779 2204.43,169.752 2206.41,169.679 2208.39,169.653 2210.37,169.601 2212.34,169.571 2214.32,169.537 2216.3,169.506 2218.28,169.44 2220.26,169.38 2222.24,169.292 2224.22,169.225 2226.19,169.085 2228.17,168.962 2230.15,168.918 2232.13,168.886 2234.11,168.88 2236.09,168.874 2238.06,168.859 2240.04,168.752 2242.02,168.623 2244,168.604 2245.98,168.57 2247.96,168.518 2249.94,168.51 2251.91,168.434 2253.89,168.424 2255.87,168.367 2257.85,168.233 2259.83,168.208 2261.81,168.111 2263.78,167.942 2265.76,167.9 2267.74,167.818 2269.72,167.738 2271.7,167.398 2273.68,166.962 2275.66,166.91 2277.63,166.844 2279.61,166.734 2281.59,166.714 2283.57,166.098 2285.55,166.057 2287.53,165.768 2289.5,165.669 2291.48,165.514 2293.46,160.256 "/>
<path clip-path="url(#clip780)" d="M327.526 270.476 L756.638 270.476 L756.638 166.796 L327.526 166.796  Z" fill="#ffffff" fill-rule="evenodd" fill-opacity="1"/>
<polyline clip-path="url(#clip780)" style="stroke:#000000; stroke-linecap:round; stroke-linejoin:round; stroke-width:4; stroke-opacity:1; fill:none" points="327.526,270.476 756.638,270.476 756.638,166.796 327.526,166.796 327.526,270.476 "/>
<polyline clip-path="url(#clip780)" style="stroke:#009af9; stroke-linecap:round; stroke-linejoin:round; stroke-width:4; stroke-opacity:1; fill:none" points="350.804,218.636 490.475,218.636 "/>
<path clip-path="url(#clip780)" d="M535.999 202.49 L535.999 207.05 Q533.337 205.777 530.976 205.152 Q528.615 204.527 526.416 204.527 Q522.596 204.527 520.513 206.008 Q518.453 207.49 518.453 210.221 Q518.453 212.513 519.819 213.694 Q521.207 214.851 525.05 215.569 L527.874 216.147 Q533.105 217.143 535.582 219.666 Q538.082 222.166 538.082 226.379 Q538.082 231.402 534.703 233.994 Q531.346 236.587 524.842 236.587 Q522.388 236.587 519.61 236.031 Q516.856 235.476 513.893 234.388 L513.893 229.573 Q516.74 231.17 519.471 231.981 Q522.203 232.791 524.842 232.791 Q528.846 232.791 531.022 231.217 Q533.198 229.643 533.198 226.726 Q533.198 224.18 531.624 222.744 Q530.073 221.309 526.508 220.592 L523.661 220.036 Q518.43 218.995 516.092 216.772 Q513.754 214.55 513.754 210.592 Q513.754 206.008 516.971 203.37 Q520.212 200.731 525.883 200.731 Q528.314 200.731 530.837 201.171 Q533.36 201.61 535.999 202.49 Z" fill="#000000" fill-rule="nonzero" fill-opacity="1" /><path clip-path="url(#clip780)" d="M545.189 209.99 L549.448 209.99 L549.448 235.916 L545.189 235.916 L545.189 209.99 M545.189 199.897 L549.448 199.897 L549.448 205.291 L545.189 205.291 L545.189 199.897 Z" fill="#000000" fill-rule="nonzero" fill-opacity="1" /><path clip-path="url(#clip780)" d="M578.545 214.967 Q580.142 212.096 582.364 210.731 Q584.587 209.365 587.596 209.365 Q591.647 209.365 593.846 212.212 Q596.045 215.036 596.045 220.268 L596.045 235.916 L591.763 235.916 L591.763 220.407 Q591.763 216.68 590.443 214.874 Q589.124 213.069 586.415 213.069 Q583.105 213.069 581.184 215.268 Q579.263 217.467 579.263 221.263 L579.263 235.916 L574.98 235.916 L574.98 220.407 Q574.98 216.657 573.661 214.874 Q572.341 213.069 569.587 213.069 Q566.323 213.069 564.402 215.291 Q562.48 217.49 562.48 221.263 L562.48 235.916 L558.198 235.916 L558.198 209.99 L562.48 209.99 L562.48 214.018 Q563.939 211.633 565.976 210.499 Q568.013 209.365 570.814 209.365 Q573.638 209.365 575.605 210.8 Q577.596 212.235 578.545 214.967 Z" fill="#000000" fill-rule="nonzero" fill-opacity="1" /><path clip-path="url(#clip780)" d="M604.54 209.99 L608.8 209.99 L608.8 235.916 L604.54 235.916 L604.54 209.99 M604.54 199.897 L608.8 199.897 L608.8 205.291 L604.54 205.291 L604.54 199.897 Z" fill="#000000" fill-rule="nonzero" fill-opacity="1" /><path clip-path="url(#clip780)" d="M617.712 199.897 L621.971 199.897 L621.971 235.916 L617.712 235.916 L617.712 199.897 Z" fill="#000000" fill-rule="nonzero" fill-opacity="1" /><path clip-path="url(#clip780)" d="M642.665 222.883 Q637.503 222.883 635.512 224.064 Q633.522 225.244 633.522 228.092 Q633.522 230.36 635.003 231.703 Q636.508 233.022 639.077 233.022 Q642.619 233.022 644.748 230.522 Q646.901 227.999 646.901 223.832 L646.901 222.883 L642.665 222.883 M651.16 221.124 L651.16 235.916 L646.901 235.916 L646.901 231.981 Q645.443 234.342 643.267 235.476 Q641.091 236.587 637.943 236.587 Q633.961 236.587 631.6 234.365 Q629.262 232.119 629.262 228.369 Q629.262 223.994 632.179 221.772 Q635.119 219.55 640.929 219.55 L646.901 219.55 L646.901 219.133 Q646.901 216.194 644.957 214.596 Q643.035 212.976 639.54 212.976 Q637.318 212.976 635.211 213.508 Q633.105 214.041 631.161 215.106 L631.161 211.17 Q633.498 210.268 635.698 209.828 Q637.897 209.365 639.98 209.365 Q645.605 209.365 648.383 212.282 Q651.16 215.198 651.16 221.124 Z" fill="#000000" fill-rule="nonzero" fill-opacity="1" /><path clip-path="url(#clip780)" d="M674.957 213.971 Q674.239 213.555 673.383 213.37 Q672.549 213.161 671.531 213.161 Q667.92 213.161 665.975 215.522 Q664.054 217.86 664.054 222.258 L664.054 235.916 L659.771 235.916 L659.771 209.99 L664.054 209.99 L664.054 214.018 Q665.396 211.657 667.549 210.522 Q669.702 209.365 672.781 209.365 Q673.22 209.365 673.753 209.434 Q674.285 209.481 674.933 209.596 L674.957 213.971 Z" fill="#000000" fill-rule="nonzero" fill-opacity="1" /><path clip-path="url(#clip780)" d="M679.424 209.99 L683.683 209.99 L683.683 235.916 L679.424 235.916 L679.424 209.99 M679.424 199.897 L683.683 199.897 L683.683 205.291 L679.424 205.291 L679.424 199.897 Z" fill="#000000" fill-rule="nonzero" fill-opacity="1" /><path clip-path="url(#clip780)" d="M696.808 202.629 L696.808 209.99 L705.581 209.99 L705.581 213.3 L696.808 213.3 L696.808 227.374 Q696.808 230.545 697.665 231.448 Q698.544 232.351 701.206 232.351 L705.581 232.351 L705.581 235.916 L701.206 235.916 Q696.276 235.916 694.401 234.087 Q692.526 232.235 692.526 227.374 L692.526 213.3 L689.401 213.3 L689.401 209.99 L692.526 209.99 L692.526 202.629 L696.808 202.629 Z" fill="#000000" fill-rule="nonzero" fill-opacity="1" /><path clip-path="url(#clip780)" d="M721.97 238.323 Q720.165 242.953 718.452 244.365 Q716.739 245.777 713.868 245.777 L710.466 245.777 L710.466 242.212 L712.966 242.212 Q714.725 242.212 715.697 241.379 Q716.669 240.545 717.85 237.443 L718.614 235.499 L708.128 209.99 L712.642 209.99 L720.743 230.268 L728.845 209.99 L733.359 209.99 L721.97 238.323 Z" fill="#000000" fill-rule="nonzero" fill-opacity="1" /></svg>
