<?xml version="1.0" encoding="utf-8"?>
<svg xmlns="http://www.w3.org/2000/svg" xmlns:xlink="http://www.w3.org/1999/xlink" width="600" height="400" viewBox="0 0 2400 1600">
<defs>
  <clipPath id="clip880">
    <rect x="0" y="0" width="2400" height="1600"/>
  </clipPath>
</defs>
<path clip-path="url(#clip880)" d="M0 1600 L2400 1600 L2400 8.88178e-14 L0 8.88178e-14  Z" fill="#ffffff" fill-rule="evenodd" fill-opacity="1"/>
<defs>
  <clipPath id="clip881">
    <rect x="480" y="0" width="1681" height="1600"/>
  </clipPath>
</defs>
<path clip-path="url(#clip880)" d="M287.366 1423.18 L2352.76 1423.18 L2352.76 123.472 L287.366 123.472  Z" fill="#ffffff" fill-rule="evenodd" fill-opacity="1"/>
<defs>
  <clipPath id="clip882">
    <rect x="287" y="123" width="2066" height="1301"/>
  </clipPath>
</defs>
<polyline clip-path="url(#clip882)" style="stroke:#000000; stroke-linecap:round; stroke-linejoin:round; stroke-width:2; stroke-opacity:0.1; fill:none" points="343.87,1423.18 343.87,123.472 "/>
<polyline clip-path="url(#clip882)" style="stroke:#000000; stroke-linecap:round; stroke-linejoin:round; stroke-width:2; stroke-opacity:0.1; fill:none" points="831.478,1423.18 831.478,123.472 "/>
<polyline clip-path="url(#clip882)" style="stroke:#000000; stroke-linecap:round; stroke-linejoin:round; stroke-width:2; stroke-opacity:0.1; fill:none" points="1319.09,1423.18 1319.09,123.472 "/>
<polyline clip-path="url(#clip882)" style="stroke:#000000; stroke-linecap:round; stroke-linejoin:round; stroke-width:2; stroke-opacity:0.1; fill:none" points="1806.69,1423.18 1806.69,123.472 "/>
<polyline clip-path="url(#clip882)" style="stroke:#000000; stroke-linecap:round; stroke-linejoin:round; stroke-width:2; stroke-opacity:0.1; fill:none" points="2294.3,1423.18 2294.3,123.472 "/>
<polyline clip-path="url(#clip880)" style="stroke:#000000; stroke-linecap:round; stroke-linejoin:round; stroke-width:4; stroke-opacity:1; fill:none" points="287.366,1423.18 2352.76,1423.18 "/>
<polyline clip-path="url(#clip880)" style="stroke:#000000; stroke-linecap:round; stroke-linejoin:round; stroke-width:4; stroke-opacity:1; fill:none" points="343.87,1423.18 343.87,1404.28 "/>
<polyline clip-path="url(#clip880)" style="stroke:#000000; stroke-linecap:round; stroke-linejoin:round; stroke-width:4; stroke-opacity:1; fill:none" points="831.478,1423.18 831.478,1404.28 "/>
<polyline clip-path="url(#clip880)" style="stroke:#000000; stroke-linecap:round; stroke-linejoin:round; stroke-width:4; stroke-opacity:1; fill:none" points="1319.09,1423.18 1319.09,1404.28 "/>
<polyline clip-path="url(#clip880)" style="stroke:#000000; stroke-linecap:round; stroke-linejoin:round; stroke-width:4; stroke-opacity:1; fill:none" points="1806.69,1423.18 1806.69,1404.28 "/>
<polyline clip-path="url(#clip880)" style="stroke:#000000; stroke-linecap:round; stroke-linejoin:round; stroke-width:4; stroke-opacity:1; fill:none" points="2294.3,1423.18 2294.3,1404.28 "/>
<path clip-path="url(#clip880)" d="M343.87 1454.1 Q340.259 1454.1 338.43 1457.66 Q336.625 1461.2 336.625 1468.33 Q336.625 1475.44 338.43 1479.01 Q340.259 1482.55 343.87 1482.55 Q347.504 1482.55 349.31 1479.01 Q351.138 1475.44 351.138 1468.33 Q351.138 1461.2 349.31 1457.66 Q347.504 1454.1 343.87 1454.1 M343.87 1450.39 Q349.68 1450.39 352.736 1455 Q355.814 1459.58 355.814 1468.33 Q355.814 1477.06 352.736 1481.67 Q349.68 1486.25 343.87 1486.25 Q338.06 1486.25 334.981 1481.67 Q331.926 1477.06 331.926 1468.33 Q331.926 1459.58 334.981 1455 Q338.06 1450.39 343.87 1450.39 Z" fill="#000000" fill-rule="nonzero" fill-opacity="1" /><path clip-path="url(#clip880)" d="M795.17 1481.64 L811.489 1481.64 L811.489 1485.58 L789.545 1485.58 L789.545 1481.64 Q792.207 1478.89 796.79 1474.26 Q801.397 1469.61 802.577 1468.27 Q804.823 1465.74 805.702 1464.01 Q806.605 1462.25 806.605 1460.56 Q806.605 1457.8 804.661 1456.07 Q802.74 1454.33 799.638 1454.33 Q797.439 1454.33 794.985 1455.09 Q792.554 1455.86 789.777 1457.41 L789.777 1452.69 Q792.601 1451.55 795.054 1450.97 Q797.508 1450.39 799.545 1450.39 Q804.915 1450.39 808.11 1453.08 Q811.304 1455.77 811.304 1460.26 Q811.304 1462.39 810.494 1464.31 Q809.707 1466.2 807.601 1468.8 Q807.022 1469.47 803.92 1472.69 Q800.818 1475.88 795.17 1481.64 Z" fill="#000000" fill-rule="nonzero" fill-opacity="1" /><path clip-path="url(#clip880)" d="M821.351 1451.02 L839.707 1451.02 L839.707 1454.96 L825.633 1454.96 L825.633 1463.43 Q826.651 1463.08 827.67 1462.92 Q828.688 1462.73 829.707 1462.73 Q835.494 1462.73 838.874 1465.9 Q842.253 1469.08 842.253 1474.49 Q842.253 1480.07 838.781 1483.17 Q835.309 1486.25 828.989 1486.25 Q826.813 1486.25 824.545 1485.88 Q822.3 1485.51 819.892 1484.77 L819.892 1480.07 Q821.976 1481.2 824.198 1481.76 Q826.42 1482.32 828.897 1482.32 Q832.901 1482.32 835.239 1480.21 Q837.577 1478.1 837.577 1474.49 Q837.577 1470.88 835.239 1468.77 Q832.901 1466.67 828.897 1466.67 Q827.022 1466.67 825.147 1467.08 Q823.295 1467.5 821.351 1468.38 L821.351 1451.02 Z" fill="#000000" fill-rule="nonzero" fill-opacity="1" /><path clip-path="url(#clip880)" d="M861.466 1454.1 Q857.855 1454.1 856.026 1457.66 Q854.221 1461.2 854.221 1468.33 Q854.221 1475.44 856.026 1479.01 Q857.855 1482.55 861.466 1482.55 Q865.1 1482.55 866.906 1479.01 Q868.735 1475.44 868.735 1468.33 Q868.735 1461.2 866.906 1457.66 Q865.1 1454.1 861.466 1454.1 M861.466 1450.39 Q867.276 1450.39 870.332 1455 Q873.41 1459.58 873.41 1468.33 Q873.41 1477.06 870.332 1481.67 Q867.276 1486.25 861.466 1486.25 Q855.656 1486.25 852.577 1481.67 Q849.522 1477.06 849.522 1468.33 Q849.522 1459.58 852.577 1455 Q855.656 1450.39 861.466 1450.39 Z" fill="#000000" fill-rule="nonzero" fill-opacity="1" /><path clip-path="url(#clip880)" d="M1278.7 1451.02 L1297.06 1451.02 L1297.06 1454.96 L1282.99 1454.96 L1282.99 1463.43 Q1284 1463.08 1285.02 1462.92 Q1286.04 1462.73 1287.06 1462.73 Q1292.85 1462.73 1296.23 1465.9 Q1299.61 1469.08 1299.61 1474.49 Q1299.61 1480.07 1296.13 1483.17 Q1292.66 1486.25 1286.34 1486.25 Q1284.17 1486.25 1281.9 1485.88 Q1279.65 1485.51 1277.25 1484.77 L1277.25 1480.07 Q1279.33 1481.2 1281.55 1481.76 Q1283.77 1482.32 1286.25 1482.32 Q1290.25 1482.32 1292.59 1480.21 Q1294.93 1478.1 1294.93 1474.49 Q1294.93 1470.88 1292.59 1468.77 Q1290.25 1466.67 1286.25 1466.67 Q1284.38 1466.67 1282.5 1467.08 Q1280.65 1467.5 1278.7 1468.38 L1278.7 1451.02 Z" fill="#000000" fill-rule="nonzero" fill-opacity="1" /><path clip-path="url(#clip880)" d="M1318.82 1454.1 Q1315.21 1454.1 1313.38 1457.66 Q1311.57 1461.2 1311.57 1468.33 Q1311.57 1475.44 1313.38 1479.01 Q1315.21 1482.55 1318.82 1482.55 Q1322.45 1482.55 1324.26 1479.01 Q1326.09 1475.44 1326.09 1468.33 Q1326.09 1461.2 1324.26 1457.66 Q1322.45 1454.1 1318.82 1454.1 M1318.82 1450.39 Q1324.63 1450.39 1327.69 1455 Q1330.76 1459.58 1330.76 1468.33 Q1330.76 1477.06 1327.69 1481.67 Q1324.63 1486.25 1318.82 1486.25 Q1313.01 1486.25 1309.93 1481.67 Q1306.88 1477.06 1306.88 1468.33 Q1306.88 1459.58 1309.93 1455 Q1313.01 1450.39 1318.82 1450.39 Z" fill="#000000" fill-rule="nonzero" fill-opacity="1" /><path clip-path="url(#clip880)" d="M1348.98 1454.1 Q1345.37 1454.1 1343.54 1457.66 Q1341.74 1461.2 1341.74 1468.33 Q1341.74 1475.44 1343.54 1479.01 Q1345.37 1482.55 1348.98 1482.55 Q1352.62 1482.55 1354.42 1479.01 Q1356.25 1475.44 1356.25 1468.33 Q1356.25 1461.2 1354.42 1457.66 Q1352.62 1454.1 1348.98 1454.1 M1348.98 1450.39 Q1354.79 1450.39 1357.85 1455 Q1360.93 1459.58 1360.93 1468.33 Q1360.93 1477.06 1357.85 1481.67 Q1354.79 1486.25 1348.98 1486.25 Q1343.17 1486.25 1340.09 1481.67 Q1337.04 1477.06 1337.04 1468.33 Q1337.04 1459.58 1340.09 1455 Q1343.17 1450.39 1348.98 1450.39 Z" fill="#000000" fill-rule="nonzero" fill-opacity="1" /><path clip-path="url(#clip880)" d="M1764.97 1451.02 L1787.19 1451.02 L1787.19 1453.01 L1774.65 1485.58 L1769.76 1485.58 L1781.57 1454.96 L1764.97 1454.96 L1764.97 1451.02 Z" fill="#000000" fill-rule="nonzero" fill-opacity="1" /><path clip-path="url(#clip880)" d="M1796.36 1451.02 L1814.71 1451.02 L1814.71 1454.96 L1800.64 1454.96 L1800.64 1463.43 Q1801.66 1463.08 1802.68 1462.92 Q1803.7 1462.73 1804.71 1462.73 Q1810.5 1462.73 1813.88 1465.9 Q1817.26 1469.08 1817.26 1474.49 Q1817.26 1480.07 1813.79 1483.17 Q1810.32 1486.25 1804 1486.25 Q1801.82 1486.25 1799.55 1485.88 Q1797.31 1485.51 1794.9 1484.77 L1794.9 1480.07 Q1796.98 1481.2 1799.21 1481.76 Q1801.43 1482.32 1803.9 1482.32 Q1807.91 1482.32 1810.25 1480.21 Q1812.58 1478.1 1812.58 1474.49 Q1812.58 1470.88 1810.25 1468.77 Q1807.91 1466.67 1803.9 1466.67 Q1802.03 1466.67 1800.15 1467.08 Q1798.3 1467.5 1796.36 1468.38 L1796.36 1451.02 Z" fill="#000000" fill-rule="nonzero" fill-opacity="1" /><path clip-path="url(#clip880)" d="M1836.47 1454.1 Q1832.86 1454.1 1831.03 1457.66 Q1829.23 1461.2 1829.23 1468.33 Q1829.23 1475.44 1831.03 1479.01 Q1832.86 1482.55 1836.47 1482.55 Q1840.11 1482.55 1841.91 1479.01 Q1843.74 1475.44 1843.74 1468.33 Q1843.74 1461.2 1841.91 1457.66 Q1840.11 1454.1 1836.47 1454.1 M1836.47 1450.39 Q1842.28 1450.39 1845.34 1455 Q1848.42 1459.58 1848.42 1468.33 Q1848.42 1477.06 1845.34 1481.67 Q1842.28 1486.25 1836.47 1486.25 Q1830.66 1486.25 1827.58 1481.67 Q1824.53 1477.06 1824.53 1468.33 Q1824.53 1459.58 1827.58 1455 Q1830.66 1450.39 1836.47 1450.39 Z" fill="#000000" fill-rule="nonzero" fill-opacity="1" /><path clip-path="url(#clip880)" d="M2238.83 1481.64 L2246.47 1481.64 L2246.47 1455.28 L2238.16 1456.95 L2238.16 1452.69 L2246.42 1451.02 L2251.1 1451.02 L2251.1 1481.64 L2258.73 1481.64 L2258.73 1485.58 L2238.83 1485.58 L2238.83 1481.64 Z" fill="#000000" fill-rule="nonzero" fill-opacity="1" /><path clip-path="url(#clip880)" d="M2278.18 1454.1 Q2274.57 1454.1 2272.74 1457.66 Q2270.93 1461.2 2270.93 1468.33 Q2270.93 1475.44 2272.74 1479.01 Q2274.57 1482.55 2278.18 1482.55 Q2281.81 1482.55 2283.62 1479.01 Q2285.45 1475.44 2285.45 1468.33 Q2285.45 1461.2 2283.62 1457.66 Q2281.81 1454.1 2278.18 1454.1 M2278.18 1450.39 Q2283.99 1450.39 2287.04 1455 Q2290.12 1459.58 2290.12 1468.33 Q2290.12 1477.06 2287.04 1481.67 Q2283.99 1486.25 2278.18 1486.25 Q2272.37 1486.25 2269.29 1481.67 Q2266.23 1477.06 2266.23 1468.33 Q2266.23 1459.58 2269.29 1455 Q2272.37 1450.39 2278.18 1450.39 Z" fill="#000000" fill-rule="nonzero" fill-opacity="1" /><path clip-path="url(#clip880)" d="M2308.34 1454.1 Q2304.73 1454.1 2302.9 1457.66 Q2301.1 1461.2 2301.1 1468.33 Q2301.1 1475.44 2302.9 1479.01 Q2304.73 1482.55 2308.34 1482.55 Q2311.97 1482.55 2313.78 1479.01 Q2315.61 1475.44 2315.61 1468.33 Q2315.61 1461.2 2313.78 1457.66 Q2311.97 1454.1 2308.34 1454.1 M2308.34 1450.39 Q2314.15 1450.39 2317.21 1455 Q2320.29 1459.58 2320.29 1468.33 Q2320.29 1477.06 2317.21 1481.67 Q2314.15 1486.25 2308.34 1486.25 Q2302.53 1486.25 2299.45 1481.67 Q2296.4 1477.06 2296.4 1468.33 Q2296.4 1459.58 2299.45 1455 Q2302.53 1450.39 2308.34 1450.39 Z" fill="#000000" fill-rule="nonzero" fill-opacity="1" /><path clip-path="url(#clip880)" d="M2338.5 1454.1 Q2334.89 1454.1 2333.06 1457.66 Q2331.26 1461.2 2331.26 1468.33 Q2331.26 1475.44 2333.06 1479.01 Q2334.89 1482.55 2338.5 1482.55 Q2342.14 1482.55 2343.94 1479.01 Q2345.77 1475.44 2345.77 1468.33 Q2345.77 1461.2 2343.94 1457.66 Q2342.14 1454.1 2338.5 1454.1 M2338.5 1450.39 Q2344.31 1450.39 2347.37 1455 Q2350.45 1459.58 2350.45 1468.33 Q2350.45 1477.06 2347.37 1481.67 Q2344.31 1486.25 2338.5 1486.25 Q2332.69 1486.25 2329.61 1481.67 Q2326.56 1477.06 2326.56 1468.33 Q2326.56 1459.58 2329.61 1455 Q2332.69 1450.39 2338.5 1450.39 Z" fill="#000000" fill-rule="nonzero" fill-opacity="1" /><path clip-path="url(#clip880)" d="M1283.9 1524.18 L1283.9 1530.96 Q1280.66 1527.94 1276.97 1526.44 Q1273.3 1524.95 1269.17 1524.95 Q1261.02 1524.95 1256.69 1529.95 Q1252.36 1534.91 1252.36 1544.33 Q1252.36 1553.72 1256.69 1558.72 Q1261.02 1563.68 1269.17 1563.68 Q1273.3 1563.68 1276.97 1562.19 Q1280.66 1560.69 1283.9 1557.67 L1283.9 1564.38 Q1280.53 1566.68 1276.74 1567.82 Q1272.99 1568.97 1268.79 1568.97 Q1258 1568.97 1251.79 1562.38 Q1245.58 1555.76 1245.58 1544.33 Q1245.58 1532.87 1251.79 1526.28 Q1258 1519.66 1268.79 1519.66 Q1273.05 1519.66 1276.81 1520.81 Q1280.59 1521.92 1283.9 1524.18 Z" fill="#000000" fill-rule="nonzero" fill-opacity="1" /><path clip-path="url(#clip880)" d="M1324.07 1548.76 L1324.07 1551.62 L1297.14 1551.62 Q1297.53 1557.67 1300.77 1560.85 Q1304.05 1564 1309.88 1564 Q1313.25 1564 1316.4 1563.17 Q1319.58 1562.35 1322.7 1560.69 L1322.7 1566.23 Q1319.55 1567.57 1316.24 1568.27 Q1312.93 1568.97 1309.53 1568.97 Q1301 1568.97 1296 1564 Q1291.03 1559.04 1291.03 1550.57 Q1291.03 1541.82 1295.74 1536.69 Q1300.49 1531.54 1308.51 1531.54 Q1315.7 1531.54 1319.87 1536.18 Q1324.07 1540.8 1324.07 1548.76 M1318.21 1547.04 Q1318.15 1542.23 1315.51 1539.37 Q1312.9 1536.5 1308.57 1536.5 Q1303.67 1536.5 1300.71 1539.27 Q1297.78 1542.04 1297.34 1547.07 L1318.21 1547.04 Z" fill="#000000" fill-rule="nonzero" fill-opacity="1" /><path clip-path="url(#clip880)" d="M1333.68 1518.52 L1339.54 1518.52 L1339.54 1568.04 L1333.68 1568.04 L1333.68 1518.52 Z" fill="#000000" fill-rule="nonzero" fill-opacity="1" /><path clip-path="url(#clip880)" d="M1351.79 1518.52 L1357.65 1518.52 L1357.65 1568.04 L1351.79 1568.04 L1351.79 1518.52 Z" fill="#000000" fill-rule="nonzero" fill-opacity="1" /><path clip-path="url(#clip880)" d="M1392.63 1533.45 L1392.63 1538.98 Q1390.15 1537.71 1387.47 1537.07 Q1384.8 1536.44 1381.94 1536.44 Q1377.58 1536.44 1375.38 1537.77 Q1373.21 1539.11 1373.21 1541.79 Q1373.21 1543.82 1374.77 1545 Q1376.33 1546.15 1381.04 1547.2 L1383.05 1547.64 Q1389.29 1548.98 1391.9 1551.43 Q1394.54 1553.85 1394.54 1558.21 Q1394.54 1563.17 1390.59 1566.07 Q1386.68 1568.97 1379.8 1568.97 Q1376.94 1568.97 1373.82 1568.39 Q1370.73 1567.85 1367.29 1566.74 L1367.29 1560.69 Q1370.54 1562.38 1373.69 1563.24 Q1376.84 1564.07 1379.93 1564.07 Q1384.07 1564.07 1386.3 1562.66 Q1388.52 1561.23 1388.52 1558.65 Q1388.52 1556.27 1386.9 1554.99 Q1385.31 1553.72 1379.87 1552.54 L1377.83 1552.07 Q1372.39 1550.92 1369.97 1548.56 Q1367.55 1546.18 1367.55 1542.04 Q1367.55 1537.01 1371.11 1534.27 Q1374.68 1531.54 1381.24 1531.54 Q1384.48 1531.54 1387.35 1532.01 Q1390.21 1532.49 1392.63 1533.45 Z" fill="#000000" fill-rule="nonzero" fill-opacity="1" /><polyline clip-path="url(#clip882)" style="stroke:#000000; stroke-linecap:round; stroke-linejoin:round; stroke-width:2; stroke-opacity:0.1; fill:none" points="287.366,1378.61 2352.76,1378.61 "/>
<polyline clip-path="url(#clip882)" style="stroke:#000000; stroke-linecap:round; stroke-linejoin:round; stroke-width:2; stroke-opacity:0.1; fill:none" points="287.366,1196.42 2352.76,1196.42 "/>
<polyline clip-path="url(#clip882)" style="stroke:#000000; stroke-linecap:round; stroke-linejoin:round; stroke-width:2; stroke-opacity:0.1; fill:none" points="287.366,1014.22 2352.76,1014.22 "/>
<polyline clip-path="url(#clip882)" style="stroke:#000000; stroke-linecap:round; stroke-linejoin:round; stroke-width:2; stroke-opacity:0.1; fill:none" points="287.366,832.025 2352.76,832.025 "/>
<polyline clip-path="url(#clip882)" style="stroke:#000000; stroke-linecap:round; stroke-linejoin:round; stroke-width:2; stroke-opacity:0.1; fill:none" points="287.366,649.829 2352.76,649.829 "/>
<polyline clip-path="url(#clip882)" style="stroke:#000000; stroke-linecap:round; stroke-linejoin:round; stroke-width:2; stroke-opacity:0.1; fill:none" points="287.366,467.633 2352.76,467.633 "/>
<polyline clip-path="url(#clip882)" style="stroke:#000000; stroke-linecap:round; stroke-linejoin:round; stroke-width:2; stroke-opacity:0.1; fill:none" points="287.366,285.437 2352.76,285.437 "/>
<polyline clip-path="url(#clip880)" style="stroke:#000000; stroke-linecap:round; stroke-linejoin:round; stroke-width:4; stroke-opacity:1; fill:none" points="287.366,1423.18 287.366,123.472 "/>
<polyline clip-path="url(#clip880)" style="stroke:#000000; stroke-linecap:round; stroke-linejoin:round; stroke-width:4; stroke-opacity:1; fill:none" points="287.366,1378.61 306.264,1378.61 "/>
<polyline clip-path="url(#clip880)" style="stroke:#000000; stroke-linecap:round; stroke-linejoin:round; stroke-width:4; stroke-opacity:1; fill:none" points="287.366,1196.42 306.264,1196.42 "/>
<polyline clip-path="url(#clip880)" style="stroke:#000000; stroke-linecap:round; stroke-linejoin:round; stroke-width:4; stroke-opacity:1; fill:none" points="287.366,1014.22 306.264,1014.22 "/>
<polyline clip-path="url(#clip880)" style="stroke:#000000; stroke-linecap:round; stroke-linejoin:round; stroke-width:4; stroke-opacity:1; fill:none" points="287.366,832.025 306.264,832.025 "/>
<polyline clip-path="url(#clip880)" style="stroke:#000000; stroke-linecap:round; stroke-linejoin:round; stroke-width:4; stroke-opacity:1; fill:none" points="287.366,649.829 306.264,649.829 "/>
<polyline clip-path="url(#clip880)" style="stroke:#000000; stroke-linecap:round; stroke-linejoin:round; stroke-width:4; stroke-opacity:1; fill:none" points="287.366,467.633 306.264,467.633 "/>
<polyline clip-path="url(#clip880)" style="stroke:#000000; stroke-linecap:round; stroke-linejoin:round; stroke-width:4; stroke-opacity:1; fill:none" points="287.366,285.437 306.264,285.437 "/>
<path clip-path="url(#clip880)" d="M115.256 1379.07 L144.931 1379.07 L144.931 1383 L115.256 1383 L115.256 1379.07 Z" fill="#000000" fill-rule="nonzero" fill-opacity="1" /><path clip-path="url(#clip880)" d="M165.024 1364.41 Q161.413 1364.41 159.584 1367.98 Q157.778 1371.52 157.778 1378.65 Q157.778 1385.76 159.584 1389.32 Q161.413 1392.86 165.024 1392.86 Q168.658 1392.86 170.464 1389.32 Q172.292 1385.76 172.292 1378.65 Q172.292 1371.52 170.464 1367.98 Q168.658 1364.41 165.024 1364.41 M165.024 1360.71 Q170.834 1360.71 173.889 1365.32 Q176.968 1369.9 176.968 1378.65 Q176.968 1387.38 173.889 1391.98 Q170.834 1396.57 165.024 1396.57 Q159.214 1396.57 156.135 1391.98 Q153.079 1387.38 153.079 1378.65 Q153.079 1369.9 156.135 1365.32 Q159.214 1360.71 165.024 1360.71 Z" fill="#000000" fill-rule="nonzero" fill-opacity="1" /><path clip-path="url(#clip880)" d="M185.186 1390.01 L190.07 1390.01 L190.07 1395.89 L185.186 1395.89 L185.186 1390.01 Z" fill="#000000" fill-rule="nonzero" fill-opacity="1" /><path clip-path="url(#clip880)" d="M199.075 1361.33 L221.297 1361.33 L221.297 1363.32 L208.75 1395.89 L203.866 1395.89 L215.672 1365.27 L199.075 1365.27 L199.075 1361.33 Z" fill="#000000" fill-rule="nonzero" fill-opacity="1" /><path clip-path="url(#clip880)" d="M230.463 1361.33 L248.82 1361.33 L248.82 1365.27 L234.746 1365.27 L234.746 1373.74 Q235.764 1373.39 236.783 1373.23 Q237.801 1373.05 238.82 1373.05 Q244.607 1373.05 247.986 1376.22 Q251.366 1379.39 251.366 1384.81 Q251.366 1390.39 247.894 1393.49 Q244.421 1396.57 238.102 1396.57 Q235.926 1396.57 233.658 1396.2 Q231.412 1395.82 229.005 1395.08 L229.005 1390.39 Q231.088 1391.52 233.31 1392.07 Q235.533 1392.63 238.009 1392.63 Q242.014 1392.63 244.352 1390.52 Q246.69 1388.42 246.69 1384.81 Q246.69 1381.2 244.352 1379.09 Q242.014 1376.98 238.009 1376.98 Q236.135 1376.98 234.26 1377.4 Q232.408 1377.82 230.463 1378.7 L230.463 1361.33 Z" fill="#000000" fill-rule="nonzero" fill-opacity="1" /><path clip-path="url(#clip880)" d="M114.26 1196.87 L143.936 1196.87 L143.936 1200.8 L114.26 1200.8 L114.26 1196.87 Z" fill="#000000" fill-rule="nonzero" fill-opacity="1" /><path clip-path="url(#clip880)" d="M164.028 1182.22 Q160.417 1182.22 158.589 1185.78 Q156.783 1189.32 156.783 1196.45 Q156.783 1203.56 158.589 1207.12 Q160.417 1210.67 164.028 1210.67 Q167.663 1210.67 169.468 1207.12 Q171.297 1203.56 171.297 1196.45 Q171.297 1189.32 169.468 1185.78 Q167.663 1182.22 164.028 1182.22 M164.028 1178.51 Q169.839 1178.51 172.894 1183.12 Q175.973 1187.7 175.973 1196.45 Q175.973 1205.18 172.894 1209.79 Q169.839 1214.37 164.028 1214.37 Q158.218 1214.37 155.14 1209.79 Q152.084 1205.18 152.084 1196.45 Q152.084 1187.7 155.14 1183.12 Q158.218 1178.51 164.028 1178.51 Z" fill="#000000" fill-rule="nonzero" fill-opacity="1" /><path clip-path="url(#clip880)" d="M184.19 1207.82 L189.075 1207.82 L189.075 1213.7 L184.19 1213.7 L184.19 1207.82 Z" fill="#000000" fill-rule="nonzero" fill-opacity="1" /><path clip-path="url(#clip880)" d="M199.306 1179.14 L217.662 1179.14 L217.662 1183.07 L203.588 1183.07 L203.588 1191.55 Q204.607 1191.2 205.625 1191.04 Q206.644 1190.85 207.662 1190.85 Q213.449 1190.85 216.829 1194.02 Q220.209 1197.19 220.209 1202.61 Q220.209 1208.19 216.736 1211.29 Q213.264 1214.37 206.945 1214.37 Q204.769 1214.37 202.5 1214 Q200.255 1213.63 197.848 1212.89 L197.848 1208.19 Q199.931 1209.32 202.153 1209.88 Q204.375 1210.43 206.852 1210.43 Q210.857 1210.43 213.195 1208.33 Q215.533 1206.22 215.533 1202.61 Q215.533 1199 213.195 1196.89 Q210.857 1194.79 206.852 1194.79 Q204.977 1194.79 203.102 1195.2 Q201.25 1195.62 199.306 1196.5 L199.306 1179.14 Z" fill="#000000" fill-rule="nonzero" fill-opacity="1" /><path clip-path="url(#clip880)" d="M239.422 1182.22 Q235.81 1182.22 233.982 1185.78 Q232.176 1189.32 232.176 1196.45 Q232.176 1203.56 233.982 1207.12 Q235.81 1210.67 239.422 1210.67 Q243.056 1210.67 244.861 1207.12 Q246.69 1203.56 246.69 1196.45 Q246.69 1189.32 244.861 1185.78 Q243.056 1182.22 239.422 1182.22 M239.422 1178.51 Q245.232 1178.51 248.287 1183.12 Q251.366 1187.7 251.366 1196.45 Q251.366 1205.18 248.287 1209.79 Q245.232 1214.37 239.422 1214.37 Q233.611 1214.37 230.533 1209.79 Q227.477 1205.18 227.477 1196.45 Q227.477 1187.7 230.533 1183.12 Q233.611 1178.51 239.422 1178.51 Z" fill="#000000" fill-rule="nonzero" fill-opacity="1" /><path clip-path="url(#clip880)" d="M115.256 1014.67 L144.931 1014.67 L144.931 1018.61 L115.256 1018.61 L115.256 1014.67 Z" fill="#000000" fill-rule="nonzero" fill-opacity="1" /><path clip-path="url(#clip880)" d="M165.024 1000.02 Q161.413 1000.02 159.584 1003.59 Q157.778 1007.13 157.778 1014.26 Q157.778 1021.36 159.584 1024.93 Q161.413 1028.47 165.024 1028.47 Q168.658 1028.47 170.464 1024.93 Q172.292 1021.36 172.292 1014.26 Q172.292 1007.13 170.464 1003.59 Q168.658 1000.02 165.024 1000.02 M165.024 996.317 Q170.834 996.317 173.889 1000.92 Q176.968 1005.51 176.968 1014.26 Q176.968 1022.98 173.889 1027.59 Q170.834 1032.17 165.024 1032.17 Q159.214 1032.17 156.135 1027.59 Q153.079 1022.98 153.079 1014.26 Q153.079 1005.51 156.135 1000.92 Q159.214 996.317 165.024 996.317 Z" fill="#000000" fill-rule="nonzero" fill-opacity="1" /><path clip-path="url(#clip880)" d="M185.186 1025.62 L190.07 1025.62 L190.07 1031.5 L185.186 1031.5 L185.186 1025.62 Z" fill="#000000" fill-rule="nonzero" fill-opacity="1" /><path clip-path="url(#clip880)" d="M204.283 1027.57 L220.602 1027.57 L220.602 1031.5 L198.658 1031.5 L198.658 1027.57 Q201.32 1024.81 205.903 1020.18 Q210.51 1015.53 211.69 1014.19 Q213.936 1011.66 214.815 1009.93 Q215.718 1008.17 215.718 1006.48 Q215.718 1003.72 213.774 1001.99 Q211.852 1000.25 208.75 1000.25 Q206.551 1000.25 204.098 1001.02 Q201.667 1001.78 198.889 1003.33 L198.889 998.608 Q201.713 997.474 204.167 996.895 Q206.621 996.317 208.658 996.317 Q214.028 996.317 217.223 999.002 Q220.417 1001.69 220.417 1006.18 Q220.417 1008.31 219.607 1010.23 Q218.82 1012.13 216.713 1014.72 Q216.135 1015.39 213.033 1018.61 Q209.931 1021.8 204.283 1027.57 Z" fill="#000000" fill-rule="nonzero" fill-opacity="1" /><path clip-path="url(#clip880)" d="M230.463 996.942 L248.82 996.942 L248.82 1000.88 L234.746 1000.88 L234.746 1009.35 Q235.764 1009 236.783 1008.84 Q237.801 1008.65 238.82 1008.65 Q244.607 1008.65 247.986 1011.83 Q251.366 1015 251.366 1020.41 Q251.366 1025.99 247.894 1029.09 Q244.421 1032.17 238.102 1032.17 Q235.926 1032.17 233.658 1031.8 Q231.412 1031.43 229.005 1030.69 L229.005 1025.99 Q231.088 1027.13 233.31 1027.68 Q235.533 1028.24 238.009 1028.24 Q242.014 1028.24 244.352 1026.13 Q246.69 1024.02 246.69 1020.41 Q246.69 1016.8 244.352 1014.7 Q242.014 1012.59 238.009 1012.59 Q236.135 1012.59 234.26 1013.01 Q232.408 1013.42 230.463 1014.3 L230.463 996.942 Z" fill="#000000" fill-rule="nonzero" fill-opacity="1" /><path clip-path="url(#clip880)" d="M164.028 817.824 Q160.417 817.824 158.589 821.389 Q156.783 824.931 156.783 832.06 Q156.783 839.167 158.589 842.731 Q160.417 846.273 164.028 846.273 Q167.663 846.273 169.468 842.731 Q171.297 839.167 171.297 832.06 Q171.297 824.931 169.468 821.389 Q167.663 817.824 164.028 817.824 M164.028 814.12 Q169.839 814.12 172.894 818.727 Q175.973 823.31 175.973 832.06 Q175.973 840.787 172.894 845.393 Q169.839 849.977 164.028 849.977 Q158.218 849.977 155.14 845.393 Q152.084 840.787 152.084 832.06 Q152.084 823.31 155.14 818.727 Q158.218 814.12 164.028 814.12 Z" fill="#000000" fill-rule="nonzero" fill-opacity="1" /><path clip-path="url(#clip880)" d="M184.19 843.426 L189.075 843.426 L189.075 849.305 L184.19 849.305 L184.19 843.426 Z" fill="#000000" fill-rule="nonzero" fill-opacity="1" /><path clip-path="url(#clip880)" d="M209.26 817.824 Q205.649 817.824 203.82 821.389 Q202.014 824.931 202.014 832.06 Q202.014 839.167 203.82 842.731 Q205.649 846.273 209.26 846.273 Q212.894 846.273 214.699 842.731 Q216.528 839.167 216.528 832.06 Q216.528 824.931 214.699 821.389 Q212.894 817.824 209.26 817.824 M209.26 814.12 Q215.07 814.12 218.125 818.727 Q221.204 823.31 221.204 832.06 Q221.204 840.787 218.125 845.393 Q215.07 849.977 209.26 849.977 Q203.449 849.977 200.371 845.393 Q197.315 840.787 197.315 832.06 Q197.315 823.31 200.371 818.727 Q203.449 814.12 209.26 814.12 Z" fill="#000000" fill-rule="nonzero" fill-opacity="1" /><path clip-path="url(#clip880)" d="M239.422 817.824 Q235.81 817.824 233.982 821.389 Q232.176 824.931 232.176 832.06 Q232.176 839.167 233.982 842.731 Q235.81 846.273 239.422 846.273 Q243.056 846.273 244.861 842.731 Q246.69 839.167 246.69 832.06 Q246.69 824.931 244.861 821.389 Q243.056 817.824 239.422 817.824 M239.422 814.12 Q245.232 814.12 248.287 818.727 Q251.366 823.31 251.366 832.06 Q251.366 840.787 248.287 845.393 Q245.232 849.977 239.422 849.977 Q233.611 849.977 230.533 845.393 Q227.477 840.787 227.477 832.06 Q227.477 823.31 230.533 818.727 Q233.611 814.12 239.422 814.12 Z" fill="#000000" fill-rule="nonzero" fill-opacity="1" /><path clip-path="url(#clip880)" d="M165.024 635.628 Q161.413 635.628 159.584 639.193 Q157.778 642.734 157.778 649.864 Q157.778 656.97 159.584 660.535 Q161.413 664.077 165.024 664.077 Q168.658 664.077 170.464 660.535 Q172.292 656.97 172.292 649.864 Q172.292 642.734 170.464 639.193 Q168.658 635.628 165.024 635.628 M165.024 631.924 Q170.834 631.924 173.889 636.531 Q176.968 641.114 176.968 649.864 Q176.968 658.591 173.889 663.197 Q170.834 667.78 165.024 667.78 Q159.214 667.78 156.135 663.197 Q153.079 658.591 153.079 649.864 Q153.079 641.114 156.135 636.531 Q159.214 631.924 165.024 631.924 Z" fill="#000000" fill-rule="nonzero" fill-opacity="1" /><path clip-path="url(#clip880)" d="M185.186 661.23 L190.07 661.23 L190.07 667.109 L185.186 667.109 L185.186 661.23 Z" fill="#000000" fill-rule="nonzero" fill-opacity="1" /><path clip-path="url(#clip880)" d="M204.283 663.174 L220.602 663.174 L220.602 667.109 L198.658 667.109 L198.658 663.174 Q201.32 660.419 205.903 655.79 Q210.51 651.137 211.69 649.794 Q213.936 647.271 214.815 645.535 Q215.718 643.776 215.718 642.086 Q215.718 639.332 213.774 637.595 Q211.852 635.859 208.75 635.859 Q206.551 635.859 204.098 636.623 Q201.667 637.387 198.889 638.938 L198.889 634.216 Q201.713 633.082 204.167 632.503 Q206.621 631.924 208.658 631.924 Q214.028 631.924 217.223 634.609 Q220.417 637.294 220.417 641.785 Q220.417 643.915 219.607 645.836 Q218.82 647.734 216.713 650.327 Q216.135 650.998 213.033 654.216 Q209.931 657.41 204.283 663.174 Z" fill="#000000" fill-rule="nonzero" fill-opacity="1" /><path clip-path="url(#clip880)" d="M230.463 632.549 L248.82 632.549 L248.82 636.484 L234.746 636.484 L234.746 644.956 Q235.764 644.609 236.783 644.447 Q237.801 644.262 238.82 644.262 Q244.607 644.262 247.986 647.433 Q251.366 650.605 251.366 656.021 Q251.366 661.6 247.894 664.702 Q244.421 667.78 238.102 667.78 Q235.926 667.78 233.658 667.41 Q231.412 667.04 229.005 666.299 L229.005 661.6 Q231.088 662.734 233.31 663.29 Q235.533 663.845 238.009 663.845 Q242.014 663.845 244.352 661.739 Q246.69 659.632 246.69 656.021 Q246.69 652.41 244.352 650.304 Q242.014 648.197 238.009 648.197 Q236.135 648.197 234.26 648.614 Q232.408 649.031 230.463 649.91 L230.463 632.549 Z" fill="#000000" fill-rule="nonzero" fill-opacity="1" /><path clip-path="url(#clip880)" d="M164.028 453.432 Q160.417 453.432 158.589 456.996 Q156.783 460.538 156.783 467.668 Q156.783 474.774 158.589 478.339 Q160.417 481.88 164.028 481.88 Q167.663 481.88 169.468 478.339 Q171.297 474.774 171.297 467.668 Q171.297 460.538 169.468 456.996 Q167.663 453.432 164.028 453.432 M164.028 449.728 Q169.839 449.728 172.894 454.334 Q175.973 458.918 175.973 467.668 Q175.973 476.394 172.894 481.001 Q169.839 485.584 164.028 485.584 Q158.218 485.584 155.14 481.001 Q152.084 476.394 152.084 467.668 Q152.084 458.918 155.14 454.334 Q158.218 449.728 164.028 449.728 Z" fill="#000000" fill-rule="nonzero" fill-opacity="1" /><path clip-path="url(#clip880)" d="M184.19 479.033 L189.075 479.033 L189.075 484.913 L184.19 484.913 L184.19 479.033 Z" fill="#000000" fill-rule="nonzero" fill-opacity="1" /><path clip-path="url(#clip880)" d="M199.306 450.353 L217.662 450.353 L217.662 454.288 L203.588 454.288 L203.588 462.76 Q204.607 462.413 205.625 462.251 Q206.644 462.066 207.662 462.066 Q213.449 462.066 216.829 465.237 Q220.209 468.408 220.209 473.825 Q220.209 479.404 216.736 482.505 Q213.264 485.584 206.945 485.584 Q204.769 485.584 202.5 485.214 Q200.255 484.843 197.848 484.103 L197.848 479.404 Q199.931 480.538 202.153 481.093 Q204.375 481.649 206.852 481.649 Q210.857 481.649 213.195 479.543 Q215.533 477.436 215.533 473.825 Q215.533 470.214 213.195 468.107 Q210.857 466.001 206.852 466.001 Q204.977 466.001 203.102 466.418 Q201.25 466.834 199.306 467.714 L199.306 450.353 Z" fill="#000000" fill-rule="nonzero" fill-opacity="1" /><path clip-path="url(#clip880)" d="M239.422 453.432 Q235.81 453.432 233.982 456.996 Q232.176 460.538 232.176 467.668 Q232.176 474.774 233.982 478.339 Q235.81 481.88 239.422 481.88 Q243.056 481.88 244.861 478.339 Q246.69 474.774 246.69 467.668 Q246.69 460.538 244.861 456.996 Q243.056 453.432 239.422 453.432 M239.422 449.728 Q245.232 449.728 248.287 454.334 Q251.366 458.918 251.366 467.668 Q251.366 476.394 248.287 481.001 Q245.232 485.584 239.422 485.584 Q233.611 485.584 230.533 481.001 Q227.477 476.394 227.477 467.668 Q227.477 458.918 230.533 454.334 Q233.611 449.728 239.422 449.728 Z" fill="#000000" fill-rule="nonzero" fill-opacity="1" /><path clip-path="url(#clip880)" d="M165.024 271.235 Q161.413 271.235 159.584 274.8 Q157.778 278.342 157.778 285.471 Q157.778 292.578 159.584 296.143 Q161.413 299.684 165.024 299.684 Q168.658 299.684 170.464 296.143 Q172.292 292.578 172.292 285.471 Q172.292 278.342 170.464 274.8 Q168.658 271.235 165.024 271.235 M165.024 267.532 Q170.834 267.532 173.889 272.138 Q176.968 276.721 176.968 285.471 Q176.968 294.198 173.889 298.805 Q170.834 303.388 165.024 303.388 Q159.214 303.388 156.135 298.805 Q153.079 294.198 153.079 285.471 Q153.079 276.721 156.135 272.138 Q159.214 267.532 165.024 267.532 Z" fill="#000000" fill-rule="nonzero" fill-opacity="1" /><path clip-path="url(#clip880)" d="M185.186 296.837 L190.07 296.837 L190.07 302.717 L185.186 302.717 L185.186 296.837 Z" fill="#000000" fill-rule="nonzero" fill-opacity="1" /><path clip-path="url(#clip880)" d="M199.075 268.157 L221.297 268.157 L221.297 270.147 L208.75 302.717 L203.866 302.717 L215.672 272.092 L199.075 272.092 L199.075 268.157 Z" fill="#000000" fill-rule="nonzero" fill-opacity="1" /><path clip-path="url(#clip880)" d="M230.463 268.157 L248.82 268.157 L248.82 272.092 L234.746 272.092 L234.746 280.564 Q235.764 280.217 236.783 280.055 Q237.801 279.869 238.82 279.869 Q244.607 279.869 247.986 283.041 Q251.366 286.212 251.366 291.629 Q251.366 297.207 247.894 300.309 Q244.421 303.388 238.102 303.388 Q235.926 303.388 233.658 303.018 Q231.412 302.647 229.005 301.906 L229.005 297.207 Q231.088 298.342 233.31 298.897 Q235.533 299.453 238.009 299.453 Q242.014 299.453 244.352 297.346 Q246.69 295.24 246.69 291.629 Q246.69 288.018 244.352 285.911 Q242.014 283.805 238.009 283.805 Q236.135 283.805 234.26 284.221 Q232.408 284.638 230.463 285.518 L230.463 268.157 Z" fill="#000000" fill-rule="nonzero" fill-opacity="1" /><path clip-path="url(#clip880)" d="M18.0438 893.717 L24.314 893.717 Q22.5634 897.378 21.704 900.624 Q20.8447 903.871 20.8447 906.894 Q20.8447 912.146 22.8817 915.011 Q24.9187 917.843 28.6745 917.843 Q31.8255 917.843 33.4488 915.966 Q35.0402 914.056 36.0269 908.772 L36.8226 904.889 Q38.1912 897.696 41.6605 894.29 Q45.098 890.853 50.8908 890.853 Q57.7976 890.853 61.3624 895.5 Q64.9272 900.115 64.9272 909.059 Q64.9272 912.433 64.1633 916.252 Q63.3994 920.04 61.9035 924.114 L55.2831 924.114 Q57.4793 920.199 58.5933 916.443 Q59.7073 912.687 59.7073 909.059 Q59.7073 903.552 57.543 900.561 Q55.3786 897.569 51.3682 897.569 Q47.8671 897.569 45.8937 899.733 Q43.9204 901.866 42.9337 906.767 L42.1698 910.682 Q40.7375 917.875 37.682 921.09 Q34.6264 924.305 29.1837 924.305 Q22.8817 924.305 19.2532 919.88 Q15.6248 915.424 15.6248 907.626 Q15.6248 904.284 16.2295 900.815 Q16.8343 897.346 18.0438 893.717 Z" fill="#000000" fill-rule="nonzero" fill-opacity="1" /><path clip-path="url(#clip880)" d="M28.3562 881.081 L28.3562 875.225 L64.0042 875.225 L64.0042 881.081 L28.3562 881.081 M14.479 881.081 L14.479 875.225 L21.895 875.225 L21.895 881.081 L14.479 881.081 Z" fill="#000000" fill-rule="nonzero" fill-opacity="1" /><path clip-path="url(#clip880)" d="M35.1993 835.217 Q31.2526 833.02 29.3747 829.965 Q27.4968 826.909 27.4968 822.772 Q27.4968 817.202 31.4117 814.178 Q35.2948 811.154 42.4881 811.154 L64.0042 811.154 L64.0042 817.042 L42.679 817.042 Q37.5546 817.042 35.072 818.857 Q32.5894 820.671 32.5894 824.395 Q32.5894 828.946 35.6131 831.588 Q38.6368 834.23 43.8567 834.23 L64.0042 834.23 L64.0042 840.118 L42.679 840.118 Q37.5228 840.118 35.072 841.932 Q32.5894 843.747 32.5894 847.534 Q32.5894 852.022 35.6449 854.664 Q38.6686 857.306 43.8567 857.306 L64.0042 857.306 L64.0042 863.194 L28.3562 863.194 L28.3562 857.306 L33.8944 857.306 Q30.616 855.3 29.0564 852.499 Q27.4968 849.699 27.4968 845.847 Q27.4968 841.964 29.4702 839.259 Q31.4436 836.522 35.1993 835.217 Z" fill="#000000" fill-rule="nonzero" fill-opacity="1" /><path clip-path="url(#clip880)" d="M28.3562 799.473 L28.3562 793.617 L64.0042 793.617 L64.0042 799.473 L28.3562 799.473 M14.479 799.473 L14.479 793.617 L21.895 793.617 L21.895 799.473 L14.479 799.473 Z" fill="#000000" fill-rule="nonzero" fill-opacity="1" /><path clip-path="url(#clip880)" d="M14.479 781.363 L14.479 775.506 L64.0042 775.506 L64.0042 781.363 L14.479 781.363 Z" fill="#000000" fill-rule="nonzero" fill-opacity="1" /><path clip-path="url(#clip880)" d="M46.0847 747.052 Q46.0847 754.149 47.7079 756.887 Q49.3312 759.624 53.2461 759.624 Q56.3653 759.624 58.2114 757.587 Q60.0256 755.518 60.0256 751.985 Q60.0256 747.115 56.5881 744.187 Q53.1188 741.227 47.3897 741.227 L46.0847 741.227 L46.0847 747.052 M43.6657 735.37 L64.0042 735.37 L64.0042 741.227 L58.5933 741.227 Q61.8398 743.232 63.3994 746.224 Q64.9272 749.216 64.9272 753.545 Q64.9272 759.019 61.8716 762.266 Q58.7843 765.48 53.6281 765.48 Q47.6125 765.48 44.5569 761.47 Q41.5014 757.428 41.5014 749.439 L41.5014 741.227 L40.9285 741.227 Q36.8862 741.227 34.6901 743.901 Q32.4621 746.542 32.4621 751.348 Q32.4621 754.404 33.1941 757.3 Q33.9262 760.197 35.3903 762.87 L29.9795 762.87 Q28.7381 759.656 28.1334 756.632 Q27.4968 753.608 27.4968 750.744 Q27.4968 743.009 31.5072 739.19 Q35.5176 735.37 43.6657 735.37 Z" fill="#000000" fill-rule="nonzero" fill-opacity="1" /><path clip-path="url(#clip880)" d="M33.8307 702.651 Q33.2578 703.637 33.0032 704.815 Q32.7167 705.961 32.7167 707.361 Q32.7167 712.327 35.9632 715 Q39.1779 717.642 45.2253 717.642 L64.0042 717.642 L64.0042 723.53 L28.3562 723.53 L28.3562 717.642 L33.8944 717.642 Q30.6479 715.796 29.0883 712.836 Q27.4968 709.876 27.4968 705.643 Q27.4968 705.038 27.5923 704.306 Q27.656 703.574 27.8151 702.683 L33.8307 702.651 Z" fill="#000000" fill-rule="nonzero" fill-opacity="1" /><path clip-path="url(#clip880)" d="M28.3562 696.508 L28.3562 690.651 L64.0042 690.651 L64.0042 696.508 L28.3562 696.508 M14.479 696.508 L14.479 690.651 L21.895 690.651 L21.895 696.508 L14.479 696.508 Z" fill="#000000" fill-rule="nonzero" fill-opacity="1" /><path clip-path="url(#clip880)" d="M18.2347 672.605 L28.3562 672.605 L28.3562 660.542 L32.9077 660.542 L32.9077 672.605 L52.2594 672.605 Q56.6199 672.605 57.8613 671.427 Q59.1026 670.217 59.1026 666.557 L59.1026 660.542 L64.0042 660.542 L64.0042 666.557 Q64.0042 673.337 61.4897 675.915 Q58.9434 678.493 52.2594 678.493 L32.9077 678.493 L32.9077 682.79 L28.3562 682.79 L28.3562 678.493 L18.2347 678.493 L18.2347 672.605 Z" fill="#000000" fill-rule="nonzero" fill-opacity="1" /><path clip-path="url(#clip880)" d="M67.3143 638.007 Q73.68 640.49 75.6216 642.845 Q77.5631 645.2 77.5631 649.147 L77.5631 653.826 L72.6615 653.826 L72.6615 650.388 Q72.6615 647.969 71.5157 646.633 Q70.3699 645.296 66.1048 643.672 L63.4312 642.622 L28.3562 657.04 L28.3562 650.834 L56.238 639.694 L28.3562 628.554 L28.3562 622.347 L67.3143 638.007 Z" fill="#000000" fill-rule="nonzero" fill-opacity="1" /><path clip-path="url(#clip880)" d="M438.523 14.0809 L438.523 22.0612 Q433.865 19.8332 429.733 18.7395 Q425.601 17.6457 421.753 17.6457 Q415.069 17.6457 411.423 20.2383 Q407.818 22.8309 407.818 27.611 Q407.818 31.6214 410.208 33.6873 Q412.638 35.7128 419.363 36.9686 L424.305 37.9813 Q433.46 39.7232 437.794 44.1387 Q442.169 48.5136 442.169 55.8863 Q442.169 64.6767 436.255 69.2137 Q430.381 73.7508 418.998 73.7508 Q414.704 73.7508 409.843 72.7785 Q405.022 71.8063 399.837 69.9024 L399.837 61.4765 Q404.82 64.2716 409.6 65.6895 Q414.38 67.1073 418.998 67.1073 Q426.006 67.1073 429.814 64.3527 Q433.622 61.598 433.622 56.4939 Q433.622 52.0379 430.867 49.5264 Q428.153 47.0148 421.915 45.759 L416.932 44.7868 Q407.777 42.9639 403.686 39.075 Q399.594 35.1862 399.594 28.2591 Q399.594 20.2383 405.225 15.6203 Q410.896 11.0023 420.821 11.0023 Q425.074 11.0023 429.49 11.7719 Q433.905 12.5416 438.523 14.0809 Z" fill="#000000" fill-rule="nonzero" fill-opacity="1" /><path clip-path="url(#clip880)" d="M472.186 32.4315 Q466.191 32.4315 462.707 37.1306 Q459.224 41.7891 459.224 49.9314 Q459.224 58.0738 462.667 62.7728 Q466.151 67.4314 472.186 67.4314 Q478.141 67.4314 481.625 62.7323 Q485.109 58.0333 485.109 49.9314 Q485.109 41.8701 481.625 37.1711 Q478.141 32.4315 472.186 32.4315 M472.186 26.1121 Q481.909 26.1121 487.458 32.4315 Q493.008 38.7509 493.008 49.9314 Q493.008 61.0714 487.458 67.4314 Q481.909 73.7508 472.186 73.7508 Q462.424 73.7508 456.874 67.4314 Q451.365 61.0714 451.365 49.9314 Q451.365 38.7509 456.874 32.4315 Q462.424 26.1121 472.186 26.1121 Z" fill="#000000" fill-rule="nonzero" fill-opacity="1" /><path clip-path="url(#clip880)" d="M531.654 34.1734 Q530.398 33.4443 528.899 33.1202 Q527.441 32.7556 525.658 32.7556 Q519.339 32.7556 515.936 36.8875 Q512.574 40.9789 512.574 48.6757 L512.574 72.576 L505.08 72.576 L505.08 27.2059 L512.574 27.2059 L512.574 34.2544 Q514.923 30.1225 518.691 28.1376 Q522.458 26.1121 527.846 26.1121 Q528.615 26.1121 529.547 26.2337 Q530.479 26.3147 531.613 26.5172 L531.654 34.1734 Z" fill="#000000" fill-rule="nonzero" fill-opacity="1" /><path clip-path="url(#clip880)" d="M546.845 14.324 L546.845 27.2059 L562.197 27.2059 L562.197 32.9987 L546.845 32.9987 L546.845 57.6282 Q546.845 63.1779 548.343 64.7578 Q549.883 66.3376 554.541 66.3376 L562.197 66.3376 L562.197 72.576 L554.541 72.576 Q545.913 72.576 542.632 69.3758 Q539.35 66.1351 539.35 57.6282 L539.35 32.9987 L533.882 32.9987 L533.882 27.2059 L539.35 27.2059 L539.35 14.324 L546.845 14.324 Z" fill="#000000" fill-rule="nonzero" fill-opacity="1" /><path clip-path="url(#clip880)" d="M610.808 48.0275 L610.808 51.6733 L576.538 51.6733 Q577.024 59.3701 581.156 63.421 Q585.328 67.4314 592.741 67.4314 Q597.035 67.4314 601.046 66.3781 Q605.097 65.3249 609.066 63.2184 L609.066 70.267 Q605.056 71.9684 600.843 72.8596 Q596.63 73.7508 592.296 73.7508 Q581.439 73.7508 575.079 67.4314 Q568.76 61.1119 568.76 50.3365 Q568.76 39.1965 574.755 32.6746 Q580.791 26.1121 590.999 26.1121 Q600.154 26.1121 605.461 32.0264 Q610.808 37.9003 610.808 48.0275 M603.355 45.84 Q603.274 39.7232 599.911 36.0774 Q596.59 32.4315 591.08 32.4315 Q584.842 32.4315 581.075 35.9558 Q577.348 39.4801 576.781 45.8805 L603.355 45.84 Z" fill="#000000" fill-rule="nonzero" fill-opacity="1" /><path clip-path="url(#clip880)" d="M652.897 34.0924 L652.897 9.54393 L660.351 9.54393 L660.351 72.576 L652.897 72.576 L652.897 65.7705 Q650.548 69.8214 646.942 71.8063 Q643.378 73.7508 638.354 73.7508 Q630.131 73.7508 624.946 67.1883 Q619.801 60.6258 619.801 49.9314 Q619.801 39.2371 624.946 32.6746 Q630.131 26.1121 638.354 26.1121 Q643.378 26.1121 646.942 28.0971 Q650.548 30.0415 652.897 34.0924 M627.498 49.9314 Q627.498 58.1548 630.86 62.8538 Q634.263 67.5124 640.177 67.5124 Q646.092 67.5124 649.494 62.8538 Q652.897 58.1548 652.897 49.9314 Q652.897 41.7081 649.494 37.0496 Q646.092 32.3505 640.177 32.3505 Q634.263 32.3505 630.86 37.0496 Q627.498 41.7081 627.498 49.9314 Z" fill="#000000" fill-rule="nonzero" fill-opacity="1" /><path clip-path="url(#clip880)" d="M734.725 28.9478 L734.725 35.9153 Q731.566 34.1734 728.366 33.3227 Q725.206 32.4315 721.965 32.4315 Q714.714 32.4315 710.704 37.0496 Q706.693 41.6271 706.693 49.9314 Q706.693 58.2358 710.704 62.8538 Q714.714 67.4314 721.965 67.4314 Q725.206 67.4314 728.366 66.5807 Q731.566 65.6895 734.725 63.9476 L734.725 70.8341 Q731.606 72.2924 728.244 73.0216 Q724.922 73.7508 721.155 73.7508 Q710.906 73.7508 704.87 67.3098 Q698.834 60.8689 698.834 49.9314 Q698.834 38.832 704.911 32.472 Q711.028 26.1121 721.641 26.1121 Q725.084 26.1121 728.366 26.8413 Q731.647 27.5299 734.725 28.9478 Z" fill="#000000" fill-rule="nonzero" fill-opacity="1" /><path clip-path="url(#clip880)" d="M765.269 32.4315 Q759.274 32.4315 755.79 37.1306 Q752.306 41.7891 752.306 49.9314 Q752.306 58.0738 755.75 62.7728 Q759.233 67.4314 765.269 67.4314 Q771.224 67.4314 774.708 62.7323 Q778.192 58.0333 778.192 49.9314 Q778.192 41.8701 774.708 37.1711 Q771.224 32.4315 765.269 32.4315 M765.269 26.1121 Q774.991 26.1121 780.541 32.4315 Q786.091 38.7509 786.091 49.9314 Q786.091 61.0714 780.541 67.4314 Q774.991 73.7508 765.269 73.7508 Q755.507 73.7508 749.957 67.4314 Q744.448 61.0714 744.448 49.9314 Q744.448 38.7509 749.957 32.4315 Q755.507 26.1121 765.269 26.1121 Z" fill="#000000" fill-rule="nonzero" fill-opacity="1" /><path clip-path="url(#clip880)" d="M827.37 28.5427 L827.37 35.5912 Q824.21 33.9709 820.807 33.1607 Q817.404 32.3505 813.759 32.3505 Q808.209 32.3505 805.414 34.0519 Q802.659 35.7533 802.659 39.156 Q802.659 41.7486 804.644 43.2475 Q806.629 44.7058 812.624 46.0426 L815.176 46.6097 Q823.116 48.3111 826.438 51.4303 Q829.8 54.509 829.8 60.0587 Q829.8 66.3781 824.777 70.0644 Q819.794 73.7508 811.045 73.7508 Q807.399 73.7508 803.429 73.0216 Q799.499 72.3329 795.124 70.9151 L795.124 63.2184 Q799.256 65.3654 803.267 66.4591 Q807.277 67.5124 811.207 67.5124 Q816.473 67.5124 819.308 65.73 Q822.144 63.9071 822.144 60.6258 Q822.144 57.5877 820.078 55.9673 Q818.053 54.3469 811.126 52.8481 L808.533 52.2405 Q801.606 50.7821 798.527 47.7845 Q795.449 44.7463 795.449 39.4801 Q795.449 33.0797 799.986 29.5959 Q804.523 26.1121 812.867 26.1121 Q816.999 26.1121 820.645 26.7198 Q824.291 27.3274 827.37 28.5427 Z" fill="#000000" fill-rule="nonzero" fill-opacity="1" /><path clip-path="url(#clip880)" d="M841.669 27.2059 L849.123 27.2059 L849.123 72.576 L841.669 72.576 L841.669 27.2059 M841.669 9.54393 L849.123 9.54393 L849.123 18.9825 L841.669 18.9825 L841.669 9.54393 Z" fill="#000000" fill-rule="nonzero" fill-opacity="1" /><path clip-path="url(#clip880)" d="M902.433 45.1919 L902.433 72.576 L894.979 72.576 L894.979 45.4349 Q894.979 38.994 892.468 35.7938 Q889.956 32.5936 884.933 32.5936 Q878.897 32.5936 875.413 36.4419 Q871.93 40.2903 871.93 46.9338 L871.93 72.576 L864.435 72.576 L864.435 27.2059 L871.93 27.2059 L871.93 34.2544 Q874.603 30.163 878.209 28.1376 Q881.854 26.1121 886.594 26.1121 Q894.412 26.1121 898.423 30.9732 Q902.433 35.7938 902.433 45.1919 Z" fill="#000000" fill-rule="nonzero" fill-opacity="1" /><path clip-path="url(#clip880)" d="M956.107 48.0275 L956.107 51.6733 L921.837 51.6733 Q922.323 59.3701 926.455 63.421 Q930.627 67.4314 938.04 67.4314 Q942.334 67.4314 946.345 66.3781 Q950.396 65.3249 954.366 63.2184 L954.366 70.267 Q950.355 71.9684 946.142 72.8596 Q941.929 73.7508 937.595 73.7508 Q926.738 73.7508 920.378 67.4314 Q914.059 61.1119 914.059 50.3365 Q914.059 39.1965 920.054 32.6746 Q926.09 26.1121 936.298 26.1121 Q945.454 26.1121 950.76 32.0264 Q956.107 37.9003 956.107 48.0275 M948.654 45.84 Q948.573 39.7232 945.21 36.0774 Q941.889 32.4315 936.38 32.4315 Q930.141 32.4315 926.374 35.9558 Q922.647 39.4801 922.08 45.8805 L948.654 45.84 Z" fill="#000000" fill-rule="nonzero" fill-opacity="1" /><path clip-path="url(#clip880)" d="M1023.64 28.5427 L1023.64 35.5912 Q1020.48 33.9709 1017.07 33.1607 Q1013.67 32.3505 1010.02 32.3505 Q1004.48 32.3505 1001.68 34.0519 Q998.925 35.7533 998.925 39.156 Q998.925 41.7486 1000.91 43.2475 Q1002.9 44.7058 1008.89 46.0426 L1011.44 46.6097 Q1019.38 48.3111 1022.7 51.4303 Q1026.07 54.509 1026.07 60.0587 Q1026.07 66.3781 1021.04 70.0644 Q1016.06 73.7508 1007.31 73.7508 Q1003.67 73.7508 999.695 73.0216 Q995.766 72.3329 991.391 70.9151 L991.391 63.2184 Q995.523 65.3654 999.533 66.4591 Q1003.54 67.5124 1007.47 67.5124 Q1012.74 67.5124 1015.57 65.73 Q1018.41 63.9071 1018.41 60.6258 Q1018.41 57.5877 1016.34 55.9673 Q1014.32 54.3469 1007.39 52.8481 L1004.8 52.2405 Q997.872 50.7821 994.794 47.7845 Q991.715 44.7463 991.715 39.4801 Q991.715 33.0797 996.252 29.5959 Q1000.79 26.1121 1009.13 26.1121 Q1013.27 26.1121 1016.91 26.7198 Q1020.56 27.3274 1023.64 28.5427 Z" fill="#000000" fill-rule="nonzero" fill-opacity="1" /><path clip-path="url(#clip880)" d="M1037.94 27.2059 L1045.39 27.2059 L1045.39 72.576 L1037.94 72.576 L1037.94 27.2059 M1037.94 9.54393 L1045.39 9.54393 L1045.39 18.9825 L1037.94 18.9825 L1037.94 9.54393 Z" fill="#000000" fill-rule="nonzero" fill-opacity="1" /><path clip-path="url(#clip880)" d="M1096.31 35.9153 Q1099.1 30.8922 1102.99 28.5022 Q1106.88 26.1121 1112.15 26.1121 Q1119.24 26.1121 1123.09 31.0947 Q1126.93 36.0368 1126.93 45.1919 L1126.93 72.576 L1119.44 72.576 L1119.44 45.4349 Q1119.44 38.913 1117.13 35.7533 Q1114.82 32.5936 1110.08 32.5936 Q1104.29 32.5936 1100.93 36.4419 Q1097.56 40.2903 1097.56 46.9338 L1097.56 72.576 L1090.07 72.576 L1090.07 45.4349 Q1090.07 38.8725 1087.76 35.7533 Q1085.45 32.5936 1080.63 32.5936 Q1074.92 32.5936 1071.56 36.4824 Q1068.2 40.3308 1068.2 46.9338 L1068.2 72.576 L1060.7 72.576 L1060.7 27.2059 L1068.2 27.2059 L1068.2 34.2544 Q1070.75 30.082 1074.31 28.0971 Q1077.88 26.1121 1082.78 26.1121 Q1087.72 26.1121 1091.16 28.6237 Q1094.65 31.1352 1096.31 35.9153 Z" fill="#000000" fill-rule="nonzero" fill-opacity="1" /><path clip-path="url(#clip880)" d="M1141.8 27.2059 L1149.25 27.2059 L1149.25 72.576 L1141.8 72.576 L1141.8 27.2059 M1141.8 9.54393 L1149.25 9.54393 L1149.25 18.9825 L1141.8 18.9825 L1141.8 9.54393 Z" fill="#000000" fill-rule="nonzero" fill-opacity="1" /><path clip-path="url(#clip880)" d="M1164.85 9.54393 L1172.3 9.54393 L1172.3 72.576 L1164.85 72.576 L1164.85 9.54393 Z" fill="#000000" fill-rule="nonzero" fill-opacity="1" /><path clip-path="url(#clip880)" d="M1208.52 49.7694 Q1199.49 49.7694 1196 51.8354 Q1192.52 53.9013 1192.52 58.8839 Q1192.52 62.8538 1195.11 65.2034 Q1197.74 67.5124 1202.24 67.5124 Q1208.44 67.5124 1212.17 63.1374 Q1215.93 58.7219 1215.93 51.4303 L1215.93 49.7694 L1208.52 49.7694 M1223.39 46.6907 L1223.39 72.576 L1215.93 72.576 L1215.93 65.6895 Q1213.38 69.8214 1209.57 71.8063 Q1205.76 73.7508 1200.26 73.7508 Q1193.29 73.7508 1189.16 69.8619 Q1185.06 65.9325 1185.06 59.3701 Q1185.06 51.7138 1190.17 47.825 Q1195.31 43.9361 1205.48 43.9361 L1215.93 43.9361 L1215.93 43.2069 Q1215.93 38.0623 1212.53 35.2672 Q1209.17 32.4315 1203.05 32.4315 Q1199.16 32.4315 1195.48 33.3632 Q1191.79 34.295 1188.39 36.1584 L1188.39 29.2718 Q1192.48 27.692 1196.33 26.9223 Q1200.17 26.1121 1203.82 26.1121 Q1213.66 26.1121 1218.52 31.2163 Q1223.39 36.3204 1223.39 46.6907 Z" fill="#000000" fill-rule="nonzero" fill-opacity="1" /><path clip-path="url(#clip880)" d="M1265.03 34.1734 Q1263.77 33.4443 1262.27 33.1202 Q1260.82 32.7556 1259.03 32.7556 Q1252.71 32.7556 1249.31 36.8875 Q1245.95 40.9789 1245.95 48.6757 L1245.95 72.576 L1238.46 72.576 L1238.46 27.2059 L1245.95 27.2059 L1245.95 34.2544 Q1248.3 30.1225 1252.07 28.1376 Q1255.83 26.1121 1261.22 26.1121 Q1261.99 26.1121 1262.92 26.2337 Q1263.85 26.3147 1264.99 26.5172 L1265.03 34.1734 Z" fill="#000000" fill-rule="nonzero" fill-opacity="1" /><path clip-path="url(#clip880)" d="M1272.85 27.2059 L1280.3 27.2059 L1280.3 72.576 L1272.85 72.576 L1272.85 27.2059 M1272.85 9.54393 L1280.3 9.54393 L1280.3 18.9825 L1272.85 18.9825 L1272.85 9.54393 Z" fill="#000000" fill-rule="nonzero" fill-opacity="1" /><path clip-path="url(#clip880)" d="M1303.27 14.324 L1303.27 27.2059 L1318.62 27.2059 L1318.62 32.9987 L1303.27 32.9987 L1303.27 57.6282 Q1303.27 63.1779 1304.77 64.7578 Q1306.31 66.3376 1310.97 66.3376 L1318.62 66.3376 L1318.62 72.576 L1310.97 72.576 Q1302.34 72.576 1299.06 69.3758 Q1295.78 66.1351 1295.78 57.6282 L1295.78 32.9987 L1290.31 32.9987 L1290.31 27.2059 L1295.78 27.2059 L1295.78 14.324 L1303.27 14.324 Z" fill="#000000" fill-rule="nonzero" fill-opacity="1" /><path clip-path="url(#clip880)" d="M1328.43 27.2059 L1335.88 27.2059 L1335.88 72.576 L1328.43 72.576 L1328.43 27.2059 M1328.43 9.54393 L1335.88 9.54393 L1335.88 18.9825 L1328.43 18.9825 L1328.43 9.54393 Z" fill="#000000" fill-rule="nonzero" fill-opacity="1" /><path clip-path="url(#clip880)" d="M1390.28 48.0275 L1390.28 51.6733 L1356.01 51.6733 Q1356.5 59.3701 1360.63 63.421 Q1364.8 67.4314 1372.22 67.4314 Q1376.51 67.4314 1380.52 66.3781 Q1384.57 65.3249 1388.54 63.2184 L1388.54 70.267 Q1384.53 71.9684 1380.32 72.8596 Q1376.11 73.7508 1371.77 73.7508 Q1360.91 73.7508 1354.55 67.4314 Q1348.23 61.1119 1348.23 50.3365 Q1348.23 39.1965 1354.23 32.6746 Q1360.27 26.1121 1370.47 26.1121 Q1379.63 26.1121 1384.94 32.0264 Q1390.28 37.9003 1390.28 48.0275 M1382.83 45.84 Q1382.75 39.7232 1379.39 36.0774 Q1376.06 32.4315 1370.56 32.4315 Q1364.32 32.4315 1360.55 35.9558 Q1356.82 39.4801 1356.26 45.8805 L1382.83 45.84 Z" fill="#000000" fill-rule="nonzero" fill-opacity="1" /><path clip-path="url(#clip880)" d="M1431.44 28.5427 L1431.44 35.5912 Q1428.28 33.9709 1424.88 33.1607 Q1421.48 32.3505 1417.83 32.3505 Q1412.28 32.3505 1409.48 34.0519 Q1406.73 35.7533 1406.73 39.156 Q1406.73 41.7486 1408.71 43.2475 Q1410.7 44.7058 1416.7 46.0426 L1419.25 46.6097 Q1427.19 48.3111 1430.51 51.4303 Q1433.87 54.509 1433.87 60.0587 Q1433.87 66.3781 1428.85 70.0644 Q1423.87 73.7508 1415.12 73.7508 Q1411.47 73.7508 1407.5 73.0216 Q1403.57 72.3329 1399.2 70.9151 L1399.2 63.2184 Q1403.33 65.3654 1407.34 66.4591 Q1411.35 67.5124 1415.28 67.5124 Q1420.54 67.5124 1423.38 65.73 Q1426.21 63.9071 1426.21 60.6258 Q1426.21 57.5877 1424.15 55.9673 Q1422.12 54.3469 1415.2 52.8481 L1412.6 52.2405 Q1405.68 50.7821 1402.6 47.7845 Q1399.52 44.7463 1399.52 39.4801 Q1399.52 33.0797 1404.06 29.5959 Q1408.59 26.1121 1416.94 26.1121 Q1421.07 26.1121 1424.72 26.7198 Q1428.36 27.3274 1431.44 28.5427 Z" fill="#000000" fill-rule="nonzero" fill-opacity="1" /><path clip-path="url(#clip880)" d="M1504.76 28.9478 L1504.76 35.9153 Q1501.6 34.1734 1498.4 33.3227 Q1495.24 32.4315 1492 32.4315 Q1484.75 32.4315 1480.74 37.0496 Q1476.73 41.6271 1476.73 49.9314 Q1476.73 58.2358 1480.74 62.8538 Q1484.75 67.4314 1492 67.4314 Q1495.24 67.4314 1498.4 66.5807 Q1501.6 65.6895 1504.76 63.9476 L1504.76 70.8341 Q1501.64 72.2924 1498.28 73.0216 Q1494.96 73.7508 1491.19 73.7508 Q1480.94 73.7508 1474.91 67.3098 Q1468.87 60.8689 1468.87 49.9314 Q1468.87 38.832 1474.95 32.472 Q1481.06 26.1121 1491.68 26.1121 Q1495.12 26.1121 1498.4 26.8413 Q1501.68 27.5299 1504.76 28.9478 Z" fill="#000000" fill-rule="nonzero" fill-opacity="1" /><path clip-path="url(#clip880)" d="M1556.53 48.0275 L1556.53 51.6733 L1522.26 51.6733 Q1522.75 59.3701 1526.88 63.421 Q1531.05 67.4314 1538.47 67.4314 Q1542.76 67.4314 1546.77 66.3781 Q1550.82 65.3249 1554.79 63.2184 L1554.79 70.267 Q1550.78 71.9684 1546.57 72.8596 Q1542.35 73.7508 1538.02 73.7508 Q1527.16 73.7508 1520.8 67.4314 Q1514.48 61.1119 1514.48 50.3365 Q1514.48 39.1965 1520.48 32.6746 Q1526.52 26.1121 1536.72 26.1121 Q1545.88 26.1121 1551.19 32.0264 Q1556.53 37.9003 1556.53 48.0275 M1549.08 45.84 Q1549 39.7232 1545.64 36.0774 Q1542.31 32.4315 1536.8 32.4315 Q1530.57 32.4315 1526.8 35.9558 Q1523.07 39.4801 1522.5 45.8805 L1549.08 45.84 Z" fill="#000000" fill-rule="nonzero" fill-opacity="1" /><path clip-path="url(#clip880)" d="M1568.77 9.54393 L1576.22 9.54393 L1576.22 72.576 L1568.77 72.576 L1568.77 9.54393 Z" fill="#000000" fill-rule="nonzero" fill-opacity="1" /><path clip-path="url(#clip880)" d="M1591.82 9.54393 L1599.27 9.54393 L1599.27 72.576 L1591.82 72.576 L1591.82 9.54393 Z" fill="#000000" fill-rule="nonzero" fill-opacity="1" /><path clip-path="url(#clip880)" d="M1667.08 39.9662 Q1672.96 41.222 1676.24 45.1919 Q1679.56 49.1618 1679.56 54.9951 Q1679.56 63.9476 1673.4 68.8492 Q1667.24 73.7508 1655.9 73.7508 Q1652.09 73.7508 1648.04 72.9811 Q1644.03 72.2519 1639.74 70.7531 L1639.74 62.8538 Q1643.14 64.8388 1647.19 65.8515 Q1651.24 66.8642 1655.66 66.8642 Q1663.35 66.8642 1667.37 63.826 Q1671.42 60.7879 1671.42 54.9951 Q1671.42 49.6479 1667.65 46.6502 Q1663.92 43.612 1657.24 43.612 L1650.19 43.612 L1650.19 36.8875 L1657.56 36.8875 Q1663.6 36.8875 1666.8 34.4975 Q1670 32.067 1670 27.5299 Q1670 22.8714 1666.68 20.4004 Q1663.4 17.8888 1657.24 17.8888 Q1653.88 17.8888 1650.03 18.618 Q1646.18 19.3471 1641.56 20.8865 L1641.56 13.5948 Q1646.22 12.2985 1650.27 11.6504 Q1654.36 11.0023 1657.97 11.0023 Q1667.28 11.0023 1672.71 15.2557 Q1678.14 19.4686 1678.14 26.6793 Q1678.14 31.7024 1675.26 35.1862 Q1672.39 38.6294 1667.08 39.9662 Z" fill="#000000" fill-rule="nonzero" fill-opacity="1" /><path clip-path="url(#clip880)" d="M1695.15 12.096 L1727.28 12.096 L1727.28 18.9825 L1702.65 18.9825 L1702.65 33.8088 Q1704.43 33.2012 1706.21 32.9176 Q1708 32.5936 1709.78 32.5936 Q1719.91 32.5936 1725.82 38.1433 Q1731.73 43.6931 1731.73 53.1722 Q1731.73 62.9348 1725.66 68.3631 Q1719.58 73.7508 1708.52 73.7508 Q1704.71 73.7508 1700.74 73.1026 Q1696.82 72.4545 1692.6 71.1582 L1692.6 62.9348 Q1696.25 64.9198 1700.14 65.892 Q1704.03 66.8642 1708.36 66.8642 Q1715.37 66.8642 1719.46 63.1779 Q1723.55 59.4916 1723.55 53.1722 Q1723.55 46.8528 1719.46 43.1664 Q1715.37 39.4801 1708.36 39.4801 Q1705.08 39.4801 1701.8 40.2093 Q1698.56 40.9384 1695.15 42.4778 L1695.15 12.096 Z" fill="#000000" fill-rule="nonzero" fill-opacity="1" /><path clip-path="url(#clip880)" d="M1765.36 17.4837 Q1759.04 17.4837 1755.84 23.7221 Q1752.68 29.92 1752.68 42.3968 Q1752.68 54.833 1755.84 61.0714 Q1759.04 67.2693 1765.36 67.2693 Q1771.72 67.2693 1774.88 61.0714 Q1778.08 54.833 1778.08 42.3968 Q1778.08 29.92 1774.88 23.7221 Q1771.72 17.4837 1765.36 17.4837 M1765.36 11.0023 Q1775.52 11.0023 1780.87 19.0636 Q1786.26 27.0843 1786.26 42.3968 Q1786.26 57.6687 1780.87 65.73 Q1775.52 73.7508 1765.36 73.7508 Q1755.19 73.7508 1749.8 65.73 Q1744.45 57.6687 1744.45 42.3968 Q1744.45 27.0843 1749.8 19.0636 Q1755.19 11.0023 1765.36 11.0023 Z" fill="#000000" fill-rule="nonzero" fill-opacity="1" /><path clip-path="url(#clip880)" d="M1825.96 27.2059 L1833.41 27.2059 L1833.41 72.576 L1825.96 72.576 L1825.96 27.2059 M1825.96 9.54393 L1833.41 9.54393 L1833.41 18.9825 L1825.96 18.9825 L1825.96 9.54393 Z" fill="#000000" fill-rule="nonzero" fill-opacity="1" /><path clip-path="url(#clip880)" d="M1856.38 14.324 L1856.38 27.2059 L1871.73 27.2059 L1871.73 32.9987 L1856.38 32.9987 L1856.38 57.6282 Q1856.38 63.1779 1857.88 64.7578 Q1859.42 66.3376 1864.08 66.3376 L1871.73 66.3376 L1871.73 72.576 L1864.08 72.576 Q1855.45 72.576 1852.17 69.3758 Q1848.89 66.1351 1848.89 57.6282 L1848.89 32.9987 L1843.42 32.9987 L1843.42 27.2059 L1848.89 27.2059 L1848.89 14.324 L1856.38 14.324 Z" fill="#000000" fill-rule="nonzero" fill-opacity="1" /><path clip-path="url(#clip880)" d="M1920.34 48.0275 L1920.34 51.6733 L1886.07 51.6733 Q1886.56 59.3701 1890.69 63.421 Q1894.86 67.4314 1902.28 67.4314 Q1906.57 67.4314 1910.58 66.3781 Q1914.63 65.3249 1918.6 63.2184 L1918.6 70.267 Q1914.59 71.9684 1910.38 72.8596 Q1906.17 73.7508 1901.83 73.7508 Q1890.98 73.7508 1884.62 67.4314 Q1878.3 61.1119 1878.3 50.3365 Q1878.3 39.1965 1884.29 32.6746 Q1890.33 26.1121 1900.54 26.1121 Q1909.69 26.1121 1915 32.0264 Q1920.34 37.9003 1920.34 48.0275 M1912.89 45.84 Q1912.81 39.7232 1909.45 36.0774 Q1906.13 32.4315 1900.62 32.4315 Q1894.38 32.4315 1890.61 35.9558 Q1886.88 39.4801 1886.32 45.8805 L1912.89 45.84 Z" fill="#000000" fill-rule="nonzero" fill-opacity="1" /><path clip-path="url(#clip880)" d="M1958.87 34.1734 Q1957.61 33.4443 1956.11 33.1202 Q1954.66 32.7556 1952.87 32.7556 Q1946.55 32.7556 1943.15 36.8875 Q1939.79 40.9789 1939.79 48.6757 L1939.79 72.576 L1932.29 72.576 L1932.29 27.2059 L1939.79 27.2059 L1939.79 34.2544 Q1942.14 30.1225 1945.91 28.1376 Q1949.67 26.1121 1955.06 26.1121 Q1955.83 26.1121 1956.76 26.2337 Q1957.69 26.3147 1958.83 26.5172 L1958.87 34.1734 Z" fill="#000000" fill-rule="nonzero" fill-opacity="1" /><path clip-path="url(#clip880)" d="M1987.31 49.7694 Q1978.27 49.7694 1974.79 51.8354 Q1971.3 53.9013 1971.3 58.8839 Q1971.3 62.8538 1973.9 65.2034 Q1976.53 67.5124 1981.03 67.5124 Q1987.22 67.5124 1990.95 63.1374 Q1994.72 58.7219 1994.72 51.4303 L1994.72 49.7694 L1987.31 49.7694 M2002.17 46.6907 L2002.17 72.576 L1994.72 72.576 L1994.72 65.6895 Q1992.17 69.8214 1988.36 71.8063 Q1984.55 73.7508 1979.04 73.7508 Q1972.07 73.7508 1967.94 69.8619 Q1963.85 65.9325 1963.85 59.3701 Q1963.85 51.7138 1968.95 47.825 Q1974.1 43.9361 1984.27 43.9361 L1994.72 43.9361 L1994.72 43.2069 Q1994.72 38.0623 1991.32 35.2672 Q1987.95 32.4315 1981.84 32.4315 Q1977.95 32.4315 1974.26 33.3632 Q1970.58 34.295 1967.17 36.1584 L1967.17 29.2718 Q1971.26 27.692 1975.11 26.9223 Q1978.96 26.1121 1982.61 26.1121 Q1992.45 26.1121 1997.31 31.2163 Q2002.17 36.3204 2002.17 46.6907 Z" fill="#000000" fill-rule="nonzero" fill-opacity="1" /><path clip-path="url(#clip880)" d="M2024.9 14.324 L2024.9 27.2059 L2040.25 27.2059 L2040.25 32.9987 L2024.9 32.9987 L2024.9 57.6282 Q2024.9 63.1779 2026.4 64.7578 Q2027.94 66.3376 2032.59 66.3376 L2040.25 66.3376 L2040.25 72.576 L2032.59 72.576 Q2023.97 72.576 2020.69 69.3758 Q2017.4 66.1351 2017.4 57.6282 L2017.4 32.9987 L2011.94 32.9987 L2011.94 27.2059 L2017.4 27.2059 L2017.4 14.324 L2024.9 14.324 Z" fill="#000000" fill-rule="nonzero" fill-opacity="1" /><path clip-path="url(#clip880)" d="M2050.05 27.2059 L2057.51 27.2059 L2057.51 72.576 L2050.05 72.576 L2050.05 27.2059 M2050.05 9.54393 L2057.51 9.54393 L2057.51 18.9825 L2050.05 18.9825 L2050.05 9.54393 Z" fill="#000000" fill-rule="nonzero" fill-opacity="1" /><path clip-path="url(#clip880)" d="M2090.68 32.4315 Q2084.69 32.4315 2081.21 37.1306 Q2077.72 41.7891 2077.72 49.9314 Q2077.72 58.0738 2081.17 62.7728 Q2084.65 67.4314 2090.68 67.4314 Q2096.64 67.4314 2100.12 62.7323 Q2103.61 58.0333 2103.61 49.9314 Q2103.61 41.8701 2100.12 37.1711 Q2096.64 32.4315 2090.68 32.4315 M2090.68 26.1121 Q2100.41 26.1121 2105.96 32.4315 Q2111.51 38.7509 2111.51 49.9314 Q2111.51 61.0714 2105.96 67.4314 Q2100.41 73.7508 2090.68 73.7508 Q2080.92 73.7508 2075.37 67.4314 Q2069.86 61.0714 2069.86 49.9314 Q2069.86 38.7509 2075.37 32.4315 Q2080.92 26.1121 2090.68 26.1121 Z" fill="#000000" fill-rule="nonzero" fill-opacity="1" /><path clip-path="url(#clip880)" d="M2161.58 45.1919 L2161.58 72.576 L2154.12 72.576 L2154.12 45.4349 Q2154.12 38.994 2151.61 35.7938 Q2149.1 32.5936 2144.08 32.5936 Q2138.04 32.5936 2134.56 36.4419 Q2131.07 40.2903 2131.07 46.9338 L2131.07 72.576 L2123.58 72.576 L2123.58 27.2059 L2131.07 27.2059 L2131.07 34.2544 Q2133.75 30.163 2137.35 28.1376 Q2141 26.1121 2145.74 26.1121 Q2153.55 26.1121 2157.57 30.9732 Q2161.58 35.7938 2161.58 45.1919 Z" fill="#000000" fill-rule="nonzero" fill-opacity="1" /><path clip-path="url(#clip880)" d="M2203.95 12.096 L2236.07 12.096 L2236.07 18.9825 L2211.44 18.9825 L2211.44 33.8088 Q2213.22 33.2012 2215.01 32.9176 Q2216.79 32.5936 2218.57 32.5936 Q2228.7 32.5936 2234.61 38.1433 Q2240.53 43.6931 2240.53 53.1722 Q2240.53 62.9348 2234.45 68.3631 Q2228.37 73.7508 2217.32 73.7508 Q2213.51 73.7508 2209.54 73.1026 Q2205.61 72.4545 2201.4 71.1582 L2201.4 62.9348 Q2205.04 64.9198 2208.93 65.892 Q2212.82 66.8642 2217.15 66.8642 Q2224.16 66.8642 2228.25 63.1779 Q2232.34 59.4916 2232.34 53.1722 Q2232.34 46.8528 2228.25 43.1664 Q2224.16 39.4801 2217.15 39.4801 Q2213.87 39.4801 2210.59 40.2093 Q2207.35 40.9384 2203.95 42.4778 L2203.95 12.096 Z" fill="#000000" fill-rule="nonzero" fill-opacity="1" /><polyline clip-path="url(#clip882)" style="stroke:#009af9; stroke-linecap:round; stroke-linejoin:round; stroke-width:4; stroke-opacity:1; fill:none" points="345.82,1386.4 347.771,1328.47 349.721,1325.59 351.672,1325.18 353.622,1325.15 355.572,1325.13 357.523,1325.13 359.473,1325.12 361.424,1325.12 363.374,1325.11 365.325,1325.09 367.275,1325.09 369.226,1325.07 371.176,1325.07 373.126,1325.06 375.077,1325.06 377.027,1325.05 378.978,1325.05 380.928,1325.05 382.879,1325.04 384.829,1325.03 386.779,1325.03 388.73,1325.02 390.68,1325.01 392.631,1325 394.581,1324.99 396.532,1324.99 398.482,1324.99 400.432,1324.98 402.383,1324.97 404.333,1324.97 406.284,1324.95 408.234,1324.95 410.185,1324.95 412.135,1324.94 414.085,1324.94 416.036,1324.93 417.986,1324.93 419.937,1324.93 421.887,1324.92 423.838,1324.91 425.788,1324.9 427.738,1324.9 429.689,1324.89 431.639,1324.89 433.59,1324.89 435.54,1324.88 437.491,1324.88 439.441,1324.88 441.391,1324.88 443.342,1324.88 445.292,1324.88 447.243,1324.88 449.193,1324.87 451.144,1324.87 453.094,1324.87 455.045,1324.87 456.995,1324.87 458.945,1324.87 460.896,1324.87 462.846,1324.87 464.797,1324.87 466.747,1324.87 468.698,1324.87 470.648,1324.87 472.598,1324.87 474.549,1324.87 476.499,1324.87 478.45,1324.87 480.4,1324.87 482.351,1324.87 484.301,1324.87 486.251,1324.87 488.202,1324.87 490.152,1324.87 492.103,1324.87 494.053,1324.87 496.004,1324.87 497.954,1324.87 499.904,1324.87 501.855,1324.87 503.805,1324.87 505.756,1324.87 507.706,1324.87 509.657,1324.87 511.607,1324.87 513.557,1324.87 515.508,1324.87 517.458,1324.87 519.409,1324.87 521.359,1324.87 523.31,1324.87 525.26,1324.87 527.21,1324.87 529.161,1324.87 531.111,1324.87 533.062,1324.87 535.012,1324.86 536.963,1324.86 538.913,1324.86 540.863,1324.86 542.814,1324.86 544.764,1324.86 546.715,1324.86 548.665,1324.86 550.616,1324.86 552.566,1324.86 554.517,1324.86 556.467,1324.86 558.417,1324.86 560.368,1324.86 562.318,1324.86 564.269,1324.86 566.219,1324.86 568.17,1324.86 570.12,1324.86 572.07,1324.86 574.021,1324.86 575.971,1324.86 577.922,1324.85 579.872,1324.85 581.823,1324.85 583.773,1324.85 585.723,1324.85 587.674,1324.85 589.624,1324.85 591.575,1324.85 593.525,1324.84 595.476,1324.84 597.426,1324.84 599.376,1324.84 601.327,1324.84 603.277,1324.84 605.228,1324.84 607.178,1324.84 609.129,1324.84 611.079,1324.83 613.029,1324.83 614.98,1324.83 616.93,1324.83 618.881,1324.83 620.831,1324.83 622.782,1324.83 624.732,1324.83 626.682,1324.83 628.633,1324.83 630.583,1324.83 632.534,1324.83 634.484,1324.82 636.435,1324.82 638.385,1324.82 640.336,1324.82 642.286,1324.82 644.236,1324.82 646.187,1324.82 648.137,1324.82 650.088,1324.82 652.038,1324.81 653.989,1324.81 655.939,1324.81 657.889,1324.81 659.84,1324.81 661.79,1324.81 663.741,1324.81 665.691,1324.8 667.642,1324.8 669.592,1324.8 671.542,1324.8 673.493,1324.8 675.443,1324.8 677.394,1324.79 679.344,1324.79 681.295,1324.79 683.245,1324.79 685.195,1324.79 687.146,1324.79 689.096,1324.78 691.047,1324.78 692.997,1324.78 694.948,1324.78 696.898,1324.78 698.848,1324.77 700.799,1324.77 702.749,1324.77 704.7,1324.76 706.65,1324.76 708.601,1324.76 710.551,1324.76 712.501,1324.75 714.452,1324.75 716.402,1324.74 718.353,1324.74 720.303,1324.74 722.254,1324.74 724.204,1324.74 726.154,1324.74 728.105,1324.73 730.055,1324.73 732.006,1324.73 733.956,1324.73 735.907,1324.73 737.857,1324.73 739.808,1324.72 741.758,1324.72 743.708,1324.72 745.659,1324.72 747.609,1324.72 749.56,1324.72 751.51,1324.72 753.461,1324.72 755.411,1324.72 757.361,1324.72 759.312,1324.72 761.262,1324.72 763.213,1324.72 765.163,1324.72 767.114,1324.72 769.064,1324.72 771.014,1324.71 772.965,1324.71 774.915,1324.71 776.866,1324.71 778.816,1324.71 780.767,1324.71 782.717,1324.71 784.667,1324.71 786.618,1324.7 788.568,1324.7 790.519,1324.7 792.469,1324.7 794.42,1324.7 796.37,1324.7 798.32,1324.7 800.271,1324.69 802.221,1324.69 804.172,1324.69 806.122,1324.69 808.073,1324.69 810.023,1324.69 811.973,1324.69 813.924,1324.69 815.874,1324.68 817.825,1324.68 819.775,1324.68 821.726,1324.68 823.676,1324.68 825.627,1324.68 827.577,1324.68 829.527,1324.67 831.478,1324.67 833.428,1006.2 835.379,1006.2 837.329,1006.2 839.28,1006.19 841.23,1006.18 843.18,1006.18 845.131,1006.18 847.081,1006.17 849.032,1006.17 850.982,1006.16 852.933,1006.16 854.883,1006.15 856.833,1006.15 858.784,1006.15 860.734,1006.14 862.685,1006.14 864.635,1006.14 866.586,1006.14 868.536,1006.13 870.486,1006.11 872.437,1006.1 874.387,1006.1 876.338,1006.09 878.288,1006.08 880.239,1006.07 882.189,1006.05 884.139,1006.05 886.09,1006.04 888.04,1006.04 889.991,1006.04 891.941,1006.03 893.892,1006.03 895.842,1006.03 897.792,1006.03 899.743,1006.03 901.693,1006.01 903.644,1006 905.594,1006 907.545,1005.98 909.495,1005.98 911.445,1005.98 913.396,1005.98 915.346,1005.98 917.297,1005.98 919.247,1005.97 921.198,1005.96 923.148,1005.96 925.099,1005.95 927.049,1005.94 928.999,1005.94 930.95,1005.93 932.9,1005.93 934.851,1005.93 936.801,1005.92 938.752,1005.88 940.702,1005.87 942.652,1005.87 944.603,1005.87 946.553,1005.87 948.504,1005.87 950.454,1005.86 952.405,1005.85 954.355,1005.85 956.305,1005.84 958.256,1005.8 960.206,1005.8 962.157,1005.79 964.107,1005.79 966.058,1005.78 968.008,1005.76 969.958,1005.76 971.909,1005.75 973.859,1005.73 975.81,1005.68 977.76,1005.66 979.711,1005.64 981.661,1005.63 983.611,1005.61 985.562,1005.61 987.512,1005.61 989.463,1005.6 991.413,1005.56 993.364,1005.56 995.314,1005.54 997.264,1005.53 999.215,1005.52 1001.17,1005.51 1003.12,1005.51 1005.07,1005.51 1007.02,1005.47 1008.97,1005.47 1010.92,1005.46 1012.87,1005.46 1014.82,1005.44 1016.77,1005.41 1018.72,1005.39 1020.67,1005.39 1022.62,1005.38 1024.57,1005.35 1026.52,1005.34 1028.47,1005.34 1030.42,1005.34 1032.37,1005.29 1034.32,1005.29 1036.27,1005.24 1038.22,1005.23 1040.17,1005.19 1042.12,1005.19 1044.07,1005.14 1046.03,1005.12 1047.98,1005.12 1049.93,1005.1 1051.88,1005.09 1053.83,1005.05 1055.78,1005.05 1057.73,1004.98 1059.68,1004.97 1061.63,1004.9 1063.58,1004.89 1065.53,1004.88 1067.48,1004.85 1069.43,1004.82 1071.38,1004.77 1073.33,1004.75 1075.28,1004.71 1077.23,1004.6 1079.18,1004.58 1081.13,1004.58 1083.08,1004.57 1085.03,1004.53 1086.98,1004.51 1088.93,1004.48 1090.89,1004.42 1092.84,1004.4 1094.79,1004.38 1096.74,1004.21 1098.69,1004.11 1100.64,1004.1 1102.59,1004.08 1104.54,1004.02 1106.49,1003.97 1108.44,1003.97 1110.39,1003.96 1112.34,1003.87 1114.29,1003.8 1116.24,1003.58 1118.19,1003.57 1120.14,1003.55 1122.09,1003.54 1124.04,1003.48 1125.99,1003.35 1127.94,1003.31 1129.89,1003.19 1131.84,1003 1133.79,1002.93 1135.75,1002.91 1137.7,1002.83 1139.65,1002.7 1141.6,1002.68 1143.55,1002.65 1145.5,1002.5 1147.45,1002.4 1149.4,1002.36 1151.35,1002.27 1153.3,1002.19 1155.25,1001.8 1157.2,1001.65 1159.15,1001.54 1161.1,1001.34 1163.05,1001.33 1165,1001.32 1166.95,1001.16 1168.9,1001.08 1170.85,1001.07 1172.8,1001.03 1174.75,1000.91 1176.7,1000.7 1178.65,1000.58 1180.61,1000.41 1182.56,1000.15 1184.51,1000.09 1186.46,999.922 1188.41,999.659 1190.36,999.611 1192.31,999.501 1194.26,999.395 1196.21,998.528 1198.16,998.415 1200.11,998.162 1202.06,997.551 1204.01,997.477 1205.96,996.811 1207.91,996.701 1209.86,995.676 1211.81,995.509 1213.76,995.114 1215.71,994.867 1217.66,994.438 1219.61,992.986 1221.56,992.441 1223.51,991.934 1225.46,991.084 1227.42,990.869 1229.37,990.763 1231.32,990.224 1233.27,989.939 1235.22,989.484 1237.17,989.197 1239.12,988.646 1241.07,987.517 1243.02,986.928 1244.97,985.921 1246.92,985.511 1248.87,984.143 1250.82,983.095 1252.77,983.021 1254.72,982.542 1256.67,981.857 1258.62,979.735 1260.57,978.671 1262.52,976.722 1264.47,976.61 1266.42,976.438 1268.37,975.687 1270.32,975.343 1272.28,974.85 1274.23,974.173 1276.18,973.731 1278.13,973.678 1280.08,967.454 1282.03,965.915 1283.98,965.872 1285.93,963.032 1287.88,961.817 1289.83,961.245 1291.78,958.133 1293.73,951.944 1295.68,948.371 1297.63,946.026 1299.58,944.575 1301.53,943.247 1303.48,938.251 1305.43,938.165 1307.38,934.691 1309.33,919.595 1311.28,918.799 1313.23,918.316 1315.18,917.866 1317.14,916.705 1319.09,898.243 1321.04,897.218 1322.99,896.439 1324.94,895.848 1326.89,895.182 1328.84,894.995 1330.79,893.24 1332.74,892.978 1334.69,892.902 1336.64,892.882 1338.59,891.597 1340.54,891.396 1342.49,891.137 1344.44,891.032 1346.39,890.798 1348.34,890.744 1350.29,890.698 1352.24,890.676 1354.19,890.627 1356.14,890.396 1358.09,890.234 1360.04,889.949 1362,888.989 1363.95,888.983 1365.9,888.601 1367.85,888.586 1369.8,887.631 1371.75,887.45 1373.7,887.326 1375.65,887.255 1377.6,887.051 1379.55,886.925 1381.5,886.752 1383.45,886.712 1385.4,886.609 1387.35,886.421 1389.3,886.264 1391.25,886.24 1393.2,886.235 1395.15,886.128 1397.1,886.081 1399.05,886.031 1401,885.836 1402.95,885.705 1404.9,885.662 1406.86,885.202 1408.81,885.105 1410.76,885.094 1412.71,885.053 1414.66,885.048 1416.61,884.997 1418.56,884.897 1420.51,884.875 1422.46,884.796 1424.41,884.747 1426.36,884.697 1428.31,884.253 1430.26,884.139 1432.21,884.018 1434.16,883.96 1436.11,883.955 1438.06,883.924 1440.01,883.773 1441.96,883.767 1443.91,883.427 1445.86,883.246 1447.81,883.098 1449.76,883.026 1451.72,883.013 1453.67,882.964 1455.62,882.951 1457.57,882.947 1459.52,882.927 1461.47,882.917 1463.42,882.895 1465.37,882.818 1467.32,882.65 1469.27,882.618 1471.22,882.617 1473.17,882.605 1475.12,882.594 1477.07,882.589 1479.02,882.493 1480.97,882.457 1482.92,882.407 1484.87,882.395 1486.82,882.353 1488.77,882.349 1490.72,882.347 1492.67,882.322 1494.62,882.262 1496.57,882.066 1498.53,882.021 1500.48,881.774 1502.43,881.703 1504.38,881.636 1506.33,881.605 1508.28,881.524 1510.23,881.494 1512.18,881.332 1514.13,881.232 1516.08,881.174 1518.03,881.087 1519.98,881.053 1521.93,880.993 1523.88,880.98 1525.83,880.943 1527.78,880.93 1529.73,880.855 1531.68,880.821 1533.63,880.818 1535.58,880.709 1537.53,880.705 1539.48,880.671 1541.43,880.645 1543.39,880.645 1545.34,880.582 1547.29,880.544 1549.24,880.503 1551.19,880.493 1553.14,880.453 1555.09,880.355 1557.04,880.346 1558.99,880.313 1560.94,880.26 1562.89,880.172 1564.84,880.143 1566.79,880.105 1568.74,880.089 1570.69,880.077 1572.64,880.073 1574.59,880.073 1576.54,880.034 1578.49,879.935 1580.44,879.91 1582.39,879.749 1584.34,879.64 1586.29,879.528 1588.25,879.522 1590.2,879.265 1592.15,879.041 1594.1,878.917 1596.05,878.905 1598,878.87 1599.95,878.572 1601.9,878.549 1603.85,878.546 1605.8,878.528 1607.75,878.455 1609.7,878.323 1611.65,878.107 1613.6,878.051 1615.55,877.988 1617.5,877.797 1619.45,877.749 1621.4,877.684 1623.35,877.649 1625.3,877.485 1627.25,877.458 1629.2,877.22 1631.15,876.986 1633.11,876.978 1635.06,876.919 1637.01,876.833 1638.96,876.754 1640.91,876.727 1642.86,876.514 1644.81,876.479 1646.76,876.272 1648.71,876.173 1650.66,875.979 1652.61,875.974 1654.56,875.864 1656.51,875.793 1658.46,875.715 1660.41,875.623 1662.36,875.164 1664.31,875.048 1666.26,874.765 1668.21,874.667 1670.16,874.648 1672.11,874.409 1674.06,874.391 1676.01,874.217 1677.97,874.064 1679.92,873.786 1681.87,873.776 1683.82,873.554 1685.77,873.374 1687.72,873.19 1689.67,873.067 1691.62,873.053 1693.57,872.369 1695.52,872.044 1697.47,871.525 1699.42,871.512 1701.37,871.438 1703.32,871.283 1705.27,870.902 1707.22,870.571 1709.17,870.531 1711.12,870.471 1713.07,870.392 1715.02,870.307 1716.97,870.197 1718.92,870.049 1720.87,869.846 1722.83,869.617 1724.78,869.261 1726.73,869.125 1728.68,868.824 1730.63,868.704 1732.58,868.648 1734.53,868.598 1736.48,868.569 1738.43,868.311 1740.38,868.294 1742.33,868.192 1744.28,867.974 1746.23,867.912 1748.18,867.717 1750.13,867.648 1752.08,867.453 1754.03,867.393 1755.98,867.089 1757.93,866.29 1759.88,866.27 1761.83,866.236 1763.78,866.228 1765.73,865.873 1767.68,865.749 1769.64,865.504 1771.59,865.453 1773.54,865.344 1775.49,865.288 1777.44,865.225 1779.39,865.129 1781.34,865.002 1783.29,864.576 1785.24,864.565 1787.19,864.422 1789.14,864.239 1791.09,863.945 1793.04,863.819 1794.99,863.716 1796.94,863.557 1798.89,863.509 1800.84,863.138 1802.79,860.558 1804.74,860.29 1806.69,410.2 1808.64,258.285 1810.59,254.123 1812.54,242.202 1814.5,239.709 1816.45,235.694 1818.4,234.788 1820.35,220.365 1822.3,207.775 1824.25,204.945 1826.2,174.356 1828.15,173.236 1830.1,172.51 1832.05,171.674 1834,170.436 1835.95,170.388 1837.9,169.865 1839.85,169.047 1841.8,168.812 1843.75,167.602 1845.7,166.11 1847.65,165.133 1849.6,165.007 1851.55,164.738 1853.5,163.377 1855.45,163.2 1857.4,162.992 1859.36,162.961 1861.31,162.794 1863.26,162.776 1865.21,162.616 1867.16,162.537 1869.11,162.464 1871.06,162.382 1873.01,162.15 1874.96,162.13 1876.91,162.106 1878.86,162.03 1880.81,162.002 1882.76,161.917 1884.71,161.831 1886.66,161.555 1888.61,161.491 1890.56,161.464 1892.51,161.402 1894.46,161.381 1896.41,161.38 1898.36,161.363 1900.31,161.347 1902.26,161.342 1904.22,161.281 1906.17,161.266 1908.12,161.265 1910.07,161.261 1912.02,161.227 1913.97,161.218 1915.92,161.141 1917.87,161.138 1919.82,161.126 1921.77,161.124 1923.72,161.116 1925.67,161.079 1927.62,161.066 1929.57,161.061 1931.52,161.023 1933.47,161.023 1935.42,161.009 1937.37,160.994 1939.32,160.961 1941.27,160.952 1943.22,160.941 1945.17,160.934 1947.12,160.899 1949.08,160.841 1951.03,160.836 1952.98,160.83 1954.93,160.821 1956.88,160.82 1958.83,160.723 1960.78,160.715 1962.73,160.71 1964.68,160.7 1966.63,160.684 1968.58,160.675 1970.53,160.671 1972.48,160.66 1974.43,160.655 1976.38,160.652 1978.33,160.651 1980.28,160.642 1982.23,160.64 1984.18,160.638 1986.13,160.621 1988.08,160.605 1990.03,160.602 1991.98,160.595 1993.94,160.591 1995.89,160.588 1997.84,160.588 1999.79,160.582 2001.74,160.568 2003.69,160.568 2005.64,160.561 2007.59,160.558 2009.54,160.556 2011.49,160.546 2013.44,160.539 2015.39,160.537 2017.34,160.532 2019.29,160.529 2021.24,160.526 2023.19,160.521 2025.14,160.514 2027.09,160.512 2029.04,160.51 2030.99,160.504 2032.94,160.5 2034.89,160.496 2036.84,160.48 2038.79,160.477 2040.75,160.476 2042.7,160.473 2044.65,160.468 2046.6,160.468 2048.55,160.465 2050.5,160.46 2052.45,160.458 2054.4,160.455 2056.35,160.455 2058.3,160.453 2060.25,160.451 2062.2,160.449 2064.15,160.449 2066.1,160.446 2068.05,160.443 2070,160.442 2071.95,160.437 2073.9,160.435 2075.85,160.434 2077.8,160.433 2079.75,160.432 2081.7,160.431 2083.65,160.428 2085.61,160.428 2087.56,160.428 2089.51,160.428 2091.46,160.428 2093.41,160.425 2095.36,160.424 2097.31,160.423 2099.26,160.423 2101.21,160.423 2103.16,160.421 2105.11,160.42 2107.06,160.42 2109.01,160.418 2110.96,160.418 2112.91,160.418 2114.86,160.417 2116.81,160.417 2118.76,160.417 2120.71,160.417 2122.66,160.417 2124.61,160.417 2126.56,160.416 2128.51,160.415 2130.47,160.414 2132.42,160.414 2134.37,160.413 2136.32,160.412 2138.27,160.412 2140.22,160.411 2142.17,160.411 2144.12,160.411 2146.07,160.408 2148.02,160.407 2149.97,160.407 2151.92,160.406 2153.87,160.406 2155.82,160.406 2157.77,160.404 2159.72,160.403 2161.67,160.403 2163.62,160.401 2165.57,160.399 2167.52,160.395 2169.47,160.393 2171.42,160.392 2173.37,160.391 2175.33,160.39 2177.28,160.383 2179.23,160.383 2181.18,160.38 2183.13,160.379 2185.08,160.377 2187.03,160.372 2188.98,160.37 2190.93,160.369 2192.88,160.364 2194.83,160.362 2196.78,160.359 2198.73,160.356 2200.68,160.355 2202.63,160.353 2204.58,160.351 2206.53,160.345 2208.48,160.341 2210.43,160.341 2212.38,160.34 2214.33,160.34 2216.28,160.338 2218.23,160.334 2220.19,160.33 2222.14,160.328 2224.09,160.326 2226.04,160.322 2227.99,160.322 2229.94,160.32 2231.89,160.319 2233.84,160.312 2235.79,160.311 2237.74,160.31 2239.69,160.303 2241.64,160.296 2243.59,160.296 2245.54,160.292 2247.49,160.285 2249.44,160.284 2251.39,160.284 2253.34,160.281 2255.29,160.279 2257.24,160.279 2259.19,160.274 2261.14,160.273 2263.09,160.272 2265.04,160.271 2267,160.27 2268.95,160.27 2270.9,160.27 2272.85,160.269 2274.8,160.269 2276.75,160.268 2278.7,160.268 2280.65,160.267 2282.6,160.265 2284.55,160.264 2286.5,160.263 2288.45,160.259 2290.4,160.258 2292.35,160.257 2294.3,160.256 "/>
<path clip-path="url(#clip880)" d="M356.212 270.476 L782.357 270.476 L782.357 166.796 L356.212 166.796  Z" fill="#ffffff" fill-rule="evenodd" fill-opacity="1"/>
<polyline clip-path="url(#clip880)" style="stroke:#000000; stroke-linecap:round; stroke-linejoin:round; stroke-width:4; stroke-opacity:1; fill:none" points="356.212,270.476 782.357,270.476 782.357,166.796 356.212,166.796 356.212,270.476 "/>
<polyline clip-path="url(#clip880)" style="stroke:#009af9; stroke-linecap:round; stroke-linejoin:round; stroke-width:4; stroke-opacity:1; fill:none" points="379.161,218.636 516.854,218.636 "/>
<path clip-path="url(#clip880)" d="M562.048 202.49 L562.048 207.05 Q559.386 205.777 557.025 205.152 Q554.663 204.527 552.464 204.527 Q548.645 204.527 546.562 206.008 Q544.502 207.49 544.502 210.221 Q544.502 212.513 545.867 213.694 Q547.256 214.851 551.099 215.569 L553.923 216.147 Q559.154 217.143 561.631 219.666 Q564.131 222.166 564.131 226.379 Q564.131 231.402 560.751 233.994 Q557.395 236.587 550.89 236.587 Q548.437 236.587 545.659 236.031 Q542.904 235.476 539.941 234.388 L539.941 229.573 Q542.789 231.17 545.52 231.981 Q548.251 232.791 550.89 232.791 Q554.895 232.791 557.071 231.217 Q559.247 229.643 559.247 226.726 Q559.247 224.18 557.673 222.744 Q556.122 221.309 552.557 220.592 L549.71 220.036 Q544.478 218.995 542.14 216.772 Q539.802 214.55 539.802 210.592 Q539.802 206.008 543.02 203.37 Q546.261 200.731 551.932 200.731 Q554.363 200.731 556.886 201.171 Q559.409 201.61 562.048 202.49 Z" fill="#000000" fill-rule="nonzero" fill-opacity="1" /><path clip-path="url(#clip880)" d="M571.237 209.99 L575.497 209.99 L575.497 235.916 L571.237 235.916 L571.237 209.99 M571.237 199.897 L575.497 199.897 L575.497 205.291 L571.237 205.291 L571.237 199.897 Z" fill="#000000" fill-rule="nonzero" fill-opacity="1" /><path clip-path="url(#clip880)" d="M604.594 214.967 Q606.191 212.096 608.413 210.731 Q610.635 209.365 613.645 209.365 Q617.696 209.365 619.895 212.212 Q622.094 215.036 622.094 220.268 L622.094 235.916 L617.811 235.916 L617.811 220.407 Q617.811 216.68 616.492 214.874 Q615.172 213.069 612.464 213.069 Q609.154 213.069 607.233 215.268 Q605.311 217.467 605.311 221.263 L605.311 235.916 L601.029 235.916 L601.029 220.407 Q601.029 216.657 599.71 214.874 Q598.39 213.069 595.635 213.069 Q592.372 213.069 590.45 215.291 Q588.529 217.49 588.529 221.263 L588.529 235.916 L584.247 235.916 L584.247 209.99 L588.529 209.99 L588.529 214.018 Q589.987 211.633 592.024 210.499 Q594.061 209.365 596.862 209.365 Q599.686 209.365 601.654 210.8 Q603.645 212.235 604.594 214.967 Z" fill="#000000" fill-rule="nonzero" fill-opacity="1" /><path clip-path="url(#clip880)" d="M630.589 209.99 L634.848 209.99 L634.848 235.916 L630.589 235.916 L630.589 209.99 M630.589 199.897 L634.848 199.897 L634.848 205.291 L630.589 205.291 L630.589 199.897 Z" fill="#000000" fill-rule="nonzero" fill-opacity="1" /><path clip-path="url(#clip880)" d="M643.76 199.897 L648.019 199.897 L648.019 235.916 L643.76 235.916 L643.76 199.897 Z" fill="#000000" fill-rule="nonzero" fill-opacity="1" /><path clip-path="url(#clip880)" d="M668.714 222.883 Q663.552 222.883 661.561 224.064 Q659.57 225.244 659.57 228.092 Q659.57 230.36 661.052 231.703 Q662.556 233.022 665.126 233.022 Q668.668 233.022 670.797 230.522 Q672.95 227.999 672.95 223.832 L672.95 222.883 L668.714 222.883 M677.209 221.124 L677.209 235.916 L672.95 235.916 L672.95 231.981 Q671.492 234.342 669.316 235.476 Q667.14 236.587 663.992 236.587 Q660.01 236.587 657.649 234.365 Q655.311 232.119 655.311 228.369 Q655.311 223.994 658.228 221.772 Q661.168 219.55 666.978 219.55 L672.95 219.55 L672.95 219.133 Q672.95 216.194 671.005 214.596 Q669.084 212.976 665.589 212.976 Q663.367 212.976 661.26 213.508 Q659.154 214.041 657.209 215.106 L657.209 211.17 Q659.547 210.268 661.746 209.828 Q663.945 209.365 666.029 209.365 Q671.654 209.365 674.431 212.282 Q677.209 215.198 677.209 221.124 Z" fill="#000000" fill-rule="nonzero" fill-opacity="1" /><path clip-path="url(#clip880)" d="M701.005 213.971 Q700.288 213.555 699.431 213.37 Q698.598 213.161 697.579 213.161 Q693.968 213.161 692.024 215.522 Q690.103 217.86 690.103 222.258 L690.103 235.916 L685.82 235.916 L685.82 209.99 L690.103 209.99 L690.103 214.018 Q691.445 211.657 693.598 210.522 Q695.751 209.365 698.829 209.365 Q699.269 209.365 699.802 209.434 Q700.334 209.481 700.982 209.596 L701.005 213.971 Z" fill="#000000" fill-rule="nonzero" fill-opacity="1" /><path clip-path="url(#clip880)" d="M705.473 209.99 L709.732 209.99 L709.732 235.916 L705.473 235.916 L705.473 209.99 M705.473 199.897 L709.732 199.897 L709.732 205.291 L705.473 205.291 L705.473 199.897 Z" fill="#000000" fill-rule="nonzero" fill-opacity="1" /><path clip-path="url(#clip880)" d="M722.857 202.629 L722.857 209.99 L731.63 209.99 L731.63 213.3 L722.857 213.3 L722.857 227.374 Q722.857 230.545 723.714 231.448 Q724.593 232.351 727.255 232.351 L731.63 232.351 L731.63 235.916 L727.255 235.916 Q722.325 235.916 720.45 234.087 Q718.575 232.235 718.575 227.374 L718.575 213.3 L715.45 213.3 L715.45 209.99 L718.575 209.99 L718.575 202.629 L722.857 202.629 Z" fill="#000000" fill-rule="nonzero" fill-opacity="1" /><path clip-path="url(#clip880)" d="M748.019 238.323 Q746.213 242.953 744.5 244.365 Q742.787 245.777 739.917 245.777 L736.514 245.777 L736.514 242.212 L739.014 242.212 Q740.774 242.212 741.746 241.379 Q742.718 240.545 743.899 237.443 L744.662 235.499 L734.176 209.99 L738.69 209.99 L746.792 230.268 L754.894 209.99 L759.408 209.99 L748.019 238.323 Z" fill="#000000" fill-rule="nonzero" fill-opacity="1" /></svg>
