<?xml version="1.0" encoding="utf-8"?>
<svg xmlns="http://www.w3.org/2000/svg" xmlns:xlink="http://www.w3.org/1999/xlink" width="600" height="400" viewBox="0 0 2400 1600">
<defs>
  <clipPath id="clip780">
    <rect x="0" y="0" width="2400" height="1600"/>
  </clipPath>
</defs>
<path clip-path="url(#clip780)" d="M0 1600 L2400 1600 L2400 8.88178e-14 L0 8.88178e-14  Z" fill="#ffffff" fill-rule="evenodd" fill-opacity="1"/>
<defs>
  <clipPath id="clip781">
    <rect x="480" y="0" width="1681" height="1600"/>
  </clipPath>
</defs>
<path clip-path="url(#clip780)" d="M257.366 1423.18 L2352.76 1423.18 L2352.76 123.472 L257.366 123.472  Z" fill="#ffffff" fill-rule="evenodd" fill-opacity="1"/>
<defs>
  <clipPath id="clip782">
    <rect x="257" y="123" width="2096" height="1301"/>
  </clipPath>
</defs>
<polyline clip-path="url(#clip782)" style="stroke:#000000; stroke-linecap:round; stroke-linejoin:round; stroke-width:2; stroke-opacity:0.1; fill:none" points="314.691,1423.18 314.691,123.472 "/>
<polyline clip-path="url(#clip782)" style="stroke:#000000; stroke-linecap:round; stroke-linejoin:round; stroke-width:2; stroke-opacity:0.1; fill:none" points="809.381,1423.18 809.381,123.472 "/>
<polyline clip-path="url(#clip782)" style="stroke:#000000; stroke-linecap:round; stroke-linejoin:round; stroke-width:2; stroke-opacity:0.1; fill:none" points="1304.07,1423.18 1304.07,123.472 "/>
<polyline clip-path="url(#clip782)" style="stroke:#000000; stroke-linecap:round; stroke-linejoin:round; stroke-width:2; stroke-opacity:0.1; fill:none" points="1798.76,1423.18 1798.76,123.472 "/>
<polyline clip-path="url(#clip782)" style="stroke:#000000; stroke-linecap:round; stroke-linejoin:round; stroke-width:2; stroke-opacity:0.1; fill:none" points="2293.45,1423.18 2293.45,123.472 "/>
<polyline clip-path="url(#clip780)" style="stroke:#000000; stroke-linecap:round; stroke-linejoin:round; stroke-width:4; stroke-opacity:1; fill:none" points="257.366,1423.18 2352.76,1423.18 "/>
<polyline clip-path="url(#clip780)" style="stroke:#000000; stroke-linecap:round; stroke-linejoin:round; stroke-width:4; stroke-opacity:1; fill:none" points="314.691,1423.18 314.691,1404.28 "/>
<polyline clip-path="url(#clip780)" style="stroke:#000000; stroke-linecap:round; stroke-linejoin:round; stroke-width:4; stroke-opacity:1; fill:none" points="809.381,1423.18 809.381,1404.28 "/>
<polyline clip-path="url(#clip780)" style="stroke:#000000; stroke-linecap:round; stroke-linejoin:round; stroke-width:4; stroke-opacity:1; fill:none" points="1304.07,1423.18 1304.07,1404.28 "/>
<polyline clip-path="url(#clip780)" style="stroke:#000000; stroke-linecap:round; stroke-linejoin:round; stroke-width:4; stroke-opacity:1; fill:none" points="1798.76,1423.18 1798.76,1404.28 "/>
<polyline clip-path="url(#clip780)" style="stroke:#000000; stroke-linecap:round; stroke-linejoin:round; stroke-width:4; stroke-opacity:1; fill:none" points="2293.45,1423.18 2293.45,1404.28 "/>
<path clip-path="url(#clip780)" d="M314.691 1454.1 Q311.08 1454.1 309.251 1457.66 Q307.445 1461.2 307.445 1468.33 Q307.445 1475.44 309.251 1479.01 Q311.08 1482.55 314.691 1482.55 Q318.325 1482.55 320.131 1479.01 Q321.959 1475.44 321.959 1468.33 Q321.959 1461.2 320.131 1457.66 Q318.325 1454.1 314.691 1454.1 M314.691 1450.39 Q320.501 1450.39 323.556 1455 Q326.635 1459.58 326.635 1468.33 Q326.635 1477.06 323.556 1481.67 Q320.501 1486.25 314.691 1486.25 Q308.881 1486.25 305.802 1481.67 Q302.746 1477.06 302.746 1468.33 Q302.746 1459.58 305.802 1455 Q308.881 1450.39 314.691 1450.39 Z" fill="#000000" fill-rule="nonzero" fill-opacity="1" /><path clip-path="url(#clip780)" d="M773.074 1481.64 L789.393 1481.64 L789.393 1485.58 L767.449 1485.58 L767.449 1481.64 Q770.111 1478.89 774.694 1474.26 Q779.3 1469.61 780.481 1468.27 Q782.726 1465.74 783.606 1464.01 Q784.509 1462.25 784.509 1460.56 Q784.509 1457.8 782.564 1456.07 Q780.643 1454.33 777.541 1454.33 Q775.342 1454.33 772.888 1455.09 Q770.458 1455.86 767.68 1457.41 L767.68 1452.69 Q770.504 1451.55 772.958 1450.97 Q775.411 1450.39 777.448 1450.39 Q782.819 1450.39 786.013 1453.08 Q789.208 1455.77 789.208 1460.26 Q789.208 1462.39 788.398 1464.31 Q787.61 1466.2 785.504 1468.8 Q784.925 1469.47 781.823 1472.69 Q778.722 1475.88 773.074 1481.64 Z" fill="#000000" fill-rule="nonzero" fill-opacity="1" /><path clip-path="url(#clip780)" d="M799.254 1451.02 L817.61 1451.02 L817.61 1454.96 L803.536 1454.96 L803.536 1463.43 Q804.555 1463.08 805.573 1462.92 Q806.592 1462.73 807.61 1462.73 Q813.397 1462.73 816.777 1465.9 Q820.157 1469.08 820.157 1474.49 Q820.157 1480.07 816.684 1483.17 Q813.212 1486.25 806.893 1486.25 Q804.717 1486.25 802.448 1485.88 Q800.203 1485.51 797.796 1484.77 L797.796 1480.07 Q799.879 1481.2 802.101 1481.76 Q804.323 1482.32 806.8 1482.32 Q810.805 1482.32 813.143 1480.21 Q815.481 1478.1 815.481 1474.49 Q815.481 1470.88 813.143 1468.77 Q810.805 1466.67 806.8 1466.67 Q804.925 1466.67 803.05 1467.08 Q801.198 1467.5 799.254 1468.38 L799.254 1451.02 Z" fill="#000000" fill-rule="nonzero" fill-opacity="1" /><path clip-path="url(#clip780)" d="M839.369 1454.1 Q835.758 1454.1 833.93 1457.66 Q832.124 1461.2 832.124 1468.33 Q832.124 1475.44 833.93 1479.01 Q835.758 1482.55 839.369 1482.55 Q843.004 1482.55 844.809 1479.01 Q846.638 1475.44 846.638 1468.33 Q846.638 1461.2 844.809 1457.66 Q843.004 1454.1 839.369 1454.1 M839.369 1450.39 Q845.18 1450.39 848.235 1455 Q851.314 1459.58 851.314 1468.33 Q851.314 1477.06 848.235 1481.67 Q845.18 1486.25 839.369 1486.25 Q833.559 1486.25 830.481 1481.67 Q827.425 1477.06 827.425 1468.33 Q827.425 1459.58 830.481 1455 Q833.559 1450.39 839.369 1450.39 Z" fill="#000000" fill-rule="nonzero" fill-opacity="1" /><path clip-path="url(#clip780)" d="M1263.69 1451.02 L1282.05 1451.02 L1282.05 1454.96 L1267.97 1454.96 L1267.97 1463.43 Q1268.99 1463.08 1270.01 1462.92 Q1271.03 1462.73 1272.05 1462.73 Q1277.83 1462.73 1281.21 1465.9 Q1284.59 1469.08 1284.59 1474.49 Q1284.59 1480.07 1281.12 1483.17 Q1277.65 1486.25 1271.33 1486.25 Q1269.15 1486.25 1266.88 1485.88 Q1264.64 1485.51 1262.23 1484.77 L1262.23 1480.07 Q1264.31 1481.2 1266.54 1481.76 Q1268.76 1482.32 1271.24 1482.32 Q1275.24 1482.32 1277.58 1480.21 Q1279.92 1478.1 1279.92 1474.49 Q1279.92 1470.88 1277.58 1468.77 Q1275.24 1466.67 1271.24 1466.67 Q1269.36 1466.67 1267.49 1467.08 Q1265.63 1467.5 1263.69 1468.38 L1263.69 1451.02 Z" fill="#000000" fill-rule="nonzero" fill-opacity="1" /><path clip-path="url(#clip780)" d="M1303.81 1454.1 Q1300.19 1454.1 1298.37 1457.66 Q1296.56 1461.2 1296.56 1468.33 Q1296.56 1475.44 1298.37 1479.01 Q1300.19 1482.55 1303.81 1482.55 Q1307.44 1482.55 1309.25 1479.01 Q1311.07 1475.44 1311.07 1468.33 Q1311.07 1461.2 1309.25 1457.66 Q1307.44 1454.1 1303.81 1454.1 M1303.81 1450.39 Q1309.62 1450.39 1312.67 1455 Q1315.75 1459.58 1315.75 1468.33 Q1315.75 1477.06 1312.67 1481.67 Q1309.62 1486.25 1303.81 1486.25 Q1298 1486.25 1294.92 1481.67 Q1291.86 1477.06 1291.86 1468.33 Q1291.86 1459.58 1294.92 1455 Q1298 1450.39 1303.81 1450.39 Z" fill="#000000" fill-rule="nonzero" fill-opacity="1" /><path clip-path="url(#clip780)" d="M1333.97 1454.1 Q1330.36 1454.1 1328.53 1457.66 Q1326.72 1461.2 1326.72 1468.33 Q1326.72 1475.44 1328.53 1479.01 Q1330.36 1482.55 1333.97 1482.55 Q1337.6 1482.55 1339.41 1479.01 Q1341.24 1475.44 1341.24 1468.33 Q1341.24 1461.2 1339.41 1457.66 Q1337.6 1454.1 1333.97 1454.1 M1333.97 1450.39 Q1339.78 1450.39 1342.83 1455 Q1345.91 1459.58 1345.91 1468.33 Q1345.91 1477.06 1342.83 1481.67 Q1339.78 1486.25 1333.97 1486.25 Q1328.16 1486.25 1325.08 1481.67 Q1322.02 1477.06 1322.02 1468.33 Q1322.02 1459.58 1325.08 1455 Q1328.16 1450.39 1333.97 1450.39 Z" fill="#000000" fill-rule="nonzero" fill-opacity="1" /><path clip-path="url(#clip780)" d="M1757.04 1451.02 L1779.26 1451.02 L1779.26 1453.01 L1766.71 1485.58 L1761.83 1485.58 L1773.63 1454.96 L1757.04 1454.96 L1757.04 1451.02 Z" fill="#000000" fill-rule="nonzero" fill-opacity="1" /><path clip-path="url(#clip780)" d="M1788.43 1451.02 L1806.78 1451.02 L1806.78 1454.96 L1792.71 1454.96 L1792.71 1463.43 Q1793.73 1463.08 1794.75 1462.92 Q1795.76 1462.73 1796.78 1462.73 Q1802.57 1462.73 1805.95 1465.9 Q1809.33 1469.08 1809.33 1474.49 Q1809.33 1480.07 1805.86 1483.17 Q1802.38 1486.25 1796.07 1486.25 Q1793.89 1486.25 1791.62 1485.88 Q1789.38 1485.51 1786.97 1484.77 L1786.97 1480.07 Q1789.05 1481.2 1791.27 1481.76 Q1793.5 1482.32 1795.97 1482.32 Q1799.98 1482.32 1802.32 1480.21 Q1804.65 1478.1 1804.65 1474.49 Q1804.65 1470.88 1802.32 1468.77 Q1799.98 1466.67 1795.97 1466.67 Q1794.1 1466.67 1792.22 1467.08 Q1790.37 1467.5 1788.43 1468.38 L1788.43 1451.02 Z" fill="#000000" fill-rule="nonzero" fill-opacity="1" /><path clip-path="url(#clip780)" d="M1828.54 1454.1 Q1824.93 1454.1 1823.1 1457.66 Q1821.3 1461.2 1821.3 1468.33 Q1821.3 1475.44 1823.1 1479.01 Q1824.93 1482.55 1828.54 1482.55 Q1832.18 1482.55 1833.98 1479.01 Q1835.81 1475.44 1835.81 1468.33 Q1835.81 1461.2 1833.98 1457.66 Q1832.18 1454.1 1828.54 1454.1 M1828.54 1450.39 Q1834.35 1450.39 1837.41 1455 Q1840.49 1459.58 1840.49 1468.33 Q1840.49 1477.06 1837.41 1481.67 Q1834.35 1486.25 1828.54 1486.25 Q1822.73 1486.25 1819.65 1481.67 Q1816.6 1477.06 1816.6 1468.33 Q1816.6 1459.58 1819.65 1455 Q1822.73 1450.39 1828.54 1450.39 Z" fill="#000000" fill-rule="nonzero" fill-opacity="1" /><path clip-path="url(#clip780)" d="M2237.98 1481.64 L2245.62 1481.64 L2245.62 1455.28 L2237.31 1456.95 L2237.31 1452.69 L2245.57 1451.02 L2250.25 1451.02 L2250.25 1481.64 L2257.89 1481.64 L2257.89 1485.58 L2237.98 1485.58 L2237.98 1481.64 Z" fill="#000000" fill-rule="nonzero" fill-opacity="1" /><path clip-path="url(#clip780)" d="M2277.33 1454.1 Q2273.72 1454.1 2271.89 1457.66 Q2270.08 1461.2 2270.08 1468.33 Q2270.08 1475.44 2271.89 1479.01 Q2273.72 1482.55 2277.33 1482.55 Q2280.96 1482.55 2282.77 1479.01 Q2284.6 1475.44 2284.6 1468.33 Q2284.6 1461.2 2282.77 1457.66 Q2280.96 1454.1 2277.33 1454.1 M2277.33 1450.39 Q2283.14 1450.39 2286.2 1455 Q2289.27 1459.58 2289.27 1468.33 Q2289.27 1477.06 2286.2 1481.67 Q2283.14 1486.25 2277.33 1486.25 Q2271.52 1486.25 2268.44 1481.67 Q2265.39 1477.06 2265.39 1468.33 Q2265.39 1459.58 2268.44 1455 Q2271.52 1450.39 2277.33 1450.39 Z" fill="#000000" fill-rule="nonzero" fill-opacity="1" /><path clip-path="url(#clip780)" d="M2307.49 1454.1 Q2303.88 1454.1 2302.05 1457.66 Q2300.25 1461.2 2300.25 1468.33 Q2300.25 1475.44 2302.05 1479.01 Q2303.88 1482.55 2307.49 1482.55 Q2311.13 1482.55 2312.93 1479.01 Q2314.76 1475.44 2314.76 1468.33 Q2314.76 1461.2 2312.93 1457.66 Q2311.13 1454.1 2307.49 1454.1 M2307.49 1450.39 Q2313.3 1450.39 2316.36 1455 Q2319.44 1459.58 2319.44 1468.33 Q2319.44 1477.06 2316.36 1481.67 Q2313.3 1486.25 2307.49 1486.25 Q2301.68 1486.25 2298.6 1481.67 Q2295.55 1477.06 2295.55 1468.33 Q2295.55 1459.58 2298.6 1455 Q2301.68 1450.39 2307.49 1450.39 Z" fill="#000000" fill-rule="nonzero" fill-opacity="1" /><path clip-path="url(#clip780)" d="M2337.65 1454.1 Q2334.04 1454.1 2332.21 1457.66 Q2330.41 1461.2 2330.41 1468.33 Q2330.41 1475.44 2332.21 1479.01 Q2334.04 1482.55 2337.65 1482.55 Q2341.29 1482.55 2343.09 1479.01 Q2344.92 1475.44 2344.92 1468.33 Q2344.92 1461.2 2343.09 1457.66 Q2341.29 1454.1 2337.65 1454.1 M2337.65 1450.39 Q2343.46 1450.39 2346.52 1455 Q2349.6 1459.58 2349.6 1468.33 Q2349.6 1477.06 2346.52 1481.67 Q2343.46 1486.25 2337.65 1486.25 Q2331.84 1486.25 2328.76 1481.67 Q2325.71 1477.06 2325.71 1468.33 Q2325.71 1459.58 2328.76 1455 Q2331.84 1450.39 2337.65 1450.39 Z" fill="#000000" fill-rule="nonzero" fill-opacity="1" /><path clip-path="url(#clip780)" d="M1268.9 1524.18 L1268.9 1530.96 Q1265.66 1527.94 1261.97 1526.44 Q1258.3 1524.95 1254.17 1524.95 Q1246.02 1524.95 1241.69 1529.95 Q1237.36 1534.91 1237.36 1544.33 Q1237.36 1553.72 1241.69 1558.72 Q1246.02 1563.68 1254.17 1563.68 Q1258.3 1563.68 1261.97 1562.19 Q1265.66 1560.69 1268.9 1557.67 L1268.9 1564.38 Q1265.53 1566.68 1261.74 1567.82 Q1257.99 1568.97 1253.79 1568.97 Q1243 1568.97 1236.79 1562.38 Q1230.58 1555.76 1230.58 1544.33 Q1230.58 1532.87 1236.79 1526.28 Q1243 1519.66 1253.79 1519.66 Q1258.05 1519.66 1261.81 1520.81 Q1265.59 1521.92 1268.9 1524.18 Z" fill="#000000" fill-rule="nonzero" fill-opacity="1" /><path clip-path="url(#clip780)" d="M1309.07 1548.76 L1309.07 1551.62 L1282.14 1551.62 Q1282.53 1557.67 1285.77 1560.85 Q1289.05 1564 1294.88 1564 Q1298.25 1564 1301.4 1563.17 Q1304.58 1562.35 1307.7 1560.69 L1307.7 1566.23 Q1304.55 1567.57 1301.24 1568.27 Q1297.93 1568.97 1294.53 1568.97 Q1286 1568.97 1281 1564 Q1276.03 1559.04 1276.03 1550.57 Q1276.03 1541.82 1280.74 1536.69 Q1285.49 1531.54 1293.51 1531.54 Q1300.7 1531.54 1304.87 1536.18 Q1309.07 1540.8 1309.07 1548.76 M1303.21 1547.04 Q1303.15 1542.23 1300.51 1539.37 Q1297.9 1536.5 1293.57 1536.5 Q1288.67 1536.5 1285.71 1539.27 Q1282.78 1542.04 1282.34 1547.07 L1303.21 1547.04 Z" fill="#000000" fill-rule="nonzero" fill-opacity="1" /><path clip-path="url(#clip780)" d="M1318.68 1518.52 L1324.54 1518.52 L1324.54 1568.04 L1318.68 1568.04 L1318.68 1518.52 Z" fill="#000000" fill-rule="nonzero" fill-opacity="1" /><path clip-path="url(#clip780)" d="M1336.79 1518.52 L1342.65 1518.52 L1342.65 1568.04 L1336.79 1568.04 L1336.79 1518.52 Z" fill="#000000" fill-rule="nonzero" fill-opacity="1" /><path clip-path="url(#clip780)" d="M1377.63 1533.45 L1377.63 1538.98 Q1375.15 1537.71 1372.47 1537.07 Q1369.8 1536.44 1366.94 1536.44 Q1362.58 1536.44 1360.38 1537.77 Q1358.21 1539.11 1358.21 1541.79 Q1358.21 1543.82 1359.77 1545 Q1361.33 1546.15 1366.04 1547.2 L1368.05 1547.64 Q1374.29 1548.98 1376.9 1551.43 Q1379.54 1553.85 1379.54 1558.21 Q1379.54 1563.17 1375.59 1566.07 Q1371.68 1568.97 1364.8 1568.97 Q1361.94 1568.97 1358.82 1568.39 Q1355.73 1567.85 1352.29 1566.74 L1352.29 1560.69 Q1355.54 1562.38 1358.69 1563.24 Q1361.84 1564.07 1364.93 1564.07 Q1369.07 1564.07 1371.3 1562.66 Q1373.52 1561.23 1373.52 1558.65 Q1373.52 1556.27 1371.9 1554.99 Q1370.31 1553.72 1364.87 1552.54 L1362.83 1552.07 Q1357.39 1550.92 1354.97 1548.56 Q1352.55 1546.18 1352.55 1542.04 Q1352.55 1537.01 1356.11 1534.27 Q1359.68 1531.54 1366.24 1531.54 Q1369.48 1531.54 1372.35 1532.01 Q1375.21 1532.49 1377.63 1533.45 Z" fill="#000000" fill-rule="nonzero" fill-opacity="1" /><polyline clip-path="url(#clip782)" style="stroke:#000000; stroke-linecap:round; stroke-linejoin:round; stroke-width:2; stroke-opacity:0.1; fill:none" points="257.366,1416.46 2352.76,1416.46 "/>
<polyline clip-path="url(#clip782)" style="stroke:#000000; stroke-linecap:round; stroke-linejoin:round; stroke-width:2; stroke-opacity:0.1; fill:none" points="257.366,1157.45 2352.76,1157.45 "/>
<polyline clip-path="url(#clip782)" style="stroke:#000000; stroke-linecap:round; stroke-linejoin:round; stroke-width:2; stroke-opacity:0.1; fill:none" points="257.366,898.437 2352.76,898.437 "/>
<polyline clip-path="url(#clip782)" style="stroke:#000000; stroke-linecap:round; stroke-linejoin:round; stroke-width:2; stroke-opacity:0.1; fill:none" points="257.366,639.425 2352.76,639.425 "/>
<polyline clip-path="url(#clip782)" style="stroke:#000000; stroke-linecap:round; stroke-linejoin:round; stroke-width:2; stroke-opacity:0.1; fill:none" points="257.366,380.413 2352.76,380.413 "/>
<polyline clip-path="url(#clip780)" style="stroke:#000000; stroke-linecap:round; stroke-linejoin:round; stroke-width:4; stroke-opacity:1; fill:none" points="257.366,1423.18 257.366,123.472 "/>
<polyline clip-path="url(#clip780)" style="stroke:#000000; stroke-linecap:round; stroke-linejoin:round; stroke-width:4; stroke-opacity:1; fill:none" points="257.366,1416.46 276.264,1416.46 "/>
<polyline clip-path="url(#clip780)" style="stroke:#000000; stroke-linecap:round; stroke-linejoin:round; stroke-width:4; stroke-opacity:1; fill:none" points="257.366,1157.45 276.264,1157.45 "/>
<polyline clip-path="url(#clip780)" style="stroke:#000000; stroke-linecap:round; stroke-linejoin:round; stroke-width:4; stroke-opacity:1; fill:none" points="257.366,898.437 276.264,898.437 "/>
<polyline clip-path="url(#clip780)" style="stroke:#000000; stroke-linecap:round; stroke-linejoin:round; stroke-width:4; stroke-opacity:1; fill:none" points="257.366,639.425 276.264,639.425 "/>
<polyline clip-path="url(#clip780)" style="stroke:#000000; stroke-linecap:round; stroke-linejoin:round; stroke-width:4; stroke-opacity:1; fill:none" points="257.366,380.413 276.264,380.413 "/>
<path clip-path="url(#clip780)" d="M114.26 1416.91 L143.936 1416.91 L143.936 1420.85 L114.26 1420.85 L114.26 1416.91 Z" fill="#000000" fill-rule="nonzero" fill-opacity="1" /><path clip-path="url(#clip780)" d="M164.028 1402.26 Q160.417 1402.26 158.589 1405.82 Q156.783 1409.37 156.783 1416.5 Q156.783 1423.6 158.589 1427.17 Q160.417 1430.71 164.028 1430.71 Q167.663 1430.71 169.468 1427.17 Q171.297 1423.6 171.297 1416.5 Q171.297 1409.37 169.468 1405.82 Q167.663 1402.26 164.028 1402.26 M164.028 1398.56 Q169.839 1398.56 172.894 1403.16 Q175.973 1407.75 175.973 1416.5 Q175.973 1425.22 172.894 1429.83 Q169.839 1434.41 164.028 1434.41 Q158.218 1434.41 155.14 1429.83 Q152.084 1425.22 152.084 1416.5 Q152.084 1407.75 155.14 1403.16 Q158.218 1398.56 164.028 1398.56 Z" fill="#000000" fill-rule="nonzero" fill-opacity="1" /><path clip-path="url(#clip780)" d="M184.19 1427.86 L189.075 1427.86 L189.075 1433.74 L184.19 1433.74 L184.19 1427.86 Z" fill="#000000" fill-rule="nonzero" fill-opacity="1" /><path clip-path="url(#clip780)" d="M209.838 1414.6 Q206.69 1414.6 204.838 1416.75 Q203.01 1418.9 203.01 1422.65 Q203.01 1426.38 204.838 1428.56 Q206.69 1430.71 209.838 1430.71 Q212.986 1430.71 214.815 1428.56 Q216.667 1426.38 216.667 1422.65 Q216.667 1418.9 214.815 1416.75 Q212.986 1414.6 209.838 1414.6 M219.121 1399.95 L219.121 1404.2 Q217.361 1403.37 215.556 1402.93 Q213.774 1402.49 212.014 1402.49 Q207.385 1402.49 204.931 1405.62 Q202.5 1408.74 202.153 1415.06 Q203.519 1413.05 205.579 1411.98 Q207.639 1410.89 210.116 1410.89 Q215.324 1410.89 218.334 1414.07 Q221.366 1417.21 221.366 1422.65 Q221.366 1427.98 218.218 1431.19 Q215.07 1434.41 209.838 1434.41 Q203.843 1434.41 200.672 1429.83 Q197.5 1425.22 197.5 1416.5 Q197.5 1408.3 201.389 1403.44 Q205.278 1398.56 211.829 1398.56 Q213.588 1398.56 215.371 1398.9 Q217.176 1399.25 219.121 1399.95 Z" fill="#000000" fill-rule="nonzero" fill-opacity="1" /><path clip-path="url(#clip780)" d="M115.07 1157.9 L144.746 1157.9 L144.746 1161.84 L115.07 1161.84 L115.07 1157.9 Z" fill="#000000" fill-rule="nonzero" fill-opacity="1" /><path clip-path="url(#clip780)" d="M164.839 1143.25 Q161.227 1143.25 159.399 1146.81 Q157.593 1150.35 157.593 1157.48 Q157.593 1164.59 159.399 1168.16 Q161.227 1171.7 164.839 1171.7 Q168.473 1171.7 170.278 1168.16 Q172.107 1164.59 172.107 1157.48 Q172.107 1150.35 170.278 1146.81 Q168.473 1143.25 164.839 1143.25 M164.839 1139.54 Q170.649 1139.54 173.704 1144.15 Q176.783 1148.73 176.783 1157.48 Q176.783 1166.21 173.704 1170.82 Q170.649 1175.4 164.839 1175.4 Q159.028 1175.4 155.95 1170.82 Q152.894 1166.21 152.894 1157.48 Q152.894 1148.73 155.95 1144.15 Q159.028 1139.54 164.839 1139.54 Z" fill="#000000" fill-rule="nonzero" fill-opacity="1" /><path clip-path="url(#clip780)" d="M185.001 1168.85 L189.885 1168.85 L189.885 1174.73 L185.001 1174.73 L185.001 1168.85 Z" fill="#000000" fill-rule="nonzero" fill-opacity="1" /><path clip-path="url(#clip780)" d="M214.236 1156.1 Q217.593 1156.81 219.468 1159.08 Q221.366 1161.35 221.366 1164.68 Q221.366 1169.8 217.848 1172.6 Q214.329 1175.4 207.848 1175.4 Q205.672 1175.4 203.357 1174.96 Q201.065 1174.54 198.612 1173.69 L198.612 1169.17 Q200.556 1170.31 202.871 1170.89 Q205.186 1171.47 207.709 1171.47 Q212.107 1171.47 214.399 1169.73 Q216.713 1167.99 216.713 1164.68 Q216.713 1161.63 214.561 1159.91 Q212.431 1158.18 208.612 1158.18 L204.584 1158.18 L204.584 1154.34 L208.797 1154.34 Q212.246 1154.34 214.074 1152.97 Q215.903 1151.58 215.903 1148.99 Q215.903 1146.33 214.005 1144.91 Q212.13 1143.48 208.612 1143.48 Q206.69 1143.48 204.491 1143.9 Q202.292 1144.31 199.653 1145.19 L199.653 1141.03 Q202.315 1140.28 204.63 1139.91 Q206.968 1139.54 209.028 1139.54 Q214.352 1139.54 217.454 1141.97 Q220.556 1144.38 220.556 1148.5 Q220.556 1151.37 218.912 1153.36 Q217.269 1155.33 214.236 1156.1 Z" fill="#000000" fill-rule="nonzero" fill-opacity="1" /><path clip-path="url(#clip780)" d="M164.19 884.236 Q160.579 884.236 158.751 887.801 Q156.945 891.342 156.945 898.472 Q156.945 905.578 158.751 909.143 Q160.579 912.685 164.19 912.685 Q167.825 912.685 169.63 909.143 Q171.459 905.578 171.459 898.472 Q171.459 891.342 169.63 887.801 Q167.825 884.236 164.19 884.236 M164.19 880.532 Q170.001 880.532 173.056 885.139 Q176.135 889.722 176.135 898.472 Q176.135 907.199 173.056 911.805 Q170.001 916.389 164.19 916.389 Q158.38 916.389 155.302 911.805 Q152.246 907.199 152.246 898.472 Q152.246 889.722 155.302 885.139 Q158.38 880.532 164.19 880.532 Z" fill="#000000" fill-rule="nonzero" fill-opacity="1" /><path clip-path="url(#clip780)" d="M184.352 909.838 L189.237 909.838 L189.237 915.717 L184.352 915.717 L184.352 909.838 Z" fill="#000000" fill-rule="nonzero" fill-opacity="1" /><path clip-path="url(#clip780)" d="M209.422 884.236 Q205.811 884.236 203.982 887.801 Q202.176 891.342 202.176 898.472 Q202.176 905.578 203.982 909.143 Q205.811 912.685 209.422 912.685 Q213.056 912.685 214.861 909.143 Q216.69 905.578 216.69 898.472 Q216.69 891.342 214.861 887.801 Q213.056 884.236 209.422 884.236 M209.422 880.532 Q215.232 880.532 218.287 885.139 Q221.366 889.722 221.366 898.472 Q221.366 907.199 218.287 911.805 Q215.232 916.389 209.422 916.389 Q203.612 916.389 200.533 911.805 Q197.477 907.199 197.477 898.472 Q197.477 889.722 200.533 885.139 Q203.612 880.532 209.422 880.532 Z" fill="#000000" fill-rule="nonzero" fill-opacity="1" /><path clip-path="url(#clip780)" d="M164.839 625.224 Q161.227 625.224 159.399 628.789 Q157.593 632.33 157.593 639.46 Q157.593 646.566 159.399 650.131 Q161.227 653.673 164.839 653.673 Q168.473 653.673 170.278 650.131 Q172.107 646.566 172.107 639.46 Q172.107 632.33 170.278 628.789 Q168.473 625.224 164.839 625.224 M164.839 621.52 Q170.649 621.52 173.704 626.127 Q176.783 630.71 176.783 639.46 Q176.783 648.187 173.704 652.793 Q170.649 657.377 164.839 657.377 Q159.028 657.377 155.95 652.793 Q152.894 648.187 152.894 639.46 Q152.894 630.71 155.95 626.127 Q159.028 621.52 164.839 621.52 Z" fill="#000000" fill-rule="nonzero" fill-opacity="1" /><path clip-path="url(#clip780)" d="M185.001 650.826 L189.885 650.826 L189.885 656.705 L185.001 656.705 L185.001 650.826 Z" fill="#000000" fill-rule="nonzero" fill-opacity="1" /><path clip-path="url(#clip780)" d="M214.236 638.071 Q217.593 638.789 219.468 641.057 Q221.366 643.326 221.366 646.659 Q221.366 651.775 217.848 654.576 Q214.329 657.377 207.848 657.377 Q205.672 657.377 203.357 656.937 Q201.065 656.52 198.612 655.664 L198.612 651.15 Q200.556 652.284 202.871 652.863 Q205.186 653.441 207.709 653.441 Q212.107 653.441 214.399 651.705 Q216.713 649.969 216.713 646.659 Q216.713 643.604 214.561 641.891 Q212.431 640.154 208.612 640.154 L204.584 640.154 L204.584 636.312 L208.797 636.312 Q212.246 636.312 214.074 634.946 Q215.903 633.557 215.903 630.965 Q215.903 628.303 214.005 626.891 Q212.13 625.455 208.612 625.455 Q206.69 625.455 204.491 625.872 Q202.292 626.289 199.653 627.168 L199.653 623.002 Q202.315 622.261 204.63 621.891 Q206.968 621.52 209.028 621.52 Q214.352 621.52 217.454 623.951 Q220.556 626.358 220.556 630.479 Q220.556 633.349 218.912 635.34 Q217.269 637.307 214.236 638.071 Z" fill="#000000" fill-rule="nonzero" fill-opacity="1" /><path clip-path="url(#clip780)" d="M164.028 366.212 Q160.417 366.212 158.589 369.777 Q156.783 373.318 156.783 380.448 Q156.783 387.555 158.589 391.119 Q160.417 394.661 164.028 394.661 Q167.663 394.661 169.468 391.119 Q171.297 387.555 171.297 380.448 Q171.297 373.318 169.468 369.777 Q167.663 366.212 164.028 366.212 M164.028 362.508 Q169.839 362.508 172.894 367.115 Q175.973 371.698 175.973 380.448 Q175.973 389.175 172.894 393.781 Q169.839 398.365 164.028 398.365 Q158.218 398.365 155.14 393.781 Q152.084 389.175 152.084 380.448 Q152.084 371.698 155.14 367.115 Q158.218 362.508 164.028 362.508 Z" fill="#000000" fill-rule="nonzero" fill-opacity="1" /><path clip-path="url(#clip780)" d="M184.19 391.814 L189.075 391.814 L189.075 397.693 L184.19 397.693 L184.19 391.814 Z" fill="#000000" fill-rule="nonzero" fill-opacity="1" /><path clip-path="url(#clip780)" d="M209.838 378.55 Q206.69 378.55 204.838 380.703 Q203.01 382.855 203.01 386.605 Q203.01 390.332 204.838 392.508 Q206.69 394.661 209.838 394.661 Q212.986 394.661 214.815 392.508 Q216.667 390.332 216.667 386.605 Q216.667 382.855 214.815 380.703 Q212.986 378.55 209.838 378.55 M219.121 363.897 L219.121 368.156 Q217.361 367.323 215.556 366.883 Q213.774 366.444 212.014 366.444 Q207.385 366.444 204.931 369.569 Q202.5 372.693 202.153 379.013 Q203.519 376.999 205.579 375.934 Q207.639 374.846 210.116 374.846 Q215.324 374.846 218.334 378.018 Q221.366 381.166 221.366 386.605 Q221.366 391.929 218.218 395.147 Q215.07 398.365 209.838 398.365 Q203.843 398.365 200.672 393.781 Q197.5 389.175 197.5 380.448 Q197.5 372.254 201.389 367.393 Q205.278 362.508 211.829 362.508 Q213.588 362.508 215.371 362.856 Q217.176 363.203 219.121 363.897 Z" fill="#000000" fill-rule="nonzero" fill-opacity="1" /><path clip-path="url(#clip780)" d="M18.0438 893.717 L24.314 893.717 Q22.5634 897.378 21.704 900.624 Q20.8447 903.871 20.8447 906.894 Q20.8447 912.146 22.8817 915.011 Q24.9187 917.843 28.6745 917.843 Q31.8255 917.843 33.4488 915.966 Q35.0402 914.056 36.0269 908.772 L36.8226 904.889 Q38.1912 897.696 41.6605 894.29 Q45.098 890.853 50.8908 890.853 Q57.7976 890.853 61.3624 895.5 Q64.9272 900.115 64.9272 909.059 Q64.9272 912.433 64.1633 916.252 Q63.3994 920.04 61.9035 924.114 L55.2831 924.114 Q57.4793 920.199 58.5933 916.443 Q59.7073 912.687 59.7073 909.059 Q59.7073 903.552 57.543 900.561 Q55.3786 897.569 51.3682 897.569 Q47.8671 897.569 45.8937 899.733 Q43.9204 901.866 42.9337 906.767 L42.1698 910.682 Q40.7375 917.875 37.682 921.09 Q34.6264 924.305 29.1837 924.305 Q22.8817 924.305 19.2532 919.88 Q15.6248 915.424 15.6248 907.626 Q15.6248 904.284 16.2295 900.815 Q16.8343 897.346 18.0438 893.717 Z" fill="#000000" fill-rule="nonzero" fill-opacity="1" /><path clip-path="url(#clip780)" d="M28.3562 881.081 L28.3562 875.225 L64.0042 875.225 L64.0042 881.081 L28.3562 881.081 M14.479 881.081 L14.479 875.225 L21.895 875.225 L21.895 881.081 L14.479 881.081 Z" fill="#000000" fill-rule="nonzero" fill-opacity="1" /><path clip-path="url(#clip780)" d="M35.1993 835.217 Q31.2526 833.02 29.3747 829.965 Q27.4968 826.909 27.4968 822.772 Q27.4968 817.202 31.4117 814.178 Q35.2948 811.154 42.4881 811.154 L64.0042 811.154 L64.0042 817.042 L42.679 817.042 Q37.5546 817.042 35.072 818.857 Q32.5894 820.671 32.5894 824.395 Q32.5894 828.946 35.6131 831.588 Q38.6368 834.23 43.8567 834.23 L64.0042 834.23 L64.0042 840.118 L42.679 840.118 Q37.5228 840.118 35.072 841.932 Q32.5894 843.747 32.5894 847.534 Q32.5894 852.022 35.6449 854.664 Q38.6686 857.306 43.8567 857.306 L64.0042 857.306 L64.0042 863.194 L28.3562 863.194 L28.3562 857.306 L33.8944 857.306 Q30.616 855.3 29.0564 852.499 Q27.4968 849.699 27.4968 845.847 Q27.4968 841.964 29.4702 839.259 Q31.4436 836.522 35.1993 835.217 Z" fill="#000000" fill-rule="nonzero" fill-opacity="1" /><path clip-path="url(#clip780)" d="M28.3562 799.473 L28.3562 793.617 L64.0042 793.617 L64.0042 799.473 L28.3562 799.473 M14.479 799.473 L14.479 793.617 L21.895 793.617 L21.895 799.473 L14.479 799.473 Z" fill="#000000" fill-rule="nonzero" fill-opacity="1" /><path clip-path="url(#clip780)" d="M14.479 781.363 L14.479 775.506 L64.0042 775.506 L64.0042 781.363 L14.479 781.363 Z" fill="#000000" fill-rule="nonzero" fill-opacity="1" /><path clip-path="url(#clip780)" d="M46.0847 747.052 Q46.0847 754.149 47.7079 756.887 Q49.3312 759.624 53.2461 759.624 Q56.3653 759.624 58.2114 757.587 Q60.0256 755.518 60.0256 751.985 Q60.0256 747.115 56.5881 744.187 Q53.1188 741.227 47.3897 741.227 L46.0847 741.227 L46.0847 747.052 M43.6657 735.37 L64.0042 735.37 L64.0042 741.227 L58.5933 741.227 Q61.8398 743.232 63.3994 746.224 Q64.9272 749.216 64.9272 753.545 Q64.9272 759.019 61.8716 762.266 Q58.7843 765.48 53.6281 765.48 Q47.6125 765.48 44.5569 761.47 Q41.5014 757.428 41.5014 749.439 L41.5014 741.227 L40.9285 741.227 Q36.8862 741.227 34.6901 743.901 Q32.4621 746.542 32.4621 751.348 Q32.4621 754.404 33.1941 757.3 Q33.9262 760.197 35.3903 762.87 L29.9795 762.87 Q28.7381 759.656 28.1334 756.632 Q27.4968 753.608 27.4968 750.744 Q27.4968 743.009 31.5072 739.19 Q35.5176 735.37 43.6657 735.37 Z" fill="#000000" fill-rule="nonzero" fill-opacity="1" /><path clip-path="url(#clip780)" d="M33.8307 702.651 Q33.2578 703.637 33.0032 704.815 Q32.7167 705.961 32.7167 707.361 Q32.7167 712.327 35.9632 715 Q39.1779 717.642 45.2253 717.642 L64.0042 717.642 L64.0042 723.53 L28.3562 723.53 L28.3562 717.642 L33.8944 717.642 Q30.6479 715.796 29.0883 712.836 Q27.4968 709.876 27.4968 705.643 Q27.4968 705.038 27.5923 704.306 Q27.656 703.574 27.8151 702.683 L33.8307 702.651 Z" fill="#000000" fill-rule="nonzero" fill-opacity="1" /><path clip-path="url(#clip780)" d="M28.3562 696.508 L28.3562 690.651 L64.0042 690.651 L64.0042 696.508 L28.3562 696.508 M14.479 696.508 L14.479 690.651 L21.895 690.651 L21.895 696.508 L14.479 696.508 Z" fill="#000000" fill-rule="nonzero" fill-opacity="1" /><path clip-path="url(#clip780)" d="M18.2347 672.605 L28.3562 672.605 L28.3562 660.542 L32.9077 660.542 L32.9077 672.605 L52.2594 672.605 Q56.6199 672.605 57.8613 671.427 Q59.1026 670.217 59.1026 666.557 L59.1026 660.542 L64.0042 660.542 L64.0042 666.557 Q64.0042 673.337 61.4897 675.915 Q58.9434 678.493 52.2594 678.493 L32.9077 678.493 L32.9077 682.79 L28.3562 682.79 L28.3562 678.493 L18.2347 678.493 L18.2347 672.605 Z" fill="#000000" fill-rule="nonzero" fill-opacity="1" /><path clip-path="url(#clip780)" d="M67.3143 638.007 Q73.68 640.49 75.6216 642.845 Q77.5631 645.2 77.5631 649.147 L77.5631 653.826 L72.6615 653.826 L72.6615 650.388 Q72.6615 647.969 71.5157 646.633 Q70.3699 645.296 66.1048 643.672 L63.4312 642.622 L28.3562 657.04 L28.3562 650.834 L56.238 639.694 L28.3562 628.554 L28.3562 622.347 L67.3143 638.007 Z" fill="#000000" fill-rule="nonzero" fill-opacity="1" /><path clip-path="url(#clip780)" d="M396.261 14.0809 L396.261 22.0612 Q391.602 19.8332 387.47 18.7395 Q383.338 17.6457 379.49 17.6457 Q372.806 17.6457 369.16 20.2383 Q365.555 22.8309 365.555 27.611 Q365.555 31.6214 367.945 33.6873 Q370.376 35.7128 377.1 36.9686 L382.042 37.9813 Q391.197 39.7232 395.532 44.1387 Q399.907 48.5136 399.907 55.8863 Q399.907 64.6767 393.992 69.2137 Q388.119 73.7508 376.736 73.7508 Q372.442 73.7508 367.58 72.7785 Q362.76 71.8063 357.575 69.9024 L357.575 61.4765 Q362.557 64.2716 367.337 65.6895 Q372.117 67.1073 376.736 67.1073 Q383.744 67.1073 387.551 64.3527 Q391.359 61.598 391.359 56.4939 Q391.359 52.0379 388.605 49.5264 Q385.891 47.0148 379.652 45.759 L374.67 44.7868 Q365.515 42.9639 361.423 39.075 Q357.332 35.1862 357.332 28.2591 Q357.332 20.2383 362.962 15.6203 Q368.634 11.0023 378.558 11.0023 Q382.812 11.0023 387.227 11.7719 Q391.643 12.5416 396.261 14.0809 Z" fill="#000000" fill-rule="nonzero" fill-opacity="1" /><path clip-path="url(#clip780)" d="M429.924 32.4315 Q423.929 32.4315 420.445 37.1306 Q416.961 41.7891 416.961 49.9314 Q416.961 58.0738 420.404 62.7728 Q423.888 67.4314 429.924 67.4314 Q435.879 67.4314 439.362 62.7323 Q442.846 58.0333 442.846 49.9314 Q442.846 41.8701 439.362 37.1711 Q435.879 32.4315 429.924 32.4315 M429.924 26.1121 Q439.646 26.1121 445.196 32.4315 Q450.746 38.7509 450.746 49.9314 Q450.746 61.0714 445.196 67.4314 Q439.646 73.7508 429.924 73.7508 Q420.161 73.7508 414.611 67.4314 Q409.102 61.0714 409.102 49.9314 Q409.102 38.7509 414.611 32.4315 Q420.161 26.1121 429.924 26.1121 Z" fill="#000000" fill-rule="nonzero" fill-opacity="1" /><path clip-path="url(#clip780)" d="M489.391 34.1734 Q488.135 33.4443 486.637 33.1202 Q485.178 32.7556 483.396 32.7556 Q477.076 32.7556 473.674 36.8875 Q470.311 40.9789 470.311 48.6757 L470.311 72.576 L462.817 72.576 L462.817 27.2059 L470.311 27.2059 L470.311 34.2544 Q472.661 30.1225 476.428 28.1376 Q480.196 26.1121 485.583 26.1121 Q486.353 26.1121 487.285 26.2337 Q488.216 26.3147 489.351 26.5172 L489.391 34.1734 Z" fill="#000000" fill-rule="nonzero" fill-opacity="1" /><path clip-path="url(#clip780)" d="M504.582 14.324 L504.582 27.2059 L519.935 27.2059 L519.935 32.9987 L504.582 32.9987 L504.582 57.6282 Q504.582 63.1779 506.081 64.7578 Q507.62 66.3376 512.279 66.3376 L519.935 66.3376 L519.935 72.576 L512.279 72.576 Q503.65 72.576 500.369 69.3758 Q497.088 66.1351 497.088 57.6282 L497.088 32.9987 L491.619 32.9987 L491.619 27.2059 L497.088 27.2059 L497.088 14.324 L504.582 14.324 Z" fill="#000000" fill-rule="nonzero" fill-opacity="1" /><path clip-path="url(#clip780)" d="M568.546 48.0275 L568.546 51.6733 L534.275 51.6733 Q534.761 59.3701 538.893 63.421 Q543.066 67.4314 550.479 67.4314 Q554.773 67.4314 558.783 66.3781 Q562.834 65.3249 566.804 63.2184 L566.804 70.267 Q562.794 71.9684 558.581 72.8596 Q554.368 73.7508 550.033 73.7508 Q539.177 73.7508 532.817 67.4314 Q526.497 61.1119 526.497 50.3365 Q526.497 39.1965 532.493 32.6746 Q538.529 26.1121 548.737 26.1121 Q557.892 26.1121 563.199 32.0264 Q568.546 37.9003 568.546 48.0275 M561.092 45.84 Q561.011 39.7232 557.649 36.0774 Q554.327 32.4315 548.818 32.4315 Q542.58 32.4315 538.812 35.9558 Q535.085 39.4801 534.518 45.8805 L561.092 45.84 Z" fill="#000000" fill-rule="nonzero" fill-opacity="1" /><path clip-path="url(#clip780)" d="M610.635 34.0924 L610.635 9.54393 L618.088 9.54393 L618.088 72.576 L610.635 72.576 L610.635 65.7705 Q608.285 69.8214 604.68 71.8063 Q601.115 73.7508 596.092 73.7508 Q587.869 73.7508 582.683 67.1883 Q577.539 60.6258 577.539 49.9314 Q577.539 39.2371 582.683 32.6746 Q587.869 26.1121 596.092 26.1121 Q601.115 26.1121 604.68 28.0971 Q608.285 30.0415 610.635 34.0924 M585.236 49.9314 Q585.236 58.1548 588.598 62.8538 Q592.001 67.5124 597.915 67.5124 Q603.829 67.5124 607.232 62.8538 Q610.635 58.1548 610.635 49.9314 Q610.635 41.7081 607.232 37.0496 Q603.829 32.3505 597.915 32.3505 Q592.001 32.3505 588.598 37.0496 Q585.236 41.7081 585.236 49.9314 Z" fill="#000000" fill-rule="nonzero" fill-opacity="1" /><path clip-path="url(#clip780)" d="M692.463 28.9478 L692.463 35.9153 Q689.303 34.1734 686.103 33.3227 Q682.943 32.4315 679.703 32.4315 Q672.452 32.4315 668.441 37.0496 Q664.431 41.6271 664.431 49.9314 Q664.431 58.2358 668.441 62.8538 Q672.452 67.4314 679.703 67.4314 Q682.943 67.4314 686.103 66.5807 Q689.303 65.6895 692.463 63.9476 L692.463 70.8341 Q689.344 72.2924 685.982 73.0216 Q682.66 73.7508 678.892 73.7508 Q668.644 73.7508 662.608 67.3098 Q656.572 60.8689 656.572 49.9314 Q656.572 38.832 662.648 32.472 Q668.765 26.1121 679.379 26.1121 Q682.822 26.1121 686.103 26.8413 Q689.384 27.5299 692.463 28.9478 Z" fill="#000000" fill-rule="nonzero" fill-opacity="1" /><path clip-path="url(#clip780)" d="M723.007 32.4315 Q717.011 32.4315 713.528 37.1306 Q710.044 41.7891 710.044 49.9314 Q710.044 58.0738 713.487 62.7728 Q716.971 67.4314 723.007 67.4314 Q728.962 67.4314 732.445 62.7323 Q735.929 58.0333 735.929 49.9314 Q735.929 41.8701 732.445 37.1711 Q728.962 32.4315 723.007 32.4315 M723.007 26.1121 Q732.729 26.1121 738.279 32.4315 Q743.828 38.7509 743.828 49.9314 Q743.828 61.0714 738.279 67.4314 Q732.729 73.7508 723.007 73.7508 Q713.244 73.7508 707.694 67.4314 Q702.185 61.0714 702.185 49.9314 Q702.185 38.7509 707.694 32.4315 Q713.244 26.1121 723.007 26.1121 Z" fill="#000000" fill-rule="nonzero" fill-opacity="1" /><path clip-path="url(#clip780)" d="M785.107 28.5427 L785.107 35.5912 Q781.947 33.9709 778.545 33.1607 Q775.142 32.3505 771.496 32.3505 Q765.946 32.3505 763.151 34.0519 Q760.397 35.7533 760.397 39.156 Q760.397 41.7486 762.382 43.2475 Q764.367 44.7058 770.362 46.0426 L772.914 46.6097 Q780.854 48.3111 784.175 51.4303 Q787.538 54.509 787.538 60.0587 Q787.538 66.3781 782.515 70.0644 Q777.532 73.7508 768.782 73.7508 Q765.136 73.7508 761.166 73.0216 Q757.237 72.3329 752.862 70.9151 L752.862 63.2184 Q756.994 65.3654 761.004 66.4591 Q765.015 67.5124 768.944 67.5124 Q774.21 67.5124 777.046 65.73 Q779.882 63.9071 779.882 60.6258 Q779.882 57.5877 777.816 55.9673 Q775.79 54.3469 768.863 52.8481 L766.27 52.2405 Q759.343 50.7821 756.265 47.7845 Q753.186 44.7463 753.186 39.4801 Q753.186 33.0797 757.723 29.5959 Q762.26 26.1121 770.605 26.1121 Q774.737 26.1121 778.383 26.7198 Q782.028 27.3274 785.107 28.5427 Z" fill="#000000" fill-rule="nonzero" fill-opacity="1" /><path clip-path="url(#clip780)" d="M799.407 27.2059 L806.861 27.2059 L806.861 72.576 L799.407 72.576 L799.407 27.2059 M799.407 9.54393 L806.861 9.54393 L806.861 18.9825 L799.407 18.9825 L799.407 9.54393 Z" fill="#000000" fill-rule="nonzero" fill-opacity="1" /><path clip-path="url(#clip780)" d="M860.17 45.1919 L860.17 72.576 L852.717 72.576 L852.717 45.4349 Q852.717 38.994 850.205 35.7938 Q847.694 32.5936 842.671 32.5936 Q836.635 32.5936 833.151 36.4419 Q829.667 40.2903 829.667 46.9338 L829.667 72.576 L822.173 72.576 L822.173 27.2059 L829.667 27.2059 L829.667 34.2544 Q832.341 30.163 835.946 28.1376 Q839.592 26.1121 844.331 26.1121 Q852.15 26.1121 856.16 30.9732 Q860.17 35.7938 860.17 45.1919 Z" fill="#000000" fill-rule="nonzero" fill-opacity="1" /><path clip-path="url(#clip780)" d="M913.845 48.0275 L913.845 51.6733 L879.574 51.6733 Q880.06 59.3701 884.192 63.421 Q888.365 67.4314 895.778 67.4314 Q900.072 67.4314 904.082 66.3781 Q908.133 65.3249 912.103 63.2184 L912.103 70.267 Q908.093 71.9684 903.88 72.8596 Q899.667 73.7508 895.332 73.7508 Q884.476 73.7508 878.116 67.4314 Q871.797 61.1119 871.797 50.3365 Q871.797 39.1965 877.792 32.6746 Q883.828 26.1121 894.036 26.1121 Q903.191 26.1121 908.498 32.0264 Q913.845 37.9003 913.845 48.0275 M906.391 45.84 Q906.31 39.7232 902.948 36.0774 Q899.626 32.4315 894.117 32.4315 Q887.879 32.4315 884.111 35.9558 Q880.384 39.4801 879.817 45.8805 L906.391 45.84 Z" fill="#000000" fill-rule="nonzero" fill-opacity="1" /><path clip-path="url(#clip780)" d="M981.373 28.5427 L981.373 35.5912 Q978.214 33.9709 974.811 33.1607 Q971.408 32.3505 967.762 32.3505 Q962.213 32.3505 959.418 34.0519 Q956.663 35.7533 956.663 39.156 Q956.663 41.7486 958.648 43.2475 Q960.633 44.7058 966.628 46.0426 L969.18 46.6097 Q977.12 48.3111 980.442 51.4303 Q983.804 54.509 983.804 60.0587 Q983.804 66.3781 978.781 70.0644 Q973.798 73.7508 965.048 73.7508 Q961.403 73.7508 957.433 73.0216 Q953.503 72.3329 949.128 70.9151 L949.128 63.2184 Q953.26 65.3654 957.271 66.4591 Q961.281 67.5124 965.21 67.5124 Q970.477 67.5124 973.312 65.73 Q976.148 63.9071 976.148 60.6258 Q976.148 57.5877 974.082 55.9673 Q972.056 54.3469 965.129 52.8481 L962.537 52.2405 Q955.61 50.7821 952.531 47.7845 Q949.452 44.7463 949.452 39.4801 Q949.452 33.0797 953.989 29.5959 Q958.526 26.1121 966.871 26.1121 Q971.003 26.1121 974.649 26.7198 Q978.295 27.3274 981.373 28.5427 Z" fill="#000000" fill-rule="nonzero" fill-opacity="1" /><path clip-path="url(#clip780)" d="M995.673 27.2059 L1003.13 27.2059 L1003.13 72.576 L995.673 72.576 L995.673 27.2059 M995.673 9.54393 L1003.13 9.54393 L1003.13 18.9825 L995.673 18.9825 L995.673 9.54393 Z" fill="#000000" fill-rule="nonzero" fill-opacity="1" /><path clip-path="url(#clip780)" d="M1054.05 35.9153 Q1056.84 30.8922 1060.73 28.5022 Q1064.62 26.1121 1069.89 26.1121 Q1076.97 26.1121 1080.82 31.0947 Q1084.67 36.0368 1084.67 45.1919 L1084.67 72.576 L1077.18 72.576 L1077.18 45.4349 Q1077.18 38.913 1074.87 35.7533 Q1072.56 32.5936 1067.82 32.5936 Q1062.03 32.5936 1058.66 36.4419 Q1055.3 40.2903 1055.3 46.9338 L1055.3 72.576 L1047.81 72.576 L1047.81 45.4349 Q1047.81 38.8725 1045.5 35.7533 Q1043.19 32.5936 1038.37 32.5936 Q1032.66 32.5936 1029.3 36.4824 Q1025.93 40.3308 1025.93 46.9338 L1025.93 72.576 L1018.44 72.576 L1018.44 27.2059 L1025.93 27.2059 L1025.93 34.2544 Q1028.49 30.082 1032.05 28.0971 Q1035.62 26.1121 1040.52 26.1121 Q1045.46 26.1121 1048.9 28.6237 Q1052.39 31.1352 1054.05 35.9153 Z" fill="#000000" fill-rule="nonzero" fill-opacity="1" /><path clip-path="url(#clip780)" d="M1099.54 27.2059 L1106.99 27.2059 L1106.99 72.576 L1099.54 72.576 L1099.54 27.2059 M1099.54 9.54393 L1106.99 9.54393 L1106.99 18.9825 L1099.54 18.9825 L1099.54 9.54393 Z" fill="#000000" fill-rule="nonzero" fill-opacity="1" /><path clip-path="url(#clip780)" d="M1122.59 9.54393 L1130.04 9.54393 L1130.04 72.576 L1122.59 72.576 L1122.59 9.54393 Z" fill="#000000" fill-rule="nonzero" fill-opacity="1" /><path clip-path="url(#clip780)" d="M1166.26 49.7694 Q1157.22 49.7694 1153.74 51.8354 Q1150.26 53.9013 1150.26 58.8839 Q1150.26 62.8538 1152.85 65.2034 Q1155.48 67.5124 1159.98 67.5124 Q1166.18 67.5124 1169.9 63.1374 Q1173.67 58.7219 1173.67 51.4303 L1173.67 49.7694 L1166.26 49.7694 M1181.12 46.6907 L1181.12 72.576 L1173.67 72.576 L1173.67 65.6895 Q1171.12 69.8214 1167.31 71.8063 Q1163.5 73.7508 1157.99 73.7508 Q1151.03 73.7508 1146.89 69.8619 Q1142.8 65.9325 1142.8 59.3701 Q1142.8 51.7138 1147.91 47.825 Q1153.05 43.9361 1163.22 43.9361 L1173.67 43.9361 L1173.67 43.2069 Q1173.67 38.0623 1170.27 35.2672 Q1166.9 32.4315 1160.79 32.4315 Q1156.9 32.4315 1153.21 33.3632 Q1149.53 34.295 1146.12 36.1584 L1146.12 29.2718 Q1150.22 27.692 1154.06 26.9223 Q1157.91 26.1121 1161.56 26.1121 Q1171.4 26.1121 1176.26 31.2163 Q1181.12 36.3204 1181.12 46.6907 Z" fill="#000000" fill-rule="nonzero" fill-opacity="1" /><path clip-path="url(#clip780)" d="M1222.77 34.1734 Q1221.51 33.4443 1220.01 33.1202 Q1218.55 32.7556 1216.77 32.7556 Q1210.45 32.7556 1207.05 36.8875 Q1203.69 40.9789 1203.69 48.6757 L1203.69 72.576 L1196.19 72.576 L1196.19 27.2059 L1203.69 27.2059 L1203.69 34.2544 Q1206.04 30.1225 1209.8 28.1376 Q1213.57 26.1121 1218.96 26.1121 Q1219.73 26.1121 1220.66 26.2337 Q1221.59 26.3147 1222.73 26.5172 L1222.77 34.1734 Z" fill="#000000" fill-rule="nonzero" fill-opacity="1" /><path clip-path="url(#clip780)" d="M1230.59 27.2059 L1238.04 27.2059 L1238.04 72.576 L1230.59 72.576 L1230.59 27.2059 M1230.59 9.54393 L1238.04 9.54393 L1238.04 18.9825 L1230.59 18.9825 L1230.59 9.54393 Z" fill="#000000" fill-rule="nonzero" fill-opacity="1" /><path clip-path="url(#clip780)" d="M1261.01 14.324 L1261.01 27.2059 L1276.36 27.2059 L1276.36 32.9987 L1261.01 32.9987 L1261.01 57.6282 Q1261.01 63.1779 1262.51 64.7578 Q1264.05 66.3376 1268.7 66.3376 L1276.36 66.3376 L1276.36 72.576 L1268.7 72.576 Q1260.08 72.576 1256.79 69.3758 Q1253.51 66.1351 1253.51 57.6282 L1253.51 32.9987 L1248.04 32.9987 L1248.04 27.2059 L1253.51 27.2059 L1253.51 14.324 L1261.01 14.324 Z" fill="#000000" fill-rule="nonzero" fill-opacity="1" /><path clip-path="url(#clip780)" d="M1286.16 27.2059 L1293.62 27.2059 L1293.62 72.576 L1286.16 72.576 L1286.16 27.2059 M1286.16 9.54393 L1293.62 9.54393 L1293.62 18.9825 L1286.16 18.9825 L1286.16 9.54393 Z" fill="#000000" fill-rule="nonzero" fill-opacity="1" /><path clip-path="url(#clip780)" d="M1348.02 48.0275 L1348.02 51.6733 L1313.75 51.6733 Q1314.24 59.3701 1318.37 63.421 Q1322.54 67.4314 1329.95 67.4314 Q1334.25 67.4314 1338.26 66.3781 Q1342.31 65.3249 1346.28 63.2184 L1346.28 70.267 Q1342.27 71.9684 1338.06 72.8596 Q1333.84 73.7508 1329.51 73.7508 Q1318.65 73.7508 1312.29 67.4314 Q1305.97 61.1119 1305.97 50.3365 Q1305.97 39.1965 1311.97 32.6746 Q1318 26.1121 1328.21 26.1121 Q1337.37 26.1121 1342.67 32.0264 Q1348.02 37.9003 1348.02 48.0275 M1340.57 45.84 Q1340.49 39.7232 1337.12 36.0774 Q1333.8 32.4315 1328.29 32.4315 Q1322.05 32.4315 1318.29 35.9558 Q1314.56 39.4801 1313.99 45.8805 L1340.57 45.84 Z" fill="#000000" fill-rule="nonzero" fill-opacity="1" /><path clip-path="url(#clip780)" d="M1389.18 28.5427 L1389.18 35.5912 Q1386.02 33.9709 1382.62 33.1607 Q1379.21 32.3505 1375.57 32.3505 Q1370.02 32.3505 1367.22 34.0519 Q1364.47 35.7533 1364.47 39.156 Q1364.47 41.7486 1366.45 43.2475 Q1368.44 44.7058 1374.43 46.0426 L1376.98 46.6097 Q1384.92 48.3111 1388.25 51.4303 Q1391.61 54.509 1391.61 60.0587 Q1391.61 66.3781 1386.59 70.0644 Q1381.6 73.7508 1372.85 73.7508 Q1369.21 73.7508 1365.24 73.0216 Q1361.31 72.3329 1356.93 70.9151 L1356.93 63.2184 Q1361.06 65.3654 1365.08 66.4591 Q1369.09 67.5124 1373.01 67.5124 Q1378.28 67.5124 1381.12 65.73 Q1383.95 63.9071 1383.95 60.6258 Q1383.95 57.5877 1381.89 55.9673 Q1379.86 54.3469 1372.93 52.8481 L1370.34 52.2405 Q1363.41 50.7821 1360.34 47.7845 Q1357.26 44.7463 1357.26 39.4801 Q1357.26 33.0797 1361.79 29.5959 Q1366.33 26.1121 1374.68 26.1121 Q1378.81 26.1121 1382.45 26.7198 Q1386.1 27.3274 1389.18 28.5427 Z" fill="#000000" fill-rule="nonzero" fill-opacity="1" /><path clip-path="url(#clip780)" d="M1462.5 28.9478 L1462.5 35.9153 Q1459.34 34.1734 1456.14 33.3227 Q1452.98 32.4315 1449.74 32.4315 Q1442.49 32.4315 1438.48 37.0496 Q1434.47 41.6271 1434.47 49.9314 Q1434.47 58.2358 1438.48 62.8538 Q1442.49 67.4314 1449.74 67.4314 Q1452.98 67.4314 1456.14 66.5807 Q1459.34 65.6895 1462.5 63.9476 L1462.5 70.8341 Q1459.38 72.2924 1456.02 73.0216 Q1452.7 73.7508 1448.93 73.7508 Q1438.68 73.7508 1432.64 67.3098 Q1426.61 60.8689 1426.61 49.9314 Q1426.61 38.832 1432.68 32.472 Q1438.8 26.1121 1449.41 26.1121 Q1452.86 26.1121 1456.14 26.8413 Q1459.42 27.5299 1462.5 28.9478 Z" fill="#000000" fill-rule="nonzero" fill-opacity="1" /><path clip-path="url(#clip780)" d="M1514.27 48.0275 L1514.27 51.6733 L1480 51.6733 Q1480.49 59.3701 1484.62 63.421 Q1488.79 67.4314 1496.2 67.4314 Q1500.5 67.4314 1504.51 66.3781 Q1508.56 65.3249 1512.53 63.2184 L1512.53 70.267 Q1508.52 71.9684 1504.3 72.8596 Q1500.09 73.7508 1495.76 73.7508 Q1484.9 73.7508 1478.54 67.4314 Q1472.22 61.1119 1472.22 50.3365 Q1472.22 39.1965 1478.22 32.6746 Q1484.25 26.1121 1494.46 26.1121 Q1503.62 26.1121 1508.92 32.0264 Q1514.27 37.9003 1514.27 48.0275 M1506.82 45.84 Q1506.74 39.7232 1503.37 36.0774 Q1500.05 32.4315 1494.54 32.4315 Q1488.3 32.4315 1484.54 35.9558 Q1480.81 39.4801 1480.24 45.8805 L1506.82 45.84 Z" fill="#000000" fill-rule="nonzero" fill-opacity="1" /><path clip-path="url(#clip780)" d="M1526.5 9.54393 L1533.96 9.54393 L1533.96 72.576 L1526.5 72.576 L1526.5 9.54393 Z" fill="#000000" fill-rule="nonzero" fill-opacity="1" /><path clip-path="url(#clip780)" d="M1549.55 9.54393 L1557.01 9.54393 L1557.01 72.576 L1549.55 72.576 L1549.55 9.54393 Z" fill="#000000" fill-rule="nonzero" fill-opacity="1" /><path clip-path="url(#clip780)" d="M1624.82 39.9662 Q1630.69 41.222 1633.97 45.1919 Q1637.3 49.1618 1637.3 54.9951 Q1637.3 63.9476 1631.14 68.8492 Q1624.98 73.7508 1613.64 73.7508 Q1609.83 73.7508 1605.78 72.9811 Q1601.77 72.2519 1597.48 70.7531 L1597.48 62.8538 Q1600.88 64.8388 1604.93 65.8515 Q1608.98 66.8642 1613.4 66.8642 Q1621.09 66.8642 1625.1 63.826 Q1629.15 60.7879 1629.15 54.9951 Q1629.15 49.6479 1625.39 46.6502 Q1621.66 43.612 1614.98 43.612 L1607.93 43.612 L1607.93 36.8875 L1615.3 36.8875 Q1621.34 36.8875 1624.54 34.4975 Q1627.74 32.067 1627.74 27.5299 Q1627.74 22.8714 1624.41 20.4004 Q1621.13 17.8888 1614.98 17.8888 Q1611.61 17.8888 1607.76 18.618 Q1603.92 19.3471 1599.3 20.8865 L1599.3 13.5948 Q1603.96 12.2985 1608.01 11.6504 Q1612.1 11.0023 1615.7 11.0023 Q1625.02 11.0023 1630.45 15.2557 Q1635.88 19.4686 1635.88 26.6793 Q1635.88 31.7024 1633 35.1862 Q1630.13 38.6294 1624.82 39.9662 Z" fill="#000000" fill-rule="nonzero" fill-opacity="1" /><path clip-path="url(#clip780)" d="M1652.89 12.096 L1685.02 12.096 L1685.02 18.9825 L1660.39 18.9825 L1660.39 33.8088 Q1662.17 33.2012 1663.95 32.9176 Q1665.73 32.5936 1667.52 32.5936 Q1677.64 32.5936 1683.56 38.1433 Q1689.47 43.6931 1689.47 53.1722 Q1689.47 62.9348 1683.4 68.3631 Q1677.32 73.7508 1666.26 73.7508 Q1662.45 73.7508 1658.48 73.1026 Q1654.55 72.4545 1650.34 71.1582 L1650.34 62.9348 Q1653.99 64.9198 1657.87 65.892 Q1661.76 66.8642 1666.1 66.8642 Q1673.11 66.8642 1677.2 63.1779 Q1681.29 59.4916 1681.29 53.1722 Q1681.29 46.8528 1677.2 43.1664 Q1673.11 39.4801 1666.1 39.4801 Q1662.82 39.4801 1659.54 40.2093 Q1656.29 40.9384 1652.89 42.4778 L1652.89 12.096 Z" fill="#000000" fill-rule="nonzero" fill-opacity="1" /><path clip-path="url(#clip780)" d="M1712.64 65.6895 L1741.2 65.6895 L1741.2 72.576 L1702.8 72.576 L1702.8 65.6895 Q1707.46 60.8689 1715.48 52.7671 Q1723.54 44.6248 1725.61 42.2752 Q1729.53 37.8598 1731.07 34.8216 Q1732.65 31.7429 1732.65 28.7857 Q1732.65 23.9651 1729.25 20.927 Q1725.89 17.8888 1720.46 17.8888 Q1716.61 17.8888 1712.32 19.2256 Q1708.07 20.5624 1703.2 23.2765 L1703.2 15.0127 Q1708.15 13.0277 1712.44 12.015 Q1716.73 11.0023 1720.3 11.0023 Q1729.7 11.0023 1735.29 15.7013 Q1740.88 20.4004 1740.88 28.2591 Q1740.88 31.9859 1739.46 35.3482 Q1738.08 38.6699 1734.4 43.2069 Q1733.38 44.3817 1727.96 50.0125 Q1722.53 55.6027 1712.64 65.6895 Z" fill="#000000" fill-rule="nonzero" fill-opacity="1" /><path clip-path="url(#clip780)" d="M1783.7 27.2059 L1791.15 27.2059 L1791.15 72.576 L1783.7 72.576 L1783.7 27.2059 M1783.7 9.54393 L1791.15 9.54393 L1791.15 18.9825 L1783.7 18.9825 L1783.7 9.54393 Z" fill="#000000" fill-rule="nonzero" fill-opacity="1" /><path clip-path="url(#clip780)" d="M1814.12 14.324 L1814.12 27.2059 L1829.47 27.2059 L1829.47 32.9987 L1814.12 32.9987 L1814.12 57.6282 Q1814.12 63.1779 1815.62 64.7578 Q1817.16 66.3376 1821.81 66.3376 L1829.47 66.3376 L1829.47 72.576 L1821.81 72.576 Q1813.19 72.576 1809.9 69.3758 Q1806.62 66.1351 1806.62 57.6282 L1806.62 32.9987 L1801.15 32.9987 L1801.15 27.2059 L1806.62 27.2059 L1806.62 14.324 L1814.12 14.324 Z" fill="#000000" fill-rule="nonzero" fill-opacity="1" /><path clip-path="url(#clip780)" d="M1878.08 48.0275 L1878.08 51.6733 L1843.81 51.6733 Q1844.3 59.3701 1848.43 63.421 Q1852.6 67.4314 1860.01 67.4314 Q1864.31 67.4314 1868.32 66.3781 Q1872.37 65.3249 1876.34 63.2184 L1876.34 70.267 Q1872.33 71.9684 1868.12 72.8596 Q1863.9 73.7508 1859.57 73.7508 Q1848.71 73.7508 1842.35 67.4314 Q1836.03 61.1119 1836.03 50.3365 Q1836.03 39.1965 1842.03 32.6746 Q1848.06 26.1121 1858.27 26.1121 Q1867.43 26.1121 1872.73 32.0264 Q1878.08 37.9003 1878.08 48.0275 M1870.63 45.84 Q1870.55 39.7232 1867.18 36.0774 Q1863.86 32.4315 1858.35 32.4315 Q1852.12 32.4315 1848.35 35.9558 Q1844.62 39.4801 1844.05 45.8805 L1870.63 45.84 Z" fill="#000000" fill-rule="nonzero" fill-opacity="1" /><path clip-path="url(#clip780)" d="M1916.61 34.1734 Q1915.35 33.4443 1913.85 33.1202 Q1912.39 32.7556 1910.61 32.7556 Q1904.29 32.7556 1900.89 36.8875 Q1897.53 40.9789 1897.53 48.6757 L1897.53 72.576 L1890.03 72.576 L1890.03 27.2059 L1897.53 27.2059 L1897.53 34.2544 Q1899.88 30.1225 1903.64 28.1376 Q1907.41 26.1121 1912.8 26.1121 Q1913.57 26.1121 1914.5 26.2337 Q1915.43 26.3147 1916.57 26.5172 L1916.61 34.1734 Z" fill="#000000" fill-rule="nonzero" fill-opacity="1" /><path clip-path="url(#clip780)" d="M1945.04 49.7694 Q1936.01 49.7694 1932.53 51.8354 Q1929.04 53.9013 1929.04 58.8839 Q1929.04 62.8538 1931.63 65.2034 Q1934.27 67.5124 1938.76 67.5124 Q1944.96 67.5124 1948.69 63.1374 Q1952.46 58.7219 1952.46 51.4303 L1952.46 49.7694 L1945.04 49.7694 M1959.91 46.6907 L1959.91 72.576 L1952.46 72.576 L1952.46 65.6895 Q1949.9 69.8214 1946.1 71.8063 Q1942.29 73.7508 1936.78 73.7508 Q1929.81 73.7508 1925.68 69.8619 Q1921.59 65.9325 1921.59 59.3701 Q1921.59 51.7138 1926.69 47.825 Q1931.84 43.9361 1942 43.9361 L1952.46 43.9361 L1952.46 43.2069 Q1952.46 38.0623 1949.05 35.2672 Q1945.69 32.4315 1939.57 32.4315 Q1935.69 32.4315 1932 33.3632 Q1928.31 34.295 1924.91 36.1584 L1924.91 29.2718 Q1929 27.692 1932.85 26.9223 Q1936.7 26.1121 1940.34 26.1121 Q1950.19 26.1121 1955.05 31.2163 Q1959.91 36.3204 1959.91 46.6907 Z" fill="#000000" fill-rule="nonzero" fill-opacity="1" /><path clip-path="url(#clip780)" d="M1982.64 14.324 L1982.64 27.2059 L1997.99 27.2059 L1997.99 32.9987 L1982.64 32.9987 L1982.64 57.6282 Q1982.64 63.1779 1984.13 64.7578 Q1985.67 66.3376 1990.33 66.3376 L1997.99 66.3376 L1997.99 72.576 L1990.33 72.576 Q1981.7 72.576 1978.42 69.3758 Q1975.14 66.1351 1975.14 57.6282 L1975.14 32.9987 L1969.67 32.9987 L1969.67 27.2059 L1975.14 27.2059 L1975.14 14.324 L1982.64 14.324 Z" fill="#000000" fill-rule="nonzero" fill-opacity="1" /><path clip-path="url(#clip780)" d="M2007.79 27.2059 L2015.25 27.2059 L2015.25 72.576 L2007.79 72.576 L2007.79 27.2059 M2007.79 9.54393 L2015.25 9.54393 L2015.25 18.9825 L2007.79 18.9825 L2007.79 9.54393 Z" fill="#000000" fill-rule="nonzero" fill-opacity="1" /><path clip-path="url(#clip780)" d="M2048.42 32.4315 Q2042.43 32.4315 2038.94 37.1306 Q2035.46 41.7891 2035.46 49.9314 Q2035.46 58.0738 2038.9 62.7728 Q2042.39 67.4314 2048.42 67.4314 Q2054.38 67.4314 2057.86 62.7323 Q2061.34 58.0333 2061.34 49.9314 Q2061.34 41.8701 2057.86 37.1711 Q2054.38 32.4315 2048.42 32.4315 M2048.42 26.1121 Q2058.14 26.1121 2063.69 32.4315 Q2069.24 38.7509 2069.24 49.9314 Q2069.24 61.0714 2063.69 67.4314 Q2058.14 73.7508 2048.42 73.7508 Q2038.66 73.7508 2033.11 67.4314 Q2027.6 61.0714 2027.6 49.9314 Q2027.6 38.7509 2033.11 32.4315 Q2038.66 26.1121 2048.42 26.1121 Z" fill="#000000" fill-rule="nonzero" fill-opacity="1" /><path clip-path="url(#clip780)" d="M2119.31 45.1919 L2119.31 72.576 L2111.86 72.576 L2111.86 45.4349 Q2111.86 38.994 2109.35 35.7938 Q2106.84 32.5936 2101.81 32.5936 Q2095.78 32.5936 2092.29 36.4419 Q2088.81 40.2903 2088.81 46.9338 L2088.81 72.576 L2081.32 72.576 L2081.32 27.2059 L2088.81 27.2059 L2088.81 34.2544 Q2091.48 30.163 2095.09 28.1376 Q2098.73 26.1121 2103.47 26.1121 Q2111.29 26.1121 2115.3 30.9732 Q2119.31 35.7938 2119.31 45.1919 Z" fill="#000000" fill-rule="nonzero" fill-opacity="1" /><path clip-path="url(#clip780)" d="M2168.65 65.6895 L2197.21 65.6895 L2197.21 72.576 L2158.81 72.576 L2158.81 65.6895 Q2163.47 60.8689 2171.49 52.7671 Q2179.55 44.6248 2181.62 42.2752 Q2185.55 37.8598 2187.08 34.8216 Q2188.66 31.7429 2188.66 28.7857 Q2188.66 23.9651 2185.26 20.927 Q2181.9 17.8888 2176.47 17.8888 Q2172.62 17.8888 2168.33 19.2256 Q2164.08 20.5624 2159.21 23.2765 L2159.21 15.0127 Q2164.16 13.0277 2168.45 12.015 Q2172.74 11.0023 2176.31 11.0023 Q2185.71 11.0023 2191.3 15.7013 Q2196.89 20.4004 2196.89 28.2591 Q2196.89 31.9859 2195.47 35.3482 Q2194.09 38.6699 2190.41 43.2069 Q2189.39 44.3817 2183.97 50.0125 Q2178.54 55.6027 2168.65 65.6895 Z" fill="#000000" fill-rule="nonzero" fill-opacity="1" /><path clip-path="url(#clip780)" d="M2231.89 17.4837 Q2225.57 17.4837 2222.37 23.7221 Q2219.21 29.92 2219.21 42.3968 Q2219.21 54.833 2222.37 61.0714 Q2225.57 67.2693 2231.89 67.2693 Q2238.25 67.2693 2241.41 61.0714 Q2244.61 54.833 2244.61 42.3968 Q2244.61 29.92 2241.41 23.7221 Q2238.25 17.4837 2231.89 17.4837 M2231.89 11.0023 Q2242.06 11.0023 2247.4 19.0636 Q2252.79 27.0843 2252.79 42.3968 Q2252.79 57.6687 2247.4 65.73 Q2242.06 73.7508 2231.89 73.7508 Q2221.72 73.7508 2216.33 65.73 Q2210.98 57.6687 2210.98 42.3968 Q2210.98 27.0843 2216.33 19.0636 Q2221.72 11.0023 2231.89 11.0023 Z" fill="#000000" fill-rule="nonzero" fill-opacity="1" /><polyline clip-path="url(#clip782)" style="stroke:#009af9; stroke-linecap:round; stroke-linejoin:round; stroke-width:4; stroke-opacity:1; fill:none" points="316.67,1386.4 318.648,1353.07 320.627,1353.06 322.606,1353.05 324.585,1353.05 326.563,1353.04 328.542,1353.04 330.521,1353.04 332.5,1353.04 334.478,1353.03 336.457,1353.03 338.436,1353.02 340.415,1353.02 342.393,1353.02 344.372,1353.02 346.351,1353.02 348.33,1353.01 350.308,1353.01 352.287,1352.99 354.266,1352.99 356.245,1352.99 358.224,1352.98 360.202,1352.98 362.181,1352.98 364.16,1352.97 366.139,1352.96 368.117,1352.94 370.096,1352.94 372.075,1352.93 374.054,1352.93 376.032,1352.93 378.011,1352.92 379.99,1352.92 381.969,1352.92 383.947,1352.91 385.926,1352.9 387.905,1352.9 389.884,1352.89 391.862,1352.89 393.841,1352.88 395.82,1352.88 397.799,1352.88 399.778,1352.88 401.756,1352.88 403.735,1352.86 405.714,1352.86 407.693,1352.86 409.671,1352.85 411.65,1352.85 413.629,1352.84 415.608,1352.84 417.586,1352.83 419.565,1352.83 421.544,1352.82 423.523,1352.82 425.501,1352.78 427.48,1352.78 429.459,1352.77 431.438,1352.77 433.416,1352.77 435.395,1352.76 437.374,1352.76 439.353,1352.76 441.332,1352.75 443.31,1352.75 445.289,1352.71 447.268,1352.7 449.247,1352.68 451.225,1352.68 453.204,1352.68 455.183,1352.66 457.162,1352.65 459.14,1352.65 461.119,1352.65 463.098,1352.59 465.077,1352.57 467.055,1352.56 469.034,1352.54 471.013,1352.53 472.992,1352.52 474.97,1352.52 476.949,1352.51 478.928,1352.51 480.907,1352.48 482.886,1352.47 484.864,1352.47 486.843,1352.45 488.822,1352.44 490.801,1352.44 492.779,1352.42 494.758,1352.4 496.737,1352.4 498.716,1352.39 500.694,1352.38 502.673,1352.35 504.652,1352.33 506.631,1352.32 508.609,1352.32 510.588,1352.32 512.567,1352.31 514.546,1352.28 516.524,1352.28 518.503,1352.27 520.482,1352.23 522.461,1352.22 524.44,1352.19 526.418,1352.16 528.397,1352.14 530.376,1352.13 532.355,1352.13 534.333,1352.07 536.312,1352.06 538.291,1352.05 540.27,1352.05 542.248,1352.03 544.227,1351.99 546.206,1351.93 548.185,1351.92 550.163,1351.91 552.142,1351.84 554.121,1351.8 556.1,1351.8 558.078,1351.75 560.057,1351.74 562.036,1351.74 564.015,1351.72 565.994,1351.65 567.972,1351.57 569.951,1351.54 571.93,1351.54 573.909,1351.53 575.887,1351.52 577.866,1351.52 579.845,1351.4 581.824,1351.4 583.802,1351.39 585.781,1351.39 587.76,1351.21 589.739,1351.13 591.717,1351.13 593.696,1351.07 595.675,1351.02 597.654,1350.99 599.632,1350.97 601.611,1350.89 603.59,1350.83 605.569,1350.75 607.548,1350.68 609.526,1350.67 611.505,1350.64 613.484,1350.59 615.463,1350.58 617.441,1350.46 619.42,1350.33 621.399,1350.27 623.378,1350.07 625.356,1350.04 627.335,1349.93 629.314,1349.92 631.293,1349.85 633.271,1349.84 635.25,1349.66 637.229,1349.49 639.208,1349.42 641.186,1349.32 643.165,1349.28 645.144,1349.08 647.123,1348.9 649.102,1348.85 651.08,1348.78 653.059,1348.66 655.038,1348.65 657.017,1348.61 658.995,1348.42 660.974,1348.18 662.953,1348.14 664.932,1348.09 666.91,1348.06 668.889,1347.95 670.868,1347.85 672.847,1347.61 674.825,1347.5 676.804,1347.26 678.783,1347.17 680.762,1347.13 682.74,1346.95 684.719,1346.78 686.698,1345.94 688.677,1345.91 690.655,1345.66 692.634,1345.48 694.613,1345.16 696.592,1345.04 698.571,1344.37 700.549,1344.08 702.528,1343.95 704.507,1343.67 706.486,1342.65 708.464,1342.35 710.443,1341.28 712.422,1341.17 714.401,1340.64 716.379,1340.43 718.358,1340.14 720.337,1339.51 722.316,1338.94 724.294,1338.47 726.273,1338.04 728.252,1337.72 730.231,1336.9 732.209,1336.44 734.188,1335.92 736.167,1335.27 738.146,1334.13 740.125,1333.94 742.103,1333.42 744.082,1332.78 746.061,1332.65 748.04,1332.17 750.018,1331.86 751.997,1330.85 753.976,1330.71 755.955,1330.48 757.933,1330.44 759.912,1330.15 761.891,1329.78 763.87,1329.36 765.848,1328.24 767.827,1325.17 769.806,1324.27 771.785,1323.44 773.763,1322.3 775.742,1321.56 777.721,1320.46 779.7,1319.28 781.679,1318 783.657,1317.31 785.636,1310.66 787.615,1308.22 789.594,1305.62 791.572,1304.83 793.551,1304.77 795.53,1299.29 797.509,1294.63 799.487,1294.61 801.466,1287.57 803.445,1283.04 805.424,1282.32 807.402,1282.27 809.381,1282.24 811.36,1282.23 813.339,1282.23 815.317,1282.22 817.296,1282.2 819.275,1282.18 821.254,1282.18 823.233,1282.15 825.211,1282.14 827.19,1282.13 829.169,1282.12 831.148,1282.11 833.126,1282.11 835.105,1282.1 837.084,1282.1 839.063,1282.09 841.041,1282.08 843.02,1282.06 844.999,1282.05 846.978,1282.04 848.956,1282.04 850.935,1282.03 852.914,1282.01 854.893,1281.99 856.871,1281.99 858.85,1281.98 860.829,1281.98 862.808,1281.95 864.787,1281.95 866.765,1281.95 868.744,1281.94 870.723,1281.94 872.702,1281.92 874.68,1281.91 876.659,1281.9 878.638,1281.9 880.617,1281.87 882.595,1281.87 884.574,1281.86 886.553,1281.85 888.532,1281.85 890.51,1281.84 892.489,1281.84 894.468,1281.84 896.447,1281.83 898.425,1281.83 900.404,1281.83 902.383,1281.82 904.362,1281.82 906.341,1281.82 908.319,1281.82 910.298,1281.82 912.277,1281.82 914.256,1281.82 916.234,1281.82 918.213,1281.82 920.192,1281.82 922.171,1281.82 924.149,1281.81 926.128,1281.81 928.107,1281.81 930.086,1281.81 932.064,1281.81 934.043,1281.81 936.022,1281.81 938.001,1281.81 939.979,1281.81 941.958,1281.81 943.937,1281.81 945.916,1281.81 947.895,1281.81 949.873,1281.81 951.852,1281.81 953.831,1281.81 955.81,1281.81 957.788,1281.81 959.767,1281.81 961.746,1281.81 963.725,1281.81 965.703,1281.81 967.682,1281.81 969.661,1281.81 971.64,1281.81 973.618,1281.81 975.597,1281.81 977.576,1281.81 979.555,1281.81 981.533,1281.81 983.512,1281.81 985.491,1281.81 987.47,1281.81 989.449,1281.81 991.427,1281.8 993.406,1281.8 995.385,1281.8 997.364,1281.8 999.342,1281.8 1001.32,1281.8 1003.3,1281.8 1005.28,1281.8 1007.26,1281.8 1009.24,1281.8 1011.21,1281.8 1013.19,1281.8 1015.17,1281.8 1017.15,1281.8 1019.13,1281.8 1021.11,1281.8 1023.09,1281.79 1025.07,1281.79 1027.04,1281.79 1029.02,1281.79 1031,1281.79 1032.98,1281.79 1034.96,1281.79 1036.94,1281.79 1038.92,1281.79 1040.9,1281.79 1042.88,1281.79 1044.85,1281.78 1046.83,1281.78 1048.81,1281.78 1050.79,1281.78 1052.77,1281.78 1054.75,1281.77 1056.73,1281.77 1058.71,1281.77 1060.68,1281.77 1062.66,1281.76 1064.64,1281.76 1066.62,1281.76 1068.6,1281.76 1070.58,1281.75 1072.56,1281.75 1074.54,1281.75 1076.51,1281.75 1078.49,1281.75 1080.47,1281.75 1082.45,1281.75 1084.43,1281.75 1086.41,1281.75 1088.39,1281.75 1090.37,1281.74 1092.34,1281.74 1094.32,1281.74 1096.3,1281.74 1098.28,1281.73 1100.26,1281.73 1102.24,1281.73 1104.22,1281.73 1106.2,1281.73 1108.17,1281.73 1110.15,1281.73 1112.13,1281.73 1114.11,1281.72 1116.09,1281.72 1118.07,1281.72 1120.05,1281.71 1122.03,1281.71 1124,1281.71 1125.98,1281.71 1127.96,1281.7 1129.94,1281.7 1131.92,1281.7 1133.9,1281.7 1135.88,1281.69 1137.86,1281.69 1139.83,1281.68 1141.81,1281.68 1143.79,1281.68 1145.77,1281.68 1147.75,1281.67 1149.73,1281.67 1151.71,1281.67 1153.69,1281.67 1155.66,1281.67 1157.64,1281.66 1159.62,1281.66 1161.6,1281.65 1163.58,1281.65 1165.56,1281.64 1167.54,1281.64 1169.52,1281.63 1171.49,1281.63 1173.47,1281.63 1175.45,1281.62 1177.43,1281.62 1179.41,1281.6 1181.39,1281.59 1183.37,1281.59 1185.35,1281.59 1187.32,1281.59 1189.3,1281.59 1191.28,1281.58 1193.26,1281.58 1195.24,1281.58 1197.22,1281.58 1199.2,1281.58 1201.18,1281.57 1203.15,1281.57 1205.13,1281.57 1207.11,1281.57 1209.09,1281.56 1211.07,1281.56 1213.05,1281.56 1215.03,1281.56 1217.01,1281.56 1218.98,1281.56 1220.96,1281.56 1222.94,1281.56 1224.92,1281.56 1226.9,1281.56 1228.88,1281.55 1230.86,1281.55 1232.84,1281.55 1234.81,1281.55 1236.79,1281.55 1238.77,1281.55 1240.75,1281.54 1242.73,1281.54 1244.71,1281.54 1246.69,1281.54 1248.67,1281.53 1250.65,1281.53 1252.62,1281.53 1254.6,1281.53 1256.58,1281.53 1258.56,1281.52 1260.54,1281.52 1262.52,1281.52 1264.5,1281.52 1266.48,1281.51 1268.45,1281.51 1270.43,1281.51 1272.41,1281.51 1274.39,1281.51 1276.37,1281.5 1278.35,1281.5 1280.33,1281.5 1282.31,1281.5 1284.28,1281.49 1286.26,1281.49 1288.24,1281.49 1290.22,1281.49 1292.2,1281.48 1294.18,1281.48 1296.16,1280.17 1298.14,1279.17 1300.11,1278.89 1302.09,1217.78 1304.07,842.993 1306.05,833.119 1308.03,832.478 1310.01,829.054 1311.99,828.847 1313.97,828.218 1315.94,828.15 1317.92,827.995 1319.9,827.087 1321.88,826.677 1323.86,826.519 1325.84,825.665 1327.82,824.823 1329.8,824.475 1331.77,824.181 1333.75,824.121 1335.73,823.997 1337.71,823.725 1339.69,823.446 1341.67,823.181 1343.65,823.167 1345.63,822.906 1347.6,822.26 1349.58,821.902 1351.56,821.741 1353.54,821.553 1355.52,821.528 1357.5,821.466 1359.48,821.332 1361.46,821.308 1363.43,821.059 1365.41,820.999 1367.39,820.885 1369.37,820.505 1371.35,820.151 1373.33,820.08 1375.31,820.007 1377.29,819.927 1379.26,819.861 1381.24,819.702 1383.22,819.532 1385.2,819.472 1387.18,819.423 1389.16,819.039 1391.14,818.966 1393.12,818.583 1395.09,818.522 1397.07,818.341 1399.05,818.256 1401.03,818.087 1403.01,818.016 1404.99,817.766 1406.97,817.471 1408.95,817.201 1410.92,817.191 1412.9,817.172 1414.88,817.104 1416.86,817.104 1418.84,817.093 1420.82,817.028 1422.8,816.984 1424.78,816.831 1426.75,816.772 1428.73,816.697 1430.71,816.604 1432.69,816.602 1434.67,816.576 1436.65,816.569 1438.63,816.388 1440.61,816.381 1442.58,816.316 1444.56,816.098 1446.54,816.071 1448.52,815.767 1450.5,815.709 1452.48,815.548 1454.46,815.522 1456.44,815.46 1458.42,815.397 1460.39,815.234 1462.37,815.199 1464.35,815.116 1466.33,814.934 1468.31,814.815 1470.29,814.567 1472.27,814.535 1474.25,814.535 1476.22,814.491 1478.2,814.425 1480.18,814.412 1482.16,814.383 1484.14,814.336 1486.12,814.309 1488.1,814.169 1490.08,814.156 1492.05,814.142 1494.03,814.135 1496.01,814.126 1497.99,814.062 1499.97,814.043 1501.95,813.917 1503.93,813.895 1505.91,813.829 1507.88,813.807 1509.86,813.687 1511.84,813.651 1513.82,813.602 1515.8,813.443 1517.78,813.341 1519.76,813.333 1521.74,813.274 1523.71,813.054 1525.69,812.995 1527.67,812.979 1529.65,812.912 1531.63,812.614 1533.61,812.433 1535.59,812.369 1537.57,812.211 1539.54,812.049 1541.52,811.798 1543.5,811.768 1545.48,811.626 1547.46,811.612 1549.44,811.078 1551.42,810.583 1553.4,810.563 1555.37,810.38 1557.35,810.265 1559.33,809.496 1561.31,809.353 1563.29,809.206 1565.27,809.157 1567.25,809.095 1569.23,808.916 1571.2,808.711 1573.18,808.06 1575.16,807.407 1577.14,807.341 1579.12,807.308 1581.1,806.99 1583.08,806.665 1585.06,806.516 1587.03,806.11 1589.01,805.88 1590.99,805.836 1592.97,805.757 1594.95,805.246 1596.93,805.217 1598.91,804.388 1600.89,804.35 1602.86,804.189 1604.84,804.033 1606.82,803.784 1608.8,803.704 1610.78,803.409 1612.76,803.034 1614.74,802.531 1616.72,802.455 1618.69,802.423 1620.67,802.299 1622.65,802.082 1624.63,801.747 1626.61,801.596 1628.59,801.142 1630.57,801.005 1632.55,800.725 1634.52,800.37 1636.5,800.343 1638.48,800.049 1640.46,799.952 1642.44,799.45 1644.42,799.253 1646.4,798.965 1648.38,798.851 1650.35,797.603 1652.33,797.508 1654.31,797.43 1656.29,797.405 1658.27,797.307 1660.25,796.725 1662.23,796.237 1664.21,796.163 1666.18,795.951 1668.16,795.521 1670.14,795.518 1672.12,795.486 1674.1,794.658 1676.08,794.3 1678.06,794.069 1680.04,792.81 1682.02,792.732 1683.99,792.701 1685.97,792.663 1687.95,792.568 1689.93,792.121 1691.91,791.78 1693.89,791.524 1695.87,790.814 1697.85,790.739 1699.82,790.482 1701.8,790.299 1703.78,789.736 1705.76,789.466 1707.74,788.64 1709.72,788.372 1711.7,788.105 1713.68,788.015 1715.65,787.633 1717.63,787.018 1719.61,786.514 1721.59,786.186 1723.57,785.719 1725.55,785.632 1727.53,784.708 1729.51,784.587 1731.48,784.369 1733.46,784.318 1735.44,783.924 1737.42,783.804 1739.4,783.622 1741.38,783.563 1743.36,783.464 1745.34,782.611 1747.31,782.388 1749.29,781.571 1751.27,781.014 1753.25,780.858 1755.23,780.467 1757.21,780.161 1759.19,779.884 1761.17,779.577 1763.14,779.097 1765.12,779.079 1767.1,778.828 1769.08,778.337 1771.06,778.244 1773.04,777.919 1775.02,777.799 1777,776.927 1778.97,776.852 1780.95,776.579 1782.93,776.419 1784.91,775.398 1786.89,774.882 1788.87,774.547 1790.85,774.107 1792.83,773.567 1794.8,767.346 1796.78,767.131 1798.76,652.737 1800.74,247.355 1802.72,243.885 1804.7,241.575 1806.68,230.072 1808.66,224.54 1810.63,218.841 1812.61,213.009 1814.59,206.342 1816.57,205.208 1818.55,200.555 1820.53,200.431 1822.51,197.712 1824.49,196.752 1826.46,195.009 1828.44,194.313 1830.42,191.542 1832.4,191.525 1834.38,190.973 1836.36,190.768 1838.34,190.406 1840.32,189.643 1842.29,189.326 1844.27,188.637 1846.25,187.1 1848.23,187.045 1850.21,187.024 1852.19,186.802 1854.17,186.662 1856.15,186.516 1858.12,186.506 1860.1,186.486 1862.08,186.419 1864.06,185.895 1866.04,185.574 1868.02,185.453 1870,185.291 1871.98,185.203 1873.95,185.051 1875.93,184.854 1877.91,184.812 1879.89,184.785 1881.87,184.662 1883.85,183.998 1885.83,183.929 1887.81,183.853 1889.79,183.831 1891.76,183.77 1893.74,183.742 1895.72,183.627 1897.7,183.622 1899.68,183.596 1901.66,183.552 1903.64,183.521 1905.62,183.514 1907.59,183.431 1909.57,183.293 1911.55,183.25 1913.53,183.229 1915.51,183.169 1917.49,183.149 1919.47,183.14 1921.45,183.137 1923.42,183.13 1925.4,183.09 1927.38,183.056 1929.36,183.046 1931.34,183.041 1933.32,183.034 1935.3,183.001 1937.28,182.997 1939.25,182.98 1941.23,182.958 1943.21,182.957 1945.19,182.954 1947.17,182.938 1949.15,182.935 1951.13,182.929 1953.11,182.922 1955.08,182.9 1957.06,182.873 1959.04,182.861 1961.02,182.842 1963,182.834 1964.98,182.826 1966.96,182.823 1968.94,182.806 1970.91,182.781 1972.89,182.751 1974.87,182.734 1976.85,182.727 1978.83,182.723 1980.81,182.719 1982.79,182.648 1984.77,182.639 1986.74,182.633 1988.72,182.567 1990.7,182.425 1992.68,182.403 1994.66,182.39 1996.64,182.381 1998.62,182.206 2000.6,182.193 2002.57,182.19 2004.55,182.135 2006.53,182.037 2008.51,181.966 2010.49,181.864 2012.47,181.624 2014.45,181.51 2016.43,181.472 2018.4,181.408 2020.38,181.235 2022.36,181.142 2024.34,181.122 2026.32,181.102 2028.3,180.899 2030.28,180.811 2032.26,180.553 2034.23,180.538 2036.21,180.459 2038.19,180.457 2040.17,180.144 2042.15,179.521 2044.13,179.44 2046.11,179.435 2048.09,179.05 2050.06,178.705 2052.04,178.408 2054.02,178.185 2056,178.014 2057.98,177.857 2059.96,177.725 2061.94,177.585 2063.92,177.386 2065.89,177.243 2067.87,177.159 2069.85,177.135 2071.83,177.129 2073.81,177.025 2075.79,176.978 2077.77,176.454 2079.75,176.441 2081.72,176.209 2083.7,175.84 2085.68,175.755 2087.66,175.64 2089.64,175.5 2091.62,175.35 2093.6,175.332 2095.58,175.275 2097.56,174.747 2099.53,174.665 2101.51,174.274 2103.49,173.979 2105.47,173.58 2107.45,173.269 2109.43,173.118 2111.41,173.081 2113.39,172.917 2115.36,172.717 2117.34,172.647 2119.32,172.55 2121.3,172.444 2123.28,171.979 2125.26,171.911 2127.24,171.485 2129.22,171.467 2131.19,171.463 2133.17,171.28 2135.15,171.274 2137.13,171.232 2139.11,171.16 2141.09,171.111 2143.07,170.974 2145.05,170.94 2147.02,170.764 2149,170.692 2150.98,170.487 2152.96,170.363 2154.94,170.235 2156.92,170.085 2158.9,170.025 2160.88,170.016 2162.85,169.879 2164.83,169.756 2166.81,169.717 2168.79,169.659 2170.77,169.501 2172.75,169.404 2174.73,169.233 2176.71,169.013 2178.68,168.887 2180.66,168.699 2182.64,168.662 2184.62,168.432 2186.6,168.4 2188.58,168.372 2190.56,168.338 2192.54,168.3 2194.51,168.1 2196.49,168.013 2198.47,167.182 2200.45,167.04 2202.43,166.827 2204.41,166.712 2206.39,166.422 2208.37,166.402 2210.34,166.228 2212.32,165.938 2214.3,165.819 2216.28,165.673 2218.26,165.44 2220.24,165.407 2222.22,165.334 2224.2,165.23 2226.17,165.133 2228.15,164.918 2230.13,164.883 2232.11,164.43 2234.09,164.409 2236.07,164.367 2238.05,164.323 2240.03,164.294 2242,164.262 2243.98,164.181 2245.96,163.759 2247.94,163.58 2249.92,163.513 2251.9,163.338 2253.88,163.333 2255.86,163.136 2257.83,162.374 2259.81,162.313 2261.79,162.095 2263.77,161.997 2265.75,161.754 2267.73,161.664 2269.71,161.61 2271.69,161.55 2273.66,161.206 2275.64,161.205 2277.62,160.987 2279.6,160.929 2281.58,160.855 2283.56,160.832 2285.54,160.768 2287.52,160.745 2289.49,160.618 2291.47,160.338 2293.45,160.256 "/>
<path clip-path="url(#clip780)" d="M327.212 270.476 L756.357 270.476 L756.357 166.796 L327.212 166.796  Z" fill="#ffffff" fill-rule="evenodd" fill-opacity="1"/>
<polyline clip-path="url(#clip780)" style="stroke:#000000; stroke-linecap:round; stroke-linejoin:round; stroke-width:4; stroke-opacity:1; fill:none" points="327.212,270.476 756.357,270.476 756.357,166.796 327.212,166.796 327.212,270.476 "/>
<polyline clip-path="url(#clip780)" style="stroke:#009af9; stroke-linecap:round; stroke-linejoin:round; stroke-width:4; stroke-opacity:1; fill:none" points="350.495,218.636 490.187,218.636 "/>
<path clip-path="url(#clip780)" d="M535.715 202.49 L535.715 207.05 Q533.052 205.777 530.691 205.152 Q528.33 204.527 526.131 204.527 Q522.312 204.527 520.228 206.008 Q518.168 207.49 518.168 210.221 Q518.168 212.513 519.534 213.694 Q520.923 214.851 524.766 215.569 L527.59 216.147 Q532.821 217.143 535.298 219.666 Q537.798 222.166 537.798 226.379 Q537.798 231.402 534.418 233.994 Q531.062 236.587 524.557 236.587 Q522.103 236.587 519.326 236.031 Q516.571 235.476 513.608 234.388 L513.608 229.573 Q516.455 231.17 519.187 231.981 Q521.918 232.791 524.557 232.791 Q528.562 232.791 530.738 231.217 Q532.914 229.643 532.914 226.726 Q532.914 224.18 531.34 222.744 Q529.789 221.309 526.224 220.592 L523.377 220.036 Q518.145 218.995 515.807 216.772 Q513.469 214.55 513.469 210.592 Q513.469 206.008 516.687 203.37 Q519.928 200.731 525.599 200.731 Q528.029 200.731 530.553 201.171 Q533.076 201.61 535.715 202.49 Z" fill="#000000" fill-rule="nonzero" fill-opacity="1" /><path clip-path="url(#clip780)" d="M544.904 209.99 L549.164 209.99 L549.164 235.916 L544.904 235.916 L544.904 209.99 M544.904 199.897 L549.164 199.897 L549.164 205.291 L544.904 205.291 L544.904 199.897 Z" fill="#000000" fill-rule="nonzero" fill-opacity="1" /><path clip-path="url(#clip780)" d="M578.261 214.967 Q579.858 212.096 582.08 210.731 Q584.302 209.365 587.311 209.365 Q591.362 209.365 593.561 212.212 Q595.76 215.036 595.76 220.268 L595.76 235.916 L591.478 235.916 L591.478 220.407 Q591.478 216.68 590.159 214.874 Q588.839 213.069 586.131 213.069 Q582.821 213.069 580.899 215.268 Q578.978 217.467 578.978 221.263 L578.978 235.916 L574.696 235.916 L574.696 220.407 Q574.696 216.657 573.376 214.874 Q572.057 213.069 569.302 213.069 Q566.038 213.069 564.117 215.291 Q562.196 217.49 562.196 221.263 L562.196 235.916 L557.913 235.916 L557.913 209.99 L562.196 209.99 L562.196 214.018 Q563.654 211.633 565.691 210.499 Q567.728 209.365 570.529 209.365 Q573.353 209.365 575.321 210.8 Q577.312 212.235 578.261 214.967 Z" fill="#000000" fill-rule="nonzero" fill-opacity="1" /><path clip-path="url(#clip780)" d="M604.256 209.99 L608.515 209.99 L608.515 235.916 L604.256 235.916 L604.256 209.99 M604.256 199.897 L608.515 199.897 L608.515 205.291 L604.256 205.291 L604.256 199.897 Z" fill="#000000" fill-rule="nonzero" fill-opacity="1" /><path clip-path="url(#clip780)" d="M617.427 199.897 L621.686 199.897 L621.686 235.916 L617.427 235.916 L617.427 199.897 Z" fill="#000000" fill-rule="nonzero" fill-opacity="1" /><path clip-path="url(#clip780)" d="M642.381 222.883 Q637.219 222.883 635.228 224.064 Q633.237 225.244 633.237 228.092 Q633.237 230.36 634.719 231.703 Q636.223 233.022 638.793 233.022 Q642.334 233.022 644.464 230.522 Q646.617 227.999 646.617 223.832 L646.617 222.883 L642.381 222.883 M650.876 221.124 L650.876 235.916 L646.617 235.916 L646.617 231.981 Q645.158 234.342 642.982 235.476 Q640.807 236.587 637.658 236.587 Q633.677 236.587 631.316 234.365 Q628.978 232.119 628.978 228.369 Q628.978 223.994 631.895 221.772 Q634.834 219.55 640.645 219.55 L646.617 219.55 L646.617 219.133 Q646.617 216.194 644.672 214.596 Q642.751 212.976 639.256 212.976 Q637.033 212.976 634.927 213.508 Q632.82 214.041 630.876 215.106 L630.876 211.17 Q633.214 210.268 635.413 209.828 Q637.612 209.365 639.695 209.365 Q645.32 209.365 648.098 212.282 Q650.876 215.198 650.876 221.124 Z" fill="#000000" fill-rule="nonzero" fill-opacity="1" /><path clip-path="url(#clip780)" d="M674.672 213.971 Q673.955 213.555 673.098 213.37 Q672.265 213.161 671.246 213.161 Q667.635 213.161 665.691 215.522 Q663.769 217.86 663.769 222.258 L663.769 235.916 L659.487 235.916 L659.487 209.99 L663.769 209.99 L663.769 214.018 Q665.112 211.657 667.265 210.522 Q669.418 209.365 672.496 209.365 Q672.936 209.365 673.468 209.434 Q674.001 209.481 674.649 209.596 L674.672 213.971 Z" fill="#000000" fill-rule="nonzero" fill-opacity="1" /><path clip-path="url(#clip780)" d="M679.14 209.99 L683.399 209.99 L683.399 235.916 L679.14 235.916 L679.14 209.99 M679.14 199.897 L683.399 199.897 L683.399 205.291 L679.14 205.291 L679.14 199.897 Z" fill="#000000" fill-rule="nonzero" fill-opacity="1" /><path clip-path="url(#clip780)" d="M696.524 202.629 L696.524 209.99 L705.297 209.99 L705.297 213.3 L696.524 213.3 L696.524 227.374 Q696.524 230.545 697.38 231.448 Q698.26 232.351 700.922 232.351 L705.297 232.351 L705.297 235.916 L700.922 235.916 Q695.991 235.916 694.116 234.087 Q692.241 232.235 692.241 227.374 L692.241 213.3 L689.116 213.3 L689.116 209.99 L692.241 209.99 L692.241 202.629 L696.524 202.629 Z" fill="#000000" fill-rule="nonzero" fill-opacity="1" /><path clip-path="url(#clip780)" d="M721.686 238.323 Q719.88 242.953 718.167 244.365 Q716.454 245.777 713.584 245.777 L710.181 245.777 L710.181 242.212 L712.681 242.212 Q714.44 242.212 715.413 241.379 Q716.385 240.545 717.565 237.443 L718.329 235.499 L707.843 209.99 L712.357 209.99 L720.459 230.268 L728.561 209.99 L733.075 209.99 L721.686 238.323 Z" fill="#000000" fill-rule="nonzero" fill-opacity="1" /></svg>
