<?xml version="1.0" encoding="utf-8"?>
<svg xmlns="http://www.w3.org/2000/svg" xmlns:xlink="http://www.w3.org/1999/xlink" width="600" height="400" viewBox="0 0 2400 1600">
<defs>
  <clipPath id="clip230">
    <rect x="0" y="0" width="2400" height="1600"/>
  </clipPath>
</defs>
<path clip-path="url(#clip230)" d="M0 1600 L2400 1600 L2400 8.88178e-14 L0 8.88178e-14  Z" fill="#ffffff" fill-rule="evenodd" fill-opacity="1"/>
<defs>
  <clipPath id="clip231">
    <rect x="480" y="0" width="1681" height="1600"/>
  </clipPath>
</defs>
<path clip-path="url(#clip230)" d="M256.209 1423.18 L2352.76 1423.18 L2352.76 123.472 L256.209 123.472  Z" fill="#ffffff" fill-rule="evenodd" fill-opacity="1"/>
<defs>
  <clipPath id="clip232">
    <rect x="256" y="123" width="2098" height="1301"/>
  </clipPath>
</defs>
<polyline clip-path="url(#clip232)" style="stroke:#000000; stroke-linecap:round; stroke-linejoin:round; stroke-width:2; stroke-opacity:0.1; fill:none" points="313.565,1423.18 313.565,123.472 "/>
<polyline clip-path="url(#clip232)" style="stroke:#000000; stroke-linecap:round; stroke-linejoin:round; stroke-width:2; stroke-opacity:0.1; fill:none" points="808.529,1423.18 808.529,123.472 "/>
<polyline clip-path="url(#clip232)" style="stroke:#000000; stroke-linecap:round; stroke-linejoin:round; stroke-width:2; stroke-opacity:0.1; fill:none" points="1303.49,1423.18 1303.49,123.472 "/>
<polyline clip-path="url(#clip232)" style="stroke:#000000; stroke-linecap:round; stroke-linejoin:round; stroke-width:2; stroke-opacity:0.1; fill:none" points="1798.46,1423.18 1798.46,123.472 "/>
<polyline clip-path="url(#clip232)" style="stroke:#000000; stroke-linecap:round; stroke-linejoin:round; stroke-width:2; stroke-opacity:0.1; fill:none" points="2293.42,1423.18 2293.42,123.472 "/>
<polyline clip-path="url(#clip230)" style="stroke:#000000; stroke-linecap:round; stroke-linejoin:round; stroke-width:4; stroke-opacity:1; fill:none" points="256.209,1423.18 2352.76,1423.18 "/>
<polyline clip-path="url(#clip230)" style="stroke:#000000; stroke-linecap:round; stroke-linejoin:round; stroke-width:4; stroke-opacity:1; fill:none" points="313.565,1423.18 313.565,1404.28 "/>
<polyline clip-path="url(#clip230)" style="stroke:#000000; stroke-linecap:round; stroke-linejoin:round; stroke-width:4; stroke-opacity:1; fill:none" points="808.529,1423.18 808.529,1404.28 "/>
<polyline clip-path="url(#clip230)" style="stroke:#000000; stroke-linecap:round; stroke-linejoin:round; stroke-width:4; stroke-opacity:1; fill:none" points="1303.49,1423.18 1303.49,1404.28 "/>
<polyline clip-path="url(#clip230)" style="stroke:#000000; stroke-linecap:round; stroke-linejoin:round; stroke-width:4; stroke-opacity:1; fill:none" points="1798.46,1423.18 1798.46,1404.28 "/>
<polyline clip-path="url(#clip230)" style="stroke:#000000; stroke-linecap:round; stroke-linejoin:round; stroke-width:4; stroke-opacity:1; fill:none" points="2293.42,1423.18 2293.42,1404.28 "/>
<path clip-path="url(#clip230)" d="M313.565 1454.1 Q309.954 1454.1 308.125 1457.66 Q306.32 1461.2 306.32 1468.33 Q306.32 1475.44 308.125 1479.01 Q309.954 1482.55 313.565 1482.55 Q317.199 1482.55 319.005 1479.01 Q320.834 1475.44 320.834 1468.33 Q320.834 1461.2 319.005 1457.66 Q317.199 1454.1 313.565 1454.1 M313.565 1450.39 Q319.375 1450.39 322.431 1455 Q325.509 1459.58 325.509 1468.33 Q325.509 1477.06 322.431 1481.67 Q319.375 1486.25 313.565 1486.25 Q307.755 1486.25 304.676 1481.67 Q301.621 1477.06 301.621 1468.33 Q301.621 1459.58 304.676 1455 Q307.755 1450.39 313.565 1450.39 Z" fill="#000000" fill-rule="nonzero" fill-opacity="1" /><path clip-path="url(#clip230)" d="M772.221 1481.64 L788.54 1481.64 L788.54 1485.58 L766.596 1485.58 L766.596 1481.64 Q769.258 1478.89 773.841 1474.26 Q778.448 1469.61 779.628 1468.27 Q781.874 1465.74 782.753 1464.01 Q783.656 1462.25 783.656 1460.56 Q783.656 1457.8 781.712 1456.07 Q779.79 1454.33 776.689 1454.33 Q774.49 1454.33 772.036 1455.09 Q769.605 1455.86 766.828 1457.41 L766.828 1452.69 Q769.652 1451.55 772.105 1450.97 Q774.559 1450.39 776.596 1450.39 Q781.966 1450.39 785.161 1453.08 Q788.355 1455.77 788.355 1460.26 Q788.355 1462.39 787.545 1464.31 Q786.758 1466.2 784.652 1468.8 Q784.073 1469.47 780.971 1472.69 Q777.869 1475.88 772.221 1481.64 Z" fill="#000000" fill-rule="nonzero" fill-opacity="1" /><path clip-path="url(#clip230)" d="M798.401 1451.02 L816.758 1451.02 L816.758 1454.96 L802.684 1454.96 L802.684 1463.43 Q803.702 1463.08 804.721 1462.92 Q805.739 1462.73 806.758 1462.73 Q812.545 1462.73 815.924 1465.9 Q819.304 1469.08 819.304 1474.49 Q819.304 1480.07 815.832 1483.17 Q812.36 1486.25 806.04 1486.25 Q803.864 1486.25 801.596 1485.88 Q799.351 1485.51 796.943 1484.77 L796.943 1480.07 Q799.026 1481.2 801.249 1481.76 Q803.471 1482.32 805.948 1482.32 Q809.952 1482.32 812.29 1480.21 Q814.628 1478.1 814.628 1474.49 Q814.628 1470.88 812.29 1468.77 Q809.952 1466.67 805.948 1466.67 Q804.073 1466.67 802.198 1467.08 Q800.346 1467.5 798.401 1468.38 L798.401 1451.02 Z" fill="#000000" fill-rule="nonzero" fill-opacity="1" /><path clip-path="url(#clip230)" d="M838.517 1454.1 Q834.906 1454.1 833.077 1457.66 Q831.272 1461.2 831.272 1468.33 Q831.272 1475.44 833.077 1479.01 Q834.906 1482.55 838.517 1482.55 Q842.151 1482.55 843.957 1479.01 Q845.785 1475.44 845.785 1468.33 Q845.785 1461.2 843.957 1457.66 Q842.151 1454.1 838.517 1454.1 M838.517 1450.39 Q844.327 1450.39 847.383 1455 Q850.461 1459.58 850.461 1468.33 Q850.461 1477.06 847.383 1481.67 Q844.327 1486.25 838.517 1486.25 Q832.707 1486.25 829.628 1481.67 Q826.573 1477.06 826.573 1468.33 Q826.573 1459.58 829.628 1455 Q832.707 1450.39 838.517 1450.39 Z" fill="#000000" fill-rule="nonzero" fill-opacity="1" /><path clip-path="url(#clip230)" d="M1263.11 1451.02 L1281.47 1451.02 L1281.47 1454.96 L1267.39 1454.96 L1267.39 1463.43 Q1268.41 1463.08 1269.43 1462.92 Q1270.45 1462.73 1271.47 1462.73 Q1277.25 1462.73 1280.63 1465.9 Q1284.01 1469.08 1284.01 1474.49 Q1284.01 1480.07 1280.54 1483.17 Q1277.07 1486.25 1270.75 1486.25 Q1268.57 1486.25 1266.31 1485.88 Q1264.06 1485.51 1261.65 1484.77 L1261.65 1480.07 Q1263.74 1481.2 1265.96 1481.76 Q1268.18 1482.32 1270.66 1482.32 Q1274.66 1482.32 1277 1480.21 Q1279.34 1478.1 1279.34 1474.49 Q1279.34 1470.88 1277 1468.77 Q1274.66 1466.67 1270.66 1466.67 Q1268.78 1466.67 1266.91 1467.08 Q1265.06 1467.5 1263.11 1468.38 L1263.11 1451.02 Z" fill="#000000" fill-rule="nonzero" fill-opacity="1" /><path clip-path="url(#clip230)" d="M1303.23 1454.1 Q1299.62 1454.1 1297.79 1457.66 Q1295.98 1461.2 1295.98 1468.33 Q1295.98 1475.44 1297.79 1479.01 Q1299.62 1482.55 1303.23 1482.55 Q1306.86 1482.55 1308.67 1479.01 Q1310.49 1475.44 1310.49 1468.33 Q1310.49 1461.2 1308.67 1457.66 Q1306.86 1454.1 1303.23 1454.1 M1303.23 1450.39 Q1309.04 1450.39 1312.09 1455 Q1315.17 1459.58 1315.17 1468.33 Q1315.17 1477.06 1312.09 1481.67 Q1309.04 1486.25 1303.23 1486.25 Q1297.42 1486.25 1294.34 1481.67 Q1291.28 1477.06 1291.28 1468.33 Q1291.28 1459.58 1294.34 1455 Q1297.42 1450.39 1303.23 1450.39 Z" fill="#000000" fill-rule="nonzero" fill-opacity="1" /><path clip-path="url(#clip230)" d="M1333.39 1454.1 Q1329.78 1454.1 1327.95 1457.66 Q1326.14 1461.2 1326.14 1468.33 Q1326.14 1475.44 1327.95 1479.01 Q1329.78 1482.55 1333.39 1482.55 Q1337.02 1482.55 1338.83 1479.01 Q1340.66 1475.44 1340.66 1468.33 Q1340.66 1461.2 1338.83 1457.66 Q1337.02 1454.1 1333.39 1454.1 M1333.39 1450.39 Q1339.2 1450.39 1342.25 1455 Q1345.33 1459.58 1345.33 1468.33 Q1345.33 1477.06 1342.25 1481.67 Q1339.2 1486.25 1333.39 1486.25 Q1327.58 1486.25 1324.5 1481.67 Q1321.44 1477.06 1321.44 1468.33 Q1321.44 1459.58 1324.5 1455 Q1327.58 1450.39 1333.39 1450.39 Z" fill="#000000" fill-rule="nonzero" fill-opacity="1" /><path clip-path="url(#clip230)" d="M1756.73 1451.02 L1778.95 1451.02 L1778.95 1453.01 L1766.41 1485.58 L1761.52 1485.58 L1773.33 1454.96 L1756.73 1454.96 L1756.73 1451.02 Z" fill="#000000" fill-rule="nonzero" fill-opacity="1" /><path clip-path="url(#clip230)" d="M1788.12 1451.02 L1806.48 1451.02 L1806.48 1454.96 L1792.4 1454.96 L1792.4 1463.43 Q1793.42 1463.08 1794.44 1462.92 Q1795.46 1462.73 1796.48 1462.73 Q1802.26 1462.73 1805.64 1465.9 Q1809.02 1469.08 1809.02 1474.49 Q1809.02 1480.07 1805.55 1483.17 Q1802.08 1486.25 1795.76 1486.25 Q1793.58 1486.25 1791.31 1485.88 Q1789.07 1485.51 1786.66 1484.77 L1786.66 1480.07 Q1788.75 1481.2 1790.97 1481.76 Q1793.19 1482.32 1795.67 1482.32 Q1799.67 1482.32 1802.01 1480.21 Q1804.35 1478.1 1804.35 1474.49 Q1804.35 1470.88 1802.01 1468.77 Q1799.67 1466.67 1795.67 1466.67 Q1793.79 1466.67 1791.92 1467.08 Q1790.06 1467.5 1788.12 1468.38 L1788.12 1451.02 Z" fill="#000000" fill-rule="nonzero" fill-opacity="1" /><path clip-path="url(#clip230)" d="M1828.24 1454.1 Q1824.62 1454.1 1822.8 1457.66 Q1820.99 1461.2 1820.99 1468.33 Q1820.99 1475.44 1822.8 1479.01 Q1824.62 1482.55 1828.24 1482.55 Q1831.87 1482.55 1833.68 1479.01 Q1835.5 1475.44 1835.5 1468.33 Q1835.5 1461.2 1833.68 1457.66 Q1831.87 1454.1 1828.24 1454.1 M1828.24 1450.39 Q1834.05 1450.39 1837.1 1455 Q1840.18 1459.58 1840.18 1468.33 Q1840.18 1477.06 1837.1 1481.67 Q1834.05 1486.25 1828.24 1486.25 Q1822.43 1486.25 1819.35 1481.67 Q1816.29 1477.06 1816.29 1468.33 Q1816.29 1459.58 1819.35 1455 Q1822.43 1450.39 1828.24 1450.39 Z" fill="#000000" fill-rule="nonzero" fill-opacity="1" /><path clip-path="url(#clip230)" d="M2237.95 1481.64 L2245.58 1481.64 L2245.58 1455.28 L2237.27 1456.95 L2237.27 1452.69 L2245.54 1451.02 L2250.21 1451.02 L2250.21 1481.64 L2257.85 1481.64 L2257.85 1485.58 L2237.95 1485.58 L2237.95 1481.64 Z" fill="#000000" fill-rule="nonzero" fill-opacity="1" /><path clip-path="url(#clip230)" d="M2277.3 1454.1 Q2273.69 1454.1 2271.86 1457.66 Q2270.05 1461.2 2270.05 1468.33 Q2270.05 1475.44 2271.86 1479.01 Q2273.69 1482.55 2277.3 1482.55 Q2280.93 1482.55 2282.74 1479.01 Q2284.57 1475.44 2284.57 1468.33 Q2284.57 1461.2 2282.74 1457.66 Q2280.93 1454.1 2277.3 1454.1 M2277.3 1450.39 Q2283.11 1450.39 2286.16 1455 Q2289.24 1459.58 2289.24 1468.33 Q2289.24 1477.06 2286.16 1481.67 Q2283.11 1486.25 2277.3 1486.25 Q2271.49 1486.25 2268.41 1481.67 Q2265.35 1477.06 2265.35 1468.33 Q2265.35 1459.58 2268.41 1455 Q2271.49 1450.39 2277.3 1450.39 Z" fill="#000000" fill-rule="nonzero" fill-opacity="1" /><path clip-path="url(#clip230)" d="M2307.46 1454.1 Q2303.85 1454.1 2302.02 1457.66 Q2300.21 1461.2 2300.21 1468.33 Q2300.21 1475.44 2302.02 1479.01 Q2303.85 1482.55 2307.46 1482.55 Q2311.09 1482.55 2312.9 1479.01 Q2314.73 1475.44 2314.73 1468.33 Q2314.73 1461.2 2312.9 1457.66 Q2311.09 1454.1 2307.46 1454.1 M2307.46 1450.39 Q2313.27 1450.39 2316.32 1455 Q2319.4 1459.58 2319.4 1468.33 Q2319.4 1477.06 2316.32 1481.67 Q2313.27 1486.25 2307.46 1486.25 Q2301.65 1486.25 2298.57 1481.67 Q2295.51 1477.06 2295.51 1468.33 Q2295.51 1459.58 2298.57 1455 Q2301.65 1450.39 2307.46 1450.39 Z" fill="#000000" fill-rule="nonzero" fill-opacity="1" /><path clip-path="url(#clip230)" d="M2337.62 1454.1 Q2334.01 1454.1 2332.18 1457.66 Q2330.38 1461.2 2330.38 1468.33 Q2330.38 1475.44 2332.18 1479.01 Q2334.01 1482.55 2337.62 1482.55 Q2341.26 1482.55 2343.06 1479.01 Q2344.89 1475.44 2344.89 1468.33 Q2344.89 1461.2 2343.06 1457.66 Q2341.26 1454.1 2337.62 1454.1 M2337.62 1450.39 Q2343.43 1450.39 2346.49 1455 Q2349.57 1459.58 2349.57 1468.33 Q2349.57 1477.06 2346.49 1481.67 Q2343.43 1486.25 2337.62 1486.25 Q2331.81 1486.25 2328.73 1481.67 Q2325.68 1477.06 2325.68 1468.33 Q2325.68 1459.58 2328.73 1455 Q2331.81 1450.39 2337.62 1450.39 Z" fill="#000000" fill-rule="nonzero" fill-opacity="1" /><path clip-path="url(#clip230)" d="M1268.33 1524.18 L1268.33 1530.96 Q1265.08 1527.94 1261.39 1526.44 Q1257.73 1524.95 1253.59 1524.95 Q1245.44 1524.95 1241.11 1529.95 Q1236.78 1534.91 1236.78 1544.33 Q1236.78 1553.72 1241.11 1558.72 Q1245.44 1563.68 1253.59 1563.68 Q1257.73 1563.68 1261.39 1562.19 Q1265.08 1560.69 1268.33 1557.67 L1268.33 1564.38 Q1264.95 1566.68 1261.16 1567.82 Q1257.41 1568.97 1253.21 1568.97 Q1242.42 1568.97 1236.21 1562.38 Q1230 1555.76 1230 1544.33 Q1230 1532.87 1236.21 1526.28 Q1242.42 1519.66 1253.21 1519.66 Q1257.47 1519.66 1261.23 1520.81 Q1265.01 1521.92 1268.33 1524.18 Z" fill="#000000" fill-rule="nonzero" fill-opacity="1" /><path clip-path="url(#clip230)" d="M1308.49 1548.76 L1308.49 1551.62 L1281.57 1551.62 Q1281.95 1557.67 1285.19 1560.85 Q1288.47 1564 1294.3 1564 Q1297.67 1564 1300.82 1563.17 Q1304 1562.35 1307.12 1560.69 L1307.12 1566.23 Q1303.97 1567.57 1300.66 1568.27 Q1297.35 1568.97 1293.95 1568.97 Q1285.42 1568.97 1280.42 1564 Q1275.45 1559.04 1275.45 1550.57 Q1275.45 1541.82 1280.17 1536.69 Q1284.91 1531.54 1292.93 1531.54 Q1300.12 1531.54 1304.29 1536.18 Q1308.49 1540.8 1308.49 1548.76 M1302.64 1547.04 Q1302.57 1542.23 1299.93 1539.37 Q1297.32 1536.5 1292.99 1536.5 Q1288.09 1536.5 1285.13 1539.27 Q1282.2 1542.04 1281.76 1547.07 L1302.64 1547.04 Z" fill="#000000" fill-rule="nonzero" fill-opacity="1" /><path clip-path="url(#clip230)" d="M1318.1 1518.52 L1323.96 1518.52 L1323.96 1568.04 L1318.1 1568.04 L1318.1 1518.52 Z" fill="#000000" fill-rule="nonzero" fill-opacity="1" /><path clip-path="url(#clip230)" d="M1336.22 1518.52 L1342.07 1518.52 L1342.07 1568.04 L1336.22 1568.04 L1336.22 1518.52 Z" fill="#000000" fill-rule="nonzero" fill-opacity="1" /><path clip-path="url(#clip230)" d="M1377.05 1533.45 L1377.05 1538.98 Q1374.57 1537.71 1371.9 1537.07 Q1369.22 1536.44 1366.36 1536.44 Q1362 1536.44 1359.8 1537.77 Q1357.64 1539.11 1357.64 1541.79 Q1357.64 1543.82 1359.2 1545 Q1360.76 1546.15 1365.47 1547.2 L1367.47 1547.64 Q1373.71 1548.98 1376.32 1551.43 Q1378.96 1553.85 1378.96 1558.21 Q1378.96 1563.17 1375.01 1566.07 Q1371.1 1568.97 1364.22 1568.97 Q1361.36 1568.97 1358.24 1568.39 Q1355.15 1567.85 1351.72 1566.74 L1351.72 1560.69 Q1354.96 1562.38 1358.11 1563.24 Q1361.26 1564.07 1364.35 1564.07 Q1368.49 1564.07 1370.72 1562.66 Q1372.95 1561.23 1372.95 1558.65 Q1372.95 1556.27 1371.32 1554.99 Q1369.73 1553.72 1364.29 1552.54 L1362.25 1552.07 Q1356.81 1550.92 1354.39 1548.56 Q1351.97 1546.18 1351.97 1542.04 Q1351.97 1537.01 1355.54 1534.27 Q1359.1 1531.54 1365.66 1531.54 Q1368.9 1531.54 1371.77 1532.01 Q1374.63 1532.49 1377.05 1533.45 Z" fill="#000000" fill-rule="nonzero" fill-opacity="1" /><polyline clip-path="url(#clip232)" style="stroke:#000000; stroke-linecap:round; stroke-linejoin:round; stroke-width:2; stroke-opacity:0.1; fill:none" points="256.209,1204.64 2352.76,1204.64 "/>
<polyline clip-path="url(#clip232)" style="stroke:#000000; stroke-linecap:round; stroke-linejoin:round; stroke-width:2; stroke-opacity:0.1; fill:none" points="256.209,850.314 2352.76,850.314 "/>
<polyline clip-path="url(#clip232)" style="stroke:#000000; stroke-linecap:round; stroke-linejoin:round; stroke-width:2; stroke-opacity:0.1; fill:none" points="256.209,495.989 2352.76,495.989 "/>
<polyline clip-path="url(#clip232)" style="stroke:#000000; stroke-linecap:round; stroke-linejoin:round; stroke-width:2; stroke-opacity:0.1; fill:none" points="256.209,141.665 2352.76,141.665 "/>
<polyline clip-path="url(#clip230)" style="stroke:#000000; stroke-linecap:round; stroke-linejoin:round; stroke-width:4; stroke-opacity:1; fill:none" points="256.209,1423.18 256.209,123.472 "/>
<polyline clip-path="url(#clip230)" style="stroke:#000000; stroke-linecap:round; stroke-linejoin:round; stroke-width:4; stroke-opacity:1; fill:none" points="256.209,1204.64 275.106,1204.64 "/>
<polyline clip-path="url(#clip230)" style="stroke:#000000; stroke-linecap:round; stroke-linejoin:round; stroke-width:4; stroke-opacity:1; fill:none" points="256.209,850.314 275.106,850.314 "/>
<polyline clip-path="url(#clip230)" style="stroke:#000000; stroke-linecap:round; stroke-linejoin:round; stroke-width:4; stroke-opacity:1; fill:none" points="256.209,495.989 275.106,495.989 "/>
<polyline clip-path="url(#clip230)" style="stroke:#000000; stroke-linecap:round; stroke-linejoin:round; stroke-width:4; stroke-opacity:1; fill:none" points="256.209,141.665 275.106,141.665 "/>
<path clip-path="url(#clip230)" d="M114.26 1205.09 L143.936 1205.09 L143.936 1209.03 L114.26 1209.03 L114.26 1205.09 Z" fill="#000000" fill-rule="nonzero" fill-opacity="1" /><path clip-path="url(#clip230)" d="M164.028 1190.44 Q160.417 1190.44 158.589 1194 Q156.783 1197.54 156.783 1204.67 Q156.783 1211.78 158.589 1215.34 Q160.417 1218.89 164.028 1218.89 Q167.663 1218.89 169.468 1215.34 Q171.297 1211.78 171.297 1204.67 Q171.297 1197.54 169.468 1194 Q167.663 1190.44 164.028 1190.44 M164.028 1186.73 Q169.839 1186.73 172.894 1191.34 Q175.973 1195.92 175.973 1204.67 Q175.973 1213.4 172.894 1218.01 Q169.839 1222.59 164.028 1222.59 Q158.218 1222.59 155.14 1218.01 Q152.084 1213.4 152.084 1204.67 Q152.084 1195.92 155.14 1191.34 Q158.218 1186.73 164.028 1186.73 Z" fill="#000000" fill-rule="nonzero" fill-opacity="1" /><path clip-path="url(#clip230)" d="M184.19 1216.04 L189.075 1216.04 L189.075 1221.92 L184.19 1221.92 L184.19 1216.04 Z" fill="#000000" fill-rule="nonzero" fill-opacity="1" /><path clip-path="url(#clip230)" d="M199.306 1187.36 L217.662 1187.36 L217.662 1191.29 L203.588 1191.29 L203.588 1199.77 Q204.607 1199.42 205.625 1199.26 Q206.644 1199.07 207.662 1199.07 Q213.449 1199.07 216.829 1202.24 Q220.209 1205.41 220.209 1210.83 Q220.209 1216.41 216.736 1219.51 Q213.264 1222.59 206.945 1222.59 Q204.769 1222.59 202.5 1222.22 Q200.255 1221.85 197.848 1221.11 L197.848 1216.41 Q199.931 1217.54 202.153 1218.1 Q204.375 1218.65 206.852 1218.65 Q210.857 1218.65 213.195 1216.55 Q215.533 1214.44 215.533 1210.83 Q215.533 1207.22 213.195 1205.11 Q210.857 1203.01 206.852 1203.01 Q204.977 1203.01 203.102 1203.42 Q201.25 1203.84 199.306 1204.72 L199.306 1187.36 Z" fill="#000000" fill-rule="nonzero" fill-opacity="1" /><path clip-path="url(#clip230)" d="M163.033 836.113 Q159.422 836.113 157.593 839.677 Q155.788 843.219 155.788 850.349 Q155.788 857.455 157.593 861.02 Q159.422 864.562 163.033 864.562 Q166.667 864.562 168.473 861.02 Q170.302 857.455 170.302 850.349 Q170.302 843.219 168.473 839.677 Q166.667 836.113 163.033 836.113 M163.033 832.409 Q168.843 832.409 171.899 837.015 Q174.977 841.599 174.977 850.349 Q174.977 859.075 171.899 863.682 Q168.843 868.265 163.033 868.265 Q157.223 868.265 154.144 863.682 Q151.089 859.075 151.089 850.349 Q151.089 841.599 154.144 837.015 Q157.223 832.409 163.033 832.409 Z" fill="#000000" fill-rule="nonzero" fill-opacity="1" /><path clip-path="url(#clip230)" d="M183.195 861.714 L188.079 861.714 L188.079 867.594 L183.195 867.594 L183.195 861.714 Z" fill="#000000" fill-rule="nonzero" fill-opacity="1" /><path clip-path="url(#clip230)" d="M208.264 836.113 Q204.653 836.113 202.824 839.677 Q201.019 843.219 201.019 850.349 Q201.019 857.455 202.824 861.02 Q204.653 864.562 208.264 864.562 Q211.899 864.562 213.704 861.02 Q215.533 857.455 215.533 850.349 Q215.533 843.219 213.704 839.677 Q211.899 836.113 208.264 836.113 M208.264 832.409 Q214.074 832.409 217.13 837.015 Q220.209 841.599 220.209 850.349 Q220.209 859.075 217.13 863.682 Q214.074 868.265 208.264 868.265 Q202.454 868.265 199.375 863.682 Q196.32 859.075 196.32 850.349 Q196.32 841.599 199.375 837.015 Q202.454 832.409 208.264 832.409 Z" fill="#000000" fill-rule="nonzero" fill-opacity="1" /><path clip-path="url(#clip230)" d="M164.028 481.788 Q160.417 481.788 158.589 485.353 Q156.783 488.895 156.783 496.024 Q156.783 503.131 158.589 506.695 Q160.417 510.237 164.028 510.237 Q167.663 510.237 169.468 506.695 Q171.297 503.131 171.297 496.024 Q171.297 488.895 169.468 485.353 Q167.663 481.788 164.028 481.788 M164.028 478.084 Q169.839 478.084 172.894 482.691 Q175.973 487.274 175.973 496.024 Q175.973 504.751 172.894 509.357 Q169.839 513.941 164.028 513.941 Q158.218 513.941 155.14 509.357 Q152.084 504.751 152.084 496.024 Q152.084 487.274 155.14 482.691 Q158.218 478.084 164.028 478.084 Z" fill="#000000" fill-rule="nonzero" fill-opacity="1" /><path clip-path="url(#clip230)" d="M184.19 507.39 L189.075 507.39 L189.075 513.269 L184.19 513.269 L184.19 507.39 Z" fill="#000000" fill-rule="nonzero" fill-opacity="1" /><path clip-path="url(#clip230)" d="M199.306 478.709 L217.662 478.709 L217.662 482.645 L203.588 482.645 L203.588 491.117 Q204.607 490.77 205.625 490.607 Q206.644 490.422 207.662 490.422 Q213.449 490.422 216.829 493.594 Q220.209 496.765 220.209 502.181 Q220.209 507.76 216.736 510.862 Q213.264 513.941 206.945 513.941 Q204.769 513.941 202.5 513.57 Q200.255 513.2 197.848 512.459 L197.848 507.76 Q199.931 508.894 202.153 509.45 Q204.375 510.006 206.852 510.006 Q210.857 510.006 213.195 507.899 Q215.533 505.793 215.533 502.181 Q215.533 498.57 213.195 496.464 Q210.857 494.357 206.852 494.357 Q204.977 494.357 203.102 494.774 Q201.25 495.191 199.306 496.07 L199.306 478.709 Z" fill="#000000" fill-rule="nonzero" fill-opacity="1" /><path clip-path="url(#clip230)" d="M153.843 155.01 L161.482 155.01 L161.482 128.644 L153.172 130.311 L153.172 126.051 L161.436 124.385 L166.112 124.385 L166.112 155.01 L173.751 155.01 L173.751 158.945 L153.843 158.945 L153.843 155.01 Z" fill="#000000" fill-rule="nonzero" fill-opacity="1" /><path clip-path="url(#clip230)" d="M183.195 153.065 L188.079 153.065 L188.079 158.945 L183.195 158.945 L183.195 153.065 Z" fill="#000000" fill-rule="nonzero" fill-opacity="1" /><path clip-path="url(#clip230)" d="M208.264 127.463 Q204.653 127.463 202.824 131.028 Q201.019 134.57 201.019 141.7 Q201.019 148.806 202.824 152.371 Q204.653 155.912 208.264 155.912 Q211.899 155.912 213.704 152.371 Q215.533 148.806 215.533 141.7 Q215.533 134.57 213.704 131.028 Q211.899 127.463 208.264 127.463 M208.264 123.76 Q214.074 123.76 217.13 128.366 Q220.209 132.95 220.209 141.7 Q220.209 150.426 217.13 155.033 Q214.074 159.616 208.264 159.616 Q202.454 159.616 199.375 155.033 Q196.32 150.426 196.32 141.7 Q196.32 132.95 199.375 128.366 Q202.454 123.76 208.264 123.76 Z" fill="#000000" fill-rule="nonzero" fill-opacity="1" /><path clip-path="url(#clip230)" d="M18.0438 893.717 L24.314 893.717 Q22.5634 897.378 21.704 900.624 Q20.8447 903.871 20.8447 906.894 Q20.8447 912.146 22.8817 915.011 Q24.9187 917.843 28.6745 917.843 Q31.8255 917.843 33.4488 915.966 Q35.0402 914.056 36.0269 908.772 L36.8226 904.889 Q38.1912 897.696 41.6605 894.29 Q45.098 890.853 50.8908 890.853 Q57.7976 890.853 61.3624 895.5 Q64.9272 900.115 64.9272 909.059 Q64.9272 912.433 64.1633 916.252 Q63.3994 920.04 61.9035 924.114 L55.2831 924.114 Q57.4793 920.199 58.5933 916.443 Q59.7073 912.687 59.7073 909.059 Q59.7073 903.552 57.543 900.561 Q55.3786 897.569 51.3682 897.569 Q47.8671 897.569 45.8937 899.733 Q43.9204 901.866 42.9337 906.767 L42.1698 910.682 Q40.7375 917.875 37.682 921.09 Q34.6264 924.305 29.1837 924.305 Q22.8817 924.305 19.2532 919.88 Q15.6248 915.424 15.6248 907.626 Q15.6248 904.284 16.2295 900.815 Q16.8343 897.346 18.0438 893.717 Z" fill="#000000" fill-rule="nonzero" fill-opacity="1" /><path clip-path="url(#clip230)" d="M28.3562 881.081 L28.3562 875.225 L64.0042 875.225 L64.0042 881.081 L28.3562 881.081 M14.479 881.081 L14.479 875.225 L21.895 875.225 L21.895 881.081 L14.479 881.081 Z" fill="#000000" fill-rule="nonzero" fill-opacity="1" /><path clip-path="url(#clip230)" d="M35.1993 835.217 Q31.2526 833.02 29.3747 829.965 Q27.4968 826.909 27.4968 822.772 Q27.4968 817.202 31.4117 814.178 Q35.2948 811.154 42.4881 811.154 L64.0042 811.154 L64.0042 817.042 L42.679 817.042 Q37.5546 817.042 35.072 818.857 Q32.5894 820.671 32.5894 824.395 Q32.5894 828.946 35.6131 831.588 Q38.6368 834.23 43.8567 834.23 L64.0042 834.23 L64.0042 840.118 L42.679 840.118 Q37.5228 840.118 35.072 841.932 Q32.5894 843.747 32.5894 847.534 Q32.5894 852.022 35.6449 854.664 Q38.6686 857.306 43.8567 857.306 L64.0042 857.306 L64.0042 863.194 L28.3562 863.194 L28.3562 857.306 L33.8944 857.306 Q30.616 855.3 29.0564 852.499 Q27.4968 849.699 27.4968 845.847 Q27.4968 841.964 29.4702 839.259 Q31.4436 836.522 35.1993 835.217 Z" fill="#000000" fill-rule="nonzero" fill-opacity="1" /><path clip-path="url(#clip230)" d="M28.3562 799.473 L28.3562 793.617 L64.0042 793.617 L64.0042 799.473 L28.3562 799.473 M14.479 799.473 L14.479 793.617 L21.895 793.617 L21.895 799.473 L14.479 799.473 Z" fill="#000000" fill-rule="nonzero" fill-opacity="1" /><path clip-path="url(#clip230)" d="M14.479 781.363 L14.479 775.506 L64.0042 775.506 L64.0042 781.363 L14.479 781.363 Z" fill="#000000" fill-rule="nonzero" fill-opacity="1" /><path clip-path="url(#clip230)" d="M46.0847 747.052 Q46.0847 754.149 47.7079 756.887 Q49.3312 759.624 53.2461 759.624 Q56.3653 759.624 58.2114 757.587 Q60.0256 755.518 60.0256 751.985 Q60.0256 747.115 56.5881 744.187 Q53.1188 741.227 47.3897 741.227 L46.0847 741.227 L46.0847 747.052 M43.6657 735.37 L64.0042 735.37 L64.0042 741.227 L58.5933 741.227 Q61.8398 743.232 63.3994 746.224 Q64.9272 749.216 64.9272 753.545 Q64.9272 759.019 61.8716 762.266 Q58.7843 765.48 53.6281 765.48 Q47.6125 765.48 44.5569 761.47 Q41.5014 757.428 41.5014 749.439 L41.5014 741.227 L40.9285 741.227 Q36.8862 741.227 34.6901 743.901 Q32.4621 746.542 32.4621 751.348 Q32.4621 754.404 33.1941 757.3 Q33.9262 760.197 35.3903 762.87 L29.9795 762.87 Q28.7381 759.656 28.1334 756.632 Q27.4968 753.608 27.4968 750.744 Q27.4968 743.009 31.5072 739.19 Q35.5176 735.37 43.6657 735.37 Z" fill="#000000" fill-rule="nonzero" fill-opacity="1" /><path clip-path="url(#clip230)" d="M33.8307 702.651 Q33.2578 703.637 33.0032 704.815 Q32.7167 705.961 32.7167 707.361 Q32.7167 712.327 35.9632 715 Q39.1779 717.642 45.2253 717.642 L64.0042 717.642 L64.0042 723.53 L28.3562 723.53 L28.3562 717.642 L33.8944 717.642 Q30.6479 715.796 29.0883 712.836 Q27.4968 709.876 27.4968 705.643 Q27.4968 705.038 27.5923 704.306 Q27.656 703.574 27.8151 702.683 L33.8307 702.651 Z" fill="#000000" fill-rule="nonzero" fill-opacity="1" /><path clip-path="url(#clip230)" d="M28.3562 696.508 L28.3562 690.651 L64.0042 690.651 L64.0042 696.508 L28.3562 696.508 M14.479 696.508 L14.479 690.651 L21.895 690.651 L21.895 696.508 L14.479 696.508 Z" fill="#000000" fill-rule="nonzero" fill-opacity="1" /><path clip-path="url(#clip230)" d="M18.2347 672.605 L28.3562 672.605 L28.3562 660.542 L32.9077 660.542 L32.9077 672.605 L52.2594 672.605 Q56.6199 672.605 57.8613 671.427 Q59.1026 670.217 59.1026 666.557 L59.1026 660.542 L64.0042 660.542 L64.0042 666.557 Q64.0042 673.337 61.4897 675.915 Q58.9434 678.493 52.2594 678.493 L32.9077 678.493 L32.9077 682.79 L28.3562 682.79 L28.3562 678.493 L18.2347 678.493 L18.2347 672.605 Z" fill="#000000" fill-rule="nonzero" fill-opacity="1" /><path clip-path="url(#clip230)" d="M67.3143 638.007 Q73.68 640.49 75.6216 642.845 Q77.5631 645.2 77.5631 649.147 L77.5631 653.826 L72.6615 653.826 L72.6615 650.388 Q72.6615 647.969 71.5157 646.633 Q70.3699 645.296 66.1048 643.672 L63.4312 642.622 L28.3562 657.04 L28.3562 650.834 L56.238 639.694 L28.3562 628.554 L28.3562 622.347 L67.3143 638.007 Z" fill="#000000" fill-rule="nonzero" fill-opacity="1" /><path clip-path="url(#clip230)" d="M423.147 14.0809 L423.147 22.0612 Q418.489 19.8332 414.357 18.7395 Q410.225 17.6457 406.377 17.6457 Q399.693 17.6457 396.047 20.2383 Q392.441 22.8309 392.441 27.611 Q392.441 31.6214 394.831 33.6873 Q397.262 35.7128 403.987 36.9686 L408.929 37.9813 Q418.084 39.7232 422.418 44.1387 Q426.793 48.5136 426.793 55.8863 Q426.793 64.6767 420.879 69.2137 Q415.005 73.7508 403.622 73.7508 Q399.328 73.7508 394.467 72.7785 Q389.646 71.8063 384.461 69.9024 L384.461 61.4765 Q389.444 64.2716 394.224 65.6895 Q399.004 67.1073 403.622 67.1073 Q410.63 67.1073 414.438 64.3527 Q418.246 61.598 418.246 56.4939 Q418.246 52.0379 415.491 49.5264 Q412.777 47.0148 406.539 45.759 L401.556 44.7868 Q392.401 42.9639 388.31 39.075 Q384.218 35.1862 384.218 28.2591 Q384.218 20.2383 389.849 15.6203 Q395.52 11.0023 405.445 11.0023 Q409.698 11.0023 414.114 11.7719 Q418.529 12.5416 423.147 14.0809 Z" fill="#000000" fill-rule="nonzero" fill-opacity="1" /><path clip-path="url(#clip230)" d="M456.81 32.4315 Q450.815 32.4315 447.331 37.1306 Q443.847 41.7891 443.847 49.9314 Q443.847 58.0738 447.291 62.7728 Q450.774 67.4314 456.81 67.4314 Q462.765 67.4314 466.249 62.7323 Q469.733 58.0333 469.733 49.9314 Q469.733 41.8701 466.249 37.1711 Q462.765 32.4315 456.81 32.4315 M456.81 26.1121 Q466.532 26.1121 472.082 32.4315 Q477.632 38.7509 477.632 49.9314 Q477.632 61.0714 472.082 67.4314 Q466.532 73.7508 456.81 73.7508 Q447.048 73.7508 441.498 67.4314 Q435.989 61.0714 435.989 49.9314 Q435.989 38.7509 441.498 32.4315 Q447.048 26.1121 456.81 26.1121 Z" fill="#000000" fill-rule="nonzero" fill-opacity="1" /><path clip-path="url(#clip230)" d="M516.278 34.1734 Q515.022 33.4443 513.523 33.1202 Q512.065 32.7556 510.282 32.7556 Q503.963 32.7556 500.56 36.8875 Q497.198 40.9789 497.198 48.6757 L497.198 72.576 L489.704 72.576 L489.704 27.2059 L497.198 27.2059 L497.198 34.2544 Q499.547 30.1225 503.315 28.1376 Q507.082 26.1121 512.47 26.1121 Q513.239 26.1121 514.171 26.2337 Q515.103 26.3147 516.237 26.5172 L516.278 34.1734 Z" fill="#000000" fill-rule="nonzero" fill-opacity="1" /><path clip-path="url(#clip230)" d="M531.468 14.324 L531.468 27.2059 L546.821 27.2059 L546.821 32.9987 L531.468 32.9987 L531.468 57.6282 Q531.468 63.1779 532.967 64.7578 Q534.507 66.3376 539.165 66.3376 L546.821 66.3376 L546.821 72.576 L539.165 72.576 Q530.537 72.576 527.256 69.3758 Q523.974 66.1351 523.974 57.6282 L523.974 32.9987 L518.506 32.9987 L518.506 27.2059 L523.974 27.2059 L523.974 14.324 L531.468 14.324 Z" fill="#000000" fill-rule="nonzero" fill-opacity="1" /><path clip-path="url(#clip230)" d="M595.432 48.0275 L595.432 51.6733 L561.162 51.6733 Q561.648 59.3701 565.78 63.421 Q569.952 67.4314 577.365 67.4314 Q581.659 67.4314 585.67 66.3781 Q589.72 65.3249 593.69 63.2184 L593.69 70.267 Q589.68 71.9684 585.467 72.8596 Q581.254 73.7508 576.92 73.7508 Q566.063 73.7508 559.703 67.4314 Q553.384 61.1119 553.384 50.3365 Q553.384 39.1965 559.379 32.6746 Q565.415 26.1121 575.623 26.1121 Q584.778 26.1121 590.085 32.0264 Q595.432 37.9003 595.432 48.0275 M587.979 45.84 Q587.898 39.7232 584.535 36.0774 Q581.214 32.4315 575.704 32.4315 Q569.466 32.4315 565.699 35.9558 Q561.972 39.4801 561.405 45.8805 L587.979 45.84 Z" fill="#000000" fill-rule="nonzero" fill-opacity="1" /><path clip-path="url(#clip230)" d="M637.521 34.0924 L637.521 9.54393 L644.975 9.54393 L644.975 72.576 L637.521 72.576 L637.521 65.7705 Q635.172 69.8214 631.566 71.8063 Q628.002 73.7508 622.978 73.7508 Q614.755 73.7508 609.57 67.1883 Q604.425 60.6258 604.425 49.9314 Q604.425 39.2371 609.57 32.6746 Q614.755 26.1121 622.978 26.1121 Q628.002 26.1121 631.566 28.0971 Q635.172 30.0415 637.521 34.0924 M612.122 49.9314 Q612.122 58.1548 615.484 62.8538 Q618.887 67.5124 624.801 67.5124 Q630.716 67.5124 634.118 62.8538 Q637.521 58.1548 637.521 49.9314 Q637.521 41.7081 634.118 37.0496 Q630.716 32.3505 624.801 32.3505 Q618.887 32.3505 615.484 37.0496 Q612.122 41.7081 612.122 49.9314 Z" fill="#000000" fill-rule="nonzero" fill-opacity="1" /><path clip-path="url(#clip230)" d="M719.349 28.9478 L719.349 35.9153 Q716.19 34.1734 712.99 33.3227 Q709.83 32.4315 706.589 32.4315 Q699.338 32.4315 695.328 37.0496 Q691.317 41.6271 691.317 49.9314 Q691.317 58.2358 695.328 62.8538 Q699.338 67.4314 706.589 67.4314 Q709.83 67.4314 712.99 66.5807 Q716.19 65.6895 719.349 63.9476 L719.349 70.8341 Q716.23 72.2924 712.868 73.0216 Q709.546 73.7508 705.779 73.7508 Q695.53 73.7508 689.494 67.3098 Q683.458 60.8689 683.458 49.9314 Q683.458 38.832 689.535 32.472 Q695.652 26.1121 706.265 26.1121 Q709.708 26.1121 712.99 26.8413 Q716.271 27.5299 719.349 28.9478 Z" fill="#000000" fill-rule="nonzero" fill-opacity="1" /><path clip-path="url(#clip230)" d="M749.893 32.4315 Q743.898 32.4315 740.414 37.1306 Q736.93 41.7891 736.93 49.9314 Q736.93 58.0738 740.374 62.7728 Q743.857 67.4314 749.893 67.4314 Q755.848 67.4314 759.332 62.7323 Q762.816 58.0333 762.816 49.9314 Q762.816 41.8701 759.332 37.1711 Q755.848 32.4315 749.893 32.4315 M749.893 26.1121 Q759.615 26.1121 765.165 32.4315 Q770.715 38.7509 770.715 49.9314 Q770.715 61.0714 765.165 67.4314 Q759.615 73.7508 749.893 73.7508 Q740.131 73.7508 734.581 67.4314 Q729.072 61.0714 729.072 49.9314 Q729.072 38.7509 734.581 32.4315 Q740.131 26.1121 749.893 26.1121 Z" fill="#000000" fill-rule="nonzero" fill-opacity="1" /><path clip-path="url(#clip230)" d="M811.994 28.5427 L811.994 35.5912 Q808.834 33.9709 805.431 33.1607 Q802.028 32.3505 798.383 32.3505 Q792.833 32.3505 790.038 34.0519 Q787.283 35.7533 787.283 39.156 Q787.283 41.7486 789.268 43.2475 Q791.253 44.7058 797.248 46.0426 L799.8 46.6097 Q807.74 48.3111 811.062 51.4303 Q814.424 54.509 814.424 60.0587 Q814.424 66.3781 809.401 70.0644 Q804.418 73.7508 795.668 73.7508 Q792.023 73.7508 788.053 73.0216 Q784.123 72.3329 779.748 70.9151 L779.748 63.2184 Q783.88 65.3654 787.891 66.4591 Q791.901 67.5124 795.83 67.5124 Q801.097 67.5124 803.932 65.73 Q806.768 63.9071 806.768 60.6258 Q806.768 57.5877 804.702 55.9673 Q802.677 54.3469 795.749 52.8481 L793.157 52.2405 Q786.23 50.7821 783.151 47.7845 Q780.072 44.7463 780.072 39.4801 Q780.072 33.0797 784.609 29.5959 Q789.147 26.1121 797.491 26.1121 Q801.623 26.1121 805.269 26.7198 Q808.915 27.3274 811.994 28.5427 Z" fill="#000000" fill-rule="nonzero" fill-opacity="1" /><path clip-path="url(#clip230)" d="M826.293 27.2059 L833.747 27.2059 L833.747 72.576 L826.293 72.576 L826.293 27.2059 M826.293 9.54393 L833.747 9.54393 L833.747 18.9825 L826.293 18.9825 L826.293 9.54393 Z" fill="#000000" fill-rule="nonzero" fill-opacity="1" /><path clip-path="url(#clip230)" d="M887.057 45.1919 L887.057 72.576 L879.603 72.576 L879.603 45.4349 Q879.603 38.994 877.092 35.7938 Q874.58 32.5936 869.557 32.5936 Q863.521 32.5936 860.037 36.4419 Q856.554 40.2903 856.554 46.9338 L856.554 72.576 L849.059 72.576 L849.059 27.2059 L856.554 27.2059 L856.554 34.2544 Q859.227 30.163 862.832 28.1376 Q866.478 26.1121 871.218 26.1121 Q879.036 26.1121 883.046 30.9732 Q887.057 35.7938 887.057 45.1919 Z" fill="#000000" fill-rule="nonzero" fill-opacity="1" /><path clip-path="url(#clip230)" d="M940.731 48.0275 L940.731 51.6733 L906.461 51.6733 Q906.947 59.3701 911.079 63.421 Q915.251 67.4314 922.664 67.4314 Q926.958 67.4314 930.969 66.3781 Q935.02 65.3249 938.989 63.2184 L938.989 70.267 Q934.979 71.9684 930.766 72.8596 Q926.553 73.7508 922.219 73.7508 Q911.362 73.7508 905.002 67.4314 Q898.683 61.1119 898.683 50.3365 Q898.683 39.1965 904.678 32.6746 Q910.714 26.1121 920.922 26.1121 Q930.077 26.1121 935.384 32.0264 Q940.731 37.9003 940.731 48.0275 M933.278 45.84 Q933.197 39.7232 929.834 36.0774 Q926.513 32.4315 921.003 32.4315 Q914.765 32.4315 910.998 35.9558 Q907.271 39.4801 906.704 45.8805 L933.278 45.84 Z" fill="#000000" fill-rule="nonzero" fill-opacity="1" /><path clip-path="url(#clip230)" d="M1008.26 28.5427 L1008.26 35.5912 Q1005.1 33.9709 1001.7 33.1607 Q998.295 32.3505 994.649 32.3505 Q989.099 32.3505 986.304 34.0519 Q983.549 35.7533 983.549 39.156 Q983.549 41.7486 985.534 43.2475 Q987.519 44.7058 993.515 46.0426 L996.067 46.6097 Q1004.01 48.3111 1007.33 51.4303 Q1010.69 54.509 1010.69 60.0587 Q1010.69 66.3781 1005.67 70.0644 Q1000.68 73.7508 991.935 73.7508 Q988.289 73.7508 984.319 73.0216 Q980.39 72.3329 976.015 70.9151 L976.015 63.2184 Q980.147 65.3654 984.157 66.4591 Q988.167 67.5124 992.097 67.5124 Q997.363 67.5124 1000.2 65.73 Q1003.03 63.9071 1003.03 60.6258 Q1003.03 57.5877 1000.97 55.9673 Q998.943 54.3469 992.016 52.8481 L989.423 52.2405 Q982.496 50.7821 979.417 47.7845 Q976.339 44.7463 976.339 39.4801 Q976.339 33.0797 980.876 29.5959 Q985.413 26.1121 993.758 26.1121 Q997.89 26.1121 1001.54 26.7198 Q1005.18 27.3274 1008.26 28.5427 Z" fill="#000000" fill-rule="nonzero" fill-opacity="1" /><path clip-path="url(#clip230)" d="M1022.56 27.2059 L1030.01 27.2059 L1030.01 72.576 L1022.56 72.576 L1022.56 27.2059 M1022.56 9.54393 L1030.01 9.54393 L1030.01 18.9825 L1022.56 18.9825 L1022.56 9.54393 Z" fill="#000000" fill-rule="nonzero" fill-opacity="1" /><path clip-path="url(#clip230)" d="M1080.93 35.9153 Q1083.73 30.8922 1087.62 28.5022 Q1091.51 26.1121 1096.77 26.1121 Q1103.86 26.1121 1107.71 31.0947 Q1111.56 36.0368 1111.56 45.1919 L1111.56 72.576 L1104.06 72.576 L1104.06 45.4349 Q1104.06 38.913 1101.75 35.7533 Q1099.45 32.5936 1094.71 32.5936 Q1088.91 32.5936 1085.55 36.4419 Q1082.19 40.2903 1082.19 46.9338 L1082.19 72.576 L1074.69 72.576 L1074.69 45.4349 Q1074.69 38.8725 1072.39 35.7533 Q1070.08 32.5936 1065.26 32.5936 Q1059.54 32.5936 1056.18 36.4824 Q1052.82 40.3308 1052.82 46.9338 L1052.82 72.576 L1045.33 72.576 L1045.33 27.2059 L1052.82 27.2059 L1052.82 34.2544 Q1055.37 30.082 1058.94 28.0971 Q1062.5 26.1121 1067.4 26.1121 Q1072.35 26.1121 1075.79 28.6237 Q1079.27 31.1352 1080.93 35.9153 Z" fill="#000000" fill-rule="nonzero" fill-opacity="1" /><path clip-path="url(#clip230)" d="M1126.42 27.2059 L1133.88 27.2059 L1133.88 72.576 L1126.42 72.576 L1126.42 27.2059 M1126.42 9.54393 L1133.88 9.54393 L1133.88 18.9825 L1126.42 18.9825 L1126.42 9.54393 Z" fill="#000000" fill-rule="nonzero" fill-opacity="1" /><path clip-path="url(#clip230)" d="M1149.47 9.54393 L1156.93 9.54393 L1156.93 72.576 L1149.47 72.576 L1149.47 9.54393 Z" fill="#000000" fill-rule="nonzero" fill-opacity="1" /><path clip-path="url(#clip230)" d="M1193.14 49.7694 Q1184.11 49.7694 1180.63 51.8354 Q1177.14 53.9013 1177.14 58.8839 Q1177.14 62.8538 1179.73 65.2034 Q1182.37 67.5124 1186.86 67.5124 Q1193.06 67.5124 1196.79 63.1374 Q1200.56 58.7219 1200.56 51.4303 L1200.56 49.7694 L1193.14 49.7694 M1208.01 46.6907 L1208.01 72.576 L1200.56 72.576 L1200.56 65.6895 Q1198 69.8214 1194.2 71.8063 Q1190.39 73.7508 1184.88 73.7508 Q1177.91 73.7508 1173.78 69.8619 Q1169.69 65.9325 1169.69 59.3701 Q1169.69 51.7138 1174.79 47.825 Q1179.94 43.9361 1190.11 43.9361 L1200.56 43.9361 L1200.56 43.2069 Q1200.56 38.0623 1197.15 35.2672 Q1193.79 32.4315 1187.67 32.4315 Q1183.79 32.4315 1180.1 33.3632 Q1176.41 34.295 1173.01 36.1584 L1173.01 29.2718 Q1177.1 27.692 1180.95 26.9223 Q1184.8 26.1121 1188.44 26.1121 Q1198.29 26.1121 1203.15 31.2163 Q1208.01 36.3204 1208.01 46.6907 Z" fill="#000000" fill-rule="nonzero" fill-opacity="1" /><path clip-path="url(#clip230)" d="M1249.65 34.1734 Q1248.4 33.4443 1246.9 33.1202 Q1245.44 32.7556 1243.66 32.7556 Q1237.34 32.7556 1233.94 36.8875 Q1230.57 40.9789 1230.57 48.6757 L1230.57 72.576 L1223.08 72.576 L1223.08 27.2059 L1230.57 27.2059 L1230.57 34.2544 Q1232.92 30.1225 1236.69 28.1376 Q1240.46 26.1121 1245.85 26.1121 Q1246.62 26.1121 1247.55 26.2337 Q1248.48 26.3147 1249.61 26.5172 L1249.65 34.1734 Z" fill="#000000" fill-rule="nonzero" fill-opacity="1" /><path clip-path="url(#clip230)" d="M1257.47 27.2059 L1264.93 27.2059 L1264.93 72.576 L1257.47 72.576 L1257.47 27.2059 M1257.47 9.54393 L1264.93 9.54393 L1264.93 18.9825 L1257.47 18.9825 L1257.47 9.54393 Z" fill="#000000" fill-rule="nonzero" fill-opacity="1" /><path clip-path="url(#clip230)" d="M1287.89 14.324 L1287.89 27.2059 L1303.25 27.2059 L1303.25 32.9987 L1287.89 32.9987 L1287.89 57.6282 Q1287.89 63.1779 1289.39 64.7578 Q1290.93 66.3376 1295.59 66.3376 L1303.25 66.3376 L1303.25 72.576 L1295.59 72.576 Q1286.96 72.576 1283.68 69.3758 Q1280.4 66.1351 1280.4 57.6282 L1280.4 32.9987 L1274.93 32.9987 L1274.93 27.2059 L1280.4 27.2059 L1280.4 14.324 L1287.89 14.324 Z" fill="#000000" fill-rule="nonzero" fill-opacity="1" /><path clip-path="url(#clip230)" d="M1313.05 27.2059 L1320.5 27.2059 L1320.5 72.576 L1313.05 72.576 L1313.05 27.2059 M1313.05 9.54393 L1320.5 9.54393 L1320.5 18.9825 L1313.05 18.9825 L1313.05 9.54393 Z" fill="#000000" fill-rule="nonzero" fill-opacity="1" /><path clip-path="url(#clip230)" d="M1374.91 48.0275 L1374.91 51.6733 L1340.64 51.6733 Q1341.12 59.3701 1345.25 63.421 Q1349.43 67.4314 1356.84 67.4314 Q1361.13 67.4314 1365.14 66.3781 Q1369.2 65.3249 1373.17 63.2184 L1373.17 70.267 Q1369.15 71.9684 1364.94 72.8596 Q1360.73 73.7508 1356.39 73.7508 Q1345.54 73.7508 1339.18 67.4314 Q1332.86 61.1119 1332.86 50.3365 Q1332.86 39.1965 1338.85 32.6746 Q1344.89 26.1121 1355.1 26.1121 Q1364.25 26.1121 1369.56 32.0264 Q1374.91 37.9003 1374.91 48.0275 M1367.45 45.84 Q1367.37 39.7232 1364.01 36.0774 Q1360.69 32.4315 1355.18 32.4315 Q1348.94 32.4315 1345.17 35.9558 Q1341.45 39.4801 1340.88 45.8805 L1367.45 45.84 Z" fill="#000000" fill-rule="nonzero" fill-opacity="1" /><path clip-path="url(#clip230)" d="M1416.06 28.5427 L1416.06 35.5912 Q1412.9 33.9709 1409.5 33.1607 Q1406.1 32.3505 1402.45 32.3505 Q1396.9 32.3505 1394.11 34.0519 Q1391.35 35.7533 1391.35 39.156 Q1391.35 41.7486 1393.34 43.2475 Q1395.32 44.7058 1401.32 46.0426 L1403.87 46.6097 Q1411.81 48.3111 1415.13 51.4303 Q1418.49 54.509 1418.49 60.0587 Q1418.49 66.3781 1413.47 70.0644 Q1408.49 73.7508 1399.74 73.7508 Q1396.09 73.7508 1392.12 73.0216 Q1388.19 72.3329 1383.82 70.9151 L1383.82 63.2184 Q1387.95 65.3654 1391.96 66.4591 Q1395.97 67.5124 1399.9 67.5124 Q1405.17 67.5124 1408 65.73 Q1410.84 63.9071 1410.84 60.6258 Q1410.84 57.5877 1408.77 55.9673 Q1406.75 54.3469 1399.82 52.8481 L1397.23 52.2405 Q1390.3 50.7821 1387.22 47.7845 Q1384.14 44.7463 1384.14 39.4801 Q1384.14 33.0797 1388.68 29.5959 Q1393.22 26.1121 1401.56 26.1121 Q1405.69 26.1121 1409.34 26.7198 Q1412.99 27.3274 1416.06 28.5427 Z" fill="#000000" fill-rule="nonzero" fill-opacity="1" /><path clip-path="url(#clip230)" d="M1489.39 28.9478 L1489.39 35.9153 Q1486.23 34.1734 1483.03 33.3227 Q1479.87 32.4315 1476.63 32.4315 Q1469.37 32.4315 1465.36 37.0496 Q1461.35 41.6271 1461.35 49.9314 Q1461.35 58.2358 1465.36 62.8538 Q1469.37 67.4314 1476.63 67.4314 Q1479.87 67.4314 1483.03 66.5807 Q1486.23 65.6895 1489.39 63.9476 L1489.39 70.8341 Q1486.27 72.2924 1482.9 73.0216 Q1479.58 73.7508 1475.82 73.7508 Q1465.57 73.7508 1459.53 67.3098 Q1453.49 60.8689 1453.49 49.9314 Q1453.49 38.832 1459.57 32.472 Q1465.69 26.1121 1476.3 26.1121 Q1479.74 26.1121 1483.03 26.8413 Q1486.31 27.5299 1489.39 28.9478 Z" fill="#000000" fill-rule="nonzero" fill-opacity="1" /><path clip-path="url(#clip230)" d="M1541.16 48.0275 L1541.16 51.6733 L1506.89 51.6733 Q1507.37 59.3701 1511.5 63.421 Q1515.68 67.4314 1523.09 67.4314 Q1527.38 67.4314 1531.39 66.3781 Q1535.44 65.3249 1539.41 63.2184 L1539.41 70.267 Q1535.4 71.9684 1531.19 72.8596 Q1526.98 73.7508 1522.64 73.7508 Q1511.79 73.7508 1505.43 67.4314 Q1499.11 61.1119 1499.11 50.3365 Q1499.11 39.1965 1505.1 32.6746 Q1511.14 26.1121 1521.35 26.1121 Q1530.5 26.1121 1535.81 32.0264 Q1541.16 37.9003 1541.16 48.0275 M1533.7 45.84 Q1533.62 39.7232 1530.26 36.0774 Q1526.94 32.4315 1521.43 32.4315 Q1515.19 32.4315 1511.42 35.9558 Q1507.7 39.4801 1507.13 45.8805 L1533.7 45.84 Z" fill="#000000" fill-rule="nonzero" fill-opacity="1" /><path clip-path="url(#clip230)" d="M1553.39 9.54393 L1560.84 9.54393 L1560.84 72.576 L1553.39 72.576 L1553.39 9.54393 Z" fill="#000000" fill-rule="nonzero" fill-opacity="1" /><path clip-path="url(#clip230)" d="M1576.44 9.54393 L1583.89 9.54393 L1583.89 72.576 L1576.44 72.576 L1576.44 9.54393 Z" fill="#000000" fill-rule="nonzero" fill-opacity="1" /><path clip-path="url(#clip230)" d="M1651.71 39.9662 Q1657.58 41.222 1660.86 45.1919 Q1664.18 49.1618 1664.18 54.9951 Q1664.18 63.9476 1658.02 68.8492 Q1651.87 73.7508 1640.53 73.7508 Q1636.72 73.7508 1632.67 72.9811 Q1628.66 72.2519 1624.36 70.7531 L1624.36 62.8538 Q1627.76 64.8388 1631.82 65.8515 Q1635.87 66.8642 1640.28 66.8642 Q1647.98 66.8642 1651.99 63.826 Q1656.04 60.7879 1656.04 54.9951 Q1656.04 49.6479 1652.27 46.6502 Q1648.55 43.612 1641.86 43.612 L1634.81 43.612 L1634.81 36.8875 L1642.19 36.8875 Q1648.22 36.8875 1651.42 34.4975 Q1654.62 32.067 1654.62 27.5299 Q1654.62 22.8714 1651.3 20.4004 Q1648.02 17.8888 1641.86 17.8888 Q1638.5 17.8888 1634.65 18.618 Q1630.8 19.3471 1626.18 20.8865 L1626.18 13.5948 Q1630.84 12.2985 1634.89 11.6504 Q1638.99 11.0023 1642.59 11.0023 Q1651.91 11.0023 1657.34 15.2557 Q1662.76 19.4686 1662.76 26.6793 Q1662.76 31.7024 1659.89 35.1862 Q1657.01 38.6294 1651.71 39.9662 Z" fill="#000000" fill-rule="nonzero" fill-opacity="1" /><path clip-path="url(#clip230)" d="M1679.78 12.096 L1711.9 12.096 L1711.9 18.9825 L1687.27 18.9825 L1687.27 33.8088 Q1689.05 33.2012 1690.84 32.9176 Q1692.62 32.5936 1694.4 32.5936 Q1704.53 32.5936 1710.44 38.1433 Q1716.36 43.6931 1716.36 53.1722 Q1716.36 62.9348 1710.28 68.3631 Q1704.21 73.7508 1693.15 73.7508 Q1689.34 73.7508 1685.37 73.1026 Q1681.44 72.4545 1677.23 71.1582 L1677.23 62.9348 Q1680.87 64.9198 1684.76 65.892 Q1688.65 66.8642 1692.98 66.8642 Q1699.99 66.8642 1704.08 63.1779 Q1708.18 59.4916 1708.18 53.1722 Q1708.18 46.8528 1704.08 43.1664 Q1699.99 39.4801 1692.98 39.4801 Q1689.7 39.4801 1686.42 40.2093 Q1683.18 40.9384 1679.78 42.4778 L1679.78 12.096 Z" fill="#000000" fill-rule="nonzero" fill-opacity="1" /><path clip-path="url(#clip230)" d="M1739.53 65.6895 L1768.09 65.6895 L1768.09 72.576 L1729.69 72.576 L1729.69 65.6895 Q1734.34 60.8689 1742.36 52.7671 Q1750.43 44.6248 1752.49 42.2752 Q1756.42 37.8598 1757.96 34.8216 Q1759.54 31.7429 1759.54 28.7857 Q1759.54 23.9651 1756.14 20.927 Q1752.78 17.8888 1747.35 17.8888 Q1743.5 17.8888 1739.21 19.2256 Q1734.95 20.5624 1730.09 23.2765 L1730.09 15.0127 Q1735.03 13.0277 1739.33 12.015 Q1743.62 11.0023 1747.19 11.0023 Q1756.58 11.0023 1762.17 15.7013 Q1767.76 20.4004 1767.76 28.2591 Q1767.76 31.9859 1766.35 35.3482 Q1764.97 38.6699 1761.28 43.2069 Q1760.27 44.3817 1754.84 50.0125 Q1749.41 55.6027 1739.53 65.6895 Z" fill="#000000" fill-rule="nonzero" fill-opacity="1" /><path clip-path="url(#clip230)" d="M1810.58 27.2059 L1818.04 27.2059 L1818.04 72.576 L1810.58 72.576 L1810.58 27.2059 M1810.58 9.54393 L1818.04 9.54393 L1818.04 18.9825 L1810.58 18.9825 L1810.58 9.54393 Z" fill="#000000" fill-rule="nonzero" fill-opacity="1" /><path clip-path="url(#clip230)" d="M1841 14.324 L1841 27.2059 L1856.36 27.2059 L1856.36 32.9987 L1841 32.9987 L1841 57.6282 Q1841 63.1779 1842.5 64.7578 Q1844.04 66.3376 1848.7 66.3376 L1856.36 66.3376 L1856.36 72.576 L1848.7 72.576 Q1840.07 72.576 1836.79 69.3758 Q1833.51 66.1351 1833.51 57.6282 L1833.51 32.9987 L1828.04 32.9987 L1828.04 27.2059 L1833.51 27.2059 L1833.51 14.324 L1841 14.324 Z" fill="#000000" fill-rule="nonzero" fill-opacity="1" /><path clip-path="url(#clip230)" d="M1904.97 48.0275 L1904.97 51.6733 L1870.7 51.6733 Q1871.18 59.3701 1875.32 63.421 Q1879.49 67.4314 1886.9 67.4314 Q1891.19 67.4314 1895.21 66.3781 Q1899.26 65.3249 1903.23 63.2184 L1903.23 70.267 Q1899.22 71.9684 1895 72.8596 Q1890.79 73.7508 1886.46 73.7508 Q1875.6 73.7508 1869.24 67.4314 Q1862.92 61.1119 1862.92 50.3365 Q1862.92 39.1965 1868.92 32.6746 Q1874.95 26.1121 1885.16 26.1121 Q1894.31 26.1121 1899.62 32.0264 Q1904.97 37.9003 1904.97 48.0275 M1897.51 45.84 Q1897.43 39.7232 1894.07 36.0774 Q1890.75 32.4315 1885.24 32.4315 Q1879 32.4315 1875.23 35.9558 Q1871.51 39.4801 1870.94 45.8805 L1897.51 45.84 Z" fill="#000000" fill-rule="nonzero" fill-opacity="1" /><path clip-path="url(#clip230)" d="M1943.49 34.1734 Q1942.24 33.4443 1940.74 33.1202 Q1939.28 32.7556 1937.5 32.7556 Q1931.18 32.7556 1927.77 36.8875 Q1924.41 40.9789 1924.41 48.6757 L1924.41 72.576 L1916.92 72.576 L1916.92 27.2059 L1924.41 27.2059 L1924.41 34.2544 Q1926.76 30.1225 1930.53 28.1376 Q1934.3 26.1121 1939.68 26.1121 Q1940.45 26.1121 1941.39 26.2337 Q1942.32 26.3147 1943.45 26.5172 L1943.49 34.1734 Z" fill="#000000" fill-rule="nonzero" fill-opacity="1" /><path clip-path="url(#clip230)" d="M1971.93 49.7694 Q1962.9 49.7694 1959.41 51.8354 Q1955.93 53.9013 1955.93 58.8839 Q1955.93 62.8538 1958.52 65.2034 Q1961.15 67.5124 1965.65 67.5124 Q1971.85 67.5124 1975.58 63.1374 Q1979.34 58.7219 1979.34 51.4303 L1979.34 49.7694 L1971.93 49.7694 M1986.8 46.6907 L1986.8 72.576 L1979.34 72.576 L1979.34 65.6895 Q1976.79 69.8214 1972.98 71.8063 Q1969.17 73.7508 1963.67 73.7508 Q1956.7 73.7508 1952.57 69.8619 Q1948.47 65.9325 1948.47 59.3701 Q1948.47 51.7138 1953.58 47.825 Q1958.72 43.9361 1968.89 43.9361 L1979.34 43.9361 L1979.34 43.2069 Q1979.34 38.0623 1975.94 35.2672 Q1972.58 32.4315 1966.46 32.4315 Q1962.57 32.4315 1958.89 33.3632 Q1955.2 34.295 1951.8 36.1584 L1951.8 29.2718 Q1955.89 27.692 1959.74 26.9223 Q1963.58 26.1121 1967.23 26.1121 Q1977.07 26.1121 1981.94 31.2163 Q1986.8 36.3204 1986.8 46.6907 Z" fill="#000000" fill-rule="nonzero" fill-opacity="1" /><path clip-path="url(#clip230)" d="M2009.52 14.324 L2009.52 27.2059 L2024.87 27.2059 L2024.87 32.9987 L2009.52 32.9987 L2009.52 57.6282 Q2009.52 63.1779 2011.02 64.7578 Q2012.56 66.3376 2017.22 66.3376 L2024.87 66.3376 L2024.87 72.576 L2017.22 72.576 Q2008.59 72.576 2005.31 69.3758 Q2002.03 66.1351 2002.03 57.6282 L2002.03 32.9987 L1996.56 32.9987 L1996.56 27.2059 L2002.03 27.2059 L2002.03 14.324 L2009.52 14.324 Z" fill="#000000" fill-rule="nonzero" fill-opacity="1" /><path clip-path="url(#clip230)" d="M2034.68 27.2059 L2042.13 27.2059 L2042.13 72.576 L2034.68 72.576 L2034.68 27.2059 M2034.68 9.54393 L2042.13 9.54393 L2042.13 18.9825 L2034.68 18.9825 L2034.68 9.54393 Z" fill="#000000" fill-rule="nonzero" fill-opacity="1" /><path clip-path="url(#clip230)" d="M2075.31 32.4315 Q2069.31 32.4315 2065.83 37.1306 Q2062.35 41.7891 2062.35 49.9314 Q2062.35 58.0738 2065.79 62.7728 Q2069.27 67.4314 2075.31 67.4314 Q2081.26 67.4314 2084.75 62.7323 Q2088.23 58.0333 2088.23 49.9314 Q2088.23 41.8701 2084.75 37.1711 Q2081.26 32.4315 2075.31 32.4315 M2075.31 26.1121 Q2085.03 26.1121 2090.58 32.4315 Q2096.13 38.7509 2096.13 49.9314 Q2096.13 61.0714 2090.58 67.4314 Q2085.03 73.7508 2075.31 73.7508 Q2065.55 73.7508 2060 67.4314 Q2054.49 61.0714 2054.49 49.9314 Q2054.49 38.7509 2060 32.4315 Q2065.55 26.1121 2075.31 26.1121 Z" fill="#000000" fill-rule="nonzero" fill-opacity="1" /><path clip-path="url(#clip230)" d="M2146.2 45.1919 L2146.2 72.576 L2138.75 72.576 L2138.75 45.4349 Q2138.75 38.994 2136.23 35.7938 Q2133.72 32.5936 2128.7 32.5936 Q2122.66 32.5936 2119.18 36.4419 Q2115.7 40.2903 2115.7 46.9338 L2115.7 72.576 L2108.2 72.576 L2108.2 27.2059 L2115.7 27.2059 L2115.7 34.2544 Q2118.37 30.163 2121.98 28.1376 Q2125.62 26.1121 2130.36 26.1121 Q2138.18 26.1121 2142.19 30.9732 Q2146.2 35.7938 2146.2 45.1919 Z" fill="#000000" fill-rule="nonzero" fill-opacity="1" /><path clip-path="url(#clip230)" d="M2189.91 65.6895 L2203.28 65.6895 L2203.28 19.5497 L2188.73 22.4663 L2188.73 15.0127 L2203.2 12.096 L2211.38 12.096 L2211.38 65.6895 L2224.75 65.6895 L2224.75 72.576 L2189.91 72.576 L2189.91 65.6895 Z" fill="#000000" fill-rule="nonzero" fill-opacity="1" /><polyline clip-path="url(#clip232)" style="stroke:#009af9; stroke-linecap:round; stroke-linejoin:round; stroke-width:4; stroke-opacity:1; fill:none" points="315.545,1386.4 317.525,1318.71 319.505,1315.56 321.484,1315.04 323.464,1315 325.444,1314.98 327.424,1314.98 329.404,1314.98 331.384,1314.96 333.364,1314.95 335.343,1314.94 337.323,1314.93 339.303,1314.92 341.283,1314.91 343.263,1314.91 345.243,1314.89 347.223,1314.89 349.202,1314.88 351.182,1314.88 353.162,1314.88 355.142,1314.86 357.122,1314.85 359.102,1314.85 361.082,1314.84 363.061,1314.84 365.041,1314.83 367.021,1314.83 369.001,1314.81 370.981,1314.8 372.961,1314.8 374.941,1314.79 376.92,1314.78 378.9,1314.78 380.88,1314.77 382.86,1314.77 384.84,1314.77 386.82,1314.75 388.8,1314.74 390.779,1314.74 392.759,1314.74 394.739,1314.72 396.719,1314.71 398.699,1314.71 400.679,1314.7 402.659,1314.7 404.638,1314.7 406.618,1314.69 408.598,1314.69 410.578,1314.69 412.558,1314.69 414.538,1314.69 416.517,1314.68 418.497,1314.68 420.477,1314.68 422.457,1314.68 424.437,1314.68 426.417,1314.68 428.397,1314.68 430.376,1314.68 432.356,1314.68 434.336,1314.68 436.316,1314.68 438.296,1314.68 440.276,1314.68 442.256,1314.68 444.235,1314.68 446.215,1314.68 448.195,1314.68 450.175,1314.68 452.155,1314.68 454.135,1314.68 456.115,1314.68 458.094,1314.67 460.074,1314.67 462.054,1314.67 464.034,1314.67 466.014,1314.67 467.994,1314.67 469.974,1314.67 471.953,1314.67 473.933,1314.67 475.913,1314.67 477.893,1314.67 479.873,1314.67 481.853,1314.67 483.833,1314.67 485.812,1314.67 487.792,1314.67 489.772,1314.67 491.752,1314.67 493.732,1314.67 495.712,1314.67 497.692,1314.67 499.671,1314.67 501.651,1314.67 503.631,1314.67 505.611,1314.67 507.591,1314.67 509.571,1314.67 511.551,1314.67 513.53,1314.67 515.51,1314.67 517.49,1314.67 519.47,1314.67 521.45,1314.67 523.43,1314.66 525.409,1314.66 527.389,1314.66 529.369,1314.66 531.349,1314.66 533.329,1314.66 535.309,1314.66 537.289,1314.66 539.268,1314.66 541.248,1314.66 543.228,1314.66 545.208,1314.66 547.188,1314.66 549.168,1314.66 551.148,1314.66 553.127,1314.66 555.107,1314.66 557.087,1314.66 559.067,1314.65 561.047,1314.65 563.027,1314.65 565.007,1314.65 566.986,1314.65 568.966,1314.64 570.946,1314.64 572.926,1314.64 574.906,1314.64 576.886,1314.64 578.866,1314.64 580.845,1314.64 582.825,1314.63 584.805,1314.63 586.785,1314.63 588.765,1314.63 590.745,1314.63 592.725,1314.63 594.704,1314.63 596.684,1314.63 598.664,1314.63 600.644,1314.63 602.624,1314.63 604.604,1314.62 606.584,1314.62 608.563,1314.62 610.543,1314.62 612.523,1314.62 614.503,1314.62 616.483,1314.61 618.463,1314.61 620.443,1314.61 622.422,1314.61 624.402,1314.61 626.382,1314.61 628.362,1314.61 630.342,1314.61 632.322,1314.61 634.301,1314.6 636.281,1314.6 638.261,1314.6 640.241,1314.6 642.221,1314.59 644.201,1314.59 646.181,1314.59 648.16,1314.59 650.14,1314.58 652.12,1314.58 654.1,1314.58 656.08,1314.58 658.06,1314.58 660.04,1314.57 662.019,1314.57 663.999,1314.57 665.979,1314.57 667.959,1314.57 669.939,1314.57 671.919,1314.56 673.899,1314.56 675.878,1314.56 677.858,1314.55 679.838,1314.55 681.818,1314.55 683.798,1314.55 685.778,1314.55 687.758,1314.53 689.737,1314.53 691.717,1314.52 693.697,1314.52 695.677,1314.52 697.657,1314.51 699.637,1314.51 701.617,1314.51 703.596,1314.51 705.576,1314.51 707.556,1314.51 709.536,1314.51 711.516,1314.5 713.496,1314.5 715.476,1314.5 717.455,1314.5 719.435,1314.5 721.415,1314.5 723.395,1314.5 725.375,1314.49 727.355,1314.49 729.335,1314.49 731.314,1314.49 733.294,1314.49 735.274,1314.49 737.254,1314.49 739.234,1314.49 741.214,1314.49 743.194,1314.49 745.173,1314.49 747.153,1314.49 749.133,1314.48 751.113,1314.48 753.093,1314.48 755.073,1314.48 757.052,1314.48 759.032,1314.48 761.012,1314.48 762.992,1314.48 764.972,1314.47 766.952,1314.47 768.932,1314.47 770.911,1314.47 772.891,1314.47 774.871,1314.46 776.851,1314.46 778.831,1314.46 780.811,1314.46 782.791,1314.46 784.77,1314.46 786.75,1314.46 788.73,1314.45 790.71,1314.45 792.69,1314.45 794.67,1314.45 796.65,1314.45 798.629,1314.45 800.609,1314.44 802.589,1314.44 804.569,1314.44 806.549,1314.44 808.529,1314.44 810.509,1141.19 812.488,1141.18 814.468,1141.18 816.448,1141.17 818.428,1141.17 820.408,1141.17 822.388,1141.16 824.368,1141.16 826.347,1141.16 828.327,1141.15 830.307,1141.15 832.287,1141.14 834.267,1141.13 836.247,1141.12 838.227,1141.12 840.206,1141.12 842.186,1141.12 844.166,1141.12 846.146,1141.11 848.126,1141.09 850.106,1141.08 852.086,1141.08 854.065,1141.07 856.045,1141.06 858.025,1141.04 860.005,1141.03 861.985,1141.03 863.965,1141.02 865.944,1141.02 867.924,1141.02 869.904,1141.02 871.884,1141.02 873.864,1141.01 875.844,1141.01 877.824,1141 879.803,1141 881.783,1140.99 883.763,1140.98 885.743,1140.97 887.723,1140.97 889.703,1140.96 891.683,1140.96 893.662,1140.96 895.642,1140.96 897.622,1140.95 899.602,1140.95 901.582,1140.95 903.562,1140.94 905.542,1140.94 907.521,1140.93 909.501,1140.92 911.481,1140.92 913.461,1140.92 915.441,1140.91 917.421,1140.87 919.401,1140.87 921.38,1140.87 923.36,1140.86 925.34,1140.86 927.32,1140.86 929.3,1140.86 931.28,1140.85 933.26,1140.84 935.239,1140.84 937.219,1140.83 939.199,1140.81 941.179,1140.8 943.159,1140.78 945.139,1140.76 947.119,1140.76 949.098,1140.76 951.078,1140.75 953.058,1140.73 955.038,1140.69 957.018,1140.67 958.998,1140.64 960.978,1140.64 962.957,1140.64 964.937,1140.63 966.917,1140.62 968.897,1140.61 970.877,1140.58 972.857,1140.55 974.836,1140.55 976.816,1140.54 978.796,1140.54 980.776,1140.53 982.756,1140.51 984.736,1140.49 986.716,1140.48 988.695,1140.48 990.675,1140.47 992.655,1140.47 994.635,1140.47 996.615,1140.44 998.595,1140.42 1000.57,1140.41 1002.55,1140.4 1004.53,1140.39 1006.51,1140.37 1008.49,1140.36 1010.47,1140.33 1012.45,1140.31 1014.43,1140.3 1016.41,1140.3 1018.39,1140.26 1020.37,1140.24 1022.35,1140.22 1024.33,1140.21 1026.31,1140.19 1028.29,1140.17 1030.27,1140.16 1032.25,1140.11 1034.23,1140.05 1036.21,1140.03 1038.19,1140.03 1040.17,1140.02 1042.15,1139.99 1044.13,1139.94 1046.11,1139.93 1048.09,1139.93 1050.07,1139.84 1052.05,1139.82 1054.03,1139.81 1056.01,1139.7 1057.99,1139.68 1059.97,1139.67 1061.95,1139.67 1063.93,1139.65 1065.91,1139.63 1067.89,1139.6 1069.87,1139.54 1071.85,1139.51 1073.83,1139.48 1075.81,1139.44 1077.79,1139.3 1079.77,1139.26 1081.75,1139.2 1083.73,1139.16 1085.71,1139.09 1087.69,1139.09 1089.67,1139.08 1091.65,1138.98 1093.63,1138.93 1095.61,1138.68 1097.59,1138.66 1099.57,1138.65 1101.55,1138.58 1103.53,1138.47 1105.51,1138.43 1107.49,1138.34 1109.47,1138.27 1111.45,1138.09 1113.43,1138.03 1115.41,1138.01 1117.39,1138 1119.37,1137.95 1121.35,1137.93 1123.33,1137.82 1125.31,1137.62 1127.29,1137.62 1129.27,1137.6 1131.25,1137.6 1133.22,1137.39 1135.2,1137.32 1137.18,1136.91 1139.16,1136.87 1141.14,1136.6 1143.12,1136.53 1145.1,1136.49 1147.08,1136.47 1149.06,1136.43 1151.04,1136.39 1153.02,1136.33 1155,1136.1 1156.98,1136.1 1158.96,1135.93 1160.94,1135.51 1162.92,1135.49 1164.9,1135.27 1166.88,1135.21 1168.86,1134.94 1170.84,1134.77 1172.82,1134.66 1174.8,1134.64 1176.78,1134.23 1178.76,1133.84 1180.74,1133.65 1182.72,1133.64 1184.7,1132.74 1186.68,1132.15 1188.66,1131.94 1190.64,1131.2 1192.62,1131.04 1194.6,1130.63 1196.58,1130.17 1198.56,1129.78 1200.54,1128.02 1202.52,1127.64 1204.5,1126.73 1206.48,1126.44 1208.46,1125.8 1210.44,1125.57 1212.42,1125.24 1214.4,1125.23 1216.38,1124.9 1218.36,1124.45 1220.34,1124.18 1222.32,1122.87 1224.3,1122.06 1226.28,1121.91 1228.26,1120.93 1230.24,1119.71 1232.22,1119.34 1234.2,1118.52 1236.18,1117.09 1238.16,1116.39 1240.14,1115.72 1242.12,1110.3 1244.1,1108.59 1246.08,1107.26 1248.06,1106.99 1250.04,1106.45 1252.02,1106.17 1254,1104.41 1255.98,1103.13 1257.96,1102.67 1259.94,1101.18 1261.92,1097.53 1263.9,1092.97 1265.88,1092.01 1267.85,1090.72 1269.83,1087.21 1271.81,1085.85 1273.79,1082.8 1275.77,1076.97 1277.75,1071.92 1279.73,1065.2 1281.71,1063.53 1283.69,1063.22 1285.67,1060.23 1287.65,1053.84 1289.63,1050.41 1291.61,1050.39 1293.59,1031.44 1295.57,1023.85 1297.55,1020.07 1299.53,1014.78 1301.51,936.958 1303.49,847.379 1305.47,827.191 1307.45,826.673 1309.43,825.201 1311.41,825.091 1313.39,824.835 1315.37,824.549 1317.35,822.666 1319.33,821.765 1321.31,821.389 1323.29,821.327 1325.27,821.139 1327.25,820.567 1329.23,820.441 1331.21,820.274 1333.19,819.789 1335.17,819.283 1337.15,819.061 1339.13,818.921 1341.11,818.858 1343.09,818.83 1345.07,818.82 1347.05,818.696 1349.03,818.483 1351.01,817.391 1352.99,817.126 1354.97,816.732 1356.95,816.718 1358.93,816.414 1360.91,816.343 1362.89,816.311 1364.87,816.239 1366.85,815.476 1368.83,815.438 1370.81,815.09 1372.79,814.911 1374.77,814.852 1376.75,814.792 1378.73,814.266 1380.71,814.247 1382.69,814.215 1384.67,814.171 1386.65,814.072 1388.63,814.043 1390.61,813.807 1392.59,813.675 1394.57,813.541 1396.55,813.488 1398.53,813.19 1400.51,813.085 1402.49,813.039 1404.46,813.037 1406.44,813.004 1408.42,813.003 1410.4,812.98 1412.38,812.815 1414.36,812.76 1416.34,812.615 1418.32,812.494 1420.3,812.07 1422.28,812.068 1424.26,811.921 1426.24,811.887 1428.22,811.879 1430.2,811.845 1432.18,811.794 1434.16,811.529 1436.14,811.338 1438.12,811.225 1440.1,811.157 1442.08,811.051 1444.06,810.94 1446.04,810.939 1448.02,810.875 1450,810.875 1451.98,810.861 1453.96,810.857 1455.94,810.843 1457.92,810.736 1459.9,810.731 1461.88,810.669 1463.86,810.665 1465.84,810.644 1467.82,810.546 1469.8,810.536 1471.78,810.517 1473.76,810.513 1475.74,810.488 1477.72,810.462 1479.7,810.456 1481.68,810.423 1483.66,810.399 1485.64,810.371 1487.62,810.325 1489.6,810.309 1491.58,810.232 1493.56,809.925 1495.54,809.663 1497.52,809.635 1499.5,809.52 1501.48,809.454 1503.46,809.437 1505.44,809.217 1507.42,809.191 1509.4,809.182 1511.38,809.055 1513.36,808.999 1515.34,808.976 1517.32,808.953 1519.3,808.842 1521.28,808.837 1523.26,808.8 1525.24,808.774 1527.22,808.726 1529.2,808.654 1531.18,808.653 1533.16,808.546 1535.14,808.514 1537.12,808.507 1539.1,808.493 1541.07,808.481 1543.05,808.446 1545.03,808.404 1547.01,808.399 1548.99,808.371 1550.97,808.363 1552.95,808.193 1554.93,808.122 1556.91,808.03 1558.89,807.993 1560.87,807.989 1562.85,807.983 1564.83,807.98 1566.81,807.965 1568.79,807.907 1570.77,807.874 1572.75,807.858 1574.73,807.84 1576.71,807.812 1578.69,807.711 1580.67,807.71 1582.65,807.647 1584.63,807.448 1586.61,807.438 1588.59,807.399 1590.57,807.307 1592.55,807.306 1594.53,807.056 1596.51,807.026 1598.49,806.979 1600.47,806.919 1602.45,806.841 1604.43,806.604 1606.41,806.537 1608.39,806.44 1610.37,806.402 1612.35,806.09 1614.33,805.911 1616.31,805.901 1618.29,805.843 1620.27,805.815 1622.25,805.687 1624.23,805.683 1626.21,805.409 1628.19,805.206 1630.17,805.156 1632.15,805.093 1634.13,805.081 1636.11,804.847 1638.09,804.557 1640.07,804.542 1642.05,804.527 1644.03,804.415 1646.01,804.407 1647.99,804.346 1649.97,804.14 1651.95,803.98 1653.93,803.83 1655.91,803.594 1657.89,803.546 1659.87,803.528 1661.85,803.46 1663.83,803.17 1665.81,803.061 1667.79,802.952 1669.77,802.751 1671.75,802.737 1673.73,802.453 1675.71,802.448 1677.68,802.033 1679.66,801.845 1681.64,801.759 1683.62,801.613 1685.6,801.435 1687.58,801.343 1689.56,800.751 1691.54,800.383 1693.52,800.381 1695.5,800.349 1697.48,800.218 1699.46,799.947 1701.44,799.866 1703.42,799.66 1705.4,799.437 1707.38,799.394 1709.36,799.239 1711.34,799.052 1713.32,799.019 1715.3,798.814 1717.28,798.588 1719.26,798.227 1721.24,798.18 1723.22,798.12 1725.2,797.911 1727.18,797.906 1729.16,797.877 1731.14,797.871 1733.12,797.745 1735.1,797.646 1737.08,797.289 1739.06,797.262 1741.04,797.102 1743.02,797.022 1745,796.826 1746.98,796.7 1748.96,796.552 1750.94,795.85 1752.92,795.837 1754.9,795.809 1756.88,795.681 1758.86,795.449 1760.84,795.339 1762.82,795.134 1764.8,795.052 1766.78,795.041 1768.76,794.915 1770.74,794.898 1772.72,794.887 1774.7,794.692 1776.68,794.322 1778.66,794.313 1780.64,794.191 1782.62,793.98 1784.6,793.622 1786.58,793.607 1788.56,793.502 1790.54,793.458 1792.52,793.127 1794.5,791.126 1796.48,790.709 1798.46,475.722 1800.44,206.715 1802.42,203.909 1804.4,201.54 1806.38,199.502 1808.36,198.158 1810.34,196.497 1812.31,194.966 1814.29,192.542 1816.27,191.998 1818.25,191.621 1820.23,188.543 1822.21,185.469 1824.19,183.645 1826.17,182.388 1828.15,178.964 1830.13,178.383 1832.11,176.853 1834.09,176.081 1836.07,175.402 1838.05,174.247 1840.03,173.423 1842.01,173.097 1843.99,171.814 1845.97,171.81 1847.95,171.554 1849.93,171.296 1851.91,170.951 1853.89,170.498 1855.87,169.816 1857.85,169.784 1859.83,169.685 1861.81,169.625 1863.79,169.555 1865.77,169.546 1867.75,169.518 1869.73,169.288 1871.71,169.148 1873.69,169.096 1875.67,169.025 1877.65,168.987 1879.63,168.921 1881.61,168.836 1883.59,168.819 1885.57,168.807 1887.55,168.754 1889.53,168.468 1891.51,168.439 1893.49,168.406 1895.47,168.397 1897.45,168.371 1899.43,168.362 1901.41,168.31 1903.39,168.308 1905.37,168.297 1907.35,168.278 1909.33,168.265 1911.31,168.262 1913.29,168.226 1915.27,168.168 1917.25,168.15 1919.23,168.141 1921.21,168.115 1923.19,168.107 1925.17,168.103 1927.15,168.101 1929.13,168.098 1931.11,168.082 1933.09,168.067 1935.07,168.063 1937.05,168.061 1939.03,168.058 1941.01,168.044 1942.99,168.043 1944.97,168.035 1946.95,168.026 1948.92,168.026 1950.9,168.024 1952.88,168.017 1954.86,168.016 1956.84,168.014 1958.82,168.011 1960.8,168.001 1962.78,167.99 1964.76,167.985 1966.74,167.977 1968.72,167.973 1970.7,167.97 1972.68,167.969 1974.66,167.962 1976.64,167.951 1978.62,167.939 1980.6,167.931 1982.58,167.928 1984.56,167.926 1986.54,167.925 1988.52,167.895 1990.5,167.891 1992.48,167.889 1994.46,167.861 1996.44,167.801 1998.42,167.792 2000.4,167.786 2002.38,167.782 2004.36,167.709 2006.34,167.704 2008.32,167.702 2010.3,167.679 2012.28,167.638 2014.26,167.608 2016.24,167.566 2018.22,167.465 2020.2,167.418 2022.18,167.402 2024.16,167.375 2026.14,167.303 2028.12,167.265 2030.1,167.259 2032.08,167.249 2034.06,167.164 2036.04,167.128 2038.02,167.021 2040,167.015 2041.98,166.983 2043.96,166.982 2045.94,166.853 2047.92,166.599 2049.9,166.566 2051.88,166.564 2053.86,166.408 2055.84,166.149 2057.82,166.061 2059.8,165.992 2061.78,165.929 2063.76,165.877 2065.74,165.821 2067.72,165.742 2069.7,165.685 2071.68,165.652 2073.66,165.643 2075.64,165.64 2077.62,165.6 2079.6,165.581 2081.58,165.375 2083.56,165.371 2085.53,165.28 2087.51,165.136 2089.49,165.103 2091.47,165.059 2093.45,165.005 2095.43,164.947 2097.41,164.94 2099.39,164.918 2101.37,164.716 2103.35,164.689 2105.33,164.537 2107.31,164.425 2109.29,164.276 2111.27,164.16 2113.25,164.103 2115.23,164.089 2117.21,164.028 2119.19,163.954 2121.17,163.893 2123.15,163.854 2125.13,163.683 2127.11,163.658 2129.09,163.504 2131.07,163.497 2133.05,163.496 2135.03,163.429 2137.01,163.413 2138.99,163.386 2140.97,163.369 2142.95,163.319 2144.93,163.308 2146.91,163.245 2148.89,163.219 2150.87,163.147 2152.85,163.102 2154.83,163.058 2156.81,163.004 2158.79,162.984 2160.77,162.979 2162.75,162.932 2164.73,162.887 2166.71,162.875 2168.69,162.856 2170.67,162.8 2172.65,162.766 2174.63,162.707 2176.61,162.631 2178.59,162.587 2180.57,162.522 2182.55,162.509 2184.53,162.431 2186.51,162.422 2188.49,162.412 2190.47,162.398 2192.45,162.388 2194.43,162.321 2196.41,162.291 2198.39,162.015 2200.37,161.967 2202.35,161.896 2204.33,161.874 2206.31,161.865 2208.29,161.765 2210.27,161.761 2212.25,161.695 2214.23,161.676 2216.21,161.611 2218.19,161.568 2220.17,161.528 2222.14,161.526 2224.12,161.458 2226.1,161.443 2228.08,161.442 2230.06,161.417 2232.04,161.391 2234.02,161.349 2236,161.295 2237.98,161.275 2239.96,161.144 2241.94,161.135 2243.92,161.119 2245.9,161.115 2247.88,161.108 2249.86,161.107 2251.84,161.1 2253.82,161.073 2255.8,160.936 2257.78,160.884 2259.76,160.884 2261.74,160.861 2263.72,160.794 2265.7,160.755 2267.68,160.579 2269.66,160.571 2271.64,160.546 2273.62,160.537 2275.6,160.493 2277.58,160.481 2279.56,160.477 2281.54,160.41 2283.52,160.396 2285.5,160.382 2287.48,160.319 2289.46,160.3 2291.44,160.269 2293.42,160.256 "/>
<path clip-path="url(#clip230)" d="M326.094 270.476 L755.354 270.476 L755.354 166.796 L326.094 166.796  Z" fill="#ffffff" fill-rule="evenodd" fill-opacity="1"/>
<polyline clip-path="url(#clip230)" style="stroke:#000000; stroke-linecap:round; stroke-linejoin:round; stroke-width:4; stroke-opacity:1; fill:none" points="326.094,270.476 755.354,270.476 755.354,166.796 326.094,166.796 326.094,270.476 "/>
<polyline clip-path="url(#clip230)" style="stroke:#009af9; stroke-linecap:round; stroke-linejoin:round; stroke-width:4; stroke-opacity:1; fill:none" points="349.389,218.636 489.158,218.636 "/>
<path clip-path="url(#clip230)" d="M534.699 202.49 L534.699 207.05 Q532.037 205.777 529.675 205.152 Q527.314 204.527 525.115 204.527 Q521.296 204.527 519.213 206.008 Q517.152 207.49 517.152 210.221 Q517.152 212.513 518.518 213.694 Q519.907 214.851 523.75 215.569 L526.574 216.147 Q531.805 217.143 534.282 219.666 Q536.782 222.166 536.782 226.379 Q536.782 231.402 533.402 233.994 Q530.046 236.587 523.541 236.587 Q521.088 236.587 518.31 236.031 Q515.555 235.476 512.592 234.388 L512.592 229.573 Q515.439 231.17 518.171 231.981 Q520.902 232.791 523.541 232.791 Q527.546 232.791 529.722 231.217 Q531.898 229.643 531.898 226.726 Q531.898 224.18 530.324 222.744 Q528.773 221.309 525.208 220.592 L522.361 220.036 Q517.129 218.995 514.791 216.772 Q512.453 214.55 512.453 210.592 Q512.453 206.008 515.671 203.37 Q518.912 200.731 524.583 200.731 Q527.013 200.731 529.537 201.171 Q532.06 201.61 534.699 202.49 Z" fill="#000000" fill-rule="nonzero" fill-opacity="1" /><path clip-path="url(#clip230)" d="M543.888 209.99 L548.148 209.99 L548.148 235.916 L543.888 235.916 L543.888 209.99 M543.888 199.897 L548.148 199.897 L548.148 205.291 L543.888 205.291 L543.888 199.897 Z" fill="#000000" fill-rule="nonzero" fill-opacity="1" /><path clip-path="url(#clip230)" d="M577.245 214.967 Q578.842 212.096 581.064 210.731 Q583.286 209.365 586.296 209.365 Q590.346 209.365 592.545 212.212 Q594.745 215.036 594.745 220.268 L594.745 235.916 L590.462 235.916 L590.462 220.407 Q590.462 216.68 589.143 214.874 Q587.823 213.069 585.115 213.069 Q581.805 213.069 579.884 215.268 Q577.962 217.467 577.962 221.263 L577.962 235.916 L573.68 235.916 L573.68 220.407 Q573.68 216.657 572.36 214.874 Q571.041 213.069 568.286 213.069 Q565.022 213.069 563.101 215.291 Q561.18 217.49 561.18 221.263 L561.18 235.916 L556.898 235.916 L556.898 209.99 L561.18 209.99 L561.18 214.018 Q562.638 211.633 564.675 210.499 Q566.712 209.365 569.513 209.365 Q572.337 209.365 574.305 210.8 Q576.296 212.235 577.245 214.967 Z" fill="#000000" fill-rule="nonzero" fill-opacity="1" /><path clip-path="url(#clip230)" d="M603.24 209.99 L607.499 209.99 L607.499 235.916 L603.24 235.916 L603.24 209.99 M603.24 199.897 L607.499 199.897 L607.499 205.291 L603.24 205.291 L603.24 199.897 Z" fill="#000000" fill-rule="nonzero" fill-opacity="1" /><path clip-path="url(#clip230)" d="M616.411 199.897 L620.67 199.897 L620.67 235.916 L616.411 235.916 L616.411 199.897 Z" fill="#000000" fill-rule="nonzero" fill-opacity="1" /><path clip-path="url(#clip230)" d="M641.365 222.883 Q636.203 222.883 634.212 224.064 Q632.221 225.244 632.221 228.092 Q632.221 230.36 633.703 231.703 Q635.207 233.022 637.777 233.022 Q641.318 233.022 643.448 230.522 Q645.601 227.999 645.601 223.832 L645.601 222.883 L641.365 222.883 M649.86 221.124 L649.86 235.916 L645.601 235.916 L645.601 231.981 Q644.142 234.342 641.967 235.476 Q639.791 236.587 636.642 236.587 Q632.661 236.587 630.3 234.365 Q627.962 232.119 627.962 228.369 Q627.962 223.994 630.879 221.772 Q633.818 219.55 639.629 219.55 L645.601 219.55 L645.601 219.133 Q645.601 216.194 643.656 214.596 Q641.735 212.976 638.24 212.976 Q636.017 212.976 633.911 213.508 Q631.805 214.041 629.86 215.106 L629.86 211.17 Q632.198 210.268 634.397 209.828 Q636.596 209.365 638.68 209.365 Q644.304 209.365 647.082 212.282 Q649.86 215.198 649.86 221.124 Z" fill="#000000" fill-rule="nonzero" fill-opacity="1" /><path clip-path="url(#clip230)" d="M673.656 213.971 Q672.939 213.555 672.082 213.37 Q671.249 213.161 670.23 213.161 Q666.619 213.161 664.675 215.522 Q662.753 217.86 662.753 222.258 L662.753 235.916 L658.471 235.916 L658.471 209.99 L662.753 209.99 L662.753 214.018 Q664.096 211.657 666.249 210.522 Q668.402 209.365 671.48 209.365 Q671.92 209.365 672.452 209.434 Q672.985 209.481 673.633 209.596 L673.656 213.971 Z" fill="#000000" fill-rule="nonzero" fill-opacity="1" /><path clip-path="url(#clip230)" d="M678.124 209.99 L682.383 209.99 L682.383 235.916 L678.124 235.916 L678.124 209.99 M678.124 199.897 L682.383 199.897 L682.383 205.291 L678.124 205.291 L678.124 199.897 Z" fill="#000000" fill-rule="nonzero" fill-opacity="1" /><path clip-path="url(#clip230)" d="M695.508 202.629 L695.508 209.99 L704.281 209.99 L704.281 213.3 L695.508 213.3 L695.508 227.374 Q695.508 230.545 696.364 231.448 Q697.244 232.351 699.906 232.351 L704.281 232.351 L704.281 235.916 L699.906 235.916 Q694.975 235.916 693.101 234.087 Q691.226 232.235 691.226 227.374 L691.226 213.3 L688.101 213.3 L688.101 209.99 L691.226 209.99 L691.226 202.629 L695.508 202.629 Z" fill="#000000" fill-rule="nonzero" fill-opacity="1" /><path clip-path="url(#clip230)" d="M720.67 238.323 Q718.864 242.953 717.151 244.365 Q715.438 245.777 712.568 245.777 L709.165 245.777 L709.165 242.212 L711.665 242.212 Q713.424 242.212 714.397 241.379 Q715.369 240.545 716.549 237.443 L717.313 235.499 L706.827 209.99 L711.341 209.99 L719.443 230.268 L727.545 209.99 L732.059 209.99 L720.67 238.323 Z" fill="#000000" fill-rule="nonzero" fill-opacity="1" /></svg>
