<?xml version="1.0" encoding="utf-8"?>
<svg xmlns="http://www.w3.org/2000/svg" xmlns:xlink="http://www.w3.org/1999/xlink" width="600" height="400" viewBox="0 0 2400 1600">
<defs>
  <clipPath id="clip430">
    <rect x="0" y="0" width="2400" height="1600"/>
  </clipPath>
</defs>
<path clip-path="url(#clip430)" d="M0 1600 L2400 1600 L2400 8.88178e-14 L0 8.88178e-14  Z" fill="#ffffff" fill-rule="evenodd" fill-opacity="1"/>
<defs>
  <clipPath id="clip431">
    <rect x="480" y="0" width="1681" height="1600"/>
  </clipPath>
</defs>
<path clip-path="url(#clip430)" d="M287.366 1423.18 L2352.76 1423.18 L2352.76 123.472 L287.366 123.472  Z" fill="#ffffff" fill-rule="evenodd" fill-opacity="1"/>
<defs>
  <clipPath id="clip432">
    <rect x="287" y="123" width="2066" height="1301"/>
  </clipPath>
</defs>
<polyline clip-path="url(#clip432)" style="stroke:#000000; stroke-linecap:round; stroke-linejoin:round; stroke-width:2; stroke-opacity:0.1; fill:none" points="343.87,1423.18 343.87,123.472 "/>
<polyline clip-path="url(#clip432)" style="stroke:#000000; stroke-linecap:round; stroke-linejoin:round; stroke-width:2; stroke-opacity:0.1; fill:none" points="831.478,1423.18 831.478,123.472 "/>
<polyline clip-path="url(#clip432)" style="stroke:#000000; stroke-linecap:round; stroke-linejoin:round; stroke-width:2; stroke-opacity:0.1; fill:none" points="1319.09,1423.18 1319.09,123.472 "/>
<polyline clip-path="url(#clip432)" style="stroke:#000000; stroke-linecap:round; stroke-linejoin:round; stroke-width:2; stroke-opacity:0.1; fill:none" points="1806.69,1423.18 1806.69,123.472 "/>
<polyline clip-path="url(#clip432)" style="stroke:#000000; stroke-linecap:round; stroke-linejoin:round; stroke-width:2; stroke-opacity:0.1; fill:none" points="2294.3,1423.18 2294.3,123.472 "/>
<polyline clip-path="url(#clip430)" style="stroke:#000000; stroke-linecap:round; stroke-linejoin:round; stroke-width:4; stroke-opacity:1; fill:none" points="287.366,1423.18 2352.76,1423.18 "/>
<polyline clip-path="url(#clip430)" style="stroke:#000000; stroke-linecap:round; stroke-linejoin:round; stroke-width:4; stroke-opacity:1; fill:none" points="343.87,1423.18 343.87,1404.28 "/>
<polyline clip-path="url(#clip430)" style="stroke:#000000; stroke-linecap:round; stroke-linejoin:round; stroke-width:4; stroke-opacity:1; fill:none" points="831.478,1423.18 831.478,1404.28 "/>
<polyline clip-path="url(#clip430)" style="stroke:#000000; stroke-linecap:round; stroke-linejoin:round; stroke-width:4; stroke-opacity:1; fill:none" points="1319.09,1423.18 1319.09,1404.28 "/>
<polyline clip-path="url(#clip430)" style="stroke:#000000; stroke-linecap:round; stroke-linejoin:round; stroke-width:4; stroke-opacity:1; fill:none" points="1806.69,1423.18 1806.69,1404.28 "/>
<polyline clip-path="url(#clip430)" style="stroke:#000000; stroke-linecap:round; stroke-linejoin:round; stroke-width:4; stroke-opacity:1; fill:none" points="2294.3,1423.18 2294.3,1404.28 "/>
<path clip-path="url(#clip430)" d="M343.87 1454.1 Q340.259 1454.1 338.43 1457.66 Q336.625 1461.2 336.625 1468.33 Q336.625 1475.44 338.43 1479.01 Q340.259 1482.55 343.87 1482.55 Q347.504 1482.55 349.31 1479.01 Q351.138 1475.44 351.138 1468.33 Q351.138 1461.2 349.31 1457.66 Q347.504 1454.1 343.87 1454.1 M343.87 1450.39 Q349.68 1450.39 352.736 1455 Q355.814 1459.58 355.814 1468.33 Q355.814 1477.06 352.736 1481.67 Q349.68 1486.25 343.87 1486.25 Q338.06 1486.25 334.981 1481.67 Q331.926 1477.06 331.926 1468.33 Q331.926 1459.58 334.981 1455 Q338.06 1450.39 343.87 1450.39 Z" fill="#000000" fill-rule="nonzero" fill-opacity="1" /><path clip-path="url(#clip430)" d="M795.17 1481.64 L811.489 1481.64 L811.489 1485.58 L789.545 1485.58 L789.545 1481.64 Q792.207 1478.89 796.79 1474.26 Q801.397 1469.61 802.577 1468.27 Q804.823 1465.74 805.702 1464.01 Q806.605 1462.25 806.605 1460.56 Q806.605 1457.8 804.661 1456.07 Q802.74 1454.33 799.638 1454.33 Q797.439 1454.33 794.985 1455.09 Q792.554 1455.86 789.777 1457.41 L789.777 1452.69 Q792.601 1451.55 795.054 1450.97 Q797.508 1450.39 799.545 1450.39 Q804.915 1450.39 808.11 1453.08 Q811.304 1455.77 811.304 1460.26 Q811.304 1462.39 810.494 1464.31 Q809.707 1466.2 807.601 1468.8 Q807.022 1469.47 803.92 1472.69 Q800.818 1475.88 795.17 1481.64 Z" fill="#000000" fill-rule="nonzero" fill-opacity="1" /><path clip-path="url(#clip430)" d="M821.351 1451.02 L839.707 1451.02 L839.707 1454.96 L825.633 1454.96 L825.633 1463.43 Q826.651 1463.08 827.67 1462.92 Q828.688 1462.73 829.707 1462.73 Q835.494 1462.73 838.874 1465.9 Q842.253 1469.08 842.253 1474.49 Q842.253 1480.07 838.781 1483.17 Q835.309 1486.25 828.989 1486.25 Q826.813 1486.25 824.545 1485.88 Q822.3 1485.51 819.892 1484.77 L819.892 1480.07 Q821.976 1481.2 824.198 1481.76 Q826.42 1482.32 828.897 1482.32 Q832.901 1482.32 835.239 1480.21 Q837.577 1478.1 837.577 1474.49 Q837.577 1470.88 835.239 1468.77 Q832.901 1466.67 828.897 1466.67 Q827.022 1466.67 825.147 1467.08 Q823.295 1467.5 821.351 1468.38 L821.351 1451.02 Z" fill="#000000" fill-rule="nonzero" fill-opacity="1" /><path clip-path="url(#clip430)" d="M861.466 1454.1 Q857.855 1454.1 856.026 1457.66 Q854.221 1461.2 854.221 1468.33 Q854.221 1475.44 856.026 1479.01 Q857.855 1482.55 861.466 1482.55 Q865.1 1482.55 866.906 1479.01 Q868.735 1475.44 868.735 1468.33 Q868.735 1461.2 866.906 1457.66 Q865.1 1454.1 861.466 1454.1 M861.466 1450.39 Q867.276 1450.39 870.332 1455 Q873.41 1459.58 873.41 1468.33 Q873.41 1477.06 870.332 1481.67 Q867.276 1486.25 861.466 1486.25 Q855.656 1486.25 852.577 1481.67 Q849.522 1477.06 849.522 1468.33 Q849.522 1459.58 852.577 1455 Q855.656 1450.39 861.466 1450.39 Z" fill="#000000" fill-rule="nonzero" fill-opacity="1" /><path clip-path="url(#clip430)" d="M1278.7 1451.02 L1297.06 1451.02 L1297.06 1454.96 L1282.99 1454.96 L1282.99 1463.43 Q1284 1463.08 1285.02 1462.92 Q1286.04 1462.73 1287.06 1462.73 Q1292.85 1462.73 1296.23 1465.9 Q1299.61 1469.08 1299.61 1474.49 Q1299.61 1480.07 1296.13 1483.17 Q1292.66 1486.25 1286.34 1486.25 Q1284.17 1486.25 1281.9 1485.88 Q1279.65 1485.51 1277.25 1484.77 L1277.25 1480.07 Q1279.33 1481.2 1281.55 1481.76 Q1283.77 1482.32 1286.25 1482.32 Q1290.25 1482.32 1292.59 1480.21 Q1294.93 1478.1 1294.93 1474.49 Q1294.93 1470.88 1292.59 1468.77 Q1290.25 1466.67 1286.25 1466.67 Q1284.38 1466.67 1282.5 1467.08 Q1280.65 1467.5 1278.7 1468.38 L1278.7 1451.02 Z" fill="#000000" fill-rule="nonzero" fill-opacity="1" /><path clip-path="url(#clip430)" d="M1318.82 1454.1 Q1315.21 1454.1 1313.38 1457.66 Q1311.57 1461.2 1311.57 1468.33 Q1311.57 1475.44 1313.38 1479.01 Q1315.21 1482.55 1318.82 1482.55 Q1322.45 1482.55 1324.26 1479.01 Q1326.09 1475.44 1326.09 1468.33 Q1326.09 1461.2 1324.26 1457.66 Q1322.45 1454.1 1318.82 1454.1 M1318.82 1450.39 Q1324.63 1450.39 1327.69 1455 Q1330.76 1459.58 1330.76 1468.33 Q1330.76 1477.06 1327.69 1481.67 Q1324.63 1486.25 1318.82 1486.25 Q1313.01 1486.25 1309.93 1481.67 Q1306.88 1477.06 1306.88 1468.33 Q1306.88 1459.58 1309.93 1455 Q1313.01 1450.39 1318.82 1450.39 Z" fill="#000000" fill-rule="nonzero" fill-opacity="1" /><path clip-path="url(#clip430)" d="M1348.98 1454.1 Q1345.37 1454.1 1343.54 1457.66 Q1341.74 1461.2 1341.74 1468.33 Q1341.74 1475.44 1343.54 1479.01 Q1345.37 1482.55 1348.98 1482.55 Q1352.62 1482.55 1354.42 1479.01 Q1356.25 1475.44 1356.25 1468.33 Q1356.25 1461.2 1354.42 1457.66 Q1352.62 1454.1 1348.98 1454.1 M1348.98 1450.39 Q1354.79 1450.39 1357.85 1455 Q1360.93 1459.58 1360.93 1468.33 Q1360.93 1477.06 1357.85 1481.67 Q1354.79 1486.25 1348.98 1486.25 Q1343.17 1486.25 1340.09 1481.67 Q1337.04 1477.06 1337.04 1468.33 Q1337.04 1459.58 1340.09 1455 Q1343.17 1450.39 1348.98 1450.39 Z" fill="#000000" fill-rule="nonzero" fill-opacity="1" /><path clip-path="url(#clip430)" d="M1764.97 1451.02 L1787.19 1451.02 L1787.19 1453.01 L1774.65 1485.58 L1769.76 1485.58 L1781.57 1454.96 L1764.97 1454.96 L1764.97 1451.02 Z" fill="#000000" fill-rule="nonzero" fill-opacity="1" /><path clip-path="url(#clip430)" d="M1796.36 1451.02 L1814.71 1451.02 L1814.71 1454.96 L1800.64 1454.96 L1800.64 1463.43 Q1801.66 1463.08 1802.68 1462.92 Q1803.7 1462.73 1804.71 1462.73 Q1810.5 1462.73 1813.88 1465.9 Q1817.26 1469.08 1817.26 1474.49 Q1817.26 1480.07 1813.79 1483.17 Q1810.32 1486.25 1804 1486.25 Q1801.82 1486.25 1799.55 1485.88 Q1797.31 1485.51 1794.9 1484.77 L1794.9 1480.07 Q1796.98 1481.2 1799.21 1481.76 Q1801.43 1482.32 1803.9 1482.32 Q1807.91 1482.32 1810.25 1480.21 Q1812.58 1478.1 1812.58 1474.49 Q1812.58 1470.88 1810.25 1468.77 Q1807.91 1466.67 1803.9 1466.67 Q1802.03 1466.67 1800.15 1467.08 Q1798.3 1467.5 1796.36 1468.38 L1796.36 1451.02 Z" fill="#000000" fill-rule="nonzero" fill-opacity="1" /><path clip-path="url(#clip430)" d="M1836.47 1454.1 Q1832.86 1454.1 1831.03 1457.66 Q1829.23 1461.2 1829.23 1468.33 Q1829.23 1475.44 1831.03 1479.01 Q1832.86 1482.55 1836.47 1482.55 Q1840.11 1482.55 1841.91 1479.01 Q1843.74 1475.44 1843.74 1468.33 Q1843.74 1461.2 1841.91 1457.66 Q1840.11 1454.1 1836.47 1454.1 M1836.47 1450.39 Q1842.28 1450.39 1845.34 1455 Q1848.42 1459.58 1848.42 1468.33 Q1848.42 1477.06 1845.34 1481.67 Q1842.28 1486.25 1836.47 1486.25 Q1830.66 1486.25 1827.58 1481.67 Q1824.53 1477.06 1824.53 1468.33 Q1824.53 1459.58 1827.58 1455 Q1830.66 1450.39 1836.47 1450.39 Z" fill="#000000" fill-rule="nonzero" fill-opacity="1" /><path clip-path="url(#clip430)" d="M2238.83 1481.64 L2246.47 1481.64 L2246.47 1455.28 L2238.16 1456.95 L2238.16 1452.69 L2246.42 1451.02 L2251.1 1451.02 L2251.1 1481.64 L2258.73 1481.64 L2258.73 1485.58 L2238.83 1485.58 L2238.83 1481.64 Z" fill="#000000" fill-rule="nonzero" fill-opacity="1" /><path clip-path="url(#clip430)" d="M2278.18 1454.1 Q2274.57 1454.1 2272.74 1457.66 Q2270.93 1461.2 2270.93 1468.33 Q2270.93 1475.44 2272.74 1479.01 Q2274.57 1482.55 2278.18 1482.55 Q2281.81 1482.55 2283.62 1479.01 Q2285.45 1475.44 2285.45 1468.33 Q2285.45 1461.2 2283.62 1457.66 Q2281.81 1454.1 2278.18 1454.1 M2278.18 1450.39 Q2283.99 1450.39 2287.04 1455 Q2290.12 1459.58 2290.12 1468.33 Q2290.12 1477.06 2287.04 1481.67 Q2283.99 1486.25 2278.18 1486.25 Q2272.37 1486.25 2269.29 1481.67 Q2266.23 1477.06 2266.23 1468.33 Q2266.23 1459.58 2269.29 1455 Q2272.37 1450.39 2278.18 1450.39 Z" fill="#000000" fill-rule="nonzero" fill-opacity="1" /><path clip-path="url(#clip430)" d="M2308.34 1454.1 Q2304.73 1454.1 2302.9 1457.66 Q2301.1 1461.2 2301.1 1468.33 Q2301.1 1475.44 2302.9 1479.01 Q2304.73 1482.55 2308.34 1482.55 Q2311.97 1482.55 2313.78 1479.01 Q2315.61 1475.44 2315.61 1468.33 Q2315.61 1461.2 2313.78 1457.66 Q2311.97 1454.1 2308.34 1454.1 M2308.34 1450.39 Q2314.15 1450.39 2317.21 1455 Q2320.29 1459.58 2320.29 1468.33 Q2320.29 1477.06 2317.21 1481.67 Q2314.15 1486.25 2308.34 1486.25 Q2302.53 1486.25 2299.45 1481.67 Q2296.4 1477.06 2296.4 1468.33 Q2296.4 1459.58 2299.45 1455 Q2302.53 1450.39 2308.34 1450.39 Z" fill="#000000" fill-rule="nonzero" fill-opacity="1" /><path clip-path="url(#clip430)" d="M2338.5 1454.1 Q2334.89 1454.1 2333.06 1457.66 Q2331.26 1461.2 2331.26 1468.33 Q2331.26 1475.44 2333.06 1479.01 Q2334.89 1482.55 2338.5 1482.55 Q2342.14 1482.55 2343.94 1479.01 Q2345.77 1475.44 2345.77 1468.33 Q2345.77 1461.2 2343.94 1457.66 Q2342.14 1454.1 2338.5 1454.1 M2338.5 1450.39 Q2344.31 1450.39 2347.37 1455 Q2350.45 1459.58 2350.45 1468.33 Q2350.45 1477.06 2347.37 1481.67 Q2344.31 1486.25 2338.5 1486.25 Q2332.69 1486.25 2329.61 1481.67 Q2326.56 1477.06 2326.56 1468.33 Q2326.56 1459.58 2329.61 1455 Q2332.69 1450.39 2338.5 1450.39 Z" fill="#000000" fill-rule="nonzero" fill-opacity="1" /><path clip-path="url(#clip430)" d="M1283.9 1524.18 L1283.9 1530.96 Q1280.66 1527.94 1276.97 1526.44 Q1273.3 1524.95 1269.17 1524.95 Q1261.02 1524.95 1256.69 1529.95 Q1252.36 1534.91 1252.36 1544.33 Q1252.36 1553.72 1256.69 1558.72 Q1261.02 1563.68 1269.17 1563.68 Q1273.3 1563.68 1276.97 1562.19 Q1280.66 1560.69 1283.9 1557.67 L1283.9 1564.38 Q1280.53 1566.68 1276.74 1567.82 Q1272.99 1568.97 1268.79 1568.97 Q1258 1568.97 1251.79 1562.38 Q1245.58 1555.76 1245.58 1544.33 Q1245.58 1532.87 1251.79 1526.28 Q1258 1519.66 1268.79 1519.66 Q1273.05 1519.66 1276.81 1520.81 Q1280.59 1521.92 1283.9 1524.18 Z" fill="#000000" fill-rule="nonzero" fill-opacity="1" /><path clip-path="url(#clip430)" d="M1324.07 1548.76 L1324.07 1551.62 L1297.14 1551.62 Q1297.53 1557.67 1300.77 1560.85 Q1304.05 1564 1309.88 1564 Q1313.25 1564 1316.4 1563.17 Q1319.58 1562.35 1322.7 1560.69 L1322.7 1566.23 Q1319.55 1567.57 1316.24 1568.27 Q1312.93 1568.97 1309.53 1568.97 Q1301 1568.97 1296 1564 Q1291.03 1559.04 1291.03 1550.57 Q1291.03 1541.82 1295.74 1536.69 Q1300.49 1531.54 1308.51 1531.54 Q1315.7 1531.54 1319.87 1536.18 Q1324.07 1540.8 1324.07 1548.76 M1318.21 1547.04 Q1318.15 1542.23 1315.51 1539.37 Q1312.9 1536.5 1308.57 1536.5 Q1303.67 1536.5 1300.71 1539.27 Q1297.78 1542.04 1297.34 1547.07 L1318.21 1547.04 Z" fill="#000000" fill-rule="nonzero" fill-opacity="1" /><path clip-path="url(#clip430)" d="M1333.68 1518.52 L1339.54 1518.52 L1339.54 1568.04 L1333.68 1568.04 L1333.68 1518.52 Z" fill="#000000" fill-rule="nonzero" fill-opacity="1" /><path clip-path="url(#clip430)" d="M1351.79 1518.52 L1357.65 1518.52 L1357.65 1568.04 L1351.79 1568.04 L1351.79 1518.52 Z" fill="#000000" fill-rule="nonzero" fill-opacity="1" /><path clip-path="url(#clip430)" d="M1392.63 1533.45 L1392.63 1538.98 Q1390.15 1537.71 1387.47 1537.07 Q1384.8 1536.44 1381.94 1536.44 Q1377.58 1536.44 1375.38 1537.77 Q1373.21 1539.11 1373.21 1541.79 Q1373.21 1543.82 1374.77 1545 Q1376.33 1546.15 1381.04 1547.2 L1383.05 1547.64 Q1389.29 1548.98 1391.9 1551.43 Q1394.54 1553.85 1394.54 1558.21 Q1394.54 1563.17 1390.59 1566.07 Q1386.68 1568.97 1379.8 1568.97 Q1376.94 1568.97 1373.82 1568.39 Q1370.73 1567.85 1367.29 1566.74 L1367.29 1560.69 Q1370.54 1562.38 1373.69 1563.24 Q1376.84 1564.07 1379.93 1564.07 Q1384.07 1564.07 1386.3 1562.66 Q1388.52 1561.23 1388.52 1558.65 Q1388.52 1556.27 1386.9 1554.99 Q1385.31 1553.72 1379.87 1552.54 L1377.83 1552.07 Q1372.39 1550.92 1369.97 1548.56 Q1367.55 1546.18 1367.55 1542.04 Q1367.55 1537.01 1371.11 1534.27 Q1374.68 1531.54 1381.24 1531.54 Q1384.48 1531.54 1387.35 1532.01 Q1390.21 1532.49 1392.63 1533.45 Z" fill="#000000" fill-rule="nonzero" fill-opacity="1" /><polyline clip-path="url(#clip432)" style="stroke:#000000; stroke-linecap:round; stroke-linejoin:round; stroke-width:2; stroke-opacity:0.1; fill:none" points="287.366,1313.57 2352.76,1313.57 "/>
<polyline clip-path="url(#clip432)" style="stroke:#000000; stroke-linecap:round; stroke-linejoin:round; stroke-width:2; stroke-opacity:0.1; fill:none" points="287.366,1094.67 2352.76,1094.67 "/>
<polyline clip-path="url(#clip432)" style="stroke:#000000; stroke-linecap:round; stroke-linejoin:round; stroke-width:2; stroke-opacity:0.1; fill:none" points="287.366,875.783 2352.76,875.783 "/>
<polyline clip-path="url(#clip432)" style="stroke:#000000; stroke-linecap:round; stroke-linejoin:round; stroke-width:2; stroke-opacity:0.1; fill:none" points="287.366,656.891 2352.76,656.891 "/>
<polyline clip-path="url(#clip432)" style="stroke:#000000; stroke-linecap:round; stroke-linejoin:round; stroke-width:2; stroke-opacity:0.1; fill:none" points="287.366,437.999 2352.76,437.999 "/>
<polyline clip-path="url(#clip432)" style="stroke:#000000; stroke-linecap:round; stroke-linejoin:round; stroke-width:2; stroke-opacity:0.1; fill:none" points="287.366,219.108 2352.76,219.108 "/>
<polyline clip-path="url(#clip430)" style="stroke:#000000; stroke-linecap:round; stroke-linejoin:round; stroke-width:4; stroke-opacity:1; fill:none" points="287.366,1423.18 287.366,123.472 "/>
<polyline clip-path="url(#clip430)" style="stroke:#000000; stroke-linecap:round; stroke-linejoin:round; stroke-width:4; stroke-opacity:1; fill:none" points="287.366,1313.57 306.264,1313.57 "/>
<polyline clip-path="url(#clip430)" style="stroke:#000000; stroke-linecap:round; stroke-linejoin:round; stroke-width:4; stroke-opacity:1; fill:none" points="287.366,1094.67 306.264,1094.67 "/>
<polyline clip-path="url(#clip430)" style="stroke:#000000; stroke-linecap:round; stroke-linejoin:round; stroke-width:4; stroke-opacity:1; fill:none" points="287.366,875.783 306.264,875.783 "/>
<polyline clip-path="url(#clip430)" style="stroke:#000000; stroke-linecap:round; stroke-linejoin:round; stroke-width:4; stroke-opacity:1; fill:none" points="287.366,656.891 306.264,656.891 "/>
<polyline clip-path="url(#clip430)" style="stroke:#000000; stroke-linecap:round; stroke-linejoin:round; stroke-width:4; stroke-opacity:1; fill:none" points="287.366,437.999 306.264,437.999 "/>
<polyline clip-path="url(#clip430)" style="stroke:#000000; stroke-linecap:round; stroke-linejoin:round; stroke-width:4; stroke-opacity:1; fill:none" points="287.366,219.108 306.264,219.108 "/>
<path clip-path="url(#clip430)" d="M114.26 1314.02 L143.936 1314.02 L143.936 1317.95 L114.26 1317.95 L114.26 1314.02 Z" fill="#000000" fill-rule="nonzero" fill-opacity="1" /><path clip-path="url(#clip430)" d="M164.028 1299.37 Q160.417 1299.37 158.589 1302.93 Q156.783 1306.47 156.783 1313.6 Q156.783 1320.71 158.589 1324.27 Q160.417 1327.81 164.028 1327.81 Q167.663 1327.81 169.468 1324.27 Q171.297 1320.71 171.297 1313.6 Q171.297 1306.47 169.468 1302.93 Q167.663 1299.37 164.028 1299.37 M164.028 1295.66 Q169.839 1295.66 172.894 1300.27 Q175.973 1304.85 175.973 1313.6 Q175.973 1322.33 172.894 1326.93 Q169.839 1331.52 164.028 1331.52 Q158.218 1331.52 155.14 1326.93 Q152.084 1322.33 152.084 1313.6 Q152.084 1304.85 155.14 1300.27 Q158.218 1295.66 164.028 1295.66 Z" fill="#000000" fill-rule="nonzero" fill-opacity="1" /><path clip-path="url(#clip430)" d="M184.19 1324.97 L189.075 1324.97 L189.075 1330.85 L184.19 1330.85 L184.19 1324.97 Z" fill="#000000" fill-rule="nonzero" fill-opacity="1" /><path clip-path="url(#clip430)" d="M199.306 1296.29 L217.662 1296.29 L217.662 1300.22 L203.588 1300.22 L203.588 1308.69 Q204.607 1308.35 205.625 1308.18 Q206.644 1308 207.662 1308 Q213.449 1308 216.829 1311.17 Q220.209 1314.34 220.209 1319.76 Q220.209 1325.34 216.736 1328.44 Q213.264 1331.52 206.945 1331.52 Q204.769 1331.52 202.5 1331.15 Q200.255 1330.78 197.848 1330.04 L197.848 1325.34 Q199.931 1326.47 202.153 1327.03 Q204.375 1327.58 206.852 1327.58 Q210.857 1327.58 213.195 1325.48 Q215.533 1323.37 215.533 1319.76 Q215.533 1316.15 213.195 1314.04 Q210.857 1311.93 206.852 1311.93 Q204.977 1311.93 203.102 1312.35 Q201.25 1312.77 199.306 1313.65 L199.306 1296.29 Z" fill="#000000" fill-rule="nonzero" fill-opacity="1" /><path clip-path="url(#clip430)" d="M239.422 1299.37 Q235.81 1299.37 233.982 1302.93 Q232.176 1306.47 232.176 1313.6 Q232.176 1320.71 233.982 1324.27 Q235.81 1327.81 239.422 1327.81 Q243.056 1327.81 244.861 1324.27 Q246.69 1320.71 246.69 1313.6 Q246.69 1306.47 244.861 1302.93 Q243.056 1299.37 239.422 1299.37 M239.422 1295.66 Q245.232 1295.66 248.287 1300.27 Q251.366 1304.85 251.366 1313.6 Q251.366 1322.33 248.287 1326.93 Q245.232 1331.52 239.422 1331.52 Q233.611 1331.52 230.533 1326.93 Q227.477 1322.33 227.477 1313.6 Q227.477 1304.85 230.533 1300.27 Q233.611 1295.66 239.422 1295.66 Z" fill="#000000" fill-rule="nonzero" fill-opacity="1" /><path clip-path="url(#clip430)" d="M115.256 1095.13 L144.931 1095.13 L144.931 1099.06 L115.256 1099.06 L115.256 1095.13 Z" fill="#000000" fill-rule="nonzero" fill-opacity="1" /><path clip-path="url(#clip430)" d="M165.024 1080.47 Q161.413 1080.47 159.584 1084.04 Q157.778 1087.58 157.778 1094.71 Q157.778 1101.82 159.584 1105.38 Q161.413 1108.92 165.024 1108.92 Q168.658 1108.92 170.464 1105.38 Q172.292 1101.82 172.292 1094.71 Q172.292 1087.58 170.464 1084.04 Q168.658 1080.47 165.024 1080.47 M165.024 1076.77 Q170.834 1076.77 173.889 1081.38 Q176.968 1085.96 176.968 1094.71 Q176.968 1103.44 173.889 1108.04 Q170.834 1112.63 165.024 1112.63 Q159.214 1112.63 156.135 1108.04 Q153.079 1103.44 153.079 1094.71 Q153.079 1085.96 156.135 1081.38 Q159.214 1076.77 165.024 1076.77 Z" fill="#000000" fill-rule="nonzero" fill-opacity="1" /><path clip-path="url(#clip430)" d="M185.186 1106.08 L190.07 1106.08 L190.07 1111.95 L185.186 1111.95 L185.186 1106.08 Z" fill="#000000" fill-rule="nonzero" fill-opacity="1" /><path clip-path="url(#clip430)" d="M204.283 1108.02 L220.602 1108.02 L220.602 1111.95 L198.658 1111.95 L198.658 1108.02 Q201.32 1105.27 205.903 1100.64 Q210.51 1095.98 211.69 1094.64 Q213.936 1092.12 214.815 1090.38 Q215.718 1088.62 215.718 1086.93 Q215.718 1084.18 213.774 1082.44 Q211.852 1080.71 208.75 1080.71 Q206.551 1080.71 204.098 1081.47 Q201.667 1082.23 198.889 1083.78 L198.889 1079.06 Q201.713 1077.93 204.167 1077.35 Q206.621 1076.77 208.658 1076.77 Q214.028 1076.77 217.223 1079.46 Q220.417 1082.14 220.417 1086.63 Q220.417 1088.76 219.607 1090.68 Q218.82 1092.58 216.713 1095.17 Q216.135 1095.84 213.033 1099.06 Q209.931 1102.26 204.283 1108.02 Z" fill="#000000" fill-rule="nonzero" fill-opacity="1" /><path clip-path="url(#clip430)" d="M230.463 1077.39 L248.82 1077.39 L248.82 1081.33 L234.746 1081.33 L234.746 1089.8 Q235.764 1089.46 236.783 1089.29 Q237.801 1089.11 238.82 1089.11 Q244.607 1089.11 247.986 1092.28 Q251.366 1095.45 251.366 1100.87 Q251.366 1106.45 247.894 1109.55 Q244.421 1112.63 238.102 1112.63 Q235.926 1112.63 233.658 1112.26 Q231.412 1111.89 229.005 1111.14 L229.005 1106.45 Q231.088 1107.58 233.31 1108.14 Q235.533 1108.69 238.009 1108.69 Q242.014 1108.69 244.352 1106.58 Q246.69 1104.48 246.69 1100.87 Q246.69 1097.26 244.352 1095.15 Q242.014 1093.04 238.009 1093.04 Q236.135 1093.04 234.26 1093.46 Q232.408 1093.88 230.463 1094.76 L230.463 1077.39 Z" fill="#000000" fill-rule="nonzero" fill-opacity="1" /><path clip-path="url(#clip430)" d="M164.028 861.582 Q160.417 861.582 158.589 865.147 Q156.783 868.688 156.783 875.818 Q156.783 882.924 158.589 886.489 Q160.417 890.031 164.028 890.031 Q167.663 890.031 169.468 886.489 Q171.297 882.924 171.297 875.818 Q171.297 868.688 169.468 865.147 Q167.663 861.582 164.028 861.582 M164.028 857.878 Q169.839 857.878 172.894 862.485 Q175.973 867.068 175.973 875.818 Q175.973 884.545 172.894 889.151 Q169.839 893.734 164.028 893.734 Q158.218 893.734 155.14 889.151 Q152.084 884.545 152.084 875.818 Q152.084 867.068 155.14 862.485 Q158.218 857.878 164.028 857.878 Z" fill="#000000" fill-rule="nonzero" fill-opacity="1" /><path clip-path="url(#clip430)" d="M184.19 887.184 L189.075 887.184 L189.075 893.063 L184.19 893.063 L184.19 887.184 Z" fill="#000000" fill-rule="nonzero" fill-opacity="1" /><path clip-path="url(#clip430)" d="M209.26 861.582 Q205.649 861.582 203.82 865.147 Q202.014 868.688 202.014 875.818 Q202.014 882.924 203.82 886.489 Q205.649 890.031 209.26 890.031 Q212.894 890.031 214.699 886.489 Q216.528 882.924 216.528 875.818 Q216.528 868.688 214.699 865.147 Q212.894 861.582 209.26 861.582 M209.26 857.878 Q215.07 857.878 218.125 862.485 Q221.204 867.068 221.204 875.818 Q221.204 884.545 218.125 889.151 Q215.07 893.734 209.26 893.734 Q203.449 893.734 200.371 889.151 Q197.315 884.545 197.315 875.818 Q197.315 867.068 200.371 862.485 Q203.449 857.878 209.26 857.878 Z" fill="#000000" fill-rule="nonzero" fill-opacity="1" /><path clip-path="url(#clip430)" d="M239.422 861.582 Q235.81 861.582 233.982 865.147 Q232.176 868.688 232.176 875.818 Q232.176 882.924 233.982 886.489 Q235.81 890.031 239.422 890.031 Q243.056 890.031 244.861 886.489 Q246.69 882.924 246.69 875.818 Q246.69 868.688 244.861 865.147 Q243.056 861.582 239.422 861.582 M239.422 857.878 Q245.232 857.878 248.287 862.485 Q251.366 867.068 251.366 875.818 Q251.366 884.545 248.287 889.151 Q245.232 893.734 239.422 893.734 Q233.611 893.734 230.533 889.151 Q227.477 884.545 227.477 875.818 Q227.477 867.068 230.533 862.485 Q233.611 857.878 239.422 857.878 Z" fill="#000000" fill-rule="nonzero" fill-opacity="1" /><path clip-path="url(#clip430)" d="M165.024 642.69 Q161.413 642.69 159.584 646.255 Q157.778 649.796 157.778 656.926 Q157.778 664.032 159.584 667.597 Q161.413 671.139 165.024 671.139 Q168.658 671.139 170.464 667.597 Q172.292 664.032 172.292 656.926 Q172.292 649.796 170.464 646.255 Q168.658 642.69 165.024 642.69 M165.024 638.986 Q170.834 638.986 173.889 643.593 Q176.968 648.176 176.968 656.926 Q176.968 665.653 173.889 670.259 Q170.834 674.843 165.024 674.843 Q159.214 674.843 156.135 670.259 Q153.079 665.653 153.079 656.926 Q153.079 648.176 156.135 643.593 Q159.214 638.986 165.024 638.986 Z" fill="#000000" fill-rule="nonzero" fill-opacity="1" /><path clip-path="url(#clip430)" d="M185.186 668.292 L190.07 668.292 L190.07 674.171 L185.186 674.171 L185.186 668.292 Z" fill="#000000" fill-rule="nonzero" fill-opacity="1" /><path clip-path="url(#clip430)" d="M204.283 670.236 L220.602 670.236 L220.602 674.171 L198.658 674.171 L198.658 670.236 Q201.32 667.481 205.903 662.852 Q210.51 658.199 211.69 656.857 Q213.936 654.333 214.815 652.597 Q215.718 650.838 215.718 649.148 Q215.718 646.394 213.774 644.658 Q211.852 642.921 208.75 642.921 Q206.551 642.921 204.098 643.685 Q201.667 644.449 198.889 646 L198.889 641.278 Q201.713 640.144 204.167 639.565 Q206.621 638.986 208.658 638.986 Q214.028 638.986 217.223 641.671 Q220.417 644.357 220.417 648.847 Q220.417 650.977 219.607 652.898 Q218.82 654.796 216.713 657.389 Q216.135 658.06 213.033 661.278 Q209.931 664.472 204.283 670.236 Z" fill="#000000" fill-rule="nonzero" fill-opacity="1" /><path clip-path="url(#clip430)" d="M230.463 639.611 L248.82 639.611 L248.82 643.546 L234.746 643.546 L234.746 652.019 Q235.764 651.671 236.783 651.509 Q237.801 651.324 238.82 651.324 Q244.607 651.324 247.986 654.495 Q251.366 657.667 251.366 663.083 Q251.366 668.662 247.894 671.764 Q244.421 674.843 238.102 674.843 Q235.926 674.843 233.658 674.472 Q231.412 674.102 229.005 673.361 L229.005 668.662 Q231.088 669.796 233.31 670.352 Q235.533 670.907 238.009 670.907 Q242.014 670.907 244.352 668.801 Q246.69 666.694 246.69 663.083 Q246.69 659.472 244.352 657.366 Q242.014 655.259 238.009 655.259 Q236.135 655.259 234.26 655.676 Q232.408 656.093 230.463 656.972 L230.463 639.611 Z" fill="#000000" fill-rule="nonzero" fill-opacity="1" /><path clip-path="url(#clip430)" d="M164.028 423.798 Q160.417 423.798 158.589 427.363 Q156.783 430.905 156.783 438.034 Q156.783 445.141 158.589 448.705 Q160.417 452.247 164.028 452.247 Q167.663 452.247 169.468 448.705 Q171.297 445.141 171.297 438.034 Q171.297 430.905 169.468 427.363 Q167.663 423.798 164.028 423.798 M164.028 420.094 Q169.839 420.094 172.894 424.701 Q175.973 429.284 175.973 438.034 Q175.973 446.761 172.894 451.367 Q169.839 455.951 164.028 455.951 Q158.218 455.951 155.14 451.367 Q152.084 446.761 152.084 438.034 Q152.084 429.284 155.14 424.701 Q158.218 420.094 164.028 420.094 Z" fill="#000000" fill-rule="nonzero" fill-opacity="1" /><path clip-path="url(#clip430)" d="M184.19 449.4 L189.075 449.4 L189.075 455.279 L184.19 455.279 L184.19 449.4 Z" fill="#000000" fill-rule="nonzero" fill-opacity="1" /><path clip-path="url(#clip430)" d="M199.306 420.719 L217.662 420.719 L217.662 424.655 L203.588 424.655 L203.588 433.127 Q204.607 432.78 205.625 432.617 Q206.644 432.432 207.662 432.432 Q213.449 432.432 216.829 435.604 Q220.209 438.775 220.209 444.191 Q220.209 449.77 216.736 452.872 Q213.264 455.951 206.945 455.951 Q204.769 455.951 202.5 455.58 Q200.255 455.21 197.848 454.469 L197.848 449.77 Q199.931 450.904 202.153 451.46 Q204.375 452.016 206.852 452.016 Q210.857 452.016 213.195 449.909 Q215.533 447.803 215.533 444.191 Q215.533 440.58 213.195 438.474 Q210.857 436.367 206.852 436.367 Q204.977 436.367 203.102 436.784 Q201.25 437.201 199.306 438.08 L199.306 420.719 Z" fill="#000000" fill-rule="nonzero" fill-opacity="1" /><path clip-path="url(#clip430)" d="M239.422 423.798 Q235.81 423.798 233.982 427.363 Q232.176 430.905 232.176 438.034 Q232.176 445.141 233.982 448.705 Q235.81 452.247 239.422 452.247 Q243.056 452.247 244.861 448.705 Q246.69 445.141 246.69 438.034 Q246.69 430.905 244.861 427.363 Q243.056 423.798 239.422 423.798 M239.422 420.094 Q245.232 420.094 248.287 424.701 Q251.366 429.284 251.366 438.034 Q251.366 446.761 248.287 451.367 Q245.232 455.951 239.422 455.951 Q233.611 455.951 230.533 451.367 Q227.477 446.761 227.477 438.034 Q227.477 429.284 230.533 424.701 Q233.611 420.094 239.422 420.094 Z" fill="#000000" fill-rule="nonzero" fill-opacity="1" /><path clip-path="url(#clip430)" d="M165.024 204.906 Q161.413 204.906 159.584 208.471 Q157.778 212.013 157.778 219.142 Q157.778 226.249 159.584 229.813 Q161.413 233.355 165.024 233.355 Q168.658 233.355 170.464 229.813 Q172.292 226.249 172.292 219.142 Q172.292 212.013 170.464 208.471 Q168.658 204.906 165.024 204.906 M165.024 201.203 Q170.834 201.203 173.889 205.809 Q176.968 210.392 176.968 219.142 Q176.968 227.869 173.889 232.476 Q170.834 237.059 165.024 237.059 Q159.214 237.059 156.135 232.476 Q153.079 227.869 153.079 219.142 Q153.079 210.392 156.135 205.809 Q159.214 201.203 165.024 201.203 Z" fill="#000000" fill-rule="nonzero" fill-opacity="1" /><path clip-path="url(#clip430)" d="M185.186 230.508 L190.07 230.508 L190.07 236.388 L185.186 236.388 L185.186 230.508 Z" fill="#000000" fill-rule="nonzero" fill-opacity="1" /><path clip-path="url(#clip430)" d="M199.075 201.828 L221.297 201.828 L221.297 203.818 L208.75 236.388 L203.866 236.388 L215.672 205.763 L199.075 205.763 L199.075 201.828 Z" fill="#000000" fill-rule="nonzero" fill-opacity="1" /><path clip-path="url(#clip430)" d="M230.463 201.828 L248.82 201.828 L248.82 205.763 L234.746 205.763 L234.746 214.235 Q235.764 213.888 236.783 213.726 Q237.801 213.54 238.82 213.54 Q244.607 213.54 247.986 216.712 Q251.366 219.883 251.366 225.3 Q251.366 230.878 247.894 233.98 Q244.421 237.059 238.102 237.059 Q235.926 237.059 233.658 236.688 Q231.412 236.318 229.005 235.577 L229.005 230.878 Q231.088 232.013 233.31 232.568 Q235.533 233.124 238.009 233.124 Q242.014 233.124 244.352 231.017 Q246.69 228.911 246.69 225.3 Q246.69 221.689 244.352 219.582 Q242.014 217.476 238.009 217.476 Q236.135 217.476 234.26 217.892 Q232.408 218.309 230.463 219.189 L230.463 201.828 Z" fill="#000000" fill-rule="nonzero" fill-opacity="1" /><path clip-path="url(#clip430)" d="M18.0438 893.717 L24.314 893.717 Q22.5634 897.378 21.704 900.624 Q20.8447 903.871 20.8447 906.894 Q20.8447 912.146 22.8817 915.011 Q24.9187 917.843 28.6745 917.843 Q31.8255 917.843 33.4488 915.966 Q35.0402 914.056 36.0269 908.772 L36.8226 904.889 Q38.1912 897.696 41.6605 894.29 Q45.098 890.853 50.8908 890.853 Q57.7976 890.853 61.3624 895.5 Q64.9272 900.115 64.9272 909.059 Q64.9272 912.433 64.1633 916.252 Q63.3994 920.04 61.9035 924.114 L55.2831 924.114 Q57.4793 920.199 58.5933 916.443 Q59.7073 912.687 59.7073 909.059 Q59.7073 903.552 57.543 900.561 Q55.3786 897.569 51.3682 897.569 Q47.8671 897.569 45.8937 899.733 Q43.9204 901.866 42.9337 906.767 L42.1698 910.682 Q40.7375 917.875 37.682 921.09 Q34.6264 924.305 29.1837 924.305 Q22.8817 924.305 19.2532 919.88 Q15.6248 915.424 15.6248 907.626 Q15.6248 904.284 16.2295 900.815 Q16.8343 897.346 18.0438 893.717 Z" fill="#000000" fill-rule="nonzero" fill-opacity="1" /><path clip-path="url(#clip430)" d="M28.3562 881.081 L28.3562 875.225 L64.0042 875.225 L64.0042 881.081 L28.3562 881.081 M14.479 881.081 L14.479 875.225 L21.895 875.225 L21.895 881.081 L14.479 881.081 Z" fill="#000000" fill-rule="nonzero" fill-opacity="1" /><path clip-path="url(#clip430)" d="M35.1993 835.217 Q31.2526 833.02 29.3747 829.965 Q27.4968 826.909 27.4968 822.772 Q27.4968 817.202 31.4117 814.178 Q35.2948 811.154 42.4881 811.154 L64.0042 811.154 L64.0042 817.042 L42.679 817.042 Q37.5546 817.042 35.072 818.857 Q32.5894 820.671 32.5894 824.395 Q32.5894 828.946 35.6131 831.588 Q38.6368 834.23 43.8567 834.23 L64.0042 834.23 L64.0042 840.118 L42.679 840.118 Q37.5228 840.118 35.072 841.932 Q32.5894 843.747 32.5894 847.534 Q32.5894 852.022 35.6449 854.664 Q38.6686 857.306 43.8567 857.306 L64.0042 857.306 L64.0042 863.194 L28.3562 863.194 L28.3562 857.306 L33.8944 857.306 Q30.616 855.3 29.0564 852.499 Q27.4968 849.699 27.4968 845.847 Q27.4968 841.964 29.4702 839.259 Q31.4436 836.522 35.1993 835.217 Z" fill="#000000" fill-rule="nonzero" fill-opacity="1" /><path clip-path="url(#clip430)" d="M28.3562 799.473 L28.3562 793.617 L64.0042 793.617 L64.0042 799.473 L28.3562 799.473 M14.479 799.473 L14.479 793.617 L21.895 793.617 L21.895 799.473 L14.479 799.473 Z" fill="#000000" fill-rule="nonzero" fill-opacity="1" /><path clip-path="url(#clip430)" d="M14.479 781.363 L14.479 775.506 L64.0042 775.506 L64.0042 781.363 L14.479 781.363 Z" fill="#000000" fill-rule="nonzero" fill-opacity="1" /><path clip-path="url(#clip430)" d="M46.0847 747.052 Q46.0847 754.149 47.7079 756.887 Q49.3312 759.624 53.2461 759.624 Q56.3653 759.624 58.2114 757.587 Q60.0256 755.518 60.0256 751.985 Q60.0256 747.115 56.5881 744.187 Q53.1188 741.227 47.3897 741.227 L46.0847 741.227 L46.0847 747.052 M43.6657 735.37 L64.0042 735.37 L64.0042 741.227 L58.5933 741.227 Q61.8398 743.232 63.3994 746.224 Q64.9272 749.216 64.9272 753.545 Q64.9272 759.019 61.8716 762.266 Q58.7843 765.48 53.6281 765.48 Q47.6125 765.48 44.5569 761.47 Q41.5014 757.428 41.5014 749.439 L41.5014 741.227 L40.9285 741.227 Q36.8862 741.227 34.6901 743.901 Q32.4621 746.542 32.4621 751.348 Q32.4621 754.404 33.1941 757.3 Q33.9262 760.197 35.3903 762.87 L29.9795 762.87 Q28.7381 759.656 28.1334 756.632 Q27.4968 753.608 27.4968 750.744 Q27.4968 743.009 31.5072 739.19 Q35.5176 735.37 43.6657 735.37 Z" fill="#000000" fill-rule="nonzero" fill-opacity="1" /><path clip-path="url(#clip430)" d="M33.8307 702.651 Q33.2578 703.637 33.0032 704.815 Q32.7167 705.961 32.7167 707.361 Q32.7167 712.327 35.9632 715 Q39.1779 717.642 45.2253 717.642 L64.0042 717.642 L64.0042 723.53 L28.3562 723.53 L28.3562 717.642 L33.8944 717.642 Q30.6479 715.796 29.0883 712.836 Q27.4968 709.876 27.4968 705.643 Q27.4968 705.038 27.5923 704.306 Q27.656 703.574 27.8151 702.683 L33.8307 702.651 Z" fill="#000000" fill-rule="nonzero" fill-opacity="1" /><path clip-path="url(#clip430)" d="M28.3562 696.508 L28.3562 690.651 L64.0042 690.651 L64.0042 696.508 L28.3562 696.508 M14.479 696.508 L14.479 690.651 L21.895 690.651 L21.895 696.508 L14.479 696.508 Z" fill="#000000" fill-rule="nonzero" fill-opacity="1" /><path clip-path="url(#clip430)" d="M18.2347 672.605 L28.3562 672.605 L28.3562 660.542 L32.9077 660.542 L32.9077 672.605 L52.2594 672.605 Q56.6199 672.605 57.8613 671.427 Q59.1026 670.217 59.1026 666.557 L59.1026 660.542 L64.0042 660.542 L64.0042 666.557 Q64.0042 673.337 61.4897 675.915 Q58.9434 678.493 52.2594 678.493 L32.9077 678.493 L32.9077 682.79 L28.3562 682.79 L28.3562 678.493 L18.2347 678.493 L18.2347 672.605 Z" fill="#000000" fill-rule="nonzero" fill-opacity="1" /><path clip-path="url(#clip430)" d="M67.3143 638.007 Q73.68 640.49 75.6216 642.845 Q77.5631 645.2 77.5631 649.147 L77.5631 653.826 L72.6615 653.826 L72.6615 650.388 Q72.6615 647.969 71.5157 646.633 Q70.3699 645.296 66.1048 643.672 L63.4312 642.622 L28.3562 657.04 L28.3562 650.834 L56.238 639.694 L28.3562 628.554 L28.3562 622.347 L67.3143 638.007 Z" fill="#000000" fill-rule="nonzero" fill-opacity="1" /><path clip-path="url(#clip430)" d="M411.261 14.0809 L411.261 22.0612 Q406.602 19.8332 402.47 18.7395 Q398.338 17.6457 394.49 17.6457 Q387.806 17.6457 384.16 20.2383 Q380.555 22.8309 380.555 27.611 Q380.555 31.6214 382.945 33.6873 Q385.376 35.7128 392.1 36.9686 L397.042 37.9813 Q406.197 39.7232 410.532 44.1387 Q414.907 48.5136 414.907 55.8863 Q414.907 64.6767 408.992 69.2137 Q403.118 73.7508 391.735 73.7508 Q387.441 73.7508 382.58 72.7785 Q377.76 71.8063 372.575 69.9024 L372.575 61.4765 Q377.557 64.2716 382.337 65.6895 Q387.117 67.1073 391.735 67.1073 Q398.744 67.1073 402.551 64.3527 Q406.359 61.598 406.359 56.4939 Q406.359 52.0379 403.605 49.5264 Q400.89 47.0148 394.652 45.759 L389.669 44.7868 Q380.514 42.9639 376.423 39.075 Q372.332 35.1862 372.332 28.2591 Q372.332 20.2383 377.962 15.6203 Q383.634 11.0023 393.558 11.0023 Q397.812 11.0023 402.227 11.7719 Q406.643 12.5416 411.261 14.0809 Z" fill="#000000" fill-rule="nonzero" fill-opacity="1" /><path clip-path="url(#clip430)" d="M444.924 32.4315 Q438.928 32.4315 435.445 37.1306 Q431.961 41.7891 431.961 49.9314 Q431.961 58.0738 435.404 62.7728 Q438.888 67.4314 444.924 67.4314 Q450.879 67.4314 454.362 62.7323 Q457.846 58.0333 457.846 49.9314 Q457.846 41.8701 454.362 37.1711 Q450.879 32.4315 444.924 32.4315 M444.924 26.1121 Q454.646 26.1121 460.196 32.4315 Q465.745 38.7509 465.745 49.9314 Q465.745 61.0714 460.196 67.4314 Q454.646 73.7508 444.924 73.7508 Q435.161 73.7508 429.611 67.4314 Q424.102 61.0714 424.102 49.9314 Q424.102 38.7509 429.611 32.4315 Q435.161 26.1121 444.924 26.1121 Z" fill="#000000" fill-rule="nonzero" fill-opacity="1" /><path clip-path="url(#clip430)" d="M504.391 34.1734 Q503.135 33.4443 501.636 33.1202 Q500.178 32.7556 498.396 32.7556 Q492.076 32.7556 488.674 36.8875 Q485.311 40.9789 485.311 48.6757 L485.311 72.576 L477.817 72.576 L477.817 27.2059 L485.311 27.2059 L485.311 34.2544 Q487.661 30.1225 491.428 28.1376 Q495.196 26.1121 500.583 26.1121 Q501.353 26.1121 502.285 26.2337 Q503.216 26.3147 504.351 26.5172 L504.391 34.1734 Z" fill="#000000" fill-rule="nonzero" fill-opacity="1" /><path clip-path="url(#clip430)" d="M519.582 14.324 L519.582 27.2059 L534.935 27.2059 L534.935 32.9987 L519.582 32.9987 L519.582 57.6282 Q519.582 63.1779 521.081 64.7578 Q522.62 66.3376 527.279 66.3376 L534.935 66.3376 L534.935 72.576 L527.279 72.576 Q518.65 72.576 515.369 69.3758 Q512.088 66.1351 512.088 57.6282 L512.088 32.9987 L506.619 32.9987 L506.619 27.2059 L512.088 27.2059 L512.088 14.324 L519.582 14.324 Z" fill="#000000" fill-rule="nonzero" fill-opacity="1" /><path clip-path="url(#clip430)" d="M583.546 48.0275 L583.546 51.6733 L549.275 51.6733 Q549.761 59.3701 553.893 63.421 Q558.066 67.4314 565.479 67.4314 Q569.773 67.4314 573.783 66.3781 Q577.834 65.3249 581.804 63.2184 L581.804 70.267 Q577.793 71.9684 573.581 72.8596 Q569.368 73.7508 565.033 73.7508 Q554.177 73.7508 547.817 67.4314 Q541.497 61.1119 541.497 50.3365 Q541.497 39.1965 547.493 32.6746 Q553.529 26.1121 563.737 26.1121 Q572.892 26.1121 578.199 32.0264 Q583.546 37.9003 583.546 48.0275 M576.092 45.84 Q576.011 39.7232 572.649 36.0774 Q569.327 32.4315 563.818 32.4315 Q557.579 32.4315 553.812 35.9558 Q550.085 39.4801 549.518 45.8805 L576.092 45.84 Z" fill="#000000" fill-rule="nonzero" fill-opacity="1" /><path clip-path="url(#clip430)" d="M625.635 34.0924 L625.635 9.54393 L633.088 9.54393 L633.088 72.576 L625.635 72.576 L625.635 65.7705 Q623.285 69.8214 619.68 71.8063 Q616.115 73.7508 611.092 73.7508 Q602.869 73.7508 597.683 67.1883 Q592.539 60.6258 592.539 49.9314 Q592.539 39.2371 597.683 32.6746 Q602.869 26.1121 611.092 26.1121 Q616.115 26.1121 619.68 28.0971 Q623.285 30.0415 625.635 34.0924 M600.235 49.9314 Q600.235 58.1548 603.598 62.8538 Q607 67.5124 612.915 67.5124 Q618.829 67.5124 622.232 62.8538 Q625.635 58.1548 625.635 49.9314 Q625.635 41.7081 622.232 37.0496 Q618.829 32.3505 612.915 32.3505 Q607 32.3505 603.598 37.0496 Q600.235 41.7081 600.235 49.9314 Z" fill="#000000" fill-rule="nonzero" fill-opacity="1" /><path clip-path="url(#clip430)" d="M707.463 28.9478 L707.463 35.9153 Q704.303 34.1734 701.103 33.3227 Q697.943 32.4315 694.703 32.4315 Q687.451 32.4315 683.441 37.0496 Q679.431 41.6271 679.431 49.9314 Q679.431 58.2358 683.441 62.8538 Q687.451 67.4314 694.703 67.4314 Q697.943 67.4314 701.103 66.5807 Q704.303 65.6895 707.463 63.9476 L707.463 70.8341 Q704.344 72.2924 700.981 73.0216 Q697.66 73.7508 693.892 73.7508 Q683.644 73.7508 677.608 67.3098 Q671.572 60.8689 671.572 49.9314 Q671.572 38.832 677.648 32.472 Q683.765 26.1121 694.378 26.1121 Q697.822 26.1121 701.103 26.8413 Q704.384 27.5299 707.463 28.9478 Z" fill="#000000" fill-rule="nonzero" fill-opacity="1" /><path clip-path="url(#clip430)" d="M738.007 32.4315 Q732.011 32.4315 728.528 37.1306 Q725.044 41.7891 725.044 49.9314 Q725.044 58.0738 728.487 62.7728 Q731.971 67.4314 738.007 67.4314 Q743.962 67.4314 747.445 62.7323 Q750.929 58.0333 750.929 49.9314 Q750.929 41.8701 747.445 37.1711 Q743.962 32.4315 738.007 32.4315 M738.007 26.1121 Q747.729 26.1121 753.279 32.4315 Q758.828 38.7509 758.828 49.9314 Q758.828 61.0714 753.279 67.4314 Q747.729 73.7508 738.007 73.7508 Q728.244 73.7508 722.694 67.4314 Q717.185 61.0714 717.185 49.9314 Q717.185 38.7509 722.694 32.4315 Q728.244 26.1121 738.007 26.1121 Z" fill="#000000" fill-rule="nonzero" fill-opacity="1" /><path clip-path="url(#clip430)" d="M800.107 28.5427 L800.107 35.5912 Q796.947 33.9709 793.545 33.1607 Q790.142 32.3505 786.496 32.3505 Q780.946 32.3505 778.151 34.0519 Q775.397 35.7533 775.397 39.156 Q775.397 41.7486 777.382 43.2475 Q779.366 44.7058 785.362 46.0426 L787.914 46.6097 Q795.854 48.3111 799.175 51.4303 Q802.538 54.509 802.538 60.0587 Q802.538 66.3781 797.515 70.0644 Q792.532 73.7508 783.782 73.7508 Q780.136 73.7508 776.166 73.0216 Q772.237 72.3329 767.862 70.9151 L767.862 63.2184 Q771.994 65.3654 776.004 66.4591 Q780.015 67.5124 783.944 67.5124 Q789.21 67.5124 792.046 65.73 Q794.881 63.9071 794.881 60.6258 Q794.881 57.5877 792.815 55.9673 Q790.79 54.3469 783.863 52.8481 L781.27 52.2405 Q774.343 50.7821 771.265 47.7845 Q768.186 44.7463 768.186 39.4801 Q768.186 33.0797 772.723 29.5959 Q777.26 26.1121 785.605 26.1121 Q789.737 26.1121 793.383 26.7198 Q797.028 27.3274 800.107 28.5427 Z" fill="#000000" fill-rule="nonzero" fill-opacity="1" /><path clip-path="url(#clip430)" d="M814.407 27.2059 L821.86 27.2059 L821.86 72.576 L814.407 72.576 L814.407 27.2059 M814.407 9.54393 L821.86 9.54393 L821.86 18.9825 L814.407 18.9825 L814.407 9.54393 Z" fill="#000000" fill-rule="nonzero" fill-opacity="1" /><path clip-path="url(#clip430)" d="M875.17 45.1919 L875.17 72.576 L867.717 72.576 L867.717 45.4349 Q867.717 38.994 865.205 35.7938 Q862.694 32.5936 857.67 32.5936 Q851.635 32.5936 848.151 36.4419 Q844.667 40.2903 844.667 46.9338 L844.667 72.576 L837.173 72.576 L837.173 27.2059 L844.667 27.2059 L844.667 34.2544 Q847.341 30.163 850.946 28.1376 Q854.592 26.1121 859.331 26.1121 Q867.15 26.1121 871.16 30.9732 Q875.17 35.7938 875.17 45.1919 Z" fill="#000000" fill-rule="nonzero" fill-opacity="1" /><path clip-path="url(#clip430)" d="M928.845 48.0275 L928.845 51.6733 L894.574 51.6733 Q895.06 59.3701 899.192 63.421 Q903.365 67.4314 910.778 67.4314 Q915.072 67.4314 919.082 66.3781 Q923.133 65.3249 927.103 63.2184 L927.103 70.267 Q923.093 71.9684 918.88 72.8596 Q914.667 73.7508 910.332 73.7508 Q899.476 73.7508 893.116 67.4314 Q886.796 61.1119 886.796 50.3365 Q886.796 39.1965 892.792 32.6746 Q898.828 26.1121 909.036 26.1121 Q918.191 26.1121 923.498 32.0264 Q928.845 37.9003 928.845 48.0275 M921.391 45.84 Q921.31 39.7232 917.948 36.0774 Q914.626 32.4315 909.117 32.4315 Q902.879 32.4315 899.111 35.9558 Q895.384 39.4801 894.817 45.8805 L921.391 45.84 Z" fill="#000000" fill-rule="nonzero" fill-opacity="1" /><path clip-path="url(#clip430)" d="M996.373 28.5427 L996.373 35.5912 Q993.214 33.9709 989.811 33.1607 Q986.408 32.3505 982.762 32.3505 Q977.213 32.3505 974.418 34.0519 Q971.663 35.7533 971.663 39.156 Q971.663 41.7486 973.648 43.2475 Q975.633 44.7058 981.628 46.0426 L984.18 46.6097 Q992.12 48.3111 995.442 51.4303 Q998.804 54.509 998.804 60.0587 Q998.804 66.3781 993.781 70.0644 Q988.798 73.7508 980.048 73.7508 Q976.402 73.7508 972.433 73.0216 Q968.503 72.3329 964.128 70.9151 L964.128 63.2184 Q968.26 65.3654 972.271 66.4591 Q976.281 67.5124 980.21 67.5124 Q985.476 67.5124 988.312 65.73 Q991.148 63.9071 991.148 60.6258 Q991.148 57.5877 989.082 55.9673 Q987.056 54.3469 980.129 52.8481 L977.537 52.2405 Q970.61 50.7821 967.531 47.7845 Q964.452 44.7463 964.452 39.4801 Q964.452 33.0797 968.989 29.5959 Q973.526 26.1121 981.871 26.1121 Q986.003 26.1121 989.649 26.7198 Q993.295 27.3274 996.373 28.5427 Z" fill="#000000" fill-rule="nonzero" fill-opacity="1" /><path clip-path="url(#clip430)" d="M1010.67 27.2059 L1018.13 27.2059 L1018.13 72.576 L1010.67 72.576 L1010.67 27.2059 M1010.67 9.54393 L1018.13 9.54393 L1018.13 18.9825 L1010.67 18.9825 L1010.67 9.54393 Z" fill="#000000" fill-rule="nonzero" fill-opacity="1" /><path clip-path="url(#clip430)" d="M1069.05 35.9153 Q1071.84 30.8922 1075.73 28.5022 Q1079.62 26.1121 1084.89 26.1121 Q1091.97 26.1121 1095.82 31.0947 Q1099.67 36.0368 1099.67 45.1919 L1099.67 72.576 L1092.18 72.576 L1092.18 45.4349 Q1092.18 38.913 1089.87 35.7533 Q1087.56 32.5936 1082.82 32.5936 Q1077.03 32.5936 1073.66 36.4419 Q1070.3 40.2903 1070.3 46.9338 L1070.3 72.576 L1062.81 72.576 L1062.81 45.4349 Q1062.81 38.8725 1060.5 35.7533 Q1058.19 32.5936 1053.37 32.5936 Q1047.66 32.5936 1044.3 36.4824 Q1040.93 40.3308 1040.93 46.9338 L1040.93 72.576 L1033.44 72.576 L1033.44 27.2059 L1040.93 27.2059 L1040.93 34.2544 Q1043.49 30.082 1047.05 28.0971 Q1050.62 26.1121 1055.52 26.1121 Q1060.46 26.1121 1063.9 28.6237 Q1067.39 31.1352 1069.05 35.9153 Z" fill="#000000" fill-rule="nonzero" fill-opacity="1" /><path clip-path="url(#clip430)" d="M1114.54 27.2059 L1121.99 27.2059 L1121.99 72.576 L1114.54 72.576 L1114.54 27.2059 M1114.54 9.54393 L1121.99 9.54393 L1121.99 18.9825 L1114.54 18.9825 L1114.54 9.54393 Z" fill="#000000" fill-rule="nonzero" fill-opacity="1" /><path clip-path="url(#clip430)" d="M1137.59 9.54393 L1145.04 9.54393 L1145.04 72.576 L1137.59 72.576 L1137.59 9.54393 Z" fill="#000000" fill-rule="nonzero" fill-opacity="1" /><path clip-path="url(#clip430)" d="M1181.26 49.7694 Q1172.22 49.7694 1168.74 51.8354 Q1165.26 53.9013 1165.26 58.8839 Q1165.26 62.8538 1167.85 65.2034 Q1170.48 67.5124 1174.98 67.5124 Q1181.18 67.5124 1184.9 63.1374 Q1188.67 58.7219 1188.67 51.4303 L1188.67 49.7694 L1181.26 49.7694 M1196.12 46.6907 L1196.12 72.576 L1188.67 72.576 L1188.67 65.6895 Q1186.12 69.8214 1182.31 71.8063 Q1178.5 73.7508 1172.99 73.7508 Q1166.03 73.7508 1161.89 69.8619 Q1157.8 65.9325 1157.8 59.3701 Q1157.8 51.7138 1162.91 47.825 Q1168.05 43.9361 1178.22 43.9361 L1188.67 43.9361 L1188.67 43.2069 Q1188.67 38.0623 1185.27 35.2672 Q1181.9 32.4315 1175.79 32.4315 Q1171.9 32.4315 1168.21 33.3632 Q1164.53 34.295 1161.12 36.1584 L1161.12 29.2718 Q1165.22 27.692 1169.06 26.9223 Q1172.91 26.1121 1176.56 26.1121 Q1186.4 26.1121 1191.26 31.2163 Q1196.12 36.3204 1196.12 46.6907 Z" fill="#000000" fill-rule="nonzero" fill-opacity="1" /><path clip-path="url(#clip430)" d="M1237.77 34.1734 Q1236.51 33.4443 1235.01 33.1202 Q1233.55 32.7556 1231.77 32.7556 Q1225.45 32.7556 1222.05 36.8875 Q1218.69 40.9789 1218.69 48.6757 L1218.69 72.576 L1211.19 72.576 L1211.19 27.2059 L1218.69 27.2059 L1218.69 34.2544 Q1221.04 30.1225 1224.8 28.1376 Q1228.57 26.1121 1233.96 26.1121 Q1234.73 26.1121 1235.66 26.2337 Q1236.59 26.3147 1237.73 26.5172 L1237.77 34.1734 Z" fill="#000000" fill-rule="nonzero" fill-opacity="1" /><path clip-path="url(#clip430)" d="M1245.59 27.2059 L1253.04 27.2059 L1253.04 72.576 L1245.59 72.576 L1245.59 27.2059 M1245.59 9.54393 L1253.04 9.54393 L1253.04 18.9825 L1245.59 18.9825 L1245.59 9.54393 Z" fill="#000000" fill-rule="nonzero" fill-opacity="1" /><path clip-path="url(#clip430)" d="M1276.01 14.324 L1276.01 27.2059 L1291.36 27.2059 L1291.36 32.9987 L1276.01 32.9987 L1276.01 57.6282 Q1276.01 63.1779 1277.51 64.7578 Q1279.05 66.3376 1283.7 66.3376 L1291.36 66.3376 L1291.36 72.576 L1283.7 72.576 Q1275.08 72.576 1271.79 69.3758 Q1268.51 66.1351 1268.51 57.6282 L1268.51 32.9987 L1263.04 32.9987 L1263.04 27.2059 L1268.51 27.2059 L1268.51 14.324 L1276.01 14.324 Z" fill="#000000" fill-rule="nonzero" fill-opacity="1" /><path clip-path="url(#clip430)" d="M1301.16 27.2059 L1308.62 27.2059 L1308.62 72.576 L1301.16 72.576 L1301.16 27.2059 M1301.16 9.54393 L1308.62 9.54393 L1308.62 18.9825 L1301.16 18.9825 L1301.16 9.54393 Z" fill="#000000" fill-rule="nonzero" fill-opacity="1" /><path clip-path="url(#clip430)" d="M1363.02 48.0275 L1363.02 51.6733 L1328.75 51.6733 Q1329.24 59.3701 1333.37 63.421 Q1337.54 67.4314 1344.95 67.4314 Q1349.25 67.4314 1353.26 66.3781 Q1357.31 65.3249 1361.28 63.2184 L1361.28 70.267 Q1357.27 71.9684 1353.06 72.8596 Q1348.84 73.7508 1344.51 73.7508 Q1333.65 73.7508 1327.29 67.4314 Q1320.97 61.1119 1320.97 50.3365 Q1320.97 39.1965 1326.97 32.6746 Q1333 26.1121 1343.21 26.1121 Q1352.37 26.1121 1357.67 32.0264 Q1363.02 37.9003 1363.02 48.0275 M1355.57 45.84 Q1355.49 39.7232 1352.12 36.0774 Q1348.8 32.4315 1343.29 32.4315 Q1337.05 32.4315 1333.29 35.9558 Q1329.56 39.4801 1328.99 45.8805 L1355.57 45.84 Z" fill="#000000" fill-rule="nonzero" fill-opacity="1" /><path clip-path="url(#clip430)" d="M1404.18 28.5427 L1404.18 35.5912 Q1401.02 33.9709 1397.62 33.1607 Q1394.21 32.3505 1390.57 32.3505 Q1385.02 32.3505 1382.22 34.0519 Q1379.47 35.7533 1379.47 39.156 Q1379.47 41.7486 1381.45 43.2475 Q1383.44 44.7058 1389.43 46.0426 L1391.98 46.6097 Q1399.92 48.3111 1403.25 51.4303 Q1406.61 54.509 1406.61 60.0587 Q1406.61 66.3781 1401.59 70.0644 Q1396.6 73.7508 1387.85 73.7508 Q1384.21 73.7508 1380.24 73.0216 Q1376.31 72.3329 1371.93 70.9151 L1371.93 63.2184 Q1376.06 65.3654 1380.08 66.4591 Q1384.09 67.5124 1388.01 67.5124 Q1393.28 67.5124 1396.12 65.73 Q1398.95 63.9071 1398.95 60.6258 Q1398.95 57.5877 1396.89 55.9673 Q1394.86 54.3469 1387.93 52.8481 L1385.34 52.2405 Q1378.41 50.7821 1375.34 47.7845 Q1372.26 44.7463 1372.26 39.4801 Q1372.26 33.0797 1376.79 29.5959 Q1381.33 26.1121 1389.68 26.1121 Q1393.81 26.1121 1397.45 26.7198 Q1401.1 27.3274 1404.18 28.5427 Z" fill="#000000" fill-rule="nonzero" fill-opacity="1" /><path clip-path="url(#clip430)" d="M1477.5 28.9478 L1477.5 35.9153 Q1474.34 34.1734 1471.14 33.3227 Q1467.98 32.4315 1464.74 32.4315 Q1457.49 32.4315 1453.48 37.0496 Q1449.47 41.6271 1449.47 49.9314 Q1449.47 58.2358 1453.48 62.8538 Q1457.49 67.4314 1464.74 67.4314 Q1467.98 67.4314 1471.14 66.5807 Q1474.34 65.6895 1477.5 63.9476 L1477.5 70.8341 Q1474.38 72.2924 1471.02 73.0216 Q1467.7 73.7508 1463.93 73.7508 Q1453.68 73.7508 1447.64 67.3098 Q1441.61 60.8689 1441.61 49.9314 Q1441.61 38.832 1447.68 32.472 Q1453.8 26.1121 1464.41 26.1121 Q1467.86 26.1121 1471.14 26.8413 Q1474.42 27.5299 1477.5 28.9478 Z" fill="#000000" fill-rule="nonzero" fill-opacity="1" /><path clip-path="url(#clip430)" d="M1529.27 48.0275 L1529.27 51.6733 L1495 51.6733 Q1495.49 59.3701 1499.62 63.421 Q1503.79 67.4314 1511.2 67.4314 Q1515.5 67.4314 1519.51 66.3781 Q1523.56 65.3249 1527.53 63.2184 L1527.53 70.267 Q1523.52 71.9684 1519.3 72.8596 Q1515.09 73.7508 1510.76 73.7508 Q1499.9 73.7508 1493.54 67.4314 Q1487.22 61.1119 1487.22 50.3365 Q1487.22 39.1965 1493.22 32.6746 Q1499.25 26.1121 1509.46 26.1121 Q1518.62 26.1121 1523.92 32.0264 Q1529.27 37.9003 1529.27 48.0275 M1521.82 45.84 Q1521.74 39.7232 1518.37 36.0774 Q1515.05 32.4315 1509.54 32.4315 Q1503.3 32.4315 1499.54 35.9558 Q1495.81 39.4801 1495.24 45.8805 L1521.82 45.84 Z" fill="#000000" fill-rule="nonzero" fill-opacity="1" /><path clip-path="url(#clip430)" d="M1541.5 9.54393 L1548.96 9.54393 L1548.96 72.576 L1541.5 72.576 L1541.5 9.54393 Z" fill="#000000" fill-rule="nonzero" fill-opacity="1" /><path clip-path="url(#clip430)" d="M1564.55 9.54393 L1572.01 9.54393 L1572.01 72.576 L1564.55 72.576 L1564.55 9.54393 Z" fill="#000000" fill-rule="nonzero" fill-opacity="1" /><path clip-path="url(#clip430)" d="M1616.45 65.6895 L1629.81 65.6895 L1629.81 19.5497 L1615.27 22.4663 L1615.27 15.0127 L1629.73 12.096 L1637.92 12.096 L1637.92 65.6895 L1651.28 65.6895 L1651.28 72.576 L1616.45 72.576 L1616.45 65.6895 Z" fill="#000000" fill-rule="nonzero" fill-opacity="1" /><path clip-path="url(#clip430)" d="M1685.31 17.4837 Q1678.99 17.4837 1675.79 23.7221 Q1672.63 29.92 1672.63 42.3968 Q1672.63 54.833 1675.79 61.0714 Q1678.99 67.2693 1685.31 67.2693 Q1691.67 67.2693 1694.83 61.0714 Q1698.03 54.833 1698.03 42.3968 Q1698.03 29.92 1694.83 23.7221 Q1691.67 17.4837 1685.31 17.4837 M1685.31 11.0023 Q1695.48 11.0023 1700.83 19.0636 Q1706.21 27.0843 1706.21 42.3968 Q1706.21 57.6687 1700.83 65.73 Q1695.48 73.7508 1685.31 73.7508 Q1675.14 73.7508 1669.76 65.73 Q1664.41 57.6687 1664.41 42.3968 Q1664.41 27.0843 1669.76 19.0636 Q1675.14 11.0023 1685.31 11.0023 Z" fill="#000000" fill-rule="nonzero" fill-opacity="1" /><path clip-path="url(#clip430)" d="M1738.09 17.4837 Q1731.77 17.4837 1728.57 23.7221 Q1725.41 29.92 1725.41 42.3968 Q1725.41 54.833 1728.57 61.0714 Q1731.77 67.2693 1738.09 67.2693 Q1744.45 67.2693 1747.61 61.0714 Q1750.81 54.833 1750.81 42.3968 Q1750.81 29.92 1747.61 23.7221 Q1744.45 17.4837 1738.09 17.4837 M1738.09 11.0023 Q1748.26 11.0023 1753.61 19.0636 Q1759 27.0843 1759 42.3968 Q1759 57.6687 1753.61 65.73 Q1748.26 73.7508 1738.09 73.7508 Q1727.93 73.7508 1722.54 65.73 Q1717.19 57.6687 1717.19 42.3968 Q1717.19 27.0843 1722.54 19.0636 Q1727.93 11.0023 1738.09 11.0023 Z" fill="#000000" fill-rule="nonzero" fill-opacity="1" /><path clip-path="url(#clip430)" d="M1798.7 27.2059 L1806.15 27.2059 L1806.15 72.576 L1798.7 72.576 L1798.7 27.2059 M1798.7 9.54393 L1806.15 9.54393 L1806.15 18.9825 L1798.7 18.9825 L1798.7 9.54393 Z" fill="#000000" fill-rule="nonzero" fill-opacity="1" /><path clip-path="url(#clip430)" d="M1829.12 14.324 L1829.12 27.2059 L1844.47 27.2059 L1844.47 32.9987 L1829.12 32.9987 L1829.12 57.6282 Q1829.12 63.1779 1830.62 64.7578 Q1832.16 66.3376 1836.81 66.3376 L1844.47 66.3376 L1844.47 72.576 L1836.81 72.576 Q1828.19 72.576 1824.9 69.3758 Q1821.62 66.1351 1821.62 57.6282 L1821.62 32.9987 L1816.15 32.9987 L1816.15 27.2059 L1821.62 27.2059 L1821.62 14.324 L1829.12 14.324 Z" fill="#000000" fill-rule="nonzero" fill-opacity="1" /><path clip-path="url(#clip430)" d="M1893.08 48.0275 L1893.08 51.6733 L1858.81 51.6733 Q1859.3 59.3701 1863.43 63.421 Q1867.6 67.4314 1875.01 67.4314 Q1879.31 67.4314 1883.32 66.3781 Q1887.37 65.3249 1891.34 63.2184 L1891.34 70.267 Q1887.33 71.9684 1883.12 72.8596 Q1878.9 73.7508 1874.57 73.7508 Q1863.71 73.7508 1857.35 67.4314 Q1851.03 61.1119 1851.03 50.3365 Q1851.03 39.1965 1857.03 32.6746 Q1863.06 26.1121 1873.27 26.1121 Q1882.43 26.1121 1887.73 32.0264 Q1893.08 37.9003 1893.08 48.0275 M1885.63 45.84 Q1885.55 39.7232 1882.18 36.0774 Q1878.86 32.4315 1873.35 32.4315 Q1867.12 32.4315 1863.35 35.9558 Q1859.62 39.4801 1859.05 45.8805 L1885.63 45.84 Z" fill="#000000" fill-rule="nonzero" fill-opacity="1" /><path clip-path="url(#clip430)" d="M1931.61 34.1734 Q1930.35 33.4443 1928.85 33.1202 Q1927.39 32.7556 1925.61 32.7556 Q1919.29 32.7556 1915.89 36.8875 Q1912.53 40.9789 1912.53 48.6757 L1912.53 72.576 L1905.03 72.576 L1905.03 27.2059 L1912.53 27.2059 L1912.53 34.2544 Q1914.88 30.1225 1918.64 28.1376 Q1922.41 26.1121 1927.8 26.1121 Q1928.57 26.1121 1929.5 26.2337 Q1930.43 26.3147 1931.57 26.5172 L1931.61 34.1734 Z" fill="#000000" fill-rule="nonzero" fill-opacity="1" /><path clip-path="url(#clip430)" d="M1960.04 49.7694 Q1951.01 49.7694 1947.53 51.8354 Q1944.04 53.9013 1944.04 58.8839 Q1944.04 62.8538 1946.63 65.2034 Q1949.27 67.5124 1953.76 67.5124 Q1959.96 67.5124 1963.69 63.1374 Q1967.46 58.7219 1967.46 51.4303 L1967.46 49.7694 L1960.04 49.7694 M1974.91 46.6907 L1974.91 72.576 L1967.46 72.576 L1967.46 65.6895 Q1964.9 69.8214 1961.1 71.8063 Q1957.29 73.7508 1951.78 73.7508 Q1944.81 73.7508 1940.68 69.8619 Q1936.59 65.9325 1936.59 59.3701 Q1936.59 51.7138 1941.69 47.825 Q1946.84 43.9361 1957 43.9361 L1967.46 43.9361 L1967.46 43.2069 Q1967.46 38.0623 1964.05 35.2672 Q1960.69 32.4315 1954.57 32.4315 Q1950.69 32.4315 1947 33.3632 Q1943.31 34.295 1939.91 36.1584 L1939.91 29.2718 Q1944 27.692 1947.85 26.9223 Q1951.7 26.1121 1955.34 26.1121 Q1965.19 26.1121 1970.05 31.2163 Q1974.91 36.3204 1974.91 46.6907 Z" fill="#000000" fill-rule="nonzero" fill-opacity="1" /><path clip-path="url(#clip430)" d="M1997.64 14.324 L1997.64 27.2059 L2012.99 27.2059 L2012.99 32.9987 L1997.64 32.9987 L1997.64 57.6282 Q1997.64 63.1779 1999.13 64.7578 Q2000.67 66.3376 2005.33 66.3376 L2012.99 66.3376 L2012.99 72.576 L2005.33 72.576 Q1996.7 72.576 1993.42 69.3758 Q1990.14 66.1351 1990.14 57.6282 L1990.14 32.9987 L1984.67 32.9987 L1984.67 27.2059 L1990.14 27.2059 L1990.14 14.324 L1997.64 14.324 Z" fill="#000000" fill-rule="nonzero" fill-opacity="1" /><path clip-path="url(#clip430)" d="M2022.79 27.2059 L2030.25 27.2059 L2030.25 72.576 L2022.79 72.576 L2022.79 27.2059 M2022.79 9.54393 L2030.25 9.54393 L2030.25 18.9825 L2022.79 18.9825 L2022.79 9.54393 Z" fill="#000000" fill-rule="nonzero" fill-opacity="1" /><path clip-path="url(#clip430)" d="M2063.42 32.4315 Q2057.43 32.4315 2053.94 37.1306 Q2050.46 41.7891 2050.46 49.9314 Q2050.46 58.0738 2053.9 62.7728 Q2057.39 67.4314 2063.42 67.4314 Q2069.38 67.4314 2072.86 62.7323 Q2076.34 58.0333 2076.34 49.9314 Q2076.34 41.8701 2072.86 37.1711 Q2069.38 32.4315 2063.42 32.4315 M2063.42 26.1121 Q2073.14 26.1121 2078.69 32.4315 Q2084.24 38.7509 2084.24 49.9314 Q2084.24 61.0714 2078.69 67.4314 Q2073.14 73.7508 2063.42 73.7508 Q2053.66 73.7508 2048.11 67.4314 Q2042.6 61.0714 2042.6 49.9314 Q2042.6 38.7509 2048.11 32.4315 Q2053.66 26.1121 2063.42 26.1121 Z" fill="#000000" fill-rule="nonzero" fill-opacity="1" /><path clip-path="url(#clip430)" d="M2134.31 45.1919 L2134.31 72.576 L2126.86 72.576 L2126.86 45.4349 Q2126.86 38.994 2124.35 35.7938 Q2121.84 32.5936 2116.81 32.5936 Q2110.78 32.5936 2107.29 36.4419 Q2103.81 40.2903 2103.81 46.9338 L2103.81 72.576 L2096.32 72.576 L2096.32 27.2059 L2103.81 27.2059 L2103.81 34.2544 Q2106.48 30.163 2110.09 28.1376 Q2113.73 26.1121 2118.47 26.1121 Q2126.29 26.1121 2130.3 30.9732 Q2134.31 35.7938 2134.31 45.1919 Z" fill="#000000" fill-rule="nonzero" fill-opacity="1" /><path clip-path="url(#clip430)" d="M2178.02 65.6895 L2191.39 65.6895 L2191.39 19.5497 L2176.85 22.4663 L2176.85 15.0127 L2191.31 12.096 L2199.49 12.096 L2199.49 65.6895 L2212.86 65.6895 L2212.86 72.576 L2178.02 72.576 L2178.02 65.6895 Z" fill="#000000" fill-rule="nonzero" fill-opacity="1" /><path clip-path="url(#clip430)" d="M2246.89 17.4837 Q2240.57 17.4837 2237.37 23.7221 Q2234.21 29.92 2234.21 42.3968 Q2234.21 54.833 2237.37 61.0714 Q2240.57 67.2693 2246.89 67.2693 Q2253.25 67.2693 2256.41 61.0714 Q2259.61 54.833 2259.61 42.3968 Q2259.61 29.92 2256.41 23.7221 Q2253.25 17.4837 2246.89 17.4837 M2246.89 11.0023 Q2257.06 11.0023 2262.4 19.0636 Q2267.79 27.0843 2267.79 42.3968 Q2267.79 57.6687 2262.4 65.73 Q2257.06 73.7508 2246.89 73.7508 Q2236.72 73.7508 2231.33 65.73 Q2225.98 57.6687 2225.98 42.3968 Q2225.98 27.0843 2231.33 19.0636 Q2236.72 11.0023 2246.89 11.0023 Z" fill="#000000" fill-rule="nonzero" fill-opacity="1" /><polyline clip-path="url(#clip432)" style="stroke:#009af9; stroke-linecap:round; stroke-linejoin:round; stroke-width:4; stroke-opacity:1; fill:none" points="345.82,1386.4 347.771,1386.35 349.721,1386.34 351.672,1386.33 353.622,1386.29 355.572,1386.28 357.523,1386.27 359.473,1386.27 361.424,1386.25 363.374,1386.25 365.325,1386.24 367.275,1386.23 369.226,1386.23 371.176,1386.22 373.126,1386.22 375.077,1386.21 377.027,1386.21 378.978,1386.21 380.928,1386.19 382.879,1386.19 384.829,1386.19 386.779,1386.18 388.73,1386.17 390.68,1386.16 392.631,1386.15 394.581,1386.15 396.532,1386.15 398.482,1386.14 400.432,1386.14 402.383,1386.13 404.333,1386.12 406.284,1386.12 408.234,1386.11 410.185,1386.1 412.135,1386.09 414.085,1386.08 416.036,1386.08 417.986,1386.08 419.937,1386.07 421.887,1386.06 423.838,1386.06 425.788,1386.06 427.738,1386.05 429.689,1386.04 431.639,1386.04 433.59,1386.04 435.54,1386.03 437.491,1386.03 439.441,1386.03 441.391,1386.03 443.342,1386.03 445.292,1386.02 447.243,1386.02 449.193,1386.02 451.144,1386.01 453.094,1386.01 455.045,1386.01 456.995,1386 458.945,1386 460.896,1385.98 462.846,1385.98 464.797,1385.97 466.747,1385.97 468.698,1385.97 470.648,1385.97 472.598,1385.96 474.549,1385.96 476.499,1385.96 478.45,1385.95 480.4,1385.94 482.351,1385.94 484.301,1385.93 486.251,1385.93 488.202,1385.93 490.152,1385.91 492.103,1385.89 494.053,1385.89 496.004,1385.88 497.954,1385.87 499.904,1385.86 501.855,1385.85 503.805,1385.84 505.756,1385.84 507.706,1385.83 509.657,1385.83 511.607,1385.83 513.557,1385.8 515.508,1385.8 517.458,1385.8 519.409,1385.79 521.359,1385.78 523.31,1385.78 525.26,1385.78 527.21,1385.78 529.161,1385.75 531.111,1385.75 533.062,1385.74 535.012,1385.74 536.963,1385.72 538.913,1385.71 540.863,1385.71 542.814,1385.7 544.764,1385.68 546.715,1385.68 548.665,1385.68 550.616,1385.68 552.566,1385.66 554.517,1385.65 556.467,1385.63 558.417,1385.6 560.368,1385.6 562.318,1385.58 564.269,1385.58 566.219,1385.55 568.17,1385.54 570.12,1385.54 572.07,1385.53 574.021,1385.48 575.971,1385.47 577.922,1385.46 579.872,1385.45 581.823,1385.43 583.773,1385.41 585.723,1385.39 587.674,1385.36 589.624,1385.33 591.575,1385.31 593.525,1385.3 595.476,1385.28 597.426,1385.28 599.376,1385.26 601.327,1385.25 603.277,1385.21 605.228,1385.2 607.178,1385.19 609.129,1385.12 611.079,1385.11 613.029,1385.09 614.98,1385.08 616.93,1385.06 618.881,1385.03 620.831,1385.01 622.782,1384.96 624.732,1384.96 626.682,1384.94 628.633,1384.92 630.583,1384.92 632.534,1384.85 634.484,1384.84 636.435,1384.82 638.385,1384.76 640.336,1384.75 642.286,1384.73 644.236,1384.62 646.187,1384.54 648.137,1384.51 650.088,1384.49 652.038,1384.47 653.989,1384.37 655.939,1384.36 657.889,1384.25 659.84,1384.1 661.79,1384.08 663.741,1384.02 665.691,1384.01 667.642,1383.99 669.592,1383.89 671.542,1383.88 673.493,1383.78 675.443,1383.76 677.394,1383.71 679.344,1383.68 681.295,1383.62 683.245,1383.56 685.195,1383.54 687.146,1383.5 689.096,1383.43 691.047,1383.26 692.997,1383.23 694.948,1383.18 696.898,1382.94 698.848,1382.89 700.799,1382.79 702.749,1382.79 704.7,1382.76 706.65,1382.68 708.601,1382.55 710.551,1382.52 712.501,1382.43 714.452,1382.19 716.402,1382.14 718.353,1381.9 720.303,1381.78 722.254,1381.71 724.204,1381.36 726.154,1381.21 728.105,1380.42 730.055,1380.39 732.006,1380.38 733.956,1380.15 735.907,1379.89 737.857,1379.81 739.808,1379.8 741.758,1379.79 743.708,1379.66 745.659,1379.55 747.609,1379.44 749.56,1379.12 751.51,1378.83 753.461,1378.37 755.411,1378.16 757.361,1377.96 759.312,1377.94 761.262,1377.5 763.213,1377.36 765.163,1377.33 767.114,1376.8 769.064,1376.79 771.014,1376.73 772.965,1376.09 774.915,1375.93 776.866,1375.81 778.816,1375.44 780.767,1375.24 782.717,1375.09 784.667,1374.87 786.618,1374.62 788.568,1374.58 790.519,1374.2 792.469,1373.81 794.42,1373.59 796.37,1373.54 798.32,1373.51 800.271,1372.5 802.221,1371.47 804.172,1370.83 806.122,1369.28 808.073,1369.13 810.023,1367.8 811.973,1366.69 813.924,1366.01 815.874,1363.48 817.825,1359.81 819.775,1357.44 821.726,1353.36 823.676,1351.68 825.627,1350.89 827.577,1350.22 829.527,1309.03 831.478,1193.65 833.428,990.129 835.379,925.478 837.329,922.845 839.28,922.749 841.23,922.501 843.18,922.324 845.131,922.293 847.081,922.271 849.032,922.268 850.982,922.266 852.933,922.265 854.883,922.249 856.833,922.24 858.784,922.229 860.734,922.227 862.685,922.213 864.635,922.21 866.586,922.193 868.536,922.186 870.486,922.183 872.437,922.181 874.387,922.18 876.338,922.177 878.288,922.176 880.239,922.172 882.189,922.163 884.139,922.138 886.09,922.136 888.04,922.13 889.991,922.117 891.941,922.11 893.892,922.109 895.842,922.105 897.792,922.099 899.743,922.088 901.693,922.076 903.644,922.074 905.594,922.061 907.545,922.059 909.495,922.054 911.445,922.048 913.396,922.029 915.346,922.025 917.297,922.018 919.247,922.017 921.198,922.017 923.148,922.013 925.099,922.01 927.049,922.005 928.999,922.005 930.95,922.003 932.9,922.002 934.851,922.002 936.801,922 938.752,921.998 940.702,921.996 942.652,921.995 944.603,921.995 946.553,921.993 948.504,921.992 950.454,921.992 952.405,921.992 954.355,921.992 956.305,921.992 958.256,921.991 960.206,921.991 962.157,921.991 964.107,921.991 966.058,921.991 968.008,921.99 969.958,921.99 971.909,921.99 973.859,921.99 975.81,921.99 977.76,921.99 979.711,921.99 981.661,921.989 983.611,921.989 985.562,921.989 987.512,921.989 989.463,921.989 991.413,921.988 993.364,921.988 995.314,921.988 997.264,921.988 999.215,921.988 1001.17,921.988 1003.12,921.988 1005.07,921.988 1007.02,921.988 1008.97,921.988 1010.92,921.988 1012.87,921.987 1014.82,921.987 1016.77,921.987 1018.72,921.986 1020.67,921.985 1022.62,921.985 1024.57,921.985 1026.52,921.985 1028.47,921.985 1030.42,921.984 1032.37,921.984 1034.32,921.983 1036.27,921.983 1038.22,921.983 1040.17,921.982 1042.12,921.981 1044.07,921.98 1046.03,921.98 1047.98,921.979 1049.93,921.979 1051.88,921.978 1053.83,921.978 1055.78,921.978 1057.73,921.978 1059.68,921.977 1061.63,921.977 1063.58,921.976 1065.53,921.975 1067.48,921.975 1069.43,921.973 1071.38,921.973 1073.33,921.971 1075.28,921.971 1077.23,921.971 1079.18,921.971 1081.13,921.969 1083.08,921.967 1085.03,921.966 1086.98,921.965 1088.93,921.964 1090.89,921.961 1092.84,921.959 1094.79,921.959 1096.74,921.955 1098.69,921.955 1100.64,921.954 1102.59,921.953 1104.54,921.952 1106.49,921.95 1108.44,921.949 1110.39,921.948 1112.34,921.948 1114.29,921.948 1116.24,921.947 1118.19,921.946 1120.14,921.946 1122.09,921.945 1124.04,921.945 1125.99,921.941 1127.94,921.94 1129.89,921.939 1131.84,921.934 1133.79,921.933 1135.75,921.933 1137.7,921.931 1139.65,921.931 1141.6,921.93 1143.55,921.93 1145.5,921.927 1147.45,921.923 1149.4,921.92 1151.35,921.918 1153.3,921.916 1155.25,921.914 1157.2,921.914 1159.15,921.911 1161.1,921.91 1163.05,921.909 1165,921.905 1166.95,921.902 1168.9,921.898 1170.85,921.896 1172.8,921.895 1174.75,921.895 1176.7,921.893 1178.65,921.893 1180.61,921.892 1182.56,921.89 1184.51,921.89 1186.46,921.889 1188.41,921.877 1190.36,921.876 1192.31,921.874 1194.26,921.869 1196.21,921.869 1198.16,921.869 1200.11,921.868 1202.06,921.867 1204.01,921.862 1205.96,921.858 1207.91,921.845 1209.86,921.84 1211.81,921.839 1213.76,921.838 1215.71,921.837 1217.66,921.834 1219.61,921.833 1221.56,921.832 1223.51,921.832 1225.46,921.83 1227.42,921.827 1229.37,921.825 1231.32,921.823 1233.27,921.822 1235.22,921.822 1237.17,921.821 1239.12,921.82 1241.07,921.819 1243.02,921.818 1244.97,921.818 1246.92,921.818 1248.87,921.817 1250.82,921.816 1252.77,921.816 1254.72,921.815 1256.67,921.814 1258.62,921.813 1260.57,921.812 1262.52,921.811 1264.47,921.808 1266.42,921.808 1268.37,921.808 1270.32,921.805 1272.28,921.804 1274.23,921.802 1276.18,921.8 1278.13,921.799 1280.08,921.799 1282.03,921.799 1283.98,921.797 1285.93,921.793 1287.88,921.792 1289.83,921.791 1291.78,921.791 1293.73,921.789 1295.68,921.788 1297.63,921.784 1299.58,921.783 1301.53,921.781 1303.48,921.78 1305.43,921.777 1307.38,921.776 1309.33,921.775 1311.28,921.77 1313.23,921.769 1315.18,921.768 1317.14,921.767 1319.09,921.766 1321.04,909.086 1322.99,906.983 1324.94,905.594 1326.89,898.012 1328.84,894.574 1330.79,893.498 1332.74,890.91 1334.69,890.412 1336.64,886.806 1338.59,886.17 1340.54,885.738 1342.49,884.059 1344.44,883.629 1346.39,881.358 1348.34,880.56 1350.29,877.001 1352.24,876.979 1354.19,874.114 1356.14,872.576 1358.09,872.016 1360.04,870.665 1362,869.792 1363.95,869.782 1365.9,869.277 1367.85,869.029 1369.8,868.818 1371.75,868.291 1373.7,867.346 1375.65,866.042 1377.6,866.041 1379.55,865.787 1381.5,865.739 1383.45,865.557 1385.4,865.535 1387.35,865.535 1389.3,865.011 1391.25,864.735 1393.2,864.684 1395.15,864.513 1397.1,864.415 1399.05,864.289 1401,864.132 1402.95,864.114 1404.9,864.061 1406.86,863.953 1408.81,863.37 1410.76,863.311 1412.71,863.275 1414.66,863.243 1416.61,863.226 1418.56,863.175 1420.51,863.046 1422.46,863.042 1424.41,863.019 1426.36,862.981 1428.31,862.953 1430.26,862.947 1432.21,862.879 1434.16,862.754 1436.11,862.717 1438.06,862.697 1440.01,862.648 1441.96,862.627 1443.91,862.621 1445.86,862.616 1447.81,862.611 1449.76,862.576 1451.72,862.545 1453.67,862.536 1455.62,862.533 1457.57,862.533 1459.52,862.497 1461.47,862.495 1463.42,862.483 1465.37,862.459 1467.32,862.459 1469.27,862.456 1471.22,862.442 1473.17,862.44 1475.12,862.433 1477.07,862.43 1479.02,862.412 1480.97,862.385 1482.92,862.378 1484.87,862.359 1486.82,862.35 1488.77,862.345 1490.72,862.342 1492.67,862.327 1494.62,862.309 1496.57,862.28 1498.53,862.263 1500.48,862.257 1502.43,862.252 1504.38,862.25 1506.33,862.188 1508.28,862.183 1510.23,862.178 1512.18,862.118 1514.13,861.994 1516.08,861.975 1518.03,861.96 1519.98,861.955 1521.93,861.826 1523.88,861.801 1525.83,861.789 1527.78,861.739 1529.73,861.656 1531.68,861.589 1533.63,861.502 1535.58,861.29 1537.53,861.192 1539.48,861.156 1541.43,861.1 1543.39,860.947 1545.34,860.936 1547.29,860.864 1549.24,860.829 1551.19,860.651 1553.14,860.57 1555.09,860.342 1557.04,860.33 1558.99,860.258 1560.94,860.258 1562.89,859.977 1564.84,859.421 1566.79,859.35 1568.74,859.345 1570.69,858.995 1572.64,858.421 1574.59,858.227 1576.54,858.049 1578.49,857.917 1580.44,857.796 1582.39,857.657 1584.34,857.478 1586.29,857.332 1588.25,857.278 1590.2,857.259 1592.15,857.232 1594.1,857.146 1596.05,857.111 1598,856.636 1599.95,856.625 1601.9,856.4 1603.85,856.028 1605.8,855.969 1607.75,855.878 1609.7,855.748 1611.65,855.574 1613.6,855.566 1615.55,855.537 1617.5,855.033 1619.45,855.024 1621.4,854.594 1623.35,854.315 1625.3,853.944 1627.25,853.648 1629.2,853.499 1631.15,853.44 1633.11,853.291 1635.06,853.115 1637.01,852.958 1638.96,852.843 1640.91,852.383 1642.86,852.336 1644.81,851.925 1646.76,851.905 1648.71,851.888 1650.66,851.731 1652.61,851.675 1654.56,851.581 1656.51,851.557 1658.46,851.416 1660.41,851.387 1662.36,851.227 1664.31,851.143 1666.26,850.953 1668.21,850.821 1670.16,850.712 1672.11,850.558 1674.06,850.513 1676.01,850.479 1677.97,850.365 1679.92,850.206 1681.87,850.187 1683.82,850.166 1685.77,850.001 1687.72,849.883 1689.67,849.739 1691.62,849.501 1693.57,849.372 1695.52,849.188 1697.47,849.124 1699.42,848.94 1701.37,848.912 1703.32,848.902 1705.27,848.874 1707.22,848.811 1709.17,848.806 1711.12,848.645 1713.07,848.54 1715.02,848.531 1716.97,847.726 1718.92,847.565 1720.87,847.495 1722.83,847.344 1724.78,847.332 1726.73,847.316 1728.68,846.963 1730.63,846.946 1732.58,846.638 1734.53,846.491 1736.48,846.299 1738.43,846.213 1740.38,846.169 1742.33,846.06 1744.28,845.963 1746.23,845.854 1748.18,845.83 1750.13,845.573 1752.08,845.532 1754.03,845.382 1755.98,845.016 1757.93,844.971 1759.88,844.931 1761.83,844.929 1763.78,844.889 1765.73,844.876 1767.68,844.819 1769.64,844.568 1771.59,844.277 1773.54,844.143 1775.49,844.113 1777.44,844.058 1779.39,844.008 1781.34,843.678 1783.29,843.677 1785.24,843.296 1787.19,843.293 1789.14,843.092 1791.09,842.935 1793.04,842.92 1794.99,842.82 1796.94,842.668 1798.89,842.554 1800.84,842.501 1802.79,842.382 1804.74,842.372 1806.69,842.245 1808.64,199.561 1810.59,198.201 1812.54,197.997 1814.5,197.493 1816.45,197.477 1818.4,197.441 1820.35,197.277 1822.3,197.268 1824.25,197.147 1826.2,197.142 1828.15,197.099 1830.1,197.005 1832.05,196.993 1834,196.945 1835.95,196.901 1837.9,196.732 1839.85,196.702 1841.8,196.595 1843.75,196.58 1845.7,196.563 1847.65,196.551 1849.6,196.472 1851.55,196.417 1853.5,196.405 1855.45,196.401 1857.4,196.361 1859.36,196.35 1861.31,196.263 1863.26,196.214 1865.21,196.202 1867.16,196.18 1869.11,196.085 1871.06,195.964 1873.01,195.894 1874.96,195.84 1876.91,195.822 1878.86,195.806 1880.81,195.795 1882.76,195.79 1884.71,195.725 1886.66,195.639 1888.61,195.623 1890.56,195.62 1892.51,195.566 1894.46,195.563 1896.41,195.562 1898.36,195.56 1900.31,195.559 1902.26,195.529 1904.22,195.479 1906.17,195.4 1908.12,195.386 1910.07,195.339 1912.02,195.324 1913.97,195.239 1915.92,195.232 1917.87,195.222 1919.82,195.058 1921.77,195.053 1923.72,194.986 1925.67,194.977 1927.62,194.954 1929.57,194.902 1931.52,194.89 1933.47,194.866 1935.42,194.851 1937.37,194.848 1939.32,194.838 1941.27,194.822 1943.22,194.779 1945.17,194.74 1947.12,194.733 1949.08,194.718 1951.03,194.673 1952.98,194.592 1954.93,194.59 1956.88,194.551 1958.83,194.519 1960.78,194.5 1962.73,194.499 1964.68,194.467 1966.63,194.295 1968.58,194.283 1970.53,194.234 1972.48,194.095 1974.43,194.041 1976.38,193.909 1978.33,193.861 1980.28,193.58 1982.23,193.488 1984.18,193.426 1986.13,193.411 1988.08,193.402 1990.03,193.31 1991.98,192.94 1993.94,192.925 1995.89,192.883 1997.84,192.871 1999.79,192.849 2001.74,192.524 2003.69,192.482 2005.64,192.474 2007.59,192.462 2009.54,192.322 2011.49,192.283 2013.44,192.191 2015.39,192.024 2017.34,191.791 2019.29,191.605 2021.24,191.602 2023.19,191.197 2025.14,190.975 2027.09,190.645 2029.04,190.012 2030.99,189.985 2032.94,189.978 2034.89,189.935 2036.84,189.904 2038.79,189.871 2040.75,189.796 2042.7,189.55 2044.65,189.137 2046.6,188.934 2048.55,188.616 2050.5,188.372 2052.45,188.292 2054.4,188.242 2056.35,188.241 2058.3,187.956 2060.25,187.837 2062.2,187.834 2064.15,187.755 2066.1,187.672 2068.05,187.395 2070,187.362 2071.95,187.041 2073.9,186.836 2075.85,186.668 2077.8,186.494 2079.75,186.435 2081.7,186.349 2083.65,186.151 2085.61,185.975 2087.56,185.942 2089.51,185.631 2091.46,185.629 2093.41,185.578 2095.36,184.975 2097.31,184.783 2099.26,184.515 2101.21,184.34 2103.16,184.322 2105.11,184.054 2107.06,183.959 2109.01,183.871 2110.96,183.742 2112.91,183.657 2114.86,183.25 2116.81,183.222 2118.76,182.981 2120.71,182.636 2122.66,181.854 2124.61,181.819 2126.56,181.726 2128.51,181.59 2130.47,181.571 2132.42,181.482 2134.37,181.109 2136.32,181.011 2138.27,180.687 2140.22,180.558 2142.17,180.455 2144.12,179.852 2146.07,179.821 2148.02,179.497 2149.97,179.44 2151.92,179.418 2153.87,179.122 2155.82,178.884 2157.77,178.77 2159.72,178.651 2161.67,178.637 2163.62,178.529 2165.57,178.346 2167.52,178.155 2169.47,177.906 2171.42,177.784 2173.37,177.499 2175.33,177.25 2177.28,177.22 2179.23,177.116 2181.18,176.92 2183.13,176.8 2185.08,176.698 2187.03,176.452 2188.98,176.423 2190.93,176.228 2192.88,175.901 2194.83,175.7 2196.78,175.306 2198.73,175.3 2200.68,175.15 2202.63,174.965 2204.58,174.721 2206.53,174.599 2208.48,174.508 2210.43,174.006 2212.38,173.993 2214.33,173.916 2216.28,173.471 2218.23,173.114 2220.19,173.033 2222.14,172.521 2224.09,172.509 2226.04,172.186 2227.99,172.118 2229.94,172.103 2231.89,172.102 2233.84,171.89 2235.79,171.251 2237.74,170.708 2239.69,170.358 2241.64,170.232 2243.59,170.147 2245.54,169.951 2247.49,169.885 2249.44,169.688 2251.39,169.595 2253.34,169.483 2255.29,169.419 2257.24,169.27 2259.19,169.162 2261.14,169.139 2263.09,168.487 2265.04,168.461 2267,168.375 2268.95,167.985 2270.9,167.823 2272.85,167.711 2274.8,167.651 2276.75,167.541 2278.7,167.475 2280.65,166.84 2282.6,166.27 2284.55,166.081 2286.5,165.529 2288.45,165.358 2290.4,161.304 2292.35,160.605 2294.3,160.256 "/>
<path clip-path="url(#clip430)" d="M356.212 270.476 L782.357 270.476 L782.357 166.796 L356.212 166.796  Z" fill="#ffffff" fill-rule="evenodd" fill-opacity="1"/>
<polyline clip-path="url(#clip430)" style="stroke:#000000; stroke-linecap:round; stroke-linejoin:round; stroke-width:4; stroke-opacity:1; fill:none" points="356.212,270.476 782.357,270.476 782.357,166.796 356.212,166.796 356.212,270.476 "/>
<polyline clip-path="url(#clip430)" style="stroke:#009af9; stroke-linecap:round; stroke-linejoin:round; stroke-width:4; stroke-opacity:1; fill:none" points="379.161,218.636 516.854,218.636 "/>
<path clip-path="url(#clip430)" d="M562.048 202.49 L562.048 207.05 Q559.386 205.777 557.025 205.152 Q554.663 204.527 552.464 204.527 Q548.645 204.527 546.562 206.008 Q544.502 207.49 544.502 210.221 Q544.502 212.513 545.867 213.694 Q547.256 214.851 551.099 215.569 L553.923 216.147 Q559.154 217.143 561.631 219.666 Q564.131 222.166 564.131 226.379 Q564.131 231.402 560.751 233.994 Q557.395 236.587 550.89 236.587 Q548.437 236.587 545.659 236.031 Q542.904 235.476 539.941 234.388 L539.941 229.573 Q542.789 231.17 545.52 231.981 Q548.251 232.791 550.89 232.791 Q554.895 232.791 557.071 231.217 Q559.247 229.643 559.247 226.726 Q559.247 224.18 557.673 222.744 Q556.122 221.309 552.557 220.592 L549.71 220.036 Q544.478 218.995 542.14 216.772 Q539.802 214.55 539.802 210.592 Q539.802 206.008 543.02 203.37 Q546.261 200.731 551.932 200.731 Q554.363 200.731 556.886 201.171 Q559.409 201.61 562.048 202.49 Z" fill="#000000" fill-rule="nonzero" fill-opacity="1" /><path clip-path="url(#clip430)" d="M571.237 209.99 L575.497 209.99 L575.497 235.916 L571.237 235.916 L571.237 209.99 M571.237 199.897 L575.497 199.897 L575.497 205.291 L571.237 205.291 L571.237 199.897 Z" fill="#000000" fill-rule="nonzero" fill-opacity="1" /><path clip-path="url(#clip430)" d="M604.594 214.967 Q606.191 212.096 608.413 210.731 Q610.635 209.365 613.645 209.365 Q617.696 209.365 619.895 212.212 Q622.094 215.036 622.094 220.268 L622.094 235.916 L617.811 235.916 L617.811 220.407 Q617.811 216.68 616.492 214.874 Q615.172 213.069 612.464 213.069 Q609.154 213.069 607.233 215.268 Q605.311 217.467 605.311 221.263 L605.311 235.916 L601.029 235.916 L601.029 220.407 Q601.029 216.657 599.71 214.874 Q598.39 213.069 595.635 213.069 Q592.372 213.069 590.45 215.291 Q588.529 217.49 588.529 221.263 L588.529 235.916 L584.247 235.916 L584.247 209.99 L588.529 209.99 L588.529 214.018 Q589.987 211.633 592.024 210.499 Q594.061 209.365 596.862 209.365 Q599.686 209.365 601.654 210.8 Q603.645 212.235 604.594 214.967 Z" fill="#000000" fill-rule="nonzero" fill-opacity="1" /><path clip-path="url(#clip430)" d="M630.589 209.99 L634.848 209.99 L634.848 235.916 L630.589 235.916 L630.589 209.99 M630.589 199.897 L634.848 199.897 L634.848 205.291 L630.589 205.291 L630.589 199.897 Z" fill="#000000" fill-rule="nonzero" fill-opacity="1" /><path clip-path="url(#clip430)" d="M643.76 199.897 L648.019 199.897 L648.019 235.916 L643.76 235.916 L643.76 199.897 Z" fill="#000000" fill-rule="nonzero" fill-opacity="1" /><path clip-path="url(#clip430)" d="M668.714 222.883 Q663.552 222.883 661.561 224.064 Q659.57 225.244 659.57 228.092 Q659.57 230.36 661.052 231.703 Q662.556 233.022 665.126 233.022 Q668.668 233.022 670.797 230.522 Q672.95 227.999 672.95 223.832 L672.95 222.883 L668.714 222.883 M677.209 221.124 L677.209 235.916 L672.95 235.916 L672.95 231.981 Q671.492 234.342 669.316 235.476 Q667.14 236.587 663.992 236.587 Q660.01 236.587 657.649 234.365 Q655.311 232.119 655.311 228.369 Q655.311 223.994 658.228 221.772 Q661.168 219.55 666.978 219.55 L672.95 219.55 L672.95 219.133 Q672.95 216.194 671.005 214.596 Q669.084 212.976 665.589 212.976 Q663.367 212.976 661.26 213.508 Q659.154 214.041 657.209 215.106 L657.209 211.17 Q659.547 210.268 661.746 209.828 Q663.945 209.365 666.029 209.365 Q671.654 209.365 674.431 212.282 Q677.209 215.198 677.209 221.124 Z" fill="#000000" fill-rule="nonzero" fill-opacity="1" /><path clip-path="url(#clip430)" d="M701.005 213.971 Q700.288 213.555 699.431 213.37 Q698.598 213.161 697.579 213.161 Q693.968 213.161 692.024 215.522 Q690.103 217.86 690.103 222.258 L690.103 235.916 L685.82 235.916 L685.82 209.99 L690.103 209.99 L690.103 214.018 Q691.445 211.657 693.598 210.522 Q695.751 209.365 698.829 209.365 Q699.269 209.365 699.802 209.434 Q700.334 209.481 700.982 209.596 L701.005 213.971 Z" fill="#000000" fill-rule="nonzero" fill-opacity="1" /><path clip-path="url(#clip430)" d="M705.473 209.99 L709.732 209.99 L709.732 235.916 L705.473 235.916 L705.473 209.99 M705.473 199.897 L709.732 199.897 L709.732 205.291 L705.473 205.291 L705.473 199.897 Z" fill="#000000" fill-rule="nonzero" fill-opacity="1" /><path clip-path="url(#clip430)" d="M722.857 202.629 L722.857 209.99 L731.63 209.99 L731.63 213.3 L722.857 213.3 L722.857 227.374 Q722.857 230.545 723.714 231.448 Q724.593 232.351 727.255 232.351 L731.63 232.351 L731.63 235.916 L727.255 235.916 Q722.325 235.916 720.45 234.087 Q718.575 232.235 718.575 227.374 L718.575 213.3 L715.45 213.3 L715.45 209.99 L718.575 209.99 L718.575 202.629 L722.857 202.629 Z" fill="#000000" fill-rule="nonzero" fill-opacity="1" /><path clip-path="url(#clip430)" d="M748.019 238.323 Q746.213 242.953 744.5 244.365 Q742.787 245.777 739.917 245.777 L736.514 245.777 L736.514 242.212 L739.014 242.212 Q740.774 242.212 741.746 241.379 Q742.718 240.545 743.899 237.443 L744.662 235.499 L734.176 209.99 L738.69 209.99 L746.792 230.268 L754.894 209.99 L759.408 209.99 L748.019 238.323 Z" fill="#000000" fill-rule="nonzero" fill-opacity="1" /></svg>
