<?xml version="1.0" encoding="utf-8"?>
<svg xmlns="http://www.w3.org/2000/svg" xmlns:xlink="http://www.w3.org/1999/xlink" width="600" height="400" viewBox="0 0 2400 1600">
<defs>
  <clipPath id="clip630">
    <rect x="0" y="0" width="2400" height="1600"/>
  </clipPath>
</defs>
<path clip-path="url(#clip630)" d="M0 1600 L2400 1600 L2400 8.88178e-14 L0 8.88178e-14  Z" fill="#ffffff" fill-rule="evenodd" fill-opacity="1"/>
<defs>
  <clipPath id="clip631">
    <rect x="480" y="0" width="1681" height="1600"/>
  </clipPath>
</defs>
<path clip-path="url(#clip630)" d="M256.209 1423.18 L2352.76 1423.18 L2352.76 123.472 L256.209 123.472  Z" fill="#ffffff" fill-rule="evenodd" fill-opacity="1"/>
<defs>
  <clipPath id="clip632">
    <rect x="256" y="123" width="2098" height="1301"/>
  </clipPath>
</defs>
<polyline clip-path="url(#clip632)" style="stroke:#000000; stroke-linecap:round; stroke-linejoin:round; stroke-width:2; stroke-opacity:0.1; fill:none" points="313.565,1423.18 313.565,123.472 "/>
<polyline clip-path="url(#clip632)" style="stroke:#000000; stroke-linecap:round; stroke-linejoin:round; stroke-width:2; stroke-opacity:0.1; fill:none" points="808.529,1423.18 808.529,123.472 "/>
<polyline clip-path="url(#clip632)" style="stroke:#000000; stroke-linecap:round; stroke-linejoin:round; stroke-width:2; stroke-opacity:0.1; fill:none" points="1303.49,1423.18 1303.49,123.472 "/>
<polyline clip-path="url(#clip632)" style="stroke:#000000; stroke-linecap:round; stroke-linejoin:round; stroke-width:2; stroke-opacity:0.1; fill:none" points="1798.46,1423.18 1798.46,123.472 "/>
<polyline clip-path="url(#clip632)" style="stroke:#000000; stroke-linecap:round; stroke-linejoin:round; stroke-width:2; stroke-opacity:0.1; fill:none" points="2293.42,1423.18 2293.42,123.472 "/>
<polyline clip-path="url(#clip630)" style="stroke:#000000; stroke-linecap:round; stroke-linejoin:round; stroke-width:4; stroke-opacity:1; fill:none" points="256.209,1423.18 2352.76,1423.18 "/>
<polyline clip-path="url(#clip630)" style="stroke:#000000; stroke-linecap:round; stroke-linejoin:round; stroke-width:4; stroke-opacity:1; fill:none" points="313.565,1423.18 313.565,1404.28 "/>
<polyline clip-path="url(#clip630)" style="stroke:#000000; stroke-linecap:round; stroke-linejoin:round; stroke-width:4; stroke-opacity:1; fill:none" points="808.529,1423.18 808.529,1404.28 "/>
<polyline clip-path="url(#clip630)" style="stroke:#000000; stroke-linecap:round; stroke-linejoin:round; stroke-width:4; stroke-opacity:1; fill:none" points="1303.49,1423.18 1303.49,1404.28 "/>
<polyline clip-path="url(#clip630)" style="stroke:#000000; stroke-linecap:round; stroke-linejoin:round; stroke-width:4; stroke-opacity:1; fill:none" points="1798.46,1423.18 1798.46,1404.28 "/>
<polyline clip-path="url(#clip630)" style="stroke:#000000; stroke-linecap:round; stroke-linejoin:round; stroke-width:4; stroke-opacity:1; fill:none" points="2293.42,1423.18 2293.42,1404.28 "/>
<path clip-path="url(#clip630)" d="M313.565 1454.1 Q309.954 1454.1 308.125 1457.66 Q306.32 1461.2 306.32 1468.33 Q306.32 1475.44 308.125 1479.01 Q309.954 1482.55 313.565 1482.55 Q317.199 1482.55 319.005 1479.01 Q320.834 1475.44 320.834 1468.33 Q320.834 1461.2 319.005 1457.66 Q317.199 1454.1 313.565 1454.1 M313.565 1450.39 Q319.375 1450.39 322.431 1455 Q325.509 1459.58 325.509 1468.33 Q325.509 1477.06 322.431 1481.67 Q319.375 1486.25 313.565 1486.25 Q307.755 1486.25 304.676 1481.67 Q301.621 1477.06 301.621 1468.33 Q301.621 1459.58 304.676 1455 Q307.755 1450.39 313.565 1450.39 Z" fill="#000000" fill-rule="nonzero" fill-opacity="1" /><path clip-path="url(#clip630)" d="M772.221 1481.64 L788.54 1481.64 L788.54 1485.58 L766.596 1485.58 L766.596 1481.64 Q769.258 1478.89 773.841 1474.26 Q778.448 1469.61 779.628 1468.27 Q781.874 1465.74 782.753 1464.01 Q783.656 1462.25 783.656 1460.56 Q783.656 1457.8 781.712 1456.07 Q779.79 1454.33 776.689 1454.33 Q774.49 1454.33 772.036 1455.09 Q769.605 1455.86 766.828 1457.41 L766.828 1452.69 Q769.652 1451.55 772.105 1450.97 Q774.559 1450.39 776.596 1450.39 Q781.966 1450.39 785.161 1453.08 Q788.355 1455.77 788.355 1460.26 Q788.355 1462.39 787.545 1464.31 Q786.758 1466.2 784.652 1468.8 Q784.073 1469.47 780.971 1472.69 Q777.869 1475.88 772.221 1481.64 Z" fill="#000000" fill-rule="nonzero" fill-opacity="1" /><path clip-path="url(#clip630)" d="M798.401 1451.02 L816.758 1451.02 L816.758 1454.96 L802.684 1454.96 L802.684 1463.43 Q803.702 1463.08 804.721 1462.92 Q805.739 1462.73 806.758 1462.73 Q812.545 1462.73 815.924 1465.9 Q819.304 1469.08 819.304 1474.49 Q819.304 1480.07 815.832 1483.17 Q812.36 1486.25 806.04 1486.25 Q803.864 1486.25 801.596 1485.88 Q799.351 1485.51 796.943 1484.77 L796.943 1480.07 Q799.026 1481.2 801.249 1481.76 Q803.471 1482.32 805.948 1482.32 Q809.952 1482.32 812.29 1480.21 Q814.628 1478.1 814.628 1474.49 Q814.628 1470.88 812.29 1468.77 Q809.952 1466.67 805.948 1466.67 Q804.073 1466.67 802.198 1467.08 Q800.346 1467.5 798.401 1468.38 L798.401 1451.02 Z" fill="#000000" fill-rule="nonzero" fill-opacity="1" /><path clip-path="url(#clip630)" d="M838.517 1454.1 Q834.906 1454.1 833.077 1457.66 Q831.272 1461.2 831.272 1468.33 Q831.272 1475.44 833.077 1479.01 Q834.906 1482.55 838.517 1482.55 Q842.151 1482.55 843.957 1479.01 Q845.785 1475.44 845.785 1468.33 Q845.785 1461.2 843.957 1457.66 Q842.151 1454.1 838.517 1454.1 M838.517 1450.39 Q844.327 1450.39 847.383 1455 Q850.461 1459.58 850.461 1468.33 Q850.461 1477.06 847.383 1481.67 Q844.327 1486.25 838.517 1486.25 Q832.707 1486.25 829.628 1481.67 Q826.573 1477.06 826.573 1468.33 Q826.573 1459.58 829.628 1455 Q832.707 1450.39 838.517 1450.39 Z" fill="#000000" fill-rule="nonzero" fill-opacity="1" /><path clip-path="url(#clip630)" d="M1263.11 1451.02 L1281.47 1451.02 L1281.47 1454.96 L1267.39 1454.96 L1267.39 1463.43 Q1268.41 1463.08 1269.43 1462.92 Q1270.45 1462.73 1271.47 1462.73 Q1277.25 1462.73 1280.63 1465.9 Q1284.01 1469.08 1284.01 1474.49 Q1284.01 1480.07 1280.54 1483.17 Q1277.07 1486.25 1270.75 1486.25 Q1268.57 1486.25 1266.31 1485.88 Q1264.06 1485.51 1261.65 1484.77 L1261.65 1480.07 Q1263.74 1481.2 1265.96 1481.76 Q1268.18 1482.32 1270.66 1482.32 Q1274.66 1482.32 1277 1480.21 Q1279.34 1478.1 1279.34 1474.49 Q1279.34 1470.88 1277 1468.77 Q1274.66 1466.67 1270.66 1466.67 Q1268.78 1466.67 1266.91 1467.08 Q1265.06 1467.5 1263.11 1468.38 L1263.11 1451.02 Z" fill="#000000" fill-rule="nonzero" fill-opacity="1" /><path clip-path="url(#clip630)" d="M1303.23 1454.1 Q1299.62 1454.1 1297.79 1457.66 Q1295.98 1461.2 1295.98 1468.33 Q1295.98 1475.44 1297.79 1479.01 Q1299.62 1482.55 1303.23 1482.55 Q1306.86 1482.55 1308.67 1479.01 Q1310.49 1475.44 1310.49 1468.33 Q1310.49 1461.2 1308.67 1457.66 Q1306.86 1454.1 1303.23 1454.1 M1303.23 1450.39 Q1309.04 1450.39 1312.09 1455 Q1315.17 1459.58 1315.17 1468.33 Q1315.17 1477.06 1312.09 1481.67 Q1309.04 1486.25 1303.23 1486.25 Q1297.42 1486.25 1294.34 1481.67 Q1291.28 1477.06 1291.28 1468.33 Q1291.28 1459.58 1294.34 1455 Q1297.42 1450.39 1303.23 1450.39 Z" fill="#000000" fill-rule="nonzero" fill-opacity="1" /><path clip-path="url(#clip630)" d="M1333.39 1454.1 Q1329.78 1454.1 1327.95 1457.66 Q1326.14 1461.2 1326.14 1468.33 Q1326.14 1475.44 1327.95 1479.01 Q1329.78 1482.55 1333.39 1482.55 Q1337.02 1482.55 1338.83 1479.01 Q1340.66 1475.44 1340.66 1468.33 Q1340.66 1461.2 1338.83 1457.66 Q1337.02 1454.1 1333.39 1454.1 M1333.39 1450.39 Q1339.2 1450.39 1342.25 1455 Q1345.33 1459.58 1345.33 1468.33 Q1345.33 1477.06 1342.25 1481.67 Q1339.2 1486.25 1333.39 1486.25 Q1327.58 1486.25 1324.5 1481.67 Q1321.44 1477.06 1321.44 1468.33 Q1321.44 1459.58 1324.5 1455 Q1327.58 1450.39 1333.39 1450.39 Z" fill="#000000" fill-rule="nonzero" fill-opacity="1" /><path clip-path="url(#clip630)" d="M1756.73 1451.02 L1778.95 1451.02 L1778.95 1453.01 L1766.41 1485.58 L1761.52 1485.58 L1773.33 1454.96 L1756.73 1454.96 L1756.73 1451.02 Z" fill="#000000" fill-rule="nonzero" fill-opacity="1" /><path clip-path="url(#clip630)" d="M1788.12 1451.02 L1806.48 1451.02 L1806.48 1454.96 L1792.4 1454.96 L1792.4 1463.43 Q1793.42 1463.08 1794.44 1462.92 Q1795.46 1462.73 1796.48 1462.73 Q1802.26 1462.73 1805.64 1465.9 Q1809.02 1469.08 1809.02 1474.49 Q1809.02 1480.07 1805.55 1483.17 Q1802.08 1486.25 1795.76 1486.25 Q1793.58 1486.25 1791.31 1485.88 Q1789.07 1485.51 1786.66 1484.77 L1786.66 1480.07 Q1788.75 1481.2 1790.97 1481.76 Q1793.19 1482.32 1795.67 1482.32 Q1799.67 1482.32 1802.01 1480.21 Q1804.35 1478.1 1804.35 1474.49 Q1804.35 1470.88 1802.01 1468.77 Q1799.67 1466.67 1795.67 1466.67 Q1793.79 1466.67 1791.92 1467.08 Q1790.06 1467.5 1788.12 1468.38 L1788.12 1451.02 Z" fill="#000000" fill-rule="nonzero" fill-opacity="1" /><path clip-path="url(#clip630)" d="M1828.24 1454.1 Q1824.62 1454.1 1822.8 1457.66 Q1820.99 1461.2 1820.99 1468.33 Q1820.99 1475.44 1822.8 1479.01 Q1824.62 1482.55 1828.24 1482.55 Q1831.87 1482.55 1833.68 1479.01 Q1835.5 1475.44 1835.5 1468.33 Q1835.5 1461.2 1833.68 1457.66 Q1831.87 1454.1 1828.24 1454.1 M1828.24 1450.39 Q1834.05 1450.39 1837.1 1455 Q1840.18 1459.58 1840.18 1468.33 Q1840.18 1477.06 1837.1 1481.67 Q1834.05 1486.25 1828.24 1486.25 Q1822.43 1486.25 1819.35 1481.67 Q1816.29 1477.06 1816.29 1468.33 Q1816.29 1459.58 1819.35 1455 Q1822.43 1450.39 1828.24 1450.39 Z" fill="#000000" fill-rule="nonzero" fill-opacity="1" /><path clip-path="url(#clip630)" d="M2237.95 1481.64 L2245.58 1481.64 L2245.58 1455.28 L2237.27 1456.95 L2237.27 1452.69 L2245.54 1451.02 L2250.21 1451.02 L2250.21 1481.64 L2257.85 1481.64 L2257.85 1485.58 L2237.95 1485.58 L2237.95 1481.64 Z" fill="#000000" fill-rule="nonzero" fill-opacity="1" /><path clip-path="url(#clip630)" d="M2277.3 1454.1 Q2273.69 1454.1 2271.86 1457.66 Q2270.05 1461.2 2270.05 1468.33 Q2270.05 1475.44 2271.86 1479.01 Q2273.69 1482.55 2277.3 1482.55 Q2280.93 1482.55 2282.74 1479.01 Q2284.57 1475.44 2284.57 1468.33 Q2284.57 1461.2 2282.74 1457.66 Q2280.93 1454.1 2277.3 1454.1 M2277.3 1450.39 Q2283.11 1450.39 2286.16 1455 Q2289.24 1459.58 2289.24 1468.33 Q2289.24 1477.06 2286.16 1481.67 Q2283.11 1486.25 2277.3 1486.25 Q2271.49 1486.25 2268.41 1481.67 Q2265.35 1477.06 2265.35 1468.33 Q2265.35 1459.58 2268.41 1455 Q2271.49 1450.39 2277.3 1450.39 Z" fill="#000000" fill-rule="nonzero" fill-opacity="1" /><path clip-path="url(#clip630)" d="M2307.46 1454.1 Q2303.85 1454.1 2302.02 1457.66 Q2300.21 1461.2 2300.21 1468.33 Q2300.21 1475.44 2302.02 1479.01 Q2303.85 1482.55 2307.46 1482.55 Q2311.09 1482.55 2312.9 1479.01 Q2314.73 1475.44 2314.73 1468.33 Q2314.73 1461.2 2312.9 1457.66 Q2311.09 1454.1 2307.46 1454.1 M2307.46 1450.39 Q2313.27 1450.39 2316.32 1455 Q2319.4 1459.58 2319.4 1468.33 Q2319.4 1477.06 2316.32 1481.67 Q2313.27 1486.25 2307.46 1486.25 Q2301.65 1486.25 2298.57 1481.67 Q2295.51 1477.06 2295.51 1468.33 Q2295.51 1459.58 2298.57 1455 Q2301.65 1450.39 2307.46 1450.39 Z" fill="#000000" fill-rule="nonzero" fill-opacity="1" /><path clip-path="url(#clip630)" d="M2337.62 1454.1 Q2334.01 1454.1 2332.18 1457.66 Q2330.38 1461.2 2330.38 1468.33 Q2330.38 1475.44 2332.18 1479.01 Q2334.01 1482.55 2337.62 1482.55 Q2341.26 1482.55 2343.06 1479.01 Q2344.89 1475.44 2344.89 1468.33 Q2344.89 1461.2 2343.06 1457.66 Q2341.26 1454.1 2337.62 1454.1 M2337.62 1450.39 Q2343.43 1450.39 2346.49 1455 Q2349.57 1459.58 2349.57 1468.33 Q2349.57 1477.06 2346.49 1481.67 Q2343.43 1486.25 2337.62 1486.25 Q2331.81 1486.25 2328.73 1481.67 Q2325.68 1477.06 2325.68 1468.33 Q2325.68 1459.58 2328.73 1455 Q2331.81 1450.39 2337.62 1450.39 Z" fill="#000000" fill-rule="nonzero" fill-opacity="1" /><path clip-path="url(#clip630)" d="M1268.33 1524.18 L1268.33 1530.96 Q1265.08 1527.94 1261.39 1526.44 Q1257.73 1524.95 1253.59 1524.95 Q1245.44 1524.95 1241.11 1529.95 Q1236.78 1534.91 1236.78 1544.33 Q1236.78 1553.72 1241.11 1558.72 Q1245.44 1563.68 1253.59 1563.68 Q1257.73 1563.68 1261.39 1562.19 Q1265.08 1560.69 1268.33 1557.67 L1268.33 1564.38 Q1264.95 1566.68 1261.16 1567.82 Q1257.41 1568.97 1253.21 1568.97 Q1242.42 1568.97 1236.21 1562.38 Q1230 1555.76 1230 1544.33 Q1230 1532.87 1236.21 1526.28 Q1242.42 1519.66 1253.21 1519.66 Q1257.47 1519.66 1261.23 1520.81 Q1265.01 1521.92 1268.33 1524.18 Z" fill="#000000" fill-rule="nonzero" fill-opacity="1" /><path clip-path="url(#clip630)" d="M1308.49 1548.76 L1308.49 1551.62 L1281.57 1551.62 Q1281.95 1557.67 1285.19 1560.85 Q1288.47 1564 1294.3 1564 Q1297.67 1564 1300.82 1563.17 Q1304 1562.35 1307.12 1560.69 L1307.12 1566.23 Q1303.97 1567.57 1300.66 1568.27 Q1297.35 1568.97 1293.95 1568.97 Q1285.42 1568.97 1280.42 1564 Q1275.45 1559.04 1275.45 1550.57 Q1275.45 1541.82 1280.17 1536.69 Q1284.91 1531.54 1292.93 1531.54 Q1300.12 1531.54 1304.29 1536.18 Q1308.49 1540.8 1308.49 1548.76 M1302.64 1547.04 Q1302.57 1542.23 1299.93 1539.37 Q1297.32 1536.5 1292.99 1536.5 Q1288.09 1536.5 1285.13 1539.27 Q1282.2 1542.04 1281.76 1547.07 L1302.64 1547.04 Z" fill="#000000" fill-rule="nonzero" fill-opacity="1" /><path clip-path="url(#clip630)" d="M1318.1 1518.52 L1323.96 1518.52 L1323.96 1568.04 L1318.1 1568.04 L1318.1 1518.52 Z" fill="#000000" fill-rule="nonzero" fill-opacity="1" /><path clip-path="url(#clip630)" d="M1336.22 1518.52 L1342.07 1518.52 L1342.07 1568.04 L1336.22 1568.04 L1336.22 1518.52 Z" fill="#000000" fill-rule="nonzero" fill-opacity="1" /><path clip-path="url(#clip630)" d="M1377.05 1533.45 L1377.05 1538.98 Q1374.57 1537.71 1371.9 1537.07 Q1369.22 1536.44 1366.36 1536.44 Q1362 1536.44 1359.8 1537.77 Q1357.64 1539.11 1357.64 1541.79 Q1357.64 1543.82 1359.2 1545 Q1360.76 1546.15 1365.47 1547.2 L1367.47 1547.64 Q1373.71 1548.98 1376.32 1551.43 Q1378.96 1553.85 1378.96 1558.21 Q1378.96 1563.17 1375.01 1566.07 Q1371.1 1568.97 1364.22 1568.97 Q1361.36 1568.97 1358.24 1568.39 Q1355.15 1567.85 1351.72 1566.74 L1351.72 1560.69 Q1354.96 1562.38 1358.11 1563.24 Q1361.26 1564.07 1364.35 1564.07 Q1368.49 1564.07 1370.72 1562.66 Q1372.95 1561.23 1372.95 1558.65 Q1372.95 1556.27 1371.32 1554.99 Q1369.73 1553.72 1364.29 1552.54 L1362.25 1552.07 Q1356.81 1550.92 1354.39 1548.56 Q1351.97 1546.18 1351.97 1542.04 Q1351.97 1537.01 1355.54 1534.27 Q1359.1 1531.54 1365.66 1531.54 Q1368.9 1531.54 1371.77 1532.01 Q1374.63 1532.49 1377.05 1533.45 Z" fill="#000000" fill-rule="nonzero" fill-opacity="1" /><polyline clip-path="url(#clip632)" style="stroke:#000000; stroke-linecap:round; stroke-linejoin:round; stroke-width:2; stroke-opacity:0.1; fill:none" points="256.209,1333.1 2352.76,1333.1 "/>
<polyline clip-path="url(#clip632)" style="stroke:#000000; stroke-linecap:round; stroke-linejoin:round; stroke-width:2; stroke-opacity:0.1; fill:none" points="256.209,930.069 2352.76,930.069 "/>
<polyline clip-path="url(#clip632)" style="stroke:#000000; stroke-linecap:round; stroke-linejoin:round; stroke-width:2; stroke-opacity:0.1; fill:none" points="256.209,527.035 2352.76,527.035 "/>
<polyline clip-path="url(#clip632)" style="stroke:#000000; stroke-linecap:round; stroke-linejoin:round; stroke-width:2; stroke-opacity:0.1; fill:none" points="256.209,124.001 2352.76,124.001 "/>
<polyline clip-path="url(#clip630)" style="stroke:#000000; stroke-linecap:round; stroke-linejoin:round; stroke-width:4; stroke-opacity:1; fill:none" points="256.209,1423.18 256.209,123.472 "/>
<polyline clip-path="url(#clip630)" style="stroke:#000000; stroke-linecap:round; stroke-linejoin:round; stroke-width:4; stroke-opacity:1; fill:none" points="256.209,1333.1 275.106,1333.1 "/>
<polyline clip-path="url(#clip630)" style="stroke:#000000; stroke-linecap:round; stroke-linejoin:round; stroke-width:4; stroke-opacity:1; fill:none" points="256.209,930.069 275.106,930.069 "/>
<polyline clip-path="url(#clip630)" style="stroke:#000000; stroke-linecap:round; stroke-linejoin:round; stroke-width:4; stroke-opacity:1; fill:none" points="256.209,527.035 275.106,527.035 "/>
<polyline clip-path="url(#clip630)" style="stroke:#000000; stroke-linecap:round; stroke-linejoin:round; stroke-width:4; stroke-opacity:1; fill:none" points="256.209,124.001 275.106,124.001 "/>
<path clip-path="url(#clip630)" d="M114.26 1333.55 L143.936 1333.55 L143.936 1337.49 L114.26 1337.49 L114.26 1333.55 Z" fill="#000000" fill-rule="nonzero" fill-opacity="1" /><path clip-path="url(#clip630)" d="M164.028 1318.9 Q160.417 1318.9 158.589 1322.47 Q156.783 1326.01 156.783 1333.14 Q156.783 1340.24 158.589 1343.81 Q160.417 1347.35 164.028 1347.35 Q167.663 1347.35 169.468 1343.81 Q171.297 1340.24 171.297 1333.14 Q171.297 1326.01 169.468 1322.47 Q167.663 1318.9 164.028 1318.9 M164.028 1315.2 Q169.839 1315.2 172.894 1319.8 Q175.973 1324.39 175.973 1333.14 Q175.973 1341.86 172.894 1346.47 Q169.839 1351.05 164.028 1351.05 Q158.218 1351.05 155.14 1346.47 Q152.084 1341.86 152.084 1333.14 Q152.084 1324.39 155.14 1319.8 Q158.218 1315.2 164.028 1315.2 Z" fill="#000000" fill-rule="nonzero" fill-opacity="1" /><path clip-path="url(#clip630)" d="M184.19 1344.5 L189.075 1344.5 L189.075 1350.38 L184.19 1350.38 L184.19 1344.5 Z" fill="#000000" fill-rule="nonzero" fill-opacity="1" /><path clip-path="url(#clip630)" d="M199.306 1315.82 L217.662 1315.82 L217.662 1319.76 L203.588 1319.76 L203.588 1328.23 Q204.607 1327.88 205.625 1327.72 Q206.644 1327.54 207.662 1327.54 Q213.449 1327.54 216.829 1330.71 Q220.209 1333.88 220.209 1339.29 Q220.209 1344.87 216.736 1347.98 Q213.264 1351.05 206.945 1351.05 Q204.769 1351.05 202.5 1350.68 Q200.255 1350.31 197.848 1349.57 L197.848 1344.87 Q199.931 1346.01 202.153 1346.56 Q204.375 1347.12 206.852 1347.12 Q210.857 1347.12 213.195 1345.01 Q215.533 1342.91 215.533 1339.29 Q215.533 1335.68 213.195 1333.58 Q210.857 1331.47 206.852 1331.47 Q204.977 1331.47 203.102 1331.89 Q201.25 1332.3 199.306 1333.18 L199.306 1315.82 Z" fill="#000000" fill-rule="nonzero" fill-opacity="1" /><path clip-path="url(#clip630)" d="M163.033 915.867 Q159.422 915.867 157.593 919.432 Q155.788 922.974 155.788 930.104 Q155.788 937.21 157.593 940.775 Q159.422 944.316 163.033 944.316 Q166.667 944.316 168.473 940.775 Q170.302 937.21 170.302 930.104 Q170.302 922.974 168.473 919.432 Q166.667 915.867 163.033 915.867 M163.033 912.164 Q168.843 912.164 171.899 916.77 Q174.977 921.354 174.977 930.104 Q174.977 938.83 171.899 943.437 Q168.843 948.02 163.033 948.02 Q157.223 948.02 154.144 943.437 Q151.089 938.83 151.089 930.104 Q151.089 921.354 154.144 916.77 Q157.223 912.164 163.033 912.164 Z" fill="#000000" fill-rule="nonzero" fill-opacity="1" /><path clip-path="url(#clip630)" d="M183.195 941.469 L188.079 941.469 L188.079 947.349 L183.195 947.349 L183.195 941.469 Z" fill="#000000" fill-rule="nonzero" fill-opacity="1" /><path clip-path="url(#clip630)" d="M208.264 915.867 Q204.653 915.867 202.824 919.432 Q201.019 922.974 201.019 930.104 Q201.019 937.21 202.824 940.775 Q204.653 944.316 208.264 944.316 Q211.899 944.316 213.704 940.775 Q215.533 937.21 215.533 930.104 Q215.533 922.974 213.704 919.432 Q211.899 915.867 208.264 915.867 M208.264 912.164 Q214.074 912.164 217.13 916.77 Q220.209 921.354 220.209 930.104 Q220.209 938.83 217.13 943.437 Q214.074 948.02 208.264 948.02 Q202.454 948.02 199.375 943.437 Q196.32 938.83 196.32 930.104 Q196.32 921.354 199.375 916.77 Q202.454 912.164 208.264 912.164 Z" fill="#000000" fill-rule="nonzero" fill-opacity="1" /><path clip-path="url(#clip630)" d="M164.028 512.834 Q160.417 512.834 158.589 516.399 Q156.783 519.94 156.783 527.07 Q156.783 534.176 158.589 537.741 Q160.417 541.283 164.028 541.283 Q167.663 541.283 169.468 537.741 Q171.297 534.176 171.297 527.07 Q171.297 519.94 169.468 516.399 Q167.663 512.834 164.028 512.834 M164.028 509.13 Q169.839 509.13 172.894 513.737 Q175.973 518.32 175.973 527.07 Q175.973 535.797 172.894 540.403 Q169.839 544.986 164.028 544.986 Q158.218 544.986 155.14 540.403 Q152.084 535.797 152.084 527.07 Q152.084 518.32 155.14 513.737 Q158.218 509.13 164.028 509.13 Z" fill="#000000" fill-rule="nonzero" fill-opacity="1" /><path clip-path="url(#clip630)" d="M184.19 538.435 L189.075 538.435 L189.075 544.315 L184.19 544.315 L184.19 538.435 Z" fill="#000000" fill-rule="nonzero" fill-opacity="1" /><path clip-path="url(#clip630)" d="M199.306 509.755 L217.662 509.755 L217.662 513.69 L203.588 513.69 L203.588 522.162 Q204.607 521.815 205.625 521.653 Q206.644 521.468 207.662 521.468 Q213.449 521.468 216.829 524.639 Q220.209 527.811 220.209 533.227 Q220.209 538.806 216.736 541.908 Q213.264 544.986 206.945 544.986 Q204.769 544.986 202.5 544.616 Q200.255 544.246 197.848 543.505 L197.848 538.806 Q199.931 539.94 202.153 540.496 Q204.375 541.051 206.852 541.051 Q210.857 541.051 213.195 538.945 Q215.533 536.838 215.533 533.227 Q215.533 529.616 213.195 527.51 Q210.857 525.403 206.852 525.403 Q204.977 525.403 203.102 525.82 Q201.25 526.236 199.306 527.116 L199.306 509.755 Z" fill="#000000" fill-rule="nonzero" fill-opacity="1" /><path clip-path="url(#clip630)" d="M153.843 137.346 L161.482 137.346 L161.482 110.981 L153.172 112.647 L153.172 108.388 L161.436 106.721 L166.112 106.721 L166.112 137.346 L173.751 137.346 L173.751 141.281 L153.843 141.281 L153.843 137.346 Z" fill="#000000" fill-rule="nonzero" fill-opacity="1" /><path clip-path="url(#clip630)" d="M183.195 135.402 L188.079 135.402 L188.079 141.281 L183.195 141.281 L183.195 135.402 Z" fill="#000000" fill-rule="nonzero" fill-opacity="1" /><path clip-path="url(#clip630)" d="M208.264 109.8 Q204.653 109.8 202.824 113.365 Q201.019 116.906 201.019 124.036 Q201.019 131.142 202.824 134.707 Q204.653 138.249 208.264 138.249 Q211.899 138.249 213.704 134.707 Q215.533 131.142 215.533 124.036 Q215.533 116.906 213.704 113.365 Q211.899 109.8 208.264 109.8 M208.264 106.096 Q214.074 106.096 217.13 110.703 Q220.209 115.286 220.209 124.036 Q220.209 132.763 217.13 137.369 Q214.074 141.953 208.264 141.953 Q202.454 141.953 199.375 137.369 Q196.32 132.763 196.32 124.036 Q196.32 115.286 199.375 110.703 Q202.454 106.096 208.264 106.096 Z" fill="#000000" fill-rule="nonzero" fill-opacity="1" /><path clip-path="url(#clip630)" d="M18.0438 893.717 L24.314 893.717 Q22.5634 897.378 21.704 900.624 Q20.8447 903.871 20.8447 906.894 Q20.8447 912.146 22.8817 915.011 Q24.9187 917.843 28.6745 917.843 Q31.8255 917.843 33.4488 915.966 Q35.0402 914.056 36.0269 908.772 L36.8226 904.889 Q38.1912 897.696 41.6605 894.29 Q45.098 890.853 50.8908 890.853 Q57.7976 890.853 61.3624 895.5 Q64.9272 900.115 64.9272 909.059 Q64.9272 912.433 64.1633 916.252 Q63.3994 920.04 61.9035 924.114 L55.2831 924.114 Q57.4793 920.199 58.5933 916.443 Q59.7073 912.687 59.7073 909.059 Q59.7073 903.552 57.543 900.561 Q55.3786 897.569 51.3682 897.569 Q47.8671 897.569 45.8937 899.733 Q43.9204 901.866 42.9337 906.767 L42.1698 910.682 Q40.7375 917.875 37.682 921.09 Q34.6264 924.305 29.1837 924.305 Q22.8817 924.305 19.2532 919.88 Q15.6248 915.424 15.6248 907.626 Q15.6248 904.284 16.2295 900.815 Q16.8343 897.346 18.0438 893.717 Z" fill="#000000" fill-rule="nonzero" fill-opacity="1" /><path clip-path="url(#clip630)" d="M28.3562 881.081 L28.3562 875.225 L64.0042 875.225 L64.0042 881.081 L28.3562 881.081 M14.479 881.081 L14.479 875.225 L21.895 875.225 L21.895 881.081 L14.479 881.081 Z" fill="#000000" fill-rule="nonzero" fill-opacity="1" /><path clip-path="url(#clip630)" d="M35.1993 835.217 Q31.2526 833.02 29.3747 829.965 Q27.4968 826.909 27.4968 822.772 Q27.4968 817.202 31.4117 814.178 Q35.2948 811.154 42.4881 811.154 L64.0042 811.154 L64.0042 817.042 L42.679 817.042 Q37.5546 817.042 35.072 818.857 Q32.5894 820.671 32.5894 824.395 Q32.5894 828.946 35.6131 831.588 Q38.6368 834.23 43.8567 834.23 L64.0042 834.23 L64.0042 840.118 L42.679 840.118 Q37.5228 840.118 35.072 841.932 Q32.5894 843.747 32.5894 847.534 Q32.5894 852.022 35.6449 854.664 Q38.6686 857.306 43.8567 857.306 L64.0042 857.306 L64.0042 863.194 L28.3562 863.194 L28.3562 857.306 L33.8944 857.306 Q30.616 855.3 29.0564 852.499 Q27.4968 849.699 27.4968 845.847 Q27.4968 841.964 29.4702 839.259 Q31.4436 836.522 35.1993 835.217 Z" fill="#000000" fill-rule="nonzero" fill-opacity="1" /><path clip-path="url(#clip630)" d="M28.3562 799.473 L28.3562 793.617 L64.0042 793.617 L64.0042 799.473 L28.3562 799.473 M14.479 799.473 L14.479 793.617 L21.895 793.617 L21.895 799.473 L14.479 799.473 Z" fill="#000000" fill-rule="nonzero" fill-opacity="1" /><path clip-path="url(#clip630)" d="M14.479 781.363 L14.479 775.506 L64.0042 775.506 L64.0042 781.363 L14.479 781.363 Z" fill="#000000" fill-rule="nonzero" fill-opacity="1" /><path clip-path="url(#clip630)" d="M46.0847 747.052 Q46.0847 754.149 47.7079 756.887 Q49.3312 759.624 53.2461 759.624 Q56.3653 759.624 58.2114 757.587 Q60.0256 755.518 60.0256 751.985 Q60.0256 747.115 56.5881 744.187 Q53.1188 741.227 47.3897 741.227 L46.0847 741.227 L46.0847 747.052 M43.6657 735.37 L64.0042 735.37 L64.0042 741.227 L58.5933 741.227 Q61.8398 743.232 63.3994 746.224 Q64.9272 749.216 64.9272 753.545 Q64.9272 759.019 61.8716 762.266 Q58.7843 765.48 53.6281 765.48 Q47.6125 765.48 44.5569 761.47 Q41.5014 757.428 41.5014 749.439 L41.5014 741.227 L40.9285 741.227 Q36.8862 741.227 34.6901 743.901 Q32.4621 746.542 32.4621 751.348 Q32.4621 754.404 33.1941 757.3 Q33.9262 760.197 35.3903 762.87 L29.9795 762.87 Q28.7381 759.656 28.1334 756.632 Q27.4968 753.608 27.4968 750.744 Q27.4968 743.009 31.5072 739.19 Q35.5176 735.37 43.6657 735.37 Z" fill="#000000" fill-rule="nonzero" fill-opacity="1" /><path clip-path="url(#clip630)" d="M33.8307 702.651 Q33.2578 703.637 33.0032 704.815 Q32.7167 705.961 32.7167 707.361 Q32.7167 712.327 35.9632 715 Q39.1779 717.642 45.2253 717.642 L64.0042 717.642 L64.0042 723.53 L28.3562 723.53 L28.3562 717.642 L33.8944 717.642 Q30.6479 715.796 29.0883 712.836 Q27.4968 709.876 27.4968 705.643 Q27.4968 705.038 27.5923 704.306 Q27.656 703.574 27.8151 702.683 L33.8307 702.651 Z" fill="#000000" fill-rule="nonzero" fill-opacity="1" /><path clip-path="url(#clip630)" d="M28.3562 696.508 L28.3562 690.651 L64.0042 690.651 L64.0042 696.508 L28.3562 696.508 M14.479 696.508 L14.479 690.651 L21.895 690.651 L21.895 696.508 L14.479 696.508 Z" fill="#000000" fill-rule="nonzero" fill-opacity="1" /><path clip-path="url(#clip630)" d="M18.2347 672.605 L28.3562 672.605 L28.3562 660.542 L32.9077 660.542 L32.9077 672.605 L52.2594 672.605 Q56.6199 672.605 57.8613 671.427 Q59.1026 670.217 59.1026 666.557 L59.1026 660.542 L64.0042 660.542 L64.0042 666.557 Q64.0042 673.337 61.4897 675.915 Q58.9434 678.493 52.2594 678.493 L32.9077 678.493 L32.9077 682.79 L28.3562 682.79 L28.3562 678.493 L18.2347 678.493 L18.2347 672.605 Z" fill="#000000" fill-rule="nonzero" fill-opacity="1" /><path clip-path="url(#clip630)" d="M67.3143 638.007 Q73.68 640.49 75.6216 642.845 Q77.5631 645.2 77.5631 649.147 L77.5631 653.826 L72.6615 653.826 L72.6615 650.388 Q72.6615 647.969 71.5157 646.633 Q70.3699 645.296 66.1048 643.672 L63.4312 642.622 L28.3562 657.04 L28.3562 650.834 L56.238 639.694 L28.3562 628.554 L28.3562 622.347 L67.3143 638.007 Z" fill="#000000" fill-rule="nonzero" fill-opacity="1" /><path clip-path="url(#clip630)" d="M395.682 14.0809 L395.682 22.0612 Q391.024 19.8332 386.892 18.7395 Q382.76 17.6457 378.911 17.6457 Q372.227 17.6457 368.582 20.2383 Q364.976 22.8309 364.976 27.611 Q364.976 31.6214 367.366 33.6873 Q369.797 35.7128 376.521 36.9686 L381.464 37.9813 Q390.619 39.7232 394.953 44.1387 Q399.328 48.5136 399.328 55.8863 Q399.328 64.6767 393.414 69.2137 Q387.54 73.7508 376.157 73.7508 Q371.863 73.7508 367.002 72.7785 Q362.181 71.8063 356.996 69.9024 L356.996 61.4765 Q361.979 64.2716 366.759 65.6895 Q371.539 67.1073 376.157 67.1073 Q383.165 67.1073 386.973 64.3527 Q390.781 61.598 390.781 56.4939 Q390.781 52.0379 388.026 49.5264 Q385.312 47.0148 379.073 45.759 L374.091 44.7868 Q364.936 42.9639 360.844 39.075 Q356.753 35.1862 356.753 28.2591 Q356.753 20.2383 362.384 15.6203 Q368.055 11.0023 377.98 11.0023 Q382.233 11.0023 386.649 11.7719 Q391.064 12.5416 395.682 14.0809 Z" fill="#000000" fill-rule="nonzero" fill-opacity="1" /><path clip-path="url(#clip630)" d="M429.345 32.4315 Q423.35 32.4315 419.866 37.1306 Q416.382 41.7891 416.382 49.9314 Q416.382 58.0738 419.826 62.7728 Q423.309 67.4314 429.345 67.4314 Q435.3 67.4314 438.784 62.7323 Q442.268 58.0333 442.268 49.9314 Q442.268 41.8701 438.784 37.1711 Q435.3 32.4315 429.345 32.4315 M429.345 26.1121 Q439.067 26.1121 444.617 32.4315 Q450.167 38.7509 450.167 49.9314 Q450.167 61.0714 444.617 67.4314 Q439.067 73.7508 429.345 73.7508 Q419.583 73.7508 414.033 67.4314 Q408.524 61.0714 408.524 49.9314 Q408.524 38.7509 414.033 32.4315 Q419.583 26.1121 429.345 26.1121 Z" fill="#000000" fill-rule="nonzero" fill-opacity="1" /><path clip-path="url(#clip630)" d="M488.812 34.1734 Q487.557 33.4443 486.058 33.1202 Q484.6 32.7556 482.817 32.7556 Q476.498 32.7556 473.095 36.8875 Q469.733 40.9789 469.733 48.6757 L469.733 72.576 L462.239 72.576 L462.239 27.2059 L469.733 27.2059 L469.733 34.2544 Q472.082 30.1225 475.85 28.1376 Q479.617 26.1121 485.005 26.1121 Q485.774 26.1121 486.706 26.2337 Q487.638 26.3147 488.772 26.5172 L488.812 34.1734 Z" fill="#000000" fill-rule="nonzero" fill-opacity="1" /><path clip-path="url(#clip630)" d="M504.003 14.324 L504.003 27.2059 L519.356 27.2059 L519.356 32.9987 L504.003 32.9987 L504.003 57.6282 Q504.003 63.1779 505.502 64.7578 Q507.042 66.3376 511.7 66.3376 L519.356 66.3376 L519.356 72.576 L511.7 72.576 Q503.072 72.576 499.79 69.3758 Q496.509 66.1351 496.509 57.6282 L496.509 32.9987 L491.04 32.9987 L491.04 27.2059 L496.509 27.2059 L496.509 14.324 L504.003 14.324 Z" fill="#000000" fill-rule="nonzero" fill-opacity="1" /><path clip-path="url(#clip630)" d="M567.967 48.0275 L567.967 51.6733 L533.696 51.6733 Q534.183 59.3701 538.315 63.421 Q542.487 67.4314 549.9 67.4314 Q554.194 67.4314 558.204 66.3781 Q562.255 65.3249 566.225 63.2184 L566.225 70.267 Q562.215 71.9684 558.002 72.8596 Q553.789 73.7508 549.455 73.7508 Q538.598 73.7508 532.238 67.4314 Q525.919 61.1119 525.919 50.3365 Q525.919 39.1965 531.914 32.6746 Q537.95 26.1121 548.158 26.1121 Q557.313 26.1121 562.62 32.0264 Q567.967 37.9003 567.967 48.0275 M560.513 45.84 Q560.432 39.7232 557.07 36.0774 Q553.748 32.4315 548.239 32.4315 Q542.001 32.4315 538.233 35.9558 Q534.507 39.4801 533.94 45.8805 L560.513 45.84 Z" fill="#000000" fill-rule="nonzero" fill-opacity="1" /><path clip-path="url(#clip630)" d="M610.056 34.0924 L610.056 9.54393 L617.51 9.54393 L617.51 72.576 L610.056 72.576 L610.056 65.7705 Q607.707 69.8214 604.101 71.8063 Q600.536 73.7508 595.513 73.7508 Q587.29 73.7508 582.105 67.1883 Q576.96 60.6258 576.96 49.9314 Q576.96 39.2371 582.105 32.6746 Q587.29 26.1121 595.513 26.1121 Q600.536 26.1121 604.101 28.0971 Q607.707 30.0415 610.056 34.0924 M584.657 49.9314 Q584.657 58.1548 588.019 62.8538 Q591.422 67.5124 597.336 67.5124 Q603.251 67.5124 606.653 62.8538 Q610.056 58.1548 610.056 49.9314 Q610.056 41.7081 606.653 37.0496 Q603.251 32.3505 597.336 32.3505 Q591.422 32.3505 588.019 37.0496 Q584.657 41.7081 584.657 49.9314 Z" fill="#000000" fill-rule="nonzero" fill-opacity="1" /><path clip-path="url(#clip630)" d="M691.884 28.9478 L691.884 35.9153 Q688.725 34.1734 685.524 33.3227 Q682.365 32.4315 679.124 32.4315 Q671.873 32.4315 667.862 37.0496 Q663.852 41.6271 663.852 49.9314 Q663.852 58.2358 667.862 62.8538 Q671.873 67.4314 679.124 67.4314 Q682.365 67.4314 685.524 66.5807 Q688.725 65.6895 691.884 63.9476 L691.884 70.8341 Q688.765 72.2924 685.403 73.0216 Q682.081 73.7508 678.314 73.7508 Q668.065 73.7508 662.029 67.3098 Q655.993 60.8689 655.993 49.9314 Q655.993 38.832 662.07 32.472 Q668.187 26.1121 678.8 26.1121 Q682.243 26.1121 685.524 26.8413 Q688.806 27.5299 691.884 28.9478 Z" fill="#000000" fill-rule="nonzero" fill-opacity="1" /><path clip-path="url(#clip630)" d="M722.428 32.4315 Q716.433 32.4315 712.949 37.1306 Q709.465 41.7891 709.465 49.9314 Q709.465 58.0738 712.908 62.7728 Q716.392 67.4314 722.428 67.4314 Q728.383 67.4314 731.867 62.7323 Q735.35 58.0333 735.35 49.9314 Q735.35 41.8701 731.867 37.1711 Q728.383 32.4315 722.428 32.4315 M722.428 26.1121 Q732.15 26.1121 737.7 32.4315 Q743.25 38.7509 743.25 49.9314 Q743.25 61.0714 737.7 67.4314 Q732.15 73.7508 722.428 73.7508 Q712.665 73.7508 707.116 67.4314 Q701.606 61.0714 701.606 49.9314 Q701.606 38.7509 707.116 32.4315 Q712.665 26.1121 722.428 26.1121 Z" fill="#000000" fill-rule="nonzero" fill-opacity="1" /><path clip-path="url(#clip630)" d="M784.528 28.5427 L784.528 35.5912 Q781.369 33.9709 777.966 33.1607 Q774.563 32.3505 770.917 32.3505 Q765.368 32.3505 762.573 34.0519 Q759.818 35.7533 759.818 39.156 Q759.818 41.7486 761.803 43.2475 Q763.788 44.7058 769.783 46.0426 L772.335 46.6097 Q780.275 48.3111 783.597 51.4303 Q786.959 54.509 786.959 60.0587 Q786.959 66.3781 781.936 70.0644 Q776.953 73.7508 768.203 73.7508 Q764.558 73.7508 760.588 73.0216 Q756.658 72.3329 752.283 70.9151 L752.283 63.2184 Q756.415 65.3654 760.426 66.4591 Q764.436 67.5124 768.365 67.5124 Q773.632 67.5124 776.467 65.73 Q779.303 63.9071 779.303 60.6258 Q779.303 57.5877 777.237 55.9673 Q775.211 54.3469 768.284 52.8481 L765.692 52.2405 Q758.765 50.7821 755.686 47.7845 Q752.607 44.7463 752.607 39.4801 Q752.607 33.0797 757.144 29.5959 Q761.681 26.1121 770.026 26.1121 Q774.158 26.1121 777.804 26.7198 Q781.45 27.3274 784.528 28.5427 Z" fill="#000000" fill-rule="nonzero" fill-opacity="1" /><path clip-path="url(#clip630)" d="M798.828 27.2059 L806.282 27.2059 L806.282 72.576 L798.828 72.576 L798.828 27.2059 M798.828 9.54393 L806.282 9.54393 L806.282 18.9825 L798.828 18.9825 L798.828 9.54393 Z" fill="#000000" fill-rule="nonzero" fill-opacity="1" /><path clip-path="url(#clip630)" d="M859.592 45.1919 L859.592 72.576 L852.138 72.576 L852.138 45.4349 Q852.138 38.994 849.627 35.7938 Q847.115 32.5936 842.092 32.5936 Q836.056 32.5936 832.572 36.4419 Q829.088 40.2903 829.088 46.9338 L829.088 72.576 L821.594 72.576 L821.594 27.2059 L829.088 27.2059 L829.088 34.2544 Q831.762 30.163 835.367 28.1376 Q839.013 26.1121 843.753 26.1121 Q851.571 26.1121 855.581 30.9732 Q859.592 35.7938 859.592 45.1919 Z" fill="#000000" fill-rule="nonzero" fill-opacity="1" /><path clip-path="url(#clip630)" d="M913.266 48.0275 L913.266 51.6733 L878.996 51.6733 Q879.482 59.3701 883.614 63.421 Q887.786 67.4314 895.199 67.4314 Q899.493 67.4314 903.504 66.3781 Q907.554 65.3249 911.524 63.2184 L911.524 70.267 Q907.514 71.9684 903.301 72.8596 Q899.088 73.7508 894.754 73.7508 Q883.897 73.7508 877.537 67.4314 Q871.218 61.1119 871.218 50.3365 Q871.218 39.1965 877.213 32.6746 Q883.249 26.1121 893.457 26.1121 Q902.612 26.1121 907.919 32.0264 Q913.266 37.9003 913.266 48.0275 M905.813 45.84 Q905.732 39.7232 902.369 36.0774 Q899.048 32.4315 893.538 32.4315 Q887.3 32.4315 883.533 35.9558 Q879.806 39.4801 879.239 45.8805 L905.813 45.84 Z" fill="#000000" fill-rule="nonzero" fill-opacity="1" /><path clip-path="url(#clip630)" d="M980.795 28.5427 L980.795 35.5912 Q977.635 33.9709 974.232 33.1607 Q970.83 32.3505 967.184 32.3505 Q961.634 32.3505 958.839 34.0519 Q956.084 35.7533 956.084 39.156 Q956.084 41.7486 958.069 43.2475 Q960.054 44.7058 966.049 46.0426 L968.602 46.6097 Q976.541 48.3111 979.863 51.4303 Q983.225 54.509 983.225 60.0587 Q983.225 66.3781 978.202 70.0644 Q973.22 73.7508 964.47 73.7508 Q960.824 73.7508 956.854 73.0216 Q952.925 72.3329 948.55 70.9151 L948.55 63.2184 Q952.682 65.3654 956.692 66.4591 Q960.702 67.5124 964.632 67.5124 Q969.898 67.5124 972.733 65.73 Q975.569 63.9071 975.569 60.6258 Q975.569 57.5877 973.503 55.9673 Q971.478 54.3469 964.551 52.8481 L961.958 52.2405 Q955.031 50.7821 951.952 47.7845 Q948.874 44.7463 948.874 39.4801 Q948.874 33.0797 953.411 29.5959 Q957.948 26.1121 966.293 26.1121 Q970.424 26.1121 974.07 26.7198 Q977.716 27.3274 980.795 28.5427 Z" fill="#000000" fill-rule="nonzero" fill-opacity="1" /><path clip-path="url(#clip630)" d="M995.094 27.2059 L1002.55 27.2059 L1002.55 72.576 L995.094 72.576 L995.094 27.2059 M995.094 9.54393 L1002.55 9.54393 L1002.55 18.9825 L995.094 18.9825 L995.094 9.54393 Z" fill="#000000" fill-rule="nonzero" fill-opacity="1" /><path clip-path="url(#clip630)" d="M1053.47 35.9153 Q1056.26 30.8922 1060.15 28.5022 Q1064.04 26.1121 1069.31 26.1121 Q1076.4 26.1121 1080.24 31.0947 Q1084.09 36.0368 1084.09 45.1919 L1084.09 72.576 L1076.6 72.576 L1076.6 45.4349 Q1076.6 38.913 1074.29 35.7533 Q1071.98 32.5936 1067.24 32.5936 Q1061.45 32.5936 1058.09 36.4419 Q1054.72 40.2903 1054.72 46.9338 L1054.72 72.576 L1047.23 72.576 L1047.23 45.4349 Q1047.23 38.8725 1044.92 35.7533 Q1042.61 32.5936 1037.79 32.5936 Q1032.08 32.5936 1028.72 36.4824 Q1025.35 40.3308 1025.35 46.9338 L1025.35 72.576 L1017.86 72.576 L1017.86 27.2059 L1025.35 27.2059 L1025.35 34.2544 Q1027.91 30.082 1031.47 28.0971 Q1035.04 26.1121 1039.94 26.1121 Q1044.88 26.1121 1048.32 28.6237 Q1051.81 31.1352 1053.47 35.9153 Z" fill="#000000" fill-rule="nonzero" fill-opacity="1" /><path clip-path="url(#clip630)" d="M1098.96 27.2059 L1106.41 27.2059 L1106.41 72.576 L1098.96 72.576 L1098.96 27.2059 M1098.96 9.54393 L1106.41 9.54393 L1106.41 18.9825 L1098.96 18.9825 L1098.96 9.54393 Z" fill="#000000" fill-rule="nonzero" fill-opacity="1" /><path clip-path="url(#clip630)" d="M1122.01 9.54393 L1129.46 9.54393 L1129.46 72.576 L1122.01 72.576 L1122.01 9.54393 Z" fill="#000000" fill-rule="nonzero" fill-opacity="1" /><path clip-path="url(#clip630)" d="M1165.68 49.7694 Q1156.64 49.7694 1153.16 51.8354 Q1149.68 53.9013 1149.68 58.8839 Q1149.68 62.8538 1152.27 65.2034 Q1154.9 67.5124 1159.4 67.5124 Q1165.6 67.5124 1169.32 63.1374 Q1173.09 58.7219 1173.09 51.4303 L1173.09 49.7694 L1165.68 49.7694 M1180.54 46.6907 L1180.54 72.576 L1173.09 72.576 L1173.09 65.6895 Q1170.54 69.8214 1166.73 71.8063 Q1162.92 73.7508 1157.41 73.7508 Q1150.45 73.7508 1146.31 69.8619 Q1142.22 65.9325 1142.22 59.3701 Q1142.22 51.7138 1147.33 47.825 Q1152.47 43.9361 1162.64 43.9361 L1173.09 43.9361 L1173.09 43.2069 Q1173.09 38.0623 1169.69 35.2672 Q1166.33 32.4315 1160.21 32.4315 Q1156.32 32.4315 1152.63 33.3632 Q1148.95 34.295 1145.55 36.1584 L1145.55 29.2718 Q1149.64 27.692 1153.48 26.9223 Q1157.33 26.1121 1160.98 26.1121 Q1170.82 26.1121 1175.68 31.2163 Q1180.54 36.3204 1180.54 46.6907 Z" fill="#000000" fill-rule="nonzero" fill-opacity="1" /><path clip-path="url(#clip630)" d="M1222.19 34.1734 Q1220.93 33.4443 1219.43 33.1202 Q1217.98 32.7556 1216.19 32.7556 Q1209.87 32.7556 1206.47 36.8875 Q1203.11 40.9789 1203.11 48.6757 L1203.11 72.576 L1195.61 72.576 L1195.61 27.2059 L1203.11 27.2059 L1203.11 34.2544 Q1205.46 30.1225 1209.23 28.1376 Q1212.99 26.1121 1218.38 26.1121 Q1219.15 26.1121 1220.08 26.2337 Q1221.01 26.3147 1222.15 26.5172 L1222.19 34.1734 Z" fill="#000000" fill-rule="nonzero" fill-opacity="1" /><path clip-path="url(#clip630)" d="M1230.01 27.2059 L1237.46 27.2059 L1237.46 72.576 L1230.01 72.576 L1230.01 27.2059 M1230.01 9.54393 L1237.46 9.54393 L1237.46 18.9825 L1230.01 18.9825 L1230.01 9.54393 Z" fill="#000000" fill-rule="nonzero" fill-opacity="1" /><path clip-path="url(#clip630)" d="M1260.43 14.324 L1260.43 27.2059 L1275.78 27.2059 L1275.78 32.9987 L1260.43 32.9987 L1260.43 57.6282 Q1260.43 63.1779 1261.93 64.7578 Q1263.47 66.3376 1268.13 66.3376 L1275.78 66.3376 L1275.78 72.576 L1268.13 72.576 Q1259.5 72.576 1256.22 69.3758 Q1252.93 66.1351 1252.93 57.6282 L1252.93 32.9987 L1247.47 32.9987 L1247.47 27.2059 L1252.93 27.2059 L1252.93 14.324 L1260.43 14.324 Z" fill="#000000" fill-rule="nonzero" fill-opacity="1" /><path clip-path="url(#clip630)" d="M1285.58 27.2059 L1293.04 27.2059 L1293.04 72.576 L1285.58 72.576 L1285.58 27.2059 M1285.58 9.54393 L1293.04 9.54393 L1293.04 18.9825 L1285.58 18.9825 L1285.58 9.54393 Z" fill="#000000" fill-rule="nonzero" fill-opacity="1" /><path clip-path="url(#clip630)" d="M1347.44 48.0275 L1347.44 51.6733 L1313.17 51.6733 Q1313.66 59.3701 1317.79 63.421 Q1321.96 67.4314 1329.38 67.4314 Q1333.67 67.4314 1337.68 66.3781 Q1341.73 65.3249 1345.7 63.2184 L1345.7 70.267 Q1341.69 71.9684 1337.48 72.8596 Q1333.26 73.7508 1328.93 73.7508 Q1318.07 73.7508 1311.71 67.4314 Q1305.39 61.1119 1305.39 50.3365 Q1305.39 39.1965 1311.39 32.6746 Q1317.42 26.1121 1327.63 26.1121 Q1336.79 26.1121 1342.09 32.0264 Q1347.44 37.9003 1347.44 48.0275 M1339.99 45.84 Q1339.91 39.7232 1336.55 36.0774 Q1333.22 32.4315 1327.71 32.4315 Q1321.48 32.4315 1317.71 35.9558 Q1313.98 39.4801 1313.41 45.8805 L1339.99 45.84 Z" fill="#000000" fill-rule="nonzero" fill-opacity="1" /><path clip-path="url(#clip630)" d="M1388.6 28.5427 L1388.6 35.5912 Q1385.44 33.9709 1382.04 33.1607 Q1378.63 32.3505 1374.99 32.3505 Q1369.44 32.3505 1366.64 34.0519 Q1363.89 35.7533 1363.89 39.156 Q1363.89 41.7486 1365.87 43.2475 Q1367.86 44.7058 1373.85 46.0426 L1376.41 46.6097 Q1384.35 48.3111 1387.67 51.4303 Q1391.03 54.509 1391.03 60.0587 Q1391.03 66.3781 1386.01 70.0644 Q1381.02 73.7508 1372.27 73.7508 Q1368.63 73.7508 1364.66 73.0216 Q1360.73 72.3329 1356.35 70.9151 L1356.35 63.2184 Q1360.49 65.3654 1364.5 66.4591 Q1368.51 67.5124 1372.44 67.5124 Q1377.7 67.5124 1380.54 65.73 Q1383.37 63.9071 1383.37 60.6258 Q1383.37 57.5877 1381.31 55.9673 Q1379.28 54.3469 1372.36 52.8481 L1369.76 52.2405 Q1362.84 50.7821 1359.76 47.7845 Q1356.68 44.7463 1356.68 39.4801 Q1356.68 33.0797 1361.22 29.5959 Q1365.75 26.1121 1374.1 26.1121 Q1378.23 26.1121 1381.87 26.7198 Q1385.52 27.3274 1388.6 28.5427 Z" fill="#000000" fill-rule="nonzero" fill-opacity="1" /><path clip-path="url(#clip630)" d="M1461.92 28.9478 L1461.92 35.9153 Q1458.76 34.1734 1455.56 33.3227 Q1452.4 32.4315 1449.16 32.4315 Q1441.91 32.4315 1437.9 37.0496 Q1433.89 41.6271 1433.89 49.9314 Q1433.89 58.2358 1437.9 62.8538 Q1441.91 67.4314 1449.16 67.4314 Q1452.4 67.4314 1455.56 66.5807 Q1458.76 65.6895 1461.92 63.9476 L1461.92 70.8341 Q1458.8 72.2924 1455.44 73.0216 Q1452.12 73.7508 1448.35 73.7508 Q1438.1 73.7508 1432.07 67.3098 Q1426.03 60.8689 1426.03 49.9314 Q1426.03 38.832 1432.11 32.472 Q1438.22 26.1121 1448.84 26.1121 Q1452.28 26.1121 1455.56 26.8413 Q1458.84 27.5299 1461.92 28.9478 Z" fill="#000000" fill-rule="nonzero" fill-opacity="1" /><path clip-path="url(#clip630)" d="M1513.69 48.0275 L1513.69 51.6733 L1479.42 51.6733 Q1479.91 59.3701 1484.04 63.421 Q1488.21 67.4314 1495.62 67.4314 Q1499.92 67.4314 1503.93 66.3781 Q1507.98 65.3249 1511.95 63.2184 L1511.95 70.267 Q1507.94 71.9684 1503.73 72.8596 Q1499.51 73.7508 1495.18 73.7508 Q1484.32 73.7508 1477.96 67.4314 Q1471.64 61.1119 1471.64 50.3365 Q1471.64 39.1965 1477.64 32.6746 Q1483.67 26.1121 1493.88 26.1121 Q1503.04 26.1121 1508.34 32.0264 Q1513.69 37.9003 1513.69 48.0275 M1506.24 45.84 Q1506.16 39.7232 1502.79 36.0774 Q1499.47 32.4315 1493.96 32.4315 Q1487.72 32.4315 1483.96 35.9558 Q1480.23 39.4801 1479.66 45.8805 L1506.24 45.84 Z" fill="#000000" fill-rule="nonzero" fill-opacity="1" /><path clip-path="url(#clip630)" d="M1525.92 9.54393 L1533.38 9.54393 L1533.38 72.576 L1525.92 72.576 L1525.92 9.54393 Z" fill="#000000" fill-rule="nonzero" fill-opacity="1" /><path clip-path="url(#clip630)" d="M1548.97 9.54393 L1556.43 9.54393 L1556.43 72.576 L1548.97 72.576 L1548.97 9.54393 Z" fill="#000000" fill-rule="nonzero" fill-opacity="1" /><path clip-path="url(#clip630)" d="M1600.87 65.6895 L1614.23 65.6895 L1614.23 19.5497 L1599.69 22.4663 L1599.69 15.0127 L1614.15 12.096 L1622.34 12.096 L1622.34 65.6895 L1635.7 65.6895 L1635.7 72.576 L1600.87 72.576 L1600.87 65.6895 Z" fill="#000000" fill-rule="nonzero" fill-opacity="1" /><path clip-path="url(#clip630)" d="M1669.73 17.4837 Q1663.41 17.4837 1660.21 23.7221 Q1657.05 29.92 1657.05 42.3968 Q1657.05 54.833 1660.21 61.0714 Q1663.41 67.2693 1669.73 67.2693 Q1676.09 67.2693 1679.25 61.0714 Q1682.45 54.833 1682.45 42.3968 Q1682.45 29.92 1679.25 23.7221 Q1676.09 17.4837 1669.73 17.4837 M1669.73 11.0023 Q1679.9 11.0023 1685.25 19.0636 Q1690.63 27.0843 1690.63 42.3968 Q1690.63 57.6687 1685.25 65.73 Q1679.9 73.7508 1669.73 73.7508 Q1659.56 73.7508 1654.18 65.73 Q1648.83 57.6687 1648.83 42.3968 Q1648.83 27.0843 1654.18 19.0636 Q1659.56 11.0023 1669.73 11.0023 Z" fill="#000000" fill-rule="nonzero" fill-opacity="1" /><path clip-path="url(#clip630)" d="M1712.06 65.6895 L1740.62 65.6895 L1740.62 72.576 L1702.22 72.576 L1702.22 65.6895 Q1706.88 60.8689 1714.9 52.7671 Q1722.96 44.6248 1725.03 42.2752 Q1728.96 37.8598 1730.5 34.8216 Q1732.08 31.7429 1732.08 28.7857 Q1732.08 23.9651 1728.67 20.927 Q1725.31 17.8888 1719.88 17.8888 Q1716.03 17.8888 1711.74 19.2256 Q1707.49 20.5624 1702.63 23.2765 L1702.63 15.0127 Q1707.57 13.0277 1711.86 12.015 Q1716.16 11.0023 1719.72 11.0023 Q1729.12 11.0023 1734.71 15.7013 Q1740.3 20.4004 1740.3 28.2591 Q1740.3 31.9859 1738.88 35.3482 Q1737.5 38.6699 1733.82 43.2069 Q1732.8 44.3817 1727.38 50.0125 Q1721.95 55.6027 1712.06 65.6895 Z" fill="#000000" fill-rule="nonzero" fill-opacity="1" /><path clip-path="url(#clip630)" d="M1783.12 27.2059 L1790.57 27.2059 L1790.57 72.576 L1783.12 72.576 L1783.12 27.2059 M1783.12 9.54393 L1790.57 9.54393 L1790.57 18.9825 L1783.12 18.9825 L1783.12 9.54393 Z" fill="#000000" fill-rule="nonzero" fill-opacity="1" /><path clip-path="url(#clip630)" d="M1813.54 14.324 L1813.54 27.2059 L1828.89 27.2059 L1828.89 32.9987 L1813.54 32.9987 L1813.54 57.6282 Q1813.54 63.1779 1815.04 64.7578 Q1816.58 66.3376 1821.24 66.3376 L1828.89 66.3376 L1828.89 72.576 L1821.24 72.576 Q1812.61 72.576 1809.33 69.3758 Q1806.04 66.1351 1806.04 57.6282 L1806.04 32.9987 L1800.58 32.9987 L1800.58 27.2059 L1806.04 27.2059 L1806.04 14.324 L1813.54 14.324 Z" fill="#000000" fill-rule="nonzero" fill-opacity="1" /><path clip-path="url(#clip630)" d="M1877.5 48.0275 L1877.5 51.6733 L1843.23 51.6733 Q1843.72 59.3701 1847.85 63.421 Q1852.02 67.4314 1859.44 67.4314 Q1863.73 67.4314 1867.74 66.3781 Q1871.79 65.3249 1875.76 63.2184 L1875.76 70.267 Q1871.75 71.9684 1867.54 72.8596 Q1863.32 73.7508 1858.99 73.7508 Q1848.13 73.7508 1841.77 67.4314 Q1835.45 61.1119 1835.45 50.3365 Q1835.45 39.1965 1841.45 32.6746 Q1847.49 26.1121 1857.69 26.1121 Q1866.85 26.1121 1872.16 32.0264 Q1877.5 37.9003 1877.5 48.0275 M1870.05 45.84 Q1869.97 39.7232 1866.61 36.0774 Q1863.28 32.4315 1857.78 32.4315 Q1851.54 32.4315 1847.77 35.9558 Q1844.04 39.4801 1843.48 45.8805 L1870.05 45.84 Z" fill="#000000" fill-rule="nonzero" fill-opacity="1" /><path clip-path="url(#clip630)" d="M1916.03 34.1734 Q1914.77 33.4443 1913.27 33.1202 Q1911.81 32.7556 1910.03 32.7556 Q1903.71 32.7556 1900.31 36.8875 Q1896.95 40.9789 1896.95 48.6757 L1896.95 72.576 L1889.45 72.576 L1889.45 27.2059 L1896.95 27.2059 L1896.95 34.2544 Q1899.3 30.1225 1903.06 28.1376 Q1906.83 26.1121 1912.22 26.1121 Q1912.99 26.1121 1913.92 26.2337 Q1914.85 26.3147 1915.99 26.5172 L1916.03 34.1734 Z" fill="#000000" fill-rule="nonzero" fill-opacity="1" /><path clip-path="url(#clip630)" d="M1944.46 49.7694 Q1935.43 49.7694 1931.95 51.8354 Q1928.46 53.9013 1928.46 58.8839 Q1928.46 62.8538 1931.06 65.2034 Q1933.69 67.5124 1938.19 67.5124 Q1944.38 67.5124 1948.11 63.1374 Q1951.88 58.7219 1951.88 51.4303 L1951.88 49.7694 L1944.46 49.7694 M1959.33 46.6907 L1959.33 72.576 L1951.88 72.576 L1951.88 65.6895 Q1949.33 69.8214 1945.52 71.8063 Q1941.71 73.7508 1936.2 73.7508 Q1929.23 73.7508 1925.1 69.8619 Q1921.01 65.9325 1921.01 59.3701 Q1921.01 51.7138 1926.11 47.825 Q1931.26 43.9361 1941.43 43.9361 L1951.88 43.9361 L1951.88 43.2069 Q1951.88 38.0623 1948.47 35.2672 Q1945.11 32.4315 1939 32.4315 Q1935.11 32.4315 1931.42 33.3632 Q1927.73 34.295 1924.33 36.1584 L1924.33 29.2718 Q1928.42 27.692 1932.27 26.9223 Q1936.12 26.1121 1939.77 26.1121 Q1949.61 26.1121 1954.47 31.2163 Q1959.33 36.3204 1959.33 46.6907 Z" fill="#000000" fill-rule="nonzero" fill-opacity="1" /><path clip-path="url(#clip630)" d="M1982.06 14.324 L1982.06 27.2059 L1997.41 27.2059 L1997.41 32.9987 L1982.06 32.9987 L1982.06 57.6282 Q1982.06 63.1779 1983.56 64.7578 Q1985.09 66.3376 1989.75 66.3376 L1997.41 66.3376 L1997.41 72.576 L1989.75 72.576 Q1981.13 72.576 1977.84 69.3758 Q1974.56 66.1351 1974.56 57.6282 L1974.56 32.9987 L1969.09 32.9987 L1969.09 27.2059 L1974.56 27.2059 L1974.56 14.324 L1982.06 14.324 Z" fill="#000000" fill-rule="nonzero" fill-opacity="1" /><path clip-path="url(#clip630)" d="M2007.21 27.2059 L2014.67 27.2059 L2014.67 72.576 L2007.21 72.576 L2007.21 27.2059 M2007.21 9.54393 L2014.67 9.54393 L2014.67 18.9825 L2007.21 18.9825 L2007.21 9.54393 Z" fill="#000000" fill-rule="nonzero" fill-opacity="1" /><path clip-path="url(#clip630)" d="M2047.84 32.4315 Q2041.85 32.4315 2038.36 37.1306 Q2034.88 41.7891 2034.88 49.9314 Q2034.88 58.0738 2038.32 62.7728 Q2041.81 67.4314 2047.84 67.4314 Q2053.8 67.4314 2057.28 62.7323 Q2060.77 58.0333 2060.77 49.9314 Q2060.77 41.8701 2057.28 37.1711 Q2053.8 32.4315 2047.84 32.4315 M2047.84 26.1121 Q2057.57 26.1121 2063.12 32.4315 Q2068.67 38.7509 2068.67 49.9314 Q2068.67 61.0714 2063.12 67.4314 Q2057.57 73.7508 2047.84 73.7508 Q2038.08 73.7508 2032.53 67.4314 Q2027.02 61.0714 2027.02 49.9314 Q2027.02 38.7509 2032.53 32.4315 Q2038.08 26.1121 2047.84 26.1121 Z" fill="#000000" fill-rule="nonzero" fill-opacity="1" /><path clip-path="url(#clip630)" d="M2118.73 45.1919 L2118.73 72.576 L2111.28 72.576 L2111.28 45.4349 Q2111.28 38.994 2108.77 35.7938 Q2106.26 32.5936 2101.23 32.5936 Q2095.2 32.5936 2091.71 36.4419 Q2088.23 40.2903 2088.23 46.9338 L2088.23 72.576 L2080.74 72.576 L2080.74 27.2059 L2088.23 27.2059 L2088.23 34.2544 Q2090.9 30.163 2094.51 28.1376 Q2098.16 26.1121 2102.9 26.1121 Q2110.71 26.1121 2114.72 30.9732 Q2118.73 35.7938 2118.73 45.1919 Z" fill="#000000" fill-rule="nonzero" fill-opacity="1" /><path clip-path="url(#clip630)" d="M2162.44 65.6895 L2175.81 65.6895 L2175.81 19.5497 L2161.27 22.4663 L2161.27 15.0127 L2175.73 12.096 L2183.91 12.096 L2183.91 65.6895 L2197.28 65.6895 L2197.28 72.576 L2162.44 72.576 L2162.44 65.6895 Z" fill="#000000" fill-rule="nonzero" fill-opacity="1" /><path clip-path="url(#clip630)" d="M2231.31 17.4837 Q2224.99 17.4837 2221.79 23.7221 Q2218.63 29.92 2218.63 42.3968 Q2218.63 54.833 2221.79 61.0714 Q2224.99 67.2693 2231.31 67.2693 Q2237.67 67.2693 2240.83 61.0714 Q2244.03 54.833 2244.03 42.3968 Q2244.03 29.92 2240.83 23.7221 Q2237.67 17.4837 2231.31 17.4837 M2231.31 11.0023 Q2241.48 11.0023 2246.82 19.0636 Q2252.21 27.0843 2252.21 42.3968 Q2252.21 57.6687 2246.82 65.73 Q2241.48 73.7508 2231.31 73.7508 Q2221.14 73.7508 2215.75 65.73 Q2210.41 57.6687 2210.41 42.3968 Q2210.41 27.0843 2215.75 19.0636 Q2221.14 11.0023 2231.31 11.0023 Z" fill="#000000" fill-rule="nonzero" fill-opacity="1" /><polyline clip-path="url(#clip632)" style="stroke:#009af9; stroke-linecap:round; stroke-linejoin:round; stroke-width:4; stroke-opacity:1; fill:none" points="315.545,1386.4 317.525,1386.32 319.505,1386.3 321.484,1386.29 323.464,1386.27 325.444,1386.22 327.424,1386.21 329.404,1386.21 331.384,1386.2 333.364,1386.16 335.343,1386.15 337.323,1386.15 339.303,1386.15 341.283,1386.13 343.263,1386.13 345.243,1386.12 347.223,1386.12 349.202,1386.11 351.182,1386.11 353.162,1386.1 355.142,1386.09 357.122,1386.09 359.102,1386.07 361.082,1386.07 363.061,1386.07 365.041,1386.07 367.021,1386.05 369.001,1386.05 370.981,1386.05 372.961,1386.04 374.941,1386.03 376.92,1386.02 378.9,1386.02 380.88,1386.02 382.86,1386 384.84,1386 386.82,1385.99 388.8,1385.99 390.779,1385.98 392.759,1385.97 394.739,1385.97 396.719,1385.97 398.699,1385.97 400.679,1385.97 402.659,1385.97 404.638,1385.96 406.618,1385.96 408.598,1385.96 410.578,1385.95 412.558,1385.95 414.538,1385.95 416.517,1385.95 418.497,1385.95 420.477,1385.95 422.457,1385.94 424.437,1385.94 426.417,1385.94 428.397,1385.94 430.376,1385.93 432.356,1385.93 434.336,1385.91 436.316,1385.91 438.296,1385.91 440.276,1385.91 442.256,1385.9 444.235,1385.9 446.215,1385.9 448.195,1385.9 450.175,1385.89 452.155,1385.89 454.135,1385.89 456.115,1385.89 458.094,1385.88 460.074,1385.88 462.054,1385.86 464.034,1385.85 466.014,1385.84 467.994,1385.84 469.974,1385.84 471.953,1385.83 473.933,1385.83 475.913,1385.83 477.893,1385.82 479.873,1385.82 481.853,1385.81 483.833,1385.81 485.812,1385.8 487.792,1385.8 489.772,1385.8 491.752,1385.79 493.732,1385.77 495.712,1385.77 497.692,1385.77 499.671,1385.77 501.651,1385.76 503.631,1385.75 505.611,1385.74 507.591,1385.73 509.571,1385.73 511.551,1385.73 513.53,1385.71 515.51,1385.71 517.49,1385.71 519.47,1385.7 521.45,1385.7 523.43,1385.69 525.409,1385.67 527.389,1385.67 529.369,1385.66 531.349,1385.65 533.329,1385.65 535.309,1385.64 537.289,1385.63 539.268,1385.62 541.248,1385.6 543.228,1385.59 545.208,1385.59 547.188,1385.59 549.168,1385.57 551.148,1385.56 553.127,1385.55 555.107,1385.55 557.087,1385.54 559.067,1385.52 561.047,1385.5 563.027,1385.46 565.007,1385.46 566.986,1385.45 568.966,1385.44 570.946,1385.43 572.926,1385.4 574.906,1385.4 576.886,1385.4 578.866,1385.37 580.845,1385.36 582.825,1385.31 584.805,1385.3 586.785,1385.28 588.765,1385.27 590.745,1385.23 592.725,1385.22 594.704,1385.21 596.684,1385.19 598.664,1385.14 600.644,1385.09 602.624,1385.07 604.604,1385.03 606.584,1385.03 608.563,1384.98 610.543,1384.96 612.523,1384.92 614.503,1384.85 616.483,1384.81 618.463,1384.8 620.443,1384.79 622.422,1384.79 624.402,1384.77 626.382,1384.74 628.362,1384.71 630.342,1384.66 632.322,1384.65 634.301,1384.65 636.281,1384.6 638.261,1384.54 640.241,1384.44 642.221,1384.39 644.201,1384.31 646.181,1384.27 648.16,1384.23 650.14,1384.21 652.12,1384.15 654.1,1384.14 656.08,1384.13 658.06,1384.1 660.04,1384.1 662.019,1384.04 663.999,1383.96 665.979,1383.82 667.959,1383.73 669.939,1383.64 671.919,1383.55 673.899,1383.48 675.878,1383.47 677.858,1383.47 679.838,1383.43 681.818,1383.15 683.798,1383.12 685.778,1383.08 687.758,1383.03 689.737,1382.68 691.717,1382.31 693.697,1382.27 695.677,1382.13 697.657,1381.86 699.637,1381.73 701.617,1381.59 703.596,1381.21 705.576,1380.65 707.556,1380.04 709.536,1379.93 711.516,1379.92 713.496,1379.87 715.476,1379.73 717.455,1379.54 719.435,1379.26 721.415,1379.22 723.395,1379.15 725.375,1378.64 727.355,1378.55 729.335,1378.34 731.314,1377.75 733.294,1377.42 735.274,1377.35 737.254,1376.89 739.234,1376.63 741.214,1375.73 743.194,1375.31 745.173,1375.1 747.153,1372.14 749.133,1372.01 751.113,1370.54 753.093,1370.26 755.073,1369.98 757.052,1369.2 759.032,1368.09 761.012,1367.45 762.992,1366.43 764.972,1365.98 766.952,1363.17 768.932,1361.81 770.911,1361.71 772.891,1360.73 774.871,1359.03 776.851,1357.54 778.831,1355.15 780.811,1351.62 782.791,1349.65 784.77,1347.51 786.75,1345.28 788.73,1344.13 790.71,1340.85 792.69,1336.23 794.67,1335.56 796.65,1334.16 798.629,1324.71 800.609,1316.24 802.589,1311.22 804.569,1304.09 806.549,1276.94 808.529,1244.58 810.509,1091.76 812.488,1090.31 814.468,1089.35 816.448,1083.97 818.428,1081.53 820.408,1078.48 822.388,1075.35 824.368,1071.79 826.347,1071.17 828.327,1068.47 830.307,1066.31 832.287,1065.11 834.267,1064.68 836.247,1062.97 838.227,1062.97 840.206,1062.56 842.186,1062.21 844.166,1061.81 846.146,1061.06 848.126,1060.05 850.106,1060.04 852.086,1059.85 854.065,1059.82 856.045,1059.68 858.025,1059.65 860.005,1059.65 861.985,1059.24 863.965,1059.02 865.944,1058.99 867.924,1058.85 869.904,1058.77 871.884,1058.77 873.864,1058.67 875.844,1058.55 877.824,1058.54 879.803,1058.49 881.783,1058.41 883.763,1057.95 885.743,1057.9 887.723,1057.89 889.703,1057.85 891.683,1057.84 893.662,1057.8 895.642,1057.69 897.622,1057.69 899.602,1057.67 901.582,1057.64 903.562,1057.62 905.542,1057.62 907.521,1057.56 909.501,1057.46 911.481,1057.43 913.461,1057.42 915.441,1057.38 917.421,1057.36 919.401,1057.36 921.38,1057.36 923.36,1057.35 925.34,1057.35 927.32,1057.32 929.3,1057.3 931.28,1057.29 933.26,1057.29 935.239,1057.29 937.219,1057.26 939.199,1057.26 941.179,1057.25 943.159,1057.23 945.139,1057.23 947.119,1057.23 949.098,1057.22 951.078,1057.22 953.058,1057.21 955.038,1057.21 957.018,1057.19 958.998,1057.17 960.978,1057.17 962.957,1057.15 964.937,1057.14 966.917,1057.14 968.897,1057.14 970.877,1057.13 972.857,1057.11 974.836,1057.09 976.816,1057.08 978.796,1057.07 980.776,1057.07 982.756,1057.07 984.736,1057.04 986.716,1057.02 988.695,1057.01 990.675,1057.01 992.655,1056.96 994.635,1056.86 996.615,1056.85 998.595,1056.84 1000.57,1056.83 1002.55,1056.77 1004.53,1056.73 1006.51,1056.71 1008.49,1056.7 1010.47,1056.66 1012.45,1056.6 1014.43,1056.54 1016.41,1056.47 1018.39,1056.39 1020.37,1056.31 1022.35,1056.26 1024.33,1056.23 1026.31,1056.2 1028.29,1056.15 1030.27,1056.03 1032.25,1056.03 1034.23,1055.97 1036.21,1055.94 1038.19,1055.8 1040.17,1055.74 1042.15,1055.55 1044.13,1055.54 1046.11,1055.49 1048.09,1055.49 1050.07,1055.26 1052.05,1054.82 1054.03,1054.77 1056.01,1054.76 1057.99,1054.48 1059.97,1054.41 1061.95,1054.02 1063.93,1053.88 1065.91,1053.73 1067.89,1053.62 1069.87,1053.52 1071.85,1053.41 1073.83,1053.27 1075.81,1053.15 1077.79,1053.11 1079.77,1053.09 1081.75,1053.07 1083.73,1053 1085.71,1052.98 1087.69,1052.6 1089.67,1052.59 1091.65,1052.41 1093.63,1052.26 1095.61,1052.11 1097.59,1052.06 1099.57,1051.99 1101.55,1051.88 1103.53,1051.74 1105.51,1051.74 1107.49,1051.71 1109.47,1051.65 1111.45,1051.32 1113.43,1051.3 1115.41,1050.95 1117.39,1050.73 1119.37,1050.43 1121.35,1050.19 1123.33,1050.07 1125.31,1050.02 1127.29,1049.9 1129.27,1049.76 1131.25,1049.63 1133.22,1049.54 1135.2,1049.16 1137.18,1049.12 1139.16,1048.79 1141.14,1048.77 1143.12,1048.76 1145.1,1048.63 1147.08,1048.59 1149.06,1048.51 1151.04,1048.49 1153.02,1048.37 1155,1048.35 1156.98,1048.22 1158.96,1048.15 1160.94,1048 1162.92,1047.89 1164.9,1047.8 1166.88,1047.67 1168.86,1047.64 1170.84,1047.61 1172.82,1047.51 1174.8,1047.39 1176.78,1047.37 1178.76,1047.34 1180.74,1047.21 1182.72,1047.12 1184.7,1047 1186.68,1046.81 1188.66,1046.71 1190.64,1046.55 1192.62,1046.5 1194.6,1046.33 1196.58,1046.33 1198.56,1046.3 1200.54,1046.24 1202.52,1046.24 1204.5,1046.09 1206.48,1046.01 1208.46,1045.34 1210.44,1045.21 1212.42,1045.03 1214.4,1044.99 1216.38,1044.73 1218.36,1044.7 1220.34,1044.7 1222.32,1044.47 1224.3,1044.31 1226.28,1044.17 1228.26,1044.08 1230.24,1043.93 1232.22,1043.87 1234.2,1043.79 1236.18,1043.75 1238.16,1043.57 1240.14,1043.49 1242.12,1043.4 1244.1,1043.3 1246.08,1043.06 1248.06,1043.03 1250.04,1042.98 1252.02,1042.98 1254,1042.97 1255.98,1042.96 1257.96,1042.89 1259.94,1042.8 1261.92,1042.75 1263.9,1042.49 1265.88,1042.46 1267.85,1042.32 1269.83,1042.24 1271.81,1042.21 1273.79,1042.01 1275.77,1041.96 1277.75,1041.52 1279.73,1041.46 1281.71,1041.43 1283.69,1041.39 1285.67,1041.29 1287.65,1041.25 1289.63,1041.19 1291.61,1041.02 1293.59,1040.92 1295.57,1040.91 1297.55,1040.69 1299.53,1040.66 1301.51,1040.56 1303.49,1040.51 1305.47,980.122 1307.45,939.311 1309.43,938.01 1311.41,937.89 1313.39,937.756 1315.37,937.531 1317.35,937.498 1319.33,937.476 1321.31,937.461 1323.29,937.461 1325.27,937.456 1327.25,937.442 1329.23,937.438 1331.21,937.436 1333.19,937.434 1335.17,937.429 1337.15,937.422 1339.13,937.42 1341.11,937.413 1343.09,937.403 1345.07,937.402 1347.05,937.401 1349.03,937.399 1351.01,937.398 1352.99,937.39 1354.97,937.385 1356.95,937.384 1358.93,937.373 1360.91,937.359 1362.89,937.356 1364.87,937.354 1366.85,937.353 1368.83,937.351 1370.81,937.347 1372.79,937.345 1374.77,937.33 1376.75,937.33 1378.73,937.321 1380.71,937.32 1382.69,937.315 1384.67,937.313 1386.65,937.304 1388.63,937.3 1390.61,937.297 1392.59,937.294 1394.57,937.293 1396.55,937.293 1398.53,937.292 1400.51,937.292 1402.49,937.289 1404.46,937.284 1406.44,937.284 1408.42,937.282 1410.4,937.282 1412.38,937.281 1414.36,937.28 1416.34,937.278 1418.32,937.277 1420.3,937.277 1422.28,937.276 1424.26,937.275 1426.24,937.275 1428.22,937.275 1430.2,937.275 1432.18,937.275 1434.16,937.275 1436.14,937.274 1438.12,937.274 1440.1,937.274 1442.08,937.274 1444.06,937.274 1446.04,937.274 1448.02,937.274 1450,937.274 1451.98,937.273 1453.96,937.273 1455.94,937.273 1457.92,937.273 1459.9,937.273 1461.88,937.273 1463.86,937.273 1465.84,937.273 1467.82,937.273 1469.8,937.273 1471.78,937.273 1473.76,937.272 1475.74,937.272 1477.72,937.272 1479.7,937.272 1481.68,937.272 1483.66,937.272 1485.64,937.272 1487.62,937.272 1489.6,937.272 1491.58,937.272 1493.56,937.271 1495.54,937.27 1497.52,937.27 1499.5,937.27 1501.48,937.27 1503.46,937.27 1505.44,937.27 1507.42,937.27 1509.4,937.27 1511.38,937.269 1513.36,937.269 1515.34,937.269 1517.32,937.268 1519.3,937.267 1521.28,937.267 1523.26,937.266 1525.24,937.266 1527.22,937.266 1529.2,937.266 1531.18,937.265 1533.16,937.265 1535.14,937.265 1537.12,937.265 1539.1,937.265 1541.07,937.264 1543.05,937.264 1545.03,937.263 1547.01,937.263 1548.99,937.262 1550.97,937.262 1552.95,937.261 1554.93,937.261 1556.91,937.26 1558.89,937.26 1560.87,937.258 1562.85,937.257 1564.83,937.255 1566.81,937.255 1568.79,937.254 1570.77,937.253 1572.75,937.252 1574.73,937.252 1576.71,937.249 1578.69,937.249 1580.67,937.249 1582.65,937.247 1584.63,937.245 1586.61,937.245 1588.59,937.244 1590.57,937.244 1592.55,937.244 1594.53,937.243 1596.51,937.243 1598.49,937.243 1600.47,937.242 1602.45,937.242 1604.43,937.237 1606.41,937.236 1608.39,937.234 1610.37,937.234 1612.35,937.234 1614.33,937.232 1616.31,937.232 1618.29,937.232 1620.27,937.231 1622.25,937.229 1624.23,937.226 1626.21,937.224 1628.19,937.222 1630.17,937.221 1632.15,937.22 1634.13,937.218 1636.11,937.218 1638.09,937.217 1640.07,937.217 1642.05,937.212 1644.03,937.211 1646.01,937.209 1647.99,937.208 1649.97,937.208 1651.95,937.207 1653.93,937.205 1655.91,937.204 1657.89,937.204 1659.87,937.203 1661.85,937.203 1663.83,937.202 1665.81,937.201 1667.79,937.192 1669.77,937.191 1671.75,937.191 1673.73,937.188 1675.71,937.187 1677.68,937.187 1679.66,937.187 1681.64,937.186 1683.62,937.179 1685.6,937.172 1687.58,937.172 1689.56,937.168 1691.54,937.167 1693.52,937.166 1695.5,937.166 1697.48,937.165 1699.46,937.164 1701.44,937.163 1703.42,937.163 1705.4,937.163 1707.38,937.162 1709.36,937.159 1711.34,937.158 1713.32,937.157 1715.3,937.155 1717.28,937.154 1719.26,937.154 1721.24,937.154 1723.22,937.153 1725.2,937.152 1727.18,937.152 1729.16,937.152 1731.14,937.151 1733.12,937.15 1735.1,937.149 1737.08,937.149 1739.06,937.148 1741.04,937.147 1743.02,937.146 1745,937.145 1746.98,937.145 1748.96,937.143 1750.94,937.142 1752.92,937.142 1754.9,937.141 1756.88,937.14 1758.86,937.139 1760.84,937.139 1762.82,937.139 1764.8,937.138 1766.78,937.138 1768.76,937.134 1770.74,937.133 1772.72,937.132 1774.7,937.131 1776.68,937.128 1778.66,937.127 1780.64,937.126 1782.62,937.126 1784.6,937.124 1786.58,937.124 1788.56,937.124 1790.54,937.12 1792.52,937.118 1794.5,937.118 1796.48,937.117 1798.46,937.115 1800.44,174.4 1802.42,172.503 1804.4,171.502 1806.38,171.057 1808.36,171.027 1810.34,171.027 1812.31,171.008 1814.29,170.982 1816.27,170.959 1818.25,170.958 1820.23,170.956 1822.21,170.949 1824.19,170.948 1826.17,170.946 1828.15,170.935 1830.13,170.929 1832.11,170.916 1834.09,170.914 1836.07,170.905 1838.05,170.902 1840.03,170.892 1842.01,170.891 1843.99,170.89 1845.97,170.873 1847.95,170.865 1849.93,170.86 1851.91,170.857 1853.89,170.856 1855.87,170.854 1857.85,170.833 1859.83,170.833 1861.81,170.829 1863.79,170.828 1865.77,170.828 1867.75,170.827 1869.73,170.823 1871.71,170.816 1873.69,170.815 1875.67,170.815 1877.65,170.809 1879.63,170.808 1881.61,170.807 1883.59,170.805 1885.57,170.801 1887.55,170.8 1889.53,170.799 1891.51,170.796 1893.49,170.793 1895.47,170.791 1897.45,170.777 1899.43,170.777 1901.41,170.776 1903.39,170.775 1905.37,170.756 1907.35,170.755 1909.33,170.754 1911.31,170.75 1913.29,170.721 1915.27,170.709 1917.25,170.706 1919.23,170.702 1921.21,170.7 1923.19,170.69 1925.17,170.688 1927.15,170.686 1929.13,170.678 1931.11,170.671 1933.09,170.663 1935.07,170.649 1937.05,170.647 1939.03,170.615 1941.01,170.566 1942.99,170.565 1944.97,170.548 1946.95,170.528 1948.92,170.474 1950.9,170.389 1952.88,170.348 1954.86,170.333 1956.84,170.32 1958.82,170.254 1960.8,170.229 1962.78,170.175 1964.76,170.159 1966.74,170.135 1968.72,170.085 1970.7,170.03 1972.68,169.966 1974.66,169.933 1976.64,169.91 1978.62,169.892 1980.6,169.84 1982.58,169.76 1984.56,169.75 1986.54,169.715 1988.52,169.715 1990.5,169.71 1992.48,169.581 1994.46,169.517 1996.44,169.514 1998.42,169.489 2000.4,169.463 2002.38,169.447 2004.36,169.338 2006.34,169.232 2008.32,169.156 2010.3,169.016 2012.28,169.016 2014.26,168.997 2016.24,168.829 2018.22,168.718 2020.2,168.709 2022.18,168.619 2024.16,168.612 2026.14,168.549 2028.12,168.535 2030.1,168.505 2032.08,168.488 2034.06,168.478 2036.04,168.477 2038.02,168.447 2040,168.394 2041.98,168.393 2043.96,168.376 2045.94,168.266 2047.92,168.086 2049.9,168.064 2051.88,167.992 2053.86,167.952 2055.84,167.943 2057.82,167.877 2059.8,167.844 2061.78,167.797 2063.76,167.737 2065.74,167.727 2067.72,167.635 2069.7,167.59 2071.68,167.478 2073.66,167.413 2075.64,167.389 2077.62,167.388 2079.6,167.373 2081.58,167.246 2083.56,167.233 2085.53,167.116 2087.51,166.943 2089.49,166.764 2091.47,166.659 2093.45,166.641 2095.43,166.526 2097.41,166.458 2099.39,166.433 2101.37,166.418 2103.35,166.331 2105.33,166.278 2107.31,166.086 2109.29,166.077 2111.27,165.789 2113.25,165.773 2115.23,165.773 2117.21,165.693 2119.19,165.633 2121.17,165.586 2123.15,165.58 2125.13,165.432 2127.11,165.387 2129.09,165.384 2131.07,165.383 2133.05,165.359 2135.03,165.352 2137.01,165.315 2138.99,165.312 2140.97,165.281 2142.95,165.232 2144.93,165.225 2146.91,165.187 2148.89,165.172 2150.87,165.127 2152.85,165.097 2154.83,165.073 2156.81,165.024 2158.79,164.996 2160.77,164.984 2162.75,164.966 2164.73,164.962 2166.71,164.958 2168.69,164.956 2170.67,164.828 2172.65,164.737 2174.63,164.667 2176.61,164.648 2178.59,164.633 2180.57,164.556 2182.55,164.546 2184.53,164.52 2186.51,164.465 2188.49,164.413 2190.47,164.409 2192.45,164.324 2194.43,164.29 2196.41,164.282 2198.39,164.249 2200.37,164.221 2202.35,164.156 2204.33,164.099 2206.31,164.073 2208.29,163.905 2210.27,163.86 2212.25,163.842 2214.23,163.839 2216.21,163.731 2218.19,163.729 2220.17,163.636 2222.14,163.613 2224.12,163.586 2226.1,163.446 2228.08,163.432 2230.06,163.411 2232.04,163.344 2234.02,163.295 2236,163.291 2237.98,163.286 2239.96,163.254 2241.94,163.249 2243.92,163.222 2245.9,163.221 2247.88,163.214 2249.86,163.163 2251.84,163.027 2253.82,163.005 2255.8,163.002 2257.78,162.99 2259.76,162.985 2261.74,162.862 2263.72,162.861 2265.7,162.849 2267.68,162.844 2269.66,162.814 2271.64,162.809 2273.62,162.714 2275.6,162.54 2277.58,162.511 2279.56,162.372 2281.54,162.342 2283.52,162.336 2285.5,161.986 2287.48,161.848 2289.46,161.574 2291.44,161.323 2293.42,160.256 "/>
<path clip-path="url(#clip630)" d="M326.094 270.476 L755.354 270.476 L755.354 166.796 L326.094 166.796  Z" fill="#ffffff" fill-rule="evenodd" fill-opacity="1"/>
<polyline clip-path="url(#clip630)" style="stroke:#000000; stroke-linecap:round; stroke-linejoin:round; stroke-width:4; stroke-opacity:1; fill:none" points="326.094,270.476 755.354,270.476 755.354,166.796 326.094,166.796 326.094,270.476 "/>
<polyline clip-path="url(#clip630)" style="stroke:#009af9; stroke-linecap:round; stroke-linejoin:round; stroke-width:4; stroke-opacity:1; fill:none" points="349.389,218.636 489.158,218.636 "/>
<path clip-path="url(#clip630)" d="M534.699 202.49 L534.699 207.05 Q532.037 205.777 529.675 205.152 Q527.314 204.527 525.115 204.527 Q521.296 204.527 519.213 206.008 Q517.152 207.49 517.152 210.221 Q517.152 212.513 518.518 213.694 Q519.907 214.851 523.75 215.569 L526.574 216.147 Q531.805 217.143 534.282 219.666 Q536.782 222.166 536.782 226.379 Q536.782 231.402 533.402 233.994 Q530.046 236.587 523.541 236.587 Q521.088 236.587 518.31 236.031 Q515.555 235.476 512.592 234.388 L512.592 229.573 Q515.439 231.17 518.171 231.981 Q520.902 232.791 523.541 232.791 Q527.546 232.791 529.722 231.217 Q531.898 229.643 531.898 226.726 Q531.898 224.18 530.324 222.744 Q528.773 221.309 525.208 220.592 L522.361 220.036 Q517.129 218.995 514.791 216.772 Q512.453 214.55 512.453 210.592 Q512.453 206.008 515.671 203.37 Q518.912 200.731 524.583 200.731 Q527.013 200.731 529.537 201.171 Q532.06 201.61 534.699 202.49 Z" fill="#000000" fill-rule="nonzero" fill-opacity="1" /><path clip-path="url(#clip630)" d="M543.888 209.99 L548.148 209.99 L548.148 235.916 L543.888 235.916 L543.888 209.99 M543.888 199.897 L548.148 199.897 L548.148 205.291 L543.888 205.291 L543.888 199.897 Z" fill="#000000" fill-rule="nonzero" fill-opacity="1" /><path clip-path="url(#clip630)" d="M577.245 214.967 Q578.842 212.096 581.064 210.731 Q583.286 209.365 586.296 209.365 Q590.346 209.365 592.545 212.212 Q594.745 215.036 594.745 220.268 L594.745 235.916 L590.462 235.916 L590.462 220.407 Q590.462 216.68 589.143 214.874 Q587.823 213.069 585.115 213.069 Q581.805 213.069 579.884 215.268 Q577.962 217.467 577.962 221.263 L577.962 235.916 L573.68 235.916 L573.68 220.407 Q573.68 216.657 572.36 214.874 Q571.041 213.069 568.286 213.069 Q565.022 213.069 563.101 215.291 Q561.18 217.49 561.18 221.263 L561.18 235.916 L556.898 235.916 L556.898 209.99 L561.18 209.99 L561.18 214.018 Q562.638 211.633 564.675 210.499 Q566.712 209.365 569.513 209.365 Q572.337 209.365 574.305 210.8 Q576.296 212.235 577.245 214.967 Z" fill="#000000" fill-rule="nonzero" fill-opacity="1" /><path clip-path="url(#clip630)" d="M603.24 209.99 L607.499 209.99 L607.499 235.916 L603.24 235.916 L603.24 209.99 M603.24 199.897 L607.499 199.897 L607.499 205.291 L603.24 205.291 L603.24 199.897 Z" fill="#000000" fill-rule="nonzero" fill-opacity="1" /><path clip-path="url(#clip630)" d="M616.411 199.897 L620.67 199.897 L620.67 235.916 L616.411 235.916 L616.411 199.897 Z" fill="#000000" fill-rule="nonzero" fill-opacity="1" /><path clip-path="url(#clip630)" d="M641.365 222.883 Q636.203 222.883 634.212 224.064 Q632.221 225.244 632.221 228.092 Q632.221 230.36 633.703 231.703 Q635.207 233.022 637.777 233.022 Q641.318 233.022 643.448 230.522 Q645.601 227.999 645.601 223.832 L645.601 222.883 L641.365 222.883 M649.86 221.124 L649.86 235.916 L645.601 235.916 L645.601 231.981 Q644.142 234.342 641.967 235.476 Q639.791 236.587 636.642 236.587 Q632.661 236.587 630.3 234.365 Q627.962 232.119 627.962 228.369 Q627.962 223.994 630.879 221.772 Q633.818 219.55 639.629 219.55 L645.601 219.55 L645.601 219.133 Q645.601 216.194 643.656 214.596 Q641.735 212.976 638.24 212.976 Q636.017 212.976 633.911 213.508 Q631.805 214.041 629.86 215.106 L629.86 211.17 Q632.198 210.268 634.397 209.828 Q636.596 209.365 638.68 209.365 Q644.304 209.365 647.082 212.282 Q649.86 215.198 649.86 221.124 Z" fill="#000000" fill-rule="nonzero" fill-opacity="1" /><path clip-path="url(#clip630)" d="M673.656 213.971 Q672.939 213.555 672.082 213.37 Q671.249 213.161 670.23 213.161 Q666.619 213.161 664.675 215.522 Q662.753 217.86 662.753 222.258 L662.753 235.916 L658.471 235.916 L658.471 209.99 L662.753 209.99 L662.753 214.018 Q664.096 211.657 666.249 210.522 Q668.402 209.365 671.48 209.365 Q671.92 209.365 672.452 209.434 Q672.985 209.481 673.633 209.596 L673.656 213.971 Z" fill="#000000" fill-rule="nonzero" fill-opacity="1" /><path clip-path="url(#clip630)" d="M678.124 209.99 L682.383 209.99 L682.383 235.916 L678.124 235.916 L678.124 209.99 M678.124 199.897 L682.383 199.897 L682.383 205.291 L678.124 205.291 L678.124 199.897 Z" fill="#000000" fill-rule="nonzero" fill-opacity="1" /><path clip-path="url(#clip630)" d="M695.508 202.629 L695.508 209.99 L704.281 209.99 L704.281 213.3 L695.508 213.3 L695.508 227.374 Q695.508 230.545 696.364 231.448 Q697.244 232.351 699.906 232.351 L704.281 232.351 L704.281 235.916 L699.906 235.916 Q694.975 235.916 693.101 234.087 Q691.226 232.235 691.226 227.374 L691.226 213.3 L688.101 213.3 L688.101 209.99 L691.226 209.99 L691.226 202.629 L695.508 202.629 Z" fill="#000000" fill-rule="nonzero" fill-opacity="1" /><path clip-path="url(#clip630)" d="M720.67 238.323 Q718.864 242.953 717.151 244.365 Q715.438 245.777 712.568 245.777 L709.165 245.777 L709.165 242.212 L711.665 242.212 Q713.424 242.212 714.397 241.379 Q715.369 240.545 716.549 237.443 L717.313 235.499 L706.827 209.99 L711.341 209.99 L719.443 230.268 L727.545 209.99 L732.059 209.99 L720.67 238.323 Z" fill="#000000" fill-rule="nonzero" fill-opacity="1" /></svg>
