<?xml version="1.0" encoding="utf-8"?>
<svg xmlns="http://www.w3.org/2000/svg" xmlns:xlink="http://www.w3.org/1999/xlink" width="600" height="400" viewBox="0 0 2400 1600">
<defs>
  <clipPath id="clip680">
    <rect x="0" y="0" width="2400" height="1600"/>
  </clipPath>
</defs>
<path clip-path="url(#clip680)" d="M0 1600 L2400 1600 L2400 8.88178e-14 L0 8.88178e-14  Z" fill="#ffffff" fill-rule="evenodd" fill-opacity="1"/>
<defs>
  <clipPath id="clip681">
    <rect x="480" y="0" width="1681" height="1600"/>
  </clipPath>
</defs>
<path clip-path="url(#clip680)" d="M257.366 1423.18 L2352.76 1423.18 L2352.76 123.472 L257.366 123.472  Z" fill="#ffffff" fill-rule="evenodd" fill-opacity="1"/>
<defs>
  <clipPath id="clip682">
    <rect x="257" y="123" width="2096" height="1301"/>
  </clipPath>
</defs>
<polyline clip-path="url(#clip682)" style="stroke:#000000; stroke-linecap:round; stroke-linejoin:round; stroke-width:2; stroke-opacity:0.1; fill:none" points="314.691,1423.18 314.691,123.472 "/>
<polyline clip-path="url(#clip682)" style="stroke:#000000; stroke-linecap:round; stroke-linejoin:round; stroke-width:2; stroke-opacity:0.1; fill:none" points="809.381,1423.18 809.381,123.472 "/>
<polyline clip-path="url(#clip682)" style="stroke:#000000; stroke-linecap:round; stroke-linejoin:round; stroke-width:2; stroke-opacity:0.1; fill:none" points="1304.07,1423.18 1304.07,123.472 "/>
<polyline clip-path="url(#clip682)" style="stroke:#000000; stroke-linecap:round; stroke-linejoin:round; stroke-width:2; stroke-opacity:0.1; fill:none" points="1798.76,1423.18 1798.76,123.472 "/>
<polyline clip-path="url(#clip682)" style="stroke:#000000; stroke-linecap:round; stroke-linejoin:round; stroke-width:2; stroke-opacity:0.1; fill:none" points="2293.45,1423.18 2293.45,123.472 "/>
<polyline clip-path="url(#clip680)" style="stroke:#000000; stroke-linecap:round; stroke-linejoin:round; stroke-width:4; stroke-opacity:1; fill:none" points="257.366,1423.18 2352.76,1423.18 "/>
<polyline clip-path="url(#clip680)" style="stroke:#000000; stroke-linecap:round; stroke-linejoin:round; stroke-width:4; stroke-opacity:1; fill:none" points="314.691,1423.18 314.691,1404.28 "/>
<polyline clip-path="url(#clip680)" style="stroke:#000000; stroke-linecap:round; stroke-linejoin:round; stroke-width:4; stroke-opacity:1; fill:none" points="809.381,1423.18 809.381,1404.28 "/>
<polyline clip-path="url(#clip680)" style="stroke:#000000; stroke-linecap:round; stroke-linejoin:round; stroke-width:4; stroke-opacity:1; fill:none" points="1304.07,1423.18 1304.07,1404.28 "/>
<polyline clip-path="url(#clip680)" style="stroke:#000000; stroke-linecap:round; stroke-linejoin:round; stroke-width:4; stroke-opacity:1; fill:none" points="1798.76,1423.18 1798.76,1404.28 "/>
<polyline clip-path="url(#clip680)" style="stroke:#000000; stroke-linecap:round; stroke-linejoin:round; stroke-width:4; stroke-opacity:1; fill:none" points="2293.45,1423.18 2293.45,1404.28 "/>
<path clip-path="url(#clip680)" d="M314.691 1454.1 Q311.08 1454.1 309.251 1457.66 Q307.445 1461.2 307.445 1468.33 Q307.445 1475.44 309.251 1479.01 Q311.08 1482.55 314.691 1482.55 Q318.325 1482.55 320.131 1479.01 Q321.959 1475.44 321.959 1468.33 Q321.959 1461.2 320.131 1457.66 Q318.325 1454.1 314.691 1454.1 M314.691 1450.39 Q320.501 1450.39 323.556 1455 Q326.635 1459.58 326.635 1468.33 Q326.635 1477.06 323.556 1481.67 Q320.501 1486.25 314.691 1486.25 Q308.881 1486.25 305.802 1481.67 Q302.746 1477.06 302.746 1468.33 Q302.746 1459.58 305.802 1455 Q308.881 1450.39 314.691 1450.39 Z" fill="#000000" fill-rule="nonzero" fill-opacity="1" /><path clip-path="url(#clip680)" d="M773.074 1481.64 L789.393 1481.64 L789.393 1485.58 L767.449 1485.58 L767.449 1481.64 Q770.111 1478.89 774.694 1474.26 Q779.3 1469.61 780.481 1468.27 Q782.726 1465.74 783.606 1464.01 Q784.509 1462.25 784.509 1460.56 Q784.509 1457.8 782.564 1456.07 Q780.643 1454.33 777.541 1454.33 Q775.342 1454.33 772.888 1455.09 Q770.458 1455.86 767.68 1457.41 L767.68 1452.69 Q770.504 1451.55 772.958 1450.97 Q775.411 1450.39 777.448 1450.39 Q782.819 1450.39 786.013 1453.08 Q789.208 1455.77 789.208 1460.26 Q789.208 1462.39 788.398 1464.31 Q787.61 1466.2 785.504 1468.8 Q784.925 1469.47 781.823 1472.69 Q778.722 1475.88 773.074 1481.64 Z" fill="#000000" fill-rule="nonzero" fill-opacity="1" /><path clip-path="url(#clip680)" d="M799.254 1451.02 L817.61 1451.02 L817.61 1454.96 L803.536 1454.96 L803.536 1463.43 Q804.555 1463.08 805.573 1462.92 Q806.592 1462.73 807.61 1462.73 Q813.397 1462.73 816.777 1465.9 Q820.157 1469.08 820.157 1474.49 Q820.157 1480.07 816.684 1483.17 Q813.212 1486.25 806.893 1486.25 Q804.717 1486.25 802.448 1485.88 Q800.203 1485.51 797.796 1484.77 L797.796 1480.07 Q799.879 1481.2 802.101 1481.76 Q804.323 1482.32 806.8 1482.32 Q810.805 1482.32 813.143 1480.21 Q815.481 1478.1 815.481 1474.49 Q815.481 1470.88 813.143 1468.77 Q810.805 1466.67 806.8 1466.67 Q804.925 1466.67 803.05 1467.08 Q801.198 1467.5 799.254 1468.38 L799.254 1451.02 Z" fill="#000000" fill-rule="nonzero" fill-opacity="1" /><path clip-path="url(#clip680)" d="M839.369 1454.1 Q835.758 1454.1 833.93 1457.66 Q832.124 1461.2 832.124 1468.33 Q832.124 1475.44 833.93 1479.01 Q835.758 1482.55 839.369 1482.55 Q843.004 1482.55 844.809 1479.01 Q846.638 1475.44 846.638 1468.33 Q846.638 1461.2 844.809 1457.66 Q843.004 1454.1 839.369 1454.1 M839.369 1450.39 Q845.18 1450.39 848.235 1455 Q851.314 1459.58 851.314 1468.33 Q851.314 1477.06 848.235 1481.67 Q845.18 1486.25 839.369 1486.25 Q833.559 1486.25 830.481 1481.67 Q827.425 1477.06 827.425 1468.33 Q827.425 1459.58 830.481 1455 Q833.559 1450.39 839.369 1450.39 Z" fill="#000000" fill-rule="nonzero" fill-opacity="1" /><path clip-path="url(#clip680)" d="M1263.69 1451.02 L1282.05 1451.02 L1282.05 1454.96 L1267.97 1454.96 L1267.97 1463.43 Q1268.99 1463.08 1270.01 1462.92 Q1271.03 1462.73 1272.05 1462.73 Q1277.83 1462.73 1281.21 1465.9 Q1284.59 1469.08 1284.59 1474.49 Q1284.59 1480.07 1281.12 1483.17 Q1277.65 1486.25 1271.33 1486.25 Q1269.15 1486.25 1266.88 1485.88 Q1264.64 1485.51 1262.23 1484.77 L1262.23 1480.07 Q1264.31 1481.2 1266.54 1481.76 Q1268.76 1482.32 1271.24 1482.32 Q1275.24 1482.32 1277.58 1480.21 Q1279.92 1478.1 1279.92 1474.49 Q1279.92 1470.88 1277.58 1468.77 Q1275.24 1466.67 1271.24 1466.67 Q1269.36 1466.67 1267.49 1467.08 Q1265.63 1467.5 1263.69 1468.38 L1263.69 1451.02 Z" fill="#000000" fill-rule="nonzero" fill-opacity="1" /><path clip-path="url(#clip680)" d="M1303.81 1454.1 Q1300.19 1454.1 1298.37 1457.66 Q1296.56 1461.2 1296.56 1468.33 Q1296.56 1475.44 1298.37 1479.01 Q1300.19 1482.55 1303.81 1482.55 Q1307.44 1482.55 1309.25 1479.01 Q1311.07 1475.44 1311.07 1468.33 Q1311.07 1461.2 1309.25 1457.66 Q1307.44 1454.1 1303.81 1454.1 M1303.81 1450.39 Q1309.62 1450.39 1312.67 1455 Q1315.75 1459.58 1315.75 1468.33 Q1315.75 1477.06 1312.67 1481.67 Q1309.62 1486.25 1303.81 1486.25 Q1298 1486.25 1294.92 1481.67 Q1291.86 1477.06 1291.86 1468.33 Q1291.86 1459.58 1294.92 1455 Q1298 1450.39 1303.81 1450.39 Z" fill="#000000" fill-rule="nonzero" fill-opacity="1" /><path clip-path="url(#clip680)" d="M1333.97 1454.1 Q1330.36 1454.1 1328.53 1457.66 Q1326.72 1461.2 1326.72 1468.33 Q1326.72 1475.44 1328.53 1479.01 Q1330.36 1482.55 1333.97 1482.55 Q1337.6 1482.55 1339.41 1479.01 Q1341.24 1475.44 1341.24 1468.33 Q1341.24 1461.2 1339.41 1457.66 Q1337.6 1454.1 1333.97 1454.1 M1333.97 1450.39 Q1339.78 1450.39 1342.83 1455 Q1345.91 1459.58 1345.91 1468.33 Q1345.91 1477.06 1342.83 1481.67 Q1339.78 1486.25 1333.97 1486.25 Q1328.16 1486.25 1325.08 1481.67 Q1322.02 1477.06 1322.02 1468.33 Q1322.02 1459.58 1325.08 1455 Q1328.16 1450.39 1333.97 1450.39 Z" fill="#000000" fill-rule="nonzero" fill-opacity="1" /><path clip-path="url(#clip680)" d="M1757.04 1451.02 L1779.26 1451.02 L1779.26 1453.01 L1766.71 1485.58 L1761.83 1485.58 L1773.63 1454.96 L1757.04 1454.96 L1757.04 1451.02 Z" fill="#000000" fill-rule="nonzero" fill-opacity="1" /><path clip-path="url(#clip680)" d="M1788.43 1451.02 L1806.78 1451.02 L1806.78 1454.96 L1792.71 1454.96 L1792.71 1463.43 Q1793.73 1463.08 1794.75 1462.92 Q1795.76 1462.73 1796.78 1462.73 Q1802.57 1462.73 1805.95 1465.9 Q1809.33 1469.08 1809.33 1474.49 Q1809.33 1480.07 1805.86 1483.17 Q1802.38 1486.25 1796.07 1486.25 Q1793.89 1486.25 1791.62 1485.88 Q1789.38 1485.51 1786.97 1484.77 L1786.97 1480.07 Q1789.05 1481.2 1791.27 1481.76 Q1793.5 1482.32 1795.97 1482.32 Q1799.98 1482.32 1802.32 1480.21 Q1804.65 1478.1 1804.65 1474.49 Q1804.65 1470.88 1802.32 1468.77 Q1799.98 1466.67 1795.97 1466.67 Q1794.1 1466.67 1792.22 1467.08 Q1790.37 1467.5 1788.43 1468.38 L1788.43 1451.02 Z" fill="#000000" fill-rule="nonzero" fill-opacity="1" /><path clip-path="url(#clip680)" d="M1828.54 1454.1 Q1824.93 1454.1 1823.1 1457.66 Q1821.3 1461.2 1821.3 1468.33 Q1821.3 1475.44 1823.1 1479.01 Q1824.93 1482.55 1828.54 1482.55 Q1832.18 1482.55 1833.98 1479.01 Q1835.81 1475.44 1835.81 1468.33 Q1835.81 1461.2 1833.98 1457.66 Q1832.18 1454.1 1828.54 1454.1 M1828.54 1450.39 Q1834.35 1450.39 1837.41 1455 Q1840.49 1459.58 1840.49 1468.33 Q1840.49 1477.06 1837.41 1481.67 Q1834.35 1486.25 1828.54 1486.25 Q1822.73 1486.25 1819.65 1481.67 Q1816.6 1477.06 1816.6 1468.33 Q1816.6 1459.58 1819.65 1455 Q1822.73 1450.39 1828.54 1450.39 Z" fill="#000000" fill-rule="nonzero" fill-opacity="1" /><path clip-path="url(#clip680)" d="M2237.98 1481.64 L2245.62 1481.64 L2245.62 1455.28 L2237.31 1456.95 L2237.31 1452.69 L2245.57 1451.02 L2250.25 1451.02 L2250.25 1481.64 L2257.89 1481.64 L2257.89 1485.58 L2237.98 1485.58 L2237.98 1481.64 Z" fill="#000000" fill-rule="nonzero" fill-opacity="1" /><path clip-path="url(#clip680)" d="M2277.33 1454.1 Q2273.72 1454.1 2271.89 1457.66 Q2270.08 1461.2 2270.08 1468.33 Q2270.08 1475.44 2271.89 1479.01 Q2273.72 1482.55 2277.33 1482.55 Q2280.96 1482.55 2282.77 1479.01 Q2284.6 1475.44 2284.6 1468.33 Q2284.6 1461.2 2282.77 1457.66 Q2280.96 1454.1 2277.33 1454.1 M2277.33 1450.39 Q2283.14 1450.39 2286.2 1455 Q2289.27 1459.58 2289.27 1468.33 Q2289.27 1477.06 2286.2 1481.67 Q2283.14 1486.25 2277.33 1486.25 Q2271.52 1486.25 2268.44 1481.67 Q2265.39 1477.06 2265.39 1468.33 Q2265.39 1459.58 2268.44 1455 Q2271.52 1450.39 2277.33 1450.39 Z" fill="#000000" fill-rule="nonzero" fill-opacity="1" /><path clip-path="url(#clip680)" d="M2307.49 1454.1 Q2303.88 1454.1 2302.05 1457.66 Q2300.25 1461.2 2300.25 1468.33 Q2300.25 1475.44 2302.05 1479.01 Q2303.88 1482.55 2307.49 1482.55 Q2311.13 1482.55 2312.93 1479.01 Q2314.76 1475.44 2314.76 1468.33 Q2314.76 1461.2 2312.93 1457.66 Q2311.13 1454.1 2307.49 1454.1 M2307.49 1450.39 Q2313.3 1450.39 2316.36 1455 Q2319.44 1459.58 2319.44 1468.33 Q2319.44 1477.06 2316.36 1481.67 Q2313.3 1486.25 2307.49 1486.25 Q2301.68 1486.25 2298.6 1481.67 Q2295.55 1477.06 2295.55 1468.33 Q2295.55 1459.58 2298.6 1455 Q2301.68 1450.39 2307.49 1450.39 Z" fill="#000000" fill-rule="nonzero" fill-opacity="1" /><path clip-path="url(#clip680)" d="M2337.65 1454.1 Q2334.04 1454.1 2332.21 1457.66 Q2330.41 1461.2 2330.41 1468.33 Q2330.41 1475.44 2332.21 1479.01 Q2334.04 1482.55 2337.65 1482.55 Q2341.29 1482.55 2343.09 1479.01 Q2344.92 1475.44 2344.92 1468.33 Q2344.92 1461.2 2343.09 1457.66 Q2341.29 1454.1 2337.65 1454.1 M2337.65 1450.39 Q2343.46 1450.39 2346.52 1455 Q2349.6 1459.58 2349.6 1468.33 Q2349.6 1477.06 2346.52 1481.67 Q2343.46 1486.25 2337.65 1486.25 Q2331.84 1486.25 2328.76 1481.67 Q2325.71 1477.06 2325.71 1468.33 Q2325.71 1459.58 2328.76 1455 Q2331.84 1450.39 2337.65 1450.39 Z" fill="#000000" fill-rule="nonzero" fill-opacity="1" /><path clip-path="url(#clip680)" d="M1268.9 1524.18 L1268.9 1530.96 Q1265.66 1527.94 1261.97 1526.44 Q1258.3 1524.95 1254.17 1524.95 Q1246.02 1524.95 1241.69 1529.95 Q1237.36 1534.91 1237.36 1544.33 Q1237.36 1553.72 1241.69 1558.72 Q1246.02 1563.68 1254.17 1563.68 Q1258.3 1563.68 1261.97 1562.19 Q1265.66 1560.69 1268.9 1557.67 L1268.9 1564.38 Q1265.53 1566.68 1261.74 1567.82 Q1257.99 1568.97 1253.79 1568.97 Q1243 1568.97 1236.79 1562.38 Q1230.58 1555.76 1230.58 1544.33 Q1230.58 1532.87 1236.79 1526.28 Q1243 1519.66 1253.79 1519.66 Q1258.05 1519.66 1261.81 1520.81 Q1265.59 1521.92 1268.9 1524.18 Z" fill="#000000" fill-rule="nonzero" fill-opacity="1" /><path clip-path="url(#clip680)" d="M1309.07 1548.76 L1309.07 1551.62 L1282.14 1551.62 Q1282.53 1557.67 1285.77 1560.85 Q1289.05 1564 1294.88 1564 Q1298.25 1564 1301.4 1563.17 Q1304.58 1562.35 1307.7 1560.69 L1307.7 1566.23 Q1304.55 1567.57 1301.24 1568.27 Q1297.93 1568.97 1294.53 1568.97 Q1286 1568.97 1281 1564 Q1276.03 1559.04 1276.03 1550.57 Q1276.03 1541.82 1280.74 1536.69 Q1285.49 1531.54 1293.51 1531.54 Q1300.7 1531.54 1304.87 1536.18 Q1309.07 1540.8 1309.07 1548.76 M1303.21 1547.04 Q1303.15 1542.23 1300.51 1539.37 Q1297.9 1536.5 1293.57 1536.5 Q1288.67 1536.5 1285.71 1539.27 Q1282.78 1542.04 1282.34 1547.07 L1303.21 1547.04 Z" fill="#000000" fill-rule="nonzero" fill-opacity="1" /><path clip-path="url(#clip680)" d="M1318.68 1518.52 L1324.54 1518.52 L1324.54 1568.04 L1318.68 1568.04 L1318.68 1518.52 Z" fill="#000000" fill-rule="nonzero" fill-opacity="1" /><path clip-path="url(#clip680)" d="M1336.79 1518.52 L1342.65 1518.52 L1342.65 1568.04 L1336.79 1568.04 L1336.79 1518.52 Z" fill="#000000" fill-rule="nonzero" fill-opacity="1" /><path clip-path="url(#clip680)" d="M1377.63 1533.45 L1377.63 1538.98 Q1375.15 1537.71 1372.47 1537.07 Q1369.8 1536.44 1366.94 1536.44 Q1362.58 1536.44 1360.38 1537.77 Q1358.21 1539.11 1358.21 1541.79 Q1358.21 1543.82 1359.77 1545 Q1361.33 1546.15 1366.04 1547.2 L1368.05 1547.64 Q1374.29 1548.98 1376.9 1551.43 Q1379.54 1553.85 1379.54 1558.21 Q1379.54 1563.17 1375.59 1566.07 Q1371.68 1568.97 1364.8 1568.97 Q1361.94 1568.97 1358.82 1568.39 Q1355.73 1567.85 1352.29 1566.74 L1352.29 1560.69 Q1355.54 1562.38 1358.69 1563.24 Q1361.84 1564.07 1364.93 1564.07 Q1369.07 1564.07 1371.3 1562.66 Q1373.52 1561.23 1373.52 1558.65 Q1373.52 1556.27 1371.9 1554.99 Q1370.31 1553.72 1364.87 1552.54 L1362.83 1552.07 Q1357.39 1550.92 1354.97 1548.56 Q1352.55 1546.18 1352.55 1542.04 Q1352.55 1537.01 1356.11 1534.27 Q1359.68 1531.54 1366.24 1531.54 Q1369.48 1531.54 1372.35 1532.01 Q1375.21 1532.49 1377.63 1533.45 Z" fill="#000000" fill-rule="nonzero" fill-opacity="1" /><polyline clip-path="url(#clip682)" style="stroke:#000000; stroke-linecap:round; stroke-linejoin:round; stroke-width:2; stroke-opacity:0.1; fill:none" points="257.366,1309.56 2352.76,1309.56 "/>
<polyline clip-path="url(#clip682)" style="stroke:#000000; stroke-linecap:round; stroke-linejoin:round; stroke-width:2; stroke-opacity:0.1; fill:none" points="257.366,1066.49 2352.76,1066.49 "/>
<polyline clip-path="url(#clip682)" style="stroke:#000000; stroke-linecap:round; stroke-linejoin:round; stroke-width:2; stroke-opacity:0.1; fill:none" points="257.366,823.428 2352.76,823.428 "/>
<polyline clip-path="url(#clip682)" style="stroke:#000000; stroke-linecap:round; stroke-linejoin:round; stroke-width:2; stroke-opacity:0.1; fill:none" points="257.366,580.362 2352.76,580.362 "/>
<polyline clip-path="url(#clip682)" style="stroke:#000000; stroke-linecap:round; stroke-linejoin:round; stroke-width:2; stroke-opacity:0.1; fill:none" points="257.366,337.296 2352.76,337.296 "/>
<polyline clip-path="url(#clip680)" style="stroke:#000000; stroke-linecap:round; stroke-linejoin:round; stroke-width:4; stroke-opacity:1; fill:none" points="257.366,1423.18 257.366,123.472 "/>
<polyline clip-path="url(#clip680)" style="stroke:#000000; stroke-linecap:round; stroke-linejoin:round; stroke-width:4; stroke-opacity:1; fill:none" points="257.366,1309.56 276.264,1309.56 "/>
<polyline clip-path="url(#clip680)" style="stroke:#000000; stroke-linecap:round; stroke-linejoin:round; stroke-width:4; stroke-opacity:1; fill:none" points="257.366,1066.49 276.264,1066.49 "/>
<polyline clip-path="url(#clip680)" style="stroke:#000000; stroke-linecap:round; stroke-linejoin:round; stroke-width:4; stroke-opacity:1; fill:none" points="257.366,823.428 276.264,823.428 "/>
<polyline clip-path="url(#clip680)" style="stroke:#000000; stroke-linecap:round; stroke-linejoin:round; stroke-width:4; stroke-opacity:1; fill:none" points="257.366,580.362 276.264,580.362 "/>
<polyline clip-path="url(#clip680)" style="stroke:#000000; stroke-linecap:round; stroke-linejoin:round; stroke-width:4; stroke-opacity:1; fill:none" points="257.366,337.296 276.264,337.296 "/>
<path clip-path="url(#clip680)" d="M114.26 1310.01 L143.936 1310.01 L143.936 1313.95 L114.26 1313.95 L114.26 1310.01 Z" fill="#000000" fill-rule="nonzero" fill-opacity="1" /><path clip-path="url(#clip680)" d="M164.028 1295.36 Q160.417 1295.36 158.589 1298.92 Q156.783 1302.46 156.783 1309.59 Q156.783 1316.7 158.589 1320.27 Q160.417 1323.81 164.028 1323.81 Q167.663 1323.81 169.468 1320.27 Q171.297 1316.7 171.297 1309.59 Q171.297 1302.46 169.468 1298.92 Q167.663 1295.36 164.028 1295.36 M164.028 1291.65 Q169.839 1291.65 172.894 1296.26 Q175.973 1300.84 175.973 1309.59 Q175.973 1318.32 172.894 1322.93 Q169.839 1327.51 164.028 1327.51 Q158.218 1327.51 155.14 1322.93 Q152.084 1318.32 152.084 1309.59 Q152.084 1300.84 155.14 1296.26 Q158.218 1291.65 164.028 1291.65 Z" fill="#000000" fill-rule="nonzero" fill-opacity="1" /><path clip-path="url(#clip680)" d="M184.19 1320.96 L189.075 1320.96 L189.075 1326.84 L184.19 1326.84 L184.19 1320.96 Z" fill="#000000" fill-rule="nonzero" fill-opacity="1" /><path clip-path="url(#clip680)" d="M209.838 1307.7 Q206.69 1307.7 204.838 1309.85 Q203.01 1312 203.01 1315.75 Q203.01 1319.48 204.838 1321.65 Q206.69 1323.81 209.838 1323.81 Q212.986 1323.81 214.815 1321.65 Q216.667 1319.48 216.667 1315.75 Q216.667 1312 214.815 1309.85 Q212.986 1307.7 209.838 1307.7 M219.121 1293.04 L219.121 1297.3 Q217.361 1296.47 215.556 1296.03 Q213.774 1295.59 212.014 1295.59 Q207.385 1295.59 204.931 1298.71 Q202.5 1301.84 202.153 1308.16 Q203.519 1306.14 205.579 1305.08 Q207.639 1303.99 210.116 1303.99 Q215.324 1303.99 218.334 1307.16 Q221.366 1310.31 221.366 1315.75 Q221.366 1321.08 218.218 1324.29 Q215.07 1327.51 209.838 1327.51 Q203.843 1327.51 200.672 1322.93 Q197.5 1318.32 197.5 1309.59 Q197.5 1301.4 201.389 1296.54 Q205.278 1291.65 211.829 1291.65 Q213.588 1291.65 215.371 1292 Q217.176 1292.35 219.121 1293.04 Z" fill="#000000" fill-rule="nonzero" fill-opacity="1" /><path clip-path="url(#clip680)" d="M115.07 1066.94 L144.746 1066.94 L144.746 1070.88 L115.07 1070.88 L115.07 1066.94 Z" fill="#000000" fill-rule="nonzero" fill-opacity="1" /><path clip-path="url(#clip680)" d="M164.839 1052.29 Q161.227 1052.29 159.399 1055.86 Q157.593 1059.4 157.593 1066.53 Q157.593 1073.63 159.399 1077.2 Q161.227 1080.74 164.839 1080.74 Q168.473 1080.74 170.278 1077.2 Q172.107 1073.63 172.107 1066.53 Q172.107 1059.4 170.278 1055.86 Q168.473 1052.29 164.839 1052.29 M164.839 1048.59 Q170.649 1048.59 173.704 1053.19 Q176.783 1057.78 176.783 1066.53 Q176.783 1075.25 173.704 1079.86 Q170.649 1084.44 164.839 1084.44 Q159.028 1084.44 155.95 1079.86 Q152.894 1075.25 152.894 1066.53 Q152.894 1057.78 155.95 1053.19 Q159.028 1048.59 164.839 1048.59 Z" fill="#000000" fill-rule="nonzero" fill-opacity="1" /><path clip-path="url(#clip680)" d="M185.001 1077.89 L189.885 1077.89 L189.885 1083.77 L185.001 1083.77 L185.001 1077.89 Z" fill="#000000" fill-rule="nonzero" fill-opacity="1" /><path clip-path="url(#clip680)" d="M214.236 1065.14 Q217.593 1065.86 219.468 1068.13 Q221.366 1070.39 221.366 1073.73 Q221.366 1078.84 217.848 1081.64 Q214.329 1084.44 207.848 1084.44 Q205.672 1084.44 203.357 1084 Q201.065 1083.59 198.612 1082.73 L198.612 1078.22 Q200.556 1079.35 202.871 1079.93 Q205.186 1080.51 207.709 1080.51 Q212.107 1080.51 214.399 1078.77 Q216.713 1077.04 216.713 1073.73 Q216.713 1070.67 214.561 1068.96 Q212.431 1067.22 208.612 1067.22 L204.584 1067.22 L204.584 1063.38 L208.797 1063.38 Q212.246 1063.38 214.074 1062.01 Q215.903 1060.63 215.903 1058.03 Q215.903 1055.37 214.005 1053.96 Q212.13 1052.52 208.612 1052.52 Q206.69 1052.52 204.491 1052.94 Q202.292 1053.36 199.653 1054.24 L199.653 1050.07 Q202.315 1049.33 204.63 1048.96 Q206.968 1048.59 209.028 1048.59 Q214.352 1048.59 217.454 1051.02 Q220.556 1053.43 220.556 1057.55 Q220.556 1060.42 218.912 1062.41 Q217.269 1064.38 214.236 1065.14 Z" fill="#000000" fill-rule="nonzero" fill-opacity="1" /><path clip-path="url(#clip680)" d="M164.19 809.226 Q160.579 809.226 158.751 812.791 Q156.945 816.333 156.945 823.462 Q156.945 830.569 158.751 834.134 Q160.579 837.675 164.19 837.675 Q167.825 837.675 169.63 834.134 Q171.459 830.569 171.459 823.462 Q171.459 816.333 169.63 812.791 Q167.825 809.226 164.19 809.226 M164.19 805.523 Q170.001 805.523 173.056 810.129 Q176.135 814.712 176.135 823.462 Q176.135 832.189 173.056 836.796 Q170.001 841.379 164.19 841.379 Q158.38 841.379 155.302 836.796 Q152.246 832.189 152.246 823.462 Q152.246 814.712 155.302 810.129 Q158.38 805.523 164.19 805.523 Z" fill="#000000" fill-rule="nonzero" fill-opacity="1" /><path clip-path="url(#clip680)" d="M184.352 834.828 L189.237 834.828 L189.237 840.708 L184.352 840.708 L184.352 834.828 Z" fill="#000000" fill-rule="nonzero" fill-opacity="1" /><path clip-path="url(#clip680)" d="M209.422 809.226 Q205.811 809.226 203.982 812.791 Q202.176 816.333 202.176 823.462 Q202.176 830.569 203.982 834.134 Q205.811 837.675 209.422 837.675 Q213.056 837.675 214.861 834.134 Q216.69 830.569 216.69 823.462 Q216.69 816.333 214.861 812.791 Q213.056 809.226 209.422 809.226 M209.422 805.523 Q215.232 805.523 218.287 810.129 Q221.366 814.712 221.366 823.462 Q221.366 832.189 218.287 836.796 Q215.232 841.379 209.422 841.379 Q203.612 841.379 200.533 836.796 Q197.477 832.189 197.477 823.462 Q197.477 814.712 200.533 810.129 Q203.612 805.523 209.422 805.523 Z" fill="#000000" fill-rule="nonzero" fill-opacity="1" /><path clip-path="url(#clip680)" d="M164.839 566.16 Q161.227 566.16 159.399 569.725 Q157.593 573.267 157.593 580.396 Q157.593 587.503 159.399 591.068 Q161.227 594.609 164.839 594.609 Q168.473 594.609 170.278 591.068 Q172.107 587.503 172.107 580.396 Q172.107 573.267 170.278 569.725 Q168.473 566.16 164.839 566.16 M164.839 562.457 Q170.649 562.457 173.704 567.063 Q176.783 571.647 176.783 580.396 Q176.783 589.123 173.704 593.73 Q170.649 598.313 164.839 598.313 Q159.028 598.313 155.95 593.73 Q152.894 589.123 152.894 580.396 Q152.894 571.647 155.95 567.063 Q159.028 562.457 164.839 562.457 Z" fill="#000000" fill-rule="nonzero" fill-opacity="1" /><path clip-path="url(#clip680)" d="M185.001 591.762 L189.885 591.762 L189.885 597.642 L185.001 597.642 L185.001 591.762 Z" fill="#000000" fill-rule="nonzero" fill-opacity="1" /><path clip-path="url(#clip680)" d="M214.236 579.008 Q217.593 579.725 219.468 581.994 Q221.366 584.262 221.366 587.596 Q221.366 592.711 217.848 595.512 Q214.329 598.313 207.848 598.313 Q205.672 598.313 203.357 597.873 Q201.065 597.457 198.612 596.6 L198.612 592.086 Q200.556 593.22 202.871 593.799 Q205.186 594.378 207.709 594.378 Q212.107 594.378 214.399 592.642 Q216.713 590.906 216.713 587.596 Q216.713 584.54 214.561 582.827 Q212.431 581.091 208.612 581.091 L204.584 581.091 L204.584 577.248 L208.797 577.248 Q212.246 577.248 214.074 575.883 Q215.903 574.494 215.903 571.901 Q215.903 569.239 214.005 567.827 Q212.13 566.392 208.612 566.392 Q206.69 566.392 204.491 566.809 Q202.292 567.225 199.653 568.105 L199.653 563.938 Q202.315 563.197 204.63 562.827 Q206.968 562.457 209.028 562.457 Q214.352 562.457 217.454 564.887 Q220.556 567.295 220.556 571.415 Q220.556 574.285 218.912 576.276 Q217.269 578.244 214.236 579.008 Z" fill="#000000" fill-rule="nonzero" fill-opacity="1" /><path clip-path="url(#clip680)" d="M164.028 323.095 Q160.417 323.095 158.589 326.659 Q156.783 330.201 156.783 337.331 Q156.783 344.437 158.589 348.002 Q160.417 351.544 164.028 351.544 Q167.663 351.544 169.468 348.002 Q171.297 344.437 171.297 337.331 Q171.297 330.201 169.468 326.659 Q167.663 323.095 164.028 323.095 M164.028 319.391 Q169.839 319.391 172.894 323.997 Q175.973 328.581 175.973 337.331 Q175.973 346.057 172.894 350.664 Q169.839 355.247 164.028 355.247 Q158.218 355.247 155.14 350.664 Q152.084 346.057 152.084 337.331 Q152.084 328.581 155.14 323.997 Q158.218 319.391 164.028 319.391 Z" fill="#000000" fill-rule="nonzero" fill-opacity="1" /><path clip-path="url(#clip680)" d="M184.19 348.696 L189.075 348.696 L189.075 354.576 L184.19 354.576 L184.19 348.696 Z" fill="#000000" fill-rule="nonzero" fill-opacity="1" /><path clip-path="url(#clip680)" d="M209.838 335.433 Q206.69 335.433 204.838 337.585 Q203.01 339.738 203.01 343.488 Q203.01 347.215 204.838 349.391 Q206.69 351.544 209.838 351.544 Q212.986 351.544 214.815 349.391 Q216.667 347.215 216.667 343.488 Q216.667 339.738 214.815 337.585 Q212.986 335.433 209.838 335.433 M219.121 320.78 L219.121 325.039 Q217.361 324.206 215.556 323.766 Q213.774 323.326 212.014 323.326 Q207.385 323.326 204.931 326.451 Q202.5 329.576 202.153 335.895 Q203.519 333.882 205.579 332.817 Q207.639 331.729 210.116 331.729 Q215.324 331.729 218.334 334.9 Q221.366 338.048 221.366 343.488 Q221.366 348.812 218.218 352.03 Q215.07 355.247 209.838 355.247 Q203.843 355.247 200.672 350.664 Q197.5 346.057 197.5 337.331 Q197.5 329.136 201.389 324.275 Q205.278 319.391 211.829 319.391 Q213.588 319.391 215.371 319.738 Q217.176 320.085 219.121 320.78 Z" fill="#000000" fill-rule="nonzero" fill-opacity="1" /><path clip-path="url(#clip680)" d="M18.0438 893.717 L24.314 893.717 Q22.5634 897.378 21.704 900.624 Q20.8447 903.871 20.8447 906.894 Q20.8447 912.146 22.8817 915.011 Q24.9187 917.843 28.6745 917.843 Q31.8255 917.843 33.4488 915.966 Q35.0402 914.056 36.0269 908.772 L36.8226 904.889 Q38.1912 897.696 41.6605 894.29 Q45.098 890.853 50.8908 890.853 Q57.7976 890.853 61.3624 895.5 Q64.9272 900.115 64.9272 909.059 Q64.9272 912.433 64.1633 916.252 Q63.3994 920.04 61.9035 924.114 L55.2831 924.114 Q57.4793 920.199 58.5933 916.443 Q59.7073 912.687 59.7073 909.059 Q59.7073 903.552 57.543 900.561 Q55.3786 897.569 51.3682 897.569 Q47.8671 897.569 45.8937 899.733 Q43.9204 901.866 42.9337 906.767 L42.1698 910.682 Q40.7375 917.875 37.682 921.09 Q34.6264 924.305 29.1837 924.305 Q22.8817 924.305 19.2532 919.88 Q15.6248 915.424 15.6248 907.626 Q15.6248 904.284 16.2295 900.815 Q16.8343 897.346 18.0438 893.717 Z" fill="#000000" fill-rule="nonzero" fill-opacity="1" /><path clip-path="url(#clip680)" d="M28.3562 881.081 L28.3562 875.225 L64.0042 875.225 L64.0042 881.081 L28.3562 881.081 M14.479 881.081 L14.479 875.225 L21.895 875.225 L21.895 881.081 L14.479 881.081 Z" fill="#000000" fill-rule="nonzero" fill-opacity="1" /><path clip-path="url(#clip680)" d="M35.1993 835.217 Q31.2526 833.02 29.3747 829.965 Q27.4968 826.909 27.4968 822.772 Q27.4968 817.202 31.4117 814.178 Q35.2948 811.154 42.4881 811.154 L64.0042 811.154 L64.0042 817.042 L42.679 817.042 Q37.5546 817.042 35.072 818.857 Q32.5894 820.671 32.5894 824.395 Q32.5894 828.946 35.6131 831.588 Q38.6368 834.23 43.8567 834.23 L64.0042 834.23 L64.0042 840.118 L42.679 840.118 Q37.5228 840.118 35.072 841.932 Q32.5894 843.747 32.5894 847.534 Q32.5894 852.022 35.6449 854.664 Q38.6686 857.306 43.8567 857.306 L64.0042 857.306 L64.0042 863.194 L28.3562 863.194 L28.3562 857.306 L33.8944 857.306 Q30.616 855.3 29.0564 852.499 Q27.4968 849.699 27.4968 845.847 Q27.4968 841.964 29.4702 839.259 Q31.4436 836.522 35.1993 835.217 Z" fill="#000000" fill-rule="nonzero" fill-opacity="1" /><path clip-path="url(#clip680)" d="M28.3562 799.473 L28.3562 793.617 L64.0042 793.617 L64.0042 799.473 L28.3562 799.473 M14.479 799.473 L14.479 793.617 L21.895 793.617 L21.895 799.473 L14.479 799.473 Z" fill="#000000" fill-rule="nonzero" fill-opacity="1" /><path clip-path="url(#clip680)" d="M14.479 781.363 L14.479 775.506 L64.0042 775.506 L64.0042 781.363 L14.479 781.363 Z" fill="#000000" fill-rule="nonzero" fill-opacity="1" /><path clip-path="url(#clip680)" d="M46.0847 747.052 Q46.0847 754.149 47.7079 756.887 Q49.3312 759.624 53.2461 759.624 Q56.3653 759.624 58.2114 757.587 Q60.0256 755.518 60.0256 751.985 Q60.0256 747.115 56.5881 744.187 Q53.1188 741.227 47.3897 741.227 L46.0847 741.227 L46.0847 747.052 M43.6657 735.37 L64.0042 735.37 L64.0042 741.227 L58.5933 741.227 Q61.8398 743.232 63.3994 746.224 Q64.9272 749.216 64.9272 753.545 Q64.9272 759.019 61.8716 762.266 Q58.7843 765.48 53.6281 765.48 Q47.6125 765.48 44.5569 761.47 Q41.5014 757.428 41.5014 749.439 L41.5014 741.227 L40.9285 741.227 Q36.8862 741.227 34.6901 743.901 Q32.4621 746.542 32.4621 751.348 Q32.4621 754.404 33.1941 757.3 Q33.9262 760.197 35.3903 762.87 L29.9795 762.87 Q28.7381 759.656 28.1334 756.632 Q27.4968 753.608 27.4968 750.744 Q27.4968 743.009 31.5072 739.19 Q35.5176 735.37 43.6657 735.37 Z" fill="#000000" fill-rule="nonzero" fill-opacity="1" /><path clip-path="url(#clip680)" d="M33.8307 702.651 Q33.2578 703.637 33.0032 704.815 Q32.7167 705.961 32.7167 707.361 Q32.7167 712.327 35.9632 715 Q39.1779 717.642 45.2253 717.642 L64.0042 717.642 L64.0042 723.53 L28.3562 723.53 L28.3562 717.642 L33.8944 717.642 Q30.6479 715.796 29.0883 712.836 Q27.4968 709.876 27.4968 705.643 Q27.4968 705.038 27.5923 704.306 Q27.656 703.574 27.8151 702.683 L33.8307 702.651 Z" fill="#000000" fill-rule="nonzero" fill-opacity="1" /><path clip-path="url(#clip680)" d="M28.3562 696.508 L28.3562 690.651 L64.0042 690.651 L64.0042 696.508 L28.3562 696.508 M14.479 696.508 L14.479 690.651 L21.895 690.651 L21.895 696.508 L14.479 696.508 Z" fill="#000000" fill-rule="nonzero" fill-opacity="1" /><path clip-path="url(#clip680)" d="M18.2347 672.605 L28.3562 672.605 L28.3562 660.542 L32.9077 660.542 L32.9077 672.605 L52.2594 672.605 Q56.6199 672.605 57.8613 671.427 Q59.1026 670.217 59.1026 666.557 L59.1026 660.542 L64.0042 660.542 L64.0042 666.557 Q64.0042 673.337 61.4897 675.915 Q58.9434 678.493 52.2594 678.493 L32.9077 678.493 L32.9077 682.79 L28.3562 682.79 L28.3562 678.493 L18.2347 678.493 L18.2347 672.605 Z" fill="#000000" fill-rule="nonzero" fill-opacity="1" /><path clip-path="url(#clip680)" d="M67.3143 638.007 Q73.68 640.49 75.6216 642.845 Q77.5631 645.2 77.5631 649.147 L77.5631 653.826 L72.6615 653.826 L72.6615 650.388 Q72.6615 647.969 71.5157 646.633 Q70.3699 645.296 66.1048 643.672 L63.4312 642.622 L28.3562 657.04 L28.3562 650.834 L56.238 639.694 L28.3562 628.554 L28.3562 622.347 L67.3143 638.007 Z" fill="#000000" fill-rule="nonzero" fill-opacity="1" /><path clip-path="url(#clip680)" d="M396.261 14.0809 L396.261 22.0612 Q391.602 19.8332 387.47 18.7395 Q383.338 17.6457 379.49 17.6457 Q372.806 17.6457 369.16 20.2383 Q365.555 22.8309 365.555 27.611 Q365.555 31.6214 367.945 33.6873 Q370.376 35.7128 377.1 36.9686 L382.042 37.9813 Q391.197 39.7232 395.532 44.1387 Q399.907 48.5136 399.907 55.8863 Q399.907 64.6767 393.992 69.2137 Q388.119 73.7508 376.736 73.7508 Q372.442 73.7508 367.58 72.7785 Q362.76 71.8063 357.575 69.9024 L357.575 61.4765 Q362.557 64.2716 367.337 65.6895 Q372.117 67.1073 376.736 67.1073 Q383.744 67.1073 387.551 64.3527 Q391.359 61.598 391.359 56.4939 Q391.359 52.0379 388.605 49.5264 Q385.891 47.0148 379.652 45.759 L374.67 44.7868 Q365.515 42.9639 361.423 39.075 Q357.332 35.1862 357.332 28.2591 Q357.332 20.2383 362.962 15.6203 Q368.634 11.0023 378.558 11.0023 Q382.812 11.0023 387.227 11.7719 Q391.643 12.5416 396.261 14.0809 Z" fill="#000000" fill-rule="nonzero" fill-opacity="1" /><path clip-path="url(#clip680)" d="M429.924 32.4315 Q423.929 32.4315 420.445 37.1306 Q416.961 41.7891 416.961 49.9314 Q416.961 58.0738 420.404 62.7728 Q423.888 67.4314 429.924 67.4314 Q435.879 67.4314 439.362 62.7323 Q442.846 58.0333 442.846 49.9314 Q442.846 41.8701 439.362 37.1711 Q435.879 32.4315 429.924 32.4315 M429.924 26.1121 Q439.646 26.1121 445.196 32.4315 Q450.746 38.7509 450.746 49.9314 Q450.746 61.0714 445.196 67.4314 Q439.646 73.7508 429.924 73.7508 Q420.161 73.7508 414.611 67.4314 Q409.102 61.0714 409.102 49.9314 Q409.102 38.7509 414.611 32.4315 Q420.161 26.1121 429.924 26.1121 Z" fill="#000000" fill-rule="nonzero" fill-opacity="1" /><path clip-path="url(#clip680)" d="M489.391 34.1734 Q488.135 33.4443 486.637 33.1202 Q485.178 32.7556 483.396 32.7556 Q477.076 32.7556 473.674 36.8875 Q470.311 40.9789 470.311 48.6757 L470.311 72.576 L462.817 72.576 L462.817 27.2059 L470.311 27.2059 L470.311 34.2544 Q472.661 30.1225 476.428 28.1376 Q480.196 26.1121 485.583 26.1121 Q486.353 26.1121 487.285 26.2337 Q488.216 26.3147 489.351 26.5172 L489.391 34.1734 Z" fill="#000000" fill-rule="nonzero" fill-opacity="1" /><path clip-path="url(#clip680)" d="M504.582 14.324 L504.582 27.2059 L519.935 27.2059 L519.935 32.9987 L504.582 32.9987 L504.582 57.6282 Q504.582 63.1779 506.081 64.7578 Q507.62 66.3376 512.279 66.3376 L519.935 66.3376 L519.935 72.576 L512.279 72.576 Q503.65 72.576 500.369 69.3758 Q497.088 66.1351 497.088 57.6282 L497.088 32.9987 L491.619 32.9987 L491.619 27.2059 L497.088 27.2059 L497.088 14.324 L504.582 14.324 Z" fill="#000000" fill-rule="nonzero" fill-opacity="1" /><path clip-path="url(#clip680)" d="M568.546 48.0275 L568.546 51.6733 L534.275 51.6733 Q534.761 59.3701 538.893 63.421 Q543.066 67.4314 550.479 67.4314 Q554.773 67.4314 558.783 66.3781 Q562.834 65.3249 566.804 63.2184 L566.804 70.267 Q562.794 71.9684 558.581 72.8596 Q554.368 73.7508 550.033 73.7508 Q539.177 73.7508 532.817 67.4314 Q526.497 61.1119 526.497 50.3365 Q526.497 39.1965 532.493 32.6746 Q538.529 26.1121 548.737 26.1121 Q557.892 26.1121 563.199 32.0264 Q568.546 37.9003 568.546 48.0275 M561.092 45.84 Q561.011 39.7232 557.649 36.0774 Q554.327 32.4315 548.818 32.4315 Q542.58 32.4315 538.812 35.9558 Q535.085 39.4801 534.518 45.8805 L561.092 45.84 Z" fill="#000000" fill-rule="nonzero" fill-opacity="1" /><path clip-path="url(#clip680)" d="M610.635 34.0924 L610.635 9.54393 L618.088 9.54393 L618.088 72.576 L610.635 72.576 L610.635 65.7705 Q608.285 69.8214 604.68 71.8063 Q601.115 73.7508 596.092 73.7508 Q587.869 73.7508 582.683 67.1883 Q577.539 60.6258 577.539 49.9314 Q577.539 39.2371 582.683 32.6746 Q587.869 26.1121 596.092 26.1121 Q601.115 26.1121 604.68 28.0971 Q608.285 30.0415 610.635 34.0924 M585.236 49.9314 Q585.236 58.1548 588.598 62.8538 Q592.001 67.5124 597.915 67.5124 Q603.829 67.5124 607.232 62.8538 Q610.635 58.1548 610.635 49.9314 Q610.635 41.7081 607.232 37.0496 Q603.829 32.3505 597.915 32.3505 Q592.001 32.3505 588.598 37.0496 Q585.236 41.7081 585.236 49.9314 Z" fill="#000000" fill-rule="nonzero" fill-opacity="1" /><path clip-path="url(#clip680)" d="M692.463 28.9478 L692.463 35.9153 Q689.303 34.1734 686.103 33.3227 Q682.943 32.4315 679.703 32.4315 Q672.452 32.4315 668.441 37.0496 Q664.431 41.6271 664.431 49.9314 Q664.431 58.2358 668.441 62.8538 Q672.452 67.4314 679.703 67.4314 Q682.943 67.4314 686.103 66.5807 Q689.303 65.6895 692.463 63.9476 L692.463 70.8341 Q689.344 72.2924 685.982 73.0216 Q682.66 73.7508 678.892 73.7508 Q668.644 73.7508 662.608 67.3098 Q656.572 60.8689 656.572 49.9314 Q656.572 38.832 662.648 32.472 Q668.765 26.1121 679.379 26.1121 Q682.822 26.1121 686.103 26.8413 Q689.384 27.5299 692.463 28.9478 Z" fill="#000000" fill-rule="nonzero" fill-opacity="1" /><path clip-path="url(#clip680)" d="M723.007 32.4315 Q717.011 32.4315 713.528 37.1306 Q710.044 41.7891 710.044 49.9314 Q710.044 58.0738 713.487 62.7728 Q716.971 67.4314 723.007 67.4314 Q728.962 67.4314 732.445 62.7323 Q735.929 58.0333 735.929 49.9314 Q735.929 41.8701 732.445 37.1711 Q728.962 32.4315 723.007 32.4315 M723.007 26.1121 Q732.729 26.1121 738.279 32.4315 Q743.828 38.7509 743.828 49.9314 Q743.828 61.0714 738.279 67.4314 Q732.729 73.7508 723.007 73.7508 Q713.244 73.7508 707.694 67.4314 Q702.185 61.0714 702.185 49.9314 Q702.185 38.7509 707.694 32.4315 Q713.244 26.1121 723.007 26.1121 Z" fill="#000000" fill-rule="nonzero" fill-opacity="1" /><path clip-path="url(#clip680)" d="M785.107 28.5427 L785.107 35.5912 Q781.947 33.9709 778.545 33.1607 Q775.142 32.3505 771.496 32.3505 Q765.946 32.3505 763.151 34.0519 Q760.397 35.7533 760.397 39.156 Q760.397 41.7486 762.382 43.2475 Q764.367 44.7058 770.362 46.0426 L772.914 46.6097 Q780.854 48.3111 784.175 51.4303 Q787.538 54.509 787.538 60.0587 Q787.538 66.3781 782.515 70.0644 Q777.532 73.7508 768.782 73.7508 Q765.136 73.7508 761.166 73.0216 Q757.237 72.3329 752.862 70.9151 L752.862 63.2184 Q756.994 65.3654 761.004 66.4591 Q765.015 67.5124 768.944 67.5124 Q774.21 67.5124 777.046 65.73 Q779.882 63.9071 779.882 60.6258 Q779.882 57.5877 777.816 55.9673 Q775.79 54.3469 768.863 52.8481 L766.27 52.2405 Q759.343 50.7821 756.265 47.7845 Q753.186 44.7463 753.186 39.4801 Q753.186 33.0797 757.723 29.5959 Q762.26 26.1121 770.605 26.1121 Q774.737 26.1121 778.383 26.7198 Q782.028 27.3274 785.107 28.5427 Z" fill="#000000" fill-rule="nonzero" fill-opacity="1" /><path clip-path="url(#clip680)" d="M799.407 27.2059 L806.861 27.2059 L806.861 72.576 L799.407 72.576 L799.407 27.2059 M799.407 9.54393 L806.861 9.54393 L806.861 18.9825 L799.407 18.9825 L799.407 9.54393 Z" fill="#000000" fill-rule="nonzero" fill-opacity="1" /><path clip-path="url(#clip680)" d="M860.17 45.1919 L860.17 72.576 L852.717 72.576 L852.717 45.4349 Q852.717 38.994 850.205 35.7938 Q847.694 32.5936 842.671 32.5936 Q836.635 32.5936 833.151 36.4419 Q829.667 40.2903 829.667 46.9338 L829.667 72.576 L822.173 72.576 L822.173 27.2059 L829.667 27.2059 L829.667 34.2544 Q832.341 30.163 835.946 28.1376 Q839.592 26.1121 844.331 26.1121 Q852.15 26.1121 856.16 30.9732 Q860.17 35.7938 860.17 45.1919 Z" fill="#000000" fill-rule="nonzero" fill-opacity="1" /><path clip-path="url(#clip680)" d="M913.845 48.0275 L913.845 51.6733 L879.574 51.6733 Q880.06 59.3701 884.192 63.421 Q888.365 67.4314 895.778 67.4314 Q900.072 67.4314 904.082 66.3781 Q908.133 65.3249 912.103 63.2184 L912.103 70.267 Q908.093 71.9684 903.88 72.8596 Q899.667 73.7508 895.332 73.7508 Q884.476 73.7508 878.116 67.4314 Q871.797 61.1119 871.797 50.3365 Q871.797 39.1965 877.792 32.6746 Q883.828 26.1121 894.036 26.1121 Q903.191 26.1121 908.498 32.0264 Q913.845 37.9003 913.845 48.0275 M906.391 45.84 Q906.31 39.7232 902.948 36.0774 Q899.626 32.4315 894.117 32.4315 Q887.879 32.4315 884.111 35.9558 Q880.384 39.4801 879.817 45.8805 L906.391 45.84 Z" fill="#000000" fill-rule="nonzero" fill-opacity="1" /><path clip-path="url(#clip680)" d="M981.373 28.5427 L981.373 35.5912 Q978.214 33.9709 974.811 33.1607 Q971.408 32.3505 967.762 32.3505 Q962.213 32.3505 959.418 34.0519 Q956.663 35.7533 956.663 39.156 Q956.663 41.7486 958.648 43.2475 Q960.633 44.7058 966.628 46.0426 L969.18 46.6097 Q977.12 48.3111 980.442 51.4303 Q983.804 54.509 983.804 60.0587 Q983.804 66.3781 978.781 70.0644 Q973.798 73.7508 965.048 73.7508 Q961.403 73.7508 957.433 73.0216 Q953.503 72.3329 949.128 70.9151 L949.128 63.2184 Q953.26 65.3654 957.271 66.4591 Q961.281 67.5124 965.21 67.5124 Q970.477 67.5124 973.312 65.73 Q976.148 63.9071 976.148 60.6258 Q976.148 57.5877 974.082 55.9673 Q972.056 54.3469 965.129 52.8481 L962.537 52.2405 Q955.61 50.7821 952.531 47.7845 Q949.452 44.7463 949.452 39.4801 Q949.452 33.0797 953.989 29.5959 Q958.526 26.1121 966.871 26.1121 Q971.003 26.1121 974.649 26.7198 Q978.295 27.3274 981.373 28.5427 Z" fill="#000000" fill-rule="nonzero" fill-opacity="1" /><path clip-path="url(#clip680)" d="M995.673 27.2059 L1003.13 27.2059 L1003.13 72.576 L995.673 72.576 L995.673 27.2059 M995.673 9.54393 L1003.13 9.54393 L1003.13 18.9825 L995.673 18.9825 L995.673 9.54393 Z" fill="#000000" fill-rule="nonzero" fill-opacity="1" /><path clip-path="url(#clip680)" d="M1054.05 35.9153 Q1056.84 30.8922 1060.73 28.5022 Q1064.62 26.1121 1069.89 26.1121 Q1076.97 26.1121 1080.82 31.0947 Q1084.67 36.0368 1084.67 45.1919 L1084.67 72.576 L1077.18 72.576 L1077.18 45.4349 Q1077.18 38.913 1074.87 35.7533 Q1072.56 32.5936 1067.82 32.5936 Q1062.03 32.5936 1058.66 36.4419 Q1055.3 40.2903 1055.3 46.9338 L1055.3 72.576 L1047.81 72.576 L1047.81 45.4349 Q1047.81 38.8725 1045.5 35.7533 Q1043.19 32.5936 1038.37 32.5936 Q1032.66 32.5936 1029.3 36.4824 Q1025.93 40.3308 1025.93 46.9338 L1025.93 72.576 L1018.44 72.576 L1018.44 27.2059 L1025.93 27.2059 L1025.93 34.2544 Q1028.49 30.082 1032.05 28.0971 Q1035.62 26.1121 1040.52 26.1121 Q1045.46 26.1121 1048.9 28.6237 Q1052.39 31.1352 1054.05 35.9153 Z" fill="#000000" fill-rule="nonzero" fill-opacity="1" /><path clip-path="url(#clip680)" d="M1099.54 27.2059 L1106.99 27.2059 L1106.99 72.576 L1099.54 72.576 L1099.54 27.2059 M1099.54 9.54393 L1106.99 9.54393 L1106.99 18.9825 L1099.54 18.9825 L1099.54 9.54393 Z" fill="#000000" fill-rule="nonzero" fill-opacity="1" /><path clip-path="url(#clip680)" d="M1122.59 9.54393 L1130.04 9.54393 L1130.04 72.576 L1122.59 72.576 L1122.59 9.54393 Z" fill="#000000" fill-rule="nonzero" fill-opacity="1" /><path clip-path="url(#clip680)" d="M1166.26 49.7694 Q1157.22 49.7694 1153.74 51.8354 Q1150.26 53.9013 1150.26 58.8839 Q1150.26 62.8538 1152.85 65.2034 Q1155.48 67.5124 1159.98 67.5124 Q1166.18 67.5124 1169.9 63.1374 Q1173.67 58.7219 1173.67 51.4303 L1173.67 49.7694 L1166.26 49.7694 M1181.12 46.6907 L1181.12 72.576 L1173.67 72.576 L1173.67 65.6895 Q1171.12 69.8214 1167.31 71.8063 Q1163.5 73.7508 1157.99 73.7508 Q1151.03 73.7508 1146.89 69.8619 Q1142.8 65.9325 1142.8 59.3701 Q1142.8 51.7138 1147.91 47.825 Q1153.05 43.9361 1163.22 43.9361 L1173.67 43.9361 L1173.67 43.2069 Q1173.67 38.0623 1170.27 35.2672 Q1166.9 32.4315 1160.79 32.4315 Q1156.9 32.4315 1153.21 33.3632 Q1149.53 34.295 1146.12 36.1584 L1146.12 29.2718 Q1150.22 27.692 1154.06 26.9223 Q1157.91 26.1121 1161.56 26.1121 Q1171.4 26.1121 1176.26 31.2163 Q1181.12 36.3204 1181.12 46.6907 Z" fill="#000000" fill-rule="nonzero" fill-opacity="1" /><path clip-path="url(#clip680)" d="M1222.77 34.1734 Q1221.51 33.4443 1220.01 33.1202 Q1218.55 32.7556 1216.77 32.7556 Q1210.45 32.7556 1207.05 36.8875 Q1203.69 40.9789 1203.69 48.6757 L1203.69 72.576 L1196.19 72.576 L1196.19 27.2059 L1203.69 27.2059 L1203.69 34.2544 Q1206.04 30.1225 1209.8 28.1376 Q1213.57 26.1121 1218.96 26.1121 Q1219.73 26.1121 1220.66 26.2337 Q1221.59 26.3147 1222.73 26.5172 L1222.77 34.1734 Z" fill="#000000" fill-rule="nonzero" fill-opacity="1" /><path clip-path="url(#clip680)" d="M1230.59 27.2059 L1238.04 27.2059 L1238.04 72.576 L1230.59 72.576 L1230.59 27.2059 M1230.59 9.54393 L1238.04 9.54393 L1238.04 18.9825 L1230.59 18.9825 L1230.59 9.54393 Z" fill="#000000" fill-rule="nonzero" fill-opacity="1" /><path clip-path="url(#clip680)" d="M1261.01 14.324 L1261.01 27.2059 L1276.36 27.2059 L1276.36 32.9987 L1261.01 32.9987 L1261.01 57.6282 Q1261.01 63.1779 1262.51 64.7578 Q1264.05 66.3376 1268.7 66.3376 L1276.36 66.3376 L1276.36 72.576 L1268.7 72.576 Q1260.08 72.576 1256.79 69.3758 Q1253.51 66.1351 1253.51 57.6282 L1253.51 32.9987 L1248.04 32.9987 L1248.04 27.2059 L1253.51 27.2059 L1253.51 14.324 L1261.01 14.324 Z" fill="#000000" fill-rule="nonzero" fill-opacity="1" /><path clip-path="url(#clip680)" d="M1286.16 27.2059 L1293.62 27.2059 L1293.62 72.576 L1286.16 72.576 L1286.16 27.2059 M1286.16 9.54393 L1293.62 9.54393 L1293.62 18.9825 L1286.16 18.9825 L1286.16 9.54393 Z" fill="#000000" fill-rule="nonzero" fill-opacity="1" /><path clip-path="url(#clip680)" d="M1348.02 48.0275 L1348.02 51.6733 L1313.75 51.6733 Q1314.24 59.3701 1318.37 63.421 Q1322.54 67.4314 1329.95 67.4314 Q1334.25 67.4314 1338.26 66.3781 Q1342.31 65.3249 1346.28 63.2184 L1346.28 70.267 Q1342.27 71.9684 1338.06 72.8596 Q1333.84 73.7508 1329.51 73.7508 Q1318.65 73.7508 1312.29 67.4314 Q1305.97 61.1119 1305.97 50.3365 Q1305.97 39.1965 1311.97 32.6746 Q1318 26.1121 1328.21 26.1121 Q1337.37 26.1121 1342.67 32.0264 Q1348.02 37.9003 1348.02 48.0275 M1340.57 45.84 Q1340.49 39.7232 1337.12 36.0774 Q1333.8 32.4315 1328.29 32.4315 Q1322.05 32.4315 1318.29 35.9558 Q1314.56 39.4801 1313.99 45.8805 L1340.57 45.84 Z" fill="#000000" fill-rule="nonzero" fill-opacity="1" /><path clip-path="url(#clip680)" d="M1389.18 28.5427 L1389.18 35.5912 Q1386.02 33.9709 1382.62 33.1607 Q1379.21 32.3505 1375.57 32.3505 Q1370.02 32.3505 1367.22 34.0519 Q1364.47 35.7533 1364.47 39.156 Q1364.47 41.7486 1366.45 43.2475 Q1368.44 44.7058 1374.43 46.0426 L1376.98 46.6097 Q1384.92 48.3111 1388.25 51.4303 Q1391.61 54.509 1391.61 60.0587 Q1391.61 66.3781 1386.59 70.0644 Q1381.6 73.7508 1372.85 73.7508 Q1369.21 73.7508 1365.24 73.0216 Q1361.31 72.3329 1356.93 70.9151 L1356.93 63.2184 Q1361.06 65.3654 1365.08 66.4591 Q1369.09 67.5124 1373.01 67.5124 Q1378.28 67.5124 1381.12 65.73 Q1383.95 63.9071 1383.95 60.6258 Q1383.95 57.5877 1381.89 55.9673 Q1379.86 54.3469 1372.93 52.8481 L1370.34 52.2405 Q1363.41 50.7821 1360.34 47.7845 Q1357.26 44.7463 1357.26 39.4801 Q1357.26 33.0797 1361.79 29.5959 Q1366.33 26.1121 1374.68 26.1121 Q1378.81 26.1121 1382.45 26.7198 Q1386.1 27.3274 1389.18 28.5427 Z" fill="#000000" fill-rule="nonzero" fill-opacity="1" /><path clip-path="url(#clip680)" d="M1462.5 28.9478 L1462.5 35.9153 Q1459.34 34.1734 1456.14 33.3227 Q1452.98 32.4315 1449.74 32.4315 Q1442.49 32.4315 1438.48 37.0496 Q1434.47 41.6271 1434.47 49.9314 Q1434.47 58.2358 1438.48 62.8538 Q1442.49 67.4314 1449.74 67.4314 Q1452.98 67.4314 1456.14 66.5807 Q1459.34 65.6895 1462.5 63.9476 L1462.5 70.8341 Q1459.38 72.2924 1456.02 73.0216 Q1452.7 73.7508 1448.93 73.7508 Q1438.68 73.7508 1432.64 67.3098 Q1426.61 60.8689 1426.61 49.9314 Q1426.61 38.832 1432.68 32.472 Q1438.8 26.1121 1449.41 26.1121 Q1452.86 26.1121 1456.14 26.8413 Q1459.42 27.5299 1462.5 28.9478 Z" fill="#000000" fill-rule="nonzero" fill-opacity="1" /><path clip-path="url(#clip680)" d="M1514.27 48.0275 L1514.27 51.6733 L1480 51.6733 Q1480.49 59.3701 1484.62 63.421 Q1488.79 67.4314 1496.2 67.4314 Q1500.5 67.4314 1504.51 66.3781 Q1508.56 65.3249 1512.53 63.2184 L1512.53 70.267 Q1508.52 71.9684 1504.3 72.8596 Q1500.09 73.7508 1495.76 73.7508 Q1484.9 73.7508 1478.54 67.4314 Q1472.22 61.1119 1472.22 50.3365 Q1472.22 39.1965 1478.22 32.6746 Q1484.25 26.1121 1494.46 26.1121 Q1503.62 26.1121 1508.92 32.0264 Q1514.27 37.9003 1514.27 48.0275 M1506.82 45.84 Q1506.74 39.7232 1503.37 36.0774 Q1500.05 32.4315 1494.54 32.4315 Q1488.3 32.4315 1484.54 35.9558 Q1480.81 39.4801 1480.24 45.8805 L1506.82 45.84 Z" fill="#000000" fill-rule="nonzero" fill-opacity="1" /><path clip-path="url(#clip680)" d="M1526.5 9.54393 L1533.96 9.54393 L1533.96 72.576 L1526.5 72.576 L1526.5 9.54393 Z" fill="#000000" fill-rule="nonzero" fill-opacity="1" /><path clip-path="url(#clip680)" d="M1549.55 9.54393 L1557.01 9.54393 L1557.01 72.576 L1549.55 72.576 L1549.55 9.54393 Z" fill="#000000" fill-rule="nonzero" fill-opacity="1" /><path clip-path="url(#clip680)" d="M1624.82 39.9662 Q1630.69 41.222 1633.97 45.1919 Q1637.3 49.1618 1637.3 54.9951 Q1637.3 63.9476 1631.14 68.8492 Q1624.98 73.7508 1613.64 73.7508 Q1609.83 73.7508 1605.78 72.9811 Q1601.77 72.2519 1597.48 70.7531 L1597.48 62.8538 Q1600.88 64.8388 1604.93 65.8515 Q1608.98 66.8642 1613.4 66.8642 Q1621.09 66.8642 1625.1 63.826 Q1629.15 60.7879 1629.15 54.9951 Q1629.15 49.6479 1625.39 46.6502 Q1621.66 43.612 1614.98 43.612 L1607.93 43.612 L1607.93 36.8875 L1615.3 36.8875 Q1621.34 36.8875 1624.54 34.4975 Q1627.74 32.067 1627.74 27.5299 Q1627.74 22.8714 1624.41 20.4004 Q1621.13 17.8888 1614.98 17.8888 Q1611.61 17.8888 1607.76 18.618 Q1603.92 19.3471 1599.3 20.8865 L1599.3 13.5948 Q1603.96 12.2985 1608.01 11.6504 Q1612.1 11.0023 1615.7 11.0023 Q1625.02 11.0023 1630.45 15.2557 Q1635.88 19.4686 1635.88 26.6793 Q1635.88 31.7024 1633 35.1862 Q1630.13 38.6294 1624.82 39.9662 Z" fill="#000000" fill-rule="nonzero" fill-opacity="1" /><path clip-path="url(#clip680)" d="M1652.89 12.096 L1685.02 12.096 L1685.02 18.9825 L1660.39 18.9825 L1660.39 33.8088 Q1662.17 33.2012 1663.95 32.9176 Q1665.73 32.5936 1667.52 32.5936 Q1677.64 32.5936 1683.56 38.1433 Q1689.47 43.6931 1689.47 53.1722 Q1689.47 62.9348 1683.4 68.3631 Q1677.32 73.7508 1666.26 73.7508 Q1662.45 73.7508 1658.48 73.1026 Q1654.55 72.4545 1650.34 71.1582 L1650.34 62.9348 Q1653.99 64.9198 1657.87 65.892 Q1661.76 66.8642 1666.1 66.8642 Q1673.11 66.8642 1677.2 63.1779 Q1681.29 59.4916 1681.29 53.1722 Q1681.29 46.8528 1677.2 43.1664 Q1673.11 39.4801 1666.1 39.4801 Q1662.82 39.4801 1659.54 40.2093 Q1656.29 40.9384 1652.89 42.4778 L1652.89 12.096 Z" fill="#000000" fill-rule="nonzero" fill-opacity="1" /><path clip-path="url(#clip680)" d="M1707.01 65.6895 L1720.38 65.6895 L1720.38 19.5497 L1705.84 22.4663 L1705.84 15.0127 L1720.3 12.096 L1728.48 12.096 L1728.48 65.6895 L1741.85 65.6895 L1741.85 72.576 L1707.01 72.576 L1707.01 65.6895 Z" fill="#000000" fill-rule="nonzero" fill-opacity="1" /><path clip-path="url(#clip680)" d="M1783.7 27.2059 L1791.15 27.2059 L1791.15 72.576 L1783.7 72.576 L1783.7 27.2059 M1783.7 9.54393 L1791.15 9.54393 L1791.15 18.9825 L1783.7 18.9825 L1783.7 9.54393 Z" fill="#000000" fill-rule="nonzero" fill-opacity="1" /><path clip-path="url(#clip680)" d="M1814.12 14.324 L1814.12 27.2059 L1829.47 27.2059 L1829.47 32.9987 L1814.12 32.9987 L1814.12 57.6282 Q1814.12 63.1779 1815.62 64.7578 Q1817.16 66.3376 1821.81 66.3376 L1829.47 66.3376 L1829.47 72.576 L1821.81 72.576 Q1813.19 72.576 1809.9 69.3758 Q1806.62 66.1351 1806.62 57.6282 L1806.62 32.9987 L1801.15 32.9987 L1801.15 27.2059 L1806.62 27.2059 L1806.62 14.324 L1814.12 14.324 Z" fill="#000000" fill-rule="nonzero" fill-opacity="1" /><path clip-path="url(#clip680)" d="M1878.08 48.0275 L1878.08 51.6733 L1843.81 51.6733 Q1844.3 59.3701 1848.43 63.421 Q1852.6 67.4314 1860.01 67.4314 Q1864.31 67.4314 1868.32 66.3781 Q1872.37 65.3249 1876.34 63.2184 L1876.34 70.267 Q1872.33 71.9684 1868.12 72.8596 Q1863.9 73.7508 1859.57 73.7508 Q1848.71 73.7508 1842.35 67.4314 Q1836.03 61.1119 1836.03 50.3365 Q1836.03 39.1965 1842.03 32.6746 Q1848.06 26.1121 1858.27 26.1121 Q1867.43 26.1121 1872.73 32.0264 Q1878.08 37.9003 1878.08 48.0275 M1870.63 45.84 Q1870.55 39.7232 1867.18 36.0774 Q1863.86 32.4315 1858.35 32.4315 Q1852.12 32.4315 1848.35 35.9558 Q1844.62 39.4801 1844.05 45.8805 L1870.63 45.84 Z" fill="#000000" fill-rule="nonzero" fill-opacity="1" /><path clip-path="url(#clip680)" d="M1916.61 34.1734 Q1915.35 33.4443 1913.85 33.1202 Q1912.39 32.7556 1910.61 32.7556 Q1904.29 32.7556 1900.89 36.8875 Q1897.53 40.9789 1897.53 48.6757 L1897.53 72.576 L1890.03 72.576 L1890.03 27.2059 L1897.53 27.2059 L1897.53 34.2544 Q1899.88 30.1225 1903.64 28.1376 Q1907.41 26.1121 1912.8 26.1121 Q1913.57 26.1121 1914.5 26.2337 Q1915.43 26.3147 1916.57 26.5172 L1916.61 34.1734 Z" fill="#000000" fill-rule="nonzero" fill-opacity="1" /><path clip-path="url(#clip680)" d="M1945.04 49.7694 Q1936.01 49.7694 1932.53 51.8354 Q1929.04 53.9013 1929.04 58.8839 Q1929.04 62.8538 1931.63 65.2034 Q1934.27 67.5124 1938.76 67.5124 Q1944.96 67.5124 1948.69 63.1374 Q1952.46 58.7219 1952.46 51.4303 L1952.46 49.7694 L1945.04 49.7694 M1959.91 46.6907 L1959.91 72.576 L1952.46 72.576 L1952.46 65.6895 Q1949.9 69.8214 1946.1 71.8063 Q1942.29 73.7508 1936.78 73.7508 Q1929.81 73.7508 1925.68 69.8619 Q1921.59 65.9325 1921.59 59.3701 Q1921.59 51.7138 1926.69 47.825 Q1931.84 43.9361 1942 43.9361 L1952.46 43.9361 L1952.46 43.2069 Q1952.46 38.0623 1949.05 35.2672 Q1945.69 32.4315 1939.57 32.4315 Q1935.69 32.4315 1932 33.3632 Q1928.31 34.295 1924.91 36.1584 L1924.91 29.2718 Q1929 27.692 1932.85 26.9223 Q1936.7 26.1121 1940.34 26.1121 Q1950.19 26.1121 1955.05 31.2163 Q1959.91 36.3204 1959.91 46.6907 Z" fill="#000000" fill-rule="nonzero" fill-opacity="1" /><path clip-path="url(#clip680)" d="M1982.64 14.324 L1982.64 27.2059 L1997.99 27.2059 L1997.99 32.9987 L1982.64 32.9987 L1982.64 57.6282 Q1982.64 63.1779 1984.13 64.7578 Q1985.67 66.3376 1990.33 66.3376 L1997.99 66.3376 L1997.99 72.576 L1990.33 72.576 Q1981.7 72.576 1978.42 69.3758 Q1975.14 66.1351 1975.14 57.6282 L1975.14 32.9987 L1969.67 32.9987 L1969.67 27.2059 L1975.14 27.2059 L1975.14 14.324 L1982.64 14.324 Z" fill="#000000" fill-rule="nonzero" fill-opacity="1" /><path clip-path="url(#clip680)" d="M2007.79 27.2059 L2015.25 27.2059 L2015.25 72.576 L2007.79 72.576 L2007.79 27.2059 M2007.79 9.54393 L2015.25 9.54393 L2015.25 18.9825 L2007.79 18.9825 L2007.79 9.54393 Z" fill="#000000" fill-rule="nonzero" fill-opacity="1" /><path clip-path="url(#clip680)" d="M2048.42 32.4315 Q2042.43 32.4315 2038.94 37.1306 Q2035.46 41.7891 2035.46 49.9314 Q2035.46 58.0738 2038.9 62.7728 Q2042.39 67.4314 2048.42 67.4314 Q2054.38 67.4314 2057.86 62.7323 Q2061.34 58.0333 2061.34 49.9314 Q2061.34 41.8701 2057.86 37.1711 Q2054.38 32.4315 2048.42 32.4315 M2048.42 26.1121 Q2058.14 26.1121 2063.69 32.4315 Q2069.24 38.7509 2069.24 49.9314 Q2069.24 61.0714 2063.69 67.4314 Q2058.14 73.7508 2048.42 73.7508 Q2038.66 73.7508 2033.11 67.4314 Q2027.6 61.0714 2027.6 49.9314 Q2027.6 38.7509 2033.11 32.4315 Q2038.66 26.1121 2048.42 26.1121 Z" fill="#000000" fill-rule="nonzero" fill-opacity="1" /><path clip-path="url(#clip680)" d="M2119.31 45.1919 L2119.31 72.576 L2111.86 72.576 L2111.86 45.4349 Q2111.86 38.994 2109.35 35.7938 Q2106.84 32.5936 2101.81 32.5936 Q2095.78 32.5936 2092.29 36.4419 Q2088.81 40.2903 2088.81 46.9338 L2088.81 72.576 L2081.32 72.576 L2081.32 27.2059 L2088.81 27.2059 L2088.81 34.2544 Q2091.48 30.163 2095.09 28.1376 Q2098.73 26.1121 2103.47 26.1121 Q2111.29 26.1121 2115.3 30.9732 Q2119.31 35.7938 2119.31 45.1919 Z" fill="#000000" fill-rule="nonzero" fill-opacity="1" /><path clip-path="url(#clip680)" d="M2168.65 65.6895 L2197.21 65.6895 L2197.21 72.576 L2158.81 72.576 L2158.81 65.6895 Q2163.47 60.8689 2171.49 52.7671 Q2179.55 44.6248 2181.62 42.2752 Q2185.55 37.8598 2187.08 34.8216 Q2188.66 31.7429 2188.66 28.7857 Q2188.66 23.9651 2185.26 20.927 Q2181.9 17.8888 2176.47 17.8888 Q2172.62 17.8888 2168.33 19.2256 Q2164.08 20.5624 2159.21 23.2765 L2159.21 15.0127 Q2164.16 13.0277 2168.45 12.015 Q2172.74 11.0023 2176.31 11.0023 Q2185.71 11.0023 2191.3 15.7013 Q2196.89 20.4004 2196.89 28.2591 Q2196.89 31.9859 2195.47 35.3482 Q2194.09 38.6699 2190.41 43.2069 Q2189.39 44.3817 2183.97 50.0125 Q2178.54 55.6027 2168.65 65.6895 Z" fill="#000000" fill-rule="nonzero" fill-opacity="1" /><path clip-path="url(#clip680)" d="M2231.89 17.4837 Q2225.57 17.4837 2222.37 23.7221 Q2219.21 29.92 2219.21 42.3968 Q2219.21 54.833 2222.37 61.0714 Q2225.57 67.2693 2231.89 67.2693 Q2238.25 67.2693 2241.41 61.0714 Q2244.61 54.833 2244.61 42.3968 Q2244.61 29.92 2241.41 23.7221 Q2238.25 17.4837 2231.89 17.4837 M2231.89 11.0023 Q2242.06 11.0023 2247.4 19.0636 Q2252.79 27.0843 2252.79 42.3968 Q2252.79 57.6687 2247.4 65.73 Q2242.06 73.7508 2231.89 73.7508 Q2221.72 73.7508 2216.33 65.73 Q2210.98 57.6687 2210.98 42.3968 Q2210.98 27.0843 2216.33 19.0636 Q2221.72 11.0023 2231.89 11.0023 Z" fill="#000000" fill-rule="nonzero" fill-opacity="1" /><polyline clip-path="url(#clip682)" style="stroke:#009af9; stroke-linecap:round; stroke-linejoin:round; stroke-width:4; stroke-opacity:1; fill:none" points="316.67,1386.4 318.648,1310.14 320.627,1306.53 322.606,1305.96 324.585,1305.93 326.563,1305.9 328.542,1305.9 330.521,1305.9 332.5,1305.88 334.478,1305.87 336.457,1305.85 338.436,1305.85 340.415,1305.83 342.393,1305.82 344.372,1305.82 346.351,1305.81 348.33,1305.81 350.308,1305.8 352.287,1305.8 354.266,1305.79 356.245,1305.79 358.224,1305.77 360.202,1305.76 362.181,1305.75 364.16,1305.75 366.139,1305.74 368.117,1305.74 370.096,1305.72 372.075,1305.72 374.054,1305.71 376.032,1305.7 378.011,1305.69 379.99,1305.67 381.969,1305.67 383.947,1305.66 385.926,1305.66 387.905,1305.65 389.884,1305.64 391.862,1305.64 393.841,1305.64 395.82,1305.63 397.799,1305.61 399.778,1305.61 401.756,1305.6 403.735,1305.6 405.714,1305.6 407.693,1305.59 409.671,1305.58 411.65,1305.58 413.629,1305.58 415.608,1305.58 417.586,1305.58 419.565,1305.57 421.544,1305.57 423.523,1305.57 425.501,1305.57 427.48,1305.57 429.459,1305.57 431.438,1305.57 433.416,1305.57 435.395,1305.57 437.374,1305.57 439.353,1305.57 441.332,1305.57 443.31,1305.57 445.289,1305.56 447.268,1305.56 449.247,1305.56 451.225,1305.56 453.204,1305.56 455.183,1305.56 457.162,1305.56 459.14,1305.56 461.119,1305.56 463.098,1305.56 465.077,1305.56 467.055,1305.56 469.034,1305.56 471.013,1305.56 472.992,1305.56 474.97,1305.56 476.949,1305.56 478.928,1305.56 480.907,1305.56 482.886,1305.56 484.864,1305.56 486.843,1305.56 488.822,1305.56 490.801,1305.56 492.779,1305.56 494.758,1305.56 496.737,1305.56 498.716,1305.56 500.694,1305.56 502.673,1305.56 504.652,1305.56 506.631,1305.56 508.609,1305.56 510.588,1305.56 512.567,1305.56 514.546,1305.56 516.524,1305.56 518.503,1305.56 520.482,1305.56 522.461,1305.55 524.44,1305.55 526.418,1305.55 528.397,1305.55 530.376,1305.55 532.355,1305.55 534.333,1305.55 536.312,1305.55 538.291,1305.55 540.27,1305.55 542.248,1305.55 544.227,1305.55 546.206,1305.55 548.185,1305.55 550.163,1305.54 552.142,1305.54 554.121,1305.54 556.1,1305.54 558.078,1305.54 560.057,1305.54 562.036,1305.54 564.015,1305.54 565.994,1305.54 567.972,1305.54 569.951,1305.54 571.93,1305.53 573.909,1305.53 575.887,1305.53 577.866,1305.53 579.845,1305.52 581.824,1305.52 583.802,1305.52 585.781,1305.52 587.76,1305.52 589.739,1305.52 591.717,1305.52 593.696,1305.52 595.675,1305.51 597.654,1305.51 599.632,1305.51 601.611,1305.51 603.59,1305.51 605.569,1305.51 607.548,1305.51 609.526,1305.51 611.505,1305.51 613.484,1305.51 615.463,1305.5 617.441,1305.5 619.42,1305.5 621.399,1305.5 623.378,1305.5 625.356,1305.5 627.335,1305.5 629.314,1305.49 631.293,1305.49 633.271,1305.49 635.25,1305.49 637.229,1305.48 639.208,1305.48 641.186,1305.48 643.165,1305.48 645.144,1305.48 647.123,1305.47 649.102,1305.47 651.08,1305.47 653.059,1305.47 655.038,1305.46 657.017,1305.46 658.995,1305.46 660.974,1305.46 662.953,1305.45 664.932,1305.45 666.91,1305.45 668.889,1305.45 670.868,1305.45 672.847,1305.45 674.825,1305.44 676.804,1305.43 678.783,1305.43 680.762,1305.43 682.74,1305.42 684.719,1305.42 686.698,1305.42 688.677,1305.42 690.655,1305.41 692.634,1305.41 694.613,1305.39 696.592,1305.39 698.571,1305.39 700.549,1305.39 702.528,1305.39 704.507,1305.39 706.486,1305.38 708.464,1305.38 710.443,1305.38 712.422,1305.38 714.401,1305.38 716.379,1305.37 718.358,1305.37 720.337,1305.37 722.316,1305.37 724.294,1305.37 726.273,1305.37 728.252,1305.37 730.231,1305.37 732.209,1305.37 734.188,1305.36 736.167,1305.36 738.146,1305.36 740.125,1305.36 742.103,1305.36 744.082,1305.36 746.061,1305.36 748.04,1305.36 750.018,1305.36 751.997,1305.35 753.976,1305.35 755.955,1305.35 757.933,1305.35 759.912,1305.35 761.891,1305.35 763.87,1305.34 765.848,1305.34 767.827,1305.34 769.806,1305.34 771.785,1305.34 773.763,1305.34 775.742,1305.33 777.721,1305.33 779.7,1305.33 781.679,1305.33 783.657,1305.33 785.636,1305.33 787.615,1305.32 789.594,1305.32 791.572,1305.32 793.551,1305.32 795.53,1305.32 797.509,1305.32 799.487,1305.31 801.466,1305.31 803.445,1305.31 805.424,1305.31 807.402,1305.31 809.381,1305.3 811.36,1148.69 813.339,1148.67 815.317,1148.67 817.296,1148.66 819.275,1148.66 821.254,1148.66 823.233,1148.66 825.211,1148.65 827.19,1148.65 829.169,1148.64 831.148,1148.64 833.126,1148.62 835.105,1148.61 837.084,1148.61 839.063,1148.6 841.041,1148.6 843.02,1148.6 844.999,1148.6 846.978,1148.59 848.956,1148.55 850.935,1148.55 852.914,1148.54 854.893,1148.53 856.871,1148.52 858.85,1148.51 860.829,1148.49 862.808,1148.48 864.787,1148.48 866.765,1148.48 868.744,1148.47 870.723,1148.47 872.702,1148.47 874.68,1148.47 876.659,1148.47 878.638,1148.46 880.617,1148.46 882.595,1148.42 884.574,1148.42 886.553,1148.41 888.532,1148.4 890.51,1148.4 892.489,1148.4 894.468,1148.4 896.447,1148.4 898.425,1148.4 900.404,1148.38 902.383,1148.38 904.362,1148.37 906.341,1148.36 908.319,1148.35 910.298,1148.35 912.277,1148.34 914.256,1148.34 916.234,1148.33 918.213,1148.29 920.192,1148.29 922.171,1148.28 924.149,1148.27 926.128,1148.27 928.107,1148.27 930.086,1148.27 932.064,1148.27 934.043,1148.27 936.022,1148.26 938.001,1148.24 939.979,1148.21 941.958,1148.2 943.937,1148.18 945.916,1148.17 947.895,1148.17 949.873,1148.15 951.852,1148.15 953.831,1148.12 955.81,1148.06 957.788,1148.04 959.767,1148.04 961.746,1148.01 963.725,1147.99 965.703,1147.99 967.682,1147.98 969.661,1147.98 971.64,1147.95 973.618,1147.93 975.597,1147.92 977.576,1147.91 979.555,1147.9 981.533,1147.89 983.512,1147.89 985.491,1147.87 987.47,1147.84 989.449,1147.84 991.427,1147.83 993.406,1147.82 995.385,1147.79 997.364,1147.76 999.342,1147.76 1001.32,1147.75 1003.3,1147.74 1005.28,1147.73 1007.26,1147.7 1009.24,1147.69 1011.21,1147.69 1013.19,1147.64 1015.17,1147.63 1017.15,1147.59 1019.13,1147.55 1021.11,1147.52 1023.09,1147.52 1025.07,1147.48 1027.04,1147.46 1029.02,1147.45 1031,1147.44 1032.98,1147.42 1034.96,1147.4 1036.94,1147.37 1038.92,1147.28 1040.9,1147.27 1042.88,1147.24 1044.85,1147.18 1046.83,1147.18 1048.81,1147.14 1050.79,1147.09 1052.77,1147.07 1054.75,1147.05 1056.73,1147.02 1058.71,1146.86 1060.68,1146.85 1062.66,1146.84 1064.64,1146.83 1066.62,1146.79 1068.6,1146.78 1070.58,1146.7 1072.56,1146.67 1074.54,1146.65 1076.51,1146.64 1078.49,1146.47 1080.47,1146.44 1082.45,1146.34 1084.43,1146.33 1086.41,1146.27 1088.39,1146.24 1090.37,1146.18 1092.34,1146.17 1094.32,1146.06 1096.3,1145.98 1098.28,1145.78 1100.26,1145.76 1102.24,1145.76 1104.22,1145.71 1106.2,1145.71 1108.17,1145.49 1110.15,1145.47 1112.13,1145.45 1114.11,1145.19 1116.09,1145.05 1118.07,1145.02 1120.05,1144.88 1122.03,1144.8 1124,1144.79 1125.98,1144.7 1127.96,1144.69 1129.94,1144.42 1131.92,1144.37 1133.9,1144.24 1135.88,1144.2 1137.86,1143.83 1139.83,1143.6 1141.81,1143.55 1143.79,1143.33 1145.77,1143.31 1147.75,1143.29 1149.73,1143.22 1151.71,1143.09 1153.69,1142.92 1155.66,1142.89 1157.64,1142.81 1159.62,1142.56 1161.6,1142.41 1163.58,1142.34 1165.56,1142.14 1167.54,1141.84 1169.52,1141.69 1171.49,1141.61 1173.47,1141.49 1175.45,1141.29 1177.43,1141.16 1179.41,1140.18 1181.39,1140.09 1183.37,1139.72 1185.35,1139.37 1187.32,1139.05 1189.3,1138.64 1191.28,1138.21 1193.26,1137.26 1195.24,1137.2 1197.22,1136.44 1199.2,1136.24 1201.18,1136.19 1203.15,1134.23 1205.13,1133.89 1207.11,1133.27 1209.09,1132.44 1211.07,1132.33 1213.05,1132.03 1215.03,1131.33 1217.01,1130.61 1218.98,1130.43 1220.96,1130.03 1222.94,1129.74 1224.92,1128.15 1226.9,1127.94 1228.88,1126.42 1230.86,1126.17 1232.84,1124.38 1234.81,1123.96 1236.79,1123.61 1238.77,1122.46 1240.75,1122.4 1242.73,1121.83 1244.71,1119.54 1246.69,1118.83 1248.67,1118.04 1250.65,1117.63 1252.62,1116.87 1254.6,1116.67 1256.58,1116.46 1258.56,1115.96 1260.54,1113.77 1262.52,1113.74 1264.5,1108.54 1266.48,1107.05 1268.45,1106.7 1270.43,1104.21 1272.41,1102.34 1274.39,1102.25 1276.37,1099.43 1278.35,1092.21 1280.33,1088.75 1282.31,1085.82 1284.28,1084.25 1286.26,1083.48 1288.24,1077.47 1290.22,1075.61 1292.2,1073 1294.18,1056.6 1296.16,1055.02 1298.14,1054.95 1300.11,1054.31 1302.09,990.031 1304.07,711.037 1306.05,696.352 1308.03,695.157 1310.01,693.633 1311.99,692.264 1313.97,691.908 1315.94,691.79 1317.92,691.575 1319.9,691.482 1321.88,690.656 1323.86,690.532 1325.84,689.84 1327.82,689.62 1329.8,689.277 1331.77,689.057 1333.75,688.614 1335.73,688.548 1337.71,687.992 1339.69,687.967 1341.67,687.876 1343.65,687.487 1345.63,686.93 1347.6,686.477 1349.58,686.409 1351.56,685.836 1353.54,685.625 1355.52,685.559 1357.5,685.217 1359.48,685.213 1361.46,685.137 1363.43,685.131 1365.41,685.07 1367.39,684.96 1369.37,684.834 1371.35,684.815 1373.33,684.656 1375.31,684.435 1377.29,684.295 1379.26,683.949 1381.24,683.904 1383.22,683.899 1385.2,683.819 1387.18,683.808 1389.16,683.801 1391.14,683.728 1393.12,683.686 1395.09,683.554 1397.07,683.509 1399.05,683.438 1401.03,682.773 1403.01,682.691 1404.99,682.572 1406.97,682.524 1408.95,682.372 1410.92,682.209 1412.9,682.086 1414.88,682.075 1416.86,682.038 1418.84,681.911 1420.82,681.567 1422.8,681.555 1424.78,681.521 1426.75,681.508 1428.73,681.489 1430.71,681.464 1432.69,681.426 1434.67,681.366 1436.65,681.305 1438.63,681.207 1440.61,681.201 1442.58,681.181 1444.56,681.079 1446.54,681.043 1448.52,681.036 1450.5,680.993 1452.48,680.962 1454.46,680.881 1456.44,680.835 1458.42,680.771 1460.39,680.535 1462.37,680.515 1464.35,680.512 1466.33,680.509 1468.31,680.502 1470.29,680.479 1472.27,680.405 1474.25,680.192 1476.22,680.078 1478.2,679.954 1480.18,679.658 1482.16,679.624 1484.14,679.427 1486.12,679.414 1488.1,679.377 1490.08,679.352 1492.05,679.325 1494.03,679.314 1496.01,679.302 1497.99,679.211 1499.97,679.196 1501.95,679.177 1503.93,679.128 1505.91,679.12 1507.88,679.052 1509.86,679.021 1511.84,679.017 1513.82,679 1515.8,678.995 1517.78,678.939 1519.76,678.905 1521.74,678.873 1523.71,678.819 1525.69,678.812 1527.67,678.786 1529.65,678.723 1531.63,678.663 1533.61,678.593 1535.59,678.505 1537.57,678.469 1539.54,678.458 1541.52,678.286 1543.5,678.278 1545.48,678.191 1547.46,678.155 1549.44,678.061 1551.42,678.002 1553.4,677.862 1555.37,677.726 1557.35,677.715 1559.33,677.697 1561.31,677.328 1563.29,677.159 1565.27,676.689 1567.25,676.66 1569.23,676.5 1571.2,676.482 1573.18,676.33 1575.16,675.952 1577.14,675.741 1579.12,675.661 1581.1,675.173 1583.08,674.947 1585.06,674.67 1587.03,674.657 1589.01,674.61 1590.99,674.504 1592.97,674.147 1594.95,674.13 1596.93,673.861 1598.91,673.842 1600.89,673.616 1602.86,673.609 1604.84,673.248 1606.82,673.193 1608.8,672.984 1610.78,672.808 1612.76,672.664 1614.74,672.583 1616.72,672.299 1618.69,672.247 1620.67,672.01 1622.65,671.938 1624.63,671.869 1626.61,671.86 1628.59,671.655 1630.57,671.55 1632.55,671.37 1634.52,671.368 1636.5,671.063 1638.48,670.733 1640.46,670.59 1642.44,670.523 1644.42,670.487 1646.4,670.4 1648.38,670.272 1650.35,669.933 1652.33,669.661 1654.31,669.629 1656.29,669.106 1658.27,668.442 1660.25,668.252 1662.23,668.216 1664.21,668.197 1666.18,668.181 1668.16,667.735 1670.14,667.7 1672.12,667.59 1674.1,667.488 1676.08,667.323 1678.06,667.268 1680.04,666.863 1682.02,666.783 1683.99,666.493 1685.97,665.42 1687.95,665.066 1689.93,665.037 1691.91,664.724 1693.89,664.491 1695.87,664.434 1697.85,663.853 1699.82,663.53 1701.8,663.395 1703.78,663.057 1705.76,662.897 1707.74,662.803 1709.72,662.39 1711.7,662.302 1713.68,661.955 1715.65,661.898 1717.63,661.238 1719.61,660.909 1721.59,660.768 1723.57,660.766 1725.55,660.649 1727.53,660.551 1729.51,660.149 1731.48,659.836 1733.46,659.802 1735.44,659.581 1737.42,659.285 1739.4,659.246 1741.38,659.188 1743.36,659.039 1745.34,659.005 1747.31,658.975 1749.29,658.025 1751.27,657.36 1753.25,657.312 1755.23,657.142 1757.21,657.014 1759.19,656.692 1761.17,656.506 1763.14,656.159 1765.12,656.149 1767.1,655.954 1769.08,655.785 1771.06,655.678 1773.04,655.428 1775.02,655.425 1777,654.797 1778.97,654.766 1780.95,654.572 1782.93,654.414 1784.91,653.779 1786.89,653.5 1788.87,653.284 1790.85,653.064 1792.83,652.648 1794.8,648.624 1796.78,648.582 1798.76,511.89 1800.74,262.905 1802.72,258.295 1804.7,246.038 1806.68,243.42 1808.66,239.217 1810.63,238.254 1812.61,223.028 1814.59,209.648 1816.57,206.584 1818.55,195.515 1820.53,193.699 1822.51,192.51 1824.49,186.552 1826.46,183.939 1828.44,181.079 1830.42,178.296 1832.4,175.31 1834.38,174.856 1836.36,172.831 1838.34,171.298 1840.32,170.653 1842.29,170.514 1844.27,170.233 1846.25,169.624 1848.23,169.214 1850.21,169.15 1852.19,169.132 1854.17,168.904 1856.15,168.71 1858.12,168.69 1860.1,168.451 1862.08,168.014 1864.06,167.437 1866.04,167.432 1868.02,167.429 1870,167.321 1871.98,167.306 1873.95,167.228 1875.93,167.213 1877.91,167.212 1879.89,166.986 1881.87,166.868 1883.85,166.851 1885.83,166.776 1887.81,166.732 1889.79,166.679 1891.76,166.615 1893.74,166.609 1895.72,166.584 1897.7,166.539 1899.68,166.296 1901.66,166.272 1903.64,166.272 1905.62,166.244 1907.59,166.238 1909.57,166.217 1911.55,166.163 1913.53,166.162 1915.51,166.152 1917.49,166.137 1919.47,166.125 1921.45,166.123 1923.42,166.097 1925.4,166.045 1927.38,166.029 1929.36,166.021 1931.34,166.002 1933.32,165.993 1935.3,165.991 1937.28,165.988 1939.25,165.986 1941.23,165.972 1943.21,165.96 1945.19,165.956 1947.17,165.956 1949.15,165.955 1951.13,165.94 1953.11,165.94 1955.08,165.936 1957.06,165.925 1959.04,165.925 1961.02,165.924 1963,165.918 1964.98,165.917 1966.96,165.915 1968.94,165.914 1970.91,165.907 1972.89,165.895 1974.87,165.894 1976.85,165.885 1978.83,165.881 1980.81,165.88 1982.79,165.878 1984.77,165.872 1986.74,165.866 1988.72,165.854 1990.7,165.847 1992.68,165.844 1994.66,165.842 1996.64,165.842 1998.62,165.816 2000.6,165.815 2002.57,165.813 2004.55,165.789 2006.53,165.74 2008.51,165.732 2010.49,165.726 2012.47,165.724 2014.45,165.68 2016.43,165.663 2018.4,165.659 2020.38,165.639 2022.36,165.607 2024.34,165.58 2026.32,165.547 2028.3,165.464 2030.28,165.426 2032.26,165.412 2034.23,165.39 2036.21,165.342 2038.19,165.331 2040.17,165.299 2042.15,165.286 2044.13,165.218 2046.11,165.187 2048.09,165.1 2050.06,165.096 2052.04,165.069 2054.02,165.068 2056,164.963 2057.98,164.757 2059.96,164.732 2061.94,164.727 2063.92,164.599 2065.89,164.394 2067.87,164.318 2069.85,164.256 2071.83,164.213 2073.81,164.17 2075.79,164.117 2077.77,164.056 2079.75,163.999 2081.72,163.989 2083.7,163.984 2085.68,163.967 2087.66,163.94 2089.64,163.932 2091.62,163.771 2093.6,163.765 2095.58,163.688 2097.56,163.65 2099.53,163.551 2101.51,163.54 2103.49,163.515 2105.47,163.507 2107.45,163.472 2109.43,163.408 2111.41,163.403 2113.39,163.392 2115.36,163.249 2117.34,163.228 2119.32,163.096 2121.3,163.008 2123.28,162.893 2125.26,162.802 2127.24,162.754 2129.22,162.724 2131.19,162.684 2133.17,162.637 2135.15,162.589 2137.13,162.549 2139.11,162.411 2141.09,162.408 2143.07,162.282 2145.05,162.278 2147.02,162.264 2149,162.231 2150.98,162.209 2152.96,162.175 2154.94,162.17 2156.92,162.135 2158.9,162.124 2160.88,162.085 2162.85,162.055 2164.83,162.006 2166.81,161.965 2168.79,161.941 2170.77,161.902 2172.75,161.889 2174.73,161.871 2176.71,161.856 2178.68,161.812 2180.66,161.791 2182.64,161.786 2184.62,161.763 2186.6,161.716 2188.58,161.694 2190.56,161.613 2192.54,161.576 2194.51,161.544 2196.49,161.536 2198.47,161.499 2200.45,161.458 2202.43,161.455 2204.41,161.455 2206.39,161.44 2208.37,161.439 2210.34,161.428 2212.32,161.397 2214.3,161.275 2216.28,161.264 2218.26,161.214 2220.24,161.183 2222.22,161.162 2224.2,161.152 2226.17,161.106 2228.15,161.057 2230.13,161.052 2232.11,161.037 2234.09,161.022 2236.07,160.962 2238.05,160.95 2240.03,160.927 2242,160.916 2243.98,160.883 2245.96,160.864 2247.94,160.853 2249.92,160.852 2251.9,160.847 2253.88,160.821 2255.86,160.797 2257.83,160.766 2259.81,160.758 2261.79,160.747 2263.77,160.727 2265.75,160.708 2267.73,160.705 2269.71,160.687 2271.69,160.674 2273.66,160.674 2275.64,160.646 2277.62,160.626 2279.6,160.619 2281.58,160.607 2283.56,160.592 2285.54,160.518 2287.52,160.511 2289.49,160.459 2291.47,160.442 2293.45,160.256 "/>
<path clip-path="url(#clip680)" d="M327.212 270.476 L756.357 270.476 L756.357 166.796 L327.212 166.796  Z" fill="#ffffff" fill-rule="evenodd" fill-opacity="1"/>
<polyline clip-path="url(#clip680)" style="stroke:#000000; stroke-linecap:round; stroke-linejoin:round; stroke-width:4; stroke-opacity:1; fill:none" points="327.212,270.476 756.357,270.476 756.357,166.796 327.212,166.796 327.212,270.476 "/>
<polyline clip-path="url(#clip680)" style="stroke:#009af9; stroke-linecap:round; stroke-linejoin:round; stroke-width:4; stroke-opacity:1; fill:none" points="350.495,218.636 490.187,218.636 "/>
<path clip-path="url(#clip680)" d="M535.715 202.49 L535.715 207.05 Q533.052 205.777 530.691 205.152 Q528.33 204.527 526.131 204.527 Q522.312 204.527 520.228 206.008 Q518.168 207.49 518.168 210.221 Q518.168 212.513 519.534 213.694 Q520.923 214.851 524.766 215.569 L527.59 216.147 Q532.821 217.143 535.298 219.666 Q537.798 222.166 537.798 226.379 Q537.798 231.402 534.418 233.994 Q531.062 236.587 524.557 236.587 Q522.103 236.587 519.326 236.031 Q516.571 235.476 513.608 234.388 L513.608 229.573 Q516.455 231.17 519.187 231.981 Q521.918 232.791 524.557 232.791 Q528.562 232.791 530.738 231.217 Q532.914 229.643 532.914 226.726 Q532.914 224.18 531.34 222.744 Q529.789 221.309 526.224 220.592 L523.377 220.036 Q518.145 218.995 515.807 216.772 Q513.469 214.55 513.469 210.592 Q513.469 206.008 516.687 203.37 Q519.928 200.731 525.599 200.731 Q528.029 200.731 530.553 201.171 Q533.076 201.61 535.715 202.49 Z" fill="#000000" fill-rule="nonzero" fill-opacity="1" /><path clip-path="url(#clip680)" d="M544.904 209.99 L549.164 209.99 L549.164 235.916 L544.904 235.916 L544.904 209.99 M544.904 199.897 L549.164 199.897 L549.164 205.291 L544.904 205.291 L544.904 199.897 Z" fill="#000000" fill-rule="nonzero" fill-opacity="1" /><path clip-path="url(#clip680)" d="M578.261 214.967 Q579.858 212.096 582.08 210.731 Q584.302 209.365 587.311 209.365 Q591.362 209.365 593.561 212.212 Q595.76 215.036 595.76 220.268 L595.76 235.916 L591.478 235.916 L591.478 220.407 Q591.478 216.68 590.159 214.874 Q588.839 213.069 586.131 213.069 Q582.821 213.069 580.899 215.268 Q578.978 217.467 578.978 221.263 L578.978 235.916 L574.696 235.916 L574.696 220.407 Q574.696 216.657 573.376 214.874 Q572.057 213.069 569.302 213.069 Q566.038 213.069 564.117 215.291 Q562.196 217.49 562.196 221.263 L562.196 235.916 L557.913 235.916 L557.913 209.99 L562.196 209.99 L562.196 214.018 Q563.654 211.633 565.691 210.499 Q567.728 209.365 570.529 209.365 Q573.353 209.365 575.321 210.8 Q577.312 212.235 578.261 214.967 Z" fill="#000000" fill-rule="nonzero" fill-opacity="1" /><path clip-path="url(#clip680)" d="M604.256 209.99 L608.515 209.99 L608.515 235.916 L604.256 235.916 L604.256 209.99 M604.256 199.897 L608.515 199.897 L608.515 205.291 L604.256 205.291 L604.256 199.897 Z" fill="#000000" fill-rule="nonzero" fill-opacity="1" /><path clip-path="url(#clip680)" d="M617.427 199.897 L621.686 199.897 L621.686 235.916 L617.427 235.916 L617.427 199.897 Z" fill="#000000" fill-rule="nonzero" fill-opacity="1" /><path clip-path="url(#clip680)" d="M642.381 222.883 Q637.219 222.883 635.228 224.064 Q633.237 225.244 633.237 228.092 Q633.237 230.36 634.719 231.703 Q636.223 233.022 638.793 233.022 Q642.334 233.022 644.464 230.522 Q646.617 227.999 646.617 223.832 L646.617 222.883 L642.381 222.883 M650.876 221.124 L650.876 235.916 L646.617 235.916 L646.617 231.981 Q645.158 234.342 642.982 235.476 Q640.807 236.587 637.658 236.587 Q633.677 236.587 631.316 234.365 Q628.978 232.119 628.978 228.369 Q628.978 223.994 631.895 221.772 Q634.834 219.55 640.645 219.55 L646.617 219.55 L646.617 219.133 Q646.617 216.194 644.672 214.596 Q642.751 212.976 639.256 212.976 Q637.033 212.976 634.927 213.508 Q632.82 214.041 630.876 215.106 L630.876 211.17 Q633.214 210.268 635.413 209.828 Q637.612 209.365 639.695 209.365 Q645.32 209.365 648.098 212.282 Q650.876 215.198 650.876 221.124 Z" fill="#000000" fill-rule="nonzero" fill-opacity="1" /><path clip-path="url(#clip680)" d="M674.672 213.971 Q673.955 213.555 673.098 213.37 Q672.265 213.161 671.246 213.161 Q667.635 213.161 665.691 215.522 Q663.769 217.86 663.769 222.258 L663.769 235.916 L659.487 235.916 L659.487 209.99 L663.769 209.99 L663.769 214.018 Q665.112 211.657 667.265 210.522 Q669.418 209.365 672.496 209.365 Q672.936 209.365 673.468 209.434 Q674.001 209.481 674.649 209.596 L674.672 213.971 Z" fill="#000000" fill-rule="nonzero" fill-opacity="1" /><path clip-path="url(#clip680)" d="M679.14 209.99 L683.399 209.99 L683.399 235.916 L679.14 235.916 L679.14 209.99 M679.14 199.897 L683.399 199.897 L683.399 205.291 L679.14 205.291 L679.14 199.897 Z" fill="#000000" fill-rule="nonzero" fill-opacity="1" /><path clip-path="url(#clip680)" d="M696.524 202.629 L696.524 209.99 L705.297 209.99 L705.297 213.3 L696.524 213.3 L696.524 227.374 Q696.524 230.545 697.38 231.448 Q698.26 232.351 700.922 232.351 L705.297 232.351 L705.297 235.916 L700.922 235.916 Q695.991 235.916 694.116 234.087 Q692.241 232.235 692.241 227.374 L692.241 213.3 L689.116 213.3 L689.116 209.99 L692.241 209.99 L692.241 202.629 L696.524 202.629 Z" fill="#000000" fill-rule="nonzero" fill-opacity="1" /><path clip-path="url(#clip680)" d="M721.686 238.323 Q719.88 242.953 718.167 244.365 Q716.454 245.777 713.584 245.777 L710.181 245.777 L710.181 242.212 L712.681 242.212 Q714.44 242.212 715.413 241.379 Q716.385 240.545 717.565 237.443 L718.329 235.499 L707.843 209.99 L712.357 209.99 L720.459 230.268 L728.561 209.99 L733.075 209.99 L721.686 238.323 Z" fill="#000000" fill-rule="nonzero" fill-opacity="1" /></svg>
