<?xml version="1.0" encoding="utf-8"?>
<svg xmlns="http://www.w3.org/2000/svg" xmlns:xlink="http://www.w3.org/1999/xlink" width="600" height="400" viewBox="0 0 2400 1600">
<defs>
  <clipPath id="clip980">
    <rect x="0" y="0" width="2400" height="1600"/>
  </clipPath>
</defs>
<path clip-path="url(#clip980)" d="M0 1600 L2400 1600 L2400 8.88178e-14 L0 8.88178e-14  Z" fill="#ffffff" fill-rule="evenodd" fill-opacity="1"/>
<defs>
  <clipPath id="clip981">
    <rect x="480" y="0" width="1681" height="1600"/>
  </clipPath>
</defs>
<path clip-path="url(#clip980)" d="M257.366 1423.18 L2352.76 1423.18 L2352.76 123.472 L257.366 123.472  Z" fill="#ffffff" fill-rule="evenodd" fill-opacity="1"/>
<defs>
  <clipPath id="clip982">
    <rect x="257" y="123" width="2096" height="1301"/>
  </clipPath>
</defs>
<polyline clip-path="url(#clip982)" style="stroke:#000000; stroke-linecap:round; stroke-linejoin:round; stroke-width:2; stroke-opacity:0.1; fill:none" points="314.691,1423.18 314.691,123.472 "/>
<polyline clip-path="url(#clip982)" style="stroke:#000000; stroke-linecap:round; stroke-linejoin:round; stroke-width:2; stroke-opacity:0.1; fill:none" points="809.381,1423.18 809.381,123.472 "/>
<polyline clip-path="url(#clip982)" style="stroke:#000000; stroke-linecap:round; stroke-linejoin:round; stroke-width:2; stroke-opacity:0.1; fill:none" points="1304.07,1423.18 1304.07,123.472 "/>
<polyline clip-path="url(#clip982)" style="stroke:#000000; stroke-linecap:round; stroke-linejoin:round; stroke-width:2; stroke-opacity:0.1; fill:none" points="1798.76,1423.18 1798.76,123.472 "/>
<polyline clip-path="url(#clip982)" style="stroke:#000000; stroke-linecap:round; stroke-linejoin:round; stroke-width:2; stroke-opacity:0.1; fill:none" points="2293.45,1423.18 2293.45,123.472 "/>
<polyline clip-path="url(#clip980)" style="stroke:#000000; stroke-linecap:round; stroke-linejoin:round; stroke-width:4; stroke-opacity:1; fill:none" points="257.366,1423.18 2352.76,1423.18 "/>
<polyline clip-path="url(#clip980)" style="stroke:#000000; stroke-linecap:round; stroke-linejoin:round; stroke-width:4; stroke-opacity:1; fill:none" points="314.691,1423.18 314.691,1404.28 "/>
<polyline clip-path="url(#clip980)" style="stroke:#000000; stroke-linecap:round; stroke-linejoin:round; stroke-width:4; stroke-opacity:1; fill:none" points="809.381,1423.18 809.381,1404.28 "/>
<polyline clip-path="url(#clip980)" style="stroke:#000000; stroke-linecap:round; stroke-linejoin:round; stroke-width:4; stroke-opacity:1; fill:none" points="1304.07,1423.18 1304.07,1404.28 "/>
<polyline clip-path="url(#clip980)" style="stroke:#000000; stroke-linecap:round; stroke-linejoin:round; stroke-width:4; stroke-opacity:1; fill:none" points="1798.76,1423.18 1798.76,1404.28 "/>
<polyline clip-path="url(#clip980)" style="stroke:#000000; stroke-linecap:round; stroke-linejoin:round; stroke-width:4; stroke-opacity:1; fill:none" points="2293.45,1423.18 2293.45,1404.28 "/>
<path clip-path="url(#clip980)" d="M314.691 1454.1 Q311.08 1454.1 309.251 1457.66 Q307.445 1461.2 307.445 1468.33 Q307.445 1475.44 309.251 1479.01 Q311.08 1482.55 314.691 1482.55 Q318.325 1482.55 320.131 1479.01 Q321.959 1475.44 321.959 1468.33 Q321.959 1461.2 320.131 1457.66 Q318.325 1454.1 314.691 1454.1 M314.691 1450.39 Q320.501 1450.39 323.556 1455 Q326.635 1459.58 326.635 1468.33 Q326.635 1477.06 323.556 1481.67 Q320.501 1486.25 314.691 1486.25 Q308.881 1486.25 305.802 1481.67 Q302.746 1477.06 302.746 1468.33 Q302.746 1459.58 305.802 1455 Q308.881 1450.39 314.691 1450.39 Z" fill="#000000" fill-rule="nonzero" fill-opacity="1" /><path clip-path="url(#clip980)" d="M773.074 1481.64 L789.393 1481.64 L789.393 1485.58 L767.449 1485.58 L767.449 1481.64 Q770.111 1478.89 774.694 1474.26 Q779.3 1469.61 780.481 1468.27 Q782.726 1465.74 783.606 1464.01 Q784.509 1462.25 784.509 1460.56 Q784.509 1457.8 782.564 1456.07 Q780.643 1454.33 777.541 1454.33 Q775.342 1454.33 772.888 1455.09 Q770.458 1455.86 767.68 1457.41 L767.68 1452.69 Q770.504 1451.55 772.958 1450.97 Q775.411 1450.39 777.448 1450.39 Q782.819 1450.39 786.013 1453.08 Q789.208 1455.77 789.208 1460.26 Q789.208 1462.39 788.398 1464.31 Q787.61 1466.2 785.504 1468.8 Q784.925 1469.47 781.823 1472.69 Q778.722 1475.88 773.074 1481.64 Z" fill="#000000" fill-rule="nonzero" fill-opacity="1" /><path clip-path="url(#clip980)" d="M799.254 1451.02 L817.61 1451.02 L817.61 1454.96 L803.536 1454.96 L803.536 1463.43 Q804.555 1463.08 805.573 1462.92 Q806.592 1462.73 807.61 1462.73 Q813.397 1462.73 816.777 1465.9 Q820.157 1469.08 820.157 1474.49 Q820.157 1480.07 816.684 1483.17 Q813.212 1486.25 806.893 1486.25 Q804.717 1486.25 802.448 1485.88 Q800.203 1485.51 797.796 1484.77 L797.796 1480.07 Q799.879 1481.2 802.101 1481.76 Q804.323 1482.32 806.8 1482.32 Q810.805 1482.32 813.143 1480.21 Q815.481 1478.1 815.481 1474.49 Q815.481 1470.88 813.143 1468.77 Q810.805 1466.67 806.8 1466.67 Q804.925 1466.67 803.05 1467.08 Q801.198 1467.5 799.254 1468.38 L799.254 1451.02 Z" fill="#000000" fill-rule="nonzero" fill-opacity="1" /><path clip-path="url(#clip980)" d="M839.369 1454.1 Q835.758 1454.1 833.93 1457.66 Q832.124 1461.2 832.124 1468.33 Q832.124 1475.44 833.93 1479.01 Q835.758 1482.55 839.369 1482.55 Q843.004 1482.55 844.809 1479.01 Q846.638 1475.44 846.638 1468.33 Q846.638 1461.2 844.809 1457.66 Q843.004 1454.1 839.369 1454.1 M839.369 1450.39 Q845.18 1450.39 848.235 1455 Q851.314 1459.58 851.314 1468.33 Q851.314 1477.06 848.235 1481.67 Q845.18 1486.25 839.369 1486.25 Q833.559 1486.25 830.481 1481.67 Q827.425 1477.06 827.425 1468.33 Q827.425 1459.58 830.481 1455 Q833.559 1450.39 839.369 1450.39 Z" fill="#000000" fill-rule="nonzero" fill-opacity="1" /><path clip-path="url(#clip980)" d="M1263.69 1451.02 L1282.05 1451.02 L1282.05 1454.96 L1267.97 1454.96 L1267.97 1463.43 Q1268.99 1463.08 1270.01 1462.92 Q1271.03 1462.73 1272.05 1462.73 Q1277.83 1462.73 1281.21 1465.9 Q1284.59 1469.08 1284.59 1474.49 Q1284.59 1480.07 1281.12 1483.17 Q1277.65 1486.25 1271.33 1486.25 Q1269.15 1486.25 1266.88 1485.88 Q1264.64 1485.51 1262.23 1484.77 L1262.23 1480.07 Q1264.31 1481.2 1266.54 1481.76 Q1268.76 1482.32 1271.24 1482.32 Q1275.24 1482.32 1277.58 1480.21 Q1279.92 1478.1 1279.92 1474.49 Q1279.92 1470.88 1277.58 1468.77 Q1275.24 1466.67 1271.24 1466.67 Q1269.36 1466.67 1267.49 1467.08 Q1265.63 1467.5 1263.69 1468.38 L1263.69 1451.02 Z" fill="#000000" fill-rule="nonzero" fill-opacity="1" /><path clip-path="url(#clip980)" d="M1303.81 1454.1 Q1300.19 1454.1 1298.37 1457.66 Q1296.56 1461.2 1296.56 1468.33 Q1296.56 1475.44 1298.37 1479.01 Q1300.19 1482.55 1303.81 1482.55 Q1307.44 1482.55 1309.25 1479.01 Q1311.07 1475.44 1311.07 1468.33 Q1311.07 1461.2 1309.25 1457.66 Q1307.44 1454.1 1303.81 1454.1 M1303.81 1450.39 Q1309.62 1450.39 1312.67 1455 Q1315.75 1459.58 1315.75 1468.33 Q1315.75 1477.06 1312.67 1481.67 Q1309.62 1486.25 1303.81 1486.25 Q1298 1486.25 1294.92 1481.67 Q1291.86 1477.06 1291.86 1468.33 Q1291.86 1459.58 1294.92 1455 Q1298 1450.39 1303.81 1450.39 Z" fill="#000000" fill-rule="nonzero" fill-opacity="1" /><path clip-path="url(#clip980)" d="M1333.97 1454.1 Q1330.36 1454.1 1328.53 1457.66 Q1326.72 1461.2 1326.72 1468.33 Q1326.72 1475.44 1328.53 1479.01 Q1330.36 1482.55 1333.97 1482.55 Q1337.6 1482.55 1339.41 1479.01 Q1341.24 1475.44 1341.24 1468.33 Q1341.24 1461.2 1339.41 1457.66 Q1337.6 1454.1 1333.97 1454.1 M1333.97 1450.39 Q1339.78 1450.39 1342.83 1455 Q1345.91 1459.58 1345.91 1468.33 Q1345.91 1477.06 1342.83 1481.67 Q1339.78 1486.25 1333.97 1486.25 Q1328.16 1486.25 1325.08 1481.67 Q1322.02 1477.06 1322.02 1468.33 Q1322.02 1459.58 1325.08 1455 Q1328.16 1450.39 1333.97 1450.39 Z" fill="#000000" fill-rule="nonzero" fill-opacity="1" /><path clip-path="url(#clip980)" d="M1757.04 1451.02 L1779.26 1451.02 L1779.26 1453.01 L1766.71 1485.58 L1761.83 1485.58 L1773.63 1454.96 L1757.04 1454.96 L1757.04 1451.02 Z" fill="#000000" fill-rule="nonzero" fill-opacity="1" /><path clip-path="url(#clip980)" d="M1788.43 1451.02 L1806.78 1451.02 L1806.78 1454.96 L1792.71 1454.96 L1792.71 1463.43 Q1793.73 1463.08 1794.75 1462.92 Q1795.76 1462.73 1796.78 1462.73 Q1802.57 1462.73 1805.95 1465.9 Q1809.33 1469.08 1809.33 1474.49 Q1809.33 1480.07 1805.86 1483.17 Q1802.38 1486.25 1796.07 1486.25 Q1793.89 1486.25 1791.62 1485.88 Q1789.38 1485.51 1786.97 1484.77 L1786.97 1480.07 Q1789.05 1481.2 1791.27 1481.76 Q1793.5 1482.32 1795.97 1482.32 Q1799.98 1482.32 1802.32 1480.21 Q1804.65 1478.1 1804.65 1474.49 Q1804.65 1470.88 1802.32 1468.77 Q1799.98 1466.67 1795.97 1466.67 Q1794.1 1466.67 1792.22 1467.08 Q1790.37 1467.5 1788.43 1468.38 L1788.43 1451.02 Z" fill="#000000" fill-rule="nonzero" fill-opacity="1" /><path clip-path="url(#clip980)" d="M1828.54 1454.1 Q1824.93 1454.1 1823.1 1457.66 Q1821.3 1461.2 1821.3 1468.33 Q1821.3 1475.44 1823.1 1479.01 Q1824.93 1482.55 1828.54 1482.55 Q1832.18 1482.55 1833.98 1479.01 Q1835.81 1475.44 1835.81 1468.33 Q1835.81 1461.2 1833.98 1457.66 Q1832.18 1454.1 1828.54 1454.1 M1828.54 1450.39 Q1834.35 1450.39 1837.41 1455 Q1840.49 1459.58 1840.49 1468.33 Q1840.49 1477.06 1837.41 1481.67 Q1834.35 1486.25 1828.54 1486.25 Q1822.73 1486.25 1819.65 1481.67 Q1816.6 1477.06 1816.6 1468.33 Q1816.6 1459.58 1819.65 1455 Q1822.73 1450.39 1828.54 1450.39 Z" fill="#000000" fill-rule="nonzero" fill-opacity="1" /><path clip-path="url(#clip980)" d="M2237.98 1481.64 L2245.62 1481.64 L2245.62 1455.28 L2237.31 1456.95 L2237.31 1452.69 L2245.57 1451.02 L2250.25 1451.02 L2250.25 1481.64 L2257.89 1481.64 L2257.89 1485.58 L2237.98 1485.58 L2237.98 1481.64 Z" fill="#000000" fill-rule="nonzero" fill-opacity="1" /><path clip-path="url(#clip980)" d="M2277.33 1454.1 Q2273.72 1454.1 2271.89 1457.66 Q2270.08 1461.2 2270.08 1468.33 Q2270.08 1475.44 2271.89 1479.01 Q2273.72 1482.55 2277.33 1482.55 Q2280.96 1482.55 2282.77 1479.01 Q2284.6 1475.44 2284.6 1468.33 Q2284.6 1461.2 2282.77 1457.66 Q2280.96 1454.1 2277.33 1454.1 M2277.33 1450.39 Q2283.14 1450.39 2286.2 1455 Q2289.27 1459.58 2289.27 1468.33 Q2289.27 1477.06 2286.2 1481.67 Q2283.14 1486.25 2277.33 1486.25 Q2271.52 1486.25 2268.44 1481.67 Q2265.39 1477.06 2265.39 1468.33 Q2265.39 1459.58 2268.44 1455 Q2271.52 1450.39 2277.33 1450.39 Z" fill="#000000" fill-rule="nonzero" fill-opacity="1" /><path clip-path="url(#clip980)" d="M2307.49 1454.1 Q2303.88 1454.1 2302.05 1457.66 Q2300.25 1461.2 2300.25 1468.33 Q2300.25 1475.44 2302.05 1479.01 Q2303.88 1482.55 2307.49 1482.55 Q2311.13 1482.55 2312.93 1479.01 Q2314.76 1475.44 2314.76 1468.33 Q2314.76 1461.2 2312.93 1457.66 Q2311.13 1454.1 2307.49 1454.1 M2307.49 1450.39 Q2313.3 1450.39 2316.36 1455 Q2319.44 1459.58 2319.44 1468.33 Q2319.44 1477.06 2316.36 1481.67 Q2313.3 1486.25 2307.49 1486.25 Q2301.68 1486.25 2298.6 1481.67 Q2295.55 1477.06 2295.55 1468.33 Q2295.55 1459.58 2298.6 1455 Q2301.68 1450.39 2307.49 1450.39 Z" fill="#000000" fill-rule="nonzero" fill-opacity="1" /><path clip-path="url(#clip980)" d="M2337.65 1454.1 Q2334.04 1454.1 2332.21 1457.66 Q2330.41 1461.2 2330.41 1468.33 Q2330.41 1475.44 2332.21 1479.01 Q2334.04 1482.55 2337.65 1482.55 Q2341.29 1482.55 2343.09 1479.01 Q2344.92 1475.44 2344.92 1468.33 Q2344.92 1461.2 2343.09 1457.66 Q2341.29 1454.1 2337.65 1454.1 M2337.65 1450.39 Q2343.46 1450.39 2346.52 1455 Q2349.6 1459.58 2349.6 1468.33 Q2349.6 1477.06 2346.52 1481.67 Q2343.46 1486.25 2337.65 1486.25 Q2331.84 1486.25 2328.76 1481.67 Q2325.71 1477.06 2325.71 1468.33 Q2325.71 1459.58 2328.76 1455 Q2331.84 1450.39 2337.65 1450.39 Z" fill="#000000" fill-rule="nonzero" fill-opacity="1" /><path clip-path="url(#clip980)" d="M1268.9 1524.18 L1268.9 1530.96 Q1265.66 1527.94 1261.97 1526.44 Q1258.3 1524.95 1254.17 1524.95 Q1246.02 1524.95 1241.69 1529.95 Q1237.36 1534.91 1237.36 1544.33 Q1237.36 1553.72 1241.69 1558.72 Q1246.02 1563.68 1254.17 1563.68 Q1258.3 1563.68 1261.97 1562.19 Q1265.66 1560.69 1268.9 1557.67 L1268.9 1564.38 Q1265.53 1566.68 1261.74 1567.82 Q1257.99 1568.97 1253.79 1568.97 Q1243 1568.97 1236.79 1562.38 Q1230.58 1555.76 1230.58 1544.33 Q1230.58 1532.87 1236.79 1526.28 Q1243 1519.66 1253.79 1519.66 Q1258.05 1519.66 1261.81 1520.81 Q1265.59 1521.92 1268.9 1524.18 Z" fill="#000000" fill-rule="nonzero" fill-opacity="1" /><path clip-path="url(#clip980)" d="M1309.07 1548.76 L1309.07 1551.62 L1282.14 1551.62 Q1282.53 1557.67 1285.77 1560.85 Q1289.05 1564 1294.88 1564 Q1298.25 1564 1301.4 1563.17 Q1304.58 1562.35 1307.7 1560.69 L1307.7 1566.23 Q1304.55 1567.57 1301.24 1568.27 Q1297.93 1568.97 1294.53 1568.97 Q1286 1568.97 1281 1564 Q1276.03 1559.04 1276.03 1550.57 Q1276.03 1541.82 1280.74 1536.69 Q1285.49 1531.54 1293.51 1531.54 Q1300.7 1531.54 1304.87 1536.18 Q1309.07 1540.8 1309.07 1548.76 M1303.21 1547.04 Q1303.15 1542.23 1300.51 1539.37 Q1297.9 1536.5 1293.57 1536.5 Q1288.67 1536.5 1285.71 1539.27 Q1282.78 1542.04 1282.34 1547.07 L1303.21 1547.04 Z" fill="#000000" fill-rule="nonzero" fill-opacity="1" /><path clip-path="url(#clip980)" d="M1318.68 1518.52 L1324.54 1518.52 L1324.54 1568.04 L1318.68 1568.04 L1318.68 1518.52 Z" fill="#000000" fill-rule="nonzero" fill-opacity="1" /><path clip-path="url(#clip980)" d="M1336.79 1518.52 L1342.65 1518.52 L1342.65 1568.04 L1336.79 1568.04 L1336.79 1518.52 Z" fill="#000000" fill-rule="nonzero" fill-opacity="1" /><path clip-path="url(#clip980)" d="M1377.63 1533.45 L1377.63 1538.98 Q1375.15 1537.71 1372.47 1537.07 Q1369.8 1536.44 1366.94 1536.44 Q1362.58 1536.44 1360.38 1537.77 Q1358.21 1539.11 1358.21 1541.79 Q1358.21 1543.82 1359.77 1545 Q1361.33 1546.15 1366.04 1547.2 L1368.05 1547.64 Q1374.29 1548.98 1376.9 1551.43 Q1379.54 1553.85 1379.54 1558.21 Q1379.54 1563.17 1375.59 1566.07 Q1371.68 1568.97 1364.8 1568.97 Q1361.94 1568.97 1358.82 1568.39 Q1355.73 1567.85 1352.29 1566.74 L1352.29 1560.69 Q1355.54 1562.38 1358.69 1563.24 Q1361.84 1564.07 1364.93 1564.07 Q1369.07 1564.07 1371.3 1562.66 Q1373.52 1561.23 1373.52 1558.65 Q1373.52 1556.27 1371.9 1554.99 Q1370.31 1553.72 1364.87 1552.54 L1362.83 1552.07 Q1357.39 1550.92 1354.97 1548.56 Q1352.55 1546.18 1352.55 1542.04 Q1352.55 1537.01 1356.11 1534.27 Q1359.68 1531.54 1366.24 1531.54 Q1369.48 1531.54 1372.35 1532.01 Q1375.21 1532.49 1377.63 1533.45 Z" fill="#000000" fill-rule="nonzero" fill-opacity="1" /><polyline clip-path="url(#clip982)" style="stroke:#000000; stroke-linecap:round; stroke-linejoin:round; stroke-width:2; stroke-opacity:0.1; fill:none" points="257.366,1326.88 2352.76,1326.88 "/>
<polyline clip-path="url(#clip982)" style="stroke:#000000; stroke-linecap:round; stroke-linejoin:round; stroke-width:2; stroke-opacity:0.1; fill:none" points="257.366,1078.67 2352.76,1078.67 "/>
<polyline clip-path="url(#clip982)" style="stroke:#000000; stroke-linecap:round; stroke-linejoin:round; stroke-width:2; stroke-opacity:0.1; fill:none" points="257.366,830.47 2352.76,830.47 "/>
<polyline clip-path="url(#clip982)" style="stroke:#000000; stroke-linecap:round; stroke-linejoin:round; stroke-width:2; stroke-opacity:0.1; fill:none" points="257.366,582.267 2352.76,582.267 "/>
<polyline clip-path="url(#clip982)" style="stroke:#000000; stroke-linecap:round; stroke-linejoin:round; stroke-width:2; stroke-opacity:0.1; fill:none" points="257.366,334.064 2352.76,334.064 "/>
<polyline clip-path="url(#clip980)" style="stroke:#000000; stroke-linecap:round; stroke-linejoin:round; stroke-width:4; stroke-opacity:1; fill:none" points="257.366,1423.18 257.366,123.472 "/>
<polyline clip-path="url(#clip980)" style="stroke:#000000; stroke-linecap:round; stroke-linejoin:round; stroke-width:4; stroke-opacity:1; fill:none" points="257.366,1326.88 276.264,1326.88 "/>
<polyline clip-path="url(#clip980)" style="stroke:#000000; stroke-linecap:round; stroke-linejoin:round; stroke-width:4; stroke-opacity:1; fill:none" points="257.366,1078.67 276.264,1078.67 "/>
<polyline clip-path="url(#clip980)" style="stroke:#000000; stroke-linecap:round; stroke-linejoin:round; stroke-width:4; stroke-opacity:1; fill:none" points="257.366,830.47 276.264,830.47 "/>
<polyline clip-path="url(#clip980)" style="stroke:#000000; stroke-linecap:round; stroke-linejoin:round; stroke-width:4; stroke-opacity:1; fill:none" points="257.366,582.267 276.264,582.267 "/>
<polyline clip-path="url(#clip980)" style="stroke:#000000; stroke-linecap:round; stroke-linejoin:round; stroke-width:4; stroke-opacity:1; fill:none" points="257.366,334.064 276.264,334.064 "/>
<path clip-path="url(#clip980)" d="M114.26 1327.33 L143.936 1327.33 L143.936 1331.26 L114.26 1331.26 L114.26 1327.33 Z" fill="#000000" fill-rule="nonzero" fill-opacity="1" /><path clip-path="url(#clip980)" d="M164.028 1312.68 Q160.417 1312.68 158.589 1316.24 Q156.783 1319.78 156.783 1326.91 Q156.783 1334.02 158.589 1337.58 Q160.417 1341.12 164.028 1341.12 Q167.663 1341.12 169.468 1337.58 Q171.297 1334.02 171.297 1326.91 Q171.297 1319.78 169.468 1316.24 Q167.663 1312.68 164.028 1312.68 M164.028 1308.97 Q169.839 1308.97 172.894 1313.58 Q175.973 1318.16 175.973 1326.91 Q175.973 1335.64 172.894 1340.24 Q169.839 1344.83 164.028 1344.83 Q158.218 1344.83 155.14 1340.24 Q152.084 1335.64 152.084 1326.91 Q152.084 1318.16 155.14 1313.58 Q158.218 1308.97 164.028 1308.97 Z" fill="#000000" fill-rule="nonzero" fill-opacity="1" /><path clip-path="url(#clip980)" d="M184.19 1338.28 L189.075 1338.28 L189.075 1344.16 L184.19 1344.16 L184.19 1338.28 Z" fill="#000000" fill-rule="nonzero" fill-opacity="1" /><path clip-path="url(#clip980)" d="M209.838 1325.01 Q206.69 1325.01 204.838 1327.17 Q203.01 1329.32 203.01 1333.07 Q203.01 1336.8 204.838 1338.97 Q206.69 1341.12 209.838 1341.12 Q212.986 1341.12 214.815 1338.97 Q216.667 1336.8 216.667 1333.07 Q216.667 1329.32 214.815 1327.17 Q212.986 1325.01 209.838 1325.01 M219.121 1310.36 L219.121 1314.62 Q217.361 1313.79 215.556 1313.35 Q213.774 1312.91 212.014 1312.91 Q207.385 1312.91 204.931 1316.03 Q202.5 1319.16 202.153 1325.48 Q203.519 1323.46 205.579 1322.4 Q207.639 1321.31 210.116 1321.31 Q215.324 1321.31 218.334 1324.48 Q221.366 1327.63 221.366 1333.07 Q221.366 1338.39 218.218 1341.61 Q215.07 1344.83 209.838 1344.83 Q203.843 1344.83 200.672 1340.24 Q197.5 1335.64 197.5 1326.91 Q197.5 1318.72 201.389 1313.86 Q205.278 1308.97 211.829 1308.97 Q213.588 1308.97 215.371 1309.32 Q217.176 1309.67 219.121 1310.36 Z" fill="#000000" fill-rule="nonzero" fill-opacity="1" /><path clip-path="url(#clip980)" d="M115.07 1079.12 L144.746 1079.12 L144.746 1083.06 L115.07 1083.06 L115.07 1079.12 Z" fill="#000000" fill-rule="nonzero" fill-opacity="1" /><path clip-path="url(#clip980)" d="M164.839 1064.47 Q161.227 1064.47 159.399 1068.04 Q157.593 1071.58 157.593 1078.71 Q157.593 1085.81 159.399 1089.38 Q161.227 1092.92 164.839 1092.92 Q168.473 1092.92 170.278 1089.38 Q172.107 1085.81 172.107 1078.71 Q172.107 1071.58 170.278 1068.04 Q168.473 1064.47 164.839 1064.47 M164.839 1060.77 Q170.649 1060.77 173.704 1065.37 Q176.783 1069.96 176.783 1078.71 Q176.783 1087.43 173.704 1092.04 Q170.649 1096.62 164.839 1096.62 Q159.028 1096.62 155.95 1092.04 Q152.894 1087.43 152.894 1078.71 Q152.894 1069.96 155.95 1065.37 Q159.028 1060.77 164.839 1060.77 Z" fill="#000000" fill-rule="nonzero" fill-opacity="1" /><path clip-path="url(#clip980)" d="M185.001 1090.07 L189.885 1090.07 L189.885 1095.95 L185.001 1095.95 L185.001 1090.07 Z" fill="#000000" fill-rule="nonzero" fill-opacity="1" /><path clip-path="url(#clip980)" d="M214.236 1077.32 Q217.593 1078.04 219.468 1080.31 Q221.366 1082.57 221.366 1085.91 Q221.366 1091.02 217.848 1093.82 Q214.329 1096.62 207.848 1096.62 Q205.672 1096.62 203.357 1096.18 Q201.065 1095.77 198.612 1094.91 L198.612 1090.4 Q200.556 1091.53 202.871 1092.11 Q205.186 1092.69 207.709 1092.69 Q212.107 1092.69 214.399 1090.95 Q216.713 1089.22 216.713 1085.91 Q216.713 1082.85 214.561 1081.14 Q212.431 1079.4 208.612 1079.4 L204.584 1079.4 L204.584 1075.56 L208.797 1075.56 Q212.246 1075.56 214.074 1074.19 Q215.903 1072.81 215.903 1070.21 Q215.903 1067.55 214.005 1066.14 Q212.13 1064.7 208.612 1064.7 Q206.69 1064.7 204.491 1065.12 Q202.292 1065.54 199.653 1066.42 L199.653 1062.25 Q202.315 1061.51 204.63 1061.14 Q206.968 1060.77 209.028 1060.77 Q214.352 1060.77 217.454 1063.2 Q220.556 1065.61 220.556 1069.73 Q220.556 1072.6 218.912 1074.59 Q217.269 1076.56 214.236 1077.32 Z" fill="#000000" fill-rule="nonzero" fill-opacity="1" /><path clip-path="url(#clip980)" d="M164.19 816.269 Q160.579 816.269 158.751 819.833 Q156.945 823.375 156.945 830.505 Q156.945 837.611 158.751 841.176 Q160.579 844.718 164.19 844.718 Q167.825 844.718 169.63 841.176 Q171.459 837.611 171.459 830.505 Q171.459 823.375 169.63 819.833 Q167.825 816.269 164.19 816.269 M164.19 812.565 Q170.001 812.565 173.056 817.171 Q176.135 821.755 176.135 830.505 Q176.135 839.232 173.056 843.838 Q170.001 848.421 164.19 848.421 Q158.38 848.421 155.302 843.838 Q152.246 839.232 152.246 830.505 Q152.246 821.755 155.302 817.171 Q158.38 812.565 164.19 812.565 Z" fill="#000000" fill-rule="nonzero" fill-opacity="1" /><path clip-path="url(#clip980)" d="M184.352 841.87 L189.237 841.87 L189.237 847.75 L184.352 847.75 L184.352 841.87 Z" fill="#000000" fill-rule="nonzero" fill-opacity="1" /><path clip-path="url(#clip980)" d="M209.422 816.269 Q205.811 816.269 203.982 819.833 Q202.176 823.375 202.176 830.505 Q202.176 837.611 203.982 841.176 Q205.811 844.718 209.422 844.718 Q213.056 844.718 214.861 841.176 Q216.69 837.611 216.69 830.505 Q216.69 823.375 214.861 819.833 Q213.056 816.269 209.422 816.269 M209.422 812.565 Q215.232 812.565 218.287 817.171 Q221.366 821.755 221.366 830.505 Q221.366 839.232 218.287 843.838 Q215.232 848.421 209.422 848.421 Q203.612 848.421 200.533 843.838 Q197.477 839.232 197.477 830.505 Q197.477 821.755 200.533 817.171 Q203.612 812.565 209.422 812.565 Z" fill="#000000" fill-rule="nonzero" fill-opacity="1" /><path clip-path="url(#clip980)" d="M164.839 568.066 Q161.227 568.066 159.399 571.63 Q157.593 575.172 157.593 582.302 Q157.593 589.408 159.399 592.973 Q161.227 596.514 164.839 596.514 Q168.473 596.514 170.278 592.973 Q172.107 589.408 172.107 582.302 Q172.107 575.172 170.278 571.63 Q168.473 568.066 164.839 568.066 M164.839 564.362 Q170.649 564.362 173.704 568.968 Q176.783 573.552 176.783 582.302 Q176.783 591.028 173.704 595.635 Q170.649 600.218 164.839 600.218 Q159.028 600.218 155.95 595.635 Q152.894 591.028 152.894 582.302 Q152.894 573.552 155.95 568.968 Q159.028 564.362 164.839 564.362 Z" fill="#000000" fill-rule="nonzero" fill-opacity="1" /><path clip-path="url(#clip980)" d="M185.001 593.667 L189.885 593.667 L189.885 599.547 L185.001 599.547 L185.001 593.667 Z" fill="#000000" fill-rule="nonzero" fill-opacity="1" /><path clip-path="url(#clip980)" d="M214.236 580.913 Q217.593 581.63 219.468 583.899 Q221.366 586.167 221.366 589.501 Q221.366 594.616 217.848 597.417 Q214.329 600.218 207.848 600.218 Q205.672 600.218 203.357 599.778 Q201.065 599.362 198.612 598.505 L198.612 593.991 Q200.556 595.126 202.871 595.704 Q205.186 596.283 207.709 596.283 Q212.107 596.283 214.399 594.547 Q216.713 592.811 216.713 589.501 Q216.713 586.445 214.561 584.732 Q212.431 582.996 208.612 582.996 L204.584 582.996 L204.584 579.153 L208.797 579.153 Q212.246 579.153 214.074 577.788 Q215.903 576.399 215.903 573.806 Q215.903 571.144 214.005 569.732 Q212.13 568.297 208.612 568.297 Q206.69 568.297 204.491 568.714 Q202.292 569.13 199.653 570.01 L199.653 565.843 Q202.315 565.103 204.63 564.732 Q206.968 564.362 209.028 564.362 Q214.352 564.362 217.454 566.792 Q220.556 569.2 220.556 573.32 Q220.556 576.19 218.912 578.181 Q217.269 580.149 214.236 580.913 Z" fill="#000000" fill-rule="nonzero" fill-opacity="1" /><path clip-path="url(#clip980)" d="M164.028 319.862 Q160.417 319.862 158.589 323.427 Q156.783 326.969 156.783 334.098 Q156.783 341.205 158.589 344.77 Q160.417 348.311 164.028 348.311 Q167.663 348.311 169.468 344.77 Q171.297 341.205 171.297 334.098 Q171.297 326.969 169.468 323.427 Q167.663 319.862 164.028 319.862 M164.028 316.159 Q169.839 316.159 172.894 320.765 Q175.973 325.348 175.973 334.098 Q175.973 342.825 172.894 347.432 Q169.839 352.015 164.028 352.015 Q158.218 352.015 155.14 347.432 Q152.084 342.825 152.084 334.098 Q152.084 325.348 155.14 320.765 Q158.218 316.159 164.028 316.159 Z" fill="#000000" fill-rule="nonzero" fill-opacity="1" /><path clip-path="url(#clip980)" d="M184.19 345.464 L189.075 345.464 L189.075 351.344 L184.19 351.344 L184.19 345.464 Z" fill="#000000" fill-rule="nonzero" fill-opacity="1" /><path clip-path="url(#clip980)" d="M209.838 332.2 Q206.69 332.2 204.838 334.353 Q203.01 336.506 203.01 340.256 Q203.01 343.983 204.838 346.159 Q206.69 348.311 209.838 348.311 Q212.986 348.311 214.815 346.159 Q216.667 343.983 216.667 340.256 Q216.667 336.506 214.815 334.353 Q212.986 332.2 209.838 332.2 M219.121 317.548 L219.121 321.807 Q217.361 320.973 215.556 320.534 Q213.774 320.094 212.014 320.094 Q207.385 320.094 204.931 323.219 Q202.5 326.344 202.153 332.663 Q203.519 330.649 205.579 329.585 Q207.639 328.497 210.116 328.497 Q215.324 328.497 218.334 331.668 Q221.366 334.816 221.366 340.256 Q221.366 345.58 218.218 348.797 Q215.07 352.015 209.838 352.015 Q203.843 352.015 200.672 347.432 Q197.5 342.825 197.5 334.098 Q197.5 325.904 201.389 321.043 Q205.278 316.159 211.829 316.159 Q213.588 316.159 215.371 316.506 Q217.176 316.853 219.121 317.548 Z" fill="#000000" fill-rule="nonzero" fill-opacity="1" /><path clip-path="url(#clip980)" d="M18.0438 893.717 L24.314 893.717 Q22.5634 897.378 21.704 900.624 Q20.8447 903.871 20.8447 906.894 Q20.8447 912.146 22.8817 915.011 Q24.9187 917.843 28.6745 917.843 Q31.8255 917.843 33.4488 915.966 Q35.0402 914.056 36.0269 908.772 L36.8226 904.889 Q38.1912 897.696 41.6605 894.29 Q45.098 890.853 50.8908 890.853 Q57.7976 890.853 61.3624 895.5 Q64.9272 900.115 64.9272 909.059 Q64.9272 912.433 64.1633 916.252 Q63.3994 920.04 61.9035 924.114 L55.2831 924.114 Q57.4793 920.199 58.5933 916.443 Q59.7073 912.687 59.7073 909.059 Q59.7073 903.552 57.543 900.561 Q55.3786 897.569 51.3682 897.569 Q47.8671 897.569 45.8937 899.733 Q43.9204 901.866 42.9337 906.767 L42.1698 910.682 Q40.7375 917.875 37.682 921.09 Q34.6264 924.305 29.1837 924.305 Q22.8817 924.305 19.2532 919.88 Q15.6248 915.424 15.6248 907.626 Q15.6248 904.284 16.2295 900.815 Q16.8343 897.346 18.0438 893.717 Z" fill="#000000" fill-rule="nonzero" fill-opacity="1" /><path clip-path="url(#clip980)" d="M28.3562 881.081 L28.3562 875.225 L64.0042 875.225 L64.0042 881.081 L28.3562 881.081 M14.479 881.081 L14.479 875.225 L21.895 875.225 L21.895 881.081 L14.479 881.081 Z" fill="#000000" fill-rule="nonzero" fill-opacity="1" /><path clip-path="url(#clip980)" d="M35.1993 835.217 Q31.2526 833.02 29.3747 829.965 Q27.4968 826.909 27.4968 822.772 Q27.4968 817.202 31.4117 814.178 Q35.2948 811.154 42.4881 811.154 L64.0042 811.154 L64.0042 817.042 L42.679 817.042 Q37.5546 817.042 35.072 818.857 Q32.5894 820.671 32.5894 824.395 Q32.5894 828.946 35.6131 831.588 Q38.6368 834.23 43.8567 834.23 L64.0042 834.23 L64.0042 840.118 L42.679 840.118 Q37.5228 840.118 35.072 841.932 Q32.5894 843.747 32.5894 847.534 Q32.5894 852.022 35.6449 854.664 Q38.6686 857.306 43.8567 857.306 L64.0042 857.306 L64.0042 863.194 L28.3562 863.194 L28.3562 857.306 L33.8944 857.306 Q30.616 855.3 29.0564 852.499 Q27.4968 849.699 27.4968 845.847 Q27.4968 841.964 29.4702 839.259 Q31.4436 836.522 35.1993 835.217 Z" fill="#000000" fill-rule="nonzero" fill-opacity="1" /><path clip-path="url(#clip980)" d="M28.3562 799.473 L28.3562 793.617 L64.0042 793.617 L64.0042 799.473 L28.3562 799.473 M14.479 799.473 L14.479 793.617 L21.895 793.617 L21.895 799.473 L14.479 799.473 Z" fill="#000000" fill-rule="nonzero" fill-opacity="1" /><path clip-path="url(#clip980)" d="M14.479 781.363 L14.479 775.506 L64.0042 775.506 L64.0042 781.363 L14.479 781.363 Z" fill="#000000" fill-rule="nonzero" fill-opacity="1" /><path clip-path="url(#clip980)" d="M46.0847 747.052 Q46.0847 754.149 47.7079 756.887 Q49.3312 759.624 53.2461 759.624 Q56.3653 759.624 58.2114 757.587 Q60.0256 755.518 60.0256 751.985 Q60.0256 747.115 56.5881 744.187 Q53.1188 741.227 47.3897 741.227 L46.0847 741.227 L46.0847 747.052 M43.6657 735.37 L64.0042 735.37 L64.0042 741.227 L58.5933 741.227 Q61.8398 743.232 63.3994 746.224 Q64.9272 749.216 64.9272 753.545 Q64.9272 759.019 61.8716 762.266 Q58.7843 765.48 53.6281 765.48 Q47.6125 765.48 44.5569 761.47 Q41.5014 757.428 41.5014 749.439 L41.5014 741.227 L40.9285 741.227 Q36.8862 741.227 34.6901 743.901 Q32.4621 746.542 32.4621 751.348 Q32.4621 754.404 33.1941 757.3 Q33.9262 760.197 35.3903 762.87 L29.9795 762.87 Q28.7381 759.656 28.1334 756.632 Q27.4968 753.608 27.4968 750.744 Q27.4968 743.009 31.5072 739.19 Q35.5176 735.37 43.6657 735.37 Z" fill="#000000" fill-rule="nonzero" fill-opacity="1" /><path clip-path="url(#clip980)" d="M33.8307 702.651 Q33.2578 703.637 33.0032 704.815 Q32.7167 705.961 32.7167 707.361 Q32.7167 712.327 35.9632 715 Q39.1779 717.642 45.2253 717.642 L64.0042 717.642 L64.0042 723.53 L28.3562 723.53 L28.3562 717.642 L33.8944 717.642 Q30.6479 715.796 29.0883 712.836 Q27.4968 709.876 27.4968 705.643 Q27.4968 705.038 27.5923 704.306 Q27.656 703.574 27.8151 702.683 L33.8307 702.651 Z" fill="#000000" fill-rule="nonzero" fill-opacity="1" /><path clip-path="url(#clip980)" d="M28.3562 696.508 L28.3562 690.651 L64.0042 690.651 L64.0042 696.508 L28.3562 696.508 M14.479 696.508 L14.479 690.651 L21.895 690.651 L21.895 696.508 L14.479 696.508 Z" fill="#000000" fill-rule="nonzero" fill-opacity="1" /><path clip-path="url(#clip980)" d="M18.2347 672.605 L28.3562 672.605 L28.3562 660.542 L32.9077 660.542 L32.9077 672.605 L52.2594 672.605 Q56.6199 672.605 57.8613 671.427 Q59.1026 670.217 59.1026 666.557 L59.1026 660.542 L64.0042 660.542 L64.0042 666.557 Q64.0042 673.337 61.4897 675.915 Q58.9434 678.493 52.2594 678.493 L32.9077 678.493 L32.9077 682.79 L28.3562 682.79 L28.3562 678.493 L18.2347 678.493 L18.2347 672.605 Z" fill="#000000" fill-rule="nonzero" fill-opacity="1" /><path clip-path="url(#clip980)" d="M67.3143 638.007 Q73.68 640.49 75.6216 642.845 Q77.5631 645.2 77.5631 649.147 L77.5631 653.826 L72.6615 653.826 L72.6615 650.388 Q72.6615 647.969 71.5157 646.633 Q70.3699 645.296 66.1048 643.672 L63.4312 642.622 L28.3562 657.04 L28.3562 650.834 L56.238 639.694 L28.3562 628.554 L28.3562 622.347 L67.3143 638.007 Z" fill="#000000" fill-rule="nonzero" fill-opacity="1" /><path clip-path="url(#clip980)" d="M423.523 14.0809 L423.523 22.0612 Q418.865 19.8332 414.733 18.7395 Q410.601 17.6457 406.753 17.6457 Q400.069 17.6457 396.423 20.2383 Q392.818 22.8309 392.818 27.611 Q392.818 31.6214 395.208 33.6873 Q397.638 35.7128 404.363 36.9686 L409.305 37.9813 Q418.46 39.7232 422.794 44.1387 Q427.169 48.5136 427.169 55.8863 Q427.169 64.6767 421.255 69.2137 Q415.381 73.7508 403.998 73.7508 Q399.704 73.7508 394.843 72.7785 Q390.022 71.8063 384.837 69.9024 L384.837 61.4765 Q389.82 64.2716 394.6 65.6895 Q399.38 67.1073 403.998 67.1073 Q411.006 67.1073 414.814 64.3527 Q418.622 61.598 418.622 56.4939 Q418.622 52.0379 415.867 49.5264 Q413.153 47.0148 406.915 45.759 L401.932 44.7868 Q392.777 42.9639 388.686 39.075 Q384.594 35.1862 384.594 28.2591 Q384.594 20.2383 390.225 15.6203 Q395.896 11.0023 405.821 11.0023 Q410.074 11.0023 414.49 11.7719 Q418.905 12.5416 423.523 14.0809 Z" fill="#000000" fill-rule="nonzero" fill-opacity="1" /><path clip-path="url(#clip980)" d="M457.186 32.4315 Q451.191 32.4315 447.707 37.1306 Q444.224 41.7891 444.224 49.9314 Q444.224 58.0738 447.667 62.7728 Q451.151 67.4314 457.186 67.4314 Q463.141 67.4314 466.625 62.7323 Q470.109 58.0333 470.109 49.9314 Q470.109 41.8701 466.625 37.1711 Q463.141 32.4315 457.186 32.4315 M457.186 26.1121 Q466.909 26.1121 472.458 32.4315 Q478.008 38.7509 478.008 49.9314 Q478.008 61.0714 472.458 67.4314 Q466.909 73.7508 457.186 73.7508 Q447.424 73.7508 441.874 67.4314 Q436.365 61.0714 436.365 49.9314 Q436.365 38.7509 441.874 32.4315 Q447.424 26.1121 457.186 26.1121 Z" fill="#000000" fill-rule="nonzero" fill-opacity="1" /><path clip-path="url(#clip980)" d="M516.654 34.1734 Q515.398 33.4443 513.899 33.1202 Q512.441 32.7556 510.658 32.7556 Q504.339 32.7556 500.936 36.8875 Q497.574 40.9789 497.574 48.6757 L497.574 72.576 L490.08 72.576 L490.08 27.2059 L497.574 27.2059 L497.574 34.2544 Q499.924 30.1225 503.691 28.1376 Q507.458 26.1121 512.846 26.1121 Q513.616 26.1121 514.547 26.2337 Q515.479 26.3147 516.613 26.5172 L516.654 34.1734 Z" fill="#000000" fill-rule="nonzero" fill-opacity="1" /><path clip-path="url(#clip980)" d="M531.845 14.324 L531.845 27.2059 L547.198 27.2059 L547.198 32.9987 L531.845 32.9987 L531.845 57.6282 Q531.845 63.1779 533.343 64.7578 Q534.883 66.3376 539.541 66.3376 L547.198 66.3376 L547.198 72.576 L539.541 72.576 Q530.913 72.576 527.632 69.3758 Q524.35 66.1351 524.35 57.6282 L524.35 32.9987 L518.882 32.9987 L518.882 27.2059 L524.35 27.2059 L524.35 14.324 L531.845 14.324 Z" fill="#000000" fill-rule="nonzero" fill-opacity="1" /><path clip-path="url(#clip980)" d="M595.808 48.0275 L595.808 51.6733 L561.538 51.6733 Q562.024 59.3701 566.156 63.421 Q570.328 67.4314 577.741 67.4314 Q582.035 67.4314 586.046 66.3781 Q590.097 65.3249 594.067 63.2184 L594.067 70.267 Q590.056 71.9684 585.843 72.8596 Q581.63 73.7508 577.296 73.7508 Q566.439 73.7508 560.079 67.4314 Q553.76 61.1119 553.76 50.3365 Q553.76 39.1965 559.755 32.6746 Q565.791 26.1121 575.999 26.1121 Q585.155 26.1121 590.461 32.0264 Q595.808 37.9003 595.808 48.0275 M588.355 45.84 Q588.274 39.7232 584.911 36.0774 Q581.59 32.4315 576.081 32.4315 Q569.842 32.4315 566.075 35.9558 Q562.348 39.4801 561.781 45.8805 L588.355 45.84 Z" fill="#000000" fill-rule="nonzero" fill-opacity="1" /><path clip-path="url(#clip980)" d="M637.897 34.0924 L637.897 9.54393 L645.351 9.54393 L645.351 72.576 L637.897 72.576 L637.897 65.7705 Q635.548 69.8214 631.942 71.8063 Q628.378 73.7508 623.355 73.7508 Q615.131 73.7508 609.946 67.1883 Q604.801 60.6258 604.801 49.9314 Q604.801 39.2371 609.946 32.6746 Q615.131 26.1121 623.355 26.1121 Q628.378 26.1121 631.942 28.0971 Q635.548 30.0415 637.897 34.0924 M612.498 49.9314 Q612.498 58.1548 615.86 62.8538 Q619.263 67.5124 625.177 67.5124 Q631.092 67.5124 634.495 62.8538 Q637.897 58.1548 637.897 49.9314 Q637.897 41.7081 634.495 37.0496 Q631.092 32.3505 625.177 32.3505 Q619.263 32.3505 615.86 37.0496 Q612.498 41.7081 612.498 49.9314 Z" fill="#000000" fill-rule="nonzero" fill-opacity="1" /><path clip-path="url(#clip980)" d="M719.726 28.9478 L719.726 35.9153 Q716.566 34.1734 713.366 33.3227 Q710.206 32.4315 706.965 32.4315 Q699.714 32.4315 695.704 37.0496 Q691.693 41.6271 691.693 49.9314 Q691.693 58.2358 695.704 62.8538 Q699.714 67.4314 706.965 67.4314 Q710.206 67.4314 713.366 66.5807 Q716.566 65.6895 719.726 63.9476 L719.726 70.8341 Q716.606 72.2924 713.244 73.0216 Q709.922 73.7508 706.155 73.7508 Q695.906 73.7508 689.87 67.3098 Q683.835 60.8689 683.835 49.9314 Q683.835 38.832 689.911 32.472 Q696.028 26.1121 706.641 26.1121 Q710.084 26.1121 713.366 26.8413 Q716.647 27.5299 719.726 28.9478 Z" fill="#000000" fill-rule="nonzero" fill-opacity="1" /><path clip-path="url(#clip980)" d="M750.269 32.4315 Q744.274 32.4315 740.79 37.1306 Q737.307 41.7891 737.307 49.9314 Q737.307 58.0738 740.75 62.7728 Q744.234 67.4314 750.269 67.4314 Q756.224 67.4314 759.708 62.7323 Q763.192 58.0333 763.192 49.9314 Q763.192 41.8701 759.708 37.1711 Q756.224 32.4315 750.269 32.4315 M750.269 26.1121 Q759.992 26.1121 765.541 32.4315 Q771.091 38.7509 771.091 49.9314 Q771.091 61.0714 765.541 67.4314 Q759.992 73.7508 750.269 73.7508 Q740.507 73.7508 734.957 67.4314 Q729.448 61.0714 729.448 49.9314 Q729.448 38.7509 734.957 32.4315 Q740.507 26.1121 750.269 26.1121 Z" fill="#000000" fill-rule="nonzero" fill-opacity="1" /><path clip-path="url(#clip980)" d="M812.37 28.5427 L812.37 35.5912 Q809.21 33.9709 805.807 33.1607 Q802.405 32.3505 798.759 32.3505 Q793.209 32.3505 790.414 34.0519 Q787.659 35.7533 787.659 39.156 Q787.659 41.7486 789.644 43.2475 Q791.629 44.7058 797.624 46.0426 L800.177 46.6097 Q808.116 48.3111 811.438 51.4303 Q814.8 54.509 814.8 60.0587 Q814.8 66.3781 809.777 70.0644 Q804.795 73.7508 796.045 73.7508 Q792.399 73.7508 788.429 73.0216 Q784.5 72.3329 780.125 70.9151 L780.125 63.2184 Q784.256 65.3654 788.267 66.4591 Q792.277 67.5124 796.207 67.5124 Q801.473 67.5124 804.308 65.73 Q807.144 63.9071 807.144 60.6258 Q807.144 57.5877 805.078 55.9673 Q803.053 54.3469 796.126 52.8481 L793.533 52.2405 Q786.606 50.7821 783.527 47.7845 Q780.449 44.7463 780.449 39.4801 Q780.449 33.0797 784.986 29.5959 Q789.523 26.1121 797.868 26.1121 Q801.999 26.1121 805.645 26.7198 Q809.291 27.3274 812.37 28.5427 Z" fill="#000000" fill-rule="nonzero" fill-opacity="1" /><path clip-path="url(#clip980)" d="M826.669 27.2059 L834.123 27.2059 L834.123 72.576 L826.669 72.576 L826.669 27.2059 M826.669 9.54393 L834.123 9.54393 L834.123 18.9825 L826.669 18.9825 L826.669 9.54393 Z" fill="#000000" fill-rule="nonzero" fill-opacity="1" /><path clip-path="url(#clip980)" d="M887.433 45.1919 L887.433 72.576 L879.979 72.576 L879.979 45.4349 Q879.979 38.994 877.468 35.7938 Q874.956 32.5936 869.933 32.5936 Q863.897 32.5936 860.413 36.4419 Q856.93 40.2903 856.93 46.9338 L856.93 72.576 L849.436 72.576 L849.436 27.2059 L856.93 27.2059 L856.93 34.2544 Q859.603 30.163 863.209 28.1376 Q866.854 26.1121 871.594 26.1121 Q879.412 26.1121 883.423 30.9732 Q887.433 35.7938 887.433 45.1919 Z" fill="#000000" fill-rule="nonzero" fill-opacity="1" /><path clip-path="url(#clip980)" d="M941.107 48.0275 L941.107 51.6733 L906.837 51.6733 Q907.323 59.3701 911.455 63.421 Q915.627 67.4314 923.04 67.4314 Q927.334 67.4314 931.345 66.3781 Q935.396 65.3249 939.366 63.2184 L939.366 70.267 Q935.355 71.9684 931.142 72.8596 Q926.929 73.7508 922.595 73.7508 Q911.738 73.7508 905.379 67.4314 Q899.059 61.1119 899.059 50.3365 Q899.059 39.1965 905.054 32.6746 Q911.09 26.1121 921.299 26.1121 Q930.454 26.1121 935.76 32.0264 Q941.107 37.9003 941.107 48.0275 M933.654 45.84 Q933.573 39.7232 930.211 36.0774 Q926.889 32.4315 921.38 32.4315 Q915.141 32.4315 911.374 35.9558 Q907.647 39.4801 907.08 45.8805 L933.654 45.84 Z" fill="#000000" fill-rule="nonzero" fill-opacity="1" /><path clip-path="url(#clip980)" d="M1008.64 28.5427 L1008.64 35.5912 Q1005.48 33.9709 1002.07 33.1607 Q998.671 32.3505 995.025 32.3505 Q989.475 32.3505 986.68 34.0519 Q983.926 35.7533 983.926 39.156 Q983.926 41.7486 985.91 43.2475 Q987.895 44.7058 993.891 46.0426 L996.443 46.6097 Q1004.38 48.3111 1007.7 51.4303 Q1011.07 54.509 1011.07 60.0587 Q1011.07 66.3781 1006.04 70.0644 Q1001.06 73.7508 992.311 73.7508 Q988.665 73.7508 984.695 73.0216 Q980.766 72.3329 976.391 70.9151 L976.391 63.2184 Q980.523 65.3654 984.533 66.4591 Q988.544 67.5124 992.473 67.5124 Q997.739 67.5124 1000.57 65.73 Q1003.41 63.9071 1003.41 60.6258 Q1003.41 57.5877 1001.34 55.9673 Q999.319 54.3469 992.392 52.8481 L989.799 52.2405 Q982.872 50.7821 979.794 47.7845 Q976.715 44.7463 976.715 39.4801 Q976.715 33.0797 981.252 29.5959 Q985.789 26.1121 994.134 26.1121 Q998.266 26.1121 1001.91 26.7198 Q1005.56 27.3274 1008.64 28.5427 Z" fill="#000000" fill-rule="nonzero" fill-opacity="1" /><path clip-path="url(#clip980)" d="M1022.94 27.2059 L1030.39 27.2059 L1030.39 72.576 L1022.94 72.576 L1022.94 27.2059 M1022.94 9.54393 L1030.39 9.54393 L1030.39 18.9825 L1022.94 18.9825 L1022.94 9.54393 Z" fill="#000000" fill-rule="nonzero" fill-opacity="1" /><path clip-path="url(#clip980)" d="M1081.31 35.9153 Q1084.1 30.8922 1087.99 28.5022 Q1091.88 26.1121 1097.15 26.1121 Q1104.24 26.1121 1108.09 31.0947 Q1111.93 36.0368 1111.93 45.1919 L1111.93 72.576 L1104.44 72.576 L1104.44 45.4349 Q1104.44 38.913 1102.13 35.7533 Q1099.82 32.5936 1095.08 32.5936 Q1089.29 32.5936 1085.93 36.4419 Q1082.57 40.2903 1082.57 46.9338 L1082.57 72.576 L1075.07 72.576 L1075.07 45.4349 Q1075.07 38.8725 1072.76 35.7533 Q1070.45 32.5936 1065.63 32.5936 Q1059.92 32.5936 1056.56 36.4824 Q1053.2 40.3308 1053.2 46.9338 L1053.2 72.576 L1045.7 72.576 L1045.7 27.2059 L1053.2 27.2059 L1053.2 34.2544 Q1055.75 30.082 1059.31 28.0971 Q1062.88 26.1121 1067.78 26.1121 Q1072.72 26.1121 1076.16 28.6237 Q1079.65 31.1352 1081.31 35.9153 Z" fill="#000000" fill-rule="nonzero" fill-opacity="1" /><path clip-path="url(#clip980)" d="M1126.8 27.2059 L1134.25 27.2059 L1134.25 72.576 L1126.8 72.576 L1126.8 27.2059 M1126.8 9.54393 L1134.25 9.54393 L1134.25 18.9825 L1126.8 18.9825 L1126.8 9.54393 Z" fill="#000000" fill-rule="nonzero" fill-opacity="1" /><path clip-path="url(#clip980)" d="M1149.85 9.54393 L1157.3 9.54393 L1157.3 72.576 L1149.85 72.576 L1149.85 9.54393 Z" fill="#000000" fill-rule="nonzero" fill-opacity="1" /><path clip-path="url(#clip980)" d="M1193.52 49.7694 Q1184.49 49.7694 1181 51.8354 Q1177.52 53.9013 1177.52 58.8839 Q1177.52 62.8538 1180.11 65.2034 Q1182.74 67.5124 1187.24 67.5124 Q1193.44 67.5124 1197.17 63.1374 Q1200.93 58.7219 1200.93 51.4303 L1200.93 49.7694 L1193.52 49.7694 M1208.39 46.6907 L1208.39 72.576 L1200.93 72.576 L1200.93 65.6895 Q1198.38 69.8214 1194.57 71.8063 Q1190.76 73.7508 1185.26 73.7508 Q1178.29 73.7508 1174.16 69.8619 Q1170.06 65.9325 1170.06 59.3701 Q1170.06 51.7138 1175.17 47.825 Q1180.31 43.9361 1190.48 43.9361 L1200.93 43.9361 L1200.93 43.2069 Q1200.93 38.0623 1197.53 35.2672 Q1194.17 32.4315 1188.05 32.4315 Q1184.16 32.4315 1180.48 33.3632 Q1176.79 34.295 1173.39 36.1584 L1173.39 29.2718 Q1177.48 27.692 1181.33 26.9223 Q1185.17 26.1121 1188.82 26.1121 Q1198.66 26.1121 1203.53 31.2163 Q1208.39 36.3204 1208.39 46.6907 Z" fill="#000000" fill-rule="nonzero" fill-opacity="1" /><path clip-path="url(#clip980)" d="M1250.03 34.1734 Q1248.77 33.4443 1247.27 33.1202 Q1245.82 32.7556 1244.03 32.7556 Q1237.71 32.7556 1234.31 36.8875 Q1230.95 40.9789 1230.95 48.6757 L1230.95 72.576 L1223.46 72.576 L1223.46 27.2059 L1230.95 27.2059 L1230.95 34.2544 Q1233.3 30.1225 1237.07 28.1376 Q1240.83 26.1121 1246.22 26.1121 Q1246.99 26.1121 1247.92 26.2337 Q1248.85 26.3147 1249.99 26.5172 L1250.03 34.1734 Z" fill="#000000" fill-rule="nonzero" fill-opacity="1" /><path clip-path="url(#clip980)" d="M1257.85 27.2059 L1265.3 27.2059 L1265.3 72.576 L1257.85 72.576 L1257.85 27.2059 M1257.85 9.54393 L1265.3 9.54393 L1265.3 18.9825 L1257.85 18.9825 L1257.85 9.54393 Z" fill="#000000" fill-rule="nonzero" fill-opacity="1" /><path clip-path="url(#clip980)" d="M1288.27 14.324 L1288.27 27.2059 L1303.62 27.2059 L1303.62 32.9987 L1288.27 32.9987 L1288.27 57.6282 Q1288.27 63.1779 1289.77 64.7578 Q1291.31 66.3376 1295.97 66.3376 L1303.62 66.3376 L1303.62 72.576 L1295.97 72.576 Q1287.34 72.576 1284.06 69.3758 Q1280.78 66.1351 1280.78 57.6282 L1280.78 32.9987 L1275.31 32.9987 L1275.31 27.2059 L1280.78 27.2059 L1280.78 14.324 L1288.27 14.324 Z" fill="#000000" fill-rule="nonzero" fill-opacity="1" /><path clip-path="url(#clip980)" d="M1313.43 27.2059 L1320.88 27.2059 L1320.88 72.576 L1313.43 72.576 L1313.43 27.2059 M1313.43 9.54393 L1320.88 9.54393 L1320.88 18.9825 L1313.43 18.9825 L1313.43 9.54393 Z" fill="#000000" fill-rule="nonzero" fill-opacity="1" /><path clip-path="url(#clip980)" d="M1375.28 48.0275 L1375.28 51.6733 L1341.01 51.6733 Q1341.5 59.3701 1345.63 63.421 Q1349.8 67.4314 1357.22 67.4314 Q1361.51 67.4314 1365.52 66.3781 Q1369.57 65.3249 1373.54 63.2184 L1373.54 70.267 Q1369.53 71.9684 1365.32 72.8596 Q1361.11 73.7508 1356.77 73.7508 Q1345.91 73.7508 1339.55 67.4314 Q1333.24 61.1119 1333.24 50.3365 Q1333.24 39.1965 1339.23 32.6746 Q1345.27 26.1121 1355.47 26.1121 Q1364.63 26.1121 1369.94 32.0264 Q1375.28 37.9003 1375.28 48.0275 M1367.83 45.84 Q1367.75 39.7232 1364.39 36.0774 Q1361.06 32.4315 1355.56 32.4315 Q1349.32 32.4315 1345.55 35.9558 Q1341.82 39.4801 1341.26 45.8805 L1367.83 45.84 Z" fill="#000000" fill-rule="nonzero" fill-opacity="1" /><path clip-path="url(#clip980)" d="M1416.44 28.5427 L1416.44 35.5912 Q1413.28 33.9709 1409.88 33.1607 Q1406.48 32.3505 1402.83 32.3505 Q1397.28 32.3505 1394.48 34.0519 Q1391.73 35.7533 1391.73 39.156 Q1391.73 41.7486 1393.72 43.2475 Q1395.7 44.7058 1401.7 46.0426 L1404.25 46.6097 Q1412.19 48.3111 1415.51 51.4303 Q1418.87 54.509 1418.87 60.0587 Q1418.87 66.3781 1413.85 70.0644 Q1408.87 73.7508 1400.12 73.7508 Q1396.47 73.7508 1392.5 73.0216 Q1388.57 72.3329 1384.2 70.9151 L1384.2 63.2184 Q1388.33 65.3654 1392.34 66.4591 Q1396.35 67.5124 1400.28 67.5124 Q1405.54 67.5124 1408.38 65.73 Q1411.21 63.9071 1411.21 60.6258 Q1411.21 57.5877 1409.15 55.9673 Q1407.12 54.3469 1400.2 52.8481 L1397.6 52.2405 Q1390.68 50.7821 1387.6 47.7845 Q1384.52 44.7463 1384.52 39.4801 Q1384.52 33.0797 1389.06 29.5959 Q1393.59 26.1121 1401.94 26.1121 Q1406.07 26.1121 1409.72 26.7198 Q1413.36 27.3274 1416.44 28.5427 Z" fill="#000000" fill-rule="nonzero" fill-opacity="1" /><path clip-path="url(#clip980)" d="M1489.76 28.9478 L1489.76 35.9153 Q1486.6 34.1734 1483.4 33.3227 Q1480.24 32.4315 1477 32.4315 Q1469.75 32.4315 1465.74 37.0496 Q1461.73 41.6271 1461.73 49.9314 Q1461.73 58.2358 1465.74 62.8538 Q1469.75 67.4314 1477 67.4314 Q1480.24 67.4314 1483.4 66.5807 Q1486.6 65.6895 1489.76 63.9476 L1489.76 70.8341 Q1486.64 72.2924 1483.28 73.0216 Q1479.96 73.7508 1476.19 73.7508 Q1465.94 73.7508 1459.91 67.3098 Q1453.87 60.8689 1453.87 49.9314 Q1453.87 38.832 1459.95 32.472 Q1466.06 26.1121 1476.68 26.1121 Q1480.12 26.1121 1483.4 26.8413 Q1486.68 27.5299 1489.76 28.9478 Z" fill="#000000" fill-rule="nonzero" fill-opacity="1" /><path clip-path="url(#clip980)" d="M1541.53 48.0275 L1541.53 51.6733 L1507.26 51.6733 Q1507.75 59.3701 1511.88 63.421 Q1516.05 67.4314 1523.47 67.4314 Q1527.76 67.4314 1531.77 66.3781 Q1535.82 65.3249 1539.79 63.2184 L1539.79 70.267 Q1535.78 71.9684 1531.57 72.8596 Q1527.35 73.7508 1523.02 73.7508 Q1512.16 73.7508 1505.8 67.4314 Q1499.48 61.1119 1499.48 50.3365 Q1499.48 39.1965 1505.48 32.6746 Q1511.52 26.1121 1521.72 26.1121 Q1530.88 26.1121 1536.19 32.0264 Q1541.53 37.9003 1541.53 48.0275 M1534.08 45.84 Q1534 39.7232 1530.64 36.0774 Q1527.31 32.4315 1521.8 32.4315 Q1515.57 32.4315 1511.8 35.9558 Q1508.07 39.4801 1507.5 45.8805 L1534.08 45.84 Z" fill="#000000" fill-rule="nonzero" fill-opacity="1" /><path clip-path="url(#clip980)" d="M1553.77 9.54393 L1561.22 9.54393 L1561.22 72.576 L1553.77 72.576 L1553.77 9.54393 Z" fill="#000000" fill-rule="nonzero" fill-opacity="1" /><path clip-path="url(#clip980)" d="M1576.82 9.54393 L1584.27 9.54393 L1584.27 72.576 L1576.82 72.576 L1576.82 9.54393 Z" fill="#000000" fill-rule="nonzero" fill-opacity="1" /><path clip-path="url(#clip980)" d="M1652.08 39.9662 Q1657.96 41.222 1661.24 45.1919 Q1664.56 49.1618 1664.56 54.9951 Q1664.56 63.9476 1658.4 68.8492 Q1652.24 73.7508 1640.9 73.7508 Q1637.09 73.7508 1633.04 72.9811 Q1629.03 72.2519 1624.74 70.7531 L1624.74 62.8538 Q1628.14 64.8388 1632.19 65.8515 Q1636.24 66.8642 1640.66 66.8642 Q1648.35 66.8642 1652.37 63.826 Q1656.42 60.7879 1656.42 54.9951 Q1656.42 49.6479 1652.65 46.6502 Q1648.92 43.612 1642.24 43.612 L1635.19 43.612 L1635.19 36.8875 L1642.56 36.8875 Q1648.6 36.8875 1651.8 34.4975 Q1655 32.067 1655 27.5299 Q1655 22.8714 1651.68 20.4004 Q1648.4 17.8888 1642.24 17.8888 Q1638.88 17.8888 1635.03 18.618 Q1631.18 19.3471 1626.56 20.8865 L1626.56 13.5948 Q1631.22 12.2985 1635.27 11.6504 Q1639.36 11.0023 1642.97 11.0023 Q1652.28 11.0023 1657.71 15.2557 Q1663.14 19.4686 1663.14 26.6793 Q1663.14 31.7024 1660.26 35.1862 Q1657.39 38.6294 1652.08 39.9662 Z" fill="#000000" fill-rule="nonzero" fill-opacity="1" /><path clip-path="url(#clip980)" d="M1680.15 12.096 L1712.28 12.096 L1712.28 18.9825 L1687.65 18.9825 L1687.65 33.8088 Q1689.43 33.2012 1691.21 32.9176 Q1693 32.5936 1694.78 32.5936 Q1704.91 32.5936 1710.82 38.1433 Q1716.73 43.6931 1716.73 53.1722 Q1716.73 62.9348 1710.66 68.3631 Q1704.58 73.7508 1693.52 73.7508 Q1689.71 73.7508 1685.74 73.1026 Q1681.82 72.4545 1677.6 71.1582 L1677.6 62.9348 Q1681.25 64.9198 1685.14 65.892 Q1689.03 66.8642 1693.36 66.8642 Q1700.37 66.8642 1704.46 63.1779 Q1708.55 59.4916 1708.55 53.1722 Q1708.55 46.8528 1704.46 43.1664 Q1700.37 39.4801 1693.36 39.4801 Q1690.08 39.4801 1686.8 40.2093 Q1683.56 40.9384 1680.15 42.4778 L1680.15 12.096 Z" fill="#000000" fill-rule="nonzero" fill-opacity="1" /><path clip-path="url(#clip980)" d="M1734.27 65.6895 L1747.64 65.6895 L1747.64 19.5497 L1733.1 22.4663 L1733.1 15.0127 L1747.56 12.096 L1755.74 12.096 L1755.74 65.6895 L1769.11 65.6895 L1769.11 72.576 L1734.27 72.576 L1734.27 65.6895 Z" fill="#000000" fill-rule="nonzero" fill-opacity="1" /><path clip-path="url(#clip980)" d="M1810.96 27.2059 L1818.41 27.2059 L1818.41 72.576 L1810.96 72.576 L1810.96 27.2059 M1810.96 9.54393 L1818.41 9.54393 L1818.41 18.9825 L1810.96 18.9825 L1810.96 9.54393 Z" fill="#000000" fill-rule="nonzero" fill-opacity="1" /><path clip-path="url(#clip980)" d="M1841.38 14.324 L1841.38 27.2059 L1856.73 27.2059 L1856.73 32.9987 L1841.38 32.9987 L1841.38 57.6282 Q1841.38 63.1779 1842.88 64.7578 Q1844.42 66.3376 1849.08 66.3376 L1856.73 66.3376 L1856.73 72.576 L1849.08 72.576 Q1840.45 72.576 1837.17 69.3758 Q1833.89 66.1351 1833.89 57.6282 L1833.89 32.9987 L1828.42 32.9987 L1828.42 27.2059 L1833.89 27.2059 L1833.89 14.324 L1841.38 14.324 Z" fill="#000000" fill-rule="nonzero" fill-opacity="1" /><path clip-path="url(#clip980)" d="M1905.34 48.0275 L1905.34 51.6733 L1871.07 51.6733 Q1871.56 59.3701 1875.69 63.421 Q1879.86 67.4314 1887.28 67.4314 Q1891.57 67.4314 1895.58 66.3781 Q1899.63 65.3249 1903.6 63.2184 L1903.6 70.267 Q1899.59 71.9684 1895.38 72.8596 Q1891.17 73.7508 1886.83 73.7508 Q1875.98 73.7508 1869.62 67.4314 Q1863.3 61.1119 1863.3 50.3365 Q1863.3 39.1965 1869.29 32.6746 Q1875.33 26.1121 1885.54 26.1121 Q1894.69 26.1121 1900 32.0264 Q1905.34 37.9003 1905.34 48.0275 M1897.89 45.84 Q1897.81 39.7232 1894.45 36.0774 Q1891.13 32.4315 1885.62 32.4315 Q1879.38 32.4315 1875.61 35.9558 Q1871.88 39.4801 1871.32 45.8805 L1897.89 45.84 Z" fill="#000000" fill-rule="nonzero" fill-opacity="1" /><path clip-path="url(#clip980)" d="M1943.87 34.1734 Q1942.61 33.4443 1941.11 33.1202 Q1939.66 32.7556 1937.87 32.7556 Q1931.55 32.7556 1928.15 36.8875 Q1924.79 40.9789 1924.79 48.6757 L1924.79 72.576 L1917.29 72.576 L1917.29 27.2059 L1924.79 27.2059 L1924.79 34.2544 Q1927.14 30.1225 1930.91 28.1376 Q1934.67 26.1121 1940.06 26.1121 Q1940.83 26.1121 1941.76 26.2337 Q1942.69 26.3147 1943.83 26.5172 L1943.87 34.1734 Z" fill="#000000" fill-rule="nonzero" fill-opacity="1" /><path clip-path="url(#clip980)" d="M1972.31 49.7694 Q1963.27 49.7694 1959.79 51.8354 Q1956.3 53.9013 1956.3 58.8839 Q1956.3 62.8538 1958.9 65.2034 Q1961.53 67.5124 1966.03 67.5124 Q1972.22 67.5124 1975.95 63.1374 Q1979.72 58.7219 1979.72 51.4303 L1979.72 49.7694 L1972.31 49.7694 M1987.17 46.6907 L1987.17 72.576 L1979.72 72.576 L1979.72 65.6895 Q1977.17 69.8214 1973.36 71.8063 Q1969.55 73.7508 1964.04 73.7508 Q1957.07 73.7508 1952.94 69.8619 Q1948.85 65.9325 1948.85 59.3701 Q1948.85 51.7138 1953.96 47.825 Q1959.1 43.9361 1969.27 43.9361 L1979.72 43.9361 L1979.72 43.2069 Q1979.72 38.0623 1976.32 35.2672 Q1972.95 32.4315 1966.84 32.4315 Q1962.95 32.4315 1959.26 33.3632 Q1955.58 34.295 1952.17 36.1584 L1952.17 29.2718 Q1956.26 27.692 1960.11 26.9223 Q1963.96 26.1121 1967.61 26.1121 Q1977.45 26.1121 1982.31 31.2163 Q1987.17 36.3204 1987.17 46.6907 Z" fill="#000000" fill-rule="nonzero" fill-opacity="1" /><path clip-path="url(#clip980)" d="M2009.9 14.324 L2009.9 27.2059 L2025.25 27.2059 L2025.25 32.9987 L2009.9 32.9987 L2009.9 57.6282 Q2009.9 63.1779 2011.4 64.7578 Q2012.94 66.3376 2017.59 66.3376 L2025.25 66.3376 L2025.25 72.576 L2017.59 72.576 Q2008.97 72.576 2005.69 69.3758 Q2002.4 66.1351 2002.4 57.6282 L2002.4 32.9987 L1996.94 32.9987 L1996.94 27.2059 L2002.4 27.2059 L2002.4 14.324 L2009.9 14.324 Z" fill="#000000" fill-rule="nonzero" fill-opacity="1" /><path clip-path="url(#clip980)" d="M2035.05 27.2059 L2042.51 27.2059 L2042.51 72.576 L2035.05 72.576 L2035.05 27.2059 M2035.05 9.54393 L2042.51 9.54393 L2042.51 18.9825 L2035.05 18.9825 L2035.05 9.54393 Z" fill="#000000" fill-rule="nonzero" fill-opacity="1" /><path clip-path="url(#clip980)" d="M2075.68 32.4315 Q2069.69 32.4315 2066.21 37.1306 Q2062.72 41.7891 2062.72 49.9314 Q2062.72 58.0738 2066.17 62.7728 Q2069.65 67.4314 2075.68 67.4314 Q2081.64 67.4314 2085.12 62.7323 Q2088.61 58.0333 2088.61 49.9314 Q2088.61 41.8701 2085.12 37.1711 Q2081.64 32.4315 2075.68 32.4315 M2075.68 26.1121 Q2085.41 26.1121 2090.96 32.4315 Q2096.51 38.7509 2096.51 49.9314 Q2096.51 61.0714 2090.96 67.4314 Q2085.41 73.7508 2075.68 73.7508 Q2065.92 73.7508 2060.37 67.4314 Q2054.86 61.0714 2054.86 49.9314 Q2054.86 38.7509 2060.37 32.4315 Q2065.92 26.1121 2075.68 26.1121 Z" fill="#000000" fill-rule="nonzero" fill-opacity="1" /><path clip-path="url(#clip980)" d="M2146.58 45.1919 L2146.58 72.576 L2139.12 72.576 L2139.12 45.4349 Q2139.12 38.994 2136.61 35.7938 Q2134.1 32.5936 2129.08 32.5936 Q2123.04 32.5936 2119.56 36.4419 Q2116.07 40.2903 2116.07 46.9338 L2116.07 72.576 L2108.58 72.576 L2108.58 27.2059 L2116.07 27.2059 L2116.07 34.2544 Q2118.75 30.163 2122.35 28.1376 Q2126 26.1121 2130.74 26.1121 Q2138.55 26.1121 2142.57 30.9732 Q2146.58 35.7938 2146.58 45.1919 Z" fill="#000000" fill-rule="nonzero" fill-opacity="1" /><path clip-path="url(#clip980)" d="M2188.95 12.096 L2221.07 12.096 L2221.07 18.9825 L2196.44 18.9825 L2196.44 33.8088 Q2198.22 33.2012 2200.01 32.9176 Q2201.79 32.5936 2203.57 32.5936 Q2213.7 32.5936 2219.61 38.1433 Q2225.53 43.6931 2225.53 53.1722 Q2225.53 62.9348 2219.45 68.3631 Q2213.37 73.7508 2202.32 73.7508 Q2198.51 73.7508 2194.54 73.1026 Q2190.61 72.4545 2186.4 71.1582 L2186.4 62.9348 Q2190.04 64.9198 2193.93 65.892 Q2197.82 66.8642 2202.15 66.8642 Q2209.16 66.8642 2213.25 63.1779 Q2217.34 59.4916 2217.34 53.1722 Q2217.34 46.8528 2213.25 43.1664 Q2209.16 39.4801 2202.15 39.4801 Q2198.87 39.4801 2195.59 40.2093 Q2192.35 40.9384 2188.95 42.4778 L2188.95 12.096 Z" fill="#000000" fill-rule="nonzero" fill-opacity="1" /><polyline clip-path="url(#clip982)" style="stroke:#009af9; stroke-linecap:round; stroke-linejoin:round; stroke-width:4; stroke-opacity:1; fill:none" points="316.67,1386.4 318.648,1307.28 320.627,1303.54 322.606,1302.96 324.585,1302.92 326.563,1302.89 328.542,1302.89 330.521,1302.89 332.5,1302.87 334.478,1302.86 336.457,1302.84 338.436,1302.84 340.415,1302.82 342.393,1302.81 344.372,1302.81 346.351,1302.8 348.33,1302.79 350.308,1302.79 352.287,1302.78 354.266,1302.78 356.245,1302.77 358.224,1302.76 360.202,1302.75 362.181,1302.74 364.16,1302.73 366.139,1302.73 368.117,1302.72 370.096,1302.7 372.075,1302.7 374.054,1302.69 376.032,1302.69 378.011,1302.68 379.99,1302.66 381.969,1302.65 383.947,1302.65 385.926,1302.65 387.905,1302.63 389.884,1302.62 391.862,1302.62 393.841,1302.62 395.82,1302.61 397.799,1302.59 399.778,1302.59 401.756,1302.58 403.735,1302.58 405.714,1302.58 407.693,1302.57 409.671,1302.56 411.65,1302.56 413.629,1302.56 415.608,1302.56 417.586,1302.56 419.565,1302.55 421.544,1302.55 423.523,1302.55 425.501,1302.55 427.48,1302.55 429.459,1302.55 431.438,1302.55 433.416,1302.55 435.395,1302.55 437.374,1302.55 439.353,1302.55 441.332,1302.54 443.31,1302.54 445.289,1302.54 447.268,1302.54 449.247,1302.54 451.225,1302.54 453.204,1302.54 455.183,1302.54 457.162,1302.54 459.14,1302.54 461.119,1302.54 463.098,1302.54 465.077,1302.54 467.055,1302.54 469.034,1302.54 471.013,1302.54 472.992,1302.54 474.97,1302.54 476.949,1302.54 478.928,1302.54 480.907,1302.54 482.886,1302.54 484.864,1302.54 486.843,1302.54 488.822,1302.54 490.801,1302.54 492.779,1302.54 494.758,1302.54 496.737,1302.54 498.716,1302.54 500.694,1302.54 502.673,1302.54 504.652,1302.54 506.631,1302.54 508.609,1302.54 510.588,1302.54 512.567,1302.54 514.546,1302.54 516.524,1302.54 518.503,1302.54 520.482,1302.53 522.461,1302.53 524.44,1302.53 526.418,1302.53 528.397,1302.53 530.376,1302.53 532.355,1302.53 534.333,1302.53 536.312,1302.53 538.291,1302.53 540.27,1302.53 542.248,1302.53 544.227,1302.53 546.206,1302.53 548.185,1302.53 550.163,1302.52 552.142,1302.52 554.121,1302.52 556.1,1302.52 558.078,1302.52 560.057,1302.52 562.036,1302.52 564.015,1302.52 565.994,1302.52 567.972,1302.51 569.951,1302.51 571.93,1302.51 573.909,1302.51 575.887,1302.51 577.866,1302.51 579.845,1302.5 581.824,1302.5 583.802,1302.5 585.781,1302.5 587.76,1302.49 589.739,1302.49 591.717,1302.49 593.696,1302.49 595.675,1302.49 597.654,1302.49 599.632,1302.49 601.611,1302.49 603.59,1302.49 605.569,1302.49 607.548,1302.49 609.526,1302.48 611.505,1302.48 613.484,1302.48 615.463,1302.48 617.441,1302.48 619.42,1302.48 621.399,1302.47 623.378,1302.47 625.356,1302.47 627.335,1302.47 629.314,1302.47 631.293,1302.47 633.271,1302.47 635.25,1302.46 637.229,1302.46 639.208,1302.46 641.186,1302.46 643.165,1302.45 645.144,1302.45 647.123,1302.45 649.102,1302.45 651.08,1302.45 653.059,1302.44 655.038,1302.44 657.017,1302.43 658.995,1302.43 660.974,1302.43 662.953,1302.43 664.932,1302.43 666.91,1302.43 668.889,1302.43 670.868,1302.43 672.847,1302.42 674.825,1302.42 676.804,1302.41 678.783,1302.41 680.762,1302.41 682.74,1302.4 684.719,1302.4 686.698,1302.4 688.677,1302.4 690.655,1302.39 692.634,1302.38 694.613,1302.37 696.592,1302.37 698.571,1302.36 700.549,1302.36 702.528,1302.36 704.507,1302.36 706.486,1302.36 708.464,1302.36 710.443,1302.36 712.422,1302.35 714.401,1302.35 716.379,1302.35 718.358,1302.34 720.337,1302.34 722.316,1302.34 724.294,1302.34 726.273,1302.34 728.252,1302.34 730.231,1302.34 732.209,1302.34 734.188,1302.34 736.167,1302.34 738.146,1302.34 740.125,1302.34 742.103,1302.34 744.082,1302.33 746.061,1302.33 748.04,1302.33 750.018,1302.33 751.997,1302.33 753.976,1302.33 755.955,1302.33 757.933,1302.32 759.912,1302.32 761.891,1302.32 763.87,1302.32 765.848,1302.32 767.827,1302.32 769.806,1302.32 771.785,1302.31 773.763,1302.31 775.742,1302.31 777.721,1302.3 779.7,1302.3 781.679,1302.3 783.657,1302.3 785.636,1302.3 787.615,1302.3 789.594,1302.3 791.572,1302.29 793.551,1302.29 795.53,1302.29 797.509,1302.29 799.487,1302.29 801.466,1302.28 803.445,1302.28 805.424,1302.28 807.402,1302.28 809.381,1302.27 811.36,1166.06 813.339,1166.05 815.317,1166.04 817.296,1166.04 819.275,1166.04 821.254,1166.03 823.233,1166.03 825.211,1166.03 827.19,1166.02 829.169,1166.02 831.148,1166.02 833.126,1166 835.105,1165.99 837.084,1165.99 839.063,1165.98 841.041,1165.98 843.02,1165.98 844.999,1165.98 846.978,1165.97 848.956,1165.94 850.935,1165.93 852.914,1165.92 854.893,1165.92 856.871,1165.91 858.85,1165.9 860.829,1165.87 862.808,1165.87 864.787,1165.86 866.765,1165.86 868.744,1165.86 870.723,1165.86 872.702,1165.85 874.68,1165.85 876.659,1165.85 878.638,1165.85 880.617,1165.85 882.595,1165.81 884.574,1165.81 886.553,1165.8 888.532,1165.79 890.51,1165.79 892.489,1165.79 894.468,1165.79 896.447,1165.79 898.425,1165.79 900.404,1165.76 902.383,1165.76 904.362,1165.76 906.341,1165.75 908.319,1165.74 910.298,1165.74 912.277,1165.73 914.256,1165.73 916.234,1165.72 918.213,1165.67 920.192,1165.67 922.171,1165.67 924.149,1165.66 926.128,1165.66 928.107,1165.66 930.086,1165.65 932.064,1165.65 934.043,1165.65 936.022,1165.64 938.001,1165.63 939.979,1165.6 941.958,1165.58 943.937,1165.56 945.916,1165.56 947.895,1165.56 949.873,1165.54 951.852,1165.54 953.831,1165.51 955.81,1165.45 957.788,1165.43 959.767,1165.43 961.746,1165.39 963.725,1165.38 965.703,1165.37 967.682,1165.37 969.661,1165.37 971.64,1165.35 973.618,1165.32 975.597,1165.32 977.576,1165.3 979.555,1165.29 981.533,1165.29 983.512,1165.28 985.491,1165.26 987.47,1165.23 989.449,1165.23 991.427,1165.22 993.406,1165.21 995.385,1165.18 997.364,1165.16 999.342,1165.15 1001.32,1165.14 1003.3,1165.13 1005.28,1165.12 1007.26,1165.09 1009.24,1165.08 1011.21,1165.08 1013.19,1165.03 1015.17,1165.03 1017.15,1164.99 1019.13,1164.94 1021.11,1164.91 1023.09,1164.91 1025.07,1164.9 1027.04,1164.85 1029.02,1164.84 1031,1164.83 1032.98,1164.8 1034.96,1164.8 1036.94,1164.76 1038.92,1164.67 1040.9,1164.66 1042.88,1164.66 1044.85,1164.57 1046.83,1164.55 1048.81,1164.54 1050.79,1164.47 1052.77,1164.47 1054.75,1164.44 1056.73,1164.43 1058.71,1164.26 1060.68,1164.24 1062.66,1164.24 1064.64,1164.22 1066.62,1164.19 1068.6,1164.19 1070.58,1164.08 1072.56,1164.07 1074.54,1164.05 1076.51,1164.05 1078.49,1164.04 1080.47,1163.84 1082.45,1163.74 1084.43,1163.74 1086.41,1163.65 1088.39,1163.65 1090.37,1163.58 1092.34,1163.56 1094.32,1163.47 1096.3,1163.39 1098.28,1163.23 1100.26,1163.18 1102.24,1163.17 1104.22,1163.16 1106.2,1163.11 1108.17,1162.97 1110.15,1162.92 1112.13,1162.84 1114.11,1162.66 1116.09,1162.48 1118.07,1162.45 1120.05,1162.27 1122.03,1162.26 1124,1162.22 1125.98,1162.19 1127.96,1162.08 1129.94,1161.83 1131.92,1161.77 1133.9,1161.63 1135.88,1161.62 1137.86,1161.28 1139.83,1161.01 1141.81,1161.01 1143.79,1160.83 1145.77,1160.79 1147.75,1160.78 1149.73,1160.74 1151.71,1160.54 1153.69,1160.31 1155.66,1160.27 1157.64,1160.26 1159.62,1160.01 1161.6,1159.96 1163.58,1159.72 1165.56,1159.7 1167.54,1159.25 1169.52,1159.22 1171.49,1159.12 1173.47,1158.98 1175.45,1158.78 1177.43,1158.62 1179.41,1157.65 1181.39,1157.57 1183.37,1157.16 1185.35,1157.02 1187.32,1156.56 1189.3,1156.36 1191.28,1155.74 1193.26,1155.03 1195.24,1154.81 1197.22,1154.48 1199.2,1153.73 1201.18,1153.64 1203.15,1151.88 1205.13,1151.72 1207.11,1151.05 1209.09,1150.39 1211.07,1150.32 1213.05,1149.79 1215.03,1149.11 1217.01,1148.16 1218.98,1148.12 1220.96,1148.12 1222.94,1147.22 1224.92,1145.94 1226.9,1145.83 1228.88,1144.49 1230.86,1143.73 1232.84,1142.18 1234.81,1142.07 1236.79,1141.66 1238.77,1141.35 1240.75,1140.51 1242.73,1140.09 1244.71,1138.73 1246.69,1138.2 1248.67,1137.52 1250.65,1136.6 1252.62,1136.51 1254.6,1136.41 1256.58,1136.34 1258.56,1135.37 1260.54,1132.33 1262.52,1131.86 1264.5,1128.65 1266.48,1127.32 1268.45,1126.69 1270.43,1124.9 1272.41,1123.31 1274.39,1122.45 1276.37,1120.94 1278.35,1113.56 1280.33,1110.7 1282.31,1107.68 1284.28,1106.59 1286.26,1106.48 1288.24,1100.35 1290.22,1096.12 1292.2,1095.28 1294.18,1082.29 1296.16,1079.64 1298.14,1078.33 1300.11,1077.93 1302.09,1018.58 1304.07,726.682 1306.05,713.139 1308.03,712.1 1310.01,709.94 1311.99,708.902 1313.97,708.736 1315.94,708.561 1317.92,708.387 1319.9,708.357 1321.88,706.866 1323.86,706.729 1325.84,706.577 1327.82,706.512 1329.8,706.125 1331.77,705.612 1333.75,705.292 1335.73,705.172 1337.71,704.933 1339.69,704.516 1341.67,704.479 1343.65,704.42 1345.63,703.441 1347.6,703.343 1349.58,702.759 1351.56,702.456 1353.54,702.406 1355.52,702.375 1357.5,702.155 1359.48,702.056 1361.46,702.049 1363.43,701.873 1365.41,701.702 1367.39,701.7 1369.37,701.548 1371.35,701.518 1373.33,701.3 1375.31,700.821 1377.29,700.796 1379.26,700.779 1381.24,700.704 1383.22,700.693 1385.2,700.668 1387.18,700.601 1389.16,700.539 1391.14,700.398 1393.12,700.367 1395.09,700.299 1397.07,700.258 1399.05,699.601 1401.03,699.528 1403.01,699.491 1404.99,699.394 1406.97,699.34 1408.95,698.856 1410.92,698.813 1412.9,698.717 1414.88,698.475 1416.86,698.363 1418.84,698.354 1420.82,698.328 1422.8,698.318 1424.78,698.296 1426.75,698.286 1428.73,698.263 1430.71,698.232 1432.69,698.134 1434.67,698.031 1436.65,697.997 1438.63,697.976 1440.61,697.859 1442.58,697.847 1444.56,697.828 1446.54,697.742 1448.52,697.66 1450.5,697.622 1452.48,697.575 1454.46,697.519 1456.44,697.503 1458.42,697.493 1460.39,697.197 1462.37,697.17 1464.35,697.151 1466.33,697.129 1468.31,697.064 1470.29,696.945 1472.27,696.842 1474.25,696.486 1476.22,696.383 1478.2,696.273 1480.18,696.136 1482.16,696.115 1484.14,696.087 1486.12,696.048 1488.1,696.034 1490.08,695.955 1492.05,695.948 1494.03,695.934 1496.01,695.928 1497.99,695.919 1499.97,695.823 1501.95,695.775 1503.93,695.749 1505.91,695.715 1507.88,695.712 1509.86,695.641 1511.84,695.606 1513.82,695.582 1515.8,695.531 1517.78,695.523 1519.76,695.505 1521.74,695.492 1523.71,695.445 1525.69,695.431 1527.67,695.429 1529.65,695.374 1531.63,695.313 1533.61,695.164 1535.59,695.138 1537.57,695.015 1539.54,694.962 1541.52,694.936 1543.5,694.905 1545.48,694.839 1547.46,694.502 1549.44,694.47 1551.42,694.259 1553.4,694.233 1555.37,693.893 1557.35,693.644 1559.33,693.608 1561.31,693.162 1563.29,692.963 1565.27,692.919 1567.25,692.813 1569.23,692.744 1571.2,692.129 1573.18,692.061 1575.16,692.022 1577.14,691.509 1579.12,691.458 1581.1,691.11 1583.08,690.903 1585.06,690.734 1587.03,690.731 1589.01,690.445 1590.99,690.327 1592.97,690.199 1594.95,690.014 1596.93,689.752 1598.91,689.585 1600.89,689.357 1602.86,689.305 1604.84,689.161 1606.82,688.954 1608.8,688.67 1610.78,688.573 1612.76,688.465 1614.74,688.376 1616.72,688.278 1618.69,688.266 1620.67,688.031 1622.65,687.866 1624.63,687.807 1626.61,687.378 1628.59,687.214 1630.57,686.857 1632.55,686.856 1634.52,686.707 1636.5,686.635 1638.48,686.355 1640.46,686.148 1642.44,686.106 1644.42,686.066 1646.4,685.961 1648.38,685.738 1650.35,685.34 1652.33,684.804 1654.31,684.791 1656.29,684.465 1658.27,683.975 1660.25,683.893 1662.23,683.762 1664.21,683.451 1666.18,683.124 1668.16,682.958 1670.14,682.915 1672.12,682.812 1674.1,682.604 1676.08,682.598 1678.06,682.558 1680.04,681.9 1682.02,681.738 1683.99,681.397 1685.97,680.536 1687.95,680.329 1689.93,680.288 1691.91,679.906 1693.89,679.567 1695.87,679.422 1697.85,678.93 1699.82,678.634 1701.8,678.483 1703.78,678.099 1705.76,677.929 1707.74,677.654 1709.72,677.216 1711.7,677.193 1713.68,676.924 1715.65,676.752 1717.63,676.122 1719.61,675.765 1721.59,675.561 1723.57,675.422 1725.55,675.293 1727.53,674.831 1729.51,674.731 1731.48,674.499 1733.46,674.441 1735.44,674.232 1737.42,673.931 1739.4,673.898 1741.38,673.789 1743.36,673.611 1745.34,673.429 1747.31,673.317 1749.29,672.432 1751.27,671.816 1753.25,671.737 1755.23,671.518 1757.21,671.356 1759.19,671.047 1761.17,670.838 1763.14,670.459 1765.12,670.458 1767.1,670.251 1769.08,670.01 1771.06,669.907 1773.04,669.642 1775.02,669.609 1777,668.943 1778.97,668.904 1780.95,668.693 1782.93,668.54 1784.91,667.83 1786.89,667.494 1788.87,667.256 1790.85,666.982 1792.83,666.547 1794.8,662.044 1796.78,662.015 1798.76,527.81 1800.74,261.584 1802.72,257.012 1804.7,244.815 1806.68,242.212 1808.66,238.032 1810.63,237.073 1812.61,221.944 1814.59,208.687 1816.57,205.644 1818.55,199.635 1820.53,197.68 1822.51,196.396 1824.49,189.96 1826.46,187.106 1828.44,183.997 1830.42,180.952 1832.4,177.654 1834.38,177.147 1836.36,174.899 1838.34,173.176 1840.32,172.307 1842.29,171.992 1844.27,170.766 1846.25,170.747 1848.23,170.492 1850.21,170.248 1852.19,170.216 1854.17,169.968 1856.15,169.481 1858.12,169.123 1860.1,168.818 1862.08,168.817 1864.06,168.802 1866.04,168.691 1868.02,168.667 1870,168.576 1871.98,168.566 1873.95,168.566 1875.93,168.326 1877.91,168.307 1879.89,168.173 1881.87,168.148 1883.85,168.065 1885.83,168.017 1887.81,167.956 1889.79,167.881 1891.76,167.872 1893.74,167.847 1895.72,167.795 1897.7,167.516 1899.68,167.488 1901.66,167.476 1903.64,167.456 1905.62,167.449 1907.59,167.425 1909.57,167.363 1911.55,167.361 1913.53,167.35 1915.51,167.332 1917.49,167.319 1919.47,167.317 1921.45,167.286 1923.42,167.226 1925.4,167.209 1927.38,167.199 1929.36,167.177 1931.34,167.167 1933.32,167.164 1935.3,167.162 1937.28,167.159 1939.25,167.143 1941.23,167.129 1943.21,167.125 1945.19,167.123 1947.17,167.123 1949.15,167.106 1951.13,167.105 1953.11,167.1 1955.08,167.089 1957.06,167.088 1959.04,167.087 1961.02,167.081 1963,167.08 1964.98,167.077 1966.96,167.075 1968.94,167.067 1970.91,167.054 1972.89,167.052 1974.87,167.042 1976.85,167.038 1978.83,167.036 1980.81,167.034 1982.79,167.032 1984.77,167.027 1986.74,167.02 1988.72,167.006 1990.7,166.998 1992.68,166.995 1994.66,166.993 1996.64,166.992 1998.62,166.963 2000.6,166.962 2002.57,166.959 2004.55,166.931 2006.53,166.874 2008.51,166.865 2010.49,166.859 2012.47,166.856 2014.45,166.802 2016.43,166.786 2018.4,166.781 2020.38,166.758 2022.36,166.72 2024.34,166.689 2026.32,166.65 2028.3,166.554 2030.28,166.51 2032.26,166.494 2034.23,166.469 2036.21,166.404 2038.19,166.4 2040.17,166.363 2042.15,166.348 2044.13,166.269 2046.11,166.232 2048.09,166.131 2050.06,166.127 2052.04,166.095 2054.02,166.095 2056,165.971 2057.98,165.73 2059.96,165.701 2061.94,165.697 2063.92,165.546 2065.89,165.306 2067.87,165.217 2069.85,165.145 2071.83,165.093 2073.81,165.043 2075.79,164.982 2077.77,164.91 2079.75,164.845 2081.72,164.83 2083.7,164.823 2085.68,164.806 2087.66,164.773 2089.64,164.762 2091.62,164.571 2093.6,164.564 2095.58,164.474 2097.56,164.316 2099.53,164.3 2101.51,164.269 2103.49,164.217 2105.47,164.144 2107.45,164.135 2109.43,164.129 2111.41,163.944 2113.39,163.93 2115.36,163.77 2117.34,163.664 2119.32,163.527 2121.3,163.417 2123.28,163.399 2125.26,163.36 2127.24,163.328 2129.22,163.278 2131.19,163.247 2133.17,163.219 2135.15,163.162 2137.13,163.116 2139.11,162.947 2141.09,162.946 2143.07,162.791 2145.05,162.785 2147.02,162.772 2149,162.727 2150.98,162.703 2152.96,162.662 2154.94,162.66 2156.92,162.613 2158.9,162.601 2160.88,162.55 2162.85,162.516 2164.83,162.455 2166.81,162.407 2168.79,162.375 2170.77,162.326 2172.75,162.31 2174.73,162.291 2176.71,162.268 2178.68,162.211 2180.66,162.193 2182.64,162.191 2184.62,162.152 2186.6,162.099 2188.58,162.067 2190.56,161.972 2192.54,161.927 2194.51,161.876 2196.49,161.837 2198.47,161.782 2200.45,161.776 2202.43,161.775 2204.41,161.755 2206.39,161.746 2208.37,161.741 2210.34,161.694 2212.32,161.459 2214.3,161.4 2216.28,161.398 2218.26,161.396 2220.24,161.329 2222.22,161.252 2224.2,161.244 2226.17,161.219 2228.15,161.116 2230.13,161.083 2232.11,161.051 2234.09,161.048 2236.07,161.032 2238.05,161.012 2240.03,160.984 2242,160.978 2243.98,160.971 2245.96,160.925 2247.94,160.92 2249.92,160.899 2251.9,160.869 2253.88,160.812 2255.86,160.796 2257.83,160.79 2259.81,160.787 2261.79,160.786 2263.77,160.784 2265.75,160.772 2267.73,160.757 2269.71,160.74 2271.69,160.707 2273.66,160.688 2275.64,160.683 2277.62,160.643 2279.6,160.543 2281.58,160.53 2283.56,160.528 2285.54,160.523 2287.52,160.474 2289.49,160.468 2291.47,160.424 2293.45,160.256 "/>
<path clip-path="url(#clip980)" d="M327.212 270.476 L756.357 270.476 L756.357 166.796 L327.212 166.796  Z" fill="#ffffff" fill-rule="evenodd" fill-opacity="1"/>
<polyline clip-path="url(#clip980)" style="stroke:#000000; stroke-linecap:round; stroke-linejoin:round; stroke-width:4; stroke-opacity:1; fill:none" points="327.212,270.476 756.357,270.476 756.357,166.796 327.212,166.796 327.212,270.476 "/>
<polyline clip-path="url(#clip980)" style="stroke:#009af9; stroke-linecap:round; stroke-linejoin:round; stroke-width:4; stroke-opacity:1; fill:none" points="350.495,218.636 490.187,218.636 "/>
<path clip-path="url(#clip980)" d="M535.715 202.49 L535.715 207.05 Q533.052 205.777 530.691 205.152 Q528.33 204.527 526.131 204.527 Q522.312 204.527 520.228 206.008 Q518.168 207.49 518.168 210.221 Q518.168 212.513 519.534 213.694 Q520.923 214.851 524.766 215.569 L527.59 216.147 Q532.821 217.143 535.298 219.666 Q537.798 222.166 537.798 226.379 Q537.798 231.402 534.418 233.994 Q531.062 236.587 524.557 236.587 Q522.103 236.587 519.326 236.031 Q516.571 235.476 513.608 234.388 L513.608 229.573 Q516.455 231.17 519.187 231.981 Q521.918 232.791 524.557 232.791 Q528.562 232.791 530.738 231.217 Q532.914 229.643 532.914 226.726 Q532.914 224.18 531.34 222.744 Q529.789 221.309 526.224 220.592 L523.377 220.036 Q518.145 218.995 515.807 216.772 Q513.469 214.55 513.469 210.592 Q513.469 206.008 516.687 203.37 Q519.928 200.731 525.599 200.731 Q528.029 200.731 530.553 201.171 Q533.076 201.61 535.715 202.49 Z" fill="#000000" fill-rule="nonzero" fill-opacity="1" /><path clip-path="url(#clip980)" d="M544.904 209.99 L549.164 209.99 L549.164 235.916 L544.904 235.916 L544.904 209.99 M544.904 199.897 L549.164 199.897 L549.164 205.291 L544.904 205.291 L544.904 199.897 Z" fill="#000000" fill-rule="nonzero" fill-opacity="1" /><path clip-path="url(#clip980)" d="M578.261 214.967 Q579.858 212.096 582.08 210.731 Q584.302 209.365 587.311 209.365 Q591.362 209.365 593.561 212.212 Q595.76 215.036 595.76 220.268 L595.76 235.916 L591.478 235.916 L591.478 220.407 Q591.478 216.68 590.159 214.874 Q588.839 213.069 586.131 213.069 Q582.821 213.069 580.899 215.268 Q578.978 217.467 578.978 221.263 L578.978 235.916 L574.696 235.916 L574.696 220.407 Q574.696 216.657 573.376 214.874 Q572.057 213.069 569.302 213.069 Q566.038 213.069 564.117 215.291 Q562.196 217.49 562.196 221.263 L562.196 235.916 L557.913 235.916 L557.913 209.99 L562.196 209.99 L562.196 214.018 Q563.654 211.633 565.691 210.499 Q567.728 209.365 570.529 209.365 Q573.353 209.365 575.321 210.8 Q577.312 212.235 578.261 214.967 Z" fill="#000000" fill-rule="nonzero" fill-opacity="1" /><path clip-path="url(#clip980)" d="M604.256 209.99 L608.515 209.99 L608.515 235.916 L604.256 235.916 L604.256 209.99 M604.256 199.897 L608.515 199.897 L608.515 205.291 L604.256 205.291 L604.256 199.897 Z" fill="#000000" fill-rule="nonzero" fill-opacity="1" /><path clip-path="url(#clip980)" d="M617.427 199.897 L621.686 199.897 L621.686 235.916 L617.427 235.916 L617.427 199.897 Z" fill="#000000" fill-rule="nonzero" fill-opacity="1" /><path clip-path="url(#clip980)" d="M642.381 222.883 Q637.219 222.883 635.228 224.064 Q633.237 225.244 633.237 228.092 Q633.237 230.36 634.719 231.703 Q636.223 233.022 638.793 233.022 Q642.334 233.022 644.464 230.522 Q646.617 227.999 646.617 223.832 L646.617 222.883 L642.381 222.883 M650.876 221.124 L650.876 235.916 L646.617 235.916 L646.617 231.981 Q645.158 234.342 642.982 235.476 Q640.807 236.587 637.658 236.587 Q633.677 236.587 631.316 234.365 Q628.978 232.119 628.978 228.369 Q628.978 223.994 631.895 221.772 Q634.834 219.55 640.645 219.55 L646.617 219.55 L646.617 219.133 Q646.617 216.194 644.672 214.596 Q642.751 212.976 639.256 212.976 Q637.033 212.976 634.927 213.508 Q632.82 214.041 630.876 215.106 L630.876 211.17 Q633.214 210.268 635.413 209.828 Q637.612 209.365 639.695 209.365 Q645.32 209.365 648.098 212.282 Q650.876 215.198 650.876 221.124 Z" fill="#000000" fill-rule="nonzero" fill-opacity="1" /><path clip-path="url(#clip980)" d="M674.672 213.971 Q673.955 213.555 673.098 213.37 Q672.265 213.161 671.246 213.161 Q667.635 213.161 665.691 215.522 Q663.769 217.86 663.769 222.258 L663.769 235.916 L659.487 235.916 L659.487 209.99 L663.769 209.99 L663.769 214.018 Q665.112 211.657 667.265 210.522 Q669.418 209.365 672.496 209.365 Q672.936 209.365 673.468 209.434 Q674.001 209.481 674.649 209.596 L674.672 213.971 Z" fill="#000000" fill-rule="nonzero" fill-opacity="1" /><path clip-path="url(#clip980)" d="M679.14 209.99 L683.399 209.99 L683.399 235.916 L679.14 235.916 L679.14 209.99 M679.14 199.897 L683.399 199.897 L683.399 205.291 L679.14 205.291 L679.14 199.897 Z" fill="#000000" fill-rule="nonzero" fill-opacity="1" /><path clip-path="url(#clip980)" d="M696.524 202.629 L696.524 209.99 L705.297 209.99 L705.297 213.3 L696.524 213.3 L696.524 227.374 Q696.524 230.545 697.38 231.448 Q698.26 232.351 700.922 232.351 L705.297 232.351 L705.297 235.916 L700.922 235.916 Q695.991 235.916 694.116 234.087 Q692.241 232.235 692.241 227.374 L692.241 213.3 L689.116 213.3 L689.116 209.99 L692.241 209.99 L692.241 202.629 L696.524 202.629 Z" fill="#000000" fill-rule="nonzero" fill-opacity="1" /><path clip-path="url(#clip980)" d="M721.686 238.323 Q719.88 242.953 718.167 244.365 Q716.454 245.777 713.584 245.777 L710.181 245.777 L710.181 242.212 L712.681 242.212 Q714.44 242.212 715.413 241.379 Q716.385 240.545 717.565 237.443 L718.329 235.499 L707.843 209.99 L712.357 209.99 L720.459 230.268 L728.561 209.99 L733.075 209.99 L721.686 238.323 Z" fill="#000000" fill-rule="nonzero" fill-opacity="1" /></svg>
