<?xml version="1.0" encoding="utf-8"?>
<svg xmlns="http://www.w3.org/2000/svg" xmlns:xlink="http://www.w3.org/1999/xlink" width="600" height="400" viewBox="0 0 2400 1600">
<defs>
  <clipPath id="clip830">
    <rect x="0" y="0" width="2400" height="1600"/>
  </clipPath>
</defs>
<path clip-path="url(#clip830)" d="M0 1600 L2400 1600 L2400 8.88178e-14 L0 8.88178e-14  Z" fill="#ffffff" fill-rule="evenodd" fill-opacity="1"/>
<defs>
  <clipPath id="clip831">
    <rect x="480" y="0" width="1681" height="1600"/>
  </clipPath>
</defs>
<path clip-path="url(#clip830)" d="M257.69 1423.18 L2352.76 1423.18 L2352.76 123.472 L257.69 123.472  Z" fill="#ffffff" fill-rule="evenodd" fill-opacity="1"/>
<defs>
  <clipPath id="clip832">
    <rect x="257" y="123" width="2096" height="1301"/>
  </clipPath>
</defs>
<polyline clip-path="url(#clip832)" style="stroke:#000000; stroke-linecap:round; stroke-linejoin:round; stroke-width:2; stroke-opacity:0.1; fill:none" points="315.006,1423.18 315.006,123.472 "/>
<polyline clip-path="url(#clip832)" style="stroke:#000000; stroke-linecap:round; stroke-linejoin:round; stroke-width:2; stroke-opacity:0.1; fill:none" points="809.62,1423.18 809.62,123.472 "/>
<polyline clip-path="url(#clip832)" style="stroke:#000000; stroke-linecap:round; stroke-linejoin:round; stroke-width:2; stroke-opacity:0.1; fill:none" points="1304.23,1423.18 1304.23,123.472 "/>
<polyline clip-path="url(#clip832)" style="stroke:#000000; stroke-linecap:round; stroke-linejoin:round; stroke-width:2; stroke-opacity:0.1; fill:none" points="1798.85,1423.18 1798.85,123.472 "/>
<polyline clip-path="url(#clip832)" style="stroke:#000000; stroke-linecap:round; stroke-linejoin:round; stroke-width:2; stroke-opacity:0.1; fill:none" points="2293.46,1423.18 2293.46,123.472 "/>
<polyline clip-path="url(#clip830)" style="stroke:#000000; stroke-linecap:round; stroke-linejoin:round; stroke-width:4; stroke-opacity:1; fill:none" points="257.69,1423.18 2352.76,1423.18 "/>
<polyline clip-path="url(#clip830)" style="stroke:#000000; stroke-linecap:round; stroke-linejoin:round; stroke-width:4; stroke-opacity:1; fill:none" points="315.006,1423.18 315.006,1404.28 "/>
<polyline clip-path="url(#clip830)" style="stroke:#000000; stroke-linecap:round; stroke-linejoin:round; stroke-width:4; stroke-opacity:1; fill:none" points="809.62,1423.18 809.62,1404.28 "/>
<polyline clip-path="url(#clip830)" style="stroke:#000000; stroke-linecap:round; stroke-linejoin:round; stroke-width:4; stroke-opacity:1; fill:none" points="1304.23,1423.18 1304.23,1404.28 "/>
<polyline clip-path="url(#clip830)" style="stroke:#000000; stroke-linecap:round; stroke-linejoin:round; stroke-width:4; stroke-opacity:1; fill:none" points="1798.85,1423.18 1798.85,1404.28 "/>
<polyline clip-path="url(#clip830)" style="stroke:#000000; stroke-linecap:round; stroke-linejoin:round; stroke-width:4; stroke-opacity:1; fill:none" points="2293.46,1423.18 2293.46,1404.28 "/>
<path clip-path="url(#clip830)" d="M315.006 1454.1 Q311.395 1454.1 309.566 1457.66 Q307.761 1461.2 307.761 1468.33 Q307.761 1475.44 309.566 1479.01 Q311.395 1482.55 315.006 1482.55 Q318.64 1482.55 320.446 1479.01 Q322.274 1475.44 322.274 1468.33 Q322.274 1461.2 320.446 1457.66 Q318.64 1454.1 315.006 1454.1 M315.006 1450.39 Q320.816 1450.39 323.872 1455 Q326.95 1459.58 326.95 1468.33 Q326.95 1477.06 323.872 1481.67 Q320.816 1486.25 315.006 1486.25 Q309.196 1486.25 306.117 1481.67 Q303.062 1477.06 303.062 1468.33 Q303.062 1459.58 306.117 1455 Q309.196 1450.39 315.006 1450.39 Z" fill="#000000" fill-rule="nonzero" fill-opacity="1" /><path clip-path="url(#clip830)" d="M773.312 1481.64 L789.632 1481.64 L789.632 1485.58 L767.687 1485.58 L767.687 1481.64 Q770.349 1478.89 774.933 1474.26 Q779.539 1469.61 780.72 1468.27 Q782.965 1465.74 783.845 1464.01 Q784.747 1462.25 784.747 1460.56 Q784.747 1457.8 782.803 1456.07 Q780.882 1454.33 777.78 1454.33 Q775.581 1454.33 773.127 1455.09 Q770.696 1455.86 767.919 1457.41 L767.919 1452.69 Q770.743 1451.55 773.196 1450.97 Q775.65 1450.39 777.687 1450.39 Q783.058 1450.39 786.252 1453.08 Q789.446 1455.77 789.446 1460.26 Q789.446 1462.39 788.636 1464.31 Q787.849 1466.2 785.743 1468.8 Q785.164 1469.47 782.062 1472.69 Q778.96 1475.88 773.312 1481.64 Z" fill="#000000" fill-rule="nonzero" fill-opacity="1" /><path clip-path="url(#clip830)" d="M799.493 1451.02 L817.849 1451.02 L817.849 1454.96 L803.775 1454.96 L803.775 1463.43 Q804.794 1463.08 805.812 1462.92 Q806.831 1462.73 807.849 1462.73 Q813.636 1462.73 817.016 1465.9 Q820.395 1469.08 820.395 1474.49 Q820.395 1480.07 816.923 1483.17 Q813.451 1486.25 807.131 1486.25 Q804.956 1486.25 802.687 1485.88 Q800.442 1485.51 798.034 1484.77 L798.034 1480.07 Q800.118 1481.2 802.34 1481.76 Q804.562 1482.32 807.039 1482.32 Q811.043 1482.32 813.381 1480.21 Q815.719 1478.1 815.719 1474.49 Q815.719 1470.88 813.381 1468.77 Q811.043 1466.67 807.039 1466.67 Q805.164 1466.67 803.289 1467.08 Q801.437 1467.5 799.493 1468.38 L799.493 1451.02 Z" fill="#000000" fill-rule="nonzero" fill-opacity="1" /><path clip-path="url(#clip830)" d="M839.608 1454.1 Q835.997 1454.1 834.168 1457.66 Q832.363 1461.2 832.363 1468.33 Q832.363 1475.44 834.168 1479.01 Q835.997 1482.55 839.608 1482.55 Q843.242 1482.55 845.048 1479.01 Q846.877 1475.44 846.877 1468.33 Q846.877 1461.2 845.048 1457.66 Q843.242 1454.1 839.608 1454.1 M839.608 1450.39 Q845.418 1450.39 848.474 1455 Q851.553 1459.58 851.553 1468.33 Q851.553 1477.06 848.474 1481.67 Q845.418 1486.25 839.608 1486.25 Q833.798 1486.25 830.719 1481.67 Q827.664 1477.06 827.664 1468.33 Q827.664 1459.58 830.719 1455 Q833.798 1450.39 839.608 1450.39 Z" fill="#000000" fill-rule="nonzero" fill-opacity="1" /><path clip-path="url(#clip830)" d="M1263.85 1451.02 L1282.21 1451.02 L1282.21 1454.96 L1268.13 1454.96 L1268.13 1463.43 Q1269.15 1463.08 1270.17 1462.92 Q1271.19 1462.73 1272.21 1462.73 Q1278 1462.73 1281.38 1465.9 Q1284.75 1469.08 1284.75 1474.49 Q1284.75 1480.07 1281.28 1483.17 Q1277.81 1486.25 1271.49 1486.25 Q1269.31 1486.25 1267.05 1485.88 Q1264.8 1485.51 1262.39 1484.77 L1262.39 1480.07 Q1264.48 1481.2 1266.7 1481.76 Q1268.92 1482.32 1271.4 1482.32 Q1275.4 1482.32 1277.74 1480.21 Q1280.08 1478.1 1280.08 1474.49 Q1280.08 1470.88 1277.74 1468.77 Q1275.4 1466.67 1271.4 1466.67 Q1269.52 1466.67 1267.65 1467.08 Q1265.8 1467.5 1263.85 1468.38 L1263.85 1451.02 Z" fill="#000000" fill-rule="nonzero" fill-opacity="1" /><path clip-path="url(#clip830)" d="M1303.97 1454.1 Q1300.36 1454.1 1298.53 1457.66 Q1296.72 1461.2 1296.72 1468.33 Q1296.72 1475.44 1298.53 1479.01 Q1300.36 1482.55 1303.97 1482.55 Q1307.6 1482.55 1309.41 1479.01 Q1311.24 1475.44 1311.24 1468.33 Q1311.24 1461.2 1309.41 1457.66 Q1307.6 1454.1 1303.97 1454.1 M1303.97 1450.39 Q1309.78 1450.39 1312.83 1455 Q1315.91 1459.58 1315.91 1468.33 Q1315.91 1477.06 1312.83 1481.67 Q1309.78 1486.25 1303.97 1486.25 Q1298.16 1486.25 1295.08 1481.67 Q1292.02 1477.06 1292.02 1468.33 Q1292.02 1459.58 1295.08 1455 Q1298.16 1450.39 1303.97 1450.39 Z" fill="#000000" fill-rule="nonzero" fill-opacity="1" /><path clip-path="url(#clip830)" d="M1334.13 1454.1 Q1330.52 1454.1 1328.69 1457.66 Q1326.88 1461.2 1326.88 1468.33 Q1326.88 1475.44 1328.69 1479.01 Q1330.52 1482.55 1334.13 1482.55 Q1337.76 1482.55 1339.57 1479.01 Q1341.4 1475.44 1341.4 1468.33 Q1341.4 1461.2 1339.57 1457.66 Q1337.76 1454.1 1334.13 1454.1 M1334.13 1450.39 Q1339.94 1450.39 1343 1455 Q1346.07 1459.58 1346.07 1468.33 Q1346.07 1477.06 1343 1481.67 Q1339.94 1486.25 1334.13 1486.25 Q1328.32 1486.25 1325.24 1481.67 Q1322.19 1477.06 1322.19 1468.33 Q1322.19 1459.58 1325.24 1455 Q1328.32 1450.39 1334.13 1450.39 Z" fill="#000000" fill-rule="nonzero" fill-opacity="1" /><path clip-path="url(#clip830)" d="M1757.12 1451.02 L1779.35 1451.02 L1779.35 1453.01 L1766.8 1485.58 L1761.92 1485.58 L1773.72 1454.96 L1757.12 1454.96 L1757.12 1451.02 Z" fill="#000000" fill-rule="nonzero" fill-opacity="1" /><path clip-path="url(#clip830)" d="M1788.51 1451.02 L1806.87 1451.02 L1806.87 1454.96 L1792.79 1454.96 L1792.79 1463.43 Q1793.81 1463.08 1794.83 1462.92 Q1795.85 1462.73 1796.87 1462.73 Q1802.66 1462.73 1806.04 1465.9 Q1809.41 1469.08 1809.41 1474.49 Q1809.41 1480.07 1805.94 1483.17 Q1802.47 1486.25 1796.15 1486.25 Q1793.98 1486.25 1791.71 1485.88 Q1789.46 1485.51 1787.05 1484.77 L1787.05 1480.07 Q1789.14 1481.2 1791.36 1481.76 Q1793.58 1482.32 1796.06 1482.32 Q1800.06 1482.32 1802.4 1480.21 Q1804.74 1478.1 1804.74 1474.49 Q1804.74 1470.88 1802.4 1468.77 Q1800.06 1466.67 1796.06 1466.67 Q1794.18 1466.67 1792.31 1467.08 Q1790.46 1467.5 1788.51 1468.38 L1788.51 1451.02 Z" fill="#000000" fill-rule="nonzero" fill-opacity="1" /><path clip-path="url(#clip830)" d="M1828.63 1454.1 Q1825.02 1454.1 1823.19 1457.66 Q1821.38 1461.2 1821.38 1468.33 Q1821.38 1475.44 1823.19 1479.01 Q1825.02 1482.55 1828.63 1482.55 Q1832.26 1482.55 1834.07 1479.01 Q1835.9 1475.44 1835.9 1468.33 Q1835.9 1461.2 1834.07 1457.66 Q1832.26 1454.1 1828.63 1454.1 M1828.63 1450.39 Q1834.44 1450.39 1837.49 1455 Q1840.57 1459.58 1840.57 1468.33 Q1840.57 1477.06 1837.49 1481.67 Q1834.44 1486.25 1828.63 1486.25 Q1822.82 1486.25 1819.74 1481.67 Q1816.68 1477.06 1816.68 1468.33 Q1816.68 1459.58 1819.74 1455 Q1822.82 1450.39 1828.63 1450.39 Z" fill="#000000" fill-rule="nonzero" fill-opacity="1" /><path clip-path="url(#clip830)" d="M2237.99 1481.64 L2245.63 1481.64 L2245.63 1455.28 L2237.32 1456.95 L2237.32 1452.69 L2245.58 1451.02 L2250.26 1451.02 L2250.26 1481.64 L2257.89 1481.64 L2257.89 1485.58 L2237.99 1485.58 L2237.99 1481.64 Z" fill="#000000" fill-rule="nonzero" fill-opacity="1" /><path clip-path="url(#clip830)" d="M2277.34 1454.1 Q2273.73 1454.1 2271.9 1457.66 Q2270.09 1461.2 2270.09 1468.33 Q2270.09 1475.44 2271.9 1479.01 Q2273.73 1482.55 2277.34 1482.55 Q2280.97 1482.55 2282.78 1479.01 Q2284.61 1475.44 2284.61 1468.33 Q2284.61 1461.2 2282.78 1457.66 Q2280.97 1454.1 2277.34 1454.1 M2277.34 1450.39 Q2283.15 1450.39 2286.2 1455 Q2289.28 1459.58 2289.28 1468.33 Q2289.28 1477.06 2286.2 1481.67 Q2283.15 1486.25 2277.34 1486.25 Q2271.53 1486.25 2268.45 1481.67 Q2265.39 1477.06 2265.39 1468.33 Q2265.39 1459.58 2268.45 1455 Q2271.53 1450.39 2277.34 1450.39 Z" fill="#000000" fill-rule="nonzero" fill-opacity="1" /><path clip-path="url(#clip830)" d="M2307.5 1454.1 Q2303.89 1454.1 2302.06 1457.66 Q2300.26 1461.2 2300.26 1468.33 Q2300.26 1475.44 2302.06 1479.01 Q2303.89 1482.55 2307.5 1482.55 Q2311.14 1482.55 2312.94 1479.01 Q2314.77 1475.44 2314.77 1468.33 Q2314.77 1461.2 2312.94 1457.66 Q2311.14 1454.1 2307.5 1454.1 M2307.5 1450.39 Q2313.31 1450.39 2316.37 1455 Q2319.45 1459.58 2319.45 1468.33 Q2319.45 1477.06 2316.37 1481.67 Q2313.31 1486.25 2307.5 1486.25 Q2301.69 1486.25 2298.61 1481.67 Q2295.56 1477.06 2295.56 1468.33 Q2295.56 1459.58 2298.61 1455 Q2301.69 1450.39 2307.5 1450.39 Z" fill="#000000" fill-rule="nonzero" fill-opacity="1" /><path clip-path="url(#clip830)" d="M2337.66 1454.1 Q2334.05 1454.1 2332.22 1457.66 Q2330.42 1461.2 2330.42 1468.33 Q2330.42 1475.44 2332.22 1479.01 Q2334.05 1482.55 2337.66 1482.55 Q2341.3 1482.55 2343.1 1479.01 Q2344.93 1475.44 2344.93 1468.33 Q2344.93 1461.2 2343.1 1457.66 Q2341.3 1454.1 2337.66 1454.1 M2337.66 1450.39 Q2343.47 1450.39 2346.53 1455 Q2349.61 1459.58 2349.61 1468.33 Q2349.61 1477.06 2346.53 1481.67 Q2343.47 1486.25 2337.66 1486.25 Q2331.85 1486.25 2328.77 1481.67 Q2325.72 1477.06 2325.72 1468.33 Q2325.72 1459.58 2328.77 1455 Q2331.85 1450.39 2337.66 1450.39 Z" fill="#000000" fill-rule="nonzero" fill-opacity="1" /><path clip-path="url(#clip830)" d="M1269.07 1524.18 L1269.07 1530.96 Q1265.82 1527.94 1262.13 1526.44 Q1258.47 1524.95 1254.33 1524.95 Q1246.18 1524.95 1241.85 1529.95 Q1237.52 1534.91 1237.52 1544.33 Q1237.52 1553.72 1241.85 1558.72 Q1246.18 1563.68 1254.33 1563.68 Q1258.47 1563.68 1262.13 1562.19 Q1265.82 1560.69 1269.07 1557.67 L1269.07 1564.38 Q1265.69 1566.68 1261.9 1567.82 Q1258.15 1568.97 1253.95 1568.97 Q1243.16 1568.97 1236.95 1562.38 Q1230.74 1555.76 1230.74 1544.33 Q1230.74 1532.87 1236.95 1526.28 Q1243.16 1519.66 1253.95 1519.66 Q1258.21 1519.66 1261.97 1520.81 Q1265.76 1521.92 1269.07 1524.18 Z" fill="#000000" fill-rule="nonzero" fill-opacity="1" /><path clip-path="url(#clip830)" d="M1309.23 1548.76 L1309.23 1551.62 L1282.31 1551.62 Q1282.69 1557.67 1285.93 1560.85 Q1289.21 1564 1295.04 1564 Q1298.41 1564 1301.56 1563.17 Q1304.75 1562.35 1307.86 1560.69 L1307.86 1566.23 Q1304.71 1567.57 1301.4 1568.27 Q1298.09 1568.97 1294.69 1568.97 Q1286.16 1568.97 1281.16 1564 Q1276.2 1559.04 1276.2 1550.57 Q1276.2 1541.82 1280.91 1536.69 Q1285.65 1531.54 1293.67 1531.54 Q1300.86 1531.54 1305.03 1536.18 Q1309.23 1540.8 1309.23 1548.76 M1303.38 1547.04 Q1303.31 1542.23 1300.67 1539.37 Q1298.06 1536.5 1293.73 1536.5 Q1288.83 1536.5 1285.87 1539.27 Q1282.94 1542.04 1282.5 1547.07 L1303.38 1547.04 Z" fill="#000000" fill-rule="nonzero" fill-opacity="1" /><path clip-path="url(#clip830)" d="M1318.85 1518.52 L1324.7 1518.52 L1324.7 1568.04 L1318.85 1568.04 L1318.85 1518.52 Z" fill="#000000" fill-rule="nonzero" fill-opacity="1" /><path clip-path="url(#clip830)" d="M1336.96 1518.52 L1342.81 1518.52 L1342.81 1568.04 L1336.96 1568.04 L1336.96 1518.52 Z" fill="#000000" fill-rule="nonzero" fill-opacity="1" /><path clip-path="url(#clip830)" d="M1377.79 1533.45 L1377.79 1538.98 Q1375.31 1537.71 1372.64 1537.07 Q1369.96 1536.44 1367.1 1536.44 Q1362.74 1536.44 1360.54 1537.77 Q1358.38 1539.11 1358.38 1541.79 Q1358.38 1543.82 1359.94 1545 Q1361.5 1546.15 1366.21 1547.2 L1368.21 1547.64 Q1374.45 1548.98 1377.06 1551.43 Q1379.7 1553.85 1379.7 1558.21 Q1379.7 1563.17 1375.76 1566.07 Q1371.84 1568.97 1364.97 1568.97 Q1362.1 1568.97 1358.98 1568.39 Q1355.89 1567.85 1352.46 1566.74 L1352.46 1560.69 Q1355.7 1562.38 1358.85 1563.24 Q1362.01 1564.07 1365.09 1564.07 Q1369.23 1564.07 1371.46 1562.66 Q1373.69 1561.23 1373.69 1558.65 Q1373.69 1556.27 1372.06 1554.99 Q1370.47 1553.72 1365.03 1552.54 L1362.99 1552.07 Q1357.55 1550.92 1355.13 1548.56 Q1352.71 1546.18 1352.71 1542.04 Q1352.71 1537.01 1356.28 1534.27 Q1359.84 1531.54 1366.4 1531.54 Q1369.64 1531.54 1372.51 1532.01 Q1375.37 1532.49 1377.79 1533.45 Z" fill="#000000" fill-rule="nonzero" fill-opacity="1" /><polyline clip-path="url(#clip832)" style="stroke:#000000; stroke-linecap:round; stroke-linejoin:round; stroke-width:2; stroke-opacity:0.1; fill:none" points="257.69,1198.65 2352.76,1198.65 "/>
<polyline clip-path="url(#clip832)" style="stroke:#000000; stroke-linecap:round; stroke-linejoin:round; stroke-width:2; stroke-opacity:0.1; fill:none" points="257.69,952.683 2352.76,952.683 "/>
<polyline clip-path="url(#clip832)" style="stroke:#000000; stroke-linecap:round; stroke-linejoin:round; stroke-width:2; stroke-opacity:0.1; fill:none" points="257.69,706.717 2352.76,706.717 "/>
<polyline clip-path="url(#clip832)" style="stroke:#000000; stroke-linecap:round; stroke-linejoin:round; stroke-width:2; stroke-opacity:0.1; fill:none" points="257.69,460.751 2352.76,460.751 "/>
<polyline clip-path="url(#clip832)" style="stroke:#000000; stroke-linecap:round; stroke-linejoin:round; stroke-width:2; stroke-opacity:0.1; fill:none" points="257.69,214.786 2352.76,214.786 "/>
<polyline clip-path="url(#clip830)" style="stroke:#000000; stroke-linecap:round; stroke-linejoin:round; stroke-width:4; stroke-opacity:1; fill:none" points="257.69,1423.18 257.69,123.472 "/>
<polyline clip-path="url(#clip830)" style="stroke:#000000; stroke-linecap:round; stroke-linejoin:round; stroke-width:4; stroke-opacity:1; fill:none" points="257.69,1198.65 276.588,1198.65 "/>
<polyline clip-path="url(#clip830)" style="stroke:#000000; stroke-linecap:round; stroke-linejoin:round; stroke-width:4; stroke-opacity:1; fill:none" points="257.69,952.683 276.588,952.683 "/>
<polyline clip-path="url(#clip830)" style="stroke:#000000; stroke-linecap:round; stroke-linejoin:round; stroke-width:4; stroke-opacity:1; fill:none" points="257.69,706.717 276.588,706.717 "/>
<polyline clip-path="url(#clip830)" style="stroke:#000000; stroke-linecap:round; stroke-linejoin:round; stroke-width:4; stroke-opacity:1; fill:none" points="257.69,460.751 276.588,460.751 "/>
<polyline clip-path="url(#clip830)" style="stroke:#000000; stroke-linecap:round; stroke-linejoin:round; stroke-width:4; stroke-opacity:1; fill:none" points="257.69,214.786 276.588,214.786 "/>
<path clip-path="url(#clip830)" d="M114.26 1199.1 L143.936 1199.1 L143.936 1203.03 L114.26 1203.03 L114.26 1199.1 Z" fill="#000000" fill-rule="nonzero" fill-opacity="1" /><path clip-path="url(#clip830)" d="M164.028 1184.45 Q160.417 1184.45 158.589 1188.01 Q156.783 1191.55 156.783 1198.68 Q156.783 1205.79 158.589 1209.35 Q160.417 1212.9 164.028 1212.9 Q167.663 1212.9 169.468 1209.35 Q171.297 1205.79 171.297 1198.68 Q171.297 1191.55 169.468 1188.01 Q167.663 1184.45 164.028 1184.45 M164.028 1180.74 Q169.839 1180.74 172.894 1185.35 Q175.973 1189.93 175.973 1198.68 Q175.973 1207.41 172.894 1212.02 Q169.839 1216.6 164.028 1216.6 Q158.218 1216.6 155.14 1212.02 Q152.084 1207.41 152.084 1198.68 Q152.084 1189.93 155.14 1185.35 Q158.218 1180.74 164.028 1180.74 Z" fill="#000000" fill-rule="nonzero" fill-opacity="1" /><path clip-path="url(#clip830)" d="M184.19 1210.05 L189.075 1210.05 L189.075 1215.93 L184.19 1215.93 L184.19 1210.05 Z" fill="#000000" fill-rule="nonzero" fill-opacity="1" /><path clip-path="url(#clip830)" d="M212.107 1185.44 L200.301 1203.89 L212.107 1203.89 L212.107 1185.44 M210.88 1181.37 L216.76 1181.37 L216.76 1203.89 L221.69 1203.89 L221.69 1207.78 L216.76 1207.78 L216.76 1215.93 L212.107 1215.93 L212.107 1207.78 L196.505 1207.78 L196.505 1203.27 L210.88 1181.37 Z" fill="#000000" fill-rule="nonzero" fill-opacity="1" /><path clip-path="url(#clip830)" d="M116.343 953.134 L146.019 953.134 L146.019 957.069 L116.343 957.069 L116.343 953.134 Z" fill="#000000" fill-rule="nonzero" fill-opacity="1" /><path clip-path="url(#clip830)" d="M166.112 938.481 Q162.501 938.481 160.672 942.046 Q158.866 945.588 158.866 952.717 Q158.866 959.824 160.672 963.389 Q162.501 966.93 166.112 966.93 Q169.746 966.93 171.552 963.389 Q173.38 959.824 173.38 952.717 Q173.38 945.588 171.552 942.046 Q169.746 938.481 166.112 938.481 M166.112 934.778 Q171.922 934.778 174.977 939.384 Q178.056 943.968 178.056 952.717 Q178.056 961.444 174.977 966.051 Q171.922 970.634 166.112 970.634 Q160.302 970.634 157.223 966.051 Q154.167 961.444 154.167 952.717 Q154.167 943.968 157.223 939.384 Q160.302 934.778 166.112 934.778 Z" fill="#000000" fill-rule="nonzero" fill-opacity="1" /><path clip-path="url(#clip830)" d="M186.274 964.083 L191.158 964.083 L191.158 969.963 L186.274 969.963 L186.274 964.083 Z" fill="#000000" fill-rule="nonzero" fill-opacity="1" /><path clip-path="url(#clip830)" d="M205.371 966.028 L221.69 966.028 L221.69 969.963 L199.746 969.963 L199.746 966.028 Q202.408 963.273 206.991 958.643 Q211.598 953.991 212.778 952.648 Q215.024 950.125 215.903 948.389 Q216.806 946.63 216.806 944.94 Q216.806 942.185 214.861 940.449 Q212.94 938.713 209.838 938.713 Q207.639 938.713 205.186 939.477 Q202.755 940.241 199.977 941.792 L199.977 937.069 Q202.801 935.935 205.255 935.356 Q207.709 934.778 209.746 934.778 Q215.116 934.778 218.311 937.463 Q221.505 940.148 221.505 944.639 Q221.505 946.768 220.695 948.69 Q219.908 950.588 217.801 953.18 Q217.223 953.852 214.121 957.069 Q211.019 960.264 205.371 966.028 Z" fill="#000000" fill-rule="nonzero" fill-opacity="1" /><path clip-path="url(#clip830)" d="M164.515 692.516 Q160.903 692.516 159.075 696.081 Q157.269 699.622 157.269 706.752 Q157.269 713.858 159.075 717.423 Q160.903 720.965 164.515 720.965 Q168.149 720.965 169.954 717.423 Q171.783 713.858 171.783 706.752 Q171.783 699.622 169.954 696.081 Q168.149 692.516 164.515 692.516 M164.515 688.812 Q170.325 688.812 173.38 693.419 Q176.459 698.002 176.459 706.752 Q176.459 715.479 173.38 720.085 Q170.325 724.668 164.515 724.668 Q158.704 724.668 155.626 720.085 Q152.57 715.479 152.57 706.752 Q152.57 698.002 155.626 693.419 Q158.704 688.812 164.515 688.812 Z" fill="#000000" fill-rule="nonzero" fill-opacity="1" /><path clip-path="url(#clip830)" d="M184.676 718.118 L189.561 718.118 L189.561 723.997 L184.676 723.997 L184.676 718.118 Z" fill="#000000" fill-rule="nonzero" fill-opacity="1" /><path clip-path="url(#clip830)" d="M209.746 692.516 Q206.135 692.516 204.306 696.081 Q202.5 699.622 202.5 706.752 Q202.5 713.858 204.306 717.423 Q206.135 720.965 209.746 720.965 Q213.38 720.965 215.186 717.423 Q217.014 713.858 217.014 706.752 Q217.014 699.622 215.186 696.081 Q213.38 692.516 209.746 692.516 M209.746 688.812 Q215.556 688.812 218.611 693.419 Q221.69 698.002 221.69 706.752 Q221.69 715.479 218.611 720.085 Q215.556 724.668 209.746 724.668 Q203.936 724.668 200.857 720.085 Q197.801 715.479 197.801 706.752 Q197.801 698.002 200.857 693.419 Q203.936 688.812 209.746 688.812 Z" fill="#000000" fill-rule="nonzero" fill-opacity="1" /><path clip-path="url(#clip830)" d="M166.112 446.55 Q162.501 446.55 160.672 450.115 Q158.866 453.657 158.866 460.786 Q158.866 467.893 160.672 471.457 Q162.501 474.999 166.112 474.999 Q169.746 474.999 171.552 471.457 Q173.38 467.893 173.38 460.786 Q173.38 453.657 171.552 450.115 Q169.746 446.55 166.112 446.55 M166.112 442.846 Q171.922 442.846 174.977 447.453 Q178.056 452.036 178.056 460.786 Q178.056 469.513 174.977 474.119 Q171.922 478.703 166.112 478.703 Q160.302 478.703 157.223 474.119 Q154.167 469.513 154.167 460.786 Q154.167 452.036 157.223 447.453 Q160.302 442.846 166.112 442.846 Z" fill="#000000" fill-rule="nonzero" fill-opacity="1" /><path clip-path="url(#clip830)" d="M186.274 472.152 L191.158 472.152 L191.158 478.031 L186.274 478.031 L186.274 472.152 Z" fill="#000000" fill-rule="nonzero" fill-opacity="1" /><path clip-path="url(#clip830)" d="M205.371 474.096 L221.69 474.096 L221.69 478.031 L199.746 478.031 L199.746 474.096 Q202.408 471.342 206.991 466.712 Q211.598 462.059 212.778 460.717 Q215.024 458.194 215.903 456.458 Q216.806 454.698 216.806 453.008 Q216.806 450.254 214.861 448.518 Q212.94 446.782 209.838 446.782 Q207.639 446.782 205.186 447.546 Q202.755 448.309 199.977 449.86 L199.977 445.138 Q202.801 444.004 205.255 443.425 Q207.709 442.846 209.746 442.846 Q215.116 442.846 218.311 445.532 Q221.505 448.217 221.505 452.708 Q221.505 454.837 220.695 456.758 Q219.908 458.657 217.801 461.249 Q217.223 461.92 214.121 465.138 Q211.019 468.332 205.371 474.096 Z" fill="#000000" fill-rule="nonzero" fill-opacity="1" /><path clip-path="url(#clip830)" d="M164.028 200.585 Q160.417 200.585 158.589 204.149 Q156.783 207.691 156.783 214.821 Q156.783 221.927 158.589 225.492 Q160.417 229.033 164.028 229.033 Q167.663 229.033 169.468 225.492 Q171.297 221.927 171.297 214.821 Q171.297 207.691 169.468 204.149 Q167.663 200.585 164.028 200.585 M164.028 196.881 Q169.839 196.881 172.894 201.487 Q175.973 206.071 175.973 214.821 Q175.973 223.547 172.894 228.154 Q169.839 232.737 164.028 232.737 Q158.218 232.737 155.14 228.154 Q152.084 223.547 152.084 214.821 Q152.084 206.071 155.14 201.487 Q158.218 196.881 164.028 196.881 Z" fill="#000000" fill-rule="nonzero" fill-opacity="1" /><path clip-path="url(#clip830)" d="M184.19 226.186 L189.075 226.186 L189.075 232.066 L184.19 232.066 L184.19 226.186 Z" fill="#000000" fill-rule="nonzero" fill-opacity="1" /><path clip-path="url(#clip830)" d="M212.107 201.58 L200.301 220.029 L212.107 220.029 L212.107 201.58 M210.88 197.506 L216.76 197.506 L216.76 220.029 L221.69 220.029 L221.69 223.918 L216.76 223.918 L216.76 232.066 L212.107 232.066 L212.107 223.918 L196.505 223.918 L196.505 219.404 L210.88 197.506 Z" fill="#000000" fill-rule="nonzero" fill-opacity="1" /><path clip-path="url(#clip830)" d="M18.0438 893.717 L24.314 893.717 Q22.5634 897.378 21.704 900.624 Q20.8447 903.871 20.8447 906.894 Q20.8447 912.146 22.8817 915.011 Q24.9187 917.843 28.6745 917.843 Q31.8255 917.843 33.4488 915.966 Q35.0402 914.056 36.0269 908.772 L36.8226 904.889 Q38.1912 897.696 41.6605 894.29 Q45.098 890.853 50.8908 890.853 Q57.7976 890.853 61.3624 895.5 Q64.9272 900.115 64.9272 909.059 Q64.9272 912.433 64.1633 916.252 Q63.3994 920.04 61.9035 924.114 L55.2831 924.114 Q57.4793 920.199 58.5933 916.443 Q59.7073 912.687 59.7073 909.059 Q59.7073 903.552 57.543 900.561 Q55.3786 897.569 51.3682 897.569 Q47.8671 897.569 45.8937 899.733 Q43.9204 901.866 42.9337 906.767 L42.1698 910.682 Q40.7375 917.875 37.682 921.09 Q34.6264 924.305 29.1837 924.305 Q22.8817 924.305 19.2532 919.88 Q15.6248 915.424 15.6248 907.626 Q15.6248 904.284 16.2295 900.815 Q16.8343 897.346 18.0438 893.717 Z" fill="#000000" fill-rule="nonzero" fill-opacity="1" /><path clip-path="url(#clip830)" d="M28.3562 881.081 L28.3562 875.225 L64.0042 875.225 L64.0042 881.081 L28.3562 881.081 M14.479 881.081 L14.479 875.225 L21.895 875.225 L21.895 881.081 L14.479 881.081 Z" fill="#000000" fill-rule="nonzero" fill-opacity="1" /><path clip-path="url(#clip830)" d="M35.1993 835.217 Q31.2526 833.02 29.3747 829.965 Q27.4968 826.909 27.4968 822.772 Q27.4968 817.202 31.4117 814.178 Q35.2948 811.154 42.4881 811.154 L64.0042 811.154 L64.0042 817.042 L42.679 817.042 Q37.5546 817.042 35.072 818.857 Q32.5894 820.671 32.5894 824.395 Q32.5894 828.946 35.6131 831.588 Q38.6368 834.23 43.8567 834.23 L64.0042 834.23 L64.0042 840.118 L42.679 840.118 Q37.5228 840.118 35.072 841.932 Q32.5894 843.747 32.5894 847.534 Q32.5894 852.022 35.6449 854.664 Q38.6686 857.306 43.8567 857.306 L64.0042 857.306 L64.0042 863.194 L28.3562 863.194 L28.3562 857.306 L33.8944 857.306 Q30.616 855.3 29.0564 852.499 Q27.4968 849.699 27.4968 845.847 Q27.4968 841.964 29.4702 839.259 Q31.4436 836.522 35.1993 835.217 Z" fill="#000000" fill-rule="nonzero" fill-opacity="1" /><path clip-path="url(#clip830)" d="M28.3562 799.473 L28.3562 793.617 L64.0042 793.617 L64.0042 799.473 L28.3562 799.473 M14.479 799.473 L14.479 793.617 L21.895 793.617 L21.895 799.473 L14.479 799.473 Z" fill="#000000" fill-rule="nonzero" fill-opacity="1" /><path clip-path="url(#clip830)" d="M14.479 781.363 L14.479 775.506 L64.0042 775.506 L64.0042 781.363 L14.479 781.363 Z" fill="#000000" fill-rule="nonzero" fill-opacity="1" /><path clip-path="url(#clip830)" d="M46.0847 747.052 Q46.0847 754.149 47.7079 756.887 Q49.3312 759.624 53.2461 759.624 Q56.3653 759.624 58.2114 757.587 Q60.0256 755.518 60.0256 751.985 Q60.0256 747.115 56.5881 744.187 Q53.1188 741.227 47.3897 741.227 L46.0847 741.227 L46.0847 747.052 M43.6657 735.37 L64.0042 735.37 L64.0042 741.227 L58.5933 741.227 Q61.8398 743.232 63.3994 746.224 Q64.9272 749.216 64.9272 753.545 Q64.9272 759.019 61.8716 762.266 Q58.7843 765.48 53.6281 765.48 Q47.6125 765.48 44.5569 761.47 Q41.5014 757.428 41.5014 749.439 L41.5014 741.227 L40.9285 741.227 Q36.8862 741.227 34.6901 743.901 Q32.4621 746.542 32.4621 751.348 Q32.4621 754.404 33.1941 757.3 Q33.9262 760.197 35.3903 762.87 L29.9795 762.87 Q28.7381 759.656 28.1334 756.632 Q27.4968 753.608 27.4968 750.744 Q27.4968 743.009 31.5072 739.19 Q35.5176 735.37 43.6657 735.37 Z" fill="#000000" fill-rule="nonzero" fill-opacity="1" /><path clip-path="url(#clip830)" d="M33.8307 702.651 Q33.2578 703.637 33.0032 704.815 Q32.7167 705.961 32.7167 707.361 Q32.7167 712.327 35.9632 715 Q39.1779 717.642 45.2253 717.642 L64.0042 717.642 L64.0042 723.53 L28.3562 723.53 L28.3562 717.642 L33.8944 717.642 Q30.6479 715.796 29.0883 712.836 Q27.4968 709.876 27.4968 705.643 Q27.4968 705.038 27.5923 704.306 Q27.656 703.574 27.8151 702.683 L33.8307 702.651 Z" fill="#000000" fill-rule="nonzero" fill-opacity="1" /><path clip-path="url(#clip830)" d="M28.3562 696.508 L28.3562 690.651 L64.0042 690.651 L64.0042 696.508 L28.3562 696.508 M14.479 696.508 L14.479 690.651 L21.895 690.651 L21.895 696.508 L14.479 696.508 Z" fill="#000000" fill-rule="nonzero" fill-opacity="1" /><path clip-path="url(#clip830)" d="M18.2347 672.605 L28.3562 672.605 L28.3562 660.542 L32.9077 660.542 L32.9077 672.605 L52.2594 672.605 Q56.6199 672.605 57.8613 671.427 Q59.1026 670.217 59.1026 666.557 L59.1026 660.542 L64.0042 660.542 L64.0042 666.557 Q64.0042 673.337 61.4897 675.915 Q58.9434 678.493 52.2594 678.493 L32.9077 678.493 L32.9077 682.79 L28.3562 682.79 L28.3562 678.493 L18.2347 678.493 L18.2347 672.605 Z" fill="#000000" fill-rule="nonzero" fill-opacity="1" /><path clip-path="url(#clip830)" d="M67.3143 638.007 Q73.68 640.49 75.6216 642.845 Q77.5631 645.2 77.5631 649.147 L77.5631 653.826 L72.6615 653.826 L72.6615 650.388 Q72.6615 647.969 71.5157 646.633 Q70.3699 645.296 66.1048 643.672 L63.4312 642.622 L28.3562 657.04 L28.3562 650.834 L56.238 639.694 L28.3562 628.554 L28.3562 622.347 L67.3143 638.007 Z" fill="#000000" fill-rule="nonzero" fill-opacity="1" /><path clip-path="url(#clip830)" d="M423.888 14.0809 L423.888 22.0612 Q419.23 19.8332 415.098 18.7395 Q410.966 17.6457 407.117 17.6457 Q400.433 17.6457 396.787 20.2383 Q393.182 22.8309 393.182 27.611 Q393.182 31.6214 395.572 33.6873 Q398.003 35.7128 404.727 36.9686 L409.669 37.9813 Q418.824 39.7232 423.159 44.1387 Q427.534 48.5136 427.534 55.8863 Q427.534 64.6767 421.62 69.2137 Q415.746 73.7508 404.363 73.7508 Q400.069 73.7508 395.208 72.7785 Q390.387 71.8063 385.202 69.9024 L385.202 61.4765 Q390.185 64.2716 394.965 65.6895 Q399.745 67.1073 404.363 67.1073 Q411.371 67.1073 415.179 64.3527 Q418.986 61.598 418.986 56.4939 Q418.986 52.0379 416.232 49.5264 Q413.518 47.0148 407.279 45.759 L402.297 44.7868 Q393.142 42.9639 389.05 39.075 Q384.959 35.1862 384.959 28.2591 Q384.959 20.2383 390.59 15.6203 Q396.261 11.0023 406.186 11.0023 Q410.439 11.0023 414.855 11.7719 Q419.27 12.5416 423.888 14.0809 Z" fill="#000000" fill-rule="nonzero" fill-opacity="1" /><path clip-path="url(#clip830)" d="M457.551 32.4315 Q451.556 32.4315 448.072 37.1306 Q444.588 41.7891 444.588 49.9314 Q444.588 58.0738 448.031 62.7728 Q451.515 67.4314 457.551 67.4314 Q463.506 67.4314 466.99 62.7323 Q470.473 58.0333 470.473 49.9314 Q470.473 41.8701 466.99 37.1711 Q463.506 32.4315 457.551 32.4315 M457.551 26.1121 Q467.273 26.1121 472.823 32.4315 Q478.373 38.7509 478.373 49.9314 Q478.373 61.0714 472.823 67.4314 Q467.273 73.7508 457.551 73.7508 Q447.788 73.7508 442.239 67.4314 Q436.729 61.0714 436.729 49.9314 Q436.729 38.7509 442.239 32.4315 Q447.788 26.1121 457.551 26.1121 Z" fill="#000000" fill-rule="nonzero" fill-opacity="1" /><path clip-path="url(#clip830)" d="M517.018 34.1734 Q515.763 33.4443 514.264 33.1202 Q512.805 32.7556 511.023 32.7556 Q504.704 32.7556 501.301 36.8875 Q497.939 40.9789 497.939 48.6757 L497.939 72.576 L490.444 72.576 L490.444 27.2059 L497.939 27.2059 L497.939 34.2544 Q500.288 30.1225 504.055 28.1376 Q507.823 26.1121 513.21 26.1121 Q513.98 26.1121 514.912 26.2337 Q515.844 26.3147 516.978 26.5172 L517.018 34.1734 Z" fill="#000000" fill-rule="nonzero" fill-opacity="1" /><path clip-path="url(#clip830)" d="M532.209 14.324 L532.209 27.2059 L547.562 27.2059 L547.562 32.9987 L532.209 32.9987 L532.209 57.6282 Q532.209 63.1779 533.708 64.7578 Q535.247 66.3376 539.906 66.3376 L547.562 66.3376 L547.562 72.576 L539.906 72.576 Q531.278 72.576 527.996 69.3758 Q524.715 66.1351 524.715 57.6282 L524.715 32.9987 L519.246 32.9987 L519.246 27.2059 L524.715 27.2059 L524.715 14.324 L532.209 14.324 Z" fill="#000000" fill-rule="nonzero" fill-opacity="1" /><path clip-path="url(#clip830)" d="M596.173 48.0275 L596.173 51.6733 L561.902 51.6733 Q562.388 59.3701 566.52 63.421 Q570.693 67.4314 578.106 67.4314 Q582.4 67.4314 586.41 66.3781 Q590.461 65.3249 594.431 63.2184 L594.431 70.267 Q590.421 71.9684 586.208 72.8596 Q581.995 73.7508 577.66 73.7508 Q566.804 73.7508 560.444 67.4314 Q554.125 61.1119 554.125 50.3365 Q554.125 39.1965 560.12 32.6746 Q566.156 26.1121 576.364 26.1121 Q585.519 26.1121 590.826 32.0264 Q596.173 37.9003 596.173 48.0275 M588.719 45.84 Q588.638 39.7232 585.276 36.0774 Q581.954 32.4315 576.445 32.4315 Q570.207 32.4315 566.439 35.9558 Q562.713 39.4801 562.145 45.8805 L588.719 45.84 Z" fill="#000000" fill-rule="nonzero" fill-opacity="1" /><path clip-path="url(#clip830)" d="M638.262 34.0924 L638.262 9.54393 L645.716 9.54393 L645.716 72.576 L638.262 72.576 L638.262 65.7705 Q635.912 69.8214 632.307 71.8063 Q628.742 73.7508 623.719 73.7508 Q615.496 73.7508 610.311 67.1883 Q605.166 60.6258 605.166 49.9314 Q605.166 39.2371 610.311 32.6746 Q615.496 26.1121 623.719 26.1121 Q628.742 26.1121 632.307 28.0971 Q635.912 30.0415 638.262 34.0924 M612.863 49.9314 Q612.863 58.1548 616.225 62.8538 Q619.628 67.5124 625.542 67.5124 Q631.456 67.5124 634.859 62.8538 Q638.262 58.1548 638.262 49.9314 Q638.262 41.7081 634.859 37.0496 Q631.456 32.3505 625.542 32.3505 Q619.628 32.3505 616.225 37.0496 Q612.863 41.7081 612.863 49.9314 Z" fill="#000000" fill-rule="nonzero" fill-opacity="1" /><path clip-path="url(#clip830)" d="M720.09 28.9478 L720.09 35.9153 Q716.93 34.1734 713.73 33.3227 Q710.571 32.4315 707.33 32.4315 Q700.079 32.4315 696.068 37.0496 Q692.058 41.6271 692.058 49.9314 Q692.058 58.2358 696.068 62.8538 Q700.079 67.4314 707.33 67.4314 Q710.571 67.4314 713.73 66.5807 Q716.93 65.6895 720.09 63.9476 L720.09 70.8341 Q716.971 72.2924 713.609 73.0216 Q710.287 73.7508 706.52 73.7508 Q696.271 73.7508 690.235 67.3098 Q684.199 60.8689 684.199 49.9314 Q684.199 38.832 690.276 32.472 Q696.392 26.1121 707.006 26.1121 Q710.449 26.1121 713.73 26.8413 Q717.011 27.5299 720.09 28.9478 Z" fill="#000000" fill-rule="nonzero" fill-opacity="1" /><path clip-path="url(#clip830)" d="M750.634 32.4315 Q744.639 32.4315 741.155 37.1306 Q737.671 41.7891 737.671 49.9314 Q737.671 58.0738 741.114 62.7728 Q744.598 67.4314 750.634 67.4314 Q756.589 67.4314 760.073 62.7323 Q763.556 58.0333 763.556 49.9314 Q763.556 41.8701 760.073 37.1711 Q756.589 32.4315 750.634 32.4315 M750.634 26.1121 Q760.356 26.1121 765.906 32.4315 Q771.456 38.7509 771.456 49.9314 Q771.456 61.0714 765.906 67.4314 Q760.356 73.7508 750.634 73.7508 Q740.871 73.7508 735.322 67.4314 Q729.812 61.0714 729.812 49.9314 Q729.812 38.7509 735.322 32.4315 Q740.871 26.1121 750.634 26.1121 Z" fill="#000000" fill-rule="nonzero" fill-opacity="1" /><path clip-path="url(#clip830)" d="M812.734 28.5427 L812.734 35.5912 Q809.575 33.9709 806.172 33.1607 Q802.769 32.3505 799.123 32.3505 Q793.574 32.3505 790.778 34.0519 Q788.024 35.7533 788.024 39.156 Q788.024 41.7486 790.009 43.2475 Q791.994 44.7058 797.989 46.0426 L800.541 46.6097 Q808.481 48.3111 811.803 51.4303 Q815.165 54.509 815.165 60.0587 Q815.165 66.3781 810.142 70.0644 Q805.159 73.7508 796.409 73.7508 Q792.763 73.7508 788.793 73.0216 Q784.864 72.3329 780.489 70.9151 L780.489 63.2184 Q784.621 65.3654 788.631 66.4591 Q792.642 67.5124 796.571 67.5124 Q801.837 67.5124 804.673 65.73 Q807.509 63.9071 807.509 60.6258 Q807.509 57.5877 805.443 55.9673 Q803.417 54.3469 796.49 52.8481 L793.898 52.2405 Q786.971 50.7821 783.892 47.7845 Q780.813 44.7463 780.813 39.4801 Q780.813 33.0797 785.35 29.5959 Q789.887 26.1121 798.232 26.1121 Q802.364 26.1121 806.01 26.7198 Q809.656 27.3274 812.734 28.5427 Z" fill="#000000" fill-rule="nonzero" fill-opacity="1" /><path clip-path="url(#clip830)" d="M827.034 27.2059 L834.488 27.2059 L834.488 72.576 L827.034 72.576 L827.034 27.2059 M827.034 9.54393 L834.488 9.54393 L834.488 18.9825 L827.034 18.9825 L827.034 9.54393 Z" fill="#000000" fill-rule="nonzero" fill-opacity="1" /><path clip-path="url(#clip830)" d="M887.798 45.1919 L887.798 72.576 L880.344 72.576 L880.344 45.4349 Q880.344 38.994 877.832 35.7938 Q875.321 32.5936 870.298 32.5936 Q864.262 32.5936 860.778 36.4419 Q857.294 40.2903 857.294 46.9338 L857.294 72.576 L849.8 72.576 L849.8 27.2059 L857.294 27.2059 L857.294 34.2544 Q859.968 30.163 863.573 28.1376 Q867.219 26.1121 871.959 26.1121 Q879.777 26.1121 883.787 30.9732 Q887.798 35.7938 887.798 45.1919 Z" fill="#000000" fill-rule="nonzero" fill-opacity="1" /><path clip-path="url(#clip830)" d="M941.472 48.0275 L941.472 51.6733 L907.201 51.6733 Q907.688 59.3701 911.819 63.421 Q915.992 67.4314 923.405 67.4314 Q927.699 67.4314 931.709 66.3781 Q935.76 65.3249 939.73 63.2184 L939.73 70.267 Q935.72 71.9684 931.507 72.8596 Q927.294 73.7508 922.959 73.7508 Q912.103 73.7508 905.743 67.4314 Q899.424 61.1119 899.424 50.3365 Q899.424 39.1965 905.419 32.6746 Q911.455 26.1121 921.663 26.1121 Q930.818 26.1121 936.125 32.0264 Q941.472 37.9003 941.472 48.0275 M934.018 45.84 Q933.937 39.7232 930.575 36.0774 Q927.253 32.4315 921.744 32.4315 Q915.506 32.4315 911.738 35.9558 Q908.012 39.4801 907.444 45.8805 L934.018 45.84 Z" fill="#000000" fill-rule="nonzero" fill-opacity="1" /><path clip-path="url(#clip830)" d="M1009 28.5427 L1009 35.5912 Q1005.84 33.9709 1002.44 33.1607 Q999.035 32.3505 995.39 32.3505 Q989.84 32.3505 987.045 34.0519 Q984.29 35.7533 984.29 39.156 Q984.29 41.7486 986.275 43.2475 Q988.26 44.7058 994.255 46.0426 L996.807 46.6097 Q1004.75 48.3111 1008.07 51.4303 Q1011.43 54.509 1011.43 60.0587 Q1011.43 66.3781 1006.41 70.0644 Q1001.43 73.7508 992.676 73.7508 Q989.03 73.7508 985.06 73.0216 Q981.13 72.3329 976.755 70.9151 L976.755 63.2184 Q980.887 65.3654 984.898 66.4591 Q988.908 67.5124 992.838 67.5124 Q998.104 67.5124 1000.94 65.73 Q1003.77 63.9071 1003.77 60.6258 Q1003.77 57.5877 1001.71 55.9673 Q999.684 54.3469 992.757 52.8481 L990.164 52.2405 Q983.237 50.7821 980.158 47.7845 Q977.08 44.7463 977.08 39.4801 Q977.08 33.0797 981.617 29.5959 Q986.154 26.1121 994.498 26.1121 Q998.63 26.1121 1002.28 26.7198 Q1005.92 27.3274 1009 28.5427 Z" fill="#000000" fill-rule="nonzero" fill-opacity="1" /><path clip-path="url(#clip830)" d="M1023.3 27.2059 L1030.75 27.2059 L1030.75 72.576 L1023.3 72.576 L1023.3 27.2059 M1023.3 9.54393 L1030.75 9.54393 L1030.75 18.9825 L1023.3 18.9825 L1023.3 9.54393 Z" fill="#000000" fill-rule="nonzero" fill-opacity="1" /><path clip-path="url(#clip830)" d="M1081.67 35.9153 Q1084.47 30.8922 1088.36 28.5022 Q1092.25 26.1121 1097.51 26.1121 Q1104.6 26.1121 1108.45 31.0947 Q1112.3 36.0368 1112.3 45.1919 L1112.3 72.576 L1104.8 72.576 L1104.8 45.4349 Q1104.8 38.913 1102.5 35.7533 Q1100.19 32.5936 1095.45 32.5936 Q1089.65 32.5936 1086.29 36.4419 Q1082.93 40.2903 1082.93 46.9338 L1082.93 72.576 L1075.44 72.576 L1075.44 45.4349 Q1075.44 38.8725 1073.13 35.7533 Q1070.82 32.5936 1066 32.5936 Q1060.29 32.5936 1056.92 36.4824 Q1053.56 40.3308 1053.56 46.9338 L1053.56 72.576 L1046.07 72.576 L1046.07 27.2059 L1053.56 27.2059 L1053.56 34.2544 Q1056.11 30.082 1059.68 28.0971 Q1063.24 26.1121 1068.14 26.1121 Q1073.09 26.1121 1076.53 28.6237 Q1080.01 31.1352 1081.67 35.9153 Z" fill="#000000" fill-rule="nonzero" fill-opacity="1" /><path clip-path="url(#clip830)" d="M1127.17 27.2059 L1134.62 27.2059 L1134.62 72.576 L1127.17 72.576 L1127.17 27.2059 M1127.17 9.54393 L1134.62 9.54393 L1134.62 18.9825 L1127.17 18.9825 L1127.17 9.54393 Z" fill="#000000" fill-rule="nonzero" fill-opacity="1" /><path clip-path="url(#clip830)" d="M1150.22 9.54393 L1157.67 9.54393 L1157.67 72.576 L1150.22 72.576 L1150.22 9.54393 Z" fill="#000000" fill-rule="nonzero" fill-opacity="1" /><path clip-path="url(#clip830)" d="M1193.88 49.7694 Q1184.85 49.7694 1181.37 51.8354 Q1177.88 53.9013 1177.88 58.8839 Q1177.88 62.8538 1180.48 65.2034 Q1183.11 67.5124 1187.61 67.5124 Q1193.8 67.5124 1197.53 63.1374 Q1201.3 58.7219 1201.3 51.4303 L1201.3 49.7694 L1193.88 49.7694 M1208.75 46.6907 L1208.75 72.576 L1201.3 72.576 L1201.3 65.6895 Q1198.75 69.8214 1194.94 71.8063 Q1191.13 73.7508 1185.62 73.7508 Q1178.65 73.7508 1174.52 69.8619 Q1170.43 65.9325 1170.43 59.3701 Q1170.43 51.7138 1175.53 47.825 Q1180.68 43.9361 1190.85 43.9361 L1201.3 43.9361 L1201.3 43.2069 Q1201.3 38.0623 1197.89 35.2672 Q1194.53 32.4315 1188.42 32.4315 Q1184.53 32.4315 1180.84 33.3632 Q1177.15 34.295 1173.75 36.1584 L1173.75 29.2718 Q1177.84 27.692 1181.69 26.9223 Q1185.54 26.1121 1189.18 26.1121 Q1199.03 26.1121 1203.89 31.2163 Q1208.75 36.3204 1208.75 46.6907 Z" fill="#000000" fill-rule="nonzero" fill-opacity="1" /><path clip-path="url(#clip830)" d="M1250.39 34.1734 Q1249.14 33.4443 1247.64 33.1202 Q1246.18 32.7556 1244.4 32.7556 Q1238.08 32.7556 1234.68 36.8875 Q1231.31 40.9789 1231.31 48.6757 L1231.31 72.576 L1223.82 72.576 L1223.82 27.2059 L1231.31 27.2059 L1231.31 34.2544 Q1233.66 30.1225 1237.43 28.1376 Q1241.2 26.1121 1246.59 26.1121 Q1247.36 26.1121 1248.29 26.2337 Q1249.22 26.3147 1250.35 26.5172 L1250.39 34.1734 Z" fill="#000000" fill-rule="nonzero" fill-opacity="1" /><path clip-path="url(#clip830)" d="M1258.21 27.2059 L1265.67 27.2059 L1265.67 72.576 L1258.21 72.576 L1258.21 27.2059 M1258.21 9.54393 L1265.67 9.54393 L1265.67 18.9825 L1258.21 18.9825 L1258.21 9.54393 Z" fill="#000000" fill-rule="nonzero" fill-opacity="1" /><path clip-path="url(#clip830)" d="M1288.63 14.324 L1288.63 27.2059 L1303.99 27.2059 L1303.99 32.9987 L1288.63 32.9987 L1288.63 57.6282 Q1288.63 63.1779 1290.13 64.7578 Q1291.67 66.3376 1296.33 66.3376 L1303.99 66.3376 L1303.99 72.576 L1296.33 72.576 Q1287.7 72.576 1284.42 69.3758 Q1281.14 66.1351 1281.14 57.6282 L1281.14 32.9987 L1275.67 32.9987 L1275.67 27.2059 L1281.14 27.2059 L1281.14 14.324 L1288.63 14.324 Z" fill="#000000" fill-rule="nonzero" fill-opacity="1" /><path clip-path="url(#clip830)" d="M1313.79 27.2059 L1321.24 27.2059 L1321.24 72.576 L1313.79 72.576 L1313.79 27.2059 M1313.79 9.54393 L1321.24 9.54393 L1321.24 18.9825 L1313.79 18.9825 L1313.79 9.54393 Z" fill="#000000" fill-rule="nonzero" fill-opacity="1" /><path clip-path="url(#clip830)" d="M1375.65 48.0275 L1375.65 51.6733 L1341.38 51.6733 Q1341.86 59.3701 1346 63.421 Q1350.17 67.4314 1357.58 67.4314 Q1361.87 67.4314 1365.89 66.3781 Q1369.94 65.3249 1373.91 63.2184 L1373.91 70.267 Q1369.9 71.9684 1365.68 72.8596 Q1361.47 73.7508 1357.14 73.7508 Q1346.28 73.7508 1339.92 67.4314 Q1333.6 61.1119 1333.6 50.3365 Q1333.6 39.1965 1339.59 32.6746 Q1345.63 26.1121 1355.84 26.1121 Q1364.99 26.1121 1370.3 32.0264 Q1375.65 37.9003 1375.65 48.0275 M1368.19 45.84 Q1368.11 39.7232 1364.75 36.0774 Q1361.43 32.4315 1355.92 32.4315 Q1349.68 32.4315 1345.91 35.9558 Q1342.19 39.4801 1341.62 45.8805 L1368.19 45.84 Z" fill="#000000" fill-rule="nonzero" fill-opacity="1" /><path clip-path="url(#clip830)" d="M1416.81 28.5427 L1416.81 35.5912 Q1413.65 33.9709 1410.24 33.1607 Q1406.84 32.3505 1403.19 32.3505 Q1397.64 32.3505 1394.85 34.0519 Q1392.09 35.7533 1392.09 39.156 Q1392.09 41.7486 1394.08 43.2475 Q1396.06 44.7058 1402.06 46.0426 L1404.61 46.6097 Q1412.55 48.3111 1415.87 51.4303 Q1419.24 54.509 1419.24 60.0587 Q1419.24 66.3781 1414.21 70.0644 Q1409.23 73.7508 1400.48 73.7508 Q1396.83 73.7508 1392.86 73.0216 Q1388.93 72.3329 1384.56 70.9151 L1384.56 63.2184 Q1388.69 65.3654 1392.7 66.4591 Q1396.71 67.5124 1400.64 67.5124 Q1405.91 67.5124 1408.74 65.73 Q1411.58 63.9071 1411.58 60.6258 Q1411.58 57.5877 1409.51 55.9673 Q1407.49 54.3469 1400.56 52.8481 L1397.97 52.2405 Q1391.04 50.7821 1387.96 47.7845 Q1384.88 44.7463 1384.88 39.4801 Q1384.88 33.0797 1389.42 29.5959 Q1393.96 26.1121 1402.3 26.1121 Q1406.43 26.1121 1410.08 26.7198 Q1413.73 27.3274 1416.81 28.5427 Z" fill="#000000" fill-rule="nonzero" fill-opacity="1" /><path clip-path="url(#clip830)" d="M1490.13 28.9478 L1490.13 35.9153 Q1486.97 34.1734 1483.77 33.3227 Q1480.61 32.4315 1477.37 32.4315 Q1470.12 32.4315 1466.1 37.0496 Q1462.09 41.6271 1462.09 49.9314 Q1462.09 58.2358 1466.1 62.8538 Q1470.12 67.4314 1477.37 67.4314 Q1480.61 67.4314 1483.77 66.5807 Q1486.97 65.6895 1490.13 63.9476 L1490.13 70.8341 Q1487.01 72.2924 1483.65 73.0216 Q1480.32 73.7508 1476.56 73.7508 Q1466.31 73.7508 1460.27 67.3098 Q1454.24 60.8689 1454.24 49.9314 Q1454.24 38.832 1460.31 32.472 Q1466.43 26.1121 1477.04 26.1121 Q1480.49 26.1121 1483.77 26.8413 Q1487.05 27.5299 1490.13 28.9478 Z" fill="#000000" fill-rule="nonzero" fill-opacity="1" /><path clip-path="url(#clip830)" d="M1541.9 48.0275 L1541.9 51.6733 L1507.63 51.6733 Q1508.11 59.3701 1512.24 63.421 Q1516.42 67.4314 1523.83 67.4314 Q1528.12 67.4314 1532.13 66.3781 Q1536.19 65.3249 1540.16 63.2184 L1540.16 70.267 Q1536.14 71.9684 1531.93 72.8596 Q1527.72 73.7508 1523.38 73.7508 Q1512.53 73.7508 1506.17 67.4314 Q1499.85 61.1119 1499.85 50.3365 Q1499.85 39.1965 1505.84 32.6746 Q1511.88 26.1121 1522.09 26.1121 Q1531.24 26.1121 1536.55 32.0264 Q1541.9 37.9003 1541.9 48.0275 M1534.44 45.84 Q1534.36 39.7232 1531 36.0774 Q1527.68 32.4315 1522.17 32.4315 Q1515.93 32.4315 1512.16 35.9558 Q1508.44 39.4801 1507.87 45.8805 L1534.44 45.84 Z" fill="#000000" fill-rule="nonzero" fill-opacity="1" /><path clip-path="url(#clip830)" d="M1554.13 9.54393 L1561.58 9.54393 L1561.58 72.576 L1554.13 72.576 L1554.13 9.54393 Z" fill="#000000" fill-rule="nonzero" fill-opacity="1" /><path clip-path="url(#clip830)" d="M1577.18 9.54393 L1584.63 9.54393 L1584.63 72.576 L1577.18 72.576 L1577.18 9.54393 Z" fill="#000000" fill-rule="nonzero" fill-opacity="1" /><path clip-path="url(#clip830)" d="M1629.07 65.6895 L1642.44 65.6895 L1642.44 19.5497 L1627.9 22.4663 L1627.9 15.0127 L1642.36 12.096 L1650.54 12.096 L1650.54 65.6895 L1663.91 65.6895 L1663.91 72.576 L1629.07 72.576 L1629.07 65.6895 Z" fill="#000000" fill-rule="nonzero" fill-opacity="1" /><path clip-path="url(#clip830)" d="M1697.94 17.4837 Q1691.62 17.4837 1688.42 23.7221 Q1685.26 29.92 1685.26 42.3968 Q1685.26 54.833 1688.42 61.0714 Q1691.62 67.2693 1697.94 67.2693 Q1704.3 67.2693 1707.46 61.0714 Q1710.66 54.833 1710.66 42.3968 Q1710.66 29.92 1707.46 23.7221 Q1704.3 17.4837 1697.94 17.4837 M1697.94 11.0023 Q1708.11 11.0023 1713.45 19.0636 Q1718.84 27.0843 1718.84 42.3968 Q1718.84 57.6687 1713.45 65.73 Q1708.11 73.7508 1697.94 73.7508 Q1687.77 73.7508 1682.38 65.73 Q1677.04 57.6687 1677.04 42.3968 Q1677.04 27.0843 1682.38 19.0636 Q1687.77 11.0023 1697.94 11.0023 Z" fill="#000000" fill-rule="nonzero" fill-opacity="1" /><path clip-path="url(#clip830)" d="M1734.64 65.6895 L1748.01 65.6895 L1748.01 19.5497 L1733.46 22.4663 L1733.46 15.0127 L1747.93 12.096 L1756.11 12.096 L1756.11 65.6895 L1769.48 65.6895 L1769.48 72.576 L1734.64 72.576 L1734.64 65.6895 Z" fill="#000000" fill-rule="nonzero" fill-opacity="1" /><path clip-path="url(#clip830)" d="M1811.32 27.2059 L1818.78 27.2059 L1818.78 72.576 L1811.32 72.576 L1811.32 27.2059 M1811.32 9.54393 L1818.78 9.54393 L1818.78 18.9825 L1811.32 18.9825 L1811.32 9.54393 Z" fill="#000000" fill-rule="nonzero" fill-opacity="1" /><path clip-path="url(#clip830)" d="M1841.75 14.324 L1841.75 27.2059 L1857.1 27.2059 L1857.1 32.9987 L1841.75 32.9987 L1841.75 57.6282 Q1841.75 63.1779 1843.24 64.7578 Q1844.78 66.3376 1849.44 66.3376 L1857.1 66.3376 L1857.1 72.576 L1849.44 72.576 Q1840.81 72.576 1837.53 69.3758 Q1834.25 66.1351 1834.25 57.6282 L1834.25 32.9987 L1828.78 32.9987 L1828.78 27.2059 L1834.25 27.2059 L1834.25 14.324 L1841.75 14.324 Z" fill="#000000" fill-rule="nonzero" fill-opacity="1" /><path clip-path="url(#clip830)" d="M1905.71 48.0275 L1905.71 51.6733 L1871.44 51.6733 Q1871.92 59.3701 1876.06 63.421 Q1880.23 67.4314 1887.64 67.4314 Q1891.94 67.4314 1895.95 66.3781 Q1900 65.3249 1903.97 63.2184 L1903.97 70.267 Q1899.96 71.9684 1895.74 72.8596 Q1891.53 73.7508 1887.2 73.7508 Q1876.34 73.7508 1869.98 67.4314 Q1863.66 61.1119 1863.66 50.3365 Q1863.66 39.1965 1869.66 32.6746 Q1875.69 26.1121 1885.9 26.1121 Q1895.05 26.1121 1900.36 32.0264 Q1905.71 37.9003 1905.71 48.0275 M1898.26 45.84 Q1898.17 39.7232 1894.81 36.0774 Q1891.49 32.4315 1885.98 32.4315 Q1879.74 32.4315 1875.98 35.9558 Q1872.25 39.4801 1871.68 45.8805 L1898.26 45.84 Z" fill="#000000" fill-rule="nonzero" fill-opacity="1" /><path clip-path="url(#clip830)" d="M1944.23 34.1734 Q1942.98 33.4443 1941.48 33.1202 Q1940.02 32.7556 1938.24 32.7556 Q1931.92 32.7556 1928.52 36.8875 Q1925.15 40.9789 1925.15 48.6757 L1925.15 72.576 L1917.66 72.576 L1917.66 27.2059 L1925.15 27.2059 L1925.15 34.2544 Q1927.5 30.1225 1931.27 28.1376 Q1935.04 26.1121 1940.43 26.1121 Q1941.19 26.1121 1942.13 26.2337 Q1943.06 26.3147 1944.19 26.5172 L1944.23 34.1734 Z" fill="#000000" fill-rule="nonzero" fill-opacity="1" /><path clip-path="url(#clip830)" d="M1972.67 49.7694 Q1963.64 49.7694 1960.15 51.8354 Q1956.67 53.9013 1956.67 58.8839 Q1956.67 62.8538 1959.26 65.2034 Q1961.89 67.5124 1966.39 67.5124 Q1972.59 67.5124 1976.32 63.1374 Q1980.08 58.7219 1980.08 51.4303 L1980.08 49.7694 L1972.67 49.7694 M1987.54 46.6907 L1987.54 72.576 L1980.08 72.576 L1980.08 65.6895 Q1977.53 69.8214 1973.72 71.8063 Q1969.92 73.7508 1964.41 73.7508 Q1957.44 73.7508 1953.31 69.8619 Q1949.22 65.9325 1949.22 59.3701 Q1949.22 51.7138 1954.32 47.825 Q1959.46 43.9361 1969.63 43.9361 L1980.08 43.9361 L1980.08 43.2069 Q1980.08 38.0623 1976.68 35.2672 Q1973.32 32.4315 1967.2 32.4315 Q1963.31 32.4315 1959.63 33.3632 Q1955.94 34.295 1952.54 36.1584 L1952.54 29.2718 Q1956.63 27.692 1960.48 26.9223 Q1964.33 26.1121 1967.97 26.1121 Q1977.81 26.1121 1982.68 31.2163 Q1987.54 36.3204 1987.54 46.6907 Z" fill="#000000" fill-rule="nonzero" fill-opacity="1" /><path clip-path="url(#clip830)" d="M2010.26 14.324 L2010.26 27.2059 L2025.62 27.2059 L2025.62 32.9987 L2010.26 32.9987 L2010.26 57.6282 Q2010.26 63.1779 2011.76 64.7578 Q2013.3 66.3376 2017.96 66.3376 L2025.62 66.3376 L2025.62 72.576 L2017.96 72.576 Q2009.33 72.576 2006.05 69.3758 Q2002.77 66.1351 2002.77 57.6282 L2002.77 32.9987 L1997.3 32.9987 L1997.3 27.2059 L2002.77 27.2059 L2002.77 14.324 L2010.26 14.324 Z" fill="#000000" fill-rule="nonzero" fill-opacity="1" /><path clip-path="url(#clip830)" d="M2035.42 27.2059 L2042.87 27.2059 L2042.87 72.576 L2035.42 72.576 L2035.42 27.2059 M2035.42 9.54393 L2042.87 9.54393 L2042.87 18.9825 L2035.42 18.9825 L2035.42 9.54393 Z" fill="#000000" fill-rule="nonzero" fill-opacity="1" /><path clip-path="url(#clip830)" d="M2076.05 32.4315 Q2070.05 32.4315 2066.57 37.1306 Q2063.09 41.7891 2063.09 49.9314 Q2063.09 58.0738 2066.53 62.7728 Q2070.01 67.4314 2076.05 67.4314 Q2082 67.4314 2085.49 62.7323 Q2088.97 58.0333 2088.97 49.9314 Q2088.97 41.8701 2085.49 37.1711 Q2082 32.4315 2076.05 32.4315 M2076.05 26.1121 Q2085.77 26.1121 2091.32 32.4315 Q2096.87 38.7509 2096.87 49.9314 Q2096.87 61.0714 2091.32 67.4314 Q2085.77 73.7508 2076.05 73.7508 Q2066.29 73.7508 2060.74 67.4314 Q2055.23 61.0714 2055.23 49.9314 Q2055.23 38.7509 2060.74 32.4315 Q2066.29 26.1121 2076.05 26.1121 Z" fill="#000000" fill-rule="nonzero" fill-opacity="1" /><path clip-path="url(#clip830)" d="M2146.94 45.1919 L2146.94 72.576 L2139.49 72.576 L2139.49 45.4349 Q2139.49 38.994 2136.97 35.7938 Q2134.46 32.5936 2129.44 32.5936 Q2123.4 32.5936 2119.92 36.4419 Q2116.44 40.2903 2116.44 46.9338 L2116.44 72.576 L2108.94 72.576 L2108.94 27.2059 L2116.44 27.2059 L2116.44 34.2544 Q2119.11 30.163 2122.72 28.1376 Q2126.36 26.1121 2131.1 26.1121 Q2138.92 26.1121 2142.93 30.9732 Q2146.94 35.7938 2146.94 45.1919 Z" fill="#000000" fill-rule="nonzero" fill-opacity="1" /><path clip-path="url(#clip830)" d="M2190.65 65.6895 L2204.02 65.6895 L2204.02 19.5497 L2189.47 22.4663 L2189.47 15.0127 L2203.94 12.096 L2212.12 12.096 L2212.12 65.6895 L2225.49 65.6895 L2225.49 72.576 L2190.65 72.576 L2190.65 65.6895 Z" fill="#000000" fill-rule="nonzero" fill-opacity="1" /><polyline clip-path="url(#clip832)" style="stroke:#009af9; stroke-linecap:round; stroke-linejoin:round; stroke-width:4; stroke-opacity:1; fill:none" points="316.984,1386.4 318.963,1385.49 320.941,1385.48 322.92,1385.47 324.898,1385.47 326.877,1385.47 328.855,1385.47 330.834,1385.47 332.812,1385.47 334.791,1385.46 336.769,1385.46 338.747,1385.46 340.726,1385.46 342.704,1385.46 344.683,1385.46 346.661,1385.46 348.64,1385.46 350.618,1385.45 352.597,1385.45 354.575,1385.45 356.554,1385.45 358.532,1385.45 360.51,1385.45 362.489,1385.45 364.467,1385.45 366.446,1385.45 368.424,1385.44 370.403,1385.44 372.381,1385.44 374.36,1385.44 376.338,1385.44 378.317,1385.44 380.295,1385.44 382.273,1385.44 384.252,1385.44 386.23,1385.44 388.209,1385.44 390.187,1385.44 392.166,1385.43 394.144,1385.43 396.123,1385.43 398.101,1385.43 400.08,1385.43 402.058,1385.43 404.036,1385.43 406.015,1385.43 407.993,1385.43 409.972,1385.43 411.95,1385.43 413.929,1385.43 415.907,1385.43 417.886,1385.43 419.864,1385.43 421.843,1385.42 423.821,1385.42 425.8,1385.42 427.778,1385.42 429.756,1385.42 431.735,1385.42 433.713,1385.42 435.692,1385.41 437.67,1385.41 439.649,1385.41 441.627,1385.4 443.606,1385.4 445.584,1385.4 447.563,1385.4 449.541,1385.4 451.519,1385.39 453.498,1385.39 455.476,1385.39 457.455,1385.39 459.433,1385.39 461.412,1385.39 463.39,1385.38 465.369,1385.38 467.347,1385.38 469.326,1385.38 471.304,1385.38 473.282,1385.38 475.261,1385.38 477.239,1385.37 479.218,1385.37 481.196,1385.37 483.175,1385.37 485.153,1385.37 487.132,1385.37 489.11,1385.37 491.089,1385.37 493.067,1385.36 495.045,1385.36 497.024,1385.36 499.002,1385.36 500.981,1385.36 502.959,1385.36 504.938,1385.36 506.916,1385.36 508.895,1385.35 510.873,1385.35 512.852,1385.35 514.83,1385.35 516.808,1385.35 518.787,1385.35 520.765,1385.35 522.744,1385.35 524.722,1385.35 526.701,1385.35 528.679,1385.35 530.658,1385.35 532.636,1385.34 534.615,1385.34 536.593,1385.34 538.571,1385.34 540.55,1385.34 542.528,1385.34 544.507,1385.34 546.485,1385.34 548.464,1385.34 550.442,1385.34 552.421,1385.34 554.399,1385.34 556.378,1385.34 558.356,1385.33 560.334,1385.33 562.313,1385.33 564.291,1385.33 566.27,1385.33 568.248,1385.33 570.227,1385.33 572.205,1385.33 574.184,1385.32 576.162,1385.32 578.141,1385.32 580.119,1385.32 582.098,1385.32 584.076,1385.32 586.054,1385.32 588.033,1385.32 590.011,1385.32 591.99,1385.32 593.968,1385.32 595.947,1385.32 597.925,1385.32 599.904,1385.32 601.882,1385.32 603.861,1385.32 605.839,1385.32 607.817,1385.32 609.796,1385.32 611.774,1385.32 613.753,1385.31 615.731,1385.31 617.71,1385.31 619.688,1385.31 621.667,1385.31 623.645,1385.31 625.624,1385.31 627.602,1385.31 629.58,1385.31 631.559,1385.31 633.537,1385.31 635.516,1385.31 637.494,1385.31 639.473,1385.31 641.451,1385.31 643.43,1385.31 645.408,1385.31 647.387,1385.31 649.365,1385.31 651.343,1385.31 653.322,1385.31 655.3,1385.31 657.279,1385.31 659.257,1385.31 661.236,1385.31 663.214,1385.31 665.193,1385.31 667.171,1385.31 669.15,1385.31 671.128,1385.31 673.106,1385.31 675.085,1385.31 677.063,1385.31 679.042,1385.31 681.02,1385.31 682.999,1385.31 684.977,1385.31 686.956,1385.31 688.934,1385.31 690.913,1385.31 692.891,1385.31 694.869,1385.31 696.848,1385.31 698.826,1385.31 700.805,1385.31 702.783,1385.31 704.762,1385.31 706.74,1385.31 708.719,1385.31 710.697,1385.3 712.676,1385.3 714.654,1385.3 716.632,1385.3 718.611,1385.3 720.589,1385.3 722.568,1385.3 724.546,1385.29 726.525,1385.29 728.503,1385.29 730.482,1385.29 732.46,1385.29 734.439,1385.28 736.417,1385.28 738.395,1385.27 740.374,1385.27 742.352,1385.26 744.331,1385.26 746.309,1385.25 748.288,1385.25 750.266,1385.24 752.245,1385.24 754.223,1385.24 756.202,1385.23 758.18,1385.22 760.159,1385.22 762.137,1385.21 764.115,1385.2 766.094,1385.19 768.072,1385.19 770.051,1385.18 772.029,1385.17 774.008,1385.17 775.986,1385.17 777.965,1385.17 779.943,1385.16 781.922,1385.15 783.9,1385.15 785.878,1385.15 787.857,1385.13 789.835,1385.13 791.814,1385.12 793.792,1385.11 795.771,1385.1 797.749,1385.1 799.728,1385.1 801.706,1385.09 803.685,1385.06 805.663,1384.71 807.641,1382.54 809.62,1325.16 811.598,1128.08 813.577,1116.62 815.555,1085.63 817.534,1078.76 819.512,1067.59 821.491,1065.05 823.469,1022.31 825.448,980.817 827.426,971.174 829.404,831.534 831.383,828.788 833.361,824.924 835.34,821.604 837.318,817.175 839.297,794.551 841.275,794.324 843.254,781.622 845.232,780.18 847.211,779.794 849.189,779.737 851.167,778.728 853.146,777.334 855.124,777.012 857.103,774.319 859.081,774.063 861.06,772.991 863.038,772.495 865.017,771.918 866.995,770.87 868.974,767.372 870.952,765.778 872.93,765.753 874.909,765.474 876.887,764.997 878.866,764.128 880.844,764.032 882.823,763.724 884.801,763.162 886.78,762.996 888.758,762.926 890.737,762.818 892.715,761.439 894.693,760.879 896.672,760.214 898.65,759.689 900.629,759.612 902.607,759.451 904.586,759.391 906.564,758.394 908.543,757.578 910.521,757.566 912.5,756.058 914.478,755.808 916.456,755.783 918.435,755.347 920.413,754.418 922.392,753.766 924.37,753.405 926.349,750.657 928.327,750.493 930.306,749.602 932.284,749.366 934.263,749.36 936.241,749.237 938.22,749.103 940.198,748.322 942.176,748.291 944.155,747.692 946.133,747.324 948.112,746.769 950.09,746.115 952.069,745.933 954.047,745.486 956.026,745.112 958.004,744.909 959.983,744.732 961.961,744.257 963.939,744.197 965.918,744.048 967.896,743.593 969.875,743.14 971.853,742.798 973.832,742.142 975.81,741.978 977.789,741.395 979.767,741.298 981.746,740.9 983.724,740.649 985.702,740.536 987.681,740.464 989.659,739.866 991.638,739.786 993.616,739.771 995.595,738.556 997.573,738.236 999.552,736.895 1001.53,736.634 1003.51,736.136 1005.49,735.483 1007.47,734.961 1009.44,734.954 1011.42,734.527 1013.4,733.617 1015.38,732.427 1017.36,731.57 1019.34,730.633 1021.31,730.139 1023.29,728.687 1025.27,728.454 1027.25,728.287 1029.23,728.041 1031.21,727.642 1033.19,727.247 1035.16,726.926 1037.14,725.99 1039.12,725.354 1041.1,725.332 1043.08,723.818 1045.06,723.646 1047.03,723.384 1049.01,723.32 1050.99,723.304 1052.97,722.976 1054.95,722.636 1056.93,722.062 1058.91,721.71 1060.88,721.345 1062.86,720.858 1064.84,720.426 1066.82,719.814 1068.8,718.001 1070.78,716.965 1072.75,716.92 1074.73,716.711 1076.71,714.987 1078.69,714.135 1080.67,714.125 1082.65,713.912 1084.63,713.864 1086.6,713.159 1088.58,712.926 1090.56,712.589 1092.54,712.365 1094.52,712.255 1096.5,712.007 1098.47,711.538 1100.45,711.36 1102.43,711.263 1104.41,710.95 1106.39,710.3 1108.37,710.016 1110.35,709.84 1112.32,709.566 1114.3,709.526 1116.28,709.426 1118.26,709.373 1120.24,708.902 1122.22,708.873 1124.19,708.843 1126.17,708.786 1128.15,708.402 1130.13,708.234 1132.11,708.218 1134.09,708.183 1136.07,707.994 1138.04,707.981 1140.02,707.973 1142,707.954 1143.98,707.912 1145.96,707.842 1147.94,707.763 1149.91,707.715 1151.89,707.71 1153.87,707.683 1155.85,707.671 1157.83,707.627 1159.81,707.584 1161.78,707.523 1163.76,707.456 1165.74,707.431 1167.72,707.42 1169.7,707.408 1171.68,707.365 1173.66,707.356 1175.63,707.355 1177.61,707.314 1179.59,707.253 1181.57,707.241 1183.55,707.176 1185.53,707.142 1187.5,707.123 1189.48,707.095 1191.46,707.007 1193.44,706.903 1195.42,706.882 1197.4,706.877 1199.38,706.85 1201.35,706.809 1203.33,706.638 1205.31,706.586 1207.29,706.472 1209.27,706.123 1211.25,705.885 1213.22,705.866 1215.2,705.786 1217.18,705.67 1219.16,705.668 1221.14,705.604 1223.12,705.587 1225.1,705.223 1227.07,705.06 1229.05,704.993 1231.03,704.797 1233.01,704.612 1234.99,702.89 1236.97,702.587 1238.94,702.573 1240.92,702.428 1242.9,701.871 1244.88,701.464 1246.86,701.299 1248.84,700.969 1250.82,700.497 1252.79,699.666 1254.77,698.596 1256.75,698.196 1258.73,698.093 1260.71,697.896 1262.69,697.329 1264.66,696.946 1266.64,696.567 1268.62,692.674 1270.6,690.433 1272.58,688.21 1274.56,686.763 1276.54,685.489 1278.51,685.479 1280.49,678.606 1282.47,676.925 1284.45,673.155 1286.43,663.894 1288.41,653.35 1290.38,650.559 1292.36,635.789 1294.34,623.758 1296.32,612.714 1298.3,601.006 1300.28,579.446 1302.26,575.045 1304.23,568.584 1306.21,376.806 1308.19,376.67 1310.17,376.652 1312.15,376.588 1314.13,376.486 1316.1,376.47 1318.08,376.441 1320.06,376.433 1322.04,376.373 1324.02,376.36 1326,376.356 1327.98,376.347 1329.95,376.294 1331.93,376.284 1333.91,376.283 1335.89,376.265 1337.87,376.261 1339.85,376.226 1341.82,376.223 1343.8,376.222 1345.78,376.211 1347.76,376.167 1349.74,376.146 1351.72,376.117 1353.7,376.109 1355.67,376.095 1357.65,376.077 1359.63,376.076 1361.61,376.058 1363.59,376.047 1365.57,376.04 1367.54,376.038 1369.52,376.011 1371.5,375.985 1373.48,375.964 1375.46,375.961 1377.44,375.96 1379.42,375.958 1381.39,375.923 1383.37,375.911 1385.35,375.873 1387.33,375.873 1389.31,375.871 1391.29,375.857 1393.26,375.84 1395.24,375.828 1397.22,375.827 1399.2,375.827 1401.18,375.814 1403.16,375.807 1405.14,375.805 1407.11,375.804 1409.09,375.802 1411.07,375.8 1413.05,375.794 1415.03,375.786 1417.01,375.769 1418.98,375.741 1420.96,375.717 1422.94,375.682 1424.92,375.679 1426.9,375.678 1428.88,375.672 1430.85,375.655 1432.83,375.646 1434.81,375.622 1436.79,375.618 1438.77,375.597 1440.75,375.592 1442.73,375.592 1444.7,375.588 1446.68,375.546 1448.66,375.496 1450.64,375.451 1452.62,375.425 1454.6,375.423 1456.57,375.402 1458.55,375.371 1460.53,375.352 1462.51,375.339 1464.49,375.295 1466.47,375.284 1468.45,375.262 1470.42,375.261 1472.4,375.242 1474.38,375.241 1476.36,375.235 1478.34,375.217 1480.32,375.208 1482.29,375.201 1484.27,375.189 1486.25,375.143 1488.23,375.138 1490.21,375.133 1492.19,375.066 1494.17,375.064 1496.14,375.059 1498.12,375.018 1500.1,374.998 1502.08,374.968 1504.06,374.965 1506.04,374.945 1508.01,374.912 1509.99,374.879 1511.97,374.855 1513.95,374.847 1515.93,374.772 1517.91,374.722 1519.89,374.713 1521.86,374.709 1523.84,374.702 1525.82,374.642 1527.8,374.622 1529.78,374.516 1531.76,374.49 1533.73,374.46 1535.71,374.45 1537.69,374.427 1539.67,374.346 1541.65,374.315 1543.63,374.314 1545.61,374.256 1547.58,374.203 1549.56,374.165 1551.54,374.022 1553.52,373.97 1555.5,373.955 1557.48,373.946 1559.45,373.903 1561.43,373.871 1563.41,373.793 1565.39,373.733 1567.37,373.716 1569.35,373.63 1571.33,373.58 1573.3,373.388 1575.28,373.358 1577.26,373.242 1579.24,373.231 1581.22,373.09 1583.2,373.065 1585.17,373.047 1587.15,372.925 1589.13,372.801 1591.11,372.501 1593.09,372.474 1595.07,372.374 1597.05,372.339 1599.02,372.13 1601,372.084 1602.98,371.933 1604.96,371.647 1606.94,371.612 1608.92,371.508 1610.89,371.5 1612.87,371.45 1614.85,371.366 1616.83,371.288 1618.81,371.175 1620.79,370.939 1622.77,370.912 1624.74,370.911 1626.72,370.793 1628.7,370.535 1630.68,370.284 1632.66,369.905 1634.64,369.719 1636.61,369.412 1638.59,369.336 1640.57,369.309 1642.55,369.134 1644.53,369.083 1646.51,369.036 1648.49,368.928 1650.46,368.777 1652.44,368.64 1654.42,368.385 1656.4,367.831 1658.38,367.47 1660.36,367.447 1662.33,367.071 1664.31,366.733 1666.29,366.615 1668.27,366.535 1670.25,366.454 1672.23,365.608 1674.2,365.306 1676.18,365.077 1678.16,364.991 1680.14,363.681 1682.12,362.507 1684.1,362.427 1686.08,361.463 1688.05,361.065 1690.03,360.409 1692.01,359.836 1693.99,358.871 1695.97,356.721 1697.95,356.592 1699.92,355.36 1701.9,354.414 1703.88,354.084 1705.86,353.7 1707.84,352.959 1709.82,352.871 1711.8,352.111 1713.77,351.91 1715.75,351.372 1717.73,350.256 1719.71,349.355 1721.69,348.142 1723.67,347.386 1725.64,345.951 1727.62,344.863 1729.6,343.494 1731.58,343.224 1733.56,340.371 1735.54,339.289 1737.52,338.381 1739.49,330.051 1741.47,328.493 1743.45,325.436 1745.43,325.18 1747.41,324.668 1749.39,324.466 1751.36,321.337 1753.34,319.586 1755.32,318.71 1757.3,316.834 1759.28,311.856 1761.26,305.6 1763.24,304.794 1765.21,303.26 1767.19,298.113 1769.17,297.007 1771.15,292.648 1773.13,286.713 1775.11,279.917 1777.08,273.244 1779.06,269.879 1781.04,267.651 1783.02,265.421 1785,261.067 1786.98,255.336 1788.96,253.911 1790.93,253.271 1792.91,232.769 1794.89,227.185 1796.87,225.49 1798.85,225.277 1800.83,222.56 1802.8,221.492 1804.78,213.963 1806.76,213.593 1808.74,212.768 1810.72,212.342 1812.7,211.48 1814.68,210.124 1816.65,210.08 1818.63,209.876 1820.61,209.692 1822.59,208.881 1824.57,208.45 1826.55,208.39 1828.52,208.289 1830.5,208.182 1832.48,207 1834.46,206.866 1836.44,206.76 1838.42,206.378 1840.4,206.256 1842.37,205.935 1844.35,205.779 1846.33,205.538 1848.31,205.18 1850.29,204.929 1852.27,204.682 1854.24,204.571 1856.22,204.272 1858.2,202.391 1860.18,202.012 1862.16,201.684 1864.14,201.492 1866.12,201.483 1868.09,201.337 1870.07,200.793 1872.05,200.514 1874.03,200.404 1876.01,199.934 1877.99,199.108 1879.96,198.131 1881.94,197.843 1883.92,197.706 1885.9,197.493 1887.88,197.264 1889.86,197.134 1891.84,196.861 1893.81,195.977 1895.79,195.731 1897.77,195.638 1899.75,195.434 1901.73,194.682 1903.71,194.178 1905.68,193.854 1907.66,193.731 1909.64,193.31 1911.62,193.169 1913.6,192.917 1915.58,192.798 1917.56,192.687 1919.53,192.614 1921.51,192.596 1923.49,191.599 1925.47,191.382 1927.45,191.017 1929.43,190.9 1931.4,190.691 1933.38,190.331 1935.36,190.315 1937.34,190.282 1939.32,190.096 1941.3,189.841 1943.27,189.309 1945.25,188.932 1947.23,188.931 1949.21,188.63 1951.19,188.314 1953.17,188.111 1955.15,187.135 1957.12,187.089 1959.1,186.78 1961.08,186.508 1963.06,186.071 1965.04,185.599 1967.02,185.485 1968.99,185.36 1970.97,185.251 1972.95,185.249 1974.93,185.174 1976.91,184.711 1978.89,183.845 1980.87,183.391 1982.84,182.864 1984.82,182.793 1986.8,182.19 1988.78,181.868 1990.76,181.828 1992.74,181.71 1994.71,181.51 1996.69,181.344 1998.67,180.813 2000.65,180.793 2002.63,180.756 2004.61,180.24 2006.59,180.189 2008.56,179.225 2010.54,178.607 2012.52,178.603 2014.5,178.504 2016.48,178.128 2018.46,178.033 2020.43,177.728 2022.41,177.647 2024.39,177.588 2026.37,177.314 2028.35,177.125 2030.33,176.398 2032.31,176.025 2034.28,175.865 2036.26,175.669 2038.24,175.606 2040.22,175.461 2042.2,175.145 2044.18,174.784 2046.15,174.761 2048.13,174.574 2050.11,174.416 2052.09,173.985 2054.07,173.531 2056.05,173.529 2058.03,173.246 2060,172.928 2061.98,172.689 2063.96,172.609 2065.94,172.585 2067.92,172.457 2069.9,172.394 2071.87,172.382 2073.85,171.915 2075.83,171.359 2077.81,171.003 2079.79,170.874 2081.77,170.144 2083.75,169.961 2085.72,169.581 2087.7,169.182 2089.68,169.099 2091.66,169.092 2093.64,168.968 2095.62,168.917 2097.59,168.889 2099.57,168.645 2101.55,168.522 2103.53,168.45 2105.51,168.426 2107.49,168.407 2109.47,167.87 2111.44,167.865 2113.42,167.751 2115.4,167.471 2117.38,167.173 2119.36,167.158 2121.34,167.038 2123.31,166.979 2125.29,166.914 2127.27,166.374 2129.25,166.272 2131.23,166.259 2133.21,166.194 2135.19,166.172 2137.16,166.168 2139.14,166.02 2141.12,165.859 2143.1,165.75 2145.08,165.734 2147.06,165.451 2149.03,165.426 2151.01,165.323 2152.99,165.264 2154.97,165.219 2156.95,165.199 2158.93,165.17 2160.91,165.151 2162.88,165.104 2164.86,165.103 2166.84,165.041 2168.82,164.958 2170.8,164.946 2172.78,164.888 2174.75,164.881 2176.73,164.834 2178.71,164.825 2180.69,164.819 2182.67,164.818 2184.65,164.808 2186.62,164.714 2188.6,164.57 2190.58,164.562 2192.56,164.52 2194.54,164.446 2196.52,164.417 2198.5,164.29 2200.47,164.196 2202.45,164.136 2204.43,164.052 2206.41,164.04 2208.39,164 2210.37,163.998 2212.34,163.932 2214.32,163.918 2216.3,163.891 2218.28,163.857 2220.26,163.786 2222.24,163.77 2224.22,163.711 2226.19,163.643 2228.17,163.596 2230.15,163.586 2232.13,163.57 2234.11,163.551 2236.09,163.445 2238.06,163.419 2240.04,163.261 2242.02,163.128 2244,163.099 2245.98,163.013 2247.96,162.929 2249.94,162.904 2251.91,162.825 2253.89,162.79 2255.87,162.76 2257.85,162.702 2259.83,162.634 2261.81,162.534 2263.78,162.507 2265.76,162.378 2267.74,162.202 2269.72,162.111 2271.7,162.041 2273.68,162.038 2275.66,161.912 2277.63,161.886 2279.61,161.881 2281.59,161.734 2283.57,161.617 2285.55,161.539 2287.53,161.488 2289.5,161.246 2291.48,161.144 2293.46,160.256 "/>
<path clip-path="url(#clip830)" d="M327.526 270.476 L756.638 270.476 L756.638 166.796 L327.526 166.796  Z" fill="#ffffff" fill-rule="evenodd" fill-opacity="1"/>
<polyline clip-path="url(#clip830)" style="stroke:#000000; stroke-linecap:round; stroke-linejoin:round; stroke-width:4; stroke-opacity:1; fill:none" points="327.526,270.476 756.638,270.476 756.638,166.796 327.526,166.796 327.526,270.476 "/>
<polyline clip-path="url(#clip830)" style="stroke:#009af9; stroke-linecap:round; stroke-linejoin:round; stroke-width:4; stroke-opacity:1; fill:none" points="350.804,218.636 490.475,218.636 "/>
<path clip-path="url(#clip830)" d="M535.999 202.49 L535.999 207.05 Q533.337 205.777 530.976 205.152 Q528.615 204.527 526.416 204.527 Q522.596 204.527 520.513 206.008 Q518.453 207.49 518.453 210.221 Q518.453 212.513 519.819 213.694 Q521.207 214.851 525.05 215.569 L527.874 216.147 Q533.105 217.143 535.582 219.666 Q538.082 222.166 538.082 226.379 Q538.082 231.402 534.703 233.994 Q531.346 236.587 524.842 236.587 Q522.388 236.587 519.61 236.031 Q516.856 235.476 513.893 234.388 L513.893 229.573 Q516.74 231.17 519.471 231.981 Q522.203 232.791 524.842 232.791 Q528.846 232.791 531.022 231.217 Q533.198 229.643 533.198 226.726 Q533.198 224.18 531.624 222.744 Q530.073 221.309 526.508 220.592 L523.661 220.036 Q518.43 218.995 516.092 216.772 Q513.754 214.55 513.754 210.592 Q513.754 206.008 516.971 203.37 Q520.212 200.731 525.883 200.731 Q528.314 200.731 530.837 201.171 Q533.36 201.61 535.999 202.49 Z" fill="#000000" fill-rule="nonzero" fill-opacity="1" /><path clip-path="url(#clip830)" d="M545.189 209.99 L549.448 209.99 L549.448 235.916 L545.189 235.916 L545.189 209.99 M545.189 199.897 L549.448 199.897 L549.448 205.291 L545.189 205.291 L545.189 199.897 Z" fill="#000000" fill-rule="nonzero" fill-opacity="1" /><path clip-path="url(#clip830)" d="M578.545 214.967 Q580.142 212.096 582.364 210.731 Q584.587 209.365 587.596 209.365 Q591.647 209.365 593.846 212.212 Q596.045 215.036 596.045 220.268 L596.045 235.916 L591.763 235.916 L591.763 220.407 Q591.763 216.68 590.443 214.874 Q589.124 213.069 586.415 213.069 Q583.105 213.069 581.184 215.268 Q579.263 217.467 579.263 221.263 L579.263 235.916 L574.98 235.916 L574.98 220.407 Q574.98 216.657 573.661 214.874 Q572.341 213.069 569.587 213.069 Q566.323 213.069 564.402 215.291 Q562.48 217.49 562.48 221.263 L562.48 235.916 L558.198 235.916 L558.198 209.99 L562.48 209.99 L562.48 214.018 Q563.939 211.633 565.976 210.499 Q568.013 209.365 570.814 209.365 Q573.638 209.365 575.605 210.8 Q577.596 212.235 578.545 214.967 Z" fill="#000000" fill-rule="nonzero" fill-opacity="1" /><path clip-path="url(#clip830)" d="M604.54 209.99 L608.8 209.99 L608.8 235.916 L604.54 235.916 L604.54 209.99 M604.54 199.897 L608.8 199.897 L608.8 205.291 L604.54 205.291 L604.54 199.897 Z" fill="#000000" fill-rule="nonzero" fill-opacity="1" /><path clip-path="url(#clip830)" d="M617.712 199.897 L621.971 199.897 L621.971 235.916 L617.712 235.916 L617.712 199.897 Z" fill="#000000" fill-rule="nonzero" fill-opacity="1" /><path clip-path="url(#clip830)" d="M642.665 222.883 Q637.503 222.883 635.512 224.064 Q633.522 225.244 633.522 228.092 Q633.522 230.36 635.003 231.703 Q636.508 233.022 639.077 233.022 Q642.619 233.022 644.748 230.522 Q646.901 227.999 646.901 223.832 L646.901 222.883 L642.665 222.883 M651.16 221.124 L651.16 235.916 L646.901 235.916 L646.901 231.981 Q645.443 234.342 643.267 235.476 Q641.091 236.587 637.943 236.587 Q633.961 236.587 631.6 234.365 Q629.262 232.119 629.262 228.369 Q629.262 223.994 632.179 221.772 Q635.119 219.55 640.929 219.55 L646.901 219.55 L646.901 219.133 Q646.901 216.194 644.957 214.596 Q643.035 212.976 639.54 212.976 Q637.318 212.976 635.211 213.508 Q633.105 214.041 631.161 215.106 L631.161 211.17 Q633.498 210.268 635.698 209.828 Q637.897 209.365 639.98 209.365 Q645.605 209.365 648.383 212.282 Q651.16 215.198 651.16 221.124 Z" fill="#000000" fill-rule="nonzero" fill-opacity="1" /><path clip-path="url(#clip830)" d="M674.957 213.971 Q674.239 213.555 673.383 213.37 Q672.549 213.161 671.531 213.161 Q667.92 213.161 665.975 215.522 Q664.054 217.86 664.054 222.258 L664.054 235.916 L659.771 235.916 L659.771 209.99 L664.054 209.99 L664.054 214.018 Q665.396 211.657 667.549 210.522 Q669.702 209.365 672.781 209.365 Q673.22 209.365 673.753 209.434 Q674.285 209.481 674.933 209.596 L674.957 213.971 Z" fill="#000000" fill-rule="nonzero" fill-opacity="1" /><path clip-path="url(#clip830)" d="M679.424 209.99 L683.683 209.99 L683.683 235.916 L679.424 235.916 L679.424 209.99 M679.424 199.897 L683.683 199.897 L683.683 205.291 L679.424 205.291 L679.424 199.897 Z" fill="#000000" fill-rule="nonzero" fill-opacity="1" /><path clip-path="url(#clip830)" d="M696.808 202.629 L696.808 209.99 L705.581 209.99 L705.581 213.3 L696.808 213.3 L696.808 227.374 Q696.808 230.545 697.665 231.448 Q698.544 232.351 701.206 232.351 L705.581 232.351 L705.581 235.916 L701.206 235.916 Q696.276 235.916 694.401 234.087 Q692.526 232.235 692.526 227.374 L692.526 213.3 L689.401 213.3 L689.401 209.99 L692.526 209.99 L692.526 202.629 L696.808 202.629 Z" fill="#000000" fill-rule="nonzero" fill-opacity="1" /><path clip-path="url(#clip830)" d="M721.97 238.323 Q720.165 242.953 718.452 244.365 Q716.739 245.777 713.868 245.777 L710.466 245.777 L710.466 242.212 L712.966 242.212 Q714.725 242.212 715.697 241.379 Q716.669 240.545 717.85 237.443 L718.614 235.499 L708.128 209.99 L712.642 209.99 L720.743 230.268 L728.845 209.99 L733.359 209.99 L721.97 238.323 Z" fill="#000000" fill-rule="nonzero" fill-opacity="1" /></svg>
