<?xml version="1.0" encoding="utf-8"?>
<svg xmlns="http://www.w3.org/2000/svg" xmlns:xlink="http://www.w3.org/1999/xlink" width="600" height="400" viewBox="0 0 2400 1600">
<defs>
  <clipPath id="clip040">
    <rect x="0" y="0" width="2400" height="1600"/>
  </clipPath>
</defs>
<path clip-path="url(#clip040)" d="M0 1600 L2400 1600 L2400 8.88178e-14 L0 8.88178e-14  Z" fill="#ffffff" fill-rule="evenodd" fill-opacity="1"/>
<defs>
  <clipPath id="clip041">
    <rect x="480" y="0" width="1681" height="1600"/>
  </clipPath>
</defs>
<path clip-path="url(#clip040)" d="M219.542 1423.18 L2352.76 1423.18 L2352.76 123.472 L219.542 123.472  Z" fill="#ffffff" fill-rule="evenodd" fill-opacity="1"/>
<defs>
  <clipPath id="clip042">
    <rect x="219" y="123" width="2134" height="1301"/>
  </clipPath>
</defs>
<polyline clip-path="url(#clip042)" style="stroke:#000000; stroke-linecap:round; stroke-linejoin:round; stroke-width:2; stroke-opacity:0.1; fill:none" points="703.593,1423.18 703.593,123.472 "/>
<polyline clip-path="url(#clip042)" style="stroke:#000000; stroke-linecap:round; stroke-linejoin:round; stroke-width:2; stroke-opacity:0.1; fill:none" points="1233.19,1423.18 1233.19,123.472 "/>
<polyline clip-path="url(#clip042)" style="stroke:#000000; stroke-linecap:round; stroke-linejoin:round; stroke-width:2; stroke-opacity:0.1; fill:none" points="1762.79,1423.18 1762.79,123.472 "/>
<polyline clip-path="url(#clip042)" style="stroke:#000000; stroke-linecap:round; stroke-linejoin:round; stroke-width:2; stroke-opacity:0.1; fill:none" points="2292.38,1423.18 2292.38,123.472 "/>
<polyline clip-path="url(#clip040)" style="stroke:#000000; stroke-linecap:round; stroke-linejoin:round; stroke-width:4; stroke-opacity:1; fill:none" points="219.542,1423.18 2352.76,1423.18 "/>
<polyline clip-path="url(#clip040)" style="stroke:#000000; stroke-linecap:round; stroke-linejoin:round; stroke-width:4; stroke-opacity:1; fill:none" points="703.593,1423.18 703.593,1404.28 "/>
<polyline clip-path="url(#clip040)" style="stroke:#000000; stroke-linecap:round; stroke-linejoin:round; stroke-width:4; stroke-opacity:1; fill:none" points="1233.19,1423.18 1233.19,1404.28 "/>
<polyline clip-path="url(#clip040)" style="stroke:#000000; stroke-linecap:round; stroke-linejoin:round; stroke-width:4; stroke-opacity:1; fill:none" points="1762.79,1423.18 1762.79,1404.28 "/>
<polyline clip-path="url(#clip040)" style="stroke:#000000; stroke-linecap:round; stroke-linejoin:round; stroke-width:4; stroke-opacity:1; fill:none" points="2292.38,1423.18 2292.38,1404.28 "/>
<path clip-path="url(#clip040)" d="M693.871 1451.02 L712.227 1451.02 L712.227 1454.96 L698.153 1454.96 L698.153 1463.43 Q699.172 1463.08 700.19 1462.92 Q701.209 1462.73 702.227 1462.73 Q708.014 1462.73 711.394 1465.9 Q714.774 1469.08 714.774 1474.49 Q714.774 1480.07 711.301 1483.17 Q707.829 1486.25 701.51 1486.25 Q699.334 1486.25 697.065 1485.88 Q694.82 1485.51 692.413 1484.77 L692.413 1480.07 Q694.496 1481.2 696.718 1481.76 Q698.94 1482.32 701.417 1482.32 Q705.422 1482.32 707.76 1480.21 Q710.098 1478.1 710.098 1474.49 Q710.098 1470.88 707.76 1468.77 Q705.422 1466.67 701.417 1466.67 Q699.542 1466.67 697.667 1467.08 Q695.815 1467.5 693.871 1468.38 L693.871 1451.02 Z" fill="#000000" fill-rule="nonzero" fill-opacity="1" /><path clip-path="url(#clip040)" d="M1207.88 1481.64 L1215.52 1481.64 L1215.52 1455.28 L1207.21 1456.95 L1207.21 1452.69 L1215.47 1451.02 L1220.15 1451.02 L1220.15 1481.64 L1227.78 1481.64 L1227.78 1485.58 L1207.88 1485.58 L1207.88 1481.64 Z" fill="#000000" fill-rule="nonzero" fill-opacity="1" /><path clip-path="url(#clip040)" d="M1247.23 1454.1 Q1243.62 1454.1 1241.79 1457.66 Q1239.98 1461.2 1239.98 1468.33 Q1239.98 1475.44 1241.79 1479.01 Q1243.62 1482.55 1247.23 1482.55 Q1250.86 1482.55 1252.67 1479.01 Q1254.5 1475.44 1254.5 1468.33 Q1254.5 1461.2 1252.67 1457.66 Q1250.86 1454.1 1247.23 1454.1 M1247.23 1450.39 Q1253.04 1450.39 1256.09 1455 Q1259.17 1459.58 1259.17 1468.33 Q1259.17 1477.06 1256.09 1481.67 Q1253.04 1486.25 1247.23 1486.25 Q1241.42 1486.25 1238.34 1481.67 Q1235.28 1477.06 1235.28 1468.33 Q1235.28 1459.58 1238.34 1455 Q1241.42 1450.39 1247.23 1450.39 Z" fill="#000000" fill-rule="nonzero" fill-opacity="1" /><path clip-path="url(#clip040)" d="M1737.97 1481.64 L1745.61 1481.64 L1745.61 1455.28 L1737.3 1456.95 L1737.3 1452.69 L1745.56 1451.02 L1750.24 1451.02 L1750.24 1481.64 L1757.88 1481.64 L1757.88 1485.58 L1737.97 1485.58 L1737.97 1481.64 Z" fill="#000000" fill-rule="nonzero" fill-opacity="1" /><path clip-path="url(#clip040)" d="M1767.37 1451.02 L1785.73 1451.02 L1785.73 1454.96 L1771.65 1454.96 L1771.65 1463.43 Q1772.67 1463.08 1773.69 1462.92 Q1774.71 1462.73 1775.73 1462.73 Q1781.51 1462.73 1784.89 1465.9 Q1788.27 1469.08 1788.27 1474.49 Q1788.27 1480.07 1784.8 1483.17 Q1781.33 1486.25 1775.01 1486.25 Q1772.83 1486.25 1770.56 1485.88 Q1768.32 1485.51 1765.91 1484.77 L1765.91 1480.07 Q1767.99 1481.2 1770.22 1481.76 Q1772.44 1482.32 1774.92 1482.32 Q1778.92 1482.32 1781.26 1480.21 Q1783.6 1478.1 1783.6 1474.49 Q1783.6 1470.88 1781.26 1468.77 Q1778.92 1466.67 1774.92 1466.67 Q1773.04 1466.67 1771.17 1467.08 Q1769.31 1467.5 1767.37 1468.38 L1767.37 1451.02 Z" fill="#000000" fill-rule="nonzero" fill-opacity="1" /><path clip-path="url(#clip040)" d="M2271.16 1481.64 L2287.47 1481.64 L2287.47 1485.58 L2265.53 1485.58 L2265.53 1481.64 Q2268.19 1478.89 2272.78 1474.26 Q2277.38 1469.61 2278.56 1468.27 Q2280.81 1465.74 2281.69 1464.01 Q2282.59 1462.25 2282.59 1460.56 Q2282.59 1457.8 2280.65 1456.07 Q2278.72 1454.33 2275.62 1454.33 Q2273.42 1454.33 2270.97 1455.09 Q2268.54 1455.86 2265.76 1457.41 L2265.76 1452.69 Q2268.59 1451.55 2271.04 1450.97 Q2273.49 1450.39 2275.53 1450.39 Q2280.9 1450.39 2284.09 1453.08 Q2287.29 1455.77 2287.29 1460.26 Q2287.29 1462.39 2286.48 1464.31 Q2285.69 1466.2 2283.59 1468.8 Q2283.01 1469.47 2279.91 1472.69 Q2276.8 1475.88 2271.16 1481.64 Z" fill="#000000" fill-rule="nonzero" fill-opacity="1" /><path clip-path="url(#clip040)" d="M2307.29 1454.1 Q2303.68 1454.1 2301.85 1457.66 Q2300.04 1461.2 2300.04 1468.33 Q2300.04 1475.44 2301.85 1479.01 Q2303.68 1482.55 2307.29 1482.55 Q2310.92 1482.55 2312.73 1479.01 Q2314.56 1475.44 2314.56 1468.33 Q2314.56 1461.2 2312.73 1457.66 Q2310.92 1454.1 2307.29 1454.1 M2307.29 1450.39 Q2313.1 1450.39 2316.15 1455 Q2319.23 1459.58 2319.23 1468.33 Q2319.23 1477.06 2316.15 1481.67 Q2313.1 1486.25 2307.29 1486.25 Q2301.48 1486.25 2298.4 1481.67 Q2295.34 1477.06 2295.34 1468.33 Q2295.34 1459.58 2298.4 1455 Q2301.48 1450.39 2307.29 1450.39 Z" fill="#000000" fill-rule="nonzero" fill-opacity="1" /><path clip-path="url(#clip040)" d="M1192.32 1520.52 L1222.36 1520.52 L1222.36 1525.93 L1198.75 1525.93 L1198.75 1540 L1221.38 1540 L1221.38 1545.41 L1198.75 1545.41 L1198.75 1562.63 L1222.94 1562.63 L1222.94 1568.04 L1192.32 1568.04 L1192.32 1520.52 Z" fill="#000000" fill-rule="nonzero" fill-opacity="1" /><path clip-path="url(#clip040)" d="M1238.92 1562.7 L1238.92 1581.6 L1233.03 1581.6 L1233.03 1532.4 L1238.92 1532.4 L1238.92 1537.81 Q1240.76 1534.62 1243.56 1533.1 Q1246.4 1531.54 1250.31 1531.54 Q1256.8 1531.54 1260.85 1536.69 Q1264.92 1541.85 1264.92 1550.25 Q1264.92 1558.65 1260.85 1563.81 Q1256.8 1568.97 1250.31 1568.97 Q1246.4 1568.97 1243.56 1567.44 Q1240.76 1565.88 1238.92 1562.7 M1258.84 1550.25 Q1258.84 1543.79 1256.17 1540.13 Q1253.52 1536.44 1248.88 1536.44 Q1244.23 1536.44 1241.56 1540.13 Q1238.92 1543.79 1238.92 1550.25 Q1238.92 1556.71 1241.56 1560.4 Q1244.23 1564.07 1248.88 1564.07 Q1253.52 1564.07 1256.17 1560.4 Q1258.84 1556.71 1258.84 1550.25 Z" fill="#000000" fill-rule="nonzero" fill-opacity="1" /><path clip-path="url(#clip040)" d="M1288.44 1536.5 Q1283.73 1536.5 1280.99 1540.19 Q1278.26 1543.85 1278.26 1550.25 Q1278.26 1556.65 1280.96 1560.34 Q1283.7 1564 1288.44 1564 Q1293.12 1564 1295.86 1560.31 Q1298.59 1556.62 1298.59 1550.25 Q1298.59 1543.92 1295.86 1540.23 Q1293.12 1536.5 1288.44 1536.5 M1288.44 1531.54 Q1296.08 1531.54 1300.44 1536.5 Q1304.8 1541.47 1304.8 1550.25 Q1304.8 1559 1300.44 1564 Q1296.08 1568.97 1288.44 1568.97 Q1280.77 1568.97 1276.41 1564 Q1272.08 1559 1272.08 1550.25 Q1272.08 1541.47 1276.41 1536.5 Q1280.77 1531.54 1288.44 1531.54 Z" fill="#000000" fill-rule="nonzero" fill-opacity="1" /><path clip-path="url(#clip040)" d="M1340.16 1533.76 L1340.16 1539.24 Q1337.68 1537.87 1335.16 1537.2 Q1332.68 1536.5 1330.14 1536.5 Q1324.44 1536.5 1321.29 1540.13 Q1318.14 1543.73 1318.14 1550.25 Q1318.14 1556.78 1321.29 1560.4 Q1324.44 1564 1330.14 1564 Q1332.68 1564 1335.16 1563.33 Q1337.68 1562.63 1340.16 1561.26 L1340.16 1566.68 Q1337.71 1567.82 1335.07 1568.39 Q1332.46 1568.97 1329.5 1568.97 Q1321.45 1568.97 1316.7 1563.91 Q1311.96 1558.85 1311.96 1550.25 Q1311.96 1541.53 1316.74 1536.53 Q1321.54 1531.54 1329.88 1531.54 Q1332.59 1531.54 1335.16 1532.11 Q1337.74 1532.65 1340.16 1533.76 Z" fill="#000000" fill-rule="nonzero" fill-opacity="1" /><path clip-path="url(#clip040)" d="M1379.98 1546.53 L1379.98 1568.04 L1374.12 1568.04 L1374.12 1546.72 Q1374.12 1541.66 1372.15 1539.14 Q1370.18 1536.63 1366.23 1536.63 Q1361.49 1536.63 1358.75 1539.65 Q1356.01 1542.68 1356.01 1547.9 L1356.01 1568.04 L1350.12 1568.04 L1350.12 1518.52 L1356.01 1518.52 L1356.01 1537.93 Q1358.11 1534.72 1360.95 1533.13 Q1363.81 1531.54 1367.53 1531.54 Q1373.68 1531.54 1376.83 1535.36 Q1379.98 1539.14 1379.98 1546.53 Z" fill="#000000" fill-rule="nonzero" fill-opacity="1" /><polyline clip-path="url(#clip042)" style="stroke:#000000; stroke-linecap:round; stroke-linejoin:round; stroke-width:2; stroke-opacity:0.1; fill:none" points="219.542,1343.7 2352.76,1343.7 "/>
<polyline clip-path="url(#clip042)" style="stroke:#000000; stroke-linecap:round; stroke-linejoin:round; stroke-width:2; stroke-opacity:0.1; fill:none" points="219.542,1131.23 2352.76,1131.23 "/>
<polyline clip-path="url(#clip042)" style="stroke:#000000; stroke-linecap:round; stroke-linejoin:round; stroke-width:2; stroke-opacity:0.1; fill:none" points="219.542,918.764 2352.76,918.764 "/>
<polyline clip-path="url(#clip042)" style="stroke:#000000; stroke-linecap:round; stroke-linejoin:round; stroke-width:2; stroke-opacity:0.1; fill:none" points="219.542,706.296 2352.76,706.296 "/>
<polyline clip-path="url(#clip042)" style="stroke:#000000; stroke-linecap:round; stroke-linejoin:round; stroke-width:2; stroke-opacity:0.1; fill:none" points="219.542,493.829 2352.76,493.829 "/>
<polyline clip-path="url(#clip042)" style="stroke:#000000; stroke-linecap:round; stroke-linejoin:round; stroke-width:2; stroke-opacity:0.1; fill:none" points="219.542,281.361 2352.76,281.361 "/>
<polyline clip-path="url(#clip040)" style="stroke:#000000; stroke-linecap:round; stroke-linejoin:round; stroke-width:4; stroke-opacity:1; fill:none" points="219.542,1423.18 219.542,123.472 "/>
<polyline clip-path="url(#clip040)" style="stroke:#000000; stroke-linecap:round; stroke-linejoin:round; stroke-width:4; stroke-opacity:1; fill:none" points="219.542,1343.7 238.44,1343.7 "/>
<polyline clip-path="url(#clip040)" style="stroke:#000000; stroke-linecap:round; stroke-linejoin:round; stroke-width:4; stroke-opacity:1; fill:none" points="219.542,1131.23 238.44,1131.23 "/>
<polyline clip-path="url(#clip040)" style="stroke:#000000; stroke-linecap:round; stroke-linejoin:round; stroke-width:4; stroke-opacity:1; fill:none" points="219.542,918.764 238.44,918.764 "/>
<polyline clip-path="url(#clip040)" style="stroke:#000000; stroke-linecap:round; stroke-linejoin:round; stroke-width:4; stroke-opacity:1; fill:none" points="219.542,706.296 238.44,706.296 "/>
<polyline clip-path="url(#clip040)" style="stroke:#000000; stroke-linecap:round; stroke-linejoin:round; stroke-width:4; stroke-opacity:1; fill:none" points="219.542,493.829 238.44,493.829 "/>
<polyline clip-path="url(#clip040)" style="stroke:#000000; stroke-linecap:round; stroke-linejoin:round; stroke-width:4; stroke-opacity:1; fill:none" points="219.542,281.361 238.44,281.361 "/>
<path clip-path="url(#clip040)" d="M127.362 1329.5 Q123.751 1329.5 121.922 1333.06 Q120.117 1336.6 120.117 1343.73 Q120.117 1350.84 121.922 1354.41 Q123.751 1357.95 127.362 1357.95 Q130.996 1357.95 132.802 1354.41 Q134.63 1350.84 134.63 1343.73 Q134.63 1336.6 132.802 1333.06 Q130.996 1329.5 127.362 1329.5 M127.362 1325.79 Q133.172 1325.79 136.228 1330.4 Q139.306 1334.98 139.306 1343.73 Q139.306 1352.46 136.228 1357.07 Q133.172 1361.65 127.362 1361.65 Q121.552 1361.65 118.473 1357.07 Q115.418 1352.46 115.418 1343.73 Q115.418 1334.98 118.473 1330.4 Q121.552 1325.79 127.362 1325.79 Z" fill="#000000" fill-rule="nonzero" fill-opacity="1" /><path clip-path="url(#clip040)" d="M147.524 1355.1 L152.408 1355.1 L152.408 1360.98 L147.524 1360.98 L147.524 1355.1 Z" fill="#000000" fill-rule="nonzero" fill-opacity="1" /><path clip-path="url(#clip040)" d="M162.64 1326.42 L180.996 1326.42 L180.996 1330.35 L166.922 1330.35 L166.922 1338.83 Q167.94 1338.48 168.959 1338.32 Q169.977 1338.13 170.996 1338.13 Q176.783 1338.13 180.163 1341.3 Q183.542 1344.47 183.542 1349.89 Q183.542 1355.47 180.07 1358.57 Q176.598 1361.65 170.278 1361.65 Q168.102 1361.65 165.834 1361.28 Q163.589 1360.91 161.181 1360.17 L161.181 1355.47 Q163.265 1356.6 165.487 1357.16 Q167.709 1357.72 170.186 1357.72 Q174.19 1357.72 176.528 1355.61 Q178.866 1353.5 178.866 1349.89 Q178.866 1346.28 176.528 1344.17 Q174.19 1342.07 170.186 1342.07 Q168.311 1342.07 166.436 1342.48 Q164.584 1342.9 162.64 1343.78 L162.64 1326.42 Z" fill="#000000" fill-rule="nonzero" fill-opacity="1" /><path clip-path="url(#clip040)" d="M126.205 1117.03 Q122.593 1117.03 120.765 1120.6 Q118.959 1124.14 118.959 1131.27 Q118.959 1138.37 120.765 1141.94 Q122.593 1145.48 126.205 1145.48 Q129.839 1145.48 131.644 1141.94 Q133.473 1138.37 133.473 1131.27 Q133.473 1124.14 131.644 1120.6 Q129.839 1117.03 126.205 1117.03 M126.205 1113.33 Q132.015 1113.33 135.07 1117.93 Q138.149 1122.52 138.149 1131.27 Q138.149 1139.99 135.07 1144.6 Q132.015 1149.18 126.205 1149.18 Q120.394 1149.18 117.316 1144.6 Q114.26 1139.99 114.26 1131.27 Q114.26 1122.52 117.316 1117.93 Q120.394 1113.33 126.205 1113.33 Z" fill="#000000" fill-rule="nonzero" fill-opacity="1" /><path clip-path="url(#clip040)" d="M146.366 1142.63 L151.251 1142.63 L151.251 1148.51 L146.366 1148.51 L146.366 1142.63 Z" fill="#000000" fill-rule="nonzero" fill-opacity="1" /><path clip-path="url(#clip040)" d="M172.014 1129.37 Q168.866 1129.37 167.015 1131.52 Q165.186 1133.67 165.186 1137.42 Q165.186 1141.15 167.015 1143.33 Q168.866 1145.48 172.014 1145.48 Q175.163 1145.48 176.991 1143.33 Q178.843 1141.15 178.843 1137.42 Q178.843 1133.67 176.991 1131.52 Q175.163 1129.37 172.014 1129.37 M181.297 1114.72 L181.297 1118.97 Q179.538 1118.14 177.732 1117.7 Q175.95 1117.26 174.19 1117.26 Q169.561 1117.26 167.107 1120.39 Q164.677 1123.51 164.329 1129.83 Q165.695 1127.82 167.755 1126.75 Q169.815 1125.66 172.292 1125.66 Q177.501 1125.66 180.51 1128.84 Q183.542 1131.98 183.542 1137.42 Q183.542 1142.75 180.394 1145.97 Q177.246 1149.18 172.014 1149.18 Q166.019 1149.18 162.848 1144.6 Q159.677 1139.99 159.677 1131.27 Q159.677 1123.07 163.565 1118.21 Q167.454 1113.33 174.005 1113.33 Q175.764 1113.33 177.547 1113.67 Q179.352 1114.02 181.297 1114.72 Z" fill="#000000" fill-rule="nonzero" fill-opacity="1" /><path clip-path="url(#clip040)" d="M127.269 904.563 Q123.658 904.563 121.83 908.127 Q120.024 911.669 120.024 918.799 Q120.024 925.905 121.83 929.47 Q123.658 933.011 127.269 933.011 Q130.904 933.011 132.709 929.47 Q134.538 925.905 134.538 918.799 Q134.538 911.669 132.709 908.127 Q130.904 904.563 127.269 904.563 M127.269 900.859 Q133.08 900.859 136.135 905.465 Q139.214 910.049 139.214 918.799 Q139.214 927.525 136.135 932.132 Q133.08 936.715 127.269 936.715 Q121.459 936.715 118.381 932.132 Q115.325 927.525 115.325 918.799 Q115.325 910.049 118.381 905.465 Q121.459 900.859 127.269 900.859 Z" fill="#000000" fill-rule="nonzero" fill-opacity="1" /><path clip-path="url(#clip040)" d="M147.431 930.164 L152.316 930.164 L152.316 936.044 L147.431 936.044 L147.431 930.164 Z" fill="#000000" fill-rule="nonzero" fill-opacity="1" /><path clip-path="url(#clip040)" d="M161.32 901.484 L183.542 901.484 L183.542 903.475 L170.996 936.044 L166.112 936.044 L177.917 905.419 L161.32 905.419 L161.32 901.484 Z" fill="#000000" fill-rule="nonzero" fill-opacity="1" /><path clip-path="url(#clip040)" d="M126.459 692.095 Q122.848 692.095 121.019 695.66 Q119.214 699.201 119.214 706.331 Q119.214 713.437 121.019 717.002 Q122.848 720.544 126.459 720.544 Q130.093 720.544 131.899 717.002 Q133.728 713.437 133.728 706.331 Q133.728 699.201 131.899 695.66 Q130.093 692.095 126.459 692.095 M126.459 688.391 Q132.269 688.391 135.325 692.998 Q138.404 697.581 138.404 706.331 Q138.404 715.058 135.325 719.664 Q132.269 724.248 126.459 724.248 Q120.649 724.248 117.57 719.664 Q114.515 715.058 114.515 706.331 Q114.515 697.581 117.57 692.998 Q120.649 688.391 126.459 688.391 Z" fill="#000000" fill-rule="nonzero" fill-opacity="1" /><path clip-path="url(#clip040)" d="M146.621 717.697 L151.505 717.697 L151.505 723.576 L146.621 723.576 L146.621 717.697 Z" fill="#000000" fill-rule="nonzero" fill-opacity="1" /><path clip-path="url(#clip040)" d="M171.69 707.164 Q168.357 707.164 166.436 708.947 Q164.538 710.729 164.538 713.854 Q164.538 716.979 166.436 718.761 Q168.357 720.544 171.69 720.544 Q175.024 720.544 176.945 718.761 Q178.866 716.956 178.866 713.854 Q178.866 710.729 176.945 708.947 Q175.047 707.164 171.69 707.164 M167.015 705.174 Q164.005 704.433 162.315 702.373 Q160.649 700.312 160.649 697.35 Q160.649 693.206 163.589 690.799 Q166.552 688.391 171.69 688.391 Q176.852 688.391 179.792 690.799 Q182.732 693.206 182.732 697.35 Q182.732 700.312 181.042 702.373 Q179.376 704.433 176.389 705.174 Q179.769 705.961 181.644 708.252 Q183.542 710.544 183.542 713.854 Q183.542 718.877 180.464 721.562 Q177.408 724.248 171.69 724.248 Q165.973 724.248 162.894 721.562 Q159.839 718.877 159.839 713.854 Q159.839 710.544 161.737 708.252 Q163.635 705.961 167.015 705.174 M165.302 697.789 Q165.302 700.474 166.968 701.979 Q168.658 703.484 171.69 703.484 Q174.7 703.484 176.389 701.979 Q178.102 700.474 178.102 697.789 Q178.102 695.104 176.389 693.6 Q174.7 692.095 171.69 692.095 Q168.658 692.095 166.968 693.6 Q165.302 695.104 165.302 697.789 Z" fill="#000000" fill-rule="nonzero" fill-opacity="1" /><path clip-path="url(#clip040)" d="M126.552 479.627 Q122.941 479.627 121.112 483.192 Q119.306 486.734 119.306 493.863 Q119.306 500.97 121.112 504.535 Q122.941 508.076 126.552 508.076 Q130.186 508.076 131.992 504.535 Q133.82 500.97 133.82 493.863 Q133.82 486.734 131.992 483.192 Q130.186 479.627 126.552 479.627 M126.552 475.924 Q132.362 475.924 135.417 480.53 Q138.496 485.113 138.496 493.863 Q138.496 502.59 135.417 507.197 Q132.362 511.78 126.552 511.78 Q120.742 511.78 117.663 507.197 Q114.607 502.59 114.607 493.863 Q114.607 485.113 117.663 480.53 Q120.742 475.924 126.552 475.924 Z" fill="#000000" fill-rule="nonzero" fill-opacity="1" /><path clip-path="url(#clip040)" d="M146.714 505.229 L151.598 505.229 L151.598 511.109 L146.714 511.109 L146.714 505.229 Z" fill="#000000" fill-rule="nonzero" fill-opacity="1" /><path clip-path="url(#clip040)" d="M161.922 510.391 L161.922 506.132 Q163.681 506.965 165.487 507.405 Q167.292 507.845 169.028 507.845 Q173.658 507.845 176.089 504.743 Q178.542 501.618 178.889 495.275 Q177.547 497.266 175.487 498.331 Q173.427 499.396 170.927 499.396 Q165.741 499.396 162.709 496.271 Q159.7 493.123 159.7 487.683 Q159.7 482.359 162.848 479.141 Q165.996 475.924 171.227 475.924 Q177.223 475.924 180.371 480.53 Q183.542 485.113 183.542 493.863 Q183.542 502.035 179.653 506.919 Q175.788 511.78 169.237 511.78 Q167.477 511.78 165.672 511.433 Q163.866 511.085 161.922 510.391 M171.227 495.738 Q174.376 495.738 176.204 493.586 Q178.056 491.433 178.056 487.683 Q178.056 483.956 176.204 481.803 Q174.376 479.627 171.227 479.627 Q168.079 479.627 166.227 481.803 Q164.399 483.956 164.399 487.683 Q164.399 491.433 166.227 493.586 Q168.079 495.738 171.227 495.738 Z" fill="#000000" fill-rule="nonzero" fill-opacity="1" /><path clip-path="url(#clip040)" d="M117.177 294.706 L124.816 294.706 L124.816 268.34 L116.506 270.007 L116.506 265.748 L124.769 264.081 L129.445 264.081 L129.445 294.706 L137.084 294.706 L137.084 298.641 L117.177 298.641 L117.177 294.706 Z" fill="#000000" fill-rule="nonzero" fill-opacity="1" /><path clip-path="url(#clip040)" d="M146.529 292.761 L151.413 292.761 L151.413 298.641 L146.529 298.641 L146.529 292.761 Z" fill="#000000" fill-rule="nonzero" fill-opacity="1" /><path clip-path="url(#clip040)" d="M171.598 267.16 Q167.987 267.16 166.158 270.724 Q164.352 274.266 164.352 281.396 Q164.352 288.502 166.158 292.067 Q167.987 295.609 171.598 295.609 Q175.232 295.609 177.038 292.067 Q178.866 288.502 178.866 281.396 Q178.866 274.266 177.038 270.724 Q175.232 267.16 171.598 267.16 M171.598 263.456 Q177.408 263.456 180.464 268.062 Q183.542 272.646 183.542 281.396 Q183.542 290.122 180.464 294.729 Q177.408 299.312 171.598 299.312 Q165.788 299.312 162.709 294.729 Q159.653 290.122 159.653 281.396 Q159.653 272.646 162.709 268.062 Q165.788 263.456 171.598 263.456 Z" fill="#000000" fill-rule="nonzero" fill-opacity="1" /><path clip-path="url(#clip040)" d="M16.4842 840.023 L16.4842 833.593 L58.5933 833.593 L58.5933 810.454 L64.0042 810.454 L64.0042 840.023 L16.4842 840.023 Z" fill="#000000" fill-rule="nonzero" fill-opacity="1" /><path clip-path="url(#clip040)" d="M32.4621 791.293 Q32.4621 796.004 36.1542 798.741 Q39.8145 801.478 46.212 801.478 Q52.6095 801.478 56.3017 798.773 Q59.9619 796.036 59.9619 791.293 Q59.9619 786.614 56.2698 783.877 Q52.5777 781.14 46.212 781.14 Q39.8781 781.14 36.186 783.877 Q32.4621 786.614 32.4621 791.293 M27.4968 791.293 Q27.4968 783.654 32.4621 779.294 Q37.4273 774.933 46.212 774.933 Q54.9649 774.933 59.9619 779.294 Q64.9272 783.654 64.9272 791.293 Q64.9272 798.964 59.9619 803.324 Q54.9649 807.653 46.212 807.653 Q37.4273 807.653 32.4621 803.324 Q27.4968 798.964 27.4968 791.293 Z" fill="#000000" fill-rule="nonzero" fill-opacity="1" /><path clip-path="url(#clip040)" d="M29.4065 742.5 L34.9447 742.5 Q33.6716 744.983 33.035 747.656 Q32.3984 750.33 32.3984 753.194 Q32.3984 757.555 33.7352 759.751 Q35.072 761.915 37.7456 761.915 Q39.7826 761.915 40.9603 760.356 Q42.1061 758.796 43.1565 754.086 L43.6021 752.08 Q44.9389 745.842 47.3897 743.232 Q49.8086 740.59 54.1691 740.59 Q59.1344 740.59 62.0308 744.537 Q64.9272 748.452 64.9272 755.327 Q64.9272 758.192 64.3543 761.311 Q63.8132 764.398 62.6992 767.836 L56.6518 767.836 Q58.3387 764.589 59.198 761.438 Q60.0256 758.287 60.0256 755.2 Q60.0256 751.062 58.6251 748.834 Q57.1929 746.606 54.6147 746.606 Q52.2276 746.606 50.9545 748.229 Q49.6813 749.821 48.5037 755.263 L48.0262 757.3 Q46.8804 762.743 44.5251 765.162 Q42.138 767.581 38.0002 767.581 Q32.9713 767.581 30.2341 764.016 Q27.4968 760.451 27.4968 753.895 Q27.4968 750.648 27.9743 747.784 Q28.4517 744.919 29.4065 742.5 Z" fill="#000000" fill-rule="nonzero" fill-opacity="1" /><path clip-path="url(#clip040)" d="M29.4065 708.539 L34.9447 708.539 Q33.6716 711.022 33.035 713.695 Q32.3984 716.369 32.3984 719.233 Q32.3984 723.594 33.7352 725.79 Q35.072 727.954 37.7456 727.954 Q39.7826 727.954 40.9603 726.395 Q42.1061 724.835 43.1565 720.125 L43.6021 718.119 Q44.9389 711.881 47.3897 709.271 Q49.8086 706.629 54.1691 706.629 Q59.1344 706.629 62.0308 710.576 Q64.9272 714.491 64.9272 721.366 Q64.9272 724.23 64.3543 727.35 Q63.8132 730.437 62.6992 733.875 L56.6518 733.875 Q58.3387 730.628 59.198 727.477 Q60.0256 724.326 60.0256 721.239 Q60.0256 717.101 58.6251 714.873 Q57.1929 712.645 54.6147 712.645 Q52.2276 712.645 50.9545 714.268 Q49.6813 715.86 48.5037 721.302 L48.0262 723.339 Q46.8804 728.782 44.5251 731.201 Q42.138 733.62 38.0002 733.62 Q32.9713 733.62 30.2341 730.055 Q27.4968 726.49 27.4968 719.934 Q27.4968 716.687 27.9743 713.823 Q28.4517 710.958 29.4065 708.539 Z" fill="#000000" fill-rule="nonzero" fill-opacity="1" /><path clip-path="url(#clip040)" d="M756.068 12.096 L768.261 12.096 L783.695 53.2532 L799.21 12.096 L811.403 12.096 L811.403 72.576 L803.423 72.576 L803.423 19.4686 L787.827 60.9499 L779.604 60.9499 L764.008 19.4686 L764.008 72.576 L756.068 72.576 L756.068 12.096 Z" fill="#000000" fill-rule="nonzero" fill-opacity="1" /><path clip-path="url(#clip040)" d="M866.131 48.0275 L866.131 51.6733 L831.86 51.6733 Q832.347 59.3701 836.478 63.421 Q840.651 67.4314 848.064 67.4314 Q852.358 67.4314 856.368 66.3781 Q860.419 65.3249 864.389 63.2184 L864.389 70.267 Q860.379 71.9684 856.166 72.8596 Q851.953 73.7508 847.618 73.7508 Q836.762 73.7508 830.402 67.4314 Q824.083 61.1119 824.083 50.3365 Q824.083 39.1965 830.078 32.6746 Q836.114 26.1121 846.322 26.1121 Q855.477 26.1121 860.784 32.0264 Q866.131 37.9003 866.131 48.0275 M858.677 45.84 Q858.596 39.7232 855.234 36.0774 Q851.912 32.4315 846.403 32.4315 Q840.165 32.4315 836.397 35.9558 Q832.671 39.4801 832.103 45.8805 L858.677 45.84 Z" fill="#000000" fill-rule="nonzero" fill-opacity="1" /><path clip-path="url(#clip040)" d="M898.984 49.7694 Q889.95 49.7694 886.467 51.8354 Q882.983 53.9013 882.983 58.8839 Q882.983 62.8538 885.575 65.2034 Q888.208 67.5124 892.705 67.5124 Q898.903 67.5124 902.63 63.1374 Q906.397 58.7219 906.397 51.4303 L906.397 49.7694 L898.984 49.7694 M913.851 46.6907 L913.851 72.576 L906.397 72.576 L906.397 65.6895 Q903.845 69.8214 900.037 71.8063 Q896.229 73.7508 890.72 73.7508 Q883.752 73.7508 879.621 69.8619 Q875.529 65.9325 875.529 59.3701 Q875.529 51.7138 880.633 47.825 Q885.778 43.9361 895.946 43.9361 L906.397 43.9361 L906.397 43.2069 Q906.397 38.0623 902.994 35.2672 Q899.632 32.4315 893.515 32.4315 Q889.626 32.4315 885.94 33.3632 Q882.254 34.295 878.851 36.1584 L878.851 29.2718 Q882.942 27.692 886.791 26.9223 Q890.639 26.1121 894.285 26.1121 Q904.129 26.1121 908.99 31.2163 Q913.851 36.3204 913.851 46.6907 Z" fill="#000000" fill-rule="nonzero" fill-opacity="1" /><path clip-path="url(#clip040)" d="M966.918 45.1919 L966.918 72.576 L959.464 72.576 L959.464 45.4349 Q959.464 38.994 956.952 35.7938 Q954.441 32.5936 949.418 32.5936 Q943.382 32.5936 939.898 36.4419 Q936.414 40.2903 936.414 46.9338 L936.414 72.576 L928.92 72.576 L928.92 27.2059 L936.414 27.2059 L936.414 34.2544 Q939.088 30.163 942.693 28.1376 Q946.339 26.1121 951.079 26.1121 Q958.897 26.1121 962.907 30.9732 Q966.918 35.7938 966.918 45.1919 Z" fill="#000000" fill-rule="nonzero" fill-opacity="1" /><path clip-path="url(#clip040)" d="M1015.53 14.324 L1015.53 27.2059 L1030.88 27.2059 L1030.88 32.9987 L1015.53 32.9987 L1015.53 57.6282 Q1015.53 63.1779 1017.03 64.7578 Q1018.57 66.3376 1023.23 66.3376 L1030.88 66.3376 L1030.88 72.576 L1023.23 72.576 Q1014.6 72.576 1011.32 69.3758 Q1008.03 66.1351 1008.03 57.6282 L1008.03 32.9987 L1002.57 32.9987 L1002.57 27.2059 L1008.03 27.2059 L1008.03 14.324 L1015.53 14.324 Z" fill="#000000" fill-rule="nonzero" fill-opacity="1" /><path clip-path="url(#clip040)" d="M1066.97 34.1734 Q1065.72 33.4443 1064.22 33.1202 Q1062.76 32.7556 1060.98 32.7556 Q1054.66 32.7556 1051.26 36.8875 Q1047.9 40.9789 1047.9 48.6757 L1047.9 72.576 L1040.4 72.576 L1040.4 27.2059 L1047.9 27.2059 L1047.9 34.2544 Q1050.24 30.1225 1054.01 28.1376 Q1057.78 26.1121 1063.17 26.1121 Q1063.94 26.1121 1064.87 26.2337 Q1065.8 26.3147 1066.93 26.5172 L1066.97 34.1734 Z" fill="#000000" fill-rule="nonzero" fill-opacity="1" /><path clip-path="url(#clip040)" d="M1095.41 49.7694 Q1086.38 49.7694 1082.89 51.8354 Q1079.41 53.9013 1079.41 58.8839 Q1079.41 62.8538 1082 65.2034 Q1084.64 67.5124 1089.13 67.5124 Q1095.33 67.5124 1099.06 63.1374 Q1102.83 58.7219 1102.83 51.4303 L1102.83 49.7694 L1095.41 49.7694 M1110.28 46.6907 L1110.28 72.576 L1102.83 72.576 L1102.83 65.6895 Q1100.27 69.8214 1096.47 71.8063 Q1092.66 73.7508 1087.15 73.7508 Q1080.18 73.7508 1076.05 69.8619 Q1071.96 65.9325 1071.96 59.3701 Q1071.96 51.7138 1077.06 47.825 Q1082.21 43.9361 1092.37 43.9361 L1102.83 43.9361 L1102.83 43.2069 Q1102.83 38.0623 1099.42 35.2672 Q1096.06 32.4315 1089.94 32.4315 Q1086.05 32.4315 1082.37 33.3632 Q1078.68 34.295 1075.28 36.1584 L1075.28 29.2718 Q1079.37 27.692 1083.22 26.9223 Q1087.07 26.1121 1090.71 26.1121 Q1100.56 26.1121 1105.42 31.2163 Q1110.28 36.3204 1110.28 46.6907 Z" fill="#000000" fill-rule="nonzero" fill-opacity="1" /><path clip-path="url(#clip040)" d="M1125.63 27.2059 L1133.09 27.2059 L1133.09 72.576 L1125.63 72.576 L1125.63 27.2059 M1125.63 9.54393 L1133.09 9.54393 L1133.09 18.9825 L1125.63 18.9825 L1125.63 9.54393 Z" fill="#000000" fill-rule="nonzero" fill-opacity="1" /><path clip-path="url(#clip040)" d="M1186.4 45.1919 L1186.4 72.576 L1178.94 72.576 L1178.94 45.4349 Q1178.94 38.994 1176.43 35.7938 Q1173.92 32.5936 1168.9 32.5936 Q1162.86 32.5936 1159.38 36.4419 Q1155.89 40.2903 1155.89 46.9338 L1155.89 72.576 L1148.4 72.576 L1148.4 27.2059 L1155.89 27.2059 L1155.89 34.2544 Q1158.57 30.163 1162.17 28.1376 Q1165.82 26.1121 1170.56 26.1121 Q1178.37 26.1121 1182.39 30.9732 Q1186.4 35.7938 1186.4 45.1919 Z" fill="#000000" fill-rule="nonzero" fill-opacity="1" /><path clip-path="url(#clip040)" d="M1227.63 9.54393 L1235.09 9.54393 L1235.09 72.576 L1227.63 72.576 L1227.63 9.54393 Z" fill="#000000" fill-rule="nonzero" fill-opacity="1" /><path clip-path="url(#clip040)" d="M1268.26 32.4315 Q1262.27 32.4315 1258.79 37.1306 Q1255.3 41.7891 1255.3 49.9314 Q1255.3 58.0738 1258.74 62.7728 Q1262.23 67.4314 1268.26 67.4314 Q1274.22 67.4314 1277.7 62.7323 Q1281.19 58.0333 1281.19 49.9314 Q1281.19 41.8701 1277.7 37.1711 Q1274.22 32.4315 1268.26 32.4315 M1268.26 26.1121 Q1277.99 26.1121 1283.54 32.4315 Q1289.09 38.7509 1289.09 49.9314 Q1289.09 61.0714 1283.54 67.4314 Q1277.99 73.7508 1268.26 73.7508 Q1258.5 73.7508 1252.95 67.4314 Q1247.44 61.0714 1247.44 49.9314 Q1247.44 38.7509 1252.95 32.4315 Q1258.5 26.1121 1268.26 26.1121 Z" fill="#000000" fill-rule="nonzero" fill-opacity="1" /><path clip-path="url(#clip040)" d="M1330.36 28.5427 L1330.36 35.5912 Q1327.2 33.9709 1323.8 33.1607 Q1320.4 32.3505 1316.75 32.3505 Q1311.2 32.3505 1308.41 34.0519 Q1305.65 35.7533 1305.65 39.156 Q1305.65 41.7486 1307.64 43.2475 Q1309.62 44.7058 1315.62 46.0426 L1318.17 46.6097 Q1326.11 48.3111 1329.43 51.4303 Q1332.8 54.509 1332.8 60.0587 Q1332.8 66.3781 1327.77 70.0644 Q1322.79 73.7508 1314.04 73.7508 Q1310.39 73.7508 1306.42 73.0216 Q1302.49 72.3329 1298.12 70.9151 L1298.12 63.2184 Q1302.25 65.3654 1306.26 66.4591 Q1310.27 67.5124 1314.2 67.5124 Q1319.47 67.5124 1322.3 65.73 Q1325.14 63.9071 1325.14 60.6258 Q1325.14 57.5877 1323.07 55.9673 Q1321.05 54.3469 1314.12 52.8481 L1311.53 52.2405 Q1304.6 50.7821 1301.52 47.7845 Q1298.44 44.7463 1298.44 39.4801 Q1298.44 33.0797 1302.98 29.5959 Q1307.52 26.1121 1315.86 26.1121 Q1319.99 26.1121 1323.64 26.7198 Q1327.29 27.3274 1330.36 28.5427 Z" fill="#000000" fill-rule="nonzero" fill-opacity="1" /><path clip-path="url(#clip040)" d="M1373.59 28.5427 L1373.59 35.5912 Q1370.43 33.9709 1367.03 33.1607 Q1363.62 32.3505 1359.98 32.3505 Q1354.43 32.3505 1351.63 34.0519 Q1348.88 35.7533 1348.88 39.156 Q1348.88 41.7486 1350.86 43.2475 Q1352.85 44.7058 1358.84 46.0426 L1361.39 46.6097 Q1369.33 48.3111 1372.66 51.4303 Q1376.02 54.509 1376.02 60.0587 Q1376.02 66.3781 1371 70.0644 Q1366.01 73.7508 1357.26 73.7508 Q1353.62 73.7508 1349.65 73.0216 Q1345.72 72.3329 1341.34 70.9151 L1341.34 63.2184 Q1345.47 65.3654 1349.48 66.4591 Q1353.5 67.5124 1357.42 67.5124 Q1362.69 67.5124 1365.53 65.73 Q1368.36 63.9071 1368.36 60.6258 Q1368.36 57.5877 1366.3 55.9673 Q1364.27 54.3469 1357.34 52.8481 L1354.75 52.2405 Q1347.82 50.7821 1344.75 47.7845 Q1341.67 44.7463 1341.67 39.4801 Q1341.67 33.0797 1346.2 29.5959 Q1350.74 26.1121 1359.09 26.1121 Q1363.22 26.1121 1366.86 26.7198 Q1370.51 27.3274 1373.59 28.5427 Z" fill="#000000" fill-rule="nonzero" fill-opacity="1" /><path clip-path="url(#clip040)" d="M1421.47 65.7705 L1421.47 89.8329 L1413.98 89.8329 L1413.98 27.2059 L1421.47 27.2059 L1421.47 34.0924 Q1423.82 30.0415 1427.38 28.0971 Q1430.99 26.1121 1435.97 26.1121 Q1444.24 26.1121 1449.38 32.6746 Q1454.57 39.2371 1454.57 49.9314 Q1454.57 60.6258 1449.38 67.1883 Q1444.24 73.7508 1435.97 73.7508 Q1430.99 73.7508 1427.38 71.8063 Q1423.82 69.8214 1421.47 65.7705 M1446.83 49.9314 Q1446.83 41.7081 1443.43 37.0496 Q1440.06 32.3505 1434.15 32.3505 Q1428.23 32.3505 1424.83 37.0496 Q1421.47 41.7081 1421.47 49.9314 Q1421.47 58.1548 1424.83 62.8538 Q1428.23 67.5124 1434.15 67.5124 Q1440.06 67.5124 1443.43 62.8538 Q1446.83 58.1548 1446.83 49.9314 Z" fill="#000000" fill-rule="nonzero" fill-opacity="1" /><path clip-path="url(#clip040)" d="M1505.73 48.0275 L1505.73 51.6733 L1471.46 51.6733 Q1471.94 59.3701 1476.08 63.421 Q1480.25 67.4314 1487.66 67.4314 Q1491.96 67.4314 1495.97 66.3781 Q1500.02 65.3249 1503.99 63.2184 L1503.99 70.267 Q1499.98 71.9684 1495.76 72.8596 Q1491.55 73.7508 1487.22 73.7508 Q1476.36 73.7508 1470 67.4314 Q1463.68 61.1119 1463.68 50.3365 Q1463.68 39.1965 1469.68 32.6746 Q1475.71 26.1121 1485.92 26.1121 Q1495.07 26.1121 1500.38 32.0264 Q1505.73 37.9003 1505.73 48.0275 M1498.27 45.84 Q1498.19 39.7232 1494.83 36.0774 Q1491.51 32.4315 1486 32.4315 Q1479.76 32.4315 1475.99 35.9558 Q1472.27 39.4801 1471.7 45.8805 L1498.27 45.84 Z" fill="#000000" fill-rule="nonzero" fill-opacity="1" /><path clip-path="url(#clip040)" d="M1544.25 34.1734 Q1543 33.4443 1541.5 33.1202 Q1540.04 32.7556 1538.26 32.7556 Q1531.94 32.7556 1528.53 36.8875 Q1525.17 40.9789 1525.17 48.6757 L1525.17 72.576 L1517.68 72.576 L1517.68 27.2059 L1525.17 27.2059 L1525.17 34.2544 Q1527.52 30.1225 1531.29 28.1376 Q1535.06 26.1121 1540.44 26.1121 Q1541.21 26.1121 1542.15 26.2337 Q1543.08 26.3147 1544.21 26.5172 L1544.25 34.1734 Z" fill="#000000" fill-rule="nonzero" fill-opacity="1" /><path clip-path="url(#clip040)" d="M1617.25 48.0275 L1617.25 51.6733 L1582.98 51.6733 Q1583.47 59.3701 1587.6 63.421 Q1591.77 67.4314 1599.18 67.4314 Q1603.48 67.4314 1607.49 66.3781 Q1611.54 65.3249 1615.51 63.2184 L1615.51 70.267 Q1611.5 71.9684 1607.28 72.8596 Q1603.07 73.7508 1598.74 73.7508 Q1587.88 73.7508 1581.52 67.4314 Q1575.2 61.1119 1575.2 50.3365 Q1575.2 39.1965 1581.2 32.6746 Q1587.23 26.1121 1597.44 26.1121 Q1606.6 26.1121 1611.9 32.0264 Q1617.25 37.9003 1617.25 48.0275 M1609.8 45.84 Q1609.72 39.7232 1606.35 36.0774 Q1603.03 32.4315 1597.52 32.4315 Q1591.28 32.4315 1587.52 35.9558 Q1583.79 39.4801 1583.22 45.8805 L1609.8 45.84 Z" fill="#000000" fill-rule="nonzero" fill-opacity="1" /><path clip-path="url(#clip040)" d="M1636.69 65.7705 L1636.69 89.8329 L1629.2 89.8329 L1629.2 27.2059 L1636.69 27.2059 L1636.69 34.0924 Q1639.04 30.0415 1642.61 28.0971 Q1646.21 26.1121 1651.2 26.1121 Q1659.46 26.1121 1664.6 32.6746 Q1669.79 39.2371 1669.79 49.9314 Q1669.79 60.6258 1664.6 67.1883 Q1659.46 73.7508 1651.2 73.7508 Q1646.21 73.7508 1642.61 71.8063 Q1639.04 69.8214 1636.69 65.7705 M1662.05 49.9314 Q1662.05 41.7081 1658.65 37.0496 Q1655.29 32.3505 1649.37 32.3505 Q1643.46 32.3505 1640.06 37.0496 Q1636.69 41.7081 1636.69 49.9314 Q1636.69 58.1548 1640.06 62.8538 Q1643.46 67.5124 1649.37 67.5124 Q1655.29 67.5124 1658.65 62.8538 Q1662.05 58.1548 1662.05 49.9314 Z" fill="#000000" fill-rule="nonzero" fill-opacity="1" /><path clip-path="url(#clip040)" d="M1699.73 32.4315 Q1693.73 32.4315 1690.25 37.1306 Q1686.76 41.7891 1686.76 49.9314 Q1686.76 58.0738 1690.21 62.7728 Q1693.69 67.4314 1699.73 67.4314 Q1705.68 67.4314 1709.16 62.7323 Q1712.65 58.0333 1712.65 49.9314 Q1712.65 41.8701 1709.16 37.1711 Q1705.68 32.4315 1699.73 32.4315 M1699.73 26.1121 Q1709.45 26.1121 1715 32.4315 Q1720.55 38.7509 1720.55 49.9314 Q1720.55 61.0714 1715 67.4314 Q1709.45 73.7508 1699.73 73.7508 Q1689.96 73.7508 1684.41 67.4314 Q1678.9 61.0714 1678.9 49.9314 Q1678.9 38.7509 1684.41 32.4315 Q1689.96 26.1121 1699.73 26.1121 Z" fill="#000000" fill-rule="nonzero" fill-opacity="1" /><path clip-path="url(#clip040)" d="M1765.55 28.9478 L1765.55 35.9153 Q1762.39 34.1734 1759.19 33.3227 Q1756.03 32.4315 1752.79 32.4315 Q1745.54 32.4315 1741.53 37.0496 Q1737.52 41.6271 1737.52 49.9314 Q1737.52 58.2358 1741.53 62.8538 Q1745.54 67.4314 1752.79 67.4314 Q1756.03 67.4314 1759.19 66.5807 Q1762.39 65.6895 1765.55 63.9476 L1765.55 70.8341 Q1762.43 72.2924 1759.07 73.0216 Q1755.75 73.7508 1751.98 73.7508 Q1741.73 73.7508 1735.7 67.3098 Q1729.66 60.8689 1729.66 49.9314 Q1729.66 38.832 1735.74 32.472 Q1741.86 26.1121 1752.47 26.1121 Q1755.91 26.1121 1759.19 26.8413 Q1762.47 27.5299 1765.55 28.9478 Z" fill="#000000" fill-rule="nonzero" fill-opacity="1" /><path clip-path="url(#clip040)" d="M1816.23 45.1919 L1816.23 72.576 L1808.78 72.576 L1808.78 45.4349 Q1808.78 38.994 1806.26 35.7938 Q1803.75 32.5936 1798.73 32.5936 Q1792.69 32.5936 1789.21 36.4419 Q1785.73 40.2903 1785.73 46.9338 L1785.73 72.576 L1778.23 72.576 L1778.23 9.54393 L1785.73 9.54393 L1785.73 34.2544 Q1788.4 30.163 1792.01 28.1376 Q1795.65 26.1121 1800.39 26.1121 Q1808.21 26.1121 1812.22 30.9732 Q1816.23 35.7938 1816.23 45.1919 Z" fill="#000000" fill-rule="nonzero" fill-opacity="1" /><polyline clip-path="url(#clip042)" style="stroke:#ff0000; stroke-linecap:round; stroke-linejoin:round; stroke-width:8; stroke-opacity:1; fill:none" points="279.916,160.256 385.835,504.434 491.755,902.649 597.674,1200.87 703.593,1302.81 809.512,1333.63 915.432,1353.36 1021.35,1365.43 1127.27,1371.64 1233.19,1374.82 1339.11,1377.33 1445.03,1379.26 1550.95,1380.51 1656.87,1382.02 1762.79,1383.08 1868.7,1384.39 1974.62,1384.55 2080.54,1385.74 2186.46,1385.44 2292.38,1386.4 "/>
<path clip-path="url(#clip040)" d="M1850.11 270.476 L2281.65 270.476 L2281.65 166.796 L1850.11 166.796  Z" fill="#ffffff" fill-rule="evenodd" fill-opacity="1"/>
<polyline clip-path="url(#clip040)" style="stroke:#000000; stroke-linecap:round; stroke-linejoin:round; stroke-width:4; stroke-opacity:1; fill:none" points="1850.11,270.476 2281.65,270.476 2281.65,166.796 1850.11,166.796 1850.11,270.476 "/>
<polyline clip-path="url(#clip040)" style="stroke:#ff0000; stroke-linecap:round; stroke-linejoin:round; stroke-width:8; stroke-opacity:1; fill:none" points="1873.81,218.636 2016.03,218.636 "/>
<path clip-path="url(#clip040)" d="M2039.73 201.356 L2068.97 201.356 L2068.97 205.291 L2056.7 205.291 L2056.7 235.916 L2052 235.916 L2052 205.291 L2039.73 205.291 L2039.73 201.356 Z" fill="#000000" fill-rule="nonzero" fill-opacity="1" /><path clip-path="url(#clip040)" d="M2081.35 213.971 Q2080.63 213.555 2079.78 213.37 Q2078.94 213.161 2077.92 213.161 Q2074.31 213.161 2072.37 215.522 Q2070.45 217.86 2070.45 222.258 L2070.45 235.916 L2066.17 235.916 L2066.17 209.99 L2070.45 209.99 L2070.45 214.018 Q2071.79 211.657 2073.94 210.522 Q2076.1 209.365 2079.17 209.365 Q2079.61 209.365 2080.15 209.434 Q2080.68 209.481 2081.33 209.596 L2081.35 213.971 Z" fill="#000000" fill-rule="nonzero" fill-opacity="1" /><path clip-path="url(#clip040)" d="M2097.6 222.883 Q2092.44 222.883 2090.45 224.064 Q2088.46 225.244 2088.46 228.092 Q2088.46 230.36 2089.94 231.703 Q2091.44 233.022 2094.01 233.022 Q2097.55 233.022 2099.68 230.522 Q2101.84 227.999 2101.84 223.832 L2101.84 222.883 L2097.6 222.883 M2106.1 221.124 L2106.1 235.916 L2101.84 235.916 L2101.84 231.981 Q2100.38 234.342 2098.2 235.476 Q2096.03 236.587 2092.88 236.587 Q2088.9 236.587 2086.54 234.365 Q2084.2 232.119 2084.2 228.369 Q2084.2 223.994 2087.11 221.772 Q2090.05 219.55 2095.86 219.55 L2101.84 219.55 L2101.84 219.133 Q2101.84 216.194 2099.89 214.596 Q2097.97 212.976 2094.48 212.976 Q2092.25 212.976 2090.15 213.508 Q2088.04 214.041 2086.1 215.106 L2086.1 211.17 Q2088.43 210.268 2090.63 209.828 Q2092.83 209.365 2094.91 209.365 Q2100.54 209.365 2103.32 212.282 Q2106.1 215.198 2106.1 221.124 Z" fill="#000000" fill-rule="nonzero" fill-opacity="1" /><path clip-path="url(#clip040)" d="M2114.87 209.99 L2119.13 209.99 L2119.13 235.916 L2114.87 235.916 L2114.87 209.99 M2114.87 199.897 L2119.13 199.897 L2119.13 205.291 L2114.87 205.291 L2114.87 199.897 Z" fill="#000000" fill-rule="nonzero" fill-opacity="1" /><path clip-path="url(#clip040)" d="M2149.59 220.268 L2149.59 235.916 L2145.33 235.916 L2145.33 220.407 Q2145.33 216.726 2143.9 214.897 Q2142.46 213.069 2139.59 213.069 Q2136.14 213.069 2134.15 215.268 Q2132.16 217.467 2132.16 221.263 L2132.16 235.916 L2127.88 235.916 L2127.88 209.99 L2132.16 209.99 L2132.16 214.018 Q2133.69 211.68 2135.75 210.522 Q2137.83 209.365 2140.54 209.365 Q2145.01 209.365 2147.3 212.143 Q2149.59 214.897 2149.59 220.268 Z" fill="#000000" fill-rule="nonzero" fill-opacity="1" /><path clip-path="url(#clip040)" d="M2173.16 199.897 L2177.41 199.897 L2177.41 235.916 L2173.16 235.916 L2173.16 199.897 Z" fill="#000000" fill-rule="nonzero" fill-opacity="1" /><path clip-path="url(#clip040)" d="M2196.37 212.976 Q2192.95 212.976 2190.96 215.661 Q2188.97 218.323 2188.97 222.976 Q2188.97 227.629 2190.93 230.314 Q2192.92 232.976 2196.37 232.976 Q2199.78 232.976 2201.77 230.291 Q2203.76 227.606 2203.76 222.976 Q2203.76 218.37 2201.77 215.684 Q2199.78 212.976 2196.37 212.976 M2196.37 209.365 Q2201.93 209.365 2205.1 212.976 Q2208.27 216.587 2208.27 222.976 Q2208.27 229.342 2205.1 232.976 Q2201.93 236.587 2196.37 236.587 Q2190.79 236.587 2187.62 232.976 Q2184.47 229.342 2184.47 222.976 Q2184.47 216.587 2187.62 212.976 Q2190.79 209.365 2196.37 209.365 Z" fill="#000000" fill-rule="nonzero" fill-opacity="1" /><path clip-path="url(#clip040)" d="M2231.86 210.754 L2231.86 214.782 Q2230.05 213.856 2228.11 213.393 Q2226.16 212.93 2224.08 212.93 Q2220.91 212.93 2219.31 213.902 Q2217.74 214.874 2217.74 216.819 Q2217.74 218.3 2218.87 219.157 Q2220.01 219.99 2223.43 220.754 L2224.89 221.078 Q2229.43 222.05 2231.33 223.832 Q2233.25 225.592 2233.25 228.763 Q2233.25 232.374 2230.38 234.481 Q2227.53 236.587 2222.53 236.587 Q2220.45 236.587 2218.18 236.17 Q2215.93 235.777 2213.43 234.967 L2213.43 230.569 Q2215.79 231.795 2218.09 232.42 Q2220.38 233.022 2222.62 233.022 Q2225.63 233.022 2227.25 232.004 Q2228.87 230.962 2228.87 229.087 Q2228.87 227.351 2227.69 226.425 Q2226.53 225.499 2222.58 224.643 L2221.09 224.295 Q2217.14 223.462 2215.38 221.749 Q2213.62 220.013 2213.62 217.004 Q2213.62 213.346 2216.21 211.356 Q2218.8 209.365 2223.57 209.365 Q2225.93 209.365 2228.02 209.712 Q2230.1 210.059 2231.86 210.754 Z" fill="#000000" fill-rule="nonzero" fill-opacity="1" /><path clip-path="url(#clip040)" d="M2256.56 210.754 L2256.56 214.782 Q2254.75 213.856 2252.81 213.393 Q2250.86 212.93 2248.78 212.93 Q2245.61 212.93 2244.01 213.902 Q2242.44 214.874 2242.44 216.819 Q2242.44 218.3 2243.57 219.157 Q2244.71 219.99 2248.13 220.754 L2249.59 221.078 Q2254.13 222.05 2256.03 223.832 Q2257.95 225.592 2257.95 228.763 Q2257.95 232.374 2255.08 234.481 Q2252.23 236.587 2247.23 236.587 Q2245.15 236.587 2242.88 236.17 Q2240.63 235.777 2238.13 234.967 L2238.13 230.569 Q2240.49 231.795 2242.78 232.42 Q2245.08 233.022 2247.32 233.022 Q2250.33 233.022 2251.95 232.004 Q2253.57 230.962 2253.57 229.087 Q2253.57 227.351 2252.39 226.425 Q2251.23 225.499 2247.28 224.643 L2245.79 224.295 Q2241.84 223.462 2240.08 221.749 Q2238.32 220.013 2238.32 217.004 Q2238.32 213.346 2240.91 211.356 Q2243.5 209.365 2248.27 209.365 Q2250.63 209.365 2252.71 209.712 Q2254.8 210.059 2256.56 210.754 Z" fill="#000000" fill-rule="nonzero" fill-opacity="1" /></svg>
