<?xml version="1.0" encoding="utf-8"?>
<svg xmlns="http://www.w3.org/2000/svg" xmlns:xlink="http://www.w3.org/1999/xlink" width="600" height="400" viewBox="0 0 2400 1600">
<defs>
  <clipPath id="clip810">
    <rect x="0" y="0" width="2400" height="1600"/>
  </clipPath>
</defs>
<path clip-path="url(#clip810)" d="M0 1600 L2400 1600 L2400 8.88178e-14 L0 8.88178e-14  Z" fill="#ffffff" fill-rule="evenodd" fill-opacity="1"/>
<defs>
  <clipPath id="clip811">
    <rect x="480" y="0" width="1681" height="1600"/>
  </clipPath>
</defs>
<path clip-path="url(#clip810)" d="M249.542 1423.18 L2352.76 1423.18 L2352.76 123.472 L249.542 123.472  Z" fill="#ffffff" fill-rule="evenodd" fill-opacity="1"/>
<defs>
  <clipPath id="clip812">
    <rect x="249" y="123" width="2104" height="1301"/>
  </clipPath>
</defs>
<polyline clip-path="url(#clip812)" style="stroke:#000000; stroke-linecap:round; stroke-linejoin:round; stroke-width:2; stroke-opacity:0.1; fill:none" points="309.067,1423.18 309.067,123.472 "/>
<polyline clip-path="url(#clip812)" style="stroke:#000000; stroke-linecap:round; stroke-linejoin:round; stroke-width:2; stroke-opacity:0.1; fill:none" points="970.455,1423.18 970.455,123.472 "/>
<polyline clip-path="url(#clip812)" style="stroke:#000000; stroke-linecap:round; stroke-linejoin:round; stroke-width:2; stroke-opacity:0.1; fill:none" points="1631.84,1423.18 1631.84,123.472 "/>
<polyline clip-path="url(#clip812)" style="stroke:#000000; stroke-linecap:round; stroke-linejoin:round; stroke-width:2; stroke-opacity:0.1; fill:none" points="2293.23,1423.18 2293.23,123.472 "/>
<polyline clip-path="url(#clip810)" style="stroke:#000000; stroke-linecap:round; stroke-linejoin:round; stroke-width:4; stroke-opacity:1; fill:none" points="249.542,1423.18 2352.76,1423.18 "/>
<polyline clip-path="url(#clip810)" style="stroke:#000000; stroke-linecap:round; stroke-linejoin:round; stroke-width:4; stroke-opacity:1; fill:none" points="309.067,1423.18 309.067,1404.28 "/>
<polyline clip-path="url(#clip810)" style="stroke:#000000; stroke-linecap:round; stroke-linejoin:round; stroke-width:4; stroke-opacity:1; fill:none" points="970.455,1423.18 970.455,1404.28 "/>
<polyline clip-path="url(#clip810)" style="stroke:#000000; stroke-linecap:round; stroke-linejoin:round; stroke-width:4; stroke-opacity:1; fill:none" points="1631.84,1423.18 1631.84,1404.28 "/>
<polyline clip-path="url(#clip810)" style="stroke:#000000; stroke-linecap:round; stroke-linejoin:round; stroke-width:4; stroke-opacity:1; fill:none" points="2293.23,1423.18 2293.23,1404.28 "/>
<path clip-path="url(#clip810)" d="M299.449 1481.64 L307.088 1481.64 L307.088 1455.28 L298.778 1456.95 L298.778 1452.69 L307.042 1451.02 L311.717 1451.02 L311.717 1481.64 L319.356 1481.64 L319.356 1485.58 L299.449 1485.58 L299.449 1481.64 Z" fill="#000000" fill-rule="nonzero" fill-opacity="1" /><path clip-path="url(#clip810)" d="M965.108 1481.64 L981.427 1481.64 L981.427 1485.58 L959.483 1485.58 L959.483 1481.64 Q962.145 1478.89 966.728 1474.26 Q971.335 1469.61 972.515 1468.27 Q974.76 1465.74 975.64 1464.01 Q976.543 1462.25 976.543 1460.56 Q976.543 1457.8 974.598 1456.07 Q972.677 1454.33 969.575 1454.33 Q967.376 1454.33 964.923 1455.09 Q962.492 1455.86 959.714 1457.41 L959.714 1452.69 Q962.538 1451.55 964.992 1450.97 Q967.446 1450.39 969.483 1450.39 Q974.853 1450.39 978.048 1453.08 Q981.242 1455.77 981.242 1460.26 Q981.242 1462.39 980.432 1464.31 Q979.645 1466.2 977.538 1468.8 Q976.96 1469.47 973.858 1472.69 Q970.756 1475.88 965.108 1481.64 Z" fill="#000000" fill-rule="nonzero" fill-opacity="1" /><path clip-path="url(#clip810)" d="M1636.09 1466.95 Q1639.45 1467.66 1641.32 1469.93 Q1643.22 1472.2 1643.22 1475.53 Q1643.22 1480.65 1639.7 1483.45 Q1636.18 1486.25 1629.7 1486.25 Q1627.53 1486.25 1625.21 1485.81 Q1622.92 1485.39 1620.47 1484.54 L1620.47 1480.02 Q1622.41 1481.16 1624.72 1481.74 Q1627.04 1482.32 1629.56 1482.32 Q1633.96 1482.32 1636.25 1480.58 Q1638.57 1478.84 1638.57 1475.53 Q1638.57 1472.48 1636.41 1470.77 Q1634.29 1469.03 1630.47 1469.03 L1626.44 1469.03 L1626.44 1465.19 L1630.65 1465.19 Q1634.1 1465.19 1635.93 1463.82 Q1637.76 1462.43 1637.76 1459.84 Q1637.76 1457.18 1635.86 1455.77 Q1633.98 1454.33 1630.47 1454.33 Q1628.54 1454.33 1626.35 1454.75 Q1624.15 1455.16 1621.51 1456.04 L1621.51 1451.88 Q1624.17 1451.14 1626.48 1450.77 Q1628.82 1450.39 1630.88 1450.39 Q1636.21 1450.39 1639.31 1452.83 Q1642.41 1455.23 1642.41 1459.35 Q1642.41 1462.22 1640.77 1464.21 Q1639.12 1466.18 1636.09 1466.95 Z" fill="#000000" fill-rule="nonzero" fill-opacity="1" /><path clip-path="url(#clip810)" d="M2296.24 1455.09 L2284.43 1473.54 L2296.24 1473.54 L2296.24 1455.09 M2295.01 1451.02 L2300.89 1451.02 L2300.89 1473.54 L2305.82 1473.54 L2305.82 1477.43 L2300.89 1477.43 L2300.89 1485.58 L2296.24 1485.58 L2296.24 1477.43 L2280.64 1477.43 L2280.64 1472.92 L2295.01 1451.02 Z" fill="#000000" fill-rule="nonzero" fill-opacity="1" /><path clip-path="url(#clip810)" d="M1165.8 1520.52 L1193.11 1520.52 L1193.11 1525.93 L1172.23 1525.93 L1172.23 1539.94 L1191.07 1539.94 L1191.07 1545.35 L1172.23 1545.35 L1172.23 1568.04 L1165.8 1568.04 L1165.8 1520.52 Z" fill="#000000" fill-rule="nonzero" fill-opacity="1" /><path clip-path="url(#clip810)" d="M1229.96 1548.76 L1229.96 1551.62 L1203.04 1551.62 Q1203.42 1557.67 1206.67 1560.85 Q1209.94 1564 1215.77 1564 Q1219.14 1564 1222.29 1563.17 Q1225.48 1562.35 1228.6 1560.69 L1228.6 1566.23 Q1225.44 1567.57 1222.13 1568.27 Q1218.82 1568.97 1215.42 1568.97 Q1206.89 1568.97 1201.89 1564 Q1196.93 1559.04 1196.93 1550.57 Q1196.93 1541.82 1201.64 1536.69 Q1206.38 1531.54 1214.4 1531.54 Q1221.59 1531.54 1225.76 1536.18 Q1229.96 1540.8 1229.96 1548.76 M1224.11 1547.04 Q1224.04 1542.23 1221.4 1539.37 Q1218.79 1536.5 1214.46 1536.5 Q1209.56 1536.5 1206.6 1539.27 Q1203.67 1542.04 1203.23 1547.07 L1224.11 1547.04 Z" fill="#000000" fill-rule="nonzero" fill-opacity="1" /><path clip-path="url(#clip810)" d="M1255.78 1550.12 Q1248.68 1550.12 1245.94 1551.75 Q1243.21 1553.37 1243.21 1557.29 Q1243.21 1560.4 1245.24 1562.25 Q1247.31 1564.07 1250.84 1564.07 Q1255.71 1564.07 1258.64 1560.63 Q1261.6 1557.16 1261.6 1551.43 L1261.6 1550.12 L1255.78 1550.12 M1267.46 1547.71 L1267.46 1568.04 L1261.6 1568.04 L1261.6 1562.63 Q1259.6 1565.88 1256.6 1567.44 Q1253.61 1568.97 1249.28 1568.97 Q1243.81 1568.97 1240.56 1565.91 Q1237.35 1562.82 1237.35 1557.67 Q1237.35 1551.65 1241.36 1548.6 Q1245.4 1545.54 1253.39 1545.54 L1261.6 1545.54 L1261.6 1544.97 Q1261.6 1540.93 1258.93 1538.73 Q1256.29 1536.5 1251.48 1536.5 Q1248.43 1536.5 1245.53 1537.23 Q1242.63 1537.97 1239.96 1539.43 L1239.96 1534.02 Q1243.17 1532.78 1246.2 1532.17 Q1249.22 1531.54 1252.09 1531.54 Q1259.82 1531.54 1263.64 1535.55 Q1267.46 1539.56 1267.46 1547.71 Z" fill="#000000" fill-rule="nonzero" fill-opacity="1" /><path clip-path="url(#clip810)" d="M1285.31 1522.27 L1285.31 1532.4 L1297.38 1532.4 L1297.38 1536.95 L1285.31 1536.95 L1285.31 1556.3 Q1285.31 1560.66 1286.49 1561.9 Q1287.7 1563.14 1291.36 1563.14 L1297.38 1563.14 L1297.38 1568.04 L1291.36 1568.04 Q1284.58 1568.04 1282 1565.53 Q1279.43 1562.98 1279.43 1556.3 L1279.43 1536.95 L1275.13 1536.95 L1275.13 1532.4 L1279.43 1532.4 L1279.43 1522.27 L1285.31 1522.27 Z" fill="#000000" fill-rule="nonzero" fill-opacity="1" /><path clip-path="url(#clip810)" d="M1304.48 1553.98 L1304.48 1532.4 L1310.33 1532.4 L1310.33 1553.75 Q1310.33 1558.81 1312.3 1561.36 Q1314.28 1563.87 1318.22 1563.87 Q1322.97 1563.87 1325.7 1560.85 Q1328.47 1557.83 1328.47 1552.61 L1328.47 1532.4 L1334.33 1532.4 L1334.33 1568.04 L1328.47 1568.04 L1328.47 1562.57 Q1326.34 1565.82 1323.51 1567.41 Q1320.71 1568.97 1316.98 1568.97 Q1310.84 1568.97 1307.66 1565.15 Q1304.48 1561.33 1304.48 1553.98 M1319.21 1531.54 L1319.21 1531.54 Z" fill="#000000" fill-rule="nonzero" fill-opacity="1" /><path clip-path="url(#clip810)" d="M1367.05 1537.87 Q1366.06 1537.3 1364.89 1537.04 Q1363.74 1536.76 1362.34 1536.76 Q1357.37 1536.76 1354.7 1540 Q1352.06 1543.22 1352.06 1549.27 L1352.06 1568.04 L1346.17 1568.04 L1346.17 1532.4 L1352.06 1532.4 L1352.06 1537.93 Q1353.9 1534.69 1356.86 1533.13 Q1359.82 1531.54 1364.06 1531.54 Q1364.66 1531.54 1365.39 1531.63 Q1366.13 1531.7 1367.02 1531.85 L1367.05 1537.87 Z" fill="#000000" fill-rule="nonzero" fill-opacity="1" /><path clip-path="url(#clip810)" d="M1402.25 1548.76 L1402.25 1551.62 L1375.33 1551.62 Q1375.71 1557.67 1378.95 1560.85 Q1382.23 1564 1388.06 1564 Q1391.43 1564 1394.58 1563.17 Q1397.76 1562.35 1400.88 1560.69 L1400.88 1566.23 Q1397.73 1567.57 1394.42 1568.27 Q1391.11 1568.97 1387.71 1568.97 Q1379.18 1568.97 1374.18 1564 Q1369.21 1559.04 1369.21 1550.57 Q1369.21 1541.82 1373.92 1536.69 Q1378.67 1531.54 1386.69 1531.54 Q1393.88 1531.54 1398.05 1536.18 Q1402.25 1540.8 1402.25 1548.76 M1396.4 1547.04 Q1396.33 1542.23 1393.69 1539.37 Q1391.08 1536.5 1386.75 1536.5 Q1381.85 1536.5 1378.89 1539.27 Q1375.96 1542.04 1375.52 1547.07 L1396.4 1547.04 Z" fill="#000000" fill-rule="nonzero" fill-opacity="1" /><path clip-path="url(#clip810)" d="M1434.59 1533.45 L1434.59 1538.98 Q1432.11 1537.71 1429.43 1537.07 Q1426.76 1536.44 1423.9 1536.44 Q1419.54 1536.44 1417.34 1537.77 Q1415.17 1539.11 1415.17 1541.79 Q1415.17 1543.82 1416.73 1545 Q1418.29 1546.15 1423 1547.2 L1425.01 1547.64 Q1431.25 1548.98 1433.86 1551.43 Q1436.5 1553.85 1436.5 1558.21 Q1436.5 1563.17 1432.55 1566.07 Q1428.64 1568.97 1421.76 1568.97 Q1418.9 1568.97 1415.78 1568.39 Q1412.69 1567.85 1409.25 1566.74 L1409.25 1560.69 Q1412.5 1562.38 1415.65 1563.24 Q1418.8 1564.07 1421.89 1564.07 Q1426.03 1564.07 1428.26 1562.66 Q1430.48 1561.23 1430.48 1558.65 Q1430.48 1556.27 1428.86 1554.99 Q1427.27 1553.72 1421.83 1552.54 L1419.79 1552.07 Q1414.35 1550.92 1411.93 1548.56 Q1409.51 1546.18 1409.51 1542.04 Q1409.51 1537.01 1413.07 1534.27 Q1416.64 1531.54 1423.2 1531.54 Q1426.44 1531.54 1429.31 1532.01 Q1432.17 1532.49 1434.59 1533.45 Z" fill="#000000" fill-rule="nonzero" fill-opacity="1" /><polyline clip-path="url(#clip812)" style="stroke:#000000; stroke-linecap:round; stroke-linejoin:round; stroke-width:2; stroke-opacity:0.1; fill:none" points="249.542,1411.29 2352.76,1411.29 "/>
<polyline clip-path="url(#clip812)" style="stroke:#000000; stroke-linecap:round; stroke-linejoin:round; stroke-width:2; stroke-opacity:0.1; fill:none" points="249.542,1184.77 2352.76,1184.77 "/>
<polyline clip-path="url(#clip812)" style="stroke:#000000; stroke-linecap:round; stroke-linejoin:round; stroke-width:2; stroke-opacity:0.1; fill:none" points="249.542,958.254 2352.76,958.254 "/>
<polyline clip-path="url(#clip812)" style="stroke:#000000; stroke-linecap:round; stroke-linejoin:round; stroke-width:2; stroke-opacity:0.1; fill:none" points="249.542,731.738 2352.76,731.738 "/>
<polyline clip-path="url(#clip812)" style="stroke:#000000; stroke-linecap:round; stroke-linejoin:round; stroke-width:2; stroke-opacity:0.1; fill:none" points="249.542,505.222 2352.76,505.222 "/>
<polyline clip-path="url(#clip812)" style="stroke:#000000; stroke-linecap:round; stroke-linejoin:round; stroke-width:2; stroke-opacity:0.1; fill:none" points="249.542,278.706 2352.76,278.706 "/>
<polyline clip-path="url(#clip810)" style="stroke:#000000; stroke-linecap:round; stroke-linejoin:round; stroke-width:4; stroke-opacity:1; fill:none" points="249.542,1423.18 249.542,123.472 "/>
<polyline clip-path="url(#clip810)" style="stroke:#000000; stroke-linecap:round; stroke-linejoin:round; stroke-width:4; stroke-opacity:1; fill:none" points="249.542,1411.29 268.44,1411.29 "/>
<polyline clip-path="url(#clip810)" style="stroke:#000000; stroke-linecap:round; stroke-linejoin:round; stroke-width:4; stroke-opacity:1; fill:none" points="249.542,1184.77 268.44,1184.77 "/>
<polyline clip-path="url(#clip810)" style="stroke:#000000; stroke-linecap:round; stroke-linejoin:round; stroke-width:4; stroke-opacity:1; fill:none" points="249.542,958.254 268.44,958.254 "/>
<polyline clip-path="url(#clip810)" style="stroke:#000000; stroke-linecap:round; stroke-linejoin:round; stroke-width:4; stroke-opacity:1; fill:none" points="249.542,731.738 268.44,731.738 "/>
<polyline clip-path="url(#clip810)" style="stroke:#000000; stroke-linecap:round; stroke-linejoin:round; stroke-width:4; stroke-opacity:1; fill:none" points="249.542,505.222 268.44,505.222 "/>
<polyline clip-path="url(#clip810)" style="stroke:#000000; stroke-linecap:round; stroke-linejoin:round; stroke-width:4; stroke-opacity:1; fill:none" points="249.542,278.706 268.44,278.706 "/>
<path clip-path="url(#clip810)" d="M126.205 1397.08 Q122.593 1397.08 120.765 1400.65 Q118.959 1404.19 118.959 1411.32 Q118.959 1418.43 120.765 1421.99 Q122.593 1425.53 126.205 1425.53 Q129.839 1425.53 131.644 1421.99 Q133.473 1418.43 133.473 1411.32 Q133.473 1404.19 131.644 1400.65 Q129.839 1397.08 126.205 1397.08 M126.205 1393.38 Q132.015 1393.38 135.07 1397.99 Q138.149 1402.57 138.149 1411.32 Q138.149 1420.05 135.07 1424.65 Q132.015 1429.24 126.205 1429.24 Q120.394 1429.24 117.316 1424.65 Q114.26 1420.05 114.26 1411.32 Q114.26 1402.57 117.316 1397.99 Q120.394 1393.38 126.205 1393.38 Z" fill="#000000" fill-rule="nonzero" fill-opacity="1" /><path clip-path="url(#clip810)" d="M146.366 1422.69 L151.251 1422.69 L151.251 1428.57 L146.366 1428.57 L146.366 1422.69 Z" fill="#000000" fill-rule="nonzero" fill-opacity="1" /><path clip-path="url(#clip810)" d="M171.436 1397.08 Q167.825 1397.08 165.996 1400.65 Q164.19 1404.19 164.19 1411.32 Q164.19 1418.43 165.996 1421.99 Q167.825 1425.53 171.436 1425.53 Q175.07 1425.53 176.876 1421.99 Q178.704 1418.43 178.704 1411.32 Q178.704 1404.19 176.876 1400.65 Q175.07 1397.08 171.436 1397.08 M171.436 1393.38 Q177.246 1393.38 180.301 1397.99 Q183.38 1402.57 183.38 1411.32 Q183.38 1420.05 180.301 1424.65 Q177.246 1429.24 171.436 1429.24 Q165.626 1429.24 162.547 1424.65 Q159.491 1420.05 159.491 1411.32 Q159.491 1402.57 162.547 1397.99 Q165.626 1393.38 171.436 1393.38 Z" fill="#000000" fill-rule="nonzero" fill-opacity="1" /><path clip-path="url(#clip810)" d="M201.598 1397.08 Q197.987 1397.08 196.158 1400.65 Q194.352 1404.19 194.352 1411.32 Q194.352 1418.43 196.158 1421.99 Q197.987 1425.53 201.598 1425.53 Q205.232 1425.53 207.037 1421.99 Q208.866 1418.43 208.866 1411.32 Q208.866 1404.19 207.037 1400.65 Q205.232 1397.08 201.598 1397.08 M201.598 1393.38 Q207.408 1393.38 210.463 1397.99 Q213.542 1402.57 213.542 1411.32 Q213.542 1420.05 210.463 1424.65 Q207.408 1429.24 201.598 1429.24 Q195.787 1429.24 192.709 1424.65 Q189.653 1420.05 189.653 1411.32 Q189.653 1402.57 192.709 1397.99 Q195.787 1393.38 201.598 1393.38 Z" fill="#000000" fill-rule="nonzero" fill-opacity="1" /><path clip-path="url(#clip810)" d="M127.2 1170.57 Q123.589 1170.57 121.76 1174.13 Q119.955 1177.67 119.955 1184.8 Q119.955 1191.91 121.76 1195.48 Q123.589 1199.02 127.2 1199.02 Q130.834 1199.02 132.64 1195.48 Q134.468 1191.91 134.468 1184.8 Q134.468 1177.67 132.64 1174.13 Q130.834 1170.57 127.2 1170.57 M127.2 1166.86 Q133.01 1166.86 136.066 1171.47 Q139.144 1176.05 139.144 1184.8 Q139.144 1193.53 136.066 1198.14 Q133.01 1202.72 127.2 1202.72 Q121.39 1202.72 118.311 1198.14 Q115.256 1193.53 115.256 1184.8 Q115.256 1176.05 118.311 1171.47 Q121.39 1166.86 127.2 1166.86 Z" fill="#000000" fill-rule="nonzero" fill-opacity="1" /><path clip-path="url(#clip810)" d="M147.362 1196.17 L152.246 1196.17 L152.246 1202.05 L147.362 1202.05 L147.362 1196.17 Z" fill="#000000" fill-rule="nonzero" fill-opacity="1" /><path clip-path="url(#clip810)" d="M166.459 1198.11 L182.778 1198.11 L182.778 1202.05 L160.834 1202.05 L160.834 1198.11 Q163.496 1195.36 168.079 1190.73 Q172.686 1186.08 173.866 1184.73 Q176.112 1182.21 176.991 1180.48 Q177.894 1178.72 177.894 1177.03 Q177.894 1174.27 175.95 1172.54 Q174.028 1170.8 170.927 1170.8 Q168.727 1170.8 166.274 1171.56 Q163.843 1172.33 161.065 1173.88 L161.065 1169.16 Q163.89 1168.02 166.343 1167.44 Q168.797 1166.86 170.834 1166.86 Q176.204 1166.86 179.399 1169.55 Q182.593 1172.24 182.593 1176.73 Q182.593 1178.86 181.783 1180.78 Q180.996 1182.67 178.889 1185.27 Q178.311 1185.94 175.209 1189.16 Q172.107 1192.35 166.459 1198.11 Z" fill="#000000" fill-rule="nonzero" fill-opacity="1" /><path clip-path="url(#clip810)" d="M192.639 1167.49 L210.996 1167.49 L210.996 1171.42 L196.922 1171.42 L196.922 1179.9 Q197.94 1179.55 198.959 1179.39 Q199.977 1179.2 200.996 1179.2 Q206.783 1179.2 210.162 1182.37 Q213.542 1185.55 213.542 1190.96 Q213.542 1196.54 210.07 1199.64 Q206.598 1202.72 200.278 1202.72 Q198.102 1202.72 195.834 1202.35 Q193.588 1201.98 191.181 1201.24 L191.181 1196.54 Q193.264 1197.67 195.487 1198.23 Q197.709 1198.79 200.186 1198.79 Q204.19 1198.79 206.528 1196.68 Q208.866 1194.57 208.866 1190.96 Q208.866 1187.35 206.528 1185.24 Q204.19 1183.14 200.186 1183.14 Q198.311 1183.14 196.436 1183.55 Q194.584 1183.97 192.639 1184.85 L192.639 1167.49 Z" fill="#000000" fill-rule="nonzero" fill-opacity="1" /><path clip-path="url(#clip810)" d="M126.205 944.052 Q122.593 944.052 120.765 947.617 Q118.959 951.159 118.959 958.288 Q118.959 965.395 120.765 968.96 Q122.593 972.501 126.205 972.501 Q129.839 972.501 131.644 968.96 Q133.473 965.395 133.473 958.288 Q133.473 951.159 131.644 947.617 Q129.839 944.052 126.205 944.052 M126.205 940.349 Q132.015 940.349 135.07 944.955 Q138.149 949.539 138.149 958.288 Q138.149 967.015 135.07 971.622 Q132.015 976.205 126.205 976.205 Q120.394 976.205 117.316 971.622 Q114.26 967.015 114.26 958.288 Q114.26 949.539 117.316 944.955 Q120.394 940.349 126.205 940.349 Z" fill="#000000" fill-rule="nonzero" fill-opacity="1" /><path clip-path="url(#clip810)" d="M146.366 969.654 L151.251 969.654 L151.251 975.534 L146.366 975.534 L146.366 969.654 Z" fill="#000000" fill-rule="nonzero" fill-opacity="1" /><path clip-path="url(#clip810)" d="M161.482 940.974 L179.839 940.974 L179.839 944.909 L165.765 944.909 L165.765 953.381 Q166.783 953.034 167.802 952.872 Q168.82 952.687 169.839 952.687 Q175.626 952.687 179.005 955.858 Q182.385 959.029 182.385 964.446 Q182.385 970.025 178.913 973.126 Q175.44 976.205 169.121 976.205 Q166.945 976.205 164.677 975.835 Q162.431 975.464 160.024 974.724 L160.024 970.025 Q162.107 971.159 164.329 971.714 Q166.552 972.27 169.028 972.27 Q173.033 972.27 175.371 970.163 Q177.709 968.057 177.709 964.446 Q177.709 960.835 175.371 958.728 Q173.033 956.622 169.028 956.622 Q167.153 956.622 165.278 957.038 Q163.427 957.455 161.482 958.335 L161.482 940.974 Z" fill="#000000" fill-rule="nonzero" fill-opacity="1" /><path clip-path="url(#clip810)" d="M201.598 944.052 Q197.987 944.052 196.158 947.617 Q194.352 951.159 194.352 958.288 Q194.352 965.395 196.158 968.96 Q197.987 972.501 201.598 972.501 Q205.232 972.501 207.037 968.96 Q208.866 965.395 208.866 958.288 Q208.866 951.159 207.037 947.617 Q205.232 944.052 201.598 944.052 M201.598 940.349 Q207.408 940.349 210.463 944.955 Q213.542 949.539 213.542 958.288 Q213.542 967.015 210.463 971.622 Q207.408 976.205 201.598 976.205 Q195.787 976.205 192.709 971.622 Q189.653 967.015 189.653 958.288 Q189.653 949.539 192.709 944.955 Q195.787 940.349 201.598 940.349 Z" fill="#000000" fill-rule="nonzero" fill-opacity="1" /><path clip-path="url(#clip810)" d="M127.2 717.537 Q123.589 717.537 121.76 721.101 Q119.955 724.643 119.955 731.773 Q119.955 738.879 121.76 742.444 Q123.589 745.985 127.2 745.985 Q130.834 745.985 132.64 742.444 Q134.468 738.879 134.468 731.773 Q134.468 724.643 132.64 721.101 Q130.834 717.537 127.2 717.537 M127.2 713.833 Q133.01 713.833 136.066 718.439 Q139.144 723.023 139.144 731.773 Q139.144 740.499 136.066 745.106 Q133.01 749.689 127.2 749.689 Q121.39 749.689 118.311 745.106 Q115.256 740.499 115.256 731.773 Q115.256 723.023 118.311 718.439 Q121.39 713.833 127.2 713.833 Z" fill="#000000" fill-rule="nonzero" fill-opacity="1" /><path clip-path="url(#clip810)" d="M147.362 743.138 L152.246 743.138 L152.246 749.018 L147.362 749.018 L147.362 743.138 Z" fill="#000000" fill-rule="nonzero" fill-opacity="1" /><path clip-path="url(#clip810)" d="M161.251 714.458 L183.473 714.458 L183.473 716.449 L170.927 749.018 L166.042 749.018 L177.848 718.393 L161.251 718.393 L161.251 714.458 Z" fill="#000000" fill-rule="nonzero" fill-opacity="1" /><path clip-path="url(#clip810)" d="M192.639 714.458 L210.996 714.458 L210.996 718.393 L196.922 718.393 L196.922 726.865 Q197.94 726.518 198.959 726.356 Q199.977 726.171 200.996 726.171 Q206.783 726.171 210.162 729.342 Q213.542 732.513 213.542 737.93 Q213.542 743.509 210.07 746.61 Q206.598 749.689 200.278 749.689 Q198.102 749.689 195.834 749.319 Q193.588 748.948 191.181 748.208 L191.181 743.509 Q193.264 744.643 195.487 745.198 Q197.709 745.754 200.186 745.754 Q204.19 745.754 206.528 743.647 Q208.866 741.541 208.866 737.93 Q208.866 734.319 206.528 732.212 Q204.19 730.106 200.186 730.106 Q198.311 730.106 196.436 730.523 Q194.584 730.939 192.639 731.819 L192.639 714.458 Z" fill="#000000" fill-rule="nonzero" fill-opacity="1" /><path clip-path="url(#clip810)" d="M117.015 518.567 L124.654 518.567 L124.654 492.201 L116.343 493.868 L116.343 489.609 L124.607 487.942 L129.283 487.942 L129.283 518.567 L136.922 518.567 L136.922 522.502 L117.015 522.502 L117.015 518.567 Z" fill="#000000" fill-rule="nonzero" fill-opacity="1" /><path clip-path="url(#clip810)" d="M146.366 516.622 L151.251 516.622 L151.251 522.502 L146.366 522.502 L146.366 516.622 Z" fill="#000000" fill-rule="nonzero" fill-opacity="1" /><path clip-path="url(#clip810)" d="M171.436 491.021 Q167.825 491.021 165.996 494.585 Q164.19 498.127 164.19 505.257 Q164.19 512.363 165.996 515.928 Q167.825 519.469 171.436 519.469 Q175.07 519.469 176.876 515.928 Q178.704 512.363 178.704 505.257 Q178.704 498.127 176.876 494.585 Q175.07 491.021 171.436 491.021 M171.436 487.317 Q177.246 487.317 180.301 491.923 Q183.38 496.507 183.38 505.257 Q183.38 513.983 180.301 518.59 Q177.246 523.173 171.436 523.173 Q165.626 523.173 162.547 518.59 Q159.491 513.983 159.491 505.257 Q159.491 496.507 162.547 491.923 Q165.626 487.317 171.436 487.317 Z" fill="#000000" fill-rule="nonzero" fill-opacity="1" /><path clip-path="url(#clip810)" d="M201.598 491.021 Q197.987 491.021 196.158 494.585 Q194.352 498.127 194.352 505.257 Q194.352 512.363 196.158 515.928 Q197.987 519.469 201.598 519.469 Q205.232 519.469 207.037 515.928 Q208.866 512.363 208.866 505.257 Q208.866 498.127 207.037 494.585 Q205.232 491.021 201.598 491.021 M201.598 487.317 Q207.408 487.317 210.463 491.923 Q213.542 496.507 213.542 505.257 Q213.542 513.983 210.463 518.59 Q207.408 523.173 201.598 523.173 Q195.787 523.173 192.709 518.59 Q189.653 513.983 189.653 505.257 Q189.653 496.507 192.709 491.923 Q195.787 487.317 201.598 487.317 Z" fill="#000000" fill-rule="nonzero" fill-opacity="1" /><path clip-path="url(#clip810)" d="M118.01 292.051 L125.649 292.051 L125.649 265.685 L117.339 267.352 L117.339 263.093 L125.603 261.426 L130.279 261.426 L130.279 292.051 L137.917 292.051 L137.917 295.986 L118.01 295.986 L118.01 292.051 Z" fill="#000000" fill-rule="nonzero" fill-opacity="1" /><path clip-path="url(#clip810)" d="M147.362 290.106 L152.246 290.106 L152.246 295.986 L147.362 295.986 L147.362 290.106 Z" fill="#000000" fill-rule="nonzero" fill-opacity="1" /><path clip-path="url(#clip810)" d="M166.459 292.051 L182.778 292.051 L182.778 295.986 L160.834 295.986 L160.834 292.051 Q163.496 289.296 168.079 284.667 Q172.686 280.014 173.866 278.671 Q176.112 276.148 176.991 274.412 Q177.894 272.653 177.894 270.963 Q177.894 268.208 175.95 266.472 Q174.028 264.736 170.927 264.736 Q168.727 264.736 166.274 265.5 Q163.843 266.264 161.065 267.815 L161.065 263.093 Q163.89 261.958 166.343 261.38 Q168.797 260.801 170.834 260.801 Q176.204 260.801 179.399 263.486 Q182.593 266.171 182.593 270.662 Q182.593 272.792 181.783 274.713 Q180.996 276.611 178.889 279.204 Q178.311 279.875 175.209 283.092 Q172.107 286.287 166.459 292.051 Z" fill="#000000" fill-rule="nonzero" fill-opacity="1" /><path clip-path="url(#clip810)" d="M192.639 261.426 L210.996 261.426 L210.996 265.361 L196.922 265.361 L196.922 273.833 Q197.94 273.486 198.959 273.324 Q199.977 273.139 200.996 273.139 Q206.783 273.139 210.162 276.31 Q213.542 279.481 213.542 284.898 Q213.542 290.477 210.07 293.579 Q206.598 296.657 200.278 296.657 Q198.102 296.657 195.834 296.287 Q193.588 295.916 191.181 295.176 L191.181 290.477 Q193.264 291.611 195.487 292.167 Q197.709 292.722 200.186 292.722 Q204.19 292.722 206.528 290.616 Q208.866 288.509 208.866 284.898 Q208.866 281.287 206.528 279.18 Q204.19 277.074 200.186 277.074 Q198.311 277.074 196.436 277.491 Q194.584 277.907 192.639 278.787 L192.639 261.426 Z" fill="#000000" fill-rule="nonzero" fill-opacity="1" /><path clip-path="url(#clip810)" d="M16.4842 837.445 L16.4842 827.864 L48.8219 815.738 L16.4842 803.547 L16.4842 793.967 L64.0042 793.967 L64.0042 800.237 L22.277 800.237 L54.8694 812.491 L54.8694 818.952 L22.277 831.206 L64.0042 831.206 L64.0042 837.445 L16.4842 837.445 Z" fill="#000000" fill-rule="nonzero" fill-opacity="1" /><path clip-path="url(#clip810)" d="M18.0438 752.717 L24.314 752.717 Q22.5634 756.377 21.704 759.624 Q20.8447 762.87 20.8447 765.894 Q20.8447 771.146 22.8817 774.01 Q24.9187 776.843 28.6745 776.843 Q31.8255 776.843 33.4488 774.965 Q35.0402 773.055 36.0269 767.772 L36.8226 763.889 Q38.1912 756.696 41.6605 753.29 Q45.098 749.852 50.8908 749.852 Q57.7976 749.852 61.3624 754.499 Q64.9272 759.115 64.9272 768.058 Q64.9272 771.432 64.1633 775.252 Q63.3994 779.039 61.9035 783.113 L55.2831 783.113 Q57.4793 779.198 58.5933 775.443 Q59.7073 771.687 59.7073 768.058 Q59.7073 762.552 57.543 759.56 Q55.3786 756.568 51.3682 756.568 Q47.8671 756.568 45.8937 758.733 Q43.9204 760.865 42.9337 765.767 L42.1698 769.682 Q40.7375 776.875 37.682 780.09 Q34.6264 783.304 29.1837 783.304 Q22.8817 783.304 19.2532 778.88 Q15.6248 774.424 15.6248 766.626 Q15.6248 763.284 16.2295 759.815 Q16.8343 756.345 18.0438 752.717 Z" fill="#000000" fill-rule="nonzero" fill-opacity="1" /><path clip-path="url(#clip810)" d="M16.4842 739.826 L16.4842 709.78 L21.895 709.78 L21.895 733.397 L35.9632 733.397 L35.9632 710.767 L41.3741 710.767 L41.3741 733.397 L58.5933 733.397 L58.5933 709.207 L64.0042 709.207 L64.0042 739.826 L16.4842 739.826 Z" fill="#000000" fill-rule="nonzero" fill-opacity="1" /><path clip-path="url(#clip810)" d="M892.352 12.096 L904.545 12.096 L919.979 53.2532 L935.494 12.096 L947.687 12.096 L947.687 72.576 L939.707 72.576 L939.707 19.4686 L924.111 60.9499 L915.888 60.9499 L900.292 19.4686 L900.292 72.576 L892.352 72.576 L892.352 12.096 Z" fill="#000000" fill-rule="nonzero" fill-opacity="1" /><path clip-path="url(#clip810)" d="M1002.42 48.0275 L1002.42 51.6733 L968.144 51.6733 Q968.63 59.3701 972.762 63.421 Q976.935 67.4314 984.348 67.4314 Q988.642 67.4314 992.652 66.3781 Q996.703 65.3249 1000.67 63.2184 L1000.67 70.267 Q996.663 71.9684 992.45 72.8596 Q988.237 73.7508 983.902 73.7508 Q973.046 73.7508 966.686 67.4314 Q960.367 61.1119 960.367 50.3365 Q960.367 39.1965 966.362 32.6746 Q972.398 26.1121 982.606 26.1121 Q991.761 26.1121 997.068 32.0264 Q1002.42 37.9003 1002.42 48.0275 M994.961 45.84 Q994.88 39.7232 991.518 36.0774 Q988.196 32.4315 982.687 32.4315 Q976.449 32.4315 972.681 35.9558 Q968.955 39.4801 968.387 45.8805 L994.961 45.84 Z" fill="#000000" fill-rule="nonzero" fill-opacity="1" /><path clip-path="url(#clip810)" d="M1035.27 49.7694 Q1026.23 49.7694 1022.75 51.8354 Q1019.27 53.9013 1019.27 58.8839 Q1019.27 62.8538 1021.86 65.2034 Q1024.49 67.5124 1028.99 67.5124 Q1035.19 67.5124 1038.91 63.1374 Q1042.68 58.7219 1042.68 51.4303 L1042.68 49.7694 L1035.27 49.7694 M1050.13 46.6907 L1050.13 72.576 L1042.68 72.576 L1042.68 65.6895 Q1040.13 69.8214 1036.32 71.8063 Q1032.51 73.7508 1027 73.7508 Q1020.04 73.7508 1015.9 69.8619 Q1011.81 65.9325 1011.81 59.3701 Q1011.81 51.7138 1016.92 47.825 Q1022.06 43.9361 1032.23 43.9361 L1042.68 43.9361 L1042.68 43.2069 Q1042.68 38.0623 1039.28 35.2672 Q1035.92 32.4315 1029.8 32.4315 Q1025.91 32.4315 1022.22 33.3632 Q1018.54 34.295 1015.13 36.1584 L1015.13 29.2718 Q1019.23 27.692 1023.07 26.9223 Q1026.92 26.1121 1030.57 26.1121 Q1040.41 26.1121 1045.27 31.2163 Q1050.13 36.3204 1050.13 46.6907 Z" fill="#000000" fill-rule="nonzero" fill-opacity="1" /><path clip-path="url(#clip810)" d="M1103.2 45.1919 L1103.2 72.576 L1095.75 72.576 L1095.75 45.4349 Q1095.75 38.994 1093.24 35.7938 Q1090.72 32.5936 1085.7 32.5936 Q1079.67 32.5936 1076.18 36.4419 Q1072.7 40.2903 1072.7 46.9338 L1072.7 72.576 L1065.2 72.576 L1065.2 27.2059 L1072.7 27.2059 L1072.7 34.2544 Q1075.37 30.163 1078.98 28.1376 Q1082.62 26.1121 1087.36 26.1121 Q1095.18 26.1121 1099.19 30.9732 Q1103.2 35.7938 1103.2 45.1919 Z" fill="#000000" fill-rule="nonzero" fill-opacity="1" /><path clip-path="url(#clip810)" d="M1181.02 14.0809 L1181.02 22.0612 Q1176.36 19.8332 1172.23 18.7395 Q1168.1 17.6457 1164.25 17.6457 Q1157.56 17.6457 1153.92 20.2383 Q1150.31 22.8309 1150.31 27.611 Q1150.31 31.6214 1152.7 33.6873 Q1155.13 35.7128 1161.86 36.9686 L1166.8 37.9813 Q1175.96 39.7232 1180.29 44.1387 Q1184.67 48.5136 1184.67 55.8863 Q1184.67 64.6767 1178.75 69.2137 Q1172.88 73.7508 1161.49 73.7508 Q1157.2 73.7508 1152.34 72.7785 Q1147.52 71.8063 1142.33 69.9024 L1142.33 61.4765 Q1147.32 64.2716 1152.1 65.6895 Q1156.88 67.1073 1161.49 67.1073 Q1168.5 67.1073 1172.31 64.3527 Q1176.12 61.598 1176.12 56.4939 Q1176.12 52.0379 1173.36 49.5264 Q1170.65 47.0148 1164.41 45.759 L1159.43 44.7868 Q1150.27 42.9639 1146.18 39.075 Q1142.09 35.1862 1142.09 28.2591 Q1142.09 20.2383 1147.72 15.6203 Q1153.39 11.0023 1163.32 11.0023 Q1167.57 11.0023 1171.99 11.7719 Q1176.4 12.5416 1181.02 14.0809 Z" fill="#000000" fill-rule="nonzero" fill-opacity="1" /><path clip-path="url(#clip810)" d="M1201.56 49.9314 Q1201.56 58.1548 1204.92 62.8538 Q1208.32 67.5124 1214.24 67.5124 Q1220.15 67.5124 1223.55 62.8538 Q1226.96 58.1548 1226.96 49.9314 Q1226.96 41.7081 1223.55 37.0496 Q1220.15 32.3505 1214.24 32.3505 Q1208.32 32.3505 1204.92 37.0496 Q1201.56 41.7081 1201.56 49.9314 M1226.96 65.7705 Q1224.61 69.8214 1221 71.8063 Q1217.44 73.7508 1212.41 73.7508 Q1204.19 73.7508 1199.01 67.1883 Q1193.86 60.6258 1193.86 49.9314 Q1193.86 39.2371 1199.01 32.6746 Q1204.19 26.1121 1212.41 26.1121 Q1217.44 26.1121 1221 28.0971 Q1224.61 30.0415 1226.96 34.0924 L1226.96 27.2059 L1234.41 27.2059 L1234.41 89.8329 L1226.96 89.8329 L1226.96 65.7705 Z" fill="#000000" fill-rule="nonzero" fill-opacity="1" /><path clip-path="url(#clip810)" d="M1248.99 54.671 L1248.99 27.2059 L1256.45 27.2059 L1256.45 54.3874 Q1256.45 60.8284 1258.96 64.0691 Q1261.47 67.2693 1266.49 67.2693 Q1272.53 67.2693 1276.01 63.421 Q1279.54 59.5726 1279.54 52.9291 L1279.54 27.2059 L1286.99 27.2059 L1286.99 72.576 L1279.54 72.576 L1279.54 65.6084 Q1276.82 69.7404 1273.22 71.7658 Q1269.65 73.7508 1264.91 73.7508 Q1257.1 73.7508 1253.04 68.8897 Q1248.99 64.0286 1248.99 54.671 M1267.75 26.1121 L1267.75 26.1121 Z" fill="#000000" fill-rule="nonzero" fill-opacity="1" /><path clip-path="url(#clip810)" d="M1322.96 49.7694 Q1313.93 49.7694 1310.45 51.8354 Q1306.96 53.9013 1306.96 58.8839 Q1306.96 62.8538 1309.55 65.2034 Q1312.19 67.5124 1316.68 67.5124 Q1322.88 67.5124 1326.61 63.1374 Q1330.38 58.7219 1330.38 51.4303 L1330.38 49.7694 L1322.96 49.7694 M1337.83 46.6907 L1337.83 72.576 L1330.38 72.576 L1330.38 65.6895 Q1327.82 69.8214 1324.02 71.8063 Q1320.21 73.7508 1314.7 73.7508 Q1307.73 73.7508 1303.6 69.8619 Q1299.51 65.9325 1299.51 59.3701 Q1299.51 51.7138 1304.61 47.825 Q1309.76 43.9361 1319.92 43.9361 L1330.38 43.9361 L1330.38 43.2069 Q1330.38 38.0623 1326.97 35.2672 Q1323.61 32.4315 1317.49 32.4315 Q1313.61 32.4315 1309.92 33.3632 Q1306.23 34.295 1302.83 36.1584 L1302.83 29.2718 Q1306.92 27.692 1310.77 26.9223 Q1314.62 26.1121 1318.26 26.1121 Q1328.11 26.1121 1332.97 31.2163 Q1337.83 36.3204 1337.83 46.6907 Z" fill="#000000" fill-rule="nonzero" fill-opacity="1" /><path clip-path="url(#clip810)" d="M1379.47 34.1734 Q1378.22 33.4443 1376.72 33.1202 Q1375.26 32.7556 1373.48 32.7556 Q1367.16 32.7556 1363.76 36.8875 Q1360.39 40.9789 1360.39 48.6757 L1360.39 72.576 L1352.9 72.576 L1352.9 27.2059 L1360.39 27.2059 L1360.39 34.2544 Q1362.74 30.1225 1366.51 28.1376 Q1370.28 26.1121 1375.67 26.1121 Q1376.44 26.1121 1377.37 26.2337 Q1378.3 26.3147 1379.43 26.5172 L1379.47 34.1734 Z" fill="#000000" fill-rule="nonzero" fill-opacity="1" /><path clip-path="url(#clip810)" d="M1424.28 48.0275 L1424.28 51.6733 L1390.01 51.6733 Q1390.49 59.3701 1394.62 63.421 Q1398.8 67.4314 1406.21 67.4314 Q1410.5 67.4314 1414.51 66.3781 Q1418.56 65.3249 1422.53 63.2184 L1422.53 70.267 Q1418.52 71.9684 1414.31 72.8596 Q1410.1 73.7508 1405.76 73.7508 Q1394.91 73.7508 1388.55 67.4314 Q1382.23 61.1119 1382.23 50.3365 Q1382.23 39.1965 1388.22 32.6746 Q1394.26 26.1121 1404.47 26.1121 Q1413.62 26.1121 1418.93 32.0264 Q1424.28 37.9003 1424.28 48.0275 M1416.82 45.84 Q1416.74 39.7232 1413.38 36.0774 Q1410.06 32.4315 1404.55 32.4315 Q1398.31 32.4315 1394.54 35.9558 Q1390.82 39.4801 1390.25 45.8805 L1416.82 45.84 Z" fill="#000000" fill-rule="nonzero" fill-opacity="1" /><path clip-path="url(#clip810)" d="M1466.37 34.0924 L1466.37 9.54393 L1473.82 9.54393 L1473.82 72.576 L1466.37 72.576 L1466.37 65.7705 Q1464.02 69.8214 1460.41 71.8063 Q1456.85 73.7508 1451.82 73.7508 Q1443.6 73.7508 1438.41 67.1883 Q1433.27 60.6258 1433.27 49.9314 Q1433.27 39.2371 1438.41 32.6746 Q1443.6 26.1121 1451.82 26.1121 Q1456.85 26.1121 1460.41 28.0971 Q1464.02 30.0415 1466.37 34.0924 M1440.97 49.9314 Q1440.97 58.1548 1444.33 62.8538 Q1447.73 67.5124 1453.65 67.5124 Q1459.56 67.5124 1462.96 62.8538 Q1466.37 58.1548 1466.37 49.9314 Q1466.37 41.7081 1462.96 37.0496 Q1459.56 32.3505 1453.65 32.3505 Q1447.73 32.3505 1444.33 37.0496 Q1440.97 41.7081 1440.97 49.9314 Z" fill="#000000" fill-rule="nonzero" fill-opacity="1" /><path clip-path="url(#clip810)" d="M1515.87 12.096 L1554.11 12.096 L1554.11 18.9825 L1524.05 18.9825 L1524.05 36.8875 L1552.85 36.8875 L1552.85 43.7741 L1524.05 43.7741 L1524.05 65.6895 L1554.84 65.6895 L1554.84 72.576 L1515.87 72.576 L1515.87 12.096 Z" fill="#000000" fill-rule="nonzero" fill-opacity="1" /><path clip-path="url(#clip810)" d="M1594.25 34.1734 Q1593 33.4443 1591.5 33.1202 Q1590.04 32.7556 1588.26 32.7556 Q1581.94 32.7556 1578.53 36.8875 Q1575.17 40.9789 1575.17 48.6757 L1575.17 72.576 L1567.68 72.576 L1567.68 27.2059 L1575.17 27.2059 L1575.17 34.2544 Q1577.52 30.1225 1581.29 28.1376 Q1585.06 26.1121 1590.44 26.1121 Q1591.21 26.1121 1592.15 26.2337 Q1593.08 26.3147 1594.21 26.5172 L1594.25 34.1734 Z" fill="#000000" fill-rule="nonzero" fill-opacity="1" /><path clip-path="url(#clip810)" d="M1626.9 34.1734 Q1625.65 33.4443 1624.15 33.1202 Q1622.69 32.7556 1620.91 32.7556 Q1614.59 32.7556 1611.18 36.8875 Q1607.82 40.9789 1607.82 48.6757 L1607.82 72.576 L1600.33 72.576 L1600.33 27.2059 L1607.82 27.2059 L1607.82 34.2544 Q1610.17 30.1225 1613.94 28.1376 Q1617.71 26.1121 1623.09 26.1121 Q1623.86 26.1121 1624.8 26.2337 Q1625.73 26.3147 1626.86 26.5172 L1626.9 34.1734 Z" fill="#000000" fill-rule="nonzero" fill-opacity="1" /><path clip-path="url(#clip810)" d="M1650.48 32.4315 Q1644.48 32.4315 1641 37.1306 Q1637.52 41.7891 1637.52 49.9314 Q1637.52 58.0738 1640.96 62.7728 Q1644.44 67.4314 1650.48 67.4314 Q1656.43 67.4314 1659.92 62.7323 Q1663.4 58.0333 1663.4 49.9314 Q1663.4 41.8701 1659.92 37.1711 Q1656.43 32.4315 1650.48 32.4315 M1650.48 26.1121 Q1660.2 26.1121 1665.75 32.4315 Q1671.3 38.7509 1671.3 49.9314 Q1671.3 61.0714 1665.75 67.4314 Q1660.2 73.7508 1650.48 73.7508 Q1640.72 73.7508 1635.17 67.4314 Q1629.66 61.0714 1629.66 49.9314 Q1629.66 38.7509 1635.17 32.4315 Q1640.72 26.1121 1650.48 26.1121 Z" fill="#000000" fill-rule="nonzero" fill-opacity="1" /><path clip-path="url(#clip810)" d="M1709.95 34.1734 Q1708.69 33.4443 1707.19 33.1202 Q1705.73 32.7556 1703.95 32.7556 Q1697.63 32.7556 1694.23 36.8875 Q1690.87 40.9789 1690.87 48.6757 L1690.87 72.576 L1683.37 72.576 L1683.37 27.2059 L1690.87 27.2059 L1690.87 34.2544 Q1693.22 30.1225 1696.98 28.1376 Q1700.75 26.1121 1706.14 26.1121 Q1706.91 26.1121 1707.84 26.2337 Q1708.77 26.3147 1709.91 26.5172 L1709.95 34.1734 Z" fill="#000000" fill-rule="nonzero" fill-opacity="1" /><polyline clip-path="url(#clip812)" style="stroke:#009af9; stroke-linecap:round; stroke-linejoin:round; stroke-width:4; stroke-opacity:1; fill:none" points="309.067,160.256 970.455,1373.11 1631.84,272.122 2293.23,441.591 "/>
<polyline clip-path="url(#clip812)" style="stroke:#e26f46; stroke-linecap:round; stroke-linejoin:round; stroke-width:4; stroke-opacity:1; fill:none" points="309.067,640.386 970.455,1376.37 1631.84,774.508 2293.23,861.381 "/>
<polyline clip-path="url(#clip812)" style="stroke:#3da44d; stroke-linecap:round; stroke-linejoin:round; stroke-width:4; stroke-opacity:1; fill:none" points="309.067,675.838 970.455,1377.88 1631.84,858.623 2293.23,948.29 "/>
<polyline clip-path="url(#clip812)" style="stroke:#c271d2; stroke-linecap:round; stroke-linejoin:round; stroke-width:4; stroke-opacity:1; fill:none" points="309.067,672.937 970.455,1378.84 1631.84,937.802 2293.23,955.637 "/>
<polyline clip-path="url(#clip812)" style="stroke:#ac8d18; stroke-linecap:round; stroke-linejoin:round; stroke-width:4; stroke-opacity:1; fill:none" points="309.067,674.788 970.455,1374.84 1631.84,1022.36 2293.23,974.351 "/>
<polyline clip-path="url(#clip812)" style="stroke:#00a9ad; stroke-linecap:round; stroke-linejoin:round; stroke-width:4; stroke-opacity:1; fill:none" points="309.067,713.802 970.455,1376.18 1631.84,1092.68 2293.23,1007.57 "/>
<polyline clip-path="url(#clip812)" style="stroke:#ed5d92; stroke-linecap:round; stroke-linejoin:round; stroke-width:4; stroke-opacity:1; fill:none" points="309.067,760.905 970.455,1381.05 1631.84,1122.85 2293.23,1027.78 "/>
<polyline clip-path="url(#clip812)" style="stroke:#c68125; stroke-linecap:round; stroke-linejoin:round; stroke-width:4; stroke-opacity:1; fill:none" points="309.067,780.701 970.455,1377.86 1631.84,1117.93 2293.23,1008.48 "/>
<polyline clip-path="url(#clip812)" style="stroke:#00a98d; stroke-linecap:round; stroke-linejoin:round; stroke-width:4; stroke-opacity:1; fill:none" points="309.067,781.668 970.455,1379.95 1631.84,1117.27 2293.23,1026.44 "/>
<polyline clip-path="url(#clip812)" style="stroke:#8e971d; stroke-linecap:round; stroke-linejoin:round; stroke-width:4; stroke-opacity:1; fill:none" points="309.067,799.496 970.455,1379.78 1631.84,1106.69 2293.23,1005.76 "/>
<polyline clip-path="url(#clip812)" style="stroke:#00a8cb; stroke-linecap:round; stroke-linejoin:round; stroke-width:4; stroke-opacity:1; fill:none" points="309.067,802.711 970.455,1380.53 1631.84,1108.92 2293.23,1006.58 "/>
<polyline clip-path="url(#clip812)" style="stroke:#9b7fe8; stroke-linecap:round; stroke-linejoin:round; stroke-width:4; stroke-opacity:1; fill:none" points="309.067,809.358 970.455,1383.17 1631.84,1113.96 2293.23,1006.68 "/>
<polyline clip-path="url(#clip812)" style="stroke:#608cf6; stroke-linecap:round; stroke-linejoin:round; stroke-width:4; stroke-opacity:1; fill:none" points="309.067,774.246 970.455,1383.07 1631.84,1157.91 2293.23,1006.94 "/>
<polyline clip-path="url(#clip812)" style="stroke:#f05f73; stroke-linecap:round; stroke-linejoin:round; stroke-width:4; stroke-opacity:1; fill:none" points="309.067,765.172 970.455,1382.97 1631.84,1174.53 2293.23,1018.74 "/>
<polyline clip-path="url(#clip812)" style="stroke:#dd64b5; stroke-linecap:round; stroke-linejoin:round; stroke-width:4; stroke-opacity:1; fill:none" points="309.067,765.703 970.455,1382.11 1631.84,1191.2 2293.23,1022.11 "/>
<polyline clip-path="url(#clip812)" style="stroke:#6b9e32; stroke-linecap:round; stroke-linejoin:round; stroke-width:4; stroke-opacity:1; fill:none" points="309.067,737.937 970.455,1383.53 1631.84,1205.03 2293.23,1073.43 "/>
<polyline clip-path="url(#clip812)" style="stroke:#009af9; stroke-linecap:round; stroke-linejoin:round; stroke-width:4; stroke-opacity:1; fill:none" points="309.067,762.224 970.455,1383.9 1631.84,1208.96 2293.23,1072.88 "/>
<polyline clip-path="url(#clip812)" style="stroke:#e26f46; stroke-linecap:round; stroke-linejoin:round; stroke-width:4; stroke-opacity:1; fill:none" points="309.067,761.085 970.455,1381.84 1631.84,1204.75 2293.23,1078.44 "/>
<polyline clip-path="url(#clip812)" style="stroke:#3da44d; stroke-linecap:round; stroke-linejoin:round; stroke-width:4; stroke-opacity:1; fill:none" points="309.067,767.398 970.455,1382.34 1631.84,1196.47 2293.23,1081.79 "/>
<polyline clip-path="url(#clip812)" style="stroke:#c271d2; stroke-linecap:round; stroke-linejoin:round; stroke-width:4; stroke-opacity:1; fill:none" points="309.067,769.33 970.455,1386.4 1631.84,1208.67 2293.23,1079.91 "/>
<path clip-path="url(#clip810)" d="M1957.63 1379.86 L2282.65 1379.86 L2282.65 291.216 L1957.63 291.216  Z" fill="#ffffff" fill-rule="evenodd" fill-opacity="1"/>
<polyline clip-path="url(#clip810)" style="stroke:#000000; stroke-linecap:round; stroke-linejoin:round; stroke-width:4; stroke-opacity:1; fill:none" points="1957.63,1379.86 2282.65,1379.86 2282.65,291.216 1957.63,291.216 1957.63,1379.86 "/>
<polyline clip-path="url(#clip810)" style="stroke:#009af9; stroke-linecap:round; stroke-linejoin:round; stroke-width:4; stroke-opacity:1; fill:none" points="1981,343.056 2121.21,343.056 "/>
<path clip-path="url(#clip810)" d="M2151.99 327.049 L2151.99 334.41 L2160.76 334.41 L2160.76 337.721 L2151.99 337.721 L2151.99 351.795 Q2151.99 354.966 2152.85 355.869 Q2153.72 356.771 2156.39 356.771 L2160.76 356.771 L2160.76 360.336 L2156.39 360.336 Q2151.46 360.336 2149.58 358.508 Q2147.71 356.656 2147.71 351.795 L2147.71 337.721 L2144.58 337.721 L2144.58 334.41 L2147.71 334.41 L2147.71 327.049 L2151.99 327.049 Z" fill="#000000" fill-rule="nonzero" fill-opacity="1" /><path clip-path="url(#clip810)" d="M2166.92 338.809 L2196.59 338.809 L2196.59 342.697 L2166.92 342.697 L2166.92 338.809 M2166.92 348.253 L2196.59 348.253 L2196.59 352.188 L2166.92 352.188 L2166.92 348.253 Z" fill="#000000" fill-rule="nonzero" fill-opacity="1" /><path clip-path="url(#clip810)" d="M2207.5 356.401 L2215.14 356.401 L2215.14 330.035 L2206.83 331.702 L2206.83 327.443 L2215.09 325.776 L2219.77 325.776 L2219.77 356.401 L2227.4 356.401 L2227.4 360.336 L2207.5 360.336 L2207.5 356.401 Z" fill="#000000" fill-rule="nonzero" fill-opacity="1" /><polyline clip-path="url(#clip810)" style="stroke:#e26f46; stroke-linecap:round; stroke-linejoin:round; stroke-width:4; stroke-opacity:1; fill:none" points="1981,394.896 2121.21,394.896 "/>
<path clip-path="url(#clip810)" d="M2151.99 378.889 L2151.99 386.25 L2160.76 386.25 L2160.76 389.561 L2151.99 389.561 L2151.99 403.635 Q2151.99 406.806 2152.85 407.709 Q2153.72 408.611 2156.39 408.611 L2160.76 408.611 L2160.76 412.176 L2156.39 412.176 Q2151.46 412.176 2149.58 410.348 Q2147.71 408.496 2147.71 403.635 L2147.71 389.561 L2144.58 389.561 L2144.58 386.25 L2147.71 386.25 L2147.71 378.889 L2151.99 378.889 Z" fill="#000000" fill-rule="nonzero" fill-opacity="1" /><path clip-path="url(#clip810)" d="M2166.92 390.649 L2196.59 390.649 L2196.59 394.537 L2166.92 394.537 L2166.92 390.649 M2166.92 400.093 L2196.59 400.093 L2196.59 404.028 L2166.92 404.028 L2166.92 400.093 Z" fill="#000000" fill-rule="nonzero" fill-opacity="1" /><path clip-path="url(#clip810)" d="M2210.72 408.241 L2227.03 408.241 L2227.03 412.176 L2205.09 412.176 L2205.09 408.241 Q2207.75 405.486 2212.34 400.857 Q2216.94 396.204 2218.12 394.862 Q2220.37 392.338 2221.25 390.602 Q2222.15 388.843 2222.15 387.153 Q2222.15 384.399 2220.21 382.663 Q2218.28 380.926 2215.18 380.926 Q2212.98 380.926 2210.53 381.69 Q2208.1 382.454 2205.32 384.005 L2205.32 379.283 Q2208.15 378.149 2210.6 377.57 Q2213.05 376.991 2215.09 376.991 Q2220.46 376.991 2223.65 379.676 Q2226.85 382.362 2226.85 386.852 Q2226.85 388.982 2226.04 390.903 Q2225.25 392.801 2223.15 395.394 Q2222.57 396.065 2219.47 399.283 Q2216.36 402.477 2210.72 408.241 Z" fill="#000000" fill-rule="nonzero" fill-opacity="1" /><polyline clip-path="url(#clip810)" style="stroke:#3da44d; stroke-linecap:round; stroke-linejoin:round; stroke-width:4; stroke-opacity:1; fill:none" points="1981,446.736 2121.21,446.736 "/>
<path clip-path="url(#clip810)" d="M2151.99 430.729 L2151.99 438.09 L2160.76 438.09 L2160.76 441.401 L2151.99 441.401 L2151.99 455.475 Q2151.99 458.646 2152.85 459.549 Q2153.72 460.451 2156.39 460.451 L2160.76 460.451 L2160.76 464.016 L2156.39 464.016 Q2151.46 464.016 2149.58 462.188 Q2147.71 460.336 2147.71 455.475 L2147.71 441.401 L2144.58 441.401 L2144.58 438.09 L2147.71 438.09 L2147.71 430.729 L2151.99 430.729 Z" fill="#000000" fill-rule="nonzero" fill-opacity="1" /><path clip-path="url(#clip810)" d="M2166.92 442.489 L2196.59 442.489 L2196.59 446.377 L2166.92 446.377 L2166.92 442.489 M2166.92 451.933 L2196.59 451.933 L2196.59 455.868 L2166.92 455.868 L2166.92 451.933 Z" fill="#000000" fill-rule="nonzero" fill-opacity="1" /><path clip-path="url(#clip810)" d="M2220.85 445.382 Q2224.21 446.1 2226.09 448.368 Q2227.98 450.637 2227.98 453.97 Q2227.98 459.086 2224.47 461.887 Q2220.95 464.688 2214.47 464.688 Q2212.29 464.688 2209.97 464.248 Q2207.68 463.831 2205.23 462.975 L2205.23 458.461 Q2207.17 459.595 2209.49 460.174 Q2211.8 460.752 2214.33 460.752 Q2218.72 460.752 2221.02 459.016 Q2223.33 457.28 2223.33 453.97 Q2223.33 450.914 2221.18 449.202 Q2219.05 447.465 2215.23 447.465 L2211.2 447.465 L2211.2 443.623 L2215.41 443.623 Q2218.86 443.623 2220.69 442.257 Q2222.52 440.868 2222.52 438.276 Q2222.52 435.614 2220.62 434.202 Q2218.75 432.766 2215.23 432.766 Q2213.31 432.766 2211.11 433.183 Q2208.91 433.6 2206.27 434.479 L2206.27 430.313 Q2208.93 429.572 2211.25 429.202 Q2213.59 428.831 2215.65 428.831 Q2220.97 428.831 2224.07 431.262 Q2227.17 433.669 2227.17 437.79 Q2227.17 440.66 2225.53 442.651 Q2223.89 444.618 2220.85 445.382 Z" fill="#000000" fill-rule="nonzero" fill-opacity="1" /><polyline clip-path="url(#clip810)" style="stroke:#c271d2; stroke-linecap:round; stroke-linejoin:round; stroke-width:4; stroke-opacity:1; fill:none" points="1981,498.576 2121.21,498.576 "/>
<path clip-path="url(#clip810)" d="M2151.99 482.569 L2151.99 489.93 L2160.76 489.93 L2160.76 493.241 L2151.99 493.241 L2151.99 507.315 Q2151.99 510.486 2152.85 511.389 Q2153.72 512.291 2156.39 512.291 L2160.76 512.291 L2160.76 515.856 L2156.39 515.856 Q2151.46 515.856 2149.58 514.028 Q2147.71 512.176 2147.71 507.315 L2147.71 493.241 L2144.58 493.241 L2144.58 489.93 L2147.71 489.93 L2147.71 482.569 L2151.99 482.569 Z" fill="#000000" fill-rule="nonzero" fill-opacity="1" /><path clip-path="url(#clip810)" d="M2166.92 494.329 L2196.59 494.329 L2196.59 498.217 L2166.92 498.217 L2166.92 494.329 M2166.92 503.773 L2196.59 503.773 L2196.59 507.708 L2166.92 507.708 L2166.92 503.773 Z" fill="#000000" fill-rule="nonzero" fill-opacity="1" /><path clip-path="url(#clip810)" d="M2219.53 485.37 L2207.73 503.819 L2219.53 503.819 L2219.53 485.37 M2218.31 481.296 L2224.19 481.296 L2224.19 503.819 L2229.12 503.819 L2229.12 507.708 L2224.19 507.708 L2224.19 515.856 L2219.53 515.856 L2219.53 507.708 L2203.93 507.708 L2203.93 503.194 L2218.31 481.296 Z" fill="#000000" fill-rule="nonzero" fill-opacity="1" /><polyline clip-path="url(#clip810)" style="stroke:#ac8d18; stroke-linecap:round; stroke-linejoin:round; stroke-width:4; stroke-opacity:1; fill:none" points="1981,550.416 2121.21,550.416 "/>
<path clip-path="url(#clip810)" d="M2151.99 534.409 L2151.99 541.77 L2160.76 541.77 L2160.76 545.081 L2151.99 545.081 L2151.99 559.155 Q2151.99 562.326 2152.85 563.229 Q2153.72 564.131 2156.39 564.131 L2160.76 564.131 L2160.76 567.696 L2156.39 567.696 Q2151.46 567.696 2149.58 565.868 Q2147.71 564.016 2147.71 559.155 L2147.71 545.081 L2144.58 545.081 L2144.58 541.77 L2147.71 541.77 L2147.71 534.409 L2151.99 534.409 Z" fill="#000000" fill-rule="nonzero" fill-opacity="1" /><path clip-path="url(#clip810)" d="M2166.92 546.169 L2196.59 546.169 L2196.59 550.057 L2166.92 550.057 L2166.92 546.169 M2166.92 555.613 L2196.59 555.613 L2196.59 559.548 L2166.92 559.548 L2166.92 555.613 Z" fill="#000000" fill-rule="nonzero" fill-opacity="1" /><path clip-path="url(#clip810)" d="M2206.73 533.136 L2225.09 533.136 L2225.09 537.071 L2211.02 537.071 L2211.02 545.544 Q2212.03 545.196 2213.05 545.034 Q2214.07 544.849 2215.09 544.849 Q2220.88 544.849 2224.26 548.02 Q2227.64 551.192 2227.64 556.608 Q2227.64 562.187 2224.16 565.289 Q2220.69 568.368 2214.37 568.368 Q2212.2 568.368 2209.93 567.997 Q2207.68 567.627 2205.28 566.886 L2205.28 562.187 Q2207.36 563.321 2209.58 563.877 Q2211.8 564.432 2214.28 564.432 Q2218.28 564.432 2220.62 562.326 Q2222.96 560.219 2222.96 556.608 Q2222.96 552.997 2220.62 550.891 Q2218.28 548.784 2214.28 548.784 Q2212.4 548.784 2210.53 549.201 Q2208.68 549.618 2206.73 550.497 L2206.73 533.136 Z" fill="#000000" fill-rule="nonzero" fill-opacity="1" /><polyline clip-path="url(#clip810)" style="stroke:#00a9ad; stroke-linecap:round; stroke-linejoin:round; stroke-width:4; stroke-opacity:1; fill:none" points="1981,602.256 2121.21,602.256 "/>
<path clip-path="url(#clip810)" d="M2151.99 586.249 L2151.99 593.61 L2160.76 593.61 L2160.76 596.921 L2151.99 596.921 L2151.99 610.995 Q2151.99 614.166 2152.85 615.069 Q2153.72 615.971 2156.39 615.971 L2160.76 615.971 L2160.76 619.536 L2156.39 619.536 Q2151.46 619.536 2149.58 617.708 Q2147.71 615.856 2147.71 610.995 L2147.71 596.921 L2144.58 596.921 L2144.58 593.61 L2147.71 593.61 L2147.71 586.249 L2151.99 586.249 Z" fill="#000000" fill-rule="nonzero" fill-opacity="1" /><path clip-path="url(#clip810)" d="M2166.92 598.009 L2196.59 598.009 L2196.59 601.897 L2166.92 601.897 L2166.92 598.009 M2166.92 607.453 L2196.59 607.453 L2196.59 611.388 L2166.92 611.388 L2166.92 607.453 Z" fill="#000000" fill-rule="nonzero" fill-opacity="1" /><path clip-path="url(#clip810)" d="M2217.27 600.393 Q2214.12 600.393 2212.27 602.546 Q2210.44 604.698 2210.44 608.448 Q2210.44 612.175 2212.27 614.351 Q2214.12 616.504 2217.27 616.504 Q2220.41 616.504 2222.24 614.351 Q2224.09 612.175 2224.09 608.448 Q2224.09 604.698 2222.24 602.546 Q2220.41 600.393 2217.27 600.393 M2226.55 585.74 L2226.55 589.999 Q2224.79 589.166 2222.98 588.726 Q2221.2 588.286 2219.44 588.286 Q2214.81 588.286 2212.36 591.411 Q2209.93 594.536 2209.58 600.856 Q2210.95 598.842 2213.01 597.777 Q2215.07 596.689 2217.54 596.689 Q2222.75 596.689 2225.76 599.86 Q2228.79 603.009 2228.79 608.448 Q2228.79 613.772 2225.65 616.99 Q2222.5 620.208 2217.27 620.208 Q2211.27 620.208 2208.1 615.624 Q2204.93 611.018 2204.93 602.291 Q2204.93 594.097 2208.82 589.235 Q2212.71 584.351 2219.26 584.351 Q2221.02 584.351 2222.8 584.698 Q2224.6 585.046 2226.55 585.74 Z" fill="#000000" fill-rule="nonzero" fill-opacity="1" /><polyline clip-path="url(#clip810)" style="stroke:#ed5d92; stroke-linecap:round; stroke-linejoin:round; stroke-width:4; stroke-opacity:1; fill:none" points="1981,654.096 2121.21,654.096 "/>
<path clip-path="url(#clip810)" d="M2151.99 638.089 L2151.99 645.45 L2160.76 645.45 L2160.76 648.761 L2151.99 648.761 L2151.99 662.835 Q2151.99 666.006 2152.85 666.909 Q2153.72 667.811 2156.39 667.811 L2160.76 667.811 L2160.76 671.376 L2156.39 671.376 Q2151.46 671.376 2149.58 669.548 Q2147.71 667.696 2147.71 662.835 L2147.71 648.761 L2144.58 648.761 L2144.58 645.45 L2147.71 645.45 L2147.71 638.089 L2151.99 638.089 Z" fill="#000000" fill-rule="nonzero" fill-opacity="1" /><path clip-path="url(#clip810)" d="M2166.92 649.849 L2196.59 649.849 L2196.59 653.737 L2166.92 653.737 L2166.92 649.849 M2166.92 659.293 L2196.59 659.293 L2196.59 663.228 L2166.92 663.228 L2166.92 659.293 Z" fill="#000000" fill-rule="nonzero" fill-opacity="1" /><path clip-path="url(#clip810)" d="M2205.51 636.816 L2227.73 636.816 L2227.73 638.807 L2215.18 671.376 L2210.3 671.376 L2222.1 640.751 L2205.51 640.751 L2205.51 636.816 Z" fill="#000000" fill-rule="nonzero" fill-opacity="1" /><polyline clip-path="url(#clip810)" style="stroke:#c68125; stroke-linecap:round; stroke-linejoin:round; stroke-width:4; stroke-opacity:1; fill:none" points="1981,705.936 2121.21,705.936 "/>
<path clip-path="url(#clip810)" d="M2151.99 689.929 L2151.99 697.29 L2160.76 697.29 L2160.76 700.601 L2151.99 700.601 L2151.99 714.675 Q2151.99 717.846 2152.85 718.749 Q2153.72 719.651 2156.39 719.651 L2160.76 719.651 L2160.76 723.216 L2156.39 723.216 Q2151.46 723.216 2149.58 721.388 Q2147.71 719.536 2147.71 714.675 L2147.71 700.601 L2144.58 700.601 L2144.58 697.29 L2147.71 697.29 L2147.71 689.929 L2151.99 689.929 Z" fill="#000000" fill-rule="nonzero" fill-opacity="1" /><path clip-path="url(#clip810)" d="M2166.92 701.689 L2196.59 701.689 L2196.59 705.577 L2166.92 705.577 L2166.92 701.689 M2166.92 711.133 L2196.59 711.133 L2196.59 715.068 L2166.92 715.068 L2166.92 711.133 Z" fill="#000000" fill-rule="nonzero" fill-opacity="1" /><path clip-path="url(#clip810)" d="M2216.69 706.804 Q2213.35 706.804 2211.43 708.587 Q2209.53 710.369 2209.53 713.494 Q2209.53 716.619 2211.43 718.401 Q2213.35 720.184 2216.69 720.184 Q2220.02 720.184 2221.94 718.401 Q2223.86 716.596 2223.86 713.494 Q2223.86 710.369 2221.94 708.587 Q2220.04 706.804 2216.69 706.804 M2212.01 704.814 Q2209 704.073 2207.31 702.013 Q2205.65 699.952 2205.65 696.99 Q2205.65 692.846 2208.59 690.439 Q2211.55 688.031 2216.69 688.031 Q2221.85 688.031 2224.79 690.439 Q2227.73 692.846 2227.73 696.99 Q2227.73 699.952 2226.04 702.013 Q2224.37 704.073 2221.39 704.814 Q2224.77 705.601 2226.64 707.892 Q2228.54 710.184 2228.54 713.494 Q2228.54 718.517 2225.46 721.202 Q2222.4 723.888 2216.69 723.888 Q2210.97 723.888 2207.89 721.202 Q2204.84 718.517 2204.84 713.494 Q2204.84 710.184 2206.73 707.892 Q2208.63 705.601 2212.01 704.814 M2210.3 697.429 Q2210.3 700.115 2211.97 701.619 Q2213.65 703.124 2216.69 703.124 Q2219.7 703.124 2221.39 701.619 Q2223.1 700.115 2223.1 697.429 Q2223.1 694.744 2221.39 693.24 Q2219.7 691.735 2216.69 691.735 Q2213.65 691.735 2211.97 693.24 Q2210.3 694.744 2210.3 697.429 Z" fill="#000000" fill-rule="nonzero" fill-opacity="1" /><polyline clip-path="url(#clip810)" style="stroke:#00a98d; stroke-linecap:round; stroke-linejoin:round; stroke-width:4; stroke-opacity:1; fill:none" points="1981,757.776 2121.21,757.776 "/>
<path clip-path="url(#clip810)" d="M2151.99 741.769 L2151.99 749.13 L2160.76 749.13 L2160.76 752.441 L2151.99 752.441 L2151.99 766.515 Q2151.99 769.686 2152.85 770.589 Q2153.72 771.491 2156.39 771.491 L2160.76 771.491 L2160.76 775.056 L2156.39 775.056 Q2151.46 775.056 2149.58 773.228 Q2147.71 771.376 2147.71 766.515 L2147.71 752.441 L2144.58 752.441 L2144.58 749.13 L2147.71 749.13 L2147.71 741.769 L2151.99 741.769 Z" fill="#000000" fill-rule="nonzero" fill-opacity="1" /><path clip-path="url(#clip810)" d="M2166.92 753.529 L2196.59 753.529 L2196.59 757.417 L2166.92 757.417 L2166.92 753.529 M2166.92 762.973 L2196.59 762.973 L2196.59 766.908 L2166.92 766.908 L2166.92 762.973 Z" fill="#000000" fill-rule="nonzero" fill-opacity="1" /><path clip-path="url(#clip810)" d="M2206.83 774.339 L2206.83 770.079 Q2208.59 770.913 2210.39 771.353 Q2212.2 771.792 2213.93 771.792 Q2218.56 771.792 2220.99 768.691 Q2223.45 765.566 2223.79 759.223 Q2222.45 761.214 2220.39 762.279 Q2218.33 763.343 2215.83 763.343 Q2210.65 763.343 2207.61 760.218 Q2204.6 757.07 2204.6 751.63 Q2204.6 746.306 2207.75 743.089 Q2210.9 739.871 2216.13 739.871 Q2222.13 739.871 2225.28 744.478 Q2228.45 749.061 2228.45 757.811 Q2228.45 765.982 2224.56 770.866 Q2220.69 775.728 2214.14 775.728 Q2212.38 775.728 2210.58 775.38 Q2208.77 775.033 2206.83 774.339 M2216.13 759.686 Q2219.28 759.686 2221.11 757.533 Q2222.96 755.38 2222.96 751.63 Q2222.96 747.904 2221.11 745.751 Q2219.28 743.575 2216.13 743.575 Q2212.98 743.575 2211.13 745.751 Q2209.3 747.904 2209.3 751.63 Q2209.3 755.38 2211.13 757.533 Q2212.98 759.686 2216.13 759.686 Z" fill="#000000" fill-rule="nonzero" fill-opacity="1" /><polyline clip-path="url(#clip810)" style="stroke:#8e971d; stroke-linecap:round; stroke-linejoin:round; stroke-width:4; stroke-opacity:1; fill:none" points="1981,809.616 2121.21,809.616 "/>
<path clip-path="url(#clip810)" d="M2151.99 793.609 L2151.99 800.97 L2160.76 800.97 L2160.76 804.281 L2151.99 804.281 L2151.99 818.355 Q2151.99 821.526 2152.85 822.429 Q2153.72 823.331 2156.39 823.331 L2160.76 823.331 L2160.76 826.896 L2156.39 826.896 Q2151.46 826.896 2149.58 825.068 Q2147.71 823.216 2147.71 818.355 L2147.71 804.281 L2144.58 804.281 L2144.58 800.97 L2147.71 800.97 L2147.71 793.609 L2151.99 793.609 Z" fill="#000000" fill-rule="nonzero" fill-opacity="1" /><path clip-path="url(#clip810)" d="M2166.92 805.369 L2196.59 805.369 L2196.59 809.257 L2166.92 809.257 L2166.92 805.369 M2166.92 814.813 L2196.59 814.813 L2196.59 818.748 L2166.92 818.748 L2166.92 814.813 Z" fill="#000000" fill-rule="nonzero" fill-opacity="1" /><path clip-path="url(#clip810)" d="M2207.5 822.961 L2215.14 822.961 L2215.14 796.595 L2206.83 798.262 L2206.83 794.003 L2215.09 792.336 L2219.77 792.336 L2219.77 822.961 L2227.4 822.961 L2227.4 826.896 L2207.5 826.896 L2207.5 822.961 Z" fill="#000000" fill-rule="nonzero" fill-opacity="1" /><path clip-path="url(#clip810)" d="M2246.85 795.415 Q2243.24 795.415 2241.41 798.98 Q2239.6 802.521 2239.6 809.651 Q2239.6 816.757 2241.41 820.322 Q2243.24 823.864 2246.85 823.864 Q2250.48 823.864 2252.29 820.322 Q2254.12 816.757 2254.12 809.651 Q2254.12 802.521 2252.29 798.98 Q2250.48 795.415 2246.85 795.415 M2246.85 791.711 Q2252.66 791.711 2255.71 796.318 Q2258.79 800.901 2258.79 809.651 Q2258.79 818.378 2255.71 822.984 Q2252.66 827.568 2246.85 827.568 Q2241.04 827.568 2237.96 822.984 Q2234.9 818.378 2234.9 809.651 Q2234.9 800.901 2237.96 796.318 Q2241.04 791.711 2246.85 791.711 Z" fill="#000000" fill-rule="nonzero" fill-opacity="1" /><polyline clip-path="url(#clip810)" style="stroke:#00a8cb; stroke-linecap:round; stroke-linejoin:round; stroke-width:4; stroke-opacity:1; fill:none" points="1981,861.456 2121.21,861.456 "/>
<path clip-path="url(#clip810)" d="M2151.99 845.449 L2151.99 852.81 L2160.76 852.81 L2160.76 856.121 L2151.99 856.121 L2151.99 870.195 Q2151.99 873.366 2152.85 874.269 Q2153.72 875.171 2156.39 875.171 L2160.76 875.171 L2160.76 878.736 L2156.39 878.736 Q2151.46 878.736 2149.58 876.908 Q2147.71 875.056 2147.71 870.195 L2147.71 856.121 L2144.58 856.121 L2144.58 852.81 L2147.71 852.81 L2147.71 845.449 L2151.99 845.449 Z" fill="#000000" fill-rule="nonzero" fill-opacity="1" /><path clip-path="url(#clip810)" d="M2166.92 857.209 L2196.59 857.209 L2196.59 861.097 L2166.92 861.097 L2166.92 857.209 M2166.92 866.653 L2196.59 866.653 L2196.59 870.588 L2166.92 870.588 L2166.92 866.653 Z" fill="#000000" fill-rule="nonzero" fill-opacity="1" /><path clip-path="url(#clip810)" d="M2207.5 874.801 L2215.14 874.801 L2215.14 848.435 L2206.83 850.102 L2206.83 845.843 L2215.09 844.176 L2219.77 844.176 L2219.77 874.801 L2227.4 874.801 L2227.4 878.736 L2207.5 878.736 L2207.5 874.801 Z" fill="#000000" fill-rule="nonzero" fill-opacity="1" /><path clip-path="url(#clip810)" d="M2237.66 874.801 L2245.3 874.801 L2245.3 848.435 L2236.99 850.102 L2236.99 845.843 L2245.25 844.176 L2249.93 844.176 L2249.93 874.801 L2257.57 874.801 L2257.57 878.736 L2237.66 878.736 L2237.66 874.801 Z" fill="#000000" fill-rule="nonzero" fill-opacity="1" /><polyline clip-path="url(#clip810)" style="stroke:#9b7fe8; stroke-linecap:round; stroke-linejoin:round; stroke-width:4; stroke-opacity:1; fill:none" points="1981,913.296 2121.21,913.296 "/>
<path clip-path="url(#clip810)" d="M2151.99 897.289 L2151.99 904.65 L2160.76 904.65 L2160.76 907.961 L2151.99 907.961 L2151.99 922.035 Q2151.99 925.206 2152.85 926.109 Q2153.72 927.011 2156.39 927.011 L2160.76 927.011 L2160.76 930.576 L2156.39 930.576 Q2151.46 930.576 2149.58 928.748 Q2147.71 926.896 2147.71 922.035 L2147.71 907.961 L2144.58 907.961 L2144.58 904.65 L2147.71 904.65 L2147.71 897.289 L2151.99 897.289 Z" fill="#000000" fill-rule="nonzero" fill-opacity="1" /><path clip-path="url(#clip810)" d="M2166.92 909.049 L2196.59 909.049 L2196.59 912.937 L2166.92 912.937 L2166.92 909.049 M2166.92 918.493 L2196.59 918.493 L2196.59 922.428 L2166.92 922.428 L2166.92 918.493 Z" fill="#000000" fill-rule="nonzero" fill-opacity="1" /><path clip-path="url(#clip810)" d="M2207.5 926.641 L2215.14 926.641 L2215.14 900.275 L2206.83 901.942 L2206.83 897.683 L2215.09 896.016 L2219.77 896.016 L2219.77 926.641 L2227.4 926.641 L2227.4 930.576 L2207.5 930.576 L2207.5 926.641 Z" fill="#000000" fill-rule="nonzero" fill-opacity="1" /><path clip-path="url(#clip810)" d="M2240.88 926.641 L2257.2 926.641 L2257.2 930.576 L2235.25 930.576 L2235.25 926.641 Q2237.91 923.886 2242.5 919.257 Q2247.1 914.604 2248.28 913.262 Q2250.53 910.738 2251.41 909.002 Q2252.31 907.243 2252.31 905.553 Q2252.31 902.799 2250.37 901.063 Q2248.45 899.326 2245.34 899.326 Q2243.15 899.326 2240.69 900.09 Q2238.26 900.854 2235.48 902.405 L2235.48 897.683 Q2238.31 896.549 2240.76 895.97 Q2243.22 895.391 2245.25 895.391 Q2250.62 895.391 2253.82 898.076 Q2257.01 900.762 2257.01 905.252 Q2257.01 907.382 2256.2 909.303 Q2255.41 911.201 2253.31 913.794 Q2252.73 914.465 2249.63 917.683 Q2246.53 920.877 2240.88 926.641 Z" fill="#000000" fill-rule="nonzero" fill-opacity="1" /><polyline clip-path="url(#clip810)" style="stroke:#608cf6; stroke-linecap:round; stroke-linejoin:round; stroke-width:4; stroke-opacity:1; fill:none" points="1981,965.136 2121.21,965.136 "/>
<path clip-path="url(#clip810)" d="M2151.99 949.129 L2151.99 956.49 L2160.76 956.49 L2160.76 959.801 L2151.99 959.801 L2151.99 973.875 Q2151.99 977.046 2152.85 977.949 Q2153.72 978.851 2156.39 978.851 L2160.76 978.851 L2160.76 982.416 L2156.39 982.416 Q2151.46 982.416 2149.58 980.588 Q2147.71 978.736 2147.71 973.875 L2147.71 959.801 L2144.58 959.801 L2144.58 956.49 L2147.71 956.49 L2147.71 949.129 L2151.99 949.129 Z" fill="#000000" fill-rule="nonzero" fill-opacity="1" /><path clip-path="url(#clip810)" d="M2166.92 960.889 L2196.59 960.889 L2196.59 964.777 L2166.92 964.777 L2166.92 960.889 M2166.92 970.333 L2196.59 970.333 L2196.59 974.268 L2166.92 974.268 L2166.92 970.333 Z" fill="#000000" fill-rule="nonzero" fill-opacity="1" /><path clip-path="url(#clip810)" d="M2207.5 978.481 L2215.14 978.481 L2215.14 952.115 L2206.83 953.782 L2206.83 949.523 L2215.09 947.856 L2219.77 947.856 L2219.77 978.481 L2227.4 978.481 L2227.4 982.416 L2207.5 982.416 L2207.5 978.481 Z" fill="#000000" fill-rule="nonzero" fill-opacity="1" /><path clip-path="url(#clip810)" d="M2251.02 963.782 Q2254.37 964.5 2256.25 966.768 Q2258.15 969.037 2258.15 972.37 Q2258.15 977.486 2254.63 980.287 Q2251.11 983.088 2244.63 983.088 Q2242.45 983.088 2240.14 982.648 Q2237.84 982.231 2235.39 981.375 L2235.39 976.861 Q2237.34 977.995 2239.65 978.574 Q2241.97 979.152 2244.49 979.152 Q2248.89 979.152 2251.18 977.416 Q2253.49 975.68 2253.49 972.37 Q2253.49 969.314 2251.34 967.602 Q2249.21 965.865 2245.39 965.865 L2241.36 965.865 L2241.36 962.023 L2245.58 962.023 Q2249.03 962.023 2250.85 960.657 Q2252.68 959.268 2252.68 956.676 Q2252.68 954.014 2250.78 952.602 Q2248.91 951.166 2245.39 951.166 Q2243.47 951.166 2241.27 951.583 Q2239.07 952 2236.43 952.879 L2236.43 948.713 Q2239.09 947.972 2241.41 947.602 Q2243.75 947.231 2245.81 947.231 Q2251.13 947.231 2254.23 949.662 Q2257.34 952.069 2257.34 956.19 Q2257.34 959.06 2255.69 961.051 Q2254.05 963.018 2251.02 963.782 Z" fill="#000000" fill-rule="nonzero" fill-opacity="1" /><polyline clip-path="url(#clip810)" style="stroke:#f05f73; stroke-linecap:round; stroke-linejoin:round; stroke-width:4; stroke-opacity:1; fill:none" points="1981,1016.98 2121.21,1016.98 "/>
<path clip-path="url(#clip810)" d="M2151.99 1000.97 L2151.99 1008.33 L2160.76 1008.33 L2160.76 1011.64 L2151.99 1011.64 L2151.99 1025.71 Q2151.99 1028.89 2152.85 1029.79 Q2153.72 1030.69 2156.39 1030.69 L2160.76 1030.69 L2160.76 1034.26 L2156.39 1034.26 Q2151.46 1034.26 2149.58 1032.43 Q2147.71 1030.58 2147.71 1025.71 L2147.71 1011.64 L2144.58 1011.64 L2144.58 1008.33 L2147.71 1008.33 L2147.71 1000.97 L2151.99 1000.97 Z" fill="#000000" fill-rule="nonzero" fill-opacity="1" /><path clip-path="url(#clip810)" d="M2166.92 1012.73 L2196.59 1012.73 L2196.59 1016.62 L2166.92 1016.62 L2166.92 1012.73 M2166.92 1022.17 L2196.59 1022.17 L2196.59 1026.11 L2166.92 1026.11 L2166.92 1022.17 Z" fill="#000000" fill-rule="nonzero" fill-opacity="1" /><path clip-path="url(#clip810)" d="M2207.5 1030.32 L2215.14 1030.32 L2215.14 1003.96 L2206.83 1005.62 L2206.83 1001.36 L2215.09 999.696 L2219.77 999.696 L2219.77 1030.32 L2227.4 1030.32 L2227.4 1034.26 L2207.5 1034.26 L2207.5 1030.32 Z" fill="#000000" fill-rule="nonzero" fill-opacity="1" /><path clip-path="url(#clip810)" d="M2249.7 1003.77 L2237.89 1022.22 L2249.7 1022.22 L2249.7 1003.77 M2248.47 999.696 L2254.35 999.696 L2254.35 1022.22 L2259.28 1022.22 L2259.28 1026.11 L2254.35 1026.11 L2254.35 1034.26 L2249.7 1034.26 L2249.7 1026.11 L2234.09 1026.11 L2234.09 1021.59 L2248.47 999.696 Z" fill="#000000" fill-rule="nonzero" fill-opacity="1" /><polyline clip-path="url(#clip810)" style="stroke:#dd64b5; stroke-linecap:round; stroke-linejoin:round; stroke-width:4; stroke-opacity:1; fill:none" points="1981,1068.82 2121.21,1068.82 "/>
<path clip-path="url(#clip810)" d="M2151.99 1052.81 L2151.99 1060.17 L2160.76 1060.17 L2160.76 1063.48 L2151.99 1063.48 L2151.99 1077.55 Q2151.99 1080.73 2152.85 1081.63 Q2153.72 1082.53 2156.39 1082.53 L2160.76 1082.53 L2160.76 1086.1 L2156.39 1086.1 Q2151.46 1086.1 2149.58 1084.27 Q2147.71 1082.42 2147.71 1077.55 L2147.71 1063.48 L2144.58 1063.48 L2144.58 1060.17 L2147.71 1060.17 L2147.71 1052.81 L2151.99 1052.81 Z" fill="#000000" fill-rule="nonzero" fill-opacity="1" /><path clip-path="url(#clip810)" d="M2166.92 1064.57 L2196.59 1064.57 L2196.59 1068.46 L2166.92 1068.46 L2166.92 1064.57 M2166.92 1074.01 L2196.59 1074.01 L2196.59 1077.95 L2166.92 1077.95 L2166.92 1074.01 Z" fill="#000000" fill-rule="nonzero" fill-opacity="1" /><path clip-path="url(#clip810)" d="M2207.5 1082.16 L2215.14 1082.16 L2215.14 1055.8 L2206.83 1057.46 L2206.83 1053.2 L2215.09 1051.54 L2219.77 1051.54 L2219.77 1082.16 L2227.4 1082.16 L2227.4 1086.1 L2207.5 1086.1 L2207.5 1082.16 Z" fill="#000000" fill-rule="nonzero" fill-opacity="1" /><path clip-path="url(#clip810)" d="M2236.9 1051.54 L2255.25 1051.54 L2255.25 1055.47 L2241.18 1055.47 L2241.18 1063.94 Q2242.2 1063.6 2243.22 1063.43 Q2244.23 1063.25 2245.25 1063.25 Q2251.04 1063.25 2254.42 1066.42 Q2257.8 1069.59 2257.8 1075.01 Q2257.8 1080.59 2254.33 1083.69 Q2250.85 1086.77 2244.53 1086.77 Q2242.36 1086.77 2240.09 1086.4 Q2237.84 1086.03 2235.44 1085.29 L2235.44 1080.59 Q2237.52 1081.72 2239.74 1082.28 Q2241.97 1082.83 2244.44 1082.83 Q2248.45 1082.83 2250.78 1080.73 Q2253.12 1078.62 2253.12 1075.01 Q2253.12 1071.4 2250.78 1069.29 Q2248.45 1067.18 2244.44 1067.18 Q2242.57 1067.18 2240.69 1067.6 Q2238.84 1068.02 2236.9 1068.9 L2236.9 1051.54 Z" fill="#000000" fill-rule="nonzero" fill-opacity="1" /><polyline clip-path="url(#clip810)" style="stroke:#6b9e32; stroke-linecap:round; stroke-linejoin:round; stroke-width:4; stroke-opacity:1; fill:none" points="1981,1120.66 2121.21,1120.66 "/>
<path clip-path="url(#clip810)" d="M2151.99 1104.65 L2151.99 1112.01 L2160.76 1112.01 L2160.76 1115.32 L2151.99 1115.32 L2151.99 1129.39 Q2151.99 1132.57 2152.85 1133.47 Q2153.72 1134.37 2156.39 1134.37 L2160.76 1134.37 L2160.76 1137.94 L2156.39 1137.94 Q2151.46 1137.94 2149.58 1136.11 Q2147.71 1134.26 2147.71 1129.39 L2147.71 1115.32 L2144.58 1115.32 L2144.58 1112.01 L2147.71 1112.01 L2147.71 1104.65 L2151.99 1104.65 Z" fill="#000000" fill-rule="nonzero" fill-opacity="1" /><path clip-path="url(#clip810)" d="M2166.92 1116.41 L2196.59 1116.41 L2196.59 1120.3 L2166.92 1120.3 L2166.92 1116.41 M2166.92 1125.85 L2196.59 1125.85 L2196.59 1129.79 L2166.92 1129.79 L2166.92 1125.85 Z" fill="#000000" fill-rule="nonzero" fill-opacity="1" /><path clip-path="url(#clip810)" d="M2207.5 1134 L2215.14 1134 L2215.14 1107.64 L2206.83 1109.3 L2206.83 1105.04 L2215.09 1103.38 L2219.77 1103.38 L2219.77 1134 L2227.4 1134 L2227.4 1137.94 L2207.5 1137.94 L2207.5 1134 Z" fill="#000000" fill-rule="nonzero" fill-opacity="1" /><path clip-path="url(#clip810)" d="M2247.43 1118.79 Q2244.28 1118.79 2242.43 1120.95 Q2240.6 1123.1 2240.6 1126.85 Q2240.6 1130.58 2242.43 1132.75 Q2244.28 1134.9 2247.43 1134.9 Q2250.58 1134.9 2252.4 1132.75 Q2254.26 1130.58 2254.26 1126.85 Q2254.26 1123.1 2252.4 1120.95 Q2250.58 1118.79 2247.43 1118.79 M2256.71 1104.14 L2256.71 1108.4 Q2254.95 1107.57 2253.15 1107.13 Q2251.36 1106.69 2249.6 1106.69 Q2244.97 1106.69 2242.52 1109.81 Q2240.09 1112.94 2239.74 1119.26 Q2241.11 1117.24 2243.17 1116.18 Q2245.23 1115.09 2247.71 1115.09 Q2252.91 1115.09 2255.92 1118.26 Q2258.96 1121.41 2258.96 1126.85 Q2258.96 1132.17 2255.81 1135.39 Q2252.66 1138.61 2247.43 1138.61 Q2241.43 1138.61 2238.26 1134.02 Q2235.09 1129.42 2235.09 1120.69 Q2235.09 1112.5 2238.98 1107.64 Q2242.87 1102.75 2249.42 1102.75 Q2251.18 1102.75 2252.96 1103.1 Q2254.77 1103.45 2256.71 1104.14 Z" fill="#000000" fill-rule="nonzero" fill-opacity="1" /><polyline clip-path="url(#clip810)" style="stroke:#009af9; stroke-linecap:round; stroke-linejoin:round; stroke-width:4; stroke-opacity:1; fill:none" points="1981,1172.5 2121.21,1172.5 "/>
<path clip-path="url(#clip810)" d="M2151.99 1156.49 L2151.99 1163.85 L2160.76 1163.85 L2160.76 1167.16 L2151.99 1167.16 L2151.99 1181.23 Q2151.99 1184.41 2152.85 1185.31 Q2153.72 1186.21 2156.39 1186.21 L2160.76 1186.21 L2160.76 1189.78 L2156.39 1189.78 Q2151.46 1189.78 2149.58 1187.95 Q2147.71 1186.1 2147.71 1181.23 L2147.71 1167.16 L2144.58 1167.16 L2144.58 1163.85 L2147.71 1163.85 L2147.71 1156.49 L2151.99 1156.49 Z" fill="#000000" fill-rule="nonzero" fill-opacity="1" /><path clip-path="url(#clip810)" d="M2166.92 1168.25 L2196.59 1168.25 L2196.59 1172.14 L2166.92 1172.14 L2166.92 1168.25 M2166.92 1177.69 L2196.59 1177.69 L2196.59 1181.63 L2166.92 1181.63 L2166.92 1177.69 Z" fill="#000000" fill-rule="nonzero" fill-opacity="1" /><path clip-path="url(#clip810)" d="M2207.5 1185.84 L2215.14 1185.84 L2215.14 1159.48 L2206.83 1161.14 L2206.83 1156.88 L2215.09 1155.22 L2219.77 1155.22 L2219.77 1185.84 L2227.4 1185.84 L2227.4 1189.78 L2207.5 1189.78 L2207.5 1185.84 Z" fill="#000000" fill-rule="nonzero" fill-opacity="1" /><path clip-path="url(#clip810)" d="M2235.67 1155.22 L2257.89 1155.22 L2257.89 1157.21 L2245.34 1189.78 L2240.46 1189.78 L2252.27 1159.15 L2235.67 1159.15 L2235.67 1155.22 Z" fill="#000000" fill-rule="nonzero" fill-opacity="1" /><polyline clip-path="url(#clip810)" style="stroke:#e26f46; stroke-linecap:round; stroke-linejoin:round; stroke-width:4; stroke-opacity:1; fill:none" points="1981,1224.34 2121.21,1224.34 "/>
<path clip-path="url(#clip810)" d="M2151.99 1208.33 L2151.99 1215.69 L2160.76 1215.69 L2160.76 1219 L2151.99 1219 L2151.99 1233.07 Q2151.99 1236.25 2152.85 1237.15 Q2153.72 1238.05 2156.39 1238.05 L2160.76 1238.05 L2160.76 1241.62 L2156.39 1241.62 Q2151.46 1241.62 2149.58 1239.79 Q2147.71 1237.94 2147.71 1233.07 L2147.71 1219 L2144.58 1219 L2144.58 1215.69 L2147.71 1215.69 L2147.71 1208.33 L2151.99 1208.33 Z" fill="#000000" fill-rule="nonzero" fill-opacity="1" /><path clip-path="url(#clip810)" d="M2166.92 1220.09 L2196.59 1220.09 L2196.59 1223.98 L2166.92 1223.98 L2166.92 1220.09 M2166.92 1229.53 L2196.59 1229.53 L2196.59 1233.47 L2166.92 1233.47 L2166.92 1229.53 Z" fill="#000000" fill-rule="nonzero" fill-opacity="1" /><path clip-path="url(#clip810)" d="M2207.5 1237.68 L2215.14 1237.68 L2215.14 1211.32 L2206.83 1212.98 L2206.83 1208.72 L2215.09 1207.06 L2219.77 1207.06 L2219.77 1237.68 L2227.4 1237.68 L2227.4 1241.62 L2207.5 1241.62 L2207.5 1237.68 Z" fill="#000000" fill-rule="nonzero" fill-opacity="1" /><path clip-path="url(#clip810)" d="M2246.85 1225.2 Q2243.52 1225.2 2241.59 1226.99 Q2239.7 1228.77 2239.7 1231.89 Q2239.7 1235.02 2241.59 1236.8 Q2243.52 1238.58 2246.85 1238.58 Q2250.18 1238.58 2252.1 1236.8 Q2254.03 1235 2254.03 1231.89 Q2254.03 1228.77 2252.1 1226.99 Q2250.21 1225.2 2246.85 1225.2 M2242.17 1223.21 Q2239.16 1222.47 2237.47 1220.41 Q2235.81 1218.35 2235.81 1215.39 Q2235.81 1211.25 2238.75 1208.84 Q2241.71 1206.43 2246.85 1206.43 Q2252.01 1206.43 2254.95 1208.84 Q2257.89 1211.25 2257.89 1215.39 Q2257.89 1218.35 2256.2 1220.41 Q2254.53 1222.47 2251.55 1223.21 Q2254.93 1224 2256.8 1226.29 Q2258.7 1228.58 2258.7 1231.89 Q2258.7 1236.92 2255.62 1239.6 Q2252.57 1242.29 2246.85 1242.29 Q2241.13 1242.29 2238.05 1239.6 Q2235 1236.92 2235 1231.89 Q2235 1228.58 2236.9 1226.29 Q2238.79 1224 2242.17 1223.21 M2240.46 1215.83 Q2240.46 1218.51 2242.13 1220.02 Q2243.82 1221.52 2246.85 1221.52 Q2249.86 1221.52 2251.55 1220.02 Q2253.26 1218.51 2253.26 1215.83 Q2253.26 1213.14 2251.55 1211.64 Q2249.86 1210.13 2246.85 1210.13 Q2243.82 1210.13 2242.13 1211.64 Q2240.46 1213.14 2240.46 1215.83 Z" fill="#000000" fill-rule="nonzero" fill-opacity="1" /><polyline clip-path="url(#clip810)" style="stroke:#3da44d; stroke-linecap:round; stroke-linejoin:round; stroke-width:4; stroke-opacity:1; fill:none" points="1981,1276.18 2121.21,1276.18 "/>
<path clip-path="url(#clip810)" d="M2151.99 1260.17 L2151.99 1267.53 L2160.76 1267.53 L2160.76 1270.84 L2151.99 1270.84 L2151.99 1284.91 Q2151.99 1288.09 2152.85 1288.99 Q2153.72 1289.89 2156.39 1289.89 L2160.76 1289.89 L2160.76 1293.46 L2156.39 1293.46 Q2151.46 1293.46 2149.58 1291.63 Q2147.71 1289.78 2147.71 1284.91 L2147.71 1270.84 L2144.58 1270.84 L2144.58 1267.53 L2147.71 1267.53 L2147.71 1260.17 L2151.99 1260.17 Z" fill="#000000" fill-rule="nonzero" fill-opacity="1" /><path clip-path="url(#clip810)" d="M2166.92 1271.93 L2196.59 1271.93 L2196.59 1275.82 L2166.92 1275.82 L2166.92 1271.93 M2166.92 1281.37 L2196.59 1281.37 L2196.59 1285.31 L2166.92 1285.31 L2166.92 1281.37 Z" fill="#000000" fill-rule="nonzero" fill-opacity="1" /><path clip-path="url(#clip810)" d="M2207.5 1289.52 L2215.14 1289.52 L2215.14 1263.16 L2206.83 1264.82 L2206.83 1260.56 L2215.09 1258.9 L2219.77 1258.9 L2219.77 1289.52 L2227.4 1289.52 L2227.4 1293.46 L2207.5 1293.46 L2207.5 1289.52 Z" fill="#000000" fill-rule="nonzero" fill-opacity="1" /><path clip-path="url(#clip810)" d="M2236.99 1292.74 L2236.99 1288.48 Q2238.75 1289.31 2240.55 1289.75 Q2242.36 1290.19 2244.09 1290.19 Q2248.72 1290.19 2251.15 1287.09 Q2253.61 1283.97 2253.96 1277.62 Q2252.61 1279.61 2250.55 1280.68 Q2248.49 1281.74 2245.99 1281.74 Q2240.81 1281.74 2237.78 1278.62 Q2234.77 1275.47 2234.77 1270.03 Q2234.77 1264.71 2237.91 1261.49 Q2241.06 1258.27 2246.29 1258.27 Q2252.29 1258.27 2255.44 1262.88 Q2258.61 1267.46 2258.61 1276.21 Q2258.61 1284.38 2254.72 1289.27 Q2250.85 1294.13 2244.3 1294.13 Q2242.54 1294.13 2240.74 1293.78 Q2238.93 1293.43 2236.99 1292.74 M2246.29 1278.09 Q2249.44 1278.09 2251.27 1275.93 Q2253.12 1273.78 2253.12 1270.03 Q2253.12 1266.3 2251.27 1264.15 Q2249.44 1261.97 2246.29 1261.97 Q2243.15 1261.97 2241.29 1264.15 Q2239.47 1266.3 2239.47 1270.03 Q2239.47 1273.78 2241.29 1275.93 Q2243.15 1278.09 2246.29 1278.09 Z" fill="#000000" fill-rule="nonzero" fill-opacity="1" /><polyline clip-path="url(#clip810)" style="stroke:#c271d2; stroke-linecap:round; stroke-linejoin:round; stroke-width:4; stroke-opacity:1; fill:none" points="1981,1328.02 2121.21,1328.02 "/>
<path clip-path="url(#clip810)" d="M2151.99 1312.01 L2151.99 1319.37 L2160.76 1319.37 L2160.76 1322.68 L2151.99 1322.68 L2151.99 1336.75 Q2151.99 1339.93 2152.85 1340.83 Q2153.72 1341.73 2156.39 1341.73 L2160.76 1341.73 L2160.76 1345.3 L2156.39 1345.3 Q2151.46 1345.3 2149.58 1343.47 Q2147.71 1341.62 2147.71 1336.75 L2147.71 1322.68 L2144.58 1322.68 L2144.58 1319.37 L2147.71 1319.37 L2147.71 1312.01 L2151.99 1312.01 Z" fill="#000000" fill-rule="nonzero" fill-opacity="1" /><path clip-path="url(#clip810)" d="M2166.92 1323.77 L2196.59 1323.77 L2196.59 1327.66 L2166.92 1327.66 L2166.92 1323.77 M2166.92 1333.21 L2196.59 1333.21 L2196.59 1337.15 L2166.92 1337.15 L2166.92 1333.21 Z" fill="#000000" fill-rule="nonzero" fill-opacity="1" /><path clip-path="url(#clip810)" d="M2210.72 1341.36 L2227.03 1341.36 L2227.03 1345.3 L2205.09 1345.3 L2205.09 1341.36 Q2207.75 1338.61 2212.34 1333.98 Q2216.94 1329.32 2218.12 1327.98 Q2220.37 1325.46 2221.25 1323.72 Q2222.15 1321.96 2222.15 1320.27 Q2222.15 1317.52 2220.21 1315.78 Q2218.28 1314.05 2215.18 1314.05 Q2212.98 1314.05 2210.53 1314.81 Q2208.1 1315.57 2205.32 1317.13 L2205.32 1312.4 Q2208.15 1311.27 2210.6 1310.69 Q2213.05 1310.11 2215.09 1310.11 Q2220.46 1310.11 2223.65 1312.8 Q2226.85 1315.48 2226.85 1319.97 Q2226.85 1322.1 2226.04 1324.02 Q2225.25 1325.92 2223.15 1328.51 Q2222.57 1329.19 2219.47 1332.4 Q2216.36 1335.6 2210.72 1341.36 Z" fill="#000000" fill-rule="nonzero" fill-opacity="1" /><path clip-path="url(#clip810)" d="M2246.85 1313.81 Q2243.24 1313.81 2241.41 1317.38 Q2239.6 1320.92 2239.6 1328.05 Q2239.6 1335.16 2241.41 1338.72 Q2243.24 1342.26 2246.85 1342.26 Q2250.48 1342.26 2252.29 1338.72 Q2254.12 1335.16 2254.12 1328.05 Q2254.12 1320.92 2252.29 1317.38 Q2250.48 1313.81 2246.85 1313.81 M2246.85 1310.11 Q2252.66 1310.11 2255.71 1314.72 Q2258.79 1319.3 2258.79 1328.05 Q2258.79 1336.78 2255.71 1341.38 Q2252.66 1345.97 2246.85 1345.97 Q2241.04 1345.97 2237.96 1341.38 Q2234.9 1336.78 2234.9 1328.05 Q2234.9 1319.3 2237.96 1314.72 Q2241.04 1310.11 2246.85 1310.11 Z" fill="#000000" fill-rule="nonzero" fill-opacity="1" /></svg>
