<?xml version="1.0" encoding="utf-8"?>
<svg xmlns="http://www.w3.org/2000/svg" xmlns:xlink="http://www.w3.org/1999/xlink" width="600" height="400" viewBox="0 0 2400 1600">
<defs>
  <clipPath id="clip610">
    <rect x="0" y="0" width="2400" height="1600"/>
  </clipPath>
</defs>
<path clip-path="url(#clip610)" d="M0 1600 L2400 1600 L2400 8.88178e-14 L0 8.88178e-14  Z" fill="#ffffff" fill-rule="evenodd" fill-opacity="1"/>
<defs>
  <clipPath id="clip611">
    <rect x="480" y="0" width="1681" height="1600"/>
  </clipPath>
</defs>
<path clip-path="url(#clip610)" d="M302.458 1423.18 L2352.76 1423.18 L2352.76 123.472 L302.458 123.472  Z" fill="#ffffff" fill-rule="evenodd" fill-opacity="1"/>
<defs>
  <clipPath id="clip612">
    <rect x="302" y="123" width="2051" height="1301"/>
  </clipPath>
</defs>
<polyline clip-path="url(#clip612)" style="stroke:#000000; stroke-linecap:round; stroke-linejoin:round; stroke-width:2; stroke-opacity:0.1; fill:none" points="767.695,1423.18 767.695,123.472 "/>
<polyline clip-path="url(#clip612)" style="stroke:#000000; stroke-linecap:round; stroke-linejoin:round; stroke-width:2; stroke-opacity:0.1; fill:none" points="1276.71,1423.18 1276.71,123.472 "/>
<polyline clip-path="url(#clip612)" style="stroke:#000000; stroke-linecap:round; stroke-linejoin:round; stroke-width:2; stroke-opacity:0.1; fill:none" points="1785.72,1423.18 1785.72,123.472 "/>
<polyline clip-path="url(#clip612)" style="stroke:#000000; stroke-linecap:round; stroke-linejoin:round; stroke-width:2; stroke-opacity:0.1; fill:none" points="2294.73,1423.18 2294.73,123.472 "/>
<polyline clip-path="url(#clip610)" style="stroke:#000000; stroke-linecap:round; stroke-linejoin:round; stroke-width:4; stroke-opacity:1; fill:none" points="302.458,1423.18 2352.76,1423.18 "/>
<polyline clip-path="url(#clip610)" style="stroke:#000000; stroke-linecap:round; stroke-linejoin:round; stroke-width:4; stroke-opacity:1; fill:none" points="767.695,1423.18 767.695,1404.28 "/>
<polyline clip-path="url(#clip610)" style="stroke:#000000; stroke-linecap:round; stroke-linejoin:round; stroke-width:4; stroke-opacity:1; fill:none" points="1276.71,1423.18 1276.71,1404.28 "/>
<polyline clip-path="url(#clip610)" style="stroke:#000000; stroke-linecap:round; stroke-linejoin:round; stroke-width:4; stroke-opacity:1; fill:none" points="1785.72,1423.18 1785.72,1404.28 "/>
<polyline clip-path="url(#clip610)" style="stroke:#000000; stroke-linecap:round; stroke-linejoin:round; stroke-width:4; stroke-opacity:1; fill:none" points="2294.73,1423.18 2294.73,1404.28 "/>
<path clip-path="url(#clip610)" d="M757.973 1451.02 L776.329 1451.02 L776.329 1454.96 L762.255 1454.96 L762.255 1463.43 Q763.273 1463.08 764.292 1462.92 Q765.31 1462.73 766.329 1462.73 Q772.116 1462.73 775.496 1465.9 Q778.875 1469.08 778.875 1474.49 Q778.875 1480.07 775.403 1483.17 Q771.931 1486.25 765.611 1486.25 Q763.436 1486.25 761.167 1485.88 Q758.922 1485.51 756.514 1484.77 L756.514 1480.07 Q758.598 1481.2 760.82 1481.76 Q763.042 1482.32 765.519 1482.32 Q769.523 1482.32 771.861 1480.21 Q774.199 1478.1 774.199 1474.49 Q774.199 1470.88 771.861 1468.77 Q769.523 1466.67 765.519 1466.67 Q763.644 1466.67 761.769 1467.08 Q759.917 1467.5 757.973 1468.38 L757.973 1451.02 Z" fill="#000000" fill-rule="nonzero" fill-opacity="1" /><path clip-path="url(#clip610)" d="M1251.39 1481.64 L1259.03 1481.64 L1259.03 1455.28 L1250.72 1456.95 L1250.72 1452.69 L1258.99 1451.02 L1263.66 1451.02 L1263.66 1481.64 L1271.3 1481.64 L1271.3 1485.58 L1251.39 1485.58 L1251.39 1481.64 Z" fill="#000000" fill-rule="nonzero" fill-opacity="1" /><path clip-path="url(#clip610)" d="M1290.75 1454.1 Q1287.13 1454.1 1285.31 1457.66 Q1283.5 1461.2 1283.5 1468.33 Q1283.5 1475.44 1285.31 1479.01 Q1287.13 1482.55 1290.75 1482.55 Q1294.38 1482.55 1296.19 1479.01 Q1298.01 1475.44 1298.01 1468.33 Q1298.01 1461.2 1296.19 1457.66 Q1294.38 1454.1 1290.75 1454.1 M1290.75 1450.39 Q1296.56 1450.39 1299.61 1455 Q1302.69 1459.58 1302.69 1468.33 Q1302.69 1477.06 1299.61 1481.67 Q1296.56 1486.25 1290.75 1486.25 Q1284.94 1486.25 1281.86 1481.67 Q1278.8 1477.06 1278.8 1468.33 Q1278.8 1459.58 1281.86 1455 Q1284.94 1450.39 1290.75 1450.39 Z" fill="#000000" fill-rule="nonzero" fill-opacity="1" /><path clip-path="url(#clip610)" d="M1760.9 1481.64 L1768.54 1481.64 L1768.54 1455.28 L1760.23 1456.95 L1760.23 1452.69 L1768.5 1451.02 L1773.17 1451.02 L1773.17 1481.64 L1780.81 1481.64 L1780.81 1485.58 L1760.9 1485.58 L1760.9 1481.64 Z" fill="#000000" fill-rule="nonzero" fill-opacity="1" /><path clip-path="url(#clip610)" d="M1790.3 1451.02 L1808.66 1451.02 L1808.66 1454.96 L1794.58 1454.96 L1794.58 1463.43 Q1795.6 1463.08 1796.62 1462.92 Q1797.64 1462.73 1798.66 1462.73 Q1804.44 1462.73 1807.82 1465.9 Q1811.2 1469.08 1811.2 1474.49 Q1811.2 1480.07 1807.73 1483.17 Q1804.26 1486.25 1797.94 1486.25 Q1795.76 1486.25 1793.5 1485.88 Q1791.25 1485.51 1788.84 1484.77 L1788.84 1480.07 Q1790.93 1481.2 1793.15 1481.76 Q1795.37 1482.32 1797.85 1482.32 Q1801.85 1482.32 1804.19 1480.21 Q1806.53 1478.1 1806.53 1474.49 Q1806.53 1470.88 1804.19 1468.77 Q1801.85 1466.67 1797.85 1466.67 Q1795.97 1466.67 1794.1 1467.08 Q1792.25 1467.5 1790.3 1468.38 L1790.3 1451.02 Z" fill="#000000" fill-rule="nonzero" fill-opacity="1" /><path clip-path="url(#clip610)" d="M2273.5 1481.64 L2289.82 1481.64 L2289.82 1485.58 L2267.88 1485.58 L2267.88 1481.64 Q2270.54 1478.89 2275.12 1474.26 Q2279.73 1469.61 2280.91 1468.27 Q2283.15 1465.74 2284.03 1464.01 Q2284.94 1462.25 2284.94 1460.56 Q2284.94 1457.8 2282.99 1456.07 Q2281.07 1454.33 2277.97 1454.33 Q2275.77 1454.33 2273.32 1455.09 Q2270.89 1455.86 2268.11 1457.41 L2268.11 1452.69 Q2270.93 1451.55 2273.39 1450.97 Q2275.84 1450.39 2277.88 1450.39 Q2283.25 1450.39 2286.44 1453.08 Q2289.64 1455.77 2289.64 1460.26 Q2289.64 1462.39 2288.83 1464.31 Q2288.04 1466.2 2285.93 1468.8 Q2285.35 1469.47 2282.25 1472.69 Q2279.15 1475.88 2273.5 1481.64 Z" fill="#000000" fill-rule="nonzero" fill-opacity="1" /><path clip-path="url(#clip610)" d="M2309.64 1454.1 Q2306.02 1454.1 2304.2 1457.66 Q2302.39 1461.2 2302.39 1468.33 Q2302.39 1475.44 2304.2 1479.01 Q2306.02 1482.55 2309.64 1482.55 Q2313.27 1482.55 2315.08 1479.01 Q2316.9 1475.44 2316.9 1468.33 Q2316.9 1461.2 2315.08 1457.66 Q2313.27 1454.1 2309.64 1454.1 M2309.64 1450.39 Q2315.45 1450.39 2318.5 1455 Q2321.58 1459.58 2321.58 1468.33 Q2321.58 1477.06 2318.5 1481.67 Q2315.45 1486.25 2309.64 1486.25 Q2303.83 1486.25 2300.75 1481.67 Q2297.69 1477.06 2297.69 1468.33 Q2297.69 1459.58 2300.75 1455 Q2303.83 1450.39 2309.64 1450.39 Z" fill="#000000" fill-rule="nonzero" fill-opacity="1" /><path clip-path="url(#clip610)" d="M1233.78 1520.52 L1263.82 1520.52 L1263.82 1525.93 L1240.21 1525.93 L1240.21 1540 L1262.84 1540 L1262.84 1545.41 L1240.21 1545.41 L1240.21 1562.63 L1264.4 1562.63 L1264.4 1568.04 L1233.78 1568.04 L1233.78 1520.52 Z" fill="#000000" fill-rule="nonzero" fill-opacity="1" /><path clip-path="url(#clip610)" d="M1280.37 1562.7 L1280.37 1581.6 L1274.49 1581.6 L1274.49 1532.4 L1280.37 1532.4 L1280.37 1537.81 Q1282.22 1534.62 1285.02 1533.1 Q1287.85 1531.54 1291.77 1531.54 Q1298.26 1531.54 1302.3 1536.69 Q1306.38 1541.85 1306.38 1550.25 Q1306.38 1558.65 1302.3 1563.81 Q1298.26 1568.97 1291.77 1568.97 Q1287.85 1568.97 1285.02 1567.44 Q1282.22 1565.88 1280.37 1562.7 M1300.3 1550.25 Q1300.3 1543.79 1297.62 1540.13 Q1294.98 1536.44 1290.34 1536.44 Q1285.69 1536.44 1283.02 1540.13 Q1280.37 1543.79 1280.37 1550.25 Q1280.37 1556.71 1283.02 1560.4 Q1285.69 1564.07 1290.34 1564.07 Q1294.98 1564.07 1297.62 1560.4 Q1300.3 1556.71 1300.3 1550.25 Z" fill="#000000" fill-rule="nonzero" fill-opacity="1" /><path clip-path="url(#clip610)" d="M1329.9 1536.5 Q1325.19 1536.5 1322.45 1540.19 Q1319.71 1543.85 1319.71 1550.25 Q1319.71 1556.65 1322.42 1560.34 Q1325.16 1564 1329.9 1564 Q1334.58 1564 1337.31 1560.31 Q1340.05 1556.62 1340.05 1550.25 Q1340.05 1543.92 1337.31 1540.23 Q1334.58 1536.5 1329.9 1536.5 M1329.9 1531.54 Q1337.54 1531.54 1341.9 1536.5 Q1346.26 1541.47 1346.26 1550.25 Q1346.26 1559 1341.9 1564 Q1337.54 1568.97 1329.9 1568.97 Q1322.23 1568.97 1317.87 1564 Q1313.54 1559 1313.54 1550.25 Q1313.54 1541.47 1317.87 1536.5 Q1322.23 1531.54 1329.9 1531.54 Z" fill="#000000" fill-rule="nonzero" fill-opacity="1" /><path clip-path="url(#clip610)" d="M1381.62 1533.76 L1381.62 1539.24 Q1379.14 1537.87 1376.62 1537.2 Q1374.14 1536.5 1371.59 1536.5 Q1365.9 1536.5 1362.75 1540.13 Q1359.59 1543.73 1359.59 1550.25 Q1359.59 1556.78 1362.75 1560.4 Q1365.9 1564 1371.59 1564 Q1374.14 1564 1376.62 1563.33 Q1379.14 1562.63 1381.62 1561.26 L1381.62 1566.68 Q1379.17 1567.82 1376.53 1568.39 Q1373.92 1568.97 1370.96 1568.97 Q1362.91 1568.97 1358.16 1563.91 Q1353.42 1558.85 1353.42 1550.25 Q1353.42 1541.53 1358.19 1536.53 Q1363 1531.54 1371.34 1531.54 Q1374.04 1531.54 1376.62 1532.11 Q1379.2 1532.65 1381.62 1533.76 Z" fill="#000000" fill-rule="nonzero" fill-opacity="1" /><path clip-path="url(#clip610)" d="M1421.44 1546.53 L1421.44 1568.04 L1415.58 1568.04 L1415.58 1546.72 Q1415.58 1541.66 1413.61 1539.14 Q1411.63 1536.63 1407.69 1536.63 Q1402.95 1536.63 1400.21 1539.65 Q1397.47 1542.68 1397.47 1547.9 L1397.47 1568.04 L1391.58 1568.04 L1391.58 1518.52 L1397.47 1518.52 L1397.47 1537.93 Q1399.57 1534.72 1402.4 1533.13 Q1405.27 1531.54 1408.99 1531.54 Q1415.14 1531.54 1418.29 1535.36 Q1421.44 1539.14 1421.44 1546.53 Z" fill="#000000" fill-rule="nonzero" fill-opacity="1" /><polyline clip-path="url(#clip612)" style="stroke:#000000; stroke-linecap:round; stroke-linejoin:round; stroke-width:2; stroke-opacity:0.1; fill:none" points="302.458,1235.61 2352.76,1235.61 "/>
<polyline clip-path="url(#clip612)" style="stroke:#000000; stroke-linecap:round; stroke-linejoin:round; stroke-width:2; stroke-opacity:0.1; fill:none" points="302.458,942.517 2352.76,942.517 "/>
<polyline clip-path="url(#clip612)" style="stroke:#000000; stroke-linecap:round; stroke-linejoin:round; stroke-width:2; stroke-opacity:0.1; fill:none" points="302.458,649.423 2352.76,649.423 "/>
<polyline clip-path="url(#clip612)" style="stroke:#000000; stroke-linecap:round; stroke-linejoin:round; stroke-width:2; stroke-opacity:0.1; fill:none" points="302.458,356.329 2352.76,356.329 "/>
<polyline clip-path="url(#clip610)" style="stroke:#000000; stroke-linecap:round; stroke-linejoin:round; stroke-width:4; stroke-opacity:1; fill:none" points="302.458,1423.18 302.458,123.472 "/>
<polyline clip-path="url(#clip610)" style="stroke:#000000; stroke-linecap:round; stroke-linejoin:round; stroke-width:4; stroke-opacity:1; fill:none" points="302.458,1235.61 321.356,1235.61 "/>
<polyline clip-path="url(#clip610)" style="stroke:#000000; stroke-linecap:round; stroke-linejoin:round; stroke-width:4; stroke-opacity:1; fill:none" points="302.458,942.517 321.356,942.517 "/>
<polyline clip-path="url(#clip610)" style="stroke:#000000; stroke-linecap:round; stroke-linejoin:round; stroke-width:4; stroke-opacity:1; fill:none" points="302.458,649.423 321.356,649.423 "/>
<polyline clip-path="url(#clip610)" style="stroke:#000000; stroke-linecap:round; stroke-linejoin:round; stroke-width:4; stroke-opacity:1; fill:none" points="302.458,356.329 321.356,356.329 "/>
<path clip-path="url(#clip610)" d="M114.26 1236.06 L143.936 1236.06 L143.936 1240 L114.26 1240 L114.26 1236.06 Z" fill="#000000" fill-rule="nonzero" fill-opacity="1" /><path clip-path="url(#clip610)" d="M166.876 1222.4 L155.07 1240.85 L166.876 1240.85 L166.876 1222.4 M165.649 1218.33 L171.528 1218.33 L171.528 1240.85 L176.459 1240.85 L176.459 1244.74 L171.528 1244.74 L171.528 1252.89 L166.876 1252.89 L166.876 1244.74 L151.274 1244.74 L151.274 1240.23 L165.649 1218.33 Z" fill="#000000" fill-rule="nonzero" fill-opacity="1" /><path clip-path="url(#clip610)" d="M194.19 1221.41 Q190.579 1221.41 188.75 1224.97 Q186.945 1228.52 186.945 1235.65 Q186.945 1242.75 188.75 1246.32 Q190.579 1249.86 194.19 1249.86 Q197.825 1249.86 199.63 1246.32 Q201.459 1242.75 201.459 1235.65 Q201.459 1228.52 199.63 1224.97 Q197.825 1221.41 194.19 1221.41 M194.19 1217.71 Q200 1217.71 203.056 1222.31 Q206.135 1226.9 206.135 1235.65 Q206.135 1244.37 203.056 1248.98 Q200 1253.56 194.19 1253.56 Q188.38 1253.56 185.301 1248.98 Q182.246 1244.37 182.246 1235.65 Q182.246 1226.9 185.301 1222.31 Q188.38 1217.71 194.19 1217.71 Z" fill="#000000" fill-rule="nonzero" fill-opacity="1" /><path clip-path="url(#clip610)" d="M224.352 1221.41 Q220.741 1221.41 218.912 1224.97 Q217.107 1228.52 217.107 1235.65 Q217.107 1242.75 218.912 1246.32 Q220.741 1249.86 224.352 1249.86 Q227.986 1249.86 229.792 1246.32 Q231.621 1242.75 231.621 1235.65 Q231.621 1228.52 229.792 1224.97 Q227.986 1221.41 224.352 1221.41 M224.352 1217.71 Q230.162 1217.71 233.218 1222.31 Q236.297 1226.9 236.297 1235.65 Q236.297 1244.37 233.218 1248.98 Q230.162 1253.56 224.352 1253.56 Q218.542 1253.56 215.463 1248.98 Q212.408 1244.37 212.408 1235.65 Q212.408 1226.9 215.463 1222.31 Q218.542 1217.71 224.352 1217.71 Z" fill="#000000" fill-rule="nonzero" fill-opacity="1" /><path clip-path="url(#clip610)" d="M254.514 1221.41 Q250.903 1221.41 249.074 1224.97 Q247.269 1228.52 247.269 1235.65 Q247.269 1242.75 249.074 1246.32 Q250.903 1249.86 254.514 1249.86 Q258.148 1249.86 259.954 1246.32 Q261.783 1242.75 261.783 1235.65 Q261.783 1228.52 259.954 1224.97 Q258.148 1221.41 254.514 1221.41 M254.514 1217.71 Q260.324 1217.71 263.38 1222.31 Q266.458 1226.9 266.458 1235.65 Q266.458 1244.37 263.38 1248.98 Q260.324 1253.56 254.514 1253.56 Q248.704 1253.56 245.625 1248.98 Q242.57 1244.37 242.57 1235.65 Q242.57 1226.9 245.625 1222.31 Q248.704 1217.71 254.514 1217.71 Z" fill="#000000" fill-rule="nonzero" fill-opacity="1" /><path clip-path="url(#clip610)" d="M114.26 942.968 L143.936 942.968 L143.936 946.903 L114.26 946.903 L114.26 942.968 Z" fill="#000000" fill-rule="nonzero" fill-opacity="1" /><path clip-path="url(#clip610)" d="M158.056 955.861 L174.376 955.861 L174.376 959.797 L152.431 959.797 L152.431 955.861 Q155.093 953.107 159.677 948.477 Q164.283 943.824 165.464 942.482 Q167.709 939.959 168.589 938.223 Q169.491 936.463 169.491 934.774 Q169.491 932.019 167.547 930.283 Q165.626 928.547 162.524 928.547 Q160.325 928.547 157.871 929.311 Q155.44 930.075 152.663 931.625 L152.663 926.903 Q155.487 925.769 157.94 925.19 Q160.394 924.612 162.431 924.612 Q167.802 924.612 170.996 927.297 Q174.19 929.982 174.19 934.473 Q174.19 936.602 173.38 938.524 Q172.593 940.422 170.487 943.014 Q169.908 943.686 166.806 946.903 Q163.704 950.098 158.056 955.861 Z" fill="#000000" fill-rule="nonzero" fill-opacity="1" /><path clip-path="url(#clip610)" d="M194.19 928.315 Q190.579 928.315 188.75 931.88 Q186.945 935.422 186.945 942.551 Q186.945 949.658 188.75 953.223 Q190.579 956.764 194.19 956.764 Q197.825 956.764 199.63 953.223 Q201.459 949.658 201.459 942.551 Q201.459 935.422 199.63 931.88 Q197.825 928.315 194.19 928.315 M194.19 924.612 Q200 924.612 203.056 929.218 Q206.135 933.801 206.135 942.551 Q206.135 951.278 203.056 955.885 Q200 960.468 194.19 960.468 Q188.38 960.468 185.301 955.885 Q182.246 951.278 182.246 942.551 Q182.246 933.801 185.301 929.218 Q188.38 924.612 194.19 924.612 Z" fill="#000000" fill-rule="nonzero" fill-opacity="1" /><path clip-path="url(#clip610)" d="M224.352 928.315 Q220.741 928.315 218.912 931.88 Q217.107 935.422 217.107 942.551 Q217.107 949.658 218.912 953.223 Q220.741 956.764 224.352 956.764 Q227.986 956.764 229.792 953.223 Q231.621 949.658 231.621 942.551 Q231.621 935.422 229.792 931.88 Q227.986 928.315 224.352 928.315 M224.352 924.612 Q230.162 924.612 233.218 929.218 Q236.297 933.801 236.297 942.551 Q236.297 951.278 233.218 955.885 Q230.162 960.468 224.352 960.468 Q218.542 960.468 215.463 955.885 Q212.408 951.278 212.408 942.551 Q212.408 933.801 215.463 929.218 Q218.542 924.612 224.352 924.612 Z" fill="#000000" fill-rule="nonzero" fill-opacity="1" /><path clip-path="url(#clip610)" d="M254.514 928.315 Q250.903 928.315 249.074 931.88 Q247.269 935.422 247.269 942.551 Q247.269 949.658 249.074 953.223 Q250.903 956.764 254.514 956.764 Q258.148 956.764 259.954 953.223 Q261.783 949.658 261.783 942.551 Q261.783 935.422 259.954 931.88 Q258.148 928.315 254.514 928.315 M254.514 924.612 Q260.324 924.612 263.38 929.218 Q266.458 933.801 266.458 942.551 Q266.458 951.278 263.38 955.885 Q260.324 960.468 254.514 960.468 Q248.704 960.468 245.625 955.885 Q242.57 951.278 242.57 942.551 Q242.57 933.801 245.625 929.218 Q248.704 924.612 254.514 924.612 Z" fill="#000000" fill-rule="nonzero" fill-opacity="1" /><path clip-path="url(#clip610)" d="M254.514 635.221 Q250.903 635.221 249.074 638.786 Q247.269 642.328 247.269 649.457 Q247.269 656.564 249.074 660.129 Q250.903 663.67 254.514 663.67 Q258.148 663.67 259.954 660.129 Q261.783 656.564 261.783 649.457 Q261.783 642.328 259.954 638.786 Q258.148 635.221 254.514 635.221 M254.514 631.518 Q260.324 631.518 263.38 636.124 Q266.458 640.708 266.458 649.457 Q266.458 658.184 263.38 662.791 Q260.324 667.374 254.514 667.374 Q248.704 667.374 245.625 662.791 Q242.57 658.184 242.57 649.457 Q242.57 640.708 245.625 636.124 Q248.704 631.518 254.514 631.518 Z" fill="#000000" fill-rule="nonzero" fill-opacity="1" /><path clip-path="url(#clip610)" d="M158.056 369.674 L174.376 369.674 L174.376 373.609 L152.431 373.609 L152.431 369.674 Q155.093 366.919 159.677 362.289 Q164.283 357.637 165.464 356.294 Q167.709 353.771 168.589 352.035 Q169.491 350.276 169.491 348.586 Q169.491 345.831 167.547 344.095 Q165.626 342.359 162.524 342.359 Q160.325 342.359 157.871 343.123 Q155.44 343.887 152.663 345.438 L152.663 340.716 Q155.487 339.581 157.94 339.003 Q160.394 338.424 162.431 338.424 Q167.802 338.424 170.996 341.109 Q174.19 343.794 174.19 348.285 Q174.19 350.415 173.38 352.336 Q172.593 354.234 170.487 356.827 Q169.908 357.498 166.806 360.715 Q163.704 363.91 158.056 369.674 Z" fill="#000000" fill-rule="nonzero" fill-opacity="1" /><path clip-path="url(#clip610)" d="M194.19 342.128 Q190.579 342.128 188.75 345.692 Q186.945 349.234 186.945 356.364 Q186.945 363.47 188.75 367.035 Q190.579 370.576 194.19 370.576 Q197.825 370.576 199.63 367.035 Q201.459 363.47 201.459 356.364 Q201.459 349.234 199.63 345.692 Q197.825 342.128 194.19 342.128 M194.19 338.424 Q200 338.424 203.056 343.03 Q206.135 347.614 206.135 356.364 Q206.135 365.09 203.056 369.697 Q200 374.28 194.19 374.28 Q188.38 374.28 185.301 369.697 Q182.246 365.09 182.246 356.364 Q182.246 347.614 185.301 343.03 Q188.38 338.424 194.19 338.424 Z" fill="#000000" fill-rule="nonzero" fill-opacity="1" /><path clip-path="url(#clip610)" d="M224.352 342.128 Q220.741 342.128 218.912 345.692 Q217.107 349.234 217.107 356.364 Q217.107 363.47 218.912 367.035 Q220.741 370.576 224.352 370.576 Q227.986 370.576 229.792 367.035 Q231.621 363.47 231.621 356.364 Q231.621 349.234 229.792 345.692 Q227.986 342.128 224.352 342.128 M224.352 338.424 Q230.162 338.424 233.218 343.03 Q236.297 347.614 236.297 356.364 Q236.297 365.09 233.218 369.697 Q230.162 374.28 224.352 374.28 Q218.542 374.28 215.463 369.697 Q212.408 365.09 212.408 356.364 Q212.408 347.614 215.463 343.03 Q218.542 338.424 224.352 338.424 Z" fill="#000000" fill-rule="nonzero" fill-opacity="1" /><path clip-path="url(#clip610)" d="M254.514 342.128 Q250.903 342.128 249.074 345.692 Q247.269 349.234 247.269 356.364 Q247.269 363.47 249.074 367.035 Q250.903 370.576 254.514 370.576 Q258.148 370.576 259.954 367.035 Q261.783 363.47 261.783 356.364 Q261.783 349.234 259.954 345.692 Q258.148 342.128 254.514 342.128 M254.514 338.424 Q260.324 338.424 263.38 343.03 Q266.458 347.614 266.458 356.364 Q266.458 365.09 263.38 369.697 Q260.324 374.28 254.514 374.28 Q248.704 374.28 245.625 369.697 Q242.57 365.09 242.57 356.364 Q242.57 347.614 245.625 343.03 Q248.704 338.424 254.514 338.424 Z" fill="#000000" fill-rule="nonzero" fill-opacity="1" /><path clip-path="url(#clip610)" d="M16.4842 840.023 L16.4842 833.593 L58.5933 833.593 L58.5933 810.454 L64.0042 810.454 L64.0042 840.023 L16.4842 840.023 Z" fill="#000000" fill-rule="nonzero" fill-opacity="1" /><path clip-path="url(#clip610)" d="M32.4621 791.293 Q32.4621 796.004 36.1542 798.741 Q39.8145 801.478 46.212 801.478 Q52.6095 801.478 56.3017 798.773 Q59.9619 796.036 59.9619 791.293 Q59.9619 786.614 56.2698 783.877 Q52.5777 781.14 46.212 781.14 Q39.8781 781.14 36.186 783.877 Q32.4621 786.614 32.4621 791.293 M27.4968 791.293 Q27.4968 783.654 32.4621 779.294 Q37.4273 774.933 46.212 774.933 Q54.9649 774.933 59.9619 779.294 Q64.9272 783.654 64.9272 791.293 Q64.9272 798.964 59.9619 803.324 Q54.9649 807.653 46.212 807.653 Q37.4273 807.653 32.4621 803.324 Q27.4968 798.964 27.4968 791.293 Z" fill="#000000" fill-rule="nonzero" fill-opacity="1" /><path clip-path="url(#clip610)" d="M29.4065 742.5 L34.9447 742.5 Q33.6716 744.983 33.035 747.656 Q32.3984 750.33 32.3984 753.194 Q32.3984 757.555 33.7352 759.751 Q35.072 761.915 37.7456 761.915 Q39.7826 761.915 40.9603 760.356 Q42.1061 758.796 43.1565 754.086 L43.6021 752.08 Q44.9389 745.842 47.3897 743.232 Q49.8086 740.59 54.1691 740.59 Q59.1344 740.59 62.0308 744.537 Q64.9272 748.452 64.9272 755.327 Q64.9272 758.192 64.3543 761.311 Q63.8132 764.398 62.6992 767.836 L56.6518 767.836 Q58.3387 764.589 59.198 761.438 Q60.0256 758.287 60.0256 755.2 Q60.0256 751.062 58.6251 748.834 Q57.1929 746.606 54.6147 746.606 Q52.2276 746.606 50.9545 748.229 Q49.6813 749.821 48.5037 755.263 L48.0262 757.3 Q46.8804 762.743 44.5251 765.162 Q42.138 767.581 38.0002 767.581 Q32.9713 767.581 30.2341 764.016 Q27.4968 760.451 27.4968 753.895 Q27.4968 750.648 27.9743 747.784 Q28.4517 744.919 29.4065 742.5 Z" fill="#000000" fill-rule="nonzero" fill-opacity="1" /><path clip-path="url(#clip610)" d="M29.4065 708.539 L34.9447 708.539 Q33.6716 711.022 33.035 713.695 Q32.3984 716.369 32.3984 719.233 Q32.3984 723.594 33.7352 725.79 Q35.072 727.954 37.7456 727.954 Q39.7826 727.954 40.9603 726.395 Q42.1061 724.835 43.1565 720.125 L43.6021 718.119 Q44.9389 711.881 47.3897 709.271 Q49.8086 706.629 54.1691 706.629 Q59.1344 706.629 62.0308 710.576 Q64.9272 714.491 64.9272 721.366 Q64.9272 724.23 64.3543 727.35 Q63.8132 730.437 62.6992 733.875 L56.6518 733.875 Q58.3387 730.628 59.198 727.477 Q60.0256 724.326 60.0256 721.239 Q60.0256 717.101 58.6251 714.873 Q57.1929 712.645 54.6147 712.645 Q52.2276 712.645 50.9545 714.268 Q49.6813 715.86 48.5037 721.302 L48.0262 723.339 Q46.8804 728.782 44.5251 731.201 Q42.138 733.62 38.0002 733.62 Q32.9713 733.62 30.2341 730.055 Q27.4968 726.49 27.4968 719.934 Q27.4968 716.687 27.9743 713.823 Q28.4517 710.958 29.4065 708.539 Z" fill="#000000" fill-rule="nonzero" fill-opacity="1" /><path clip-path="url(#clip610)" d="M797.526 12.096 L809.719 12.096 L825.153 53.2532 L840.668 12.096 L852.861 12.096 L852.861 72.576 L844.881 72.576 L844.881 19.4686 L829.285 60.9499 L821.062 60.9499 L805.466 19.4686 L805.466 72.576 L797.526 72.576 L797.526 12.096 Z" fill="#000000" fill-rule="nonzero" fill-opacity="1" /><path clip-path="url(#clip610)" d="M907.589 48.0275 L907.589 51.6733 L873.319 51.6733 Q873.805 59.3701 877.937 63.421 Q882.109 67.4314 889.522 67.4314 Q893.816 67.4314 897.826 66.3781 Q901.877 65.3249 905.847 63.2184 L905.847 70.267 Q901.837 71.9684 897.624 72.8596 Q893.411 73.7508 889.077 73.7508 Q878.22 73.7508 871.86 67.4314 Q865.541 61.1119 865.541 50.3365 Q865.541 39.1965 871.536 32.6746 Q877.572 26.1121 887.78 26.1121 Q896.935 26.1121 902.242 32.0264 Q907.589 37.9003 907.589 48.0275 M900.135 45.84 Q900.054 39.7232 896.692 36.0774 Q893.37 32.4315 887.861 32.4315 Q881.623 32.4315 877.856 35.9558 Q874.129 39.4801 873.562 45.8805 L900.135 45.84 Z" fill="#000000" fill-rule="nonzero" fill-opacity="1" /><path clip-path="url(#clip610)" d="M940.442 49.7694 Q931.408 49.7694 927.925 51.8354 Q924.441 53.9013 924.441 58.8839 Q924.441 62.8538 927.033 65.2034 Q929.667 67.5124 934.163 67.5124 Q940.361 67.5124 944.088 63.1374 Q947.855 58.7219 947.855 51.4303 L947.855 49.7694 L940.442 49.7694 M955.309 46.6907 L955.309 72.576 L947.855 72.576 L947.855 65.6895 Q945.303 69.8214 941.495 71.8063 Q937.687 73.7508 932.178 73.7508 Q925.211 73.7508 921.079 69.8619 Q916.987 65.9325 916.987 59.3701 Q916.987 51.7138 922.091 47.825 Q927.236 43.9361 937.404 43.9361 L947.855 43.9361 L947.855 43.2069 Q947.855 38.0623 944.452 35.2672 Q941.09 32.4315 934.973 32.4315 Q931.084 32.4315 927.398 33.3632 Q923.712 34.295 920.309 36.1584 L920.309 29.2718 Q924.4 27.692 928.249 26.9223 Q932.097 26.1121 935.743 26.1121 Q945.587 26.1121 950.448 31.2163 Q955.309 36.3204 955.309 46.6907 Z" fill="#000000" fill-rule="nonzero" fill-opacity="1" /><path clip-path="url(#clip610)" d="M1008.38 45.1919 L1008.38 72.576 L1000.92 72.576 L1000.92 45.4349 Q1000.92 38.994 998.41 35.7938 Q995.899 32.5936 990.876 32.5936 Q984.84 32.5936 981.356 36.4419 Q977.872 40.2903 977.872 46.9338 L977.872 72.576 L970.378 72.576 L970.378 27.2059 L977.872 27.2059 L977.872 34.2544 Q980.546 30.163 984.151 28.1376 Q987.797 26.1121 992.537 26.1121 Q1000.35 26.1121 1004.37 30.9732 Q1008.38 35.7938 1008.38 45.1919 Z" fill="#000000" fill-rule="nonzero" fill-opacity="1" /><path clip-path="url(#clip610)" d="M1056.99 14.324 L1056.99 27.2059 L1072.34 27.2059 L1072.34 32.9987 L1056.99 32.9987 L1056.99 57.6282 Q1056.99 63.1779 1058.49 64.7578 Q1060.02 66.3376 1064.68 66.3376 L1072.34 66.3376 L1072.34 72.576 L1064.68 72.576 Q1056.05 72.576 1052.77 69.3758 Q1049.49 66.1351 1049.49 57.6282 L1049.49 32.9987 L1044.02 32.9987 L1044.02 27.2059 L1049.49 27.2059 L1049.49 14.324 L1056.99 14.324 Z" fill="#000000" fill-rule="nonzero" fill-opacity="1" /><path clip-path="url(#clip610)" d="M1108.43 34.1734 Q1107.18 33.4443 1105.68 33.1202 Q1104.22 32.7556 1102.44 32.7556 Q1096.12 32.7556 1092.72 36.8875 Q1089.35 40.9789 1089.35 48.6757 L1089.35 72.576 L1081.86 72.576 L1081.86 27.2059 L1089.35 27.2059 L1089.35 34.2544 Q1091.7 30.1225 1095.47 28.1376 Q1099.24 26.1121 1104.63 26.1121 Q1105.39 26.1121 1106.33 26.2337 Q1107.26 26.3147 1108.39 26.5172 L1108.43 34.1734 Z" fill="#000000" fill-rule="nonzero" fill-opacity="1" /><path clip-path="url(#clip610)" d="M1136.87 49.7694 Q1127.84 49.7694 1124.35 51.8354 Q1120.87 53.9013 1120.87 58.8839 Q1120.87 62.8538 1123.46 65.2034 Q1126.09 67.5124 1130.59 67.5124 Q1136.79 67.5124 1140.52 63.1374 Q1144.28 58.7219 1144.28 51.4303 L1144.28 49.7694 L1136.87 49.7694 M1151.74 46.6907 L1151.74 72.576 L1144.28 72.576 L1144.28 65.6895 Q1141.73 69.8214 1137.92 71.8063 Q1134.12 73.7508 1128.61 73.7508 Q1121.64 73.7508 1117.51 69.8619 Q1113.42 65.9325 1113.42 59.3701 Q1113.42 51.7138 1118.52 47.825 Q1123.66 43.9361 1133.83 43.9361 L1144.28 43.9361 L1144.28 43.2069 Q1144.28 38.0623 1140.88 35.2672 Q1137.52 32.4315 1131.4 32.4315 Q1127.51 32.4315 1123.83 33.3632 Q1120.14 34.295 1116.74 36.1584 L1116.74 29.2718 Q1120.83 27.692 1124.68 26.9223 Q1128.53 26.1121 1132.17 26.1121 Q1142.01 26.1121 1146.88 31.2163 Q1151.74 36.3204 1151.74 46.6907 Z" fill="#000000" fill-rule="nonzero" fill-opacity="1" /><path clip-path="url(#clip610)" d="M1167.09 27.2059 L1174.54 27.2059 L1174.54 72.576 L1167.09 72.576 L1167.09 27.2059 M1167.09 9.54393 L1174.54 9.54393 L1174.54 18.9825 L1167.09 18.9825 L1167.09 9.54393 Z" fill="#000000" fill-rule="nonzero" fill-opacity="1" /><path clip-path="url(#clip610)" d="M1227.85 45.1919 L1227.85 72.576 L1220.4 72.576 L1220.4 45.4349 Q1220.4 38.994 1217.89 35.7938 Q1215.38 32.5936 1210.35 32.5936 Q1204.32 32.5936 1200.83 36.4419 Q1197.35 40.2903 1197.35 46.9338 L1197.35 72.576 L1189.86 72.576 L1189.86 27.2059 L1197.35 27.2059 L1197.35 34.2544 Q1200.02 30.163 1203.63 28.1376 Q1207.28 26.1121 1212.01 26.1121 Q1219.83 26.1121 1223.84 30.9732 Q1227.85 35.7938 1227.85 45.1919 Z" fill="#000000" fill-rule="nonzero" fill-opacity="1" /><path clip-path="url(#clip610)" d="M1269.09 9.54393 L1276.55 9.54393 L1276.55 72.576 L1269.09 72.576 L1269.09 9.54393 Z" fill="#000000" fill-rule="nonzero" fill-opacity="1" /><path clip-path="url(#clip610)" d="M1309.72 32.4315 Q1303.73 32.4315 1300.24 37.1306 Q1296.76 41.7891 1296.76 49.9314 Q1296.76 58.0738 1300.2 62.7728 Q1303.69 67.4314 1309.72 67.4314 Q1315.68 67.4314 1319.16 62.7323 Q1322.64 58.0333 1322.64 49.9314 Q1322.64 41.8701 1319.16 37.1711 Q1315.68 32.4315 1309.72 32.4315 M1309.72 26.1121 Q1319.44 26.1121 1324.99 32.4315 Q1330.54 38.7509 1330.54 49.9314 Q1330.54 61.0714 1324.99 67.4314 Q1319.44 73.7508 1309.72 73.7508 Q1299.96 73.7508 1294.41 67.4314 Q1288.9 61.0714 1288.9 49.9314 Q1288.9 38.7509 1294.41 32.4315 Q1299.96 26.1121 1309.72 26.1121 Z" fill="#000000" fill-rule="nonzero" fill-opacity="1" /><path clip-path="url(#clip610)" d="M1371.82 28.5427 L1371.82 35.5912 Q1368.66 33.9709 1365.26 33.1607 Q1361.86 32.3505 1358.21 32.3505 Q1352.66 32.3505 1349.87 34.0519 Q1347.11 35.7533 1347.11 39.156 Q1347.11 41.7486 1349.1 43.2475 Q1351.08 44.7058 1357.08 46.0426 L1359.63 46.6097 Q1367.57 48.3111 1370.89 51.4303 Q1374.25 54.509 1374.25 60.0587 Q1374.25 66.3781 1369.23 70.0644 Q1364.25 73.7508 1355.5 73.7508 Q1351.85 73.7508 1347.88 73.0216 Q1343.95 72.3329 1339.58 70.9151 L1339.58 63.2184 Q1343.71 65.3654 1347.72 66.4591 Q1351.73 67.5124 1355.66 67.5124 Q1360.93 67.5124 1363.76 65.73 Q1366.6 63.9071 1366.6 60.6258 Q1366.6 57.5877 1364.53 55.9673 Q1362.51 54.3469 1355.58 52.8481 L1352.99 52.2405 Q1346.06 50.7821 1342.98 47.7845 Q1339.9 44.7463 1339.9 39.4801 Q1339.9 33.0797 1344.44 29.5959 Q1348.98 26.1121 1357.32 26.1121 Q1361.45 26.1121 1365.1 26.7198 Q1368.74 27.3274 1371.82 28.5427 Z" fill="#000000" fill-rule="nonzero" fill-opacity="1" /><path clip-path="url(#clip610)" d="M1415.05 28.5427 L1415.05 35.5912 Q1411.89 33.9709 1408.48 33.1607 Q1405.08 32.3505 1401.43 32.3505 Q1395.89 32.3505 1393.09 34.0519 Q1390.34 35.7533 1390.34 39.156 Q1390.34 41.7486 1392.32 43.2475 Q1394.31 44.7058 1400.3 46.0426 L1402.85 46.6097 Q1410.79 48.3111 1414.11 51.4303 Q1417.48 54.509 1417.48 60.0587 Q1417.48 66.3781 1412.45 70.0644 Q1407.47 73.7508 1398.72 73.7508 Q1395.07 73.7508 1391.11 73.0216 Q1387.18 72.3329 1382.8 70.9151 L1382.8 63.2184 Q1386.93 65.3654 1390.94 66.4591 Q1394.95 67.5124 1398.88 67.5124 Q1404.15 67.5124 1406.98 65.73 Q1409.82 63.9071 1409.82 60.6258 Q1409.82 57.5877 1407.75 55.9673 Q1405.73 54.3469 1398.8 52.8481 L1396.21 52.2405 Q1389.28 50.7821 1386.2 47.7845 Q1383.12 44.7463 1383.12 39.4801 Q1383.12 33.0797 1387.66 29.5959 Q1392.2 26.1121 1400.54 26.1121 Q1404.68 26.1121 1408.32 26.7198 Q1411.97 27.3274 1415.05 28.5427 Z" fill="#000000" fill-rule="nonzero" fill-opacity="1" /><path clip-path="url(#clip610)" d="M1462.93 65.7705 L1462.93 89.8329 L1455.43 89.8329 L1455.43 27.2059 L1462.93 27.2059 L1462.93 34.0924 Q1465.28 30.0415 1468.84 28.0971 Q1472.45 26.1121 1477.43 26.1121 Q1485.69 26.1121 1490.84 32.6746 Q1496.02 39.2371 1496.02 49.9314 Q1496.02 60.6258 1490.84 67.1883 Q1485.69 73.7508 1477.43 73.7508 Q1472.45 73.7508 1468.84 71.8063 Q1465.28 69.8214 1462.93 65.7705 M1488.29 49.9314 Q1488.29 41.7081 1484.88 37.0496 Q1481.52 32.3505 1475.61 32.3505 Q1469.69 32.3505 1466.29 37.0496 Q1462.93 41.7081 1462.93 49.9314 Q1462.93 58.1548 1466.29 62.8538 Q1469.69 67.5124 1475.61 67.5124 Q1481.52 67.5124 1484.88 62.8538 Q1488.29 58.1548 1488.29 49.9314 Z" fill="#000000" fill-rule="nonzero" fill-opacity="1" /><path clip-path="url(#clip610)" d="M1547.19 48.0275 L1547.19 51.6733 L1512.92 51.6733 Q1513.4 59.3701 1517.53 63.421 Q1521.71 67.4314 1529.12 67.4314 Q1533.41 67.4314 1537.42 66.3781 Q1541.47 65.3249 1545.44 63.2184 L1545.44 70.267 Q1541.43 71.9684 1537.22 72.8596 Q1533.01 73.7508 1528.67 73.7508 Q1517.82 73.7508 1511.46 67.4314 Q1505.14 61.1119 1505.14 50.3365 Q1505.14 39.1965 1511.13 32.6746 Q1517.17 26.1121 1527.38 26.1121 Q1536.53 26.1121 1541.84 32.0264 Q1547.19 37.9003 1547.19 48.0275 M1539.73 45.84 Q1539.65 39.7232 1536.29 36.0774 Q1532.97 32.4315 1527.46 32.4315 Q1521.22 32.4315 1517.45 35.9558 Q1513.73 39.4801 1513.16 45.8805 L1539.73 45.84 Z" fill="#000000" fill-rule="nonzero" fill-opacity="1" /><path clip-path="url(#clip610)" d="M1585.71 34.1734 Q1584.45 33.4443 1582.96 33.1202 Q1581.5 32.7556 1579.72 32.7556 Q1573.4 32.7556 1569.99 36.8875 Q1566.63 40.9789 1566.63 48.6757 L1566.63 72.576 L1559.14 72.576 L1559.14 27.2059 L1566.63 27.2059 L1566.63 34.2544 Q1568.98 30.1225 1572.75 28.1376 Q1576.51 26.1121 1581.9 26.1121 Q1582.67 26.1121 1583.6 26.2337 Q1584.54 26.3147 1585.67 26.5172 L1585.71 34.1734 Z" fill="#000000" fill-rule="nonzero" fill-opacity="1" /><path clip-path="url(#clip610)" d="M1658.71 48.0275 L1658.71 51.6733 L1624.44 51.6733 Q1624.92 59.3701 1629.06 63.421 Q1633.23 67.4314 1640.64 67.4314 Q1644.93 67.4314 1648.95 66.3781 Q1653 65.3249 1656.97 63.2184 L1656.97 70.267 Q1652.96 71.9684 1648.74 72.8596 Q1644.53 73.7508 1640.2 73.7508 Q1629.34 73.7508 1622.98 67.4314 Q1616.66 61.1119 1616.66 50.3365 Q1616.66 39.1965 1622.65 32.6746 Q1628.69 26.1121 1638.9 26.1121 Q1648.05 26.1121 1653.36 32.0264 Q1658.71 37.9003 1658.71 48.0275 M1651.25 45.84 Q1651.17 39.7232 1647.81 36.0774 Q1644.49 32.4315 1638.98 32.4315 Q1632.74 32.4315 1628.97 35.9558 Q1625.25 39.4801 1624.68 45.8805 L1651.25 45.84 Z" fill="#000000" fill-rule="nonzero" fill-opacity="1" /><path clip-path="url(#clip610)" d="M1678.15 65.7705 L1678.15 89.8329 L1670.66 89.8329 L1670.66 27.2059 L1678.15 27.2059 L1678.15 34.0924 Q1680.5 30.0415 1684.07 28.0971 Q1687.67 26.1121 1692.65 26.1121 Q1700.92 26.1121 1706.06 32.6746 Q1711.25 39.2371 1711.25 49.9314 Q1711.25 60.6258 1706.06 67.1883 Q1700.92 73.7508 1692.65 73.7508 Q1687.67 73.7508 1684.07 71.8063 Q1680.5 69.8214 1678.15 65.7705 M1703.51 49.9314 Q1703.51 41.7081 1700.11 37.0496 Q1696.75 32.3505 1690.83 32.3505 Q1684.92 32.3505 1681.51 37.0496 Q1678.15 41.7081 1678.15 49.9314 Q1678.15 58.1548 1681.51 62.8538 Q1684.92 67.5124 1690.83 67.5124 Q1696.75 67.5124 1700.11 62.8538 Q1703.51 58.1548 1703.51 49.9314 Z" fill="#000000" fill-rule="nonzero" fill-opacity="1" /><path clip-path="url(#clip610)" d="M1741.18 32.4315 Q1735.19 32.4315 1731.71 37.1306 Q1728.22 41.7891 1728.22 49.9314 Q1728.22 58.0738 1731.66 62.7728 Q1735.15 67.4314 1741.18 67.4314 Q1747.14 67.4314 1750.62 62.7323 Q1754.11 58.0333 1754.11 49.9314 Q1754.11 41.8701 1750.62 37.1711 Q1747.14 32.4315 1741.18 32.4315 M1741.18 26.1121 Q1750.91 26.1121 1756.46 32.4315 Q1762.01 38.7509 1762.01 49.9314 Q1762.01 61.0714 1756.46 67.4314 Q1750.91 73.7508 1741.18 73.7508 Q1731.42 73.7508 1725.87 67.4314 Q1720.36 61.0714 1720.36 49.9314 Q1720.36 38.7509 1725.87 32.4315 Q1731.42 26.1121 1741.18 26.1121 Z" fill="#000000" fill-rule="nonzero" fill-opacity="1" /><path clip-path="url(#clip610)" d="M1807.01 28.9478 L1807.01 35.9153 Q1803.85 34.1734 1800.65 33.3227 Q1797.49 32.4315 1794.25 32.4315 Q1787 32.4315 1782.99 37.0496 Q1778.98 41.6271 1778.98 49.9314 Q1778.98 58.2358 1782.99 62.8538 Q1787 67.4314 1794.25 67.4314 Q1797.49 67.4314 1800.65 66.5807 Q1803.85 65.6895 1807.01 63.9476 L1807.01 70.8341 Q1803.89 72.2924 1800.53 73.0216 Q1797.21 73.7508 1793.44 73.7508 Q1783.19 73.7508 1777.16 67.3098 Q1771.12 60.8689 1771.12 49.9314 Q1771.12 38.832 1777.2 32.472 Q1783.31 26.1121 1793.93 26.1121 Q1797.37 26.1121 1800.65 26.8413 Q1803.93 27.5299 1807.01 28.9478 Z" fill="#000000" fill-rule="nonzero" fill-opacity="1" /><path clip-path="url(#clip610)" d="M1857.69 45.1919 L1857.69 72.576 L1850.23 72.576 L1850.23 45.4349 Q1850.23 38.994 1847.72 35.7938 Q1845.21 32.5936 1840.19 32.5936 Q1834.15 32.5936 1830.67 36.4419 Q1827.18 40.2903 1827.18 46.9338 L1827.18 72.576 L1819.69 72.576 L1819.69 9.54393 L1827.18 9.54393 L1827.18 34.2544 Q1829.86 30.163 1833.46 28.1376 Q1837.11 26.1121 1841.85 26.1121 Q1849.67 26.1121 1853.68 30.9732 Q1857.69 35.7938 1857.69 45.1919 Z" fill="#000000" fill-rule="nonzero" fill-opacity="1" /><polyline clip-path="url(#clip612)" style="stroke:#ff0000; stroke-linecap:round; stroke-linejoin:round; stroke-width:8; stroke-opacity:1; fill:none" points="360.486,160.256 462.288,608.096 564.09,665.372 665.892,706.758 767.695,505.774 869.497,729.79 971.299,893.098 1073.1,991.219 1174.9,1073.06 1276.71,899.05 1378.51,736.548 1480.31,789.113 1582.11,766.275 1683.92,1084.37 1785.72,1233.48 1887.52,1244.28 1989.32,1272.32 2091.12,1236.78 2192.93,1386.4 2294.73,1255.14 "/>
<path clip-path="url(#clip610)" d="M1861.17 270.476 L2284.41 270.476 L2284.41 166.796 L1861.17 166.796  Z" fill="#ffffff" fill-rule="evenodd" fill-opacity="1"/>
<polyline clip-path="url(#clip610)" style="stroke:#000000; stroke-linecap:round; stroke-linejoin:round; stroke-width:4; stroke-opacity:1; fill:none" points="1861.17,270.476 2284.41,270.476 2284.41,166.796 1861.17,166.796 1861.17,270.476 "/>
<polyline clip-path="url(#clip610)" style="stroke:#ff0000; stroke-linecap:round; stroke-linejoin:round; stroke-width:8; stroke-opacity:1; fill:none" points="1883.95,218.636 2020.63,218.636 "/>
<path clip-path="url(#clip610)" d="M2043.42 201.356 L2072.65 201.356 L2072.65 205.291 L2060.38 205.291 L2060.38 235.916 L2055.68 235.916 L2055.68 205.291 L2043.42 205.291 L2043.42 201.356 Z" fill="#000000" fill-rule="nonzero" fill-opacity="1" /><path clip-path="url(#clip610)" d="M2085.04 213.971 Q2084.32 213.555 2083.46 213.37 Q2082.63 213.161 2081.61 213.161 Q2078 213.161 2076.05 215.522 Q2074.13 217.86 2074.13 222.258 L2074.13 235.916 L2069.85 235.916 L2069.85 209.99 L2074.13 209.99 L2074.13 214.018 Q2075.48 211.657 2077.63 210.522 Q2079.78 209.365 2082.86 209.365 Q2083.3 209.365 2083.83 209.434 Q2084.36 209.481 2085.01 209.596 L2085.04 213.971 Z" fill="#000000" fill-rule="nonzero" fill-opacity="1" /><path clip-path="url(#clip610)" d="M2101.29 222.883 Q2096.12 222.883 2094.13 224.064 Q2092.14 225.244 2092.14 228.092 Q2092.14 230.36 2093.62 231.703 Q2095.13 233.022 2097.7 233.022 Q2101.24 233.022 2103.37 230.522 Q2105.52 227.999 2105.52 223.832 L2105.52 222.883 L2101.29 222.883 M2109.78 221.124 L2109.78 235.916 L2105.52 235.916 L2105.52 231.981 Q2104.06 234.342 2101.89 235.476 Q2099.71 236.587 2096.56 236.587 Q2092.58 236.587 2090.22 234.365 Q2087.88 232.119 2087.88 228.369 Q2087.88 223.994 2090.8 221.772 Q2093.74 219.55 2099.55 219.55 L2105.52 219.55 L2105.52 219.133 Q2105.52 216.194 2103.58 214.596 Q2101.66 212.976 2098.16 212.976 Q2095.94 212.976 2093.83 213.508 Q2091.73 214.041 2089.78 215.106 L2089.78 211.17 Q2092.12 210.268 2094.32 209.828 Q2096.52 209.365 2098.6 209.365 Q2104.23 209.365 2107 212.282 Q2109.78 215.198 2109.78 221.124 Z" fill="#000000" fill-rule="nonzero" fill-opacity="1" /><path clip-path="url(#clip610)" d="M2118.55 209.99 L2122.81 209.99 L2122.81 235.916 L2118.55 235.916 L2118.55 209.99 M2118.55 199.897 L2122.81 199.897 L2122.81 205.291 L2118.55 205.291 L2118.55 199.897 Z" fill="#000000" fill-rule="nonzero" fill-opacity="1" /><path clip-path="url(#clip610)" d="M2153.28 220.268 L2153.28 235.916 L2149.02 235.916 L2149.02 220.407 Q2149.02 216.726 2147.58 214.897 Q2146.15 213.069 2143.28 213.069 Q2139.83 213.069 2137.84 215.268 Q2135.85 217.467 2135.85 221.263 L2135.85 235.916 L2131.56 235.916 L2131.56 209.99 L2135.85 209.99 L2135.85 214.018 Q2137.37 211.68 2139.43 210.522 Q2141.52 209.365 2144.22 209.365 Q2148.69 209.365 2150.98 212.143 Q2153.28 214.897 2153.28 220.268 Z" fill="#000000" fill-rule="nonzero" fill-opacity="1" /><path clip-path="url(#clip610)" d="M2176.84 199.897 L2181.1 199.897 L2181.1 235.916 L2176.84 235.916 L2176.84 199.897 Z" fill="#000000" fill-rule="nonzero" fill-opacity="1" /><path clip-path="url(#clip610)" d="M2200.06 212.976 Q2196.63 212.976 2194.64 215.661 Q2192.65 218.323 2192.65 222.976 Q2192.65 227.629 2194.62 230.314 Q2196.61 232.976 2200.06 232.976 Q2203.46 232.976 2205.45 230.291 Q2207.44 227.606 2207.44 222.976 Q2207.44 218.37 2205.45 215.684 Q2203.46 212.976 2200.06 212.976 M2200.06 209.365 Q2205.61 209.365 2208.78 212.976 Q2211.96 216.587 2211.96 222.976 Q2211.96 229.342 2208.78 232.976 Q2205.61 236.587 2200.06 236.587 Q2194.48 236.587 2191.31 232.976 Q2188.16 229.342 2188.16 222.976 Q2188.16 216.587 2191.31 212.976 Q2194.48 209.365 2200.06 209.365 Z" fill="#000000" fill-rule="nonzero" fill-opacity="1" /><path clip-path="url(#clip610)" d="M2235.54 210.754 L2235.54 214.782 Q2233.74 213.856 2231.79 213.393 Q2229.85 212.93 2227.77 212.93 Q2224.59 212.93 2223 213.902 Q2221.42 214.874 2221.42 216.819 Q2221.42 218.3 2222.56 219.157 Q2223.69 219.99 2227.12 220.754 L2228.58 221.078 Q2233.11 222.05 2235.01 223.832 Q2236.93 225.592 2236.93 228.763 Q2236.93 232.374 2234.06 234.481 Q2231.22 236.587 2226.22 236.587 Q2224.13 236.587 2221.86 236.17 Q2219.62 235.777 2217.12 234.967 L2217.12 230.569 Q2219.48 231.795 2221.77 232.42 Q2224.06 233.022 2226.31 233.022 Q2229.32 233.022 2230.94 232.004 Q2232.56 230.962 2232.56 229.087 Q2232.56 227.351 2231.38 226.425 Q2230.22 225.499 2226.26 224.643 L2224.78 224.295 Q2220.82 223.462 2219.06 221.749 Q2217.3 220.013 2217.3 217.004 Q2217.3 213.346 2219.9 211.356 Q2222.49 209.365 2227.26 209.365 Q2229.62 209.365 2231.7 209.712 Q2233.78 210.059 2235.54 210.754 Z" fill="#000000" fill-rule="nonzero" fill-opacity="1" /><path clip-path="url(#clip610)" d="M2260.24 210.754 L2260.24 214.782 Q2258.44 213.856 2256.49 213.393 Q2254.55 212.93 2252.46 212.93 Q2249.29 212.93 2247.7 213.902 Q2246.12 214.874 2246.12 216.819 Q2246.12 218.3 2247.26 219.157 Q2248.39 219.99 2251.82 220.754 L2253.28 221.078 Q2257.81 222.05 2259.71 223.832 Q2261.63 225.592 2261.63 228.763 Q2261.63 232.374 2258.76 234.481 Q2255.91 236.587 2250.91 236.587 Q2248.83 236.587 2246.56 236.17 Q2244.32 235.777 2241.82 234.967 L2241.82 230.569 Q2244.18 231.795 2246.47 232.42 Q2248.76 233.022 2251.01 233.022 Q2254.02 233.022 2255.64 232.004 Q2257.26 230.962 2257.26 229.087 Q2257.26 227.351 2256.08 226.425 Q2254.92 225.499 2250.96 224.643 L2249.48 224.295 Q2245.52 223.462 2243.76 221.749 Q2242 220.013 2242 217.004 Q2242 213.346 2244.59 211.356 Q2247.19 209.365 2251.96 209.365 Q2254.32 209.365 2256.4 209.712 Q2258.48 210.059 2260.24 210.754 Z" fill="#000000" fill-rule="nonzero" fill-opacity="1" /></svg>
