<?xml version="1.0" encoding="utf-8"?>
<svg xmlns="http://www.w3.org/2000/svg" xmlns:xlink="http://www.w3.org/1999/xlink" width="600" height="400" viewBox="0 0 2400 1600">
<defs>
  <clipPath id="clip450">
    <rect x="0" y="0" width="2400" height="1600"/>
  </clipPath>
</defs>
<path clip-path="url(#clip450)" d="M0 1600 L2400 1600 L2400 8.88178e-14 L0 8.88178e-14  Z" fill="#ffffff" fill-rule="evenodd" fill-opacity="1"/>
<defs>
  <clipPath id="clip451">
    <rect x="480" y="0" width="1681" height="1600"/>
  </clipPath>
</defs>
<path clip-path="url(#clip450)" d="M219.866 1423.18 L2352.76 1423.18 L2352.76 123.472 L219.866 123.472  Z" fill="#ffffff" fill-rule="evenodd" fill-opacity="1"/>
<defs>
  <clipPath id="clip452">
    <rect x="219" y="123" width="2134" height="1301"/>
  </clipPath>
</defs>
<polyline clip-path="url(#clip452)" style="stroke:#000000; stroke-linecap:round; stroke-linejoin:round; stroke-width:2; stroke-opacity:0.1; fill:none" points="251.069,1423.18 251.069,123.472 "/>
<polyline clip-path="url(#clip452)" style="stroke:#000000; stroke-linecap:round; stroke-linejoin:round; stroke-width:2; stroke-opacity:0.1; fill:none" points="834.304,1423.18 834.304,123.472 "/>
<polyline clip-path="url(#clip452)" style="stroke:#000000; stroke-linecap:round; stroke-linejoin:round; stroke-width:2; stroke-opacity:0.1; fill:none" points="1417.54,1423.18 1417.54,123.472 "/>
<polyline clip-path="url(#clip452)" style="stroke:#000000; stroke-linecap:round; stroke-linejoin:round; stroke-width:2; stroke-opacity:0.1; fill:none" points="2000.77,1423.18 2000.77,123.472 "/>
<polyline clip-path="url(#clip450)" style="stroke:#000000; stroke-linecap:round; stroke-linejoin:round; stroke-width:4; stroke-opacity:1; fill:none" points="219.866,1423.18 2352.76,1423.18 "/>
<polyline clip-path="url(#clip450)" style="stroke:#000000; stroke-linecap:round; stroke-linejoin:round; stroke-width:4; stroke-opacity:1; fill:none" points="251.069,1423.18 251.069,1404.28 "/>
<polyline clip-path="url(#clip450)" style="stroke:#000000; stroke-linecap:round; stroke-linejoin:round; stroke-width:4; stroke-opacity:1; fill:none" points="834.304,1423.18 834.304,1404.28 "/>
<polyline clip-path="url(#clip450)" style="stroke:#000000; stroke-linecap:round; stroke-linejoin:round; stroke-width:4; stroke-opacity:1; fill:none" points="1417.54,1423.18 1417.54,1404.28 "/>
<polyline clip-path="url(#clip450)" style="stroke:#000000; stroke-linecap:round; stroke-linejoin:round; stroke-width:4; stroke-opacity:1; fill:none" points="2000.77,1423.18 2000.77,1404.28 "/>
<path clip-path="url(#clip450)" d="M251.069 1454.1 Q247.458 1454.1 245.63 1457.66 Q243.824 1461.2 243.824 1468.33 Q243.824 1475.44 245.63 1479.01 Q247.458 1482.55 251.069 1482.55 Q254.704 1482.55 256.509 1479.01 Q258.338 1475.44 258.338 1468.33 Q258.338 1461.2 256.509 1457.66 Q254.704 1454.1 251.069 1454.1 M251.069 1450.39 Q256.879 1450.39 259.935 1455 Q263.014 1459.58 263.014 1468.33 Q263.014 1477.06 259.935 1481.67 Q256.879 1486.25 251.069 1486.25 Q245.259 1486.25 242.18 1481.67 Q239.125 1477.06 239.125 1468.33 Q239.125 1459.58 242.18 1455 Q245.259 1450.39 251.069 1450.39 Z" fill="#000000" fill-rule="nonzero" fill-opacity="1" /><path clip-path="url(#clip450)" d="M813.077 1481.64 L829.397 1481.64 L829.397 1485.58 L807.452 1485.58 L807.452 1481.64 Q810.114 1478.89 814.698 1474.26 Q819.304 1469.61 820.485 1468.27 Q822.73 1465.74 823.61 1464.01 Q824.513 1462.25 824.513 1460.56 Q824.513 1457.8 822.568 1456.07 Q820.647 1454.33 817.545 1454.33 Q815.346 1454.33 812.892 1455.09 Q810.462 1455.86 807.684 1457.41 L807.684 1452.69 Q810.508 1451.55 812.962 1450.97 Q815.415 1450.39 817.452 1450.39 Q822.823 1450.39 826.017 1453.08 Q829.212 1455.77 829.212 1460.26 Q829.212 1462.39 828.401 1464.31 Q827.614 1466.2 825.508 1468.8 Q824.929 1469.47 821.827 1472.69 Q818.726 1475.88 813.077 1481.64 Z" fill="#000000" fill-rule="nonzero" fill-opacity="1" /><path clip-path="url(#clip450)" d="M849.211 1454.1 Q845.6 1454.1 843.772 1457.66 Q841.966 1461.2 841.966 1468.33 Q841.966 1475.44 843.772 1479.01 Q845.6 1482.55 849.211 1482.55 Q852.846 1482.55 854.651 1479.01 Q856.48 1475.44 856.48 1468.33 Q856.48 1461.2 854.651 1457.66 Q852.846 1454.1 849.211 1454.1 M849.211 1450.39 Q855.022 1450.39 858.077 1455 Q861.156 1459.58 861.156 1468.33 Q861.156 1477.06 858.077 1481.67 Q855.022 1486.25 849.211 1486.25 Q843.401 1486.25 840.323 1481.67 Q837.267 1477.06 837.267 1468.33 Q837.267 1459.58 840.323 1455 Q843.401 1450.39 849.211 1450.39 Z" fill="#000000" fill-rule="nonzero" fill-opacity="1" /><path clip-path="url(#clip450)" d="M1405.71 1455.09 L1393.9 1473.54 L1405.71 1473.54 L1405.71 1455.09 M1404.48 1451.02 L1410.36 1451.02 L1410.36 1473.54 L1415.29 1473.54 L1415.29 1477.43 L1410.36 1477.43 L1410.36 1485.58 L1405.71 1485.58 L1405.71 1477.43 L1390.11 1477.43 L1390.11 1472.92 L1404.48 1451.02 Z" fill="#000000" fill-rule="nonzero" fill-opacity="1" /><path clip-path="url(#clip450)" d="M1433.02 1454.1 Q1429.41 1454.1 1427.59 1457.66 Q1425.78 1461.2 1425.78 1468.33 Q1425.78 1475.44 1427.59 1479.01 Q1429.41 1482.55 1433.02 1482.55 Q1436.66 1482.55 1438.46 1479.01 Q1440.29 1475.44 1440.29 1468.33 Q1440.29 1461.2 1438.46 1457.66 Q1436.66 1454.1 1433.02 1454.1 M1433.02 1450.39 Q1438.84 1450.39 1441.89 1455 Q1444.97 1459.58 1444.97 1468.33 Q1444.97 1477.06 1441.89 1481.67 Q1438.84 1486.25 1433.02 1486.25 Q1427.21 1486.25 1424.14 1481.67 Q1421.08 1477.06 1421.08 1468.33 Q1421.08 1459.58 1424.14 1455 Q1427.21 1450.39 1433.02 1450.39 Z" fill="#000000" fill-rule="nonzero" fill-opacity="1" /><path clip-path="url(#clip450)" d="M1986.18 1466.44 Q1983.03 1466.44 1981.18 1468.59 Q1979.35 1470.74 1979.35 1474.49 Q1979.35 1478.22 1981.18 1480.39 Q1983.03 1482.55 1986.18 1482.55 Q1989.33 1482.55 1991.16 1480.39 Q1993.01 1478.22 1993.01 1474.49 Q1993.01 1470.74 1991.16 1468.59 Q1989.33 1466.44 1986.18 1466.44 M1995.46 1451.78 L1995.46 1456.04 Q1993.7 1455.21 1991.9 1454.77 Q1990.11 1454.33 1988.35 1454.33 Q1983.73 1454.33 1981.27 1457.45 Q1978.84 1460.58 1978.49 1466.9 Q1979.86 1464.89 1981.92 1463.82 Q1983.98 1462.73 1986.46 1462.73 Q1991.66 1462.73 1994.67 1465.9 Q1997.71 1469.05 1997.71 1474.49 Q1997.71 1479.82 1994.56 1483.03 Q1991.41 1486.25 1986.18 1486.25 Q1980.18 1486.25 1977.01 1481.67 Q1973.84 1477.06 1973.84 1468.33 Q1973.84 1460.14 1977.73 1455.28 Q1981.62 1450.39 1988.17 1450.39 Q1989.93 1450.39 1991.71 1450.74 Q1993.52 1451.09 1995.46 1451.78 Z" fill="#000000" fill-rule="nonzero" fill-opacity="1" /><path clip-path="url(#clip450)" d="M2015.76 1454.1 Q2012.15 1454.1 2010.32 1457.66 Q2008.52 1461.2 2008.52 1468.33 Q2008.52 1475.44 2010.32 1479.01 Q2012.15 1482.55 2015.76 1482.55 Q2019.4 1482.55 2021.2 1479.01 Q2023.03 1475.44 2023.03 1468.33 Q2023.03 1461.2 2021.2 1457.66 Q2019.4 1454.1 2015.76 1454.1 M2015.76 1450.39 Q2021.57 1450.39 2024.63 1455 Q2027.71 1459.58 2027.71 1468.33 Q2027.71 1477.06 2024.63 1481.67 Q2021.57 1486.25 2015.76 1486.25 Q2009.95 1486.25 2006.87 1481.67 Q2003.82 1477.06 2003.82 1468.33 Q2003.82 1459.58 2006.87 1455 Q2009.95 1450.39 2015.76 1450.39 Z" fill="#000000" fill-rule="nonzero" fill-opacity="1" /><path clip-path="url(#clip450)" d="M1221.87 1561.26 L1221.87 1548.5 L1211.37 1548.5 L1211.37 1543.22 L1228.24 1543.22 L1228.24 1563.62 Q1224.52 1566.26 1220.03 1567.63 Q1215.54 1568.97 1210.45 1568.97 Q1199.31 1568.97 1193.01 1562.47 Q1186.74 1555.95 1186.74 1544.33 Q1186.74 1532.68 1193.01 1526.19 Q1199.31 1519.66 1210.45 1519.66 Q1215.09 1519.66 1219.26 1520.81 Q1223.47 1521.96 1227 1524.18 L1227 1531.03 Q1223.43 1528 1219.42 1526.48 Q1215.41 1524.95 1210.99 1524.95 Q1202.27 1524.95 1197.88 1529.82 Q1193.51 1534.69 1193.51 1544.33 Q1193.51 1553.94 1197.88 1558.81 Q1202.27 1563.68 1210.99 1563.68 Q1214.39 1563.68 1217.07 1563.11 Q1219.74 1562.51 1221.87 1561.26 Z" fill="#000000" fill-rule="nonzero" fill-opacity="1" /><path clip-path="url(#clip450)" d="M1270.22 1548.76 L1270.22 1551.62 L1243.29 1551.62 Q1243.68 1557.67 1246.92 1560.85 Q1250.2 1564 1256.03 1564 Q1259.4 1564 1262.55 1563.17 Q1265.73 1562.35 1268.85 1560.69 L1268.85 1566.23 Q1265.7 1567.57 1262.39 1568.27 Q1259.08 1568.97 1255.68 1568.97 Q1247.15 1568.97 1242.15 1564 Q1237.18 1559.04 1237.18 1550.57 Q1237.18 1541.82 1241.89 1536.69 Q1246.64 1531.54 1254.66 1531.54 Q1261.85 1531.54 1266.02 1536.18 Q1270.22 1540.8 1270.22 1548.76 M1264.37 1547.04 Q1264.3 1542.23 1261.66 1539.37 Q1259.05 1536.5 1254.72 1536.5 Q1249.82 1536.5 1246.86 1539.27 Q1243.93 1542.04 1243.49 1547.07 L1264.37 1547.04 Z" fill="#000000" fill-rule="nonzero" fill-opacity="1" /><path clip-path="url(#clip450)" d="M1309.47 1546.53 L1309.47 1568.04 L1303.61 1568.04 L1303.61 1546.72 Q1303.61 1541.66 1301.64 1539.14 Q1299.66 1536.63 1295.72 1536.63 Q1290.97 1536.63 1288.24 1539.65 Q1285.5 1542.68 1285.5 1547.9 L1285.5 1568.04 L1279.61 1568.04 L1279.61 1532.4 L1285.5 1532.4 L1285.5 1537.93 Q1287.6 1534.72 1290.43 1533.13 Q1293.3 1531.54 1297.02 1531.54 Q1303.16 1531.54 1306.32 1535.36 Q1309.47 1539.14 1309.47 1546.53 Z" fill="#000000" fill-rule="nonzero" fill-opacity="1" /><path clip-path="url(#clip450)" d="M1351.64 1548.76 L1351.64 1551.62 L1324.71 1551.62 Q1325.09 1557.67 1328.34 1560.85 Q1331.62 1564 1337.44 1564 Q1340.82 1564 1343.97 1563.17 Q1347.15 1562.35 1350.27 1560.69 L1350.27 1566.23 Q1347.12 1567.57 1343.81 1568.27 Q1340.5 1568.97 1337.09 1568.97 Q1328.56 1568.97 1323.57 1564 Q1318.6 1559.04 1318.6 1550.57 Q1318.6 1541.82 1323.31 1536.69 Q1328.05 1531.54 1336.07 1531.54 Q1343.27 1531.54 1347.44 1536.18 Q1351.64 1540.8 1351.64 1548.76 M1345.78 1547.04 Q1345.72 1542.23 1343.08 1539.37 Q1340.47 1536.5 1336.14 1536.5 Q1331.24 1536.5 1328.28 1539.27 Q1325.35 1542.04 1324.9 1547.07 L1345.78 1547.04 Z" fill="#000000" fill-rule="nonzero" fill-opacity="1" /><path clip-path="url(#clip450)" d="M1383.98 1533.45 L1383.98 1538.98 Q1381.49 1537.71 1378.82 1537.07 Q1376.15 1536.44 1373.28 1536.44 Q1368.92 1536.44 1366.73 1537.77 Q1364.56 1539.11 1364.56 1541.79 Q1364.56 1543.82 1366.12 1545 Q1367.68 1546.15 1372.39 1547.2 L1374.4 1547.64 Q1380.63 1548.98 1383.24 1551.43 Q1385.89 1553.85 1385.89 1558.21 Q1385.89 1563.17 1381.94 1566.07 Q1378.03 1568.97 1371.15 1568.97 Q1368.29 1568.97 1365.17 1568.39 Q1362.08 1567.85 1358.64 1566.74 L1358.64 1560.69 Q1361.89 1562.38 1365.04 1563.24 Q1368.19 1564.07 1371.28 1564.07 Q1375.42 1564.07 1377.64 1562.66 Q1379.87 1561.23 1379.87 1558.65 Q1379.87 1556.27 1378.25 1554.99 Q1376.66 1553.72 1371.21 1552.54 L1369.18 1552.07 Q1363.73 1550.92 1361.32 1548.56 Q1358.9 1546.18 1358.9 1542.04 Q1358.9 1537.01 1362.46 1534.27 Q1366.03 1531.54 1372.58 1531.54 Q1375.83 1531.54 1378.69 1532.01 Q1381.56 1532.49 1383.98 1533.45 Z" fill="#000000" fill-rule="nonzero" fill-opacity="1" /><polyline clip-path="url(#clip452)" style="stroke:#000000; stroke-linecap:round; stroke-linejoin:round; stroke-width:2; stroke-opacity:0.1; fill:none" points="219.866,1171.69 2352.76,1171.69 "/>
<polyline clip-path="url(#clip452)" style="stroke:#000000; stroke-linecap:round; stroke-linejoin:round; stroke-width:2; stroke-opacity:0.1; fill:none" points="219.866,832.756 2352.76,832.756 "/>
<polyline clip-path="url(#clip452)" style="stroke:#000000; stroke-linecap:round; stroke-linejoin:round; stroke-width:2; stroke-opacity:0.1; fill:none" points="219.866,493.823 2352.76,493.823 "/>
<polyline clip-path="url(#clip452)" style="stroke:#000000; stroke-linecap:round; stroke-linejoin:round; stroke-width:2; stroke-opacity:0.1; fill:none" points="219.866,154.89 2352.76,154.89 "/>
<polyline clip-path="url(#clip450)" style="stroke:#000000; stroke-linecap:round; stroke-linejoin:round; stroke-width:4; stroke-opacity:1; fill:none" points="219.866,1423.18 219.866,123.472 "/>
<polyline clip-path="url(#clip450)" style="stroke:#000000; stroke-linecap:round; stroke-linejoin:round; stroke-width:4; stroke-opacity:1; fill:none" points="219.866,1171.69 238.764,1171.69 "/>
<polyline clip-path="url(#clip450)" style="stroke:#000000; stroke-linecap:round; stroke-linejoin:round; stroke-width:4; stroke-opacity:1; fill:none" points="219.866,832.756 238.764,832.756 "/>
<polyline clip-path="url(#clip450)" style="stroke:#000000; stroke-linecap:round; stroke-linejoin:round; stroke-width:4; stroke-opacity:1; fill:none" points="219.866,493.823 238.764,493.823 "/>
<polyline clip-path="url(#clip450)" style="stroke:#000000; stroke-linecap:round; stroke-linejoin:round; stroke-width:4; stroke-opacity:1; fill:none" points="219.866,154.89 238.764,154.89 "/>
<path clip-path="url(#clip450)" d="M126.205 1157.49 Q122.593 1157.49 120.765 1161.05 Q118.959 1164.59 118.959 1171.72 Q118.959 1178.83 120.765 1182.39 Q122.593 1185.94 126.205 1185.94 Q129.839 1185.94 131.644 1182.39 Q133.473 1178.83 133.473 1171.72 Q133.473 1164.59 131.644 1161.05 Q129.839 1157.49 126.205 1157.49 M126.205 1153.78 Q132.015 1153.78 135.07 1158.39 Q138.149 1162.97 138.149 1171.72 Q138.149 1180.45 135.07 1185.06 Q132.015 1189.64 126.205 1189.64 Q120.394 1189.64 117.316 1185.06 Q114.26 1180.45 114.26 1171.72 Q114.26 1162.97 117.316 1158.39 Q120.394 1153.78 126.205 1153.78 Z" fill="#000000" fill-rule="nonzero" fill-opacity="1" /><path clip-path="url(#clip450)" d="M146.366 1183.09 L151.251 1183.09 L151.251 1188.97 L146.366 1188.97 L146.366 1183.09 Z" fill="#000000" fill-rule="nonzero" fill-opacity="1" /><path clip-path="url(#clip450)" d="M174.283 1158.48 L162.477 1176.93 L174.283 1176.93 L174.283 1158.48 M173.056 1154.41 L178.936 1154.41 L178.936 1176.93 L183.866 1176.93 L183.866 1180.82 L178.936 1180.82 L178.936 1188.97 L174.283 1188.97 L174.283 1180.82 L158.681 1180.82 L158.681 1176.31 L173.056 1154.41 Z" fill="#000000" fill-rule="nonzero" fill-opacity="1" /><path clip-path="url(#clip450)" d="M126.529 818.554 Q122.918 818.554 121.089 822.119 Q119.283 825.661 119.283 832.79 Q119.283 839.897 121.089 843.461 Q122.918 847.003 126.529 847.003 Q130.163 847.003 131.968 843.461 Q133.797 839.897 133.797 832.79 Q133.797 825.661 131.968 822.119 Q130.163 818.554 126.529 818.554 M126.529 814.851 Q132.339 814.851 135.394 819.457 Q138.473 824.04 138.473 832.79 Q138.473 841.517 135.394 846.123 Q132.339 850.707 126.529 850.707 Q120.718 850.707 117.64 846.123 Q114.584 841.517 114.584 832.79 Q114.584 824.04 117.64 819.457 Q120.718 814.851 126.529 814.851 Z" fill="#000000" fill-rule="nonzero" fill-opacity="1" /><path clip-path="url(#clip450)" d="M146.691 844.156 L151.575 844.156 L151.575 850.036 L146.691 850.036 L146.691 844.156 Z" fill="#000000" fill-rule="nonzero" fill-opacity="1" /><path clip-path="url(#clip450)" d="M172.339 830.892 Q169.19 830.892 167.339 833.045 Q165.51 835.198 165.51 838.948 Q165.51 842.674 167.339 844.85 Q169.19 847.003 172.339 847.003 Q175.487 847.003 177.315 844.85 Q179.167 842.674 179.167 838.948 Q179.167 835.198 177.315 833.045 Q175.487 830.892 172.339 830.892 M181.621 816.239 L181.621 820.499 Q179.862 819.665 178.056 819.225 Q176.274 818.786 174.514 818.786 Q169.885 818.786 167.431 821.911 Q165.001 825.036 164.653 831.355 Q166.019 829.341 168.079 828.276 Q170.139 827.188 172.616 827.188 Q177.825 827.188 180.834 830.36 Q183.866 833.508 183.866 838.948 Q183.866 844.272 180.718 847.489 Q177.57 850.707 172.339 850.707 Q166.343 850.707 163.172 846.123 Q160.001 841.517 160.001 832.79 Q160.001 824.596 163.89 819.735 Q167.778 814.851 174.329 814.851 Q176.089 814.851 177.871 815.198 Q179.676 815.545 181.621 816.239 Z" fill="#000000" fill-rule="nonzero" fill-opacity="1" /><path clip-path="url(#clip450)" d="M126.783 479.622 Q123.172 479.622 121.343 483.186 Q119.538 486.728 119.538 493.858 Q119.538 500.964 121.343 504.529 Q123.172 508.071 126.783 508.071 Q130.417 508.071 132.223 504.529 Q134.052 500.964 134.052 493.858 Q134.052 486.728 132.223 483.186 Q130.417 479.622 126.783 479.622 M126.783 475.918 Q132.593 475.918 135.649 480.524 Q138.728 485.108 138.728 493.858 Q138.728 502.584 135.649 507.191 Q132.593 511.774 126.783 511.774 Q120.973 511.774 117.894 507.191 Q114.839 502.584 114.839 493.858 Q114.839 485.108 117.894 480.524 Q120.973 475.918 126.783 475.918 Z" fill="#000000" fill-rule="nonzero" fill-opacity="1" /><path clip-path="url(#clip450)" d="M146.945 505.223 L151.829 505.223 L151.829 511.103 L146.945 511.103 L146.945 505.223 Z" fill="#000000" fill-rule="nonzero" fill-opacity="1" /><path clip-path="url(#clip450)" d="M172.014 494.691 Q168.681 494.691 166.76 496.473 Q164.862 498.256 164.862 501.381 Q164.862 504.506 166.76 506.288 Q168.681 508.071 172.014 508.071 Q175.348 508.071 177.269 506.288 Q179.19 504.483 179.19 501.381 Q179.19 498.256 177.269 496.473 Q175.371 494.691 172.014 494.691 M167.339 492.7 Q164.329 491.96 162.64 489.899 Q160.973 487.839 160.973 484.876 Q160.973 480.733 163.913 478.325 Q166.876 475.918 172.014 475.918 Q177.176 475.918 180.116 478.325 Q183.056 480.733 183.056 484.876 Q183.056 487.839 181.366 489.899 Q179.7 491.96 176.714 492.7 Q180.093 493.487 181.968 495.779 Q183.866 498.071 183.866 501.381 Q183.866 506.404 180.788 509.089 Q177.732 511.774 172.014 511.774 Q166.297 511.774 163.218 509.089 Q160.163 506.404 160.163 501.381 Q160.163 498.071 162.061 495.779 Q163.959 493.487 167.339 492.7 M165.626 485.316 Q165.626 488.001 167.292 489.506 Q168.982 491.01 172.014 491.01 Q175.024 491.01 176.714 489.506 Q178.426 488.001 178.426 485.316 Q178.426 482.631 176.714 481.126 Q175.024 479.622 172.014 479.622 Q168.982 479.622 167.292 481.126 Q165.626 482.631 165.626 485.316 Z" fill="#000000" fill-rule="nonzero" fill-opacity="1" /><path clip-path="url(#clip450)" d="M117.501 168.235 L125.14 168.235 L125.14 141.87 L116.83 143.536 L116.83 139.277 L125.093 137.61 L129.769 137.61 L129.769 168.235 L137.408 168.235 L137.408 172.17 L117.501 172.17 L117.501 168.235 Z" fill="#000000" fill-rule="nonzero" fill-opacity="1" /><path clip-path="url(#clip450)" d="M146.853 166.291 L151.737 166.291 L151.737 172.17 L146.853 172.17 L146.853 166.291 Z" fill="#000000" fill-rule="nonzero" fill-opacity="1" /><path clip-path="url(#clip450)" d="M171.922 140.689 Q168.311 140.689 166.482 144.254 Q164.677 147.795 164.677 154.925 Q164.677 162.032 166.482 165.596 Q168.311 169.138 171.922 169.138 Q175.556 169.138 177.362 165.596 Q179.19 162.032 179.19 154.925 Q179.19 147.795 177.362 144.254 Q175.556 140.689 171.922 140.689 M171.922 136.985 Q177.732 136.985 180.788 141.592 Q183.866 146.175 183.866 154.925 Q183.866 163.652 180.788 168.258 Q177.732 172.842 171.922 172.842 Q166.112 172.842 163.033 168.258 Q159.978 163.652 159.978 154.925 Q159.978 146.175 163.033 141.592 Q166.112 136.985 171.922 136.985 Z" fill="#000000" fill-rule="nonzero" fill-opacity="1" /><path clip-path="url(#clip450)" d="M16.4842 837.445 L16.4842 827.864 L48.8219 815.738 L16.4842 803.547 L16.4842 793.967 L64.0042 793.967 L64.0042 800.237 L22.277 800.237 L54.8694 812.491 L54.8694 818.952 L22.277 831.206 L64.0042 831.206 L64.0042 837.445 L16.4842 837.445 Z" fill="#000000" fill-rule="nonzero" fill-opacity="1" /><path clip-path="url(#clip450)" d="M18.0438 752.717 L24.314 752.717 Q22.5634 756.377 21.704 759.624 Q20.8447 762.87 20.8447 765.894 Q20.8447 771.146 22.8817 774.01 Q24.9187 776.843 28.6745 776.843 Q31.8255 776.843 33.4488 774.965 Q35.0402 773.055 36.0269 767.772 L36.8226 763.889 Q38.1912 756.696 41.6605 753.29 Q45.098 749.852 50.8908 749.852 Q57.7976 749.852 61.3624 754.499 Q64.9272 759.115 64.9272 768.058 Q64.9272 771.432 64.1633 775.252 Q63.3994 779.039 61.9035 783.113 L55.2831 783.113 Q57.4793 779.198 58.5933 775.443 Q59.7073 771.687 59.7073 768.058 Q59.7073 762.552 57.543 759.56 Q55.3786 756.568 51.3682 756.568 Q47.8671 756.568 45.8937 758.733 Q43.9204 760.865 42.9337 765.767 L42.1698 769.682 Q40.7375 776.875 37.682 780.09 Q34.6264 783.304 29.1837 783.304 Q22.8817 783.304 19.2532 778.88 Q15.6248 774.424 15.6248 766.626 Q15.6248 763.284 16.2295 759.815 Q16.8343 756.345 18.0438 752.717 Z" fill="#000000" fill-rule="nonzero" fill-opacity="1" /><path clip-path="url(#clip450)" d="M16.4842 739.826 L16.4842 709.78 L21.895 709.78 L21.895 733.397 L35.9632 733.397 L35.9632 710.767 L41.3741 710.767 L41.3741 733.397 L58.5933 733.397 L58.5933 709.207 L64.0042 709.207 L64.0042 739.826 L16.4842 739.826 Z" fill="#000000" fill-rule="nonzero" fill-opacity="1" /><path clip-path="url(#clip450)" d="M877.514 12.096 L889.707 12.096 L905.141 53.2532 L920.656 12.096 L932.849 12.096 L932.849 72.576 L924.869 72.576 L924.869 19.4686 L909.273 60.9499 L901.05 60.9499 L885.454 19.4686 L885.454 72.576 L877.514 72.576 L877.514 12.096 Z" fill="#000000" fill-rule="nonzero" fill-opacity="1" /><path clip-path="url(#clip450)" d="M987.577 48.0275 L987.577 51.6733 L953.307 51.6733 Q953.793 59.3701 957.925 63.421 Q962.097 67.4314 969.51 67.4314 Q973.804 67.4314 977.814 66.3781 Q981.865 65.3249 985.835 63.2184 L985.835 70.267 Q981.825 71.9684 977.612 72.8596 Q973.399 73.7508 969.065 73.7508 Q958.208 73.7508 951.848 67.4314 Q945.529 61.1119 945.529 50.3365 Q945.529 39.1965 951.524 32.6746 Q957.56 26.1121 967.768 26.1121 Q976.923 26.1121 982.23 32.0264 Q987.577 37.9003 987.577 48.0275 M980.123 45.84 Q980.042 39.7232 976.68 36.0774 Q973.358 32.4315 967.849 32.4315 Q961.611 32.4315 957.844 35.9558 Q954.117 39.4801 953.55 45.8805 L980.123 45.84 Z" fill="#000000" fill-rule="nonzero" fill-opacity="1" /><path clip-path="url(#clip450)" d="M1020.43 49.7694 Q1011.4 49.7694 1007.91 51.8354 Q1004.43 53.9013 1004.43 58.8839 Q1004.43 62.8538 1007.02 65.2034 Q1009.65 67.5124 1014.15 67.5124 Q1020.35 67.5124 1024.08 63.1374 Q1027.84 58.7219 1027.84 51.4303 L1027.84 49.7694 L1020.43 49.7694 M1035.3 46.6907 L1035.3 72.576 L1027.84 72.576 L1027.84 65.6895 Q1025.29 69.8214 1021.48 71.8063 Q1017.68 73.7508 1012.17 73.7508 Q1005.2 73.7508 1001.07 69.8619 Q996.975 65.9325 996.975 59.3701 Q996.975 51.7138 1002.08 47.825 Q1007.22 43.9361 1017.39 43.9361 L1027.84 43.9361 L1027.84 43.2069 Q1027.84 38.0623 1024.44 35.2672 Q1021.08 32.4315 1014.96 32.4315 Q1011.07 32.4315 1007.39 33.3632 Q1003.7 34.295 1000.3 36.1584 L1000.3 29.2718 Q1004.39 27.692 1008.24 26.9223 Q1012.09 26.1121 1015.73 26.1121 Q1025.57 26.1121 1030.44 31.2163 Q1035.3 36.3204 1035.3 46.6907 Z" fill="#000000" fill-rule="nonzero" fill-opacity="1" /><path clip-path="url(#clip450)" d="M1088.36 45.1919 L1088.36 72.576 L1080.91 72.576 L1080.91 45.4349 Q1080.91 38.994 1078.4 35.7938 Q1075.89 32.5936 1070.86 32.5936 Q1064.83 32.5936 1061.34 36.4419 Q1057.86 40.2903 1057.86 46.9338 L1057.86 72.576 L1050.37 72.576 L1050.37 27.2059 L1057.86 27.2059 L1057.86 34.2544 Q1060.53 30.163 1064.14 28.1376 Q1067.79 26.1121 1072.52 26.1121 Q1080.34 26.1121 1084.35 30.9732 Q1088.36 35.7938 1088.36 45.1919 Z" fill="#000000" fill-rule="nonzero" fill-opacity="1" /><path clip-path="url(#clip450)" d="M1166.18 14.0809 L1166.18 22.0612 Q1161.52 19.8332 1157.39 18.7395 Q1153.26 17.6457 1149.41 17.6457 Q1142.73 17.6457 1139.08 20.2383 Q1135.48 22.8309 1135.48 27.611 Q1135.48 31.6214 1137.87 33.6873 Q1140.3 35.7128 1147.02 36.9686 L1151.96 37.9813 Q1161.12 39.7232 1165.45 44.1387 Q1169.83 48.5136 1169.83 55.8863 Q1169.83 64.6767 1163.91 69.2137 Q1158.04 73.7508 1146.66 73.7508 Q1142.36 73.7508 1137.5 72.7785 Q1132.68 71.8063 1127.5 69.9024 L1127.5 61.4765 Q1132.48 64.2716 1137.26 65.6895 Q1142.04 67.1073 1146.66 67.1073 Q1153.66 67.1073 1157.47 64.3527 Q1161.28 61.598 1161.28 56.4939 Q1161.28 52.0379 1158.53 49.5264 Q1155.81 47.0148 1149.57 45.759 L1144.59 44.7868 Q1135.44 42.9639 1131.34 39.075 Q1127.25 35.1862 1127.25 28.2591 Q1127.25 20.2383 1132.88 15.6203 Q1138.55 11.0023 1148.48 11.0023 Q1152.73 11.0023 1157.15 11.7719 Q1161.56 12.5416 1166.18 14.0809 Z" fill="#000000" fill-rule="nonzero" fill-opacity="1" /><path clip-path="url(#clip450)" d="M1186.72 49.9314 Q1186.72 58.1548 1190.08 62.8538 Q1193.48 67.5124 1199.4 67.5124 Q1205.31 67.5124 1208.72 62.8538 Q1212.12 58.1548 1212.12 49.9314 Q1212.12 41.7081 1208.72 37.0496 Q1205.31 32.3505 1199.4 32.3505 Q1193.48 32.3505 1190.08 37.0496 Q1186.72 41.7081 1186.72 49.9314 M1212.12 65.7705 Q1209.77 69.8214 1206.16 71.8063 Q1202.6 73.7508 1197.58 73.7508 Q1189.35 73.7508 1184.17 67.1883 Q1179.02 60.6258 1179.02 49.9314 Q1179.02 39.2371 1184.17 32.6746 Q1189.35 26.1121 1197.58 26.1121 Q1202.6 26.1121 1206.16 28.0971 Q1209.77 30.0415 1212.12 34.0924 L1212.12 27.2059 L1219.57 27.2059 L1219.57 89.8329 L1212.12 89.8329 L1212.12 65.7705 Z" fill="#000000" fill-rule="nonzero" fill-opacity="1" /><path clip-path="url(#clip450)" d="M1234.16 54.671 L1234.16 27.2059 L1241.61 27.2059 L1241.61 54.3874 Q1241.61 60.8284 1244.12 64.0691 Q1246.63 67.2693 1251.66 67.2693 Q1257.69 67.2693 1261.18 63.421 Q1264.7 59.5726 1264.7 52.9291 L1264.7 27.2059 L1272.15 27.2059 L1272.15 72.576 L1264.7 72.576 L1264.7 65.6084 Q1261.99 69.7404 1258.38 71.7658 Q1254.82 73.7508 1250.08 73.7508 Q1242.26 73.7508 1238.21 68.8897 Q1234.16 64.0286 1234.16 54.671 M1252.91 26.1121 L1252.91 26.1121 Z" fill="#000000" fill-rule="nonzero" fill-opacity="1" /><path clip-path="url(#clip450)" d="M1308.13 49.7694 Q1299.09 49.7694 1295.61 51.8354 Q1292.12 53.9013 1292.12 58.8839 Q1292.12 62.8538 1294.72 65.2034 Q1297.35 67.5124 1301.85 67.5124 Q1308.04 67.5124 1311.77 63.1374 Q1315.54 58.7219 1315.54 51.4303 L1315.54 49.7694 L1308.13 49.7694 M1322.99 46.6907 L1322.99 72.576 L1315.54 72.576 L1315.54 65.6895 Q1312.99 69.8214 1309.18 71.8063 Q1305.37 73.7508 1299.86 73.7508 Q1292.89 73.7508 1288.76 69.8619 Q1284.67 65.9325 1284.67 59.3701 Q1284.67 51.7138 1289.77 47.825 Q1294.92 43.9361 1305.09 43.9361 L1315.54 43.9361 L1315.54 43.2069 Q1315.54 38.0623 1312.14 35.2672 Q1308.77 32.4315 1302.66 32.4315 Q1298.77 32.4315 1295.08 33.3632 Q1291.39 34.295 1287.99 36.1584 L1287.99 29.2718 Q1292.08 27.692 1295.93 26.9223 Q1299.78 26.1121 1303.43 26.1121 Q1313.27 26.1121 1318.13 31.2163 Q1322.99 36.3204 1322.99 46.6907 Z" fill="#000000" fill-rule="nonzero" fill-opacity="1" /><path clip-path="url(#clip450)" d="M1364.64 34.1734 Q1363.38 33.4443 1361.88 33.1202 Q1360.42 32.7556 1358.64 32.7556 Q1352.32 32.7556 1348.92 36.8875 Q1345.56 40.9789 1345.56 48.6757 L1345.56 72.576 L1338.06 72.576 L1338.06 27.2059 L1345.56 27.2059 L1345.56 34.2544 Q1347.91 30.1225 1351.67 28.1376 Q1355.44 26.1121 1360.83 26.1121 Q1361.6 26.1121 1362.53 26.2337 Q1363.46 26.3147 1364.59 26.5172 L1364.64 34.1734 Z" fill="#000000" fill-rule="nonzero" fill-opacity="1" /><path clip-path="url(#clip450)" d="M1409.44 48.0275 L1409.44 51.6733 L1375.17 51.6733 Q1375.65 59.3701 1379.79 63.421 Q1383.96 67.4314 1391.37 67.4314 Q1395.67 67.4314 1399.68 66.3781 Q1403.73 65.3249 1407.7 63.2184 L1407.7 70.267 Q1403.69 71.9684 1399.47 72.8596 Q1395.26 73.7508 1390.93 73.7508 Q1380.07 73.7508 1373.71 67.4314 Q1367.39 61.1119 1367.39 50.3365 Q1367.39 39.1965 1373.39 32.6746 Q1379.42 26.1121 1389.63 26.1121 Q1398.78 26.1121 1404.09 32.0264 Q1409.44 37.9003 1409.44 48.0275 M1401.98 45.84 Q1401.9 39.7232 1398.54 36.0774 Q1395.22 32.4315 1389.71 32.4315 Q1383.47 32.4315 1379.7 35.9558 Q1375.98 39.4801 1375.41 45.8805 L1401.98 45.84 Z" fill="#000000" fill-rule="nonzero" fill-opacity="1" /><path clip-path="url(#clip450)" d="M1451.53 34.0924 L1451.53 9.54393 L1458.98 9.54393 L1458.98 72.576 L1451.53 72.576 L1451.53 65.7705 Q1449.18 69.8214 1445.57 71.8063 Q1442.01 73.7508 1436.98 73.7508 Q1428.76 73.7508 1423.58 67.1883 Q1418.43 60.6258 1418.43 49.9314 Q1418.43 39.2371 1423.58 32.6746 Q1428.76 26.1121 1436.98 26.1121 Q1442.01 26.1121 1445.57 28.0971 Q1449.18 30.0415 1451.53 34.0924 M1426.13 49.9314 Q1426.13 58.1548 1429.49 62.8538 Q1432.89 67.5124 1438.81 67.5124 Q1444.72 67.5124 1448.12 62.8538 Q1451.53 58.1548 1451.53 49.9314 Q1451.53 41.7081 1448.12 37.0496 Q1444.72 32.3505 1438.81 32.3505 Q1432.89 32.3505 1429.49 37.0496 Q1426.13 41.7081 1426.13 49.9314 Z" fill="#000000" fill-rule="nonzero" fill-opacity="1" /><path clip-path="url(#clip450)" d="M1501.03 12.096 L1539.27 12.096 L1539.27 18.9825 L1509.21 18.9825 L1509.21 36.8875 L1538.01 36.8875 L1538.01 43.7741 L1509.21 43.7741 L1509.21 65.6895 L1540 65.6895 L1540 72.576 L1501.03 72.576 L1501.03 12.096 Z" fill="#000000" fill-rule="nonzero" fill-opacity="1" /><path clip-path="url(#clip450)" d="M1579.41 34.1734 Q1578.16 33.4443 1576.66 33.1202 Q1575.2 32.7556 1573.42 32.7556 Q1567.1 32.7556 1563.7 36.8875 Q1560.33 40.9789 1560.33 48.6757 L1560.33 72.576 L1552.84 72.576 L1552.84 27.2059 L1560.33 27.2059 L1560.33 34.2544 Q1562.68 30.1225 1566.45 28.1376 Q1570.22 26.1121 1575.61 26.1121 Q1576.38 26.1121 1577.31 26.2337 Q1578.24 26.3147 1579.37 26.5172 L1579.41 34.1734 Z" fill="#000000" fill-rule="nonzero" fill-opacity="1" /><path clip-path="url(#clip450)" d="M1612.06 34.1734 Q1610.81 33.4443 1609.31 33.1202 Q1607.85 32.7556 1606.07 32.7556 Q1599.75 32.7556 1596.35 36.8875 Q1592.98 40.9789 1592.98 48.6757 L1592.98 72.576 L1585.49 72.576 L1585.49 27.2059 L1592.98 27.2059 L1592.98 34.2544 Q1595.33 30.1225 1599.1 28.1376 Q1602.87 26.1121 1608.26 26.1121 Q1609.03 26.1121 1609.96 26.2337 Q1610.89 26.3147 1612.02 26.5172 L1612.06 34.1734 Z" fill="#000000" fill-rule="nonzero" fill-opacity="1" /><path clip-path="url(#clip450)" d="M1635.64 32.4315 Q1629.65 32.4315 1626.16 37.1306 Q1622.68 41.7891 1622.68 49.9314 Q1622.68 58.0738 1626.12 62.7728 Q1629.6 67.4314 1635.64 67.4314 Q1641.6 67.4314 1645.08 62.7323 Q1648.56 58.0333 1648.56 49.9314 Q1648.56 41.8701 1645.08 37.1711 Q1641.6 32.4315 1635.64 32.4315 M1635.64 26.1121 Q1645.36 26.1121 1650.91 32.4315 Q1656.46 38.7509 1656.46 49.9314 Q1656.46 61.0714 1650.91 67.4314 Q1645.36 73.7508 1635.64 73.7508 Q1625.88 73.7508 1620.33 67.4314 Q1614.82 61.0714 1614.82 49.9314 Q1614.82 38.7509 1620.33 32.4315 Q1625.88 26.1121 1635.64 26.1121 Z" fill="#000000" fill-rule="nonzero" fill-opacity="1" /><path clip-path="url(#clip450)" d="M1695.11 34.1734 Q1693.85 33.4443 1692.35 33.1202 Q1690.9 32.7556 1689.11 32.7556 Q1682.79 32.7556 1679.39 36.8875 Q1676.03 40.9789 1676.03 48.6757 L1676.03 72.576 L1668.53 72.576 L1668.53 27.2059 L1676.03 27.2059 L1676.03 34.2544 Q1678.38 30.1225 1682.15 28.1376 Q1685.91 26.1121 1691.3 26.1121 Q1692.07 26.1121 1693 26.2337 Q1693.93 26.3147 1695.07 26.5172 L1695.11 34.1734 Z" fill="#000000" fill-rule="nonzero" fill-opacity="1" /><polyline clip-path="url(#clip452)" style="stroke:#009af9; stroke-linecap:round; stroke-linejoin:round; stroke-width:4; stroke-opacity:1; fill:none" points="280.231,565.279 309.393,528.334 338.555,560.449 367.716,474.3 396.878,554.658 426.04,583.801 455.202,558.784 484.363,637.077 513.525,616.888 542.687,677.086 571.848,603.54 601.01,608.682 630.172,618.365 659.334,597.936 688.495,597.782 717.657,467.937 746.819,504.789 775.981,583.265 805.142,518.027 834.304,519.634 863.466,522.257 892.628,585.719 921.789,648.523 950.951,673.271 980.113,656.861 1009.27,648.02 1038.44,603.831 1067.6,568.932 1096.76,552.733 1125.92,562.666 1155.08,439.718 1184.24,550.941 1213.41,534.363 1242.57,499.673 1271.73,496.067 1300.89,519.522 1330.05,552.799 1359.22,567.579 1388.38,617.572 1417.54,601.152 1446.7,576.366 1475.86,576.653 1505.02,560.462 1534.19,523.528 1563.35,592.639 1592.51,634.239 1621.67,531.01 1650.83,521.44 1679.99,501.372 1709.16,542.13 1738.32,552.091 1767.48,552.34 1796.64,613.902 1825.8,638.161 1854.97,608.466 1884.13,646.326 1913.29,650.882 1942.45,601.259 1971.61,644.872 2000.77,699.156 2029.94,170.083 2059.1,191.106 2088.26,208.539 2117.42,170.078 2146.58,160.347 2175.74,163.517 2204.91,175.144 2234.07,171.491 2263.23,168.492 2292.39,160.256 "/>
<polyline clip-path="url(#clip452)" style="stroke:#e26f46; stroke-linecap:round; stroke-linejoin:round; stroke-width:4; stroke-opacity:1; fill:none" points="280.231,1080.21 309.393,1028.32 338.555,1188.43 367.716,1070.4 396.878,1132.67 426.04,1107 455.202,1051.17 484.363,1312.66 513.525,1141.28 542.687,1182.83 571.848,1212.94 601.01,1275.38 630.172,1311.61 659.334,1237 688.495,1314.08 717.657,1173.9 746.819,1174.43 775.981,1235.85 805.142,1183.78 834.304,1203.59 863.466,992.775 892.628,1201.57 921.789,1292.24 950.951,1314.42 980.113,1369.41 1009.27,1357.16 1038.44,1342.49 1067.6,1183.23 1096.76,1335.37 1125.92,1196.68 1155.08,911.687 1184.24,1155.55 1213.41,1088.82 1242.57,1172.18 1271.73,1179.17 1300.89,1098.64 1330.05,1130.6 1359.22,1263.7 1388.38,1297.09 1417.54,1271.57 1446.7,1305.39 1475.86,1288.12 1505.02,1197.33 1534.19,1290.46 1563.35,1251.36 1592.51,1187.69 1621.67,1080.75 1650.83,968.878 1679.99,1280.62 1709.16,1158.94 1738.32,1159.64 1767.48,1127.56 1796.64,1080.23 1825.8,1318.92 1854.97,1280.22 1884.13,1270.91 1913.29,1346.06 1942.45,1273.41 1971.61,1320.44 2000.77,1301.47 2029.94,244.01 2059.1,498.289 2088.26,214.449 2117.42,198.623 2146.58,197.266 2175.74,176.574 2204.91,355.162 2234.07,217.745 2263.23,208.113 2292.39,220.356 "/>
<polyline clip-path="url(#clip452)" style="stroke:#3da44d; stroke-linecap:round; stroke-linejoin:round; stroke-width:4; stroke-opacity:1; fill:none" points="280.231,1115.8 309.393,1057.89 338.555,1213.47 367.716,974.648 396.878,1104.44 426.04,1069.33 455.202,1060.66 484.363,1201.8 513.525,1140.45 542.687,1229.63 571.848,1240.78 601.01,1237.93 630.172,1310.76 659.334,1310.07 688.495,1296.21 717.657,1188.25 746.819,1152.77 775.981,1231.34 805.142,1161.36 834.304,1210.34 863.466,974.483 892.628,1213.94 921.789,1309.07 950.951,1285.8 980.113,1386.4 1009.27,1381.22 1038.44,1293.02 1067.6,1231.89 1096.76,1370.16 1125.92,1264.43 1155.08,920.749 1184.24,1094.76 1213.41,1125.52 1242.57,1201.87 1271.73,1195.69 1300.89,1074.07 1330.05,1123.69 1359.22,1248.79 1388.38,1294.5 1417.54,1278.44 1446.7,1277.5 1475.86,1304.65 1505.02,1119.44 1534.19,1341.03 1563.35,1244.22 1592.51,1148.18 1621.67,930.165 1650.83,1071.3 1679.99,1344.32 1709.16,1265.85 1738.32,1052.56 1767.48,1154.91 1796.64,1231.45 1825.8,1360.54 1854.97,1298.71 1884.13,1294.26 1913.29,1353.77 1942.45,1301.17 1971.61,1372.63 2000.77,1326.53 2029.94,247.945 2059.1,556.055 2088.26,502.75 2117.42,189.362 2146.58,208.816 2175.74,196.167 2204.91,352.751 2234.07,244.229 2263.23,364.491 2292.39,213.26 "/>
<path clip-path="url(#clip450)" d="M290.963 374.156 L618.464 374.156 L618.464 166.796 L290.963 166.796  Z" fill="#ffffff" fill-rule="evenodd" fill-opacity="1"/>
<polyline clip-path="url(#clip450)" style="stroke:#000000; stroke-linecap:round; stroke-linejoin:round; stroke-width:4; stroke-opacity:1; fill:none" points="290.963,374.156 618.464,374.156 618.464,166.796 290.963,166.796 290.963,374.156 "/>
<polyline clip-path="url(#clip450)" style="stroke:#009af9; stroke-linecap:round; stroke-linejoin:round; stroke-width:4; stroke-opacity:1; fill:none" points="314.661,218.636 456.854,218.636 "/>
<path clip-path="url(#clip450)" d="M487.96 202.629 L487.96 209.99 L496.733 209.99 L496.733 213.3 L487.96 213.3 L487.96 227.374 Q487.96 230.545 488.817 231.448 Q489.696 232.351 492.358 232.351 L496.733 232.351 L496.733 235.916 L492.358 235.916 Q487.428 235.916 485.553 234.087 Q483.678 232.235 483.678 227.374 L483.678 213.3 L480.553 213.3 L480.553 209.99 L483.678 209.99 L483.678 202.629 L487.96 202.629 Z" fill="#000000" fill-rule="nonzero" fill-opacity="1" /><path clip-path="url(#clip450)" d="M502.891 214.388 L532.566 214.388 L532.566 218.277 L502.891 218.277 L502.891 214.388 M502.891 223.832 L532.566 223.832 L532.566 227.768 L502.891 227.768 L502.891 223.832 Z" fill="#000000" fill-rule="nonzero" fill-opacity="1" /><path clip-path="url(#clip450)" d="M543.469 231.981 L551.108 231.981 L551.108 205.615 L542.798 207.282 L542.798 203.022 L551.062 201.356 L555.738 201.356 L555.738 231.981 L563.376 231.981 L563.376 235.916 L543.469 235.916 L543.469 231.981 Z" fill="#000000" fill-rule="nonzero" fill-opacity="1" /><polyline clip-path="url(#clip450)" style="stroke:#e26f46; stroke-linecap:round; stroke-linejoin:round; stroke-width:4; stroke-opacity:1; fill:none" points="314.661,270.476 456.854,270.476 "/>
<path clip-path="url(#clip450)" d="M487.96 254.469 L487.96 261.83 L496.733 261.83 L496.733 265.14 L487.96 265.14 L487.96 279.214 Q487.96 282.385 488.817 283.288 Q489.696 284.191 492.358 284.191 L496.733 284.191 L496.733 287.756 L492.358 287.756 Q487.428 287.756 485.553 285.927 Q483.678 284.075 483.678 279.214 L483.678 265.14 L480.553 265.14 L480.553 261.83 L483.678 261.83 L483.678 254.469 L487.96 254.469 Z" fill="#000000" fill-rule="nonzero" fill-opacity="1" /><path clip-path="url(#clip450)" d="M502.891 266.228 L532.566 266.228 L532.566 270.117 L502.891 270.117 L502.891 266.228 M502.891 275.672 L532.566 275.672 L532.566 279.608 L502.891 279.608 L502.891 275.672 Z" fill="#000000" fill-rule="nonzero" fill-opacity="1" /><path clip-path="url(#clip450)" d="M542.705 253.196 L561.062 253.196 L561.062 257.131 L546.988 257.131 L546.988 265.603 Q548.006 265.256 549.025 265.094 Q550.043 264.909 551.062 264.909 Q556.849 264.909 560.228 268.08 Q563.608 271.251 563.608 276.668 Q563.608 282.246 560.136 285.348 Q556.663 288.427 550.344 288.427 Q548.168 288.427 545.9 288.057 Q543.654 287.686 541.247 286.946 L541.247 282.246 Q543.33 283.381 545.552 283.936 Q547.775 284.492 550.251 284.492 Q554.256 284.492 556.594 282.385 Q558.932 280.279 558.932 276.668 Q558.932 273.057 556.594 270.95 Q554.256 268.844 550.251 268.844 Q548.376 268.844 546.501 269.26 Q544.65 269.677 542.705 270.557 L542.705 253.196 Z" fill="#000000" fill-rule="nonzero" fill-opacity="1" /><polyline clip-path="url(#clip450)" style="stroke:#3da44d; stroke-linecap:round; stroke-linejoin:round; stroke-width:4; stroke-opacity:1; fill:none" points="314.661,322.316 456.854,322.316 "/>
<path clip-path="url(#clip450)" d="M487.96 306.309 L487.96 313.67 L496.733 313.67 L496.733 316.98 L487.96 316.98 L487.96 331.054 Q487.96 334.225 488.817 335.128 Q489.696 336.031 492.358 336.031 L496.733 336.031 L496.733 339.596 L492.358 339.596 Q487.428 339.596 485.553 337.767 Q483.678 335.915 483.678 331.054 L483.678 316.98 L480.553 316.98 L480.553 313.67 L483.678 313.67 L483.678 306.309 L487.96 306.309 Z" fill="#000000" fill-rule="nonzero" fill-opacity="1" /><path clip-path="url(#clip450)" d="M502.891 318.068 L532.566 318.068 L532.566 321.957 L502.891 321.957 L502.891 318.068 M502.891 327.512 L532.566 327.512 L532.566 331.448 L502.891 331.448 L502.891 327.512 Z" fill="#000000" fill-rule="nonzero" fill-opacity="1" /><path clip-path="url(#clip450)" d="M543.469 335.661 L551.108 335.661 L551.108 309.295 L542.798 310.962 L542.798 306.702 L551.062 305.036 L555.738 305.036 L555.738 335.661 L563.376 335.661 L563.376 339.596 L543.469 339.596 L543.469 335.661 Z" fill="#000000" fill-rule="nonzero" fill-opacity="1" /><path clip-path="url(#clip450)" d="M582.821 308.114 Q579.21 308.114 577.381 311.679 Q575.575 315.221 575.575 322.35 Q575.575 329.457 577.381 333.022 Q579.21 336.563 582.821 336.563 Q586.455 336.563 588.261 333.022 Q590.089 329.457 590.089 322.35 Q590.089 315.221 588.261 311.679 Q586.455 308.114 582.821 308.114 M582.821 304.411 Q588.631 304.411 591.686 309.017 Q594.765 313.6 594.765 322.35 Q594.765 331.077 591.686 335.684 Q588.631 340.267 582.821 340.267 Q577.011 340.267 573.932 335.684 Q570.876 331.077 570.876 322.35 Q570.876 313.6 573.932 309.017 Q577.011 304.411 582.821 304.411 Z" fill="#000000" fill-rule="nonzero" fill-opacity="1" /></svg>
