<?xml version="1.0" encoding="utf-8"?>
<svg xmlns="http://www.w3.org/2000/svg" xmlns:xlink="http://www.w3.org/1999/xlink" width="600" height="400" viewBox="0 0 2400 1600">
<defs>
  <clipPath id="clip520">
    <rect x="0" y="0" width="2400" height="1600"/>
  </clipPath>
</defs>
<path clip-path="url(#clip520)" d="M0 1600 L2400 1600 L2400 8.88178e-14 L0 8.88178e-14  Z" fill="#ffffff" fill-rule="evenodd" fill-opacity="1"/>
<defs>
  <clipPath id="clip521">
    <rect x="480" y="0" width="1681" height="1600"/>
  </clipPath>
</defs>
<path clip-path="url(#clip520)" d="M219.38 1423.18 L2352.76 1423.18 L2352.76 123.472 L219.38 123.472  Z" fill="#ffffff" fill-rule="evenodd" fill-opacity="1"/>
<defs>
  <clipPath id="clip522">
    <rect x="219" y="123" width="2134" height="1301"/>
  </clipPath>
</defs>
<polyline clip-path="url(#clip522)" style="stroke:#000000; stroke-linecap:round; stroke-linejoin:round; stroke-width:2; stroke-opacity:0.1; fill:none" points="279.759,1423.18 279.759,123.472 "/>
<polyline clip-path="url(#clip522)" style="stroke:#000000; stroke-linecap:round; stroke-linejoin:round; stroke-width:2; stroke-opacity:0.1; fill:none" points="950.632,1423.18 950.632,123.472 "/>
<polyline clip-path="url(#clip522)" style="stroke:#000000; stroke-linecap:round; stroke-linejoin:round; stroke-width:2; stroke-opacity:0.1; fill:none" points="1621.5,1423.18 1621.5,123.472 "/>
<polyline clip-path="url(#clip522)" style="stroke:#000000; stroke-linecap:round; stroke-linejoin:round; stroke-width:2; stroke-opacity:0.1; fill:none" points="2292.38,1423.18 2292.38,123.472 "/>
<polyline clip-path="url(#clip520)" style="stroke:#000000; stroke-linecap:round; stroke-linejoin:round; stroke-width:4; stroke-opacity:1; fill:none" points="219.38,1423.18 2352.76,1423.18 "/>
<polyline clip-path="url(#clip520)" style="stroke:#000000; stroke-linecap:round; stroke-linejoin:round; stroke-width:4; stroke-opacity:1; fill:none" points="279.759,1423.18 279.759,1404.28 "/>
<polyline clip-path="url(#clip520)" style="stroke:#000000; stroke-linecap:round; stroke-linejoin:round; stroke-width:4; stroke-opacity:1; fill:none" points="950.632,1423.18 950.632,1404.28 "/>
<polyline clip-path="url(#clip520)" style="stroke:#000000; stroke-linecap:round; stroke-linejoin:round; stroke-width:4; stroke-opacity:1; fill:none" points="1621.5,1423.18 1621.5,1404.28 "/>
<polyline clip-path="url(#clip520)" style="stroke:#000000; stroke-linecap:round; stroke-linejoin:round; stroke-width:4; stroke-opacity:1; fill:none" points="2292.38,1423.18 2292.38,1404.28 "/>
<path clip-path="url(#clip520)" d="M270.141 1481.64 L277.78 1481.64 L277.78 1455.28 L269.469 1456.95 L269.469 1452.69 L277.733 1451.02 L282.409 1451.02 L282.409 1481.64 L290.048 1481.64 L290.048 1485.58 L270.141 1485.58 L270.141 1481.64 Z" fill="#000000" fill-rule="nonzero" fill-opacity="1" /><path clip-path="url(#clip520)" d="M945.284 1481.64 L961.604 1481.64 L961.604 1485.58 L939.659 1485.58 L939.659 1481.64 Q942.321 1478.89 946.905 1474.26 Q951.511 1469.61 952.692 1468.27 Q954.937 1465.74 955.817 1464.01 Q956.72 1462.25 956.72 1460.56 Q956.72 1457.8 954.775 1456.07 Q952.854 1454.33 949.752 1454.33 Q947.553 1454.33 945.099 1455.09 Q942.669 1455.86 939.891 1457.41 L939.891 1452.69 Q942.715 1451.55 945.169 1450.97 Q947.622 1450.39 949.659 1450.39 Q955.03 1450.39 958.224 1453.08 Q961.419 1455.77 961.419 1460.26 Q961.419 1462.39 960.608 1464.31 Q959.821 1466.2 957.715 1468.8 Q957.136 1469.47 954.034 1472.69 Q950.933 1475.88 945.284 1481.64 Z" fill="#000000" fill-rule="nonzero" fill-opacity="1" /><path clip-path="url(#clip520)" d="M1625.75 1466.95 Q1629.11 1467.66 1630.98 1469.93 Q1632.88 1472.2 1632.88 1475.53 Q1632.88 1480.65 1629.36 1483.45 Q1625.84 1486.25 1619.36 1486.25 Q1617.19 1486.25 1614.87 1485.81 Q1612.58 1485.39 1610.13 1484.54 L1610.13 1480.02 Q1612.07 1481.16 1614.39 1481.74 Q1616.7 1482.32 1619.22 1482.32 Q1623.62 1482.32 1625.91 1480.58 Q1628.23 1478.84 1628.23 1475.53 Q1628.23 1472.48 1626.08 1470.77 Q1623.95 1469.03 1620.13 1469.03 L1616.1 1469.03 L1616.1 1465.19 L1620.31 1465.19 Q1623.76 1465.19 1625.59 1463.82 Q1627.42 1462.43 1627.42 1459.84 Q1627.42 1457.18 1625.52 1455.77 Q1623.65 1454.33 1620.13 1454.33 Q1618.21 1454.33 1616.01 1454.75 Q1613.81 1455.16 1611.17 1456.04 L1611.17 1451.88 Q1613.83 1451.14 1616.15 1450.77 Q1618.48 1450.39 1620.54 1450.39 Q1625.87 1450.39 1628.97 1452.83 Q1632.07 1455.23 1632.07 1459.35 Q1632.07 1462.22 1630.43 1464.21 Q1628.78 1466.18 1625.75 1466.95 Z" fill="#000000" fill-rule="nonzero" fill-opacity="1" /><path clip-path="url(#clip520)" d="M2295.39 1455.09 L2283.58 1473.54 L2295.39 1473.54 L2295.39 1455.09 M2294.16 1451.02 L2300.04 1451.02 L2300.04 1473.54 L2304.97 1473.54 L2304.97 1477.43 L2300.04 1477.43 L2300.04 1485.58 L2295.39 1485.58 L2295.39 1477.43 L2279.78 1477.43 L2279.78 1472.92 L2294.16 1451.02 Z" fill="#000000" fill-rule="nonzero" fill-opacity="1" /><path clip-path="url(#clip520)" d="M1221.63 1561.26 L1221.63 1548.5 L1211.13 1548.5 L1211.13 1543.22 L1228 1543.22 L1228 1563.62 Q1224.27 1566.26 1219.79 1567.63 Q1215.3 1568.97 1210.2 1568.97 Q1199.06 1568.97 1192.76 1562.47 Q1186.49 1555.95 1186.49 1544.33 Q1186.49 1532.68 1192.76 1526.19 Q1199.06 1519.66 1210.2 1519.66 Q1214.85 1519.66 1219.02 1520.81 Q1223.22 1521.96 1226.76 1524.18 L1226.76 1531.03 Q1223.19 1528 1219.18 1526.48 Q1215.17 1524.95 1210.75 1524.95 Q1202.02 1524.95 1197.63 1529.82 Q1193.27 1534.69 1193.27 1544.33 Q1193.27 1553.94 1197.63 1558.81 Q1202.02 1563.68 1210.75 1563.68 Q1214.15 1563.68 1216.83 1563.11 Q1219.5 1562.51 1221.63 1561.26 Z" fill="#000000" fill-rule="nonzero" fill-opacity="1" /><path clip-path="url(#clip520)" d="M1269.98 1548.76 L1269.98 1551.62 L1243.05 1551.62 Q1243.43 1557.67 1246.68 1560.85 Q1249.96 1564 1255.78 1564 Q1259.16 1564 1262.31 1563.17 Q1265.49 1562.35 1268.61 1560.69 L1268.61 1566.23 Q1265.46 1567.57 1262.15 1568.27 Q1258.84 1568.97 1255.43 1568.97 Q1246.9 1568.97 1241.91 1564 Q1236.94 1559.04 1236.94 1550.57 Q1236.94 1541.82 1241.65 1536.69 Q1246.39 1531.54 1254.41 1531.54 Q1261.61 1531.54 1265.78 1536.18 Q1269.98 1540.8 1269.98 1548.76 M1264.12 1547.04 Q1264.06 1542.23 1261.42 1539.37 Q1258.81 1536.5 1254.48 1536.5 Q1249.58 1536.5 1246.62 1539.27 Q1243.69 1542.04 1243.24 1547.07 L1264.12 1547.04 Z" fill="#000000" fill-rule="nonzero" fill-opacity="1" /><path clip-path="url(#clip520)" d="M1309.22 1546.53 L1309.22 1568.04 L1303.37 1568.04 L1303.37 1546.72 Q1303.37 1541.66 1301.39 1539.14 Q1299.42 1536.63 1295.47 1536.63 Q1290.73 1536.63 1287.99 1539.65 Q1285.26 1542.68 1285.26 1547.9 L1285.26 1568.04 L1279.37 1568.04 L1279.37 1532.4 L1285.26 1532.4 L1285.26 1537.93 Q1287.36 1534.72 1290.19 1533.13 Q1293.05 1531.54 1296.78 1531.54 Q1302.92 1531.54 1306.07 1535.36 Q1309.22 1539.14 1309.22 1546.53 Z" fill="#000000" fill-rule="nonzero" fill-opacity="1" /><path clip-path="url(#clip520)" d="M1351.4 1548.76 L1351.4 1551.62 L1324.47 1551.62 Q1324.85 1557.67 1328.1 1560.85 Q1331.38 1564 1337.2 1564 Q1340.57 1564 1343.73 1563.17 Q1346.91 1562.35 1350.03 1560.69 L1350.03 1566.23 Q1346.88 1567.57 1343.57 1568.27 Q1340.26 1568.97 1336.85 1568.97 Q1328.32 1568.97 1323.32 1564 Q1318.36 1559.04 1318.36 1550.57 Q1318.36 1541.82 1323.07 1536.69 Q1327.81 1531.54 1335.83 1531.54 Q1343.03 1531.54 1347.19 1536.18 Q1351.4 1540.8 1351.4 1548.76 M1345.54 1547.04 Q1345.48 1542.23 1342.83 1539.37 Q1340.22 1536.5 1335.9 1536.5 Q1330.99 1536.5 1328.03 1539.27 Q1325.11 1542.04 1324.66 1547.07 L1345.54 1547.04 Z" fill="#000000" fill-rule="nonzero" fill-opacity="1" /><path clip-path="url(#clip520)" d="M1383.73 1533.45 L1383.73 1538.98 Q1381.25 1537.71 1378.58 1537.07 Q1375.9 1536.44 1373.04 1536.44 Q1368.68 1536.44 1366.48 1537.77 Q1364.32 1539.11 1364.32 1541.79 Q1364.32 1543.82 1365.88 1545 Q1367.44 1546.15 1372.15 1547.2 L1374.15 1547.64 Q1380.39 1548.98 1383 1551.43 Q1385.64 1553.85 1385.64 1558.21 Q1385.64 1563.17 1381.7 1566.07 Q1377.78 1568.97 1370.91 1568.97 Q1368.04 1568.97 1364.92 1568.39 Q1361.84 1567.85 1358.4 1566.74 L1358.4 1560.69 Q1361.64 1562.38 1364.8 1563.24 Q1367.95 1564.07 1371.03 1564.07 Q1375.17 1564.07 1377.4 1562.66 Q1379.63 1561.23 1379.63 1558.65 Q1379.63 1556.27 1378 1554.99 Q1376.41 1553.72 1370.97 1552.54 L1368.93 1552.07 Q1363.49 1550.92 1361.07 1548.56 Q1358.65 1546.18 1358.65 1542.04 Q1358.65 1537.01 1362.22 1534.27 Q1365.78 1531.54 1372.34 1531.54 Q1375.59 1531.54 1378.45 1532.01 Q1381.31 1532.49 1383.73 1533.45 Z" fill="#000000" fill-rule="nonzero" fill-opacity="1" /><polyline clip-path="url(#clip522)" style="stroke:#000000; stroke-linecap:round; stroke-linejoin:round; stroke-width:2; stroke-opacity:0.1; fill:none" points="219.38,1393.1 2352.76,1393.1 "/>
<polyline clip-path="url(#clip522)" style="stroke:#000000; stroke-linecap:round; stroke-linejoin:round; stroke-width:2; stroke-opacity:0.1; fill:none" points="219.38,986.136 2352.76,986.136 "/>
<polyline clip-path="url(#clip522)" style="stroke:#000000; stroke-linecap:round; stroke-linejoin:round; stroke-width:2; stroke-opacity:0.1; fill:none" points="219.38,579.176 2352.76,579.176 "/>
<polyline clip-path="url(#clip522)" style="stroke:#000000; stroke-linecap:round; stroke-linejoin:round; stroke-width:2; stroke-opacity:0.1; fill:none" points="219.38,172.216 2352.76,172.216 "/>
<polyline clip-path="url(#clip520)" style="stroke:#000000; stroke-linecap:round; stroke-linejoin:round; stroke-width:4; stroke-opacity:1; fill:none" points="219.38,1423.18 219.38,123.472 "/>
<polyline clip-path="url(#clip520)" style="stroke:#000000; stroke-linecap:round; stroke-linejoin:round; stroke-width:4; stroke-opacity:1; fill:none" points="219.38,1393.1 238.278,1393.1 "/>
<polyline clip-path="url(#clip520)" style="stroke:#000000; stroke-linecap:round; stroke-linejoin:round; stroke-width:4; stroke-opacity:1; fill:none" points="219.38,986.136 238.278,986.136 "/>
<polyline clip-path="url(#clip520)" style="stroke:#000000; stroke-linecap:round; stroke-linejoin:round; stroke-width:4; stroke-opacity:1; fill:none" points="219.38,579.176 238.278,579.176 "/>
<polyline clip-path="url(#clip520)" style="stroke:#000000; stroke-linecap:round; stroke-linejoin:round; stroke-width:4; stroke-opacity:1; fill:none" points="219.38,172.216 238.278,172.216 "/>
<path clip-path="url(#clip520)" d="M126.205 1378.89 Q122.593 1378.89 120.765 1382.46 Q118.959 1386 118.959 1393.13 Q118.959 1400.24 120.765 1403.8 Q122.593 1407.34 126.205 1407.34 Q129.839 1407.34 131.644 1403.8 Q133.473 1400.24 133.473 1393.13 Q133.473 1386 131.644 1382.46 Q129.839 1378.89 126.205 1378.89 M126.205 1375.19 Q132.015 1375.19 135.07 1379.8 Q138.149 1384.38 138.149 1393.13 Q138.149 1401.86 135.07 1406.46 Q132.015 1411.05 126.205 1411.05 Q120.394 1411.05 117.316 1406.46 Q114.26 1401.86 114.26 1393.13 Q114.26 1384.38 117.316 1379.8 Q120.394 1375.19 126.205 1375.19 Z" fill="#000000" fill-rule="nonzero" fill-opacity="1" /><path clip-path="url(#clip520)" d="M146.366 1404.5 L151.251 1404.5 L151.251 1410.38 L146.366 1410.38 L146.366 1404.5 Z" fill="#000000" fill-rule="nonzero" fill-opacity="1" /><path clip-path="url(#clip520)" d="M171.436 1378.89 Q167.825 1378.89 165.996 1382.46 Q164.19 1386 164.19 1393.13 Q164.19 1400.24 165.996 1403.8 Q167.825 1407.34 171.436 1407.34 Q175.07 1407.34 176.876 1403.8 Q178.704 1400.24 178.704 1393.13 Q178.704 1386 176.876 1382.46 Q175.07 1378.89 171.436 1378.89 M171.436 1375.19 Q177.246 1375.19 180.301 1379.8 Q183.38 1384.38 183.38 1393.13 Q183.38 1401.86 180.301 1406.46 Q177.246 1411.05 171.436 1411.05 Q165.626 1411.05 162.547 1406.46 Q159.491 1401.86 159.491 1393.13 Q159.491 1384.38 162.547 1379.8 Q165.626 1375.19 171.436 1375.19 Z" fill="#000000" fill-rule="nonzero" fill-opacity="1" /><path clip-path="url(#clip520)" d="M127.431 971.935 Q123.82 971.935 121.992 975.5 Q120.186 979.041 120.186 986.171 Q120.186 993.277 121.992 996.842 Q123.82 1000.38 127.431 1000.38 Q131.066 1000.38 132.871 996.842 Q134.7 993.277 134.7 986.171 Q134.7 979.041 132.871 975.5 Q131.066 971.935 127.431 971.935 M127.431 968.231 Q133.242 968.231 136.297 972.838 Q139.376 977.421 139.376 986.171 Q139.376 994.898 136.297 999.504 Q133.242 1004.09 127.431 1004.09 Q121.621 1004.09 118.543 999.504 Q115.487 994.898 115.487 986.171 Q115.487 977.421 118.543 972.838 Q121.621 968.231 127.431 968.231 Z" fill="#000000" fill-rule="nonzero" fill-opacity="1" /><path clip-path="url(#clip520)" d="M147.593 997.536 L152.478 997.536 L152.478 1003.42 L147.593 1003.42 L147.593 997.536 Z" fill="#000000" fill-rule="nonzero" fill-opacity="1" /><path clip-path="url(#clip520)" d="M163.473 999.481 L171.112 999.481 L171.112 973.115 L162.802 974.782 L162.802 970.523 L171.065 968.856 L175.741 968.856 L175.741 999.481 L183.38 999.481 L183.38 1003.42 L163.473 1003.42 L163.473 999.481 Z" fill="#000000" fill-rule="nonzero" fill-opacity="1" /><path clip-path="url(#clip520)" d="M127.802 564.975 Q124.191 564.975 122.362 568.54 Q120.556 572.081 120.556 579.211 Q120.556 586.317 122.362 589.882 Q124.191 593.424 127.802 593.424 Q131.436 593.424 133.242 589.882 Q135.07 586.317 135.07 579.211 Q135.07 572.081 133.242 568.54 Q131.436 564.975 127.802 564.975 M127.802 561.271 Q133.612 561.271 136.667 565.878 Q139.746 570.461 139.746 579.211 Q139.746 587.938 136.667 592.544 Q133.612 597.128 127.802 597.128 Q121.992 597.128 118.913 592.544 Q115.857 587.938 115.857 579.211 Q115.857 570.461 118.913 565.878 Q121.992 561.271 127.802 561.271 Z" fill="#000000" fill-rule="nonzero" fill-opacity="1" /><path clip-path="url(#clip520)" d="M147.964 590.577 L152.848 590.577 L152.848 596.456 L147.964 596.456 L147.964 590.577 Z" fill="#000000" fill-rule="nonzero" fill-opacity="1" /><path clip-path="url(#clip520)" d="M167.061 592.521 L183.38 592.521 L183.38 596.456 L161.436 596.456 L161.436 592.521 Q164.098 589.767 168.681 585.137 Q173.288 580.484 174.468 579.142 Q176.714 576.618 177.593 574.882 Q178.496 573.123 178.496 571.433 Q178.496 568.679 176.551 566.943 Q174.63 565.206 171.528 565.206 Q169.329 565.206 166.876 565.97 Q164.445 566.734 161.667 568.285 L161.667 563.563 Q164.491 562.429 166.945 561.85 Q169.399 561.271 171.436 561.271 Q176.806 561.271 180.001 563.956 Q183.195 566.642 183.195 571.132 Q183.195 573.262 182.385 575.183 Q181.598 577.081 179.491 579.674 Q178.913 580.345 175.811 583.563 Q172.709 586.757 167.061 592.521 Z" fill="#000000" fill-rule="nonzero" fill-opacity="1" /><path clip-path="url(#clip520)" d="M126.853 158.015 Q123.242 158.015 121.413 161.58 Q119.607 165.122 119.607 172.251 Q119.607 179.358 121.413 182.922 Q123.242 186.464 126.853 186.464 Q130.487 186.464 132.292 182.922 Q134.121 179.358 134.121 172.251 Q134.121 165.122 132.292 161.58 Q130.487 158.015 126.853 158.015 M126.853 154.311 Q132.663 154.311 135.718 158.918 Q138.797 163.501 138.797 172.251 Q138.797 180.978 135.718 185.584 Q132.663 190.168 126.853 190.168 Q121.043 190.168 117.964 185.584 Q114.908 180.978 114.908 172.251 Q114.908 163.501 117.964 158.918 Q121.043 154.311 126.853 154.311 Z" fill="#000000" fill-rule="nonzero" fill-opacity="1" /><path clip-path="url(#clip520)" d="M147.015 183.617 L151.899 183.617 L151.899 189.496 L147.015 189.496 L147.015 183.617 Z" fill="#000000" fill-rule="nonzero" fill-opacity="1" /><path clip-path="url(#clip520)" d="M176.251 170.862 Q179.607 171.58 181.482 173.848 Q183.38 176.117 183.38 179.45 Q183.38 184.566 179.862 187.367 Q176.343 190.168 169.862 190.168 Q167.686 190.168 165.371 189.728 Q163.079 189.311 160.626 188.455 L160.626 183.941 Q162.57 185.075 164.885 185.654 Q167.2 186.233 169.723 186.233 Q174.121 186.233 176.413 184.497 Q178.727 182.76 178.727 179.45 Q178.727 176.395 176.575 174.682 Q174.445 172.946 170.626 172.946 L166.598 172.946 L166.598 169.103 L170.811 169.103 Q174.26 169.103 176.089 167.737 Q177.917 166.348 177.917 163.756 Q177.917 161.094 176.019 159.682 Q174.144 158.247 170.626 158.247 Q168.704 158.247 166.505 158.663 Q164.306 159.08 161.667 159.96 L161.667 155.793 Q164.329 155.052 166.644 154.682 Q168.982 154.311 171.042 154.311 Q176.366 154.311 179.468 156.742 Q182.57 159.149 182.57 163.27 Q182.57 166.14 180.926 168.131 Q179.283 170.098 176.251 170.862 Z" fill="#000000" fill-rule="nonzero" fill-opacity="1" /><path clip-path="url(#clip520)" d="M16.4842 837.445 L16.4842 827.864 L48.8219 815.738 L16.4842 803.547 L16.4842 793.967 L64.0042 793.967 L64.0042 800.237 L22.277 800.237 L54.8694 812.491 L54.8694 818.952 L22.277 831.206 L64.0042 831.206 L64.0042 837.445 L16.4842 837.445 Z" fill="#000000" fill-rule="nonzero" fill-opacity="1" /><path clip-path="url(#clip520)" d="M18.0438 752.717 L24.314 752.717 Q22.5634 756.377 21.704 759.624 Q20.8447 762.87 20.8447 765.894 Q20.8447 771.146 22.8817 774.01 Q24.9187 776.843 28.6745 776.843 Q31.8255 776.843 33.4488 774.965 Q35.0402 773.055 36.0269 767.772 L36.8226 763.889 Q38.1912 756.696 41.6605 753.29 Q45.098 749.852 50.8908 749.852 Q57.7976 749.852 61.3624 754.499 Q64.9272 759.115 64.9272 768.058 Q64.9272 771.432 64.1633 775.252 Q63.3994 779.039 61.9035 783.113 L55.2831 783.113 Q57.4793 779.198 58.5933 775.443 Q59.7073 771.687 59.7073 768.058 Q59.7073 762.552 57.543 759.56 Q55.3786 756.568 51.3682 756.568 Q47.8671 756.568 45.8937 758.733 Q43.9204 760.865 42.9337 765.767 L42.1698 769.682 Q40.7375 776.875 37.682 780.09 Q34.6264 783.304 29.1837 783.304 Q22.8817 783.304 19.2532 778.88 Q15.6248 774.424 15.6248 766.626 Q15.6248 763.284 16.2295 759.815 Q16.8343 756.345 18.0438 752.717 Z" fill="#000000" fill-rule="nonzero" fill-opacity="1" /><path clip-path="url(#clip520)" d="M16.4842 739.826 L16.4842 709.78 L21.895 709.78 L21.895 733.397 L35.9632 733.397 L35.9632 710.767 L41.3741 710.767 L41.3741 733.397 L58.5933 733.397 L58.5933 709.207 L64.0042 709.207 L64.0042 739.826 L16.4842 739.826 Z" fill="#000000" fill-rule="nonzero" fill-opacity="1" /><path clip-path="url(#clip520)" d="M877.271 12.096 L889.464 12.096 L904.898 53.2532 L920.413 12.096 L932.606 12.096 L932.606 72.576 L924.626 72.576 L924.626 19.4686 L909.03 60.9499 L900.807 60.9499 L885.211 19.4686 L885.211 72.576 L877.271 72.576 L877.271 12.096 Z" fill="#000000" fill-rule="nonzero" fill-opacity="1" /><path clip-path="url(#clip520)" d="M987.334 48.0275 L987.334 51.6733 L953.063 51.6733 Q953.55 59.3701 957.681 63.421 Q961.854 67.4314 969.267 67.4314 Q973.561 67.4314 977.571 66.3781 Q981.622 65.3249 985.592 63.2184 L985.592 70.267 Q981.582 71.9684 977.369 72.8596 Q973.156 73.7508 968.821 73.7508 Q957.965 73.7508 951.605 67.4314 Q945.286 61.1119 945.286 50.3365 Q945.286 39.1965 951.281 32.6746 Q957.317 26.1121 967.525 26.1121 Q976.68 26.1121 981.987 32.0264 Q987.334 37.9003 987.334 48.0275 M979.88 45.84 Q979.799 39.7232 976.437 36.0774 Q973.115 32.4315 967.606 32.4315 Q961.368 32.4315 957.6 35.9558 Q953.874 39.4801 953.307 45.8805 L979.88 45.84 Z" fill="#000000" fill-rule="nonzero" fill-opacity="1" /><path clip-path="url(#clip520)" d="M1020.19 49.7694 Q1011.15 49.7694 1007.67 51.8354 Q1004.19 53.9013 1004.19 58.8839 Q1004.19 62.8538 1006.78 65.2034 Q1009.41 67.5124 1013.91 67.5124 Q1020.11 67.5124 1023.83 63.1374 Q1027.6 58.7219 1027.6 51.4303 L1027.6 49.7694 L1020.19 49.7694 M1035.05 46.6907 L1035.05 72.576 L1027.6 72.576 L1027.6 65.6895 Q1025.05 69.8214 1021.24 71.8063 Q1017.43 73.7508 1011.92 73.7508 Q1004.96 73.7508 1000.82 69.8619 Q996.732 65.9325 996.732 59.3701 Q996.732 51.7138 1001.84 47.825 Q1006.98 43.9361 1017.15 43.9361 L1027.6 43.9361 L1027.6 43.2069 Q1027.6 38.0623 1024.2 35.2672 Q1020.84 32.4315 1014.72 32.4315 Q1010.83 32.4315 1007.14 33.3632 Q1003.46 34.295 1000.05 36.1584 L1000.05 29.2718 Q1004.15 27.692 1007.99 26.9223 Q1011.84 26.1121 1015.49 26.1121 Q1025.33 26.1121 1030.19 31.2163 Q1035.05 36.3204 1035.05 46.6907 Z" fill="#000000" fill-rule="nonzero" fill-opacity="1" /><path clip-path="url(#clip520)" d="M1088.12 45.1919 L1088.12 72.576 L1080.67 72.576 L1080.67 45.4349 Q1080.67 38.994 1078.16 35.7938 Q1075.64 32.5936 1070.62 32.5936 Q1064.58 32.5936 1061.1 36.4419 Q1057.62 40.2903 1057.62 46.9338 L1057.62 72.576 L1050.12 72.576 L1050.12 27.2059 L1057.62 27.2059 L1057.62 34.2544 Q1060.29 30.163 1063.9 28.1376 Q1067.54 26.1121 1072.28 26.1121 Q1080.1 26.1121 1084.11 30.9732 Q1088.12 35.7938 1088.12 45.1919 Z" fill="#000000" fill-rule="nonzero" fill-opacity="1" /><path clip-path="url(#clip520)" d="M1165.94 14.0809 L1165.94 22.0612 Q1161.28 19.8332 1157.15 18.7395 Q1153.02 17.6457 1149.17 17.6457 Q1142.48 17.6457 1138.84 20.2383 Q1135.23 22.8309 1135.23 27.611 Q1135.23 31.6214 1137.62 33.6873 Q1140.05 35.7128 1146.78 36.9686 L1151.72 37.9813 Q1160.87 39.7232 1165.21 44.1387 Q1169.58 48.5136 1169.58 55.8863 Q1169.58 64.6767 1163.67 69.2137 Q1157.8 73.7508 1146.41 73.7508 Q1142.12 73.7508 1137.26 72.7785 Q1132.44 71.8063 1127.25 69.9024 L1127.25 61.4765 Q1132.23 64.2716 1137.02 65.6895 Q1141.8 67.1073 1146.41 67.1073 Q1153.42 67.1073 1157.23 64.3527 Q1161.04 61.598 1161.04 56.4939 Q1161.04 52.0379 1158.28 49.5264 Q1155.57 47.0148 1149.33 45.759 L1144.35 44.7868 Q1135.19 42.9639 1131.1 39.075 Q1127.01 35.1862 1127.01 28.2591 Q1127.01 20.2383 1132.64 15.6203 Q1138.31 11.0023 1148.24 11.0023 Q1152.49 11.0023 1156.9 11.7719 Q1161.32 12.5416 1165.94 14.0809 Z" fill="#000000" fill-rule="nonzero" fill-opacity="1" /><path clip-path="url(#clip520)" d="M1186.48 49.9314 Q1186.48 58.1548 1189.84 62.8538 Q1193.24 67.5124 1199.16 67.5124 Q1205.07 67.5124 1208.47 62.8538 Q1211.88 58.1548 1211.88 49.9314 Q1211.88 41.7081 1208.47 37.0496 Q1205.07 32.3505 1199.16 32.3505 Q1193.24 32.3505 1189.84 37.0496 Q1186.48 41.7081 1186.48 49.9314 M1211.88 65.7705 Q1209.53 69.8214 1205.92 71.8063 Q1202.36 73.7508 1197.33 73.7508 Q1189.11 73.7508 1183.92 67.1883 Q1178.78 60.6258 1178.78 49.9314 Q1178.78 39.2371 1183.92 32.6746 Q1189.11 26.1121 1197.33 26.1121 Q1202.36 26.1121 1205.92 28.0971 Q1209.53 30.0415 1211.88 34.0924 L1211.88 27.2059 L1219.33 27.2059 L1219.33 89.8329 L1211.88 89.8329 L1211.88 65.7705 Z" fill="#000000" fill-rule="nonzero" fill-opacity="1" /><path clip-path="url(#clip520)" d="M1233.91 54.671 L1233.91 27.2059 L1241.37 27.2059 L1241.37 54.3874 Q1241.37 60.8284 1243.88 64.0691 Q1246.39 67.2693 1251.41 67.2693 Q1257.45 67.2693 1260.93 63.421 Q1264.46 59.5726 1264.46 52.9291 L1264.46 27.2059 L1271.91 27.2059 L1271.91 72.576 L1264.46 72.576 L1264.46 65.6084 Q1261.74 69.7404 1258.14 71.7658 Q1254.57 73.7508 1249.83 73.7508 Q1242.01 73.7508 1237.96 68.8897 Q1233.91 64.0286 1233.91 54.671 M1252.67 26.1121 L1252.67 26.1121 Z" fill="#000000" fill-rule="nonzero" fill-opacity="1" /><path clip-path="url(#clip520)" d="M1307.88 49.7694 Q1298.85 49.7694 1295.36 51.8354 Q1291.88 53.9013 1291.88 58.8839 Q1291.88 62.8538 1294.47 65.2034 Q1297.11 67.5124 1301.6 67.5124 Q1307.8 67.5124 1311.53 63.1374 Q1315.3 58.7219 1315.3 51.4303 L1315.3 49.7694 L1307.88 49.7694 M1322.75 46.6907 L1322.75 72.576 L1315.3 72.576 L1315.3 65.6895 Q1312.74 69.8214 1308.94 71.8063 Q1305.13 73.7508 1299.62 73.7508 Q1292.65 73.7508 1288.52 69.8619 Q1284.43 65.9325 1284.43 59.3701 Q1284.43 51.7138 1289.53 47.825 Q1294.68 43.9361 1304.84 43.9361 L1315.3 43.9361 L1315.3 43.2069 Q1315.3 38.0623 1311.89 35.2672 Q1308.53 32.4315 1302.41 32.4315 Q1298.52 32.4315 1294.84 33.3632 Q1291.15 34.295 1287.75 36.1584 L1287.75 29.2718 Q1291.84 27.692 1295.69 26.9223 Q1299.54 26.1121 1303.18 26.1121 Q1313.03 26.1121 1317.89 31.2163 Q1322.75 36.3204 1322.75 46.6907 Z" fill="#000000" fill-rule="nonzero" fill-opacity="1" /><path clip-path="url(#clip520)" d="M1364.39 34.1734 Q1363.14 33.4443 1361.64 33.1202 Q1360.18 32.7556 1358.4 32.7556 Q1352.08 32.7556 1348.67 36.8875 Q1345.31 40.9789 1345.31 48.6757 L1345.31 72.576 L1337.82 72.576 L1337.82 27.2059 L1345.31 27.2059 L1345.31 34.2544 Q1347.66 30.1225 1351.43 28.1376 Q1355.2 26.1121 1360.58 26.1121 Q1361.35 26.1121 1362.29 26.2337 Q1363.22 26.3147 1364.35 26.5172 L1364.39 34.1734 Z" fill="#000000" fill-rule="nonzero" fill-opacity="1" /><path clip-path="url(#clip520)" d="M1409.2 48.0275 L1409.2 51.6733 L1374.92 51.6733 Q1375.41 59.3701 1379.54 63.421 Q1383.72 67.4314 1391.13 67.4314 Q1395.42 67.4314 1399.43 66.3781 Q1403.48 65.3249 1407.45 63.2184 L1407.45 70.267 Q1403.44 71.9684 1399.23 72.8596 Q1395.02 73.7508 1390.68 73.7508 Q1379.83 73.7508 1373.47 67.4314 Q1367.15 61.1119 1367.15 50.3365 Q1367.15 39.1965 1373.14 32.6746 Q1379.18 26.1121 1389.39 26.1121 Q1398.54 26.1121 1403.85 32.0264 Q1409.2 37.9003 1409.2 48.0275 M1401.74 45.84 Q1401.66 39.7232 1398.3 36.0774 Q1394.98 32.4315 1389.47 32.4315 Q1383.23 32.4315 1379.46 35.9558 Q1375.73 39.4801 1375.17 45.8805 L1401.74 45.84 Z" fill="#000000" fill-rule="nonzero" fill-opacity="1" /><path clip-path="url(#clip520)" d="M1451.28 34.0924 L1451.28 9.54393 L1458.74 9.54393 L1458.74 72.576 L1451.28 72.576 L1451.28 65.7705 Q1448.93 69.8214 1445.33 71.8063 Q1441.76 73.7508 1436.74 73.7508 Q1428.52 73.7508 1423.33 67.1883 Q1418.19 60.6258 1418.19 49.9314 Q1418.19 39.2371 1423.33 32.6746 Q1428.52 26.1121 1436.74 26.1121 Q1441.76 26.1121 1445.33 28.0971 Q1448.93 30.0415 1451.28 34.0924 M1425.88 49.9314 Q1425.88 58.1548 1429.25 62.8538 Q1432.65 67.5124 1438.56 67.5124 Q1444.48 67.5124 1447.88 62.8538 Q1451.28 58.1548 1451.28 49.9314 Q1451.28 41.7081 1447.88 37.0496 Q1444.48 32.3505 1438.56 32.3505 Q1432.65 32.3505 1429.25 37.0496 Q1425.88 41.7081 1425.88 49.9314 Z" fill="#000000" fill-rule="nonzero" fill-opacity="1" /><path clip-path="url(#clip520)" d="M1500.79 12.096 L1539.03 12.096 L1539.03 18.9825 L1508.97 18.9825 L1508.97 36.8875 L1537.77 36.8875 L1537.77 43.7741 L1508.97 43.7741 L1508.97 65.6895 L1539.76 65.6895 L1539.76 72.576 L1500.79 72.576 L1500.79 12.096 Z" fill="#000000" fill-rule="nonzero" fill-opacity="1" /><path clip-path="url(#clip520)" d="M1579.17 34.1734 Q1577.92 33.4443 1576.42 33.1202 Q1574.96 32.7556 1573.18 32.7556 Q1566.86 32.7556 1563.45 36.8875 Q1560.09 40.9789 1560.09 48.6757 L1560.09 72.576 L1552.6 72.576 L1552.6 27.2059 L1560.09 27.2059 L1560.09 34.2544 Q1562.44 30.1225 1566.21 28.1376 Q1569.98 26.1121 1575.36 26.1121 Q1576.13 26.1121 1577.06 26.2337 Q1578 26.3147 1579.13 26.5172 L1579.17 34.1734 Z" fill="#000000" fill-rule="nonzero" fill-opacity="1" /><path clip-path="url(#clip520)" d="M1611.82 34.1734 Q1610.57 33.4443 1609.07 33.1202 Q1607.61 32.7556 1605.83 32.7556 Q1599.51 32.7556 1596.1 36.8875 Q1592.74 40.9789 1592.74 48.6757 L1592.74 72.576 L1585.25 72.576 L1585.25 27.2059 L1592.74 27.2059 L1592.74 34.2544 Q1595.09 30.1225 1598.86 28.1376 Q1602.63 26.1121 1608.01 26.1121 Q1608.78 26.1121 1609.72 26.2337 Q1610.65 26.3147 1611.78 26.5172 L1611.82 34.1734 Z" fill="#000000" fill-rule="nonzero" fill-opacity="1" /><path clip-path="url(#clip520)" d="M1635.4 32.4315 Q1629.4 32.4315 1625.92 37.1306 Q1622.43 41.7891 1622.43 49.9314 Q1622.43 58.0738 1625.88 62.7728 Q1629.36 67.4314 1635.4 67.4314 Q1641.35 67.4314 1644.84 62.7323 Q1648.32 58.0333 1648.32 49.9314 Q1648.32 41.8701 1644.84 37.1711 Q1641.35 32.4315 1635.4 32.4315 M1635.4 26.1121 Q1645.12 26.1121 1650.67 32.4315 Q1656.22 38.7509 1656.22 49.9314 Q1656.22 61.0714 1650.67 67.4314 Q1645.12 73.7508 1635.4 73.7508 Q1625.64 73.7508 1620.09 67.4314 Q1614.58 61.0714 1614.58 49.9314 Q1614.58 38.7509 1620.09 32.4315 Q1625.64 26.1121 1635.4 26.1121 Z" fill="#000000" fill-rule="nonzero" fill-opacity="1" /><path clip-path="url(#clip520)" d="M1694.87 34.1734 Q1693.61 33.4443 1692.11 33.1202 Q1690.65 32.7556 1688.87 32.7556 Q1682.55 32.7556 1679.15 36.8875 Q1675.79 40.9789 1675.79 48.6757 L1675.79 72.576 L1668.29 72.576 L1668.29 27.2059 L1675.79 27.2059 L1675.79 34.2544 Q1678.13 30.1225 1681.9 28.1376 Q1685.67 26.1121 1691.06 26.1121 Q1691.83 26.1121 1692.76 26.2337 Q1693.69 26.3147 1694.82 26.5172 L1694.87 34.1734 Z" fill="#000000" fill-rule="nonzero" fill-opacity="1" /><polyline clip-path="url(#clip522)" style="stroke:#009af9; stroke-linecap:round; stroke-linejoin:round; stroke-width:4; stroke-opacity:1; fill:none" points="279.759,1282.21 950.632,160.256 1621.5,682.5 2292.38,1386.4 "/>
<polyline clip-path="url(#clip522)" style="stroke:#e26f46; stroke-linecap:round; stroke-linejoin:round; stroke-width:4; stroke-opacity:1; fill:none" points="279.759,1353.7 950.632,863.131 1621.5,357.09 2292.38,1385.21 "/>
<polyline clip-path="url(#clip522)" style="stroke:#3da44d; stroke-linecap:round; stroke-linejoin:round; stroke-width:4; stroke-opacity:1; fill:none" points="279.759,1357.52 950.632,266.717 1621.5,1273.46 2292.38,1375.61 "/>
<path clip-path="url(#clip520)" d="M1954.09 374.156 L2281.64 374.156 L2281.64 166.796 L1954.09 166.796  Z" fill="#ffffff" fill-rule="evenodd" fill-opacity="1"/>
<polyline clip-path="url(#clip520)" style="stroke:#000000; stroke-linecap:round; stroke-linejoin:round; stroke-width:4; stroke-opacity:1; fill:none" points="1954.09,374.156 2281.64,374.156 2281.64,166.796 1954.09,166.796 1954.09,374.156 "/>
<polyline clip-path="url(#clip520)" style="stroke:#009af9; stroke-linecap:round; stroke-linejoin:round; stroke-width:4; stroke-opacity:1; fill:none" points="1977.8,218.636 2120.02,218.636 "/>
<path clip-path="url(#clip520)" d="M2151.13 202.629 L2151.13 209.99 L2159.91 209.99 L2159.91 213.3 L2151.13 213.3 L2151.13 227.374 Q2151.13 230.545 2151.99 231.448 Q2152.87 232.351 2155.53 232.351 L2159.91 232.351 L2159.91 235.916 L2155.53 235.916 Q2150.6 235.916 2148.73 234.087 Q2146.85 232.235 2146.85 227.374 L2146.85 213.3 L2143.73 213.3 L2143.73 209.99 L2146.85 209.99 L2146.85 202.629 L2151.13 202.629 Z" fill="#000000" fill-rule="nonzero" fill-opacity="1" /><path clip-path="url(#clip520)" d="M2166.06 214.388 L2195.74 214.388 L2195.74 218.277 L2166.06 218.277 L2166.06 214.388 M2166.06 223.832 L2195.74 223.832 L2195.74 227.768 L2166.06 227.768 L2166.06 223.832 Z" fill="#000000" fill-rule="nonzero" fill-opacity="1" /><path clip-path="url(#clip520)" d="M2206.64 231.981 L2214.28 231.981 L2214.28 205.615 L2205.97 207.282 L2205.97 203.022 L2214.24 201.356 L2218.91 201.356 L2218.91 231.981 L2226.55 231.981 L2226.55 235.916 L2206.64 235.916 L2206.64 231.981 Z" fill="#000000" fill-rule="nonzero" fill-opacity="1" /><polyline clip-path="url(#clip520)" style="stroke:#e26f46; stroke-linecap:round; stroke-linejoin:round; stroke-width:4; stroke-opacity:1; fill:none" points="1977.8,270.476 2120.02,270.476 "/>
<path clip-path="url(#clip520)" d="M2151.13 254.469 L2151.13 261.83 L2159.91 261.83 L2159.91 265.14 L2151.13 265.14 L2151.13 279.214 Q2151.13 282.385 2151.99 283.288 Q2152.87 284.191 2155.53 284.191 L2159.91 284.191 L2159.91 287.756 L2155.53 287.756 Q2150.6 287.756 2148.73 285.927 Q2146.85 284.075 2146.85 279.214 L2146.85 265.14 L2143.73 265.14 L2143.73 261.83 L2146.85 261.83 L2146.85 254.469 L2151.13 254.469 Z" fill="#000000" fill-rule="nonzero" fill-opacity="1" /><path clip-path="url(#clip520)" d="M2166.06 266.228 L2195.74 266.228 L2195.74 270.117 L2166.06 270.117 L2166.06 266.228 M2166.06 275.672 L2195.74 275.672 L2195.74 279.608 L2166.06 279.608 L2166.06 275.672 Z" fill="#000000" fill-rule="nonzero" fill-opacity="1" /><path clip-path="url(#clip520)" d="M2205.88 253.196 L2224.24 253.196 L2224.24 257.131 L2210.16 257.131 L2210.16 265.603 Q2211.18 265.256 2212.2 265.094 Q2213.22 264.909 2214.24 264.909 Q2220.02 264.909 2223.4 268.08 Q2226.78 271.251 2226.78 276.668 Q2226.78 282.246 2223.31 285.348 Q2219.84 288.427 2213.52 288.427 Q2211.34 288.427 2209.07 288.057 Q2206.83 287.686 2204.42 286.946 L2204.42 282.246 Q2206.5 283.381 2208.73 283.936 Q2210.95 284.492 2213.43 284.492 Q2217.43 284.492 2219.77 282.385 Q2222.11 280.279 2222.11 276.668 Q2222.11 273.057 2219.77 270.95 Q2217.43 268.844 2213.43 268.844 Q2211.55 268.844 2209.68 269.26 Q2207.82 269.677 2205.88 270.557 L2205.88 253.196 Z" fill="#000000" fill-rule="nonzero" fill-opacity="1" /><polyline clip-path="url(#clip520)" style="stroke:#3da44d; stroke-linecap:round; stroke-linejoin:round; stroke-width:4; stroke-opacity:1; fill:none" points="1977.8,322.316 2120.02,322.316 "/>
<path clip-path="url(#clip520)" d="M2151.13 306.309 L2151.13 313.67 L2159.91 313.67 L2159.91 316.98 L2151.13 316.98 L2151.13 331.054 Q2151.13 334.225 2151.99 335.128 Q2152.87 336.031 2155.53 336.031 L2159.91 336.031 L2159.91 339.596 L2155.53 339.596 Q2150.6 339.596 2148.73 337.767 Q2146.85 335.915 2146.85 331.054 L2146.85 316.98 L2143.73 316.98 L2143.73 313.67 L2146.85 313.67 L2146.85 306.309 L2151.13 306.309 Z" fill="#000000" fill-rule="nonzero" fill-opacity="1" /><path clip-path="url(#clip520)" d="M2166.06 318.068 L2195.74 318.068 L2195.74 321.957 L2166.06 321.957 L2166.06 318.068 M2166.06 327.512 L2195.74 327.512 L2195.74 331.448 L2166.06 331.448 L2166.06 327.512 Z" fill="#000000" fill-rule="nonzero" fill-opacity="1" /><path clip-path="url(#clip520)" d="M2206.64 335.661 L2214.28 335.661 L2214.28 309.295 L2205.97 310.962 L2205.97 306.702 L2214.24 305.036 L2218.91 305.036 L2218.91 335.661 L2226.55 335.661 L2226.55 339.596 L2206.64 339.596 L2206.64 335.661 Z" fill="#000000" fill-rule="nonzero" fill-opacity="1" /><path clip-path="url(#clip520)" d="M2245.99 308.114 Q2242.38 308.114 2240.56 311.679 Q2238.75 315.221 2238.75 322.35 Q2238.75 329.457 2240.56 333.022 Q2242.38 336.563 2245.99 336.563 Q2249.63 336.563 2251.43 333.022 Q2253.26 329.457 2253.26 322.35 Q2253.26 315.221 2251.43 311.679 Q2249.63 308.114 2245.99 308.114 M2245.99 304.411 Q2251.8 304.411 2254.86 309.017 Q2257.94 313.6 2257.94 322.35 Q2257.94 331.077 2254.86 335.684 Q2251.8 340.267 2245.99 340.267 Q2240.18 340.267 2237.11 335.684 Q2234.05 331.077 2234.05 322.35 Q2234.05 313.6 2237.11 309.017 Q2240.18 304.411 2245.99 304.411 Z" fill="#000000" fill-rule="nonzero" fill-opacity="1" /></svg>
