<?xml version="1.0" encoding="utf-8"?>
<svg xmlns="http://www.w3.org/2000/svg" xmlns:xlink="http://www.w3.org/1999/xlink" width="600" height="400" viewBox="0 0 2400 1600">
<defs>
  <clipPath id="clip470">
    <rect x="0" y="0" width="2400" height="1600"/>
  </clipPath>
</defs>
<path clip-path="url(#clip470)" d="M0 1600 L2400 1600 L2400 8.88178e-14 L0 8.88178e-14  Z" fill="#ffffff" fill-rule="evenodd" fill-opacity="1"/>
<defs>
  <clipPath id="clip471">
    <rect x="480" y="0" width="1681" height="1600"/>
  </clipPath>
</defs>
<path clip-path="url(#clip470)" d="M265.445 1423.18 L2352.76 1423.18 L2352.76 123.472 L265.445 123.472  Z" fill="#ffffff" fill-rule="evenodd" fill-opacity="1"/>
<defs>
  <clipPath id="clip472">
    <rect x="265" y="123" width="2088" height="1301"/>
  </clipPath>
</defs>
<polyline clip-path="url(#clip472)" style="stroke:#000000; stroke-linecap:round; stroke-linejoin:round; stroke-width:2; stroke-opacity:0.1; fill:none" points="739.08,1423.18 739.08,123.472 "/>
<polyline clip-path="url(#clip472)" style="stroke:#000000; stroke-linecap:round; stroke-linejoin:round; stroke-width:2; stroke-opacity:0.1; fill:none" points="1257.28,1423.18 1257.28,123.472 "/>
<polyline clip-path="url(#clip472)" style="stroke:#000000; stroke-linecap:round; stroke-linejoin:round; stroke-width:2; stroke-opacity:0.1; fill:none" points="1775.48,1423.18 1775.48,123.472 "/>
<polyline clip-path="url(#clip472)" style="stroke:#000000; stroke-linecap:round; stroke-linejoin:round; stroke-width:2; stroke-opacity:0.1; fill:none" points="2293.68,1423.18 2293.68,123.472 "/>
<polyline clip-path="url(#clip470)" style="stroke:#000000; stroke-linecap:round; stroke-linejoin:round; stroke-width:4; stroke-opacity:1; fill:none" points="265.445,1423.18 2352.76,1423.18 "/>
<polyline clip-path="url(#clip470)" style="stroke:#000000; stroke-linecap:round; stroke-linejoin:round; stroke-width:4; stroke-opacity:1; fill:none" points="739.08,1423.18 739.08,1404.28 "/>
<polyline clip-path="url(#clip470)" style="stroke:#000000; stroke-linecap:round; stroke-linejoin:round; stroke-width:4; stroke-opacity:1; fill:none" points="1257.28,1423.18 1257.28,1404.28 "/>
<polyline clip-path="url(#clip470)" style="stroke:#000000; stroke-linecap:round; stroke-linejoin:round; stroke-width:4; stroke-opacity:1; fill:none" points="1775.48,1423.18 1775.48,1404.28 "/>
<polyline clip-path="url(#clip470)" style="stroke:#000000; stroke-linecap:round; stroke-linejoin:round; stroke-width:4; stroke-opacity:1; fill:none" points="2293.68,1423.18 2293.68,1404.28 "/>
<path clip-path="url(#clip470)" d="M729.358 1451.02 L747.714 1451.02 L747.714 1454.96 L733.64 1454.96 L733.64 1463.43 Q734.659 1463.08 735.677 1462.92 Q736.696 1462.73 737.714 1462.73 Q743.501 1462.73 746.881 1465.9 Q750.26 1469.08 750.26 1474.49 Q750.26 1480.07 746.788 1483.17 Q743.316 1486.25 736.997 1486.25 Q734.821 1486.25 732.552 1485.88 Q730.307 1485.51 727.899 1484.77 L727.899 1480.07 Q729.983 1481.2 732.205 1481.76 Q734.427 1482.32 736.904 1482.32 Q740.909 1482.32 743.247 1480.21 Q745.584 1478.1 745.584 1474.49 Q745.584 1470.88 743.247 1468.77 Q740.909 1466.67 736.904 1466.67 Q735.029 1466.67 733.154 1467.08 Q731.302 1467.5 729.358 1468.38 L729.358 1451.02 Z" fill="#000000" fill-rule="nonzero" fill-opacity="1" /><path clip-path="url(#clip470)" d="M1231.97 1481.64 L1239.61 1481.64 L1239.61 1455.28 L1231.3 1456.95 L1231.3 1452.69 L1239.56 1451.02 L1244.24 1451.02 L1244.24 1481.64 L1251.88 1481.64 L1251.88 1485.58 L1231.97 1485.58 L1231.97 1481.64 Z" fill="#000000" fill-rule="nonzero" fill-opacity="1" /><path clip-path="url(#clip470)" d="M1271.32 1454.1 Q1267.71 1454.1 1265.88 1457.66 Q1264.07 1461.2 1264.07 1468.33 Q1264.07 1475.44 1265.88 1479.01 Q1267.71 1482.55 1271.32 1482.55 Q1274.95 1482.55 1276.76 1479.01 Q1278.59 1475.44 1278.59 1468.33 Q1278.59 1461.2 1276.76 1457.66 Q1274.95 1454.1 1271.32 1454.1 M1271.32 1450.39 Q1277.13 1450.39 1280.19 1455 Q1283.26 1459.58 1283.26 1468.33 Q1283.26 1477.06 1280.19 1481.67 Q1277.13 1486.25 1271.32 1486.25 Q1265.51 1486.25 1262.43 1481.67 Q1259.38 1477.06 1259.38 1468.33 Q1259.38 1459.58 1262.43 1455 Q1265.51 1450.39 1271.32 1450.39 Z" fill="#000000" fill-rule="nonzero" fill-opacity="1" /><path clip-path="url(#clip470)" d="M1750.67 1481.64 L1758.3 1481.64 L1758.3 1455.28 L1749.99 1456.95 L1749.99 1452.69 L1758.26 1451.02 L1762.93 1451.02 L1762.93 1481.64 L1770.57 1481.64 L1770.57 1485.58 L1750.67 1485.58 L1750.67 1481.64 Z" fill="#000000" fill-rule="nonzero" fill-opacity="1" /><path clip-path="url(#clip470)" d="M1780.06 1451.02 L1798.42 1451.02 L1798.42 1454.96 L1784.35 1454.96 L1784.35 1463.43 Q1785.36 1463.08 1786.38 1462.92 Q1787.4 1462.73 1788.42 1462.73 Q1794.21 1462.73 1797.59 1465.9 Q1800.97 1469.08 1800.97 1474.49 Q1800.97 1480.07 1797.49 1483.17 Q1794.02 1486.25 1787.7 1486.25 Q1785.53 1486.25 1783.26 1485.88 Q1781.01 1485.51 1778.61 1484.77 L1778.61 1480.07 Q1780.69 1481.2 1782.91 1481.76 Q1785.13 1482.32 1787.61 1482.32 Q1791.61 1482.32 1793.95 1480.21 Q1796.29 1478.1 1796.29 1474.49 Q1796.29 1470.88 1793.95 1468.77 Q1791.61 1466.67 1787.61 1466.67 Q1785.74 1466.67 1783.86 1467.08 Q1782.01 1467.5 1780.06 1468.38 L1780.06 1451.02 Z" fill="#000000" fill-rule="nonzero" fill-opacity="1" /><path clip-path="url(#clip470)" d="M2272.45 1481.64 L2288.77 1481.64 L2288.77 1485.58 L2266.83 1485.58 L2266.83 1481.64 Q2269.49 1478.89 2274.07 1474.26 Q2278.68 1469.61 2279.86 1468.27 Q2282.11 1465.74 2282.99 1464.01 Q2283.89 1462.25 2283.89 1460.56 Q2283.89 1457.8 2281.95 1456.07 Q2280.02 1454.33 2276.92 1454.33 Q2274.72 1454.33 2272.27 1455.09 Q2269.84 1455.86 2267.06 1457.41 L2267.06 1452.69 Q2269.88 1451.55 2272.34 1450.97 Q2274.79 1450.39 2276.83 1450.39 Q2282.2 1450.39 2285.39 1453.08 Q2288.59 1455.77 2288.59 1460.26 Q2288.59 1462.39 2287.78 1464.31 Q2286.99 1466.2 2284.88 1468.8 Q2284.31 1469.47 2281.2 1472.69 Q2278.1 1475.88 2272.45 1481.64 Z" fill="#000000" fill-rule="nonzero" fill-opacity="1" /><path clip-path="url(#clip470)" d="M2308.59 1454.1 Q2304.98 1454.1 2303.15 1457.66 Q2301.34 1461.2 2301.34 1468.33 Q2301.34 1475.44 2303.15 1479.01 Q2304.98 1482.55 2308.59 1482.55 Q2312.22 1482.55 2314.03 1479.01 Q2315.86 1475.44 2315.86 1468.33 Q2315.86 1461.2 2314.03 1457.66 Q2312.22 1454.1 2308.59 1454.1 M2308.59 1450.39 Q2314.4 1450.39 2317.45 1455 Q2320.53 1459.58 2320.53 1468.33 Q2320.53 1477.06 2317.45 1481.67 Q2314.4 1486.25 2308.59 1486.25 Q2302.78 1486.25 2299.7 1481.67 Q2296.64 1477.06 2296.64 1468.33 Q2296.64 1459.58 2299.7 1455 Q2302.78 1450.39 2308.59 1450.39 Z" fill="#000000" fill-rule="nonzero" fill-opacity="1" /><path clip-path="url(#clip470)" d="M1215.27 1520.52 L1245.32 1520.52 L1245.32 1525.93 L1221.7 1525.93 L1221.7 1540 L1244.33 1540 L1244.33 1545.41 L1221.7 1545.41 L1221.7 1562.63 L1245.89 1562.63 L1245.89 1568.04 L1215.27 1568.04 L1215.27 1520.52 Z" fill="#000000" fill-rule="nonzero" fill-opacity="1" /><path clip-path="url(#clip470)" d="M1261.87 1562.7 L1261.87 1581.6 L1255.98 1581.6 L1255.98 1532.4 L1261.87 1532.4 L1261.87 1537.81 Q1263.71 1534.62 1266.51 1533.1 Q1269.35 1531.54 1273.26 1531.54 Q1279.75 1531.54 1283.8 1536.69 Q1287.87 1541.85 1287.87 1550.25 Q1287.87 1558.65 1283.8 1563.81 Q1279.75 1568.97 1273.26 1568.97 Q1269.35 1568.97 1266.51 1567.44 Q1263.71 1565.88 1261.87 1562.7 M1281.79 1550.25 Q1281.79 1543.79 1279.12 1540.13 Q1276.48 1536.44 1271.83 1536.44 Q1267.18 1536.44 1264.51 1540.13 Q1261.87 1543.79 1261.87 1550.25 Q1261.87 1556.71 1264.51 1560.4 Q1267.18 1564.07 1271.83 1564.07 Q1276.48 1564.07 1279.12 1560.4 Q1281.79 1556.71 1281.79 1550.25 Z" fill="#000000" fill-rule="nonzero" fill-opacity="1" /><path clip-path="url(#clip470)" d="M1311.39 1536.5 Q1306.68 1536.5 1303.94 1540.19 Q1301.21 1543.85 1301.21 1550.25 Q1301.21 1556.65 1303.91 1560.34 Q1306.65 1564 1311.39 1564 Q1316.07 1564 1318.81 1560.31 Q1321.55 1556.62 1321.55 1550.25 Q1321.55 1543.92 1318.81 1540.23 Q1316.07 1536.5 1311.39 1536.5 M1311.39 1531.54 Q1319.03 1531.54 1323.39 1536.5 Q1327.75 1541.47 1327.75 1550.25 Q1327.75 1559 1323.39 1564 Q1319.03 1568.97 1311.39 1568.97 Q1303.72 1568.97 1299.36 1564 Q1295.03 1559 1295.03 1550.25 Q1295.03 1541.47 1299.36 1536.5 Q1303.72 1531.54 1311.39 1531.54 Z" fill="#000000" fill-rule="nonzero" fill-opacity="1" /><path clip-path="url(#clip470)" d="M1363.11 1533.76 L1363.11 1539.24 Q1360.63 1537.87 1358.12 1537.2 Q1355.63 1536.5 1353.09 1536.5 Q1347.39 1536.5 1344.24 1540.13 Q1341.09 1543.73 1341.09 1550.25 Q1341.09 1556.78 1344.24 1560.4 Q1347.39 1564 1353.09 1564 Q1355.63 1564 1358.12 1563.33 Q1360.63 1562.63 1363.11 1561.26 L1363.11 1566.68 Q1360.66 1567.82 1358.02 1568.39 Q1355.41 1568.97 1352.45 1568.97 Q1344.4 1568.97 1339.66 1563.91 Q1334.91 1558.85 1334.91 1550.25 Q1334.91 1541.53 1339.69 1536.53 Q1344.49 1531.54 1352.83 1531.54 Q1355.54 1531.54 1358.12 1532.11 Q1360.69 1532.65 1363.11 1533.76 Z" fill="#000000" fill-rule="nonzero" fill-opacity="1" /><path clip-path="url(#clip470)" d="M1402.93 1546.53 L1402.93 1568.04 L1397.07 1568.04 L1397.07 1546.72 Q1397.07 1541.66 1395.1 1539.14 Q1393.13 1536.63 1389.18 1536.63 Q1384.44 1536.63 1381.7 1539.65 Q1378.96 1542.68 1378.96 1547.9 L1378.96 1568.04 L1373.08 1568.04 L1373.08 1518.52 L1378.96 1518.52 L1378.96 1537.93 Q1381.06 1534.72 1383.9 1533.13 Q1386.76 1531.54 1390.49 1531.54 Q1396.63 1531.54 1399.78 1535.36 Q1402.93 1539.14 1402.93 1546.53 Z" fill="#000000" fill-rule="nonzero" fill-opacity="1" /><polyline clip-path="url(#clip472)" style="stroke:#000000; stroke-linecap:round; stroke-linejoin:round; stroke-width:2; stroke-opacity:0.1; fill:none" points="265.445,1221 2352.76,1221 "/>
<polyline clip-path="url(#clip472)" style="stroke:#000000; stroke-linecap:round; stroke-linejoin:round; stroke-width:2; stroke-opacity:0.1; fill:none" points="265.445,1005.58 2352.76,1005.58 "/>
<polyline clip-path="url(#clip472)" style="stroke:#000000; stroke-linecap:round; stroke-linejoin:round; stroke-width:2; stroke-opacity:0.1; fill:none" points="265.445,790.161 2352.76,790.161 "/>
<polyline clip-path="url(#clip472)" style="stroke:#000000; stroke-linecap:round; stroke-linejoin:round; stroke-width:2; stroke-opacity:0.1; fill:none" points="265.445,574.741 2352.76,574.741 "/>
<polyline clip-path="url(#clip472)" style="stroke:#000000; stroke-linecap:round; stroke-linejoin:round; stroke-width:2; stroke-opacity:0.1; fill:none" points="265.445,359.322 2352.76,359.322 "/>
<polyline clip-path="url(#clip472)" style="stroke:#000000; stroke-linecap:round; stroke-linejoin:round; stroke-width:2; stroke-opacity:0.1; fill:none" points="265.445,143.902 2352.76,143.902 "/>
<polyline clip-path="url(#clip470)" style="stroke:#000000; stroke-linecap:round; stroke-linejoin:round; stroke-width:4; stroke-opacity:1; fill:none" points="265.445,1423.18 265.445,123.472 "/>
<polyline clip-path="url(#clip470)" style="stroke:#000000; stroke-linecap:round; stroke-linejoin:round; stroke-width:4; stroke-opacity:1; fill:none" points="265.445,1221 284.342,1221 "/>
<polyline clip-path="url(#clip470)" style="stroke:#000000; stroke-linecap:round; stroke-linejoin:round; stroke-width:4; stroke-opacity:1; fill:none" points="265.445,1005.58 284.342,1005.58 "/>
<polyline clip-path="url(#clip470)" style="stroke:#000000; stroke-linecap:round; stroke-linejoin:round; stroke-width:4; stroke-opacity:1; fill:none" points="265.445,790.161 284.342,790.161 "/>
<polyline clip-path="url(#clip470)" style="stroke:#000000; stroke-linecap:round; stroke-linejoin:round; stroke-width:4; stroke-opacity:1; fill:none" points="265.445,574.741 284.342,574.741 "/>
<polyline clip-path="url(#clip470)" style="stroke:#000000; stroke-linecap:round; stroke-linejoin:round; stroke-width:4; stroke-opacity:1; fill:none" points="265.445,359.322 284.342,359.322 "/>
<polyline clip-path="url(#clip470)" style="stroke:#000000; stroke-linecap:round; stroke-linejoin:round; stroke-width:4; stroke-opacity:1; fill:none" points="265.445,143.902 284.342,143.902 "/>
<path clip-path="url(#clip470)" d="M117.825 1234.34 L125.464 1234.34 L125.464 1207.98 L117.154 1209.65 L117.154 1205.39 L125.418 1203.72 L130.093 1203.72 L130.093 1234.34 L137.732 1234.34 L137.732 1238.28 L117.825 1238.28 L117.825 1234.34 Z" fill="#000000" fill-rule="nonzero" fill-opacity="1" /><path clip-path="url(#clip470)" d="M147.223 1203.72 L165.579 1203.72 L165.579 1207.65 L151.505 1207.65 L151.505 1216.13 Q152.524 1215.78 153.542 1215.62 Q154.561 1215.43 155.579 1215.43 Q161.366 1215.43 164.746 1218.6 Q168.126 1221.78 168.126 1227.19 Q168.126 1232.77 164.653 1235.87 Q161.181 1238.95 154.862 1238.95 Q152.686 1238.95 150.417 1238.58 Q148.172 1238.21 145.765 1237.47 L145.765 1232.77 Q147.848 1233.9 150.07 1234.46 Q152.292 1235.02 154.769 1235.02 Q158.774 1235.02 161.112 1232.91 Q163.45 1230.8 163.45 1227.19 Q163.45 1223.58 161.112 1221.47 Q158.774 1219.37 154.769 1219.37 Q152.894 1219.37 151.019 1219.78 Q149.167 1220.2 147.223 1221.08 L147.223 1203.72 Z" fill="#000000" fill-rule="nonzero" fill-opacity="1" /><path clip-path="url(#clip470)" d="M187.338 1206.8 Q183.727 1206.8 181.899 1210.36 Q180.093 1213.9 180.093 1221.03 Q180.093 1228.14 181.899 1231.71 Q183.727 1235.25 187.338 1235.25 Q190.973 1235.25 192.778 1231.71 Q194.607 1228.14 194.607 1221.03 Q194.607 1213.9 192.778 1210.36 Q190.973 1206.8 187.338 1206.8 M187.338 1203.09 Q193.149 1203.09 196.204 1207.7 Q199.283 1212.28 199.283 1221.03 Q199.283 1229.76 196.204 1234.37 Q193.149 1238.95 187.338 1238.95 Q181.528 1238.95 178.45 1234.37 Q175.394 1229.76 175.394 1221.03 Q175.394 1212.28 178.45 1207.7 Q181.528 1203.09 187.338 1203.09 Z" fill="#000000" fill-rule="nonzero" fill-opacity="1" /><path clip-path="url(#clip470)" d="M217.5 1206.8 Q213.889 1206.8 212.061 1210.36 Q210.255 1213.9 210.255 1221.03 Q210.255 1228.14 212.061 1231.71 Q213.889 1235.25 217.5 1235.25 Q221.135 1235.25 222.94 1231.71 Q224.769 1228.14 224.769 1221.03 Q224.769 1213.9 222.94 1210.36 Q221.135 1206.8 217.5 1206.8 M217.5 1203.09 Q223.31 1203.09 226.366 1207.7 Q229.445 1212.28 229.445 1221.03 Q229.445 1229.76 226.366 1234.37 Q223.31 1238.95 217.5 1238.95 Q211.69 1238.95 208.612 1234.37 Q205.556 1229.76 205.556 1221.03 Q205.556 1212.28 208.612 1207.7 Q211.69 1203.09 217.5 1203.09 Z" fill="#000000" fill-rule="nonzero" fill-opacity="1" /><path clip-path="url(#clip470)" d="M121.043 1018.93 L137.362 1018.93 L137.362 1022.86 L115.418 1022.86 L115.418 1018.93 Q118.08 1016.17 122.663 1011.54 Q127.269 1006.89 128.45 1005.55 Q130.695 1003.02 131.575 1001.29 Q132.478 999.527 132.478 997.837 Q132.478 995.083 130.533 993.346 Q128.612 991.61 125.51 991.61 Q123.311 991.61 120.857 992.374 Q118.427 993.138 115.649 994.689 L115.649 989.967 Q118.473 988.833 120.927 988.254 Q123.38 987.675 125.418 987.675 Q130.788 987.675 133.982 990.36 Q137.177 993.046 137.177 997.536 Q137.177 999.666 136.367 1001.59 Q135.579 1003.49 133.473 1006.08 Q132.894 1006.75 129.792 1009.97 Q126.691 1013.16 121.043 1018.93 Z" fill="#000000" fill-rule="nonzero" fill-opacity="1" /><path clip-path="url(#clip470)" d="M157.177 991.379 Q153.566 991.379 151.737 994.944 Q149.931 998.485 149.931 1005.61 Q149.931 1012.72 151.737 1016.29 Q153.566 1019.83 157.177 1019.83 Q160.811 1019.83 162.616 1016.29 Q164.445 1012.72 164.445 1005.61 Q164.445 998.485 162.616 994.944 Q160.811 991.379 157.177 991.379 M157.177 987.675 Q162.987 987.675 166.042 992.282 Q169.121 996.865 169.121 1005.61 Q169.121 1014.34 166.042 1018.95 Q162.987 1023.53 157.177 1023.53 Q151.366 1023.53 148.288 1018.95 Q145.232 1014.34 145.232 1005.61 Q145.232 996.865 148.288 992.282 Q151.366 987.675 157.177 987.675 Z" fill="#000000" fill-rule="nonzero" fill-opacity="1" /><path clip-path="url(#clip470)" d="M187.338 991.379 Q183.727 991.379 181.899 994.944 Q180.093 998.485 180.093 1005.61 Q180.093 1012.72 181.899 1016.29 Q183.727 1019.83 187.338 1019.83 Q190.973 1019.83 192.778 1016.29 Q194.607 1012.72 194.607 1005.61 Q194.607 998.485 192.778 994.944 Q190.973 991.379 187.338 991.379 M187.338 987.675 Q193.149 987.675 196.204 992.282 Q199.283 996.865 199.283 1005.61 Q199.283 1014.34 196.204 1018.95 Q193.149 1023.53 187.338 1023.53 Q181.528 1023.53 178.45 1018.95 Q175.394 1014.34 175.394 1005.61 Q175.394 996.865 178.45 992.282 Q181.528 987.675 187.338 987.675 Z" fill="#000000" fill-rule="nonzero" fill-opacity="1" /><path clip-path="url(#clip470)" d="M217.5 991.379 Q213.889 991.379 212.061 994.944 Q210.255 998.485 210.255 1005.61 Q210.255 1012.72 212.061 1016.29 Q213.889 1019.83 217.5 1019.83 Q221.135 1019.83 222.94 1016.29 Q224.769 1012.72 224.769 1005.61 Q224.769 998.485 222.94 994.944 Q221.135 991.379 217.5 991.379 M217.5 987.675 Q223.31 987.675 226.366 992.282 Q229.445 996.865 229.445 1005.61 Q229.445 1014.34 226.366 1018.95 Q223.31 1023.53 217.5 1023.53 Q211.69 1023.53 208.612 1018.95 Q205.556 1014.34 205.556 1005.61 Q205.556 996.865 208.612 992.282 Q211.69 987.675 217.5 987.675 Z" fill="#000000" fill-rule="nonzero" fill-opacity="1" /><path clip-path="url(#clip470)" d="M121.043 803.506 L137.362 803.506 L137.362 807.441 L115.418 807.441 L115.418 803.506 Q118.08 800.751 122.663 796.121 Q127.269 791.469 128.45 790.126 Q130.695 787.603 131.575 785.867 Q132.478 784.108 132.478 782.418 Q132.478 779.663 130.533 777.927 Q128.612 776.191 125.51 776.191 Q123.311 776.191 120.857 776.955 Q118.427 777.719 115.649 779.27 L115.649 774.547 Q118.473 773.413 120.927 772.834 Q123.38 772.256 125.418 772.256 Q130.788 772.256 133.982 774.941 Q137.177 777.626 137.177 782.117 Q137.177 784.246 136.367 786.168 Q135.579 788.066 133.473 790.658 Q132.894 791.33 129.792 794.547 Q126.691 797.742 121.043 803.506 Z" fill="#000000" fill-rule="nonzero" fill-opacity="1" /><path clip-path="url(#clip470)" d="M147.223 772.881 L165.579 772.881 L165.579 776.816 L151.505 776.816 L151.505 785.288 Q152.524 784.941 153.542 784.779 Q154.561 784.594 155.579 784.594 Q161.366 784.594 164.746 787.765 Q168.126 790.936 168.126 796.353 Q168.126 801.932 164.653 805.033 Q161.181 808.112 154.862 808.112 Q152.686 808.112 150.417 807.742 Q148.172 807.371 145.765 806.631 L145.765 801.932 Q147.848 803.066 150.07 803.621 Q152.292 804.177 154.769 804.177 Q158.774 804.177 161.112 802.07 Q163.45 799.964 163.45 796.353 Q163.45 792.742 161.112 790.635 Q158.774 788.529 154.769 788.529 Q152.894 788.529 151.019 788.945 Q149.167 789.362 147.223 790.242 L147.223 772.881 Z" fill="#000000" fill-rule="nonzero" fill-opacity="1" /><path clip-path="url(#clip470)" d="M187.338 775.959 Q183.727 775.959 181.899 779.524 Q180.093 783.066 180.093 790.195 Q180.093 797.302 181.899 800.867 Q183.727 804.408 187.338 804.408 Q190.973 804.408 192.778 800.867 Q194.607 797.302 194.607 790.195 Q194.607 783.066 192.778 779.524 Q190.973 775.959 187.338 775.959 M187.338 772.256 Q193.149 772.256 196.204 776.862 Q199.283 781.446 199.283 790.195 Q199.283 798.922 196.204 803.529 Q193.149 808.112 187.338 808.112 Q181.528 808.112 178.45 803.529 Q175.394 798.922 175.394 790.195 Q175.394 781.446 178.45 776.862 Q181.528 772.256 187.338 772.256 Z" fill="#000000" fill-rule="nonzero" fill-opacity="1" /><path clip-path="url(#clip470)" d="M217.5 775.959 Q213.889 775.959 212.061 779.524 Q210.255 783.066 210.255 790.195 Q210.255 797.302 212.061 800.867 Q213.889 804.408 217.5 804.408 Q221.135 804.408 222.94 800.867 Q224.769 797.302 224.769 790.195 Q224.769 783.066 222.94 779.524 Q221.135 775.959 217.5 775.959 M217.5 772.256 Q223.31 772.256 226.366 776.862 Q229.445 781.446 229.445 790.195 Q229.445 798.922 226.366 803.529 Q223.31 808.112 217.5 808.112 Q211.69 808.112 208.612 803.529 Q205.556 798.922 205.556 790.195 Q205.556 781.446 208.612 776.862 Q211.69 772.256 217.5 772.256 Z" fill="#000000" fill-rule="nonzero" fill-opacity="1" /><path clip-path="url(#clip470)" d="M131.181 573.387 Q134.538 574.105 136.413 576.373 Q138.311 578.642 138.311 581.975 Q138.311 587.091 134.792 589.892 Q131.274 592.693 124.793 592.693 Q122.617 592.693 120.302 592.253 Q118.01 591.836 115.556 590.98 L115.556 586.466 Q117.501 587.6 119.816 588.179 Q122.13 588.757 124.654 588.757 Q129.052 588.757 131.343 587.021 Q133.658 585.285 133.658 581.975 Q133.658 578.92 131.505 577.207 Q129.376 575.47 125.556 575.47 L121.529 575.47 L121.529 571.628 L125.742 571.628 Q129.191 571.628 131.019 570.262 Q132.848 568.873 132.848 566.281 Q132.848 563.619 130.95 562.207 Q129.075 560.771 125.556 560.771 Q123.635 560.771 121.436 561.188 Q119.237 561.605 116.598 562.484 L116.598 558.318 Q119.26 557.577 121.575 557.207 Q123.913 556.836 125.973 556.836 Q131.297 556.836 134.399 559.267 Q137.501 561.674 137.501 565.795 Q137.501 568.665 135.857 570.656 Q134.214 572.623 131.181 573.387 Z" fill="#000000" fill-rule="nonzero" fill-opacity="1" /><path clip-path="url(#clip470)" d="M157.177 560.54 Q153.566 560.54 151.737 564.105 Q149.931 567.646 149.931 574.776 Q149.931 581.882 151.737 585.447 Q153.566 588.989 157.177 588.989 Q160.811 588.989 162.616 585.447 Q164.445 581.882 164.445 574.776 Q164.445 567.646 162.616 564.105 Q160.811 560.54 157.177 560.54 M157.177 556.836 Q162.987 556.836 166.042 561.443 Q169.121 566.026 169.121 574.776 Q169.121 583.503 166.042 588.109 Q162.987 592.693 157.177 592.693 Q151.366 592.693 148.288 588.109 Q145.232 583.503 145.232 574.776 Q145.232 566.026 148.288 561.443 Q151.366 556.836 157.177 556.836 Z" fill="#000000" fill-rule="nonzero" fill-opacity="1" /><path clip-path="url(#clip470)" d="M187.338 560.54 Q183.727 560.54 181.899 564.105 Q180.093 567.646 180.093 574.776 Q180.093 581.882 181.899 585.447 Q183.727 588.989 187.338 588.989 Q190.973 588.989 192.778 585.447 Q194.607 581.882 194.607 574.776 Q194.607 567.646 192.778 564.105 Q190.973 560.54 187.338 560.54 M187.338 556.836 Q193.149 556.836 196.204 561.443 Q199.283 566.026 199.283 574.776 Q199.283 583.503 196.204 588.109 Q193.149 592.693 187.338 592.693 Q181.528 592.693 178.45 588.109 Q175.394 583.503 175.394 574.776 Q175.394 566.026 178.45 561.443 Q181.528 556.836 187.338 556.836 Z" fill="#000000" fill-rule="nonzero" fill-opacity="1" /><path clip-path="url(#clip470)" d="M217.5 560.54 Q213.889 560.54 212.061 564.105 Q210.255 567.646 210.255 574.776 Q210.255 581.882 212.061 585.447 Q213.889 588.989 217.5 588.989 Q221.135 588.989 222.94 585.447 Q224.769 581.882 224.769 574.776 Q224.769 567.646 222.94 564.105 Q221.135 560.54 217.5 560.54 M217.5 556.836 Q223.31 556.836 226.366 561.443 Q229.445 566.026 229.445 574.776 Q229.445 583.503 226.366 588.109 Q223.31 592.693 217.5 592.693 Q211.69 592.693 208.612 588.109 Q205.556 583.503 205.556 574.776 Q205.556 566.026 208.612 561.443 Q211.69 556.836 217.5 556.836 Z" fill="#000000" fill-rule="nonzero" fill-opacity="1" /><path clip-path="url(#clip470)" d="M131.181 357.968 Q134.538 358.685 136.413 360.954 Q138.311 363.222 138.311 366.556 Q138.311 371.671 134.792 374.472 Q131.274 377.273 124.793 377.273 Q122.617 377.273 120.302 376.833 Q118.01 376.417 115.556 375.56 L115.556 371.046 Q117.501 372.181 119.816 372.759 Q122.13 373.338 124.654 373.338 Q129.052 373.338 131.343 371.602 Q133.658 369.866 133.658 366.556 Q133.658 363.5 131.505 361.787 Q129.376 360.051 125.556 360.051 L121.529 360.051 L121.529 356.208 L125.742 356.208 Q129.191 356.208 131.019 354.843 Q132.848 353.454 132.848 350.861 Q132.848 348.199 130.95 346.787 Q129.075 345.352 125.556 345.352 Q123.635 345.352 121.436 345.769 Q119.237 346.185 116.598 347.065 L116.598 342.898 Q119.26 342.158 121.575 341.787 Q123.913 341.417 125.973 341.417 Q131.297 341.417 134.399 343.847 Q137.501 346.255 137.501 350.375 Q137.501 353.246 135.857 355.236 Q134.214 357.204 131.181 357.968 Z" fill="#000000" fill-rule="nonzero" fill-opacity="1" /><path clip-path="url(#clip470)" d="M147.223 342.042 L165.579 342.042 L165.579 345.977 L151.505 345.977 L151.505 354.449 Q152.524 354.102 153.542 353.94 Q154.561 353.755 155.579 353.755 Q161.366 353.755 164.746 356.926 Q168.126 360.097 168.126 365.514 Q168.126 371.093 164.653 374.194 Q161.181 377.273 154.862 377.273 Q152.686 377.273 150.417 376.903 Q148.172 376.532 145.765 375.792 L145.765 371.093 Q147.848 372.227 150.07 372.782 Q152.292 373.338 154.769 373.338 Q158.774 373.338 161.112 371.232 Q163.45 369.125 163.45 365.514 Q163.45 361.903 161.112 359.796 Q158.774 357.69 154.769 357.69 Q152.894 357.69 151.019 358.107 Q149.167 358.523 147.223 359.403 L147.223 342.042 Z" fill="#000000" fill-rule="nonzero" fill-opacity="1" /><path clip-path="url(#clip470)" d="M187.338 345.121 Q183.727 345.121 181.899 348.685 Q180.093 352.227 180.093 359.357 Q180.093 366.463 181.899 370.028 Q183.727 373.569 187.338 373.569 Q190.973 373.569 192.778 370.028 Q194.607 366.463 194.607 359.357 Q194.607 352.227 192.778 348.685 Q190.973 345.121 187.338 345.121 M187.338 341.417 Q193.149 341.417 196.204 346.023 Q199.283 350.607 199.283 359.357 Q199.283 368.083 196.204 372.69 Q193.149 377.273 187.338 377.273 Q181.528 377.273 178.45 372.69 Q175.394 368.083 175.394 359.357 Q175.394 350.607 178.45 346.023 Q181.528 341.417 187.338 341.417 Z" fill="#000000" fill-rule="nonzero" fill-opacity="1" /><path clip-path="url(#clip470)" d="M217.5 345.121 Q213.889 345.121 212.061 348.685 Q210.255 352.227 210.255 359.357 Q210.255 366.463 212.061 370.028 Q213.889 373.569 217.5 373.569 Q221.135 373.569 222.94 370.028 Q224.769 366.463 224.769 359.357 Q224.769 352.227 222.94 348.685 Q221.135 345.121 217.5 345.121 M217.5 341.417 Q223.31 341.417 226.366 346.023 Q229.445 350.607 229.445 359.357 Q229.445 368.083 226.366 372.69 Q223.31 377.273 217.5 377.273 Q211.69 377.273 208.612 372.69 Q205.556 368.083 205.556 359.357 Q205.556 350.607 208.612 346.023 Q211.69 341.417 217.5 341.417 Z" fill="#000000" fill-rule="nonzero" fill-opacity="1" /><path clip-path="url(#clip470)" d="M129.862 130.696 L118.056 149.145 L129.862 149.145 L129.862 130.696 M128.635 126.622 L134.515 126.622 L134.515 149.145 L139.445 149.145 L139.445 153.034 L134.515 153.034 L134.515 161.182 L129.862 161.182 L129.862 153.034 L114.26 153.034 L114.26 148.52 L128.635 126.622 Z" fill="#000000" fill-rule="nonzero" fill-opacity="1" /><path clip-path="url(#clip470)" d="M157.177 129.701 Q153.566 129.701 151.737 133.266 Q149.931 136.808 149.931 143.937 Q149.931 151.044 151.737 154.608 Q153.566 158.15 157.177 158.15 Q160.811 158.15 162.616 154.608 Q164.445 151.044 164.445 143.937 Q164.445 136.808 162.616 133.266 Q160.811 129.701 157.177 129.701 M157.177 125.997 Q162.987 125.997 166.042 130.604 Q169.121 135.187 169.121 143.937 Q169.121 152.664 166.042 157.27 Q162.987 161.854 157.177 161.854 Q151.366 161.854 148.288 157.27 Q145.232 152.664 145.232 143.937 Q145.232 135.187 148.288 130.604 Q151.366 125.997 157.177 125.997 Z" fill="#000000" fill-rule="nonzero" fill-opacity="1" /><path clip-path="url(#clip470)" d="M187.338 129.701 Q183.727 129.701 181.899 133.266 Q180.093 136.808 180.093 143.937 Q180.093 151.044 181.899 154.608 Q183.727 158.15 187.338 158.15 Q190.973 158.15 192.778 154.608 Q194.607 151.044 194.607 143.937 Q194.607 136.808 192.778 133.266 Q190.973 129.701 187.338 129.701 M187.338 125.997 Q193.149 125.997 196.204 130.604 Q199.283 135.187 199.283 143.937 Q199.283 152.664 196.204 157.27 Q193.149 161.854 187.338 161.854 Q181.528 161.854 178.45 157.27 Q175.394 152.664 175.394 143.937 Q175.394 135.187 178.45 130.604 Q181.528 125.997 187.338 125.997 Z" fill="#000000" fill-rule="nonzero" fill-opacity="1" /><path clip-path="url(#clip470)" d="M217.5 129.701 Q213.889 129.701 212.061 133.266 Q210.255 136.808 210.255 143.937 Q210.255 151.044 212.061 154.608 Q213.889 158.15 217.5 158.15 Q221.135 158.15 222.94 154.608 Q224.769 151.044 224.769 143.937 Q224.769 136.808 222.94 133.266 Q221.135 129.701 217.5 129.701 M217.5 125.997 Q223.31 125.997 226.366 130.604 Q229.445 135.187 229.445 143.937 Q229.445 152.664 226.366 157.27 Q223.31 161.854 217.5 161.854 Q211.69 161.854 208.612 157.27 Q205.556 152.664 205.556 143.937 Q205.556 135.187 208.612 130.604 Q211.69 125.997 217.5 125.997 Z" fill="#000000" fill-rule="nonzero" fill-opacity="1" /><path clip-path="url(#clip470)" d="M16.4842 840.023 L16.4842 833.593 L58.5933 833.593 L58.5933 810.454 L64.0042 810.454 L64.0042 840.023 L16.4842 840.023 Z" fill="#000000" fill-rule="nonzero" fill-opacity="1" /><path clip-path="url(#clip470)" d="M32.4621 791.293 Q32.4621 796.004 36.1542 798.741 Q39.8145 801.478 46.212 801.478 Q52.6095 801.478 56.3017 798.773 Q59.9619 796.036 59.9619 791.293 Q59.9619 786.614 56.2698 783.877 Q52.5777 781.14 46.212 781.14 Q39.8781 781.14 36.186 783.877 Q32.4621 786.614 32.4621 791.293 M27.4968 791.293 Q27.4968 783.654 32.4621 779.294 Q37.4273 774.933 46.212 774.933 Q54.9649 774.933 59.9619 779.294 Q64.9272 783.654 64.9272 791.293 Q64.9272 798.964 59.9619 803.324 Q54.9649 807.653 46.212 807.653 Q37.4273 807.653 32.4621 803.324 Q27.4968 798.964 27.4968 791.293 Z" fill="#000000" fill-rule="nonzero" fill-opacity="1" /><path clip-path="url(#clip470)" d="M29.4065 742.5 L34.9447 742.5 Q33.6716 744.983 33.035 747.656 Q32.3984 750.33 32.3984 753.194 Q32.3984 757.555 33.7352 759.751 Q35.072 761.915 37.7456 761.915 Q39.7826 761.915 40.9603 760.356 Q42.1061 758.796 43.1565 754.086 L43.6021 752.08 Q44.9389 745.842 47.3897 743.232 Q49.8086 740.59 54.1691 740.59 Q59.1344 740.59 62.0308 744.537 Q64.9272 748.452 64.9272 755.327 Q64.9272 758.192 64.3543 761.311 Q63.8132 764.398 62.6992 767.836 L56.6518 767.836 Q58.3387 764.589 59.198 761.438 Q60.0256 758.287 60.0256 755.2 Q60.0256 751.062 58.6251 748.834 Q57.1929 746.606 54.6147 746.606 Q52.2276 746.606 50.9545 748.229 Q49.6813 749.821 48.5037 755.263 L48.0262 757.3 Q46.8804 762.743 44.5251 765.162 Q42.138 767.581 38.0002 767.581 Q32.9713 767.581 30.2341 764.016 Q27.4968 760.451 27.4968 753.895 Q27.4968 750.648 27.9743 747.784 Q28.4517 744.919 29.4065 742.5 Z" fill="#000000" fill-rule="nonzero" fill-opacity="1" /><path clip-path="url(#clip470)" d="M29.4065 708.539 L34.9447 708.539 Q33.6716 711.022 33.035 713.695 Q32.3984 716.369 32.3984 719.233 Q32.3984 723.594 33.7352 725.79 Q35.072 727.954 37.7456 727.954 Q39.7826 727.954 40.9603 726.395 Q42.1061 724.835 43.1565 720.125 L43.6021 718.119 Q44.9389 711.881 47.3897 709.271 Q49.8086 706.629 54.1691 706.629 Q59.1344 706.629 62.0308 710.576 Q64.9272 714.491 64.9272 721.366 Q64.9272 724.23 64.3543 727.35 Q63.8132 730.437 62.6992 733.875 L56.6518 733.875 Q58.3387 730.628 59.198 727.477 Q60.0256 724.326 60.0256 721.239 Q60.0256 717.101 58.6251 714.873 Q57.1929 712.645 54.6147 712.645 Q52.2276 712.645 50.9545 714.268 Q49.6813 715.86 48.5037 721.302 L48.0262 723.339 Q46.8804 728.782 44.5251 731.201 Q42.138 733.62 38.0002 733.62 Q32.9713 733.62 30.2341 730.055 Q27.4968 726.49 27.4968 719.934 Q27.4968 716.687 27.9743 713.823 Q28.4517 710.958 29.4065 708.539 Z" fill="#000000" fill-rule="nonzero" fill-opacity="1" /><path clip-path="url(#clip470)" d="M779.019 12.096 L791.212 12.096 L806.646 53.2532 L822.161 12.096 L834.355 12.096 L834.355 72.576 L826.374 72.576 L826.374 19.4686 L810.778 60.9499 L802.555 60.9499 L786.959 19.4686 L786.959 72.576 L779.019 72.576 L779.019 12.096 Z" fill="#000000" fill-rule="nonzero" fill-opacity="1" /><path clip-path="url(#clip470)" d="M889.082 48.0275 L889.082 51.6733 L854.812 51.6733 Q855.298 59.3701 859.43 63.421 Q863.602 67.4314 871.015 67.4314 Q875.309 67.4314 879.32 66.3781 Q883.371 65.3249 887.34 63.2184 L887.34 70.267 Q883.33 71.9684 879.117 72.8596 Q874.904 73.7508 870.57 73.7508 Q859.713 73.7508 853.353 67.4314 Q847.034 61.1119 847.034 50.3365 Q847.034 39.1965 853.029 32.6746 Q859.065 26.1121 869.273 26.1121 Q878.428 26.1121 883.735 32.0264 Q889.082 37.9003 889.082 48.0275 M881.629 45.84 Q881.548 39.7232 878.185 36.0774 Q874.864 32.4315 869.354 32.4315 Q863.116 32.4315 859.349 35.9558 Q855.622 39.4801 855.055 45.8805 L881.629 45.84 Z" fill="#000000" fill-rule="nonzero" fill-opacity="1" /><path clip-path="url(#clip470)" d="M921.935 49.7694 Q912.902 49.7694 909.418 51.8354 Q905.934 53.9013 905.934 58.8839 Q905.934 62.8538 908.527 65.2034 Q911.16 67.5124 915.656 67.5124 Q921.854 67.5124 925.581 63.1374 Q929.348 58.7219 929.348 51.4303 L929.348 49.7694 L921.935 49.7694 M936.802 46.6907 L936.802 72.576 L929.348 72.576 L929.348 65.6895 Q926.796 69.8214 922.988 71.8063 Q919.181 73.7508 913.671 73.7508 Q906.704 73.7508 902.572 69.8619 Q898.48 65.9325 898.48 59.3701 Q898.48 51.7138 903.585 47.825 Q908.729 43.9361 918.897 43.9361 L929.348 43.9361 L929.348 43.2069 Q929.348 38.0623 925.946 35.2672 Q922.583 32.4315 916.466 32.4315 Q912.578 32.4315 908.891 33.3632 Q905.205 34.295 901.802 36.1584 L901.802 29.2718 Q905.894 27.692 909.742 26.9223 Q913.59 26.1121 917.236 26.1121 Q927.08 26.1121 931.941 31.2163 Q936.802 36.3204 936.802 46.6907 Z" fill="#000000" fill-rule="nonzero" fill-opacity="1" /><path clip-path="url(#clip470)" d="M989.869 45.1919 L989.869 72.576 L982.415 72.576 L982.415 45.4349 Q982.415 38.994 979.904 35.7938 Q977.392 32.5936 972.369 32.5936 Q966.333 32.5936 962.849 36.4419 Q959.365 40.2903 959.365 46.9338 L959.365 72.576 L951.871 72.576 L951.871 27.2059 L959.365 27.2059 L959.365 34.2544 Q962.039 30.163 965.644 28.1376 Q969.29 26.1121 974.03 26.1121 Q981.848 26.1121 985.858 30.9732 Q989.869 35.7938 989.869 45.1919 Z" fill="#000000" fill-rule="nonzero" fill-opacity="1" /><path clip-path="url(#clip470)" d="M1038.48 14.324 L1038.48 27.2059 L1053.83 27.2059 L1053.83 32.9987 L1038.48 32.9987 L1038.48 57.6282 Q1038.48 63.1779 1039.98 64.7578 Q1041.52 66.3376 1046.18 66.3376 L1053.83 66.3376 L1053.83 72.576 L1046.18 72.576 Q1037.55 72.576 1034.27 69.3758 Q1030.99 66.1351 1030.99 57.6282 L1030.99 32.9987 L1025.52 32.9987 L1025.52 27.2059 L1030.99 27.2059 L1030.99 14.324 L1038.48 14.324 Z" fill="#000000" fill-rule="nonzero" fill-opacity="1" /><path clip-path="url(#clip470)" d="M1089.93 34.1734 Q1088.67 33.4443 1087.17 33.1202 Q1085.71 32.7556 1083.93 32.7556 Q1077.61 32.7556 1074.21 36.8875 Q1070.85 40.9789 1070.85 48.6757 L1070.85 72.576 L1063.35 72.576 L1063.35 27.2059 L1070.85 27.2059 L1070.85 34.2544 Q1073.2 30.1225 1076.96 28.1376 Q1080.73 26.1121 1086.12 26.1121 Q1086.89 26.1121 1087.82 26.2337 Q1088.75 26.3147 1089.89 26.5172 L1089.93 34.1734 Z" fill="#000000" fill-rule="nonzero" fill-opacity="1" /><path clip-path="url(#clip470)" d="M1118.36 49.7694 Q1109.33 49.7694 1105.85 51.8354 Q1102.36 53.9013 1102.36 58.8839 Q1102.36 62.8538 1104.95 65.2034 Q1107.59 67.5124 1112.08 67.5124 Q1118.28 67.5124 1122.01 63.1374 Q1125.78 58.7219 1125.78 51.4303 L1125.78 49.7694 L1118.36 49.7694 M1133.23 46.6907 L1133.23 72.576 L1125.78 72.576 L1125.78 65.6895 Q1123.22 69.8214 1119.42 71.8063 Q1115.61 73.7508 1110.1 73.7508 Q1103.13 73.7508 1099 69.8619 Q1094.91 65.9325 1094.91 59.3701 Q1094.91 51.7138 1100.01 47.825 Q1105.16 43.9361 1115.33 43.9361 L1125.78 43.9361 L1125.78 43.2069 Q1125.78 38.0623 1122.37 35.2672 Q1119.01 32.4315 1112.89 32.4315 Q1109.01 32.4315 1105.32 33.3632 Q1101.63 34.295 1098.23 36.1584 L1098.23 29.2718 Q1102.32 27.692 1106.17 26.9223 Q1110.02 26.1121 1113.66 26.1121 Q1123.51 26.1121 1128.37 31.2163 Q1133.23 36.3204 1133.23 46.6907 Z" fill="#000000" fill-rule="nonzero" fill-opacity="1" /><path clip-path="url(#clip470)" d="M1148.58 27.2059 L1156.04 27.2059 L1156.04 72.576 L1148.58 72.576 L1148.58 27.2059 M1148.58 9.54393 L1156.04 9.54393 L1156.04 18.9825 L1148.58 18.9825 L1148.58 9.54393 Z" fill="#000000" fill-rule="nonzero" fill-opacity="1" /><path clip-path="url(#clip470)" d="M1209.35 45.1919 L1209.35 72.576 L1201.89 72.576 L1201.89 45.4349 Q1201.89 38.994 1199.38 35.7938 Q1196.87 32.5936 1191.85 32.5936 Q1185.81 32.5936 1182.33 36.4419 Q1178.84 40.2903 1178.84 46.9338 L1178.84 72.576 L1171.35 72.576 L1171.35 27.2059 L1178.84 27.2059 L1178.84 34.2544 Q1181.52 30.163 1185.12 28.1376 Q1188.77 26.1121 1193.51 26.1121 Q1201.33 26.1121 1205.34 30.9732 Q1209.35 35.7938 1209.35 45.1919 Z" fill="#000000" fill-rule="nonzero" fill-opacity="1" /><path clip-path="url(#clip470)" d="M1250.59 9.54393 L1258.04 9.54393 L1258.04 72.576 L1250.59 72.576 L1250.59 9.54393 Z" fill="#000000" fill-rule="nonzero" fill-opacity="1" /><path clip-path="url(#clip470)" d="M1291.22 32.4315 Q1285.22 32.4315 1281.74 37.1306 Q1278.25 41.7891 1278.25 49.9314 Q1278.25 58.0738 1281.7 62.7728 Q1285.18 67.4314 1291.22 67.4314 Q1297.17 67.4314 1300.65 62.7323 Q1304.14 58.0333 1304.14 49.9314 Q1304.14 41.8701 1300.65 37.1711 Q1297.17 32.4315 1291.22 32.4315 M1291.22 26.1121 Q1300.94 26.1121 1306.49 32.4315 Q1312.04 38.7509 1312.04 49.9314 Q1312.04 61.0714 1306.49 67.4314 Q1300.94 73.7508 1291.22 73.7508 Q1281.45 73.7508 1275.9 67.4314 Q1270.39 61.0714 1270.39 49.9314 Q1270.39 38.7509 1275.9 32.4315 Q1281.45 26.1121 1291.22 26.1121 Z" fill="#000000" fill-rule="nonzero" fill-opacity="1" /><path clip-path="url(#clip470)" d="M1353.32 28.5427 L1353.32 35.5912 Q1350.16 33.9709 1346.75 33.1607 Q1343.35 32.3505 1339.7 32.3505 Q1334.16 32.3505 1331.36 34.0519 Q1328.61 35.7533 1328.61 39.156 Q1328.61 41.7486 1330.59 43.2475 Q1332.58 44.7058 1338.57 46.0426 L1341.12 46.6097 Q1349.06 48.3111 1352.38 51.4303 Q1355.75 54.509 1355.75 60.0587 Q1355.75 66.3781 1350.72 70.0644 Q1345.74 73.7508 1336.99 73.7508 Q1333.34 73.7508 1329.38 73.0216 Q1325.45 72.3329 1321.07 70.9151 L1321.07 63.2184 Q1325.2 65.3654 1329.21 66.4591 Q1333.22 67.5124 1337.15 67.5124 Q1342.42 67.5124 1345.25 65.73 Q1348.09 63.9071 1348.09 60.6258 Q1348.09 57.5877 1346.02 55.9673 Q1344 54.3469 1337.07 52.8481 L1334.48 52.2405 Q1327.55 50.7821 1324.47 47.7845 Q1321.39 44.7463 1321.39 39.4801 Q1321.39 33.0797 1325.93 29.5959 Q1330.47 26.1121 1338.81 26.1121 Q1342.95 26.1121 1346.59 26.7198 Q1350.24 27.3274 1353.32 28.5427 Z" fill="#000000" fill-rule="nonzero" fill-opacity="1" /><path clip-path="url(#clip470)" d="M1396.54 28.5427 L1396.54 35.5912 Q1393.38 33.9709 1389.98 33.1607 Q1386.57 32.3505 1382.93 32.3505 Q1377.38 32.3505 1374.58 34.0519 Q1371.83 35.7533 1371.83 39.156 Q1371.83 41.7486 1373.81 43.2475 Q1375.8 44.7058 1381.79 46.0426 L1384.35 46.6097 Q1392.29 48.3111 1395.61 51.4303 Q1398.97 54.509 1398.97 60.0587 Q1398.97 66.3781 1393.95 70.0644 Q1388.96 73.7508 1380.21 73.7508 Q1376.57 73.7508 1372.6 73.0216 Q1368.67 72.3329 1364.29 70.9151 L1364.29 63.2184 Q1368.43 65.3654 1372.44 66.4591 Q1376.45 67.5124 1380.38 67.5124 Q1385.64 67.5124 1388.48 65.73 Q1391.31 63.9071 1391.31 60.6258 Q1391.31 57.5877 1389.25 55.9673 Q1387.22 54.3469 1380.29 52.8481 L1377.7 52.2405 Q1370.78 50.7821 1367.7 47.7845 Q1364.62 44.7463 1364.62 39.4801 Q1364.62 33.0797 1369.15 29.5959 Q1373.69 26.1121 1382.04 26.1121 Q1386.17 26.1121 1389.81 26.7198 Q1393.46 27.3274 1396.54 28.5427 Z" fill="#000000" fill-rule="nonzero" fill-opacity="1" /><path clip-path="url(#clip470)" d="M1444.42 65.7705 L1444.42 89.8329 L1436.93 89.8329 L1436.93 27.2059 L1444.42 27.2059 L1444.42 34.0924 Q1446.77 30.0415 1450.34 28.0971 Q1453.94 26.1121 1458.92 26.1121 Q1467.19 26.1121 1472.33 32.6746 Q1477.52 39.2371 1477.52 49.9314 Q1477.52 60.6258 1472.33 67.1883 Q1467.19 73.7508 1458.92 73.7508 Q1453.94 73.7508 1450.34 71.8063 Q1446.77 69.8214 1444.42 65.7705 M1469.78 49.9314 Q1469.78 41.7081 1466.38 37.0496 Q1463.01 32.3505 1457.1 32.3505 Q1451.19 32.3505 1447.78 37.0496 Q1444.42 41.7081 1444.42 49.9314 Q1444.42 58.1548 1447.78 62.8538 Q1451.19 67.5124 1457.1 67.5124 Q1463.01 67.5124 1466.38 62.8538 Q1469.78 58.1548 1469.78 49.9314 Z" fill="#000000" fill-rule="nonzero" fill-opacity="1" /><path clip-path="url(#clip470)" d="M1528.68 48.0275 L1528.68 51.6733 L1494.41 51.6733 Q1494.9 59.3701 1499.03 63.421 Q1503.2 67.4314 1510.61 67.4314 Q1514.91 67.4314 1518.92 66.3781 Q1522.97 65.3249 1526.94 63.2184 L1526.94 70.267 Q1522.93 71.9684 1518.71 72.8596 Q1514.5 73.7508 1510.17 73.7508 Q1499.31 73.7508 1492.95 67.4314 Q1486.63 61.1119 1486.63 50.3365 Q1486.63 39.1965 1492.63 32.6746 Q1498.66 26.1121 1508.87 26.1121 Q1518.03 26.1121 1523.33 32.0264 Q1528.68 37.9003 1528.68 48.0275 M1521.23 45.84 Q1521.14 39.7232 1517.78 36.0774 Q1514.46 32.4315 1508.95 32.4315 Q1502.71 32.4315 1498.95 35.9558 Q1495.22 39.4801 1494.65 45.8805 L1521.23 45.84 Z" fill="#000000" fill-rule="nonzero" fill-opacity="1" /><path clip-path="url(#clip470)" d="M1567.2 34.1734 Q1565.95 33.4443 1564.45 33.1202 Q1562.99 32.7556 1561.21 32.7556 Q1554.89 32.7556 1551.49 36.8875 Q1548.12 40.9789 1548.12 48.6757 L1548.12 72.576 L1540.63 72.576 L1540.63 27.2059 L1548.12 27.2059 L1548.12 34.2544 Q1550.47 30.1225 1554.24 28.1376 Q1558.01 26.1121 1563.4 26.1121 Q1564.17 26.1121 1565.1 26.2337 Q1566.03 26.3147 1567.16 26.5172 L1567.2 34.1734 Z" fill="#000000" fill-rule="nonzero" fill-opacity="1" /><path clip-path="url(#clip470)" d="M1640.2 48.0275 L1640.2 51.6733 L1605.93 51.6733 Q1606.42 59.3701 1610.55 63.421 Q1614.72 67.4314 1622.13 67.4314 Q1626.43 67.4314 1630.44 66.3781 Q1634.49 65.3249 1638.46 63.2184 L1638.46 70.267 Q1634.45 71.9684 1630.24 72.8596 Q1626.02 73.7508 1621.69 73.7508 Q1610.83 73.7508 1604.47 67.4314 Q1598.15 61.1119 1598.15 50.3365 Q1598.15 39.1965 1604.15 32.6746 Q1610.18 26.1121 1620.39 26.1121 Q1629.55 26.1121 1634.85 32.0264 Q1640.2 37.9003 1640.2 48.0275 M1632.75 45.84 Q1632.67 39.7232 1629.3 36.0774 Q1625.98 32.4315 1620.47 32.4315 Q1614.23 32.4315 1610.47 35.9558 Q1606.74 39.4801 1606.17 45.8805 L1632.75 45.84 Z" fill="#000000" fill-rule="nonzero" fill-opacity="1" /><path clip-path="url(#clip470)" d="M1659.65 65.7705 L1659.65 89.8329 L1652.15 89.8329 L1652.15 27.2059 L1659.65 27.2059 L1659.65 34.0924 Q1661.99 30.0415 1665.56 28.0971 Q1669.16 26.1121 1674.15 26.1121 Q1682.41 26.1121 1687.56 32.6746 Q1692.74 39.2371 1692.74 49.9314 Q1692.74 60.6258 1687.56 67.1883 Q1682.41 73.7508 1674.15 73.7508 Q1669.16 73.7508 1665.56 71.8063 Q1661.99 69.8214 1659.65 65.7705 M1685 49.9314 Q1685 41.7081 1681.6 37.0496 Q1678.24 32.3505 1672.32 32.3505 Q1666.41 32.3505 1663.01 37.0496 Q1659.65 41.7081 1659.65 49.9314 Q1659.65 58.1548 1663.01 62.8538 Q1666.41 67.5124 1672.32 67.5124 Q1678.24 67.5124 1681.6 62.8538 Q1685 58.1548 1685 49.9314 Z" fill="#000000" fill-rule="nonzero" fill-opacity="1" /><path clip-path="url(#clip470)" d="M1722.68 32.4315 Q1716.68 32.4315 1713.2 37.1306 Q1709.71 41.7891 1709.71 49.9314 Q1709.71 58.0738 1713.16 62.7728 Q1716.64 67.4314 1722.68 67.4314 Q1728.63 67.4314 1732.12 62.7323 Q1735.6 58.0333 1735.6 49.9314 Q1735.6 41.8701 1732.12 37.1711 Q1728.63 32.4315 1722.68 32.4315 M1722.68 26.1121 Q1732.4 26.1121 1737.95 32.4315 Q1743.5 38.7509 1743.5 49.9314 Q1743.5 61.0714 1737.95 67.4314 Q1732.4 73.7508 1722.68 73.7508 Q1712.91 73.7508 1707.36 67.4314 Q1701.86 61.0714 1701.86 49.9314 Q1701.86 38.7509 1707.36 32.4315 Q1712.91 26.1121 1722.68 26.1121 Z" fill="#000000" fill-rule="nonzero" fill-opacity="1" /><path clip-path="url(#clip470)" d="M1788.5 28.9478 L1788.5 35.9153 Q1785.34 34.1734 1782.14 33.3227 Q1778.98 32.4315 1775.74 32.4315 Q1768.49 32.4315 1764.48 37.0496 Q1760.47 41.6271 1760.47 49.9314 Q1760.47 58.2358 1764.48 62.8538 Q1768.49 67.4314 1775.74 67.4314 Q1778.98 67.4314 1782.14 66.5807 Q1785.34 65.6895 1788.5 63.9476 L1788.5 70.8341 Q1785.39 72.2924 1782.02 73.0216 Q1778.7 73.7508 1774.93 73.7508 Q1764.69 73.7508 1758.65 67.3098 Q1752.61 60.8689 1752.61 49.9314 Q1752.61 38.832 1758.69 32.472 Q1764.81 26.1121 1775.42 26.1121 Q1778.86 26.1121 1782.14 26.8413 Q1785.43 27.5299 1788.5 28.9478 Z" fill="#000000" fill-rule="nonzero" fill-opacity="1" /><path clip-path="url(#clip470)" d="M1839.18 45.1919 L1839.18 72.576 L1831.73 72.576 L1831.73 45.4349 Q1831.73 38.994 1829.22 35.7938 Q1826.7 32.5936 1821.68 32.5936 Q1815.65 32.5936 1812.16 36.4419 Q1808.68 40.2903 1808.68 46.9338 L1808.68 72.576 L1801.18 72.576 L1801.18 9.54393 L1808.68 9.54393 L1808.68 34.2544 Q1811.35 30.163 1814.96 28.1376 Q1818.6 26.1121 1823.34 26.1121 Q1831.16 26.1121 1835.17 30.9732 Q1839.18 35.7938 1839.18 45.1919 Z" fill="#000000" fill-rule="nonzero" fill-opacity="1" /><polyline clip-path="url(#clip472)" style="stroke:#ff0000; stroke-linecap:round; stroke-linejoin:round; stroke-width:8; stroke-opacity:1; fill:none" points="324.52,160.256 428.16,588.028 531.8,864.937 635.44,983.312 739.08,1092.08 842.72,1164.41 946.36,1201.34 1050,1244.01 1153.64,1273.83 1257.28,1281.87 1360.92,1313.33 1464.56,1328.04 1568.2,1336.96 1671.84,1355.16 1775.48,1357.72 1879.12,1371.49 1982.76,1379.39 2086.4,1375.87 2190.04,1376.2 2293.68,1386.4 "/>
<path clip-path="url(#clip470)" d="M1856.23 270.476 L2283.18 270.476 L2283.18 166.796 L1856.23 166.796  Z" fill="#ffffff" fill-rule="evenodd" fill-opacity="1"/>
<polyline clip-path="url(#clip470)" style="stroke:#000000; stroke-linecap:round; stroke-linejoin:round; stroke-width:4; stroke-opacity:1; fill:none" points="1856.23,270.476 2283.18,270.476 2283.18,166.796 1856.23,166.796 1856.23,270.476 "/>
<polyline clip-path="url(#clip470)" style="stroke:#ff0000; stroke-linecap:round; stroke-linejoin:round; stroke-width:8; stroke-opacity:1; fill:none" points="1879.42,218.636 2018.58,218.636 "/>
<path clip-path="url(#clip470)" d="M2041.77 201.356 L2071.01 201.356 L2071.01 205.291 L2058.74 205.291 L2058.74 235.916 L2054.04 235.916 L2054.04 205.291 L2041.77 205.291 L2041.77 201.356 Z" fill="#000000" fill-rule="nonzero" fill-opacity="1" /><path clip-path="url(#clip470)" d="M2083.39 213.971 Q2082.67 213.555 2081.82 213.37 Q2080.98 213.161 2079.96 213.161 Q2076.35 213.161 2074.41 215.522 Q2072.49 217.86 2072.49 222.258 L2072.49 235.916 L2068.21 235.916 L2068.21 209.99 L2072.49 209.99 L2072.49 214.018 Q2073.83 211.657 2075.98 210.522 Q2078.14 209.365 2081.21 209.365 Q2081.65 209.365 2082.19 209.434 Q2082.72 209.481 2083.37 209.596 L2083.39 213.971 Z" fill="#000000" fill-rule="nonzero" fill-opacity="1" /><path clip-path="url(#clip470)" d="M2099.64 222.883 Q2094.48 222.883 2092.49 224.064 Q2090.5 225.244 2090.5 228.092 Q2090.5 230.36 2091.98 231.703 Q2093.48 233.022 2096.05 233.022 Q2099.59 233.022 2101.72 230.522 Q2103.88 227.999 2103.88 223.832 L2103.88 222.883 L2099.64 222.883 M2108.14 221.124 L2108.14 235.916 L2103.88 235.916 L2103.88 231.981 Q2102.42 234.342 2100.24 235.476 Q2098.07 236.587 2094.92 236.587 Q2090.94 236.587 2088.58 234.365 Q2086.24 232.119 2086.24 228.369 Q2086.24 223.994 2089.15 221.772 Q2092.09 219.55 2097.9 219.55 L2103.88 219.55 L2103.88 219.133 Q2103.88 216.194 2101.93 214.596 Q2100.01 212.976 2096.52 212.976 Q2094.29 212.976 2092.19 213.508 Q2090.08 214.041 2088.14 215.106 L2088.14 211.17 Q2090.47 210.268 2092.67 209.828 Q2094.87 209.365 2096.95 209.365 Q2102.58 209.365 2105.36 212.282 Q2108.14 215.198 2108.14 221.124 Z" fill="#000000" fill-rule="nonzero" fill-opacity="1" /><path clip-path="url(#clip470)" d="M2116.91 209.99 L2121.17 209.99 L2121.17 235.916 L2116.91 235.916 L2116.91 209.99 M2116.91 199.897 L2121.17 199.897 L2121.17 205.291 L2116.91 205.291 L2116.91 199.897 Z" fill="#000000" fill-rule="nonzero" fill-opacity="1" /><path clip-path="url(#clip470)" d="M2151.63 220.268 L2151.63 235.916 L2147.37 235.916 L2147.37 220.407 Q2147.37 216.726 2145.94 214.897 Q2144.5 213.069 2141.63 213.069 Q2138.18 213.069 2136.19 215.268 Q2134.2 217.467 2134.2 221.263 L2134.2 235.916 L2129.92 235.916 L2129.92 209.99 L2134.2 209.99 L2134.2 214.018 Q2135.73 211.68 2137.79 210.522 Q2139.87 209.365 2142.58 209.365 Q2147.05 209.365 2149.34 212.143 Q2151.63 214.897 2151.63 220.268 Z" fill="#000000" fill-rule="nonzero" fill-opacity="1" /><path clip-path="url(#clip470)" d="M2175.2 199.897 L2179.45 199.897 L2179.45 235.916 L2175.2 235.916 L2175.2 199.897 Z" fill="#000000" fill-rule="nonzero" fill-opacity="1" /><path clip-path="url(#clip470)" d="M2198.41 212.976 Q2194.99 212.976 2193 215.661 Q2191.01 218.323 2191.01 222.976 Q2191.01 227.629 2192.97 230.314 Q2194.96 232.976 2198.41 232.976 Q2201.82 232.976 2203.81 230.291 Q2205.8 227.606 2205.8 222.976 Q2205.8 218.37 2203.81 215.684 Q2201.82 212.976 2198.41 212.976 M2198.41 209.365 Q2203.97 209.365 2207.14 212.976 Q2210.31 216.587 2210.31 222.976 Q2210.31 229.342 2207.14 232.976 Q2203.97 236.587 2198.41 236.587 Q2192.83 236.587 2189.66 232.976 Q2186.51 229.342 2186.51 222.976 Q2186.51 216.587 2189.66 212.976 Q2192.83 209.365 2198.41 209.365 Z" fill="#000000" fill-rule="nonzero" fill-opacity="1" /><path clip-path="url(#clip470)" d="M2233.9 210.754 L2233.9 214.782 Q2232.09 213.856 2230.15 213.393 Q2228.2 212.93 2226.12 212.93 Q2222.95 212.93 2221.35 213.902 Q2219.78 214.874 2219.78 216.819 Q2219.78 218.3 2220.91 219.157 Q2222.05 219.99 2225.47 220.754 L2226.93 221.078 Q2231.47 222.05 2233.37 223.832 Q2235.29 225.592 2235.29 228.763 Q2235.29 232.374 2232.42 234.481 Q2229.57 236.587 2224.57 236.587 Q2222.49 236.587 2220.22 236.17 Q2217.97 235.777 2215.47 234.967 L2215.47 230.569 Q2217.83 231.795 2220.13 232.42 Q2222.42 233.022 2224.66 233.022 Q2227.67 233.022 2229.29 232.004 Q2230.91 230.962 2230.91 229.087 Q2230.91 227.351 2229.73 226.425 Q2228.57 225.499 2224.62 224.643 L2223.13 224.295 Q2219.18 223.462 2217.42 221.749 Q2215.66 220.013 2215.66 217.004 Q2215.66 213.346 2218.25 211.356 Q2220.84 209.365 2225.61 209.365 Q2227.97 209.365 2230.06 209.712 Q2232.14 210.059 2233.9 210.754 Z" fill="#000000" fill-rule="nonzero" fill-opacity="1" /><path clip-path="url(#clip470)" d="M2258.6 210.754 L2258.6 214.782 Q2256.79 213.856 2254.85 213.393 Q2252.9 212.93 2250.82 212.93 Q2247.65 212.93 2246.05 213.902 Q2244.48 214.874 2244.48 216.819 Q2244.48 218.3 2245.61 219.157 Q2246.75 219.99 2250.17 220.754 L2251.63 221.078 Q2256.17 222.05 2258.07 223.832 Q2259.99 225.592 2259.99 228.763 Q2259.99 232.374 2257.12 234.481 Q2254.27 236.587 2249.27 236.587 Q2247.19 236.587 2244.92 236.17 Q2242.67 235.777 2240.17 234.967 L2240.17 230.569 Q2242.53 231.795 2244.82 232.42 Q2247.12 233.022 2249.36 233.022 Q2252.37 233.022 2253.99 232.004 Q2255.61 230.962 2255.61 229.087 Q2255.61 227.351 2254.43 226.425 Q2253.27 225.499 2249.32 224.643 L2247.83 224.295 Q2243.88 223.462 2242.12 221.749 Q2240.36 220.013 2240.36 217.004 Q2240.36 213.346 2242.95 211.356 Q2245.54 209.365 2250.31 209.365 Q2252.67 209.365 2254.76 209.712 Q2256.84 210.059 2258.6 210.754 Z" fill="#000000" fill-rule="nonzero" fill-opacity="1" /></svg>
